<?xml version="1.0" encoding="utf-8" standalone="no"?>
<!DOCTYPE svg PUBLIC "-//W3C//DTD SVG 1.1//EN"
  "http://www.w3.org/Graphics/SVG/1.1/DTD/svg11.dtd">
<svg xmlns:xlink="http://www.w3.org/1999/xlink" width="849.994062pt" height="568.8pt" viewBox="0 0 849.994062 568.8" xmlns="http://www.w3.org/2000/svg" version="1.1">
 <metadata>
  <rdf:RDF xmlns:dc="http://purl.org/dc/elements/1.1/" xmlns:cc="http://creativecommons.org/ns#" xmlns:rdf="http://www.w3.org/1999/02/22-rdf-syntax-ns#">
   <cc:Work>
    <dc:type rdf:resource="http://purl.org/dc/dcmitype/StillImage"/>
    <dc:date>2025-10-21T17:13:31.487375</dc:date>
    <dc:format>image/svg+xml</dc:format>
    <dc:creator>
     <cc:Agent>
      <dc:title>Matplotlib v3.9.4, https://matplotlib.org/</dc:title>
     </cc:Agent>
    </dc:creator>
   </cc:Work>
  </rdf:RDF>
 </metadata>
 <defs>
  <style type="text/css">*{stroke-linejoin: round; stroke-linecap: butt}</style>
 </defs>
 <g id="figure_1">
  <g id="patch_1">
   <path d="M 0 568.8 
L 849.994062 568.8 
L 849.994062 0 
L 0 0 
z
" style="fill: #ffffff"/>
  </g>
  <g id="axes_1">
   <g id="patch_2">
    <path d="M 64.41375 529.308125 
L 597.895 529.308125 
L 597.895 23.837812 
L 64.41375 23.837812 
z
" style="fill: #ffffff"/>
   </g>
   <g id="matplotlib.axis_1">
    <g id="xtick_1">
     <g id="line2d_1">
      <path d="M 69.26358 529.308125 
L 69.26358 23.837812 
" clip-path="url(#p102dd51d9b)" style="fill: none; stroke: #b0b0b0; stroke-opacity: 0.3; stroke-width: 0.8; stroke-linecap: square"/>
     </g>
     <g id="line2d_2">
      <defs>
       <path id="m2e73f6cacf" d="M 0 0 
L 0 3.5 
" style="stroke: #000000; stroke-width: 0.8"/>
      </defs>
      <g>
       <use xlink:href="#m2e73f6cacf" x="69.26358" y="529.308125" style="stroke: #000000; stroke-width: 0.8"/>
      </g>
     </g>
     <g id="text_1">
      <text style="font: 10px 'DejaVu Sans', 'Bitstream Vera Sans', 'Computer Modern Sans Serif', 'Lucida Grande', 'Verdana', 'Geneva', 'Lucid', 'Arial', 'Helvetica', 'Avant Garde', sans-serif; text-anchor: middle" x="69.26358" y="543.906563" transform="rotate(-0 69.26358 543.906563)">95</text>
     </g>
    </g>
    <g id="xtick_2">
     <g id="line2d_3">
      <path d="M 166.26017 529.308125 
L 166.26017 23.837812 
" clip-path="url(#p102dd51d9b)" style="fill: none; stroke: #b0b0b0; stroke-opacity: 0.3; stroke-width: 0.8; stroke-linecap: square"/>
     </g>
     <g id="line2d_4">
      <g>
       <use xlink:href="#m2e73f6cacf" x="166.26017" y="529.308125" style="stroke: #000000; stroke-width: 0.8"/>
      </g>
     </g>
     <g id="text_2">
      <text style="font: 10px 'DejaVu Sans', 'Bitstream Vera Sans', 'Computer Modern Sans Serif', 'Lucida Grande', 'Verdana', 'Geneva', 'Lucid', 'Arial', 'Helvetica', 'Avant Garde', sans-serif; text-anchor: middle" x="166.26017" y="543.906563" transform="rotate(-0 166.26017 543.906563)">100</text>
     </g>
    </g>
    <g id="xtick_3">
     <g id="line2d_5">
      <path d="M 263.256761 529.308125 
L 263.256761 23.837812 
" clip-path="url(#p102dd51d9b)" style="fill: none; stroke: #b0b0b0; stroke-opacity: 0.3; stroke-width: 0.8; stroke-linecap: square"/>
     </g>
     <g id="line2d_6">
      <g>
       <use xlink:href="#m2e73f6cacf" x="263.256761" y="529.308125" style="stroke: #000000; stroke-width: 0.8"/>
      </g>
     </g>
     <g id="text_3">
      <text style="font: 10px 'DejaVu Sans', 'Bitstream Vera Sans', 'Computer Modern Sans Serif', 'Lucida Grande', 'Verdana', 'Geneva', 'Lucid', 'Arial', 'Helvetica', 'Avant Garde', sans-serif; text-anchor: middle" x="263.256761" y="543.906563" transform="rotate(-0 263.256761 543.906563)">105</text>
     </g>
    </g>
    <g id="xtick_4">
     <g id="line2d_7">
      <path d="M 360.253352 529.308125 
L 360.253352 23.837812 
" clip-path="url(#p102dd51d9b)" style="fill: none; stroke: #b0b0b0; stroke-opacity: 0.3; stroke-width: 0.8; stroke-linecap: square"/>
     </g>
     <g id="line2d_8">
      <g>
       <use xlink:href="#m2e73f6cacf" x="360.253352" y="529.308125" style="stroke: #000000; stroke-width: 0.8"/>
      </g>
     </g>
     <g id="text_4">
      <text style="font: 10px 'DejaVu Sans', 'Bitstream Vera Sans', 'Computer Modern Sans Serif', 'Lucida Grande', 'Verdana', 'Geneva', 'Lucid', 'Arial', 'Helvetica', 'Avant Garde', sans-serif; text-anchor: middle" x="360.253352" y="543.906563" transform="rotate(-0 360.253352 543.906563)">110</text>
     </g>
    </g>
    <g id="xtick_5">
     <g id="line2d_9">
      <path d="M 457.249943 529.308125 
L 457.249943 23.837812 
" clip-path="url(#p102dd51d9b)" style="fill: none; stroke: #b0b0b0; stroke-opacity: 0.3; stroke-width: 0.8; stroke-linecap: square"/>
     </g>
     <g id="line2d_10">
      <g>
       <use xlink:href="#m2e73f6cacf" x="457.249943" y="529.308125" style="stroke: #000000; stroke-width: 0.8"/>
      </g>
     </g>
     <g id="text_5">
      <text style="font: 10px 'DejaVu Sans', 'Bitstream Vera Sans', 'Computer Modern Sans Serif', 'Lucida Grande', 'Verdana', 'Geneva', 'Lucid', 'Arial', 'Helvetica', 'Avant Garde', sans-serif; text-anchor: middle" x="457.249943" y="543.906563" transform="rotate(-0 457.249943 543.906563)">115</text>
     </g>
    </g>
    <g id="xtick_6">
     <g id="line2d_11">
      <path d="M 554.246534 529.308125 
L 554.246534 23.837812 
" clip-path="url(#p102dd51d9b)" style="fill: none; stroke: #b0b0b0; stroke-opacity: 0.3; stroke-width: 0.8; stroke-linecap: square"/>
     </g>
     <g id="line2d_12">
      <g>
       <use xlink:href="#m2e73f6cacf" x="554.246534" y="529.308125" style="stroke: #000000; stroke-width: 0.8"/>
      </g>
     </g>
     <g id="text_6">
      <text style="font: 10px 'DejaVu Sans', 'Bitstream Vera Sans', 'Computer Modern Sans Serif', 'Lucida Grande', 'Verdana', 'Geneva', 'Lucid', 'Arial', 'Helvetica', 'Avant Garde', sans-serif; text-anchor: middle" x="554.246534" y="543.906563" transform="rotate(-0 554.246534 543.906563)">120</text>
     </g>
    </g>
    <g id="text_7">
     <text style="font: 12px 'DejaVu Sans', 'Bitstream Vera Sans', 'Computer Modern Sans Serif', 'Lucida Grande', 'Verdana', 'Geneva', 'Lucid', 'Arial', 'Helvetica', 'Avant Garde', sans-serif; text-anchor: middle" x="331.154375" y="559.104375" transform="rotate(-0 331.154375 559.104375)">Build Number</text>
    </g>
   </g>
   <g id="matplotlib.axis_2">
    <g id="ytick_1">
     <g id="line2d_13">
      <defs>
       <path id="m4361298dd5" d="M 0 0 
L -2 0 
" style="stroke: #000000; stroke-width: 0.6"/>
      </defs>
      <g>
       <use xlink:href="#m4361298dd5" x="64.41375" y="314.369656" style="stroke: #000000; stroke-width: 0.6"/>
      </g>
     </g>
     <g id="text_8">
      <!-- $\mathdefault{2\times10^{5}}$ -->
      <g transform="translate(22.81375 318.168874)">
       <text>
        <tspan style="font: 10px 'DejaVu Sans'" x="0 8.310547 18.637695 25" y="-0.06406250000000036">2×10</tspan>
        <tspan style="font: 7px 'DejaVu Sans'" x="31.458008" y="-3.8921875000000004">5</tspan>
       </text>
      </g>
     </g>
    </g>
    <g id="ytick_2">
     <g id="line2d_14">
      <g>
       <use xlink:href="#m4361298dd5" x="64.41375" y="185.624887" style="stroke: #000000; stroke-width: 0.6"/>
      </g>
     </g>
     <g id="text_9">
      <!-- $\mathdefault{3\times10^{5}}$ -->
      <g transform="translate(22.81375 189.424106)">
       <text>
        <tspan style="font: 10px 'DejaVu Sans'" x="0 8.310547 18.637695 25" y="-0.06406250000000036">3×10</tspan>
        <tspan style="font: 7px 'DejaVu Sans'" x="31.458008" y="-3.8921875000000004">5</tspan>
       </text>
      </g>
     </g>
    </g>
    <g id="ytick_3">
     <g id="line2d_15">
      <g>
       <use xlink:href="#m4361298dd5" x="64.41375" y="94.27902" style="stroke: #000000; stroke-width: 0.6"/>
      </g>
     </g>
     <g id="text_10">
      <!-- $\mathdefault{4\times10^{5}}$ -->
      <g transform="translate(22.81375 98.078239)">
       <text>
        <tspan style="font: 10px 'DejaVu Sans'" x="0 8.310547 18.637695 25" y="-0.06406250000000036">4×10</tspan>
        <tspan style="font: 7px 'DejaVu Sans'" x="31.458008" y="-3.8921875000000004">5</tspan>
       </text>
      </g>
     </g>
    </g>
    <g id="text_11">
     <text style="font: 12px 'DejaVu Sans', 'Bitstream Vera Sans', 'Computer Modern Sans Serif', 'Lucida Grande', 'Verdana', 'Geneva', 'Lucid', 'Arial', 'Helvetica', 'Avant Garde', sans-serif; text-anchor: middle" x="16.318125" y="276.572969" transform="rotate(-90 16.318125 276.572969)">Median Elapsed Time (nanoseconds)</text>
    </g>
   </g>
   <g id="line2d_16">
    <path d="M 88.662898 403.795663 
L 108.062216 400.789346 
L 146.860852 430.223753 
L 166.26017 390.224096 
L 185.659489 401.339227 
L 205.058807 396.160192 
L 224.458125 399.660241 
L 243.857443 392.462093 
L 263.256761 404.361318 
L 282.65608 391.302079 
L 321.454716 396.682561 
L 340.854034 387.820835 
L 360.253352 394.856482 
L 379.65267 386.530726 
L 399.051989 407.943233 
L 437.850625 393.236916 
L 457.249943 403.094942 
L 476.649261 389.561917 
L 496.04858 395.277758 
L 515.447898 394.464572 
L 534.847216 410.229408 
L 554.246534 388.223457 
L 573.645852 372.684225 
" clip-path="url(#p102dd51d9b)" style="fill: none; stroke: #1f77b4; stroke-width: 2; stroke-linecap: square"/>
    <defs>
     <path id="mc269d68eb8" d="M 0 3 
C 0.795609 3 1.55874 2.683901 2.12132 2.12132 
C 2.683901 1.55874 3 0.795609 3 0 
C 3 -0.795609 2.683901 -1.55874 2.12132 -2.12132 
C 1.55874 -2.683901 0.795609 -3 0 -3 
C -0.795609 -3 -1.55874 -2.683901 -2.12132 -2.12132 
C -2.683901 -1.55874 -3 -0.795609 -3 0 
C -3 0.795609 -2.683901 1.55874 -2.12132 2.12132 
C -1.55874 2.683901 -0.795609 3 0 3 
z
" style="stroke: #1f77b4"/>
    </defs>
    <g clip-path="url(#p102dd51d9b)">
     <use xlink:href="#mc269d68eb8" x="88.662898" y="403.795663" style="fill: #1f77b4; stroke: #1f77b4"/>
     <use xlink:href="#mc269d68eb8" x="108.062216" y="400.789346" style="fill: #1f77b4; stroke: #1f77b4"/>
     <use xlink:href="#mc269d68eb8" x="146.860852" y="430.223753" style="fill: #1f77b4; stroke: #1f77b4"/>
     <use xlink:href="#mc269d68eb8" x="166.26017" y="390.224096" style="fill: #1f77b4; stroke: #1f77b4"/>
     <use xlink:href="#mc269d68eb8" x="185.659489" y="401.339227" style="fill: #1f77b4; stroke: #1f77b4"/>
     <use xlink:href="#mc269d68eb8" x="205.058807" y="396.160192" style="fill: #1f77b4; stroke: #1f77b4"/>
     <use xlink:href="#mc269d68eb8" x="224.458125" y="399.660241" style="fill: #1f77b4; stroke: #1f77b4"/>
     <use xlink:href="#mc269d68eb8" x="243.857443" y="392.462093" style="fill: #1f77b4; stroke: #1f77b4"/>
     <use xlink:href="#mc269d68eb8" x="263.256761" y="404.361318" style="fill: #1f77b4; stroke: #1f77b4"/>
     <use xlink:href="#mc269d68eb8" x="282.65608" y="391.302079" style="fill: #1f77b4; stroke: #1f77b4"/>
     <use xlink:href="#mc269d68eb8" x="321.454716" y="396.682561" style="fill: #1f77b4; stroke: #1f77b4"/>
     <use xlink:href="#mc269d68eb8" x="340.854034" y="387.820835" style="fill: #1f77b4; stroke: #1f77b4"/>
     <use xlink:href="#mc269d68eb8" x="360.253352" y="394.856482" style="fill: #1f77b4; stroke: #1f77b4"/>
     <use xlink:href="#mc269d68eb8" x="379.65267" y="386.530726" style="fill: #1f77b4; stroke: #1f77b4"/>
     <use xlink:href="#mc269d68eb8" x="399.051989" y="407.943233" style="fill: #1f77b4; stroke: #1f77b4"/>
     <use xlink:href="#mc269d68eb8" x="437.850625" y="393.236916" style="fill: #1f77b4; stroke: #1f77b4"/>
     <use xlink:href="#mc269d68eb8" x="457.249943" y="403.094942" style="fill: #1f77b4; stroke: #1f77b4"/>
     <use xlink:href="#mc269d68eb8" x="476.649261" y="389.561917" style="fill: #1f77b4; stroke: #1f77b4"/>
     <use xlink:href="#mc269d68eb8" x="496.04858" y="395.277758" style="fill: #1f77b4; stroke: #1f77b4"/>
     <use xlink:href="#mc269d68eb8" x="515.447898" y="394.464572" style="fill: #1f77b4; stroke: #1f77b4"/>
     <use xlink:href="#mc269d68eb8" x="534.847216" y="410.229408" style="fill: #1f77b4; stroke: #1f77b4"/>
     <use xlink:href="#mc269d68eb8" x="554.246534" y="388.223457" style="fill: #1f77b4; stroke: #1f77b4"/>
     <use xlink:href="#mc269d68eb8" x="573.645852" y="372.684225" style="fill: #1f77b4; stroke: #1f77b4"/>
    </g>
   </g>
   <g id="line2d_17">
    <path d="M 88.662898 462.521588 
L 108.062216 474.44824 
L 146.860852 488.172749 
L 166.26017 487.421305 
L 185.659489 462.36442 
L 205.058807 461.806985 
L 224.458125 468.375247 
L 243.857443 464.804346 
L 263.256761 465.156093 
L 282.65608 459.555379 
L 321.454716 463.282969 
L 340.854034 450.498051 
L 360.253352 457.706371 
L 379.65267 487.035204 
L 399.051989 469.277434 
L 437.850625 450.335515 
L 457.249943 506.332202 
L 476.649261 457.725321 
L 496.04858 473.10095 
L 515.447898 461.263387 
L 534.847216 472.628031 
L 554.246534 487.535136 
L 573.645852 459.695606 
" clip-path="url(#p102dd51d9b)" style="fill: none; stroke: #ff7f0e; stroke-width: 2; stroke-linecap: square"/>
    <defs>
     <path id="m57fa911577" d="M 0 3 
C 0.795609 3 1.55874 2.683901 2.12132 2.12132 
C 2.683901 1.55874 3 0.795609 3 0 
C 3 -0.795609 2.683901 -1.55874 2.12132 -2.12132 
C 1.55874 -2.683901 0.795609 -3 0 -3 
C -0.795609 -3 -1.55874 -2.683901 -2.12132 -2.12132 
C -2.683901 -1.55874 -3 -0.795609 -3 0 
C -3 0.795609 -2.683901 1.55874 -2.12132 2.12132 
C -1.55874 2.683901 -0.795609 3 0 3 
z
" style="stroke: #ff7f0e"/>
    </defs>
    <g clip-path="url(#p102dd51d9b)">
     <use xlink:href="#m57fa911577" x="88.662898" y="462.521588" style="fill: #ff7f0e; stroke: #ff7f0e"/>
     <use xlink:href="#m57fa911577" x="108.062216" y="474.44824" style="fill: #ff7f0e; stroke: #ff7f0e"/>
     <use xlink:href="#m57fa911577" x="146.860852" y="488.172749" style="fill: #ff7f0e; stroke: #ff7f0e"/>
     <use xlink:href="#m57fa911577" x="166.26017" y="487.421305" style="fill: #ff7f0e; stroke: #ff7f0e"/>
     <use xlink:href="#m57fa911577" x="185.659489" y="462.36442" style="fill: #ff7f0e; stroke: #ff7f0e"/>
     <use xlink:href="#m57fa911577" x="205.058807" y="461.806985" style="fill: #ff7f0e; stroke: #ff7f0e"/>
     <use xlink:href="#m57fa911577" x="224.458125" y="468.375247" style="fill: #ff7f0e; stroke: #ff7f0e"/>
     <use xlink:href="#m57fa911577" x="243.857443" y="464.804346" style="fill: #ff7f0e; stroke: #ff7f0e"/>
     <use xlink:href="#m57fa911577" x="263.256761" y="465.156093" style="fill: #ff7f0e; stroke: #ff7f0e"/>
     <use xlink:href="#m57fa911577" x="282.65608" y="459.555379" style="fill: #ff7f0e; stroke: #ff7f0e"/>
     <use xlink:href="#m57fa911577" x="321.454716" y="463.282969" style="fill: #ff7f0e; stroke: #ff7f0e"/>
     <use xlink:href="#m57fa911577" x="340.854034" y="450.498051" style="fill: #ff7f0e; stroke: #ff7f0e"/>
     <use xlink:href="#m57fa911577" x="360.253352" y="457.706371" style="fill: #ff7f0e; stroke: #ff7f0e"/>
     <use xlink:href="#m57fa911577" x="379.65267" y="487.035204" style="fill: #ff7f0e; stroke: #ff7f0e"/>
     <use xlink:href="#m57fa911577" x="399.051989" y="469.277434" style="fill: #ff7f0e; stroke: #ff7f0e"/>
     <use xlink:href="#m57fa911577" x="437.850625" y="450.335515" style="fill: #ff7f0e; stroke: #ff7f0e"/>
     <use xlink:href="#m57fa911577" x="457.249943" y="506.332202" style="fill: #ff7f0e; stroke: #ff7f0e"/>
     <use xlink:href="#m57fa911577" x="476.649261" y="457.725321" style="fill: #ff7f0e; stroke: #ff7f0e"/>
     <use xlink:href="#m57fa911577" x="496.04858" y="473.10095" style="fill: #ff7f0e; stroke: #ff7f0e"/>
     <use xlink:href="#m57fa911577" x="515.447898" y="461.263387" style="fill: #ff7f0e; stroke: #ff7f0e"/>
     <use xlink:href="#m57fa911577" x="534.847216" y="472.628031" style="fill: #ff7f0e; stroke: #ff7f0e"/>
     <use xlink:href="#m57fa911577" x="554.246534" y="487.535136" style="fill: #ff7f0e; stroke: #ff7f0e"/>
     <use xlink:href="#m57fa911577" x="573.645852" y="459.695606" style="fill: #ff7f0e; stroke: #ff7f0e"/>
    </g>
   </g>
   <g id="line2d_18">
    <path d="M 88.662898 334.347938 
L 108.062216 306.154555 
L 146.860852 294.862701 
L 166.26017 272.259674 
L 185.659489 311.88982 
L 205.058807 296.47957 
L 224.458125 296.372143 
L 243.857443 306.228204 
L 263.256761 317.292857 
L 282.65608 287.146638 
L 321.454716 311.040313 
L 340.854034 279.292061 
L 360.253352 318.367736 
L 379.65267 270.730411 
L 399.051989 284.388417 
L 437.850625 284.402575 
L 457.249943 284.395351 
L 476.649261 308.502539 
L 496.04858 289.553372 
L 515.447898 298.266752 
L 534.847216 322.216412 
L 554.246534 270.914088 
L 573.645852 321.751821 
" clip-path="url(#p102dd51d9b)" style="fill: none; stroke: #2ca02c; stroke-width: 2; stroke-linecap: square"/>
    <defs>
     <path id="mc6264556cb" d="M 0 3 
C 0.795609 3 1.55874 2.683901 2.12132 2.12132 
C 2.683901 1.55874 3 0.795609 3 0 
C 3 -0.795609 2.683901 -1.55874 2.12132 -2.12132 
C 1.55874 -2.683901 0.795609 -3 0 -3 
C -0.795609 -3 -1.55874 -2.683901 -2.12132 -2.12132 
C -2.683901 -1.55874 -3 -0.795609 -3 0 
C -3 0.795609 -2.683901 1.55874 -2.12132 2.12132 
C -1.55874 2.683901 -0.795609 3 0 3 
z
" style="stroke: #2ca02c"/>
    </defs>
    <g clip-path="url(#p102dd51d9b)">
     <use xlink:href="#mc6264556cb" x="88.662898" y="334.347938" style="fill: #2ca02c; stroke: #2ca02c"/>
     <use xlink:href="#mc6264556cb" x="108.062216" y="306.154555" style="fill: #2ca02c; stroke: #2ca02c"/>
     <use xlink:href="#mc6264556cb" x="146.860852" y="294.862701" style="fill: #2ca02c; stroke: #2ca02c"/>
     <use xlink:href="#mc6264556cb" x="166.26017" y="272.259674" style="fill: #2ca02c; stroke: #2ca02c"/>
     <use xlink:href="#mc6264556cb" x="185.659489" y="311.88982" style="fill: #2ca02c; stroke: #2ca02c"/>
     <use xlink:href="#mc6264556cb" x="205.058807" y="296.47957" style="fill: #2ca02c; stroke: #2ca02c"/>
     <use xlink:href="#mc6264556cb" x="224.458125" y="296.372143" style="fill: #2ca02c; stroke: #2ca02c"/>
     <use xlink:href="#mc6264556cb" x="243.857443" y="306.228204" style="fill: #2ca02c; stroke: #2ca02c"/>
     <use xlink:href="#mc6264556cb" x="263.256761" y="317.292857" style="fill: #2ca02c; stroke: #2ca02c"/>
     <use xlink:href="#mc6264556cb" x="282.65608" y="287.146638" style="fill: #2ca02c; stroke: #2ca02c"/>
     <use xlink:href="#mc6264556cb" x="321.454716" y="311.040313" style="fill: #2ca02c; stroke: #2ca02c"/>
     <use xlink:href="#mc6264556cb" x="340.854034" y="279.292061" style="fill: #2ca02c; stroke: #2ca02c"/>
     <use xlink:href="#mc6264556cb" x="360.253352" y="318.367736" style="fill: #2ca02c; stroke: #2ca02c"/>
     <use xlink:href="#mc6264556cb" x="379.65267" y="270.730411" style="fill: #2ca02c; stroke: #2ca02c"/>
     <use xlink:href="#mc6264556cb" x="399.051989" y="284.388417" style="fill: #2ca02c; stroke: #2ca02c"/>
     <use xlink:href="#mc6264556cb" x="437.850625" y="284.402575" style="fill: #2ca02c; stroke: #2ca02c"/>
     <use xlink:href="#mc6264556cb" x="457.249943" y="284.395351" style="fill: #2ca02c; stroke: #2ca02c"/>
     <use xlink:href="#mc6264556cb" x="476.649261" y="308.502539" style="fill: #2ca02c; stroke: #2ca02c"/>
     <use xlink:href="#mc6264556cb" x="496.04858" y="289.553372" style="fill: #2ca02c; stroke: #2ca02c"/>
     <use xlink:href="#mc6264556cb" x="515.447898" y="298.266752" style="fill: #2ca02c; stroke: #2ca02c"/>
     <use xlink:href="#mc6264556cb" x="534.847216" y="322.216412" style="fill: #2ca02c; stroke: #2ca02c"/>
     <use xlink:href="#mc6264556cb" x="554.246534" y="270.914088" style="fill: #2ca02c; stroke: #2ca02c"/>
     <use xlink:href="#mc6264556cb" x="573.645852" y="321.751821" style="fill: #2ca02c; stroke: #2ca02c"/>
    </g>
   </g>
   <g id="line2d_19">
    <path d="M 88.662898 396.04583 
L 108.062216 366.658358 
L 146.860852 400.143265 
L 166.26017 387.627214 
L 185.659489 382.388902 
L 205.058807 362.42402 
L 224.458125 365.625111 
L 243.857443 365.952531 
L 263.256761 385.315308 
L 282.65608 353.027331 
L 321.454716 385.401672 
L 340.854034 374.340335 
L 360.253352 379.769612 
L 379.65267 380.799315 
L 399.051989 361.420273 
L 437.850625 379.757128 
L 457.249943 394.877349 
L 476.649261 356.475535 
L 496.04858 377.305865 
L 515.447898 360.006441 
L 534.847216 388.519893 
L 554.246534 383.059138 
L 573.645852 389.6907 
" clip-path="url(#p102dd51d9b)" style="fill: none; stroke: #d62728; stroke-width: 2; stroke-linecap: square"/>
    <defs>
     <path id="m030916debf" d="M 0 3 
C 0.795609 3 1.55874 2.683901 2.12132 2.12132 
C 2.683901 1.55874 3 0.795609 3 0 
C 3 -0.795609 2.683901 -1.55874 2.12132 -2.12132 
C 1.55874 -2.683901 0.795609 -3 0 -3 
C -0.795609 -3 -1.55874 -2.683901 -2.12132 -2.12132 
C -2.683901 -1.55874 -3 -0.795609 -3 0 
C -3 0.795609 -2.683901 1.55874 -2.12132 2.12132 
C -1.55874 2.683901 -0.795609 3 0 3 
z
" style="stroke: #d62728"/>
    </defs>
    <g clip-path="url(#p102dd51d9b)">
     <use xlink:href="#m030916debf" x="88.662898" y="396.04583" style="fill: #d62728; stroke: #d62728"/>
     <use xlink:href="#m030916debf" x="108.062216" y="366.658358" style="fill: #d62728; stroke: #d62728"/>
     <use xlink:href="#m030916debf" x="146.860852" y="400.143265" style="fill: #d62728; stroke: #d62728"/>
     <use xlink:href="#m030916debf" x="166.26017" y="387.627214" style="fill: #d62728; stroke: #d62728"/>
     <use xlink:href="#m030916debf" x="185.659489" y="382.388902" style="fill: #d62728; stroke: #d62728"/>
     <use xlink:href="#m030916debf" x="205.058807" y="362.42402" style="fill: #d62728; stroke: #d62728"/>
     <use xlink:href="#m030916debf" x="224.458125" y="365.625111" style="fill: #d62728; stroke: #d62728"/>
     <use xlink:href="#m030916debf" x="243.857443" y="365.952531" style="fill: #d62728; stroke: #d62728"/>
     <use xlink:href="#m030916debf" x="263.256761" y="385.315308" style="fill: #d62728; stroke: #d62728"/>
     <use xlink:href="#m030916debf" x="282.65608" y="353.027331" style="fill: #d62728; stroke: #d62728"/>
     <use xlink:href="#m030916debf" x="321.454716" y="385.401672" style="fill: #d62728; stroke: #d62728"/>
     <use xlink:href="#m030916debf" x="340.854034" y="374.340335" style="fill: #d62728; stroke: #d62728"/>
     <use xlink:href="#m030916debf" x="360.253352" y="379.769612" style="fill: #d62728; stroke: #d62728"/>
     <use xlink:href="#m030916debf" x="379.65267" y="380.799315" style="fill: #d62728; stroke: #d62728"/>
     <use xlink:href="#m030916debf" x="399.051989" y="361.420273" style="fill: #d62728; stroke: #d62728"/>
     <use xlink:href="#m030916debf" x="437.850625" y="379.757128" style="fill: #d62728; stroke: #d62728"/>
     <use xlink:href="#m030916debf" x="457.249943" y="394.877349" style="fill: #d62728; stroke: #d62728"/>
     <use xlink:href="#m030916debf" x="476.649261" y="356.475535" style="fill: #d62728; stroke: #d62728"/>
     <use xlink:href="#m030916debf" x="496.04858" y="377.305865" style="fill: #d62728; stroke: #d62728"/>
     <use xlink:href="#m030916debf" x="515.447898" y="360.006441" style="fill: #d62728; stroke: #d62728"/>
     <use xlink:href="#m030916debf" x="534.847216" y="388.519893" style="fill: #d62728; stroke: #d62728"/>
     <use xlink:href="#m030916debf" x="554.246534" y="383.059138" style="fill: #d62728; stroke: #d62728"/>
     <use xlink:href="#m030916debf" x="573.645852" y="389.6907" style="fill: #d62728; stroke: #d62728"/>
    </g>
   </g>
   <g id="line2d_20">
    <path d="M 88.662898 429.00595 
L 108.062216 202.366497 
L 146.860852 411.123658 
L 166.26017 46.813736 
L 185.659489 405.772894 
L 205.058807 418.437656 
L 224.458125 395.31586 
L 243.857443 420.691997 
L 263.256761 385.516065 
L 282.65608 396.729886 
L 321.454716 412.200785 
L 340.854034 211.560501 
L 360.253352 394.026419 
L 399.051989 403.977927 
L 457.249943 213.113264 
L 476.649261 401.52301 
L 496.04858 390.959385 
L 515.447898 401.786759 
L 534.847216 402.702802 
L 554.246534 405.320134 
L 573.645852 213.209648 
" clip-path="url(#p102dd51d9b)" style="fill: none; stroke: #9467bd; stroke-width: 2; stroke-linecap: square"/>
    <defs>
     <path id="m46ecb2a73c" d="M 0 3 
C 0.795609 3 1.55874 2.683901 2.12132 2.12132 
C 2.683901 1.55874 3 0.795609 3 0 
C 3 -0.795609 2.683901 -1.55874 2.12132 -2.12132 
C 1.55874 -2.683901 0.795609 -3 0 -3 
C -0.795609 -3 -1.55874 -2.683901 -2.12132 -2.12132 
C -2.683901 -1.55874 -3 -0.795609 -3 0 
C -3 0.795609 -2.683901 1.55874 -2.12132 2.12132 
C -1.55874 2.683901 -0.795609 3 0 3 
z
" style="stroke: #9467bd"/>
    </defs>
    <g clip-path="url(#p102dd51d9b)">
     <use xlink:href="#m46ecb2a73c" x="88.662898" y="429.00595" style="fill: #9467bd; stroke: #9467bd"/>
     <use xlink:href="#m46ecb2a73c" x="108.062216" y="202.366497" style="fill: #9467bd; stroke: #9467bd"/>
     <use xlink:href="#m46ecb2a73c" x="146.860852" y="411.123658" style="fill: #9467bd; stroke: #9467bd"/>
     <use xlink:href="#m46ecb2a73c" x="166.26017" y="46.813736" style="fill: #9467bd; stroke: #9467bd"/>
     <use xlink:href="#m46ecb2a73c" x="185.659489" y="405.772894" style="fill: #9467bd; stroke: #9467bd"/>
     <use xlink:href="#m46ecb2a73c" x="205.058807" y="418.437656" style="fill: #9467bd; stroke: #9467bd"/>
     <use xlink:href="#m46ecb2a73c" x="224.458125" y="395.31586" style="fill: #9467bd; stroke: #9467bd"/>
     <use xlink:href="#m46ecb2a73c" x="243.857443" y="420.691997" style="fill: #9467bd; stroke: #9467bd"/>
     <use xlink:href="#m46ecb2a73c" x="263.256761" y="385.516065" style="fill: #9467bd; stroke: #9467bd"/>
     <use xlink:href="#m46ecb2a73c" x="282.65608" y="396.729886" style="fill: #9467bd; stroke: #9467bd"/>
     <use xlink:href="#m46ecb2a73c" x="321.454716" y="412.200785" style="fill: #9467bd; stroke: #9467bd"/>
     <use xlink:href="#m46ecb2a73c" x="340.854034" y="211.560501" style="fill: #9467bd; stroke: #9467bd"/>
     <use xlink:href="#m46ecb2a73c" x="360.253352" y="394.026419" style="fill: #9467bd; stroke: #9467bd"/>
     <use xlink:href="#m46ecb2a73c" x="399.051989" y="403.977927" style="fill: #9467bd; stroke: #9467bd"/>
     <use xlink:href="#m46ecb2a73c" x="457.249943" y="213.113264" style="fill: #9467bd; stroke: #9467bd"/>
     <use xlink:href="#m46ecb2a73c" x="476.649261" y="401.52301" style="fill: #9467bd; stroke: #9467bd"/>
     <use xlink:href="#m46ecb2a73c" x="496.04858" y="390.959385" style="fill: #9467bd; stroke: #9467bd"/>
     <use xlink:href="#m46ecb2a73c" x="515.447898" y="401.786759" style="fill: #9467bd; stroke: #9467bd"/>
     <use xlink:href="#m46ecb2a73c" x="534.847216" y="402.702802" style="fill: #9467bd; stroke: #9467bd"/>
     <use xlink:href="#m46ecb2a73c" x="554.246534" y="405.320134" style="fill: #9467bd; stroke: #9467bd"/>
     <use xlink:href="#m46ecb2a73c" x="573.645852" y="213.209648" style="fill: #9467bd; stroke: #9467bd"/>
    </g>
   </g>
   <g id="line2d_21">
    <path d="M 88.662898 415.289072 
L 108.062216 425.800249 
L 146.860852 421.760241 
L 166.26017 144.806181 
L 185.659489 428.442889 
L 205.058807 431.49475 
L 224.458125 414.342353 
L 243.857443 465.900093 
L 263.256761 421.758682 
L 282.65608 419.22744 
L 321.454716 465.541324 
L 340.854034 407.577 
L 360.253352 451.356219 
L 399.051989 429.541943 
L 457.249943 464.88952 
L 476.649261 435.330785 
L 496.04858 419.982586 
L 515.447898 428.502308 
L 534.847216 424.435307 
L 554.246534 427.102986 
L 573.645852 412.297158 
" clip-path="url(#p102dd51d9b)" style="fill: none; stroke: #8c564b; stroke-width: 2; stroke-linecap: square"/>
    <defs>
     <path id="m9d4ed50545" d="M 0 3 
C 0.795609 3 1.55874 2.683901 2.12132 2.12132 
C 2.683901 1.55874 3 0.795609 3 0 
C 3 -0.795609 2.683901 -1.55874 2.12132 -2.12132 
C 1.55874 -2.683901 0.795609 -3 0 -3 
C -0.795609 -3 -1.55874 -2.683901 -2.12132 -2.12132 
C -2.683901 -1.55874 -3 -0.795609 -3 0 
C -3 0.795609 -2.683901 1.55874 -2.12132 2.12132 
C -1.55874 2.683901 -0.795609 3 0 3 
z
" style="stroke: #8c564b"/>
    </defs>
    <g clip-path="url(#p102dd51d9b)">
     <use xlink:href="#m9d4ed50545" x="88.662898" y="415.289072" style="fill: #8c564b; stroke: #8c564b"/>
     <use xlink:href="#m9d4ed50545" x="108.062216" y="425.800249" style="fill: #8c564b; stroke: #8c564b"/>
     <use xlink:href="#m9d4ed50545" x="146.860852" y="421.760241" style="fill: #8c564b; stroke: #8c564b"/>
     <use xlink:href="#m9d4ed50545" x="166.26017" y="144.806181" style="fill: #8c564b; stroke: #8c564b"/>
     <use xlink:href="#m9d4ed50545" x="185.659489" y="428.442889" style="fill: #8c564b; stroke: #8c564b"/>
     <use xlink:href="#m9d4ed50545" x="205.058807" y="431.49475" style="fill: #8c564b; stroke: #8c564b"/>
     <use xlink:href="#m9d4ed50545" x="224.458125" y="414.342353" style="fill: #8c564b; stroke: #8c564b"/>
     <use xlink:href="#m9d4ed50545" x="243.857443" y="465.900093" style="fill: #8c564b; stroke: #8c564b"/>
     <use xlink:href="#m9d4ed50545" x="263.256761" y="421.758682" style="fill: #8c564b; stroke: #8c564b"/>
     <use xlink:href="#m9d4ed50545" x="282.65608" y="419.22744" style="fill: #8c564b; stroke: #8c564b"/>
     <use xlink:href="#m9d4ed50545" x="321.454716" y="465.541324" style="fill: #8c564b; stroke: #8c564b"/>
     <use xlink:href="#m9d4ed50545" x="340.854034" y="407.577" style="fill: #8c564b; stroke: #8c564b"/>
     <use xlink:href="#m9d4ed50545" x="360.253352" y="451.356219" style="fill: #8c564b; stroke: #8c564b"/>
     <use xlink:href="#m9d4ed50545" x="399.051989" y="429.541943" style="fill: #8c564b; stroke: #8c564b"/>
     <use xlink:href="#m9d4ed50545" x="457.249943" y="464.88952" style="fill: #8c564b; stroke: #8c564b"/>
     <use xlink:href="#m9d4ed50545" x="476.649261" y="435.330785" style="fill: #8c564b; stroke: #8c564b"/>
     <use xlink:href="#m9d4ed50545" x="496.04858" y="419.982586" style="fill: #8c564b; stroke: #8c564b"/>
     <use xlink:href="#m9d4ed50545" x="515.447898" y="428.502308" style="fill: #8c564b; stroke: #8c564b"/>
     <use xlink:href="#m9d4ed50545" x="534.847216" y="424.435307" style="fill: #8c564b; stroke: #8c564b"/>
     <use xlink:href="#m9d4ed50545" x="554.246534" y="427.102986" style="fill: #8c564b; stroke: #8c564b"/>
     <use xlink:href="#m9d4ed50545" x="573.645852" y="412.297158" style="fill: #8c564b; stroke: #8c564b"/>
    </g>
   </g>
   <g id="line2d_22">
    <path d="M 88.662898 407.058308 
L 108.062216 368.403564 
L 146.860852 390.731734 
L 166.26017 359.700842 
L 185.659489 367.343809 
L 205.058807 413.133887 
L 224.458125 394.821504 
L 243.857443 367.480402 
L 263.256761 397.250514 
L 282.65608 388.379757 
L 321.454716 371.565815 
L 340.854034 419.15727 
L 360.253352 371.92968 
L 399.051989 372.123671 
L 457.249943 371.374635 
L 476.649261 384.923691 
L 496.04858 370.529765 
L 515.447898 373.076496 
L 534.847216 412.169891 
L 554.246534 373.045364 
L 573.645852 411.568603 
" clip-path="url(#p102dd51d9b)" style="fill: none; stroke: #e377c2; stroke-width: 2; stroke-linecap: square"/>
    <defs>
     <path id="m93b9ec056f" d="M 0 3 
C 0.795609 3 1.55874 2.683901 2.12132 2.12132 
C 2.683901 1.55874 3 0.795609 3 0 
C 3 -0.795609 2.683901 -1.55874 2.12132 -2.12132 
C 1.55874 -2.683901 0.795609 -3 0 -3 
C -0.795609 -3 -1.55874 -2.683901 -2.12132 -2.12132 
C -2.683901 -1.55874 -3 -0.795609 -3 0 
C -3 0.795609 -2.683901 1.55874 -2.12132 2.12132 
C -1.55874 2.683901 -0.795609 3 0 3 
z
" style="stroke: #e377c2"/>
    </defs>
    <g clip-path="url(#p102dd51d9b)">
     <use xlink:href="#m93b9ec056f" x="88.662898" y="407.058308" style="fill: #e377c2; stroke: #e377c2"/>
     <use xlink:href="#m93b9ec056f" x="108.062216" y="368.403564" style="fill: #e377c2; stroke: #e377c2"/>
     <use xlink:href="#m93b9ec056f" x="146.860852" y="390.731734" style="fill: #e377c2; stroke: #e377c2"/>
     <use xlink:href="#m93b9ec056f" x="166.26017" y="359.700842" style="fill: #e377c2; stroke: #e377c2"/>
     <use xlink:href="#m93b9ec056f" x="185.659489" y="367.343809" style="fill: #e377c2; stroke: #e377c2"/>
     <use xlink:href="#m93b9ec056f" x="205.058807" y="413.133887" style="fill: #e377c2; stroke: #e377c2"/>
     <use xlink:href="#m93b9ec056f" x="224.458125" y="394.821504" style="fill: #e377c2; stroke: #e377c2"/>
     <use xlink:href="#m93b9ec056f" x="243.857443" y="367.480402" style="fill: #e377c2; stroke: #e377c2"/>
     <use xlink:href="#m93b9ec056f" x="263.256761" y="397.250514" style="fill: #e377c2; stroke: #e377c2"/>
     <use xlink:href="#m93b9ec056f" x="282.65608" y="388.379757" style="fill: #e377c2; stroke: #e377c2"/>
     <use xlink:href="#m93b9ec056f" x="321.454716" y="371.565815" style="fill: #e377c2; stroke: #e377c2"/>
     <use xlink:href="#m93b9ec056f" x="340.854034" y="419.15727" style="fill: #e377c2; stroke: #e377c2"/>
     <use xlink:href="#m93b9ec056f" x="360.253352" y="371.92968" style="fill: #e377c2; stroke: #e377c2"/>
     <use xlink:href="#m93b9ec056f" x="399.051989" y="372.123671" style="fill: #e377c2; stroke: #e377c2"/>
     <use xlink:href="#m93b9ec056f" x="457.249943" y="371.374635" style="fill: #e377c2; stroke: #e377c2"/>
     <use xlink:href="#m93b9ec056f" x="476.649261" y="384.923691" style="fill: #e377c2; stroke: #e377c2"/>
     <use xlink:href="#m93b9ec056f" x="496.04858" y="370.529765" style="fill: #e377c2; stroke: #e377c2"/>
     <use xlink:href="#m93b9ec056f" x="515.447898" y="373.076496" style="fill: #e377c2; stroke: #e377c2"/>
     <use xlink:href="#m93b9ec056f" x="534.847216" y="412.169891" style="fill: #e377c2; stroke: #e377c2"/>
     <use xlink:href="#m93b9ec056f" x="554.246534" y="373.045364" style="fill: #e377c2; stroke: #e377c2"/>
     <use xlink:href="#m93b9ec056f" x="573.645852" y="411.568603" style="fill: #e377c2; stroke: #e377c2"/>
    </g>
   </g>
   <g id="line2d_23">
    <path d="M 88.662898 417.819334 
L 108.062216 377.198261 
L 146.860852 398.387409 
L 166.26017 374.49193 
L 185.659489 375.163117 
L 205.058807 421.937968 
L 224.458125 411.33194 
L 243.857443 385.042144 
L 263.256761 407.021959 
L 282.65608 397.915514 
L 321.454716 386.145171 
L 340.854034 424.933947 
L 360.253352 396.120345 
L 399.051989 394.328937 
L 457.249943 391.227616 
L 476.649261 402.520848 
L 496.04858 377.200002 
L 515.447898 374.770438 
L 534.847216 420.216112 
L 554.246534 382.102849 
L 573.645852 413.090646 
" clip-path="url(#p102dd51d9b)" style="fill: none; stroke: #7f7f7f; stroke-width: 2; stroke-linecap: square"/>
    <defs>
     <path id="m309fb0bc31" d="M 0 3 
C 0.795609 3 1.55874 2.683901 2.12132 2.12132 
C 2.683901 1.55874 3 0.795609 3 0 
C 3 -0.795609 2.683901 -1.55874 2.12132 -2.12132 
C 1.55874 -2.683901 0.795609 -3 0 -3 
C -0.795609 -3 -1.55874 -2.683901 -2.12132 -2.12132 
C -2.683901 -1.55874 -3 -0.795609 -3 0 
C -3 0.795609 -2.683901 1.55874 -2.12132 2.12132 
C -1.55874 2.683901 -0.795609 3 0 3 
z
" style="stroke: #7f7f7f"/>
    </defs>
    <g clip-path="url(#p102dd51d9b)">
     <use xlink:href="#m309fb0bc31" x="88.662898" y="417.819334" style="fill: #7f7f7f; stroke: #7f7f7f"/>
     <use xlink:href="#m309fb0bc31" x="108.062216" y="377.198261" style="fill: #7f7f7f; stroke: #7f7f7f"/>
     <use xlink:href="#m309fb0bc31" x="146.860852" y="398.387409" style="fill: #7f7f7f; stroke: #7f7f7f"/>
     <use xlink:href="#m309fb0bc31" x="166.26017" y="374.49193" style="fill: #7f7f7f; stroke: #7f7f7f"/>
     <use xlink:href="#m309fb0bc31" x="185.659489" y="375.163117" style="fill: #7f7f7f; stroke: #7f7f7f"/>
     <use xlink:href="#m309fb0bc31" x="205.058807" y="421.937968" style="fill: #7f7f7f; stroke: #7f7f7f"/>
     <use xlink:href="#m309fb0bc31" x="224.458125" y="411.33194" style="fill: #7f7f7f; stroke: #7f7f7f"/>
     <use xlink:href="#m309fb0bc31" x="243.857443" y="385.042144" style="fill: #7f7f7f; stroke: #7f7f7f"/>
     <use xlink:href="#m309fb0bc31" x="263.256761" y="407.021959" style="fill: #7f7f7f; stroke: #7f7f7f"/>
     <use xlink:href="#m309fb0bc31" x="282.65608" y="397.915514" style="fill: #7f7f7f; stroke: #7f7f7f"/>
     <use xlink:href="#m309fb0bc31" x="321.454716" y="386.145171" style="fill: #7f7f7f; stroke: #7f7f7f"/>
     <use xlink:href="#m309fb0bc31" x="340.854034" y="424.933947" style="fill: #7f7f7f; stroke: #7f7f7f"/>
     <use xlink:href="#m309fb0bc31" x="360.253352" y="396.120345" style="fill: #7f7f7f; stroke: #7f7f7f"/>
     <use xlink:href="#m309fb0bc31" x="399.051989" y="394.328937" style="fill: #7f7f7f; stroke: #7f7f7f"/>
     <use xlink:href="#m309fb0bc31" x="457.249943" y="391.227616" style="fill: #7f7f7f; stroke: #7f7f7f"/>
     <use xlink:href="#m309fb0bc31" x="476.649261" y="402.520848" style="fill: #7f7f7f; stroke: #7f7f7f"/>
     <use xlink:href="#m309fb0bc31" x="496.04858" y="377.200002" style="fill: #7f7f7f; stroke: #7f7f7f"/>
     <use xlink:href="#m309fb0bc31" x="515.447898" y="374.770438" style="fill: #7f7f7f; stroke: #7f7f7f"/>
     <use xlink:href="#m309fb0bc31" x="534.847216" y="420.216112" style="fill: #7f7f7f; stroke: #7f7f7f"/>
     <use xlink:href="#m309fb0bc31" x="554.246534" y="382.102849" style="fill: #7f7f7f; stroke: #7f7f7f"/>
     <use xlink:href="#m309fb0bc31" x="573.645852" y="413.090646" style="fill: #7f7f7f; stroke: #7f7f7f"/>
    </g>
   </g>
   <g id="patch_3">
    <path d="M 64.41375 529.308125 
L 64.41375 23.837812 
" style="fill: none; stroke: #000000; stroke-width: 0.8; stroke-linejoin: miter; stroke-linecap: square"/>
   </g>
   <g id="patch_4">
    <path d="M 597.895 529.308125 
L 597.895 23.837812 
" style="fill: none; stroke: #000000; stroke-width: 0.8; stroke-linejoin: miter; stroke-linecap: square"/>
   </g>
   <g id="patch_5">
    <path d="M 64.41375 529.308125 
L 597.895 529.308125 
" style="fill: none; stroke: #000000; stroke-width: 0.8; stroke-linejoin: miter; stroke-linecap: square"/>
   </g>
   <g id="patch_6">
    <path d="M 64.41375 23.837812 
L 597.895 23.837812 
" style="fill: none; stroke: #000000; stroke-width: 0.8; stroke-linejoin: miter; stroke-linecap: square"/>
   </g>
   <g id="text_12">
    <text style="font: 700 14px 'DejaVu Sans', 'Bitstream Vera Sans', 'Computer Modern Sans Serif', 'Lucida Grande', 'Verdana', 'Geneva', 'Lucid', 'Arial', 'Helvetica', 'Avant Garde', sans-serif; text-anchor: middle" x="331.154375" y="17.837813" transform="rotate(-0 331.154375 17.837813)">Coroutine Submission - Performance Trend</text>
   </g>
   <g id="legend_1">
    <g id="patch_7">
     <path d="M 631.569062 151.487813 
L 840.794062 151.487813 
Q 842.794062 151.487813 842.794062 149.487813 
L 842.794062 30.837813 
Q 842.794062 28.837813 840.794062 28.837813 
L 631.569062 28.837813 
Q 629.569062 28.837813 629.569062 30.837813 
L 629.569062 149.487813 
Q 629.569062 151.487813 631.569062 151.487813 
z
" style="fill: #ffffff; opacity: 0.8; stroke: #cccccc; stroke-linejoin: miter"/>
    </g>
    <g id="line2d_24">
     <path d="M 633.569062 36.93625 
L 643.569062 36.93625 
L 653.569062 36.93625 
" style="fill: none; stroke: #1f77b4; stroke-width: 2; stroke-linecap: square"/>
     <g>
      <use xlink:href="#mc269d68eb8" x="643.569062" y="36.93625" style="fill: #1f77b4; stroke: #1f77b4"/>
     </g>
    </g>
    <g id="text_13">
     <text style="font: 10px 'DejaVu Sans', 'Bitstream Vera Sans', 'Computer Modern Sans Serif', 'Lucida Grande', 'Verdana', 'Geneva', 'Lucid', 'Arial', 'Helvetica', 'Avant Garde', sans-serif; text-anchor: start" x="661.569062" y="40.43625" transform="rotate(-0 661.569062 40.43625)">gcc-14.2 - CoroutineSubmission_V1</text>
    </g>
    <g id="line2d_25">
     <path d="M 633.569062 51.8925 
L 643.569062 51.8925 
L 653.569062 51.8925 
" style="fill: none; stroke: #ff7f0e; stroke-width: 2; stroke-linecap: square"/>
     <g>
      <use xlink:href="#m57fa911577" x="643.569062" y="51.8925" style="fill: #ff7f0e; stroke: #ff7f0e"/>
     </g>
    </g>
    <g id="text_14">
     <text style="font: 10px 'DejaVu Sans', 'Bitstream Vera Sans', 'Computer Modern Sans Serif', 'Lucida Grande', 'Verdana', 'Geneva', 'Lucid', 'Arial', 'Helvetica', 'Avant Garde', sans-serif; text-anchor: start" x="661.569062" y="55.3925" transform="rotate(-0 661.569062 55.3925)">gcc-14.2 - LambdaSubmission_V1</text>
    </g>
    <g id="line2d_26">
     <path d="M 633.569062 66.84875 
L 643.569062 66.84875 
L 653.569062 66.84875 
" style="fill: none; stroke: #2ca02c; stroke-width: 2; stroke-linecap: square"/>
     <g>
      <use xlink:href="#mc6264556cb" x="643.569062" y="66.84875" style="fill: #2ca02c; stroke: #2ca02c"/>
     </g>
    </g>
    <g id="text_15">
     <text style="font: 10px 'DejaVu Sans', 'Bitstream Vera Sans', 'Computer Modern Sans Serif', 'Lucida Grande', 'Verdana', 'Geneva', 'Lucid', 'Arial', 'Helvetica', 'Avant Garde', sans-serif; text-anchor: start" x="661.569062" y="70.34875" transform="rotate(-0 661.569062 70.34875)">gcc-14.2 - CoroutineSubmission_V2</text>
    </g>
    <g id="line2d_27">
     <path d="M 633.569062 81.805 
L 643.569062 81.805 
L 653.569062 81.805 
" style="fill: none; stroke: #d62728; stroke-width: 2; stroke-linecap: square"/>
     <g>
      <use xlink:href="#m030916debf" x="643.569062" y="81.805" style="fill: #d62728; stroke: #d62728"/>
     </g>
    </g>
    <g id="text_16">
     <text style="font: 10px 'DejaVu Sans', 'Bitstream Vera Sans', 'Computer Modern Sans Serif', 'Lucida Grande', 'Verdana', 'Geneva', 'Lucid', 'Arial', 'Helvetica', 'Avant Garde', sans-serif; text-anchor: start" x="661.569062" y="85.305" transform="rotate(-0 661.569062 85.305)">gcc-14.2 - LambdaSubmission_V2</text>
    </g>
    <g id="line2d_28">
     <path d="M 633.569062 96.76125 
L 643.569062 96.76125 
L 653.569062 96.76125 
" style="fill: none; stroke: #9467bd; stroke-width: 2; stroke-linecap: square"/>
     <g>
      <use xlink:href="#m46ecb2a73c" x="643.569062" y="96.76125" style="fill: #9467bd; stroke: #9467bd"/>
     </g>
    </g>
    <g id="text_17">
     <text style="font: 10px 'DejaVu Sans', 'Bitstream Vera Sans', 'Computer Modern Sans Serif', 'Lucida Grande', 'Verdana', 'Geneva', 'Lucid', 'Arial', 'Helvetica', 'Avant Garde', sans-serif; text-anchor: start" x="661.569062" y="100.26125" transform="rotate(-0 661.569062 100.26125)">gcc-4.2 - CoroutineSubmission_V1</text>
    </g>
    <g id="line2d_29">
     <path d="M 633.569062 111.7175 
L 643.569062 111.7175 
L 653.569062 111.7175 
" style="fill: none; stroke: #8c564b; stroke-width: 2; stroke-linecap: square"/>
     <g>
      <use xlink:href="#m9d4ed50545" x="643.569062" y="111.7175" style="fill: #8c564b; stroke: #8c564b"/>
     </g>
    </g>
    <g id="text_18">
     <text style="font: 10px 'DejaVu Sans', 'Bitstream Vera Sans', 'Computer Modern Sans Serif', 'Lucida Grande', 'Verdana', 'Geneva', 'Lucid', 'Arial', 'Helvetica', 'Avant Garde', sans-serif; text-anchor: start" x="661.569062" y="115.2175" transform="rotate(-0 661.569062 115.2175)">gcc-4.2 - LambdaSubmission_V1</text>
    </g>
    <g id="line2d_30">
     <path d="M 633.569062 126.67375 
L 643.569062 126.67375 
L 653.569062 126.67375 
" style="fill: none; stroke: #e377c2; stroke-width: 2; stroke-linecap: square"/>
     <g>
      <use xlink:href="#m93b9ec056f" x="643.569062" y="126.67375" style="fill: #e377c2; stroke: #e377c2"/>
     </g>
    </g>
    <g id="text_19">
     <text style="font: 10px 'DejaVu Sans', 'Bitstream Vera Sans', 'Computer Modern Sans Serif', 'Lucida Grande', 'Verdana', 'Geneva', 'Lucid', 'Arial', 'Helvetica', 'Avant Garde', sans-serif; text-anchor: start" x="661.569062" y="130.17375" transform="rotate(-0 661.569062 130.17375)">gcc-4.2 - CoroutineSubmission_V2</text>
    </g>
    <g id="line2d_31">
     <path d="M 633.569062 141.63 
L 643.569062 141.63 
L 653.569062 141.63 
" style="fill: none; stroke: #7f7f7f; stroke-width: 2; stroke-linecap: square"/>
     <g>
      <use xlink:href="#m309fb0bc31" x="643.569062" y="141.63" style="fill: #7f7f7f; stroke: #7f7f7f"/>
     </g>
    </g>
    <g id="text_20">
     <text style="font: 10px 'DejaVu Sans', 'Bitstream Vera Sans', 'Computer Modern Sans Serif', 'Lucida Grande', 'Verdana', 'Geneva', 'Lucid', 'Arial', 'Helvetica', 'Avant Garde', sans-serif; text-anchor: start" x="661.569062" y="145.13" transform="rotate(-0 661.569062 145.13)">gcc-4.2 - LambdaSubmission_V2</text>
    </g>
   </g>
  </g>
 </g>
 <defs>
  <clipPath id="p102dd51d9b">
   <rect x="64.41375" y="23.837813" width="533.48125" height="505.470313"/>
  </clipPath>
 </defs>
</svg>
