<?xml version="1.0" encoding="utf-8" standalone="no"?>
<!DOCTYPE svg PUBLIC "-//W3C//DTD SVG 1.1//EN"
  "http://www.w3.org/Graphics/SVG/1.1/DTD/svg11.dtd">
<svg xmlns:xlink="http://www.w3.org/1999/xlink" width="856.684141pt" height="568.8pt" viewBox="0 0 856.684141 568.8" xmlns="http://www.w3.org/2000/svg" version="1.1">
 <metadata>
  <rdf:RDF xmlns:dc="http://purl.org/dc/elements/1.1/" xmlns:cc="http://creativecommons.org/ns#" xmlns:rdf="http://www.w3.org/1999/02/22-rdf-syntax-ns#">
   <cc:Work>
    <dc:type rdf:resource="http://purl.org/dc/dcmitype/StillImage"/>
    <dc:date>2025-08-30T11:10:47.302654</dc:date>
    <dc:format>image/svg+xml</dc:format>
    <dc:creator>
     <cc:Agent>
      <dc:title>Matplotlib v3.9.4, https://matplotlib.org/</dc:title>
     </cc:Agent>
    </dc:creator>
   </cc:Work>
  </rdf:RDF>
 </metadata>
 <defs>
  <style type="text/css">*{stroke-linejoin: round; stroke-linecap: butt}</style>
 </defs>
 <g id="figure_1">
  <g id="patch_1">
   <path d="M 0 568.8 
L 856.684141 568.8 
L 856.684141 0 
L 0 0 
z
" style="fill: #ffffff"/>
  </g>
  <g id="axes_1">
   <g id="patch_2">
    <path d="M 64.41375 529.308125 
L 731.696562 529.308125 
L 731.696562 23.837812 
L 64.41375 23.837812 
z
" style="fill: #ffffff"/>
   </g>
   <g id="matplotlib.axis_1">
    <g id="xtick_1">
     <g id="line2d_1">
      <path d="M 79.949159 529.308125 
L 79.949159 23.837812 
" clip-path="url(#pa0b8b23ab9)" style="fill: none; stroke: #b0b0b0; stroke-opacity: 0.3; stroke-width: 0.8; stroke-linecap: square"/>
     </g>
     <g id="line2d_2">
      <defs>
       <path id="ma85fa2314b" d="M 0 0 
L 0 3.5 
" style="stroke: #000000; stroke-width: 0.8"/>
      </defs>
      <g>
       <use xlink:href="#ma85fa2314b" x="79.949159" y="529.308125" style="stroke: #000000; stroke-width: 0.8"/>
      </g>
     </g>
     <g id="text_1">
      <text style="font: 10px 'DejaVu Sans', 'Bitstream Vera Sans', 'Computer Modern Sans Serif', 'Lucida Grande', 'Verdana', 'Geneva', 'Lucid', 'Arial', 'Helvetica', 'Avant Garde', sans-serif; text-anchor: middle" x="79.949159" y="543.906563" transform="rotate(-0 79.949159 543.906563)">70</text>
     </g>
    </g>
    <g id="xtick_2">
     <g id="line2d_3">
      <path d="M 227.905437 529.308125 
L 227.905437 23.837812 
" clip-path="url(#pa0b8b23ab9)" style="fill: none; stroke: #b0b0b0; stroke-opacity: 0.3; stroke-width: 0.8; stroke-linecap: square"/>
     </g>
     <g id="line2d_4">
      <g>
       <use xlink:href="#ma85fa2314b" x="227.905437" y="529.308125" style="stroke: #000000; stroke-width: 0.8"/>
      </g>
     </g>
     <g id="text_2">
      <text style="font: 10px 'DejaVu Sans', 'Bitstream Vera Sans', 'Computer Modern Sans Serif', 'Lucida Grande', 'Verdana', 'Geneva', 'Lucid', 'Arial', 'Helvetica', 'Avant Garde', sans-serif; text-anchor: middle" x="227.905437" y="543.906563" transform="rotate(-0 227.905437 543.906563)">80</text>
     </g>
    </g>
    <g id="xtick_3">
     <g id="line2d_5">
      <path d="M 375.861715 529.308125 
L 375.861715 23.837812 
" clip-path="url(#pa0b8b23ab9)" style="fill: none; stroke: #b0b0b0; stroke-opacity: 0.3; stroke-width: 0.8; stroke-linecap: square"/>
     </g>
     <g id="line2d_6">
      <g>
       <use xlink:href="#ma85fa2314b" x="375.861715" y="529.308125" style="stroke: #000000; stroke-width: 0.8"/>
      </g>
     </g>
     <g id="text_3">
      <text style="font: 10px 'DejaVu Sans', 'Bitstream Vera Sans', 'Computer Modern Sans Serif', 'Lucida Grande', 'Verdana', 'Geneva', 'Lucid', 'Arial', 'Helvetica', 'Avant Garde', sans-serif; text-anchor: middle" x="375.861715" y="543.906563" transform="rotate(-0 375.861715 543.906563)">90</text>
     </g>
    </g>
    <g id="xtick_4">
     <g id="line2d_7">
      <path d="M 523.817992 529.308125 
L 523.817992 23.837812 
" clip-path="url(#pa0b8b23ab9)" style="fill: none; stroke: #b0b0b0; stroke-opacity: 0.3; stroke-width: 0.8; stroke-linecap: square"/>
     </g>
     <g id="line2d_8">
      <g>
       <use xlink:href="#ma85fa2314b" x="523.817992" y="529.308125" style="stroke: #000000; stroke-width: 0.8"/>
      </g>
     </g>
     <g id="text_4">
      <text style="font: 10px 'DejaVu Sans', 'Bitstream Vera Sans', 'Computer Modern Sans Serif', 'Lucida Grande', 'Verdana', 'Geneva', 'Lucid', 'Arial', 'Helvetica', 'Avant Garde', sans-serif; text-anchor: middle" x="523.817992" y="543.906563" transform="rotate(-0 523.817992 543.906563)">100</text>
     </g>
    </g>
    <g id="xtick_5">
     <g id="line2d_9">
      <path d="M 671.77427 529.308125 
L 671.77427 23.837812 
" clip-path="url(#pa0b8b23ab9)" style="fill: none; stroke: #b0b0b0; stroke-opacity: 0.3; stroke-width: 0.8; stroke-linecap: square"/>
     </g>
     <g id="line2d_10">
      <g>
       <use xlink:href="#ma85fa2314b" x="671.77427" y="529.308125" style="stroke: #000000; stroke-width: 0.8"/>
      </g>
     </g>
     <g id="text_5">
      <text style="font: 10px 'DejaVu Sans', 'Bitstream Vera Sans', 'Computer Modern Sans Serif', 'Lucida Grande', 'Verdana', 'Geneva', 'Lucid', 'Arial', 'Helvetica', 'Avant Garde', sans-serif; text-anchor: middle" x="671.77427" y="543.906563" transform="rotate(-0 671.77427 543.906563)">110</text>
     </g>
    </g>
    <g id="text_6">
     <text style="font: 12px 'DejaVu Sans', 'Bitstream Vera Sans', 'Computer Modern Sans Serif', 'Lucida Grande', 'Verdana', 'Geneva', 'Lucid', 'Arial', 'Helvetica', 'Avant Garde', sans-serif; text-anchor: middle" x="398.055156" y="559.104375" transform="rotate(-0 398.055156 559.104375)">Build Number</text>
    </g>
   </g>
   <g id="matplotlib.axis_2">
    <g id="ytick_1">
     <g id="line2d_11">
      <defs>
       <path id="md045a4a618" d="M 0 0 
L -2 0 
" style="stroke: #000000; stroke-width: 0.6"/>
      </defs>
      <g>
       <use xlink:href="#md045a4a618" x="64.41375" y="445.491112" style="stroke: #000000; stroke-width: 0.6"/>
      </g>
     </g>
     <g id="text_7">
      <!-- $\mathdefault{6\times10^{0}}$ -->
      <g transform="translate(22.81375 449.290331)">
       <text>
        <tspan style="font: 10px 'DejaVu Sans'" x="0 8.310547 18.637695 25" y="-0.9765625">6×10</tspan>
        <tspan style="font: 7px 'DejaVu Sans'" x="31.458008" y="-4.8046875">0</tspan>
       </text>
      </g>
     </g>
    </g>
    <g id="ytick_2">
     <g id="line2d_12">
      <g>
       <use xlink:href="#md045a4a618" x="64.41375" y="305.945364" style="stroke: #000000; stroke-width: 0.6"/>
      </g>
     </g>
     <g id="text_8">
      <!-- $\mathdefault{7\times10^{0}}$ -->
      <g transform="translate(22.81375 309.744582)">
       <text>
        <tspan style="font: 10px 'DejaVu Sans'" x="0 8.310547 18.637695 25" y="-0.9765625">7×10</tspan>
        <tspan style="font: 7px 'DejaVu Sans'" x="31.458008" y="-4.8046875">0</tspan>
       </text>
      </g>
     </g>
    </g>
    <g id="ytick_3">
     <g id="line2d_13">
      <g>
       <use xlink:href="#md045a4a618" x="64.41375" y="185.065338" style="stroke: #000000; stroke-width: 0.6"/>
      </g>
     </g>
     <g id="text_9">
      <!-- $\mathdefault{8\times10^{0}}$ -->
      <g transform="translate(22.81375 188.864557)">
       <text>
        <tspan style="font: 10px 'DejaVu Sans'" x="0 8.310547 18.637695 25" y="-0.9765625">8×10</tspan>
        <tspan style="font: 7px 'DejaVu Sans'" x="31.458008" y="-4.8046875">0</tspan>
       </text>
      </g>
     </g>
    </g>
    <g id="ytick_4">
     <g id="line2d_14">
      <g>
       <use xlink:href="#md045a4a618" x="64.41375" y="78.441598" style="stroke: #000000; stroke-width: 0.6"/>
      </g>
     </g>
     <g id="text_10">
      <!-- $\mathdefault{9\times10^{0}}$ -->
      <g transform="translate(22.81375 82.240817)">
       <text>
        <tspan style="font: 10px 'DejaVu Sans'" x="0 8.310547 18.637695 25" y="-0.9765625">9×10</tspan>
        <tspan style="font: 7px 'DejaVu Sans'" x="31.458008" y="-4.8046875">0</tspan>
       </text>
      </g>
     </g>
    </g>
    <g id="text_11">
     <text style="font: 12px 'DejaVu Sans', 'Bitstream Vera Sans', 'Computer Modern Sans Serif', 'Lucida Grande', 'Verdana', 'Geneva', 'Lucid', 'Arial', 'Helvetica', 'Avant Garde', sans-serif; text-anchor: middle" x="16.318125" y="276.572969" transform="rotate(-90 16.318125 276.572969)">Median Elapsed Time (nanoseconds)</text>
    </g>
   </g>
   <g id="line2d_15">
    <path d="M 94.744787 398.454274 
L 109.540415 399.887774 
L 124.336042 385.653904 
L 139.13167 399.887774 
L 153.927298 414.349032 
L 168.722926 399.887774 
L 183.518554 399.887774 
L 198.314181 399.887774 
L 213.109809 399.887774 
L 227.905437 399.887774 
L 242.701065 385.653904 
L 257.496692 399.887774 
L 272.29232 399.887774 
L 301.883576 399.887774 
L 316.679204 399.887774 
L 346.270459 399.887774 
L 361.066087 399.887774 
L 375.861715 399.887774 
L 390.657342 399.887774 
L 405.45297 399.887774 
L 435.044226 399.887774 
L 449.839853 399.887774 
L 464.635481 398.454274 
L 479.431109 414.349032 
L 509.022365 399.887774 
L 523.817992 399.887774 
L 538.61362 385.653904 
L 553.409248 399.887774 
L 568.204876 399.887774 
L 583.000503 399.887774 
L 597.796131 385.653904 
L 612.591759 398.454274 
L 642.183014 384.24275 
L 656.978642 371.640381 
L 671.77427 371.640381 
L 701.365526 371.640381 
" clip-path="url(#pa0b8b23ab9)" style="fill: none; stroke: #1f77b4; stroke-width: 2; stroke-linecap: square"/>
    <defs>
     <path id="m846d572ef9" d="M 0 3 
C 0.795609 3 1.55874 2.683901 2.12132 2.12132 
C 2.683901 1.55874 3 0.795609 3 0 
C 3 -0.795609 2.683901 -1.55874 2.12132 -2.12132 
C 1.55874 -2.683901 0.795609 -3 0 -3 
C -0.795609 -3 -1.55874 -2.683901 -2.12132 -2.12132 
C -2.683901 -1.55874 -3 -0.795609 -3 0 
C -3 0.795609 -2.683901 1.55874 -2.12132 2.12132 
C -1.55874 2.683901 -0.795609 3 0 3 
z
" style="stroke: #1f77b4"/>
    </defs>
    <g clip-path="url(#pa0b8b23ab9)">
     <use xlink:href="#m846d572ef9" x="94.744787" y="398.454274" style="fill: #1f77b4; stroke: #1f77b4"/>
     <use xlink:href="#m846d572ef9" x="109.540415" y="399.887774" style="fill: #1f77b4; stroke: #1f77b4"/>
     <use xlink:href="#m846d572ef9" x="124.336042" y="385.653904" style="fill: #1f77b4; stroke: #1f77b4"/>
     <use xlink:href="#m846d572ef9" x="139.13167" y="399.887774" style="fill: #1f77b4; stroke: #1f77b4"/>
     <use xlink:href="#m846d572ef9" x="153.927298" y="414.349032" style="fill: #1f77b4; stroke: #1f77b4"/>
     <use xlink:href="#m846d572ef9" x="168.722926" y="399.887774" style="fill: #1f77b4; stroke: #1f77b4"/>
     <use xlink:href="#m846d572ef9" x="183.518554" y="399.887774" style="fill: #1f77b4; stroke: #1f77b4"/>
     <use xlink:href="#m846d572ef9" x="198.314181" y="399.887774" style="fill: #1f77b4; stroke: #1f77b4"/>
     <use xlink:href="#m846d572ef9" x="213.109809" y="399.887774" style="fill: #1f77b4; stroke: #1f77b4"/>
     <use xlink:href="#m846d572ef9" x="227.905437" y="399.887774" style="fill: #1f77b4; stroke: #1f77b4"/>
     <use xlink:href="#m846d572ef9" x="242.701065" y="385.653904" style="fill: #1f77b4; stroke: #1f77b4"/>
     <use xlink:href="#m846d572ef9" x="257.496692" y="399.887774" style="fill: #1f77b4; stroke: #1f77b4"/>
     <use xlink:href="#m846d572ef9" x="272.29232" y="399.887774" style="fill: #1f77b4; stroke: #1f77b4"/>
     <use xlink:href="#m846d572ef9" x="301.883576" y="399.887774" style="fill: #1f77b4; stroke: #1f77b4"/>
     <use xlink:href="#m846d572ef9" x="316.679204" y="399.887774" style="fill: #1f77b4; stroke: #1f77b4"/>
     <use xlink:href="#m846d572ef9" x="346.270459" y="399.887774" style="fill: #1f77b4; stroke: #1f77b4"/>
     <use xlink:href="#m846d572ef9" x="361.066087" y="399.887774" style="fill: #1f77b4; stroke: #1f77b4"/>
     <use xlink:href="#m846d572ef9" x="375.861715" y="399.887774" style="fill: #1f77b4; stroke: #1f77b4"/>
     <use xlink:href="#m846d572ef9" x="390.657342" y="399.887774" style="fill: #1f77b4; stroke: #1f77b4"/>
     <use xlink:href="#m846d572ef9" x="405.45297" y="399.887774" style="fill: #1f77b4; stroke: #1f77b4"/>
     <use xlink:href="#m846d572ef9" x="435.044226" y="399.887774" style="fill: #1f77b4; stroke: #1f77b4"/>
     <use xlink:href="#m846d572ef9" x="449.839853" y="399.887774" style="fill: #1f77b4; stroke: #1f77b4"/>
     <use xlink:href="#m846d572ef9" x="464.635481" y="398.454274" style="fill: #1f77b4; stroke: #1f77b4"/>
     <use xlink:href="#m846d572ef9" x="479.431109" y="414.349032" style="fill: #1f77b4; stroke: #1f77b4"/>
     <use xlink:href="#m846d572ef9" x="509.022365" y="399.887774" style="fill: #1f77b4; stroke: #1f77b4"/>
     <use xlink:href="#m846d572ef9" x="523.817992" y="399.887774" style="fill: #1f77b4; stroke: #1f77b4"/>
     <use xlink:href="#m846d572ef9" x="538.61362" y="385.653904" style="fill: #1f77b4; stroke: #1f77b4"/>
     <use xlink:href="#m846d572ef9" x="553.409248" y="399.887774" style="fill: #1f77b4; stroke: #1f77b4"/>
     <use xlink:href="#m846d572ef9" x="568.204876" y="399.887774" style="fill: #1f77b4; stroke: #1f77b4"/>
     <use xlink:href="#m846d572ef9" x="583.000503" y="399.887774" style="fill: #1f77b4; stroke: #1f77b4"/>
     <use xlink:href="#m846d572ef9" x="597.796131" y="385.653904" style="fill: #1f77b4; stroke: #1f77b4"/>
     <use xlink:href="#m846d572ef9" x="612.591759" y="398.454274" style="fill: #1f77b4; stroke: #1f77b4"/>
     <use xlink:href="#m846d572ef9" x="642.183014" y="384.24275" style="fill: #1f77b4; stroke: #1f77b4"/>
     <use xlink:href="#m846d572ef9" x="656.978642" y="371.640381" style="fill: #1f77b4; stroke: #1f77b4"/>
     <use xlink:href="#m846d572ef9" x="671.77427" y="371.640381" style="fill: #1f77b4; stroke: #1f77b4"/>
     <use xlink:href="#m846d572ef9" x="701.365526" y="371.640381" style="fill: #1f77b4; stroke: #1f77b4"/>
    </g>
   </g>
   <g id="line2d_16">
    <path d="M 94.744787 506.332202 
L 109.540415 443.983609 
L 124.336042 443.983609 
L 139.13167 443.983609 
L 153.927298 443.983609 
L 168.722926 429.045061 
L 183.518554 442.478612 
L 198.314181 442.478612 
L 213.109809 443.983609 
L 227.905437 443.983609 
L 242.701065 443.983609 
L 257.496692 229.119752 
L 272.29232 429.045061 
L 287.087948 443.983609 
L 301.883576 443.983609 
L 316.679204 429.045061 
L 346.270459 414.349032 
L 361.066087 442.478612 
L 375.861715 430.527871 
L 390.657342 443.983609 
L 405.45297 442.478612 
L 420.248598 443.983609 
L 435.044226 429.045061 
L 449.839853 443.983609 
L 464.635481 443.983609 
L 479.431109 46.813736 
L 509.022365 443.983609 
L 523.817992 443.983609 
L 538.61362 443.983609 
L 553.409248 442.478612 
L 568.204876 429.045061 
L 583.000503 443.983609 
L 597.796131 443.983609 
L 612.591759 429.045061 
L 642.183014 429.045061 
L 656.978642 430.527871 
L 671.77427 442.478612 
L 686.569898 443.983609 
L 701.365526 430.527871 
" clip-path="url(#pa0b8b23ab9)" style="fill: none; stroke: #ff7f0e; stroke-width: 2; stroke-linecap: square"/>
    <defs>
     <path id="m6896a2cee8" d="M 0 3 
C 0.795609 3 1.55874 2.683901 2.12132 2.12132 
C 2.683901 1.55874 3 0.795609 3 0 
C 3 -0.795609 2.683901 -1.55874 2.12132 -2.12132 
C 1.55874 -2.683901 0.795609 -3 0 -3 
C -0.795609 -3 -1.55874 -2.683901 -2.12132 -2.12132 
C -2.683901 -1.55874 -3 -0.795609 -3 0 
C -3 0.795609 -2.683901 1.55874 -2.12132 2.12132 
C -1.55874 2.683901 -0.795609 3 0 3 
z
" style="stroke: #ff7f0e"/>
    </defs>
    <g clip-path="url(#pa0b8b23ab9)">
     <use xlink:href="#m6896a2cee8" x="94.744787" y="506.332202" style="fill: #ff7f0e; stroke: #ff7f0e"/>
     <use xlink:href="#m6896a2cee8" x="109.540415" y="443.983609" style="fill: #ff7f0e; stroke: #ff7f0e"/>
     <use xlink:href="#m6896a2cee8" x="124.336042" y="443.983609" style="fill: #ff7f0e; stroke: #ff7f0e"/>
     <use xlink:href="#m6896a2cee8" x="139.13167" y="443.983609" style="fill: #ff7f0e; stroke: #ff7f0e"/>
     <use xlink:href="#m6896a2cee8" x="153.927298" y="443.983609" style="fill: #ff7f0e; stroke: #ff7f0e"/>
     <use xlink:href="#m6896a2cee8" x="168.722926" y="429.045061" style="fill: #ff7f0e; stroke: #ff7f0e"/>
     <use xlink:href="#m6896a2cee8" x="183.518554" y="442.478612" style="fill: #ff7f0e; stroke: #ff7f0e"/>
     <use xlink:href="#m6896a2cee8" x="198.314181" y="442.478612" style="fill: #ff7f0e; stroke: #ff7f0e"/>
     <use xlink:href="#m6896a2cee8" x="213.109809" y="443.983609" style="fill: #ff7f0e; stroke: #ff7f0e"/>
     <use xlink:href="#m6896a2cee8" x="227.905437" y="443.983609" style="fill: #ff7f0e; stroke: #ff7f0e"/>
     <use xlink:href="#m6896a2cee8" x="242.701065" y="443.983609" style="fill: #ff7f0e; stroke: #ff7f0e"/>
     <use xlink:href="#m6896a2cee8" x="257.496692" y="229.119752" style="fill: #ff7f0e; stroke: #ff7f0e"/>
     <use xlink:href="#m6896a2cee8" x="272.29232" y="429.045061" style="fill: #ff7f0e; stroke: #ff7f0e"/>
     <use xlink:href="#m6896a2cee8" x="287.087948" y="443.983609" style="fill: #ff7f0e; stroke: #ff7f0e"/>
     <use xlink:href="#m6896a2cee8" x="301.883576" y="443.983609" style="fill: #ff7f0e; stroke: #ff7f0e"/>
     <use xlink:href="#m6896a2cee8" x="316.679204" y="429.045061" style="fill: #ff7f0e; stroke: #ff7f0e"/>
     <use xlink:href="#m6896a2cee8" x="346.270459" y="414.349032" style="fill: #ff7f0e; stroke: #ff7f0e"/>
     <use xlink:href="#m6896a2cee8" x="361.066087" y="442.478612" style="fill: #ff7f0e; stroke: #ff7f0e"/>
     <use xlink:href="#m6896a2cee8" x="375.861715" y="430.527871" style="fill: #ff7f0e; stroke: #ff7f0e"/>
     <use xlink:href="#m6896a2cee8" x="390.657342" y="443.983609" style="fill: #ff7f0e; stroke: #ff7f0e"/>
     <use xlink:href="#m6896a2cee8" x="405.45297" y="442.478612" style="fill: #ff7f0e; stroke: #ff7f0e"/>
     <use xlink:href="#m6896a2cee8" x="420.248598" y="443.983609" style="fill: #ff7f0e; stroke: #ff7f0e"/>
     <use xlink:href="#m6896a2cee8" x="435.044226" y="429.045061" style="fill: #ff7f0e; stroke: #ff7f0e"/>
     <use xlink:href="#m6896a2cee8" x="449.839853" y="443.983609" style="fill: #ff7f0e; stroke: #ff7f0e"/>
     <use xlink:href="#m6896a2cee8" x="464.635481" y="443.983609" style="fill: #ff7f0e; stroke: #ff7f0e"/>
     <use xlink:href="#m6896a2cee8" x="479.431109" y="46.813736" style="fill: #ff7f0e; stroke: #ff7f0e"/>
     <use xlink:href="#m6896a2cee8" x="509.022365" y="443.983609" style="fill: #ff7f0e; stroke: #ff7f0e"/>
     <use xlink:href="#m6896a2cee8" x="523.817992" y="443.983609" style="fill: #ff7f0e; stroke: #ff7f0e"/>
     <use xlink:href="#m6896a2cee8" x="538.61362" y="443.983609" style="fill: #ff7f0e; stroke: #ff7f0e"/>
     <use xlink:href="#m6896a2cee8" x="553.409248" y="442.478612" style="fill: #ff7f0e; stroke: #ff7f0e"/>
     <use xlink:href="#m6896a2cee8" x="568.204876" y="429.045061" style="fill: #ff7f0e; stroke: #ff7f0e"/>
     <use xlink:href="#m6896a2cee8" x="583.000503" y="443.983609" style="fill: #ff7f0e; stroke: #ff7f0e"/>
     <use xlink:href="#m6896a2cee8" x="597.796131" y="443.983609" style="fill: #ff7f0e; stroke: #ff7f0e"/>
     <use xlink:href="#m6896a2cee8" x="612.591759" y="429.045061" style="fill: #ff7f0e; stroke: #ff7f0e"/>
     <use xlink:href="#m6896a2cee8" x="642.183014" y="429.045061" style="fill: #ff7f0e; stroke: #ff7f0e"/>
     <use xlink:href="#m6896a2cee8" x="656.978642" y="430.527871" style="fill: #ff7f0e; stroke: #ff7f0e"/>
     <use xlink:href="#m6896a2cee8" x="671.77427" y="442.478612" style="fill: #ff7f0e; stroke: #ff7f0e"/>
     <use xlink:href="#m6896a2cee8" x="686.569898" y="443.983609" style="fill: #ff7f0e; stroke: #ff7f0e"/>
     <use xlink:href="#m6896a2cee8" x="701.365526" y="430.527871" style="fill: #ff7f0e; stroke: #ff7f0e"/>
    </g>
   </g>
   <g id="patch_3">
    <path d="M 64.41375 529.308125 
L 64.41375 23.837813 
" style="fill: none; stroke: #000000; stroke-width: 0.8; stroke-linejoin: miter; stroke-linecap: square"/>
   </g>
   <g id="patch_4">
    <path d="M 731.696562 529.308125 
L 731.696562 23.837813 
" style="fill: none; stroke: #000000; stroke-width: 0.8; stroke-linejoin: miter; stroke-linecap: square"/>
   </g>
   <g id="patch_5">
    <path d="M 64.41375 529.308125 
L 731.696562 529.308125 
" style="fill: none; stroke: #000000; stroke-width: 0.8; stroke-linejoin: miter; stroke-linecap: square"/>
   </g>
   <g id="patch_6">
    <path d="M 64.41375 23.837812 
L 731.696562 23.837812 
" style="fill: none; stroke: #000000; stroke-width: 0.8; stroke-linejoin: miter; stroke-linecap: square"/>
   </g>
   <g id="text_12">
    <text style="font: 700 14px 'DejaVu Sans', 'Bitstream Vera Sans', 'Computer Modern Sans Serif', 'Lucida Grande', 'Verdana', 'Geneva', 'Lucid', 'Arial', 'Helvetica', 'Avant Garde', sans-serif; text-anchor: middle" x="398.055156" y="17.837813" transform="rotate(-0 398.055156 17.837813)">Ts Shared Linear Single Thread - Performance Trend</text>
   </g>
   <g id="legend_1">
    <g id="patch_7">
     <path d="M 772.060703 61.194063 
L 847.484141 61.194063 
Q 849.484141 61.194063 849.484141 59.194063 
L 849.484141 30.837813 
Q 849.484141 28.837813 847.484141 28.837813 
L 772.060703 28.837813 
Q 770.060703 28.837813 770.060703 30.837813 
L 770.060703 59.194063 
Q 770.060703 61.194063 772.060703 61.194063 
z
" style="fill: #ffffff; opacity: 0.8; stroke: #cccccc; stroke-linejoin: miter"/>
    </g>
    <g id="line2d_17">
     <path d="M 774.060703 36.93625 
L 784.060703 36.93625 
L 794.060703 36.93625 
" style="fill: none; stroke: #1f77b4; stroke-width: 2; stroke-linecap: square"/>
     <g>
      <use xlink:href="#m846d572ef9" x="784.060703" y="36.93625" style="fill: #1f77b4; stroke: #1f77b4"/>
     </g>
    </g>
    <g id="text_13">
     <text style="font: 10px 'DejaVu Sans', 'Bitstream Vera Sans', 'Computer Modern Sans Serif', 'Lucida Grande', 'Verdana', 'Geneva', 'Lucid', 'Arial', 'Helvetica', 'Avant Garde', sans-serif; text-anchor: start" x="802.060703" y="40.43625" transform="rotate(-0 802.060703 40.43625)">clang-18</text>
    </g>
    <g id="line2d_18">
     <path d="M 774.060703 51.614375 
L 784.060703 51.614375 
L 794.060703 51.614375 
" style="fill: none; stroke: #ff7f0e; stroke-width: 2; stroke-linecap: square"/>
     <g>
      <use xlink:href="#m6896a2cee8" x="784.060703" y="51.614375" style="fill: #ff7f0e; stroke: #ff7f0e"/>
     </g>
    </g>
    <g id="text_14">
     <text style="font: 10px 'DejaVu Sans', 'Bitstream Vera Sans', 'Computer Modern Sans Serif', 'Lucida Grande', 'Verdana', 'Geneva', 'Lucid', 'Arial', 'Helvetica', 'Avant Garde', sans-serif; text-anchor: start" x="802.060703" y="55.114375" transform="rotate(-0 802.060703 55.114375)">gcc-14</text>
    </g>
   </g>
  </g>
 </g>
 <defs>
  <clipPath id="pa0b8b23ab9">
   <rect x="64.41375" y="23.837813" width="667.282812" height="505.470313"/>
  </clipPath>
 </defs>
</svg>
