<?xml version="1.0" encoding="utf-8" standalone="no"?>
<!DOCTYPE svg PUBLIC "-//W3C//DTD SVG 1.1//EN"
  "http://www.w3.org/Graphics/SVG/1.1/DTD/svg11.dtd">
<svg xmlns:xlink="http://www.w3.org/1999/xlink" width="855.204687pt" height="568.8pt" viewBox="0 0 855.204687 568.8" xmlns="http://www.w3.org/2000/svg" version="1.1">
 <metadata>
  <rdf:RDF xmlns:dc="http://purl.org/dc/elements/1.1/" xmlns:cc="http://creativecommons.org/ns#" xmlns:rdf="http://www.w3.org/1999/02/22-rdf-syntax-ns#">
   <cc:Work>
    <dc:type rdf:resource="http://purl.org/dc/dcmitype/StillImage"/>
    <dc:date>2025-08-18T02:36:07.598411</dc:date>
    <dc:format>image/svg+xml</dc:format>
    <dc:creator>
     <cc:Agent>
      <dc:title>Matplotlib v3.9.4, https://matplotlib.org/</dc:title>
     </cc:Agent>
    </dc:creator>
   </cc:Work>
  </rdf:RDF>
 </metadata>
 <defs>
  <style type="text/css">*{stroke-linejoin: round; stroke-linecap: butt}</style>
 </defs>
 <g id="figure_1">
  <g id="patch_1">
   <path d="M 0 568.8 
L 855.204687 568.8 
L 855.204687 0 
L 0 0 
z
" style="fill: #ffffff"/>
  </g>
  <g id="axes_1">
   <g id="patch_2">
    <path d="M 64.41375 529.308125 
L 702.1075 529.308125 
L 702.1075 23.837812 
L 64.41375 23.837812 
z
" style="fill: #ffffff"/>
   </g>
   <g id="matplotlib.axis_1">
    <g id="xtick_1">
     <g id="line2d_1">
      <path d="M 70.210966 529.308125 
L 70.210966 23.837812 
" clip-path="url(#p04e4dab0d8)" style="fill: none; stroke: #b0b0b0; stroke-opacity: 0.3; stroke-width: 0.8; stroke-linecap: square"/>
     </g>
     <g id="line2d_2">
      <defs>
       <path id="m205b391a5d" d="M 0 0 
L 0 3.5 
" style="stroke: #000000; stroke-width: 0.8"/>
      </defs>
      <g>
       <use xlink:href="#m205b391a5d" x="70.210966" y="529.308125" style="stroke: #000000; stroke-width: 0.8"/>
      </g>
     </g>
     <g id="text_1">
      <text style="font: 10px 'DejaVu Sans', 'Bitstream Vera Sans', 'Computer Modern Sans Serif', 'Lucida Grande', 'Verdana', 'Geneva', 'Lucid', 'Arial', 'Helvetica', 'Avant Garde', sans-serif; text-anchor: middle" x="70.210966" y="543.906563" transform="rotate(-0 70.210966 543.906563)">70</text>
     </g>
    </g>
    <g id="xtick_2">
     <g id="line2d_3">
      <path d="M 186.155284 529.308125 
L 186.155284 23.837812 
" clip-path="url(#p04e4dab0d8)" style="fill: none; stroke: #b0b0b0; stroke-opacity: 0.3; stroke-width: 0.8; stroke-linecap: square"/>
     </g>
     <g id="line2d_4">
      <g>
       <use xlink:href="#m205b391a5d" x="186.155284" y="529.308125" style="stroke: #000000; stroke-width: 0.8"/>
      </g>
     </g>
     <g id="text_2">
      <text style="font: 10px 'DejaVu Sans', 'Bitstream Vera Sans', 'Computer Modern Sans Serif', 'Lucida Grande', 'Verdana', 'Geneva', 'Lucid', 'Arial', 'Helvetica', 'Avant Garde', sans-serif; text-anchor: middle" x="186.155284" y="543.906563" transform="rotate(-0 186.155284 543.906563)">75</text>
     </g>
    </g>
    <g id="xtick_3">
     <g id="line2d_5">
      <path d="M 302.099602 529.308125 
L 302.099602 23.837812 
" clip-path="url(#p04e4dab0d8)" style="fill: none; stroke: #b0b0b0; stroke-opacity: 0.3; stroke-width: 0.8; stroke-linecap: square"/>
     </g>
     <g id="line2d_6">
      <g>
       <use xlink:href="#m205b391a5d" x="302.099602" y="529.308125" style="stroke: #000000; stroke-width: 0.8"/>
      </g>
     </g>
     <g id="text_3">
      <text style="font: 10px 'DejaVu Sans', 'Bitstream Vera Sans', 'Computer Modern Sans Serif', 'Lucida Grande', 'Verdana', 'Geneva', 'Lucid', 'Arial', 'Helvetica', 'Avant Garde', sans-serif; text-anchor: middle" x="302.099602" y="543.906563" transform="rotate(-0 302.099602 543.906563)">80</text>
     </g>
    </g>
    <g id="xtick_4">
     <g id="line2d_7">
      <path d="M 418.04392 529.308125 
L 418.04392 23.837812 
" clip-path="url(#p04e4dab0d8)" style="fill: none; stroke: #b0b0b0; stroke-opacity: 0.3; stroke-width: 0.8; stroke-linecap: square"/>
     </g>
     <g id="line2d_8">
      <g>
       <use xlink:href="#m205b391a5d" x="418.04392" y="529.308125" style="stroke: #000000; stroke-width: 0.8"/>
      </g>
     </g>
     <g id="text_4">
      <text style="font: 10px 'DejaVu Sans', 'Bitstream Vera Sans', 'Computer Modern Sans Serif', 'Lucida Grande', 'Verdana', 'Geneva', 'Lucid', 'Arial', 'Helvetica', 'Avant Garde', sans-serif; text-anchor: middle" x="418.04392" y="543.906563" transform="rotate(-0 418.04392 543.906563)">85</text>
     </g>
    </g>
    <g id="xtick_5">
     <g id="line2d_9">
      <path d="M 533.988239 529.308125 
L 533.988239 23.837812 
" clip-path="url(#p04e4dab0d8)" style="fill: none; stroke: #b0b0b0; stroke-opacity: 0.3; stroke-width: 0.8; stroke-linecap: square"/>
     </g>
     <g id="line2d_10">
      <g>
       <use xlink:href="#m205b391a5d" x="533.988239" y="529.308125" style="stroke: #000000; stroke-width: 0.8"/>
      </g>
     </g>
     <g id="text_5">
      <text style="font: 10px 'DejaVu Sans', 'Bitstream Vera Sans', 'Computer Modern Sans Serif', 'Lucida Grande', 'Verdana', 'Geneva', 'Lucid', 'Arial', 'Helvetica', 'Avant Garde', sans-serif; text-anchor: middle" x="533.988239" y="543.906563" transform="rotate(-0 533.988239 543.906563)">90</text>
     </g>
    </g>
    <g id="xtick_6">
     <g id="line2d_11">
      <path d="M 649.932557 529.308125 
L 649.932557 23.837812 
" clip-path="url(#p04e4dab0d8)" style="fill: none; stroke: #b0b0b0; stroke-opacity: 0.3; stroke-width: 0.8; stroke-linecap: square"/>
     </g>
     <g id="line2d_12">
      <g>
       <use xlink:href="#m205b391a5d" x="649.932557" y="529.308125" style="stroke: #000000; stroke-width: 0.8"/>
      </g>
     </g>
     <g id="text_6">
      <text style="font: 10px 'DejaVu Sans', 'Bitstream Vera Sans', 'Computer Modern Sans Serif', 'Lucida Grande', 'Verdana', 'Geneva', 'Lucid', 'Arial', 'Helvetica', 'Avant Garde', sans-serif; text-anchor: middle" x="649.932557" y="543.906563" transform="rotate(-0 649.932557 543.906563)">95</text>
     </g>
    </g>
    <g id="text_7">
     <text style="font: 12px 'DejaVu Sans', 'Bitstream Vera Sans', 'Computer Modern Sans Serif', 'Lucida Grande', 'Verdana', 'Geneva', 'Lucid', 'Arial', 'Helvetica', 'Avant Garde', sans-serif; text-anchor: middle" x="383.260625" y="559.104375" transform="rotate(-0 383.260625 559.104375)">Build Number</text>
    </g>
   </g>
   <g id="matplotlib.axis_2">
    <g id="ytick_1">
     <g id="line2d_13">
      <path d="M 64.41375 453.786204 
L 702.1075 453.786204 
" clip-path="url(#p04e4dab0d8)" style="fill: none; stroke: #b0b0b0; stroke-opacity: 0.3; stroke-width: 0.8; stroke-linecap: square"/>
     </g>
     <g id="line2d_14">
      <defs>
       <path id="m3ee52eb616" d="M 0 0 
L -3.5 0 
" style="stroke: #000000; stroke-width: 0.8"/>
      </defs>
      <g>
       <use xlink:href="#m3ee52eb616" x="64.41375" y="453.786204" style="stroke: #000000; stroke-width: 0.8"/>
      </g>
     </g>
     <g id="text_8">
      <!-- $\mathdefault{10^{5}}$ -->
      <g transform="translate(39.81375 457.585423)">
       <text>
        <tspan style="font: 10px 'DejaVu Sans'" x="0 6.362305" y="-0.06406250000000036">10</tspan>
        <tspan style="font: 7px 'DejaVu Sans'" x="12.820312" y="-3.8921875000000004">5</tspan>
       </text>
      </g>
     </g>
    </g>
    <g id="ytick_2">
     <g id="line2d_15">
      <defs>
       <path id="mf499ca7a2a" d="M 0 0 
L -2 0 
" style="stroke: #000000; stroke-width: 0.6"/>
      </defs>
      <g>
       <use xlink:href="#mf499ca7a2a" x="64.41375" y="496.873642" style="stroke: #000000; stroke-width: 0.6"/>
      </g>
     </g>
    </g>
    <g id="ytick_3">
     <g id="line2d_16">
      <g>
       <use xlink:href="#mf499ca7a2a" x="64.41375" y="170.321985" style="stroke: #000000; stroke-width: 0.6"/>
      </g>
     </g>
     <g id="text_9">
      <!-- $\mathdefault{2\times10^{5}}$ -->
      <g transform="translate(22.81375 174.121204)">
       <text>
        <tspan style="font: 10px 'DejaVu Sans'" x="0 8.310547 18.637695 25" y="-0.06406250000000036">2×10</tspan>
        <tspan style="font: 7px 'DejaVu Sans'" x="31.458008" y="-3.8921875000000004">5</tspan>
       </text>
      </g>
     </g>
    </g>
    <g id="text_10">
     <text style="font: 12px 'DejaVu Sans', 'Bitstream Vera Sans', 'Computer Modern Sans Serif', 'Lucida Grande', 'Verdana', 'Geneva', 'Lucid', 'Arial', 'Helvetica', 'Avant Garde', sans-serif; text-anchor: middle" x="16.318125" y="276.572969" transform="rotate(-90 16.318125 276.572969)">Median Elapsed Time (nanoseconds)</text>
    </g>
   </g>
   <g id="line2d_17">
    <path d="M 93.39983 358.594402 
L 116.588693 83.393181 
L 139.777557 220.76105 
L 162.96642 331.184044 
L 186.155284 228.639233 
L 209.344148 318.546856 
L 232.533011 271.249317 
L 255.721875 112.928166 
L 278.910739 300.433378 
L 302.099602 288.178339 
L 325.288466 314.544957 
L 348.47733 271.473142 
L 371.666193 355.083876 
L 394.855057 289.902078 
L 418.04392 324.935545 
L 441.232784 310.91823 
L 487.610511 46.813736 
L 510.799375 298.535776 
L 533.988239 272.004793 
L 557.177102 264.733822 
L 580.365966 300.821441 
L 603.55483 315.773402 
L 626.743693 320.378392 
L 649.932557 300.841979 
L 673.12142 296.635402 
" clip-path="url(#p04e4dab0d8)" style="fill: none; stroke: #1f77b4; stroke-width: 2; stroke-linecap: square"/>
    <defs>
     <path id="mc2870e3b31" d="M 0 3 
C 0.795609 3 1.55874 2.683901 2.12132 2.12132 
C 2.683901 1.55874 3 0.795609 3 0 
C 3 -0.795609 2.683901 -1.55874 2.12132 -2.12132 
C 1.55874 -2.683901 0.795609 -3 0 -3 
C -0.795609 -3 -1.55874 -2.683901 -2.12132 -2.12132 
C -2.683901 -1.55874 -3 -0.795609 -3 0 
C -3 0.795609 -2.683901 1.55874 -2.12132 2.12132 
C -1.55874 2.683901 -0.795609 3 0 3 
z
" style="stroke: #1f77b4"/>
    </defs>
    <g clip-path="url(#p04e4dab0d8)">
     <use xlink:href="#mc2870e3b31" x="93.39983" y="358.594402" style="fill: #1f77b4; stroke: #1f77b4"/>
     <use xlink:href="#mc2870e3b31" x="116.588693" y="83.393181" style="fill: #1f77b4; stroke: #1f77b4"/>
     <use xlink:href="#mc2870e3b31" x="139.777557" y="220.76105" style="fill: #1f77b4; stroke: #1f77b4"/>
     <use xlink:href="#mc2870e3b31" x="162.96642" y="331.184044" style="fill: #1f77b4; stroke: #1f77b4"/>
     <use xlink:href="#mc2870e3b31" x="186.155284" y="228.639233" style="fill: #1f77b4; stroke: #1f77b4"/>
     <use xlink:href="#mc2870e3b31" x="209.344148" y="318.546856" style="fill: #1f77b4; stroke: #1f77b4"/>
     <use xlink:href="#mc2870e3b31" x="232.533011" y="271.249317" style="fill: #1f77b4; stroke: #1f77b4"/>
     <use xlink:href="#mc2870e3b31" x="255.721875" y="112.928166" style="fill: #1f77b4; stroke: #1f77b4"/>
     <use xlink:href="#mc2870e3b31" x="278.910739" y="300.433378" style="fill: #1f77b4; stroke: #1f77b4"/>
     <use xlink:href="#mc2870e3b31" x="302.099602" y="288.178339" style="fill: #1f77b4; stroke: #1f77b4"/>
     <use xlink:href="#mc2870e3b31" x="325.288466" y="314.544957" style="fill: #1f77b4; stroke: #1f77b4"/>
     <use xlink:href="#mc2870e3b31" x="348.47733" y="271.473142" style="fill: #1f77b4; stroke: #1f77b4"/>
     <use xlink:href="#mc2870e3b31" x="371.666193" y="355.083876" style="fill: #1f77b4; stroke: #1f77b4"/>
     <use xlink:href="#mc2870e3b31" x="394.855057" y="289.902078" style="fill: #1f77b4; stroke: #1f77b4"/>
     <use xlink:href="#mc2870e3b31" x="418.04392" y="324.935545" style="fill: #1f77b4; stroke: #1f77b4"/>
     <use xlink:href="#mc2870e3b31" x="441.232784" y="310.91823" style="fill: #1f77b4; stroke: #1f77b4"/>
     <use xlink:href="#mc2870e3b31" x="487.610511" y="46.813736" style="fill: #1f77b4; stroke: #1f77b4"/>
     <use xlink:href="#mc2870e3b31" x="510.799375" y="298.535776" style="fill: #1f77b4; stroke: #1f77b4"/>
     <use xlink:href="#mc2870e3b31" x="533.988239" y="272.004793" style="fill: #1f77b4; stroke: #1f77b4"/>
     <use xlink:href="#mc2870e3b31" x="557.177102" y="264.733822" style="fill: #1f77b4; stroke: #1f77b4"/>
     <use xlink:href="#mc2870e3b31" x="580.365966" y="300.821441" style="fill: #1f77b4; stroke: #1f77b4"/>
     <use xlink:href="#mc2870e3b31" x="603.55483" y="315.773402" style="fill: #1f77b4; stroke: #1f77b4"/>
     <use xlink:href="#mc2870e3b31" x="626.743693" y="320.378392" style="fill: #1f77b4; stroke: #1f77b4"/>
     <use xlink:href="#mc2870e3b31" x="649.932557" y="300.841979" style="fill: #1f77b4; stroke: #1f77b4"/>
     <use xlink:href="#mc2870e3b31" x="673.12142" y="296.635402" style="fill: #1f77b4; stroke: #1f77b4"/>
    </g>
   </g>
   <g id="line2d_18">
    <path d="M 93.39983 392.679679 
L 116.588693 386.936497 
L 139.777557 398.248244 
L 162.96642 385.343502 
L 186.155284 339.569664 
L 209.344148 404.385915 
L 232.533011 381.678582 
L 255.721875 408.819049 
L 278.910739 396.668627 
L 302.099602 335.900085 
L 325.288466 374.883943 
L 348.47733 381.8178 
L 371.666193 372.43382 
L 394.855057 408.554433 
L 418.04392 391.855324 
L 441.232784 368.569402 
L 487.610511 391.970803 
L 510.799375 383.410177 
L 533.988239 355.940819 
L 557.177102 365.503518 
L 580.365966 346.510892 
L 603.55483 416.125962 
L 626.743693 357.092056 
L 649.932557 354.857344 
L 673.12142 282.149957 
" clip-path="url(#p04e4dab0d8)" style="fill: none; stroke: #ff7f0e; stroke-width: 2; stroke-linecap: square"/>
    <defs>
     <path id="mf2a4a767a2" d="M 0 3 
C 0.795609 3 1.55874 2.683901 2.12132 2.12132 
C 2.683901 1.55874 3 0.795609 3 0 
C 3 -0.795609 2.683901 -1.55874 2.12132 -2.12132 
C 1.55874 -2.683901 0.795609 -3 0 -3 
C -0.795609 -3 -1.55874 -2.683901 -2.12132 -2.12132 
C -2.683901 -1.55874 -3 -0.795609 -3 0 
C -3 0.795609 -2.683901 1.55874 -2.12132 2.12132 
C -1.55874 2.683901 -0.795609 3 0 3 
z
" style="stroke: #ff7f0e"/>
    </defs>
    <g clip-path="url(#p04e4dab0d8)">
     <use xlink:href="#mf2a4a767a2" x="93.39983" y="392.679679" style="fill: #ff7f0e; stroke: #ff7f0e"/>
     <use xlink:href="#mf2a4a767a2" x="116.588693" y="386.936497" style="fill: #ff7f0e; stroke: #ff7f0e"/>
     <use xlink:href="#mf2a4a767a2" x="139.777557" y="398.248244" style="fill: #ff7f0e; stroke: #ff7f0e"/>
     <use xlink:href="#mf2a4a767a2" x="162.96642" y="385.343502" style="fill: #ff7f0e; stroke: #ff7f0e"/>
     <use xlink:href="#mf2a4a767a2" x="186.155284" y="339.569664" style="fill: #ff7f0e; stroke: #ff7f0e"/>
     <use xlink:href="#mf2a4a767a2" x="209.344148" y="404.385915" style="fill: #ff7f0e; stroke: #ff7f0e"/>
     <use xlink:href="#mf2a4a767a2" x="232.533011" y="381.678582" style="fill: #ff7f0e; stroke: #ff7f0e"/>
     <use xlink:href="#mf2a4a767a2" x="255.721875" y="408.819049" style="fill: #ff7f0e; stroke: #ff7f0e"/>
     <use xlink:href="#mf2a4a767a2" x="278.910739" y="396.668627" style="fill: #ff7f0e; stroke: #ff7f0e"/>
     <use xlink:href="#mf2a4a767a2" x="302.099602" y="335.900085" style="fill: #ff7f0e; stroke: #ff7f0e"/>
     <use xlink:href="#mf2a4a767a2" x="325.288466" y="374.883943" style="fill: #ff7f0e; stroke: #ff7f0e"/>
     <use xlink:href="#mf2a4a767a2" x="348.47733" y="381.8178" style="fill: #ff7f0e; stroke: #ff7f0e"/>
     <use xlink:href="#mf2a4a767a2" x="371.666193" y="372.43382" style="fill: #ff7f0e; stroke: #ff7f0e"/>
     <use xlink:href="#mf2a4a767a2" x="394.855057" y="408.554433" style="fill: #ff7f0e; stroke: #ff7f0e"/>
     <use xlink:href="#mf2a4a767a2" x="418.04392" y="391.855324" style="fill: #ff7f0e; stroke: #ff7f0e"/>
     <use xlink:href="#mf2a4a767a2" x="441.232784" y="368.569402" style="fill: #ff7f0e; stroke: #ff7f0e"/>
     <use xlink:href="#mf2a4a767a2" x="487.610511" y="391.970803" style="fill: #ff7f0e; stroke: #ff7f0e"/>
     <use xlink:href="#mf2a4a767a2" x="510.799375" y="383.410177" style="fill: #ff7f0e; stroke: #ff7f0e"/>
     <use xlink:href="#mf2a4a767a2" x="533.988239" y="355.940819" style="fill: #ff7f0e; stroke: #ff7f0e"/>
     <use xlink:href="#mf2a4a767a2" x="557.177102" y="365.503518" style="fill: #ff7f0e; stroke: #ff7f0e"/>
     <use xlink:href="#mf2a4a767a2" x="580.365966" y="346.510892" style="fill: #ff7f0e; stroke: #ff7f0e"/>
     <use xlink:href="#mf2a4a767a2" x="603.55483" y="416.125962" style="fill: #ff7f0e; stroke: #ff7f0e"/>
     <use xlink:href="#mf2a4a767a2" x="626.743693" y="357.092056" style="fill: #ff7f0e; stroke: #ff7f0e"/>
     <use xlink:href="#mf2a4a767a2" x="649.932557" y="354.857344" style="fill: #ff7f0e; stroke: #ff7f0e"/>
     <use xlink:href="#mf2a4a767a2" x="673.12142" y="282.149957" style="fill: #ff7f0e; stroke: #ff7f0e"/>
    </g>
   </g>
   <g id="line2d_19">
    <path d="M 93.39983 253.741696 
L 116.588693 131.132428 
L 139.777557 96.482045 
L 162.96642 81.256547 
L 186.155284 240.152215 
L 209.344148 77.046755 
L 232.533011 132.700907 
L 255.721875 86.931594 
L 278.910739 212.878131 
L 302.099602 259.677316 
L 325.288466 75.515958 
L 348.47733 128.781141 
L 371.666193 197.396234 
L 394.855057 112.022002 
L 418.04392 278.006773 
L 441.232784 84.085137 
L 487.610511 101.398895 
L 510.799375 202.032381 
L 533.988239 119.799375 
L 557.177102 215.475984 
L 580.365966 242.654232 
L 603.55483 83.347224 
L 626.743693 247.574723 
L 649.932557 84.118424 
L 673.12142 125.304641 
" clip-path="url(#p04e4dab0d8)" style="fill: none; stroke: #2ca02c; stroke-width: 2; stroke-linecap: square"/>
    <defs>
     <path id="m4d846cef66" d="M 0 3 
C 0.795609 3 1.55874 2.683901 2.12132 2.12132 
C 2.683901 1.55874 3 0.795609 3 0 
C 3 -0.795609 2.683901 -1.55874 2.12132 -2.12132 
C 1.55874 -2.683901 0.795609 -3 0 -3 
C -0.795609 -3 -1.55874 -2.683901 -2.12132 -2.12132 
C -2.683901 -1.55874 -3 -0.795609 -3 0 
C -3 0.795609 -2.683901 1.55874 -2.12132 2.12132 
C -1.55874 2.683901 -0.795609 3 0 3 
z
" style="stroke: #2ca02c"/>
    </defs>
    <g clip-path="url(#p04e4dab0d8)">
     <use xlink:href="#m4d846cef66" x="93.39983" y="253.741696" style="fill: #2ca02c; stroke: #2ca02c"/>
     <use xlink:href="#m4d846cef66" x="116.588693" y="131.132428" style="fill: #2ca02c; stroke: #2ca02c"/>
     <use xlink:href="#m4d846cef66" x="139.777557" y="96.482045" style="fill: #2ca02c; stroke: #2ca02c"/>
     <use xlink:href="#m4d846cef66" x="162.96642" y="81.256547" style="fill: #2ca02c; stroke: #2ca02c"/>
     <use xlink:href="#m4d846cef66" x="186.155284" y="240.152215" style="fill: #2ca02c; stroke: #2ca02c"/>
     <use xlink:href="#m4d846cef66" x="209.344148" y="77.046755" style="fill: #2ca02c; stroke: #2ca02c"/>
     <use xlink:href="#m4d846cef66" x="232.533011" y="132.700907" style="fill: #2ca02c; stroke: #2ca02c"/>
     <use xlink:href="#m4d846cef66" x="255.721875" y="86.931594" style="fill: #2ca02c; stroke: #2ca02c"/>
     <use xlink:href="#m4d846cef66" x="278.910739" y="212.878131" style="fill: #2ca02c; stroke: #2ca02c"/>
     <use xlink:href="#m4d846cef66" x="302.099602" y="259.677316" style="fill: #2ca02c; stroke: #2ca02c"/>
     <use xlink:href="#m4d846cef66" x="325.288466" y="75.515958" style="fill: #2ca02c; stroke: #2ca02c"/>
     <use xlink:href="#m4d846cef66" x="348.47733" y="128.781141" style="fill: #2ca02c; stroke: #2ca02c"/>
     <use xlink:href="#m4d846cef66" x="371.666193" y="197.396234" style="fill: #2ca02c; stroke: #2ca02c"/>
     <use xlink:href="#m4d846cef66" x="394.855057" y="112.022002" style="fill: #2ca02c; stroke: #2ca02c"/>
     <use xlink:href="#m4d846cef66" x="418.04392" y="278.006773" style="fill: #2ca02c; stroke: #2ca02c"/>
     <use xlink:href="#m4d846cef66" x="441.232784" y="84.085137" style="fill: #2ca02c; stroke: #2ca02c"/>
     <use xlink:href="#m4d846cef66" x="487.610511" y="101.398895" style="fill: #2ca02c; stroke: #2ca02c"/>
     <use xlink:href="#m4d846cef66" x="510.799375" y="202.032381" style="fill: #2ca02c; stroke: #2ca02c"/>
     <use xlink:href="#m4d846cef66" x="533.988239" y="119.799375" style="fill: #2ca02c; stroke: #2ca02c"/>
     <use xlink:href="#m4d846cef66" x="557.177102" y="215.475984" style="fill: #2ca02c; stroke: #2ca02c"/>
     <use xlink:href="#m4d846cef66" x="580.365966" y="242.654232" style="fill: #2ca02c; stroke: #2ca02c"/>
     <use xlink:href="#m4d846cef66" x="603.55483" y="83.347224" style="fill: #2ca02c; stroke: #2ca02c"/>
     <use xlink:href="#m4d846cef66" x="626.743693" y="247.574723" style="fill: #2ca02c; stroke: #2ca02c"/>
     <use xlink:href="#m4d846cef66" x="649.932557" y="84.118424" style="fill: #2ca02c; stroke: #2ca02c"/>
     <use xlink:href="#m4d846cef66" x="673.12142" y="125.304641" style="fill: #2ca02c; stroke: #2ca02c"/>
    </g>
   </g>
   <g id="line2d_20">
    <path d="M 93.39983 309.46052 
L 116.588693 294.014315 
L 139.777557 121.63556 
L 162.96642 288.422818 
L 186.155284 307.59703 
L 209.344148 296.137357 
L 232.533011 332.588837 
L 255.721875 138.456856 
L 278.910739 66.312577 
L 302.099602 283.547321 
L 325.288466 281.66026 
L 348.47733 296.901271 
L 371.666193 313.205049 
L 418.04392 344.12319 
L 441.232784 298.313978 
L 487.610511 314.901513 
L 510.799375 208.372962 
L 533.988239 117.617315 
L 557.177102 207.136064 
L 580.365966 313.390974 
L 626.743693 286.409414 
L 649.932557 279.949187 
L 673.12142 292.178976 
" clip-path="url(#p04e4dab0d8)" style="fill: none; stroke: #d62728; stroke-width: 2; stroke-linecap: square"/>
    <defs>
     <path id="me1af33961c" d="M 0 3 
C 0.795609 3 1.55874 2.683901 2.12132 2.12132 
C 2.683901 1.55874 3 0.795609 3 0 
C 3 -0.795609 2.683901 -1.55874 2.12132 -2.12132 
C 1.55874 -2.683901 0.795609 -3 0 -3 
C -0.795609 -3 -1.55874 -2.683901 -2.12132 -2.12132 
C -2.683901 -1.55874 -3 -0.795609 -3 0 
C -3 0.795609 -2.683901 1.55874 -2.12132 2.12132 
C -1.55874 2.683901 -0.795609 3 0 3 
z
" style="stroke: #d62728"/>
    </defs>
    <g clip-path="url(#p04e4dab0d8)">
     <use xlink:href="#me1af33961c" x="93.39983" y="309.46052" style="fill: #d62728; stroke: #d62728"/>
     <use xlink:href="#me1af33961c" x="116.588693" y="294.014315" style="fill: #d62728; stroke: #d62728"/>
     <use xlink:href="#me1af33961c" x="139.777557" y="121.63556" style="fill: #d62728; stroke: #d62728"/>
     <use xlink:href="#me1af33961c" x="162.96642" y="288.422818" style="fill: #d62728; stroke: #d62728"/>
     <use xlink:href="#me1af33961c" x="186.155284" y="307.59703" style="fill: #d62728; stroke: #d62728"/>
     <use xlink:href="#me1af33961c" x="209.344148" y="296.137357" style="fill: #d62728; stroke: #d62728"/>
     <use xlink:href="#me1af33961c" x="232.533011" y="332.588837" style="fill: #d62728; stroke: #d62728"/>
     <use xlink:href="#me1af33961c" x="255.721875" y="138.456856" style="fill: #d62728; stroke: #d62728"/>
     <use xlink:href="#me1af33961c" x="278.910739" y="66.312577" style="fill: #d62728; stroke: #d62728"/>
     <use xlink:href="#me1af33961c" x="302.099602" y="283.547321" style="fill: #d62728; stroke: #d62728"/>
     <use xlink:href="#me1af33961c" x="325.288466" y="281.66026" style="fill: #d62728; stroke: #d62728"/>
     <use xlink:href="#me1af33961c" x="348.47733" y="296.901271" style="fill: #d62728; stroke: #d62728"/>
     <use xlink:href="#me1af33961c" x="371.666193" y="313.205049" style="fill: #d62728; stroke: #d62728"/>
     <use xlink:href="#me1af33961c" x="418.04392" y="344.12319" style="fill: #d62728; stroke: #d62728"/>
     <use xlink:href="#me1af33961c" x="441.232784" y="298.313978" style="fill: #d62728; stroke: #d62728"/>
     <use xlink:href="#me1af33961c" x="487.610511" y="314.901513" style="fill: #d62728; stroke: #d62728"/>
     <use xlink:href="#me1af33961c" x="510.799375" y="208.372962" style="fill: #d62728; stroke: #d62728"/>
     <use xlink:href="#me1af33961c" x="533.988239" y="117.617315" style="fill: #d62728; stroke: #d62728"/>
     <use xlink:href="#me1af33961c" x="557.177102" y="207.136064" style="fill: #d62728; stroke: #d62728"/>
     <use xlink:href="#me1af33961c" x="580.365966" y="313.390974" style="fill: #d62728; stroke: #d62728"/>
     <use xlink:href="#me1af33961c" x="626.743693" y="286.409414" style="fill: #d62728; stroke: #d62728"/>
     <use xlink:href="#me1af33961c" x="649.932557" y="279.949187" style="fill: #d62728; stroke: #d62728"/>
     <use xlink:href="#me1af33961c" x="673.12142" y="292.178976" style="fill: #d62728; stroke: #d62728"/>
    </g>
   </g>
   <g id="line2d_21">
    <path d="M 93.39983 377.497105 
L 116.588693 387.013601 
L 139.777557 366.137566 
L 162.96642 382.326041 
L 186.155284 353.014329 
L 209.344148 376.792191 
L 232.533011 393.025678 
L 255.721875 369.58168 
L 278.910739 366.519954 
L 302.099602 376.404142 
L 325.288466 352.125109 
L 348.47733 354.006725 
L 371.666193 372.147341 
L 418.04392 416.543906 
L 441.232784 365.251985 
L 487.610511 390.812516 
L 510.799375 506.332202 
L 533.988239 317.490832 
L 557.177102 355.132603 
L 580.365966 396.66187 
L 626.743693 322.484467 
L 649.932557 364.753659 
L 673.12142 299.948817 
" clip-path="url(#p04e4dab0d8)" style="fill: none; stroke: #9467bd; stroke-width: 2; stroke-linecap: square"/>
    <defs>
     <path id="m2226730208" d="M 0 3 
C 0.795609 3 1.55874 2.683901 2.12132 2.12132 
C 2.683901 1.55874 3 0.795609 3 0 
C 3 -0.795609 2.683901 -1.55874 2.12132 -2.12132 
C 1.55874 -2.683901 0.795609 -3 0 -3 
C -0.795609 -3 -1.55874 -2.683901 -2.12132 -2.12132 
C -2.683901 -1.55874 -3 -0.795609 -3 0 
C -3 0.795609 -2.683901 1.55874 -2.12132 2.12132 
C -1.55874 2.683901 -0.795609 3 0 3 
z
" style="stroke: #9467bd"/>
    </defs>
    <g clip-path="url(#p04e4dab0d8)">
     <use xlink:href="#m2226730208" x="93.39983" y="377.497105" style="fill: #9467bd; stroke: #9467bd"/>
     <use xlink:href="#m2226730208" x="116.588693" y="387.013601" style="fill: #9467bd; stroke: #9467bd"/>
     <use xlink:href="#m2226730208" x="139.777557" y="366.137566" style="fill: #9467bd; stroke: #9467bd"/>
     <use xlink:href="#m2226730208" x="162.96642" y="382.326041" style="fill: #9467bd; stroke: #9467bd"/>
     <use xlink:href="#m2226730208" x="186.155284" y="353.014329" style="fill: #9467bd; stroke: #9467bd"/>
     <use xlink:href="#m2226730208" x="209.344148" y="376.792191" style="fill: #9467bd; stroke: #9467bd"/>
     <use xlink:href="#m2226730208" x="232.533011" y="393.025678" style="fill: #9467bd; stroke: #9467bd"/>
     <use xlink:href="#m2226730208" x="255.721875" y="369.58168" style="fill: #9467bd; stroke: #9467bd"/>
     <use xlink:href="#m2226730208" x="278.910739" y="366.519954" style="fill: #9467bd; stroke: #9467bd"/>
     <use xlink:href="#m2226730208" x="302.099602" y="376.404142" style="fill: #9467bd; stroke: #9467bd"/>
     <use xlink:href="#m2226730208" x="325.288466" y="352.125109" style="fill: #9467bd; stroke: #9467bd"/>
     <use xlink:href="#m2226730208" x="348.47733" y="354.006725" style="fill: #9467bd; stroke: #9467bd"/>
     <use xlink:href="#m2226730208" x="371.666193" y="372.147341" style="fill: #9467bd; stroke: #9467bd"/>
     <use xlink:href="#m2226730208" x="418.04392" y="416.543906" style="fill: #9467bd; stroke: #9467bd"/>
     <use xlink:href="#m2226730208" x="441.232784" y="365.251985" style="fill: #9467bd; stroke: #9467bd"/>
     <use xlink:href="#m2226730208" x="487.610511" y="390.812516" style="fill: #9467bd; stroke: #9467bd"/>
     <use xlink:href="#m2226730208" x="510.799375" y="506.332202" style="fill: #9467bd; stroke: #9467bd"/>
     <use xlink:href="#m2226730208" x="533.988239" y="317.490832" style="fill: #9467bd; stroke: #9467bd"/>
     <use xlink:href="#m2226730208" x="557.177102" y="355.132603" style="fill: #9467bd; stroke: #9467bd"/>
     <use xlink:href="#m2226730208" x="580.365966" y="396.66187" style="fill: #9467bd; stroke: #9467bd"/>
     <use xlink:href="#m2226730208" x="626.743693" y="322.484467" style="fill: #9467bd; stroke: #9467bd"/>
     <use xlink:href="#m2226730208" x="649.932557" y="364.753659" style="fill: #9467bd; stroke: #9467bd"/>
     <use xlink:href="#m2226730208" x="673.12142" y="299.948817" style="fill: #9467bd; stroke: #9467bd"/>
    </g>
   </g>
   <g id="line2d_22">
    <path d="M 93.39983 274.650768 
L 116.588693 96.666611 
L 139.777557 276.859481 
L 162.96642 257.482311 
L 186.155284 215.464338 
L 209.344148 266.852194 
L 232.533011 250.594453 
L 255.721875 207.420086 
L 278.910739 242.827291 
L 302.099602 80.166321 
L 325.288466 277.984423 
L 348.47733 104.891121 
L 371.666193 124.203671 
L 418.04392 267.439832 
L 441.232784 250.251968 
L 487.610511 230.273162 
L 510.799375 275.952272 
L 533.988239 73.774918 
L 557.177102 87.604345 
L 580.365966 121.351933 
L 626.743693 91.384657 
L 649.932557 89.741917 
L 673.12142 260.968451 
" clip-path="url(#p04e4dab0d8)" style="fill: none; stroke: #8c564b; stroke-width: 2; stroke-linecap: square"/>
    <defs>
     <path id="mb55ff48654" d="M 0 3 
C 0.795609 3 1.55874 2.683901 2.12132 2.12132 
C 2.683901 1.55874 3 0.795609 3 0 
C 3 -0.795609 2.683901 -1.55874 2.12132 -2.12132 
C 1.55874 -2.683901 0.795609 -3 0 -3 
C -0.795609 -3 -1.55874 -2.683901 -2.12132 -2.12132 
C -2.683901 -1.55874 -3 -0.795609 -3 0 
C -3 0.795609 -2.683901 1.55874 -2.12132 2.12132 
C -1.55874 2.683901 -0.795609 3 0 3 
z
" style="stroke: #8c564b"/>
    </defs>
    <g clip-path="url(#p04e4dab0d8)">
     <use xlink:href="#mb55ff48654" x="93.39983" y="274.650768" style="fill: #8c564b; stroke: #8c564b"/>
     <use xlink:href="#mb55ff48654" x="116.588693" y="96.666611" style="fill: #8c564b; stroke: #8c564b"/>
     <use xlink:href="#mb55ff48654" x="139.777557" y="276.859481" style="fill: #8c564b; stroke: #8c564b"/>
     <use xlink:href="#mb55ff48654" x="162.96642" y="257.482311" style="fill: #8c564b; stroke: #8c564b"/>
     <use xlink:href="#mb55ff48654" x="186.155284" y="215.464338" style="fill: #8c564b; stroke: #8c564b"/>
     <use xlink:href="#mb55ff48654" x="209.344148" y="266.852194" style="fill: #8c564b; stroke: #8c564b"/>
     <use xlink:href="#mb55ff48654" x="232.533011" y="250.594453" style="fill: #8c564b; stroke: #8c564b"/>
     <use xlink:href="#mb55ff48654" x="255.721875" y="207.420086" style="fill: #8c564b; stroke: #8c564b"/>
     <use xlink:href="#mb55ff48654" x="278.910739" y="242.827291" style="fill: #8c564b; stroke: #8c564b"/>
     <use xlink:href="#mb55ff48654" x="302.099602" y="80.166321" style="fill: #8c564b; stroke: #8c564b"/>
     <use xlink:href="#mb55ff48654" x="325.288466" y="277.984423" style="fill: #8c564b; stroke: #8c564b"/>
     <use xlink:href="#mb55ff48654" x="348.47733" y="104.891121" style="fill: #8c564b; stroke: #8c564b"/>
     <use xlink:href="#mb55ff48654" x="371.666193" y="124.203671" style="fill: #8c564b; stroke: #8c564b"/>
     <use xlink:href="#mb55ff48654" x="418.04392" y="267.439832" style="fill: #8c564b; stroke: #8c564b"/>
     <use xlink:href="#mb55ff48654" x="441.232784" y="250.251968" style="fill: #8c564b; stroke: #8c564b"/>
     <use xlink:href="#mb55ff48654" x="487.610511" y="230.273162" style="fill: #8c564b; stroke: #8c564b"/>
     <use xlink:href="#mb55ff48654" x="510.799375" y="275.952272" style="fill: #8c564b; stroke: #8c564b"/>
     <use xlink:href="#mb55ff48654" x="533.988239" y="73.774918" style="fill: #8c564b; stroke: #8c564b"/>
     <use xlink:href="#mb55ff48654" x="557.177102" y="87.604345" style="fill: #8c564b; stroke: #8c564b"/>
     <use xlink:href="#mb55ff48654" x="580.365966" y="121.351933" style="fill: #8c564b; stroke: #8c564b"/>
     <use xlink:href="#mb55ff48654" x="626.743693" y="91.384657" style="fill: #8c564b; stroke: #8c564b"/>
     <use xlink:href="#mb55ff48654" x="649.932557" y="89.741917" style="fill: #8c564b; stroke: #8c564b"/>
     <use xlink:href="#mb55ff48654" x="673.12142" y="260.968451" style="fill: #8c564b; stroke: #8c564b"/>
    </g>
   </g>
   <g id="patch_3">
    <path d="M 64.41375 529.308125 
L 64.41375 23.837812 
" style="fill: none; stroke: #000000; stroke-width: 0.8; stroke-linejoin: miter; stroke-linecap: square"/>
   </g>
   <g id="patch_4">
    <path d="M 702.1075 529.308125 
L 702.1075 23.837812 
" style="fill: none; stroke: #000000; stroke-width: 0.8; stroke-linejoin: miter; stroke-linecap: square"/>
   </g>
   <g id="patch_5">
    <path d="M 64.41375 529.308125 
L 702.1075 529.308125 
" style="fill: none; stroke: #000000; stroke-width: 0.8; stroke-linejoin: miter; stroke-linecap: square"/>
   </g>
   <g id="patch_6">
    <path d="M 64.41375 23.837812 
L 702.1075 23.837812 
" style="fill: none; stroke: #000000; stroke-width: 0.8; stroke-linejoin: miter; stroke-linecap: square"/>
   </g>
   <g id="text_11">
    <text style="font: 700 14px 'DejaVu Sans', 'Bitstream Vera Sans', 'Computer Modern Sans Serif', 'Lucida Grande', 'Verdana', 'Geneva', 'Lucid', 'Arial', 'Helvetica', 'Avant Garde', sans-serif; text-anchor: middle" x="383.260625" y="17.837813" transform="rotate(-0 383.260625 17.837813)">Tasksubmission - Performance Trend</text>
   </g>
   <g id="legend_1">
    <g id="patch_7">
     <path d="M 740.992188 119.906563 
L 846.004688 119.906563 
Q 848.004688 119.906563 848.004688 117.906563 
L 848.004688 30.837813 
Q 848.004688 28.837813 846.004688 28.837813 
L 740.992188 28.837813 
Q 738.992188 28.837813 738.992188 30.837813 
L 738.992188 117.906563 
Q 738.992188 119.906563 740.992188 119.906563 
z
" style="fill: #ffffff; opacity: 0.8; stroke: #cccccc; stroke-linejoin: miter"/>
    </g>
    <g id="line2d_23">
     <path d="M 742.992188 36.93625 
L 752.992188 36.93625 
L 762.992188 36.93625 
" style="fill: none; stroke: #1f77b4; stroke-width: 2; stroke-linecap: square"/>
     <g>
      <use xlink:href="#mc2870e3b31" x="752.992188" y="36.93625" style="fill: #1f77b4; stroke: #1f77b4"/>
     </g>
    </g>
    <g id="text_12">
     <text style="font: 10px 'DejaVu Sans', 'Bitstream Vera Sans', 'Computer Modern Sans Serif', 'Lucida Grande', 'Verdana', 'Geneva', 'Lucid', 'Arial', 'Helvetica', 'Avant Garde', sans-serif; text-anchor: start" x="770.992188" y="40.43625" transform="rotate(-0 770.992188 40.43625)">gcc-14.2 - V1</text>
    </g>
    <g id="line2d_24">
     <path d="M 742.992188 51.614375 
L 752.992188 51.614375 
L 762.992188 51.614375 
" style="fill: none; stroke: #ff7f0e; stroke-width: 2; stroke-linecap: square"/>
     <g>
      <use xlink:href="#mf2a4a767a2" x="752.992188" y="51.614375" style="fill: #ff7f0e; stroke: #ff7f0e"/>
     </g>
    </g>
    <g id="text_13">
     <text style="font: 10px 'DejaVu Sans', 'Bitstream Vera Sans', 'Computer Modern Sans Serif', 'Lucida Grande', 'Verdana', 'Geneva', 'Lucid', 'Arial', 'Helvetica', 'Avant Garde', sans-serif; text-anchor: start" x="770.992188" y="55.114375" transform="rotate(-0 770.992188 55.114375)">gcc-14.2 - V2</text>
    </g>
    <g id="line2d_25">
     <path d="M 742.992188 66.2925 
L 752.992188 66.2925 
L 762.992188 66.2925 
" style="fill: none; stroke: #2ca02c; stroke-width: 2; stroke-linecap: square"/>
     <g>
      <use xlink:href="#m4d846cef66" x="752.992188" y="66.2925" style="fill: #2ca02c; stroke: #2ca02c"/>
     </g>
    </g>
    <g id="text_14">
     <text style="font: 10px 'DejaVu Sans', 'Bitstream Vera Sans', 'Computer Modern Sans Serif', 'Lucida Grande', 'Verdana', 'Geneva', 'Lucid', 'Arial', 'Helvetica', 'Avant Garde', sans-serif; text-anchor: start" x="770.992188" y="69.7925" transform="rotate(-0 770.992188 69.7925)">gcc-14.2 - TBB</text>
    </g>
    <g id="line2d_26">
     <path d="M 742.992188 80.970625 
L 752.992188 80.970625 
L 762.992188 80.970625 
" style="fill: none; stroke: #d62728; stroke-width: 2; stroke-linecap: square"/>
     <g>
      <use xlink:href="#me1af33961c" x="752.992188" y="80.970625" style="fill: #d62728; stroke: #d62728"/>
     </g>
    </g>
    <g id="text_15">
     <text style="font: 10px 'DejaVu Sans', 'Bitstream Vera Sans', 'Computer Modern Sans Serif', 'Lucida Grande', 'Verdana', 'Geneva', 'Lucid', 'Arial', 'Helvetica', 'Avant Garde', sans-serif; text-anchor: start" x="770.992188" y="84.470625" transform="rotate(-0 770.992188 84.470625)">gcc-4.2 - V1</text>
    </g>
    <g id="line2d_27">
     <path d="M 742.992188 95.64875 
L 752.992188 95.64875 
L 762.992188 95.64875 
" style="fill: none; stroke: #9467bd; stroke-width: 2; stroke-linecap: square"/>
     <g>
      <use xlink:href="#m2226730208" x="752.992188" y="95.64875" style="fill: #9467bd; stroke: #9467bd"/>
     </g>
    </g>
    <g id="text_16">
     <text style="font: 10px 'DejaVu Sans', 'Bitstream Vera Sans', 'Computer Modern Sans Serif', 'Lucida Grande', 'Verdana', 'Geneva', 'Lucid', 'Arial', 'Helvetica', 'Avant Garde', sans-serif; text-anchor: start" x="770.992188" y="99.14875" transform="rotate(-0 770.992188 99.14875)">gcc-4.2 - V2</text>
    </g>
    <g id="line2d_28">
     <path d="M 742.992188 110.326875 
L 752.992188 110.326875 
L 762.992188 110.326875 
" style="fill: none; stroke: #8c564b; stroke-width: 2; stroke-linecap: square"/>
     <g>
      <use xlink:href="#mb55ff48654" x="752.992188" y="110.326875" style="fill: #8c564b; stroke: #8c564b"/>
     </g>
    </g>
    <g id="text_17">
     <text style="font: 10px 'DejaVu Sans', 'Bitstream Vera Sans', 'Computer Modern Sans Serif', 'Lucida Grande', 'Verdana', 'Geneva', 'Lucid', 'Arial', 'Helvetica', 'Avant Garde', sans-serif; text-anchor: start" x="770.992188" y="113.826875" transform="rotate(-0 770.992188 113.826875)">gcc-4.2 - TBB</text>
    </g>
   </g>
  </g>
 </g>
 <defs>
  <clipPath id="p04e4dab0d8">
   <rect x="64.41375" y="23.837813" width="637.69375" height="505.470313"/>
  </clipPath>
 </defs>
</svg>
