<?xml version="1.0" encoding="utf-8" standalone="no"?>
<!DOCTYPE svg PUBLIC "-//W3C//DTD SVG 1.1//EN"
  "http://www.w3.org/Graphics/SVG/1.1/DTD/svg11.dtd">
<svg xmlns:xlink="http://www.w3.org/1999/xlink" width="856.684141pt" height="568.8pt" viewBox="0 0 856.684141 568.8" xmlns="http://www.w3.org/2000/svg" version="1.1">
 <metadata>
  <rdf:RDF xmlns:dc="http://purl.org/dc/elements/1.1/" xmlns:cc="http://creativecommons.org/ns#" xmlns:rdf="http://www.w3.org/1999/02/22-rdf-syntax-ns#">
   <cc:Work>
    <dc:type rdf:resource="http://purl.org/dc/dcmitype/StillImage"/>
    <dc:date>2025-08-22T16:20:10.327980</dc:date>
    <dc:format>image/svg+xml</dc:format>
    <dc:creator>
     <cc:Agent>
      <dc:title>Matplotlib v3.9.4, https://matplotlib.org/</dc:title>
     </cc:Agent>
    </dc:creator>
   </cc:Work>
  </rdf:RDF>
 </metadata>
 <defs>
  <style type="text/css">*{stroke-linejoin: round; stroke-linecap: butt}</style>
 </defs>
 <g id="figure_1">
  <g id="patch_1">
   <path d="M 0 568.8 
L 856.684141 568.8 
L 856.684141 0 
L 0 0 
z
" style="fill: #ffffff"/>
  </g>
  <g id="axes_1">
   <g id="patch_2">
    <path d="M 64.41375 529.308125 
L 731.696562 529.308125 
L 731.696562 23.837812 
L 64.41375 23.837812 
z
" style="fill: #ffffff"/>
   </g>
   <g id="matplotlib.axis_1">
    <g id="xtick_1">
     <g id="line2d_1">
      <path d="M 73.82683 529.308125 
L 73.82683 23.837812 
" clip-path="url(#p2701a76bce)" style="fill: none; stroke: #b0b0b0; stroke-opacity: 0.3; stroke-width: 0.8; stroke-linecap: square"/>
     </g>
     <g id="line2d_2">
      <defs>
       <path id="mfc42f6cf2b" d="M 0 0 
L 0 3.5 
" style="stroke: #000000; stroke-width: 0.8"/>
      </defs>
      <g>
       <use xlink:href="#mfc42f6cf2b" x="73.82683" y="529.308125" style="stroke: #000000; stroke-width: 0.8"/>
      </g>
     </g>
     <g id="text_1">
      <text style="font: 10px 'DejaVu Sans', 'Bitstream Vera Sans', 'Computer Modern Sans Serif', 'Lucida Grande', 'Verdana', 'Geneva', 'Lucid', 'Arial', 'Helvetica', 'Avant Garde', sans-serif; text-anchor: middle" x="73.82683" y="543.906563" transform="rotate(-0 73.82683 543.906563)">70</text>
     </g>
    </g>
    <g id="xtick_2">
     <g id="line2d_3">
      <path d="M 178.416613 529.308125 
L 178.416613 23.837812 
" clip-path="url(#p2701a76bce)" style="fill: none; stroke: #b0b0b0; stroke-opacity: 0.3; stroke-width: 0.8; stroke-linecap: square"/>
     </g>
     <g id="line2d_4">
      <g>
       <use xlink:href="#mfc42f6cf2b" x="178.416613" y="529.308125" style="stroke: #000000; stroke-width: 0.8"/>
      </g>
     </g>
     <g id="text_2">
      <text style="font: 10px 'DejaVu Sans', 'Bitstream Vera Sans', 'Computer Modern Sans Serif', 'Lucida Grande', 'Verdana', 'Geneva', 'Lucid', 'Arial', 'Helvetica', 'Avant Garde', sans-serif; text-anchor: middle" x="178.416613" y="543.906563" transform="rotate(-0 178.416613 543.906563)">75</text>
     </g>
    </g>
    <g id="xtick_3">
     <g id="line2d_5">
      <path d="M 283.006395 529.308125 
L 283.006395 23.837812 
" clip-path="url(#p2701a76bce)" style="fill: none; stroke: #b0b0b0; stroke-opacity: 0.3; stroke-width: 0.8; stroke-linecap: square"/>
     </g>
     <g id="line2d_6">
      <g>
       <use xlink:href="#mfc42f6cf2b" x="283.006395" y="529.308125" style="stroke: #000000; stroke-width: 0.8"/>
      </g>
     </g>
     <g id="text_3">
      <text style="font: 10px 'DejaVu Sans', 'Bitstream Vera Sans', 'Computer Modern Sans Serif', 'Lucida Grande', 'Verdana', 'Geneva', 'Lucid', 'Arial', 'Helvetica', 'Avant Garde', sans-serif; text-anchor: middle" x="283.006395" y="543.906563" transform="rotate(-0 283.006395 543.906563)">80</text>
     </g>
    </g>
    <g id="xtick_4">
     <g id="line2d_7">
      <path d="M 387.596178 529.308125 
L 387.596178 23.837812 
" clip-path="url(#p2701a76bce)" style="fill: none; stroke: #b0b0b0; stroke-opacity: 0.3; stroke-width: 0.8; stroke-linecap: square"/>
     </g>
     <g id="line2d_8">
      <g>
       <use xlink:href="#mfc42f6cf2b" x="387.596178" y="529.308125" style="stroke: #000000; stroke-width: 0.8"/>
      </g>
     </g>
     <g id="text_4">
      <text style="font: 10px 'DejaVu Sans', 'Bitstream Vera Sans', 'Computer Modern Sans Serif', 'Lucida Grande', 'Verdana', 'Geneva', 'Lucid', 'Arial', 'Helvetica', 'Avant Garde', sans-serif; text-anchor: middle" x="387.596178" y="543.906563" transform="rotate(-0 387.596178 543.906563)">85</text>
     </g>
    </g>
    <g id="xtick_5">
     <g id="line2d_9">
      <path d="M 492.185961 529.308125 
L 492.185961 23.837812 
" clip-path="url(#p2701a76bce)" style="fill: none; stroke: #b0b0b0; stroke-opacity: 0.3; stroke-width: 0.8; stroke-linecap: square"/>
     </g>
     <g id="line2d_10">
      <g>
       <use xlink:href="#mfc42f6cf2b" x="492.185961" y="529.308125" style="stroke: #000000; stroke-width: 0.8"/>
      </g>
     </g>
     <g id="text_5">
      <text style="font: 10px 'DejaVu Sans', 'Bitstream Vera Sans', 'Computer Modern Sans Serif', 'Lucida Grande', 'Verdana', 'Geneva', 'Lucid', 'Arial', 'Helvetica', 'Avant Garde', sans-serif; text-anchor: middle" x="492.185961" y="543.906563" transform="rotate(-0 492.185961 543.906563)">90</text>
     </g>
    </g>
    <g id="xtick_6">
     <g id="line2d_11">
      <path d="M 596.775743 529.308125 
L 596.775743 23.837812 
" clip-path="url(#p2701a76bce)" style="fill: none; stroke: #b0b0b0; stroke-opacity: 0.3; stroke-width: 0.8; stroke-linecap: square"/>
     </g>
     <g id="line2d_12">
      <g>
       <use xlink:href="#mfc42f6cf2b" x="596.775743" y="529.308125" style="stroke: #000000; stroke-width: 0.8"/>
      </g>
     </g>
     <g id="text_6">
      <text style="font: 10px 'DejaVu Sans', 'Bitstream Vera Sans', 'Computer Modern Sans Serif', 'Lucida Grande', 'Verdana', 'Geneva', 'Lucid', 'Arial', 'Helvetica', 'Avant Garde', sans-serif; text-anchor: middle" x="596.775743" y="543.906563" transform="rotate(-0 596.775743 543.906563)">95</text>
     </g>
    </g>
    <g id="xtick_7">
     <g id="line2d_13">
      <path d="M 701.365526 529.308125 
L 701.365526 23.837812 
" clip-path="url(#p2701a76bce)" style="fill: none; stroke: #b0b0b0; stroke-opacity: 0.3; stroke-width: 0.8; stroke-linecap: square"/>
     </g>
     <g id="line2d_14">
      <g>
       <use xlink:href="#mfc42f6cf2b" x="701.365526" y="529.308125" style="stroke: #000000; stroke-width: 0.8"/>
      </g>
     </g>
     <g id="text_7">
      <text style="font: 10px 'DejaVu Sans', 'Bitstream Vera Sans', 'Computer Modern Sans Serif', 'Lucida Grande', 'Verdana', 'Geneva', 'Lucid', 'Arial', 'Helvetica', 'Avant Garde', sans-serif; text-anchor: middle" x="701.365526" y="543.906563" transform="rotate(-0 701.365526 543.906563)">100</text>
     </g>
    </g>
    <g id="text_8">
     <text style="font: 12px 'DejaVu Sans', 'Bitstream Vera Sans', 'Computer Modern Sans Serif', 'Lucida Grande', 'Verdana', 'Geneva', 'Lucid', 'Arial', 'Helvetica', 'Avant Garde', sans-serif; text-anchor: middle" x="398.055156" y="559.104375" transform="rotate(-0 398.055156 559.104375)">Build Number</text>
    </g>
   </g>
   <g id="matplotlib.axis_2">
    <g id="ytick_1">
     <g id="line2d_15">
      <defs>
       <path id="m67e65ab734" d="M 0 0 
L -2 0 
" style="stroke: #000000; stroke-width: 0.6"/>
      </defs>
      <g>
       <use xlink:href="#m67e65ab734" x="64.41375" y="482.905893" style="stroke: #000000; stroke-width: 0.6"/>
      </g>
     </g>
     <g id="text_9">
      <!-- $\mathdefault{4\times10^{0}}$ -->
      <g transform="translate(22.81375 486.705112)">
       <text>
        <tspan style="font: 10px 'DejaVu Sans'" x="0 8.310547 18.637695 25" y="-0.9765625">4×10</tspan>
        <tspan style="font: 7px 'DejaVu Sans'" x="31.458008" y="-4.8046875">0</tspan>
       </text>
      </g>
     </g>
    </g>
    <g id="ytick_2">
     <g id="line2d_16">
      <g>
       <use xlink:href="#m67e65ab734" x="64.41375" y="253.199313" style="stroke: #000000; stroke-width: 0.6"/>
      </g>
     </g>
     <g id="text_10">
      <!-- $\mathdefault{5\times10^{0}}$ -->
      <g transform="translate(22.81375 256.998532)">
       <text>
        <tspan style="font: 10px 'DejaVu Sans'" x="0 8.310547 18.637695 25" y="-0.9765625">5×10</tspan>
        <tspan style="font: 7px 'DejaVu Sans'" x="31.458008" y="-4.8046875">0</tspan>
       </text>
      </g>
     </g>
    </g>
    <g id="ytick_3">
     <g id="line2d_17">
      <g>
       <use xlink:href="#m67e65ab734" x="64.41375" y="65.515371" style="stroke: #000000; stroke-width: 0.6"/>
      </g>
     </g>
     <g id="text_11">
      <!-- $\mathdefault{6\times10^{0}}$ -->
      <g transform="translate(22.81375 69.31459)">
       <text>
        <tspan style="font: 10px 'DejaVu Sans'" x="0 8.310547 18.637695 25" y="-0.9765625">6×10</tspan>
        <tspan style="font: 7px 'DejaVu Sans'" x="31.458008" y="-4.8046875">0</tspan>
       </text>
      </g>
     </g>
    </g>
    <g id="text_12">
     <text style="font: 12px 'DejaVu Sans', 'Bitstream Vera Sans', 'Computer Modern Sans Serif', 'Lucida Grande', 'Verdana', 'Geneva', 'Lucid', 'Arial', 'Helvetica', 'Avant Garde', sans-serif; text-anchor: middle" x="16.318125" y="276.572969" transform="rotate(-90 16.318125 276.572969)">Median Elapsed Time (nanoseconds)</text>
    </g>
   </g>
   <g id="line2d_18">
    <path d="M 94.744787 430.232661 
L 115.662743 430.232661 
L 136.5807 430.232661 
L 157.498656 430.232661 
L 178.416613 430.232661 
L 199.334569 430.232661 
L 220.252526 430.232661 
L 241.170482 430.232661 
L 262.088439 430.232661 
L 283.006395 430.232661 
L 303.924352 430.232661 
L 324.842308 432.680728 
L 345.760265 430.232661 
L 387.596178 432.680728 
L 408.514135 432.680728 
L 450.350048 430.232661 
L 471.268004 430.232661 
L 492.185961 430.232661 
L 513.103917 454.979326 
L 534.021874 430.232661 
L 575.857787 430.232661 
L 596.775743 430.232661 
L 617.6937 430.232661 
L 638.611656 430.232661 
L 680.447569 432.680728 
L 701.365526 432.680728 
" clip-path="url(#p2701a76bce)" style="fill: none; stroke: #1f77b4; stroke-width: 2; stroke-linecap: square"/>
    <defs>
     <path id="m5ddbaebd5c" d="M 0 3 
C 0.795609 3 1.55874 2.683901 2.12132 2.12132 
C 2.683901 1.55874 3 0.795609 3 0 
C 3 -0.795609 2.683901 -1.55874 2.12132 -2.12132 
C 1.55874 -2.683901 0.795609 -3 0 -3 
C -0.795609 -3 -1.55874 -2.683901 -2.12132 -2.12132 
C -2.683901 -1.55874 -3 -0.795609 -3 0 
C -3 0.795609 -2.683901 1.55874 -2.12132 2.12132 
C -1.55874 2.683901 -0.795609 3 0 3 
z
" style="stroke: #1f77b4"/>
    </defs>
    <g clip-path="url(#p2701a76bce)">
     <use xlink:href="#m5ddbaebd5c" x="94.744787" y="430.232661" style="fill: #1f77b4; stroke: #1f77b4"/>
     <use xlink:href="#m5ddbaebd5c" x="115.662743" y="430.232661" style="fill: #1f77b4; stroke: #1f77b4"/>
     <use xlink:href="#m5ddbaebd5c" x="136.5807" y="430.232661" style="fill: #1f77b4; stroke: #1f77b4"/>
     <use xlink:href="#m5ddbaebd5c" x="157.498656" y="430.232661" style="fill: #1f77b4; stroke: #1f77b4"/>
     <use xlink:href="#m5ddbaebd5c" x="178.416613" y="430.232661" style="fill: #1f77b4; stroke: #1f77b4"/>
     <use xlink:href="#m5ddbaebd5c" x="199.334569" y="430.232661" style="fill: #1f77b4; stroke: #1f77b4"/>
     <use xlink:href="#m5ddbaebd5c" x="220.252526" y="430.232661" style="fill: #1f77b4; stroke: #1f77b4"/>
     <use xlink:href="#m5ddbaebd5c" x="241.170482" y="430.232661" style="fill: #1f77b4; stroke: #1f77b4"/>
     <use xlink:href="#m5ddbaebd5c" x="262.088439" y="430.232661" style="fill: #1f77b4; stroke: #1f77b4"/>
     <use xlink:href="#m5ddbaebd5c" x="283.006395" y="430.232661" style="fill: #1f77b4; stroke: #1f77b4"/>
     <use xlink:href="#m5ddbaebd5c" x="303.924352" y="430.232661" style="fill: #1f77b4; stroke: #1f77b4"/>
     <use xlink:href="#m5ddbaebd5c" x="324.842308" y="432.680728" style="fill: #1f77b4; stroke: #1f77b4"/>
     <use xlink:href="#m5ddbaebd5c" x="345.760265" y="430.232661" style="fill: #1f77b4; stroke: #1f77b4"/>
     <use xlink:href="#m5ddbaebd5c" x="387.596178" y="432.680728" style="fill: #1f77b4; stroke: #1f77b4"/>
     <use xlink:href="#m5ddbaebd5c" x="408.514135" y="432.680728" style="fill: #1f77b4; stroke: #1f77b4"/>
     <use xlink:href="#m5ddbaebd5c" x="450.350048" y="430.232661" style="fill: #1f77b4; stroke: #1f77b4"/>
     <use xlink:href="#m5ddbaebd5c" x="471.268004" y="430.232661" style="fill: #1f77b4; stroke: #1f77b4"/>
     <use xlink:href="#m5ddbaebd5c" x="492.185961" y="430.232661" style="fill: #1f77b4; stroke: #1f77b4"/>
     <use xlink:href="#m5ddbaebd5c" x="513.103917" y="454.979326" style="fill: #1f77b4; stroke: #1f77b4"/>
     <use xlink:href="#m5ddbaebd5c" x="534.021874" y="430.232661" style="fill: #1f77b4; stroke: #1f77b4"/>
     <use xlink:href="#m5ddbaebd5c" x="575.857787" y="430.232661" style="fill: #1f77b4; stroke: #1f77b4"/>
     <use xlink:href="#m5ddbaebd5c" x="596.775743" y="430.232661" style="fill: #1f77b4; stroke: #1f77b4"/>
     <use xlink:href="#m5ddbaebd5c" x="617.6937" y="430.232661" style="fill: #1f77b4; stroke: #1f77b4"/>
     <use xlink:href="#m5ddbaebd5c" x="638.611656" y="430.232661" style="fill: #1f77b4; stroke: #1f77b4"/>
     <use xlink:href="#m5ddbaebd5c" x="680.447569" y="432.680728" style="fill: #1f77b4; stroke: #1f77b4"/>
     <use xlink:href="#m5ddbaebd5c" x="701.365526" y="432.680728" style="fill: #1f77b4; stroke: #1f77b4"/>
    </g>
   </g>
   <g id="line2d_19">
    <path d="M 94.744787 506.332202 
L 115.662743 406.066957 
L 136.5807 408.458159 
L 157.498656 430.232661 
L 178.416613 408.458159 
L 199.334569 430.232661 
L 220.252526 430.232661 
L 241.170482 408.458159 
L 262.088439 430.232661 
L 283.006395 406.066957 
L 303.924352 430.232661 
L 324.842308 408.458159 
L 345.760265 406.066957 
L 366.678221 406.066957 
L 387.596178 430.232661 
L 408.514135 408.458159 
L 450.350048 408.458159 
L 471.268004 408.458159 
L 492.185961 430.232661 
L 513.103917 406.066957 
L 534.021874 408.458159 
L 554.93983 408.458159 
L 575.857787 408.458159 
L 596.775743 406.066957 
L 617.6937 408.458159 
L 638.611656 46.813736 
L 680.447569 430.232661 
L 701.365526 430.232661 
" clip-path="url(#p2701a76bce)" style="fill: none; stroke: #ff7f0e; stroke-width: 2; stroke-linecap: square"/>
    <defs>
     <path id="m2d0d50c6c5" d="M 0 3 
C 0.795609 3 1.55874 2.683901 2.12132 2.12132 
C 2.683901 1.55874 3 0.795609 3 0 
C 3 -0.795609 2.683901 -1.55874 2.12132 -2.12132 
C 1.55874 -2.683901 0.795609 -3 0 -3 
C -0.795609 -3 -1.55874 -2.683901 -2.12132 -2.12132 
C -2.683901 -1.55874 -3 -0.795609 -3 0 
C -3 0.795609 -2.683901 1.55874 -2.12132 2.12132 
C -1.55874 2.683901 -0.795609 3 0 3 
z
" style="stroke: #ff7f0e"/>
    </defs>
    <g clip-path="url(#p2701a76bce)">
     <use xlink:href="#m2d0d50c6c5" x="94.744787" y="506.332202" style="fill: #ff7f0e; stroke: #ff7f0e"/>
     <use xlink:href="#m2d0d50c6c5" x="115.662743" y="406.066957" style="fill: #ff7f0e; stroke: #ff7f0e"/>
     <use xlink:href="#m2d0d50c6c5" x="136.5807" y="408.458159" style="fill: #ff7f0e; stroke: #ff7f0e"/>
     <use xlink:href="#m2d0d50c6c5" x="157.498656" y="430.232661" style="fill: #ff7f0e; stroke: #ff7f0e"/>
     <use xlink:href="#m2d0d50c6c5" x="178.416613" y="408.458159" style="fill: #ff7f0e; stroke: #ff7f0e"/>
     <use xlink:href="#m2d0d50c6c5" x="199.334569" y="430.232661" style="fill: #ff7f0e; stroke: #ff7f0e"/>
     <use xlink:href="#m2d0d50c6c5" x="220.252526" y="430.232661" style="fill: #ff7f0e; stroke: #ff7f0e"/>
     <use xlink:href="#m2d0d50c6c5" x="241.170482" y="408.458159" style="fill: #ff7f0e; stroke: #ff7f0e"/>
     <use xlink:href="#m2d0d50c6c5" x="262.088439" y="430.232661" style="fill: #ff7f0e; stroke: #ff7f0e"/>
     <use xlink:href="#m2d0d50c6c5" x="283.006395" y="406.066957" style="fill: #ff7f0e; stroke: #ff7f0e"/>
     <use xlink:href="#m2d0d50c6c5" x="303.924352" y="430.232661" style="fill: #ff7f0e; stroke: #ff7f0e"/>
     <use xlink:href="#m2d0d50c6c5" x="324.842308" y="408.458159" style="fill: #ff7f0e; stroke: #ff7f0e"/>
     <use xlink:href="#m2d0d50c6c5" x="345.760265" y="406.066957" style="fill: #ff7f0e; stroke: #ff7f0e"/>
     <use xlink:href="#m2d0d50c6c5" x="366.678221" y="406.066957" style="fill: #ff7f0e; stroke: #ff7f0e"/>
     <use xlink:href="#m2d0d50c6c5" x="387.596178" y="430.232661" style="fill: #ff7f0e; stroke: #ff7f0e"/>
     <use xlink:href="#m2d0d50c6c5" x="408.514135" y="408.458159" style="fill: #ff7f0e; stroke: #ff7f0e"/>
     <use xlink:href="#m2d0d50c6c5" x="450.350048" y="408.458159" style="fill: #ff7f0e; stroke: #ff7f0e"/>
     <use xlink:href="#m2d0d50c6c5" x="471.268004" y="408.458159" style="fill: #ff7f0e; stroke: #ff7f0e"/>
     <use xlink:href="#m2d0d50c6c5" x="492.185961" y="430.232661" style="fill: #ff7f0e; stroke: #ff7f0e"/>
     <use xlink:href="#m2d0d50c6c5" x="513.103917" y="406.066957" style="fill: #ff7f0e; stroke: #ff7f0e"/>
     <use xlink:href="#m2d0d50c6c5" x="534.021874" y="408.458159" style="fill: #ff7f0e; stroke: #ff7f0e"/>
     <use xlink:href="#m2d0d50c6c5" x="554.93983" y="408.458159" style="fill: #ff7f0e; stroke: #ff7f0e"/>
     <use xlink:href="#m2d0d50c6c5" x="575.857787" y="408.458159" style="fill: #ff7f0e; stroke: #ff7f0e"/>
     <use xlink:href="#m2d0d50c6c5" x="596.775743" y="406.066957" style="fill: #ff7f0e; stroke: #ff7f0e"/>
     <use xlink:href="#m2d0d50c6c5" x="617.6937" y="408.458159" style="fill: #ff7f0e; stroke: #ff7f0e"/>
     <use xlink:href="#m2d0d50c6c5" x="638.611656" y="46.813736" style="fill: #ff7f0e; stroke: #ff7f0e"/>
     <use xlink:href="#m2d0d50c6c5" x="680.447569" y="430.232661" style="fill: #ff7f0e; stroke: #ff7f0e"/>
     <use xlink:href="#m2d0d50c6c5" x="701.365526" y="430.232661" style="fill: #ff7f0e; stroke: #ff7f0e"/>
    </g>
   </g>
   <g id="patch_3">
    <path d="M 64.41375 529.308125 
L 64.41375 23.837812 
" style="fill: none; stroke: #000000; stroke-width: 0.8; stroke-linejoin: miter; stroke-linecap: square"/>
   </g>
   <g id="patch_4">
    <path d="M 731.696562 529.308125 
L 731.696562 23.837812 
" style="fill: none; stroke: #000000; stroke-width: 0.8; stroke-linejoin: miter; stroke-linecap: square"/>
   </g>
   <g id="patch_5">
    <path d="M 64.41375 529.308125 
L 731.696562 529.308125 
" style="fill: none; stroke: #000000; stroke-width: 0.8; stroke-linejoin: miter; stroke-linecap: square"/>
   </g>
   <g id="patch_6">
    <path d="M 64.41375 23.837812 
L 731.696562 23.837812 
" style="fill: none; stroke: #000000; stroke-width: 0.8; stroke-linejoin: miter; stroke-linecap: square"/>
   </g>
   <g id="text_13">
    <text style="font: 700 14px 'DejaVu Sans', 'Bitstream Vera Sans', 'Computer Modern Sans Serif', 'Lucida Grande', 'Verdana', 'Geneva', 'Lucid', 'Arial', 'Helvetica', 'Avant Garde', sans-serif; text-anchor: middle" x="398.055156" y="17.837813" transform="rotate(-0 398.055156 17.837813)">Ts Thread Local Single Thread - Performance Trend</text>
   </g>
   <g id="legend_1">
    <g id="patch_7">
     <path d="M 772.060703 61.194063 
L 847.484141 61.194063 
Q 849.484141 61.194063 849.484141 59.194063 
L 849.484141 30.837813 
Q 849.484141 28.837813 847.484141 28.837813 
L 772.060703 28.837813 
Q 770.060703 28.837813 770.060703 30.837813 
L 770.060703 59.194063 
Q 770.060703 61.194063 772.060703 61.194063 
z
" style="fill: #ffffff; opacity: 0.8; stroke: #cccccc; stroke-linejoin: miter"/>
    </g>
    <g id="line2d_20">
     <path d="M 774.060703 36.93625 
L 784.060703 36.93625 
L 794.060703 36.93625 
" style="fill: none; stroke: #1f77b4; stroke-width: 2; stroke-linecap: square"/>
     <g>
      <use xlink:href="#m5ddbaebd5c" x="784.060703" y="36.93625" style="fill: #1f77b4; stroke: #1f77b4"/>
     </g>
    </g>
    <g id="text_14">
     <text style="font: 10px 'DejaVu Sans', 'Bitstream Vera Sans', 'Computer Modern Sans Serif', 'Lucida Grande', 'Verdana', 'Geneva', 'Lucid', 'Arial', 'Helvetica', 'Avant Garde', sans-serif; text-anchor: start" x="802.060703" y="40.43625" transform="rotate(-0 802.060703 40.43625)">clang-18</text>
    </g>
    <g id="line2d_21">
     <path d="M 774.060703 51.614375 
L 784.060703 51.614375 
L 794.060703 51.614375 
" style="fill: none; stroke: #ff7f0e; stroke-width: 2; stroke-linecap: square"/>
     <g>
      <use xlink:href="#m2d0d50c6c5" x="784.060703" y="51.614375" style="fill: #ff7f0e; stroke: #ff7f0e"/>
     </g>
    </g>
    <g id="text_15">
     <text style="font: 10px 'DejaVu Sans', 'Bitstream Vera Sans', 'Computer Modern Sans Serif', 'Lucida Grande', 'Verdana', 'Geneva', 'Lucid', 'Arial', 'Helvetica', 'Avant Garde', sans-serif; text-anchor: start" x="802.060703" y="55.114375" transform="rotate(-0 802.060703 55.114375)">gcc-14</text>
    </g>
   </g>
  </g>
 </g>
 <defs>
  <clipPath id="p2701a76bce">
   <rect x="64.41375" y="23.837813" width="667.282812" height="505.470313"/>
  </clipPath>
 </defs>
</svg>
