<?xml version="1.0" encoding="utf-8" standalone="no"?>
<!DOCTYPE svg PUBLIC "-//W3C//DTD SVG 1.1//EN"
  "http://www.w3.org/Graphics/SVG/1.1/DTD/svg11.dtd">
<svg xmlns:xlink="http://www.w3.org/1999/xlink" width="850.820859pt" height="568.8pt" viewBox="0 0 850.820859 568.8" xmlns="http://www.w3.org/2000/svg" version="1.1">
 <metadata>
  <rdf:RDF xmlns:dc="http://purl.org/dc/elements/1.1/" xmlns:cc="http://creativecommons.org/ns#" xmlns:rdf="http://www.w3.org/1999/02/22-rdf-syntax-ns#">
   <cc:Work>
    <dc:type rdf:resource="http://purl.org/dc/dcmitype/StillImage"/>
    <dc:date>2025-10-21T17:13:32.822790</dc:date>
    <dc:format>image/svg+xml</dc:format>
    <dc:creator>
     <cc:Agent>
      <dc:title>Matplotlib v3.9.4, https://matplotlib.org/</dc:title>
     </cc:Agent>
    </dc:creator>
   </cc:Work>
  </rdf:RDF>
 </metadata>
 <defs>
  <style type="text/css">*{stroke-linejoin: round; stroke-linecap: butt}</style>
 </defs>
 <g id="figure_1">
  <g id="patch_1">
   <path d="M 0 568.8 
L 850.820859 568.8 
L 850.820859 0 
L 0 0 
z
" style="fill: #ffffff"/>
  </g>
  <g id="axes_1">
   <g id="patch_2">
    <path d="M 64.41375 529.308125 
L 614.430938 529.308125 
L 614.430938 23.837812 
L 64.41375 23.837812 
z
" style="fill: #ffffff"/>
   </g>
   <g id="matplotlib.axis_1">
    <g id="xtick_1">
     <g id="line2d_1">
      <path d="M 69.413906 529.308125 
L 69.413906 23.837812 
" clip-path="url(#pb95350a898)" style="fill: none; stroke: #b0b0b0; stroke-opacity: 0.3; stroke-width: 0.8; stroke-linecap: square"/>
     </g>
     <g id="line2d_2">
      <defs>
       <path id="me79a265350" d="M 0 0 
L 0 3.5 
" style="stroke: #000000; stroke-width: 0.8"/>
      </defs>
      <g>
       <use xlink:href="#me79a265350" x="69.413906" y="529.308125" style="stroke: #000000; stroke-width: 0.8"/>
      </g>
     </g>
     <g id="text_1">
      <text style="font: 10px 'DejaVu Sans', 'Bitstream Vera Sans', 'Computer Modern Sans Serif', 'Lucida Grande', 'Verdana', 'Geneva', 'Lucid', 'Arial', 'Helvetica', 'Avant Garde', sans-serif; text-anchor: middle" x="69.413906" y="543.906563" transform="rotate(-0 69.413906 543.906563)">95</text>
     </g>
    </g>
    <g id="xtick_2">
     <g id="line2d_3">
      <path d="M 169.417031 529.308125 
L 169.417031 23.837812 
" clip-path="url(#pb95350a898)" style="fill: none; stroke: #b0b0b0; stroke-opacity: 0.3; stroke-width: 0.8; stroke-linecap: square"/>
     </g>
     <g id="line2d_4">
      <g>
       <use xlink:href="#me79a265350" x="169.417031" y="529.308125" style="stroke: #000000; stroke-width: 0.8"/>
      </g>
     </g>
     <g id="text_2">
      <text style="font: 10px 'DejaVu Sans', 'Bitstream Vera Sans', 'Computer Modern Sans Serif', 'Lucida Grande', 'Verdana', 'Geneva', 'Lucid', 'Arial', 'Helvetica', 'Avant Garde', sans-serif; text-anchor: middle" x="169.417031" y="543.906563" transform="rotate(-0 169.417031 543.906563)">100</text>
     </g>
    </g>
    <g id="xtick_3">
     <g id="line2d_5">
      <path d="M 269.420156 529.308125 
L 269.420156 23.837812 
" clip-path="url(#pb95350a898)" style="fill: none; stroke: #b0b0b0; stroke-opacity: 0.3; stroke-width: 0.8; stroke-linecap: square"/>
     </g>
     <g id="line2d_6">
      <g>
       <use xlink:href="#me79a265350" x="269.420156" y="529.308125" style="stroke: #000000; stroke-width: 0.8"/>
      </g>
     </g>
     <g id="text_3">
      <text style="font: 10px 'DejaVu Sans', 'Bitstream Vera Sans', 'Computer Modern Sans Serif', 'Lucida Grande', 'Verdana', 'Geneva', 'Lucid', 'Arial', 'Helvetica', 'Avant Garde', sans-serif; text-anchor: middle" x="269.420156" y="543.906563" transform="rotate(-0 269.420156 543.906563)">105</text>
     </g>
    </g>
    <g id="xtick_4">
     <g id="line2d_7">
      <path d="M 369.423281 529.308125 
L 369.423281 23.837812 
" clip-path="url(#pb95350a898)" style="fill: none; stroke: #b0b0b0; stroke-opacity: 0.3; stroke-width: 0.8; stroke-linecap: square"/>
     </g>
     <g id="line2d_8">
      <g>
       <use xlink:href="#me79a265350" x="369.423281" y="529.308125" style="stroke: #000000; stroke-width: 0.8"/>
      </g>
     </g>
     <g id="text_4">
      <text style="font: 10px 'DejaVu Sans', 'Bitstream Vera Sans', 'Computer Modern Sans Serif', 'Lucida Grande', 'Verdana', 'Geneva', 'Lucid', 'Arial', 'Helvetica', 'Avant Garde', sans-serif; text-anchor: middle" x="369.423281" y="543.906563" transform="rotate(-0 369.423281 543.906563)">110</text>
     </g>
    </g>
    <g id="xtick_5">
     <g id="line2d_9">
      <path d="M 469.426406 529.308125 
L 469.426406 23.837812 
" clip-path="url(#pb95350a898)" style="fill: none; stroke: #b0b0b0; stroke-opacity: 0.3; stroke-width: 0.8; stroke-linecap: square"/>
     </g>
     <g id="line2d_10">
      <g>
       <use xlink:href="#me79a265350" x="469.426406" y="529.308125" style="stroke: #000000; stroke-width: 0.8"/>
      </g>
     </g>
     <g id="text_5">
      <text style="font: 10px 'DejaVu Sans', 'Bitstream Vera Sans', 'Computer Modern Sans Serif', 'Lucida Grande', 'Verdana', 'Geneva', 'Lucid', 'Arial', 'Helvetica', 'Avant Garde', sans-serif; text-anchor: middle" x="469.426406" y="543.906563" transform="rotate(-0 469.426406 543.906563)">115</text>
     </g>
    </g>
    <g id="xtick_6">
     <g id="line2d_11">
      <path d="M 569.429531 529.308125 
L 569.429531 23.837812 
" clip-path="url(#pb95350a898)" style="fill: none; stroke: #b0b0b0; stroke-opacity: 0.3; stroke-width: 0.8; stroke-linecap: square"/>
     </g>
     <g id="line2d_12">
      <g>
       <use xlink:href="#me79a265350" x="569.429531" y="529.308125" style="stroke: #000000; stroke-width: 0.8"/>
      </g>
     </g>
     <g id="text_6">
      <text style="font: 10px 'DejaVu Sans', 'Bitstream Vera Sans', 'Computer Modern Sans Serif', 'Lucida Grande', 'Verdana', 'Geneva', 'Lucid', 'Arial', 'Helvetica', 'Avant Garde', sans-serif; text-anchor: middle" x="569.429531" y="543.906563" transform="rotate(-0 569.429531 543.906563)">120</text>
     </g>
    </g>
    <g id="text_7">
     <text style="font: 12px 'DejaVu Sans', 'Bitstream Vera Sans', 'Computer Modern Sans Serif', 'Lucida Grande', 'Verdana', 'Geneva', 'Lucid', 'Arial', 'Helvetica', 'Avant Garde', sans-serif; text-anchor: middle" x="339.422344" y="559.104375" transform="rotate(-0 339.422344 559.104375)">Build Number</text>
    </g>
   </g>
   <g id="matplotlib.axis_2">
    <g id="ytick_1">
     <g id="line2d_13">
      <defs>
       <path id="ma17846e182" d="M 0 0 
L -2 0 
" style="stroke: #000000; stroke-width: 0.6"/>
      </defs>
      <g>
       <use xlink:href="#ma17846e182" x="64.41375" y="333.737412" style="stroke: #000000; stroke-width: 0.6"/>
      </g>
     </g>
     <g id="text_8">
      <!-- $\mathdefault{8\times10^{6}}$ -->
      <g transform="translate(22.81375 337.53663)">
       <text>
        <tspan style="font: 10px 'DejaVu Sans'" x="0 8.310547 18.637695 25" y="-0.9765625">8×10</tspan>
        <tspan style="font: 7px 'DejaVu Sans'" x="31.458008" y="-4.8046875">6</tspan>
       </text>
      </g>
     </g>
    </g>
    <g id="ytick_2">
     <g id="line2d_14">
      <g>
       <use xlink:href="#ma17846e182" x="64.41375" y="137.098665" style="stroke: #000000; stroke-width: 0.6"/>
      </g>
     </g>
     <g id="text_9">
      <!-- $\mathdefault{9\times10^{6}}$ -->
      <g transform="translate(22.81375 140.897884)">
       <text>
        <tspan style="font: 10px 'DejaVu Sans'" x="0 8.310547 18.637695 25" y="-0.9765625">9×10</tspan>
        <tspan style="font: 7px 'DejaVu Sans'" x="31.458008" y="-4.8046875">6</tspan>
       </text>
      </g>
     </g>
    </g>
    <g id="text_10">
     <text style="font: 12px 'DejaVu Sans', 'Bitstream Vera Sans', 'Computer Modern Sans Serif', 'Lucida Grande', 'Verdana', 'Geneva', 'Lucid', 'Arial', 'Helvetica', 'Avant Garde', sans-serif; text-anchor: middle" x="16.318125" y="276.572969" transform="rotate(-90 16.318125 276.572969)">Median Elapsed Time (nanoseconds)</text>
    </g>
   </g>
   <g id="line2d_15">
    <path d="M 89.414531 476.634094 
L 109.415156 386.779726 
L 149.416406 496.963171 
L 169.417031 409.150288 
L 189.417656 506.332202 
L 209.418281 486.137467 
L 229.418906 439.733401 
L 249.419531 499.114396 
L 269.420156 435.654115 
L 289.420781 457.556737 
L 329.422031 347.08786 
L 349.422656 340.22304 
L 369.423281 501.453742 
L 389.423906 462.506527 
L 409.424531 482.258764 
L 449.425781 493.47236 
L 469.426406 493.725444 
L 489.427031 499.723249 
L 509.427656 491.96187 
L 529.428281 489.188746 
L 549.428906 481.560617 
L 569.429531 471.802717 
L 589.430156 484.760401 
" clip-path="url(#pb95350a898)" style="fill: none; stroke: #1f77b4; stroke-width: 2; stroke-linecap: square"/>
    <defs>
     <path id="m8a2b7a3f6d" d="M 0 3 
C 0.795609 3 1.55874 2.683901 2.12132 2.12132 
C 2.683901 1.55874 3 0.795609 3 0 
C 3 -0.795609 2.683901 -1.55874 2.12132 -2.12132 
C 1.55874 -2.683901 0.795609 -3 0 -3 
C -0.795609 -3 -1.55874 -2.683901 -2.12132 -2.12132 
C -2.683901 -1.55874 -3 -0.795609 -3 0 
C -3 0.795609 -2.683901 1.55874 -2.12132 2.12132 
C -1.55874 2.683901 -0.795609 3 0 3 
z
" style="stroke: #1f77b4"/>
    </defs>
    <g clip-path="url(#pb95350a898)">
     <use xlink:href="#m8a2b7a3f6d" x="89.414531" y="476.634094" style="fill: #1f77b4; stroke: #1f77b4"/>
     <use xlink:href="#m8a2b7a3f6d" x="109.415156" y="386.779726" style="fill: #1f77b4; stroke: #1f77b4"/>
     <use xlink:href="#m8a2b7a3f6d" x="149.416406" y="496.963171" style="fill: #1f77b4; stroke: #1f77b4"/>
     <use xlink:href="#m8a2b7a3f6d" x="169.417031" y="409.150288" style="fill: #1f77b4; stroke: #1f77b4"/>
     <use xlink:href="#m8a2b7a3f6d" x="189.417656" y="506.332202" style="fill: #1f77b4; stroke: #1f77b4"/>
     <use xlink:href="#m8a2b7a3f6d" x="209.418281" y="486.137467" style="fill: #1f77b4; stroke: #1f77b4"/>
     <use xlink:href="#m8a2b7a3f6d" x="229.418906" y="439.733401" style="fill: #1f77b4; stroke: #1f77b4"/>
     <use xlink:href="#m8a2b7a3f6d" x="249.419531" y="499.114396" style="fill: #1f77b4; stroke: #1f77b4"/>
     <use xlink:href="#m8a2b7a3f6d" x="269.420156" y="435.654115" style="fill: #1f77b4; stroke: #1f77b4"/>
     <use xlink:href="#m8a2b7a3f6d" x="289.420781" y="457.556737" style="fill: #1f77b4; stroke: #1f77b4"/>
     <use xlink:href="#m8a2b7a3f6d" x="329.422031" y="347.08786" style="fill: #1f77b4; stroke: #1f77b4"/>
     <use xlink:href="#m8a2b7a3f6d" x="349.422656" y="340.22304" style="fill: #1f77b4; stroke: #1f77b4"/>
     <use xlink:href="#m8a2b7a3f6d" x="369.423281" y="501.453742" style="fill: #1f77b4; stroke: #1f77b4"/>
     <use xlink:href="#m8a2b7a3f6d" x="389.423906" y="462.506527" style="fill: #1f77b4; stroke: #1f77b4"/>
     <use xlink:href="#m8a2b7a3f6d" x="409.424531" y="482.258764" style="fill: #1f77b4; stroke: #1f77b4"/>
     <use xlink:href="#m8a2b7a3f6d" x="449.425781" y="493.47236" style="fill: #1f77b4; stroke: #1f77b4"/>
     <use xlink:href="#m8a2b7a3f6d" x="469.426406" y="493.725444" style="fill: #1f77b4; stroke: #1f77b4"/>
     <use xlink:href="#m8a2b7a3f6d" x="489.427031" y="499.723249" style="fill: #1f77b4; stroke: #1f77b4"/>
     <use xlink:href="#m8a2b7a3f6d" x="509.427656" y="491.96187" style="fill: #1f77b4; stroke: #1f77b4"/>
     <use xlink:href="#m8a2b7a3f6d" x="529.428281" y="489.188746" style="fill: #1f77b4; stroke: #1f77b4"/>
     <use xlink:href="#m8a2b7a3f6d" x="549.428906" y="481.560617" style="fill: #1f77b4; stroke: #1f77b4"/>
     <use xlink:href="#m8a2b7a3f6d" x="569.429531" y="471.802717" style="fill: #1f77b4; stroke: #1f77b4"/>
     <use xlink:href="#m8a2b7a3f6d" x="589.430156" y="484.760401" style="fill: #1f77b4; stroke: #1f77b4"/>
    </g>
   </g>
   <g id="line2d_16">
    <path d="M 89.414531 472.501647 
L 109.415156 388.591931 
L 149.416406 494.429708 
L 169.417031 434.986447 
L 189.417656 502.712102 
L 209.418281 492.002824 
L 229.418906 440.707473 
L 249.419531 487.513336 
L 269.420156 419.010409 
L 289.420781 472.401144 
L 329.422031 339.626617 
L 349.422656 357.873942 
L 369.423281 489.471947 
L 389.423906 422.560287 
L 409.424531 473.684671 
L 449.425781 500.712466 
L 469.426406 492.72872 
L 489.427031 501.258523 
L 509.427656 486.277145 
L 529.428281 489.419188 
L 549.428906 470.440952 
L 569.429531 462.441449 
L 589.430156 484.17413 
" clip-path="url(#pb95350a898)" style="fill: none; stroke: #ff7f0e; stroke-width: 2; stroke-linecap: square"/>
    <defs>
     <path id="m920484fc0b" d="M 0 3 
C 0.795609 3 1.55874 2.683901 2.12132 2.12132 
C 2.683901 1.55874 3 0.795609 3 0 
C 3 -0.795609 2.683901 -1.55874 2.12132 -2.12132 
C 1.55874 -2.683901 0.795609 -3 0 -3 
C -0.795609 -3 -1.55874 -2.683901 -2.12132 -2.12132 
C -2.683901 -1.55874 -3 -0.795609 -3 0 
C -3 0.795609 -2.683901 1.55874 -2.12132 2.12132 
C -1.55874 2.683901 -0.795609 3 0 3 
z
" style="stroke: #ff7f0e"/>
    </defs>
    <g clip-path="url(#pb95350a898)">
     <use xlink:href="#m920484fc0b" x="89.414531" y="472.501647" style="fill: #ff7f0e; stroke: #ff7f0e"/>
     <use xlink:href="#m920484fc0b" x="109.415156" y="388.591931" style="fill: #ff7f0e; stroke: #ff7f0e"/>
     <use xlink:href="#m920484fc0b" x="149.416406" y="494.429708" style="fill: #ff7f0e; stroke: #ff7f0e"/>
     <use xlink:href="#m920484fc0b" x="169.417031" y="434.986447" style="fill: #ff7f0e; stroke: #ff7f0e"/>
     <use xlink:href="#m920484fc0b" x="189.417656" y="502.712102" style="fill: #ff7f0e; stroke: #ff7f0e"/>
     <use xlink:href="#m920484fc0b" x="209.418281" y="492.002824" style="fill: #ff7f0e; stroke: #ff7f0e"/>
     <use xlink:href="#m920484fc0b" x="229.418906" y="440.707473" style="fill: #ff7f0e; stroke: #ff7f0e"/>
     <use xlink:href="#m920484fc0b" x="249.419531" y="487.513336" style="fill: #ff7f0e; stroke: #ff7f0e"/>
     <use xlink:href="#m920484fc0b" x="269.420156" y="419.010409" style="fill: #ff7f0e; stroke: #ff7f0e"/>
     <use xlink:href="#m920484fc0b" x="289.420781" y="472.401144" style="fill: #ff7f0e; stroke: #ff7f0e"/>
     <use xlink:href="#m920484fc0b" x="329.422031" y="339.626617" style="fill: #ff7f0e; stroke: #ff7f0e"/>
     <use xlink:href="#m920484fc0b" x="349.422656" y="357.873942" style="fill: #ff7f0e; stroke: #ff7f0e"/>
     <use xlink:href="#m920484fc0b" x="369.423281" y="489.471947" style="fill: #ff7f0e; stroke: #ff7f0e"/>
     <use xlink:href="#m920484fc0b" x="389.423906" y="422.560287" style="fill: #ff7f0e; stroke: #ff7f0e"/>
     <use xlink:href="#m920484fc0b" x="409.424531" y="473.684671" style="fill: #ff7f0e; stroke: #ff7f0e"/>
     <use xlink:href="#m920484fc0b" x="449.425781" y="500.712466" style="fill: #ff7f0e; stroke: #ff7f0e"/>
     <use xlink:href="#m920484fc0b" x="469.426406" y="492.72872" style="fill: #ff7f0e; stroke: #ff7f0e"/>
     <use xlink:href="#m920484fc0b" x="489.427031" y="501.258523" style="fill: #ff7f0e; stroke: #ff7f0e"/>
     <use xlink:href="#m920484fc0b" x="509.427656" y="486.277145" style="fill: #ff7f0e; stroke: #ff7f0e"/>
     <use xlink:href="#m920484fc0b" x="529.428281" y="489.419188" style="fill: #ff7f0e; stroke: #ff7f0e"/>
     <use xlink:href="#m920484fc0b" x="549.428906" y="470.440952" style="fill: #ff7f0e; stroke: #ff7f0e"/>
     <use xlink:href="#m920484fc0b" x="569.429531" y="462.441449" style="fill: #ff7f0e; stroke: #ff7f0e"/>
     <use xlink:href="#m920484fc0b" x="589.430156" y="484.17413" style="fill: #ff7f0e; stroke: #ff7f0e"/>
    </g>
   </g>
   <g id="line2d_17">
    <path d="M 89.414531 131.005199 
L 109.415156 196.432084 
L 149.416406 166.326694 
L 169.417031 92.893454 
L 189.417656 212.628547 
L 209.418281 174.400469 
L 229.418906 212.928609 
L 249.419531 206.93833 
L 269.420156 197.695081 
L 289.420781 204.049367 
L 329.422031 208.453299 
L 349.422656 215.842521 
L 369.423281 190.409664 
L 409.424531 203.225847 
L 469.426406 207.276799 
L 489.427031 174.452389 
L 509.427656 65.033399 
L 529.428281 209.896282 
L 549.428906 216.688612 
L 569.429531 183.762935 
L 589.430156 221.694329 
" clip-path="url(#pb95350a898)" style="fill: none; stroke: #2ca02c; stroke-width: 2; stroke-linecap: square"/>
    <defs>
     <path id="m31151d5f2a" d="M 0 3 
C 0.795609 3 1.55874 2.683901 2.12132 2.12132 
C 2.683901 1.55874 3 0.795609 3 0 
C 3 -0.795609 2.683901 -1.55874 2.12132 -2.12132 
C 1.55874 -2.683901 0.795609 -3 0 -3 
C -0.795609 -3 -1.55874 -2.683901 -2.12132 -2.12132 
C -2.683901 -1.55874 -3 -0.795609 -3 0 
C -3 0.795609 -2.683901 1.55874 -2.12132 2.12132 
C -1.55874 2.683901 -0.795609 3 0 3 
z
" style="stroke: #2ca02c"/>
    </defs>
    <g clip-path="url(#pb95350a898)">
     <use xlink:href="#m31151d5f2a" x="89.414531" y="131.005199" style="fill: #2ca02c; stroke: #2ca02c"/>
     <use xlink:href="#m31151d5f2a" x="109.415156" y="196.432084" style="fill: #2ca02c; stroke: #2ca02c"/>
     <use xlink:href="#m31151d5f2a" x="149.416406" y="166.326694" style="fill: #2ca02c; stroke: #2ca02c"/>
     <use xlink:href="#m31151d5f2a" x="169.417031" y="92.893454" style="fill: #2ca02c; stroke: #2ca02c"/>
     <use xlink:href="#m31151d5f2a" x="189.417656" y="212.628547" style="fill: #2ca02c; stroke: #2ca02c"/>
     <use xlink:href="#m31151d5f2a" x="209.418281" y="174.400469" style="fill: #2ca02c; stroke: #2ca02c"/>
     <use xlink:href="#m31151d5f2a" x="229.418906" y="212.928609" style="fill: #2ca02c; stroke: #2ca02c"/>
     <use xlink:href="#m31151d5f2a" x="249.419531" y="206.93833" style="fill: #2ca02c; stroke: #2ca02c"/>
     <use xlink:href="#m31151d5f2a" x="269.420156" y="197.695081" style="fill: #2ca02c; stroke: #2ca02c"/>
     <use xlink:href="#m31151d5f2a" x="289.420781" y="204.049367" style="fill: #2ca02c; stroke: #2ca02c"/>
     <use xlink:href="#m31151d5f2a" x="329.422031" y="208.453299" style="fill: #2ca02c; stroke: #2ca02c"/>
     <use xlink:href="#m31151d5f2a" x="349.422656" y="215.842521" style="fill: #2ca02c; stroke: #2ca02c"/>
     <use xlink:href="#m31151d5f2a" x="369.423281" y="190.409664" style="fill: #2ca02c; stroke: #2ca02c"/>
     <use xlink:href="#m31151d5f2a" x="409.424531" y="203.225847" style="fill: #2ca02c; stroke: #2ca02c"/>
     <use xlink:href="#m31151d5f2a" x="469.426406" y="207.276799" style="fill: #2ca02c; stroke: #2ca02c"/>
     <use xlink:href="#m31151d5f2a" x="489.427031" y="174.452389" style="fill: #2ca02c; stroke: #2ca02c"/>
     <use xlink:href="#m31151d5f2a" x="509.427656" y="65.033399" style="fill: #2ca02c; stroke: #2ca02c"/>
     <use xlink:href="#m31151d5f2a" x="529.428281" y="209.896282" style="fill: #2ca02c; stroke: #2ca02c"/>
     <use xlink:href="#m31151d5f2a" x="549.428906" y="216.688612" style="fill: #2ca02c; stroke: #2ca02c"/>
     <use xlink:href="#m31151d5f2a" x="569.429531" y="183.762935" style="fill: #2ca02c; stroke: #2ca02c"/>
     <use xlink:href="#m31151d5f2a" x="589.430156" y="221.694329" style="fill: #2ca02c; stroke: #2ca02c"/>
    </g>
   </g>
   <g id="line2d_18">
    <path d="M 89.414531 138.903015 
L 109.415156 207.704467 
L 149.416406 213.0565 
L 169.417031 99.385333 
L 189.417656 229.286969 
L 209.418281 177.660269 
L 229.418906 209.017139 
L 249.419531 222.105895 
L 269.420156 219.163212 
L 289.420781 229.920466 
L 329.422031 234.722934 
L 349.422656 224.225811 
L 369.423281 209.024711 
L 409.424531 221.0278 
L 469.426406 225.518722 
L 489.427031 200.325609 
L 509.427656 46.813736 
L 529.428281 222.589763 
L 549.428906 184.159759 
L 569.429531 205.130229 
L 589.430156 238.203517 
" clip-path="url(#pb95350a898)" style="fill: none; stroke: #d62728; stroke-width: 2; stroke-linecap: square"/>
    <defs>
     <path id="m8f75a904ef" d="M 0 3 
C 0.795609 3 1.55874 2.683901 2.12132 2.12132 
C 2.683901 1.55874 3 0.795609 3 0 
C 3 -0.795609 2.683901 -1.55874 2.12132 -2.12132 
C 1.55874 -2.683901 0.795609 -3 0 -3 
C -0.795609 -3 -1.55874 -2.683901 -2.12132 -2.12132 
C -2.683901 -1.55874 -3 -0.795609 -3 0 
C -3 0.795609 -2.683901 1.55874 -2.12132 2.12132 
C -1.55874 2.683901 -0.795609 3 0 3 
z
" style="stroke: #d62728"/>
    </defs>
    <g clip-path="url(#pb95350a898)">
     <use xlink:href="#m8f75a904ef" x="89.414531" y="138.903015" style="fill: #d62728; stroke: #d62728"/>
     <use xlink:href="#m8f75a904ef" x="109.415156" y="207.704467" style="fill: #d62728; stroke: #d62728"/>
     <use xlink:href="#m8f75a904ef" x="149.416406" y="213.0565" style="fill: #d62728; stroke: #d62728"/>
     <use xlink:href="#m8f75a904ef" x="169.417031" y="99.385333" style="fill: #d62728; stroke: #d62728"/>
     <use xlink:href="#m8f75a904ef" x="189.417656" y="229.286969" style="fill: #d62728; stroke: #d62728"/>
     <use xlink:href="#m8f75a904ef" x="209.418281" y="177.660269" style="fill: #d62728; stroke: #d62728"/>
     <use xlink:href="#m8f75a904ef" x="229.418906" y="209.017139" style="fill: #d62728; stroke: #d62728"/>
     <use xlink:href="#m8f75a904ef" x="249.419531" y="222.105895" style="fill: #d62728; stroke: #d62728"/>
     <use xlink:href="#m8f75a904ef" x="269.420156" y="219.163212" style="fill: #d62728; stroke: #d62728"/>
     <use xlink:href="#m8f75a904ef" x="289.420781" y="229.920466" style="fill: #d62728; stroke: #d62728"/>
     <use xlink:href="#m8f75a904ef" x="329.422031" y="234.722934" style="fill: #d62728; stroke: #d62728"/>
     <use xlink:href="#m8f75a904ef" x="349.422656" y="224.225811" style="fill: #d62728; stroke: #d62728"/>
     <use xlink:href="#m8f75a904ef" x="369.423281" y="209.024711" style="fill: #d62728; stroke: #d62728"/>
     <use xlink:href="#m8f75a904ef" x="409.424531" y="221.0278" style="fill: #d62728; stroke: #d62728"/>
     <use xlink:href="#m8f75a904ef" x="469.426406" y="225.518722" style="fill: #d62728; stroke: #d62728"/>
     <use xlink:href="#m8f75a904ef" x="489.427031" y="200.325609" style="fill: #d62728; stroke: #d62728"/>
     <use xlink:href="#m8f75a904ef" x="509.427656" y="46.813736" style="fill: #d62728; stroke: #d62728"/>
     <use xlink:href="#m8f75a904ef" x="529.428281" y="222.589763" style="fill: #d62728; stroke: #d62728"/>
     <use xlink:href="#m8f75a904ef" x="549.428906" y="184.159759" style="fill: #d62728; stroke: #d62728"/>
     <use xlink:href="#m8f75a904ef" x="569.429531" y="205.130229" style="fill: #d62728; stroke: #d62728"/>
     <use xlink:href="#m8f75a904ef" x="589.430156" y="238.203517" style="fill: #d62728; stroke: #d62728"/>
    </g>
   </g>
   <g id="patch_3">
    <path d="M 64.41375 529.308125 
L 64.41375 23.837813 
" style="fill: none; stroke: #000000; stroke-width: 0.8; stroke-linejoin: miter; stroke-linecap: square"/>
   </g>
   <g id="patch_4">
    <path d="M 614.430938 529.308125 
L 614.430938 23.837813 
" style="fill: none; stroke: #000000; stroke-width: 0.8; stroke-linejoin: miter; stroke-linecap: square"/>
   </g>
   <g id="patch_5">
    <path d="M 64.41375 529.308125 
L 614.430937 529.308125 
" style="fill: none; stroke: #000000; stroke-width: 0.8; stroke-linejoin: miter; stroke-linecap: square"/>
   </g>
   <g id="patch_6">
    <path d="M 64.41375 23.837812 
L 614.430937 23.837812 
" style="fill: none; stroke: #000000; stroke-width: 0.8; stroke-linejoin: miter; stroke-linecap: square"/>
   </g>
   <g id="text_11">
    <text style="font: 700 14px 'DejaVu Sans', 'Bitstream Vera Sans', 'Computer Modern Sans Serif', 'Lucida Grande', 'Verdana', 'Geneva', 'Lucid', 'Arial', 'Helvetica', 'Avant Garde', sans-serif; text-anchor: middle" x="339.422344" y="17.837813" transform="rotate(-0 339.422344 17.837813)">Coroutine Memory - Performance Trend</text>
   </g>
   <g id="legend_1">
    <g id="patch_7">
     <path d="M 648.931797 91.662813 
L 841.620859 91.662813 
Q 843.620859 91.662813 843.620859 89.662813 
L 843.620859 30.837813 
Q 843.620859 28.837813 841.620859 28.837813 
L 648.931797 28.837813 
Q 646.931797 28.837813 646.931797 30.837813 
L 646.931797 89.662813 
Q 646.931797 91.662813 648.931797 91.662813 
z
" style="fill: #ffffff; opacity: 0.8; stroke: #cccccc; stroke-linejoin: miter"/>
    </g>
    <g id="line2d_19">
     <path d="M 650.931797 36.93625 
L 660.931797 36.93625 
L 670.931797 36.93625 
" style="fill: none; stroke: #1f77b4; stroke-width: 2; stroke-linecap: square"/>
     <g>
      <use xlink:href="#m8a2b7a3f6d" x="660.931797" y="36.93625" style="fill: #1f77b4; stroke: #1f77b4"/>
     </g>
    </g>
    <g id="text_12">
     <text style="font: 10px 'DejaVu Sans', 'Bitstream Vera Sans', 'Computer Modern Sans Serif', 'Lucida Grande', 'Verdana', 'Geneva', 'Lucid', 'Arial', 'Helvetica', 'Avant Garde', sans-serif; text-anchor: start" x="678.931797" y="40.43625" transform="rotate(-0 678.931797 40.43625)">gcc-14.2 - CoroutineMemory_V1</text>
    </g>
    <g id="line2d_20">
     <path d="M 650.931797 51.8925 
L 660.931797 51.8925 
L 670.931797 51.8925 
" style="fill: none; stroke: #ff7f0e; stroke-width: 2; stroke-linecap: square"/>
     <g>
      <use xlink:href="#m920484fc0b" x="660.931797" y="51.8925" style="fill: #ff7f0e; stroke: #ff7f0e"/>
     </g>
    </g>
    <g id="text_13">
     <text style="font: 10px 'DejaVu Sans', 'Bitstream Vera Sans', 'Computer Modern Sans Serif', 'Lucida Grande', 'Verdana', 'Geneva', 'Lucid', 'Arial', 'Helvetica', 'Avant Garde', sans-serif; text-anchor: start" x="678.931797" y="55.3925" transform="rotate(-0 678.931797 55.3925)">gcc-14.2 - CoroutineMemory_V2</text>
    </g>
    <g id="line2d_21">
     <path d="M 650.931797 66.84875 
L 660.931797 66.84875 
L 670.931797 66.84875 
" style="fill: none; stroke: #2ca02c; stroke-width: 2; stroke-linecap: square"/>
     <g>
      <use xlink:href="#m31151d5f2a" x="660.931797" y="66.84875" style="fill: #2ca02c; stroke: #2ca02c"/>
     </g>
    </g>
    <g id="text_14">
     <text style="font: 10px 'DejaVu Sans', 'Bitstream Vera Sans', 'Computer Modern Sans Serif', 'Lucida Grande', 'Verdana', 'Geneva', 'Lucid', 'Arial', 'Helvetica', 'Avant Garde', sans-serif; text-anchor: start" x="678.931797" y="70.34875" transform="rotate(-0 678.931797 70.34875)">gcc-4.2 - CoroutineMemory_V1</text>
    </g>
    <g id="line2d_22">
     <path d="M 650.931797 81.805 
L 660.931797 81.805 
L 670.931797 81.805 
" style="fill: none; stroke: #d62728; stroke-width: 2; stroke-linecap: square"/>
     <g>
      <use xlink:href="#m8f75a904ef" x="660.931797" y="81.805" style="fill: #d62728; stroke: #d62728"/>
     </g>
    </g>
    <g id="text_15">
     <text style="font: 10px 'DejaVu Sans', 'Bitstream Vera Sans', 'Computer Modern Sans Serif', 'Lucida Grande', 'Verdana', 'Geneva', 'Lucid', 'Arial', 'Helvetica', 'Avant Garde', sans-serif; text-anchor: start" x="678.931797" y="85.305" transform="rotate(-0 678.931797 85.305)">gcc-4.2 - CoroutineMemory_V2</text>
    </g>
   </g>
  </g>
 </g>
 <defs>
  <clipPath id="pb95350a898">
   <rect x="64.41375" y="23.837813" width="550.017187" height="505.470313"/>
  </clipPath>
 </defs>
</svg>
