<?xml version="1.0" encoding="utf-8" standalone="no"?>
<!DOCTYPE svg PUBLIC "-//W3C//DTD SVG 1.1//EN"
  "http://www.w3.org/Graphics/SVG/1.1/DTD/svg11.dtd">
<svg xmlns:xlink="http://www.w3.org/1999/xlink" width="855.204687pt" height="568.8pt" viewBox="0 0 855.204687 568.8" xmlns="http://www.w3.org/2000/svg" version="1.1">
 <metadata>
  <rdf:RDF xmlns:dc="http://purl.org/dc/elements/1.1/" xmlns:cc="http://creativecommons.org/ns#" xmlns:rdf="http://www.w3.org/1999/02/22-rdf-syntax-ns#">
   <cc:Work>
    <dc:type rdf:resource="http://purl.org/dc/dcmitype/StillImage"/>
    <dc:date>2025-08-17T13:04:18.190493</dc:date>
    <dc:format>image/svg+xml</dc:format>
    <dc:creator>
     <cc:Agent>
      <dc:title>Matplotlib v3.9.4, https://matplotlib.org/</dc:title>
     </cc:Agent>
    </dc:creator>
   </cc:Work>
  </rdf:RDF>
 </metadata>
 <defs>
  <style type="text/css">*{stroke-linejoin: round; stroke-linecap: butt}</style>
 </defs>
 <g id="figure_1">
  <g id="patch_1">
   <path d="M 0 568.8 
L 855.204687 568.8 
L 855.204687 0 
L 0 0 
z
" style="fill: #ffffff"/>
  </g>
  <g id="axes_1">
   <g id="patch_2">
    <path d="M 64.41375 529.308125 
L 702.1075 529.308125 
L 702.1075 23.837812 
L 64.41375 23.837812 
z
" style="fill: #ffffff"/>
   </g>
   <g id="matplotlib.axis_1">
    <g id="xtick_1">
     <g id="line2d_1">
      <path d="M 69.244763 529.308125 
L 69.244763 23.837812 
" clip-path="url(#p50cc770e81)" style="fill: none; stroke: #b0b0b0; stroke-opacity: 0.3; stroke-width: 0.8; stroke-linecap: square"/>
     </g>
     <g id="line2d_2">
      <defs>
       <path id="m855ca4dced" d="M 0 0 
L 0 3.5 
" style="stroke: #000000; stroke-width: 0.8"/>
      </defs>
      <g>
       <use xlink:href="#m855ca4dced" x="69.244763" y="529.308125" style="stroke: #000000; stroke-width: 0.8"/>
      </g>
     </g>
     <g id="text_1">
      <text style="font: 10px 'DejaVu Sans', 'Bitstream Vera Sans', 'Computer Modern Sans Serif', 'Lucida Grande', 'Verdana', 'Geneva', 'Lucid', 'Arial', 'Helvetica', 'Avant Garde', sans-serif; text-anchor: middle" x="69.244763" y="543.906563" transform="rotate(-0 69.244763 543.906563)">70</text>
     </g>
    </g>
    <g id="xtick_2">
     <g id="line2d_3">
      <path d="M 190.020095 529.308125 
L 190.020095 23.837812 
" clip-path="url(#p50cc770e81)" style="fill: none; stroke: #b0b0b0; stroke-opacity: 0.3; stroke-width: 0.8; stroke-linecap: square"/>
     </g>
     <g id="line2d_4">
      <g>
       <use xlink:href="#m855ca4dced" x="190.020095" y="529.308125" style="stroke: #000000; stroke-width: 0.8"/>
      </g>
     </g>
     <g id="text_2">
      <text style="font: 10px 'DejaVu Sans', 'Bitstream Vera Sans', 'Computer Modern Sans Serif', 'Lucida Grande', 'Verdana', 'Geneva', 'Lucid', 'Arial', 'Helvetica', 'Avant Garde', sans-serif; text-anchor: middle" x="190.020095" y="543.906563" transform="rotate(-0 190.020095 543.906563)">75</text>
     </g>
    </g>
    <g id="xtick_3">
     <g id="line2d_5">
      <path d="M 310.795426 529.308125 
L 310.795426 23.837812 
" clip-path="url(#p50cc770e81)" style="fill: none; stroke: #b0b0b0; stroke-opacity: 0.3; stroke-width: 0.8; stroke-linecap: square"/>
     </g>
     <g id="line2d_6">
      <g>
       <use xlink:href="#m855ca4dced" x="310.795426" y="529.308125" style="stroke: #000000; stroke-width: 0.8"/>
      </g>
     </g>
     <g id="text_3">
      <text style="font: 10px 'DejaVu Sans', 'Bitstream Vera Sans', 'Computer Modern Sans Serif', 'Lucida Grande', 'Verdana', 'Geneva', 'Lucid', 'Arial', 'Helvetica', 'Avant Garde', sans-serif; text-anchor: middle" x="310.795426" y="543.906563" transform="rotate(-0 310.795426 543.906563)">80</text>
     </g>
    </g>
    <g id="xtick_4">
     <g id="line2d_7">
      <path d="M 431.570758 529.308125 
L 431.570758 23.837812 
" clip-path="url(#p50cc770e81)" style="fill: none; stroke: #b0b0b0; stroke-opacity: 0.3; stroke-width: 0.8; stroke-linecap: square"/>
     </g>
     <g id="line2d_8">
      <g>
       <use xlink:href="#m855ca4dced" x="431.570758" y="529.308125" style="stroke: #000000; stroke-width: 0.8"/>
      </g>
     </g>
     <g id="text_4">
      <text style="font: 10px 'DejaVu Sans', 'Bitstream Vera Sans', 'Computer Modern Sans Serif', 'Lucida Grande', 'Verdana', 'Geneva', 'Lucid', 'Arial', 'Helvetica', 'Avant Garde', sans-serif; text-anchor: middle" x="431.570758" y="543.906563" transform="rotate(-0 431.570758 543.906563)">85</text>
     </g>
    </g>
    <g id="xtick_5">
     <g id="line2d_9">
      <path d="M 552.346089 529.308125 
L 552.346089 23.837812 
" clip-path="url(#p50cc770e81)" style="fill: none; stroke: #b0b0b0; stroke-opacity: 0.3; stroke-width: 0.8; stroke-linecap: square"/>
     </g>
     <g id="line2d_10">
      <g>
       <use xlink:href="#m855ca4dced" x="552.346089" y="529.308125" style="stroke: #000000; stroke-width: 0.8"/>
      </g>
     </g>
     <g id="text_5">
      <text style="font: 10px 'DejaVu Sans', 'Bitstream Vera Sans', 'Computer Modern Sans Serif', 'Lucida Grande', 'Verdana', 'Geneva', 'Lucid', 'Arial', 'Helvetica', 'Avant Garde', sans-serif; text-anchor: middle" x="552.346089" y="543.906563" transform="rotate(-0 552.346089 543.906563)">90</text>
     </g>
    </g>
    <g id="xtick_6">
     <g id="line2d_11">
      <path d="M 673.12142 529.308125 
L 673.12142 23.837812 
" clip-path="url(#p50cc770e81)" style="fill: none; stroke: #b0b0b0; stroke-opacity: 0.3; stroke-width: 0.8; stroke-linecap: square"/>
     </g>
     <g id="line2d_12">
      <g>
       <use xlink:href="#m855ca4dced" x="673.12142" y="529.308125" style="stroke: #000000; stroke-width: 0.8"/>
      </g>
     </g>
     <g id="text_6">
      <text style="font: 10px 'DejaVu Sans', 'Bitstream Vera Sans', 'Computer Modern Sans Serif', 'Lucida Grande', 'Verdana', 'Geneva', 'Lucid', 'Arial', 'Helvetica', 'Avant Garde', sans-serif; text-anchor: middle" x="673.12142" y="543.906563" transform="rotate(-0 673.12142 543.906563)">95</text>
     </g>
    </g>
    <g id="text_7">
     <text style="font: 12px 'DejaVu Sans', 'Bitstream Vera Sans', 'Computer Modern Sans Serif', 'Lucida Grande', 'Verdana', 'Geneva', 'Lucid', 'Arial', 'Helvetica', 'Avant Garde', sans-serif; text-anchor: middle" x="383.260625" y="559.104375" transform="rotate(-0 383.260625 559.104375)">Build Number</text>
    </g>
   </g>
   <g id="matplotlib.axis_2">
    <g id="ytick_1">
     <g id="line2d_13">
      <path d="M 64.41375 453.786204 
L 702.1075 453.786204 
" clip-path="url(#p50cc770e81)" style="fill: none; stroke: #b0b0b0; stroke-opacity: 0.3; stroke-width: 0.8; stroke-linecap: square"/>
     </g>
     <g id="line2d_14">
      <defs>
       <path id="m441a7e89a0" d="M 0 0 
L -3.5 0 
" style="stroke: #000000; stroke-width: 0.8"/>
      </defs>
      <g>
       <use xlink:href="#m441a7e89a0" x="64.41375" y="453.786204" style="stroke: #000000; stroke-width: 0.8"/>
      </g>
     </g>
     <g id="text_8">
      <!-- $\mathdefault{10^{5}}$ -->
      <g transform="translate(39.81375 457.585423)">
       <text>
        <tspan style="font: 10px 'DejaVu Sans'" x="0 6.362305" y="-0.06406250000000036">10</tspan>
        <tspan style="font: 7px 'DejaVu Sans'" x="12.820312" y="-3.8921875000000004">5</tspan>
       </text>
      </g>
     </g>
    </g>
    <g id="ytick_2">
     <g id="line2d_15">
      <defs>
       <path id="ma16b24d3c3" d="M 0 0 
L -2 0 
" style="stroke: #000000; stroke-width: 0.6"/>
      </defs>
      <g>
       <use xlink:href="#ma16b24d3c3" x="64.41375" y="496.873642" style="stroke: #000000; stroke-width: 0.6"/>
      </g>
     </g>
    </g>
    <g id="ytick_3">
     <g id="line2d_16">
      <g>
       <use xlink:href="#ma16b24d3c3" x="64.41375" y="170.321985" style="stroke: #000000; stroke-width: 0.6"/>
      </g>
     </g>
     <g id="text_9">
      <!-- $\mathdefault{2\times10^{5}}$ -->
      <g transform="translate(22.81375 174.121204)">
       <text>
        <tspan style="font: 10px 'DejaVu Sans'" x="0 8.310547 18.637695 25" y="-0.06406250000000036">2×10</tspan>
        <tspan style="font: 7px 'DejaVu Sans'" x="31.458008" y="-3.8921875000000004">5</tspan>
       </text>
      </g>
     </g>
    </g>
    <g id="text_10">
     <text style="font: 12px 'DejaVu Sans', 'Bitstream Vera Sans', 'Computer Modern Sans Serif', 'Lucida Grande', 'Verdana', 'Geneva', 'Lucid', 'Arial', 'Helvetica', 'Avant Garde', sans-serif; text-anchor: middle" x="16.318125" y="276.572969" transform="rotate(-90 16.318125 276.572969)">Median Elapsed Time (nanoseconds)</text>
    </g>
   </g>
   <g id="line2d_17">
    <path d="M 93.39983 358.594402 
L 117.554896 83.393181 
L 141.709962 220.76105 
L 165.865028 331.184044 
L 190.020095 228.639233 
L 214.175161 318.546856 
L 238.330227 271.249317 
L 262.485294 112.928166 
L 286.64036 300.433378 
L 310.795426 288.178339 
L 334.950492 314.544957 
L 359.105559 271.473142 
L 383.260625 355.083876 
L 407.415691 289.902078 
L 431.570758 324.935545 
L 455.725824 310.91823 
L 504.035956 46.813736 
L 528.191023 298.535776 
L 552.346089 272.004793 
L 576.501155 264.733822 
L 600.656222 300.821441 
L 624.811288 315.773402 
L 648.966354 320.378392 
L 673.12142 300.841979 
" clip-path="url(#p50cc770e81)" style="fill: none; stroke: #1f77b4; stroke-width: 2; stroke-linecap: square"/>
    <defs>
     <path id="mfac55545ec" d="M 0 3 
C 0.795609 3 1.55874 2.683901 2.12132 2.12132 
C 2.683901 1.55874 3 0.795609 3 0 
C 3 -0.795609 2.683901 -1.55874 2.12132 -2.12132 
C 1.55874 -2.683901 0.795609 -3 0 -3 
C -0.795609 -3 -1.55874 -2.683901 -2.12132 -2.12132 
C -2.683901 -1.55874 -3 -0.795609 -3 0 
C -3 0.795609 -2.683901 1.55874 -2.12132 2.12132 
C -1.55874 2.683901 -0.795609 3 0 3 
z
" style="stroke: #1f77b4"/>
    </defs>
    <g clip-path="url(#p50cc770e81)">
     <use xlink:href="#mfac55545ec" x="93.39983" y="358.594402" style="fill: #1f77b4; stroke: #1f77b4"/>
     <use xlink:href="#mfac55545ec" x="117.554896" y="83.393181" style="fill: #1f77b4; stroke: #1f77b4"/>
     <use xlink:href="#mfac55545ec" x="141.709962" y="220.76105" style="fill: #1f77b4; stroke: #1f77b4"/>
     <use xlink:href="#mfac55545ec" x="165.865028" y="331.184044" style="fill: #1f77b4; stroke: #1f77b4"/>
     <use xlink:href="#mfac55545ec" x="190.020095" y="228.639233" style="fill: #1f77b4; stroke: #1f77b4"/>
     <use xlink:href="#mfac55545ec" x="214.175161" y="318.546856" style="fill: #1f77b4; stroke: #1f77b4"/>
     <use xlink:href="#mfac55545ec" x="238.330227" y="271.249317" style="fill: #1f77b4; stroke: #1f77b4"/>
     <use xlink:href="#mfac55545ec" x="262.485294" y="112.928166" style="fill: #1f77b4; stroke: #1f77b4"/>
     <use xlink:href="#mfac55545ec" x="286.64036" y="300.433378" style="fill: #1f77b4; stroke: #1f77b4"/>
     <use xlink:href="#mfac55545ec" x="310.795426" y="288.178339" style="fill: #1f77b4; stroke: #1f77b4"/>
     <use xlink:href="#mfac55545ec" x="334.950492" y="314.544957" style="fill: #1f77b4; stroke: #1f77b4"/>
     <use xlink:href="#mfac55545ec" x="359.105559" y="271.473142" style="fill: #1f77b4; stroke: #1f77b4"/>
     <use xlink:href="#mfac55545ec" x="383.260625" y="355.083876" style="fill: #1f77b4; stroke: #1f77b4"/>
     <use xlink:href="#mfac55545ec" x="407.415691" y="289.902078" style="fill: #1f77b4; stroke: #1f77b4"/>
     <use xlink:href="#mfac55545ec" x="431.570758" y="324.935545" style="fill: #1f77b4; stroke: #1f77b4"/>
     <use xlink:href="#mfac55545ec" x="455.725824" y="310.91823" style="fill: #1f77b4; stroke: #1f77b4"/>
     <use xlink:href="#mfac55545ec" x="504.035956" y="46.813736" style="fill: #1f77b4; stroke: #1f77b4"/>
     <use xlink:href="#mfac55545ec" x="528.191023" y="298.535776" style="fill: #1f77b4; stroke: #1f77b4"/>
     <use xlink:href="#mfac55545ec" x="552.346089" y="272.004793" style="fill: #1f77b4; stroke: #1f77b4"/>
     <use xlink:href="#mfac55545ec" x="576.501155" y="264.733822" style="fill: #1f77b4; stroke: #1f77b4"/>
     <use xlink:href="#mfac55545ec" x="600.656222" y="300.821441" style="fill: #1f77b4; stroke: #1f77b4"/>
     <use xlink:href="#mfac55545ec" x="624.811288" y="315.773402" style="fill: #1f77b4; stroke: #1f77b4"/>
     <use xlink:href="#mfac55545ec" x="648.966354" y="320.378392" style="fill: #1f77b4; stroke: #1f77b4"/>
     <use xlink:href="#mfac55545ec" x="673.12142" y="300.841979" style="fill: #1f77b4; stroke: #1f77b4"/>
    </g>
   </g>
   <g id="line2d_18">
    <path d="M 93.39983 392.679679 
L 117.554896 386.936497 
L 141.709962 398.248244 
L 165.865028 385.343502 
L 190.020095 339.569664 
L 214.175161 404.385915 
L 238.330227 381.678582 
L 262.485294 408.819049 
L 286.64036 396.668627 
L 310.795426 335.900085 
L 334.950492 374.883943 
L 359.105559 381.8178 
L 383.260625 372.43382 
L 407.415691 408.554433 
L 431.570758 391.855324 
L 455.725824 368.569402 
L 504.035956 391.970803 
L 528.191023 383.410177 
L 552.346089 355.940819 
L 576.501155 365.503518 
L 600.656222 346.510892 
L 624.811288 416.125962 
L 648.966354 357.092056 
L 673.12142 354.857344 
" clip-path="url(#p50cc770e81)" style="fill: none; stroke: #ff7f0e; stroke-width: 2; stroke-linecap: square"/>
    <defs>
     <path id="mec0c7c0d2f" d="M 0 3 
C 0.795609 3 1.55874 2.683901 2.12132 2.12132 
C 2.683901 1.55874 3 0.795609 3 0 
C 3 -0.795609 2.683901 -1.55874 2.12132 -2.12132 
C 1.55874 -2.683901 0.795609 -3 0 -3 
C -0.795609 -3 -1.55874 -2.683901 -2.12132 -2.12132 
C -2.683901 -1.55874 -3 -0.795609 -3 0 
C -3 0.795609 -2.683901 1.55874 -2.12132 2.12132 
C -1.55874 2.683901 -0.795609 3 0 3 
z
" style="stroke: #ff7f0e"/>
    </defs>
    <g clip-path="url(#p50cc770e81)">
     <use xlink:href="#mec0c7c0d2f" x="93.39983" y="392.679679" style="fill: #ff7f0e; stroke: #ff7f0e"/>
     <use xlink:href="#mec0c7c0d2f" x="117.554896" y="386.936497" style="fill: #ff7f0e; stroke: #ff7f0e"/>
     <use xlink:href="#mec0c7c0d2f" x="141.709962" y="398.248244" style="fill: #ff7f0e; stroke: #ff7f0e"/>
     <use xlink:href="#mec0c7c0d2f" x="165.865028" y="385.343502" style="fill: #ff7f0e; stroke: #ff7f0e"/>
     <use xlink:href="#mec0c7c0d2f" x="190.020095" y="339.569664" style="fill: #ff7f0e; stroke: #ff7f0e"/>
     <use xlink:href="#mec0c7c0d2f" x="214.175161" y="404.385915" style="fill: #ff7f0e; stroke: #ff7f0e"/>
     <use xlink:href="#mec0c7c0d2f" x="238.330227" y="381.678582" style="fill: #ff7f0e; stroke: #ff7f0e"/>
     <use xlink:href="#mec0c7c0d2f" x="262.485294" y="408.819049" style="fill: #ff7f0e; stroke: #ff7f0e"/>
     <use xlink:href="#mec0c7c0d2f" x="286.64036" y="396.668627" style="fill: #ff7f0e; stroke: #ff7f0e"/>
     <use xlink:href="#mec0c7c0d2f" x="310.795426" y="335.900085" style="fill: #ff7f0e; stroke: #ff7f0e"/>
     <use xlink:href="#mec0c7c0d2f" x="334.950492" y="374.883943" style="fill: #ff7f0e; stroke: #ff7f0e"/>
     <use xlink:href="#mec0c7c0d2f" x="359.105559" y="381.8178" style="fill: #ff7f0e; stroke: #ff7f0e"/>
     <use xlink:href="#mec0c7c0d2f" x="383.260625" y="372.43382" style="fill: #ff7f0e; stroke: #ff7f0e"/>
     <use xlink:href="#mec0c7c0d2f" x="407.415691" y="408.554433" style="fill: #ff7f0e; stroke: #ff7f0e"/>
     <use xlink:href="#mec0c7c0d2f" x="431.570758" y="391.855324" style="fill: #ff7f0e; stroke: #ff7f0e"/>
     <use xlink:href="#mec0c7c0d2f" x="455.725824" y="368.569402" style="fill: #ff7f0e; stroke: #ff7f0e"/>
     <use xlink:href="#mec0c7c0d2f" x="504.035956" y="391.970803" style="fill: #ff7f0e; stroke: #ff7f0e"/>
     <use xlink:href="#mec0c7c0d2f" x="528.191023" y="383.410177" style="fill: #ff7f0e; stroke: #ff7f0e"/>
     <use xlink:href="#mec0c7c0d2f" x="552.346089" y="355.940819" style="fill: #ff7f0e; stroke: #ff7f0e"/>
     <use xlink:href="#mec0c7c0d2f" x="576.501155" y="365.503518" style="fill: #ff7f0e; stroke: #ff7f0e"/>
     <use xlink:href="#mec0c7c0d2f" x="600.656222" y="346.510892" style="fill: #ff7f0e; stroke: #ff7f0e"/>
     <use xlink:href="#mec0c7c0d2f" x="624.811288" y="416.125962" style="fill: #ff7f0e; stroke: #ff7f0e"/>
     <use xlink:href="#mec0c7c0d2f" x="648.966354" y="357.092056" style="fill: #ff7f0e; stroke: #ff7f0e"/>
     <use xlink:href="#mec0c7c0d2f" x="673.12142" y="354.857344" style="fill: #ff7f0e; stroke: #ff7f0e"/>
    </g>
   </g>
   <g id="line2d_19">
    <path d="M 93.39983 253.741696 
L 117.554896 131.132428 
L 141.709962 96.482045 
L 165.865028 81.256547 
L 190.020095 240.152215 
L 214.175161 77.046755 
L 238.330227 132.700907 
L 262.485294 86.931594 
L 286.64036 212.878131 
L 310.795426 259.677316 
L 334.950492 75.515958 
L 359.105559 128.781141 
L 383.260625 197.396234 
L 407.415691 112.022002 
L 431.570758 278.006773 
L 455.725824 84.085137 
L 504.035956 101.398895 
L 528.191023 202.032381 
L 552.346089 119.799375 
L 576.501155 215.475984 
L 600.656222 242.654232 
L 624.811288 83.347224 
L 648.966354 247.574723 
L 673.12142 84.118424 
" clip-path="url(#p50cc770e81)" style="fill: none; stroke: #2ca02c; stroke-width: 2; stroke-linecap: square"/>
    <defs>
     <path id="mc00dd4ba40" d="M 0 3 
C 0.795609 3 1.55874 2.683901 2.12132 2.12132 
C 2.683901 1.55874 3 0.795609 3 0 
C 3 -0.795609 2.683901 -1.55874 2.12132 -2.12132 
C 1.55874 -2.683901 0.795609 -3 0 -3 
C -0.795609 -3 -1.55874 -2.683901 -2.12132 -2.12132 
C -2.683901 -1.55874 -3 -0.795609 -3 0 
C -3 0.795609 -2.683901 1.55874 -2.12132 2.12132 
C -1.55874 2.683901 -0.795609 3 0 3 
z
" style="stroke: #2ca02c"/>
    </defs>
    <g clip-path="url(#p50cc770e81)">
     <use xlink:href="#mc00dd4ba40" x="93.39983" y="253.741696" style="fill: #2ca02c; stroke: #2ca02c"/>
     <use xlink:href="#mc00dd4ba40" x="117.554896" y="131.132428" style="fill: #2ca02c; stroke: #2ca02c"/>
     <use xlink:href="#mc00dd4ba40" x="141.709962" y="96.482045" style="fill: #2ca02c; stroke: #2ca02c"/>
     <use xlink:href="#mc00dd4ba40" x="165.865028" y="81.256547" style="fill: #2ca02c; stroke: #2ca02c"/>
     <use xlink:href="#mc00dd4ba40" x="190.020095" y="240.152215" style="fill: #2ca02c; stroke: #2ca02c"/>
     <use xlink:href="#mc00dd4ba40" x="214.175161" y="77.046755" style="fill: #2ca02c; stroke: #2ca02c"/>
     <use xlink:href="#mc00dd4ba40" x="238.330227" y="132.700907" style="fill: #2ca02c; stroke: #2ca02c"/>
     <use xlink:href="#mc00dd4ba40" x="262.485294" y="86.931594" style="fill: #2ca02c; stroke: #2ca02c"/>
     <use xlink:href="#mc00dd4ba40" x="286.64036" y="212.878131" style="fill: #2ca02c; stroke: #2ca02c"/>
     <use xlink:href="#mc00dd4ba40" x="310.795426" y="259.677316" style="fill: #2ca02c; stroke: #2ca02c"/>
     <use xlink:href="#mc00dd4ba40" x="334.950492" y="75.515958" style="fill: #2ca02c; stroke: #2ca02c"/>
     <use xlink:href="#mc00dd4ba40" x="359.105559" y="128.781141" style="fill: #2ca02c; stroke: #2ca02c"/>
     <use xlink:href="#mc00dd4ba40" x="383.260625" y="197.396234" style="fill: #2ca02c; stroke: #2ca02c"/>
     <use xlink:href="#mc00dd4ba40" x="407.415691" y="112.022002" style="fill: #2ca02c; stroke: #2ca02c"/>
     <use xlink:href="#mc00dd4ba40" x="431.570758" y="278.006773" style="fill: #2ca02c; stroke: #2ca02c"/>
     <use xlink:href="#mc00dd4ba40" x="455.725824" y="84.085137" style="fill: #2ca02c; stroke: #2ca02c"/>
     <use xlink:href="#mc00dd4ba40" x="504.035956" y="101.398895" style="fill: #2ca02c; stroke: #2ca02c"/>
     <use xlink:href="#mc00dd4ba40" x="528.191023" y="202.032381" style="fill: #2ca02c; stroke: #2ca02c"/>
     <use xlink:href="#mc00dd4ba40" x="552.346089" y="119.799375" style="fill: #2ca02c; stroke: #2ca02c"/>
     <use xlink:href="#mc00dd4ba40" x="576.501155" y="215.475984" style="fill: #2ca02c; stroke: #2ca02c"/>
     <use xlink:href="#mc00dd4ba40" x="600.656222" y="242.654232" style="fill: #2ca02c; stroke: #2ca02c"/>
     <use xlink:href="#mc00dd4ba40" x="624.811288" y="83.347224" style="fill: #2ca02c; stroke: #2ca02c"/>
     <use xlink:href="#mc00dd4ba40" x="648.966354" y="247.574723" style="fill: #2ca02c; stroke: #2ca02c"/>
     <use xlink:href="#mc00dd4ba40" x="673.12142" y="84.118424" style="fill: #2ca02c; stroke: #2ca02c"/>
    </g>
   </g>
   <g id="line2d_20">
    <path d="M 93.39983 309.46052 
L 117.554896 294.014315 
L 141.709962 121.63556 
L 165.865028 288.422818 
L 190.020095 307.59703 
L 214.175161 296.137357 
L 238.330227 332.588837 
L 262.485294 138.456856 
L 286.64036 66.312577 
L 310.795426 283.547321 
L 334.950492 281.66026 
L 359.105559 296.901271 
L 383.260625 313.205049 
L 431.570758 344.12319 
L 455.725824 298.313978 
L 504.035956 314.901513 
L 528.191023 208.372962 
L 552.346089 117.617315 
L 576.501155 207.136064 
L 600.656222 313.390974 
L 648.966354 286.409414 
L 673.12142 279.949187 
" clip-path="url(#p50cc770e81)" style="fill: none; stroke: #d62728; stroke-width: 2; stroke-linecap: square"/>
    <defs>
     <path id="m42626b494e" d="M 0 3 
C 0.795609 3 1.55874 2.683901 2.12132 2.12132 
C 2.683901 1.55874 3 0.795609 3 0 
C 3 -0.795609 2.683901 -1.55874 2.12132 -2.12132 
C 1.55874 -2.683901 0.795609 -3 0 -3 
C -0.795609 -3 -1.55874 -2.683901 -2.12132 -2.12132 
C -2.683901 -1.55874 -3 -0.795609 -3 0 
C -3 0.795609 -2.683901 1.55874 -2.12132 2.12132 
C -1.55874 2.683901 -0.795609 3 0 3 
z
" style="stroke: #d62728"/>
    </defs>
    <g clip-path="url(#p50cc770e81)">
     <use xlink:href="#m42626b494e" x="93.39983" y="309.46052" style="fill: #d62728; stroke: #d62728"/>
     <use xlink:href="#m42626b494e" x="117.554896" y="294.014315" style="fill: #d62728; stroke: #d62728"/>
     <use xlink:href="#m42626b494e" x="141.709962" y="121.63556" style="fill: #d62728; stroke: #d62728"/>
     <use xlink:href="#m42626b494e" x="165.865028" y="288.422818" style="fill: #d62728; stroke: #d62728"/>
     <use xlink:href="#m42626b494e" x="190.020095" y="307.59703" style="fill: #d62728; stroke: #d62728"/>
     <use xlink:href="#m42626b494e" x="214.175161" y="296.137357" style="fill: #d62728; stroke: #d62728"/>
     <use xlink:href="#m42626b494e" x="238.330227" y="332.588837" style="fill: #d62728; stroke: #d62728"/>
     <use xlink:href="#m42626b494e" x="262.485294" y="138.456856" style="fill: #d62728; stroke: #d62728"/>
     <use xlink:href="#m42626b494e" x="286.64036" y="66.312577" style="fill: #d62728; stroke: #d62728"/>
     <use xlink:href="#m42626b494e" x="310.795426" y="283.547321" style="fill: #d62728; stroke: #d62728"/>
     <use xlink:href="#m42626b494e" x="334.950492" y="281.66026" style="fill: #d62728; stroke: #d62728"/>
     <use xlink:href="#m42626b494e" x="359.105559" y="296.901271" style="fill: #d62728; stroke: #d62728"/>
     <use xlink:href="#m42626b494e" x="383.260625" y="313.205049" style="fill: #d62728; stroke: #d62728"/>
     <use xlink:href="#m42626b494e" x="431.570758" y="344.12319" style="fill: #d62728; stroke: #d62728"/>
     <use xlink:href="#m42626b494e" x="455.725824" y="298.313978" style="fill: #d62728; stroke: #d62728"/>
     <use xlink:href="#m42626b494e" x="504.035956" y="314.901513" style="fill: #d62728; stroke: #d62728"/>
     <use xlink:href="#m42626b494e" x="528.191023" y="208.372962" style="fill: #d62728; stroke: #d62728"/>
     <use xlink:href="#m42626b494e" x="552.346089" y="117.617315" style="fill: #d62728; stroke: #d62728"/>
     <use xlink:href="#m42626b494e" x="576.501155" y="207.136064" style="fill: #d62728; stroke: #d62728"/>
     <use xlink:href="#m42626b494e" x="600.656222" y="313.390974" style="fill: #d62728; stroke: #d62728"/>
     <use xlink:href="#m42626b494e" x="648.966354" y="286.409414" style="fill: #d62728; stroke: #d62728"/>
     <use xlink:href="#m42626b494e" x="673.12142" y="279.949187" style="fill: #d62728; stroke: #d62728"/>
    </g>
   </g>
   <g id="line2d_21">
    <path d="M 93.39983 377.497105 
L 117.554896 387.013601 
L 141.709962 366.137566 
L 165.865028 382.326041 
L 190.020095 353.014329 
L 214.175161 376.792191 
L 238.330227 393.025678 
L 262.485294 369.58168 
L 286.64036 366.519954 
L 310.795426 376.404142 
L 334.950492 352.125109 
L 359.105559 354.006725 
L 383.260625 372.147341 
L 431.570758 416.543906 
L 455.725824 365.251985 
L 504.035956 390.812516 
L 528.191023 506.332202 
L 552.346089 317.490832 
L 576.501155 355.132603 
L 600.656222 396.66187 
L 648.966354 322.484467 
L 673.12142 364.753659 
" clip-path="url(#p50cc770e81)" style="fill: none; stroke: #9467bd; stroke-width: 2; stroke-linecap: square"/>
    <defs>
     <path id="me5cf3063cc" d="M 0 3 
C 0.795609 3 1.55874 2.683901 2.12132 2.12132 
C 2.683901 1.55874 3 0.795609 3 0 
C 3 -0.795609 2.683901 -1.55874 2.12132 -2.12132 
C 1.55874 -2.683901 0.795609 -3 0 -3 
C -0.795609 -3 -1.55874 -2.683901 -2.12132 -2.12132 
C -2.683901 -1.55874 -3 -0.795609 -3 0 
C -3 0.795609 -2.683901 1.55874 -2.12132 2.12132 
C -1.55874 2.683901 -0.795609 3 0 3 
z
" style="stroke: #9467bd"/>
    </defs>
    <g clip-path="url(#p50cc770e81)">
     <use xlink:href="#me5cf3063cc" x="93.39983" y="377.497105" style="fill: #9467bd; stroke: #9467bd"/>
     <use xlink:href="#me5cf3063cc" x="117.554896" y="387.013601" style="fill: #9467bd; stroke: #9467bd"/>
     <use xlink:href="#me5cf3063cc" x="141.709962" y="366.137566" style="fill: #9467bd; stroke: #9467bd"/>
     <use xlink:href="#me5cf3063cc" x="165.865028" y="382.326041" style="fill: #9467bd; stroke: #9467bd"/>
     <use xlink:href="#me5cf3063cc" x="190.020095" y="353.014329" style="fill: #9467bd; stroke: #9467bd"/>
     <use xlink:href="#me5cf3063cc" x="214.175161" y="376.792191" style="fill: #9467bd; stroke: #9467bd"/>
     <use xlink:href="#me5cf3063cc" x="238.330227" y="393.025678" style="fill: #9467bd; stroke: #9467bd"/>
     <use xlink:href="#me5cf3063cc" x="262.485294" y="369.58168" style="fill: #9467bd; stroke: #9467bd"/>
     <use xlink:href="#me5cf3063cc" x="286.64036" y="366.519954" style="fill: #9467bd; stroke: #9467bd"/>
     <use xlink:href="#me5cf3063cc" x="310.795426" y="376.404142" style="fill: #9467bd; stroke: #9467bd"/>
     <use xlink:href="#me5cf3063cc" x="334.950492" y="352.125109" style="fill: #9467bd; stroke: #9467bd"/>
     <use xlink:href="#me5cf3063cc" x="359.105559" y="354.006725" style="fill: #9467bd; stroke: #9467bd"/>
     <use xlink:href="#me5cf3063cc" x="383.260625" y="372.147341" style="fill: #9467bd; stroke: #9467bd"/>
     <use xlink:href="#me5cf3063cc" x="431.570758" y="416.543906" style="fill: #9467bd; stroke: #9467bd"/>
     <use xlink:href="#me5cf3063cc" x="455.725824" y="365.251985" style="fill: #9467bd; stroke: #9467bd"/>
     <use xlink:href="#me5cf3063cc" x="504.035956" y="390.812516" style="fill: #9467bd; stroke: #9467bd"/>
     <use xlink:href="#me5cf3063cc" x="528.191023" y="506.332202" style="fill: #9467bd; stroke: #9467bd"/>
     <use xlink:href="#me5cf3063cc" x="552.346089" y="317.490832" style="fill: #9467bd; stroke: #9467bd"/>
     <use xlink:href="#me5cf3063cc" x="576.501155" y="355.132603" style="fill: #9467bd; stroke: #9467bd"/>
     <use xlink:href="#me5cf3063cc" x="600.656222" y="396.66187" style="fill: #9467bd; stroke: #9467bd"/>
     <use xlink:href="#me5cf3063cc" x="648.966354" y="322.484467" style="fill: #9467bd; stroke: #9467bd"/>
     <use xlink:href="#me5cf3063cc" x="673.12142" y="364.753659" style="fill: #9467bd; stroke: #9467bd"/>
    </g>
   </g>
   <g id="line2d_22">
    <path d="M 93.39983 274.650768 
L 117.554896 96.666611 
L 141.709962 276.859481 
L 165.865028 257.482311 
L 190.020095 215.464338 
L 214.175161 266.852194 
L 238.330227 250.594453 
L 262.485294 207.420086 
L 286.64036 242.827291 
L 310.795426 80.166321 
L 334.950492 277.984423 
L 359.105559 104.891121 
L 383.260625 124.203671 
L 431.570758 267.439832 
L 455.725824 250.251968 
L 504.035956 230.273162 
L 528.191023 275.952272 
L 552.346089 73.774918 
L 576.501155 87.604345 
L 600.656222 121.351933 
L 648.966354 91.384657 
L 673.12142 89.741917 
" clip-path="url(#p50cc770e81)" style="fill: none; stroke: #8c564b; stroke-width: 2; stroke-linecap: square"/>
    <defs>
     <path id="m565d768838" d="M 0 3 
C 0.795609 3 1.55874 2.683901 2.12132 2.12132 
C 2.683901 1.55874 3 0.795609 3 0 
C 3 -0.795609 2.683901 -1.55874 2.12132 -2.12132 
C 1.55874 -2.683901 0.795609 -3 0 -3 
C -0.795609 -3 -1.55874 -2.683901 -2.12132 -2.12132 
C -2.683901 -1.55874 -3 -0.795609 -3 0 
C -3 0.795609 -2.683901 1.55874 -2.12132 2.12132 
C -1.55874 2.683901 -0.795609 3 0 3 
z
" style="stroke: #8c564b"/>
    </defs>
    <g clip-path="url(#p50cc770e81)">
     <use xlink:href="#m565d768838" x="93.39983" y="274.650768" style="fill: #8c564b; stroke: #8c564b"/>
     <use xlink:href="#m565d768838" x="117.554896" y="96.666611" style="fill: #8c564b; stroke: #8c564b"/>
     <use xlink:href="#m565d768838" x="141.709962" y="276.859481" style="fill: #8c564b; stroke: #8c564b"/>
     <use xlink:href="#m565d768838" x="165.865028" y="257.482311" style="fill: #8c564b; stroke: #8c564b"/>
     <use xlink:href="#m565d768838" x="190.020095" y="215.464338" style="fill: #8c564b; stroke: #8c564b"/>
     <use xlink:href="#m565d768838" x="214.175161" y="266.852194" style="fill: #8c564b; stroke: #8c564b"/>
     <use xlink:href="#m565d768838" x="238.330227" y="250.594453" style="fill: #8c564b; stroke: #8c564b"/>
     <use xlink:href="#m565d768838" x="262.485294" y="207.420086" style="fill: #8c564b; stroke: #8c564b"/>
     <use xlink:href="#m565d768838" x="286.64036" y="242.827291" style="fill: #8c564b; stroke: #8c564b"/>
     <use xlink:href="#m565d768838" x="310.795426" y="80.166321" style="fill: #8c564b; stroke: #8c564b"/>
     <use xlink:href="#m565d768838" x="334.950492" y="277.984423" style="fill: #8c564b; stroke: #8c564b"/>
     <use xlink:href="#m565d768838" x="359.105559" y="104.891121" style="fill: #8c564b; stroke: #8c564b"/>
     <use xlink:href="#m565d768838" x="383.260625" y="124.203671" style="fill: #8c564b; stroke: #8c564b"/>
     <use xlink:href="#m565d768838" x="431.570758" y="267.439832" style="fill: #8c564b; stroke: #8c564b"/>
     <use xlink:href="#m565d768838" x="455.725824" y="250.251968" style="fill: #8c564b; stroke: #8c564b"/>
     <use xlink:href="#m565d768838" x="504.035956" y="230.273162" style="fill: #8c564b; stroke: #8c564b"/>
     <use xlink:href="#m565d768838" x="528.191023" y="275.952272" style="fill: #8c564b; stroke: #8c564b"/>
     <use xlink:href="#m565d768838" x="552.346089" y="73.774918" style="fill: #8c564b; stroke: #8c564b"/>
     <use xlink:href="#m565d768838" x="576.501155" y="87.604345" style="fill: #8c564b; stroke: #8c564b"/>
     <use xlink:href="#m565d768838" x="600.656222" y="121.351933" style="fill: #8c564b; stroke: #8c564b"/>
     <use xlink:href="#m565d768838" x="648.966354" y="91.384657" style="fill: #8c564b; stroke: #8c564b"/>
     <use xlink:href="#m565d768838" x="673.12142" y="89.741917" style="fill: #8c564b; stroke: #8c564b"/>
    </g>
   </g>
   <g id="patch_3">
    <path d="M 64.41375 529.308125 
L 64.41375 23.837812 
" style="fill: none; stroke: #000000; stroke-width: 0.8; stroke-linejoin: miter; stroke-linecap: square"/>
   </g>
   <g id="patch_4">
    <path d="M 702.1075 529.308125 
L 702.1075 23.837812 
" style="fill: none; stroke: #000000; stroke-width: 0.8; stroke-linejoin: miter; stroke-linecap: square"/>
   </g>
   <g id="patch_5">
    <path d="M 64.41375 529.308125 
L 702.1075 529.308125 
" style="fill: none; stroke: #000000; stroke-width: 0.8; stroke-linejoin: miter; stroke-linecap: square"/>
   </g>
   <g id="patch_6">
    <path d="M 64.41375 23.837812 
L 702.1075 23.837812 
" style="fill: none; stroke: #000000; stroke-width: 0.8; stroke-linejoin: miter; stroke-linecap: square"/>
   </g>
   <g id="text_11">
    <text style="font: 700 14px 'DejaVu Sans', 'Bitstream Vera Sans', 'Computer Modern Sans Serif', 'Lucida Grande', 'Verdana', 'Geneva', 'Lucid', 'Arial', 'Helvetica', 'Avant Garde', sans-serif; text-anchor: middle" x="383.260625" y="17.837813" transform="rotate(-0 383.260625 17.837813)">Tasksubmission - Performance Trend</text>
   </g>
   <g id="legend_1">
    <g id="patch_7">
     <path d="M 740.992188 119.906563 
L 846.004688 119.906563 
Q 848.004688 119.906563 848.004688 117.906563 
L 848.004688 30.837813 
Q 848.004688 28.837813 846.004688 28.837813 
L 740.992188 28.837813 
Q 738.992188 28.837813 738.992188 30.837813 
L 738.992188 117.906563 
Q 738.992188 119.906563 740.992188 119.906563 
z
" style="fill: #ffffff; opacity: 0.8; stroke: #cccccc; stroke-linejoin: miter"/>
    </g>
    <g id="line2d_23">
     <path d="M 742.992188 36.93625 
L 752.992188 36.93625 
L 762.992188 36.93625 
" style="fill: none; stroke: #1f77b4; stroke-width: 2; stroke-linecap: square"/>
     <g>
      <use xlink:href="#mfac55545ec" x="752.992188" y="36.93625" style="fill: #1f77b4; stroke: #1f77b4"/>
     </g>
    </g>
    <g id="text_12">
     <text style="font: 10px 'DejaVu Sans', 'Bitstream Vera Sans', 'Computer Modern Sans Serif', 'Lucida Grande', 'Verdana', 'Geneva', 'Lucid', 'Arial', 'Helvetica', 'Avant Garde', sans-serif; text-anchor: start" x="770.992188" y="40.43625" transform="rotate(-0 770.992188 40.43625)">gcc-14.2 - V1</text>
    </g>
    <g id="line2d_24">
     <path d="M 742.992188 51.614375 
L 752.992188 51.614375 
L 762.992188 51.614375 
" style="fill: none; stroke: #ff7f0e; stroke-width: 2; stroke-linecap: square"/>
     <g>
      <use xlink:href="#mec0c7c0d2f" x="752.992188" y="51.614375" style="fill: #ff7f0e; stroke: #ff7f0e"/>
     </g>
    </g>
    <g id="text_13">
     <text style="font: 10px 'DejaVu Sans', 'Bitstream Vera Sans', 'Computer Modern Sans Serif', 'Lucida Grande', 'Verdana', 'Geneva', 'Lucid', 'Arial', 'Helvetica', 'Avant Garde', sans-serif; text-anchor: start" x="770.992188" y="55.114375" transform="rotate(-0 770.992188 55.114375)">gcc-14.2 - V2</text>
    </g>
    <g id="line2d_25">
     <path d="M 742.992188 66.2925 
L 752.992188 66.2925 
L 762.992188 66.2925 
" style="fill: none; stroke: #2ca02c; stroke-width: 2; stroke-linecap: square"/>
     <g>
      <use xlink:href="#mc00dd4ba40" x="752.992188" y="66.2925" style="fill: #2ca02c; stroke: #2ca02c"/>
     </g>
    </g>
    <g id="text_14">
     <text style="font: 10px 'DejaVu Sans', 'Bitstream Vera Sans', 'Computer Modern Sans Serif', 'Lucida Grande', 'Verdana', 'Geneva', 'Lucid', 'Arial', 'Helvetica', 'Avant Garde', sans-serif; text-anchor: start" x="770.992188" y="69.7925" transform="rotate(-0 770.992188 69.7925)">gcc-14.2 - TBB</text>
    </g>
    <g id="line2d_26">
     <path d="M 742.992188 80.970625 
L 752.992188 80.970625 
L 762.992188 80.970625 
" style="fill: none; stroke: #d62728; stroke-width: 2; stroke-linecap: square"/>
     <g>
      <use xlink:href="#m42626b494e" x="752.992188" y="80.970625" style="fill: #d62728; stroke: #d62728"/>
     </g>
    </g>
    <g id="text_15">
     <text style="font: 10px 'DejaVu Sans', 'Bitstream Vera Sans', 'Computer Modern Sans Serif', 'Lucida Grande', 'Verdana', 'Geneva', 'Lucid', 'Arial', 'Helvetica', 'Avant Garde', sans-serif; text-anchor: start" x="770.992188" y="84.470625" transform="rotate(-0 770.992188 84.470625)">gcc-4.2 - V1</text>
    </g>
    <g id="line2d_27">
     <path d="M 742.992188 95.64875 
L 752.992188 95.64875 
L 762.992188 95.64875 
" style="fill: none; stroke: #9467bd; stroke-width: 2; stroke-linecap: square"/>
     <g>
      <use xlink:href="#me5cf3063cc" x="752.992188" y="95.64875" style="fill: #9467bd; stroke: #9467bd"/>
     </g>
    </g>
    <g id="text_16">
     <text style="font: 10px 'DejaVu Sans', 'Bitstream Vera Sans', 'Computer Modern Sans Serif', 'Lucida Grande', 'Verdana', 'Geneva', 'Lucid', 'Arial', 'Helvetica', 'Avant Garde', sans-serif; text-anchor: start" x="770.992188" y="99.14875" transform="rotate(-0 770.992188 99.14875)">gcc-4.2 - V2</text>
    </g>
    <g id="line2d_28">
     <path d="M 742.992188 110.326875 
L 752.992188 110.326875 
L 762.992188 110.326875 
" style="fill: none; stroke: #8c564b; stroke-width: 2; stroke-linecap: square"/>
     <g>
      <use xlink:href="#m565d768838" x="752.992188" y="110.326875" style="fill: #8c564b; stroke: #8c564b"/>
     </g>
    </g>
    <g id="text_17">
     <text style="font: 10px 'DejaVu Sans', 'Bitstream Vera Sans', 'Computer Modern Sans Serif', 'Lucida Grande', 'Verdana', 'Geneva', 'Lucid', 'Arial', 'Helvetica', 'Avant Garde', sans-serif; text-anchor: start" x="770.992188" y="113.826875" transform="rotate(-0 770.992188 113.826875)">gcc-4.2 - TBB</text>
    </g>
   </g>
  </g>
 </g>
 <defs>
  <clipPath id="p50cc770e81">
   <rect x="64.41375" y="23.837813" width="637.69375" height="505.470313"/>
  </clipPath>
 </defs>
</svg>
