<?xml version="1.0" encoding="utf-8" standalone="no"?>
<!DOCTYPE svg PUBLIC "-//W3C//DTD SVG 1.1//EN"
  "http://www.w3.org/Graphics/SVG/1.1/DTD/svg11.dtd">
<svg xmlns:xlink="http://www.w3.org/1999/xlink" width="854.724687pt" height="568.8pt" viewBox="0 0 854.724687 568.8" xmlns="http://www.w3.org/2000/svg" version="1.1">
 <metadata>
  <rdf:RDF xmlns:dc="http://purl.org/dc/elements/1.1/" xmlns:cc="http://creativecommons.org/ns#" xmlns:rdf="http://www.w3.org/1999/02/22-rdf-syntax-ns#">
   <cc:Work>
    <dc:type rdf:resource="http://purl.org/dc/dcmitype/StillImage"/>
    <dc:date>2025-08-03T07:25:02.774442</dc:date>
    <dc:format>image/svg+xml</dc:format>
    <dc:creator>
     <cc:Agent>
      <dc:title>Matplotlib v3.9.4, https://matplotlib.org/</dc:title>
     </cc:Agent>
    </dc:creator>
   </cc:Work>
  </rdf:RDF>
 </metadata>
 <defs>
  <style type="text/css">*{stroke-linejoin: round; stroke-linecap: butt}</style>
 </defs>
 <g id="figure_1">
  <g id="patch_1">
   <path d="M 0 568.8 
L 854.724687 568.8 
L 854.724687 0 
L 0 0 
z
" style="fill: #ffffff"/>
  </g>
  <g id="axes_1">
   <g id="patch_2">
    <path d="M 74.01375 529.308125 
L 702.1075 529.308125 
L 702.1075 23.837812 
L 74.01375 23.837812 
z
" style="fill: #ffffff"/>
   </g>
   <g id="matplotlib.axis_1">
    <g id="xtick_1">
     <g id="line2d_1">
      <path d="M 102.563466 529.308125 
L 102.563466 23.837812 
" clip-path="url(#p3067d3435f)" style="fill: none; stroke: #b0b0b0; stroke-opacity: 0.3; stroke-width: 0.8; stroke-linecap: square"/>
     </g>
     <g id="line2d_2">
      <defs>
       <path id="m24e9435eac" d="M 0 0 
L 0 3.5 
" style="stroke: #000000; stroke-width: 0.8"/>
      </defs>
      <g>
       <use xlink:href="#m24e9435eac" x="102.563466" y="529.308125" style="stroke: #000000; stroke-width: 0.8"/>
      </g>
     </g>
     <g id="text_1">
      <text style="font: 10px 'DejaVu Sans', 'Bitstream Vera Sans', 'Computer Modern Sans Serif', 'Lucida Grande', 'Verdana', 'Geneva', 'Lucid', 'Arial', 'Helvetica', 'Avant Garde', sans-serif; text-anchor: middle" x="102.563466" y="543.906563" transform="rotate(-0 102.563466 543.906563)">71</text>
     </g>
    </g>
    <g id="xtick_2">
     <g id="line2d_3">
      <path d="M 184.134083 529.308125 
L 184.134083 23.837812 
" clip-path="url(#p3067d3435f)" style="fill: none; stroke: #b0b0b0; stroke-opacity: 0.3; stroke-width: 0.8; stroke-linecap: square"/>
     </g>
     <g id="line2d_4">
      <g>
       <use xlink:href="#m24e9435eac" x="184.134083" y="529.308125" style="stroke: #000000; stroke-width: 0.8"/>
      </g>
     </g>
     <g id="text_2">
      <text style="font: 10px 'DejaVu Sans', 'Bitstream Vera Sans', 'Computer Modern Sans Serif', 'Lucida Grande', 'Verdana', 'Geneva', 'Lucid', 'Arial', 'Helvetica', 'Avant Garde', sans-serif; text-anchor: middle" x="184.134083" y="543.906563" transform="rotate(-0 184.134083 543.906563)">72</text>
     </g>
    </g>
    <g id="xtick_3">
     <g id="line2d_5">
      <path d="M 265.7047 529.308125 
L 265.7047 23.837812 
" clip-path="url(#p3067d3435f)" style="fill: none; stroke: #b0b0b0; stroke-opacity: 0.3; stroke-width: 0.8; stroke-linecap: square"/>
     </g>
     <g id="line2d_6">
      <g>
       <use xlink:href="#m24e9435eac" x="265.7047" y="529.308125" style="stroke: #000000; stroke-width: 0.8"/>
      </g>
     </g>
     <g id="text_3">
      <text style="font: 10px 'DejaVu Sans', 'Bitstream Vera Sans', 'Computer Modern Sans Serif', 'Lucida Grande', 'Verdana', 'Geneva', 'Lucid', 'Arial', 'Helvetica', 'Avant Garde', sans-serif; text-anchor: middle" x="265.7047" y="543.906563" transform="rotate(-0 265.7047 543.906563)">73</text>
     </g>
    </g>
    <g id="xtick_4">
     <g id="line2d_7">
      <path d="M 347.275317 529.308125 
L 347.275317 23.837812 
" clip-path="url(#p3067d3435f)" style="fill: none; stroke: #b0b0b0; stroke-opacity: 0.3; stroke-width: 0.8; stroke-linecap: square"/>
     </g>
     <g id="line2d_8">
      <g>
       <use xlink:href="#m24e9435eac" x="347.275317" y="529.308125" style="stroke: #000000; stroke-width: 0.8"/>
      </g>
     </g>
     <g id="text_4">
      <text style="font: 10px 'DejaVu Sans', 'Bitstream Vera Sans', 'Computer Modern Sans Serif', 'Lucida Grande', 'Verdana', 'Geneva', 'Lucid', 'Arial', 'Helvetica', 'Avant Garde', sans-serif; text-anchor: middle" x="347.275317" y="543.906563" transform="rotate(-0 347.275317 543.906563)">74</text>
     </g>
    </g>
    <g id="xtick_5">
     <g id="line2d_9">
      <path d="M 428.845933 529.308125 
L 428.845933 23.837812 
" clip-path="url(#p3067d3435f)" style="fill: none; stroke: #b0b0b0; stroke-opacity: 0.3; stroke-width: 0.8; stroke-linecap: square"/>
     </g>
     <g id="line2d_10">
      <g>
       <use xlink:href="#m24e9435eac" x="428.845933" y="529.308125" style="stroke: #000000; stroke-width: 0.8"/>
      </g>
     </g>
     <g id="text_5">
      <text style="font: 10px 'DejaVu Sans', 'Bitstream Vera Sans', 'Computer Modern Sans Serif', 'Lucida Grande', 'Verdana', 'Geneva', 'Lucid', 'Arial', 'Helvetica', 'Avant Garde', sans-serif; text-anchor: middle" x="428.845933" y="543.906563" transform="rotate(-0 428.845933 543.906563)">75</text>
     </g>
    </g>
    <g id="xtick_6">
     <g id="line2d_11">
      <path d="M 510.41655 529.308125 
L 510.41655 23.837812 
" clip-path="url(#p3067d3435f)" style="fill: none; stroke: #b0b0b0; stroke-opacity: 0.3; stroke-width: 0.8; stroke-linecap: square"/>
     </g>
     <g id="line2d_12">
      <g>
       <use xlink:href="#m24e9435eac" x="510.41655" y="529.308125" style="stroke: #000000; stroke-width: 0.8"/>
      </g>
     </g>
     <g id="text_6">
      <text style="font: 10px 'DejaVu Sans', 'Bitstream Vera Sans', 'Computer Modern Sans Serif', 'Lucida Grande', 'Verdana', 'Geneva', 'Lucid', 'Arial', 'Helvetica', 'Avant Garde', sans-serif; text-anchor: middle" x="510.41655" y="543.906563" transform="rotate(-0 510.41655 543.906563)">76</text>
     </g>
    </g>
    <g id="xtick_7">
     <g id="line2d_13">
      <path d="M 591.987167 529.308125 
L 591.987167 23.837812 
" clip-path="url(#p3067d3435f)" style="fill: none; stroke: #b0b0b0; stroke-opacity: 0.3; stroke-width: 0.8; stroke-linecap: square"/>
     </g>
     <g id="line2d_14">
      <g>
       <use xlink:href="#m24e9435eac" x="591.987167" y="529.308125" style="stroke: #000000; stroke-width: 0.8"/>
      </g>
     </g>
     <g id="text_7">
      <text style="font: 10px 'DejaVu Sans', 'Bitstream Vera Sans', 'Computer Modern Sans Serif', 'Lucida Grande', 'Verdana', 'Geneva', 'Lucid', 'Arial', 'Helvetica', 'Avant Garde', sans-serif; text-anchor: middle" x="591.987167" y="543.906563" transform="rotate(-0 591.987167 543.906563)">77</text>
     </g>
    </g>
    <g id="xtick_8">
     <g id="line2d_15">
      <path d="M 673.557784 529.308125 
L 673.557784 23.837812 
" clip-path="url(#p3067d3435f)" style="fill: none; stroke: #b0b0b0; stroke-opacity: 0.3; stroke-width: 0.8; stroke-linecap: square"/>
     </g>
     <g id="line2d_16">
      <g>
       <use xlink:href="#m24e9435eac" x="673.557784" y="529.308125" style="stroke: #000000; stroke-width: 0.8"/>
      </g>
     </g>
     <g id="text_8">
      <text style="font: 10px 'DejaVu Sans', 'Bitstream Vera Sans', 'Computer Modern Sans Serif', 'Lucida Grande', 'Verdana', 'Geneva', 'Lucid', 'Arial', 'Helvetica', 'Avant Garde', sans-serif; text-anchor: middle" x="673.557784" y="543.906563" transform="rotate(-0 673.557784 543.906563)">78</text>
     </g>
    </g>
    <g id="text_9">
     <text style="font: 12px 'DejaVu Sans', 'Bitstream Vera Sans', 'Computer Modern Sans Serif', 'Lucida Grande', 'Verdana', 'Geneva', 'Lucid', 'Arial', 'Helvetica', 'Avant Garde', sans-serif; text-anchor: middle" x="388.060625" y="559.104375" transform="rotate(-0 388.060625 559.104375)">Build Number</text>
    </g>
   </g>
   <g id="matplotlib.axis_2">
    <g id="ytick_1">
     <g id="line2d_17">
      <defs>
       <path id="m1ea4b79c0c" d="M 0 0 
L -2 0 
" style="stroke: #000000; stroke-width: 0.6"/>
      </defs>
      <g>
       <use xlink:href="#m1ea4b79c0c" x="74.01375" y="465.343711" style="stroke: #000000; stroke-width: 0.6"/>
      </g>
     </g>
     <g id="text_10">
      <!-- $\mathdefault{1.2\times10^{5}}$ -->
      <g transform="translate(23.41375 469.14293)">
       <text>
        <tspan style="font: 10px 'DejaVu Sans'" x="0 6.362305 9.041016 17.351562 27.678711 34.041016" y="-0.06406250000000036">1.2×10</tspan>
        <tspan style="font: 7px 'DejaVu Sans'" x="40.499023" y="-3.8921875000000004">5</tspan>
       </text>
      </g>
     </g>
    </g>
    <g id="ytick_2">
     <g id="line2d_18">
      <g>
       <use xlink:href="#m1ea4b79c0c" x="74.01375" y="378.030274" style="stroke: #000000; stroke-width: 0.6"/>
      </g>
     </g>
     <g id="text_11">
      <!-- $\mathdefault{1.4\times10^{5}}$ -->
      <g transform="translate(22.81375 381.829493)">
       <text>
        <tspan style="font: 10px 'DejaVu Sans'" x="0 6.362305 9.541016 17.851562 28.178711 34.541016" y="-0.06406250000000036">1.4×10</tspan>
        <tspan style="font: 7px 'DejaVu Sans'" x="40.999023" y="-3.8921875000000004">5</tspan>
       </text>
      </g>
     </g>
    </g>
    <g id="ytick_3">
     <g id="line2d_19">
      <g>
       <use xlink:href="#m1ea4b79c0c" x="74.01375" y="302.395935" style="stroke: #000000; stroke-width: 0.6"/>
      </g>
     </g>
     <g id="text_12">
      <!-- $\mathdefault{1.6\times10^{5}}$ -->
      <g transform="translate(22.81375 306.195154)">
       <text>
        <tspan style="font: 10px 'DejaVu Sans'" x="0 6.362305 9.541016 17.851562 28.178711 34.541016" y="-0.06406250000000036">1.6×10</tspan>
        <tspan style="font: 7px 'DejaVu Sans'" x="40.999023" y="-3.8921875000000004">5</tspan>
       </text>
      </g>
     </g>
    </g>
    <g id="ytick_4">
     <g id="line2d_20">
      <g>
       <use xlink:href="#m1ea4b79c0c" x="74.01375" y="235.68172" style="stroke: #000000; stroke-width: 0.6"/>
      </g>
     </g>
     <g id="text_13">
      <!-- $\mathdefault{1.8\times10^{5}}$ -->
      <g transform="translate(23.11375 239.480939)">
       <text>
        <tspan style="font: 10px 'DejaVu Sans'" x="0 6.362305 9.291016 17.601562 27.928711 34.291016" y="-0.06406250000000036">1.8×10</tspan>
        <tspan style="font: 7px 'DejaVu Sans'" x="40.749023" y="-3.8921875000000004">5</tspan>
       </text>
      </g>
     </g>
    </g>
    <g id="ytick_5">
     <g id="line2d_21">
      <g>
       <use xlink:href="#m1ea4b79c0c" x="74.01375" y="176.003821" style="stroke: #000000; stroke-width: 0.6"/>
      </g>
     </g>
     <g id="text_14">
      <!-- $\mathdefault{2\times10^{5}}$ -->
      <g transform="translate(32.41375 179.80304)">
       <text>
        <tspan style="font: 10px 'DejaVu Sans'" x="0 8.310547 18.637695 25" y="-0.06406250000000036">2×10</tspan>
        <tspan style="font: 7px 'DejaVu Sans'" x="31.458008" y="-3.8921875000000004">5</tspan>
       </text>
      </g>
     </g>
    </g>
    <g id="ytick_6">
     <g id="line2d_22">
      <g>
       <use xlink:href="#m1ea4b79c0c" x="74.01375" y="122.018594" style="stroke: #000000; stroke-width: 0.6"/>
      </g>
     </g>
     <g id="text_15">
      <!-- $\mathdefault{2.2\times10^{5}}$ -->
      <g transform="translate(23.41375 125.817813)">
       <text>
        <tspan style="font: 10px 'DejaVu Sans'" x="0 6.362305 9.041016 17.351562 27.678711 34.041016" y="-0.06406250000000036">2.2×10</tspan>
        <tspan style="font: 7px 'DejaVu Sans'" x="40.499023" y="-3.8921875000000004">5</tspan>
       </text>
      </g>
     </g>
    </g>
    <g id="ytick_7">
     <g id="line2d_23">
      <g>
       <use xlink:href="#m1ea4b79c0c" x="74.01375" y="72.733944" style="stroke: #000000; stroke-width: 0.6"/>
      </g>
     </g>
     <g id="text_16">
      <!-- $\mathdefault{2.4\times10^{5}}$ -->
      <g transform="translate(22.81375 76.533163)">
       <text>
        <tspan style="font: 10px 'DejaVu Sans'" x="0 6.362305 9.541016 17.851562 28.178711 34.541016" y="-0.06406250000000036">2.4×10</tspan>
        <tspan style="font: 7px 'DejaVu Sans'" x="40.999023" y="-3.8921875000000004">5</tspan>
       </text>
      </g>
     </g>
    </g>
    <g id="ytick_8">
     <g id="line2d_24">
      <g>
       <use xlink:href="#m1ea4b79c0c" x="74.01375" y="27.396461" style="stroke: #000000; stroke-width: 0.6"/>
      </g>
     </g>
     <g id="text_17">
      <!-- $\mathdefault{2.6\times10^{5}}$ -->
      <g transform="translate(22.81375 31.195679)">
       <text>
        <tspan style="font: 10px 'DejaVu Sans'" x="0 6.362305 9.541016 17.851562 28.178711 34.541016" y="-0.06406250000000036">2.6×10</tspan>
        <tspan style="font: 7px 'DejaVu Sans'" x="40.999023" y="-3.8921875000000004">5</tspan>
       </text>
      </g>
     </g>
    </g>
    <g id="text_18">
     <text style="font: 12px 'DejaVu Sans', 'Bitstream Vera Sans', 'Computer Modern Sans Serif', 'Lucida Grande', 'Verdana', 'Geneva', 'Lucid', 'Arial', 'Helvetica', 'Avant Garde', sans-serif; text-anchor: middle" x="16.318125" y="276.572969" transform="rotate(-90 16.318125 276.572969)">Median Elapsed Time (nanoseconds)</text>
    </g>
   </g>
   <g id="line2d_25">
    <path d="M 102.563466 436.768971 
L 184.134083 55.603801 
L 265.7047 245.864029 
L 347.275317 398.804482 
L 428.845933 256.775641 
L 510.41655 381.30145 
L 591.987167 315.792385 
L 673.557784 96.510987 
" clip-path="url(#p3067d3435f)" style="fill: none; stroke: #1f77b4; stroke-width: 2; stroke-linecap: square"/>
    <defs>
     <path id="m141f0f739a" d="M 0 3 
C 0.795609 3 1.55874 2.683901 2.12132 2.12132 
C 2.683901 1.55874 3 0.795609 3 0 
C 3 -0.795609 2.683901 -1.55874 2.12132 -2.12132 
C 1.55874 -2.683901 0.795609 -3 0 -3 
C -0.795609 -3 -1.55874 -2.683901 -2.12132 -2.12132 
C -2.683901 -1.55874 -3 -0.795609 -3 0 
C -3 0.795609 -2.683901 1.55874 -2.12132 2.12132 
C -1.55874 2.683901 -0.795609 3 0 3 
z
" style="stroke: #1f77b4"/>
    </defs>
    <g clip-path="url(#p3067d3435f)">
     <use xlink:href="#m141f0f739a" x="102.563466" y="436.768971" style="fill: #1f77b4; stroke: #1f77b4"/>
     <use xlink:href="#m141f0f739a" x="184.134083" y="55.603801" style="fill: #1f77b4; stroke: #1f77b4"/>
     <use xlink:href="#m141f0f739a" x="265.7047" y="245.864029" style="fill: #1f77b4; stroke: #1f77b4"/>
     <use xlink:href="#m141f0f739a" x="347.275317" y="398.804482" style="fill: #1f77b4; stroke: #1f77b4"/>
     <use xlink:href="#m141f0f739a" x="428.845933" y="256.775641" style="fill: #1f77b4; stroke: #1f77b4"/>
     <use xlink:href="#m141f0f739a" x="510.41655" y="381.30145" style="fill: #1f77b4; stroke: #1f77b4"/>
     <use xlink:href="#m141f0f739a" x="591.987167" y="315.792385" style="fill: #1f77b4; stroke: #1f77b4"/>
     <use xlink:href="#m141f0f739a" x="673.557784" y="96.510987" style="fill: #1f77b4; stroke: #1f77b4"/>
    </g>
   </g>
   <g id="line2d_26">
    <path d="M 102.563466 483.978501 
L 184.134083 476.023955 
L 265.7047 491.691197 
L 347.275317 473.817591 
L 428.845933 410.418915 
L 510.41655 500.192126 
L 591.987167 468.741522 
L 673.557784 506.332202 
" clip-path="url(#p3067d3435f)" style="fill: none; stroke: #ff7f0e; stroke-width: 2; stroke-linecap: square"/>
    <defs>
     <path id="m1b437c5df8" d="M 0 3 
C 0.795609 3 1.55874 2.683901 2.12132 2.12132 
C 2.683901 1.55874 3 0.795609 3 0 
C 3 -0.795609 2.683901 -1.55874 2.12132 -2.12132 
C 1.55874 -2.683901 0.795609 -3 0 -3 
C -0.795609 -3 -1.55874 -2.683901 -2.12132 -2.12132 
C -2.683901 -1.55874 -3 -0.795609 -3 0 
C -3 0.795609 -2.683901 1.55874 -2.12132 2.12132 
C -1.55874 2.683901 -0.795609 3 0 3 
z
" style="stroke: #ff7f0e"/>
    </defs>
    <g clip-path="url(#p3067d3435f)">
     <use xlink:href="#m1b437c5df8" x="102.563466" y="483.978501" style="fill: #ff7f0e; stroke: #ff7f0e"/>
     <use xlink:href="#m1b437c5df8" x="184.134083" y="476.023955" style="fill: #ff7f0e; stroke: #ff7f0e"/>
     <use xlink:href="#m1b437c5df8" x="265.7047" y="491.691197" style="fill: #ff7f0e; stroke: #ff7f0e"/>
     <use xlink:href="#m1b437c5df8" x="347.275317" y="473.817591" style="fill: #ff7f0e; stroke: #ff7f0e"/>
     <use xlink:href="#m1b437c5df8" x="428.845933" y="410.418915" style="fill: #ff7f0e; stroke: #ff7f0e"/>
     <use xlink:href="#m1b437c5df8" x="510.41655" y="500.192126" style="fill: #ff7f0e; stroke: #ff7f0e"/>
     <use xlink:href="#m1b437c5df8" x="591.987167" y="468.741522" style="fill: #ff7f0e; stroke: #ff7f0e"/>
     <use xlink:href="#m1b437c5df8" x="673.557784" y="506.332202" style="fill: #ff7f0e; stroke: #ff7f0e"/>
    </g>
   </g>
   <g id="line2d_27">
    <path d="M 102.563466 291.543599 
L 184.134083 121.724649 
L 265.7047 73.732424 
L 347.275317 52.644474 
L 428.845933 272.721601 
L 510.41655 46.813736 
L 591.987167 123.897058 
L 673.557784 60.50465 
" clip-path="url(#p3067d3435f)" style="fill: none; stroke: #2ca02c; stroke-width: 2; stroke-linecap: square"/>
    <defs>
     <path id="ma49748f966" d="M 0 3 
C 0.795609 3 1.55874 2.683901 2.12132 2.12132 
C 2.683901 1.55874 3 0.795609 3 0 
C 3 -0.795609 2.683901 -1.55874 2.12132 -2.12132 
C 1.55874 -2.683901 0.795609 -3 0 -3 
C -0.795609 -3 -1.55874 -2.683901 -2.12132 -2.12132 
C -2.683901 -1.55874 -3 -0.795609 -3 0 
C -3 0.795609 -2.683901 1.55874 -2.12132 2.12132 
C -1.55874 2.683901 -0.795609 3 0 3 
z
" style="stroke: #2ca02c"/>
    </defs>
    <g clip-path="url(#p3067d3435f)">
     <use xlink:href="#ma49748f966" x="102.563466" y="291.543599" style="fill: #2ca02c; stroke: #2ca02c"/>
     <use xlink:href="#ma49748f966" x="184.134083" y="121.724649" style="fill: #2ca02c; stroke: #2ca02c"/>
     <use xlink:href="#ma49748f966" x="265.7047" y="73.732424" style="fill: #2ca02c; stroke: #2ca02c"/>
     <use xlink:href="#ma49748f966" x="347.275317" y="52.644474" style="fill: #2ca02c; stroke: #2ca02c"/>
     <use xlink:href="#ma49748f966" x="428.845933" y="272.721601" style="fill: #2ca02c; stroke: #2ca02c"/>
     <use xlink:href="#ma49748f966" x="510.41655" y="46.813736" style="fill: #2ca02c; stroke: #2ca02c"/>
     <use xlink:href="#ma49748f966" x="591.987167" y="123.897058" style="fill: #2ca02c; stroke: #2ca02c"/>
     <use xlink:href="#ma49748f966" x="673.557784" y="60.50465" style="fill: #2ca02c; stroke: #2ca02c"/>
    </g>
   </g>
   <g id="line2d_28">
    <path d="M 102.563466 368.716495 
L 184.134083 347.322857 
L 265.7047 108.571091 
L 347.275317 339.5784 
L 428.845933 366.135484 
L 510.41655 350.263359 
L 591.987167 400.750179 
L 673.557784 131.869288 
" clip-path="url(#p3067d3435f)" style="fill: none; stroke: #d62728; stroke-width: 2; stroke-linecap: square"/>
    <defs>
     <path id="m3633ccd139" d="M 0 3 
C 0.795609 3 1.55874 2.683901 2.12132 2.12132 
C 2.683901 1.55874 3 0.795609 3 0 
C 3 -0.795609 2.683901 -1.55874 2.12132 -2.12132 
C 1.55874 -2.683901 0.795609 -3 0 -3 
C -0.795609 -3 -1.55874 -2.683901 -2.12132 -2.12132 
C -2.683901 -1.55874 -3 -0.795609 -3 0 
C -3 0.795609 -2.683901 1.55874 -2.12132 2.12132 
C -1.55874 2.683901 -0.795609 3 0 3 
z
" style="stroke: #d62728"/>
    </defs>
    <g clip-path="url(#p3067d3435f)">
     <use xlink:href="#m3633ccd139" x="102.563466" y="368.716495" style="fill: #d62728; stroke: #d62728"/>
     <use xlink:href="#m3633ccd139" x="184.134083" y="347.322857" style="fill: #d62728; stroke: #d62728"/>
     <use xlink:href="#m3633ccd139" x="265.7047" y="108.571091" style="fill: #d62728; stroke: #d62728"/>
     <use xlink:href="#m3633ccd139" x="347.275317" y="339.5784" style="fill: #d62728; stroke: #d62728"/>
     <use xlink:href="#m3633ccd139" x="428.845933" y="366.135484" style="fill: #d62728; stroke: #d62728"/>
     <use xlink:href="#m3633ccd139" x="510.41655" y="350.263359" style="fill: #d62728; stroke: #d62728"/>
     <use xlink:href="#m3633ccd139" x="591.987167" y="400.750179" style="fill: #d62728; stroke: #d62728"/>
     <use xlink:href="#m3633ccd139" x="673.557784" y="131.869288" style="fill: #d62728; stroke: #d62728"/>
    </g>
   </g>
   <g id="line2d_29">
    <path d="M 102.563466 462.950003 
L 184.134083 476.130747 
L 265.7047 447.216568 
L 347.275317 469.638281 
L 428.845933 429.040338 
L 510.41655 461.973668 
L 591.987167 484.457724 
L 673.557784 451.98681 
" clip-path="url(#p3067d3435f)" style="fill: none; stroke: #9467bd; stroke-width: 2; stroke-linecap: square"/>
    <defs>
     <path id="m85c18c8f43" d="M 0 3 
C 0.795609 3 1.55874 2.683901 2.12132 2.12132 
C 2.683901 1.55874 3 0.795609 3 0 
C 3 -0.795609 2.683901 -1.55874 2.12132 -2.12132 
C 1.55874 -2.683901 0.795609 -3 0 -3 
C -0.795609 -3 -1.55874 -2.683901 -2.12132 -2.12132 
C -2.683901 -1.55874 -3 -0.795609 -3 0 
C -3 0.795609 -2.683901 1.55874 -2.12132 2.12132 
C -1.55874 2.683901 -0.795609 3 0 3 
z
" style="stroke: #9467bd"/>
    </defs>
    <g clip-path="url(#p3067d3435f)">
     <use xlink:href="#m85c18c8f43" x="102.563466" y="462.950003" style="fill: #9467bd; stroke: #9467bd"/>
     <use xlink:href="#m85c18c8f43" x="184.134083" y="476.130747" style="fill: #9467bd; stroke: #9467bd"/>
     <use xlink:href="#m85c18c8f43" x="265.7047" y="447.216568" style="fill: #9467bd; stroke: #9467bd"/>
     <use xlink:href="#m85c18c8f43" x="347.275317" y="469.638281" style="fill: #9467bd; stroke: #9467bd"/>
     <use xlink:href="#m85c18c8f43" x="428.845933" y="429.040338" style="fill: #9467bd; stroke: #9467bd"/>
     <use xlink:href="#m85c18c8f43" x="510.41655" y="461.973668" style="fill: #9467bd; stroke: #9467bd"/>
     <use xlink:href="#m85c18c8f43" x="591.987167" y="484.457724" style="fill: #9467bd; stroke: #9467bd"/>
     <use xlink:href="#m85c18c8f43" x="673.557784" y="451.98681" style="fill: #9467bd; stroke: #9467bd"/>
    </g>
   </g>
   <g id="line2d_30">
    <path d="M 102.563466 320.503536 
L 184.134083 73.988055 
L 265.7047 323.562696 
L 347.275317 296.724507 
L 428.845933 238.527862 
L 510.41655 309.702186 
L 591.987167 287.184537 
L 673.557784 227.386237 
" clip-path="url(#p3067d3435f)" style="fill: none; stroke: #8c564b; stroke-width: 2; stroke-linecap: square"/>
    <defs>
     <path id="mb9c003f8c3" d="M 0 3 
C 0.795609 3 1.55874 2.683901 2.12132 2.12132 
C 2.683901 1.55874 3 0.795609 3 0 
C 3 -0.795609 2.683901 -1.55874 2.12132 -2.12132 
C 1.55874 -2.683901 0.795609 -3 0 -3 
C -0.795609 -3 -1.55874 -2.683901 -2.12132 -2.12132 
C -2.683901 -1.55874 -3 -0.795609 -3 0 
C -3 0.795609 -2.683901 1.55874 -2.12132 2.12132 
C -1.55874 2.683901 -0.795609 3 0 3 
z
" style="stroke: #8c564b"/>
    </defs>
    <g clip-path="url(#p3067d3435f)">
     <use xlink:href="#mb9c003f8c3" x="102.563466" y="320.503536" style="fill: #8c564b; stroke: #8c564b"/>
     <use xlink:href="#mb9c003f8c3" x="184.134083" y="73.988055" style="fill: #8c564b; stroke: #8c564b"/>
     <use xlink:href="#mb9c003f8c3" x="265.7047" y="323.562696" style="fill: #8c564b; stroke: #8c564b"/>
     <use xlink:href="#mb9c003f8c3" x="347.275317" y="296.724507" style="fill: #8c564b; stroke: #8c564b"/>
     <use xlink:href="#mb9c003f8c3" x="428.845933" y="238.527862" style="fill: #8c564b; stroke: #8c564b"/>
     <use xlink:href="#mb9c003f8c3" x="510.41655" y="309.702186" style="fill: #8c564b; stroke: #8c564b"/>
     <use xlink:href="#mb9c003f8c3" x="591.987167" y="287.184537" style="fill: #8c564b; stroke: #8c564b"/>
     <use xlink:href="#mb9c003f8c3" x="673.557784" y="227.386237" style="fill: #8c564b; stroke: #8c564b"/>
    </g>
   </g>
   <g id="patch_3">
    <path d="M 74.01375 529.308125 
L 74.01375 23.837813 
" style="fill: none; stroke: #000000; stroke-width: 0.8; stroke-linejoin: miter; stroke-linecap: square"/>
   </g>
   <g id="patch_4">
    <path d="M 702.1075 529.308125 
L 702.1075 23.837813 
" style="fill: none; stroke: #000000; stroke-width: 0.8; stroke-linejoin: miter; stroke-linecap: square"/>
   </g>
   <g id="patch_5">
    <path d="M 74.01375 529.308125 
L 702.1075 529.308125 
" style="fill: none; stroke: #000000; stroke-width: 0.8; stroke-linejoin: miter; stroke-linecap: square"/>
   </g>
   <g id="patch_6">
    <path d="M 74.01375 23.837812 
L 702.1075 23.837812 
" style="fill: none; stroke: #000000; stroke-width: 0.8; stroke-linejoin: miter; stroke-linecap: square"/>
   </g>
   <g id="text_19">
    <text style="font: 700 14px 'DejaVu Sans', 'Bitstream Vera Sans', 'Computer Modern Sans Serif', 'Lucida Grande', 'Verdana', 'Geneva', 'Lucid', 'Arial', 'Helvetica', 'Avant Garde', sans-serif; text-anchor: middle" x="388.060625" y="17.837813" transform="rotate(-0 388.060625 17.837813)">Tasksubmission - Performance Trend</text>
   </g>
   <g id="legend_1">
    <g id="patch_7">
     <path d="M 740.512187 119.906563 
L 845.524688 119.906563 
Q 847.524688 119.906563 847.524688 117.906563 
L 847.524688 30.837813 
Q 847.524688 28.837813 845.524688 28.837813 
L 740.512187 28.837813 
Q 738.512187 28.837813 738.512187 30.837813 
L 738.512187 117.906563 
Q 738.512187 119.906563 740.512187 119.906563 
z
" style="fill: #ffffff; opacity: 0.8; stroke: #cccccc; stroke-linejoin: miter"/>
    </g>
    <g id="line2d_31">
     <path d="M 742.512187 36.93625 
L 752.512187 36.93625 
L 762.512187 36.93625 
" style="fill: none; stroke: #1f77b4; stroke-width: 2; stroke-linecap: square"/>
     <g>
      <use xlink:href="#m141f0f739a" x="752.512187" y="36.93625" style="fill: #1f77b4; stroke: #1f77b4"/>
     </g>
    </g>
    <g id="text_20">
     <text style="font: 10px 'DejaVu Sans', 'Bitstream Vera Sans', 'Computer Modern Sans Serif', 'Lucida Grande', 'Verdana', 'Geneva', 'Lucid', 'Arial', 'Helvetica', 'Avant Garde', sans-serif; text-anchor: start" x="770.512187" y="40.43625" transform="rotate(-0 770.512187 40.43625)">gcc-14.2 - V1</text>
    </g>
    <g id="line2d_32">
     <path d="M 742.512187 51.614375 
L 752.512187 51.614375 
L 762.512187 51.614375 
" style="fill: none; stroke: #ff7f0e; stroke-width: 2; stroke-linecap: square"/>
     <g>
      <use xlink:href="#m1b437c5df8" x="752.512187" y="51.614375" style="fill: #ff7f0e; stroke: #ff7f0e"/>
     </g>
    </g>
    <g id="text_21">
     <text style="font: 10px 'DejaVu Sans', 'Bitstream Vera Sans', 'Computer Modern Sans Serif', 'Lucida Grande', 'Verdana', 'Geneva', 'Lucid', 'Arial', 'Helvetica', 'Avant Garde', sans-serif; text-anchor: start" x="770.512187" y="55.114375" transform="rotate(-0 770.512187 55.114375)">gcc-14.2 - V2</text>
    </g>
    <g id="line2d_33">
     <path d="M 742.512187 66.2925 
L 752.512187 66.2925 
L 762.512187 66.2925 
" style="fill: none; stroke: #2ca02c; stroke-width: 2; stroke-linecap: square"/>
     <g>
      <use xlink:href="#ma49748f966" x="752.512187" y="66.2925" style="fill: #2ca02c; stroke: #2ca02c"/>
     </g>
    </g>
    <g id="text_22">
     <text style="font: 10px 'DejaVu Sans', 'Bitstream Vera Sans', 'Computer Modern Sans Serif', 'Lucida Grande', 'Verdana', 'Geneva', 'Lucid', 'Arial', 'Helvetica', 'Avant Garde', sans-serif; text-anchor: start" x="770.512187" y="69.7925" transform="rotate(-0 770.512187 69.7925)">gcc-14.2 - TBB</text>
    </g>
    <g id="line2d_34">
     <path d="M 742.512187 80.970625 
L 752.512187 80.970625 
L 762.512187 80.970625 
" style="fill: none; stroke: #d62728; stroke-width: 2; stroke-linecap: square"/>
     <g>
      <use xlink:href="#m3633ccd139" x="752.512187" y="80.970625" style="fill: #d62728; stroke: #d62728"/>
     </g>
    </g>
    <g id="text_23">
     <text style="font: 10px 'DejaVu Sans', 'Bitstream Vera Sans', 'Computer Modern Sans Serif', 'Lucida Grande', 'Verdana', 'Geneva', 'Lucid', 'Arial', 'Helvetica', 'Avant Garde', sans-serif; text-anchor: start" x="770.512187" y="84.470625" transform="rotate(-0 770.512187 84.470625)">gcc-4.2 - V1</text>
    </g>
    <g id="line2d_35">
     <path d="M 742.512187 95.64875 
L 752.512187 95.64875 
L 762.512187 95.64875 
" style="fill: none; stroke: #9467bd; stroke-width: 2; stroke-linecap: square"/>
     <g>
      <use xlink:href="#m85c18c8f43" x="752.512187" y="95.64875" style="fill: #9467bd; stroke: #9467bd"/>
     </g>
    </g>
    <g id="text_24">
     <text style="font: 10px 'DejaVu Sans', 'Bitstream Vera Sans', 'Computer Modern Sans Serif', 'Lucida Grande', 'Verdana', 'Geneva', 'Lucid', 'Arial', 'Helvetica', 'Avant Garde', sans-serif; text-anchor: start" x="770.512187" y="99.14875" transform="rotate(-0 770.512187 99.14875)">gcc-4.2 - V2</text>
    </g>
    <g id="line2d_36">
     <path d="M 742.512187 110.326875 
L 752.512187 110.326875 
L 762.512187 110.326875 
" style="fill: none; stroke: #8c564b; stroke-width: 2; stroke-linecap: square"/>
     <g>
      <use xlink:href="#mb9c003f8c3" x="752.512187" y="110.326875" style="fill: #8c564b; stroke: #8c564b"/>
     </g>
    </g>
    <g id="text_25">
     <text style="font: 10px 'DejaVu Sans', 'Bitstream Vera Sans', 'Computer Modern Sans Serif', 'Lucida Grande', 'Verdana', 'Geneva', 'Lucid', 'Arial', 'Helvetica', 'Avant Garde', sans-serif; text-anchor: start" x="770.512187" y="113.826875" transform="rotate(-0 770.512187 113.826875)">gcc-4.2 - TBB</text>
    </g>
   </g>
  </g>
 </g>
 <defs>
  <clipPath id="p3067d3435f">
   <rect x="74.01375" y="23.837813" width="628.09375" height="505.470313"/>
  </clipPath>
 </defs>
</svg>
