<?xml version="1.0" encoding="utf-8" standalone="no"?>
<!DOCTYPE svg PUBLIC "-//W3C//DTD SVG 1.1//EN"
  "http://www.w3.org/Graphics/SVG/1.1/DTD/svg11.dtd">
<svg xmlns:xlink="http://www.w3.org/1999/xlink" width="855.889141pt" height="568.8pt" viewBox="0 0 855.889141 568.8" xmlns="http://www.w3.org/2000/svg" version="1.1">
 <metadata>
  <rdf:RDF xmlns:dc="http://purl.org/dc/elements/1.1/" xmlns:cc="http://creativecommons.org/ns#" xmlns:rdf="http://www.w3.org/1999/02/22-rdf-syntax-ns#">
   <cc:Work>
    <dc:type rdf:resource="http://purl.org/dc/dcmitype/StillImage"/>
    <dc:date>2025-08-28T18:43:32.079302</dc:date>
    <dc:format>image/svg+xml</dc:format>
    <dc:creator>
     <cc:Agent>
      <dc:title>Matplotlib v3.9.4, https://matplotlib.org/</dc:title>
     </cc:Agent>
    </dc:creator>
   </cc:Work>
  </rdf:RDF>
 </metadata>
 <defs>
  <style type="text/css">*{stroke-linejoin: round; stroke-linecap: butt}</style>
 </defs>
 <g id="figure_1">
  <g id="patch_1">
   <path d="M 0 568.8 
L 855.889141 568.8 
L 855.889141 0 
L 0 0 
z
" style="fill: #ffffff"/>
  </g>
  <g id="axes_1">
   <g id="patch_2">
    <path d="M 80.31375 529.308125 
L 731.696562 529.308125 
L 731.696562 23.837812 
L 80.31375 23.837812 
z
" style="fill: #ffffff"/>
   </g>
   <g id="matplotlib.axis_1">
    <g id="xtick_1">
     <g id="line2d_1">
      <path d="M 94.338739 529.308125 
L 94.338739 23.837812 
" clip-path="url(#p35c148e257)" style="fill: none; stroke: #b0b0b0; stroke-opacity: 0.3; stroke-width: 0.8; stroke-linecap: square"/>
     </g>
     <g id="line2d_2">
      <defs>
       <path id="mf48b804585" d="M 0 0 
L 0 3.5 
" style="stroke: #000000; stroke-width: 0.8"/>
      </defs>
      <g>
       <use xlink:href="#mf48b804585" x="94.338739" y="529.308125" style="stroke: #000000; stroke-width: 0.8"/>
      </g>
     </g>
     <g id="text_1">
      <text style="font: 10px 'DejaVu Sans', 'Bitstream Vera Sans', 'Computer Modern Sans Serif', 'Lucida Grande', 'Verdana', 'Geneva', 'Lucid', 'Arial', 'Helvetica', 'Avant Garde', sans-serif; text-anchor: middle" x="94.338739" y="543.906563" transform="rotate(-0 94.338739 543.906563)">70</text>
     </g>
    </g>
    <g id="xtick_2">
     <g id="line2d_3">
      <path d="M 172.255343 529.308125 
L 172.255343 23.837812 
" clip-path="url(#p35c148e257)" style="fill: none; stroke: #b0b0b0; stroke-opacity: 0.3; stroke-width: 0.8; stroke-linecap: square"/>
     </g>
     <g id="line2d_4">
      <g>
       <use xlink:href="#mf48b804585" x="172.255343" y="529.308125" style="stroke: #000000; stroke-width: 0.8"/>
      </g>
     </g>
     <g id="text_2">
      <text style="font: 10px 'DejaVu Sans', 'Bitstream Vera Sans', 'Computer Modern Sans Serif', 'Lucida Grande', 'Verdana', 'Geneva', 'Lucid', 'Arial', 'Helvetica', 'Avant Garde', sans-serif; text-anchor: middle" x="172.255343" y="543.906563" transform="rotate(-0 172.255343 543.906563)">75</text>
     </g>
    </g>
    <g id="xtick_3">
     <g id="line2d_5">
      <path d="M 250.171948 529.308125 
L 250.171948 23.837812 
" clip-path="url(#p35c148e257)" style="fill: none; stroke: #b0b0b0; stroke-opacity: 0.3; stroke-width: 0.8; stroke-linecap: square"/>
     </g>
     <g id="line2d_6">
      <g>
       <use xlink:href="#mf48b804585" x="250.171948" y="529.308125" style="stroke: #000000; stroke-width: 0.8"/>
      </g>
     </g>
     <g id="text_3">
      <text style="font: 10px 'DejaVu Sans', 'Bitstream Vera Sans', 'Computer Modern Sans Serif', 'Lucida Grande', 'Verdana', 'Geneva', 'Lucid', 'Arial', 'Helvetica', 'Avant Garde', sans-serif; text-anchor: middle" x="250.171948" y="543.906563" transform="rotate(-0 250.171948 543.906563)">80</text>
     </g>
    </g>
    <g id="xtick_4">
     <g id="line2d_7">
      <path d="M 328.088552 529.308125 
L 328.088552 23.837812 
" clip-path="url(#p35c148e257)" style="fill: none; stroke: #b0b0b0; stroke-opacity: 0.3; stroke-width: 0.8; stroke-linecap: square"/>
     </g>
     <g id="line2d_8">
      <g>
       <use xlink:href="#mf48b804585" x="328.088552" y="529.308125" style="stroke: #000000; stroke-width: 0.8"/>
      </g>
     </g>
     <g id="text_4">
      <text style="font: 10px 'DejaVu Sans', 'Bitstream Vera Sans', 'Computer Modern Sans Serif', 'Lucida Grande', 'Verdana', 'Geneva', 'Lucid', 'Arial', 'Helvetica', 'Avant Garde', sans-serif; text-anchor: middle" x="328.088552" y="543.906563" transform="rotate(-0 328.088552 543.906563)">85</text>
     </g>
    </g>
    <g id="xtick_5">
     <g id="line2d_9">
      <path d="M 406.005156 529.308125 
L 406.005156 23.837812 
" clip-path="url(#p35c148e257)" style="fill: none; stroke: #b0b0b0; stroke-opacity: 0.3; stroke-width: 0.8; stroke-linecap: square"/>
     </g>
     <g id="line2d_10">
      <g>
       <use xlink:href="#mf48b804585" x="406.005156" y="529.308125" style="stroke: #000000; stroke-width: 0.8"/>
      </g>
     </g>
     <g id="text_5">
      <text style="font: 10px 'DejaVu Sans', 'Bitstream Vera Sans', 'Computer Modern Sans Serif', 'Lucida Grande', 'Verdana', 'Geneva', 'Lucid', 'Arial', 'Helvetica', 'Avant Garde', sans-serif; text-anchor: middle" x="406.005156" y="543.906563" transform="rotate(-0 406.005156 543.906563)">90</text>
     </g>
    </g>
    <g id="xtick_6">
     <g id="line2d_11">
      <path d="M 483.921761 529.308125 
L 483.921761 23.837812 
" clip-path="url(#p35c148e257)" style="fill: none; stroke: #b0b0b0; stroke-opacity: 0.3; stroke-width: 0.8; stroke-linecap: square"/>
     </g>
     <g id="line2d_12">
      <g>
       <use xlink:href="#mf48b804585" x="483.921761" y="529.308125" style="stroke: #000000; stroke-width: 0.8"/>
      </g>
     </g>
     <g id="text_6">
      <text style="font: 10px 'DejaVu Sans', 'Bitstream Vera Sans', 'Computer Modern Sans Serif', 'Lucida Grande', 'Verdana', 'Geneva', 'Lucid', 'Arial', 'Helvetica', 'Avant Garde', sans-serif; text-anchor: middle" x="483.921761" y="543.906563" transform="rotate(-0 483.921761 543.906563)">95</text>
     </g>
    </g>
    <g id="xtick_7">
     <g id="line2d_13">
      <path d="M 561.838365 529.308125 
L 561.838365 23.837812 
" clip-path="url(#p35c148e257)" style="fill: none; stroke: #b0b0b0; stroke-opacity: 0.3; stroke-width: 0.8; stroke-linecap: square"/>
     </g>
     <g id="line2d_14">
      <g>
       <use xlink:href="#mf48b804585" x="561.838365" y="529.308125" style="stroke: #000000; stroke-width: 0.8"/>
      </g>
     </g>
     <g id="text_7">
      <text style="font: 10px 'DejaVu Sans', 'Bitstream Vera Sans', 'Computer Modern Sans Serif', 'Lucida Grande', 'Verdana', 'Geneva', 'Lucid', 'Arial', 'Helvetica', 'Avant Garde', sans-serif; text-anchor: middle" x="561.838365" y="543.906563" transform="rotate(-0 561.838365 543.906563)">100</text>
     </g>
    </g>
    <g id="xtick_8">
     <g id="line2d_15">
      <path d="M 639.754969 529.308125 
L 639.754969 23.837812 
" clip-path="url(#p35c148e257)" style="fill: none; stroke: #b0b0b0; stroke-opacity: 0.3; stroke-width: 0.8; stroke-linecap: square"/>
     </g>
     <g id="line2d_16">
      <g>
       <use xlink:href="#mf48b804585" x="639.754969" y="529.308125" style="stroke: #000000; stroke-width: 0.8"/>
      </g>
     </g>
     <g id="text_8">
      <text style="font: 10px 'DejaVu Sans', 'Bitstream Vera Sans', 'Computer Modern Sans Serif', 'Lucida Grande', 'Verdana', 'Geneva', 'Lucid', 'Arial', 'Helvetica', 'Avant Garde', sans-serif; text-anchor: middle" x="639.754969" y="543.906563" transform="rotate(-0 639.754969 543.906563)">105</text>
     </g>
    </g>
    <g id="xtick_9">
     <g id="line2d_17">
      <path d="M 717.671574 529.308125 
L 717.671574 23.837812 
" clip-path="url(#p35c148e257)" style="fill: none; stroke: #b0b0b0; stroke-opacity: 0.3; stroke-width: 0.8; stroke-linecap: square"/>
     </g>
     <g id="line2d_18">
      <g>
       <use xlink:href="#mf48b804585" x="717.671574" y="529.308125" style="stroke: #000000; stroke-width: 0.8"/>
      </g>
     </g>
     <g id="text_9">
      <text style="font: 10px 'DejaVu Sans', 'Bitstream Vera Sans', 'Computer Modern Sans Serif', 'Lucida Grande', 'Verdana', 'Geneva', 'Lucid', 'Arial', 'Helvetica', 'Avant Garde', sans-serif; text-anchor: middle" x="717.671574" y="543.906563" transform="rotate(-0 717.671574 543.906563)">110</text>
     </g>
    </g>
    <g id="text_10">
     <text style="font: 12px 'DejaVu Sans', 'Bitstream Vera Sans', 'Computer Modern Sans Serif', 'Lucida Grande', 'Verdana', 'Geneva', 'Lucid', 'Arial', 'Helvetica', 'Avant Garde', sans-serif; text-anchor: middle" x="406.005156" y="559.104375" transform="rotate(-0 406.005156 559.104375)">Build Number</text>
    </g>
   </g>
   <g id="matplotlib.axis_2">
    <g id="ytick_1">
     <g id="line2d_19">
      <defs>
       <path id="m948ce289bf" d="M 0 0 
L -2 0 
" style="stroke: #000000; stroke-width: 0.6"/>
      </defs>
      <g>
       <use xlink:href="#m948ce289bf" x="80.31375" y="498.484932" style="stroke: #000000; stroke-width: 0.6"/>
      </g>
     </g>
     <g id="text_11">
      <!-- $\mathdefault{1.9\times10^{2}}$ -->
      <g transform="translate(29.11375 502.28415)">
       <text>
        <tspan style="font: 10px 'DejaVu Sans'" x="0 6.362305 9.541016 17.851562 28.178711 34.541016" y="-0.9765625">1.9×10</tspan>
        <tspan style="font: 7px 'DejaVu Sans'" x="40.999023" y="-4.8046875">2</tspan>
       </text>
      </g>
     </g>
    </g>
    <g id="ytick_2">
     <g id="line2d_20">
      <g>
       <use xlink:href="#m948ce289bf" x="80.31375" y="426.866594" style="stroke: #000000; stroke-width: 0.6"/>
      </g>
     </g>
     <g id="text_12">
      <!-- $\mathdefault{1.95\times10^{2}}$ -->
      <g transform="translate(22.81375 430.665812)">
       <text>
        <tspan style="font: 10px 'DejaVu Sans'" x="0 6.362305 9.541016 15.90332 24.213867 34.541016 40.90332" y="-0.9765625">1.95×10</tspan>
        <tspan style="font: 7px 'DejaVu Sans'" x="47.361328" y="-4.8046875">2</tspan>
       </text>
      </g>
     </g>
    </g>
    <g id="ytick_3">
     <g id="line2d_21">
      <g>
       <use xlink:href="#m948ce289bf" x="80.31375" y="357.061574" style="stroke: #000000; stroke-width: 0.6"/>
      </g>
     </g>
     <g id="text_13">
      <!-- $\mathdefault{2\times10^{2}}$ -->
      <g transform="translate(38.71375 360.860793)">
       <text>
        <tspan style="font: 10px 'DejaVu Sans'" x="0 8.310547 18.637695 25" y="-0.9765625">2×10</tspan>
        <tspan style="font: 7px 'DejaVu Sans'" x="31.458008" y="-4.8046875">2</tspan>
       </text>
      </g>
     </g>
    </g>
    <g id="ytick_4">
     <g id="line2d_22">
      <g>
       <use xlink:href="#m948ce289bf" x="80.31375" y="288.980313" style="stroke: #000000; stroke-width: 0.6"/>
      </g>
     </g>
     <g id="text_14">
      <!-- $\mathdefault{2.05\times10^{2}}$ -->
      <g transform="translate(22.81375 292.779532)">
       <text>
        <tspan style="font: 10px 'DejaVu Sans'" x="0 6.362305 9.541016 15.90332 24.213867 34.541016 40.90332" y="-0.9765625">2.05×10</tspan>
        <tspan style="font: 7px 'DejaVu Sans'" x="47.361328" y="-4.8046875">2</tspan>
       </text>
      </g>
     </g>
    </g>
    <g id="ytick_5">
     <g id="line2d_23">
      <g>
       <use xlink:href="#m948ce289bf" x="80.31375" y="222.539725" style="stroke: #000000; stroke-width: 0.6"/>
      </g>
     </g>
     <g id="text_15">
      <!-- $\mathdefault{2.1\times10^{2}}$ -->
      <g transform="translate(29.11375 226.338944)">
       <text>
        <tspan style="font: 10px 'DejaVu Sans'" x="0 6.362305 9.541016 17.851562 28.178711 34.541016" y="-0.9765625">2.1×10</tspan>
        <tspan style="font: 7px 'DejaVu Sans'" x="40.999023" y="-4.8046875">2</tspan>
       </text>
      </g>
     </g>
    </g>
    <g id="ytick_6">
     <g id="line2d_24">
      <g>
       <use xlink:href="#m948ce289bf" x="80.31375" y="157.662591" style="stroke: #000000; stroke-width: 0.6"/>
      </g>
     </g>
     <g id="text_16">
      <!-- $\mathdefault{2.15\times10^{2}}$ -->
      <g transform="translate(22.81375 161.461809)">
       <text>
        <tspan style="font: 10px 'DejaVu Sans'" x="0 6.362305 9.541016 15.90332 24.213867 34.541016 40.90332" y="-0.9765625">2.15×10</tspan>
        <tspan style="font: 7px 'DejaVu Sans'" x="47.361328" y="-4.8046875">2</tspan>
       </text>
      </g>
     </g>
    </g>
    <g id="ytick_7">
     <g id="line2d_25">
      <g>
       <use xlink:href="#m948ce289bf" x="80.31375" y="94.277018" style="stroke: #000000; stroke-width: 0.6"/>
      </g>
     </g>
     <g id="text_17">
      <!-- $\mathdefault{2.2\times10^{2}}$ -->
      <g transform="translate(29.71375 98.076236)">
       <text>
        <tspan style="font: 10px 'DejaVu Sans'" x="0 6.362305 9.041016 17.351562 27.678711 34.041016" y="-0.9765625">2.2×10</tspan>
        <tspan style="font: 7px 'DejaVu Sans'" x="40.499023" y="-4.8046875">2</tspan>
       </text>
      </g>
     </g>
    </g>
    <g id="ytick_8">
     <g id="line2d_26">
      <g>
       <use xlink:href="#m948ce289bf" x="80.31375" y="32.315961" style="stroke: #000000; stroke-width: 0.6"/>
      </g>
     </g>
     <g id="text_18">
      <!-- $\mathdefault{2.25\times10^{2}}$ -->
      <g transform="translate(23.31375 36.11518)">
       <text>
        <tspan style="font: 10px 'DejaVu Sans'" x="0 6.362305 9.041016 15.40332 23.713867 34.041016 40.40332" y="-0.9765625">2.25×10</tspan>
        <tspan style="font: 7px 'DejaVu Sans'" x="46.861328" y="-4.8046875">2</tspan>
       </text>
      </g>
     </g>
    </g>
    <g id="text_19">
     <text style="font: 12px 'DejaVu Sans', 'Bitstream Vera Sans', 'Computer Modern Sans Serif', 'Lucida Grande', 'Verdana', 'Geneva', 'Lucid', 'Arial', 'Helvetica', 'Avant Garde', sans-serif; text-anchor: middle" x="16.318125" y="276.572969" transform="rotate(-90 16.318125 276.572969)">Median Elapsed Time (nanoseconds)</text>
    </g>
   </g>
   <g id="line2d_27">
    <path d="M 109.92206 296.738053 
L 125.505381 269.013009 
L 141.088701 454.43407 
L 156.672022 275.875447 
L 172.255343 285.217018 
L 187.838664 116.928317 
L 203.421985 125.660895 
L 219.005306 451.579285 
L 234.588627 286.426088 
L 250.171948 433.094887 
L 265.755268 107.9714 
L 281.338589 289.114811 
L 296.92191 295.848113 
L 328.088552 283.739985 
L 343.671873 294.500137 
L 374.838515 506.332202 
L 390.421835 82.89596 
L 406.005156 62.874615 
L 421.588477 290.594728 
L 437.171798 438.769207 
L 468.33844 113.013971 
L 483.921761 297.331649 
L 499.505081 279.715729 
L 515.088402 120.595162 
L 546.255044 300.031033 
L 561.838365 474.64462 
L 577.421686 443.174851 
L 593.005007 289.114811 
L 608.588328 291.940796 
L 624.171648 116.801961 
L 639.754969 235.550109 
L 655.33829 290.594728 
L 686.504932 301.246619 
L 702.088253 100.424794 
" clip-path="url(#p35c148e257)" style="fill: none; stroke: #1f77b4; stroke-width: 2; stroke-linecap: square"/>
    <defs>
     <path id="m2004021cb3" d="M 0 3 
C 0.795609 3 1.55874 2.683901 2.12132 2.12132 
C 2.683901 1.55874 3 0.795609 3 0 
C 3 -0.795609 2.683901 -1.55874 2.12132 -2.12132 
C 1.55874 -2.683901 0.795609 -3 0 -3 
C -0.795609 -3 -1.55874 -2.683901 -2.12132 -2.12132 
C -2.683901 -1.55874 -3 -0.795609 -3 0 
C -3 0.795609 -2.683901 1.55874 -2.12132 2.12132 
C -1.55874 2.683901 -0.795609 3 0 3 
z
" style="stroke: #1f77b4"/>
    </defs>
    <g clip-path="url(#p35c148e257)">
     <use xlink:href="#m2004021cb3" x="109.92206" y="296.738053" style="fill: #1f77b4; stroke: #1f77b4"/>
     <use xlink:href="#m2004021cb3" x="125.505381" y="269.013009" style="fill: #1f77b4; stroke: #1f77b4"/>
     <use xlink:href="#m2004021cb3" x="141.088701" y="454.43407" style="fill: #1f77b4; stroke: #1f77b4"/>
     <use xlink:href="#m2004021cb3" x="156.672022" y="275.875447" style="fill: #1f77b4; stroke: #1f77b4"/>
     <use xlink:href="#m2004021cb3" x="172.255343" y="285.217018" style="fill: #1f77b4; stroke: #1f77b4"/>
     <use xlink:href="#m2004021cb3" x="187.838664" y="116.928317" style="fill: #1f77b4; stroke: #1f77b4"/>
     <use xlink:href="#m2004021cb3" x="203.421985" y="125.660895" style="fill: #1f77b4; stroke: #1f77b4"/>
     <use xlink:href="#m2004021cb3" x="219.005306" y="451.579285" style="fill: #1f77b4; stroke: #1f77b4"/>
     <use xlink:href="#m2004021cb3" x="234.588627" y="286.426088" style="fill: #1f77b4; stroke: #1f77b4"/>
     <use xlink:href="#m2004021cb3" x="250.171948" y="433.094887" style="fill: #1f77b4; stroke: #1f77b4"/>
     <use xlink:href="#m2004021cb3" x="265.755268" y="107.9714" style="fill: #1f77b4; stroke: #1f77b4"/>
     <use xlink:href="#m2004021cb3" x="281.338589" y="289.114811" style="fill: #1f77b4; stroke: #1f77b4"/>
     <use xlink:href="#m2004021cb3" x="296.92191" y="295.848113" style="fill: #1f77b4; stroke: #1f77b4"/>
     <use xlink:href="#m2004021cb3" x="328.088552" y="283.739985" style="fill: #1f77b4; stroke: #1f77b4"/>
     <use xlink:href="#m2004021cb3" x="343.671873" y="294.500137" style="fill: #1f77b4; stroke: #1f77b4"/>
     <use xlink:href="#m2004021cb3" x="374.838515" y="506.332202" style="fill: #1f77b4; stroke: #1f77b4"/>
     <use xlink:href="#m2004021cb3" x="390.421835" y="82.89596" style="fill: #1f77b4; stroke: #1f77b4"/>
     <use xlink:href="#m2004021cb3" x="406.005156" y="62.874615" style="fill: #1f77b4; stroke: #1f77b4"/>
     <use xlink:href="#m2004021cb3" x="421.588477" y="290.594728" style="fill: #1f77b4; stroke: #1f77b4"/>
     <use xlink:href="#m2004021cb3" x="437.171798" y="438.769207" style="fill: #1f77b4; stroke: #1f77b4"/>
     <use xlink:href="#m2004021cb3" x="468.33844" y="113.013971" style="fill: #1f77b4; stroke: #1f77b4"/>
     <use xlink:href="#m2004021cb3" x="483.921761" y="297.331649" style="fill: #1f77b4; stroke: #1f77b4"/>
     <use xlink:href="#m2004021cb3" x="499.505081" y="279.715729" style="fill: #1f77b4; stroke: #1f77b4"/>
     <use xlink:href="#m2004021cb3" x="515.088402" y="120.595162" style="fill: #1f77b4; stroke: #1f77b4"/>
     <use xlink:href="#m2004021cb3" x="546.255044" y="300.031033" style="fill: #1f77b4; stroke: #1f77b4"/>
     <use xlink:href="#m2004021cb3" x="561.838365" y="474.64462" style="fill: #1f77b4; stroke: #1f77b4"/>
     <use xlink:href="#m2004021cb3" x="577.421686" y="443.174851" style="fill: #1f77b4; stroke: #1f77b4"/>
     <use xlink:href="#m2004021cb3" x="593.005007" y="289.114811" style="fill: #1f77b4; stroke: #1f77b4"/>
     <use xlink:href="#m2004021cb3" x="608.588328" y="291.940796" style="fill: #1f77b4; stroke: #1f77b4"/>
     <use xlink:href="#m2004021cb3" x="624.171648" y="116.801961" style="fill: #1f77b4; stroke: #1f77b4"/>
     <use xlink:href="#m2004021cb3" x="639.754969" y="235.550109" style="fill: #1f77b4; stroke: #1f77b4"/>
     <use xlink:href="#m2004021cb3" x="655.33829" y="290.594728" style="fill: #1f77b4; stroke: #1f77b4"/>
     <use xlink:href="#m2004021cb3" x="686.504932" y="301.246619" style="fill: #1f77b4; stroke: #1f77b4"/>
     <use xlink:href="#m2004021cb3" x="702.088253" y="100.424794" style="fill: #1f77b4; stroke: #1f77b4"/>
    </g>
   </g>
   <g id="line2d_28">
    <path d="M 109.92206 287.904562 
L 125.505381 268.772299 
L 141.088701 279.849776 
L 156.672022 110.491533 
L 172.255343 249.056705 
L 187.838664 408.967986 
L 203.421985 439.517676 
L 219.005306 249.056705 
L 234.588627 273.844596 
L 250.171948 66.718372 
L 265.755268 46.813736 
L 281.338589 417.409543 
L 296.92191 89.018384 
L 312.505231 302.733063 
L 328.088552 410.373119 
L 343.671873 430.628028 
L 374.838515 92.773527 
L 390.421835 443.032623 
L 406.005156 95.405174 
L 421.588477 259.815166 
L 437.171798 428.705307 
L 452.755119 294.634905 
L 468.33844 416.000821 
L 483.921761 453.006308 
L 499.505081 254.364278 
L 515.088402 281.190608 
L 546.255044 250.543933 
L 561.838365 447.302643 
L 577.421686 97.913841 
L 593.005007 79.154237 
L 608.588328 265.010176 
L 624.171648 427.290803 
L 639.754969 71.685989 
L 655.33829 390.766131 
L 686.504932 300.031033 
L 702.088253 392.162016 
" clip-path="url(#p35c148e257)" style="fill: none; stroke: #ff7f0e; stroke-width: 2; stroke-linecap: square"/>
    <defs>
     <path id="m4dd5e159cc" d="M 0 3 
C 0.795609 3 1.55874 2.683901 2.12132 2.12132 
C 2.683901 1.55874 3 0.795609 3 0 
C 3 -0.795609 2.683901 -1.55874 2.12132 -2.12132 
C 1.55874 -2.683901 0.795609 -3 0 -3 
C -0.795609 -3 -1.55874 -2.683901 -2.12132 -2.12132 
C -2.683901 -1.55874 -3 -0.795609 -3 0 
C -3 0.795609 -2.683901 1.55874 -2.12132 2.12132 
C -1.55874 2.683901 -0.795609 3 0 3 
z
" style="stroke: #ff7f0e"/>
    </defs>
    <g clip-path="url(#p35c148e257)">
     <use xlink:href="#m4dd5e159cc" x="109.92206" y="287.904562" style="fill: #ff7f0e; stroke: #ff7f0e"/>
     <use xlink:href="#m4dd5e159cc" x="125.505381" y="268.772299" style="fill: #ff7f0e; stroke: #ff7f0e"/>
     <use xlink:href="#m4dd5e159cc" x="141.088701" y="279.849776" style="fill: #ff7f0e; stroke: #ff7f0e"/>
     <use xlink:href="#m4dd5e159cc" x="156.672022" y="110.491533" style="fill: #ff7f0e; stroke: #ff7f0e"/>
     <use xlink:href="#m4dd5e159cc" x="172.255343" y="249.056705" style="fill: #ff7f0e; stroke: #ff7f0e"/>
     <use xlink:href="#m4dd5e159cc" x="187.838664" y="408.967986" style="fill: #ff7f0e; stroke: #ff7f0e"/>
     <use xlink:href="#m4dd5e159cc" x="203.421985" y="439.517676" style="fill: #ff7f0e; stroke: #ff7f0e"/>
     <use xlink:href="#m4dd5e159cc" x="219.005306" y="249.056705" style="fill: #ff7f0e; stroke: #ff7f0e"/>
     <use xlink:href="#m4dd5e159cc" x="234.588627" y="273.844596" style="fill: #ff7f0e; stroke: #ff7f0e"/>
     <use xlink:href="#m4dd5e159cc" x="250.171948" y="66.718372" style="fill: #ff7f0e; stroke: #ff7f0e"/>
     <use xlink:href="#m4dd5e159cc" x="265.755268" y="46.813736" style="fill: #ff7f0e; stroke: #ff7f0e"/>
     <use xlink:href="#m4dd5e159cc" x="281.338589" y="417.409543" style="fill: #ff7f0e; stroke: #ff7f0e"/>
     <use xlink:href="#m4dd5e159cc" x="296.92191" y="89.018384" style="fill: #ff7f0e; stroke: #ff7f0e"/>
     <use xlink:href="#m4dd5e159cc" x="312.505231" y="302.733063" style="fill: #ff7f0e; stroke: #ff7f0e"/>
     <use xlink:href="#m4dd5e159cc" x="328.088552" y="410.373119" style="fill: #ff7f0e; stroke: #ff7f0e"/>
     <use xlink:href="#m4dd5e159cc" x="343.671873" y="430.628028" style="fill: #ff7f0e; stroke: #ff7f0e"/>
     <use xlink:href="#m4dd5e159cc" x="374.838515" y="92.773527" style="fill: #ff7f0e; stroke: #ff7f0e"/>
     <use xlink:href="#m4dd5e159cc" x="390.421835" y="443.032623" style="fill: #ff7f0e; stroke: #ff7f0e"/>
     <use xlink:href="#m4dd5e159cc" x="406.005156" y="95.405174" style="fill: #ff7f0e; stroke: #ff7f0e"/>
     <use xlink:href="#m4dd5e159cc" x="421.588477" y="259.815166" style="fill: #ff7f0e; stroke: #ff7f0e"/>
     <use xlink:href="#m4dd5e159cc" x="437.171798" y="428.705307" style="fill: #ff7f0e; stroke: #ff7f0e"/>
     <use xlink:href="#m4dd5e159cc" x="452.755119" y="294.634905" style="fill: #ff7f0e; stroke: #ff7f0e"/>
     <use xlink:href="#m4dd5e159cc" x="468.33844" y="416.000821" style="fill: #ff7f0e; stroke: #ff7f0e"/>
     <use xlink:href="#m4dd5e159cc" x="483.921761" y="453.006308" style="fill: #ff7f0e; stroke: #ff7f0e"/>
     <use xlink:href="#m4dd5e159cc" x="499.505081" y="254.364278" style="fill: #ff7f0e; stroke: #ff7f0e"/>
     <use xlink:href="#m4dd5e159cc" x="515.088402" y="281.190608" style="fill: #ff7f0e; stroke: #ff7f0e"/>
     <use xlink:href="#m4dd5e159cc" x="546.255044" y="250.543933" style="fill: #ff7f0e; stroke: #ff7f0e"/>
     <use xlink:href="#m4dd5e159cc" x="561.838365" y="447.302643" style="fill: #ff7f0e; stroke: #ff7f0e"/>
     <use xlink:href="#m4dd5e159cc" x="577.421686" y="97.913841" style="fill: #ff7f0e; stroke: #ff7f0e"/>
     <use xlink:href="#m4dd5e159cc" x="593.005007" y="79.154237" style="fill: #ff7f0e; stroke: #ff7f0e"/>
     <use xlink:href="#m4dd5e159cc" x="608.588328" y="265.010176" style="fill: #ff7f0e; stroke: #ff7f0e"/>
     <use xlink:href="#m4dd5e159cc" x="624.171648" y="427.290803" style="fill: #ff7f0e; stroke: #ff7f0e"/>
     <use xlink:href="#m4dd5e159cc" x="639.754969" y="71.685989" style="fill: #ff7f0e; stroke: #ff7f0e"/>
     <use xlink:href="#m4dd5e159cc" x="655.33829" y="390.766131" style="fill: #ff7f0e; stroke: #ff7f0e"/>
     <use xlink:href="#m4dd5e159cc" x="686.504932" y="300.031033" style="fill: #ff7f0e; stroke: #ff7f0e"/>
     <use xlink:href="#m4dd5e159cc" x="702.088253" y="392.162016" style="fill: #ff7f0e; stroke: #ff7f0e"/>
    </g>
   </g>
   <g id="patch_3">
    <path d="M 80.31375 529.308125 
L 80.31375 23.837812 
" style="fill: none; stroke: #000000; stroke-width: 0.8; stroke-linejoin: miter; stroke-linecap: square"/>
   </g>
   <g id="patch_4">
    <path d="M 731.696562 529.308125 
L 731.696562 23.837812 
" style="fill: none; stroke: #000000; stroke-width: 0.8; stroke-linejoin: miter; stroke-linecap: square"/>
   </g>
   <g id="patch_5">
    <path d="M 80.31375 529.308125 
L 731.696562 529.308125 
" style="fill: none; stroke: #000000; stroke-width: 0.8; stroke-linejoin: miter; stroke-linecap: square"/>
   </g>
   <g id="patch_6">
    <path d="M 80.31375 23.837812 
L 731.696562 23.837812 
" style="fill: none; stroke: #000000; stroke-width: 0.8; stroke-linejoin: miter; stroke-linecap: square"/>
   </g>
   <g id="text_20">
    <text style="font: 700 14px 'DejaVu Sans', 'Bitstream Vera Sans', 'Computer Modern Sans Serif', 'Lucida Grande', 'Verdana', 'Geneva', 'Lucid', 'Arial', 'Helvetica', 'Avant Garde', sans-serif; text-anchor: middle" x="406.005156" y="17.837813" transform="rotate(-0 406.005156 17.837813)">Coalescing Arena Alloc Dealloc - Performance Trend</text>
   </g>
   <g id="legend_1">
    <g id="patch_7">
     <path d="M 771.265703 61.194063 
L 846.689141 61.194063 
Q 848.689141 61.194063 848.689141 59.194063 
L 848.689141 30.837813 
Q 848.689141 28.837813 846.689141 28.837813 
L 771.265703 28.837813 
Q 769.265703 28.837813 769.265703 30.837813 
L 769.265703 59.194063 
Q 769.265703 61.194063 771.265703 61.194063 
z
" style="fill: #ffffff; opacity: 0.8; stroke: #cccccc; stroke-linejoin: miter"/>
    </g>
    <g id="line2d_29">
     <path d="M 773.265703 36.93625 
L 783.265703 36.93625 
L 793.265703 36.93625 
" style="fill: none; stroke: #1f77b4; stroke-width: 2; stroke-linecap: square"/>
     <g>
      <use xlink:href="#m2004021cb3" x="783.265703" y="36.93625" style="fill: #1f77b4; stroke: #1f77b4"/>
     </g>
    </g>
    <g id="text_21">
     <text style="font: 10px 'DejaVu Sans', 'Bitstream Vera Sans', 'Computer Modern Sans Serif', 'Lucida Grande', 'Verdana', 'Geneva', 'Lucid', 'Arial', 'Helvetica', 'Avant Garde', sans-serif; text-anchor: start" x="801.265703" y="40.43625" transform="rotate(-0 801.265703 40.43625)">clang-18</text>
    </g>
    <g id="line2d_30">
     <path d="M 773.265703 51.614375 
L 783.265703 51.614375 
L 793.265703 51.614375 
" style="fill: none; stroke: #ff7f0e; stroke-width: 2; stroke-linecap: square"/>
     <g>
      <use xlink:href="#m4dd5e159cc" x="783.265703" y="51.614375" style="fill: #ff7f0e; stroke: #ff7f0e"/>
     </g>
    </g>
    <g id="text_22">
     <text style="font: 10px 'DejaVu Sans', 'Bitstream Vera Sans', 'Computer Modern Sans Serif', 'Lucida Grande', 'Verdana', 'Geneva', 'Lucid', 'Arial', 'Helvetica', 'Avant Garde', sans-serif; text-anchor: start" x="801.265703" y="55.114375" transform="rotate(-0 801.265703 55.114375)">gcc-14</text>
    </g>
   </g>
  </g>
 </g>
 <defs>
  <clipPath id="p35c148e257">
   <rect x="80.31375" y="23.837813" width="651.382812" height="505.470313"/>
  </clipPath>
 </defs>
</svg>
