<?xml version="1.0" encoding="utf-8" standalone="no"?>
<!DOCTYPE svg PUBLIC "-//W3C//DTD SVG 1.1//EN"
  "http://www.w3.org/Graphics/SVG/1.1/DTD/svg11.dtd">
<svg xmlns:xlink="http://www.w3.org/1999/xlink" width="855.204687pt" height="568.8pt" viewBox="0 0 855.204687 568.8" xmlns="http://www.w3.org/2000/svg" version="1.1">
 <metadata>
  <rdf:RDF xmlns:dc="http://purl.org/dc/elements/1.1/" xmlns:cc="http://creativecommons.org/ns#" xmlns:rdf="http://www.w3.org/1999/02/22-rdf-syntax-ns#">
   <cc:Work>
    <dc:type rdf:resource="http://purl.org/dc/dcmitype/StillImage"/>
    <dc:date>2025-08-28T18:43:35.395967</dc:date>
    <dc:format>image/svg+xml</dc:format>
    <dc:creator>
     <cc:Agent>
      <dc:title>Matplotlib v3.9.4, https://matplotlib.org/</dc:title>
     </cc:Agent>
    </dc:creator>
   </cc:Work>
  </rdf:RDF>
 </metadata>
 <defs>
  <style type="text/css">*{stroke-linejoin: round; stroke-linecap: butt}</style>
 </defs>
 <g id="figure_1">
  <g id="patch_1">
   <path d="M 0 568.8 
L 855.204687 568.8 
L 855.204687 0 
L 0 0 
z
" style="fill: #ffffff"/>
  </g>
  <g id="axes_1">
   <g id="patch_2">
    <path d="M 64.41375 529.308125 
L 702.1075 529.308125 
L 702.1075 23.837812 
L 64.41375 23.837812 
z
" style="fill: #ffffff"/>
   </g>
   <g id="matplotlib.axis_1">
    <g id="xtick_1">
     <g id="line2d_1">
      <path d="M 78.143998 529.308125 
L 78.143998 23.837812 
" clip-path="url(#p3ad53fc658)" style="fill: none; stroke: #b0b0b0; stroke-opacity: 0.3; stroke-width: 0.8; stroke-linecap: square"/>
     </g>
     <g id="line2d_2">
      <defs>
       <path id="m755386396b" d="M 0 0 
L 0 3.5 
" style="stroke: #000000; stroke-width: 0.8"/>
      </defs>
      <g>
       <use xlink:href="#m755386396b" x="78.143998" y="529.308125" style="stroke: #000000; stroke-width: 0.8"/>
      </g>
     </g>
     <g id="text_1">
      <text style="font: 10px 'DejaVu Sans', 'Bitstream Vera Sans', 'Computer Modern Sans Serif', 'Lucida Grande', 'Verdana', 'Geneva', 'Lucid', 'Arial', 'Helvetica', 'Avant Garde', sans-serif; text-anchor: middle" x="78.143998" y="543.906563" transform="rotate(-0 78.143998 543.906563)">70</text>
     </g>
    </g>
    <g id="xtick_2">
     <g id="line2d_3">
      <path d="M 154.423155 529.308125 
L 154.423155 23.837812 
" clip-path="url(#p3ad53fc658)" style="fill: none; stroke: #b0b0b0; stroke-opacity: 0.3; stroke-width: 0.8; stroke-linecap: square"/>
     </g>
     <g id="line2d_4">
      <g>
       <use xlink:href="#m755386396b" x="154.423155" y="529.308125" style="stroke: #000000; stroke-width: 0.8"/>
      </g>
     </g>
     <g id="text_2">
      <text style="font: 10px 'DejaVu Sans', 'Bitstream Vera Sans', 'Computer Modern Sans Serif', 'Lucida Grande', 'Verdana', 'Geneva', 'Lucid', 'Arial', 'Helvetica', 'Avant Garde', sans-serif; text-anchor: middle" x="154.423155" y="543.906563" transform="rotate(-0 154.423155 543.906563)">75</text>
     </g>
    </g>
    <g id="xtick_3">
     <g id="line2d_5">
      <path d="M 230.702312 529.308125 
L 230.702312 23.837812 
" clip-path="url(#p3ad53fc658)" style="fill: none; stroke: #b0b0b0; stroke-opacity: 0.3; stroke-width: 0.8; stroke-linecap: square"/>
     </g>
     <g id="line2d_6">
      <g>
       <use xlink:href="#m755386396b" x="230.702312" y="529.308125" style="stroke: #000000; stroke-width: 0.8"/>
      </g>
     </g>
     <g id="text_3">
      <text style="font: 10px 'DejaVu Sans', 'Bitstream Vera Sans', 'Computer Modern Sans Serif', 'Lucida Grande', 'Verdana', 'Geneva', 'Lucid', 'Arial', 'Helvetica', 'Avant Garde', sans-serif; text-anchor: middle" x="230.702312" y="543.906563" transform="rotate(-0 230.702312 543.906563)">80</text>
     </g>
    </g>
    <g id="xtick_4">
     <g id="line2d_7">
      <path d="M 306.981468 529.308125 
L 306.981468 23.837812 
" clip-path="url(#p3ad53fc658)" style="fill: none; stroke: #b0b0b0; stroke-opacity: 0.3; stroke-width: 0.8; stroke-linecap: square"/>
     </g>
     <g id="line2d_8">
      <g>
       <use xlink:href="#m755386396b" x="306.981468" y="529.308125" style="stroke: #000000; stroke-width: 0.8"/>
      </g>
     </g>
     <g id="text_4">
      <text style="font: 10px 'DejaVu Sans', 'Bitstream Vera Sans', 'Computer Modern Sans Serif', 'Lucida Grande', 'Verdana', 'Geneva', 'Lucid', 'Arial', 'Helvetica', 'Avant Garde', sans-serif; text-anchor: middle" x="306.981468" y="543.906563" transform="rotate(-0 306.981468 543.906563)">85</text>
     </g>
    </g>
    <g id="xtick_5">
     <g id="line2d_9">
      <path d="M 383.260625 529.308125 
L 383.260625 23.837812 
" clip-path="url(#p3ad53fc658)" style="fill: none; stroke: #b0b0b0; stroke-opacity: 0.3; stroke-width: 0.8; stroke-linecap: square"/>
     </g>
     <g id="line2d_10">
      <g>
       <use xlink:href="#m755386396b" x="383.260625" y="529.308125" style="stroke: #000000; stroke-width: 0.8"/>
      </g>
     </g>
     <g id="text_5">
      <text style="font: 10px 'DejaVu Sans', 'Bitstream Vera Sans', 'Computer Modern Sans Serif', 'Lucida Grande', 'Verdana', 'Geneva', 'Lucid', 'Arial', 'Helvetica', 'Avant Garde', sans-serif; text-anchor: middle" x="383.260625" y="543.906563" transform="rotate(-0 383.260625 543.906563)">90</text>
     </g>
    </g>
    <g id="xtick_6">
     <g id="line2d_11">
      <path d="M 459.539782 529.308125 
L 459.539782 23.837812 
" clip-path="url(#p3ad53fc658)" style="fill: none; stroke: #b0b0b0; stroke-opacity: 0.3; stroke-width: 0.8; stroke-linecap: square"/>
     </g>
     <g id="line2d_12">
      <g>
       <use xlink:href="#m755386396b" x="459.539782" y="529.308125" style="stroke: #000000; stroke-width: 0.8"/>
      </g>
     </g>
     <g id="text_6">
      <text style="font: 10px 'DejaVu Sans', 'Bitstream Vera Sans', 'Computer Modern Sans Serif', 'Lucida Grande', 'Verdana', 'Geneva', 'Lucid', 'Arial', 'Helvetica', 'Avant Garde', sans-serif; text-anchor: middle" x="459.539782" y="543.906563" transform="rotate(-0 459.539782 543.906563)">95</text>
     </g>
    </g>
    <g id="xtick_7">
     <g id="line2d_13">
      <path d="M 535.818938 529.308125 
L 535.818938 23.837812 
" clip-path="url(#p3ad53fc658)" style="fill: none; stroke: #b0b0b0; stroke-opacity: 0.3; stroke-width: 0.8; stroke-linecap: square"/>
     </g>
     <g id="line2d_14">
      <g>
       <use xlink:href="#m755386396b" x="535.818938" y="529.308125" style="stroke: #000000; stroke-width: 0.8"/>
      </g>
     </g>
     <g id="text_7">
      <text style="font: 10px 'DejaVu Sans', 'Bitstream Vera Sans', 'Computer Modern Sans Serif', 'Lucida Grande', 'Verdana', 'Geneva', 'Lucid', 'Arial', 'Helvetica', 'Avant Garde', sans-serif; text-anchor: middle" x="535.818938" y="543.906563" transform="rotate(-0 535.818938 543.906563)">100</text>
     </g>
    </g>
    <g id="xtick_8">
     <g id="line2d_15">
      <path d="M 612.098095 529.308125 
L 612.098095 23.837812 
" clip-path="url(#p3ad53fc658)" style="fill: none; stroke: #b0b0b0; stroke-opacity: 0.3; stroke-width: 0.8; stroke-linecap: square"/>
     </g>
     <g id="line2d_16">
      <g>
       <use xlink:href="#m755386396b" x="612.098095" y="529.308125" style="stroke: #000000; stroke-width: 0.8"/>
      </g>
     </g>
     <g id="text_8">
      <text style="font: 10px 'DejaVu Sans', 'Bitstream Vera Sans', 'Computer Modern Sans Serif', 'Lucida Grande', 'Verdana', 'Geneva', 'Lucid', 'Arial', 'Helvetica', 'Avant Garde', sans-serif; text-anchor: middle" x="612.098095" y="543.906563" transform="rotate(-0 612.098095 543.906563)">105</text>
     </g>
    </g>
    <g id="xtick_9">
     <g id="line2d_17">
      <path d="M 688.377252 529.308125 
L 688.377252 23.837812 
" clip-path="url(#p3ad53fc658)" style="fill: none; stroke: #b0b0b0; stroke-opacity: 0.3; stroke-width: 0.8; stroke-linecap: square"/>
     </g>
     <g id="line2d_18">
      <g>
       <use xlink:href="#m755386396b" x="688.377252" y="529.308125" style="stroke: #000000; stroke-width: 0.8"/>
      </g>
     </g>
     <g id="text_9">
      <text style="font: 10px 'DejaVu Sans', 'Bitstream Vera Sans', 'Computer Modern Sans Serif', 'Lucida Grande', 'Verdana', 'Geneva', 'Lucid', 'Arial', 'Helvetica', 'Avant Garde', sans-serif; text-anchor: middle" x="688.377252" y="543.906563" transform="rotate(-0 688.377252 543.906563)">110</text>
     </g>
    </g>
    <g id="text_10">
     <text style="font: 12px 'DejaVu Sans', 'Bitstream Vera Sans', 'Computer Modern Sans Serif', 'Lucida Grande', 'Verdana', 'Geneva', 'Lucid', 'Arial', 'Helvetica', 'Avant Garde', sans-serif; text-anchor: middle" x="383.260625" y="559.104375" transform="rotate(-0 383.260625 559.104375)">Build Number</text>
    </g>
   </g>
   <g id="matplotlib.axis_2">
    <g id="ytick_1">
     <g id="line2d_19">
      <defs>
       <path id="mdc9570090b" d="M 0 0 
L -2 0 
" style="stroke: #000000; stroke-width: 0.6"/>
      </defs>
      <g>
       <use xlink:href="#mdc9570090b" x="64.41375" y="514.915957" style="stroke: #000000; stroke-width: 0.6"/>
      </g>
     </g>
     <g id="text_11">
      <!-- $\mathdefault{5\times10^{7}}$ -->
      <g transform="translate(22.81375 518.715175)">
       <text>
        <tspan style="font: 10px 'DejaVu Sans'" x="0 8.310547 18.637695 25" y="-0.06406250000000036">5×10</tspan>
        <tspan style="font: 7px 'DejaVu Sans'" x="31.458008" y="-3.8921875000000004">7</tspan>
       </text>
      </g>
     </g>
    </g>
    <g id="ytick_2">
     <g id="line2d_20">
      <g>
       <use xlink:href="#mdc9570090b" x="64.41375" y="288.174215" style="stroke: #000000; stroke-width: 0.6"/>
      </g>
     </g>
     <g id="text_12">
      <!-- $\mathdefault{6\times10^{7}}$ -->
      <g transform="translate(22.81375 291.973434)">
       <text>
        <tspan style="font: 10px 'DejaVu Sans'" x="0 8.310547 18.637695 25" y="-0.06406250000000036">6×10</tspan>
        <tspan style="font: 7px 'DejaVu Sans'" x="31.458008" y="-3.8921875000000004">7</tspan>
       </text>
      </g>
     </g>
    </g>
    <g id="ytick_3">
     <g id="line2d_21">
      <g>
       <use xlink:href="#mdc9570090b" x="64.41375" y="96.466805" style="stroke: #000000; stroke-width: 0.6"/>
      </g>
     </g>
     <g id="text_13">
      <!-- $\mathdefault{7\times10^{7}}$ -->
      <g transform="translate(22.81375 100.266023)">
       <text>
        <tspan style="font: 10px 'DejaVu Sans'" x="0 8.310547 18.637695 25" y="-0.06406250000000036">7×10</tspan>
        <tspan style="font: 7px 'DejaVu Sans'" x="31.458008" y="-3.8921875000000004">7</tspan>
       </text>
      </g>
     </g>
    </g>
    <g id="text_14">
     <text style="font: 12px 'DejaVu Sans', 'Bitstream Vera Sans', 'Computer Modern Sans Serif', 'Lucida Grande', 'Verdana', 'Geneva', 'Lucid', 'Arial', 'Helvetica', 'Avant Garde', sans-serif; text-anchor: middle" x="16.318125" y="276.572969" transform="rotate(-90 16.318125 276.572969)">Median Elapsed Time (nanoseconds)</text>
    </g>
   </g>
   <g id="line2d_22">
    <path d="M 93.39983 493.691829 
L 108.655661 490.814075 
L 123.911492 487.494679 
L 139.167324 487.145326 
L 154.423155 488.410505 
L 169.678986 475.327557 
L 184.934818 487.596827 
L 200.190649 488.415686 
L 215.44648 489.713847 
L 230.702312 457.081027 
L 245.958143 483.450798 
L 261.213974 486.101722 
L 276.469806 488.754486 
L 291.725637 490.455908 
L 306.981468 482.796643 
L 322.2373 488.14356 
L 352.748962 488.224408 
L 368.004794 490.992343 
L 383.260625 489.612786 
L 398.516456 487.665045 
L 413.772288 485.091497 
L 429.028119 485.139142 
L 444.28395 487.108851 
L 459.539782 489.465187 
L 474.795613 488.642446 
L 490.051444 475.771404 
L 520.563107 470.614423 
L 535.818938 487.595644 
L 551.07477 490.252334 
L 566.330601 488.974158 
L 581.586432 487.566519 
L 596.842264 486.91951 
L 612.098095 488.851067 
L 627.353926 482.397861 
L 657.865589 483.640904 
L 673.12142 489.950559 
" clip-path="url(#p3ad53fc658)" style="fill: none; stroke: #1f77b4; stroke-width: 2; stroke-linecap: square"/>
    <defs>
     <path id="m686e227fb8" d="M 0 3 
C 0.795609 3 1.55874 2.683901 2.12132 2.12132 
C 2.683901 1.55874 3 0.795609 3 0 
C 3 -0.795609 2.683901 -1.55874 2.12132 -2.12132 
C 1.55874 -2.683901 0.795609 -3 0 -3 
C -0.795609 -3 -1.55874 -2.683901 -2.12132 -2.12132 
C -2.683901 -1.55874 -3 -0.795609 -3 0 
C -3 0.795609 -2.683901 1.55874 -2.12132 2.12132 
C -1.55874 2.683901 -0.795609 3 0 3 
z
" style="stroke: #1f77b4"/>
    </defs>
    <g clip-path="url(#p3ad53fc658)">
     <use xlink:href="#m686e227fb8" x="93.39983" y="493.691829" style="fill: #1f77b4; stroke: #1f77b4"/>
     <use xlink:href="#m686e227fb8" x="108.655661" y="490.814075" style="fill: #1f77b4; stroke: #1f77b4"/>
     <use xlink:href="#m686e227fb8" x="123.911492" y="487.494679" style="fill: #1f77b4; stroke: #1f77b4"/>
     <use xlink:href="#m686e227fb8" x="139.167324" y="487.145326" style="fill: #1f77b4; stroke: #1f77b4"/>
     <use xlink:href="#m686e227fb8" x="154.423155" y="488.410505" style="fill: #1f77b4; stroke: #1f77b4"/>
     <use xlink:href="#m686e227fb8" x="169.678986" y="475.327557" style="fill: #1f77b4; stroke: #1f77b4"/>
     <use xlink:href="#m686e227fb8" x="184.934818" y="487.596827" style="fill: #1f77b4; stroke: #1f77b4"/>
     <use xlink:href="#m686e227fb8" x="200.190649" y="488.415686" style="fill: #1f77b4; stroke: #1f77b4"/>
     <use xlink:href="#m686e227fb8" x="215.44648" y="489.713847" style="fill: #1f77b4; stroke: #1f77b4"/>
     <use xlink:href="#m686e227fb8" x="230.702312" y="457.081027" style="fill: #1f77b4; stroke: #1f77b4"/>
     <use xlink:href="#m686e227fb8" x="245.958143" y="483.450798" style="fill: #1f77b4; stroke: #1f77b4"/>
     <use xlink:href="#m686e227fb8" x="261.213974" y="486.101722" style="fill: #1f77b4; stroke: #1f77b4"/>
     <use xlink:href="#m686e227fb8" x="276.469806" y="488.754486" style="fill: #1f77b4; stroke: #1f77b4"/>
     <use xlink:href="#m686e227fb8" x="291.725637" y="490.455908" style="fill: #1f77b4; stroke: #1f77b4"/>
     <use xlink:href="#m686e227fb8" x="306.981468" y="482.796643" style="fill: #1f77b4; stroke: #1f77b4"/>
     <use xlink:href="#m686e227fb8" x="322.2373" y="488.14356" style="fill: #1f77b4; stroke: #1f77b4"/>
     <use xlink:href="#m686e227fb8" x="352.748962" y="488.224408" style="fill: #1f77b4; stroke: #1f77b4"/>
     <use xlink:href="#m686e227fb8" x="368.004794" y="490.992343" style="fill: #1f77b4; stroke: #1f77b4"/>
     <use xlink:href="#m686e227fb8" x="383.260625" y="489.612786" style="fill: #1f77b4; stroke: #1f77b4"/>
     <use xlink:href="#m686e227fb8" x="398.516456" y="487.665045" style="fill: #1f77b4; stroke: #1f77b4"/>
     <use xlink:href="#m686e227fb8" x="413.772288" y="485.091497" style="fill: #1f77b4; stroke: #1f77b4"/>
     <use xlink:href="#m686e227fb8" x="429.028119" y="485.139142" style="fill: #1f77b4; stroke: #1f77b4"/>
     <use xlink:href="#m686e227fb8" x="444.28395" y="487.108851" style="fill: #1f77b4; stroke: #1f77b4"/>
     <use xlink:href="#m686e227fb8" x="459.539782" y="489.465187" style="fill: #1f77b4; stroke: #1f77b4"/>
     <use xlink:href="#m686e227fb8" x="474.795613" y="488.642446" style="fill: #1f77b4; stroke: #1f77b4"/>
     <use xlink:href="#m686e227fb8" x="490.051444" y="475.771404" style="fill: #1f77b4; stroke: #1f77b4"/>
     <use xlink:href="#m686e227fb8" x="520.563107" y="470.614423" style="fill: #1f77b4; stroke: #1f77b4"/>
     <use xlink:href="#m686e227fb8" x="535.818938" y="487.595644" style="fill: #1f77b4; stroke: #1f77b4"/>
     <use xlink:href="#m686e227fb8" x="551.07477" y="490.252334" style="fill: #1f77b4; stroke: #1f77b4"/>
     <use xlink:href="#m686e227fb8" x="566.330601" y="488.974158" style="fill: #1f77b4; stroke: #1f77b4"/>
     <use xlink:href="#m686e227fb8" x="581.586432" y="487.566519" style="fill: #1f77b4; stroke: #1f77b4"/>
     <use xlink:href="#m686e227fb8" x="596.842264" y="486.91951" style="fill: #1f77b4; stroke: #1f77b4"/>
     <use xlink:href="#m686e227fb8" x="612.098095" y="488.851067" style="fill: #1f77b4; stroke: #1f77b4"/>
     <use xlink:href="#m686e227fb8" x="627.353926" y="482.397861" style="fill: #1f77b4; stroke: #1f77b4"/>
     <use xlink:href="#m686e227fb8" x="657.865589" y="483.640904" style="fill: #1f77b4; stroke: #1f77b4"/>
     <use xlink:href="#m686e227fb8" x="673.12142" y="489.950559" style="fill: #1f77b4; stroke: #1f77b4"/>
    </g>
   </g>
   <g id="line2d_23">
    <path d="M 93.39983 214.978781 
L 108.655661 182.906967 
L 123.911492 272.956006 
L 139.167324 182.029092 
L 154.423155 268.872976 
L 169.678986 274.785303 
L 184.934818 171.913022 
L 200.190649 270.679187 
L 215.44648 182.508331 
L 230.702312 270.8712 
L 245.958143 182.657976 
L 261.213974 183.510793 
L 276.469806 272.463822 
L 291.725637 182.405436 
L 306.981468 272.552038 
L 322.2373 181.404628 
L 352.748962 275.226397 
L 368.004794 183.724883 
L 383.260625 182.093211 
L 398.516456 183.676891 
L 413.772288 275.146352 
L 429.028119 181.106543 
L 444.28395 272.254953 
L 459.539782 272.203128 
L 474.795613 489.711083 
L 490.051444 487.792477 
L 520.563107 488.905576 
L 535.818938 487.110074 
L 551.07477 490.669798 
L 566.330601 488.46594 
L 581.586432 489.881935 
L 596.842264 490.438612 
L 612.098095 489.117759 
L 627.353926 490.470534 
L 657.865589 488.81708 
L 673.12142 490.381763 
" clip-path="url(#p3ad53fc658)" style="fill: none; stroke: #ff7f0e; stroke-width: 2; stroke-linecap: square"/>
    <defs>
     <path id="m33a9d67a82" d="M 0 3 
C 0.795609 3 1.55874 2.683901 2.12132 2.12132 
C 2.683901 1.55874 3 0.795609 3 0 
C 3 -0.795609 2.683901 -1.55874 2.12132 -2.12132 
C 1.55874 -2.683901 0.795609 -3 0 -3 
C -0.795609 -3 -1.55874 -2.683901 -2.12132 -2.12132 
C -2.683901 -1.55874 -3 -0.795609 -3 0 
C -3 0.795609 -2.683901 1.55874 -2.12132 2.12132 
C -1.55874 2.683901 -0.795609 3 0 3 
z
" style="stroke: #ff7f0e"/>
    </defs>
    <g clip-path="url(#p3ad53fc658)">
     <use xlink:href="#m33a9d67a82" x="93.39983" y="214.978781" style="fill: #ff7f0e; stroke: #ff7f0e"/>
     <use xlink:href="#m33a9d67a82" x="108.655661" y="182.906967" style="fill: #ff7f0e; stroke: #ff7f0e"/>
     <use xlink:href="#m33a9d67a82" x="123.911492" y="272.956006" style="fill: #ff7f0e; stroke: #ff7f0e"/>
     <use xlink:href="#m33a9d67a82" x="139.167324" y="182.029092" style="fill: #ff7f0e; stroke: #ff7f0e"/>
     <use xlink:href="#m33a9d67a82" x="154.423155" y="268.872976" style="fill: #ff7f0e; stroke: #ff7f0e"/>
     <use xlink:href="#m33a9d67a82" x="169.678986" y="274.785303" style="fill: #ff7f0e; stroke: #ff7f0e"/>
     <use xlink:href="#m33a9d67a82" x="184.934818" y="171.913022" style="fill: #ff7f0e; stroke: #ff7f0e"/>
     <use xlink:href="#m33a9d67a82" x="200.190649" y="270.679187" style="fill: #ff7f0e; stroke: #ff7f0e"/>
     <use xlink:href="#m33a9d67a82" x="215.44648" y="182.508331" style="fill: #ff7f0e; stroke: #ff7f0e"/>
     <use xlink:href="#m33a9d67a82" x="230.702312" y="270.8712" style="fill: #ff7f0e; stroke: #ff7f0e"/>
     <use xlink:href="#m33a9d67a82" x="245.958143" y="182.657976" style="fill: #ff7f0e; stroke: #ff7f0e"/>
     <use xlink:href="#m33a9d67a82" x="261.213974" y="183.510793" style="fill: #ff7f0e; stroke: #ff7f0e"/>
     <use xlink:href="#m33a9d67a82" x="276.469806" y="272.463822" style="fill: #ff7f0e; stroke: #ff7f0e"/>
     <use xlink:href="#m33a9d67a82" x="291.725637" y="182.405436" style="fill: #ff7f0e; stroke: #ff7f0e"/>
     <use xlink:href="#m33a9d67a82" x="306.981468" y="272.552038" style="fill: #ff7f0e; stroke: #ff7f0e"/>
     <use xlink:href="#m33a9d67a82" x="322.2373" y="181.404628" style="fill: #ff7f0e; stroke: #ff7f0e"/>
     <use xlink:href="#m33a9d67a82" x="352.748962" y="275.226397" style="fill: #ff7f0e; stroke: #ff7f0e"/>
     <use xlink:href="#m33a9d67a82" x="368.004794" y="183.724883" style="fill: #ff7f0e; stroke: #ff7f0e"/>
     <use xlink:href="#m33a9d67a82" x="383.260625" y="182.093211" style="fill: #ff7f0e; stroke: #ff7f0e"/>
     <use xlink:href="#m33a9d67a82" x="398.516456" y="183.676891" style="fill: #ff7f0e; stroke: #ff7f0e"/>
     <use xlink:href="#m33a9d67a82" x="413.772288" y="275.146352" style="fill: #ff7f0e; stroke: #ff7f0e"/>
     <use xlink:href="#m33a9d67a82" x="429.028119" y="181.106543" style="fill: #ff7f0e; stroke: #ff7f0e"/>
     <use xlink:href="#m33a9d67a82" x="444.28395" y="272.254953" style="fill: #ff7f0e; stroke: #ff7f0e"/>
     <use xlink:href="#m33a9d67a82" x="459.539782" y="272.203128" style="fill: #ff7f0e; stroke: #ff7f0e"/>
     <use xlink:href="#m33a9d67a82" x="474.795613" y="489.711083" style="fill: #ff7f0e; stroke: #ff7f0e"/>
     <use xlink:href="#m33a9d67a82" x="490.051444" y="487.792477" style="fill: #ff7f0e; stroke: #ff7f0e"/>
     <use xlink:href="#m33a9d67a82" x="520.563107" y="488.905576" style="fill: #ff7f0e; stroke: #ff7f0e"/>
     <use xlink:href="#m33a9d67a82" x="535.818938" y="487.110074" style="fill: #ff7f0e; stroke: #ff7f0e"/>
     <use xlink:href="#m33a9d67a82" x="551.07477" y="490.669798" style="fill: #ff7f0e; stroke: #ff7f0e"/>
     <use xlink:href="#m33a9d67a82" x="566.330601" y="488.46594" style="fill: #ff7f0e; stroke: #ff7f0e"/>
     <use xlink:href="#m33a9d67a82" x="581.586432" y="489.881935" style="fill: #ff7f0e; stroke: #ff7f0e"/>
     <use xlink:href="#m33a9d67a82" x="596.842264" y="490.438612" style="fill: #ff7f0e; stroke: #ff7f0e"/>
     <use xlink:href="#m33a9d67a82" x="612.098095" y="489.117759" style="fill: #ff7f0e; stroke: #ff7f0e"/>
     <use xlink:href="#m33a9d67a82" x="627.353926" y="490.470534" style="fill: #ff7f0e; stroke: #ff7f0e"/>
     <use xlink:href="#m33a9d67a82" x="657.865589" y="488.81708" style="fill: #ff7f0e; stroke: #ff7f0e"/>
     <use xlink:href="#m33a9d67a82" x="673.12142" y="490.381763" style="fill: #ff7f0e; stroke: #ff7f0e"/>
    </g>
   </g>
   <g id="line2d_24">
    <path d="M 93.39983 506.332202 
L 108.655661 488.22548 
L 123.911492 487.132838 
L 139.167324 488.186015 
L 154.423155 486.766103 
L 169.678986 489.39061 
L 184.934818 488.226181 
L 200.190649 487.796971 
L 215.44648 488.498719 
L 230.702312 489.635154 
L 245.958143 487.489777 
L 261.213974 488.674621 
L 276.469806 488.025081 
L 291.725637 486.62109 
L 306.981468 488.454844 
L 322.2373 487.47967 
L 352.748962 488.84933 
L 368.004794 488.865783 
L 383.260625 488.877107 
L 398.516456 487.310761 
L 413.772288 485.899652 
L 429.028119 488.616735 
L 444.28395 489.033189 
L 459.539782 489.763866 
L 474.795613 488.529815 
L 490.051444 486.353552 
L 520.563107 488.038332 
L 535.818938 488.389339 
L 551.07477 488.955913 
L 566.330601 489.2194 
L 581.586432 488.100693 
L 596.842264 489.304055 
L 612.098095 488.114028 
L 627.353926 488.279243 
L 657.865589 487.252874 
L 673.12142 487.386414 
" clip-path="url(#p3ad53fc658)" style="fill: none; stroke: #2ca02c; stroke-width: 2; stroke-linecap: square"/>
    <defs>
     <path id="m7526b145a1" d="M 0 3 
C 0.795609 3 1.55874 2.683901 2.12132 2.12132 
C 2.683901 1.55874 3 0.795609 3 0 
C 3 -0.795609 2.683901 -1.55874 2.12132 -2.12132 
C 1.55874 -2.683901 0.795609 -3 0 -3 
C -0.795609 -3 -1.55874 -2.683901 -2.12132 -2.12132 
C -2.683901 -1.55874 -3 -0.795609 -3 0 
C -3 0.795609 -2.683901 1.55874 -2.12132 2.12132 
C -1.55874 2.683901 -0.795609 3 0 3 
z
" style="stroke: #2ca02c"/>
    </defs>
    <g clip-path="url(#p3ad53fc658)">
     <use xlink:href="#m7526b145a1" x="93.39983" y="506.332202" style="fill: #2ca02c; stroke: #2ca02c"/>
     <use xlink:href="#m7526b145a1" x="108.655661" y="488.22548" style="fill: #2ca02c; stroke: #2ca02c"/>
     <use xlink:href="#m7526b145a1" x="123.911492" y="487.132838" style="fill: #2ca02c; stroke: #2ca02c"/>
     <use xlink:href="#m7526b145a1" x="139.167324" y="488.186015" style="fill: #2ca02c; stroke: #2ca02c"/>
     <use xlink:href="#m7526b145a1" x="154.423155" y="486.766103" style="fill: #2ca02c; stroke: #2ca02c"/>
     <use xlink:href="#m7526b145a1" x="169.678986" y="489.39061" style="fill: #2ca02c; stroke: #2ca02c"/>
     <use xlink:href="#m7526b145a1" x="184.934818" y="488.226181" style="fill: #2ca02c; stroke: #2ca02c"/>
     <use xlink:href="#m7526b145a1" x="200.190649" y="487.796971" style="fill: #2ca02c; stroke: #2ca02c"/>
     <use xlink:href="#m7526b145a1" x="215.44648" y="488.498719" style="fill: #2ca02c; stroke: #2ca02c"/>
     <use xlink:href="#m7526b145a1" x="230.702312" y="489.635154" style="fill: #2ca02c; stroke: #2ca02c"/>
     <use xlink:href="#m7526b145a1" x="245.958143" y="487.489777" style="fill: #2ca02c; stroke: #2ca02c"/>
     <use xlink:href="#m7526b145a1" x="261.213974" y="488.674621" style="fill: #2ca02c; stroke: #2ca02c"/>
     <use xlink:href="#m7526b145a1" x="276.469806" y="488.025081" style="fill: #2ca02c; stroke: #2ca02c"/>
     <use xlink:href="#m7526b145a1" x="291.725637" y="486.62109" style="fill: #2ca02c; stroke: #2ca02c"/>
     <use xlink:href="#m7526b145a1" x="306.981468" y="488.454844" style="fill: #2ca02c; stroke: #2ca02c"/>
     <use xlink:href="#m7526b145a1" x="322.2373" y="487.47967" style="fill: #2ca02c; stroke: #2ca02c"/>
     <use xlink:href="#m7526b145a1" x="352.748962" y="488.84933" style="fill: #2ca02c; stroke: #2ca02c"/>
     <use xlink:href="#m7526b145a1" x="368.004794" y="488.865783" style="fill: #2ca02c; stroke: #2ca02c"/>
     <use xlink:href="#m7526b145a1" x="383.260625" y="488.877107" style="fill: #2ca02c; stroke: #2ca02c"/>
     <use xlink:href="#m7526b145a1" x="398.516456" y="487.310761" style="fill: #2ca02c; stroke: #2ca02c"/>
     <use xlink:href="#m7526b145a1" x="413.772288" y="485.899652" style="fill: #2ca02c; stroke: #2ca02c"/>
     <use xlink:href="#m7526b145a1" x="429.028119" y="488.616735" style="fill: #2ca02c; stroke: #2ca02c"/>
     <use xlink:href="#m7526b145a1" x="444.28395" y="489.033189" style="fill: #2ca02c; stroke: #2ca02c"/>
     <use xlink:href="#m7526b145a1" x="459.539782" y="489.763866" style="fill: #2ca02c; stroke: #2ca02c"/>
     <use xlink:href="#m7526b145a1" x="474.795613" y="488.529815" style="fill: #2ca02c; stroke: #2ca02c"/>
     <use xlink:href="#m7526b145a1" x="490.051444" y="486.353552" style="fill: #2ca02c; stroke: #2ca02c"/>
     <use xlink:href="#m7526b145a1" x="520.563107" y="488.038332" style="fill: #2ca02c; stroke: #2ca02c"/>
     <use xlink:href="#m7526b145a1" x="535.818938" y="488.389339" style="fill: #2ca02c; stroke: #2ca02c"/>
     <use xlink:href="#m7526b145a1" x="551.07477" y="488.955913" style="fill: #2ca02c; stroke: #2ca02c"/>
     <use xlink:href="#m7526b145a1" x="566.330601" y="489.2194" style="fill: #2ca02c; stroke: #2ca02c"/>
     <use xlink:href="#m7526b145a1" x="581.586432" y="488.100693" style="fill: #2ca02c; stroke: #2ca02c"/>
     <use xlink:href="#m7526b145a1" x="596.842264" y="489.304055" style="fill: #2ca02c; stroke: #2ca02c"/>
     <use xlink:href="#m7526b145a1" x="612.098095" y="488.114028" style="fill: #2ca02c; stroke: #2ca02c"/>
     <use xlink:href="#m7526b145a1" x="627.353926" y="488.279243" style="fill: #2ca02c; stroke: #2ca02c"/>
     <use xlink:href="#m7526b145a1" x="657.865589" y="487.252874" style="fill: #2ca02c; stroke: #2ca02c"/>
     <use xlink:href="#m7526b145a1" x="673.12142" y="487.386414" style="fill: #2ca02c; stroke: #2ca02c"/>
    </g>
   </g>
   <g id="line2d_25">
    <path d="M 93.39983 284.582811 
L 108.655661 287.362379 
L 123.911492 286.431637 
L 139.167324 285.037666 
L 154.423155 287.11432 
L 169.678986 282.282277 
L 184.934818 283.577155 
L 200.190649 286.238334 
L 215.44648 283.759492 
L 230.702312 286.297496 
L 245.958143 287.752534 
L 261.213974 281.162939 
L 276.469806 284.020288 
L 306.981468 284.844574 
L 322.2373 286.186715 
L 352.748962 289.351632 
L 368.004794 287.698079 
L 383.260625 284.38334 
L 398.516456 285.367533 
L 413.772288 285.749032 
L 444.28395 286.351667 
L 459.539782 288.068451 
L 474.795613 286.273402 
L 490.051444 282.389277 
L 520.563107 285.068925 
L 535.818938 282.095847 
L 551.07477 285.504043 
L 566.330601 284.925507 
L 581.586432 285.20077 
L 596.842264 287.441334 
L 612.098095 282.722539 
L 627.353926 276.577594 
L 657.865589 286.441383 
L 673.12142 275.962874 
" clip-path="url(#p3ad53fc658)" style="fill: none; stroke: #d62728; stroke-width: 2; stroke-linecap: square"/>
    <defs>
     <path id="me2a5333cb4" d="M 0 3 
C 0.795609 3 1.55874 2.683901 2.12132 2.12132 
C 2.683901 1.55874 3 0.795609 3 0 
C 3 -0.795609 2.683901 -1.55874 2.12132 -2.12132 
C 1.55874 -2.683901 0.795609 -3 0 -3 
C -0.795609 -3 -1.55874 -2.683901 -2.12132 -2.12132 
C -2.683901 -1.55874 -3 -0.795609 -3 0 
C -3 0.795609 -2.683901 1.55874 -2.12132 2.12132 
C -1.55874 2.683901 -0.795609 3 0 3 
z
" style="stroke: #d62728"/>
    </defs>
    <g clip-path="url(#p3ad53fc658)">
     <use xlink:href="#me2a5333cb4" x="93.39983" y="284.582811" style="fill: #d62728; stroke: #d62728"/>
     <use xlink:href="#me2a5333cb4" x="108.655661" y="287.362379" style="fill: #d62728; stroke: #d62728"/>
     <use xlink:href="#me2a5333cb4" x="123.911492" y="286.431637" style="fill: #d62728; stroke: #d62728"/>
     <use xlink:href="#me2a5333cb4" x="139.167324" y="285.037666" style="fill: #d62728; stroke: #d62728"/>
     <use xlink:href="#me2a5333cb4" x="154.423155" y="287.11432" style="fill: #d62728; stroke: #d62728"/>
     <use xlink:href="#me2a5333cb4" x="169.678986" y="282.282277" style="fill: #d62728; stroke: #d62728"/>
     <use xlink:href="#me2a5333cb4" x="184.934818" y="283.577155" style="fill: #d62728; stroke: #d62728"/>
     <use xlink:href="#me2a5333cb4" x="200.190649" y="286.238334" style="fill: #d62728; stroke: #d62728"/>
     <use xlink:href="#me2a5333cb4" x="215.44648" y="283.759492" style="fill: #d62728; stroke: #d62728"/>
     <use xlink:href="#me2a5333cb4" x="230.702312" y="286.297496" style="fill: #d62728; stroke: #d62728"/>
     <use xlink:href="#me2a5333cb4" x="245.958143" y="287.752534" style="fill: #d62728; stroke: #d62728"/>
     <use xlink:href="#me2a5333cb4" x="261.213974" y="281.162939" style="fill: #d62728; stroke: #d62728"/>
     <use xlink:href="#me2a5333cb4" x="276.469806" y="284.020288" style="fill: #d62728; stroke: #d62728"/>
     <use xlink:href="#me2a5333cb4" x="306.981468" y="284.844574" style="fill: #d62728; stroke: #d62728"/>
     <use xlink:href="#me2a5333cb4" x="322.2373" y="286.186715" style="fill: #d62728; stroke: #d62728"/>
     <use xlink:href="#me2a5333cb4" x="352.748962" y="289.351632" style="fill: #d62728; stroke: #d62728"/>
     <use xlink:href="#me2a5333cb4" x="368.004794" y="287.698079" style="fill: #d62728; stroke: #d62728"/>
     <use xlink:href="#me2a5333cb4" x="383.260625" y="284.38334" style="fill: #d62728; stroke: #d62728"/>
     <use xlink:href="#me2a5333cb4" x="398.516456" y="285.367533" style="fill: #d62728; stroke: #d62728"/>
     <use xlink:href="#me2a5333cb4" x="413.772288" y="285.749032" style="fill: #d62728; stroke: #d62728"/>
     <use xlink:href="#me2a5333cb4" x="444.28395" y="286.351667" style="fill: #d62728; stroke: #d62728"/>
     <use xlink:href="#me2a5333cb4" x="459.539782" y="288.068451" style="fill: #d62728; stroke: #d62728"/>
     <use xlink:href="#me2a5333cb4" x="474.795613" y="286.273402" style="fill: #d62728; stroke: #d62728"/>
     <use xlink:href="#me2a5333cb4" x="490.051444" y="282.389277" style="fill: #d62728; stroke: #d62728"/>
     <use xlink:href="#me2a5333cb4" x="520.563107" y="285.068925" style="fill: #d62728; stroke: #d62728"/>
     <use xlink:href="#me2a5333cb4" x="535.818938" y="282.095847" style="fill: #d62728; stroke: #d62728"/>
     <use xlink:href="#me2a5333cb4" x="551.07477" y="285.504043" style="fill: #d62728; stroke: #d62728"/>
     <use xlink:href="#me2a5333cb4" x="566.330601" y="284.925507" style="fill: #d62728; stroke: #d62728"/>
     <use xlink:href="#me2a5333cb4" x="581.586432" y="285.20077" style="fill: #d62728; stroke: #d62728"/>
     <use xlink:href="#me2a5333cb4" x="596.842264" y="287.441334" style="fill: #d62728; stroke: #d62728"/>
     <use xlink:href="#me2a5333cb4" x="612.098095" y="282.722539" style="fill: #d62728; stroke: #d62728"/>
     <use xlink:href="#me2a5333cb4" x="627.353926" y="276.577594" style="fill: #d62728; stroke: #d62728"/>
     <use xlink:href="#me2a5333cb4" x="657.865589" y="286.441383" style="fill: #d62728; stroke: #d62728"/>
     <use xlink:href="#me2a5333cb4" x="673.12142" y="275.962874" style="fill: #d62728; stroke: #d62728"/>
    </g>
   </g>
   <g id="line2d_26">
    <path d="M 93.39983 72.672576 
L 108.655661 71.170534 
L 123.911492 171.757446 
L 139.167324 76.360371 
L 154.423155 175.593608 
L 169.678986 76.238119 
L 184.934818 75.280247 
L 200.190649 75.944887 
L 215.44648 77.695079 
L 230.702312 79.242966 
L 245.958143 75.394225 
L 261.213974 76.179059 
L 276.469806 75.413168 
L 306.981468 46.813736 
L 322.2373 74.863866 
L 352.748962 74.899226 
L 368.004794 77.920815 
L 383.260625 75.090369 
L 398.516456 177.096391 
L 413.772288 134.163695 
L 444.28395 76.118159 
L 459.539782 76.587946 
L 474.795613 285.646284 
L 490.051444 287.55 
L 520.563107 287.78835 
L 535.818938 287.574042 
L 551.07477 288.297225 
L 566.330601 285.365389 
L 581.586432 288.270447 
L 596.842264 287.688993 
L 612.098095 285.846028 
L 627.353926 286.964209 
L 657.865589 289.402479 
L 673.12142 287.502197 
" clip-path="url(#p3ad53fc658)" style="fill: none; stroke: #9467bd; stroke-width: 2; stroke-linecap: square"/>
    <defs>
     <path id="m5bee79a633" d="M 0 3 
C 0.795609 3 1.55874 2.683901 2.12132 2.12132 
C 2.683901 1.55874 3 0.795609 3 0 
C 3 -0.795609 2.683901 -1.55874 2.12132 -2.12132 
C 1.55874 -2.683901 0.795609 -3 0 -3 
C -0.795609 -3 -1.55874 -2.683901 -2.12132 -2.12132 
C -2.683901 -1.55874 -3 -0.795609 -3 0 
C -3 0.795609 -2.683901 1.55874 -2.12132 2.12132 
C -1.55874 2.683901 -0.795609 3 0 3 
z
" style="stroke: #9467bd"/>
    </defs>
    <g clip-path="url(#p3ad53fc658)">
     <use xlink:href="#m5bee79a633" x="93.39983" y="72.672576" style="fill: #9467bd; stroke: #9467bd"/>
     <use xlink:href="#m5bee79a633" x="108.655661" y="71.170534" style="fill: #9467bd; stroke: #9467bd"/>
     <use xlink:href="#m5bee79a633" x="123.911492" y="171.757446" style="fill: #9467bd; stroke: #9467bd"/>
     <use xlink:href="#m5bee79a633" x="139.167324" y="76.360371" style="fill: #9467bd; stroke: #9467bd"/>
     <use xlink:href="#m5bee79a633" x="154.423155" y="175.593608" style="fill: #9467bd; stroke: #9467bd"/>
     <use xlink:href="#m5bee79a633" x="169.678986" y="76.238119" style="fill: #9467bd; stroke: #9467bd"/>
     <use xlink:href="#m5bee79a633" x="184.934818" y="75.280247" style="fill: #9467bd; stroke: #9467bd"/>
     <use xlink:href="#m5bee79a633" x="200.190649" y="75.944887" style="fill: #9467bd; stroke: #9467bd"/>
     <use xlink:href="#m5bee79a633" x="215.44648" y="77.695079" style="fill: #9467bd; stroke: #9467bd"/>
     <use xlink:href="#m5bee79a633" x="230.702312" y="79.242966" style="fill: #9467bd; stroke: #9467bd"/>
     <use xlink:href="#m5bee79a633" x="245.958143" y="75.394225" style="fill: #9467bd; stroke: #9467bd"/>
     <use xlink:href="#m5bee79a633" x="261.213974" y="76.179059" style="fill: #9467bd; stroke: #9467bd"/>
     <use xlink:href="#m5bee79a633" x="276.469806" y="75.413168" style="fill: #9467bd; stroke: #9467bd"/>
     <use xlink:href="#m5bee79a633" x="306.981468" y="46.813736" style="fill: #9467bd; stroke: #9467bd"/>
     <use xlink:href="#m5bee79a633" x="322.2373" y="74.863866" style="fill: #9467bd; stroke: #9467bd"/>
     <use xlink:href="#m5bee79a633" x="352.748962" y="74.899226" style="fill: #9467bd; stroke: #9467bd"/>
     <use xlink:href="#m5bee79a633" x="368.004794" y="77.920815" style="fill: #9467bd; stroke: #9467bd"/>
     <use xlink:href="#m5bee79a633" x="383.260625" y="75.090369" style="fill: #9467bd; stroke: #9467bd"/>
     <use xlink:href="#m5bee79a633" x="398.516456" y="177.096391" style="fill: #9467bd; stroke: #9467bd"/>
     <use xlink:href="#m5bee79a633" x="413.772288" y="134.163695" style="fill: #9467bd; stroke: #9467bd"/>
     <use xlink:href="#m5bee79a633" x="444.28395" y="76.118159" style="fill: #9467bd; stroke: #9467bd"/>
     <use xlink:href="#m5bee79a633" x="459.539782" y="76.587946" style="fill: #9467bd; stroke: #9467bd"/>
     <use xlink:href="#m5bee79a633" x="474.795613" y="285.646284" style="fill: #9467bd; stroke: #9467bd"/>
     <use xlink:href="#m5bee79a633" x="490.051444" y="287.55" style="fill: #9467bd; stroke: #9467bd"/>
     <use xlink:href="#m5bee79a633" x="520.563107" y="287.78835" style="fill: #9467bd; stroke: #9467bd"/>
     <use xlink:href="#m5bee79a633" x="535.818938" y="287.574042" style="fill: #9467bd; stroke: #9467bd"/>
     <use xlink:href="#m5bee79a633" x="551.07477" y="288.297225" style="fill: #9467bd; stroke: #9467bd"/>
     <use xlink:href="#m5bee79a633" x="566.330601" y="285.365389" style="fill: #9467bd; stroke: #9467bd"/>
     <use xlink:href="#m5bee79a633" x="581.586432" y="288.270447" style="fill: #9467bd; stroke: #9467bd"/>
     <use xlink:href="#m5bee79a633" x="596.842264" y="287.688993" style="fill: #9467bd; stroke: #9467bd"/>
     <use xlink:href="#m5bee79a633" x="612.098095" y="285.846028" style="fill: #9467bd; stroke: #9467bd"/>
     <use xlink:href="#m5bee79a633" x="627.353926" y="286.964209" style="fill: #9467bd; stroke: #9467bd"/>
     <use xlink:href="#m5bee79a633" x="657.865589" y="289.402479" style="fill: #9467bd; stroke: #9467bd"/>
     <use xlink:href="#m5bee79a633" x="673.12142" y="287.502197" style="fill: #9467bd; stroke: #9467bd"/>
    </g>
   </g>
   <g id="line2d_27">
    <path d="M 93.39983 288.410145 
L 108.655661 287.725399 
L 123.911492 287.42418 
L 139.167324 287.301725 
L 154.423155 289.195523 
L 169.678986 288.223477 
L 184.934818 287.868621 
L 200.190649 288.889558 
L 215.44648 288.158774 
L 230.702312 288.526643 
L 245.958143 287.650844 
L 261.213974 289.356014 
L 276.469806 285.698464 
L 306.981468 285.728186 
L 322.2373 288.513851 
L 352.748962 294.187616 
L 368.004794 288.180987 
L 383.260625 288.032356 
L 398.516456 287.944953 
L 413.772288 287.058117 
L 444.28395 288.654389 
L 459.539782 288.311479 
L 474.795613 286.780635 
L 490.051444 288.80425 
L 520.563107 288.417364 
L 535.818938 286.563061 
L 551.07477 287.377873 
L 566.330601 287.334677 
L 581.586432 287.646364 
L 596.842264 289.139347 
L 612.098095 288.249288 
L 627.353926 287.634331 
L 657.865589 288.885621 
L 673.12142 289.413478 
" clip-path="url(#p3ad53fc658)" style="fill: none; stroke: #8c564b; stroke-width: 2; stroke-linecap: square"/>
    <defs>
     <path id="m9bc83b6c66" d="M 0 3 
C 0.795609 3 1.55874 2.683901 2.12132 2.12132 
C 2.683901 1.55874 3 0.795609 3 0 
C 3 -0.795609 2.683901 -1.55874 2.12132 -2.12132 
C 1.55874 -2.683901 0.795609 -3 0 -3 
C -0.795609 -3 -1.55874 -2.683901 -2.12132 -2.12132 
C -2.683901 -1.55874 -3 -0.795609 -3 0 
C -3 0.795609 -2.683901 1.55874 -2.12132 2.12132 
C -1.55874 2.683901 -0.795609 3 0 3 
z
" style="stroke: #8c564b"/>
    </defs>
    <g clip-path="url(#p3ad53fc658)">
     <use xlink:href="#m9bc83b6c66" x="93.39983" y="288.410145" style="fill: #8c564b; stroke: #8c564b"/>
     <use xlink:href="#m9bc83b6c66" x="108.655661" y="287.725399" style="fill: #8c564b; stroke: #8c564b"/>
     <use xlink:href="#m9bc83b6c66" x="123.911492" y="287.42418" style="fill: #8c564b; stroke: #8c564b"/>
     <use xlink:href="#m9bc83b6c66" x="139.167324" y="287.301725" style="fill: #8c564b; stroke: #8c564b"/>
     <use xlink:href="#m9bc83b6c66" x="154.423155" y="289.195523" style="fill: #8c564b; stroke: #8c564b"/>
     <use xlink:href="#m9bc83b6c66" x="169.678986" y="288.223477" style="fill: #8c564b; stroke: #8c564b"/>
     <use xlink:href="#m9bc83b6c66" x="184.934818" y="287.868621" style="fill: #8c564b; stroke: #8c564b"/>
     <use xlink:href="#m9bc83b6c66" x="200.190649" y="288.889558" style="fill: #8c564b; stroke: #8c564b"/>
     <use xlink:href="#m9bc83b6c66" x="215.44648" y="288.158774" style="fill: #8c564b; stroke: #8c564b"/>
     <use xlink:href="#m9bc83b6c66" x="230.702312" y="288.526643" style="fill: #8c564b; stroke: #8c564b"/>
     <use xlink:href="#m9bc83b6c66" x="245.958143" y="287.650844" style="fill: #8c564b; stroke: #8c564b"/>
     <use xlink:href="#m9bc83b6c66" x="261.213974" y="289.356014" style="fill: #8c564b; stroke: #8c564b"/>
     <use xlink:href="#m9bc83b6c66" x="276.469806" y="285.698464" style="fill: #8c564b; stroke: #8c564b"/>
     <use xlink:href="#m9bc83b6c66" x="306.981468" y="285.728186" style="fill: #8c564b; stroke: #8c564b"/>
     <use xlink:href="#m9bc83b6c66" x="322.2373" y="288.513851" style="fill: #8c564b; stroke: #8c564b"/>
     <use xlink:href="#m9bc83b6c66" x="352.748962" y="294.187616" style="fill: #8c564b; stroke: #8c564b"/>
     <use xlink:href="#m9bc83b6c66" x="368.004794" y="288.180987" style="fill: #8c564b; stroke: #8c564b"/>
     <use xlink:href="#m9bc83b6c66" x="383.260625" y="288.032356" style="fill: #8c564b; stroke: #8c564b"/>
     <use xlink:href="#m9bc83b6c66" x="398.516456" y="287.944953" style="fill: #8c564b; stroke: #8c564b"/>
     <use xlink:href="#m9bc83b6c66" x="413.772288" y="287.058117" style="fill: #8c564b; stroke: #8c564b"/>
     <use xlink:href="#m9bc83b6c66" x="444.28395" y="288.654389" style="fill: #8c564b; stroke: #8c564b"/>
     <use xlink:href="#m9bc83b6c66" x="459.539782" y="288.311479" style="fill: #8c564b; stroke: #8c564b"/>
     <use xlink:href="#m9bc83b6c66" x="474.795613" y="286.780635" style="fill: #8c564b; stroke: #8c564b"/>
     <use xlink:href="#m9bc83b6c66" x="490.051444" y="288.80425" style="fill: #8c564b; stroke: #8c564b"/>
     <use xlink:href="#m9bc83b6c66" x="520.563107" y="288.417364" style="fill: #8c564b; stroke: #8c564b"/>
     <use xlink:href="#m9bc83b6c66" x="535.818938" y="286.563061" style="fill: #8c564b; stroke: #8c564b"/>
     <use xlink:href="#m9bc83b6c66" x="551.07477" y="287.377873" style="fill: #8c564b; stroke: #8c564b"/>
     <use xlink:href="#m9bc83b6c66" x="566.330601" y="287.334677" style="fill: #8c564b; stroke: #8c564b"/>
     <use xlink:href="#m9bc83b6c66" x="581.586432" y="287.646364" style="fill: #8c564b; stroke: #8c564b"/>
     <use xlink:href="#m9bc83b6c66" x="596.842264" y="289.139347" style="fill: #8c564b; stroke: #8c564b"/>
     <use xlink:href="#m9bc83b6c66" x="612.098095" y="288.249288" style="fill: #8c564b; stroke: #8c564b"/>
     <use xlink:href="#m9bc83b6c66" x="627.353926" y="287.634331" style="fill: #8c564b; stroke: #8c564b"/>
     <use xlink:href="#m9bc83b6c66" x="657.865589" y="288.885621" style="fill: #8c564b; stroke: #8c564b"/>
     <use xlink:href="#m9bc83b6c66" x="673.12142" y="289.413478" style="fill: #8c564b; stroke: #8c564b"/>
    </g>
   </g>
   <g id="patch_3">
    <path d="M 64.41375 529.308125 
L 64.41375 23.837812 
" style="fill: none; stroke: #000000; stroke-width: 0.8; stroke-linejoin: miter; stroke-linecap: square"/>
   </g>
   <g id="patch_4">
    <path d="M 702.1075 529.308125 
L 702.1075 23.837812 
" style="fill: none; stroke: #000000; stroke-width: 0.8; stroke-linejoin: miter; stroke-linecap: square"/>
   </g>
   <g id="patch_5">
    <path d="M 64.41375 529.308125 
L 702.1075 529.308125 
" style="fill: none; stroke: #000000; stroke-width: 0.8; stroke-linejoin: miter; stroke-linecap: square"/>
   </g>
   <g id="patch_6">
    <path d="M 64.41375 23.837812 
L 702.1075 23.837812 
" style="fill: none; stroke: #000000; stroke-width: 0.8; stroke-linejoin: miter; stroke-linecap: square"/>
   </g>
   <g id="text_15">
    <text style="font: 700 14px 'DejaVu Sans', 'Bitstream Vera Sans', 'Computer Modern Sans Serif', 'Lucida Grande', 'Verdana', 'Geneva', 'Lucid', 'Arial', 'Helvetica', 'Avant Garde', sans-serif; text-anchor: middle" x="383.260625" y="17.837813" transform="rotate(-0 383.260625 17.837813)">Taskthroughput - Performance Trend</text>
   </g>
   <g id="legend_1">
    <g id="patch_7">
     <path d="M 740.992188 119.906563 
L 846.004688 119.906563 
Q 848.004688 119.906563 848.004688 117.906563 
L 848.004688 30.837813 
Q 848.004688 28.837813 846.004688 28.837813 
L 740.992188 28.837813 
Q 738.992188 28.837813 738.992188 30.837813 
L 738.992188 117.906563 
Q 738.992188 119.906563 740.992188 119.906563 
z
" style="fill: #ffffff; opacity: 0.8; stroke: #cccccc; stroke-linejoin: miter"/>
    </g>
    <g id="line2d_28">
     <path d="M 742.992188 36.93625 
L 752.992188 36.93625 
L 762.992188 36.93625 
" style="fill: none; stroke: #1f77b4; stroke-width: 2; stroke-linecap: square"/>
     <g>
      <use xlink:href="#m686e227fb8" x="752.992188" y="36.93625" style="fill: #1f77b4; stroke: #1f77b4"/>
     </g>
    </g>
    <g id="text_16">
     <text style="font: 10px 'DejaVu Sans', 'Bitstream Vera Sans', 'Computer Modern Sans Serif', 'Lucida Grande', 'Verdana', 'Geneva', 'Lucid', 'Arial', 'Helvetica', 'Avant Garde', sans-serif; text-anchor: start" x="770.992188" y="40.43625" transform="rotate(-0 770.992188 40.43625)">gcc-14.2 - V1</text>
    </g>
    <g id="line2d_29">
     <path d="M 742.992188 51.614375 
L 752.992188 51.614375 
L 762.992188 51.614375 
" style="fill: none; stroke: #ff7f0e; stroke-width: 2; stroke-linecap: square"/>
     <g>
      <use xlink:href="#m33a9d67a82" x="752.992188" y="51.614375" style="fill: #ff7f0e; stroke: #ff7f0e"/>
     </g>
    </g>
    <g id="text_17">
     <text style="font: 10px 'DejaVu Sans', 'Bitstream Vera Sans', 'Computer Modern Sans Serif', 'Lucida Grande', 'Verdana', 'Geneva', 'Lucid', 'Arial', 'Helvetica', 'Avant Garde', sans-serif; text-anchor: start" x="770.992188" y="55.114375" transform="rotate(-0 770.992188 55.114375)">gcc-14.2 - V2</text>
    </g>
    <g id="line2d_30">
     <path d="M 742.992188 66.2925 
L 752.992188 66.2925 
L 762.992188 66.2925 
" style="fill: none; stroke: #2ca02c; stroke-width: 2; stroke-linecap: square"/>
     <g>
      <use xlink:href="#m7526b145a1" x="752.992188" y="66.2925" style="fill: #2ca02c; stroke: #2ca02c"/>
     </g>
    </g>
    <g id="text_18">
     <text style="font: 10px 'DejaVu Sans', 'Bitstream Vera Sans', 'Computer Modern Sans Serif', 'Lucida Grande', 'Verdana', 'Geneva', 'Lucid', 'Arial', 'Helvetica', 'Avant Garde', sans-serif; text-anchor: start" x="770.992188" y="69.7925" transform="rotate(-0 770.992188 69.7925)">gcc-14.2 - TBB</text>
    </g>
    <g id="line2d_31">
     <path d="M 742.992188 80.970625 
L 752.992188 80.970625 
L 762.992188 80.970625 
" style="fill: none; stroke: #d62728; stroke-width: 2; stroke-linecap: square"/>
     <g>
      <use xlink:href="#me2a5333cb4" x="752.992188" y="80.970625" style="fill: #d62728; stroke: #d62728"/>
     </g>
    </g>
    <g id="text_19">
     <text style="font: 10px 'DejaVu Sans', 'Bitstream Vera Sans', 'Computer Modern Sans Serif', 'Lucida Grande', 'Verdana', 'Geneva', 'Lucid', 'Arial', 'Helvetica', 'Avant Garde', sans-serif; text-anchor: start" x="770.992188" y="84.470625" transform="rotate(-0 770.992188 84.470625)">gcc-4.2 - V1</text>
    </g>
    <g id="line2d_32">
     <path d="M 742.992188 95.64875 
L 752.992188 95.64875 
L 762.992188 95.64875 
" style="fill: none; stroke: #9467bd; stroke-width: 2; stroke-linecap: square"/>
     <g>
      <use xlink:href="#m5bee79a633" x="752.992188" y="95.64875" style="fill: #9467bd; stroke: #9467bd"/>
     </g>
    </g>
    <g id="text_20">
     <text style="font: 10px 'DejaVu Sans', 'Bitstream Vera Sans', 'Computer Modern Sans Serif', 'Lucida Grande', 'Verdana', 'Geneva', 'Lucid', 'Arial', 'Helvetica', 'Avant Garde', sans-serif; text-anchor: start" x="770.992188" y="99.14875" transform="rotate(-0 770.992188 99.14875)">gcc-4.2 - V2</text>
    </g>
    <g id="line2d_33">
     <path d="M 742.992188 110.326875 
L 752.992188 110.326875 
L 762.992188 110.326875 
" style="fill: none; stroke: #8c564b; stroke-width: 2; stroke-linecap: square"/>
     <g>
      <use xlink:href="#m9bc83b6c66" x="752.992188" y="110.326875" style="fill: #8c564b; stroke: #8c564b"/>
     </g>
    </g>
    <g id="text_21">
     <text style="font: 10px 'DejaVu Sans', 'Bitstream Vera Sans', 'Computer Modern Sans Serif', 'Lucida Grande', 'Verdana', 'Geneva', 'Lucid', 'Arial', 'Helvetica', 'Avant Garde', sans-serif; text-anchor: start" x="770.992188" y="113.826875" transform="rotate(-0 770.992188 113.826875)">gcc-4.2 - TBB</text>
    </g>
   </g>
  </g>
 </g>
 <defs>
  <clipPath id="p3ad53fc658">
   <rect x="64.41375" y="23.837813" width="637.69375" height="505.470313"/>
  </clipPath>
 </defs>
</svg>
