<?xml version="1.0" encoding="utf-8" standalone="no"?>
<!DOCTYPE svg PUBLIC "-//W3C//DTD SVG 1.1//EN"
  "http://www.w3.org/Graphics/SVG/1.1/DTD/svg11.dtd">
<svg xmlns:xlink="http://www.w3.org/1999/xlink" width="855.204687pt" height="568.8pt" viewBox="0 0 855.204687 568.8" xmlns="http://www.w3.org/2000/svg" version="1.1">
 <metadata>
  <rdf:RDF xmlns:dc="http://purl.org/dc/elements/1.1/" xmlns:cc="http://creativecommons.org/ns#" xmlns:rdf="http://www.w3.org/1999/02/22-rdf-syntax-ns#">
   <cc:Work>
    <dc:type rdf:resource="http://purl.org/dc/dcmitype/StillImage"/>
    <dc:date>2025-08-30T10:56:09.033786</dc:date>
    <dc:format>image/svg+xml</dc:format>
    <dc:creator>
     <cc:Agent>
      <dc:title>Matplotlib v3.9.4, https://matplotlib.org/</dc:title>
     </cc:Agent>
    </dc:creator>
   </cc:Work>
  </rdf:RDF>
 </metadata>
 <defs>
  <style type="text/css">*{stroke-linejoin: round; stroke-linecap: butt}</style>
 </defs>
 <g id="figure_1">
  <g id="patch_1">
   <path d="M 0 568.8 
L 855.204687 568.8 
L 855.204687 0 
L 0 0 
z
" style="fill: #ffffff"/>
  </g>
  <g id="axes_1">
   <g id="patch_2">
    <path d="M 64.41375 529.308125 
L 702.1075 529.308125 
L 702.1075 23.837812 
L 64.41375 23.837812 
z
" style="fill: #ffffff"/>
   </g>
   <g id="matplotlib.axis_1">
    <g id="xtick_1">
     <g id="line2d_1">
      <path d="M 78.90679 529.308125 
L 78.90679 23.837812 
" clip-path="url(#p5e8c8673e2)" style="fill: none; stroke: #b0b0b0; stroke-opacity: 0.3; stroke-width: 0.8; stroke-linecap: square"/>
     </g>
     <g id="line2d_2">
      <defs>
       <path id="m5a9fc4291d" d="M 0 0 
L 0 3.5 
" style="stroke: #000000; stroke-width: 0.8"/>
      </defs>
      <g>
       <use xlink:href="#m5a9fc4291d" x="78.90679" y="529.308125" style="stroke: #000000; stroke-width: 0.8"/>
      </g>
     </g>
     <g id="text_1">
      <text style="font: 10px 'DejaVu Sans', 'Bitstream Vera Sans', 'Computer Modern Sans Serif', 'Lucida Grande', 'Verdana', 'Geneva', 'Lucid', 'Arial', 'Helvetica', 'Avant Garde', sans-serif; text-anchor: middle" x="78.90679" y="543.906563" transform="rotate(-0 78.90679 543.906563)">70</text>
     </g>
    </g>
    <g id="xtick_2">
     <g id="line2d_3">
      <path d="M 151.371989 529.308125 
L 151.371989 23.837812 
" clip-path="url(#p5e8c8673e2)" style="fill: none; stroke: #b0b0b0; stroke-opacity: 0.3; stroke-width: 0.8; stroke-linecap: square"/>
     </g>
     <g id="line2d_4">
      <g>
       <use xlink:href="#m5a9fc4291d" x="151.371989" y="529.308125" style="stroke: #000000; stroke-width: 0.8"/>
      </g>
     </g>
     <g id="text_2">
      <text style="font: 10px 'DejaVu Sans', 'Bitstream Vera Sans', 'Computer Modern Sans Serif', 'Lucida Grande', 'Verdana', 'Geneva', 'Lucid', 'Arial', 'Helvetica', 'Avant Garde', sans-serif; text-anchor: middle" x="151.371989" y="543.906563" transform="rotate(-0 151.371989 543.906563)">75</text>
     </g>
    </g>
    <g id="xtick_3">
     <g id="line2d_5">
      <path d="M 223.837187 529.308125 
L 223.837187 23.837812 
" clip-path="url(#p5e8c8673e2)" style="fill: none; stroke: #b0b0b0; stroke-opacity: 0.3; stroke-width: 0.8; stroke-linecap: square"/>
     </g>
     <g id="line2d_6">
      <g>
       <use xlink:href="#m5a9fc4291d" x="223.837187" y="529.308125" style="stroke: #000000; stroke-width: 0.8"/>
      </g>
     </g>
     <g id="text_3">
      <text style="font: 10px 'DejaVu Sans', 'Bitstream Vera Sans', 'Computer Modern Sans Serif', 'Lucida Grande', 'Verdana', 'Geneva', 'Lucid', 'Arial', 'Helvetica', 'Avant Garde', sans-serif; text-anchor: middle" x="223.837187" y="543.906563" transform="rotate(-0 223.837187 543.906563)">80</text>
     </g>
    </g>
    <g id="xtick_4">
     <g id="line2d_7">
      <path d="M 296.302386 529.308125 
L 296.302386 23.837812 
" clip-path="url(#p5e8c8673e2)" style="fill: none; stroke: #b0b0b0; stroke-opacity: 0.3; stroke-width: 0.8; stroke-linecap: square"/>
     </g>
     <g id="line2d_8">
      <g>
       <use xlink:href="#m5a9fc4291d" x="296.302386" y="529.308125" style="stroke: #000000; stroke-width: 0.8"/>
      </g>
     </g>
     <g id="text_4">
      <text style="font: 10px 'DejaVu Sans', 'Bitstream Vera Sans', 'Computer Modern Sans Serif', 'Lucida Grande', 'Verdana', 'Geneva', 'Lucid', 'Arial', 'Helvetica', 'Avant Garde', sans-serif; text-anchor: middle" x="296.302386" y="543.906563" transform="rotate(-0 296.302386 543.906563)">85</text>
     </g>
    </g>
    <g id="xtick_5">
     <g id="line2d_9">
      <path d="M 368.767585 529.308125 
L 368.767585 23.837812 
" clip-path="url(#p5e8c8673e2)" style="fill: none; stroke: #b0b0b0; stroke-opacity: 0.3; stroke-width: 0.8; stroke-linecap: square"/>
     </g>
     <g id="line2d_10">
      <g>
       <use xlink:href="#m5a9fc4291d" x="368.767585" y="529.308125" style="stroke: #000000; stroke-width: 0.8"/>
      </g>
     </g>
     <g id="text_5">
      <text style="font: 10px 'DejaVu Sans', 'Bitstream Vera Sans', 'Computer Modern Sans Serif', 'Lucida Grande', 'Verdana', 'Geneva', 'Lucid', 'Arial', 'Helvetica', 'Avant Garde', sans-serif; text-anchor: middle" x="368.767585" y="543.906563" transform="rotate(-0 368.767585 543.906563)">90</text>
     </g>
    </g>
    <g id="xtick_6">
     <g id="line2d_11">
      <path d="M 441.232784 529.308125 
L 441.232784 23.837812 
" clip-path="url(#p5e8c8673e2)" style="fill: none; stroke: #b0b0b0; stroke-opacity: 0.3; stroke-width: 0.8; stroke-linecap: square"/>
     </g>
     <g id="line2d_12">
      <g>
       <use xlink:href="#m5a9fc4291d" x="441.232784" y="529.308125" style="stroke: #000000; stroke-width: 0.8"/>
      </g>
     </g>
     <g id="text_6">
      <text style="font: 10px 'DejaVu Sans', 'Bitstream Vera Sans', 'Computer Modern Sans Serif', 'Lucida Grande', 'Verdana', 'Geneva', 'Lucid', 'Arial', 'Helvetica', 'Avant Garde', sans-serif; text-anchor: middle" x="441.232784" y="543.906563" transform="rotate(-0 441.232784 543.906563)">95</text>
     </g>
    </g>
    <g id="xtick_7">
     <g id="line2d_13">
      <path d="M 513.697983 529.308125 
L 513.697983 23.837812 
" clip-path="url(#p5e8c8673e2)" style="fill: none; stroke: #b0b0b0; stroke-opacity: 0.3; stroke-width: 0.8; stroke-linecap: square"/>
     </g>
     <g id="line2d_14">
      <g>
       <use xlink:href="#m5a9fc4291d" x="513.697983" y="529.308125" style="stroke: #000000; stroke-width: 0.8"/>
      </g>
     </g>
     <g id="text_7">
      <text style="font: 10px 'DejaVu Sans', 'Bitstream Vera Sans', 'Computer Modern Sans Serif', 'Lucida Grande', 'Verdana', 'Geneva', 'Lucid', 'Arial', 'Helvetica', 'Avant Garde', sans-serif; text-anchor: middle" x="513.697983" y="543.906563" transform="rotate(-0 513.697983 543.906563)">100</text>
     </g>
    </g>
    <g id="xtick_8">
     <g id="line2d_15">
      <path d="M 586.163182 529.308125 
L 586.163182 23.837812 
" clip-path="url(#p5e8c8673e2)" style="fill: none; stroke: #b0b0b0; stroke-opacity: 0.3; stroke-width: 0.8; stroke-linecap: square"/>
     </g>
     <g id="line2d_16">
      <g>
       <use xlink:href="#m5a9fc4291d" x="586.163182" y="529.308125" style="stroke: #000000; stroke-width: 0.8"/>
      </g>
     </g>
     <g id="text_8">
      <text style="font: 10px 'DejaVu Sans', 'Bitstream Vera Sans', 'Computer Modern Sans Serif', 'Lucida Grande', 'Verdana', 'Geneva', 'Lucid', 'Arial', 'Helvetica', 'Avant Garde', sans-serif; text-anchor: middle" x="586.163182" y="543.906563" transform="rotate(-0 586.163182 543.906563)">105</text>
     </g>
    </g>
    <g id="xtick_9">
     <g id="line2d_17">
      <path d="M 658.628381 529.308125 
L 658.628381 23.837812 
" clip-path="url(#p5e8c8673e2)" style="fill: none; stroke: #b0b0b0; stroke-opacity: 0.3; stroke-width: 0.8; stroke-linecap: square"/>
     </g>
     <g id="line2d_18">
      <g>
       <use xlink:href="#m5a9fc4291d" x="658.628381" y="529.308125" style="stroke: #000000; stroke-width: 0.8"/>
      </g>
     </g>
     <g id="text_9">
      <text style="font: 10px 'DejaVu Sans', 'Bitstream Vera Sans', 'Computer Modern Sans Serif', 'Lucida Grande', 'Verdana', 'Geneva', 'Lucid', 'Arial', 'Helvetica', 'Avant Garde', sans-serif; text-anchor: middle" x="658.628381" y="543.906563" transform="rotate(-0 658.628381 543.906563)">110</text>
     </g>
    </g>
    <g id="text_10">
     <text style="font: 12px 'DejaVu Sans', 'Bitstream Vera Sans', 'Computer Modern Sans Serif', 'Lucida Grande', 'Verdana', 'Geneva', 'Lucid', 'Arial', 'Helvetica', 'Avant Garde', sans-serif; text-anchor: middle" x="383.260625" y="559.104375" transform="rotate(-0 383.260625 559.104375)">Build Number</text>
    </g>
   </g>
   <g id="matplotlib.axis_2">
    <g id="ytick_1">
     <g id="line2d_19">
      <path d="M 64.41375 453.786204 
L 702.1075 453.786204 
" clip-path="url(#p5e8c8673e2)" style="fill: none; stroke: #b0b0b0; stroke-opacity: 0.3; stroke-width: 0.8; stroke-linecap: square"/>
     </g>
     <g id="line2d_20">
      <defs>
       <path id="m1663046114" d="M 0 0 
L -3.5 0 
" style="stroke: #000000; stroke-width: 0.8"/>
      </defs>
      <g>
       <use xlink:href="#m1663046114" x="64.41375" y="453.786204" style="stroke: #000000; stroke-width: 0.8"/>
      </g>
     </g>
     <g id="text_11">
      <!-- $\mathdefault{10^{5}}$ -->
      <g transform="translate(39.81375 457.585423)">
       <text>
        <tspan style="font: 10px 'DejaVu Sans'" x="0 6.362305" y="-0.06406250000000036">10</tspan>
        <tspan style="font: 7px 'DejaVu Sans'" x="12.820312" y="-3.8921875000000004">5</tspan>
       </text>
      </g>
     </g>
    </g>
    <g id="ytick_2">
     <g id="line2d_21">
      <defs>
       <path id="m778acba0f6" d="M 0 0 
L -2 0 
" style="stroke: #000000; stroke-width: 0.6"/>
      </defs>
      <g>
       <use xlink:href="#m778acba0f6" x="64.41375" y="496.873642" style="stroke: #000000; stroke-width: 0.6"/>
      </g>
     </g>
    </g>
    <g id="ytick_3">
     <g id="line2d_22">
      <g>
       <use xlink:href="#m778acba0f6" x="64.41375" y="170.321985" style="stroke: #000000; stroke-width: 0.6"/>
      </g>
     </g>
     <g id="text_12">
      <!-- $\mathdefault{2\times10^{5}}$ -->
      <g transform="translate(22.81375 174.121204)">
       <text>
        <tspan style="font: 10px 'DejaVu Sans'" x="0 8.310547 18.637695 25" y="-0.06406250000000036">2×10</tspan>
        <tspan style="font: 7px 'DejaVu Sans'" x="31.458008" y="-3.8921875000000004">5</tspan>
       </text>
      </g>
     </g>
    </g>
    <g id="text_13">
     <text style="font: 12px 'DejaVu Sans', 'Bitstream Vera Sans', 'Computer Modern Sans Serif', 'Lucida Grande', 'Verdana', 'Geneva', 'Lucid', 'Arial', 'Helvetica', 'Avant Garde', sans-serif; text-anchor: middle" x="16.318125" y="276.572969" transform="rotate(-90 16.318125 276.572969)">Median Elapsed Time (nanoseconds)</text>
    </g>
   </g>
   <g id="line2d_23">
    <path d="M 93.39983 358.594402 
L 107.892869 83.393181 
L 122.385909 220.76105 
L 136.878949 331.184044 
L 151.371989 228.639233 
L 165.865028 318.546856 
L 180.358068 271.249317 
L 194.851108 112.928166 
L 209.344148 300.433378 
L 223.837187 288.178339 
L 238.330227 314.544957 
L 252.823267 271.473142 
L 267.316307 355.083876 
L 281.809347 289.902078 
L 296.302386 324.935545 
L 310.795426 310.91823 
L 339.781506 46.813736 
L 354.274545 298.535776 
L 368.767585 272.004793 
L 383.260625 264.733822 
L 397.753665 300.821441 
L 412.246705 315.773402 
L 426.739744 320.378392 
L 441.232784 300.841979 
L 455.725824 296.635402 
L 470.218864 282.449221 
L 499.204943 284.389929 
L 513.697983 256.561491 
L 528.191023 311.509364 
L 542.684062 291.407878 
L 557.177102 290.404492 
L 571.670142 328.307603 
L 586.163182 139.93792 
L 600.656222 288.312839 
L 629.642301 220.472468 
L 644.135341 292.825429 
L 658.628381 296.904058 
L 673.12142 96.594551 
" clip-path="url(#p5e8c8673e2)" style="fill: none; stroke: #1f77b4; stroke-width: 2; stroke-linecap: square"/>
    <defs>
     <path id="m9dc1e94470" d="M 0 3 
C 0.795609 3 1.55874 2.683901 2.12132 2.12132 
C 2.683901 1.55874 3 0.795609 3 0 
C 3 -0.795609 2.683901 -1.55874 2.12132 -2.12132 
C 1.55874 -2.683901 0.795609 -3 0 -3 
C -0.795609 -3 -1.55874 -2.683901 -2.12132 -2.12132 
C -2.683901 -1.55874 -3 -0.795609 -3 0 
C -3 0.795609 -2.683901 1.55874 -2.12132 2.12132 
C -1.55874 2.683901 -0.795609 3 0 3 
z
" style="stroke: #1f77b4"/>
    </defs>
    <g clip-path="url(#p5e8c8673e2)">
     <use xlink:href="#m9dc1e94470" x="93.39983" y="358.594402" style="fill: #1f77b4; stroke: #1f77b4"/>
     <use xlink:href="#m9dc1e94470" x="107.892869" y="83.393181" style="fill: #1f77b4; stroke: #1f77b4"/>
     <use xlink:href="#m9dc1e94470" x="122.385909" y="220.76105" style="fill: #1f77b4; stroke: #1f77b4"/>
     <use xlink:href="#m9dc1e94470" x="136.878949" y="331.184044" style="fill: #1f77b4; stroke: #1f77b4"/>
     <use xlink:href="#m9dc1e94470" x="151.371989" y="228.639233" style="fill: #1f77b4; stroke: #1f77b4"/>
     <use xlink:href="#m9dc1e94470" x="165.865028" y="318.546856" style="fill: #1f77b4; stroke: #1f77b4"/>
     <use xlink:href="#m9dc1e94470" x="180.358068" y="271.249317" style="fill: #1f77b4; stroke: #1f77b4"/>
     <use xlink:href="#m9dc1e94470" x="194.851108" y="112.928166" style="fill: #1f77b4; stroke: #1f77b4"/>
     <use xlink:href="#m9dc1e94470" x="209.344148" y="300.433378" style="fill: #1f77b4; stroke: #1f77b4"/>
     <use xlink:href="#m9dc1e94470" x="223.837187" y="288.178339" style="fill: #1f77b4; stroke: #1f77b4"/>
     <use xlink:href="#m9dc1e94470" x="238.330227" y="314.544957" style="fill: #1f77b4; stroke: #1f77b4"/>
     <use xlink:href="#m9dc1e94470" x="252.823267" y="271.473142" style="fill: #1f77b4; stroke: #1f77b4"/>
     <use xlink:href="#m9dc1e94470" x="267.316307" y="355.083876" style="fill: #1f77b4; stroke: #1f77b4"/>
     <use xlink:href="#m9dc1e94470" x="281.809347" y="289.902078" style="fill: #1f77b4; stroke: #1f77b4"/>
     <use xlink:href="#m9dc1e94470" x="296.302386" y="324.935545" style="fill: #1f77b4; stroke: #1f77b4"/>
     <use xlink:href="#m9dc1e94470" x="310.795426" y="310.91823" style="fill: #1f77b4; stroke: #1f77b4"/>
     <use xlink:href="#m9dc1e94470" x="339.781506" y="46.813736" style="fill: #1f77b4; stroke: #1f77b4"/>
     <use xlink:href="#m9dc1e94470" x="354.274545" y="298.535776" style="fill: #1f77b4; stroke: #1f77b4"/>
     <use xlink:href="#m9dc1e94470" x="368.767585" y="272.004793" style="fill: #1f77b4; stroke: #1f77b4"/>
     <use xlink:href="#m9dc1e94470" x="383.260625" y="264.733822" style="fill: #1f77b4; stroke: #1f77b4"/>
     <use xlink:href="#m9dc1e94470" x="397.753665" y="300.821441" style="fill: #1f77b4; stroke: #1f77b4"/>
     <use xlink:href="#m9dc1e94470" x="412.246705" y="315.773402" style="fill: #1f77b4; stroke: #1f77b4"/>
     <use xlink:href="#m9dc1e94470" x="426.739744" y="320.378392" style="fill: #1f77b4; stroke: #1f77b4"/>
     <use xlink:href="#m9dc1e94470" x="441.232784" y="300.841979" style="fill: #1f77b4; stroke: #1f77b4"/>
     <use xlink:href="#m9dc1e94470" x="455.725824" y="296.635402" style="fill: #1f77b4; stroke: #1f77b4"/>
     <use xlink:href="#m9dc1e94470" x="470.218864" y="282.449221" style="fill: #1f77b4; stroke: #1f77b4"/>
     <use xlink:href="#m9dc1e94470" x="499.204943" y="284.389929" style="fill: #1f77b4; stroke: #1f77b4"/>
     <use xlink:href="#m9dc1e94470" x="513.697983" y="256.561491" style="fill: #1f77b4; stroke: #1f77b4"/>
     <use xlink:href="#m9dc1e94470" x="528.191023" y="311.509364" style="fill: #1f77b4; stroke: #1f77b4"/>
     <use xlink:href="#m9dc1e94470" x="542.684062" y="291.407878" style="fill: #1f77b4; stroke: #1f77b4"/>
     <use xlink:href="#m9dc1e94470" x="557.177102" y="290.404492" style="fill: #1f77b4; stroke: #1f77b4"/>
     <use xlink:href="#m9dc1e94470" x="571.670142" y="328.307603" style="fill: #1f77b4; stroke: #1f77b4"/>
     <use xlink:href="#m9dc1e94470" x="586.163182" y="139.93792" style="fill: #1f77b4; stroke: #1f77b4"/>
     <use xlink:href="#m9dc1e94470" x="600.656222" y="288.312839" style="fill: #1f77b4; stroke: #1f77b4"/>
     <use xlink:href="#m9dc1e94470" x="629.642301" y="220.472468" style="fill: #1f77b4; stroke: #1f77b4"/>
     <use xlink:href="#m9dc1e94470" x="644.135341" y="292.825429" style="fill: #1f77b4; stroke: #1f77b4"/>
     <use xlink:href="#m9dc1e94470" x="658.628381" y="296.904058" style="fill: #1f77b4; stroke: #1f77b4"/>
     <use xlink:href="#m9dc1e94470" x="673.12142" y="96.594551" style="fill: #1f77b4; stroke: #1f77b4"/>
    </g>
   </g>
   <g id="line2d_24">
    <path d="M 93.39983 392.679679 
L 107.892869 386.936497 
L 122.385909 398.248244 
L 136.878949 385.343502 
L 151.371989 339.569664 
L 165.865028 404.385915 
L 180.358068 381.678582 
L 194.851108 408.819049 
L 209.344148 396.668627 
L 223.837187 335.900085 
L 238.330227 374.883943 
L 252.823267 381.8178 
L 267.316307 372.43382 
L 281.809347 408.554433 
L 296.302386 391.855324 
L 310.795426 368.569402 
L 339.781506 391.970803 
L 354.274545 383.410177 
L 368.767585 355.940819 
L 383.260625 365.503518 
L 397.753665 346.510892 
L 412.246705 416.125962 
L 426.739744 357.092056 
L 441.232784 354.857344 
L 455.725824 282.149957 
L 470.218864 279.938227 
L 499.204943 284.948124 
L 513.697983 314.650581 
L 528.191023 310.644081 
L 542.684062 291.583875 
L 557.177102 299.684166 
L 571.670142 328.841744 
L 586.163182 285.576462 
L 600.656222 289.786224 
L 629.642301 310.995232 
L 644.135341 289.30262 
L 658.628381 296.690702 
L 673.12142 354.54794 
" clip-path="url(#p5e8c8673e2)" style="fill: none; stroke: #ff7f0e; stroke-width: 2; stroke-linecap: square"/>
    <defs>
     <path id="m7c95d3e5bb" d="M 0 3 
C 0.795609 3 1.55874 2.683901 2.12132 2.12132 
C 2.683901 1.55874 3 0.795609 3 0 
C 3 -0.795609 2.683901 -1.55874 2.12132 -2.12132 
C 1.55874 -2.683901 0.795609 -3 0 -3 
C -0.795609 -3 -1.55874 -2.683901 -2.12132 -2.12132 
C -2.683901 -1.55874 -3 -0.795609 -3 0 
C -3 0.795609 -2.683901 1.55874 -2.12132 2.12132 
C -1.55874 2.683901 -0.795609 3 0 3 
z
" style="stroke: #ff7f0e"/>
    </defs>
    <g clip-path="url(#p5e8c8673e2)">
     <use xlink:href="#m7c95d3e5bb" x="93.39983" y="392.679679" style="fill: #ff7f0e; stroke: #ff7f0e"/>
     <use xlink:href="#m7c95d3e5bb" x="107.892869" y="386.936497" style="fill: #ff7f0e; stroke: #ff7f0e"/>
     <use xlink:href="#m7c95d3e5bb" x="122.385909" y="398.248244" style="fill: #ff7f0e; stroke: #ff7f0e"/>
     <use xlink:href="#m7c95d3e5bb" x="136.878949" y="385.343502" style="fill: #ff7f0e; stroke: #ff7f0e"/>
     <use xlink:href="#m7c95d3e5bb" x="151.371989" y="339.569664" style="fill: #ff7f0e; stroke: #ff7f0e"/>
     <use xlink:href="#m7c95d3e5bb" x="165.865028" y="404.385915" style="fill: #ff7f0e; stroke: #ff7f0e"/>
     <use xlink:href="#m7c95d3e5bb" x="180.358068" y="381.678582" style="fill: #ff7f0e; stroke: #ff7f0e"/>
     <use xlink:href="#m7c95d3e5bb" x="194.851108" y="408.819049" style="fill: #ff7f0e; stroke: #ff7f0e"/>
     <use xlink:href="#m7c95d3e5bb" x="209.344148" y="396.668627" style="fill: #ff7f0e; stroke: #ff7f0e"/>
     <use xlink:href="#m7c95d3e5bb" x="223.837187" y="335.900085" style="fill: #ff7f0e; stroke: #ff7f0e"/>
     <use xlink:href="#m7c95d3e5bb" x="238.330227" y="374.883943" style="fill: #ff7f0e; stroke: #ff7f0e"/>
     <use xlink:href="#m7c95d3e5bb" x="252.823267" y="381.8178" style="fill: #ff7f0e; stroke: #ff7f0e"/>
     <use xlink:href="#m7c95d3e5bb" x="267.316307" y="372.43382" style="fill: #ff7f0e; stroke: #ff7f0e"/>
     <use xlink:href="#m7c95d3e5bb" x="281.809347" y="408.554433" style="fill: #ff7f0e; stroke: #ff7f0e"/>
     <use xlink:href="#m7c95d3e5bb" x="296.302386" y="391.855324" style="fill: #ff7f0e; stroke: #ff7f0e"/>
     <use xlink:href="#m7c95d3e5bb" x="310.795426" y="368.569402" style="fill: #ff7f0e; stroke: #ff7f0e"/>
     <use xlink:href="#m7c95d3e5bb" x="339.781506" y="391.970803" style="fill: #ff7f0e; stroke: #ff7f0e"/>
     <use xlink:href="#m7c95d3e5bb" x="354.274545" y="383.410177" style="fill: #ff7f0e; stroke: #ff7f0e"/>
     <use xlink:href="#m7c95d3e5bb" x="368.767585" y="355.940819" style="fill: #ff7f0e; stroke: #ff7f0e"/>
     <use xlink:href="#m7c95d3e5bb" x="383.260625" y="365.503518" style="fill: #ff7f0e; stroke: #ff7f0e"/>
     <use xlink:href="#m7c95d3e5bb" x="397.753665" y="346.510892" style="fill: #ff7f0e; stroke: #ff7f0e"/>
     <use xlink:href="#m7c95d3e5bb" x="412.246705" y="416.125962" style="fill: #ff7f0e; stroke: #ff7f0e"/>
     <use xlink:href="#m7c95d3e5bb" x="426.739744" y="357.092056" style="fill: #ff7f0e; stroke: #ff7f0e"/>
     <use xlink:href="#m7c95d3e5bb" x="441.232784" y="354.857344" style="fill: #ff7f0e; stroke: #ff7f0e"/>
     <use xlink:href="#m7c95d3e5bb" x="455.725824" y="282.149957" style="fill: #ff7f0e; stroke: #ff7f0e"/>
     <use xlink:href="#m7c95d3e5bb" x="470.218864" y="279.938227" style="fill: #ff7f0e; stroke: #ff7f0e"/>
     <use xlink:href="#m7c95d3e5bb" x="499.204943" y="284.948124" style="fill: #ff7f0e; stroke: #ff7f0e"/>
     <use xlink:href="#m7c95d3e5bb" x="513.697983" y="314.650581" style="fill: #ff7f0e; stroke: #ff7f0e"/>
     <use xlink:href="#m7c95d3e5bb" x="528.191023" y="310.644081" style="fill: #ff7f0e; stroke: #ff7f0e"/>
     <use xlink:href="#m7c95d3e5bb" x="542.684062" y="291.583875" style="fill: #ff7f0e; stroke: #ff7f0e"/>
     <use xlink:href="#m7c95d3e5bb" x="557.177102" y="299.684166" style="fill: #ff7f0e; stroke: #ff7f0e"/>
     <use xlink:href="#m7c95d3e5bb" x="571.670142" y="328.841744" style="fill: #ff7f0e; stroke: #ff7f0e"/>
     <use xlink:href="#m7c95d3e5bb" x="586.163182" y="285.576462" style="fill: #ff7f0e; stroke: #ff7f0e"/>
     <use xlink:href="#m7c95d3e5bb" x="600.656222" y="289.786224" style="fill: #ff7f0e; stroke: #ff7f0e"/>
     <use xlink:href="#m7c95d3e5bb" x="629.642301" y="310.995232" style="fill: #ff7f0e; stroke: #ff7f0e"/>
     <use xlink:href="#m7c95d3e5bb" x="644.135341" y="289.30262" style="fill: #ff7f0e; stroke: #ff7f0e"/>
     <use xlink:href="#m7c95d3e5bb" x="658.628381" y="296.690702" style="fill: #ff7f0e; stroke: #ff7f0e"/>
     <use xlink:href="#m7c95d3e5bb" x="673.12142" y="354.54794" style="fill: #ff7f0e; stroke: #ff7f0e"/>
    </g>
   </g>
   <g id="line2d_25">
    <path d="M 93.39983 253.741696 
L 107.892869 131.132428 
L 122.385909 96.482045 
L 136.878949 81.256547 
L 151.371989 240.152215 
L 165.865028 77.046755 
L 180.358068 132.700907 
L 194.851108 86.931594 
L 209.344148 212.878131 
L 223.837187 259.677316 
L 238.330227 75.515958 
L 252.823267 128.781141 
L 267.316307 197.396234 
L 281.809347 112.022002 
L 296.302386 278.006773 
L 310.795426 84.085137 
L 339.781506 101.398895 
L 354.274545 202.032381 
L 368.767585 119.799375 
L 383.260625 215.475984 
L 397.753665 242.654232 
L 412.246705 83.347224 
L 426.739744 247.574723 
L 441.232784 84.118424 
L 455.725824 125.304641 
L 470.218864 130.136687 
L 499.204943 129.336619 
L 513.697983 263.001692 
L 528.191023 241.69872 
L 542.684062 101.165388 
L 557.177102 259.971521 
L 571.670142 63.886241 
L 586.163182 270.088178 
L 600.656222 265.471927 
L 629.642301 88.377765 
L 644.135341 80.745727 
L 658.628381 97.482531 
L 673.12142 88.422952 
" clip-path="url(#p5e8c8673e2)" style="fill: none; stroke: #2ca02c; stroke-width: 2; stroke-linecap: square"/>
    <defs>
     <path id="m29d3012419" d="M 0 3 
C 0.795609 3 1.55874 2.683901 2.12132 2.12132 
C 2.683901 1.55874 3 0.795609 3 0 
C 3 -0.795609 2.683901 -1.55874 2.12132 -2.12132 
C 1.55874 -2.683901 0.795609 -3 0 -3 
C -0.795609 -3 -1.55874 -2.683901 -2.12132 -2.12132 
C -2.683901 -1.55874 -3 -0.795609 -3 0 
C -3 0.795609 -2.683901 1.55874 -2.12132 2.12132 
C -1.55874 2.683901 -0.795609 3 0 3 
z
" style="stroke: #2ca02c"/>
    </defs>
    <g clip-path="url(#p5e8c8673e2)">
     <use xlink:href="#m29d3012419" x="93.39983" y="253.741696" style="fill: #2ca02c; stroke: #2ca02c"/>
     <use xlink:href="#m29d3012419" x="107.892869" y="131.132428" style="fill: #2ca02c; stroke: #2ca02c"/>
     <use xlink:href="#m29d3012419" x="122.385909" y="96.482045" style="fill: #2ca02c; stroke: #2ca02c"/>
     <use xlink:href="#m29d3012419" x="136.878949" y="81.256547" style="fill: #2ca02c; stroke: #2ca02c"/>
     <use xlink:href="#m29d3012419" x="151.371989" y="240.152215" style="fill: #2ca02c; stroke: #2ca02c"/>
     <use xlink:href="#m29d3012419" x="165.865028" y="77.046755" style="fill: #2ca02c; stroke: #2ca02c"/>
     <use xlink:href="#m29d3012419" x="180.358068" y="132.700907" style="fill: #2ca02c; stroke: #2ca02c"/>
     <use xlink:href="#m29d3012419" x="194.851108" y="86.931594" style="fill: #2ca02c; stroke: #2ca02c"/>
     <use xlink:href="#m29d3012419" x="209.344148" y="212.878131" style="fill: #2ca02c; stroke: #2ca02c"/>
     <use xlink:href="#m29d3012419" x="223.837187" y="259.677316" style="fill: #2ca02c; stroke: #2ca02c"/>
     <use xlink:href="#m29d3012419" x="238.330227" y="75.515958" style="fill: #2ca02c; stroke: #2ca02c"/>
     <use xlink:href="#m29d3012419" x="252.823267" y="128.781141" style="fill: #2ca02c; stroke: #2ca02c"/>
     <use xlink:href="#m29d3012419" x="267.316307" y="197.396234" style="fill: #2ca02c; stroke: #2ca02c"/>
     <use xlink:href="#m29d3012419" x="281.809347" y="112.022002" style="fill: #2ca02c; stroke: #2ca02c"/>
     <use xlink:href="#m29d3012419" x="296.302386" y="278.006773" style="fill: #2ca02c; stroke: #2ca02c"/>
     <use xlink:href="#m29d3012419" x="310.795426" y="84.085137" style="fill: #2ca02c; stroke: #2ca02c"/>
     <use xlink:href="#m29d3012419" x="339.781506" y="101.398895" style="fill: #2ca02c; stroke: #2ca02c"/>
     <use xlink:href="#m29d3012419" x="354.274545" y="202.032381" style="fill: #2ca02c; stroke: #2ca02c"/>
     <use xlink:href="#m29d3012419" x="368.767585" y="119.799375" style="fill: #2ca02c; stroke: #2ca02c"/>
     <use xlink:href="#m29d3012419" x="383.260625" y="215.475984" style="fill: #2ca02c; stroke: #2ca02c"/>
     <use xlink:href="#m29d3012419" x="397.753665" y="242.654232" style="fill: #2ca02c; stroke: #2ca02c"/>
     <use xlink:href="#m29d3012419" x="412.246705" y="83.347224" style="fill: #2ca02c; stroke: #2ca02c"/>
     <use xlink:href="#m29d3012419" x="426.739744" y="247.574723" style="fill: #2ca02c; stroke: #2ca02c"/>
     <use xlink:href="#m29d3012419" x="441.232784" y="84.118424" style="fill: #2ca02c; stroke: #2ca02c"/>
     <use xlink:href="#m29d3012419" x="455.725824" y="125.304641" style="fill: #2ca02c; stroke: #2ca02c"/>
     <use xlink:href="#m29d3012419" x="470.218864" y="130.136687" style="fill: #2ca02c; stroke: #2ca02c"/>
     <use xlink:href="#m29d3012419" x="499.204943" y="129.336619" style="fill: #2ca02c; stroke: #2ca02c"/>
     <use xlink:href="#m29d3012419" x="513.697983" y="263.001692" style="fill: #2ca02c; stroke: #2ca02c"/>
     <use xlink:href="#m29d3012419" x="528.191023" y="241.69872" style="fill: #2ca02c; stroke: #2ca02c"/>
     <use xlink:href="#m29d3012419" x="542.684062" y="101.165388" style="fill: #2ca02c; stroke: #2ca02c"/>
     <use xlink:href="#m29d3012419" x="557.177102" y="259.971521" style="fill: #2ca02c; stroke: #2ca02c"/>
     <use xlink:href="#m29d3012419" x="571.670142" y="63.886241" style="fill: #2ca02c; stroke: #2ca02c"/>
     <use xlink:href="#m29d3012419" x="586.163182" y="270.088178" style="fill: #2ca02c; stroke: #2ca02c"/>
     <use xlink:href="#m29d3012419" x="600.656222" y="265.471927" style="fill: #2ca02c; stroke: #2ca02c"/>
     <use xlink:href="#m29d3012419" x="629.642301" y="88.377765" style="fill: #2ca02c; stroke: #2ca02c"/>
     <use xlink:href="#m29d3012419" x="644.135341" y="80.745727" style="fill: #2ca02c; stroke: #2ca02c"/>
     <use xlink:href="#m29d3012419" x="658.628381" y="97.482531" style="fill: #2ca02c; stroke: #2ca02c"/>
     <use xlink:href="#m29d3012419" x="673.12142" y="88.422952" style="fill: #2ca02c; stroke: #2ca02c"/>
    </g>
   </g>
   <g id="line2d_26">
    <path d="M 93.39983 309.46052 
L 107.892869 294.014315 
L 122.385909 121.63556 
L 136.878949 288.422818 
L 151.371989 307.59703 
L 165.865028 296.137357 
L 180.358068 332.588837 
L 194.851108 138.456856 
L 209.344148 66.312577 
L 223.837187 283.547321 
L 238.330227 281.66026 
L 252.823267 296.901271 
L 267.316307 313.205049 
L 296.302386 344.12319 
L 310.795426 298.313978 
L 339.781506 314.901513 
L 354.274545 208.372962 
L 368.767585 117.617315 
L 383.260625 207.136064 
L 397.753665 313.390974 
L 426.739744 286.409414 
L 441.232784 279.949187 
L 455.725824 292.178976 
L 470.218864 93.79761 
L 499.204943 274.424933 
L 513.697983 298.329917 
L 528.191023 282.699717 
L 542.684062 252.928086 
L 557.177102 364.840181 
L 571.670142 289.455275 
L 586.163182 307.411148 
L 600.656222 294.74156 
L 629.642301 340.287071 
L 644.135341 296.875914 
L 658.628381 313.574661 
" clip-path="url(#p5e8c8673e2)" style="fill: none; stroke: #d62728; stroke-width: 2; stroke-linecap: square"/>
    <defs>
     <path id="mf147b70a2c" d="M 0 3 
C 0.795609 3 1.55874 2.683901 2.12132 2.12132 
C 2.683901 1.55874 3 0.795609 3 0 
C 3 -0.795609 2.683901 -1.55874 2.12132 -2.12132 
C 1.55874 -2.683901 0.795609 -3 0 -3 
C -0.795609 -3 -1.55874 -2.683901 -2.12132 -2.12132 
C -2.683901 -1.55874 -3 -0.795609 -3 0 
C -3 0.795609 -2.683901 1.55874 -2.12132 2.12132 
C -1.55874 2.683901 -0.795609 3 0 3 
z
" style="stroke: #d62728"/>
    </defs>
    <g clip-path="url(#p5e8c8673e2)">
     <use xlink:href="#mf147b70a2c" x="93.39983" y="309.46052" style="fill: #d62728; stroke: #d62728"/>
     <use xlink:href="#mf147b70a2c" x="107.892869" y="294.014315" style="fill: #d62728; stroke: #d62728"/>
     <use xlink:href="#mf147b70a2c" x="122.385909" y="121.63556" style="fill: #d62728; stroke: #d62728"/>
     <use xlink:href="#mf147b70a2c" x="136.878949" y="288.422818" style="fill: #d62728; stroke: #d62728"/>
     <use xlink:href="#mf147b70a2c" x="151.371989" y="307.59703" style="fill: #d62728; stroke: #d62728"/>
     <use xlink:href="#mf147b70a2c" x="165.865028" y="296.137357" style="fill: #d62728; stroke: #d62728"/>
     <use xlink:href="#mf147b70a2c" x="180.358068" y="332.588837" style="fill: #d62728; stroke: #d62728"/>
     <use xlink:href="#mf147b70a2c" x="194.851108" y="138.456856" style="fill: #d62728; stroke: #d62728"/>
     <use xlink:href="#mf147b70a2c" x="209.344148" y="66.312577" style="fill: #d62728; stroke: #d62728"/>
     <use xlink:href="#mf147b70a2c" x="223.837187" y="283.547321" style="fill: #d62728; stroke: #d62728"/>
     <use xlink:href="#mf147b70a2c" x="238.330227" y="281.66026" style="fill: #d62728; stroke: #d62728"/>
     <use xlink:href="#mf147b70a2c" x="252.823267" y="296.901271" style="fill: #d62728; stroke: #d62728"/>
     <use xlink:href="#mf147b70a2c" x="267.316307" y="313.205049" style="fill: #d62728; stroke: #d62728"/>
     <use xlink:href="#mf147b70a2c" x="296.302386" y="344.12319" style="fill: #d62728; stroke: #d62728"/>
     <use xlink:href="#mf147b70a2c" x="310.795426" y="298.313978" style="fill: #d62728; stroke: #d62728"/>
     <use xlink:href="#mf147b70a2c" x="339.781506" y="314.901513" style="fill: #d62728; stroke: #d62728"/>
     <use xlink:href="#mf147b70a2c" x="354.274545" y="208.372962" style="fill: #d62728; stroke: #d62728"/>
     <use xlink:href="#mf147b70a2c" x="368.767585" y="117.617315" style="fill: #d62728; stroke: #d62728"/>
     <use xlink:href="#mf147b70a2c" x="383.260625" y="207.136064" style="fill: #d62728; stroke: #d62728"/>
     <use xlink:href="#mf147b70a2c" x="397.753665" y="313.390974" style="fill: #d62728; stroke: #d62728"/>
     <use xlink:href="#mf147b70a2c" x="426.739744" y="286.409414" style="fill: #d62728; stroke: #d62728"/>
     <use xlink:href="#mf147b70a2c" x="441.232784" y="279.949187" style="fill: #d62728; stroke: #d62728"/>
     <use xlink:href="#mf147b70a2c" x="455.725824" y="292.178976" style="fill: #d62728; stroke: #d62728"/>
     <use xlink:href="#mf147b70a2c" x="470.218864" y="93.79761" style="fill: #d62728; stroke: #d62728"/>
     <use xlink:href="#mf147b70a2c" x="499.204943" y="274.424933" style="fill: #d62728; stroke: #d62728"/>
     <use xlink:href="#mf147b70a2c" x="513.697983" y="298.329917" style="fill: #d62728; stroke: #d62728"/>
     <use xlink:href="#mf147b70a2c" x="528.191023" y="282.699717" style="fill: #d62728; stroke: #d62728"/>
     <use xlink:href="#mf147b70a2c" x="542.684062" y="252.928086" style="fill: #d62728; stroke: #d62728"/>
     <use xlink:href="#mf147b70a2c" x="557.177102" y="364.840181" style="fill: #d62728; stroke: #d62728"/>
     <use xlink:href="#mf147b70a2c" x="571.670142" y="289.455275" style="fill: #d62728; stroke: #d62728"/>
     <use xlink:href="#mf147b70a2c" x="586.163182" y="307.411148" style="fill: #d62728; stroke: #d62728"/>
     <use xlink:href="#mf147b70a2c" x="600.656222" y="294.74156" style="fill: #d62728; stroke: #d62728"/>
     <use xlink:href="#mf147b70a2c" x="629.642301" y="340.287071" style="fill: #d62728; stroke: #d62728"/>
     <use xlink:href="#mf147b70a2c" x="644.135341" y="296.875914" style="fill: #d62728; stroke: #d62728"/>
     <use xlink:href="#mf147b70a2c" x="658.628381" y="313.574661" style="fill: #d62728; stroke: #d62728"/>
    </g>
   </g>
   <g id="line2d_27">
    <path d="M 93.39983 377.497105 
L 107.892869 387.013601 
L 122.385909 366.137566 
L 136.878949 382.326041 
L 151.371989 353.014329 
L 165.865028 376.792191 
L 180.358068 393.025678 
L 194.851108 369.58168 
L 209.344148 366.519954 
L 223.837187 376.404142 
L 238.330227 352.125109 
L 252.823267 354.006725 
L 267.316307 372.147341 
L 296.302386 416.543906 
L 310.795426 365.251985 
L 339.781506 390.812516 
L 354.274545 506.332202 
L 368.767585 317.490832 
L 383.260625 355.132603 
L 397.753665 396.66187 
L 426.739744 322.484467 
L 441.232784 364.753659 
L 455.725824 299.948817 
L 470.218864 301.488194 
L 499.204943 270.681795 
L 513.697983 298.498009 
L 528.191023 283.817652 
L 542.684062 251.129522 
L 557.177102 306.721546 
L 571.670142 292.501386 
L 586.163182 312.187082 
L 600.656222 296.174073 
L 629.642301 341.817141 
L 644.135341 301.796314 
L 658.628381 316.633701 
" clip-path="url(#p5e8c8673e2)" style="fill: none; stroke: #9467bd; stroke-width: 2; stroke-linecap: square"/>
    <defs>
     <path id="m8e68b69c97" d="M 0 3 
C 0.795609 3 1.55874 2.683901 2.12132 2.12132 
C 2.683901 1.55874 3 0.795609 3 0 
C 3 -0.795609 2.683901 -1.55874 2.12132 -2.12132 
C 1.55874 -2.683901 0.795609 -3 0 -3 
C -0.795609 -3 -1.55874 -2.683901 -2.12132 -2.12132 
C -2.683901 -1.55874 -3 -0.795609 -3 0 
C -3 0.795609 -2.683901 1.55874 -2.12132 2.12132 
C -1.55874 2.683901 -0.795609 3 0 3 
z
" style="stroke: #9467bd"/>
    </defs>
    <g clip-path="url(#p5e8c8673e2)">
     <use xlink:href="#m8e68b69c97" x="93.39983" y="377.497105" style="fill: #9467bd; stroke: #9467bd"/>
     <use xlink:href="#m8e68b69c97" x="107.892869" y="387.013601" style="fill: #9467bd; stroke: #9467bd"/>
     <use xlink:href="#m8e68b69c97" x="122.385909" y="366.137566" style="fill: #9467bd; stroke: #9467bd"/>
     <use xlink:href="#m8e68b69c97" x="136.878949" y="382.326041" style="fill: #9467bd; stroke: #9467bd"/>
     <use xlink:href="#m8e68b69c97" x="151.371989" y="353.014329" style="fill: #9467bd; stroke: #9467bd"/>
     <use xlink:href="#m8e68b69c97" x="165.865028" y="376.792191" style="fill: #9467bd; stroke: #9467bd"/>
     <use xlink:href="#m8e68b69c97" x="180.358068" y="393.025678" style="fill: #9467bd; stroke: #9467bd"/>
     <use xlink:href="#m8e68b69c97" x="194.851108" y="369.58168" style="fill: #9467bd; stroke: #9467bd"/>
     <use xlink:href="#m8e68b69c97" x="209.344148" y="366.519954" style="fill: #9467bd; stroke: #9467bd"/>
     <use xlink:href="#m8e68b69c97" x="223.837187" y="376.404142" style="fill: #9467bd; stroke: #9467bd"/>
     <use xlink:href="#m8e68b69c97" x="238.330227" y="352.125109" style="fill: #9467bd; stroke: #9467bd"/>
     <use xlink:href="#m8e68b69c97" x="252.823267" y="354.006725" style="fill: #9467bd; stroke: #9467bd"/>
     <use xlink:href="#m8e68b69c97" x="267.316307" y="372.147341" style="fill: #9467bd; stroke: #9467bd"/>
     <use xlink:href="#m8e68b69c97" x="296.302386" y="416.543906" style="fill: #9467bd; stroke: #9467bd"/>
     <use xlink:href="#m8e68b69c97" x="310.795426" y="365.251985" style="fill: #9467bd; stroke: #9467bd"/>
     <use xlink:href="#m8e68b69c97" x="339.781506" y="390.812516" style="fill: #9467bd; stroke: #9467bd"/>
     <use xlink:href="#m8e68b69c97" x="354.274545" y="506.332202" style="fill: #9467bd; stroke: #9467bd"/>
     <use xlink:href="#m8e68b69c97" x="368.767585" y="317.490832" style="fill: #9467bd; stroke: #9467bd"/>
     <use xlink:href="#m8e68b69c97" x="383.260625" y="355.132603" style="fill: #9467bd; stroke: #9467bd"/>
     <use xlink:href="#m8e68b69c97" x="397.753665" y="396.66187" style="fill: #9467bd; stroke: #9467bd"/>
     <use xlink:href="#m8e68b69c97" x="426.739744" y="322.484467" style="fill: #9467bd; stroke: #9467bd"/>
     <use xlink:href="#m8e68b69c97" x="441.232784" y="364.753659" style="fill: #9467bd; stroke: #9467bd"/>
     <use xlink:href="#m8e68b69c97" x="455.725824" y="299.948817" style="fill: #9467bd; stroke: #9467bd"/>
     <use xlink:href="#m8e68b69c97" x="470.218864" y="301.488194" style="fill: #9467bd; stroke: #9467bd"/>
     <use xlink:href="#m8e68b69c97" x="499.204943" y="270.681795" style="fill: #9467bd; stroke: #9467bd"/>
     <use xlink:href="#m8e68b69c97" x="513.697983" y="298.498009" style="fill: #9467bd; stroke: #9467bd"/>
     <use xlink:href="#m8e68b69c97" x="528.191023" y="283.817652" style="fill: #9467bd; stroke: #9467bd"/>
     <use xlink:href="#m8e68b69c97" x="542.684062" y="251.129522" style="fill: #9467bd; stroke: #9467bd"/>
     <use xlink:href="#m8e68b69c97" x="557.177102" y="306.721546" style="fill: #9467bd; stroke: #9467bd"/>
     <use xlink:href="#m8e68b69c97" x="571.670142" y="292.501386" style="fill: #9467bd; stroke: #9467bd"/>
     <use xlink:href="#m8e68b69c97" x="586.163182" y="312.187082" style="fill: #9467bd; stroke: #9467bd"/>
     <use xlink:href="#m8e68b69c97" x="600.656222" y="296.174073" style="fill: #9467bd; stroke: #9467bd"/>
     <use xlink:href="#m8e68b69c97" x="629.642301" y="341.817141" style="fill: #9467bd; stroke: #9467bd"/>
     <use xlink:href="#m8e68b69c97" x="644.135341" y="301.796314" style="fill: #9467bd; stroke: #9467bd"/>
     <use xlink:href="#m8e68b69c97" x="658.628381" y="316.633701" style="fill: #9467bd; stroke: #9467bd"/>
    </g>
   </g>
   <g id="line2d_28">
    <path d="M 93.39983 274.650768 
L 107.892869 96.666611 
L 122.385909 276.859481 
L 136.878949 257.482311 
L 151.371989 215.464338 
L 165.865028 266.852194 
L 180.358068 250.594453 
L 194.851108 207.420086 
L 209.344148 242.827291 
L 223.837187 80.166321 
L 238.330227 277.984423 
L 252.823267 104.891121 
L 267.316307 124.203671 
L 296.302386 267.439832 
L 310.795426 250.251968 
L 339.781506 230.273162 
L 354.274545 275.952272 
L 368.767585 73.774918 
L 383.260625 87.604345 
L 397.753665 121.351933 
L 426.739744 91.384657 
L 441.232784 89.741917 
L 455.725824 260.968451 
L 470.218864 108.857789 
L 499.204943 92.233004 
L 513.697983 220.457906 
L 528.191023 247.506065 
L 542.684062 111.227191 
L 557.177102 287.394321 
L 571.670142 269.499071 
L 586.163182 116.213532 
L 600.656222 264.558193 
L 629.642301 366.462804 
L 644.135341 267.687525 
L 658.628381 278.441767 
" clip-path="url(#p5e8c8673e2)" style="fill: none; stroke: #8c564b; stroke-width: 2; stroke-linecap: square"/>
    <defs>
     <path id="mfcb7a6d50b" d="M 0 3 
C 0.795609 3 1.55874 2.683901 2.12132 2.12132 
C 2.683901 1.55874 3 0.795609 3 0 
C 3 -0.795609 2.683901 -1.55874 2.12132 -2.12132 
C 1.55874 -2.683901 0.795609 -3 0 -3 
C -0.795609 -3 -1.55874 -2.683901 -2.12132 -2.12132 
C -2.683901 -1.55874 -3 -0.795609 -3 0 
C -3 0.795609 -2.683901 1.55874 -2.12132 2.12132 
C -1.55874 2.683901 -0.795609 3 0 3 
z
" style="stroke: #8c564b"/>
    </defs>
    <g clip-path="url(#p5e8c8673e2)">
     <use xlink:href="#mfcb7a6d50b" x="93.39983" y="274.650768" style="fill: #8c564b; stroke: #8c564b"/>
     <use xlink:href="#mfcb7a6d50b" x="107.892869" y="96.666611" style="fill: #8c564b; stroke: #8c564b"/>
     <use xlink:href="#mfcb7a6d50b" x="122.385909" y="276.859481" style="fill: #8c564b; stroke: #8c564b"/>
     <use xlink:href="#mfcb7a6d50b" x="136.878949" y="257.482311" style="fill: #8c564b; stroke: #8c564b"/>
     <use xlink:href="#mfcb7a6d50b" x="151.371989" y="215.464338" style="fill: #8c564b; stroke: #8c564b"/>
     <use xlink:href="#mfcb7a6d50b" x="165.865028" y="266.852194" style="fill: #8c564b; stroke: #8c564b"/>
     <use xlink:href="#mfcb7a6d50b" x="180.358068" y="250.594453" style="fill: #8c564b; stroke: #8c564b"/>
     <use xlink:href="#mfcb7a6d50b" x="194.851108" y="207.420086" style="fill: #8c564b; stroke: #8c564b"/>
     <use xlink:href="#mfcb7a6d50b" x="209.344148" y="242.827291" style="fill: #8c564b; stroke: #8c564b"/>
     <use xlink:href="#mfcb7a6d50b" x="223.837187" y="80.166321" style="fill: #8c564b; stroke: #8c564b"/>
     <use xlink:href="#mfcb7a6d50b" x="238.330227" y="277.984423" style="fill: #8c564b; stroke: #8c564b"/>
     <use xlink:href="#mfcb7a6d50b" x="252.823267" y="104.891121" style="fill: #8c564b; stroke: #8c564b"/>
     <use xlink:href="#mfcb7a6d50b" x="267.316307" y="124.203671" style="fill: #8c564b; stroke: #8c564b"/>
     <use xlink:href="#mfcb7a6d50b" x="296.302386" y="267.439832" style="fill: #8c564b; stroke: #8c564b"/>
     <use xlink:href="#mfcb7a6d50b" x="310.795426" y="250.251968" style="fill: #8c564b; stroke: #8c564b"/>
     <use xlink:href="#mfcb7a6d50b" x="339.781506" y="230.273162" style="fill: #8c564b; stroke: #8c564b"/>
     <use xlink:href="#mfcb7a6d50b" x="354.274545" y="275.952272" style="fill: #8c564b; stroke: #8c564b"/>
     <use xlink:href="#mfcb7a6d50b" x="368.767585" y="73.774918" style="fill: #8c564b; stroke: #8c564b"/>
     <use xlink:href="#mfcb7a6d50b" x="383.260625" y="87.604345" style="fill: #8c564b; stroke: #8c564b"/>
     <use xlink:href="#mfcb7a6d50b" x="397.753665" y="121.351933" style="fill: #8c564b; stroke: #8c564b"/>
     <use xlink:href="#mfcb7a6d50b" x="426.739744" y="91.384657" style="fill: #8c564b; stroke: #8c564b"/>
     <use xlink:href="#mfcb7a6d50b" x="441.232784" y="89.741917" style="fill: #8c564b; stroke: #8c564b"/>
     <use xlink:href="#mfcb7a6d50b" x="455.725824" y="260.968451" style="fill: #8c564b; stroke: #8c564b"/>
     <use xlink:href="#mfcb7a6d50b" x="470.218864" y="108.857789" style="fill: #8c564b; stroke: #8c564b"/>
     <use xlink:href="#mfcb7a6d50b" x="499.204943" y="92.233004" style="fill: #8c564b; stroke: #8c564b"/>
     <use xlink:href="#mfcb7a6d50b" x="513.697983" y="220.457906" style="fill: #8c564b; stroke: #8c564b"/>
     <use xlink:href="#mfcb7a6d50b" x="528.191023" y="247.506065" style="fill: #8c564b; stroke: #8c564b"/>
     <use xlink:href="#mfcb7a6d50b" x="542.684062" y="111.227191" style="fill: #8c564b; stroke: #8c564b"/>
     <use xlink:href="#mfcb7a6d50b" x="557.177102" y="287.394321" style="fill: #8c564b; stroke: #8c564b"/>
     <use xlink:href="#mfcb7a6d50b" x="571.670142" y="269.499071" style="fill: #8c564b; stroke: #8c564b"/>
     <use xlink:href="#mfcb7a6d50b" x="586.163182" y="116.213532" style="fill: #8c564b; stroke: #8c564b"/>
     <use xlink:href="#mfcb7a6d50b" x="600.656222" y="264.558193" style="fill: #8c564b; stroke: #8c564b"/>
     <use xlink:href="#mfcb7a6d50b" x="629.642301" y="366.462804" style="fill: #8c564b; stroke: #8c564b"/>
     <use xlink:href="#mfcb7a6d50b" x="644.135341" y="267.687525" style="fill: #8c564b; stroke: #8c564b"/>
     <use xlink:href="#mfcb7a6d50b" x="658.628381" y="278.441767" style="fill: #8c564b; stroke: #8c564b"/>
    </g>
   </g>
   <g id="patch_3">
    <path d="M 64.41375 529.308125 
L 64.41375 23.837812 
" style="fill: none; stroke: #000000; stroke-width: 0.8; stroke-linejoin: miter; stroke-linecap: square"/>
   </g>
   <g id="patch_4">
    <path d="M 702.1075 529.308125 
L 702.1075 23.837812 
" style="fill: none; stroke: #000000; stroke-width: 0.8; stroke-linejoin: miter; stroke-linecap: square"/>
   </g>
   <g id="patch_5">
    <path d="M 64.41375 529.308125 
L 702.1075 529.308125 
" style="fill: none; stroke: #000000; stroke-width: 0.8; stroke-linejoin: miter; stroke-linecap: square"/>
   </g>
   <g id="patch_6">
    <path d="M 64.41375 23.837812 
L 702.1075 23.837812 
" style="fill: none; stroke: #000000; stroke-width: 0.8; stroke-linejoin: miter; stroke-linecap: square"/>
   </g>
   <g id="text_14">
    <text style="font: 700 14px 'DejaVu Sans', 'Bitstream Vera Sans', 'Computer Modern Sans Serif', 'Lucida Grande', 'Verdana', 'Geneva', 'Lucid', 'Arial', 'Helvetica', 'Avant Garde', sans-serif; text-anchor: middle" x="383.260625" y="17.837813" transform="rotate(-0 383.260625 17.837813)">Tasksubmission - Performance Trend</text>
   </g>
   <g id="legend_1">
    <g id="patch_7">
     <path d="M 740.992188 119.906563 
L 846.004688 119.906563 
Q 848.004688 119.906563 848.004688 117.906563 
L 848.004688 30.837813 
Q 848.004688 28.837813 846.004688 28.837813 
L 740.992188 28.837813 
Q 738.992188 28.837813 738.992188 30.837813 
L 738.992188 117.906563 
Q 738.992188 119.906563 740.992188 119.906563 
z
" style="fill: #ffffff; opacity: 0.8; stroke: #cccccc; stroke-linejoin: miter"/>
    </g>
    <g id="line2d_29">
     <path d="M 742.992188 36.93625 
L 752.992188 36.93625 
L 762.992188 36.93625 
" style="fill: none; stroke: #1f77b4; stroke-width: 2; stroke-linecap: square"/>
     <g>
      <use xlink:href="#m9dc1e94470" x="752.992188" y="36.93625" style="fill: #1f77b4; stroke: #1f77b4"/>
     </g>
    </g>
    <g id="text_15">
     <text style="font: 10px 'DejaVu Sans', 'Bitstream Vera Sans', 'Computer Modern Sans Serif', 'Lucida Grande', 'Verdana', 'Geneva', 'Lucid', 'Arial', 'Helvetica', 'Avant Garde', sans-serif; text-anchor: start" x="770.992188" y="40.43625" transform="rotate(-0 770.992188 40.43625)">gcc-14.2 - V1</text>
    </g>
    <g id="line2d_30">
     <path d="M 742.992188 51.614375 
L 752.992188 51.614375 
L 762.992188 51.614375 
" style="fill: none; stroke: #ff7f0e; stroke-width: 2; stroke-linecap: square"/>
     <g>
      <use xlink:href="#m7c95d3e5bb" x="752.992188" y="51.614375" style="fill: #ff7f0e; stroke: #ff7f0e"/>
     </g>
    </g>
    <g id="text_16">
     <text style="font: 10px 'DejaVu Sans', 'Bitstream Vera Sans', 'Computer Modern Sans Serif', 'Lucida Grande', 'Verdana', 'Geneva', 'Lucid', 'Arial', 'Helvetica', 'Avant Garde', sans-serif; text-anchor: start" x="770.992188" y="55.114375" transform="rotate(-0 770.992188 55.114375)">gcc-14.2 - V2</text>
    </g>
    <g id="line2d_31">
     <path d="M 742.992188 66.2925 
L 752.992188 66.2925 
L 762.992188 66.2925 
" style="fill: none; stroke: #2ca02c; stroke-width: 2; stroke-linecap: square"/>
     <g>
      <use xlink:href="#m29d3012419" x="752.992188" y="66.2925" style="fill: #2ca02c; stroke: #2ca02c"/>
     </g>
    </g>
    <g id="text_17">
     <text style="font: 10px 'DejaVu Sans', 'Bitstream Vera Sans', 'Computer Modern Sans Serif', 'Lucida Grande', 'Verdana', 'Geneva', 'Lucid', 'Arial', 'Helvetica', 'Avant Garde', sans-serif; text-anchor: start" x="770.992188" y="69.7925" transform="rotate(-0 770.992188 69.7925)">gcc-14.2 - TBB</text>
    </g>
    <g id="line2d_32">
     <path d="M 742.992188 80.970625 
L 752.992188 80.970625 
L 762.992188 80.970625 
" style="fill: none; stroke: #d62728; stroke-width: 2; stroke-linecap: square"/>
     <g>
      <use xlink:href="#mf147b70a2c" x="752.992188" y="80.970625" style="fill: #d62728; stroke: #d62728"/>
     </g>
    </g>
    <g id="text_18">
     <text style="font: 10px 'DejaVu Sans', 'Bitstream Vera Sans', 'Computer Modern Sans Serif', 'Lucida Grande', 'Verdana', 'Geneva', 'Lucid', 'Arial', 'Helvetica', 'Avant Garde', sans-serif; text-anchor: start" x="770.992188" y="84.470625" transform="rotate(-0 770.992188 84.470625)">gcc-4.2 - V1</text>
    </g>
    <g id="line2d_33">
     <path d="M 742.992188 95.64875 
L 752.992188 95.64875 
L 762.992188 95.64875 
" style="fill: none; stroke: #9467bd; stroke-width: 2; stroke-linecap: square"/>
     <g>
      <use xlink:href="#m8e68b69c97" x="752.992188" y="95.64875" style="fill: #9467bd; stroke: #9467bd"/>
     </g>
    </g>
    <g id="text_19">
     <text style="font: 10px 'DejaVu Sans', 'Bitstream Vera Sans', 'Computer Modern Sans Serif', 'Lucida Grande', 'Verdana', 'Geneva', 'Lucid', 'Arial', 'Helvetica', 'Avant Garde', sans-serif; text-anchor: start" x="770.992188" y="99.14875" transform="rotate(-0 770.992188 99.14875)">gcc-4.2 - V2</text>
    </g>
    <g id="line2d_34">
     <path d="M 742.992188 110.326875 
L 752.992188 110.326875 
L 762.992188 110.326875 
" style="fill: none; stroke: #8c564b; stroke-width: 2; stroke-linecap: square"/>
     <g>
      <use xlink:href="#mfcb7a6d50b" x="752.992188" y="110.326875" style="fill: #8c564b; stroke: #8c564b"/>
     </g>
    </g>
    <g id="text_20">
     <text style="font: 10px 'DejaVu Sans', 'Bitstream Vera Sans', 'Computer Modern Sans Serif', 'Lucida Grande', 'Verdana', 'Geneva', 'Lucid', 'Arial', 'Helvetica', 'Avant Garde', sans-serif; text-anchor: start" x="770.992188" y="113.826875" transform="rotate(-0 770.992188 113.826875)">gcc-4.2 - TBB</text>
    </g>
   </g>
  </g>
 </g>
 <defs>
  <clipPath id="p5e8c8673e2">
   <rect x="64.41375" y="23.837813" width="637.69375" height="505.470313"/>
  </clipPath>
 </defs>
</svg>
