<?xml version="1.0" encoding="utf-8" standalone="no"?>
<!DOCTYPE svg PUBLIC "-//W3C//DTD SVG 1.1//EN"
  "http://www.w3.org/Graphics/SVG/1.1/DTD/svg11.dtd">
<svg xmlns:xlink="http://www.w3.org/1999/xlink" width="850.820859pt" height="568.8pt" viewBox="0 0 850.820859 568.8" xmlns="http://www.w3.org/2000/svg" version="1.1">
 <metadata>
  <rdf:RDF xmlns:dc="http://purl.org/dc/elements/1.1/" xmlns:cc="http://creativecommons.org/ns#" xmlns:rdf="http://www.w3.org/1999/02/22-rdf-syntax-ns#">
   <cc:Work>
    <dc:type rdf:resource="http://purl.org/dc/dcmitype/StillImage"/>
    <dc:date>2025-11-22T20:17:46.697399</dc:date>
    <dc:format>image/svg+xml</dc:format>
    <dc:creator>
     <cc:Agent>
      <dc:title>Matplotlib v3.9.4, https://matplotlib.org/</dc:title>
     </cc:Agent>
    </dc:creator>
   </cc:Work>
  </rdf:RDF>
 </metadata>
 <defs>
  <style type="text/css">*{stroke-linejoin: round; stroke-linecap: butt}</style>
 </defs>
 <g id="figure_1">
  <g id="patch_1">
   <path d="M 0 568.8 
L 850.820859 568.8 
L 850.820859 0 
L 0 0 
z
" style="fill: #ffffff"/>
  </g>
  <g id="axes_1">
   <g id="patch_2">
    <path d="M 64.41375 529.308125 
L 614.430938 529.308125 
L 614.430938 23.837812 
L 64.41375 23.837812 
z
" style="fill: #ffffff"/>
   </g>
   <g id="matplotlib.axis_1">
    <g id="xtick_1">
     <g id="line2d_1">
      <path d="M 70.183161 529.308125 
L 70.183161 23.837812 
" clip-path="url(#pb925f8ea85)" style="fill: none; stroke: #b0b0b0; stroke-opacity: 0.3; stroke-width: 0.8; stroke-linecap: square"/>
     </g>
     <g id="line2d_2">
      <defs>
       <path id="mb316317a24" d="M 0 0 
L 0 3.5 
" style="stroke: #000000; stroke-width: 0.8"/>
      </defs>
      <g>
       <use xlink:href="#mb316317a24" x="70.183161" y="529.308125" style="stroke: #000000; stroke-width: 0.8"/>
      </g>
     </g>
     <g id="text_1">
      <text style="font: 10px 'DejaVu Sans', 'Bitstream Vera Sans', 'Computer Modern Sans Serif', 'Lucida Grande', 'Verdana', 'Geneva', 'Lucid', 'Arial', 'Helvetica', 'Avant Garde', sans-serif; text-anchor: middle" x="70.183161" y="543.906563" transform="rotate(-0 70.183161 543.906563)">95</text>
     </g>
    </g>
    <g id="xtick_2">
     <g id="line2d_3">
      <path d="M 166.340012 529.308125 
L 166.340012 23.837812 
" clip-path="url(#pb925f8ea85)" style="fill: none; stroke: #b0b0b0; stroke-opacity: 0.3; stroke-width: 0.8; stroke-linecap: square"/>
     </g>
     <g id="line2d_4">
      <g>
       <use xlink:href="#mb316317a24" x="166.340012" y="529.308125" style="stroke: #000000; stroke-width: 0.8"/>
      </g>
     </g>
     <g id="text_2">
      <text style="font: 10px 'DejaVu Sans', 'Bitstream Vera Sans', 'Computer Modern Sans Serif', 'Lucida Grande', 'Verdana', 'Geneva', 'Lucid', 'Arial', 'Helvetica', 'Avant Garde', sans-serif; text-anchor: middle" x="166.340012" y="543.906563" transform="rotate(-0 166.340012 543.906563)">100</text>
     </g>
    </g>
    <g id="xtick_3">
     <g id="line2d_5">
      <path d="M 262.496863 529.308125 
L 262.496863 23.837812 
" clip-path="url(#pb925f8ea85)" style="fill: none; stroke: #b0b0b0; stroke-opacity: 0.3; stroke-width: 0.8; stroke-linecap: square"/>
     </g>
     <g id="line2d_6">
      <g>
       <use xlink:href="#mb316317a24" x="262.496863" y="529.308125" style="stroke: #000000; stroke-width: 0.8"/>
      </g>
     </g>
     <g id="text_3">
      <text style="font: 10px 'DejaVu Sans', 'Bitstream Vera Sans', 'Computer Modern Sans Serif', 'Lucida Grande', 'Verdana', 'Geneva', 'Lucid', 'Arial', 'Helvetica', 'Avant Garde', sans-serif; text-anchor: middle" x="262.496863" y="543.906563" transform="rotate(-0 262.496863 543.906563)">105</text>
     </g>
    </g>
    <g id="xtick_4">
     <g id="line2d_7">
      <path d="M 358.653714 529.308125 
L 358.653714 23.837812 
" clip-path="url(#pb925f8ea85)" style="fill: none; stroke: #b0b0b0; stroke-opacity: 0.3; stroke-width: 0.8; stroke-linecap: square"/>
     </g>
     <g id="line2d_8">
      <g>
       <use xlink:href="#mb316317a24" x="358.653714" y="529.308125" style="stroke: #000000; stroke-width: 0.8"/>
      </g>
     </g>
     <g id="text_4">
      <text style="font: 10px 'DejaVu Sans', 'Bitstream Vera Sans', 'Computer Modern Sans Serif', 'Lucida Grande', 'Verdana', 'Geneva', 'Lucid', 'Arial', 'Helvetica', 'Avant Garde', sans-serif; text-anchor: middle" x="358.653714" y="543.906563" transform="rotate(-0 358.653714 543.906563)">110</text>
     </g>
    </g>
    <g id="xtick_5">
     <g id="line2d_9">
      <path d="M 454.810565 529.308125 
L 454.810565 23.837812 
" clip-path="url(#pb925f8ea85)" style="fill: none; stroke: #b0b0b0; stroke-opacity: 0.3; stroke-width: 0.8; stroke-linecap: square"/>
     </g>
     <g id="line2d_10">
      <g>
       <use xlink:href="#mb316317a24" x="454.810565" y="529.308125" style="stroke: #000000; stroke-width: 0.8"/>
      </g>
     </g>
     <g id="text_5">
      <text style="font: 10px 'DejaVu Sans', 'Bitstream Vera Sans', 'Computer Modern Sans Serif', 'Lucida Grande', 'Verdana', 'Geneva', 'Lucid', 'Arial', 'Helvetica', 'Avant Garde', sans-serif; text-anchor: middle" x="454.810565" y="543.906563" transform="rotate(-0 454.810565 543.906563)">115</text>
     </g>
    </g>
    <g id="xtick_6">
     <g id="line2d_11">
      <path d="M 550.967416 529.308125 
L 550.967416 23.837812 
" clip-path="url(#pb925f8ea85)" style="fill: none; stroke: #b0b0b0; stroke-opacity: 0.3; stroke-width: 0.8; stroke-linecap: square"/>
     </g>
     <g id="line2d_12">
      <g>
       <use xlink:href="#mb316317a24" x="550.967416" y="529.308125" style="stroke: #000000; stroke-width: 0.8"/>
      </g>
     </g>
     <g id="text_6">
      <text style="font: 10px 'DejaVu Sans', 'Bitstream Vera Sans', 'Computer Modern Sans Serif', 'Lucida Grande', 'Verdana', 'Geneva', 'Lucid', 'Arial', 'Helvetica', 'Avant Garde', sans-serif; text-anchor: middle" x="550.967416" y="543.906563" transform="rotate(-0 550.967416 543.906563)">120</text>
     </g>
    </g>
    <g id="text_7">
     <text style="font: 12px 'DejaVu Sans', 'Bitstream Vera Sans', 'Computer Modern Sans Serif', 'Lucida Grande', 'Verdana', 'Geneva', 'Lucid', 'Arial', 'Helvetica', 'Avant Garde', sans-serif; text-anchor: middle" x="339.422344" y="559.104375" transform="rotate(-0 339.422344 559.104375)">Build Number</text>
    </g>
   </g>
   <g id="matplotlib.axis_2">
    <g id="ytick_1">
     <g id="line2d_13">
      <defs>
       <path id="m4e0a988e80" d="M 0 0 
L -2 0 
" style="stroke: #000000; stroke-width: 0.6"/>
      </defs>
      <g>
       <use xlink:href="#m4e0a988e80" x="64.41375" y="333.737412" style="stroke: #000000; stroke-width: 0.6"/>
      </g>
     </g>
     <g id="text_8">
      <!-- $\mathdefault{8\times10^{6}}$ -->
      <g transform="translate(22.81375 337.53663)">
       <text>
        <tspan style="font: 10px 'DejaVu Sans'" x="0 8.310547 18.637695 25" y="-0.9765625">8×10</tspan>
        <tspan style="font: 7px 'DejaVu Sans'" x="31.458008" y="-4.8046875">6</tspan>
       </text>
      </g>
     </g>
    </g>
    <g id="ytick_2">
     <g id="line2d_14">
      <g>
       <use xlink:href="#m4e0a988e80" x="64.41375" y="137.098665" style="stroke: #000000; stroke-width: 0.6"/>
      </g>
     </g>
     <g id="text_9">
      <!-- $\mathdefault{9\times10^{6}}$ -->
      <g transform="translate(22.81375 140.897884)">
       <text>
        <tspan style="font: 10px 'DejaVu Sans'" x="0 8.310547 18.637695 25" y="-0.9765625">9×10</tspan>
        <tspan style="font: 7px 'DejaVu Sans'" x="31.458008" y="-4.8046875">6</tspan>
       </text>
      </g>
     </g>
    </g>
    <g id="text_10">
     <text style="font: 12px 'DejaVu Sans', 'Bitstream Vera Sans', 'Computer Modern Sans Serif', 'Lucida Grande', 'Verdana', 'Geneva', 'Lucid', 'Arial', 'Helvetica', 'Avant Garde', sans-serif; text-anchor: middle" x="16.318125" y="276.572969" transform="rotate(-90 16.318125 276.572969)">Median Elapsed Time (nanoseconds)</text>
    </g>
   </g>
   <g id="line2d_15">
    <path d="M 89.414531 476.634094 
L 108.645901 386.779726 
L 147.108642 496.963171 
L 166.340012 409.150288 
L 185.571382 506.332202 
L 204.802752 486.137467 
L 224.034123 439.733401 
L 243.265493 499.114396 
L 262.496863 435.654115 
L 281.728233 457.556737 
L 320.190974 347.08786 
L 339.422344 340.22304 
L 358.653714 501.453742 
L 377.885084 462.506527 
L 397.116454 482.258764 
L 435.579195 493.47236 
L 454.810565 493.725444 
L 474.041935 499.723249 
L 493.273305 491.96187 
L 512.504675 489.188746 
L 531.736046 481.560617 
L 550.967416 471.802717 
L 570.198786 484.760401 
L 589.430156 433.830099 
" clip-path="url(#pb925f8ea85)" style="fill: none; stroke: #1f77b4; stroke-width: 2; stroke-linecap: square"/>
    <defs>
     <path id="m4857c45600" d="M 0 3 
C 0.795609 3 1.55874 2.683901 2.12132 2.12132 
C 2.683901 1.55874 3 0.795609 3 0 
C 3 -0.795609 2.683901 -1.55874 2.12132 -2.12132 
C 1.55874 -2.683901 0.795609 -3 0 -3 
C -0.795609 -3 -1.55874 -2.683901 -2.12132 -2.12132 
C -2.683901 -1.55874 -3 -0.795609 -3 0 
C -3 0.795609 -2.683901 1.55874 -2.12132 2.12132 
C -1.55874 2.683901 -0.795609 3 0 3 
z
" style="stroke: #1f77b4"/>
    </defs>
    <g clip-path="url(#pb925f8ea85)">
     <use xlink:href="#m4857c45600" x="89.414531" y="476.634094" style="fill: #1f77b4; stroke: #1f77b4"/>
     <use xlink:href="#m4857c45600" x="108.645901" y="386.779726" style="fill: #1f77b4; stroke: #1f77b4"/>
     <use xlink:href="#m4857c45600" x="147.108642" y="496.963171" style="fill: #1f77b4; stroke: #1f77b4"/>
     <use xlink:href="#m4857c45600" x="166.340012" y="409.150288" style="fill: #1f77b4; stroke: #1f77b4"/>
     <use xlink:href="#m4857c45600" x="185.571382" y="506.332202" style="fill: #1f77b4; stroke: #1f77b4"/>
     <use xlink:href="#m4857c45600" x="204.802752" y="486.137467" style="fill: #1f77b4; stroke: #1f77b4"/>
     <use xlink:href="#m4857c45600" x="224.034123" y="439.733401" style="fill: #1f77b4; stroke: #1f77b4"/>
     <use xlink:href="#m4857c45600" x="243.265493" y="499.114396" style="fill: #1f77b4; stroke: #1f77b4"/>
     <use xlink:href="#m4857c45600" x="262.496863" y="435.654115" style="fill: #1f77b4; stroke: #1f77b4"/>
     <use xlink:href="#m4857c45600" x="281.728233" y="457.556737" style="fill: #1f77b4; stroke: #1f77b4"/>
     <use xlink:href="#m4857c45600" x="320.190974" y="347.08786" style="fill: #1f77b4; stroke: #1f77b4"/>
     <use xlink:href="#m4857c45600" x="339.422344" y="340.22304" style="fill: #1f77b4; stroke: #1f77b4"/>
     <use xlink:href="#m4857c45600" x="358.653714" y="501.453742" style="fill: #1f77b4; stroke: #1f77b4"/>
     <use xlink:href="#m4857c45600" x="377.885084" y="462.506527" style="fill: #1f77b4; stroke: #1f77b4"/>
     <use xlink:href="#m4857c45600" x="397.116454" y="482.258764" style="fill: #1f77b4; stroke: #1f77b4"/>
     <use xlink:href="#m4857c45600" x="435.579195" y="493.47236" style="fill: #1f77b4; stroke: #1f77b4"/>
     <use xlink:href="#m4857c45600" x="454.810565" y="493.725444" style="fill: #1f77b4; stroke: #1f77b4"/>
     <use xlink:href="#m4857c45600" x="474.041935" y="499.723249" style="fill: #1f77b4; stroke: #1f77b4"/>
     <use xlink:href="#m4857c45600" x="493.273305" y="491.96187" style="fill: #1f77b4; stroke: #1f77b4"/>
     <use xlink:href="#m4857c45600" x="512.504675" y="489.188746" style="fill: #1f77b4; stroke: #1f77b4"/>
     <use xlink:href="#m4857c45600" x="531.736046" y="481.560617" style="fill: #1f77b4; stroke: #1f77b4"/>
     <use xlink:href="#m4857c45600" x="550.967416" y="471.802717" style="fill: #1f77b4; stroke: #1f77b4"/>
     <use xlink:href="#m4857c45600" x="570.198786" y="484.760401" style="fill: #1f77b4; stroke: #1f77b4"/>
     <use xlink:href="#m4857c45600" x="589.430156" y="433.830099" style="fill: #1f77b4; stroke: #1f77b4"/>
    </g>
   </g>
   <g id="line2d_16">
    <path d="M 89.414531 472.501647 
L 108.645901 388.591931 
L 147.108642 494.429708 
L 166.340012 434.986447 
L 185.571382 502.712102 
L 204.802752 492.002824 
L 224.034123 440.707473 
L 243.265493 487.513336 
L 262.496863 419.010409 
L 281.728233 472.401144 
L 320.190974 339.626617 
L 339.422344 357.873942 
L 358.653714 489.471947 
L 377.885084 422.560287 
L 397.116454 473.684671 
L 435.579195 500.712466 
L 454.810565 492.72872 
L 474.041935 501.258523 
L 493.273305 486.277145 
L 512.504675 489.419188 
L 531.736046 470.440952 
L 550.967416 462.441449 
L 570.198786 484.17413 
L 589.430156 465.408972 
" clip-path="url(#pb925f8ea85)" style="fill: none; stroke: #ff7f0e; stroke-width: 2; stroke-linecap: square"/>
    <defs>
     <path id="m0afd854632" d="M 0 3 
C 0.795609 3 1.55874 2.683901 2.12132 2.12132 
C 2.683901 1.55874 3 0.795609 3 0 
C 3 -0.795609 2.683901 -1.55874 2.12132 -2.12132 
C 1.55874 -2.683901 0.795609 -3 0 -3 
C -0.795609 -3 -1.55874 -2.683901 -2.12132 -2.12132 
C -2.683901 -1.55874 -3 -0.795609 -3 0 
C -3 0.795609 -2.683901 1.55874 -2.12132 2.12132 
C -1.55874 2.683901 -0.795609 3 0 3 
z
" style="stroke: #ff7f0e"/>
    </defs>
    <g clip-path="url(#pb925f8ea85)">
     <use xlink:href="#m0afd854632" x="89.414531" y="472.501647" style="fill: #ff7f0e; stroke: #ff7f0e"/>
     <use xlink:href="#m0afd854632" x="108.645901" y="388.591931" style="fill: #ff7f0e; stroke: #ff7f0e"/>
     <use xlink:href="#m0afd854632" x="147.108642" y="494.429708" style="fill: #ff7f0e; stroke: #ff7f0e"/>
     <use xlink:href="#m0afd854632" x="166.340012" y="434.986447" style="fill: #ff7f0e; stroke: #ff7f0e"/>
     <use xlink:href="#m0afd854632" x="185.571382" y="502.712102" style="fill: #ff7f0e; stroke: #ff7f0e"/>
     <use xlink:href="#m0afd854632" x="204.802752" y="492.002824" style="fill: #ff7f0e; stroke: #ff7f0e"/>
     <use xlink:href="#m0afd854632" x="224.034123" y="440.707473" style="fill: #ff7f0e; stroke: #ff7f0e"/>
     <use xlink:href="#m0afd854632" x="243.265493" y="487.513336" style="fill: #ff7f0e; stroke: #ff7f0e"/>
     <use xlink:href="#m0afd854632" x="262.496863" y="419.010409" style="fill: #ff7f0e; stroke: #ff7f0e"/>
     <use xlink:href="#m0afd854632" x="281.728233" y="472.401144" style="fill: #ff7f0e; stroke: #ff7f0e"/>
     <use xlink:href="#m0afd854632" x="320.190974" y="339.626617" style="fill: #ff7f0e; stroke: #ff7f0e"/>
     <use xlink:href="#m0afd854632" x="339.422344" y="357.873942" style="fill: #ff7f0e; stroke: #ff7f0e"/>
     <use xlink:href="#m0afd854632" x="358.653714" y="489.471947" style="fill: #ff7f0e; stroke: #ff7f0e"/>
     <use xlink:href="#m0afd854632" x="377.885084" y="422.560287" style="fill: #ff7f0e; stroke: #ff7f0e"/>
     <use xlink:href="#m0afd854632" x="397.116454" y="473.684671" style="fill: #ff7f0e; stroke: #ff7f0e"/>
     <use xlink:href="#m0afd854632" x="435.579195" y="500.712466" style="fill: #ff7f0e; stroke: #ff7f0e"/>
     <use xlink:href="#m0afd854632" x="454.810565" y="492.72872" style="fill: #ff7f0e; stroke: #ff7f0e"/>
     <use xlink:href="#m0afd854632" x="474.041935" y="501.258523" style="fill: #ff7f0e; stroke: #ff7f0e"/>
     <use xlink:href="#m0afd854632" x="493.273305" y="486.277145" style="fill: #ff7f0e; stroke: #ff7f0e"/>
     <use xlink:href="#m0afd854632" x="512.504675" y="489.419188" style="fill: #ff7f0e; stroke: #ff7f0e"/>
     <use xlink:href="#m0afd854632" x="531.736046" y="470.440952" style="fill: #ff7f0e; stroke: #ff7f0e"/>
     <use xlink:href="#m0afd854632" x="550.967416" y="462.441449" style="fill: #ff7f0e; stroke: #ff7f0e"/>
     <use xlink:href="#m0afd854632" x="570.198786" y="484.17413" style="fill: #ff7f0e; stroke: #ff7f0e"/>
     <use xlink:href="#m0afd854632" x="589.430156" y="465.408972" style="fill: #ff7f0e; stroke: #ff7f0e"/>
    </g>
   </g>
   <g id="line2d_17">
    <path d="M 89.414531 131.005199 
L 108.645901 196.432084 
L 147.108642 166.326694 
L 166.340012 92.893454 
L 185.571382 212.628547 
L 204.802752 174.400469 
L 224.034123 212.928609 
L 243.265493 206.93833 
L 262.496863 197.695081 
L 281.728233 204.049367 
L 320.190974 208.453299 
L 339.422344 215.842521 
L 358.653714 190.409664 
L 397.116454 203.225847 
L 454.810565 207.276799 
L 474.041935 174.452389 
L 493.273305 65.033399 
L 512.504675 209.896282 
L 531.736046 216.688612 
L 550.967416 183.762935 
L 570.198786 221.694329 
L 589.430156 177.556309 
" clip-path="url(#pb925f8ea85)" style="fill: none; stroke: #2ca02c; stroke-width: 2; stroke-linecap: square"/>
    <defs>
     <path id="m96e476d79c" d="M 0 3 
C 0.795609 3 1.55874 2.683901 2.12132 2.12132 
C 2.683901 1.55874 3 0.795609 3 0 
C 3 -0.795609 2.683901 -1.55874 2.12132 -2.12132 
C 1.55874 -2.683901 0.795609 -3 0 -3 
C -0.795609 -3 -1.55874 -2.683901 -2.12132 -2.12132 
C -2.683901 -1.55874 -3 -0.795609 -3 0 
C -3 0.795609 -2.683901 1.55874 -2.12132 2.12132 
C -1.55874 2.683901 -0.795609 3 0 3 
z
" style="stroke: #2ca02c"/>
    </defs>
    <g clip-path="url(#pb925f8ea85)">
     <use xlink:href="#m96e476d79c" x="89.414531" y="131.005199" style="fill: #2ca02c; stroke: #2ca02c"/>
     <use xlink:href="#m96e476d79c" x="108.645901" y="196.432084" style="fill: #2ca02c; stroke: #2ca02c"/>
     <use xlink:href="#m96e476d79c" x="147.108642" y="166.326694" style="fill: #2ca02c; stroke: #2ca02c"/>
     <use xlink:href="#m96e476d79c" x="166.340012" y="92.893454" style="fill: #2ca02c; stroke: #2ca02c"/>
     <use xlink:href="#m96e476d79c" x="185.571382" y="212.628547" style="fill: #2ca02c; stroke: #2ca02c"/>
     <use xlink:href="#m96e476d79c" x="204.802752" y="174.400469" style="fill: #2ca02c; stroke: #2ca02c"/>
     <use xlink:href="#m96e476d79c" x="224.034123" y="212.928609" style="fill: #2ca02c; stroke: #2ca02c"/>
     <use xlink:href="#m96e476d79c" x="243.265493" y="206.93833" style="fill: #2ca02c; stroke: #2ca02c"/>
     <use xlink:href="#m96e476d79c" x="262.496863" y="197.695081" style="fill: #2ca02c; stroke: #2ca02c"/>
     <use xlink:href="#m96e476d79c" x="281.728233" y="204.049367" style="fill: #2ca02c; stroke: #2ca02c"/>
     <use xlink:href="#m96e476d79c" x="320.190974" y="208.453299" style="fill: #2ca02c; stroke: #2ca02c"/>
     <use xlink:href="#m96e476d79c" x="339.422344" y="215.842521" style="fill: #2ca02c; stroke: #2ca02c"/>
     <use xlink:href="#m96e476d79c" x="358.653714" y="190.409664" style="fill: #2ca02c; stroke: #2ca02c"/>
     <use xlink:href="#m96e476d79c" x="397.116454" y="203.225847" style="fill: #2ca02c; stroke: #2ca02c"/>
     <use xlink:href="#m96e476d79c" x="454.810565" y="207.276799" style="fill: #2ca02c; stroke: #2ca02c"/>
     <use xlink:href="#m96e476d79c" x="474.041935" y="174.452389" style="fill: #2ca02c; stroke: #2ca02c"/>
     <use xlink:href="#m96e476d79c" x="493.273305" y="65.033399" style="fill: #2ca02c; stroke: #2ca02c"/>
     <use xlink:href="#m96e476d79c" x="512.504675" y="209.896282" style="fill: #2ca02c; stroke: #2ca02c"/>
     <use xlink:href="#m96e476d79c" x="531.736046" y="216.688612" style="fill: #2ca02c; stroke: #2ca02c"/>
     <use xlink:href="#m96e476d79c" x="550.967416" y="183.762935" style="fill: #2ca02c; stroke: #2ca02c"/>
     <use xlink:href="#m96e476d79c" x="570.198786" y="221.694329" style="fill: #2ca02c; stroke: #2ca02c"/>
     <use xlink:href="#m96e476d79c" x="589.430156" y="177.556309" style="fill: #2ca02c; stroke: #2ca02c"/>
    </g>
   </g>
   <g id="line2d_18">
    <path d="M 89.414531 138.903015 
L 108.645901 207.704467 
L 147.108642 213.0565 
L 166.340012 99.385333 
L 185.571382 229.286969 
L 204.802752 177.660269 
L 224.034123 209.017139 
L 243.265493 222.105895 
L 262.496863 219.163212 
L 281.728233 229.920466 
L 320.190974 234.722934 
L 339.422344 224.225811 
L 358.653714 209.024711 
L 397.116454 221.0278 
L 454.810565 225.518722 
L 474.041935 200.325609 
L 493.273305 46.813736 
L 512.504675 222.589763 
L 531.736046 184.159759 
L 550.967416 205.130229 
L 570.198786 238.203517 
L 589.430156 221.314646 
" clip-path="url(#pb925f8ea85)" style="fill: none; stroke: #d62728; stroke-width: 2; stroke-linecap: square"/>
    <defs>
     <path id="m258c8c998c" d="M 0 3 
C 0.795609 3 1.55874 2.683901 2.12132 2.12132 
C 2.683901 1.55874 3 0.795609 3 0 
C 3 -0.795609 2.683901 -1.55874 2.12132 -2.12132 
C 1.55874 -2.683901 0.795609 -3 0 -3 
C -0.795609 -3 -1.55874 -2.683901 -2.12132 -2.12132 
C -2.683901 -1.55874 -3 -0.795609 -3 0 
C -3 0.795609 -2.683901 1.55874 -2.12132 2.12132 
C -1.55874 2.683901 -0.795609 3 0 3 
z
" style="stroke: #d62728"/>
    </defs>
    <g clip-path="url(#pb925f8ea85)">
     <use xlink:href="#m258c8c998c" x="89.414531" y="138.903015" style="fill: #d62728; stroke: #d62728"/>
     <use xlink:href="#m258c8c998c" x="108.645901" y="207.704467" style="fill: #d62728; stroke: #d62728"/>
     <use xlink:href="#m258c8c998c" x="147.108642" y="213.0565" style="fill: #d62728; stroke: #d62728"/>
     <use xlink:href="#m258c8c998c" x="166.340012" y="99.385333" style="fill: #d62728; stroke: #d62728"/>
     <use xlink:href="#m258c8c998c" x="185.571382" y="229.286969" style="fill: #d62728; stroke: #d62728"/>
     <use xlink:href="#m258c8c998c" x="204.802752" y="177.660269" style="fill: #d62728; stroke: #d62728"/>
     <use xlink:href="#m258c8c998c" x="224.034123" y="209.017139" style="fill: #d62728; stroke: #d62728"/>
     <use xlink:href="#m258c8c998c" x="243.265493" y="222.105895" style="fill: #d62728; stroke: #d62728"/>
     <use xlink:href="#m258c8c998c" x="262.496863" y="219.163212" style="fill: #d62728; stroke: #d62728"/>
     <use xlink:href="#m258c8c998c" x="281.728233" y="229.920466" style="fill: #d62728; stroke: #d62728"/>
     <use xlink:href="#m258c8c998c" x="320.190974" y="234.722934" style="fill: #d62728; stroke: #d62728"/>
     <use xlink:href="#m258c8c998c" x="339.422344" y="224.225811" style="fill: #d62728; stroke: #d62728"/>
     <use xlink:href="#m258c8c998c" x="358.653714" y="209.024711" style="fill: #d62728; stroke: #d62728"/>
     <use xlink:href="#m258c8c998c" x="397.116454" y="221.0278" style="fill: #d62728; stroke: #d62728"/>
     <use xlink:href="#m258c8c998c" x="454.810565" y="225.518722" style="fill: #d62728; stroke: #d62728"/>
     <use xlink:href="#m258c8c998c" x="474.041935" y="200.325609" style="fill: #d62728; stroke: #d62728"/>
     <use xlink:href="#m258c8c998c" x="493.273305" y="46.813736" style="fill: #d62728; stroke: #d62728"/>
     <use xlink:href="#m258c8c998c" x="512.504675" y="222.589763" style="fill: #d62728; stroke: #d62728"/>
     <use xlink:href="#m258c8c998c" x="531.736046" y="184.159759" style="fill: #d62728; stroke: #d62728"/>
     <use xlink:href="#m258c8c998c" x="550.967416" y="205.130229" style="fill: #d62728; stroke: #d62728"/>
     <use xlink:href="#m258c8c998c" x="570.198786" y="238.203517" style="fill: #d62728; stroke: #d62728"/>
     <use xlink:href="#m258c8c998c" x="589.430156" y="221.314646" style="fill: #d62728; stroke: #d62728"/>
    </g>
   </g>
   <g id="patch_3">
    <path d="M 64.41375 529.308125 
L 64.41375 23.837813 
" style="fill: none; stroke: #000000; stroke-width: 0.8; stroke-linejoin: miter; stroke-linecap: square"/>
   </g>
   <g id="patch_4">
    <path d="M 614.430938 529.308125 
L 614.430938 23.837813 
" style="fill: none; stroke: #000000; stroke-width: 0.8; stroke-linejoin: miter; stroke-linecap: square"/>
   </g>
   <g id="patch_5">
    <path d="M 64.41375 529.308125 
L 614.430937 529.308125 
" style="fill: none; stroke: #000000; stroke-width: 0.8; stroke-linejoin: miter; stroke-linecap: square"/>
   </g>
   <g id="patch_6">
    <path d="M 64.41375 23.837812 
L 614.430937 23.837812 
" style="fill: none; stroke: #000000; stroke-width: 0.8; stroke-linejoin: miter; stroke-linecap: square"/>
   </g>
   <g id="text_11">
    <text style="font: 700 14px 'DejaVu Sans', 'Bitstream Vera Sans', 'Computer Modern Sans Serif', 'Lucida Grande', 'Verdana', 'Geneva', 'Lucid', 'Arial', 'Helvetica', 'Avant Garde', sans-serif; text-anchor: middle" x="339.422344" y="17.837813" transform="rotate(-0 339.422344 17.837813)">Coroutine Memory - Performance Trend</text>
   </g>
   <g id="legend_1">
    <g id="patch_7">
     <path d="M 648.931797 91.662813 
L 841.620859 91.662813 
Q 843.620859 91.662813 843.620859 89.662813 
L 843.620859 30.837813 
Q 843.620859 28.837813 841.620859 28.837813 
L 648.931797 28.837813 
Q 646.931797 28.837813 646.931797 30.837813 
L 646.931797 89.662813 
Q 646.931797 91.662813 648.931797 91.662813 
z
" style="fill: #ffffff; opacity: 0.8; stroke: #cccccc; stroke-linejoin: miter"/>
    </g>
    <g id="line2d_19">
     <path d="M 650.931797 36.93625 
L 660.931797 36.93625 
L 670.931797 36.93625 
" style="fill: none; stroke: #1f77b4; stroke-width: 2; stroke-linecap: square"/>
     <g>
      <use xlink:href="#m4857c45600" x="660.931797" y="36.93625" style="fill: #1f77b4; stroke: #1f77b4"/>
     </g>
    </g>
    <g id="text_12">
     <text style="font: 10px 'DejaVu Sans', 'Bitstream Vera Sans', 'Computer Modern Sans Serif', 'Lucida Grande', 'Verdana', 'Geneva', 'Lucid', 'Arial', 'Helvetica', 'Avant Garde', sans-serif; text-anchor: start" x="678.931797" y="40.43625" transform="rotate(-0 678.931797 40.43625)">gcc-14.2 - CoroutineMemory_V1</text>
    </g>
    <g id="line2d_20">
     <path d="M 650.931797 51.8925 
L 660.931797 51.8925 
L 670.931797 51.8925 
" style="fill: none; stroke: #ff7f0e; stroke-width: 2; stroke-linecap: square"/>
     <g>
      <use xlink:href="#m0afd854632" x="660.931797" y="51.8925" style="fill: #ff7f0e; stroke: #ff7f0e"/>
     </g>
    </g>
    <g id="text_13">
     <text style="font: 10px 'DejaVu Sans', 'Bitstream Vera Sans', 'Computer Modern Sans Serif', 'Lucida Grande', 'Verdana', 'Geneva', 'Lucid', 'Arial', 'Helvetica', 'Avant Garde', sans-serif; text-anchor: start" x="678.931797" y="55.3925" transform="rotate(-0 678.931797 55.3925)">gcc-14.2 - CoroutineMemory_V2</text>
    </g>
    <g id="line2d_21">
     <path d="M 650.931797 66.84875 
L 660.931797 66.84875 
L 670.931797 66.84875 
" style="fill: none; stroke: #2ca02c; stroke-width: 2; stroke-linecap: square"/>
     <g>
      <use xlink:href="#m96e476d79c" x="660.931797" y="66.84875" style="fill: #2ca02c; stroke: #2ca02c"/>
     </g>
    </g>
    <g id="text_14">
     <text style="font: 10px 'DejaVu Sans', 'Bitstream Vera Sans', 'Computer Modern Sans Serif', 'Lucida Grande', 'Verdana', 'Geneva', 'Lucid', 'Arial', 'Helvetica', 'Avant Garde', sans-serif; text-anchor: start" x="678.931797" y="70.34875" transform="rotate(-0 678.931797 70.34875)">gcc-4.2 - CoroutineMemory_V1</text>
    </g>
    <g id="line2d_22">
     <path d="M 650.931797 81.805 
L 660.931797 81.805 
L 670.931797 81.805 
" style="fill: none; stroke: #d62728; stroke-width: 2; stroke-linecap: square"/>
     <g>
      <use xlink:href="#m258c8c998c" x="660.931797" y="81.805" style="fill: #d62728; stroke: #d62728"/>
     </g>
    </g>
    <g id="text_15">
     <text style="font: 10px 'DejaVu Sans', 'Bitstream Vera Sans', 'Computer Modern Sans Serif', 'Lucida Grande', 'Verdana', 'Geneva', 'Lucid', 'Arial', 'Helvetica', 'Avant Garde', sans-serif; text-anchor: start" x="678.931797" y="85.305" transform="rotate(-0 678.931797 85.305)">gcc-4.2 - CoroutineMemory_V2</text>
    </g>
   </g>
  </g>
 </g>
 <defs>
  <clipPath id="pb925f8ea85">
   <rect x="64.41375" y="23.837813" width="550.017187" height="505.470313"/>
  </clipPath>
 </defs>
</svg>
