<?xml version="1.0" encoding="utf-8" standalone="no"?>
<!DOCTYPE svg PUBLIC "-//W3C//DTD SVG 1.1//EN"
  "http://www.w3.org/Graphics/SVG/1.1/DTD/svg11.dtd">
<svg xmlns:xlink="http://www.w3.org/1999/xlink" width="848.869766pt" height="568.8pt" viewBox="0 0 848.869766 568.8" xmlns="http://www.w3.org/2000/svg" version="1.1">
 <metadata>
  <rdf:RDF xmlns:dc="http://purl.org/dc/elements/1.1/" xmlns:cc="http://creativecommons.org/ns#" xmlns:rdf="http://www.w3.org/1999/02/22-rdf-syntax-ns#">
   <cc:Work>
    <dc:type rdf:resource="http://purl.org/dc/dcmitype/StillImage"/>
    <dc:date>2025-09-02T22:12:47.969478</dc:date>
    <dc:format>image/svg+xml</dc:format>
    <dc:creator>
     <cc:Agent>
      <dc:title>Matplotlib v3.9.4, https://matplotlib.org/</dc:title>
     </cc:Agent>
    </dc:creator>
   </cc:Work>
  </rdf:RDF>
 </metadata>
 <defs>
  <style type="text/css">*{stroke-linejoin: round; stroke-linecap: butt}</style>
 </defs>
 <g id="figure_1">
  <g id="patch_1">
   <path d="M 0 568.8 
L 848.869766 568.8 
L 848.869766 0 
L 0 0 
z
" style="fill: #ffffff"/>
  </g>
  <g id="axes_1">
   <g id="patch_2">
    <path d="M 86.71375 529.308125 
L 597.709062 529.308125 
L 597.709062 23.837812 
L 86.71375 23.837812 
z
" style="fill: #ffffff"/>
   </g>
   <g id="matplotlib.axis_1">
    <g id="xtick_1">
     <g id="line2d_1">
      <path d="M 87.8198 529.308125 
L 87.8198 23.837812 
" clip-path="url(#p2141c2a732)" style="fill: none; stroke: #b0b0b0; stroke-opacity: 0.3; stroke-width: 0.8; stroke-linecap: square"/>
     </g>
     <g id="line2d_2">
      <defs>
       <path id="mb5e95c46ab" d="M 0 0 
L 0 3.5 
" style="stroke: #000000; stroke-width: 0.8"/>
      </defs>
      <g>
       <use xlink:href="#mb5e95c46ab" x="87.8198" y="529.308125" style="stroke: #000000; stroke-width: 0.8"/>
      </g>
     </g>
     <g id="text_1">
      <text style="font: 10px 'DejaVu Sans', 'Bitstream Vera Sans', 'Computer Modern Sans Serif', 'Lucida Grande', 'Verdana', 'Geneva', 'Lucid', 'Arial', 'Helvetica', 'Avant Garde', sans-serif; text-anchor: middle" x="87.8198" y="543.906563" transform="rotate(-0 87.8198 543.906563)">95</text>
     </g>
    </g>
    <g id="xtick_2">
     <g id="line2d_3">
      <path d="M 198.424846 529.308125 
L 198.424846 23.837812 
" clip-path="url(#p2141c2a732)" style="fill: none; stroke: #b0b0b0; stroke-opacity: 0.3; stroke-width: 0.8; stroke-linecap: square"/>
     </g>
     <g id="line2d_4">
      <g>
       <use xlink:href="#mb5e95c46ab" x="198.424846" y="529.308125" style="stroke: #000000; stroke-width: 0.8"/>
      </g>
     </g>
     <g id="text_2">
      <text style="font: 10px 'DejaVu Sans', 'Bitstream Vera Sans', 'Computer Modern Sans Serif', 'Lucida Grande', 'Verdana', 'Geneva', 'Lucid', 'Arial', 'Helvetica', 'Avant Garde', sans-serif; text-anchor: middle" x="198.424846" y="543.906563" transform="rotate(-0 198.424846 543.906563)">100</text>
     </g>
    </g>
    <g id="xtick_3">
     <g id="line2d_5">
      <path d="M 309.029892 529.308125 
L 309.029892 23.837812 
" clip-path="url(#p2141c2a732)" style="fill: none; stroke: #b0b0b0; stroke-opacity: 0.3; stroke-width: 0.8; stroke-linecap: square"/>
     </g>
     <g id="line2d_6">
      <g>
       <use xlink:href="#mb5e95c46ab" x="309.029892" y="529.308125" style="stroke: #000000; stroke-width: 0.8"/>
      </g>
     </g>
     <g id="text_3">
      <text style="font: 10px 'DejaVu Sans', 'Bitstream Vera Sans', 'Computer Modern Sans Serif', 'Lucida Grande', 'Verdana', 'Geneva', 'Lucid', 'Arial', 'Helvetica', 'Avant Garde', sans-serif; text-anchor: middle" x="309.029892" y="543.906563" transform="rotate(-0 309.029892 543.906563)">105</text>
     </g>
    </g>
    <g id="xtick_4">
     <g id="line2d_7">
      <path d="M 419.634938 529.308125 
L 419.634938 23.837812 
" clip-path="url(#p2141c2a732)" style="fill: none; stroke: #b0b0b0; stroke-opacity: 0.3; stroke-width: 0.8; stroke-linecap: square"/>
     </g>
     <g id="line2d_8">
      <g>
       <use xlink:href="#mb5e95c46ab" x="419.634938" y="529.308125" style="stroke: #000000; stroke-width: 0.8"/>
      </g>
     </g>
     <g id="text_4">
      <text style="font: 10px 'DejaVu Sans', 'Bitstream Vera Sans', 'Computer Modern Sans Serif', 'Lucida Grande', 'Verdana', 'Geneva', 'Lucid', 'Arial', 'Helvetica', 'Avant Garde', sans-serif; text-anchor: middle" x="419.634938" y="543.906563" transform="rotate(-0 419.634938 543.906563)">110</text>
     </g>
    </g>
    <g id="xtick_5">
     <g id="line2d_9">
      <path d="M 530.239984 529.308125 
L 530.239984 23.837812 
" clip-path="url(#p2141c2a732)" style="fill: none; stroke: #b0b0b0; stroke-opacity: 0.3; stroke-width: 0.8; stroke-linecap: square"/>
     </g>
     <g id="line2d_10">
      <g>
       <use xlink:href="#mb5e95c46ab" x="530.239984" y="529.308125" style="stroke: #000000; stroke-width: 0.8"/>
      </g>
     </g>
     <g id="text_5">
      <text style="font: 10px 'DejaVu Sans', 'Bitstream Vera Sans', 'Computer Modern Sans Serif', 'Lucida Grande', 'Verdana', 'Geneva', 'Lucid', 'Arial', 'Helvetica', 'Avant Garde', sans-serif; text-anchor: middle" x="530.239984" y="543.906563" transform="rotate(-0 530.239984 543.906563)">115</text>
     </g>
    </g>
    <g id="text_6">
     <text style="font: 12px 'DejaVu Sans', 'Bitstream Vera Sans', 'Computer Modern Sans Serif', 'Lucida Grande', 'Verdana', 'Geneva', 'Lucid', 'Arial', 'Helvetica', 'Avant Garde', sans-serif; text-anchor: middle" x="342.211406" y="559.104375" transform="rotate(-0 342.211406 559.104375)">Build Number</text>
    </g>
   </g>
   <g id="matplotlib.axis_2">
    <g id="ytick_1">
     <g id="line2d_11">
      <defs>
       <path id="ma2cc269507" d="M 0 0 
L -2 0 
" style="stroke: #000000; stroke-width: 0.6"/>
      </defs>
      <g>
       <use xlink:href="#ma2cc269507" x="86.71375" y="498.34401" style="stroke: #000000; stroke-width: 0.6"/>
      </g>
     </g>
     <g id="text_7">
      <!-- $\mathdefault{5.006\times10^{7}}$ -->
      <g transform="translate(22.81375 502.143229)">
       <text>
        <tspan style="font: 10px 'DejaVu Sans'" x="0 6.362305 9.541016 15.90332 22.265625 30.576172 40.90332 47.265625" y="-0.06406250000000036">5.006×10</tspan>
        <tspan style="font: 7px 'DejaVu Sans'" x="53.723633" y="-3.8921875000000004">7</tspan>
       </text>
      </g>
     </g>
    </g>
    <g id="ytick_2">
     <g id="line2d_12">
      <g>
       <use xlink:href="#ma2cc269507" x="86.71375" y="397.979961" style="stroke: #000000; stroke-width: 0.6"/>
      </g>
     </g>
     <g id="text_8">
      <!-- $\mathdefault{5.008\times10^{7}}$ -->
      <g transform="translate(22.81375 401.77918)">
       <text>
        <tspan style="font: 10px 'DejaVu Sans'" x="0 6.362305 9.541016 15.90332 22.265625 30.576172 40.90332 47.265625" y="-0.06406250000000036">5.008×10</tspan>
        <tspan style="font: 7px 'DejaVu Sans'" x="53.723633" y="-3.8921875000000004">7</tspan>
       </text>
      </g>
     </g>
    </g>
    <g id="ytick_3">
     <g id="line2d_13">
      <g>
       <use xlink:href="#ma2cc269507" x="86.71375" y="297.655985" style="stroke: #000000; stroke-width: 0.6"/>
      </g>
     </g>
     <g id="text_9">
      <!-- $\mathdefault{5.01\times10^{7}}$ -->
      <g transform="translate(29.21375 301.455204)">
       <text>
        <tspan style="font: 10px 'DejaVu Sans'" x="0 6.362305 9.541016 15.90332 24.213867 34.541016 40.90332" y="-0.06406250000000036">5.01×10</tspan>
        <tspan style="font: 7px 'DejaVu Sans'" x="47.361328" y="-3.8921875000000004">7</tspan>
       </text>
      </g>
     </g>
    </g>
    <g id="ytick_4">
     <g id="line2d_14">
      <g>
       <use xlink:href="#ma2cc269507" x="86.71375" y="197.372051" style="stroke: #000000; stroke-width: 0.6"/>
      </g>
     </g>
     <g id="text_10">
      <!-- $\mathdefault{5.012\times10^{7}}$ -->
      <g transform="translate(22.81375 201.17127)">
       <text>
        <tspan style="font: 10px 'DejaVu Sans'" x="0 6.362305 9.541016 15.90332 22.265625 30.576172 40.90332 47.265625" y="-0.06406250000000036">5.012×10</tspan>
        <tspan style="font: 7px 'DejaVu Sans'" x="53.723633" y="-3.8921875000000004">7</tspan>
       </text>
      </g>
     </g>
    </g>
    <g id="ytick_5">
     <g id="line2d_15">
      <g>
       <use xlink:href="#ma2cc269507" x="86.71375" y="97.128127" style="stroke: #000000; stroke-width: 0.6"/>
      </g>
     </g>
     <g id="text_11">
      <!-- $\mathdefault{5.014\times10^{7}}$ -->
      <g transform="translate(22.81375 100.927345)">
       <text>
        <tspan style="font: 10px 'DejaVu Sans'" x="0 6.362305 9.541016 15.90332 22.265625 30.576172 40.90332 47.265625" y="-0.06406250000000036">5.014×10</tspan>
        <tspan style="font: 7px 'DejaVu Sans'" x="53.723633" y="-3.8921875000000004">7</tspan>
       </text>
      </g>
     </g>
    </g>
    <g id="text_12">
     <text style="font: 12px 'DejaVu Sans', 'Bitstream Vera Sans', 'Computer Modern Sans Serif', 'Lucida Grande', 'Verdana', 'Geneva', 'Lucid', 'Arial', 'Helvetica', 'Avant Garde', sans-serif; text-anchor: middle" x="16.318125" y="276.572969" transform="rotate(-90 16.318125 276.572969)">Median Elapsed Time (nanoseconds)</text>
    </g>
   </g>
   <g id="line2d_16">
    <path d="M 109.94081 456.394991 
L 132.061819 456.08335 
L 176.303837 475.447943 
L 198.424846 484.861282 
L 220.545856 478.633864 
L 242.666865 475.925728 
L 264.787874 482.868773 
L 286.908883 473.182491 
L 309.029892 452.740141 
L 331.150902 453.216377 
L 375.39292 440.440603 
L 397.513929 450.464355 
L 419.634938 473.825889 
L 441.755948 464.969017 
L 463.876957 471.796329 
L 508.118975 476.354832 
L 530.239984 506.332202 
L 552.360994 475.265762 
L 574.482003 477.300369 
" clip-path="url(#p2141c2a732)" style="fill: none; stroke: #1f77b4; stroke-width: 2; stroke-linecap: square"/>
    <defs>
     <path id="m3b4136b79f" d="M 0 3 
C 0.795609 3 1.55874 2.683901 2.12132 2.12132 
C 2.683901 1.55874 3 0.795609 3 0 
C 3 -0.795609 2.683901 -1.55874 2.12132 -2.12132 
C 1.55874 -2.683901 0.795609 -3 0 -3 
C -0.795609 -3 -1.55874 -2.683901 -2.12132 -2.12132 
C -2.683901 -1.55874 -3 -0.795609 -3 0 
C -3 0.795609 -2.683901 1.55874 -2.12132 2.12132 
C -1.55874 2.683901 -0.795609 3 0 3 
z
" style="stroke: #1f77b4"/>
    </defs>
    <g clip-path="url(#p2141c2a732)">
     <use xlink:href="#m3b4136b79f" x="109.94081" y="456.394991" style="fill: #1f77b4; stroke: #1f77b4"/>
     <use xlink:href="#m3b4136b79f" x="132.061819" y="456.08335" style="fill: #1f77b4; stroke: #1f77b4"/>
     <use xlink:href="#m3b4136b79f" x="176.303837" y="475.447943" style="fill: #1f77b4; stroke: #1f77b4"/>
     <use xlink:href="#m3b4136b79f" x="198.424846" y="484.861282" style="fill: #1f77b4; stroke: #1f77b4"/>
     <use xlink:href="#m3b4136b79f" x="220.545856" y="478.633864" style="fill: #1f77b4; stroke: #1f77b4"/>
     <use xlink:href="#m3b4136b79f" x="242.666865" y="475.925728" style="fill: #1f77b4; stroke: #1f77b4"/>
     <use xlink:href="#m3b4136b79f" x="264.787874" y="482.868773" style="fill: #1f77b4; stroke: #1f77b4"/>
     <use xlink:href="#m3b4136b79f" x="286.908883" y="473.182491" style="fill: #1f77b4; stroke: #1f77b4"/>
     <use xlink:href="#m3b4136b79f" x="309.029892" y="452.740141" style="fill: #1f77b4; stroke: #1f77b4"/>
     <use xlink:href="#m3b4136b79f" x="331.150902" y="453.216377" style="fill: #1f77b4; stroke: #1f77b4"/>
     <use xlink:href="#m3b4136b79f" x="375.39292" y="440.440603" style="fill: #1f77b4; stroke: #1f77b4"/>
     <use xlink:href="#m3b4136b79f" x="397.513929" y="450.464355" style="fill: #1f77b4; stroke: #1f77b4"/>
     <use xlink:href="#m3b4136b79f" x="419.634938" y="473.825889" style="fill: #1f77b4; stroke: #1f77b4"/>
     <use xlink:href="#m3b4136b79f" x="441.755948" y="464.969017" style="fill: #1f77b4; stroke: #1f77b4"/>
     <use xlink:href="#m3b4136b79f" x="463.876957" y="471.796329" style="fill: #1f77b4; stroke: #1f77b4"/>
     <use xlink:href="#m3b4136b79f" x="508.118975" y="476.354832" style="fill: #1f77b4; stroke: #1f77b4"/>
     <use xlink:href="#m3b4136b79f" x="530.239984" y="506.332202" style="fill: #1f77b4; stroke: #1f77b4"/>
     <use xlink:href="#m3b4136b79f" x="552.360994" y="475.265762" style="fill: #1f77b4; stroke: #1f77b4"/>
     <use xlink:href="#m3b4136b79f" x="574.482003" y="477.300369" style="fill: #1f77b4; stroke: #1f77b4"/>
    </g>
   </g>
   <g id="line2d_17">
    <path d="M 109.94081 129.499033 
L 132.061819 115.715342 
L 176.303837 232.281361 
L 198.424846 73.042965 
L 220.545856 243.223919 
L 242.666865 240.842228 
L 264.787874 220.55063 
L 286.908883 252.071975 
L 309.029892 90.333537 
L 331.150902 138.108523 
L 375.39292 61.173861 
L 397.513929 69.185244 
L 419.634938 244.147019 
L 441.755948 191.102125 
L 463.876957 244.555671 
L 508.118975 231.455073 
L 530.239984 228.819794 
L 552.360994 235.807657 
L 574.482003 234.654949 
" clip-path="url(#p2141c2a732)" style="fill: none; stroke: #ff7f0e; stroke-width: 2; stroke-linecap: square"/>
    <defs>
     <path id="m246c02f428" d="M 0 3 
C 0.795609 3 1.55874 2.683901 2.12132 2.12132 
C 2.683901 1.55874 3 0.795609 3 0 
C 3 -0.795609 2.683901 -1.55874 2.12132 -2.12132 
C 1.55874 -2.683901 0.795609 -3 0 -3 
C -0.795609 -3 -1.55874 -2.683901 -2.12132 -2.12132 
C -2.683901 -1.55874 -3 -0.795609 -3 0 
C -3 0.795609 -2.683901 1.55874 -2.12132 2.12132 
C -1.55874 2.683901 -0.795609 3 0 3 
z
" style="stroke: #ff7f0e"/>
    </defs>
    <g clip-path="url(#p2141c2a732)">
     <use xlink:href="#m246c02f428" x="109.94081" y="129.499033" style="fill: #ff7f0e; stroke: #ff7f0e"/>
     <use xlink:href="#m246c02f428" x="132.061819" y="115.715342" style="fill: #ff7f0e; stroke: #ff7f0e"/>
     <use xlink:href="#m246c02f428" x="176.303837" y="232.281361" style="fill: #ff7f0e; stroke: #ff7f0e"/>
     <use xlink:href="#m246c02f428" x="198.424846" y="73.042965" style="fill: #ff7f0e; stroke: #ff7f0e"/>
     <use xlink:href="#m246c02f428" x="220.545856" y="243.223919" style="fill: #ff7f0e; stroke: #ff7f0e"/>
     <use xlink:href="#m246c02f428" x="242.666865" y="240.842228" style="fill: #ff7f0e; stroke: #ff7f0e"/>
     <use xlink:href="#m246c02f428" x="264.787874" y="220.55063" style="fill: #ff7f0e; stroke: #ff7f0e"/>
     <use xlink:href="#m246c02f428" x="286.908883" y="252.071975" style="fill: #ff7f0e; stroke: #ff7f0e"/>
     <use xlink:href="#m246c02f428" x="309.029892" y="90.333537" style="fill: #ff7f0e; stroke: #ff7f0e"/>
     <use xlink:href="#m246c02f428" x="331.150902" y="138.108523" style="fill: #ff7f0e; stroke: #ff7f0e"/>
     <use xlink:href="#m246c02f428" x="375.39292" y="61.173861" style="fill: #ff7f0e; stroke: #ff7f0e"/>
     <use xlink:href="#m246c02f428" x="397.513929" y="69.185244" style="fill: #ff7f0e; stroke: #ff7f0e"/>
     <use xlink:href="#m246c02f428" x="419.634938" y="244.147019" style="fill: #ff7f0e; stroke: #ff7f0e"/>
     <use xlink:href="#m246c02f428" x="441.755948" y="191.102125" style="fill: #ff7f0e; stroke: #ff7f0e"/>
     <use xlink:href="#m246c02f428" x="463.876957" y="244.555671" style="fill: #ff7f0e; stroke: #ff7f0e"/>
     <use xlink:href="#m246c02f428" x="508.118975" y="231.455073" style="fill: #ff7f0e; stroke: #ff7f0e"/>
     <use xlink:href="#m246c02f428" x="530.239984" y="228.819794" style="fill: #ff7f0e; stroke: #ff7f0e"/>
     <use xlink:href="#m246c02f428" x="552.360994" y="235.807657" style="fill: #ff7f0e; stroke: #ff7f0e"/>
     <use xlink:href="#m246c02f428" x="574.482003" y="234.654949" style="fill: #ff7f0e; stroke: #ff7f0e"/>
    </g>
   </g>
   <g id="line2d_18">
    <path d="M 109.94081 463.426323 
L 132.061819 477.351561 
L 176.303837 495.343548 
L 198.424846 453.75986 
L 220.545856 494.223277 
L 242.666865 497.38685 
L 264.787874 475.6507 
L 286.908883 468.923154 
L 309.029892 474.307184 
L 331.150902 473.006334 
L 375.39292 498.360072 
L 397.513929 477.697356 
L 419.634938 468.612 
L 463.876957 468.456925 
L 530.239984 477.074022 
L 552.360994 476.881803 
L 574.482003 442.300801 
" clip-path="url(#p2141c2a732)" style="fill: none; stroke: #2ca02c; stroke-width: 2; stroke-linecap: square"/>
    <defs>
     <path id="me85992664a" d="M 0 3 
C 0.795609 3 1.55874 2.683901 2.12132 2.12132 
C 2.683901 1.55874 3 0.795609 3 0 
C 3 -0.795609 2.683901 -1.55874 2.12132 -2.12132 
C 1.55874 -2.683901 0.795609 -3 0 -3 
C -0.795609 -3 -1.55874 -2.683901 -2.12132 -2.12132 
C -2.683901 -1.55874 -3 -0.795609 -3 0 
C -3 0.795609 -2.683901 1.55874 -2.12132 2.12132 
C -1.55874 2.683901 -0.795609 3 0 3 
z
" style="stroke: #2ca02c"/>
    </defs>
    <g clip-path="url(#p2141c2a732)">
     <use xlink:href="#me85992664a" x="109.94081" y="463.426323" style="fill: #2ca02c; stroke: #2ca02c"/>
     <use xlink:href="#me85992664a" x="132.061819" y="477.351561" style="fill: #2ca02c; stroke: #2ca02c"/>
     <use xlink:href="#me85992664a" x="176.303837" y="495.343548" style="fill: #2ca02c; stroke: #2ca02c"/>
     <use xlink:href="#me85992664a" x="198.424846" y="453.75986" style="fill: #2ca02c; stroke: #2ca02c"/>
     <use xlink:href="#me85992664a" x="220.545856" y="494.223277" style="fill: #2ca02c; stroke: #2ca02c"/>
     <use xlink:href="#me85992664a" x="242.666865" y="497.38685" style="fill: #2ca02c; stroke: #2ca02c"/>
     <use xlink:href="#me85992664a" x="264.787874" y="475.6507" style="fill: #2ca02c; stroke: #2ca02c"/>
     <use xlink:href="#me85992664a" x="286.908883" y="468.923154" style="fill: #2ca02c; stroke: #2ca02c"/>
     <use xlink:href="#me85992664a" x="309.029892" y="474.307184" style="fill: #2ca02c; stroke: #2ca02c"/>
     <use xlink:href="#me85992664a" x="331.150902" y="473.006334" style="fill: #2ca02c; stroke: #2ca02c"/>
     <use xlink:href="#me85992664a" x="375.39292" y="498.360072" style="fill: #2ca02c; stroke: #2ca02c"/>
     <use xlink:href="#me85992664a" x="397.513929" y="477.697356" style="fill: #2ca02c; stroke: #2ca02c"/>
     <use xlink:href="#me85992664a" x="419.634938" y="468.612" style="fill: #2ca02c; stroke: #2ca02c"/>
     <use xlink:href="#me85992664a" x="463.876957" y="468.456925" style="fill: #2ca02c; stroke: #2ca02c"/>
     <use xlink:href="#me85992664a" x="530.239984" y="477.074022" style="fill: #2ca02c; stroke: #2ca02c"/>
     <use xlink:href="#me85992664a" x="552.360994" y="476.881803" style="fill: #2ca02c; stroke: #2ca02c"/>
     <use xlink:href="#me85992664a" x="574.482003" y="442.300801" style="fill: #2ca02c; stroke: #2ca02c"/>
    </g>
   </g>
   <g id="line2d_19">
    <path d="M 109.94081 157.701751 
L 132.061819 247.430292 
L 176.303837 244.334547 
L 198.424846 213.448883 
L 220.545856 239.366092 
L 242.666865 237.434192 
L 264.787874 218.08693 
L 286.908883 230.86093 
L 309.029892 247.784295 
L 331.150902 234.366147 
L 375.39292 216.488597 
L 397.513929 233.07456 
L 419.634938 229.441509 
L 463.876957 240.488235 
L 530.239984 237.855869 
L 552.360994 243.159237 
L 574.482003 46.813736 
" clip-path="url(#p2141c2a732)" style="fill: none; stroke: #d62728; stroke-width: 2; stroke-linecap: square"/>
    <defs>
     <path id="m5ed10193e2" d="M 0 3 
C 0.795609 3 1.55874 2.683901 2.12132 2.12132 
C 2.683901 1.55874 3 0.795609 3 0 
C 3 -0.795609 2.683901 -1.55874 2.12132 -2.12132 
C 1.55874 -2.683901 0.795609 -3 0 -3 
C -0.795609 -3 -1.55874 -2.683901 -2.12132 -2.12132 
C -2.683901 -1.55874 -3 -0.795609 -3 0 
C -3 0.795609 -2.683901 1.55874 -2.12132 2.12132 
C -1.55874 2.683901 -0.795609 3 0 3 
z
" style="stroke: #d62728"/>
    </defs>
    <g clip-path="url(#p2141c2a732)">
     <use xlink:href="#m5ed10193e2" x="109.94081" y="157.701751" style="fill: #d62728; stroke: #d62728"/>
     <use xlink:href="#m5ed10193e2" x="132.061819" y="247.430292" style="fill: #d62728; stroke: #d62728"/>
     <use xlink:href="#m5ed10193e2" x="176.303837" y="244.334547" style="fill: #d62728; stroke: #d62728"/>
     <use xlink:href="#m5ed10193e2" x="198.424846" y="213.448883" style="fill: #d62728; stroke: #d62728"/>
     <use xlink:href="#m5ed10193e2" x="220.545856" y="239.366092" style="fill: #d62728; stroke: #d62728"/>
     <use xlink:href="#m5ed10193e2" x="242.666865" y="237.434192" style="fill: #d62728; stroke: #d62728"/>
     <use xlink:href="#m5ed10193e2" x="264.787874" y="218.08693" style="fill: #d62728; stroke: #d62728"/>
     <use xlink:href="#m5ed10193e2" x="286.908883" y="230.86093" style="fill: #d62728; stroke: #d62728"/>
     <use xlink:href="#m5ed10193e2" x="309.029892" y="247.784295" style="fill: #d62728; stroke: #d62728"/>
     <use xlink:href="#m5ed10193e2" x="331.150902" y="234.366147" style="fill: #d62728; stroke: #d62728"/>
     <use xlink:href="#m5ed10193e2" x="375.39292" y="216.488597" style="fill: #d62728; stroke: #d62728"/>
     <use xlink:href="#m5ed10193e2" x="397.513929" y="233.07456" style="fill: #d62728; stroke: #d62728"/>
     <use xlink:href="#m5ed10193e2" x="419.634938" y="229.441509" style="fill: #d62728; stroke: #d62728"/>
     <use xlink:href="#m5ed10193e2" x="463.876957" y="240.488235" style="fill: #d62728; stroke: #d62728"/>
     <use xlink:href="#m5ed10193e2" x="530.239984" y="237.855869" style="fill: #d62728; stroke: #d62728"/>
     <use xlink:href="#m5ed10193e2" x="552.360994" y="243.159237" style="fill: #d62728; stroke: #d62728"/>
     <use xlink:href="#m5ed10193e2" x="574.482003" y="46.813736" style="fill: #d62728; stroke: #d62728"/>
    </g>
   </g>
   <g id="patch_3">
    <path d="M 86.71375 529.308125 
L 86.71375 23.837812 
" style="fill: none; stroke: #000000; stroke-width: 0.8; stroke-linejoin: miter; stroke-linecap: square"/>
   </g>
   <g id="patch_4">
    <path d="M 597.709062 529.308125 
L 597.709062 23.837812 
" style="fill: none; stroke: #000000; stroke-width: 0.8; stroke-linejoin: miter; stroke-linecap: square"/>
   </g>
   <g id="patch_5">
    <path d="M 86.71375 529.308125 
L 597.709063 529.308125 
" style="fill: none; stroke: #000000; stroke-width: 0.8; stroke-linejoin: miter; stroke-linecap: square"/>
   </g>
   <g id="patch_6">
    <path d="M 86.71375 23.837812 
L 597.709063 23.837812 
" style="fill: none; stroke: #000000; stroke-width: 0.8; stroke-linejoin: miter; stroke-linecap: square"/>
   </g>
   <g id="text_13">
    <text style="font: 700 14px 'DejaVu Sans', 'Bitstream Vera Sans', 'Computer Modern Sans Serif', 'Lucida Grande', 'Verdana', 'Geneva', 'Lucid', 'Arial', 'Helvetica', 'Avant Garde', sans-serif; text-anchor: middle" x="342.211406" y="17.837813" transform="rotate(-0 342.211406 17.837813)">Coroutine Suspension - Performance Trend</text>
   </g>
   <g id="legend_1">
    <g id="patch_7">
     <path d="M 630.258828 91.662813 
L 839.669766 91.662813 
Q 841.669766 91.662813 841.669766 89.662813 
L 841.669766 30.837813 
Q 841.669766 28.837813 839.669766 28.837813 
L 630.258828 28.837813 
Q 628.258828 28.837813 628.258828 30.837813 
L 628.258828 89.662813 
Q 628.258828 91.662813 630.258828 91.662813 
z
" style="fill: #ffffff; opacity: 0.8; stroke: #cccccc; stroke-linejoin: miter"/>
    </g>
    <g id="line2d_20">
     <path d="M 632.258828 36.93625 
L 642.258828 36.93625 
L 652.258828 36.93625 
" style="fill: none; stroke: #1f77b4; stroke-width: 2; stroke-linecap: square"/>
     <g>
      <use xlink:href="#m3b4136b79f" x="642.258828" y="36.93625" style="fill: #1f77b4; stroke: #1f77b4"/>
     </g>
    </g>
    <g id="text_14">
     <text style="font: 10px 'DejaVu Sans', 'Bitstream Vera Sans', 'Computer Modern Sans Serif', 'Lucida Grande', 'Verdana', 'Geneva', 'Lucid', 'Arial', 'Helvetica', 'Avant Garde', sans-serif; text-anchor: start" x="660.258828" y="40.43625" transform="rotate(-0 660.258828 40.43625)">gcc-14.2 - SuspensionOverhead_V1</text>
    </g>
    <g id="line2d_21">
     <path d="M 632.258828 51.8925 
L 642.258828 51.8925 
L 652.258828 51.8925 
" style="fill: none; stroke: #ff7f0e; stroke-width: 2; stroke-linecap: square"/>
     <g>
      <use xlink:href="#m246c02f428" x="642.258828" y="51.8925" style="fill: #ff7f0e; stroke: #ff7f0e"/>
     </g>
    </g>
    <g id="text_15">
     <text style="font: 10px 'DejaVu Sans', 'Bitstream Vera Sans', 'Computer Modern Sans Serif', 'Lucida Grande', 'Verdana', 'Geneva', 'Lucid', 'Arial', 'Helvetica', 'Avant Garde', sans-serif; text-anchor: start" x="660.258828" y="55.3925" transform="rotate(-0 660.258828 55.3925)">gcc-14.2 - SuspensionOverhead_V2</text>
    </g>
    <g id="line2d_22">
     <path d="M 632.258828 66.84875 
L 642.258828 66.84875 
L 652.258828 66.84875 
" style="fill: none; stroke: #2ca02c; stroke-width: 2; stroke-linecap: square"/>
     <g>
      <use xlink:href="#me85992664a" x="642.258828" y="66.84875" style="fill: #2ca02c; stroke: #2ca02c"/>
     </g>
    </g>
    <g id="text_16">
     <text style="font: 10px 'DejaVu Sans', 'Bitstream Vera Sans', 'Computer Modern Sans Serif', 'Lucida Grande', 'Verdana', 'Geneva', 'Lucid', 'Arial', 'Helvetica', 'Avant Garde', sans-serif; text-anchor: start" x="660.258828" y="70.34875" transform="rotate(-0 660.258828 70.34875)">gcc-4.2 - SuspensionOverhead_V1</text>
    </g>
    <g id="line2d_23">
     <path d="M 632.258828 81.805 
L 642.258828 81.805 
L 652.258828 81.805 
" style="fill: none; stroke: #d62728; stroke-width: 2; stroke-linecap: square"/>
     <g>
      <use xlink:href="#m5ed10193e2" x="642.258828" y="81.805" style="fill: #d62728; stroke: #d62728"/>
     </g>
    </g>
    <g id="text_17">
     <text style="font: 10px 'DejaVu Sans', 'Bitstream Vera Sans', 'Computer Modern Sans Serif', 'Lucida Grande', 'Verdana', 'Geneva', 'Lucid', 'Arial', 'Helvetica', 'Avant Garde', sans-serif; text-anchor: start" x="660.258828" y="85.305" transform="rotate(-0 660.258828 85.305)">gcc-4.2 - SuspensionOverhead_V2</text>
    </g>
   </g>
  </g>
 </g>
 <defs>
  <clipPath id="p2141c2a732">
   <rect x="86.71375" y="23.837813" width="510.995312" height="505.470313"/>
  </clipPath>
 </defs>
</svg>
