<?xml version="1.0" encoding="utf-8" standalone="no"?>
<!DOCTYPE svg PUBLIC "-//W3C//DTD SVG 1.1//EN"
  "http://www.w3.org/Graphics/SVG/1.1/DTD/svg11.dtd">
<svg xmlns:xlink="http://www.w3.org/1999/xlink" width="848.869766pt" height="568.8pt" viewBox="0 0 848.869766 568.8" xmlns="http://www.w3.org/2000/svg" version="1.1">
 <metadata>
  <rdf:RDF xmlns:dc="http://purl.org/dc/elements/1.1/" xmlns:cc="http://creativecommons.org/ns#" xmlns:rdf="http://www.w3.org/1999/02/22-rdf-syntax-ns#">
   <cc:Work>
    <dc:type rdf:resource="http://purl.org/dc/dcmitype/StillImage"/>
    <dc:date>2025-08-22T16:47:03.158162</dc:date>
    <dc:format>image/svg+xml</dc:format>
    <dc:creator>
     <cc:Agent>
      <dc:title>Matplotlib v3.9.4, https://matplotlib.org/</dc:title>
     </cc:Agent>
    </dc:creator>
   </cc:Work>
  </rdf:RDF>
 </metadata>
 <defs>
  <style type="text/css">*{stroke-linejoin: round; stroke-linecap: butt}</style>
 </defs>
 <g id="figure_1">
  <g id="patch_1">
   <path d="M 0 568.8 
L 848.869766 568.8 
L 848.869766 0 
L 0 0 
z
" style="fill: #ffffff"/>
  </g>
  <g id="axes_1">
   <g id="patch_2">
    <path d="M 86.71375 529.308125 
L 597.709062 529.308125 
L 597.709062 23.837812 
L 86.71375 23.837812 
z
" style="fill: #ffffff"/>
   </g>
   <g id="matplotlib.axis_1">
    <g id="xtick_1">
     <g id="line2d_1">
      <path d="M 109.94081 529.308125 
L 109.94081 23.837812 
" clip-path="url(#pb0a9aac305)" style="fill: none; stroke: #b0b0b0; stroke-opacity: 0.3; stroke-width: 0.8; stroke-linecap: square"/>
     </g>
     <g id="line2d_2">
      <defs>
       <path id="mbc8ead9ce0" d="M 0 0 
L 0 3.5 
" style="stroke: #000000; stroke-width: 0.8"/>
      </defs>
      <g>
       <use xlink:href="#mbc8ead9ce0" x="109.94081" y="529.308125" style="stroke: #000000; stroke-width: 0.8"/>
      </g>
     </g>
     <g id="text_1">
      <text style="font: 10px 'DejaVu Sans', 'Bitstream Vera Sans', 'Computer Modern Sans Serif', 'Lucida Grande', 'Verdana', 'Geneva', 'Lucid', 'Arial', 'Helvetica', 'Avant Garde', sans-serif; text-anchor: middle" x="109.94081" y="543.906563" transform="rotate(-0 109.94081 543.906563)">96</text>
     </g>
    </g>
    <g id="xtick_2">
     <g id="line2d_3">
      <path d="M 202.849048 529.308125 
L 202.849048 23.837812 
" clip-path="url(#pb0a9aac305)" style="fill: none; stroke: #b0b0b0; stroke-opacity: 0.3; stroke-width: 0.8; stroke-linecap: square"/>
     </g>
     <g id="line2d_4">
      <g>
       <use xlink:href="#mbc8ead9ce0" x="202.849048" y="529.308125" style="stroke: #000000; stroke-width: 0.8"/>
      </g>
     </g>
     <g id="text_2">
      <text style="font: 10px 'DejaVu Sans', 'Bitstream Vera Sans', 'Computer Modern Sans Serif', 'Lucida Grande', 'Verdana', 'Geneva', 'Lucid', 'Arial', 'Helvetica', 'Avant Garde', sans-serif; text-anchor: middle" x="202.849048" y="543.906563" transform="rotate(-0 202.849048 543.906563)">97</text>
     </g>
    </g>
    <g id="xtick_3">
     <g id="line2d_5">
      <path d="M 295.757287 529.308125 
L 295.757287 23.837812 
" clip-path="url(#pb0a9aac305)" style="fill: none; stroke: #b0b0b0; stroke-opacity: 0.3; stroke-width: 0.8; stroke-linecap: square"/>
     </g>
     <g id="line2d_6">
      <g>
       <use xlink:href="#mbc8ead9ce0" x="295.757287" y="529.308125" style="stroke: #000000; stroke-width: 0.8"/>
      </g>
     </g>
     <g id="text_3">
      <text style="font: 10px 'DejaVu Sans', 'Bitstream Vera Sans', 'Computer Modern Sans Serif', 'Lucida Grande', 'Verdana', 'Geneva', 'Lucid', 'Arial', 'Helvetica', 'Avant Garde', sans-serif; text-anchor: middle" x="295.757287" y="543.906563" transform="rotate(-0 295.757287 543.906563)">98</text>
     </g>
    </g>
    <g id="xtick_4">
     <g id="line2d_7">
      <path d="M 388.665526 529.308125 
L 388.665526 23.837812 
" clip-path="url(#pb0a9aac305)" style="fill: none; stroke: #b0b0b0; stroke-opacity: 0.3; stroke-width: 0.8; stroke-linecap: square"/>
     </g>
     <g id="line2d_8">
      <g>
       <use xlink:href="#mbc8ead9ce0" x="388.665526" y="529.308125" style="stroke: #000000; stroke-width: 0.8"/>
      </g>
     </g>
     <g id="text_4">
      <text style="font: 10px 'DejaVu Sans', 'Bitstream Vera Sans', 'Computer Modern Sans Serif', 'Lucida Grande', 'Verdana', 'Geneva', 'Lucid', 'Arial', 'Helvetica', 'Avant Garde', sans-serif; text-anchor: middle" x="388.665526" y="543.906563" transform="rotate(-0 388.665526 543.906563)">99</text>
     </g>
    </g>
    <g id="xtick_5">
     <g id="line2d_9">
      <path d="M 481.573764 529.308125 
L 481.573764 23.837812 
" clip-path="url(#pb0a9aac305)" style="fill: none; stroke: #b0b0b0; stroke-opacity: 0.3; stroke-width: 0.8; stroke-linecap: square"/>
     </g>
     <g id="line2d_10">
      <g>
       <use xlink:href="#mbc8ead9ce0" x="481.573764" y="529.308125" style="stroke: #000000; stroke-width: 0.8"/>
      </g>
     </g>
     <g id="text_5">
      <text style="font: 10px 'DejaVu Sans', 'Bitstream Vera Sans', 'Computer Modern Sans Serif', 'Lucida Grande', 'Verdana', 'Geneva', 'Lucid', 'Arial', 'Helvetica', 'Avant Garde', sans-serif; text-anchor: middle" x="481.573764" y="543.906563" transform="rotate(-0 481.573764 543.906563)">100</text>
     </g>
    </g>
    <g id="xtick_6">
     <g id="line2d_11">
      <path d="M 574.482003 529.308125 
L 574.482003 23.837812 
" clip-path="url(#pb0a9aac305)" style="fill: none; stroke: #b0b0b0; stroke-opacity: 0.3; stroke-width: 0.8; stroke-linecap: square"/>
     </g>
     <g id="line2d_12">
      <g>
       <use xlink:href="#mbc8ead9ce0" x="574.482003" y="529.308125" style="stroke: #000000; stroke-width: 0.8"/>
      </g>
     </g>
     <g id="text_6">
      <text style="font: 10px 'DejaVu Sans', 'Bitstream Vera Sans', 'Computer Modern Sans Serif', 'Lucida Grande', 'Verdana', 'Geneva', 'Lucid', 'Arial', 'Helvetica', 'Avant Garde', sans-serif; text-anchor: middle" x="574.482003" y="543.906563" transform="rotate(-0 574.482003 543.906563)">101</text>
     </g>
    </g>
    <g id="text_7">
     <text style="font: 12px 'DejaVu Sans', 'Bitstream Vera Sans', 'Computer Modern Sans Serif', 'Lucida Grande', 'Verdana', 'Geneva', 'Lucid', 'Arial', 'Helvetica', 'Avant Garde', sans-serif; text-anchor: middle" x="342.211406" y="559.104375" transform="rotate(-0 342.211406 559.104375)">Build Number</text>
    </g>
   </g>
   <g id="matplotlib.axis_2">
    <g id="ytick_1">
     <g id="line2d_13">
      <defs>
       <path id="m7cba6594a4" d="M 0 0 
L -2 0 
" style="stroke: #000000; stroke-width: 0.6"/>
      </defs>
      <g>
       <use xlink:href="#m7cba6594a4" x="86.71375" y="509.597099" style="stroke: #000000; stroke-width: 0.6"/>
      </g>
     </g>
     <g id="text_8">
      <!-- $\mathdefault{5.006\times10^{7}}$ -->
      <g transform="translate(22.81375 513.396318)">
       <text>
        <tspan style="font: 10px 'DejaVu Sans'" x="0 6.362305 9.541016 15.90332 22.265625 30.576172 40.90332 47.265625" y="-0.06406250000000036">5.006×10</tspan>
        <tspan style="font: 7px 'DejaVu Sans'" x="53.723633" y="-3.8921875000000004">7</tspan>
       </text>
      </g>
     </g>
    </g>
    <g id="ytick_2">
     <g id="line2d_14">
      <g>
       <use xlink:href="#m7cba6594a4" x="86.71375" y="400.38784" style="stroke: #000000; stroke-width: 0.6"/>
      </g>
     </g>
     <g id="text_9">
      <!-- $\mathdefault{5.008\times10^{7}}$ -->
      <g transform="translate(22.81375 404.187058)">
       <text>
        <tspan style="font: 10px 'DejaVu Sans'" x="0 6.362305 9.541016 15.90332 22.265625 30.576172 40.90332 47.265625" y="-0.06406250000000036">5.008×10</tspan>
        <tspan style="font: 7px 'DejaVu Sans'" x="53.723633" y="-3.8921875000000004">7</tspan>
       </text>
      </g>
     </g>
    </g>
    <g id="ytick_3">
     <g id="line2d_15">
      <g>
       <use xlink:href="#m7cba6594a4" x="86.71375" y="291.222185" style="stroke: #000000; stroke-width: 0.6"/>
      </g>
     </g>
     <g id="text_10">
      <!-- $\mathdefault{5.01\times10^{7}}$ -->
      <g transform="translate(29.21375 295.021404)">
       <text>
        <tspan style="font: 10px 'DejaVu Sans'" x="0 6.362305 9.541016 15.90332 24.213867 34.541016 40.90332" y="-0.06406250000000036">5.01×10</tspan>
        <tspan style="font: 7px 'DejaVu Sans'" x="47.361328" y="-3.8921875000000004">7</tspan>
       </text>
      </g>
     </g>
    </g>
    <g id="ytick_4">
     <g id="line2d_16">
      <g>
       <use xlink:href="#m7cba6594a4" x="86.71375" y="182.100101" style="stroke: #000000; stroke-width: 0.6"/>
      </g>
     </g>
     <g id="text_11">
      <!-- $\mathdefault{5.012\times10^{7}}$ -->
      <g transform="translate(22.81375 185.89932)">
       <text>
        <tspan style="font: 10px 'DejaVu Sans'" x="0 6.362305 9.541016 15.90332 22.265625 30.576172 40.90332 47.265625" y="-0.06406250000000036">5.012×10</tspan>
        <tspan style="font: 7px 'DejaVu Sans'" x="53.723633" y="-3.8921875000000004">7</tspan>
       </text>
      </g>
     </g>
    </g>
    <g id="ytick_5">
     <g id="line2d_17">
      <g>
       <use xlink:href="#m7cba6594a4" x="86.71375" y="73.021553" style="stroke: #000000; stroke-width: 0.6"/>
      </g>
     </g>
     <g id="text_12">
      <!-- $\mathdefault{5.014\times10^{7}}$ -->
      <g transform="translate(22.81375 76.820772)">
       <text>
        <tspan style="font: 10px 'DejaVu Sans'" x="0 6.362305 9.541016 15.90332 22.265625 30.576172 40.90332 47.265625" y="-0.06406250000000036">5.014×10</tspan>
        <tspan style="font: 7px 'DejaVu Sans'" x="53.723633" y="-3.8921875000000004">7</tspan>
       </text>
      </g>
     </g>
    </g>
    <g id="text_13">
     <text style="font: 12px 'DejaVu Sans', 'Bitstream Vera Sans', 'Computer Modern Sans Serif', 'Lucida Grande', 'Verdana', 'Geneva', 'Lucid', 'Arial', 'Helvetica', 'Avant Garde', sans-serif; text-anchor: middle" x="16.318125" y="276.572969" transform="rotate(-90 16.318125 276.572969)">Median Elapsed Time (nanoseconds)</text>
    </g>
   </g>
   <g id="line2d_18">
    <path d="M 109.94081 463.951059 
L 202.849048 463.611954 
L 388.665526 484.683172 
L 481.573764 494.926121 
L 574.482003 488.149873 
" clip-path="url(#pb0a9aac305)" style="fill: none; stroke: #1f77b4; stroke-width: 2; stroke-linecap: square"/>
    <defs>
     <path id="m869ceb2313" d="M 0 3 
C 0.795609 3 1.55874 2.683901 2.12132 2.12132 
C 2.683901 1.55874 3 0.795609 3 0 
C 3 -0.795609 2.683901 -1.55874 2.12132 -2.12132 
C 1.55874 -2.683901 0.795609 -3 0 -3 
C -0.795609 -3 -1.55874 -2.683901 -2.12132 -2.12132 
C -2.683901 -1.55874 -3 -0.795609 -3 0 
C -3 0.795609 -2.683901 1.55874 -2.12132 2.12132 
C -1.55874 2.683901 -0.795609 3 0 3 
z
" style="stroke: #1f77b4"/>
    </defs>
    <g clip-path="url(#pb0a9aac305)">
     <use xlink:href="#m869ceb2313" x="109.94081" y="463.951059" style="fill: #1f77b4; stroke: #1f77b4"/>
     <use xlink:href="#m869ceb2313" x="202.849048" y="463.611954" style="fill: #1f77b4; stroke: #1f77b4"/>
     <use xlink:href="#m869ceb2313" x="388.665526" y="484.683172" style="fill: #1f77b4; stroke: #1f77b4"/>
     <use xlink:href="#m869ceb2313" x="481.573764" y="494.926121" style="fill: #1f77b4; stroke: #1f77b4"/>
     <use xlink:href="#m869ceb2313" x="574.482003" y="488.149873" style="fill: #1f77b4; stroke: #1f77b4"/>
    </g>
   </g>
   <g id="line2d_19">
    <path d="M 109.94081 108.245349 
L 202.849048 93.246883 
L 388.665526 220.086013 
L 481.573764 46.813736 
L 574.482003 231.992952 
" clip-path="url(#pb0a9aac305)" style="fill: none; stroke: #ff7f0e; stroke-width: 2; stroke-linecap: square"/>
    <defs>
     <path id="md19ff35bac" d="M 0 3 
C 0.795609 3 1.55874 2.683901 2.12132 2.12132 
C 2.683901 1.55874 3 0.795609 3 0 
C 3 -0.795609 2.683901 -1.55874 2.12132 -2.12132 
C 1.55874 -2.683901 0.795609 -3 0 -3 
C -0.795609 -3 -1.55874 -2.683901 -2.12132 -2.12132 
C -2.683901 -1.55874 -3 -0.795609 -3 0 
C -3 0.795609 -2.683901 1.55874 -2.12132 2.12132 
C -1.55874 2.683901 -0.795609 3 0 3 
z
" style="stroke: #ff7f0e"/>
    </defs>
    <g clip-path="url(#pb0a9aac305)">
     <use xlink:href="#md19ff35bac" x="109.94081" y="108.245349" style="fill: #ff7f0e; stroke: #ff7f0e"/>
     <use xlink:href="#md19ff35bac" x="202.849048" y="93.246883" style="fill: #ff7f0e; stroke: #ff7f0e"/>
     <use xlink:href="#md19ff35bac" x="388.665526" y="220.086013" style="fill: #ff7f0e; stroke: #ff7f0e"/>
     <use xlink:href="#md19ff35bac" x="481.573764" y="46.813736" style="fill: #ff7f0e; stroke: #ff7f0e"/>
     <use xlink:href="#md19ff35bac" x="574.482003" y="231.992952" style="fill: #ff7f0e; stroke: #ff7f0e"/>
    </g>
   </g>
   <g id="line2d_20">
    <path d="M 109.94081 471.602072 
L 202.849048 486.754559 
L 388.665526 506.332202 
L 481.573764 461.083691 
L 574.482003 505.1132 
" clip-path="url(#pb0a9aac305)" style="fill: none; stroke: #2ca02c; stroke-width: 2; stroke-linecap: square"/>
    <defs>
     <path id="m55996ac819" d="M 0 3 
C 0.795609 3 1.55874 2.683901 2.12132 2.12132 
C 2.683901 1.55874 3 0.795609 3 0 
C 3 -0.795609 2.683901 -1.55874 2.12132 -2.12132 
C 1.55874 -2.683901 0.795609 -3 0 -3 
C -0.795609 -3 -1.55874 -2.683901 -2.12132 -2.12132 
C -2.683901 -1.55874 -3 -0.795609 -3 0 
C -3 0.795609 -2.683901 1.55874 -2.12132 2.12132 
C -1.55874 2.683901 -0.795609 3 0 3 
z
" style="stroke: #2ca02c"/>
    </defs>
    <g clip-path="url(#pb0a9aac305)">
     <use xlink:href="#m55996ac819" x="109.94081" y="471.602072" style="fill: #2ca02c; stroke: #2ca02c"/>
     <use xlink:href="#m55996ac819" x="202.849048" y="486.754559" style="fill: #2ca02c; stroke: #2ca02c"/>
     <use xlink:href="#m55996ac819" x="388.665526" y="506.332202" style="fill: #2ca02c; stroke: #2ca02c"/>
     <use xlink:href="#m55996ac819" x="481.573764" y="461.083691" style="fill: #2ca02c; stroke: #2ca02c"/>
     <use xlink:href="#m55996ac819" x="574.482003" y="505.1132" style="fill: #2ca02c; stroke: #2ca02c"/>
    </g>
   </g>
   <g id="line2d_21">
    <path d="M 109.94081 138.933607 
L 202.849048 236.570038 
L 388.665526 233.201462 
L 481.573764 199.593805 
L 574.482003 227.79513 
" clip-path="url(#pb0a9aac305)" style="fill: none; stroke: #d62728; stroke-width: 2; stroke-linecap: square"/>
    <defs>
     <path id="mc0dceeb39c" d="M 0 3 
C 0.795609 3 1.55874 2.683901 2.12132 2.12132 
C 2.683901 1.55874 3 0.795609 3 0 
C 3 -0.795609 2.683901 -1.55874 2.12132 -2.12132 
C 1.55874 -2.683901 0.795609 -3 0 -3 
C -0.795609 -3 -1.55874 -2.683901 -2.12132 -2.12132 
C -2.683901 -1.55874 -3 -0.795609 -3 0 
C -3 0.795609 -2.683901 1.55874 -2.12132 2.12132 
C -1.55874 2.683901 -0.795609 3 0 3 
z
" style="stroke: #d62728"/>
    </defs>
    <g clip-path="url(#pb0a9aac305)">
     <use xlink:href="#mc0dceeb39c" x="109.94081" y="138.933607" style="fill: #d62728; stroke: #d62728"/>
     <use xlink:href="#mc0dceeb39c" x="202.849048" y="236.570038" style="fill: #d62728; stroke: #d62728"/>
     <use xlink:href="#mc0dceeb39c" x="388.665526" y="233.201462" style="fill: #d62728; stroke: #d62728"/>
     <use xlink:href="#mc0dceeb39c" x="481.573764" y="199.593805" style="fill: #d62728; stroke: #d62728"/>
     <use xlink:href="#mc0dceeb39c" x="574.482003" y="227.79513" style="fill: #d62728; stroke: #d62728"/>
    </g>
   </g>
   <g id="patch_3">
    <path d="M 86.71375 529.308125 
L 86.71375 23.837812 
" style="fill: none; stroke: #000000; stroke-width: 0.8; stroke-linejoin: miter; stroke-linecap: square"/>
   </g>
   <g id="patch_4">
    <path d="M 597.709062 529.308125 
L 597.709062 23.837812 
" style="fill: none; stroke: #000000; stroke-width: 0.8; stroke-linejoin: miter; stroke-linecap: square"/>
   </g>
   <g id="patch_5">
    <path d="M 86.71375 529.308125 
L 597.709063 529.308125 
" style="fill: none; stroke: #000000; stroke-width: 0.8; stroke-linejoin: miter; stroke-linecap: square"/>
   </g>
   <g id="patch_6">
    <path d="M 86.71375 23.837812 
L 597.709063 23.837812 
" style="fill: none; stroke: #000000; stroke-width: 0.8; stroke-linejoin: miter; stroke-linecap: square"/>
   </g>
   <g id="text_14">
    <text style="font: 700 14px 'DejaVu Sans', 'Bitstream Vera Sans', 'Computer Modern Sans Serif', 'Lucida Grande', 'Verdana', 'Geneva', 'Lucid', 'Arial', 'Helvetica', 'Avant Garde', sans-serif; text-anchor: middle" x="342.211406" y="17.837813" transform="rotate(-0 342.211406 17.837813)">Coroutine Suspension - Performance Trend</text>
   </g>
   <g id="legend_1">
    <g id="patch_7">
     <path d="M 630.258828 91.662813 
L 839.669766 91.662813 
Q 841.669766 91.662813 841.669766 89.662813 
L 841.669766 30.837813 
Q 841.669766 28.837813 839.669766 28.837813 
L 630.258828 28.837813 
Q 628.258828 28.837813 628.258828 30.837813 
L 628.258828 89.662813 
Q 628.258828 91.662813 630.258828 91.662813 
z
" style="fill: #ffffff; opacity: 0.8; stroke: #cccccc; stroke-linejoin: miter"/>
    </g>
    <g id="line2d_22">
     <path d="M 632.258828 36.93625 
L 642.258828 36.93625 
L 652.258828 36.93625 
" style="fill: none; stroke: #1f77b4; stroke-width: 2; stroke-linecap: square"/>
     <g>
      <use xlink:href="#m869ceb2313" x="642.258828" y="36.93625" style="fill: #1f77b4; stroke: #1f77b4"/>
     </g>
    </g>
    <g id="text_15">
     <text style="font: 10px 'DejaVu Sans', 'Bitstream Vera Sans', 'Computer Modern Sans Serif', 'Lucida Grande', 'Verdana', 'Geneva', 'Lucid', 'Arial', 'Helvetica', 'Avant Garde', sans-serif; text-anchor: start" x="660.258828" y="40.43625" transform="rotate(-0 660.258828 40.43625)">gcc-14.2 - SuspensionOverhead_V1</text>
    </g>
    <g id="line2d_23">
     <path d="M 632.258828 51.8925 
L 642.258828 51.8925 
L 652.258828 51.8925 
" style="fill: none; stroke: #ff7f0e; stroke-width: 2; stroke-linecap: square"/>
     <g>
      <use xlink:href="#md19ff35bac" x="642.258828" y="51.8925" style="fill: #ff7f0e; stroke: #ff7f0e"/>
     </g>
    </g>
    <g id="text_16">
     <text style="font: 10px 'DejaVu Sans', 'Bitstream Vera Sans', 'Computer Modern Sans Serif', 'Lucida Grande', 'Verdana', 'Geneva', 'Lucid', 'Arial', 'Helvetica', 'Avant Garde', sans-serif; text-anchor: start" x="660.258828" y="55.3925" transform="rotate(-0 660.258828 55.3925)">gcc-14.2 - SuspensionOverhead_V2</text>
    </g>
    <g id="line2d_24">
     <path d="M 632.258828 66.84875 
L 642.258828 66.84875 
L 652.258828 66.84875 
" style="fill: none; stroke: #2ca02c; stroke-width: 2; stroke-linecap: square"/>
     <g>
      <use xlink:href="#m55996ac819" x="642.258828" y="66.84875" style="fill: #2ca02c; stroke: #2ca02c"/>
     </g>
    </g>
    <g id="text_17">
     <text style="font: 10px 'DejaVu Sans', 'Bitstream Vera Sans', 'Computer Modern Sans Serif', 'Lucida Grande', 'Verdana', 'Geneva', 'Lucid', 'Arial', 'Helvetica', 'Avant Garde', sans-serif; text-anchor: start" x="660.258828" y="70.34875" transform="rotate(-0 660.258828 70.34875)">gcc-4.2 - SuspensionOverhead_V1</text>
    </g>
    <g id="line2d_25">
     <path d="M 632.258828 81.805 
L 642.258828 81.805 
L 652.258828 81.805 
" style="fill: none; stroke: #d62728; stroke-width: 2; stroke-linecap: square"/>
     <g>
      <use xlink:href="#mc0dceeb39c" x="642.258828" y="81.805" style="fill: #d62728; stroke: #d62728"/>
     </g>
    </g>
    <g id="text_18">
     <text style="font: 10px 'DejaVu Sans', 'Bitstream Vera Sans', 'Computer Modern Sans Serif', 'Lucida Grande', 'Verdana', 'Geneva', 'Lucid', 'Arial', 'Helvetica', 'Avant Garde', sans-serif; text-anchor: start" x="660.258828" y="85.305" transform="rotate(-0 660.258828 85.305)">gcc-4.2 - SuspensionOverhead_V2</text>
    </g>
   </g>
  </g>
 </g>
 <defs>
  <clipPath id="pb0a9aac305">
   <rect x="86.71375" y="23.837813" width="510.995312" height="505.470313"/>
  </clipPath>
 </defs>
</svg>
