<?xml version="1.0" encoding="utf-8" standalone="no"?>
<!DOCTYPE svg PUBLIC "-//W3C//DTD SVG 1.1//EN"
  "http://www.w3.org/Graphics/SVG/1.1/DTD/svg11.dtd">
<svg xmlns:xlink="http://www.w3.org/1999/xlink" width="855.536016pt" height="568.8pt" viewBox="0 0 855.536016 568.8" xmlns="http://www.w3.org/2000/svg" version="1.1">
 <metadata>
  <rdf:RDF xmlns:dc="http://purl.org/dc/elements/1.1/" xmlns:cc="http://creativecommons.org/ns#" xmlns:rdf="http://www.w3.org/1999/02/22-rdf-syntax-ns#">
   <cc:Work>
    <dc:type rdf:resource="http://purl.org/dc/dcmitype/StillImage"/>
    <dc:date>2025-10-05T09:13:38.479840</dc:date>
    <dc:format>image/svg+xml</dc:format>
    <dc:creator>
     <cc:Agent>
      <dc:title>Matplotlib v3.9.4, https://matplotlib.org/</dc:title>
     </cc:Agent>
    </dc:creator>
   </cc:Work>
  </rdf:RDF>
 </metadata>
 <defs>
  <style type="text/css">*{stroke-linejoin: round; stroke-linecap: butt}</style>
 </defs>
 <g id="figure_1">
  <g id="patch_1">
   <path d="M 0 568.8 
L 855.536016 568.8 
L 855.536016 0 
L 0 0 
z
" style="fill: #ffffff"/>
  </g>
  <g id="axes_1">
   <g id="patch_2">
    <path d="M 64.41375 529.308125 
L 708.734063 529.308125 
L 708.734063 23.837812 
L 64.41375 23.837812 
z
" style="fill: #ffffff"/>
   </g>
   <g id="matplotlib.axis_1">
    <g id="xtick_1">
     <g id="line2d_1">
      <path d="M 81.498001 529.308125 
L 81.498001 23.837812 
" clip-path="url(#pdfe09e9976)" style="fill: none; stroke: #b0b0b0; stroke-opacity: 0.3; stroke-width: 0.8; stroke-linecap: square"/>
     </g>
     <g id="line2d_2">
      <defs>
       <path id="me2218f80ef" d="M 0 0 
L 0 3.5 
" style="stroke: #000000; stroke-width: 0.8"/>
      </defs>
      <g>
       <use xlink:href="#me2218f80ef" x="81.498001" y="529.308125" style="stroke: #000000; stroke-width: 0.8"/>
      </g>
     </g>
     <g id="text_1">
      <text style="font: 10px 'DejaVu Sans', 'Bitstream Vera Sans', 'Computer Modern Sans Serif', 'Lucida Grande', 'Verdana', 'Geneva', 'Lucid', 'Arial', 'Helvetica', 'Avant Garde', sans-serif; text-anchor: middle" x="81.498001" y="543.906563" transform="rotate(-0 81.498001 543.906563)">70</text>
     </g>
    </g>
    <g id="xtick_2">
     <g id="line2d_3">
      <path d="M 203.528363 529.308125 
L 203.528363 23.837812 
" clip-path="url(#pdfe09e9976)" style="fill: none; stroke: #b0b0b0; stroke-opacity: 0.3; stroke-width: 0.8; stroke-linecap: square"/>
     </g>
     <g id="line2d_4">
      <g>
       <use xlink:href="#me2218f80ef" x="203.528363" y="529.308125" style="stroke: #000000; stroke-width: 0.8"/>
      </g>
     </g>
     <g id="text_2">
      <text style="font: 10px 'DejaVu Sans', 'Bitstream Vera Sans', 'Computer Modern Sans Serif', 'Lucida Grande', 'Verdana', 'Geneva', 'Lucid', 'Arial', 'Helvetica', 'Avant Garde', sans-serif; text-anchor: middle" x="203.528363" y="543.906563" transform="rotate(-0 203.528363 543.906563)">80</text>
     </g>
    </g>
    <g id="xtick_3">
     <g id="line2d_5">
      <path d="M 325.558725 529.308125 
L 325.558725 23.837812 
" clip-path="url(#pdfe09e9976)" style="fill: none; stroke: #b0b0b0; stroke-opacity: 0.3; stroke-width: 0.8; stroke-linecap: square"/>
     </g>
     <g id="line2d_6">
      <g>
       <use xlink:href="#me2218f80ef" x="325.558725" y="529.308125" style="stroke: #000000; stroke-width: 0.8"/>
      </g>
     </g>
     <g id="text_3">
      <text style="font: 10px 'DejaVu Sans', 'Bitstream Vera Sans', 'Computer Modern Sans Serif', 'Lucida Grande', 'Verdana', 'Geneva', 'Lucid', 'Arial', 'Helvetica', 'Avant Garde', sans-serif; text-anchor: middle" x="325.558725" y="543.906563" transform="rotate(-0 325.558725 543.906563)">90</text>
     </g>
    </g>
    <g id="xtick_4">
     <g id="line2d_7">
      <path d="M 447.589087 529.308125 
L 447.589087 23.837812 
" clip-path="url(#pdfe09e9976)" style="fill: none; stroke: #b0b0b0; stroke-opacity: 0.3; stroke-width: 0.8; stroke-linecap: square"/>
     </g>
     <g id="line2d_8">
      <g>
       <use xlink:href="#me2218f80ef" x="447.589087" y="529.308125" style="stroke: #000000; stroke-width: 0.8"/>
      </g>
     </g>
     <g id="text_4">
      <text style="font: 10px 'DejaVu Sans', 'Bitstream Vera Sans', 'Computer Modern Sans Serif', 'Lucida Grande', 'Verdana', 'Geneva', 'Lucid', 'Arial', 'Helvetica', 'Avant Garde', sans-serif; text-anchor: middle" x="447.589087" y="543.906563" transform="rotate(-0 447.589087 543.906563)">100</text>
     </g>
    </g>
    <g id="xtick_5">
     <g id="line2d_9">
      <path d="M 569.61945 529.308125 
L 569.61945 23.837812 
" clip-path="url(#pdfe09e9976)" style="fill: none; stroke: #b0b0b0; stroke-opacity: 0.3; stroke-width: 0.8; stroke-linecap: square"/>
     </g>
     <g id="line2d_10">
      <g>
       <use xlink:href="#me2218f80ef" x="569.61945" y="529.308125" style="stroke: #000000; stroke-width: 0.8"/>
      </g>
     </g>
     <g id="text_5">
      <text style="font: 10px 'DejaVu Sans', 'Bitstream Vera Sans', 'Computer Modern Sans Serif', 'Lucida Grande', 'Verdana', 'Geneva', 'Lucid', 'Arial', 'Helvetica', 'Avant Garde', sans-serif; text-anchor: middle" x="569.61945" y="543.906563" transform="rotate(-0 569.61945 543.906563)">110</text>
     </g>
    </g>
    <g id="xtick_6">
     <g id="line2d_11">
      <path d="M 691.649812 529.308125 
L 691.649812 23.837812 
" clip-path="url(#pdfe09e9976)" style="fill: none; stroke: #b0b0b0; stroke-opacity: 0.3; stroke-width: 0.8; stroke-linecap: square"/>
     </g>
     <g id="line2d_12">
      <g>
       <use xlink:href="#me2218f80ef" x="691.649812" y="529.308125" style="stroke: #000000; stroke-width: 0.8"/>
      </g>
     </g>
     <g id="text_6">
      <text style="font: 10px 'DejaVu Sans', 'Bitstream Vera Sans', 'Computer Modern Sans Serif', 'Lucida Grande', 'Verdana', 'Geneva', 'Lucid', 'Arial', 'Helvetica', 'Avant Garde', sans-serif; text-anchor: middle" x="691.649812" y="543.906563" transform="rotate(-0 691.649812 543.906563)">120</text>
     </g>
    </g>
    <g id="text_7">
     <text style="font: 12px 'DejaVu Sans', 'Bitstream Vera Sans', 'Computer Modern Sans Serif', 'Lucida Grande', 'Verdana', 'Geneva', 'Lucid', 'Arial', 'Helvetica', 'Avant Garde', sans-serif; text-anchor: middle" x="386.573906" y="559.104375" transform="rotate(-0 386.573906 559.104375)">Build Number</text>
    </g>
   </g>
   <g id="matplotlib.axis_2">
    <g id="ytick_1">
     <g id="line2d_13">
      <path d="M 64.41375 334.291639 
L 708.734063 334.291639 
" clip-path="url(#pdfe09e9976)" style="fill: none; stroke: #b0b0b0; stroke-opacity: 0.3; stroke-width: 0.8; stroke-linecap: square"/>
     </g>
     <g id="line2d_14">
      <defs>
       <path id="me90005c1d0" d="M 0 0 
L -3.5 0 
" style="stroke: #000000; stroke-width: 0.8"/>
      </defs>
      <g>
       <use xlink:href="#me90005c1d0" x="64.41375" y="334.291639" style="stroke: #000000; stroke-width: 0.8"/>
      </g>
     </g>
     <g id="text_8">
      <!-- $\mathdefault{10^{5}}$ -->
      <g transform="translate(39.81375 338.090858)">
       <text>
        <tspan style="font: 10px 'DejaVu Sans'" x="0 6.362305" y="-0.06406250000000036">10</tspan>
        <tspan style="font: 7px 'DejaVu Sans'" x="12.820312" y="-3.8921875000000004">5</tspan>
       </text>
      </g>
     </g>
    </g>
    <g id="ytick_2">
     <g id="line2d_15">
      <defs>
       <path id="m831bd8217a" d="M 0 0 
L -2 0 
" style="stroke: #000000; stroke-width: 0.6"/>
      </defs>
      <g>
       <use xlink:href="#m831bd8217a" x="64.41375" y="505.7097" style="stroke: #000000; stroke-width: 0.6"/>
      </g>
     </g>
     <g id="text_9">
      <!-- $\mathdefault{6\times10^{4}}$ -->
      <g transform="translate(22.81375 509.508919)">
       <text>
        <tspan style="font: 10px 'DejaVu Sans'" x="0 8.310547 18.637695 25" y="-0.06406250000000036">6×10</tspan>
        <tspan style="font: 7px 'DejaVu Sans'" x="31.458008" y="-3.8921875000000004">4</tspan>
       </text>
      </g>
     </g>
    </g>
    <g id="ytick_3">
     <g id="line2d_16">
      <g>
       <use xlink:href="#m831bd8217a" x="64.41375" y="453.981264" style="stroke: #000000; stroke-width: 0.6"/>
      </g>
     </g>
    </g>
    <g id="ytick_4">
     <g id="line2d_17">
      <g>
       <use xlink:href="#m831bd8217a" x="64.41375" y="409.172055" style="stroke: #000000; stroke-width: 0.6"/>
      </g>
     </g>
    </g>
    <g id="ytick_5">
     <g id="line2d_18">
      <g>
       <use xlink:href="#m831bd8217a" x="64.41375" y="369.647531" style="stroke: #000000; stroke-width: 0.6"/>
      </g>
     </g>
    </g>
    <g id="ytick_6">
     <g id="line2d_19">
      <g>
       <use xlink:href="#m831bd8217a" x="64.41375" y="101.691823" style="stroke: #000000; stroke-width: 0.6"/>
      </g>
     </g>
     <g id="text_10">
      <!-- $\mathdefault{2\times10^{5}}$ -->
      <g transform="translate(22.81375 105.491042)">
       <text>
        <tspan style="font: 10px 'DejaVu Sans'" x="0 8.310547 18.637695 25" y="-0.06406250000000036">2×10</tspan>
        <tspan style="font: 7px 'DejaVu Sans'" x="31.458008" y="-3.8921875000000004">5</tspan>
       </text>
      </g>
     </g>
    </g>
    <g id="text_11">
     <text style="font: 12px 'DejaVu Sans', 'Bitstream Vera Sans', 'Computer Modern Sans Serif', 'Lucida Grande', 'Verdana', 'Geneva', 'Lucid', 'Arial', 'Helvetica', 'Avant Garde', sans-serif; text-anchor: middle" x="16.318125" y="276.572969" transform="rotate(-90 16.318125 276.572969)">Median Elapsed Time (nanoseconds)</text>
    </g>
   </g>
   <g id="line2d_20">
    <path d="M 93.701037 46.813736 
L 105.904073 191.993804 
L 118.107109 203.583288 
L 130.310146 226.939206 
L 142.513182 249.293351 
L 154.716218 197.56458 
L 166.919254 217.514077 
L 179.12229 216.449271 
L 191.325327 213.414453 
L 203.528363 197.627325 
L 215.731399 255.061283 
L 227.934435 181.822836 
L 240.137472 48.546392 
L 252.340508 155.181473 
L 264.543544 255.056248 
L 276.74658 280.19621 
L 301.152653 250.483261 
L 313.355689 243.683337 
L 325.558725 243.288052 
L 337.761761 283.580852 
L 349.964798 283.575659 
L 362.167834 244.097042 
L 374.37087 245.4831 
L 386.573906 283.596143 
L 398.776942 244.026517 
L 410.979979 252.14706 
L 435.386051 107.746626 
L 447.589087 249.935013 
L 459.792124 47.122473 
L 471.99516 283.266816 
L 484.198196 237.087039 
L 496.401232 284.46166 
L 508.604268 243.282935 
L 520.807305 241.955645 
L 545.213377 283.561234 
L 557.416413 282.732565 
L 569.61945 243.462084 
L 581.822486 282.945875 
L 594.025522 244.993097 
L 618.431594 279.539663 
L 630.634631 243.134058 
L 642.837667 282.378211 
L 655.040703 266.883058 
L 667.243739 242.227643 
L 679.446776 283.083261 
" clip-path="url(#pdfe09e9976)" style="fill: none; stroke: #1f77b4; stroke-width: 2; stroke-linecap: square"/>
    <defs>
     <path id="mba9c595c91" d="M 0 3 
C 0.795609 3 1.55874 2.683901 2.12132 2.12132 
C 2.683901 1.55874 3 0.795609 3 0 
C 3 -0.795609 2.683901 -1.55874 2.12132 -2.12132 
C 1.55874 -2.683901 0.795609 -3 0 -3 
C -0.795609 -3 -1.55874 -2.683901 -2.12132 -2.12132 
C -2.683901 -1.55874 -3 -0.795609 -3 0 
C -3 0.795609 -2.683901 1.55874 -2.12132 2.12132 
C -1.55874 2.683901 -0.795609 3 0 3 
z
" style="stroke: #1f77b4"/>
    </defs>
    <g clip-path="url(#pdfe09e9976)">
     <use xlink:href="#mba9c595c91" x="93.701037" y="46.813736" style="fill: #1f77b4; stroke: #1f77b4"/>
     <use xlink:href="#mba9c595c91" x="105.904073" y="191.993804" style="fill: #1f77b4; stroke: #1f77b4"/>
     <use xlink:href="#mba9c595c91" x="118.107109" y="203.583288" style="fill: #1f77b4; stroke: #1f77b4"/>
     <use xlink:href="#mba9c595c91" x="130.310146" y="226.939206" style="fill: #1f77b4; stroke: #1f77b4"/>
     <use xlink:href="#mba9c595c91" x="142.513182" y="249.293351" style="fill: #1f77b4; stroke: #1f77b4"/>
     <use xlink:href="#mba9c595c91" x="154.716218" y="197.56458" style="fill: #1f77b4; stroke: #1f77b4"/>
     <use xlink:href="#mba9c595c91" x="166.919254" y="217.514077" style="fill: #1f77b4; stroke: #1f77b4"/>
     <use xlink:href="#mba9c595c91" x="179.12229" y="216.449271" style="fill: #1f77b4; stroke: #1f77b4"/>
     <use xlink:href="#mba9c595c91" x="191.325327" y="213.414453" style="fill: #1f77b4; stroke: #1f77b4"/>
     <use xlink:href="#mba9c595c91" x="203.528363" y="197.627325" style="fill: #1f77b4; stroke: #1f77b4"/>
     <use xlink:href="#mba9c595c91" x="215.731399" y="255.061283" style="fill: #1f77b4; stroke: #1f77b4"/>
     <use xlink:href="#mba9c595c91" x="227.934435" y="181.822836" style="fill: #1f77b4; stroke: #1f77b4"/>
     <use xlink:href="#mba9c595c91" x="240.137472" y="48.546392" style="fill: #1f77b4; stroke: #1f77b4"/>
     <use xlink:href="#mba9c595c91" x="252.340508" y="155.181473" style="fill: #1f77b4; stroke: #1f77b4"/>
     <use xlink:href="#mba9c595c91" x="264.543544" y="255.056248" style="fill: #1f77b4; stroke: #1f77b4"/>
     <use xlink:href="#mba9c595c91" x="276.74658" y="280.19621" style="fill: #1f77b4; stroke: #1f77b4"/>
     <use xlink:href="#mba9c595c91" x="301.152653" y="250.483261" style="fill: #1f77b4; stroke: #1f77b4"/>
     <use xlink:href="#mba9c595c91" x="313.355689" y="243.683337" style="fill: #1f77b4; stroke: #1f77b4"/>
     <use xlink:href="#mba9c595c91" x="325.558725" y="243.288052" style="fill: #1f77b4; stroke: #1f77b4"/>
     <use xlink:href="#mba9c595c91" x="337.761761" y="283.580852" style="fill: #1f77b4; stroke: #1f77b4"/>
     <use xlink:href="#mba9c595c91" x="349.964798" y="283.575659" style="fill: #1f77b4; stroke: #1f77b4"/>
     <use xlink:href="#mba9c595c91" x="362.167834" y="244.097042" style="fill: #1f77b4; stroke: #1f77b4"/>
     <use xlink:href="#mba9c595c91" x="374.37087" y="245.4831" style="fill: #1f77b4; stroke: #1f77b4"/>
     <use xlink:href="#mba9c595c91" x="386.573906" y="283.596143" style="fill: #1f77b4; stroke: #1f77b4"/>
     <use xlink:href="#mba9c595c91" x="398.776942" y="244.026517" style="fill: #1f77b4; stroke: #1f77b4"/>
     <use xlink:href="#mba9c595c91" x="410.979979" y="252.14706" style="fill: #1f77b4; stroke: #1f77b4"/>
     <use xlink:href="#mba9c595c91" x="435.386051" y="107.746626" style="fill: #1f77b4; stroke: #1f77b4"/>
     <use xlink:href="#mba9c595c91" x="447.589087" y="249.935013" style="fill: #1f77b4; stroke: #1f77b4"/>
     <use xlink:href="#mba9c595c91" x="459.792124" y="47.122473" style="fill: #1f77b4; stroke: #1f77b4"/>
     <use xlink:href="#mba9c595c91" x="471.99516" y="283.266816" style="fill: #1f77b4; stroke: #1f77b4"/>
     <use xlink:href="#mba9c595c91" x="484.198196" y="237.087039" style="fill: #1f77b4; stroke: #1f77b4"/>
     <use xlink:href="#mba9c595c91" x="496.401232" y="284.46166" style="fill: #1f77b4; stroke: #1f77b4"/>
     <use xlink:href="#mba9c595c91" x="508.604268" y="243.282935" style="fill: #1f77b4; stroke: #1f77b4"/>
     <use xlink:href="#mba9c595c91" x="520.807305" y="241.955645" style="fill: #1f77b4; stroke: #1f77b4"/>
     <use xlink:href="#mba9c595c91" x="545.213377" y="283.561234" style="fill: #1f77b4; stroke: #1f77b4"/>
     <use xlink:href="#mba9c595c91" x="557.416413" y="282.732565" style="fill: #1f77b4; stroke: #1f77b4"/>
     <use xlink:href="#mba9c595c91" x="569.61945" y="243.462084" style="fill: #1f77b4; stroke: #1f77b4"/>
     <use xlink:href="#mba9c595c91" x="581.822486" y="282.945875" style="fill: #1f77b4; stroke: #1f77b4"/>
     <use xlink:href="#mba9c595c91" x="594.025522" y="244.993097" style="fill: #1f77b4; stroke: #1f77b4"/>
     <use xlink:href="#mba9c595c91" x="618.431594" y="279.539663" style="fill: #1f77b4; stroke: #1f77b4"/>
     <use xlink:href="#mba9c595c91" x="630.634631" y="243.134058" style="fill: #1f77b4; stroke: #1f77b4"/>
     <use xlink:href="#mba9c595c91" x="642.837667" y="282.378211" style="fill: #1f77b4; stroke: #1f77b4"/>
     <use xlink:href="#mba9c595c91" x="655.040703" y="266.883058" style="fill: #1f77b4; stroke: #1f77b4"/>
     <use xlink:href="#mba9c595c91" x="667.243739" y="242.227643" style="fill: #1f77b4; stroke: #1f77b4"/>
     <use xlink:href="#mba9c595c91" x="679.446776" y="283.083261" style="fill: #1f77b4; stroke: #1f77b4"/>
    </g>
   </g>
   <g id="line2d_21">
    <path d="M 93.701037 240.963675 
L 105.904073 243.863598 
L 118.107109 244.090117 
L 130.310146 246.102545 
L 142.513182 239.261485 
L 154.716218 244.568784 
L 166.919254 239.50832 
L 179.12229 247.747045 
L 191.325327 241.093226 
L 203.528363 247.539422 
L 215.731399 242.14731 
L 227.934435 245.28202 
L 240.137472 248.914302 
L 252.340508 244.728064 
L 264.543544 249.45098 
L 276.74658 239.165431 
L 301.152653 244.109353 
L 313.355689 241.526717 
L 325.558725 244.443983 
L 337.761761 247.414482 
L 349.964798 239.866502 
L 362.167834 237.098844 
L 374.37087 237.606123 
L 386.573906 235.646113 
L 398.776942 280.614175 
L 410.979979 247.512733 
L 435.386051 279.756862 
L 447.589087 281.661443 
L 459.792124 280.709844 
L 471.99516 280.122753 
L 484.198196 279.068518 
L 496.401232 280.640628 
L 508.604268 279.542799 
L 520.807305 279.805152 
L 545.213377 278.523852 
L 557.416413 281.342606 
L 569.61945 277.611705 
L 581.822486 277.650819 
L 594.025522 277.88645 
L 618.431594 277.597534 
L 630.634631 275.094208 
L 642.837667 279.209807 
L 655.040703 278.976304 
L 667.243739 280.133953 
L 679.446776 278.249436 
" clip-path="url(#pdfe09e9976)" style="fill: none; stroke: #ff7f0e; stroke-width: 2; stroke-linecap: square"/>
    <defs>
     <path id="mddeb5c542f" d="M 0 3 
C 0.795609 3 1.55874 2.683901 2.12132 2.12132 
C 2.683901 1.55874 3 0.795609 3 0 
C 3 -0.795609 2.683901 -1.55874 2.12132 -2.12132 
C 1.55874 -2.683901 0.795609 -3 0 -3 
C -0.795609 -3 -1.55874 -2.683901 -2.12132 -2.12132 
C -2.683901 -1.55874 -3 -0.795609 -3 0 
C -3 0.795609 -2.683901 1.55874 -2.12132 2.12132 
C -1.55874 2.683901 -0.795609 3 0 3 
z
" style="stroke: #ff7f0e"/>
    </defs>
    <g clip-path="url(#pdfe09e9976)">
     <use xlink:href="#mddeb5c542f" x="93.701037" y="240.963675" style="fill: #ff7f0e; stroke: #ff7f0e"/>
     <use xlink:href="#mddeb5c542f" x="105.904073" y="243.863598" style="fill: #ff7f0e; stroke: #ff7f0e"/>
     <use xlink:href="#mddeb5c542f" x="118.107109" y="244.090117" style="fill: #ff7f0e; stroke: #ff7f0e"/>
     <use xlink:href="#mddeb5c542f" x="130.310146" y="246.102545" style="fill: #ff7f0e; stroke: #ff7f0e"/>
     <use xlink:href="#mddeb5c542f" x="142.513182" y="239.261485" style="fill: #ff7f0e; stroke: #ff7f0e"/>
     <use xlink:href="#mddeb5c542f" x="154.716218" y="244.568784" style="fill: #ff7f0e; stroke: #ff7f0e"/>
     <use xlink:href="#mddeb5c542f" x="166.919254" y="239.50832" style="fill: #ff7f0e; stroke: #ff7f0e"/>
     <use xlink:href="#mddeb5c542f" x="179.12229" y="247.747045" style="fill: #ff7f0e; stroke: #ff7f0e"/>
     <use xlink:href="#mddeb5c542f" x="191.325327" y="241.093226" style="fill: #ff7f0e; stroke: #ff7f0e"/>
     <use xlink:href="#mddeb5c542f" x="203.528363" y="247.539422" style="fill: #ff7f0e; stroke: #ff7f0e"/>
     <use xlink:href="#mddeb5c542f" x="215.731399" y="242.14731" style="fill: #ff7f0e; stroke: #ff7f0e"/>
     <use xlink:href="#mddeb5c542f" x="227.934435" y="245.28202" style="fill: #ff7f0e; stroke: #ff7f0e"/>
     <use xlink:href="#mddeb5c542f" x="240.137472" y="248.914302" style="fill: #ff7f0e; stroke: #ff7f0e"/>
     <use xlink:href="#mddeb5c542f" x="252.340508" y="244.728064" style="fill: #ff7f0e; stroke: #ff7f0e"/>
     <use xlink:href="#mddeb5c542f" x="264.543544" y="249.45098" style="fill: #ff7f0e; stroke: #ff7f0e"/>
     <use xlink:href="#mddeb5c542f" x="276.74658" y="239.165431" style="fill: #ff7f0e; stroke: #ff7f0e"/>
     <use xlink:href="#mddeb5c542f" x="301.152653" y="244.109353" style="fill: #ff7f0e; stroke: #ff7f0e"/>
     <use xlink:href="#mddeb5c542f" x="313.355689" y="241.526717" style="fill: #ff7f0e; stroke: #ff7f0e"/>
     <use xlink:href="#mddeb5c542f" x="325.558725" y="244.443983" style="fill: #ff7f0e; stroke: #ff7f0e"/>
     <use xlink:href="#mddeb5c542f" x="337.761761" y="247.414482" style="fill: #ff7f0e; stroke: #ff7f0e"/>
     <use xlink:href="#mddeb5c542f" x="349.964798" y="239.866502" style="fill: #ff7f0e; stroke: #ff7f0e"/>
     <use xlink:href="#mddeb5c542f" x="362.167834" y="237.098844" style="fill: #ff7f0e; stroke: #ff7f0e"/>
     <use xlink:href="#mddeb5c542f" x="374.37087" y="237.606123" style="fill: #ff7f0e; stroke: #ff7f0e"/>
     <use xlink:href="#mddeb5c542f" x="386.573906" y="235.646113" style="fill: #ff7f0e; stroke: #ff7f0e"/>
     <use xlink:href="#mddeb5c542f" x="398.776942" y="280.614175" style="fill: #ff7f0e; stroke: #ff7f0e"/>
     <use xlink:href="#mddeb5c542f" x="410.979979" y="247.512733" style="fill: #ff7f0e; stroke: #ff7f0e"/>
     <use xlink:href="#mddeb5c542f" x="435.386051" y="279.756862" style="fill: #ff7f0e; stroke: #ff7f0e"/>
     <use xlink:href="#mddeb5c542f" x="447.589087" y="281.661443" style="fill: #ff7f0e; stroke: #ff7f0e"/>
     <use xlink:href="#mddeb5c542f" x="459.792124" y="280.709844" style="fill: #ff7f0e; stroke: #ff7f0e"/>
     <use xlink:href="#mddeb5c542f" x="471.99516" y="280.122753" style="fill: #ff7f0e; stroke: #ff7f0e"/>
     <use xlink:href="#mddeb5c542f" x="484.198196" y="279.068518" style="fill: #ff7f0e; stroke: #ff7f0e"/>
     <use xlink:href="#mddeb5c542f" x="496.401232" y="280.640628" style="fill: #ff7f0e; stroke: #ff7f0e"/>
     <use xlink:href="#mddeb5c542f" x="508.604268" y="279.542799" style="fill: #ff7f0e; stroke: #ff7f0e"/>
     <use xlink:href="#mddeb5c542f" x="520.807305" y="279.805152" style="fill: #ff7f0e; stroke: #ff7f0e"/>
     <use xlink:href="#mddeb5c542f" x="545.213377" y="278.523852" style="fill: #ff7f0e; stroke: #ff7f0e"/>
     <use xlink:href="#mddeb5c542f" x="557.416413" y="281.342606" style="fill: #ff7f0e; stroke: #ff7f0e"/>
     <use xlink:href="#mddeb5c542f" x="569.61945" y="277.611705" style="fill: #ff7f0e; stroke: #ff7f0e"/>
     <use xlink:href="#mddeb5c542f" x="581.822486" y="277.650819" style="fill: #ff7f0e; stroke: #ff7f0e"/>
     <use xlink:href="#mddeb5c542f" x="594.025522" y="277.88645" style="fill: #ff7f0e; stroke: #ff7f0e"/>
     <use xlink:href="#mddeb5c542f" x="618.431594" y="277.597534" style="fill: #ff7f0e; stroke: #ff7f0e"/>
     <use xlink:href="#mddeb5c542f" x="630.634631" y="275.094208" style="fill: #ff7f0e; stroke: #ff7f0e"/>
     <use xlink:href="#mddeb5c542f" x="642.837667" y="279.209807" style="fill: #ff7f0e; stroke: #ff7f0e"/>
     <use xlink:href="#mddeb5c542f" x="655.040703" y="278.976304" style="fill: #ff7f0e; stroke: #ff7f0e"/>
     <use xlink:href="#mddeb5c542f" x="667.243739" y="280.133953" style="fill: #ff7f0e; stroke: #ff7f0e"/>
     <use xlink:href="#mddeb5c542f" x="679.446776" y="278.249436" style="fill: #ff7f0e; stroke: #ff7f0e"/>
    </g>
   </g>
   <g id="line2d_22">
    <path d="M 93.701037 414.551779 
L 105.904073 497.463966 
L 118.107109 414.97317 
L 130.310146 486.590358 
L 142.513182 488.58483 
L 154.716218 494.968464 
L 166.919254 431.17622 
L 179.12229 259.841298 
L 191.325327 504.165161 
L 203.528363 502.411088 
L 215.731399 448.322626 
L 227.934435 415.961606 
L 240.137472 472.805361 
L 264.543544 490.422322 
L 276.74658 432.542825 
L 301.152653 506.332202 
L 313.355689 259.267362 
L 325.558725 486.236577 
L 337.761761 481.772945 
L 349.964798 501.586919 
L 374.37087 503.321129 
L 386.573906 460.778799 
L 398.776942 459.561443 
L 410.979979 479.86882 
L 435.386051 480.855226 
L 447.589087 500.319467 
L 459.792124 505.890118 
L 471.99516 501.949525 
L 484.198196 487.90366 
L 496.401232 260.377715 
L 508.604268 480.387571 
L 520.807305 503.662823 
L 545.213377 478.550422 
L 557.416413 502.536827 
L 569.61945 478.931817 
L 594.025522 479.468257 
L 630.634631 480.315489 
L 642.837667 264.460841 
L 655.040703 266.315517 
L 667.243739 479.595516 
L 679.446776 480.747697 
" clip-path="url(#pdfe09e9976)" style="fill: none; stroke: #2ca02c; stroke-width: 2; stroke-linecap: square"/>
    <defs>
     <path id="m54bbbdfe11" d="M 0 3 
C 0.795609 3 1.55874 2.683901 2.12132 2.12132 
C 2.683901 1.55874 3 0.795609 3 0 
C 3 -0.795609 2.683901 -1.55874 2.12132 -2.12132 
C 1.55874 -2.683901 0.795609 -3 0 -3 
C -0.795609 -3 -1.55874 -2.683901 -2.12132 -2.12132 
C -2.683901 -1.55874 -3 -0.795609 -3 0 
C -3 0.795609 -2.683901 1.55874 -2.12132 2.12132 
C -1.55874 2.683901 -0.795609 3 0 3 
z
" style="stroke: #2ca02c"/>
    </defs>
    <g clip-path="url(#pdfe09e9976)">
     <use xlink:href="#m54bbbdfe11" x="93.701037" y="414.551779" style="fill: #2ca02c; stroke: #2ca02c"/>
     <use xlink:href="#m54bbbdfe11" x="105.904073" y="497.463966" style="fill: #2ca02c; stroke: #2ca02c"/>
     <use xlink:href="#m54bbbdfe11" x="118.107109" y="414.97317" style="fill: #2ca02c; stroke: #2ca02c"/>
     <use xlink:href="#m54bbbdfe11" x="130.310146" y="486.590358" style="fill: #2ca02c; stroke: #2ca02c"/>
     <use xlink:href="#m54bbbdfe11" x="142.513182" y="488.58483" style="fill: #2ca02c; stroke: #2ca02c"/>
     <use xlink:href="#m54bbbdfe11" x="154.716218" y="494.968464" style="fill: #2ca02c; stroke: #2ca02c"/>
     <use xlink:href="#m54bbbdfe11" x="166.919254" y="431.17622" style="fill: #2ca02c; stroke: #2ca02c"/>
     <use xlink:href="#m54bbbdfe11" x="179.12229" y="259.841298" style="fill: #2ca02c; stroke: #2ca02c"/>
     <use xlink:href="#m54bbbdfe11" x="191.325327" y="504.165161" style="fill: #2ca02c; stroke: #2ca02c"/>
     <use xlink:href="#m54bbbdfe11" x="203.528363" y="502.411088" style="fill: #2ca02c; stroke: #2ca02c"/>
     <use xlink:href="#m54bbbdfe11" x="215.731399" y="448.322626" style="fill: #2ca02c; stroke: #2ca02c"/>
     <use xlink:href="#m54bbbdfe11" x="227.934435" y="415.961606" style="fill: #2ca02c; stroke: #2ca02c"/>
     <use xlink:href="#m54bbbdfe11" x="240.137472" y="472.805361" style="fill: #2ca02c; stroke: #2ca02c"/>
     <use xlink:href="#m54bbbdfe11" x="264.543544" y="490.422322" style="fill: #2ca02c; stroke: #2ca02c"/>
     <use xlink:href="#m54bbbdfe11" x="276.74658" y="432.542825" style="fill: #2ca02c; stroke: #2ca02c"/>
     <use xlink:href="#m54bbbdfe11" x="301.152653" y="506.332202" style="fill: #2ca02c; stroke: #2ca02c"/>
     <use xlink:href="#m54bbbdfe11" x="313.355689" y="259.267362" style="fill: #2ca02c; stroke: #2ca02c"/>
     <use xlink:href="#m54bbbdfe11" x="325.558725" y="486.236577" style="fill: #2ca02c; stroke: #2ca02c"/>
     <use xlink:href="#m54bbbdfe11" x="337.761761" y="481.772945" style="fill: #2ca02c; stroke: #2ca02c"/>
     <use xlink:href="#m54bbbdfe11" x="349.964798" y="501.586919" style="fill: #2ca02c; stroke: #2ca02c"/>
     <use xlink:href="#m54bbbdfe11" x="374.37087" y="503.321129" style="fill: #2ca02c; stroke: #2ca02c"/>
     <use xlink:href="#m54bbbdfe11" x="386.573906" y="460.778799" style="fill: #2ca02c; stroke: #2ca02c"/>
     <use xlink:href="#m54bbbdfe11" x="398.776942" y="459.561443" style="fill: #2ca02c; stroke: #2ca02c"/>
     <use xlink:href="#m54bbbdfe11" x="410.979979" y="479.86882" style="fill: #2ca02c; stroke: #2ca02c"/>
     <use xlink:href="#m54bbbdfe11" x="435.386051" y="480.855226" style="fill: #2ca02c; stroke: #2ca02c"/>
     <use xlink:href="#m54bbbdfe11" x="447.589087" y="500.319467" style="fill: #2ca02c; stroke: #2ca02c"/>
     <use xlink:href="#m54bbbdfe11" x="459.792124" y="505.890118" style="fill: #2ca02c; stroke: #2ca02c"/>
     <use xlink:href="#m54bbbdfe11" x="471.99516" y="501.949525" style="fill: #2ca02c; stroke: #2ca02c"/>
     <use xlink:href="#m54bbbdfe11" x="484.198196" y="487.90366" style="fill: #2ca02c; stroke: #2ca02c"/>
     <use xlink:href="#m54bbbdfe11" x="496.401232" y="260.377715" style="fill: #2ca02c; stroke: #2ca02c"/>
     <use xlink:href="#m54bbbdfe11" x="508.604268" y="480.387571" style="fill: #2ca02c; stroke: #2ca02c"/>
     <use xlink:href="#m54bbbdfe11" x="520.807305" y="503.662823" style="fill: #2ca02c; stroke: #2ca02c"/>
     <use xlink:href="#m54bbbdfe11" x="545.213377" y="478.550422" style="fill: #2ca02c; stroke: #2ca02c"/>
     <use xlink:href="#m54bbbdfe11" x="557.416413" y="502.536827" style="fill: #2ca02c; stroke: #2ca02c"/>
     <use xlink:href="#m54bbbdfe11" x="569.61945" y="478.931817" style="fill: #2ca02c; stroke: #2ca02c"/>
     <use xlink:href="#m54bbbdfe11" x="594.025522" y="479.468257" style="fill: #2ca02c; stroke: #2ca02c"/>
     <use xlink:href="#m54bbbdfe11" x="630.634631" y="480.315489" style="fill: #2ca02c; stroke: #2ca02c"/>
     <use xlink:href="#m54bbbdfe11" x="642.837667" y="264.460841" style="fill: #2ca02c; stroke: #2ca02c"/>
     <use xlink:href="#m54bbbdfe11" x="655.040703" y="266.315517" style="fill: #2ca02c; stroke: #2ca02c"/>
     <use xlink:href="#m54bbbdfe11" x="667.243739" y="479.595516" style="fill: #2ca02c; stroke: #2ca02c"/>
     <use xlink:href="#m54bbbdfe11" x="679.446776" y="480.747697" style="fill: #2ca02c; stroke: #2ca02c"/>
    </g>
   </g>
   <g id="line2d_23">
    <path d="M 93.701037 459.866222 
L 105.904073 455.143871 
L 118.107109 459.420607 
L 130.310146 457.27833 
L 142.513182 460.575215 
L 154.716218 466.993507 
L 166.919254 458.812133 
L 179.12229 457.180552 
L 191.325327 460.001714 
L 203.528363 457.742438 
L 215.731399 461.889521 
L 227.934435 465.712231 
L 240.137472 421.868996 
L 264.543544 457.412458 
L 276.74658 454.1049 
L 301.152653 488.92886 
L 313.355689 458.206217 
L 325.558725 456.170075 
L 337.761761 461.129246 
L 349.964798 463.233246 
L 374.37087 459.084593 
L 386.573906 457.457502 
L 398.776942 478.796034 
L 410.979979 480.720181 
L 435.386051 466.047993 
L 447.589087 478.470998 
L 459.792124 479.912321 
L 471.99516 480.445663 
L 484.198196 480.535415 
L 496.401232 481.301371 
L 508.604268 479.19993 
L 520.807305 481.650745 
L 545.213377 479.964115 
L 557.416413 477.156529 
L 569.61945 479.532915 
L 594.025522 478.356021 
L 630.634631 479.652501 
L 642.837667 473.040713 
L 655.040703 478.914776 
L 667.243739 482.302114 
L 679.446776 477.868194 
" clip-path="url(#pdfe09e9976)" style="fill: none; stroke: #d62728; stroke-width: 2; stroke-linecap: square"/>
    <defs>
     <path id="m09245e245e" d="M 0 3 
C 0.795609 3 1.55874 2.683901 2.12132 2.12132 
C 2.683901 1.55874 3 0.795609 3 0 
C 3 -0.795609 2.683901 -1.55874 2.12132 -2.12132 
C 1.55874 -2.683901 0.795609 -3 0 -3 
C -0.795609 -3 -1.55874 -2.683901 -2.12132 -2.12132 
C -2.683901 -1.55874 -3 -0.795609 -3 0 
C -3 0.795609 -2.683901 1.55874 -2.12132 2.12132 
C -1.55874 2.683901 -0.795609 3 0 3 
z
" style="stroke: #d62728"/>
    </defs>
    <g clip-path="url(#pdfe09e9976)">
     <use xlink:href="#m09245e245e" x="93.701037" y="459.866222" style="fill: #d62728; stroke: #d62728"/>
     <use xlink:href="#m09245e245e" x="105.904073" y="455.143871" style="fill: #d62728; stroke: #d62728"/>
     <use xlink:href="#m09245e245e" x="118.107109" y="459.420607" style="fill: #d62728; stroke: #d62728"/>
     <use xlink:href="#m09245e245e" x="130.310146" y="457.27833" style="fill: #d62728; stroke: #d62728"/>
     <use xlink:href="#m09245e245e" x="142.513182" y="460.575215" style="fill: #d62728; stroke: #d62728"/>
     <use xlink:href="#m09245e245e" x="154.716218" y="466.993507" style="fill: #d62728; stroke: #d62728"/>
     <use xlink:href="#m09245e245e" x="166.919254" y="458.812133" style="fill: #d62728; stroke: #d62728"/>
     <use xlink:href="#m09245e245e" x="179.12229" y="457.180552" style="fill: #d62728; stroke: #d62728"/>
     <use xlink:href="#m09245e245e" x="191.325327" y="460.001714" style="fill: #d62728; stroke: #d62728"/>
     <use xlink:href="#m09245e245e" x="203.528363" y="457.742438" style="fill: #d62728; stroke: #d62728"/>
     <use xlink:href="#m09245e245e" x="215.731399" y="461.889521" style="fill: #d62728; stroke: #d62728"/>
     <use xlink:href="#m09245e245e" x="227.934435" y="465.712231" style="fill: #d62728; stroke: #d62728"/>
     <use xlink:href="#m09245e245e" x="240.137472" y="421.868996" style="fill: #d62728; stroke: #d62728"/>
     <use xlink:href="#m09245e245e" x="264.543544" y="457.412458" style="fill: #d62728; stroke: #d62728"/>
     <use xlink:href="#m09245e245e" x="276.74658" y="454.1049" style="fill: #d62728; stroke: #d62728"/>
     <use xlink:href="#m09245e245e" x="301.152653" y="488.92886" style="fill: #d62728; stroke: #d62728"/>
     <use xlink:href="#m09245e245e" x="313.355689" y="458.206217" style="fill: #d62728; stroke: #d62728"/>
     <use xlink:href="#m09245e245e" x="325.558725" y="456.170075" style="fill: #d62728; stroke: #d62728"/>
     <use xlink:href="#m09245e245e" x="337.761761" y="461.129246" style="fill: #d62728; stroke: #d62728"/>
     <use xlink:href="#m09245e245e" x="349.964798" y="463.233246" style="fill: #d62728; stroke: #d62728"/>
     <use xlink:href="#m09245e245e" x="374.37087" y="459.084593" style="fill: #d62728; stroke: #d62728"/>
     <use xlink:href="#m09245e245e" x="386.573906" y="457.457502" style="fill: #d62728; stroke: #d62728"/>
     <use xlink:href="#m09245e245e" x="398.776942" y="478.796034" style="fill: #d62728; stroke: #d62728"/>
     <use xlink:href="#m09245e245e" x="410.979979" y="480.720181" style="fill: #d62728; stroke: #d62728"/>
     <use xlink:href="#m09245e245e" x="435.386051" y="466.047993" style="fill: #d62728; stroke: #d62728"/>
     <use xlink:href="#m09245e245e" x="447.589087" y="478.470998" style="fill: #d62728; stroke: #d62728"/>
     <use xlink:href="#m09245e245e" x="459.792124" y="479.912321" style="fill: #d62728; stroke: #d62728"/>
     <use xlink:href="#m09245e245e" x="471.99516" y="480.445663" style="fill: #d62728; stroke: #d62728"/>
     <use xlink:href="#m09245e245e" x="484.198196" y="480.535415" style="fill: #d62728; stroke: #d62728"/>
     <use xlink:href="#m09245e245e" x="496.401232" y="481.301371" style="fill: #d62728; stroke: #d62728"/>
     <use xlink:href="#m09245e245e" x="508.604268" y="479.19993" style="fill: #d62728; stroke: #d62728"/>
     <use xlink:href="#m09245e245e" x="520.807305" y="481.650745" style="fill: #d62728; stroke: #d62728"/>
     <use xlink:href="#m09245e245e" x="545.213377" y="479.964115" style="fill: #d62728; stroke: #d62728"/>
     <use xlink:href="#m09245e245e" x="557.416413" y="477.156529" style="fill: #d62728; stroke: #d62728"/>
     <use xlink:href="#m09245e245e" x="569.61945" y="479.532915" style="fill: #d62728; stroke: #d62728"/>
     <use xlink:href="#m09245e245e" x="594.025522" y="478.356021" style="fill: #d62728; stroke: #d62728"/>
     <use xlink:href="#m09245e245e" x="630.634631" y="479.652501" style="fill: #d62728; stroke: #d62728"/>
     <use xlink:href="#m09245e245e" x="642.837667" y="473.040713" style="fill: #d62728; stroke: #d62728"/>
     <use xlink:href="#m09245e245e" x="655.040703" y="478.914776" style="fill: #d62728; stroke: #d62728"/>
     <use xlink:href="#m09245e245e" x="667.243739" y="482.302114" style="fill: #d62728; stroke: #d62728"/>
     <use xlink:href="#m09245e245e" x="679.446776" y="477.868194" style="fill: #d62728; stroke: #d62728"/>
    </g>
   </g>
   <g id="patch_3">
    <path d="M 64.41375 529.308125 
L 64.41375 23.837813 
" style="fill: none; stroke: #000000; stroke-width: 0.8; stroke-linejoin: miter; stroke-linecap: square"/>
   </g>
   <g id="patch_4">
    <path d="M 708.734063 529.308125 
L 708.734063 23.837813 
" style="fill: none; stroke: #000000; stroke-width: 0.8; stroke-linejoin: miter; stroke-linecap: square"/>
   </g>
   <g id="patch_5">
    <path d="M 64.41375 529.308125 
L 708.734062 529.308125 
" style="fill: none; stroke: #000000; stroke-width: 0.8; stroke-linejoin: miter; stroke-linecap: square"/>
   </g>
   <g id="patch_6">
    <path d="M 64.41375 23.837812 
L 708.734062 23.837812 
" style="fill: none; stroke: #000000; stroke-width: 0.8; stroke-linejoin: miter; stroke-linecap: square"/>
   </g>
   <g id="text_12">
    <text style="font: 700 14px 'DejaVu Sans', 'Bitstream Vera Sans', 'Computer Modern Sans Serif', 'Lucida Grande', 'Verdana', 'Geneva', 'Lucid', 'Arial', 'Helvetica', 'Avant Garde', sans-serif; text-anchor: middle" x="386.573906" y="17.837813" transform="rotate(-0 386.573906 17.837813)">Nestedparallel - Performance Trend</text>
   </g>
   <g id="legend_1">
    <g id="patch_7">
     <path d="M 747.950078 90.550312 
L 846.336016 90.550312 
Q 848.336016 90.550312 848.336016 88.550312 
L 848.336016 30.837812 
Q 848.336016 28.837812 846.336016 28.837812 
L 747.950078 28.837812 
Q 745.950078 28.837812 745.950078 30.837812 
L 745.950078 88.550312 
Q 745.950078 90.550312 747.950078 90.550312 
z
" style="fill: #ffffff; opacity: 0.8; stroke: #cccccc; stroke-linejoin: miter"/>
    </g>
    <g id="line2d_24">
     <path d="M 749.950078 36.93625 
L 759.950078 36.93625 
L 769.950078 36.93625 
" style="fill: none; stroke: #1f77b4; stroke-width: 2; stroke-linecap: square"/>
     <g>
      <use xlink:href="#mba9c595c91" x="759.950078" y="36.93625" style="fill: #1f77b4; stroke: #1f77b4"/>
     </g>
    </g>
    <g id="text_13">
     <text style="font: 10px 'DejaVu Sans', 'Bitstream Vera Sans', 'Computer Modern Sans Serif', 'Lucida Grande', 'Verdana', 'Geneva', 'Lucid', 'Arial', 'Helvetica', 'Avant Garde', sans-serif; text-anchor: start" x="777.950078" y="40.43625" transform="rotate(-0 777.950078 40.43625)">gcc-14.2 - V1</text>
    </g>
    <g id="line2d_25">
     <path d="M 749.950078 51.614375 
L 759.950078 51.614375 
L 769.950078 51.614375 
" style="fill: none; stroke: #ff7f0e; stroke-width: 2; stroke-linecap: square"/>
     <g>
      <use xlink:href="#mddeb5c542f" x="759.950078" y="51.614375" style="fill: #ff7f0e; stroke: #ff7f0e"/>
     </g>
    </g>
    <g id="text_14">
     <text style="font: 10px 'DejaVu Sans', 'Bitstream Vera Sans', 'Computer Modern Sans Serif', 'Lucida Grande', 'Verdana', 'Geneva', 'Lucid', 'Arial', 'Helvetica', 'Avant Garde', sans-serif; text-anchor: start" x="777.950078" y="55.114375" transform="rotate(-0 777.950078 55.114375)">gcc-14.2 - V2</text>
    </g>
    <g id="line2d_26">
     <path d="M 749.950078 66.2925 
L 759.950078 66.2925 
L 769.950078 66.2925 
" style="fill: none; stroke: #2ca02c; stroke-width: 2; stroke-linecap: square"/>
     <g>
      <use xlink:href="#m54bbbdfe11" x="759.950078" y="66.2925" style="fill: #2ca02c; stroke: #2ca02c"/>
     </g>
    </g>
    <g id="text_15">
     <text style="font: 10px 'DejaVu Sans', 'Bitstream Vera Sans', 'Computer Modern Sans Serif', 'Lucida Grande', 'Verdana', 'Geneva', 'Lucid', 'Arial', 'Helvetica', 'Avant Garde', sans-serif; text-anchor: start" x="777.950078" y="69.7925" transform="rotate(-0 777.950078 69.7925)">gcc-4.2 - V1</text>
    </g>
    <g id="line2d_27">
     <path d="M 749.950078 80.970625 
L 759.950078 80.970625 
L 769.950078 80.970625 
" style="fill: none; stroke: #d62728; stroke-width: 2; stroke-linecap: square"/>
     <g>
      <use xlink:href="#m09245e245e" x="759.950078" y="80.970625" style="fill: #d62728; stroke: #d62728"/>
     </g>
    </g>
    <g id="text_16">
     <text style="font: 10px 'DejaVu Sans', 'Bitstream Vera Sans', 'Computer Modern Sans Serif', 'Lucida Grande', 'Verdana', 'Geneva', 'Lucid', 'Arial', 'Helvetica', 'Avant Garde', sans-serif; text-anchor: start" x="777.950078" y="84.470625" transform="rotate(-0 777.950078 84.470625)">gcc-4.2 - V2</text>
    </g>
   </g>
  </g>
 </g>
 <defs>
  <clipPath id="pdfe09e9976">
   <rect x="64.41375" y="23.837813" width="644.320312" height="505.470313"/>
  </clipPath>
 </defs>
</svg>
