<?xml version="1.0" encoding="utf-8" standalone="no"?>
<!DOCTYPE svg PUBLIC "-//W3C//DTD SVG 1.1//EN"
  "http://www.w3.org/Graphics/SVG/1.1/DTD/svg11.dtd">
<svg xmlns:xlink="http://www.w3.org/1999/xlink" width="855.204687pt" height="568.8pt" viewBox="0 0 855.204687 568.8" xmlns="http://www.w3.org/2000/svg" version="1.1">
 <metadata>
  <rdf:RDF xmlns:dc="http://purl.org/dc/elements/1.1/" xmlns:cc="http://creativecommons.org/ns#" xmlns:rdf="http://www.w3.org/1999/02/22-rdf-syntax-ns#">
   <cc:Work>
    <dc:type rdf:resource="http://purl.org/dc/dcmitype/StillImage"/>
    <dc:date>2025-08-05T06:46:57.312296</dc:date>
    <dc:format>image/svg+xml</dc:format>
    <dc:creator>
     <cc:Agent>
      <dc:title>Matplotlib v3.9.4, https://matplotlib.org/</dc:title>
     </cc:Agent>
    </dc:creator>
   </cc:Work>
  </rdf:RDF>
 </metadata>
 <defs>
  <style type="text/css">*{stroke-linejoin: round; stroke-linecap: butt}</style>
 </defs>
 <g id="figure_1">
  <g id="patch_1">
   <path d="M 0 568.8 
L 855.204687 568.8 
L 855.204687 0 
L 0 0 
z
" style="fill: #ffffff"/>
  </g>
  <g id="axes_1">
   <g id="patch_2">
    <path d="M 64.41375 529.308125 
L 702.1075 529.308125 
L 702.1075 23.837812 
L 64.41375 23.837812 
z
" style="fill: #ffffff"/>
   </g>
   <g id="matplotlib.axis_1">
    <g id="xtick_1">
     <g id="line2d_1">
      <path d="M 151.371989 529.308125 
L 151.371989 23.837812 
" clip-path="url(#pcd6308a253)" style="fill: none; stroke: #b0b0b0; stroke-opacity: 0.3; stroke-width: 0.8; stroke-linecap: square"/>
     </g>
     <g id="line2d_2">
      <defs>
       <path id="md9f3dddccf" d="M 0 0 
L 0 3.5 
" style="stroke: #000000; stroke-width: 0.8"/>
      </defs>
      <g>
       <use xlink:href="#md9f3dddccf" x="151.371989" y="529.308125" style="stroke: #000000; stroke-width: 0.8"/>
      </g>
     </g>
     <g id="text_1">
      <text style="font: 10px 'DejaVu Sans', 'Bitstream Vera Sans', 'Computer Modern Sans Serif', 'Lucida Grande', 'Verdana', 'Geneva', 'Lucid', 'Arial', 'Helvetica', 'Avant Garde', sans-serif; text-anchor: middle" x="151.371989" y="543.906563" transform="rotate(-0 151.371989 543.906563)">72</text>
     </g>
    </g>
    <g id="xtick_2">
     <g id="line2d_3">
      <path d="M 267.316307 529.308125 
L 267.316307 23.837812 
" clip-path="url(#pcd6308a253)" style="fill: none; stroke: #b0b0b0; stroke-opacity: 0.3; stroke-width: 0.8; stroke-linecap: square"/>
     </g>
     <g id="line2d_4">
      <g>
       <use xlink:href="#md9f3dddccf" x="267.316307" y="529.308125" style="stroke: #000000; stroke-width: 0.8"/>
      </g>
     </g>
     <g id="text_2">
      <text style="font: 10px 'DejaVu Sans', 'Bitstream Vera Sans', 'Computer Modern Sans Serif', 'Lucida Grande', 'Verdana', 'Geneva', 'Lucid', 'Arial', 'Helvetica', 'Avant Garde', sans-serif; text-anchor: middle" x="267.316307" y="543.906563" transform="rotate(-0 267.316307 543.906563)">74</text>
     </g>
    </g>
    <g id="xtick_3">
     <g id="line2d_5">
      <path d="M 383.260625 529.308125 
L 383.260625 23.837812 
" clip-path="url(#pcd6308a253)" style="fill: none; stroke: #b0b0b0; stroke-opacity: 0.3; stroke-width: 0.8; stroke-linecap: square"/>
     </g>
     <g id="line2d_6">
      <g>
       <use xlink:href="#md9f3dddccf" x="383.260625" y="529.308125" style="stroke: #000000; stroke-width: 0.8"/>
      </g>
     </g>
     <g id="text_3">
      <text style="font: 10px 'DejaVu Sans', 'Bitstream Vera Sans', 'Computer Modern Sans Serif', 'Lucida Grande', 'Verdana', 'Geneva', 'Lucid', 'Arial', 'Helvetica', 'Avant Garde', sans-serif; text-anchor: middle" x="383.260625" y="543.906563" transform="rotate(-0 383.260625 543.906563)">76</text>
     </g>
    </g>
    <g id="xtick_4">
     <g id="line2d_7">
      <path d="M 499.204943 529.308125 
L 499.204943 23.837812 
" clip-path="url(#pcd6308a253)" style="fill: none; stroke: #b0b0b0; stroke-opacity: 0.3; stroke-width: 0.8; stroke-linecap: square"/>
     </g>
     <g id="line2d_8">
      <g>
       <use xlink:href="#md9f3dddccf" x="499.204943" y="529.308125" style="stroke: #000000; stroke-width: 0.8"/>
      </g>
     </g>
     <g id="text_4">
      <text style="font: 10px 'DejaVu Sans', 'Bitstream Vera Sans', 'Computer Modern Sans Serif', 'Lucida Grande', 'Verdana', 'Geneva', 'Lucid', 'Arial', 'Helvetica', 'Avant Garde', sans-serif; text-anchor: middle" x="499.204943" y="543.906563" transform="rotate(-0 499.204943 543.906563)">78</text>
     </g>
    </g>
    <g id="xtick_5">
     <g id="line2d_9">
      <path d="M 615.149261 529.308125 
L 615.149261 23.837812 
" clip-path="url(#pcd6308a253)" style="fill: none; stroke: #b0b0b0; stroke-opacity: 0.3; stroke-width: 0.8; stroke-linecap: square"/>
     </g>
     <g id="line2d_10">
      <g>
       <use xlink:href="#md9f3dddccf" x="615.149261" y="529.308125" style="stroke: #000000; stroke-width: 0.8"/>
      </g>
     </g>
     <g id="text_5">
      <text style="font: 10px 'DejaVu Sans', 'Bitstream Vera Sans', 'Computer Modern Sans Serif', 'Lucida Grande', 'Verdana', 'Geneva', 'Lucid', 'Arial', 'Helvetica', 'Avant Garde', sans-serif; text-anchor: middle" x="615.149261" y="543.906563" transform="rotate(-0 615.149261 543.906563)">80</text>
     </g>
    </g>
    <g id="text_6">
     <text style="font: 12px 'DejaVu Sans', 'Bitstream Vera Sans', 'Computer Modern Sans Serif', 'Lucida Grande', 'Verdana', 'Geneva', 'Lucid', 'Arial', 'Helvetica', 'Avant Garde', sans-serif; text-anchor: middle" x="383.260625" y="559.104375" transform="rotate(-0 383.260625 559.104375)">Build Number</text>
    </g>
   </g>
   <g id="matplotlib.axis_2">
    <g id="ytick_1">
     <g id="line2d_11">
      <defs>
       <path id="m0089a699d5" d="M 0 0 
L -2 0 
" style="stroke: #000000; stroke-width: 0.6"/>
      </defs>
      <g>
       <use xlink:href="#m0089a699d5" x="64.41375" y="515.396405" style="stroke: #000000; stroke-width: 0.6"/>
      </g>
     </g>
     <g id="text_7">
      <!-- $\mathdefault{5\times10^{7}}$ -->
      <g transform="translate(22.81375 519.195624)">
       <text>
        <tspan style="font: 10px 'DejaVu Sans'" x="0 8.310547 18.637695 25" y="-0.06406250000000036">5×10</tspan>
        <tspan style="font: 7px 'DejaVu Sans'" x="31.458008" y="-3.8921875000000004">7</tspan>
       </text>
      </g>
     </g>
    </g>
    <g id="ytick_2">
     <g id="line2d_12">
      <g>
       <use xlink:href="#m0089a699d5" x="64.41375" y="275.963512" style="stroke: #000000; stroke-width: 0.6"/>
      </g>
     </g>
     <g id="text_8">
      <!-- $\mathdefault{6\times10^{7}}$ -->
      <g transform="translate(22.81375 279.762731)">
       <text>
        <tspan style="font: 10px 'DejaVu Sans'" x="0 8.310547 18.637695 25" y="-0.06406250000000036">6×10</tspan>
        <tspan style="font: 7px 'DejaVu Sans'" x="31.458008" y="-3.8921875000000004">7</tspan>
       </text>
      </g>
     </g>
    </g>
    <g id="ytick_3">
     <g id="line2d_13">
      <g>
       <use xlink:href="#m0089a699d5" x="64.41375" y="73.525885" style="stroke: #000000; stroke-width: 0.6"/>
      </g>
     </g>
     <g id="text_9">
      <!-- $\mathdefault{7\times10^{7}}$ -->
      <g transform="translate(22.81375 77.325104)">
       <text>
        <tspan style="font: 10px 'DejaVu Sans'" x="0 8.310547 18.637695 25" y="-0.06406250000000036">7×10</tspan>
        <tspan style="font: 7px 'DejaVu Sans'" x="31.458008" y="-3.8921875000000004">7</tspan>
       </text>
      </g>
     </g>
    </g>
    <g id="text_10">
     <text style="font: 12px 'DejaVu Sans', 'Bitstream Vera Sans', 'Computer Modern Sans Serif', 'Lucida Grande', 'Verdana', 'Geneva', 'Lucid', 'Arial', 'Helvetica', 'Avant Garde', sans-serif; text-anchor: middle" x="16.318125" y="276.572969" transform="rotate(-90 16.318125 276.572969)">Median Elapsed Time (nanoseconds)</text>
    </g>
   </g>
   <g id="line2d_14">
    <path d="M 93.39983 492.984324 
L 151.371989 489.945497 
L 209.344148 486.440309 
L 267.316307 486.071401 
L 325.288466 487.407395 
L 383.260625 473.59217 
L 441.232784 486.548174 
L 499.204943 487.412866 
L 557.177102 488.783687 
L 615.149261 454.324349 
L 673.12142 482.170084 
" clip-path="url(#pcd6308a253)" style="fill: none; stroke: #1f77b4; stroke-width: 2; stroke-linecap: square"/>
    <defs>
     <path id="m0df04bfe55" d="M 0 3 
C 0.795609 3 1.55874 2.683901 2.12132 2.12132 
C 2.683901 1.55874 3 0.795609 3 0 
C 3 -0.795609 2.683901 -1.55874 2.12132 -2.12132 
C 1.55874 -2.683901 0.795609 -3 0 -3 
C -0.795609 -3 -1.55874 -2.683901 -2.12132 -2.12132 
C -2.683901 -1.55874 -3 -0.795609 -3 0 
C -3 0.795609 -2.683901 1.55874 -2.12132 2.12132 
C -1.55874 2.683901 -0.795609 3 0 3 
z
" style="stroke: #1f77b4"/>
    </defs>
    <g clip-path="url(#pcd6308a253)">
     <use xlink:href="#m0df04bfe55" x="93.39983" y="492.984324" style="fill: #1f77b4; stroke: #1f77b4"/>
     <use xlink:href="#m0df04bfe55" x="151.371989" y="489.945497" style="fill: #1f77b4; stroke: #1f77b4"/>
     <use xlink:href="#m0df04bfe55" x="209.344148" y="486.440309" style="fill: #1f77b4; stroke: #1f77b4"/>
     <use xlink:href="#m0df04bfe55" x="267.316307" y="486.071401" style="fill: #1f77b4; stroke: #1f77b4"/>
     <use xlink:href="#m0df04bfe55" x="325.288466" y="487.407395" style="fill: #1f77b4; stroke: #1f77b4"/>
     <use xlink:href="#m0df04bfe55" x="383.260625" y="473.59217" style="fill: #1f77b4; stroke: #1f77b4"/>
     <use xlink:href="#m0df04bfe55" x="441.232784" y="486.548174" style="fill: #1f77b4; stroke: #1f77b4"/>
     <use xlink:href="#m0df04bfe55" x="499.204943" y="487.412866" style="fill: #1f77b4; stroke: #1f77b4"/>
     <use xlink:href="#m0df04bfe55" x="557.177102" y="488.783687" style="fill: #1f77b4; stroke: #1f77b4"/>
     <use xlink:href="#m0df04bfe55" x="615.149261" y="454.324349" style="fill: #1f77b4; stroke: #1f77b4"/>
     <use xlink:href="#m0df04bfe55" x="673.12142" y="482.170084" style="fill: #1f77b4; stroke: #1f77b4"/>
    </g>
   </g>
   <g id="line2d_15">
    <path d="M 93.39983 198.671195 
L 151.371989 164.804263 
L 209.344148 259.893511 
L 267.316307 163.877251 
L 325.288466 255.581947 
L 383.260625 261.825198 
L 441.232784 153.194966 
L 499.204943 257.489255 
L 557.177102 164.383314 
L 615.149261 257.692015 
L 673.12142 164.541336 
" clip-path="url(#pcd6308a253)" style="fill: none; stroke: #ff7f0e; stroke-width: 2; stroke-linecap: square"/>
    <defs>
     <path id="m8ce84e7364" d="M 0 3 
C 0.795609 3 1.55874 2.683901 2.12132 2.12132 
C 2.683901 1.55874 3 0.795609 3 0 
C 3 -0.795609 2.683901 -1.55874 2.12132 -2.12132 
C 1.55874 -2.683901 0.795609 -3 0 -3 
C -0.795609 -3 -1.55874 -2.683901 -2.12132 -2.12132 
C -2.683901 -1.55874 -3 -0.795609 -3 0 
C -3 0.795609 -2.683901 1.55874 -2.12132 2.12132 
C -1.55874 2.683901 -0.795609 3 0 3 
z
" style="stroke: #ff7f0e"/>
    </defs>
    <g clip-path="url(#pcd6308a253)">
     <use xlink:href="#m8ce84e7364" x="93.39983" y="198.671195" style="fill: #ff7f0e; stroke: #ff7f0e"/>
     <use xlink:href="#m8ce84e7364" x="151.371989" y="164.804263" style="fill: #ff7f0e; stroke: #ff7f0e"/>
     <use xlink:href="#m8ce84e7364" x="209.344148" y="259.893511" style="fill: #ff7f0e; stroke: #ff7f0e"/>
     <use xlink:href="#m8ce84e7364" x="267.316307" y="163.877251" style="fill: #ff7f0e; stroke: #ff7f0e"/>
     <use xlink:href="#m8ce84e7364" x="325.288466" y="255.581947" style="fill: #ff7f0e; stroke: #ff7f0e"/>
     <use xlink:href="#m8ce84e7364" x="383.260625" y="261.825198" style="fill: #ff7f0e; stroke: #ff7f0e"/>
     <use xlink:href="#m8ce84e7364" x="441.232784" y="153.194966" style="fill: #ff7f0e; stroke: #ff7f0e"/>
     <use xlink:href="#m8ce84e7364" x="499.204943" y="257.489255" style="fill: #ff7f0e; stroke: #ff7f0e"/>
     <use xlink:href="#m8ce84e7364" x="557.177102" y="164.383314" style="fill: #ff7f0e; stroke: #ff7f0e"/>
     <use xlink:href="#m8ce84e7364" x="615.149261" y="257.692015" style="fill: #ff7f0e; stroke: #ff7f0e"/>
     <use xlink:href="#m8ce84e7364" x="673.12142" y="164.541336" style="fill: #ff7f0e; stroke: #ff7f0e"/>
    </g>
   </g>
   <g id="line2d_16">
    <path d="M 93.39983 506.332202 
L 151.371989 487.212013 
L 209.344148 486.058214 
L 267.316307 487.17034 
L 325.288466 485.670952 
L 383.260625 488.442358 
L 441.232784 487.212753 
L 499.204943 486.759521 
L 557.177102 487.500547 
L 615.149261 488.70059 
L 673.12142 486.435132 
" clip-path="url(#pcd6308a253)" style="fill: none; stroke: #2ca02c; stroke-width: 2; stroke-linecap: square"/>
    <defs>
     <path id="md5045c5571" d="M 0 3 
C 0.795609 3 1.55874 2.683901 2.12132 2.12132 
C 2.683901 1.55874 3 0.795609 3 0 
C 3 -0.795609 2.683901 -1.55874 2.12132 -2.12132 
C 1.55874 -2.683901 0.795609 -3 0 -3 
C -0.795609 -3 -1.55874 -2.683901 -2.12132 -2.12132 
C -2.683901 -1.55874 -3 -0.795609 -3 0 
C -3 0.795609 -2.683901 1.55874 -2.12132 2.12132 
C -1.55874 2.683901 -0.795609 3 0 3 
z
" style="stroke: #2ca02c"/>
    </defs>
    <g clip-path="url(#pcd6308a253)">
     <use xlink:href="#md5045c5571" x="93.39983" y="506.332202" style="fill: #2ca02c; stroke: #2ca02c"/>
     <use xlink:href="#md5045c5571" x="151.371989" y="487.212013" style="fill: #2ca02c; stroke: #2ca02c"/>
     <use xlink:href="#md5045c5571" x="209.344148" y="486.058214" style="fill: #2ca02c; stroke: #2ca02c"/>
     <use xlink:href="#md5045c5571" x="267.316307" y="487.17034" style="fill: #2ca02c; stroke: #2ca02c"/>
     <use xlink:href="#md5045c5571" x="325.288466" y="485.670952" style="fill: #2ca02c; stroke: #2ca02c"/>
     <use xlink:href="#md5045c5571" x="383.260625" y="488.442358" style="fill: #2ca02c; stroke: #2ca02c"/>
     <use xlink:href="#md5045c5571" x="441.232784" y="487.212753" style="fill: #2ca02c; stroke: #2ca02c"/>
     <use xlink:href="#md5045c5571" x="499.204943" y="486.759521" style="fill: #2ca02c; stroke: #2ca02c"/>
     <use xlink:href="#md5045c5571" x="557.177102" y="487.500547" style="fill: #2ca02c; stroke: #2ca02c"/>
     <use xlink:href="#md5045c5571" x="615.149261" y="488.70059" style="fill: #2ca02c; stroke: #2ca02c"/>
     <use xlink:href="#md5045c5571" x="673.12142" y="486.435132" style="fill: #2ca02c; stroke: #2ca02c"/>
    </g>
   </g>
   <g id="line2d_17">
    <path d="M 93.39983 272.171091 
L 151.371989 275.106236 
L 209.344148 274.123398 
L 267.316307 272.651405 
L 325.288466 274.844292 
L 383.260625 269.741791 
L 441.232784 271.109146 
L 499.204943 273.919276 
L 557.177102 271.301689 
L 615.149261 273.98175 
L 673.12142 275.518229 
" clip-path="url(#pcd6308a253)" style="fill: none; stroke: #d62728; stroke-width: 2; stroke-linecap: square"/>
    <defs>
     <path id="m5fd5392785" d="M 0 3 
C 0.795609 3 1.55874 2.683901 2.12132 2.12132 
C 2.683901 1.55874 3 0.795609 3 0 
C 3 -0.795609 2.683901 -1.55874 2.12132 -2.12132 
C 1.55874 -2.683901 0.795609 -3 0 -3 
C -0.795609 -3 -1.55874 -2.683901 -2.12132 -2.12132 
C -2.683901 -1.55874 -3 -0.795609 -3 0 
C -3 0.795609 -2.683901 1.55874 -2.12132 2.12132 
C -1.55874 2.683901 -0.795609 3 0 3 
z
" style="stroke: #d62728"/>
    </defs>
    <g clip-path="url(#pcd6308a253)">
     <use xlink:href="#m5fd5392785" x="93.39983" y="272.171091" style="fill: #d62728; stroke: #d62728"/>
     <use xlink:href="#m5fd5392785" x="151.371989" y="275.106236" style="fill: #d62728; stroke: #d62728"/>
     <use xlink:href="#m5fd5392785" x="209.344148" y="274.123398" style="fill: #d62728; stroke: #d62728"/>
     <use xlink:href="#m5fd5392785" x="267.316307" y="272.651405" style="fill: #d62728; stroke: #d62728"/>
     <use xlink:href="#m5fd5392785" x="325.288466" y="274.844292" style="fill: #d62728; stroke: #d62728"/>
     <use xlink:href="#m5fd5392785" x="383.260625" y="269.741791" style="fill: #d62728; stroke: #d62728"/>
     <use xlink:href="#m5fd5392785" x="441.232784" y="271.109146" style="fill: #d62728; stroke: #d62728"/>
     <use xlink:href="#m5fd5392785" x="499.204943" y="273.919276" style="fill: #d62728; stroke: #d62728"/>
     <use xlink:href="#m5fd5392785" x="557.177102" y="271.301689" style="fill: #d62728; stroke: #d62728"/>
     <use xlink:href="#m5fd5392785" x="615.149261" y="273.98175" style="fill: #d62728; stroke: #d62728"/>
     <use xlink:href="#m5fd5392785" x="673.12142" y="275.518229" style="fill: #d62728; stroke: #d62728"/>
    </g>
   </g>
   <g id="line2d_18">
    <path d="M 93.39983 48.39985 
L 151.371989 46.813736 
L 209.344148 153.030682 
L 267.316307 52.294058 
L 325.288466 157.081562 
L 383.260625 52.164964 
L 441.232784 51.153477 
L 499.204943 51.855318 
L 557.177102 53.703471 
L 615.149261 55.337997 
L 673.12142 51.273835 
" clip-path="url(#pcd6308a253)" style="fill: none; stroke: #9467bd; stroke-width: 2; stroke-linecap: square"/>
    <defs>
     <path id="m9f25b4003c" d="M 0 3 
C 0.795609 3 1.55874 2.683901 2.12132 2.12132 
C 2.683901 1.55874 3 0.795609 3 0 
C 3 -0.795609 2.683901 -1.55874 2.12132 -2.12132 
C 1.55874 -2.683901 0.795609 -3 0 -3 
C -0.795609 -3 -1.55874 -2.683901 -2.12132 -2.12132 
C -2.683901 -1.55874 -3 -0.795609 -3 0 
C -3 0.795609 -2.683901 1.55874 -2.12132 2.12132 
C -1.55874 2.683901 -0.795609 3 0 3 
z
" style="stroke: #9467bd"/>
    </defs>
    <g clip-path="url(#pcd6308a253)">
     <use xlink:href="#m9f25b4003c" x="93.39983" y="48.39985" style="fill: #9467bd; stroke: #9467bd"/>
     <use xlink:href="#m9f25b4003c" x="151.371989" y="46.813736" style="fill: #9467bd; stroke: #9467bd"/>
     <use xlink:href="#m9f25b4003c" x="209.344148" y="153.030682" style="fill: #9467bd; stroke: #9467bd"/>
     <use xlink:href="#m9f25b4003c" x="267.316307" y="52.294058" style="fill: #9467bd; stroke: #9467bd"/>
     <use xlink:href="#m9f25b4003c" x="325.288466" y="157.081562" style="fill: #9467bd; stroke: #9467bd"/>
     <use xlink:href="#m9f25b4003c" x="383.260625" y="52.164964" style="fill: #9467bd; stroke: #9467bd"/>
     <use xlink:href="#m9f25b4003c" x="441.232784" y="51.153477" style="fill: #9467bd; stroke: #9467bd"/>
     <use xlink:href="#m9f25b4003c" x="499.204943" y="51.855318" style="fill: #9467bd; stroke: #9467bd"/>
     <use xlink:href="#m9f25b4003c" x="557.177102" y="53.703471" style="fill: #9467bd; stroke: #9467bd"/>
     <use xlink:href="#m9f25b4003c" x="615.149261" y="55.337997" style="fill: #9467bd; stroke: #9467bd"/>
     <use xlink:href="#m9f25b4003c" x="673.12142" y="51.273835" style="fill: #9467bd; stroke: #9467bd"/>
    </g>
   </g>
   <g id="line2d_19">
    <path d="M 93.39983 276.212647 
L 151.371989 275.489575 
L 209.344148 275.171496 
L 267.316307 275.042187 
L 325.288466 277.041985 
L 383.260625 276.015531 
L 441.232784 275.640813 
L 499.204943 276.718893 
L 557.177102 275.947206 
L 615.149261 276.335666 
L 673.12142 275.410846 
" clip-path="url(#pcd6308a253)" style="fill: none; stroke: #8c564b; stroke-width: 2; stroke-linecap: square"/>
    <defs>
     <path id="mdfe682292a" d="M 0 3 
C 0.795609 3 1.55874 2.683901 2.12132 2.12132 
C 2.683901 1.55874 3 0.795609 3 0 
C 3 -0.795609 2.683901 -1.55874 2.12132 -2.12132 
C 1.55874 -2.683901 0.795609 -3 0 -3 
C -0.795609 -3 -1.55874 -2.683901 -2.12132 -2.12132 
C -2.683901 -1.55874 -3 -0.795609 -3 0 
C -3 0.795609 -2.683901 1.55874 -2.12132 2.12132 
C -1.55874 2.683901 -0.795609 3 0 3 
z
" style="stroke: #8c564b"/>
    </defs>
    <g clip-path="url(#pcd6308a253)">
     <use xlink:href="#mdfe682292a" x="93.39983" y="276.212647" style="fill: #8c564b; stroke: #8c564b"/>
     <use xlink:href="#mdfe682292a" x="151.371989" y="275.489575" style="fill: #8c564b; stroke: #8c564b"/>
     <use xlink:href="#mdfe682292a" x="209.344148" y="275.171496" style="fill: #8c564b; stroke: #8c564b"/>
     <use xlink:href="#mdfe682292a" x="267.316307" y="275.042187" style="fill: #8c564b; stroke: #8c564b"/>
     <use xlink:href="#mdfe682292a" x="325.288466" y="277.041985" style="fill: #8c564b; stroke: #8c564b"/>
     <use xlink:href="#mdfe682292a" x="383.260625" y="276.015531" style="fill: #8c564b; stroke: #8c564b"/>
     <use xlink:href="#mdfe682292a" x="441.232784" y="275.640813" style="fill: #8c564b; stroke: #8c564b"/>
     <use xlink:href="#mdfe682292a" x="499.204943" y="276.718893" style="fill: #8c564b; stroke: #8c564b"/>
     <use xlink:href="#mdfe682292a" x="557.177102" y="275.947206" style="fill: #8c564b; stroke: #8c564b"/>
     <use xlink:href="#mdfe682292a" x="615.149261" y="276.335666" style="fill: #8c564b; stroke: #8c564b"/>
     <use xlink:href="#mdfe682292a" x="673.12142" y="275.410846" style="fill: #8c564b; stroke: #8c564b"/>
    </g>
   </g>
   <g id="patch_3">
    <path d="M 64.41375 529.308125 
L 64.41375 23.837812 
" style="fill: none; stroke: #000000; stroke-width: 0.8; stroke-linejoin: miter; stroke-linecap: square"/>
   </g>
   <g id="patch_4">
    <path d="M 702.1075 529.308125 
L 702.1075 23.837812 
" style="fill: none; stroke: #000000; stroke-width: 0.8; stroke-linejoin: miter; stroke-linecap: square"/>
   </g>
   <g id="patch_5">
    <path d="M 64.41375 529.308125 
L 702.1075 529.308125 
" style="fill: none; stroke: #000000; stroke-width: 0.8; stroke-linejoin: miter; stroke-linecap: square"/>
   </g>
   <g id="patch_6">
    <path d="M 64.41375 23.837812 
L 702.1075 23.837812 
" style="fill: none; stroke: #000000; stroke-width: 0.8; stroke-linejoin: miter; stroke-linecap: square"/>
   </g>
   <g id="text_11">
    <text style="font: 700 14px 'DejaVu Sans', 'Bitstream Vera Sans', 'Computer Modern Sans Serif', 'Lucida Grande', 'Verdana', 'Geneva', 'Lucid', 'Arial', 'Helvetica', 'Avant Garde', sans-serif; text-anchor: middle" x="383.260625" y="17.837813" transform="rotate(-0 383.260625 17.837813)">Taskthroughput - Performance Trend</text>
   </g>
   <g id="legend_1">
    <g id="patch_7">
     <path d="M 740.992188 119.906563 
L 846.004688 119.906563 
Q 848.004688 119.906563 848.004688 117.906563 
L 848.004688 30.837813 
Q 848.004688 28.837813 846.004688 28.837813 
L 740.992188 28.837813 
Q 738.992188 28.837813 738.992188 30.837813 
L 738.992188 117.906563 
Q 738.992188 119.906563 740.992188 119.906563 
z
" style="fill: #ffffff; opacity: 0.8; stroke: #cccccc; stroke-linejoin: miter"/>
    </g>
    <g id="line2d_20">
     <path d="M 742.992188 36.93625 
L 752.992188 36.93625 
L 762.992188 36.93625 
" style="fill: none; stroke: #1f77b4; stroke-width: 2; stroke-linecap: square"/>
     <g>
      <use xlink:href="#m0df04bfe55" x="752.992188" y="36.93625" style="fill: #1f77b4; stroke: #1f77b4"/>
     </g>
    </g>
    <g id="text_12">
     <text style="font: 10px 'DejaVu Sans', 'Bitstream Vera Sans', 'Computer Modern Sans Serif', 'Lucida Grande', 'Verdana', 'Geneva', 'Lucid', 'Arial', 'Helvetica', 'Avant Garde', sans-serif; text-anchor: start" x="770.992188" y="40.43625" transform="rotate(-0 770.992188 40.43625)">gcc-14.2 - V1</text>
    </g>
    <g id="line2d_21">
     <path d="M 742.992188 51.614375 
L 752.992188 51.614375 
L 762.992188 51.614375 
" style="fill: none; stroke: #ff7f0e; stroke-width: 2; stroke-linecap: square"/>
     <g>
      <use xlink:href="#m8ce84e7364" x="752.992188" y="51.614375" style="fill: #ff7f0e; stroke: #ff7f0e"/>
     </g>
    </g>
    <g id="text_13">
     <text style="font: 10px 'DejaVu Sans', 'Bitstream Vera Sans', 'Computer Modern Sans Serif', 'Lucida Grande', 'Verdana', 'Geneva', 'Lucid', 'Arial', 'Helvetica', 'Avant Garde', sans-serif; text-anchor: start" x="770.992188" y="55.114375" transform="rotate(-0 770.992188 55.114375)">gcc-14.2 - V2</text>
    </g>
    <g id="line2d_22">
     <path d="M 742.992188 66.2925 
L 752.992188 66.2925 
L 762.992188 66.2925 
" style="fill: none; stroke: #2ca02c; stroke-width: 2; stroke-linecap: square"/>
     <g>
      <use xlink:href="#md5045c5571" x="752.992188" y="66.2925" style="fill: #2ca02c; stroke: #2ca02c"/>
     </g>
    </g>
    <g id="text_14">
     <text style="font: 10px 'DejaVu Sans', 'Bitstream Vera Sans', 'Computer Modern Sans Serif', 'Lucida Grande', 'Verdana', 'Geneva', 'Lucid', 'Arial', 'Helvetica', 'Avant Garde', sans-serif; text-anchor: start" x="770.992188" y="69.7925" transform="rotate(-0 770.992188 69.7925)">gcc-14.2 - TBB</text>
    </g>
    <g id="line2d_23">
     <path d="M 742.992188 80.970625 
L 752.992188 80.970625 
L 762.992188 80.970625 
" style="fill: none; stroke: #d62728; stroke-width: 2; stroke-linecap: square"/>
     <g>
      <use xlink:href="#m5fd5392785" x="752.992188" y="80.970625" style="fill: #d62728; stroke: #d62728"/>
     </g>
    </g>
    <g id="text_15">
     <text style="font: 10px 'DejaVu Sans', 'Bitstream Vera Sans', 'Computer Modern Sans Serif', 'Lucida Grande', 'Verdana', 'Geneva', 'Lucid', 'Arial', 'Helvetica', 'Avant Garde', sans-serif; text-anchor: start" x="770.992188" y="84.470625" transform="rotate(-0 770.992188 84.470625)">gcc-4.2 - V1</text>
    </g>
    <g id="line2d_24">
     <path d="M 742.992188 95.64875 
L 752.992188 95.64875 
L 762.992188 95.64875 
" style="fill: none; stroke: #9467bd; stroke-width: 2; stroke-linecap: square"/>
     <g>
      <use xlink:href="#m9f25b4003c" x="752.992188" y="95.64875" style="fill: #9467bd; stroke: #9467bd"/>
     </g>
    </g>
    <g id="text_16">
     <text style="font: 10px 'DejaVu Sans', 'Bitstream Vera Sans', 'Computer Modern Sans Serif', 'Lucida Grande', 'Verdana', 'Geneva', 'Lucid', 'Arial', 'Helvetica', 'Avant Garde', sans-serif; text-anchor: start" x="770.992188" y="99.14875" transform="rotate(-0 770.992188 99.14875)">gcc-4.2 - V2</text>
    </g>
    <g id="line2d_25">
     <path d="M 742.992188 110.326875 
L 752.992188 110.326875 
L 762.992188 110.326875 
" style="fill: none; stroke: #8c564b; stroke-width: 2; stroke-linecap: square"/>
     <g>
      <use xlink:href="#mdfe682292a" x="752.992188" y="110.326875" style="fill: #8c564b; stroke: #8c564b"/>
     </g>
    </g>
    <g id="text_17">
     <text style="font: 10px 'DejaVu Sans', 'Bitstream Vera Sans', 'Computer Modern Sans Serif', 'Lucida Grande', 'Verdana', 'Geneva', 'Lucid', 'Arial', 'Helvetica', 'Avant Garde', sans-serif; text-anchor: start" x="770.992188" y="113.826875" transform="rotate(-0 770.992188 113.826875)">gcc-4.2 - TBB</text>
    </g>
   </g>
  </g>
 </g>
 <defs>
  <clipPath id="pcd6308a253">
   <rect x="64.41375" y="23.837813" width="637.69375" height="505.470313"/>
  </clipPath>
 </defs>
</svg>
