<?xml version="1.0" encoding="utf-8" standalone="no"?>
<!DOCTYPE svg PUBLIC "-//W3C//DTD SVG 1.1//EN"
  "http://www.w3.org/Graphics/SVG/1.1/DTD/svg11.dtd">
<svg xmlns:xlink="http://www.w3.org/1999/xlink" width="847.981719pt" height="568.8pt" viewBox="0 0 847.981719 568.8" xmlns="http://www.w3.org/2000/svg" version="1.1">
 <metadata>
  <rdf:RDF xmlns:dc="http://purl.org/dc/elements/1.1/" xmlns:cc="http://creativecommons.org/ns#" xmlns:rdf="http://www.w3.org/1999/02/22-rdf-syntax-ns#">
   <cc:Work>
    <dc:type rdf:resource="http://purl.org/dc/dcmitype/StillImage"/>
    <dc:date>2025-08-28T15:03:35.045233</dc:date>
    <dc:format>image/svg+xml</dc:format>
    <dc:creator>
     <cc:Agent>
      <dc:title>Matplotlib v3.9.4, https://matplotlib.org/</dc:title>
     </cc:Agent>
    </dc:creator>
   </cc:Work>
  </rdf:RDF>
 </metadata>
 <defs>
  <style type="text/css">*{stroke-linejoin: round; stroke-linecap: butt}</style>
 </defs>
 <g id="figure_1">
  <g id="patch_1">
   <path d="M 0 568.8 
L 847.981719 568.8 
L 847.981719 0 
L 0 0 
z
" style="fill: #ffffff"/>
  </g>
  <g id="axes_1">
   <g id="patch_2">
    <path d="M 47.41375 529.308125 
L 540.648125 529.308125 
L 540.648125 23.837812 
L 47.41375 23.837812 
z
" style="fill: #ffffff"/>
   </g>
   <g id="matplotlib.axis_1">
    <g id="xtick_1">
     <g id="line2d_1">
      <path d="M 69.833494 529.308125 
L 69.833494 23.837812 
" clip-path="url(#pe6fb3d8f20)" style="fill: none; stroke: #b0b0b0; stroke-opacity: 0.3; stroke-width: 0.8; stroke-linecap: square"/>
     </g>
     <g id="line2d_2">
      <defs>
       <path id="m1bd69e2396" d="M 0 0 
L 0 3.5 
" style="stroke: #000000; stroke-width: 0.8"/>
      </defs>
      <g>
       <use xlink:href="#m1bd69e2396" x="69.833494" y="529.308125" style="stroke: #000000; stroke-width: 0.8"/>
      </g>
     </g>
     <g id="text_1">
      <text style="font: 10px 'DejaVu Sans', 'Bitstream Vera Sans', 'Computer Modern Sans Serif', 'Lucida Grande', 'Verdana', 'Geneva', 'Lucid', 'Arial', 'Helvetica', 'Avant Garde', sans-serif; text-anchor: middle" x="69.833494" y="543.906563" transform="rotate(-0 69.833494 543.906563)">96</text>
     </g>
    </g>
    <g id="xtick_2">
     <g id="line2d_3">
      <path d="M 144.565975 529.308125 
L 144.565975 23.837812 
" clip-path="url(#pe6fb3d8f20)" style="fill: none; stroke: #b0b0b0; stroke-opacity: 0.3; stroke-width: 0.8; stroke-linecap: square"/>
     </g>
     <g id="line2d_4">
      <g>
       <use xlink:href="#m1bd69e2396" x="144.565975" y="529.308125" style="stroke: #000000; stroke-width: 0.8"/>
      </g>
     </g>
     <g id="text_2">
      <text style="font: 10px 'DejaVu Sans', 'Bitstream Vera Sans', 'Computer Modern Sans Serif', 'Lucida Grande', 'Verdana', 'Geneva', 'Lucid', 'Arial', 'Helvetica', 'Avant Garde', sans-serif; text-anchor: middle" x="144.565975" y="543.906563" transform="rotate(-0 144.565975 543.906563)">98</text>
     </g>
    </g>
    <g id="xtick_3">
     <g id="line2d_5">
      <path d="M 219.298456 529.308125 
L 219.298456 23.837812 
" clip-path="url(#pe6fb3d8f20)" style="fill: none; stroke: #b0b0b0; stroke-opacity: 0.3; stroke-width: 0.8; stroke-linecap: square"/>
     </g>
     <g id="line2d_6">
      <g>
       <use xlink:href="#m1bd69e2396" x="219.298456" y="529.308125" style="stroke: #000000; stroke-width: 0.8"/>
      </g>
     </g>
     <g id="text_3">
      <text style="font: 10px 'DejaVu Sans', 'Bitstream Vera Sans', 'Computer Modern Sans Serif', 'Lucida Grande', 'Verdana', 'Geneva', 'Lucid', 'Arial', 'Helvetica', 'Avant Garde', sans-serif; text-anchor: middle" x="219.298456" y="543.906563" transform="rotate(-0 219.298456 543.906563)">100</text>
     </g>
    </g>
    <g id="xtick_4">
     <g id="line2d_7">
      <path d="M 294.030938 529.308125 
L 294.030938 23.837812 
" clip-path="url(#pe6fb3d8f20)" style="fill: none; stroke: #b0b0b0; stroke-opacity: 0.3; stroke-width: 0.8; stroke-linecap: square"/>
     </g>
     <g id="line2d_8">
      <g>
       <use xlink:href="#m1bd69e2396" x="294.030938" y="529.308125" style="stroke: #000000; stroke-width: 0.8"/>
      </g>
     </g>
     <g id="text_4">
      <text style="font: 10px 'DejaVu Sans', 'Bitstream Vera Sans', 'Computer Modern Sans Serif', 'Lucida Grande', 'Verdana', 'Geneva', 'Lucid', 'Arial', 'Helvetica', 'Avant Garde', sans-serif; text-anchor: middle" x="294.030938" y="543.906563" transform="rotate(-0 294.030938 543.906563)">102</text>
     </g>
    </g>
    <g id="xtick_5">
     <g id="line2d_9">
      <path d="M 368.763419 529.308125 
L 368.763419 23.837812 
" clip-path="url(#pe6fb3d8f20)" style="fill: none; stroke: #b0b0b0; stroke-opacity: 0.3; stroke-width: 0.8; stroke-linecap: square"/>
     </g>
     <g id="line2d_10">
      <g>
       <use xlink:href="#m1bd69e2396" x="368.763419" y="529.308125" style="stroke: #000000; stroke-width: 0.8"/>
      </g>
     </g>
     <g id="text_5">
      <text style="font: 10px 'DejaVu Sans', 'Bitstream Vera Sans', 'Computer Modern Sans Serif', 'Lucida Grande', 'Verdana', 'Geneva', 'Lucid', 'Arial', 'Helvetica', 'Avant Garde', sans-serif; text-anchor: middle" x="368.763419" y="543.906563" transform="rotate(-0 368.763419 543.906563)">104</text>
     </g>
    </g>
    <g id="xtick_6">
     <g id="line2d_11">
      <path d="M 443.4959 529.308125 
L 443.4959 23.837812 
" clip-path="url(#pe6fb3d8f20)" style="fill: none; stroke: #b0b0b0; stroke-opacity: 0.3; stroke-width: 0.8; stroke-linecap: square"/>
     </g>
     <g id="line2d_12">
      <g>
       <use xlink:href="#m1bd69e2396" x="443.4959" y="529.308125" style="stroke: #000000; stroke-width: 0.8"/>
      </g>
     </g>
     <g id="text_6">
      <text style="font: 10px 'DejaVu Sans', 'Bitstream Vera Sans', 'Computer Modern Sans Serif', 'Lucida Grande', 'Verdana', 'Geneva', 'Lucid', 'Arial', 'Helvetica', 'Avant Garde', sans-serif; text-anchor: middle" x="443.4959" y="543.906563" transform="rotate(-0 443.4959 543.906563)">106</text>
     </g>
    </g>
    <g id="xtick_7">
     <g id="line2d_13">
      <path d="M 518.228381 529.308125 
L 518.228381 23.837812 
" clip-path="url(#pe6fb3d8f20)" style="fill: none; stroke: #b0b0b0; stroke-opacity: 0.3; stroke-width: 0.8; stroke-linecap: square"/>
     </g>
     <g id="line2d_14">
      <g>
       <use xlink:href="#m1bd69e2396" x="518.228381" y="529.308125" style="stroke: #000000; stroke-width: 0.8"/>
      </g>
     </g>
     <g id="text_7">
      <text style="font: 10px 'DejaVu Sans', 'Bitstream Vera Sans', 'Computer Modern Sans Serif', 'Lucida Grande', 'Verdana', 'Geneva', 'Lucid', 'Arial', 'Helvetica', 'Avant Garde', sans-serif; text-anchor: middle" x="518.228381" y="543.906563" transform="rotate(-0 518.228381 543.906563)">108</text>
     </g>
    </g>
    <g id="text_8">
     <text style="font: 12px 'DejaVu Sans', 'Bitstream Vera Sans', 'Computer Modern Sans Serif', 'Lucida Grande', 'Verdana', 'Geneva', 'Lucid', 'Arial', 'Helvetica', 'Avant Garde', sans-serif; text-anchor: middle" x="294.030937" y="559.104375" transform="rotate(-0 294.030937 559.104375)">Build Number</text>
    </g>
   </g>
   <g id="matplotlib.axis_2">
    <g id="ytick_1">
     <g id="line2d_15">
      <path d="M 47.41375 518.657845 
L 540.648125 518.657845 
" clip-path="url(#pe6fb3d8f20)" style="fill: none; stroke: #b0b0b0; stroke-opacity: 0.3; stroke-width: 0.8; stroke-linecap: square"/>
     </g>
     <g id="line2d_16">
      <defs>
       <path id="m420f3070a9" d="M 0 0 
L -3.5 0 
" style="stroke: #000000; stroke-width: 0.8"/>
      </defs>
      <g>
       <use xlink:href="#m420f3070a9" x="47.41375" y="518.657845" style="stroke: #000000; stroke-width: 0.8"/>
      </g>
     </g>
     <g id="text_9">
      <!-- $\mathdefault{10^{5}}$ -->
      <g transform="translate(22.81375 522.457063)">
       <text>
        <tspan style="font: 10px 'DejaVu Sans'" x="0 6.362305" y="-0.06406250000000036">10</tspan>
        <tspan style="font: 7px 'DejaVu Sans'" x="12.820312" y="-3.8921875000000004">5</tspan>
       </text>
      </g>
     </g>
    </g>
    <g id="ytick_2">
     <g id="line2d_17">
      <path d="M 47.41375 361.451534 
L 540.648125 361.451534 
" clip-path="url(#pe6fb3d8f20)" style="fill: none; stroke: #b0b0b0; stroke-opacity: 0.3; stroke-width: 0.8; stroke-linecap: square"/>
     </g>
     <g id="line2d_18">
      <g>
       <use xlink:href="#m420f3070a9" x="47.41375" y="361.451534" style="stroke: #000000; stroke-width: 0.8"/>
      </g>
     </g>
     <g id="text_10">
      <!-- $\mathdefault{10^{6}}$ -->
      <g transform="translate(22.81375 365.250753)">
       <text>
        <tspan style="font: 10px 'DejaVu Sans'" x="0 6.362305" y="-0.9765625">10</tspan>
        <tspan style="font: 7px 'DejaVu Sans'" x="12.820312" y="-4.8046875">6</tspan>
       </text>
      </g>
     </g>
    </g>
    <g id="ytick_3">
     <g id="line2d_19">
      <path d="M 47.41375 204.245224 
L 540.648125 204.245224 
" clip-path="url(#pe6fb3d8f20)" style="fill: none; stroke: #b0b0b0; stroke-opacity: 0.3; stroke-width: 0.8; stroke-linecap: square"/>
     </g>
     <g id="line2d_20">
      <g>
       <use xlink:href="#m420f3070a9" x="47.41375" y="204.245224" style="stroke: #000000; stroke-width: 0.8"/>
      </g>
     </g>
     <g id="text_11">
      <!-- $\mathdefault{10^{7}}$ -->
      <g transform="translate(22.81375 208.044443)">
       <text>
        <tspan style="font: 10px 'DejaVu Sans'" x="0 6.362305" y="-0.06406250000000036">10</tspan>
        <tspan style="font: 7px 'DejaVu Sans'" x="12.820312" y="-3.8921875000000004">7</tspan>
       </text>
      </g>
     </g>
    </g>
    <g id="ytick_4">
     <g id="line2d_21">
      <path d="M 47.41375 47.038914 
L 540.648125 47.038914 
" clip-path="url(#pe6fb3d8f20)" style="fill: none; stroke: #b0b0b0; stroke-opacity: 0.3; stroke-width: 0.8; stroke-linecap: square"/>
     </g>
     <g id="line2d_22">
      <g>
       <use xlink:href="#m420f3070a9" x="47.41375" y="47.038914" style="stroke: #000000; stroke-width: 0.8"/>
      </g>
     </g>
     <g id="text_12">
      <!-- $\mathdefault{10^{8}}$ -->
      <g transform="translate(22.81375 50.838133)">
       <text>
        <tspan style="font: 10px 'DejaVu Sans'" x="0 6.362305" y="-0.9765625">10</tspan>
        <tspan style="font: 7px 'DejaVu Sans'" x="12.820312" y="-4.8046875">8</tspan>
       </text>
      </g>
     </g>
    </g>
    <g id="ytick_5">
     <g id="line2d_23">
      <defs>
       <path id="m9d5c54914d" d="M 0 0 
L -2 0 
" style="stroke: #000000; stroke-width: 0.6"/>
      </defs>
      <g>
       <use xlink:href="#m9d5c54914d" x="47.41375" y="525.851211" style="stroke: #000000; stroke-width: 0.6"/>
      </g>
     </g>
    </g>
    <g id="ytick_6">
     <g id="line2d_24">
      <g>
       <use xlink:href="#m9d5c54914d" x="47.41375" y="471.33403" style="stroke: #000000; stroke-width: 0.6"/>
      </g>
     </g>
    </g>
    <g id="ytick_7">
     <g id="line2d_25">
      <g>
       <use xlink:href="#m9d5c54914d" x="47.41375" y="443.651373" style="stroke: #000000; stroke-width: 0.6"/>
      </g>
     </g>
    </g>
    <g id="ytick_8">
     <g id="line2d_26">
      <g>
       <use xlink:href="#m9d5c54914d" x="47.41375" y="424.010215" style="stroke: #000000; stroke-width: 0.6"/>
      </g>
     </g>
    </g>
    <g id="ytick_9">
     <g id="line2d_27">
      <g>
       <use xlink:href="#m9d5c54914d" x="47.41375" y="408.775349" style="stroke: #000000; stroke-width: 0.6"/>
      </g>
     </g>
    </g>
    <g id="ytick_10">
     <g id="line2d_28">
      <g>
       <use xlink:href="#m9d5c54914d" x="47.41375" y="396.327558" style="stroke: #000000; stroke-width: 0.6"/>
      </g>
     </g>
    </g>
    <g id="ytick_11">
     <g id="line2d_29">
      <g>
       <use xlink:href="#m9d5c54914d" x="47.41375" y="385.8031" style="stroke: #000000; stroke-width: 0.6"/>
      </g>
     </g>
    </g>
    <g id="ytick_12">
     <g id="line2d_30">
      <g>
       <use xlink:href="#m9d5c54914d" x="47.41375" y="376.6864" style="stroke: #000000; stroke-width: 0.6"/>
      </g>
     </g>
    </g>
    <g id="ytick_13">
     <g id="line2d_31">
      <g>
       <use xlink:href="#m9d5c54914d" x="47.41375" y="368.644901" style="stroke: #000000; stroke-width: 0.6"/>
      </g>
     </g>
    </g>
    <g id="ytick_14">
     <g id="line2d_32">
      <g>
       <use xlink:href="#m9d5c54914d" x="47.41375" y="314.12772" style="stroke: #000000; stroke-width: 0.6"/>
      </g>
     </g>
    </g>
    <g id="ytick_15">
     <g id="line2d_33">
      <g>
       <use xlink:href="#m9d5c54914d" x="47.41375" y="286.445062" style="stroke: #000000; stroke-width: 0.6"/>
      </g>
     </g>
    </g>
    <g id="ytick_16">
     <g id="line2d_34">
      <g>
       <use xlink:href="#m9d5c54914d" x="47.41375" y="266.803905" style="stroke: #000000; stroke-width: 0.6"/>
      </g>
     </g>
    </g>
    <g id="ytick_17">
     <g id="line2d_35">
      <g>
       <use xlink:href="#m9d5c54914d" x="47.41375" y="251.569039" style="stroke: #000000; stroke-width: 0.6"/>
      </g>
     </g>
    </g>
    <g id="ytick_18">
     <g id="line2d_36">
      <g>
       <use xlink:href="#m9d5c54914d" x="47.41375" y="239.121248" style="stroke: #000000; stroke-width: 0.6"/>
      </g>
     </g>
    </g>
    <g id="ytick_19">
     <g id="line2d_37">
      <g>
       <use xlink:href="#m9d5c54914d" x="47.41375" y="228.59679" style="stroke: #000000; stroke-width: 0.6"/>
      </g>
     </g>
    </g>
    <g id="ytick_20">
     <g id="line2d_38">
      <g>
       <use xlink:href="#m9d5c54914d" x="47.41375" y="219.48009" style="stroke: #000000; stroke-width: 0.6"/>
      </g>
     </g>
    </g>
    <g id="ytick_21">
     <g id="line2d_39">
      <g>
       <use xlink:href="#m9d5c54914d" x="47.41375" y="211.438591" style="stroke: #000000; stroke-width: 0.6"/>
      </g>
     </g>
    </g>
    <g id="ytick_22">
     <g id="line2d_40">
      <g>
       <use xlink:href="#m9d5c54914d" x="47.41375" y="156.921409" style="stroke: #000000; stroke-width: 0.6"/>
      </g>
     </g>
    </g>
    <g id="ytick_23">
     <g id="line2d_41">
      <g>
       <use xlink:href="#m9d5c54914d" x="47.41375" y="129.238752" style="stroke: #000000; stroke-width: 0.6"/>
      </g>
     </g>
    </g>
    <g id="ytick_24">
     <g id="line2d_42">
      <g>
       <use xlink:href="#m9d5c54914d" x="47.41375" y="109.597595" style="stroke: #000000; stroke-width: 0.6"/>
      </g>
     </g>
    </g>
    <g id="ytick_25">
     <g id="line2d_43">
      <g>
       <use xlink:href="#m9d5c54914d" x="47.41375" y="94.362729" style="stroke: #000000; stroke-width: 0.6"/>
      </g>
     </g>
    </g>
    <g id="ytick_26">
     <g id="line2d_44">
      <g>
       <use xlink:href="#m9d5c54914d" x="47.41375" y="81.914937" style="stroke: #000000; stroke-width: 0.6"/>
      </g>
     </g>
    </g>
    <g id="ytick_27">
     <g id="line2d_45">
      <g>
       <use xlink:href="#m9d5c54914d" x="47.41375" y="71.39048" style="stroke: #000000; stroke-width: 0.6"/>
      </g>
     </g>
    </g>
    <g id="ytick_28">
     <g id="line2d_46">
      <g>
       <use xlink:href="#m9d5c54914d" x="47.41375" y="62.27378" style="stroke: #000000; stroke-width: 0.6"/>
      </g>
     </g>
    </g>
    <g id="ytick_29">
     <g id="line2d_47">
      <g>
       <use xlink:href="#m9d5c54914d" x="47.41375" y="54.23228" style="stroke: #000000; stroke-width: 0.6"/>
      </g>
     </g>
    </g>
    <g id="text_13">
     <text style="font: 12px 'DejaVu Sans', 'Bitstream Vera Sans', 'Computer Modern Sans Serif', 'Lucida Grande', 'Verdana', 'Geneva', 'Lucid', 'Arial', 'Helvetica', 'Avant Garde', sans-serif; text-anchor: middle" x="16.318125" y="276.572969" transform="rotate(-90 16.318125 276.572969)">Median Elapsed Time (nanoseconds)</text>
    </g>
   </g>
   <g id="line2d_48">
    <path d="M 69.833494 46.813736 
L 107.199735 46.886938 
L 181.932216 46.884901 
L 219.298456 46.87655 
L 256.664697 46.885565 
L 294.030938 46.88452 
L 331.397178 46.882538 
L 368.763419 46.885315 
L 406.129659 46.874772 
L 443.4959 46.879675 
L 518.228381 46.874085 
" clip-path="url(#pe6fb3d8f20)" style="fill: none; stroke: #1f77b4; stroke-width: 2; stroke-linecap: square"/>
    <defs>
     <path id="m60781def9b" d="M 0 3 
C 0.795609 3 1.55874 2.683901 2.12132 2.12132 
C 2.683901 1.55874 3 0.795609 3 0 
C 3 -0.795609 2.683901 -1.55874 2.12132 -2.12132 
C 1.55874 -2.683901 0.795609 -3 0 -3 
C -0.795609 -3 -1.55874 -2.683901 -2.12132 -2.12132 
C -2.683901 -1.55874 -3 -0.795609 -3 0 
C -3 0.795609 -2.683901 1.55874 -2.12132 2.12132 
C -1.55874 2.683901 -0.795609 3 0 3 
z
" style="stroke: #1f77b4"/>
    </defs>
    <g clip-path="url(#pe6fb3d8f20)">
     <use xlink:href="#m60781def9b" x="69.833494" y="46.813736" style="fill: #1f77b4; stroke: #1f77b4"/>
     <use xlink:href="#m60781def9b" x="107.199735" y="46.886938" style="fill: #1f77b4; stroke: #1f77b4"/>
     <use xlink:href="#m60781def9b" x="181.932216" y="46.884901" style="fill: #1f77b4; stroke: #1f77b4"/>
     <use xlink:href="#m60781def9b" x="219.298456" y="46.87655" style="fill: #1f77b4; stroke: #1f77b4"/>
     <use xlink:href="#m60781def9b" x="256.664697" y="46.885565" style="fill: #1f77b4; stroke: #1f77b4"/>
     <use xlink:href="#m60781def9b" x="294.030938" y="46.88452" style="fill: #1f77b4; stroke: #1f77b4"/>
     <use xlink:href="#m60781def9b" x="331.397178" y="46.882538" style="fill: #1f77b4; stroke: #1f77b4"/>
     <use xlink:href="#m60781def9b" x="368.763419" y="46.885315" style="fill: #1f77b4; stroke: #1f77b4"/>
     <use xlink:href="#m60781def9b" x="406.129659" y="46.874772" style="fill: #1f77b4; stroke: #1f77b4"/>
     <use xlink:href="#m60781def9b" x="443.4959" y="46.879675" style="fill: #1f77b4; stroke: #1f77b4"/>
     <use xlink:href="#m60781def9b" x="518.228381" y="46.874085" style="fill: #1f77b4; stroke: #1f77b4"/>
    </g>
   </g>
   <g id="line2d_49">
    <path d="M 69.833494 319.004611 
L 107.199735 320.360843 
L 181.932216 319.636825 
L 219.298456 319.999629 
L 256.664697 320.356737 
L 294.030938 319.999201 
L 331.397178 320.259041 
L 368.763419 320.206522 
L 406.129659 319.662467 
L 443.4959 320.38829 
L 518.228381 320.043803 
" clip-path="url(#pe6fb3d8f20)" style="fill: none; stroke: #ff7f0e; stroke-width: 2; stroke-linecap: square"/>
    <defs>
     <path id="m754183b44c" d="M 0 3 
C 0.795609 3 1.55874 2.683901 2.12132 2.12132 
C 2.683901 1.55874 3 0.795609 3 0 
C 3 -0.795609 2.683901 -1.55874 2.12132 -2.12132 
C 1.55874 -2.683901 0.795609 -3 0 -3 
C -0.795609 -3 -1.55874 -2.683901 -2.12132 -2.12132 
C -2.683901 -1.55874 -3 -0.795609 -3 0 
C -3 0.795609 -2.683901 1.55874 -2.12132 2.12132 
C -1.55874 2.683901 -0.795609 3 0 3 
z
" style="stroke: #ff7f0e"/>
    </defs>
    <g clip-path="url(#pe6fb3d8f20)">
     <use xlink:href="#m754183b44c" x="69.833494" y="319.004611" style="fill: #ff7f0e; stroke: #ff7f0e"/>
     <use xlink:href="#m754183b44c" x="107.199735" y="320.360843" style="fill: #ff7f0e; stroke: #ff7f0e"/>
     <use xlink:href="#m754183b44c" x="181.932216" y="319.636825" style="fill: #ff7f0e; stroke: #ff7f0e"/>
     <use xlink:href="#m754183b44c" x="219.298456" y="319.999629" style="fill: #ff7f0e; stroke: #ff7f0e"/>
     <use xlink:href="#m754183b44c" x="256.664697" y="320.356737" style="fill: #ff7f0e; stroke: #ff7f0e"/>
     <use xlink:href="#m754183b44c" x="294.030938" y="319.999201" style="fill: #ff7f0e; stroke: #ff7f0e"/>
     <use xlink:href="#m754183b44c" x="331.397178" y="320.259041" style="fill: #ff7f0e; stroke: #ff7f0e"/>
     <use xlink:href="#m754183b44c" x="368.763419" y="320.206522" style="fill: #ff7f0e; stroke: #ff7f0e"/>
     <use xlink:href="#m754183b44c" x="406.129659" y="319.662467" style="fill: #ff7f0e; stroke: #ff7f0e"/>
     <use xlink:href="#m754183b44c" x="443.4959" y="320.38829" style="fill: #ff7f0e; stroke: #ff7f0e"/>
     <use xlink:href="#m754183b44c" x="518.228381" y="320.043803" style="fill: #ff7f0e; stroke: #ff7f0e"/>
    </g>
   </g>
   <g id="line2d_50">
    <path d="M 69.833494 46.854989 
L 107.199735 46.849498 
L 181.932216 46.832617 
L 219.298456 46.841864 
L 256.664697 46.854505 
L 294.030938 46.847579 
L 331.397178 46.844188 
L 368.763419 46.84886 
L 406.129659 46.858535 
L 443.4959 46.850154 
L 518.228381 46.855098 
" clip-path="url(#pe6fb3d8f20)" style="fill: none; stroke: #2ca02c; stroke-width: 2; stroke-linecap: square"/>
    <defs>
     <path id="m58a4717ddb" d="M 0 3 
C 0.795609 3 1.55874 2.683901 2.12132 2.12132 
C 2.683901 1.55874 3 0.795609 3 0 
C 3 -0.795609 2.683901 -1.55874 2.12132 -2.12132 
C 1.55874 -2.683901 0.795609 -3 0 -3 
C -0.795609 -3 -1.55874 -2.683901 -2.12132 -2.12132 
C -2.683901 -1.55874 -3 -0.795609 -3 0 
C -3 0.795609 -2.683901 1.55874 -2.12132 2.12132 
C -1.55874 2.683901 -0.795609 3 0 3 
z
" style="stroke: #2ca02c"/>
    </defs>
    <g clip-path="url(#pe6fb3d8f20)">
     <use xlink:href="#m58a4717ddb" x="69.833494" y="46.854989" style="fill: #2ca02c; stroke: #2ca02c"/>
     <use xlink:href="#m58a4717ddb" x="107.199735" y="46.849498" style="fill: #2ca02c; stroke: #2ca02c"/>
     <use xlink:href="#m58a4717ddb" x="181.932216" y="46.832617" style="fill: #2ca02c; stroke: #2ca02c"/>
     <use xlink:href="#m58a4717ddb" x="219.298456" y="46.841864" style="fill: #2ca02c; stroke: #2ca02c"/>
     <use xlink:href="#m58a4717ddb" x="256.664697" y="46.854505" style="fill: #2ca02c; stroke: #2ca02c"/>
     <use xlink:href="#m58a4717ddb" x="294.030938" y="46.847579" style="fill: #2ca02c; stroke: #2ca02c"/>
     <use xlink:href="#m58a4717ddb" x="331.397178" y="46.844188" style="fill: #2ca02c; stroke: #2ca02c"/>
     <use xlink:href="#m58a4717ddb" x="368.763419" y="46.84886" style="fill: #2ca02c; stroke: #2ca02c"/>
     <use xlink:href="#m58a4717ddb" x="406.129659" y="46.858535" style="fill: #2ca02c; stroke: #2ca02c"/>
     <use xlink:href="#m58a4717ddb" x="443.4959" y="46.850154" style="fill: #2ca02c; stroke: #2ca02c"/>
     <use xlink:href="#m58a4717ddb" x="518.228381" y="46.855098" style="fill: #2ca02c; stroke: #2ca02c"/>
    </g>
   </g>
   <g id="line2d_51">
    <path d="M 69.833494 351.243795 
L 107.199735 351.161212 
L 181.932216 350.873877 
L 219.298456 350.964597 
L 256.664697 351.219741 
L 294.030938 350.991437 
L 331.397178 351.135309 
L 368.763419 350.926308 
L 406.129659 351.774231 
L 443.4959 350.966131 
L 518.228381 351.272898 
" clip-path="url(#pe6fb3d8f20)" style="fill: none; stroke: #d62728; stroke-width: 2; stroke-linecap: square"/>
    <defs>
     <path id="maf7d8cf00a" d="M 0 3 
C 0.795609 3 1.55874 2.683901 2.12132 2.12132 
C 2.683901 1.55874 3 0.795609 3 0 
C 3 -0.795609 2.683901 -1.55874 2.12132 -2.12132 
C 1.55874 -2.683901 0.795609 -3 0 -3 
C -0.795609 -3 -1.55874 -2.683901 -2.12132 -2.12132 
C -2.683901 -1.55874 -3 -0.795609 -3 0 
C -3 0.795609 -2.683901 1.55874 -2.12132 2.12132 
C -1.55874 2.683901 -0.795609 3 0 3 
z
" style="stroke: #d62728"/>
    </defs>
    <g clip-path="url(#pe6fb3d8f20)">
     <use xlink:href="#maf7d8cf00a" x="69.833494" y="351.243795" style="fill: #d62728; stroke: #d62728"/>
     <use xlink:href="#maf7d8cf00a" x="107.199735" y="351.161212" style="fill: #d62728; stroke: #d62728"/>
     <use xlink:href="#maf7d8cf00a" x="181.932216" y="350.873877" style="fill: #d62728; stroke: #d62728"/>
     <use xlink:href="#maf7d8cf00a" x="219.298456" y="350.964597" style="fill: #d62728; stroke: #d62728"/>
     <use xlink:href="#maf7d8cf00a" x="256.664697" y="351.219741" style="fill: #d62728; stroke: #d62728"/>
     <use xlink:href="#maf7d8cf00a" x="294.030938" y="350.991437" style="fill: #d62728; stroke: #d62728"/>
     <use xlink:href="#maf7d8cf00a" x="331.397178" y="351.135309" style="fill: #d62728; stroke: #d62728"/>
     <use xlink:href="#maf7d8cf00a" x="368.763419" y="350.926308" style="fill: #d62728; stroke: #d62728"/>
     <use xlink:href="#maf7d8cf00a" x="406.129659" y="351.774231" style="fill: #d62728; stroke: #d62728"/>
     <use xlink:href="#maf7d8cf00a" x="443.4959" y="350.966131" style="fill: #d62728; stroke: #d62728"/>
     <use xlink:href="#maf7d8cf00a" x="518.228381" y="351.272898" style="fill: #d62728; stroke: #d62728"/>
    </g>
   </g>
   <g id="line2d_52">
    <path d="M 69.833494 505.68314 
L 107.199735 506.059164 
L 181.932216 505.255406 
L 219.298456 504.972495 
L 256.664697 505.602397 
L 294.030938 504.65248 
L 331.397178 505.739734 
L 368.763419 506.332202 
L 406.129659 504.492895 
L 443.4959 504.27542 
L 518.228381 505.502884 
" clip-path="url(#pe6fb3d8f20)" style="fill: none; stroke: #9467bd; stroke-width: 2; stroke-linecap: square"/>
    <defs>
     <path id="mfb77779ce1" d="M 0 3 
C 0.795609 3 1.55874 2.683901 2.12132 2.12132 
C 2.683901 1.55874 3 0.795609 3 0 
C 3 -0.795609 2.683901 -1.55874 2.12132 -2.12132 
C 1.55874 -2.683901 0.795609 -3 0 -3 
C -0.795609 -3 -1.55874 -2.683901 -2.12132 -2.12132 
C -2.683901 -1.55874 -3 -0.795609 -3 0 
C -3 0.795609 -2.683901 1.55874 -2.12132 2.12132 
C -1.55874 2.683901 -0.795609 3 0 3 
z
" style="stroke: #9467bd"/>
    </defs>
    <g clip-path="url(#pe6fb3d8f20)">
     <use xlink:href="#mfb77779ce1" x="69.833494" y="505.68314" style="fill: #9467bd; stroke: #9467bd"/>
     <use xlink:href="#mfb77779ce1" x="107.199735" y="506.059164" style="fill: #9467bd; stroke: #9467bd"/>
     <use xlink:href="#mfb77779ce1" x="181.932216" y="505.255406" style="fill: #9467bd; stroke: #9467bd"/>
     <use xlink:href="#mfb77779ce1" x="219.298456" y="504.972495" style="fill: #9467bd; stroke: #9467bd"/>
     <use xlink:href="#mfb77779ce1" x="256.664697" y="505.602397" style="fill: #9467bd; stroke: #9467bd"/>
     <use xlink:href="#mfb77779ce1" x="294.030938" y="504.65248" style="fill: #9467bd; stroke: #9467bd"/>
     <use xlink:href="#mfb77779ce1" x="331.397178" y="505.739734" style="fill: #9467bd; stroke: #9467bd"/>
     <use xlink:href="#mfb77779ce1" x="368.763419" y="506.332202" style="fill: #9467bd; stroke: #9467bd"/>
     <use xlink:href="#mfb77779ce1" x="406.129659" y="504.492895" style="fill: #9467bd; stroke: #9467bd"/>
     <use xlink:href="#mfb77779ce1" x="443.4959" y="504.27542" style="fill: #9467bd; stroke: #9467bd"/>
     <use xlink:href="#mfb77779ce1" x="518.228381" y="505.502884" style="fill: #9467bd; stroke: #9467bd"/>
    </g>
   </g>
   <g id="line2d_53">
    <path d="M 69.833494 46.878744 
L 107.199735 46.868711 
L 181.932216 46.881747 
L 219.298456 46.877248 
L 256.664697 46.883477 
L 294.030938 46.884832 
L 331.397178 46.884005 
L 368.763419 46.881528 
L 406.129659 46.872552 
L 443.4959 46.878803 
L 518.228381 46.883627 
" clip-path="url(#pe6fb3d8f20)" style="fill: none; stroke: #8c564b; stroke-width: 2; stroke-linecap: square"/>
    <defs>
     <path id="m60a66e2033" d="M 0 3 
C 0.795609 3 1.55874 2.683901 2.12132 2.12132 
C 2.683901 1.55874 3 0.795609 3 0 
C 3 -0.795609 2.683901 -1.55874 2.12132 -2.12132 
C 1.55874 -2.683901 0.795609 -3 0 -3 
C -0.795609 -3 -1.55874 -2.683901 -2.12132 -2.12132 
C -2.683901 -1.55874 -3 -0.795609 -3 0 
C -3 0.795609 -2.683901 1.55874 -2.12132 2.12132 
C -1.55874 2.683901 -0.795609 3 0 3 
z
" style="stroke: #8c564b"/>
    </defs>
    <g clip-path="url(#pe6fb3d8f20)">
     <use xlink:href="#m60a66e2033" x="69.833494" y="46.878744" style="fill: #8c564b; stroke: #8c564b"/>
     <use xlink:href="#m60a66e2033" x="107.199735" y="46.868711" style="fill: #8c564b; stroke: #8c564b"/>
     <use xlink:href="#m60a66e2033" x="181.932216" y="46.881747" style="fill: #8c564b; stroke: #8c564b"/>
     <use xlink:href="#m60a66e2033" x="219.298456" y="46.877248" style="fill: #8c564b; stroke: #8c564b"/>
     <use xlink:href="#m60a66e2033" x="256.664697" y="46.883477" style="fill: #8c564b; stroke: #8c564b"/>
     <use xlink:href="#m60a66e2033" x="294.030938" y="46.884832" style="fill: #8c564b; stroke: #8c564b"/>
     <use xlink:href="#m60a66e2033" x="331.397178" y="46.884005" style="fill: #8c564b; stroke: #8c564b"/>
     <use xlink:href="#m60a66e2033" x="368.763419" y="46.881528" style="fill: #8c564b; stroke: #8c564b"/>
     <use xlink:href="#m60a66e2033" x="406.129659" y="46.872552" style="fill: #8c564b; stroke: #8c564b"/>
     <use xlink:href="#m60a66e2033" x="443.4959" y="46.878803" style="fill: #8c564b; stroke: #8c564b"/>
     <use xlink:href="#m60a66e2033" x="518.228381" y="46.883627" style="fill: #8c564b; stroke: #8c564b"/>
    </g>
   </g>
   <g id="line2d_54">
    <path d="M 69.833494 321.188032 
L 107.199735 321.781194 
L 181.932216 321.847877 
L 219.298456 322.143296 
L 256.664697 322.270945 
L 294.030938 321.850339 
L 331.397178 321.083558 
L 368.763419 321.601218 
L 406.129659 322.39117 
L 443.4959 321.582254 
L 518.228381 321.809928 
" clip-path="url(#pe6fb3d8f20)" style="fill: none; stroke: #e377c2; stroke-width: 2; stroke-linecap: square"/>
    <defs>
     <path id="mba5fb7c39b" d="M 0 3 
C 0.795609 3 1.55874 2.683901 2.12132 2.12132 
C 2.683901 1.55874 3 0.795609 3 0 
C 3 -0.795609 2.683901 -1.55874 2.12132 -2.12132 
C 1.55874 -2.683901 0.795609 -3 0 -3 
C -0.795609 -3 -1.55874 -2.683901 -2.12132 -2.12132 
C -2.683901 -1.55874 -3 -0.795609 -3 0 
C -3 0.795609 -2.683901 1.55874 -2.12132 2.12132 
C -1.55874 2.683901 -0.795609 3 0 3 
z
" style="stroke: #e377c2"/>
    </defs>
    <g clip-path="url(#pe6fb3d8f20)">
     <use xlink:href="#mba5fb7c39b" x="69.833494" y="321.188032" style="fill: #e377c2; stroke: #e377c2"/>
     <use xlink:href="#mba5fb7c39b" x="107.199735" y="321.781194" style="fill: #e377c2; stroke: #e377c2"/>
     <use xlink:href="#mba5fb7c39b" x="181.932216" y="321.847877" style="fill: #e377c2; stroke: #e377c2"/>
     <use xlink:href="#mba5fb7c39b" x="219.298456" y="322.143296" style="fill: #e377c2; stroke: #e377c2"/>
     <use xlink:href="#mba5fb7c39b" x="256.664697" y="322.270945" style="fill: #e377c2; stroke: #e377c2"/>
     <use xlink:href="#mba5fb7c39b" x="294.030938" y="321.850339" style="fill: #e377c2; stroke: #e377c2"/>
     <use xlink:href="#mba5fb7c39b" x="331.397178" y="321.083558" style="fill: #e377c2; stroke: #e377c2"/>
     <use xlink:href="#mba5fb7c39b" x="368.763419" y="321.601218" style="fill: #e377c2; stroke: #e377c2"/>
     <use xlink:href="#mba5fb7c39b" x="406.129659" y="322.39117" style="fill: #e377c2; stroke: #e377c2"/>
     <use xlink:href="#mba5fb7c39b" x="443.4959" y="321.582254" style="fill: #e377c2; stroke: #e377c2"/>
     <use xlink:href="#mba5fb7c39b" x="518.228381" y="321.809928" style="fill: #e377c2; stroke: #e377c2"/>
    </g>
   </g>
   <g id="line2d_55">
    <path d="M 69.833494 46.879735 
L 107.199735 46.865409 
L 181.932216 46.862453 
L 219.298456 46.861322 
L 256.664697 46.845508 
L 294.030938 46.856362 
L 331.397178 46.864053 
L 368.763419 46.846091 
L 406.129659 46.862107 
L 443.4959 46.856967 
L 518.228381 46.845767 
" clip-path="url(#pe6fb3d8f20)" style="fill: none; stroke: #7f7f7f; stroke-width: 2; stroke-linecap: square"/>
    <defs>
     <path id="m7059751bde" d="M 0 3 
C 0.795609 3 1.55874 2.683901 2.12132 2.12132 
C 2.683901 1.55874 3 0.795609 3 0 
C 3 -0.795609 2.683901 -1.55874 2.12132 -2.12132 
C 1.55874 -2.683901 0.795609 -3 0 -3 
C -0.795609 -3 -1.55874 -2.683901 -2.12132 -2.12132 
C -2.683901 -1.55874 -3 -0.795609 -3 0 
C -3 0.795609 -2.683901 1.55874 -2.12132 2.12132 
C -1.55874 2.683901 -0.795609 3 0 3 
z
" style="stroke: #7f7f7f"/>
    </defs>
    <g clip-path="url(#pe6fb3d8f20)">
     <use xlink:href="#m7059751bde" x="69.833494" y="46.879735" style="fill: #7f7f7f; stroke: #7f7f7f"/>
     <use xlink:href="#m7059751bde" x="107.199735" y="46.865409" style="fill: #7f7f7f; stroke: #7f7f7f"/>
     <use xlink:href="#m7059751bde" x="181.932216" y="46.862453" style="fill: #7f7f7f; stroke: #7f7f7f"/>
     <use xlink:href="#m7059751bde" x="219.298456" y="46.861322" style="fill: #7f7f7f; stroke: #7f7f7f"/>
     <use xlink:href="#m7059751bde" x="256.664697" y="46.845508" style="fill: #7f7f7f; stroke: #7f7f7f"/>
     <use xlink:href="#m7059751bde" x="294.030938" y="46.856362" style="fill: #7f7f7f; stroke: #7f7f7f"/>
     <use xlink:href="#m7059751bde" x="331.397178" y="46.864053" style="fill: #7f7f7f; stroke: #7f7f7f"/>
     <use xlink:href="#m7059751bde" x="368.763419" y="46.846091" style="fill: #7f7f7f; stroke: #7f7f7f"/>
     <use xlink:href="#m7059751bde" x="406.129659" y="46.862107" style="fill: #7f7f7f; stroke: #7f7f7f"/>
     <use xlink:href="#m7059751bde" x="443.4959" y="46.856967" style="fill: #7f7f7f; stroke: #7f7f7f"/>
     <use xlink:href="#m7059751bde" x="518.228381" y="46.845767" style="fill: #7f7f7f; stroke: #7f7f7f"/>
    </g>
   </g>
   <g id="line2d_56">
    <path d="M 69.833494 351.519907 
L 107.199735 351.435799 
L 181.932216 351.266846 
L 219.298456 350.702072 
L 256.664697 350.947548 
L 294.030938 351.937698 
L 331.397178 351.43485 
L 368.763419 350.988648 
L 406.129659 351.35422 
L 443.4959 350.918168 
L 518.228381 350.67088 
" clip-path="url(#pe6fb3d8f20)" style="fill: none; stroke: #bcbd22; stroke-width: 2; stroke-linecap: square"/>
    <defs>
     <path id="m8fc4399cf0" d="M 0 3 
C 0.795609 3 1.55874 2.683901 2.12132 2.12132 
C 2.683901 1.55874 3 0.795609 3 0 
C 3 -0.795609 2.683901 -1.55874 2.12132 -2.12132 
C 1.55874 -2.683901 0.795609 -3 0 -3 
C -0.795609 -3 -1.55874 -2.683901 -2.12132 -2.12132 
C -2.683901 -1.55874 -3 -0.795609 -3 0 
C -3 0.795609 -2.683901 1.55874 -2.12132 2.12132 
C -1.55874 2.683901 -0.795609 3 0 3 
z
" style="stroke: #bcbd22"/>
    </defs>
    <g clip-path="url(#pe6fb3d8f20)">
     <use xlink:href="#m8fc4399cf0" x="69.833494" y="351.519907" style="fill: #bcbd22; stroke: #bcbd22"/>
     <use xlink:href="#m8fc4399cf0" x="107.199735" y="351.435799" style="fill: #bcbd22; stroke: #bcbd22"/>
     <use xlink:href="#m8fc4399cf0" x="181.932216" y="351.266846" style="fill: #bcbd22; stroke: #bcbd22"/>
     <use xlink:href="#m8fc4399cf0" x="219.298456" y="350.702072" style="fill: #bcbd22; stroke: #bcbd22"/>
     <use xlink:href="#m8fc4399cf0" x="256.664697" y="350.947548" style="fill: #bcbd22; stroke: #bcbd22"/>
     <use xlink:href="#m8fc4399cf0" x="294.030938" y="351.937698" style="fill: #bcbd22; stroke: #bcbd22"/>
     <use xlink:href="#m8fc4399cf0" x="331.397178" y="351.43485" style="fill: #bcbd22; stroke: #bcbd22"/>
     <use xlink:href="#m8fc4399cf0" x="368.763419" y="350.988648" style="fill: #bcbd22; stroke: #bcbd22"/>
     <use xlink:href="#m8fc4399cf0" x="406.129659" y="351.35422" style="fill: #bcbd22; stroke: #bcbd22"/>
     <use xlink:href="#m8fc4399cf0" x="443.4959" y="350.918168" style="fill: #bcbd22; stroke: #bcbd22"/>
     <use xlink:href="#m8fc4399cf0" x="518.228381" y="350.67088" style="fill: #bcbd22; stroke: #bcbd22"/>
    </g>
   </g>
   <g id="line2d_57">
    <path d="M 69.833494 453.898051 
L 107.199735 454.541527 
L 181.932216 454.112975 
L 219.298456 454.232502 
L 256.664697 454.497844 
L 294.030938 454.508995 
L 331.397178 454.188697 
L 368.763419 454.301521 
L 406.129659 454.439367 
L 443.4959 454.227586 
L 518.228381 454.512464 
" clip-path="url(#pe6fb3d8f20)" style="fill: none; stroke: #17becf; stroke-width: 2; stroke-linecap: square"/>
    <defs>
     <path id="m9da270530d" d="M 0 3 
C 0.795609 3 1.55874 2.683901 2.12132 2.12132 
C 2.683901 1.55874 3 0.795609 3 0 
C 3 -0.795609 2.683901 -1.55874 2.12132 -2.12132 
C 1.55874 -2.683901 0.795609 -3 0 -3 
C -0.795609 -3 -1.55874 -2.683901 -2.12132 -2.12132 
C -2.683901 -1.55874 -3 -0.795609 -3 0 
C -3 0.795609 -2.683901 1.55874 -2.12132 2.12132 
C -1.55874 2.683901 -0.795609 3 0 3 
z
" style="stroke: #17becf"/>
    </defs>
    <g clip-path="url(#pe6fb3d8f20)">
     <use xlink:href="#m9da270530d" x="69.833494" y="453.898051" style="fill: #17becf; stroke: #17becf"/>
     <use xlink:href="#m9da270530d" x="107.199735" y="454.541527" style="fill: #17becf; stroke: #17becf"/>
     <use xlink:href="#m9da270530d" x="181.932216" y="454.112975" style="fill: #17becf; stroke: #17becf"/>
     <use xlink:href="#m9da270530d" x="219.298456" y="454.232502" style="fill: #17becf; stroke: #17becf"/>
     <use xlink:href="#m9da270530d" x="256.664697" y="454.497844" style="fill: #17becf; stroke: #17becf"/>
     <use xlink:href="#m9da270530d" x="294.030938" y="454.508995" style="fill: #17becf; stroke: #17becf"/>
     <use xlink:href="#m9da270530d" x="331.397178" y="454.188697" style="fill: #17becf; stroke: #17becf"/>
     <use xlink:href="#m9da270530d" x="368.763419" y="454.301521" style="fill: #17becf; stroke: #17becf"/>
     <use xlink:href="#m9da270530d" x="406.129659" y="454.439367" style="fill: #17becf; stroke: #17becf"/>
     <use xlink:href="#m9da270530d" x="443.4959" y="454.227586" style="fill: #17becf; stroke: #17becf"/>
     <use xlink:href="#m9da270530d" x="518.228381" y="454.512464" style="fill: #17becf; stroke: #17becf"/>
    </g>
   </g>
   <g id="patch_3">
    <path d="M 47.41375 529.308125 
L 47.41375 23.837812 
" style="fill: none; stroke: #000000; stroke-width: 0.8; stroke-linejoin: miter; stroke-linecap: square"/>
   </g>
   <g id="patch_4">
    <path d="M 540.648125 529.308125 
L 540.648125 23.837812 
" style="fill: none; stroke: #000000; stroke-width: 0.8; stroke-linejoin: miter; stroke-linecap: square"/>
   </g>
   <g id="patch_5">
    <path d="M 47.41375 529.308125 
L 540.648125 529.308125 
" style="fill: none; stroke: #000000; stroke-width: 0.8; stroke-linejoin: miter; stroke-linecap: square"/>
   </g>
   <g id="patch_6">
    <path d="M 47.41375 23.837812 
L 540.648125 23.837812 
" style="fill: none; stroke: #000000; stroke-width: 0.8; stroke-linejoin: miter; stroke-linecap: square"/>
   </g>
   <g id="text_14">
    <text style="font: 700 14px 'DejaVu Sans', 'Bitstream Vera Sans', 'Computer Modern Sans Serif', 'Lucida Grande', 'Verdana', 'Geneva', 'Lucid', 'Arial', 'Helvetica', 'Avant Garde', sans-serif; text-anchor: middle" x="294.030937" y="17.837813" transform="rotate(-0 294.030937 17.837813)">Coroutine Task Chaining - Performance Trend</text>
   </g>
   <g id="legend_1">
    <g id="patch_7">
     <path d="M 572.309844 181.400313 
L 838.781719 181.400313 
Q 840.781719 181.400313 840.781719 179.400313 
L 840.781719 30.837813 
Q 840.781719 28.837813 838.781719 28.837813 
L 572.309844 28.837813 
Q 570.309844 28.837813 570.309844 30.837813 
L 570.309844 179.400313 
Q 570.309844 181.400313 572.309844 181.400313 
z
" style="fill: #ffffff; opacity: 0.8; stroke: #cccccc; stroke-linejoin: miter"/>
    </g>
    <g id="line2d_58">
     <path d="M 574.309844 36.93625 
L 584.309844 36.93625 
L 594.309844 36.93625 
" style="fill: none; stroke: #1f77b4; stroke-width: 2; stroke-linecap: square"/>
     <g>
      <use xlink:href="#m60781def9b" x="584.309844" y="36.93625" style="fill: #1f77b4; stroke: #1f77b4"/>
     </g>
    </g>
    <g id="text_15">
     <text style="font: 10px 'DejaVu Sans', 'Bitstream Vera Sans', 'Computer Modern Sans Serif', 'Lucida Grande', 'Verdana', 'Geneva', 'Lucid', 'Arial', 'Helvetica', 'Avant Garde', sans-serif; text-anchor: start" x="602.309844" y="40.43625" transform="rotate(-0 602.309844 40.43625)">gcc-14.2 - TaskChaining_Coroutines_V1</text>
    </g>
    <g id="line2d_59">
     <path d="M 574.309844 51.8925 
L 584.309844 51.8925 
L 594.309844 51.8925 
" style="fill: none; stroke: #ff7f0e; stroke-width: 2; stroke-linecap: square"/>
     <g>
      <use xlink:href="#m754183b44c" x="584.309844" y="51.8925" style="fill: #ff7f0e; stroke: #ff7f0e"/>
     </g>
    </g>
    <g id="text_16">
     <text style="font: 10px 'DejaVu Sans', 'Bitstream Vera Sans', 'Computer Modern Sans Serif', 'Lucida Grande', 'Verdana', 'Geneva', 'Lucid', 'Arial', 'Helvetica', 'Avant Garde', sans-serif; text-anchor: start" x="602.309844" y="55.3925" transform="rotate(-0 602.309844 55.3925)">gcc-14.2 - TaskChaining_NestedSubmission_V1</text>
    </g>
    <g id="line2d_60">
     <path d="M 574.309844 66.84875 
L 584.309844 66.84875 
L 594.309844 66.84875 
" style="fill: none; stroke: #2ca02c; stroke-width: 2; stroke-linecap: square"/>
     <g>
      <use xlink:href="#m58a4717ddb" x="584.309844" y="66.84875" style="fill: #2ca02c; stroke: #2ca02c"/>
     </g>
    </g>
    <g id="text_17">
     <text style="font: 10px 'DejaVu Sans', 'Bitstream Vera Sans', 'Computer Modern Sans Serif', 'Lucida Grande', 'Verdana', 'Geneva', 'Lucid', 'Arial', 'Helvetica', 'Avant Garde', sans-serif; text-anchor: start" x="602.309844" y="70.34875" transform="rotate(-0 602.309844 70.34875)">gcc-14.2 - TaskChaining_Coroutines_V2</text>
    </g>
    <g id="line2d_61">
     <path d="M 574.309844 81.805 
L 584.309844 81.805 
L 594.309844 81.805 
" style="fill: none; stroke: #d62728; stroke-width: 2; stroke-linecap: square"/>
     <g>
      <use xlink:href="#maf7d8cf00a" x="584.309844" y="81.805" style="fill: #d62728; stroke: #d62728"/>
     </g>
    </g>
    <g id="text_18">
     <text style="font: 10px 'DejaVu Sans', 'Bitstream Vera Sans', 'Computer Modern Sans Serif', 'Lucida Grande', 'Verdana', 'Geneva', 'Lucid', 'Arial', 'Helvetica', 'Avant Garde', sans-serif; text-anchor: start" x="602.309844" y="85.305" transform="rotate(-0 602.309844 85.305)">gcc-14.2 - TaskChaining_NestedSubmission_V2</text>
    </g>
    <g id="line2d_62">
     <path d="M 574.309844 96.76125 
L 584.309844 96.76125 
L 594.309844 96.76125 
" style="fill: none; stroke: #9467bd; stroke-width: 2; stroke-linecap: square"/>
     <g>
      <use xlink:href="#mfb77779ce1" x="584.309844" y="96.76125" style="fill: #9467bd; stroke: #9467bd"/>
     </g>
    </g>
    <g id="text_19">
     <text style="font: 10px 'DejaVu Sans', 'Bitstream Vera Sans', 'Computer Modern Sans Serif', 'Lucida Grande', 'Verdana', 'Geneva', 'Lucid', 'Arial', 'Helvetica', 'Avant Garde', sans-serif; text-anchor: start" x="602.309844" y="100.26125" transform="rotate(-0 602.309844 100.26125)">gcc-14.2 - TaskChaining_TBB_Equivalent</text>
    </g>
    <g id="line2d_63">
     <path d="M 574.309844 111.7175 
L 584.309844 111.7175 
L 594.309844 111.7175 
" style="fill: none; stroke: #8c564b; stroke-width: 2; stroke-linecap: square"/>
     <g>
      <use xlink:href="#m60a66e2033" x="584.309844" y="111.7175" style="fill: #8c564b; stroke: #8c564b"/>
     </g>
    </g>
    <g id="text_20">
     <text style="font: 10px 'DejaVu Sans', 'Bitstream Vera Sans', 'Computer Modern Sans Serif', 'Lucida Grande', 'Verdana', 'Geneva', 'Lucid', 'Arial', 'Helvetica', 'Avant Garde', sans-serif; text-anchor: start" x="602.309844" y="115.2175" transform="rotate(-0 602.309844 115.2175)">gcc-4.2 - TaskChaining_Coroutines_V1</text>
    </g>
    <g id="line2d_64">
     <path d="M 574.309844 126.67375 
L 584.309844 126.67375 
L 594.309844 126.67375 
" style="fill: none; stroke: #e377c2; stroke-width: 2; stroke-linecap: square"/>
     <g>
      <use xlink:href="#mba5fb7c39b" x="584.309844" y="126.67375" style="fill: #e377c2; stroke: #e377c2"/>
     </g>
    </g>
    <g id="text_21">
     <text style="font: 10px 'DejaVu Sans', 'Bitstream Vera Sans', 'Computer Modern Sans Serif', 'Lucida Grande', 'Verdana', 'Geneva', 'Lucid', 'Arial', 'Helvetica', 'Avant Garde', sans-serif; text-anchor: start" x="602.309844" y="130.17375" transform="rotate(-0 602.309844 130.17375)">gcc-4.2 - TaskChaining_NestedSubmission_V1</text>
    </g>
    <g id="line2d_65">
     <path d="M 574.309844 141.63 
L 584.309844 141.63 
L 594.309844 141.63 
" style="fill: none; stroke: #7f7f7f; stroke-width: 2; stroke-linecap: square"/>
     <g>
      <use xlink:href="#m7059751bde" x="584.309844" y="141.63" style="fill: #7f7f7f; stroke: #7f7f7f"/>
     </g>
    </g>
    <g id="text_22">
     <text style="font: 10px 'DejaVu Sans', 'Bitstream Vera Sans', 'Computer Modern Sans Serif', 'Lucida Grande', 'Verdana', 'Geneva', 'Lucid', 'Arial', 'Helvetica', 'Avant Garde', sans-serif; text-anchor: start" x="602.309844" y="145.13" transform="rotate(-0 602.309844 145.13)">gcc-4.2 - TaskChaining_Coroutines_V2</text>
    </g>
    <g id="line2d_66">
     <path d="M 574.309844 156.58625 
L 584.309844 156.58625 
L 594.309844 156.58625 
" style="fill: none; stroke: #bcbd22; stroke-width: 2; stroke-linecap: square"/>
     <g>
      <use xlink:href="#m8fc4399cf0" x="584.309844" y="156.58625" style="fill: #bcbd22; stroke: #bcbd22"/>
     </g>
    </g>
    <g id="text_23">
     <text style="font: 10px 'DejaVu Sans', 'Bitstream Vera Sans', 'Computer Modern Sans Serif', 'Lucida Grande', 'Verdana', 'Geneva', 'Lucid', 'Arial', 'Helvetica', 'Avant Garde', sans-serif; text-anchor: start" x="602.309844" y="160.08625" transform="rotate(-0 602.309844 160.08625)">gcc-4.2 - TaskChaining_NestedSubmission_V2</text>
    </g>
    <g id="line2d_67">
     <path d="M 574.309844 171.5425 
L 584.309844 171.5425 
L 594.309844 171.5425 
" style="fill: none; stroke: #17becf; stroke-width: 2; stroke-linecap: square"/>
     <g>
      <use xlink:href="#m9da270530d" x="584.309844" y="171.5425" style="fill: #17becf; stroke: #17becf"/>
     </g>
    </g>
    <g id="text_24">
     <text style="font: 10px 'DejaVu Sans', 'Bitstream Vera Sans', 'Computer Modern Sans Serif', 'Lucida Grande', 'Verdana', 'Geneva', 'Lucid', 'Arial', 'Helvetica', 'Avant Garde', sans-serif; text-anchor: start" x="602.309844" y="175.0425" transform="rotate(-0 602.309844 175.0425)">gcc-4.2 - TaskChaining_TBB_Equivalent</text>
    </g>
   </g>
  </g>
 </g>
 <defs>
  <clipPath id="pe6fb3d8f20">
   <rect x="47.41375" y="23.837813" width="493.234375" height="505.470313"/>
  </clipPath>
 </defs>
</svg>
