<?xml version="1.0" encoding="utf-8" standalone="no"?>
<!DOCTYPE svg PUBLIC "-//W3C//DTD SVG 1.1//EN"
  "http://www.w3.org/Graphics/SVG/1.1/DTD/svg11.dtd">
<svg xmlns:xlink="http://www.w3.org/1999/xlink" width="856.684141pt" height="568.8pt" viewBox="0 0 856.684141 568.8" xmlns="http://www.w3.org/2000/svg" version="1.1">
 <metadata>
  <rdf:RDF xmlns:dc="http://purl.org/dc/elements/1.1/" xmlns:cc="http://creativecommons.org/ns#" xmlns:rdf="http://www.w3.org/1999/02/22-rdf-syntax-ns#">
   <cc:Work>
    <dc:type rdf:resource="http://purl.org/dc/dcmitype/StillImage"/>
    <dc:date>2025-10-21T17:13:25.241183</dc:date>
    <dc:format>image/svg+xml</dc:format>
    <dc:creator>
     <cc:Agent>
      <dc:title>Matplotlib v3.9.4, https://matplotlib.org/</dc:title>
     </cc:Agent>
    </dc:creator>
   </cc:Work>
  </rdf:RDF>
 </metadata>
 <defs>
  <style type="text/css">*{stroke-linejoin: round; stroke-linecap: butt}</style>
 </defs>
 <g id="figure_1">
  <g id="patch_1">
   <path d="M 0 568.8 
L 856.684141 568.8 
L 856.684141 0 
L 0 0 
z
" style="fill: #ffffff"/>
  </g>
  <g id="axes_1">
   <g id="patch_2">
    <path d="M 64.41375 529.308125 
L 731.696562 529.308125 
L 731.696562 23.837812 
L 64.41375 23.837812 
z
" style="fill: #ffffff"/>
   </g>
   <g id="matplotlib.axis_1">
    <g id="xtick_1">
     <g id="line2d_1">
      <path d="M 82.612372 529.308125 
L 82.612372 23.837812 
" clip-path="url(#p4bb7c75dba)" style="fill: none; stroke: #b0b0b0; stroke-opacity: 0.3; stroke-width: 0.8; stroke-linecap: square"/>
     </g>
     <g id="line2d_2">
      <defs>
       <path id="mcf901e656b" d="M 0 0 
L 0 3.5 
" style="stroke: #000000; stroke-width: 0.8"/>
      </defs>
      <g>
       <use xlink:href="#mcf901e656b" x="82.612372" y="529.308125" style="stroke: #000000; stroke-width: 0.8"/>
      </g>
     </g>
     <g id="text_1">
      <text style="font: 10px 'DejaVu Sans', 'Bitstream Vera Sans', 'Computer Modern Sans Serif', 'Lucida Grande', 'Verdana', 'Geneva', 'Lucid', 'Arial', 'Helvetica', 'Avant Garde', sans-serif; text-anchor: middle" x="82.612372" y="543.906563" transform="rotate(-0 82.612372 543.906563)">70</text>
     </g>
    </g>
    <g id="xtick_2">
     <g id="line2d_3">
      <path d="M 203.93652 529.308125 
L 203.93652 23.837812 
" clip-path="url(#p4bb7c75dba)" style="fill: none; stroke: #b0b0b0; stroke-opacity: 0.3; stroke-width: 0.8; stroke-linecap: square"/>
     </g>
     <g id="line2d_4">
      <g>
       <use xlink:href="#mcf901e656b" x="203.93652" y="529.308125" style="stroke: #000000; stroke-width: 0.8"/>
      </g>
     </g>
     <g id="text_2">
      <text style="font: 10px 'DejaVu Sans', 'Bitstream Vera Sans', 'Computer Modern Sans Serif', 'Lucida Grande', 'Verdana', 'Geneva', 'Lucid', 'Arial', 'Helvetica', 'Avant Garde', sans-serif; text-anchor: middle" x="203.93652" y="543.906563" transform="rotate(-0 203.93652 543.906563)">80</text>
     </g>
    </g>
    <g id="xtick_3">
     <g id="line2d_5">
      <path d="M 325.260668 529.308125 
L 325.260668 23.837812 
" clip-path="url(#p4bb7c75dba)" style="fill: none; stroke: #b0b0b0; stroke-opacity: 0.3; stroke-width: 0.8; stroke-linecap: square"/>
     </g>
     <g id="line2d_6">
      <g>
       <use xlink:href="#mcf901e656b" x="325.260668" y="529.308125" style="stroke: #000000; stroke-width: 0.8"/>
      </g>
     </g>
     <g id="text_3">
      <text style="font: 10px 'DejaVu Sans', 'Bitstream Vera Sans', 'Computer Modern Sans Serif', 'Lucida Grande', 'Verdana', 'Geneva', 'Lucid', 'Arial', 'Helvetica', 'Avant Garde', sans-serif; text-anchor: middle" x="325.260668" y="543.906563" transform="rotate(-0 325.260668 543.906563)">90</text>
     </g>
    </g>
    <g id="xtick_4">
     <g id="line2d_7">
      <path d="M 446.584815 529.308125 
L 446.584815 23.837812 
" clip-path="url(#p4bb7c75dba)" style="fill: none; stroke: #b0b0b0; stroke-opacity: 0.3; stroke-width: 0.8; stroke-linecap: square"/>
     </g>
     <g id="line2d_8">
      <g>
       <use xlink:href="#mcf901e656b" x="446.584815" y="529.308125" style="stroke: #000000; stroke-width: 0.8"/>
      </g>
     </g>
     <g id="text_4">
      <text style="font: 10px 'DejaVu Sans', 'Bitstream Vera Sans', 'Computer Modern Sans Serif', 'Lucida Grande', 'Verdana', 'Geneva', 'Lucid', 'Arial', 'Helvetica', 'Avant Garde', sans-serif; text-anchor: middle" x="446.584815" y="543.906563" transform="rotate(-0 446.584815 543.906563)">100</text>
     </g>
    </g>
    <g id="xtick_5">
     <g id="line2d_9">
      <path d="M 567.908963 529.308125 
L 567.908963 23.837812 
" clip-path="url(#p4bb7c75dba)" style="fill: none; stroke: #b0b0b0; stroke-opacity: 0.3; stroke-width: 0.8; stroke-linecap: square"/>
     </g>
     <g id="line2d_10">
      <g>
       <use xlink:href="#mcf901e656b" x="567.908963" y="529.308125" style="stroke: #000000; stroke-width: 0.8"/>
      </g>
     </g>
     <g id="text_5">
      <text style="font: 10px 'DejaVu Sans', 'Bitstream Vera Sans', 'Computer Modern Sans Serif', 'Lucida Grande', 'Verdana', 'Geneva', 'Lucid', 'Arial', 'Helvetica', 'Avant Garde', sans-serif; text-anchor: middle" x="567.908963" y="543.906563" transform="rotate(-0 567.908963 543.906563)">110</text>
     </g>
    </g>
    <g id="xtick_6">
     <g id="line2d_11">
      <path d="M 689.233111 529.308125 
L 689.233111 23.837812 
" clip-path="url(#p4bb7c75dba)" style="fill: none; stroke: #b0b0b0; stroke-opacity: 0.3; stroke-width: 0.8; stroke-linecap: square"/>
     </g>
     <g id="line2d_12">
      <g>
       <use xlink:href="#mcf901e656b" x="689.233111" y="529.308125" style="stroke: #000000; stroke-width: 0.8"/>
      </g>
     </g>
     <g id="text_6">
      <text style="font: 10px 'DejaVu Sans', 'Bitstream Vera Sans', 'Computer Modern Sans Serif', 'Lucida Grande', 'Verdana', 'Geneva', 'Lucid', 'Arial', 'Helvetica', 'Avant Garde', sans-serif; text-anchor: middle" x="689.233111" y="543.906563" transform="rotate(-0 689.233111 543.906563)">120</text>
     </g>
    </g>
    <g id="text_7">
     <text style="font: 12px 'DejaVu Sans', 'Bitstream Vera Sans', 'Computer Modern Sans Serif', 'Lucida Grande', 'Verdana', 'Geneva', 'Lucid', 'Arial', 'Helvetica', 'Avant Garde', sans-serif; text-anchor: middle" x="398.055156" y="559.104375" transform="rotate(-0 398.055156 559.104375)">Build Number</text>
    </g>
   </g>
   <g id="matplotlib.axis_2">
    <g id="ytick_1">
     <g id="line2d_13">
      <defs>
       <path id="m3cf38a41f6" d="M 0 0 
L -2 0 
" style="stroke: #000000; stroke-width: 0.6"/>
      </defs>
      <g>
       <use xlink:href="#m3cf38a41f6" x="64.41375" y="445.491112" style="stroke: #000000; stroke-width: 0.6"/>
      </g>
     </g>
     <g id="text_8">
      <!-- $\mathdefault{6\times10^{0}}$ -->
      <g transform="translate(22.81375 449.290331)">
       <text>
        <tspan style="font: 10px 'DejaVu Sans'" x="0 8.310547 18.637695 25" y="-0.9765625">6×10</tspan>
        <tspan style="font: 7px 'DejaVu Sans'" x="31.458008" y="-4.8046875">0</tspan>
       </text>
      </g>
     </g>
    </g>
    <g id="ytick_2">
     <g id="line2d_14">
      <g>
       <use xlink:href="#m3cf38a41f6" x="64.41375" y="305.945364" style="stroke: #000000; stroke-width: 0.6"/>
      </g>
     </g>
     <g id="text_9">
      <!-- $\mathdefault{7\times10^{0}}$ -->
      <g transform="translate(22.81375 309.744582)">
       <text>
        <tspan style="font: 10px 'DejaVu Sans'" x="0 8.310547 18.637695 25" y="-0.9765625">7×10</tspan>
        <tspan style="font: 7px 'DejaVu Sans'" x="31.458008" y="-4.8046875">0</tspan>
       </text>
      </g>
     </g>
    </g>
    <g id="ytick_3">
     <g id="line2d_15">
      <g>
       <use xlink:href="#m3cf38a41f6" x="64.41375" y="185.065338" style="stroke: #000000; stroke-width: 0.6"/>
      </g>
     </g>
     <g id="text_10">
      <!-- $\mathdefault{8\times10^{0}}$ -->
      <g transform="translate(22.81375 188.864557)">
       <text>
        <tspan style="font: 10px 'DejaVu Sans'" x="0 8.310547 18.637695 25" y="-0.9765625">8×10</tspan>
        <tspan style="font: 7px 'DejaVu Sans'" x="31.458008" y="-4.8046875">0</tspan>
       </text>
      </g>
     </g>
    </g>
    <g id="ytick_4">
     <g id="line2d_16">
      <g>
       <use xlink:href="#m3cf38a41f6" x="64.41375" y="78.441598" style="stroke: #000000; stroke-width: 0.6"/>
      </g>
     </g>
     <g id="text_11">
      <!-- $\mathdefault{9\times10^{0}}$ -->
      <g transform="translate(22.81375 82.240817)">
       <text>
        <tspan style="font: 10px 'DejaVu Sans'" x="0 8.310547 18.637695 25" y="-0.9765625">9×10</tspan>
        <tspan style="font: 7px 'DejaVu Sans'" x="31.458008" y="-4.8046875">0</tspan>
       </text>
      </g>
     </g>
    </g>
    <g id="text_12">
     <text style="font: 12px 'DejaVu Sans', 'Bitstream Vera Sans', 'Computer Modern Sans Serif', 'Lucida Grande', 'Verdana', 'Geneva', 'Lucid', 'Arial', 'Helvetica', 'Avant Garde', sans-serif; text-anchor: middle" x="16.318125" y="276.572969" transform="rotate(-90 16.318125 276.572969)">Median Elapsed Time (nanoseconds)</text>
    </g>
   </g>
   <g id="line2d_17">
    <path d="M 94.744787 398.454274 
L 106.877202 399.887774 
L 119.009616 385.653904 
L 131.142031 399.887774 
L 143.274446 414.349032 
L 155.406861 399.887774 
L 167.539276 399.887774 
L 179.67169 399.887774 
L 191.804105 399.887774 
L 203.93652 399.887774 
L 216.068935 385.653904 
L 228.201349 399.887774 
L 240.333764 399.887774 
L 264.598594 399.887774 
L 276.731009 399.887774 
L 300.995838 399.887774 
L 313.128253 399.887774 
L 325.260668 399.887774 
L 337.393082 399.887774 
L 349.525497 399.887774 
L 373.790327 399.887774 
L 385.922741 399.887774 
L 398.055156 398.454274 
L 410.187571 414.349032 
L 434.452401 399.887774 
L 446.584815 399.887774 
L 458.71723 385.653904 
L 470.849645 399.887774 
L 482.98206 399.887774 
L 495.114474 399.887774 
L 507.246889 385.653904 
L 519.379304 398.454274 
L 543.644134 384.24275 
L 555.776548 371.640381 
L 567.908963 371.640381 
L 592.173793 371.640381 
L 628.571037 371.640381 
L 640.703452 371.640381 
L 652.835866 371.640381 
L 664.968281 371.640381 
L 677.100696 371.640381 
L 689.233111 371.640381 
L 701.365526 371.640381 
" clip-path="url(#p4bb7c75dba)" style="fill: none; stroke: #1f77b4; stroke-width: 2; stroke-linecap: square"/>
    <defs>
     <path id="m4d1c5b4444" d="M 0 3 
C 0.795609 3 1.55874 2.683901 2.12132 2.12132 
C 2.683901 1.55874 3 0.795609 3 0 
C 3 -0.795609 2.683901 -1.55874 2.12132 -2.12132 
C 1.55874 -2.683901 0.795609 -3 0 -3 
C -0.795609 -3 -1.55874 -2.683901 -2.12132 -2.12132 
C -2.683901 -1.55874 -3 -0.795609 -3 0 
C -3 0.795609 -2.683901 1.55874 -2.12132 2.12132 
C -1.55874 2.683901 -0.795609 3 0 3 
z
" style="stroke: #1f77b4"/>
    </defs>
    <g clip-path="url(#p4bb7c75dba)">
     <use xlink:href="#m4d1c5b4444" x="94.744787" y="398.454274" style="fill: #1f77b4; stroke: #1f77b4"/>
     <use xlink:href="#m4d1c5b4444" x="106.877202" y="399.887774" style="fill: #1f77b4; stroke: #1f77b4"/>
     <use xlink:href="#m4d1c5b4444" x="119.009616" y="385.653904" style="fill: #1f77b4; stroke: #1f77b4"/>
     <use xlink:href="#m4d1c5b4444" x="131.142031" y="399.887774" style="fill: #1f77b4; stroke: #1f77b4"/>
     <use xlink:href="#m4d1c5b4444" x="143.274446" y="414.349032" style="fill: #1f77b4; stroke: #1f77b4"/>
     <use xlink:href="#m4d1c5b4444" x="155.406861" y="399.887774" style="fill: #1f77b4; stroke: #1f77b4"/>
     <use xlink:href="#m4d1c5b4444" x="167.539276" y="399.887774" style="fill: #1f77b4; stroke: #1f77b4"/>
     <use xlink:href="#m4d1c5b4444" x="179.67169" y="399.887774" style="fill: #1f77b4; stroke: #1f77b4"/>
     <use xlink:href="#m4d1c5b4444" x="191.804105" y="399.887774" style="fill: #1f77b4; stroke: #1f77b4"/>
     <use xlink:href="#m4d1c5b4444" x="203.93652" y="399.887774" style="fill: #1f77b4; stroke: #1f77b4"/>
     <use xlink:href="#m4d1c5b4444" x="216.068935" y="385.653904" style="fill: #1f77b4; stroke: #1f77b4"/>
     <use xlink:href="#m4d1c5b4444" x="228.201349" y="399.887774" style="fill: #1f77b4; stroke: #1f77b4"/>
     <use xlink:href="#m4d1c5b4444" x="240.333764" y="399.887774" style="fill: #1f77b4; stroke: #1f77b4"/>
     <use xlink:href="#m4d1c5b4444" x="264.598594" y="399.887774" style="fill: #1f77b4; stroke: #1f77b4"/>
     <use xlink:href="#m4d1c5b4444" x="276.731009" y="399.887774" style="fill: #1f77b4; stroke: #1f77b4"/>
     <use xlink:href="#m4d1c5b4444" x="300.995838" y="399.887774" style="fill: #1f77b4; stroke: #1f77b4"/>
     <use xlink:href="#m4d1c5b4444" x="313.128253" y="399.887774" style="fill: #1f77b4; stroke: #1f77b4"/>
     <use xlink:href="#m4d1c5b4444" x="325.260668" y="399.887774" style="fill: #1f77b4; stroke: #1f77b4"/>
     <use xlink:href="#m4d1c5b4444" x="337.393082" y="399.887774" style="fill: #1f77b4; stroke: #1f77b4"/>
     <use xlink:href="#m4d1c5b4444" x="349.525497" y="399.887774" style="fill: #1f77b4; stroke: #1f77b4"/>
     <use xlink:href="#m4d1c5b4444" x="373.790327" y="399.887774" style="fill: #1f77b4; stroke: #1f77b4"/>
     <use xlink:href="#m4d1c5b4444" x="385.922741" y="399.887774" style="fill: #1f77b4; stroke: #1f77b4"/>
     <use xlink:href="#m4d1c5b4444" x="398.055156" y="398.454274" style="fill: #1f77b4; stroke: #1f77b4"/>
     <use xlink:href="#m4d1c5b4444" x="410.187571" y="414.349032" style="fill: #1f77b4; stroke: #1f77b4"/>
     <use xlink:href="#m4d1c5b4444" x="434.452401" y="399.887774" style="fill: #1f77b4; stroke: #1f77b4"/>
     <use xlink:href="#m4d1c5b4444" x="446.584815" y="399.887774" style="fill: #1f77b4; stroke: #1f77b4"/>
     <use xlink:href="#m4d1c5b4444" x="458.71723" y="385.653904" style="fill: #1f77b4; stroke: #1f77b4"/>
     <use xlink:href="#m4d1c5b4444" x="470.849645" y="399.887774" style="fill: #1f77b4; stroke: #1f77b4"/>
     <use xlink:href="#m4d1c5b4444" x="482.98206" y="399.887774" style="fill: #1f77b4; stroke: #1f77b4"/>
     <use xlink:href="#m4d1c5b4444" x="495.114474" y="399.887774" style="fill: #1f77b4; stroke: #1f77b4"/>
     <use xlink:href="#m4d1c5b4444" x="507.246889" y="385.653904" style="fill: #1f77b4; stroke: #1f77b4"/>
     <use xlink:href="#m4d1c5b4444" x="519.379304" y="398.454274" style="fill: #1f77b4; stroke: #1f77b4"/>
     <use xlink:href="#m4d1c5b4444" x="543.644134" y="384.24275" style="fill: #1f77b4; stroke: #1f77b4"/>
     <use xlink:href="#m4d1c5b4444" x="555.776548" y="371.640381" style="fill: #1f77b4; stroke: #1f77b4"/>
     <use xlink:href="#m4d1c5b4444" x="567.908963" y="371.640381" style="fill: #1f77b4; stroke: #1f77b4"/>
     <use xlink:href="#m4d1c5b4444" x="592.173793" y="371.640381" style="fill: #1f77b4; stroke: #1f77b4"/>
     <use xlink:href="#m4d1c5b4444" x="628.571037" y="371.640381" style="fill: #1f77b4; stroke: #1f77b4"/>
     <use xlink:href="#m4d1c5b4444" x="640.703452" y="371.640381" style="fill: #1f77b4; stroke: #1f77b4"/>
     <use xlink:href="#m4d1c5b4444" x="652.835866" y="371.640381" style="fill: #1f77b4; stroke: #1f77b4"/>
     <use xlink:href="#m4d1c5b4444" x="664.968281" y="371.640381" style="fill: #1f77b4; stroke: #1f77b4"/>
     <use xlink:href="#m4d1c5b4444" x="677.100696" y="371.640381" style="fill: #1f77b4; stroke: #1f77b4"/>
     <use xlink:href="#m4d1c5b4444" x="689.233111" y="371.640381" style="fill: #1f77b4; stroke: #1f77b4"/>
     <use xlink:href="#m4d1c5b4444" x="701.365526" y="371.640381" style="fill: #1f77b4; stroke: #1f77b4"/>
    </g>
   </g>
   <g id="line2d_18">
    <path d="M 94.744787 506.332202 
L 106.877202 443.983609 
L 119.009616 443.983609 
L 131.142031 443.983609 
L 143.274446 443.983609 
L 155.406861 429.045061 
L 167.539276 442.478612 
L 179.67169 442.478612 
L 191.804105 443.983609 
L 203.93652 443.983609 
L 216.068935 443.983609 
L 228.201349 229.119752 
L 240.333764 429.045061 
L 252.466179 443.983609 
L 264.598594 443.983609 
L 276.731009 429.045061 
L 300.995838 414.349032 
L 313.128253 442.478612 
L 325.260668 430.527871 
L 337.393082 443.983609 
L 349.525497 442.478612 
L 361.657912 443.983609 
L 373.790327 429.045061 
L 385.922741 443.983609 
L 398.055156 443.983609 
L 410.187571 46.813736 
L 434.452401 443.983609 
L 446.584815 443.983609 
L 458.71723 443.983609 
L 470.849645 442.478612 
L 482.98206 429.045061 
L 495.114474 443.983609 
L 507.246889 443.983609 
L 519.379304 429.045061 
L 543.644134 429.045061 
L 555.776548 430.527871 
L 567.908963 442.478612 
L 580.041378 443.983609 
L 592.173793 430.527871 
L 616.438622 429.045061 
L 628.571037 429.045061 
L 640.703452 443.983609 
L 652.835866 443.983609 
L 664.968281 442.478612 
L 677.100696 443.983609 
L 689.233111 443.983609 
L 701.365526 443.983609 
" clip-path="url(#p4bb7c75dba)" style="fill: none; stroke: #ff7f0e; stroke-width: 2; stroke-linecap: square"/>
    <defs>
     <path id="m878982a03c" d="M 0 3 
C 0.795609 3 1.55874 2.683901 2.12132 2.12132 
C 2.683901 1.55874 3 0.795609 3 0 
C 3 -0.795609 2.683901 -1.55874 2.12132 -2.12132 
C 1.55874 -2.683901 0.795609 -3 0 -3 
C -0.795609 -3 -1.55874 -2.683901 -2.12132 -2.12132 
C -2.683901 -1.55874 -3 -0.795609 -3 0 
C -3 0.795609 -2.683901 1.55874 -2.12132 2.12132 
C -1.55874 2.683901 -0.795609 3 0 3 
z
" style="stroke: #ff7f0e"/>
    </defs>
    <g clip-path="url(#p4bb7c75dba)">
     <use xlink:href="#m878982a03c" x="94.744787" y="506.332202" style="fill: #ff7f0e; stroke: #ff7f0e"/>
     <use xlink:href="#m878982a03c" x="106.877202" y="443.983609" style="fill: #ff7f0e; stroke: #ff7f0e"/>
     <use xlink:href="#m878982a03c" x="119.009616" y="443.983609" style="fill: #ff7f0e; stroke: #ff7f0e"/>
     <use xlink:href="#m878982a03c" x="131.142031" y="443.983609" style="fill: #ff7f0e; stroke: #ff7f0e"/>
     <use xlink:href="#m878982a03c" x="143.274446" y="443.983609" style="fill: #ff7f0e; stroke: #ff7f0e"/>
     <use xlink:href="#m878982a03c" x="155.406861" y="429.045061" style="fill: #ff7f0e; stroke: #ff7f0e"/>
     <use xlink:href="#m878982a03c" x="167.539276" y="442.478612" style="fill: #ff7f0e; stroke: #ff7f0e"/>
     <use xlink:href="#m878982a03c" x="179.67169" y="442.478612" style="fill: #ff7f0e; stroke: #ff7f0e"/>
     <use xlink:href="#m878982a03c" x="191.804105" y="443.983609" style="fill: #ff7f0e; stroke: #ff7f0e"/>
     <use xlink:href="#m878982a03c" x="203.93652" y="443.983609" style="fill: #ff7f0e; stroke: #ff7f0e"/>
     <use xlink:href="#m878982a03c" x="216.068935" y="443.983609" style="fill: #ff7f0e; stroke: #ff7f0e"/>
     <use xlink:href="#m878982a03c" x="228.201349" y="229.119752" style="fill: #ff7f0e; stroke: #ff7f0e"/>
     <use xlink:href="#m878982a03c" x="240.333764" y="429.045061" style="fill: #ff7f0e; stroke: #ff7f0e"/>
     <use xlink:href="#m878982a03c" x="252.466179" y="443.983609" style="fill: #ff7f0e; stroke: #ff7f0e"/>
     <use xlink:href="#m878982a03c" x="264.598594" y="443.983609" style="fill: #ff7f0e; stroke: #ff7f0e"/>
     <use xlink:href="#m878982a03c" x="276.731009" y="429.045061" style="fill: #ff7f0e; stroke: #ff7f0e"/>
     <use xlink:href="#m878982a03c" x="300.995838" y="414.349032" style="fill: #ff7f0e; stroke: #ff7f0e"/>
     <use xlink:href="#m878982a03c" x="313.128253" y="442.478612" style="fill: #ff7f0e; stroke: #ff7f0e"/>
     <use xlink:href="#m878982a03c" x="325.260668" y="430.527871" style="fill: #ff7f0e; stroke: #ff7f0e"/>
     <use xlink:href="#m878982a03c" x="337.393082" y="443.983609" style="fill: #ff7f0e; stroke: #ff7f0e"/>
     <use xlink:href="#m878982a03c" x="349.525497" y="442.478612" style="fill: #ff7f0e; stroke: #ff7f0e"/>
     <use xlink:href="#m878982a03c" x="361.657912" y="443.983609" style="fill: #ff7f0e; stroke: #ff7f0e"/>
     <use xlink:href="#m878982a03c" x="373.790327" y="429.045061" style="fill: #ff7f0e; stroke: #ff7f0e"/>
     <use xlink:href="#m878982a03c" x="385.922741" y="443.983609" style="fill: #ff7f0e; stroke: #ff7f0e"/>
     <use xlink:href="#m878982a03c" x="398.055156" y="443.983609" style="fill: #ff7f0e; stroke: #ff7f0e"/>
     <use xlink:href="#m878982a03c" x="410.187571" y="46.813736" style="fill: #ff7f0e; stroke: #ff7f0e"/>
     <use xlink:href="#m878982a03c" x="434.452401" y="443.983609" style="fill: #ff7f0e; stroke: #ff7f0e"/>
     <use xlink:href="#m878982a03c" x="446.584815" y="443.983609" style="fill: #ff7f0e; stroke: #ff7f0e"/>
     <use xlink:href="#m878982a03c" x="458.71723" y="443.983609" style="fill: #ff7f0e; stroke: #ff7f0e"/>
     <use xlink:href="#m878982a03c" x="470.849645" y="442.478612" style="fill: #ff7f0e; stroke: #ff7f0e"/>
     <use xlink:href="#m878982a03c" x="482.98206" y="429.045061" style="fill: #ff7f0e; stroke: #ff7f0e"/>
     <use xlink:href="#m878982a03c" x="495.114474" y="443.983609" style="fill: #ff7f0e; stroke: #ff7f0e"/>
     <use xlink:href="#m878982a03c" x="507.246889" y="443.983609" style="fill: #ff7f0e; stroke: #ff7f0e"/>
     <use xlink:href="#m878982a03c" x="519.379304" y="429.045061" style="fill: #ff7f0e; stroke: #ff7f0e"/>
     <use xlink:href="#m878982a03c" x="543.644134" y="429.045061" style="fill: #ff7f0e; stroke: #ff7f0e"/>
     <use xlink:href="#m878982a03c" x="555.776548" y="430.527871" style="fill: #ff7f0e; stroke: #ff7f0e"/>
     <use xlink:href="#m878982a03c" x="567.908963" y="442.478612" style="fill: #ff7f0e; stroke: #ff7f0e"/>
     <use xlink:href="#m878982a03c" x="580.041378" y="443.983609" style="fill: #ff7f0e; stroke: #ff7f0e"/>
     <use xlink:href="#m878982a03c" x="592.173793" y="430.527871" style="fill: #ff7f0e; stroke: #ff7f0e"/>
     <use xlink:href="#m878982a03c" x="616.438622" y="429.045061" style="fill: #ff7f0e; stroke: #ff7f0e"/>
     <use xlink:href="#m878982a03c" x="628.571037" y="429.045061" style="fill: #ff7f0e; stroke: #ff7f0e"/>
     <use xlink:href="#m878982a03c" x="640.703452" y="443.983609" style="fill: #ff7f0e; stroke: #ff7f0e"/>
     <use xlink:href="#m878982a03c" x="652.835866" y="443.983609" style="fill: #ff7f0e; stroke: #ff7f0e"/>
     <use xlink:href="#m878982a03c" x="664.968281" y="442.478612" style="fill: #ff7f0e; stroke: #ff7f0e"/>
     <use xlink:href="#m878982a03c" x="677.100696" y="443.983609" style="fill: #ff7f0e; stroke: #ff7f0e"/>
     <use xlink:href="#m878982a03c" x="689.233111" y="443.983609" style="fill: #ff7f0e; stroke: #ff7f0e"/>
     <use xlink:href="#m878982a03c" x="701.365526" y="443.983609" style="fill: #ff7f0e; stroke: #ff7f0e"/>
    </g>
   </g>
   <g id="patch_3">
    <path d="M 64.41375 529.308125 
L 64.41375 23.837813 
" style="fill: none; stroke: #000000; stroke-width: 0.8; stroke-linejoin: miter; stroke-linecap: square"/>
   </g>
   <g id="patch_4">
    <path d="M 731.696562 529.308125 
L 731.696562 23.837813 
" style="fill: none; stroke: #000000; stroke-width: 0.8; stroke-linejoin: miter; stroke-linecap: square"/>
   </g>
   <g id="patch_5">
    <path d="M 64.41375 529.308125 
L 731.696562 529.308125 
" style="fill: none; stroke: #000000; stroke-width: 0.8; stroke-linejoin: miter; stroke-linecap: square"/>
   </g>
   <g id="patch_6">
    <path d="M 64.41375 23.837812 
L 731.696562 23.837812 
" style="fill: none; stroke: #000000; stroke-width: 0.8; stroke-linejoin: miter; stroke-linecap: square"/>
   </g>
   <g id="text_13">
    <text style="font: 700 14px 'DejaVu Sans', 'Bitstream Vera Sans', 'Computer Modern Sans Serif', 'Lucida Grande', 'Verdana', 'Geneva', 'Lucid', 'Arial', 'Helvetica', 'Avant Garde', sans-serif; text-anchor: middle" x="398.055156" y="17.837813" transform="rotate(-0 398.055156 17.837813)">Ts Shared Linear Single Thread - Performance Trend</text>
   </g>
   <g id="legend_1">
    <g id="patch_7">
     <path d="M 772.060703 61.194063 
L 847.484141 61.194063 
Q 849.484141 61.194063 849.484141 59.194063 
L 849.484141 30.837813 
Q 849.484141 28.837813 847.484141 28.837813 
L 772.060703 28.837813 
Q 770.060703 28.837813 770.060703 30.837813 
L 770.060703 59.194063 
Q 770.060703 61.194063 772.060703 61.194063 
z
" style="fill: #ffffff; opacity: 0.8; stroke: #cccccc; stroke-linejoin: miter"/>
    </g>
    <g id="line2d_19">
     <path d="M 774.060703 36.93625 
L 784.060703 36.93625 
L 794.060703 36.93625 
" style="fill: none; stroke: #1f77b4; stroke-width: 2; stroke-linecap: square"/>
     <g>
      <use xlink:href="#m4d1c5b4444" x="784.060703" y="36.93625" style="fill: #1f77b4; stroke: #1f77b4"/>
     </g>
    </g>
    <g id="text_14">
     <text style="font: 10px 'DejaVu Sans', 'Bitstream Vera Sans', 'Computer Modern Sans Serif', 'Lucida Grande', 'Verdana', 'Geneva', 'Lucid', 'Arial', 'Helvetica', 'Avant Garde', sans-serif; text-anchor: start" x="802.060703" y="40.43625" transform="rotate(-0 802.060703 40.43625)">clang-18</text>
    </g>
    <g id="line2d_20">
     <path d="M 774.060703 51.614375 
L 784.060703 51.614375 
L 794.060703 51.614375 
" style="fill: none; stroke: #ff7f0e; stroke-width: 2; stroke-linecap: square"/>
     <g>
      <use xlink:href="#m878982a03c" x="784.060703" y="51.614375" style="fill: #ff7f0e; stroke: #ff7f0e"/>
     </g>
    </g>
    <g id="text_15">
     <text style="font: 10px 'DejaVu Sans', 'Bitstream Vera Sans', 'Computer Modern Sans Serif', 'Lucida Grande', 'Verdana', 'Geneva', 'Lucid', 'Arial', 'Helvetica', 'Avant Garde', sans-serif; text-anchor: start" x="802.060703" y="55.114375" transform="rotate(-0 802.060703 55.114375)">gcc-14</text>
    </g>
   </g>
  </g>
 </g>
 <defs>
  <clipPath id="p4bb7c75dba">
   <rect x="64.41375" y="23.837813" width="667.282812" height="505.470313"/>
  </clipPath>
 </defs>
</svg>
