<?xml version="1.0" encoding="utf-8" standalone="no"?>
<!DOCTYPE svg PUBLIC "-//W3C//DTD SVG 1.1//EN"
  "http://www.w3.org/Graphics/SVG/1.1/DTD/svg11.dtd">
<svg xmlns:xlink="http://www.w3.org/1999/xlink" width="855.204687pt" height="568.8pt" viewBox="0 0 855.204687 568.8" xmlns="http://www.w3.org/2000/svg" version="1.1">
 <metadata>
  <rdf:RDF xmlns:dc="http://purl.org/dc/elements/1.1/" xmlns:cc="http://creativecommons.org/ns#" xmlns:rdf="http://www.w3.org/1999/02/22-rdf-syntax-ns#">
   <cc:Work>
    <dc:type rdf:resource="http://purl.org/dc/dcmitype/StillImage"/>
    <dc:date>2025-09-02T22:12:43.105452</dc:date>
    <dc:format>image/svg+xml</dc:format>
    <dc:creator>
     <cc:Agent>
      <dc:title>Matplotlib v3.9.4, https://matplotlib.org/</dc:title>
     </cc:Agent>
    </dc:creator>
   </cc:Work>
  </rdf:RDF>
 </metadata>
 <defs>
  <style type="text/css">*{stroke-linejoin: round; stroke-linecap: butt}</style>
 </defs>
 <g id="figure_1">
  <g id="patch_1">
   <path d="M 0 568.8 
L 855.204687 568.8 
L 855.204687 0 
L 0 0 
z
" style="fill: #ffffff"/>
  </g>
  <g id="axes_1">
   <g id="patch_2">
    <path d="M 64.41375 529.308125 
L 702.1075 529.308125 
L 702.1075 23.837812 
L 64.41375 23.837812 
z
" style="fill: #ffffff"/>
   </g>
   <g id="matplotlib.axis_1">
    <g id="xtick_1">
     <g id="line2d_1">
      <path d="M 80.797186 529.308125 
L 80.797186 23.837812 
" clip-path="url(#p7192bc352d)" style="fill: none; stroke: #b0b0b0; stroke-opacity: 0.3; stroke-width: 0.8; stroke-linecap: square"/>
     </g>
     <g id="line2d_2">
      <defs>
       <path id="m7a59293b30" d="M 0 0 
L 0 3.5 
" style="stroke: #000000; stroke-width: 0.8"/>
      </defs>
      <g>
       <use xlink:href="#m7a59293b30" x="80.797186" y="529.308125" style="stroke: #000000; stroke-width: 0.8"/>
      </g>
     </g>
     <g id="text_1">
      <text style="font: 10px 'DejaVu Sans', 'Bitstream Vera Sans', 'Computer Modern Sans Serif', 'Lucida Grande', 'Verdana', 'Geneva', 'Lucid', 'Arial', 'Helvetica', 'Avant Garde', sans-serif; text-anchor: middle" x="80.797186" y="543.906563" transform="rotate(-0 80.797186 543.906563)">70</text>
     </g>
    </g>
    <g id="xtick_2">
     <g id="line2d_3">
      <path d="M 206.823619 529.308125 
L 206.823619 23.837812 
" clip-path="url(#p7192bc352d)" style="fill: none; stroke: #b0b0b0; stroke-opacity: 0.3; stroke-width: 0.8; stroke-linecap: square"/>
     </g>
     <g id="line2d_4">
      <g>
       <use xlink:href="#m7a59293b30" x="206.823619" y="529.308125" style="stroke: #000000; stroke-width: 0.8"/>
      </g>
     </g>
     <g id="text_2">
      <text style="font: 10px 'DejaVu Sans', 'Bitstream Vera Sans', 'Computer Modern Sans Serif', 'Lucida Grande', 'Verdana', 'Geneva', 'Lucid', 'Arial', 'Helvetica', 'Avant Garde', sans-serif; text-anchor: middle" x="206.823619" y="543.906563" transform="rotate(-0 206.823619 543.906563)">80</text>
     </g>
    </g>
    <g id="xtick_3">
     <g id="line2d_5">
      <path d="M 332.850052 529.308125 
L 332.850052 23.837812 
" clip-path="url(#p7192bc352d)" style="fill: none; stroke: #b0b0b0; stroke-opacity: 0.3; stroke-width: 0.8; stroke-linecap: square"/>
     </g>
     <g id="line2d_6">
      <g>
       <use xlink:href="#m7a59293b30" x="332.850052" y="529.308125" style="stroke: #000000; stroke-width: 0.8"/>
      </g>
     </g>
     <g id="text_3">
      <text style="font: 10px 'DejaVu Sans', 'Bitstream Vera Sans', 'Computer Modern Sans Serif', 'Lucida Grande', 'Verdana', 'Geneva', 'Lucid', 'Arial', 'Helvetica', 'Avant Garde', sans-serif; text-anchor: middle" x="332.850052" y="543.906563" transform="rotate(-0 332.850052 543.906563)">90</text>
     </g>
    </g>
    <g id="xtick_4">
     <g id="line2d_7">
      <path d="M 458.876485 529.308125 
L 458.876485 23.837812 
" clip-path="url(#p7192bc352d)" style="fill: none; stroke: #b0b0b0; stroke-opacity: 0.3; stroke-width: 0.8; stroke-linecap: square"/>
     </g>
     <g id="line2d_8">
      <g>
       <use xlink:href="#m7a59293b30" x="458.876485" y="529.308125" style="stroke: #000000; stroke-width: 0.8"/>
      </g>
     </g>
     <g id="text_4">
      <text style="font: 10px 'DejaVu Sans', 'Bitstream Vera Sans', 'Computer Modern Sans Serif', 'Lucida Grande', 'Verdana', 'Geneva', 'Lucid', 'Arial', 'Helvetica', 'Avant Garde', sans-serif; text-anchor: middle" x="458.876485" y="543.906563" transform="rotate(-0 458.876485 543.906563)">100</text>
     </g>
    </g>
    <g id="xtick_5">
     <g id="line2d_9">
      <path d="M 584.902917 529.308125 
L 584.902917 23.837812 
" clip-path="url(#p7192bc352d)" style="fill: none; stroke: #b0b0b0; stroke-opacity: 0.3; stroke-width: 0.8; stroke-linecap: square"/>
     </g>
     <g id="line2d_10">
      <g>
       <use xlink:href="#m7a59293b30" x="584.902917" y="529.308125" style="stroke: #000000; stroke-width: 0.8"/>
      </g>
     </g>
     <g id="text_5">
      <text style="font: 10px 'DejaVu Sans', 'Bitstream Vera Sans', 'Computer Modern Sans Serif', 'Lucida Grande', 'Verdana', 'Geneva', 'Lucid', 'Arial', 'Helvetica', 'Avant Garde', sans-serif; text-anchor: middle" x="584.902917" y="543.906563" transform="rotate(-0 584.902917 543.906563)">110</text>
     </g>
    </g>
    <g id="text_6">
     <text style="font: 12px 'DejaVu Sans', 'Bitstream Vera Sans', 'Computer Modern Sans Serif', 'Lucida Grande', 'Verdana', 'Geneva', 'Lucid', 'Arial', 'Helvetica', 'Avant Garde', sans-serif; text-anchor: middle" x="383.260625" y="559.104375" transform="rotate(-0 383.260625 559.104375)">Build Number</text>
    </g>
   </g>
   <g id="matplotlib.axis_2">
    <g id="ytick_1">
     <g id="line2d_11">
      <path d="M 64.41375 453.999649 
L 702.1075 453.999649 
" clip-path="url(#p7192bc352d)" style="fill: none; stroke: #b0b0b0; stroke-opacity: 0.3; stroke-width: 0.8; stroke-linecap: square"/>
     </g>
     <g id="line2d_12">
      <defs>
       <path id="m7dd039c6f5" d="M 0 0 
L -3.5 0 
" style="stroke: #000000; stroke-width: 0.8"/>
      </defs>
      <g>
       <use xlink:href="#m7dd039c6f5" x="64.41375" y="453.999649" style="stroke: #000000; stroke-width: 0.8"/>
      </g>
     </g>
     <g id="text_7">
      <!-- $\mathdefault{10^{5}}$ -->
      <g transform="translate(39.81375 457.798868)">
       <text>
        <tspan style="font: 10px 'DejaVu Sans'" x="0 6.362305" y="-0.06406250000000036">10</tspan>
        <tspan style="font: 7px 'DejaVu Sans'" x="12.820312" y="-3.8921875000000004">5</tspan>
       </text>
      </g>
     </g>
    </g>
    <g id="ytick_2">
     <g id="line2d_13">
      <defs>
       <path id="m04c1c8ce7c" d="M 0 0 
L -2 0 
" style="stroke: #000000; stroke-width: 0.6"/>
      </defs>
      <g>
       <use xlink:href="#m04c1c8ce7c" x="64.41375" y="496.912063" style="stroke: #000000; stroke-width: 0.6"/>
      </g>
     </g>
    </g>
    <g id="ytick_3">
     <g id="line2d_14">
      <g>
       <use xlink:href="#m04c1c8ce7c" x="64.41375" y="171.686878" style="stroke: #000000; stroke-width: 0.6"/>
      </g>
     </g>
     <g id="text_8">
      <!-- $\mathdefault{2\times10^{5}}$ -->
      <g transform="translate(22.81375 175.486097)">
       <text>
        <tspan style="font: 10px 'DejaVu Sans'" x="0 8.310547 18.637695 25" y="-0.06406250000000036">2×10</tspan>
        <tspan style="font: 7px 'DejaVu Sans'" x="31.458008" y="-3.8921875000000004">5</tspan>
       </text>
      </g>
     </g>
    </g>
    <g id="text_9">
     <text style="font: 12px 'DejaVu Sans', 'Bitstream Vera Sans', 'Computer Modern Sans Serif', 'Lucida Grande', 'Verdana', 'Geneva', 'Lucid', 'Arial', 'Helvetica', 'Avant Garde', sans-serif; text-anchor: middle" x="16.318125" y="276.572969" transform="rotate(-90 16.318125 276.572969)">Median Elapsed Time (nanoseconds)</text>
    </g>
   </g>
   <g id="line2d_15">
    <path d="M 93.39983 359.194522 
L 106.002473 85.111184 
L 118.605116 221.921057 
L 131.207759 331.895506 
L 143.810403 229.767238 
L 156.413046 319.309651 
L 169.015689 272.204237 
L 181.618333 114.526196 
L 194.220976 301.269751 
L 206.823619 289.064493 
L 219.426262 315.324007 
L 232.028906 272.427153 
L 244.631549 355.698255 
L 257.234192 290.781229 
L 269.836835 325.672388 
L 282.439479 311.712012 
L 307.644765 48.680326 
L 320.247409 299.379857 
L 332.850052 272.956644 
L 345.452695 265.715209 
L 358.055338 301.656238 
L 370.657982 316.547462 
L 383.260625 321.133747 
L 395.863268 301.676692 
L 408.465912 297.487202 
L 421.068555 283.358647 
L 446.273841 285.291472 
L 458.876485 257.576074 
L 471.479128 312.300745 
L 484.081771 292.280913 
L 496.684415 291.281603 
L 509.287058 329.030749 
L 521.889701 141.426234 
L 534.492344 289.198446 
L 559.697631 221.633647 
L 572.300274 293.692706 
L 584.902917 297.754767 
L 597.505561 98.258928 
L 610.108204 284.867495 
L 635.313491 110.177727 
L 647.916134 46.813736 
L 660.518777 236.072658 
L 673.12142 295.728337 
" clip-path="url(#p7192bc352d)" style="fill: none; stroke: #1f77b4; stroke-width: 2; stroke-linecap: square"/>
    <defs>
     <path id="m1766ff1306" d="M 0 3 
C 0.795609 3 1.55874 2.683901 2.12132 2.12132 
C 2.683901 1.55874 3 0.795609 3 0 
C 3 -0.795609 2.683901 -1.55874 2.12132 -2.12132 
C 1.55874 -2.683901 0.795609 -3 0 -3 
C -0.795609 -3 -1.55874 -2.683901 -2.12132 -2.12132 
C -2.683901 -1.55874 -3 -0.795609 -3 0 
C -3 0.795609 -2.683901 1.55874 -2.12132 2.12132 
C -1.55874 2.683901 -0.795609 3 0 3 
z
" style="stroke: #1f77b4"/>
    </defs>
    <g clip-path="url(#p7192bc352d)">
     <use xlink:href="#m1766ff1306" x="93.39983" y="359.194522" style="fill: #1f77b4; stroke: #1f77b4"/>
     <use xlink:href="#m1766ff1306" x="106.002473" y="85.111184" style="fill: #1f77b4; stroke: #1f77b4"/>
     <use xlink:href="#m1766ff1306" x="118.605116" y="221.921057" style="fill: #1f77b4; stroke: #1f77b4"/>
     <use xlink:href="#m1766ff1306" x="131.207759" y="331.895506" style="fill: #1f77b4; stroke: #1f77b4"/>
     <use xlink:href="#m1766ff1306" x="143.810403" y="229.767238" style="fill: #1f77b4; stroke: #1f77b4"/>
     <use xlink:href="#m1766ff1306" x="156.413046" y="319.309651" style="fill: #1f77b4; stroke: #1f77b4"/>
     <use xlink:href="#m1766ff1306" x="169.015689" y="272.204237" style="fill: #1f77b4; stroke: #1f77b4"/>
     <use xlink:href="#m1766ff1306" x="181.618333" y="114.526196" style="fill: #1f77b4; stroke: #1f77b4"/>
     <use xlink:href="#m1766ff1306" x="194.220976" y="301.269751" style="fill: #1f77b4; stroke: #1f77b4"/>
     <use xlink:href="#m1766ff1306" x="206.823619" y="289.064493" style="fill: #1f77b4; stroke: #1f77b4"/>
     <use xlink:href="#m1766ff1306" x="219.426262" y="315.324007" style="fill: #1f77b4; stroke: #1f77b4"/>
     <use xlink:href="#m1766ff1306" x="232.028906" y="272.427153" style="fill: #1f77b4; stroke: #1f77b4"/>
     <use xlink:href="#m1766ff1306" x="244.631549" y="355.698255" style="fill: #1f77b4; stroke: #1f77b4"/>
     <use xlink:href="#m1766ff1306" x="257.234192" y="290.781229" style="fill: #1f77b4; stroke: #1f77b4"/>
     <use xlink:href="#m1766ff1306" x="269.836835" y="325.672388" style="fill: #1f77b4; stroke: #1f77b4"/>
     <use xlink:href="#m1766ff1306" x="282.439479" y="311.712012" style="fill: #1f77b4; stroke: #1f77b4"/>
     <use xlink:href="#m1766ff1306" x="307.644765" y="48.680326" style="fill: #1f77b4; stroke: #1f77b4"/>
     <use xlink:href="#m1766ff1306" x="320.247409" y="299.379857" style="fill: #1f77b4; stroke: #1f77b4"/>
     <use xlink:href="#m1766ff1306" x="332.850052" y="272.956644" style="fill: #1f77b4; stroke: #1f77b4"/>
     <use xlink:href="#m1766ff1306" x="345.452695" y="265.715209" style="fill: #1f77b4; stroke: #1f77b4"/>
     <use xlink:href="#m1766ff1306" x="358.055338" y="301.656238" style="fill: #1f77b4; stroke: #1f77b4"/>
     <use xlink:href="#m1766ff1306" x="370.657982" y="316.547462" style="fill: #1f77b4; stroke: #1f77b4"/>
     <use xlink:href="#m1766ff1306" x="383.260625" y="321.133747" style="fill: #1f77b4; stroke: #1f77b4"/>
     <use xlink:href="#m1766ff1306" x="395.863268" y="301.676692" style="fill: #1f77b4; stroke: #1f77b4"/>
     <use xlink:href="#m1766ff1306" x="408.465912" y="297.487202" style="fill: #1f77b4; stroke: #1f77b4"/>
     <use xlink:href="#m1766ff1306" x="421.068555" y="283.358647" style="fill: #1f77b4; stroke: #1f77b4"/>
     <use xlink:href="#m1766ff1306" x="446.273841" y="285.291472" style="fill: #1f77b4; stroke: #1f77b4"/>
     <use xlink:href="#m1766ff1306" x="458.876485" y="257.576074" style="fill: #1f77b4; stroke: #1f77b4"/>
     <use xlink:href="#m1766ff1306" x="471.479128" y="312.300745" style="fill: #1f77b4; stroke: #1f77b4"/>
     <use xlink:href="#m1766ff1306" x="484.081771" y="292.280913" style="fill: #1f77b4; stroke: #1f77b4"/>
     <use xlink:href="#m1766ff1306" x="496.684415" y="291.281603" style="fill: #1f77b4; stroke: #1f77b4"/>
     <use xlink:href="#m1766ff1306" x="509.287058" y="329.030749" style="fill: #1f77b4; stroke: #1f77b4"/>
     <use xlink:href="#m1766ff1306" x="521.889701" y="141.426234" style="fill: #1f77b4; stroke: #1f77b4"/>
     <use xlink:href="#m1766ff1306" x="534.492344" y="289.198446" style="fill: #1f77b4; stroke: #1f77b4"/>
     <use xlink:href="#m1766ff1306" x="559.697631" y="221.633647" style="fill: #1f77b4; stroke: #1f77b4"/>
     <use xlink:href="#m1766ff1306" x="572.300274" y="293.692706" style="fill: #1f77b4; stroke: #1f77b4"/>
     <use xlink:href="#m1766ff1306" x="584.902917" y="297.754767" style="fill: #1f77b4; stroke: #1f77b4"/>
     <use xlink:href="#m1766ff1306" x="597.505561" y="98.258928" style="fill: #1f77b4; stroke: #1f77b4"/>
     <use xlink:href="#m1766ff1306" x="610.108204" y="284.867495" style="fill: #1f77b4; stroke: #1f77b4"/>
     <use xlink:href="#m1766ff1306" x="635.313491" y="110.177727" style="fill: #1f77b4; stroke: #1f77b4"/>
     <use xlink:href="#m1766ff1306" x="647.916134" y="46.813736" style="fill: #1f77b4; stroke: #1f77b4"/>
     <use xlink:href="#m1766ff1306" x="660.518777" y="236.072658" style="fill: #1f77b4; stroke: #1f77b4"/>
     <use xlink:href="#m1766ff1306" x="673.12142" y="295.728337" style="fill: #1f77b4; stroke: #1f77b4"/>
    </g>
   </g>
   <g id="line2d_16">
    <path d="M 93.39983 393.141342 
L 106.002473 387.42149 
L 118.605116 398.687288 
L 131.207759 385.834965 
L 143.810403 340.247063 
L 156.413046 404.800026 
L 169.015689 382.184932 
L 181.618333 409.215153 
L 194.220976 397.114087 
L 206.823619 336.59239 
L 219.426262 375.417893 
L 232.028906 382.323585 
L 244.631549 372.977723 
L 257.234192 408.951611 
L 269.836835 392.320336 
L 282.439479 369.129002 
L 307.644765 392.435345 
L 320.247409 383.909493 
L 332.850052 356.551717 
L 345.452695 366.075572 
L 358.055338 347.160096 
L 370.657982 416.492385 
L 383.260625 357.698279 
L 395.863268 355.472644 
L 408.465912 283.060598 
L 421.068555 280.857852 
L 446.273841 285.847399 
L 458.876485 315.429203 
L 471.479128 311.438977 
L 484.081771 292.456195 
L 496.684415 300.523582 
L 509.287058 329.56272 
L 521.889701 286.473185 
L 534.492344 290.665846 
L 559.697631 311.788702 
L 572.300274 290.184206 
L 584.902917 297.542278 
L 597.505561 355.164497 
L 610.108204 284.183768 
L 635.313491 285.052796 
L 647.916134 368.614459 
L 660.518777 272.433412 
L 673.12142 294.394249 
" clip-path="url(#p7192bc352d)" style="fill: none; stroke: #ff7f0e; stroke-width: 2; stroke-linecap: square"/>
    <defs>
     <path id="me6f53ce579" d="M 0 3 
C 0.795609 3 1.55874 2.683901 2.12132 2.12132 
C 2.683901 1.55874 3 0.795609 3 0 
C 3 -0.795609 2.683901 -1.55874 2.12132 -2.12132 
C 1.55874 -2.683901 0.795609 -3 0 -3 
C -0.795609 -3 -1.55874 -2.683901 -2.12132 -2.12132 
C -2.683901 -1.55874 -3 -0.795609 -3 0 
C -3 0.795609 -2.683901 1.55874 -2.12132 2.12132 
C -1.55874 2.683901 -0.795609 3 0 3 
z
" style="stroke: #ff7f0e"/>
    </defs>
    <g clip-path="url(#p7192bc352d)">
     <use xlink:href="#me6f53ce579" x="93.39983" y="393.141342" style="fill: #ff7f0e; stroke: #ff7f0e"/>
     <use xlink:href="#me6f53ce579" x="106.002473" y="387.42149" style="fill: #ff7f0e; stroke: #ff7f0e"/>
     <use xlink:href="#me6f53ce579" x="118.605116" y="398.687288" style="fill: #ff7f0e; stroke: #ff7f0e"/>
     <use xlink:href="#me6f53ce579" x="131.207759" y="385.834965" style="fill: #ff7f0e; stroke: #ff7f0e"/>
     <use xlink:href="#me6f53ce579" x="143.810403" y="340.247063" style="fill: #ff7f0e; stroke: #ff7f0e"/>
     <use xlink:href="#me6f53ce579" x="156.413046" y="404.800026" style="fill: #ff7f0e; stroke: #ff7f0e"/>
     <use xlink:href="#me6f53ce579" x="169.015689" y="382.184932" style="fill: #ff7f0e; stroke: #ff7f0e"/>
     <use xlink:href="#me6f53ce579" x="181.618333" y="409.215153" style="fill: #ff7f0e; stroke: #ff7f0e"/>
     <use xlink:href="#me6f53ce579" x="194.220976" y="397.114087" style="fill: #ff7f0e; stroke: #ff7f0e"/>
     <use xlink:href="#me6f53ce579" x="206.823619" y="336.59239" style="fill: #ff7f0e; stroke: #ff7f0e"/>
     <use xlink:href="#me6f53ce579" x="219.426262" y="375.417893" style="fill: #ff7f0e; stroke: #ff7f0e"/>
     <use xlink:href="#me6f53ce579" x="232.028906" y="382.323585" style="fill: #ff7f0e; stroke: #ff7f0e"/>
     <use xlink:href="#me6f53ce579" x="244.631549" y="372.977723" style="fill: #ff7f0e; stroke: #ff7f0e"/>
     <use xlink:href="#me6f53ce579" x="257.234192" y="408.951611" style="fill: #ff7f0e; stroke: #ff7f0e"/>
     <use xlink:href="#me6f53ce579" x="269.836835" y="392.320336" style="fill: #ff7f0e; stroke: #ff7f0e"/>
     <use xlink:href="#me6f53ce579" x="282.439479" y="369.129002" style="fill: #ff7f0e; stroke: #ff7f0e"/>
     <use xlink:href="#me6f53ce579" x="307.644765" y="392.435345" style="fill: #ff7f0e; stroke: #ff7f0e"/>
     <use xlink:href="#me6f53ce579" x="320.247409" y="383.909493" style="fill: #ff7f0e; stroke: #ff7f0e"/>
     <use xlink:href="#me6f53ce579" x="332.850052" y="356.551717" style="fill: #ff7f0e; stroke: #ff7f0e"/>
     <use xlink:href="#me6f53ce579" x="345.452695" y="366.075572" style="fill: #ff7f0e; stroke: #ff7f0e"/>
     <use xlink:href="#me6f53ce579" x="358.055338" y="347.160096" style="fill: #ff7f0e; stroke: #ff7f0e"/>
     <use xlink:href="#me6f53ce579" x="370.657982" y="416.492385" style="fill: #ff7f0e; stroke: #ff7f0e"/>
     <use xlink:href="#me6f53ce579" x="383.260625" y="357.698279" style="fill: #ff7f0e; stroke: #ff7f0e"/>
     <use xlink:href="#me6f53ce579" x="395.863268" y="355.472644" style="fill: #ff7f0e; stroke: #ff7f0e"/>
     <use xlink:href="#me6f53ce579" x="408.465912" y="283.060598" style="fill: #ff7f0e; stroke: #ff7f0e"/>
     <use xlink:href="#me6f53ce579" x="421.068555" y="280.857852" style="fill: #ff7f0e; stroke: #ff7f0e"/>
     <use xlink:href="#me6f53ce579" x="446.273841" y="285.847399" style="fill: #ff7f0e; stroke: #ff7f0e"/>
     <use xlink:href="#me6f53ce579" x="458.876485" y="315.429203" style="fill: #ff7f0e; stroke: #ff7f0e"/>
     <use xlink:href="#me6f53ce579" x="471.479128" y="311.438977" style="fill: #ff7f0e; stroke: #ff7f0e"/>
     <use xlink:href="#me6f53ce579" x="484.081771" y="292.456195" style="fill: #ff7f0e; stroke: #ff7f0e"/>
     <use xlink:href="#me6f53ce579" x="496.684415" y="300.523582" style="fill: #ff7f0e; stroke: #ff7f0e"/>
     <use xlink:href="#me6f53ce579" x="509.287058" y="329.56272" style="fill: #ff7f0e; stroke: #ff7f0e"/>
     <use xlink:href="#me6f53ce579" x="521.889701" y="286.473185" style="fill: #ff7f0e; stroke: #ff7f0e"/>
     <use xlink:href="#me6f53ce579" x="534.492344" y="290.665846" style="fill: #ff7f0e; stroke: #ff7f0e"/>
     <use xlink:href="#me6f53ce579" x="559.697631" y="311.788702" style="fill: #ff7f0e; stroke: #ff7f0e"/>
     <use xlink:href="#me6f53ce579" x="572.300274" y="290.184206" style="fill: #ff7f0e; stroke: #ff7f0e"/>
     <use xlink:href="#me6f53ce579" x="584.902917" y="297.542278" style="fill: #ff7f0e; stroke: #ff7f0e"/>
     <use xlink:href="#me6f53ce579" x="597.505561" y="355.164497" style="fill: #ff7f0e; stroke: #ff7f0e"/>
     <use xlink:href="#me6f53ce579" x="610.108204" y="284.183768" style="fill: #ff7f0e; stroke: #ff7f0e"/>
     <use xlink:href="#me6f53ce579" x="635.313491" y="285.052796" style="fill: #ff7f0e; stroke: #ff7f0e"/>
     <use xlink:href="#me6f53ce579" x="647.916134" y="368.614459" style="fill: #ff7f0e; stroke: #ff7f0e"/>
     <use xlink:href="#me6f53ce579" x="660.518777" y="272.433412" style="fill: #ff7f0e; stroke: #ff7f0e"/>
     <use xlink:href="#me6f53ce579" x="673.12142" y="294.394249" style="fill: #ff7f0e; stroke: #ff7f0e"/>
    </g>
   </g>
   <g id="line2d_17">
    <path d="M 93.39983 254.767733 
L 106.002473 132.656511 
L 118.605116 98.14688 
L 131.207759 82.983229 
L 143.810403 241.233453 
L 156.413046 78.790537 
L 169.015689 134.218619 
L 181.618333 88.635223 
L 194.220976 214.070158 
L 206.823619 260.679242 
L 219.426262 77.265959 
L 232.028906 130.314775 
L 244.631549 198.651149 
L 257.234192 113.623712 
L 269.836835 278.934244 
L 282.439479 85.800329 
L 307.644765 103.043758 
L 320.247409 203.268464 
L 332.850052 121.369494 
L 345.452695 216.657458 
L 358.055338 243.725307 
L 370.657982 85.065414 
L 383.260625 248.625811 
L 395.863268 85.833481 
L 408.465912 126.852396 
L 421.068555 131.664814 
L 446.273841 130.867997 
L 458.876485 263.990114 
L 471.479128 242.773676 
L 484.081771 102.811199 
L 496.684415 260.972252 
L 509.287058 65.683482 
L 521.889701 271.047815 
L 534.492344 266.450316 
L 559.697631 90.07552 
L 572.300274 82.474484 
L 584.902917 99.143302 
L 597.505561 90.120523 
L 610.108204 243.493749 
L 635.313491 269.589214 
L 647.916134 299.550417 
L 660.518777 253.992322 
L 673.12142 273.423292 
" clip-path="url(#p7192bc352d)" style="fill: none; stroke: #2ca02c; stroke-width: 2; stroke-linecap: square"/>
    <defs>
     <path id="m1e5e5f5bd0" d="M 0 3 
C 0.795609 3 1.55874 2.683901 2.12132 2.12132 
C 2.683901 1.55874 3 0.795609 3 0 
C 3 -0.795609 2.683901 -1.55874 2.12132 -2.12132 
C 1.55874 -2.683901 0.795609 -3 0 -3 
C -0.795609 -3 -1.55874 -2.683901 -2.12132 -2.12132 
C -2.683901 -1.55874 -3 -0.795609 -3 0 
C -3 0.795609 -2.683901 1.55874 -2.12132 2.12132 
C -1.55874 2.683901 -0.795609 3 0 3 
z
" style="stroke: #2ca02c"/>
    </defs>
    <g clip-path="url(#p7192bc352d)">
     <use xlink:href="#m1e5e5f5bd0" x="93.39983" y="254.767733" style="fill: #2ca02c; stroke: #2ca02c"/>
     <use xlink:href="#m1e5e5f5bd0" x="106.002473" y="132.656511" style="fill: #2ca02c; stroke: #2ca02c"/>
     <use xlink:href="#m1e5e5f5bd0" x="118.605116" y="98.14688" style="fill: #2ca02c; stroke: #2ca02c"/>
     <use xlink:href="#m1e5e5f5bd0" x="131.207759" y="82.983229" style="fill: #2ca02c; stroke: #2ca02c"/>
     <use xlink:href="#m1e5e5f5bd0" x="143.810403" y="241.233453" style="fill: #2ca02c; stroke: #2ca02c"/>
     <use xlink:href="#m1e5e5f5bd0" x="156.413046" y="78.790537" style="fill: #2ca02c; stroke: #2ca02c"/>
     <use xlink:href="#m1e5e5f5bd0" x="169.015689" y="134.218619" style="fill: #2ca02c; stroke: #2ca02c"/>
     <use xlink:href="#m1e5e5f5bd0" x="181.618333" y="88.635223" style="fill: #2ca02c; stroke: #2ca02c"/>
     <use xlink:href="#m1e5e5f5bd0" x="194.220976" y="214.070158" style="fill: #2ca02c; stroke: #2ca02c"/>
     <use xlink:href="#m1e5e5f5bd0" x="206.823619" y="260.679242" style="fill: #2ca02c; stroke: #2ca02c"/>
     <use xlink:href="#m1e5e5f5bd0" x="219.426262" y="77.265959" style="fill: #2ca02c; stroke: #2ca02c"/>
     <use xlink:href="#m1e5e5f5bd0" x="232.028906" y="130.314775" style="fill: #2ca02c; stroke: #2ca02c"/>
     <use xlink:href="#m1e5e5f5bd0" x="244.631549" y="198.651149" style="fill: #2ca02c; stroke: #2ca02c"/>
     <use xlink:href="#m1e5e5f5bd0" x="257.234192" y="113.623712" style="fill: #2ca02c; stroke: #2ca02c"/>
     <use xlink:href="#m1e5e5f5bd0" x="269.836835" y="278.934244" style="fill: #2ca02c; stroke: #2ca02c"/>
     <use xlink:href="#m1e5e5f5bd0" x="282.439479" y="85.800329" style="fill: #2ca02c; stroke: #2ca02c"/>
     <use xlink:href="#m1e5e5f5bd0" x="307.644765" y="103.043758" style="fill: #2ca02c; stroke: #2ca02c"/>
     <use xlink:href="#m1e5e5f5bd0" x="320.247409" y="203.268464" style="fill: #2ca02c; stroke: #2ca02c"/>
     <use xlink:href="#m1e5e5f5bd0" x="332.850052" y="121.369494" style="fill: #2ca02c; stroke: #2ca02c"/>
     <use xlink:href="#m1e5e5f5bd0" x="345.452695" y="216.657458" style="fill: #2ca02c; stroke: #2ca02c"/>
     <use xlink:href="#m1e5e5f5bd0" x="358.055338" y="243.725307" style="fill: #2ca02c; stroke: #2ca02c"/>
     <use xlink:href="#m1e5e5f5bd0" x="370.657982" y="85.065414" style="fill: #2ca02c; stroke: #2ca02c"/>
     <use xlink:href="#m1e5e5f5bd0" x="383.260625" y="248.625811" style="fill: #2ca02c; stroke: #2ca02c"/>
     <use xlink:href="#m1e5e5f5bd0" x="395.863268" y="85.833481" style="fill: #2ca02c; stroke: #2ca02c"/>
     <use xlink:href="#m1e5e5f5bd0" x="408.465912" y="126.852396" style="fill: #2ca02c; stroke: #2ca02c"/>
     <use xlink:href="#m1e5e5f5bd0" x="421.068555" y="131.664814" style="fill: #2ca02c; stroke: #2ca02c"/>
     <use xlink:href="#m1e5e5f5bd0" x="446.273841" y="130.867997" style="fill: #2ca02c; stroke: #2ca02c"/>
     <use xlink:href="#m1e5e5f5bd0" x="458.876485" y="263.990114" style="fill: #2ca02c; stroke: #2ca02c"/>
     <use xlink:href="#m1e5e5f5bd0" x="471.479128" y="242.773676" style="fill: #2ca02c; stroke: #2ca02c"/>
     <use xlink:href="#m1e5e5f5bd0" x="484.081771" y="102.811199" style="fill: #2ca02c; stroke: #2ca02c"/>
     <use xlink:href="#m1e5e5f5bd0" x="496.684415" y="260.972252" style="fill: #2ca02c; stroke: #2ca02c"/>
     <use xlink:href="#m1e5e5f5bd0" x="509.287058" y="65.683482" style="fill: #2ca02c; stroke: #2ca02c"/>
     <use xlink:href="#m1e5e5f5bd0" x="521.889701" y="271.047815" style="fill: #2ca02c; stroke: #2ca02c"/>
     <use xlink:href="#m1e5e5f5bd0" x="534.492344" y="266.450316" style="fill: #2ca02c; stroke: #2ca02c"/>
     <use xlink:href="#m1e5e5f5bd0" x="559.697631" y="90.07552" style="fill: #2ca02c; stroke: #2ca02c"/>
     <use xlink:href="#m1e5e5f5bd0" x="572.300274" y="82.474484" style="fill: #2ca02c; stroke: #2ca02c"/>
     <use xlink:href="#m1e5e5f5bd0" x="584.902917" y="99.143302" style="fill: #2ca02c; stroke: #2ca02c"/>
     <use xlink:href="#m1e5e5f5bd0" x="597.505561" y="90.120523" style="fill: #2ca02c; stroke: #2ca02c"/>
     <use xlink:href="#m1e5e5f5bd0" x="610.108204" y="243.493749" style="fill: #2ca02c; stroke: #2ca02c"/>
     <use xlink:href="#m1e5e5f5bd0" x="635.313491" y="269.589214" style="fill: #2ca02c; stroke: #2ca02c"/>
     <use xlink:href="#m1e5e5f5bd0" x="647.916134" y="299.550417" style="fill: #2ca02c; stroke: #2ca02c"/>
     <use xlink:href="#m1e5e5f5bd0" x="660.518777" y="253.992322" style="fill: #2ca02c; stroke: #2ca02c"/>
     <use xlink:href="#m1e5e5f5bd0" x="673.12142" y="273.423292" style="fill: #2ca02c; stroke: #2ca02c"/>
    </g>
   </g>
   <g id="line2d_18">
    <path d="M 93.39983 310.260224 
L 106.002473 294.876762 
L 118.605116 123.19822 
L 131.207759 289.307978 
L 143.810403 308.404304 
L 156.413046 296.991181 
L 169.015689 333.294593 
L 181.618333 139.951187 
L 194.220976 68.099962 
L 206.823619 284.452286 
L 219.426262 282.572891 
L 232.028906 297.751991 
L 244.631549 313.989543 
L 269.836835 344.782093 
L 282.439479 299.15896 
L 307.644765 315.679116 
L 320.247409 209.58329 
L 332.850052 119.196297 
L 345.452695 208.351416 
L 358.055338 314.174712 
L 383.260625 287.302753 
L 395.863268 280.868768 
L 408.465912 293.048879 
L 421.068555 95.47335 
L 446.273841 275.366954 
L 458.876485 299.174834 
L 471.479128 283.608125 
L 484.081771 253.957429 
L 496.684415 365.414929 
L 509.287058 290.336242 
L 521.889701 308.219176 
L 534.492344 295.601053 
L 559.697631 340.961556 
L 572.300274 297.726738 
L 584.902917 314.357653 
L 610.108204 298.354939 
L 647.916134 299.320512 
L 660.518777 283.203034 
L 673.12142 289.374309 
" clip-path="url(#p7192bc352d)" style="fill: none; stroke: #d62728; stroke-width: 2; stroke-linecap: square"/>
    <defs>
     <path id="ma2d75b365a" d="M 0 3 
C 0.795609 3 1.55874 2.683901 2.12132 2.12132 
C 2.683901 1.55874 3 0.795609 3 0 
C 3 -0.795609 2.683901 -1.55874 2.12132 -2.12132 
C 1.55874 -2.683901 0.795609 -3 0 -3 
C -0.795609 -3 -1.55874 -2.683901 -2.12132 -2.12132 
C -2.683901 -1.55874 -3 -0.795609 -3 0 
C -3 0.795609 -2.683901 1.55874 -2.12132 2.12132 
C -1.55874 2.683901 -0.795609 3 0 3 
z
" style="stroke: #d62728"/>
    </defs>
    <g clip-path="url(#p7192bc352d)">
     <use xlink:href="#ma2d75b365a" x="93.39983" y="310.260224" style="fill: #d62728; stroke: #d62728"/>
     <use xlink:href="#ma2d75b365a" x="106.002473" y="294.876762" style="fill: #d62728; stroke: #d62728"/>
     <use xlink:href="#ma2d75b365a" x="118.605116" y="123.19822" style="fill: #d62728; stroke: #d62728"/>
     <use xlink:href="#ma2d75b365a" x="131.207759" y="289.307978" style="fill: #d62728; stroke: #d62728"/>
     <use xlink:href="#ma2d75b365a" x="143.810403" y="308.404304" style="fill: #d62728; stroke: #d62728"/>
     <use xlink:href="#ma2d75b365a" x="156.413046" y="296.991181" style="fill: #d62728; stroke: #d62728"/>
     <use xlink:href="#ma2d75b365a" x="169.015689" y="333.294593" style="fill: #d62728; stroke: #d62728"/>
     <use xlink:href="#ma2d75b365a" x="181.618333" y="139.951187" style="fill: #d62728; stroke: #d62728"/>
     <use xlink:href="#ma2d75b365a" x="194.220976" y="68.099962" style="fill: #d62728; stroke: #d62728"/>
     <use xlink:href="#ma2d75b365a" x="206.823619" y="284.452286" style="fill: #d62728; stroke: #d62728"/>
     <use xlink:href="#ma2d75b365a" x="219.426262" y="282.572891" style="fill: #d62728; stroke: #d62728"/>
     <use xlink:href="#ma2d75b365a" x="232.028906" y="297.751991" style="fill: #d62728; stroke: #d62728"/>
     <use xlink:href="#ma2d75b365a" x="244.631549" y="313.989543" style="fill: #d62728; stroke: #d62728"/>
     <use xlink:href="#ma2d75b365a" x="269.836835" y="344.782093" style="fill: #d62728; stroke: #d62728"/>
     <use xlink:href="#ma2d75b365a" x="282.439479" y="299.15896" style="fill: #d62728; stroke: #d62728"/>
     <use xlink:href="#ma2d75b365a" x="307.644765" y="315.679116" style="fill: #d62728; stroke: #d62728"/>
     <use xlink:href="#ma2d75b365a" x="320.247409" y="209.58329" style="fill: #d62728; stroke: #d62728"/>
     <use xlink:href="#ma2d75b365a" x="332.850052" y="119.196297" style="fill: #d62728; stroke: #d62728"/>
     <use xlink:href="#ma2d75b365a" x="345.452695" y="208.351416" style="fill: #d62728; stroke: #d62728"/>
     <use xlink:href="#ma2d75b365a" x="358.055338" y="314.174712" style="fill: #d62728; stroke: #d62728"/>
     <use xlink:href="#ma2d75b365a" x="383.260625" y="287.302753" style="fill: #d62728; stroke: #d62728"/>
     <use xlink:href="#ma2d75b365a" x="395.863268" y="280.868768" style="fill: #d62728; stroke: #d62728"/>
     <use xlink:href="#ma2d75b365a" x="408.465912" y="293.048879" style="fill: #d62728; stroke: #d62728"/>
     <use xlink:href="#ma2d75b365a" x="421.068555" y="95.47335" style="fill: #d62728; stroke: #d62728"/>
     <use xlink:href="#ma2d75b365a" x="446.273841" y="275.366954" style="fill: #d62728; stroke: #d62728"/>
     <use xlink:href="#ma2d75b365a" x="458.876485" y="299.174834" style="fill: #d62728; stroke: #d62728"/>
     <use xlink:href="#ma2d75b365a" x="471.479128" y="283.608125" style="fill: #d62728; stroke: #d62728"/>
     <use xlink:href="#ma2d75b365a" x="484.081771" y="253.957429" style="fill: #d62728; stroke: #d62728"/>
     <use xlink:href="#ma2d75b365a" x="496.684415" y="365.414929" style="fill: #d62728; stroke: #d62728"/>
     <use xlink:href="#ma2d75b365a" x="509.287058" y="290.336242" style="fill: #d62728; stroke: #d62728"/>
     <use xlink:href="#ma2d75b365a" x="521.889701" y="308.219176" style="fill: #d62728; stroke: #d62728"/>
     <use xlink:href="#ma2d75b365a" x="534.492344" y="295.601053" style="fill: #d62728; stroke: #d62728"/>
     <use xlink:href="#ma2d75b365a" x="559.697631" y="340.961556" style="fill: #d62728; stroke: #d62728"/>
     <use xlink:href="#ma2d75b365a" x="572.300274" y="297.726738" style="fill: #d62728; stroke: #d62728"/>
     <use xlink:href="#ma2d75b365a" x="584.902917" y="314.357653" style="fill: #d62728; stroke: #d62728"/>
     <use xlink:href="#ma2d75b365a" x="610.108204" y="298.354939" style="fill: #d62728; stroke: #d62728"/>
     <use xlink:href="#ma2d75b365a" x="647.916134" y="299.320512" style="fill: #d62728; stroke: #d62728"/>
     <use xlink:href="#ma2d75b365a" x="660.518777" y="283.203034" style="fill: #d62728; stroke: #d62728"/>
     <use xlink:href="#ma2d75b365a" x="673.12142" y="289.374309" style="fill: #d62728; stroke: #d62728"/>
    </g>
   </g>
   <g id="line2d_19">
    <path d="M 93.39983 378.020441 
L 106.002473 387.49828 
L 118.605116 366.707045 
L 131.207759 382.829761 
L 143.810403 353.637115 
L 156.413046 377.31839 
L 169.015689 393.485935 
L 181.618333 370.137169 
L 194.220976 367.08788 
L 206.823619 376.931918 
L 219.426262 352.751507 
L 232.028906 354.62548 
L 244.631549 372.692408 
L 269.836835 416.908632 
L 282.439479 365.825061 
L 307.644765 391.281764 
L 320.247409 506.332202 
L 332.850052 318.257917 
L 345.452695 355.746784 
L 358.055338 397.107357 
L 383.260625 323.231267 
L 395.863268 365.328759 
L 408.465912 300.787158 
L 421.068555 302.320282 
L 446.273841 271.63902 
L 458.876485 299.342243 
L 471.479128 284.721519 
L 484.081771 252.16617 
L 496.684415 307.532376 
L 509.287058 293.369979 
L 521.889701 312.97571 
L 534.492344 297.027747 
L 559.697631 342.485411 
L 572.300274 302.627151 
L 584.902917 317.404267 
L 610.108204 296.643135 
L 647.916134 301.781224 
L 660.518777 284.050227 
L 673.12142 292.162093 
" clip-path="url(#p7192bc352d)" style="fill: none; stroke: #9467bd; stroke-width: 2; stroke-linecap: square"/>
    <defs>
     <path id="mc1231969ad" d="M 0 3 
C 0.795609 3 1.55874 2.683901 2.12132 2.12132 
C 2.683901 1.55874 3 0.795609 3 0 
C 3 -0.795609 2.683901 -1.55874 2.12132 -2.12132 
C 1.55874 -2.683901 0.795609 -3 0 -3 
C -0.795609 -3 -1.55874 -2.683901 -2.12132 -2.12132 
C -2.683901 -1.55874 -3 -0.795609 -3 0 
C -3 0.795609 -2.683901 1.55874 -2.12132 2.12132 
C -1.55874 2.683901 -0.795609 3 0 3 
z
" style="stroke: #9467bd"/>
    </defs>
    <g clip-path="url(#p7192bc352d)">
     <use xlink:href="#mc1231969ad" x="93.39983" y="378.020441" style="fill: #9467bd; stroke: #9467bd"/>
     <use xlink:href="#mc1231969ad" x="106.002473" y="387.49828" style="fill: #9467bd; stroke: #9467bd"/>
     <use xlink:href="#mc1231969ad" x="118.605116" y="366.707045" style="fill: #9467bd; stroke: #9467bd"/>
     <use xlink:href="#mc1231969ad" x="131.207759" y="382.829761" style="fill: #9467bd; stroke: #9467bd"/>
     <use xlink:href="#mc1231969ad" x="143.810403" y="353.637115" style="fill: #9467bd; stroke: #9467bd"/>
     <use xlink:href="#mc1231969ad" x="156.413046" y="377.31839" style="fill: #9467bd; stroke: #9467bd"/>
     <use xlink:href="#mc1231969ad" x="169.015689" y="393.485935" style="fill: #9467bd; stroke: #9467bd"/>
     <use xlink:href="#mc1231969ad" x="181.618333" y="370.137169" style="fill: #9467bd; stroke: #9467bd"/>
     <use xlink:href="#mc1231969ad" x="194.220976" y="367.08788" style="fill: #9467bd; stroke: #9467bd"/>
     <use xlink:href="#mc1231969ad" x="206.823619" y="376.931918" style="fill: #9467bd; stroke: #9467bd"/>
     <use xlink:href="#mc1231969ad" x="219.426262" y="352.751507" style="fill: #9467bd; stroke: #9467bd"/>
     <use xlink:href="#mc1231969ad" x="232.028906" y="354.62548" style="fill: #9467bd; stroke: #9467bd"/>
     <use xlink:href="#mc1231969ad" x="244.631549" y="372.692408" style="fill: #9467bd; stroke: #9467bd"/>
     <use xlink:href="#mc1231969ad" x="269.836835" y="416.908632" style="fill: #9467bd; stroke: #9467bd"/>
     <use xlink:href="#mc1231969ad" x="282.439479" y="365.825061" style="fill: #9467bd; stroke: #9467bd"/>
     <use xlink:href="#mc1231969ad" x="307.644765" y="391.281764" style="fill: #9467bd; stroke: #9467bd"/>
     <use xlink:href="#mc1231969ad" x="320.247409" y="506.332202" style="fill: #9467bd; stroke: #9467bd"/>
     <use xlink:href="#mc1231969ad" x="332.850052" y="318.257917" style="fill: #9467bd; stroke: #9467bd"/>
     <use xlink:href="#mc1231969ad" x="345.452695" y="355.746784" style="fill: #9467bd; stroke: #9467bd"/>
     <use xlink:href="#mc1231969ad" x="358.055338" y="397.107357" style="fill: #9467bd; stroke: #9467bd"/>
     <use xlink:href="#mc1231969ad" x="383.260625" y="323.231267" style="fill: #9467bd; stroke: #9467bd"/>
     <use xlink:href="#mc1231969ad" x="395.863268" y="365.328759" style="fill: #9467bd; stroke: #9467bd"/>
     <use xlink:href="#mc1231969ad" x="408.465912" y="300.787158" style="fill: #9467bd; stroke: #9467bd"/>
     <use xlink:href="#mc1231969ad" x="421.068555" y="302.320282" style="fill: #9467bd; stroke: #9467bd"/>
     <use xlink:href="#mc1231969ad" x="446.273841" y="271.63902" style="fill: #9467bd; stroke: #9467bd"/>
     <use xlink:href="#mc1231969ad" x="458.876485" y="299.342243" style="fill: #9467bd; stroke: #9467bd"/>
     <use xlink:href="#mc1231969ad" x="471.479128" y="284.721519" style="fill: #9467bd; stroke: #9467bd"/>
     <use xlink:href="#mc1231969ad" x="484.081771" y="252.16617" style="fill: #9467bd; stroke: #9467bd"/>
     <use xlink:href="#mc1231969ad" x="496.684415" y="307.532376" style="fill: #9467bd; stroke: #9467bd"/>
     <use xlink:href="#mc1231969ad" x="509.287058" y="293.369979" style="fill: #9467bd; stroke: #9467bd"/>
     <use xlink:href="#mc1231969ad" x="521.889701" y="312.97571" style="fill: #9467bd; stroke: #9467bd"/>
     <use xlink:href="#mc1231969ad" x="534.492344" y="297.027747" style="fill: #9467bd; stroke: #9467bd"/>
     <use xlink:href="#mc1231969ad" x="559.697631" y="342.485411" style="fill: #9467bd; stroke: #9467bd"/>
     <use xlink:href="#mc1231969ad" x="572.300274" y="302.627151" style="fill: #9467bd; stroke: #9467bd"/>
     <use xlink:href="#mc1231969ad" x="584.902917" y="317.404267" style="fill: #9467bd; stroke: #9467bd"/>
     <use xlink:href="#mc1231969ad" x="610.108204" y="296.643135" style="fill: #9467bd; stroke: #9467bd"/>
     <use xlink:href="#mc1231969ad" x="647.916134" y="301.781224" style="fill: #9467bd; stroke: #9467bd"/>
     <use xlink:href="#mc1231969ad" x="660.518777" y="284.050227" style="fill: #9467bd; stroke: #9467bd"/>
     <use xlink:href="#mc1231969ad" x="673.12142" y="292.162093" style="fill: #9467bd; stroke: #9467bd"/>
    </g>
   </g>
   <g id="line2d_20">
    <path d="M 93.39983 275.591871 
L 106.002473 98.330696 
L 118.605116 277.791612 
L 131.207759 258.493153 
L 143.810403 216.64586 
L 156.413046 267.824976 
L 169.015689 251.633274 
L 181.618333 208.634284 
L 194.220976 243.897663 
L 206.823619 81.897432 
L 219.426262 278.911985 
L 232.028906 106.521798 
L 244.631549 125.755899 
L 269.836835 268.410226 
L 282.439479 251.292181 
L 307.644765 231.39453 
L 320.247409 276.888089 
L 332.850052 75.53199 
L 345.452695 89.305242 
L 358.055338 122.915745 
L 383.260625 93.070198 
L 395.863268 91.43413 
L 408.465912 261.965133 
L 421.068555 110.472353 
L 446.273841 93.915098 
L 458.876485 221.619144 
L 471.479128 248.557432 
L 484.081771 112.83213 
L 496.684415 288.28366 
L 509.287058 270.4611 
L 521.889701 117.798217 
L 534.492344 265.540293 
L 559.697631 367.030962 
L 572.300274 268.656913 
L 584.902917 279.367471 
L 610.108204 105.674263 
L 647.916134 264.308012 
L 660.518777 253.677639 
L 673.12142 260.336314 
" clip-path="url(#p7192bc352d)" style="fill: none; stroke: #8c564b; stroke-width: 2; stroke-linecap: square"/>
    <defs>
     <path id="m4f4e7c9aa8" d="M 0 3 
C 0.795609 3 1.55874 2.683901 2.12132 2.12132 
C 2.683901 1.55874 3 0.795609 3 0 
C 3 -0.795609 2.683901 -1.55874 2.12132 -2.12132 
C 1.55874 -2.683901 0.795609 -3 0 -3 
C -0.795609 -3 -1.55874 -2.683901 -2.12132 -2.12132 
C -2.683901 -1.55874 -3 -0.795609 -3 0 
C -3 0.795609 -2.683901 1.55874 -2.12132 2.12132 
C -1.55874 2.683901 -0.795609 3 0 3 
z
" style="stroke: #8c564b"/>
    </defs>
    <g clip-path="url(#p7192bc352d)">
     <use xlink:href="#m4f4e7c9aa8" x="93.39983" y="275.591871" style="fill: #8c564b; stroke: #8c564b"/>
     <use xlink:href="#m4f4e7c9aa8" x="106.002473" y="98.330696" style="fill: #8c564b; stroke: #8c564b"/>
     <use xlink:href="#m4f4e7c9aa8" x="118.605116" y="277.791612" style="fill: #8c564b; stroke: #8c564b"/>
     <use xlink:href="#m4f4e7c9aa8" x="131.207759" y="258.493153" style="fill: #8c564b; stroke: #8c564b"/>
     <use xlink:href="#m4f4e7c9aa8" x="143.810403" y="216.64586" style="fill: #8c564b; stroke: #8c564b"/>
     <use xlink:href="#m4f4e7c9aa8" x="156.413046" y="267.824976" style="fill: #8c564b; stroke: #8c564b"/>
     <use xlink:href="#m4f4e7c9aa8" x="169.015689" y="251.633274" style="fill: #8c564b; stroke: #8c564b"/>
     <use xlink:href="#m4f4e7c9aa8" x="181.618333" y="208.634284" style="fill: #8c564b; stroke: #8c564b"/>
     <use xlink:href="#m4f4e7c9aa8" x="194.220976" y="243.897663" style="fill: #8c564b; stroke: #8c564b"/>
     <use xlink:href="#m4f4e7c9aa8" x="206.823619" y="81.897432" style="fill: #8c564b; stroke: #8c564b"/>
     <use xlink:href="#m4f4e7c9aa8" x="219.426262" y="278.911985" style="fill: #8c564b; stroke: #8c564b"/>
     <use xlink:href="#m4f4e7c9aa8" x="232.028906" y="106.521798" style="fill: #8c564b; stroke: #8c564b"/>
     <use xlink:href="#m4f4e7c9aa8" x="244.631549" y="125.755899" style="fill: #8c564b; stroke: #8c564b"/>
     <use xlink:href="#m4f4e7c9aa8" x="269.836835" y="268.410226" style="fill: #8c564b; stroke: #8c564b"/>
     <use xlink:href="#m4f4e7c9aa8" x="282.439479" y="251.292181" style="fill: #8c564b; stroke: #8c564b"/>
     <use xlink:href="#m4f4e7c9aa8" x="307.644765" y="231.39453" style="fill: #8c564b; stroke: #8c564b"/>
     <use xlink:href="#m4f4e7c9aa8" x="320.247409" y="276.888089" style="fill: #8c564b; stroke: #8c564b"/>
     <use xlink:href="#m4f4e7c9aa8" x="332.850052" y="75.53199" style="fill: #8c564b; stroke: #8c564b"/>
     <use xlink:href="#m4f4e7c9aa8" x="345.452695" y="89.305242" style="fill: #8c564b; stroke: #8c564b"/>
     <use xlink:href="#m4f4e7c9aa8" x="358.055338" y="122.915745" style="fill: #8c564b; stroke: #8c564b"/>
     <use xlink:href="#m4f4e7c9aa8" x="383.260625" y="93.070198" style="fill: #8c564b; stroke: #8c564b"/>
     <use xlink:href="#m4f4e7c9aa8" x="395.863268" y="91.43413" style="fill: #8c564b; stroke: #8c564b"/>
     <use xlink:href="#m4f4e7c9aa8" x="408.465912" y="261.965133" style="fill: #8c564b; stroke: #8c564b"/>
     <use xlink:href="#m4f4e7c9aa8" x="421.068555" y="110.472353" style="fill: #8c564b; stroke: #8c564b"/>
     <use xlink:href="#m4f4e7c9aa8" x="446.273841" y="93.915098" style="fill: #8c564b; stroke: #8c564b"/>
     <use xlink:href="#m4f4e7c9aa8" x="458.876485" y="221.619144" style="fill: #8c564b; stroke: #8c564b"/>
     <use xlink:href="#m4f4e7c9aa8" x="471.479128" y="248.557432" style="fill: #8c564b; stroke: #8c564b"/>
     <use xlink:href="#m4f4e7c9aa8" x="484.081771" y="112.83213" style="fill: #8c564b; stroke: #8c564b"/>
     <use xlink:href="#m4f4e7c9aa8" x="496.684415" y="288.28366" style="fill: #8c564b; stroke: #8c564b"/>
     <use xlink:href="#m4f4e7c9aa8" x="509.287058" y="270.4611" style="fill: #8c564b; stroke: #8c564b"/>
     <use xlink:href="#m4f4e7c9aa8" x="521.889701" y="117.798217" style="fill: #8c564b; stroke: #8c564b"/>
     <use xlink:href="#m4f4e7c9aa8" x="534.492344" y="265.540293" style="fill: #8c564b; stroke: #8c564b"/>
     <use xlink:href="#m4f4e7c9aa8" x="559.697631" y="367.030962" style="fill: #8c564b; stroke: #8c564b"/>
     <use xlink:href="#m4f4e7c9aa8" x="572.300274" y="268.656913" style="fill: #8c564b; stroke: #8c564b"/>
     <use xlink:href="#m4f4e7c9aa8" x="584.902917" y="279.367471" style="fill: #8c564b; stroke: #8c564b"/>
     <use xlink:href="#m4f4e7c9aa8" x="610.108204" y="105.674263" style="fill: #8c564b; stroke: #8c564b"/>
     <use xlink:href="#m4f4e7c9aa8" x="647.916134" y="264.308012" style="fill: #8c564b; stroke: #8c564b"/>
     <use xlink:href="#m4f4e7c9aa8" x="660.518777" y="253.677639" style="fill: #8c564b; stroke: #8c564b"/>
     <use xlink:href="#m4f4e7c9aa8" x="673.12142" y="260.336314" style="fill: #8c564b; stroke: #8c564b"/>
    </g>
   </g>
   <g id="patch_3">
    <path d="M 64.41375 529.308125 
L 64.41375 23.837813 
" style="fill: none; stroke: #000000; stroke-width: 0.8; stroke-linejoin: miter; stroke-linecap: square"/>
   </g>
   <g id="patch_4">
    <path d="M 702.1075 529.308125 
L 702.1075 23.837813 
" style="fill: none; stroke: #000000; stroke-width: 0.8; stroke-linejoin: miter; stroke-linecap: square"/>
   </g>
   <g id="patch_5">
    <path d="M 64.41375 529.308125 
L 702.1075 529.308125 
" style="fill: none; stroke: #000000; stroke-width: 0.8; stroke-linejoin: miter; stroke-linecap: square"/>
   </g>
   <g id="patch_6">
    <path d="M 64.41375 23.837812 
L 702.1075 23.837812 
" style="fill: none; stroke: #000000; stroke-width: 0.8; stroke-linejoin: miter; stroke-linecap: square"/>
   </g>
   <g id="text_10">
    <text style="font: 700 14px 'DejaVu Sans', 'Bitstream Vera Sans', 'Computer Modern Sans Serif', 'Lucida Grande', 'Verdana', 'Geneva', 'Lucid', 'Arial', 'Helvetica', 'Avant Garde', sans-serif; text-anchor: middle" x="383.260625" y="17.837813" transform="rotate(-0 383.260625 17.837813)">Tasksubmission - Performance Trend</text>
   </g>
   <g id="legend_1">
    <g id="patch_7">
     <path d="M 740.992188 119.906563 
L 846.004688 119.906563 
Q 848.004688 119.906563 848.004688 117.906563 
L 848.004688 30.837813 
Q 848.004688 28.837813 846.004688 28.837813 
L 740.992188 28.837813 
Q 738.992188 28.837813 738.992188 30.837813 
L 738.992188 117.906563 
Q 738.992188 119.906563 740.992188 119.906563 
z
" style="fill: #ffffff; opacity: 0.8; stroke: #cccccc; stroke-linejoin: miter"/>
    </g>
    <g id="line2d_21">
     <path d="M 742.992188 36.93625 
L 752.992188 36.93625 
L 762.992188 36.93625 
" style="fill: none; stroke: #1f77b4; stroke-width: 2; stroke-linecap: square"/>
     <g>
      <use xlink:href="#m1766ff1306" x="752.992188" y="36.93625" style="fill: #1f77b4; stroke: #1f77b4"/>
     </g>
    </g>
    <g id="text_11">
     <text style="font: 10px 'DejaVu Sans', 'Bitstream Vera Sans', 'Computer Modern Sans Serif', 'Lucida Grande', 'Verdana', 'Geneva', 'Lucid', 'Arial', 'Helvetica', 'Avant Garde', sans-serif; text-anchor: start" x="770.992188" y="40.43625" transform="rotate(-0 770.992188 40.43625)">gcc-14.2 - V1</text>
    </g>
    <g id="line2d_22">
     <path d="M 742.992188 51.614375 
L 752.992188 51.614375 
L 762.992188 51.614375 
" style="fill: none; stroke: #ff7f0e; stroke-width: 2; stroke-linecap: square"/>
     <g>
      <use xlink:href="#me6f53ce579" x="752.992188" y="51.614375" style="fill: #ff7f0e; stroke: #ff7f0e"/>
     </g>
    </g>
    <g id="text_12">
     <text style="font: 10px 'DejaVu Sans', 'Bitstream Vera Sans', 'Computer Modern Sans Serif', 'Lucida Grande', 'Verdana', 'Geneva', 'Lucid', 'Arial', 'Helvetica', 'Avant Garde', sans-serif; text-anchor: start" x="770.992188" y="55.114375" transform="rotate(-0 770.992188 55.114375)">gcc-14.2 - V2</text>
    </g>
    <g id="line2d_23">
     <path d="M 742.992188 66.2925 
L 752.992188 66.2925 
L 762.992188 66.2925 
" style="fill: none; stroke: #2ca02c; stroke-width: 2; stroke-linecap: square"/>
     <g>
      <use xlink:href="#m1e5e5f5bd0" x="752.992188" y="66.2925" style="fill: #2ca02c; stroke: #2ca02c"/>
     </g>
    </g>
    <g id="text_13">
     <text style="font: 10px 'DejaVu Sans', 'Bitstream Vera Sans', 'Computer Modern Sans Serif', 'Lucida Grande', 'Verdana', 'Geneva', 'Lucid', 'Arial', 'Helvetica', 'Avant Garde', sans-serif; text-anchor: start" x="770.992188" y="69.7925" transform="rotate(-0 770.992188 69.7925)">gcc-14.2 - TBB</text>
    </g>
    <g id="line2d_24">
     <path d="M 742.992188 80.970625 
L 752.992188 80.970625 
L 762.992188 80.970625 
" style="fill: none; stroke: #d62728; stroke-width: 2; stroke-linecap: square"/>
     <g>
      <use xlink:href="#ma2d75b365a" x="752.992188" y="80.970625" style="fill: #d62728; stroke: #d62728"/>
     </g>
    </g>
    <g id="text_14">
     <text style="font: 10px 'DejaVu Sans', 'Bitstream Vera Sans', 'Computer Modern Sans Serif', 'Lucida Grande', 'Verdana', 'Geneva', 'Lucid', 'Arial', 'Helvetica', 'Avant Garde', sans-serif; text-anchor: start" x="770.992188" y="84.470625" transform="rotate(-0 770.992188 84.470625)">gcc-4.2 - V1</text>
    </g>
    <g id="line2d_25">
     <path d="M 742.992188 95.64875 
L 752.992188 95.64875 
L 762.992188 95.64875 
" style="fill: none; stroke: #9467bd; stroke-width: 2; stroke-linecap: square"/>
     <g>
      <use xlink:href="#mc1231969ad" x="752.992188" y="95.64875" style="fill: #9467bd; stroke: #9467bd"/>
     </g>
    </g>
    <g id="text_15">
     <text style="font: 10px 'DejaVu Sans', 'Bitstream Vera Sans', 'Computer Modern Sans Serif', 'Lucida Grande', 'Verdana', 'Geneva', 'Lucid', 'Arial', 'Helvetica', 'Avant Garde', sans-serif; text-anchor: start" x="770.992188" y="99.14875" transform="rotate(-0 770.992188 99.14875)">gcc-4.2 - V2</text>
    </g>
    <g id="line2d_26">
     <path d="M 742.992188 110.326875 
L 752.992188 110.326875 
L 762.992188 110.326875 
" style="fill: none; stroke: #8c564b; stroke-width: 2; stroke-linecap: square"/>
     <g>
      <use xlink:href="#m4f4e7c9aa8" x="752.992188" y="110.326875" style="fill: #8c564b; stroke: #8c564b"/>
     </g>
    </g>
    <g id="text_16">
     <text style="font: 10px 'DejaVu Sans', 'Bitstream Vera Sans', 'Computer Modern Sans Serif', 'Lucida Grande', 'Verdana', 'Geneva', 'Lucid', 'Arial', 'Helvetica', 'Avant Garde', sans-serif; text-anchor: start" x="770.992188" y="113.826875" transform="rotate(-0 770.992188 113.826875)">gcc-4.2 - TBB</text>
    </g>
   </g>
  </g>
 </g>
 <defs>
  <clipPath id="p7192bc352d">
   <rect x="64.41375" y="23.837813" width="637.69375" height="505.470313"/>
  </clipPath>
 </defs>
</svg>
