<?xml version="1.0" encoding="utf-8" standalone="no"?>
<!DOCTYPE svg PUBLIC "-//W3C//DTD SVG 1.1//EN"
  "http://www.w3.org/Graphics/SVG/1.1/DTD/svg11.dtd">
<svg xmlns:xlink="http://www.w3.org/1999/xlink" width="847.676719pt" height="568.8pt" viewBox="0 0 847.676719 568.8" xmlns="http://www.w3.org/2000/svg" version="1.1">
 <metadata>
  <rdf:RDF xmlns:dc="http://purl.org/dc/elements/1.1/" xmlns:cc="http://creativecommons.org/ns#" xmlns:rdf="http://www.w3.org/1999/02/22-rdf-syntax-ns#">
   <cc:Work>
    <dc:type rdf:resource="http://purl.org/dc/dcmitype/StillImage"/>
    <dc:date>2025-08-22T23:02:35.192495</dc:date>
    <dc:format>image/svg+xml</dc:format>
    <dc:creator>
     <cc:Agent>
      <dc:title>Matplotlib v3.9.4, https://matplotlib.org/</dc:title>
     </cc:Agent>
    </dc:creator>
   </cc:Work>
  </rdf:RDF>
 </metadata>
 <defs>
  <style type="text/css">*{stroke-linejoin: round; stroke-linecap: butt}</style>
 </defs>
 <g id="figure_1">
  <g id="patch_1">
   <path d="M 0 568.8 
L 847.676719 568.8 
L 847.676719 0 
L 0 0 
z
" style="fill: #ffffff"/>
  </g>
  <g id="axes_1">
   <g id="patch_2">
    <path d="M 64.41375 529.308125 
L 551.548125 529.308125 
L 551.548125 23.837812 
L 64.41375 23.837812 
z
" style="fill: #ffffff"/>
   </g>
   <g id="matplotlib.axis_1">
    <g id="xtick_1">
     <g id="line2d_1">
      <path d="M 86.556222 529.308125 
L 86.556222 23.837812 
" clip-path="url(#p0cc47f5dc7)" style="fill: none; stroke: #b0b0b0; stroke-opacity: 0.3; stroke-width: 0.8; stroke-linecap: square"/>
     </g>
     <g id="line2d_2">
      <defs>
       <path id="m4fb8f3c1ff" d="M 0 0 
L 0 3.5 
" style="stroke: #000000; stroke-width: 0.8"/>
      </defs>
      <g>
       <use xlink:href="#m4fb8f3c1ff" x="86.556222" y="529.308125" style="stroke: #000000; stroke-width: 0.8"/>
      </g>
     </g>
     <g id="text_1">
      <text style="font: 10px 'DejaVu Sans', 'Bitstream Vera Sans', 'Computer Modern Sans Serif', 'Lucida Grande', 'Verdana', 'Geneva', 'Lucid', 'Arial', 'Helvetica', 'Avant Garde', sans-serif; text-anchor: middle" x="86.556222" y="543.906563" transform="rotate(-0 86.556222 543.906563)">96</text>
     </g>
    </g>
    <g id="xtick_2">
     <g id="line2d_3">
      <path d="M 184.967206 529.308125 
L 184.967206 23.837812 
" clip-path="url(#p0cc47f5dc7)" style="fill: none; stroke: #b0b0b0; stroke-opacity: 0.3; stroke-width: 0.8; stroke-linecap: square"/>
     </g>
     <g id="line2d_4">
      <g>
       <use xlink:href="#m4fb8f3c1ff" x="184.967206" y="529.308125" style="stroke: #000000; stroke-width: 0.8"/>
      </g>
     </g>
     <g id="text_2">
      <text style="font: 10px 'DejaVu Sans', 'Bitstream Vera Sans', 'Computer Modern Sans Serif', 'Lucida Grande', 'Verdana', 'Geneva', 'Lucid', 'Arial', 'Helvetica', 'Avant Garde', sans-serif; text-anchor: middle" x="184.967206" y="543.906563" transform="rotate(-0 184.967206 543.906563)">98</text>
     </g>
    </g>
    <g id="xtick_3">
     <g id="line2d_5">
      <path d="M 283.378191 529.308125 
L 283.378191 23.837812 
" clip-path="url(#p0cc47f5dc7)" style="fill: none; stroke: #b0b0b0; stroke-opacity: 0.3; stroke-width: 0.8; stroke-linecap: square"/>
     </g>
     <g id="line2d_6">
      <g>
       <use xlink:href="#m4fb8f3c1ff" x="283.378191" y="529.308125" style="stroke: #000000; stroke-width: 0.8"/>
      </g>
     </g>
     <g id="text_3">
      <text style="font: 10px 'DejaVu Sans', 'Bitstream Vera Sans', 'Computer Modern Sans Serif', 'Lucida Grande', 'Verdana', 'Geneva', 'Lucid', 'Arial', 'Helvetica', 'Avant Garde', sans-serif; text-anchor: middle" x="283.378191" y="543.906563" transform="rotate(-0 283.378191 543.906563)">100</text>
     </g>
    </g>
    <g id="xtick_4">
     <g id="line2d_7">
      <path d="M 381.789176 529.308125 
L 381.789176 23.837812 
" clip-path="url(#p0cc47f5dc7)" style="fill: none; stroke: #b0b0b0; stroke-opacity: 0.3; stroke-width: 0.8; stroke-linecap: square"/>
     </g>
     <g id="line2d_8">
      <g>
       <use xlink:href="#m4fb8f3c1ff" x="381.789176" y="529.308125" style="stroke: #000000; stroke-width: 0.8"/>
      </g>
     </g>
     <g id="text_4">
      <text style="font: 10px 'DejaVu Sans', 'Bitstream Vera Sans', 'Computer Modern Sans Serif', 'Lucida Grande', 'Verdana', 'Geneva', 'Lucid', 'Arial', 'Helvetica', 'Avant Garde', sans-serif; text-anchor: middle" x="381.789176" y="543.906563" transform="rotate(-0 381.789176 543.906563)">102</text>
     </g>
    </g>
    <g id="xtick_5">
     <g id="line2d_9">
      <path d="M 480.200161 529.308125 
L 480.200161 23.837812 
" clip-path="url(#p0cc47f5dc7)" style="fill: none; stroke: #b0b0b0; stroke-opacity: 0.3; stroke-width: 0.8; stroke-linecap: square"/>
     </g>
     <g id="line2d_10">
      <g>
       <use xlink:href="#m4fb8f3c1ff" x="480.200161" y="529.308125" style="stroke: #000000; stroke-width: 0.8"/>
      </g>
     </g>
     <g id="text_5">
      <text style="font: 10px 'DejaVu Sans', 'Bitstream Vera Sans', 'Computer Modern Sans Serif', 'Lucida Grande', 'Verdana', 'Geneva', 'Lucid', 'Arial', 'Helvetica', 'Avant Garde', sans-serif; text-anchor: middle" x="480.200161" y="543.906563" transform="rotate(-0 480.200161 543.906563)">104</text>
     </g>
    </g>
    <g id="text_6">
     <text style="font: 12px 'DejaVu Sans', 'Bitstream Vera Sans', 'Computer Modern Sans Serif', 'Lucida Grande', 'Verdana', 'Geneva', 'Lucid', 'Arial', 'Helvetica', 'Avant Garde', sans-serif; text-anchor: middle" x="307.980938" y="559.104375" transform="rotate(-0 307.980938 559.104375)">Build Number</text>
    </g>
   </g>
   <g id="matplotlib.axis_2">
    <g id="ytick_1">
     <g id="line2d_11">
      <path d="M 64.41375 47.46532 
L 551.548125 47.46532 
" clip-path="url(#p0cc47f5dc7)" style="fill: none; stroke: #b0b0b0; stroke-opacity: 0.3; stroke-width: 0.8; stroke-linecap: square"/>
     </g>
     <g id="line2d_12">
      <defs>
       <path id="m7c8908f6d5" d="M 0 0 
L -3.5 0 
" style="stroke: #000000; stroke-width: 0.8"/>
      </defs>
      <g>
       <use xlink:href="#m7c8908f6d5" x="64.41375" y="47.46532" style="stroke: #000000; stroke-width: 0.8"/>
      </g>
     </g>
     <g id="text_7">
      <!-- $\mathdefault{10^{8}}$ -->
      <g transform="translate(39.81375 51.264539)">
       <text>
        <tspan style="font: 10px 'DejaVu Sans'" x="0 6.362305" y="-0.9765625">10</tspan>
        <tspan style="font: 7px 'DejaVu Sans'" x="12.820312" y="-4.8046875">8</tspan>
       </text>
      </g>
     </g>
    </g>
    <g id="ytick_2">
     <g id="line2d_13">
      <defs>
       <path id="m65e7a2867f" d="M 0 0 
L -2 0 
" style="stroke: #000000; stroke-width: 0.6"/>
      </defs>
      <g>
       <use xlink:href="#m65e7a2867f" x="64.41375" y="518.447842" style="stroke: #000000; stroke-width: 0.6"/>
      </g>
     </g>
     <g id="text_8">
      <!-- $\mathdefault{4\times10^{7}}$ -->
      <g transform="translate(22.81375 522.247061)">
       <text>
        <tspan style="font: 10px 'DejaVu Sans'" x="0 8.310547 18.637695 25" y="-0.06406250000000036">4×10</tspan>
        <tspan style="font: 7px 'DejaVu Sans'" x="31.458008" y="-3.8921875000000004">7</tspan>
       </text>
      </g>
     </g>
    </g>
    <g id="ytick_3">
     <g id="line2d_14">
      <g>
       <use xlink:href="#m65e7a2867f" x="64.41375" y="403.749844" style="stroke: #000000; stroke-width: 0.6"/>
      </g>
     </g>
    </g>
    <g id="ytick_4">
     <g id="line2d_15">
      <g>
       <use xlink:href="#m65e7a2867f" x="64.41375" y="310.034756" style="stroke: #000000; stroke-width: 0.6"/>
      </g>
     </g>
     <g id="text_9">
      <!-- $\mathdefault{6\times10^{7}}$ -->
      <g transform="translate(22.81375 313.833975)">
       <text>
        <tspan style="font: 10px 'DejaVu Sans'" x="0 8.310547 18.637695 25" y="-0.06406250000000036">6×10</tspan>
        <tspan style="font: 7px 'DejaVu Sans'" x="31.458008" y="-3.8921875000000004">7</tspan>
       </text>
      </g>
     </g>
    </g>
    <g id="ytick_5">
     <g id="line2d_16">
      <g>
       <use xlink:href="#m65e7a2867f" x="64.41375" y="230.799778" style="stroke: #000000; stroke-width: 0.6"/>
      </g>
     </g>
    </g>
    <g id="ytick_6">
     <g id="line2d_17">
      <g>
       <use xlink:href="#m65e7a2867f" x="64.41375" y="162.163318" style="stroke: #000000; stroke-width: 0.6"/>
      </g>
     </g>
    </g>
    <g id="ytick_7">
     <g id="line2d_18">
      <g>
       <use xlink:href="#m65e7a2867f" x="64.41375" y="101.62167" style="stroke: #000000; stroke-width: 0.6"/>
      </g>
     </g>
    </g>
    <g id="text_10">
     <text style="font: 12px 'DejaVu Sans', 'Bitstream Vera Sans', 'Computer Modern Sans Serif', 'Lucida Grande', 'Verdana', 'Geneva', 'Lucid', 'Arial', 'Helvetica', 'Avant Garde', sans-serif; text-anchor: middle" x="16.318125" y="276.572969" transform="rotate(-90 16.318125 276.572969)">Median Elapsed Time (nanoseconds)</text>
    </g>
   </g>
   <g id="line2d_19">
    <path d="M 86.556222 47.045419 
L 135.761714 47.041076 
L 234.172699 47.080004 
L 283.378191 47.027793 
L 332.583684 47.091446 
L 381.789176 47.086463 
L 430.994669 47.051649 
L 480.200161 47.081082 
L 529.405653 47.027741 
" clip-path="url(#p0cc47f5dc7)" style="fill: none; stroke: #1f77b4; stroke-width: 2; stroke-linecap: square"/>
    <defs>
     <path id="mbef5e95c5a" d="M 0 3 
C 0.795609 3 1.55874 2.683901 2.12132 2.12132 
C 2.683901 1.55874 3 0.795609 3 0 
C 3 -0.795609 2.683901 -1.55874 2.12132 -2.12132 
C 1.55874 -2.683901 0.795609 -3 0 -3 
C -0.795609 -3 -1.55874 -2.683901 -2.12132 -2.12132 
C -2.683901 -1.55874 -3 -0.795609 -3 0 
C -3 0.795609 -2.683901 1.55874 -2.12132 2.12132 
C -1.55874 2.683901 -0.795609 3 0 3 
z
" style="stroke: #1f77b4"/>
    </defs>
    <g clip-path="url(#p0cc47f5dc7)">
     <use xlink:href="#mbef5e95c5a" x="86.556222" y="47.045419" style="fill: #1f77b4; stroke: #1f77b4"/>
     <use xlink:href="#mbef5e95c5a" x="135.761714" y="47.041076" style="fill: #1f77b4; stroke: #1f77b4"/>
     <use xlink:href="#mbef5e95c5a" x="234.172699" y="47.080004" style="fill: #1f77b4; stroke: #1f77b4"/>
     <use xlink:href="#mbef5e95c5a" x="283.378191" y="47.027793" style="fill: #1f77b4; stroke: #1f77b4"/>
     <use xlink:href="#mbef5e95c5a" x="332.583684" y="47.091446" style="fill: #1f77b4; stroke: #1f77b4"/>
     <use xlink:href="#mbef5e95c5a" x="381.789176" y="47.086463" style="fill: #1f77b4; stroke: #1f77b4"/>
     <use xlink:href="#mbef5e95c5a" x="430.994669" y="47.051649" style="fill: #1f77b4; stroke: #1f77b4"/>
     <use xlink:href="#mbef5e95c5a" x="480.200161" y="47.081082" style="fill: #1f77b4; stroke: #1f77b4"/>
     <use xlink:href="#mbef5e95c5a" x="529.405653" y="47.027741" style="fill: #1f77b4; stroke: #1f77b4"/>
    </g>
   </g>
   <g id="line2d_20">
    <path d="M 86.556222 504.89379 
L 135.761714 503.607486 
L 234.172699 506.332202 
L 283.378191 505.084141 
L 332.583684 505.472802 
L 381.789176 504.794673 
L 430.994669 504.16112 
L 480.200161 504.919896 
L 529.405653 504.286779 
" clip-path="url(#p0cc47f5dc7)" style="fill: none; stroke: #ff7f0e; stroke-width: 2; stroke-linecap: square"/>
    <defs>
     <path id="mc2e227d914" d="M 0 3 
C 0.795609 3 1.55874 2.683901 2.12132 2.12132 
C 2.683901 1.55874 3 0.795609 3 0 
C 3 -0.795609 2.683901 -1.55874 2.12132 -2.12132 
C 1.55874 -2.683901 0.795609 -3 0 -3 
C -0.795609 -3 -1.55874 -2.683901 -2.12132 -2.12132 
C -2.683901 -1.55874 -3 -0.795609 -3 0 
C -3 0.795609 -2.683901 1.55874 -2.12132 2.12132 
C -1.55874 2.683901 -0.795609 3 0 3 
z
" style="stroke: #ff7f0e"/>
    </defs>
    <g clip-path="url(#p0cc47f5dc7)">
     <use xlink:href="#mc2e227d914" x="86.556222" y="504.89379" style="fill: #ff7f0e; stroke: #ff7f0e"/>
     <use xlink:href="#mc2e227d914" x="135.761714" y="503.607486" style="fill: #ff7f0e; stroke: #ff7f0e"/>
     <use xlink:href="#mc2e227d914" x="234.172699" y="506.332202" style="fill: #ff7f0e; stroke: #ff7f0e"/>
     <use xlink:href="#mc2e227d914" x="283.378191" y="505.084141" style="fill: #ff7f0e; stroke: #ff7f0e"/>
     <use xlink:href="#mc2e227d914" x="332.583684" y="505.472802" style="fill: #ff7f0e; stroke: #ff7f0e"/>
     <use xlink:href="#mc2e227d914" x="381.789176" y="504.794673" style="fill: #ff7f0e; stroke: #ff7f0e"/>
     <use xlink:href="#mc2e227d914" x="430.994669" y="504.16112" style="fill: #ff7f0e; stroke: #ff7f0e"/>
     <use xlink:href="#mc2e227d914" x="480.200161" y="504.919896" style="fill: #ff7f0e; stroke: #ff7f0e"/>
     <use xlink:href="#mc2e227d914" x="529.405653" y="504.286779" style="fill: #ff7f0e; stroke: #ff7f0e"/>
    </g>
   </g>
   <g id="line2d_21">
    <path d="M 86.556222 46.933395 
L 135.761714 46.935546 
L 234.172699 47.002323 
L 283.378191 46.938538 
L 332.583684 47.007851 
L 381.789176 47.000212 
L 430.994669 46.973753 
L 480.200161 47.002711 
L 529.405653 46.947428 
" clip-path="url(#p0cc47f5dc7)" style="fill: none; stroke: #2ca02c; stroke-width: 2; stroke-linecap: square"/>
    <defs>
     <path id="m846751d603" d="M 0 3 
C 0.795609 3 1.55874 2.683901 2.12132 2.12132 
C 2.683901 1.55874 3 0.795609 3 0 
C 3 -0.795609 2.683901 -1.55874 2.12132 -2.12132 
C 1.55874 -2.683901 0.795609 -3 0 -3 
C -0.795609 -3 -1.55874 -2.683901 -2.12132 -2.12132 
C -2.683901 -1.55874 -3 -0.795609 -3 0 
C -3 0.795609 -2.683901 1.55874 -2.12132 2.12132 
C -1.55874 2.683901 -0.795609 3 0 3 
z
" style="stroke: #2ca02c"/>
    </defs>
    <g clip-path="url(#p0cc47f5dc7)">
     <use xlink:href="#m846751d603" x="86.556222" y="46.933395" style="fill: #2ca02c; stroke: #2ca02c"/>
     <use xlink:href="#m846751d603" x="135.761714" y="46.935546" style="fill: #2ca02c; stroke: #2ca02c"/>
     <use xlink:href="#m846751d603" x="234.172699" y="47.002323" style="fill: #2ca02c; stroke: #2ca02c"/>
     <use xlink:href="#m846751d603" x="283.378191" y="46.938538" style="fill: #2ca02c; stroke: #2ca02c"/>
     <use xlink:href="#m846751d603" x="332.583684" y="47.007851" style="fill: #2ca02c; stroke: #2ca02c"/>
     <use xlink:href="#m846751d603" x="381.789176" y="47.000212" style="fill: #2ca02c; stroke: #2ca02c"/>
     <use xlink:href="#m846751d603" x="430.994669" y="46.973753" style="fill: #2ca02c; stroke: #2ca02c"/>
     <use xlink:href="#m846751d603" x="480.200161" y="47.002711" style="fill: #2ca02c; stroke: #2ca02c"/>
     <use xlink:href="#m846751d603" x="529.405653" y="46.947428" style="fill: #2ca02c; stroke: #2ca02c"/>
    </g>
   </g>
   <g id="line2d_22">
    <path d="M 86.556222 504.124409 
L 135.761714 504.547281 
L 234.172699 504.931253 
L 283.378191 503.829879 
L 332.583684 505.502805 
L 381.789176 505.584703 
L 430.994669 504.605412 
L 480.200161 505.668892 
L 529.405653 504.652608 
" clip-path="url(#p0cc47f5dc7)" style="fill: none; stroke: #d62728; stroke-width: 2; stroke-linecap: square"/>
    <defs>
     <path id="m2858851bd0" d="M 0 3 
C 0.795609 3 1.55874 2.683901 2.12132 2.12132 
C 2.683901 1.55874 3 0.795609 3 0 
C 3 -0.795609 2.683901 -1.55874 2.12132 -2.12132 
C 1.55874 -2.683901 0.795609 -3 0 -3 
C -0.795609 -3 -1.55874 -2.683901 -2.12132 -2.12132 
C -2.683901 -1.55874 -3 -0.795609 -3 0 
C -3 0.795609 -2.683901 1.55874 -2.12132 2.12132 
C -1.55874 2.683901 -0.795609 3 0 3 
z
" style="stroke: #d62728"/>
    </defs>
    <g clip-path="url(#p0cc47f5dc7)">
     <use xlink:href="#m2858851bd0" x="86.556222" y="504.124409" style="fill: #d62728; stroke: #d62728"/>
     <use xlink:href="#m2858851bd0" x="135.761714" y="504.547281" style="fill: #d62728; stroke: #d62728"/>
     <use xlink:href="#m2858851bd0" x="234.172699" y="504.931253" style="fill: #d62728; stroke: #d62728"/>
     <use xlink:href="#m2858851bd0" x="283.378191" y="503.829879" style="fill: #d62728; stroke: #d62728"/>
     <use xlink:href="#m2858851bd0" x="332.583684" y="505.502805" style="fill: #d62728; stroke: #d62728"/>
     <use xlink:href="#m2858851bd0" x="381.789176" y="505.584703" style="fill: #d62728; stroke: #d62728"/>
     <use xlink:href="#m2858851bd0" x="430.994669" y="504.605412" style="fill: #d62728; stroke: #d62728"/>
     <use xlink:href="#m2858851bd0" x="480.200161" y="505.668892" style="fill: #d62728; stroke: #d62728"/>
     <use xlink:href="#m2858851bd0" x="529.405653" y="504.652608" style="fill: #d62728; stroke: #d62728"/>
    </g>
   </g>
   <g id="line2d_23">
    <path d="M 86.556222 47.058206 
L 135.761714 47.073436 
L 234.172699 47.077584 
L 283.378191 47.050986 
L 332.583684 47.093062 
L 381.789176 47.102646 
L 430.994669 47.095319 
L 480.200161 47.083179 
L 529.405653 47.085848 
" clip-path="url(#p0cc47f5dc7)" style="fill: none; stroke: #9467bd; stroke-width: 2; stroke-linecap: square"/>
    <defs>
     <path id="mdd20365281" d="M 0 3 
C 0.795609 3 1.55874 2.683901 2.12132 2.12132 
C 2.683901 1.55874 3 0.795609 3 0 
C 3 -0.795609 2.683901 -1.55874 2.12132 -2.12132 
C 1.55874 -2.683901 0.795609 -3 0 -3 
C -0.795609 -3 -1.55874 -2.683901 -2.12132 -2.12132 
C -2.683901 -1.55874 -3 -0.795609 -3 0 
C -3 0.795609 -2.683901 1.55874 -2.12132 2.12132 
C -1.55874 2.683901 -0.795609 3 0 3 
z
" style="stroke: #9467bd"/>
    </defs>
    <g clip-path="url(#p0cc47f5dc7)">
     <use xlink:href="#mdd20365281" x="86.556222" y="47.058206" style="fill: #9467bd; stroke: #9467bd"/>
     <use xlink:href="#mdd20365281" x="135.761714" y="47.073436" style="fill: #9467bd; stroke: #9467bd"/>
     <use xlink:href="#mdd20365281" x="234.172699" y="47.077584" style="fill: #9467bd; stroke: #9467bd"/>
     <use xlink:href="#mdd20365281" x="283.378191" y="47.050986" style="fill: #9467bd; stroke: #9467bd"/>
     <use xlink:href="#mdd20365281" x="332.583684" y="47.093062" style="fill: #9467bd; stroke: #9467bd"/>
     <use xlink:href="#mdd20365281" x="381.789176" y="47.102646" style="fill: #9467bd; stroke: #9467bd"/>
     <use xlink:href="#mdd20365281" x="430.994669" y="47.095319" style="fill: #9467bd; stroke: #9467bd"/>
     <use xlink:href="#mdd20365281" x="480.200161" y="47.083179" style="fill: #9467bd; stroke: #9467bd"/>
     <use xlink:href="#mdd20365281" x="529.405653" y="47.085848" style="fill: #9467bd; stroke: #9467bd"/>
    </g>
   </g>
   <g id="line2d_24">
    <path d="M 86.556222 423.351373 
L 135.761714 423.188249 
L 234.172699 423.776519 
L 283.378191 424.294215 
L 332.583684 423.685715 
L 381.789176 423.832076 
L 430.994669 423.624349 
L 480.200161 423.64012 
L 529.405653 423.84617 
" clip-path="url(#p0cc47f5dc7)" style="fill: none; stroke: #8c564b; stroke-width: 2; stroke-linecap: square"/>
    <defs>
     <path id="m7ad578b822" d="M 0 3 
C 0.795609 3 1.55874 2.683901 2.12132 2.12132 
C 2.683901 1.55874 3 0.795609 3 0 
C 3 -0.795609 2.683901 -1.55874 2.12132 -2.12132 
C 1.55874 -2.683901 0.795609 -3 0 -3 
C -0.795609 -3 -1.55874 -2.683901 -2.12132 -2.12132 
C -2.683901 -1.55874 -3 -0.795609 -3 0 
C -3 0.795609 -2.683901 1.55874 -2.12132 2.12132 
C -1.55874 2.683901 -0.795609 3 0 3 
z
" style="stroke: #8c564b"/>
    </defs>
    <g clip-path="url(#p0cc47f5dc7)">
     <use xlink:href="#m7ad578b822" x="86.556222" y="423.351373" style="fill: #8c564b; stroke: #8c564b"/>
     <use xlink:href="#m7ad578b822" x="135.761714" y="423.188249" style="fill: #8c564b; stroke: #8c564b"/>
     <use xlink:href="#m7ad578b822" x="234.172699" y="423.776519" style="fill: #8c564b; stroke: #8c564b"/>
     <use xlink:href="#m7ad578b822" x="283.378191" y="424.294215" style="fill: #8c564b; stroke: #8c564b"/>
     <use xlink:href="#m7ad578b822" x="332.583684" y="423.685715" style="fill: #8c564b; stroke: #8c564b"/>
     <use xlink:href="#m7ad578b822" x="381.789176" y="423.832076" style="fill: #8c564b; stroke: #8c564b"/>
     <use xlink:href="#m7ad578b822" x="430.994669" y="423.624349" style="fill: #8c564b; stroke: #8c564b"/>
     <use xlink:href="#m7ad578b822" x="480.200161" y="423.64012" style="fill: #8c564b; stroke: #8c564b"/>
     <use xlink:href="#m7ad578b822" x="529.405653" y="423.84617" style="fill: #8c564b; stroke: #8c564b"/>
    </g>
   </g>
   <g id="line2d_25">
    <path d="M 86.556222 46.96239 
L 135.761714 46.992283 
L 234.172699 46.999001 
L 283.378191 46.813736 
L 332.583684 47.000552 
L 381.789176 47.007251 
L 430.994669 46.996215 
L 480.200161 46.999432 
L 529.405653 46.98848 
" clip-path="url(#p0cc47f5dc7)" style="fill: none; stroke: #e377c2; stroke-width: 2; stroke-linecap: square"/>
    <defs>
     <path id="m716aee8b04" d="M 0 3 
C 0.795609 3 1.55874 2.683901 2.12132 2.12132 
C 2.683901 1.55874 3 0.795609 3 0 
C 3 -0.795609 2.683901 -1.55874 2.12132 -2.12132 
C 1.55874 -2.683901 0.795609 -3 0 -3 
C -0.795609 -3 -1.55874 -2.683901 -2.12132 -2.12132 
C -2.683901 -1.55874 -3 -0.795609 -3 0 
C -3 0.795609 -2.683901 1.55874 -2.12132 2.12132 
C -1.55874 2.683901 -0.795609 3 0 3 
z
" style="stroke: #e377c2"/>
    </defs>
    <g clip-path="url(#p0cc47f5dc7)">
     <use xlink:href="#m716aee8b04" x="86.556222" y="46.96239" style="fill: #e377c2; stroke: #e377c2"/>
     <use xlink:href="#m716aee8b04" x="135.761714" y="46.992283" style="fill: #e377c2; stroke: #e377c2"/>
     <use xlink:href="#m716aee8b04" x="234.172699" y="46.999001" style="fill: #e377c2; stroke: #e377c2"/>
     <use xlink:href="#m716aee8b04" x="283.378191" y="46.813736" style="fill: #e377c2; stroke: #e377c2"/>
     <use xlink:href="#m716aee8b04" x="332.583684" y="47.000552" style="fill: #e377c2; stroke: #e377c2"/>
     <use xlink:href="#m716aee8b04" x="381.789176" y="47.007251" style="fill: #e377c2; stroke: #e377c2"/>
     <use xlink:href="#m716aee8b04" x="430.994669" y="46.996215" style="fill: #e377c2; stroke: #e377c2"/>
     <use xlink:href="#m716aee8b04" x="480.200161" y="46.999432" style="fill: #e377c2; stroke: #e377c2"/>
     <use xlink:href="#m716aee8b04" x="529.405653" y="46.98848" style="fill: #e377c2; stroke: #e377c2"/>
    </g>
   </g>
   <g id="line2d_26">
    <path d="M 86.556222 423.584551 
L 135.761714 424.032078 
L 234.172699 423.288595 
L 283.378191 423.495664 
L 332.583684 423.826623 
L 381.789176 423.778058 
L 430.994669 422.614645 
L 480.200161 423.163554 
L 529.405653 423.569898 
" clip-path="url(#p0cc47f5dc7)" style="fill: none; stroke: #7f7f7f; stroke-width: 2; stroke-linecap: square"/>
    <defs>
     <path id="m91b1f207f8" d="M 0 3 
C 0.795609 3 1.55874 2.683901 2.12132 2.12132 
C 2.683901 1.55874 3 0.795609 3 0 
C 3 -0.795609 2.683901 -1.55874 2.12132 -2.12132 
C 1.55874 -2.683901 0.795609 -3 0 -3 
C -0.795609 -3 -1.55874 -2.683901 -2.12132 -2.12132 
C -2.683901 -1.55874 -3 -0.795609 -3 0 
C -3 0.795609 -2.683901 1.55874 -2.12132 2.12132 
C -1.55874 2.683901 -0.795609 3 0 3 
z
" style="stroke: #7f7f7f"/>
    </defs>
    <g clip-path="url(#p0cc47f5dc7)">
     <use xlink:href="#m91b1f207f8" x="86.556222" y="423.584551" style="fill: #7f7f7f; stroke: #7f7f7f"/>
     <use xlink:href="#m91b1f207f8" x="135.761714" y="424.032078" style="fill: #7f7f7f; stroke: #7f7f7f"/>
     <use xlink:href="#m91b1f207f8" x="234.172699" y="423.288595" style="fill: #7f7f7f; stroke: #7f7f7f"/>
     <use xlink:href="#m91b1f207f8" x="283.378191" y="423.495664" style="fill: #7f7f7f; stroke: #7f7f7f"/>
     <use xlink:href="#m91b1f207f8" x="332.583684" y="423.826623" style="fill: #7f7f7f; stroke: #7f7f7f"/>
     <use xlink:href="#m91b1f207f8" x="381.789176" y="423.778058" style="fill: #7f7f7f; stroke: #7f7f7f"/>
     <use xlink:href="#m91b1f207f8" x="430.994669" y="422.614645" style="fill: #7f7f7f; stroke: #7f7f7f"/>
     <use xlink:href="#m91b1f207f8" x="480.200161" y="423.163554" style="fill: #7f7f7f; stroke: #7f7f7f"/>
     <use xlink:href="#m91b1f207f8" x="529.405653" y="423.569898" style="fill: #7f7f7f; stroke: #7f7f7f"/>
    </g>
   </g>
   <g id="patch_3">
    <path d="M 64.41375 529.308125 
L 64.41375 23.837812 
" style="fill: none; stroke: #000000; stroke-width: 0.8; stroke-linejoin: miter; stroke-linecap: square"/>
   </g>
   <g id="patch_4">
    <path d="M 551.548125 529.308125 
L 551.548125 23.837812 
" style="fill: none; stroke: #000000; stroke-width: 0.8; stroke-linejoin: miter; stroke-linecap: square"/>
   </g>
   <g id="patch_5">
    <path d="M 64.41375 529.308125 
L 551.548125 529.308125 
" style="fill: none; stroke: #000000; stroke-width: 0.8; stroke-linejoin: miter; stroke-linecap: square"/>
   </g>
   <g id="patch_6">
    <path d="M 64.41375 23.837812 
L 551.548125 23.837812 
" style="fill: none; stroke: #000000; stroke-width: 0.8; stroke-linejoin: miter; stroke-linecap: square"/>
   </g>
   <g id="text_11">
    <text style="font: 700 14px 'DejaVu Sans', 'Bitstream Vera Sans', 'Computer Modern Sans Serif', 'Lucida Grande', 'Verdana', 'Geneva', 'Lucid', 'Arial', 'Helvetica', 'Avant Garde', sans-serif; text-anchor: middle" x="307.980938" y="17.837813" transform="rotate(-0 307.980938 17.837813)">Coroutine Parallel Compute - Performance Trend</text>
   </g>
   <g id="legend_1">
    <g id="patch_7">
     <path d="M 582.904844 151.487813 
L 838.476719 151.487813 
Q 840.476719 151.487813 840.476719 149.487813 
L 840.476719 30.837813 
Q 840.476719 28.837813 838.476719 28.837813 
L 582.904844 28.837813 
Q 580.904844 28.837813 580.904844 30.837813 
L 580.904844 149.487813 
Q 580.904844 151.487813 582.904844 151.487813 
z
" style="fill: #ffffff; opacity: 0.8; stroke: #cccccc; stroke-linejoin: miter"/>
    </g>
    <g id="line2d_27">
     <path d="M 584.904844 36.93625 
L 594.904844 36.93625 
L 604.904844 36.93625 
" style="fill: none; stroke: #1f77b4; stroke-width: 2; stroke-linecap: square"/>
     <g>
      <use xlink:href="#mbef5e95c5a" x="594.904844" y="36.93625" style="fill: #1f77b4; stroke: #1f77b4"/>
     </g>
    </g>
    <g id="text_12">
     <text style="font: 10px 'DejaVu Sans', 'Bitstream Vera Sans', 'Computer Modern Sans Serif', 'Lucida Grande', 'Verdana', 'Geneva', 'Lucid', 'Arial', 'Helvetica', 'Avant Garde', sans-serif; text-anchor: start" x="612.904844" y="40.43625" transform="rotate(-0 612.904844 40.43625)">gcc-14.2 - ParallelCompute_Coroutines_V1</text>
    </g>
    <g id="line2d_28">
     <path d="M 584.904844 51.8925 
L 594.904844 51.8925 
L 604.904844 51.8925 
" style="fill: none; stroke: #ff7f0e; stroke-width: 2; stroke-linecap: square"/>
     <g>
      <use xlink:href="#mc2e227d914" x="594.904844" y="51.8925" style="fill: #ff7f0e; stroke: #ff7f0e"/>
     </g>
    </g>
    <g id="text_13">
     <text style="font: 10px 'DejaVu Sans', 'Bitstream Vera Sans', 'Computer Modern Sans Serif', 'Lucida Grande', 'Verdana', 'Geneva', 'Lucid', 'Arial', 'Helvetica', 'Avant Garde', sans-serif; text-anchor: start" x="612.904844" y="55.3925" transform="rotate(-0 612.904844 55.3925)">gcc-14.2 - ParallelCompute_RegularTasks_V1</text>
    </g>
    <g id="line2d_29">
     <path d="M 584.904844 66.84875 
L 594.904844 66.84875 
L 604.904844 66.84875 
" style="fill: none; stroke: #2ca02c; stroke-width: 2; stroke-linecap: square"/>
     <g>
      <use xlink:href="#m846751d603" x="594.904844" y="66.84875" style="fill: #2ca02c; stroke: #2ca02c"/>
     </g>
    </g>
    <g id="text_14">
     <text style="font: 10px 'DejaVu Sans', 'Bitstream Vera Sans', 'Computer Modern Sans Serif', 'Lucida Grande', 'Verdana', 'Geneva', 'Lucid', 'Arial', 'Helvetica', 'Avant Garde', sans-serif; text-anchor: start" x="612.904844" y="70.34875" transform="rotate(-0 612.904844 70.34875)">gcc-14.2 - ParallelCompute_Coroutines_V2</text>
    </g>
    <g id="line2d_30">
     <path d="M 584.904844 81.805 
L 594.904844 81.805 
L 604.904844 81.805 
" style="fill: none; stroke: #d62728; stroke-width: 2; stroke-linecap: square"/>
     <g>
      <use xlink:href="#m2858851bd0" x="594.904844" y="81.805" style="fill: #d62728; stroke: #d62728"/>
     </g>
    </g>
    <g id="text_15">
     <text style="font: 10px 'DejaVu Sans', 'Bitstream Vera Sans', 'Computer Modern Sans Serif', 'Lucida Grande', 'Verdana', 'Geneva', 'Lucid', 'Arial', 'Helvetica', 'Avant Garde', sans-serif; text-anchor: start" x="612.904844" y="85.305" transform="rotate(-0 612.904844 85.305)">gcc-14.2 - ParallelCompute_RegularTasks_V2</text>
    </g>
    <g id="line2d_31">
     <path d="M 584.904844 96.76125 
L 594.904844 96.76125 
L 604.904844 96.76125 
" style="fill: none; stroke: #9467bd; stroke-width: 2; stroke-linecap: square"/>
     <g>
      <use xlink:href="#mdd20365281" x="594.904844" y="96.76125" style="fill: #9467bd; stroke: #9467bd"/>
     </g>
    </g>
    <g id="text_16">
     <text style="font: 10px 'DejaVu Sans', 'Bitstream Vera Sans', 'Computer Modern Sans Serif', 'Lucida Grande', 'Verdana', 'Geneva', 'Lucid', 'Arial', 'Helvetica', 'Avant Garde', sans-serif; text-anchor: start" x="612.904844" y="100.26125" transform="rotate(-0 612.904844 100.26125)">gcc-4.2 - ParallelCompute_Coroutines_V1</text>
    </g>
    <g id="line2d_32">
     <path d="M 584.904844 111.7175 
L 594.904844 111.7175 
L 604.904844 111.7175 
" style="fill: none; stroke: #8c564b; stroke-width: 2; stroke-linecap: square"/>
     <g>
      <use xlink:href="#m7ad578b822" x="594.904844" y="111.7175" style="fill: #8c564b; stroke: #8c564b"/>
     </g>
    </g>
    <g id="text_17">
     <text style="font: 10px 'DejaVu Sans', 'Bitstream Vera Sans', 'Computer Modern Sans Serif', 'Lucida Grande', 'Verdana', 'Geneva', 'Lucid', 'Arial', 'Helvetica', 'Avant Garde', sans-serif; text-anchor: start" x="612.904844" y="115.2175" transform="rotate(-0 612.904844 115.2175)">gcc-4.2 - ParallelCompute_RegularTasks_V1</text>
    </g>
    <g id="line2d_33">
     <path d="M 584.904844 126.67375 
L 594.904844 126.67375 
L 604.904844 126.67375 
" style="fill: none; stroke: #e377c2; stroke-width: 2; stroke-linecap: square"/>
     <g>
      <use xlink:href="#m716aee8b04" x="594.904844" y="126.67375" style="fill: #e377c2; stroke: #e377c2"/>
     </g>
    </g>
    <g id="text_18">
     <text style="font: 10px 'DejaVu Sans', 'Bitstream Vera Sans', 'Computer Modern Sans Serif', 'Lucida Grande', 'Verdana', 'Geneva', 'Lucid', 'Arial', 'Helvetica', 'Avant Garde', sans-serif; text-anchor: start" x="612.904844" y="130.17375" transform="rotate(-0 612.904844 130.17375)">gcc-4.2 - ParallelCompute_Coroutines_V2</text>
    </g>
    <g id="line2d_34">
     <path d="M 584.904844 141.63 
L 594.904844 141.63 
L 604.904844 141.63 
" style="fill: none; stroke: #7f7f7f; stroke-width: 2; stroke-linecap: square"/>
     <g>
      <use xlink:href="#m91b1f207f8" x="594.904844" y="141.63" style="fill: #7f7f7f; stroke: #7f7f7f"/>
     </g>
    </g>
    <g id="text_19">
     <text style="font: 10px 'DejaVu Sans', 'Bitstream Vera Sans', 'Computer Modern Sans Serif', 'Lucida Grande', 'Verdana', 'Geneva', 'Lucid', 'Arial', 'Helvetica', 'Avant Garde', sans-serif; text-anchor: start" x="612.904844" y="145.13" transform="rotate(-0 612.904844 145.13)">gcc-4.2 - ParallelCompute_RegularTasks_V2</text>
    </g>
   </g>
  </g>
 </g>
 <defs>
  <clipPath id="p0cc47f5dc7">
   <rect x="64.41375" y="23.837813" width="487.134375" height="505.470313"/>
  </clipPath>
 </defs>
</svg>
