<?xml version="1.0" encoding="utf-8" standalone="no"?>
<!DOCTYPE svg PUBLIC "-//W3C//DTD SVG 1.1//EN"
  "http://www.w3.org/Graphics/SVG/1.1/DTD/svg11.dtd">
<svg xmlns:xlink="http://www.w3.org/1999/xlink" width="855.204687pt" height="568.8pt" viewBox="0 0 855.204687 568.8" xmlns="http://www.w3.org/2000/svg" version="1.1">
 <metadata>
  <rdf:RDF xmlns:dc="http://purl.org/dc/elements/1.1/" xmlns:cc="http://creativecommons.org/ns#" xmlns:rdf="http://www.w3.org/1999/02/22-rdf-syntax-ns#">
   <cc:Work>
    <dc:type rdf:resource="http://purl.org/dc/dcmitype/StillImage"/>
    <dc:date>2025-08-30T02:09:46.731303</dc:date>
    <dc:format>image/svg+xml</dc:format>
    <dc:creator>
     <cc:Agent>
      <dc:title>Matplotlib v3.9.4, https://matplotlib.org/</dc:title>
     </cc:Agent>
    </dc:creator>
   </cc:Work>
  </rdf:RDF>
 </metadata>
 <defs>
  <style type="text/css">*{stroke-linejoin: round; stroke-linecap: butt}</style>
 </defs>
 <g id="figure_1">
  <g id="patch_1">
   <path d="M 0 568.8 
L 855.204687 568.8 
L 855.204687 0 
L 0 0 
z
" style="fill: #ffffff"/>
  </g>
  <g id="axes_1">
   <g id="patch_2">
    <path d="M 64.41375 529.308125 
L 702.1075 529.308125 
L 702.1075 23.837812 
L 64.41375 23.837812 
z
" style="fill: #ffffff"/>
   </g>
   <g id="matplotlib.axis_1">
    <g id="xtick_1">
     <g id="line2d_1">
      <path d="M 78.535173 529.308125 
L 78.535173 23.837812 
" clip-path="url(#p4de62793ca)" style="fill: none; stroke: #b0b0b0; stroke-opacity: 0.3; stroke-width: 0.8; stroke-linecap: square"/>
     </g>
     <g id="line2d_2">
      <defs>
       <path id="m1562bba225" d="M 0 0 
L 0 3.5 
" style="stroke: #000000; stroke-width: 0.8"/>
      </defs>
      <g>
       <use xlink:href="#m1562bba225" x="78.535173" y="529.308125" style="stroke: #000000; stroke-width: 0.8"/>
      </g>
     </g>
     <g id="text_1">
      <text style="font: 10px 'DejaVu Sans', 'Bitstream Vera Sans', 'Computer Modern Sans Serif', 'Lucida Grande', 'Verdana', 'Geneva', 'Lucid', 'Arial', 'Helvetica', 'Avant Garde', sans-serif; text-anchor: middle" x="78.535173" y="543.906563" transform="rotate(-0 78.535173 543.906563)">70</text>
     </g>
    </g>
    <g id="xtick_2">
     <g id="line2d_3">
      <path d="M 152.858454 529.308125 
L 152.858454 23.837812 
" clip-path="url(#p4de62793ca)" style="fill: none; stroke: #b0b0b0; stroke-opacity: 0.3; stroke-width: 0.8; stroke-linecap: square"/>
     </g>
     <g id="line2d_4">
      <g>
       <use xlink:href="#m1562bba225" x="152.858454" y="529.308125" style="stroke: #000000; stroke-width: 0.8"/>
      </g>
     </g>
     <g id="text_2">
      <text style="font: 10px 'DejaVu Sans', 'Bitstream Vera Sans', 'Computer Modern Sans Serif', 'Lucida Grande', 'Verdana', 'Geneva', 'Lucid', 'Arial', 'Helvetica', 'Avant Garde', sans-serif; text-anchor: middle" x="152.858454" y="543.906563" transform="rotate(-0 152.858454 543.906563)">75</text>
     </g>
    </g>
    <g id="xtick_3">
     <g id="line2d_5">
      <path d="M 227.181735 529.308125 
L 227.181735 23.837812 
" clip-path="url(#p4de62793ca)" style="fill: none; stroke: #b0b0b0; stroke-opacity: 0.3; stroke-width: 0.8; stroke-linecap: square"/>
     </g>
     <g id="line2d_6">
      <g>
       <use xlink:href="#m1562bba225" x="227.181735" y="529.308125" style="stroke: #000000; stroke-width: 0.8"/>
      </g>
     </g>
     <g id="text_3">
      <text style="font: 10px 'DejaVu Sans', 'Bitstream Vera Sans', 'Computer Modern Sans Serif', 'Lucida Grande', 'Verdana', 'Geneva', 'Lucid', 'Arial', 'Helvetica', 'Avant Garde', sans-serif; text-anchor: middle" x="227.181735" y="543.906563" transform="rotate(-0 227.181735 543.906563)">80</text>
     </g>
    </g>
    <g id="xtick_4">
     <g id="line2d_7">
      <path d="M 301.505016 529.308125 
L 301.505016 23.837812 
" clip-path="url(#p4de62793ca)" style="fill: none; stroke: #b0b0b0; stroke-opacity: 0.3; stroke-width: 0.8; stroke-linecap: square"/>
     </g>
     <g id="line2d_8">
      <g>
       <use xlink:href="#m1562bba225" x="301.505016" y="529.308125" style="stroke: #000000; stroke-width: 0.8"/>
      </g>
     </g>
     <g id="text_4">
      <text style="font: 10px 'DejaVu Sans', 'Bitstream Vera Sans', 'Computer Modern Sans Serif', 'Lucida Grande', 'Verdana', 'Geneva', 'Lucid', 'Arial', 'Helvetica', 'Avant Garde', sans-serif; text-anchor: middle" x="301.505016" y="543.906563" transform="rotate(-0 301.505016 543.906563)">85</text>
     </g>
    </g>
    <g id="xtick_5">
     <g id="line2d_9">
      <path d="M 375.828297 529.308125 
L 375.828297 23.837812 
" clip-path="url(#p4de62793ca)" style="fill: none; stroke: #b0b0b0; stroke-opacity: 0.3; stroke-width: 0.8; stroke-linecap: square"/>
     </g>
     <g id="line2d_10">
      <g>
       <use xlink:href="#m1562bba225" x="375.828297" y="529.308125" style="stroke: #000000; stroke-width: 0.8"/>
      </g>
     </g>
     <g id="text_5">
      <text style="font: 10px 'DejaVu Sans', 'Bitstream Vera Sans', 'Computer Modern Sans Serif', 'Lucida Grande', 'Verdana', 'Geneva', 'Lucid', 'Arial', 'Helvetica', 'Avant Garde', sans-serif; text-anchor: middle" x="375.828297" y="543.906563" transform="rotate(-0 375.828297 543.906563)">90</text>
     </g>
    </g>
    <g id="xtick_6">
     <g id="line2d_11">
      <path d="M 450.151578 529.308125 
L 450.151578 23.837812 
" clip-path="url(#p4de62793ca)" style="fill: none; stroke: #b0b0b0; stroke-opacity: 0.3; stroke-width: 0.8; stroke-linecap: square"/>
     </g>
     <g id="line2d_12">
      <g>
       <use xlink:href="#m1562bba225" x="450.151578" y="529.308125" style="stroke: #000000; stroke-width: 0.8"/>
      </g>
     </g>
     <g id="text_6">
      <text style="font: 10px 'DejaVu Sans', 'Bitstream Vera Sans', 'Computer Modern Sans Serif', 'Lucida Grande', 'Verdana', 'Geneva', 'Lucid', 'Arial', 'Helvetica', 'Avant Garde', sans-serif; text-anchor: middle" x="450.151578" y="543.906563" transform="rotate(-0 450.151578 543.906563)">95</text>
     </g>
    </g>
    <g id="xtick_7">
     <g id="line2d_13">
      <path d="M 524.474859 529.308125 
L 524.474859 23.837812 
" clip-path="url(#p4de62793ca)" style="fill: none; stroke: #b0b0b0; stroke-opacity: 0.3; stroke-width: 0.8; stroke-linecap: square"/>
     </g>
     <g id="line2d_14">
      <g>
       <use xlink:href="#m1562bba225" x="524.474859" y="529.308125" style="stroke: #000000; stroke-width: 0.8"/>
      </g>
     </g>
     <g id="text_7">
      <text style="font: 10px 'DejaVu Sans', 'Bitstream Vera Sans', 'Computer Modern Sans Serif', 'Lucida Grande', 'Verdana', 'Geneva', 'Lucid', 'Arial', 'Helvetica', 'Avant Garde', sans-serif; text-anchor: middle" x="524.474859" y="543.906563" transform="rotate(-0 524.474859 543.906563)">100</text>
     </g>
    </g>
    <g id="xtick_8">
     <g id="line2d_15">
      <path d="M 598.79814 529.308125 
L 598.79814 23.837812 
" clip-path="url(#p4de62793ca)" style="fill: none; stroke: #b0b0b0; stroke-opacity: 0.3; stroke-width: 0.8; stroke-linecap: square"/>
     </g>
     <g id="line2d_16">
      <g>
       <use xlink:href="#m1562bba225" x="598.79814" y="529.308125" style="stroke: #000000; stroke-width: 0.8"/>
      </g>
     </g>
     <g id="text_8">
      <text style="font: 10px 'DejaVu Sans', 'Bitstream Vera Sans', 'Computer Modern Sans Serif', 'Lucida Grande', 'Verdana', 'Geneva', 'Lucid', 'Arial', 'Helvetica', 'Avant Garde', sans-serif; text-anchor: middle" x="598.79814" y="543.906563" transform="rotate(-0 598.79814 543.906563)">105</text>
     </g>
    </g>
    <g id="xtick_9">
     <g id="line2d_17">
      <path d="M 673.12142 529.308125 
L 673.12142 23.837812 
" clip-path="url(#p4de62793ca)" style="fill: none; stroke: #b0b0b0; stroke-opacity: 0.3; stroke-width: 0.8; stroke-linecap: square"/>
     </g>
     <g id="line2d_18">
      <g>
       <use xlink:href="#m1562bba225" x="673.12142" y="529.308125" style="stroke: #000000; stroke-width: 0.8"/>
      </g>
     </g>
     <g id="text_9">
      <text style="font: 10px 'DejaVu Sans', 'Bitstream Vera Sans', 'Computer Modern Sans Serif', 'Lucida Grande', 'Verdana', 'Geneva', 'Lucid', 'Arial', 'Helvetica', 'Avant Garde', sans-serif; text-anchor: middle" x="673.12142" y="543.906563" transform="rotate(-0 673.12142 543.906563)">110</text>
     </g>
    </g>
    <g id="text_10">
     <text style="font: 12px 'DejaVu Sans', 'Bitstream Vera Sans', 'Computer Modern Sans Serif', 'Lucida Grande', 'Verdana', 'Geneva', 'Lucid', 'Arial', 'Helvetica', 'Avant Garde', sans-serif; text-anchor: middle" x="383.260625" y="559.104375" transform="rotate(-0 383.260625 559.104375)">Build Number</text>
    </g>
   </g>
   <g id="matplotlib.axis_2">
    <g id="ytick_1">
     <g id="line2d_19">
      <path d="M 64.41375 348.809781 
L 702.1075 348.809781 
" clip-path="url(#p4de62793ca)" style="fill: none; stroke: #b0b0b0; stroke-opacity: 0.3; stroke-width: 0.8; stroke-linecap: square"/>
     </g>
     <g id="line2d_20">
      <defs>
       <path id="m7f18b21d59" d="M 0 0 
L -3.5 0 
" style="stroke: #000000; stroke-width: 0.8"/>
      </defs>
      <g>
       <use xlink:href="#m7f18b21d59" x="64.41375" y="348.809781" style="stroke: #000000; stroke-width: 0.8"/>
      </g>
     </g>
     <g id="text_11">
      <!-- $\mathdefault{10^{5}}$ -->
      <g transform="translate(39.81375 352.608999)">
       <text>
        <tspan style="font: 10px 'DejaVu Sans'" x="0 6.362305" y="-0.06406250000000036">10</tspan>
        <tspan style="font: 7px 'DejaVu Sans'" x="12.820312" y="-3.8921875000000004">5</tspan>
       </text>
      </g>
     </g>
    </g>
    <g id="ytick_2">
     <g id="line2d_21">
      <defs>
       <path id="m3160e700f4" d="M 0 0 
L -2 0 
" style="stroke: #000000; stroke-width: 0.6"/>
      </defs>
      <g>
       <use xlink:href="#m3160e700f4" x="64.41375" y="477.273547" style="stroke: #000000; stroke-width: 0.6"/>
      </g>
     </g>
    </g>
    <g id="ytick_3">
     <g id="line2d_22">
      <g>
       <use xlink:href="#m3160e700f4" x="64.41375" y="429.179488" style="stroke: #000000; stroke-width: 0.6"/>
      </g>
     </g>
    </g>
    <g id="ytick_4">
     <g id="line2d_23">
      <g>
       <use xlink:href="#m3160e700f4" x="64.41375" y="386.757522" style="stroke: #000000; stroke-width: 0.6"/>
      </g>
     </g>
    </g>
    <g id="ytick_5">
     <g id="line2d_24">
      <g>
       <use xlink:href="#m3160e700f4" x="64.41375" y="99.158666" style="stroke: #000000; stroke-width: 0.6"/>
      </g>
     </g>
     <g id="text_12">
      <!-- $\mathdefault{2\times10^{5}}$ -->
      <g transform="translate(22.81375 102.957885)">
       <text>
        <tspan style="font: 10px 'DejaVu Sans'" x="0 8.310547 18.637695 25" y="-0.06406250000000036">2×10</tspan>
        <tspan style="font: 7px 'DejaVu Sans'" x="31.458008" y="-3.8921875000000004">5</tspan>
       </text>
      </g>
     </g>
    </g>
    <g id="text_13">
     <text style="font: 12px 'DejaVu Sans', 'Bitstream Vera Sans', 'Computer Modern Sans Serif', 'Lucida Grande', 'Verdana', 'Geneva', 'Lucid', 'Arial', 'Helvetica', 'Avant Garde', sans-serif; text-anchor: middle" x="16.318125" y="276.572969" transform="rotate(-90 16.318125 276.572969)">Median Elapsed Time (nanoseconds)</text>
    </g>
   </g>
   <g id="line2d_25">
    <path d="M 93.39983 320.399692 
L 108.264486 149.937849 
L 123.129142 149.122015 
L 137.993798 281.632503 
L 152.858454 73.517706 
L 167.72311 262.330675 
L 182.587767 319.41646 
L 197.452423 320.479253 
L 212.317079 154.791122 
L 227.181735 314.376784 
L 242.046391 314.778644 
L 256.911047 320.044049 
L 271.775704 70.757565 
L 286.64036 317.938266 
L 301.505016 319.597083 
L 316.369672 318.721044 
L 346.098985 319.842596 
L 360.963641 167.082323 
L 375.828297 319.906078 
L 390.692953 153.803023 
L 405.557609 319.841267 
L 420.422265 67.555908 
L 435.286922 318.710773 
L 450.151578 147.600096 
L 465.016234 255.817313 
L 479.88089 170.559724 
L 509.610203 226.811932 
L 524.474859 263.587557 
L 539.339515 157.035303 
L 554.204171 223.21326 
L 569.068827 279.579341 
L 583.933483 278.500091 
L 598.79814 318.151651 
L 613.662796 154.443467 
L 643.392108 239.450357 
L 658.256764 230.756909 
L 673.12142 155.677847 
" clip-path="url(#p4de62793ca)" style="fill: none; stroke: #1f77b4; stroke-width: 2; stroke-linecap: square"/>
    <defs>
     <path id="m2b3a794a07" d="M 0 3 
C 0.795609 3 1.55874 2.683901 2.12132 2.12132 
C 2.683901 1.55874 3 0.795609 3 0 
C 3 -0.795609 2.683901 -1.55874 2.12132 -2.12132 
C 1.55874 -2.683901 0.795609 -3 0 -3 
C -0.795609 -3 -1.55874 -2.683901 -2.12132 -2.12132 
C -2.683901 -1.55874 -3 -0.795609 -3 0 
C -3 0.795609 -2.683901 1.55874 -2.12132 2.12132 
C -1.55874 2.683901 -0.795609 3 0 3 
z
" style="stroke: #1f77b4"/>
    </defs>
    <g clip-path="url(#p4de62793ca)">
     <use xlink:href="#m2b3a794a07" x="93.39983" y="320.399692" style="fill: #1f77b4; stroke: #1f77b4"/>
     <use xlink:href="#m2b3a794a07" x="108.264486" y="149.937849" style="fill: #1f77b4; stroke: #1f77b4"/>
     <use xlink:href="#m2b3a794a07" x="123.129142" y="149.122015" style="fill: #1f77b4; stroke: #1f77b4"/>
     <use xlink:href="#m2b3a794a07" x="137.993798" y="281.632503" style="fill: #1f77b4; stroke: #1f77b4"/>
     <use xlink:href="#m2b3a794a07" x="152.858454" y="73.517706" style="fill: #1f77b4; stroke: #1f77b4"/>
     <use xlink:href="#m2b3a794a07" x="167.72311" y="262.330675" style="fill: #1f77b4; stroke: #1f77b4"/>
     <use xlink:href="#m2b3a794a07" x="182.587767" y="319.41646" style="fill: #1f77b4; stroke: #1f77b4"/>
     <use xlink:href="#m2b3a794a07" x="197.452423" y="320.479253" style="fill: #1f77b4; stroke: #1f77b4"/>
     <use xlink:href="#m2b3a794a07" x="212.317079" y="154.791122" style="fill: #1f77b4; stroke: #1f77b4"/>
     <use xlink:href="#m2b3a794a07" x="227.181735" y="314.376784" style="fill: #1f77b4; stroke: #1f77b4"/>
     <use xlink:href="#m2b3a794a07" x="242.046391" y="314.778644" style="fill: #1f77b4; stroke: #1f77b4"/>
     <use xlink:href="#m2b3a794a07" x="256.911047" y="320.044049" style="fill: #1f77b4; stroke: #1f77b4"/>
     <use xlink:href="#m2b3a794a07" x="271.775704" y="70.757565" style="fill: #1f77b4; stroke: #1f77b4"/>
     <use xlink:href="#m2b3a794a07" x="286.64036" y="317.938266" style="fill: #1f77b4; stroke: #1f77b4"/>
     <use xlink:href="#m2b3a794a07" x="301.505016" y="319.597083" style="fill: #1f77b4; stroke: #1f77b4"/>
     <use xlink:href="#m2b3a794a07" x="316.369672" y="318.721044" style="fill: #1f77b4; stroke: #1f77b4"/>
     <use xlink:href="#m2b3a794a07" x="346.098985" y="319.842596" style="fill: #1f77b4; stroke: #1f77b4"/>
     <use xlink:href="#m2b3a794a07" x="360.963641" y="167.082323" style="fill: #1f77b4; stroke: #1f77b4"/>
     <use xlink:href="#m2b3a794a07" x="375.828297" y="319.906078" style="fill: #1f77b4; stroke: #1f77b4"/>
     <use xlink:href="#m2b3a794a07" x="390.692953" y="153.803023" style="fill: #1f77b4; stroke: #1f77b4"/>
     <use xlink:href="#m2b3a794a07" x="405.557609" y="319.841267" style="fill: #1f77b4; stroke: #1f77b4"/>
     <use xlink:href="#m2b3a794a07" x="420.422265" y="67.555908" style="fill: #1f77b4; stroke: #1f77b4"/>
     <use xlink:href="#m2b3a794a07" x="435.286922" y="318.710773" style="fill: #1f77b4; stroke: #1f77b4"/>
     <use xlink:href="#m2b3a794a07" x="450.151578" y="147.600096" style="fill: #1f77b4; stroke: #1f77b4"/>
     <use xlink:href="#m2b3a794a07" x="465.016234" y="255.817313" style="fill: #1f77b4; stroke: #1f77b4"/>
     <use xlink:href="#m2b3a794a07" x="479.88089" y="170.559724" style="fill: #1f77b4; stroke: #1f77b4"/>
     <use xlink:href="#m2b3a794a07" x="509.610203" y="226.811932" style="fill: #1f77b4; stroke: #1f77b4"/>
     <use xlink:href="#m2b3a794a07" x="524.474859" y="263.587557" style="fill: #1f77b4; stroke: #1f77b4"/>
     <use xlink:href="#m2b3a794a07" x="539.339515" y="157.035303" style="fill: #1f77b4; stroke: #1f77b4"/>
     <use xlink:href="#m2b3a794a07" x="554.204171" y="223.21326" style="fill: #1f77b4; stroke: #1f77b4"/>
     <use xlink:href="#m2b3a794a07" x="569.068827" y="279.579341" style="fill: #1f77b4; stroke: #1f77b4"/>
     <use xlink:href="#m2b3a794a07" x="583.933483" y="278.500091" style="fill: #1f77b4; stroke: #1f77b4"/>
     <use xlink:href="#m2b3a794a07" x="598.79814" y="318.151651" style="fill: #1f77b4; stroke: #1f77b4"/>
     <use xlink:href="#m2b3a794a07" x="613.662796" y="154.443467" style="fill: #1f77b4; stroke: #1f77b4"/>
     <use xlink:href="#m2b3a794a07" x="643.392108" y="239.450357" style="fill: #1f77b4; stroke: #1f77b4"/>
     <use xlink:href="#m2b3a794a07" x="658.256764" y="230.756909" style="fill: #1f77b4; stroke: #1f77b4"/>
     <use xlink:href="#m2b3a794a07" x="673.12142" y="155.677847" style="fill: #1f77b4; stroke: #1f77b4"/>
    </g>
   </g>
   <g id="line2d_26">
    <path d="M 93.39983 287.002065 
L 108.264486 166.941871 
L 123.129142 206.761922 
L 137.993798 267.182754 
L 152.858454 170.52357 
L 167.72311 276.779458 
L 182.587767 267.21556 
L 197.452423 274.060871 
L 212.317079 73.812662 
L 227.181735 273.893797 
L 242.046391 270.935313 
L 256.911047 268.600312 
L 271.775704 164.624075 
L 286.64036 275.976789 
L 301.505016 280.273421 
L 316.369672 161.231057 
L 346.098985 161.617455 
L 360.963641 144.792844 
L 375.828297 251.284103 
L 390.692953 151.838117 
L 405.557609 270.392581 
L 420.422265 169.497912 
L 435.286922 257.445194 
L 450.151578 173.681673 
L 465.016234 322.455249 
L 479.88089 321.781345 
L 509.610203 208.787844 
L 524.474859 158.587297 
L 539.339515 279.041241 
L 554.204171 199.57643 
L 569.068827 162.77635 
L 583.933483 239.735731 
L 598.79814 152.466443 
L 613.662796 167.740743 
L 643.392108 250.586132 
L 658.256764 155.406309 
L 673.12142 155.899553 
" clip-path="url(#p4de62793ca)" style="fill: none; stroke: #ff7f0e; stroke-width: 2; stroke-linecap: square"/>
    <defs>
     <path id="mdd1e085666" d="M 0 3 
C 0.795609 3 1.55874 2.683901 2.12132 2.12132 
C 2.683901 1.55874 3 0.795609 3 0 
C 3 -0.795609 2.683901 -1.55874 2.12132 -2.12132 
C 1.55874 -2.683901 0.795609 -3 0 -3 
C -0.795609 -3 -1.55874 -2.683901 -2.12132 -2.12132 
C -2.683901 -1.55874 -3 -0.795609 -3 0 
C -3 0.795609 -2.683901 1.55874 -2.12132 2.12132 
C -1.55874 2.683901 -0.795609 3 0 3 
z
" style="stroke: #ff7f0e"/>
    </defs>
    <g clip-path="url(#p4de62793ca)">
     <use xlink:href="#mdd1e085666" x="93.39983" y="287.002065" style="fill: #ff7f0e; stroke: #ff7f0e"/>
     <use xlink:href="#mdd1e085666" x="108.264486" y="166.941871" style="fill: #ff7f0e; stroke: #ff7f0e"/>
     <use xlink:href="#mdd1e085666" x="123.129142" y="206.761922" style="fill: #ff7f0e; stroke: #ff7f0e"/>
     <use xlink:href="#mdd1e085666" x="137.993798" y="267.182754" style="fill: #ff7f0e; stroke: #ff7f0e"/>
     <use xlink:href="#mdd1e085666" x="152.858454" y="170.52357" style="fill: #ff7f0e; stroke: #ff7f0e"/>
     <use xlink:href="#mdd1e085666" x="167.72311" y="276.779458" style="fill: #ff7f0e; stroke: #ff7f0e"/>
     <use xlink:href="#mdd1e085666" x="182.587767" y="267.21556" style="fill: #ff7f0e; stroke: #ff7f0e"/>
     <use xlink:href="#mdd1e085666" x="197.452423" y="274.060871" style="fill: #ff7f0e; stroke: #ff7f0e"/>
     <use xlink:href="#mdd1e085666" x="212.317079" y="73.812662" style="fill: #ff7f0e; stroke: #ff7f0e"/>
     <use xlink:href="#mdd1e085666" x="227.181735" y="273.893797" style="fill: #ff7f0e; stroke: #ff7f0e"/>
     <use xlink:href="#mdd1e085666" x="242.046391" y="270.935313" style="fill: #ff7f0e; stroke: #ff7f0e"/>
     <use xlink:href="#mdd1e085666" x="256.911047" y="268.600312" style="fill: #ff7f0e; stroke: #ff7f0e"/>
     <use xlink:href="#mdd1e085666" x="271.775704" y="164.624075" style="fill: #ff7f0e; stroke: #ff7f0e"/>
     <use xlink:href="#mdd1e085666" x="286.64036" y="275.976789" style="fill: #ff7f0e; stroke: #ff7f0e"/>
     <use xlink:href="#mdd1e085666" x="301.505016" y="280.273421" style="fill: #ff7f0e; stroke: #ff7f0e"/>
     <use xlink:href="#mdd1e085666" x="316.369672" y="161.231057" style="fill: #ff7f0e; stroke: #ff7f0e"/>
     <use xlink:href="#mdd1e085666" x="346.098985" y="161.617455" style="fill: #ff7f0e; stroke: #ff7f0e"/>
     <use xlink:href="#mdd1e085666" x="360.963641" y="144.792844" style="fill: #ff7f0e; stroke: #ff7f0e"/>
     <use xlink:href="#mdd1e085666" x="375.828297" y="251.284103" style="fill: #ff7f0e; stroke: #ff7f0e"/>
     <use xlink:href="#mdd1e085666" x="390.692953" y="151.838117" style="fill: #ff7f0e; stroke: #ff7f0e"/>
     <use xlink:href="#mdd1e085666" x="405.557609" y="270.392581" style="fill: #ff7f0e; stroke: #ff7f0e"/>
     <use xlink:href="#mdd1e085666" x="420.422265" y="169.497912" style="fill: #ff7f0e; stroke: #ff7f0e"/>
     <use xlink:href="#mdd1e085666" x="435.286922" y="257.445194" style="fill: #ff7f0e; stroke: #ff7f0e"/>
     <use xlink:href="#mdd1e085666" x="450.151578" y="173.681673" style="fill: #ff7f0e; stroke: #ff7f0e"/>
     <use xlink:href="#mdd1e085666" x="465.016234" y="322.455249" style="fill: #ff7f0e; stroke: #ff7f0e"/>
     <use xlink:href="#mdd1e085666" x="479.88089" y="321.781345" style="fill: #ff7f0e; stroke: #ff7f0e"/>
     <use xlink:href="#mdd1e085666" x="509.610203" y="208.787844" style="fill: #ff7f0e; stroke: #ff7f0e"/>
     <use xlink:href="#mdd1e085666" x="524.474859" y="158.587297" style="fill: #ff7f0e; stroke: #ff7f0e"/>
     <use xlink:href="#mdd1e085666" x="539.339515" y="279.041241" style="fill: #ff7f0e; stroke: #ff7f0e"/>
     <use xlink:href="#mdd1e085666" x="554.204171" y="199.57643" style="fill: #ff7f0e; stroke: #ff7f0e"/>
     <use xlink:href="#mdd1e085666" x="569.068827" y="162.77635" style="fill: #ff7f0e; stroke: #ff7f0e"/>
     <use xlink:href="#mdd1e085666" x="583.933483" y="239.735731" style="fill: #ff7f0e; stroke: #ff7f0e"/>
     <use xlink:href="#mdd1e085666" x="598.79814" y="152.466443" style="fill: #ff7f0e; stroke: #ff7f0e"/>
     <use xlink:href="#mdd1e085666" x="613.662796" y="167.740743" style="fill: #ff7f0e; stroke: #ff7f0e"/>
     <use xlink:href="#mdd1e085666" x="643.392108" y="250.586132" style="fill: #ff7f0e; stroke: #ff7f0e"/>
     <use xlink:href="#mdd1e085666" x="658.256764" y="155.406309" style="fill: #ff7f0e; stroke: #ff7f0e"/>
     <use xlink:href="#mdd1e085666" x="673.12142" y="155.899553" style="fill: #ff7f0e; stroke: #ff7f0e"/>
    </g>
   </g>
   <g id="line2d_27">
    <path d="M 93.39983 309.99342 
L 108.264486 46.813736 
L 123.129142 296.469989 
L 137.993798 303.317241 
L 152.858454 141.040669 
L 167.72311 305.135002 
L 182.587767 226.521224 
L 197.452423 232.205566 
L 212.317079 223.641223 
L 227.181735 303.255982 
L 242.046391 305.186371 
L 256.911047 305.00103 
L 271.775704 229.395298 
L 286.64036 302.467522 
L 301.505016 304.609325 
L 316.369672 227.085921 
L 346.098985 231.385219 
L 360.963641 303.313432 
L 375.828297 222.542209 
L 390.692953 226.229042 
L 405.557609 303.757474 
L 420.422265 300.074694 
L 435.286922 303.929633 
L 450.151578 176.224602 
L 465.016234 304.23484 
L 479.88089 224.920509 
L 509.610203 227.836393 
L 524.474859 226.304308 
L 539.339515 306.221374 
L 554.204171 303.332558 
L 569.068827 197.821714 
L 583.933483 228.456935 
L 598.79814 268.843978 
L 613.662796 228.045366 
L 643.392108 137.099204 
L 658.256764 230.341019 
L 673.12142 303.42709 
" clip-path="url(#p4de62793ca)" style="fill: none; stroke: #2ca02c; stroke-width: 2; stroke-linecap: square"/>
    <defs>
     <path id="m7d4482faf0" d="M 0 3 
C 0.795609 3 1.55874 2.683901 2.12132 2.12132 
C 2.683901 1.55874 3 0.795609 3 0 
C 3 -0.795609 2.683901 -1.55874 2.12132 -2.12132 
C 1.55874 -2.683901 0.795609 -3 0 -3 
C -0.795609 -3 -1.55874 -2.683901 -2.12132 -2.12132 
C -2.683901 -1.55874 -3 -0.795609 -3 0 
C -3 0.795609 -2.683901 1.55874 -2.12132 2.12132 
C -1.55874 2.683901 -0.795609 3 0 3 
z
" style="stroke: #2ca02c"/>
    </defs>
    <g clip-path="url(#p4de62793ca)">
     <use xlink:href="#m7d4482faf0" x="93.39983" y="309.99342" style="fill: #2ca02c; stroke: #2ca02c"/>
     <use xlink:href="#m7d4482faf0" x="108.264486" y="46.813736" style="fill: #2ca02c; stroke: #2ca02c"/>
     <use xlink:href="#m7d4482faf0" x="123.129142" y="296.469989" style="fill: #2ca02c; stroke: #2ca02c"/>
     <use xlink:href="#m7d4482faf0" x="137.993798" y="303.317241" style="fill: #2ca02c; stroke: #2ca02c"/>
     <use xlink:href="#m7d4482faf0" x="152.858454" y="141.040669" style="fill: #2ca02c; stroke: #2ca02c"/>
     <use xlink:href="#m7d4482faf0" x="167.72311" y="305.135002" style="fill: #2ca02c; stroke: #2ca02c"/>
     <use xlink:href="#m7d4482faf0" x="182.587767" y="226.521224" style="fill: #2ca02c; stroke: #2ca02c"/>
     <use xlink:href="#m7d4482faf0" x="197.452423" y="232.205566" style="fill: #2ca02c; stroke: #2ca02c"/>
     <use xlink:href="#m7d4482faf0" x="212.317079" y="223.641223" style="fill: #2ca02c; stroke: #2ca02c"/>
     <use xlink:href="#m7d4482faf0" x="227.181735" y="303.255982" style="fill: #2ca02c; stroke: #2ca02c"/>
     <use xlink:href="#m7d4482faf0" x="242.046391" y="305.186371" style="fill: #2ca02c; stroke: #2ca02c"/>
     <use xlink:href="#m7d4482faf0" x="256.911047" y="305.00103" style="fill: #2ca02c; stroke: #2ca02c"/>
     <use xlink:href="#m7d4482faf0" x="271.775704" y="229.395298" style="fill: #2ca02c; stroke: #2ca02c"/>
     <use xlink:href="#m7d4482faf0" x="286.64036" y="302.467522" style="fill: #2ca02c; stroke: #2ca02c"/>
     <use xlink:href="#m7d4482faf0" x="301.505016" y="304.609325" style="fill: #2ca02c; stroke: #2ca02c"/>
     <use xlink:href="#m7d4482faf0" x="316.369672" y="227.085921" style="fill: #2ca02c; stroke: #2ca02c"/>
     <use xlink:href="#m7d4482faf0" x="346.098985" y="231.385219" style="fill: #2ca02c; stroke: #2ca02c"/>
     <use xlink:href="#m7d4482faf0" x="360.963641" y="303.313432" style="fill: #2ca02c; stroke: #2ca02c"/>
     <use xlink:href="#m7d4482faf0" x="375.828297" y="222.542209" style="fill: #2ca02c; stroke: #2ca02c"/>
     <use xlink:href="#m7d4482faf0" x="390.692953" y="226.229042" style="fill: #2ca02c; stroke: #2ca02c"/>
     <use xlink:href="#m7d4482faf0" x="405.557609" y="303.757474" style="fill: #2ca02c; stroke: #2ca02c"/>
     <use xlink:href="#m7d4482faf0" x="420.422265" y="300.074694" style="fill: #2ca02c; stroke: #2ca02c"/>
     <use xlink:href="#m7d4482faf0" x="435.286922" y="303.929633" style="fill: #2ca02c; stroke: #2ca02c"/>
     <use xlink:href="#m7d4482faf0" x="450.151578" y="176.224602" style="fill: #2ca02c; stroke: #2ca02c"/>
     <use xlink:href="#m7d4482faf0" x="465.016234" y="304.23484" style="fill: #2ca02c; stroke: #2ca02c"/>
     <use xlink:href="#m7d4482faf0" x="479.88089" y="224.920509" style="fill: #2ca02c; stroke: #2ca02c"/>
     <use xlink:href="#m7d4482faf0" x="509.610203" y="227.836393" style="fill: #2ca02c; stroke: #2ca02c"/>
     <use xlink:href="#m7d4482faf0" x="524.474859" y="226.304308" style="fill: #2ca02c; stroke: #2ca02c"/>
     <use xlink:href="#m7d4482faf0" x="539.339515" y="306.221374" style="fill: #2ca02c; stroke: #2ca02c"/>
     <use xlink:href="#m7d4482faf0" x="554.204171" y="303.332558" style="fill: #2ca02c; stroke: #2ca02c"/>
     <use xlink:href="#m7d4482faf0" x="569.068827" y="197.821714" style="fill: #2ca02c; stroke: #2ca02c"/>
     <use xlink:href="#m7d4482faf0" x="583.933483" y="228.456935" style="fill: #2ca02c; stroke: #2ca02c"/>
     <use xlink:href="#m7d4482faf0" x="598.79814" y="268.843978" style="fill: #2ca02c; stroke: #2ca02c"/>
     <use xlink:href="#m7d4482faf0" x="613.662796" y="228.045366" style="fill: #2ca02c; stroke: #2ca02c"/>
     <use xlink:href="#m7d4482faf0" x="643.392108" y="137.099204" style="fill: #2ca02c; stroke: #2ca02c"/>
     <use xlink:href="#m7d4482faf0" x="658.256764" y="230.341019" style="fill: #2ca02c; stroke: #2ca02c"/>
     <use xlink:href="#m7d4482faf0" x="673.12142" y="303.42709" style="fill: #2ca02c; stroke: #2ca02c"/>
    </g>
   </g>
   <g id="line2d_28">
    <path d="M 93.39983 504.215036 
L 108.264486 503.765069 
L 123.129142 504.492944 
L 137.993798 252.207841 
L 152.858454 366.478985 
L 167.72311 245.37849 
L 182.587767 504.920487 
L 197.452423 312.965396 
L 212.317079 240.358593 
L 227.181735 500.138822 
L 242.046391 506.092444 
L 256.911047 504.233335 
L 271.775704 167.327267 
L 301.505016 455.785735 
L 316.369672 506.332202 
L 346.098985 504.986515 
L 360.963641 505.933065 
L 375.828297 409.738681 
L 390.692953 504.225572 
L 405.557609 504.033763 
L 435.286922 504.859379 
L 450.151578 504.7011 
L 465.016234 506.201151 
L 479.88089 503.941775 
L 509.610203 504.616713 
L 524.474859 241.70091 
L 539.339515 503.96006 
L 554.204171 501.387882 
L 569.068827 267.78976 
L 583.933483 505.900195 
L 598.79814 504.140742 
L 613.662796 504.183431 
L 643.392108 363.91169 
L 658.256764 505.978754 
L 673.12142 359.25749 
" clip-path="url(#p4de62793ca)" style="fill: none; stroke: #d62728; stroke-width: 2; stroke-linecap: square"/>
    <defs>
     <path id="mbe238b10e2" d="M 0 3 
C 0.795609 3 1.55874 2.683901 2.12132 2.12132 
C 2.683901 1.55874 3 0.795609 3 0 
C 3 -0.795609 2.683901 -1.55874 2.12132 -2.12132 
C 1.55874 -2.683901 0.795609 -3 0 -3 
C -0.795609 -3 -1.55874 -2.683901 -2.12132 -2.12132 
C -2.683901 -1.55874 -3 -0.795609 -3 0 
C -3 0.795609 -2.683901 1.55874 -2.12132 2.12132 
C -1.55874 2.683901 -0.795609 3 0 3 
z
" style="stroke: #d62728"/>
    </defs>
    <g clip-path="url(#p4de62793ca)">
     <use xlink:href="#mbe238b10e2" x="93.39983" y="504.215036" style="fill: #d62728; stroke: #d62728"/>
     <use xlink:href="#mbe238b10e2" x="108.264486" y="503.765069" style="fill: #d62728; stroke: #d62728"/>
     <use xlink:href="#mbe238b10e2" x="123.129142" y="504.492944" style="fill: #d62728; stroke: #d62728"/>
     <use xlink:href="#mbe238b10e2" x="137.993798" y="252.207841" style="fill: #d62728; stroke: #d62728"/>
     <use xlink:href="#mbe238b10e2" x="152.858454" y="366.478985" style="fill: #d62728; stroke: #d62728"/>
     <use xlink:href="#mbe238b10e2" x="167.72311" y="245.37849" style="fill: #d62728; stroke: #d62728"/>
     <use xlink:href="#mbe238b10e2" x="182.587767" y="504.920487" style="fill: #d62728; stroke: #d62728"/>
     <use xlink:href="#mbe238b10e2" x="197.452423" y="312.965396" style="fill: #d62728; stroke: #d62728"/>
     <use xlink:href="#mbe238b10e2" x="212.317079" y="240.358593" style="fill: #d62728; stroke: #d62728"/>
     <use xlink:href="#mbe238b10e2" x="227.181735" y="500.138822" style="fill: #d62728; stroke: #d62728"/>
     <use xlink:href="#mbe238b10e2" x="242.046391" y="506.092444" style="fill: #d62728; stroke: #d62728"/>
     <use xlink:href="#mbe238b10e2" x="256.911047" y="504.233335" style="fill: #d62728; stroke: #d62728"/>
     <use xlink:href="#mbe238b10e2" x="271.775704" y="167.327267" style="fill: #d62728; stroke: #d62728"/>
     <use xlink:href="#mbe238b10e2" x="301.505016" y="455.785735" style="fill: #d62728; stroke: #d62728"/>
     <use xlink:href="#mbe238b10e2" x="316.369672" y="506.332202" style="fill: #d62728; stroke: #d62728"/>
     <use xlink:href="#mbe238b10e2" x="346.098985" y="504.986515" style="fill: #d62728; stroke: #d62728"/>
     <use xlink:href="#mbe238b10e2" x="360.963641" y="505.933065" style="fill: #d62728; stroke: #d62728"/>
     <use xlink:href="#mbe238b10e2" x="375.828297" y="409.738681" style="fill: #d62728; stroke: #d62728"/>
     <use xlink:href="#mbe238b10e2" x="390.692953" y="504.225572" style="fill: #d62728; stroke: #d62728"/>
     <use xlink:href="#mbe238b10e2" x="405.557609" y="504.033763" style="fill: #d62728; stroke: #d62728"/>
     <use xlink:href="#mbe238b10e2" x="435.286922" y="504.859379" style="fill: #d62728; stroke: #d62728"/>
     <use xlink:href="#mbe238b10e2" x="450.151578" y="504.7011" style="fill: #d62728; stroke: #d62728"/>
     <use xlink:href="#mbe238b10e2" x="465.016234" y="506.201151" style="fill: #d62728; stroke: #d62728"/>
     <use xlink:href="#mbe238b10e2" x="479.88089" y="503.941775" style="fill: #d62728; stroke: #d62728"/>
     <use xlink:href="#mbe238b10e2" x="509.610203" y="504.616713" style="fill: #d62728; stroke: #d62728"/>
     <use xlink:href="#mbe238b10e2" x="524.474859" y="241.70091" style="fill: #d62728; stroke: #d62728"/>
     <use xlink:href="#mbe238b10e2" x="539.339515" y="503.96006" style="fill: #d62728; stroke: #d62728"/>
     <use xlink:href="#mbe238b10e2" x="554.204171" y="501.387882" style="fill: #d62728; stroke: #d62728"/>
     <use xlink:href="#mbe238b10e2" x="569.068827" y="267.78976" style="fill: #d62728; stroke: #d62728"/>
     <use xlink:href="#mbe238b10e2" x="583.933483" y="505.900195" style="fill: #d62728; stroke: #d62728"/>
     <use xlink:href="#mbe238b10e2" x="598.79814" y="504.140742" style="fill: #d62728; stroke: #d62728"/>
     <use xlink:href="#mbe238b10e2" x="613.662796" y="504.183431" style="fill: #d62728; stroke: #d62728"/>
     <use xlink:href="#mbe238b10e2" x="643.392108" y="363.91169" style="fill: #d62728; stroke: #d62728"/>
     <use xlink:href="#mbe238b10e2" x="658.256764" y="505.978754" style="fill: #d62728; stroke: #d62728"/>
     <use xlink:href="#mbe238b10e2" x="673.12142" y="359.25749" style="fill: #d62728; stroke: #d62728"/>
    </g>
   </g>
   <g id="line2d_29">
    <path d="M 93.39983 461.991572 
L 108.264486 407.665623 
L 123.129142 466.93619 
L 137.993798 461.299004 
L 152.858454 368.886445 
L 167.72311 373.015229 
L 182.587767 456.013145 
L 197.452423 284.685676 
L 212.317079 450.498519 
L 227.181735 465.767156 
L 242.046391 459.143063 
L 256.911047 464.044495 
L 271.775704 338.076165 
L 301.505016 450.521448 
L 316.369672 463.665276 
L 346.098985 461.00366 
L 360.963641 461.407165 
L 375.828297 283.638824 
L 390.692953 459.289384 
L 405.557609 464.347663 
L 435.286922 455.468861 
L 450.151578 460.052294 
L 465.016234 478.539969 
L 479.88089 481.961441 
L 509.610203 482.146018 
L 524.474859 368.161718 
L 539.339515 482.726435 
L 554.204171 468.808441 
L 569.068827 479.226324 
L 583.933483 481.495727 
L 598.79814 485.413097 
L 613.662796 481.207952 
L 643.392108 335.347102 
L 658.256764 482.520154 
L 673.12142 366.623896 
" clip-path="url(#p4de62793ca)" style="fill: none; stroke: #9467bd; stroke-width: 2; stroke-linecap: square"/>
    <defs>
     <path id="mc1f1672f5b" d="M 0 3 
C 0.795609 3 1.55874 2.683901 2.12132 2.12132 
C 2.683901 1.55874 3 0.795609 3 0 
C 3 -0.795609 2.683901 -1.55874 2.12132 -2.12132 
C 1.55874 -2.683901 0.795609 -3 0 -3 
C -0.795609 -3 -1.55874 -2.683901 -2.12132 -2.12132 
C -2.683901 -1.55874 -3 -0.795609 -3 0 
C -3 0.795609 -2.683901 1.55874 -2.12132 2.12132 
C -1.55874 2.683901 -0.795609 3 0 3 
z
" style="stroke: #9467bd"/>
    </defs>
    <g clip-path="url(#p4de62793ca)">
     <use xlink:href="#mc1f1672f5b" x="93.39983" y="461.991572" style="fill: #9467bd; stroke: #9467bd"/>
     <use xlink:href="#mc1f1672f5b" x="108.264486" y="407.665623" style="fill: #9467bd; stroke: #9467bd"/>
     <use xlink:href="#mc1f1672f5b" x="123.129142" y="466.93619" style="fill: #9467bd; stroke: #9467bd"/>
     <use xlink:href="#mc1f1672f5b" x="137.993798" y="461.299004" style="fill: #9467bd; stroke: #9467bd"/>
     <use xlink:href="#mc1f1672f5b" x="152.858454" y="368.886445" style="fill: #9467bd; stroke: #9467bd"/>
     <use xlink:href="#mc1f1672f5b" x="167.72311" y="373.015229" style="fill: #9467bd; stroke: #9467bd"/>
     <use xlink:href="#mc1f1672f5b" x="182.587767" y="456.013145" style="fill: #9467bd; stroke: #9467bd"/>
     <use xlink:href="#mc1f1672f5b" x="197.452423" y="284.685676" style="fill: #9467bd; stroke: #9467bd"/>
     <use xlink:href="#mc1f1672f5b" x="212.317079" y="450.498519" style="fill: #9467bd; stroke: #9467bd"/>
     <use xlink:href="#mc1f1672f5b" x="227.181735" y="465.767156" style="fill: #9467bd; stroke: #9467bd"/>
     <use xlink:href="#mc1f1672f5b" x="242.046391" y="459.143063" style="fill: #9467bd; stroke: #9467bd"/>
     <use xlink:href="#mc1f1672f5b" x="256.911047" y="464.044495" style="fill: #9467bd; stroke: #9467bd"/>
     <use xlink:href="#mc1f1672f5b" x="271.775704" y="338.076165" style="fill: #9467bd; stroke: #9467bd"/>
     <use xlink:href="#mc1f1672f5b" x="301.505016" y="450.521448" style="fill: #9467bd; stroke: #9467bd"/>
     <use xlink:href="#mc1f1672f5b" x="316.369672" y="463.665276" style="fill: #9467bd; stroke: #9467bd"/>
     <use xlink:href="#mc1f1672f5b" x="346.098985" y="461.00366" style="fill: #9467bd; stroke: #9467bd"/>
     <use xlink:href="#mc1f1672f5b" x="360.963641" y="461.407165" style="fill: #9467bd; stroke: #9467bd"/>
     <use xlink:href="#mc1f1672f5b" x="375.828297" y="283.638824" style="fill: #9467bd; stroke: #9467bd"/>
     <use xlink:href="#mc1f1672f5b" x="390.692953" y="459.289384" style="fill: #9467bd; stroke: #9467bd"/>
     <use xlink:href="#mc1f1672f5b" x="405.557609" y="464.347663" style="fill: #9467bd; stroke: #9467bd"/>
     <use xlink:href="#mc1f1672f5b" x="435.286922" y="455.468861" style="fill: #9467bd; stroke: #9467bd"/>
     <use xlink:href="#mc1f1672f5b" x="450.151578" y="460.052294" style="fill: #9467bd; stroke: #9467bd"/>
     <use xlink:href="#mc1f1672f5b" x="465.016234" y="478.539969" style="fill: #9467bd; stroke: #9467bd"/>
     <use xlink:href="#mc1f1672f5b" x="479.88089" y="481.961441" style="fill: #9467bd; stroke: #9467bd"/>
     <use xlink:href="#mc1f1672f5b" x="509.610203" y="482.146018" style="fill: #9467bd; stroke: #9467bd"/>
     <use xlink:href="#mc1f1672f5b" x="524.474859" y="368.161718" style="fill: #9467bd; stroke: #9467bd"/>
     <use xlink:href="#mc1f1672f5b" x="539.339515" y="482.726435" style="fill: #9467bd; stroke: #9467bd"/>
     <use xlink:href="#mc1f1672f5b" x="554.204171" y="468.808441" style="fill: #9467bd; stroke: #9467bd"/>
     <use xlink:href="#mc1f1672f5b" x="569.068827" y="479.226324" style="fill: #9467bd; stroke: #9467bd"/>
     <use xlink:href="#mc1f1672f5b" x="583.933483" y="481.495727" style="fill: #9467bd; stroke: #9467bd"/>
     <use xlink:href="#mc1f1672f5b" x="598.79814" y="485.413097" style="fill: #9467bd; stroke: #9467bd"/>
     <use xlink:href="#mc1f1672f5b" x="613.662796" y="481.207952" style="fill: #9467bd; stroke: #9467bd"/>
     <use xlink:href="#mc1f1672f5b" x="643.392108" y="335.347102" style="fill: #9467bd; stroke: #9467bd"/>
     <use xlink:href="#mc1f1672f5b" x="658.256764" y="482.520154" style="fill: #9467bd; stroke: #9467bd"/>
     <use xlink:href="#mc1f1672f5b" x="673.12142" y="366.623896" style="fill: #9467bd; stroke: #9467bd"/>
    </g>
   </g>
   <g id="line2d_30">
    <path d="M 93.39983 428.48458 
L 108.264486 428.116305 
L 123.129142 429.675965 
L 137.993798 431.775747 
L 152.858454 353.222497 
L 167.72311 353.025662 
L 182.587767 431.423573 
L 197.452423 351.697648 
L 212.317079 429.564176 
L 227.181735 429.749008 
L 242.046391 431.810666 
L 256.911047 432.730205 
L 271.775704 351.888674 
L 301.505016 429.943929 
L 316.369672 431.740832 
L 346.098985 430.935437 
L 360.963641 432.640191 
L 375.828297 350.717243 
L 390.692953 430.037264 
L 405.557609 430.563849 
L 435.286922 432.946695 
L 450.151578 430.600459 
L 465.016234 432.090942 
L 479.88089 432.441149 
L 509.610203 431.029655 
L 524.474859 353.069029 
L 539.339515 430.34156 
L 554.204171 430.765022 
L 569.068827 431.597124 
L 583.933483 432.161403 
L 598.79814 429.132219 
L 613.662796 430.818385 
L 643.392108 349.357295 
L 658.256764 433.332136 
L 673.12142 423.09256 
" clip-path="url(#p4de62793ca)" style="fill: none; stroke: #8c564b; stroke-width: 2; stroke-linecap: square"/>
    <defs>
     <path id="m8c445985a3" d="M 0 3 
C 0.795609 3 1.55874 2.683901 2.12132 2.12132 
C 2.683901 1.55874 3 0.795609 3 0 
C 3 -0.795609 2.683901 -1.55874 2.12132 -2.12132 
C 1.55874 -2.683901 0.795609 -3 0 -3 
C -0.795609 -3 -1.55874 -2.683901 -2.12132 -2.12132 
C -2.683901 -1.55874 -3 -0.795609 -3 0 
C -3 0.795609 -2.683901 1.55874 -2.12132 2.12132 
C -1.55874 2.683901 -0.795609 3 0 3 
z
" style="stroke: #8c564b"/>
    </defs>
    <g clip-path="url(#p4de62793ca)">
     <use xlink:href="#m8c445985a3" x="93.39983" y="428.48458" style="fill: #8c564b; stroke: #8c564b"/>
     <use xlink:href="#m8c445985a3" x="108.264486" y="428.116305" style="fill: #8c564b; stroke: #8c564b"/>
     <use xlink:href="#m8c445985a3" x="123.129142" y="429.675965" style="fill: #8c564b; stroke: #8c564b"/>
     <use xlink:href="#m8c445985a3" x="137.993798" y="431.775747" style="fill: #8c564b; stroke: #8c564b"/>
     <use xlink:href="#m8c445985a3" x="152.858454" y="353.222497" style="fill: #8c564b; stroke: #8c564b"/>
     <use xlink:href="#m8c445985a3" x="167.72311" y="353.025662" style="fill: #8c564b; stroke: #8c564b"/>
     <use xlink:href="#m8c445985a3" x="182.587767" y="431.423573" style="fill: #8c564b; stroke: #8c564b"/>
     <use xlink:href="#m8c445985a3" x="197.452423" y="351.697648" style="fill: #8c564b; stroke: #8c564b"/>
     <use xlink:href="#m8c445985a3" x="212.317079" y="429.564176" style="fill: #8c564b; stroke: #8c564b"/>
     <use xlink:href="#m8c445985a3" x="227.181735" y="429.749008" style="fill: #8c564b; stroke: #8c564b"/>
     <use xlink:href="#m8c445985a3" x="242.046391" y="431.810666" style="fill: #8c564b; stroke: #8c564b"/>
     <use xlink:href="#m8c445985a3" x="256.911047" y="432.730205" style="fill: #8c564b; stroke: #8c564b"/>
     <use xlink:href="#m8c445985a3" x="271.775704" y="351.888674" style="fill: #8c564b; stroke: #8c564b"/>
     <use xlink:href="#m8c445985a3" x="301.505016" y="429.943929" style="fill: #8c564b; stroke: #8c564b"/>
     <use xlink:href="#m8c445985a3" x="316.369672" y="431.740832" style="fill: #8c564b; stroke: #8c564b"/>
     <use xlink:href="#m8c445985a3" x="346.098985" y="430.935437" style="fill: #8c564b; stroke: #8c564b"/>
     <use xlink:href="#m8c445985a3" x="360.963641" y="432.640191" style="fill: #8c564b; stroke: #8c564b"/>
     <use xlink:href="#m8c445985a3" x="375.828297" y="350.717243" style="fill: #8c564b; stroke: #8c564b"/>
     <use xlink:href="#m8c445985a3" x="390.692953" y="430.037264" style="fill: #8c564b; stroke: #8c564b"/>
     <use xlink:href="#m8c445985a3" x="405.557609" y="430.563849" style="fill: #8c564b; stroke: #8c564b"/>
     <use xlink:href="#m8c445985a3" x="435.286922" y="432.946695" style="fill: #8c564b; stroke: #8c564b"/>
     <use xlink:href="#m8c445985a3" x="450.151578" y="430.600459" style="fill: #8c564b; stroke: #8c564b"/>
     <use xlink:href="#m8c445985a3" x="465.016234" y="432.090942" style="fill: #8c564b; stroke: #8c564b"/>
     <use xlink:href="#m8c445985a3" x="479.88089" y="432.441149" style="fill: #8c564b; stroke: #8c564b"/>
     <use xlink:href="#m8c445985a3" x="509.610203" y="431.029655" style="fill: #8c564b; stroke: #8c564b"/>
     <use xlink:href="#m8c445985a3" x="524.474859" y="353.069029" style="fill: #8c564b; stroke: #8c564b"/>
     <use xlink:href="#m8c445985a3" x="539.339515" y="430.34156" style="fill: #8c564b; stroke: #8c564b"/>
     <use xlink:href="#m8c445985a3" x="554.204171" y="430.765022" style="fill: #8c564b; stroke: #8c564b"/>
     <use xlink:href="#m8c445985a3" x="569.068827" y="431.597124" style="fill: #8c564b; stroke: #8c564b"/>
     <use xlink:href="#m8c445985a3" x="583.933483" y="432.161403" style="fill: #8c564b; stroke: #8c564b"/>
     <use xlink:href="#m8c445985a3" x="598.79814" y="429.132219" style="fill: #8c564b; stroke: #8c564b"/>
     <use xlink:href="#m8c445985a3" x="613.662796" y="430.818385" style="fill: #8c564b; stroke: #8c564b"/>
     <use xlink:href="#m8c445985a3" x="643.392108" y="349.357295" style="fill: #8c564b; stroke: #8c564b"/>
     <use xlink:href="#m8c445985a3" x="658.256764" y="433.332136" style="fill: #8c564b; stroke: #8c564b"/>
     <use xlink:href="#m8c445985a3" x="673.12142" y="423.09256" style="fill: #8c564b; stroke: #8c564b"/>
    </g>
   </g>
   <g id="patch_3">
    <path d="M 64.41375 529.308125 
L 64.41375 23.837812 
" style="fill: none; stroke: #000000; stroke-width: 0.8; stroke-linejoin: miter; stroke-linecap: square"/>
   </g>
   <g id="patch_4">
    <path d="M 702.1075 529.308125 
L 702.1075 23.837812 
" style="fill: none; stroke: #000000; stroke-width: 0.8; stroke-linejoin: miter; stroke-linecap: square"/>
   </g>
   <g id="patch_5">
    <path d="M 64.41375 529.308125 
L 702.1075 529.308125 
" style="fill: none; stroke: #000000; stroke-width: 0.8; stroke-linejoin: miter; stroke-linecap: square"/>
   </g>
   <g id="patch_6">
    <path d="M 64.41375 23.837812 
L 702.1075 23.837812 
" style="fill: none; stroke: #000000; stroke-width: 0.8; stroke-linejoin: miter; stroke-linecap: square"/>
   </g>
   <g id="text_14">
    <text style="font: 700 14px 'DejaVu Sans', 'Bitstream Vera Sans', 'Computer Modern Sans Serif', 'Lucida Grande', 'Verdana', 'Geneva', 'Lucid', 'Arial', 'Helvetica', 'Avant Garde', sans-serif; text-anchor: middle" x="383.260625" y="17.837813" transform="rotate(-0 383.260625 17.837813)">Matrixops - Performance Trend</text>
   </g>
   <g id="legend_1">
    <g id="patch_7">
     <path d="M 740.992188 119.906563 
L 846.004688 119.906563 
Q 848.004688 119.906563 848.004688 117.906563 
L 848.004688 30.837813 
Q 848.004688 28.837813 846.004688 28.837813 
L 740.992188 28.837813 
Q 738.992188 28.837813 738.992188 30.837813 
L 738.992188 117.906563 
Q 738.992188 119.906563 740.992188 119.906563 
z
" style="fill: #ffffff; opacity: 0.8; stroke: #cccccc; stroke-linejoin: miter"/>
    </g>
    <g id="line2d_31">
     <path d="M 742.992188 36.93625 
L 752.992188 36.93625 
L 762.992188 36.93625 
" style="fill: none; stroke: #1f77b4; stroke-width: 2; stroke-linecap: square"/>
     <g>
      <use xlink:href="#m2b3a794a07" x="752.992188" y="36.93625" style="fill: #1f77b4; stroke: #1f77b4"/>
     </g>
    </g>
    <g id="text_15">
     <text style="font: 10px 'DejaVu Sans', 'Bitstream Vera Sans', 'Computer Modern Sans Serif', 'Lucida Grande', 'Verdana', 'Geneva', 'Lucid', 'Arial', 'Helvetica', 'Avant Garde', sans-serif; text-anchor: start" x="770.992188" y="40.43625" transform="rotate(-0 770.992188 40.43625)">gcc-14.2 - V1</text>
    </g>
    <g id="line2d_32">
     <path d="M 742.992188 51.614375 
L 752.992188 51.614375 
L 762.992188 51.614375 
" style="fill: none; stroke: #ff7f0e; stroke-width: 2; stroke-linecap: square"/>
     <g>
      <use xlink:href="#mdd1e085666" x="752.992188" y="51.614375" style="fill: #ff7f0e; stroke: #ff7f0e"/>
     </g>
    </g>
    <g id="text_16">
     <text style="font: 10px 'DejaVu Sans', 'Bitstream Vera Sans', 'Computer Modern Sans Serif', 'Lucida Grande', 'Verdana', 'Geneva', 'Lucid', 'Arial', 'Helvetica', 'Avant Garde', sans-serif; text-anchor: start" x="770.992188" y="55.114375" transform="rotate(-0 770.992188 55.114375)">gcc-14.2 - V2</text>
    </g>
    <g id="line2d_33">
     <path d="M 742.992188 66.2925 
L 752.992188 66.2925 
L 762.992188 66.2925 
" style="fill: none; stroke: #2ca02c; stroke-width: 2; stroke-linecap: square"/>
     <g>
      <use xlink:href="#m7d4482faf0" x="752.992188" y="66.2925" style="fill: #2ca02c; stroke: #2ca02c"/>
     </g>
    </g>
    <g id="text_17">
     <text style="font: 10px 'DejaVu Sans', 'Bitstream Vera Sans', 'Computer Modern Sans Serif', 'Lucida Grande', 'Verdana', 'Geneva', 'Lucid', 'Arial', 'Helvetica', 'Avant Garde', sans-serif; text-anchor: start" x="770.992188" y="69.7925" transform="rotate(-0 770.992188 69.7925)">gcc-14.2 - TBB</text>
    </g>
    <g id="line2d_34">
     <path d="M 742.992188 80.970625 
L 752.992188 80.970625 
L 762.992188 80.970625 
" style="fill: none; stroke: #d62728; stroke-width: 2; stroke-linecap: square"/>
     <g>
      <use xlink:href="#mbe238b10e2" x="752.992188" y="80.970625" style="fill: #d62728; stroke: #d62728"/>
     </g>
    </g>
    <g id="text_18">
     <text style="font: 10px 'DejaVu Sans', 'Bitstream Vera Sans', 'Computer Modern Sans Serif', 'Lucida Grande', 'Verdana', 'Geneva', 'Lucid', 'Arial', 'Helvetica', 'Avant Garde', sans-serif; text-anchor: start" x="770.992188" y="84.470625" transform="rotate(-0 770.992188 84.470625)">gcc-4.2 - V1</text>
    </g>
    <g id="line2d_35">
     <path d="M 742.992188 95.64875 
L 752.992188 95.64875 
L 762.992188 95.64875 
" style="fill: none; stroke: #9467bd; stroke-width: 2; stroke-linecap: square"/>
     <g>
      <use xlink:href="#mc1f1672f5b" x="752.992188" y="95.64875" style="fill: #9467bd; stroke: #9467bd"/>
     </g>
    </g>
    <g id="text_19">
     <text style="font: 10px 'DejaVu Sans', 'Bitstream Vera Sans', 'Computer Modern Sans Serif', 'Lucida Grande', 'Verdana', 'Geneva', 'Lucid', 'Arial', 'Helvetica', 'Avant Garde', sans-serif; text-anchor: start" x="770.992188" y="99.14875" transform="rotate(-0 770.992188 99.14875)">gcc-4.2 - V2</text>
    </g>
    <g id="line2d_36">
     <path d="M 742.992188 110.326875 
L 752.992188 110.326875 
L 762.992188 110.326875 
" style="fill: none; stroke: #8c564b; stroke-width: 2; stroke-linecap: square"/>
     <g>
      <use xlink:href="#m8c445985a3" x="752.992188" y="110.326875" style="fill: #8c564b; stroke: #8c564b"/>
     </g>
    </g>
    <g id="text_20">
     <text style="font: 10px 'DejaVu Sans', 'Bitstream Vera Sans', 'Computer Modern Sans Serif', 'Lucida Grande', 'Verdana', 'Geneva', 'Lucid', 'Arial', 'Helvetica', 'Avant Garde', sans-serif; text-anchor: start" x="770.992188" y="113.826875" transform="rotate(-0 770.992188 113.826875)">gcc-4.2 - TBB</text>
    </g>
   </g>
  </g>
 </g>
 <defs>
  <clipPath id="p4de62793ca">
   <rect x="64.41375" y="23.837813" width="637.69375" height="505.470313"/>
  </clipPath>
 </defs>
</svg>
