<?xml version="1.0" encoding="utf-8" standalone="no"?>
<!DOCTYPE svg PUBLIC "-//W3C//DTD SVG 1.1//EN"
  "http://www.w3.org/Graphics/SVG/1.1/DTD/svg11.dtd">
<svg xmlns:xlink="http://www.w3.org/1999/xlink" width="855.204687pt" height="568.8pt" viewBox="0 0 855.204687 568.8" xmlns="http://www.w3.org/2000/svg" version="1.1">
 <metadata>
  <rdf:RDF xmlns:dc="http://purl.org/dc/elements/1.1/" xmlns:cc="http://creativecommons.org/ns#" xmlns:rdf="http://www.w3.org/1999/02/22-rdf-syntax-ns#">
   <cc:Work>
    <dc:type rdf:resource="http://purl.org/dc/dcmitype/StillImage"/>
    <dc:date>2025-08-05T06:46:56.746688</dc:date>
    <dc:format>image/svg+xml</dc:format>
    <dc:creator>
     <cc:Agent>
      <dc:title>Matplotlib v3.9.4, https://matplotlib.org/</dc:title>
     </cc:Agent>
    </dc:creator>
   </cc:Work>
  </rdf:RDF>
 </metadata>
 <defs>
  <style type="text/css">*{stroke-linejoin: round; stroke-linecap: butt}</style>
 </defs>
 <g id="figure_1">
  <g id="patch_1">
   <path d="M 0 568.8 
L 855.204687 568.8 
L 855.204687 0 
L 0 0 
z
" style="fill: #ffffff"/>
  </g>
  <g id="axes_1">
   <g id="patch_2">
    <path d="M 64.41375 529.308125 
L 702.1075 529.308125 
L 702.1075 23.837812 
L 64.41375 23.837812 
z
" style="fill: #ffffff"/>
   </g>
   <g id="matplotlib.axis_1">
    <g id="xtick_1">
     <g id="line2d_1">
      <path d="M 151.371989 529.308125 
L 151.371989 23.837812 
" clip-path="url(#p374c000533)" style="fill: none; stroke: #b0b0b0; stroke-opacity: 0.3; stroke-width: 0.8; stroke-linecap: square"/>
     </g>
     <g id="line2d_2">
      <defs>
       <path id="mb6d319bcb7" d="M 0 0 
L 0 3.5 
" style="stroke: #000000; stroke-width: 0.8"/>
      </defs>
      <g>
       <use xlink:href="#mb6d319bcb7" x="151.371989" y="529.308125" style="stroke: #000000; stroke-width: 0.8"/>
      </g>
     </g>
     <g id="text_1">
      <text style="font: 10px 'DejaVu Sans', 'Bitstream Vera Sans', 'Computer Modern Sans Serif', 'Lucida Grande', 'Verdana', 'Geneva', 'Lucid', 'Arial', 'Helvetica', 'Avant Garde', sans-serif; text-anchor: middle" x="151.371989" y="543.906563" transform="rotate(-0 151.371989 543.906563)">72</text>
     </g>
    </g>
    <g id="xtick_2">
     <g id="line2d_3">
      <path d="M 267.316307 529.308125 
L 267.316307 23.837812 
" clip-path="url(#p374c000533)" style="fill: none; stroke: #b0b0b0; stroke-opacity: 0.3; stroke-width: 0.8; stroke-linecap: square"/>
     </g>
     <g id="line2d_4">
      <g>
       <use xlink:href="#mb6d319bcb7" x="267.316307" y="529.308125" style="stroke: #000000; stroke-width: 0.8"/>
      </g>
     </g>
     <g id="text_2">
      <text style="font: 10px 'DejaVu Sans', 'Bitstream Vera Sans', 'Computer Modern Sans Serif', 'Lucida Grande', 'Verdana', 'Geneva', 'Lucid', 'Arial', 'Helvetica', 'Avant Garde', sans-serif; text-anchor: middle" x="267.316307" y="543.906563" transform="rotate(-0 267.316307 543.906563)">74</text>
     </g>
    </g>
    <g id="xtick_3">
     <g id="line2d_5">
      <path d="M 383.260625 529.308125 
L 383.260625 23.837812 
" clip-path="url(#p374c000533)" style="fill: none; stroke: #b0b0b0; stroke-opacity: 0.3; stroke-width: 0.8; stroke-linecap: square"/>
     </g>
     <g id="line2d_6">
      <g>
       <use xlink:href="#mb6d319bcb7" x="383.260625" y="529.308125" style="stroke: #000000; stroke-width: 0.8"/>
      </g>
     </g>
     <g id="text_3">
      <text style="font: 10px 'DejaVu Sans', 'Bitstream Vera Sans', 'Computer Modern Sans Serif', 'Lucida Grande', 'Verdana', 'Geneva', 'Lucid', 'Arial', 'Helvetica', 'Avant Garde', sans-serif; text-anchor: middle" x="383.260625" y="543.906563" transform="rotate(-0 383.260625 543.906563)">76</text>
     </g>
    </g>
    <g id="xtick_4">
     <g id="line2d_7">
      <path d="M 499.204943 529.308125 
L 499.204943 23.837812 
" clip-path="url(#p374c000533)" style="fill: none; stroke: #b0b0b0; stroke-opacity: 0.3; stroke-width: 0.8; stroke-linecap: square"/>
     </g>
     <g id="line2d_8">
      <g>
       <use xlink:href="#mb6d319bcb7" x="499.204943" y="529.308125" style="stroke: #000000; stroke-width: 0.8"/>
      </g>
     </g>
     <g id="text_4">
      <text style="font: 10px 'DejaVu Sans', 'Bitstream Vera Sans', 'Computer Modern Sans Serif', 'Lucida Grande', 'Verdana', 'Geneva', 'Lucid', 'Arial', 'Helvetica', 'Avant Garde', sans-serif; text-anchor: middle" x="499.204943" y="543.906563" transform="rotate(-0 499.204943 543.906563)">78</text>
     </g>
    </g>
    <g id="xtick_5">
     <g id="line2d_9">
      <path d="M 615.149261 529.308125 
L 615.149261 23.837812 
" clip-path="url(#p374c000533)" style="fill: none; stroke: #b0b0b0; stroke-opacity: 0.3; stroke-width: 0.8; stroke-linecap: square"/>
     </g>
     <g id="line2d_10">
      <g>
       <use xlink:href="#mb6d319bcb7" x="615.149261" y="529.308125" style="stroke: #000000; stroke-width: 0.8"/>
      </g>
     </g>
     <g id="text_5">
      <text style="font: 10px 'DejaVu Sans', 'Bitstream Vera Sans', 'Computer Modern Sans Serif', 'Lucida Grande', 'Verdana', 'Geneva', 'Lucid', 'Arial', 'Helvetica', 'Avant Garde', sans-serif; text-anchor: middle" x="615.149261" y="543.906563" transform="rotate(-0 615.149261 543.906563)">80</text>
     </g>
    </g>
    <g id="text_6">
     <text style="font: 12px 'DejaVu Sans', 'Bitstream Vera Sans', 'Computer Modern Sans Serif', 'Lucida Grande', 'Verdana', 'Geneva', 'Lucid', 'Arial', 'Helvetica', 'Avant Garde', sans-serif; text-anchor: middle" x="383.260625" y="559.104375" transform="rotate(-0 383.260625 559.104375)">Build Number</text>
    </g>
   </g>
   <g id="matplotlib.axis_2">
    <g id="ytick_1">
     <g id="line2d_11">
      <defs>
       <path id="m5cf123f8da" d="M 0 0 
L -2 0 
" style="stroke: #000000; stroke-width: 0.6"/>
      </defs>
      <g>
       <use xlink:href="#m5cf123f8da" x="64.41375" y="385.441282" style="stroke: #000000; stroke-width: 0.6"/>
      </g>
     </g>
     <g id="text_7">
      <!-- $\mathdefault{3\times10^{5}}$ -->
      <g transform="translate(22.81375 389.240501)">
       <text>
        <tspan style="font: 10px 'DejaVu Sans'" x="0 8.310547 18.637695 25" y="-0.06406250000000036">3×10</tspan>
        <tspan style="font: 7px 'DejaVu Sans'" x="31.458008" y="-3.8921875000000004">5</tspan>
       </text>
      </g>
     </g>
    </g>
    <g id="ytick_2">
     <g id="line2d_12">
      <g>
       <use xlink:href="#m5cf123f8da" x="64.41375" y="239.060029" style="stroke: #000000; stroke-width: 0.6"/>
      </g>
     </g>
     <g id="text_8">
      <!-- $\mathdefault{4\times10^{5}}$ -->
      <g transform="translate(22.81375 242.859248)">
       <text>
        <tspan style="font: 10px 'DejaVu Sans'" x="0 8.310547 18.637695 25" y="-0.06406250000000036">4×10</tspan>
        <tspan style="font: 7px 'DejaVu Sans'" x="31.458008" y="-3.8921875000000004">5</tspan>
       </text>
      </g>
     </g>
    </g>
    <g id="ytick_3">
     <g id="line2d_13">
      <g>
       <use xlink:href="#m5cf123f8da" x="64.41375" y="125.517908" style="stroke: #000000; stroke-width: 0.6"/>
      </g>
     </g>
    </g>
    <g id="ytick_4">
     <g id="line2d_14">
      <g>
       <use xlink:href="#m5cf123f8da" x="64.41375" y="32.74724" style="stroke: #000000; stroke-width: 0.6"/>
      </g>
     </g>
     <g id="text_9">
      <!-- $\mathdefault{6\times10^{5}}$ -->
      <g transform="translate(22.81375 36.546459)">
       <text>
        <tspan style="font: 10px 'DejaVu Sans'" x="0 8.310547 18.637695 25" y="-0.06406250000000036">6×10</tspan>
        <tspan style="font: 7px 'DejaVu Sans'" x="31.458008" y="-3.8921875000000004">5</tspan>
       </text>
      </g>
     </g>
    </g>
    <g id="text_10">
     <text style="font: 12px 'DejaVu Sans', 'Bitstream Vera Sans', 'Computer Modern Sans Serif', 'Lucida Grande', 'Verdana', 'Geneva', 'Lucid', 'Arial', 'Helvetica', 'Avant Garde', sans-serif; text-anchor: middle" x="16.318125" y="276.572969" transform="rotate(-90 16.318125 276.572969)">Median Elapsed Time (nanoseconds)</text>
    </g>
   </g>
   <g id="line2d_15">
    <path d="M 93.39983 475.181244 
L 151.371989 182.056796 
L 209.344148 208.169786 
L 267.316307 366.280278 
L 325.288466 184.853254 
L 383.260625 471.75111 
L 441.232784 364.521028 
L 499.204943 94.932789 
L 557.177102 173.901034 
L 615.149261 475.959367 
L 673.12142 407.681981 
" clip-path="url(#p374c000533)" style="fill: none; stroke: #1f77b4; stroke-width: 2; stroke-linecap: square"/>
    <defs>
     <path id="md4fd56395b" d="M 0 3 
C 0.795609 3 1.55874 2.683901 2.12132 2.12132 
C 2.683901 1.55874 3 0.795609 3 0 
C 3 -0.795609 2.683901 -1.55874 2.12132 -2.12132 
C 1.55874 -2.683901 0.795609 -3 0 -3 
C -0.795609 -3 -1.55874 -2.683901 -2.12132 -2.12132 
C -2.683901 -1.55874 -3 -0.795609 -3 0 
C -3 0.795609 -2.683901 1.55874 -2.12132 2.12132 
C -1.55874 2.683901 -0.795609 3 0 3 
z
" style="stroke: #1f77b4"/>
    </defs>
    <g clip-path="url(#p374c000533)">
     <use xlink:href="#md4fd56395b" x="93.39983" y="475.181244" style="fill: #1f77b4; stroke: #1f77b4"/>
     <use xlink:href="#md4fd56395b" x="151.371989" y="182.056796" style="fill: #1f77b4; stroke: #1f77b4"/>
     <use xlink:href="#md4fd56395b" x="209.344148" y="208.169786" style="fill: #1f77b4; stroke: #1f77b4"/>
     <use xlink:href="#md4fd56395b" x="267.316307" y="366.280278" style="fill: #1f77b4; stroke: #1f77b4"/>
     <use xlink:href="#md4fd56395b" x="325.288466" y="184.853254" style="fill: #1f77b4; stroke: #1f77b4"/>
     <use xlink:href="#md4fd56395b" x="383.260625" y="471.75111" style="fill: #1f77b4; stroke: #1f77b4"/>
     <use xlink:href="#md4fd56395b" x="441.232784" y="364.521028" style="fill: #1f77b4; stroke: #1f77b4"/>
     <use xlink:href="#md4fd56395b" x="499.204943" y="94.932789" style="fill: #1f77b4; stroke: #1f77b4"/>
     <use xlink:href="#md4fd56395b" x="557.177102" y="173.901034" style="fill: #1f77b4; stroke: #1f77b4"/>
     <use xlink:href="#md4fd56395b" x="615.149261" y="475.959367" style="fill: #1f77b4; stroke: #1f77b4"/>
     <use xlink:href="#md4fd56395b" x="673.12142" y="407.681981" style="fill: #1f77b4; stroke: #1f77b4"/>
    </g>
   </g>
   <g id="line2d_16">
    <path d="M 93.39983 477.3812 
L 151.371989 183.173786 
L 209.344148 192.148863 
L 267.316307 433.264084 
L 325.288466 263.805232 
L 383.260625 481.354398 
L 441.232784 477.425906 
L 499.204943 421.797088 
L 557.177102 315.935486 
L 615.149261 287.292536 
L 673.12142 252.973979 
" clip-path="url(#p374c000533)" style="fill: none; stroke: #ff7f0e; stroke-width: 2; stroke-linecap: square"/>
    <defs>
     <path id="m4e15106e6e" d="M 0 3 
C 0.795609 3 1.55874 2.683901 2.12132 2.12132 
C 2.683901 1.55874 3 0.795609 3 0 
C 3 -0.795609 2.683901 -1.55874 2.12132 -2.12132 
C 1.55874 -2.683901 0.795609 -3 0 -3 
C -0.795609 -3 -1.55874 -2.683901 -2.12132 -2.12132 
C -2.683901 -1.55874 -3 -0.795609 -3 0 
C -3 0.795609 -2.683901 1.55874 -2.12132 2.12132 
C -1.55874 2.683901 -0.795609 3 0 3 
z
" style="stroke: #ff7f0e"/>
    </defs>
    <g clip-path="url(#p374c000533)">
     <use xlink:href="#m4e15106e6e" x="93.39983" y="477.3812" style="fill: #ff7f0e; stroke: #ff7f0e"/>
     <use xlink:href="#m4e15106e6e" x="151.371989" y="183.173786" style="fill: #ff7f0e; stroke: #ff7f0e"/>
     <use xlink:href="#m4e15106e6e" x="209.344148" y="192.148863" style="fill: #ff7f0e; stroke: #ff7f0e"/>
     <use xlink:href="#m4e15106e6e" x="267.316307" y="433.264084" style="fill: #ff7f0e; stroke: #ff7f0e"/>
     <use xlink:href="#m4e15106e6e" x="325.288466" y="263.805232" style="fill: #ff7f0e; stroke: #ff7f0e"/>
     <use xlink:href="#m4e15106e6e" x="383.260625" y="481.354398" style="fill: #ff7f0e; stroke: #ff7f0e"/>
     <use xlink:href="#m4e15106e6e" x="441.232784" y="477.425906" style="fill: #ff7f0e; stroke: #ff7f0e"/>
     <use xlink:href="#m4e15106e6e" x="499.204943" y="421.797088" style="fill: #ff7f0e; stroke: #ff7f0e"/>
     <use xlink:href="#m4e15106e6e" x="557.177102" y="315.935486" style="fill: #ff7f0e; stroke: #ff7f0e"/>
     <use xlink:href="#m4e15106e6e" x="615.149261" y="287.292536" style="fill: #ff7f0e; stroke: #ff7f0e"/>
     <use xlink:href="#m4e15106e6e" x="673.12142" y="252.973979" style="fill: #ff7f0e; stroke: #ff7f0e"/>
    </g>
   </g>
   <g id="line2d_17">
    <path d="M 93.39983 499.108506 
L 151.371989 340.130741 
L 209.344148 159.589275 
L 267.316307 496.508884 
L 325.288466 461.037165 
L 383.260625 493.664976 
L 441.232784 491.770166 
L 499.204943 496.848259 
L 557.177102 496.753262 
L 615.149261 486.875973 
L 673.12142 494.937373 
" clip-path="url(#p374c000533)" style="fill: none; stroke: #2ca02c; stroke-width: 2; stroke-linecap: square"/>
    <defs>
     <path id="m5ac6b9a718" d="M 0 3 
C 0.795609 3 1.55874 2.683901 2.12132 2.12132 
C 2.683901 1.55874 3 0.795609 3 0 
C 3 -0.795609 2.683901 -1.55874 2.12132 -2.12132 
C 1.55874 -2.683901 0.795609 -3 0 -3 
C -0.795609 -3 -1.55874 -2.683901 -2.12132 -2.12132 
C -2.683901 -1.55874 -3 -0.795609 -3 0 
C -3 0.795609 -2.683901 1.55874 -2.12132 2.12132 
C -1.55874 2.683901 -0.795609 3 0 3 
z
" style="stroke: #2ca02c"/>
    </defs>
    <g clip-path="url(#p374c000533)">
     <use xlink:href="#m5ac6b9a718" x="93.39983" y="499.108506" style="fill: #2ca02c; stroke: #2ca02c"/>
     <use xlink:href="#m5ac6b9a718" x="151.371989" y="340.130741" style="fill: #2ca02c; stroke: #2ca02c"/>
     <use xlink:href="#m5ac6b9a718" x="209.344148" y="159.589275" style="fill: #2ca02c; stroke: #2ca02c"/>
     <use xlink:href="#m5ac6b9a718" x="267.316307" y="496.508884" style="fill: #2ca02c; stroke: #2ca02c"/>
     <use xlink:href="#m5ac6b9a718" x="325.288466" y="461.037165" style="fill: #2ca02c; stroke: #2ca02c"/>
     <use xlink:href="#m5ac6b9a718" x="383.260625" y="493.664976" style="fill: #2ca02c; stroke: #2ca02c"/>
     <use xlink:href="#m5ac6b9a718" x="441.232784" y="491.770166" style="fill: #2ca02c; stroke: #2ca02c"/>
     <use xlink:href="#m5ac6b9a718" x="499.204943" y="496.848259" style="fill: #2ca02c; stroke: #2ca02c"/>
     <use xlink:href="#m5ac6b9a718" x="557.177102" y="496.753262" style="fill: #2ca02c; stroke: #2ca02c"/>
     <use xlink:href="#m5ac6b9a718" x="615.149261" y="486.875973" style="fill: #2ca02c; stroke: #2ca02c"/>
     <use xlink:href="#m5ac6b9a718" x="673.12142" y="494.937373" style="fill: #2ca02c; stroke: #2ca02c"/>
    </g>
   </g>
   <g id="line2d_18">
    <path d="M 93.39983 500.946818 
L 151.371989 497.962316 
L 209.344148 505.290051 
L 267.316307 504.504799 
L 325.288466 202.424436 
L 383.260625 205.259005 
L 441.232784 506.332202 
L 499.204943 364.482451 
L 557.177102 496.666513 
L 615.149261 500.895528 
L 673.12142 504.604042 
" clip-path="url(#p374c000533)" style="fill: none; stroke: #d62728; stroke-width: 2; stroke-linecap: square"/>
    <defs>
     <path id="m1c0cef462e" d="M 0 3 
C 0.795609 3 1.55874 2.683901 2.12132 2.12132 
C 2.683901 1.55874 3 0.795609 3 0 
C 3 -0.795609 2.683901 -1.55874 2.12132 -2.12132 
C 1.55874 -2.683901 0.795609 -3 0 -3 
C -0.795609 -3 -1.55874 -2.683901 -2.12132 -2.12132 
C -2.683901 -1.55874 -3 -0.795609 -3 0 
C -3 0.795609 -2.683901 1.55874 -2.12132 2.12132 
C -1.55874 2.683901 -0.795609 3 0 3 
z
" style="stroke: #d62728"/>
    </defs>
    <g clip-path="url(#p374c000533)">
     <use xlink:href="#m1c0cef462e" x="93.39983" y="500.946818" style="fill: #d62728; stroke: #d62728"/>
     <use xlink:href="#m1c0cef462e" x="151.371989" y="497.962316" style="fill: #d62728; stroke: #d62728"/>
     <use xlink:href="#m1c0cef462e" x="209.344148" y="505.290051" style="fill: #d62728; stroke: #d62728"/>
     <use xlink:href="#m1c0cef462e" x="267.316307" y="504.504799" style="fill: #d62728; stroke: #d62728"/>
     <use xlink:href="#m1c0cef462e" x="325.288466" y="202.424436" style="fill: #d62728; stroke: #d62728"/>
     <use xlink:href="#m1c0cef462e" x="383.260625" y="205.259005" style="fill: #d62728; stroke: #d62728"/>
     <use xlink:href="#m1c0cef462e" x="441.232784" y="506.332202" style="fill: #d62728; stroke: #d62728"/>
     <use xlink:href="#m1c0cef462e" x="499.204943" y="364.482451" style="fill: #d62728; stroke: #d62728"/>
     <use xlink:href="#m1c0cef462e" x="557.177102" y="496.666513" style="fill: #d62728; stroke: #d62728"/>
     <use xlink:href="#m1c0cef462e" x="615.149261" y="500.895528" style="fill: #d62728; stroke: #d62728"/>
     <use xlink:href="#m1c0cef462e" x="673.12142" y="504.604042" style="fill: #d62728; stroke: #d62728"/>
    </g>
   </g>
   <g id="line2d_19">
    <path d="M 93.39983 491.114241 
L 151.371989 443.826482 
L 209.344148 495.099987 
L 267.316307 484.985398 
L 325.288466 300.46737 
L 383.260625 46.813736 
L 441.232784 500.199687 
L 499.204943 457.050191 
L 557.177102 301.15977 
L 615.149261 494.617136 
L 673.12142 503.312831 
" clip-path="url(#p374c000533)" style="fill: none; stroke: #9467bd; stroke-width: 2; stroke-linecap: square"/>
    <defs>
     <path id="mcd1b3533b4" d="M 0 3 
C 0.795609 3 1.55874 2.683901 2.12132 2.12132 
C 2.683901 1.55874 3 0.795609 3 0 
C 3 -0.795609 2.683901 -1.55874 2.12132 -2.12132 
C 1.55874 -2.683901 0.795609 -3 0 -3 
C -0.795609 -3 -1.55874 -2.683901 -2.12132 -2.12132 
C -2.683901 -1.55874 -3 -0.795609 -3 0 
C -3 0.795609 -2.683901 1.55874 -2.12132 2.12132 
C -1.55874 2.683901 -0.795609 3 0 3 
z
" style="stroke: #9467bd"/>
    </defs>
    <g clip-path="url(#p374c000533)">
     <use xlink:href="#mcd1b3533b4" x="93.39983" y="491.114241" style="fill: #9467bd; stroke: #9467bd"/>
     <use xlink:href="#mcd1b3533b4" x="151.371989" y="443.826482" style="fill: #9467bd; stroke: #9467bd"/>
     <use xlink:href="#mcd1b3533b4" x="209.344148" y="495.099987" style="fill: #9467bd; stroke: #9467bd"/>
     <use xlink:href="#mcd1b3533b4" x="267.316307" y="484.985398" style="fill: #9467bd; stroke: #9467bd"/>
     <use xlink:href="#mcd1b3533b4" x="325.288466" y="300.46737" style="fill: #9467bd; stroke: #9467bd"/>
     <use xlink:href="#mcd1b3533b4" x="383.260625" y="46.813736" style="fill: #9467bd; stroke: #9467bd"/>
     <use xlink:href="#mcd1b3533b4" x="441.232784" y="500.199687" style="fill: #9467bd; stroke: #9467bd"/>
     <use xlink:href="#mcd1b3533b4" x="499.204943" y="457.050191" style="fill: #9467bd; stroke: #9467bd"/>
     <use xlink:href="#mcd1b3533b4" x="557.177102" y="301.15977" style="fill: #9467bd; stroke: #9467bd"/>
     <use xlink:href="#mcd1b3533b4" x="615.149261" y="494.617136" style="fill: #9467bd; stroke: #9467bd"/>
     <use xlink:href="#mcd1b3533b4" x="673.12142" y="503.312831" style="fill: #9467bd; stroke: #9467bd"/>
    </g>
   </g>
   <g id="line2d_20">
    <path d="M 93.39983 310.885213 
L 151.371989 301.753391 
L 209.344148 309.48608 
L 267.316307 312.889222 
L 325.288466 300.903152 
L 383.260625 304.44399 
L 441.232784 452.113729 
L 499.204943 445.336311 
L 557.177102 303.630838 
L 615.149261 309.324383 
L 673.12142 312.603837 
" clip-path="url(#p374c000533)" style="fill: none; stroke: #8c564b; stroke-width: 2; stroke-linecap: square"/>
    <defs>
     <path id="me389ab945e" d="M 0 3 
C 0.795609 3 1.55874 2.683901 2.12132 2.12132 
C 2.683901 1.55874 3 0.795609 3 0 
C 3 -0.795609 2.683901 -1.55874 2.12132 -2.12132 
C 1.55874 -2.683901 0.795609 -3 0 -3 
C -0.795609 -3 -1.55874 -2.683901 -2.12132 -2.12132 
C -2.683901 -1.55874 -3 -0.795609 -3 0 
C -3 0.795609 -2.683901 1.55874 -2.12132 2.12132 
C -1.55874 2.683901 -0.795609 3 0 3 
z
" style="stroke: #8c564b"/>
    </defs>
    <g clip-path="url(#p374c000533)">
     <use xlink:href="#me389ab945e" x="93.39983" y="310.885213" style="fill: #8c564b; stroke: #8c564b"/>
     <use xlink:href="#me389ab945e" x="151.371989" y="301.753391" style="fill: #8c564b; stroke: #8c564b"/>
     <use xlink:href="#me389ab945e" x="209.344148" y="309.48608" style="fill: #8c564b; stroke: #8c564b"/>
     <use xlink:href="#me389ab945e" x="267.316307" y="312.889222" style="fill: #8c564b; stroke: #8c564b"/>
     <use xlink:href="#me389ab945e" x="325.288466" y="300.903152" style="fill: #8c564b; stroke: #8c564b"/>
     <use xlink:href="#me389ab945e" x="383.260625" y="304.44399" style="fill: #8c564b; stroke: #8c564b"/>
     <use xlink:href="#me389ab945e" x="441.232784" y="452.113729" style="fill: #8c564b; stroke: #8c564b"/>
     <use xlink:href="#me389ab945e" x="499.204943" y="445.336311" style="fill: #8c564b; stroke: #8c564b"/>
     <use xlink:href="#me389ab945e" x="557.177102" y="303.630838" style="fill: #8c564b; stroke: #8c564b"/>
     <use xlink:href="#me389ab945e" x="615.149261" y="309.324383" style="fill: #8c564b; stroke: #8c564b"/>
     <use xlink:href="#me389ab945e" x="673.12142" y="312.603837" style="fill: #8c564b; stroke: #8c564b"/>
    </g>
   </g>
   <g id="patch_3">
    <path d="M 64.41375 529.308125 
L 64.41375 23.837813 
" style="fill: none; stroke: #000000; stroke-width: 0.8; stroke-linejoin: miter; stroke-linecap: square"/>
   </g>
   <g id="patch_4">
    <path d="M 702.1075 529.308125 
L 702.1075 23.837813 
" style="fill: none; stroke: #000000; stroke-width: 0.8; stroke-linejoin: miter; stroke-linecap: square"/>
   </g>
   <g id="patch_5">
    <path d="M 64.41375 529.308125 
L 702.1075 529.308125 
" style="fill: none; stroke: #000000; stroke-width: 0.8; stroke-linejoin: miter; stroke-linecap: square"/>
   </g>
   <g id="patch_6">
    <path d="M 64.41375 23.837812 
L 702.1075 23.837812 
" style="fill: none; stroke: #000000; stroke-width: 0.8; stroke-linejoin: miter; stroke-linecap: square"/>
   </g>
   <g id="text_11">
    <text style="font: 700 14px 'DejaVu Sans', 'Bitstream Vera Sans', 'Computer Modern Sans Serif', 'Lucida Grande', 'Verdana', 'Geneva', 'Lucid', 'Arial', 'Helvetica', 'Avant Garde', sans-serif; text-anchor: middle" x="383.260625" y="17.837813" transform="rotate(-0 383.260625 17.837813)">Mixedworkload - Performance Trend</text>
   </g>
   <g id="legend_1">
    <g id="patch_7">
     <path d="M 740.992188 119.906563 
L 846.004688 119.906563 
Q 848.004688 119.906563 848.004688 117.906563 
L 848.004688 30.837813 
Q 848.004688 28.837813 846.004688 28.837813 
L 740.992188 28.837813 
Q 738.992188 28.837813 738.992188 30.837813 
L 738.992188 117.906563 
Q 738.992188 119.906563 740.992188 119.906563 
z
" style="fill: #ffffff; opacity: 0.8; stroke: #cccccc; stroke-linejoin: miter"/>
    </g>
    <g id="line2d_21">
     <path d="M 742.992188 36.93625 
L 752.992188 36.93625 
L 762.992188 36.93625 
" style="fill: none; stroke: #1f77b4; stroke-width: 2; stroke-linecap: square"/>
     <g>
      <use xlink:href="#md4fd56395b" x="752.992188" y="36.93625" style="fill: #1f77b4; stroke: #1f77b4"/>
     </g>
    </g>
    <g id="text_12">
     <text style="font: 10px 'DejaVu Sans', 'Bitstream Vera Sans', 'Computer Modern Sans Serif', 'Lucida Grande', 'Verdana', 'Geneva', 'Lucid', 'Arial', 'Helvetica', 'Avant Garde', sans-serif; text-anchor: start" x="770.992188" y="40.43625" transform="rotate(-0 770.992188 40.43625)">gcc-14.2 - V1</text>
    </g>
    <g id="line2d_22">
     <path d="M 742.992188 51.614375 
L 752.992188 51.614375 
L 762.992188 51.614375 
" style="fill: none; stroke: #ff7f0e; stroke-width: 2; stroke-linecap: square"/>
     <g>
      <use xlink:href="#m4e15106e6e" x="752.992188" y="51.614375" style="fill: #ff7f0e; stroke: #ff7f0e"/>
     </g>
    </g>
    <g id="text_13">
     <text style="font: 10px 'DejaVu Sans', 'Bitstream Vera Sans', 'Computer Modern Sans Serif', 'Lucida Grande', 'Verdana', 'Geneva', 'Lucid', 'Arial', 'Helvetica', 'Avant Garde', sans-serif; text-anchor: start" x="770.992188" y="55.114375" transform="rotate(-0 770.992188 55.114375)">gcc-14.2 - V2</text>
    </g>
    <g id="line2d_23">
     <path d="M 742.992188 66.2925 
L 752.992188 66.2925 
L 762.992188 66.2925 
" style="fill: none; stroke: #2ca02c; stroke-width: 2; stroke-linecap: square"/>
     <g>
      <use xlink:href="#m5ac6b9a718" x="752.992188" y="66.2925" style="fill: #2ca02c; stroke: #2ca02c"/>
     </g>
    </g>
    <g id="text_14">
     <text style="font: 10px 'DejaVu Sans', 'Bitstream Vera Sans', 'Computer Modern Sans Serif', 'Lucida Grande', 'Verdana', 'Geneva', 'Lucid', 'Arial', 'Helvetica', 'Avant Garde', sans-serif; text-anchor: start" x="770.992188" y="69.7925" transform="rotate(-0 770.992188 69.7925)">gcc-14.2 - TBB</text>
    </g>
    <g id="line2d_24">
     <path d="M 742.992188 80.970625 
L 752.992188 80.970625 
L 762.992188 80.970625 
" style="fill: none; stroke: #d62728; stroke-width: 2; stroke-linecap: square"/>
     <g>
      <use xlink:href="#m1c0cef462e" x="752.992188" y="80.970625" style="fill: #d62728; stroke: #d62728"/>
     </g>
    </g>
    <g id="text_15">
     <text style="font: 10px 'DejaVu Sans', 'Bitstream Vera Sans', 'Computer Modern Sans Serif', 'Lucida Grande', 'Verdana', 'Geneva', 'Lucid', 'Arial', 'Helvetica', 'Avant Garde', sans-serif; text-anchor: start" x="770.992188" y="84.470625" transform="rotate(-0 770.992188 84.470625)">gcc-4.2 - V1</text>
    </g>
    <g id="line2d_25">
     <path d="M 742.992188 95.64875 
L 752.992188 95.64875 
L 762.992188 95.64875 
" style="fill: none; stroke: #9467bd; stroke-width: 2; stroke-linecap: square"/>
     <g>
      <use xlink:href="#mcd1b3533b4" x="752.992188" y="95.64875" style="fill: #9467bd; stroke: #9467bd"/>
     </g>
    </g>
    <g id="text_16">
     <text style="font: 10px 'DejaVu Sans', 'Bitstream Vera Sans', 'Computer Modern Sans Serif', 'Lucida Grande', 'Verdana', 'Geneva', 'Lucid', 'Arial', 'Helvetica', 'Avant Garde', sans-serif; text-anchor: start" x="770.992188" y="99.14875" transform="rotate(-0 770.992188 99.14875)">gcc-4.2 - V2</text>
    </g>
    <g id="line2d_26">
     <path d="M 742.992188 110.326875 
L 752.992188 110.326875 
L 762.992188 110.326875 
" style="fill: none; stroke: #8c564b; stroke-width: 2; stroke-linecap: square"/>
     <g>
      <use xlink:href="#me389ab945e" x="752.992188" y="110.326875" style="fill: #8c564b; stroke: #8c564b"/>
     </g>
    </g>
    <g id="text_17">
     <text style="font: 10px 'DejaVu Sans', 'Bitstream Vera Sans', 'Computer Modern Sans Serif', 'Lucida Grande', 'Verdana', 'Geneva', 'Lucid', 'Arial', 'Helvetica', 'Avant Garde', sans-serif; text-anchor: start" x="770.992188" y="113.826875" transform="rotate(-0 770.992188 113.826875)">gcc-4.2 - TBB</text>
    </g>
   </g>
  </g>
 </g>
 <defs>
  <clipPath id="p374c000533">
   <rect x="64.41375" y="23.837813" width="637.69375" height="505.470313"/>
  </clipPath>
 </defs>
</svg>
