<?xml version="1.0" encoding="utf-8" standalone="no"?>
<!DOCTYPE svg PUBLIC "-//W3C//DTD SVG 1.1//EN"
  "http://www.w3.org/Graphics/SVG/1.1/DTD/svg11.dtd">
<svg xmlns:xlink="http://www.w3.org/1999/xlink" width="855.204687pt" height="568.8pt" viewBox="0 0 855.204687 568.8" xmlns="http://www.w3.org/2000/svg" version="1.1">
 <metadata>
  <rdf:RDF xmlns:dc="http://purl.org/dc/elements/1.1/" xmlns:cc="http://creativecommons.org/ns#" xmlns:rdf="http://www.w3.org/1999/02/22-rdf-syntax-ns#">
   <cc:Work>
    <dc:type rdf:resource="http://purl.org/dc/dcmitype/StillImage"/>
    <dc:date>2025-08-05T04:43:14.924495</dc:date>
    <dc:format>image/svg+xml</dc:format>
    <dc:creator>
     <cc:Agent>
      <dc:title>Matplotlib v3.9.4, https://matplotlib.org/</dc:title>
     </cc:Agent>
    </dc:creator>
   </cc:Work>
  </rdf:RDF>
 </metadata>
 <defs>
  <style type="text/css">*{stroke-linejoin: round; stroke-linecap: butt}</style>
 </defs>
 <g id="figure_1">
  <g id="patch_1">
   <path d="M 0 568.8 
L 855.204687 568.8 
L 855.204687 0 
L 0 0 
z
" style="fill: #ffffff"/>
  </g>
  <g id="axes_1">
   <g id="patch_2">
    <path d="M 64.41375 529.308125 
L 702.1075 529.308125 
L 702.1075 23.837812 
L 64.41375 23.837812 
z
" style="fill: #ffffff"/>
   </g>
   <g id="matplotlib.axis_1">
    <g id="xtick_1">
     <g id="line2d_1">
      <path d="M 157.81334 529.308125 
L 157.81334 23.837812 
" clip-path="url(#pdaf0c1c78e)" style="fill: none; stroke: #b0b0b0; stroke-opacity: 0.3; stroke-width: 0.8; stroke-linecap: square"/>
     </g>
     <g id="line2d_2">
      <defs>
       <path id="md2d0bf1a24" d="M 0 0 
L 0 3.5 
" style="stroke: #000000; stroke-width: 0.8"/>
      </defs>
      <g>
       <use xlink:href="#md2d0bf1a24" x="157.81334" y="529.308125" style="stroke: #000000; stroke-width: 0.8"/>
      </g>
     </g>
     <g id="text_1">
      <text style="font: 10px 'DejaVu Sans', 'Bitstream Vera Sans', 'Computer Modern Sans Serif', 'Lucida Grande', 'Verdana', 'Geneva', 'Lucid', 'Arial', 'Helvetica', 'Avant Garde', sans-serif; text-anchor: middle" x="157.81334" y="543.906563" transform="rotate(-0 157.81334 543.906563)">72</text>
     </g>
    </g>
    <g id="xtick_2">
     <g id="line2d_3">
      <path d="M 286.64036 529.308125 
L 286.64036 23.837812 
" clip-path="url(#pdaf0c1c78e)" style="fill: none; stroke: #b0b0b0; stroke-opacity: 0.3; stroke-width: 0.8; stroke-linecap: square"/>
     </g>
     <g id="line2d_4">
      <g>
       <use xlink:href="#md2d0bf1a24" x="286.64036" y="529.308125" style="stroke: #000000; stroke-width: 0.8"/>
      </g>
     </g>
     <g id="text_2">
      <text style="font: 10px 'DejaVu Sans', 'Bitstream Vera Sans', 'Computer Modern Sans Serif', 'Lucida Grande', 'Verdana', 'Geneva', 'Lucid', 'Arial', 'Helvetica', 'Avant Garde', sans-serif; text-anchor: middle" x="286.64036" y="543.906563" transform="rotate(-0 286.64036 543.906563)">74</text>
     </g>
    </g>
    <g id="xtick_3">
     <g id="line2d_5">
      <path d="M 415.46738 529.308125 
L 415.46738 23.837812 
" clip-path="url(#pdaf0c1c78e)" style="fill: none; stroke: #b0b0b0; stroke-opacity: 0.3; stroke-width: 0.8; stroke-linecap: square"/>
     </g>
     <g id="line2d_6">
      <g>
       <use xlink:href="#md2d0bf1a24" x="415.46738" y="529.308125" style="stroke: #000000; stroke-width: 0.8"/>
      </g>
     </g>
     <g id="text_3">
      <text style="font: 10px 'DejaVu Sans', 'Bitstream Vera Sans', 'Computer Modern Sans Serif', 'Lucida Grande', 'Verdana', 'Geneva', 'Lucid', 'Arial', 'Helvetica', 'Avant Garde', sans-serif; text-anchor: middle" x="415.46738" y="543.906563" transform="rotate(-0 415.46738 543.906563)">76</text>
     </g>
    </g>
    <g id="xtick_4">
     <g id="line2d_7">
      <path d="M 544.2944 529.308125 
L 544.2944 23.837812 
" clip-path="url(#pdaf0c1c78e)" style="fill: none; stroke: #b0b0b0; stroke-opacity: 0.3; stroke-width: 0.8; stroke-linecap: square"/>
     </g>
     <g id="line2d_8">
      <g>
       <use xlink:href="#md2d0bf1a24" x="544.2944" y="529.308125" style="stroke: #000000; stroke-width: 0.8"/>
      </g>
     </g>
     <g id="text_4">
      <text style="font: 10px 'DejaVu Sans', 'Bitstream Vera Sans', 'Computer Modern Sans Serif', 'Lucida Grande', 'Verdana', 'Geneva', 'Lucid', 'Arial', 'Helvetica', 'Avant Garde', sans-serif; text-anchor: middle" x="544.2944" y="543.906563" transform="rotate(-0 544.2944 543.906563)">78</text>
     </g>
    </g>
    <g id="xtick_5">
     <g id="line2d_9">
      <path d="M 673.12142 529.308125 
L 673.12142 23.837812 
" clip-path="url(#pdaf0c1c78e)" style="fill: none; stroke: #b0b0b0; stroke-opacity: 0.3; stroke-width: 0.8; stroke-linecap: square"/>
     </g>
     <g id="line2d_10">
      <g>
       <use xlink:href="#md2d0bf1a24" x="673.12142" y="529.308125" style="stroke: #000000; stroke-width: 0.8"/>
      </g>
     </g>
     <g id="text_5">
      <text style="font: 10px 'DejaVu Sans', 'Bitstream Vera Sans', 'Computer Modern Sans Serif', 'Lucida Grande', 'Verdana', 'Geneva', 'Lucid', 'Arial', 'Helvetica', 'Avant Garde', sans-serif; text-anchor: middle" x="673.12142" y="543.906563" transform="rotate(-0 673.12142 543.906563)">80</text>
     </g>
    </g>
    <g id="text_6">
     <text style="font: 12px 'DejaVu Sans', 'Bitstream Vera Sans', 'Computer Modern Sans Serif', 'Lucida Grande', 'Verdana', 'Geneva', 'Lucid', 'Arial', 'Helvetica', 'Avant Garde', sans-serif; text-anchor: middle" x="383.260625" y="559.104375" transform="rotate(-0 383.260625 559.104375)">Build Number</text>
    </g>
   </g>
   <g id="matplotlib.axis_2">
    <g id="ytick_1">
     <g id="line2d_11">
      <defs>
       <path id="m9de7cf5908" d="M 0 0 
L -2 0 
" style="stroke: #000000; stroke-width: 0.6"/>
      </defs>
      <g>
       <use xlink:href="#m9de7cf5908" x="64.41375" y="385.441282" style="stroke: #000000; stroke-width: 0.6"/>
      </g>
     </g>
     <g id="text_7">
      <!-- $\mathdefault{3\times10^{5}}$ -->
      <g transform="translate(22.81375 389.240501)">
       <text>
        <tspan style="font: 10px 'DejaVu Sans'" x="0 8.310547 18.637695 25" y="-0.06406250000000036">3×10</tspan>
        <tspan style="font: 7px 'DejaVu Sans'" x="31.458008" y="-3.8921875000000004">5</tspan>
       </text>
      </g>
     </g>
    </g>
    <g id="ytick_2">
     <g id="line2d_12">
      <g>
       <use xlink:href="#m9de7cf5908" x="64.41375" y="239.060029" style="stroke: #000000; stroke-width: 0.6"/>
      </g>
     </g>
     <g id="text_8">
      <!-- $\mathdefault{4\times10^{5}}$ -->
      <g transform="translate(22.81375 242.859248)">
       <text>
        <tspan style="font: 10px 'DejaVu Sans'" x="0 8.310547 18.637695 25" y="-0.06406250000000036">4×10</tspan>
        <tspan style="font: 7px 'DejaVu Sans'" x="31.458008" y="-3.8921875000000004">5</tspan>
       </text>
      </g>
     </g>
    </g>
    <g id="ytick_3">
     <g id="line2d_13">
      <g>
       <use xlink:href="#m9de7cf5908" x="64.41375" y="125.517908" style="stroke: #000000; stroke-width: 0.6"/>
      </g>
     </g>
    </g>
    <g id="ytick_4">
     <g id="line2d_14">
      <g>
       <use xlink:href="#m9de7cf5908" x="64.41375" y="32.74724" style="stroke: #000000; stroke-width: 0.6"/>
      </g>
     </g>
     <g id="text_9">
      <!-- $\mathdefault{6\times10^{5}}$ -->
      <g transform="translate(22.81375 36.546459)">
       <text>
        <tspan style="font: 10px 'DejaVu Sans'" x="0 8.310547 18.637695 25" y="-0.06406250000000036">6×10</tspan>
        <tspan style="font: 7px 'DejaVu Sans'" x="31.458008" y="-3.8921875000000004">5</tspan>
       </text>
      </g>
     </g>
    </g>
    <g id="text_10">
     <text style="font: 12px 'DejaVu Sans', 'Bitstream Vera Sans', 'Computer Modern Sans Serif', 'Lucida Grande', 'Verdana', 'Geneva', 'Lucid', 'Arial', 'Helvetica', 'Avant Garde', sans-serif; text-anchor: middle" x="16.318125" y="276.572969" transform="rotate(-90 16.318125 276.572969)">Median Elapsed Time (nanoseconds)</text>
    </g>
   </g>
   <g id="line2d_15">
    <path d="M 93.39983 475.181244 
L 157.81334 182.056796 
L 222.22685 208.169786 
L 286.64036 366.280278 
L 351.05387 184.853254 
L 415.46738 471.75111 
L 479.88089 364.521028 
L 544.2944 94.932789 
L 608.70791 173.901034 
L 673.12142 475.959367 
" clip-path="url(#pdaf0c1c78e)" style="fill: none; stroke: #1f77b4; stroke-width: 2; stroke-linecap: square"/>
    <defs>
     <path id="m34c6676221" d="M 0 3 
C 0.795609 3 1.55874 2.683901 2.12132 2.12132 
C 2.683901 1.55874 3 0.795609 3 0 
C 3 -0.795609 2.683901 -1.55874 2.12132 -2.12132 
C 1.55874 -2.683901 0.795609 -3 0 -3 
C -0.795609 -3 -1.55874 -2.683901 -2.12132 -2.12132 
C -2.683901 -1.55874 -3 -0.795609 -3 0 
C -3 0.795609 -2.683901 1.55874 -2.12132 2.12132 
C -1.55874 2.683901 -0.795609 3 0 3 
z
" style="stroke: #1f77b4"/>
    </defs>
    <g clip-path="url(#pdaf0c1c78e)">
     <use xlink:href="#m34c6676221" x="93.39983" y="475.181244" style="fill: #1f77b4; stroke: #1f77b4"/>
     <use xlink:href="#m34c6676221" x="157.81334" y="182.056796" style="fill: #1f77b4; stroke: #1f77b4"/>
     <use xlink:href="#m34c6676221" x="222.22685" y="208.169786" style="fill: #1f77b4; stroke: #1f77b4"/>
     <use xlink:href="#m34c6676221" x="286.64036" y="366.280278" style="fill: #1f77b4; stroke: #1f77b4"/>
     <use xlink:href="#m34c6676221" x="351.05387" y="184.853254" style="fill: #1f77b4; stroke: #1f77b4"/>
     <use xlink:href="#m34c6676221" x="415.46738" y="471.75111" style="fill: #1f77b4; stroke: #1f77b4"/>
     <use xlink:href="#m34c6676221" x="479.88089" y="364.521028" style="fill: #1f77b4; stroke: #1f77b4"/>
     <use xlink:href="#m34c6676221" x="544.2944" y="94.932789" style="fill: #1f77b4; stroke: #1f77b4"/>
     <use xlink:href="#m34c6676221" x="608.70791" y="173.901034" style="fill: #1f77b4; stroke: #1f77b4"/>
     <use xlink:href="#m34c6676221" x="673.12142" y="475.959367" style="fill: #1f77b4; stroke: #1f77b4"/>
    </g>
   </g>
   <g id="line2d_16">
    <path d="M 93.39983 477.3812 
L 157.81334 183.173786 
L 222.22685 192.148863 
L 286.64036 433.264084 
L 351.05387 263.805232 
L 415.46738 481.354398 
L 479.88089 477.425906 
L 544.2944 421.797088 
L 608.70791 315.935486 
L 673.12142 287.292536 
" clip-path="url(#pdaf0c1c78e)" style="fill: none; stroke: #ff7f0e; stroke-width: 2; stroke-linecap: square"/>
    <defs>
     <path id="mb9d91d2135" d="M 0 3 
C 0.795609 3 1.55874 2.683901 2.12132 2.12132 
C 2.683901 1.55874 3 0.795609 3 0 
C 3 -0.795609 2.683901 -1.55874 2.12132 -2.12132 
C 1.55874 -2.683901 0.795609 -3 0 -3 
C -0.795609 -3 -1.55874 -2.683901 -2.12132 -2.12132 
C -2.683901 -1.55874 -3 -0.795609 -3 0 
C -3 0.795609 -2.683901 1.55874 -2.12132 2.12132 
C -1.55874 2.683901 -0.795609 3 0 3 
z
" style="stroke: #ff7f0e"/>
    </defs>
    <g clip-path="url(#pdaf0c1c78e)">
     <use xlink:href="#mb9d91d2135" x="93.39983" y="477.3812" style="fill: #ff7f0e; stroke: #ff7f0e"/>
     <use xlink:href="#mb9d91d2135" x="157.81334" y="183.173786" style="fill: #ff7f0e; stroke: #ff7f0e"/>
     <use xlink:href="#mb9d91d2135" x="222.22685" y="192.148863" style="fill: #ff7f0e; stroke: #ff7f0e"/>
     <use xlink:href="#mb9d91d2135" x="286.64036" y="433.264084" style="fill: #ff7f0e; stroke: #ff7f0e"/>
     <use xlink:href="#mb9d91d2135" x="351.05387" y="263.805232" style="fill: #ff7f0e; stroke: #ff7f0e"/>
     <use xlink:href="#mb9d91d2135" x="415.46738" y="481.354398" style="fill: #ff7f0e; stroke: #ff7f0e"/>
     <use xlink:href="#mb9d91d2135" x="479.88089" y="477.425906" style="fill: #ff7f0e; stroke: #ff7f0e"/>
     <use xlink:href="#mb9d91d2135" x="544.2944" y="421.797088" style="fill: #ff7f0e; stroke: #ff7f0e"/>
     <use xlink:href="#mb9d91d2135" x="608.70791" y="315.935486" style="fill: #ff7f0e; stroke: #ff7f0e"/>
     <use xlink:href="#mb9d91d2135" x="673.12142" y="287.292536" style="fill: #ff7f0e; stroke: #ff7f0e"/>
    </g>
   </g>
   <g id="line2d_17">
    <path d="M 93.39983 499.108506 
L 157.81334 340.130741 
L 222.22685 159.589275 
L 286.64036 496.508884 
L 351.05387 461.037165 
L 415.46738 493.664976 
L 479.88089 491.770166 
L 544.2944 496.848259 
L 608.70791 496.753262 
L 673.12142 486.875973 
" clip-path="url(#pdaf0c1c78e)" style="fill: none; stroke: #2ca02c; stroke-width: 2; stroke-linecap: square"/>
    <defs>
     <path id="m52aee95d7a" d="M 0 3 
C 0.795609 3 1.55874 2.683901 2.12132 2.12132 
C 2.683901 1.55874 3 0.795609 3 0 
C 3 -0.795609 2.683901 -1.55874 2.12132 -2.12132 
C 1.55874 -2.683901 0.795609 -3 0 -3 
C -0.795609 -3 -1.55874 -2.683901 -2.12132 -2.12132 
C -2.683901 -1.55874 -3 -0.795609 -3 0 
C -3 0.795609 -2.683901 1.55874 -2.12132 2.12132 
C -1.55874 2.683901 -0.795609 3 0 3 
z
" style="stroke: #2ca02c"/>
    </defs>
    <g clip-path="url(#pdaf0c1c78e)">
     <use xlink:href="#m52aee95d7a" x="93.39983" y="499.108506" style="fill: #2ca02c; stroke: #2ca02c"/>
     <use xlink:href="#m52aee95d7a" x="157.81334" y="340.130741" style="fill: #2ca02c; stroke: #2ca02c"/>
     <use xlink:href="#m52aee95d7a" x="222.22685" y="159.589275" style="fill: #2ca02c; stroke: #2ca02c"/>
     <use xlink:href="#m52aee95d7a" x="286.64036" y="496.508884" style="fill: #2ca02c; stroke: #2ca02c"/>
     <use xlink:href="#m52aee95d7a" x="351.05387" y="461.037165" style="fill: #2ca02c; stroke: #2ca02c"/>
     <use xlink:href="#m52aee95d7a" x="415.46738" y="493.664976" style="fill: #2ca02c; stroke: #2ca02c"/>
     <use xlink:href="#m52aee95d7a" x="479.88089" y="491.770166" style="fill: #2ca02c; stroke: #2ca02c"/>
     <use xlink:href="#m52aee95d7a" x="544.2944" y="496.848259" style="fill: #2ca02c; stroke: #2ca02c"/>
     <use xlink:href="#m52aee95d7a" x="608.70791" y="496.753262" style="fill: #2ca02c; stroke: #2ca02c"/>
     <use xlink:href="#m52aee95d7a" x="673.12142" y="486.875973" style="fill: #2ca02c; stroke: #2ca02c"/>
    </g>
   </g>
   <g id="line2d_18">
    <path d="M 93.39983 500.946818 
L 157.81334 497.962316 
L 222.22685 505.290051 
L 286.64036 504.504799 
L 351.05387 202.424436 
L 415.46738 205.259005 
L 479.88089 506.332202 
L 544.2944 364.482451 
L 608.70791 496.666513 
L 673.12142 500.895528 
" clip-path="url(#pdaf0c1c78e)" style="fill: none; stroke: #d62728; stroke-width: 2; stroke-linecap: square"/>
    <defs>
     <path id="m0b256879b5" d="M 0 3 
C 0.795609 3 1.55874 2.683901 2.12132 2.12132 
C 2.683901 1.55874 3 0.795609 3 0 
C 3 -0.795609 2.683901 -1.55874 2.12132 -2.12132 
C 1.55874 -2.683901 0.795609 -3 0 -3 
C -0.795609 -3 -1.55874 -2.683901 -2.12132 -2.12132 
C -2.683901 -1.55874 -3 -0.795609 -3 0 
C -3 0.795609 -2.683901 1.55874 -2.12132 2.12132 
C -1.55874 2.683901 -0.795609 3 0 3 
z
" style="stroke: #d62728"/>
    </defs>
    <g clip-path="url(#pdaf0c1c78e)">
     <use xlink:href="#m0b256879b5" x="93.39983" y="500.946818" style="fill: #d62728; stroke: #d62728"/>
     <use xlink:href="#m0b256879b5" x="157.81334" y="497.962316" style="fill: #d62728; stroke: #d62728"/>
     <use xlink:href="#m0b256879b5" x="222.22685" y="505.290051" style="fill: #d62728; stroke: #d62728"/>
     <use xlink:href="#m0b256879b5" x="286.64036" y="504.504799" style="fill: #d62728; stroke: #d62728"/>
     <use xlink:href="#m0b256879b5" x="351.05387" y="202.424436" style="fill: #d62728; stroke: #d62728"/>
     <use xlink:href="#m0b256879b5" x="415.46738" y="205.259005" style="fill: #d62728; stroke: #d62728"/>
     <use xlink:href="#m0b256879b5" x="479.88089" y="506.332202" style="fill: #d62728; stroke: #d62728"/>
     <use xlink:href="#m0b256879b5" x="544.2944" y="364.482451" style="fill: #d62728; stroke: #d62728"/>
     <use xlink:href="#m0b256879b5" x="608.70791" y="496.666513" style="fill: #d62728; stroke: #d62728"/>
     <use xlink:href="#m0b256879b5" x="673.12142" y="500.895528" style="fill: #d62728; stroke: #d62728"/>
    </g>
   </g>
   <g id="line2d_19">
    <path d="M 93.39983 491.114241 
L 157.81334 443.826482 
L 222.22685 495.099987 
L 286.64036 484.985398 
L 351.05387 300.46737 
L 415.46738 46.813736 
L 479.88089 500.199687 
L 544.2944 457.050191 
L 608.70791 301.15977 
L 673.12142 494.617136 
" clip-path="url(#pdaf0c1c78e)" style="fill: none; stroke: #9467bd; stroke-width: 2; stroke-linecap: square"/>
    <defs>
     <path id="m7d70f0ead9" d="M 0 3 
C 0.795609 3 1.55874 2.683901 2.12132 2.12132 
C 2.683901 1.55874 3 0.795609 3 0 
C 3 -0.795609 2.683901 -1.55874 2.12132 -2.12132 
C 1.55874 -2.683901 0.795609 -3 0 -3 
C -0.795609 -3 -1.55874 -2.683901 -2.12132 -2.12132 
C -2.683901 -1.55874 -3 -0.795609 -3 0 
C -3 0.795609 -2.683901 1.55874 -2.12132 2.12132 
C -1.55874 2.683901 -0.795609 3 0 3 
z
" style="stroke: #9467bd"/>
    </defs>
    <g clip-path="url(#pdaf0c1c78e)">
     <use xlink:href="#m7d70f0ead9" x="93.39983" y="491.114241" style="fill: #9467bd; stroke: #9467bd"/>
     <use xlink:href="#m7d70f0ead9" x="157.81334" y="443.826482" style="fill: #9467bd; stroke: #9467bd"/>
     <use xlink:href="#m7d70f0ead9" x="222.22685" y="495.099987" style="fill: #9467bd; stroke: #9467bd"/>
     <use xlink:href="#m7d70f0ead9" x="286.64036" y="484.985398" style="fill: #9467bd; stroke: #9467bd"/>
     <use xlink:href="#m7d70f0ead9" x="351.05387" y="300.46737" style="fill: #9467bd; stroke: #9467bd"/>
     <use xlink:href="#m7d70f0ead9" x="415.46738" y="46.813736" style="fill: #9467bd; stroke: #9467bd"/>
     <use xlink:href="#m7d70f0ead9" x="479.88089" y="500.199687" style="fill: #9467bd; stroke: #9467bd"/>
     <use xlink:href="#m7d70f0ead9" x="544.2944" y="457.050191" style="fill: #9467bd; stroke: #9467bd"/>
     <use xlink:href="#m7d70f0ead9" x="608.70791" y="301.15977" style="fill: #9467bd; stroke: #9467bd"/>
     <use xlink:href="#m7d70f0ead9" x="673.12142" y="494.617136" style="fill: #9467bd; stroke: #9467bd"/>
    </g>
   </g>
   <g id="line2d_20">
    <path d="M 93.39983 310.885213 
L 157.81334 301.753391 
L 222.22685 309.48608 
L 286.64036 312.889222 
L 351.05387 300.903152 
L 415.46738 304.44399 
L 479.88089 452.113729 
L 544.2944 445.336311 
L 608.70791 303.630838 
L 673.12142 309.324383 
" clip-path="url(#pdaf0c1c78e)" style="fill: none; stroke: #8c564b; stroke-width: 2; stroke-linecap: square"/>
    <defs>
     <path id="m700ad52358" d="M 0 3 
C 0.795609 3 1.55874 2.683901 2.12132 2.12132 
C 2.683901 1.55874 3 0.795609 3 0 
C 3 -0.795609 2.683901 -1.55874 2.12132 -2.12132 
C 1.55874 -2.683901 0.795609 -3 0 -3 
C -0.795609 -3 -1.55874 -2.683901 -2.12132 -2.12132 
C -2.683901 -1.55874 -3 -0.795609 -3 0 
C -3 0.795609 -2.683901 1.55874 -2.12132 2.12132 
C -1.55874 2.683901 -0.795609 3 0 3 
z
" style="stroke: #8c564b"/>
    </defs>
    <g clip-path="url(#pdaf0c1c78e)">
     <use xlink:href="#m700ad52358" x="93.39983" y="310.885213" style="fill: #8c564b; stroke: #8c564b"/>
     <use xlink:href="#m700ad52358" x="157.81334" y="301.753391" style="fill: #8c564b; stroke: #8c564b"/>
     <use xlink:href="#m700ad52358" x="222.22685" y="309.48608" style="fill: #8c564b; stroke: #8c564b"/>
     <use xlink:href="#m700ad52358" x="286.64036" y="312.889222" style="fill: #8c564b; stroke: #8c564b"/>
     <use xlink:href="#m700ad52358" x="351.05387" y="300.903152" style="fill: #8c564b; stroke: #8c564b"/>
     <use xlink:href="#m700ad52358" x="415.46738" y="304.44399" style="fill: #8c564b; stroke: #8c564b"/>
     <use xlink:href="#m700ad52358" x="479.88089" y="452.113729" style="fill: #8c564b; stroke: #8c564b"/>
     <use xlink:href="#m700ad52358" x="544.2944" y="445.336311" style="fill: #8c564b; stroke: #8c564b"/>
     <use xlink:href="#m700ad52358" x="608.70791" y="303.630838" style="fill: #8c564b; stroke: #8c564b"/>
     <use xlink:href="#m700ad52358" x="673.12142" y="309.324383" style="fill: #8c564b; stroke: #8c564b"/>
    </g>
   </g>
   <g id="patch_3">
    <path d="M 64.41375 529.308125 
L 64.41375 23.837813 
" style="fill: none; stroke: #000000; stroke-width: 0.8; stroke-linejoin: miter; stroke-linecap: square"/>
   </g>
   <g id="patch_4">
    <path d="M 702.1075 529.308125 
L 702.1075 23.837813 
" style="fill: none; stroke: #000000; stroke-width: 0.8; stroke-linejoin: miter; stroke-linecap: square"/>
   </g>
   <g id="patch_5">
    <path d="M 64.41375 529.308125 
L 702.1075 529.308125 
" style="fill: none; stroke: #000000; stroke-width: 0.8; stroke-linejoin: miter; stroke-linecap: square"/>
   </g>
   <g id="patch_6">
    <path d="M 64.41375 23.837812 
L 702.1075 23.837812 
" style="fill: none; stroke: #000000; stroke-width: 0.8; stroke-linejoin: miter; stroke-linecap: square"/>
   </g>
   <g id="text_11">
    <text style="font: 700 14px 'DejaVu Sans', 'Bitstream Vera Sans', 'Computer Modern Sans Serif', 'Lucida Grande', 'Verdana', 'Geneva', 'Lucid', 'Arial', 'Helvetica', 'Avant Garde', sans-serif; text-anchor: middle" x="383.260625" y="17.837813" transform="rotate(-0 383.260625 17.837813)">Mixedworkload - Performance Trend</text>
   </g>
   <g id="legend_1">
    <g id="patch_7">
     <path d="M 740.992188 119.906563 
L 846.004688 119.906563 
Q 848.004688 119.906563 848.004688 117.906563 
L 848.004688 30.837813 
Q 848.004688 28.837813 846.004688 28.837813 
L 740.992188 28.837813 
Q 738.992188 28.837813 738.992188 30.837813 
L 738.992188 117.906563 
Q 738.992188 119.906563 740.992188 119.906563 
z
" style="fill: #ffffff; opacity: 0.8; stroke: #cccccc; stroke-linejoin: miter"/>
    </g>
    <g id="line2d_21">
     <path d="M 742.992188 36.93625 
L 752.992188 36.93625 
L 762.992188 36.93625 
" style="fill: none; stroke: #1f77b4; stroke-width: 2; stroke-linecap: square"/>
     <g>
      <use xlink:href="#m34c6676221" x="752.992188" y="36.93625" style="fill: #1f77b4; stroke: #1f77b4"/>
     </g>
    </g>
    <g id="text_12">
     <text style="font: 10px 'DejaVu Sans', 'Bitstream Vera Sans', 'Computer Modern Sans Serif', 'Lucida Grande', 'Verdana', 'Geneva', 'Lucid', 'Arial', 'Helvetica', 'Avant Garde', sans-serif; text-anchor: start" x="770.992188" y="40.43625" transform="rotate(-0 770.992188 40.43625)">gcc-14.2 - V1</text>
    </g>
    <g id="line2d_22">
     <path d="M 742.992188 51.614375 
L 752.992188 51.614375 
L 762.992188 51.614375 
" style="fill: none; stroke: #ff7f0e; stroke-width: 2; stroke-linecap: square"/>
     <g>
      <use xlink:href="#mb9d91d2135" x="752.992188" y="51.614375" style="fill: #ff7f0e; stroke: #ff7f0e"/>
     </g>
    </g>
    <g id="text_13">
     <text style="font: 10px 'DejaVu Sans', 'Bitstream Vera Sans', 'Computer Modern Sans Serif', 'Lucida Grande', 'Verdana', 'Geneva', 'Lucid', 'Arial', 'Helvetica', 'Avant Garde', sans-serif; text-anchor: start" x="770.992188" y="55.114375" transform="rotate(-0 770.992188 55.114375)">gcc-14.2 - V2</text>
    </g>
    <g id="line2d_23">
     <path d="M 742.992188 66.2925 
L 752.992188 66.2925 
L 762.992188 66.2925 
" style="fill: none; stroke: #2ca02c; stroke-width: 2; stroke-linecap: square"/>
     <g>
      <use xlink:href="#m52aee95d7a" x="752.992188" y="66.2925" style="fill: #2ca02c; stroke: #2ca02c"/>
     </g>
    </g>
    <g id="text_14">
     <text style="font: 10px 'DejaVu Sans', 'Bitstream Vera Sans', 'Computer Modern Sans Serif', 'Lucida Grande', 'Verdana', 'Geneva', 'Lucid', 'Arial', 'Helvetica', 'Avant Garde', sans-serif; text-anchor: start" x="770.992188" y="69.7925" transform="rotate(-0 770.992188 69.7925)">gcc-14.2 - TBB</text>
    </g>
    <g id="line2d_24">
     <path d="M 742.992188 80.970625 
L 752.992188 80.970625 
L 762.992188 80.970625 
" style="fill: none; stroke: #d62728; stroke-width: 2; stroke-linecap: square"/>
     <g>
      <use xlink:href="#m0b256879b5" x="752.992188" y="80.970625" style="fill: #d62728; stroke: #d62728"/>
     </g>
    </g>
    <g id="text_15">
     <text style="font: 10px 'DejaVu Sans', 'Bitstream Vera Sans', 'Computer Modern Sans Serif', 'Lucida Grande', 'Verdana', 'Geneva', 'Lucid', 'Arial', 'Helvetica', 'Avant Garde', sans-serif; text-anchor: start" x="770.992188" y="84.470625" transform="rotate(-0 770.992188 84.470625)">gcc-4.2 - V1</text>
    </g>
    <g id="line2d_25">
     <path d="M 742.992188 95.64875 
L 752.992188 95.64875 
L 762.992188 95.64875 
" style="fill: none; stroke: #9467bd; stroke-width: 2; stroke-linecap: square"/>
     <g>
      <use xlink:href="#m7d70f0ead9" x="752.992188" y="95.64875" style="fill: #9467bd; stroke: #9467bd"/>
     </g>
    </g>
    <g id="text_16">
     <text style="font: 10px 'DejaVu Sans', 'Bitstream Vera Sans', 'Computer Modern Sans Serif', 'Lucida Grande', 'Verdana', 'Geneva', 'Lucid', 'Arial', 'Helvetica', 'Avant Garde', sans-serif; text-anchor: start" x="770.992188" y="99.14875" transform="rotate(-0 770.992188 99.14875)">gcc-4.2 - V2</text>
    </g>
    <g id="line2d_26">
     <path d="M 742.992188 110.326875 
L 752.992188 110.326875 
L 762.992188 110.326875 
" style="fill: none; stroke: #8c564b; stroke-width: 2; stroke-linecap: square"/>
     <g>
      <use xlink:href="#m700ad52358" x="752.992188" y="110.326875" style="fill: #8c564b; stroke: #8c564b"/>
     </g>
    </g>
    <g id="text_17">
     <text style="font: 10px 'DejaVu Sans', 'Bitstream Vera Sans', 'Computer Modern Sans Serif', 'Lucida Grande', 'Verdana', 'Geneva', 'Lucid', 'Arial', 'Helvetica', 'Avant Garde', sans-serif; text-anchor: start" x="770.992188" y="113.826875" transform="rotate(-0 770.992188 113.826875)">gcc-4.2 - TBB</text>
    </g>
   </g>
  </g>
 </g>
 <defs>
  <clipPath id="pdaf0c1c78e">
   <rect x="64.41375" y="23.837813" width="637.69375" height="505.470313"/>
  </clipPath>
 </defs>
</svg>
