<?xml version="1.0" encoding="utf-8" standalone="no"?>
<!DOCTYPE svg PUBLIC "-//W3C//DTD SVG 1.1//EN"
  "http://www.w3.org/Graphics/SVG/1.1/DTD/svg11.dtd">
<svg xmlns:xlink="http://www.w3.org/1999/xlink" width="855.204687pt" height="568.8pt" viewBox="0 0 855.204687 568.8" xmlns="http://www.w3.org/2000/svg" version="1.1">
 <metadata>
  <rdf:RDF xmlns:dc="http://purl.org/dc/elements/1.1/" xmlns:cc="http://creativecommons.org/ns#" xmlns:rdf="http://www.w3.org/1999/02/22-rdf-syntax-ns#">
   <cc:Work>
    <dc:type rdf:resource="http://purl.org/dc/dcmitype/StillImage"/>
    <dc:date>2025-08-17T02:13:38.038180</dc:date>
    <dc:format>image/svg+xml</dc:format>
    <dc:creator>
     <cc:Agent>
      <dc:title>Matplotlib v3.9.4, https://matplotlib.org/</dc:title>
     </cc:Agent>
    </dc:creator>
   </cc:Work>
  </rdf:RDF>
 </metadata>
 <defs>
  <style type="text/css">*{stroke-linejoin: round; stroke-linecap: butt}</style>
 </defs>
 <g id="figure_1">
  <g id="patch_1">
   <path d="M 0 568.8 
L 855.204687 568.8 
L 855.204687 0 
L 0 0 
z
" style="fill: #ffffff"/>
  </g>
  <g id="axes_1">
   <g id="patch_2">
    <path d="M 64.41375 529.308125 
L 702.1075 529.308125 
L 702.1075 23.837812 
L 64.41375 23.837812 
z
" style="fill: #ffffff"/>
   </g>
   <g id="matplotlib.axis_1">
    <g id="xtick_1">
     <g id="line2d_1">
      <path d="M 67.048848 529.308125 
L 67.048848 23.837812 
" clip-path="url(#p3bd4a6282c)" style="fill: none; stroke: #b0b0b0; stroke-opacity: 0.3; stroke-width: 0.8; stroke-linecap: square"/>
     </g>
     <g id="line2d_2">
      <defs>
       <path id="m6463ebcd9d" d="M 0 0 
L 0 3.5 
" style="stroke: #000000; stroke-width: 0.8"/>
      </defs>
      <g>
       <use xlink:href="#m6463ebcd9d" x="67.048848" y="529.308125" style="stroke: #000000; stroke-width: 0.8"/>
      </g>
     </g>
     <g id="text_1">
      <text style="font: 10px 'DejaVu Sans', 'Bitstream Vera Sans', 'Computer Modern Sans Serif', 'Lucida Grande', 'Verdana', 'Geneva', 'Lucid', 'Arial', 'Helvetica', 'Avant Garde', sans-serif; text-anchor: middle" x="67.048848" y="543.906563" transform="rotate(-0 67.048848 543.906563)">70</text>
     </g>
    </g>
    <g id="xtick_2">
     <g id="line2d_3">
      <path d="M 198.803755 529.308125 
L 198.803755 23.837812 
" clip-path="url(#p3bd4a6282c)" style="fill: none; stroke: #b0b0b0; stroke-opacity: 0.3; stroke-width: 0.8; stroke-linecap: square"/>
     </g>
     <g id="line2d_4">
      <g>
       <use xlink:href="#m6463ebcd9d" x="198.803755" y="529.308125" style="stroke: #000000; stroke-width: 0.8"/>
      </g>
     </g>
     <g id="text_2">
      <text style="font: 10px 'DejaVu Sans', 'Bitstream Vera Sans', 'Computer Modern Sans Serif', 'Lucida Grande', 'Verdana', 'Geneva', 'Lucid', 'Arial', 'Helvetica', 'Avant Garde', sans-serif; text-anchor: middle" x="198.803755" y="543.906563" transform="rotate(-0 198.803755 543.906563)">75</text>
     </g>
    </g>
    <g id="xtick_3">
     <g id="line2d_5">
      <path d="M 330.558662 529.308125 
L 330.558662 23.837812 
" clip-path="url(#p3bd4a6282c)" style="fill: none; stroke: #b0b0b0; stroke-opacity: 0.3; stroke-width: 0.8; stroke-linecap: square"/>
     </g>
     <g id="line2d_6">
      <g>
       <use xlink:href="#m6463ebcd9d" x="330.558662" y="529.308125" style="stroke: #000000; stroke-width: 0.8"/>
      </g>
     </g>
     <g id="text_3">
      <text style="font: 10px 'DejaVu Sans', 'Bitstream Vera Sans', 'Computer Modern Sans Serif', 'Lucida Grande', 'Verdana', 'Geneva', 'Lucid', 'Arial', 'Helvetica', 'Avant Garde', sans-serif; text-anchor: middle" x="330.558662" y="543.906563" transform="rotate(-0 330.558662 543.906563)">80</text>
     </g>
    </g>
    <g id="xtick_4">
     <g id="line2d_7">
      <path d="M 462.313569 529.308125 
L 462.313569 23.837812 
" clip-path="url(#p3bd4a6282c)" style="fill: none; stroke: #b0b0b0; stroke-opacity: 0.3; stroke-width: 0.8; stroke-linecap: square"/>
     </g>
     <g id="line2d_8">
      <g>
       <use xlink:href="#m6463ebcd9d" x="462.313569" y="529.308125" style="stroke: #000000; stroke-width: 0.8"/>
      </g>
     </g>
     <g id="text_4">
      <text style="font: 10px 'DejaVu Sans', 'Bitstream Vera Sans', 'Computer Modern Sans Serif', 'Lucida Grande', 'Verdana', 'Geneva', 'Lucid', 'Arial', 'Helvetica', 'Avant Garde', sans-serif; text-anchor: middle" x="462.313569" y="543.906563" transform="rotate(-0 462.313569 543.906563)">85</text>
     </g>
    </g>
    <g id="xtick_5">
     <g id="line2d_9">
      <path d="M 594.068476 529.308125 
L 594.068476 23.837812 
" clip-path="url(#p3bd4a6282c)" style="fill: none; stroke: #b0b0b0; stroke-opacity: 0.3; stroke-width: 0.8; stroke-linecap: square"/>
     </g>
     <g id="line2d_10">
      <g>
       <use xlink:href="#m6463ebcd9d" x="594.068476" y="529.308125" style="stroke: #000000; stroke-width: 0.8"/>
      </g>
     </g>
     <g id="text_5">
      <text style="font: 10px 'DejaVu Sans', 'Bitstream Vera Sans', 'Computer Modern Sans Serif', 'Lucida Grande', 'Verdana', 'Geneva', 'Lucid', 'Arial', 'Helvetica', 'Avant Garde', sans-serif; text-anchor: middle" x="594.068476" y="543.906563" transform="rotate(-0 594.068476 543.906563)">90</text>
     </g>
    </g>
    <g id="text_6">
     <text style="font: 12px 'DejaVu Sans', 'Bitstream Vera Sans', 'Computer Modern Sans Serif', 'Lucida Grande', 'Verdana', 'Geneva', 'Lucid', 'Arial', 'Helvetica', 'Avant Garde', sans-serif; text-anchor: middle" x="383.260625" y="559.104375" transform="rotate(-0 383.260625 559.104375)">Build Number</text>
    </g>
   </g>
   <g id="matplotlib.axis_2">
    <g id="ytick_1">
     <g id="line2d_11">
      <path d="M 64.41375 469.070014 
L 702.1075 469.070014 
" clip-path="url(#p3bd4a6282c)" style="fill: none; stroke: #b0b0b0; stroke-opacity: 0.3; stroke-width: 0.8; stroke-linecap: square"/>
     </g>
     <g id="line2d_12">
      <defs>
       <path id="m11e1f1e234" d="M 0 0 
L -3.5 0 
" style="stroke: #000000; stroke-width: 0.8"/>
      </defs>
      <g>
       <use xlink:href="#m11e1f1e234" x="64.41375" y="469.070014" style="stroke: #000000; stroke-width: 0.8"/>
      </g>
     </g>
     <g id="text_7">
      <!-- $\mathdefault{10^{5}}$ -->
      <g transform="translate(39.81375 472.869233)">
       <text>
        <tspan style="font: 10px 'DejaVu Sans'" x="0 6.362305" y="-0.06406250000000036">10</tspan>
        <tspan style="font: 7px 'DejaVu Sans'" x="12.820312" y="-3.8921875000000004">5</tspan>
       </text>
      </g>
     </g>
    </g>
    <g id="ytick_2">
     <g id="line2d_13">
      <defs>
       <path id="mbd89b50045" d="M 0 0 
L -2 0 
" style="stroke: #000000; stroke-width: 0.6"/>
      </defs>
      <g>
       <use xlink:href="#mbd89b50045" x="64.41375" y="498.909389" style="stroke: #000000; stroke-width: 0.6"/>
      </g>
     </g>
    </g>
    <g id="ytick_3">
     <g id="line2d_14">
      <g>
       <use xlink:href="#mbd89b50045" x="64.41375" y="272.762329" style="stroke: #000000; stroke-width: 0.6"/>
      </g>
     </g>
     <g id="text_8">
      <!-- $\mathdefault{2\times10^{5}}$ -->
      <g transform="translate(22.81375 276.561548)">
       <text>
        <tspan style="font: 10px 'DejaVu Sans'" x="0 8.310547 18.637695 25" y="-0.06406250000000036">2×10</tspan>
        <tspan style="font: 7px 'DejaVu Sans'" x="31.458008" y="-3.8921875000000004">5</tspan>
       </text>
      </g>
     </g>
    </g>
    <g id="ytick_4">
     <g id="line2d_15">
      <g>
       <use xlink:href="#mbd89b50045" x="64.41375" y="157.929695" style="stroke: #000000; stroke-width: 0.6"/>
      </g>
     </g>
     <g id="text_9">
      <!-- $\mathdefault{3\times10^{5}}$ -->
      <g transform="translate(22.81375 161.728914)">
       <text>
        <tspan style="font: 10px 'DejaVu Sans'" x="0 8.310547 18.637695 25" y="-0.06406250000000036">3×10</tspan>
        <tspan style="font: 7px 'DejaVu Sans'" x="31.458008" y="-3.8921875000000004">5</tspan>
       </text>
      </g>
     </g>
    </g>
    <g id="ytick_5">
     <g id="line2d_16">
      <g>
       <use xlink:href="#mbd89b50045" x="64.41375" y="76.454644" style="stroke: #000000; stroke-width: 0.6"/>
      </g>
     </g>
     <g id="text_10">
      <!-- $\mathdefault{4\times10^{5}}$ -->
      <g transform="translate(22.81375 80.253863)">
       <text>
        <tspan style="font: 10px 'DejaVu Sans'" x="0 8.310547 18.637695 25" y="-0.06406250000000036">4×10</tspan>
        <tspan style="font: 7px 'DejaVu Sans'" x="31.458008" y="-3.8921875000000004">5</tspan>
       </text>
      </g>
     </g>
    </g>
    <g id="text_11">
     <text style="font: 12px 'DejaVu Sans', 'Bitstream Vera Sans', 'Computer Modern Sans Serif', 'Lucida Grande', 'Verdana', 'Geneva', 'Lucid', 'Arial', 'Helvetica', 'Avant Garde', sans-serif; text-anchor: middle" x="16.318125" y="276.572969" transform="rotate(-90 16.318125 276.572969)">Median Elapsed Time (nanoseconds)</text>
    </g>
   </g>
   <g id="line2d_17">
    <path d="M 93.39983 240.791469 
L 119.750811 246.380183 
L 146.101792 244.51619 
L 172.452774 246.948917 
L 198.803755 191.866757 
L 225.154737 92.213717 
L 251.505718 246.914533 
L 277.856699 245.959147 
L 304.207681 46.813736 
L 330.558662 246.737122 
L 356.909644 246.771872 
L 383.260625 247.172125 
L 409.611606 47.775065 
L 435.962588 245.79083 
L 462.313569 246.579962 
L 488.664551 246.859088 
L 541.366513 247.044205 
L 567.717495 47.870225 
L 594.068476 246.1906 
L 620.419458 104.279383 
L 646.770439 245.737536 
L 673.12142 241.958335 
" clip-path="url(#p3bd4a6282c)" style="fill: none; stroke: #1f77b4; stroke-width: 2; stroke-linecap: square"/>
    <defs>
     <path id="m545bd41e44" d="M 0 3 
C 0.795609 3 1.55874 2.683901 2.12132 2.12132 
C 2.683901 1.55874 3 0.795609 3 0 
C 3 -0.795609 2.683901 -1.55874 2.12132 -2.12132 
C 1.55874 -2.683901 0.795609 -3 0 -3 
C -0.795609 -3 -1.55874 -2.683901 -2.12132 -2.12132 
C -2.683901 -1.55874 -3 -0.795609 -3 0 
C -3 0.795609 -2.683901 1.55874 -2.12132 2.12132 
C -1.55874 2.683901 -0.795609 3 0 3 
z
" style="stroke: #1f77b4"/>
    </defs>
    <g clip-path="url(#p3bd4a6282c)">
     <use xlink:href="#m545bd41e44" x="93.39983" y="240.791469" style="fill: #1f77b4; stroke: #1f77b4"/>
     <use xlink:href="#m545bd41e44" x="119.750811" y="246.380183" style="fill: #1f77b4; stroke: #1f77b4"/>
     <use xlink:href="#m545bd41e44" x="146.101792" y="244.51619" style="fill: #1f77b4; stroke: #1f77b4"/>
     <use xlink:href="#m545bd41e44" x="172.452774" y="246.948917" style="fill: #1f77b4; stroke: #1f77b4"/>
     <use xlink:href="#m545bd41e44" x="198.803755" y="191.866757" style="fill: #1f77b4; stroke: #1f77b4"/>
     <use xlink:href="#m545bd41e44" x="225.154737" y="92.213717" style="fill: #1f77b4; stroke: #1f77b4"/>
     <use xlink:href="#m545bd41e44" x="251.505718" y="246.914533" style="fill: #1f77b4; stroke: #1f77b4"/>
     <use xlink:href="#m545bd41e44" x="277.856699" y="245.959147" style="fill: #1f77b4; stroke: #1f77b4"/>
     <use xlink:href="#m545bd41e44" x="304.207681" y="46.813736" style="fill: #1f77b4; stroke: #1f77b4"/>
     <use xlink:href="#m545bd41e44" x="330.558662" y="246.737122" style="fill: #1f77b4; stroke: #1f77b4"/>
     <use xlink:href="#m545bd41e44" x="356.909644" y="246.771872" style="fill: #1f77b4; stroke: #1f77b4"/>
     <use xlink:href="#m545bd41e44" x="383.260625" y="247.172125" style="fill: #1f77b4; stroke: #1f77b4"/>
     <use xlink:href="#m545bd41e44" x="409.611606" y="47.775065" style="fill: #1f77b4; stroke: #1f77b4"/>
     <use xlink:href="#m545bd41e44" x="435.962588" y="245.79083" style="fill: #1f77b4; stroke: #1f77b4"/>
     <use xlink:href="#m545bd41e44" x="462.313569" y="246.579962" style="fill: #1f77b4; stroke: #1f77b4"/>
     <use xlink:href="#m545bd41e44" x="488.664551" y="246.859088" style="fill: #1f77b4; stroke: #1f77b4"/>
     <use xlink:href="#m545bd41e44" x="541.366513" y="247.044205" style="fill: #1f77b4; stroke: #1f77b4"/>
     <use xlink:href="#m545bd41e44" x="567.717495" y="47.870225" style="fill: #1f77b4; stroke: #1f77b4"/>
     <use xlink:href="#m545bd41e44" x="594.068476" y="246.1906" style="fill: #1f77b4; stroke: #1f77b4"/>
     <use xlink:href="#m545bd41e44" x="620.419458" y="104.279383" style="fill: #1f77b4; stroke: #1f77b4"/>
     <use xlink:href="#m545bd41e44" x="646.770439" y="245.737536" style="fill: #1f77b4; stroke: #1f77b4"/>
     <use xlink:href="#m545bd41e44" x="673.12142" y="241.958335" style="fill: #1f77b4; stroke: #1f77b4"/>
    </g>
   </g>
   <g id="line2d_18">
    <path d="M 93.39983 240.606601 
L 119.750811 238.938145 
L 146.101792 236.647515 
L 172.452774 234.597314 
L 198.803755 201.944944 
L 225.154737 236.092359 
L 251.505718 236.719698 
L 277.856699 238.343495 
L 304.207681 128.972368 
L 330.558662 231.261218 
L 356.909644 234.571575 
L 383.260625 234.061474 
L 409.611606 185.015102 
L 435.962588 231.328126 
L 462.313569 235.895861 
L 488.664551 235.578148 
L 541.366513 235.130326 
L 567.717495 186.367497 
L 594.068476 237.186402 
L 620.419458 185.816409 
L 646.770439 238.275661 
L 673.12142 230.118148 
" clip-path="url(#p3bd4a6282c)" style="fill: none; stroke: #ff7f0e; stroke-width: 2; stroke-linecap: square"/>
    <defs>
     <path id="mee39f3238c" d="M 0 3 
C 0.795609 3 1.55874 2.683901 2.12132 2.12132 
C 2.683901 1.55874 3 0.795609 3 0 
C 3 -0.795609 2.683901 -1.55874 2.12132 -2.12132 
C 1.55874 -2.683901 0.795609 -3 0 -3 
C -0.795609 -3 -1.55874 -2.683901 -2.12132 -2.12132 
C -2.683901 -1.55874 -3 -0.795609 -3 0 
C -3 0.795609 -2.683901 1.55874 -2.12132 2.12132 
C -1.55874 2.683901 -0.795609 3 0 3 
z
" style="stroke: #ff7f0e"/>
    </defs>
    <g clip-path="url(#p3bd4a6282c)">
     <use xlink:href="#mee39f3238c" x="93.39983" y="240.606601" style="fill: #ff7f0e; stroke: #ff7f0e"/>
     <use xlink:href="#mee39f3238c" x="119.750811" y="238.938145" style="fill: #ff7f0e; stroke: #ff7f0e"/>
     <use xlink:href="#mee39f3238c" x="146.101792" y="236.647515" style="fill: #ff7f0e; stroke: #ff7f0e"/>
     <use xlink:href="#mee39f3238c" x="172.452774" y="234.597314" style="fill: #ff7f0e; stroke: #ff7f0e"/>
     <use xlink:href="#mee39f3238c" x="198.803755" y="201.944944" style="fill: #ff7f0e; stroke: #ff7f0e"/>
     <use xlink:href="#mee39f3238c" x="225.154737" y="236.092359" style="fill: #ff7f0e; stroke: #ff7f0e"/>
     <use xlink:href="#mee39f3238c" x="251.505718" y="236.719698" style="fill: #ff7f0e; stroke: #ff7f0e"/>
     <use xlink:href="#mee39f3238c" x="277.856699" y="238.343495" style="fill: #ff7f0e; stroke: #ff7f0e"/>
     <use xlink:href="#mee39f3238c" x="304.207681" y="128.972368" style="fill: #ff7f0e; stroke: #ff7f0e"/>
     <use xlink:href="#mee39f3238c" x="330.558662" y="231.261218" style="fill: #ff7f0e; stroke: #ff7f0e"/>
     <use xlink:href="#mee39f3238c" x="356.909644" y="234.571575" style="fill: #ff7f0e; stroke: #ff7f0e"/>
     <use xlink:href="#mee39f3238c" x="383.260625" y="234.061474" style="fill: #ff7f0e; stroke: #ff7f0e"/>
     <use xlink:href="#mee39f3238c" x="409.611606" y="185.015102" style="fill: #ff7f0e; stroke: #ff7f0e"/>
     <use xlink:href="#mee39f3238c" x="435.962588" y="231.328126" style="fill: #ff7f0e; stroke: #ff7f0e"/>
     <use xlink:href="#mee39f3238c" x="462.313569" y="235.895861" style="fill: #ff7f0e; stroke: #ff7f0e"/>
     <use xlink:href="#mee39f3238c" x="488.664551" y="235.578148" style="fill: #ff7f0e; stroke: #ff7f0e"/>
     <use xlink:href="#mee39f3238c" x="541.366513" y="235.130326" style="fill: #ff7f0e; stroke: #ff7f0e"/>
     <use xlink:href="#mee39f3238c" x="567.717495" y="186.367497" style="fill: #ff7f0e; stroke: #ff7f0e"/>
     <use xlink:href="#mee39f3238c" x="594.068476" y="237.186402" style="fill: #ff7f0e; stroke: #ff7f0e"/>
     <use xlink:href="#mee39f3238c" x="620.419458" y="185.816409" style="fill: #ff7f0e; stroke: #ff7f0e"/>
     <use xlink:href="#mee39f3238c" x="646.770439" y="238.275661" style="fill: #ff7f0e; stroke: #ff7f0e"/>
     <use xlink:href="#mee39f3238c" x="673.12142" y="230.118148" style="fill: #ff7f0e; stroke: #ff7f0e"/>
    </g>
   </g>
   <g id="line2d_19">
    <path d="M 93.39983 240.357183 
L 119.750811 220.297468 
L 146.101792 197.431933 
L 172.452774 240.821069 
L 198.803755 180.732232 
L 225.154737 241.392807 
L 251.505718 240.81019 
L 277.856699 241.123573 
L 304.207681 193.49982 
L 330.558662 240.398611 
L 356.909644 241.158654 
L 383.260625 240.939501 
L 409.611606 200.610539 
L 435.962588 238.092804 
L 462.313569 240.151395 
L 488.664551 241.583517 
L 541.366513 241.442374 
L 567.717495 206.808564 
L 594.068476 241.237951 
L 620.419458 176.362702 
L 646.770439 241.16942 
L 673.12142 200.643797 
" clip-path="url(#p3bd4a6282c)" style="fill: none; stroke: #2ca02c; stroke-width: 2; stroke-linecap: square"/>
    <defs>
     <path id="m11d26cf700" d="M 0 3 
C 0.795609 3 1.55874 2.683901 2.12132 2.12132 
C 2.683901 1.55874 3 0.795609 3 0 
C 3 -0.795609 2.683901 -1.55874 2.12132 -2.12132 
C 1.55874 -2.683901 0.795609 -3 0 -3 
C -0.795609 -3 -1.55874 -2.683901 -2.12132 -2.12132 
C -2.683901 -1.55874 -3 -0.795609 -3 0 
C -3 0.795609 -2.683901 1.55874 -2.12132 2.12132 
C -1.55874 2.683901 -0.795609 3 0 3 
z
" style="stroke: #2ca02c"/>
    </defs>
    <g clip-path="url(#p3bd4a6282c)">
     <use xlink:href="#m11d26cf700" x="93.39983" y="240.357183" style="fill: #2ca02c; stroke: #2ca02c"/>
     <use xlink:href="#m11d26cf700" x="119.750811" y="220.297468" style="fill: #2ca02c; stroke: #2ca02c"/>
     <use xlink:href="#m11d26cf700" x="146.101792" y="197.431933" style="fill: #2ca02c; stroke: #2ca02c"/>
     <use xlink:href="#m11d26cf700" x="172.452774" y="240.821069" style="fill: #2ca02c; stroke: #2ca02c"/>
     <use xlink:href="#m11d26cf700" x="198.803755" y="180.732232" style="fill: #2ca02c; stroke: #2ca02c"/>
     <use xlink:href="#m11d26cf700" x="225.154737" y="241.392807" style="fill: #2ca02c; stroke: #2ca02c"/>
     <use xlink:href="#m11d26cf700" x="251.505718" y="240.81019" style="fill: #2ca02c; stroke: #2ca02c"/>
     <use xlink:href="#m11d26cf700" x="277.856699" y="241.123573" style="fill: #2ca02c; stroke: #2ca02c"/>
     <use xlink:href="#m11d26cf700" x="304.207681" y="193.49982" style="fill: #2ca02c; stroke: #2ca02c"/>
     <use xlink:href="#m11d26cf700" x="330.558662" y="240.398611" style="fill: #2ca02c; stroke: #2ca02c"/>
     <use xlink:href="#m11d26cf700" x="356.909644" y="241.158654" style="fill: #2ca02c; stroke: #2ca02c"/>
     <use xlink:href="#m11d26cf700" x="383.260625" y="240.939501" style="fill: #2ca02c; stroke: #2ca02c"/>
     <use xlink:href="#m11d26cf700" x="409.611606" y="200.610539" style="fill: #2ca02c; stroke: #2ca02c"/>
     <use xlink:href="#m11d26cf700" x="435.962588" y="238.092804" style="fill: #2ca02c; stroke: #2ca02c"/>
     <use xlink:href="#m11d26cf700" x="462.313569" y="240.151395" style="fill: #2ca02c; stroke: #2ca02c"/>
     <use xlink:href="#m11d26cf700" x="488.664551" y="241.583517" style="fill: #2ca02c; stroke: #2ca02c"/>
     <use xlink:href="#m11d26cf700" x="541.366513" y="241.442374" style="fill: #2ca02c; stroke: #2ca02c"/>
     <use xlink:href="#m11d26cf700" x="567.717495" y="206.808564" style="fill: #2ca02c; stroke: #2ca02c"/>
     <use xlink:href="#m11d26cf700" x="594.068476" y="241.237951" style="fill: #2ca02c; stroke: #2ca02c"/>
     <use xlink:href="#m11d26cf700" x="620.419458" y="176.362702" style="fill: #2ca02c; stroke: #2ca02c"/>
     <use xlink:href="#m11d26cf700" x="646.770439" y="241.16942" style="fill: #2ca02c; stroke: #2ca02c"/>
     <use xlink:href="#m11d26cf700" x="673.12142" y="200.643797" style="fill: #2ca02c; stroke: #2ca02c"/>
    </g>
   </g>
   <g id="line2d_20">
    <path d="M 93.39983 504.018399 
L 119.750811 505.641745 
L 146.101792 504.562012 
L 172.452774 505.963211 
L 198.803755 307.270335 
L 225.154737 495.447441 
L 251.505718 504.74891 
L 277.856699 418.481088 
L 304.207681 505.736503 
L 330.558662 505.86225 
L 356.909644 504.980187 
L 383.260625 506.100948 
L 409.611606 503.336431 
L 462.313569 505.032382 
L 488.664551 504.288632 
L 541.366513 505.208972 
L 567.717495 506.332202 
L 594.068476 503.912043 
L 620.419458 505.497092 
L 646.770439 505.610489 
" clip-path="url(#p3bd4a6282c)" style="fill: none; stroke: #d62728; stroke-width: 2; stroke-linecap: square"/>
    <defs>
     <path id="md3fcbe473b" d="M 0 3 
C 0.795609 3 1.55874 2.683901 2.12132 2.12132 
C 2.683901 1.55874 3 0.795609 3 0 
C 3 -0.795609 2.683901 -1.55874 2.12132 -2.12132 
C 1.55874 -2.683901 0.795609 -3 0 -3 
C -0.795609 -3 -1.55874 -2.683901 -2.12132 -2.12132 
C -2.683901 -1.55874 -3 -0.795609 -3 0 
C -3 0.795609 -2.683901 1.55874 -2.12132 2.12132 
C -1.55874 2.683901 -0.795609 3 0 3 
z
" style="stroke: #d62728"/>
    </defs>
    <g clip-path="url(#p3bd4a6282c)">
     <use xlink:href="#md3fcbe473b" x="93.39983" y="504.018399" style="fill: #d62728; stroke: #d62728"/>
     <use xlink:href="#md3fcbe473b" x="119.750811" y="505.641745" style="fill: #d62728; stroke: #d62728"/>
     <use xlink:href="#md3fcbe473b" x="146.101792" y="504.562012" style="fill: #d62728; stroke: #d62728"/>
     <use xlink:href="#md3fcbe473b" x="172.452774" y="505.963211" style="fill: #d62728; stroke: #d62728"/>
     <use xlink:href="#md3fcbe473b" x="198.803755" y="307.270335" style="fill: #d62728; stroke: #d62728"/>
     <use xlink:href="#md3fcbe473b" x="225.154737" y="495.447441" style="fill: #d62728; stroke: #d62728"/>
     <use xlink:href="#md3fcbe473b" x="251.505718" y="504.74891" style="fill: #d62728; stroke: #d62728"/>
     <use xlink:href="#md3fcbe473b" x="277.856699" y="418.481088" style="fill: #d62728; stroke: #d62728"/>
     <use xlink:href="#md3fcbe473b" x="304.207681" y="505.736503" style="fill: #d62728; stroke: #d62728"/>
     <use xlink:href="#md3fcbe473b" x="330.558662" y="505.86225" style="fill: #d62728; stroke: #d62728"/>
     <use xlink:href="#md3fcbe473b" x="356.909644" y="504.980187" style="fill: #d62728; stroke: #d62728"/>
     <use xlink:href="#md3fcbe473b" x="383.260625" y="506.100948" style="fill: #d62728; stroke: #d62728"/>
     <use xlink:href="#md3fcbe473b" x="409.611606" y="503.336431" style="fill: #d62728; stroke: #d62728"/>
     <use xlink:href="#md3fcbe473b" x="462.313569" y="505.032382" style="fill: #d62728; stroke: #d62728"/>
     <use xlink:href="#md3fcbe473b" x="488.664551" y="504.288632" style="fill: #d62728; stroke: #d62728"/>
     <use xlink:href="#md3fcbe473b" x="541.366513" y="505.208972" style="fill: #d62728; stroke: #d62728"/>
     <use xlink:href="#md3fcbe473b" x="567.717495" y="506.332202" style="fill: #d62728; stroke: #d62728"/>
     <use xlink:href="#md3fcbe473b" x="594.068476" y="503.912043" style="fill: #d62728; stroke: #d62728"/>
     <use xlink:href="#md3fcbe473b" x="620.419458" y="505.497092" style="fill: #d62728; stroke: #d62728"/>
     <use xlink:href="#md3fcbe473b" x="646.770439" y="505.610489" style="fill: #d62728; stroke: #d62728"/>
    </g>
   </g>
   <g id="line2d_21">
    <path d="M 93.39983 471.813709 
L 119.750811 468.015598 
L 146.101792 470.864455 
L 172.452774 470.8636 
L 198.803755 415.59121 
L 225.154737 418.648377 
L 251.505718 469.816411 
L 277.856699 397.227693 
L 304.207681 469.703134 
L 330.558662 471.094838 
L 356.909644 469.05019 
L 383.260625 472.905927 
L 409.611606 463.887363 
L 462.313569 468.617802 
L 488.664551 472.212345 
L 541.366513 467.636347 
L 567.717495 465.865541 
L 594.068476 471.326551 
L 620.419458 471.042877 
L 646.770439 472.590035 
" clip-path="url(#p3bd4a6282c)" style="fill: none; stroke: #9467bd; stroke-width: 2; stroke-linecap: square"/>
    <defs>
     <path id="md6c8991bef" d="M 0 3 
C 0.795609 3 1.55874 2.683901 2.12132 2.12132 
C 2.683901 1.55874 3 0.795609 3 0 
C 3 -0.795609 2.683901 -1.55874 2.12132 -2.12132 
C 1.55874 -2.683901 0.795609 -3 0 -3 
C -0.795609 -3 -1.55874 -2.683901 -2.12132 -2.12132 
C -2.683901 -1.55874 -3 -0.795609 -3 0 
C -3 0.795609 -2.683901 1.55874 -2.12132 2.12132 
C -1.55874 2.683901 -0.795609 3 0 3 
z
" style="stroke: #9467bd"/>
    </defs>
    <g clip-path="url(#p3bd4a6282c)">
     <use xlink:href="#md6c8991bef" x="93.39983" y="471.813709" style="fill: #9467bd; stroke: #9467bd"/>
     <use xlink:href="#md6c8991bef" x="119.750811" y="468.015598" style="fill: #9467bd; stroke: #9467bd"/>
     <use xlink:href="#md6c8991bef" x="146.101792" y="470.864455" style="fill: #9467bd; stroke: #9467bd"/>
     <use xlink:href="#md6c8991bef" x="172.452774" y="470.8636" style="fill: #9467bd; stroke: #9467bd"/>
     <use xlink:href="#md6c8991bef" x="198.803755" y="415.59121" style="fill: #9467bd; stroke: #9467bd"/>
     <use xlink:href="#md6c8991bef" x="225.154737" y="418.648377" style="fill: #9467bd; stroke: #9467bd"/>
     <use xlink:href="#md6c8991bef" x="251.505718" y="469.816411" style="fill: #9467bd; stroke: #9467bd"/>
     <use xlink:href="#md6c8991bef" x="277.856699" y="397.227693" style="fill: #9467bd; stroke: #9467bd"/>
     <use xlink:href="#md6c8991bef" x="304.207681" y="469.703134" style="fill: #9467bd; stroke: #9467bd"/>
     <use xlink:href="#md6c8991bef" x="330.558662" y="471.094838" style="fill: #9467bd; stroke: #9467bd"/>
     <use xlink:href="#md6c8991bef" x="356.909644" y="469.05019" style="fill: #9467bd; stroke: #9467bd"/>
     <use xlink:href="#md6c8991bef" x="383.260625" y="472.905927" style="fill: #9467bd; stroke: #9467bd"/>
     <use xlink:href="#md6c8991bef" x="409.611606" y="463.887363" style="fill: #9467bd; stroke: #9467bd"/>
     <use xlink:href="#md6c8991bef" x="462.313569" y="468.617802" style="fill: #9467bd; stroke: #9467bd"/>
     <use xlink:href="#md6c8991bef" x="488.664551" y="472.212345" style="fill: #9467bd; stroke: #9467bd"/>
     <use xlink:href="#md6c8991bef" x="541.366513" y="467.636347" style="fill: #9467bd; stroke: #9467bd"/>
     <use xlink:href="#md6c8991bef" x="567.717495" y="465.865541" style="fill: #9467bd; stroke: #9467bd"/>
     <use xlink:href="#md6c8991bef" x="594.068476" y="471.326551" style="fill: #9467bd; stroke: #9467bd"/>
     <use xlink:href="#md6c8991bef" x="620.419458" y="471.042877" style="fill: #9467bd; stroke: #9467bd"/>
     <use xlink:href="#md6c8991bef" x="646.770439" y="472.590035" style="fill: #9467bd; stroke: #9467bd"/>
    </g>
   </g>
   <g id="line2d_22">
    <path d="M 93.39983 232.815437 
L 119.750811 231.528701 
L 146.101792 232.338072 
L 172.452774 231.398232 
L 198.803755 177.722699 
L 225.154737 178.994362 
L 251.505718 231.970737 
L 277.856699 174.053219 
L 304.207681 233.422734 
L 330.558662 232.013163 
L 356.909644 232.188946 
L 383.260625 232.191768 
L 409.611606 231.204964 
L 462.313569 232.435691 
L 488.664551 231.63143 
L 541.366513 232.798712 
L 567.717495 233.426185 
L 594.068476 233.145823 
L 620.419458 234.115086 
L 646.770439 231.38049 
" clip-path="url(#p3bd4a6282c)" style="fill: none; stroke: #8c564b; stroke-width: 2; stroke-linecap: square"/>
    <defs>
     <path id="mfb8b4d3517" d="M 0 3 
C 0.795609 3 1.55874 2.683901 2.12132 2.12132 
C 2.683901 1.55874 3 0.795609 3 0 
C 3 -0.795609 2.683901 -1.55874 2.12132 -2.12132 
C 1.55874 -2.683901 0.795609 -3 0 -3 
C -0.795609 -3 -1.55874 -2.683901 -2.12132 -2.12132 
C -2.683901 -1.55874 -3 -0.795609 -3 0 
C -3 0.795609 -2.683901 1.55874 -2.12132 2.12132 
C -1.55874 2.683901 -0.795609 3 0 3 
z
" style="stroke: #8c564b"/>
    </defs>
    <g clip-path="url(#p3bd4a6282c)">
     <use xlink:href="#mfb8b4d3517" x="93.39983" y="232.815437" style="fill: #8c564b; stroke: #8c564b"/>
     <use xlink:href="#mfb8b4d3517" x="119.750811" y="231.528701" style="fill: #8c564b; stroke: #8c564b"/>
     <use xlink:href="#mfb8b4d3517" x="146.101792" y="232.338072" style="fill: #8c564b; stroke: #8c564b"/>
     <use xlink:href="#mfb8b4d3517" x="172.452774" y="231.398232" style="fill: #8c564b; stroke: #8c564b"/>
     <use xlink:href="#mfb8b4d3517" x="198.803755" y="177.722699" style="fill: #8c564b; stroke: #8c564b"/>
     <use xlink:href="#mfb8b4d3517" x="225.154737" y="178.994362" style="fill: #8c564b; stroke: #8c564b"/>
     <use xlink:href="#mfb8b4d3517" x="251.505718" y="231.970737" style="fill: #8c564b; stroke: #8c564b"/>
     <use xlink:href="#mfb8b4d3517" x="277.856699" y="174.053219" style="fill: #8c564b; stroke: #8c564b"/>
     <use xlink:href="#mfb8b4d3517" x="304.207681" y="233.422734" style="fill: #8c564b; stroke: #8c564b"/>
     <use xlink:href="#mfb8b4d3517" x="330.558662" y="232.013163" style="fill: #8c564b; stroke: #8c564b"/>
     <use xlink:href="#mfb8b4d3517" x="356.909644" y="232.188946" style="fill: #8c564b; stroke: #8c564b"/>
     <use xlink:href="#mfb8b4d3517" x="383.260625" y="232.191768" style="fill: #8c564b; stroke: #8c564b"/>
     <use xlink:href="#mfb8b4d3517" x="409.611606" y="231.204964" style="fill: #8c564b; stroke: #8c564b"/>
     <use xlink:href="#mfb8b4d3517" x="462.313569" y="232.435691" style="fill: #8c564b; stroke: #8c564b"/>
     <use xlink:href="#mfb8b4d3517" x="488.664551" y="231.63143" style="fill: #8c564b; stroke: #8c564b"/>
     <use xlink:href="#mfb8b4d3517" x="541.366513" y="232.798712" style="fill: #8c564b; stroke: #8c564b"/>
     <use xlink:href="#mfb8b4d3517" x="567.717495" y="233.426185" style="fill: #8c564b; stroke: #8c564b"/>
     <use xlink:href="#mfb8b4d3517" x="594.068476" y="233.145823" style="fill: #8c564b; stroke: #8c564b"/>
     <use xlink:href="#mfb8b4d3517" x="620.419458" y="234.115086" style="fill: #8c564b; stroke: #8c564b"/>
     <use xlink:href="#mfb8b4d3517" x="646.770439" y="231.38049" style="fill: #8c564b; stroke: #8c564b"/>
    </g>
   </g>
   <g id="patch_3">
    <path d="M 64.41375 529.308125 
L 64.41375 23.837813 
" style="fill: none; stroke: #000000; stroke-width: 0.8; stroke-linejoin: miter; stroke-linecap: square"/>
   </g>
   <g id="patch_4">
    <path d="M 702.1075 529.308125 
L 702.1075 23.837813 
" style="fill: none; stroke: #000000; stroke-width: 0.8; stroke-linejoin: miter; stroke-linecap: square"/>
   </g>
   <g id="patch_5">
    <path d="M 64.41375 529.308125 
L 702.1075 529.308125 
" style="fill: none; stroke: #000000; stroke-width: 0.8; stroke-linejoin: miter; stroke-linecap: square"/>
   </g>
   <g id="patch_6">
    <path d="M 64.41375 23.837812 
L 702.1075 23.837812 
" style="fill: none; stroke: #000000; stroke-width: 0.8; stroke-linejoin: miter; stroke-linecap: square"/>
   </g>
   <g id="text_12">
    <text style="font: 700 14px 'DejaVu Sans', 'Bitstream Vera Sans', 'Computer Modern Sans Serif', 'Lucida Grande', 'Verdana', 'Geneva', 'Lucid', 'Arial', 'Helvetica', 'Avant Garde', sans-serif; text-anchor: middle" x="383.260625" y="17.837813" transform="rotate(-0 383.260625 17.837813)">Parallelfor Vectorops - Performance Trend</text>
   </g>
   <g id="legend_1">
    <g id="patch_7">
     <path d="M 740.992188 119.906563 
L 846.004688 119.906563 
Q 848.004688 119.906563 848.004688 117.906563 
L 848.004688 30.837813 
Q 848.004688 28.837813 846.004688 28.837813 
L 740.992188 28.837813 
Q 738.992188 28.837813 738.992188 30.837813 
L 738.992188 117.906563 
Q 738.992188 119.906563 740.992188 119.906563 
z
" style="fill: #ffffff; opacity: 0.8; stroke: #cccccc; stroke-linejoin: miter"/>
    </g>
    <g id="line2d_23">
     <path d="M 742.992188 36.93625 
L 752.992188 36.93625 
L 762.992188 36.93625 
" style="fill: none; stroke: #1f77b4; stroke-width: 2; stroke-linecap: square"/>
     <g>
      <use xlink:href="#m545bd41e44" x="752.992188" y="36.93625" style="fill: #1f77b4; stroke: #1f77b4"/>
     </g>
    </g>
    <g id="text_13">
     <text style="font: 10px 'DejaVu Sans', 'Bitstream Vera Sans', 'Computer Modern Sans Serif', 'Lucida Grande', 'Verdana', 'Geneva', 'Lucid', 'Arial', 'Helvetica', 'Avant Garde', sans-serif; text-anchor: start" x="770.992188" y="40.43625" transform="rotate(-0 770.992188 40.43625)">gcc-14.2 - V1</text>
    </g>
    <g id="line2d_24">
     <path d="M 742.992188 51.614375 
L 752.992188 51.614375 
L 762.992188 51.614375 
" style="fill: none; stroke: #ff7f0e; stroke-width: 2; stroke-linecap: square"/>
     <g>
      <use xlink:href="#mee39f3238c" x="752.992188" y="51.614375" style="fill: #ff7f0e; stroke: #ff7f0e"/>
     </g>
    </g>
    <g id="text_14">
     <text style="font: 10px 'DejaVu Sans', 'Bitstream Vera Sans', 'Computer Modern Sans Serif', 'Lucida Grande', 'Verdana', 'Geneva', 'Lucid', 'Arial', 'Helvetica', 'Avant Garde', sans-serif; text-anchor: start" x="770.992188" y="55.114375" transform="rotate(-0 770.992188 55.114375)">gcc-14.2 - V2</text>
    </g>
    <g id="line2d_25">
     <path d="M 742.992188 66.2925 
L 752.992188 66.2925 
L 762.992188 66.2925 
" style="fill: none; stroke: #2ca02c; stroke-width: 2; stroke-linecap: square"/>
     <g>
      <use xlink:href="#m11d26cf700" x="752.992188" y="66.2925" style="fill: #2ca02c; stroke: #2ca02c"/>
     </g>
    </g>
    <g id="text_15">
     <text style="font: 10px 'DejaVu Sans', 'Bitstream Vera Sans', 'Computer Modern Sans Serif', 'Lucida Grande', 'Verdana', 'Geneva', 'Lucid', 'Arial', 'Helvetica', 'Avant Garde', sans-serif; text-anchor: start" x="770.992188" y="69.7925" transform="rotate(-0 770.992188 69.7925)">gcc-14.2 - TBB</text>
    </g>
    <g id="line2d_26">
     <path d="M 742.992188 80.970625 
L 752.992188 80.970625 
L 762.992188 80.970625 
" style="fill: none; stroke: #d62728; stroke-width: 2; stroke-linecap: square"/>
     <g>
      <use xlink:href="#md3fcbe473b" x="752.992188" y="80.970625" style="fill: #d62728; stroke: #d62728"/>
     </g>
    </g>
    <g id="text_16">
     <text style="font: 10px 'DejaVu Sans', 'Bitstream Vera Sans', 'Computer Modern Sans Serif', 'Lucida Grande', 'Verdana', 'Geneva', 'Lucid', 'Arial', 'Helvetica', 'Avant Garde', sans-serif; text-anchor: start" x="770.992188" y="84.470625" transform="rotate(-0 770.992188 84.470625)">gcc-4.2 - V1</text>
    </g>
    <g id="line2d_27">
     <path d="M 742.992188 95.64875 
L 752.992188 95.64875 
L 762.992188 95.64875 
" style="fill: none; stroke: #9467bd; stroke-width: 2; stroke-linecap: square"/>
     <g>
      <use xlink:href="#md6c8991bef" x="752.992188" y="95.64875" style="fill: #9467bd; stroke: #9467bd"/>
     </g>
    </g>
    <g id="text_17">
     <text style="font: 10px 'DejaVu Sans', 'Bitstream Vera Sans', 'Computer Modern Sans Serif', 'Lucida Grande', 'Verdana', 'Geneva', 'Lucid', 'Arial', 'Helvetica', 'Avant Garde', sans-serif; text-anchor: start" x="770.992188" y="99.14875" transform="rotate(-0 770.992188 99.14875)">gcc-4.2 - V2</text>
    </g>
    <g id="line2d_28">
     <path d="M 742.992188 110.326875 
L 752.992188 110.326875 
L 762.992188 110.326875 
" style="fill: none; stroke: #8c564b; stroke-width: 2; stroke-linecap: square"/>
     <g>
      <use xlink:href="#mfb8b4d3517" x="752.992188" y="110.326875" style="fill: #8c564b; stroke: #8c564b"/>
     </g>
    </g>
    <g id="text_18">
     <text style="font: 10px 'DejaVu Sans', 'Bitstream Vera Sans', 'Computer Modern Sans Serif', 'Lucida Grande', 'Verdana', 'Geneva', 'Lucid', 'Arial', 'Helvetica', 'Avant Garde', sans-serif; text-anchor: start" x="770.992188" y="113.826875" transform="rotate(-0 770.992188 113.826875)">gcc-4.2 - TBB</text>
    </g>
   </g>
  </g>
 </g>
 <defs>
  <clipPath id="p3bd4a6282c">
   <rect x="64.41375" y="23.837813" width="637.69375" height="505.470313"/>
  </clipPath>
 </defs>
</svg>
