<?xml version="1.0" encoding="utf-8" standalone="no"?>
<!DOCTYPE svg PUBLIC "-//W3C//DTD SVG 1.1//EN"
  "http://www.w3.org/Graphics/SVG/1.1/DTD/svg11.dtd">
<svg xmlns:xlink="http://www.w3.org/1999/xlink" width="850.739141pt" height="568.8pt" viewBox="0 0 850.739141 568.8" xmlns="http://www.w3.org/2000/svg" version="1.1">
 <metadata>
  <rdf:RDF xmlns:dc="http://purl.org/dc/elements/1.1/" xmlns:cc="http://creativecommons.org/ns#" xmlns:rdf="http://www.w3.org/1999/02/22-rdf-syntax-ns#">
   <cc:Work>
    <dc:type rdf:resource="http://purl.org/dc/dcmitype/StillImage"/>
    <dc:date>2026-05-09T23:46:46.793323</dc:date>
    <dc:format>image/svg+xml</dc:format>
    <dc:creator>
     <cc:Agent>
      <dc:title>Matplotlib v3.9.4, https://matplotlib.org/</dc:title>
     </cc:Agent>
    </dc:creator>
   </cc:Work>
  </rdf:RDF>
 </metadata>
 <defs>
  <style type="text/css">*{stroke-linejoin: round; stroke-linecap: butt}</style>
 </defs>
 <g id="figure_1">
  <g id="patch_1">
   <path d="M 0 568.8 
L 850.739141 568.8 
L 850.739141 0 
L 0 0 
z
" style="fill: #ffffff"/>
  </g>
  <g id="axes_1">
   <g id="patch_2">
    <path d="M 64.41375 529.308125 
L 612.796562 529.308125 
L 612.796562 23.837812 
L 64.41375 23.837812 
z
" style="fill: #ffffff"/>
   </g>
   <g id="matplotlib.axis_1">
    <g id="xtick_1">
     <g id="line2d_1">
      <path d="M 73.258634 529.308125 
L 73.258634 23.837812 
" clip-path="url(#pd8a578141a)" style="fill: none; stroke: #b0b0b0; stroke-opacity: 0.3; stroke-width: 0.8; stroke-linecap: square"/>
     </g>
     <g id="line2d_2">
      <defs>
       <path id="ma69165408d" d="M 0 0 
L 0 3.5 
" style="stroke: #000000; stroke-width: 0.8"/>
      </defs>
      <g>
       <use xlink:href="#ma69165408d" x="73.258634" y="529.308125" style="stroke: #000000; stroke-width: 0.8"/>
      </g>
     </g>
     <g id="text_1">
      <text style="font: 10px 'DejaVu Sans', 'Bitstream Vera Sans', 'Computer Modern Sans Serif', 'Lucida Grande', 'Verdana', 'Geneva', 'Lucid', 'Arial', 'Helvetica', 'Avant Garde', sans-serif; text-anchor: middle" x="73.258634" y="543.906563" transform="rotate(-0 73.258634 543.906563)">95</text>
     </g>
    </g>
    <g id="xtick_2">
     <g id="line2d_3">
      <path d="M 153.666671 529.308125 
L 153.666671 23.837812 
" clip-path="url(#pd8a578141a)" style="fill: none; stroke: #b0b0b0; stroke-opacity: 0.3; stroke-width: 0.8; stroke-linecap: square"/>
     </g>
     <g id="line2d_4">
      <g>
       <use xlink:href="#ma69165408d" x="153.666671" y="529.308125" style="stroke: #000000; stroke-width: 0.8"/>
      </g>
     </g>
     <g id="text_2">
      <text style="font: 10px 'DejaVu Sans', 'Bitstream Vera Sans', 'Computer Modern Sans Serif', 'Lucida Grande', 'Verdana', 'Geneva', 'Lucid', 'Arial', 'Helvetica', 'Avant Garde', sans-serif; text-anchor: middle" x="153.666671" y="543.906563" transform="rotate(-0 153.666671 543.906563)">100</text>
     </g>
    </g>
    <g id="xtick_3">
     <g id="line2d_5">
      <path d="M 234.074708 529.308125 
L 234.074708 23.837812 
" clip-path="url(#pd8a578141a)" style="fill: none; stroke: #b0b0b0; stroke-opacity: 0.3; stroke-width: 0.8; stroke-linecap: square"/>
     </g>
     <g id="line2d_6">
      <g>
       <use xlink:href="#ma69165408d" x="234.074708" y="529.308125" style="stroke: #000000; stroke-width: 0.8"/>
      </g>
     </g>
     <g id="text_3">
      <text style="font: 10px 'DejaVu Sans', 'Bitstream Vera Sans', 'Computer Modern Sans Serif', 'Lucida Grande', 'Verdana', 'Geneva', 'Lucid', 'Arial', 'Helvetica', 'Avant Garde', sans-serif; text-anchor: middle" x="234.074708" y="543.906563" transform="rotate(-0 234.074708 543.906563)">105</text>
     </g>
    </g>
    <g id="xtick_4">
     <g id="line2d_7">
      <path d="M 314.482745 529.308125 
L 314.482745 23.837812 
" clip-path="url(#pd8a578141a)" style="fill: none; stroke: #b0b0b0; stroke-opacity: 0.3; stroke-width: 0.8; stroke-linecap: square"/>
     </g>
     <g id="line2d_8">
      <g>
       <use xlink:href="#ma69165408d" x="314.482745" y="529.308125" style="stroke: #000000; stroke-width: 0.8"/>
      </g>
     </g>
     <g id="text_4">
      <text style="font: 10px 'DejaVu Sans', 'Bitstream Vera Sans', 'Computer Modern Sans Serif', 'Lucida Grande', 'Verdana', 'Geneva', 'Lucid', 'Arial', 'Helvetica', 'Avant Garde', sans-serif; text-anchor: middle" x="314.482745" y="543.906563" transform="rotate(-0 314.482745 543.906563)">110</text>
     </g>
    </g>
    <g id="xtick_5">
     <g id="line2d_9">
      <path d="M 394.890782 529.308125 
L 394.890782 23.837812 
" clip-path="url(#pd8a578141a)" style="fill: none; stroke: #b0b0b0; stroke-opacity: 0.3; stroke-width: 0.8; stroke-linecap: square"/>
     </g>
     <g id="line2d_10">
      <g>
       <use xlink:href="#ma69165408d" x="394.890782" y="529.308125" style="stroke: #000000; stroke-width: 0.8"/>
      </g>
     </g>
     <g id="text_5">
      <text style="font: 10px 'DejaVu Sans', 'Bitstream Vera Sans', 'Computer Modern Sans Serif', 'Lucida Grande', 'Verdana', 'Geneva', 'Lucid', 'Arial', 'Helvetica', 'Avant Garde', sans-serif; text-anchor: middle" x="394.890782" y="543.906563" transform="rotate(-0 394.890782 543.906563)">115</text>
     </g>
    </g>
    <g id="xtick_6">
     <g id="line2d_11">
      <path d="M 475.298819 529.308125 
L 475.298819 23.837812 
" clip-path="url(#pd8a578141a)" style="fill: none; stroke: #b0b0b0; stroke-opacity: 0.3; stroke-width: 0.8; stroke-linecap: square"/>
     </g>
     <g id="line2d_12">
      <g>
       <use xlink:href="#ma69165408d" x="475.298819" y="529.308125" style="stroke: #000000; stroke-width: 0.8"/>
      </g>
     </g>
     <g id="text_6">
      <text style="font: 10px 'DejaVu Sans', 'Bitstream Vera Sans', 'Computer Modern Sans Serif', 'Lucida Grande', 'Verdana', 'Geneva', 'Lucid', 'Arial', 'Helvetica', 'Avant Garde', sans-serif; text-anchor: middle" x="475.298819" y="543.906563" transform="rotate(-0 475.298819 543.906563)">120</text>
     </g>
    </g>
    <g id="xtick_7">
     <g id="line2d_13">
      <path d="M 555.706856 529.308125 
L 555.706856 23.837812 
" clip-path="url(#pd8a578141a)" style="fill: none; stroke: #b0b0b0; stroke-opacity: 0.3; stroke-width: 0.8; stroke-linecap: square"/>
     </g>
     <g id="line2d_14">
      <g>
       <use xlink:href="#ma69165408d" x="555.706856" y="529.308125" style="stroke: #000000; stroke-width: 0.8"/>
      </g>
     </g>
     <g id="text_7">
      <text style="font: 10px 'DejaVu Sans', 'Bitstream Vera Sans', 'Computer Modern Sans Serif', 'Lucida Grande', 'Verdana', 'Geneva', 'Lucid', 'Arial', 'Helvetica', 'Avant Garde', sans-serif; text-anchor: middle" x="555.706856" y="543.906563" transform="rotate(-0 555.706856 543.906563)">125</text>
     </g>
    </g>
    <g id="text_8">
     <text style="font: 12px 'DejaVu Sans', 'Bitstream Vera Sans', 'Computer Modern Sans Serif', 'Lucida Grande', 'Verdana', 'Geneva', 'Lucid', 'Arial', 'Helvetica', 'Avant Garde', sans-serif; text-anchor: middle" x="338.605156" y="559.104375" transform="rotate(-0 338.605156 559.104375)">Build Number</text>
    </g>
   </g>
   <g id="matplotlib.axis_2">
    <g id="ytick_1">
     <g id="line2d_15">
      <defs>
       <path id="mf2862e0fab" d="M 0 0 
L -2 0 
" style="stroke: #000000; stroke-width: 0.6"/>
      </defs>
      <g>
       <use xlink:href="#mf2862e0fab" x="64.41375" y="317.303523" style="stroke: #000000; stroke-width: 0.6"/>
      </g>
     </g>
     <g id="text_9">
      <!-- $\mathdefault{5\times10^{5}}$ -->
      <g transform="translate(22.81375 321.102742)">
       <text>
        <tspan style="font: 10px 'DejaVu Sans'" x="0 8.310547 18.637695 25" y="-0.06406250000000036">5×10</tspan>
        <tspan style="font: 7px 'DejaVu Sans'" x="31.458008" y="-3.8921875000000004">5</tspan>
       </text>
      </g>
     </g>
    </g>
    <g id="ytick_2">
     <g id="line2d_16">
      <g>
       <use xlink:href="#mf2862e0fab" x="64.41375" y="103.161198" style="stroke: #000000; stroke-width: 0.6"/>
      </g>
     </g>
     <g id="text_10">
      <!-- $\mathdefault{6\times10^{5}}$ -->
      <g transform="translate(22.81375 106.960417)">
       <text>
        <tspan style="font: 10px 'DejaVu Sans'" x="0 8.310547 18.637695 25" y="-0.06406250000000036">6×10</tspan>
        <tspan style="font: 7px 'DejaVu Sans'" x="31.458008" y="-3.8921875000000004">5</tspan>
       </text>
      </g>
     </g>
    </g>
    <g id="text_11">
     <text style="font: 12px 'DejaVu Sans', 'Bitstream Vera Sans', 'Computer Modern Sans Serif', 'Lucida Grande', 'Verdana', 'Geneva', 'Lucid', 'Arial', 'Helvetica', 'Avant Garde', sans-serif; text-anchor: middle" x="16.318125" y="276.572969" transform="rotate(-90 16.318125 276.572969)">Median Elapsed Time (nanoseconds)</text>
    </g>
   </g>
   <g id="line2d_17">
    <path d="M 89.340241 136.180982 
L 105.421849 129.429675 
L 137.585064 133.35239 
L 153.666671 146.485763 
L 169.748279 145.077019 
L 185.829886 148.703183 
L 201.911493 115.882279 
L 217.993101 139.804583 
L 234.074708 143.770874 
L 250.156316 136.392001 
L 282.31953 133.148543 
L 298.401138 151.489886 
L 314.482745 139.494416 
L 330.564353 140.27706 
L 346.64596 123.485308 
L 378.809175 147.816079 
L 394.890782 137.307194 
L 410.97239 139.264468 
L 427.053997 128.469792 
L 443.135604 136.922335 
L 459.217212 157.209871 
L 475.298819 139.33795 
L 491.380427 136.291923 
L 507.462034 463.729877 
L 523.543641 135.799913 
L 539.625249 141.055778 
L 571.788464 46.813736 
L 587.870071 138.204545 
" clip-path="url(#pd8a578141a)" style="fill: none; stroke: #1f77b4; stroke-width: 2; stroke-linecap: square"/>
    <defs>
     <path id="mff79b3672a" d="M 0 3 
C 0.795609 3 1.55874 2.683901 2.12132 2.12132 
C 2.683901 1.55874 3 0.795609 3 0 
C 3 -0.795609 2.683901 -1.55874 2.12132 -2.12132 
C 1.55874 -2.683901 0.795609 -3 0 -3 
C -0.795609 -3 -1.55874 -2.683901 -2.12132 -2.12132 
C -2.683901 -1.55874 -3 -0.795609 -3 0 
C -3 0.795609 -2.683901 1.55874 -2.12132 2.12132 
C -1.55874 2.683901 -0.795609 3 0 3 
z
" style="stroke: #1f77b4"/>
    </defs>
    <g clip-path="url(#pd8a578141a)">
     <use xlink:href="#mff79b3672a" x="89.340241" y="136.180982" style="fill: #1f77b4; stroke: #1f77b4"/>
     <use xlink:href="#mff79b3672a" x="105.421849" y="129.429675" style="fill: #1f77b4; stroke: #1f77b4"/>
     <use xlink:href="#mff79b3672a" x="137.585064" y="133.35239" style="fill: #1f77b4; stroke: #1f77b4"/>
     <use xlink:href="#mff79b3672a" x="153.666671" y="146.485763" style="fill: #1f77b4; stroke: #1f77b4"/>
     <use xlink:href="#mff79b3672a" x="169.748279" y="145.077019" style="fill: #1f77b4; stroke: #1f77b4"/>
     <use xlink:href="#mff79b3672a" x="185.829886" y="148.703183" style="fill: #1f77b4; stroke: #1f77b4"/>
     <use xlink:href="#mff79b3672a" x="201.911493" y="115.882279" style="fill: #1f77b4; stroke: #1f77b4"/>
     <use xlink:href="#mff79b3672a" x="217.993101" y="139.804583" style="fill: #1f77b4; stroke: #1f77b4"/>
     <use xlink:href="#mff79b3672a" x="234.074708" y="143.770874" style="fill: #1f77b4; stroke: #1f77b4"/>
     <use xlink:href="#mff79b3672a" x="250.156316" y="136.392001" style="fill: #1f77b4; stroke: #1f77b4"/>
     <use xlink:href="#mff79b3672a" x="282.31953" y="133.148543" style="fill: #1f77b4; stroke: #1f77b4"/>
     <use xlink:href="#mff79b3672a" x="298.401138" y="151.489886" style="fill: #1f77b4; stroke: #1f77b4"/>
     <use xlink:href="#mff79b3672a" x="314.482745" y="139.494416" style="fill: #1f77b4; stroke: #1f77b4"/>
     <use xlink:href="#mff79b3672a" x="330.564353" y="140.27706" style="fill: #1f77b4; stroke: #1f77b4"/>
     <use xlink:href="#mff79b3672a" x="346.64596" y="123.485308" style="fill: #1f77b4; stroke: #1f77b4"/>
     <use xlink:href="#mff79b3672a" x="378.809175" y="147.816079" style="fill: #1f77b4; stroke: #1f77b4"/>
     <use xlink:href="#mff79b3672a" x="394.890782" y="137.307194" style="fill: #1f77b4; stroke: #1f77b4"/>
     <use xlink:href="#mff79b3672a" x="410.97239" y="139.264468" style="fill: #1f77b4; stroke: #1f77b4"/>
     <use xlink:href="#mff79b3672a" x="427.053997" y="128.469792" style="fill: #1f77b4; stroke: #1f77b4"/>
     <use xlink:href="#mff79b3672a" x="443.135604" y="136.922335" style="fill: #1f77b4; stroke: #1f77b4"/>
     <use xlink:href="#mff79b3672a" x="459.217212" y="157.209871" style="fill: #1f77b4; stroke: #1f77b4"/>
     <use xlink:href="#mff79b3672a" x="475.298819" y="139.33795" style="fill: #1f77b4; stroke: #1f77b4"/>
     <use xlink:href="#mff79b3672a" x="491.380427" y="136.291923" style="fill: #1f77b4; stroke: #1f77b4"/>
     <use xlink:href="#mff79b3672a" x="507.462034" y="463.729877" style="fill: #1f77b4; stroke: #1f77b4"/>
     <use xlink:href="#mff79b3672a" x="523.543641" y="135.799913" style="fill: #1f77b4; stroke: #1f77b4"/>
     <use xlink:href="#mff79b3672a" x="539.625249" y="141.055778" style="fill: #1f77b4; stroke: #1f77b4"/>
     <use xlink:href="#mff79b3672a" x="571.788464" y="46.813736" style="fill: #1f77b4; stroke: #1f77b4"/>
     <use xlink:href="#mff79b3672a" x="587.870071" y="138.204545" style="fill: #1f77b4; stroke: #1f77b4"/>
    </g>
   </g>
   <g id="line2d_18">
    <path d="M 89.340241 169.954964 
L 105.421849 156.979913 
L 137.585064 160.915898 
L 153.666671 195.874061 
L 169.748279 173.994418 
L 185.829886 183.236937 
L 201.911493 159.193847 
L 217.993101 165.989448 
L 234.074708 179.65358 
L 250.156316 163.925732 
L 282.31953 151.004926 
L 298.401138 152.203413 
L 314.482745 173.196676 
L 330.564353 173.320314 
L 346.64596 175.900755 
L 378.809175 181.736351 
L 394.890782 143.085942 
L 410.97239 172.866556 
L 427.053997 168.777565 
L 443.135604 184.071937 
L 459.217212 193.969317 
L 475.298819 173.624787 
L 491.380427 174.238962 
L 507.462034 506.332202 
L 523.543641 158.705286 
L 539.625249 180.457811 
L 571.788464 94.039091 
L 587.870071 176.830387 
" clip-path="url(#pd8a578141a)" style="fill: none; stroke: #ff7f0e; stroke-width: 2; stroke-linecap: square"/>
    <defs>
     <path id="md3fe9799eb" d="M 0 3 
C 0.795609 3 1.55874 2.683901 2.12132 2.12132 
C 2.683901 1.55874 3 0.795609 3 0 
C 3 -0.795609 2.683901 -1.55874 2.12132 -2.12132 
C 1.55874 -2.683901 0.795609 -3 0 -3 
C -0.795609 -3 -1.55874 -2.683901 -2.12132 -2.12132 
C -2.683901 -1.55874 -3 -0.795609 -3 0 
C -3 0.795609 -2.683901 1.55874 -2.12132 2.12132 
C -1.55874 2.683901 -0.795609 3 0 3 
z
" style="stroke: #ff7f0e"/>
    </defs>
    <g clip-path="url(#pd8a578141a)">
     <use xlink:href="#md3fe9799eb" x="89.340241" y="169.954964" style="fill: #ff7f0e; stroke: #ff7f0e"/>
     <use xlink:href="#md3fe9799eb" x="105.421849" y="156.979913" style="fill: #ff7f0e; stroke: #ff7f0e"/>
     <use xlink:href="#md3fe9799eb" x="137.585064" y="160.915898" style="fill: #ff7f0e; stroke: #ff7f0e"/>
     <use xlink:href="#md3fe9799eb" x="153.666671" y="195.874061" style="fill: #ff7f0e; stroke: #ff7f0e"/>
     <use xlink:href="#md3fe9799eb" x="169.748279" y="173.994418" style="fill: #ff7f0e; stroke: #ff7f0e"/>
     <use xlink:href="#md3fe9799eb" x="185.829886" y="183.236937" style="fill: #ff7f0e; stroke: #ff7f0e"/>
     <use xlink:href="#md3fe9799eb" x="201.911493" y="159.193847" style="fill: #ff7f0e; stroke: #ff7f0e"/>
     <use xlink:href="#md3fe9799eb" x="217.993101" y="165.989448" style="fill: #ff7f0e; stroke: #ff7f0e"/>
     <use xlink:href="#md3fe9799eb" x="234.074708" y="179.65358" style="fill: #ff7f0e; stroke: #ff7f0e"/>
     <use xlink:href="#md3fe9799eb" x="250.156316" y="163.925732" style="fill: #ff7f0e; stroke: #ff7f0e"/>
     <use xlink:href="#md3fe9799eb" x="282.31953" y="151.004926" style="fill: #ff7f0e; stroke: #ff7f0e"/>
     <use xlink:href="#md3fe9799eb" x="298.401138" y="152.203413" style="fill: #ff7f0e; stroke: #ff7f0e"/>
     <use xlink:href="#md3fe9799eb" x="314.482745" y="173.196676" style="fill: #ff7f0e; stroke: #ff7f0e"/>
     <use xlink:href="#md3fe9799eb" x="330.564353" y="173.320314" style="fill: #ff7f0e; stroke: #ff7f0e"/>
     <use xlink:href="#md3fe9799eb" x="346.64596" y="175.900755" style="fill: #ff7f0e; stroke: #ff7f0e"/>
     <use xlink:href="#md3fe9799eb" x="378.809175" y="181.736351" style="fill: #ff7f0e; stroke: #ff7f0e"/>
     <use xlink:href="#md3fe9799eb" x="394.890782" y="143.085942" style="fill: #ff7f0e; stroke: #ff7f0e"/>
     <use xlink:href="#md3fe9799eb" x="410.97239" y="172.866556" style="fill: #ff7f0e; stroke: #ff7f0e"/>
     <use xlink:href="#md3fe9799eb" x="427.053997" y="168.777565" style="fill: #ff7f0e; stroke: #ff7f0e"/>
     <use xlink:href="#md3fe9799eb" x="443.135604" y="184.071937" style="fill: #ff7f0e; stroke: #ff7f0e"/>
     <use xlink:href="#md3fe9799eb" x="459.217212" y="193.969317" style="fill: #ff7f0e; stroke: #ff7f0e"/>
     <use xlink:href="#md3fe9799eb" x="475.298819" y="173.624787" style="fill: #ff7f0e; stroke: #ff7f0e"/>
     <use xlink:href="#md3fe9799eb" x="491.380427" y="174.238962" style="fill: #ff7f0e; stroke: #ff7f0e"/>
     <use xlink:href="#md3fe9799eb" x="507.462034" y="506.332202" style="fill: #ff7f0e; stroke: #ff7f0e"/>
     <use xlink:href="#md3fe9799eb" x="523.543641" y="158.705286" style="fill: #ff7f0e; stroke: #ff7f0e"/>
     <use xlink:href="#md3fe9799eb" x="539.625249" y="180.457811" style="fill: #ff7f0e; stroke: #ff7f0e"/>
     <use xlink:href="#md3fe9799eb" x="571.788464" y="94.039091" style="fill: #ff7f0e; stroke: #ff7f0e"/>
     <use xlink:href="#md3fe9799eb" x="587.870071" y="176.830387" style="fill: #ff7f0e; stroke: #ff7f0e"/>
    </g>
   </g>
   <g id="line2d_19">
    <path d="M 89.340241 283.251016 
L 105.421849 270.553388 
L 137.585064 275.007316 
L 153.666671 279.799191 
L 169.748279 283.208117 
L 185.829886 260.261757 
L 201.911493 289.426393 
L 217.993101 275.196767 
L 234.074708 280.916864 
L 250.156316 276.684428 
L 282.31953 276.046045 
L 298.401138 277.756893 
L 314.482745 279.623555 
L 346.64596 279.901808 
L 394.890782 273.893438 
L 410.97239 270.97221 
L 427.053997 260.387523 
L 443.135604 270.521785 
L 459.217212 276.637229 
L 475.298819 271.065477 
L 491.380427 270.234461 
L 507.462034 269.948109 
L 523.543641 272.699876 
L 539.625249 269.461315 
L 571.788464 181.32264 
L 587.870071 205.448027 
" clip-path="url(#pd8a578141a)" style="fill: none; stroke: #2ca02c; stroke-width: 2; stroke-linecap: square"/>
    <defs>
     <path id="m77f4fd0924" d="M 0 3 
C 0.795609 3 1.55874 2.683901 2.12132 2.12132 
C 2.683901 1.55874 3 0.795609 3 0 
C 3 -0.795609 2.683901 -1.55874 2.12132 -2.12132 
C 1.55874 -2.683901 0.795609 -3 0 -3 
C -0.795609 -3 -1.55874 -2.683901 -2.12132 -2.12132 
C -2.683901 -1.55874 -3 -0.795609 -3 0 
C -3 0.795609 -2.683901 1.55874 -2.12132 2.12132 
C -1.55874 2.683901 -0.795609 3 0 3 
z
" style="stroke: #2ca02c"/>
    </defs>
    <g clip-path="url(#pd8a578141a)">
     <use xlink:href="#m77f4fd0924" x="89.340241" y="283.251016" style="fill: #2ca02c; stroke: #2ca02c"/>
     <use xlink:href="#m77f4fd0924" x="105.421849" y="270.553388" style="fill: #2ca02c; stroke: #2ca02c"/>
     <use xlink:href="#m77f4fd0924" x="137.585064" y="275.007316" style="fill: #2ca02c; stroke: #2ca02c"/>
     <use xlink:href="#m77f4fd0924" x="153.666671" y="279.799191" style="fill: #2ca02c; stroke: #2ca02c"/>
     <use xlink:href="#m77f4fd0924" x="169.748279" y="283.208117" style="fill: #2ca02c; stroke: #2ca02c"/>
     <use xlink:href="#m77f4fd0924" x="185.829886" y="260.261757" style="fill: #2ca02c; stroke: #2ca02c"/>
     <use xlink:href="#m77f4fd0924" x="201.911493" y="289.426393" style="fill: #2ca02c; stroke: #2ca02c"/>
     <use xlink:href="#m77f4fd0924" x="217.993101" y="275.196767" style="fill: #2ca02c; stroke: #2ca02c"/>
     <use xlink:href="#m77f4fd0924" x="234.074708" y="280.916864" style="fill: #2ca02c; stroke: #2ca02c"/>
     <use xlink:href="#m77f4fd0924" x="250.156316" y="276.684428" style="fill: #2ca02c; stroke: #2ca02c"/>
     <use xlink:href="#m77f4fd0924" x="282.31953" y="276.046045" style="fill: #2ca02c; stroke: #2ca02c"/>
     <use xlink:href="#m77f4fd0924" x="298.401138" y="277.756893" style="fill: #2ca02c; stroke: #2ca02c"/>
     <use xlink:href="#m77f4fd0924" x="314.482745" y="279.623555" style="fill: #2ca02c; stroke: #2ca02c"/>
     <use xlink:href="#m77f4fd0924" x="346.64596" y="279.901808" style="fill: #2ca02c; stroke: #2ca02c"/>
     <use xlink:href="#m77f4fd0924" x="394.890782" y="273.893438" style="fill: #2ca02c; stroke: #2ca02c"/>
     <use xlink:href="#m77f4fd0924" x="410.97239" y="270.97221" style="fill: #2ca02c; stroke: #2ca02c"/>
     <use xlink:href="#m77f4fd0924" x="427.053997" y="260.387523" style="fill: #2ca02c; stroke: #2ca02c"/>
     <use xlink:href="#m77f4fd0924" x="443.135604" y="270.521785" style="fill: #2ca02c; stroke: #2ca02c"/>
     <use xlink:href="#m77f4fd0924" x="459.217212" y="276.637229" style="fill: #2ca02c; stroke: #2ca02c"/>
     <use xlink:href="#m77f4fd0924" x="475.298819" y="271.065477" style="fill: #2ca02c; stroke: #2ca02c"/>
     <use xlink:href="#m77f4fd0924" x="491.380427" y="270.234461" style="fill: #2ca02c; stroke: #2ca02c"/>
     <use xlink:href="#m77f4fd0924" x="507.462034" y="269.948109" style="fill: #2ca02c; stroke: #2ca02c"/>
     <use xlink:href="#m77f4fd0924" x="523.543641" y="272.699876" style="fill: #2ca02c; stroke: #2ca02c"/>
     <use xlink:href="#m77f4fd0924" x="539.625249" y="269.461315" style="fill: #2ca02c; stroke: #2ca02c"/>
     <use xlink:href="#m77f4fd0924" x="571.788464" y="181.32264" style="fill: #2ca02c; stroke: #2ca02c"/>
     <use xlink:href="#m77f4fd0924" x="587.870071" y="205.448027" style="fill: #2ca02c; stroke: #2ca02c"/>
    </g>
   </g>
   <g id="line2d_20">
    <path d="M 89.340241 285.303584 
L 105.421849 280.127326 
L 137.585064 284.520001 
L 153.666671 271.78906 
L 169.748279 287.242964 
L 185.829886 244.656971 
L 201.911493 295.699213 
L 217.993101 265.061357 
L 234.074708 290.833665 
L 250.156316 282.802246 
L 282.31953 285.665044 
L 298.401138 290.010581 
L 314.482745 280.033564 
L 346.64596 283.154951 
L 394.890782 284.52891 
L 410.97239 285.896703 
L 427.053997 274.893796 
L 443.135604 281.608032 
L 459.217212 288.867716 
L 475.298819 270.740089 
L 491.380427 280.836702 
L 507.462034 263.782013 
L 523.543641 278.0706 
L 539.625249 265.752697 
L 571.788464 191.698205 
L 587.870071 218.708678 
" clip-path="url(#pd8a578141a)" style="fill: none; stroke: #d62728; stroke-width: 2; stroke-linecap: square"/>
    <defs>
     <path id="m1626d8aa71" d="M 0 3 
C 0.795609 3 1.55874 2.683901 2.12132 2.12132 
C 2.683901 1.55874 3 0.795609 3 0 
C 3 -0.795609 2.683901 -1.55874 2.12132 -2.12132 
C 1.55874 -2.683901 0.795609 -3 0 -3 
C -0.795609 -3 -1.55874 -2.683901 -2.12132 -2.12132 
C -2.683901 -1.55874 -3 -0.795609 -3 0 
C -3 0.795609 -2.683901 1.55874 -2.12132 2.12132 
C -1.55874 2.683901 -0.795609 3 0 3 
z
" style="stroke: #d62728"/>
    </defs>
    <g clip-path="url(#pd8a578141a)">
     <use xlink:href="#m1626d8aa71" x="89.340241" y="285.303584" style="fill: #d62728; stroke: #d62728"/>
     <use xlink:href="#m1626d8aa71" x="105.421849" y="280.127326" style="fill: #d62728; stroke: #d62728"/>
     <use xlink:href="#m1626d8aa71" x="137.585064" y="284.520001" style="fill: #d62728; stroke: #d62728"/>
     <use xlink:href="#m1626d8aa71" x="153.666671" y="271.78906" style="fill: #d62728; stroke: #d62728"/>
     <use xlink:href="#m1626d8aa71" x="169.748279" y="287.242964" style="fill: #d62728; stroke: #d62728"/>
     <use xlink:href="#m1626d8aa71" x="185.829886" y="244.656971" style="fill: #d62728; stroke: #d62728"/>
     <use xlink:href="#m1626d8aa71" x="201.911493" y="295.699213" style="fill: #d62728; stroke: #d62728"/>
     <use xlink:href="#m1626d8aa71" x="217.993101" y="265.061357" style="fill: #d62728; stroke: #d62728"/>
     <use xlink:href="#m1626d8aa71" x="234.074708" y="290.833665" style="fill: #d62728; stroke: #d62728"/>
     <use xlink:href="#m1626d8aa71" x="250.156316" y="282.802246" style="fill: #d62728; stroke: #d62728"/>
     <use xlink:href="#m1626d8aa71" x="282.31953" y="285.665044" style="fill: #d62728; stroke: #d62728"/>
     <use xlink:href="#m1626d8aa71" x="298.401138" y="290.010581" style="fill: #d62728; stroke: #d62728"/>
     <use xlink:href="#m1626d8aa71" x="314.482745" y="280.033564" style="fill: #d62728; stroke: #d62728"/>
     <use xlink:href="#m1626d8aa71" x="346.64596" y="283.154951" style="fill: #d62728; stroke: #d62728"/>
     <use xlink:href="#m1626d8aa71" x="394.890782" y="284.52891" style="fill: #d62728; stroke: #d62728"/>
     <use xlink:href="#m1626d8aa71" x="410.97239" y="285.896703" style="fill: #d62728; stroke: #d62728"/>
     <use xlink:href="#m1626d8aa71" x="427.053997" y="274.893796" style="fill: #d62728; stroke: #d62728"/>
     <use xlink:href="#m1626d8aa71" x="443.135604" y="281.608032" style="fill: #d62728; stroke: #d62728"/>
     <use xlink:href="#m1626d8aa71" x="459.217212" y="288.867716" style="fill: #d62728; stroke: #d62728"/>
     <use xlink:href="#m1626d8aa71" x="475.298819" y="270.740089" style="fill: #d62728; stroke: #d62728"/>
     <use xlink:href="#m1626d8aa71" x="491.380427" y="280.836702" style="fill: #d62728; stroke: #d62728"/>
     <use xlink:href="#m1626d8aa71" x="507.462034" y="263.782013" style="fill: #d62728; stroke: #d62728"/>
     <use xlink:href="#m1626d8aa71" x="523.543641" y="278.0706" style="fill: #d62728; stroke: #d62728"/>
     <use xlink:href="#m1626d8aa71" x="539.625249" y="265.752697" style="fill: #d62728; stroke: #d62728"/>
     <use xlink:href="#m1626d8aa71" x="571.788464" y="191.698205" style="fill: #d62728; stroke: #d62728"/>
     <use xlink:href="#m1626d8aa71" x="587.870071" y="218.708678" style="fill: #d62728; stroke: #d62728"/>
    </g>
   </g>
   <g id="patch_3">
    <path d="M 64.41375 529.308125 
L 64.41375 23.837812 
" style="fill: none; stroke: #000000; stroke-width: 0.8; stroke-linejoin: miter; stroke-linecap: square"/>
   </g>
   <g id="patch_4">
    <path d="M 612.796562 529.308125 
L 612.796562 23.837812 
" style="fill: none; stroke: #000000; stroke-width: 0.8; stroke-linejoin: miter; stroke-linecap: square"/>
   </g>
   <g id="patch_5">
    <path d="M 64.41375 529.308125 
L 612.796562 529.308125 
" style="fill: none; stroke: #000000; stroke-width: 0.8; stroke-linejoin: miter; stroke-linecap: square"/>
   </g>
   <g id="patch_6">
    <path d="M 64.41375 23.837812 
L 612.796562 23.837812 
" style="fill: none; stroke: #000000; stroke-width: 0.8; stroke-linejoin: miter; stroke-linecap: square"/>
   </g>
   <g id="text_12">
    <text style="font: 700 14px 'DejaVu Sans', 'Bitstream Vera Sans', 'Computer Modern Sans Serif', 'Lucida Grande', 'Verdana', 'Geneva', 'Lucid', 'Arial', 'Helvetica', 'Avant Garde', sans-serif; text-anchor: middle" x="338.605156" y="17.837813" transform="rotate(-0 338.605156 17.837813)">Coroutine Creation - Performance Trend</text>
   </g>
   <g id="legend_1">
    <g id="patch_7">
     <path d="M 647.215703 91.662813 
L 841.539141 91.662813 
Q 843.539141 91.662813 843.539141 89.662813 
L 843.539141 30.837813 
Q 843.539141 28.837813 841.539141 28.837813 
L 647.215703 28.837813 
Q 645.215703 28.837813 645.215703 30.837813 
L 645.215703 89.662813 
Q 645.215703 91.662813 647.215703 91.662813 
z
" style="fill: #ffffff; opacity: 0.8; stroke: #cccccc; stroke-linejoin: miter"/>
    </g>
    <g id="line2d_21">
     <path d="M 649.215703 36.93625 
L 659.215703 36.93625 
L 669.215703 36.93625 
" style="fill: none; stroke: #1f77b4; stroke-width: 2; stroke-linecap: square"/>
     <g>
      <use xlink:href="#mff79b3672a" x="659.215703" y="36.93625" style="fill: #1f77b4; stroke: #1f77b4"/>
     </g>
    </g>
    <g id="text_13">
     <text style="font: 10px 'DejaVu Sans', 'Bitstream Vera Sans', 'Computer Modern Sans Serif', 'Lucida Grande', 'Verdana', 'Geneva', 'Lucid', 'Arial', 'Helvetica', 'Avant Garde', sans-serif; text-anchor: start" x="677.215703" y="40.43625" transform="rotate(-0 677.215703 40.43625)">gcc-14.2 - CoroutineCreation_V1</text>
    </g>
    <g id="line2d_22">
     <path d="M 649.215703 51.8925 
L 659.215703 51.8925 
L 669.215703 51.8925 
" style="fill: none; stroke: #ff7f0e; stroke-width: 2; stroke-linecap: square"/>
     <g>
      <use xlink:href="#md3fe9799eb" x="659.215703" y="51.8925" style="fill: #ff7f0e; stroke: #ff7f0e"/>
     </g>
    </g>
    <g id="text_14">
     <text style="font: 10px 'DejaVu Sans', 'Bitstream Vera Sans', 'Computer Modern Sans Serif', 'Lucida Grande', 'Verdana', 'Geneva', 'Lucid', 'Arial', 'Helvetica', 'Avant Garde', sans-serif; text-anchor: start" x="677.215703" y="55.3925" transform="rotate(-0 677.215703 55.3925)">gcc-14.2 - CoroutineCreation_V2</text>
    </g>
    <g id="line2d_23">
     <path d="M 649.215703 66.84875 
L 659.215703 66.84875 
L 669.215703 66.84875 
" style="fill: none; stroke: #2ca02c; stroke-width: 2; stroke-linecap: square"/>
     <g>
      <use xlink:href="#m77f4fd0924" x="659.215703" y="66.84875" style="fill: #2ca02c; stroke: #2ca02c"/>
     </g>
    </g>
    <g id="text_15">
     <text style="font: 10px 'DejaVu Sans', 'Bitstream Vera Sans', 'Computer Modern Sans Serif', 'Lucida Grande', 'Verdana', 'Geneva', 'Lucid', 'Arial', 'Helvetica', 'Avant Garde', sans-serif; text-anchor: start" x="677.215703" y="70.34875" transform="rotate(-0 677.215703 70.34875)">gcc-4.2 - CoroutineCreation_V1</text>
    </g>
    <g id="line2d_24">
     <path d="M 649.215703 81.805 
L 659.215703 81.805 
L 669.215703 81.805 
" style="fill: none; stroke: #d62728; stroke-width: 2; stroke-linecap: square"/>
     <g>
      <use xlink:href="#m1626d8aa71" x="659.215703" y="81.805" style="fill: #d62728; stroke: #d62728"/>
     </g>
    </g>
    <g id="text_16">
     <text style="font: 10px 'DejaVu Sans', 'Bitstream Vera Sans', 'Computer Modern Sans Serif', 'Lucida Grande', 'Verdana', 'Geneva', 'Lucid', 'Arial', 'Helvetica', 'Avant Garde', sans-serif; text-anchor: start" x="677.215703" y="85.305" transform="rotate(-0 677.215703 85.305)">gcc-4.2 - CoroutineCreation_V2</text>
    </g>
   </g>
  </g>
 </g>
 <defs>
  <clipPath id="pd8a578141a">
   <rect x="64.41375" y="23.837813" width="548.382812" height="505.470313"/>
  </clipPath>
 </defs>
</svg>
