<?xml version="1.0" encoding="utf-8" standalone="no"?>
<!DOCTYPE svg PUBLIC "-//W3C//DTD SVG 1.1//EN"
  "http://www.w3.org/Graphics/SVG/1.1/DTD/svg11.dtd">
<svg xmlns:xlink="http://www.w3.org/1999/xlink" width="855.204687pt" height="568.8pt" viewBox="0 0 855.204687 568.8" xmlns="http://www.w3.org/2000/svg" version="1.1">
 <metadata>
  <rdf:RDF xmlns:dc="http://purl.org/dc/elements/1.1/" xmlns:cc="http://creativecommons.org/ns#" xmlns:rdf="http://www.w3.org/1999/02/22-rdf-syntax-ns#">
   <cc:Work>
    <dc:type rdf:resource="http://purl.org/dc/dcmitype/StillImage"/>
    <dc:date>2025-08-13T22:54:34.569759</dc:date>
    <dc:format>image/svg+xml</dc:format>
    <dc:creator>
     <cc:Agent>
      <dc:title>Matplotlib v3.9.4, https://matplotlib.org/</dc:title>
     </cc:Agent>
    </dc:creator>
   </cc:Work>
  </rdf:RDF>
 </metadata>
 <defs>
  <style type="text/css">*{stroke-linejoin: round; stroke-linecap: butt}</style>
 </defs>
 <g id="figure_1">
  <g id="patch_1">
   <path d="M 0 568.8 
L 855.204687 568.8 
L 855.204687 0 
L 0 0 
z
" style="fill: #ffffff"/>
  </g>
  <g id="axes_1">
   <g id="patch_2">
    <path d="M 64.41375 529.308125 
L 702.1075 529.308125 
L 702.1075 23.837812 
L 64.41375 23.837812 
z
" style="fill: #ffffff"/>
   </g>
   <g id="matplotlib.axis_1">
    <g id="xtick_1">
     <g id="line2d_1">
      <path d="M 144.551735 529.308125 
L 144.551735 23.837812 
" clip-path="url(#p66d6fdfbd5)" style="fill: none; stroke: #b0b0b0; stroke-opacity: 0.3; stroke-width: 0.8; stroke-linecap: square"/>
     </g>
     <g id="line2d_2">
      <defs>
       <path id="m569f3c1b0e" d="M 0 0 
L 0 3.5 
" style="stroke: #000000; stroke-width: 0.8"/>
      </defs>
      <g>
       <use xlink:href="#m569f3c1b0e" x="144.551735" y="529.308125" style="stroke: #000000; stroke-width: 0.8"/>
      </g>
     </g>
     <g id="text_1">
      <text style="font: 10px 'DejaVu Sans', 'Bitstream Vera Sans', 'Computer Modern Sans Serif', 'Lucida Grande', 'Verdana', 'Geneva', 'Lucid', 'Arial', 'Helvetica', 'Avant Garde', sans-serif; text-anchor: middle" x="144.551735" y="543.906563" transform="rotate(-0 144.551735 543.906563)">72.5</text>
     </g>
    </g>
    <g id="xtick_2">
     <g id="line2d_3">
      <path d="M 229.80491 529.308125 
L 229.80491 23.837812 
" clip-path="url(#p66d6fdfbd5)" style="fill: none; stroke: #b0b0b0; stroke-opacity: 0.3; stroke-width: 0.8; stroke-linecap: square"/>
     </g>
     <g id="line2d_4">
      <g>
       <use xlink:href="#m569f3c1b0e" x="229.80491" y="529.308125" style="stroke: #000000; stroke-width: 0.8"/>
      </g>
     </g>
     <g id="text_2">
      <text style="font: 10px 'DejaVu Sans', 'Bitstream Vera Sans', 'Computer Modern Sans Serif', 'Lucida Grande', 'Verdana', 'Geneva', 'Lucid', 'Arial', 'Helvetica', 'Avant Garde', sans-serif; text-anchor: middle" x="229.80491" y="543.906563" transform="rotate(-0 229.80491 543.906563)">75.0</text>
     </g>
    </g>
    <g id="xtick_3">
     <g id="line2d_5">
      <path d="M 315.058085 529.308125 
L 315.058085 23.837812 
" clip-path="url(#p66d6fdfbd5)" style="fill: none; stroke: #b0b0b0; stroke-opacity: 0.3; stroke-width: 0.8; stroke-linecap: square"/>
     </g>
     <g id="line2d_6">
      <g>
       <use xlink:href="#m569f3c1b0e" x="315.058085" y="529.308125" style="stroke: #000000; stroke-width: 0.8"/>
      </g>
     </g>
     <g id="text_3">
      <text style="font: 10px 'DejaVu Sans', 'Bitstream Vera Sans', 'Computer Modern Sans Serif', 'Lucida Grande', 'Verdana', 'Geneva', 'Lucid', 'Arial', 'Helvetica', 'Avant Garde', sans-serif; text-anchor: middle" x="315.058085" y="543.906563" transform="rotate(-0 315.058085 543.906563)">77.5</text>
     </g>
    </g>
    <g id="xtick_4">
     <g id="line2d_7">
      <path d="M 400.31126 529.308125 
L 400.31126 23.837812 
" clip-path="url(#p66d6fdfbd5)" style="fill: none; stroke: #b0b0b0; stroke-opacity: 0.3; stroke-width: 0.8; stroke-linecap: square"/>
     </g>
     <g id="line2d_8">
      <g>
       <use xlink:href="#m569f3c1b0e" x="400.31126" y="529.308125" style="stroke: #000000; stroke-width: 0.8"/>
      </g>
     </g>
     <g id="text_4">
      <text style="font: 10px 'DejaVu Sans', 'Bitstream Vera Sans', 'Computer Modern Sans Serif', 'Lucida Grande', 'Verdana', 'Geneva', 'Lucid', 'Arial', 'Helvetica', 'Avant Garde', sans-serif; text-anchor: middle" x="400.31126" y="543.906563" transform="rotate(-0 400.31126 543.906563)">80.0</text>
     </g>
    </g>
    <g id="xtick_5">
     <g id="line2d_9">
      <path d="M 485.564435 529.308125 
L 485.564435 23.837812 
" clip-path="url(#p66d6fdfbd5)" style="fill: none; stroke: #b0b0b0; stroke-opacity: 0.3; stroke-width: 0.8; stroke-linecap: square"/>
     </g>
     <g id="line2d_10">
      <g>
       <use xlink:href="#m569f3c1b0e" x="485.564435" y="529.308125" style="stroke: #000000; stroke-width: 0.8"/>
      </g>
     </g>
     <g id="text_5">
      <text style="font: 10px 'DejaVu Sans', 'Bitstream Vera Sans', 'Computer Modern Sans Serif', 'Lucida Grande', 'Verdana', 'Geneva', 'Lucid', 'Arial', 'Helvetica', 'Avant Garde', sans-serif; text-anchor: middle" x="485.564435" y="543.906563" transform="rotate(-0 485.564435 543.906563)">82.5</text>
     </g>
    </g>
    <g id="xtick_6">
     <g id="line2d_11">
      <path d="M 570.81761 529.308125 
L 570.81761 23.837812 
" clip-path="url(#p66d6fdfbd5)" style="fill: none; stroke: #b0b0b0; stroke-opacity: 0.3; stroke-width: 0.8; stroke-linecap: square"/>
     </g>
     <g id="line2d_12">
      <g>
       <use xlink:href="#m569f3c1b0e" x="570.81761" y="529.308125" style="stroke: #000000; stroke-width: 0.8"/>
      </g>
     </g>
     <g id="text_6">
      <text style="font: 10px 'DejaVu Sans', 'Bitstream Vera Sans', 'Computer Modern Sans Serif', 'Lucida Grande', 'Verdana', 'Geneva', 'Lucid', 'Arial', 'Helvetica', 'Avant Garde', sans-serif; text-anchor: middle" x="570.81761" y="543.906563" transform="rotate(-0 570.81761 543.906563)">85.0</text>
     </g>
    </g>
    <g id="xtick_7">
     <g id="line2d_13">
      <path d="M 656.070785 529.308125 
L 656.070785 23.837812 
" clip-path="url(#p66d6fdfbd5)" style="fill: none; stroke: #b0b0b0; stroke-opacity: 0.3; stroke-width: 0.8; stroke-linecap: square"/>
     </g>
     <g id="line2d_14">
      <g>
       <use xlink:href="#m569f3c1b0e" x="656.070785" y="529.308125" style="stroke: #000000; stroke-width: 0.8"/>
      </g>
     </g>
     <g id="text_7">
      <text style="font: 10px 'DejaVu Sans', 'Bitstream Vera Sans', 'Computer Modern Sans Serif', 'Lucida Grande', 'Verdana', 'Geneva', 'Lucid', 'Arial', 'Helvetica', 'Avant Garde', sans-serif; text-anchor: middle" x="656.070785" y="543.906563" transform="rotate(-0 656.070785 543.906563)">87.5</text>
     </g>
    </g>
    <g id="text_8">
     <text style="font: 12px 'DejaVu Sans', 'Bitstream Vera Sans', 'Computer Modern Sans Serif', 'Lucida Grande', 'Verdana', 'Geneva', 'Lucid', 'Arial', 'Helvetica', 'Avant Garde', sans-serif; text-anchor: middle" x="383.260625" y="559.104375" transform="rotate(-0 383.260625 559.104375)">Build Number</text>
    </g>
   </g>
   <g id="matplotlib.axis_2">
    <g id="ytick_1">
     <g id="line2d_15">
      <defs>
       <path id="m073924c43a" d="M 0 0 
L -2 0 
" style="stroke: #000000; stroke-width: 0.6"/>
      </defs>
      <g>
       <use xlink:href="#m073924c43a" x="64.41375" y="514.915957" style="stroke: #000000; stroke-width: 0.6"/>
      </g>
     </g>
     <g id="text_9">
      <!-- $\mathdefault{5\times10^{7}}$ -->
      <g transform="translate(22.81375 518.715175)">
       <text>
        <tspan style="font: 10px 'DejaVu Sans'" x="0 8.310547 18.637695 25" y="-0.06406250000000036">5×10</tspan>
        <tspan style="font: 7px 'DejaVu Sans'" x="31.458008" y="-3.8921875000000004">7</tspan>
       </text>
      </g>
     </g>
    </g>
    <g id="ytick_2">
     <g id="line2d_16">
      <g>
       <use xlink:href="#m073924c43a" x="64.41375" y="288.174215" style="stroke: #000000; stroke-width: 0.6"/>
      </g>
     </g>
     <g id="text_10">
      <!-- $\mathdefault{6\times10^{7}}$ -->
      <g transform="translate(22.81375 291.973434)">
       <text>
        <tspan style="font: 10px 'DejaVu Sans'" x="0 8.310547 18.637695 25" y="-0.06406250000000036">6×10</tspan>
        <tspan style="font: 7px 'DejaVu Sans'" x="31.458008" y="-3.8921875000000004">7</tspan>
       </text>
      </g>
     </g>
    </g>
    <g id="ytick_3">
     <g id="line2d_17">
      <g>
       <use xlink:href="#m073924c43a" x="64.41375" y="96.466805" style="stroke: #000000; stroke-width: 0.6"/>
      </g>
     </g>
     <g id="text_11">
      <!-- $\mathdefault{7\times10^{7}}$ -->
      <g transform="translate(22.81375 100.266023)">
       <text>
        <tspan style="font: 10px 'DejaVu Sans'" x="0 8.310547 18.637695 25" y="-0.06406250000000036">7×10</tspan>
        <tspan style="font: 7px 'DejaVu Sans'" x="31.458008" y="-3.8921875000000004">7</tspan>
       </text>
      </g>
     </g>
    </g>
    <g id="text_12">
     <text style="font: 12px 'DejaVu Sans', 'Bitstream Vera Sans', 'Computer Modern Sans Serif', 'Lucida Grande', 'Verdana', 'Geneva', 'Lucid', 'Arial', 'Helvetica', 'Avant Garde', sans-serif; text-anchor: middle" x="16.318125" y="276.572969" transform="rotate(-90 16.318125 276.572969)">Median Elapsed Time (nanoseconds)</text>
    </g>
   </g>
   <g id="line2d_18">
    <path d="M 93.39983 493.691829 
L 127.5011 490.814075 
L 161.60237 487.494679 
L 195.70364 487.145326 
L 229.80491 488.410505 
L 263.90618 475.327557 
L 298.00745 487.596827 
L 332.10872 488.415686 
L 366.20999 489.713847 
L 400.31126 457.081027 
L 434.41253 483.450798 
L 468.5138 486.101722 
L 502.61507 488.754486 
L 536.71634 490.455908 
L 570.81761 482.796643 
L 604.91888 488.14356 
L 673.12142 488.224408 
" clip-path="url(#p66d6fdfbd5)" style="fill: none; stroke: #1f77b4; stroke-width: 2; stroke-linecap: square"/>
    <defs>
     <path id="mb6a66e36d8" d="M 0 3 
C 0.795609 3 1.55874 2.683901 2.12132 2.12132 
C 2.683901 1.55874 3 0.795609 3 0 
C 3 -0.795609 2.683901 -1.55874 2.12132 -2.12132 
C 1.55874 -2.683901 0.795609 -3 0 -3 
C -0.795609 -3 -1.55874 -2.683901 -2.12132 -2.12132 
C -2.683901 -1.55874 -3 -0.795609 -3 0 
C -3 0.795609 -2.683901 1.55874 -2.12132 2.12132 
C -1.55874 2.683901 -0.795609 3 0 3 
z
" style="stroke: #1f77b4"/>
    </defs>
    <g clip-path="url(#p66d6fdfbd5)">
     <use xlink:href="#mb6a66e36d8" x="93.39983" y="493.691829" style="fill: #1f77b4; stroke: #1f77b4"/>
     <use xlink:href="#mb6a66e36d8" x="127.5011" y="490.814075" style="fill: #1f77b4; stroke: #1f77b4"/>
     <use xlink:href="#mb6a66e36d8" x="161.60237" y="487.494679" style="fill: #1f77b4; stroke: #1f77b4"/>
     <use xlink:href="#mb6a66e36d8" x="195.70364" y="487.145326" style="fill: #1f77b4; stroke: #1f77b4"/>
     <use xlink:href="#mb6a66e36d8" x="229.80491" y="488.410505" style="fill: #1f77b4; stroke: #1f77b4"/>
     <use xlink:href="#mb6a66e36d8" x="263.90618" y="475.327557" style="fill: #1f77b4; stroke: #1f77b4"/>
     <use xlink:href="#mb6a66e36d8" x="298.00745" y="487.596827" style="fill: #1f77b4; stroke: #1f77b4"/>
     <use xlink:href="#mb6a66e36d8" x="332.10872" y="488.415686" style="fill: #1f77b4; stroke: #1f77b4"/>
     <use xlink:href="#mb6a66e36d8" x="366.20999" y="489.713847" style="fill: #1f77b4; stroke: #1f77b4"/>
     <use xlink:href="#mb6a66e36d8" x="400.31126" y="457.081027" style="fill: #1f77b4; stroke: #1f77b4"/>
     <use xlink:href="#mb6a66e36d8" x="434.41253" y="483.450798" style="fill: #1f77b4; stroke: #1f77b4"/>
     <use xlink:href="#mb6a66e36d8" x="468.5138" y="486.101722" style="fill: #1f77b4; stroke: #1f77b4"/>
     <use xlink:href="#mb6a66e36d8" x="502.61507" y="488.754486" style="fill: #1f77b4; stroke: #1f77b4"/>
     <use xlink:href="#mb6a66e36d8" x="536.71634" y="490.455908" style="fill: #1f77b4; stroke: #1f77b4"/>
     <use xlink:href="#mb6a66e36d8" x="570.81761" y="482.796643" style="fill: #1f77b4; stroke: #1f77b4"/>
     <use xlink:href="#mb6a66e36d8" x="604.91888" y="488.14356" style="fill: #1f77b4; stroke: #1f77b4"/>
     <use xlink:href="#mb6a66e36d8" x="673.12142" y="488.224408" style="fill: #1f77b4; stroke: #1f77b4"/>
    </g>
   </g>
   <g id="line2d_19">
    <path d="M 93.39983 214.978781 
L 127.5011 182.906967 
L 161.60237 272.956006 
L 195.70364 182.029092 
L 229.80491 268.872976 
L 263.90618 274.785303 
L 298.00745 171.913022 
L 332.10872 270.679187 
L 366.20999 182.508331 
L 400.31126 270.8712 
L 434.41253 182.657976 
L 468.5138 183.510793 
L 502.61507 272.463822 
L 536.71634 182.405436 
L 570.81761 272.552038 
L 604.91888 181.404628 
L 673.12142 275.226397 
" clip-path="url(#p66d6fdfbd5)" style="fill: none; stroke: #ff7f0e; stroke-width: 2; stroke-linecap: square"/>
    <defs>
     <path id="mdd78e2cf81" d="M 0 3 
C 0.795609 3 1.55874 2.683901 2.12132 2.12132 
C 2.683901 1.55874 3 0.795609 3 0 
C 3 -0.795609 2.683901 -1.55874 2.12132 -2.12132 
C 1.55874 -2.683901 0.795609 -3 0 -3 
C -0.795609 -3 -1.55874 -2.683901 -2.12132 -2.12132 
C -2.683901 -1.55874 -3 -0.795609 -3 0 
C -3 0.795609 -2.683901 1.55874 -2.12132 2.12132 
C -1.55874 2.683901 -0.795609 3 0 3 
z
" style="stroke: #ff7f0e"/>
    </defs>
    <g clip-path="url(#p66d6fdfbd5)">
     <use xlink:href="#mdd78e2cf81" x="93.39983" y="214.978781" style="fill: #ff7f0e; stroke: #ff7f0e"/>
     <use xlink:href="#mdd78e2cf81" x="127.5011" y="182.906967" style="fill: #ff7f0e; stroke: #ff7f0e"/>
     <use xlink:href="#mdd78e2cf81" x="161.60237" y="272.956006" style="fill: #ff7f0e; stroke: #ff7f0e"/>
     <use xlink:href="#mdd78e2cf81" x="195.70364" y="182.029092" style="fill: #ff7f0e; stroke: #ff7f0e"/>
     <use xlink:href="#mdd78e2cf81" x="229.80491" y="268.872976" style="fill: #ff7f0e; stroke: #ff7f0e"/>
     <use xlink:href="#mdd78e2cf81" x="263.90618" y="274.785303" style="fill: #ff7f0e; stroke: #ff7f0e"/>
     <use xlink:href="#mdd78e2cf81" x="298.00745" y="171.913022" style="fill: #ff7f0e; stroke: #ff7f0e"/>
     <use xlink:href="#mdd78e2cf81" x="332.10872" y="270.679187" style="fill: #ff7f0e; stroke: #ff7f0e"/>
     <use xlink:href="#mdd78e2cf81" x="366.20999" y="182.508331" style="fill: #ff7f0e; stroke: #ff7f0e"/>
     <use xlink:href="#mdd78e2cf81" x="400.31126" y="270.8712" style="fill: #ff7f0e; stroke: #ff7f0e"/>
     <use xlink:href="#mdd78e2cf81" x="434.41253" y="182.657976" style="fill: #ff7f0e; stroke: #ff7f0e"/>
     <use xlink:href="#mdd78e2cf81" x="468.5138" y="183.510793" style="fill: #ff7f0e; stroke: #ff7f0e"/>
     <use xlink:href="#mdd78e2cf81" x="502.61507" y="272.463822" style="fill: #ff7f0e; stroke: #ff7f0e"/>
     <use xlink:href="#mdd78e2cf81" x="536.71634" y="182.405436" style="fill: #ff7f0e; stroke: #ff7f0e"/>
     <use xlink:href="#mdd78e2cf81" x="570.81761" y="272.552038" style="fill: #ff7f0e; stroke: #ff7f0e"/>
     <use xlink:href="#mdd78e2cf81" x="604.91888" y="181.404628" style="fill: #ff7f0e; stroke: #ff7f0e"/>
     <use xlink:href="#mdd78e2cf81" x="673.12142" y="275.226397" style="fill: #ff7f0e; stroke: #ff7f0e"/>
    </g>
   </g>
   <g id="line2d_20">
    <path d="M 93.39983 506.332202 
L 127.5011 488.22548 
L 161.60237 487.132838 
L 195.70364 488.186015 
L 229.80491 486.766103 
L 263.90618 489.39061 
L 298.00745 488.226181 
L 332.10872 487.796971 
L 366.20999 488.498719 
L 400.31126 489.635154 
L 434.41253 487.489777 
L 468.5138 488.674621 
L 502.61507 488.025081 
L 536.71634 486.62109 
L 570.81761 488.454844 
L 604.91888 487.47967 
L 673.12142 488.84933 
" clip-path="url(#p66d6fdfbd5)" style="fill: none; stroke: #2ca02c; stroke-width: 2; stroke-linecap: square"/>
    <defs>
     <path id="maec89749bc" d="M 0 3 
C 0.795609 3 1.55874 2.683901 2.12132 2.12132 
C 2.683901 1.55874 3 0.795609 3 0 
C 3 -0.795609 2.683901 -1.55874 2.12132 -2.12132 
C 1.55874 -2.683901 0.795609 -3 0 -3 
C -0.795609 -3 -1.55874 -2.683901 -2.12132 -2.12132 
C -2.683901 -1.55874 -3 -0.795609 -3 0 
C -3 0.795609 -2.683901 1.55874 -2.12132 2.12132 
C -1.55874 2.683901 -0.795609 3 0 3 
z
" style="stroke: #2ca02c"/>
    </defs>
    <g clip-path="url(#p66d6fdfbd5)">
     <use xlink:href="#maec89749bc" x="93.39983" y="506.332202" style="fill: #2ca02c; stroke: #2ca02c"/>
     <use xlink:href="#maec89749bc" x="127.5011" y="488.22548" style="fill: #2ca02c; stroke: #2ca02c"/>
     <use xlink:href="#maec89749bc" x="161.60237" y="487.132838" style="fill: #2ca02c; stroke: #2ca02c"/>
     <use xlink:href="#maec89749bc" x="195.70364" y="488.186015" style="fill: #2ca02c; stroke: #2ca02c"/>
     <use xlink:href="#maec89749bc" x="229.80491" y="486.766103" style="fill: #2ca02c; stroke: #2ca02c"/>
     <use xlink:href="#maec89749bc" x="263.90618" y="489.39061" style="fill: #2ca02c; stroke: #2ca02c"/>
     <use xlink:href="#maec89749bc" x="298.00745" y="488.226181" style="fill: #2ca02c; stroke: #2ca02c"/>
     <use xlink:href="#maec89749bc" x="332.10872" y="487.796971" style="fill: #2ca02c; stroke: #2ca02c"/>
     <use xlink:href="#maec89749bc" x="366.20999" y="488.498719" style="fill: #2ca02c; stroke: #2ca02c"/>
     <use xlink:href="#maec89749bc" x="400.31126" y="489.635154" style="fill: #2ca02c; stroke: #2ca02c"/>
     <use xlink:href="#maec89749bc" x="434.41253" y="487.489777" style="fill: #2ca02c; stroke: #2ca02c"/>
     <use xlink:href="#maec89749bc" x="468.5138" y="488.674621" style="fill: #2ca02c; stroke: #2ca02c"/>
     <use xlink:href="#maec89749bc" x="502.61507" y="488.025081" style="fill: #2ca02c; stroke: #2ca02c"/>
     <use xlink:href="#maec89749bc" x="536.71634" y="486.62109" style="fill: #2ca02c; stroke: #2ca02c"/>
     <use xlink:href="#maec89749bc" x="570.81761" y="488.454844" style="fill: #2ca02c; stroke: #2ca02c"/>
     <use xlink:href="#maec89749bc" x="604.91888" y="487.47967" style="fill: #2ca02c; stroke: #2ca02c"/>
     <use xlink:href="#maec89749bc" x="673.12142" y="488.84933" style="fill: #2ca02c; stroke: #2ca02c"/>
    </g>
   </g>
   <g id="line2d_21">
    <path d="M 93.39983 284.582811 
L 127.5011 287.362379 
L 161.60237 286.431637 
L 195.70364 285.037666 
L 229.80491 287.11432 
L 263.90618 282.282277 
L 298.00745 283.577155 
L 332.10872 286.238334 
L 366.20999 283.759492 
L 400.31126 286.297496 
L 434.41253 287.752534 
L 468.5138 281.162939 
L 502.61507 284.020288 
L 570.81761 284.844574 
L 604.91888 286.186715 
L 673.12142 289.351632 
" clip-path="url(#p66d6fdfbd5)" style="fill: none; stroke: #d62728; stroke-width: 2; stroke-linecap: square"/>
    <defs>
     <path id="madb62546f2" d="M 0 3 
C 0.795609 3 1.55874 2.683901 2.12132 2.12132 
C 2.683901 1.55874 3 0.795609 3 0 
C 3 -0.795609 2.683901 -1.55874 2.12132 -2.12132 
C 1.55874 -2.683901 0.795609 -3 0 -3 
C -0.795609 -3 -1.55874 -2.683901 -2.12132 -2.12132 
C -2.683901 -1.55874 -3 -0.795609 -3 0 
C -3 0.795609 -2.683901 1.55874 -2.12132 2.12132 
C -1.55874 2.683901 -0.795609 3 0 3 
z
" style="stroke: #d62728"/>
    </defs>
    <g clip-path="url(#p66d6fdfbd5)">
     <use xlink:href="#madb62546f2" x="93.39983" y="284.582811" style="fill: #d62728; stroke: #d62728"/>
     <use xlink:href="#madb62546f2" x="127.5011" y="287.362379" style="fill: #d62728; stroke: #d62728"/>
     <use xlink:href="#madb62546f2" x="161.60237" y="286.431637" style="fill: #d62728; stroke: #d62728"/>
     <use xlink:href="#madb62546f2" x="195.70364" y="285.037666" style="fill: #d62728; stroke: #d62728"/>
     <use xlink:href="#madb62546f2" x="229.80491" y="287.11432" style="fill: #d62728; stroke: #d62728"/>
     <use xlink:href="#madb62546f2" x="263.90618" y="282.282277" style="fill: #d62728; stroke: #d62728"/>
     <use xlink:href="#madb62546f2" x="298.00745" y="283.577155" style="fill: #d62728; stroke: #d62728"/>
     <use xlink:href="#madb62546f2" x="332.10872" y="286.238334" style="fill: #d62728; stroke: #d62728"/>
     <use xlink:href="#madb62546f2" x="366.20999" y="283.759492" style="fill: #d62728; stroke: #d62728"/>
     <use xlink:href="#madb62546f2" x="400.31126" y="286.297496" style="fill: #d62728; stroke: #d62728"/>
     <use xlink:href="#madb62546f2" x="434.41253" y="287.752534" style="fill: #d62728; stroke: #d62728"/>
     <use xlink:href="#madb62546f2" x="468.5138" y="281.162939" style="fill: #d62728; stroke: #d62728"/>
     <use xlink:href="#madb62546f2" x="502.61507" y="284.020288" style="fill: #d62728; stroke: #d62728"/>
     <use xlink:href="#madb62546f2" x="570.81761" y="284.844574" style="fill: #d62728; stroke: #d62728"/>
     <use xlink:href="#madb62546f2" x="604.91888" y="286.186715" style="fill: #d62728; stroke: #d62728"/>
     <use xlink:href="#madb62546f2" x="673.12142" y="289.351632" style="fill: #d62728; stroke: #d62728"/>
    </g>
   </g>
   <g id="line2d_22">
    <path d="M 93.39983 72.672576 
L 127.5011 71.170534 
L 161.60237 171.757446 
L 195.70364 76.360371 
L 229.80491 175.593608 
L 263.90618 76.238119 
L 298.00745 75.280247 
L 332.10872 75.944887 
L 366.20999 77.695079 
L 400.31126 79.242966 
L 434.41253 75.394225 
L 468.5138 76.179059 
L 502.61507 75.413168 
L 570.81761 46.813736 
L 604.91888 74.863866 
L 673.12142 74.899226 
" clip-path="url(#p66d6fdfbd5)" style="fill: none; stroke: #9467bd; stroke-width: 2; stroke-linecap: square"/>
    <defs>
     <path id="mbb7001d63a" d="M 0 3 
C 0.795609 3 1.55874 2.683901 2.12132 2.12132 
C 2.683901 1.55874 3 0.795609 3 0 
C 3 -0.795609 2.683901 -1.55874 2.12132 -2.12132 
C 1.55874 -2.683901 0.795609 -3 0 -3 
C -0.795609 -3 -1.55874 -2.683901 -2.12132 -2.12132 
C -2.683901 -1.55874 -3 -0.795609 -3 0 
C -3 0.795609 -2.683901 1.55874 -2.12132 2.12132 
C -1.55874 2.683901 -0.795609 3 0 3 
z
" style="stroke: #9467bd"/>
    </defs>
    <g clip-path="url(#p66d6fdfbd5)">
     <use xlink:href="#mbb7001d63a" x="93.39983" y="72.672576" style="fill: #9467bd; stroke: #9467bd"/>
     <use xlink:href="#mbb7001d63a" x="127.5011" y="71.170534" style="fill: #9467bd; stroke: #9467bd"/>
     <use xlink:href="#mbb7001d63a" x="161.60237" y="171.757446" style="fill: #9467bd; stroke: #9467bd"/>
     <use xlink:href="#mbb7001d63a" x="195.70364" y="76.360371" style="fill: #9467bd; stroke: #9467bd"/>
     <use xlink:href="#mbb7001d63a" x="229.80491" y="175.593608" style="fill: #9467bd; stroke: #9467bd"/>
     <use xlink:href="#mbb7001d63a" x="263.90618" y="76.238119" style="fill: #9467bd; stroke: #9467bd"/>
     <use xlink:href="#mbb7001d63a" x="298.00745" y="75.280247" style="fill: #9467bd; stroke: #9467bd"/>
     <use xlink:href="#mbb7001d63a" x="332.10872" y="75.944887" style="fill: #9467bd; stroke: #9467bd"/>
     <use xlink:href="#mbb7001d63a" x="366.20999" y="77.695079" style="fill: #9467bd; stroke: #9467bd"/>
     <use xlink:href="#mbb7001d63a" x="400.31126" y="79.242966" style="fill: #9467bd; stroke: #9467bd"/>
     <use xlink:href="#mbb7001d63a" x="434.41253" y="75.394225" style="fill: #9467bd; stroke: #9467bd"/>
     <use xlink:href="#mbb7001d63a" x="468.5138" y="76.179059" style="fill: #9467bd; stroke: #9467bd"/>
     <use xlink:href="#mbb7001d63a" x="502.61507" y="75.413168" style="fill: #9467bd; stroke: #9467bd"/>
     <use xlink:href="#mbb7001d63a" x="570.81761" y="46.813736" style="fill: #9467bd; stroke: #9467bd"/>
     <use xlink:href="#mbb7001d63a" x="604.91888" y="74.863866" style="fill: #9467bd; stroke: #9467bd"/>
     <use xlink:href="#mbb7001d63a" x="673.12142" y="74.899226" style="fill: #9467bd; stroke: #9467bd"/>
    </g>
   </g>
   <g id="line2d_23">
    <path d="M 93.39983 288.410145 
L 127.5011 287.725399 
L 161.60237 287.42418 
L 195.70364 287.301725 
L 229.80491 289.195523 
L 263.90618 288.223477 
L 298.00745 287.868621 
L 332.10872 288.889558 
L 366.20999 288.158774 
L 400.31126 288.526643 
L 434.41253 287.650844 
L 468.5138 289.356014 
L 502.61507 285.698464 
L 570.81761 285.728186 
L 604.91888 288.513851 
L 673.12142 294.187616 
" clip-path="url(#p66d6fdfbd5)" style="fill: none; stroke: #8c564b; stroke-width: 2; stroke-linecap: square"/>
    <defs>
     <path id="maeec985a44" d="M 0 3 
C 0.795609 3 1.55874 2.683901 2.12132 2.12132 
C 2.683901 1.55874 3 0.795609 3 0 
C 3 -0.795609 2.683901 -1.55874 2.12132 -2.12132 
C 1.55874 -2.683901 0.795609 -3 0 -3 
C -0.795609 -3 -1.55874 -2.683901 -2.12132 -2.12132 
C -2.683901 -1.55874 -3 -0.795609 -3 0 
C -3 0.795609 -2.683901 1.55874 -2.12132 2.12132 
C -1.55874 2.683901 -0.795609 3 0 3 
z
" style="stroke: #8c564b"/>
    </defs>
    <g clip-path="url(#p66d6fdfbd5)">
     <use xlink:href="#maeec985a44" x="93.39983" y="288.410145" style="fill: #8c564b; stroke: #8c564b"/>
     <use xlink:href="#maeec985a44" x="127.5011" y="287.725399" style="fill: #8c564b; stroke: #8c564b"/>
     <use xlink:href="#maeec985a44" x="161.60237" y="287.42418" style="fill: #8c564b; stroke: #8c564b"/>
     <use xlink:href="#maeec985a44" x="195.70364" y="287.301725" style="fill: #8c564b; stroke: #8c564b"/>
     <use xlink:href="#maeec985a44" x="229.80491" y="289.195523" style="fill: #8c564b; stroke: #8c564b"/>
     <use xlink:href="#maeec985a44" x="263.90618" y="288.223477" style="fill: #8c564b; stroke: #8c564b"/>
     <use xlink:href="#maeec985a44" x="298.00745" y="287.868621" style="fill: #8c564b; stroke: #8c564b"/>
     <use xlink:href="#maeec985a44" x="332.10872" y="288.889558" style="fill: #8c564b; stroke: #8c564b"/>
     <use xlink:href="#maeec985a44" x="366.20999" y="288.158774" style="fill: #8c564b; stroke: #8c564b"/>
     <use xlink:href="#maeec985a44" x="400.31126" y="288.526643" style="fill: #8c564b; stroke: #8c564b"/>
     <use xlink:href="#maeec985a44" x="434.41253" y="287.650844" style="fill: #8c564b; stroke: #8c564b"/>
     <use xlink:href="#maeec985a44" x="468.5138" y="289.356014" style="fill: #8c564b; stroke: #8c564b"/>
     <use xlink:href="#maeec985a44" x="502.61507" y="285.698464" style="fill: #8c564b; stroke: #8c564b"/>
     <use xlink:href="#maeec985a44" x="570.81761" y="285.728186" style="fill: #8c564b; stroke: #8c564b"/>
     <use xlink:href="#maeec985a44" x="604.91888" y="288.513851" style="fill: #8c564b; stroke: #8c564b"/>
     <use xlink:href="#maeec985a44" x="673.12142" y="294.187616" style="fill: #8c564b; stroke: #8c564b"/>
    </g>
   </g>
   <g id="patch_3">
    <path d="M 64.41375 529.308125 
L 64.41375 23.837812 
" style="fill: none; stroke: #000000; stroke-width: 0.8; stroke-linejoin: miter; stroke-linecap: square"/>
   </g>
   <g id="patch_4">
    <path d="M 702.1075 529.308125 
L 702.1075 23.837812 
" style="fill: none; stroke: #000000; stroke-width: 0.8; stroke-linejoin: miter; stroke-linecap: square"/>
   </g>
   <g id="patch_5">
    <path d="M 64.41375 529.308125 
L 702.1075 529.308125 
" style="fill: none; stroke: #000000; stroke-width: 0.8; stroke-linejoin: miter; stroke-linecap: square"/>
   </g>
   <g id="patch_6">
    <path d="M 64.41375 23.837812 
L 702.1075 23.837812 
" style="fill: none; stroke: #000000; stroke-width: 0.8; stroke-linejoin: miter; stroke-linecap: square"/>
   </g>
   <g id="text_13">
    <text style="font: 700 14px 'DejaVu Sans', 'Bitstream Vera Sans', 'Computer Modern Sans Serif', 'Lucida Grande', 'Verdana', 'Geneva', 'Lucid', 'Arial', 'Helvetica', 'Avant Garde', sans-serif; text-anchor: middle" x="383.260625" y="17.837813" transform="rotate(-0 383.260625 17.837813)">Taskthroughput - Performance Trend</text>
   </g>
   <g id="legend_1">
    <g id="patch_7">
     <path d="M 740.992188 119.906563 
L 846.004688 119.906563 
Q 848.004688 119.906563 848.004688 117.906563 
L 848.004688 30.837813 
Q 848.004688 28.837813 846.004688 28.837813 
L 740.992188 28.837813 
Q 738.992188 28.837813 738.992188 30.837813 
L 738.992188 117.906563 
Q 738.992188 119.906563 740.992188 119.906563 
z
" style="fill: #ffffff; opacity: 0.8; stroke: #cccccc; stroke-linejoin: miter"/>
    </g>
    <g id="line2d_24">
     <path d="M 742.992188 36.93625 
L 752.992188 36.93625 
L 762.992188 36.93625 
" style="fill: none; stroke: #1f77b4; stroke-width: 2; stroke-linecap: square"/>
     <g>
      <use xlink:href="#mb6a66e36d8" x="752.992188" y="36.93625" style="fill: #1f77b4; stroke: #1f77b4"/>
     </g>
    </g>
    <g id="text_14">
     <text style="font: 10px 'DejaVu Sans', 'Bitstream Vera Sans', 'Computer Modern Sans Serif', 'Lucida Grande', 'Verdana', 'Geneva', 'Lucid', 'Arial', 'Helvetica', 'Avant Garde', sans-serif; text-anchor: start" x="770.992188" y="40.43625" transform="rotate(-0 770.992188 40.43625)">gcc-14.2 - V1</text>
    </g>
    <g id="line2d_25">
     <path d="M 742.992188 51.614375 
L 752.992188 51.614375 
L 762.992188 51.614375 
" style="fill: none; stroke: #ff7f0e; stroke-width: 2; stroke-linecap: square"/>
     <g>
      <use xlink:href="#mdd78e2cf81" x="752.992188" y="51.614375" style="fill: #ff7f0e; stroke: #ff7f0e"/>
     </g>
    </g>
    <g id="text_15">
     <text style="font: 10px 'DejaVu Sans', 'Bitstream Vera Sans', 'Computer Modern Sans Serif', 'Lucida Grande', 'Verdana', 'Geneva', 'Lucid', 'Arial', 'Helvetica', 'Avant Garde', sans-serif; text-anchor: start" x="770.992188" y="55.114375" transform="rotate(-0 770.992188 55.114375)">gcc-14.2 - V2</text>
    </g>
    <g id="line2d_26">
     <path d="M 742.992188 66.2925 
L 752.992188 66.2925 
L 762.992188 66.2925 
" style="fill: none; stroke: #2ca02c; stroke-width: 2; stroke-linecap: square"/>
     <g>
      <use xlink:href="#maec89749bc" x="752.992188" y="66.2925" style="fill: #2ca02c; stroke: #2ca02c"/>
     </g>
    </g>
    <g id="text_16">
     <text style="font: 10px 'DejaVu Sans', 'Bitstream Vera Sans', 'Computer Modern Sans Serif', 'Lucida Grande', 'Verdana', 'Geneva', 'Lucid', 'Arial', 'Helvetica', 'Avant Garde', sans-serif; text-anchor: start" x="770.992188" y="69.7925" transform="rotate(-0 770.992188 69.7925)">gcc-14.2 - TBB</text>
    </g>
    <g id="line2d_27">
     <path d="M 742.992188 80.970625 
L 752.992188 80.970625 
L 762.992188 80.970625 
" style="fill: none; stroke: #d62728; stroke-width: 2; stroke-linecap: square"/>
     <g>
      <use xlink:href="#madb62546f2" x="752.992188" y="80.970625" style="fill: #d62728; stroke: #d62728"/>
     </g>
    </g>
    <g id="text_17">
     <text style="font: 10px 'DejaVu Sans', 'Bitstream Vera Sans', 'Computer Modern Sans Serif', 'Lucida Grande', 'Verdana', 'Geneva', 'Lucid', 'Arial', 'Helvetica', 'Avant Garde', sans-serif; text-anchor: start" x="770.992188" y="84.470625" transform="rotate(-0 770.992188 84.470625)">gcc-4.2 - V1</text>
    </g>
    <g id="line2d_28">
     <path d="M 742.992188 95.64875 
L 752.992188 95.64875 
L 762.992188 95.64875 
" style="fill: none; stroke: #9467bd; stroke-width: 2; stroke-linecap: square"/>
     <g>
      <use xlink:href="#mbb7001d63a" x="752.992188" y="95.64875" style="fill: #9467bd; stroke: #9467bd"/>
     </g>
    </g>
    <g id="text_18">
     <text style="font: 10px 'DejaVu Sans', 'Bitstream Vera Sans', 'Computer Modern Sans Serif', 'Lucida Grande', 'Verdana', 'Geneva', 'Lucid', 'Arial', 'Helvetica', 'Avant Garde', sans-serif; text-anchor: start" x="770.992188" y="99.14875" transform="rotate(-0 770.992188 99.14875)">gcc-4.2 - V2</text>
    </g>
    <g id="line2d_29">
     <path d="M 742.992188 110.326875 
L 752.992188 110.326875 
L 762.992188 110.326875 
" style="fill: none; stroke: #8c564b; stroke-width: 2; stroke-linecap: square"/>
     <g>
      <use xlink:href="#maeec985a44" x="752.992188" y="110.326875" style="fill: #8c564b; stroke: #8c564b"/>
     </g>
    </g>
    <g id="text_19">
     <text style="font: 10px 'DejaVu Sans', 'Bitstream Vera Sans', 'Computer Modern Sans Serif', 'Lucida Grande', 'Verdana', 'Geneva', 'Lucid', 'Arial', 'Helvetica', 'Avant Garde', sans-serif; text-anchor: start" x="770.992188" y="113.826875" transform="rotate(-0 770.992188 113.826875)">gcc-4.2 - TBB</text>
    </g>
   </g>
  </g>
 </g>
 <defs>
  <clipPath id="p66d6fdfbd5">
   <rect x="64.41375" y="23.837813" width="637.69375" height="505.470313"/>
  </clipPath>
 </defs>
</svg>
