<?xml version="1.0" encoding="utf-8" standalone="no"?>
<!DOCTYPE svg PUBLIC "-//W3C//DTD SVG 1.1//EN"
  "http://www.w3.org/Graphics/SVG/1.1/DTD/svg11.dtd">
<svg xmlns:xlink="http://www.w3.org/1999/xlink" width="855.204687pt" height="568.8pt" viewBox="0 0 855.204687 568.8" xmlns="http://www.w3.org/2000/svg" version="1.1">
 <metadata>
  <rdf:RDF xmlns:dc="http://purl.org/dc/elements/1.1/" xmlns:cc="http://creativecommons.org/ns#" xmlns:rdf="http://www.w3.org/1999/02/22-rdf-syntax-ns#">
   <cc:Work>
    <dc:type rdf:resource="http://purl.org/dc/dcmitype/StillImage"/>
    <dc:date>2025-08-22T21:54:04.635908</dc:date>
    <dc:format>image/svg+xml</dc:format>
    <dc:creator>
     <cc:Agent>
      <dc:title>Matplotlib v3.9.4, https://matplotlib.org/</dc:title>
     </cc:Agent>
    </dc:creator>
   </cc:Work>
  </rdf:RDF>
 </metadata>
 <defs>
  <style type="text/css">*{stroke-linejoin: round; stroke-linecap: butt}</style>
 </defs>
 <g id="figure_1">
  <g id="patch_1">
   <path d="M 0 568.8 
L 855.204687 568.8 
L 855.204687 0 
L 0 0 
z
" style="fill: #ffffff"/>
  </g>
  <g id="axes_1">
   <g id="patch_2">
    <path d="M 64.41375 529.308125 
L 702.1075 529.308125 
L 702.1075 23.837812 
L 64.41375 23.837812 
z
" style="fill: #ffffff"/>
   </g>
   <g id="matplotlib.axis_1">
    <g id="xtick_1">
     <g id="line2d_1">
      <path d="M 75.28353 529.308125 
L 75.28353 23.837812 
" clip-path="url(#p1b6f04c314)" style="fill: none; stroke: #b0b0b0; stroke-opacity: 0.3; stroke-width: 0.8; stroke-linecap: square"/>
     </g>
     <g id="line2d_2">
      <defs>
       <path id="m0c2b790c75" d="M 0 0 
L 0 3.5 
" style="stroke: #000000; stroke-width: 0.8"/>
      </defs>
      <g>
       <use xlink:href="#m0c2b790c75" x="75.28353" y="529.308125" style="stroke: #000000; stroke-width: 0.8"/>
      </g>
     </g>
     <g id="text_1">
      <text style="font: 10px 'DejaVu Sans', 'Bitstream Vera Sans', 'Computer Modern Sans Serif', 'Lucida Grande', 'Verdana', 'Geneva', 'Lucid', 'Arial', 'Helvetica', 'Avant Garde', sans-serif; text-anchor: middle" x="75.28353" y="543.906563" transform="rotate(-0 75.28353 543.906563)">70</text>
     </g>
    </g>
    <g id="xtick_2">
     <g id="line2d_3">
      <path d="M 165.865028 529.308125 
L 165.865028 23.837812 
" clip-path="url(#p1b6f04c314)" style="fill: none; stroke: #b0b0b0; stroke-opacity: 0.3; stroke-width: 0.8; stroke-linecap: square"/>
     </g>
     <g id="line2d_4">
      <g>
       <use xlink:href="#m0c2b790c75" x="165.865028" y="529.308125" style="stroke: #000000; stroke-width: 0.8"/>
      </g>
     </g>
     <g id="text_2">
      <text style="font: 10px 'DejaVu Sans', 'Bitstream Vera Sans', 'Computer Modern Sans Serif', 'Lucida Grande', 'Verdana', 'Geneva', 'Lucid', 'Arial', 'Helvetica', 'Avant Garde', sans-serif; text-anchor: middle" x="165.865028" y="543.906563" transform="rotate(-0 165.865028 543.906563)">75</text>
     </g>
    </g>
    <g id="xtick_3">
     <g id="line2d_5">
      <path d="M 256.446527 529.308125 
L 256.446527 23.837812 
" clip-path="url(#p1b6f04c314)" style="fill: none; stroke: #b0b0b0; stroke-opacity: 0.3; stroke-width: 0.8; stroke-linecap: square"/>
     </g>
     <g id="line2d_6">
      <g>
       <use xlink:href="#m0c2b790c75" x="256.446527" y="529.308125" style="stroke: #000000; stroke-width: 0.8"/>
      </g>
     </g>
     <g id="text_3">
      <text style="font: 10px 'DejaVu Sans', 'Bitstream Vera Sans', 'Computer Modern Sans Serif', 'Lucida Grande', 'Verdana', 'Geneva', 'Lucid', 'Arial', 'Helvetica', 'Avant Garde', sans-serif; text-anchor: middle" x="256.446527" y="543.906563" transform="rotate(-0 256.446527 543.906563)">80</text>
     </g>
    </g>
    <g id="xtick_4">
     <g id="line2d_7">
      <path d="M 347.028026 529.308125 
L 347.028026 23.837812 
" clip-path="url(#p1b6f04c314)" style="fill: none; stroke: #b0b0b0; stroke-opacity: 0.3; stroke-width: 0.8; stroke-linecap: square"/>
     </g>
     <g id="line2d_8">
      <g>
       <use xlink:href="#m0c2b790c75" x="347.028026" y="529.308125" style="stroke: #000000; stroke-width: 0.8"/>
      </g>
     </g>
     <g id="text_4">
      <text style="font: 10px 'DejaVu Sans', 'Bitstream Vera Sans', 'Computer Modern Sans Serif', 'Lucida Grande', 'Verdana', 'Geneva', 'Lucid', 'Arial', 'Helvetica', 'Avant Garde', sans-serif; text-anchor: middle" x="347.028026" y="543.906563" transform="rotate(-0 347.028026 543.906563)">85</text>
     </g>
    </g>
    <g id="xtick_5">
     <g id="line2d_9">
      <path d="M 437.609524 529.308125 
L 437.609524 23.837812 
" clip-path="url(#p1b6f04c314)" style="fill: none; stroke: #b0b0b0; stroke-opacity: 0.3; stroke-width: 0.8; stroke-linecap: square"/>
     </g>
     <g id="line2d_10">
      <g>
       <use xlink:href="#m0c2b790c75" x="437.609524" y="529.308125" style="stroke: #000000; stroke-width: 0.8"/>
      </g>
     </g>
     <g id="text_5">
      <text style="font: 10px 'DejaVu Sans', 'Bitstream Vera Sans', 'Computer Modern Sans Serif', 'Lucida Grande', 'Verdana', 'Geneva', 'Lucid', 'Arial', 'Helvetica', 'Avant Garde', sans-serif; text-anchor: middle" x="437.609524" y="543.906563" transform="rotate(-0 437.609524 543.906563)">90</text>
     </g>
    </g>
    <g id="xtick_6">
     <g id="line2d_11">
      <path d="M 528.191023 529.308125 
L 528.191023 23.837812 
" clip-path="url(#p1b6f04c314)" style="fill: none; stroke: #b0b0b0; stroke-opacity: 0.3; stroke-width: 0.8; stroke-linecap: square"/>
     </g>
     <g id="line2d_12">
      <g>
       <use xlink:href="#m0c2b790c75" x="528.191023" y="529.308125" style="stroke: #000000; stroke-width: 0.8"/>
      </g>
     </g>
     <g id="text_6">
      <text style="font: 10px 'DejaVu Sans', 'Bitstream Vera Sans', 'Computer Modern Sans Serif', 'Lucida Grande', 'Verdana', 'Geneva', 'Lucid', 'Arial', 'Helvetica', 'Avant Garde', sans-serif; text-anchor: middle" x="528.191023" y="543.906563" transform="rotate(-0 528.191023 543.906563)">95</text>
     </g>
    </g>
    <g id="xtick_7">
     <g id="line2d_13">
      <path d="M 618.772521 529.308125 
L 618.772521 23.837812 
" clip-path="url(#p1b6f04c314)" style="fill: none; stroke: #b0b0b0; stroke-opacity: 0.3; stroke-width: 0.8; stroke-linecap: square"/>
     </g>
     <g id="line2d_14">
      <g>
       <use xlink:href="#m0c2b790c75" x="618.772521" y="529.308125" style="stroke: #000000; stroke-width: 0.8"/>
      </g>
     </g>
     <g id="text_7">
      <text style="font: 10px 'DejaVu Sans', 'Bitstream Vera Sans', 'Computer Modern Sans Serif', 'Lucida Grande', 'Verdana', 'Geneva', 'Lucid', 'Arial', 'Helvetica', 'Avant Garde', sans-serif; text-anchor: middle" x="618.772521" y="543.906563" transform="rotate(-0 618.772521 543.906563)">100</text>
     </g>
    </g>
    <g id="text_8">
     <text style="font: 12px 'DejaVu Sans', 'Bitstream Vera Sans', 'Computer Modern Sans Serif', 'Lucida Grande', 'Verdana', 'Geneva', 'Lucid', 'Arial', 'Helvetica', 'Avant Garde', sans-serif; text-anchor: middle" x="383.260625" y="559.104375" transform="rotate(-0 383.260625 559.104375)">Build Number</text>
    </g>
   </g>
   <g id="matplotlib.axis_2">
    <g id="ytick_1">
     <g id="line2d_15">
      <path d="M 64.41375 453.786204 
L 702.1075 453.786204 
" clip-path="url(#p1b6f04c314)" style="fill: none; stroke: #b0b0b0; stroke-opacity: 0.3; stroke-width: 0.8; stroke-linecap: square"/>
     </g>
     <g id="line2d_16">
      <defs>
       <path id="m2054c9525d" d="M 0 0 
L -3.5 0 
" style="stroke: #000000; stroke-width: 0.8"/>
      </defs>
      <g>
       <use xlink:href="#m2054c9525d" x="64.41375" y="453.786204" style="stroke: #000000; stroke-width: 0.8"/>
      </g>
     </g>
     <g id="text_9">
      <!-- $\mathdefault{10^{5}}$ -->
      <g transform="translate(39.81375 457.585423)">
       <text>
        <tspan style="font: 10px 'DejaVu Sans'" x="0 6.362305" y="-0.06406250000000036">10</tspan>
        <tspan style="font: 7px 'DejaVu Sans'" x="12.820312" y="-3.8921875000000004">5</tspan>
       </text>
      </g>
     </g>
    </g>
    <g id="ytick_2">
     <g id="line2d_17">
      <defs>
       <path id="m578f4920e8" d="M 0 0 
L -2 0 
" style="stroke: #000000; stroke-width: 0.6"/>
      </defs>
      <g>
       <use xlink:href="#m578f4920e8" x="64.41375" y="496.873642" style="stroke: #000000; stroke-width: 0.6"/>
      </g>
     </g>
    </g>
    <g id="ytick_3">
     <g id="line2d_18">
      <g>
       <use xlink:href="#m578f4920e8" x="64.41375" y="170.321985" style="stroke: #000000; stroke-width: 0.6"/>
      </g>
     </g>
     <g id="text_10">
      <!-- $\mathdefault{2\times10^{5}}$ -->
      <g transform="translate(22.81375 174.121204)">
       <text>
        <tspan style="font: 10px 'DejaVu Sans'" x="0 8.310547 18.637695 25" y="-0.06406250000000036">2×10</tspan>
        <tspan style="font: 7px 'DejaVu Sans'" x="31.458008" y="-3.8921875000000004">5</tspan>
       </text>
      </g>
     </g>
    </g>
    <g id="text_11">
     <text style="font: 12px 'DejaVu Sans', 'Bitstream Vera Sans', 'Computer Modern Sans Serif', 'Lucida Grande', 'Verdana', 'Geneva', 'Lucid', 'Arial', 'Helvetica', 'Avant Garde', sans-serif; text-anchor: middle" x="16.318125" y="276.572969" transform="rotate(-90 16.318125 276.572969)">Median Elapsed Time (nanoseconds)</text>
    </g>
   </g>
   <g id="line2d_19">
    <path d="M 93.39983 358.594402 
L 111.516129 83.393181 
L 129.632429 220.76105 
L 147.748729 331.184044 
L 165.865028 228.639233 
L 183.981328 318.546856 
L 202.097628 271.249317 
L 220.213928 112.928166 
L 238.330227 300.433378 
L 256.446527 288.178339 
L 274.562827 314.544957 
L 292.679126 271.473142 
L 310.795426 355.083876 
L 328.911726 289.902078 
L 347.028026 324.935545 
L 365.144325 310.91823 
L 401.376925 46.813736 
L 419.493224 298.535776 
L 437.609524 272.004793 
L 455.725824 264.733822 
L 473.842124 300.821441 
L 491.958423 315.773402 
L 510.074723 320.378392 
L 528.191023 300.841979 
L 546.307322 296.635402 
L 564.423622 282.449221 
L 600.656222 284.389929 
L 618.772521 256.561491 
L 636.888821 311.509364 
L 655.005121 291.407878 
L 673.12142 290.404492 
" clip-path="url(#p1b6f04c314)" style="fill: none; stroke: #1f77b4; stroke-width: 2; stroke-linecap: square"/>
    <defs>
     <path id="m80e6fd2744" d="M 0 3 
C 0.795609 3 1.55874 2.683901 2.12132 2.12132 
C 2.683901 1.55874 3 0.795609 3 0 
C 3 -0.795609 2.683901 -1.55874 2.12132 -2.12132 
C 1.55874 -2.683901 0.795609 -3 0 -3 
C -0.795609 -3 -1.55874 -2.683901 -2.12132 -2.12132 
C -2.683901 -1.55874 -3 -0.795609 -3 0 
C -3 0.795609 -2.683901 1.55874 -2.12132 2.12132 
C -1.55874 2.683901 -0.795609 3 0 3 
z
" style="stroke: #1f77b4"/>
    </defs>
    <g clip-path="url(#p1b6f04c314)">
     <use xlink:href="#m80e6fd2744" x="93.39983" y="358.594402" style="fill: #1f77b4; stroke: #1f77b4"/>
     <use xlink:href="#m80e6fd2744" x="111.516129" y="83.393181" style="fill: #1f77b4; stroke: #1f77b4"/>
     <use xlink:href="#m80e6fd2744" x="129.632429" y="220.76105" style="fill: #1f77b4; stroke: #1f77b4"/>
     <use xlink:href="#m80e6fd2744" x="147.748729" y="331.184044" style="fill: #1f77b4; stroke: #1f77b4"/>
     <use xlink:href="#m80e6fd2744" x="165.865028" y="228.639233" style="fill: #1f77b4; stroke: #1f77b4"/>
     <use xlink:href="#m80e6fd2744" x="183.981328" y="318.546856" style="fill: #1f77b4; stroke: #1f77b4"/>
     <use xlink:href="#m80e6fd2744" x="202.097628" y="271.249317" style="fill: #1f77b4; stroke: #1f77b4"/>
     <use xlink:href="#m80e6fd2744" x="220.213928" y="112.928166" style="fill: #1f77b4; stroke: #1f77b4"/>
     <use xlink:href="#m80e6fd2744" x="238.330227" y="300.433378" style="fill: #1f77b4; stroke: #1f77b4"/>
     <use xlink:href="#m80e6fd2744" x="256.446527" y="288.178339" style="fill: #1f77b4; stroke: #1f77b4"/>
     <use xlink:href="#m80e6fd2744" x="274.562827" y="314.544957" style="fill: #1f77b4; stroke: #1f77b4"/>
     <use xlink:href="#m80e6fd2744" x="292.679126" y="271.473142" style="fill: #1f77b4; stroke: #1f77b4"/>
     <use xlink:href="#m80e6fd2744" x="310.795426" y="355.083876" style="fill: #1f77b4; stroke: #1f77b4"/>
     <use xlink:href="#m80e6fd2744" x="328.911726" y="289.902078" style="fill: #1f77b4; stroke: #1f77b4"/>
     <use xlink:href="#m80e6fd2744" x="347.028026" y="324.935545" style="fill: #1f77b4; stroke: #1f77b4"/>
     <use xlink:href="#m80e6fd2744" x="365.144325" y="310.91823" style="fill: #1f77b4; stroke: #1f77b4"/>
     <use xlink:href="#m80e6fd2744" x="401.376925" y="46.813736" style="fill: #1f77b4; stroke: #1f77b4"/>
     <use xlink:href="#m80e6fd2744" x="419.493224" y="298.535776" style="fill: #1f77b4; stroke: #1f77b4"/>
     <use xlink:href="#m80e6fd2744" x="437.609524" y="272.004793" style="fill: #1f77b4; stroke: #1f77b4"/>
     <use xlink:href="#m80e6fd2744" x="455.725824" y="264.733822" style="fill: #1f77b4; stroke: #1f77b4"/>
     <use xlink:href="#m80e6fd2744" x="473.842124" y="300.821441" style="fill: #1f77b4; stroke: #1f77b4"/>
     <use xlink:href="#m80e6fd2744" x="491.958423" y="315.773402" style="fill: #1f77b4; stroke: #1f77b4"/>
     <use xlink:href="#m80e6fd2744" x="510.074723" y="320.378392" style="fill: #1f77b4; stroke: #1f77b4"/>
     <use xlink:href="#m80e6fd2744" x="528.191023" y="300.841979" style="fill: #1f77b4; stroke: #1f77b4"/>
     <use xlink:href="#m80e6fd2744" x="546.307322" y="296.635402" style="fill: #1f77b4; stroke: #1f77b4"/>
     <use xlink:href="#m80e6fd2744" x="564.423622" y="282.449221" style="fill: #1f77b4; stroke: #1f77b4"/>
     <use xlink:href="#m80e6fd2744" x="600.656222" y="284.389929" style="fill: #1f77b4; stroke: #1f77b4"/>
     <use xlink:href="#m80e6fd2744" x="618.772521" y="256.561491" style="fill: #1f77b4; stroke: #1f77b4"/>
     <use xlink:href="#m80e6fd2744" x="636.888821" y="311.509364" style="fill: #1f77b4; stroke: #1f77b4"/>
     <use xlink:href="#m80e6fd2744" x="655.005121" y="291.407878" style="fill: #1f77b4; stroke: #1f77b4"/>
     <use xlink:href="#m80e6fd2744" x="673.12142" y="290.404492" style="fill: #1f77b4; stroke: #1f77b4"/>
    </g>
   </g>
   <g id="line2d_20">
    <path d="M 93.39983 392.679679 
L 111.516129 386.936497 
L 129.632429 398.248244 
L 147.748729 385.343502 
L 165.865028 339.569664 
L 183.981328 404.385915 
L 202.097628 381.678582 
L 220.213928 408.819049 
L 238.330227 396.668627 
L 256.446527 335.900085 
L 274.562827 374.883943 
L 292.679126 381.8178 
L 310.795426 372.43382 
L 328.911726 408.554433 
L 347.028026 391.855324 
L 365.144325 368.569402 
L 401.376925 391.970803 
L 419.493224 383.410177 
L 437.609524 355.940819 
L 455.725824 365.503518 
L 473.842124 346.510892 
L 491.958423 416.125962 
L 510.074723 357.092056 
L 528.191023 354.857344 
L 546.307322 282.149957 
L 564.423622 279.938227 
L 600.656222 284.948124 
L 618.772521 314.650581 
L 636.888821 310.644081 
L 655.005121 291.583875 
L 673.12142 299.684166 
" clip-path="url(#p1b6f04c314)" style="fill: none; stroke: #ff7f0e; stroke-width: 2; stroke-linecap: square"/>
    <defs>
     <path id="m8d06d9c0bb" d="M 0 3 
C 0.795609 3 1.55874 2.683901 2.12132 2.12132 
C 2.683901 1.55874 3 0.795609 3 0 
C 3 -0.795609 2.683901 -1.55874 2.12132 -2.12132 
C 1.55874 -2.683901 0.795609 -3 0 -3 
C -0.795609 -3 -1.55874 -2.683901 -2.12132 -2.12132 
C -2.683901 -1.55874 -3 -0.795609 -3 0 
C -3 0.795609 -2.683901 1.55874 -2.12132 2.12132 
C -1.55874 2.683901 -0.795609 3 0 3 
z
" style="stroke: #ff7f0e"/>
    </defs>
    <g clip-path="url(#p1b6f04c314)">
     <use xlink:href="#m8d06d9c0bb" x="93.39983" y="392.679679" style="fill: #ff7f0e; stroke: #ff7f0e"/>
     <use xlink:href="#m8d06d9c0bb" x="111.516129" y="386.936497" style="fill: #ff7f0e; stroke: #ff7f0e"/>
     <use xlink:href="#m8d06d9c0bb" x="129.632429" y="398.248244" style="fill: #ff7f0e; stroke: #ff7f0e"/>
     <use xlink:href="#m8d06d9c0bb" x="147.748729" y="385.343502" style="fill: #ff7f0e; stroke: #ff7f0e"/>
     <use xlink:href="#m8d06d9c0bb" x="165.865028" y="339.569664" style="fill: #ff7f0e; stroke: #ff7f0e"/>
     <use xlink:href="#m8d06d9c0bb" x="183.981328" y="404.385915" style="fill: #ff7f0e; stroke: #ff7f0e"/>
     <use xlink:href="#m8d06d9c0bb" x="202.097628" y="381.678582" style="fill: #ff7f0e; stroke: #ff7f0e"/>
     <use xlink:href="#m8d06d9c0bb" x="220.213928" y="408.819049" style="fill: #ff7f0e; stroke: #ff7f0e"/>
     <use xlink:href="#m8d06d9c0bb" x="238.330227" y="396.668627" style="fill: #ff7f0e; stroke: #ff7f0e"/>
     <use xlink:href="#m8d06d9c0bb" x="256.446527" y="335.900085" style="fill: #ff7f0e; stroke: #ff7f0e"/>
     <use xlink:href="#m8d06d9c0bb" x="274.562827" y="374.883943" style="fill: #ff7f0e; stroke: #ff7f0e"/>
     <use xlink:href="#m8d06d9c0bb" x="292.679126" y="381.8178" style="fill: #ff7f0e; stroke: #ff7f0e"/>
     <use xlink:href="#m8d06d9c0bb" x="310.795426" y="372.43382" style="fill: #ff7f0e; stroke: #ff7f0e"/>
     <use xlink:href="#m8d06d9c0bb" x="328.911726" y="408.554433" style="fill: #ff7f0e; stroke: #ff7f0e"/>
     <use xlink:href="#m8d06d9c0bb" x="347.028026" y="391.855324" style="fill: #ff7f0e; stroke: #ff7f0e"/>
     <use xlink:href="#m8d06d9c0bb" x="365.144325" y="368.569402" style="fill: #ff7f0e; stroke: #ff7f0e"/>
     <use xlink:href="#m8d06d9c0bb" x="401.376925" y="391.970803" style="fill: #ff7f0e; stroke: #ff7f0e"/>
     <use xlink:href="#m8d06d9c0bb" x="419.493224" y="383.410177" style="fill: #ff7f0e; stroke: #ff7f0e"/>
     <use xlink:href="#m8d06d9c0bb" x="437.609524" y="355.940819" style="fill: #ff7f0e; stroke: #ff7f0e"/>
     <use xlink:href="#m8d06d9c0bb" x="455.725824" y="365.503518" style="fill: #ff7f0e; stroke: #ff7f0e"/>
     <use xlink:href="#m8d06d9c0bb" x="473.842124" y="346.510892" style="fill: #ff7f0e; stroke: #ff7f0e"/>
     <use xlink:href="#m8d06d9c0bb" x="491.958423" y="416.125962" style="fill: #ff7f0e; stroke: #ff7f0e"/>
     <use xlink:href="#m8d06d9c0bb" x="510.074723" y="357.092056" style="fill: #ff7f0e; stroke: #ff7f0e"/>
     <use xlink:href="#m8d06d9c0bb" x="528.191023" y="354.857344" style="fill: #ff7f0e; stroke: #ff7f0e"/>
     <use xlink:href="#m8d06d9c0bb" x="546.307322" y="282.149957" style="fill: #ff7f0e; stroke: #ff7f0e"/>
     <use xlink:href="#m8d06d9c0bb" x="564.423622" y="279.938227" style="fill: #ff7f0e; stroke: #ff7f0e"/>
     <use xlink:href="#m8d06d9c0bb" x="600.656222" y="284.948124" style="fill: #ff7f0e; stroke: #ff7f0e"/>
     <use xlink:href="#m8d06d9c0bb" x="618.772521" y="314.650581" style="fill: #ff7f0e; stroke: #ff7f0e"/>
     <use xlink:href="#m8d06d9c0bb" x="636.888821" y="310.644081" style="fill: #ff7f0e; stroke: #ff7f0e"/>
     <use xlink:href="#m8d06d9c0bb" x="655.005121" y="291.583875" style="fill: #ff7f0e; stroke: #ff7f0e"/>
     <use xlink:href="#m8d06d9c0bb" x="673.12142" y="299.684166" style="fill: #ff7f0e; stroke: #ff7f0e"/>
    </g>
   </g>
   <g id="line2d_21">
    <path d="M 93.39983 253.741696 
L 111.516129 131.132428 
L 129.632429 96.482045 
L 147.748729 81.256547 
L 165.865028 240.152215 
L 183.981328 77.046755 
L 202.097628 132.700907 
L 220.213928 86.931594 
L 238.330227 212.878131 
L 256.446527 259.677316 
L 274.562827 75.515958 
L 292.679126 128.781141 
L 310.795426 197.396234 
L 328.911726 112.022002 
L 347.028026 278.006773 
L 365.144325 84.085137 
L 401.376925 101.398895 
L 419.493224 202.032381 
L 437.609524 119.799375 
L 455.725824 215.475984 
L 473.842124 242.654232 
L 491.958423 83.347224 
L 510.074723 247.574723 
L 528.191023 84.118424 
L 546.307322 125.304641 
L 564.423622 130.136687 
L 600.656222 129.336619 
L 618.772521 263.001692 
L 636.888821 241.69872 
L 655.005121 101.165388 
L 673.12142 259.971521 
" clip-path="url(#p1b6f04c314)" style="fill: none; stroke: #2ca02c; stroke-width: 2; stroke-linecap: square"/>
    <defs>
     <path id="m5bfbafc34f" d="M 0 3 
C 0.795609 3 1.55874 2.683901 2.12132 2.12132 
C 2.683901 1.55874 3 0.795609 3 0 
C 3 -0.795609 2.683901 -1.55874 2.12132 -2.12132 
C 1.55874 -2.683901 0.795609 -3 0 -3 
C -0.795609 -3 -1.55874 -2.683901 -2.12132 -2.12132 
C -2.683901 -1.55874 -3 -0.795609 -3 0 
C -3 0.795609 -2.683901 1.55874 -2.12132 2.12132 
C -1.55874 2.683901 -0.795609 3 0 3 
z
" style="stroke: #2ca02c"/>
    </defs>
    <g clip-path="url(#p1b6f04c314)">
     <use xlink:href="#m5bfbafc34f" x="93.39983" y="253.741696" style="fill: #2ca02c; stroke: #2ca02c"/>
     <use xlink:href="#m5bfbafc34f" x="111.516129" y="131.132428" style="fill: #2ca02c; stroke: #2ca02c"/>
     <use xlink:href="#m5bfbafc34f" x="129.632429" y="96.482045" style="fill: #2ca02c; stroke: #2ca02c"/>
     <use xlink:href="#m5bfbafc34f" x="147.748729" y="81.256547" style="fill: #2ca02c; stroke: #2ca02c"/>
     <use xlink:href="#m5bfbafc34f" x="165.865028" y="240.152215" style="fill: #2ca02c; stroke: #2ca02c"/>
     <use xlink:href="#m5bfbafc34f" x="183.981328" y="77.046755" style="fill: #2ca02c; stroke: #2ca02c"/>
     <use xlink:href="#m5bfbafc34f" x="202.097628" y="132.700907" style="fill: #2ca02c; stroke: #2ca02c"/>
     <use xlink:href="#m5bfbafc34f" x="220.213928" y="86.931594" style="fill: #2ca02c; stroke: #2ca02c"/>
     <use xlink:href="#m5bfbafc34f" x="238.330227" y="212.878131" style="fill: #2ca02c; stroke: #2ca02c"/>
     <use xlink:href="#m5bfbafc34f" x="256.446527" y="259.677316" style="fill: #2ca02c; stroke: #2ca02c"/>
     <use xlink:href="#m5bfbafc34f" x="274.562827" y="75.515958" style="fill: #2ca02c; stroke: #2ca02c"/>
     <use xlink:href="#m5bfbafc34f" x="292.679126" y="128.781141" style="fill: #2ca02c; stroke: #2ca02c"/>
     <use xlink:href="#m5bfbafc34f" x="310.795426" y="197.396234" style="fill: #2ca02c; stroke: #2ca02c"/>
     <use xlink:href="#m5bfbafc34f" x="328.911726" y="112.022002" style="fill: #2ca02c; stroke: #2ca02c"/>
     <use xlink:href="#m5bfbafc34f" x="347.028026" y="278.006773" style="fill: #2ca02c; stroke: #2ca02c"/>
     <use xlink:href="#m5bfbafc34f" x="365.144325" y="84.085137" style="fill: #2ca02c; stroke: #2ca02c"/>
     <use xlink:href="#m5bfbafc34f" x="401.376925" y="101.398895" style="fill: #2ca02c; stroke: #2ca02c"/>
     <use xlink:href="#m5bfbafc34f" x="419.493224" y="202.032381" style="fill: #2ca02c; stroke: #2ca02c"/>
     <use xlink:href="#m5bfbafc34f" x="437.609524" y="119.799375" style="fill: #2ca02c; stroke: #2ca02c"/>
     <use xlink:href="#m5bfbafc34f" x="455.725824" y="215.475984" style="fill: #2ca02c; stroke: #2ca02c"/>
     <use xlink:href="#m5bfbafc34f" x="473.842124" y="242.654232" style="fill: #2ca02c; stroke: #2ca02c"/>
     <use xlink:href="#m5bfbafc34f" x="491.958423" y="83.347224" style="fill: #2ca02c; stroke: #2ca02c"/>
     <use xlink:href="#m5bfbafc34f" x="510.074723" y="247.574723" style="fill: #2ca02c; stroke: #2ca02c"/>
     <use xlink:href="#m5bfbafc34f" x="528.191023" y="84.118424" style="fill: #2ca02c; stroke: #2ca02c"/>
     <use xlink:href="#m5bfbafc34f" x="546.307322" y="125.304641" style="fill: #2ca02c; stroke: #2ca02c"/>
     <use xlink:href="#m5bfbafc34f" x="564.423622" y="130.136687" style="fill: #2ca02c; stroke: #2ca02c"/>
     <use xlink:href="#m5bfbafc34f" x="600.656222" y="129.336619" style="fill: #2ca02c; stroke: #2ca02c"/>
     <use xlink:href="#m5bfbafc34f" x="618.772521" y="263.001692" style="fill: #2ca02c; stroke: #2ca02c"/>
     <use xlink:href="#m5bfbafc34f" x="636.888821" y="241.69872" style="fill: #2ca02c; stroke: #2ca02c"/>
     <use xlink:href="#m5bfbafc34f" x="655.005121" y="101.165388" style="fill: #2ca02c; stroke: #2ca02c"/>
     <use xlink:href="#m5bfbafc34f" x="673.12142" y="259.971521" style="fill: #2ca02c; stroke: #2ca02c"/>
    </g>
   </g>
   <g id="line2d_22">
    <path d="M 93.39983 309.46052 
L 111.516129 294.014315 
L 129.632429 121.63556 
L 147.748729 288.422818 
L 165.865028 307.59703 
L 183.981328 296.137357 
L 202.097628 332.588837 
L 220.213928 138.456856 
L 238.330227 66.312577 
L 256.446527 283.547321 
L 274.562827 281.66026 
L 292.679126 296.901271 
L 310.795426 313.205049 
L 347.028026 344.12319 
L 365.144325 298.313978 
L 401.376925 314.901513 
L 419.493224 208.372962 
L 437.609524 117.617315 
L 455.725824 207.136064 
L 473.842124 313.390974 
L 510.074723 286.409414 
L 528.191023 279.949187 
L 546.307322 292.178976 
L 564.423622 93.79761 
L 600.656222 274.424933 
L 618.772521 298.329917 
L 636.888821 282.699717 
L 655.005121 252.928086 
L 673.12142 364.840181 
" clip-path="url(#p1b6f04c314)" style="fill: none; stroke: #d62728; stroke-width: 2; stroke-linecap: square"/>
    <defs>
     <path id="mf254d70433" d="M 0 3 
C 0.795609 3 1.55874 2.683901 2.12132 2.12132 
C 2.683901 1.55874 3 0.795609 3 0 
C 3 -0.795609 2.683901 -1.55874 2.12132 -2.12132 
C 1.55874 -2.683901 0.795609 -3 0 -3 
C -0.795609 -3 -1.55874 -2.683901 -2.12132 -2.12132 
C -2.683901 -1.55874 -3 -0.795609 -3 0 
C -3 0.795609 -2.683901 1.55874 -2.12132 2.12132 
C -1.55874 2.683901 -0.795609 3 0 3 
z
" style="stroke: #d62728"/>
    </defs>
    <g clip-path="url(#p1b6f04c314)">
     <use xlink:href="#mf254d70433" x="93.39983" y="309.46052" style="fill: #d62728; stroke: #d62728"/>
     <use xlink:href="#mf254d70433" x="111.516129" y="294.014315" style="fill: #d62728; stroke: #d62728"/>
     <use xlink:href="#mf254d70433" x="129.632429" y="121.63556" style="fill: #d62728; stroke: #d62728"/>
     <use xlink:href="#mf254d70433" x="147.748729" y="288.422818" style="fill: #d62728; stroke: #d62728"/>
     <use xlink:href="#mf254d70433" x="165.865028" y="307.59703" style="fill: #d62728; stroke: #d62728"/>
     <use xlink:href="#mf254d70433" x="183.981328" y="296.137357" style="fill: #d62728; stroke: #d62728"/>
     <use xlink:href="#mf254d70433" x="202.097628" y="332.588837" style="fill: #d62728; stroke: #d62728"/>
     <use xlink:href="#mf254d70433" x="220.213928" y="138.456856" style="fill: #d62728; stroke: #d62728"/>
     <use xlink:href="#mf254d70433" x="238.330227" y="66.312577" style="fill: #d62728; stroke: #d62728"/>
     <use xlink:href="#mf254d70433" x="256.446527" y="283.547321" style="fill: #d62728; stroke: #d62728"/>
     <use xlink:href="#mf254d70433" x="274.562827" y="281.66026" style="fill: #d62728; stroke: #d62728"/>
     <use xlink:href="#mf254d70433" x="292.679126" y="296.901271" style="fill: #d62728; stroke: #d62728"/>
     <use xlink:href="#mf254d70433" x="310.795426" y="313.205049" style="fill: #d62728; stroke: #d62728"/>
     <use xlink:href="#mf254d70433" x="347.028026" y="344.12319" style="fill: #d62728; stroke: #d62728"/>
     <use xlink:href="#mf254d70433" x="365.144325" y="298.313978" style="fill: #d62728; stroke: #d62728"/>
     <use xlink:href="#mf254d70433" x="401.376925" y="314.901513" style="fill: #d62728; stroke: #d62728"/>
     <use xlink:href="#mf254d70433" x="419.493224" y="208.372962" style="fill: #d62728; stroke: #d62728"/>
     <use xlink:href="#mf254d70433" x="437.609524" y="117.617315" style="fill: #d62728; stroke: #d62728"/>
     <use xlink:href="#mf254d70433" x="455.725824" y="207.136064" style="fill: #d62728; stroke: #d62728"/>
     <use xlink:href="#mf254d70433" x="473.842124" y="313.390974" style="fill: #d62728; stroke: #d62728"/>
     <use xlink:href="#mf254d70433" x="510.074723" y="286.409414" style="fill: #d62728; stroke: #d62728"/>
     <use xlink:href="#mf254d70433" x="528.191023" y="279.949187" style="fill: #d62728; stroke: #d62728"/>
     <use xlink:href="#mf254d70433" x="546.307322" y="292.178976" style="fill: #d62728; stroke: #d62728"/>
     <use xlink:href="#mf254d70433" x="564.423622" y="93.79761" style="fill: #d62728; stroke: #d62728"/>
     <use xlink:href="#mf254d70433" x="600.656222" y="274.424933" style="fill: #d62728; stroke: #d62728"/>
     <use xlink:href="#mf254d70433" x="618.772521" y="298.329917" style="fill: #d62728; stroke: #d62728"/>
     <use xlink:href="#mf254d70433" x="636.888821" y="282.699717" style="fill: #d62728; stroke: #d62728"/>
     <use xlink:href="#mf254d70433" x="655.005121" y="252.928086" style="fill: #d62728; stroke: #d62728"/>
     <use xlink:href="#mf254d70433" x="673.12142" y="364.840181" style="fill: #d62728; stroke: #d62728"/>
    </g>
   </g>
   <g id="line2d_23">
    <path d="M 93.39983 377.497105 
L 111.516129 387.013601 
L 129.632429 366.137566 
L 147.748729 382.326041 
L 165.865028 353.014329 
L 183.981328 376.792191 
L 202.097628 393.025678 
L 220.213928 369.58168 
L 238.330227 366.519954 
L 256.446527 376.404142 
L 274.562827 352.125109 
L 292.679126 354.006725 
L 310.795426 372.147341 
L 347.028026 416.543906 
L 365.144325 365.251985 
L 401.376925 390.812516 
L 419.493224 506.332202 
L 437.609524 317.490832 
L 455.725824 355.132603 
L 473.842124 396.66187 
L 510.074723 322.484467 
L 528.191023 364.753659 
L 546.307322 299.948817 
L 564.423622 301.488194 
L 600.656222 270.681795 
L 618.772521 298.498009 
L 636.888821 283.817652 
L 655.005121 251.129522 
L 673.12142 306.721546 
" clip-path="url(#p1b6f04c314)" style="fill: none; stroke: #9467bd; stroke-width: 2; stroke-linecap: square"/>
    <defs>
     <path id="m2d9b39eae3" d="M 0 3 
C 0.795609 3 1.55874 2.683901 2.12132 2.12132 
C 2.683901 1.55874 3 0.795609 3 0 
C 3 -0.795609 2.683901 -1.55874 2.12132 -2.12132 
C 1.55874 -2.683901 0.795609 -3 0 -3 
C -0.795609 -3 -1.55874 -2.683901 -2.12132 -2.12132 
C -2.683901 -1.55874 -3 -0.795609 -3 0 
C -3 0.795609 -2.683901 1.55874 -2.12132 2.12132 
C -1.55874 2.683901 -0.795609 3 0 3 
z
" style="stroke: #9467bd"/>
    </defs>
    <g clip-path="url(#p1b6f04c314)">
     <use xlink:href="#m2d9b39eae3" x="93.39983" y="377.497105" style="fill: #9467bd; stroke: #9467bd"/>
     <use xlink:href="#m2d9b39eae3" x="111.516129" y="387.013601" style="fill: #9467bd; stroke: #9467bd"/>
     <use xlink:href="#m2d9b39eae3" x="129.632429" y="366.137566" style="fill: #9467bd; stroke: #9467bd"/>
     <use xlink:href="#m2d9b39eae3" x="147.748729" y="382.326041" style="fill: #9467bd; stroke: #9467bd"/>
     <use xlink:href="#m2d9b39eae3" x="165.865028" y="353.014329" style="fill: #9467bd; stroke: #9467bd"/>
     <use xlink:href="#m2d9b39eae3" x="183.981328" y="376.792191" style="fill: #9467bd; stroke: #9467bd"/>
     <use xlink:href="#m2d9b39eae3" x="202.097628" y="393.025678" style="fill: #9467bd; stroke: #9467bd"/>
     <use xlink:href="#m2d9b39eae3" x="220.213928" y="369.58168" style="fill: #9467bd; stroke: #9467bd"/>
     <use xlink:href="#m2d9b39eae3" x="238.330227" y="366.519954" style="fill: #9467bd; stroke: #9467bd"/>
     <use xlink:href="#m2d9b39eae3" x="256.446527" y="376.404142" style="fill: #9467bd; stroke: #9467bd"/>
     <use xlink:href="#m2d9b39eae3" x="274.562827" y="352.125109" style="fill: #9467bd; stroke: #9467bd"/>
     <use xlink:href="#m2d9b39eae3" x="292.679126" y="354.006725" style="fill: #9467bd; stroke: #9467bd"/>
     <use xlink:href="#m2d9b39eae3" x="310.795426" y="372.147341" style="fill: #9467bd; stroke: #9467bd"/>
     <use xlink:href="#m2d9b39eae3" x="347.028026" y="416.543906" style="fill: #9467bd; stroke: #9467bd"/>
     <use xlink:href="#m2d9b39eae3" x="365.144325" y="365.251985" style="fill: #9467bd; stroke: #9467bd"/>
     <use xlink:href="#m2d9b39eae3" x="401.376925" y="390.812516" style="fill: #9467bd; stroke: #9467bd"/>
     <use xlink:href="#m2d9b39eae3" x="419.493224" y="506.332202" style="fill: #9467bd; stroke: #9467bd"/>
     <use xlink:href="#m2d9b39eae3" x="437.609524" y="317.490832" style="fill: #9467bd; stroke: #9467bd"/>
     <use xlink:href="#m2d9b39eae3" x="455.725824" y="355.132603" style="fill: #9467bd; stroke: #9467bd"/>
     <use xlink:href="#m2d9b39eae3" x="473.842124" y="396.66187" style="fill: #9467bd; stroke: #9467bd"/>
     <use xlink:href="#m2d9b39eae3" x="510.074723" y="322.484467" style="fill: #9467bd; stroke: #9467bd"/>
     <use xlink:href="#m2d9b39eae3" x="528.191023" y="364.753659" style="fill: #9467bd; stroke: #9467bd"/>
     <use xlink:href="#m2d9b39eae3" x="546.307322" y="299.948817" style="fill: #9467bd; stroke: #9467bd"/>
     <use xlink:href="#m2d9b39eae3" x="564.423622" y="301.488194" style="fill: #9467bd; stroke: #9467bd"/>
     <use xlink:href="#m2d9b39eae3" x="600.656222" y="270.681795" style="fill: #9467bd; stroke: #9467bd"/>
     <use xlink:href="#m2d9b39eae3" x="618.772521" y="298.498009" style="fill: #9467bd; stroke: #9467bd"/>
     <use xlink:href="#m2d9b39eae3" x="636.888821" y="283.817652" style="fill: #9467bd; stroke: #9467bd"/>
     <use xlink:href="#m2d9b39eae3" x="655.005121" y="251.129522" style="fill: #9467bd; stroke: #9467bd"/>
     <use xlink:href="#m2d9b39eae3" x="673.12142" y="306.721546" style="fill: #9467bd; stroke: #9467bd"/>
    </g>
   </g>
   <g id="line2d_24">
    <path d="M 93.39983 274.650768 
L 111.516129 96.666611 
L 129.632429 276.859481 
L 147.748729 257.482311 
L 165.865028 215.464338 
L 183.981328 266.852194 
L 202.097628 250.594453 
L 220.213928 207.420086 
L 238.330227 242.827291 
L 256.446527 80.166321 
L 274.562827 277.984423 
L 292.679126 104.891121 
L 310.795426 124.203671 
L 347.028026 267.439832 
L 365.144325 250.251968 
L 401.376925 230.273162 
L 419.493224 275.952272 
L 437.609524 73.774918 
L 455.725824 87.604345 
L 473.842124 121.351933 
L 510.074723 91.384657 
L 528.191023 89.741917 
L 546.307322 260.968451 
L 564.423622 108.857789 
L 600.656222 92.233004 
L 618.772521 220.457906 
L 636.888821 247.506065 
L 655.005121 111.227191 
L 673.12142 287.394321 
" clip-path="url(#p1b6f04c314)" style="fill: none; stroke: #8c564b; stroke-width: 2; stroke-linecap: square"/>
    <defs>
     <path id="m9efc5a898f" d="M 0 3 
C 0.795609 3 1.55874 2.683901 2.12132 2.12132 
C 2.683901 1.55874 3 0.795609 3 0 
C 3 -0.795609 2.683901 -1.55874 2.12132 -2.12132 
C 1.55874 -2.683901 0.795609 -3 0 -3 
C -0.795609 -3 -1.55874 -2.683901 -2.12132 -2.12132 
C -2.683901 -1.55874 -3 -0.795609 -3 0 
C -3 0.795609 -2.683901 1.55874 -2.12132 2.12132 
C -1.55874 2.683901 -0.795609 3 0 3 
z
" style="stroke: #8c564b"/>
    </defs>
    <g clip-path="url(#p1b6f04c314)">
     <use xlink:href="#m9efc5a898f" x="93.39983" y="274.650768" style="fill: #8c564b; stroke: #8c564b"/>
     <use xlink:href="#m9efc5a898f" x="111.516129" y="96.666611" style="fill: #8c564b; stroke: #8c564b"/>
     <use xlink:href="#m9efc5a898f" x="129.632429" y="276.859481" style="fill: #8c564b; stroke: #8c564b"/>
     <use xlink:href="#m9efc5a898f" x="147.748729" y="257.482311" style="fill: #8c564b; stroke: #8c564b"/>
     <use xlink:href="#m9efc5a898f" x="165.865028" y="215.464338" style="fill: #8c564b; stroke: #8c564b"/>
     <use xlink:href="#m9efc5a898f" x="183.981328" y="266.852194" style="fill: #8c564b; stroke: #8c564b"/>
     <use xlink:href="#m9efc5a898f" x="202.097628" y="250.594453" style="fill: #8c564b; stroke: #8c564b"/>
     <use xlink:href="#m9efc5a898f" x="220.213928" y="207.420086" style="fill: #8c564b; stroke: #8c564b"/>
     <use xlink:href="#m9efc5a898f" x="238.330227" y="242.827291" style="fill: #8c564b; stroke: #8c564b"/>
     <use xlink:href="#m9efc5a898f" x="256.446527" y="80.166321" style="fill: #8c564b; stroke: #8c564b"/>
     <use xlink:href="#m9efc5a898f" x="274.562827" y="277.984423" style="fill: #8c564b; stroke: #8c564b"/>
     <use xlink:href="#m9efc5a898f" x="292.679126" y="104.891121" style="fill: #8c564b; stroke: #8c564b"/>
     <use xlink:href="#m9efc5a898f" x="310.795426" y="124.203671" style="fill: #8c564b; stroke: #8c564b"/>
     <use xlink:href="#m9efc5a898f" x="347.028026" y="267.439832" style="fill: #8c564b; stroke: #8c564b"/>
     <use xlink:href="#m9efc5a898f" x="365.144325" y="250.251968" style="fill: #8c564b; stroke: #8c564b"/>
     <use xlink:href="#m9efc5a898f" x="401.376925" y="230.273162" style="fill: #8c564b; stroke: #8c564b"/>
     <use xlink:href="#m9efc5a898f" x="419.493224" y="275.952272" style="fill: #8c564b; stroke: #8c564b"/>
     <use xlink:href="#m9efc5a898f" x="437.609524" y="73.774918" style="fill: #8c564b; stroke: #8c564b"/>
     <use xlink:href="#m9efc5a898f" x="455.725824" y="87.604345" style="fill: #8c564b; stroke: #8c564b"/>
     <use xlink:href="#m9efc5a898f" x="473.842124" y="121.351933" style="fill: #8c564b; stroke: #8c564b"/>
     <use xlink:href="#m9efc5a898f" x="510.074723" y="91.384657" style="fill: #8c564b; stroke: #8c564b"/>
     <use xlink:href="#m9efc5a898f" x="528.191023" y="89.741917" style="fill: #8c564b; stroke: #8c564b"/>
     <use xlink:href="#m9efc5a898f" x="546.307322" y="260.968451" style="fill: #8c564b; stroke: #8c564b"/>
     <use xlink:href="#m9efc5a898f" x="564.423622" y="108.857789" style="fill: #8c564b; stroke: #8c564b"/>
     <use xlink:href="#m9efc5a898f" x="600.656222" y="92.233004" style="fill: #8c564b; stroke: #8c564b"/>
     <use xlink:href="#m9efc5a898f" x="618.772521" y="220.457906" style="fill: #8c564b; stroke: #8c564b"/>
     <use xlink:href="#m9efc5a898f" x="636.888821" y="247.506065" style="fill: #8c564b; stroke: #8c564b"/>
     <use xlink:href="#m9efc5a898f" x="655.005121" y="111.227191" style="fill: #8c564b; stroke: #8c564b"/>
     <use xlink:href="#m9efc5a898f" x="673.12142" y="287.394321" style="fill: #8c564b; stroke: #8c564b"/>
    </g>
   </g>
   <g id="patch_3">
    <path d="M 64.41375 529.308125 
L 64.41375 23.837812 
" style="fill: none; stroke: #000000; stroke-width: 0.8; stroke-linejoin: miter; stroke-linecap: square"/>
   </g>
   <g id="patch_4">
    <path d="M 702.1075 529.308125 
L 702.1075 23.837812 
" style="fill: none; stroke: #000000; stroke-width: 0.8; stroke-linejoin: miter; stroke-linecap: square"/>
   </g>
   <g id="patch_5">
    <path d="M 64.41375 529.308125 
L 702.1075 529.308125 
" style="fill: none; stroke: #000000; stroke-width: 0.8; stroke-linejoin: miter; stroke-linecap: square"/>
   </g>
   <g id="patch_6">
    <path d="M 64.41375 23.837812 
L 702.1075 23.837812 
" style="fill: none; stroke: #000000; stroke-width: 0.8; stroke-linejoin: miter; stroke-linecap: square"/>
   </g>
   <g id="text_12">
    <text style="font: 700 14px 'DejaVu Sans', 'Bitstream Vera Sans', 'Computer Modern Sans Serif', 'Lucida Grande', 'Verdana', 'Geneva', 'Lucid', 'Arial', 'Helvetica', 'Avant Garde', sans-serif; text-anchor: middle" x="383.260625" y="17.837813" transform="rotate(-0 383.260625 17.837813)">Tasksubmission - Performance Trend</text>
   </g>
   <g id="legend_1">
    <g id="patch_7">
     <path d="M 740.992188 119.906563 
L 846.004688 119.906563 
Q 848.004688 119.906563 848.004688 117.906563 
L 848.004688 30.837813 
Q 848.004688 28.837813 846.004688 28.837813 
L 740.992188 28.837813 
Q 738.992188 28.837813 738.992188 30.837813 
L 738.992188 117.906563 
Q 738.992188 119.906563 740.992188 119.906563 
z
" style="fill: #ffffff; opacity: 0.8; stroke: #cccccc; stroke-linejoin: miter"/>
    </g>
    <g id="line2d_25">
     <path d="M 742.992188 36.93625 
L 752.992188 36.93625 
L 762.992188 36.93625 
" style="fill: none; stroke: #1f77b4; stroke-width: 2; stroke-linecap: square"/>
     <g>
      <use xlink:href="#m80e6fd2744" x="752.992188" y="36.93625" style="fill: #1f77b4; stroke: #1f77b4"/>
     </g>
    </g>
    <g id="text_13">
     <text style="font: 10px 'DejaVu Sans', 'Bitstream Vera Sans', 'Computer Modern Sans Serif', 'Lucida Grande', 'Verdana', 'Geneva', 'Lucid', 'Arial', 'Helvetica', 'Avant Garde', sans-serif; text-anchor: start" x="770.992188" y="40.43625" transform="rotate(-0 770.992188 40.43625)">gcc-14.2 - V1</text>
    </g>
    <g id="line2d_26">
     <path d="M 742.992188 51.614375 
L 752.992188 51.614375 
L 762.992188 51.614375 
" style="fill: none; stroke: #ff7f0e; stroke-width: 2; stroke-linecap: square"/>
     <g>
      <use xlink:href="#m8d06d9c0bb" x="752.992188" y="51.614375" style="fill: #ff7f0e; stroke: #ff7f0e"/>
     </g>
    </g>
    <g id="text_14">
     <text style="font: 10px 'DejaVu Sans', 'Bitstream Vera Sans', 'Computer Modern Sans Serif', 'Lucida Grande', 'Verdana', 'Geneva', 'Lucid', 'Arial', 'Helvetica', 'Avant Garde', sans-serif; text-anchor: start" x="770.992188" y="55.114375" transform="rotate(-0 770.992188 55.114375)">gcc-14.2 - V2</text>
    </g>
    <g id="line2d_27">
     <path d="M 742.992188 66.2925 
L 752.992188 66.2925 
L 762.992188 66.2925 
" style="fill: none; stroke: #2ca02c; stroke-width: 2; stroke-linecap: square"/>
     <g>
      <use xlink:href="#m5bfbafc34f" x="752.992188" y="66.2925" style="fill: #2ca02c; stroke: #2ca02c"/>
     </g>
    </g>
    <g id="text_15">
     <text style="font: 10px 'DejaVu Sans', 'Bitstream Vera Sans', 'Computer Modern Sans Serif', 'Lucida Grande', 'Verdana', 'Geneva', 'Lucid', 'Arial', 'Helvetica', 'Avant Garde', sans-serif; text-anchor: start" x="770.992188" y="69.7925" transform="rotate(-0 770.992188 69.7925)">gcc-14.2 - TBB</text>
    </g>
    <g id="line2d_28">
     <path d="M 742.992188 80.970625 
L 752.992188 80.970625 
L 762.992188 80.970625 
" style="fill: none; stroke: #d62728; stroke-width: 2; stroke-linecap: square"/>
     <g>
      <use xlink:href="#mf254d70433" x="752.992188" y="80.970625" style="fill: #d62728; stroke: #d62728"/>
     </g>
    </g>
    <g id="text_16">
     <text style="font: 10px 'DejaVu Sans', 'Bitstream Vera Sans', 'Computer Modern Sans Serif', 'Lucida Grande', 'Verdana', 'Geneva', 'Lucid', 'Arial', 'Helvetica', 'Avant Garde', sans-serif; text-anchor: start" x="770.992188" y="84.470625" transform="rotate(-0 770.992188 84.470625)">gcc-4.2 - V1</text>
    </g>
    <g id="line2d_29">
     <path d="M 742.992188 95.64875 
L 752.992188 95.64875 
L 762.992188 95.64875 
" style="fill: none; stroke: #9467bd; stroke-width: 2; stroke-linecap: square"/>
     <g>
      <use xlink:href="#m2d9b39eae3" x="752.992188" y="95.64875" style="fill: #9467bd; stroke: #9467bd"/>
     </g>
    </g>
    <g id="text_17">
     <text style="font: 10px 'DejaVu Sans', 'Bitstream Vera Sans', 'Computer Modern Sans Serif', 'Lucida Grande', 'Verdana', 'Geneva', 'Lucid', 'Arial', 'Helvetica', 'Avant Garde', sans-serif; text-anchor: start" x="770.992188" y="99.14875" transform="rotate(-0 770.992188 99.14875)">gcc-4.2 - V2</text>
    </g>
    <g id="line2d_30">
     <path d="M 742.992188 110.326875 
L 752.992188 110.326875 
L 762.992188 110.326875 
" style="fill: none; stroke: #8c564b; stroke-width: 2; stroke-linecap: square"/>
     <g>
      <use xlink:href="#m9efc5a898f" x="752.992188" y="110.326875" style="fill: #8c564b; stroke: #8c564b"/>
     </g>
    </g>
    <g id="text_18">
     <text style="font: 10px 'DejaVu Sans', 'Bitstream Vera Sans', 'Computer Modern Sans Serif', 'Lucida Grande', 'Verdana', 'Geneva', 'Lucid', 'Arial', 'Helvetica', 'Avant Garde', sans-serif; text-anchor: start" x="770.992188" y="113.826875" transform="rotate(-0 770.992188 113.826875)">gcc-4.2 - TBB</text>
    </g>
   </g>
  </g>
 </g>
 <defs>
  <clipPath id="p1b6f04c314">
   <rect x="64.41375" y="23.837813" width="637.69375" height="505.470313"/>
  </clipPath>
 </defs>
</svg>
