<?xml version="1.0" encoding="utf-8" standalone="no"?>
<!DOCTYPE svg PUBLIC "-//W3C//DTD SVG 1.1//EN"
  "http://www.w3.org/Graphics/SVG/1.1/DTD/svg11.dtd">
<svg xmlns:xlink="http://www.w3.org/1999/xlink" width="855.536016pt" height="568.8pt" viewBox="0 0 855.536016 568.8" xmlns="http://www.w3.org/2000/svg" version="1.1">
 <metadata>
  <rdf:RDF xmlns:dc="http://purl.org/dc/elements/1.1/" xmlns:cc="http://creativecommons.org/ns#" xmlns:rdf="http://www.w3.org/1999/02/22-rdf-syntax-ns#">
   <cc:Work>
    <dc:type rdf:resource="http://purl.org/dc/dcmitype/StillImage"/>
    <dc:date>2026-06-06T05:47:05.295302</dc:date>
    <dc:format>image/svg+xml</dc:format>
    <dc:creator>
     <cc:Agent>
      <dc:title>Matplotlib v3.9.4, https://matplotlib.org/</dc:title>
     </cc:Agent>
    </dc:creator>
   </cc:Work>
  </rdf:RDF>
 </metadata>
 <defs>
  <style type="text/css">*{stroke-linejoin: round; stroke-linecap: butt}</style>
 </defs>
 <g id="figure_1">
  <g id="patch_1">
   <path d="M 0 568.8 
L 855.536016 568.8 
L 855.536016 0 
L 0 0 
z
" style="fill: #ffffff"/>
  </g>
  <g id="axes_1">
   <g id="patch_2">
    <path d="M 64.41375 529.308125 
L 708.734063 529.308125 
L 708.734063 23.837812 
L 64.41375 23.837812 
z
" style="fill: #ffffff"/>
   </g>
   <g id="matplotlib.axis_1">
    <g id="xtick_1">
     <g id="line2d_1">
      <path d="M 83.424796 529.308125 
L 83.424796 23.837812 
" clip-path="url(#p9c5b28887e)" style="fill: none; stroke: #b0b0b0; stroke-opacity: 0.3; stroke-width: 0.8; stroke-linecap: square"/>
     </g>
     <g id="line2d_2">
      <defs>
       <path id="md3b2b235dc" d="M 0 0 
L 0 3.5 
" style="stroke: #000000; stroke-width: 0.8"/>
      </defs>
      <g>
       <use xlink:href="#md3b2b235dc" x="83.424796" y="529.308125" style="stroke: #000000; stroke-width: 0.8"/>
      </g>
     </g>
     <g id="text_1">
      <text style="font: 10px 'DejaVu Sans', 'Bitstream Vera Sans', 'Computer Modern Sans Serif', 'Lucida Grande', 'Verdana', 'Geneva', 'Lucid', 'Arial', 'Helvetica', 'Avant Garde', sans-serif; text-anchor: middle" x="83.424796" y="543.906563" transform="rotate(-0 83.424796 543.906563)">70</text>
     </g>
    </g>
    <g id="xtick_2">
     <g id="line2d_3">
      <path d="M 186.187206 529.308125 
L 186.187206 23.837812 
" clip-path="url(#p9c5b28887e)" style="fill: none; stroke: #b0b0b0; stroke-opacity: 0.3; stroke-width: 0.8; stroke-linecap: square"/>
     </g>
     <g id="line2d_4">
      <g>
       <use xlink:href="#md3b2b235dc" x="186.187206" y="529.308125" style="stroke: #000000; stroke-width: 0.8"/>
      </g>
     </g>
     <g id="text_2">
      <text style="font: 10px 'DejaVu Sans', 'Bitstream Vera Sans', 'Computer Modern Sans Serif', 'Lucida Grande', 'Verdana', 'Geneva', 'Lucid', 'Arial', 'Helvetica', 'Avant Garde', sans-serif; text-anchor: middle" x="186.187206" y="543.906563" transform="rotate(-0 186.187206 543.906563)">80</text>
     </g>
    </g>
    <g id="xtick_3">
     <g id="line2d_5">
      <path d="M 288.949616 529.308125 
L 288.949616 23.837812 
" clip-path="url(#p9c5b28887e)" style="fill: none; stroke: #b0b0b0; stroke-opacity: 0.3; stroke-width: 0.8; stroke-linecap: square"/>
     </g>
     <g id="line2d_6">
      <g>
       <use xlink:href="#md3b2b235dc" x="288.949616" y="529.308125" style="stroke: #000000; stroke-width: 0.8"/>
      </g>
     </g>
     <g id="text_3">
      <text style="font: 10px 'DejaVu Sans', 'Bitstream Vera Sans', 'Computer Modern Sans Serif', 'Lucida Grande', 'Verdana', 'Geneva', 'Lucid', 'Arial', 'Helvetica', 'Avant Garde', sans-serif; text-anchor: middle" x="288.949616" y="543.906563" transform="rotate(-0 288.949616 543.906563)">90</text>
     </g>
    </g>
    <g id="xtick_4">
     <g id="line2d_7">
      <path d="M 391.712027 529.308125 
L 391.712027 23.837812 
" clip-path="url(#p9c5b28887e)" style="fill: none; stroke: #b0b0b0; stroke-opacity: 0.3; stroke-width: 0.8; stroke-linecap: square"/>
     </g>
     <g id="line2d_8">
      <g>
       <use xlink:href="#md3b2b235dc" x="391.712027" y="529.308125" style="stroke: #000000; stroke-width: 0.8"/>
      </g>
     </g>
     <g id="text_4">
      <text style="font: 10px 'DejaVu Sans', 'Bitstream Vera Sans', 'Computer Modern Sans Serif', 'Lucida Grande', 'Verdana', 'Geneva', 'Lucid', 'Arial', 'Helvetica', 'Avant Garde', sans-serif; text-anchor: middle" x="391.712027" y="543.906563" transform="rotate(-0 391.712027 543.906563)">100</text>
     </g>
    </g>
    <g id="xtick_5">
     <g id="line2d_9">
      <path d="M 494.474437 529.308125 
L 494.474437 23.837812 
" clip-path="url(#p9c5b28887e)" style="fill: none; stroke: #b0b0b0; stroke-opacity: 0.3; stroke-width: 0.8; stroke-linecap: square"/>
     </g>
     <g id="line2d_10">
      <g>
       <use xlink:href="#md3b2b235dc" x="494.474437" y="529.308125" style="stroke: #000000; stroke-width: 0.8"/>
      </g>
     </g>
     <g id="text_5">
      <text style="font: 10px 'DejaVu Sans', 'Bitstream Vera Sans', 'Computer Modern Sans Serif', 'Lucida Grande', 'Verdana', 'Geneva', 'Lucid', 'Arial', 'Helvetica', 'Avant Garde', sans-serif; text-anchor: middle" x="494.474437" y="543.906563" transform="rotate(-0 494.474437 543.906563)">110</text>
     </g>
    </g>
    <g id="xtick_6">
     <g id="line2d_11">
      <path d="M 597.236847 529.308125 
L 597.236847 23.837812 
" clip-path="url(#p9c5b28887e)" style="fill: none; stroke: #b0b0b0; stroke-opacity: 0.3; stroke-width: 0.8; stroke-linecap: square"/>
     </g>
     <g id="line2d_12">
      <g>
       <use xlink:href="#md3b2b235dc" x="597.236847" y="529.308125" style="stroke: #000000; stroke-width: 0.8"/>
      </g>
     </g>
     <g id="text_6">
      <text style="font: 10px 'DejaVu Sans', 'Bitstream Vera Sans', 'Computer Modern Sans Serif', 'Lucida Grande', 'Verdana', 'Geneva', 'Lucid', 'Arial', 'Helvetica', 'Avant Garde', sans-serif; text-anchor: middle" x="597.236847" y="543.906563" transform="rotate(-0 597.236847 543.906563)">120</text>
     </g>
    </g>
    <g id="xtick_7">
     <g id="line2d_13">
      <path d="M 699.999258 529.308125 
L 699.999258 23.837812 
" clip-path="url(#p9c5b28887e)" style="fill: none; stroke: #b0b0b0; stroke-opacity: 0.3; stroke-width: 0.8; stroke-linecap: square"/>
     </g>
     <g id="line2d_14">
      <g>
       <use xlink:href="#md3b2b235dc" x="699.999258" y="529.308125" style="stroke: #000000; stroke-width: 0.8"/>
      </g>
     </g>
     <g id="text_7">
      <text style="font: 10px 'DejaVu Sans', 'Bitstream Vera Sans', 'Computer Modern Sans Serif', 'Lucida Grande', 'Verdana', 'Geneva', 'Lucid', 'Arial', 'Helvetica', 'Avant Garde', sans-serif; text-anchor: middle" x="699.999258" y="543.906563" transform="rotate(-0 699.999258 543.906563)">130</text>
     </g>
    </g>
    <g id="text_8">
     <text style="font: 12px 'DejaVu Sans', 'Bitstream Vera Sans', 'Computer Modern Sans Serif', 'Lucida Grande', 'Verdana', 'Geneva', 'Lucid', 'Arial', 'Helvetica', 'Avant Garde', sans-serif; text-anchor: middle" x="386.573906" y="559.104375" transform="rotate(-0 386.573906 559.104375)">Build Number</text>
    </g>
   </g>
   <g id="matplotlib.axis_2">
    <g id="ytick_1">
     <g id="line2d_15">
      <path d="M 64.41375 331.639082 
L 708.734063 331.639082 
" clip-path="url(#p9c5b28887e)" style="fill: none; stroke: #b0b0b0; stroke-opacity: 0.3; stroke-width: 0.8; stroke-linecap: square"/>
     </g>
     <g id="line2d_16">
      <defs>
       <path id="m6e3abf8164" d="M 0 0 
L -3.5 0 
" style="stroke: #000000; stroke-width: 0.8"/>
      </defs>
      <g>
       <use xlink:href="#m6e3abf8164" x="64.41375" y="331.639082" style="stroke: #000000; stroke-width: 0.8"/>
      </g>
     </g>
     <g id="text_9">
      <!-- $\mathdefault{10^{5}}$ -->
      <g transform="translate(39.81375 335.4383)">
       <text>
        <tspan style="font: 10px 'DejaVu Sans'" x="0 6.362305" y="-0.06406250000000036">10</tspan>
        <tspan style="font: 7px 'DejaVu Sans'" x="12.820312" y="-3.8921875000000004">5</tspan>
       </text>
      </g>
     </g>
    </g>
    <g id="ytick_2">
     <g id="line2d_17">
      <defs>
       <path id="m16ce32a7bb" d="M 0 0 
L -2 0 
" style="stroke: #000000; stroke-width: 0.6"/>
      </defs>
      <g>
       <use xlink:href="#m16ce32a7bb" x="64.41375" y="501.475469" style="stroke: #000000; stroke-width: 0.6"/>
      </g>
     </g>
     <g id="text_10">
      <!-- $\mathdefault{6\times10^{4}}$ -->
      <g transform="translate(22.81375 505.274688)">
       <text>
        <tspan style="font: 10px 'DejaVu Sans'" x="0 8.310547 18.637695 25" y="-0.06406250000000036">6×10</tspan>
        <tspan style="font: 7px 'DejaVu Sans'" x="31.458008" y="-3.8921875000000004">4</tspan>
       </text>
      </g>
     </g>
    </g>
    <g id="ytick_3">
     <g id="line2d_18">
      <g>
       <use xlink:href="#m16ce32a7bb" x="64.41375" y="450.224331" style="stroke: #000000; stroke-width: 0.6"/>
      </g>
     </g>
    </g>
    <g id="ytick_4">
     <g id="line2d_19">
      <g>
       <use xlink:href="#m16ce32a7bb" x="64.41375" y="405.828576" style="stroke: #000000; stroke-width: 0.6"/>
      </g>
     </g>
    </g>
    <g id="ytick_5">
     <g id="line2d_20">
      <g>
       <use xlink:href="#m16ce32a7bb" x="64.41375" y="366.668744" style="stroke: #000000; stroke-width: 0.6"/>
      </g>
     </g>
    </g>
    <g id="ytick_6">
     <g id="line2d_21">
      <g>
       <use xlink:href="#m16ce32a7bb" x="64.41375" y="101.185463" style="stroke: #000000; stroke-width: 0.6"/>
      </g>
     </g>
     <g id="text_11">
      <!-- $\mathdefault{2\times10^{5}}$ -->
      <g transform="translate(22.81375 104.984682)">
       <text>
        <tspan style="font: 10px 'DejaVu Sans'" x="0 8.310547 18.637695 25" y="-0.06406250000000036">2×10</tspan>
        <tspan style="font: 7px 'DejaVu Sans'" x="31.458008" y="-3.8921875000000004">5</tspan>
       </text>
      </g>
     </g>
    </g>
    <g id="text_12">
     <text style="font: 12px 'DejaVu Sans', 'Bitstream Vera Sans', 'Computer Modern Sans Serif', 'Lucida Grande', 'Verdana', 'Geneva', 'Lucid', 'Arial', 'Helvetica', 'Avant Garde', sans-serif; text-anchor: middle" x="16.318125" y="276.572969" transform="rotate(-90 16.318125 276.572969)">Median Elapsed Time (nanoseconds)</text>
    </g>
   </g>
   <g id="line2d_22">
    <path d="M 93.701037 46.813736 
L 103.977278 190.654228 
L 114.253519 202.136776 
L 124.52976 225.277189 
L 134.806001 247.425072 
L 145.082242 196.173602 
L 155.358483 215.939026 
L 165.634724 214.884044 
L 175.910965 211.877229 
L 186.187206 196.235768 
L 196.463447 253.139783 
L 206.739688 180.577108 
L 217.015929 48.530405 
L 227.29217 154.181565 
L 237.568411 253.134795 
L 247.844652 278.042791 
L 268.397134 248.604003 
L 278.673375 241.866822 
L 288.949616 241.475185 
L 299.225858 281.396203 
L 309.502099 281.391058 
L 319.77834 242.27671 
L 330.054581 243.649978 
L 340.330822 281.411353 
L 350.607063 242.206836 
L 360.883304 250.25245 
L 381.435786 107.184399 
L 391.712027 248.060813 
L 401.988268 47.119624 
L 412.264509 281.085065 
L 422.54075 235.331388 
L 432.816991 282.268884 
L 443.093232 241.470115 
L 453.369473 240.155071 
L 473.921955 281.376766 
L 484.198196 280.555743 
L 494.474437 241.647611 
L 504.750678 280.767085 
L 515.026919 243.164497 
L 535.579401 277.392302 
L 545.855642 241.322611 
L 556.131883 280.204658 
L 566.408124 264.852479 
L 576.684365 240.424559 
L 586.960606 280.903203 
L 597.236847 280.921755 
L 607.513088 282.297545 
L 617.789329 229.081633 
L 628.06557 272.231485 
L 638.341811 196.392673 
L 658.894294 275.239607 
L 669.170535 238.873307 
L 679.446776 230.875912 
" clip-path="url(#p9c5b28887e)" style="fill: none; stroke: #1f77b4; stroke-width: 2; stroke-linecap: square"/>
    <defs>
     <path id="m5295c77cec" d="M 0 3 
C 0.795609 3 1.55874 2.683901 2.12132 2.12132 
C 2.683901 1.55874 3 0.795609 3 0 
C 3 -0.795609 2.683901 -1.55874 2.12132 -2.12132 
C 1.55874 -2.683901 0.795609 -3 0 -3 
C -0.795609 -3 -1.55874 -2.683901 -2.12132 -2.12132 
C -2.683901 -1.55874 -3 -0.795609 -3 0 
C -3 0.795609 -2.683901 1.55874 -2.12132 2.12132 
C -1.55874 2.683901 -0.795609 3 0 3 
z
" style="stroke: #1f77b4"/>
    </defs>
    <g clip-path="url(#p9c5b28887e)">
     <use xlink:href="#m5295c77cec" x="93.701037" y="46.813736" style="fill: #1f77b4; stroke: #1f77b4"/>
     <use xlink:href="#m5295c77cec" x="103.977278" y="190.654228" style="fill: #1f77b4; stroke: #1f77b4"/>
     <use xlink:href="#m5295c77cec" x="114.253519" y="202.136776" style="fill: #1f77b4; stroke: #1f77b4"/>
     <use xlink:href="#m5295c77cec" x="124.52976" y="225.277189" style="fill: #1f77b4; stroke: #1f77b4"/>
     <use xlink:href="#m5295c77cec" x="134.806001" y="247.425072" style="fill: #1f77b4; stroke: #1f77b4"/>
     <use xlink:href="#m5295c77cec" x="145.082242" y="196.173602" style="fill: #1f77b4; stroke: #1f77b4"/>
     <use xlink:href="#m5295c77cec" x="155.358483" y="215.939026" style="fill: #1f77b4; stroke: #1f77b4"/>
     <use xlink:href="#m5295c77cec" x="165.634724" y="214.884044" style="fill: #1f77b4; stroke: #1f77b4"/>
     <use xlink:href="#m5295c77cec" x="175.910965" y="211.877229" style="fill: #1f77b4; stroke: #1f77b4"/>
     <use xlink:href="#m5295c77cec" x="186.187206" y="196.235768" style="fill: #1f77b4; stroke: #1f77b4"/>
     <use xlink:href="#m5295c77cec" x="196.463447" y="253.139783" style="fill: #1f77b4; stroke: #1f77b4"/>
     <use xlink:href="#m5295c77cec" x="206.739688" y="180.577108" style="fill: #1f77b4; stroke: #1f77b4"/>
     <use xlink:href="#m5295c77cec" x="217.015929" y="48.530405" style="fill: #1f77b4; stroke: #1f77b4"/>
     <use xlink:href="#m5295c77cec" x="227.29217" y="154.181565" style="fill: #1f77b4; stroke: #1f77b4"/>
     <use xlink:href="#m5295c77cec" x="237.568411" y="253.134795" style="fill: #1f77b4; stroke: #1f77b4"/>
     <use xlink:href="#m5295c77cec" x="247.844652" y="278.042791" style="fill: #1f77b4; stroke: #1f77b4"/>
     <use xlink:href="#m5295c77cec" x="268.397134" y="248.604003" style="fill: #1f77b4; stroke: #1f77b4"/>
     <use xlink:href="#m5295c77cec" x="278.673375" y="241.866822" style="fill: #1f77b4; stroke: #1f77b4"/>
     <use xlink:href="#m5295c77cec" x="288.949616" y="241.475185" style="fill: #1f77b4; stroke: #1f77b4"/>
     <use xlink:href="#m5295c77cec" x="299.225858" y="281.396203" style="fill: #1f77b4; stroke: #1f77b4"/>
     <use xlink:href="#m5295c77cec" x="309.502099" y="281.391058" style="fill: #1f77b4; stroke: #1f77b4"/>
     <use xlink:href="#m5295c77cec" x="319.77834" y="242.27671" style="fill: #1f77b4; stroke: #1f77b4"/>
     <use xlink:href="#m5295c77cec" x="330.054581" y="243.649978" style="fill: #1f77b4; stroke: #1f77b4"/>
     <use xlink:href="#m5295c77cec" x="340.330822" y="281.411353" style="fill: #1f77b4; stroke: #1f77b4"/>
     <use xlink:href="#m5295c77cec" x="350.607063" y="242.206836" style="fill: #1f77b4; stroke: #1f77b4"/>
     <use xlink:href="#m5295c77cec" x="360.883304" y="250.25245" style="fill: #1f77b4; stroke: #1f77b4"/>
     <use xlink:href="#m5295c77cec" x="381.435786" y="107.184399" style="fill: #1f77b4; stroke: #1f77b4"/>
     <use xlink:href="#m5295c77cec" x="391.712027" y="248.060813" style="fill: #1f77b4; stroke: #1f77b4"/>
     <use xlink:href="#m5295c77cec" x="401.988268" y="47.119624" style="fill: #1f77b4; stroke: #1f77b4"/>
     <use xlink:href="#m5295c77cec" x="412.264509" y="281.085065" style="fill: #1f77b4; stroke: #1f77b4"/>
     <use xlink:href="#m5295c77cec" x="422.54075" y="235.331388" style="fill: #1f77b4; stroke: #1f77b4"/>
     <use xlink:href="#m5295c77cec" x="432.816991" y="282.268884" style="fill: #1f77b4; stroke: #1f77b4"/>
     <use xlink:href="#m5295c77cec" x="443.093232" y="241.470115" style="fill: #1f77b4; stroke: #1f77b4"/>
     <use xlink:href="#m5295c77cec" x="453.369473" y="240.155071" style="fill: #1f77b4; stroke: #1f77b4"/>
     <use xlink:href="#m5295c77cec" x="473.921955" y="281.376766" style="fill: #1f77b4; stroke: #1f77b4"/>
     <use xlink:href="#m5295c77cec" x="484.198196" y="280.555743" style="fill: #1f77b4; stroke: #1f77b4"/>
     <use xlink:href="#m5295c77cec" x="494.474437" y="241.647611" style="fill: #1f77b4; stroke: #1f77b4"/>
     <use xlink:href="#m5295c77cec" x="504.750678" y="280.767085" style="fill: #1f77b4; stroke: #1f77b4"/>
     <use xlink:href="#m5295c77cec" x="515.026919" y="243.164497" style="fill: #1f77b4; stroke: #1f77b4"/>
     <use xlink:href="#m5295c77cec" x="535.579401" y="277.392302" style="fill: #1f77b4; stroke: #1f77b4"/>
     <use xlink:href="#m5295c77cec" x="545.855642" y="241.322611" style="fill: #1f77b4; stroke: #1f77b4"/>
     <use xlink:href="#m5295c77cec" x="556.131883" y="280.204658" style="fill: #1f77b4; stroke: #1f77b4"/>
     <use xlink:href="#m5295c77cec" x="566.408124" y="264.852479" style="fill: #1f77b4; stroke: #1f77b4"/>
     <use xlink:href="#m5295c77cec" x="576.684365" y="240.424559" style="fill: #1f77b4; stroke: #1f77b4"/>
     <use xlink:href="#m5295c77cec" x="586.960606" y="280.903203" style="fill: #1f77b4; stroke: #1f77b4"/>
     <use xlink:href="#m5295c77cec" x="597.236847" y="280.921755" style="fill: #1f77b4; stroke: #1f77b4"/>
     <use xlink:href="#m5295c77cec" x="607.513088" y="282.297545" style="fill: #1f77b4; stroke: #1f77b4"/>
     <use xlink:href="#m5295c77cec" x="617.789329" y="229.081633" style="fill: #1f77b4; stroke: #1f77b4"/>
     <use xlink:href="#m5295c77cec" x="628.06557" y="272.231485" style="fill: #1f77b4; stroke: #1f77b4"/>
     <use xlink:href="#m5295c77cec" x="638.341811" y="196.392673" style="fill: #1f77b4; stroke: #1f77b4"/>
     <use xlink:href="#m5295c77cec" x="658.894294" y="275.239607" style="fill: #1f77b4; stroke: #1f77b4"/>
     <use xlink:href="#m5295c77cec" x="669.170535" y="238.873307" style="fill: #1f77b4; stroke: #1f77b4"/>
     <use xlink:href="#m5295c77cec" x="679.446776" y="230.875912" style="fill: #1f77b4; stroke: #1f77b4"/>
    </g>
   </g>
   <g id="line2d_23">
    <path d="M 93.701037 239.172254 
L 103.977278 242.045419 
L 114.253519 242.269849 
L 124.52976 244.263708 
L 134.806001 237.485771 
L 145.082242 242.744099 
L 155.358483 237.730328 
L 165.634724 245.893034 
L 175.910965 239.30061 
L 186.187206 245.687327 
L 196.463447 240.344968 
L 206.739688 243.450753 
L 217.015929 247.049521 
L 227.29217 242.901909 
L 237.568411 247.581247 
L 247.844652 237.390603 
L 268.397134 242.288907 
L 278.673375 239.730101 
L 288.949616 242.620449 
L 299.225858 245.56354 
L 309.502099 238.085205 
L 319.77834 235.343084 
L 330.054581 235.845682 
L 340.330822 233.903757 
L 350.607063 278.456899 
L 360.883304 245.660884 
L 381.435786 277.607497 
L 391.712027 279.494504 
L 401.988268 278.551686 
L 412.264509 277.970011 
L 422.54075 276.925504 
L 432.816991 278.483108 
L 443.093232 277.395409 
L 453.369473 277.655341 
L 473.921955 276.385864 
L 484.198196 279.178609 
L 494.474437 275.482133 
L 504.750678 275.520886 
L 515.026919 275.754343 
L 535.579401 275.468093 
L 545.855642 272.987865 
L 556.131883 277.065489 
L 566.408124 276.834141 
L 576.684365 277.981108 
L 586.960606 276.11398 
L 597.236847 277.799521 
L 607.513088 278.147508 
L 617.789329 227.589831 
L 628.06557 271.43271 
L 638.341811 276.800228 
L 658.894294 271.75653 
L 669.170535 273.540439 
L 679.446776 242.055704 
" clip-path="url(#p9c5b28887e)" style="fill: none; stroke: #ff7f0e; stroke-width: 2; stroke-linecap: square"/>
    <defs>
     <path id="m8615eaf250" d="M 0 3 
C 0.795609 3 1.55874 2.683901 2.12132 2.12132 
C 2.683901 1.55874 3 0.795609 3 0 
C 3 -0.795609 2.683901 -1.55874 2.12132 -2.12132 
C 1.55874 -2.683901 0.795609 -3 0 -3 
C -0.795609 -3 -1.55874 -2.683901 -2.12132 -2.12132 
C -2.683901 -1.55874 -3 -0.795609 -3 0 
C -3 0.795609 -2.683901 1.55874 -2.12132 2.12132 
C -1.55874 2.683901 -0.795609 3 0 3 
z
" style="stroke: #ff7f0e"/>
    </defs>
    <g clip-path="url(#p9c5b28887e)">
     <use xlink:href="#m8615eaf250" x="93.701037" y="239.172254" style="fill: #ff7f0e; stroke: #ff7f0e"/>
     <use xlink:href="#m8615eaf250" x="103.977278" y="242.045419" style="fill: #ff7f0e; stroke: #ff7f0e"/>
     <use xlink:href="#m8615eaf250" x="114.253519" y="242.269849" style="fill: #ff7f0e; stroke: #ff7f0e"/>
     <use xlink:href="#m8615eaf250" x="124.52976" y="244.263708" style="fill: #ff7f0e; stroke: #ff7f0e"/>
     <use xlink:href="#m8615eaf250" x="134.806001" y="237.485771" style="fill: #ff7f0e; stroke: #ff7f0e"/>
     <use xlink:href="#m8615eaf250" x="145.082242" y="242.744099" style="fill: #ff7f0e; stroke: #ff7f0e"/>
     <use xlink:href="#m8615eaf250" x="155.358483" y="237.730328" style="fill: #ff7f0e; stroke: #ff7f0e"/>
     <use xlink:href="#m8615eaf250" x="165.634724" y="245.893034" style="fill: #ff7f0e; stroke: #ff7f0e"/>
     <use xlink:href="#m8615eaf250" x="175.910965" y="239.30061" style="fill: #ff7f0e; stroke: #ff7f0e"/>
     <use xlink:href="#m8615eaf250" x="186.187206" y="245.687327" style="fill: #ff7f0e; stroke: #ff7f0e"/>
     <use xlink:href="#m8615eaf250" x="196.463447" y="240.344968" style="fill: #ff7f0e; stroke: #ff7f0e"/>
     <use xlink:href="#m8615eaf250" x="206.739688" y="243.450753" style="fill: #ff7f0e; stroke: #ff7f0e"/>
     <use xlink:href="#m8615eaf250" x="217.015929" y="247.049521" style="fill: #ff7f0e; stroke: #ff7f0e"/>
     <use xlink:href="#m8615eaf250" x="227.29217" y="242.901909" style="fill: #ff7f0e; stroke: #ff7f0e"/>
     <use xlink:href="#m8615eaf250" x="237.568411" y="247.581247" style="fill: #ff7f0e; stroke: #ff7f0e"/>
     <use xlink:href="#m8615eaf250" x="247.844652" y="237.390603" style="fill: #ff7f0e; stroke: #ff7f0e"/>
     <use xlink:href="#m8615eaf250" x="268.397134" y="242.288907" style="fill: #ff7f0e; stroke: #ff7f0e"/>
     <use xlink:href="#m8615eaf250" x="278.673375" y="239.730101" style="fill: #ff7f0e; stroke: #ff7f0e"/>
     <use xlink:href="#m8615eaf250" x="288.949616" y="242.620449" style="fill: #ff7f0e; stroke: #ff7f0e"/>
     <use xlink:href="#m8615eaf250" x="299.225858" y="245.56354" style="fill: #ff7f0e; stroke: #ff7f0e"/>
     <use xlink:href="#m8615eaf250" x="309.502099" y="238.085205" style="fill: #ff7f0e; stroke: #ff7f0e"/>
     <use xlink:href="#m8615eaf250" x="319.77834" y="235.343084" style="fill: #ff7f0e; stroke: #ff7f0e"/>
     <use xlink:href="#m8615eaf250" x="330.054581" y="235.845682" style="fill: #ff7f0e; stroke: #ff7f0e"/>
     <use xlink:href="#m8615eaf250" x="340.330822" y="233.903757" style="fill: #ff7f0e; stroke: #ff7f0e"/>
     <use xlink:href="#m8615eaf250" x="350.607063" y="278.456899" style="fill: #ff7f0e; stroke: #ff7f0e"/>
     <use xlink:href="#m8615eaf250" x="360.883304" y="245.660884" style="fill: #ff7f0e; stroke: #ff7f0e"/>
     <use xlink:href="#m8615eaf250" x="381.435786" y="277.607497" style="fill: #ff7f0e; stroke: #ff7f0e"/>
     <use xlink:href="#m8615eaf250" x="391.712027" y="279.494504" style="fill: #ff7f0e; stroke: #ff7f0e"/>
     <use xlink:href="#m8615eaf250" x="401.988268" y="278.551686" style="fill: #ff7f0e; stroke: #ff7f0e"/>
     <use xlink:href="#m8615eaf250" x="412.264509" y="277.970011" style="fill: #ff7f0e; stroke: #ff7f0e"/>
     <use xlink:href="#m8615eaf250" x="422.54075" y="276.925504" style="fill: #ff7f0e; stroke: #ff7f0e"/>
     <use xlink:href="#m8615eaf250" x="432.816991" y="278.483108" style="fill: #ff7f0e; stroke: #ff7f0e"/>
     <use xlink:href="#m8615eaf250" x="443.093232" y="277.395409" style="fill: #ff7f0e; stroke: #ff7f0e"/>
     <use xlink:href="#m8615eaf250" x="453.369473" y="277.655341" style="fill: #ff7f0e; stroke: #ff7f0e"/>
     <use xlink:href="#m8615eaf250" x="473.921955" y="276.385864" style="fill: #ff7f0e; stroke: #ff7f0e"/>
     <use xlink:href="#m8615eaf250" x="484.198196" y="279.178609" style="fill: #ff7f0e; stroke: #ff7f0e"/>
     <use xlink:href="#m8615eaf250" x="494.474437" y="275.482133" style="fill: #ff7f0e; stroke: #ff7f0e"/>
     <use xlink:href="#m8615eaf250" x="504.750678" y="275.520886" style="fill: #ff7f0e; stroke: #ff7f0e"/>
     <use xlink:href="#m8615eaf250" x="515.026919" y="275.754343" style="fill: #ff7f0e; stroke: #ff7f0e"/>
     <use xlink:href="#m8615eaf250" x="535.579401" y="275.468093" style="fill: #ff7f0e; stroke: #ff7f0e"/>
     <use xlink:href="#m8615eaf250" x="545.855642" y="272.987865" style="fill: #ff7f0e; stroke: #ff7f0e"/>
     <use xlink:href="#m8615eaf250" x="556.131883" y="277.065489" style="fill: #ff7f0e; stroke: #ff7f0e"/>
     <use xlink:href="#m8615eaf250" x="566.408124" y="276.834141" style="fill: #ff7f0e; stroke: #ff7f0e"/>
     <use xlink:href="#m8615eaf250" x="576.684365" y="277.981108" style="fill: #ff7f0e; stroke: #ff7f0e"/>
     <use xlink:href="#m8615eaf250" x="586.960606" y="276.11398" style="fill: #ff7f0e; stroke: #ff7f0e"/>
     <use xlink:href="#m8615eaf250" x="597.236847" y="277.799521" style="fill: #ff7f0e; stroke: #ff7f0e"/>
     <use xlink:href="#m8615eaf250" x="607.513088" y="278.147508" style="fill: #ff7f0e; stroke: #ff7f0e"/>
     <use xlink:href="#m8615eaf250" x="617.789329" y="227.589831" style="fill: #ff7f0e; stroke: #ff7f0e"/>
     <use xlink:href="#m8615eaf250" x="628.06557" y="271.43271" style="fill: #ff7f0e; stroke: #ff7f0e"/>
     <use xlink:href="#m8615eaf250" x="638.341811" y="276.800228" style="fill: #ff7f0e; stroke: #ff7f0e"/>
     <use xlink:href="#m8615eaf250" x="658.894294" y="271.75653" style="fill: #ff7f0e; stroke: #ff7f0e"/>
     <use xlink:href="#m8615eaf250" x="669.170535" y="273.540439" style="fill: #ff7f0e; stroke: #ff7f0e"/>
     <use xlink:href="#m8615eaf250" x="679.446776" y="242.055704" style="fill: #ff7f0e; stroke: #ff7f0e"/>
    </g>
   </g>
   <g id="line2d_24">
    <path d="M 93.701037 411.158661 
L 103.977278 493.305818 
L 114.253519 411.576165 
L 124.52976 482.532541 
L 134.806001 484.50861 
L 145.082242 490.833342 
L 155.358483 427.629709 
L 165.634724 257.875693 
L 175.910965 499.945182 
L 186.187206 498.207293 
L 196.463447 444.617905 
L 206.739688 412.55548 
L 217.015929 468.874738 
L 237.568411 486.329147 
L 247.844652 428.983705 
L 268.397134 502.092227 
L 278.673375 257.307053 
L 288.949616 482.182024 
L 299.225858 477.759579 
L 309.502099 497.390728 
L 330.054581 499.108937 
L 340.330822 456.959145 
L 350.607063 455.753021 
L 360.883304 475.873023 
L 381.435786 476.850327 
L 391.712027 496.134971 
L 401.988268 501.654222 
L 412.264509 497.749989 
L 422.54075 483.833725 
L 432.816991 258.407161 
L 443.093232 476.386987 
L 453.369473 499.447478 
L 473.921955 474.56679 
L 484.198196 498.331872 
L 494.474437 474.944665 
L 515.026919 475.476155 
L 545.855642 476.31557 
L 556.131883 262.452612 
L 566.408124 264.290175 
L 576.684365 475.60224 
L 586.960606 476.74379 
L 597.236847 482.918536 
L 607.513088 478.622016 
L 617.789329 497.129741 
L 628.06557 475.482817 
L 638.341811 483.986217 
L 658.894294 473.856178 
L 669.170535 506.332202 
L 679.446776 494.81773 
" clip-path="url(#p9c5b28887e)" style="fill: none; stroke: #2ca02c; stroke-width: 2; stroke-linecap: square"/>
    <defs>
     <path id="m4bd4dc7337" d="M 0 3 
C 0.795609 3 1.55874 2.683901 2.12132 2.12132 
C 2.683901 1.55874 3 0.795609 3 0 
C 3 -0.795609 2.683901 -1.55874 2.12132 -2.12132 
C 1.55874 -2.683901 0.795609 -3 0 -3 
C -0.795609 -3 -1.55874 -2.683901 -2.12132 -2.12132 
C -2.683901 -1.55874 -3 -0.795609 -3 0 
C -3 0.795609 -2.683901 1.55874 -2.12132 2.12132 
C -1.55874 2.683901 -0.795609 3 0 3 
z
" style="stroke: #2ca02c"/>
    </defs>
    <g clip-path="url(#p9c5b28887e)">
     <use xlink:href="#m4bd4dc7337" x="93.701037" y="411.158661" style="fill: #2ca02c; stroke: #2ca02c"/>
     <use xlink:href="#m4bd4dc7337" x="103.977278" y="493.305818" style="fill: #2ca02c; stroke: #2ca02c"/>
     <use xlink:href="#m4bd4dc7337" x="114.253519" y="411.576165" style="fill: #2ca02c; stroke: #2ca02c"/>
     <use xlink:href="#m4bd4dc7337" x="124.52976" y="482.532541" style="fill: #2ca02c; stroke: #2ca02c"/>
     <use xlink:href="#m4bd4dc7337" x="134.806001" y="484.50861" style="fill: #2ca02c; stroke: #2ca02c"/>
     <use xlink:href="#m4bd4dc7337" x="145.082242" y="490.833342" style="fill: #2ca02c; stroke: #2ca02c"/>
     <use xlink:href="#m4bd4dc7337" x="155.358483" y="427.629709" style="fill: #2ca02c; stroke: #2ca02c"/>
     <use xlink:href="#m4bd4dc7337" x="165.634724" y="257.875693" style="fill: #2ca02c; stroke: #2ca02c"/>
     <use xlink:href="#m4bd4dc7337" x="175.910965" y="499.945182" style="fill: #2ca02c; stroke: #2ca02c"/>
     <use xlink:href="#m4bd4dc7337" x="186.187206" y="498.207293" style="fill: #2ca02c; stroke: #2ca02c"/>
     <use xlink:href="#m4bd4dc7337" x="196.463447" y="444.617905" style="fill: #2ca02c; stroke: #2ca02c"/>
     <use xlink:href="#m4bd4dc7337" x="206.739688" y="412.55548" style="fill: #2ca02c; stroke: #2ca02c"/>
     <use xlink:href="#m4bd4dc7337" x="217.015929" y="468.874738" style="fill: #2ca02c; stroke: #2ca02c"/>
     <use xlink:href="#m4bd4dc7337" x="237.568411" y="486.329147" style="fill: #2ca02c; stroke: #2ca02c"/>
     <use xlink:href="#m4bd4dc7337" x="247.844652" y="428.983705" style="fill: #2ca02c; stroke: #2ca02c"/>
     <use xlink:href="#m4bd4dc7337" x="268.397134" y="502.092227" style="fill: #2ca02c; stroke: #2ca02c"/>
     <use xlink:href="#m4bd4dc7337" x="278.673375" y="257.307053" style="fill: #2ca02c; stroke: #2ca02c"/>
     <use xlink:href="#m4bd4dc7337" x="288.949616" y="482.182024" style="fill: #2ca02c; stroke: #2ca02c"/>
     <use xlink:href="#m4bd4dc7337" x="299.225858" y="477.759579" style="fill: #2ca02c; stroke: #2ca02c"/>
     <use xlink:href="#m4bd4dc7337" x="309.502099" y="497.390728" style="fill: #2ca02c; stroke: #2ca02c"/>
     <use xlink:href="#m4bd4dc7337" x="330.054581" y="499.108937" style="fill: #2ca02c; stroke: #2ca02c"/>
     <use xlink:href="#m4bd4dc7337" x="340.330822" y="456.959145" style="fill: #2ca02c; stroke: #2ca02c"/>
     <use xlink:href="#m4bd4dc7337" x="350.607063" y="455.753021" style="fill: #2ca02c; stroke: #2ca02c"/>
     <use xlink:href="#m4bd4dc7337" x="360.883304" y="475.873023" style="fill: #2ca02c; stroke: #2ca02c"/>
     <use xlink:href="#m4bd4dc7337" x="381.435786" y="476.850327" style="fill: #2ca02c; stroke: #2ca02c"/>
     <use xlink:href="#m4bd4dc7337" x="391.712027" y="496.134971" style="fill: #2ca02c; stroke: #2ca02c"/>
     <use xlink:href="#m4bd4dc7337" x="401.988268" y="501.654222" style="fill: #2ca02c; stroke: #2ca02c"/>
     <use xlink:href="#m4bd4dc7337" x="412.264509" y="497.749989" style="fill: #2ca02c; stroke: #2ca02c"/>
     <use xlink:href="#m4bd4dc7337" x="422.54075" y="483.833725" style="fill: #2ca02c; stroke: #2ca02c"/>
     <use xlink:href="#m4bd4dc7337" x="432.816991" y="258.407161" style="fill: #2ca02c; stroke: #2ca02c"/>
     <use xlink:href="#m4bd4dc7337" x="443.093232" y="476.386987" style="fill: #2ca02c; stroke: #2ca02c"/>
     <use xlink:href="#m4bd4dc7337" x="453.369473" y="499.447478" style="fill: #2ca02c; stroke: #2ca02c"/>
     <use xlink:href="#m4bd4dc7337" x="473.921955" y="474.56679" style="fill: #2ca02c; stroke: #2ca02c"/>
     <use xlink:href="#m4bd4dc7337" x="484.198196" y="498.331872" style="fill: #2ca02c; stroke: #2ca02c"/>
     <use xlink:href="#m4bd4dc7337" x="494.474437" y="474.944665" style="fill: #2ca02c; stroke: #2ca02c"/>
     <use xlink:href="#m4bd4dc7337" x="515.026919" y="475.476155" style="fill: #2ca02c; stroke: #2ca02c"/>
     <use xlink:href="#m4bd4dc7337" x="545.855642" y="476.31557" style="fill: #2ca02c; stroke: #2ca02c"/>
     <use xlink:href="#m4bd4dc7337" x="556.131883" y="262.452612" style="fill: #2ca02c; stroke: #2ca02c"/>
     <use xlink:href="#m4bd4dc7337" x="566.408124" y="264.290175" style="fill: #2ca02c; stroke: #2ca02c"/>
     <use xlink:href="#m4bd4dc7337" x="576.684365" y="475.60224" style="fill: #2ca02c; stroke: #2ca02c"/>
     <use xlink:href="#m4bd4dc7337" x="586.960606" y="476.74379" style="fill: #2ca02c; stroke: #2ca02c"/>
     <use xlink:href="#m4bd4dc7337" x="597.236847" y="482.918536" style="fill: #2ca02c; stroke: #2ca02c"/>
     <use xlink:href="#m4bd4dc7337" x="607.513088" y="478.622016" style="fill: #2ca02c; stroke: #2ca02c"/>
     <use xlink:href="#m4bd4dc7337" x="617.789329" y="497.129741" style="fill: #2ca02c; stroke: #2ca02c"/>
     <use xlink:href="#m4bd4dc7337" x="628.06557" y="475.482817" style="fill: #2ca02c; stroke: #2ca02c"/>
     <use xlink:href="#m4bd4dc7337" x="638.341811" y="483.986217" style="fill: #2ca02c; stroke: #2ca02c"/>
     <use xlink:href="#m4bd4dc7337" x="658.894294" y="473.856178" style="fill: #2ca02c; stroke: #2ca02c"/>
     <use xlink:href="#m4bd4dc7337" x="669.170535" y="506.332202" style="fill: #2ca02c; stroke: #2ca02c"/>
     <use xlink:href="#m4bd4dc7337" x="679.446776" y="494.81773" style="fill: #2ca02c; stroke: #2ca02c"/>
    </g>
   </g>
   <g id="line2d_25">
    <path d="M 93.701037 456.054988 
L 103.977278 451.37621 
L 114.253519 455.613485 
L 124.52976 453.490975 
L 134.806001 456.757439 
L 145.082242 463.11651 
L 155.358483 455.010626 
L 165.634724 453.394099 
L 175.910965 456.18923 
L 186.187206 453.9508 
L 196.463447 458.059618 
L 206.739688 461.847056 
L 217.015929 418.408363 
L 237.568411 453.623866 
L 247.844652 450.346826 
L 268.397134 484.849466 
L 278.673375 454.410301 
L 288.949616 452.392946 
L 299.225858 457.306359 
L 309.502099 459.390944 
L 330.054581 455.280571 
L 340.330822 453.668494 
L 350.607063 474.810135 
L 360.883304 476.716527 
L 381.435786 462.179721 
L 391.712027 474.488098 
L 401.988268 475.916122 
L 412.264509 476.444543 
L 422.54075 476.533466 
L 432.816991 477.292355 
L 443.093232 475.210304 
L 453.369473 477.638505 
L 473.921955 475.967438 
L 484.198196 473.185758 
L 494.474437 475.540217 
L 515.026919 474.374182 
L 545.855642 475.658699 
L 556.131883 469.107918 
L 566.408124 474.927782 
L 576.684365 478.283864 
L 586.960606 473.890856 
L 597.236847 476.651725 
L 607.513088 474.992761 
L 617.789329 479.376598 
L 628.06557 476.418334 
L 638.341811 472.863256 
L 658.894294 479.690433 
L 669.170535 455.806631 
L 679.446776 466.220299 
" clip-path="url(#p9c5b28887e)" style="fill: none; stroke: #d62728; stroke-width: 2; stroke-linecap: square"/>
    <defs>
     <path id="m8f1c880df1" d="M 0 3 
C 0.795609 3 1.55874 2.683901 2.12132 2.12132 
C 2.683901 1.55874 3 0.795609 3 0 
C 3 -0.795609 2.683901 -1.55874 2.12132 -2.12132 
C 1.55874 -2.683901 0.795609 -3 0 -3 
C -0.795609 -3 -1.55874 -2.683901 -2.12132 -2.12132 
C -2.683901 -1.55874 -3 -0.795609 -3 0 
C -3 0.795609 -2.683901 1.55874 -2.12132 2.12132 
C -1.55874 2.683901 -0.795609 3 0 3 
z
" style="stroke: #d62728"/>
    </defs>
    <g clip-path="url(#p9c5b28887e)">
     <use xlink:href="#m8f1c880df1" x="93.701037" y="456.054988" style="fill: #d62728; stroke: #d62728"/>
     <use xlink:href="#m8f1c880df1" x="103.977278" y="451.37621" style="fill: #d62728; stroke: #d62728"/>
     <use xlink:href="#m8f1c880df1" x="114.253519" y="455.613485" style="fill: #d62728; stroke: #d62728"/>
     <use xlink:href="#m8f1c880df1" x="124.52976" y="453.490975" style="fill: #d62728; stroke: #d62728"/>
     <use xlink:href="#m8f1c880df1" x="134.806001" y="456.757439" style="fill: #d62728; stroke: #d62728"/>
     <use xlink:href="#m8f1c880df1" x="145.082242" y="463.11651" style="fill: #d62728; stroke: #d62728"/>
     <use xlink:href="#m8f1c880df1" x="155.358483" y="455.010626" style="fill: #d62728; stroke: #d62728"/>
     <use xlink:href="#m8f1c880df1" x="165.634724" y="453.394099" style="fill: #d62728; stroke: #d62728"/>
     <use xlink:href="#m8f1c880df1" x="175.910965" y="456.18923" style="fill: #d62728; stroke: #d62728"/>
     <use xlink:href="#m8f1c880df1" x="186.187206" y="453.9508" style="fill: #d62728; stroke: #d62728"/>
     <use xlink:href="#m8f1c880df1" x="196.463447" y="458.059618" style="fill: #d62728; stroke: #d62728"/>
     <use xlink:href="#m8f1c880df1" x="206.739688" y="461.847056" style="fill: #d62728; stroke: #d62728"/>
     <use xlink:href="#m8f1c880df1" x="217.015929" y="418.408363" style="fill: #d62728; stroke: #d62728"/>
     <use xlink:href="#m8f1c880df1" x="237.568411" y="453.623866" style="fill: #d62728; stroke: #d62728"/>
     <use xlink:href="#m8f1c880df1" x="247.844652" y="450.346826" style="fill: #d62728; stroke: #d62728"/>
     <use xlink:href="#m8f1c880df1" x="268.397134" y="484.849466" style="fill: #d62728; stroke: #d62728"/>
     <use xlink:href="#m8f1c880df1" x="278.673375" y="454.410301" style="fill: #d62728; stroke: #d62728"/>
     <use xlink:href="#m8f1c880df1" x="288.949616" y="452.392946" style="fill: #d62728; stroke: #d62728"/>
     <use xlink:href="#m8f1c880df1" x="299.225858" y="457.306359" style="fill: #d62728; stroke: #d62728"/>
     <use xlink:href="#m8f1c880df1" x="309.502099" y="459.390944" style="fill: #d62728; stroke: #d62728"/>
     <use xlink:href="#m8f1c880df1" x="330.054581" y="455.280571" style="fill: #d62728; stroke: #d62728"/>
     <use xlink:href="#m8f1c880df1" x="340.330822" y="453.668494" style="fill: #d62728; stroke: #d62728"/>
     <use xlink:href="#m8f1c880df1" x="350.607063" y="474.810135" style="fill: #d62728; stroke: #d62728"/>
     <use xlink:href="#m8f1c880df1" x="360.883304" y="476.716527" style="fill: #d62728; stroke: #d62728"/>
     <use xlink:href="#m8f1c880df1" x="381.435786" y="462.179721" style="fill: #d62728; stroke: #d62728"/>
     <use xlink:href="#m8f1c880df1" x="391.712027" y="474.488098" style="fill: #d62728; stroke: #d62728"/>
     <use xlink:href="#m8f1c880df1" x="401.988268" y="475.916122" style="fill: #d62728; stroke: #d62728"/>
     <use xlink:href="#m8f1c880df1" x="412.264509" y="476.444543" style="fill: #d62728; stroke: #d62728"/>
     <use xlink:href="#m8f1c880df1" x="422.54075" y="476.533466" style="fill: #d62728; stroke: #d62728"/>
     <use xlink:href="#m8f1c880df1" x="432.816991" y="477.292355" style="fill: #d62728; stroke: #d62728"/>
     <use xlink:href="#m8f1c880df1" x="443.093232" y="475.210304" style="fill: #d62728; stroke: #d62728"/>
     <use xlink:href="#m8f1c880df1" x="453.369473" y="477.638505" style="fill: #d62728; stroke: #d62728"/>
     <use xlink:href="#m8f1c880df1" x="473.921955" y="475.967438" style="fill: #d62728; stroke: #d62728"/>
     <use xlink:href="#m8f1c880df1" x="484.198196" y="473.185758" style="fill: #d62728; stroke: #d62728"/>
     <use xlink:href="#m8f1c880df1" x="494.474437" y="475.540217" style="fill: #d62728; stroke: #d62728"/>
     <use xlink:href="#m8f1c880df1" x="515.026919" y="474.374182" style="fill: #d62728; stroke: #d62728"/>
     <use xlink:href="#m8f1c880df1" x="545.855642" y="475.658699" style="fill: #d62728; stroke: #d62728"/>
     <use xlink:href="#m8f1c880df1" x="556.131883" y="469.107918" style="fill: #d62728; stroke: #d62728"/>
     <use xlink:href="#m8f1c880df1" x="566.408124" y="474.927782" style="fill: #d62728; stroke: #d62728"/>
     <use xlink:href="#m8f1c880df1" x="576.684365" y="478.283864" style="fill: #d62728; stroke: #d62728"/>
     <use xlink:href="#m8f1c880df1" x="586.960606" y="473.890856" style="fill: #d62728; stroke: #d62728"/>
     <use xlink:href="#m8f1c880df1" x="597.236847" y="476.651725" style="fill: #d62728; stroke: #d62728"/>
     <use xlink:href="#m8f1c880df1" x="607.513088" y="474.992761" style="fill: #d62728; stroke: #d62728"/>
     <use xlink:href="#m8f1c880df1" x="617.789329" y="479.376598" style="fill: #d62728; stroke: #d62728"/>
     <use xlink:href="#m8f1c880df1" x="628.06557" y="476.418334" style="fill: #d62728; stroke: #d62728"/>
     <use xlink:href="#m8f1c880df1" x="638.341811" y="472.863256" style="fill: #d62728; stroke: #d62728"/>
     <use xlink:href="#m8f1c880df1" x="658.894294" y="479.690433" style="fill: #d62728; stroke: #d62728"/>
     <use xlink:href="#m8f1c880df1" x="669.170535" y="455.806631" style="fill: #d62728; stroke: #d62728"/>
     <use xlink:href="#m8f1c880df1" x="679.446776" y="466.220299" style="fill: #d62728; stroke: #d62728"/>
    </g>
   </g>
   <g id="patch_3">
    <path d="M 64.41375 529.308125 
L 64.41375 23.837812 
" style="fill: none; stroke: #000000; stroke-width: 0.8; stroke-linejoin: miter; stroke-linecap: square"/>
   </g>
   <g id="patch_4">
    <path d="M 708.734063 529.308125 
L 708.734063 23.837812 
" style="fill: none; stroke: #000000; stroke-width: 0.8; stroke-linejoin: miter; stroke-linecap: square"/>
   </g>
   <g id="patch_5">
    <path d="M 64.41375 529.308125 
L 708.734062 529.308125 
" style="fill: none; stroke: #000000; stroke-width: 0.8; stroke-linejoin: miter; stroke-linecap: square"/>
   </g>
   <g id="patch_6">
    <path d="M 64.41375 23.837812 
L 708.734062 23.837812 
" style="fill: none; stroke: #000000; stroke-width: 0.8; stroke-linejoin: miter; stroke-linecap: square"/>
   </g>
   <g id="text_13">
    <text style="font: 700 14px 'DejaVu Sans', 'Bitstream Vera Sans', 'Computer Modern Sans Serif', 'Lucida Grande', 'Verdana', 'Geneva', 'Lucid', 'Arial', 'Helvetica', 'Avant Garde', sans-serif; text-anchor: middle" x="386.573906" y="17.837813" transform="rotate(-0 386.573906 17.837813)">Nestedparallel - Performance Trend</text>
   </g>
   <g id="legend_1">
    <g id="patch_7">
     <path d="M 747.950078 90.550312 
L 846.336016 90.550312 
Q 848.336016 90.550312 848.336016 88.550312 
L 848.336016 30.837812 
Q 848.336016 28.837812 846.336016 28.837812 
L 747.950078 28.837812 
Q 745.950078 28.837812 745.950078 30.837812 
L 745.950078 88.550312 
Q 745.950078 90.550312 747.950078 90.550312 
z
" style="fill: #ffffff; opacity: 0.8; stroke: #cccccc; stroke-linejoin: miter"/>
    </g>
    <g id="line2d_26">
     <path d="M 749.950078 36.93625 
L 759.950078 36.93625 
L 769.950078 36.93625 
" style="fill: none; stroke: #1f77b4; stroke-width: 2; stroke-linecap: square"/>
     <g>
      <use xlink:href="#m5295c77cec" x="759.950078" y="36.93625" style="fill: #1f77b4; stroke: #1f77b4"/>
     </g>
    </g>
    <g id="text_14">
     <text style="font: 10px 'DejaVu Sans', 'Bitstream Vera Sans', 'Computer Modern Sans Serif', 'Lucida Grande', 'Verdana', 'Geneva', 'Lucid', 'Arial', 'Helvetica', 'Avant Garde', sans-serif; text-anchor: start" x="777.950078" y="40.43625" transform="rotate(-0 777.950078 40.43625)">gcc-14.2 - V1</text>
    </g>
    <g id="line2d_27">
     <path d="M 749.950078 51.614375 
L 759.950078 51.614375 
L 769.950078 51.614375 
" style="fill: none; stroke: #ff7f0e; stroke-width: 2; stroke-linecap: square"/>
     <g>
      <use xlink:href="#m8615eaf250" x="759.950078" y="51.614375" style="fill: #ff7f0e; stroke: #ff7f0e"/>
     </g>
    </g>
    <g id="text_15">
     <text style="font: 10px 'DejaVu Sans', 'Bitstream Vera Sans', 'Computer Modern Sans Serif', 'Lucida Grande', 'Verdana', 'Geneva', 'Lucid', 'Arial', 'Helvetica', 'Avant Garde', sans-serif; text-anchor: start" x="777.950078" y="55.114375" transform="rotate(-0 777.950078 55.114375)">gcc-14.2 - V2</text>
    </g>
    <g id="line2d_28">
     <path d="M 749.950078 66.2925 
L 759.950078 66.2925 
L 769.950078 66.2925 
" style="fill: none; stroke: #2ca02c; stroke-width: 2; stroke-linecap: square"/>
     <g>
      <use xlink:href="#m4bd4dc7337" x="759.950078" y="66.2925" style="fill: #2ca02c; stroke: #2ca02c"/>
     </g>
    </g>
    <g id="text_16">
     <text style="font: 10px 'DejaVu Sans', 'Bitstream Vera Sans', 'Computer Modern Sans Serif', 'Lucida Grande', 'Verdana', 'Geneva', 'Lucid', 'Arial', 'Helvetica', 'Avant Garde', sans-serif; text-anchor: start" x="777.950078" y="69.7925" transform="rotate(-0 777.950078 69.7925)">gcc-4.2 - V1</text>
    </g>
    <g id="line2d_29">
     <path d="M 749.950078 80.970625 
L 759.950078 80.970625 
L 769.950078 80.970625 
" style="fill: none; stroke: #d62728; stroke-width: 2; stroke-linecap: square"/>
     <g>
      <use xlink:href="#m8f1c880df1" x="759.950078" y="80.970625" style="fill: #d62728; stroke: #d62728"/>
     </g>
    </g>
    <g id="text_17">
     <text style="font: 10px 'DejaVu Sans', 'Bitstream Vera Sans', 'Computer Modern Sans Serif', 'Lucida Grande', 'Verdana', 'Geneva', 'Lucid', 'Arial', 'Helvetica', 'Avant Garde', sans-serif; text-anchor: start" x="777.950078" y="84.470625" transform="rotate(-0 777.950078 84.470625)">gcc-4.2 - V2</text>
    </g>
   </g>
  </g>
 </g>
 <defs>
  <clipPath id="p9c5b28887e">
   <rect x="64.41375" y="23.837813" width="644.320312" height="505.470313"/>
  </clipPath>
 </defs>
</svg>
