<?xml version="1.0" encoding="utf-8" standalone="no"?>
<!DOCTYPE svg PUBLIC "-//W3C//DTD SVG 1.1//EN"
  "http://www.w3.org/Graphics/SVG/1.1/DTD/svg11.dtd">
<svg xmlns:xlink="http://www.w3.org/1999/xlink" width="850.259141pt" height="568.8pt" viewBox="0 0 850.259141 568.8" xmlns="http://www.w3.org/2000/svg" version="1.1">
 <metadata>
  <rdf:RDF xmlns:dc="http://purl.org/dc/elements/1.1/" xmlns:cc="http://creativecommons.org/ns#" xmlns:rdf="http://www.w3.org/1999/02/22-rdf-syntax-ns#">
   <cc:Work>
    <dc:type rdf:resource="http://purl.org/dc/dcmitype/StillImage"/>
    <dc:date>2025-08-31T21:46:02.860753</dc:date>
    <dc:format>image/svg+xml</dc:format>
    <dc:creator>
     <cc:Agent>
      <dc:title>Matplotlib v3.9.4, https://matplotlib.org/</dc:title>
     </cc:Agent>
    </dc:creator>
   </cc:Work>
  </rdf:RDF>
 </metadata>
 <defs>
  <style type="text/css">*{stroke-linejoin: round; stroke-linecap: butt}</style>
 </defs>
 <g id="figure_1">
  <g id="patch_1">
   <path d="M 0 568.8 
L 850.259141 568.8 
L 850.259141 0 
L 0 0 
z
" style="fill: #ffffff"/>
  </g>
  <g id="axes_1">
   <g id="patch_2">
    <path d="M 74.01375 529.308125 
L 612.796562 529.308125 
L 612.796562 23.837812 
L 74.01375 23.837812 
z
" style="fill: #ffffff"/>
   </g>
   <g id="matplotlib.axis_1">
    <g id="xtick_1">
     <g id="line2d_1">
      <path d="M 74.01375 529.308125 
L 74.01375 23.837812 
" clip-path="url(#pe3c570e0db)" style="fill: none; stroke: #b0b0b0; stroke-opacity: 0.3; stroke-width: 0.8; stroke-linecap: square"/>
     </g>
     <g id="line2d_2">
      <defs>
       <path id="mdb2ee8260d" d="M 0 0 
L 0 3.5 
" style="stroke: #000000; stroke-width: 0.8"/>
      </defs>
      <g>
       <use xlink:href="#mdb2ee8260d" x="74.01375" y="529.308125" style="stroke: #000000; stroke-width: 0.8"/>
      </g>
     </g>
     <g id="text_1">
      <text style="font: 10px 'DejaVu Sans', 'Bitstream Vera Sans', 'Computer Modern Sans Serif', 'Lucida Grande', 'Verdana', 'Geneva', 'Lucid', 'Arial', 'Helvetica', 'Avant Garde', sans-serif; text-anchor: middle" x="74.01375" y="543.906563" transform="rotate(-0 74.01375 543.906563)">95.0</text>
     </g>
    </g>
    <g id="xtick_2">
     <g id="line2d_3">
      <path d="M 135.23907 529.308125 
L 135.23907 23.837812 
" clip-path="url(#pe3c570e0db)" style="fill: none; stroke: #b0b0b0; stroke-opacity: 0.3; stroke-width: 0.8; stroke-linecap: square"/>
     </g>
     <g id="line2d_4">
      <g>
       <use xlink:href="#mdb2ee8260d" x="135.23907" y="529.308125" style="stroke: #000000; stroke-width: 0.8"/>
      </g>
     </g>
     <g id="text_2">
      <text style="font: 10px 'DejaVu Sans', 'Bitstream Vera Sans', 'Computer Modern Sans Serif', 'Lucida Grande', 'Verdana', 'Geneva', 'Lucid', 'Arial', 'Helvetica', 'Avant Garde', sans-serif; text-anchor: middle" x="135.23907" y="543.906563" transform="rotate(-0 135.23907 543.906563)">97.5</text>
     </g>
    </g>
    <g id="xtick_3">
     <g id="line2d_5">
      <path d="M 196.464389 529.308125 
L 196.464389 23.837812 
" clip-path="url(#pe3c570e0db)" style="fill: none; stroke: #b0b0b0; stroke-opacity: 0.3; stroke-width: 0.8; stroke-linecap: square"/>
     </g>
     <g id="line2d_6">
      <g>
       <use xlink:href="#mdb2ee8260d" x="196.464389" y="529.308125" style="stroke: #000000; stroke-width: 0.8"/>
      </g>
     </g>
     <g id="text_3">
      <text style="font: 10px 'DejaVu Sans', 'Bitstream Vera Sans', 'Computer Modern Sans Serif', 'Lucida Grande', 'Verdana', 'Geneva', 'Lucid', 'Arial', 'Helvetica', 'Avant Garde', sans-serif; text-anchor: middle" x="196.464389" y="543.906563" transform="rotate(-0 196.464389 543.906563)">100.0</text>
     </g>
    </g>
    <g id="xtick_4">
     <g id="line2d_7">
      <path d="M 257.689709 529.308125 
L 257.689709 23.837812 
" clip-path="url(#pe3c570e0db)" style="fill: none; stroke: #b0b0b0; stroke-opacity: 0.3; stroke-width: 0.8; stroke-linecap: square"/>
     </g>
     <g id="line2d_8">
      <g>
       <use xlink:href="#mdb2ee8260d" x="257.689709" y="529.308125" style="stroke: #000000; stroke-width: 0.8"/>
      </g>
     </g>
     <g id="text_4">
      <text style="font: 10px 'DejaVu Sans', 'Bitstream Vera Sans', 'Computer Modern Sans Serif', 'Lucida Grande', 'Verdana', 'Geneva', 'Lucid', 'Arial', 'Helvetica', 'Avant Garde', sans-serif; text-anchor: middle" x="257.689709" y="543.906563" transform="rotate(-0 257.689709 543.906563)">102.5</text>
     </g>
    </g>
    <g id="xtick_5">
     <g id="line2d_9">
      <path d="M 318.915028 529.308125 
L 318.915028 23.837812 
" clip-path="url(#pe3c570e0db)" style="fill: none; stroke: #b0b0b0; stroke-opacity: 0.3; stroke-width: 0.8; stroke-linecap: square"/>
     </g>
     <g id="line2d_10">
      <g>
       <use xlink:href="#mdb2ee8260d" x="318.915028" y="529.308125" style="stroke: #000000; stroke-width: 0.8"/>
      </g>
     </g>
     <g id="text_5">
      <text style="font: 10px 'DejaVu Sans', 'Bitstream Vera Sans', 'Computer Modern Sans Serif', 'Lucida Grande', 'Verdana', 'Geneva', 'Lucid', 'Arial', 'Helvetica', 'Avant Garde', sans-serif; text-anchor: middle" x="318.915028" y="543.906563" transform="rotate(-0 318.915028 543.906563)">105.0</text>
     </g>
    </g>
    <g id="xtick_6">
     <g id="line2d_11">
      <path d="M 380.140348 529.308125 
L 380.140348 23.837812 
" clip-path="url(#pe3c570e0db)" style="fill: none; stroke: #b0b0b0; stroke-opacity: 0.3; stroke-width: 0.8; stroke-linecap: square"/>
     </g>
     <g id="line2d_12">
      <g>
       <use xlink:href="#mdb2ee8260d" x="380.140348" y="529.308125" style="stroke: #000000; stroke-width: 0.8"/>
      </g>
     </g>
     <g id="text_6">
      <text style="font: 10px 'DejaVu Sans', 'Bitstream Vera Sans', 'Computer Modern Sans Serif', 'Lucida Grande', 'Verdana', 'Geneva', 'Lucid', 'Arial', 'Helvetica', 'Avant Garde', sans-serif; text-anchor: middle" x="380.140348" y="543.906563" transform="rotate(-0 380.140348 543.906563)">107.5</text>
     </g>
    </g>
    <g id="xtick_7">
     <g id="line2d_13">
      <path d="M 441.365668 529.308125 
L 441.365668 23.837812 
" clip-path="url(#pe3c570e0db)" style="fill: none; stroke: #b0b0b0; stroke-opacity: 0.3; stroke-width: 0.8; stroke-linecap: square"/>
     </g>
     <g id="line2d_14">
      <g>
       <use xlink:href="#mdb2ee8260d" x="441.365668" y="529.308125" style="stroke: #000000; stroke-width: 0.8"/>
      </g>
     </g>
     <g id="text_7">
      <text style="font: 10px 'DejaVu Sans', 'Bitstream Vera Sans', 'Computer Modern Sans Serif', 'Lucida Grande', 'Verdana', 'Geneva', 'Lucid', 'Arial', 'Helvetica', 'Avant Garde', sans-serif; text-anchor: middle" x="441.365668" y="543.906563" transform="rotate(-0 441.365668 543.906563)">110.0</text>
     </g>
    </g>
    <g id="xtick_8">
     <g id="line2d_15">
      <path d="M 502.590987 529.308125 
L 502.590987 23.837812 
" clip-path="url(#pe3c570e0db)" style="fill: none; stroke: #b0b0b0; stroke-opacity: 0.3; stroke-width: 0.8; stroke-linecap: square"/>
     </g>
     <g id="line2d_16">
      <g>
       <use xlink:href="#mdb2ee8260d" x="502.590987" y="529.308125" style="stroke: #000000; stroke-width: 0.8"/>
      </g>
     </g>
     <g id="text_8">
      <text style="font: 10px 'DejaVu Sans', 'Bitstream Vera Sans', 'Computer Modern Sans Serif', 'Lucida Grande', 'Verdana', 'Geneva', 'Lucid', 'Arial', 'Helvetica', 'Avant Garde', sans-serif; text-anchor: middle" x="502.590987" y="543.906563" transform="rotate(-0 502.590987 543.906563)">112.5</text>
     </g>
    </g>
    <g id="xtick_9">
     <g id="line2d_17">
      <path d="M 563.816307 529.308125 
L 563.816307 23.837812 
" clip-path="url(#pe3c570e0db)" style="fill: none; stroke: #b0b0b0; stroke-opacity: 0.3; stroke-width: 0.8; stroke-linecap: square"/>
     </g>
     <g id="line2d_18">
      <g>
       <use xlink:href="#mdb2ee8260d" x="563.816307" y="529.308125" style="stroke: #000000; stroke-width: 0.8"/>
      </g>
     </g>
     <g id="text_9">
      <text style="font: 10px 'DejaVu Sans', 'Bitstream Vera Sans', 'Computer Modern Sans Serif', 'Lucida Grande', 'Verdana', 'Geneva', 'Lucid', 'Arial', 'Helvetica', 'Avant Garde', sans-serif; text-anchor: middle" x="563.816307" y="543.906563" transform="rotate(-0 563.816307 543.906563)">115.0</text>
     </g>
    </g>
    <g id="text_10">
     <text style="font: 12px 'DejaVu Sans', 'Bitstream Vera Sans', 'Computer Modern Sans Serif', 'Lucida Grande', 'Verdana', 'Geneva', 'Lucid', 'Arial', 'Helvetica', 'Avant Garde', sans-serif; text-anchor: middle" x="343.405156" y="559.104375" transform="rotate(-0 343.405156 559.104375)">Build Number</text>
    </g>
   </g>
   <g id="matplotlib.axis_2">
    <g id="ytick_1">
     <g id="line2d_19">
      <defs>
       <path id="me66b36c8b8" d="M 0 0 
L -2 0 
" style="stroke: #000000; stroke-width: 0.6"/>
      </defs>
      <g>
       <use xlink:href="#me66b36c8b8" x="74.01375" y="443.821" style="stroke: #000000; stroke-width: 0.6"/>
      </g>
     </g>
     <g id="text_11">
      <!-- $\mathdefault{5.2\times10^{5}}$ -->
      <g transform="translate(23.41375 447.620219)">
       <text>
        <tspan style="font: 10px 'DejaVu Sans'" x="0 6.362305 9.041016 17.351562 27.678711 34.041016" y="-0.06406250000000036">5.2×10</tspan>
        <tspan style="font: 7px 'DejaVu Sans'" x="40.499023" y="-3.8921875000000004">5</tspan>
       </text>
      </g>
     </g>
    </g>
    <g id="ytick_2">
     <g id="line2d_20">
      <g>
       <use xlink:href="#me66b36c8b8" x="74.01375" y="330.54379" style="stroke: #000000; stroke-width: 0.6"/>
      </g>
     </g>
     <g id="text_12">
      <!-- $\mathdefault{5.4\times10^{5}}$ -->
      <g transform="translate(22.81375 334.343009)">
       <text>
        <tspan style="font: 10px 'DejaVu Sans'" x="0 6.362305 9.541016 17.851562 28.178711 34.541016" y="-0.06406250000000036">5.4×10</tspan>
        <tspan style="font: 7px 'DejaVu Sans'" x="40.999023" y="-3.8921875000000004">5</tspan>
       </text>
      </g>
     </g>
    </g>
    <g id="ytick_3">
     <g id="line2d_21">
      <g>
       <use xlink:href="#me66b36c8b8" x="74.01375" y="221.386676" style="stroke: #000000; stroke-width: 0.6"/>
      </g>
     </g>
     <g id="text_13">
      <!-- $\mathdefault{5.6\times10^{5}}$ -->
      <g transform="translate(22.81375 225.185895)">
       <text>
        <tspan style="font: 10px 'DejaVu Sans'" x="0 6.362305 9.541016 17.851562 28.178711 34.541016" y="-0.06406250000000036">5.6×10</tspan>
        <tspan style="font: 7px 'DejaVu Sans'" x="40.999023" y="-3.8921875000000004">5</tspan>
       </text>
      </g>
     </g>
    </g>
    <g id="ytick_4">
     <g id="line2d_22">
      <g>
       <use xlink:href="#me66b36c8b8" x="74.01375" y="116.060437" style="stroke: #000000; stroke-width: 0.6"/>
      </g>
     </g>
     <g id="text_14">
      <!-- $\mathdefault{5.8\times10^{5}}$ -->
      <g transform="translate(23.11375 119.859656)">
       <text>
        <tspan style="font: 10px 'DejaVu Sans'" x="0 6.362305 9.291016 17.601562 27.928711 34.291016" y="-0.06406250000000036">5.8×10</tspan>
        <tspan style="font: 7px 'DejaVu Sans'" x="40.749023" y="-3.8921875000000004">5</tspan>
       </text>
      </g>
     </g>
    </g>
    <g id="text_15">
     <text style="font: 12px 'DejaVu Sans', 'Bitstream Vera Sans', 'Computer Modern Sans Serif', 'Lucida Grande', 'Verdana', 'Geneva', 'Lucid', 'Arial', 'Helvetica', 'Avant Garde', sans-serif; text-anchor: middle" x="16.318125" y="276.572969" transform="rotate(-90 16.318125 276.572969)">Median Elapsed Time (nanoseconds)</text>
    </g>
   </g>
   <g id="line2d_23">
    <path d="M 98.503878 98.686651 
L 122.994006 81.433828 
L 171.974261 91.458245 
L 196.464389 125.020307 
L 220.954517 121.420292 
L 245.444645 130.68688 
L 269.934773 46.813736 
L 294.424901 107.946691 
L 318.915028 118.082466 
L 343.405156 99.225908 
L 392.385412 90.937317 
L 416.87554 137.80824 
L 441.365668 107.154064 
L 465.855795 109.154095 
L 490.345923 66.243119 
L 539.326179 128.419902 
L 563.816307 101.564664 
L 588.306435 106.566438 
" clip-path="url(#pe3c570e0db)" style="fill: none; stroke: #1f77b4; stroke-width: 2; stroke-linecap: square"/>
    <defs>
     <path id="m82adbfca1f" d="M 0 3 
C 0.795609 3 1.55874 2.683901 2.12132 2.12132 
C 2.683901 1.55874 3 0.795609 3 0 
C 3 -0.795609 2.683901 -1.55874 2.12132 -2.12132 
C 1.55874 -2.683901 0.795609 -3 0 -3 
C -0.795609 -3 -1.55874 -2.683901 -2.12132 -2.12132 
C -2.683901 -1.55874 -3 -0.795609 -3 0 
C -3 0.795609 -2.683901 1.55874 -2.12132 2.12132 
C -1.55874 2.683901 -0.795609 3 0 3 
z
" style="stroke: #1f77b4"/>
    </defs>
    <g clip-path="url(#pe3c570e0db)">
     <use xlink:href="#m82adbfca1f" x="98.503878" y="98.686651" style="fill: #1f77b4; stroke: #1f77b4"/>
     <use xlink:href="#m82adbfca1f" x="122.994006" y="81.433828" style="fill: #1f77b4; stroke: #1f77b4"/>
     <use xlink:href="#m82adbfca1f" x="171.974261" y="91.458245" style="fill: #1f77b4; stroke: #1f77b4"/>
     <use xlink:href="#m82adbfca1f" x="196.464389" y="125.020307" style="fill: #1f77b4; stroke: #1f77b4"/>
     <use xlink:href="#m82adbfca1f" x="220.954517" y="121.420292" style="fill: #1f77b4; stroke: #1f77b4"/>
     <use xlink:href="#m82adbfca1f" x="245.444645" y="130.68688" style="fill: #1f77b4; stroke: #1f77b4"/>
     <use xlink:href="#m82adbfca1f" x="269.934773" y="46.813736" style="fill: #1f77b4; stroke: #1f77b4"/>
     <use xlink:href="#m82adbfca1f" x="294.424901" y="107.946691" style="fill: #1f77b4; stroke: #1f77b4"/>
     <use xlink:href="#m82adbfca1f" x="318.915028" y="118.082466" style="fill: #1f77b4; stroke: #1f77b4"/>
     <use xlink:href="#m82adbfca1f" x="343.405156" y="99.225908" style="fill: #1f77b4; stroke: #1f77b4"/>
     <use xlink:href="#m82adbfca1f" x="392.385412" y="90.937317" style="fill: #1f77b4; stroke: #1f77b4"/>
     <use xlink:href="#m82adbfca1f" x="416.87554" y="137.80824" style="fill: #1f77b4; stroke: #1f77b4"/>
     <use xlink:href="#m82adbfca1f" x="441.365668" y="107.154064" style="fill: #1f77b4; stroke: #1f77b4"/>
     <use xlink:href="#m82adbfca1f" x="465.855795" y="109.154095" style="fill: #1f77b4; stroke: #1f77b4"/>
     <use xlink:href="#m82adbfca1f" x="490.345923" y="66.243119" style="fill: #1f77b4; stroke: #1f77b4"/>
     <use xlink:href="#m82adbfca1f" x="539.326179" y="128.419902" style="fill: #1f77b4; stroke: #1f77b4"/>
     <use xlink:href="#m82adbfca1f" x="563.816307" y="101.564664" style="fill: #1f77b4; stroke: #1f77b4"/>
     <use xlink:href="#m82adbfca1f" x="588.306435" y="106.566438" style="fill: #1f77b4; stroke: #1f77b4"/>
    </g>
   </g>
   <g id="line2d_24">
    <path d="M 98.503878 184.995366 
L 122.994006 151.837891 
L 171.974261 161.89622 
L 196.464389 251.231086 
L 220.954517 195.318107 
L 245.444645 218.937174 
L 269.934773 157.495554 
L 294.424901 174.861573 
L 318.915028 209.779981 
L 343.405156 169.58779 
L 392.385412 136.568936 
L 416.87554 139.631645 
L 441.365668 193.279496 
L 465.855795 193.595449 
L 490.345923 200.189714 
L 539.326179 215.102458 
L 563.816307 116.332136 
L 588.306435 192.43588 
" clip-path="url(#pe3c570e0db)" style="fill: none; stroke: #ff7f0e; stroke-width: 2; stroke-linecap: square"/>
    <defs>
     <path id="m5906c4a4db" d="M 0 3 
C 0.795609 3 1.55874 2.683901 2.12132 2.12132 
C 2.683901 1.55874 3 0.795609 3 0 
C 3 -0.795609 2.683901 -1.55874 2.12132 -2.12132 
C 1.55874 -2.683901 0.795609 -3 0 -3 
C -0.795609 -3 -1.55874 -2.683901 -2.12132 -2.12132 
C -2.683901 -1.55874 -3 -0.795609 -3 0 
C -3 0.795609 -2.683901 1.55874 -2.12132 2.12132 
C -1.55874 2.683901 -0.795609 3 0 3 
z
" style="stroke: #ff7f0e"/>
    </defs>
    <g clip-path="url(#pe3c570e0db)">
     <use xlink:href="#m5906c4a4db" x="98.503878" y="184.995366" style="fill: #ff7f0e; stroke: #ff7f0e"/>
     <use xlink:href="#m5906c4a4db" x="122.994006" y="151.837891" style="fill: #ff7f0e; stroke: #ff7f0e"/>
     <use xlink:href="#m5906c4a4db" x="171.974261" y="161.89622" style="fill: #ff7f0e; stroke: #ff7f0e"/>
     <use xlink:href="#m5906c4a4db" x="196.464389" y="251.231086" style="fill: #ff7f0e; stroke: #ff7f0e"/>
     <use xlink:href="#m5906c4a4db" x="220.954517" y="195.318107" style="fill: #ff7f0e; stroke: #ff7f0e"/>
     <use xlink:href="#m5906c4a4db" x="245.444645" y="218.937174" style="fill: #ff7f0e; stroke: #ff7f0e"/>
     <use xlink:href="#m5906c4a4db" x="269.934773" y="157.495554" style="fill: #ff7f0e; stroke: #ff7f0e"/>
     <use xlink:href="#m5906c4a4db" x="294.424901" y="174.861573" style="fill: #ff7f0e; stroke: #ff7f0e"/>
     <use xlink:href="#m5906c4a4db" x="318.915028" y="209.779981" style="fill: #ff7f0e; stroke: #ff7f0e"/>
     <use xlink:href="#m5906c4a4db" x="343.405156" y="169.58779" style="fill: #ff7f0e; stroke: #ff7f0e"/>
     <use xlink:href="#m5906c4a4db" x="392.385412" y="136.568936" style="fill: #ff7f0e; stroke: #ff7f0e"/>
     <use xlink:href="#m5906c4a4db" x="416.87554" y="139.631645" style="fill: #ff7f0e; stroke: #ff7f0e"/>
     <use xlink:href="#m5906c4a4db" x="441.365668" y="193.279496" style="fill: #ff7f0e; stroke: #ff7f0e"/>
     <use xlink:href="#m5906c4a4db" x="465.855795" y="193.595449" style="fill: #ff7f0e; stroke: #ff7f0e"/>
     <use xlink:href="#m5906c4a4db" x="490.345923" y="200.189714" style="fill: #ff7f0e; stroke: #ff7f0e"/>
     <use xlink:href="#m5906c4a4db" x="539.326179" y="215.102458" style="fill: #ff7f0e; stroke: #ff7f0e"/>
     <use xlink:href="#m5906c4a4db" x="563.816307" y="116.332136" style="fill: #ff7f0e; stroke: #ff7f0e"/>
     <use xlink:href="#m5906c4a4db" x="588.306435" y="192.43588" style="fill: #ff7f0e; stroke: #ff7f0e"/>
    </g>
   </g>
   <g id="line2d_25">
    <path d="M 98.503878 474.521093 
L 122.994006 442.072564 
L 171.974261 453.454486 
L 196.464389 465.700023 
L 220.954517 474.411464 
L 245.444645 415.772515 
L 269.934773 490.302139 
L 294.424901 453.938624 
L 318.915028 468.556215 
L 343.405156 457.740311 
L 392.385412 456.108936 
L 416.87554 460.480974 
L 441.365668 465.251191 
L 490.345923 465.962261 
L 563.816307 450.607994 
L 588.306435 443.142855 
" clip-path="url(#pe3c570e0db)" style="fill: none; stroke: #2ca02c; stroke-width: 2; stroke-linecap: square"/>
    <defs>
     <path id="m73ae79e3bb" d="M 0 3 
C 0.795609 3 1.55874 2.683901 2.12132 2.12132 
C 2.683901 1.55874 3 0.795609 3 0 
C 3 -0.795609 2.683901 -1.55874 2.12132 -2.12132 
C 1.55874 -2.683901 0.795609 -3 0 -3 
C -0.795609 -3 -1.55874 -2.683901 -2.12132 -2.12132 
C -2.683901 -1.55874 -3 -0.795609 -3 0 
C -3 0.795609 -2.683901 1.55874 -2.12132 2.12132 
C -1.55874 2.683901 -0.795609 3 0 3 
z
" style="stroke: #2ca02c"/>
    </defs>
    <g clip-path="url(#pe3c570e0db)">
     <use xlink:href="#m73ae79e3bb" x="98.503878" y="474.521093" style="fill: #2ca02c; stroke: #2ca02c"/>
     <use xlink:href="#m73ae79e3bb" x="122.994006" y="442.072564" style="fill: #2ca02c; stroke: #2ca02c"/>
     <use xlink:href="#m73ae79e3bb" x="171.974261" y="453.454486" style="fill: #2ca02c; stroke: #2ca02c"/>
     <use xlink:href="#m73ae79e3bb" x="196.464389" y="465.700023" style="fill: #2ca02c; stroke: #2ca02c"/>
     <use xlink:href="#m73ae79e3bb" x="220.954517" y="474.411464" style="fill: #2ca02c; stroke: #2ca02c"/>
     <use xlink:href="#m73ae79e3bb" x="245.444645" y="415.772515" style="fill: #2ca02c; stroke: #2ca02c"/>
     <use xlink:href="#m73ae79e3bb" x="269.934773" y="490.302139" style="fill: #2ca02c; stroke: #2ca02c"/>
     <use xlink:href="#m73ae79e3bb" x="294.424901" y="453.938624" style="fill: #2ca02c; stroke: #2ca02c"/>
     <use xlink:href="#m73ae79e3bb" x="318.915028" y="468.556215" style="fill: #2ca02c; stroke: #2ca02c"/>
     <use xlink:href="#m73ae79e3bb" x="343.405156" y="457.740311" style="fill: #2ca02c; stroke: #2ca02c"/>
     <use xlink:href="#m73ae79e3bb" x="392.385412" y="456.108936" style="fill: #2ca02c; stroke: #2ca02c"/>
     <use xlink:href="#m73ae79e3bb" x="416.87554" y="460.480974" style="fill: #2ca02c; stroke: #2ca02c"/>
     <use xlink:href="#m73ae79e3bb" x="441.365668" y="465.251191" style="fill: #2ca02c; stroke: #2ca02c"/>
     <use xlink:href="#m73ae79e3bb" x="490.345923" y="465.962261" style="fill: #2ca02c; stroke: #2ca02c"/>
     <use xlink:href="#m73ae79e3bb" x="563.816307" y="450.607994" style="fill: #2ca02c; stroke: #2ca02c"/>
     <use xlink:href="#m73ae79e3bb" x="588.306435" y="443.142855" style="fill: #2ca02c; stroke: #2ca02c"/>
    </g>
   </g>
   <g id="line2d_26">
    <path d="M 98.503878 479.766386 
L 122.994006 466.538566 
L 171.974261 477.763957 
L 196.464389 445.230299 
L 220.954517 484.722431 
L 245.444645 375.894805 
L 269.934773 506.332202 
L 294.424901 428.037793 
L 318.915028 493.898394 
L 343.405156 473.374268 
L 392.385412 480.690091 
L 416.87554 491.795021 
L 441.365668 466.298958 
L 490.345923 474.275599 
L 563.816307 477.786724 
L 588.306435 481.282089 
" clip-path="url(#pe3c570e0db)" style="fill: none; stroke: #d62728; stroke-width: 2; stroke-linecap: square"/>
    <defs>
     <path id="m4f9b8ae9a5" d="M 0 3 
C 0.795609 3 1.55874 2.683901 2.12132 2.12132 
C 2.683901 1.55874 3 0.795609 3 0 
C 3 -0.795609 2.683901 -1.55874 2.12132 -2.12132 
C 1.55874 -2.683901 0.795609 -3 0 -3 
C -0.795609 -3 -1.55874 -2.683901 -2.12132 -2.12132 
C -2.683901 -1.55874 -3 -0.795609 -3 0 
C -3 0.795609 -2.683901 1.55874 -2.12132 2.12132 
C -1.55874 2.683901 -0.795609 3 0 3 
z
" style="stroke: #d62728"/>
    </defs>
    <g clip-path="url(#pe3c570e0db)">
     <use xlink:href="#m4f9b8ae9a5" x="98.503878" y="479.766386" style="fill: #d62728; stroke: #d62728"/>
     <use xlink:href="#m4f9b8ae9a5" x="122.994006" y="466.538566" style="fill: #d62728; stroke: #d62728"/>
     <use xlink:href="#m4f9b8ae9a5" x="171.974261" y="477.763957" style="fill: #d62728; stroke: #d62728"/>
     <use xlink:href="#m4f9b8ae9a5" x="196.464389" y="445.230299" style="fill: #d62728; stroke: #d62728"/>
     <use xlink:href="#m4f9b8ae9a5" x="220.954517" y="484.722431" style="fill: #d62728; stroke: #d62728"/>
     <use xlink:href="#m4f9b8ae9a5" x="245.444645" y="375.894805" style="fill: #d62728; stroke: #d62728"/>
     <use xlink:href="#m4f9b8ae9a5" x="269.934773" y="506.332202" style="fill: #d62728; stroke: #d62728"/>
     <use xlink:href="#m4f9b8ae9a5" x="294.424901" y="428.037793" style="fill: #d62728; stroke: #d62728"/>
     <use xlink:href="#m4f9b8ae9a5" x="318.915028" y="493.898394" style="fill: #d62728; stroke: #d62728"/>
     <use xlink:href="#m4f9b8ae9a5" x="343.405156" y="473.374268" style="fill: #d62728; stroke: #d62728"/>
     <use xlink:href="#m4f9b8ae9a5" x="392.385412" y="480.690091" style="fill: #d62728; stroke: #d62728"/>
     <use xlink:href="#m4f9b8ae9a5" x="416.87554" y="491.795021" style="fill: #d62728; stroke: #d62728"/>
     <use xlink:href="#m4f9b8ae9a5" x="441.365668" y="466.298958" style="fill: #d62728; stroke: #d62728"/>
     <use xlink:href="#m4f9b8ae9a5" x="490.345923" y="474.275599" style="fill: #d62728; stroke: #d62728"/>
     <use xlink:href="#m4f9b8ae9a5" x="563.816307" y="477.786724" style="fill: #d62728; stroke: #d62728"/>
     <use xlink:href="#m4f9b8ae9a5" x="588.306435" y="481.282089" style="fill: #d62728; stroke: #d62728"/>
    </g>
   </g>
   <g id="patch_3">
    <path d="M 74.01375 529.308125 
L 74.01375 23.837813 
" style="fill: none; stroke: #000000; stroke-width: 0.8; stroke-linejoin: miter; stroke-linecap: square"/>
   </g>
   <g id="patch_4">
    <path d="M 612.796562 529.308125 
L 612.796562 23.837813 
" style="fill: none; stroke: #000000; stroke-width: 0.8; stroke-linejoin: miter; stroke-linecap: square"/>
   </g>
   <g id="patch_5">
    <path d="M 74.01375 529.308125 
L 612.796563 529.308125 
" style="fill: none; stroke: #000000; stroke-width: 0.8; stroke-linejoin: miter; stroke-linecap: square"/>
   </g>
   <g id="patch_6">
    <path d="M 74.01375 23.837812 
L 612.796563 23.837812 
" style="fill: none; stroke: #000000; stroke-width: 0.8; stroke-linejoin: miter; stroke-linecap: square"/>
   </g>
   <g id="text_16">
    <text style="font: 700 14px 'DejaVu Sans', 'Bitstream Vera Sans', 'Computer Modern Sans Serif', 'Lucida Grande', 'Verdana', 'Geneva', 'Lucid', 'Arial', 'Helvetica', 'Avant Garde', sans-serif; text-anchor: middle" x="343.405156" y="17.837813" transform="rotate(-0 343.405156 17.837813)">Coroutine Creation - Performance Trend</text>
   </g>
   <g id="legend_1">
    <g id="patch_7">
     <path d="M 646.735703 91.662813 
L 841.059141 91.662813 
Q 843.059141 91.662813 843.059141 89.662813 
L 843.059141 30.837813 
Q 843.059141 28.837813 841.059141 28.837813 
L 646.735703 28.837813 
Q 644.735703 28.837813 644.735703 30.837813 
L 644.735703 89.662813 
Q 644.735703 91.662813 646.735703 91.662813 
z
" style="fill: #ffffff; opacity: 0.8; stroke: #cccccc; stroke-linejoin: miter"/>
    </g>
    <g id="line2d_27">
     <path d="M 648.735703 36.93625 
L 658.735703 36.93625 
L 668.735703 36.93625 
" style="fill: none; stroke: #1f77b4; stroke-width: 2; stroke-linecap: square"/>
     <g>
      <use xlink:href="#m82adbfca1f" x="658.735703" y="36.93625" style="fill: #1f77b4; stroke: #1f77b4"/>
     </g>
    </g>
    <g id="text_17">
     <text style="font: 10px 'DejaVu Sans', 'Bitstream Vera Sans', 'Computer Modern Sans Serif', 'Lucida Grande', 'Verdana', 'Geneva', 'Lucid', 'Arial', 'Helvetica', 'Avant Garde', sans-serif; text-anchor: start" x="676.735703" y="40.43625" transform="rotate(-0 676.735703 40.43625)">gcc-14.2 - CoroutineCreation_V1</text>
    </g>
    <g id="line2d_28">
     <path d="M 648.735703 51.8925 
L 658.735703 51.8925 
L 668.735703 51.8925 
" style="fill: none; stroke: #ff7f0e; stroke-width: 2; stroke-linecap: square"/>
     <g>
      <use xlink:href="#m5906c4a4db" x="658.735703" y="51.8925" style="fill: #ff7f0e; stroke: #ff7f0e"/>
     </g>
    </g>
    <g id="text_18">
     <text style="font: 10px 'DejaVu Sans', 'Bitstream Vera Sans', 'Computer Modern Sans Serif', 'Lucida Grande', 'Verdana', 'Geneva', 'Lucid', 'Arial', 'Helvetica', 'Avant Garde', sans-serif; text-anchor: start" x="676.735703" y="55.3925" transform="rotate(-0 676.735703 55.3925)">gcc-14.2 - CoroutineCreation_V2</text>
    </g>
    <g id="line2d_29">
     <path d="M 648.735703 66.84875 
L 658.735703 66.84875 
L 668.735703 66.84875 
" style="fill: none; stroke: #2ca02c; stroke-width: 2; stroke-linecap: square"/>
     <g>
      <use xlink:href="#m73ae79e3bb" x="658.735703" y="66.84875" style="fill: #2ca02c; stroke: #2ca02c"/>
     </g>
    </g>
    <g id="text_19">
     <text style="font: 10px 'DejaVu Sans', 'Bitstream Vera Sans', 'Computer Modern Sans Serif', 'Lucida Grande', 'Verdana', 'Geneva', 'Lucid', 'Arial', 'Helvetica', 'Avant Garde', sans-serif; text-anchor: start" x="676.735703" y="70.34875" transform="rotate(-0 676.735703 70.34875)">gcc-4.2 - CoroutineCreation_V1</text>
    </g>
    <g id="line2d_30">
     <path d="M 648.735703 81.805 
L 658.735703 81.805 
L 668.735703 81.805 
" style="fill: none; stroke: #d62728; stroke-width: 2; stroke-linecap: square"/>
     <g>
      <use xlink:href="#m4f9b8ae9a5" x="658.735703" y="81.805" style="fill: #d62728; stroke: #d62728"/>
     </g>
    </g>
    <g id="text_20">
     <text style="font: 10px 'DejaVu Sans', 'Bitstream Vera Sans', 'Computer Modern Sans Serif', 'Lucida Grande', 'Verdana', 'Geneva', 'Lucid', 'Arial', 'Helvetica', 'Avant Garde', sans-serif; text-anchor: start" x="676.735703" y="85.305" transform="rotate(-0 676.735703 85.305)">gcc-4.2 - CoroutineCreation_V2</text>
    </g>
   </g>
  </g>
 </g>
 <defs>
  <clipPath id="pe3c570e0db">
   <rect x="74.01375" y="23.837813" width="538.782812" height="505.470313"/>
  </clipPath>
 </defs>
</svg>
