<?xml version="1.0" encoding="utf-8" standalone="no"?>
<!DOCTYPE svg PUBLIC "-//W3C//DTD SVG 1.1//EN"
  "http://www.w3.org/Graphics/SVG/1.1/DTD/svg11.dtd">
<svg xmlns:xlink="http://www.w3.org/1999/xlink" width="856.684141pt" height="568.8pt" viewBox="0 0 856.684141 568.8" xmlns="http://www.w3.org/2000/svg" version="1.1">
 <metadata>
  <rdf:RDF xmlns:dc="http://purl.org/dc/elements/1.1/" xmlns:cc="http://creativecommons.org/ns#" xmlns:rdf="http://www.w3.org/1999/02/22-rdf-syntax-ns#">
   <cc:Work>
    <dc:type rdf:resource="http://purl.org/dc/dcmitype/StillImage"/>
    <dc:date>2025-08-30T10:56:07.727648</dc:date>
    <dc:format>image/svg+xml</dc:format>
    <dc:creator>
     <cc:Agent>
      <dc:title>Matplotlib v3.9.4, https://matplotlib.org/</dc:title>
     </cc:Agent>
    </dc:creator>
   </cc:Work>
  </rdf:RDF>
 </metadata>
 <defs>
  <style type="text/css">*{stroke-linejoin: round; stroke-linecap: butt}</style>
 </defs>
 <g id="figure_1">
  <g id="patch_1">
   <path d="M 0 568.8 
L 856.684141 568.8 
L 856.684141 0 
L 0 0 
z
" style="fill: #ffffff"/>
  </g>
  <g id="axes_1">
   <g id="patch_2">
    <path d="M 64.41375 529.308125 
L 731.696562 529.308125 
L 731.696562 23.837812 
L 64.41375 23.837812 
z
" style="fill: #ffffff"/>
   </g>
   <g id="matplotlib.axis_1">
    <g id="xtick_1">
     <g id="line2d_1">
      <path d="M 79.579268 529.308125 
L 79.579268 23.837812 
" clip-path="url(#pdfe0e13b96)" style="fill: none; stroke: #b0b0b0; stroke-opacity: 0.3; stroke-width: 0.8; stroke-linecap: square"/>
     </g>
     <g id="line2d_2">
      <defs>
       <path id="m3d7ffc394f" d="M 0 0 
L 0 3.5 
" style="stroke: #000000; stroke-width: 0.8"/>
      </defs>
      <g>
       <use xlink:href="#m3d7ffc394f" x="79.579268" y="529.308125" style="stroke: #000000; stroke-width: 0.8"/>
      </g>
     </g>
     <g id="text_1">
      <text style="font: 10px 'DejaVu Sans', 'Bitstream Vera Sans', 'Computer Modern Sans Serif', 'Lucida Grande', 'Verdana', 'Geneva', 'Lucid', 'Arial', 'Helvetica', 'Avant Garde', sans-serif; text-anchor: middle" x="79.579268" y="543.906563" transform="rotate(-0 79.579268 543.906563)">70</text>
     </g>
    </g>
    <g id="xtick_2">
     <g id="line2d_3">
      <path d="M 155.406861 529.308125 
L 155.406861 23.837812 
" clip-path="url(#pdfe0e13b96)" style="fill: none; stroke: #b0b0b0; stroke-opacity: 0.3; stroke-width: 0.8; stroke-linecap: square"/>
     </g>
     <g id="line2d_4">
      <g>
       <use xlink:href="#m3d7ffc394f" x="155.406861" y="529.308125" style="stroke: #000000; stroke-width: 0.8"/>
      </g>
     </g>
     <g id="text_2">
      <text style="font: 10px 'DejaVu Sans', 'Bitstream Vera Sans', 'Computer Modern Sans Serif', 'Lucida Grande', 'Verdana', 'Geneva', 'Lucid', 'Arial', 'Helvetica', 'Avant Garde', sans-serif; text-anchor: middle" x="155.406861" y="543.906563" transform="rotate(-0 155.406861 543.906563)">75</text>
     </g>
    </g>
    <g id="xtick_3">
     <g id="line2d_5">
      <path d="M 231.234453 529.308125 
L 231.234453 23.837812 
" clip-path="url(#pdfe0e13b96)" style="fill: none; stroke: #b0b0b0; stroke-opacity: 0.3; stroke-width: 0.8; stroke-linecap: square"/>
     </g>
     <g id="line2d_6">
      <g>
       <use xlink:href="#m3d7ffc394f" x="231.234453" y="529.308125" style="stroke: #000000; stroke-width: 0.8"/>
      </g>
     </g>
     <g id="text_3">
      <text style="font: 10px 'DejaVu Sans', 'Bitstream Vera Sans', 'Computer Modern Sans Serif', 'Lucida Grande', 'Verdana', 'Geneva', 'Lucid', 'Arial', 'Helvetica', 'Avant Garde', sans-serif; text-anchor: middle" x="231.234453" y="543.906563" transform="rotate(-0 231.234453 543.906563)">80</text>
     </g>
    </g>
    <g id="xtick_4">
     <g id="line2d_7">
      <path d="M 307.062045 529.308125 
L 307.062045 23.837812 
" clip-path="url(#pdfe0e13b96)" style="fill: none; stroke: #b0b0b0; stroke-opacity: 0.3; stroke-width: 0.8; stroke-linecap: square"/>
     </g>
     <g id="line2d_8">
      <g>
       <use xlink:href="#m3d7ffc394f" x="307.062045" y="529.308125" style="stroke: #000000; stroke-width: 0.8"/>
      </g>
     </g>
     <g id="text_4">
      <text style="font: 10px 'DejaVu Sans', 'Bitstream Vera Sans', 'Computer Modern Sans Serif', 'Lucida Grande', 'Verdana', 'Geneva', 'Lucid', 'Arial', 'Helvetica', 'Avant Garde', sans-serif; text-anchor: middle" x="307.062045" y="543.906563" transform="rotate(-0 307.062045 543.906563)">85</text>
     </g>
    </g>
    <g id="xtick_5">
     <g id="line2d_9">
      <path d="M 382.889638 529.308125 
L 382.889638 23.837812 
" clip-path="url(#pdfe0e13b96)" style="fill: none; stroke: #b0b0b0; stroke-opacity: 0.3; stroke-width: 0.8; stroke-linecap: square"/>
     </g>
     <g id="line2d_10">
      <g>
       <use xlink:href="#m3d7ffc394f" x="382.889638" y="529.308125" style="stroke: #000000; stroke-width: 0.8"/>
      </g>
     </g>
     <g id="text_5">
      <text style="font: 10px 'DejaVu Sans', 'Bitstream Vera Sans', 'Computer Modern Sans Serif', 'Lucida Grande', 'Verdana', 'Geneva', 'Lucid', 'Arial', 'Helvetica', 'Avant Garde', sans-serif; text-anchor: middle" x="382.889638" y="543.906563" transform="rotate(-0 382.889638 543.906563)">90</text>
     </g>
    </g>
    <g id="xtick_6">
     <g id="line2d_11">
      <path d="M 458.71723 529.308125 
L 458.71723 23.837812 
" clip-path="url(#pdfe0e13b96)" style="fill: none; stroke: #b0b0b0; stroke-opacity: 0.3; stroke-width: 0.8; stroke-linecap: square"/>
     </g>
     <g id="line2d_12">
      <g>
       <use xlink:href="#m3d7ffc394f" x="458.71723" y="529.308125" style="stroke: #000000; stroke-width: 0.8"/>
      </g>
     </g>
     <g id="text_6">
      <text style="font: 10px 'DejaVu Sans', 'Bitstream Vera Sans', 'Computer Modern Sans Serif', 'Lucida Grande', 'Verdana', 'Geneva', 'Lucid', 'Arial', 'Helvetica', 'Avant Garde', sans-serif; text-anchor: middle" x="458.71723" y="543.906563" transform="rotate(-0 458.71723 543.906563)">95</text>
     </g>
    </g>
    <g id="xtick_7">
     <g id="line2d_13">
      <path d="M 534.544822 529.308125 
L 534.544822 23.837812 
" clip-path="url(#pdfe0e13b96)" style="fill: none; stroke: #b0b0b0; stroke-opacity: 0.3; stroke-width: 0.8; stroke-linecap: square"/>
     </g>
     <g id="line2d_14">
      <g>
       <use xlink:href="#m3d7ffc394f" x="534.544822" y="529.308125" style="stroke: #000000; stroke-width: 0.8"/>
      </g>
     </g>
     <g id="text_7">
      <text style="font: 10px 'DejaVu Sans', 'Bitstream Vera Sans', 'Computer Modern Sans Serif', 'Lucida Grande', 'Verdana', 'Geneva', 'Lucid', 'Arial', 'Helvetica', 'Avant Garde', sans-serif; text-anchor: middle" x="534.544822" y="543.906563" transform="rotate(-0 534.544822 543.906563)">100</text>
     </g>
    </g>
    <g id="xtick_8">
     <g id="line2d_15">
      <path d="M 610.372415 529.308125 
L 610.372415 23.837812 
" clip-path="url(#pdfe0e13b96)" style="fill: none; stroke: #b0b0b0; stroke-opacity: 0.3; stroke-width: 0.8; stroke-linecap: square"/>
     </g>
     <g id="line2d_16">
      <g>
       <use xlink:href="#m3d7ffc394f" x="610.372415" y="529.308125" style="stroke: #000000; stroke-width: 0.8"/>
      </g>
     </g>
     <g id="text_8">
      <text style="font: 10px 'DejaVu Sans', 'Bitstream Vera Sans', 'Computer Modern Sans Serif', 'Lucida Grande', 'Verdana', 'Geneva', 'Lucid', 'Arial', 'Helvetica', 'Avant Garde', sans-serif; text-anchor: middle" x="610.372415" y="543.906563" transform="rotate(-0 610.372415 543.906563)">105</text>
     </g>
    </g>
    <g id="xtick_9">
     <g id="line2d_17">
      <path d="M 686.200007 529.308125 
L 686.200007 23.837812 
" clip-path="url(#pdfe0e13b96)" style="fill: none; stroke: #b0b0b0; stroke-opacity: 0.3; stroke-width: 0.8; stroke-linecap: square"/>
     </g>
     <g id="line2d_18">
      <g>
       <use xlink:href="#m3d7ffc394f" x="686.200007" y="529.308125" style="stroke: #000000; stroke-width: 0.8"/>
      </g>
     </g>
     <g id="text_9">
      <text style="font: 10px 'DejaVu Sans', 'Bitstream Vera Sans', 'Computer Modern Sans Serif', 'Lucida Grande', 'Verdana', 'Geneva', 'Lucid', 'Arial', 'Helvetica', 'Avant Garde', sans-serif; text-anchor: middle" x="686.200007" y="543.906563" transform="rotate(-0 686.200007 543.906563)">110</text>
     </g>
    </g>
    <g id="text_10">
     <text style="font: 12px 'DejaVu Sans', 'Bitstream Vera Sans', 'Computer Modern Sans Serif', 'Lucida Grande', 'Verdana', 'Geneva', 'Lucid', 'Arial', 'Helvetica', 'Avant Garde', sans-serif; text-anchor: middle" x="398.055156" y="559.104375" transform="rotate(-0 398.055156 559.104375)">Build Number</text>
    </g>
   </g>
   <g id="matplotlib.axis_2">
    <g id="ytick_1">
     <g id="line2d_19">
      <defs>
       <path id="ma789ec094f" d="M 0 0 
L -2 0 
" style="stroke: #000000; stroke-width: 0.6"/>
      </defs>
      <g>
       <use xlink:href="#ma789ec094f" x="64.41375" y="480.418415" style="stroke: #000000; stroke-width: 0.6"/>
      </g>
     </g>
     <g id="text_11">
      <!-- $\mathdefault{4\times10^{0}}$ -->
      <g transform="translate(22.81375 484.217634)">
       <text>
        <tspan style="font: 10px 'DejaVu Sans'" x="0 8.310547 18.637695 25" y="-0.9765625">4×10</tspan>
        <tspan style="font: 7px 'DejaVu Sans'" x="31.458008" y="-4.8046875">0</tspan>
       </text>
      </g>
     </g>
    </g>
    <g id="ytick_2">
     <g id="line2d_20">
      <g>
       <use xlink:href="#ma789ec094f" x="64.41375" y="252.022085" style="stroke: #000000; stroke-width: 0.6"/>
      </g>
     </g>
     <g id="text_12">
      <!-- $\mathdefault{5\times10^{0}}$ -->
      <g transform="translate(22.81375 255.821304)">
       <text>
        <tspan style="font: 10px 'DejaVu Sans'" x="0 8.310547 18.637695 25" y="-0.9765625">5×10</tspan>
        <tspan style="font: 7px 'DejaVu Sans'" x="31.458008" y="-4.8046875">0</tspan>
       </text>
      </g>
     </g>
    </g>
    <g id="ytick_3">
     <g id="line2d_21">
      <g>
       <use xlink:href="#ma789ec094f" x="64.41375" y="65.408696" style="stroke: #000000; stroke-width: 0.6"/>
      </g>
     </g>
     <g id="text_13">
      <!-- $\mathdefault{6\times10^{0}}$ -->
      <g transform="translate(22.81375 69.207915)">
       <text>
        <tspan style="font: 10px 'DejaVu Sans'" x="0 8.310547 18.637695 25" y="-0.9765625">6×10</tspan>
        <tspan style="font: 7px 'DejaVu Sans'" x="31.458008" y="-4.8046875">0</tspan>
       </text>
      </g>
     </g>
    </g>
    <g id="text_14">
     <text style="font: 12px 'DejaVu Sans', 'Bitstream Vera Sans', 'Computer Modern Sans Serif', 'Lucida Grande', 'Verdana', 'Geneva', 'Lucid', 'Arial', 'Helvetica', 'Avant Garde', sans-serif; text-anchor: middle" x="16.318125" y="276.572969" transform="rotate(-90 16.318125 276.572969)">Median Elapsed Time (nanoseconds)</text>
    </g>
   </g>
   <g id="line2d_22">
    <path d="M 94.744787 428.045632 
L 109.910305 428.045632 
L 125.075824 428.045632 
L 140.241342 428.045632 
L 155.406861 428.045632 
L 170.572379 428.045632 
L 185.737898 428.045632 
L 200.903416 428.045632 
L 216.068935 428.045632 
L 231.234453 428.045632 
L 246.399972 428.045632 
L 261.56549 430.479735 
L 276.731009 428.045632 
L 307.062045 430.479735 
L 322.227564 430.479735 
L 352.558601 428.045632 
L 367.724119 428.045632 
L 382.889638 428.045632 
L 398.055156 452.651141 
L 413.220675 428.045632 
L 443.551712 428.045632 
L 458.71723 428.045632 
L 473.882749 428.045632 
L 489.048267 428.045632 
L 519.379304 430.479735 
L 534.544822 430.479735 
L 549.710341 428.045632 
L 564.875859 430.479735 
L 580.041378 430.479735 
L 595.206896 428.045632 
L 610.372415 430.479735 
L 625.537933 430.479735 
L 655.86897 503.711099 
L 671.034489 503.711099 
L 686.200007 506.332202 
" clip-path="url(#pdfe0e13b96)" style="fill: none; stroke: #1f77b4; stroke-width: 2; stroke-linecap: square"/>
    <defs>
     <path id="m571cf38770" d="M 0 3 
C 0.795609 3 1.55874 2.683901 2.12132 2.12132 
C 2.683901 1.55874 3 0.795609 3 0 
C 3 -0.795609 2.683901 -1.55874 2.12132 -2.12132 
C 1.55874 -2.683901 0.795609 -3 0 -3 
C -0.795609 -3 -1.55874 -2.683901 -2.12132 -2.12132 
C -2.683901 -1.55874 -3 -0.795609 -3 0 
C -3 0.795609 -2.683901 1.55874 -2.12132 2.12132 
C -1.55874 2.683901 -0.795609 3 0 3 
z
" style="stroke: #1f77b4"/>
    </defs>
    <g clip-path="url(#pdfe0e13b96)">
     <use xlink:href="#m571cf38770" x="94.744787" y="428.045632" style="fill: #1f77b4; stroke: #1f77b4"/>
     <use xlink:href="#m571cf38770" x="109.910305" y="428.045632" style="fill: #1f77b4; stroke: #1f77b4"/>
     <use xlink:href="#m571cf38770" x="125.075824" y="428.045632" style="fill: #1f77b4; stroke: #1f77b4"/>
     <use xlink:href="#m571cf38770" x="140.241342" y="428.045632" style="fill: #1f77b4; stroke: #1f77b4"/>
     <use xlink:href="#m571cf38770" x="155.406861" y="428.045632" style="fill: #1f77b4; stroke: #1f77b4"/>
     <use xlink:href="#m571cf38770" x="170.572379" y="428.045632" style="fill: #1f77b4; stroke: #1f77b4"/>
     <use xlink:href="#m571cf38770" x="185.737898" y="428.045632" style="fill: #1f77b4; stroke: #1f77b4"/>
     <use xlink:href="#m571cf38770" x="200.903416" y="428.045632" style="fill: #1f77b4; stroke: #1f77b4"/>
     <use xlink:href="#m571cf38770" x="216.068935" y="428.045632" style="fill: #1f77b4; stroke: #1f77b4"/>
     <use xlink:href="#m571cf38770" x="231.234453" y="428.045632" style="fill: #1f77b4; stroke: #1f77b4"/>
     <use xlink:href="#m571cf38770" x="246.399972" y="428.045632" style="fill: #1f77b4; stroke: #1f77b4"/>
     <use xlink:href="#m571cf38770" x="261.56549" y="430.479735" style="fill: #1f77b4; stroke: #1f77b4"/>
     <use xlink:href="#m571cf38770" x="276.731009" y="428.045632" style="fill: #1f77b4; stroke: #1f77b4"/>
     <use xlink:href="#m571cf38770" x="307.062045" y="430.479735" style="fill: #1f77b4; stroke: #1f77b4"/>
     <use xlink:href="#m571cf38770" x="322.227564" y="430.479735" style="fill: #1f77b4; stroke: #1f77b4"/>
     <use xlink:href="#m571cf38770" x="352.558601" y="428.045632" style="fill: #1f77b4; stroke: #1f77b4"/>
     <use xlink:href="#m571cf38770" x="367.724119" y="428.045632" style="fill: #1f77b4; stroke: #1f77b4"/>
     <use xlink:href="#m571cf38770" x="382.889638" y="428.045632" style="fill: #1f77b4; stroke: #1f77b4"/>
     <use xlink:href="#m571cf38770" x="398.055156" y="452.651141" style="fill: #1f77b4; stroke: #1f77b4"/>
     <use xlink:href="#m571cf38770" x="413.220675" y="428.045632" style="fill: #1f77b4; stroke: #1f77b4"/>
     <use xlink:href="#m571cf38770" x="443.551712" y="428.045632" style="fill: #1f77b4; stroke: #1f77b4"/>
     <use xlink:href="#m571cf38770" x="458.71723" y="428.045632" style="fill: #1f77b4; stroke: #1f77b4"/>
     <use xlink:href="#m571cf38770" x="473.882749" y="428.045632" style="fill: #1f77b4; stroke: #1f77b4"/>
     <use xlink:href="#m571cf38770" x="489.048267" y="428.045632" style="fill: #1f77b4; stroke: #1f77b4"/>
     <use xlink:href="#m571cf38770" x="519.379304" y="430.479735" style="fill: #1f77b4; stroke: #1f77b4"/>
     <use xlink:href="#m571cf38770" x="534.544822" y="430.479735" style="fill: #1f77b4; stroke: #1f77b4"/>
     <use xlink:href="#m571cf38770" x="549.710341" y="428.045632" style="fill: #1f77b4; stroke: #1f77b4"/>
     <use xlink:href="#m571cf38770" x="564.875859" y="430.479735" style="fill: #1f77b4; stroke: #1f77b4"/>
     <use xlink:href="#m571cf38770" x="580.041378" y="430.479735" style="fill: #1f77b4; stroke: #1f77b4"/>
     <use xlink:href="#m571cf38770" x="595.206896" y="428.045632" style="fill: #1f77b4; stroke: #1f77b4"/>
     <use xlink:href="#m571cf38770" x="610.372415" y="430.479735" style="fill: #1f77b4; stroke: #1f77b4"/>
     <use xlink:href="#m571cf38770" x="625.537933" y="430.479735" style="fill: #1f77b4; stroke: #1f77b4"/>
     <use xlink:href="#m571cf38770" x="655.86897" y="503.711099" style="fill: #1f77b4; stroke: #1f77b4"/>
     <use xlink:href="#m571cf38770" x="671.034489" y="503.711099" style="fill: #1f77b4; stroke: #1f77b4"/>
     <use xlink:href="#m571cf38770" x="686.200007" y="506.332202" style="fill: #1f77b4; stroke: #1f77b4"/>
    </g>
   </g>
   <g id="line2d_23">
    <path d="M 94.744787 503.711099 
L 109.910305 404.01777 
L 125.075824 406.395332 
L 140.241342 428.045632 
L 155.406861 406.395332 
L 170.572379 428.045632 
L 185.737898 428.045632 
L 200.903416 406.395332 
L 216.068935 428.045632 
L 231.234453 404.01777 
L 246.399972 428.045632 
L 261.56549 406.395332 
L 276.731009 404.01777 
L 291.896527 404.01777 
L 307.062045 428.045632 
L 322.227564 406.395332 
L 352.558601 406.395332 
L 367.724119 406.395332 
L 382.889638 428.045632 
L 398.055156 404.01777 
L 413.220675 406.395332 
L 428.386193 406.395332 
L 443.551712 406.395332 
L 458.71723 404.01777 
L 473.882749 406.395332 
L 489.048267 46.813736 
L 519.379304 428.045632 
L 534.544822 428.045632 
L 549.710341 406.395332 
L 564.875859 404.01777 
L 580.041378 404.01777 
L 595.206896 404.01777 
L 610.372415 406.395332 
L 625.537933 404.01777 
L 655.86897 404.01777 
L 671.034489 428.045632 
L 686.200007 406.395332 
L 701.365526 406.395332 
" clip-path="url(#pdfe0e13b96)" style="fill: none; stroke: #ff7f0e; stroke-width: 2; stroke-linecap: square"/>
    <defs>
     <path id="m63355904cc" d="M 0 3 
C 0.795609 3 1.55874 2.683901 2.12132 2.12132 
C 2.683901 1.55874 3 0.795609 3 0 
C 3 -0.795609 2.683901 -1.55874 2.12132 -2.12132 
C 1.55874 -2.683901 0.795609 -3 0 -3 
C -0.795609 -3 -1.55874 -2.683901 -2.12132 -2.12132 
C -2.683901 -1.55874 -3 -0.795609 -3 0 
C -3 0.795609 -2.683901 1.55874 -2.12132 2.12132 
C -1.55874 2.683901 -0.795609 3 0 3 
z
" style="stroke: #ff7f0e"/>
    </defs>
    <g clip-path="url(#pdfe0e13b96)">
     <use xlink:href="#m63355904cc" x="94.744787" y="503.711099" style="fill: #ff7f0e; stroke: #ff7f0e"/>
     <use xlink:href="#m63355904cc" x="109.910305" y="404.01777" style="fill: #ff7f0e; stroke: #ff7f0e"/>
     <use xlink:href="#m63355904cc" x="125.075824" y="406.395332" style="fill: #ff7f0e; stroke: #ff7f0e"/>
     <use xlink:href="#m63355904cc" x="140.241342" y="428.045632" style="fill: #ff7f0e; stroke: #ff7f0e"/>
     <use xlink:href="#m63355904cc" x="155.406861" y="406.395332" style="fill: #ff7f0e; stroke: #ff7f0e"/>
     <use xlink:href="#m63355904cc" x="170.572379" y="428.045632" style="fill: #ff7f0e; stroke: #ff7f0e"/>
     <use xlink:href="#m63355904cc" x="185.737898" y="428.045632" style="fill: #ff7f0e; stroke: #ff7f0e"/>
     <use xlink:href="#m63355904cc" x="200.903416" y="406.395332" style="fill: #ff7f0e; stroke: #ff7f0e"/>
     <use xlink:href="#m63355904cc" x="216.068935" y="428.045632" style="fill: #ff7f0e; stroke: #ff7f0e"/>
     <use xlink:href="#m63355904cc" x="231.234453" y="404.01777" style="fill: #ff7f0e; stroke: #ff7f0e"/>
     <use xlink:href="#m63355904cc" x="246.399972" y="428.045632" style="fill: #ff7f0e; stroke: #ff7f0e"/>
     <use xlink:href="#m63355904cc" x="261.56549" y="406.395332" style="fill: #ff7f0e; stroke: #ff7f0e"/>
     <use xlink:href="#m63355904cc" x="276.731009" y="404.01777" style="fill: #ff7f0e; stroke: #ff7f0e"/>
     <use xlink:href="#m63355904cc" x="291.896527" y="404.01777" style="fill: #ff7f0e; stroke: #ff7f0e"/>
     <use xlink:href="#m63355904cc" x="307.062045" y="428.045632" style="fill: #ff7f0e; stroke: #ff7f0e"/>
     <use xlink:href="#m63355904cc" x="322.227564" y="406.395332" style="fill: #ff7f0e; stroke: #ff7f0e"/>
     <use xlink:href="#m63355904cc" x="352.558601" y="406.395332" style="fill: #ff7f0e; stroke: #ff7f0e"/>
     <use xlink:href="#m63355904cc" x="367.724119" y="406.395332" style="fill: #ff7f0e; stroke: #ff7f0e"/>
     <use xlink:href="#m63355904cc" x="382.889638" y="428.045632" style="fill: #ff7f0e; stroke: #ff7f0e"/>
     <use xlink:href="#m63355904cc" x="398.055156" y="404.01777" style="fill: #ff7f0e; stroke: #ff7f0e"/>
     <use xlink:href="#m63355904cc" x="413.220675" y="406.395332" style="fill: #ff7f0e; stroke: #ff7f0e"/>
     <use xlink:href="#m63355904cc" x="428.386193" y="406.395332" style="fill: #ff7f0e; stroke: #ff7f0e"/>
     <use xlink:href="#m63355904cc" x="443.551712" y="406.395332" style="fill: #ff7f0e; stroke: #ff7f0e"/>
     <use xlink:href="#m63355904cc" x="458.71723" y="404.01777" style="fill: #ff7f0e; stroke: #ff7f0e"/>
     <use xlink:href="#m63355904cc" x="473.882749" y="406.395332" style="fill: #ff7f0e; stroke: #ff7f0e"/>
     <use xlink:href="#m63355904cc" x="489.048267" y="46.813736" style="fill: #ff7f0e; stroke: #ff7f0e"/>
     <use xlink:href="#m63355904cc" x="519.379304" y="428.045632" style="fill: #ff7f0e; stroke: #ff7f0e"/>
     <use xlink:href="#m63355904cc" x="534.544822" y="428.045632" style="fill: #ff7f0e; stroke: #ff7f0e"/>
     <use xlink:href="#m63355904cc" x="549.710341" y="406.395332" style="fill: #ff7f0e; stroke: #ff7f0e"/>
     <use xlink:href="#m63355904cc" x="564.875859" y="404.01777" style="fill: #ff7f0e; stroke: #ff7f0e"/>
     <use xlink:href="#m63355904cc" x="580.041378" y="404.01777" style="fill: #ff7f0e; stroke: #ff7f0e"/>
     <use xlink:href="#m63355904cc" x="595.206896" y="404.01777" style="fill: #ff7f0e; stroke: #ff7f0e"/>
     <use xlink:href="#m63355904cc" x="610.372415" y="406.395332" style="fill: #ff7f0e; stroke: #ff7f0e"/>
     <use xlink:href="#m63355904cc" x="625.537933" y="404.01777" style="fill: #ff7f0e; stroke: #ff7f0e"/>
     <use xlink:href="#m63355904cc" x="655.86897" y="404.01777" style="fill: #ff7f0e; stroke: #ff7f0e"/>
     <use xlink:href="#m63355904cc" x="671.034489" y="428.045632" style="fill: #ff7f0e; stroke: #ff7f0e"/>
     <use xlink:href="#m63355904cc" x="686.200007" y="406.395332" style="fill: #ff7f0e; stroke: #ff7f0e"/>
     <use xlink:href="#m63355904cc" x="701.365526" y="406.395332" style="fill: #ff7f0e; stroke: #ff7f0e"/>
    </g>
   </g>
   <g id="patch_3">
    <path d="M 64.41375 529.308125 
L 64.41375 23.837812 
" style="fill: none; stroke: #000000; stroke-width: 0.8; stroke-linejoin: miter; stroke-linecap: square"/>
   </g>
   <g id="patch_4">
    <path d="M 731.696562 529.308125 
L 731.696562 23.837812 
" style="fill: none; stroke: #000000; stroke-width: 0.8; stroke-linejoin: miter; stroke-linecap: square"/>
   </g>
   <g id="patch_5">
    <path d="M 64.41375 529.308125 
L 731.696562 529.308125 
" style="fill: none; stroke: #000000; stroke-width: 0.8; stroke-linejoin: miter; stroke-linecap: square"/>
   </g>
   <g id="patch_6">
    <path d="M 64.41375 23.837812 
L 731.696562 23.837812 
" style="fill: none; stroke: #000000; stroke-width: 0.8; stroke-linejoin: miter; stroke-linecap: square"/>
   </g>
   <g id="text_15">
    <text style="font: 700 14px 'DejaVu Sans', 'Bitstream Vera Sans', 'Computer Modern Sans Serif', 'Lucida Grande', 'Verdana', 'Geneva', 'Lucid', 'Arial', 'Helvetica', 'Avant Garde', sans-serif; text-anchor: middle" x="398.055156" y="17.837813" transform="rotate(-0 398.055156 17.837813)">Ts Thread Local Single Thread - Performance Trend</text>
   </g>
   <g id="legend_1">
    <g id="patch_7">
     <path d="M 772.060703 61.194063 
L 847.484141 61.194063 
Q 849.484141 61.194063 849.484141 59.194063 
L 849.484141 30.837813 
Q 849.484141 28.837813 847.484141 28.837813 
L 772.060703 28.837813 
Q 770.060703 28.837813 770.060703 30.837813 
L 770.060703 59.194063 
Q 770.060703 61.194063 772.060703 61.194063 
z
" style="fill: #ffffff; opacity: 0.8; stroke: #cccccc; stroke-linejoin: miter"/>
    </g>
    <g id="line2d_24">
     <path d="M 774.060703 36.93625 
L 784.060703 36.93625 
L 794.060703 36.93625 
" style="fill: none; stroke: #1f77b4; stroke-width: 2; stroke-linecap: square"/>
     <g>
      <use xlink:href="#m571cf38770" x="784.060703" y="36.93625" style="fill: #1f77b4; stroke: #1f77b4"/>
     </g>
    </g>
    <g id="text_16">
     <text style="font: 10px 'DejaVu Sans', 'Bitstream Vera Sans', 'Computer Modern Sans Serif', 'Lucida Grande', 'Verdana', 'Geneva', 'Lucid', 'Arial', 'Helvetica', 'Avant Garde', sans-serif; text-anchor: start" x="802.060703" y="40.43625" transform="rotate(-0 802.060703 40.43625)">clang-18</text>
    </g>
    <g id="line2d_25">
     <path d="M 774.060703 51.614375 
L 784.060703 51.614375 
L 794.060703 51.614375 
" style="fill: none; stroke: #ff7f0e; stroke-width: 2; stroke-linecap: square"/>
     <g>
      <use xlink:href="#m63355904cc" x="784.060703" y="51.614375" style="fill: #ff7f0e; stroke: #ff7f0e"/>
     </g>
    </g>
    <g id="text_17">
     <text style="font: 10px 'DejaVu Sans', 'Bitstream Vera Sans', 'Computer Modern Sans Serif', 'Lucida Grande', 'Verdana', 'Geneva', 'Lucid', 'Arial', 'Helvetica', 'Avant Garde', sans-serif; text-anchor: start" x="802.060703" y="55.114375" transform="rotate(-0 802.060703 55.114375)">gcc-14</text>
    </g>
   </g>
  </g>
 </g>
 <defs>
  <clipPath id="pdfe0e13b96">
   <rect x="64.41375" y="23.837813" width="667.282812" height="505.470313"/>
  </clipPath>
 </defs>
</svg>
