<?xml version="1.0" encoding="utf-8" standalone="no"?>
<!DOCTYPE svg PUBLIC "-//W3C//DTD SVG 1.1//EN"
  "http://www.w3.org/Graphics/SVG/1.1/DTD/svg11.dtd">
<svg xmlns:xlink="http://www.w3.org/1999/xlink" width="854.724687pt" height="568.8pt" viewBox="0 0 854.724687 568.8" xmlns="http://www.w3.org/2000/svg" version="1.1">
 <metadata>
  <rdf:RDF xmlns:dc="http://purl.org/dc/elements/1.1/" xmlns:cc="http://creativecommons.org/ns#" xmlns:rdf="http://www.w3.org/1999/02/22-rdf-syntax-ns#">
   <cc:Work>
    <dc:type rdf:resource="http://purl.org/dc/dcmitype/StillImage"/>
    <dc:date>2025-08-03T22:35:28.646821</dc:date>
    <dc:format>image/svg+xml</dc:format>
    <dc:creator>
     <cc:Agent>
      <dc:title>Matplotlib v3.9.4, https://matplotlib.org/</dc:title>
     </cc:Agent>
    </dc:creator>
   </cc:Work>
  </rdf:RDF>
 </metadata>
 <defs>
  <style type="text/css">*{stroke-linejoin: round; stroke-linecap: butt}</style>
 </defs>
 <g id="figure_1">
  <g id="patch_1">
   <path d="M 0 568.8 
L 854.724687 568.8 
L 854.724687 0 
L 0 0 
z
" style="fill: #ffffff"/>
  </g>
  <g id="axes_1">
   <g id="patch_2">
    <path d="M 74.01375 529.308125 
L 702.1075 529.308125 
L 702.1075 23.837812 
L 74.01375 23.837812 
z
" style="fill: #ffffff"/>
   </g>
   <g id="matplotlib.axis_1">
    <g id="xtick_1">
     <g id="line2d_1">
      <path d="M 102.563466 529.308125 
L 102.563466 23.837812 
" clip-path="url(#pa827aff9f2)" style="fill: none; stroke: #b0b0b0; stroke-opacity: 0.3; stroke-width: 0.8; stroke-linecap: square"/>
     </g>
     <g id="line2d_2">
      <defs>
       <path id="m0049eb69e1" d="M 0 0 
L 0 3.5 
" style="stroke: #000000; stroke-width: 0.8"/>
      </defs>
      <g>
       <use xlink:href="#m0049eb69e1" x="102.563466" y="529.308125" style="stroke: #000000; stroke-width: 0.8"/>
      </g>
     </g>
     <g id="text_1">
      <text style="font: 10px 'DejaVu Sans', 'Bitstream Vera Sans', 'Computer Modern Sans Serif', 'Lucida Grande', 'Verdana', 'Geneva', 'Lucid', 'Arial', 'Helvetica', 'Avant Garde', sans-serif; text-anchor: middle" x="102.563466" y="543.906563" transform="rotate(-0 102.563466 543.906563)">71</text>
     </g>
    </g>
    <g id="xtick_2">
     <g id="line2d_3">
      <path d="M 173.937756 529.308125 
L 173.937756 23.837812 
" clip-path="url(#pa827aff9f2)" style="fill: none; stroke: #b0b0b0; stroke-opacity: 0.3; stroke-width: 0.8; stroke-linecap: square"/>
     </g>
     <g id="line2d_4">
      <g>
       <use xlink:href="#m0049eb69e1" x="173.937756" y="529.308125" style="stroke: #000000; stroke-width: 0.8"/>
      </g>
     </g>
     <g id="text_2">
      <text style="font: 10px 'DejaVu Sans', 'Bitstream Vera Sans', 'Computer Modern Sans Serif', 'Lucida Grande', 'Verdana', 'Geneva', 'Lucid', 'Arial', 'Helvetica', 'Avant Garde', sans-serif; text-anchor: middle" x="173.937756" y="543.906563" transform="rotate(-0 173.937756 543.906563)">72</text>
     </g>
    </g>
    <g id="xtick_3">
     <g id="line2d_5">
      <path d="M 245.312045 529.308125 
L 245.312045 23.837812 
" clip-path="url(#pa827aff9f2)" style="fill: none; stroke: #b0b0b0; stroke-opacity: 0.3; stroke-width: 0.8; stroke-linecap: square"/>
     </g>
     <g id="line2d_6">
      <g>
       <use xlink:href="#m0049eb69e1" x="245.312045" y="529.308125" style="stroke: #000000; stroke-width: 0.8"/>
      </g>
     </g>
     <g id="text_3">
      <text style="font: 10px 'DejaVu Sans', 'Bitstream Vera Sans', 'Computer Modern Sans Serif', 'Lucida Grande', 'Verdana', 'Geneva', 'Lucid', 'Arial', 'Helvetica', 'Avant Garde', sans-serif; text-anchor: middle" x="245.312045" y="543.906563" transform="rotate(-0 245.312045 543.906563)">73</text>
     </g>
    </g>
    <g id="xtick_4">
     <g id="line2d_7">
      <path d="M 316.686335 529.308125 
L 316.686335 23.837812 
" clip-path="url(#pa827aff9f2)" style="fill: none; stroke: #b0b0b0; stroke-opacity: 0.3; stroke-width: 0.8; stroke-linecap: square"/>
     </g>
     <g id="line2d_8">
      <g>
       <use xlink:href="#m0049eb69e1" x="316.686335" y="529.308125" style="stroke: #000000; stroke-width: 0.8"/>
      </g>
     </g>
     <g id="text_4">
      <text style="font: 10px 'DejaVu Sans', 'Bitstream Vera Sans', 'Computer Modern Sans Serif', 'Lucida Grande', 'Verdana', 'Geneva', 'Lucid', 'Arial', 'Helvetica', 'Avant Garde', sans-serif; text-anchor: middle" x="316.686335" y="543.906563" transform="rotate(-0 316.686335 543.906563)">74</text>
     </g>
    </g>
    <g id="xtick_5">
     <g id="line2d_9">
      <path d="M 388.060625 529.308125 
L 388.060625 23.837812 
" clip-path="url(#pa827aff9f2)" style="fill: none; stroke: #b0b0b0; stroke-opacity: 0.3; stroke-width: 0.8; stroke-linecap: square"/>
     </g>
     <g id="line2d_10">
      <g>
       <use xlink:href="#m0049eb69e1" x="388.060625" y="529.308125" style="stroke: #000000; stroke-width: 0.8"/>
      </g>
     </g>
     <g id="text_5">
      <text style="font: 10px 'DejaVu Sans', 'Bitstream Vera Sans', 'Computer Modern Sans Serif', 'Lucida Grande', 'Verdana', 'Geneva', 'Lucid', 'Arial', 'Helvetica', 'Avant Garde', sans-serif; text-anchor: middle" x="388.060625" y="543.906563" transform="rotate(-0 388.060625 543.906563)">75</text>
     </g>
    </g>
    <g id="xtick_6">
     <g id="line2d_11">
      <path d="M 459.434915 529.308125 
L 459.434915 23.837812 
" clip-path="url(#pa827aff9f2)" style="fill: none; stroke: #b0b0b0; stroke-opacity: 0.3; stroke-width: 0.8; stroke-linecap: square"/>
     </g>
     <g id="line2d_12">
      <g>
       <use xlink:href="#m0049eb69e1" x="459.434915" y="529.308125" style="stroke: #000000; stroke-width: 0.8"/>
      </g>
     </g>
     <g id="text_6">
      <text style="font: 10px 'DejaVu Sans', 'Bitstream Vera Sans', 'Computer Modern Sans Serif', 'Lucida Grande', 'Verdana', 'Geneva', 'Lucid', 'Arial', 'Helvetica', 'Avant Garde', sans-serif; text-anchor: middle" x="459.434915" y="543.906563" transform="rotate(-0 459.434915 543.906563)">76</text>
     </g>
    </g>
    <g id="xtick_7">
     <g id="line2d_13">
      <path d="M 530.809205 529.308125 
L 530.809205 23.837812 
" clip-path="url(#pa827aff9f2)" style="fill: none; stroke: #b0b0b0; stroke-opacity: 0.3; stroke-width: 0.8; stroke-linecap: square"/>
     </g>
     <g id="line2d_14">
      <g>
       <use xlink:href="#m0049eb69e1" x="530.809205" y="529.308125" style="stroke: #000000; stroke-width: 0.8"/>
      </g>
     </g>
     <g id="text_7">
      <text style="font: 10px 'DejaVu Sans', 'Bitstream Vera Sans', 'Computer Modern Sans Serif', 'Lucida Grande', 'Verdana', 'Geneva', 'Lucid', 'Arial', 'Helvetica', 'Avant Garde', sans-serif; text-anchor: middle" x="530.809205" y="543.906563" transform="rotate(-0 530.809205 543.906563)">77</text>
     </g>
    </g>
    <g id="xtick_8">
     <g id="line2d_15">
      <path d="M 602.183494 529.308125 
L 602.183494 23.837812 
" clip-path="url(#pa827aff9f2)" style="fill: none; stroke: #b0b0b0; stroke-opacity: 0.3; stroke-width: 0.8; stroke-linecap: square"/>
     </g>
     <g id="line2d_16">
      <g>
       <use xlink:href="#m0049eb69e1" x="602.183494" y="529.308125" style="stroke: #000000; stroke-width: 0.8"/>
      </g>
     </g>
     <g id="text_8">
      <text style="font: 10px 'DejaVu Sans', 'Bitstream Vera Sans', 'Computer Modern Sans Serif', 'Lucida Grande', 'Verdana', 'Geneva', 'Lucid', 'Arial', 'Helvetica', 'Avant Garde', sans-serif; text-anchor: middle" x="602.183494" y="543.906563" transform="rotate(-0 602.183494 543.906563)">78</text>
     </g>
    </g>
    <g id="xtick_9">
     <g id="line2d_17">
      <path d="M 673.557784 529.308125 
L 673.557784 23.837812 
" clip-path="url(#pa827aff9f2)" style="fill: none; stroke: #b0b0b0; stroke-opacity: 0.3; stroke-width: 0.8; stroke-linecap: square"/>
     </g>
     <g id="line2d_18">
      <g>
       <use xlink:href="#m0049eb69e1" x="673.557784" y="529.308125" style="stroke: #000000; stroke-width: 0.8"/>
      </g>
     </g>
     <g id="text_9">
      <text style="font: 10px 'DejaVu Sans', 'Bitstream Vera Sans', 'Computer Modern Sans Serif', 'Lucida Grande', 'Verdana', 'Geneva', 'Lucid', 'Arial', 'Helvetica', 'Avant Garde', sans-serif; text-anchor: middle" x="673.557784" y="543.906563" transform="rotate(-0 673.557784 543.906563)">79</text>
     </g>
    </g>
    <g id="text_10">
     <text style="font: 12px 'DejaVu Sans', 'Bitstream Vera Sans', 'Computer Modern Sans Serif', 'Lucida Grande', 'Verdana', 'Geneva', 'Lucid', 'Arial', 'Helvetica', 'Avant Garde', sans-serif; text-anchor: middle" x="388.060625" y="559.104375" transform="rotate(-0 388.060625 559.104375)">Build Number</text>
    </g>
   </g>
   <g id="matplotlib.axis_2">
    <g id="ytick_1">
     <g id="line2d_19">
      <defs>
       <path id="m35d3ab9765" d="M 0 0 
L -2 0 
" style="stroke: #000000; stroke-width: 0.6"/>
      </defs>
      <g>
       <use xlink:href="#m35d3ab9765" x="74.01375" y="466.628293" style="stroke: #000000; stroke-width: 0.6"/>
      </g>
     </g>
     <g id="text_11">
      <!-- $\mathdefault{1.2\times10^{5}}$ -->
      <g transform="translate(23.41375 470.427512)">
       <text>
        <tspan style="font: 10px 'DejaVu Sans'" x="0 6.362305 9.041016 17.351562 27.678711 34.041016" y="-0.06406250000000036">1.2×10</tspan>
        <tspan style="font: 7px 'DejaVu Sans'" x="40.499023" y="-3.8921875000000004">5</tspan>
       </text>
      </g>
     </g>
    </g>
    <g id="ytick_2">
     <g id="line2d_20">
      <g>
       <use xlink:href="#m35d3ab9765" x="74.01375" y="382.051266" style="stroke: #000000; stroke-width: 0.6"/>
      </g>
     </g>
     <g id="text_12">
      <!-- $\mathdefault{1.4\times10^{5}}$ -->
      <g transform="translate(22.81375 385.850485)">
       <text>
        <tspan style="font: 10px 'DejaVu Sans'" x="0 6.362305 9.541016 17.851562 28.178711 34.541016" y="-0.06406250000000036">1.4×10</tspan>
        <tspan style="font: 7px 'DejaVu Sans'" x="40.999023" y="-3.8921875000000004">5</tspan>
       </text>
      </g>
     </g>
    </g>
    <g id="ytick_3">
     <g id="line2d_21">
      <g>
       <use xlink:href="#m35d3ab9765" x="74.01375" y="308.787312" style="stroke: #000000; stroke-width: 0.6"/>
      </g>
     </g>
     <g id="text_13">
      <!-- $\mathdefault{1.6\times10^{5}}$ -->
      <g transform="translate(22.81375 312.586531)">
       <text>
        <tspan style="font: 10px 'DejaVu Sans'" x="0 6.362305 9.541016 17.851562 28.178711 34.541016" y="-0.06406250000000036">1.6×10</tspan>
        <tspan style="font: 7px 'DejaVu Sans'" x="40.999023" y="-3.8921875000000004">5</tspan>
       </text>
      </g>
     </g>
    </g>
    <g id="ytick_4">
     <g id="line2d_22">
      <g>
       <use xlink:href="#m35d3ab9765" x="74.01375" y="244.163926" style="stroke: #000000; stroke-width: 0.6"/>
      </g>
     </g>
     <g id="text_14">
      <!-- $\mathdefault{1.8\times10^{5}}$ -->
      <g transform="translate(23.11375 247.963144)">
       <text>
        <tspan style="font: 10px 'DejaVu Sans'" x="0 6.362305 9.291016 17.601562 27.928711 34.291016" y="-0.06406250000000036">1.8×10</tspan>
        <tspan style="font: 7px 'DejaVu Sans'" x="40.749023" y="-3.8921875000000004">5</tspan>
       </text>
      </g>
     </g>
    </g>
    <g id="ytick_5">
     <g id="line2d_23">
      <g>
       <use xlink:href="#m35d3ab9765" x="74.01375" y="186.356336" style="stroke: #000000; stroke-width: 0.6"/>
      </g>
     </g>
     <g id="text_15">
      <!-- $\mathdefault{2\times10^{5}}$ -->
      <g transform="translate(32.41375 190.155555)">
       <text>
        <tspan style="font: 10px 'DejaVu Sans'" x="0 8.310547 18.637695 25" y="-0.06406250000000036">2×10</tspan>
        <tspan style="font: 7px 'DejaVu Sans'" x="31.458008" y="-3.8921875000000004">5</tspan>
       </text>
      </g>
     </g>
    </g>
    <g id="ytick_6">
     <g id="line2d_24">
      <g>
       <use xlink:href="#m35d3ab9765" x="74.01375" y="134.063011" style="stroke: #000000; stroke-width: 0.6"/>
      </g>
     </g>
     <g id="text_16">
      <!-- $\mathdefault{2.2\times10^{5}}$ -->
      <g transform="translate(23.41375 137.86223)">
       <text>
        <tspan style="font: 10px 'DejaVu Sans'" x="0 6.362305 9.041016 17.351562 27.678711 34.041016" y="-0.06406250000000036">2.2×10</tspan>
        <tspan style="font: 7px 'DejaVu Sans'" x="40.499023" y="-3.8921875000000004">5</tspan>
       </text>
      </g>
     </g>
    </g>
    <g id="ytick_7">
     <g id="line2d_25">
      <g>
       <use xlink:href="#m35d3ab9765" x="74.01375" y="86.322945" style="stroke: #000000; stroke-width: 0.6"/>
      </g>
     </g>
     <g id="text_17">
      <!-- $\mathdefault{2.4\times10^{5}}$ -->
      <g transform="translate(22.81375 90.122164)">
       <text>
        <tspan style="font: 10px 'DejaVu Sans'" x="0 6.362305 9.541016 17.851562 28.178711 34.541016" y="-0.06406250000000036">2.4×10</tspan>
        <tspan style="font: 7px 'DejaVu Sans'" x="40.999023" y="-3.8921875000000004">5</tspan>
       </text>
      </g>
     </g>
    </g>
    <g id="ytick_8">
     <g id="line2d_26">
      <g>
       <use xlink:href="#m35d3ab9765" x="74.01375" y="42.406342" style="stroke: #000000; stroke-width: 0.6"/>
      </g>
     </g>
     <g id="text_18">
      <!-- $\mathdefault{2.6\times10^{5}}$ -->
      <g transform="translate(22.81375 46.205561)">
       <text>
        <tspan style="font: 10px 'DejaVu Sans'" x="0 6.362305 9.541016 17.851562 28.178711 34.541016" y="-0.06406250000000036">2.6×10</tspan>
        <tspan style="font: 7px 'DejaVu Sans'" x="40.999023" y="-3.8921875000000004">5</tspan>
       </text>
      </g>
     </g>
    </g>
    <g id="text_19">
     <text style="font: 12px 'DejaVu Sans', 'Bitstream Vera Sans', 'Computer Modern Sans Serif', 'Lucida Grande', 'Verdana', 'Geneva', 'Lucid', 'Arial', 'Helvetica', 'Avant Garde', sans-serif; text-anchor: middle" x="16.318125" y="276.572969" transform="rotate(-90 16.318125 276.572969)">Median Elapsed Time (nanoseconds)</text>
    </g>
   </g>
   <g id="line2d_27">
    <path d="M 102.563466 438.949088 
L 173.937756 69.729662 
L 245.312045 254.027121 
L 316.686335 402.174409 
L 388.060625 264.596762 
L 459.434915 385.219923 
L 530.809205 321.763916 
L 602.183494 109.354814 
L 673.557784 360.918257 
" clip-path="url(#pa827aff9f2)" style="fill: none; stroke: #1f77b4; stroke-width: 2; stroke-linecap: square"/>
    <defs>
     <path id="m34ec020992" d="M 0 3 
C 0.795609 3 1.55874 2.683901 2.12132 2.12132 
C 2.683901 1.55874 3 0.795609 3 0 
C 3 -0.795609 2.683901 -1.55874 2.12132 -2.12132 
C 1.55874 -2.683901 0.795609 -3 0 -3 
C -0.795609 -3 -1.55874 -2.683901 -2.12132 -2.12132 
C -2.683901 -1.55874 -3 -0.795609 -3 0 
C -3 0.795609 -2.683901 1.55874 -2.12132 2.12132 
C -1.55874 2.683901 -0.795609 3 0 3 
z
" style="stroke: #1f77b4"/>
    </defs>
    <g clip-path="url(#pa827aff9f2)">
     <use xlink:href="#m34ec020992" x="102.563466" y="438.949088" style="fill: #1f77b4; stroke: #1f77b4"/>
     <use xlink:href="#m34ec020992" x="173.937756" y="69.729662" style="fill: #1f77b4; stroke: #1f77b4"/>
     <use xlink:href="#m34ec020992" x="245.312045" y="254.027121" style="fill: #1f77b4; stroke: #1f77b4"/>
     <use xlink:href="#m34ec020992" x="316.686335" y="402.174409" style="fill: #1f77b4; stroke: #1f77b4"/>
     <use xlink:href="#m34ec020992" x="388.060625" y="264.596762" style="fill: #1f77b4; stroke: #1f77b4"/>
     <use xlink:href="#m34ec020992" x="459.434915" y="385.219923" style="fill: #1f77b4; stroke: #1f77b4"/>
     <use xlink:href="#m34ec020992" x="530.809205" y="321.763916" style="fill: #1f77b4; stroke: #1f77b4"/>
     <use xlink:href="#m34ec020992" x="602.183494" y="109.354814" style="fill: #1f77b4; stroke: #1f77b4"/>
     <use xlink:href="#m34ec020992" x="673.557784" y="360.918257" style="fill: #1f77b4; stroke: #1f77b4"/>
    </g>
   </g>
   <g id="line2d_28">
    <path d="M 102.563466 484.679068 
L 173.937756 476.973818 
L 245.312045 492.150047 
L 316.686335 474.836601 
L 388.060625 413.424845 
L 459.434915 500.384557 
L 530.809205 469.919617 
L 602.183494 506.332202 
L 673.557784 490.030778 
" clip-path="url(#pa827aff9f2)" style="fill: none; stroke: #ff7f0e; stroke-width: 2; stroke-linecap: square"/>
    <defs>
     <path id="m0f3dd24f05" d="M 0 3 
C 0.795609 3 1.55874 2.683901 2.12132 2.12132 
C 2.683901 1.55874 3 0.795609 3 0 
C 3 -0.795609 2.683901 -1.55874 2.12132 -2.12132 
C 1.55874 -2.683901 0.795609 -3 0 -3 
C -0.795609 -3 -1.55874 -2.683901 -2.12132 -2.12132 
C -2.683901 -1.55874 -3 -0.795609 -3 0 
C -3 0.795609 -2.683901 1.55874 -2.12132 2.12132 
C -1.55874 2.683901 -0.795609 3 0 3 
z
" style="stroke: #ff7f0e"/>
    </defs>
    <g clip-path="url(#pa827aff9f2)">
     <use xlink:href="#m0f3dd24f05" x="102.563466" y="484.679068" style="fill: #ff7f0e; stroke: #ff7f0e"/>
     <use xlink:href="#m0f3dd24f05" x="173.937756" y="476.973818" style="fill: #ff7f0e; stroke: #ff7f0e"/>
     <use xlink:href="#m0f3dd24f05" x="245.312045" y="492.150047" style="fill: #ff7f0e; stroke: #ff7f0e"/>
     <use xlink:href="#m0f3dd24f05" x="316.686335" y="474.836601" style="fill: #ff7f0e; stroke: #ff7f0e"/>
     <use xlink:href="#m0f3dd24f05" x="388.060625" y="413.424845" style="fill: #ff7f0e; stroke: #ff7f0e"/>
     <use xlink:href="#m0f3dd24f05" x="459.434915" y="500.384557" style="fill: #ff7f0e; stroke: #ff7f0e"/>
     <use xlink:href="#m0f3dd24f05" x="530.809205" y="469.919617" style="fill: #ff7f0e; stroke: #ff7f0e"/>
     <use xlink:href="#m0f3dd24f05" x="602.183494" y="506.332202" style="fill: #ff7f0e; stroke: #ff7f0e"/>
     <use xlink:href="#m0f3dd24f05" x="673.557784" y="490.030778" style="fill: #ff7f0e; stroke: #ff7f0e"/>
    </g>
   </g>
   <g id="line2d_29">
    <path d="M 102.563466 298.275089 
L 173.937756 133.778278 
L 245.312045 87.290133 
L 316.686335 66.86308 
L 388.060625 280.042975 
L 459.434915 61.215078 
L 530.809205 135.882604 
L 602.183494 74.476918 
L 673.557784 243.451125 
" clip-path="url(#pa827aff9f2)" style="fill: none; stroke: #2ca02c; stroke-width: 2; stroke-linecap: square"/>
    <defs>
     <path id="m24c069fa1a" d="M 0 3 
C 0.795609 3 1.55874 2.683901 2.12132 2.12132 
C 2.683901 1.55874 3 0.795609 3 0 
C 3 -0.795609 2.683901 -1.55874 2.12132 -2.12132 
C 1.55874 -2.683901 0.795609 -3 0 -3 
C -0.795609 -3 -1.55874 -2.683901 -2.12132 -2.12132 
C -2.683901 -1.55874 -3 -0.795609 -3 0 
C -3 0.795609 -2.683901 1.55874 -2.12132 2.12132 
C -1.55874 2.683901 -0.795609 3 0 3 
z
" style="stroke: #2ca02c"/>
    </defs>
    <g clip-path="url(#pa827aff9f2)">
     <use xlink:href="#m24c069fa1a" x="102.563466" y="298.275089" style="fill: #2ca02c; stroke: #2ca02c"/>
     <use xlink:href="#m24c069fa1a" x="173.937756" y="133.778278" style="fill: #2ca02c; stroke: #2ca02c"/>
     <use xlink:href="#m24c069fa1a" x="245.312045" y="87.290133" style="fill: #2ca02c; stroke: #2ca02c"/>
     <use xlink:href="#m24c069fa1a" x="316.686335" y="66.86308" style="fill: #2ca02c; stroke: #2ca02c"/>
     <use xlink:href="#m24c069fa1a" x="388.060625" y="280.042975" style="fill: #2ca02c; stroke: #2ca02c"/>
     <use xlink:href="#m24c069fa1a" x="459.434915" y="61.215078" style="fill: #2ca02c; stroke: #2ca02c"/>
     <use xlink:href="#m24c069fa1a" x="530.809205" y="135.882604" style="fill: #2ca02c; stroke: #2ca02c"/>
     <use xlink:href="#m24c069fa1a" x="602.183494" y="74.476918" style="fill: #2ca02c; stroke: #2ca02c"/>
     <use xlink:href="#m24c069fa1a" x="673.557784" y="243.451125" style="fill: #2ca02c; stroke: #2ca02c"/>
    </g>
   </g>
   <g id="line2d_30">
    <path d="M 102.563466 373.029381 
L 173.937756 352.306221 
L 245.312045 121.036953 
L 316.686335 344.804476 
L 388.060625 370.529259 
L 459.434915 355.154568 
L 530.809205 404.059127 
L 602.183494 143.604983 
L 673.557784 46.813736 
" clip-path="url(#pa827aff9f2)" style="fill: none; stroke: #d62728; stroke-width: 2; stroke-linecap: square"/>
    <defs>
     <path id="mfd77597575" d="M 0 3 
C 0.795609 3 1.55874 2.683901 2.12132 2.12132 
C 2.683901 1.55874 3 0.795609 3 0 
C 3 -0.795609 2.683901 -1.55874 2.12132 -2.12132 
C 1.55874 -2.683901 0.795609 -3 0 -3 
C -0.795609 -3 -1.55874 -2.683901 -2.12132 -2.12132 
C -2.683901 -1.55874 -3 -0.795609 -3 0 
C -3 0.795609 -2.683901 1.55874 -2.12132 2.12132 
C -1.55874 2.683901 -0.795609 3 0 3 
z
" style="stroke: #d62728"/>
    </defs>
    <g clip-path="url(#pa827aff9f2)">
     <use xlink:href="#mfd77597575" x="102.563466" y="373.029381" style="fill: #d62728; stroke: #d62728"/>
     <use xlink:href="#mfd77597575" x="173.937756" y="352.306221" style="fill: #d62728; stroke: #d62728"/>
     <use xlink:href="#mfd77597575" x="245.312045" y="121.036953" style="fill: #d62728; stroke: #d62728"/>
     <use xlink:href="#mfd77597575" x="316.686335" y="344.804476" style="fill: #d62728; stroke: #d62728"/>
     <use xlink:href="#mfd77597575" x="388.060625" y="370.529259" style="fill: #d62728; stroke: #d62728"/>
     <use xlink:href="#mfd77597575" x="459.434915" y="355.154568" style="fill: #d62728; stroke: #d62728"/>
     <use xlink:href="#mfd77597575" x="530.809205" y="404.059127" style="fill: #d62728; stroke: #d62728"/>
     <use xlink:href="#mfd77597575" x="602.183494" y="143.604983" style="fill: #d62728; stroke: #d62728"/>
     <use xlink:href="#mfd77597575" x="673.557784" y="46.813736" style="fill: #d62728; stroke: #d62728"/>
    </g>
   </g>
   <g id="line2d_31">
    <path d="M 102.563466 464.309605 
L 173.937756 477.077263 
L 245.312045 449.069256 
L 316.686335 470.788271 
L 388.060625 431.46267 
L 459.434915 463.363867 
L 530.809205 485.143272 
L 602.183494 453.689998 
L 673.557784 449.582281 
" clip-path="url(#pa827aff9f2)" style="fill: none; stroke: #9467bd; stroke-width: 2; stroke-linecap: square"/>
    <defs>
     <path id="mcb31e1fb29" d="M 0 3 
C 0.795609 3 1.55874 2.683901 2.12132 2.12132 
C 2.683901 1.55874 3 0.795609 3 0 
C 3 -0.795609 2.683901 -1.55874 2.12132 -2.12132 
C 1.55874 -2.683901 0.795609 -3 0 -3 
C -0.795609 -3 -1.55874 -2.683901 -2.12132 -2.12132 
C -2.683901 -1.55874 -3 -0.795609 -3 0 
C -3 0.795609 -2.683901 1.55874 -2.12132 2.12132 
C -1.55874 2.683901 -0.795609 3 0 3 
z
" style="stroke: #9467bd"/>
    </defs>
    <g clip-path="url(#pa827aff9f2)">
     <use xlink:href="#mcb31e1fb29" x="102.563466" y="464.309605" style="fill: #9467bd; stroke: #9467bd"/>
     <use xlink:href="#mcb31e1fb29" x="173.937756" y="477.077263" style="fill: #9467bd; stroke: #9467bd"/>
     <use xlink:href="#mcb31e1fb29" x="245.312045" y="449.069256" style="fill: #9467bd; stroke: #9467bd"/>
     <use xlink:href="#mcb31e1fb29" x="316.686335" y="470.788271" style="fill: #9467bd; stroke: #9467bd"/>
     <use xlink:href="#mcb31e1fb29" x="388.060625" y="431.46267" style="fill: #9467bd; stroke: #9467bd"/>
     <use xlink:href="#mcb31e1fb29" x="459.434915" y="463.363867" style="fill: #9467bd; stroke: #9467bd"/>
     <use xlink:href="#mcb31e1fb29" x="530.809205" y="485.143272" style="fill: #9467bd; stroke: #9467bd"/>
     <use xlink:href="#mcb31e1fb29" x="602.183494" y="453.689998" style="fill: #9467bd; stroke: #9467bd"/>
     <use xlink:href="#mcb31e1fb29" x="673.557784" y="449.582281" style="fill: #9467bd; stroke: #9467bd"/>
    </g>
   </g>
   <g id="line2d_32">
    <path d="M 102.563466 326.32742 
L 173.937756 87.537752 
L 245.312045 329.290706 
L 316.686335 303.293627 
L 388.060625 246.92087 
L 459.434915 315.864585 
L 530.809205 294.052641 
L 602.183494 236.128424 
L 673.557784 283.631949 
" clip-path="url(#pa827aff9f2)" style="fill: none; stroke: #8c564b; stroke-width: 2; stroke-linecap: square"/>
    <defs>
     <path id="mc19cbe64f3" d="M 0 3 
C 0.795609 3 1.55874 2.683901 2.12132 2.12132 
C 2.683901 1.55874 3 0.795609 3 0 
C 3 -0.795609 2.683901 -1.55874 2.12132 -2.12132 
C 1.55874 -2.683901 0.795609 -3 0 -3 
C -0.795609 -3 -1.55874 -2.683901 -2.12132 -2.12132 
C -2.683901 -1.55874 -3 -0.795609 -3 0 
C -3 0.795609 -2.683901 1.55874 -2.12132 2.12132 
C -1.55874 2.683901 -0.795609 3 0 3 
z
" style="stroke: #8c564b"/>
    </defs>
    <g clip-path="url(#pa827aff9f2)">
     <use xlink:href="#mc19cbe64f3" x="102.563466" y="326.32742" style="fill: #8c564b; stroke: #8c564b"/>
     <use xlink:href="#mc19cbe64f3" x="173.937756" y="87.537752" style="fill: #8c564b; stroke: #8c564b"/>
     <use xlink:href="#mc19cbe64f3" x="245.312045" y="329.290706" style="fill: #8c564b; stroke: #8c564b"/>
     <use xlink:href="#mc19cbe64f3" x="316.686335" y="303.293627" style="fill: #8c564b; stroke: #8c564b"/>
     <use xlink:href="#mc19cbe64f3" x="388.060625" y="246.92087" style="fill: #8c564b; stroke: #8c564b"/>
     <use xlink:href="#mc19cbe64f3" x="459.434915" y="315.864585" style="fill: #8c564b; stroke: #8c564b"/>
     <use xlink:href="#mc19cbe64f3" x="530.809205" y="294.052641" style="fill: #8c564b; stroke: #8c564b"/>
     <use xlink:href="#mc19cbe64f3" x="602.183494" y="236.128424" style="fill: #8c564b; stroke: #8c564b"/>
     <use xlink:href="#mc19cbe64f3" x="673.557784" y="283.631949" style="fill: #8c564b; stroke: #8c564b"/>
    </g>
   </g>
   <g id="patch_3">
    <path d="M 74.01375 529.308125 
L 74.01375 23.837813 
" style="fill: none; stroke: #000000; stroke-width: 0.8; stroke-linejoin: miter; stroke-linecap: square"/>
   </g>
   <g id="patch_4">
    <path d="M 702.1075 529.308125 
L 702.1075 23.837813 
" style="fill: none; stroke: #000000; stroke-width: 0.8; stroke-linejoin: miter; stroke-linecap: square"/>
   </g>
   <g id="patch_5">
    <path d="M 74.01375 529.308125 
L 702.1075 529.308125 
" style="fill: none; stroke: #000000; stroke-width: 0.8; stroke-linejoin: miter; stroke-linecap: square"/>
   </g>
   <g id="patch_6">
    <path d="M 74.01375 23.837812 
L 702.1075 23.837812 
" style="fill: none; stroke: #000000; stroke-width: 0.8; stroke-linejoin: miter; stroke-linecap: square"/>
   </g>
   <g id="text_20">
    <text style="font: 700 14px 'DejaVu Sans', 'Bitstream Vera Sans', 'Computer Modern Sans Serif', 'Lucida Grande', 'Verdana', 'Geneva', 'Lucid', 'Arial', 'Helvetica', 'Avant Garde', sans-serif; text-anchor: middle" x="388.060625" y="17.837813" transform="rotate(-0 388.060625 17.837813)">Tasksubmission - Performance Trend</text>
   </g>
   <g id="legend_1">
    <g id="patch_7">
     <path d="M 740.512187 119.906563 
L 845.524688 119.906563 
Q 847.524688 119.906563 847.524688 117.906563 
L 847.524688 30.837813 
Q 847.524688 28.837813 845.524688 28.837813 
L 740.512187 28.837813 
Q 738.512187 28.837813 738.512187 30.837813 
L 738.512187 117.906563 
Q 738.512187 119.906563 740.512187 119.906563 
z
" style="fill: #ffffff; opacity: 0.8; stroke: #cccccc; stroke-linejoin: miter"/>
    </g>
    <g id="line2d_33">
     <path d="M 742.512187 36.93625 
L 752.512187 36.93625 
L 762.512187 36.93625 
" style="fill: none; stroke: #1f77b4; stroke-width: 2; stroke-linecap: square"/>
     <g>
      <use xlink:href="#m34ec020992" x="752.512187" y="36.93625" style="fill: #1f77b4; stroke: #1f77b4"/>
     </g>
    </g>
    <g id="text_21">
     <text style="font: 10px 'DejaVu Sans', 'Bitstream Vera Sans', 'Computer Modern Sans Serif', 'Lucida Grande', 'Verdana', 'Geneva', 'Lucid', 'Arial', 'Helvetica', 'Avant Garde', sans-serif; text-anchor: start" x="770.512187" y="40.43625" transform="rotate(-0 770.512187 40.43625)">gcc-14.2 - V1</text>
    </g>
    <g id="line2d_34">
     <path d="M 742.512187 51.614375 
L 752.512187 51.614375 
L 762.512187 51.614375 
" style="fill: none; stroke: #ff7f0e; stroke-width: 2; stroke-linecap: square"/>
     <g>
      <use xlink:href="#m0f3dd24f05" x="752.512187" y="51.614375" style="fill: #ff7f0e; stroke: #ff7f0e"/>
     </g>
    </g>
    <g id="text_22">
     <text style="font: 10px 'DejaVu Sans', 'Bitstream Vera Sans', 'Computer Modern Sans Serif', 'Lucida Grande', 'Verdana', 'Geneva', 'Lucid', 'Arial', 'Helvetica', 'Avant Garde', sans-serif; text-anchor: start" x="770.512187" y="55.114375" transform="rotate(-0 770.512187 55.114375)">gcc-14.2 - V2</text>
    </g>
    <g id="line2d_35">
     <path d="M 742.512187 66.2925 
L 752.512187 66.2925 
L 762.512187 66.2925 
" style="fill: none; stroke: #2ca02c; stroke-width: 2; stroke-linecap: square"/>
     <g>
      <use xlink:href="#m24c069fa1a" x="752.512187" y="66.2925" style="fill: #2ca02c; stroke: #2ca02c"/>
     </g>
    </g>
    <g id="text_23">
     <text style="font: 10px 'DejaVu Sans', 'Bitstream Vera Sans', 'Computer Modern Sans Serif', 'Lucida Grande', 'Verdana', 'Geneva', 'Lucid', 'Arial', 'Helvetica', 'Avant Garde', sans-serif; text-anchor: start" x="770.512187" y="69.7925" transform="rotate(-0 770.512187 69.7925)">gcc-14.2 - TBB</text>
    </g>
    <g id="line2d_36">
     <path d="M 742.512187 80.970625 
L 752.512187 80.970625 
L 762.512187 80.970625 
" style="fill: none; stroke: #d62728; stroke-width: 2; stroke-linecap: square"/>
     <g>
      <use xlink:href="#mfd77597575" x="752.512187" y="80.970625" style="fill: #d62728; stroke: #d62728"/>
     </g>
    </g>
    <g id="text_24">
     <text style="font: 10px 'DejaVu Sans', 'Bitstream Vera Sans', 'Computer Modern Sans Serif', 'Lucida Grande', 'Verdana', 'Geneva', 'Lucid', 'Arial', 'Helvetica', 'Avant Garde', sans-serif; text-anchor: start" x="770.512187" y="84.470625" transform="rotate(-0 770.512187 84.470625)">gcc-4.2 - V1</text>
    </g>
    <g id="line2d_37">
     <path d="M 742.512187 95.64875 
L 752.512187 95.64875 
L 762.512187 95.64875 
" style="fill: none; stroke: #9467bd; stroke-width: 2; stroke-linecap: square"/>
     <g>
      <use xlink:href="#mcb31e1fb29" x="752.512187" y="95.64875" style="fill: #9467bd; stroke: #9467bd"/>
     </g>
    </g>
    <g id="text_25">
     <text style="font: 10px 'DejaVu Sans', 'Bitstream Vera Sans', 'Computer Modern Sans Serif', 'Lucida Grande', 'Verdana', 'Geneva', 'Lucid', 'Arial', 'Helvetica', 'Avant Garde', sans-serif; text-anchor: start" x="770.512187" y="99.14875" transform="rotate(-0 770.512187 99.14875)">gcc-4.2 - V2</text>
    </g>
    <g id="line2d_38">
     <path d="M 742.512187 110.326875 
L 752.512187 110.326875 
L 762.512187 110.326875 
" style="fill: none; stroke: #8c564b; stroke-width: 2; stroke-linecap: square"/>
     <g>
      <use xlink:href="#mc19cbe64f3" x="752.512187" y="110.326875" style="fill: #8c564b; stroke: #8c564b"/>
     </g>
    </g>
    <g id="text_26">
     <text style="font: 10px 'DejaVu Sans', 'Bitstream Vera Sans', 'Computer Modern Sans Serif', 'Lucida Grande', 'Verdana', 'Geneva', 'Lucid', 'Arial', 'Helvetica', 'Avant Garde', sans-serif; text-anchor: start" x="770.512187" y="113.826875" transform="rotate(-0 770.512187 113.826875)">gcc-4.2 - TBB</text>
    </g>
   </g>
  </g>
 </g>
 <defs>
  <clipPath id="pa827aff9f2">
   <rect x="74.01375" y="23.837813" width="628.09375" height="505.470313"/>
  </clipPath>
 </defs>
</svg>
