<?xml version="1.0" encoding="utf-8" standalone="no"?>
<!DOCTYPE svg PUBLIC "-//W3C//DTD SVG 1.1//EN"
  "http://www.w3.org/Graphics/SVG/1.1/DTD/svg11.dtd">
<svg xmlns:xlink="http://www.w3.org/1999/xlink" width="849.994062pt" height="568.8pt" viewBox="0 0 849.994062 568.8" xmlns="http://www.w3.org/2000/svg" version="1.1">
 <metadata>
  <rdf:RDF xmlns:dc="http://purl.org/dc/elements/1.1/" xmlns:cc="http://creativecommons.org/ns#" xmlns:rdf="http://www.w3.org/1999/02/22-rdf-syntax-ns#">
   <cc:Work>
    <dc:type rdf:resource="http://purl.org/dc/dcmitype/StillImage"/>
    <dc:date>2025-08-22T16:20:16.137124</dc:date>
    <dc:format>image/svg+xml</dc:format>
    <dc:creator>
     <cc:Agent>
      <dc:title>Matplotlib v3.9.4, https://matplotlib.org/</dc:title>
     </cc:Agent>
    </dc:creator>
   </cc:Work>
  </rdf:RDF>
 </metadata>
 <defs>
  <style type="text/css">*{stroke-linejoin: round; stroke-linecap: butt}</style>
 </defs>
 <g id="figure_1">
  <g id="patch_1">
   <path d="M 0 568.8 
L 849.994062 568.8 
L 849.994062 0 
L 0 0 
z
" style="fill: #ffffff"/>
  </g>
  <g id="axes_1">
   <g id="patch_2">
    <path d="M 64.41375 529.308125 
L 597.895 529.308125 
L 597.895 23.837812 
L 64.41375 23.837812 
z
" style="fill: #ffffff"/>
   </g>
   <g id="matplotlib.axis_1">
    <g id="xtick_1">
     <g id="line2d_1">
      <path d="M 88.662898 529.308125 
L 88.662898 23.837812 
" clip-path="url(#p39da51a150)" style="fill: none; stroke: #b0b0b0; stroke-opacity: 0.3; stroke-width: 0.8; stroke-linecap: square"/>
     </g>
     <g id="line2d_2">
      <defs>
       <path id="m9ff7623c9f" d="M 0 0 
L 0 3.5 
" style="stroke: #000000; stroke-width: 0.8"/>
      </defs>
      <g>
       <use xlink:href="#m9ff7623c9f" x="88.662898" y="529.308125" style="stroke: #000000; stroke-width: 0.8"/>
      </g>
     </g>
     <g id="text_1">
      <text style="font: 10px 'DejaVu Sans', 'Bitstream Vera Sans', 'Computer Modern Sans Serif', 'Lucida Grande', 'Verdana', 'Geneva', 'Lucid', 'Arial', 'Helvetica', 'Avant Garde', sans-serif; text-anchor: middle" x="88.662898" y="543.906563" transform="rotate(-0 88.662898 543.906563)">96.0</text>
     </g>
    </g>
    <g id="xtick_2">
     <g id="line2d_3">
      <path d="M 149.285767 529.308125 
L 149.285767 23.837812 
" clip-path="url(#p39da51a150)" style="fill: none; stroke: #b0b0b0; stroke-opacity: 0.3; stroke-width: 0.8; stroke-linecap: square"/>
     </g>
     <g id="line2d_4">
      <g>
       <use xlink:href="#m9ff7623c9f" x="149.285767" y="529.308125" style="stroke: #000000; stroke-width: 0.8"/>
      </g>
     </g>
     <g id="text_2">
      <text style="font: 10px 'DejaVu Sans', 'Bitstream Vera Sans', 'Computer Modern Sans Serif', 'Lucida Grande', 'Verdana', 'Geneva', 'Lucid', 'Arial', 'Helvetica', 'Avant Garde', sans-serif; text-anchor: middle" x="149.285767" y="543.906563" transform="rotate(-0 149.285767 543.906563)">96.5</text>
     </g>
    </g>
    <g id="xtick_3">
     <g id="line2d_5">
      <path d="M 209.908636 529.308125 
L 209.908636 23.837812 
" clip-path="url(#p39da51a150)" style="fill: none; stroke: #b0b0b0; stroke-opacity: 0.3; stroke-width: 0.8; stroke-linecap: square"/>
     </g>
     <g id="line2d_6">
      <g>
       <use xlink:href="#m9ff7623c9f" x="209.908636" y="529.308125" style="stroke: #000000; stroke-width: 0.8"/>
      </g>
     </g>
     <g id="text_3">
      <text style="font: 10px 'DejaVu Sans', 'Bitstream Vera Sans', 'Computer Modern Sans Serif', 'Lucida Grande', 'Verdana', 'Geneva', 'Lucid', 'Arial', 'Helvetica', 'Avant Garde', sans-serif; text-anchor: middle" x="209.908636" y="543.906563" transform="rotate(-0 209.908636 543.906563)">97.0</text>
     </g>
    </g>
    <g id="xtick_4">
     <g id="line2d_7">
      <path d="M 270.531506 529.308125 
L 270.531506 23.837812 
" clip-path="url(#p39da51a150)" style="fill: none; stroke: #b0b0b0; stroke-opacity: 0.3; stroke-width: 0.8; stroke-linecap: square"/>
     </g>
     <g id="line2d_8">
      <g>
       <use xlink:href="#m9ff7623c9f" x="270.531506" y="529.308125" style="stroke: #000000; stroke-width: 0.8"/>
      </g>
     </g>
     <g id="text_4">
      <text style="font: 10px 'DejaVu Sans', 'Bitstream Vera Sans', 'Computer Modern Sans Serif', 'Lucida Grande', 'Verdana', 'Geneva', 'Lucid', 'Arial', 'Helvetica', 'Avant Garde', sans-serif; text-anchor: middle" x="270.531506" y="543.906563" transform="rotate(-0 270.531506 543.906563)">97.5</text>
     </g>
    </g>
    <g id="xtick_5">
     <g id="line2d_9">
      <path d="M 331.154375 529.308125 
L 331.154375 23.837812 
" clip-path="url(#p39da51a150)" style="fill: none; stroke: #b0b0b0; stroke-opacity: 0.3; stroke-width: 0.8; stroke-linecap: square"/>
     </g>
     <g id="line2d_10">
      <g>
       <use xlink:href="#m9ff7623c9f" x="331.154375" y="529.308125" style="stroke: #000000; stroke-width: 0.8"/>
      </g>
     </g>
     <g id="text_5">
      <text style="font: 10px 'DejaVu Sans', 'Bitstream Vera Sans', 'Computer Modern Sans Serif', 'Lucida Grande', 'Verdana', 'Geneva', 'Lucid', 'Arial', 'Helvetica', 'Avant Garde', sans-serif; text-anchor: middle" x="331.154375" y="543.906563" transform="rotate(-0 331.154375 543.906563)">98.0</text>
     </g>
    </g>
    <g id="xtick_6">
     <g id="line2d_11">
      <path d="M 391.777244 529.308125 
L 391.777244 23.837812 
" clip-path="url(#p39da51a150)" style="fill: none; stroke: #b0b0b0; stroke-opacity: 0.3; stroke-width: 0.8; stroke-linecap: square"/>
     </g>
     <g id="line2d_12">
      <g>
       <use xlink:href="#m9ff7623c9f" x="391.777244" y="529.308125" style="stroke: #000000; stroke-width: 0.8"/>
      </g>
     </g>
     <g id="text_6">
      <text style="font: 10px 'DejaVu Sans', 'Bitstream Vera Sans', 'Computer Modern Sans Serif', 'Lucida Grande', 'Verdana', 'Geneva', 'Lucid', 'Arial', 'Helvetica', 'Avant Garde', sans-serif; text-anchor: middle" x="391.777244" y="543.906563" transform="rotate(-0 391.777244 543.906563)">98.5</text>
     </g>
    </g>
    <g id="xtick_7">
     <g id="line2d_13">
      <path d="M 452.400114 529.308125 
L 452.400114 23.837812 
" clip-path="url(#p39da51a150)" style="fill: none; stroke: #b0b0b0; stroke-opacity: 0.3; stroke-width: 0.8; stroke-linecap: square"/>
     </g>
     <g id="line2d_14">
      <g>
       <use xlink:href="#m9ff7623c9f" x="452.400114" y="529.308125" style="stroke: #000000; stroke-width: 0.8"/>
      </g>
     </g>
     <g id="text_7">
      <text style="font: 10px 'DejaVu Sans', 'Bitstream Vera Sans', 'Computer Modern Sans Serif', 'Lucida Grande', 'Verdana', 'Geneva', 'Lucid', 'Arial', 'Helvetica', 'Avant Garde', sans-serif; text-anchor: middle" x="452.400114" y="543.906563" transform="rotate(-0 452.400114 543.906563)">99.0</text>
     </g>
    </g>
    <g id="xtick_8">
     <g id="line2d_15">
      <path d="M 513.022983 529.308125 
L 513.022983 23.837812 
" clip-path="url(#p39da51a150)" style="fill: none; stroke: #b0b0b0; stroke-opacity: 0.3; stroke-width: 0.8; stroke-linecap: square"/>
     </g>
     <g id="line2d_16">
      <g>
       <use xlink:href="#m9ff7623c9f" x="513.022983" y="529.308125" style="stroke: #000000; stroke-width: 0.8"/>
      </g>
     </g>
     <g id="text_8">
      <text style="font: 10px 'DejaVu Sans', 'Bitstream Vera Sans', 'Computer Modern Sans Serif', 'Lucida Grande', 'Verdana', 'Geneva', 'Lucid', 'Arial', 'Helvetica', 'Avant Garde', sans-serif; text-anchor: middle" x="513.022983" y="543.906563" transform="rotate(-0 513.022983 543.906563)">99.5</text>
     </g>
    </g>
    <g id="xtick_9">
     <g id="line2d_17">
      <path d="M 573.645852 529.308125 
L 573.645852 23.837812 
" clip-path="url(#p39da51a150)" style="fill: none; stroke: #b0b0b0; stroke-opacity: 0.3; stroke-width: 0.8; stroke-linecap: square"/>
     </g>
     <g id="line2d_18">
      <g>
       <use xlink:href="#m9ff7623c9f" x="573.645852" y="529.308125" style="stroke: #000000; stroke-width: 0.8"/>
      </g>
     </g>
     <g id="text_9">
      <text style="font: 10px 'DejaVu Sans', 'Bitstream Vera Sans', 'Computer Modern Sans Serif', 'Lucida Grande', 'Verdana', 'Geneva', 'Lucid', 'Arial', 'Helvetica', 'Avant Garde', sans-serif; text-anchor: middle" x="573.645852" y="543.906563" transform="rotate(-0 573.645852 543.906563)">100.0</text>
     </g>
    </g>
    <g id="text_10">
     <text style="font: 12px 'DejaVu Sans', 'Bitstream Vera Sans', 'Computer Modern Sans Serif', 'Lucida Grande', 'Verdana', 'Geneva', 'Lucid', 'Arial', 'Helvetica', 'Avant Garde', sans-serif; text-anchor: middle" x="331.154375" y="559.104375" transform="rotate(-0 331.154375 559.104375)">Build Number</text>
    </g>
   </g>
   <g id="matplotlib.axis_2">
    <g id="ytick_1">
     <g id="line2d_19">
      <defs>
       <path id="m9498e2d032" d="M 0 0 
L -2 0 
" style="stroke: #000000; stroke-width: 0.6"/>
      </defs>
      <g>
       <use xlink:href="#m9498e2d032" x="64.41375" y="325.378084" style="stroke: #000000; stroke-width: 0.6"/>
      </g>
     </g>
     <g id="text_11">
      <!-- $\mathdefault{2\times10^{5}}$ -->
      <g transform="translate(22.81375 329.177303)">
       <text>
        <tspan style="font: 10px 'DejaVu Sans'" x="0 8.310547 18.637695 25" y="-0.06406250000000036">2×10</tspan>
        <tspan style="font: 7px 'DejaVu Sans'" x="31.458008" y="-3.8921875000000004">5</tspan>
       </text>
      </g>
     </g>
    </g>
    <g id="ytick_2">
     <g id="line2d_20">
      <g>
       <use xlink:href="#m9498e2d032" x="64.41375" y="191.336189" style="stroke: #000000; stroke-width: 0.6"/>
      </g>
     </g>
     <g id="text_12">
      <!-- $\mathdefault{3\times10^{5}}$ -->
      <g transform="translate(22.81375 195.135408)">
       <text>
        <tspan style="font: 10px 'DejaVu Sans'" x="0 8.310547 18.637695 25" y="-0.06406250000000036">3×10</tspan>
        <tspan style="font: 7px 'DejaVu Sans'" x="31.458008" y="-3.8921875000000004">5</tspan>
       </text>
      </g>
     </g>
    </g>
    <g id="ytick_3">
     <g id="line2d_21">
      <g>
       <use xlink:href="#m9498e2d032" x="64.41375" y="96.231951" style="stroke: #000000; stroke-width: 0.6"/>
      </g>
     </g>
     <g id="text_13">
      <!-- $\mathdefault{4\times10^{5}}$ -->
      <g transform="translate(22.81375 100.03117)">
       <text>
        <tspan style="font: 10px 'DejaVu Sans'" x="0 8.310547 18.637695 25" y="-0.06406250000000036">4×10</tspan>
        <tspan style="font: 7px 'DejaVu Sans'" x="31.458008" y="-3.8921875000000004">5</tspan>
       </text>
      </g>
     </g>
    </g>
    <g id="text_14">
     <text style="font: 12px 'DejaVu Sans', 'Bitstream Vera Sans', 'Computer Modern Sans Serif', 'Lucida Grande', 'Verdana', 'Geneva', 'Lucid', 'Arial', 'Helvetica', 'Avant Garde', sans-serif; text-anchor: middle" x="16.318125" y="276.572969" transform="rotate(-90 16.318125 276.572969)">Median Elapsed Time (nanoseconds)</text>
    </g>
   </g>
   <g id="line2d_22">
    <path d="M 88.662898 418.483471 
L 209.908636 415.353461 
L 452.400114 445.998929 
L 573.645852 404.35351 
" clip-path="url(#p39da51a150)" style="fill: none; stroke: #1f77b4; stroke-width: 2; stroke-linecap: square"/>
    <defs>
     <path id="m4da2bdf48d" d="M 0 3 
C 0.795609 3 1.55874 2.683901 2.12132 2.12132 
C 2.683901 1.55874 3 0.795609 3 0 
C 3 -0.795609 2.683901 -1.55874 2.12132 -2.12132 
C 1.55874 -2.683901 0.795609 -3 0 -3 
C -0.795609 -3 -1.55874 -2.683901 -2.12132 -2.12132 
C -2.683901 -1.55874 -3 -0.795609 -3 0 
C -3 0.795609 -2.683901 1.55874 -2.12132 2.12132 
C -1.55874 2.683901 -0.795609 3 0 3 
z
" style="stroke: #1f77b4"/>
    </defs>
    <g clip-path="url(#p39da51a150)">
     <use xlink:href="#m4da2bdf48d" x="88.662898" y="418.483471" style="fill: #1f77b4; stroke: #1f77b4"/>
     <use xlink:href="#m4da2bdf48d" x="209.908636" y="415.353461" style="fill: #1f77b4; stroke: #1f77b4"/>
     <use xlink:href="#m4da2bdf48d" x="452.400114" y="445.998929" style="fill: #1f77b4; stroke: #1f77b4"/>
     <use xlink:href="#m4da2bdf48d" x="573.645852" y="404.35351" style="fill: #1f77b4; stroke: #1f77b4"/>
    </g>
   </g>
   <g id="line2d_23">
    <path d="M 88.662898 479.625639 
L 209.908636 492.043006 
L 452.400114 506.332202 
L 573.645852 505.54984 
" clip-path="url(#p39da51a150)" style="fill: none; stroke: #ff7f0e; stroke-width: 2; stroke-linecap: square"/>
    <defs>
     <path id="m30fa39d790" d="M 0 3 
C 0.795609 3 1.55874 2.683901 2.12132 2.12132 
C 2.683901 1.55874 3 0.795609 3 0 
C 3 -0.795609 2.683901 -1.55874 2.12132 -2.12132 
C 1.55874 -2.683901 0.795609 -3 0 -3 
C -0.795609 -3 -1.55874 -2.683901 -2.12132 -2.12132 
C -2.683901 -1.55874 -3 -0.795609 -3 0 
C -3 0.795609 -2.683901 1.55874 -2.12132 2.12132 
C -1.55874 2.683901 -0.795609 3 0 3 
z
" style="stroke: #ff7f0e"/>
    </defs>
    <g clip-path="url(#p39da51a150)">
     <use xlink:href="#m30fa39d790" x="88.662898" y="479.625639" style="fill: #ff7f0e; stroke: #ff7f0e"/>
     <use xlink:href="#m30fa39d790" x="209.908636" y="492.043006" style="fill: #ff7f0e; stroke: #ff7f0e"/>
     <use xlink:href="#m30fa39d790" x="452.400114" y="506.332202" style="fill: #ff7f0e; stroke: #ff7f0e"/>
     <use xlink:href="#m30fa39d790" x="573.645852" y="505.54984" style="fill: #ff7f0e; stroke: #ff7f0e"/>
    </g>
   </g>
   <g id="line2d_24">
    <path d="M 88.662898 346.178361 
L 209.908636 316.824978 
L 452.400114 305.068528 
L 573.645852 281.535513 
" clip-path="url(#p39da51a150)" style="fill: none; stroke: #2ca02c; stroke-width: 2; stroke-linecap: square"/>
    <defs>
     <path id="mf6ec571383" d="M 0 3 
C 0.795609 3 1.55874 2.683901 2.12132 2.12132 
C 2.683901 1.55874 3 0.795609 3 0 
C 3 -0.795609 2.683901 -1.55874 2.12132 -2.12132 
C 1.55874 -2.683901 0.795609 -3 0 -3 
C -0.795609 -3 -1.55874 -2.683901 -2.12132 -2.12132 
C -2.683901 -1.55874 -3 -0.795609 -3 0 
C -3 0.795609 -2.683901 1.55874 -2.12132 2.12132 
C -1.55874 2.683901 -0.795609 3 0 3 
z
" style="stroke: #2ca02c"/>
    </defs>
    <g clip-path="url(#p39da51a150)">
     <use xlink:href="#mf6ec571383" x="88.662898" y="346.178361" style="fill: #2ca02c; stroke: #2ca02c"/>
     <use xlink:href="#mf6ec571383" x="209.908636" y="316.824978" style="fill: #2ca02c; stroke: #2ca02c"/>
     <use xlink:href="#mf6ec571383" x="452.400114" y="305.068528" style="fill: #2ca02c; stroke: #2ca02c"/>
     <use xlink:href="#mf6ec571383" x="573.645852" y="281.535513" style="fill: #2ca02c; stroke: #2ca02c"/>
    </g>
   </g>
   <g id="line2d_25">
    <path d="M 88.662898 410.414776 
L 209.908636 379.818174 
L 452.400114 414.680797 
L 573.645852 401.649781 
" clip-path="url(#p39da51a150)" style="fill: none; stroke: #d62728; stroke-width: 2; stroke-linecap: square"/>
    <defs>
     <path id="m791956ed7c" d="M 0 3 
C 0.795609 3 1.55874 2.683901 2.12132 2.12132 
C 2.683901 1.55874 3 0.795609 3 0 
C 3 -0.795609 2.683901 -1.55874 2.12132 -2.12132 
C 1.55874 -2.683901 0.795609 -3 0 -3 
C -0.795609 -3 -1.55874 -2.683901 -2.12132 -2.12132 
C -2.683901 -1.55874 -3 -0.795609 -3 0 
C -3 0.795609 -2.683901 1.55874 -2.12132 2.12132 
C -1.55874 2.683901 -0.795609 3 0 3 
z
" style="stroke: #d62728"/>
    </defs>
    <g clip-path="url(#p39da51a150)">
     <use xlink:href="#m791956ed7c" x="88.662898" y="410.414776" style="fill: #d62728; stroke: #d62728"/>
     <use xlink:href="#m791956ed7c" x="209.908636" y="379.818174" style="fill: #d62728; stroke: #d62728"/>
     <use xlink:href="#m791956ed7c" x="452.400114" y="414.680797" style="fill: #d62728; stroke: #d62728"/>
     <use xlink:href="#m791956ed7c" x="573.645852" y="401.649781" style="fill: #d62728; stroke: #d62728"/>
    </g>
   </g>
   <g id="line2d_26">
    <path d="M 88.662898 444.73102 
L 209.908636 208.766622 
L 452.400114 426.112972 
L 573.645852 46.813736 
" clip-path="url(#p39da51a150)" style="fill: none; stroke: #9467bd; stroke-width: 2; stroke-linecap: square"/>
    <defs>
     <path id="m93c1a7a3b9" d="M 0 3 
C 0.795609 3 1.55874 2.683901 2.12132 2.12132 
C 2.683901 1.55874 3 0.795609 3 0 
C 3 -0.795609 2.683901 -1.55874 2.12132 -2.12132 
C 1.55874 -2.683901 0.795609 -3 0 -3 
C -0.795609 -3 -1.55874 -2.683901 -2.12132 -2.12132 
C -2.683901 -1.55874 -3 -0.795609 -3 0 
C -3 0.795609 -2.683901 1.55874 -2.12132 2.12132 
C -1.55874 2.683901 -0.795609 3 0 3 
z
" style="stroke: #9467bd"/>
    </defs>
    <g clip-path="url(#p39da51a150)">
     <use xlink:href="#m93c1a7a3b9" x="88.662898" y="444.73102" style="fill: #9467bd; stroke: #9467bd"/>
     <use xlink:href="#m93c1a7a3b9" x="209.908636" y="208.766622" style="fill: #9467bd; stroke: #9467bd"/>
     <use xlink:href="#m93c1a7a3b9" x="452.400114" y="426.112972" style="fill: #9467bd; stroke: #9467bd"/>
     <use xlink:href="#m93c1a7a3b9" x="573.645852" y="46.813736" style="fill: #9467bd; stroke: #9467bd"/>
    </g>
   </g>
   <g id="line2d_27">
    <path d="M 88.662898 430.44977 
L 209.908636 441.393423 
L 452.400114 437.187191 
L 573.645852 148.838021 
" clip-path="url(#p39da51a150)" style="fill: none; stroke: #8c564b; stroke-width: 2; stroke-linecap: square"/>
    <defs>
     <path id="m34c785eee4" d="M 0 3 
C 0.795609 3 1.55874 2.683901 2.12132 2.12132 
C 2.683901 1.55874 3 0.795609 3 0 
C 3 -0.795609 2.683901 -1.55874 2.12132 -2.12132 
C 1.55874 -2.683901 0.795609 -3 0 -3 
C -0.795609 -3 -1.55874 -2.683901 -2.12132 -2.12132 
C -2.683901 -1.55874 -3 -0.795609 -3 0 
C -3 0.795609 -2.683901 1.55874 -2.12132 2.12132 
C -1.55874 2.683901 -0.795609 3 0 3 
z
" style="stroke: #8c564b"/>
    </defs>
    <g clip-path="url(#p39da51a150)">
     <use xlink:href="#m34c785eee4" x="88.662898" y="430.44977" style="fill: #8c564b; stroke: #8c564b"/>
     <use xlink:href="#m34c785eee4" x="209.908636" y="441.393423" style="fill: #8c564b; stroke: #8c564b"/>
     <use xlink:href="#m34c785eee4" x="452.400114" y="437.187191" style="fill: #8c564b; stroke: #8c564b"/>
     <use xlink:href="#m34c785eee4" x="573.645852" y="148.838021" style="fill: #8c564b; stroke: #8c564b"/>
    </g>
   </g>
   <g id="line2d_28">
    <path d="M 88.662898 421.880356 
L 209.908636 381.635185 
L 452.400114 404.882034 
L 573.645852 372.574395 
" clip-path="url(#p39da51a150)" style="fill: none; stroke: #e377c2; stroke-width: 2; stroke-linecap: square"/>
    <defs>
     <path id="m0b916fc7d9" d="M 0 3 
C 0.795609 3 1.55874 2.683901 2.12132 2.12132 
C 2.683901 1.55874 3 0.795609 3 0 
C 3 -0.795609 2.683901 -1.55874 2.12132 -2.12132 
C 1.55874 -2.683901 0.795609 -3 0 -3 
C -0.795609 -3 -1.55874 -2.683901 -2.12132 -2.12132 
C -2.683901 -1.55874 -3 -0.795609 -3 0 
C -3 0.795609 -2.683901 1.55874 -2.12132 2.12132 
C -1.55874 2.683901 -0.795609 3 0 3 
z
" style="stroke: #e377c2"/>
    </defs>
    <g clip-path="url(#p39da51a150)">
     <use xlink:href="#m0b916fc7d9" x="88.662898" y="421.880356" style="fill: #e377c2; stroke: #e377c2"/>
     <use xlink:href="#m0b916fc7d9" x="209.908636" y="381.635185" style="fill: #e377c2; stroke: #e377c2"/>
     <use xlink:href="#m0b916fc7d9" x="452.400114" y="404.882034" style="fill: #e377c2; stroke: #e377c2"/>
     <use xlink:href="#m0b916fc7d9" x="573.645852" y="372.574395" style="fill: #e377c2; stroke: #e377c2"/>
    </g>
   </g>
   <g id="line2d_29">
    <path d="M 88.662898 433.084138 
L 209.908636 390.791735 
L 452.400114 412.852697 
L 573.645852 387.974054 
" clip-path="url(#p39da51a150)" style="fill: none; stroke: #7f7f7f; stroke-width: 2; stroke-linecap: square"/>
    <defs>
     <path id="m9df3ceab33" d="M 0 3 
C 0.795609 3 1.55874 2.683901 2.12132 2.12132 
C 2.683901 1.55874 3 0.795609 3 0 
C 3 -0.795609 2.683901 -1.55874 2.12132 -2.12132 
C 1.55874 -2.683901 0.795609 -3 0 -3 
C -0.795609 -3 -1.55874 -2.683901 -2.12132 -2.12132 
C -2.683901 -1.55874 -3 -0.795609 -3 0 
C -3 0.795609 -2.683901 1.55874 -2.12132 2.12132 
C -1.55874 2.683901 -0.795609 3 0 3 
z
" style="stroke: #7f7f7f"/>
    </defs>
    <g clip-path="url(#p39da51a150)">
     <use xlink:href="#m9df3ceab33" x="88.662898" y="433.084138" style="fill: #7f7f7f; stroke: #7f7f7f"/>
     <use xlink:href="#m9df3ceab33" x="209.908636" y="390.791735" style="fill: #7f7f7f; stroke: #7f7f7f"/>
     <use xlink:href="#m9df3ceab33" x="452.400114" y="412.852697" style="fill: #7f7f7f; stroke: #7f7f7f"/>
     <use xlink:href="#m9df3ceab33" x="573.645852" y="387.974054" style="fill: #7f7f7f; stroke: #7f7f7f"/>
    </g>
   </g>
   <g id="patch_3">
    <path d="M 64.41375 529.308125 
L 64.41375 23.837812 
" style="fill: none; stroke: #000000; stroke-width: 0.8; stroke-linejoin: miter; stroke-linecap: square"/>
   </g>
   <g id="patch_4">
    <path d="M 597.895 529.308125 
L 597.895 23.837812 
" style="fill: none; stroke: #000000; stroke-width: 0.8; stroke-linejoin: miter; stroke-linecap: square"/>
   </g>
   <g id="patch_5">
    <path d="M 64.41375 529.308125 
L 597.895 529.308125 
" style="fill: none; stroke: #000000; stroke-width: 0.8; stroke-linejoin: miter; stroke-linecap: square"/>
   </g>
   <g id="patch_6">
    <path d="M 64.41375 23.837812 
L 597.895 23.837812 
" style="fill: none; stroke: #000000; stroke-width: 0.8; stroke-linejoin: miter; stroke-linecap: square"/>
   </g>
   <g id="text_15">
    <text style="font: 700 14px 'DejaVu Sans', 'Bitstream Vera Sans', 'Computer Modern Sans Serif', 'Lucida Grande', 'Verdana', 'Geneva', 'Lucid', 'Arial', 'Helvetica', 'Avant Garde', sans-serif; text-anchor: middle" x="331.154375" y="17.837813" transform="rotate(-0 331.154375 17.837813)">Coroutine Submission - Performance Trend</text>
   </g>
   <g id="legend_1">
    <g id="patch_7">
     <path d="M 631.569062 151.487813 
L 840.794062 151.487813 
Q 842.794062 151.487813 842.794062 149.487813 
L 842.794062 30.837813 
Q 842.794062 28.837813 840.794062 28.837813 
L 631.569062 28.837813 
Q 629.569062 28.837813 629.569062 30.837813 
L 629.569062 149.487813 
Q 629.569062 151.487813 631.569062 151.487813 
z
" style="fill: #ffffff; opacity: 0.8; stroke: #cccccc; stroke-linejoin: miter"/>
    </g>
    <g id="line2d_30">
     <path d="M 633.569062 36.93625 
L 643.569062 36.93625 
L 653.569062 36.93625 
" style="fill: none; stroke: #1f77b4; stroke-width: 2; stroke-linecap: square"/>
     <g>
      <use xlink:href="#m4da2bdf48d" x="643.569062" y="36.93625" style="fill: #1f77b4; stroke: #1f77b4"/>
     </g>
    </g>
    <g id="text_16">
     <text style="font: 10px 'DejaVu Sans', 'Bitstream Vera Sans', 'Computer Modern Sans Serif', 'Lucida Grande', 'Verdana', 'Geneva', 'Lucid', 'Arial', 'Helvetica', 'Avant Garde', sans-serif; text-anchor: start" x="661.569062" y="40.43625" transform="rotate(-0 661.569062 40.43625)">gcc-14.2 - CoroutineSubmission_V1</text>
    </g>
    <g id="line2d_31">
     <path d="M 633.569062 51.8925 
L 643.569062 51.8925 
L 653.569062 51.8925 
" style="fill: none; stroke: #ff7f0e; stroke-width: 2; stroke-linecap: square"/>
     <g>
      <use xlink:href="#m30fa39d790" x="643.569062" y="51.8925" style="fill: #ff7f0e; stroke: #ff7f0e"/>
     </g>
    </g>
    <g id="text_17">
     <text style="font: 10px 'DejaVu Sans', 'Bitstream Vera Sans', 'Computer Modern Sans Serif', 'Lucida Grande', 'Verdana', 'Geneva', 'Lucid', 'Arial', 'Helvetica', 'Avant Garde', sans-serif; text-anchor: start" x="661.569062" y="55.3925" transform="rotate(-0 661.569062 55.3925)">gcc-14.2 - LambdaSubmission_V1</text>
    </g>
    <g id="line2d_32">
     <path d="M 633.569062 66.84875 
L 643.569062 66.84875 
L 653.569062 66.84875 
" style="fill: none; stroke: #2ca02c; stroke-width: 2; stroke-linecap: square"/>
     <g>
      <use xlink:href="#mf6ec571383" x="643.569062" y="66.84875" style="fill: #2ca02c; stroke: #2ca02c"/>
     </g>
    </g>
    <g id="text_18">
     <text style="font: 10px 'DejaVu Sans', 'Bitstream Vera Sans', 'Computer Modern Sans Serif', 'Lucida Grande', 'Verdana', 'Geneva', 'Lucid', 'Arial', 'Helvetica', 'Avant Garde', sans-serif; text-anchor: start" x="661.569062" y="70.34875" transform="rotate(-0 661.569062 70.34875)">gcc-14.2 - CoroutineSubmission_V2</text>
    </g>
    <g id="line2d_33">
     <path d="M 633.569062 81.805 
L 643.569062 81.805 
L 653.569062 81.805 
" style="fill: none; stroke: #d62728; stroke-width: 2; stroke-linecap: square"/>
     <g>
      <use xlink:href="#m791956ed7c" x="643.569062" y="81.805" style="fill: #d62728; stroke: #d62728"/>
     </g>
    </g>
    <g id="text_19">
     <text style="font: 10px 'DejaVu Sans', 'Bitstream Vera Sans', 'Computer Modern Sans Serif', 'Lucida Grande', 'Verdana', 'Geneva', 'Lucid', 'Arial', 'Helvetica', 'Avant Garde', sans-serif; text-anchor: start" x="661.569062" y="85.305" transform="rotate(-0 661.569062 85.305)">gcc-14.2 - LambdaSubmission_V2</text>
    </g>
    <g id="line2d_34">
     <path d="M 633.569062 96.76125 
L 643.569062 96.76125 
L 653.569062 96.76125 
" style="fill: none; stroke: #9467bd; stroke-width: 2; stroke-linecap: square"/>
     <g>
      <use xlink:href="#m93c1a7a3b9" x="643.569062" y="96.76125" style="fill: #9467bd; stroke: #9467bd"/>
     </g>
    </g>
    <g id="text_20">
     <text style="font: 10px 'DejaVu Sans', 'Bitstream Vera Sans', 'Computer Modern Sans Serif', 'Lucida Grande', 'Verdana', 'Geneva', 'Lucid', 'Arial', 'Helvetica', 'Avant Garde', sans-serif; text-anchor: start" x="661.569062" y="100.26125" transform="rotate(-0 661.569062 100.26125)">gcc-4.2 - CoroutineSubmission_V1</text>
    </g>
    <g id="line2d_35">
     <path d="M 633.569062 111.7175 
L 643.569062 111.7175 
L 653.569062 111.7175 
" style="fill: none; stroke: #8c564b; stroke-width: 2; stroke-linecap: square"/>
     <g>
      <use xlink:href="#m34c785eee4" x="643.569062" y="111.7175" style="fill: #8c564b; stroke: #8c564b"/>
     </g>
    </g>
    <g id="text_21">
     <text style="font: 10px 'DejaVu Sans', 'Bitstream Vera Sans', 'Computer Modern Sans Serif', 'Lucida Grande', 'Verdana', 'Geneva', 'Lucid', 'Arial', 'Helvetica', 'Avant Garde', sans-serif; text-anchor: start" x="661.569062" y="115.2175" transform="rotate(-0 661.569062 115.2175)">gcc-4.2 - LambdaSubmission_V1</text>
    </g>
    <g id="line2d_36">
     <path d="M 633.569062 126.67375 
L 643.569062 126.67375 
L 653.569062 126.67375 
" style="fill: none; stroke: #e377c2; stroke-width: 2; stroke-linecap: square"/>
     <g>
      <use xlink:href="#m0b916fc7d9" x="643.569062" y="126.67375" style="fill: #e377c2; stroke: #e377c2"/>
     </g>
    </g>
    <g id="text_22">
     <text style="font: 10px 'DejaVu Sans', 'Bitstream Vera Sans', 'Computer Modern Sans Serif', 'Lucida Grande', 'Verdana', 'Geneva', 'Lucid', 'Arial', 'Helvetica', 'Avant Garde', sans-serif; text-anchor: start" x="661.569062" y="130.17375" transform="rotate(-0 661.569062 130.17375)">gcc-4.2 - CoroutineSubmission_V2</text>
    </g>
    <g id="line2d_37">
     <path d="M 633.569062 141.63 
L 643.569062 141.63 
L 653.569062 141.63 
" style="fill: none; stroke: #7f7f7f; stroke-width: 2; stroke-linecap: square"/>
     <g>
      <use xlink:href="#m9df3ceab33" x="643.569062" y="141.63" style="fill: #7f7f7f; stroke: #7f7f7f"/>
     </g>
    </g>
    <g id="text_23">
     <text style="font: 10px 'DejaVu Sans', 'Bitstream Vera Sans', 'Computer Modern Sans Serif', 'Lucida Grande', 'Verdana', 'Geneva', 'Lucid', 'Arial', 'Helvetica', 'Avant Garde', sans-serif; text-anchor: start" x="661.569062" y="145.13" transform="rotate(-0 661.569062 145.13)">gcc-4.2 - LambdaSubmission_V2</text>
    </g>
   </g>
  </g>
 </g>
 <defs>
  <clipPath id="p39da51a150">
   <rect x="64.41375" y="23.837813" width="533.48125" height="505.470313"/>
  </clipPath>
 </defs>
</svg>
