<?xml version="1.0" encoding="utf-8" standalone="no"?>
<!DOCTYPE svg PUBLIC "-//W3C//DTD SVG 1.1//EN"
  "http://www.w3.org/Graphics/SVG/1.1/DTD/svg11.dtd">
<svg xmlns:xlink="http://www.w3.org/1999/xlink" width="855.204687pt" height="568.8pt" viewBox="0 0 855.204687 568.8" xmlns="http://www.w3.org/2000/svg" version="1.1">
 <metadata>
  <rdf:RDF xmlns:dc="http://purl.org/dc/elements/1.1/" xmlns:cc="http://creativecommons.org/ns#" xmlns:rdf="http://www.w3.org/1999/02/22-rdf-syntax-ns#">
   <cc:Work>
    <dc:type rdf:resource="http://purl.org/dc/dcmitype/StillImage"/>
    <dc:date>2025-08-30T11:10:50.932231</dc:date>
    <dc:format>image/svg+xml</dc:format>
    <dc:creator>
     <cc:Agent>
      <dc:title>Matplotlib v3.9.4, https://matplotlib.org/</dc:title>
     </cc:Agent>
    </dc:creator>
   </cc:Work>
  </rdf:RDF>
 </metadata>
 <defs>
  <style type="text/css">*{stroke-linejoin: round; stroke-linecap: butt}</style>
 </defs>
 <g id="figure_1">
  <g id="patch_1">
   <path d="M 0 568.8 
L 855.204687 568.8 
L 855.204687 0 
L 0 0 
z
" style="fill: #ffffff"/>
  </g>
  <g id="axes_1">
   <g id="patch_2">
    <path d="M 64.41375 529.308125 
L 702.1075 529.308125 
L 702.1075 23.837812 
L 64.41375 23.837812 
z
" style="fill: #ffffff"/>
   </g>
   <g id="matplotlib.axis_1">
    <g id="xtick_1">
     <g id="line2d_1">
      <path d="M 79.260279 529.308125 
L 79.260279 23.837812 
" clip-path="url(#p453d261f76)" style="fill: none; stroke: #b0b0b0; stroke-opacity: 0.3; stroke-width: 0.8; stroke-linecap: square"/>
     </g>
     <g id="line2d_2">
      <defs>
       <path id="m660252eea4" d="M 0 0 
L 0 3.5 
" style="stroke: #000000; stroke-width: 0.8"/>
      </defs>
      <g>
       <use xlink:href="#m660252eea4" x="79.260279" y="529.308125" style="stroke: #000000; stroke-width: 0.8"/>
      </g>
     </g>
     <g id="text_1">
      <text style="font: 10px 'DejaVu Sans', 'Bitstream Vera Sans', 'Computer Modern Sans Serif', 'Lucida Grande', 'Verdana', 'Geneva', 'Lucid', 'Arial', 'Helvetica', 'Avant Garde', sans-serif; text-anchor: middle" x="79.260279" y="543.906563" transform="rotate(-0 79.260279 543.906563)">70</text>
     </g>
    </g>
    <g id="xtick_2">
     <g id="line2d_3">
      <path d="M 220.655789 529.308125 
L 220.655789 23.837812 
" clip-path="url(#p453d261f76)" style="fill: none; stroke: #b0b0b0; stroke-opacity: 0.3; stroke-width: 0.8; stroke-linecap: square"/>
     </g>
     <g id="line2d_4">
      <g>
       <use xlink:href="#m660252eea4" x="220.655789" y="529.308125" style="stroke: #000000; stroke-width: 0.8"/>
      </g>
     </g>
     <g id="text_2">
      <text style="font: 10px 'DejaVu Sans', 'Bitstream Vera Sans', 'Computer Modern Sans Serif', 'Lucida Grande', 'Verdana', 'Geneva', 'Lucid', 'Arial', 'Helvetica', 'Avant Garde', sans-serif; text-anchor: middle" x="220.655789" y="543.906563" transform="rotate(-0 220.655789 543.906563)">80</text>
     </g>
    </g>
    <g id="xtick_3">
     <g id="line2d_5">
      <path d="M 362.051299 529.308125 
L 362.051299 23.837812 
" clip-path="url(#p453d261f76)" style="fill: none; stroke: #b0b0b0; stroke-opacity: 0.3; stroke-width: 0.8; stroke-linecap: square"/>
     </g>
     <g id="line2d_6">
      <g>
       <use xlink:href="#m660252eea4" x="362.051299" y="529.308125" style="stroke: #000000; stroke-width: 0.8"/>
      </g>
     </g>
     <g id="text_3">
      <text style="font: 10px 'DejaVu Sans', 'Bitstream Vera Sans', 'Computer Modern Sans Serif', 'Lucida Grande', 'Verdana', 'Geneva', 'Lucid', 'Arial', 'Helvetica', 'Avant Garde', sans-serif; text-anchor: middle" x="362.051299" y="543.906563" transform="rotate(-0 362.051299 543.906563)">90</text>
     </g>
    </g>
    <g id="xtick_4">
     <g id="line2d_7">
      <path d="M 503.446808 529.308125 
L 503.446808 23.837812 
" clip-path="url(#p453d261f76)" style="fill: none; stroke: #b0b0b0; stroke-opacity: 0.3; stroke-width: 0.8; stroke-linecap: square"/>
     </g>
     <g id="line2d_8">
      <g>
       <use xlink:href="#m660252eea4" x="503.446808" y="529.308125" style="stroke: #000000; stroke-width: 0.8"/>
      </g>
     </g>
     <g id="text_4">
      <text style="font: 10px 'DejaVu Sans', 'Bitstream Vera Sans', 'Computer Modern Sans Serif', 'Lucida Grande', 'Verdana', 'Geneva', 'Lucid', 'Arial', 'Helvetica', 'Avant Garde', sans-serif; text-anchor: middle" x="503.446808" y="543.906563" transform="rotate(-0 503.446808 543.906563)">100</text>
     </g>
    </g>
    <g id="xtick_5">
     <g id="line2d_9">
      <path d="M 644.842318 529.308125 
L 644.842318 23.837812 
" clip-path="url(#p453d261f76)" style="fill: none; stroke: #b0b0b0; stroke-opacity: 0.3; stroke-width: 0.8; stroke-linecap: square"/>
     </g>
     <g id="line2d_10">
      <g>
       <use xlink:href="#m660252eea4" x="644.842318" y="529.308125" style="stroke: #000000; stroke-width: 0.8"/>
      </g>
     </g>
     <g id="text_5">
      <text style="font: 10px 'DejaVu Sans', 'Bitstream Vera Sans', 'Computer Modern Sans Serif', 'Lucida Grande', 'Verdana', 'Geneva', 'Lucid', 'Arial', 'Helvetica', 'Avant Garde', sans-serif; text-anchor: middle" x="644.842318" y="543.906563" transform="rotate(-0 644.842318 543.906563)">110</text>
     </g>
    </g>
    <g id="text_6">
     <text style="font: 12px 'DejaVu Sans', 'Bitstream Vera Sans', 'Computer Modern Sans Serif', 'Lucida Grande', 'Verdana', 'Geneva', 'Lucid', 'Arial', 'Helvetica', 'Avant Garde', sans-serif; text-anchor: middle" x="383.260625" y="559.104375" transform="rotate(-0 383.260625 559.104375)">Build Number</text>
    </g>
   </g>
   <g id="matplotlib.axis_2">
    <g id="ytick_1">
     <g id="line2d_11">
      <defs>
       <path id="mc852657802" d="M 0 0 
L -2 0 
" style="stroke: #000000; stroke-width: 0.6"/>
      </defs>
      <g>
       <use xlink:href="#mc852657802" x="64.41375" y="418.432278" style="stroke: #000000; stroke-width: 0.6"/>
      </g>
     </g>
     <g id="text_7">
      <!-- $\mathdefault{3\times10^{5}}$ -->
      <g transform="translate(22.81375 422.231497)">
       <text>
        <tspan style="font: 10px 'DejaVu Sans'" x="0 8.310547 18.637695 25" y="-0.06406250000000036">3×10</tspan>
        <tspan style="font: 7px 'DejaVu Sans'" x="31.458008" y="-3.8921875000000004">5</tspan>
       </text>
      </g>
     </g>
    </g>
    <g id="ytick_2">
     <g id="line2d_12">
      <g>
       <use xlink:href="#mc852657802" x="64.41375" y="313.355466" style="stroke: #000000; stroke-width: 0.6"/>
      </g>
     </g>
     <g id="text_8">
      <!-- $\mathdefault{4\times10^{5}}$ -->
      <g transform="translate(22.81375 317.154684)">
       <text>
        <tspan style="font: 10px 'DejaVu Sans'" x="0 8.310547 18.637695 25" y="-0.06406250000000036">4×10</tspan>
        <tspan style="font: 7px 'DejaVu Sans'" x="31.458008" y="-3.8921875000000004">5</tspan>
       </text>
      </g>
     </g>
    </g>
    <g id="ytick_3">
     <g id="line2d_13">
      <g>
       <use xlink:href="#mc852657802" x="64.41375" y="231.851558" style="stroke: #000000; stroke-width: 0.6"/>
      </g>
     </g>
    </g>
    <g id="ytick_4">
     <g id="line2d_14">
      <g>
       <use xlink:href="#mc852657802" x="64.41375" y="165.258016" style="stroke: #000000; stroke-width: 0.6"/>
      </g>
     </g>
     <g id="text_9">
      <!-- $\mathdefault{6\times10^{5}}$ -->
      <g transform="translate(22.81375 169.057235)">
       <text>
        <tspan style="font: 10px 'DejaVu Sans'" x="0 8.310547 18.637695 25" y="-0.06406250000000036">6×10</tspan>
        <tspan style="font: 7px 'DejaVu Sans'" x="31.458008" y="-3.8921875000000004">5</tspan>
       </text>
      </g>
     </g>
    </g>
    <g id="ytick_5">
     <g id="line2d_15">
      <g>
       <use xlink:href="#mc852657802" x="64.41375" y="108.953979" style="stroke: #000000; stroke-width: 0.6"/>
      </g>
     </g>
    </g>
    <g id="ytick_6">
     <g id="line2d_16">
      <g>
       <use xlink:href="#mc852657802" x="64.41375" y="60.181203" style="stroke: #000000; stroke-width: 0.6"/>
      </g>
     </g>
    </g>
    <g id="text_10">
     <text style="font: 12px 'DejaVu Sans', 'Bitstream Vera Sans', 'Computer Modern Sans Serif', 'Lucida Grande', 'Verdana', 'Geneva', 'Lucid', 'Arial', 'Helvetica', 'Avant Garde', sans-serif; text-anchor: middle" x="16.318125" y="276.572969" transform="rotate(-90 16.318125 276.572969)">Median Elapsed Time (nanoseconds)</text>
    </g>
   </g>
   <g id="line2d_17">
    <path d="M 93.39983 482.850289 
L 107.539381 272.436851 
L 121.678932 291.181531 
L 135.818483 404.67794 
L 149.958034 274.444232 
L 164.097585 480.388037 
L 178.237136 403.415098 
L 192.376687 209.896651 
L 206.516238 266.582403 
L 220.655789 483.408849 
L 234.79534 434.397313 
L 248.934891 271.574978 
L 263.074442 458.880205 
L 277.213993 377.778124 
L 291.353544 346.820195 
L 305.493095 486.263933 
L 333.772197 428.787994 
L 347.911748 163.598126 
L 362.051299 402.372911 
L 376.19085 150.604352 
L 390.3304 351.252367 
L 404.469951 232.283323 
L 418.609502 488.047828 
L 432.749053 320.610852 
L 446.888604 486.408067 
L 461.028155 269.465911 
L 489.307257 455.460415 
L 503.446808 335.092602 
L 517.586359 488.506413 
L 531.72591 485.385114 
L 545.865461 305.041314 
L 560.005012 482.973904 
L 574.144563 486.423173 
L 588.284114 293.269601 
L 616.563216 285.422031 
L 630.702767 270.134725 
L 644.842318 376.863524 
L 658.981869 338.776936 
L 673.12142 483.284651 
" clip-path="url(#p453d261f76)" style="fill: none; stroke: #1f77b4; stroke-width: 2; stroke-linecap: square"/>
    <defs>
     <path id="mad18d600c5" d="M 0 3 
C 0.795609 3 1.55874 2.683901 2.12132 2.12132 
C 2.683901 1.55874 3 0.795609 3 0 
C 3 -0.795609 2.683901 -1.55874 2.12132 -2.12132 
C 1.55874 -2.683901 0.795609 -3 0 -3 
C -0.795609 -3 -1.55874 -2.683901 -2.12132 -2.12132 
C -2.683901 -1.55874 -3 -0.795609 -3 0 
C -3 0.795609 -2.683901 1.55874 -2.12132 2.12132 
C -1.55874 2.683901 -0.795609 3 0 3 
z
" style="stroke: #1f77b4"/>
    </defs>
    <g clip-path="url(#p453d261f76)">
     <use xlink:href="#mad18d600c5" x="93.39983" y="482.850289" style="fill: #1f77b4; stroke: #1f77b4"/>
     <use xlink:href="#mad18d600c5" x="107.539381" y="272.436851" style="fill: #1f77b4; stroke: #1f77b4"/>
     <use xlink:href="#mad18d600c5" x="121.678932" y="291.181531" style="fill: #1f77b4; stroke: #1f77b4"/>
     <use xlink:href="#mad18d600c5" x="135.818483" y="404.67794" style="fill: #1f77b4; stroke: #1f77b4"/>
     <use xlink:href="#mad18d600c5" x="149.958034" y="274.444232" style="fill: #1f77b4; stroke: #1f77b4"/>
     <use xlink:href="#mad18d600c5" x="164.097585" y="480.388037" style="fill: #1f77b4; stroke: #1f77b4"/>
     <use xlink:href="#mad18d600c5" x="178.237136" y="403.415098" style="fill: #1f77b4; stroke: #1f77b4"/>
     <use xlink:href="#mad18d600c5" x="192.376687" y="209.896651" style="fill: #1f77b4; stroke: #1f77b4"/>
     <use xlink:href="#mad18d600c5" x="206.516238" y="266.582403" style="fill: #1f77b4; stroke: #1f77b4"/>
     <use xlink:href="#mad18d600c5" x="220.655789" y="483.408849" style="fill: #1f77b4; stroke: #1f77b4"/>
     <use xlink:href="#mad18d600c5" x="234.79534" y="434.397313" style="fill: #1f77b4; stroke: #1f77b4"/>
     <use xlink:href="#mad18d600c5" x="248.934891" y="271.574978" style="fill: #1f77b4; stroke: #1f77b4"/>
     <use xlink:href="#mad18d600c5" x="263.074442" y="458.880205" style="fill: #1f77b4; stroke: #1f77b4"/>
     <use xlink:href="#mad18d600c5" x="277.213993" y="377.778124" style="fill: #1f77b4; stroke: #1f77b4"/>
     <use xlink:href="#mad18d600c5" x="291.353544" y="346.820195" style="fill: #1f77b4; stroke: #1f77b4"/>
     <use xlink:href="#mad18d600c5" x="305.493095" y="486.263933" style="fill: #1f77b4; stroke: #1f77b4"/>
     <use xlink:href="#mad18d600c5" x="333.772197" y="428.787994" style="fill: #1f77b4; stroke: #1f77b4"/>
     <use xlink:href="#mad18d600c5" x="347.911748" y="163.598126" style="fill: #1f77b4; stroke: #1f77b4"/>
     <use xlink:href="#mad18d600c5" x="362.051299" y="402.372911" style="fill: #1f77b4; stroke: #1f77b4"/>
     <use xlink:href="#mad18d600c5" x="376.19085" y="150.604352" style="fill: #1f77b4; stroke: #1f77b4"/>
     <use xlink:href="#mad18d600c5" x="390.3304" y="351.252367" style="fill: #1f77b4; stroke: #1f77b4"/>
     <use xlink:href="#mad18d600c5" x="404.469951" y="232.283323" style="fill: #1f77b4; stroke: #1f77b4"/>
     <use xlink:href="#mad18d600c5" x="418.609502" y="488.047828" style="fill: #1f77b4; stroke: #1f77b4"/>
     <use xlink:href="#mad18d600c5" x="432.749053" y="320.610852" style="fill: #1f77b4; stroke: #1f77b4"/>
     <use xlink:href="#mad18d600c5" x="446.888604" y="486.408067" style="fill: #1f77b4; stroke: #1f77b4"/>
     <use xlink:href="#mad18d600c5" x="461.028155" y="269.465911" style="fill: #1f77b4; stroke: #1f77b4"/>
     <use xlink:href="#mad18d600c5" x="489.307257" y="455.460415" style="fill: #1f77b4; stroke: #1f77b4"/>
     <use xlink:href="#mad18d600c5" x="503.446808" y="335.092602" style="fill: #1f77b4; stroke: #1f77b4"/>
     <use xlink:href="#mad18d600c5" x="517.586359" y="488.506413" style="fill: #1f77b4; stroke: #1f77b4"/>
     <use xlink:href="#mad18d600c5" x="531.72591" y="485.385114" style="fill: #1f77b4; stroke: #1f77b4"/>
     <use xlink:href="#mad18d600c5" x="545.865461" y="305.041314" style="fill: #1f77b4; stroke: #1f77b4"/>
     <use xlink:href="#mad18d600c5" x="560.005012" y="482.973904" style="fill: #1f77b4; stroke: #1f77b4"/>
     <use xlink:href="#mad18d600c5" x="574.144563" y="486.423173" style="fill: #1f77b4; stroke: #1f77b4"/>
     <use xlink:href="#mad18d600c5" x="588.284114" y="293.269601" style="fill: #1f77b4; stroke: #1f77b4"/>
     <use xlink:href="#mad18d600c5" x="616.563216" y="285.422031" style="fill: #1f77b4; stroke: #1f77b4"/>
     <use xlink:href="#mad18d600c5" x="630.702767" y="270.134725" style="fill: #1f77b4; stroke: #1f77b4"/>
     <use xlink:href="#mad18d600c5" x="644.842318" y="376.863524" style="fill: #1f77b4; stroke: #1f77b4"/>
     <use xlink:href="#mad18d600c5" x="658.981869" y="338.776936" style="fill: #1f77b4; stroke: #1f77b4"/>
     <use xlink:href="#mad18d600c5" x="673.12142" y="483.284651" style="fill: #1f77b4; stroke: #1f77b4"/>
    </g>
   </g>
   <g id="line2d_18">
    <path d="M 93.39983 484.429483 
L 107.539381 273.23866 
L 121.678932 279.681236 
L 135.818483 452.760906 
L 149.958034 331.118307 
L 164.097585 487.281563 
L 178.237136 484.461575 
L 192.376687 444.529556 
L 206.516238 368.538952 
L 220.655789 347.978192 
L 234.79534 323.343312 
L 248.934891 393.361259 
L 263.074442 481.201981 
L 277.213993 267.502545 
L 291.353544 312.085135 
L 305.493095 485.153681 
L 333.772197 486.306156 
L 347.911748 268.247336 
L 362.051299 494.089865 
L 376.19085 267.916435 
L 390.3304 339.643944 
L 404.469951 297.489416 
L 418.609502 484.179414 
L 432.749053 273.943769 
L 446.888604 487.849448 
L 461.028155 357.421159 
L 489.307257 499.926294 
L 503.446808 370.18609 
L 517.586359 494.45834 
L 531.72591 419.072519 
L 545.865461 361.972468 
L 560.005012 502.032811 
L 574.144563 489.379773 
L 588.284114 256.471423 
L 616.563216 226.931571 
L 630.702767 287.340833 
L 644.842318 301.328628 
L 658.981869 445.801924 
L 673.12142 389.61417 
" clip-path="url(#p453d261f76)" style="fill: none; stroke: #ff7f0e; stroke-width: 2; stroke-linecap: square"/>
    <defs>
     <path id="m2eb2b1f87c" d="M 0 3 
C 0.795609 3 1.55874 2.683901 2.12132 2.12132 
C 2.683901 1.55874 3 0.795609 3 0 
C 3 -0.795609 2.683901 -1.55874 2.12132 -2.12132 
C 1.55874 -2.683901 0.795609 -3 0 -3 
C -0.795609 -3 -1.55874 -2.683901 -2.12132 -2.12132 
C -2.683901 -1.55874 -3 -0.795609 -3 0 
C -3 0.795609 -2.683901 1.55874 -2.12132 2.12132 
C -1.55874 2.683901 -0.795609 3 0 3 
z
" style="stroke: #ff7f0e"/>
    </defs>
    <g clip-path="url(#p453d261f76)">
     <use xlink:href="#m2eb2b1f87c" x="93.39983" y="484.429483" style="fill: #ff7f0e; stroke: #ff7f0e"/>
     <use xlink:href="#m2eb2b1f87c" x="107.539381" y="273.23866" style="fill: #ff7f0e; stroke: #ff7f0e"/>
     <use xlink:href="#m2eb2b1f87c" x="121.678932" y="279.681236" style="fill: #ff7f0e; stroke: #ff7f0e"/>
     <use xlink:href="#m2eb2b1f87c" x="135.818483" y="452.760906" style="fill: #ff7f0e; stroke: #ff7f0e"/>
     <use xlink:href="#m2eb2b1f87c" x="149.958034" y="331.118307" style="fill: #ff7f0e; stroke: #ff7f0e"/>
     <use xlink:href="#m2eb2b1f87c" x="164.097585" y="487.281563" style="fill: #ff7f0e; stroke: #ff7f0e"/>
     <use xlink:href="#m2eb2b1f87c" x="178.237136" y="484.461575" style="fill: #ff7f0e; stroke: #ff7f0e"/>
     <use xlink:href="#m2eb2b1f87c" x="192.376687" y="444.529556" style="fill: #ff7f0e; stroke: #ff7f0e"/>
     <use xlink:href="#m2eb2b1f87c" x="206.516238" y="368.538952" style="fill: #ff7f0e; stroke: #ff7f0e"/>
     <use xlink:href="#m2eb2b1f87c" x="220.655789" y="347.978192" style="fill: #ff7f0e; stroke: #ff7f0e"/>
     <use xlink:href="#m2eb2b1f87c" x="234.79534" y="323.343312" style="fill: #ff7f0e; stroke: #ff7f0e"/>
     <use xlink:href="#m2eb2b1f87c" x="248.934891" y="393.361259" style="fill: #ff7f0e; stroke: #ff7f0e"/>
     <use xlink:href="#m2eb2b1f87c" x="263.074442" y="481.201981" style="fill: #ff7f0e; stroke: #ff7f0e"/>
     <use xlink:href="#m2eb2b1f87c" x="277.213993" y="267.502545" style="fill: #ff7f0e; stroke: #ff7f0e"/>
     <use xlink:href="#m2eb2b1f87c" x="291.353544" y="312.085135" style="fill: #ff7f0e; stroke: #ff7f0e"/>
     <use xlink:href="#m2eb2b1f87c" x="305.493095" y="485.153681" style="fill: #ff7f0e; stroke: #ff7f0e"/>
     <use xlink:href="#m2eb2b1f87c" x="333.772197" y="486.306156" style="fill: #ff7f0e; stroke: #ff7f0e"/>
     <use xlink:href="#m2eb2b1f87c" x="347.911748" y="268.247336" style="fill: #ff7f0e; stroke: #ff7f0e"/>
     <use xlink:href="#m2eb2b1f87c" x="362.051299" y="494.089865" style="fill: #ff7f0e; stroke: #ff7f0e"/>
     <use xlink:href="#m2eb2b1f87c" x="376.19085" y="267.916435" style="fill: #ff7f0e; stroke: #ff7f0e"/>
     <use xlink:href="#m2eb2b1f87c" x="390.3304" y="339.643944" style="fill: #ff7f0e; stroke: #ff7f0e"/>
     <use xlink:href="#m2eb2b1f87c" x="404.469951" y="297.489416" style="fill: #ff7f0e; stroke: #ff7f0e"/>
     <use xlink:href="#m2eb2b1f87c" x="418.609502" y="484.179414" style="fill: #ff7f0e; stroke: #ff7f0e"/>
     <use xlink:href="#m2eb2b1f87c" x="432.749053" y="273.943769" style="fill: #ff7f0e; stroke: #ff7f0e"/>
     <use xlink:href="#m2eb2b1f87c" x="446.888604" y="487.849448" style="fill: #ff7f0e; stroke: #ff7f0e"/>
     <use xlink:href="#m2eb2b1f87c" x="461.028155" y="357.421159" style="fill: #ff7f0e; stroke: #ff7f0e"/>
     <use xlink:href="#m2eb2b1f87c" x="489.307257" y="499.926294" style="fill: #ff7f0e; stroke: #ff7f0e"/>
     <use xlink:href="#m2eb2b1f87c" x="503.446808" y="370.18609" style="fill: #ff7f0e; stroke: #ff7f0e"/>
     <use xlink:href="#m2eb2b1f87c" x="517.586359" y="494.45834" style="fill: #ff7f0e; stroke: #ff7f0e"/>
     <use xlink:href="#m2eb2b1f87c" x="531.72591" y="419.072519" style="fill: #ff7f0e; stroke: #ff7f0e"/>
     <use xlink:href="#m2eb2b1f87c" x="545.865461" y="361.972468" style="fill: #ff7f0e; stroke: #ff7f0e"/>
     <use xlink:href="#m2eb2b1f87c" x="560.005012" y="502.032811" style="fill: #ff7f0e; stroke: #ff7f0e"/>
     <use xlink:href="#m2eb2b1f87c" x="574.144563" y="489.379773" style="fill: #ff7f0e; stroke: #ff7f0e"/>
     <use xlink:href="#m2eb2b1f87c" x="588.284114" y="256.471423" style="fill: #ff7f0e; stroke: #ff7f0e"/>
     <use xlink:href="#m2eb2b1f87c" x="616.563216" y="226.931571" style="fill: #ff7f0e; stroke: #ff7f0e"/>
     <use xlink:href="#m2eb2b1f87c" x="630.702767" y="287.340833" style="fill: #ff7f0e; stroke: #ff7f0e"/>
     <use xlink:href="#m2eb2b1f87c" x="644.842318" y="301.328628" style="fill: #ff7f0e; stroke: #ff7f0e"/>
     <use xlink:href="#m2eb2b1f87c" x="658.981869" y="445.801924" style="fill: #ff7f0e; stroke: #ff7f0e"/>
     <use xlink:href="#m2eb2b1f87c" x="673.12142" y="389.61417" style="fill: #ff7f0e; stroke: #ff7f0e"/>
    </g>
   </g>
   <g id="line2d_19">
    <path d="M 93.39983 500.025989 
L 107.539381 385.907026 
L 121.678932 256.308997 
L 135.818483 498.159903 
L 149.958034 472.697249 
L 164.097585 496.118462 
L 178.237136 494.75831 
L 192.376687 498.403517 
L 206.516238 498.335325 
L 220.655789 491.245114 
L 234.79534 497.031826 
L 248.934891 496.976117 
L 263.074442 497.20429 
L 277.213993 399.782922 
L 291.353544 489.423688 
L 305.493095 498.200645 
L 333.772197 494.561352 
L 347.911748 459.375612 
L 362.051299 497.056437 
L 376.19085 392.39891 
L 390.3304 449.214439 
L 404.469951 358.806025 
L 418.609502 477.072647 
L 432.749053 257.354819 
L 446.888604 494.117573 
L 461.028155 353.949086 
L 489.307257 499.269751 
L 503.446808 389.980137 
L 517.586359 498.922495 
L 531.72591 395.696534 
L 545.865461 404.364427 
L 560.005012 497.0886 
L 574.144563 497.781321 
L 588.284114 332.998521 
L 616.563216 395.540063 
L 630.702767 311.496772 
L 644.842318 388.335773 
L 658.981869 485.51076 
L 673.12142 370.244452 
" clip-path="url(#p453d261f76)" style="fill: none; stroke: #2ca02c; stroke-width: 2; stroke-linecap: square"/>
    <defs>
     <path id="m1554f85d25" d="M 0 3 
C 0.795609 3 1.55874 2.683901 2.12132 2.12132 
C 2.683901 1.55874 3 0.795609 3 0 
C 3 -0.795609 2.683901 -1.55874 2.12132 -2.12132 
C 1.55874 -2.683901 0.795609 -3 0 -3 
C -0.795609 -3 -1.55874 -2.683901 -2.12132 -2.12132 
C -2.683901 -1.55874 -3 -0.795609 -3 0 
C -3 0.795609 -2.683901 1.55874 -2.12132 2.12132 
C -1.55874 2.683901 -0.795609 3 0 3 
z
" style="stroke: #2ca02c"/>
    </defs>
    <g clip-path="url(#p453d261f76)">
     <use xlink:href="#m1554f85d25" x="93.39983" y="500.025989" style="fill: #2ca02c; stroke: #2ca02c"/>
     <use xlink:href="#m1554f85d25" x="107.539381" y="385.907026" style="fill: #2ca02c; stroke: #2ca02c"/>
     <use xlink:href="#m1554f85d25" x="121.678932" y="256.308997" style="fill: #2ca02c; stroke: #2ca02c"/>
     <use xlink:href="#m1554f85d25" x="135.818483" y="498.159903" style="fill: #2ca02c; stroke: #2ca02c"/>
     <use xlink:href="#m1554f85d25" x="149.958034" y="472.697249" style="fill: #2ca02c; stroke: #2ca02c"/>
     <use xlink:href="#m1554f85d25" x="164.097585" y="496.118462" style="fill: #2ca02c; stroke: #2ca02c"/>
     <use xlink:href="#m1554f85d25" x="178.237136" y="494.75831" style="fill: #2ca02c; stroke: #2ca02c"/>
     <use xlink:href="#m1554f85d25" x="192.376687" y="498.403517" style="fill: #2ca02c; stroke: #2ca02c"/>
     <use xlink:href="#m1554f85d25" x="206.516238" y="498.335325" style="fill: #2ca02c; stroke: #2ca02c"/>
     <use xlink:href="#m1554f85d25" x="220.655789" y="491.245114" style="fill: #2ca02c; stroke: #2ca02c"/>
     <use xlink:href="#m1554f85d25" x="234.79534" y="497.031826" style="fill: #2ca02c; stroke: #2ca02c"/>
     <use xlink:href="#m1554f85d25" x="248.934891" y="496.976117" style="fill: #2ca02c; stroke: #2ca02c"/>
     <use xlink:href="#m1554f85d25" x="263.074442" y="497.20429" style="fill: #2ca02c; stroke: #2ca02c"/>
     <use xlink:href="#m1554f85d25" x="277.213993" y="399.782922" style="fill: #2ca02c; stroke: #2ca02c"/>
     <use xlink:href="#m1554f85d25" x="291.353544" y="489.423688" style="fill: #2ca02c; stroke: #2ca02c"/>
     <use xlink:href="#m1554f85d25" x="305.493095" y="498.200645" style="fill: #2ca02c; stroke: #2ca02c"/>
     <use xlink:href="#m1554f85d25" x="333.772197" y="494.561352" style="fill: #2ca02c; stroke: #2ca02c"/>
     <use xlink:href="#m1554f85d25" x="347.911748" y="459.375612" style="fill: #2ca02c; stroke: #2ca02c"/>
     <use xlink:href="#m1554f85d25" x="362.051299" y="497.056437" style="fill: #2ca02c; stroke: #2ca02c"/>
     <use xlink:href="#m1554f85d25" x="376.19085" y="392.39891" style="fill: #2ca02c; stroke: #2ca02c"/>
     <use xlink:href="#m1554f85d25" x="390.3304" y="449.214439" style="fill: #2ca02c; stroke: #2ca02c"/>
     <use xlink:href="#m1554f85d25" x="404.469951" y="358.806025" style="fill: #2ca02c; stroke: #2ca02c"/>
     <use xlink:href="#m1554f85d25" x="418.609502" y="477.072647" style="fill: #2ca02c; stroke: #2ca02c"/>
     <use xlink:href="#m1554f85d25" x="432.749053" y="257.354819" style="fill: #2ca02c; stroke: #2ca02c"/>
     <use xlink:href="#m1554f85d25" x="446.888604" y="494.117573" style="fill: #2ca02c; stroke: #2ca02c"/>
     <use xlink:href="#m1554f85d25" x="461.028155" y="353.949086" style="fill: #2ca02c; stroke: #2ca02c"/>
     <use xlink:href="#m1554f85d25" x="489.307257" y="499.269751" style="fill: #2ca02c; stroke: #2ca02c"/>
     <use xlink:href="#m1554f85d25" x="503.446808" y="389.980137" style="fill: #2ca02c; stroke: #2ca02c"/>
     <use xlink:href="#m1554f85d25" x="517.586359" y="498.922495" style="fill: #2ca02c; stroke: #2ca02c"/>
     <use xlink:href="#m1554f85d25" x="531.72591" y="395.696534" style="fill: #2ca02c; stroke: #2ca02c"/>
     <use xlink:href="#m1554f85d25" x="545.865461" y="404.364427" style="fill: #2ca02c; stroke: #2ca02c"/>
     <use xlink:href="#m1554f85d25" x="560.005012" y="497.0886" style="fill: #2ca02c; stroke: #2ca02c"/>
     <use xlink:href="#m1554f85d25" x="574.144563" y="497.781321" style="fill: #2ca02c; stroke: #2ca02c"/>
     <use xlink:href="#m1554f85d25" x="588.284114" y="332.998521" style="fill: #2ca02c; stroke: #2ca02c"/>
     <use xlink:href="#m1554f85d25" x="616.563216" y="395.540063" style="fill: #2ca02c; stroke: #2ca02c"/>
     <use xlink:href="#m1554f85d25" x="630.702767" y="311.496772" style="fill: #2ca02c; stroke: #2ca02c"/>
     <use xlink:href="#m1554f85d25" x="644.842318" y="388.335773" style="fill: #2ca02c; stroke: #2ca02c"/>
     <use xlink:href="#m1554f85d25" x="658.981869" y="485.51076" style="fill: #2ca02c; stroke: #2ca02c"/>
     <use xlink:href="#m1554f85d25" x="673.12142" y="370.244452" style="fill: #2ca02c; stroke: #2ca02c"/>
    </g>
   </g>
   <g id="line2d_20">
    <path d="M 93.39983 501.345584 
L 107.539381 499.20322 
L 121.678932 504.463285 
L 135.818483 503.899608 
L 149.958034 287.057348 
L 164.097585 289.092086 
L 178.237136 505.211372 
L 192.376687 403.387407 
L 206.516238 498.273054 
L 220.655789 501.308766 
L 234.79534 503.970848 
L 248.934891 501.776211 
L 263.074442 54.121967 
L 291.353544 459.96144 
L 305.493095 500.917142 
L 333.772197 501.488611 
L 347.911748 505.715691 
L 362.051299 90.419902 
L 376.19085 505.174317 
L 390.3304 504.923833 
L 418.609502 504.988174 
L 432.749053 504.764804 
L 446.888604 503.416534 
L 461.028155 506.124725 
L 489.307257 506.332202 
L 503.446808 283.32809 
L 517.586359 503.340948 
L 531.72591 505.580272 
L 545.865461 503.448647 
L 560.005012 505.665753 
L 574.144563 473.678574 
L 588.284114 504.881562 
L 616.563216 385.995694 
L 630.702767 505.442586 
L 644.842318 46.813736 
L 673.12142 487.533177 
" clip-path="url(#p453d261f76)" style="fill: none; stroke: #d62728; stroke-width: 2; stroke-linecap: square"/>
    <defs>
     <path id="mf42bb5799d" d="M 0 3 
C 0.795609 3 1.55874 2.683901 2.12132 2.12132 
C 2.683901 1.55874 3 0.795609 3 0 
C 3 -0.795609 2.683901 -1.55874 2.12132 -2.12132 
C 1.55874 -2.683901 0.795609 -3 0 -3 
C -0.795609 -3 -1.55874 -2.683901 -2.12132 -2.12132 
C -2.683901 -1.55874 -3 -0.795609 -3 0 
C -3 0.795609 -2.683901 1.55874 -2.12132 2.12132 
C -1.55874 2.683901 -0.795609 3 0 3 
z
" style="stroke: #d62728"/>
    </defs>
    <g clip-path="url(#p453d261f76)">
     <use xlink:href="#mf42bb5799d" x="93.39983" y="501.345584" style="fill: #d62728; stroke: #d62728"/>
     <use xlink:href="#mf42bb5799d" x="107.539381" y="499.20322" style="fill: #d62728; stroke: #d62728"/>
     <use xlink:href="#mf42bb5799d" x="121.678932" y="504.463285" style="fill: #d62728; stroke: #d62728"/>
     <use xlink:href="#mf42bb5799d" x="135.818483" y="503.899608" style="fill: #d62728; stroke: #d62728"/>
     <use xlink:href="#mf42bb5799d" x="149.958034" y="287.057348" style="fill: #d62728; stroke: #d62728"/>
     <use xlink:href="#mf42bb5799d" x="164.097585" y="289.092086" style="fill: #d62728; stroke: #d62728"/>
     <use xlink:href="#mf42bb5799d" x="178.237136" y="505.211372" style="fill: #d62728; stroke: #d62728"/>
     <use xlink:href="#mf42bb5799d" x="192.376687" y="403.387407" style="fill: #d62728; stroke: #d62728"/>
     <use xlink:href="#mf42bb5799d" x="206.516238" y="498.273054" style="fill: #d62728; stroke: #d62728"/>
     <use xlink:href="#mf42bb5799d" x="220.655789" y="501.308766" style="fill: #d62728; stroke: #d62728"/>
     <use xlink:href="#mf42bb5799d" x="234.79534" y="503.970848" style="fill: #d62728; stroke: #d62728"/>
     <use xlink:href="#mf42bb5799d" x="248.934891" y="501.776211" style="fill: #d62728; stroke: #d62728"/>
     <use xlink:href="#mf42bb5799d" x="263.074442" y="54.121967" style="fill: #d62728; stroke: #d62728"/>
     <use xlink:href="#mf42bb5799d" x="291.353544" y="459.96144" style="fill: #d62728; stroke: #d62728"/>
     <use xlink:href="#mf42bb5799d" x="305.493095" y="500.917142" style="fill: #d62728; stroke: #d62728"/>
     <use xlink:href="#mf42bb5799d" x="333.772197" y="501.488611" style="fill: #d62728; stroke: #d62728"/>
     <use xlink:href="#mf42bb5799d" x="347.911748" y="505.715691" style="fill: #d62728; stroke: #d62728"/>
     <use xlink:href="#mf42bb5799d" x="362.051299" y="90.419902" style="fill: #d62728; stroke: #d62728"/>
     <use xlink:href="#mf42bb5799d" x="376.19085" y="505.174317" style="fill: #d62728; stroke: #d62728"/>
     <use xlink:href="#mf42bb5799d" x="390.3304" y="504.923833" style="fill: #d62728; stroke: #d62728"/>
     <use xlink:href="#mf42bb5799d" x="418.609502" y="504.988174" style="fill: #d62728; stroke: #d62728"/>
     <use xlink:href="#mf42bb5799d" x="432.749053" y="504.764804" style="fill: #d62728; stroke: #d62728"/>
     <use xlink:href="#mf42bb5799d" x="446.888604" y="503.416534" style="fill: #d62728; stroke: #d62728"/>
     <use xlink:href="#mf42bb5799d" x="461.028155" y="506.124725" style="fill: #d62728; stroke: #d62728"/>
     <use xlink:href="#mf42bb5799d" x="489.307257" y="506.332202" style="fill: #d62728; stroke: #d62728"/>
     <use xlink:href="#mf42bb5799d" x="503.446808" y="283.32809" style="fill: #d62728; stroke: #d62728"/>
     <use xlink:href="#mf42bb5799d" x="517.586359" y="503.340948" style="fill: #d62728; stroke: #d62728"/>
     <use xlink:href="#mf42bb5799d" x="531.72591" y="505.580272" style="fill: #d62728; stroke: #d62728"/>
     <use xlink:href="#mf42bb5799d" x="545.865461" y="503.448647" style="fill: #d62728; stroke: #d62728"/>
     <use xlink:href="#mf42bb5799d" x="560.005012" y="505.665753" style="fill: #d62728; stroke: #d62728"/>
     <use xlink:href="#mf42bb5799d" x="574.144563" y="473.678574" style="fill: #d62728; stroke: #d62728"/>
     <use xlink:href="#mf42bb5799d" x="588.284114" y="504.881562" style="fill: #d62728; stroke: #d62728"/>
     <use xlink:href="#mf42bb5799d" x="616.563216" y="385.995694" style="fill: #d62728; stroke: #d62728"/>
     <use xlink:href="#mf42bb5799d" x="630.702767" y="505.442586" style="fill: #d62728; stroke: #d62728"/>
     <use xlink:href="#mf42bb5799d" x="644.842318" y="46.813736" style="fill: #d62728; stroke: #d62728"/>
     <use xlink:href="#mf42bb5799d" x="673.12142" y="487.533177" style="fill: #d62728; stroke: #d62728"/>
    </g>
   </g>
   <g id="line2d_21">
    <path d="M 93.39983 494.287468 
L 107.539381 460.34291 
L 121.678932 497.148555 
L 135.818483 489.888002 
L 149.958034 357.435479 
L 164.097585 175.355364 
L 178.237136 500.809271 
L 192.376687 469.835281 
L 206.516238 357.932505 
L 220.655789 496.80195 
L 234.79534 503.043979 
L 248.934891 501.145348 
L 263.074442 190.095553 
L 291.353544 172.651408 
L 305.493095 501.990414 
L 333.772197 497.780565 
L 347.911748 500.130736 
L 362.051299 277.22899 
L 376.19085 489.276733 
L 390.3304 495.372066 
L 418.609502 500.519993 
L 432.749053 495.767115 
L 446.888604 504.224067 
L 461.028155 502.823941 
L 489.307257 504.749845 
L 503.446808 285.908071 
L 517.586359 505.827186 
L 531.72591 503.060249 
L 545.865461 503.627243 
L 560.005012 505.518609 
L 574.144563 468.937465 
L 588.284114 501.670074 
L 616.563216 505.601757 
L 630.702767 504.609235 
L 644.842318 285.85251 
L 673.12142 502.832225 
" clip-path="url(#p453d261f76)" style="fill: none; stroke: #9467bd; stroke-width: 2; stroke-linecap: square"/>
    <defs>
     <path id="mbf8e29ddd9" d="M 0 3 
C 0.795609 3 1.55874 2.683901 2.12132 2.12132 
C 2.683901 1.55874 3 0.795609 3 0 
C 3 -0.795609 2.683901 -1.55874 2.12132 -2.12132 
C 1.55874 -2.683901 0.795609 -3 0 -3 
C -0.795609 -3 -1.55874 -2.683901 -2.12132 -2.12132 
C -2.683901 -1.55874 -3 -0.795609 -3 0 
C -3 0.795609 -2.683901 1.55874 -2.12132 2.12132 
C -1.55874 2.683901 -0.795609 3 0 3 
z
" style="stroke: #9467bd"/>
    </defs>
    <g clip-path="url(#p453d261f76)">
     <use xlink:href="#mbf8e29ddd9" x="93.39983" y="494.287468" style="fill: #9467bd; stroke: #9467bd"/>
     <use xlink:href="#mbf8e29ddd9" x="107.539381" y="460.34291" style="fill: #9467bd; stroke: #9467bd"/>
     <use xlink:href="#mbf8e29ddd9" x="121.678932" y="497.148555" style="fill: #9467bd; stroke: #9467bd"/>
     <use xlink:href="#mbf8e29ddd9" x="135.818483" y="489.888002" style="fill: #9467bd; stroke: #9467bd"/>
     <use xlink:href="#mbf8e29ddd9" x="149.958034" y="357.435479" style="fill: #9467bd; stroke: #9467bd"/>
     <use xlink:href="#mbf8e29ddd9" x="164.097585" y="175.355364" style="fill: #9467bd; stroke: #9467bd"/>
     <use xlink:href="#mbf8e29ddd9" x="178.237136" y="500.809271" style="fill: #9467bd; stroke: #9467bd"/>
     <use xlink:href="#mbf8e29ddd9" x="192.376687" y="469.835281" style="fill: #9467bd; stroke: #9467bd"/>
     <use xlink:href="#mbf8e29ddd9" x="206.516238" y="357.932505" style="fill: #9467bd; stroke: #9467bd"/>
     <use xlink:href="#mbf8e29ddd9" x="220.655789" y="496.80195" style="fill: #9467bd; stroke: #9467bd"/>
     <use xlink:href="#mbf8e29ddd9" x="234.79534" y="503.043979" style="fill: #9467bd; stroke: #9467bd"/>
     <use xlink:href="#mbf8e29ddd9" x="248.934891" y="501.145348" style="fill: #9467bd; stroke: #9467bd"/>
     <use xlink:href="#mbf8e29ddd9" x="263.074442" y="190.095553" style="fill: #9467bd; stroke: #9467bd"/>
     <use xlink:href="#mbf8e29ddd9" x="291.353544" y="172.651408" style="fill: #9467bd; stroke: #9467bd"/>
     <use xlink:href="#mbf8e29ddd9" x="305.493095" y="501.990414" style="fill: #9467bd; stroke: #9467bd"/>
     <use xlink:href="#mbf8e29ddd9" x="333.772197" y="497.780565" style="fill: #9467bd; stroke: #9467bd"/>
     <use xlink:href="#mbf8e29ddd9" x="347.911748" y="500.130736" style="fill: #9467bd; stroke: #9467bd"/>
     <use xlink:href="#mbf8e29ddd9" x="362.051299" y="277.22899" style="fill: #9467bd; stroke: #9467bd"/>
     <use xlink:href="#mbf8e29ddd9" x="376.19085" y="489.276733" style="fill: #9467bd; stroke: #9467bd"/>
     <use xlink:href="#mbf8e29ddd9" x="390.3304" y="495.372066" style="fill: #9467bd; stroke: #9467bd"/>
     <use xlink:href="#mbf8e29ddd9" x="418.609502" y="500.519993" style="fill: #9467bd; stroke: #9467bd"/>
     <use xlink:href="#mbf8e29ddd9" x="432.749053" y="495.767115" style="fill: #9467bd; stroke: #9467bd"/>
     <use xlink:href="#mbf8e29ddd9" x="446.888604" y="504.224067" style="fill: #9467bd; stroke: #9467bd"/>
     <use xlink:href="#mbf8e29ddd9" x="461.028155" y="502.823941" style="fill: #9467bd; stroke: #9467bd"/>
     <use xlink:href="#mbf8e29ddd9" x="489.307257" y="504.749845" style="fill: #9467bd; stroke: #9467bd"/>
     <use xlink:href="#mbf8e29ddd9" x="503.446808" y="285.908071" style="fill: #9467bd; stroke: #9467bd"/>
     <use xlink:href="#mbf8e29ddd9" x="517.586359" y="505.827186" style="fill: #9467bd; stroke: #9467bd"/>
     <use xlink:href="#mbf8e29ddd9" x="531.72591" y="503.060249" style="fill: #9467bd; stroke: #9467bd"/>
     <use xlink:href="#mbf8e29ddd9" x="545.865461" y="503.627243" style="fill: #9467bd; stroke: #9467bd"/>
     <use xlink:href="#mbf8e29ddd9" x="560.005012" y="505.518609" style="fill: #9467bd; stroke: #9467bd"/>
     <use xlink:href="#mbf8e29ddd9" x="574.144563" y="468.937465" style="fill: #9467bd; stroke: #9467bd"/>
     <use xlink:href="#mbf8e29ddd9" x="588.284114" y="501.670074" style="fill: #9467bd; stroke: #9467bd"/>
     <use xlink:href="#mbf8e29ddd9" x="616.563216" y="505.601757" style="fill: #9467bd; stroke: #9467bd"/>
     <use xlink:href="#mbf8e29ddd9" x="630.702767" y="504.609235" style="fill: #9467bd; stroke: #9467bd"/>
     <use xlink:href="#mbf8e29ddd9" x="644.842318" y="285.85251" style="fill: #9467bd; stroke: #9467bd"/>
     <use xlink:href="#mbf8e29ddd9" x="673.12142" y="502.832225" style="fill: #9467bd; stroke: #9467bd"/>
    </g>
   </g>
   <g id="line2d_22">
    <path d="M 93.39983 364.913717 
L 107.539381 358.358623 
L 121.678932 363.909377 
L 135.818483 366.352254 
L 149.958034 357.748297 
L 164.097585 360.290015 
L 178.237136 466.291742 
L 192.376687 461.426709 
L 206.516238 359.706311 
L 220.655789 363.793307 
L 234.79534 366.147396 
L 248.934891 364.70504 
L 263.074442 403.598594 
L 291.353544 304.686863 
L 305.493095 363.080915 
L 333.772197 364.628012 
L 347.911748 363.007786 
L 362.051299 438.286838 
L 376.19085 393.483935 
L 390.3304 363.070452 
L 418.609502 465.507828 
L 432.749053 296.788363 
L 446.888604 363.659352 
L 461.028155 362.276146 
L 489.307257 466.599306 
L 503.446808 457.205838 
L 517.586359 394.032213 
L 531.72591 365.818977 
L 545.865461 362.663991 
L 560.005012 361.0387 
L 574.144563 427.206728 
L 588.284114 363.095878 
L 616.563216 466.311035 
L 630.702767 365.069698 
L 644.842318 464.843083 
L 673.12142 421.870836 
" clip-path="url(#p453d261f76)" style="fill: none; stroke: #8c564b; stroke-width: 2; stroke-linecap: square"/>
    <defs>
     <path id="m0f67c367f6" d="M 0 3 
C 0.795609 3 1.55874 2.683901 2.12132 2.12132 
C 2.683901 1.55874 3 0.795609 3 0 
C 3 -0.795609 2.683901 -1.55874 2.12132 -2.12132 
C 1.55874 -2.683901 0.795609 -3 0 -3 
C -0.795609 -3 -1.55874 -2.683901 -2.12132 -2.12132 
C -2.683901 -1.55874 -3 -0.795609 -3 0 
C -3 0.795609 -2.683901 1.55874 -2.12132 2.12132 
C -1.55874 2.683901 -0.795609 3 0 3 
z
" style="stroke: #8c564b"/>
    </defs>
    <g clip-path="url(#p453d261f76)">
     <use xlink:href="#m0f67c367f6" x="93.39983" y="364.913717" style="fill: #8c564b; stroke: #8c564b"/>
     <use xlink:href="#m0f67c367f6" x="107.539381" y="358.358623" style="fill: #8c564b; stroke: #8c564b"/>
     <use xlink:href="#m0f67c367f6" x="121.678932" y="363.909377" style="fill: #8c564b; stroke: #8c564b"/>
     <use xlink:href="#m0f67c367f6" x="135.818483" y="366.352254" style="fill: #8c564b; stroke: #8c564b"/>
     <use xlink:href="#m0f67c367f6" x="149.958034" y="357.748297" style="fill: #8c564b; stroke: #8c564b"/>
     <use xlink:href="#m0f67c367f6" x="164.097585" y="360.290015" style="fill: #8c564b; stroke: #8c564b"/>
     <use xlink:href="#m0f67c367f6" x="178.237136" y="466.291742" style="fill: #8c564b; stroke: #8c564b"/>
     <use xlink:href="#m0f67c367f6" x="192.376687" y="461.426709" style="fill: #8c564b; stroke: #8c564b"/>
     <use xlink:href="#m0f67c367f6" x="206.516238" y="359.706311" style="fill: #8c564b; stroke: #8c564b"/>
     <use xlink:href="#m0f67c367f6" x="220.655789" y="363.793307" style="fill: #8c564b; stroke: #8c564b"/>
     <use xlink:href="#m0f67c367f6" x="234.79534" y="366.147396" style="fill: #8c564b; stroke: #8c564b"/>
     <use xlink:href="#m0f67c367f6" x="248.934891" y="364.70504" style="fill: #8c564b; stroke: #8c564b"/>
     <use xlink:href="#m0f67c367f6" x="263.074442" y="403.598594" style="fill: #8c564b; stroke: #8c564b"/>
     <use xlink:href="#m0f67c367f6" x="291.353544" y="304.686863" style="fill: #8c564b; stroke: #8c564b"/>
     <use xlink:href="#m0f67c367f6" x="305.493095" y="363.080915" style="fill: #8c564b; stroke: #8c564b"/>
     <use xlink:href="#m0f67c367f6" x="333.772197" y="364.628012" style="fill: #8c564b; stroke: #8c564b"/>
     <use xlink:href="#m0f67c367f6" x="347.911748" y="363.007786" style="fill: #8c564b; stroke: #8c564b"/>
     <use xlink:href="#m0f67c367f6" x="362.051299" y="438.286838" style="fill: #8c564b; stroke: #8c564b"/>
     <use xlink:href="#m0f67c367f6" x="376.19085" y="393.483935" style="fill: #8c564b; stroke: #8c564b"/>
     <use xlink:href="#m0f67c367f6" x="390.3304" y="363.070452" style="fill: #8c564b; stroke: #8c564b"/>
     <use xlink:href="#m0f67c367f6" x="418.609502" y="465.507828" style="fill: #8c564b; stroke: #8c564b"/>
     <use xlink:href="#m0f67c367f6" x="432.749053" y="296.788363" style="fill: #8c564b; stroke: #8c564b"/>
     <use xlink:href="#m0f67c367f6" x="446.888604" y="363.659352" style="fill: #8c564b; stroke: #8c564b"/>
     <use xlink:href="#m0f67c367f6" x="461.028155" y="362.276146" style="fill: #8c564b; stroke: #8c564b"/>
     <use xlink:href="#m0f67c367f6" x="489.307257" y="466.599306" style="fill: #8c564b; stroke: #8c564b"/>
     <use xlink:href="#m0f67c367f6" x="503.446808" y="457.205838" style="fill: #8c564b; stroke: #8c564b"/>
     <use xlink:href="#m0f67c367f6" x="517.586359" y="394.032213" style="fill: #8c564b; stroke: #8c564b"/>
     <use xlink:href="#m0f67c367f6" x="531.72591" y="365.818977" style="fill: #8c564b; stroke: #8c564b"/>
     <use xlink:href="#m0f67c367f6" x="545.865461" y="362.663991" style="fill: #8c564b; stroke: #8c564b"/>
     <use xlink:href="#m0f67c367f6" x="560.005012" y="361.0387" style="fill: #8c564b; stroke: #8c564b"/>
     <use xlink:href="#m0f67c367f6" x="574.144563" y="427.206728" style="fill: #8c564b; stroke: #8c564b"/>
     <use xlink:href="#m0f67c367f6" x="588.284114" y="363.095878" style="fill: #8c564b; stroke: #8c564b"/>
     <use xlink:href="#m0f67c367f6" x="616.563216" y="466.311035" style="fill: #8c564b; stroke: #8c564b"/>
     <use xlink:href="#m0f67c367f6" x="630.702767" y="365.069698" style="fill: #8c564b; stroke: #8c564b"/>
     <use xlink:href="#m0f67c367f6" x="644.842318" y="464.843083" style="fill: #8c564b; stroke: #8c564b"/>
     <use xlink:href="#m0f67c367f6" x="673.12142" y="421.870836" style="fill: #8c564b; stroke: #8c564b"/>
    </g>
   </g>
   <g id="patch_3">
    <path d="M 64.41375 529.308125 
L 64.41375 23.837812 
" style="fill: none; stroke: #000000; stroke-width: 0.8; stroke-linejoin: miter; stroke-linecap: square"/>
   </g>
   <g id="patch_4">
    <path d="M 702.1075 529.308125 
L 702.1075 23.837812 
" style="fill: none; stroke: #000000; stroke-width: 0.8; stroke-linejoin: miter; stroke-linecap: square"/>
   </g>
   <g id="patch_5">
    <path d="M 64.41375 529.308125 
L 702.1075 529.308125 
" style="fill: none; stroke: #000000; stroke-width: 0.8; stroke-linejoin: miter; stroke-linecap: square"/>
   </g>
   <g id="patch_6">
    <path d="M 64.41375 23.837812 
L 702.1075 23.837812 
" style="fill: none; stroke: #000000; stroke-width: 0.8; stroke-linejoin: miter; stroke-linecap: square"/>
   </g>
   <g id="text_11">
    <text style="font: 700 14px 'DejaVu Sans', 'Bitstream Vera Sans', 'Computer Modern Sans Serif', 'Lucida Grande', 'Verdana', 'Geneva', 'Lucid', 'Arial', 'Helvetica', 'Avant Garde', sans-serif; text-anchor: middle" x="383.260625" y="17.837813" transform="rotate(-0 383.260625 17.837813)">Mixedworkload - Performance Trend</text>
   </g>
   <g id="legend_1">
    <g id="patch_7">
     <path d="M 740.992188 119.906563 
L 846.004688 119.906563 
Q 848.004688 119.906563 848.004688 117.906563 
L 848.004688 30.837813 
Q 848.004688 28.837813 846.004688 28.837813 
L 740.992188 28.837813 
Q 738.992188 28.837813 738.992188 30.837813 
L 738.992188 117.906563 
Q 738.992188 119.906563 740.992188 119.906563 
z
" style="fill: #ffffff; opacity: 0.8; stroke: #cccccc; stroke-linejoin: miter"/>
    </g>
    <g id="line2d_23">
     <path d="M 742.992188 36.93625 
L 752.992188 36.93625 
L 762.992188 36.93625 
" style="fill: none; stroke: #1f77b4; stroke-width: 2; stroke-linecap: square"/>
     <g>
      <use xlink:href="#mad18d600c5" x="752.992188" y="36.93625" style="fill: #1f77b4; stroke: #1f77b4"/>
     </g>
    </g>
    <g id="text_12">
     <text style="font: 10px 'DejaVu Sans', 'Bitstream Vera Sans', 'Computer Modern Sans Serif', 'Lucida Grande', 'Verdana', 'Geneva', 'Lucid', 'Arial', 'Helvetica', 'Avant Garde', sans-serif; text-anchor: start" x="770.992188" y="40.43625" transform="rotate(-0 770.992188 40.43625)">gcc-14.2 - V1</text>
    </g>
    <g id="line2d_24">
     <path d="M 742.992188 51.614375 
L 752.992188 51.614375 
L 762.992188 51.614375 
" style="fill: none; stroke: #ff7f0e; stroke-width: 2; stroke-linecap: square"/>
     <g>
      <use xlink:href="#m2eb2b1f87c" x="752.992188" y="51.614375" style="fill: #ff7f0e; stroke: #ff7f0e"/>
     </g>
    </g>
    <g id="text_13">
     <text style="font: 10px 'DejaVu Sans', 'Bitstream Vera Sans', 'Computer Modern Sans Serif', 'Lucida Grande', 'Verdana', 'Geneva', 'Lucid', 'Arial', 'Helvetica', 'Avant Garde', sans-serif; text-anchor: start" x="770.992188" y="55.114375" transform="rotate(-0 770.992188 55.114375)">gcc-14.2 - V2</text>
    </g>
    <g id="line2d_25">
     <path d="M 742.992188 66.2925 
L 752.992188 66.2925 
L 762.992188 66.2925 
" style="fill: none; stroke: #2ca02c; stroke-width: 2; stroke-linecap: square"/>
     <g>
      <use xlink:href="#m1554f85d25" x="752.992188" y="66.2925" style="fill: #2ca02c; stroke: #2ca02c"/>
     </g>
    </g>
    <g id="text_14">
     <text style="font: 10px 'DejaVu Sans', 'Bitstream Vera Sans', 'Computer Modern Sans Serif', 'Lucida Grande', 'Verdana', 'Geneva', 'Lucid', 'Arial', 'Helvetica', 'Avant Garde', sans-serif; text-anchor: start" x="770.992188" y="69.7925" transform="rotate(-0 770.992188 69.7925)">gcc-14.2 - TBB</text>
    </g>
    <g id="line2d_26">
     <path d="M 742.992188 80.970625 
L 752.992188 80.970625 
L 762.992188 80.970625 
" style="fill: none; stroke: #d62728; stroke-width: 2; stroke-linecap: square"/>
     <g>
      <use xlink:href="#mf42bb5799d" x="752.992188" y="80.970625" style="fill: #d62728; stroke: #d62728"/>
     </g>
    </g>
    <g id="text_15">
     <text style="font: 10px 'DejaVu Sans', 'Bitstream Vera Sans', 'Computer Modern Sans Serif', 'Lucida Grande', 'Verdana', 'Geneva', 'Lucid', 'Arial', 'Helvetica', 'Avant Garde', sans-serif; text-anchor: start" x="770.992188" y="84.470625" transform="rotate(-0 770.992188 84.470625)">gcc-4.2 - V1</text>
    </g>
    <g id="line2d_27">
     <path d="M 742.992188 95.64875 
L 752.992188 95.64875 
L 762.992188 95.64875 
" style="fill: none; stroke: #9467bd; stroke-width: 2; stroke-linecap: square"/>
     <g>
      <use xlink:href="#mbf8e29ddd9" x="752.992188" y="95.64875" style="fill: #9467bd; stroke: #9467bd"/>
     </g>
    </g>
    <g id="text_16">
     <text style="font: 10px 'DejaVu Sans', 'Bitstream Vera Sans', 'Computer Modern Sans Serif', 'Lucida Grande', 'Verdana', 'Geneva', 'Lucid', 'Arial', 'Helvetica', 'Avant Garde', sans-serif; text-anchor: start" x="770.992188" y="99.14875" transform="rotate(-0 770.992188 99.14875)">gcc-4.2 - V2</text>
    </g>
    <g id="line2d_28">
     <path d="M 742.992188 110.326875 
L 752.992188 110.326875 
L 762.992188 110.326875 
" style="fill: none; stroke: #8c564b; stroke-width: 2; stroke-linecap: square"/>
     <g>
      <use xlink:href="#m0f67c367f6" x="752.992188" y="110.326875" style="fill: #8c564b; stroke: #8c564b"/>
     </g>
    </g>
    <g id="text_17">
     <text style="font: 10px 'DejaVu Sans', 'Bitstream Vera Sans', 'Computer Modern Sans Serif', 'Lucida Grande', 'Verdana', 'Geneva', 'Lucid', 'Arial', 'Helvetica', 'Avant Garde', sans-serif; text-anchor: start" x="770.992188" y="113.826875" transform="rotate(-0 770.992188 113.826875)">gcc-4.2 - TBB</text>
    </g>
   </g>
  </g>
 </g>
 <defs>
  <clipPath id="p453d261f76">
   <rect x="64.41375" y="23.837813" width="637.69375" height="505.470313"/>
  </clipPath>
 </defs>
</svg>
