<?xml version="1.0" encoding="utf-8" standalone="no"?>
<!DOCTYPE svg PUBLIC "-//W3C//DTD SVG 1.1//EN"
  "http://www.w3.org/Graphics/SVG/1.1/DTD/svg11.dtd">
<svg xmlns:xlink="http://www.w3.org/1999/xlink" width="856.684141pt" height="568.8pt" viewBox="0 0 856.684141 568.8" xmlns="http://www.w3.org/2000/svg" version="1.1">
 <metadata>
  <rdf:RDF xmlns:dc="http://purl.org/dc/elements/1.1/" xmlns:cc="http://creativecommons.org/ns#" xmlns:rdf="http://www.w3.org/1999/02/22-rdf-syntax-ns#">
   <cc:Work>
    <dc:type rdf:resource="http://purl.org/dc/dcmitype/StillImage"/>
    <dc:date>2025-12-23T10:59:26.614950</dc:date>
    <dc:format>image/svg+xml</dc:format>
    <dc:creator>
     <cc:Agent>
      <dc:title>Matplotlib v3.9.4, https://matplotlib.org/</dc:title>
     </cc:Agent>
    </dc:creator>
   </cc:Work>
  </rdf:RDF>
 </metadata>
 <defs>
  <style type="text/css">*{stroke-linejoin: round; stroke-linecap: butt}</style>
 </defs>
 <g id="figure_1">
  <g id="patch_1">
   <path d="M 0 568.8 
L 856.684141 568.8 
L 856.684141 0 
L 0 0 
z
" style="fill: #ffffff"/>
  </g>
  <g id="axes_1">
   <g id="patch_2">
    <path d="M 64.41375 529.308125 
L 731.696562 529.308125 
L 731.696562 23.837812 
L 64.41375 23.837812 
z
" style="fill: #ffffff"/>
   </g>
   <g id="matplotlib.axis_1">
    <g id="xtick_1">
     <g id="line2d_1">
      <path d="M 83.299113 529.308125 
L 83.299113 23.837812 
" clip-path="url(#p60d4e6dd59)" style="fill: none; stroke: #b0b0b0; stroke-opacity: 0.3; stroke-width: 0.8; stroke-linecap: square"/>
     </g>
     <g id="line2d_2">
      <defs>
       <path id="m0d53a71d8c" d="M 0 0 
L 0 3.5 
" style="stroke: #000000; stroke-width: 0.8"/>
      </defs>
      <g>
       <use xlink:href="#m0d53a71d8c" x="83.299113" y="529.308125" style="stroke: #000000; stroke-width: 0.8"/>
      </g>
     </g>
     <g id="text_1">
      <text style="font: 10px 'DejaVu Sans', 'Bitstream Vera Sans', 'Computer Modern Sans Serif', 'Lucida Grande', 'Verdana', 'Geneva', 'Lucid', 'Arial', 'Helvetica', 'Avant Garde', sans-serif; text-anchor: middle" x="83.299113" y="543.906563" transform="rotate(-0 83.299113 543.906563)">70</text>
     </g>
    </g>
    <g id="xtick_2">
     <g id="line2d_3">
      <path d="M 197.755856 529.308125 
L 197.755856 23.837812 
" clip-path="url(#p60d4e6dd59)" style="fill: none; stroke: #b0b0b0; stroke-opacity: 0.3; stroke-width: 0.8; stroke-linecap: square"/>
     </g>
     <g id="line2d_4">
      <g>
       <use xlink:href="#m0d53a71d8c" x="197.755856" y="529.308125" style="stroke: #000000; stroke-width: 0.8"/>
      </g>
     </g>
     <g id="text_2">
      <text style="font: 10px 'DejaVu Sans', 'Bitstream Vera Sans', 'Computer Modern Sans Serif', 'Lucida Grande', 'Verdana', 'Geneva', 'Lucid', 'Arial', 'Helvetica', 'Avant Garde', sans-serif; text-anchor: middle" x="197.755856" y="543.906563" transform="rotate(-0 197.755856 543.906563)">80</text>
     </g>
    </g>
    <g id="xtick_3">
     <g id="line2d_5">
      <path d="M 312.212599 529.308125 
L 312.212599 23.837812 
" clip-path="url(#p60d4e6dd59)" style="fill: none; stroke: #b0b0b0; stroke-opacity: 0.3; stroke-width: 0.8; stroke-linecap: square"/>
     </g>
     <g id="line2d_6">
      <g>
       <use xlink:href="#m0d53a71d8c" x="312.212599" y="529.308125" style="stroke: #000000; stroke-width: 0.8"/>
      </g>
     </g>
     <g id="text_3">
      <text style="font: 10px 'DejaVu Sans', 'Bitstream Vera Sans', 'Computer Modern Sans Serif', 'Lucida Grande', 'Verdana', 'Geneva', 'Lucid', 'Arial', 'Helvetica', 'Avant Garde', sans-serif; text-anchor: middle" x="312.212599" y="543.906563" transform="rotate(-0 312.212599 543.906563)">90</text>
     </g>
    </g>
    <g id="xtick_4">
     <g id="line2d_7">
      <path d="M 426.669342 529.308125 
L 426.669342 23.837812 
" clip-path="url(#p60d4e6dd59)" style="fill: none; stroke: #b0b0b0; stroke-opacity: 0.3; stroke-width: 0.8; stroke-linecap: square"/>
     </g>
     <g id="line2d_8">
      <g>
       <use xlink:href="#m0d53a71d8c" x="426.669342" y="529.308125" style="stroke: #000000; stroke-width: 0.8"/>
      </g>
     </g>
     <g id="text_4">
      <text style="font: 10px 'DejaVu Sans', 'Bitstream Vera Sans', 'Computer Modern Sans Serif', 'Lucida Grande', 'Verdana', 'Geneva', 'Lucid', 'Arial', 'Helvetica', 'Avant Garde', sans-serif; text-anchor: middle" x="426.669342" y="543.906563" transform="rotate(-0 426.669342 543.906563)">100</text>
     </g>
    </g>
    <g id="xtick_5">
     <g id="line2d_9">
      <path d="M 541.126085 529.308125 
L 541.126085 23.837812 
" clip-path="url(#p60d4e6dd59)" style="fill: none; stroke: #b0b0b0; stroke-opacity: 0.3; stroke-width: 0.8; stroke-linecap: square"/>
     </g>
     <g id="line2d_10">
      <g>
       <use xlink:href="#m0d53a71d8c" x="541.126085" y="529.308125" style="stroke: #000000; stroke-width: 0.8"/>
      </g>
     </g>
     <g id="text_5">
      <text style="font: 10px 'DejaVu Sans', 'Bitstream Vera Sans', 'Computer Modern Sans Serif', 'Lucida Grande', 'Verdana', 'Geneva', 'Lucid', 'Arial', 'Helvetica', 'Avant Garde', sans-serif; text-anchor: middle" x="541.126085" y="543.906563" transform="rotate(-0 541.126085 543.906563)">110</text>
     </g>
    </g>
    <g id="xtick_6">
     <g id="line2d_11">
      <path d="M 655.582828 529.308125 
L 655.582828 23.837812 
" clip-path="url(#p60d4e6dd59)" style="fill: none; stroke: #b0b0b0; stroke-opacity: 0.3; stroke-width: 0.8; stroke-linecap: square"/>
     </g>
     <g id="line2d_12">
      <g>
       <use xlink:href="#m0d53a71d8c" x="655.582828" y="529.308125" style="stroke: #000000; stroke-width: 0.8"/>
      </g>
     </g>
     <g id="text_6">
      <text style="font: 10px 'DejaVu Sans', 'Bitstream Vera Sans', 'Computer Modern Sans Serif', 'Lucida Grande', 'Verdana', 'Geneva', 'Lucid', 'Arial', 'Helvetica', 'Avant Garde', sans-serif; text-anchor: middle" x="655.582828" y="543.906563" transform="rotate(-0 655.582828 543.906563)">120</text>
     </g>
    </g>
    <g id="text_7">
     <text style="font: 12px 'DejaVu Sans', 'Bitstream Vera Sans', 'Computer Modern Sans Serif', 'Lucida Grande', 'Verdana', 'Geneva', 'Lucid', 'Arial', 'Helvetica', 'Avant Garde', sans-serif; text-anchor: middle" x="398.055156" y="559.104375" transform="rotate(-0 398.055156 559.104375)">Build Number</text>
    </g>
   </g>
   <g id="matplotlib.axis_2">
    <g id="ytick_1">
     <g id="line2d_13">
      <path d="M 64.41375 312.275462 
L 731.696562 312.275462 
" clip-path="url(#p60d4e6dd59)" style="fill: none; stroke: #b0b0b0; stroke-opacity: 0.3; stroke-width: 0.8; stroke-linecap: square"/>
     </g>
     <g id="line2d_14">
      <defs>
       <path id="m2bd0ba4985" d="M 0 0 
L -3.5 0 
" style="stroke: #000000; stroke-width: 0.8"/>
      </defs>
      <g>
       <use xlink:href="#m2bd0ba4985" x="64.41375" y="312.275462" style="stroke: #000000; stroke-width: 0.8"/>
      </g>
     </g>
     <g id="text_8">
      <!-- $\mathdefault{10^{1}}$ -->
      <g transform="translate(39.81375 316.074681)">
       <text>
        <tspan style="font: 10px 'DejaVu Sans'" x="0 6.362305" y="-0.06406250000000036">10</tspan>
        <tspan style="font: 7px 'DejaVu Sans'" x="12.820312" y="-3.8921875000000004">1</tspan>
       </text>
      </g>
     </g>
    </g>
    <g id="ytick_2">
     <g id="line2d_15">
      <defs>
       <path id="m3e900da6ae" d="M 0 0 
L -2 0 
" style="stroke: #000000; stroke-width: 0.6"/>
      </defs>
      <g>
       <use xlink:href="#m3e900da6ae" x="64.41375" y="483.768992" style="stroke: #000000; stroke-width: 0.6"/>
      </g>
     </g>
     <g id="text_9">
      <!-- $\mathdefault{6\times10^{0}}$ -->
      <g transform="translate(22.81375 487.568211)">
       <text>
        <tspan style="font: 10px 'DejaVu Sans'" x="0 8.310547 18.637695 25" y="-0.9765625">6×10</tspan>
        <tspan style="font: 7px 'DejaVu Sans'" x="31.458008" y="-4.8046875">0</tspan>
       </text>
      </g>
     </g>
    </g>
    <g id="ytick_3">
     <g id="line2d_16">
      <g>
       <use xlink:href="#m3e900da6ae" x="64.41375" y="432.017782" style="stroke: #000000; stroke-width: 0.6"/>
      </g>
     </g>
    </g>
    <g id="ytick_4">
     <g id="line2d_17">
      <g>
       <use xlink:href="#m3e900da6ae" x="64.41375" y="387.188844" style="stroke: #000000; stroke-width: 0.6"/>
      </g>
     </g>
    </g>
    <g id="ytick_5">
     <g id="line2d_18">
      <g>
       <use xlink:href="#m3e900da6ae" x="64.41375" y="347.646919" style="stroke: #000000; stroke-width: 0.6"/>
      </g>
     </g>
    </g>
    <g id="ytick_6">
     <g id="line2d_19">
      <g>
       <use xlink:href="#m3e900da6ae" x="64.41375" y="79.573242" style="stroke: #000000; stroke-width: 0.6"/>
      </g>
     </g>
     <g id="text_10">
      <!-- $\mathdefault{2\times10^{1}}$ -->
      <g transform="translate(22.81375 83.37246)">
       <text>
        <tspan style="font: 10px 'DejaVu Sans'" x="0 8.310547 18.637695 25" y="-0.06406250000000036">2×10</tspan>
        <tspan style="font: 7px 'DejaVu Sans'" x="31.458008" y="-3.8921875000000004">1</tspan>
       </text>
      </g>
     </g>
    </g>
    <g id="text_11">
     <text style="font: 12px 'DejaVu Sans', 'Bitstream Vera Sans', 'Computer Modern Sans Serif', 'Lucida Grande', 'Verdana', 'Geneva', 'Lucid', 'Arial', 'Helvetica', 'Avant Garde', sans-serif; text-anchor: middle" x="16.318125" y="276.572969" transform="rotate(-90 16.318125 276.572969)">Median Elapsed Time (nanoseconds)</text>
    </g>
   </g>
   <g id="line2d_20">
    <path d="M 94.744787 466.325155 
L 106.190461 466.856775 
L 117.636136 461.578076 
L 129.08181 466.856775 
L 140.527484 472.219802 
L 151.973159 466.856775 
L 163.418833 466.856775 
L 174.864507 466.856775 
L 186.310181 466.856775 
L 197.755856 466.856775 
L 209.20153 461.578076 
L 220.647204 466.856775 
L 232.092879 466.856775 
L 254.984227 466.856775 
L 266.429902 466.856775 
L 289.32125 466.856775 
L 300.766925 466.856775 
L 312.212599 466.856775 
L 323.658273 466.856775 
L 335.103948 466.856775 
L 357.995296 466.856775 
L 369.44097 466.856775 
L 380.886645 466.325155 
L 392.332319 472.219802 
L 415.223668 466.856775 
L 426.669342 466.856775 
L 438.115016 461.578076 
L 449.560691 466.856775 
L 461.006365 466.856775 
L 472.452039 466.856775 
L 483.897714 461.578076 
L 495.343388 466.325155 
L 518.234737 461.054743 
L 529.680411 456.381094 
L 541.126085 456.381094 
L 564.017434 456.381094 
L 598.354457 456.381094 
L 609.800131 456.381094 
L 621.245805 456.381094 
L 632.69148 456.381094 
L 644.137154 456.381094 
L 655.582828 456.381094 
L 667.028503 456.381094 
L 678.474177 456.381094 
L 689.919851 456.381094 
L 701.365526 370.010712 
" clip-path="url(#p60d4e6dd59)" style="fill: none; stroke: #1f77b4; stroke-width: 2; stroke-linecap: square"/>
    <defs>
     <path id="md09af78180" d="M 0 3 
C 0.795609 3 1.55874 2.683901 2.12132 2.12132 
C 2.683901 1.55874 3 0.795609 3 0 
C 3 -0.795609 2.683901 -1.55874 2.12132 -2.12132 
C 1.55874 -2.683901 0.795609 -3 0 -3 
C -0.795609 -3 -1.55874 -2.683901 -2.12132 -2.12132 
C -2.683901 -1.55874 -3 -0.795609 -3 0 
C -3 0.795609 -2.683901 1.55874 -2.12132 2.12132 
C -1.55874 2.683901 -0.795609 3 0 3 
z
" style="stroke: #1f77b4"/>
    </defs>
    <g clip-path="url(#p60d4e6dd59)">
     <use xlink:href="#md09af78180" x="94.744787" y="466.325155" style="fill: #1f77b4; stroke: #1f77b4"/>
     <use xlink:href="#md09af78180" x="106.190461" y="466.856775" style="fill: #1f77b4; stroke: #1f77b4"/>
     <use xlink:href="#md09af78180" x="117.636136" y="461.578076" style="fill: #1f77b4; stroke: #1f77b4"/>
     <use xlink:href="#md09af78180" x="129.08181" y="466.856775" style="fill: #1f77b4; stroke: #1f77b4"/>
     <use xlink:href="#md09af78180" x="140.527484" y="472.219802" style="fill: #1f77b4; stroke: #1f77b4"/>
     <use xlink:href="#md09af78180" x="151.973159" y="466.856775" style="fill: #1f77b4; stroke: #1f77b4"/>
     <use xlink:href="#md09af78180" x="163.418833" y="466.856775" style="fill: #1f77b4; stroke: #1f77b4"/>
     <use xlink:href="#md09af78180" x="174.864507" y="466.856775" style="fill: #1f77b4; stroke: #1f77b4"/>
     <use xlink:href="#md09af78180" x="186.310181" y="466.856775" style="fill: #1f77b4; stroke: #1f77b4"/>
     <use xlink:href="#md09af78180" x="197.755856" y="466.856775" style="fill: #1f77b4; stroke: #1f77b4"/>
     <use xlink:href="#md09af78180" x="209.20153" y="461.578076" style="fill: #1f77b4; stroke: #1f77b4"/>
     <use xlink:href="#md09af78180" x="220.647204" y="466.856775" style="fill: #1f77b4; stroke: #1f77b4"/>
     <use xlink:href="#md09af78180" x="232.092879" y="466.856775" style="fill: #1f77b4; stroke: #1f77b4"/>
     <use xlink:href="#md09af78180" x="254.984227" y="466.856775" style="fill: #1f77b4; stroke: #1f77b4"/>
     <use xlink:href="#md09af78180" x="266.429902" y="466.856775" style="fill: #1f77b4; stroke: #1f77b4"/>
     <use xlink:href="#md09af78180" x="289.32125" y="466.856775" style="fill: #1f77b4; stroke: #1f77b4"/>
     <use xlink:href="#md09af78180" x="300.766925" y="466.856775" style="fill: #1f77b4; stroke: #1f77b4"/>
     <use xlink:href="#md09af78180" x="312.212599" y="466.856775" style="fill: #1f77b4; stroke: #1f77b4"/>
     <use xlink:href="#md09af78180" x="323.658273" y="466.856775" style="fill: #1f77b4; stroke: #1f77b4"/>
     <use xlink:href="#md09af78180" x="335.103948" y="466.856775" style="fill: #1f77b4; stroke: #1f77b4"/>
     <use xlink:href="#md09af78180" x="357.995296" y="466.856775" style="fill: #1f77b4; stroke: #1f77b4"/>
     <use xlink:href="#md09af78180" x="369.44097" y="466.856775" style="fill: #1f77b4; stroke: #1f77b4"/>
     <use xlink:href="#md09af78180" x="380.886645" y="466.325155" style="fill: #1f77b4; stroke: #1f77b4"/>
     <use xlink:href="#md09af78180" x="392.332319" y="472.219802" style="fill: #1f77b4; stroke: #1f77b4"/>
     <use xlink:href="#md09af78180" x="415.223668" y="466.856775" style="fill: #1f77b4; stroke: #1f77b4"/>
     <use xlink:href="#md09af78180" x="426.669342" y="466.856775" style="fill: #1f77b4; stroke: #1f77b4"/>
     <use xlink:href="#md09af78180" x="438.115016" y="461.578076" style="fill: #1f77b4; stroke: #1f77b4"/>
     <use xlink:href="#md09af78180" x="449.560691" y="466.856775" style="fill: #1f77b4; stroke: #1f77b4"/>
     <use xlink:href="#md09af78180" x="461.006365" y="466.856775" style="fill: #1f77b4; stroke: #1f77b4"/>
     <use xlink:href="#md09af78180" x="472.452039" y="466.856775" style="fill: #1f77b4; stroke: #1f77b4"/>
     <use xlink:href="#md09af78180" x="483.897714" y="461.578076" style="fill: #1f77b4; stroke: #1f77b4"/>
     <use xlink:href="#md09af78180" x="495.343388" y="466.325155" style="fill: #1f77b4; stroke: #1f77b4"/>
     <use xlink:href="#md09af78180" x="518.234737" y="461.054743" style="fill: #1f77b4; stroke: #1f77b4"/>
     <use xlink:href="#md09af78180" x="529.680411" y="456.381094" style="fill: #1f77b4; stroke: #1f77b4"/>
     <use xlink:href="#md09af78180" x="541.126085" y="456.381094" style="fill: #1f77b4; stroke: #1f77b4"/>
     <use xlink:href="#md09af78180" x="564.017434" y="456.381094" style="fill: #1f77b4; stroke: #1f77b4"/>
     <use xlink:href="#md09af78180" x="598.354457" y="456.381094" style="fill: #1f77b4; stroke: #1f77b4"/>
     <use xlink:href="#md09af78180" x="609.800131" y="456.381094" style="fill: #1f77b4; stroke: #1f77b4"/>
     <use xlink:href="#md09af78180" x="621.245805" y="456.381094" style="fill: #1f77b4; stroke: #1f77b4"/>
     <use xlink:href="#md09af78180" x="632.69148" y="456.381094" style="fill: #1f77b4; stroke: #1f77b4"/>
     <use xlink:href="#md09af78180" x="644.137154" y="456.381094" style="fill: #1f77b4; stroke: #1f77b4"/>
     <use xlink:href="#md09af78180" x="655.582828" y="456.381094" style="fill: #1f77b4; stroke: #1f77b4"/>
     <use xlink:href="#md09af78180" x="667.028503" y="456.381094" style="fill: #1f77b4; stroke: #1f77b4"/>
     <use xlink:href="#md09af78180" x="678.474177" y="456.381094" style="fill: #1f77b4; stroke: #1f77b4"/>
     <use xlink:href="#md09af78180" x="689.919851" y="456.381094" style="fill: #1f77b4; stroke: #1f77b4"/>
     <use xlink:href="#md09af78180" x="701.365526" y="370.010712" style="fill: #1f77b4; stroke: #1f77b4"/>
    </g>
   </g>
   <g id="line2d_21">
    <path d="M 94.744787 506.332202 
L 106.190461 483.209927 
L 117.636136 483.209927 
L 129.08181 483.209927 
L 140.527484 483.209927 
L 151.973159 477.669895 
L 163.418833 482.651792 
L 174.864507 482.651792 
L 186.310181 483.209927 
L 197.755856 483.209927 
L 209.20153 483.209927 
L 220.647204 403.526635 
L 232.092879 477.669895 
L 243.538553 483.209927 
L 254.984227 483.209927 
L 266.429902 477.669895 
L 289.32125 472.219802 
L 300.766925 482.651792 
L 312.212599 478.219802 
L 323.658273 483.209927 
L 335.103948 482.651792 
L 346.549622 483.209927 
L 357.995296 477.669895 
L 369.44097 483.209927 
L 380.886645 483.209927 
L 392.332319 335.917575 
L 415.223668 483.209927 
L 426.669342 483.209927 
L 438.115016 483.209927 
L 449.560691 482.651792 
L 461.006365 477.669895 
L 472.452039 483.209927 
L 483.897714 483.209927 
L 495.343388 477.669895 
L 518.234737 477.669895 
L 529.680411 478.219802 
L 541.126085 482.651792 
L 552.571759 483.209927 
L 564.017434 478.219802 
L 586.908782 477.669895 
L 598.354457 477.669895 
L 609.800131 483.209927 
L 621.245805 483.209927 
L 632.69148 482.651792 
L 644.137154 483.209927 
L 655.582828 483.209927 
L 667.028503 483.209927 
L 678.474177 46.813736 
L 689.919851 483.209927 
L 701.365526 477.669895 
" clip-path="url(#p60d4e6dd59)" style="fill: none; stroke: #ff7f0e; stroke-width: 2; stroke-linecap: square"/>
    <defs>
     <path id="m39b7c7fb70" d="M 0 3 
C 0.795609 3 1.55874 2.683901 2.12132 2.12132 
C 2.683901 1.55874 3 0.795609 3 0 
C 3 -0.795609 2.683901 -1.55874 2.12132 -2.12132 
C 1.55874 -2.683901 0.795609 -3 0 -3 
C -0.795609 -3 -1.55874 -2.683901 -2.12132 -2.12132 
C -2.683901 -1.55874 -3 -0.795609 -3 0 
C -3 0.795609 -2.683901 1.55874 -2.12132 2.12132 
C -1.55874 2.683901 -0.795609 3 0 3 
z
" style="stroke: #ff7f0e"/>
    </defs>
    <g clip-path="url(#p60d4e6dd59)">
     <use xlink:href="#m39b7c7fb70" x="94.744787" y="506.332202" style="fill: #ff7f0e; stroke: #ff7f0e"/>
     <use xlink:href="#m39b7c7fb70" x="106.190461" y="483.209927" style="fill: #ff7f0e; stroke: #ff7f0e"/>
     <use xlink:href="#m39b7c7fb70" x="117.636136" y="483.209927" style="fill: #ff7f0e; stroke: #ff7f0e"/>
     <use xlink:href="#m39b7c7fb70" x="129.08181" y="483.209927" style="fill: #ff7f0e; stroke: #ff7f0e"/>
     <use xlink:href="#m39b7c7fb70" x="140.527484" y="483.209927" style="fill: #ff7f0e; stroke: #ff7f0e"/>
     <use xlink:href="#m39b7c7fb70" x="151.973159" y="477.669895" style="fill: #ff7f0e; stroke: #ff7f0e"/>
     <use xlink:href="#m39b7c7fb70" x="163.418833" y="482.651792" style="fill: #ff7f0e; stroke: #ff7f0e"/>
     <use xlink:href="#m39b7c7fb70" x="174.864507" y="482.651792" style="fill: #ff7f0e; stroke: #ff7f0e"/>
     <use xlink:href="#m39b7c7fb70" x="186.310181" y="483.209927" style="fill: #ff7f0e; stroke: #ff7f0e"/>
     <use xlink:href="#m39b7c7fb70" x="197.755856" y="483.209927" style="fill: #ff7f0e; stroke: #ff7f0e"/>
     <use xlink:href="#m39b7c7fb70" x="209.20153" y="483.209927" style="fill: #ff7f0e; stroke: #ff7f0e"/>
     <use xlink:href="#m39b7c7fb70" x="220.647204" y="403.526635" style="fill: #ff7f0e; stroke: #ff7f0e"/>
     <use xlink:href="#m39b7c7fb70" x="232.092879" y="477.669895" style="fill: #ff7f0e; stroke: #ff7f0e"/>
     <use xlink:href="#m39b7c7fb70" x="243.538553" y="483.209927" style="fill: #ff7f0e; stroke: #ff7f0e"/>
     <use xlink:href="#m39b7c7fb70" x="254.984227" y="483.209927" style="fill: #ff7f0e; stroke: #ff7f0e"/>
     <use xlink:href="#m39b7c7fb70" x="266.429902" y="477.669895" style="fill: #ff7f0e; stroke: #ff7f0e"/>
     <use xlink:href="#m39b7c7fb70" x="289.32125" y="472.219802" style="fill: #ff7f0e; stroke: #ff7f0e"/>
     <use xlink:href="#m39b7c7fb70" x="300.766925" y="482.651792" style="fill: #ff7f0e; stroke: #ff7f0e"/>
     <use xlink:href="#m39b7c7fb70" x="312.212599" y="478.219802" style="fill: #ff7f0e; stroke: #ff7f0e"/>
     <use xlink:href="#m39b7c7fb70" x="323.658273" y="483.209927" style="fill: #ff7f0e; stroke: #ff7f0e"/>
     <use xlink:href="#m39b7c7fb70" x="335.103948" y="482.651792" style="fill: #ff7f0e; stroke: #ff7f0e"/>
     <use xlink:href="#m39b7c7fb70" x="346.549622" y="483.209927" style="fill: #ff7f0e; stroke: #ff7f0e"/>
     <use xlink:href="#m39b7c7fb70" x="357.995296" y="477.669895" style="fill: #ff7f0e; stroke: #ff7f0e"/>
     <use xlink:href="#m39b7c7fb70" x="369.44097" y="483.209927" style="fill: #ff7f0e; stroke: #ff7f0e"/>
     <use xlink:href="#m39b7c7fb70" x="380.886645" y="483.209927" style="fill: #ff7f0e; stroke: #ff7f0e"/>
     <use xlink:href="#m39b7c7fb70" x="392.332319" y="335.917575" style="fill: #ff7f0e; stroke: #ff7f0e"/>
     <use xlink:href="#m39b7c7fb70" x="415.223668" y="483.209927" style="fill: #ff7f0e; stroke: #ff7f0e"/>
     <use xlink:href="#m39b7c7fb70" x="426.669342" y="483.209927" style="fill: #ff7f0e; stroke: #ff7f0e"/>
     <use xlink:href="#m39b7c7fb70" x="438.115016" y="483.209927" style="fill: #ff7f0e; stroke: #ff7f0e"/>
     <use xlink:href="#m39b7c7fb70" x="449.560691" y="482.651792" style="fill: #ff7f0e; stroke: #ff7f0e"/>
     <use xlink:href="#m39b7c7fb70" x="461.006365" y="477.669895" style="fill: #ff7f0e; stroke: #ff7f0e"/>
     <use xlink:href="#m39b7c7fb70" x="472.452039" y="483.209927" style="fill: #ff7f0e; stroke: #ff7f0e"/>
     <use xlink:href="#m39b7c7fb70" x="483.897714" y="483.209927" style="fill: #ff7f0e; stroke: #ff7f0e"/>
     <use xlink:href="#m39b7c7fb70" x="495.343388" y="477.669895" style="fill: #ff7f0e; stroke: #ff7f0e"/>
     <use xlink:href="#m39b7c7fb70" x="518.234737" y="477.669895" style="fill: #ff7f0e; stroke: #ff7f0e"/>
     <use xlink:href="#m39b7c7fb70" x="529.680411" y="478.219802" style="fill: #ff7f0e; stroke: #ff7f0e"/>
     <use xlink:href="#m39b7c7fb70" x="541.126085" y="482.651792" style="fill: #ff7f0e; stroke: #ff7f0e"/>
     <use xlink:href="#m39b7c7fb70" x="552.571759" y="483.209927" style="fill: #ff7f0e; stroke: #ff7f0e"/>
     <use xlink:href="#m39b7c7fb70" x="564.017434" y="478.219802" style="fill: #ff7f0e; stroke: #ff7f0e"/>
     <use xlink:href="#m39b7c7fb70" x="586.908782" y="477.669895" style="fill: #ff7f0e; stroke: #ff7f0e"/>
     <use xlink:href="#m39b7c7fb70" x="598.354457" y="477.669895" style="fill: #ff7f0e; stroke: #ff7f0e"/>
     <use xlink:href="#m39b7c7fb70" x="609.800131" y="483.209927" style="fill: #ff7f0e; stroke: #ff7f0e"/>
     <use xlink:href="#m39b7c7fb70" x="621.245805" y="483.209927" style="fill: #ff7f0e; stroke: #ff7f0e"/>
     <use xlink:href="#m39b7c7fb70" x="632.69148" y="482.651792" style="fill: #ff7f0e; stroke: #ff7f0e"/>
     <use xlink:href="#m39b7c7fb70" x="644.137154" y="483.209927" style="fill: #ff7f0e; stroke: #ff7f0e"/>
     <use xlink:href="#m39b7c7fb70" x="655.582828" y="483.209927" style="fill: #ff7f0e; stroke: #ff7f0e"/>
     <use xlink:href="#m39b7c7fb70" x="667.028503" y="483.209927" style="fill: #ff7f0e; stroke: #ff7f0e"/>
     <use xlink:href="#m39b7c7fb70" x="678.474177" y="46.813736" style="fill: #ff7f0e; stroke: #ff7f0e"/>
     <use xlink:href="#m39b7c7fb70" x="689.919851" y="483.209927" style="fill: #ff7f0e; stroke: #ff7f0e"/>
     <use xlink:href="#m39b7c7fb70" x="701.365526" y="477.669895" style="fill: #ff7f0e; stroke: #ff7f0e"/>
    </g>
   </g>
   <g id="patch_3">
    <path d="M 64.41375 529.308125 
L 64.41375 23.837813 
" style="fill: none; stroke: #000000; stroke-width: 0.8; stroke-linejoin: miter; stroke-linecap: square"/>
   </g>
   <g id="patch_4">
    <path d="M 731.696562 529.308125 
L 731.696562 23.837813 
" style="fill: none; stroke: #000000; stroke-width: 0.8; stroke-linejoin: miter; stroke-linecap: square"/>
   </g>
   <g id="patch_5">
    <path d="M 64.41375 529.308125 
L 731.696562 529.308125 
" style="fill: none; stroke: #000000; stroke-width: 0.8; stroke-linejoin: miter; stroke-linecap: square"/>
   </g>
   <g id="patch_6">
    <path d="M 64.41375 23.837812 
L 731.696562 23.837812 
" style="fill: none; stroke: #000000; stroke-width: 0.8; stroke-linejoin: miter; stroke-linecap: square"/>
   </g>
   <g id="text_12">
    <text style="font: 700 14px 'DejaVu Sans', 'Bitstream Vera Sans', 'Computer Modern Sans Serif', 'Lucida Grande', 'Verdana', 'Geneva', 'Lucid', 'Arial', 'Helvetica', 'Avant Garde', sans-serif; text-anchor: middle" x="398.055156" y="17.837813" transform="rotate(-0 398.055156 17.837813)">Ts Shared Linear Single Thread - Performance Trend</text>
   </g>
   <g id="legend_1">
    <g id="patch_7">
     <path d="M 772.060703 61.194063 
L 847.484141 61.194063 
Q 849.484141 61.194063 849.484141 59.194063 
L 849.484141 30.837813 
Q 849.484141 28.837813 847.484141 28.837813 
L 772.060703 28.837813 
Q 770.060703 28.837813 770.060703 30.837813 
L 770.060703 59.194063 
Q 770.060703 61.194063 772.060703 61.194063 
z
" style="fill: #ffffff; opacity: 0.8; stroke: #cccccc; stroke-linejoin: miter"/>
    </g>
    <g id="line2d_22">
     <path d="M 774.060703 36.93625 
L 784.060703 36.93625 
L 794.060703 36.93625 
" style="fill: none; stroke: #1f77b4; stroke-width: 2; stroke-linecap: square"/>
     <g>
      <use xlink:href="#md09af78180" x="784.060703" y="36.93625" style="fill: #1f77b4; stroke: #1f77b4"/>
     </g>
    </g>
    <g id="text_13">
     <text style="font: 10px 'DejaVu Sans', 'Bitstream Vera Sans', 'Computer Modern Sans Serif', 'Lucida Grande', 'Verdana', 'Geneva', 'Lucid', 'Arial', 'Helvetica', 'Avant Garde', sans-serif; text-anchor: start" x="802.060703" y="40.43625" transform="rotate(-0 802.060703 40.43625)">clang-18</text>
    </g>
    <g id="line2d_23">
     <path d="M 774.060703 51.614375 
L 784.060703 51.614375 
L 794.060703 51.614375 
" style="fill: none; stroke: #ff7f0e; stroke-width: 2; stroke-linecap: square"/>
     <g>
      <use xlink:href="#m39b7c7fb70" x="784.060703" y="51.614375" style="fill: #ff7f0e; stroke: #ff7f0e"/>
     </g>
    </g>
    <g id="text_14">
     <text style="font: 10px 'DejaVu Sans', 'Bitstream Vera Sans', 'Computer Modern Sans Serif', 'Lucida Grande', 'Verdana', 'Geneva', 'Lucid', 'Arial', 'Helvetica', 'Avant Garde', sans-serif; text-anchor: start" x="802.060703" y="55.114375" transform="rotate(-0 802.060703 55.114375)">gcc-14</text>
    </g>
   </g>
  </g>
 </g>
 <defs>
  <clipPath id="p60d4e6dd59">
   <rect x="64.41375" y="23.837813" width="667.282812" height="505.470313"/>
  </clipPath>
 </defs>
</svg>
