<?xml version="1.0" encoding="utf-8" standalone="no"?>
<!DOCTYPE svg PUBLIC "-//W3C//DTD SVG 1.1//EN"
  "http://www.w3.org/Graphics/SVG/1.1/DTD/svg11.dtd">
<svg xmlns:xlink="http://www.w3.org/1999/xlink" width="849.994062pt" height="568.8pt" viewBox="0 0 849.994062 568.8" xmlns="http://www.w3.org/2000/svg" version="1.1">
 <metadata>
  <rdf:RDF xmlns:dc="http://purl.org/dc/elements/1.1/" xmlns:cc="http://creativecommons.org/ns#" xmlns:rdf="http://www.w3.org/1999/02/22-rdf-syntax-ns#">
   <cc:Work>
    <dc:type rdf:resource="http://purl.org/dc/dcmitype/StillImage"/>
    <dc:date>2025-09-02T22:19:13.841620</dc:date>
    <dc:format>image/svg+xml</dc:format>
    <dc:creator>
     <cc:Agent>
      <dc:title>Matplotlib v3.9.4, https://matplotlib.org/</dc:title>
     </cc:Agent>
    </dc:creator>
   </cc:Work>
  </rdf:RDF>
 </metadata>
 <defs>
  <style type="text/css">*{stroke-linejoin: round; stroke-linecap: butt}</style>
 </defs>
 <g id="figure_1">
  <g id="patch_1">
   <path d="M 0 568.8 
L 849.994062 568.8 
L 849.994062 0 
L 0 0 
z
" style="fill: #ffffff"/>
  </g>
  <g id="axes_1">
   <g id="patch_2">
    <path d="M 64.41375 529.308125 
L 597.895 529.308125 
L 597.895 23.837812 
L 64.41375 23.837812 
z
" style="fill: #ffffff"/>
   </g>
   <g id="matplotlib.axis_1">
    <g id="xtick_1">
     <g id="line2d_1">
      <path d="M 66.618218 529.308125 
L 66.618218 23.837812 
" clip-path="url(#p4c1a457e44)" style="fill: none; stroke: #b0b0b0; stroke-opacity: 0.3; stroke-width: 0.8; stroke-linecap: square"/>
     </g>
     <g id="line2d_2">
      <defs>
       <path id="m7ef679ccd1" d="M 0 0 
L 0 3.5 
" style="stroke: #000000; stroke-width: 0.8"/>
      </defs>
      <g>
       <use xlink:href="#m7ef679ccd1" x="66.618218" y="529.308125" style="stroke: #000000; stroke-width: 0.8"/>
      </g>
     </g>
     <g id="text_1">
      <text style="font: 10px 'DejaVu Sans', 'Bitstream Vera Sans', 'Computer Modern Sans Serif', 'Lucida Grande', 'Verdana', 'Geneva', 'Lucid', 'Arial', 'Helvetica', 'Avant Garde', sans-serif; text-anchor: middle" x="66.618218" y="543.906563" transform="rotate(-0 66.618218 543.906563)">95</text>
     </g>
    </g>
    <g id="xtick_2">
     <g id="line2d_3">
      <path d="M 176.841617 529.308125 
L 176.841617 23.837812 
" clip-path="url(#p4c1a457e44)" style="fill: none; stroke: #b0b0b0; stroke-opacity: 0.3; stroke-width: 0.8; stroke-linecap: square"/>
     </g>
     <g id="line2d_4">
      <g>
       <use xlink:href="#m7ef679ccd1" x="176.841617" y="529.308125" style="stroke: #000000; stroke-width: 0.8"/>
      </g>
     </g>
     <g id="text_2">
      <text style="font: 10px 'DejaVu Sans', 'Bitstream Vera Sans', 'Computer Modern Sans Serif', 'Lucida Grande', 'Verdana', 'Geneva', 'Lucid', 'Arial', 'Helvetica', 'Avant Garde', sans-serif; text-anchor: middle" x="176.841617" y="543.906563" transform="rotate(-0 176.841617 543.906563)">100</text>
     </g>
    </g>
    <g id="xtick_3">
     <g id="line2d_5">
      <path d="M 287.065015 529.308125 
L 287.065015 23.837812 
" clip-path="url(#p4c1a457e44)" style="fill: none; stroke: #b0b0b0; stroke-opacity: 0.3; stroke-width: 0.8; stroke-linecap: square"/>
     </g>
     <g id="line2d_6">
      <g>
       <use xlink:href="#m7ef679ccd1" x="287.065015" y="529.308125" style="stroke: #000000; stroke-width: 0.8"/>
      </g>
     </g>
     <g id="text_3">
      <text style="font: 10px 'DejaVu Sans', 'Bitstream Vera Sans', 'Computer Modern Sans Serif', 'Lucida Grande', 'Verdana', 'Geneva', 'Lucid', 'Arial', 'Helvetica', 'Avant Garde', sans-serif; text-anchor: middle" x="287.065015" y="543.906563" transform="rotate(-0 287.065015 543.906563)">105</text>
     </g>
    </g>
    <g id="xtick_4">
     <g id="line2d_7">
      <path d="M 397.288414 529.308125 
L 397.288414 23.837812 
" clip-path="url(#p4c1a457e44)" style="fill: none; stroke: #b0b0b0; stroke-opacity: 0.3; stroke-width: 0.8; stroke-linecap: square"/>
     </g>
     <g id="line2d_8">
      <g>
       <use xlink:href="#m7ef679ccd1" x="397.288414" y="529.308125" style="stroke: #000000; stroke-width: 0.8"/>
      </g>
     </g>
     <g id="text_4">
      <text style="font: 10px 'DejaVu Sans', 'Bitstream Vera Sans', 'Computer Modern Sans Serif', 'Lucida Grande', 'Verdana', 'Geneva', 'Lucid', 'Arial', 'Helvetica', 'Avant Garde', sans-serif; text-anchor: middle" x="397.288414" y="543.906563" transform="rotate(-0 397.288414 543.906563)">110</text>
     </g>
    </g>
    <g id="xtick_5">
     <g id="line2d_9">
      <path d="M 507.511813 529.308125 
L 507.511813 23.837812 
" clip-path="url(#p4c1a457e44)" style="fill: none; stroke: #b0b0b0; stroke-opacity: 0.3; stroke-width: 0.8; stroke-linecap: square"/>
     </g>
     <g id="line2d_10">
      <g>
       <use xlink:href="#m7ef679ccd1" x="507.511813" y="529.308125" style="stroke: #000000; stroke-width: 0.8"/>
      </g>
     </g>
     <g id="text_5">
      <text style="font: 10px 'DejaVu Sans', 'Bitstream Vera Sans', 'Computer Modern Sans Serif', 'Lucida Grande', 'Verdana', 'Geneva', 'Lucid', 'Arial', 'Helvetica', 'Avant Garde', sans-serif; text-anchor: middle" x="507.511813" y="543.906563" transform="rotate(-0 507.511813 543.906563)">115</text>
     </g>
    </g>
    <g id="text_6">
     <text style="font: 12px 'DejaVu Sans', 'Bitstream Vera Sans', 'Computer Modern Sans Serif', 'Lucida Grande', 'Verdana', 'Geneva', 'Lucid', 'Arial', 'Helvetica', 'Avant Garde', sans-serif; text-anchor: middle" x="331.154375" y="559.104375" transform="rotate(-0 331.154375 559.104375)">Build Number</text>
    </g>
   </g>
   <g id="matplotlib.axis_2">
    <g id="ytick_1">
     <g id="line2d_11">
      <defs>
       <path id="m40fa0927c8" d="M 0 0 
L -2 0 
" style="stroke: #000000; stroke-width: 0.6"/>
      </defs>
      <g>
       <use xlink:href="#m40fa0927c8" x="64.41375" y="314.369656" style="stroke: #000000; stroke-width: 0.6"/>
      </g>
     </g>
     <g id="text_7">
      <!-- $\mathdefault{2\times10^{5}}$ -->
      <g transform="translate(22.81375 318.168874)">
       <text>
        <tspan style="font: 10px 'DejaVu Sans'" x="0 8.310547 18.637695 25" y="-0.06406250000000036">2×10</tspan>
        <tspan style="font: 7px 'DejaVu Sans'" x="31.458008" y="-3.8921875000000004">5</tspan>
       </text>
      </g>
     </g>
    </g>
    <g id="ytick_2">
     <g id="line2d_12">
      <g>
       <use xlink:href="#m40fa0927c8" x="64.41375" y="185.624887" style="stroke: #000000; stroke-width: 0.6"/>
      </g>
     </g>
     <g id="text_8">
      <!-- $\mathdefault{3\times10^{5}}$ -->
      <g transform="translate(22.81375 189.424106)">
       <text>
        <tspan style="font: 10px 'DejaVu Sans'" x="0 8.310547 18.637695 25" y="-0.06406250000000036">3×10</tspan>
        <tspan style="font: 7px 'DejaVu Sans'" x="31.458008" y="-3.8921875000000004">5</tspan>
       </text>
      </g>
     </g>
    </g>
    <g id="ytick_3">
     <g id="line2d_13">
      <g>
       <use xlink:href="#m40fa0927c8" x="64.41375" y="94.27902" style="stroke: #000000; stroke-width: 0.6"/>
      </g>
     </g>
     <g id="text_9">
      <!-- $\mathdefault{4\times10^{5}}$ -->
      <g transform="translate(22.81375 98.078239)">
       <text>
        <tspan style="font: 10px 'DejaVu Sans'" x="0 8.310547 18.637695 25" y="-0.06406250000000036">4×10</tspan>
        <tspan style="font: 7px 'DejaVu Sans'" x="31.458008" y="-3.8921875000000004">5</tspan>
       </text>
      </g>
     </g>
    </g>
    <g id="text_10">
     <text style="font: 12px 'DejaVu Sans', 'Bitstream Vera Sans', 'Computer Modern Sans Serif', 'Lucida Grande', 'Verdana', 'Geneva', 'Lucid', 'Arial', 'Helvetica', 'Avant Garde', sans-serif; text-anchor: middle" x="16.318125" y="276.572969" transform="rotate(-90 16.318125 276.572969)">Median Elapsed Time (nanoseconds)</text>
    </g>
   </g>
   <g id="line2d_14">
    <path d="M 88.662898 403.795663 
L 110.707577 400.789346 
L 154.796937 430.223753 
L 176.841617 390.224096 
L 198.886296 401.339227 
L 220.930976 396.160192 
L 242.975656 399.660241 
L 265.020336 392.462093 
L 287.065015 404.361318 
L 309.109695 391.302079 
L 353.199055 396.682561 
L 375.243735 387.820835 
L 397.288414 394.856482 
L 419.333094 386.530726 
L 441.377774 407.943233 
L 485.467133 393.236916 
L 507.511813 403.094942 
L 529.556493 389.561917 
L 551.601173 395.277758 
L 573.645852 394.464572 
" clip-path="url(#p4c1a457e44)" style="fill: none; stroke: #1f77b4; stroke-width: 2; stroke-linecap: square"/>
    <defs>
     <path id="m493580916f" d="M 0 3 
C 0.795609 3 1.55874 2.683901 2.12132 2.12132 
C 2.683901 1.55874 3 0.795609 3 0 
C 3 -0.795609 2.683901 -1.55874 2.12132 -2.12132 
C 1.55874 -2.683901 0.795609 -3 0 -3 
C -0.795609 -3 -1.55874 -2.683901 -2.12132 -2.12132 
C -2.683901 -1.55874 -3 -0.795609 -3 0 
C -3 0.795609 -2.683901 1.55874 -2.12132 2.12132 
C -1.55874 2.683901 -0.795609 3 0 3 
z
" style="stroke: #1f77b4"/>
    </defs>
    <g clip-path="url(#p4c1a457e44)">
     <use xlink:href="#m493580916f" x="88.662898" y="403.795663" style="fill: #1f77b4; stroke: #1f77b4"/>
     <use xlink:href="#m493580916f" x="110.707577" y="400.789346" style="fill: #1f77b4; stroke: #1f77b4"/>
     <use xlink:href="#m493580916f" x="154.796937" y="430.223753" style="fill: #1f77b4; stroke: #1f77b4"/>
     <use xlink:href="#m493580916f" x="176.841617" y="390.224096" style="fill: #1f77b4; stroke: #1f77b4"/>
     <use xlink:href="#m493580916f" x="198.886296" y="401.339227" style="fill: #1f77b4; stroke: #1f77b4"/>
     <use xlink:href="#m493580916f" x="220.930976" y="396.160192" style="fill: #1f77b4; stroke: #1f77b4"/>
     <use xlink:href="#m493580916f" x="242.975656" y="399.660241" style="fill: #1f77b4; stroke: #1f77b4"/>
     <use xlink:href="#m493580916f" x="265.020336" y="392.462093" style="fill: #1f77b4; stroke: #1f77b4"/>
     <use xlink:href="#m493580916f" x="287.065015" y="404.361318" style="fill: #1f77b4; stroke: #1f77b4"/>
     <use xlink:href="#m493580916f" x="309.109695" y="391.302079" style="fill: #1f77b4; stroke: #1f77b4"/>
     <use xlink:href="#m493580916f" x="353.199055" y="396.682561" style="fill: #1f77b4; stroke: #1f77b4"/>
     <use xlink:href="#m493580916f" x="375.243735" y="387.820835" style="fill: #1f77b4; stroke: #1f77b4"/>
     <use xlink:href="#m493580916f" x="397.288414" y="394.856482" style="fill: #1f77b4; stroke: #1f77b4"/>
     <use xlink:href="#m493580916f" x="419.333094" y="386.530726" style="fill: #1f77b4; stroke: #1f77b4"/>
     <use xlink:href="#m493580916f" x="441.377774" y="407.943233" style="fill: #1f77b4; stroke: #1f77b4"/>
     <use xlink:href="#m493580916f" x="485.467133" y="393.236916" style="fill: #1f77b4; stroke: #1f77b4"/>
     <use xlink:href="#m493580916f" x="507.511813" y="403.094942" style="fill: #1f77b4; stroke: #1f77b4"/>
     <use xlink:href="#m493580916f" x="529.556493" y="389.561917" style="fill: #1f77b4; stroke: #1f77b4"/>
     <use xlink:href="#m493580916f" x="551.601173" y="395.277758" style="fill: #1f77b4; stroke: #1f77b4"/>
     <use xlink:href="#m493580916f" x="573.645852" y="394.464572" style="fill: #1f77b4; stroke: #1f77b4"/>
    </g>
   </g>
   <g id="line2d_15">
    <path d="M 88.662898 462.521588 
L 110.707577 474.44824 
L 154.796937 488.172749 
L 176.841617 487.421305 
L 198.886296 462.36442 
L 220.930976 461.806985 
L 242.975656 468.375247 
L 265.020336 464.804346 
L 287.065015 465.156093 
L 309.109695 459.555379 
L 353.199055 463.282969 
L 375.243735 450.498051 
L 397.288414 457.706371 
L 419.333094 487.035204 
L 441.377774 469.277434 
L 485.467133 450.335515 
L 507.511813 506.332202 
L 529.556493 457.725321 
L 551.601173 473.10095 
L 573.645852 461.263387 
" clip-path="url(#p4c1a457e44)" style="fill: none; stroke: #ff7f0e; stroke-width: 2; stroke-linecap: square"/>
    <defs>
     <path id="mef99ca90d2" d="M 0 3 
C 0.795609 3 1.55874 2.683901 2.12132 2.12132 
C 2.683901 1.55874 3 0.795609 3 0 
C 3 -0.795609 2.683901 -1.55874 2.12132 -2.12132 
C 1.55874 -2.683901 0.795609 -3 0 -3 
C -0.795609 -3 -1.55874 -2.683901 -2.12132 -2.12132 
C -2.683901 -1.55874 -3 -0.795609 -3 0 
C -3 0.795609 -2.683901 1.55874 -2.12132 2.12132 
C -1.55874 2.683901 -0.795609 3 0 3 
z
" style="stroke: #ff7f0e"/>
    </defs>
    <g clip-path="url(#p4c1a457e44)">
     <use xlink:href="#mef99ca90d2" x="88.662898" y="462.521588" style="fill: #ff7f0e; stroke: #ff7f0e"/>
     <use xlink:href="#mef99ca90d2" x="110.707577" y="474.44824" style="fill: #ff7f0e; stroke: #ff7f0e"/>
     <use xlink:href="#mef99ca90d2" x="154.796937" y="488.172749" style="fill: #ff7f0e; stroke: #ff7f0e"/>
     <use xlink:href="#mef99ca90d2" x="176.841617" y="487.421305" style="fill: #ff7f0e; stroke: #ff7f0e"/>
     <use xlink:href="#mef99ca90d2" x="198.886296" y="462.36442" style="fill: #ff7f0e; stroke: #ff7f0e"/>
     <use xlink:href="#mef99ca90d2" x="220.930976" y="461.806985" style="fill: #ff7f0e; stroke: #ff7f0e"/>
     <use xlink:href="#mef99ca90d2" x="242.975656" y="468.375247" style="fill: #ff7f0e; stroke: #ff7f0e"/>
     <use xlink:href="#mef99ca90d2" x="265.020336" y="464.804346" style="fill: #ff7f0e; stroke: #ff7f0e"/>
     <use xlink:href="#mef99ca90d2" x="287.065015" y="465.156093" style="fill: #ff7f0e; stroke: #ff7f0e"/>
     <use xlink:href="#mef99ca90d2" x="309.109695" y="459.555379" style="fill: #ff7f0e; stroke: #ff7f0e"/>
     <use xlink:href="#mef99ca90d2" x="353.199055" y="463.282969" style="fill: #ff7f0e; stroke: #ff7f0e"/>
     <use xlink:href="#mef99ca90d2" x="375.243735" y="450.498051" style="fill: #ff7f0e; stroke: #ff7f0e"/>
     <use xlink:href="#mef99ca90d2" x="397.288414" y="457.706371" style="fill: #ff7f0e; stroke: #ff7f0e"/>
     <use xlink:href="#mef99ca90d2" x="419.333094" y="487.035204" style="fill: #ff7f0e; stroke: #ff7f0e"/>
     <use xlink:href="#mef99ca90d2" x="441.377774" y="469.277434" style="fill: #ff7f0e; stroke: #ff7f0e"/>
     <use xlink:href="#mef99ca90d2" x="485.467133" y="450.335515" style="fill: #ff7f0e; stroke: #ff7f0e"/>
     <use xlink:href="#mef99ca90d2" x="507.511813" y="506.332202" style="fill: #ff7f0e; stroke: #ff7f0e"/>
     <use xlink:href="#mef99ca90d2" x="529.556493" y="457.725321" style="fill: #ff7f0e; stroke: #ff7f0e"/>
     <use xlink:href="#mef99ca90d2" x="551.601173" y="473.10095" style="fill: #ff7f0e; stroke: #ff7f0e"/>
     <use xlink:href="#mef99ca90d2" x="573.645852" y="461.263387" style="fill: #ff7f0e; stroke: #ff7f0e"/>
    </g>
   </g>
   <g id="line2d_16">
    <path d="M 88.662898 334.347938 
L 110.707577 306.154555 
L 154.796937 294.862701 
L 176.841617 272.259674 
L 198.886296 311.88982 
L 220.930976 296.47957 
L 242.975656 296.372143 
L 265.020336 306.228204 
L 287.065015 317.292857 
L 309.109695 287.146638 
L 353.199055 311.040313 
L 375.243735 279.292061 
L 397.288414 318.367736 
L 419.333094 270.730411 
L 441.377774 284.388417 
L 485.467133 284.402575 
L 507.511813 284.395351 
L 529.556493 308.502539 
L 551.601173 289.553372 
L 573.645852 298.266752 
" clip-path="url(#p4c1a457e44)" style="fill: none; stroke: #2ca02c; stroke-width: 2; stroke-linecap: square"/>
    <defs>
     <path id="m066d5fb3ab" d="M 0 3 
C 0.795609 3 1.55874 2.683901 2.12132 2.12132 
C 2.683901 1.55874 3 0.795609 3 0 
C 3 -0.795609 2.683901 -1.55874 2.12132 -2.12132 
C 1.55874 -2.683901 0.795609 -3 0 -3 
C -0.795609 -3 -1.55874 -2.683901 -2.12132 -2.12132 
C -2.683901 -1.55874 -3 -0.795609 -3 0 
C -3 0.795609 -2.683901 1.55874 -2.12132 2.12132 
C -1.55874 2.683901 -0.795609 3 0 3 
z
" style="stroke: #2ca02c"/>
    </defs>
    <g clip-path="url(#p4c1a457e44)">
     <use xlink:href="#m066d5fb3ab" x="88.662898" y="334.347938" style="fill: #2ca02c; stroke: #2ca02c"/>
     <use xlink:href="#m066d5fb3ab" x="110.707577" y="306.154555" style="fill: #2ca02c; stroke: #2ca02c"/>
     <use xlink:href="#m066d5fb3ab" x="154.796937" y="294.862701" style="fill: #2ca02c; stroke: #2ca02c"/>
     <use xlink:href="#m066d5fb3ab" x="176.841617" y="272.259674" style="fill: #2ca02c; stroke: #2ca02c"/>
     <use xlink:href="#m066d5fb3ab" x="198.886296" y="311.88982" style="fill: #2ca02c; stroke: #2ca02c"/>
     <use xlink:href="#m066d5fb3ab" x="220.930976" y="296.47957" style="fill: #2ca02c; stroke: #2ca02c"/>
     <use xlink:href="#m066d5fb3ab" x="242.975656" y="296.372143" style="fill: #2ca02c; stroke: #2ca02c"/>
     <use xlink:href="#m066d5fb3ab" x="265.020336" y="306.228204" style="fill: #2ca02c; stroke: #2ca02c"/>
     <use xlink:href="#m066d5fb3ab" x="287.065015" y="317.292857" style="fill: #2ca02c; stroke: #2ca02c"/>
     <use xlink:href="#m066d5fb3ab" x="309.109695" y="287.146638" style="fill: #2ca02c; stroke: #2ca02c"/>
     <use xlink:href="#m066d5fb3ab" x="353.199055" y="311.040313" style="fill: #2ca02c; stroke: #2ca02c"/>
     <use xlink:href="#m066d5fb3ab" x="375.243735" y="279.292061" style="fill: #2ca02c; stroke: #2ca02c"/>
     <use xlink:href="#m066d5fb3ab" x="397.288414" y="318.367736" style="fill: #2ca02c; stroke: #2ca02c"/>
     <use xlink:href="#m066d5fb3ab" x="419.333094" y="270.730411" style="fill: #2ca02c; stroke: #2ca02c"/>
     <use xlink:href="#m066d5fb3ab" x="441.377774" y="284.388417" style="fill: #2ca02c; stroke: #2ca02c"/>
     <use xlink:href="#m066d5fb3ab" x="485.467133" y="284.402575" style="fill: #2ca02c; stroke: #2ca02c"/>
     <use xlink:href="#m066d5fb3ab" x="507.511813" y="284.395351" style="fill: #2ca02c; stroke: #2ca02c"/>
     <use xlink:href="#m066d5fb3ab" x="529.556493" y="308.502539" style="fill: #2ca02c; stroke: #2ca02c"/>
     <use xlink:href="#m066d5fb3ab" x="551.601173" y="289.553372" style="fill: #2ca02c; stroke: #2ca02c"/>
     <use xlink:href="#m066d5fb3ab" x="573.645852" y="298.266752" style="fill: #2ca02c; stroke: #2ca02c"/>
    </g>
   </g>
   <g id="line2d_17">
    <path d="M 88.662898 396.04583 
L 110.707577 366.658358 
L 154.796937 400.143265 
L 176.841617 387.627214 
L 198.886296 382.388902 
L 220.930976 362.42402 
L 242.975656 365.625111 
L 265.020336 365.952531 
L 287.065015 385.315308 
L 309.109695 353.027331 
L 353.199055 385.401672 
L 375.243735 374.340335 
L 397.288414 379.769612 
L 419.333094 380.799315 
L 441.377774 361.420273 
L 485.467133 379.757128 
L 507.511813 394.877349 
L 529.556493 356.475535 
L 551.601173 377.305865 
L 573.645852 360.006441 
" clip-path="url(#p4c1a457e44)" style="fill: none; stroke: #d62728; stroke-width: 2; stroke-linecap: square"/>
    <defs>
     <path id="mcf894fd0e5" d="M 0 3 
C 0.795609 3 1.55874 2.683901 2.12132 2.12132 
C 2.683901 1.55874 3 0.795609 3 0 
C 3 -0.795609 2.683901 -1.55874 2.12132 -2.12132 
C 1.55874 -2.683901 0.795609 -3 0 -3 
C -0.795609 -3 -1.55874 -2.683901 -2.12132 -2.12132 
C -2.683901 -1.55874 -3 -0.795609 -3 0 
C -3 0.795609 -2.683901 1.55874 -2.12132 2.12132 
C -1.55874 2.683901 -0.795609 3 0 3 
z
" style="stroke: #d62728"/>
    </defs>
    <g clip-path="url(#p4c1a457e44)">
     <use xlink:href="#mcf894fd0e5" x="88.662898" y="396.04583" style="fill: #d62728; stroke: #d62728"/>
     <use xlink:href="#mcf894fd0e5" x="110.707577" y="366.658358" style="fill: #d62728; stroke: #d62728"/>
     <use xlink:href="#mcf894fd0e5" x="154.796937" y="400.143265" style="fill: #d62728; stroke: #d62728"/>
     <use xlink:href="#mcf894fd0e5" x="176.841617" y="387.627214" style="fill: #d62728; stroke: #d62728"/>
     <use xlink:href="#mcf894fd0e5" x="198.886296" y="382.388902" style="fill: #d62728; stroke: #d62728"/>
     <use xlink:href="#mcf894fd0e5" x="220.930976" y="362.42402" style="fill: #d62728; stroke: #d62728"/>
     <use xlink:href="#mcf894fd0e5" x="242.975656" y="365.625111" style="fill: #d62728; stroke: #d62728"/>
     <use xlink:href="#mcf894fd0e5" x="265.020336" y="365.952531" style="fill: #d62728; stroke: #d62728"/>
     <use xlink:href="#mcf894fd0e5" x="287.065015" y="385.315308" style="fill: #d62728; stroke: #d62728"/>
     <use xlink:href="#mcf894fd0e5" x="309.109695" y="353.027331" style="fill: #d62728; stroke: #d62728"/>
     <use xlink:href="#mcf894fd0e5" x="353.199055" y="385.401672" style="fill: #d62728; stroke: #d62728"/>
     <use xlink:href="#mcf894fd0e5" x="375.243735" y="374.340335" style="fill: #d62728; stroke: #d62728"/>
     <use xlink:href="#mcf894fd0e5" x="397.288414" y="379.769612" style="fill: #d62728; stroke: #d62728"/>
     <use xlink:href="#mcf894fd0e5" x="419.333094" y="380.799315" style="fill: #d62728; stroke: #d62728"/>
     <use xlink:href="#mcf894fd0e5" x="441.377774" y="361.420273" style="fill: #d62728; stroke: #d62728"/>
     <use xlink:href="#mcf894fd0e5" x="485.467133" y="379.757128" style="fill: #d62728; stroke: #d62728"/>
     <use xlink:href="#mcf894fd0e5" x="507.511813" y="394.877349" style="fill: #d62728; stroke: #d62728"/>
     <use xlink:href="#mcf894fd0e5" x="529.556493" y="356.475535" style="fill: #d62728; stroke: #d62728"/>
     <use xlink:href="#mcf894fd0e5" x="551.601173" y="377.305865" style="fill: #d62728; stroke: #d62728"/>
     <use xlink:href="#mcf894fd0e5" x="573.645852" y="360.006441" style="fill: #d62728; stroke: #d62728"/>
    </g>
   </g>
   <g id="line2d_18">
    <path d="M 88.662898 429.00595 
L 110.707577 202.366497 
L 154.796937 411.123658 
L 176.841617 46.813736 
L 198.886296 405.772894 
L 220.930976 418.437656 
L 242.975656 395.31586 
L 265.020336 420.691997 
L 287.065015 385.516065 
L 309.109695 396.729886 
L 353.199055 412.200785 
L 375.243735 211.560501 
L 397.288414 394.026419 
L 441.377774 403.977927 
L 507.511813 213.113264 
L 529.556493 401.52301 
L 551.601173 390.959385 
L 573.645852 401.786759 
" clip-path="url(#p4c1a457e44)" style="fill: none; stroke: #9467bd; stroke-width: 2; stroke-linecap: square"/>
    <defs>
     <path id="m72232f1dac" d="M 0 3 
C 0.795609 3 1.55874 2.683901 2.12132 2.12132 
C 2.683901 1.55874 3 0.795609 3 0 
C 3 -0.795609 2.683901 -1.55874 2.12132 -2.12132 
C 1.55874 -2.683901 0.795609 -3 0 -3 
C -0.795609 -3 -1.55874 -2.683901 -2.12132 -2.12132 
C -2.683901 -1.55874 -3 -0.795609 -3 0 
C -3 0.795609 -2.683901 1.55874 -2.12132 2.12132 
C -1.55874 2.683901 -0.795609 3 0 3 
z
" style="stroke: #9467bd"/>
    </defs>
    <g clip-path="url(#p4c1a457e44)">
     <use xlink:href="#m72232f1dac" x="88.662898" y="429.00595" style="fill: #9467bd; stroke: #9467bd"/>
     <use xlink:href="#m72232f1dac" x="110.707577" y="202.366497" style="fill: #9467bd; stroke: #9467bd"/>
     <use xlink:href="#m72232f1dac" x="154.796937" y="411.123658" style="fill: #9467bd; stroke: #9467bd"/>
     <use xlink:href="#m72232f1dac" x="176.841617" y="46.813736" style="fill: #9467bd; stroke: #9467bd"/>
     <use xlink:href="#m72232f1dac" x="198.886296" y="405.772894" style="fill: #9467bd; stroke: #9467bd"/>
     <use xlink:href="#m72232f1dac" x="220.930976" y="418.437656" style="fill: #9467bd; stroke: #9467bd"/>
     <use xlink:href="#m72232f1dac" x="242.975656" y="395.31586" style="fill: #9467bd; stroke: #9467bd"/>
     <use xlink:href="#m72232f1dac" x="265.020336" y="420.691997" style="fill: #9467bd; stroke: #9467bd"/>
     <use xlink:href="#m72232f1dac" x="287.065015" y="385.516065" style="fill: #9467bd; stroke: #9467bd"/>
     <use xlink:href="#m72232f1dac" x="309.109695" y="396.729886" style="fill: #9467bd; stroke: #9467bd"/>
     <use xlink:href="#m72232f1dac" x="353.199055" y="412.200785" style="fill: #9467bd; stroke: #9467bd"/>
     <use xlink:href="#m72232f1dac" x="375.243735" y="211.560501" style="fill: #9467bd; stroke: #9467bd"/>
     <use xlink:href="#m72232f1dac" x="397.288414" y="394.026419" style="fill: #9467bd; stroke: #9467bd"/>
     <use xlink:href="#m72232f1dac" x="441.377774" y="403.977927" style="fill: #9467bd; stroke: #9467bd"/>
     <use xlink:href="#m72232f1dac" x="507.511813" y="213.113264" style="fill: #9467bd; stroke: #9467bd"/>
     <use xlink:href="#m72232f1dac" x="529.556493" y="401.52301" style="fill: #9467bd; stroke: #9467bd"/>
     <use xlink:href="#m72232f1dac" x="551.601173" y="390.959385" style="fill: #9467bd; stroke: #9467bd"/>
     <use xlink:href="#m72232f1dac" x="573.645852" y="401.786759" style="fill: #9467bd; stroke: #9467bd"/>
    </g>
   </g>
   <g id="line2d_19">
    <path d="M 88.662898 415.289072 
L 110.707577 425.800249 
L 154.796937 421.760241 
L 176.841617 144.806181 
L 198.886296 428.442889 
L 220.930976 431.49475 
L 242.975656 414.342353 
L 265.020336 465.900093 
L 287.065015 421.758682 
L 309.109695 419.22744 
L 353.199055 465.541324 
L 375.243735 407.577 
L 397.288414 451.356219 
L 441.377774 429.541943 
L 507.511813 464.88952 
L 529.556493 435.330785 
L 551.601173 419.982586 
L 573.645852 428.502308 
" clip-path="url(#p4c1a457e44)" style="fill: none; stroke: #8c564b; stroke-width: 2; stroke-linecap: square"/>
    <defs>
     <path id="mb52b665997" d="M 0 3 
C 0.795609 3 1.55874 2.683901 2.12132 2.12132 
C 2.683901 1.55874 3 0.795609 3 0 
C 3 -0.795609 2.683901 -1.55874 2.12132 -2.12132 
C 1.55874 -2.683901 0.795609 -3 0 -3 
C -0.795609 -3 -1.55874 -2.683901 -2.12132 -2.12132 
C -2.683901 -1.55874 -3 -0.795609 -3 0 
C -3 0.795609 -2.683901 1.55874 -2.12132 2.12132 
C -1.55874 2.683901 -0.795609 3 0 3 
z
" style="stroke: #8c564b"/>
    </defs>
    <g clip-path="url(#p4c1a457e44)">
     <use xlink:href="#mb52b665997" x="88.662898" y="415.289072" style="fill: #8c564b; stroke: #8c564b"/>
     <use xlink:href="#mb52b665997" x="110.707577" y="425.800249" style="fill: #8c564b; stroke: #8c564b"/>
     <use xlink:href="#mb52b665997" x="154.796937" y="421.760241" style="fill: #8c564b; stroke: #8c564b"/>
     <use xlink:href="#mb52b665997" x="176.841617" y="144.806181" style="fill: #8c564b; stroke: #8c564b"/>
     <use xlink:href="#mb52b665997" x="198.886296" y="428.442889" style="fill: #8c564b; stroke: #8c564b"/>
     <use xlink:href="#mb52b665997" x="220.930976" y="431.49475" style="fill: #8c564b; stroke: #8c564b"/>
     <use xlink:href="#mb52b665997" x="242.975656" y="414.342353" style="fill: #8c564b; stroke: #8c564b"/>
     <use xlink:href="#mb52b665997" x="265.020336" y="465.900093" style="fill: #8c564b; stroke: #8c564b"/>
     <use xlink:href="#mb52b665997" x="287.065015" y="421.758682" style="fill: #8c564b; stroke: #8c564b"/>
     <use xlink:href="#mb52b665997" x="309.109695" y="419.22744" style="fill: #8c564b; stroke: #8c564b"/>
     <use xlink:href="#mb52b665997" x="353.199055" y="465.541324" style="fill: #8c564b; stroke: #8c564b"/>
     <use xlink:href="#mb52b665997" x="375.243735" y="407.577" style="fill: #8c564b; stroke: #8c564b"/>
     <use xlink:href="#mb52b665997" x="397.288414" y="451.356219" style="fill: #8c564b; stroke: #8c564b"/>
     <use xlink:href="#mb52b665997" x="441.377774" y="429.541943" style="fill: #8c564b; stroke: #8c564b"/>
     <use xlink:href="#mb52b665997" x="507.511813" y="464.88952" style="fill: #8c564b; stroke: #8c564b"/>
     <use xlink:href="#mb52b665997" x="529.556493" y="435.330785" style="fill: #8c564b; stroke: #8c564b"/>
     <use xlink:href="#mb52b665997" x="551.601173" y="419.982586" style="fill: #8c564b; stroke: #8c564b"/>
     <use xlink:href="#mb52b665997" x="573.645852" y="428.502308" style="fill: #8c564b; stroke: #8c564b"/>
    </g>
   </g>
   <g id="line2d_20">
    <path d="M 88.662898 407.058308 
L 110.707577 368.403564 
L 154.796937 390.731734 
L 176.841617 359.700842 
L 198.886296 367.343809 
L 220.930976 413.133887 
L 242.975656 394.821504 
L 265.020336 367.480402 
L 287.065015 397.250514 
L 309.109695 388.379757 
L 353.199055 371.565815 
L 375.243735 419.15727 
L 397.288414 371.92968 
L 441.377774 372.123671 
L 507.511813 371.374635 
L 529.556493 384.923691 
L 551.601173 370.529765 
L 573.645852 373.076496 
" clip-path="url(#p4c1a457e44)" style="fill: none; stroke: #e377c2; stroke-width: 2; stroke-linecap: square"/>
    <defs>
     <path id="mb8103c8a68" d="M 0 3 
C 0.795609 3 1.55874 2.683901 2.12132 2.12132 
C 2.683901 1.55874 3 0.795609 3 0 
C 3 -0.795609 2.683901 -1.55874 2.12132 -2.12132 
C 1.55874 -2.683901 0.795609 -3 0 -3 
C -0.795609 -3 -1.55874 -2.683901 -2.12132 -2.12132 
C -2.683901 -1.55874 -3 -0.795609 -3 0 
C -3 0.795609 -2.683901 1.55874 -2.12132 2.12132 
C -1.55874 2.683901 -0.795609 3 0 3 
z
" style="stroke: #e377c2"/>
    </defs>
    <g clip-path="url(#p4c1a457e44)">
     <use xlink:href="#mb8103c8a68" x="88.662898" y="407.058308" style="fill: #e377c2; stroke: #e377c2"/>
     <use xlink:href="#mb8103c8a68" x="110.707577" y="368.403564" style="fill: #e377c2; stroke: #e377c2"/>
     <use xlink:href="#mb8103c8a68" x="154.796937" y="390.731734" style="fill: #e377c2; stroke: #e377c2"/>
     <use xlink:href="#mb8103c8a68" x="176.841617" y="359.700842" style="fill: #e377c2; stroke: #e377c2"/>
     <use xlink:href="#mb8103c8a68" x="198.886296" y="367.343809" style="fill: #e377c2; stroke: #e377c2"/>
     <use xlink:href="#mb8103c8a68" x="220.930976" y="413.133887" style="fill: #e377c2; stroke: #e377c2"/>
     <use xlink:href="#mb8103c8a68" x="242.975656" y="394.821504" style="fill: #e377c2; stroke: #e377c2"/>
     <use xlink:href="#mb8103c8a68" x="265.020336" y="367.480402" style="fill: #e377c2; stroke: #e377c2"/>
     <use xlink:href="#mb8103c8a68" x="287.065015" y="397.250514" style="fill: #e377c2; stroke: #e377c2"/>
     <use xlink:href="#mb8103c8a68" x="309.109695" y="388.379757" style="fill: #e377c2; stroke: #e377c2"/>
     <use xlink:href="#mb8103c8a68" x="353.199055" y="371.565815" style="fill: #e377c2; stroke: #e377c2"/>
     <use xlink:href="#mb8103c8a68" x="375.243735" y="419.15727" style="fill: #e377c2; stroke: #e377c2"/>
     <use xlink:href="#mb8103c8a68" x="397.288414" y="371.92968" style="fill: #e377c2; stroke: #e377c2"/>
     <use xlink:href="#mb8103c8a68" x="441.377774" y="372.123671" style="fill: #e377c2; stroke: #e377c2"/>
     <use xlink:href="#mb8103c8a68" x="507.511813" y="371.374635" style="fill: #e377c2; stroke: #e377c2"/>
     <use xlink:href="#mb8103c8a68" x="529.556493" y="384.923691" style="fill: #e377c2; stroke: #e377c2"/>
     <use xlink:href="#mb8103c8a68" x="551.601173" y="370.529765" style="fill: #e377c2; stroke: #e377c2"/>
     <use xlink:href="#mb8103c8a68" x="573.645852" y="373.076496" style="fill: #e377c2; stroke: #e377c2"/>
    </g>
   </g>
   <g id="line2d_21">
    <path d="M 88.662898 417.819334 
L 110.707577 377.198261 
L 154.796937 398.387409 
L 176.841617 374.49193 
L 198.886296 375.163117 
L 220.930976 421.937968 
L 242.975656 411.33194 
L 265.020336 385.042144 
L 287.065015 407.021959 
L 309.109695 397.915514 
L 353.199055 386.145171 
L 375.243735 424.933947 
L 397.288414 396.120345 
L 441.377774 394.328937 
L 507.511813 391.227616 
L 529.556493 402.520848 
L 551.601173 377.200002 
L 573.645852 374.770438 
" clip-path="url(#p4c1a457e44)" style="fill: none; stroke: #7f7f7f; stroke-width: 2; stroke-linecap: square"/>
    <defs>
     <path id="ma46fc9df99" d="M 0 3 
C 0.795609 3 1.55874 2.683901 2.12132 2.12132 
C 2.683901 1.55874 3 0.795609 3 0 
C 3 -0.795609 2.683901 -1.55874 2.12132 -2.12132 
C 1.55874 -2.683901 0.795609 -3 0 -3 
C -0.795609 -3 -1.55874 -2.683901 -2.12132 -2.12132 
C -2.683901 -1.55874 -3 -0.795609 -3 0 
C -3 0.795609 -2.683901 1.55874 -2.12132 2.12132 
C -1.55874 2.683901 -0.795609 3 0 3 
z
" style="stroke: #7f7f7f"/>
    </defs>
    <g clip-path="url(#p4c1a457e44)">
     <use xlink:href="#ma46fc9df99" x="88.662898" y="417.819334" style="fill: #7f7f7f; stroke: #7f7f7f"/>
     <use xlink:href="#ma46fc9df99" x="110.707577" y="377.198261" style="fill: #7f7f7f; stroke: #7f7f7f"/>
     <use xlink:href="#ma46fc9df99" x="154.796937" y="398.387409" style="fill: #7f7f7f; stroke: #7f7f7f"/>
     <use xlink:href="#ma46fc9df99" x="176.841617" y="374.49193" style="fill: #7f7f7f; stroke: #7f7f7f"/>
     <use xlink:href="#ma46fc9df99" x="198.886296" y="375.163117" style="fill: #7f7f7f; stroke: #7f7f7f"/>
     <use xlink:href="#ma46fc9df99" x="220.930976" y="421.937968" style="fill: #7f7f7f; stroke: #7f7f7f"/>
     <use xlink:href="#ma46fc9df99" x="242.975656" y="411.33194" style="fill: #7f7f7f; stroke: #7f7f7f"/>
     <use xlink:href="#ma46fc9df99" x="265.020336" y="385.042144" style="fill: #7f7f7f; stroke: #7f7f7f"/>
     <use xlink:href="#ma46fc9df99" x="287.065015" y="407.021959" style="fill: #7f7f7f; stroke: #7f7f7f"/>
     <use xlink:href="#ma46fc9df99" x="309.109695" y="397.915514" style="fill: #7f7f7f; stroke: #7f7f7f"/>
     <use xlink:href="#ma46fc9df99" x="353.199055" y="386.145171" style="fill: #7f7f7f; stroke: #7f7f7f"/>
     <use xlink:href="#ma46fc9df99" x="375.243735" y="424.933947" style="fill: #7f7f7f; stroke: #7f7f7f"/>
     <use xlink:href="#ma46fc9df99" x="397.288414" y="396.120345" style="fill: #7f7f7f; stroke: #7f7f7f"/>
     <use xlink:href="#ma46fc9df99" x="441.377774" y="394.328937" style="fill: #7f7f7f; stroke: #7f7f7f"/>
     <use xlink:href="#ma46fc9df99" x="507.511813" y="391.227616" style="fill: #7f7f7f; stroke: #7f7f7f"/>
     <use xlink:href="#ma46fc9df99" x="529.556493" y="402.520848" style="fill: #7f7f7f; stroke: #7f7f7f"/>
     <use xlink:href="#ma46fc9df99" x="551.601173" y="377.200002" style="fill: #7f7f7f; stroke: #7f7f7f"/>
     <use xlink:href="#ma46fc9df99" x="573.645852" y="374.770438" style="fill: #7f7f7f; stroke: #7f7f7f"/>
    </g>
   </g>
   <g id="patch_3">
    <path d="M 64.41375 529.308125 
L 64.41375 23.837812 
" style="fill: none; stroke: #000000; stroke-width: 0.8; stroke-linejoin: miter; stroke-linecap: square"/>
   </g>
   <g id="patch_4">
    <path d="M 597.895 529.308125 
L 597.895 23.837812 
" style="fill: none; stroke: #000000; stroke-width: 0.8; stroke-linejoin: miter; stroke-linecap: square"/>
   </g>
   <g id="patch_5">
    <path d="M 64.41375 529.308125 
L 597.895 529.308125 
" style="fill: none; stroke: #000000; stroke-width: 0.8; stroke-linejoin: miter; stroke-linecap: square"/>
   </g>
   <g id="patch_6">
    <path d="M 64.41375 23.837812 
L 597.895 23.837812 
" style="fill: none; stroke: #000000; stroke-width: 0.8; stroke-linejoin: miter; stroke-linecap: square"/>
   </g>
   <g id="text_11">
    <text style="font: 700 14px 'DejaVu Sans', 'Bitstream Vera Sans', 'Computer Modern Sans Serif', 'Lucida Grande', 'Verdana', 'Geneva', 'Lucid', 'Arial', 'Helvetica', 'Avant Garde', sans-serif; text-anchor: middle" x="331.154375" y="17.837813" transform="rotate(-0 331.154375 17.837813)">Coroutine Submission - Performance Trend</text>
   </g>
   <g id="legend_1">
    <g id="patch_7">
     <path d="M 631.569062 151.487813 
L 840.794062 151.487813 
Q 842.794062 151.487813 842.794062 149.487813 
L 842.794062 30.837813 
Q 842.794062 28.837813 840.794062 28.837813 
L 631.569062 28.837813 
Q 629.569062 28.837813 629.569062 30.837813 
L 629.569062 149.487813 
Q 629.569062 151.487813 631.569062 151.487813 
z
" style="fill: #ffffff; opacity: 0.8; stroke: #cccccc; stroke-linejoin: miter"/>
    </g>
    <g id="line2d_22">
     <path d="M 633.569062 36.93625 
L 643.569062 36.93625 
L 653.569062 36.93625 
" style="fill: none; stroke: #1f77b4; stroke-width: 2; stroke-linecap: square"/>
     <g>
      <use xlink:href="#m493580916f" x="643.569062" y="36.93625" style="fill: #1f77b4; stroke: #1f77b4"/>
     </g>
    </g>
    <g id="text_12">
     <text style="font: 10px 'DejaVu Sans', 'Bitstream Vera Sans', 'Computer Modern Sans Serif', 'Lucida Grande', 'Verdana', 'Geneva', 'Lucid', 'Arial', 'Helvetica', 'Avant Garde', sans-serif; text-anchor: start" x="661.569062" y="40.43625" transform="rotate(-0 661.569062 40.43625)">gcc-14.2 - CoroutineSubmission_V1</text>
    </g>
    <g id="line2d_23">
     <path d="M 633.569062 51.8925 
L 643.569062 51.8925 
L 653.569062 51.8925 
" style="fill: none; stroke: #ff7f0e; stroke-width: 2; stroke-linecap: square"/>
     <g>
      <use xlink:href="#mef99ca90d2" x="643.569062" y="51.8925" style="fill: #ff7f0e; stroke: #ff7f0e"/>
     </g>
    </g>
    <g id="text_13">
     <text style="font: 10px 'DejaVu Sans', 'Bitstream Vera Sans', 'Computer Modern Sans Serif', 'Lucida Grande', 'Verdana', 'Geneva', 'Lucid', 'Arial', 'Helvetica', 'Avant Garde', sans-serif; text-anchor: start" x="661.569062" y="55.3925" transform="rotate(-0 661.569062 55.3925)">gcc-14.2 - LambdaSubmission_V1</text>
    </g>
    <g id="line2d_24">
     <path d="M 633.569062 66.84875 
L 643.569062 66.84875 
L 653.569062 66.84875 
" style="fill: none; stroke: #2ca02c; stroke-width: 2; stroke-linecap: square"/>
     <g>
      <use xlink:href="#m066d5fb3ab" x="643.569062" y="66.84875" style="fill: #2ca02c; stroke: #2ca02c"/>
     </g>
    </g>
    <g id="text_14">
     <text style="font: 10px 'DejaVu Sans', 'Bitstream Vera Sans', 'Computer Modern Sans Serif', 'Lucida Grande', 'Verdana', 'Geneva', 'Lucid', 'Arial', 'Helvetica', 'Avant Garde', sans-serif; text-anchor: start" x="661.569062" y="70.34875" transform="rotate(-0 661.569062 70.34875)">gcc-14.2 - CoroutineSubmission_V2</text>
    </g>
    <g id="line2d_25">
     <path d="M 633.569062 81.805 
L 643.569062 81.805 
L 653.569062 81.805 
" style="fill: none; stroke: #d62728; stroke-width: 2; stroke-linecap: square"/>
     <g>
      <use xlink:href="#mcf894fd0e5" x="643.569062" y="81.805" style="fill: #d62728; stroke: #d62728"/>
     </g>
    </g>
    <g id="text_15">
     <text style="font: 10px 'DejaVu Sans', 'Bitstream Vera Sans', 'Computer Modern Sans Serif', 'Lucida Grande', 'Verdana', 'Geneva', 'Lucid', 'Arial', 'Helvetica', 'Avant Garde', sans-serif; text-anchor: start" x="661.569062" y="85.305" transform="rotate(-0 661.569062 85.305)">gcc-14.2 - LambdaSubmission_V2</text>
    </g>
    <g id="line2d_26">
     <path d="M 633.569062 96.76125 
L 643.569062 96.76125 
L 653.569062 96.76125 
" style="fill: none; stroke: #9467bd; stroke-width: 2; stroke-linecap: square"/>
     <g>
      <use xlink:href="#m72232f1dac" x="643.569062" y="96.76125" style="fill: #9467bd; stroke: #9467bd"/>
     </g>
    </g>
    <g id="text_16">
     <text style="font: 10px 'DejaVu Sans', 'Bitstream Vera Sans', 'Computer Modern Sans Serif', 'Lucida Grande', 'Verdana', 'Geneva', 'Lucid', 'Arial', 'Helvetica', 'Avant Garde', sans-serif; text-anchor: start" x="661.569062" y="100.26125" transform="rotate(-0 661.569062 100.26125)">gcc-4.2 - CoroutineSubmission_V1</text>
    </g>
    <g id="line2d_27">
     <path d="M 633.569062 111.7175 
L 643.569062 111.7175 
L 653.569062 111.7175 
" style="fill: none; stroke: #8c564b; stroke-width: 2; stroke-linecap: square"/>
     <g>
      <use xlink:href="#mb52b665997" x="643.569062" y="111.7175" style="fill: #8c564b; stroke: #8c564b"/>
     </g>
    </g>
    <g id="text_17">
     <text style="font: 10px 'DejaVu Sans', 'Bitstream Vera Sans', 'Computer Modern Sans Serif', 'Lucida Grande', 'Verdana', 'Geneva', 'Lucid', 'Arial', 'Helvetica', 'Avant Garde', sans-serif; text-anchor: start" x="661.569062" y="115.2175" transform="rotate(-0 661.569062 115.2175)">gcc-4.2 - LambdaSubmission_V1</text>
    </g>
    <g id="line2d_28">
     <path d="M 633.569062 126.67375 
L 643.569062 126.67375 
L 653.569062 126.67375 
" style="fill: none; stroke: #e377c2; stroke-width: 2; stroke-linecap: square"/>
     <g>
      <use xlink:href="#mb8103c8a68" x="643.569062" y="126.67375" style="fill: #e377c2; stroke: #e377c2"/>
     </g>
    </g>
    <g id="text_18">
     <text style="font: 10px 'DejaVu Sans', 'Bitstream Vera Sans', 'Computer Modern Sans Serif', 'Lucida Grande', 'Verdana', 'Geneva', 'Lucid', 'Arial', 'Helvetica', 'Avant Garde', sans-serif; text-anchor: start" x="661.569062" y="130.17375" transform="rotate(-0 661.569062 130.17375)">gcc-4.2 - CoroutineSubmission_V2</text>
    </g>
    <g id="line2d_29">
     <path d="M 633.569062 141.63 
L 643.569062 141.63 
L 653.569062 141.63 
" style="fill: none; stroke: #7f7f7f; stroke-width: 2; stroke-linecap: square"/>
     <g>
      <use xlink:href="#ma46fc9df99" x="643.569062" y="141.63" style="fill: #7f7f7f; stroke: #7f7f7f"/>
     </g>
    </g>
    <g id="text_19">
     <text style="font: 10px 'DejaVu Sans', 'Bitstream Vera Sans', 'Computer Modern Sans Serif', 'Lucida Grande', 'Verdana', 'Geneva', 'Lucid', 'Arial', 'Helvetica', 'Avant Garde', sans-serif; text-anchor: start" x="661.569062" y="145.13" transform="rotate(-0 661.569062 145.13)">gcc-4.2 - LambdaSubmission_V2</text>
    </g>
   </g>
  </g>
 </g>
 <defs>
  <clipPath id="p4c1a457e44">
   <rect x="64.41375" y="23.837813" width="533.48125" height="505.470313"/>
  </clipPath>
 </defs>
</svg>
