<?xml version="1.0" encoding="utf-8" standalone="no"?>
<!DOCTYPE svg PUBLIC "-//W3C//DTD SVG 1.1//EN"
  "http://www.w3.org/Graphics/SVG/1.1/DTD/svg11.dtd">
<svg xmlns:xlink="http://www.w3.org/1999/xlink" width="847.981719pt" height="568.8pt" viewBox="0 0 847.981719 568.8" xmlns="http://www.w3.org/2000/svg" version="1.1">
 <metadata>
  <rdf:RDF xmlns:dc="http://purl.org/dc/elements/1.1/" xmlns:cc="http://creativecommons.org/ns#" xmlns:rdf="http://www.w3.org/1999/02/22-rdf-syntax-ns#">
   <cc:Work>
    <dc:type rdf:resource="http://purl.org/dc/dcmitype/StillImage"/>
    <dc:date>2025-08-22T21:57:34.196161</dc:date>
    <dc:format>image/svg+xml</dc:format>
    <dc:creator>
     <cc:Agent>
      <dc:title>Matplotlib v3.9.4, https://matplotlib.org/</dc:title>
     </cc:Agent>
    </dc:creator>
   </cc:Work>
  </rdf:RDF>
 </metadata>
 <defs>
  <style type="text/css">*{stroke-linejoin: round; stroke-linecap: butt}</style>
 </defs>
 <g id="figure_1">
  <g id="patch_1">
   <path d="M 0 568.8 
L 847.981719 568.8 
L 847.981719 0 
L 0 0 
z
" style="fill: #ffffff"/>
  </g>
  <g id="axes_1">
   <g id="patch_2">
    <path d="M 47.41375 529.308125 
L 540.648125 529.308125 
L 540.648125 23.837812 
L 47.41375 23.837812 
z
" style="fill: #ffffff"/>
   </g>
   <g id="matplotlib.axis_1">
    <g id="xtick_1">
     <g id="line2d_1">
      <path d="M 69.833494 529.308125 
L 69.833494 23.837812 
" clip-path="url(#pe4d5c77ca0)" style="fill: none; stroke: #b0b0b0; stroke-opacity: 0.3; stroke-width: 0.8; stroke-linecap: square"/>
     </g>
     <g id="line2d_2">
      <defs>
       <path id="mbd2003b387" d="M 0 0 
L 0 3.5 
" style="stroke: #000000; stroke-width: 0.8"/>
      </defs>
      <g>
       <use xlink:href="#mbd2003b387" x="69.833494" y="529.308125" style="stroke: #000000; stroke-width: 0.8"/>
      </g>
     </g>
     <g id="text_1">
      <text style="font: 10px 'DejaVu Sans', 'Bitstream Vera Sans', 'Computer Modern Sans Serif', 'Lucida Grande', 'Verdana', 'Geneva', 'Lucid', 'Arial', 'Helvetica', 'Avant Garde', sans-serif; text-anchor: middle" x="69.833494" y="543.906563" transform="rotate(-0 69.833494 543.906563)">96</text>
     </g>
    </g>
    <g id="xtick_2">
     <g id="line2d_3">
      <path d="M 125.882855 529.308125 
L 125.882855 23.837812 
" clip-path="url(#pe4d5c77ca0)" style="fill: none; stroke: #b0b0b0; stroke-opacity: 0.3; stroke-width: 0.8; stroke-linecap: square"/>
     </g>
     <g id="line2d_4">
      <g>
       <use xlink:href="#mbd2003b387" x="125.882855" y="529.308125" style="stroke: #000000; stroke-width: 0.8"/>
      </g>
     </g>
     <g id="text_2">
      <text style="font: 10px 'DejaVu Sans', 'Bitstream Vera Sans', 'Computer Modern Sans Serif', 'Lucida Grande', 'Verdana', 'Geneva', 'Lucid', 'Arial', 'Helvetica', 'Avant Garde', sans-serif; text-anchor: middle" x="125.882855" y="543.906563" transform="rotate(-0 125.882855 543.906563)">97</text>
     </g>
    </g>
    <g id="xtick_3">
     <g id="line2d_5">
      <path d="M 181.932216 529.308125 
L 181.932216 23.837812 
" clip-path="url(#pe4d5c77ca0)" style="fill: none; stroke: #b0b0b0; stroke-opacity: 0.3; stroke-width: 0.8; stroke-linecap: square"/>
     </g>
     <g id="line2d_6">
      <g>
       <use xlink:href="#mbd2003b387" x="181.932216" y="529.308125" style="stroke: #000000; stroke-width: 0.8"/>
      </g>
     </g>
     <g id="text_3">
      <text style="font: 10px 'DejaVu Sans', 'Bitstream Vera Sans', 'Computer Modern Sans Serif', 'Lucida Grande', 'Verdana', 'Geneva', 'Lucid', 'Arial', 'Helvetica', 'Avant Garde', sans-serif; text-anchor: middle" x="181.932216" y="543.906563" transform="rotate(-0 181.932216 543.906563)">98</text>
     </g>
    </g>
    <g id="xtick_4">
     <g id="line2d_7">
      <path d="M 237.981577 529.308125 
L 237.981577 23.837812 
" clip-path="url(#pe4d5c77ca0)" style="fill: none; stroke: #b0b0b0; stroke-opacity: 0.3; stroke-width: 0.8; stroke-linecap: square"/>
     </g>
     <g id="line2d_8">
      <g>
       <use xlink:href="#mbd2003b387" x="237.981577" y="529.308125" style="stroke: #000000; stroke-width: 0.8"/>
      </g>
     </g>
     <g id="text_4">
      <text style="font: 10px 'DejaVu Sans', 'Bitstream Vera Sans', 'Computer Modern Sans Serif', 'Lucida Grande', 'Verdana', 'Geneva', 'Lucid', 'Arial', 'Helvetica', 'Avant Garde', sans-serif; text-anchor: middle" x="237.981577" y="543.906563" transform="rotate(-0 237.981577 543.906563)">99</text>
     </g>
    </g>
    <g id="xtick_5">
     <g id="line2d_9">
      <path d="M 294.030937 529.308125 
L 294.030937 23.837812 
" clip-path="url(#pe4d5c77ca0)" style="fill: none; stroke: #b0b0b0; stroke-opacity: 0.3; stroke-width: 0.8; stroke-linecap: square"/>
     </g>
     <g id="line2d_10">
      <g>
       <use xlink:href="#mbd2003b387" x="294.030937" y="529.308125" style="stroke: #000000; stroke-width: 0.8"/>
      </g>
     </g>
     <g id="text_5">
      <text style="font: 10px 'DejaVu Sans', 'Bitstream Vera Sans', 'Computer Modern Sans Serif', 'Lucida Grande', 'Verdana', 'Geneva', 'Lucid', 'Arial', 'Helvetica', 'Avant Garde', sans-serif; text-anchor: middle" x="294.030937" y="543.906563" transform="rotate(-0 294.030937 543.906563)">100</text>
     </g>
    </g>
    <g id="xtick_6">
     <g id="line2d_11">
      <path d="M 350.080298 529.308125 
L 350.080298 23.837812 
" clip-path="url(#pe4d5c77ca0)" style="fill: none; stroke: #b0b0b0; stroke-opacity: 0.3; stroke-width: 0.8; stroke-linecap: square"/>
     </g>
     <g id="line2d_12">
      <g>
       <use xlink:href="#mbd2003b387" x="350.080298" y="529.308125" style="stroke: #000000; stroke-width: 0.8"/>
      </g>
     </g>
     <g id="text_6">
      <text style="font: 10px 'DejaVu Sans', 'Bitstream Vera Sans', 'Computer Modern Sans Serif', 'Lucida Grande', 'Verdana', 'Geneva', 'Lucid', 'Arial', 'Helvetica', 'Avant Garde', sans-serif; text-anchor: middle" x="350.080298" y="543.906563" transform="rotate(-0 350.080298 543.906563)">101</text>
     </g>
    </g>
    <g id="xtick_7">
     <g id="line2d_13">
      <path d="M 406.129659 529.308125 
L 406.129659 23.837812 
" clip-path="url(#pe4d5c77ca0)" style="fill: none; stroke: #b0b0b0; stroke-opacity: 0.3; stroke-width: 0.8; stroke-linecap: square"/>
     </g>
     <g id="line2d_14">
      <g>
       <use xlink:href="#mbd2003b387" x="406.129659" y="529.308125" style="stroke: #000000; stroke-width: 0.8"/>
      </g>
     </g>
     <g id="text_7">
      <text style="font: 10px 'DejaVu Sans', 'Bitstream Vera Sans', 'Computer Modern Sans Serif', 'Lucida Grande', 'Verdana', 'Geneva', 'Lucid', 'Arial', 'Helvetica', 'Avant Garde', sans-serif; text-anchor: middle" x="406.129659" y="543.906563" transform="rotate(-0 406.129659 543.906563)">102</text>
     </g>
    </g>
    <g id="xtick_8">
     <g id="line2d_15">
      <path d="M 462.17902 529.308125 
L 462.17902 23.837812 
" clip-path="url(#pe4d5c77ca0)" style="fill: none; stroke: #b0b0b0; stroke-opacity: 0.3; stroke-width: 0.8; stroke-linecap: square"/>
     </g>
     <g id="line2d_16">
      <g>
       <use xlink:href="#mbd2003b387" x="462.17902" y="529.308125" style="stroke: #000000; stroke-width: 0.8"/>
      </g>
     </g>
     <g id="text_8">
      <text style="font: 10px 'DejaVu Sans', 'Bitstream Vera Sans', 'Computer Modern Sans Serif', 'Lucida Grande', 'Verdana', 'Geneva', 'Lucid', 'Arial', 'Helvetica', 'Avant Garde', sans-serif; text-anchor: middle" x="462.17902" y="543.906563" transform="rotate(-0 462.17902 543.906563)">103</text>
     </g>
    </g>
    <g id="xtick_9">
     <g id="line2d_17">
      <path d="M 518.228381 529.308125 
L 518.228381 23.837812 
" clip-path="url(#pe4d5c77ca0)" style="fill: none; stroke: #b0b0b0; stroke-opacity: 0.3; stroke-width: 0.8; stroke-linecap: square"/>
     </g>
     <g id="line2d_18">
      <g>
       <use xlink:href="#mbd2003b387" x="518.228381" y="529.308125" style="stroke: #000000; stroke-width: 0.8"/>
      </g>
     </g>
     <g id="text_9">
      <text style="font: 10px 'DejaVu Sans', 'Bitstream Vera Sans', 'Computer Modern Sans Serif', 'Lucida Grande', 'Verdana', 'Geneva', 'Lucid', 'Arial', 'Helvetica', 'Avant Garde', sans-serif; text-anchor: middle" x="518.228381" y="543.906563" transform="rotate(-0 518.228381 543.906563)">104</text>
     </g>
    </g>
    <g id="text_10">
     <text style="font: 12px 'DejaVu Sans', 'Bitstream Vera Sans', 'Computer Modern Sans Serif', 'Lucida Grande', 'Verdana', 'Geneva', 'Lucid', 'Arial', 'Helvetica', 'Avant Garde', sans-serif; text-anchor: middle" x="294.030937" y="559.104375" transform="rotate(-0 294.030937 559.104375)">Build Number</text>
    </g>
   </g>
   <g id="matplotlib.axis_2">
    <g id="ytick_1">
     <g id="line2d_19">
      <path d="M 47.41375 518.657845 
L 540.648125 518.657845 
" clip-path="url(#pe4d5c77ca0)" style="fill: none; stroke: #b0b0b0; stroke-opacity: 0.3; stroke-width: 0.8; stroke-linecap: square"/>
     </g>
     <g id="line2d_20">
      <defs>
       <path id="mdaa47d5306" d="M 0 0 
L -3.5 0 
" style="stroke: #000000; stroke-width: 0.8"/>
      </defs>
      <g>
       <use xlink:href="#mdaa47d5306" x="47.41375" y="518.657845" style="stroke: #000000; stroke-width: 0.8"/>
      </g>
     </g>
     <g id="text_11">
      <!-- $\mathdefault{10^{5}}$ -->
      <g transform="translate(22.81375 522.457063)">
       <text>
        <tspan style="font: 10px 'DejaVu Sans'" x="0 6.362305" y="-0.06406250000000036">10</tspan>
        <tspan style="font: 7px 'DejaVu Sans'" x="12.820312" y="-3.8921875000000004">5</tspan>
       </text>
      </g>
     </g>
    </g>
    <g id="ytick_2">
     <g id="line2d_21">
      <path d="M 47.41375 361.451534 
L 540.648125 361.451534 
" clip-path="url(#pe4d5c77ca0)" style="fill: none; stroke: #b0b0b0; stroke-opacity: 0.3; stroke-width: 0.8; stroke-linecap: square"/>
     </g>
     <g id="line2d_22">
      <g>
       <use xlink:href="#mdaa47d5306" x="47.41375" y="361.451534" style="stroke: #000000; stroke-width: 0.8"/>
      </g>
     </g>
     <g id="text_12">
      <!-- $\mathdefault{10^{6}}$ -->
      <g transform="translate(22.81375 365.250753)">
       <text>
        <tspan style="font: 10px 'DejaVu Sans'" x="0 6.362305" y="-0.9765625">10</tspan>
        <tspan style="font: 7px 'DejaVu Sans'" x="12.820312" y="-4.8046875">6</tspan>
       </text>
      </g>
     </g>
    </g>
    <g id="ytick_3">
     <g id="line2d_23">
      <path d="M 47.41375 204.245224 
L 540.648125 204.245224 
" clip-path="url(#pe4d5c77ca0)" style="fill: none; stroke: #b0b0b0; stroke-opacity: 0.3; stroke-width: 0.8; stroke-linecap: square"/>
     </g>
     <g id="line2d_24">
      <g>
       <use xlink:href="#mdaa47d5306" x="47.41375" y="204.245224" style="stroke: #000000; stroke-width: 0.8"/>
      </g>
     </g>
     <g id="text_13">
      <!-- $\mathdefault{10^{7}}$ -->
      <g transform="translate(22.81375 208.044443)">
       <text>
        <tspan style="font: 10px 'DejaVu Sans'" x="0 6.362305" y="-0.06406250000000036">10</tspan>
        <tspan style="font: 7px 'DejaVu Sans'" x="12.820312" y="-3.8921875000000004">7</tspan>
       </text>
      </g>
     </g>
    </g>
    <g id="ytick_4">
     <g id="line2d_25">
      <path d="M 47.41375 47.038914 
L 540.648125 47.038914 
" clip-path="url(#pe4d5c77ca0)" style="fill: none; stroke: #b0b0b0; stroke-opacity: 0.3; stroke-width: 0.8; stroke-linecap: square"/>
     </g>
     <g id="line2d_26">
      <g>
       <use xlink:href="#mdaa47d5306" x="47.41375" y="47.038914" style="stroke: #000000; stroke-width: 0.8"/>
      </g>
     </g>
     <g id="text_14">
      <!-- $\mathdefault{10^{8}}$ -->
      <g transform="translate(22.81375 50.838133)">
       <text>
        <tspan style="font: 10px 'DejaVu Sans'" x="0 6.362305" y="-0.9765625">10</tspan>
        <tspan style="font: 7px 'DejaVu Sans'" x="12.820312" y="-4.8046875">8</tspan>
       </text>
      </g>
     </g>
    </g>
    <g id="ytick_5">
     <g id="line2d_27">
      <defs>
       <path id="mab553330ae" d="M 0 0 
L -2 0 
" style="stroke: #000000; stroke-width: 0.6"/>
      </defs>
      <g>
       <use xlink:href="#mab553330ae" x="47.41375" y="525.851211" style="stroke: #000000; stroke-width: 0.6"/>
      </g>
     </g>
    </g>
    <g id="ytick_6">
     <g id="line2d_28">
      <g>
       <use xlink:href="#mab553330ae" x="47.41375" y="471.33403" style="stroke: #000000; stroke-width: 0.6"/>
      </g>
     </g>
    </g>
    <g id="ytick_7">
     <g id="line2d_29">
      <g>
       <use xlink:href="#mab553330ae" x="47.41375" y="443.651373" style="stroke: #000000; stroke-width: 0.6"/>
      </g>
     </g>
    </g>
    <g id="ytick_8">
     <g id="line2d_30">
      <g>
       <use xlink:href="#mab553330ae" x="47.41375" y="424.010215" style="stroke: #000000; stroke-width: 0.6"/>
      </g>
     </g>
    </g>
    <g id="ytick_9">
     <g id="line2d_31">
      <g>
       <use xlink:href="#mab553330ae" x="47.41375" y="408.775349" style="stroke: #000000; stroke-width: 0.6"/>
      </g>
     </g>
    </g>
    <g id="ytick_10">
     <g id="line2d_32">
      <g>
       <use xlink:href="#mab553330ae" x="47.41375" y="396.327558" style="stroke: #000000; stroke-width: 0.6"/>
      </g>
     </g>
    </g>
    <g id="ytick_11">
     <g id="line2d_33">
      <g>
       <use xlink:href="#mab553330ae" x="47.41375" y="385.8031" style="stroke: #000000; stroke-width: 0.6"/>
      </g>
     </g>
    </g>
    <g id="ytick_12">
     <g id="line2d_34">
      <g>
       <use xlink:href="#mab553330ae" x="47.41375" y="376.6864" style="stroke: #000000; stroke-width: 0.6"/>
      </g>
     </g>
    </g>
    <g id="ytick_13">
     <g id="line2d_35">
      <g>
       <use xlink:href="#mab553330ae" x="47.41375" y="368.644901" style="stroke: #000000; stroke-width: 0.6"/>
      </g>
     </g>
    </g>
    <g id="ytick_14">
     <g id="line2d_36">
      <g>
       <use xlink:href="#mab553330ae" x="47.41375" y="314.12772" style="stroke: #000000; stroke-width: 0.6"/>
      </g>
     </g>
    </g>
    <g id="ytick_15">
     <g id="line2d_37">
      <g>
       <use xlink:href="#mab553330ae" x="47.41375" y="286.445062" style="stroke: #000000; stroke-width: 0.6"/>
      </g>
     </g>
    </g>
    <g id="ytick_16">
     <g id="line2d_38">
      <g>
       <use xlink:href="#mab553330ae" x="47.41375" y="266.803905" style="stroke: #000000; stroke-width: 0.6"/>
      </g>
     </g>
    </g>
    <g id="ytick_17">
     <g id="line2d_39">
      <g>
       <use xlink:href="#mab553330ae" x="47.41375" y="251.569039" style="stroke: #000000; stroke-width: 0.6"/>
      </g>
     </g>
    </g>
    <g id="ytick_18">
     <g id="line2d_40">
      <g>
       <use xlink:href="#mab553330ae" x="47.41375" y="239.121248" style="stroke: #000000; stroke-width: 0.6"/>
      </g>
     </g>
    </g>
    <g id="ytick_19">
     <g id="line2d_41">
      <g>
       <use xlink:href="#mab553330ae" x="47.41375" y="228.59679" style="stroke: #000000; stroke-width: 0.6"/>
      </g>
     </g>
    </g>
    <g id="ytick_20">
     <g id="line2d_42">
      <g>
       <use xlink:href="#mab553330ae" x="47.41375" y="219.48009" style="stroke: #000000; stroke-width: 0.6"/>
      </g>
     </g>
    </g>
    <g id="ytick_21">
     <g id="line2d_43">
      <g>
       <use xlink:href="#mab553330ae" x="47.41375" y="211.438591" style="stroke: #000000; stroke-width: 0.6"/>
      </g>
     </g>
    </g>
    <g id="ytick_22">
     <g id="line2d_44">
      <g>
       <use xlink:href="#mab553330ae" x="47.41375" y="156.921409" style="stroke: #000000; stroke-width: 0.6"/>
      </g>
     </g>
    </g>
    <g id="ytick_23">
     <g id="line2d_45">
      <g>
       <use xlink:href="#mab553330ae" x="47.41375" y="129.238752" style="stroke: #000000; stroke-width: 0.6"/>
      </g>
     </g>
    </g>
    <g id="ytick_24">
     <g id="line2d_46">
      <g>
       <use xlink:href="#mab553330ae" x="47.41375" y="109.597595" style="stroke: #000000; stroke-width: 0.6"/>
      </g>
     </g>
    </g>
    <g id="ytick_25">
     <g id="line2d_47">
      <g>
       <use xlink:href="#mab553330ae" x="47.41375" y="94.362729" style="stroke: #000000; stroke-width: 0.6"/>
      </g>
     </g>
    </g>
    <g id="ytick_26">
     <g id="line2d_48">
      <g>
       <use xlink:href="#mab553330ae" x="47.41375" y="81.914937" style="stroke: #000000; stroke-width: 0.6"/>
      </g>
     </g>
    </g>
    <g id="ytick_27">
     <g id="line2d_49">
      <g>
       <use xlink:href="#mab553330ae" x="47.41375" y="71.39048" style="stroke: #000000; stroke-width: 0.6"/>
      </g>
     </g>
    </g>
    <g id="ytick_28">
     <g id="line2d_50">
      <g>
       <use xlink:href="#mab553330ae" x="47.41375" y="62.27378" style="stroke: #000000; stroke-width: 0.6"/>
      </g>
     </g>
    </g>
    <g id="ytick_29">
     <g id="line2d_51">
      <g>
       <use xlink:href="#mab553330ae" x="47.41375" y="54.23228" style="stroke: #000000; stroke-width: 0.6"/>
      </g>
     </g>
    </g>
    <g id="text_15">
     <text style="font: 12px 'DejaVu Sans', 'Bitstream Vera Sans', 'Computer Modern Sans Serif', 'Lucida Grande', 'Verdana', 'Geneva', 'Lucid', 'Arial', 'Helvetica', 'Avant Garde', sans-serif; text-anchor: middle" x="16.318125" y="276.572969" transform="rotate(-90 16.318125 276.572969)">Median Elapsed Time (nanoseconds)</text>
    </g>
   </g>
   <g id="line2d_52">
    <path d="M 69.833494 46.813736 
L 125.882855 46.886938 
L 237.981577 46.884901 
L 294.030937 46.87655 
L 350.080298 46.885565 
L 406.129659 46.88452 
L 462.17902 46.882538 
L 518.228381 46.885315 
" clip-path="url(#pe4d5c77ca0)" style="fill: none; stroke: #1f77b4; stroke-width: 2; stroke-linecap: square"/>
    <defs>
     <path id="m87cf2681c0" d="M 0 3 
C 0.795609 3 1.55874 2.683901 2.12132 2.12132 
C 2.683901 1.55874 3 0.795609 3 0 
C 3 -0.795609 2.683901 -1.55874 2.12132 -2.12132 
C 1.55874 -2.683901 0.795609 -3 0 -3 
C -0.795609 -3 -1.55874 -2.683901 -2.12132 -2.12132 
C -2.683901 -1.55874 -3 -0.795609 -3 0 
C -3 0.795609 -2.683901 1.55874 -2.12132 2.12132 
C -1.55874 2.683901 -0.795609 3 0 3 
z
" style="stroke: #1f77b4"/>
    </defs>
    <g clip-path="url(#pe4d5c77ca0)">
     <use xlink:href="#m87cf2681c0" x="69.833494" y="46.813736" style="fill: #1f77b4; stroke: #1f77b4"/>
     <use xlink:href="#m87cf2681c0" x="125.882855" y="46.886938" style="fill: #1f77b4; stroke: #1f77b4"/>
     <use xlink:href="#m87cf2681c0" x="237.981577" y="46.884901" style="fill: #1f77b4; stroke: #1f77b4"/>
     <use xlink:href="#m87cf2681c0" x="294.030937" y="46.87655" style="fill: #1f77b4; stroke: #1f77b4"/>
     <use xlink:href="#m87cf2681c0" x="350.080298" y="46.885565" style="fill: #1f77b4; stroke: #1f77b4"/>
     <use xlink:href="#m87cf2681c0" x="406.129659" y="46.88452" style="fill: #1f77b4; stroke: #1f77b4"/>
     <use xlink:href="#m87cf2681c0" x="462.17902" y="46.882538" style="fill: #1f77b4; stroke: #1f77b4"/>
     <use xlink:href="#m87cf2681c0" x="518.228381" y="46.885315" style="fill: #1f77b4; stroke: #1f77b4"/>
    </g>
   </g>
   <g id="line2d_53">
    <path d="M 69.833494 319.004611 
L 125.882855 320.360843 
L 237.981577 319.636825 
L 294.030937 319.999629 
L 350.080298 320.356737 
L 406.129659 319.999201 
L 462.17902 320.259041 
L 518.228381 320.206522 
" clip-path="url(#pe4d5c77ca0)" style="fill: none; stroke: #ff7f0e; stroke-width: 2; stroke-linecap: square"/>
    <defs>
     <path id="m2340feb561" d="M 0 3 
C 0.795609 3 1.55874 2.683901 2.12132 2.12132 
C 2.683901 1.55874 3 0.795609 3 0 
C 3 -0.795609 2.683901 -1.55874 2.12132 -2.12132 
C 1.55874 -2.683901 0.795609 -3 0 -3 
C -0.795609 -3 -1.55874 -2.683901 -2.12132 -2.12132 
C -2.683901 -1.55874 -3 -0.795609 -3 0 
C -3 0.795609 -2.683901 1.55874 -2.12132 2.12132 
C -1.55874 2.683901 -0.795609 3 0 3 
z
" style="stroke: #ff7f0e"/>
    </defs>
    <g clip-path="url(#pe4d5c77ca0)">
     <use xlink:href="#m2340feb561" x="69.833494" y="319.004611" style="fill: #ff7f0e; stroke: #ff7f0e"/>
     <use xlink:href="#m2340feb561" x="125.882855" y="320.360843" style="fill: #ff7f0e; stroke: #ff7f0e"/>
     <use xlink:href="#m2340feb561" x="237.981577" y="319.636825" style="fill: #ff7f0e; stroke: #ff7f0e"/>
     <use xlink:href="#m2340feb561" x="294.030937" y="319.999629" style="fill: #ff7f0e; stroke: #ff7f0e"/>
     <use xlink:href="#m2340feb561" x="350.080298" y="320.356737" style="fill: #ff7f0e; stroke: #ff7f0e"/>
     <use xlink:href="#m2340feb561" x="406.129659" y="319.999201" style="fill: #ff7f0e; stroke: #ff7f0e"/>
     <use xlink:href="#m2340feb561" x="462.17902" y="320.259041" style="fill: #ff7f0e; stroke: #ff7f0e"/>
     <use xlink:href="#m2340feb561" x="518.228381" y="320.206522" style="fill: #ff7f0e; stroke: #ff7f0e"/>
    </g>
   </g>
   <g id="line2d_54">
    <path d="M 69.833494 46.854989 
L 125.882855 46.849498 
L 237.981577 46.832617 
L 294.030937 46.841864 
L 350.080298 46.854505 
L 406.129659 46.847579 
L 462.17902 46.844188 
L 518.228381 46.84886 
" clip-path="url(#pe4d5c77ca0)" style="fill: none; stroke: #2ca02c; stroke-width: 2; stroke-linecap: square"/>
    <defs>
     <path id="m7e3866cf34" d="M 0 3 
C 0.795609 3 1.55874 2.683901 2.12132 2.12132 
C 2.683901 1.55874 3 0.795609 3 0 
C 3 -0.795609 2.683901 -1.55874 2.12132 -2.12132 
C 1.55874 -2.683901 0.795609 -3 0 -3 
C -0.795609 -3 -1.55874 -2.683901 -2.12132 -2.12132 
C -2.683901 -1.55874 -3 -0.795609 -3 0 
C -3 0.795609 -2.683901 1.55874 -2.12132 2.12132 
C -1.55874 2.683901 -0.795609 3 0 3 
z
" style="stroke: #2ca02c"/>
    </defs>
    <g clip-path="url(#pe4d5c77ca0)">
     <use xlink:href="#m7e3866cf34" x="69.833494" y="46.854989" style="fill: #2ca02c; stroke: #2ca02c"/>
     <use xlink:href="#m7e3866cf34" x="125.882855" y="46.849498" style="fill: #2ca02c; stroke: #2ca02c"/>
     <use xlink:href="#m7e3866cf34" x="237.981577" y="46.832617" style="fill: #2ca02c; stroke: #2ca02c"/>
     <use xlink:href="#m7e3866cf34" x="294.030937" y="46.841864" style="fill: #2ca02c; stroke: #2ca02c"/>
     <use xlink:href="#m7e3866cf34" x="350.080298" y="46.854505" style="fill: #2ca02c; stroke: #2ca02c"/>
     <use xlink:href="#m7e3866cf34" x="406.129659" y="46.847579" style="fill: #2ca02c; stroke: #2ca02c"/>
     <use xlink:href="#m7e3866cf34" x="462.17902" y="46.844188" style="fill: #2ca02c; stroke: #2ca02c"/>
     <use xlink:href="#m7e3866cf34" x="518.228381" y="46.84886" style="fill: #2ca02c; stroke: #2ca02c"/>
    </g>
   </g>
   <g id="line2d_55">
    <path d="M 69.833494 351.243795 
L 125.882855 351.161212 
L 237.981577 350.873877 
L 294.030937 350.964597 
L 350.080298 351.219741 
L 406.129659 350.991437 
L 462.17902 351.135309 
L 518.228381 350.926308 
" clip-path="url(#pe4d5c77ca0)" style="fill: none; stroke: #d62728; stroke-width: 2; stroke-linecap: square"/>
    <defs>
     <path id="mec2aeaf51f" d="M 0 3 
C 0.795609 3 1.55874 2.683901 2.12132 2.12132 
C 2.683901 1.55874 3 0.795609 3 0 
C 3 -0.795609 2.683901 -1.55874 2.12132 -2.12132 
C 1.55874 -2.683901 0.795609 -3 0 -3 
C -0.795609 -3 -1.55874 -2.683901 -2.12132 -2.12132 
C -2.683901 -1.55874 -3 -0.795609 -3 0 
C -3 0.795609 -2.683901 1.55874 -2.12132 2.12132 
C -1.55874 2.683901 -0.795609 3 0 3 
z
" style="stroke: #d62728"/>
    </defs>
    <g clip-path="url(#pe4d5c77ca0)">
     <use xlink:href="#mec2aeaf51f" x="69.833494" y="351.243795" style="fill: #d62728; stroke: #d62728"/>
     <use xlink:href="#mec2aeaf51f" x="125.882855" y="351.161212" style="fill: #d62728; stroke: #d62728"/>
     <use xlink:href="#mec2aeaf51f" x="237.981577" y="350.873877" style="fill: #d62728; stroke: #d62728"/>
     <use xlink:href="#mec2aeaf51f" x="294.030937" y="350.964597" style="fill: #d62728; stroke: #d62728"/>
     <use xlink:href="#mec2aeaf51f" x="350.080298" y="351.219741" style="fill: #d62728; stroke: #d62728"/>
     <use xlink:href="#mec2aeaf51f" x="406.129659" y="350.991437" style="fill: #d62728; stroke: #d62728"/>
     <use xlink:href="#mec2aeaf51f" x="462.17902" y="351.135309" style="fill: #d62728; stroke: #d62728"/>
     <use xlink:href="#mec2aeaf51f" x="518.228381" y="350.926308" style="fill: #d62728; stroke: #d62728"/>
    </g>
   </g>
   <g id="line2d_56">
    <path d="M 69.833494 505.68314 
L 125.882855 506.059164 
L 237.981577 505.255406 
L 294.030937 504.972495 
L 350.080298 505.602397 
L 406.129659 504.65248 
L 462.17902 505.739734 
L 518.228381 506.332202 
" clip-path="url(#pe4d5c77ca0)" style="fill: none; stroke: #9467bd; stroke-width: 2; stroke-linecap: square"/>
    <defs>
     <path id="m23664abbe3" d="M 0 3 
C 0.795609 3 1.55874 2.683901 2.12132 2.12132 
C 2.683901 1.55874 3 0.795609 3 0 
C 3 -0.795609 2.683901 -1.55874 2.12132 -2.12132 
C 1.55874 -2.683901 0.795609 -3 0 -3 
C -0.795609 -3 -1.55874 -2.683901 -2.12132 -2.12132 
C -2.683901 -1.55874 -3 -0.795609 -3 0 
C -3 0.795609 -2.683901 1.55874 -2.12132 2.12132 
C -1.55874 2.683901 -0.795609 3 0 3 
z
" style="stroke: #9467bd"/>
    </defs>
    <g clip-path="url(#pe4d5c77ca0)">
     <use xlink:href="#m23664abbe3" x="69.833494" y="505.68314" style="fill: #9467bd; stroke: #9467bd"/>
     <use xlink:href="#m23664abbe3" x="125.882855" y="506.059164" style="fill: #9467bd; stroke: #9467bd"/>
     <use xlink:href="#m23664abbe3" x="237.981577" y="505.255406" style="fill: #9467bd; stroke: #9467bd"/>
     <use xlink:href="#m23664abbe3" x="294.030937" y="504.972495" style="fill: #9467bd; stroke: #9467bd"/>
     <use xlink:href="#m23664abbe3" x="350.080298" y="505.602397" style="fill: #9467bd; stroke: #9467bd"/>
     <use xlink:href="#m23664abbe3" x="406.129659" y="504.65248" style="fill: #9467bd; stroke: #9467bd"/>
     <use xlink:href="#m23664abbe3" x="462.17902" y="505.739734" style="fill: #9467bd; stroke: #9467bd"/>
     <use xlink:href="#m23664abbe3" x="518.228381" y="506.332202" style="fill: #9467bd; stroke: #9467bd"/>
    </g>
   </g>
   <g id="line2d_57">
    <path d="M 69.833494 46.878744 
L 125.882855 46.868711 
L 237.981577 46.881747 
L 294.030937 46.877248 
L 350.080298 46.883477 
L 406.129659 46.884832 
L 462.17902 46.884005 
L 518.228381 46.881528 
" clip-path="url(#pe4d5c77ca0)" style="fill: none; stroke: #8c564b; stroke-width: 2; stroke-linecap: square"/>
    <defs>
     <path id="m1d17484c8b" d="M 0 3 
C 0.795609 3 1.55874 2.683901 2.12132 2.12132 
C 2.683901 1.55874 3 0.795609 3 0 
C 3 -0.795609 2.683901 -1.55874 2.12132 -2.12132 
C 1.55874 -2.683901 0.795609 -3 0 -3 
C -0.795609 -3 -1.55874 -2.683901 -2.12132 -2.12132 
C -2.683901 -1.55874 -3 -0.795609 -3 0 
C -3 0.795609 -2.683901 1.55874 -2.12132 2.12132 
C -1.55874 2.683901 -0.795609 3 0 3 
z
" style="stroke: #8c564b"/>
    </defs>
    <g clip-path="url(#pe4d5c77ca0)">
     <use xlink:href="#m1d17484c8b" x="69.833494" y="46.878744" style="fill: #8c564b; stroke: #8c564b"/>
     <use xlink:href="#m1d17484c8b" x="125.882855" y="46.868711" style="fill: #8c564b; stroke: #8c564b"/>
     <use xlink:href="#m1d17484c8b" x="237.981577" y="46.881747" style="fill: #8c564b; stroke: #8c564b"/>
     <use xlink:href="#m1d17484c8b" x="294.030937" y="46.877248" style="fill: #8c564b; stroke: #8c564b"/>
     <use xlink:href="#m1d17484c8b" x="350.080298" y="46.883477" style="fill: #8c564b; stroke: #8c564b"/>
     <use xlink:href="#m1d17484c8b" x="406.129659" y="46.884832" style="fill: #8c564b; stroke: #8c564b"/>
     <use xlink:href="#m1d17484c8b" x="462.17902" y="46.884005" style="fill: #8c564b; stroke: #8c564b"/>
     <use xlink:href="#m1d17484c8b" x="518.228381" y="46.881528" style="fill: #8c564b; stroke: #8c564b"/>
    </g>
   </g>
   <g id="line2d_58">
    <path d="M 69.833494 321.188032 
L 125.882855 321.781194 
L 237.981577 321.847877 
L 294.030937 322.143296 
L 350.080298 322.270945 
L 406.129659 321.850339 
L 462.17902 321.083558 
L 518.228381 321.601218 
" clip-path="url(#pe4d5c77ca0)" style="fill: none; stroke: #e377c2; stroke-width: 2; stroke-linecap: square"/>
    <defs>
     <path id="m25a83ecdaa" d="M 0 3 
C 0.795609 3 1.55874 2.683901 2.12132 2.12132 
C 2.683901 1.55874 3 0.795609 3 0 
C 3 -0.795609 2.683901 -1.55874 2.12132 -2.12132 
C 1.55874 -2.683901 0.795609 -3 0 -3 
C -0.795609 -3 -1.55874 -2.683901 -2.12132 -2.12132 
C -2.683901 -1.55874 -3 -0.795609 -3 0 
C -3 0.795609 -2.683901 1.55874 -2.12132 2.12132 
C -1.55874 2.683901 -0.795609 3 0 3 
z
" style="stroke: #e377c2"/>
    </defs>
    <g clip-path="url(#pe4d5c77ca0)">
     <use xlink:href="#m25a83ecdaa" x="69.833494" y="321.188032" style="fill: #e377c2; stroke: #e377c2"/>
     <use xlink:href="#m25a83ecdaa" x="125.882855" y="321.781194" style="fill: #e377c2; stroke: #e377c2"/>
     <use xlink:href="#m25a83ecdaa" x="237.981577" y="321.847877" style="fill: #e377c2; stroke: #e377c2"/>
     <use xlink:href="#m25a83ecdaa" x="294.030937" y="322.143296" style="fill: #e377c2; stroke: #e377c2"/>
     <use xlink:href="#m25a83ecdaa" x="350.080298" y="322.270945" style="fill: #e377c2; stroke: #e377c2"/>
     <use xlink:href="#m25a83ecdaa" x="406.129659" y="321.850339" style="fill: #e377c2; stroke: #e377c2"/>
     <use xlink:href="#m25a83ecdaa" x="462.17902" y="321.083558" style="fill: #e377c2; stroke: #e377c2"/>
     <use xlink:href="#m25a83ecdaa" x="518.228381" y="321.601218" style="fill: #e377c2; stroke: #e377c2"/>
    </g>
   </g>
   <g id="line2d_59">
    <path d="M 69.833494 46.879735 
L 125.882855 46.865409 
L 237.981577 46.862453 
L 294.030937 46.861322 
L 350.080298 46.845508 
L 406.129659 46.856362 
L 462.17902 46.864053 
L 518.228381 46.846091 
" clip-path="url(#pe4d5c77ca0)" style="fill: none; stroke: #7f7f7f; stroke-width: 2; stroke-linecap: square"/>
    <defs>
     <path id="m2bc4935a31" d="M 0 3 
C 0.795609 3 1.55874 2.683901 2.12132 2.12132 
C 2.683901 1.55874 3 0.795609 3 0 
C 3 -0.795609 2.683901 -1.55874 2.12132 -2.12132 
C 1.55874 -2.683901 0.795609 -3 0 -3 
C -0.795609 -3 -1.55874 -2.683901 -2.12132 -2.12132 
C -2.683901 -1.55874 -3 -0.795609 -3 0 
C -3 0.795609 -2.683901 1.55874 -2.12132 2.12132 
C -1.55874 2.683901 -0.795609 3 0 3 
z
" style="stroke: #7f7f7f"/>
    </defs>
    <g clip-path="url(#pe4d5c77ca0)">
     <use xlink:href="#m2bc4935a31" x="69.833494" y="46.879735" style="fill: #7f7f7f; stroke: #7f7f7f"/>
     <use xlink:href="#m2bc4935a31" x="125.882855" y="46.865409" style="fill: #7f7f7f; stroke: #7f7f7f"/>
     <use xlink:href="#m2bc4935a31" x="237.981577" y="46.862453" style="fill: #7f7f7f; stroke: #7f7f7f"/>
     <use xlink:href="#m2bc4935a31" x="294.030937" y="46.861322" style="fill: #7f7f7f; stroke: #7f7f7f"/>
     <use xlink:href="#m2bc4935a31" x="350.080298" y="46.845508" style="fill: #7f7f7f; stroke: #7f7f7f"/>
     <use xlink:href="#m2bc4935a31" x="406.129659" y="46.856362" style="fill: #7f7f7f; stroke: #7f7f7f"/>
     <use xlink:href="#m2bc4935a31" x="462.17902" y="46.864053" style="fill: #7f7f7f; stroke: #7f7f7f"/>
     <use xlink:href="#m2bc4935a31" x="518.228381" y="46.846091" style="fill: #7f7f7f; stroke: #7f7f7f"/>
    </g>
   </g>
   <g id="line2d_60">
    <path d="M 69.833494 351.519907 
L 125.882855 351.435799 
L 237.981577 351.266846 
L 294.030937 350.702072 
L 350.080298 350.947548 
L 406.129659 351.937698 
L 462.17902 351.43485 
L 518.228381 350.988648 
" clip-path="url(#pe4d5c77ca0)" style="fill: none; stroke: #bcbd22; stroke-width: 2; stroke-linecap: square"/>
    <defs>
     <path id="m43390458ce" d="M 0 3 
C 0.795609 3 1.55874 2.683901 2.12132 2.12132 
C 2.683901 1.55874 3 0.795609 3 0 
C 3 -0.795609 2.683901 -1.55874 2.12132 -2.12132 
C 1.55874 -2.683901 0.795609 -3 0 -3 
C -0.795609 -3 -1.55874 -2.683901 -2.12132 -2.12132 
C -2.683901 -1.55874 -3 -0.795609 -3 0 
C -3 0.795609 -2.683901 1.55874 -2.12132 2.12132 
C -1.55874 2.683901 -0.795609 3 0 3 
z
" style="stroke: #bcbd22"/>
    </defs>
    <g clip-path="url(#pe4d5c77ca0)">
     <use xlink:href="#m43390458ce" x="69.833494" y="351.519907" style="fill: #bcbd22; stroke: #bcbd22"/>
     <use xlink:href="#m43390458ce" x="125.882855" y="351.435799" style="fill: #bcbd22; stroke: #bcbd22"/>
     <use xlink:href="#m43390458ce" x="237.981577" y="351.266846" style="fill: #bcbd22; stroke: #bcbd22"/>
     <use xlink:href="#m43390458ce" x="294.030937" y="350.702072" style="fill: #bcbd22; stroke: #bcbd22"/>
     <use xlink:href="#m43390458ce" x="350.080298" y="350.947548" style="fill: #bcbd22; stroke: #bcbd22"/>
     <use xlink:href="#m43390458ce" x="406.129659" y="351.937698" style="fill: #bcbd22; stroke: #bcbd22"/>
     <use xlink:href="#m43390458ce" x="462.17902" y="351.43485" style="fill: #bcbd22; stroke: #bcbd22"/>
     <use xlink:href="#m43390458ce" x="518.228381" y="350.988648" style="fill: #bcbd22; stroke: #bcbd22"/>
    </g>
   </g>
   <g id="line2d_61">
    <path d="M 69.833494 453.898051 
L 125.882855 454.541527 
L 237.981577 454.112975 
L 294.030937 454.232502 
L 350.080298 454.497844 
L 406.129659 454.508995 
L 462.17902 454.188697 
L 518.228381 454.301521 
" clip-path="url(#pe4d5c77ca0)" style="fill: none; stroke: #17becf; stroke-width: 2; stroke-linecap: square"/>
    <defs>
     <path id="m62e7d2cdcf" d="M 0 3 
C 0.795609 3 1.55874 2.683901 2.12132 2.12132 
C 2.683901 1.55874 3 0.795609 3 0 
C 3 -0.795609 2.683901 -1.55874 2.12132 -2.12132 
C 1.55874 -2.683901 0.795609 -3 0 -3 
C -0.795609 -3 -1.55874 -2.683901 -2.12132 -2.12132 
C -2.683901 -1.55874 -3 -0.795609 -3 0 
C -3 0.795609 -2.683901 1.55874 -2.12132 2.12132 
C -1.55874 2.683901 -0.795609 3 0 3 
z
" style="stroke: #17becf"/>
    </defs>
    <g clip-path="url(#pe4d5c77ca0)">
     <use xlink:href="#m62e7d2cdcf" x="69.833494" y="453.898051" style="fill: #17becf; stroke: #17becf"/>
     <use xlink:href="#m62e7d2cdcf" x="125.882855" y="454.541527" style="fill: #17becf; stroke: #17becf"/>
     <use xlink:href="#m62e7d2cdcf" x="237.981577" y="454.112975" style="fill: #17becf; stroke: #17becf"/>
     <use xlink:href="#m62e7d2cdcf" x="294.030937" y="454.232502" style="fill: #17becf; stroke: #17becf"/>
     <use xlink:href="#m62e7d2cdcf" x="350.080298" y="454.497844" style="fill: #17becf; stroke: #17becf"/>
     <use xlink:href="#m62e7d2cdcf" x="406.129659" y="454.508995" style="fill: #17becf; stroke: #17becf"/>
     <use xlink:href="#m62e7d2cdcf" x="462.17902" y="454.188697" style="fill: #17becf; stroke: #17becf"/>
     <use xlink:href="#m62e7d2cdcf" x="518.228381" y="454.301521" style="fill: #17becf; stroke: #17becf"/>
    </g>
   </g>
   <g id="patch_3">
    <path d="M 47.41375 529.308125 
L 47.41375 23.837812 
" style="fill: none; stroke: #000000; stroke-width: 0.8; stroke-linejoin: miter; stroke-linecap: square"/>
   </g>
   <g id="patch_4">
    <path d="M 540.648125 529.308125 
L 540.648125 23.837812 
" style="fill: none; stroke: #000000; stroke-width: 0.8; stroke-linejoin: miter; stroke-linecap: square"/>
   </g>
   <g id="patch_5">
    <path d="M 47.41375 529.308125 
L 540.648125 529.308125 
" style="fill: none; stroke: #000000; stroke-width: 0.8; stroke-linejoin: miter; stroke-linecap: square"/>
   </g>
   <g id="patch_6">
    <path d="M 47.41375 23.837812 
L 540.648125 23.837812 
" style="fill: none; stroke: #000000; stroke-width: 0.8; stroke-linejoin: miter; stroke-linecap: square"/>
   </g>
   <g id="text_16">
    <text style="font: 700 14px 'DejaVu Sans', 'Bitstream Vera Sans', 'Computer Modern Sans Serif', 'Lucida Grande', 'Verdana', 'Geneva', 'Lucid', 'Arial', 'Helvetica', 'Avant Garde', sans-serif; text-anchor: middle" x="294.030937" y="17.837813" transform="rotate(-0 294.030937 17.837813)">Coroutine Task Chaining - Performance Trend</text>
   </g>
   <g id="legend_1">
    <g id="patch_7">
     <path d="M 572.309844 181.400313 
L 838.781719 181.400313 
Q 840.781719 181.400313 840.781719 179.400313 
L 840.781719 30.837813 
Q 840.781719 28.837813 838.781719 28.837813 
L 572.309844 28.837813 
Q 570.309844 28.837813 570.309844 30.837813 
L 570.309844 179.400313 
Q 570.309844 181.400313 572.309844 181.400313 
z
" style="fill: #ffffff; opacity: 0.8; stroke: #cccccc; stroke-linejoin: miter"/>
    </g>
    <g id="line2d_62">
     <path d="M 574.309844 36.93625 
L 584.309844 36.93625 
L 594.309844 36.93625 
" style="fill: none; stroke: #1f77b4; stroke-width: 2; stroke-linecap: square"/>
     <g>
      <use xlink:href="#m87cf2681c0" x="584.309844" y="36.93625" style="fill: #1f77b4; stroke: #1f77b4"/>
     </g>
    </g>
    <g id="text_17">
     <text style="font: 10px 'DejaVu Sans', 'Bitstream Vera Sans', 'Computer Modern Sans Serif', 'Lucida Grande', 'Verdana', 'Geneva', 'Lucid', 'Arial', 'Helvetica', 'Avant Garde', sans-serif; text-anchor: start" x="602.309844" y="40.43625" transform="rotate(-0 602.309844 40.43625)">gcc-14.2 - TaskChaining_Coroutines_V1</text>
    </g>
    <g id="line2d_63">
     <path d="M 574.309844 51.8925 
L 584.309844 51.8925 
L 594.309844 51.8925 
" style="fill: none; stroke: #ff7f0e; stroke-width: 2; stroke-linecap: square"/>
     <g>
      <use xlink:href="#m2340feb561" x="584.309844" y="51.8925" style="fill: #ff7f0e; stroke: #ff7f0e"/>
     </g>
    </g>
    <g id="text_18">
     <text style="font: 10px 'DejaVu Sans', 'Bitstream Vera Sans', 'Computer Modern Sans Serif', 'Lucida Grande', 'Verdana', 'Geneva', 'Lucid', 'Arial', 'Helvetica', 'Avant Garde', sans-serif; text-anchor: start" x="602.309844" y="55.3925" transform="rotate(-0 602.309844 55.3925)">gcc-14.2 - TaskChaining_NestedSubmission_V1</text>
    </g>
    <g id="line2d_64">
     <path d="M 574.309844 66.84875 
L 584.309844 66.84875 
L 594.309844 66.84875 
" style="fill: none; stroke: #2ca02c; stroke-width: 2; stroke-linecap: square"/>
     <g>
      <use xlink:href="#m7e3866cf34" x="584.309844" y="66.84875" style="fill: #2ca02c; stroke: #2ca02c"/>
     </g>
    </g>
    <g id="text_19">
     <text style="font: 10px 'DejaVu Sans', 'Bitstream Vera Sans', 'Computer Modern Sans Serif', 'Lucida Grande', 'Verdana', 'Geneva', 'Lucid', 'Arial', 'Helvetica', 'Avant Garde', sans-serif; text-anchor: start" x="602.309844" y="70.34875" transform="rotate(-0 602.309844 70.34875)">gcc-14.2 - TaskChaining_Coroutines_V2</text>
    </g>
    <g id="line2d_65">
     <path d="M 574.309844 81.805 
L 584.309844 81.805 
L 594.309844 81.805 
" style="fill: none; stroke: #d62728; stroke-width: 2; stroke-linecap: square"/>
     <g>
      <use xlink:href="#mec2aeaf51f" x="584.309844" y="81.805" style="fill: #d62728; stroke: #d62728"/>
     </g>
    </g>
    <g id="text_20">
     <text style="font: 10px 'DejaVu Sans', 'Bitstream Vera Sans', 'Computer Modern Sans Serif', 'Lucida Grande', 'Verdana', 'Geneva', 'Lucid', 'Arial', 'Helvetica', 'Avant Garde', sans-serif; text-anchor: start" x="602.309844" y="85.305" transform="rotate(-0 602.309844 85.305)">gcc-14.2 - TaskChaining_NestedSubmission_V2</text>
    </g>
    <g id="line2d_66">
     <path d="M 574.309844 96.76125 
L 584.309844 96.76125 
L 594.309844 96.76125 
" style="fill: none; stroke: #9467bd; stroke-width: 2; stroke-linecap: square"/>
     <g>
      <use xlink:href="#m23664abbe3" x="584.309844" y="96.76125" style="fill: #9467bd; stroke: #9467bd"/>
     </g>
    </g>
    <g id="text_21">
     <text style="font: 10px 'DejaVu Sans', 'Bitstream Vera Sans', 'Computer Modern Sans Serif', 'Lucida Grande', 'Verdana', 'Geneva', 'Lucid', 'Arial', 'Helvetica', 'Avant Garde', sans-serif; text-anchor: start" x="602.309844" y="100.26125" transform="rotate(-0 602.309844 100.26125)">gcc-14.2 - TaskChaining_TBB_Equivalent</text>
    </g>
    <g id="line2d_67">
     <path d="M 574.309844 111.7175 
L 584.309844 111.7175 
L 594.309844 111.7175 
" style="fill: none; stroke: #8c564b; stroke-width: 2; stroke-linecap: square"/>
     <g>
      <use xlink:href="#m1d17484c8b" x="584.309844" y="111.7175" style="fill: #8c564b; stroke: #8c564b"/>
     </g>
    </g>
    <g id="text_22">
     <text style="font: 10px 'DejaVu Sans', 'Bitstream Vera Sans', 'Computer Modern Sans Serif', 'Lucida Grande', 'Verdana', 'Geneva', 'Lucid', 'Arial', 'Helvetica', 'Avant Garde', sans-serif; text-anchor: start" x="602.309844" y="115.2175" transform="rotate(-0 602.309844 115.2175)">gcc-4.2 - TaskChaining_Coroutines_V1</text>
    </g>
    <g id="line2d_68">
     <path d="M 574.309844 126.67375 
L 584.309844 126.67375 
L 594.309844 126.67375 
" style="fill: none; stroke: #e377c2; stroke-width: 2; stroke-linecap: square"/>
     <g>
      <use xlink:href="#m25a83ecdaa" x="584.309844" y="126.67375" style="fill: #e377c2; stroke: #e377c2"/>
     </g>
    </g>
    <g id="text_23">
     <text style="font: 10px 'DejaVu Sans', 'Bitstream Vera Sans', 'Computer Modern Sans Serif', 'Lucida Grande', 'Verdana', 'Geneva', 'Lucid', 'Arial', 'Helvetica', 'Avant Garde', sans-serif; text-anchor: start" x="602.309844" y="130.17375" transform="rotate(-0 602.309844 130.17375)">gcc-4.2 - TaskChaining_NestedSubmission_V1</text>
    </g>
    <g id="line2d_69">
     <path d="M 574.309844 141.63 
L 584.309844 141.63 
L 594.309844 141.63 
" style="fill: none; stroke: #7f7f7f; stroke-width: 2; stroke-linecap: square"/>
     <g>
      <use xlink:href="#m2bc4935a31" x="584.309844" y="141.63" style="fill: #7f7f7f; stroke: #7f7f7f"/>
     </g>
    </g>
    <g id="text_24">
     <text style="font: 10px 'DejaVu Sans', 'Bitstream Vera Sans', 'Computer Modern Sans Serif', 'Lucida Grande', 'Verdana', 'Geneva', 'Lucid', 'Arial', 'Helvetica', 'Avant Garde', sans-serif; text-anchor: start" x="602.309844" y="145.13" transform="rotate(-0 602.309844 145.13)">gcc-4.2 - TaskChaining_Coroutines_V2</text>
    </g>
    <g id="line2d_70">
     <path d="M 574.309844 156.58625 
L 584.309844 156.58625 
L 594.309844 156.58625 
" style="fill: none; stroke: #bcbd22; stroke-width: 2; stroke-linecap: square"/>
     <g>
      <use xlink:href="#m43390458ce" x="584.309844" y="156.58625" style="fill: #bcbd22; stroke: #bcbd22"/>
     </g>
    </g>
    <g id="text_25">
     <text style="font: 10px 'DejaVu Sans', 'Bitstream Vera Sans', 'Computer Modern Sans Serif', 'Lucida Grande', 'Verdana', 'Geneva', 'Lucid', 'Arial', 'Helvetica', 'Avant Garde', sans-serif; text-anchor: start" x="602.309844" y="160.08625" transform="rotate(-0 602.309844 160.08625)">gcc-4.2 - TaskChaining_NestedSubmission_V2</text>
    </g>
    <g id="line2d_71">
     <path d="M 574.309844 171.5425 
L 584.309844 171.5425 
L 594.309844 171.5425 
" style="fill: none; stroke: #17becf; stroke-width: 2; stroke-linecap: square"/>
     <g>
      <use xlink:href="#m62e7d2cdcf" x="584.309844" y="171.5425" style="fill: #17becf; stroke: #17becf"/>
     </g>
    </g>
    <g id="text_26">
     <text style="font: 10px 'DejaVu Sans', 'Bitstream Vera Sans', 'Computer Modern Sans Serif', 'Lucida Grande', 'Verdana', 'Geneva', 'Lucid', 'Arial', 'Helvetica', 'Avant Garde', sans-serif; text-anchor: start" x="602.309844" y="175.0425" transform="rotate(-0 602.309844 175.0425)">gcc-4.2 - TaskChaining_TBB_Equivalent</text>
    </g>
   </g>
  </g>
 </g>
 <defs>
  <clipPath id="pe4d5c77ca0">
   <rect x="47.41375" y="23.837813" width="493.234375" height="505.470313"/>
  </clipPath>
 </defs>
</svg>
