<?xml version="1.0" encoding="utf-8" standalone="no"?>
<!DOCTYPE svg PUBLIC "-//W3C//DTD SVG 1.1//EN"
  "http://www.w3.org/Graphics/SVG/1.1/DTD/svg11.dtd">
<svg xmlns:xlink="http://www.w3.org/1999/xlink" width="855.204687pt" height="568.8pt" viewBox="0 0 855.204687 568.8" xmlns="http://www.w3.org/2000/svg" version="1.1">
 <metadata>
  <rdf:RDF xmlns:dc="http://purl.org/dc/elements/1.1/" xmlns:cc="http://creativecommons.org/ns#" xmlns:rdf="http://www.w3.org/1999/02/22-rdf-syntax-ns#">
   <cc:Work>
    <dc:type rdf:resource="http://purl.org/dc/dcmitype/StillImage"/>
    <dc:date>2025-08-17T02:13:39.245680</dc:date>
    <dc:format>image/svg+xml</dc:format>
    <dc:creator>
     <cc:Agent>
      <dc:title>Matplotlib v3.9.4, https://matplotlib.org/</dc:title>
     </cc:Agent>
    </dc:creator>
   </cc:Work>
  </rdf:RDF>
 </metadata>
 <defs>
  <style type="text/css">*{stroke-linejoin: round; stroke-linecap: butt}</style>
 </defs>
 <g id="figure_1">
  <g id="patch_1">
   <path d="M 0 568.8 
L 855.204687 568.8 
L 855.204687 0 
L 0 0 
z
" style="fill: #ffffff"/>
  </g>
  <g id="axes_1">
   <g id="patch_2">
    <path d="M 64.41375 529.308125 
L 702.1075 529.308125 
L 702.1075 23.837812 
L 64.41375 23.837812 
z
" style="fill: #ffffff"/>
   </g>
   <g id="matplotlib.axis_1">
    <g id="xtick_1">
     <g id="line2d_1">
      <path d="M 67.048848 529.308125 
L 67.048848 23.837812 
" clip-path="url(#padaa54c47a)" style="fill: none; stroke: #b0b0b0; stroke-opacity: 0.3; stroke-width: 0.8; stroke-linecap: square"/>
     </g>
     <g id="line2d_2">
      <defs>
       <path id="m08727981cf" d="M 0 0 
L 0 3.5 
" style="stroke: #000000; stroke-width: 0.8"/>
      </defs>
      <g>
       <use xlink:href="#m08727981cf" x="67.048848" y="529.308125" style="stroke: #000000; stroke-width: 0.8"/>
      </g>
     </g>
     <g id="text_1">
      <text style="font: 10px 'DejaVu Sans', 'Bitstream Vera Sans', 'Computer Modern Sans Serif', 'Lucida Grande', 'Verdana', 'Geneva', 'Lucid', 'Arial', 'Helvetica', 'Avant Garde', sans-serif; text-anchor: middle" x="67.048848" y="543.906563" transform="rotate(-0 67.048848 543.906563)">70</text>
     </g>
    </g>
    <g id="xtick_2">
     <g id="line2d_3">
      <path d="M 198.803755 529.308125 
L 198.803755 23.837812 
" clip-path="url(#padaa54c47a)" style="fill: none; stroke: #b0b0b0; stroke-opacity: 0.3; stroke-width: 0.8; stroke-linecap: square"/>
     </g>
     <g id="line2d_4">
      <g>
       <use xlink:href="#m08727981cf" x="198.803755" y="529.308125" style="stroke: #000000; stroke-width: 0.8"/>
      </g>
     </g>
     <g id="text_2">
      <text style="font: 10px 'DejaVu Sans', 'Bitstream Vera Sans', 'Computer Modern Sans Serif', 'Lucida Grande', 'Verdana', 'Geneva', 'Lucid', 'Arial', 'Helvetica', 'Avant Garde', sans-serif; text-anchor: middle" x="198.803755" y="543.906563" transform="rotate(-0 198.803755 543.906563)">75</text>
     </g>
    </g>
    <g id="xtick_3">
     <g id="line2d_5">
      <path d="M 330.558662 529.308125 
L 330.558662 23.837812 
" clip-path="url(#padaa54c47a)" style="fill: none; stroke: #b0b0b0; stroke-opacity: 0.3; stroke-width: 0.8; stroke-linecap: square"/>
     </g>
     <g id="line2d_6">
      <g>
       <use xlink:href="#m08727981cf" x="330.558662" y="529.308125" style="stroke: #000000; stroke-width: 0.8"/>
      </g>
     </g>
     <g id="text_3">
      <text style="font: 10px 'DejaVu Sans', 'Bitstream Vera Sans', 'Computer Modern Sans Serif', 'Lucida Grande', 'Verdana', 'Geneva', 'Lucid', 'Arial', 'Helvetica', 'Avant Garde', sans-serif; text-anchor: middle" x="330.558662" y="543.906563" transform="rotate(-0 330.558662 543.906563)">80</text>
     </g>
    </g>
    <g id="xtick_4">
     <g id="line2d_7">
      <path d="M 462.313569 529.308125 
L 462.313569 23.837812 
" clip-path="url(#padaa54c47a)" style="fill: none; stroke: #b0b0b0; stroke-opacity: 0.3; stroke-width: 0.8; stroke-linecap: square"/>
     </g>
     <g id="line2d_8">
      <g>
       <use xlink:href="#m08727981cf" x="462.313569" y="529.308125" style="stroke: #000000; stroke-width: 0.8"/>
      </g>
     </g>
     <g id="text_4">
      <text style="font: 10px 'DejaVu Sans', 'Bitstream Vera Sans', 'Computer Modern Sans Serif', 'Lucida Grande', 'Verdana', 'Geneva', 'Lucid', 'Arial', 'Helvetica', 'Avant Garde', sans-serif; text-anchor: middle" x="462.313569" y="543.906563" transform="rotate(-0 462.313569 543.906563)">85</text>
     </g>
    </g>
    <g id="xtick_5">
     <g id="line2d_9">
      <path d="M 594.068476 529.308125 
L 594.068476 23.837812 
" clip-path="url(#padaa54c47a)" style="fill: none; stroke: #b0b0b0; stroke-opacity: 0.3; stroke-width: 0.8; stroke-linecap: square"/>
     </g>
     <g id="line2d_10">
      <g>
       <use xlink:href="#m08727981cf" x="594.068476" y="529.308125" style="stroke: #000000; stroke-width: 0.8"/>
      </g>
     </g>
     <g id="text_5">
      <text style="font: 10px 'DejaVu Sans', 'Bitstream Vera Sans', 'Computer Modern Sans Serif', 'Lucida Grande', 'Verdana', 'Geneva', 'Lucid', 'Arial', 'Helvetica', 'Avant Garde', sans-serif; text-anchor: middle" x="594.068476" y="543.906563" transform="rotate(-0 594.068476 543.906563)">90</text>
     </g>
    </g>
    <g id="text_6">
     <text style="font: 12px 'DejaVu Sans', 'Bitstream Vera Sans', 'Computer Modern Sans Serif', 'Lucida Grande', 'Verdana', 'Geneva', 'Lucid', 'Arial', 'Helvetica', 'Avant Garde', sans-serif; text-anchor: middle" x="383.260625" y="559.104375" transform="rotate(-0 383.260625 559.104375)">Build Number</text>
    </g>
   </g>
   <g id="matplotlib.axis_2">
    <g id="ytick_1">
     <g id="line2d_11">
      <defs>
       <path id="m8c05286890" d="M 0 0 
L -2 0 
" style="stroke: #000000; stroke-width: 0.6"/>
      </defs>
      <g>
       <use xlink:href="#m8c05286890" x="64.41375" y="417.517106" style="stroke: #000000; stroke-width: 0.6"/>
      </g>
     </g>
     <g id="text_7">
      <!-- $\mathdefault{3\times10^{5}}$ -->
      <g transform="translate(22.81375 421.316325)">
       <text>
        <tspan style="font: 10px 'DejaVu Sans'" x="0 8.310547 18.637695 25" y="-0.06406250000000036">3×10</tspan>
        <tspan style="font: 7px 'DejaVu Sans'" x="31.458008" y="-3.8921875000000004">5</tspan>
       </text>
      </g>
     </g>
    </g>
    <g id="ytick_2">
     <g id="line2d_12">
      <g>
       <use xlink:href="#m8c05286890" x="64.41375" y="310.596364" style="stroke: #000000; stroke-width: 0.6"/>
      </g>
     </g>
     <g id="text_8">
      <!-- $\mathdefault{4\times10^{5}}$ -->
      <g transform="translate(22.81375 314.395583)">
       <text>
        <tspan style="font: 10px 'DejaVu Sans'" x="0 8.310547 18.637695 25" y="-0.06406250000000036">4×10</tspan>
        <tspan style="font: 7px 'DejaVu Sans'" x="31.458008" y="-3.8921875000000004">5</tspan>
       </text>
      </g>
     </g>
    </g>
    <g id="ytick_3">
     <g id="line2d_13">
      <g>
       <use xlink:href="#m8c05286890" x="64.41375" y="227.662194" style="stroke: #000000; stroke-width: 0.6"/>
      </g>
     </g>
    </g>
    <g id="ytick_4">
     <g id="line2d_14">
      <g>
       <use xlink:href="#m8c05286890" x="64.41375" y="159.900043" style="stroke: #000000; stroke-width: 0.6"/>
      </g>
     </g>
     <g id="text_9">
      <!-- $\mathdefault{6\times10^{5}}$ -->
      <g transform="translate(22.81375 163.699262)">
       <text>
        <tspan style="font: 10px 'DejaVu Sans'" x="0 8.310547 18.637695 25" y="-0.06406250000000036">6×10</tspan>
        <tspan style="font: 7px 'DejaVu Sans'" x="31.458008" y="-3.8921875000000004">5</tspan>
       </text>
      </g>
     </g>
    </g>
    <g id="ytick_5">
     <g id="line2d_15">
      <g>
       <use xlink:href="#m8c05286890" x="64.41375" y="102.607961" style="stroke: #000000; stroke-width: 0.6"/>
      </g>
     </g>
    </g>
    <g id="ytick_6">
     <g id="line2d_16">
      <g>
       <use xlink:href="#m8c05286890" x="64.41375" y="52.979302" style="stroke: #000000; stroke-width: 0.6"/>
      </g>
     </g>
    </g>
    <g id="text_10">
     <text style="font: 12px 'DejaVu Sans', 'Bitstream Vera Sans', 'Computer Modern Sans Serif', 'Lucida Grande', 'Verdana', 'Geneva', 'Lucid', 'Arial', 'Helvetica', 'Avant Garde', sans-serif; text-anchor: middle" x="16.318125" y="276.572969" transform="rotate(-90 16.318125 276.572969)">Median Elapsed Time (nanoseconds)</text>
    </g>
   </g>
   <g id="line2d_17">
    <path d="M 93.39983 483.065549 
L 119.750811 268.959694 
L 146.101792 288.033313 
L 172.452774 403.521401 
L 198.803755 271.002301 
L 225.154737 480.560088 
L 251.505718 402.236399 
L 277.856699 205.322014 
L 304.207681 263.00251 
L 330.558662 483.63391 
L 356.909644 433.762301 
L 383.260625 268.082696 
L 409.611606 458.674828 
L 435.962588 376.149536 
L 462.313569 344.648346 
L 488.664551 486.539097 
L 541.366513 428.054547 
L 567.717495 158.211024 
L 594.068476 401.175922 
L 620.419458 144.989231 
L 646.770439 349.158296 
L 673.12142 228.101536 
" clip-path="url(#padaa54c47a)" style="fill: none; stroke: #1f77b4; stroke-width: 2; stroke-linecap: square"/>
    <defs>
     <path id="maf92de897f" d="M 0 3 
C 0.795609 3 1.55874 2.683901 2.12132 2.12132 
C 2.683901 1.55874 3 0.795609 3 0 
C 3 -0.795609 2.683901 -1.55874 2.12132 -2.12132 
C 1.55874 -2.683901 0.795609 -3 0 -3 
C -0.795609 -3 -1.55874 -2.683901 -2.12132 -2.12132 
C -2.683901 -1.55874 -3 -0.795609 -3 0 
C -3 0.795609 -2.683901 1.55874 -2.12132 2.12132 
C -1.55874 2.683901 -0.795609 3 0 3 
z
" style="stroke: #1f77b4"/>
    </defs>
    <g clip-path="url(#padaa54c47a)">
     <use xlink:href="#maf92de897f" x="93.39983" y="483.065549" style="fill: #1f77b4; stroke: #1f77b4"/>
     <use xlink:href="#maf92de897f" x="119.750811" y="268.959694" style="fill: #1f77b4; stroke: #1f77b4"/>
     <use xlink:href="#maf92de897f" x="146.101792" y="288.033313" style="fill: #1f77b4; stroke: #1f77b4"/>
     <use xlink:href="#maf92de897f" x="172.452774" y="403.521401" style="fill: #1f77b4; stroke: #1f77b4"/>
     <use xlink:href="#maf92de897f" x="198.803755" y="271.002301" style="fill: #1f77b4; stroke: #1f77b4"/>
     <use xlink:href="#maf92de897f" x="225.154737" y="480.560088" style="fill: #1f77b4; stroke: #1f77b4"/>
     <use xlink:href="#maf92de897f" x="251.505718" y="402.236399" style="fill: #1f77b4; stroke: #1f77b4"/>
     <use xlink:href="#maf92de897f" x="277.856699" y="205.322014" style="fill: #1f77b4; stroke: #1f77b4"/>
     <use xlink:href="#maf92de897f" x="304.207681" y="263.00251" style="fill: #1f77b4; stroke: #1f77b4"/>
     <use xlink:href="#maf92de897f" x="330.558662" y="483.63391" style="fill: #1f77b4; stroke: #1f77b4"/>
     <use xlink:href="#maf92de897f" x="356.909644" y="433.762301" style="fill: #1f77b4; stroke: #1f77b4"/>
     <use xlink:href="#maf92de897f" x="383.260625" y="268.082696" style="fill: #1f77b4; stroke: #1f77b4"/>
     <use xlink:href="#maf92de897f" x="409.611606" y="458.674828" style="fill: #1f77b4; stroke: #1f77b4"/>
     <use xlink:href="#maf92de897f" x="435.962588" y="376.149536" style="fill: #1f77b4; stroke: #1f77b4"/>
     <use xlink:href="#maf92de897f" x="462.313569" y="344.648346" style="fill: #1f77b4; stroke: #1f77b4"/>
     <use xlink:href="#maf92de897f" x="488.664551" y="486.539097" style="fill: #1f77b4; stroke: #1f77b4"/>
     <use xlink:href="#maf92de897f" x="541.366513" y="428.054547" style="fill: #1f77b4; stroke: #1f77b4"/>
     <use xlink:href="#maf92de897f" x="567.717495" y="158.211024" style="fill: #1f77b4; stroke: #1f77b4"/>
     <use xlink:href="#maf92de897f" x="594.068476" y="401.175922" style="fill: #1f77b4; stroke: #1f77b4"/>
     <use xlink:href="#maf92de897f" x="620.419458" y="144.989231" style="fill: #1f77b4; stroke: #1f77b4"/>
     <use xlink:href="#maf92de897f" x="646.770439" y="349.158296" style="fill: #1f77b4; stroke: #1f77b4"/>
     <use xlink:href="#maf92de897f" x="673.12142" y="228.101536" style="fill: #1f77b4; stroke: #1f77b4"/>
    </g>
   </g>
   <g id="line2d_18">
    <path d="M 93.39983 484.672455 
L 119.750811 269.775573 
L 146.101792 276.331207 
L 172.452774 452.448146 
L 198.803755 328.670915 
L 225.154737 487.574584 
L 251.505718 484.70511 
L 277.856699 444.072349 
L 304.207681 366.748232 
L 330.558662 345.826664 
L 356.909644 320.759481 
L 383.260625 392.006131 
L 409.611606 481.388315 
L 435.962588 263.938799 
L 462.313569 309.303741 
L 488.664551 485.409362 
L 541.366513 486.58206 
L 567.717495 264.69666 
L 594.068476 494.502361 
L 620.419458 264.359952 
L 646.770439 337.346163 
L 673.12142 294.451892 
" clip-path="url(#padaa54c47a)" style="fill: none; stroke: #ff7f0e; stroke-width: 2; stroke-linecap: square"/>
    <defs>
     <path id="m7c9f16c14e" d="M 0 3 
C 0.795609 3 1.55874 2.683901 2.12132 2.12132 
C 2.683901 1.55874 3 0.795609 3 0 
C 3 -0.795609 2.683901 -1.55874 2.12132 -2.12132 
C 1.55874 -2.683901 0.795609 -3 0 -3 
C -0.795609 -3 -1.55874 -2.683901 -2.12132 -2.12132 
C -2.683901 -1.55874 -3 -0.795609 -3 0 
C -3 0.795609 -2.683901 1.55874 -2.12132 2.12132 
C -1.55874 2.683901 -0.795609 3 0 3 
z
" style="stroke: #ff7f0e"/>
    </defs>
    <g clip-path="url(#padaa54c47a)">
     <use xlink:href="#m7c9f16c14e" x="93.39983" y="484.672455" style="fill: #ff7f0e; stroke: #ff7f0e"/>
     <use xlink:href="#m7c9f16c14e" x="119.750811" y="269.775573" style="fill: #ff7f0e; stroke: #ff7f0e"/>
     <use xlink:href="#m7c9f16c14e" x="146.101792" y="276.331207" style="fill: #ff7f0e; stroke: #ff7f0e"/>
     <use xlink:href="#m7c9f16c14e" x="172.452774" y="452.448146" style="fill: #ff7f0e; stroke: #ff7f0e"/>
     <use xlink:href="#m7c9f16c14e" x="198.803755" y="328.670915" style="fill: #ff7f0e; stroke: #ff7f0e"/>
     <use xlink:href="#m7c9f16c14e" x="225.154737" y="487.574584" style="fill: #ff7f0e; stroke: #ff7f0e"/>
     <use xlink:href="#m7c9f16c14e" x="251.505718" y="484.70511" style="fill: #ff7f0e; stroke: #ff7f0e"/>
     <use xlink:href="#m7c9f16c14e" x="277.856699" y="444.072349" style="fill: #ff7f0e; stroke: #ff7f0e"/>
     <use xlink:href="#m7c9f16c14e" x="304.207681" y="366.748232" style="fill: #ff7f0e; stroke: #ff7f0e"/>
     <use xlink:href="#m7c9f16c14e" x="330.558662" y="345.826664" style="fill: #ff7f0e; stroke: #ff7f0e"/>
     <use xlink:href="#m7c9f16c14e" x="356.909644" y="320.759481" style="fill: #ff7f0e; stroke: #ff7f0e"/>
     <use xlink:href="#m7c9f16c14e" x="383.260625" y="392.006131" style="fill: #ff7f0e; stroke: #ff7f0e"/>
     <use xlink:href="#m7c9f16c14e" x="409.611606" y="481.388315" style="fill: #ff7f0e; stroke: #ff7f0e"/>
     <use xlink:href="#m7c9f16c14e" x="435.962588" y="263.938799" style="fill: #ff7f0e; stroke: #ff7f0e"/>
     <use xlink:href="#m7c9f16c14e" x="462.313569" y="309.303741" style="fill: #ff7f0e; stroke: #ff7f0e"/>
     <use xlink:href="#m7c9f16c14e" x="488.664551" y="485.409362" style="fill: #ff7f0e; stroke: #ff7f0e"/>
     <use xlink:href="#m7c9f16c14e" x="541.366513" y="486.58206" style="fill: #ff7f0e; stroke: #ff7f0e"/>
     <use xlink:href="#m7c9f16c14e" x="567.717495" y="264.69666" style="fill: #ff7f0e; stroke: #ff7f0e"/>
     <use xlink:href="#m7c9f16c14e" x="594.068476" y="494.502361" style="fill: #ff7f0e; stroke: #ff7f0e"/>
     <use xlink:href="#m7c9f16c14e" x="620.419458" y="264.359952" style="fill: #ff7f0e; stroke: #ff7f0e"/>
     <use xlink:href="#m7c9f16c14e" x="646.770439" y="337.346163" style="fill: #ff7f0e; stroke: #ff7f0e"/>
     <use xlink:href="#m7c9f16c14e" x="673.12142" y="294.451892" style="fill: #ff7f0e; stroke: #ff7f0e"/>
    </g>
   </g>
   <g id="line2d_19">
    <path d="M 93.39983 500.542654 
L 119.750811 384.421088 
L 146.101792 252.548823 
L 172.452774 498.643822 
L 198.803755 472.734339 
L 225.154737 496.566556 
L 251.505718 495.182537 
L 277.856699 498.89171 
L 304.207681 498.822322 
L 330.558662 491.607689 
L 356.909644 497.495949 
L 383.260625 497.439262 
L 409.611606 497.671439 
L 435.962588 398.540483 
L 462.313569 489.7543 
L 488.664551 498.685279 
L 541.366513 494.982122 
L 567.717495 459.178929 
L 594.068476 497.520992 
L 620.419458 391.026894 
L 646.770439 448.839444 
L 673.12142 356.844508 
" clip-path="url(#padaa54c47a)" style="fill: none; stroke: #2ca02c; stroke-width: 2; stroke-linecap: square"/>
    <defs>
     <path id="mea204b8ecb" d="M 0 3 
C 0.795609 3 1.55874 2.683901 2.12132 2.12132 
C 2.683901 1.55874 3 0.795609 3 0 
C 3 -0.795609 2.683901 -1.55874 2.12132 -2.12132 
C 1.55874 -2.683901 0.795609 -3 0 -3 
C -0.795609 -3 -1.55874 -2.683901 -2.12132 -2.12132 
C -2.683901 -1.55874 -3 -0.795609 -3 0 
C -3 0.795609 -2.683901 1.55874 -2.12132 2.12132 
C -1.55874 2.683901 -0.795609 3 0 3 
z
" style="stroke: #2ca02c"/>
    </defs>
    <g clip-path="url(#padaa54c47a)">
     <use xlink:href="#mea204b8ecb" x="93.39983" y="500.542654" style="fill: #2ca02c; stroke: #2ca02c"/>
     <use xlink:href="#mea204b8ecb" x="119.750811" y="384.421088" style="fill: #2ca02c; stroke: #2ca02c"/>
     <use xlink:href="#mea204b8ecb" x="146.101792" y="252.548823" style="fill: #2ca02c; stroke: #2ca02c"/>
     <use xlink:href="#mea204b8ecb" x="172.452774" y="498.643822" style="fill: #2ca02c; stroke: #2ca02c"/>
     <use xlink:href="#mea204b8ecb" x="198.803755" y="472.734339" style="fill: #2ca02c; stroke: #2ca02c"/>
     <use xlink:href="#mea204b8ecb" x="225.154737" y="496.566556" style="fill: #2ca02c; stroke: #2ca02c"/>
     <use xlink:href="#mea204b8ecb" x="251.505718" y="495.182537" style="fill: #2ca02c; stroke: #2ca02c"/>
     <use xlink:href="#mea204b8ecb" x="277.856699" y="498.89171" style="fill: #2ca02c; stroke: #2ca02c"/>
     <use xlink:href="#mea204b8ecb" x="304.207681" y="498.822322" style="fill: #2ca02c; stroke: #2ca02c"/>
     <use xlink:href="#mea204b8ecb" x="330.558662" y="491.607689" style="fill: #2ca02c; stroke: #2ca02c"/>
     <use xlink:href="#mea204b8ecb" x="356.909644" y="497.495949" style="fill: #2ca02c; stroke: #2ca02c"/>
     <use xlink:href="#mea204b8ecb" x="383.260625" y="497.439262" style="fill: #2ca02c; stroke: #2ca02c"/>
     <use xlink:href="#mea204b8ecb" x="409.611606" y="497.671439" style="fill: #2ca02c; stroke: #2ca02c"/>
     <use xlink:href="#mea204b8ecb" x="435.962588" y="398.540483" style="fill: #2ca02c; stroke: #2ca02c"/>
     <use xlink:href="#mea204b8ecb" x="462.313569" y="489.7543" style="fill: #2ca02c; stroke: #2ca02c"/>
     <use xlink:href="#mea204b8ecb" x="488.664551" y="498.685279" style="fill: #2ca02c; stroke: #2ca02c"/>
     <use xlink:href="#mea204b8ecb" x="541.366513" y="494.982122" style="fill: #2ca02c; stroke: #2ca02c"/>
     <use xlink:href="#mea204b8ecb" x="567.717495" y="459.178929" style="fill: #2ca02c; stroke: #2ca02c"/>
     <use xlink:href="#mea204b8ecb" x="594.068476" y="497.520992" style="fill: #2ca02c; stroke: #2ca02c"/>
     <use xlink:href="#mea204b8ecb" x="620.419458" y="391.026894" style="fill: #2ca02c; stroke: #2ca02c"/>
     <use xlink:href="#mea204b8ecb" x="646.770439" y="448.839444" style="fill: #2ca02c; stroke: #2ca02c"/>
     <use xlink:href="#mea204b8ecb" x="673.12142" y="356.844508" style="fill: #2ca02c; stroke: #2ca02c"/>
    </g>
   </g>
   <g id="line2d_20">
    <path d="M 93.39983 501.885406 
L 119.750811 499.705447 
L 146.101792 505.057818 
L 172.452774 504.48425 
L 198.803755 283.836758 
L 225.154737 285.907202 
L 251.505718 505.819033 
L 277.856699 402.208221 
L 304.207681 498.758958 
L 330.558662 501.847942 
L 356.909644 504.556739 
L 383.260625 502.32359 
L 409.611606 46.813736 
L 462.313569 459.775037 
L 488.664551 501.449446 
L 541.366513 502.030943 
L 567.717495 506.332202 
L 594.068476 83.74864 
L 620.419458 505.781328 
L 646.770439 505.526448 
" clip-path="url(#padaa54c47a)" style="fill: none; stroke: #d62728; stroke-width: 2; stroke-linecap: square"/>
    <defs>
     <path id="mc5bdf3f32b" d="M 0 3 
C 0.795609 3 1.55874 2.683901 2.12132 2.12132 
C 2.683901 1.55874 3 0.795609 3 0 
C 3 -0.795609 2.683901 -1.55874 2.12132 -2.12132 
C 1.55874 -2.683901 0.795609 -3 0 -3 
C -0.795609 -3 -1.55874 -2.683901 -2.12132 -2.12132 
C -2.683901 -1.55874 -3 -0.795609 -3 0 
C -3 0.795609 -2.683901 1.55874 -2.12132 2.12132 
C -1.55874 2.683901 -0.795609 3 0 3 
z
" style="stroke: #d62728"/>
    </defs>
    <g clip-path="url(#padaa54c47a)">
     <use xlink:href="#mc5bdf3f32b" x="93.39983" y="501.885406" style="fill: #d62728; stroke: #d62728"/>
     <use xlink:href="#mc5bdf3f32b" x="119.750811" y="499.705447" style="fill: #d62728; stroke: #d62728"/>
     <use xlink:href="#mc5bdf3f32b" x="146.101792" y="505.057818" style="fill: #d62728; stroke: #d62728"/>
     <use xlink:href="#mc5bdf3f32b" x="172.452774" y="504.48425" style="fill: #d62728; stroke: #d62728"/>
     <use xlink:href="#mc5bdf3f32b" x="198.803755" y="283.836758" style="fill: #d62728; stroke: #d62728"/>
     <use xlink:href="#mc5bdf3f32b" x="225.154737" y="285.907202" style="fill: #d62728; stroke: #d62728"/>
     <use xlink:href="#mc5bdf3f32b" x="251.505718" y="505.819033" style="fill: #d62728; stroke: #d62728"/>
     <use xlink:href="#mc5bdf3f32b" x="277.856699" y="402.208221" style="fill: #d62728; stroke: #d62728"/>
     <use xlink:href="#mc5bdf3f32b" x="304.207681" y="498.758958" style="fill: #d62728; stroke: #d62728"/>
     <use xlink:href="#mc5bdf3f32b" x="330.558662" y="501.847942" style="fill: #d62728; stroke: #d62728"/>
     <use xlink:href="#mc5bdf3f32b" x="356.909644" y="504.556739" style="fill: #d62728; stroke: #d62728"/>
     <use xlink:href="#mc5bdf3f32b" x="383.260625" y="502.32359" style="fill: #d62728; stroke: #d62728"/>
     <use xlink:href="#mc5bdf3f32b" x="409.611606" y="46.813736" style="fill: #d62728; stroke: #d62728"/>
     <use xlink:href="#mc5bdf3f32b" x="462.313569" y="459.775037" style="fill: #d62728; stroke: #d62728"/>
     <use xlink:href="#mc5bdf3f32b" x="488.664551" y="501.449446" style="fill: #d62728; stroke: #d62728"/>
     <use xlink:href="#mc5bdf3f32b" x="541.366513" y="502.030943" style="fill: #d62728; stroke: #d62728"/>
     <use xlink:href="#mc5bdf3f32b" x="567.717495" y="506.332202" style="fill: #d62728; stroke: #d62728"/>
     <use xlink:href="#mc5bdf3f32b" x="594.068476" y="83.74864" style="fill: #d62728; stroke: #d62728"/>
     <use xlink:href="#mc5bdf3f32b" x="620.419458" y="505.781328" style="fill: #d62728; stroke: #d62728"/>
     <use xlink:href="#mc5bdf3f32b" x="646.770439" y="505.526448" style="fill: #d62728; stroke: #d62728"/>
    </g>
   </g>
   <g id="line2d_21">
    <path d="M 93.39983 494.703431 
L 119.750811 460.163201 
L 146.101792 497.614726 
L 172.452774 490.226762 
L 198.803755 355.449911 
L 225.154737 170.174584 
L 251.505718 501.339682 
L 277.856699 469.822148 
L 304.207681 355.955659 
L 330.558662 497.262039 
L 356.909644 503.613605 
L 383.260625 501.681656 
L 409.611606 185.173438 
L 462.313569 167.423177 
L 488.664551 502.541552 
L 541.366513 498.257827 
L 567.717495 500.649239 
L 594.068476 273.835928 
L 620.419458 489.604767 
L 646.770439 495.807063 
" clip-path="url(#padaa54c47a)" style="fill: none; stroke: #9467bd; stroke-width: 2; stroke-linecap: square"/>
    <defs>
     <path id="mc93da33bc0" d="M 0 3 
C 0.795609 3 1.55874 2.683901 2.12132 2.12132 
C 2.683901 1.55874 3 0.795609 3 0 
C 3 -0.795609 2.683901 -1.55874 2.12132 -2.12132 
C 1.55874 -2.683901 0.795609 -3 0 -3 
C -0.795609 -3 -1.55874 -2.683901 -2.12132 -2.12132 
C -2.683901 -1.55874 -3 -0.795609 -3 0 
C -3 0.795609 -2.683901 1.55874 -2.12132 2.12132 
C -1.55874 2.683901 -0.795609 3 0 3 
z
" style="stroke: #9467bd"/>
    </defs>
    <g clip-path="url(#padaa54c47a)">
     <use xlink:href="#mc93da33bc0" x="93.39983" y="494.703431" style="fill: #9467bd; stroke: #9467bd"/>
     <use xlink:href="#mc93da33bc0" x="119.750811" y="460.163201" style="fill: #9467bd; stroke: #9467bd"/>
     <use xlink:href="#mc93da33bc0" x="146.101792" y="497.614726" style="fill: #9467bd; stroke: #9467bd"/>
     <use xlink:href="#mc93da33bc0" x="172.452774" y="490.226762" style="fill: #9467bd; stroke: #9467bd"/>
     <use xlink:href="#mc93da33bc0" x="198.803755" y="355.449911" style="fill: #9467bd; stroke: #9467bd"/>
     <use xlink:href="#mc93da33bc0" x="225.154737" y="170.174584" style="fill: #9467bd; stroke: #9467bd"/>
     <use xlink:href="#mc93da33bc0" x="251.505718" y="501.339682" style="fill: #9467bd; stroke: #9467bd"/>
     <use xlink:href="#mc93da33bc0" x="277.856699" y="469.822148" style="fill: #9467bd; stroke: #9467bd"/>
     <use xlink:href="#mc93da33bc0" x="304.207681" y="355.955659" style="fill: #9467bd; stroke: #9467bd"/>
     <use xlink:href="#mc93da33bc0" x="330.558662" y="497.262039" style="fill: #9467bd; stroke: #9467bd"/>
     <use xlink:href="#mc93da33bc0" x="356.909644" y="503.613605" style="fill: #9467bd; stroke: #9467bd"/>
     <use xlink:href="#mc93da33bc0" x="383.260625" y="501.681656" style="fill: #9467bd; stroke: #9467bd"/>
     <use xlink:href="#mc93da33bc0" x="409.611606" y="185.173438" style="fill: #9467bd; stroke: #9467bd"/>
     <use xlink:href="#mc93da33bc0" x="462.313569" y="167.423177" style="fill: #9467bd; stroke: #9467bd"/>
     <use xlink:href="#mc93da33bc0" x="488.664551" y="502.541552" style="fill: #9467bd; stroke: #9467bd"/>
     <use xlink:href="#mc93da33bc0" x="541.366513" y="498.257827" style="fill: #9467bd; stroke: #9467bd"/>
     <use xlink:href="#mc93da33bc0" x="567.717495" y="500.649239" style="fill: #9467bd; stroke: #9467bd"/>
     <use xlink:href="#mc93da33bc0" x="594.068476" y="273.835928" style="fill: #9467bd; stroke: #9467bd"/>
     <use xlink:href="#mc93da33bc0" x="620.419458" y="489.604767" style="fill: #9467bd; stroke: #9467bd"/>
     <use xlink:href="#mc93da33bc0" x="646.770439" y="495.807063" style="fill: #9467bd; stroke: #9467bd"/>
    </g>
   </g>
   <g id="line2d_22">
    <path d="M 93.39983 363.05938 
L 119.750811 356.389255 
L 146.101792 362.037416 
L 172.452774 364.523161 
L 198.803755 355.768218 
L 225.154737 358.35454 
L 251.505718 466.216426 
L 277.856699 461.26602 
L 304.207681 357.760592 
L 330.558662 361.919308 
L 356.909644 364.314708 
L 383.260625 362.847041 
L 409.611606 402.423114 
L 462.313569 301.775642 
L 488.664551 361.194415 
L 541.366513 362.768661 
L 567.717495 361.120002 
L 594.068476 437.720081 
L 620.419458 392.130959 
L 646.770439 361.183769 
" clip-path="url(#padaa54c47a)" style="fill: none; stroke: #8c564b; stroke-width: 2; stroke-linecap: square"/>
    <defs>
     <path id="m30428eb024" d="M 0 3 
C 0.795609 3 1.55874 2.683901 2.12132 2.12132 
C 2.683901 1.55874 3 0.795609 3 0 
C 3 -0.795609 2.683901 -1.55874 2.12132 -2.12132 
C 1.55874 -2.683901 0.795609 -3 0 -3 
C -0.795609 -3 -1.55874 -2.683901 -2.12132 -2.12132 
C -2.683901 -1.55874 -3 -0.795609 -3 0 
C -3 0.795609 -2.683901 1.55874 -2.12132 2.12132 
C -1.55874 2.683901 -0.795609 3 0 3 
z
" style="stroke: #8c564b"/>
    </defs>
    <g clip-path="url(#padaa54c47a)">
     <use xlink:href="#m30428eb024" x="93.39983" y="363.05938" style="fill: #8c564b; stroke: #8c564b"/>
     <use xlink:href="#m30428eb024" x="119.750811" y="356.389255" style="fill: #8c564b; stroke: #8c564b"/>
     <use xlink:href="#m30428eb024" x="146.101792" y="362.037416" style="fill: #8c564b; stroke: #8c564b"/>
     <use xlink:href="#m30428eb024" x="172.452774" y="364.523161" style="fill: #8c564b; stroke: #8c564b"/>
     <use xlink:href="#m30428eb024" x="198.803755" y="355.768218" style="fill: #8c564b; stroke: #8c564b"/>
     <use xlink:href="#m30428eb024" x="225.154737" y="358.35454" style="fill: #8c564b; stroke: #8c564b"/>
     <use xlink:href="#m30428eb024" x="251.505718" y="466.216426" style="fill: #8c564b; stroke: #8c564b"/>
     <use xlink:href="#m30428eb024" x="277.856699" y="461.26602" style="fill: #8c564b; stroke: #8c564b"/>
     <use xlink:href="#m30428eb024" x="304.207681" y="357.760592" style="fill: #8c564b; stroke: #8c564b"/>
     <use xlink:href="#m30428eb024" x="330.558662" y="361.919308" style="fill: #8c564b; stroke: #8c564b"/>
     <use xlink:href="#m30428eb024" x="356.909644" y="364.314708" style="fill: #8c564b; stroke: #8c564b"/>
     <use xlink:href="#m30428eb024" x="383.260625" y="362.847041" style="fill: #8c564b; stroke: #8c564b"/>
     <use xlink:href="#m30428eb024" x="409.611606" y="402.423114" style="fill: #8c564b; stroke: #8c564b"/>
     <use xlink:href="#m30428eb024" x="462.313569" y="301.775642" style="fill: #8c564b; stroke: #8c564b"/>
     <use xlink:href="#m30428eb024" x="488.664551" y="361.194415" style="fill: #8c564b; stroke: #8c564b"/>
     <use xlink:href="#m30428eb024" x="541.366513" y="362.768661" style="fill: #8c564b; stroke: #8c564b"/>
     <use xlink:href="#m30428eb024" x="567.717495" y="361.120002" style="fill: #8c564b; stroke: #8c564b"/>
     <use xlink:href="#m30428eb024" x="594.068476" y="437.720081" style="fill: #8c564b; stroke: #8c564b"/>
     <use xlink:href="#m30428eb024" x="620.419458" y="392.130959" style="fill: #8c564b; stroke: #8c564b"/>
     <use xlink:href="#m30428eb024" x="646.770439" y="361.183769" style="fill: #8c564b; stroke: #8c564b"/>
    </g>
   </g>
   <g id="patch_3">
    <path d="M 64.41375 529.308125 
L 64.41375 23.837813 
" style="fill: none; stroke: #000000; stroke-width: 0.8; stroke-linejoin: miter; stroke-linecap: square"/>
   </g>
   <g id="patch_4">
    <path d="M 702.1075 529.308125 
L 702.1075 23.837813 
" style="fill: none; stroke: #000000; stroke-width: 0.8; stroke-linejoin: miter; stroke-linecap: square"/>
   </g>
   <g id="patch_5">
    <path d="M 64.41375 529.308125 
L 702.1075 529.308125 
" style="fill: none; stroke: #000000; stroke-width: 0.8; stroke-linejoin: miter; stroke-linecap: square"/>
   </g>
   <g id="patch_6">
    <path d="M 64.41375 23.837812 
L 702.1075 23.837812 
" style="fill: none; stroke: #000000; stroke-width: 0.8; stroke-linejoin: miter; stroke-linecap: square"/>
   </g>
   <g id="text_11">
    <text style="font: 700 14px 'DejaVu Sans', 'Bitstream Vera Sans', 'Computer Modern Sans Serif', 'Lucida Grande', 'Verdana', 'Geneva', 'Lucid', 'Arial', 'Helvetica', 'Avant Garde', sans-serif; text-anchor: middle" x="383.260625" y="17.837813" transform="rotate(-0 383.260625 17.837813)">Mixedworkload - Performance Trend</text>
   </g>
   <g id="legend_1">
    <g id="patch_7">
     <path d="M 740.992188 119.906563 
L 846.004688 119.906563 
Q 848.004688 119.906563 848.004688 117.906563 
L 848.004688 30.837813 
Q 848.004688 28.837813 846.004688 28.837813 
L 740.992188 28.837813 
Q 738.992188 28.837813 738.992188 30.837813 
L 738.992188 117.906563 
Q 738.992188 119.906563 740.992188 119.906563 
z
" style="fill: #ffffff; opacity: 0.8; stroke: #cccccc; stroke-linejoin: miter"/>
    </g>
    <g id="line2d_23">
     <path d="M 742.992188 36.93625 
L 752.992188 36.93625 
L 762.992188 36.93625 
" style="fill: none; stroke: #1f77b4; stroke-width: 2; stroke-linecap: square"/>
     <g>
      <use xlink:href="#maf92de897f" x="752.992188" y="36.93625" style="fill: #1f77b4; stroke: #1f77b4"/>
     </g>
    </g>
    <g id="text_12">
     <text style="font: 10px 'DejaVu Sans', 'Bitstream Vera Sans', 'Computer Modern Sans Serif', 'Lucida Grande', 'Verdana', 'Geneva', 'Lucid', 'Arial', 'Helvetica', 'Avant Garde', sans-serif; text-anchor: start" x="770.992188" y="40.43625" transform="rotate(-0 770.992188 40.43625)">gcc-14.2 - V1</text>
    </g>
    <g id="line2d_24">
     <path d="M 742.992188 51.614375 
L 752.992188 51.614375 
L 762.992188 51.614375 
" style="fill: none; stroke: #ff7f0e; stroke-width: 2; stroke-linecap: square"/>
     <g>
      <use xlink:href="#m7c9f16c14e" x="752.992188" y="51.614375" style="fill: #ff7f0e; stroke: #ff7f0e"/>
     </g>
    </g>
    <g id="text_13">
     <text style="font: 10px 'DejaVu Sans', 'Bitstream Vera Sans', 'Computer Modern Sans Serif', 'Lucida Grande', 'Verdana', 'Geneva', 'Lucid', 'Arial', 'Helvetica', 'Avant Garde', sans-serif; text-anchor: start" x="770.992188" y="55.114375" transform="rotate(-0 770.992188 55.114375)">gcc-14.2 - V2</text>
    </g>
    <g id="line2d_25">
     <path d="M 742.992188 66.2925 
L 752.992188 66.2925 
L 762.992188 66.2925 
" style="fill: none; stroke: #2ca02c; stroke-width: 2; stroke-linecap: square"/>
     <g>
      <use xlink:href="#mea204b8ecb" x="752.992188" y="66.2925" style="fill: #2ca02c; stroke: #2ca02c"/>
     </g>
    </g>
    <g id="text_14">
     <text style="font: 10px 'DejaVu Sans', 'Bitstream Vera Sans', 'Computer Modern Sans Serif', 'Lucida Grande', 'Verdana', 'Geneva', 'Lucid', 'Arial', 'Helvetica', 'Avant Garde', sans-serif; text-anchor: start" x="770.992188" y="69.7925" transform="rotate(-0 770.992188 69.7925)">gcc-14.2 - TBB</text>
    </g>
    <g id="line2d_26">
     <path d="M 742.992188 80.970625 
L 752.992188 80.970625 
L 762.992188 80.970625 
" style="fill: none; stroke: #d62728; stroke-width: 2; stroke-linecap: square"/>
     <g>
      <use xlink:href="#mc5bdf3f32b" x="752.992188" y="80.970625" style="fill: #d62728; stroke: #d62728"/>
     </g>
    </g>
    <g id="text_15">
     <text style="font: 10px 'DejaVu Sans', 'Bitstream Vera Sans', 'Computer Modern Sans Serif', 'Lucida Grande', 'Verdana', 'Geneva', 'Lucid', 'Arial', 'Helvetica', 'Avant Garde', sans-serif; text-anchor: start" x="770.992188" y="84.470625" transform="rotate(-0 770.992188 84.470625)">gcc-4.2 - V1</text>
    </g>
    <g id="line2d_27">
     <path d="M 742.992188 95.64875 
L 752.992188 95.64875 
L 762.992188 95.64875 
" style="fill: none; stroke: #9467bd; stroke-width: 2; stroke-linecap: square"/>
     <g>
      <use xlink:href="#mc93da33bc0" x="752.992188" y="95.64875" style="fill: #9467bd; stroke: #9467bd"/>
     </g>
    </g>
    <g id="text_16">
     <text style="font: 10px 'DejaVu Sans', 'Bitstream Vera Sans', 'Computer Modern Sans Serif', 'Lucida Grande', 'Verdana', 'Geneva', 'Lucid', 'Arial', 'Helvetica', 'Avant Garde', sans-serif; text-anchor: start" x="770.992188" y="99.14875" transform="rotate(-0 770.992188 99.14875)">gcc-4.2 - V2</text>
    </g>
    <g id="line2d_28">
     <path d="M 742.992188 110.326875 
L 752.992188 110.326875 
L 762.992188 110.326875 
" style="fill: none; stroke: #8c564b; stroke-width: 2; stroke-linecap: square"/>
     <g>
      <use xlink:href="#m30428eb024" x="752.992188" y="110.326875" style="fill: #8c564b; stroke: #8c564b"/>
     </g>
    </g>
    <g id="text_17">
     <text style="font: 10px 'DejaVu Sans', 'Bitstream Vera Sans', 'Computer Modern Sans Serif', 'Lucida Grande', 'Verdana', 'Geneva', 'Lucid', 'Arial', 'Helvetica', 'Avant Garde', sans-serif; text-anchor: start" x="770.992188" y="113.826875" transform="rotate(-0 770.992188 113.826875)">gcc-4.2 - TBB</text>
    </g>
   </g>
  </g>
 </g>
 <defs>
  <clipPath id="padaa54c47a">
   <rect x="64.41375" y="23.837813" width="637.69375" height="505.470313"/>
  </clipPath>
 </defs>
</svg>
