<?xml version="1.0" encoding="utf-8" standalone="no"?>
<!DOCTYPE svg PUBLIC "-//W3C//DTD SVG 1.1//EN"
  "http://www.w3.org/Graphics/SVG/1.1/DTD/svg11.dtd">
<svg xmlns:xlink="http://www.w3.org/1999/xlink" width="856.204141pt" height="568.8pt" viewBox="0 0 856.204141 568.8" xmlns="http://www.w3.org/2000/svg" version="1.1">
 <metadata>
  <rdf:RDF xmlns:dc="http://purl.org/dc/elements/1.1/" xmlns:cc="http://creativecommons.org/ns#" xmlns:rdf="http://www.w3.org/1999/02/22-rdf-syntax-ns#">
   <cc:Work>
    <dc:type rdf:resource="http://purl.org/dc/dcmitype/StillImage"/>
    <dc:date>2025-12-23T10:59:27.588253</dc:date>
    <dc:format>image/svg+xml</dc:format>
    <dc:creator>
     <cc:Agent>
      <dc:title>Matplotlib v3.9.4, https://matplotlib.org/</dc:title>
     </cc:Agent>
    </dc:creator>
   </cc:Work>
  </rdf:RDF>
 </metadata>
 <defs>
  <style type="text/css">*{stroke-linejoin: round; stroke-linecap: butt}</style>
 </defs>
 <g id="figure_1">
  <g id="patch_1">
   <path d="M 0 568.8 
L 856.204141 568.8 
L 856.204141 0 
L 0 0 
z
" style="fill: #ffffff"/>
  </g>
  <g id="axes_1">
   <g id="patch_2">
    <path d="M 74.01375 529.308125 
L 731.696563 529.308125 
L 731.696563 23.837812 
L 74.01375 23.837812 
z
" style="fill: #ffffff"/>
   </g>
   <g id="matplotlib.axis_1">
    <g id="xtick_1">
     <g id="line2d_1">
      <path d="M 92.627415 529.308125 
L 92.627415 23.837812 
" clip-path="url(#pe5cd5956a7)" style="fill: none; stroke: #b0b0b0; stroke-opacity: 0.3; stroke-width: 0.8; stroke-linecap: square"/>
     </g>
     <g id="line2d_2">
      <defs>
       <path id="m68f6e350e6" d="M 0 0 
L 0 3.5 
" style="stroke: #000000; stroke-width: 0.8"/>
      </defs>
      <g>
       <use xlink:href="#m68f6e350e6" x="92.627415" y="529.308125" style="stroke: #000000; stroke-width: 0.8"/>
      </g>
     </g>
     <g id="text_1">
      <text style="font: 10px 'DejaVu Sans', 'Bitstream Vera Sans', 'Computer Modern Sans Serif', 'Lucida Grande', 'Verdana', 'Geneva', 'Lucid', 'Arial', 'Helvetica', 'Avant Garde', sans-serif; text-anchor: middle" x="92.627415" y="543.906563" transform="rotate(-0 92.627415 543.906563)">70</text>
     </g>
    </g>
    <g id="xtick_2">
     <g id="line2d_3">
      <path d="M 205.437502 529.308125 
L 205.437502 23.837812 
" clip-path="url(#pe5cd5956a7)" style="fill: none; stroke: #b0b0b0; stroke-opacity: 0.3; stroke-width: 0.8; stroke-linecap: square"/>
     </g>
     <g id="line2d_4">
      <g>
       <use xlink:href="#m68f6e350e6" x="205.437502" y="529.308125" style="stroke: #000000; stroke-width: 0.8"/>
      </g>
     </g>
     <g id="text_2">
      <text style="font: 10px 'DejaVu Sans', 'Bitstream Vera Sans', 'Computer Modern Sans Serif', 'Lucida Grande', 'Verdana', 'Geneva', 'Lucid', 'Arial', 'Helvetica', 'Avant Garde', sans-serif; text-anchor: middle" x="205.437502" y="543.906563" transform="rotate(-0 205.437502 543.906563)">80</text>
     </g>
    </g>
    <g id="xtick_3">
     <g id="line2d_5">
      <path d="M 318.24759 529.308125 
L 318.24759 23.837812 
" clip-path="url(#pe5cd5956a7)" style="fill: none; stroke: #b0b0b0; stroke-opacity: 0.3; stroke-width: 0.8; stroke-linecap: square"/>
     </g>
     <g id="line2d_6">
      <g>
       <use xlink:href="#m68f6e350e6" x="318.24759" y="529.308125" style="stroke: #000000; stroke-width: 0.8"/>
      </g>
     </g>
     <g id="text_3">
      <text style="font: 10px 'DejaVu Sans', 'Bitstream Vera Sans', 'Computer Modern Sans Serif', 'Lucida Grande', 'Verdana', 'Geneva', 'Lucid', 'Arial', 'Helvetica', 'Avant Garde', sans-serif; text-anchor: middle" x="318.24759" y="543.906563" transform="rotate(-0 318.24759 543.906563)">90</text>
     </g>
    </g>
    <g id="xtick_4">
     <g id="line2d_7">
      <path d="M 431.057678 529.308125 
L 431.057678 23.837812 
" clip-path="url(#pe5cd5956a7)" style="fill: none; stroke: #b0b0b0; stroke-opacity: 0.3; stroke-width: 0.8; stroke-linecap: square"/>
     </g>
     <g id="line2d_8">
      <g>
       <use xlink:href="#m68f6e350e6" x="431.057678" y="529.308125" style="stroke: #000000; stroke-width: 0.8"/>
      </g>
     </g>
     <g id="text_4">
      <text style="font: 10px 'DejaVu Sans', 'Bitstream Vera Sans', 'Computer Modern Sans Serif', 'Lucida Grande', 'Verdana', 'Geneva', 'Lucid', 'Arial', 'Helvetica', 'Avant Garde', sans-serif; text-anchor: middle" x="431.057678" y="543.906563" transform="rotate(-0 431.057678 543.906563)">100</text>
     </g>
    </g>
    <g id="xtick_5">
     <g id="line2d_9">
      <path d="M 543.867766 529.308125 
L 543.867766 23.837812 
" clip-path="url(#pe5cd5956a7)" style="fill: none; stroke: #b0b0b0; stroke-opacity: 0.3; stroke-width: 0.8; stroke-linecap: square"/>
     </g>
     <g id="line2d_10">
      <g>
       <use xlink:href="#m68f6e350e6" x="543.867766" y="529.308125" style="stroke: #000000; stroke-width: 0.8"/>
      </g>
     </g>
     <g id="text_5">
      <text style="font: 10px 'DejaVu Sans', 'Bitstream Vera Sans', 'Computer Modern Sans Serif', 'Lucida Grande', 'Verdana', 'Geneva', 'Lucid', 'Arial', 'Helvetica', 'Avant Garde', sans-serif; text-anchor: middle" x="543.867766" y="543.906563" transform="rotate(-0 543.867766 543.906563)">110</text>
     </g>
    </g>
    <g id="xtick_6">
     <g id="line2d_11">
      <path d="M 656.677854 529.308125 
L 656.677854 23.837812 
" clip-path="url(#pe5cd5956a7)" style="fill: none; stroke: #b0b0b0; stroke-opacity: 0.3; stroke-width: 0.8; stroke-linecap: square"/>
     </g>
     <g id="line2d_12">
      <g>
       <use xlink:href="#m68f6e350e6" x="656.677854" y="529.308125" style="stroke: #000000; stroke-width: 0.8"/>
      </g>
     </g>
     <g id="text_6">
      <text style="font: 10px 'DejaVu Sans', 'Bitstream Vera Sans', 'Computer Modern Sans Serif', 'Lucida Grande', 'Verdana', 'Geneva', 'Lucid', 'Arial', 'Helvetica', 'Avant Garde', sans-serif; text-anchor: middle" x="656.677854" y="543.906563" transform="rotate(-0 656.677854 543.906563)">120</text>
     </g>
    </g>
    <g id="text_7">
     <text style="font: 12px 'DejaVu Sans', 'Bitstream Vera Sans', 'Computer Modern Sans Serif', 'Lucida Grande', 'Verdana', 'Geneva', 'Lucid', 'Arial', 'Helvetica', 'Avant Garde', sans-serif; text-anchor: middle" x="402.855156" y="559.104375" transform="rotate(-0 402.855156 559.104375)">Build Number</text>
    </g>
   </g>
   <g id="matplotlib.axis_2">
    <g id="ytick_1">
     <g id="line2d_13">
      <defs>
       <path id="m44d230ed72" d="M 0 0 
L -2 0 
" style="stroke: #000000; stroke-width: 0.6"/>
      </defs>
      <g>
       <use xlink:href="#m44d230ed72" x="74.01375" y="462.427471" style="stroke: #000000; stroke-width: 0.6"/>
      </g>
     </g>
     <g id="text_8">
      <!-- $\mathdefault{1.4\times10^{2}}$ -->
      <g transform="translate(22.81375 466.22669)">
       <text>
        <tspan style="font: 10px 'DejaVu Sans'" x="0 6.362305 9.541016 17.851562 28.178711 34.541016" y="-0.9765625">1.4×10</tspan>
        <tspan style="font: 7px 'DejaVu Sans'" x="40.999023" y="-4.8046875">2</tspan>
       </text>
      </g>
     </g>
    </g>
    <g id="ytick_2">
     <g id="line2d_14">
      <g>
       <use xlink:href="#m44d230ed72" x="74.01375" y="344.146328" style="stroke: #000000; stroke-width: 0.6"/>
      </g>
     </g>
     <g id="text_9">
      <!-- $\mathdefault{1.6\times10^{2}}$ -->
      <g transform="translate(22.81375 347.945547)">
       <text>
        <tspan style="font: 10px 'DejaVu Sans'" x="0 6.362305 9.541016 17.851562 28.178711 34.541016" y="-0.9765625">1.6×10</tspan>
        <tspan style="font: 7px 'DejaVu Sans'" x="40.999023" y="-4.8046875">2</tspan>
       </text>
      </g>
     </g>
    </g>
    <g id="ytick_3">
     <g id="line2d_15">
      <g>
       <use xlink:href="#m44d230ed72" x="74.01375" y="239.814966" style="stroke: #000000; stroke-width: 0.6"/>
      </g>
     </g>
     <g id="text_10">
      <!-- $\mathdefault{1.8\times10^{2}}$ -->
      <g transform="translate(23.11375 243.614185)">
       <text>
        <tspan style="font: 10px 'DejaVu Sans'" x="0 6.362305 9.291016 17.601562 27.928711 34.291016" y="-0.9765625">1.8×10</tspan>
        <tspan style="font: 7px 'DejaVu Sans'" x="40.749023" y="-4.8046875">2</tspan>
       </text>
      </g>
     </g>
    </g>
    <g id="ytick_4">
     <g id="line2d_16">
      <g>
       <use xlink:href="#m44d230ed72" x="74.01375" y="146.487383" style="stroke: #000000; stroke-width: 0.6"/>
      </g>
     </g>
     <g id="text_11">
      <!-- $\mathdefault{2\times10^{2}}$ -->
      <g transform="translate(32.41375 150.286601)">
       <text>
        <tspan style="font: 10px 'DejaVu Sans'" x="0 8.310547 18.637695 25" y="-0.9765625">2×10</tspan>
        <tspan style="font: 7px 'DejaVu Sans'" x="31.458008" y="-4.8046875">2</tspan>
       </text>
      </g>
     </g>
    </g>
    <g id="ytick_5">
     <g id="line2d_17">
      <g>
       <use xlink:href="#m44d230ed72" x="74.01375" y="62.062314" style="stroke: #000000; stroke-width: 0.6"/>
      </g>
     </g>
     <g id="text_12">
      <!-- $\mathdefault{2.2\times10^{2}}$ -->
      <g transform="translate(23.41375 65.861533)">
       <text>
        <tspan style="font: 10px 'DejaVu Sans'" x="0 6.362305 9.041016 17.351562 27.678711 34.041016" y="-0.9765625">2.2×10</tspan>
        <tspan style="font: 7px 'DejaVu Sans'" x="40.499023" y="-4.8046875">2</tspan>
       </text>
      </g>
     </g>
    </g>
    <g id="text_13">
     <text style="font: 12px 'DejaVu Sans', 'Bitstream Vera Sans', 'Computer Modern Sans Serif', 'Lucida Grande', 'Verdana', 'Geneva', 'Lucid', 'Arial', 'Helvetica', 'Avant Garde', sans-serif; text-anchor: middle" x="16.318125" y="276.572969" transform="rotate(-90 16.318125 276.572969)">Median Elapsed Time (nanoseconds)</text>
    </g>
   </g>
   <g id="line2d_18">
    <path d="M 103.908423 127.107182 
L 115.189432 118.199928 
L 126.470441 177.770346 
L 137.75145 120.404631 
L 149.032458 123.405807 
L 160.313467 69.33952 
L 171.594476 72.145045 
L 182.875485 176.853186 
L 194.156494 123.794246 
L 205.437502 170.914684 
L 216.718511 66.461923 
L 227.99952 124.658055 
L 239.280529 126.82127 
L 261.842546 122.931279 
L 273.123555 126.388204 
L 295.685573 194.443713 
L 306.966582 58.40591 
L 318.24759 51.973631 
L 329.528599 125.133509 
L 340.809608 172.737679 
L 363.371625 68.081955 
L 374.652634 127.297887 
L 385.933643 121.638402 
L 397.214652 70.517572 
L 419.776669 128.165121 
L 431.057678 184.26341 
L 442.338687 174.153085 
L 453.619696 124.658055 
L 464.900705 125.565962 
L 476.181713 69.298926 
L 487.462722 107.449267 
L 498.743731 125.133509 
L 521.305749 128.555654 
L 532.586757 64.037416 
L 543.867766 64.037416 
L 566.429784 61.217188 
L 600.27281 119.917497 
L 611.553819 123.405807 
L 622.834828 176.394962 
L 634.115836 176.394962 
L 645.396845 60.81503 
L 656.677854 168.641204 
L 667.958863 67.717189 
L 679.239872 131.642573 
L 690.52088 126.16805 
L 701.801889 83.663116 
" clip-path="url(#pe5cd5956a7)" style="fill: none; stroke: #1f77b4; stroke-width: 2; stroke-linecap: square"/>
    <defs>
     <path id="mf4706e9253" d="M 0 3 
C 0.795609 3 1.55874 2.683901 2.12132 2.12132 
C 2.683901 1.55874 3 0.795609 3 0 
C 3 -0.795609 2.683901 -1.55874 2.12132 -2.12132 
C 1.55874 -2.683901 0.795609 -3 0 -3 
C -0.795609 -3 -1.55874 -2.683901 -2.12132 -2.12132 
C -2.683901 -1.55874 -3 -0.795609 -3 0 
C -3 0.795609 -2.683901 1.55874 -2.12132 2.12132 
C -1.55874 2.683901 -0.795609 3 0 3 
z
" style="stroke: #1f77b4"/>
    </defs>
    <g clip-path="url(#pe5cd5956a7)">
     <use xlink:href="#mf4706e9253" x="103.908423" y="127.107182" style="fill: #1f77b4; stroke: #1f77b4"/>
     <use xlink:href="#mf4706e9253" x="115.189432" y="118.199928" style="fill: #1f77b4; stroke: #1f77b4"/>
     <use xlink:href="#mf4706e9253" x="126.470441" y="177.770346" style="fill: #1f77b4; stroke: #1f77b4"/>
     <use xlink:href="#mf4706e9253" x="137.75145" y="120.404631" style="fill: #1f77b4; stroke: #1f77b4"/>
     <use xlink:href="#mf4706e9253" x="149.032458" y="123.405807" style="fill: #1f77b4; stroke: #1f77b4"/>
     <use xlink:href="#mf4706e9253" x="160.313467" y="69.33952" style="fill: #1f77b4; stroke: #1f77b4"/>
     <use xlink:href="#mf4706e9253" x="171.594476" y="72.145045" style="fill: #1f77b4; stroke: #1f77b4"/>
     <use xlink:href="#mf4706e9253" x="182.875485" y="176.853186" style="fill: #1f77b4; stroke: #1f77b4"/>
     <use xlink:href="#mf4706e9253" x="194.156494" y="123.794246" style="fill: #1f77b4; stroke: #1f77b4"/>
     <use xlink:href="#mf4706e9253" x="205.437502" y="170.914684" style="fill: #1f77b4; stroke: #1f77b4"/>
     <use xlink:href="#mf4706e9253" x="216.718511" y="66.461923" style="fill: #1f77b4; stroke: #1f77b4"/>
     <use xlink:href="#mf4706e9253" x="227.99952" y="124.658055" style="fill: #1f77b4; stroke: #1f77b4"/>
     <use xlink:href="#mf4706e9253" x="239.280529" y="126.82127" style="fill: #1f77b4; stroke: #1f77b4"/>
     <use xlink:href="#mf4706e9253" x="261.842546" y="122.931279" style="fill: #1f77b4; stroke: #1f77b4"/>
     <use xlink:href="#mf4706e9253" x="273.123555" y="126.388204" style="fill: #1f77b4; stroke: #1f77b4"/>
     <use xlink:href="#mf4706e9253" x="295.685573" y="194.443713" style="fill: #1f77b4; stroke: #1f77b4"/>
     <use xlink:href="#mf4706e9253" x="306.966582" y="58.40591" style="fill: #1f77b4; stroke: #1f77b4"/>
     <use xlink:href="#mf4706e9253" x="318.24759" y="51.973631" style="fill: #1f77b4; stroke: #1f77b4"/>
     <use xlink:href="#mf4706e9253" x="329.528599" y="125.133509" style="fill: #1f77b4; stroke: #1f77b4"/>
     <use xlink:href="#mf4706e9253" x="340.809608" y="172.737679" style="fill: #1f77b4; stroke: #1f77b4"/>
     <use xlink:href="#mf4706e9253" x="363.371625" y="68.081955" style="fill: #1f77b4; stroke: #1f77b4"/>
     <use xlink:href="#mf4706e9253" x="374.652634" y="127.297887" style="fill: #1f77b4; stroke: #1f77b4"/>
     <use xlink:href="#mf4706e9253" x="385.933643" y="121.638402" style="fill: #1f77b4; stroke: #1f77b4"/>
     <use xlink:href="#mf4706e9253" x="397.214652" y="70.517572" style="fill: #1f77b4; stroke: #1f77b4"/>
     <use xlink:href="#mf4706e9253" x="419.776669" y="128.165121" style="fill: #1f77b4; stroke: #1f77b4"/>
     <use xlink:href="#mf4706e9253" x="431.057678" y="184.26341" style="fill: #1f77b4; stroke: #1f77b4"/>
     <use xlink:href="#mf4706e9253" x="442.338687" y="174.153085" style="fill: #1f77b4; stroke: #1f77b4"/>
     <use xlink:href="#mf4706e9253" x="453.619696" y="124.658055" style="fill: #1f77b4; stroke: #1f77b4"/>
     <use xlink:href="#mf4706e9253" x="464.900705" y="125.565962" style="fill: #1f77b4; stroke: #1f77b4"/>
     <use xlink:href="#mf4706e9253" x="476.181713" y="69.298926" style="fill: #1f77b4; stroke: #1f77b4"/>
     <use xlink:href="#mf4706e9253" x="487.462722" y="107.449267" style="fill: #1f77b4; stroke: #1f77b4"/>
     <use xlink:href="#mf4706e9253" x="498.743731" y="125.133509" style="fill: #1f77b4; stroke: #1f77b4"/>
     <use xlink:href="#mf4706e9253" x="521.305749" y="128.555654" style="fill: #1f77b4; stroke: #1f77b4"/>
     <use xlink:href="#mf4706e9253" x="532.586757" y="64.037416" style="fill: #1f77b4; stroke: #1f77b4"/>
     <use xlink:href="#mf4706e9253" x="543.867766" y="64.037416" style="fill: #1f77b4; stroke: #1f77b4"/>
     <use xlink:href="#mf4706e9253" x="566.429784" y="61.217188" style="fill: #1f77b4; stroke: #1f77b4"/>
     <use xlink:href="#mf4706e9253" x="600.27281" y="119.917497" style="fill: #1f77b4; stroke: #1f77b4"/>
     <use xlink:href="#mf4706e9253" x="611.553819" y="123.405807" style="fill: #1f77b4; stroke: #1f77b4"/>
     <use xlink:href="#mf4706e9253" x="622.834828" y="176.394962" style="fill: #1f77b4; stroke: #1f77b4"/>
     <use xlink:href="#mf4706e9253" x="634.115836" y="176.394962" style="fill: #1f77b4; stroke: #1f77b4"/>
     <use xlink:href="#mf4706e9253" x="645.396845" y="60.81503" style="fill: #1f77b4; stroke: #1f77b4"/>
     <use xlink:href="#mf4706e9253" x="656.677854" y="168.641204" style="fill: #1f77b4; stroke: #1f77b4"/>
     <use xlink:href="#mf4706e9253" x="667.958863" y="67.717189" style="fill: #1f77b4; stroke: #1f77b4"/>
     <use xlink:href="#mf4706e9253" x="679.239872" y="131.642573" style="fill: #1f77b4; stroke: #1f77b4"/>
     <use xlink:href="#mf4706e9253" x="690.52088" y="126.16805" style="fill: #1f77b4; stroke: #1f77b4"/>
     <use xlink:href="#mf4706e9253" x="701.801889" y="83.663116" style="fill: #1f77b4; stroke: #1f77b4"/>
    </g>
   </g>
   <g id="line2d_19">
    <path d="M 103.908423 124.269237 
L 115.189432 118.122595 
L 126.470441 121.681468 
L 137.75145 67.271568 
L 149.032458 111.788545 
L 160.313467 163.16341 
L 171.594476 172.97814 
L 182.875485 111.788545 
L 194.156494 119.752177 
L 205.437502 53.208519 
L 216.718511 46.813736 
L 227.99952 165.875438 
L 239.280529 60.372867 
L 250.561538 129.033205 
L 261.842546 163.614838 
L 273.123555 170.122154 
L 295.685573 61.579286 
L 306.966582 174.107391 
L 318.24759 62.424758 
L 329.528599 115.244927 
L 340.809608 169.504439 
L 352.090617 126.431501 
L 363.371625 165.422856 
L 374.652634 177.311647 
L 385.933643 113.493715 
L 397.214652 122.112238 
L 419.776669 112.266349 
L 431.057678 175.479225 
L 442.338687 63.23072 
L 453.619696 57.203802 
L 464.900705 116.913934 
L 476.181713 169.05 
L 487.462722 54.804471 
L 498.743731 157.315681 
L 521.305749 128.165121 
L 532.586757 157.764138 
L 543.867766 124.701268 
L 555.148775 113.770814 
L 566.429784 169.959112 
L 588.991801 54.405213 
L 600.27281 163.614838 
L 611.553819 124.269237 
L 622.834828 165.01573 
L 634.115836 59.5695 
L 645.396845 128.989781 
L 656.677854 125.090276 
L 667.958863 111.788545 
L 679.239872 506.332202 
L 690.52088 166.826612 
L 701.801889 180.527537 
" clip-path="url(#pe5cd5956a7)" style="fill: none; stroke: #ff7f0e; stroke-width: 2; stroke-linecap: square"/>
    <defs>
     <path id="mf0f6b82e23" d="M 0 3 
C 0.795609 3 1.55874 2.683901 2.12132 2.12132 
C 2.683901 1.55874 3 0.795609 3 0 
C 3 -0.795609 2.683901 -1.55874 2.12132 -2.12132 
C 1.55874 -2.683901 0.795609 -3 0 -3 
C -0.795609 -3 -1.55874 -2.683901 -2.12132 -2.12132 
C -2.683901 -1.55874 -3 -0.795609 -3 0 
C -3 0.795609 -2.683901 1.55874 -2.12132 2.12132 
C -1.55874 2.683901 -0.795609 3 0 3 
z
" style="stroke: #ff7f0e"/>
    </defs>
    <g clip-path="url(#pe5cd5956a7)">
     <use xlink:href="#mf0f6b82e23" x="103.908423" y="124.269237" style="fill: #ff7f0e; stroke: #ff7f0e"/>
     <use xlink:href="#mf0f6b82e23" x="115.189432" y="118.122595" style="fill: #ff7f0e; stroke: #ff7f0e"/>
     <use xlink:href="#mf0f6b82e23" x="126.470441" y="121.681468" style="fill: #ff7f0e; stroke: #ff7f0e"/>
     <use xlink:href="#mf0f6b82e23" x="137.75145" y="67.271568" style="fill: #ff7f0e; stroke: #ff7f0e"/>
     <use xlink:href="#mf0f6b82e23" x="149.032458" y="111.788545" style="fill: #ff7f0e; stroke: #ff7f0e"/>
     <use xlink:href="#mf0f6b82e23" x="160.313467" y="163.16341" style="fill: #ff7f0e; stroke: #ff7f0e"/>
     <use xlink:href="#mf0f6b82e23" x="171.594476" y="172.97814" style="fill: #ff7f0e; stroke: #ff7f0e"/>
     <use xlink:href="#mf0f6b82e23" x="182.875485" y="111.788545" style="fill: #ff7f0e; stroke: #ff7f0e"/>
     <use xlink:href="#mf0f6b82e23" x="194.156494" y="119.752177" style="fill: #ff7f0e; stroke: #ff7f0e"/>
     <use xlink:href="#mf0f6b82e23" x="205.437502" y="53.208519" style="fill: #ff7f0e; stroke: #ff7f0e"/>
     <use xlink:href="#mf0f6b82e23" x="216.718511" y="46.813736" style="fill: #ff7f0e; stroke: #ff7f0e"/>
     <use xlink:href="#mf0f6b82e23" x="227.99952" y="165.875438" style="fill: #ff7f0e; stroke: #ff7f0e"/>
     <use xlink:href="#mf0f6b82e23" x="239.280529" y="60.372867" style="fill: #ff7f0e; stroke: #ff7f0e"/>
     <use xlink:href="#mf0f6b82e23" x="250.561538" y="129.033205" style="fill: #ff7f0e; stroke: #ff7f0e"/>
     <use xlink:href="#mf0f6b82e23" x="261.842546" y="163.614838" style="fill: #ff7f0e; stroke: #ff7f0e"/>
     <use xlink:href="#mf0f6b82e23" x="273.123555" y="170.122154" style="fill: #ff7f0e; stroke: #ff7f0e"/>
     <use xlink:href="#mf0f6b82e23" x="295.685573" y="61.579286" style="fill: #ff7f0e; stroke: #ff7f0e"/>
     <use xlink:href="#mf0f6b82e23" x="306.966582" y="174.107391" style="fill: #ff7f0e; stroke: #ff7f0e"/>
     <use xlink:href="#mf0f6b82e23" x="318.24759" y="62.424758" style="fill: #ff7f0e; stroke: #ff7f0e"/>
     <use xlink:href="#mf0f6b82e23" x="329.528599" y="115.244927" style="fill: #ff7f0e; stroke: #ff7f0e"/>
     <use xlink:href="#mf0f6b82e23" x="340.809608" y="169.504439" style="fill: #ff7f0e; stroke: #ff7f0e"/>
     <use xlink:href="#mf0f6b82e23" x="352.090617" y="126.431501" style="fill: #ff7f0e; stroke: #ff7f0e"/>
     <use xlink:href="#mf0f6b82e23" x="363.371625" y="165.422856" style="fill: #ff7f0e; stroke: #ff7f0e"/>
     <use xlink:href="#mf0f6b82e23" x="374.652634" y="177.311647" style="fill: #ff7f0e; stroke: #ff7f0e"/>
     <use xlink:href="#mf0f6b82e23" x="385.933643" y="113.493715" style="fill: #ff7f0e; stroke: #ff7f0e"/>
     <use xlink:href="#mf0f6b82e23" x="397.214652" y="122.112238" style="fill: #ff7f0e; stroke: #ff7f0e"/>
     <use xlink:href="#mf0f6b82e23" x="419.776669" y="112.266349" style="fill: #ff7f0e; stroke: #ff7f0e"/>
     <use xlink:href="#mf0f6b82e23" x="431.057678" y="175.479225" style="fill: #ff7f0e; stroke: #ff7f0e"/>
     <use xlink:href="#mf0f6b82e23" x="442.338687" y="63.23072" style="fill: #ff7f0e; stroke: #ff7f0e"/>
     <use xlink:href="#mf0f6b82e23" x="453.619696" y="57.203802" style="fill: #ff7f0e; stroke: #ff7f0e"/>
     <use xlink:href="#mf0f6b82e23" x="464.900705" y="116.913934" style="fill: #ff7f0e; stroke: #ff7f0e"/>
     <use xlink:href="#mf0f6b82e23" x="476.181713" y="169.05" style="fill: #ff7f0e; stroke: #ff7f0e"/>
     <use xlink:href="#mf0f6b82e23" x="487.462722" y="54.804471" style="fill: #ff7f0e; stroke: #ff7f0e"/>
     <use xlink:href="#mf0f6b82e23" x="498.743731" y="157.315681" style="fill: #ff7f0e; stroke: #ff7f0e"/>
     <use xlink:href="#mf0f6b82e23" x="521.305749" y="128.165121" style="fill: #ff7f0e; stroke: #ff7f0e"/>
     <use xlink:href="#mf0f6b82e23" x="532.586757" y="157.764138" style="fill: #ff7f0e; stroke: #ff7f0e"/>
     <use xlink:href="#mf0f6b82e23" x="543.867766" y="124.701268" style="fill: #ff7f0e; stroke: #ff7f0e"/>
     <use xlink:href="#mf0f6b82e23" x="555.148775" y="113.770814" style="fill: #ff7f0e; stroke: #ff7f0e"/>
     <use xlink:href="#mf0f6b82e23" x="566.429784" y="169.959112" style="fill: #ff7f0e; stroke: #ff7f0e"/>
     <use xlink:href="#mf0f6b82e23" x="588.991801" y="54.405213" style="fill: #ff7f0e; stroke: #ff7f0e"/>
     <use xlink:href="#mf0f6b82e23" x="600.27281" y="163.614838" style="fill: #ff7f0e; stroke: #ff7f0e"/>
     <use xlink:href="#mf0f6b82e23" x="611.553819" y="124.269237" style="fill: #ff7f0e; stroke: #ff7f0e"/>
     <use xlink:href="#mf0f6b82e23" x="622.834828" y="165.01573" style="fill: #ff7f0e; stroke: #ff7f0e"/>
     <use xlink:href="#mf0f6b82e23" x="634.115836" y="59.5695" style="fill: #ff7f0e; stroke: #ff7f0e"/>
     <use xlink:href="#mf0f6b82e23" x="645.396845" y="128.989781" style="fill: #ff7f0e; stroke: #ff7f0e"/>
     <use xlink:href="#mf0f6b82e23" x="656.677854" y="125.090276" style="fill: #ff7f0e; stroke: #ff7f0e"/>
     <use xlink:href="#mf0f6b82e23" x="667.958863" y="111.788545" style="fill: #ff7f0e; stroke: #ff7f0e"/>
     <use xlink:href="#mf0f6b82e23" x="679.239872" y="506.332202" style="fill: #ff7f0e; stroke: #ff7f0e"/>
     <use xlink:href="#mf0f6b82e23" x="690.52088" y="166.826612" style="fill: #ff7f0e; stroke: #ff7f0e"/>
     <use xlink:href="#mf0f6b82e23" x="701.801889" y="180.527537" style="fill: #ff7f0e; stroke: #ff7f0e"/>
    </g>
   </g>
   <g id="patch_3">
    <path d="M 74.01375 529.308125 
L 74.01375 23.837813 
" style="fill: none; stroke: #000000; stroke-width: 0.8; stroke-linejoin: miter; stroke-linecap: square"/>
   </g>
   <g id="patch_4">
    <path d="M 731.696563 529.308125 
L 731.696563 23.837813 
" style="fill: none; stroke: #000000; stroke-width: 0.8; stroke-linejoin: miter; stroke-linecap: square"/>
   </g>
   <g id="patch_5">
    <path d="M 74.01375 529.308125 
L 731.696563 529.308125 
" style="fill: none; stroke: #000000; stroke-width: 0.8; stroke-linejoin: miter; stroke-linecap: square"/>
   </g>
   <g id="patch_6">
    <path d="M 74.01375 23.837812 
L 731.696563 23.837812 
" style="fill: none; stroke: #000000; stroke-width: 0.8; stroke-linejoin: miter; stroke-linecap: square"/>
   </g>
   <g id="text_14">
    <text style="font: 700 14px 'DejaVu Sans', 'Bitstream Vera Sans', 'Computer Modern Sans Serif', 'Lucida Grande', 'Verdana', 'Geneva', 'Lucid', 'Arial', 'Helvetica', 'Avant Garde', sans-serif; text-anchor: middle" x="402.855156" y="17.837813" transform="rotate(-0 402.855156 17.837813)">Coalescing Arena Alloc Dealloc - Performance Trend</text>
   </g>
   <g id="legend_1">
    <g id="patch_7">
     <path d="M 771.580703 61.194063 
L 847.004141 61.194063 
Q 849.004141 61.194063 849.004141 59.194063 
L 849.004141 30.837813 
Q 849.004141 28.837813 847.004141 28.837813 
L 771.580703 28.837813 
Q 769.580703 28.837813 769.580703 30.837813 
L 769.580703 59.194063 
Q 769.580703 61.194063 771.580703 61.194063 
z
" style="fill: #ffffff; opacity: 0.8; stroke: #cccccc; stroke-linejoin: miter"/>
    </g>
    <g id="line2d_20">
     <path d="M 773.580703 36.93625 
L 783.580703 36.93625 
L 793.580703 36.93625 
" style="fill: none; stroke: #1f77b4; stroke-width: 2; stroke-linecap: square"/>
     <g>
      <use xlink:href="#mf4706e9253" x="783.580703" y="36.93625" style="fill: #1f77b4; stroke: #1f77b4"/>
     </g>
    </g>
    <g id="text_15">
     <text style="font: 10px 'DejaVu Sans', 'Bitstream Vera Sans', 'Computer Modern Sans Serif', 'Lucida Grande', 'Verdana', 'Geneva', 'Lucid', 'Arial', 'Helvetica', 'Avant Garde', sans-serif; text-anchor: start" x="801.580703" y="40.43625" transform="rotate(-0 801.580703 40.43625)">clang-18</text>
    </g>
    <g id="line2d_21">
     <path d="M 773.580703 51.614375 
L 783.580703 51.614375 
L 793.580703 51.614375 
" style="fill: none; stroke: #ff7f0e; stroke-width: 2; stroke-linecap: square"/>
     <g>
      <use xlink:href="#mf0f6b82e23" x="783.580703" y="51.614375" style="fill: #ff7f0e; stroke: #ff7f0e"/>
     </g>
    </g>
    <g id="text_16">
     <text style="font: 10px 'DejaVu Sans', 'Bitstream Vera Sans', 'Computer Modern Sans Serif', 'Lucida Grande', 'Verdana', 'Geneva', 'Lucid', 'Arial', 'Helvetica', 'Avant Garde', sans-serif; text-anchor: start" x="801.580703" y="55.114375" transform="rotate(-0 801.580703 55.114375)">gcc-14</text>
    </g>
   </g>
  </g>
 </g>
 <defs>
  <clipPath id="pe5cd5956a7">
   <rect x="74.01375" y="23.837813" width="657.682812" height="505.470313"/>
  </clipPath>
 </defs>
</svg>
