<?xml version="1.0" encoding="utf-8" standalone="no"?>
<!DOCTYPE svg PUBLIC "-//W3C//DTD SVG 1.1//EN"
  "http://www.w3.org/Graphics/SVG/1.1/DTD/svg11.dtd">
<svg xmlns:xlink="http://www.w3.org/1999/xlink" width="855.536016pt" height="568.8pt" viewBox="0 0 855.536016 568.8" xmlns="http://www.w3.org/2000/svg" version="1.1">
 <metadata>
  <rdf:RDF xmlns:dc="http://purl.org/dc/elements/1.1/" xmlns:cc="http://creativecommons.org/ns#" xmlns:rdf="http://www.w3.org/1999/02/22-rdf-syntax-ns#">
   <cc:Work>
    <dc:type rdf:resource="http://purl.org/dc/dcmitype/StillImage"/>
    <dc:date>2025-08-17T04:15:57.617363</dc:date>
    <dc:format>image/svg+xml</dc:format>
    <dc:creator>
     <cc:Agent>
      <dc:title>Matplotlib v3.9.4, https://matplotlib.org/</dc:title>
     </cc:Agent>
    </dc:creator>
   </cc:Work>
  </rdf:RDF>
 </metadata>
 <defs>
  <style type="text/css">*{stroke-linejoin: round; stroke-linecap: butt}</style>
 </defs>
 <g id="figure_1">
  <g id="patch_1">
   <path d="M 0 568.8 
L 855.536016 568.8 
L 855.536016 0 
L 0 0 
z
" style="fill: #ffffff"/>
  </g>
  <g id="axes_1">
   <g id="patch_2">
    <path d="M 64.41375 529.308125 
L 708.734063 529.308125 
L 708.734063 23.837812 
L 64.41375 23.837812 
z
" style="fill: #ffffff"/>
   </g>
   <g id="matplotlib.axis_1">
    <g id="xtick_1">
     <g id="line2d_1">
      <path d="M 68.233831 529.308125 
L 68.233831 23.837812 
" clip-path="url(#p16573adba8)" style="fill: none; stroke: #b0b0b0; stroke-opacity: 0.3; stroke-width: 0.8; stroke-linecap: square"/>
     </g>
     <g id="line2d_2">
      <defs>
       <path id="m8c903f9ff6" d="M 0 0 
L 0 3.5 
" style="stroke: #000000; stroke-width: 0.8"/>
      </defs>
      <g>
       <use xlink:href="#m8c903f9ff6" x="68.233831" y="529.308125" style="stroke: #000000; stroke-width: 0.8"/>
      </g>
     </g>
     <g id="text_1">
      <text style="font: 10px 'DejaVu Sans', 'Bitstream Vera Sans', 'Computer Modern Sans Serif', 'Lucida Grande', 'Verdana', 'Geneva', 'Lucid', 'Arial', 'Helvetica', 'Avant Garde', sans-serif; text-anchor: middle" x="68.233831" y="543.906563" transform="rotate(-0 68.233831 543.906563)">70</text>
     </g>
    </g>
    <g id="xtick_2">
     <g id="line2d_3">
      <path d="M 195.569861 529.308125 
L 195.569861 23.837812 
" clip-path="url(#p16573adba8)" style="fill: none; stroke: #b0b0b0; stroke-opacity: 0.3; stroke-width: 0.8; stroke-linecap: square"/>
     </g>
     <g id="line2d_4">
      <g>
       <use xlink:href="#m8c903f9ff6" x="195.569861" y="529.308125" style="stroke: #000000; stroke-width: 0.8"/>
      </g>
     </g>
     <g id="text_2">
      <text style="font: 10px 'DejaVu Sans', 'Bitstream Vera Sans', 'Computer Modern Sans Serif', 'Lucida Grande', 'Verdana', 'Geneva', 'Lucid', 'Arial', 'Helvetica', 'Avant Garde', sans-serif; text-anchor: middle" x="195.569861" y="543.906563" transform="rotate(-0 195.569861 543.906563)">75</text>
     </g>
    </g>
    <g id="xtick_3">
     <g id="line2d_5">
      <path d="M 322.905891 529.308125 
L 322.905891 23.837812 
" clip-path="url(#p16573adba8)" style="fill: none; stroke: #b0b0b0; stroke-opacity: 0.3; stroke-width: 0.8; stroke-linecap: square"/>
     </g>
     <g id="line2d_6">
      <g>
       <use xlink:href="#m8c903f9ff6" x="322.905891" y="529.308125" style="stroke: #000000; stroke-width: 0.8"/>
      </g>
     </g>
     <g id="text_3">
      <text style="font: 10px 'DejaVu Sans', 'Bitstream Vera Sans', 'Computer Modern Sans Serif', 'Lucida Grande', 'Verdana', 'Geneva', 'Lucid', 'Arial', 'Helvetica', 'Avant Garde', sans-serif; text-anchor: middle" x="322.905891" y="543.906563" transform="rotate(-0 322.905891 543.906563)">80</text>
     </g>
    </g>
    <g id="xtick_4">
     <g id="line2d_7">
      <path d="M 450.241921 529.308125 
L 450.241921 23.837812 
" clip-path="url(#p16573adba8)" style="fill: none; stroke: #b0b0b0; stroke-opacity: 0.3; stroke-width: 0.8; stroke-linecap: square"/>
     </g>
     <g id="line2d_8">
      <g>
       <use xlink:href="#m8c903f9ff6" x="450.241921" y="529.308125" style="stroke: #000000; stroke-width: 0.8"/>
      </g>
     </g>
     <g id="text_4">
      <text style="font: 10px 'DejaVu Sans', 'Bitstream Vera Sans', 'Computer Modern Sans Serif', 'Lucida Grande', 'Verdana', 'Geneva', 'Lucid', 'Arial', 'Helvetica', 'Avant Garde', sans-serif; text-anchor: middle" x="450.241921" y="543.906563" transform="rotate(-0 450.241921 543.906563)">85</text>
     </g>
    </g>
    <g id="xtick_5">
     <g id="line2d_9">
      <path d="M 577.577951 529.308125 
L 577.577951 23.837812 
" clip-path="url(#p16573adba8)" style="fill: none; stroke: #b0b0b0; stroke-opacity: 0.3; stroke-width: 0.8; stroke-linecap: square"/>
     </g>
     <g id="line2d_10">
      <g>
       <use xlink:href="#m8c903f9ff6" x="577.577951" y="529.308125" style="stroke: #000000; stroke-width: 0.8"/>
      </g>
     </g>
     <g id="text_5">
      <text style="font: 10px 'DejaVu Sans', 'Bitstream Vera Sans', 'Computer Modern Sans Serif', 'Lucida Grande', 'Verdana', 'Geneva', 'Lucid', 'Arial', 'Helvetica', 'Avant Garde', sans-serif; text-anchor: middle" x="577.577951" y="543.906563" transform="rotate(-0 577.577951 543.906563)">90</text>
     </g>
    </g>
    <g id="xtick_6">
     <g id="line2d_11">
      <path d="M 704.913982 529.308125 
L 704.913982 23.837812 
" clip-path="url(#p16573adba8)" style="fill: none; stroke: #b0b0b0; stroke-opacity: 0.3; stroke-width: 0.8; stroke-linecap: square"/>
     </g>
     <g id="line2d_12">
      <g>
       <use xlink:href="#m8c903f9ff6" x="704.913982" y="529.308125" style="stroke: #000000; stroke-width: 0.8"/>
      </g>
     </g>
     <g id="text_6">
      <text style="font: 10px 'DejaVu Sans', 'Bitstream Vera Sans', 'Computer Modern Sans Serif', 'Lucida Grande', 'Verdana', 'Geneva', 'Lucid', 'Arial', 'Helvetica', 'Avant Garde', sans-serif; text-anchor: middle" x="704.913982" y="543.906563" transform="rotate(-0 704.913982 543.906563)">95</text>
     </g>
    </g>
    <g id="text_7">
     <text style="font: 12px 'DejaVu Sans', 'Bitstream Vera Sans', 'Computer Modern Sans Serif', 'Lucida Grande', 'Verdana', 'Geneva', 'Lucid', 'Arial', 'Helvetica', 'Avant Garde', sans-serif; text-anchor: middle" x="386.573906" y="559.104375" transform="rotate(-0 386.573906 559.104375)">Build Number</text>
    </g>
   </g>
   <g id="matplotlib.axis_2">
    <g id="ytick_1">
     <g id="line2d_13">
      <path d="M 64.41375 334.291639 
L 708.734063 334.291639 
" clip-path="url(#p16573adba8)" style="fill: none; stroke: #b0b0b0; stroke-opacity: 0.3; stroke-width: 0.8; stroke-linecap: square"/>
     </g>
     <g id="line2d_14">
      <defs>
       <path id="m41e79f4569" d="M 0 0 
L -3.5 0 
" style="stroke: #000000; stroke-width: 0.8"/>
      </defs>
      <g>
       <use xlink:href="#m41e79f4569" x="64.41375" y="334.291639" style="stroke: #000000; stroke-width: 0.8"/>
      </g>
     </g>
     <g id="text_8">
      <!-- $\mathdefault{10^{5}}$ -->
      <g transform="translate(39.81375 338.090858)">
       <text>
        <tspan style="font: 10px 'DejaVu Sans'" x="0 6.362305" y="-0.06406250000000036">10</tspan>
        <tspan style="font: 7px 'DejaVu Sans'" x="12.820312" y="-3.8921875000000004">5</tspan>
       </text>
      </g>
     </g>
    </g>
    <g id="ytick_2">
     <g id="line2d_15">
      <defs>
       <path id="m12af217a97" d="M 0 0 
L -2 0 
" style="stroke: #000000; stroke-width: 0.6"/>
      </defs>
      <g>
       <use xlink:href="#m12af217a97" x="64.41375" y="505.7097" style="stroke: #000000; stroke-width: 0.6"/>
      </g>
     </g>
     <g id="text_9">
      <!-- $\mathdefault{6\times10^{4}}$ -->
      <g transform="translate(22.81375 509.508919)">
       <text>
        <tspan style="font: 10px 'DejaVu Sans'" x="0 8.310547 18.637695 25" y="-0.06406250000000036">6×10</tspan>
        <tspan style="font: 7px 'DejaVu Sans'" x="31.458008" y="-3.8921875000000004">4</tspan>
       </text>
      </g>
     </g>
    </g>
    <g id="ytick_3">
     <g id="line2d_16">
      <g>
       <use xlink:href="#m12af217a97" x="64.41375" y="453.981264" style="stroke: #000000; stroke-width: 0.6"/>
      </g>
     </g>
    </g>
    <g id="ytick_4">
     <g id="line2d_17">
      <g>
       <use xlink:href="#m12af217a97" x="64.41375" y="409.172055" style="stroke: #000000; stroke-width: 0.6"/>
      </g>
     </g>
    </g>
    <g id="ytick_5">
     <g id="line2d_18">
      <g>
       <use xlink:href="#m12af217a97" x="64.41375" y="369.647531" style="stroke: #000000; stroke-width: 0.6"/>
      </g>
     </g>
    </g>
    <g id="ytick_6">
     <g id="line2d_19">
      <g>
       <use xlink:href="#m12af217a97" x="64.41375" y="101.691823" style="stroke: #000000; stroke-width: 0.6"/>
      </g>
     </g>
     <g id="text_10">
      <!-- $\mathdefault{2\times10^{5}}$ -->
      <g transform="translate(22.81375 105.491042)">
       <text>
        <tspan style="font: 10px 'DejaVu Sans'" x="0 8.310547 18.637695 25" y="-0.06406250000000036">2×10</tspan>
        <tspan style="font: 7px 'DejaVu Sans'" x="31.458008" y="-3.8921875000000004">5</tspan>
       </text>
      </g>
     </g>
    </g>
    <g id="text_11">
     <text style="font: 12px 'DejaVu Sans', 'Bitstream Vera Sans', 'Computer Modern Sans Serif', 'Lucida Grande', 'Verdana', 'Geneva', 'Lucid', 'Arial', 'Helvetica', 'Avant Garde', sans-serif; text-anchor: middle" x="16.318125" y="276.572969" transform="rotate(-90 16.318125 276.572969)">Median Elapsed Time (nanoseconds)</text>
    </g>
   </g>
   <g id="line2d_20">
    <path d="M 93.701037 46.813736 
L 119.168243 191.993804 
L 144.635449 203.583288 
L 170.102655 226.939206 
L 195.569861 249.293351 
L 221.037067 197.56458 
L 246.504273 217.514077 
L 271.971479 216.449271 
L 297.438685 213.414453 
L 322.905891 197.627325 
L 348.373097 255.061283 
L 373.840303 181.822836 
L 399.307509 48.546392 
L 424.774715 155.181473 
L 450.241921 255.056248 
L 475.709127 280.19621 
L 526.643539 250.483261 
L 552.110745 243.683337 
L 577.577951 243.288052 
L 603.045157 283.580852 
L 628.512364 283.575659 
L 653.97957 244.097042 
L 679.446776 245.4831 
" clip-path="url(#p16573adba8)" style="fill: none; stroke: #1f77b4; stroke-width: 2; stroke-linecap: square"/>
    <defs>
     <path id="m5631448474" d="M 0 3 
C 0.795609 3 1.55874 2.683901 2.12132 2.12132 
C 2.683901 1.55874 3 0.795609 3 0 
C 3 -0.795609 2.683901 -1.55874 2.12132 -2.12132 
C 1.55874 -2.683901 0.795609 -3 0 -3 
C -0.795609 -3 -1.55874 -2.683901 -2.12132 -2.12132 
C -2.683901 -1.55874 -3 -0.795609 -3 0 
C -3 0.795609 -2.683901 1.55874 -2.12132 2.12132 
C -1.55874 2.683901 -0.795609 3 0 3 
z
" style="stroke: #1f77b4"/>
    </defs>
    <g clip-path="url(#p16573adba8)">
     <use xlink:href="#m5631448474" x="93.701037" y="46.813736" style="fill: #1f77b4; stroke: #1f77b4"/>
     <use xlink:href="#m5631448474" x="119.168243" y="191.993804" style="fill: #1f77b4; stroke: #1f77b4"/>
     <use xlink:href="#m5631448474" x="144.635449" y="203.583288" style="fill: #1f77b4; stroke: #1f77b4"/>
     <use xlink:href="#m5631448474" x="170.102655" y="226.939206" style="fill: #1f77b4; stroke: #1f77b4"/>
     <use xlink:href="#m5631448474" x="195.569861" y="249.293351" style="fill: #1f77b4; stroke: #1f77b4"/>
     <use xlink:href="#m5631448474" x="221.037067" y="197.56458" style="fill: #1f77b4; stroke: #1f77b4"/>
     <use xlink:href="#m5631448474" x="246.504273" y="217.514077" style="fill: #1f77b4; stroke: #1f77b4"/>
     <use xlink:href="#m5631448474" x="271.971479" y="216.449271" style="fill: #1f77b4; stroke: #1f77b4"/>
     <use xlink:href="#m5631448474" x="297.438685" y="213.414453" style="fill: #1f77b4; stroke: #1f77b4"/>
     <use xlink:href="#m5631448474" x="322.905891" y="197.627325" style="fill: #1f77b4; stroke: #1f77b4"/>
     <use xlink:href="#m5631448474" x="348.373097" y="255.061283" style="fill: #1f77b4; stroke: #1f77b4"/>
     <use xlink:href="#m5631448474" x="373.840303" y="181.822836" style="fill: #1f77b4; stroke: #1f77b4"/>
     <use xlink:href="#m5631448474" x="399.307509" y="48.546392" style="fill: #1f77b4; stroke: #1f77b4"/>
     <use xlink:href="#m5631448474" x="424.774715" y="155.181473" style="fill: #1f77b4; stroke: #1f77b4"/>
     <use xlink:href="#m5631448474" x="450.241921" y="255.056248" style="fill: #1f77b4; stroke: #1f77b4"/>
     <use xlink:href="#m5631448474" x="475.709127" y="280.19621" style="fill: #1f77b4; stroke: #1f77b4"/>
     <use xlink:href="#m5631448474" x="526.643539" y="250.483261" style="fill: #1f77b4; stroke: #1f77b4"/>
     <use xlink:href="#m5631448474" x="552.110745" y="243.683337" style="fill: #1f77b4; stroke: #1f77b4"/>
     <use xlink:href="#m5631448474" x="577.577951" y="243.288052" style="fill: #1f77b4; stroke: #1f77b4"/>
     <use xlink:href="#m5631448474" x="603.045157" y="283.580852" style="fill: #1f77b4; stroke: #1f77b4"/>
     <use xlink:href="#m5631448474" x="628.512364" y="283.575659" style="fill: #1f77b4; stroke: #1f77b4"/>
     <use xlink:href="#m5631448474" x="653.97957" y="244.097042" style="fill: #1f77b4; stroke: #1f77b4"/>
     <use xlink:href="#m5631448474" x="679.446776" y="245.4831" style="fill: #1f77b4; stroke: #1f77b4"/>
    </g>
   </g>
   <g id="line2d_21">
    <path d="M 93.701037 240.963675 
L 119.168243 243.863598 
L 144.635449 244.090117 
L 170.102655 246.102545 
L 195.569861 239.261485 
L 221.037067 244.568784 
L 246.504273 239.50832 
L 271.971479 247.747045 
L 297.438685 241.093226 
L 322.905891 247.539422 
L 348.373097 242.14731 
L 373.840303 245.28202 
L 399.307509 248.914302 
L 424.774715 244.728064 
L 450.241921 249.45098 
L 475.709127 239.165431 
L 526.643539 244.109353 
L 552.110745 241.526717 
L 577.577951 244.443983 
L 603.045157 247.414482 
L 628.512364 239.866502 
L 653.97957 237.098844 
L 679.446776 237.606123 
" clip-path="url(#p16573adba8)" style="fill: none; stroke: #ff7f0e; stroke-width: 2; stroke-linecap: square"/>
    <defs>
     <path id="m49a6736307" d="M 0 3 
C 0.795609 3 1.55874 2.683901 2.12132 2.12132 
C 2.683901 1.55874 3 0.795609 3 0 
C 3 -0.795609 2.683901 -1.55874 2.12132 -2.12132 
C 1.55874 -2.683901 0.795609 -3 0 -3 
C -0.795609 -3 -1.55874 -2.683901 -2.12132 -2.12132 
C -2.683901 -1.55874 -3 -0.795609 -3 0 
C -3 0.795609 -2.683901 1.55874 -2.12132 2.12132 
C -1.55874 2.683901 -0.795609 3 0 3 
z
" style="stroke: #ff7f0e"/>
    </defs>
    <g clip-path="url(#p16573adba8)">
     <use xlink:href="#m49a6736307" x="93.701037" y="240.963675" style="fill: #ff7f0e; stroke: #ff7f0e"/>
     <use xlink:href="#m49a6736307" x="119.168243" y="243.863598" style="fill: #ff7f0e; stroke: #ff7f0e"/>
     <use xlink:href="#m49a6736307" x="144.635449" y="244.090117" style="fill: #ff7f0e; stroke: #ff7f0e"/>
     <use xlink:href="#m49a6736307" x="170.102655" y="246.102545" style="fill: #ff7f0e; stroke: #ff7f0e"/>
     <use xlink:href="#m49a6736307" x="195.569861" y="239.261485" style="fill: #ff7f0e; stroke: #ff7f0e"/>
     <use xlink:href="#m49a6736307" x="221.037067" y="244.568784" style="fill: #ff7f0e; stroke: #ff7f0e"/>
     <use xlink:href="#m49a6736307" x="246.504273" y="239.50832" style="fill: #ff7f0e; stroke: #ff7f0e"/>
     <use xlink:href="#m49a6736307" x="271.971479" y="247.747045" style="fill: #ff7f0e; stroke: #ff7f0e"/>
     <use xlink:href="#m49a6736307" x="297.438685" y="241.093226" style="fill: #ff7f0e; stroke: #ff7f0e"/>
     <use xlink:href="#m49a6736307" x="322.905891" y="247.539422" style="fill: #ff7f0e; stroke: #ff7f0e"/>
     <use xlink:href="#m49a6736307" x="348.373097" y="242.14731" style="fill: #ff7f0e; stroke: #ff7f0e"/>
     <use xlink:href="#m49a6736307" x="373.840303" y="245.28202" style="fill: #ff7f0e; stroke: #ff7f0e"/>
     <use xlink:href="#m49a6736307" x="399.307509" y="248.914302" style="fill: #ff7f0e; stroke: #ff7f0e"/>
     <use xlink:href="#m49a6736307" x="424.774715" y="244.728064" style="fill: #ff7f0e; stroke: #ff7f0e"/>
     <use xlink:href="#m49a6736307" x="450.241921" y="249.45098" style="fill: #ff7f0e; stroke: #ff7f0e"/>
     <use xlink:href="#m49a6736307" x="475.709127" y="239.165431" style="fill: #ff7f0e; stroke: #ff7f0e"/>
     <use xlink:href="#m49a6736307" x="526.643539" y="244.109353" style="fill: #ff7f0e; stroke: #ff7f0e"/>
     <use xlink:href="#m49a6736307" x="552.110745" y="241.526717" style="fill: #ff7f0e; stroke: #ff7f0e"/>
     <use xlink:href="#m49a6736307" x="577.577951" y="244.443983" style="fill: #ff7f0e; stroke: #ff7f0e"/>
     <use xlink:href="#m49a6736307" x="603.045157" y="247.414482" style="fill: #ff7f0e; stroke: #ff7f0e"/>
     <use xlink:href="#m49a6736307" x="628.512364" y="239.866502" style="fill: #ff7f0e; stroke: #ff7f0e"/>
     <use xlink:href="#m49a6736307" x="653.97957" y="237.098844" style="fill: #ff7f0e; stroke: #ff7f0e"/>
     <use xlink:href="#m49a6736307" x="679.446776" y="237.606123" style="fill: #ff7f0e; stroke: #ff7f0e"/>
    </g>
   </g>
   <g id="line2d_22">
    <path d="M 93.701037 414.551779 
L 119.168243 497.463966 
L 144.635449 414.97317 
L 170.102655 486.590358 
L 195.569861 488.58483 
L 221.037067 494.968464 
L 246.504273 431.17622 
L 271.971479 259.841298 
L 297.438685 504.165161 
L 322.905891 502.411088 
L 348.373097 448.322626 
L 373.840303 415.961606 
L 399.307509 472.805361 
L 450.241921 490.422322 
L 475.709127 432.542825 
L 526.643539 506.332202 
L 552.110745 259.267362 
L 577.577951 486.236577 
L 603.045157 481.772945 
L 628.512364 501.586919 
L 679.446776 503.321129 
" clip-path="url(#p16573adba8)" style="fill: none; stroke: #2ca02c; stroke-width: 2; stroke-linecap: square"/>
    <defs>
     <path id="mf56f1683e2" d="M 0 3 
C 0.795609 3 1.55874 2.683901 2.12132 2.12132 
C 2.683901 1.55874 3 0.795609 3 0 
C 3 -0.795609 2.683901 -1.55874 2.12132 -2.12132 
C 1.55874 -2.683901 0.795609 -3 0 -3 
C -0.795609 -3 -1.55874 -2.683901 -2.12132 -2.12132 
C -2.683901 -1.55874 -3 -0.795609 -3 0 
C -3 0.795609 -2.683901 1.55874 -2.12132 2.12132 
C -1.55874 2.683901 -0.795609 3 0 3 
z
" style="stroke: #2ca02c"/>
    </defs>
    <g clip-path="url(#p16573adba8)">
     <use xlink:href="#mf56f1683e2" x="93.701037" y="414.551779" style="fill: #2ca02c; stroke: #2ca02c"/>
     <use xlink:href="#mf56f1683e2" x="119.168243" y="497.463966" style="fill: #2ca02c; stroke: #2ca02c"/>
     <use xlink:href="#mf56f1683e2" x="144.635449" y="414.97317" style="fill: #2ca02c; stroke: #2ca02c"/>
     <use xlink:href="#mf56f1683e2" x="170.102655" y="486.590358" style="fill: #2ca02c; stroke: #2ca02c"/>
     <use xlink:href="#mf56f1683e2" x="195.569861" y="488.58483" style="fill: #2ca02c; stroke: #2ca02c"/>
     <use xlink:href="#mf56f1683e2" x="221.037067" y="494.968464" style="fill: #2ca02c; stroke: #2ca02c"/>
     <use xlink:href="#mf56f1683e2" x="246.504273" y="431.17622" style="fill: #2ca02c; stroke: #2ca02c"/>
     <use xlink:href="#mf56f1683e2" x="271.971479" y="259.841298" style="fill: #2ca02c; stroke: #2ca02c"/>
     <use xlink:href="#mf56f1683e2" x="297.438685" y="504.165161" style="fill: #2ca02c; stroke: #2ca02c"/>
     <use xlink:href="#mf56f1683e2" x="322.905891" y="502.411088" style="fill: #2ca02c; stroke: #2ca02c"/>
     <use xlink:href="#mf56f1683e2" x="348.373097" y="448.322626" style="fill: #2ca02c; stroke: #2ca02c"/>
     <use xlink:href="#mf56f1683e2" x="373.840303" y="415.961606" style="fill: #2ca02c; stroke: #2ca02c"/>
     <use xlink:href="#mf56f1683e2" x="399.307509" y="472.805361" style="fill: #2ca02c; stroke: #2ca02c"/>
     <use xlink:href="#mf56f1683e2" x="450.241921" y="490.422322" style="fill: #2ca02c; stroke: #2ca02c"/>
     <use xlink:href="#mf56f1683e2" x="475.709127" y="432.542825" style="fill: #2ca02c; stroke: #2ca02c"/>
     <use xlink:href="#mf56f1683e2" x="526.643539" y="506.332202" style="fill: #2ca02c; stroke: #2ca02c"/>
     <use xlink:href="#mf56f1683e2" x="552.110745" y="259.267362" style="fill: #2ca02c; stroke: #2ca02c"/>
     <use xlink:href="#mf56f1683e2" x="577.577951" y="486.236577" style="fill: #2ca02c; stroke: #2ca02c"/>
     <use xlink:href="#mf56f1683e2" x="603.045157" y="481.772945" style="fill: #2ca02c; stroke: #2ca02c"/>
     <use xlink:href="#mf56f1683e2" x="628.512364" y="501.586919" style="fill: #2ca02c; stroke: #2ca02c"/>
     <use xlink:href="#mf56f1683e2" x="679.446776" y="503.321129" style="fill: #2ca02c; stroke: #2ca02c"/>
    </g>
   </g>
   <g id="line2d_23">
    <path d="M 93.701037 459.866222 
L 119.168243 455.143871 
L 144.635449 459.420607 
L 170.102655 457.27833 
L 195.569861 460.575215 
L 221.037067 466.993507 
L 246.504273 458.812133 
L 271.971479 457.180552 
L 297.438685 460.001714 
L 322.905891 457.742438 
L 348.373097 461.889521 
L 373.840303 465.712231 
L 399.307509 421.868996 
L 450.241921 457.412458 
L 475.709127 454.1049 
L 526.643539 488.92886 
L 552.110745 458.206217 
L 577.577951 456.170075 
L 603.045157 461.129246 
L 628.512364 463.233246 
L 679.446776 459.084593 
" clip-path="url(#p16573adba8)" style="fill: none; stroke: #d62728; stroke-width: 2; stroke-linecap: square"/>
    <defs>
     <path id="m0f7641c0f8" d="M 0 3 
C 0.795609 3 1.55874 2.683901 2.12132 2.12132 
C 2.683901 1.55874 3 0.795609 3 0 
C 3 -0.795609 2.683901 -1.55874 2.12132 -2.12132 
C 1.55874 -2.683901 0.795609 -3 0 -3 
C -0.795609 -3 -1.55874 -2.683901 -2.12132 -2.12132 
C -2.683901 -1.55874 -3 -0.795609 -3 0 
C -3 0.795609 -2.683901 1.55874 -2.12132 2.12132 
C -1.55874 2.683901 -0.795609 3 0 3 
z
" style="stroke: #d62728"/>
    </defs>
    <g clip-path="url(#p16573adba8)">
     <use xlink:href="#m0f7641c0f8" x="93.701037" y="459.866222" style="fill: #d62728; stroke: #d62728"/>
     <use xlink:href="#m0f7641c0f8" x="119.168243" y="455.143871" style="fill: #d62728; stroke: #d62728"/>
     <use xlink:href="#m0f7641c0f8" x="144.635449" y="459.420607" style="fill: #d62728; stroke: #d62728"/>
     <use xlink:href="#m0f7641c0f8" x="170.102655" y="457.27833" style="fill: #d62728; stroke: #d62728"/>
     <use xlink:href="#m0f7641c0f8" x="195.569861" y="460.575215" style="fill: #d62728; stroke: #d62728"/>
     <use xlink:href="#m0f7641c0f8" x="221.037067" y="466.993507" style="fill: #d62728; stroke: #d62728"/>
     <use xlink:href="#m0f7641c0f8" x="246.504273" y="458.812133" style="fill: #d62728; stroke: #d62728"/>
     <use xlink:href="#m0f7641c0f8" x="271.971479" y="457.180552" style="fill: #d62728; stroke: #d62728"/>
     <use xlink:href="#m0f7641c0f8" x="297.438685" y="460.001714" style="fill: #d62728; stroke: #d62728"/>
     <use xlink:href="#m0f7641c0f8" x="322.905891" y="457.742438" style="fill: #d62728; stroke: #d62728"/>
     <use xlink:href="#m0f7641c0f8" x="348.373097" y="461.889521" style="fill: #d62728; stroke: #d62728"/>
     <use xlink:href="#m0f7641c0f8" x="373.840303" y="465.712231" style="fill: #d62728; stroke: #d62728"/>
     <use xlink:href="#m0f7641c0f8" x="399.307509" y="421.868996" style="fill: #d62728; stroke: #d62728"/>
     <use xlink:href="#m0f7641c0f8" x="450.241921" y="457.412458" style="fill: #d62728; stroke: #d62728"/>
     <use xlink:href="#m0f7641c0f8" x="475.709127" y="454.1049" style="fill: #d62728; stroke: #d62728"/>
     <use xlink:href="#m0f7641c0f8" x="526.643539" y="488.92886" style="fill: #d62728; stroke: #d62728"/>
     <use xlink:href="#m0f7641c0f8" x="552.110745" y="458.206217" style="fill: #d62728; stroke: #d62728"/>
     <use xlink:href="#m0f7641c0f8" x="577.577951" y="456.170075" style="fill: #d62728; stroke: #d62728"/>
     <use xlink:href="#m0f7641c0f8" x="603.045157" y="461.129246" style="fill: #d62728; stroke: #d62728"/>
     <use xlink:href="#m0f7641c0f8" x="628.512364" y="463.233246" style="fill: #d62728; stroke: #d62728"/>
     <use xlink:href="#m0f7641c0f8" x="679.446776" y="459.084593" style="fill: #d62728; stroke: #d62728"/>
    </g>
   </g>
   <g id="patch_3">
    <path d="M 64.41375 529.308125 
L 64.41375 23.837813 
" style="fill: none; stroke: #000000; stroke-width: 0.8; stroke-linejoin: miter; stroke-linecap: square"/>
   </g>
   <g id="patch_4">
    <path d="M 708.734063 529.308125 
L 708.734063 23.837813 
" style="fill: none; stroke: #000000; stroke-width: 0.8; stroke-linejoin: miter; stroke-linecap: square"/>
   </g>
   <g id="patch_5">
    <path d="M 64.41375 529.308125 
L 708.734062 529.308125 
" style="fill: none; stroke: #000000; stroke-width: 0.8; stroke-linejoin: miter; stroke-linecap: square"/>
   </g>
   <g id="patch_6">
    <path d="M 64.41375 23.837812 
L 708.734062 23.837812 
" style="fill: none; stroke: #000000; stroke-width: 0.8; stroke-linejoin: miter; stroke-linecap: square"/>
   </g>
   <g id="text_12">
    <text style="font: 700 14px 'DejaVu Sans', 'Bitstream Vera Sans', 'Computer Modern Sans Serif', 'Lucida Grande', 'Verdana', 'Geneva', 'Lucid', 'Arial', 'Helvetica', 'Avant Garde', sans-serif; text-anchor: middle" x="386.573906" y="17.837813" transform="rotate(-0 386.573906 17.837813)">Nestedparallel - Performance Trend</text>
   </g>
   <g id="legend_1">
    <g id="patch_7">
     <path d="M 747.950078 90.550312 
L 846.336016 90.550312 
Q 848.336016 90.550312 848.336016 88.550312 
L 848.336016 30.837812 
Q 848.336016 28.837812 846.336016 28.837812 
L 747.950078 28.837812 
Q 745.950078 28.837812 745.950078 30.837812 
L 745.950078 88.550312 
Q 745.950078 90.550312 747.950078 90.550312 
z
" style="fill: #ffffff; opacity: 0.8; stroke: #cccccc; stroke-linejoin: miter"/>
    </g>
    <g id="line2d_24">
     <path d="M 749.950078 36.93625 
L 759.950078 36.93625 
L 769.950078 36.93625 
" style="fill: none; stroke: #1f77b4; stroke-width: 2; stroke-linecap: square"/>
     <g>
      <use xlink:href="#m5631448474" x="759.950078" y="36.93625" style="fill: #1f77b4; stroke: #1f77b4"/>
     </g>
    </g>
    <g id="text_13">
     <text style="font: 10px 'DejaVu Sans', 'Bitstream Vera Sans', 'Computer Modern Sans Serif', 'Lucida Grande', 'Verdana', 'Geneva', 'Lucid', 'Arial', 'Helvetica', 'Avant Garde', sans-serif; text-anchor: start" x="777.950078" y="40.43625" transform="rotate(-0 777.950078 40.43625)">gcc-14.2 - V1</text>
    </g>
    <g id="line2d_25">
     <path d="M 749.950078 51.614375 
L 759.950078 51.614375 
L 769.950078 51.614375 
" style="fill: none; stroke: #ff7f0e; stroke-width: 2; stroke-linecap: square"/>
     <g>
      <use xlink:href="#m49a6736307" x="759.950078" y="51.614375" style="fill: #ff7f0e; stroke: #ff7f0e"/>
     </g>
    </g>
    <g id="text_14">
     <text style="font: 10px 'DejaVu Sans', 'Bitstream Vera Sans', 'Computer Modern Sans Serif', 'Lucida Grande', 'Verdana', 'Geneva', 'Lucid', 'Arial', 'Helvetica', 'Avant Garde', sans-serif; text-anchor: start" x="777.950078" y="55.114375" transform="rotate(-0 777.950078 55.114375)">gcc-14.2 - V2</text>
    </g>
    <g id="line2d_26">
     <path d="M 749.950078 66.2925 
L 759.950078 66.2925 
L 769.950078 66.2925 
" style="fill: none; stroke: #2ca02c; stroke-width: 2; stroke-linecap: square"/>
     <g>
      <use xlink:href="#mf56f1683e2" x="759.950078" y="66.2925" style="fill: #2ca02c; stroke: #2ca02c"/>
     </g>
    </g>
    <g id="text_15">
     <text style="font: 10px 'DejaVu Sans', 'Bitstream Vera Sans', 'Computer Modern Sans Serif', 'Lucida Grande', 'Verdana', 'Geneva', 'Lucid', 'Arial', 'Helvetica', 'Avant Garde', sans-serif; text-anchor: start" x="777.950078" y="69.7925" transform="rotate(-0 777.950078 69.7925)">gcc-4.2 - V1</text>
    </g>
    <g id="line2d_27">
     <path d="M 749.950078 80.970625 
L 759.950078 80.970625 
L 769.950078 80.970625 
" style="fill: none; stroke: #d62728; stroke-width: 2; stroke-linecap: square"/>
     <g>
      <use xlink:href="#m0f7641c0f8" x="759.950078" y="80.970625" style="fill: #d62728; stroke: #d62728"/>
     </g>
    </g>
    <g id="text_16">
     <text style="font: 10px 'DejaVu Sans', 'Bitstream Vera Sans', 'Computer Modern Sans Serif', 'Lucida Grande', 'Verdana', 'Geneva', 'Lucid', 'Arial', 'Helvetica', 'Avant Garde', sans-serif; text-anchor: start" x="777.950078" y="84.470625" transform="rotate(-0 777.950078 84.470625)">gcc-4.2 - V2</text>
    </g>
   </g>
  </g>
 </g>
 <defs>
  <clipPath id="p16573adba8">
   <rect x="64.41375" y="23.837813" width="644.320312" height="505.470313"/>
  </clipPath>
 </defs>
</svg>
