<?xml version="1.0" encoding="utf-8" standalone="no"?>
<!DOCTYPE svg PUBLIC "-//W3C//DTD SVG 1.1//EN"
  "http://www.w3.org/Graphics/SVG/1.1/DTD/svg11.dtd">
<svg xmlns:xlink="http://www.w3.org/1999/xlink" width="855.204687pt" height="568.8pt" viewBox="0 0 855.204687 568.8" xmlns="http://www.w3.org/2000/svg" version="1.1">
 <metadata>
  <rdf:RDF xmlns:dc="http://purl.org/dc/elements/1.1/" xmlns:cc="http://creativecommons.org/ns#" xmlns:rdf="http://www.w3.org/1999/02/22-rdf-syntax-ns#">
   <cc:Work>
    <dc:type rdf:resource="http://purl.org/dc/dcmitype/StillImage"/>
    <dc:date>2025-08-13T22:07:40.241037</dc:date>
    <dc:format>image/svg+xml</dc:format>
    <dc:creator>
     <cc:Agent>
      <dc:title>Matplotlib v3.9.4, https://matplotlib.org/</dc:title>
     </cc:Agent>
    </dc:creator>
   </cc:Work>
  </rdf:RDF>
 </metadata>
 <defs>
  <style type="text/css">*{stroke-linejoin: round; stroke-linecap: butt}</style>
 </defs>
 <g id="figure_1">
  <g id="patch_1">
   <path d="M 0 568.8 
L 855.204687 568.8 
L 855.204687 0 
L 0 0 
z
" style="fill: #ffffff"/>
  </g>
  <g id="axes_1">
   <g id="patch_2">
    <path d="M 64.41375 529.308125 
L 702.1075 529.308125 
L 702.1075 23.837812 
L 64.41375 23.837812 
z
" style="fill: #ffffff"/>
   </g>
   <g id="matplotlib.axis_1">
    <g id="xtick_1">
     <g id="line2d_1">
      <path d="M 132.047936 529.308125 
L 132.047936 23.837812 
" clip-path="url(#pdd1d1898ad)" style="fill: none; stroke: #b0b0b0; stroke-opacity: 0.3; stroke-width: 0.8; stroke-linecap: square"/>
     </g>
     <g id="line2d_2">
      <defs>
       <path id="m3e8fe959c1" d="M 0 0 
L 0 3.5 
" style="stroke: #000000; stroke-width: 0.8"/>
      </defs>
      <g>
       <use xlink:href="#m3e8fe959c1" x="132.047936" y="529.308125" style="stroke: #000000; stroke-width: 0.8"/>
      </g>
     </g>
     <g id="text_1">
      <text style="font: 10px 'DejaVu Sans', 'Bitstream Vera Sans', 'Computer Modern Sans Serif', 'Lucida Grande', 'Verdana', 'Geneva', 'Lucid', 'Arial', 'Helvetica', 'Avant Garde', sans-serif; text-anchor: middle" x="132.047936" y="543.906563" transform="rotate(-0 132.047936 543.906563)">72</text>
     </g>
    </g>
    <g id="xtick_2">
     <g id="line2d_3">
      <path d="M 209.344148 529.308125 
L 209.344148 23.837812 
" clip-path="url(#pdd1d1898ad)" style="fill: none; stroke: #b0b0b0; stroke-opacity: 0.3; stroke-width: 0.8; stroke-linecap: square"/>
     </g>
     <g id="line2d_4">
      <g>
       <use xlink:href="#m3e8fe959c1" x="209.344148" y="529.308125" style="stroke: #000000; stroke-width: 0.8"/>
      </g>
     </g>
     <g id="text_2">
      <text style="font: 10px 'DejaVu Sans', 'Bitstream Vera Sans', 'Computer Modern Sans Serif', 'Lucida Grande', 'Verdana', 'Geneva', 'Lucid', 'Arial', 'Helvetica', 'Avant Garde', sans-serif; text-anchor: middle" x="209.344148" y="543.906563" transform="rotate(-0 209.344148 543.906563)">74</text>
     </g>
    </g>
    <g id="xtick_3">
     <g id="line2d_5">
      <path d="M 286.64036 529.308125 
L 286.64036 23.837812 
" clip-path="url(#pdd1d1898ad)" style="fill: none; stroke: #b0b0b0; stroke-opacity: 0.3; stroke-width: 0.8; stroke-linecap: square"/>
     </g>
     <g id="line2d_6">
      <g>
       <use xlink:href="#m3e8fe959c1" x="286.64036" y="529.308125" style="stroke: #000000; stroke-width: 0.8"/>
      </g>
     </g>
     <g id="text_3">
      <text style="font: 10px 'DejaVu Sans', 'Bitstream Vera Sans', 'Computer Modern Sans Serif', 'Lucida Grande', 'Verdana', 'Geneva', 'Lucid', 'Arial', 'Helvetica', 'Avant Garde', sans-serif; text-anchor: middle" x="286.64036" y="543.906563" transform="rotate(-0 286.64036 543.906563)">76</text>
     </g>
    </g>
    <g id="xtick_4">
     <g id="line2d_7">
      <path d="M 363.936572 529.308125 
L 363.936572 23.837812 
" clip-path="url(#pdd1d1898ad)" style="fill: none; stroke: #b0b0b0; stroke-opacity: 0.3; stroke-width: 0.8; stroke-linecap: square"/>
     </g>
     <g id="line2d_8">
      <g>
       <use xlink:href="#m3e8fe959c1" x="363.936572" y="529.308125" style="stroke: #000000; stroke-width: 0.8"/>
      </g>
     </g>
     <g id="text_4">
      <text style="font: 10px 'DejaVu Sans', 'Bitstream Vera Sans', 'Computer Modern Sans Serif', 'Lucida Grande', 'Verdana', 'Geneva', 'Lucid', 'Arial', 'Helvetica', 'Avant Garde', sans-serif; text-anchor: middle" x="363.936572" y="543.906563" transform="rotate(-0 363.936572 543.906563)">78</text>
     </g>
    </g>
    <g id="xtick_5">
     <g id="line2d_9">
      <path d="M 441.232784 529.308125 
L 441.232784 23.837812 
" clip-path="url(#pdd1d1898ad)" style="fill: none; stroke: #b0b0b0; stroke-opacity: 0.3; stroke-width: 0.8; stroke-linecap: square"/>
     </g>
     <g id="line2d_10">
      <g>
       <use xlink:href="#m3e8fe959c1" x="441.232784" y="529.308125" style="stroke: #000000; stroke-width: 0.8"/>
      </g>
     </g>
     <g id="text_5">
      <text style="font: 10px 'DejaVu Sans', 'Bitstream Vera Sans', 'Computer Modern Sans Serif', 'Lucida Grande', 'Verdana', 'Geneva', 'Lucid', 'Arial', 'Helvetica', 'Avant Garde', sans-serif; text-anchor: middle" x="441.232784" y="543.906563" transform="rotate(-0 441.232784 543.906563)">80</text>
     </g>
    </g>
    <g id="xtick_6">
     <g id="line2d_11">
      <path d="M 518.528996 529.308125 
L 518.528996 23.837812 
" clip-path="url(#pdd1d1898ad)" style="fill: none; stroke: #b0b0b0; stroke-opacity: 0.3; stroke-width: 0.8; stroke-linecap: square"/>
     </g>
     <g id="line2d_12">
      <g>
       <use xlink:href="#m3e8fe959c1" x="518.528996" y="529.308125" style="stroke: #000000; stroke-width: 0.8"/>
      </g>
     </g>
     <g id="text_6">
      <text style="font: 10px 'DejaVu Sans', 'Bitstream Vera Sans', 'Computer Modern Sans Serif', 'Lucida Grande', 'Verdana', 'Geneva', 'Lucid', 'Arial', 'Helvetica', 'Avant Garde', sans-serif; text-anchor: middle" x="518.528996" y="543.906563" transform="rotate(-0 518.528996 543.906563)">82</text>
     </g>
    </g>
    <g id="xtick_7">
     <g id="line2d_13">
      <path d="M 595.825208 529.308125 
L 595.825208 23.837812 
" clip-path="url(#pdd1d1898ad)" style="fill: none; stroke: #b0b0b0; stroke-opacity: 0.3; stroke-width: 0.8; stroke-linecap: square"/>
     </g>
     <g id="line2d_14">
      <g>
       <use xlink:href="#m3e8fe959c1" x="595.825208" y="529.308125" style="stroke: #000000; stroke-width: 0.8"/>
      </g>
     </g>
     <g id="text_7">
      <text style="font: 10px 'DejaVu Sans', 'Bitstream Vera Sans', 'Computer Modern Sans Serif', 'Lucida Grande', 'Verdana', 'Geneva', 'Lucid', 'Arial', 'Helvetica', 'Avant Garde', sans-serif; text-anchor: middle" x="595.825208" y="543.906563" transform="rotate(-0 595.825208 543.906563)">84</text>
     </g>
    </g>
    <g id="xtick_8">
     <g id="line2d_15">
      <path d="M 673.12142 529.308125 
L 673.12142 23.837812 
" clip-path="url(#pdd1d1898ad)" style="fill: none; stroke: #b0b0b0; stroke-opacity: 0.3; stroke-width: 0.8; stroke-linecap: square"/>
     </g>
     <g id="line2d_16">
      <g>
       <use xlink:href="#m3e8fe959c1" x="673.12142" y="529.308125" style="stroke: #000000; stroke-width: 0.8"/>
      </g>
     </g>
     <g id="text_8">
      <text style="font: 10px 'DejaVu Sans', 'Bitstream Vera Sans', 'Computer Modern Sans Serif', 'Lucida Grande', 'Verdana', 'Geneva', 'Lucid', 'Arial', 'Helvetica', 'Avant Garde', sans-serif; text-anchor: middle" x="673.12142" y="543.906563" transform="rotate(-0 673.12142 543.906563)">86</text>
     </g>
    </g>
    <g id="text_9">
     <text style="font: 12px 'DejaVu Sans', 'Bitstream Vera Sans', 'Computer Modern Sans Serif', 'Lucida Grande', 'Verdana', 'Geneva', 'Lucid', 'Arial', 'Helvetica', 'Avant Garde', sans-serif; text-anchor: middle" x="383.260625" y="559.104375" transform="rotate(-0 383.260625 559.104375)">Build Number</text>
    </g>
   </g>
   <g id="matplotlib.axis_2">
    <g id="ytick_1">
     <g id="line2d_17">
      <defs>
       <path id="m2dba707e9e" d="M 0 0 
L -2 0 
" style="stroke: #000000; stroke-width: 0.6"/>
      </defs>
      <g>
       <use xlink:href="#m2dba707e9e" x="64.41375" y="417.931553" style="stroke: #000000; stroke-width: 0.6"/>
      </g>
     </g>
     <g id="text_10">
      <!-- $\mathdefault{3\times10^{5}}$ -->
      <g transform="translate(22.81375 421.730772)">
       <text>
        <tspan style="font: 10px 'DejaVu Sans'" x="0 8.310547 18.637695 25" y="-0.06406250000000036">3×10</tspan>
        <tspan style="font: 7px 'DejaVu Sans'" x="31.458008" y="-3.8921875000000004">5</tspan>
       </text>
      </g>
     </g>
    </g>
    <g id="ytick_2">
     <g id="line2d_18">
      <g>
       <use xlink:href="#m2dba707e9e" x="64.41375" y="310.891274" style="stroke: #000000; stroke-width: 0.6"/>
      </g>
     </g>
     <g id="text_11">
      <!-- $\mathdefault{4\times10^{5}}$ -->
      <g transform="translate(22.81375 314.690493)">
       <text>
        <tspan style="font: 10px 'DejaVu Sans'" x="0 8.310547 18.637695 25" y="-0.06406250000000036">4×10</tspan>
        <tspan style="font: 7px 'DejaVu Sans'" x="31.458008" y="-3.8921875000000004">5</tspan>
       </text>
      </g>
     </g>
    </g>
    <g id="ytick_3">
     <g id="line2d_19">
      <g>
       <use xlink:href="#m2dba707e9e" x="64.41375" y="227.864383" style="stroke: #000000; stroke-width: 0.6"/>
      </g>
     </g>
    </g>
    <g id="ytick_4">
     <g id="line2d_20">
      <g>
       <use xlink:href="#m2dba707e9e" x="64.41375" y="160.026474" style="stroke: #000000; stroke-width: 0.6"/>
      </g>
     </g>
     <g id="text_12">
      <!-- $\mathdefault{6\times10^{5}}$ -->
      <g transform="translate(22.81375 163.825693)">
       <text>
        <tspan style="font: 10px 'DejaVu Sans'" x="0 8.310547 18.637695 25" y="-0.06406250000000036">6×10</tspan>
        <tspan style="font: 7px 'DejaVu Sans'" x="31.458008" y="-3.8921875000000004">5</tspan>
       </text>
      </g>
     </g>
    </g>
    <g id="ytick_5">
     <g id="line2d_21">
      <g>
       <use xlink:href="#m2dba707e9e" x="64.41375" y="102.670339" style="stroke: #000000; stroke-width: 0.6"/>
      </g>
     </g>
    </g>
    <g id="ytick_6">
     <g id="line2d_22">
      <g>
       <use xlink:href="#m2dba707e9e" x="64.41375" y="52.986195" style="stroke: #000000; stroke-width: 0.6"/>
      </g>
     </g>
    </g>
    <g id="text_13">
     <text style="font: 12px 'DejaVu Sans', 'Bitstream Vera Sans', 'Computer Modern Sans Serif', 'Lucida Grande', 'Verdana', 'Geneva', 'Lucid', 'Arial', 'Helvetica', 'Avant Garde', sans-serif; text-anchor: middle" x="16.318125" y="276.572969" transform="rotate(-90 16.318125 276.572969)">Median Elapsed Time (nanoseconds)</text>
    </g>
   </g>
   <g id="line2d_23">
    <path d="M 93.39983 483.553279 
L 132.047936 269.208054 
L 170.696042 288.302997 
L 209.344148 403.920201 
L 247.992254 271.252944 
L 286.64036 481.045017 
L 325.288466 402.633762 
L 363.936572 205.499226 
L 402.584678 263.244209 
L 441.232784 484.122276 
L 479.88089 434.19491 
L 518.528996 268.330075 
L 557.177102 459.135289 
L 595.825208 376.517734 
L 634.473314 344.981325 
L 673.12142 487.030711 
" clip-path="url(#pdd1d1898ad)" style="fill: none; stroke: #1f77b4; stroke-width: 2; stroke-linecap: square"/>
    <defs>
     <path id="m5462372822" d="M 0 3 
C 0.795609 3 1.55874 2.683901 2.12132 2.12132 
C 2.683901 1.55874 3 0.795609 3 0 
C 3 -0.795609 2.683901 -1.55874 2.12132 -2.12132 
C 1.55874 -2.683901 0.795609 -3 0 -3 
C -0.795609 -3 -1.55874 -2.683901 -2.12132 -2.12132 
C -2.683901 -1.55874 -3 -0.795609 -3 0 
C -3 0.795609 -2.683901 1.55874 -2.12132 2.12132 
C -1.55874 2.683901 -0.795609 3 0 3 
z
" style="stroke: #1f77b4"/>
    </defs>
    <g clip-path="url(#pdd1d1898ad)">
     <use xlink:href="#m5462372822" x="93.39983" y="483.553279" style="fill: #1f77b4; stroke: #1f77b4"/>
     <use xlink:href="#m5462372822" x="132.047936" y="269.208054" style="fill: #1f77b4; stroke: #1f77b4"/>
     <use xlink:href="#m5462372822" x="170.696042" y="288.302997" style="fill: #1f77b4; stroke: #1f77b4"/>
     <use xlink:href="#m5462372822" x="209.344148" y="403.920201" style="fill: #1f77b4; stroke: #1f77b4"/>
     <use xlink:href="#m5462372822" x="247.992254" y="271.252944" style="fill: #1f77b4; stroke: #1f77b4"/>
     <use xlink:href="#m5462372822" x="286.64036" y="481.045017" style="fill: #1f77b4; stroke: #1f77b4"/>
     <use xlink:href="#m5462372822" x="325.288466" y="402.633762" style="fill: #1f77b4; stroke: #1f77b4"/>
     <use xlink:href="#m5462372822" x="363.936572" y="205.499226" style="fill: #1f77b4; stroke: #1f77b4"/>
     <use xlink:href="#m5462372822" x="402.584678" y="263.244209" style="fill: #1f77b4; stroke: #1f77b4"/>
     <use xlink:href="#m5462372822" x="441.232784" y="484.122276" style="fill: #1f77b4; stroke: #1f77b4"/>
     <use xlink:href="#m5462372822" x="479.88089" y="434.19491" style="fill: #1f77b4; stroke: #1f77b4"/>
     <use xlink:href="#m5462372822" x="518.528996" y="268.330075" style="fill: #1f77b4; stroke: #1f77b4"/>
     <use xlink:href="#m5462372822" x="557.177102" y="459.135289" style="fill: #1f77b4; stroke: #1f77b4"/>
     <use xlink:href="#m5462372822" x="595.825208" y="376.517734" style="fill: #1f77b4; stroke: #1f77b4"/>
     <use xlink:href="#m5462372822" x="634.473314" y="344.981325" style="fill: #1f77b4; stroke: #1f77b4"/>
     <use xlink:href="#m5462372822" x="673.12142" y="487.030711" style="fill: #1f77b4; stroke: #1f77b4"/>
    </g>
   </g>
   <g id="line2d_24">
    <path d="M 93.39983 485.161982 
L 132.047936 270.024845 
L 170.696042 276.587808 
L 209.344148 452.901646 
L 247.992254 328.986032 
L 286.64036 488.067355 
L 325.288466 485.194673 
L 363.936572 444.516485 
L 402.584678 367.10592 
L 441.232784 346.160961 
L 479.88089 321.065753 
L 518.528996 392.392056 
L 557.177102 481.874171 
L 595.825208 264.181545 
L 634.473314 309.597206 
L 673.12142 485.899712 
" clip-path="url(#pdd1d1898ad)" style="fill: none; stroke: #ff7f0e; stroke-width: 2; stroke-linecap: square"/>
    <defs>
     <path id="ma96153b25a" d="M 0 3 
C 0.795609 3 1.55874 2.683901 2.12132 2.12132 
C 2.683901 1.55874 3 0.795609 3 0 
C 3 -0.795609 2.683901 -1.55874 2.12132 -2.12132 
C 1.55874 -2.683901 0.795609 -3 0 -3 
C -0.795609 -3 -1.55874 -2.683901 -2.12132 -2.12132 
C -2.683901 -1.55874 -3 -0.795609 -3 0 
C -3 0.795609 -2.683901 1.55874 -2.12132 2.12132 
C -1.55874 2.683901 -0.795609 3 0 3 
z
" style="stroke: #ff7f0e"/>
    </defs>
    <g clip-path="url(#pdd1d1898ad)">
     <use xlink:href="#ma96153b25a" x="93.39983" y="485.161982" style="fill: #ff7f0e; stroke: #ff7f0e"/>
     <use xlink:href="#ma96153b25a" x="132.047936" y="270.024845" style="fill: #ff7f0e; stroke: #ff7f0e"/>
     <use xlink:href="#ma96153b25a" x="170.696042" y="276.587808" style="fill: #ff7f0e; stroke: #ff7f0e"/>
     <use xlink:href="#ma96153b25a" x="209.344148" y="452.901646" style="fill: #ff7f0e; stroke: #ff7f0e"/>
     <use xlink:href="#ma96153b25a" x="247.992254" y="328.986032" style="fill: #ff7f0e; stroke: #ff7f0e"/>
     <use xlink:href="#ma96153b25a" x="286.64036" y="488.067355" style="fill: #ff7f0e; stroke: #ff7f0e"/>
     <use xlink:href="#ma96153b25a" x="325.288466" y="485.194673" style="fill: #ff7f0e; stroke: #ff7f0e"/>
     <use xlink:href="#ma96153b25a" x="363.936572" y="444.516485" style="fill: #ff7f0e; stroke: #ff7f0e"/>
     <use xlink:href="#ma96153b25a" x="402.584678" y="367.10592" style="fill: #ff7f0e; stroke: #ff7f0e"/>
     <use xlink:href="#ma96153b25a" x="441.232784" y="346.160961" style="fill: #ff7f0e; stroke: #ff7f0e"/>
     <use xlink:href="#ma96153b25a" x="479.88089" y="321.065753" style="fill: #ff7f0e; stroke: #ff7f0e"/>
     <use xlink:href="#ma96153b25a" x="518.528996" y="392.392056" style="fill: #ff7f0e; stroke: #ff7f0e"/>
     <use xlink:href="#ma96153b25a" x="557.177102" y="481.874171" style="fill: #ff7f0e; stroke: #ff7f0e"/>
     <use xlink:href="#ma96153b25a" x="595.825208" y="264.181545" style="fill: #ff7f0e; stroke: #ff7f0e"/>
     <use xlink:href="#ma96153b25a" x="634.473314" y="309.597206" style="fill: #ff7f0e; stroke: #ff7f0e"/>
     <use xlink:href="#ma96153b25a" x="673.12142" y="485.899712" style="fill: #ff7f0e; stroke: #ff7f0e"/>
    </g>
   </g>
   <g id="line2d_25">
    <path d="M 93.39983 501.049924 
L 132.047936 384.798533 
L 170.696042 252.778835 
L 209.344148 499.148969 
L 247.992254 473.210519 
L 286.64036 497.069381 
L 325.288466 495.683814 
L 363.936572 499.397134 
L 402.584678 499.327668 
L 441.232784 492.104969 
L 479.88089 497.999812 
L 518.528996 497.943062 
L 557.177102 498.175499 
L 595.825208 398.933714 
L 634.473314 490.249508 
L 673.12142 499.190472 
" clip-path="url(#pdd1d1898ad)" style="fill: none; stroke: #2ca02c; stroke-width: 2; stroke-linecap: square"/>
    <defs>
     <path id="m0ea04f68d6" d="M 0 3 
C 0.795609 3 1.55874 2.683901 2.12132 2.12132 
C 2.683901 1.55874 3 0.795609 3 0 
C 3 -0.795609 2.683901 -1.55874 2.12132 -2.12132 
C 1.55874 -2.683901 0.795609 -3 0 -3 
C -0.795609 -3 -1.55874 -2.683901 -2.12132 -2.12132 
C -2.683901 -1.55874 -3 -0.795609 -3 0 
C -3 0.795609 -2.683901 1.55874 -2.12132 2.12132 
C -1.55874 2.683901 -0.795609 3 0 3 
z
" style="stroke: #2ca02c"/>
    </defs>
    <g clip-path="url(#pdd1d1898ad)">
     <use xlink:href="#m0ea04f68d6" x="93.39983" y="501.049924" style="fill: #2ca02c; stroke: #2ca02c"/>
     <use xlink:href="#m0ea04f68d6" x="132.047936" y="384.798533" style="fill: #2ca02c; stroke: #2ca02c"/>
     <use xlink:href="#m0ea04f68d6" x="170.696042" y="252.778835" style="fill: #2ca02c; stroke: #2ca02c"/>
     <use xlink:href="#m0ea04f68d6" x="209.344148" y="499.148969" style="fill: #2ca02c; stroke: #2ca02c"/>
     <use xlink:href="#m0ea04f68d6" x="247.992254" y="473.210519" style="fill: #2ca02c; stroke: #2ca02c"/>
     <use xlink:href="#m0ea04f68d6" x="286.64036" y="497.069381" style="fill: #2ca02c; stroke: #2ca02c"/>
     <use xlink:href="#m0ea04f68d6" x="325.288466" y="495.683814" style="fill: #2ca02c; stroke: #2ca02c"/>
     <use xlink:href="#m0ea04f68d6" x="363.936572" y="499.397134" style="fill: #2ca02c; stroke: #2ca02c"/>
     <use xlink:href="#m0ea04f68d6" x="402.584678" y="499.327668" style="fill: #2ca02c; stroke: #2ca02c"/>
     <use xlink:href="#m0ea04f68d6" x="441.232784" y="492.104969" style="fill: #2ca02c; stroke: #2ca02c"/>
     <use xlink:href="#m0ea04f68d6" x="479.88089" y="497.999812" style="fill: #2ca02c; stroke: #2ca02c"/>
     <use xlink:href="#m0ea04f68d6" x="518.528996" y="497.943062" style="fill: #2ca02c; stroke: #2ca02c"/>
     <use xlink:href="#m0ea04f68d6" x="557.177102" y="498.175499" style="fill: #2ca02c; stroke: #2ca02c"/>
     <use xlink:href="#m0ea04f68d6" x="595.825208" y="398.933714" style="fill: #2ca02c; stroke: #2ca02c"/>
     <use xlink:href="#m0ea04f68d6" x="634.473314" y="490.249508" style="fill: #2ca02c; stroke: #2ca02c"/>
     <use xlink:href="#m0ea04f68d6" x="673.12142" y="499.190472" style="fill: #2ca02c; stroke: #2ca02c"/>
    </g>
   </g>
   <g id="line2d_26">
    <path d="M 93.39983 502.394177 
L 132.047936 500.211781 
L 170.696042 505.570136 
L 209.344148 504.995926 
L 247.992254 284.10175 
L 286.64036 286.174509 
L 325.288466 506.332202 
L 363.936572 402.605553 
L 402.584678 499.264234 
L 441.232784 502.356672 
L 479.88089 505.068497 
L 518.528996 502.832851 
L 557.177102 46.813736 
L 634.473314 460.236728 
L 673.12142 501.95773 
" clip-path="url(#pdd1d1898ad)" style="fill: none; stroke: #d62728; stroke-width: 2; stroke-linecap: square"/>
    <defs>
     <path id="m019a52b64a" d="M 0 3 
C 0.795609 3 1.55874 2.683901 2.12132 2.12132 
C 2.683901 1.55874 3 0.795609 3 0 
C 3 -0.795609 2.683901 -1.55874 2.12132 -2.12132 
C 1.55874 -2.683901 0.795609 -3 0 -3 
C -0.795609 -3 -1.55874 -2.683901 -2.12132 -2.12132 
C -2.683901 -1.55874 -3 -0.795609 -3 0 
C -3 0.795609 -2.683901 1.55874 -2.12132 2.12132 
C -1.55874 2.683901 -0.795609 3 0 3 
z
" style="stroke: #d62728"/>
    </defs>
    <g clip-path="url(#pdd1d1898ad)">
     <use xlink:href="#m019a52b64a" x="93.39983" y="502.394177" style="fill: #d62728; stroke: #d62728"/>
     <use xlink:href="#m019a52b64a" x="132.047936" y="500.211781" style="fill: #d62728; stroke: #d62728"/>
     <use xlink:href="#m019a52b64a" x="170.696042" y="505.570136" style="fill: #d62728; stroke: #d62728"/>
     <use xlink:href="#m019a52b64a" x="209.344148" y="504.995926" style="fill: #d62728; stroke: #d62728"/>
     <use xlink:href="#m019a52b64a" x="247.992254" y="284.10175" style="fill: #d62728; stroke: #d62728"/>
     <use xlink:href="#m019a52b64a" x="286.64036" y="286.174509" style="fill: #d62728; stroke: #d62728"/>
     <use xlink:href="#m019a52b64a" x="325.288466" y="506.332202" style="fill: #d62728; stroke: #d62728"/>
     <use xlink:href="#m019a52b64a" x="363.936572" y="402.605553" style="fill: #d62728; stroke: #d62728"/>
     <use xlink:href="#m019a52b64a" x="402.584678" y="499.264234" style="fill: #d62728; stroke: #d62728"/>
     <use xlink:href="#m019a52b64a" x="441.232784" y="502.356672" style="fill: #d62728; stroke: #d62728"/>
     <use xlink:href="#m019a52b64a" x="479.88089" y="505.068497" style="fill: #d62728; stroke: #d62728"/>
     <use xlink:href="#m019a52b64a" x="518.528996" y="502.832851" style="fill: #d62728; stroke: #d62728"/>
     <use xlink:href="#m019a52b64a" x="557.177102" y="46.813736" style="fill: #d62728; stroke: #d62728"/>
     <use xlink:href="#m019a52b64a" x="634.473314" y="460.236728" style="fill: #d62728; stroke: #d62728"/>
     <use xlink:href="#m019a52b64a" x="673.12142" y="501.95773" style="fill: #d62728; stroke: #d62728"/>
    </g>
   </g>
   <g id="line2d_27">
    <path d="M 93.39983 495.204173 
L 132.047936 460.625327 
L 170.696042 498.118722 
L 209.344148 490.722499 
L 247.992254 355.794967 
L 286.64036 170.312501 
L 325.288466 501.847843 
L 363.936572 470.295072 
L 402.584678 356.30128 
L 441.232784 497.765641 
L 479.88089 504.124308 
L 518.528996 502.190199 
L 557.177102 185.328125 
L 634.473314 167.558019 
L 673.12142 503.051057 
" clip-path="url(#pdd1d1898ad)" style="fill: none; stroke: #9467bd; stroke-width: 2; stroke-linecap: square"/>
    <defs>
     <path id="m9c1dde9137" d="M 0 3 
C 0.795609 3 1.55874 2.683901 2.12132 2.12132 
C 2.683901 1.55874 3 0.795609 3 0 
C 3 -0.795609 2.683901 -1.55874 2.12132 -2.12132 
C 1.55874 -2.683901 0.795609 -3 0 -3 
C -0.795609 -3 -1.55874 -2.683901 -2.12132 -2.12132 
C -2.683901 -1.55874 -3 -0.795609 -3 0 
C -3 0.795609 -2.683901 1.55874 -2.12132 2.12132 
C -1.55874 2.683901 -0.795609 3 0 3 
z
" style="stroke: #9467bd"/>
    </defs>
    <g clip-path="url(#pdd1d1898ad)">
     <use xlink:href="#m9c1dde9137" x="93.39983" y="495.204173" style="fill: #9467bd; stroke: #9467bd"/>
     <use xlink:href="#m9c1dde9137" x="132.047936" y="460.625327" style="fill: #9467bd; stroke: #9467bd"/>
     <use xlink:href="#m9c1dde9137" x="170.696042" y="498.118722" style="fill: #9467bd; stroke: #9467bd"/>
     <use xlink:href="#m9c1dde9137" x="209.344148" y="490.722499" style="fill: #9467bd; stroke: #9467bd"/>
     <use xlink:href="#m9c1dde9137" x="247.992254" y="355.794967" style="fill: #9467bd; stroke: #9467bd"/>
     <use xlink:href="#m9c1dde9137" x="286.64036" y="170.312501" style="fill: #9467bd; stroke: #9467bd"/>
     <use xlink:href="#m9c1dde9137" x="325.288466" y="501.847843" style="fill: #9467bd; stroke: #9467bd"/>
     <use xlink:href="#m9c1dde9137" x="363.936572" y="470.295072" style="fill: #9467bd; stroke: #9467bd"/>
     <use xlink:href="#m9c1dde9137" x="402.584678" y="356.30128" style="fill: #9467bd; stroke: #9467bd"/>
     <use xlink:href="#m9c1dde9137" x="441.232784" y="497.765641" style="fill: #9467bd; stroke: #9467bd"/>
     <use xlink:href="#m9c1dde9137" x="479.88089" y="504.124308" style="fill: #9467bd; stroke: #9467bd"/>
     <use xlink:href="#m9c1dde9137" x="518.528996" y="502.190199" style="fill: #9467bd; stroke: #9467bd"/>
     <use xlink:href="#m9c1dde9137" x="557.177102" y="185.328125" style="fill: #9467bd; stroke: #9467bd"/>
     <use xlink:href="#m9c1dde9137" x="634.473314" y="167.558019" style="fill: #9467bd; stroke: #9467bd"/>
     <use xlink:href="#m9c1dde9137" x="673.12142" y="503.051057" style="fill: #9467bd; stroke: #9467bd"/>
    </g>
   </g>
   <g id="line2d_28">
    <path d="M 93.39983 363.412943 
L 132.047936 356.735361 
L 170.696042 362.389836 
L 209.344148 364.87836 
L 247.992254 356.11363 
L 286.64036 358.702843 
L 325.288466 466.685319 
L 363.936572 461.729378 
L 402.584678 358.108231 
L 441.232784 362.271597 
L 479.88089 364.669675 
L 518.528996 363.200366 
L 557.177102 402.820686 
L 634.473314 302.06069 
L 673.12142 361.545893 
" clip-path="url(#pdd1d1898ad)" style="fill: none; stroke: #8c564b; stroke-width: 2; stroke-linecap: square"/>
    <defs>
     <path id="ma4021b78c0" d="M 0 3 
C 0.795609 3 1.55874 2.683901 2.12132 2.12132 
C 2.683901 1.55874 3 0.795609 3 0 
C 3 -0.795609 2.683901 -1.55874 2.12132 -2.12132 
C 1.55874 -2.683901 0.795609 -3 0 -3 
C -0.795609 -3 -1.55874 -2.683901 -2.12132 -2.12132 
C -2.683901 -1.55874 -3 -0.795609 -3 0 
C -3 0.795609 -2.683901 1.55874 -2.12132 2.12132 
C -1.55874 2.683901 -0.795609 3 0 3 
z
" style="stroke: #8c564b"/>
    </defs>
    <g clip-path="url(#pdd1d1898ad)">
     <use xlink:href="#ma4021b78c0" x="93.39983" y="363.412943" style="fill: #8c564b; stroke: #8c564b"/>
     <use xlink:href="#ma4021b78c0" x="132.047936" y="356.735361" style="fill: #8c564b; stroke: #8c564b"/>
     <use xlink:href="#ma4021b78c0" x="170.696042" y="362.389836" style="fill: #8c564b; stroke: #8c564b"/>
     <use xlink:href="#ma4021b78c0" x="209.344148" y="364.87836" style="fill: #8c564b; stroke: #8c564b"/>
     <use xlink:href="#ma4021b78c0" x="247.992254" y="356.11363" style="fill: #8c564b; stroke: #8c564b"/>
     <use xlink:href="#ma4021b78c0" x="286.64036" y="358.702843" style="fill: #8c564b; stroke: #8c564b"/>
     <use xlink:href="#ma4021b78c0" x="325.288466" y="466.685319" style="fill: #8c564b; stroke: #8c564b"/>
     <use xlink:href="#ma4021b78c0" x="363.936572" y="461.729378" style="fill: #8c564b; stroke: #8c564b"/>
     <use xlink:href="#ma4021b78c0" x="402.584678" y="358.108231" style="fill: #8c564b; stroke: #8c564b"/>
     <use xlink:href="#ma4021b78c0" x="441.232784" y="362.271597" style="fill: #8c564b; stroke: #8c564b"/>
     <use xlink:href="#ma4021b78c0" x="479.88089" y="364.669675" style="fill: #8c564b; stroke: #8c564b"/>
     <use xlink:href="#ma4021b78c0" x="518.528996" y="363.200366" style="fill: #8c564b; stroke: #8c564b"/>
     <use xlink:href="#ma4021b78c0" x="557.177102" y="402.820686" style="fill: #8c564b; stroke: #8c564b"/>
     <use xlink:href="#ma4021b78c0" x="634.473314" y="302.06069" style="fill: #8c564b; stroke: #8c564b"/>
     <use xlink:href="#ma4021b78c0" x="673.12142" y="361.545893" style="fill: #8c564b; stroke: #8c564b"/>
    </g>
   </g>
   <g id="patch_3">
    <path d="M 64.41375 529.308125 
L 64.41375 23.837812 
" style="fill: none; stroke: #000000; stroke-width: 0.8; stroke-linejoin: miter; stroke-linecap: square"/>
   </g>
   <g id="patch_4">
    <path d="M 702.1075 529.308125 
L 702.1075 23.837812 
" style="fill: none; stroke: #000000; stroke-width: 0.8; stroke-linejoin: miter; stroke-linecap: square"/>
   </g>
   <g id="patch_5">
    <path d="M 64.41375 529.308125 
L 702.1075 529.308125 
" style="fill: none; stroke: #000000; stroke-width: 0.8; stroke-linejoin: miter; stroke-linecap: square"/>
   </g>
   <g id="patch_6">
    <path d="M 64.41375 23.837812 
L 702.1075 23.837812 
" style="fill: none; stroke: #000000; stroke-width: 0.8; stroke-linejoin: miter; stroke-linecap: square"/>
   </g>
   <g id="text_14">
    <text style="font: 700 14px 'DejaVu Sans', 'Bitstream Vera Sans', 'Computer Modern Sans Serif', 'Lucida Grande', 'Verdana', 'Geneva', 'Lucid', 'Arial', 'Helvetica', 'Avant Garde', sans-serif; text-anchor: middle" x="383.260625" y="17.837813" transform="rotate(-0 383.260625 17.837813)">Mixedworkload - Performance Trend</text>
   </g>
   <g id="legend_1">
    <g id="patch_7">
     <path d="M 740.992188 119.906563 
L 846.004688 119.906563 
Q 848.004688 119.906563 848.004688 117.906563 
L 848.004688 30.837813 
Q 848.004688 28.837813 846.004688 28.837813 
L 740.992188 28.837813 
Q 738.992188 28.837813 738.992188 30.837813 
L 738.992188 117.906563 
Q 738.992188 119.906563 740.992188 119.906563 
z
" style="fill: #ffffff; opacity: 0.8; stroke: #cccccc; stroke-linejoin: miter"/>
    </g>
    <g id="line2d_29">
     <path d="M 742.992188 36.93625 
L 752.992188 36.93625 
L 762.992188 36.93625 
" style="fill: none; stroke: #1f77b4; stroke-width: 2; stroke-linecap: square"/>
     <g>
      <use xlink:href="#m5462372822" x="752.992188" y="36.93625" style="fill: #1f77b4; stroke: #1f77b4"/>
     </g>
    </g>
    <g id="text_15">
     <text style="font: 10px 'DejaVu Sans', 'Bitstream Vera Sans', 'Computer Modern Sans Serif', 'Lucida Grande', 'Verdana', 'Geneva', 'Lucid', 'Arial', 'Helvetica', 'Avant Garde', sans-serif; text-anchor: start" x="770.992188" y="40.43625" transform="rotate(-0 770.992188 40.43625)">gcc-14.2 - V1</text>
    </g>
    <g id="line2d_30">
     <path d="M 742.992188 51.614375 
L 752.992188 51.614375 
L 762.992188 51.614375 
" style="fill: none; stroke: #ff7f0e; stroke-width: 2; stroke-linecap: square"/>
     <g>
      <use xlink:href="#ma96153b25a" x="752.992188" y="51.614375" style="fill: #ff7f0e; stroke: #ff7f0e"/>
     </g>
    </g>
    <g id="text_16">
     <text style="font: 10px 'DejaVu Sans', 'Bitstream Vera Sans', 'Computer Modern Sans Serif', 'Lucida Grande', 'Verdana', 'Geneva', 'Lucid', 'Arial', 'Helvetica', 'Avant Garde', sans-serif; text-anchor: start" x="770.992188" y="55.114375" transform="rotate(-0 770.992188 55.114375)">gcc-14.2 - V2</text>
    </g>
    <g id="line2d_31">
     <path d="M 742.992188 66.2925 
L 752.992188 66.2925 
L 762.992188 66.2925 
" style="fill: none; stroke: #2ca02c; stroke-width: 2; stroke-linecap: square"/>
     <g>
      <use xlink:href="#m0ea04f68d6" x="752.992188" y="66.2925" style="fill: #2ca02c; stroke: #2ca02c"/>
     </g>
    </g>
    <g id="text_17">
     <text style="font: 10px 'DejaVu Sans', 'Bitstream Vera Sans', 'Computer Modern Sans Serif', 'Lucida Grande', 'Verdana', 'Geneva', 'Lucid', 'Arial', 'Helvetica', 'Avant Garde', sans-serif; text-anchor: start" x="770.992188" y="69.7925" transform="rotate(-0 770.992188 69.7925)">gcc-14.2 - TBB</text>
    </g>
    <g id="line2d_32">
     <path d="M 742.992188 80.970625 
L 752.992188 80.970625 
L 762.992188 80.970625 
" style="fill: none; stroke: #d62728; stroke-width: 2; stroke-linecap: square"/>
     <g>
      <use xlink:href="#m019a52b64a" x="752.992188" y="80.970625" style="fill: #d62728; stroke: #d62728"/>
     </g>
    </g>
    <g id="text_18">
     <text style="font: 10px 'DejaVu Sans', 'Bitstream Vera Sans', 'Computer Modern Sans Serif', 'Lucida Grande', 'Verdana', 'Geneva', 'Lucid', 'Arial', 'Helvetica', 'Avant Garde', sans-serif; text-anchor: start" x="770.992188" y="84.470625" transform="rotate(-0 770.992188 84.470625)">gcc-4.2 - V1</text>
    </g>
    <g id="line2d_33">
     <path d="M 742.992188 95.64875 
L 752.992188 95.64875 
L 762.992188 95.64875 
" style="fill: none; stroke: #9467bd; stroke-width: 2; stroke-linecap: square"/>
     <g>
      <use xlink:href="#m9c1dde9137" x="752.992188" y="95.64875" style="fill: #9467bd; stroke: #9467bd"/>
     </g>
    </g>
    <g id="text_19">
     <text style="font: 10px 'DejaVu Sans', 'Bitstream Vera Sans', 'Computer Modern Sans Serif', 'Lucida Grande', 'Verdana', 'Geneva', 'Lucid', 'Arial', 'Helvetica', 'Avant Garde', sans-serif; text-anchor: start" x="770.992188" y="99.14875" transform="rotate(-0 770.992188 99.14875)">gcc-4.2 - V2</text>
    </g>
    <g id="line2d_34">
     <path d="M 742.992188 110.326875 
L 752.992188 110.326875 
L 762.992188 110.326875 
" style="fill: none; stroke: #8c564b; stroke-width: 2; stroke-linecap: square"/>
     <g>
      <use xlink:href="#ma4021b78c0" x="752.992188" y="110.326875" style="fill: #8c564b; stroke: #8c564b"/>
     </g>
    </g>
    <g id="text_20">
     <text style="font: 10px 'DejaVu Sans', 'Bitstream Vera Sans', 'Computer Modern Sans Serif', 'Lucida Grande', 'Verdana', 'Geneva', 'Lucid', 'Arial', 'Helvetica', 'Avant Garde', sans-serif; text-anchor: start" x="770.992188" y="113.826875" transform="rotate(-0 770.992188 113.826875)">gcc-4.2 - TBB</text>
    </g>
   </g>
  </g>
 </g>
 <defs>
  <clipPath id="pdd1d1898ad">
   <rect x="64.41375" y="23.837813" width="637.69375" height="505.470313"/>
  </clipPath>
 </defs>
</svg>
