<?xml version="1.0" encoding="utf-8" standalone="no"?>
<!DOCTYPE svg PUBLIC "-//W3C//DTD SVG 1.1//EN"
  "http://www.w3.org/Graphics/SVG/1.1/DTD/svg11.dtd">
<svg xmlns:xlink="http://www.w3.org/1999/xlink" width="855.204687pt" height="568.8pt" viewBox="0 0 855.204687 568.8" xmlns="http://www.w3.org/2000/svg" version="1.1">
 <metadata>
  <rdf:RDF xmlns:dc="http://purl.org/dc/elements/1.1/" xmlns:cc="http://creativecommons.org/ns#" xmlns:rdf="http://www.w3.org/1999/02/22-rdf-syntax-ns#">
   <cc:Work>
    <dc:type rdf:resource="http://purl.org/dc/dcmitype/StillImage"/>
    <dc:date>2025-08-13T22:54:32.691309</dc:date>
    <dc:format>image/svg+xml</dc:format>
    <dc:creator>
     <cc:Agent>
      <dc:title>Matplotlib v3.9.4, https://matplotlib.org/</dc:title>
     </cc:Agent>
    </dc:creator>
   </cc:Work>
  </rdf:RDF>
 </metadata>
 <defs>
  <style type="text/css">*{stroke-linejoin: round; stroke-linecap: butt}</style>
 </defs>
 <g id="figure_1">
  <g id="patch_1">
   <path d="M 0 568.8 
L 855.204687 568.8 
L 855.204687 0 
L 0 0 
z
" style="fill: #ffffff"/>
  </g>
  <g id="axes_1">
   <g id="patch_2">
    <path d="M 64.41375 529.308125 
L 702.1075 529.308125 
L 702.1075 23.837812 
L 64.41375 23.837812 
z
" style="fill: #ffffff"/>
   </g>
   <g id="matplotlib.axis_1">
    <g id="xtick_1">
     <g id="line2d_1">
      <path d="M 144.551735 529.308125 
L 144.551735 23.837812 
" clip-path="url(#pb5a1d25836)" style="fill: none; stroke: #b0b0b0; stroke-opacity: 0.3; stroke-width: 0.8; stroke-linecap: square"/>
     </g>
     <g id="line2d_2">
      <defs>
       <path id="m2e563e00c6" d="M 0 0 
L 0 3.5 
" style="stroke: #000000; stroke-width: 0.8"/>
      </defs>
      <g>
       <use xlink:href="#m2e563e00c6" x="144.551735" y="529.308125" style="stroke: #000000; stroke-width: 0.8"/>
      </g>
     </g>
     <g id="text_1">
      <text style="font: 10px 'DejaVu Sans', 'Bitstream Vera Sans', 'Computer Modern Sans Serif', 'Lucida Grande', 'Verdana', 'Geneva', 'Lucid', 'Arial', 'Helvetica', 'Avant Garde', sans-serif; text-anchor: middle" x="144.551735" y="543.906563" transform="rotate(-0 144.551735 543.906563)">72.5</text>
     </g>
    </g>
    <g id="xtick_2">
     <g id="line2d_3">
      <path d="M 229.80491 529.308125 
L 229.80491 23.837812 
" clip-path="url(#pb5a1d25836)" style="fill: none; stroke: #b0b0b0; stroke-opacity: 0.3; stroke-width: 0.8; stroke-linecap: square"/>
     </g>
     <g id="line2d_4">
      <g>
       <use xlink:href="#m2e563e00c6" x="229.80491" y="529.308125" style="stroke: #000000; stroke-width: 0.8"/>
      </g>
     </g>
     <g id="text_2">
      <text style="font: 10px 'DejaVu Sans', 'Bitstream Vera Sans', 'Computer Modern Sans Serif', 'Lucida Grande', 'Verdana', 'Geneva', 'Lucid', 'Arial', 'Helvetica', 'Avant Garde', sans-serif; text-anchor: middle" x="229.80491" y="543.906563" transform="rotate(-0 229.80491 543.906563)">75.0</text>
     </g>
    </g>
    <g id="xtick_3">
     <g id="line2d_5">
      <path d="M 315.058085 529.308125 
L 315.058085 23.837812 
" clip-path="url(#pb5a1d25836)" style="fill: none; stroke: #b0b0b0; stroke-opacity: 0.3; stroke-width: 0.8; stroke-linecap: square"/>
     </g>
     <g id="line2d_6">
      <g>
       <use xlink:href="#m2e563e00c6" x="315.058085" y="529.308125" style="stroke: #000000; stroke-width: 0.8"/>
      </g>
     </g>
     <g id="text_3">
      <text style="font: 10px 'DejaVu Sans', 'Bitstream Vera Sans', 'Computer Modern Sans Serif', 'Lucida Grande', 'Verdana', 'Geneva', 'Lucid', 'Arial', 'Helvetica', 'Avant Garde', sans-serif; text-anchor: middle" x="315.058085" y="543.906563" transform="rotate(-0 315.058085 543.906563)">77.5</text>
     </g>
    </g>
    <g id="xtick_4">
     <g id="line2d_7">
      <path d="M 400.31126 529.308125 
L 400.31126 23.837812 
" clip-path="url(#pb5a1d25836)" style="fill: none; stroke: #b0b0b0; stroke-opacity: 0.3; stroke-width: 0.8; stroke-linecap: square"/>
     </g>
     <g id="line2d_8">
      <g>
       <use xlink:href="#m2e563e00c6" x="400.31126" y="529.308125" style="stroke: #000000; stroke-width: 0.8"/>
      </g>
     </g>
     <g id="text_4">
      <text style="font: 10px 'DejaVu Sans', 'Bitstream Vera Sans', 'Computer Modern Sans Serif', 'Lucida Grande', 'Verdana', 'Geneva', 'Lucid', 'Arial', 'Helvetica', 'Avant Garde', sans-serif; text-anchor: middle" x="400.31126" y="543.906563" transform="rotate(-0 400.31126 543.906563)">80.0</text>
     </g>
    </g>
    <g id="xtick_5">
     <g id="line2d_9">
      <path d="M 485.564435 529.308125 
L 485.564435 23.837812 
" clip-path="url(#pb5a1d25836)" style="fill: none; stroke: #b0b0b0; stroke-opacity: 0.3; stroke-width: 0.8; stroke-linecap: square"/>
     </g>
     <g id="line2d_10">
      <g>
       <use xlink:href="#m2e563e00c6" x="485.564435" y="529.308125" style="stroke: #000000; stroke-width: 0.8"/>
      </g>
     </g>
     <g id="text_5">
      <text style="font: 10px 'DejaVu Sans', 'Bitstream Vera Sans', 'Computer Modern Sans Serif', 'Lucida Grande', 'Verdana', 'Geneva', 'Lucid', 'Arial', 'Helvetica', 'Avant Garde', sans-serif; text-anchor: middle" x="485.564435" y="543.906563" transform="rotate(-0 485.564435 543.906563)">82.5</text>
     </g>
    </g>
    <g id="xtick_6">
     <g id="line2d_11">
      <path d="M 570.81761 529.308125 
L 570.81761 23.837812 
" clip-path="url(#pb5a1d25836)" style="fill: none; stroke: #b0b0b0; stroke-opacity: 0.3; stroke-width: 0.8; stroke-linecap: square"/>
     </g>
     <g id="line2d_12">
      <g>
       <use xlink:href="#m2e563e00c6" x="570.81761" y="529.308125" style="stroke: #000000; stroke-width: 0.8"/>
      </g>
     </g>
     <g id="text_6">
      <text style="font: 10px 'DejaVu Sans', 'Bitstream Vera Sans', 'Computer Modern Sans Serif', 'Lucida Grande', 'Verdana', 'Geneva', 'Lucid', 'Arial', 'Helvetica', 'Avant Garde', sans-serif; text-anchor: middle" x="570.81761" y="543.906563" transform="rotate(-0 570.81761 543.906563)">85.0</text>
     </g>
    </g>
    <g id="xtick_7">
     <g id="line2d_13">
      <path d="M 656.070785 529.308125 
L 656.070785 23.837812 
" clip-path="url(#pb5a1d25836)" style="fill: none; stroke: #b0b0b0; stroke-opacity: 0.3; stroke-width: 0.8; stroke-linecap: square"/>
     </g>
     <g id="line2d_14">
      <g>
       <use xlink:href="#m2e563e00c6" x="656.070785" y="529.308125" style="stroke: #000000; stroke-width: 0.8"/>
      </g>
     </g>
     <g id="text_7">
      <text style="font: 10px 'DejaVu Sans', 'Bitstream Vera Sans', 'Computer Modern Sans Serif', 'Lucida Grande', 'Verdana', 'Geneva', 'Lucid', 'Arial', 'Helvetica', 'Avant Garde', sans-serif; text-anchor: middle" x="656.070785" y="543.906563" transform="rotate(-0 656.070785 543.906563)">87.5</text>
     </g>
    </g>
    <g id="text_8">
     <text style="font: 12px 'DejaVu Sans', 'Bitstream Vera Sans', 'Computer Modern Sans Serif', 'Lucida Grande', 'Verdana', 'Geneva', 'Lucid', 'Arial', 'Helvetica', 'Avant Garde', sans-serif; text-anchor: middle" x="383.260625" y="559.104375" transform="rotate(-0 383.260625 559.104375)">Build Number</text>
    </g>
   </g>
   <g id="matplotlib.axis_2">
    <g id="ytick_1">
     <g id="line2d_15">
      <path d="M 64.41375 469.282622 
L 702.1075 469.282622 
" clip-path="url(#pb5a1d25836)" style="fill: none; stroke: #b0b0b0; stroke-opacity: 0.3; stroke-width: 0.8; stroke-linecap: square"/>
     </g>
     <g id="line2d_16">
      <defs>
       <path id="m1e527fae57" d="M 0 0 
L -3.5 0 
" style="stroke: #000000; stroke-width: 0.8"/>
      </defs>
      <g>
       <use xlink:href="#m1e527fae57" x="64.41375" y="469.282622" style="stroke: #000000; stroke-width: 0.8"/>
      </g>
     </g>
     <g id="text_9">
      <!-- $\mathdefault{10^{5}}$ -->
      <g transform="translate(39.81375 473.081841)">
       <text>
        <tspan style="font: 10px 'DejaVu Sans'" x="0 6.362305" y="-0.06406250000000036">10</tspan>
        <tspan style="font: 7px 'DejaVu Sans'" x="12.820312" y="-3.8921875000000004">5</tspan>
       </text>
      </g>
     </g>
    </g>
    <g id="ytick_2">
     <g id="line2d_17">
      <defs>
       <path id="mde6252ec6c" d="M 0 0 
L -2 0 
" style="stroke: #000000; stroke-width: 0.6"/>
      </defs>
      <g>
       <use xlink:href="#mde6252ec6c" x="64.41375" y="499.137022" style="stroke: #000000; stroke-width: 0.6"/>
      </g>
     </g>
    </g>
    <g id="ytick_3">
     <g id="line2d_18">
      <g>
       <use xlink:href="#mde6252ec6c" x="64.41375" y="272.876096" style="stroke: #000000; stroke-width: 0.6"/>
      </g>
     </g>
     <g id="text_10">
      <!-- $\mathdefault{2\times10^{5}}$ -->
      <g transform="translate(22.81375 276.675314)">
       <text>
        <tspan style="font: 10px 'DejaVu Sans'" x="0 8.310547 18.637695 25" y="-0.06406250000000036">2×10</tspan>
        <tspan style="font: 7px 'DejaVu Sans'" x="31.458008" y="-3.8921875000000004">5</tspan>
       </text>
      </g>
     </g>
    </g>
    <g id="ytick_4">
     <g id="line2d_19">
      <g>
       <use xlink:href="#mde6252ec6c" x="64.41375" y="157.985643" style="stroke: #000000; stroke-width: 0.6"/>
      </g>
     </g>
     <g id="text_11">
      <!-- $\mathdefault{3\times10^{5}}$ -->
      <g transform="translate(22.81375 161.784861)">
       <text>
        <tspan style="font: 10px 'DejaVu Sans'" x="0 8.310547 18.637695 25" y="-0.06406250000000036">3×10</tspan>
        <tspan style="font: 7px 'DejaVu Sans'" x="31.458008" y="-3.8921875000000004">5</tspan>
       </text>
      </g>
     </g>
    </g>
    <g id="ytick_5">
     <g id="line2d_20">
      <g>
       <use xlink:href="#mde6252ec6c" x="64.41375" y="76.469569" style="stroke: #000000; stroke-width: 0.6"/>
      </g>
     </g>
     <g id="text_12">
      <!-- $\mathdefault{4\times10^{5}}$ -->
      <g transform="translate(22.81375 80.268788)">
       <text>
        <tspan style="font: 10px 'DejaVu Sans'" x="0 8.310547 18.637695 25" y="-0.06406250000000036">4×10</tspan>
        <tspan style="font: 7px 'DejaVu Sans'" x="31.458008" y="-3.8921875000000004">5</tspan>
       </text>
      </g>
     </g>
    </g>
    <g id="text_13">
     <text style="font: 12px 'DejaVu Sans', 'Bitstream Vera Sans', 'Computer Modern Sans Serif', 'Lucida Grande', 'Verdana', 'Geneva', 'Lucid', 'Arial', 'Helvetica', 'Avant Garde', sans-serif; text-anchor: middle" x="16.318125" y="276.572969" transform="rotate(-90 16.318125 276.572969)">Median Elapsed Time (nanoseconds)</text>
    </g>
   </g>
   <g id="line2d_21">
    <path d="M 93.39983 240.889138 
L 127.5011 246.480665 
L 161.60237 244.615735 
L 195.70364 247.049686 
L 229.80491 191.939792 
L 263.90618 92.236576 
L 298.00745 247.015285 
L 332.10872 246.059417 
L 366.20999 46.813736 
L 400.31126 246.837785 
L 434.41253 246.872552 
L 468.5138 247.273006 
L 502.61507 47.775549 
L 536.71634 245.891016 
L 570.81761 246.680545 
L 604.91888 246.959812 
L 673.12142 247.145022 
" clip-path="url(#pb5a1d25836)" style="fill: none; stroke: #1f77b4; stroke-width: 2; stroke-linecap: square"/>
    <defs>
     <path id="m513bb58534" d="M 0 3 
C 0.795609 3 1.55874 2.683901 2.12132 2.12132 
C 2.683901 1.55874 3 0.795609 3 0 
C 3 -0.795609 2.683901 -1.55874 2.12132 -2.12132 
C 1.55874 -2.683901 0.795609 -3 0 -3 
C -0.795609 -3 -1.55874 -2.683901 -2.12132 -2.12132 
C -2.683901 -1.55874 -3 -0.795609 -3 0 
C -3 0.795609 -2.683901 1.55874 -2.12132 2.12132 
C -1.55874 2.683901 -0.795609 3 0 3 
z
" style="stroke: #1f77b4"/>
    </defs>
    <g clip-path="url(#pb5a1d25836)">
     <use xlink:href="#m513bb58534" x="93.39983" y="240.889138" style="fill: #1f77b4; stroke: #1f77b4"/>
     <use xlink:href="#m513bb58534" x="127.5011" y="246.480665" style="fill: #1f77b4; stroke: #1f77b4"/>
     <use xlink:href="#m513bb58534" x="161.60237" y="244.615735" style="fill: #1f77b4; stroke: #1f77b4"/>
     <use xlink:href="#m513bb58534" x="195.70364" y="247.049686" style="fill: #1f77b4; stroke: #1f77b4"/>
     <use xlink:href="#m513bb58534" x="229.80491" y="191.939792" style="fill: #1f77b4; stroke: #1f77b4"/>
     <use xlink:href="#m513bb58534" x="263.90618" y="92.236576" style="fill: #1f77b4; stroke: #1f77b4"/>
     <use xlink:href="#m513bb58534" x="298.00745" y="247.015285" style="fill: #1f77b4; stroke: #1f77b4"/>
     <use xlink:href="#m513bb58534" x="332.10872" y="246.059417" style="fill: #1f77b4; stroke: #1f77b4"/>
     <use xlink:href="#m513bb58534" x="366.20999" y="46.813736" style="fill: #1f77b4; stroke: #1f77b4"/>
     <use xlink:href="#m513bb58534" x="400.31126" y="246.837785" style="fill: #1f77b4; stroke: #1f77b4"/>
     <use xlink:href="#m513bb58534" x="434.41253" y="246.872552" style="fill: #1f77b4; stroke: #1f77b4"/>
     <use xlink:href="#m513bb58534" x="468.5138" y="247.273006" style="fill: #1f77b4; stroke: #1f77b4"/>
     <use xlink:href="#m513bb58534" x="502.61507" y="47.775549" style="fill: #1f77b4; stroke: #1f77b4"/>
     <use xlink:href="#m513bb58534" x="536.71634" y="245.891016" style="fill: #1f77b4; stroke: #1f77b4"/>
     <use xlink:href="#m513bb58534" x="570.81761" y="246.680545" style="fill: #1f77b4; stroke: #1f77b4"/>
     <use xlink:href="#m513bb58534" x="604.91888" y="246.959812" style="fill: #1f77b4; stroke: #1f77b4"/>
     <use xlink:href="#m513bb58534" x="673.12142" y="247.145022" style="fill: #1f77b4; stroke: #1f77b4"/>
    </g>
   </g>
   <g id="line2d_22">
    <path d="M 93.39983 240.704177 
L 127.5011 239.034881 
L 161.60237 236.743098 
L 195.70364 234.691864 
L 229.80491 202.023053 
L 263.90618 236.187661 
L 298.00745 236.815317 
L 332.10872 238.439932 
L 366.20999 129.013736 
L 400.31126 231.354088 
L 434.41253 234.666112 
L 468.5138 234.155754 
L 502.61507 185.084687 
L 536.71634 231.42103 
L 570.81761 235.991065 
L 604.91888 235.673192 
L 673.12142 235.225145 
" clip-path="url(#pb5a1d25836)" style="fill: none; stroke: #ff7f0e; stroke-width: 2; stroke-linecap: square"/>
    <defs>
     <path id="mddfe141b0f" d="M 0 3 
C 0.795609 3 1.55874 2.683901 2.12132 2.12132 
C 2.683901 1.55874 3 0.795609 3 0 
C 3 -0.795609 2.683901 -1.55874 2.12132 -2.12132 
C 1.55874 -2.683901 0.795609 -3 0 -3 
C -0.795609 -3 -1.55874 -2.683901 -2.12132 -2.12132 
C -2.683901 -1.55874 -3 -0.795609 -3 0 
C -3 0.795609 -2.683901 1.55874 -2.12132 2.12132 
C -1.55874 2.683901 -0.795609 3 0 3 
z
" style="stroke: #ff7f0e"/>
    </defs>
    <g clip-path="url(#pb5a1d25836)">
     <use xlink:href="#mddfe141b0f" x="93.39983" y="240.704177" style="fill: #ff7f0e; stroke: #ff7f0e"/>
     <use xlink:href="#mddfe141b0f" x="127.5011" y="239.034881" style="fill: #ff7f0e; stroke: #ff7f0e"/>
     <use xlink:href="#mddfe141b0f" x="161.60237" y="236.743098" style="fill: #ff7f0e; stroke: #ff7f0e"/>
     <use xlink:href="#mddfe141b0f" x="195.70364" y="234.691864" style="fill: #ff7f0e; stroke: #ff7f0e"/>
     <use xlink:href="#mddfe141b0f" x="229.80491" y="202.023053" style="fill: #ff7f0e; stroke: #ff7f0e"/>
     <use xlink:href="#mddfe141b0f" x="263.90618" y="236.187661" style="fill: #ff7f0e; stroke: #ff7f0e"/>
     <use xlink:href="#mddfe141b0f" x="298.00745" y="236.815317" style="fill: #ff7f0e; stroke: #ff7f0e"/>
     <use xlink:href="#mddfe141b0f" x="332.10872" y="238.439932" style="fill: #ff7f0e; stroke: #ff7f0e"/>
     <use xlink:href="#mddfe141b0f" x="366.20999" y="129.013736" style="fill: #ff7f0e; stroke: #ff7f0e"/>
     <use xlink:href="#mddfe141b0f" x="400.31126" y="231.354088" style="fill: #ff7f0e; stroke: #ff7f0e"/>
     <use xlink:href="#mddfe141b0f" x="434.41253" y="234.666112" style="fill: #ff7f0e; stroke: #ff7f0e"/>
     <use xlink:href="#mddfe141b0f" x="468.5138" y="234.155754" style="fill: #ff7f0e; stroke: #ff7f0e"/>
     <use xlink:href="#mddfe141b0f" x="502.61507" y="185.084687" style="fill: #ff7f0e; stroke: #ff7f0e"/>
     <use xlink:href="#mddfe141b0f" x="536.71634" y="231.42103" style="fill: #ff7f0e; stroke: #ff7f0e"/>
     <use xlink:href="#mddfe141b0f" x="570.81761" y="235.991065" style="fill: #ff7f0e; stroke: #ff7f0e"/>
     <use xlink:href="#mddfe141b0f" x="604.91888" y="235.673192" style="fill: #ff7f0e; stroke: #ff7f0e"/>
     <use xlink:href="#mddfe141b0f" x="673.12142" y="235.225145" style="fill: #ff7f0e; stroke: #ff7f0e"/>
    </g>
   </g>
   <g id="line2d_23">
    <path d="M 93.39983 240.454633 
L 127.5011 220.384818 
L 161.60237 197.50777 
L 195.70364 240.918753 
L 229.80491 180.799661 
L 263.90618 241.490779 
L 298.00745 240.907868 
L 332.10872 241.221409 
L 366.20999 193.573677 
L 400.31126 240.496082 
L 434.41253 241.256508 
L 468.5138 241.037244 
L 502.61507 200.687976 
L 536.71634 238.189114 
L 570.81761 240.248742 
L 604.91888 241.681584 
L 673.12142 241.540371 
" clip-path="url(#pb5a1d25836)" style="fill: none; stroke: #2ca02c; stroke-width: 2; stroke-linecap: square"/>
    <defs>
     <path id="m8317454785" d="M 0 3 
C 0.795609 3 1.55874 2.683901 2.12132 2.12132 
C 2.683901 1.55874 3 0.795609 3 0 
C 3 -0.795609 2.683901 -1.55874 2.12132 -2.12132 
C 1.55874 -2.683901 0.795609 -3 0 -3 
C -0.795609 -3 -1.55874 -2.683901 -2.12132 -2.12132 
C -2.683901 -1.55874 -3 -0.795609 -3 0 
C -3 0.795609 -2.683901 1.55874 -2.12132 2.12132 
C -1.55874 2.683901 -0.795609 3 0 3 
z
" style="stroke: #2ca02c"/>
    </defs>
    <g clip-path="url(#pb5a1d25836)">
     <use xlink:href="#m8317454785" x="93.39983" y="240.454633" style="fill: #2ca02c; stroke: #2ca02c"/>
     <use xlink:href="#m8317454785" x="127.5011" y="220.384818" style="fill: #2ca02c; stroke: #2ca02c"/>
     <use xlink:href="#m8317454785" x="161.60237" y="197.50777" style="fill: #2ca02c; stroke: #2ca02c"/>
     <use xlink:href="#m8317454785" x="195.70364" y="240.918753" style="fill: #2ca02c; stroke: #2ca02c"/>
     <use xlink:href="#m8317454785" x="229.80491" y="180.799661" style="fill: #2ca02c; stroke: #2ca02c"/>
     <use xlink:href="#m8317454785" x="263.90618" y="241.490779" style="fill: #2ca02c; stroke: #2ca02c"/>
     <use xlink:href="#m8317454785" x="298.00745" y="240.907868" style="fill: #2ca02c; stroke: #2ca02c"/>
     <use xlink:href="#m8317454785" x="332.10872" y="241.221409" style="fill: #2ca02c; stroke: #2ca02c"/>
     <use xlink:href="#m8317454785" x="366.20999" y="193.573677" style="fill: #2ca02c; stroke: #2ca02c"/>
     <use xlink:href="#m8317454785" x="400.31126" y="240.496082" style="fill: #2ca02c; stroke: #2ca02c"/>
     <use xlink:href="#m8317454785" x="434.41253" y="241.256508" style="fill: #2ca02c; stroke: #2ca02c"/>
     <use xlink:href="#m8317454785" x="468.5138" y="241.037244" style="fill: #2ca02c; stroke: #2ca02c"/>
     <use xlink:href="#m8317454785" x="502.61507" y="200.687976" style="fill: #2ca02c; stroke: #2ca02c"/>
     <use xlink:href="#m8317454785" x="536.71634" y="238.189114" style="fill: #2ca02c; stroke: #2ca02c"/>
     <use xlink:href="#m8317454785" x="570.81761" y="240.248742" style="fill: #2ca02c; stroke: #2ca02c"/>
     <use xlink:href="#m8317454785" x="604.91888" y="241.681584" style="fill: #2ca02c; stroke: #2ca02c"/>
     <use xlink:href="#m8317454785" x="673.12142" y="241.540371" style="fill: #2ca02c; stroke: #2ca02c"/>
    </g>
   </g>
   <g id="line2d_24">
    <path d="M 93.39983 504.248604 
L 127.5011 505.872768 
L 161.60237 504.792491 
L 195.70364 506.194396 
L 229.80491 307.401476 
L 263.90618 495.67333 
L 298.00745 504.979483 
L 332.10872 418.668224 
L 366.20999 505.967573 
L 400.31126 506.093384 
L 434.41253 505.210877 
L 468.5138 506.332202 
L 502.61507 503.566292 
L 570.81761 505.263098 
L 604.91888 504.518973 
L 673.12142 505.439777 
" clip-path="url(#pb5a1d25836)" style="fill: none; stroke: #d62728; stroke-width: 2; stroke-linecap: square"/>
    <defs>
     <path id="m83b334c449" d="M 0 3 
C 0.795609 3 1.55874 2.683901 2.12132 2.12132 
C 2.683901 1.55874 3 0.795609 3 0 
C 3 -0.795609 2.683901 -1.55874 2.12132 -2.12132 
C 1.55874 -2.683901 0.795609 -3 0 -3 
C -0.795609 -3 -1.55874 -2.683901 -2.12132 -2.12132 
C -2.683901 -1.55874 -3 -0.795609 -3 0 
C -3 0.795609 -2.683901 1.55874 -2.12132 2.12132 
C -1.55874 2.683901 -0.795609 3 0 3 
z
" style="stroke: #d62728"/>
    </defs>
    <g clip-path="url(#pb5a1d25836)">
     <use xlink:href="#m83b334c449" x="93.39983" y="504.248604" style="fill: #d62728; stroke: #d62728"/>
     <use xlink:href="#m83b334c449" x="127.5011" y="505.872768" style="fill: #d62728; stroke: #d62728"/>
     <use xlink:href="#m83b334c449" x="161.60237" y="504.792491" style="fill: #d62728; stroke: #d62728"/>
     <use xlink:href="#m83b334c449" x="195.70364" y="506.194396" style="fill: #d62728; stroke: #d62728"/>
     <use xlink:href="#m83b334c449" x="229.80491" y="307.401476" style="fill: #d62728; stroke: #d62728"/>
     <use xlink:href="#m83b334c449" x="263.90618" y="495.67333" style="fill: #d62728; stroke: #d62728"/>
     <use xlink:href="#m83b334c449" x="298.00745" y="504.979483" style="fill: #d62728; stroke: #d62728"/>
     <use xlink:href="#m83b334c449" x="332.10872" y="418.668224" style="fill: #d62728; stroke: #d62728"/>
     <use xlink:href="#m83b334c449" x="366.20999" y="505.967573" style="fill: #d62728; stroke: #d62728"/>
     <use xlink:href="#m83b334c449" x="400.31126" y="506.093384" style="fill: #d62728; stroke: #d62728"/>
     <use xlink:href="#m83b334c449" x="434.41253" y="505.210877" style="fill: #d62728; stroke: #d62728"/>
     <use xlink:href="#m83b334c449" x="468.5138" y="506.332202" style="fill: #d62728; stroke: #d62728"/>
     <use xlink:href="#m83b334c449" x="502.61507" y="503.566292" style="fill: #d62728; stroke: #d62728"/>
     <use xlink:href="#m83b334c449" x="570.81761" y="505.263098" style="fill: #d62728; stroke: #d62728"/>
     <use xlink:href="#m83b334c449" x="604.91888" y="504.518973" style="fill: #d62728; stroke: #d62728"/>
     <use xlink:href="#m83b334c449" x="673.12142" y="505.439777" style="fill: #d62728; stroke: #d62728"/>
    </g>
   </g>
   <g id="line2d_25">
    <path d="M 93.39983 472.027699 
L 127.5011 468.227676 
L 161.60237 471.077967 
L 195.70364 471.077111 
L 229.80491 415.776892 
L 263.90618 418.835598 
L 298.00745 470.029395 
L 332.10872 397.404129 
L 366.20999 469.916061 
L 400.31126 471.308466 
L 434.41253 469.262788 
L 468.5138 473.120467 
L 502.61507 464.097362 
L 570.81761 468.830183 
L 604.91888 472.426536 
L 673.12142 467.848234 
" clip-path="url(#pb5a1d25836)" style="fill: none; stroke: #9467bd; stroke-width: 2; stroke-linecap: square"/>
    <defs>
     <path id="mea806ff67b" d="M 0 3 
C 0.795609 3 1.55874 2.683901 2.12132 2.12132 
C 2.683901 1.55874 3 0.795609 3 0 
C 3 -0.795609 2.683901 -1.55874 2.12132 -2.12132 
C 1.55874 -2.683901 0.795609 -3 0 -3 
C -0.795609 -3 -1.55874 -2.683901 -2.12132 -2.12132 
C -2.683901 -1.55874 -3 -0.795609 -3 0 
C -3 0.795609 -2.683901 1.55874 -2.12132 2.12132 
C -1.55874 2.683901 -0.795609 3 0 3 
z
" style="stroke: #9467bd"/>
    </defs>
    <g clip-path="url(#pb5a1d25836)">
     <use xlink:href="#mea806ff67b" x="93.39983" y="472.027699" style="fill: #9467bd; stroke: #9467bd"/>
     <use xlink:href="#mea806ff67b" x="127.5011" y="468.227676" style="fill: #9467bd; stroke: #9467bd"/>
     <use xlink:href="#mea806ff67b" x="161.60237" y="471.077967" style="fill: #9467bd; stroke: #9467bd"/>
     <use xlink:href="#mea806ff67b" x="195.70364" y="471.077111" style="fill: #9467bd; stroke: #9467bd"/>
     <use xlink:href="#mea806ff67b" x="229.80491" y="415.776892" style="fill: #9467bd; stroke: #9467bd"/>
     <use xlink:href="#mea806ff67b" x="263.90618" y="418.835598" style="fill: #9467bd; stroke: #9467bd"/>
     <use xlink:href="#mea806ff67b" x="298.00745" y="470.029395" style="fill: #9467bd; stroke: #9467bd"/>
     <use xlink:href="#mea806ff67b" x="332.10872" y="397.404129" style="fill: #9467bd; stroke: #9467bd"/>
     <use xlink:href="#mea806ff67b" x="366.20999" y="469.916061" style="fill: #9467bd; stroke: #9467bd"/>
     <use xlink:href="#mea806ff67b" x="400.31126" y="471.308466" style="fill: #9467bd; stroke: #9467bd"/>
     <use xlink:href="#mea806ff67b" x="434.41253" y="469.262788" style="fill: #9467bd; stroke: #9467bd"/>
     <use xlink:href="#mea806ff67b" x="468.5138" y="473.120467" style="fill: #9467bd; stroke: #9467bd"/>
     <use xlink:href="#mea806ff67b" x="502.61507" y="464.097362" style="fill: #9467bd; stroke: #9467bd"/>
     <use xlink:href="#mea806ff67b" x="570.81761" y="468.830183" style="fill: #9467bd; stroke: #9467bd"/>
     <use xlink:href="#mea806ff67b" x="604.91888" y="472.426536" style="fill: #9467bd; stroke: #9467bd"/>
     <use xlink:href="#mea806ff67b" x="673.12142" y="467.848234" style="fill: #9467bd; stroke: #9467bd"/>
    </g>
   </g>
   <g id="line2d_26">
    <path d="M 93.39983 232.909089 
L 127.5011 231.621706 
L 161.60237 232.431485 
L 195.70364 231.491171 
L 229.80491 177.788612 
L 263.90618 179.060915 
L 298.00745 232.063964 
L 332.10872 174.117285 
L 366.20999 233.516693 
L 400.31126 232.106412 
L 434.41253 232.282283 
L 468.5138 232.285107 
L 502.61507 231.297806 
L 570.81761 232.529153 
L 604.91888 231.724487 
L 673.12142 232.892357 
" clip-path="url(#pb5a1d25836)" style="fill: none; stroke: #8c564b; stroke-width: 2; stroke-linecap: square"/>
    <defs>
     <path id="mc6b7379c71" d="M 0 3 
C 0.795609 3 1.55874 2.683901 2.12132 2.12132 
C 2.683901 1.55874 3 0.795609 3 0 
C 3 -0.795609 2.683901 -1.55874 2.12132 -2.12132 
C 1.55874 -2.683901 0.795609 -3 0 -3 
C -0.795609 -3 -1.55874 -2.683901 -2.12132 -2.12132 
C -2.683901 -1.55874 -3 -0.795609 -3 0 
C -3 0.795609 -2.683901 1.55874 -2.12132 2.12132 
C -1.55874 2.683901 -0.795609 3 0 3 
z
" style="stroke: #8c564b"/>
    </defs>
    <g clip-path="url(#pb5a1d25836)">
     <use xlink:href="#mc6b7379c71" x="93.39983" y="232.909089" style="fill: #8c564b; stroke: #8c564b"/>
     <use xlink:href="#mc6b7379c71" x="127.5011" y="231.621706" style="fill: #8c564b; stroke: #8c564b"/>
     <use xlink:href="#mc6b7379c71" x="161.60237" y="232.431485" style="fill: #8c564b; stroke: #8c564b"/>
     <use xlink:href="#mc6b7379c71" x="195.70364" y="231.491171" style="fill: #8c564b; stroke: #8c564b"/>
     <use xlink:href="#mc6b7379c71" x="229.80491" y="177.788612" style="fill: #8c564b; stroke: #8c564b"/>
     <use xlink:href="#mc6b7379c71" x="263.90618" y="179.060915" style="fill: #8c564b; stroke: #8c564b"/>
     <use xlink:href="#mc6b7379c71" x="298.00745" y="232.063964" style="fill: #8c564b; stroke: #8c564b"/>
     <use xlink:href="#mc6b7379c71" x="332.10872" y="174.117285" style="fill: #8c564b; stroke: #8c564b"/>
     <use xlink:href="#mc6b7379c71" x="366.20999" y="233.516693" style="fill: #8c564b; stroke: #8c564b"/>
     <use xlink:href="#mc6b7379c71" x="400.31126" y="232.106412" style="fill: #8c564b; stroke: #8c564b"/>
     <use xlink:href="#mc6b7379c71" x="434.41253" y="232.282283" style="fill: #8c564b; stroke: #8c564b"/>
     <use xlink:href="#mc6b7379c71" x="468.5138" y="232.285107" style="fill: #8c564b; stroke: #8c564b"/>
     <use xlink:href="#mc6b7379c71" x="502.61507" y="231.297806" style="fill: #8c564b; stroke: #8c564b"/>
     <use xlink:href="#mc6b7379c71" x="570.81761" y="232.529153" style="fill: #8c564b; stroke: #8c564b"/>
     <use xlink:href="#mc6b7379c71" x="604.91888" y="231.724487" style="fill: #8c564b; stroke: #8c564b"/>
     <use xlink:href="#mc6b7379c71" x="673.12142" y="232.892357" style="fill: #8c564b; stroke: #8c564b"/>
    </g>
   </g>
   <g id="patch_3">
    <path d="M 64.41375 529.308125 
L 64.41375 23.837812 
" style="fill: none; stroke: #000000; stroke-width: 0.8; stroke-linejoin: miter; stroke-linecap: square"/>
   </g>
   <g id="patch_4">
    <path d="M 702.1075 529.308125 
L 702.1075 23.837812 
" style="fill: none; stroke: #000000; stroke-width: 0.8; stroke-linejoin: miter; stroke-linecap: square"/>
   </g>
   <g id="patch_5">
    <path d="M 64.41375 529.308125 
L 702.1075 529.308125 
" style="fill: none; stroke: #000000; stroke-width: 0.8; stroke-linejoin: miter; stroke-linecap: square"/>
   </g>
   <g id="patch_6">
    <path d="M 64.41375 23.837812 
L 702.1075 23.837812 
" style="fill: none; stroke: #000000; stroke-width: 0.8; stroke-linejoin: miter; stroke-linecap: square"/>
   </g>
   <g id="text_14">
    <text style="font: 700 14px 'DejaVu Sans', 'Bitstream Vera Sans', 'Computer Modern Sans Serif', 'Lucida Grande', 'Verdana', 'Geneva', 'Lucid', 'Arial', 'Helvetica', 'Avant Garde', sans-serif; text-anchor: middle" x="383.260625" y="17.837813" transform="rotate(-0 383.260625 17.837813)">Parallelfor Vectorops - Performance Trend</text>
   </g>
   <g id="legend_1">
    <g id="patch_7">
     <path d="M 740.992188 119.906563 
L 846.004688 119.906563 
Q 848.004688 119.906563 848.004688 117.906563 
L 848.004688 30.837813 
Q 848.004688 28.837813 846.004688 28.837813 
L 740.992188 28.837813 
Q 738.992188 28.837813 738.992188 30.837813 
L 738.992188 117.906563 
Q 738.992188 119.906563 740.992188 119.906563 
z
" style="fill: #ffffff; opacity: 0.8; stroke: #cccccc; stroke-linejoin: miter"/>
    </g>
    <g id="line2d_27">
     <path d="M 742.992188 36.93625 
L 752.992188 36.93625 
L 762.992188 36.93625 
" style="fill: none; stroke: #1f77b4; stroke-width: 2; stroke-linecap: square"/>
     <g>
      <use xlink:href="#m513bb58534" x="752.992188" y="36.93625" style="fill: #1f77b4; stroke: #1f77b4"/>
     </g>
    </g>
    <g id="text_15">
     <text style="font: 10px 'DejaVu Sans', 'Bitstream Vera Sans', 'Computer Modern Sans Serif', 'Lucida Grande', 'Verdana', 'Geneva', 'Lucid', 'Arial', 'Helvetica', 'Avant Garde', sans-serif; text-anchor: start" x="770.992188" y="40.43625" transform="rotate(-0 770.992188 40.43625)">gcc-14.2 - V1</text>
    </g>
    <g id="line2d_28">
     <path d="M 742.992188 51.614375 
L 752.992188 51.614375 
L 762.992188 51.614375 
" style="fill: none; stroke: #ff7f0e; stroke-width: 2; stroke-linecap: square"/>
     <g>
      <use xlink:href="#mddfe141b0f" x="752.992188" y="51.614375" style="fill: #ff7f0e; stroke: #ff7f0e"/>
     </g>
    </g>
    <g id="text_16">
     <text style="font: 10px 'DejaVu Sans', 'Bitstream Vera Sans', 'Computer Modern Sans Serif', 'Lucida Grande', 'Verdana', 'Geneva', 'Lucid', 'Arial', 'Helvetica', 'Avant Garde', sans-serif; text-anchor: start" x="770.992188" y="55.114375" transform="rotate(-0 770.992188 55.114375)">gcc-14.2 - V2</text>
    </g>
    <g id="line2d_29">
     <path d="M 742.992188 66.2925 
L 752.992188 66.2925 
L 762.992188 66.2925 
" style="fill: none; stroke: #2ca02c; stroke-width: 2; stroke-linecap: square"/>
     <g>
      <use xlink:href="#m8317454785" x="752.992188" y="66.2925" style="fill: #2ca02c; stroke: #2ca02c"/>
     </g>
    </g>
    <g id="text_17">
     <text style="font: 10px 'DejaVu Sans', 'Bitstream Vera Sans', 'Computer Modern Sans Serif', 'Lucida Grande', 'Verdana', 'Geneva', 'Lucid', 'Arial', 'Helvetica', 'Avant Garde', sans-serif; text-anchor: start" x="770.992188" y="69.7925" transform="rotate(-0 770.992188 69.7925)">gcc-14.2 - TBB</text>
    </g>
    <g id="line2d_30">
     <path d="M 742.992188 80.970625 
L 752.992188 80.970625 
L 762.992188 80.970625 
" style="fill: none; stroke: #d62728; stroke-width: 2; stroke-linecap: square"/>
     <g>
      <use xlink:href="#m83b334c449" x="752.992188" y="80.970625" style="fill: #d62728; stroke: #d62728"/>
     </g>
    </g>
    <g id="text_18">
     <text style="font: 10px 'DejaVu Sans', 'Bitstream Vera Sans', 'Computer Modern Sans Serif', 'Lucida Grande', 'Verdana', 'Geneva', 'Lucid', 'Arial', 'Helvetica', 'Avant Garde', sans-serif; text-anchor: start" x="770.992188" y="84.470625" transform="rotate(-0 770.992188 84.470625)">gcc-4.2 - V1</text>
    </g>
    <g id="line2d_31">
     <path d="M 742.992188 95.64875 
L 752.992188 95.64875 
L 762.992188 95.64875 
" style="fill: none; stroke: #9467bd; stroke-width: 2; stroke-linecap: square"/>
     <g>
      <use xlink:href="#mea806ff67b" x="752.992188" y="95.64875" style="fill: #9467bd; stroke: #9467bd"/>
     </g>
    </g>
    <g id="text_19">
     <text style="font: 10px 'DejaVu Sans', 'Bitstream Vera Sans', 'Computer Modern Sans Serif', 'Lucida Grande', 'Verdana', 'Geneva', 'Lucid', 'Arial', 'Helvetica', 'Avant Garde', sans-serif; text-anchor: start" x="770.992188" y="99.14875" transform="rotate(-0 770.992188 99.14875)">gcc-4.2 - V2</text>
    </g>
    <g id="line2d_32">
     <path d="M 742.992188 110.326875 
L 752.992188 110.326875 
L 762.992188 110.326875 
" style="fill: none; stroke: #8c564b; stroke-width: 2; stroke-linecap: square"/>
     <g>
      <use xlink:href="#mc6b7379c71" x="752.992188" y="110.326875" style="fill: #8c564b; stroke: #8c564b"/>
     </g>
    </g>
    <g id="text_20">
     <text style="font: 10px 'DejaVu Sans', 'Bitstream Vera Sans', 'Computer Modern Sans Serif', 'Lucida Grande', 'Verdana', 'Geneva', 'Lucid', 'Arial', 'Helvetica', 'Avant Garde', sans-serif; text-anchor: start" x="770.992188" y="113.826875" transform="rotate(-0 770.992188 113.826875)">gcc-4.2 - TBB</text>
    </g>
   </g>
  </g>
 </g>
 <defs>
  <clipPath id="pb5a1d25836">
   <rect x="64.41375" y="23.837813" width="637.69375" height="505.470313"/>
  </clipPath>
 </defs>
</svg>
