<?xml version="1.0" encoding="utf-8" standalone="no"?>
<!DOCTYPE svg PUBLIC "-//W3C//DTD SVG 1.1//EN"
  "http://www.w3.org/Graphics/SVG/1.1/DTD/svg11.dtd">
<svg xmlns:xlink="http://www.w3.org/1999/xlink" width="847.676719pt" height="568.8pt" viewBox="0 0 847.676719 568.8" xmlns="http://www.w3.org/2000/svg" version="1.1">
 <metadata>
  <rdf:RDF xmlns:dc="http://purl.org/dc/elements/1.1/" xmlns:cc="http://creativecommons.org/ns#" xmlns:rdf="http://www.w3.org/1999/02/22-rdf-syntax-ns#">
   <cc:Work>
    <dc:type rdf:resource="http://purl.org/dc/dcmitype/StillImage"/>
    <dc:date>2025-08-30T10:56:15.549088</dc:date>
    <dc:format>image/svg+xml</dc:format>
    <dc:creator>
     <cc:Agent>
      <dc:title>Matplotlib v3.9.4, https://matplotlib.org/</dc:title>
     </cc:Agent>
    </dc:creator>
   </cc:Work>
  </rdf:RDF>
 </metadata>
 <defs>
  <style type="text/css">*{stroke-linejoin: round; stroke-linecap: butt}</style>
 </defs>
 <g id="figure_1">
  <g id="patch_1">
   <path d="M 0 568.8 
L 847.676719 568.8 
L 847.676719 0 
L 0 0 
z
" style="fill: #ffffff"/>
  </g>
  <g id="axes_1">
   <g id="patch_2">
    <path d="M 64.41375 529.308125 
L 551.548125 529.308125 
L 551.548125 23.837812 
L 64.41375 23.837812 
z
" style="fill: #ffffff"/>
   </g>
   <g id="matplotlib.axis_1">
    <g id="xtick_1">
     <g id="line2d_1">
      <path d="M 86.556222 529.308125 
L 86.556222 23.837812 
" clip-path="url(#pee72b7052f)" style="fill: none; stroke: #b0b0b0; stroke-opacity: 0.3; stroke-width: 0.8; stroke-linecap: square"/>
     </g>
     <g id="line2d_2">
      <defs>
       <path id="m828defc4ef" d="M 0 0 
L 0 3.5 
" style="stroke: #000000; stroke-width: 0.8"/>
      </defs>
      <g>
       <use xlink:href="#m828defc4ef" x="86.556222" y="529.308125" style="stroke: #000000; stroke-width: 0.8"/>
      </g>
     </g>
     <g id="text_1">
      <text style="font: 10px 'DejaVu Sans', 'Bitstream Vera Sans', 'Computer Modern Sans Serif', 'Lucida Grande', 'Verdana', 'Geneva', 'Lucid', 'Arial', 'Helvetica', 'Avant Garde', sans-serif; text-anchor: middle" x="86.556222" y="543.906563" transform="rotate(-0 86.556222 543.906563)">96</text>
     </g>
    </g>
    <g id="xtick_2">
     <g id="line2d_3">
      <path d="M 145.602813 529.308125 
L 145.602813 23.837812 
" clip-path="url(#pee72b7052f)" style="fill: none; stroke: #b0b0b0; stroke-opacity: 0.3; stroke-width: 0.8; stroke-linecap: square"/>
     </g>
     <g id="line2d_4">
      <g>
       <use xlink:href="#m828defc4ef" x="145.602813" y="529.308125" style="stroke: #000000; stroke-width: 0.8"/>
      </g>
     </g>
     <g id="text_2">
      <text style="font: 10px 'DejaVu Sans', 'Bitstream Vera Sans', 'Computer Modern Sans Serif', 'Lucida Grande', 'Verdana', 'Geneva', 'Lucid', 'Arial', 'Helvetica', 'Avant Garde', sans-serif; text-anchor: middle" x="145.602813" y="543.906563" transform="rotate(-0 145.602813 543.906563)">98</text>
     </g>
    </g>
    <g id="xtick_3">
     <g id="line2d_5">
      <path d="M 204.649403 529.308125 
L 204.649403 23.837812 
" clip-path="url(#pee72b7052f)" style="fill: none; stroke: #b0b0b0; stroke-opacity: 0.3; stroke-width: 0.8; stroke-linecap: square"/>
     </g>
     <g id="line2d_6">
      <g>
       <use xlink:href="#m828defc4ef" x="204.649403" y="529.308125" style="stroke: #000000; stroke-width: 0.8"/>
      </g>
     </g>
     <g id="text_3">
      <text style="font: 10px 'DejaVu Sans', 'Bitstream Vera Sans', 'Computer Modern Sans Serif', 'Lucida Grande', 'Verdana', 'Geneva', 'Lucid', 'Arial', 'Helvetica', 'Avant Garde', sans-serif; text-anchor: middle" x="204.649403" y="543.906563" transform="rotate(-0 204.649403 543.906563)">100</text>
     </g>
    </g>
    <g id="xtick_4">
     <g id="line2d_7">
      <path d="M 263.695994 529.308125 
L 263.695994 23.837812 
" clip-path="url(#pee72b7052f)" style="fill: none; stroke: #b0b0b0; stroke-opacity: 0.3; stroke-width: 0.8; stroke-linecap: square"/>
     </g>
     <g id="line2d_8">
      <g>
       <use xlink:href="#m828defc4ef" x="263.695994" y="529.308125" style="stroke: #000000; stroke-width: 0.8"/>
      </g>
     </g>
     <g id="text_4">
      <text style="font: 10px 'DejaVu Sans', 'Bitstream Vera Sans', 'Computer Modern Sans Serif', 'Lucida Grande', 'Verdana', 'Geneva', 'Lucid', 'Arial', 'Helvetica', 'Avant Garde', sans-serif; text-anchor: middle" x="263.695994" y="543.906563" transform="rotate(-0 263.695994 543.906563)">102</text>
     </g>
    </g>
    <g id="xtick_5">
     <g id="line2d_9">
      <path d="M 322.742585 529.308125 
L 322.742585 23.837812 
" clip-path="url(#pee72b7052f)" style="fill: none; stroke: #b0b0b0; stroke-opacity: 0.3; stroke-width: 0.8; stroke-linecap: square"/>
     </g>
     <g id="line2d_10">
      <g>
       <use xlink:href="#m828defc4ef" x="322.742585" y="529.308125" style="stroke: #000000; stroke-width: 0.8"/>
      </g>
     </g>
     <g id="text_5">
      <text style="font: 10px 'DejaVu Sans', 'Bitstream Vera Sans', 'Computer Modern Sans Serif', 'Lucida Grande', 'Verdana', 'Geneva', 'Lucid', 'Arial', 'Helvetica', 'Avant Garde', sans-serif; text-anchor: middle" x="322.742585" y="543.906563" transform="rotate(-0 322.742585 543.906563)">104</text>
     </g>
    </g>
    <g id="xtick_6">
     <g id="line2d_11">
      <path d="M 381.789176 529.308125 
L 381.789176 23.837812 
" clip-path="url(#pee72b7052f)" style="fill: none; stroke: #b0b0b0; stroke-opacity: 0.3; stroke-width: 0.8; stroke-linecap: square"/>
     </g>
     <g id="line2d_12">
      <g>
       <use xlink:href="#m828defc4ef" x="381.789176" y="529.308125" style="stroke: #000000; stroke-width: 0.8"/>
      </g>
     </g>
     <g id="text_6">
      <text style="font: 10px 'DejaVu Sans', 'Bitstream Vera Sans', 'Computer Modern Sans Serif', 'Lucida Grande', 'Verdana', 'Geneva', 'Lucid', 'Arial', 'Helvetica', 'Avant Garde', sans-serif; text-anchor: middle" x="381.789176" y="543.906563" transform="rotate(-0 381.789176 543.906563)">106</text>
     </g>
    </g>
    <g id="xtick_7">
     <g id="line2d_13">
      <path d="M 440.835767 529.308125 
L 440.835767 23.837812 
" clip-path="url(#pee72b7052f)" style="fill: none; stroke: #b0b0b0; stroke-opacity: 0.3; stroke-width: 0.8; stroke-linecap: square"/>
     </g>
     <g id="line2d_14">
      <g>
       <use xlink:href="#m828defc4ef" x="440.835767" y="529.308125" style="stroke: #000000; stroke-width: 0.8"/>
      </g>
     </g>
     <g id="text_7">
      <text style="font: 10px 'DejaVu Sans', 'Bitstream Vera Sans', 'Computer Modern Sans Serif', 'Lucida Grande', 'Verdana', 'Geneva', 'Lucid', 'Arial', 'Helvetica', 'Avant Garde', sans-serif; text-anchor: middle" x="440.835767" y="543.906563" transform="rotate(-0 440.835767 543.906563)">108</text>
     </g>
    </g>
    <g id="xtick_8">
     <g id="line2d_15">
      <path d="M 499.882358 529.308125 
L 499.882358 23.837812 
" clip-path="url(#pee72b7052f)" style="fill: none; stroke: #b0b0b0; stroke-opacity: 0.3; stroke-width: 0.8; stroke-linecap: square"/>
     </g>
     <g id="line2d_16">
      <g>
       <use xlink:href="#m828defc4ef" x="499.882358" y="529.308125" style="stroke: #000000; stroke-width: 0.8"/>
      </g>
     </g>
     <g id="text_8">
      <text style="font: 10px 'DejaVu Sans', 'Bitstream Vera Sans', 'Computer Modern Sans Serif', 'Lucida Grande', 'Verdana', 'Geneva', 'Lucid', 'Arial', 'Helvetica', 'Avant Garde', sans-serif; text-anchor: middle" x="499.882358" y="543.906563" transform="rotate(-0 499.882358 543.906563)">110</text>
     </g>
    </g>
    <g id="text_9">
     <text style="font: 12px 'DejaVu Sans', 'Bitstream Vera Sans', 'Computer Modern Sans Serif', 'Lucida Grande', 'Verdana', 'Geneva', 'Lucid', 'Arial', 'Helvetica', 'Avant Garde', sans-serif; text-anchor: middle" x="307.980938" y="559.104375" transform="rotate(-0 307.980938 559.104375)">Build Number</text>
    </g>
   </g>
   <g id="matplotlib.axis_2">
    <g id="ytick_1">
     <g id="line2d_17">
      <path d="M 64.41375 47.46532 
L 551.548125 47.46532 
" clip-path="url(#pee72b7052f)" style="fill: none; stroke: #b0b0b0; stroke-opacity: 0.3; stroke-width: 0.8; stroke-linecap: square"/>
     </g>
     <g id="line2d_18">
      <defs>
       <path id="mdc4759b174" d="M 0 0 
L -3.5 0 
" style="stroke: #000000; stroke-width: 0.8"/>
      </defs>
      <g>
       <use xlink:href="#mdc4759b174" x="64.41375" y="47.46532" style="stroke: #000000; stroke-width: 0.8"/>
      </g>
     </g>
     <g id="text_10">
      <!-- $\mathdefault{10^{8}}$ -->
      <g transform="translate(39.81375 51.264539)">
       <text>
        <tspan style="font: 10px 'DejaVu Sans'" x="0 6.362305" y="-0.9765625">10</tspan>
        <tspan style="font: 7px 'DejaVu Sans'" x="12.820312" y="-4.8046875">8</tspan>
       </text>
      </g>
     </g>
    </g>
    <g id="ytick_2">
     <g id="line2d_19">
      <defs>
       <path id="ma138a727b9" d="M 0 0 
L -2 0 
" style="stroke: #000000; stroke-width: 0.6"/>
      </defs>
      <g>
       <use xlink:href="#ma138a727b9" x="64.41375" y="518.447842" style="stroke: #000000; stroke-width: 0.6"/>
      </g>
     </g>
     <g id="text_11">
      <!-- $\mathdefault{4\times10^{7}}$ -->
      <g transform="translate(22.81375 522.247061)">
       <text>
        <tspan style="font: 10px 'DejaVu Sans'" x="0 8.310547 18.637695 25" y="-0.06406250000000036">4×10</tspan>
        <tspan style="font: 7px 'DejaVu Sans'" x="31.458008" y="-3.8921875000000004">7</tspan>
       </text>
      </g>
     </g>
    </g>
    <g id="ytick_3">
     <g id="line2d_20">
      <g>
       <use xlink:href="#ma138a727b9" x="64.41375" y="403.749844" style="stroke: #000000; stroke-width: 0.6"/>
      </g>
     </g>
    </g>
    <g id="ytick_4">
     <g id="line2d_21">
      <g>
       <use xlink:href="#ma138a727b9" x="64.41375" y="310.034756" style="stroke: #000000; stroke-width: 0.6"/>
      </g>
     </g>
     <g id="text_12">
      <!-- $\mathdefault{6\times10^{7}}$ -->
      <g transform="translate(22.81375 313.833975)">
       <text>
        <tspan style="font: 10px 'DejaVu Sans'" x="0 8.310547 18.637695 25" y="-0.06406250000000036">6×10</tspan>
        <tspan style="font: 7px 'DejaVu Sans'" x="31.458008" y="-3.8921875000000004">7</tspan>
       </text>
      </g>
     </g>
    </g>
    <g id="ytick_5">
     <g id="line2d_22">
      <g>
       <use xlink:href="#ma138a727b9" x="64.41375" y="230.799778" style="stroke: #000000; stroke-width: 0.6"/>
      </g>
     </g>
    </g>
    <g id="ytick_6">
     <g id="line2d_23">
      <g>
       <use xlink:href="#ma138a727b9" x="64.41375" y="162.163318" style="stroke: #000000; stroke-width: 0.6"/>
      </g>
     </g>
    </g>
    <g id="ytick_7">
     <g id="line2d_24">
      <g>
       <use xlink:href="#ma138a727b9" x="64.41375" y="101.62167" style="stroke: #000000; stroke-width: 0.6"/>
      </g>
     </g>
    </g>
    <g id="text_13">
     <text style="font: 12px 'DejaVu Sans', 'Bitstream Vera Sans', 'Computer Modern Sans Serif', 'Lucida Grande', 'Verdana', 'Geneva', 'Lucid', 'Arial', 'Helvetica', 'Avant Garde', sans-serif; text-anchor: middle" x="16.318125" y="276.572969" transform="rotate(-90 16.318125 276.572969)">Median Elapsed Time (nanoseconds)</text>
    </g>
   </g>
   <g id="line2d_25">
    <path d="M 86.556222 47.045419 
L 116.079517 47.041076 
L 175.126108 47.080004 
L 204.649403 47.027793 
L 234.172699 47.091446 
L 263.695994 47.086463 
L 293.21929 47.051649 
L 322.742585 47.081082 
L 352.265881 47.027741 
L 381.789176 47.032901 
L 440.835767 47.010588 
L 470.359063 47.015253 
L 499.882358 47.077231 
L 529.405653 47.017702 
" clip-path="url(#pee72b7052f)" style="fill: none; stroke: #1f77b4; stroke-width: 2; stroke-linecap: square"/>
    <defs>
     <path id="m9d78f1e77e" d="M 0 3 
C 0.795609 3 1.55874 2.683901 2.12132 2.12132 
C 2.683901 1.55874 3 0.795609 3 0 
C 3 -0.795609 2.683901 -1.55874 2.12132 -2.12132 
C 1.55874 -2.683901 0.795609 -3 0 -3 
C -0.795609 -3 -1.55874 -2.683901 -2.12132 -2.12132 
C -2.683901 -1.55874 -3 -0.795609 -3 0 
C -3 0.795609 -2.683901 1.55874 -2.12132 2.12132 
C -1.55874 2.683901 -0.795609 3 0 3 
z
" style="stroke: #1f77b4"/>
    </defs>
    <g clip-path="url(#pee72b7052f)">
     <use xlink:href="#m9d78f1e77e" x="86.556222" y="47.045419" style="fill: #1f77b4; stroke: #1f77b4"/>
     <use xlink:href="#m9d78f1e77e" x="116.079517" y="47.041076" style="fill: #1f77b4; stroke: #1f77b4"/>
     <use xlink:href="#m9d78f1e77e" x="175.126108" y="47.080004" style="fill: #1f77b4; stroke: #1f77b4"/>
     <use xlink:href="#m9d78f1e77e" x="204.649403" y="47.027793" style="fill: #1f77b4; stroke: #1f77b4"/>
     <use xlink:href="#m9d78f1e77e" x="234.172699" y="47.091446" style="fill: #1f77b4; stroke: #1f77b4"/>
     <use xlink:href="#m9d78f1e77e" x="263.695994" y="47.086463" style="fill: #1f77b4; stroke: #1f77b4"/>
     <use xlink:href="#m9d78f1e77e" x="293.21929" y="47.051649" style="fill: #1f77b4; stroke: #1f77b4"/>
     <use xlink:href="#m9d78f1e77e" x="322.742585" y="47.081082" style="fill: #1f77b4; stroke: #1f77b4"/>
     <use xlink:href="#m9d78f1e77e" x="352.265881" y="47.027741" style="fill: #1f77b4; stroke: #1f77b4"/>
     <use xlink:href="#m9d78f1e77e" x="381.789176" y="47.032901" style="fill: #1f77b4; stroke: #1f77b4"/>
     <use xlink:href="#m9d78f1e77e" x="440.835767" y="47.010588" style="fill: #1f77b4; stroke: #1f77b4"/>
     <use xlink:href="#m9d78f1e77e" x="470.359063" y="47.015253" style="fill: #1f77b4; stroke: #1f77b4"/>
     <use xlink:href="#m9d78f1e77e" x="499.882358" y="47.077231" style="fill: #1f77b4; stroke: #1f77b4"/>
     <use xlink:href="#m9d78f1e77e" x="529.405653" y="47.017702" style="fill: #1f77b4; stroke: #1f77b4"/>
    </g>
   </g>
   <g id="line2d_26">
    <path d="M 86.556222 504.89379 
L 116.079517 503.607486 
L 175.126108 506.332202 
L 204.649403 505.084141 
L 234.172699 505.472802 
L 263.695994 504.794673 
L 293.21929 504.16112 
L 322.742585 504.919896 
L 352.265881 504.286779 
L 381.789176 504.692142 
L 440.835767 504.698374 
L 470.359063 504.825382 
L 499.882358 504.994401 
L 529.405653 504.634255 
" clip-path="url(#pee72b7052f)" style="fill: none; stroke: #ff7f0e; stroke-width: 2; stroke-linecap: square"/>
    <defs>
     <path id="m485f939be2" d="M 0 3 
C 0.795609 3 1.55874 2.683901 2.12132 2.12132 
C 2.683901 1.55874 3 0.795609 3 0 
C 3 -0.795609 2.683901 -1.55874 2.12132 -2.12132 
C 1.55874 -2.683901 0.795609 -3 0 -3 
C -0.795609 -3 -1.55874 -2.683901 -2.12132 -2.12132 
C -2.683901 -1.55874 -3 -0.795609 -3 0 
C -3 0.795609 -2.683901 1.55874 -2.12132 2.12132 
C -1.55874 2.683901 -0.795609 3 0 3 
z
" style="stroke: #ff7f0e"/>
    </defs>
    <g clip-path="url(#pee72b7052f)">
     <use xlink:href="#m485f939be2" x="86.556222" y="504.89379" style="fill: #ff7f0e; stroke: #ff7f0e"/>
     <use xlink:href="#m485f939be2" x="116.079517" y="503.607486" style="fill: #ff7f0e; stroke: #ff7f0e"/>
     <use xlink:href="#m485f939be2" x="175.126108" y="506.332202" style="fill: #ff7f0e; stroke: #ff7f0e"/>
     <use xlink:href="#m485f939be2" x="204.649403" y="505.084141" style="fill: #ff7f0e; stroke: #ff7f0e"/>
     <use xlink:href="#m485f939be2" x="234.172699" y="505.472802" style="fill: #ff7f0e; stroke: #ff7f0e"/>
     <use xlink:href="#m485f939be2" x="263.695994" y="504.794673" style="fill: #ff7f0e; stroke: #ff7f0e"/>
     <use xlink:href="#m485f939be2" x="293.21929" y="504.16112" style="fill: #ff7f0e; stroke: #ff7f0e"/>
     <use xlink:href="#m485f939be2" x="322.742585" y="504.919896" style="fill: #ff7f0e; stroke: #ff7f0e"/>
     <use xlink:href="#m485f939be2" x="352.265881" y="504.286779" style="fill: #ff7f0e; stroke: #ff7f0e"/>
     <use xlink:href="#m485f939be2" x="381.789176" y="504.692142" style="fill: #ff7f0e; stroke: #ff7f0e"/>
     <use xlink:href="#m485f939be2" x="440.835767" y="504.698374" style="fill: #ff7f0e; stroke: #ff7f0e"/>
     <use xlink:href="#m485f939be2" x="470.359063" y="504.825382" style="fill: #ff7f0e; stroke: #ff7f0e"/>
     <use xlink:href="#m485f939be2" x="499.882358" y="504.994401" style="fill: #ff7f0e; stroke: #ff7f0e"/>
     <use xlink:href="#m485f939be2" x="529.405653" y="504.634255" style="fill: #ff7f0e; stroke: #ff7f0e"/>
    </g>
   </g>
   <g id="line2d_27">
    <path d="M 86.556222 46.933395 
L 116.079517 46.935546 
L 175.126108 47.002323 
L 204.649403 46.938538 
L 234.172699 47.007851 
L 263.695994 47.000212 
L 293.21929 46.973753 
L 322.742585 47.002711 
L 352.265881 46.947428 
L 381.789176 46.959179 
L 440.835767 46.89879 
L 470.359063 46.920361 
L 499.882358 47.00537 
L 529.405653 46.977418 
" clip-path="url(#pee72b7052f)" style="fill: none; stroke: #2ca02c; stroke-width: 2; stroke-linecap: square"/>
    <defs>
     <path id="m38b8ca87c1" d="M 0 3 
C 0.795609 3 1.55874 2.683901 2.12132 2.12132 
C 2.683901 1.55874 3 0.795609 3 0 
C 3 -0.795609 2.683901 -1.55874 2.12132 -2.12132 
C 1.55874 -2.683901 0.795609 -3 0 -3 
C -0.795609 -3 -1.55874 -2.683901 -2.12132 -2.12132 
C -2.683901 -1.55874 -3 -0.795609 -3 0 
C -3 0.795609 -2.683901 1.55874 -2.12132 2.12132 
C -1.55874 2.683901 -0.795609 3 0 3 
z
" style="stroke: #2ca02c"/>
    </defs>
    <g clip-path="url(#pee72b7052f)">
     <use xlink:href="#m38b8ca87c1" x="86.556222" y="46.933395" style="fill: #2ca02c; stroke: #2ca02c"/>
     <use xlink:href="#m38b8ca87c1" x="116.079517" y="46.935546" style="fill: #2ca02c; stroke: #2ca02c"/>
     <use xlink:href="#m38b8ca87c1" x="175.126108" y="47.002323" style="fill: #2ca02c; stroke: #2ca02c"/>
     <use xlink:href="#m38b8ca87c1" x="204.649403" y="46.938538" style="fill: #2ca02c; stroke: #2ca02c"/>
     <use xlink:href="#m38b8ca87c1" x="234.172699" y="47.007851" style="fill: #2ca02c; stroke: #2ca02c"/>
     <use xlink:href="#m38b8ca87c1" x="263.695994" y="47.000212" style="fill: #2ca02c; stroke: #2ca02c"/>
     <use xlink:href="#m38b8ca87c1" x="293.21929" y="46.973753" style="fill: #2ca02c; stroke: #2ca02c"/>
     <use xlink:href="#m38b8ca87c1" x="322.742585" y="47.002711" style="fill: #2ca02c; stroke: #2ca02c"/>
     <use xlink:href="#m38b8ca87c1" x="352.265881" y="46.947428" style="fill: #2ca02c; stroke: #2ca02c"/>
     <use xlink:href="#m38b8ca87c1" x="381.789176" y="46.959179" style="fill: #2ca02c; stroke: #2ca02c"/>
     <use xlink:href="#m38b8ca87c1" x="440.835767" y="46.89879" style="fill: #2ca02c; stroke: #2ca02c"/>
     <use xlink:href="#m38b8ca87c1" x="470.359063" y="46.920361" style="fill: #2ca02c; stroke: #2ca02c"/>
     <use xlink:href="#m38b8ca87c1" x="499.882358" y="47.00537" style="fill: #2ca02c; stroke: #2ca02c"/>
     <use xlink:href="#m38b8ca87c1" x="529.405653" y="46.977418" style="fill: #2ca02c; stroke: #2ca02c"/>
    </g>
   </g>
   <g id="line2d_28">
    <path d="M 86.556222 504.124409 
L 116.079517 504.547281 
L 175.126108 504.931253 
L 204.649403 503.829879 
L 234.172699 505.502805 
L 263.695994 505.584703 
L 293.21929 504.605412 
L 322.742585 505.668892 
L 352.265881 504.652608 
L 381.789176 505.788421 
L 440.835767 505.104428 
L 470.359063 504.650308 
L 499.882358 504.814801 
L 529.405653 505.235861 
" clip-path="url(#pee72b7052f)" style="fill: none; stroke: #d62728; stroke-width: 2; stroke-linecap: square"/>
    <defs>
     <path id="m732c60141c" d="M 0 3 
C 0.795609 3 1.55874 2.683901 2.12132 2.12132 
C 2.683901 1.55874 3 0.795609 3 0 
C 3 -0.795609 2.683901 -1.55874 2.12132 -2.12132 
C 1.55874 -2.683901 0.795609 -3 0 -3 
C -0.795609 -3 -1.55874 -2.683901 -2.12132 -2.12132 
C -2.683901 -1.55874 -3 -0.795609 -3 0 
C -3 0.795609 -2.683901 1.55874 -2.12132 2.12132 
C -1.55874 2.683901 -0.795609 3 0 3 
z
" style="stroke: #d62728"/>
    </defs>
    <g clip-path="url(#pee72b7052f)">
     <use xlink:href="#m732c60141c" x="86.556222" y="504.124409" style="fill: #d62728; stroke: #d62728"/>
     <use xlink:href="#m732c60141c" x="116.079517" y="504.547281" style="fill: #d62728; stroke: #d62728"/>
     <use xlink:href="#m732c60141c" x="175.126108" y="504.931253" style="fill: #d62728; stroke: #d62728"/>
     <use xlink:href="#m732c60141c" x="204.649403" y="503.829879" style="fill: #d62728; stroke: #d62728"/>
     <use xlink:href="#m732c60141c" x="234.172699" y="505.502805" style="fill: #d62728; stroke: #d62728"/>
     <use xlink:href="#m732c60141c" x="263.695994" y="505.584703" style="fill: #d62728; stroke: #d62728"/>
     <use xlink:href="#m732c60141c" x="293.21929" y="504.605412" style="fill: #d62728; stroke: #d62728"/>
     <use xlink:href="#m732c60141c" x="322.742585" y="505.668892" style="fill: #d62728; stroke: #d62728"/>
     <use xlink:href="#m732c60141c" x="352.265881" y="504.652608" style="fill: #d62728; stroke: #d62728"/>
     <use xlink:href="#m732c60141c" x="381.789176" y="505.788421" style="fill: #d62728; stroke: #d62728"/>
     <use xlink:href="#m732c60141c" x="440.835767" y="505.104428" style="fill: #d62728; stroke: #d62728"/>
     <use xlink:href="#m732c60141c" x="470.359063" y="504.650308" style="fill: #d62728; stroke: #d62728"/>
     <use xlink:href="#m732c60141c" x="499.882358" y="504.814801" style="fill: #d62728; stroke: #d62728"/>
     <use xlink:href="#m732c60141c" x="529.405653" y="505.235861" style="fill: #d62728; stroke: #d62728"/>
    </g>
   </g>
   <g id="line2d_29">
    <path d="M 86.556222 47.058206 
L 116.079517 47.073436 
L 175.126108 47.077584 
L 204.649403 47.050986 
L 234.172699 47.093062 
L 263.695994 47.102646 
L 293.21929 47.095319 
L 322.742585 47.083179 
L 352.265881 47.085848 
L 381.789176 47.082449 
L 440.835767 47.076505 
L 470.359063 47.104627 
L 499.882358 47.080111 
" clip-path="url(#pee72b7052f)" style="fill: none; stroke: #9467bd; stroke-width: 2; stroke-linecap: square"/>
    <defs>
     <path id="m25214342a6" d="M 0 3 
C 0.795609 3 1.55874 2.683901 2.12132 2.12132 
C 2.683901 1.55874 3 0.795609 3 0 
C 3 -0.795609 2.683901 -1.55874 2.12132 -2.12132 
C 1.55874 -2.683901 0.795609 -3 0 -3 
C -0.795609 -3 -1.55874 -2.683901 -2.12132 -2.12132 
C -2.683901 -1.55874 -3 -0.795609 -3 0 
C -3 0.795609 -2.683901 1.55874 -2.12132 2.12132 
C -1.55874 2.683901 -0.795609 3 0 3 
z
" style="stroke: #9467bd"/>
    </defs>
    <g clip-path="url(#pee72b7052f)">
     <use xlink:href="#m25214342a6" x="86.556222" y="47.058206" style="fill: #9467bd; stroke: #9467bd"/>
     <use xlink:href="#m25214342a6" x="116.079517" y="47.073436" style="fill: #9467bd; stroke: #9467bd"/>
     <use xlink:href="#m25214342a6" x="175.126108" y="47.077584" style="fill: #9467bd; stroke: #9467bd"/>
     <use xlink:href="#m25214342a6" x="204.649403" y="47.050986" style="fill: #9467bd; stroke: #9467bd"/>
     <use xlink:href="#m25214342a6" x="234.172699" y="47.093062" style="fill: #9467bd; stroke: #9467bd"/>
     <use xlink:href="#m25214342a6" x="263.695994" y="47.102646" style="fill: #9467bd; stroke: #9467bd"/>
     <use xlink:href="#m25214342a6" x="293.21929" y="47.095319" style="fill: #9467bd; stroke: #9467bd"/>
     <use xlink:href="#m25214342a6" x="322.742585" y="47.083179" style="fill: #9467bd; stroke: #9467bd"/>
     <use xlink:href="#m25214342a6" x="352.265881" y="47.085848" style="fill: #9467bd; stroke: #9467bd"/>
     <use xlink:href="#m25214342a6" x="381.789176" y="47.082449" style="fill: #9467bd; stroke: #9467bd"/>
     <use xlink:href="#m25214342a6" x="440.835767" y="47.076505" style="fill: #9467bd; stroke: #9467bd"/>
     <use xlink:href="#m25214342a6" x="470.359063" y="47.104627" style="fill: #9467bd; stroke: #9467bd"/>
     <use xlink:href="#m25214342a6" x="499.882358" y="47.080111" style="fill: #9467bd; stroke: #9467bd"/>
    </g>
   </g>
   <g id="line2d_30">
    <path d="M 86.556222 423.351373 
L 116.079517 423.188249 
L 175.126108 423.776519 
L 204.649403 424.294215 
L 234.172699 423.685715 
L 263.695994 423.832076 
L 293.21929 423.624349 
L 322.742585 423.64012 
L 352.265881 423.84617 
L 381.789176 422.149169 
L 440.835767 423.487148 
L 470.359063 424.331331 
L 499.882358 423.325687 
" clip-path="url(#pee72b7052f)" style="fill: none; stroke: #8c564b; stroke-width: 2; stroke-linecap: square"/>
    <defs>
     <path id="mfae594b73d" d="M 0 3 
C 0.795609 3 1.55874 2.683901 2.12132 2.12132 
C 2.683901 1.55874 3 0.795609 3 0 
C 3 -0.795609 2.683901 -1.55874 2.12132 -2.12132 
C 1.55874 -2.683901 0.795609 -3 0 -3 
C -0.795609 -3 -1.55874 -2.683901 -2.12132 -2.12132 
C -2.683901 -1.55874 -3 -0.795609 -3 0 
C -3 0.795609 -2.683901 1.55874 -2.12132 2.12132 
C -1.55874 2.683901 -0.795609 3 0 3 
z
" style="stroke: #8c564b"/>
    </defs>
    <g clip-path="url(#pee72b7052f)">
     <use xlink:href="#mfae594b73d" x="86.556222" y="423.351373" style="fill: #8c564b; stroke: #8c564b"/>
     <use xlink:href="#mfae594b73d" x="116.079517" y="423.188249" style="fill: #8c564b; stroke: #8c564b"/>
     <use xlink:href="#mfae594b73d" x="175.126108" y="423.776519" style="fill: #8c564b; stroke: #8c564b"/>
     <use xlink:href="#mfae594b73d" x="204.649403" y="424.294215" style="fill: #8c564b; stroke: #8c564b"/>
     <use xlink:href="#mfae594b73d" x="234.172699" y="423.685715" style="fill: #8c564b; stroke: #8c564b"/>
     <use xlink:href="#mfae594b73d" x="263.695994" y="423.832076" style="fill: #8c564b; stroke: #8c564b"/>
     <use xlink:href="#mfae594b73d" x="293.21929" y="423.624349" style="fill: #8c564b; stroke: #8c564b"/>
     <use xlink:href="#mfae594b73d" x="322.742585" y="423.64012" style="fill: #8c564b; stroke: #8c564b"/>
     <use xlink:href="#mfae594b73d" x="352.265881" y="423.84617" style="fill: #8c564b; stroke: #8c564b"/>
     <use xlink:href="#mfae594b73d" x="381.789176" y="422.149169" style="fill: #8c564b; stroke: #8c564b"/>
     <use xlink:href="#mfae594b73d" x="440.835767" y="423.487148" style="fill: #8c564b; stroke: #8c564b"/>
     <use xlink:href="#mfae594b73d" x="470.359063" y="424.331331" style="fill: #8c564b; stroke: #8c564b"/>
     <use xlink:href="#mfae594b73d" x="499.882358" y="423.325687" style="fill: #8c564b; stroke: #8c564b"/>
    </g>
   </g>
   <g id="line2d_31">
    <path d="M 86.556222 46.96239 
L 116.079517 46.992283 
L 175.126108 46.999001 
L 204.649403 46.813736 
L 234.172699 47.000552 
L 263.695994 47.007251 
L 293.21929 46.996215 
L 322.742585 46.999432 
L 352.265881 46.98848 
L 381.789176 46.998826 
L 440.835767 46.99576 
L 470.359063 47.011218 
L 499.882358 47.005003 
" clip-path="url(#pee72b7052f)" style="fill: none; stroke: #e377c2; stroke-width: 2; stroke-linecap: square"/>
    <defs>
     <path id="m623a55cc09" d="M 0 3 
C 0.795609 3 1.55874 2.683901 2.12132 2.12132 
C 2.683901 1.55874 3 0.795609 3 0 
C 3 -0.795609 2.683901 -1.55874 2.12132 -2.12132 
C 1.55874 -2.683901 0.795609 -3 0 -3 
C -0.795609 -3 -1.55874 -2.683901 -2.12132 -2.12132 
C -2.683901 -1.55874 -3 -0.795609 -3 0 
C -3 0.795609 -2.683901 1.55874 -2.12132 2.12132 
C -1.55874 2.683901 -0.795609 3 0 3 
z
" style="stroke: #e377c2"/>
    </defs>
    <g clip-path="url(#pee72b7052f)">
     <use xlink:href="#m623a55cc09" x="86.556222" y="46.96239" style="fill: #e377c2; stroke: #e377c2"/>
     <use xlink:href="#m623a55cc09" x="116.079517" y="46.992283" style="fill: #e377c2; stroke: #e377c2"/>
     <use xlink:href="#m623a55cc09" x="175.126108" y="46.999001" style="fill: #e377c2; stroke: #e377c2"/>
     <use xlink:href="#m623a55cc09" x="204.649403" y="46.813736" style="fill: #e377c2; stroke: #e377c2"/>
     <use xlink:href="#m623a55cc09" x="234.172699" y="47.000552" style="fill: #e377c2; stroke: #e377c2"/>
     <use xlink:href="#m623a55cc09" x="263.695994" y="47.007251" style="fill: #e377c2; stroke: #e377c2"/>
     <use xlink:href="#m623a55cc09" x="293.21929" y="46.996215" style="fill: #e377c2; stroke: #e377c2"/>
     <use xlink:href="#m623a55cc09" x="322.742585" y="46.999432" style="fill: #e377c2; stroke: #e377c2"/>
     <use xlink:href="#m623a55cc09" x="352.265881" y="46.98848" style="fill: #e377c2; stroke: #e377c2"/>
     <use xlink:href="#m623a55cc09" x="381.789176" y="46.998826" style="fill: #e377c2; stroke: #e377c2"/>
     <use xlink:href="#m623a55cc09" x="440.835767" y="46.99576" style="fill: #e377c2; stroke: #e377c2"/>
     <use xlink:href="#m623a55cc09" x="470.359063" y="47.011218" style="fill: #e377c2; stroke: #e377c2"/>
     <use xlink:href="#m623a55cc09" x="499.882358" y="47.005003" style="fill: #e377c2; stroke: #e377c2"/>
    </g>
   </g>
   <g id="line2d_32">
    <path d="M 86.556222 423.584551 
L 116.079517 424.032078 
L 175.126108 423.288595 
L 204.649403 423.495664 
L 234.172699 423.826623 
L 263.695994 423.778058 
L 293.21929 422.614645 
L 322.742585 423.163554 
L 352.265881 423.569898 
L 381.789176 423.321611 
L 440.835767 423.151116 
L 470.359063 423.675467 
L 499.882358 422.802532 
" clip-path="url(#pee72b7052f)" style="fill: none; stroke: #7f7f7f; stroke-width: 2; stroke-linecap: square"/>
    <defs>
     <path id="m086904c24f" d="M 0 3 
C 0.795609 3 1.55874 2.683901 2.12132 2.12132 
C 2.683901 1.55874 3 0.795609 3 0 
C 3 -0.795609 2.683901 -1.55874 2.12132 -2.12132 
C 1.55874 -2.683901 0.795609 -3 0 -3 
C -0.795609 -3 -1.55874 -2.683901 -2.12132 -2.12132 
C -2.683901 -1.55874 -3 -0.795609 -3 0 
C -3 0.795609 -2.683901 1.55874 -2.12132 2.12132 
C -1.55874 2.683901 -0.795609 3 0 3 
z
" style="stroke: #7f7f7f"/>
    </defs>
    <g clip-path="url(#pee72b7052f)">
     <use xlink:href="#m086904c24f" x="86.556222" y="423.584551" style="fill: #7f7f7f; stroke: #7f7f7f"/>
     <use xlink:href="#m086904c24f" x="116.079517" y="424.032078" style="fill: #7f7f7f; stroke: #7f7f7f"/>
     <use xlink:href="#m086904c24f" x="175.126108" y="423.288595" style="fill: #7f7f7f; stroke: #7f7f7f"/>
     <use xlink:href="#m086904c24f" x="204.649403" y="423.495664" style="fill: #7f7f7f; stroke: #7f7f7f"/>
     <use xlink:href="#m086904c24f" x="234.172699" y="423.826623" style="fill: #7f7f7f; stroke: #7f7f7f"/>
     <use xlink:href="#m086904c24f" x="263.695994" y="423.778058" style="fill: #7f7f7f; stroke: #7f7f7f"/>
     <use xlink:href="#m086904c24f" x="293.21929" y="422.614645" style="fill: #7f7f7f; stroke: #7f7f7f"/>
     <use xlink:href="#m086904c24f" x="322.742585" y="423.163554" style="fill: #7f7f7f; stroke: #7f7f7f"/>
     <use xlink:href="#m086904c24f" x="352.265881" y="423.569898" style="fill: #7f7f7f; stroke: #7f7f7f"/>
     <use xlink:href="#m086904c24f" x="381.789176" y="423.321611" style="fill: #7f7f7f; stroke: #7f7f7f"/>
     <use xlink:href="#m086904c24f" x="440.835767" y="423.151116" style="fill: #7f7f7f; stroke: #7f7f7f"/>
     <use xlink:href="#m086904c24f" x="470.359063" y="423.675467" style="fill: #7f7f7f; stroke: #7f7f7f"/>
     <use xlink:href="#m086904c24f" x="499.882358" y="422.802532" style="fill: #7f7f7f; stroke: #7f7f7f"/>
    </g>
   </g>
   <g id="patch_3">
    <path d="M 64.41375 529.308125 
L 64.41375 23.837812 
" style="fill: none; stroke: #000000; stroke-width: 0.8; stroke-linejoin: miter; stroke-linecap: square"/>
   </g>
   <g id="patch_4">
    <path d="M 551.548125 529.308125 
L 551.548125 23.837812 
" style="fill: none; stroke: #000000; stroke-width: 0.8; stroke-linejoin: miter; stroke-linecap: square"/>
   </g>
   <g id="patch_5">
    <path d="M 64.41375 529.308125 
L 551.548125 529.308125 
" style="fill: none; stroke: #000000; stroke-width: 0.8; stroke-linejoin: miter; stroke-linecap: square"/>
   </g>
   <g id="patch_6">
    <path d="M 64.41375 23.837812 
L 551.548125 23.837812 
" style="fill: none; stroke: #000000; stroke-width: 0.8; stroke-linejoin: miter; stroke-linecap: square"/>
   </g>
   <g id="text_14">
    <text style="font: 700 14px 'DejaVu Sans', 'Bitstream Vera Sans', 'Computer Modern Sans Serif', 'Lucida Grande', 'Verdana', 'Geneva', 'Lucid', 'Arial', 'Helvetica', 'Avant Garde', sans-serif; text-anchor: middle" x="307.980938" y="17.837813" transform="rotate(-0 307.980938 17.837813)">Coroutine Parallel Compute - Performance Trend</text>
   </g>
   <g id="legend_1">
    <g id="patch_7">
     <path d="M 582.904844 151.487813 
L 838.476719 151.487813 
Q 840.476719 151.487813 840.476719 149.487813 
L 840.476719 30.837813 
Q 840.476719 28.837813 838.476719 28.837813 
L 582.904844 28.837813 
Q 580.904844 28.837813 580.904844 30.837813 
L 580.904844 149.487813 
Q 580.904844 151.487813 582.904844 151.487813 
z
" style="fill: #ffffff; opacity: 0.8; stroke: #cccccc; stroke-linejoin: miter"/>
    </g>
    <g id="line2d_33">
     <path d="M 584.904844 36.93625 
L 594.904844 36.93625 
L 604.904844 36.93625 
" style="fill: none; stroke: #1f77b4; stroke-width: 2; stroke-linecap: square"/>
     <g>
      <use xlink:href="#m9d78f1e77e" x="594.904844" y="36.93625" style="fill: #1f77b4; stroke: #1f77b4"/>
     </g>
    </g>
    <g id="text_15">
     <text style="font: 10px 'DejaVu Sans', 'Bitstream Vera Sans', 'Computer Modern Sans Serif', 'Lucida Grande', 'Verdana', 'Geneva', 'Lucid', 'Arial', 'Helvetica', 'Avant Garde', sans-serif; text-anchor: start" x="612.904844" y="40.43625" transform="rotate(-0 612.904844 40.43625)">gcc-14.2 - ParallelCompute_Coroutines_V1</text>
    </g>
    <g id="line2d_34">
     <path d="M 584.904844 51.8925 
L 594.904844 51.8925 
L 604.904844 51.8925 
" style="fill: none; stroke: #ff7f0e; stroke-width: 2; stroke-linecap: square"/>
     <g>
      <use xlink:href="#m485f939be2" x="594.904844" y="51.8925" style="fill: #ff7f0e; stroke: #ff7f0e"/>
     </g>
    </g>
    <g id="text_16">
     <text style="font: 10px 'DejaVu Sans', 'Bitstream Vera Sans', 'Computer Modern Sans Serif', 'Lucida Grande', 'Verdana', 'Geneva', 'Lucid', 'Arial', 'Helvetica', 'Avant Garde', sans-serif; text-anchor: start" x="612.904844" y="55.3925" transform="rotate(-0 612.904844 55.3925)">gcc-14.2 - ParallelCompute_RegularTasks_V1</text>
    </g>
    <g id="line2d_35">
     <path d="M 584.904844 66.84875 
L 594.904844 66.84875 
L 604.904844 66.84875 
" style="fill: none; stroke: #2ca02c; stroke-width: 2; stroke-linecap: square"/>
     <g>
      <use xlink:href="#m38b8ca87c1" x="594.904844" y="66.84875" style="fill: #2ca02c; stroke: #2ca02c"/>
     </g>
    </g>
    <g id="text_17">
     <text style="font: 10px 'DejaVu Sans', 'Bitstream Vera Sans', 'Computer Modern Sans Serif', 'Lucida Grande', 'Verdana', 'Geneva', 'Lucid', 'Arial', 'Helvetica', 'Avant Garde', sans-serif; text-anchor: start" x="612.904844" y="70.34875" transform="rotate(-0 612.904844 70.34875)">gcc-14.2 - ParallelCompute_Coroutines_V2</text>
    </g>
    <g id="line2d_36">
     <path d="M 584.904844 81.805 
L 594.904844 81.805 
L 604.904844 81.805 
" style="fill: none; stroke: #d62728; stroke-width: 2; stroke-linecap: square"/>
     <g>
      <use xlink:href="#m732c60141c" x="594.904844" y="81.805" style="fill: #d62728; stroke: #d62728"/>
     </g>
    </g>
    <g id="text_18">
     <text style="font: 10px 'DejaVu Sans', 'Bitstream Vera Sans', 'Computer Modern Sans Serif', 'Lucida Grande', 'Verdana', 'Geneva', 'Lucid', 'Arial', 'Helvetica', 'Avant Garde', sans-serif; text-anchor: start" x="612.904844" y="85.305" transform="rotate(-0 612.904844 85.305)">gcc-14.2 - ParallelCompute_RegularTasks_V2</text>
    </g>
    <g id="line2d_37">
     <path d="M 584.904844 96.76125 
L 594.904844 96.76125 
L 604.904844 96.76125 
" style="fill: none; stroke: #9467bd; stroke-width: 2; stroke-linecap: square"/>
     <g>
      <use xlink:href="#m25214342a6" x="594.904844" y="96.76125" style="fill: #9467bd; stroke: #9467bd"/>
     </g>
    </g>
    <g id="text_19">
     <text style="font: 10px 'DejaVu Sans', 'Bitstream Vera Sans', 'Computer Modern Sans Serif', 'Lucida Grande', 'Verdana', 'Geneva', 'Lucid', 'Arial', 'Helvetica', 'Avant Garde', sans-serif; text-anchor: start" x="612.904844" y="100.26125" transform="rotate(-0 612.904844 100.26125)">gcc-4.2 - ParallelCompute_Coroutines_V1</text>
    </g>
    <g id="line2d_38">
     <path d="M 584.904844 111.7175 
L 594.904844 111.7175 
L 604.904844 111.7175 
" style="fill: none; stroke: #8c564b; stroke-width: 2; stroke-linecap: square"/>
     <g>
      <use xlink:href="#mfae594b73d" x="594.904844" y="111.7175" style="fill: #8c564b; stroke: #8c564b"/>
     </g>
    </g>
    <g id="text_20">
     <text style="font: 10px 'DejaVu Sans', 'Bitstream Vera Sans', 'Computer Modern Sans Serif', 'Lucida Grande', 'Verdana', 'Geneva', 'Lucid', 'Arial', 'Helvetica', 'Avant Garde', sans-serif; text-anchor: start" x="612.904844" y="115.2175" transform="rotate(-0 612.904844 115.2175)">gcc-4.2 - ParallelCompute_RegularTasks_V1</text>
    </g>
    <g id="line2d_39">
     <path d="M 584.904844 126.67375 
L 594.904844 126.67375 
L 604.904844 126.67375 
" style="fill: none; stroke: #e377c2; stroke-width: 2; stroke-linecap: square"/>
     <g>
      <use xlink:href="#m623a55cc09" x="594.904844" y="126.67375" style="fill: #e377c2; stroke: #e377c2"/>
     </g>
    </g>
    <g id="text_21">
     <text style="font: 10px 'DejaVu Sans', 'Bitstream Vera Sans', 'Computer Modern Sans Serif', 'Lucida Grande', 'Verdana', 'Geneva', 'Lucid', 'Arial', 'Helvetica', 'Avant Garde', sans-serif; text-anchor: start" x="612.904844" y="130.17375" transform="rotate(-0 612.904844 130.17375)">gcc-4.2 - ParallelCompute_Coroutines_V2</text>
    </g>
    <g id="line2d_40">
     <path d="M 584.904844 141.63 
L 594.904844 141.63 
L 604.904844 141.63 
" style="fill: none; stroke: #7f7f7f; stroke-width: 2; stroke-linecap: square"/>
     <g>
      <use xlink:href="#m086904c24f" x="594.904844" y="141.63" style="fill: #7f7f7f; stroke: #7f7f7f"/>
     </g>
    </g>
    <g id="text_22">
     <text style="font: 10px 'DejaVu Sans', 'Bitstream Vera Sans', 'Computer Modern Sans Serif', 'Lucida Grande', 'Verdana', 'Geneva', 'Lucid', 'Arial', 'Helvetica', 'Avant Garde', sans-serif; text-anchor: start" x="612.904844" y="145.13" transform="rotate(-0 612.904844 145.13)">gcc-4.2 - ParallelCompute_RegularTasks_V2</text>
    </g>
   </g>
  </g>
 </g>
 <defs>
  <clipPath id="pee72b7052f">
   <rect x="64.41375" y="23.837813" width="487.134375" height="505.470313"/>
  </clipPath>
 </defs>
</svg>
