<?xml version="1.0" encoding="utf-8" standalone="no"?>
<!DOCTYPE svg PUBLIC "-//W3C//DTD SVG 1.1//EN"
  "http://www.w3.org/Graphics/SVG/1.1/DTD/svg11.dtd">
<svg xmlns:xlink="http://www.w3.org/1999/xlink" width="855.204687pt" height="568.8pt" viewBox="0 0 855.204687 568.8" xmlns="http://www.w3.org/2000/svg" version="1.1">
 <metadata>
  <rdf:RDF xmlns:dc="http://purl.org/dc/elements/1.1/" xmlns:cc="http://creativecommons.org/ns#" xmlns:rdf="http://www.w3.org/1999/02/22-rdf-syntax-ns#">
   <cc:Work>
    <dc:type rdf:resource="http://purl.org/dc/dcmitype/StillImage"/>
    <dc:date>2025-08-05T04:43:13.697826</dc:date>
    <dc:format>image/svg+xml</dc:format>
    <dc:creator>
     <cc:Agent>
      <dc:title>Matplotlib v3.9.4, https://matplotlib.org/</dc:title>
     </cc:Agent>
    </dc:creator>
   </cc:Work>
  </rdf:RDF>
 </metadata>
 <defs>
  <style type="text/css">*{stroke-linejoin: round; stroke-linecap: butt}</style>
 </defs>
 <g id="figure_1">
  <g id="patch_1">
   <path d="M 0 568.8 
L 855.204687 568.8 
L 855.204687 0 
L 0 0 
z
" style="fill: #ffffff"/>
  </g>
  <g id="axes_1">
   <g id="patch_2">
    <path d="M 64.41375 529.308125 
L 702.1075 529.308125 
L 702.1075 23.837812 
L 64.41375 23.837812 
z
" style="fill: #ffffff"/>
   </g>
   <g id="matplotlib.axis_1">
    <g id="xtick_1">
     <g id="line2d_1">
      <path d="M 157.81334 529.308125 
L 157.81334 23.837812 
" clip-path="url(#pe73e597b6a)" style="fill: none; stroke: #b0b0b0; stroke-opacity: 0.3; stroke-width: 0.8; stroke-linecap: square"/>
     </g>
     <g id="line2d_2">
      <defs>
       <path id="m6cd9db7724" d="M 0 0 
L 0 3.5 
" style="stroke: #000000; stroke-width: 0.8"/>
      </defs>
      <g>
       <use xlink:href="#m6cd9db7724" x="157.81334" y="529.308125" style="stroke: #000000; stroke-width: 0.8"/>
      </g>
     </g>
     <g id="text_1">
      <text style="font: 10px 'DejaVu Sans', 'Bitstream Vera Sans', 'Computer Modern Sans Serif', 'Lucida Grande', 'Verdana', 'Geneva', 'Lucid', 'Arial', 'Helvetica', 'Avant Garde', sans-serif; text-anchor: middle" x="157.81334" y="543.906563" transform="rotate(-0 157.81334 543.906563)">72</text>
     </g>
    </g>
    <g id="xtick_2">
     <g id="line2d_3">
      <path d="M 286.64036 529.308125 
L 286.64036 23.837812 
" clip-path="url(#pe73e597b6a)" style="fill: none; stroke: #b0b0b0; stroke-opacity: 0.3; stroke-width: 0.8; stroke-linecap: square"/>
     </g>
     <g id="line2d_4">
      <g>
       <use xlink:href="#m6cd9db7724" x="286.64036" y="529.308125" style="stroke: #000000; stroke-width: 0.8"/>
      </g>
     </g>
     <g id="text_2">
      <text style="font: 10px 'DejaVu Sans', 'Bitstream Vera Sans', 'Computer Modern Sans Serif', 'Lucida Grande', 'Verdana', 'Geneva', 'Lucid', 'Arial', 'Helvetica', 'Avant Garde', sans-serif; text-anchor: middle" x="286.64036" y="543.906563" transform="rotate(-0 286.64036 543.906563)">74</text>
     </g>
    </g>
    <g id="xtick_3">
     <g id="line2d_5">
      <path d="M 415.46738 529.308125 
L 415.46738 23.837812 
" clip-path="url(#pe73e597b6a)" style="fill: none; stroke: #b0b0b0; stroke-opacity: 0.3; stroke-width: 0.8; stroke-linecap: square"/>
     </g>
     <g id="line2d_6">
      <g>
       <use xlink:href="#m6cd9db7724" x="415.46738" y="529.308125" style="stroke: #000000; stroke-width: 0.8"/>
      </g>
     </g>
     <g id="text_3">
      <text style="font: 10px 'DejaVu Sans', 'Bitstream Vera Sans', 'Computer Modern Sans Serif', 'Lucida Grande', 'Verdana', 'Geneva', 'Lucid', 'Arial', 'Helvetica', 'Avant Garde', sans-serif; text-anchor: middle" x="415.46738" y="543.906563" transform="rotate(-0 415.46738 543.906563)">76</text>
     </g>
    </g>
    <g id="xtick_4">
     <g id="line2d_7">
      <path d="M 544.2944 529.308125 
L 544.2944 23.837812 
" clip-path="url(#pe73e597b6a)" style="fill: none; stroke: #b0b0b0; stroke-opacity: 0.3; stroke-width: 0.8; stroke-linecap: square"/>
     </g>
     <g id="line2d_8">
      <g>
       <use xlink:href="#m6cd9db7724" x="544.2944" y="529.308125" style="stroke: #000000; stroke-width: 0.8"/>
      </g>
     </g>
     <g id="text_4">
      <text style="font: 10px 'DejaVu Sans', 'Bitstream Vera Sans', 'Computer Modern Sans Serif', 'Lucida Grande', 'Verdana', 'Geneva', 'Lucid', 'Arial', 'Helvetica', 'Avant Garde', sans-serif; text-anchor: middle" x="544.2944" y="543.906563" transform="rotate(-0 544.2944 543.906563)">78</text>
     </g>
    </g>
    <g id="xtick_5">
     <g id="line2d_9">
      <path d="M 673.12142 529.308125 
L 673.12142 23.837812 
" clip-path="url(#pe73e597b6a)" style="fill: none; stroke: #b0b0b0; stroke-opacity: 0.3; stroke-width: 0.8; stroke-linecap: square"/>
     </g>
     <g id="line2d_10">
      <g>
       <use xlink:href="#m6cd9db7724" x="673.12142" y="529.308125" style="stroke: #000000; stroke-width: 0.8"/>
      </g>
     </g>
     <g id="text_5">
      <text style="font: 10px 'DejaVu Sans', 'Bitstream Vera Sans', 'Computer Modern Sans Serif', 'Lucida Grande', 'Verdana', 'Geneva', 'Lucid', 'Arial', 'Helvetica', 'Avant Garde', sans-serif; text-anchor: middle" x="673.12142" y="543.906563" transform="rotate(-0 673.12142 543.906563)">80</text>
     </g>
    </g>
    <g id="text_6">
     <text style="font: 12px 'DejaVu Sans', 'Bitstream Vera Sans', 'Computer Modern Sans Serif', 'Lucida Grande', 'Verdana', 'Geneva', 'Lucid', 'Arial', 'Helvetica', 'Avant Garde', sans-serif; text-anchor: middle" x="383.260625" y="559.104375" transform="rotate(-0 383.260625 559.104375)">Build Number</text>
    </g>
   </g>
   <g id="matplotlib.axis_2">
    <g id="ytick_1">
     <g id="line2d_11">
      <path d="M 64.41375 469.409356 
L 702.1075 469.409356 
" clip-path="url(#pe73e597b6a)" style="fill: none; stroke: #b0b0b0; stroke-opacity: 0.3; stroke-width: 0.8; stroke-linecap: square"/>
     </g>
     <g id="line2d_12">
      <defs>
       <path id="m4828810343" d="M 0 0 
L -3.5 0 
" style="stroke: #000000; stroke-width: 0.8"/>
      </defs>
      <g>
       <use xlink:href="#m4828810343" x="64.41375" y="469.409356" style="stroke: #000000; stroke-width: 0.8"/>
      </g>
     </g>
     <g id="text_7">
      <!-- $\mathdefault{10^{5}}$ -->
      <g transform="translate(39.81375 473.208574)">
       <text>
        <tspan style="font: 10px 'DejaVu Sans'" x="0 6.362305" y="-0.06406250000000036">10</tspan>
        <tspan style="font: 7px 'DejaVu Sans'" x="12.820312" y="-3.8921875000000004">5</tspan>
       </text>
      </g>
     </g>
    </g>
    <g id="ytick_2">
     <g id="line2d_13">
      <defs>
       <path id="md80f5ca4fe" d="M 0 0 
L -2 0 
" style="stroke: #000000; stroke-width: 0.6"/>
      </defs>
      <g>
       <use xlink:href="#md80f5ca4fe" x="64.41375" y="499.272711" style="stroke: #000000; stroke-width: 0.6"/>
      </g>
     </g>
    </g>
    <g id="ytick_3">
     <g id="line2d_14">
      <g>
       <use xlink:href="#md80f5ca4fe" x="64.41375" y="272.94391" style="stroke: #000000; stroke-width: 0.6"/>
      </g>
     </g>
     <g id="text_8">
      <!-- $\mathdefault{2\times10^{5}}$ -->
      <g transform="translate(22.81375 276.743129)">
       <text>
        <tspan style="font: 10px 'DejaVu Sans'" x="0 8.310547 18.637695 25" y="-0.06406250000000036">2×10</tspan>
        <tspan style="font: 7px 'DejaVu Sans'" x="31.458008" y="-3.8921875000000004">5</tspan>
       </text>
      </g>
     </g>
    </g>
    <g id="ytick_4">
     <g id="line2d_15">
      <g>
       <use xlink:href="#md80f5ca4fe" x="64.41375" y="158.018992" style="stroke: #000000; stroke-width: 0.6"/>
      </g>
     </g>
     <g id="text_9">
      <!-- $\mathdefault{3\times10^{5}}$ -->
      <g transform="translate(22.81375 161.818211)">
       <text>
        <tspan style="font: 10px 'DejaVu Sans'" x="0 8.310547 18.637695 25" y="-0.06406250000000036">3×10</tspan>
        <tspan style="font: 7px 'DejaVu Sans'" x="31.458008" y="-3.8921875000000004">5</tspan>
       </text>
      </g>
     </g>
    </g>
    <g id="ytick_5">
     <g id="line2d_16">
      <g>
       <use xlink:href="#md80f5ca4fe" x="64.41375" y="76.478465" style="stroke: #000000; stroke-width: 0.6"/>
      </g>
     </g>
     <g id="text_10">
      <!-- $\mathdefault{4\times10^{5}}$ -->
      <g transform="translate(22.81375 80.277684)">
       <text>
        <tspan style="font: 10px 'DejaVu Sans'" x="0 8.310547 18.637695 25" y="-0.06406250000000036">4×10</tspan>
        <tspan style="font: 7px 'DejaVu Sans'" x="31.458008" y="-3.8921875000000004">5</tspan>
       </text>
      </g>
     </g>
    </g>
    <g id="text_11">
     <text style="font: 12px 'DejaVu Sans', 'Bitstream Vera Sans', 'Computer Modern Sans Serif', 'Lucida Grande', 'Verdana', 'Geneva', 'Lucid', 'Arial', 'Helvetica', 'Avant Garde', sans-serif; text-anchor: middle" x="16.318125" y="276.572969" transform="rotate(-90 16.318125 276.572969)">Median Elapsed Time (nanoseconds)</text>
    </g>
   </g>
   <g id="line2d_17">
    <path d="M 93.39983 240.947357 
L 157.81334 246.540562 
L 222.22685 244.675072 
L 286.64036 247.109753 
L 351.05387 191.983327 
L 415.46738 92.250202 
L 479.88089 247.075342 
L 544.2944 246.119188 
L 608.70791 46.813736 
L 673.12142 246.897788 
" clip-path="url(#pe73e597b6a)" style="fill: none; stroke: #1f77b4; stroke-width: 2; stroke-linecap: square"/>
    <defs>
     <path id="mbf21dd9117" d="M 0 3 
C 0.795609 3 1.55874 2.683901 2.12132 2.12132 
C 2.683901 1.55874 3 0.795609 3 0 
C 3 -0.795609 2.683901 -1.55874 2.12132 -2.12132 
C 1.55874 -2.683901 0.795609 -3 0 -3 
C -0.795609 -3 -1.55874 -2.683901 -2.12132 -2.12132 
C -2.683901 -1.55874 -3 -0.795609 -3 0 
C -3 0.795609 -2.683901 1.55874 -2.12132 2.12132 
C -1.55874 2.683901 -0.795609 3 0 3 
z
" style="stroke: #1f77b4"/>
    </defs>
    <g clip-path="url(#pe73e597b6a)">
     <use xlink:href="#mbf21dd9117" x="93.39983" y="240.947357" style="fill: #1f77b4; stroke: #1f77b4"/>
     <use xlink:href="#mbf21dd9117" x="157.81334" y="246.540562" style="fill: #1f77b4; stroke: #1f77b4"/>
     <use xlink:href="#mbf21dd9117" x="222.22685" y="244.675072" style="fill: #1f77b4; stroke: #1f77b4"/>
     <use xlink:href="#mbf21dd9117" x="286.64036" y="247.109753" style="fill: #1f77b4; stroke: #1f77b4"/>
     <use xlink:href="#mbf21dd9117" x="351.05387" y="191.983327" style="fill: #1f77b4; stroke: #1f77b4"/>
     <use xlink:href="#mbf21dd9117" x="415.46738" y="92.250202" style="fill: #1f77b4; stroke: #1f77b4"/>
     <use xlink:href="#mbf21dd9117" x="479.88089" y="247.075342" style="fill: #1f77b4; stroke: #1f77b4"/>
     <use xlink:href="#mbf21dd9117" x="544.2944" y="246.119188" style="fill: #1f77b4; stroke: #1f77b4"/>
     <use xlink:href="#mbf21dd9117" x="608.70791" y="46.813736" style="fill: #1f77b4; stroke: #1f77b4"/>
     <use xlink:href="#mbf21dd9117" x="673.12142" y="246.897788" style="fill: #1f77b4; stroke: #1f77b4"/>
    </g>
   </g>
   <g id="line2d_18">
    <path d="M 93.39983 240.762341 
L 157.81334 239.092544 
L 222.22685 236.800073 
L 286.64036 234.748224 
L 351.05387 202.069613 
L 415.46738 236.24447 
L 479.88089 236.872314 
L 544.2944 238.497416 
L 608.70791 129.038394 
L 673.12142 231.409447 
" clip-path="url(#pe73e597b6a)" style="fill: none; stroke: #ff7f0e; stroke-width: 2; stroke-linecap: square"/>
    <defs>
     <path id="m612f186075" d="M 0 3 
C 0.795609 3 1.55874 2.683901 2.12132 2.12132 
C 2.683901 1.55874 3 0.795609 3 0 
C 3 -0.795609 2.683901 -1.55874 2.12132 -2.12132 
C 1.55874 -2.683901 0.795609 -3 0 -3 
C -0.795609 -3 -1.55874 -2.683901 -2.12132 -2.12132 
C -2.683901 -1.55874 -3 -0.795609 -3 0 
C -3 0.795609 -2.683901 1.55874 -2.12132 2.12132 
C -1.55874 2.683901 -0.795609 3 0 3 
z
" style="stroke: #ff7f0e"/>
    </defs>
    <g clip-path="url(#pe73e597b6a)">
     <use xlink:href="#m612f186075" x="93.39983" y="240.762341" style="fill: #ff7f0e; stroke: #ff7f0e"/>
     <use xlink:href="#m612f186075" x="157.81334" y="239.092544" style="fill: #ff7f0e; stroke: #ff7f0e"/>
     <use xlink:href="#m612f186075" x="222.22685" y="236.800073" style="fill: #ff7f0e; stroke: #ff7f0e"/>
     <use xlink:href="#m612f186075" x="286.64036" y="234.748224" style="fill: #ff7f0e; stroke: #ff7f0e"/>
     <use xlink:href="#m612f186075" x="351.05387" y="202.069613" style="fill: #ff7f0e; stroke: #ff7f0e"/>
     <use xlink:href="#m612f186075" x="415.46738" y="236.24447" style="fill: #ff7f0e; stroke: #ff7f0e"/>
     <use xlink:href="#m612f186075" x="479.88089" y="236.872314" style="fill: #ff7f0e; stroke: #ff7f0e"/>
     <use xlink:href="#m612f186075" x="544.2944" y="238.497416" style="fill: #ff7f0e; stroke: #ff7f0e"/>
     <use xlink:href="#m612f186075" x="608.70791" y="129.038394" style="fill: #ff7f0e; stroke: #ff7f0e"/>
     <use xlink:href="#m612f186075" x="673.12142" y="231.409447" style="fill: #ff7f0e; stroke: #ff7f0e"/>
    </g>
   </g>
   <g id="line2d_19">
    <path d="M 93.39983 240.512722 
L 157.81334 220.436886 
L 222.22685 197.552976 
L 286.64036 240.976981 
L 351.05387 180.839854 
L 415.46738 241.549179 
L 479.88089 240.966093 
L 544.2944 241.279728 
L 608.70791 193.617703 
L 673.12142 240.554183 
" clip-path="url(#pe73e597b6a)" style="fill: none; stroke: #2ca02c; stroke-width: 2; stroke-linecap: square"/>
    <defs>
     <path id="m487a71a71b" d="M 0 3 
C 0.795609 3 1.55874 2.683901 2.12132 2.12132 
C 2.683901 1.55874 3 0.795609 3 0 
C 3 -0.795609 2.683901 -1.55874 2.12132 -2.12132 
C 1.55874 -2.683901 0.795609 -3 0 -3 
C -0.795609 -3 -1.55874 -2.683901 -2.12132 -2.12132 
C -2.683901 -1.55874 -3 -0.795609 -3 0 
C -3 0.795609 -2.683901 1.55874 -2.12132 2.12132 
C -1.55874 2.683901 -0.795609 3 0 3 
z
" style="stroke: #2ca02c"/>
    </defs>
    <g clip-path="url(#pe73e597b6a)">
     <use xlink:href="#m487a71a71b" x="93.39983" y="240.512722" style="fill: #2ca02c; stroke: #2ca02c"/>
     <use xlink:href="#m487a71a71b" x="157.81334" y="220.436886" style="fill: #2ca02c; stroke: #2ca02c"/>
     <use xlink:href="#m487a71a71b" x="222.22685" y="197.552976" style="fill: #2ca02c; stroke: #2ca02c"/>
     <use xlink:href="#m487a71a71b" x="286.64036" y="240.976981" style="fill: #2ca02c; stroke: #2ca02c"/>
     <use xlink:href="#m487a71a71b" x="351.05387" y="180.839854" style="fill: #2ca02c; stroke: #2ca02c"/>
     <use xlink:href="#m487a71a71b" x="415.46738" y="241.549179" style="fill: #2ca02c; stroke: #2ca02c"/>
     <use xlink:href="#m487a71a71b" x="479.88089" y="240.966093" style="fill: #2ca02c; stroke: #2ca02c"/>
     <use xlink:href="#m487a71a71b" x="544.2944" y="241.279728" style="fill: #2ca02c; stroke: #2ca02c"/>
     <use xlink:href="#m487a71a71b" x="608.70791" y="193.617703" style="fill: #2ca02c; stroke: #2ca02c"/>
     <use xlink:href="#m487a71a71b" x="673.12142" y="240.554183" style="fill: #2ca02c; stroke: #2ca02c"/>
    </g>
   </g>
   <g id="line2d_20">
    <path d="M 93.39983 504.385827 
L 157.81334 506.010478 
L 222.22685 504.929877 
L 286.64036 506.332202 
L 351.05387 307.479648 
L 415.46738 495.80798 
L 479.88089 505.116925 
L 544.2944 418.779774 
L 608.70791 506.105311 
L 673.12142 506.23116 
" clip-path="url(#pe73e597b6a)" style="fill: none; stroke: #d62728; stroke-width: 2; stroke-linecap: square"/>
    <defs>
     <path id="m9adbd74c9a" d="M 0 3 
C 0.795609 3 1.55874 2.683901 2.12132 2.12132 
C 2.683901 1.55874 3 0.795609 3 0 
C 3 -0.795609 2.683901 -1.55874 2.12132 -2.12132 
C 1.55874 -2.683901 0.795609 -3 0 -3 
C -0.795609 -3 -1.55874 -2.683901 -2.12132 -2.12132 
C -2.683901 -1.55874 -3 -0.795609 -3 0 
C -3 0.795609 -2.683901 1.55874 -2.12132 2.12132 
C -1.55874 2.683901 -0.795609 3 0 3 
z
" style="stroke: #d62728"/>
    </defs>
    <g clip-path="url(#pe73e597b6a)">
     <use xlink:href="#m9adbd74c9a" x="93.39983" y="504.385827" style="fill: #d62728; stroke: #d62728"/>
     <use xlink:href="#m9adbd74c9a" x="157.81334" y="506.010478" style="fill: #d62728; stroke: #d62728"/>
     <use xlink:href="#m9adbd74c9a" x="222.22685" y="504.929877" style="fill: #d62728; stroke: #d62728"/>
     <use xlink:href="#m9adbd74c9a" x="286.64036" y="506.332202" style="fill: #d62728; stroke: #d62728"/>
     <use xlink:href="#m9adbd74c9a" x="351.05387" y="307.479648" style="fill: #d62728; stroke: #d62728"/>
     <use xlink:href="#m9adbd74c9a" x="415.46738" y="495.80798" style="fill: #d62728; stroke: #d62728"/>
     <use xlink:href="#m9adbd74c9a" x="479.88089" y="505.116925" style="fill: #d62728; stroke: #d62728"/>
     <use xlink:href="#m9adbd74c9a" x="544.2944" y="418.779774" style="fill: #d62728; stroke: #d62728"/>
     <use xlink:href="#m9adbd74c9a" x="608.70791" y="506.105311" style="fill: #d62728; stroke: #d62728"/>
     <use xlink:href="#m9adbd74c9a" x="673.12142" y="506.23116" style="fill: #d62728; stroke: #d62728"/>
    </g>
   </g>
   <g id="line2d_21">
    <path d="M 93.39983 472.155256 
L 157.81334 468.354092 
L 222.22685 471.205238 
L 286.64036 471.204383 
L 351.05387 415.887574 
L 415.46738 418.947198 
L 479.88089 470.156353 
L 544.2944 397.5093 
L 608.70791 470.042984 
L 673.12142 471.435807 
" clip-path="url(#pe73e597b6a)" style="fill: none; stroke: #9467bd; stroke-width: 2; stroke-linecap: square"/>
    <defs>
     <path id="m096cb5ad2e" d="M 0 3 
C 0.795609 3 1.55874 2.683901 2.12132 2.12132 
C 2.683901 1.55874 3 0.795609 3 0 
C 3 -0.795609 2.683901 -1.55874 2.12132 -2.12132 
C 1.55874 -2.683901 0.795609 -3 0 -3 
C -0.795609 -3 -1.55874 -2.683901 -2.12132 -2.12132 
C -2.683901 -1.55874 -3 -0.795609 -3 0 
C -3 0.795609 -2.683901 1.55874 -2.12132 2.12132 
C -1.55874 2.683901 -0.795609 3 0 3 
z
" style="stroke: #9467bd"/>
    </defs>
    <g clip-path="url(#pe73e597b6a)">
     <use xlink:href="#m096cb5ad2e" x="93.39983" y="472.155256" style="fill: #9467bd; stroke: #9467bd"/>
     <use xlink:href="#m096cb5ad2e" x="157.81334" y="468.354092" style="fill: #9467bd; stroke: #9467bd"/>
     <use xlink:href="#m096cb5ad2e" x="222.22685" y="471.205238" style="fill: #9467bd; stroke: #9467bd"/>
     <use xlink:href="#m096cb5ad2e" x="286.64036" y="471.204383" style="fill: #9467bd; stroke: #9467bd"/>
     <use xlink:href="#m096cb5ad2e" x="351.05387" y="415.887574" style="fill: #9467bd; stroke: #9467bd"/>
     <use xlink:href="#m096cb5ad2e" x="415.46738" y="418.947198" style="fill: #9467bd; stroke: #9467bd"/>
     <use xlink:href="#m096cb5ad2e" x="479.88089" y="470.156353" style="fill: #9467bd; stroke: #9467bd"/>
     <use xlink:href="#m096cb5ad2e" x="544.2944" y="397.5093" style="fill: #9467bd; stroke: #9467bd"/>
     <use xlink:href="#m096cb5ad2e" x="608.70791" y="470.042984" style="fill: #9467bd; stroke: #9467bd"/>
     <use xlink:href="#m096cb5ad2e" x="673.12142" y="471.435807" style="fill: #9467bd; stroke: #9467bd"/>
    </g>
   </g>
   <g id="line2d_22">
    <path d="M 93.39983 232.964915 
L 157.81334 231.677145 
L 222.22685 232.487167 
L 286.64036 231.546571 
L 351.05387 177.827902 
L 415.46738 179.100587 
L 479.88089 232.119536 
L 544.2944 174.155474 
L 608.70791 233.5727 
L 673.12142 232.161997 
" clip-path="url(#pe73e597b6a)" style="fill: none; stroke: #8c564b; stroke-width: 2; stroke-linecap: square"/>
    <defs>
     <path id="m8e38f8b9ea" d="M 0 3 
C 0.795609 3 1.55874 2.683901 2.12132 2.12132 
C 2.683901 1.55874 3 0.795609 3 0 
C 3 -0.795609 2.683901 -1.55874 2.12132 -2.12132 
C 1.55874 -2.683901 0.795609 -3 0 -3 
C -0.795609 -3 -1.55874 -2.683901 -2.12132 -2.12132 
C -2.683901 -1.55874 -3 -0.795609 -3 0 
C -3 0.795609 -2.683901 1.55874 -2.12132 2.12132 
C -1.55874 2.683901 -0.795609 3 0 3 
z
" style="stroke: #8c564b"/>
    </defs>
    <g clip-path="url(#pe73e597b6a)">
     <use xlink:href="#m8e38f8b9ea" x="93.39983" y="232.964915" style="fill: #8c564b; stroke: #8c564b"/>
     <use xlink:href="#m8e38f8b9ea" x="157.81334" y="231.677145" style="fill: #8c564b; stroke: #8c564b"/>
     <use xlink:href="#m8e38f8b9ea" x="222.22685" y="232.487167" style="fill: #8c564b; stroke: #8c564b"/>
     <use xlink:href="#m8e38f8b9ea" x="286.64036" y="231.546571" style="fill: #8c564b; stroke: #8c564b"/>
     <use xlink:href="#m8e38f8b9ea" x="351.05387" y="177.827902" style="fill: #8c564b; stroke: #8c564b"/>
     <use xlink:href="#m8e38f8b9ea" x="415.46738" y="179.100587" style="fill: #8c564b; stroke: #8c564b"/>
     <use xlink:href="#m8e38f8b9ea" x="479.88089" y="232.119536" style="fill: #8c564b; stroke: #8c564b"/>
     <use xlink:href="#m8e38f8b9ea" x="544.2944" y="174.155474" style="fill: #8c564b; stroke: #8c564b"/>
     <use xlink:href="#m8e38f8b9ea" x="608.70791" y="233.5727" style="fill: #8c564b; stroke: #8c564b"/>
     <use xlink:href="#m8e38f8b9ea" x="673.12142" y="232.161997" style="fill: #8c564b; stroke: #8c564b"/>
    </g>
   </g>
   <g id="patch_3">
    <path d="M 64.41375 529.308125 
L 64.41375 23.837812 
" style="fill: none; stroke: #000000; stroke-width: 0.8; stroke-linejoin: miter; stroke-linecap: square"/>
   </g>
   <g id="patch_4">
    <path d="M 702.1075 529.308125 
L 702.1075 23.837812 
" style="fill: none; stroke: #000000; stroke-width: 0.8; stroke-linejoin: miter; stroke-linecap: square"/>
   </g>
   <g id="patch_5">
    <path d="M 64.41375 529.308125 
L 702.1075 529.308125 
" style="fill: none; stroke: #000000; stroke-width: 0.8; stroke-linejoin: miter; stroke-linecap: square"/>
   </g>
   <g id="patch_6">
    <path d="M 64.41375 23.837812 
L 702.1075 23.837812 
" style="fill: none; stroke: #000000; stroke-width: 0.8; stroke-linejoin: miter; stroke-linecap: square"/>
   </g>
   <g id="text_12">
    <text style="font: 700 14px 'DejaVu Sans', 'Bitstream Vera Sans', 'Computer Modern Sans Serif', 'Lucida Grande', 'Verdana', 'Geneva', 'Lucid', 'Arial', 'Helvetica', 'Avant Garde', sans-serif; text-anchor: middle" x="383.260625" y="17.837813" transform="rotate(-0 383.260625 17.837813)">Parallelfor Vectorops - Performance Trend</text>
   </g>
   <g id="legend_1">
    <g id="patch_7">
     <path d="M 740.992188 119.906563 
L 846.004688 119.906563 
Q 848.004688 119.906563 848.004688 117.906563 
L 848.004688 30.837813 
Q 848.004688 28.837813 846.004688 28.837813 
L 740.992188 28.837813 
Q 738.992188 28.837813 738.992188 30.837813 
L 738.992188 117.906563 
Q 738.992188 119.906563 740.992188 119.906563 
z
" style="fill: #ffffff; opacity: 0.8; stroke: #cccccc; stroke-linejoin: miter"/>
    </g>
    <g id="line2d_23">
     <path d="M 742.992188 36.93625 
L 752.992188 36.93625 
L 762.992188 36.93625 
" style="fill: none; stroke: #1f77b4; stroke-width: 2; stroke-linecap: square"/>
     <g>
      <use xlink:href="#mbf21dd9117" x="752.992188" y="36.93625" style="fill: #1f77b4; stroke: #1f77b4"/>
     </g>
    </g>
    <g id="text_13">
     <text style="font: 10px 'DejaVu Sans', 'Bitstream Vera Sans', 'Computer Modern Sans Serif', 'Lucida Grande', 'Verdana', 'Geneva', 'Lucid', 'Arial', 'Helvetica', 'Avant Garde', sans-serif; text-anchor: start" x="770.992188" y="40.43625" transform="rotate(-0 770.992188 40.43625)">gcc-14.2 - V1</text>
    </g>
    <g id="line2d_24">
     <path d="M 742.992188 51.614375 
L 752.992188 51.614375 
L 762.992188 51.614375 
" style="fill: none; stroke: #ff7f0e; stroke-width: 2; stroke-linecap: square"/>
     <g>
      <use xlink:href="#m612f186075" x="752.992188" y="51.614375" style="fill: #ff7f0e; stroke: #ff7f0e"/>
     </g>
    </g>
    <g id="text_14">
     <text style="font: 10px 'DejaVu Sans', 'Bitstream Vera Sans', 'Computer Modern Sans Serif', 'Lucida Grande', 'Verdana', 'Geneva', 'Lucid', 'Arial', 'Helvetica', 'Avant Garde', sans-serif; text-anchor: start" x="770.992188" y="55.114375" transform="rotate(-0 770.992188 55.114375)">gcc-14.2 - V2</text>
    </g>
    <g id="line2d_25">
     <path d="M 742.992188 66.2925 
L 752.992188 66.2925 
L 762.992188 66.2925 
" style="fill: none; stroke: #2ca02c; stroke-width: 2; stroke-linecap: square"/>
     <g>
      <use xlink:href="#m487a71a71b" x="752.992188" y="66.2925" style="fill: #2ca02c; stroke: #2ca02c"/>
     </g>
    </g>
    <g id="text_15">
     <text style="font: 10px 'DejaVu Sans', 'Bitstream Vera Sans', 'Computer Modern Sans Serif', 'Lucida Grande', 'Verdana', 'Geneva', 'Lucid', 'Arial', 'Helvetica', 'Avant Garde', sans-serif; text-anchor: start" x="770.992188" y="69.7925" transform="rotate(-0 770.992188 69.7925)">gcc-14.2 - TBB</text>
    </g>
    <g id="line2d_26">
     <path d="M 742.992188 80.970625 
L 752.992188 80.970625 
L 762.992188 80.970625 
" style="fill: none; stroke: #d62728; stroke-width: 2; stroke-linecap: square"/>
     <g>
      <use xlink:href="#m9adbd74c9a" x="752.992188" y="80.970625" style="fill: #d62728; stroke: #d62728"/>
     </g>
    </g>
    <g id="text_16">
     <text style="font: 10px 'DejaVu Sans', 'Bitstream Vera Sans', 'Computer Modern Sans Serif', 'Lucida Grande', 'Verdana', 'Geneva', 'Lucid', 'Arial', 'Helvetica', 'Avant Garde', sans-serif; text-anchor: start" x="770.992188" y="84.470625" transform="rotate(-0 770.992188 84.470625)">gcc-4.2 - V1</text>
    </g>
    <g id="line2d_27">
     <path d="M 742.992188 95.64875 
L 752.992188 95.64875 
L 762.992188 95.64875 
" style="fill: none; stroke: #9467bd; stroke-width: 2; stroke-linecap: square"/>
     <g>
      <use xlink:href="#m096cb5ad2e" x="752.992188" y="95.64875" style="fill: #9467bd; stroke: #9467bd"/>
     </g>
    </g>
    <g id="text_17">
     <text style="font: 10px 'DejaVu Sans', 'Bitstream Vera Sans', 'Computer Modern Sans Serif', 'Lucida Grande', 'Verdana', 'Geneva', 'Lucid', 'Arial', 'Helvetica', 'Avant Garde', sans-serif; text-anchor: start" x="770.992188" y="99.14875" transform="rotate(-0 770.992188 99.14875)">gcc-4.2 - V2</text>
    </g>
    <g id="line2d_28">
     <path d="M 742.992188 110.326875 
L 752.992188 110.326875 
L 762.992188 110.326875 
" style="fill: none; stroke: #8c564b; stroke-width: 2; stroke-linecap: square"/>
     <g>
      <use xlink:href="#m8e38f8b9ea" x="752.992188" y="110.326875" style="fill: #8c564b; stroke: #8c564b"/>
     </g>
    </g>
    <g id="text_18">
     <text style="font: 10px 'DejaVu Sans', 'Bitstream Vera Sans', 'Computer Modern Sans Serif', 'Lucida Grande', 'Verdana', 'Geneva', 'Lucid', 'Arial', 'Helvetica', 'Avant Garde', sans-serif; text-anchor: start" x="770.992188" y="113.826875" transform="rotate(-0 770.992188 113.826875)">gcc-4.2 - TBB</text>
    </g>
   </g>
  </g>
 </g>
 <defs>
  <clipPath id="pe73e597b6a">
   <rect x="64.41375" y="23.837813" width="637.69375" height="505.470313"/>
  </clipPath>
 </defs>
</svg>
