<?xml version="1.0" encoding="utf-8" standalone="no"?>
<!DOCTYPE svg PUBLIC "-//W3C//DTD SVG 1.1//EN"
  "http://www.w3.org/Graphics/SVG/1.1/DTD/svg11.dtd">
<svg xmlns:xlink="http://www.w3.org/1999/xlink" width="855.204687pt" height="568.8pt" viewBox="0 0 855.204687 568.8" xmlns="http://www.w3.org/2000/svg" version="1.1">
 <metadata>
  <rdf:RDF xmlns:dc="http://purl.org/dc/elements/1.1/" xmlns:cc="http://creativecommons.org/ns#" xmlns:rdf="http://www.w3.org/1999/02/22-rdf-syntax-ns#">
   <cc:Work>
    <dc:type rdf:resource="http://purl.org/dc/dcmitype/StillImage"/>
    <dc:date>2025-08-30T02:09:47.392174</dc:date>
    <dc:format>image/svg+xml</dc:format>
    <dc:creator>
     <cc:Agent>
      <dc:title>Matplotlib v3.9.4, https://matplotlib.org/</dc:title>
     </cc:Agent>
    </dc:creator>
   </cc:Work>
  </rdf:RDF>
 </metadata>
 <defs>
  <style type="text/css">*{stroke-linejoin: round; stroke-linecap: butt}</style>
 </defs>
 <g id="figure_1">
  <g id="patch_1">
   <path d="M 0 568.8 
L 855.204687 568.8 
L 855.204687 0 
L 0 0 
z
" style="fill: #ffffff"/>
  </g>
  <g id="axes_1">
   <g id="patch_2">
    <path d="M 64.41375 529.308125 
L 702.1075 529.308125 
L 702.1075 23.837812 
L 64.41375 23.837812 
z
" style="fill: #ffffff"/>
   </g>
   <g id="matplotlib.axis_1">
    <g id="xtick_1">
     <g id="line2d_1">
      <path d="M 78.535173 529.308125 
L 78.535173 23.837812 
" clip-path="url(#p324536869b)" style="fill: none; stroke: #b0b0b0; stroke-opacity: 0.3; stroke-width: 0.8; stroke-linecap: square"/>
     </g>
     <g id="line2d_2">
      <defs>
       <path id="me41b0e404e" d="M 0 0 
L 0 3.5 
" style="stroke: #000000; stroke-width: 0.8"/>
      </defs>
      <g>
       <use xlink:href="#me41b0e404e" x="78.535173" y="529.308125" style="stroke: #000000; stroke-width: 0.8"/>
      </g>
     </g>
     <g id="text_1">
      <text style="font: 10px 'DejaVu Sans', 'Bitstream Vera Sans', 'Computer Modern Sans Serif', 'Lucida Grande', 'Verdana', 'Geneva', 'Lucid', 'Arial', 'Helvetica', 'Avant Garde', sans-serif; text-anchor: middle" x="78.535173" y="543.906563" transform="rotate(-0 78.535173 543.906563)">70</text>
     </g>
    </g>
    <g id="xtick_2">
     <g id="line2d_3">
      <path d="M 152.858454 529.308125 
L 152.858454 23.837812 
" clip-path="url(#p324536869b)" style="fill: none; stroke: #b0b0b0; stroke-opacity: 0.3; stroke-width: 0.8; stroke-linecap: square"/>
     </g>
     <g id="line2d_4">
      <g>
       <use xlink:href="#me41b0e404e" x="152.858454" y="529.308125" style="stroke: #000000; stroke-width: 0.8"/>
      </g>
     </g>
     <g id="text_2">
      <text style="font: 10px 'DejaVu Sans', 'Bitstream Vera Sans', 'Computer Modern Sans Serif', 'Lucida Grande', 'Verdana', 'Geneva', 'Lucid', 'Arial', 'Helvetica', 'Avant Garde', sans-serif; text-anchor: middle" x="152.858454" y="543.906563" transform="rotate(-0 152.858454 543.906563)">75</text>
     </g>
    </g>
    <g id="xtick_3">
     <g id="line2d_5">
      <path d="M 227.181735 529.308125 
L 227.181735 23.837812 
" clip-path="url(#p324536869b)" style="fill: none; stroke: #b0b0b0; stroke-opacity: 0.3; stroke-width: 0.8; stroke-linecap: square"/>
     </g>
     <g id="line2d_6">
      <g>
       <use xlink:href="#me41b0e404e" x="227.181735" y="529.308125" style="stroke: #000000; stroke-width: 0.8"/>
      </g>
     </g>
     <g id="text_3">
      <text style="font: 10px 'DejaVu Sans', 'Bitstream Vera Sans', 'Computer Modern Sans Serif', 'Lucida Grande', 'Verdana', 'Geneva', 'Lucid', 'Arial', 'Helvetica', 'Avant Garde', sans-serif; text-anchor: middle" x="227.181735" y="543.906563" transform="rotate(-0 227.181735 543.906563)">80</text>
     </g>
    </g>
    <g id="xtick_4">
     <g id="line2d_7">
      <path d="M 301.505016 529.308125 
L 301.505016 23.837812 
" clip-path="url(#p324536869b)" style="fill: none; stroke: #b0b0b0; stroke-opacity: 0.3; stroke-width: 0.8; stroke-linecap: square"/>
     </g>
     <g id="line2d_8">
      <g>
       <use xlink:href="#me41b0e404e" x="301.505016" y="529.308125" style="stroke: #000000; stroke-width: 0.8"/>
      </g>
     </g>
     <g id="text_4">
      <text style="font: 10px 'DejaVu Sans', 'Bitstream Vera Sans', 'Computer Modern Sans Serif', 'Lucida Grande', 'Verdana', 'Geneva', 'Lucid', 'Arial', 'Helvetica', 'Avant Garde', sans-serif; text-anchor: middle" x="301.505016" y="543.906563" transform="rotate(-0 301.505016 543.906563)">85</text>
     </g>
    </g>
    <g id="xtick_5">
     <g id="line2d_9">
      <path d="M 375.828297 529.308125 
L 375.828297 23.837812 
" clip-path="url(#p324536869b)" style="fill: none; stroke: #b0b0b0; stroke-opacity: 0.3; stroke-width: 0.8; stroke-linecap: square"/>
     </g>
     <g id="line2d_10">
      <g>
       <use xlink:href="#me41b0e404e" x="375.828297" y="529.308125" style="stroke: #000000; stroke-width: 0.8"/>
      </g>
     </g>
     <g id="text_5">
      <text style="font: 10px 'DejaVu Sans', 'Bitstream Vera Sans', 'Computer Modern Sans Serif', 'Lucida Grande', 'Verdana', 'Geneva', 'Lucid', 'Arial', 'Helvetica', 'Avant Garde', sans-serif; text-anchor: middle" x="375.828297" y="543.906563" transform="rotate(-0 375.828297 543.906563)">90</text>
     </g>
    </g>
    <g id="xtick_6">
     <g id="line2d_11">
      <path d="M 450.151578 529.308125 
L 450.151578 23.837812 
" clip-path="url(#p324536869b)" style="fill: none; stroke: #b0b0b0; stroke-opacity: 0.3; stroke-width: 0.8; stroke-linecap: square"/>
     </g>
     <g id="line2d_12">
      <g>
       <use xlink:href="#me41b0e404e" x="450.151578" y="529.308125" style="stroke: #000000; stroke-width: 0.8"/>
      </g>
     </g>
     <g id="text_6">
      <text style="font: 10px 'DejaVu Sans', 'Bitstream Vera Sans', 'Computer Modern Sans Serif', 'Lucida Grande', 'Verdana', 'Geneva', 'Lucid', 'Arial', 'Helvetica', 'Avant Garde', sans-serif; text-anchor: middle" x="450.151578" y="543.906563" transform="rotate(-0 450.151578 543.906563)">95</text>
     </g>
    </g>
    <g id="xtick_7">
     <g id="line2d_13">
      <path d="M 524.474859 529.308125 
L 524.474859 23.837812 
" clip-path="url(#p324536869b)" style="fill: none; stroke: #b0b0b0; stroke-opacity: 0.3; stroke-width: 0.8; stroke-linecap: square"/>
     </g>
     <g id="line2d_14">
      <g>
       <use xlink:href="#me41b0e404e" x="524.474859" y="529.308125" style="stroke: #000000; stroke-width: 0.8"/>
      </g>
     </g>
     <g id="text_7">
      <text style="font: 10px 'DejaVu Sans', 'Bitstream Vera Sans', 'Computer Modern Sans Serif', 'Lucida Grande', 'Verdana', 'Geneva', 'Lucid', 'Arial', 'Helvetica', 'Avant Garde', sans-serif; text-anchor: middle" x="524.474859" y="543.906563" transform="rotate(-0 524.474859 543.906563)">100</text>
     </g>
    </g>
    <g id="xtick_8">
     <g id="line2d_15">
      <path d="M 598.79814 529.308125 
L 598.79814 23.837812 
" clip-path="url(#p324536869b)" style="fill: none; stroke: #b0b0b0; stroke-opacity: 0.3; stroke-width: 0.8; stroke-linecap: square"/>
     </g>
     <g id="line2d_16">
      <g>
       <use xlink:href="#me41b0e404e" x="598.79814" y="529.308125" style="stroke: #000000; stroke-width: 0.8"/>
      </g>
     </g>
     <g id="text_8">
      <text style="font: 10px 'DejaVu Sans', 'Bitstream Vera Sans', 'Computer Modern Sans Serif', 'Lucida Grande', 'Verdana', 'Geneva', 'Lucid', 'Arial', 'Helvetica', 'Avant Garde', sans-serif; text-anchor: middle" x="598.79814" y="543.906563" transform="rotate(-0 598.79814 543.906563)">105</text>
     </g>
    </g>
    <g id="xtick_9">
     <g id="line2d_17">
      <path d="M 673.12142 529.308125 
L 673.12142 23.837812 
" clip-path="url(#p324536869b)" style="fill: none; stroke: #b0b0b0; stroke-opacity: 0.3; stroke-width: 0.8; stroke-linecap: square"/>
     </g>
     <g id="line2d_18">
      <g>
       <use xlink:href="#me41b0e404e" x="673.12142" y="529.308125" style="stroke: #000000; stroke-width: 0.8"/>
      </g>
     </g>
     <g id="text_9">
      <text style="font: 10px 'DejaVu Sans', 'Bitstream Vera Sans', 'Computer Modern Sans Serif', 'Lucida Grande', 'Verdana', 'Geneva', 'Lucid', 'Arial', 'Helvetica', 'Avant Garde', sans-serif; text-anchor: middle" x="673.12142" y="543.906563" transform="rotate(-0 673.12142 543.906563)">110</text>
     </g>
    </g>
    <g id="text_10">
     <text style="font: 12px 'DejaVu Sans', 'Bitstream Vera Sans', 'Computer Modern Sans Serif', 'Lucida Grande', 'Verdana', 'Geneva', 'Lucid', 'Arial', 'Helvetica', 'Avant Garde', sans-serif; text-anchor: middle" x="383.260625" y="559.104375" transform="rotate(-0 383.260625 559.104375)">Build Number</text>
    </g>
   </g>
   <g id="matplotlib.axis_2">
    <g id="ytick_1">
     <g id="line2d_19">
      <defs>
       <path id="mb69f2343c9" d="M 0 0 
L -2 0 
" style="stroke: #000000; stroke-width: 0.6"/>
      </defs>
      <g>
       <use xlink:href="#mb69f2343c9" x="64.41375" y="418.432278" style="stroke: #000000; stroke-width: 0.6"/>
      </g>
     </g>
     <g id="text_11">
      <!-- $\mathdefault{3\times10^{5}}$ -->
      <g transform="translate(22.81375 422.231497)">
       <text>
        <tspan style="font: 10px 'DejaVu Sans'" x="0 8.310547 18.637695 25" y="-0.06406250000000036">3×10</tspan>
        <tspan style="font: 7px 'DejaVu Sans'" x="31.458008" y="-3.8921875000000004">5</tspan>
       </text>
      </g>
     </g>
    </g>
    <g id="ytick_2">
     <g id="line2d_20">
      <g>
       <use xlink:href="#mb69f2343c9" x="64.41375" y="313.355466" style="stroke: #000000; stroke-width: 0.6"/>
      </g>
     </g>
     <g id="text_12">
      <!-- $\mathdefault{4\times10^{5}}$ -->
      <g transform="translate(22.81375 317.154684)">
       <text>
        <tspan style="font: 10px 'DejaVu Sans'" x="0 8.310547 18.637695 25" y="-0.06406250000000036">4×10</tspan>
        <tspan style="font: 7px 'DejaVu Sans'" x="31.458008" y="-3.8921875000000004">5</tspan>
       </text>
      </g>
     </g>
    </g>
    <g id="ytick_3">
     <g id="line2d_21">
      <g>
       <use xlink:href="#mb69f2343c9" x="64.41375" y="231.851558" style="stroke: #000000; stroke-width: 0.6"/>
      </g>
     </g>
    </g>
    <g id="ytick_4">
     <g id="line2d_22">
      <g>
       <use xlink:href="#mb69f2343c9" x="64.41375" y="165.258016" style="stroke: #000000; stroke-width: 0.6"/>
      </g>
     </g>
     <g id="text_13">
      <!-- $\mathdefault{6\times10^{5}}$ -->
      <g transform="translate(22.81375 169.057235)">
       <text>
        <tspan style="font: 10px 'DejaVu Sans'" x="0 8.310547 18.637695 25" y="-0.06406250000000036">6×10</tspan>
        <tspan style="font: 7px 'DejaVu Sans'" x="31.458008" y="-3.8921875000000004">5</tspan>
       </text>
      </g>
     </g>
    </g>
    <g id="ytick_5">
     <g id="line2d_23">
      <g>
       <use xlink:href="#mb69f2343c9" x="64.41375" y="108.953979" style="stroke: #000000; stroke-width: 0.6"/>
      </g>
     </g>
    </g>
    <g id="ytick_6">
     <g id="line2d_24">
      <g>
       <use xlink:href="#mb69f2343c9" x="64.41375" y="60.181203" style="stroke: #000000; stroke-width: 0.6"/>
      </g>
     </g>
    </g>
    <g id="text_14">
     <text style="font: 12px 'DejaVu Sans', 'Bitstream Vera Sans', 'Computer Modern Sans Serif', 'Lucida Grande', 'Verdana', 'Geneva', 'Lucid', 'Arial', 'Helvetica', 'Avant Garde', sans-serif; text-anchor: middle" x="16.318125" y="276.572969" transform="rotate(-90 16.318125 276.572969)">Median Elapsed Time (nanoseconds)</text>
    </g>
   </g>
   <g id="line2d_25">
    <path d="M 93.39983 482.850289 
L 108.264486 272.436851 
L 123.129142 291.181531 
L 137.993798 404.67794 
L 152.858454 274.444232 
L 167.72311 480.388037 
L 182.587767 403.415098 
L 197.452423 209.896651 
L 212.317079 266.582403 
L 227.181735 483.408849 
L 242.046391 434.397313 
L 256.911047 271.574978 
L 271.775704 458.880205 
L 286.64036 377.778124 
L 301.505016 346.820195 
L 316.369672 486.263933 
L 346.098985 428.787994 
L 360.963641 163.598126 
L 375.828297 402.372911 
L 390.692953 150.604352 
L 405.557609 351.252367 
L 420.422265 232.283323 
L 435.286922 488.047828 
L 450.151578 320.610852 
L 465.016234 486.408067 
L 479.88089 269.465911 
L 509.610203 455.460415 
L 524.474859 335.092602 
L 539.339515 488.506413 
L 554.204171 485.385114 
L 569.068827 305.041314 
L 583.933483 482.973904 
L 598.79814 486.423173 
L 613.662796 293.269601 
L 643.392108 285.422031 
L 658.256764 270.134725 
L 673.12142 376.863524 
" clip-path="url(#p324536869b)" style="fill: none; stroke: #1f77b4; stroke-width: 2; stroke-linecap: square"/>
    <defs>
     <path id="mebbb1429f7" d="M 0 3 
C 0.795609 3 1.55874 2.683901 2.12132 2.12132 
C 2.683901 1.55874 3 0.795609 3 0 
C 3 -0.795609 2.683901 -1.55874 2.12132 -2.12132 
C 1.55874 -2.683901 0.795609 -3 0 -3 
C -0.795609 -3 -1.55874 -2.683901 -2.12132 -2.12132 
C -2.683901 -1.55874 -3 -0.795609 -3 0 
C -3 0.795609 -2.683901 1.55874 -2.12132 2.12132 
C -1.55874 2.683901 -0.795609 3 0 3 
z
" style="stroke: #1f77b4"/>
    </defs>
    <g clip-path="url(#p324536869b)">
     <use xlink:href="#mebbb1429f7" x="93.39983" y="482.850289" style="fill: #1f77b4; stroke: #1f77b4"/>
     <use xlink:href="#mebbb1429f7" x="108.264486" y="272.436851" style="fill: #1f77b4; stroke: #1f77b4"/>
     <use xlink:href="#mebbb1429f7" x="123.129142" y="291.181531" style="fill: #1f77b4; stroke: #1f77b4"/>
     <use xlink:href="#mebbb1429f7" x="137.993798" y="404.67794" style="fill: #1f77b4; stroke: #1f77b4"/>
     <use xlink:href="#mebbb1429f7" x="152.858454" y="274.444232" style="fill: #1f77b4; stroke: #1f77b4"/>
     <use xlink:href="#mebbb1429f7" x="167.72311" y="480.388037" style="fill: #1f77b4; stroke: #1f77b4"/>
     <use xlink:href="#mebbb1429f7" x="182.587767" y="403.415098" style="fill: #1f77b4; stroke: #1f77b4"/>
     <use xlink:href="#mebbb1429f7" x="197.452423" y="209.896651" style="fill: #1f77b4; stroke: #1f77b4"/>
     <use xlink:href="#mebbb1429f7" x="212.317079" y="266.582403" style="fill: #1f77b4; stroke: #1f77b4"/>
     <use xlink:href="#mebbb1429f7" x="227.181735" y="483.408849" style="fill: #1f77b4; stroke: #1f77b4"/>
     <use xlink:href="#mebbb1429f7" x="242.046391" y="434.397313" style="fill: #1f77b4; stroke: #1f77b4"/>
     <use xlink:href="#mebbb1429f7" x="256.911047" y="271.574978" style="fill: #1f77b4; stroke: #1f77b4"/>
     <use xlink:href="#mebbb1429f7" x="271.775704" y="458.880205" style="fill: #1f77b4; stroke: #1f77b4"/>
     <use xlink:href="#mebbb1429f7" x="286.64036" y="377.778124" style="fill: #1f77b4; stroke: #1f77b4"/>
     <use xlink:href="#mebbb1429f7" x="301.505016" y="346.820195" style="fill: #1f77b4; stroke: #1f77b4"/>
     <use xlink:href="#mebbb1429f7" x="316.369672" y="486.263933" style="fill: #1f77b4; stroke: #1f77b4"/>
     <use xlink:href="#mebbb1429f7" x="346.098985" y="428.787994" style="fill: #1f77b4; stroke: #1f77b4"/>
     <use xlink:href="#mebbb1429f7" x="360.963641" y="163.598126" style="fill: #1f77b4; stroke: #1f77b4"/>
     <use xlink:href="#mebbb1429f7" x="375.828297" y="402.372911" style="fill: #1f77b4; stroke: #1f77b4"/>
     <use xlink:href="#mebbb1429f7" x="390.692953" y="150.604352" style="fill: #1f77b4; stroke: #1f77b4"/>
     <use xlink:href="#mebbb1429f7" x="405.557609" y="351.252367" style="fill: #1f77b4; stroke: #1f77b4"/>
     <use xlink:href="#mebbb1429f7" x="420.422265" y="232.283323" style="fill: #1f77b4; stroke: #1f77b4"/>
     <use xlink:href="#mebbb1429f7" x="435.286922" y="488.047828" style="fill: #1f77b4; stroke: #1f77b4"/>
     <use xlink:href="#mebbb1429f7" x="450.151578" y="320.610852" style="fill: #1f77b4; stroke: #1f77b4"/>
     <use xlink:href="#mebbb1429f7" x="465.016234" y="486.408067" style="fill: #1f77b4; stroke: #1f77b4"/>
     <use xlink:href="#mebbb1429f7" x="479.88089" y="269.465911" style="fill: #1f77b4; stroke: #1f77b4"/>
     <use xlink:href="#mebbb1429f7" x="509.610203" y="455.460415" style="fill: #1f77b4; stroke: #1f77b4"/>
     <use xlink:href="#mebbb1429f7" x="524.474859" y="335.092602" style="fill: #1f77b4; stroke: #1f77b4"/>
     <use xlink:href="#mebbb1429f7" x="539.339515" y="488.506413" style="fill: #1f77b4; stroke: #1f77b4"/>
     <use xlink:href="#mebbb1429f7" x="554.204171" y="485.385114" style="fill: #1f77b4; stroke: #1f77b4"/>
     <use xlink:href="#mebbb1429f7" x="569.068827" y="305.041314" style="fill: #1f77b4; stroke: #1f77b4"/>
     <use xlink:href="#mebbb1429f7" x="583.933483" y="482.973904" style="fill: #1f77b4; stroke: #1f77b4"/>
     <use xlink:href="#mebbb1429f7" x="598.79814" y="486.423173" style="fill: #1f77b4; stroke: #1f77b4"/>
     <use xlink:href="#mebbb1429f7" x="613.662796" y="293.269601" style="fill: #1f77b4; stroke: #1f77b4"/>
     <use xlink:href="#mebbb1429f7" x="643.392108" y="285.422031" style="fill: #1f77b4; stroke: #1f77b4"/>
     <use xlink:href="#mebbb1429f7" x="658.256764" y="270.134725" style="fill: #1f77b4; stroke: #1f77b4"/>
     <use xlink:href="#mebbb1429f7" x="673.12142" y="376.863524" style="fill: #1f77b4; stroke: #1f77b4"/>
    </g>
   </g>
   <g id="line2d_26">
    <path d="M 93.39983 484.429483 
L 108.264486 273.23866 
L 123.129142 279.681236 
L 137.993798 452.760906 
L 152.858454 331.118307 
L 167.72311 487.281563 
L 182.587767 484.461575 
L 197.452423 444.529556 
L 212.317079 368.538952 
L 227.181735 347.978192 
L 242.046391 323.343312 
L 256.911047 393.361259 
L 271.775704 481.201981 
L 286.64036 267.502545 
L 301.505016 312.085135 
L 316.369672 485.153681 
L 346.098985 486.306156 
L 360.963641 268.247336 
L 375.828297 494.089865 
L 390.692953 267.916435 
L 405.557609 339.643944 
L 420.422265 297.489416 
L 435.286922 484.179414 
L 450.151578 273.943769 
L 465.016234 487.849448 
L 479.88089 357.421159 
L 509.610203 499.926294 
L 524.474859 370.18609 
L 539.339515 494.45834 
L 554.204171 419.072519 
L 569.068827 361.972468 
L 583.933483 502.032811 
L 598.79814 489.379773 
L 613.662796 256.471423 
L 643.392108 226.931571 
L 658.256764 287.340833 
L 673.12142 301.328628 
" clip-path="url(#p324536869b)" style="fill: none; stroke: #ff7f0e; stroke-width: 2; stroke-linecap: square"/>
    <defs>
     <path id="m37396a7689" d="M 0 3 
C 0.795609 3 1.55874 2.683901 2.12132 2.12132 
C 2.683901 1.55874 3 0.795609 3 0 
C 3 -0.795609 2.683901 -1.55874 2.12132 -2.12132 
C 1.55874 -2.683901 0.795609 -3 0 -3 
C -0.795609 -3 -1.55874 -2.683901 -2.12132 -2.12132 
C -2.683901 -1.55874 -3 -0.795609 -3 0 
C -3 0.795609 -2.683901 1.55874 -2.12132 2.12132 
C -1.55874 2.683901 -0.795609 3 0 3 
z
" style="stroke: #ff7f0e"/>
    </defs>
    <g clip-path="url(#p324536869b)">
     <use xlink:href="#m37396a7689" x="93.39983" y="484.429483" style="fill: #ff7f0e; stroke: #ff7f0e"/>
     <use xlink:href="#m37396a7689" x="108.264486" y="273.23866" style="fill: #ff7f0e; stroke: #ff7f0e"/>
     <use xlink:href="#m37396a7689" x="123.129142" y="279.681236" style="fill: #ff7f0e; stroke: #ff7f0e"/>
     <use xlink:href="#m37396a7689" x="137.993798" y="452.760906" style="fill: #ff7f0e; stroke: #ff7f0e"/>
     <use xlink:href="#m37396a7689" x="152.858454" y="331.118307" style="fill: #ff7f0e; stroke: #ff7f0e"/>
     <use xlink:href="#m37396a7689" x="167.72311" y="487.281563" style="fill: #ff7f0e; stroke: #ff7f0e"/>
     <use xlink:href="#m37396a7689" x="182.587767" y="484.461575" style="fill: #ff7f0e; stroke: #ff7f0e"/>
     <use xlink:href="#m37396a7689" x="197.452423" y="444.529556" style="fill: #ff7f0e; stroke: #ff7f0e"/>
     <use xlink:href="#m37396a7689" x="212.317079" y="368.538952" style="fill: #ff7f0e; stroke: #ff7f0e"/>
     <use xlink:href="#m37396a7689" x="227.181735" y="347.978192" style="fill: #ff7f0e; stroke: #ff7f0e"/>
     <use xlink:href="#m37396a7689" x="242.046391" y="323.343312" style="fill: #ff7f0e; stroke: #ff7f0e"/>
     <use xlink:href="#m37396a7689" x="256.911047" y="393.361259" style="fill: #ff7f0e; stroke: #ff7f0e"/>
     <use xlink:href="#m37396a7689" x="271.775704" y="481.201981" style="fill: #ff7f0e; stroke: #ff7f0e"/>
     <use xlink:href="#m37396a7689" x="286.64036" y="267.502545" style="fill: #ff7f0e; stroke: #ff7f0e"/>
     <use xlink:href="#m37396a7689" x="301.505016" y="312.085135" style="fill: #ff7f0e; stroke: #ff7f0e"/>
     <use xlink:href="#m37396a7689" x="316.369672" y="485.153681" style="fill: #ff7f0e; stroke: #ff7f0e"/>
     <use xlink:href="#m37396a7689" x="346.098985" y="486.306156" style="fill: #ff7f0e; stroke: #ff7f0e"/>
     <use xlink:href="#m37396a7689" x="360.963641" y="268.247336" style="fill: #ff7f0e; stroke: #ff7f0e"/>
     <use xlink:href="#m37396a7689" x="375.828297" y="494.089865" style="fill: #ff7f0e; stroke: #ff7f0e"/>
     <use xlink:href="#m37396a7689" x="390.692953" y="267.916435" style="fill: #ff7f0e; stroke: #ff7f0e"/>
     <use xlink:href="#m37396a7689" x="405.557609" y="339.643944" style="fill: #ff7f0e; stroke: #ff7f0e"/>
     <use xlink:href="#m37396a7689" x="420.422265" y="297.489416" style="fill: #ff7f0e; stroke: #ff7f0e"/>
     <use xlink:href="#m37396a7689" x="435.286922" y="484.179414" style="fill: #ff7f0e; stroke: #ff7f0e"/>
     <use xlink:href="#m37396a7689" x="450.151578" y="273.943769" style="fill: #ff7f0e; stroke: #ff7f0e"/>
     <use xlink:href="#m37396a7689" x="465.016234" y="487.849448" style="fill: #ff7f0e; stroke: #ff7f0e"/>
     <use xlink:href="#m37396a7689" x="479.88089" y="357.421159" style="fill: #ff7f0e; stroke: #ff7f0e"/>
     <use xlink:href="#m37396a7689" x="509.610203" y="499.926294" style="fill: #ff7f0e; stroke: #ff7f0e"/>
     <use xlink:href="#m37396a7689" x="524.474859" y="370.18609" style="fill: #ff7f0e; stroke: #ff7f0e"/>
     <use xlink:href="#m37396a7689" x="539.339515" y="494.45834" style="fill: #ff7f0e; stroke: #ff7f0e"/>
     <use xlink:href="#m37396a7689" x="554.204171" y="419.072519" style="fill: #ff7f0e; stroke: #ff7f0e"/>
     <use xlink:href="#m37396a7689" x="569.068827" y="361.972468" style="fill: #ff7f0e; stroke: #ff7f0e"/>
     <use xlink:href="#m37396a7689" x="583.933483" y="502.032811" style="fill: #ff7f0e; stroke: #ff7f0e"/>
     <use xlink:href="#m37396a7689" x="598.79814" y="489.379773" style="fill: #ff7f0e; stroke: #ff7f0e"/>
     <use xlink:href="#m37396a7689" x="613.662796" y="256.471423" style="fill: #ff7f0e; stroke: #ff7f0e"/>
     <use xlink:href="#m37396a7689" x="643.392108" y="226.931571" style="fill: #ff7f0e; stroke: #ff7f0e"/>
     <use xlink:href="#m37396a7689" x="658.256764" y="287.340833" style="fill: #ff7f0e; stroke: #ff7f0e"/>
     <use xlink:href="#m37396a7689" x="673.12142" y="301.328628" style="fill: #ff7f0e; stroke: #ff7f0e"/>
    </g>
   </g>
   <g id="line2d_27">
    <path d="M 93.39983 500.025989 
L 108.264486 385.907026 
L 123.129142 256.308997 
L 137.993798 498.159903 
L 152.858454 472.697249 
L 167.72311 496.118462 
L 182.587767 494.75831 
L 197.452423 498.403517 
L 212.317079 498.335325 
L 227.181735 491.245114 
L 242.046391 497.031826 
L 256.911047 496.976117 
L 271.775704 497.20429 
L 286.64036 399.782922 
L 301.505016 489.423688 
L 316.369672 498.200645 
L 346.098985 494.561352 
L 360.963641 459.375612 
L 375.828297 497.056437 
L 390.692953 392.39891 
L 405.557609 449.214439 
L 420.422265 358.806025 
L 435.286922 477.072647 
L 450.151578 257.354819 
L 465.016234 494.117573 
L 479.88089 353.949086 
L 509.610203 499.269751 
L 524.474859 389.980137 
L 539.339515 498.922495 
L 554.204171 395.696534 
L 569.068827 404.364427 
L 583.933483 497.0886 
L 598.79814 497.781321 
L 613.662796 332.998521 
L 643.392108 395.540063 
L 658.256764 311.496772 
L 673.12142 388.335773 
" clip-path="url(#p324536869b)" style="fill: none; stroke: #2ca02c; stroke-width: 2; stroke-linecap: square"/>
    <defs>
     <path id="m18cc043b4a" d="M 0 3 
C 0.795609 3 1.55874 2.683901 2.12132 2.12132 
C 2.683901 1.55874 3 0.795609 3 0 
C 3 -0.795609 2.683901 -1.55874 2.12132 -2.12132 
C 1.55874 -2.683901 0.795609 -3 0 -3 
C -0.795609 -3 -1.55874 -2.683901 -2.12132 -2.12132 
C -2.683901 -1.55874 -3 -0.795609 -3 0 
C -3 0.795609 -2.683901 1.55874 -2.12132 2.12132 
C -1.55874 2.683901 -0.795609 3 0 3 
z
" style="stroke: #2ca02c"/>
    </defs>
    <g clip-path="url(#p324536869b)">
     <use xlink:href="#m18cc043b4a" x="93.39983" y="500.025989" style="fill: #2ca02c; stroke: #2ca02c"/>
     <use xlink:href="#m18cc043b4a" x="108.264486" y="385.907026" style="fill: #2ca02c; stroke: #2ca02c"/>
     <use xlink:href="#m18cc043b4a" x="123.129142" y="256.308997" style="fill: #2ca02c; stroke: #2ca02c"/>
     <use xlink:href="#m18cc043b4a" x="137.993798" y="498.159903" style="fill: #2ca02c; stroke: #2ca02c"/>
     <use xlink:href="#m18cc043b4a" x="152.858454" y="472.697249" style="fill: #2ca02c; stroke: #2ca02c"/>
     <use xlink:href="#m18cc043b4a" x="167.72311" y="496.118462" style="fill: #2ca02c; stroke: #2ca02c"/>
     <use xlink:href="#m18cc043b4a" x="182.587767" y="494.75831" style="fill: #2ca02c; stroke: #2ca02c"/>
     <use xlink:href="#m18cc043b4a" x="197.452423" y="498.403517" style="fill: #2ca02c; stroke: #2ca02c"/>
     <use xlink:href="#m18cc043b4a" x="212.317079" y="498.335325" style="fill: #2ca02c; stroke: #2ca02c"/>
     <use xlink:href="#m18cc043b4a" x="227.181735" y="491.245114" style="fill: #2ca02c; stroke: #2ca02c"/>
     <use xlink:href="#m18cc043b4a" x="242.046391" y="497.031826" style="fill: #2ca02c; stroke: #2ca02c"/>
     <use xlink:href="#m18cc043b4a" x="256.911047" y="496.976117" style="fill: #2ca02c; stroke: #2ca02c"/>
     <use xlink:href="#m18cc043b4a" x="271.775704" y="497.20429" style="fill: #2ca02c; stroke: #2ca02c"/>
     <use xlink:href="#m18cc043b4a" x="286.64036" y="399.782922" style="fill: #2ca02c; stroke: #2ca02c"/>
     <use xlink:href="#m18cc043b4a" x="301.505016" y="489.423688" style="fill: #2ca02c; stroke: #2ca02c"/>
     <use xlink:href="#m18cc043b4a" x="316.369672" y="498.200645" style="fill: #2ca02c; stroke: #2ca02c"/>
     <use xlink:href="#m18cc043b4a" x="346.098985" y="494.561352" style="fill: #2ca02c; stroke: #2ca02c"/>
     <use xlink:href="#m18cc043b4a" x="360.963641" y="459.375612" style="fill: #2ca02c; stroke: #2ca02c"/>
     <use xlink:href="#m18cc043b4a" x="375.828297" y="497.056437" style="fill: #2ca02c; stroke: #2ca02c"/>
     <use xlink:href="#m18cc043b4a" x="390.692953" y="392.39891" style="fill: #2ca02c; stroke: #2ca02c"/>
     <use xlink:href="#m18cc043b4a" x="405.557609" y="449.214439" style="fill: #2ca02c; stroke: #2ca02c"/>
     <use xlink:href="#m18cc043b4a" x="420.422265" y="358.806025" style="fill: #2ca02c; stroke: #2ca02c"/>
     <use xlink:href="#m18cc043b4a" x="435.286922" y="477.072647" style="fill: #2ca02c; stroke: #2ca02c"/>
     <use xlink:href="#m18cc043b4a" x="450.151578" y="257.354819" style="fill: #2ca02c; stroke: #2ca02c"/>
     <use xlink:href="#m18cc043b4a" x="465.016234" y="494.117573" style="fill: #2ca02c; stroke: #2ca02c"/>
     <use xlink:href="#m18cc043b4a" x="479.88089" y="353.949086" style="fill: #2ca02c; stroke: #2ca02c"/>
     <use xlink:href="#m18cc043b4a" x="509.610203" y="499.269751" style="fill: #2ca02c; stroke: #2ca02c"/>
     <use xlink:href="#m18cc043b4a" x="524.474859" y="389.980137" style="fill: #2ca02c; stroke: #2ca02c"/>
     <use xlink:href="#m18cc043b4a" x="539.339515" y="498.922495" style="fill: #2ca02c; stroke: #2ca02c"/>
     <use xlink:href="#m18cc043b4a" x="554.204171" y="395.696534" style="fill: #2ca02c; stroke: #2ca02c"/>
     <use xlink:href="#m18cc043b4a" x="569.068827" y="404.364427" style="fill: #2ca02c; stroke: #2ca02c"/>
     <use xlink:href="#m18cc043b4a" x="583.933483" y="497.0886" style="fill: #2ca02c; stroke: #2ca02c"/>
     <use xlink:href="#m18cc043b4a" x="598.79814" y="497.781321" style="fill: #2ca02c; stroke: #2ca02c"/>
     <use xlink:href="#m18cc043b4a" x="613.662796" y="332.998521" style="fill: #2ca02c; stroke: #2ca02c"/>
     <use xlink:href="#m18cc043b4a" x="643.392108" y="395.540063" style="fill: #2ca02c; stroke: #2ca02c"/>
     <use xlink:href="#m18cc043b4a" x="658.256764" y="311.496772" style="fill: #2ca02c; stroke: #2ca02c"/>
     <use xlink:href="#m18cc043b4a" x="673.12142" y="388.335773" style="fill: #2ca02c; stroke: #2ca02c"/>
    </g>
   </g>
   <g id="line2d_28">
    <path d="M 93.39983 501.345584 
L 108.264486 499.20322 
L 123.129142 504.463285 
L 137.993798 503.899608 
L 152.858454 287.057348 
L 167.72311 289.092086 
L 182.587767 505.211372 
L 197.452423 403.387407 
L 212.317079 498.273054 
L 227.181735 501.308766 
L 242.046391 503.970848 
L 256.911047 501.776211 
L 271.775704 54.121967 
L 301.505016 459.96144 
L 316.369672 500.917142 
L 346.098985 501.488611 
L 360.963641 505.715691 
L 375.828297 90.419902 
L 390.692953 505.174317 
L 405.557609 504.923833 
L 435.286922 504.988174 
L 450.151578 504.764804 
L 465.016234 503.416534 
L 479.88089 506.124725 
L 509.610203 506.332202 
L 524.474859 283.32809 
L 539.339515 503.340948 
L 554.204171 505.580272 
L 569.068827 503.448647 
L 583.933483 505.665753 
L 598.79814 473.678574 
L 613.662796 504.881562 
L 643.392108 385.995694 
L 658.256764 505.442586 
L 673.12142 46.813736 
" clip-path="url(#p324536869b)" style="fill: none; stroke: #d62728; stroke-width: 2; stroke-linecap: square"/>
    <defs>
     <path id="m9556f76ef7" d="M 0 3 
C 0.795609 3 1.55874 2.683901 2.12132 2.12132 
C 2.683901 1.55874 3 0.795609 3 0 
C 3 -0.795609 2.683901 -1.55874 2.12132 -2.12132 
C 1.55874 -2.683901 0.795609 -3 0 -3 
C -0.795609 -3 -1.55874 -2.683901 -2.12132 -2.12132 
C -2.683901 -1.55874 -3 -0.795609 -3 0 
C -3 0.795609 -2.683901 1.55874 -2.12132 2.12132 
C -1.55874 2.683901 -0.795609 3 0 3 
z
" style="stroke: #d62728"/>
    </defs>
    <g clip-path="url(#p324536869b)">
     <use xlink:href="#m9556f76ef7" x="93.39983" y="501.345584" style="fill: #d62728; stroke: #d62728"/>
     <use xlink:href="#m9556f76ef7" x="108.264486" y="499.20322" style="fill: #d62728; stroke: #d62728"/>
     <use xlink:href="#m9556f76ef7" x="123.129142" y="504.463285" style="fill: #d62728; stroke: #d62728"/>
     <use xlink:href="#m9556f76ef7" x="137.993798" y="503.899608" style="fill: #d62728; stroke: #d62728"/>
     <use xlink:href="#m9556f76ef7" x="152.858454" y="287.057348" style="fill: #d62728; stroke: #d62728"/>
     <use xlink:href="#m9556f76ef7" x="167.72311" y="289.092086" style="fill: #d62728; stroke: #d62728"/>
     <use xlink:href="#m9556f76ef7" x="182.587767" y="505.211372" style="fill: #d62728; stroke: #d62728"/>
     <use xlink:href="#m9556f76ef7" x="197.452423" y="403.387407" style="fill: #d62728; stroke: #d62728"/>
     <use xlink:href="#m9556f76ef7" x="212.317079" y="498.273054" style="fill: #d62728; stroke: #d62728"/>
     <use xlink:href="#m9556f76ef7" x="227.181735" y="501.308766" style="fill: #d62728; stroke: #d62728"/>
     <use xlink:href="#m9556f76ef7" x="242.046391" y="503.970848" style="fill: #d62728; stroke: #d62728"/>
     <use xlink:href="#m9556f76ef7" x="256.911047" y="501.776211" style="fill: #d62728; stroke: #d62728"/>
     <use xlink:href="#m9556f76ef7" x="271.775704" y="54.121967" style="fill: #d62728; stroke: #d62728"/>
     <use xlink:href="#m9556f76ef7" x="301.505016" y="459.96144" style="fill: #d62728; stroke: #d62728"/>
     <use xlink:href="#m9556f76ef7" x="316.369672" y="500.917142" style="fill: #d62728; stroke: #d62728"/>
     <use xlink:href="#m9556f76ef7" x="346.098985" y="501.488611" style="fill: #d62728; stroke: #d62728"/>
     <use xlink:href="#m9556f76ef7" x="360.963641" y="505.715691" style="fill: #d62728; stroke: #d62728"/>
     <use xlink:href="#m9556f76ef7" x="375.828297" y="90.419902" style="fill: #d62728; stroke: #d62728"/>
     <use xlink:href="#m9556f76ef7" x="390.692953" y="505.174317" style="fill: #d62728; stroke: #d62728"/>
     <use xlink:href="#m9556f76ef7" x="405.557609" y="504.923833" style="fill: #d62728; stroke: #d62728"/>
     <use xlink:href="#m9556f76ef7" x="435.286922" y="504.988174" style="fill: #d62728; stroke: #d62728"/>
     <use xlink:href="#m9556f76ef7" x="450.151578" y="504.764804" style="fill: #d62728; stroke: #d62728"/>
     <use xlink:href="#m9556f76ef7" x="465.016234" y="503.416534" style="fill: #d62728; stroke: #d62728"/>
     <use xlink:href="#m9556f76ef7" x="479.88089" y="506.124725" style="fill: #d62728; stroke: #d62728"/>
     <use xlink:href="#m9556f76ef7" x="509.610203" y="506.332202" style="fill: #d62728; stroke: #d62728"/>
     <use xlink:href="#m9556f76ef7" x="524.474859" y="283.32809" style="fill: #d62728; stroke: #d62728"/>
     <use xlink:href="#m9556f76ef7" x="539.339515" y="503.340948" style="fill: #d62728; stroke: #d62728"/>
     <use xlink:href="#m9556f76ef7" x="554.204171" y="505.580272" style="fill: #d62728; stroke: #d62728"/>
     <use xlink:href="#m9556f76ef7" x="569.068827" y="503.448647" style="fill: #d62728; stroke: #d62728"/>
     <use xlink:href="#m9556f76ef7" x="583.933483" y="505.665753" style="fill: #d62728; stroke: #d62728"/>
     <use xlink:href="#m9556f76ef7" x="598.79814" y="473.678574" style="fill: #d62728; stroke: #d62728"/>
     <use xlink:href="#m9556f76ef7" x="613.662796" y="504.881562" style="fill: #d62728; stroke: #d62728"/>
     <use xlink:href="#m9556f76ef7" x="643.392108" y="385.995694" style="fill: #d62728; stroke: #d62728"/>
     <use xlink:href="#m9556f76ef7" x="658.256764" y="505.442586" style="fill: #d62728; stroke: #d62728"/>
     <use xlink:href="#m9556f76ef7" x="673.12142" y="46.813736" style="fill: #d62728; stroke: #d62728"/>
    </g>
   </g>
   <g id="line2d_29">
    <path d="M 93.39983 494.287468 
L 108.264486 460.34291 
L 123.129142 497.148555 
L 137.993798 489.888002 
L 152.858454 357.435479 
L 167.72311 175.355364 
L 182.587767 500.809271 
L 197.452423 469.835281 
L 212.317079 357.932505 
L 227.181735 496.80195 
L 242.046391 503.043979 
L 256.911047 501.145348 
L 271.775704 190.095553 
L 301.505016 172.651408 
L 316.369672 501.990414 
L 346.098985 497.780565 
L 360.963641 500.130736 
L 375.828297 277.22899 
L 390.692953 489.276733 
L 405.557609 495.372066 
L 435.286922 500.519993 
L 450.151578 495.767115 
L 465.016234 504.224067 
L 479.88089 502.823941 
L 509.610203 504.749845 
L 524.474859 285.908071 
L 539.339515 505.827186 
L 554.204171 503.060249 
L 569.068827 503.627243 
L 583.933483 505.518609 
L 598.79814 468.937465 
L 613.662796 501.670074 
L 643.392108 505.601757 
L 658.256764 504.609235 
L 673.12142 285.85251 
" clip-path="url(#p324536869b)" style="fill: none; stroke: #9467bd; stroke-width: 2; stroke-linecap: square"/>
    <defs>
     <path id="m207422413f" d="M 0 3 
C 0.795609 3 1.55874 2.683901 2.12132 2.12132 
C 2.683901 1.55874 3 0.795609 3 0 
C 3 -0.795609 2.683901 -1.55874 2.12132 -2.12132 
C 1.55874 -2.683901 0.795609 -3 0 -3 
C -0.795609 -3 -1.55874 -2.683901 -2.12132 -2.12132 
C -2.683901 -1.55874 -3 -0.795609 -3 0 
C -3 0.795609 -2.683901 1.55874 -2.12132 2.12132 
C -1.55874 2.683901 -0.795609 3 0 3 
z
" style="stroke: #9467bd"/>
    </defs>
    <g clip-path="url(#p324536869b)">
     <use xlink:href="#m207422413f" x="93.39983" y="494.287468" style="fill: #9467bd; stroke: #9467bd"/>
     <use xlink:href="#m207422413f" x="108.264486" y="460.34291" style="fill: #9467bd; stroke: #9467bd"/>
     <use xlink:href="#m207422413f" x="123.129142" y="497.148555" style="fill: #9467bd; stroke: #9467bd"/>
     <use xlink:href="#m207422413f" x="137.993798" y="489.888002" style="fill: #9467bd; stroke: #9467bd"/>
     <use xlink:href="#m207422413f" x="152.858454" y="357.435479" style="fill: #9467bd; stroke: #9467bd"/>
     <use xlink:href="#m207422413f" x="167.72311" y="175.355364" style="fill: #9467bd; stroke: #9467bd"/>
     <use xlink:href="#m207422413f" x="182.587767" y="500.809271" style="fill: #9467bd; stroke: #9467bd"/>
     <use xlink:href="#m207422413f" x="197.452423" y="469.835281" style="fill: #9467bd; stroke: #9467bd"/>
     <use xlink:href="#m207422413f" x="212.317079" y="357.932505" style="fill: #9467bd; stroke: #9467bd"/>
     <use xlink:href="#m207422413f" x="227.181735" y="496.80195" style="fill: #9467bd; stroke: #9467bd"/>
     <use xlink:href="#m207422413f" x="242.046391" y="503.043979" style="fill: #9467bd; stroke: #9467bd"/>
     <use xlink:href="#m207422413f" x="256.911047" y="501.145348" style="fill: #9467bd; stroke: #9467bd"/>
     <use xlink:href="#m207422413f" x="271.775704" y="190.095553" style="fill: #9467bd; stroke: #9467bd"/>
     <use xlink:href="#m207422413f" x="301.505016" y="172.651408" style="fill: #9467bd; stroke: #9467bd"/>
     <use xlink:href="#m207422413f" x="316.369672" y="501.990414" style="fill: #9467bd; stroke: #9467bd"/>
     <use xlink:href="#m207422413f" x="346.098985" y="497.780565" style="fill: #9467bd; stroke: #9467bd"/>
     <use xlink:href="#m207422413f" x="360.963641" y="500.130736" style="fill: #9467bd; stroke: #9467bd"/>
     <use xlink:href="#m207422413f" x="375.828297" y="277.22899" style="fill: #9467bd; stroke: #9467bd"/>
     <use xlink:href="#m207422413f" x="390.692953" y="489.276733" style="fill: #9467bd; stroke: #9467bd"/>
     <use xlink:href="#m207422413f" x="405.557609" y="495.372066" style="fill: #9467bd; stroke: #9467bd"/>
     <use xlink:href="#m207422413f" x="435.286922" y="500.519993" style="fill: #9467bd; stroke: #9467bd"/>
     <use xlink:href="#m207422413f" x="450.151578" y="495.767115" style="fill: #9467bd; stroke: #9467bd"/>
     <use xlink:href="#m207422413f" x="465.016234" y="504.224067" style="fill: #9467bd; stroke: #9467bd"/>
     <use xlink:href="#m207422413f" x="479.88089" y="502.823941" style="fill: #9467bd; stroke: #9467bd"/>
     <use xlink:href="#m207422413f" x="509.610203" y="504.749845" style="fill: #9467bd; stroke: #9467bd"/>
     <use xlink:href="#m207422413f" x="524.474859" y="285.908071" style="fill: #9467bd; stroke: #9467bd"/>
     <use xlink:href="#m207422413f" x="539.339515" y="505.827186" style="fill: #9467bd; stroke: #9467bd"/>
     <use xlink:href="#m207422413f" x="554.204171" y="503.060249" style="fill: #9467bd; stroke: #9467bd"/>
     <use xlink:href="#m207422413f" x="569.068827" y="503.627243" style="fill: #9467bd; stroke: #9467bd"/>
     <use xlink:href="#m207422413f" x="583.933483" y="505.518609" style="fill: #9467bd; stroke: #9467bd"/>
     <use xlink:href="#m207422413f" x="598.79814" y="468.937465" style="fill: #9467bd; stroke: #9467bd"/>
     <use xlink:href="#m207422413f" x="613.662796" y="501.670074" style="fill: #9467bd; stroke: #9467bd"/>
     <use xlink:href="#m207422413f" x="643.392108" y="505.601757" style="fill: #9467bd; stroke: #9467bd"/>
     <use xlink:href="#m207422413f" x="658.256764" y="504.609235" style="fill: #9467bd; stroke: #9467bd"/>
     <use xlink:href="#m207422413f" x="673.12142" y="285.85251" style="fill: #9467bd; stroke: #9467bd"/>
    </g>
   </g>
   <g id="line2d_30">
    <path d="M 93.39983 364.913717 
L 108.264486 358.358623 
L 123.129142 363.909377 
L 137.993798 366.352254 
L 152.858454 357.748297 
L 167.72311 360.290015 
L 182.587767 466.291742 
L 197.452423 461.426709 
L 212.317079 359.706311 
L 227.181735 363.793307 
L 242.046391 366.147396 
L 256.911047 364.70504 
L 271.775704 403.598594 
L 301.505016 304.686863 
L 316.369672 363.080915 
L 346.098985 364.628012 
L 360.963641 363.007786 
L 375.828297 438.286838 
L 390.692953 393.483935 
L 405.557609 363.070452 
L 435.286922 465.507828 
L 450.151578 296.788363 
L 465.016234 363.659352 
L 479.88089 362.276146 
L 509.610203 466.599306 
L 524.474859 457.205838 
L 539.339515 394.032213 
L 554.204171 365.818977 
L 569.068827 362.663991 
L 583.933483 361.0387 
L 598.79814 427.206728 
L 613.662796 363.095878 
L 643.392108 466.311035 
L 658.256764 365.069698 
L 673.12142 464.843083 
" clip-path="url(#p324536869b)" style="fill: none; stroke: #8c564b; stroke-width: 2; stroke-linecap: square"/>
    <defs>
     <path id="m204e6374b5" d="M 0 3 
C 0.795609 3 1.55874 2.683901 2.12132 2.12132 
C 2.683901 1.55874 3 0.795609 3 0 
C 3 -0.795609 2.683901 -1.55874 2.12132 -2.12132 
C 1.55874 -2.683901 0.795609 -3 0 -3 
C -0.795609 -3 -1.55874 -2.683901 -2.12132 -2.12132 
C -2.683901 -1.55874 -3 -0.795609 -3 0 
C -3 0.795609 -2.683901 1.55874 -2.12132 2.12132 
C -1.55874 2.683901 -0.795609 3 0 3 
z
" style="stroke: #8c564b"/>
    </defs>
    <g clip-path="url(#p324536869b)">
     <use xlink:href="#m204e6374b5" x="93.39983" y="364.913717" style="fill: #8c564b; stroke: #8c564b"/>
     <use xlink:href="#m204e6374b5" x="108.264486" y="358.358623" style="fill: #8c564b; stroke: #8c564b"/>
     <use xlink:href="#m204e6374b5" x="123.129142" y="363.909377" style="fill: #8c564b; stroke: #8c564b"/>
     <use xlink:href="#m204e6374b5" x="137.993798" y="366.352254" style="fill: #8c564b; stroke: #8c564b"/>
     <use xlink:href="#m204e6374b5" x="152.858454" y="357.748297" style="fill: #8c564b; stroke: #8c564b"/>
     <use xlink:href="#m204e6374b5" x="167.72311" y="360.290015" style="fill: #8c564b; stroke: #8c564b"/>
     <use xlink:href="#m204e6374b5" x="182.587767" y="466.291742" style="fill: #8c564b; stroke: #8c564b"/>
     <use xlink:href="#m204e6374b5" x="197.452423" y="461.426709" style="fill: #8c564b; stroke: #8c564b"/>
     <use xlink:href="#m204e6374b5" x="212.317079" y="359.706311" style="fill: #8c564b; stroke: #8c564b"/>
     <use xlink:href="#m204e6374b5" x="227.181735" y="363.793307" style="fill: #8c564b; stroke: #8c564b"/>
     <use xlink:href="#m204e6374b5" x="242.046391" y="366.147396" style="fill: #8c564b; stroke: #8c564b"/>
     <use xlink:href="#m204e6374b5" x="256.911047" y="364.70504" style="fill: #8c564b; stroke: #8c564b"/>
     <use xlink:href="#m204e6374b5" x="271.775704" y="403.598594" style="fill: #8c564b; stroke: #8c564b"/>
     <use xlink:href="#m204e6374b5" x="301.505016" y="304.686863" style="fill: #8c564b; stroke: #8c564b"/>
     <use xlink:href="#m204e6374b5" x="316.369672" y="363.080915" style="fill: #8c564b; stroke: #8c564b"/>
     <use xlink:href="#m204e6374b5" x="346.098985" y="364.628012" style="fill: #8c564b; stroke: #8c564b"/>
     <use xlink:href="#m204e6374b5" x="360.963641" y="363.007786" style="fill: #8c564b; stroke: #8c564b"/>
     <use xlink:href="#m204e6374b5" x="375.828297" y="438.286838" style="fill: #8c564b; stroke: #8c564b"/>
     <use xlink:href="#m204e6374b5" x="390.692953" y="393.483935" style="fill: #8c564b; stroke: #8c564b"/>
     <use xlink:href="#m204e6374b5" x="405.557609" y="363.070452" style="fill: #8c564b; stroke: #8c564b"/>
     <use xlink:href="#m204e6374b5" x="435.286922" y="465.507828" style="fill: #8c564b; stroke: #8c564b"/>
     <use xlink:href="#m204e6374b5" x="450.151578" y="296.788363" style="fill: #8c564b; stroke: #8c564b"/>
     <use xlink:href="#m204e6374b5" x="465.016234" y="363.659352" style="fill: #8c564b; stroke: #8c564b"/>
     <use xlink:href="#m204e6374b5" x="479.88089" y="362.276146" style="fill: #8c564b; stroke: #8c564b"/>
     <use xlink:href="#m204e6374b5" x="509.610203" y="466.599306" style="fill: #8c564b; stroke: #8c564b"/>
     <use xlink:href="#m204e6374b5" x="524.474859" y="457.205838" style="fill: #8c564b; stroke: #8c564b"/>
     <use xlink:href="#m204e6374b5" x="539.339515" y="394.032213" style="fill: #8c564b; stroke: #8c564b"/>
     <use xlink:href="#m204e6374b5" x="554.204171" y="365.818977" style="fill: #8c564b; stroke: #8c564b"/>
     <use xlink:href="#m204e6374b5" x="569.068827" y="362.663991" style="fill: #8c564b; stroke: #8c564b"/>
     <use xlink:href="#m204e6374b5" x="583.933483" y="361.0387" style="fill: #8c564b; stroke: #8c564b"/>
     <use xlink:href="#m204e6374b5" x="598.79814" y="427.206728" style="fill: #8c564b; stroke: #8c564b"/>
     <use xlink:href="#m204e6374b5" x="613.662796" y="363.095878" style="fill: #8c564b; stroke: #8c564b"/>
     <use xlink:href="#m204e6374b5" x="643.392108" y="466.311035" style="fill: #8c564b; stroke: #8c564b"/>
     <use xlink:href="#m204e6374b5" x="658.256764" y="365.069698" style="fill: #8c564b; stroke: #8c564b"/>
     <use xlink:href="#m204e6374b5" x="673.12142" y="464.843083" style="fill: #8c564b; stroke: #8c564b"/>
    </g>
   </g>
   <g id="patch_3">
    <path d="M 64.41375 529.308125 
L 64.41375 23.837812 
" style="fill: none; stroke: #000000; stroke-width: 0.8; stroke-linejoin: miter; stroke-linecap: square"/>
   </g>
   <g id="patch_4">
    <path d="M 702.1075 529.308125 
L 702.1075 23.837812 
" style="fill: none; stroke: #000000; stroke-width: 0.8; stroke-linejoin: miter; stroke-linecap: square"/>
   </g>
   <g id="patch_5">
    <path d="M 64.41375 529.308125 
L 702.1075 529.308125 
" style="fill: none; stroke: #000000; stroke-width: 0.8; stroke-linejoin: miter; stroke-linecap: square"/>
   </g>
   <g id="patch_6">
    <path d="M 64.41375 23.837812 
L 702.1075 23.837812 
" style="fill: none; stroke: #000000; stroke-width: 0.8; stroke-linejoin: miter; stroke-linecap: square"/>
   </g>
   <g id="text_15">
    <text style="font: 700 14px 'DejaVu Sans', 'Bitstream Vera Sans', 'Computer Modern Sans Serif', 'Lucida Grande', 'Verdana', 'Geneva', 'Lucid', 'Arial', 'Helvetica', 'Avant Garde', sans-serif; text-anchor: middle" x="383.260625" y="17.837813" transform="rotate(-0 383.260625 17.837813)">Mixedworkload - Performance Trend</text>
   </g>
   <g id="legend_1">
    <g id="patch_7">
     <path d="M 740.992188 119.906563 
L 846.004688 119.906563 
Q 848.004688 119.906563 848.004688 117.906563 
L 848.004688 30.837813 
Q 848.004688 28.837813 846.004688 28.837813 
L 740.992188 28.837813 
Q 738.992188 28.837813 738.992188 30.837813 
L 738.992188 117.906563 
Q 738.992188 119.906563 740.992188 119.906563 
z
" style="fill: #ffffff; opacity: 0.8; stroke: #cccccc; stroke-linejoin: miter"/>
    </g>
    <g id="line2d_31">
     <path d="M 742.992188 36.93625 
L 752.992188 36.93625 
L 762.992188 36.93625 
" style="fill: none; stroke: #1f77b4; stroke-width: 2; stroke-linecap: square"/>
     <g>
      <use xlink:href="#mebbb1429f7" x="752.992188" y="36.93625" style="fill: #1f77b4; stroke: #1f77b4"/>
     </g>
    </g>
    <g id="text_16">
     <text style="font: 10px 'DejaVu Sans', 'Bitstream Vera Sans', 'Computer Modern Sans Serif', 'Lucida Grande', 'Verdana', 'Geneva', 'Lucid', 'Arial', 'Helvetica', 'Avant Garde', sans-serif; text-anchor: start" x="770.992188" y="40.43625" transform="rotate(-0 770.992188 40.43625)">gcc-14.2 - V1</text>
    </g>
    <g id="line2d_32">
     <path d="M 742.992188 51.614375 
L 752.992188 51.614375 
L 762.992188 51.614375 
" style="fill: none; stroke: #ff7f0e; stroke-width: 2; stroke-linecap: square"/>
     <g>
      <use xlink:href="#m37396a7689" x="752.992188" y="51.614375" style="fill: #ff7f0e; stroke: #ff7f0e"/>
     </g>
    </g>
    <g id="text_17">
     <text style="font: 10px 'DejaVu Sans', 'Bitstream Vera Sans', 'Computer Modern Sans Serif', 'Lucida Grande', 'Verdana', 'Geneva', 'Lucid', 'Arial', 'Helvetica', 'Avant Garde', sans-serif; text-anchor: start" x="770.992188" y="55.114375" transform="rotate(-0 770.992188 55.114375)">gcc-14.2 - V2</text>
    </g>
    <g id="line2d_33">
     <path d="M 742.992188 66.2925 
L 752.992188 66.2925 
L 762.992188 66.2925 
" style="fill: none; stroke: #2ca02c; stroke-width: 2; stroke-linecap: square"/>
     <g>
      <use xlink:href="#m18cc043b4a" x="752.992188" y="66.2925" style="fill: #2ca02c; stroke: #2ca02c"/>
     </g>
    </g>
    <g id="text_18">
     <text style="font: 10px 'DejaVu Sans', 'Bitstream Vera Sans', 'Computer Modern Sans Serif', 'Lucida Grande', 'Verdana', 'Geneva', 'Lucid', 'Arial', 'Helvetica', 'Avant Garde', sans-serif; text-anchor: start" x="770.992188" y="69.7925" transform="rotate(-0 770.992188 69.7925)">gcc-14.2 - TBB</text>
    </g>
    <g id="line2d_34">
     <path d="M 742.992188 80.970625 
L 752.992188 80.970625 
L 762.992188 80.970625 
" style="fill: none; stroke: #d62728; stroke-width: 2; stroke-linecap: square"/>
     <g>
      <use xlink:href="#m9556f76ef7" x="752.992188" y="80.970625" style="fill: #d62728; stroke: #d62728"/>
     </g>
    </g>
    <g id="text_19">
     <text style="font: 10px 'DejaVu Sans', 'Bitstream Vera Sans', 'Computer Modern Sans Serif', 'Lucida Grande', 'Verdana', 'Geneva', 'Lucid', 'Arial', 'Helvetica', 'Avant Garde', sans-serif; text-anchor: start" x="770.992188" y="84.470625" transform="rotate(-0 770.992188 84.470625)">gcc-4.2 - V1</text>
    </g>
    <g id="line2d_35">
     <path d="M 742.992188 95.64875 
L 752.992188 95.64875 
L 762.992188 95.64875 
" style="fill: none; stroke: #9467bd; stroke-width: 2; stroke-linecap: square"/>
     <g>
      <use xlink:href="#m207422413f" x="752.992188" y="95.64875" style="fill: #9467bd; stroke: #9467bd"/>
     </g>
    </g>
    <g id="text_20">
     <text style="font: 10px 'DejaVu Sans', 'Bitstream Vera Sans', 'Computer Modern Sans Serif', 'Lucida Grande', 'Verdana', 'Geneva', 'Lucid', 'Arial', 'Helvetica', 'Avant Garde', sans-serif; text-anchor: start" x="770.992188" y="99.14875" transform="rotate(-0 770.992188 99.14875)">gcc-4.2 - V2</text>
    </g>
    <g id="line2d_36">
     <path d="M 742.992188 110.326875 
L 752.992188 110.326875 
L 762.992188 110.326875 
" style="fill: none; stroke: #8c564b; stroke-width: 2; stroke-linecap: square"/>
     <g>
      <use xlink:href="#m204e6374b5" x="752.992188" y="110.326875" style="fill: #8c564b; stroke: #8c564b"/>
     </g>
    </g>
    <g id="text_21">
     <text style="font: 10px 'DejaVu Sans', 'Bitstream Vera Sans', 'Computer Modern Sans Serif', 'Lucida Grande', 'Verdana', 'Geneva', 'Lucid', 'Arial', 'Helvetica', 'Avant Garde', sans-serif; text-anchor: start" x="770.992188" y="113.826875" transform="rotate(-0 770.992188 113.826875)">gcc-4.2 - TBB</text>
    </g>
   </g>
  </g>
 </g>
 <defs>
  <clipPath id="p324536869b">
   <rect x="64.41375" y="23.837813" width="637.69375" height="505.470313"/>
  </clipPath>
 </defs>
</svg>
