<?xml version="1.0" encoding="utf-8" standalone="no"?>
<!DOCTYPE svg PUBLIC "-//W3C//DTD SVG 1.1//EN"
  "http://www.w3.org/Graphics/SVG/1.1/DTD/svg11.dtd">
<svg xmlns:xlink="http://www.w3.org/1999/xlink" width="855.204687pt" height="568.8pt" viewBox="0 0 855.204687 568.8" xmlns="http://www.w3.org/2000/svg" version="1.1">
 <metadata>
  <rdf:RDF xmlns:dc="http://purl.org/dc/elements/1.1/" xmlns:cc="http://creativecommons.org/ns#" xmlns:rdf="http://www.w3.org/1999/02/22-rdf-syntax-ns#">
   <cc:Work>
    <dc:type rdf:resource="http://purl.org/dc/dcmitype/StillImage"/>
    <dc:date>2025-08-14T23:11:20.780619</dc:date>
    <dc:format>image/svg+xml</dc:format>
    <dc:creator>
     <cc:Agent>
      <dc:title>Matplotlib v3.9.4, https://matplotlib.org/</dc:title>
     </cc:Agent>
    </dc:creator>
   </cc:Work>
  </rdf:RDF>
 </metadata>
 <defs>
  <style type="text/css">*{stroke-linejoin: round; stroke-linecap: butt}</style>
 </defs>
 <g id="figure_1">
  <g id="patch_1">
   <path d="M 0 568.8 
L 855.204687 568.8 
L 855.204687 0 
L 0 0 
z
" style="fill: #ffffff"/>
  </g>
  <g id="axes_1">
   <g id="patch_2">
    <path d="M 64.41375 529.308125 
L 702.1075 529.308125 
L 702.1075 23.837812 
L 64.41375 23.837812 
z
" style="fill: #ffffff"/>
   </g>
   <g id="matplotlib.axis_1">
    <g id="xtick_1">
     <g id="line2d_1">
      <path d="M 64.41375 529.308125 
L 64.41375 23.837812 
" clip-path="url(#p7d2d4e2056)" style="fill: none; stroke: #b0b0b0; stroke-opacity: 0.3; stroke-width: 0.8; stroke-linecap: square"/>
     </g>
     <g id="line2d_2">
      <defs>
       <path id="m215335272b" d="M 0 0 
L 0 3.5 
" style="stroke: #000000; stroke-width: 0.8"/>
      </defs>
      <g>
       <use xlink:href="#m215335272b" x="64.41375" y="529.308125" style="stroke: #000000; stroke-width: 0.8"/>
      </g>
     </g>
     <g id="text_1">
      <text style="font: 10px 'DejaVu Sans', 'Bitstream Vera Sans', 'Computer Modern Sans Serif', 'Lucida Grande', 'Verdana', 'Geneva', 'Lucid', 'Arial', 'Helvetica', 'Avant Garde', sans-serif; text-anchor: middle" x="64.41375" y="543.906563" transform="rotate(-0 64.41375 543.906563)">70.0</text>
     </g>
    </g>
    <g id="xtick_2">
     <g id="line2d_3">
      <path d="M 136.878949 529.308125 
L 136.878949 23.837812 
" clip-path="url(#p7d2d4e2056)" style="fill: none; stroke: #b0b0b0; stroke-opacity: 0.3; stroke-width: 0.8; stroke-linecap: square"/>
     </g>
     <g id="line2d_4">
      <g>
       <use xlink:href="#m215335272b" x="136.878949" y="529.308125" style="stroke: #000000; stroke-width: 0.8"/>
      </g>
     </g>
     <g id="text_2">
      <text style="font: 10px 'DejaVu Sans', 'Bitstream Vera Sans', 'Computer Modern Sans Serif', 'Lucida Grande', 'Verdana', 'Geneva', 'Lucid', 'Arial', 'Helvetica', 'Avant Garde', sans-serif; text-anchor: middle" x="136.878949" y="543.906563" transform="rotate(-0 136.878949 543.906563)">72.5</text>
     </g>
    </g>
    <g id="xtick_3">
     <g id="line2d_5">
      <path d="M 209.344148 529.308125 
L 209.344148 23.837812 
" clip-path="url(#p7d2d4e2056)" style="fill: none; stroke: #b0b0b0; stroke-opacity: 0.3; stroke-width: 0.8; stroke-linecap: square"/>
     </g>
     <g id="line2d_6">
      <g>
       <use xlink:href="#m215335272b" x="209.344148" y="529.308125" style="stroke: #000000; stroke-width: 0.8"/>
      </g>
     </g>
     <g id="text_3">
      <text style="font: 10px 'DejaVu Sans', 'Bitstream Vera Sans', 'Computer Modern Sans Serif', 'Lucida Grande', 'Verdana', 'Geneva', 'Lucid', 'Arial', 'Helvetica', 'Avant Garde', sans-serif; text-anchor: middle" x="209.344148" y="543.906563" transform="rotate(-0 209.344148 543.906563)">75.0</text>
     </g>
    </g>
    <g id="xtick_4">
     <g id="line2d_7">
      <path d="M 281.809347 529.308125 
L 281.809347 23.837812 
" clip-path="url(#p7d2d4e2056)" style="fill: none; stroke: #b0b0b0; stroke-opacity: 0.3; stroke-width: 0.8; stroke-linecap: square"/>
     </g>
     <g id="line2d_8">
      <g>
       <use xlink:href="#m215335272b" x="281.809347" y="529.308125" style="stroke: #000000; stroke-width: 0.8"/>
      </g>
     </g>
     <g id="text_4">
      <text style="font: 10px 'DejaVu Sans', 'Bitstream Vera Sans', 'Computer Modern Sans Serif', 'Lucida Grande', 'Verdana', 'Geneva', 'Lucid', 'Arial', 'Helvetica', 'Avant Garde', sans-serif; text-anchor: middle" x="281.809347" y="543.906563" transform="rotate(-0 281.809347 543.906563)">77.5</text>
     </g>
    </g>
    <g id="xtick_5">
     <g id="line2d_9">
      <path d="M 354.274545 529.308125 
L 354.274545 23.837812 
" clip-path="url(#p7d2d4e2056)" style="fill: none; stroke: #b0b0b0; stroke-opacity: 0.3; stroke-width: 0.8; stroke-linecap: square"/>
     </g>
     <g id="line2d_10">
      <g>
       <use xlink:href="#m215335272b" x="354.274545" y="529.308125" style="stroke: #000000; stroke-width: 0.8"/>
      </g>
     </g>
     <g id="text_5">
      <text style="font: 10px 'DejaVu Sans', 'Bitstream Vera Sans', 'Computer Modern Sans Serif', 'Lucida Grande', 'Verdana', 'Geneva', 'Lucid', 'Arial', 'Helvetica', 'Avant Garde', sans-serif; text-anchor: middle" x="354.274545" y="543.906563" transform="rotate(-0 354.274545 543.906563)">80.0</text>
     </g>
    </g>
    <g id="xtick_6">
     <g id="line2d_11">
      <path d="M 426.739744 529.308125 
L 426.739744 23.837812 
" clip-path="url(#p7d2d4e2056)" style="fill: none; stroke: #b0b0b0; stroke-opacity: 0.3; stroke-width: 0.8; stroke-linecap: square"/>
     </g>
     <g id="line2d_12">
      <g>
       <use xlink:href="#m215335272b" x="426.739744" y="529.308125" style="stroke: #000000; stroke-width: 0.8"/>
      </g>
     </g>
     <g id="text_6">
      <text style="font: 10px 'DejaVu Sans', 'Bitstream Vera Sans', 'Computer Modern Sans Serif', 'Lucida Grande', 'Verdana', 'Geneva', 'Lucid', 'Arial', 'Helvetica', 'Avant Garde', sans-serif; text-anchor: middle" x="426.739744" y="543.906563" transform="rotate(-0 426.739744 543.906563)">82.5</text>
     </g>
    </g>
    <g id="xtick_7">
     <g id="line2d_13">
      <path d="M 499.204943 529.308125 
L 499.204943 23.837812 
" clip-path="url(#p7d2d4e2056)" style="fill: none; stroke: #b0b0b0; stroke-opacity: 0.3; stroke-width: 0.8; stroke-linecap: square"/>
     </g>
     <g id="line2d_14">
      <g>
       <use xlink:href="#m215335272b" x="499.204943" y="529.308125" style="stroke: #000000; stroke-width: 0.8"/>
      </g>
     </g>
     <g id="text_7">
      <text style="font: 10px 'DejaVu Sans', 'Bitstream Vera Sans', 'Computer Modern Sans Serif', 'Lucida Grande', 'Verdana', 'Geneva', 'Lucid', 'Arial', 'Helvetica', 'Avant Garde', sans-serif; text-anchor: middle" x="499.204943" y="543.906563" transform="rotate(-0 499.204943 543.906563)">85.0</text>
     </g>
    </g>
    <g id="xtick_8">
     <g id="line2d_15">
      <path d="M 571.670142 529.308125 
L 571.670142 23.837812 
" clip-path="url(#p7d2d4e2056)" style="fill: none; stroke: #b0b0b0; stroke-opacity: 0.3; stroke-width: 0.8; stroke-linecap: square"/>
     </g>
     <g id="line2d_16">
      <g>
       <use xlink:href="#m215335272b" x="571.670142" y="529.308125" style="stroke: #000000; stroke-width: 0.8"/>
      </g>
     </g>
     <g id="text_8">
      <text style="font: 10px 'DejaVu Sans', 'Bitstream Vera Sans', 'Computer Modern Sans Serif', 'Lucida Grande', 'Verdana', 'Geneva', 'Lucid', 'Arial', 'Helvetica', 'Avant Garde', sans-serif; text-anchor: middle" x="571.670142" y="543.906563" transform="rotate(-0 571.670142 543.906563)">87.5</text>
     </g>
    </g>
    <g id="xtick_9">
     <g id="line2d_17">
      <path d="M 644.135341 529.308125 
L 644.135341 23.837812 
" clip-path="url(#p7d2d4e2056)" style="fill: none; stroke: #b0b0b0; stroke-opacity: 0.3; stroke-width: 0.8; stroke-linecap: square"/>
     </g>
     <g id="line2d_18">
      <g>
       <use xlink:href="#m215335272b" x="644.135341" y="529.308125" style="stroke: #000000; stroke-width: 0.8"/>
      </g>
     </g>
     <g id="text_9">
      <text style="font: 10px 'DejaVu Sans', 'Bitstream Vera Sans', 'Computer Modern Sans Serif', 'Lucida Grande', 'Verdana', 'Geneva', 'Lucid', 'Arial', 'Helvetica', 'Avant Garde', sans-serif; text-anchor: middle" x="644.135341" y="543.906563" transform="rotate(-0 644.135341 543.906563)">90.0</text>
     </g>
    </g>
    <g id="text_10">
     <text style="font: 12px 'DejaVu Sans', 'Bitstream Vera Sans', 'Computer Modern Sans Serif', 'Lucida Grande', 'Verdana', 'Geneva', 'Lucid', 'Arial', 'Helvetica', 'Avant Garde', sans-serif; text-anchor: middle" x="383.260625" y="559.104375" transform="rotate(-0 383.260625 559.104375)">Build Number</text>
    </g>
   </g>
   <g id="matplotlib.axis_2">
    <g id="ytick_1">
     <g id="line2d_19">
      <defs>
       <path id="m91cda651ae" d="M 0 0 
L -2 0 
" style="stroke: #000000; stroke-width: 0.6"/>
      </defs>
      <g>
       <use xlink:href="#m91cda651ae" x="64.41375" y="417.517106" style="stroke: #000000; stroke-width: 0.6"/>
      </g>
     </g>
     <g id="text_11">
      <!-- $\mathdefault{3\times10^{5}}$ -->
      <g transform="translate(22.81375 421.316325)">
       <text>
        <tspan style="font: 10px 'DejaVu Sans'" x="0 8.310547 18.637695 25" y="-0.06406250000000036">3×10</tspan>
        <tspan style="font: 7px 'DejaVu Sans'" x="31.458008" y="-3.8921875000000004">5</tspan>
       </text>
      </g>
     </g>
    </g>
    <g id="ytick_2">
     <g id="line2d_20">
      <g>
       <use xlink:href="#m91cda651ae" x="64.41375" y="310.596364" style="stroke: #000000; stroke-width: 0.6"/>
      </g>
     </g>
     <g id="text_12">
      <!-- $\mathdefault{4\times10^{5}}$ -->
      <g transform="translate(22.81375 314.395583)">
       <text>
        <tspan style="font: 10px 'DejaVu Sans'" x="0 8.310547 18.637695 25" y="-0.06406250000000036">4×10</tspan>
        <tspan style="font: 7px 'DejaVu Sans'" x="31.458008" y="-3.8921875000000004">5</tspan>
       </text>
      </g>
     </g>
    </g>
    <g id="ytick_3">
     <g id="line2d_21">
      <g>
       <use xlink:href="#m91cda651ae" x="64.41375" y="227.662194" style="stroke: #000000; stroke-width: 0.6"/>
      </g>
     </g>
    </g>
    <g id="ytick_4">
     <g id="line2d_22">
      <g>
       <use xlink:href="#m91cda651ae" x="64.41375" y="159.900043" style="stroke: #000000; stroke-width: 0.6"/>
      </g>
     </g>
     <g id="text_13">
      <!-- $\mathdefault{6\times10^{5}}$ -->
      <g transform="translate(22.81375 163.699262)">
       <text>
        <tspan style="font: 10px 'DejaVu Sans'" x="0 8.310547 18.637695 25" y="-0.06406250000000036">6×10</tspan>
        <tspan style="font: 7px 'DejaVu Sans'" x="31.458008" y="-3.8921875000000004">5</tspan>
       </text>
      </g>
     </g>
    </g>
    <g id="ytick_5">
     <g id="line2d_23">
      <g>
       <use xlink:href="#m91cda651ae" x="64.41375" y="102.607961" style="stroke: #000000; stroke-width: 0.6"/>
      </g>
     </g>
    </g>
    <g id="ytick_6">
     <g id="line2d_24">
      <g>
       <use xlink:href="#m91cda651ae" x="64.41375" y="52.979302" style="stroke: #000000; stroke-width: 0.6"/>
      </g>
     </g>
    </g>
    <g id="text_14">
     <text style="font: 12px 'DejaVu Sans', 'Bitstream Vera Sans', 'Computer Modern Sans Serif', 'Lucida Grande', 'Verdana', 'Geneva', 'Lucid', 'Arial', 'Helvetica', 'Avant Garde', sans-serif; text-anchor: middle" x="16.318125" y="276.572969" transform="rotate(-90 16.318125 276.572969)">Median Elapsed Time (nanoseconds)</text>
    </g>
   </g>
   <g id="line2d_25">
    <path d="M 93.39983 483.065549 
L 122.385909 268.959694 
L 151.371989 288.033313 
L 180.358068 403.521401 
L 209.344148 271.002301 
L 238.330227 480.560088 
L 267.316307 402.236399 
L 296.302386 205.322014 
L 325.288466 263.00251 
L 354.274545 483.63391 
L 383.260625 433.762301 
L 412.246705 268.082696 
L 441.232784 458.674828 
L 470.218864 376.149536 
L 499.204943 344.648346 
L 528.191023 486.539097 
L 586.163182 428.054547 
L 615.149261 158.211024 
L 644.135341 401.175922 
L 673.12142 144.989231 
" clip-path="url(#p7d2d4e2056)" style="fill: none; stroke: #1f77b4; stroke-width: 2; stroke-linecap: square"/>
    <defs>
     <path id="ma4572cfd2d" d="M 0 3 
C 0.795609 3 1.55874 2.683901 2.12132 2.12132 
C 2.683901 1.55874 3 0.795609 3 0 
C 3 -0.795609 2.683901 -1.55874 2.12132 -2.12132 
C 1.55874 -2.683901 0.795609 -3 0 -3 
C -0.795609 -3 -1.55874 -2.683901 -2.12132 -2.12132 
C -2.683901 -1.55874 -3 -0.795609 -3 0 
C -3 0.795609 -2.683901 1.55874 -2.12132 2.12132 
C -1.55874 2.683901 -0.795609 3 0 3 
z
" style="stroke: #1f77b4"/>
    </defs>
    <g clip-path="url(#p7d2d4e2056)">
     <use xlink:href="#ma4572cfd2d" x="93.39983" y="483.065549" style="fill: #1f77b4; stroke: #1f77b4"/>
     <use xlink:href="#ma4572cfd2d" x="122.385909" y="268.959694" style="fill: #1f77b4; stroke: #1f77b4"/>
     <use xlink:href="#ma4572cfd2d" x="151.371989" y="288.033313" style="fill: #1f77b4; stroke: #1f77b4"/>
     <use xlink:href="#ma4572cfd2d" x="180.358068" y="403.521401" style="fill: #1f77b4; stroke: #1f77b4"/>
     <use xlink:href="#ma4572cfd2d" x="209.344148" y="271.002301" style="fill: #1f77b4; stroke: #1f77b4"/>
     <use xlink:href="#ma4572cfd2d" x="238.330227" y="480.560088" style="fill: #1f77b4; stroke: #1f77b4"/>
     <use xlink:href="#ma4572cfd2d" x="267.316307" y="402.236399" style="fill: #1f77b4; stroke: #1f77b4"/>
     <use xlink:href="#ma4572cfd2d" x="296.302386" y="205.322014" style="fill: #1f77b4; stroke: #1f77b4"/>
     <use xlink:href="#ma4572cfd2d" x="325.288466" y="263.00251" style="fill: #1f77b4; stroke: #1f77b4"/>
     <use xlink:href="#ma4572cfd2d" x="354.274545" y="483.63391" style="fill: #1f77b4; stroke: #1f77b4"/>
     <use xlink:href="#ma4572cfd2d" x="383.260625" y="433.762301" style="fill: #1f77b4; stroke: #1f77b4"/>
     <use xlink:href="#ma4572cfd2d" x="412.246705" y="268.082696" style="fill: #1f77b4; stroke: #1f77b4"/>
     <use xlink:href="#ma4572cfd2d" x="441.232784" y="458.674828" style="fill: #1f77b4; stroke: #1f77b4"/>
     <use xlink:href="#ma4572cfd2d" x="470.218864" y="376.149536" style="fill: #1f77b4; stroke: #1f77b4"/>
     <use xlink:href="#ma4572cfd2d" x="499.204943" y="344.648346" style="fill: #1f77b4; stroke: #1f77b4"/>
     <use xlink:href="#ma4572cfd2d" x="528.191023" y="486.539097" style="fill: #1f77b4; stroke: #1f77b4"/>
     <use xlink:href="#ma4572cfd2d" x="586.163182" y="428.054547" style="fill: #1f77b4; stroke: #1f77b4"/>
     <use xlink:href="#ma4572cfd2d" x="615.149261" y="158.211024" style="fill: #1f77b4; stroke: #1f77b4"/>
     <use xlink:href="#ma4572cfd2d" x="644.135341" y="401.175922" style="fill: #1f77b4; stroke: #1f77b4"/>
     <use xlink:href="#ma4572cfd2d" x="673.12142" y="144.989231" style="fill: #1f77b4; stroke: #1f77b4"/>
    </g>
   </g>
   <g id="line2d_26">
    <path d="M 93.39983 484.672455 
L 122.385909 269.775573 
L 151.371989 276.331207 
L 180.358068 452.448146 
L 209.344148 328.670915 
L 238.330227 487.574584 
L 267.316307 484.70511 
L 296.302386 444.072349 
L 325.288466 366.748232 
L 354.274545 345.826664 
L 383.260625 320.759481 
L 412.246705 392.006131 
L 441.232784 481.388315 
L 470.218864 263.938799 
L 499.204943 309.303741 
L 528.191023 485.409362 
L 586.163182 486.58206 
L 615.149261 264.69666 
L 644.135341 494.502361 
L 673.12142 264.359952 
" clip-path="url(#p7d2d4e2056)" style="fill: none; stroke: #ff7f0e; stroke-width: 2; stroke-linecap: square"/>
    <defs>
     <path id="ma70c60ab7b" d="M 0 3 
C 0.795609 3 1.55874 2.683901 2.12132 2.12132 
C 2.683901 1.55874 3 0.795609 3 0 
C 3 -0.795609 2.683901 -1.55874 2.12132 -2.12132 
C 1.55874 -2.683901 0.795609 -3 0 -3 
C -0.795609 -3 -1.55874 -2.683901 -2.12132 -2.12132 
C -2.683901 -1.55874 -3 -0.795609 -3 0 
C -3 0.795609 -2.683901 1.55874 -2.12132 2.12132 
C -1.55874 2.683901 -0.795609 3 0 3 
z
" style="stroke: #ff7f0e"/>
    </defs>
    <g clip-path="url(#p7d2d4e2056)">
     <use xlink:href="#ma70c60ab7b" x="93.39983" y="484.672455" style="fill: #ff7f0e; stroke: #ff7f0e"/>
     <use xlink:href="#ma70c60ab7b" x="122.385909" y="269.775573" style="fill: #ff7f0e; stroke: #ff7f0e"/>
     <use xlink:href="#ma70c60ab7b" x="151.371989" y="276.331207" style="fill: #ff7f0e; stroke: #ff7f0e"/>
     <use xlink:href="#ma70c60ab7b" x="180.358068" y="452.448146" style="fill: #ff7f0e; stroke: #ff7f0e"/>
     <use xlink:href="#ma70c60ab7b" x="209.344148" y="328.670915" style="fill: #ff7f0e; stroke: #ff7f0e"/>
     <use xlink:href="#ma70c60ab7b" x="238.330227" y="487.574584" style="fill: #ff7f0e; stroke: #ff7f0e"/>
     <use xlink:href="#ma70c60ab7b" x="267.316307" y="484.70511" style="fill: #ff7f0e; stroke: #ff7f0e"/>
     <use xlink:href="#ma70c60ab7b" x="296.302386" y="444.072349" style="fill: #ff7f0e; stroke: #ff7f0e"/>
     <use xlink:href="#ma70c60ab7b" x="325.288466" y="366.748232" style="fill: #ff7f0e; stroke: #ff7f0e"/>
     <use xlink:href="#ma70c60ab7b" x="354.274545" y="345.826664" style="fill: #ff7f0e; stroke: #ff7f0e"/>
     <use xlink:href="#ma70c60ab7b" x="383.260625" y="320.759481" style="fill: #ff7f0e; stroke: #ff7f0e"/>
     <use xlink:href="#ma70c60ab7b" x="412.246705" y="392.006131" style="fill: #ff7f0e; stroke: #ff7f0e"/>
     <use xlink:href="#ma70c60ab7b" x="441.232784" y="481.388315" style="fill: #ff7f0e; stroke: #ff7f0e"/>
     <use xlink:href="#ma70c60ab7b" x="470.218864" y="263.938799" style="fill: #ff7f0e; stroke: #ff7f0e"/>
     <use xlink:href="#ma70c60ab7b" x="499.204943" y="309.303741" style="fill: #ff7f0e; stroke: #ff7f0e"/>
     <use xlink:href="#ma70c60ab7b" x="528.191023" y="485.409362" style="fill: #ff7f0e; stroke: #ff7f0e"/>
     <use xlink:href="#ma70c60ab7b" x="586.163182" y="486.58206" style="fill: #ff7f0e; stroke: #ff7f0e"/>
     <use xlink:href="#ma70c60ab7b" x="615.149261" y="264.69666" style="fill: #ff7f0e; stroke: #ff7f0e"/>
     <use xlink:href="#ma70c60ab7b" x="644.135341" y="494.502361" style="fill: #ff7f0e; stroke: #ff7f0e"/>
     <use xlink:href="#ma70c60ab7b" x="673.12142" y="264.359952" style="fill: #ff7f0e; stroke: #ff7f0e"/>
    </g>
   </g>
   <g id="line2d_27">
    <path d="M 93.39983 500.542654 
L 122.385909 384.421088 
L 151.371989 252.548823 
L 180.358068 498.643822 
L 209.344148 472.734339 
L 238.330227 496.566556 
L 267.316307 495.182537 
L 296.302386 498.89171 
L 325.288466 498.822322 
L 354.274545 491.607689 
L 383.260625 497.495949 
L 412.246705 497.439262 
L 441.232784 497.671439 
L 470.218864 398.540483 
L 499.204943 489.7543 
L 528.191023 498.685279 
L 586.163182 494.982122 
L 615.149261 459.178929 
L 644.135341 497.520992 
L 673.12142 391.026894 
" clip-path="url(#p7d2d4e2056)" style="fill: none; stroke: #2ca02c; stroke-width: 2; stroke-linecap: square"/>
    <defs>
     <path id="m23a4a0cd93" d="M 0 3 
C 0.795609 3 1.55874 2.683901 2.12132 2.12132 
C 2.683901 1.55874 3 0.795609 3 0 
C 3 -0.795609 2.683901 -1.55874 2.12132 -2.12132 
C 1.55874 -2.683901 0.795609 -3 0 -3 
C -0.795609 -3 -1.55874 -2.683901 -2.12132 -2.12132 
C -2.683901 -1.55874 -3 -0.795609 -3 0 
C -3 0.795609 -2.683901 1.55874 -2.12132 2.12132 
C -1.55874 2.683901 -0.795609 3 0 3 
z
" style="stroke: #2ca02c"/>
    </defs>
    <g clip-path="url(#p7d2d4e2056)">
     <use xlink:href="#m23a4a0cd93" x="93.39983" y="500.542654" style="fill: #2ca02c; stroke: #2ca02c"/>
     <use xlink:href="#m23a4a0cd93" x="122.385909" y="384.421088" style="fill: #2ca02c; stroke: #2ca02c"/>
     <use xlink:href="#m23a4a0cd93" x="151.371989" y="252.548823" style="fill: #2ca02c; stroke: #2ca02c"/>
     <use xlink:href="#m23a4a0cd93" x="180.358068" y="498.643822" style="fill: #2ca02c; stroke: #2ca02c"/>
     <use xlink:href="#m23a4a0cd93" x="209.344148" y="472.734339" style="fill: #2ca02c; stroke: #2ca02c"/>
     <use xlink:href="#m23a4a0cd93" x="238.330227" y="496.566556" style="fill: #2ca02c; stroke: #2ca02c"/>
     <use xlink:href="#m23a4a0cd93" x="267.316307" y="495.182537" style="fill: #2ca02c; stroke: #2ca02c"/>
     <use xlink:href="#m23a4a0cd93" x="296.302386" y="498.89171" style="fill: #2ca02c; stroke: #2ca02c"/>
     <use xlink:href="#m23a4a0cd93" x="325.288466" y="498.822322" style="fill: #2ca02c; stroke: #2ca02c"/>
     <use xlink:href="#m23a4a0cd93" x="354.274545" y="491.607689" style="fill: #2ca02c; stroke: #2ca02c"/>
     <use xlink:href="#m23a4a0cd93" x="383.260625" y="497.495949" style="fill: #2ca02c; stroke: #2ca02c"/>
     <use xlink:href="#m23a4a0cd93" x="412.246705" y="497.439262" style="fill: #2ca02c; stroke: #2ca02c"/>
     <use xlink:href="#m23a4a0cd93" x="441.232784" y="497.671439" style="fill: #2ca02c; stroke: #2ca02c"/>
     <use xlink:href="#m23a4a0cd93" x="470.218864" y="398.540483" style="fill: #2ca02c; stroke: #2ca02c"/>
     <use xlink:href="#m23a4a0cd93" x="499.204943" y="489.7543" style="fill: #2ca02c; stroke: #2ca02c"/>
     <use xlink:href="#m23a4a0cd93" x="528.191023" y="498.685279" style="fill: #2ca02c; stroke: #2ca02c"/>
     <use xlink:href="#m23a4a0cd93" x="586.163182" y="494.982122" style="fill: #2ca02c; stroke: #2ca02c"/>
     <use xlink:href="#m23a4a0cd93" x="615.149261" y="459.178929" style="fill: #2ca02c; stroke: #2ca02c"/>
     <use xlink:href="#m23a4a0cd93" x="644.135341" y="497.520992" style="fill: #2ca02c; stroke: #2ca02c"/>
     <use xlink:href="#m23a4a0cd93" x="673.12142" y="391.026894" style="fill: #2ca02c; stroke: #2ca02c"/>
    </g>
   </g>
   <g id="line2d_28">
    <path d="M 93.39983 501.885406 
L 122.385909 499.705447 
L 151.371989 505.057818 
L 180.358068 504.48425 
L 209.344148 283.836758 
L 238.330227 285.907202 
L 267.316307 505.819033 
L 296.302386 402.208221 
L 325.288466 498.758958 
L 354.274545 501.847942 
L 383.260625 504.556739 
L 412.246705 502.32359 
L 441.232784 46.813736 
L 499.204943 459.775037 
L 528.191023 501.449446 
L 586.163182 502.030943 
L 615.149261 506.332202 
L 644.135341 83.74864 
L 673.12142 505.781328 
" clip-path="url(#p7d2d4e2056)" style="fill: none; stroke: #d62728; stroke-width: 2; stroke-linecap: square"/>
    <defs>
     <path id="m0d406a477f" d="M 0 3 
C 0.795609 3 1.55874 2.683901 2.12132 2.12132 
C 2.683901 1.55874 3 0.795609 3 0 
C 3 -0.795609 2.683901 -1.55874 2.12132 -2.12132 
C 1.55874 -2.683901 0.795609 -3 0 -3 
C -0.795609 -3 -1.55874 -2.683901 -2.12132 -2.12132 
C -2.683901 -1.55874 -3 -0.795609 -3 0 
C -3 0.795609 -2.683901 1.55874 -2.12132 2.12132 
C -1.55874 2.683901 -0.795609 3 0 3 
z
" style="stroke: #d62728"/>
    </defs>
    <g clip-path="url(#p7d2d4e2056)">
     <use xlink:href="#m0d406a477f" x="93.39983" y="501.885406" style="fill: #d62728; stroke: #d62728"/>
     <use xlink:href="#m0d406a477f" x="122.385909" y="499.705447" style="fill: #d62728; stroke: #d62728"/>
     <use xlink:href="#m0d406a477f" x="151.371989" y="505.057818" style="fill: #d62728; stroke: #d62728"/>
     <use xlink:href="#m0d406a477f" x="180.358068" y="504.48425" style="fill: #d62728; stroke: #d62728"/>
     <use xlink:href="#m0d406a477f" x="209.344148" y="283.836758" style="fill: #d62728; stroke: #d62728"/>
     <use xlink:href="#m0d406a477f" x="238.330227" y="285.907202" style="fill: #d62728; stroke: #d62728"/>
     <use xlink:href="#m0d406a477f" x="267.316307" y="505.819033" style="fill: #d62728; stroke: #d62728"/>
     <use xlink:href="#m0d406a477f" x="296.302386" y="402.208221" style="fill: #d62728; stroke: #d62728"/>
     <use xlink:href="#m0d406a477f" x="325.288466" y="498.758958" style="fill: #d62728; stroke: #d62728"/>
     <use xlink:href="#m0d406a477f" x="354.274545" y="501.847942" style="fill: #d62728; stroke: #d62728"/>
     <use xlink:href="#m0d406a477f" x="383.260625" y="504.556739" style="fill: #d62728; stroke: #d62728"/>
     <use xlink:href="#m0d406a477f" x="412.246705" y="502.32359" style="fill: #d62728; stroke: #d62728"/>
     <use xlink:href="#m0d406a477f" x="441.232784" y="46.813736" style="fill: #d62728; stroke: #d62728"/>
     <use xlink:href="#m0d406a477f" x="499.204943" y="459.775037" style="fill: #d62728; stroke: #d62728"/>
     <use xlink:href="#m0d406a477f" x="528.191023" y="501.449446" style="fill: #d62728; stroke: #d62728"/>
     <use xlink:href="#m0d406a477f" x="586.163182" y="502.030943" style="fill: #d62728; stroke: #d62728"/>
     <use xlink:href="#m0d406a477f" x="615.149261" y="506.332202" style="fill: #d62728; stroke: #d62728"/>
     <use xlink:href="#m0d406a477f" x="644.135341" y="83.74864" style="fill: #d62728; stroke: #d62728"/>
     <use xlink:href="#m0d406a477f" x="673.12142" y="505.781328" style="fill: #d62728; stroke: #d62728"/>
    </g>
   </g>
   <g id="line2d_29">
    <path d="M 93.39983 494.703431 
L 122.385909 460.163201 
L 151.371989 497.614726 
L 180.358068 490.226762 
L 209.344148 355.449911 
L 238.330227 170.174584 
L 267.316307 501.339682 
L 296.302386 469.822148 
L 325.288466 355.955659 
L 354.274545 497.262039 
L 383.260625 503.613605 
L 412.246705 501.681656 
L 441.232784 185.173438 
L 499.204943 167.423177 
L 528.191023 502.541552 
L 586.163182 498.257827 
L 615.149261 500.649239 
L 644.135341 273.835928 
L 673.12142 489.604767 
" clip-path="url(#p7d2d4e2056)" style="fill: none; stroke: #9467bd; stroke-width: 2; stroke-linecap: square"/>
    <defs>
     <path id="mc03335955a" d="M 0 3 
C 0.795609 3 1.55874 2.683901 2.12132 2.12132 
C 2.683901 1.55874 3 0.795609 3 0 
C 3 -0.795609 2.683901 -1.55874 2.12132 -2.12132 
C 1.55874 -2.683901 0.795609 -3 0 -3 
C -0.795609 -3 -1.55874 -2.683901 -2.12132 -2.12132 
C -2.683901 -1.55874 -3 -0.795609 -3 0 
C -3 0.795609 -2.683901 1.55874 -2.12132 2.12132 
C -1.55874 2.683901 -0.795609 3 0 3 
z
" style="stroke: #9467bd"/>
    </defs>
    <g clip-path="url(#p7d2d4e2056)">
     <use xlink:href="#mc03335955a" x="93.39983" y="494.703431" style="fill: #9467bd; stroke: #9467bd"/>
     <use xlink:href="#mc03335955a" x="122.385909" y="460.163201" style="fill: #9467bd; stroke: #9467bd"/>
     <use xlink:href="#mc03335955a" x="151.371989" y="497.614726" style="fill: #9467bd; stroke: #9467bd"/>
     <use xlink:href="#mc03335955a" x="180.358068" y="490.226762" style="fill: #9467bd; stroke: #9467bd"/>
     <use xlink:href="#mc03335955a" x="209.344148" y="355.449911" style="fill: #9467bd; stroke: #9467bd"/>
     <use xlink:href="#mc03335955a" x="238.330227" y="170.174584" style="fill: #9467bd; stroke: #9467bd"/>
     <use xlink:href="#mc03335955a" x="267.316307" y="501.339682" style="fill: #9467bd; stroke: #9467bd"/>
     <use xlink:href="#mc03335955a" x="296.302386" y="469.822148" style="fill: #9467bd; stroke: #9467bd"/>
     <use xlink:href="#mc03335955a" x="325.288466" y="355.955659" style="fill: #9467bd; stroke: #9467bd"/>
     <use xlink:href="#mc03335955a" x="354.274545" y="497.262039" style="fill: #9467bd; stroke: #9467bd"/>
     <use xlink:href="#mc03335955a" x="383.260625" y="503.613605" style="fill: #9467bd; stroke: #9467bd"/>
     <use xlink:href="#mc03335955a" x="412.246705" y="501.681656" style="fill: #9467bd; stroke: #9467bd"/>
     <use xlink:href="#mc03335955a" x="441.232784" y="185.173438" style="fill: #9467bd; stroke: #9467bd"/>
     <use xlink:href="#mc03335955a" x="499.204943" y="167.423177" style="fill: #9467bd; stroke: #9467bd"/>
     <use xlink:href="#mc03335955a" x="528.191023" y="502.541552" style="fill: #9467bd; stroke: #9467bd"/>
     <use xlink:href="#mc03335955a" x="586.163182" y="498.257827" style="fill: #9467bd; stroke: #9467bd"/>
     <use xlink:href="#mc03335955a" x="615.149261" y="500.649239" style="fill: #9467bd; stroke: #9467bd"/>
     <use xlink:href="#mc03335955a" x="644.135341" y="273.835928" style="fill: #9467bd; stroke: #9467bd"/>
     <use xlink:href="#mc03335955a" x="673.12142" y="489.604767" style="fill: #9467bd; stroke: #9467bd"/>
    </g>
   </g>
   <g id="line2d_30">
    <path d="M 93.39983 363.05938 
L 122.385909 356.389255 
L 151.371989 362.037416 
L 180.358068 364.523161 
L 209.344148 355.768218 
L 238.330227 358.35454 
L 267.316307 466.216426 
L 296.302386 461.26602 
L 325.288466 357.760592 
L 354.274545 361.919308 
L 383.260625 364.314708 
L 412.246705 362.847041 
L 441.232784 402.423114 
L 499.204943 301.775642 
L 528.191023 361.194415 
L 586.163182 362.768661 
L 615.149261 361.120002 
L 644.135341 437.720081 
L 673.12142 392.130959 
" clip-path="url(#p7d2d4e2056)" style="fill: none; stroke: #8c564b; stroke-width: 2; stroke-linecap: square"/>
    <defs>
     <path id="mf4e5c72869" d="M 0 3 
C 0.795609 3 1.55874 2.683901 2.12132 2.12132 
C 2.683901 1.55874 3 0.795609 3 0 
C 3 -0.795609 2.683901 -1.55874 2.12132 -2.12132 
C 1.55874 -2.683901 0.795609 -3 0 -3 
C -0.795609 -3 -1.55874 -2.683901 -2.12132 -2.12132 
C -2.683901 -1.55874 -3 -0.795609 -3 0 
C -3 0.795609 -2.683901 1.55874 -2.12132 2.12132 
C -1.55874 2.683901 -0.795609 3 0 3 
z
" style="stroke: #8c564b"/>
    </defs>
    <g clip-path="url(#p7d2d4e2056)">
     <use xlink:href="#mf4e5c72869" x="93.39983" y="363.05938" style="fill: #8c564b; stroke: #8c564b"/>
     <use xlink:href="#mf4e5c72869" x="122.385909" y="356.389255" style="fill: #8c564b; stroke: #8c564b"/>
     <use xlink:href="#mf4e5c72869" x="151.371989" y="362.037416" style="fill: #8c564b; stroke: #8c564b"/>
     <use xlink:href="#mf4e5c72869" x="180.358068" y="364.523161" style="fill: #8c564b; stroke: #8c564b"/>
     <use xlink:href="#mf4e5c72869" x="209.344148" y="355.768218" style="fill: #8c564b; stroke: #8c564b"/>
     <use xlink:href="#mf4e5c72869" x="238.330227" y="358.35454" style="fill: #8c564b; stroke: #8c564b"/>
     <use xlink:href="#mf4e5c72869" x="267.316307" y="466.216426" style="fill: #8c564b; stroke: #8c564b"/>
     <use xlink:href="#mf4e5c72869" x="296.302386" y="461.26602" style="fill: #8c564b; stroke: #8c564b"/>
     <use xlink:href="#mf4e5c72869" x="325.288466" y="357.760592" style="fill: #8c564b; stroke: #8c564b"/>
     <use xlink:href="#mf4e5c72869" x="354.274545" y="361.919308" style="fill: #8c564b; stroke: #8c564b"/>
     <use xlink:href="#mf4e5c72869" x="383.260625" y="364.314708" style="fill: #8c564b; stroke: #8c564b"/>
     <use xlink:href="#mf4e5c72869" x="412.246705" y="362.847041" style="fill: #8c564b; stroke: #8c564b"/>
     <use xlink:href="#mf4e5c72869" x="441.232784" y="402.423114" style="fill: #8c564b; stroke: #8c564b"/>
     <use xlink:href="#mf4e5c72869" x="499.204943" y="301.775642" style="fill: #8c564b; stroke: #8c564b"/>
     <use xlink:href="#mf4e5c72869" x="528.191023" y="361.194415" style="fill: #8c564b; stroke: #8c564b"/>
     <use xlink:href="#mf4e5c72869" x="586.163182" y="362.768661" style="fill: #8c564b; stroke: #8c564b"/>
     <use xlink:href="#mf4e5c72869" x="615.149261" y="361.120002" style="fill: #8c564b; stroke: #8c564b"/>
     <use xlink:href="#mf4e5c72869" x="644.135341" y="437.720081" style="fill: #8c564b; stroke: #8c564b"/>
     <use xlink:href="#mf4e5c72869" x="673.12142" y="392.130959" style="fill: #8c564b; stroke: #8c564b"/>
    </g>
   </g>
   <g id="patch_3">
    <path d="M 64.41375 529.308125 
L 64.41375 23.837813 
" style="fill: none; stroke: #000000; stroke-width: 0.8; stroke-linejoin: miter; stroke-linecap: square"/>
   </g>
   <g id="patch_4">
    <path d="M 702.1075 529.308125 
L 702.1075 23.837813 
" style="fill: none; stroke: #000000; stroke-width: 0.8; stroke-linejoin: miter; stroke-linecap: square"/>
   </g>
   <g id="patch_5">
    <path d="M 64.41375 529.308125 
L 702.1075 529.308125 
" style="fill: none; stroke: #000000; stroke-width: 0.8; stroke-linejoin: miter; stroke-linecap: square"/>
   </g>
   <g id="patch_6">
    <path d="M 64.41375 23.837812 
L 702.1075 23.837812 
" style="fill: none; stroke: #000000; stroke-width: 0.8; stroke-linejoin: miter; stroke-linecap: square"/>
   </g>
   <g id="text_15">
    <text style="font: 700 14px 'DejaVu Sans', 'Bitstream Vera Sans', 'Computer Modern Sans Serif', 'Lucida Grande', 'Verdana', 'Geneva', 'Lucid', 'Arial', 'Helvetica', 'Avant Garde', sans-serif; text-anchor: middle" x="383.260625" y="17.837813" transform="rotate(-0 383.260625 17.837813)">Mixedworkload - Performance Trend</text>
   </g>
   <g id="legend_1">
    <g id="patch_7">
     <path d="M 740.992188 119.906563 
L 846.004688 119.906563 
Q 848.004688 119.906563 848.004688 117.906563 
L 848.004688 30.837813 
Q 848.004688 28.837813 846.004688 28.837813 
L 740.992188 28.837813 
Q 738.992188 28.837813 738.992188 30.837813 
L 738.992188 117.906563 
Q 738.992188 119.906563 740.992188 119.906563 
z
" style="fill: #ffffff; opacity: 0.8; stroke: #cccccc; stroke-linejoin: miter"/>
    </g>
    <g id="line2d_31">
     <path d="M 742.992188 36.93625 
L 752.992188 36.93625 
L 762.992188 36.93625 
" style="fill: none; stroke: #1f77b4; stroke-width: 2; stroke-linecap: square"/>
     <g>
      <use xlink:href="#ma4572cfd2d" x="752.992188" y="36.93625" style="fill: #1f77b4; stroke: #1f77b4"/>
     </g>
    </g>
    <g id="text_16">
     <text style="font: 10px 'DejaVu Sans', 'Bitstream Vera Sans', 'Computer Modern Sans Serif', 'Lucida Grande', 'Verdana', 'Geneva', 'Lucid', 'Arial', 'Helvetica', 'Avant Garde', sans-serif; text-anchor: start" x="770.992188" y="40.43625" transform="rotate(-0 770.992188 40.43625)">gcc-14.2 - V1</text>
    </g>
    <g id="line2d_32">
     <path d="M 742.992188 51.614375 
L 752.992188 51.614375 
L 762.992188 51.614375 
" style="fill: none; stroke: #ff7f0e; stroke-width: 2; stroke-linecap: square"/>
     <g>
      <use xlink:href="#ma70c60ab7b" x="752.992188" y="51.614375" style="fill: #ff7f0e; stroke: #ff7f0e"/>
     </g>
    </g>
    <g id="text_17">
     <text style="font: 10px 'DejaVu Sans', 'Bitstream Vera Sans', 'Computer Modern Sans Serif', 'Lucida Grande', 'Verdana', 'Geneva', 'Lucid', 'Arial', 'Helvetica', 'Avant Garde', sans-serif; text-anchor: start" x="770.992188" y="55.114375" transform="rotate(-0 770.992188 55.114375)">gcc-14.2 - V2</text>
    </g>
    <g id="line2d_33">
     <path d="M 742.992188 66.2925 
L 752.992188 66.2925 
L 762.992188 66.2925 
" style="fill: none; stroke: #2ca02c; stroke-width: 2; stroke-linecap: square"/>
     <g>
      <use xlink:href="#m23a4a0cd93" x="752.992188" y="66.2925" style="fill: #2ca02c; stroke: #2ca02c"/>
     </g>
    </g>
    <g id="text_18">
     <text style="font: 10px 'DejaVu Sans', 'Bitstream Vera Sans', 'Computer Modern Sans Serif', 'Lucida Grande', 'Verdana', 'Geneva', 'Lucid', 'Arial', 'Helvetica', 'Avant Garde', sans-serif; text-anchor: start" x="770.992188" y="69.7925" transform="rotate(-0 770.992188 69.7925)">gcc-14.2 - TBB</text>
    </g>
    <g id="line2d_34">
     <path d="M 742.992188 80.970625 
L 752.992188 80.970625 
L 762.992188 80.970625 
" style="fill: none; stroke: #d62728; stroke-width: 2; stroke-linecap: square"/>
     <g>
      <use xlink:href="#m0d406a477f" x="752.992188" y="80.970625" style="fill: #d62728; stroke: #d62728"/>
     </g>
    </g>
    <g id="text_19">
     <text style="font: 10px 'DejaVu Sans', 'Bitstream Vera Sans', 'Computer Modern Sans Serif', 'Lucida Grande', 'Verdana', 'Geneva', 'Lucid', 'Arial', 'Helvetica', 'Avant Garde', sans-serif; text-anchor: start" x="770.992188" y="84.470625" transform="rotate(-0 770.992188 84.470625)">gcc-4.2 - V1</text>
    </g>
    <g id="line2d_35">
     <path d="M 742.992188 95.64875 
L 752.992188 95.64875 
L 762.992188 95.64875 
" style="fill: none; stroke: #9467bd; stroke-width: 2; stroke-linecap: square"/>
     <g>
      <use xlink:href="#mc03335955a" x="752.992188" y="95.64875" style="fill: #9467bd; stroke: #9467bd"/>
     </g>
    </g>
    <g id="text_20">
     <text style="font: 10px 'DejaVu Sans', 'Bitstream Vera Sans', 'Computer Modern Sans Serif', 'Lucida Grande', 'Verdana', 'Geneva', 'Lucid', 'Arial', 'Helvetica', 'Avant Garde', sans-serif; text-anchor: start" x="770.992188" y="99.14875" transform="rotate(-0 770.992188 99.14875)">gcc-4.2 - V2</text>
    </g>
    <g id="line2d_36">
     <path d="M 742.992188 110.326875 
L 752.992188 110.326875 
L 762.992188 110.326875 
" style="fill: none; stroke: #8c564b; stroke-width: 2; stroke-linecap: square"/>
     <g>
      <use xlink:href="#mf4e5c72869" x="752.992188" y="110.326875" style="fill: #8c564b; stroke: #8c564b"/>
     </g>
    </g>
    <g id="text_21">
     <text style="font: 10px 'DejaVu Sans', 'Bitstream Vera Sans', 'Computer Modern Sans Serif', 'Lucida Grande', 'Verdana', 'Geneva', 'Lucid', 'Arial', 'Helvetica', 'Avant Garde', sans-serif; text-anchor: start" x="770.992188" y="113.826875" transform="rotate(-0 770.992188 113.826875)">gcc-4.2 - TBB</text>
    </g>
   </g>
  </g>
 </g>
 <defs>
  <clipPath id="p7d2d4e2056">
   <rect x="64.41375" y="23.837813" width="637.69375" height="505.470313"/>
  </clipPath>
 </defs>
</svg>
