<?xml version="1.0" encoding="utf-8" standalone="no"?>
<!DOCTYPE svg PUBLIC "-//W3C//DTD SVG 1.1//EN"
  "http://www.w3.org/Graphics/SVG/1.1/DTD/svg11.dtd">
<svg xmlns:xlink="http://www.w3.org/1999/xlink" width="856.204141pt" height="568.8pt" viewBox="0 0 856.204141 568.8" xmlns="http://www.w3.org/2000/svg" version="1.1">
 <metadata>
  <rdf:RDF xmlns:dc="http://purl.org/dc/elements/1.1/" xmlns:cc="http://creativecommons.org/ns#" xmlns:rdf="http://www.w3.org/1999/02/22-rdf-syntax-ns#">
   <cc:Work>
    <dc:type rdf:resource="http://purl.org/dc/dcmitype/StillImage"/>
    <dc:date>2026-03-15T13:27:22.194077</dc:date>
    <dc:format>image/svg+xml</dc:format>
    <dc:creator>
     <cc:Agent>
      <dc:title>Matplotlib v3.9.4, https://matplotlib.org/</dc:title>
     </cc:Agent>
    </dc:creator>
   </cc:Work>
  </rdf:RDF>
 </metadata>
 <defs>
  <style type="text/css">*{stroke-linejoin: round; stroke-linecap: butt}</style>
 </defs>
 <g id="figure_1">
  <g id="patch_1">
   <path d="M 0 568.8 
L 856.204141 568.8 
L 856.204141 0 
L 0 0 
z
" style="fill: #ffffff"/>
  </g>
  <g id="axes_1">
   <g id="patch_2">
    <path d="M 74.01375 529.308125 
L 731.696563 529.308125 
L 731.696563 23.837812 
L 74.01375 23.837812 
z
" style="fill: #ffffff"/>
   </g>
   <g id="matplotlib.axis_1">
    <g id="xtick_1">
     <g id="line2d_1">
      <path d="M 93.037633 529.308125 
L 93.037633 23.837812 
" clip-path="url(#pde0655688f)" style="fill: none; stroke: #b0b0b0; stroke-opacity: 0.3; stroke-width: 0.8; stroke-linecap: square"/>
     </g>
     <g id="line2d_2">
      <defs>
       <path id="m19345b95fc" d="M 0 0 
L 0 3.5 
" style="stroke: #000000; stroke-width: 0.8"/>
      </defs>
      <g>
       <use xlink:href="#m19345b95fc" x="93.037633" y="529.308125" style="stroke: #000000; stroke-width: 0.8"/>
      </g>
     </g>
     <g id="text_1">
      <text style="font: 10px 'DejaVu Sans', 'Bitstream Vera Sans', 'Computer Modern Sans Serif', 'Lucida Grande', 'Verdana', 'Geneva', 'Lucid', 'Arial', 'Helvetica', 'Avant Garde', sans-serif; text-anchor: middle" x="93.037633" y="543.906563" transform="rotate(-0 93.037633 543.906563)">70</text>
     </g>
    </g>
    <g id="xtick_2">
     <g id="line2d_3">
      <path d="M 201.745536 529.308125 
L 201.745536 23.837812 
" clip-path="url(#pde0655688f)" style="fill: none; stroke: #b0b0b0; stroke-opacity: 0.3; stroke-width: 0.8; stroke-linecap: square"/>
     </g>
     <g id="line2d_4">
      <g>
       <use xlink:href="#m19345b95fc" x="201.745536" y="529.308125" style="stroke: #000000; stroke-width: 0.8"/>
      </g>
     </g>
     <g id="text_2">
      <text style="font: 10px 'DejaVu Sans', 'Bitstream Vera Sans', 'Computer Modern Sans Serif', 'Lucida Grande', 'Verdana', 'Geneva', 'Lucid', 'Arial', 'Helvetica', 'Avant Garde', sans-serif; text-anchor: middle" x="201.745536" y="543.906563" transform="rotate(-0 201.745536 543.906563)">80</text>
     </g>
    </g>
    <g id="xtick_3">
     <g id="line2d_5">
      <path d="M 310.453439 529.308125 
L 310.453439 23.837812 
" clip-path="url(#pde0655688f)" style="fill: none; stroke: #b0b0b0; stroke-opacity: 0.3; stroke-width: 0.8; stroke-linecap: square"/>
     </g>
     <g id="line2d_6">
      <g>
       <use xlink:href="#m19345b95fc" x="310.453439" y="529.308125" style="stroke: #000000; stroke-width: 0.8"/>
      </g>
     </g>
     <g id="text_3">
      <text style="font: 10px 'DejaVu Sans', 'Bitstream Vera Sans', 'Computer Modern Sans Serif', 'Lucida Grande', 'Verdana', 'Geneva', 'Lucid', 'Arial', 'Helvetica', 'Avant Garde', sans-serif; text-anchor: middle" x="310.453439" y="543.906563" transform="rotate(-0 310.453439 543.906563)">90</text>
     </g>
    </g>
    <g id="xtick_4">
     <g id="line2d_7">
      <path d="M 419.161342 529.308125 
L 419.161342 23.837812 
" clip-path="url(#pde0655688f)" style="fill: none; stroke: #b0b0b0; stroke-opacity: 0.3; stroke-width: 0.8; stroke-linecap: square"/>
     </g>
     <g id="line2d_8">
      <g>
       <use xlink:href="#m19345b95fc" x="419.161342" y="529.308125" style="stroke: #000000; stroke-width: 0.8"/>
      </g>
     </g>
     <g id="text_4">
      <text style="font: 10px 'DejaVu Sans', 'Bitstream Vera Sans', 'Computer Modern Sans Serif', 'Lucida Grande', 'Verdana', 'Geneva', 'Lucid', 'Arial', 'Helvetica', 'Avant Garde', sans-serif; text-anchor: middle" x="419.161342" y="543.906563" transform="rotate(-0 419.161342 543.906563)">100</text>
     </g>
    </g>
    <g id="xtick_5">
     <g id="line2d_9">
      <path d="M 527.869245 529.308125 
L 527.869245 23.837812 
" clip-path="url(#pde0655688f)" style="fill: none; stroke: #b0b0b0; stroke-opacity: 0.3; stroke-width: 0.8; stroke-linecap: square"/>
     </g>
     <g id="line2d_10">
      <g>
       <use xlink:href="#m19345b95fc" x="527.869245" y="529.308125" style="stroke: #000000; stroke-width: 0.8"/>
      </g>
     </g>
     <g id="text_5">
      <text style="font: 10px 'DejaVu Sans', 'Bitstream Vera Sans', 'Computer Modern Sans Serif', 'Lucida Grande', 'Verdana', 'Geneva', 'Lucid', 'Arial', 'Helvetica', 'Avant Garde', sans-serif; text-anchor: middle" x="527.869245" y="543.906563" transform="rotate(-0 527.869245 543.906563)">110</text>
     </g>
    </g>
    <g id="xtick_6">
     <g id="line2d_11">
      <path d="M 636.577147 529.308125 
L 636.577147 23.837812 
" clip-path="url(#pde0655688f)" style="fill: none; stroke: #b0b0b0; stroke-opacity: 0.3; stroke-width: 0.8; stroke-linecap: square"/>
     </g>
     <g id="line2d_12">
      <g>
       <use xlink:href="#m19345b95fc" x="636.577147" y="529.308125" style="stroke: #000000; stroke-width: 0.8"/>
      </g>
     </g>
     <g id="text_6">
      <text style="font: 10px 'DejaVu Sans', 'Bitstream Vera Sans', 'Computer Modern Sans Serif', 'Lucida Grande', 'Verdana', 'Geneva', 'Lucid', 'Arial', 'Helvetica', 'Avant Garde', sans-serif; text-anchor: middle" x="636.577147" y="543.906563" transform="rotate(-0 636.577147 543.906563)">120</text>
     </g>
    </g>
    <g id="text_7">
     <text style="font: 12px 'DejaVu Sans', 'Bitstream Vera Sans', 'Computer Modern Sans Serif', 'Lucida Grande', 'Verdana', 'Geneva', 'Lucid', 'Arial', 'Helvetica', 'Avant Garde', sans-serif; text-anchor: middle" x="402.855156" y="559.104375" transform="rotate(-0 402.855156 559.104375)">Build Number</text>
    </g>
   </g>
   <g id="matplotlib.axis_2">
    <g id="ytick_1">
     <g id="line2d_13">
      <defs>
       <path id="m38aeb6e640" d="M 0 0 
L -2 0 
" style="stroke: #000000; stroke-width: 0.6"/>
      </defs>
      <g>
       <use xlink:href="#m38aeb6e640" x="74.01375" y="462.427471" style="stroke: #000000; stroke-width: 0.6"/>
      </g>
     </g>
     <g id="text_8">
      <!-- $\mathdefault{1.4\times10^{2}}$ -->
      <g transform="translate(22.81375 466.22669)">
       <text>
        <tspan style="font: 10px 'DejaVu Sans'" x="0 6.362305 9.541016 17.851562 28.178711 34.541016" y="-0.9765625">1.4×10</tspan>
        <tspan style="font: 7px 'DejaVu Sans'" x="40.999023" y="-4.8046875">2</tspan>
       </text>
      </g>
     </g>
    </g>
    <g id="ytick_2">
     <g id="line2d_14">
      <g>
       <use xlink:href="#m38aeb6e640" x="74.01375" y="344.146328" style="stroke: #000000; stroke-width: 0.6"/>
      </g>
     </g>
     <g id="text_9">
      <!-- $\mathdefault{1.6\times10^{2}}$ -->
      <g transform="translate(22.81375 347.945547)">
       <text>
        <tspan style="font: 10px 'DejaVu Sans'" x="0 6.362305 9.541016 17.851562 28.178711 34.541016" y="-0.9765625">1.6×10</tspan>
        <tspan style="font: 7px 'DejaVu Sans'" x="40.999023" y="-4.8046875">2</tspan>
       </text>
      </g>
     </g>
    </g>
    <g id="ytick_3">
     <g id="line2d_15">
      <g>
       <use xlink:href="#m38aeb6e640" x="74.01375" y="239.814966" style="stroke: #000000; stroke-width: 0.6"/>
      </g>
     </g>
     <g id="text_10">
      <!-- $\mathdefault{1.8\times10^{2}}$ -->
      <g transform="translate(23.11375 243.614185)">
       <text>
        <tspan style="font: 10px 'DejaVu Sans'" x="0 6.362305 9.291016 17.601562 27.928711 34.291016" y="-0.9765625">1.8×10</tspan>
        <tspan style="font: 7px 'DejaVu Sans'" x="40.749023" y="-4.8046875">2</tspan>
       </text>
      </g>
     </g>
    </g>
    <g id="ytick_4">
     <g id="line2d_16">
      <g>
       <use xlink:href="#m38aeb6e640" x="74.01375" y="146.487383" style="stroke: #000000; stroke-width: 0.6"/>
      </g>
     </g>
     <g id="text_11">
      <!-- $\mathdefault{2\times10^{2}}$ -->
      <g transform="translate(32.41375 150.286601)">
       <text>
        <tspan style="font: 10px 'DejaVu Sans'" x="0 8.310547 18.637695 25" y="-0.9765625">2×10</tspan>
        <tspan style="font: 7px 'DejaVu Sans'" x="31.458008" y="-4.8046875">2</tspan>
       </text>
      </g>
     </g>
    </g>
    <g id="ytick_5">
     <g id="line2d_17">
      <g>
       <use xlink:href="#m38aeb6e640" x="74.01375" y="62.062314" style="stroke: #000000; stroke-width: 0.6"/>
      </g>
     </g>
     <g id="text_12">
      <!-- $\mathdefault{2.2\times10^{2}}$ -->
      <g transform="translate(23.41375 65.861533)">
       <text>
        <tspan style="font: 10px 'DejaVu Sans'" x="0 6.362305 9.041016 17.351562 27.678711 34.041016" y="-0.9765625">2.2×10</tspan>
        <tspan style="font: 7px 'DejaVu Sans'" x="40.499023" y="-4.8046875">2</tspan>
       </text>
      </g>
     </g>
    </g>
    <g id="text_13">
     <text style="font: 12px 'DejaVu Sans', 'Bitstream Vera Sans', 'Computer Modern Sans Serif', 'Lucida Grande', 'Verdana', 'Geneva', 'Lucid', 'Arial', 'Helvetica', 'Avant Garde', sans-serif; text-anchor: middle" x="16.318125" y="276.572969" transform="rotate(-90 16.318125 276.572969)">Median Elapsed Time (nanoseconds)</text>
    </g>
   </g>
   <g id="line2d_18">
    <path d="M 103.908423 127.107182 
L 114.779214 118.199928 
L 125.650004 177.770346 
L 136.520794 120.404631 
L 147.391584 123.405807 
L 158.262375 69.33952 
L 169.133165 72.145045 
L 180.003955 176.853186 
L 190.874746 123.794246 
L 201.745536 170.914684 
L 212.616326 66.461923 
L 223.487116 124.658055 
L 234.357907 126.82127 
L 256.099487 122.931279 
L 266.970278 126.388204 
L 288.711858 194.443713 
L 299.582649 58.40591 
L 310.453439 51.973631 
L 321.324229 125.133509 
L 332.195019 172.737679 
L 353.9366 68.081955 
L 364.80739 127.297887 
L 375.678181 121.638402 
L 386.548971 70.517572 
L 408.290551 128.165121 
L 419.161342 184.26341 
L 430.032132 174.153085 
L 440.902922 124.658055 
L 451.773713 125.565962 
L 462.644503 69.298926 
L 473.515293 107.449267 
L 484.386083 125.133509 
L 506.127664 128.555654 
L 516.998454 64.037416 
L 527.869245 64.037416 
L 549.610825 61.217188 
L 582.223196 119.917497 
L 593.093986 123.405807 
L 603.964777 176.394962 
L 614.835567 176.394962 
L 625.706357 60.81503 
L 636.577147 168.641204 
L 647.447938 67.717189 
L 658.318728 131.642573 
L 669.189518 126.16805 
L 680.060309 83.663116 
L 701.801889 121.250907 
" clip-path="url(#pde0655688f)" style="fill: none; stroke: #1f77b4; stroke-width: 2; stroke-linecap: square"/>
    <defs>
     <path id="m25efa33754" d="M 0 3 
C 0.795609 3 1.55874 2.683901 2.12132 2.12132 
C 2.683901 1.55874 3 0.795609 3 0 
C 3 -0.795609 2.683901 -1.55874 2.12132 -2.12132 
C 1.55874 -2.683901 0.795609 -3 0 -3 
C -0.795609 -3 -1.55874 -2.683901 -2.12132 -2.12132 
C -2.683901 -1.55874 -3 -0.795609 -3 0 
C -3 0.795609 -2.683901 1.55874 -2.12132 2.12132 
C -1.55874 2.683901 -0.795609 3 0 3 
z
" style="stroke: #1f77b4"/>
    </defs>
    <g clip-path="url(#pde0655688f)">
     <use xlink:href="#m25efa33754" x="103.908423" y="127.107182" style="fill: #1f77b4; stroke: #1f77b4"/>
     <use xlink:href="#m25efa33754" x="114.779214" y="118.199928" style="fill: #1f77b4; stroke: #1f77b4"/>
     <use xlink:href="#m25efa33754" x="125.650004" y="177.770346" style="fill: #1f77b4; stroke: #1f77b4"/>
     <use xlink:href="#m25efa33754" x="136.520794" y="120.404631" style="fill: #1f77b4; stroke: #1f77b4"/>
     <use xlink:href="#m25efa33754" x="147.391584" y="123.405807" style="fill: #1f77b4; stroke: #1f77b4"/>
     <use xlink:href="#m25efa33754" x="158.262375" y="69.33952" style="fill: #1f77b4; stroke: #1f77b4"/>
     <use xlink:href="#m25efa33754" x="169.133165" y="72.145045" style="fill: #1f77b4; stroke: #1f77b4"/>
     <use xlink:href="#m25efa33754" x="180.003955" y="176.853186" style="fill: #1f77b4; stroke: #1f77b4"/>
     <use xlink:href="#m25efa33754" x="190.874746" y="123.794246" style="fill: #1f77b4; stroke: #1f77b4"/>
     <use xlink:href="#m25efa33754" x="201.745536" y="170.914684" style="fill: #1f77b4; stroke: #1f77b4"/>
     <use xlink:href="#m25efa33754" x="212.616326" y="66.461923" style="fill: #1f77b4; stroke: #1f77b4"/>
     <use xlink:href="#m25efa33754" x="223.487116" y="124.658055" style="fill: #1f77b4; stroke: #1f77b4"/>
     <use xlink:href="#m25efa33754" x="234.357907" y="126.82127" style="fill: #1f77b4; stroke: #1f77b4"/>
     <use xlink:href="#m25efa33754" x="256.099487" y="122.931279" style="fill: #1f77b4; stroke: #1f77b4"/>
     <use xlink:href="#m25efa33754" x="266.970278" y="126.388204" style="fill: #1f77b4; stroke: #1f77b4"/>
     <use xlink:href="#m25efa33754" x="288.711858" y="194.443713" style="fill: #1f77b4; stroke: #1f77b4"/>
     <use xlink:href="#m25efa33754" x="299.582649" y="58.40591" style="fill: #1f77b4; stroke: #1f77b4"/>
     <use xlink:href="#m25efa33754" x="310.453439" y="51.973631" style="fill: #1f77b4; stroke: #1f77b4"/>
     <use xlink:href="#m25efa33754" x="321.324229" y="125.133509" style="fill: #1f77b4; stroke: #1f77b4"/>
     <use xlink:href="#m25efa33754" x="332.195019" y="172.737679" style="fill: #1f77b4; stroke: #1f77b4"/>
     <use xlink:href="#m25efa33754" x="353.9366" y="68.081955" style="fill: #1f77b4; stroke: #1f77b4"/>
     <use xlink:href="#m25efa33754" x="364.80739" y="127.297887" style="fill: #1f77b4; stroke: #1f77b4"/>
     <use xlink:href="#m25efa33754" x="375.678181" y="121.638402" style="fill: #1f77b4; stroke: #1f77b4"/>
     <use xlink:href="#m25efa33754" x="386.548971" y="70.517572" style="fill: #1f77b4; stroke: #1f77b4"/>
     <use xlink:href="#m25efa33754" x="408.290551" y="128.165121" style="fill: #1f77b4; stroke: #1f77b4"/>
     <use xlink:href="#m25efa33754" x="419.161342" y="184.26341" style="fill: #1f77b4; stroke: #1f77b4"/>
     <use xlink:href="#m25efa33754" x="430.032132" y="174.153085" style="fill: #1f77b4; stroke: #1f77b4"/>
     <use xlink:href="#m25efa33754" x="440.902922" y="124.658055" style="fill: #1f77b4; stroke: #1f77b4"/>
     <use xlink:href="#m25efa33754" x="451.773713" y="125.565962" style="fill: #1f77b4; stroke: #1f77b4"/>
     <use xlink:href="#m25efa33754" x="462.644503" y="69.298926" style="fill: #1f77b4; stroke: #1f77b4"/>
     <use xlink:href="#m25efa33754" x="473.515293" y="107.449267" style="fill: #1f77b4; stroke: #1f77b4"/>
     <use xlink:href="#m25efa33754" x="484.386083" y="125.133509" style="fill: #1f77b4; stroke: #1f77b4"/>
     <use xlink:href="#m25efa33754" x="506.127664" y="128.555654" style="fill: #1f77b4; stroke: #1f77b4"/>
     <use xlink:href="#m25efa33754" x="516.998454" y="64.037416" style="fill: #1f77b4; stroke: #1f77b4"/>
     <use xlink:href="#m25efa33754" x="527.869245" y="64.037416" style="fill: #1f77b4; stroke: #1f77b4"/>
     <use xlink:href="#m25efa33754" x="549.610825" y="61.217188" style="fill: #1f77b4; stroke: #1f77b4"/>
     <use xlink:href="#m25efa33754" x="582.223196" y="119.917497" style="fill: #1f77b4; stroke: #1f77b4"/>
     <use xlink:href="#m25efa33754" x="593.093986" y="123.405807" style="fill: #1f77b4; stroke: #1f77b4"/>
     <use xlink:href="#m25efa33754" x="603.964777" y="176.394962" style="fill: #1f77b4; stroke: #1f77b4"/>
     <use xlink:href="#m25efa33754" x="614.835567" y="176.394962" style="fill: #1f77b4; stroke: #1f77b4"/>
     <use xlink:href="#m25efa33754" x="625.706357" y="60.81503" style="fill: #1f77b4; stroke: #1f77b4"/>
     <use xlink:href="#m25efa33754" x="636.577147" y="168.641204" style="fill: #1f77b4; stroke: #1f77b4"/>
     <use xlink:href="#m25efa33754" x="647.447938" y="67.717189" style="fill: #1f77b4; stroke: #1f77b4"/>
     <use xlink:href="#m25efa33754" x="658.318728" y="131.642573" style="fill: #1f77b4; stroke: #1f77b4"/>
     <use xlink:href="#m25efa33754" x="669.189518" y="126.16805" style="fill: #1f77b4; stroke: #1f77b4"/>
     <use xlink:href="#m25efa33754" x="680.060309" y="83.663116" style="fill: #1f77b4; stroke: #1f77b4"/>
     <use xlink:href="#m25efa33754" x="701.801889" y="121.250907" style="fill: #1f77b4; stroke: #1f77b4"/>
    </g>
   </g>
   <g id="line2d_19">
    <path d="M 103.908423 124.269237 
L 114.779214 118.122595 
L 125.650004 121.681468 
L 136.520794 67.271568 
L 147.391584 111.788545 
L 158.262375 163.16341 
L 169.133165 172.97814 
L 180.003955 111.788545 
L 190.874746 119.752177 
L 201.745536 53.208519 
L 212.616326 46.813736 
L 223.487116 165.875438 
L 234.357907 60.372867 
L 245.228697 129.033205 
L 256.099487 163.614838 
L 266.970278 170.122154 
L 288.711858 61.579286 
L 299.582649 174.107391 
L 310.453439 62.424758 
L 321.324229 115.244927 
L 332.195019 169.504439 
L 343.06581 126.431501 
L 353.9366 165.422856 
L 364.80739 177.311647 
L 375.678181 113.493715 
L 386.548971 122.112238 
L 408.290551 112.266349 
L 419.161342 175.479225 
L 430.032132 63.23072 
L 440.902922 57.203802 
L 451.773713 116.913934 
L 462.644503 169.05 
L 473.515293 54.804471 
L 484.386083 157.315681 
L 506.127664 128.165121 
L 516.998454 157.764138 
L 527.869245 124.701268 
L 538.740035 113.770814 
L 549.610825 169.959112 
L 571.352406 54.405213 
L 582.223196 163.614838 
L 593.093986 124.269237 
L 603.964777 165.01573 
L 614.835567 59.5695 
L 625.706357 128.989781 
L 636.577147 125.090276 
L 647.447938 111.788545 
L 658.318728 506.332202 
L 669.189518 166.826612 
L 680.060309 180.527537 
" clip-path="url(#pde0655688f)" style="fill: none; stroke: #ff7f0e; stroke-width: 2; stroke-linecap: square"/>
    <defs>
     <path id="m178c385ebd" d="M 0 3 
C 0.795609 3 1.55874 2.683901 2.12132 2.12132 
C 2.683901 1.55874 3 0.795609 3 0 
C 3 -0.795609 2.683901 -1.55874 2.12132 -2.12132 
C 1.55874 -2.683901 0.795609 -3 0 -3 
C -0.795609 -3 -1.55874 -2.683901 -2.12132 -2.12132 
C -2.683901 -1.55874 -3 -0.795609 -3 0 
C -3 0.795609 -2.683901 1.55874 -2.12132 2.12132 
C -1.55874 2.683901 -0.795609 3 0 3 
z
" style="stroke: #ff7f0e"/>
    </defs>
    <g clip-path="url(#pde0655688f)">
     <use xlink:href="#m178c385ebd" x="103.908423" y="124.269237" style="fill: #ff7f0e; stroke: #ff7f0e"/>
     <use xlink:href="#m178c385ebd" x="114.779214" y="118.122595" style="fill: #ff7f0e; stroke: #ff7f0e"/>
     <use xlink:href="#m178c385ebd" x="125.650004" y="121.681468" style="fill: #ff7f0e; stroke: #ff7f0e"/>
     <use xlink:href="#m178c385ebd" x="136.520794" y="67.271568" style="fill: #ff7f0e; stroke: #ff7f0e"/>
     <use xlink:href="#m178c385ebd" x="147.391584" y="111.788545" style="fill: #ff7f0e; stroke: #ff7f0e"/>
     <use xlink:href="#m178c385ebd" x="158.262375" y="163.16341" style="fill: #ff7f0e; stroke: #ff7f0e"/>
     <use xlink:href="#m178c385ebd" x="169.133165" y="172.97814" style="fill: #ff7f0e; stroke: #ff7f0e"/>
     <use xlink:href="#m178c385ebd" x="180.003955" y="111.788545" style="fill: #ff7f0e; stroke: #ff7f0e"/>
     <use xlink:href="#m178c385ebd" x="190.874746" y="119.752177" style="fill: #ff7f0e; stroke: #ff7f0e"/>
     <use xlink:href="#m178c385ebd" x="201.745536" y="53.208519" style="fill: #ff7f0e; stroke: #ff7f0e"/>
     <use xlink:href="#m178c385ebd" x="212.616326" y="46.813736" style="fill: #ff7f0e; stroke: #ff7f0e"/>
     <use xlink:href="#m178c385ebd" x="223.487116" y="165.875438" style="fill: #ff7f0e; stroke: #ff7f0e"/>
     <use xlink:href="#m178c385ebd" x="234.357907" y="60.372867" style="fill: #ff7f0e; stroke: #ff7f0e"/>
     <use xlink:href="#m178c385ebd" x="245.228697" y="129.033205" style="fill: #ff7f0e; stroke: #ff7f0e"/>
     <use xlink:href="#m178c385ebd" x="256.099487" y="163.614838" style="fill: #ff7f0e; stroke: #ff7f0e"/>
     <use xlink:href="#m178c385ebd" x="266.970278" y="170.122154" style="fill: #ff7f0e; stroke: #ff7f0e"/>
     <use xlink:href="#m178c385ebd" x="288.711858" y="61.579286" style="fill: #ff7f0e; stroke: #ff7f0e"/>
     <use xlink:href="#m178c385ebd" x="299.582649" y="174.107391" style="fill: #ff7f0e; stroke: #ff7f0e"/>
     <use xlink:href="#m178c385ebd" x="310.453439" y="62.424758" style="fill: #ff7f0e; stroke: #ff7f0e"/>
     <use xlink:href="#m178c385ebd" x="321.324229" y="115.244927" style="fill: #ff7f0e; stroke: #ff7f0e"/>
     <use xlink:href="#m178c385ebd" x="332.195019" y="169.504439" style="fill: #ff7f0e; stroke: #ff7f0e"/>
     <use xlink:href="#m178c385ebd" x="343.06581" y="126.431501" style="fill: #ff7f0e; stroke: #ff7f0e"/>
     <use xlink:href="#m178c385ebd" x="353.9366" y="165.422856" style="fill: #ff7f0e; stroke: #ff7f0e"/>
     <use xlink:href="#m178c385ebd" x="364.80739" y="177.311647" style="fill: #ff7f0e; stroke: #ff7f0e"/>
     <use xlink:href="#m178c385ebd" x="375.678181" y="113.493715" style="fill: #ff7f0e; stroke: #ff7f0e"/>
     <use xlink:href="#m178c385ebd" x="386.548971" y="122.112238" style="fill: #ff7f0e; stroke: #ff7f0e"/>
     <use xlink:href="#m178c385ebd" x="408.290551" y="112.266349" style="fill: #ff7f0e; stroke: #ff7f0e"/>
     <use xlink:href="#m178c385ebd" x="419.161342" y="175.479225" style="fill: #ff7f0e; stroke: #ff7f0e"/>
     <use xlink:href="#m178c385ebd" x="430.032132" y="63.23072" style="fill: #ff7f0e; stroke: #ff7f0e"/>
     <use xlink:href="#m178c385ebd" x="440.902922" y="57.203802" style="fill: #ff7f0e; stroke: #ff7f0e"/>
     <use xlink:href="#m178c385ebd" x="451.773713" y="116.913934" style="fill: #ff7f0e; stroke: #ff7f0e"/>
     <use xlink:href="#m178c385ebd" x="462.644503" y="169.05" style="fill: #ff7f0e; stroke: #ff7f0e"/>
     <use xlink:href="#m178c385ebd" x="473.515293" y="54.804471" style="fill: #ff7f0e; stroke: #ff7f0e"/>
     <use xlink:href="#m178c385ebd" x="484.386083" y="157.315681" style="fill: #ff7f0e; stroke: #ff7f0e"/>
     <use xlink:href="#m178c385ebd" x="506.127664" y="128.165121" style="fill: #ff7f0e; stroke: #ff7f0e"/>
     <use xlink:href="#m178c385ebd" x="516.998454" y="157.764138" style="fill: #ff7f0e; stroke: #ff7f0e"/>
     <use xlink:href="#m178c385ebd" x="527.869245" y="124.701268" style="fill: #ff7f0e; stroke: #ff7f0e"/>
     <use xlink:href="#m178c385ebd" x="538.740035" y="113.770814" style="fill: #ff7f0e; stroke: #ff7f0e"/>
     <use xlink:href="#m178c385ebd" x="549.610825" y="169.959112" style="fill: #ff7f0e; stroke: #ff7f0e"/>
     <use xlink:href="#m178c385ebd" x="571.352406" y="54.405213" style="fill: #ff7f0e; stroke: #ff7f0e"/>
     <use xlink:href="#m178c385ebd" x="582.223196" y="163.614838" style="fill: #ff7f0e; stroke: #ff7f0e"/>
     <use xlink:href="#m178c385ebd" x="593.093986" y="124.269237" style="fill: #ff7f0e; stroke: #ff7f0e"/>
     <use xlink:href="#m178c385ebd" x="603.964777" y="165.01573" style="fill: #ff7f0e; stroke: #ff7f0e"/>
     <use xlink:href="#m178c385ebd" x="614.835567" y="59.5695" style="fill: #ff7f0e; stroke: #ff7f0e"/>
     <use xlink:href="#m178c385ebd" x="625.706357" y="128.989781" style="fill: #ff7f0e; stroke: #ff7f0e"/>
     <use xlink:href="#m178c385ebd" x="636.577147" y="125.090276" style="fill: #ff7f0e; stroke: #ff7f0e"/>
     <use xlink:href="#m178c385ebd" x="647.447938" y="111.788545" style="fill: #ff7f0e; stroke: #ff7f0e"/>
     <use xlink:href="#m178c385ebd" x="658.318728" y="506.332202" style="fill: #ff7f0e; stroke: #ff7f0e"/>
     <use xlink:href="#m178c385ebd" x="669.189518" y="166.826612" style="fill: #ff7f0e; stroke: #ff7f0e"/>
     <use xlink:href="#m178c385ebd" x="680.060309" y="180.527537" style="fill: #ff7f0e; stroke: #ff7f0e"/>
    </g>
   </g>
   <g id="patch_3">
    <path d="M 74.01375 529.308125 
L 74.01375 23.837813 
" style="fill: none; stroke: #000000; stroke-width: 0.8; stroke-linejoin: miter; stroke-linecap: square"/>
   </g>
   <g id="patch_4">
    <path d="M 731.696563 529.308125 
L 731.696563 23.837813 
" style="fill: none; stroke: #000000; stroke-width: 0.8; stroke-linejoin: miter; stroke-linecap: square"/>
   </g>
   <g id="patch_5">
    <path d="M 74.01375 529.308125 
L 731.696562 529.308125 
" style="fill: none; stroke: #000000; stroke-width: 0.8; stroke-linejoin: miter; stroke-linecap: square"/>
   </g>
   <g id="patch_6">
    <path d="M 74.01375 23.837812 
L 731.696562 23.837812 
" style="fill: none; stroke: #000000; stroke-width: 0.8; stroke-linejoin: miter; stroke-linecap: square"/>
   </g>
   <g id="text_14">
    <text style="font: 700 14px 'DejaVu Sans', 'Bitstream Vera Sans', 'Computer Modern Sans Serif', 'Lucida Grande', 'Verdana', 'Geneva', 'Lucid', 'Arial', 'Helvetica', 'Avant Garde', sans-serif; text-anchor: middle" x="402.855156" y="17.837813" transform="rotate(-0 402.855156 17.837813)">Coalescing Arena Alloc Dealloc - Performance Trend</text>
   </g>
   <g id="legend_1">
    <g id="patch_7">
     <path d="M 771.580703 61.194063 
L 847.004141 61.194063 
Q 849.004141 61.194063 849.004141 59.194063 
L 849.004141 30.837813 
Q 849.004141 28.837813 847.004141 28.837813 
L 771.580703 28.837813 
Q 769.580703 28.837813 769.580703 30.837813 
L 769.580703 59.194063 
Q 769.580703 61.194063 771.580703 61.194063 
z
" style="fill: #ffffff; opacity: 0.8; stroke: #cccccc; stroke-linejoin: miter"/>
    </g>
    <g id="line2d_20">
     <path d="M 773.580703 36.93625 
L 783.580703 36.93625 
L 793.580703 36.93625 
" style="fill: none; stroke: #1f77b4; stroke-width: 2; stroke-linecap: square"/>
     <g>
      <use xlink:href="#m25efa33754" x="783.580703" y="36.93625" style="fill: #1f77b4; stroke: #1f77b4"/>
     </g>
    </g>
    <g id="text_15">
     <text style="font: 10px 'DejaVu Sans', 'Bitstream Vera Sans', 'Computer Modern Sans Serif', 'Lucida Grande', 'Verdana', 'Geneva', 'Lucid', 'Arial', 'Helvetica', 'Avant Garde', sans-serif; text-anchor: start" x="801.580703" y="40.43625" transform="rotate(-0 801.580703 40.43625)">clang-18</text>
    </g>
    <g id="line2d_21">
     <path d="M 773.580703 51.614375 
L 783.580703 51.614375 
L 793.580703 51.614375 
" style="fill: none; stroke: #ff7f0e; stroke-width: 2; stroke-linecap: square"/>
     <g>
      <use xlink:href="#m178c385ebd" x="783.580703" y="51.614375" style="fill: #ff7f0e; stroke: #ff7f0e"/>
     </g>
    </g>
    <g id="text_16">
     <text style="font: 10px 'DejaVu Sans', 'Bitstream Vera Sans', 'Computer Modern Sans Serif', 'Lucida Grande', 'Verdana', 'Geneva', 'Lucid', 'Arial', 'Helvetica', 'Avant Garde', sans-serif; text-anchor: start" x="801.580703" y="55.114375" transform="rotate(-0 801.580703 55.114375)">gcc-14</text>
    </g>
   </g>
  </g>
 </g>
 <defs>
  <clipPath id="pde0655688f">
   <rect x="74.01375" y="23.837813" width="657.682812" height="505.470313"/>
  </clipPath>
 </defs>
</svg>
