<?xml version="1.0" encoding="utf-8" standalone="no"?>
<!DOCTYPE svg PUBLIC "-//W3C//DTD SVG 1.1//EN"
  "http://www.w3.org/Graphics/SVG/1.1/DTD/svg11.dtd">
<svg xmlns:xlink="http://www.w3.org/1999/xlink" width="855.204687pt" height="568.8pt" viewBox="0 0 855.204687 568.8" xmlns="http://www.w3.org/2000/svg" version="1.1">
 <metadata>
  <rdf:RDF xmlns:dc="http://purl.org/dc/elements/1.1/" xmlns:cc="http://creativecommons.org/ns#" xmlns:rdf="http://www.w3.org/1999/02/22-rdf-syntax-ns#">
   <cc:Work>
    <dc:type rdf:resource="http://purl.org/dc/dcmitype/StillImage"/>
    <dc:date>2025-08-22T17:17:15.223813</dc:date>
    <dc:format>image/svg+xml</dc:format>
    <dc:creator>
     <cc:Agent>
      <dc:title>Matplotlib v3.9.4, https://matplotlib.org/</dc:title>
     </cc:Agent>
    </dc:creator>
   </cc:Work>
  </rdf:RDF>
 </metadata>
 <defs>
  <style type="text/css">*{stroke-linejoin: round; stroke-linecap: butt}</style>
 </defs>
 <g id="figure_1">
  <g id="patch_1">
   <path d="M 0 568.8 
L 855.204687 568.8 
L 855.204687 0 
L 0 0 
z
" style="fill: #ffffff"/>
  </g>
  <g id="axes_1">
   <g id="patch_2">
    <path d="M 64.41375 529.308125 
L 702.1075 529.308125 
L 702.1075 23.837812 
L 64.41375 23.837812 
z
" style="fill: #ffffff"/>
   </g>
   <g id="matplotlib.axis_1">
    <g id="xtick_1">
     <g id="line2d_1">
      <path d="M 74.699133 529.308125 
L 74.699133 23.837812 
" clip-path="url(#paf0c1d3d10)" style="fill: none; stroke: #b0b0b0; stroke-opacity: 0.3; stroke-width: 0.8; stroke-linecap: square"/>
     </g>
     <g id="line2d_2">
      <defs>
       <path id="ma651be809e" d="M 0 0 
L 0 3.5 
" style="stroke: #000000; stroke-width: 0.8"/>
      </defs>
      <g>
       <use xlink:href="#ma651be809e" x="74.699133" y="529.308125" style="stroke: #000000; stroke-width: 0.8"/>
      </g>
     </g>
     <g id="text_1">
      <text style="font: 10px 'DejaVu Sans', 'Bitstream Vera Sans', 'Computer Modern Sans Serif', 'Lucida Grande', 'Verdana', 'Geneva', 'Lucid', 'Arial', 'Helvetica', 'Avant Garde', sans-serif; text-anchor: middle" x="74.699133" y="543.906563" transform="rotate(-0 74.699133 543.906563)">70</text>
     </g>
    </g>
    <g id="xtick_2">
     <g id="line2d_3">
      <path d="M 168.202615 529.308125 
L 168.202615 23.837812 
" clip-path="url(#paf0c1d3d10)" style="fill: none; stroke: #b0b0b0; stroke-opacity: 0.3; stroke-width: 0.8; stroke-linecap: square"/>
     </g>
     <g id="line2d_4">
      <g>
       <use xlink:href="#ma651be809e" x="168.202615" y="529.308125" style="stroke: #000000; stroke-width: 0.8"/>
      </g>
     </g>
     <g id="text_2">
      <text style="font: 10px 'DejaVu Sans', 'Bitstream Vera Sans', 'Computer Modern Sans Serif', 'Lucida Grande', 'Verdana', 'Geneva', 'Lucid', 'Arial', 'Helvetica', 'Avant Garde', sans-serif; text-anchor: middle" x="168.202615" y="543.906563" transform="rotate(-0 168.202615 543.906563)">75</text>
     </g>
    </g>
    <g id="xtick_3">
     <g id="line2d_5">
      <path d="M 261.706098 529.308125 
L 261.706098 23.837812 
" clip-path="url(#paf0c1d3d10)" style="fill: none; stroke: #b0b0b0; stroke-opacity: 0.3; stroke-width: 0.8; stroke-linecap: square"/>
     </g>
     <g id="line2d_6">
      <g>
       <use xlink:href="#ma651be809e" x="261.706098" y="529.308125" style="stroke: #000000; stroke-width: 0.8"/>
      </g>
     </g>
     <g id="text_3">
      <text style="font: 10px 'DejaVu Sans', 'Bitstream Vera Sans', 'Computer Modern Sans Serif', 'Lucida Grande', 'Verdana', 'Geneva', 'Lucid', 'Arial', 'Helvetica', 'Avant Garde', sans-serif; text-anchor: middle" x="261.706098" y="543.906563" transform="rotate(-0 261.706098 543.906563)">80</text>
     </g>
    </g>
    <g id="xtick_4">
     <g id="line2d_7">
      <path d="M 355.20958 529.308125 
L 355.20958 23.837812 
" clip-path="url(#paf0c1d3d10)" style="fill: none; stroke: #b0b0b0; stroke-opacity: 0.3; stroke-width: 0.8; stroke-linecap: square"/>
     </g>
     <g id="line2d_8">
      <g>
       <use xlink:href="#ma651be809e" x="355.20958" y="529.308125" style="stroke: #000000; stroke-width: 0.8"/>
      </g>
     </g>
     <g id="text_4">
      <text style="font: 10px 'DejaVu Sans', 'Bitstream Vera Sans', 'Computer Modern Sans Serif', 'Lucida Grande', 'Verdana', 'Geneva', 'Lucid', 'Arial', 'Helvetica', 'Avant Garde', sans-serif; text-anchor: middle" x="355.20958" y="543.906563" transform="rotate(-0 355.20958 543.906563)">85</text>
     </g>
    </g>
    <g id="xtick_5">
     <g id="line2d_9">
      <path d="M 448.713063 529.308125 
L 448.713063 23.837812 
" clip-path="url(#paf0c1d3d10)" style="fill: none; stroke: #b0b0b0; stroke-opacity: 0.3; stroke-width: 0.8; stroke-linecap: square"/>
     </g>
     <g id="line2d_10">
      <g>
       <use xlink:href="#ma651be809e" x="448.713063" y="529.308125" style="stroke: #000000; stroke-width: 0.8"/>
      </g>
     </g>
     <g id="text_5">
      <text style="font: 10px 'DejaVu Sans', 'Bitstream Vera Sans', 'Computer Modern Sans Serif', 'Lucida Grande', 'Verdana', 'Geneva', 'Lucid', 'Arial', 'Helvetica', 'Avant Garde', sans-serif; text-anchor: middle" x="448.713063" y="543.906563" transform="rotate(-0 448.713063 543.906563)">90</text>
     </g>
    </g>
    <g id="xtick_6">
     <g id="line2d_11">
      <path d="M 542.216545 529.308125 
L 542.216545 23.837812 
" clip-path="url(#paf0c1d3d10)" style="fill: none; stroke: #b0b0b0; stroke-opacity: 0.3; stroke-width: 0.8; stroke-linecap: square"/>
     </g>
     <g id="line2d_12">
      <g>
       <use xlink:href="#ma651be809e" x="542.216545" y="529.308125" style="stroke: #000000; stroke-width: 0.8"/>
      </g>
     </g>
     <g id="text_6">
      <text style="font: 10px 'DejaVu Sans', 'Bitstream Vera Sans', 'Computer Modern Sans Serif', 'Lucida Grande', 'Verdana', 'Geneva', 'Lucid', 'Arial', 'Helvetica', 'Avant Garde', sans-serif; text-anchor: middle" x="542.216545" y="543.906563" transform="rotate(-0 542.216545 543.906563)">95</text>
     </g>
    </g>
    <g id="xtick_7">
     <g id="line2d_13">
      <path d="M 635.720027 529.308125 
L 635.720027 23.837812 
" clip-path="url(#paf0c1d3d10)" style="fill: none; stroke: #b0b0b0; stroke-opacity: 0.3; stroke-width: 0.8; stroke-linecap: square"/>
     </g>
     <g id="line2d_14">
      <g>
       <use xlink:href="#ma651be809e" x="635.720027" y="529.308125" style="stroke: #000000; stroke-width: 0.8"/>
      </g>
     </g>
     <g id="text_7">
      <text style="font: 10px 'DejaVu Sans', 'Bitstream Vera Sans', 'Computer Modern Sans Serif', 'Lucida Grande', 'Verdana', 'Geneva', 'Lucid', 'Arial', 'Helvetica', 'Avant Garde', sans-serif; text-anchor: middle" x="635.720027" y="543.906563" transform="rotate(-0 635.720027 543.906563)">100</text>
     </g>
    </g>
    <g id="text_8">
     <text style="font: 12px 'DejaVu Sans', 'Bitstream Vera Sans', 'Computer Modern Sans Serif', 'Lucida Grande', 'Verdana', 'Geneva', 'Lucid', 'Arial', 'Helvetica', 'Avant Garde', sans-serif; text-anchor: middle" x="383.260625" y="559.104375" transform="rotate(-0 383.260625 559.104375)">Build Number</text>
    </g>
   </g>
   <g id="matplotlib.axis_2">
    <g id="ytick_1">
     <g id="line2d_15">
      <path d="M 64.41375 453.786204 
L 702.1075 453.786204 
" clip-path="url(#paf0c1d3d10)" style="fill: none; stroke: #b0b0b0; stroke-opacity: 0.3; stroke-width: 0.8; stroke-linecap: square"/>
     </g>
     <g id="line2d_16">
      <defs>
       <path id="mca0ff6f784" d="M 0 0 
L -3.5 0 
" style="stroke: #000000; stroke-width: 0.8"/>
      </defs>
      <g>
       <use xlink:href="#mca0ff6f784" x="64.41375" y="453.786204" style="stroke: #000000; stroke-width: 0.8"/>
      </g>
     </g>
     <g id="text_9">
      <!-- $\mathdefault{10^{5}}$ -->
      <g transform="translate(39.81375 457.585423)">
       <text>
        <tspan style="font: 10px 'DejaVu Sans'" x="0 6.362305" y="-0.06406250000000036">10</tspan>
        <tspan style="font: 7px 'DejaVu Sans'" x="12.820312" y="-3.8921875000000004">5</tspan>
       </text>
      </g>
     </g>
    </g>
    <g id="ytick_2">
     <g id="line2d_17">
      <defs>
       <path id="mf3277041d8" d="M 0 0 
L -2 0 
" style="stroke: #000000; stroke-width: 0.6"/>
      </defs>
      <g>
       <use xlink:href="#mf3277041d8" x="64.41375" y="496.873642" style="stroke: #000000; stroke-width: 0.6"/>
      </g>
     </g>
    </g>
    <g id="ytick_3">
     <g id="line2d_18">
      <g>
       <use xlink:href="#mf3277041d8" x="64.41375" y="170.321985" style="stroke: #000000; stroke-width: 0.6"/>
      </g>
     </g>
     <g id="text_10">
      <!-- $\mathdefault{2\times10^{5}}$ -->
      <g transform="translate(22.81375 174.121204)">
       <text>
        <tspan style="font: 10px 'DejaVu Sans'" x="0 8.310547 18.637695 25" y="-0.06406250000000036">2×10</tspan>
        <tspan style="font: 7px 'DejaVu Sans'" x="31.458008" y="-3.8921875000000004">5</tspan>
       </text>
      </g>
     </g>
    </g>
    <g id="text_11">
     <text style="font: 12px 'DejaVu Sans', 'Bitstream Vera Sans', 'Computer Modern Sans Serif', 'Lucida Grande', 'Verdana', 'Geneva', 'Lucid', 'Arial', 'Helvetica', 'Avant Garde', sans-serif; text-anchor: middle" x="16.318125" y="276.572969" transform="rotate(-90 16.318125 276.572969)">Median Elapsed Time (nanoseconds)</text>
    </g>
   </g>
   <g id="line2d_19">
    <path d="M 93.39983 358.594402 
L 112.100526 83.393181 
L 130.801223 220.76105 
L 149.501919 331.184044 
L 168.202615 228.639233 
L 186.903312 318.546856 
L 205.604008 271.249317 
L 224.304705 112.928166 
L 243.005401 300.433378 
L 261.706098 288.178339 
L 280.406794 314.544957 
L 299.107491 271.473142 
L 317.808187 355.083876 
L 336.508884 289.902078 
L 355.20958 324.935545 
L 373.910277 310.91823 
L 411.31167 46.813736 
L 430.012366 298.535776 
L 448.713063 272.004793 
L 467.413759 264.733822 
L 486.114456 300.821441 
L 504.815152 315.773402 
L 523.515849 320.378392 
L 542.216545 300.841979 
L 560.917242 296.635402 
L 579.617938 282.449221 
L 617.019331 284.389929 
L 635.720027 256.561491 
L 654.420724 311.509364 
L 673.12142 291.407878 
" clip-path="url(#paf0c1d3d10)" style="fill: none; stroke: #1f77b4; stroke-width: 2; stroke-linecap: square"/>
    <defs>
     <path id="mad08fc7ff8" d="M 0 3 
C 0.795609 3 1.55874 2.683901 2.12132 2.12132 
C 2.683901 1.55874 3 0.795609 3 0 
C 3 -0.795609 2.683901 -1.55874 2.12132 -2.12132 
C 1.55874 -2.683901 0.795609 -3 0 -3 
C -0.795609 -3 -1.55874 -2.683901 -2.12132 -2.12132 
C -2.683901 -1.55874 -3 -0.795609 -3 0 
C -3 0.795609 -2.683901 1.55874 -2.12132 2.12132 
C -1.55874 2.683901 -0.795609 3 0 3 
z
" style="stroke: #1f77b4"/>
    </defs>
    <g clip-path="url(#paf0c1d3d10)">
     <use xlink:href="#mad08fc7ff8" x="93.39983" y="358.594402" style="fill: #1f77b4; stroke: #1f77b4"/>
     <use xlink:href="#mad08fc7ff8" x="112.100526" y="83.393181" style="fill: #1f77b4; stroke: #1f77b4"/>
     <use xlink:href="#mad08fc7ff8" x="130.801223" y="220.76105" style="fill: #1f77b4; stroke: #1f77b4"/>
     <use xlink:href="#mad08fc7ff8" x="149.501919" y="331.184044" style="fill: #1f77b4; stroke: #1f77b4"/>
     <use xlink:href="#mad08fc7ff8" x="168.202615" y="228.639233" style="fill: #1f77b4; stroke: #1f77b4"/>
     <use xlink:href="#mad08fc7ff8" x="186.903312" y="318.546856" style="fill: #1f77b4; stroke: #1f77b4"/>
     <use xlink:href="#mad08fc7ff8" x="205.604008" y="271.249317" style="fill: #1f77b4; stroke: #1f77b4"/>
     <use xlink:href="#mad08fc7ff8" x="224.304705" y="112.928166" style="fill: #1f77b4; stroke: #1f77b4"/>
     <use xlink:href="#mad08fc7ff8" x="243.005401" y="300.433378" style="fill: #1f77b4; stroke: #1f77b4"/>
     <use xlink:href="#mad08fc7ff8" x="261.706098" y="288.178339" style="fill: #1f77b4; stroke: #1f77b4"/>
     <use xlink:href="#mad08fc7ff8" x="280.406794" y="314.544957" style="fill: #1f77b4; stroke: #1f77b4"/>
     <use xlink:href="#mad08fc7ff8" x="299.107491" y="271.473142" style="fill: #1f77b4; stroke: #1f77b4"/>
     <use xlink:href="#mad08fc7ff8" x="317.808187" y="355.083876" style="fill: #1f77b4; stroke: #1f77b4"/>
     <use xlink:href="#mad08fc7ff8" x="336.508884" y="289.902078" style="fill: #1f77b4; stroke: #1f77b4"/>
     <use xlink:href="#mad08fc7ff8" x="355.20958" y="324.935545" style="fill: #1f77b4; stroke: #1f77b4"/>
     <use xlink:href="#mad08fc7ff8" x="373.910277" y="310.91823" style="fill: #1f77b4; stroke: #1f77b4"/>
     <use xlink:href="#mad08fc7ff8" x="411.31167" y="46.813736" style="fill: #1f77b4; stroke: #1f77b4"/>
     <use xlink:href="#mad08fc7ff8" x="430.012366" y="298.535776" style="fill: #1f77b4; stroke: #1f77b4"/>
     <use xlink:href="#mad08fc7ff8" x="448.713063" y="272.004793" style="fill: #1f77b4; stroke: #1f77b4"/>
     <use xlink:href="#mad08fc7ff8" x="467.413759" y="264.733822" style="fill: #1f77b4; stroke: #1f77b4"/>
     <use xlink:href="#mad08fc7ff8" x="486.114456" y="300.821441" style="fill: #1f77b4; stroke: #1f77b4"/>
     <use xlink:href="#mad08fc7ff8" x="504.815152" y="315.773402" style="fill: #1f77b4; stroke: #1f77b4"/>
     <use xlink:href="#mad08fc7ff8" x="523.515849" y="320.378392" style="fill: #1f77b4; stroke: #1f77b4"/>
     <use xlink:href="#mad08fc7ff8" x="542.216545" y="300.841979" style="fill: #1f77b4; stroke: #1f77b4"/>
     <use xlink:href="#mad08fc7ff8" x="560.917242" y="296.635402" style="fill: #1f77b4; stroke: #1f77b4"/>
     <use xlink:href="#mad08fc7ff8" x="579.617938" y="282.449221" style="fill: #1f77b4; stroke: #1f77b4"/>
     <use xlink:href="#mad08fc7ff8" x="617.019331" y="284.389929" style="fill: #1f77b4; stroke: #1f77b4"/>
     <use xlink:href="#mad08fc7ff8" x="635.720027" y="256.561491" style="fill: #1f77b4; stroke: #1f77b4"/>
     <use xlink:href="#mad08fc7ff8" x="654.420724" y="311.509364" style="fill: #1f77b4; stroke: #1f77b4"/>
     <use xlink:href="#mad08fc7ff8" x="673.12142" y="291.407878" style="fill: #1f77b4; stroke: #1f77b4"/>
    </g>
   </g>
   <g id="line2d_20">
    <path d="M 93.39983 392.679679 
L 112.100526 386.936497 
L 130.801223 398.248244 
L 149.501919 385.343502 
L 168.202615 339.569664 
L 186.903312 404.385915 
L 205.604008 381.678582 
L 224.304705 408.819049 
L 243.005401 396.668627 
L 261.706098 335.900085 
L 280.406794 374.883943 
L 299.107491 381.8178 
L 317.808187 372.43382 
L 336.508884 408.554433 
L 355.20958 391.855324 
L 373.910277 368.569402 
L 411.31167 391.970803 
L 430.012366 383.410177 
L 448.713063 355.940819 
L 467.413759 365.503518 
L 486.114456 346.510892 
L 504.815152 416.125962 
L 523.515849 357.092056 
L 542.216545 354.857344 
L 560.917242 282.149957 
L 579.617938 279.938227 
L 617.019331 284.948124 
L 635.720027 314.650581 
L 654.420724 310.644081 
L 673.12142 291.583875 
" clip-path="url(#paf0c1d3d10)" style="fill: none; stroke: #ff7f0e; stroke-width: 2; stroke-linecap: square"/>
    <defs>
     <path id="m6304f69ca3" d="M 0 3 
C 0.795609 3 1.55874 2.683901 2.12132 2.12132 
C 2.683901 1.55874 3 0.795609 3 0 
C 3 -0.795609 2.683901 -1.55874 2.12132 -2.12132 
C 1.55874 -2.683901 0.795609 -3 0 -3 
C -0.795609 -3 -1.55874 -2.683901 -2.12132 -2.12132 
C -2.683901 -1.55874 -3 -0.795609 -3 0 
C -3 0.795609 -2.683901 1.55874 -2.12132 2.12132 
C -1.55874 2.683901 -0.795609 3 0 3 
z
" style="stroke: #ff7f0e"/>
    </defs>
    <g clip-path="url(#paf0c1d3d10)">
     <use xlink:href="#m6304f69ca3" x="93.39983" y="392.679679" style="fill: #ff7f0e; stroke: #ff7f0e"/>
     <use xlink:href="#m6304f69ca3" x="112.100526" y="386.936497" style="fill: #ff7f0e; stroke: #ff7f0e"/>
     <use xlink:href="#m6304f69ca3" x="130.801223" y="398.248244" style="fill: #ff7f0e; stroke: #ff7f0e"/>
     <use xlink:href="#m6304f69ca3" x="149.501919" y="385.343502" style="fill: #ff7f0e; stroke: #ff7f0e"/>
     <use xlink:href="#m6304f69ca3" x="168.202615" y="339.569664" style="fill: #ff7f0e; stroke: #ff7f0e"/>
     <use xlink:href="#m6304f69ca3" x="186.903312" y="404.385915" style="fill: #ff7f0e; stroke: #ff7f0e"/>
     <use xlink:href="#m6304f69ca3" x="205.604008" y="381.678582" style="fill: #ff7f0e; stroke: #ff7f0e"/>
     <use xlink:href="#m6304f69ca3" x="224.304705" y="408.819049" style="fill: #ff7f0e; stroke: #ff7f0e"/>
     <use xlink:href="#m6304f69ca3" x="243.005401" y="396.668627" style="fill: #ff7f0e; stroke: #ff7f0e"/>
     <use xlink:href="#m6304f69ca3" x="261.706098" y="335.900085" style="fill: #ff7f0e; stroke: #ff7f0e"/>
     <use xlink:href="#m6304f69ca3" x="280.406794" y="374.883943" style="fill: #ff7f0e; stroke: #ff7f0e"/>
     <use xlink:href="#m6304f69ca3" x="299.107491" y="381.8178" style="fill: #ff7f0e; stroke: #ff7f0e"/>
     <use xlink:href="#m6304f69ca3" x="317.808187" y="372.43382" style="fill: #ff7f0e; stroke: #ff7f0e"/>
     <use xlink:href="#m6304f69ca3" x="336.508884" y="408.554433" style="fill: #ff7f0e; stroke: #ff7f0e"/>
     <use xlink:href="#m6304f69ca3" x="355.20958" y="391.855324" style="fill: #ff7f0e; stroke: #ff7f0e"/>
     <use xlink:href="#m6304f69ca3" x="373.910277" y="368.569402" style="fill: #ff7f0e; stroke: #ff7f0e"/>
     <use xlink:href="#m6304f69ca3" x="411.31167" y="391.970803" style="fill: #ff7f0e; stroke: #ff7f0e"/>
     <use xlink:href="#m6304f69ca3" x="430.012366" y="383.410177" style="fill: #ff7f0e; stroke: #ff7f0e"/>
     <use xlink:href="#m6304f69ca3" x="448.713063" y="355.940819" style="fill: #ff7f0e; stroke: #ff7f0e"/>
     <use xlink:href="#m6304f69ca3" x="467.413759" y="365.503518" style="fill: #ff7f0e; stroke: #ff7f0e"/>
     <use xlink:href="#m6304f69ca3" x="486.114456" y="346.510892" style="fill: #ff7f0e; stroke: #ff7f0e"/>
     <use xlink:href="#m6304f69ca3" x="504.815152" y="416.125962" style="fill: #ff7f0e; stroke: #ff7f0e"/>
     <use xlink:href="#m6304f69ca3" x="523.515849" y="357.092056" style="fill: #ff7f0e; stroke: #ff7f0e"/>
     <use xlink:href="#m6304f69ca3" x="542.216545" y="354.857344" style="fill: #ff7f0e; stroke: #ff7f0e"/>
     <use xlink:href="#m6304f69ca3" x="560.917242" y="282.149957" style="fill: #ff7f0e; stroke: #ff7f0e"/>
     <use xlink:href="#m6304f69ca3" x="579.617938" y="279.938227" style="fill: #ff7f0e; stroke: #ff7f0e"/>
     <use xlink:href="#m6304f69ca3" x="617.019331" y="284.948124" style="fill: #ff7f0e; stroke: #ff7f0e"/>
     <use xlink:href="#m6304f69ca3" x="635.720027" y="314.650581" style="fill: #ff7f0e; stroke: #ff7f0e"/>
     <use xlink:href="#m6304f69ca3" x="654.420724" y="310.644081" style="fill: #ff7f0e; stroke: #ff7f0e"/>
     <use xlink:href="#m6304f69ca3" x="673.12142" y="291.583875" style="fill: #ff7f0e; stroke: #ff7f0e"/>
    </g>
   </g>
   <g id="line2d_21">
    <path d="M 93.39983 253.741696 
L 112.100526 131.132428 
L 130.801223 96.482045 
L 149.501919 81.256547 
L 168.202615 240.152215 
L 186.903312 77.046755 
L 205.604008 132.700907 
L 224.304705 86.931594 
L 243.005401 212.878131 
L 261.706098 259.677316 
L 280.406794 75.515958 
L 299.107491 128.781141 
L 317.808187 197.396234 
L 336.508884 112.022002 
L 355.20958 278.006773 
L 373.910277 84.085137 
L 411.31167 101.398895 
L 430.012366 202.032381 
L 448.713063 119.799375 
L 467.413759 215.475984 
L 486.114456 242.654232 
L 504.815152 83.347224 
L 523.515849 247.574723 
L 542.216545 84.118424 
L 560.917242 125.304641 
L 579.617938 130.136687 
L 617.019331 129.336619 
L 635.720027 263.001692 
L 654.420724 241.69872 
L 673.12142 101.165388 
" clip-path="url(#paf0c1d3d10)" style="fill: none; stroke: #2ca02c; stroke-width: 2; stroke-linecap: square"/>
    <defs>
     <path id="mc3d0b76879" d="M 0 3 
C 0.795609 3 1.55874 2.683901 2.12132 2.12132 
C 2.683901 1.55874 3 0.795609 3 0 
C 3 -0.795609 2.683901 -1.55874 2.12132 -2.12132 
C 1.55874 -2.683901 0.795609 -3 0 -3 
C -0.795609 -3 -1.55874 -2.683901 -2.12132 -2.12132 
C -2.683901 -1.55874 -3 -0.795609 -3 0 
C -3 0.795609 -2.683901 1.55874 -2.12132 2.12132 
C -1.55874 2.683901 -0.795609 3 0 3 
z
" style="stroke: #2ca02c"/>
    </defs>
    <g clip-path="url(#paf0c1d3d10)">
     <use xlink:href="#mc3d0b76879" x="93.39983" y="253.741696" style="fill: #2ca02c; stroke: #2ca02c"/>
     <use xlink:href="#mc3d0b76879" x="112.100526" y="131.132428" style="fill: #2ca02c; stroke: #2ca02c"/>
     <use xlink:href="#mc3d0b76879" x="130.801223" y="96.482045" style="fill: #2ca02c; stroke: #2ca02c"/>
     <use xlink:href="#mc3d0b76879" x="149.501919" y="81.256547" style="fill: #2ca02c; stroke: #2ca02c"/>
     <use xlink:href="#mc3d0b76879" x="168.202615" y="240.152215" style="fill: #2ca02c; stroke: #2ca02c"/>
     <use xlink:href="#mc3d0b76879" x="186.903312" y="77.046755" style="fill: #2ca02c; stroke: #2ca02c"/>
     <use xlink:href="#mc3d0b76879" x="205.604008" y="132.700907" style="fill: #2ca02c; stroke: #2ca02c"/>
     <use xlink:href="#mc3d0b76879" x="224.304705" y="86.931594" style="fill: #2ca02c; stroke: #2ca02c"/>
     <use xlink:href="#mc3d0b76879" x="243.005401" y="212.878131" style="fill: #2ca02c; stroke: #2ca02c"/>
     <use xlink:href="#mc3d0b76879" x="261.706098" y="259.677316" style="fill: #2ca02c; stroke: #2ca02c"/>
     <use xlink:href="#mc3d0b76879" x="280.406794" y="75.515958" style="fill: #2ca02c; stroke: #2ca02c"/>
     <use xlink:href="#mc3d0b76879" x="299.107491" y="128.781141" style="fill: #2ca02c; stroke: #2ca02c"/>
     <use xlink:href="#mc3d0b76879" x="317.808187" y="197.396234" style="fill: #2ca02c; stroke: #2ca02c"/>
     <use xlink:href="#mc3d0b76879" x="336.508884" y="112.022002" style="fill: #2ca02c; stroke: #2ca02c"/>
     <use xlink:href="#mc3d0b76879" x="355.20958" y="278.006773" style="fill: #2ca02c; stroke: #2ca02c"/>
     <use xlink:href="#mc3d0b76879" x="373.910277" y="84.085137" style="fill: #2ca02c; stroke: #2ca02c"/>
     <use xlink:href="#mc3d0b76879" x="411.31167" y="101.398895" style="fill: #2ca02c; stroke: #2ca02c"/>
     <use xlink:href="#mc3d0b76879" x="430.012366" y="202.032381" style="fill: #2ca02c; stroke: #2ca02c"/>
     <use xlink:href="#mc3d0b76879" x="448.713063" y="119.799375" style="fill: #2ca02c; stroke: #2ca02c"/>
     <use xlink:href="#mc3d0b76879" x="467.413759" y="215.475984" style="fill: #2ca02c; stroke: #2ca02c"/>
     <use xlink:href="#mc3d0b76879" x="486.114456" y="242.654232" style="fill: #2ca02c; stroke: #2ca02c"/>
     <use xlink:href="#mc3d0b76879" x="504.815152" y="83.347224" style="fill: #2ca02c; stroke: #2ca02c"/>
     <use xlink:href="#mc3d0b76879" x="523.515849" y="247.574723" style="fill: #2ca02c; stroke: #2ca02c"/>
     <use xlink:href="#mc3d0b76879" x="542.216545" y="84.118424" style="fill: #2ca02c; stroke: #2ca02c"/>
     <use xlink:href="#mc3d0b76879" x="560.917242" y="125.304641" style="fill: #2ca02c; stroke: #2ca02c"/>
     <use xlink:href="#mc3d0b76879" x="579.617938" y="130.136687" style="fill: #2ca02c; stroke: #2ca02c"/>
     <use xlink:href="#mc3d0b76879" x="617.019331" y="129.336619" style="fill: #2ca02c; stroke: #2ca02c"/>
     <use xlink:href="#mc3d0b76879" x="635.720027" y="263.001692" style="fill: #2ca02c; stroke: #2ca02c"/>
     <use xlink:href="#mc3d0b76879" x="654.420724" y="241.69872" style="fill: #2ca02c; stroke: #2ca02c"/>
     <use xlink:href="#mc3d0b76879" x="673.12142" y="101.165388" style="fill: #2ca02c; stroke: #2ca02c"/>
    </g>
   </g>
   <g id="line2d_22">
    <path d="M 93.39983 309.46052 
L 112.100526 294.014315 
L 130.801223 121.63556 
L 149.501919 288.422818 
L 168.202615 307.59703 
L 186.903312 296.137357 
L 205.604008 332.588837 
L 224.304705 138.456856 
L 243.005401 66.312577 
L 261.706098 283.547321 
L 280.406794 281.66026 
L 299.107491 296.901271 
L 317.808187 313.205049 
L 355.20958 344.12319 
L 373.910277 298.313978 
L 411.31167 314.901513 
L 430.012366 208.372962 
L 448.713063 117.617315 
L 467.413759 207.136064 
L 486.114456 313.390974 
L 523.515849 286.409414 
L 542.216545 279.949187 
L 560.917242 292.178976 
L 579.617938 93.79761 
L 617.019331 274.424933 
L 635.720027 298.329917 
L 654.420724 282.699717 
L 673.12142 252.928086 
" clip-path="url(#paf0c1d3d10)" style="fill: none; stroke: #d62728; stroke-width: 2; stroke-linecap: square"/>
    <defs>
     <path id="mc74b7aaa1b" d="M 0 3 
C 0.795609 3 1.55874 2.683901 2.12132 2.12132 
C 2.683901 1.55874 3 0.795609 3 0 
C 3 -0.795609 2.683901 -1.55874 2.12132 -2.12132 
C 1.55874 -2.683901 0.795609 -3 0 -3 
C -0.795609 -3 -1.55874 -2.683901 -2.12132 -2.12132 
C -2.683901 -1.55874 -3 -0.795609 -3 0 
C -3 0.795609 -2.683901 1.55874 -2.12132 2.12132 
C -1.55874 2.683901 -0.795609 3 0 3 
z
" style="stroke: #d62728"/>
    </defs>
    <g clip-path="url(#paf0c1d3d10)">
     <use xlink:href="#mc74b7aaa1b" x="93.39983" y="309.46052" style="fill: #d62728; stroke: #d62728"/>
     <use xlink:href="#mc74b7aaa1b" x="112.100526" y="294.014315" style="fill: #d62728; stroke: #d62728"/>
     <use xlink:href="#mc74b7aaa1b" x="130.801223" y="121.63556" style="fill: #d62728; stroke: #d62728"/>
     <use xlink:href="#mc74b7aaa1b" x="149.501919" y="288.422818" style="fill: #d62728; stroke: #d62728"/>
     <use xlink:href="#mc74b7aaa1b" x="168.202615" y="307.59703" style="fill: #d62728; stroke: #d62728"/>
     <use xlink:href="#mc74b7aaa1b" x="186.903312" y="296.137357" style="fill: #d62728; stroke: #d62728"/>
     <use xlink:href="#mc74b7aaa1b" x="205.604008" y="332.588837" style="fill: #d62728; stroke: #d62728"/>
     <use xlink:href="#mc74b7aaa1b" x="224.304705" y="138.456856" style="fill: #d62728; stroke: #d62728"/>
     <use xlink:href="#mc74b7aaa1b" x="243.005401" y="66.312577" style="fill: #d62728; stroke: #d62728"/>
     <use xlink:href="#mc74b7aaa1b" x="261.706098" y="283.547321" style="fill: #d62728; stroke: #d62728"/>
     <use xlink:href="#mc74b7aaa1b" x="280.406794" y="281.66026" style="fill: #d62728; stroke: #d62728"/>
     <use xlink:href="#mc74b7aaa1b" x="299.107491" y="296.901271" style="fill: #d62728; stroke: #d62728"/>
     <use xlink:href="#mc74b7aaa1b" x="317.808187" y="313.205049" style="fill: #d62728; stroke: #d62728"/>
     <use xlink:href="#mc74b7aaa1b" x="355.20958" y="344.12319" style="fill: #d62728; stroke: #d62728"/>
     <use xlink:href="#mc74b7aaa1b" x="373.910277" y="298.313978" style="fill: #d62728; stroke: #d62728"/>
     <use xlink:href="#mc74b7aaa1b" x="411.31167" y="314.901513" style="fill: #d62728; stroke: #d62728"/>
     <use xlink:href="#mc74b7aaa1b" x="430.012366" y="208.372962" style="fill: #d62728; stroke: #d62728"/>
     <use xlink:href="#mc74b7aaa1b" x="448.713063" y="117.617315" style="fill: #d62728; stroke: #d62728"/>
     <use xlink:href="#mc74b7aaa1b" x="467.413759" y="207.136064" style="fill: #d62728; stroke: #d62728"/>
     <use xlink:href="#mc74b7aaa1b" x="486.114456" y="313.390974" style="fill: #d62728; stroke: #d62728"/>
     <use xlink:href="#mc74b7aaa1b" x="523.515849" y="286.409414" style="fill: #d62728; stroke: #d62728"/>
     <use xlink:href="#mc74b7aaa1b" x="542.216545" y="279.949187" style="fill: #d62728; stroke: #d62728"/>
     <use xlink:href="#mc74b7aaa1b" x="560.917242" y="292.178976" style="fill: #d62728; stroke: #d62728"/>
     <use xlink:href="#mc74b7aaa1b" x="579.617938" y="93.79761" style="fill: #d62728; stroke: #d62728"/>
     <use xlink:href="#mc74b7aaa1b" x="617.019331" y="274.424933" style="fill: #d62728; stroke: #d62728"/>
     <use xlink:href="#mc74b7aaa1b" x="635.720027" y="298.329917" style="fill: #d62728; stroke: #d62728"/>
     <use xlink:href="#mc74b7aaa1b" x="654.420724" y="282.699717" style="fill: #d62728; stroke: #d62728"/>
     <use xlink:href="#mc74b7aaa1b" x="673.12142" y="252.928086" style="fill: #d62728; stroke: #d62728"/>
    </g>
   </g>
   <g id="line2d_23">
    <path d="M 93.39983 377.497105 
L 112.100526 387.013601 
L 130.801223 366.137566 
L 149.501919 382.326041 
L 168.202615 353.014329 
L 186.903312 376.792191 
L 205.604008 393.025678 
L 224.304705 369.58168 
L 243.005401 366.519954 
L 261.706098 376.404142 
L 280.406794 352.125109 
L 299.107491 354.006725 
L 317.808187 372.147341 
L 355.20958 416.543906 
L 373.910277 365.251985 
L 411.31167 390.812516 
L 430.012366 506.332202 
L 448.713063 317.490832 
L 467.413759 355.132603 
L 486.114456 396.66187 
L 523.515849 322.484467 
L 542.216545 364.753659 
L 560.917242 299.948817 
L 579.617938 301.488194 
L 617.019331 270.681795 
L 635.720027 298.498009 
L 654.420724 283.817652 
L 673.12142 251.129522 
" clip-path="url(#paf0c1d3d10)" style="fill: none; stroke: #9467bd; stroke-width: 2; stroke-linecap: square"/>
    <defs>
     <path id="m5e8d3ce720" d="M 0 3 
C 0.795609 3 1.55874 2.683901 2.12132 2.12132 
C 2.683901 1.55874 3 0.795609 3 0 
C 3 -0.795609 2.683901 -1.55874 2.12132 -2.12132 
C 1.55874 -2.683901 0.795609 -3 0 -3 
C -0.795609 -3 -1.55874 -2.683901 -2.12132 -2.12132 
C -2.683901 -1.55874 -3 -0.795609 -3 0 
C -3 0.795609 -2.683901 1.55874 -2.12132 2.12132 
C -1.55874 2.683901 -0.795609 3 0 3 
z
" style="stroke: #9467bd"/>
    </defs>
    <g clip-path="url(#paf0c1d3d10)">
     <use xlink:href="#m5e8d3ce720" x="93.39983" y="377.497105" style="fill: #9467bd; stroke: #9467bd"/>
     <use xlink:href="#m5e8d3ce720" x="112.100526" y="387.013601" style="fill: #9467bd; stroke: #9467bd"/>
     <use xlink:href="#m5e8d3ce720" x="130.801223" y="366.137566" style="fill: #9467bd; stroke: #9467bd"/>
     <use xlink:href="#m5e8d3ce720" x="149.501919" y="382.326041" style="fill: #9467bd; stroke: #9467bd"/>
     <use xlink:href="#m5e8d3ce720" x="168.202615" y="353.014329" style="fill: #9467bd; stroke: #9467bd"/>
     <use xlink:href="#m5e8d3ce720" x="186.903312" y="376.792191" style="fill: #9467bd; stroke: #9467bd"/>
     <use xlink:href="#m5e8d3ce720" x="205.604008" y="393.025678" style="fill: #9467bd; stroke: #9467bd"/>
     <use xlink:href="#m5e8d3ce720" x="224.304705" y="369.58168" style="fill: #9467bd; stroke: #9467bd"/>
     <use xlink:href="#m5e8d3ce720" x="243.005401" y="366.519954" style="fill: #9467bd; stroke: #9467bd"/>
     <use xlink:href="#m5e8d3ce720" x="261.706098" y="376.404142" style="fill: #9467bd; stroke: #9467bd"/>
     <use xlink:href="#m5e8d3ce720" x="280.406794" y="352.125109" style="fill: #9467bd; stroke: #9467bd"/>
     <use xlink:href="#m5e8d3ce720" x="299.107491" y="354.006725" style="fill: #9467bd; stroke: #9467bd"/>
     <use xlink:href="#m5e8d3ce720" x="317.808187" y="372.147341" style="fill: #9467bd; stroke: #9467bd"/>
     <use xlink:href="#m5e8d3ce720" x="355.20958" y="416.543906" style="fill: #9467bd; stroke: #9467bd"/>
     <use xlink:href="#m5e8d3ce720" x="373.910277" y="365.251985" style="fill: #9467bd; stroke: #9467bd"/>
     <use xlink:href="#m5e8d3ce720" x="411.31167" y="390.812516" style="fill: #9467bd; stroke: #9467bd"/>
     <use xlink:href="#m5e8d3ce720" x="430.012366" y="506.332202" style="fill: #9467bd; stroke: #9467bd"/>
     <use xlink:href="#m5e8d3ce720" x="448.713063" y="317.490832" style="fill: #9467bd; stroke: #9467bd"/>
     <use xlink:href="#m5e8d3ce720" x="467.413759" y="355.132603" style="fill: #9467bd; stroke: #9467bd"/>
     <use xlink:href="#m5e8d3ce720" x="486.114456" y="396.66187" style="fill: #9467bd; stroke: #9467bd"/>
     <use xlink:href="#m5e8d3ce720" x="523.515849" y="322.484467" style="fill: #9467bd; stroke: #9467bd"/>
     <use xlink:href="#m5e8d3ce720" x="542.216545" y="364.753659" style="fill: #9467bd; stroke: #9467bd"/>
     <use xlink:href="#m5e8d3ce720" x="560.917242" y="299.948817" style="fill: #9467bd; stroke: #9467bd"/>
     <use xlink:href="#m5e8d3ce720" x="579.617938" y="301.488194" style="fill: #9467bd; stroke: #9467bd"/>
     <use xlink:href="#m5e8d3ce720" x="617.019331" y="270.681795" style="fill: #9467bd; stroke: #9467bd"/>
     <use xlink:href="#m5e8d3ce720" x="635.720027" y="298.498009" style="fill: #9467bd; stroke: #9467bd"/>
     <use xlink:href="#m5e8d3ce720" x="654.420724" y="283.817652" style="fill: #9467bd; stroke: #9467bd"/>
     <use xlink:href="#m5e8d3ce720" x="673.12142" y="251.129522" style="fill: #9467bd; stroke: #9467bd"/>
    </g>
   </g>
   <g id="line2d_24">
    <path d="M 93.39983 274.650768 
L 112.100526 96.666611 
L 130.801223 276.859481 
L 149.501919 257.482311 
L 168.202615 215.464338 
L 186.903312 266.852194 
L 205.604008 250.594453 
L 224.304705 207.420086 
L 243.005401 242.827291 
L 261.706098 80.166321 
L 280.406794 277.984423 
L 299.107491 104.891121 
L 317.808187 124.203671 
L 355.20958 267.439832 
L 373.910277 250.251968 
L 411.31167 230.273162 
L 430.012366 275.952272 
L 448.713063 73.774918 
L 467.413759 87.604345 
L 486.114456 121.351933 
L 523.515849 91.384657 
L 542.216545 89.741917 
L 560.917242 260.968451 
L 579.617938 108.857789 
L 617.019331 92.233004 
L 635.720027 220.457906 
L 654.420724 247.506065 
L 673.12142 111.227191 
" clip-path="url(#paf0c1d3d10)" style="fill: none; stroke: #8c564b; stroke-width: 2; stroke-linecap: square"/>
    <defs>
     <path id="m85b0e7a004" d="M 0 3 
C 0.795609 3 1.55874 2.683901 2.12132 2.12132 
C 2.683901 1.55874 3 0.795609 3 0 
C 3 -0.795609 2.683901 -1.55874 2.12132 -2.12132 
C 1.55874 -2.683901 0.795609 -3 0 -3 
C -0.795609 -3 -1.55874 -2.683901 -2.12132 -2.12132 
C -2.683901 -1.55874 -3 -0.795609 -3 0 
C -3 0.795609 -2.683901 1.55874 -2.12132 2.12132 
C -1.55874 2.683901 -0.795609 3 0 3 
z
" style="stroke: #8c564b"/>
    </defs>
    <g clip-path="url(#paf0c1d3d10)">
     <use xlink:href="#m85b0e7a004" x="93.39983" y="274.650768" style="fill: #8c564b; stroke: #8c564b"/>
     <use xlink:href="#m85b0e7a004" x="112.100526" y="96.666611" style="fill: #8c564b; stroke: #8c564b"/>
     <use xlink:href="#m85b0e7a004" x="130.801223" y="276.859481" style="fill: #8c564b; stroke: #8c564b"/>
     <use xlink:href="#m85b0e7a004" x="149.501919" y="257.482311" style="fill: #8c564b; stroke: #8c564b"/>
     <use xlink:href="#m85b0e7a004" x="168.202615" y="215.464338" style="fill: #8c564b; stroke: #8c564b"/>
     <use xlink:href="#m85b0e7a004" x="186.903312" y="266.852194" style="fill: #8c564b; stroke: #8c564b"/>
     <use xlink:href="#m85b0e7a004" x="205.604008" y="250.594453" style="fill: #8c564b; stroke: #8c564b"/>
     <use xlink:href="#m85b0e7a004" x="224.304705" y="207.420086" style="fill: #8c564b; stroke: #8c564b"/>
     <use xlink:href="#m85b0e7a004" x="243.005401" y="242.827291" style="fill: #8c564b; stroke: #8c564b"/>
     <use xlink:href="#m85b0e7a004" x="261.706098" y="80.166321" style="fill: #8c564b; stroke: #8c564b"/>
     <use xlink:href="#m85b0e7a004" x="280.406794" y="277.984423" style="fill: #8c564b; stroke: #8c564b"/>
     <use xlink:href="#m85b0e7a004" x="299.107491" y="104.891121" style="fill: #8c564b; stroke: #8c564b"/>
     <use xlink:href="#m85b0e7a004" x="317.808187" y="124.203671" style="fill: #8c564b; stroke: #8c564b"/>
     <use xlink:href="#m85b0e7a004" x="355.20958" y="267.439832" style="fill: #8c564b; stroke: #8c564b"/>
     <use xlink:href="#m85b0e7a004" x="373.910277" y="250.251968" style="fill: #8c564b; stroke: #8c564b"/>
     <use xlink:href="#m85b0e7a004" x="411.31167" y="230.273162" style="fill: #8c564b; stroke: #8c564b"/>
     <use xlink:href="#m85b0e7a004" x="430.012366" y="275.952272" style="fill: #8c564b; stroke: #8c564b"/>
     <use xlink:href="#m85b0e7a004" x="448.713063" y="73.774918" style="fill: #8c564b; stroke: #8c564b"/>
     <use xlink:href="#m85b0e7a004" x="467.413759" y="87.604345" style="fill: #8c564b; stroke: #8c564b"/>
     <use xlink:href="#m85b0e7a004" x="486.114456" y="121.351933" style="fill: #8c564b; stroke: #8c564b"/>
     <use xlink:href="#m85b0e7a004" x="523.515849" y="91.384657" style="fill: #8c564b; stroke: #8c564b"/>
     <use xlink:href="#m85b0e7a004" x="542.216545" y="89.741917" style="fill: #8c564b; stroke: #8c564b"/>
     <use xlink:href="#m85b0e7a004" x="560.917242" y="260.968451" style="fill: #8c564b; stroke: #8c564b"/>
     <use xlink:href="#m85b0e7a004" x="579.617938" y="108.857789" style="fill: #8c564b; stroke: #8c564b"/>
     <use xlink:href="#m85b0e7a004" x="617.019331" y="92.233004" style="fill: #8c564b; stroke: #8c564b"/>
     <use xlink:href="#m85b0e7a004" x="635.720027" y="220.457906" style="fill: #8c564b; stroke: #8c564b"/>
     <use xlink:href="#m85b0e7a004" x="654.420724" y="247.506065" style="fill: #8c564b; stroke: #8c564b"/>
     <use xlink:href="#m85b0e7a004" x="673.12142" y="111.227191" style="fill: #8c564b; stroke: #8c564b"/>
    </g>
   </g>
   <g id="patch_3">
    <path d="M 64.41375 529.308125 
L 64.41375 23.837812 
" style="fill: none; stroke: #000000; stroke-width: 0.8; stroke-linejoin: miter; stroke-linecap: square"/>
   </g>
   <g id="patch_4">
    <path d="M 702.1075 529.308125 
L 702.1075 23.837812 
" style="fill: none; stroke: #000000; stroke-width: 0.8; stroke-linejoin: miter; stroke-linecap: square"/>
   </g>
   <g id="patch_5">
    <path d="M 64.41375 529.308125 
L 702.1075 529.308125 
" style="fill: none; stroke: #000000; stroke-width: 0.8; stroke-linejoin: miter; stroke-linecap: square"/>
   </g>
   <g id="patch_6">
    <path d="M 64.41375 23.837812 
L 702.1075 23.837812 
" style="fill: none; stroke: #000000; stroke-width: 0.8; stroke-linejoin: miter; stroke-linecap: square"/>
   </g>
   <g id="text_12">
    <text style="font: 700 14px 'DejaVu Sans', 'Bitstream Vera Sans', 'Computer Modern Sans Serif', 'Lucida Grande', 'Verdana', 'Geneva', 'Lucid', 'Arial', 'Helvetica', 'Avant Garde', sans-serif; text-anchor: middle" x="383.260625" y="17.837813" transform="rotate(-0 383.260625 17.837813)">Tasksubmission - Performance Trend</text>
   </g>
   <g id="legend_1">
    <g id="patch_7">
     <path d="M 740.992188 119.906563 
L 846.004688 119.906563 
Q 848.004688 119.906563 848.004688 117.906563 
L 848.004688 30.837813 
Q 848.004688 28.837813 846.004688 28.837813 
L 740.992188 28.837813 
Q 738.992188 28.837813 738.992188 30.837813 
L 738.992188 117.906563 
Q 738.992188 119.906563 740.992188 119.906563 
z
" style="fill: #ffffff; opacity: 0.8; stroke: #cccccc; stroke-linejoin: miter"/>
    </g>
    <g id="line2d_25">
     <path d="M 742.992188 36.93625 
L 752.992188 36.93625 
L 762.992188 36.93625 
" style="fill: none; stroke: #1f77b4; stroke-width: 2; stroke-linecap: square"/>
     <g>
      <use xlink:href="#mad08fc7ff8" x="752.992188" y="36.93625" style="fill: #1f77b4; stroke: #1f77b4"/>
     </g>
    </g>
    <g id="text_13">
     <text style="font: 10px 'DejaVu Sans', 'Bitstream Vera Sans', 'Computer Modern Sans Serif', 'Lucida Grande', 'Verdana', 'Geneva', 'Lucid', 'Arial', 'Helvetica', 'Avant Garde', sans-serif; text-anchor: start" x="770.992188" y="40.43625" transform="rotate(-0 770.992188 40.43625)">gcc-14.2 - V1</text>
    </g>
    <g id="line2d_26">
     <path d="M 742.992188 51.614375 
L 752.992188 51.614375 
L 762.992188 51.614375 
" style="fill: none; stroke: #ff7f0e; stroke-width: 2; stroke-linecap: square"/>
     <g>
      <use xlink:href="#m6304f69ca3" x="752.992188" y="51.614375" style="fill: #ff7f0e; stroke: #ff7f0e"/>
     </g>
    </g>
    <g id="text_14">
     <text style="font: 10px 'DejaVu Sans', 'Bitstream Vera Sans', 'Computer Modern Sans Serif', 'Lucida Grande', 'Verdana', 'Geneva', 'Lucid', 'Arial', 'Helvetica', 'Avant Garde', sans-serif; text-anchor: start" x="770.992188" y="55.114375" transform="rotate(-0 770.992188 55.114375)">gcc-14.2 - V2</text>
    </g>
    <g id="line2d_27">
     <path d="M 742.992188 66.2925 
L 752.992188 66.2925 
L 762.992188 66.2925 
" style="fill: none; stroke: #2ca02c; stroke-width: 2; stroke-linecap: square"/>
     <g>
      <use xlink:href="#mc3d0b76879" x="752.992188" y="66.2925" style="fill: #2ca02c; stroke: #2ca02c"/>
     </g>
    </g>
    <g id="text_15">
     <text style="font: 10px 'DejaVu Sans', 'Bitstream Vera Sans', 'Computer Modern Sans Serif', 'Lucida Grande', 'Verdana', 'Geneva', 'Lucid', 'Arial', 'Helvetica', 'Avant Garde', sans-serif; text-anchor: start" x="770.992188" y="69.7925" transform="rotate(-0 770.992188 69.7925)">gcc-14.2 - TBB</text>
    </g>
    <g id="line2d_28">
     <path d="M 742.992188 80.970625 
L 752.992188 80.970625 
L 762.992188 80.970625 
" style="fill: none; stroke: #d62728; stroke-width: 2; stroke-linecap: square"/>
     <g>
      <use xlink:href="#mc74b7aaa1b" x="752.992188" y="80.970625" style="fill: #d62728; stroke: #d62728"/>
     </g>
    </g>
    <g id="text_16">
     <text style="font: 10px 'DejaVu Sans', 'Bitstream Vera Sans', 'Computer Modern Sans Serif', 'Lucida Grande', 'Verdana', 'Geneva', 'Lucid', 'Arial', 'Helvetica', 'Avant Garde', sans-serif; text-anchor: start" x="770.992188" y="84.470625" transform="rotate(-0 770.992188 84.470625)">gcc-4.2 - V1</text>
    </g>
    <g id="line2d_29">
     <path d="M 742.992188 95.64875 
L 752.992188 95.64875 
L 762.992188 95.64875 
" style="fill: none; stroke: #9467bd; stroke-width: 2; stroke-linecap: square"/>
     <g>
      <use xlink:href="#m5e8d3ce720" x="752.992188" y="95.64875" style="fill: #9467bd; stroke: #9467bd"/>
     </g>
    </g>
    <g id="text_17">
     <text style="font: 10px 'DejaVu Sans', 'Bitstream Vera Sans', 'Computer Modern Sans Serif', 'Lucida Grande', 'Verdana', 'Geneva', 'Lucid', 'Arial', 'Helvetica', 'Avant Garde', sans-serif; text-anchor: start" x="770.992188" y="99.14875" transform="rotate(-0 770.992188 99.14875)">gcc-4.2 - V2</text>
    </g>
    <g id="line2d_30">
     <path d="M 742.992188 110.326875 
L 752.992188 110.326875 
L 762.992188 110.326875 
" style="fill: none; stroke: #8c564b; stroke-width: 2; stroke-linecap: square"/>
     <g>
      <use xlink:href="#m85b0e7a004" x="752.992188" y="110.326875" style="fill: #8c564b; stroke: #8c564b"/>
     </g>
    </g>
    <g id="text_18">
     <text style="font: 10px 'DejaVu Sans', 'Bitstream Vera Sans', 'Computer Modern Sans Serif', 'Lucida Grande', 'Verdana', 'Geneva', 'Lucid', 'Arial', 'Helvetica', 'Avant Garde', sans-serif; text-anchor: start" x="770.992188" y="113.826875" transform="rotate(-0 770.992188 113.826875)">gcc-4.2 - TBB</text>
    </g>
   </g>
  </g>
 </g>
 <defs>
  <clipPath id="paf0c1d3d10">
   <rect x="64.41375" y="23.837813" width="637.69375" height="505.470313"/>
  </clipPath>
 </defs>
</svg>
