<?xml version="1.0" encoding="utf-8" standalone="no"?>
<!DOCTYPE svg PUBLIC "-//W3C//DTD SVG 1.1//EN"
  "http://www.w3.org/Graphics/SVG/1.1/DTD/svg11.dtd">
<svg xmlns:xlink="http://www.w3.org/1999/xlink" width="855.204687pt" height="568.8pt" viewBox="0 0 855.204687 568.8" xmlns="http://www.w3.org/2000/svg" version="1.1">
 <metadata>
  <rdf:RDF xmlns:dc="http://purl.org/dc/elements/1.1/" xmlns:cc="http://creativecommons.org/ns#" xmlns:rdf="http://www.w3.org/1999/02/22-rdf-syntax-ns#">
   <cc:Work>
    <dc:type rdf:resource="http://purl.org/dc/dcmitype/StillImage"/>
    <dc:date>2025-08-30T22:53:03.072298</dc:date>
    <dc:format>image/svg+xml</dc:format>
    <dc:creator>
     <cc:Agent>
      <dc:title>Matplotlib v3.9.4, https://matplotlib.org/</dc:title>
     </cc:Agent>
    </dc:creator>
   </cc:Work>
  </rdf:RDF>
 </metadata>
 <defs>
  <style type="text/css">*{stroke-linejoin: round; stroke-linecap: butt}</style>
 </defs>
 <g id="figure_1">
  <g id="patch_1">
   <path d="M 0 568.8 
L 855.204687 568.8 
L 855.204687 0 
L 0 0 
z
" style="fill: #ffffff"/>
  </g>
  <g id="axes_1">
   <g id="patch_2">
    <path d="M 64.41375 529.308125 
L 702.1075 529.308125 
L 702.1075 23.837812 
L 64.41375 23.837812 
z
" style="fill: #ffffff"/>
   </g>
   <g id="matplotlib.axis_1">
    <g id="xtick_1">
     <g id="line2d_1">
      <path d="M 79.917932 529.308125 
L 79.917932 23.837812 
" clip-path="url(#pafe5129309)" style="fill: none; stroke: #b0b0b0; stroke-opacity: 0.3; stroke-width: 0.8; stroke-linecap: square"/>
     </g>
     <g id="line2d_2">
      <defs>
       <path id="m6264c92dfc" d="M 0 0 
L 0 3.5 
" style="stroke: #000000; stroke-width: 0.8"/>
      </defs>
      <g>
       <use xlink:href="#m6264c92dfc" x="79.917932" y="529.308125" style="stroke: #000000; stroke-width: 0.8"/>
      </g>
     </g>
     <g id="text_1">
      <text style="font: 10px 'DejaVu Sans', 'Bitstream Vera Sans', 'Computer Modern Sans Serif', 'Lucida Grande', 'Verdana', 'Geneva', 'Lucid', 'Arial', 'Helvetica', 'Avant Garde', sans-serif; text-anchor: middle" x="79.917932" y="543.906563" transform="rotate(-0 79.917932 543.906563)">70</text>
     </g>
    </g>
    <g id="xtick_2">
     <g id="line2d_3">
      <path d="M 214.736907 529.308125 
L 214.736907 23.837812 
" clip-path="url(#pafe5129309)" style="fill: none; stroke: #b0b0b0; stroke-opacity: 0.3; stroke-width: 0.8; stroke-linecap: square"/>
     </g>
     <g id="line2d_4">
      <g>
       <use xlink:href="#m6264c92dfc" x="214.736907" y="529.308125" style="stroke: #000000; stroke-width: 0.8"/>
      </g>
     </g>
     <g id="text_2">
      <text style="font: 10px 'DejaVu Sans', 'Bitstream Vera Sans', 'Computer Modern Sans Serif', 'Lucida Grande', 'Verdana', 'Geneva', 'Lucid', 'Arial', 'Helvetica', 'Avant Garde', sans-serif; text-anchor: middle" x="214.736907" y="543.906563" transform="rotate(-0 214.736907 543.906563)">80</text>
     </g>
    </g>
    <g id="xtick_3">
     <g id="line2d_5">
      <path d="M 349.555881 529.308125 
L 349.555881 23.837812 
" clip-path="url(#pafe5129309)" style="fill: none; stroke: #b0b0b0; stroke-opacity: 0.3; stroke-width: 0.8; stroke-linecap: square"/>
     </g>
     <g id="line2d_6">
      <g>
       <use xlink:href="#m6264c92dfc" x="349.555881" y="529.308125" style="stroke: #000000; stroke-width: 0.8"/>
      </g>
     </g>
     <g id="text_3">
      <text style="font: 10px 'DejaVu Sans', 'Bitstream Vera Sans', 'Computer Modern Sans Serif', 'Lucida Grande', 'Verdana', 'Geneva', 'Lucid', 'Arial', 'Helvetica', 'Avant Garde', sans-serif; text-anchor: middle" x="349.555881" y="543.906563" transform="rotate(-0 349.555881 543.906563)">90</text>
     </g>
    </g>
    <g id="xtick_4">
     <g id="line2d_7">
      <path d="M 484.374856 529.308125 
L 484.374856 23.837812 
" clip-path="url(#pafe5129309)" style="fill: none; stroke: #b0b0b0; stroke-opacity: 0.3; stroke-width: 0.8; stroke-linecap: square"/>
     </g>
     <g id="line2d_8">
      <g>
       <use xlink:href="#m6264c92dfc" x="484.374856" y="529.308125" style="stroke: #000000; stroke-width: 0.8"/>
      </g>
     </g>
     <g id="text_4">
      <text style="font: 10px 'DejaVu Sans', 'Bitstream Vera Sans', 'Computer Modern Sans Serif', 'Lucida Grande', 'Verdana', 'Geneva', 'Lucid', 'Arial', 'Helvetica', 'Avant Garde', sans-serif; text-anchor: middle" x="484.374856" y="543.906563" transform="rotate(-0 484.374856 543.906563)">100</text>
     </g>
    </g>
    <g id="xtick_5">
     <g id="line2d_9">
      <path d="M 619.193831 529.308125 
L 619.193831 23.837812 
" clip-path="url(#pafe5129309)" style="fill: none; stroke: #b0b0b0; stroke-opacity: 0.3; stroke-width: 0.8; stroke-linecap: square"/>
     </g>
     <g id="line2d_10">
      <g>
       <use xlink:href="#m6264c92dfc" x="619.193831" y="529.308125" style="stroke: #000000; stroke-width: 0.8"/>
      </g>
     </g>
     <g id="text_5">
      <text style="font: 10px 'DejaVu Sans', 'Bitstream Vera Sans', 'Computer Modern Sans Serif', 'Lucida Grande', 'Verdana', 'Geneva', 'Lucid', 'Arial', 'Helvetica', 'Avant Garde', sans-serif; text-anchor: middle" x="619.193831" y="543.906563" transform="rotate(-0 619.193831 543.906563)">110</text>
     </g>
    </g>
    <g id="text_6">
     <text style="font: 12px 'DejaVu Sans', 'Bitstream Vera Sans', 'Computer Modern Sans Serif', 'Lucida Grande', 'Verdana', 'Geneva', 'Lucid', 'Arial', 'Helvetica', 'Avant Garde', sans-serif; text-anchor: middle" x="383.260625" y="559.104375" transform="rotate(-0 383.260625 559.104375)">Build Number</text>
    </g>
   </g>
   <g id="matplotlib.axis_2">
    <g id="ytick_1">
     <g id="line2d_11">
      <path d="M 64.41375 348.809781 
L 702.1075 348.809781 
" clip-path="url(#pafe5129309)" style="fill: none; stroke: #b0b0b0; stroke-opacity: 0.3; stroke-width: 0.8; stroke-linecap: square"/>
     </g>
     <g id="line2d_12">
      <defs>
       <path id="m3acd3e6397" d="M 0 0 
L -3.5 0 
" style="stroke: #000000; stroke-width: 0.8"/>
      </defs>
      <g>
       <use xlink:href="#m3acd3e6397" x="64.41375" y="348.809781" style="stroke: #000000; stroke-width: 0.8"/>
      </g>
     </g>
     <g id="text_7">
      <!-- $\mathdefault{10^{5}}$ -->
      <g transform="translate(39.81375 352.608999)">
       <text>
        <tspan style="font: 10px 'DejaVu Sans'" x="0 6.362305" y="-0.06406250000000036">10</tspan>
        <tspan style="font: 7px 'DejaVu Sans'" x="12.820312" y="-3.8921875000000004">5</tspan>
       </text>
      </g>
     </g>
    </g>
    <g id="ytick_2">
     <g id="line2d_13">
      <defs>
       <path id="m24a26a2adf" d="M 0 0 
L -2 0 
" style="stroke: #000000; stroke-width: 0.6"/>
      </defs>
      <g>
       <use xlink:href="#m24a26a2adf" x="64.41375" y="477.273547" style="stroke: #000000; stroke-width: 0.6"/>
      </g>
     </g>
    </g>
    <g id="ytick_3">
     <g id="line2d_14">
      <g>
       <use xlink:href="#m24a26a2adf" x="64.41375" y="429.179488" style="stroke: #000000; stroke-width: 0.6"/>
      </g>
     </g>
    </g>
    <g id="ytick_4">
     <g id="line2d_15">
      <g>
       <use xlink:href="#m24a26a2adf" x="64.41375" y="386.757522" style="stroke: #000000; stroke-width: 0.6"/>
      </g>
     </g>
    </g>
    <g id="ytick_5">
     <g id="line2d_16">
      <g>
       <use xlink:href="#m24a26a2adf" x="64.41375" y="99.158666" style="stroke: #000000; stroke-width: 0.6"/>
      </g>
     </g>
     <g id="text_8">
      <!-- $\mathdefault{2\times10^{5}}$ -->
      <g transform="translate(22.81375 102.957885)">
       <text>
        <tspan style="font: 10px 'DejaVu Sans'" x="0 8.310547 18.637695 25" y="-0.06406250000000036">2×10</tspan>
        <tspan style="font: 7px 'DejaVu Sans'" x="31.458008" y="-3.8921875000000004">5</tspan>
       </text>
      </g>
     </g>
    </g>
    <g id="text_9">
     <text style="font: 12px 'DejaVu Sans', 'Bitstream Vera Sans', 'Computer Modern Sans Serif', 'Lucida Grande', 'Verdana', 'Geneva', 'Lucid', 'Arial', 'Helvetica', 'Avant Garde', sans-serif; text-anchor: middle" x="16.318125" y="276.572969" transform="rotate(-90 16.318125 276.572969)">Median Elapsed Time (nanoseconds)</text>
    </g>
   </g>
   <g id="line2d_17">
    <path d="M 93.39983 320.399692 
L 106.881727 149.937849 
L 120.363624 149.122015 
L 133.845522 281.632503 
L 147.327419 73.517706 
L 160.809317 262.330675 
L 174.291214 319.41646 
L 187.773112 320.479253 
L 201.255009 154.791122 
L 214.736907 314.376784 
L 228.218804 314.778644 
L 241.700702 320.044049 
L 255.182599 70.757565 
L 268.664497 317.938266 
L 282.146394 319.597083 
L 295.628291 318.721044 
L 322.592086 319.842596 
L 336.073984 167.082323 
L 349.555881 319.906078 
L 363.037779 153.803023 
L 376.519676 319.841267 
L 390.001574 67.555908 
L 403.483471 318.710773 
L 416.965369 147.600096 
L 430.447266 255.817313 
L 443.929164 170.559724 
L 470.892959 226.811932 
L 484.374856 263.587557 
L 497.856753 157.035303 
L 511.338651 223.21326 
L 524.820548 279.579341 
L 538.302446 278.500091 
L 551.784343 318.151651 
L 565.266241 154.443467 
L 592.230036 239.450357 
L 605.711933 230.756909 
L 619.193831 155.677847 
L 632.675728 155.272932 
L 646.157626 69.000527 
L 673.12142 212.484487 
" clip-path="url(#pafe5129309)" style="fill: none; stroke: #1f77b4; stroke-width: 2; stroke-linecap: square"/>
    <defs>
     <path id="m19fb7601a7" d="M 0 3 
C 0.795609 3 1.55874 2.683901 2.12132 2.12132 
C 2.683901 1.55874 3 0.795609 3 0 
C 3 -0.795609 2.683901 -1.55874 2.12132 -2.12132 
C 1.55874 -2.683901 0.795609 -3 0 -3 
C -0.795609 -3 -1.55874 -2.683901 -2.12132 -2.12132 
C -2.683901 -1.55874 -3 -0.795609 -3 0 
C -3 0.795609 -2.683901 1.55874 -2.12132 2.12132 
C -1.55874 2.683901 -0.795609 3 0 3 
z
" style="stroke: #1f77b4"/>
    </defs>
    <g clip-path="url(#pafe5129309)">
     <use xlink:href="#m19fb7601a7" x="93.39983" y="320.399692" style="fill: #1f77b4; stroke: #1f77b4"/>
     <use xlink:href="#m19fb7601a7" x="106.881727" y="149.937849" style="fill: #1f77b4; stroke: #1f77b4"/>
     <use xlink:href="#m19fb7601a7" x="120.363624" y="149.122015" style="fill: #1f77b4; stroke: #1f77b4"/>
     <use xlink:href="#m19fb7601a7" x="133.845522" y="281.632503" style="fill: #1f77b4; stroke: #1f77b4"/>
     <use xlink:href="#m19fb7601a7" x="147.327419" y="73.517706" style="fill: #1f77b4; stroke: #1f77b4"/>
     <use xlink:href="#m19fb7601a7" x="160.809317" y="262.330675" style="fill: #1f77b4; stroke: #1f77b4"/>
     <use xlink:href="#m19fb7601a7" x="174.291214" y="319.41646" style="fill: #1f77b4; stroke: #1f77b4"/>
     <use xlink:href="#m19fb7601a7" x="187.773112" y="320.479253" style="fill: #1f77b4; stroke: #1f77b4"/>
     <use xlink:href="#m19fb7601a7" x="201.255009" y="154.791122" style="fill: #1f77b4; stroke: #1f77b4"/>
     <use xlink:href="#m19fb7601a7" x="214.736907" y="314.376784" style="fill: #1f77b4; stroke: #1f77b4"/>
     <use xlink:href="#m19fb7601a7" x="228.218804" y="314.778644" style="fill: #1f77b4; stroke: #1f77b4"/>
     <use xlink:href="#m19fb7601a7" x="241.700702" y="320.044049" style="fill: #1f77b4; stroke: #1f77b4"/>
     <use xlink:href="#m19fb7601a7" x="255.182599" y="70.757565" style="fill: #1f77b4; stroke: #1f77b4"/>
     <use xlink:href="#m19fb7601a7" x="268.664497" y="317.938266" style="fill: #1f77b4; stroke: #1f77b4"/>
     <use xlink:href="#m19fb7601a7" x="282.146394" y="319.597083" style="fill: #1f77b4; stroke: #1f77b4"/>
     <use xlink:href="#m19fb7601a7" x="295.628291" y="318.721044" style="fill: #1f77b4; stroke: #1f77b4"/>
     <use xlink:href="#m19fb7601a7" x="322.592086" y="319.842596" style="fill: #1f77b4; stroke: #1f77b4"/>
     <use xlink:href="#m19fb7601a7" x="336.073984" y="167.082323" style="fill: #1f77b4; stroke: #1f77b4"/>
     <use xlink:href="#m19fb7601a7" x="349.555881" y="319.906078" style="fill: #1f77b4; stroke: #1f77b4"/>
     <use xlink:href="#m19fb7601a7" x="363.037779" y="153.803023" style="fill: #1f77b4; stroke: #1f77b4"/>
     <use xlink:href="#m19fb7601a7" x="376.519676" y="319.841267" style="fill: #1f77b4; stroke: #1f77b4"/>
     <use xlink:href="#m19fb7601a7" x="390.001574" y="67.555908" style="fill: #1f77b4; stroke: #1f77b4"/>
     <use xlink:href="#m19fb7601a7" x="403.483471" y="318.710773" style="fill: #1f77b4; stroke: #1f77b4"/>
     <use xlink:href="#m19fb7601a7" x="416.965369" y="147.600096" style="fill: #1f77b4; stroke: #1f77b4"/>
     <use xlink:href="#m19fb7601a7" x="430.447266" y="255.817313" style="fill: #1f77b4; stroke: #1f77b4"/>
     <use xlink:href="#m19fb7601a7" x="443.929164" y="170.559724" style="fill: #1f77b4; stroke: #1f77b4"/>
     <use xlink:href="#m19fb7601a7" x="470.892959" y="226.811932" style="fill: #1f77b4; stroke: #1f77b4"/>
     <use xlink:href="#m19fb7601a7" x="484.374856" y="263.587557" style="fill: #1f77b4; stroke: #1f77b4"/>
     <use xlink:href="#m19fb7601a7" x="497.856753" y="157.035303" style="fill: #1f77b4; stroke: #1f77b4"/>
     <use xlink:href="#m19fb7601a7" x="511.338651" y="223.21326" style="fill: #1f77b4; stroke: #1f77b4"/>
     <use xlink:href="#m19fb7601a7" x="524.820548" y="279.579341" style="fill: #1f77b4; stroke: #1f77b4"/>
     <use xlink:href="#m19fb7601a7" x="538.302446" y="278.500091" style="fill: #1f77b4; stroke: #1f77b4"/>
     <use xlink:href="#m19fb7601a7" x="551.784343" y="318.151651" style="fill: #1f77b4; stroke: #1f77b4"/>
     <use xlink:href="#m19fb7601a7" x="565.266241" y="154.443467" style="fill: #1f77b4; stroke: #1f77b4"/>
     <use xlink:href="#m19fb7601a7" x="592.230036" y="239.450357" style="fill: #1f77b4; stroke: #1f77b4"/>
     <use xlink:href="#m19fb7601a7" x="605.711933" y="230.756909" style="fill: #1f77b4; stroke: #1f77b4"/>
     <use xlink:href="#m19fb7601a7" x="619.193831" y="155.677847" style="fill: #1f77b4; stroke: #1f77b4"/>
     <use xlink:href="#m19fb7601a7" x="632.675728" y="155.272932" style="fill: #1f77b4; stroke: #1f77b4"/>
     <use xlink:href="#m19fb7601a7" x="646.157626" y="69.000527" style="fill: #1f77b4; stroke: #1f77b4"/>
     <use xlink:href="#m19fb7601a7" x="673.12142" y="212.484487" style="fill: #1f77b4; stroke: #1f77b4"/>
    </g>
   </g>
   <g id="line2d_18">
    <path d="M 93.39983 287.002065 
L 106.881727 166.941871 
L 120.363624 206.761922 
L 133.845522 267.182754 
L 147.327419 170.52357 
L 160.809317 276.779458 
L 174.291214 267.21556 
L 187.773112 274.060871 
L 201.255009 73.812662 
L 214.736907 273.893797 
L 228.218804 270.935313 
L 241.700702 268.600312 
L 255.182599 164.624075 
L 268.664497 275.976789 
L 282.146394 280.273421 
L 295.628291 161.231057 
L 322.592086 161.617455 
L 336.073984 144.792844 
L 349.555881 251.284103 
L 363.037779 151.838117 
L 376.519676 270.392581 
L 390.001574 169.497912 
L 403.483471 257.445194 
L 416.965369 173.681673 
L 430.447266 322.455249 
L 443.929164 321.781345 
L 470.892959 208.787844 
L 484.374856 158.587297 
L 497.856753 279.041241 
L 511.338651 199.57643 
L 524.820548 162.77635 
L 538.302446 239.735731 
L 551.784343 152.466443 
L 565.266241 167.740743 
L 592.230036 250.586132 
L 605.711933 155.406309 
L 619.193831 155.899553 
L 632.675728 304.189228 
L 646.157626 320.388043 
L 673.12142 153.71347 
" clip-path="url(#pafe5129309)" style="fill: none; stroke: #ff7f0e; stroke-width: 2; stroke-linecap: square"/>
    <defs>
     <path id="mf28d006e92" d="M 0 3 
C 0.795609 3 1.55874 2.683901 2.12132 2.12132 
C 2.683901 1.55874 3 0.795609 3 0 
C 3 -0.795609 2.683901 -1.55874 2.12132 -2.12132 
C 1.55874 -2.683901 0.795609 -3 0 -3 
C -0.795609 -3 -1.55874 -2.683901 -2.12132 -2.12132 
C -2.683901 -1.55874 -3 -0.795609 -3 0 
C -3 0.795609 -2.683901 1.55874 -2.12132 2.12132 
C -1.55874 2.683901 -0.795609 3 0 3 
z
" style="stroke: #ff7f0e"/>
    </defs>
    <g clip-path="url(#pafe5129309)">
     <use xlink:href="#mf28d006e92" x="93.39983" y="287.002065" style="fill: #ff7f0e; stroke: #ff7f0e"/>
     <use xlink:href="#mf28d006e92" x="106.881727" y="166.941871" style="fill: #ff7f0e; stroke: #ff7f0e"/>
     <use xlink:href="#mf28d006e92" x="120.363624" y="206.761922" style="fill: #ff7f0e; stroke: #ff7f0e"/>
     <use xlink:href="#mf28d006e92" x="133.845522" y="267.182754" style="fill: #ff7f0e; stroke: #ff7f0e"/>
     <use xlink:href="#mf28d006e92" x="147.327419" y="170.52357" style="fill: #ff7f0e; stroke: #ff7f0e"/>
     <use xlink:href="#mf28d006e92" x="160.809317" y="276.779458" style="fill: #ff7f0e; stroke: #ff7f0e"/>
     <use xlink:href="#mf28d006e92" x="174.291214" y="267.21556" style="fill: #ff7f0e; stroke: #ff7f0e"/>
     <use xlink:href="#mf28d006e92" x="187.773112" y="274.060871" style="fill: #ff7f0e; stroke: #ff7f0e"/>
     <use xlink:href="#mf28d006e92" x="201.255009" y="73.812662" style="fill: #ff7f0e; stroke: #ff7f0e"/>
     <use xlink:href="#mf28d006e92" x="214.736907" y="273.893797" style="fill: #ff7f0e; stroke: #ff7f0e"/>
     <use xlink:href="#mf28d006e92" x="228.218804" y="270.935313" style="fill: #ff7f0e; stroke: #ff7f0e"/>
     <use xlink:href="#mf28d006e92" x="241.700702" y="268.600312" style="fill: #ff7f0e; stroke: #ff7f0e"/>
     <use xlink:href="#mf28d006e92" x="255.182599" y="164.624075" style="fill: #ff7f0e; stroke: #ff7f0e"/>
     <use xlink:href="#mf28d006e92" x="268.664497" y="275.976789" style="fill: #ff7f0e; stroke: #ff7f0e"/>
     <use xlink:href="#mf28d006e92" x="282.146394" y="280.273421" style="fill: #ff7f0e; stroke: #ff7f0e"/>
     <use xlink:href="#mf28d006e92" x="295.628291" y="161.231057" style="fill: #ff7f0e; stroke: #ff7f0e"/>
     <use xlink:href="#mf28d006e92" x="322.592086" y="161.617455" style="fill: #ff7f0e; stroke: #ff7f0e"/>
     <use xlink:href="#mf28d006e92" x="336.073984" y="144.792844" style="fill: #ff7f0e; stroke: #ff7f0e"/>
     <use xlink:href="#mf28d006e92" x="349.555881" y="251.284103" style="fill: #ff7f0e; stroke: #ff7f0e"/>
     <use xlink:href="#mf28d006e92" x="363.037779" y="151.838117" style="fill: #ff7f0e; stroke: #ff7f0e"/>
     <use xlink:href="#mf28d006e92" x="376.519676" y="270.392581" style="fill: #ff7f0e; stroke: #ff7f0e"/>
     <use xlink:href="#mf28d006e92" x="390.001574" y="169.497912" style="fill: #ff7f0e; stroke: #ff7f0e"/>
     <use xlink:href="#mf28d006e92" x="403.483471" y="257.445194" style="fill: #ff7f0e; stroke: #ff7f0e"/>
     <use xlink:href="#mf28d006e92" x="416.965369" y="173.681673" style="fill: #ff7f0e; stroke: #ff7f0e"/>
     <use xlink:href="#mf28d006e92" x="430.447266" y="322.455249" style="fill: #ff7f0e; stroke: #ff7f0e"/>
     <use xlink:href="#mf28d006e92" x="443.929164" y="321.781345" style="fill: #ff7f0e; stroke: #ff7f0e"/>
     <use xlink:href="#mf28d006e92" x="470.892959" y="208.787844" style="fill: #ff7f0e; stroke: #ff7f0e"/>
     <use xlink:href="#mf28d006e92" x="484.374856" y="158.587297" style="fill: #ff7f0e; stroke: #ff7f0e"/>
     <use xlink:href="#mf28d006e92" x="497.856753" y="279.041241" style="fill: #ff7f0e; stroke: #ff7f0e"/>
     <use xlink:href="#mf28d006e92" x="511.338651" y="199.57643" style="fill: #ff7f0e; stroke: #ff7f0e"/>
     <use xlink:href="#mf28d006e92" x="524.820548" y="162.77635" style="fill: #ff7f0e; stroke: #ff7f0e"/>
     <use xlink:href="#mf28d006e92" x="538.302446" y="239.735731" style="fill: #ff7f0e; stroke: #ff7f0e"/>
     <use xlink:href="#mf28d006e92" x="551.784343" y="152.466443" style="fill: #ff7f0e; stroke: #ff7f0e"/>
     <use xlink:href="#mf28d006e92" x="565.266241" y="167.740743" style="fill: #ff7f0e; stroke: #ff7f0e"/>
     <use xlink:href="#mf28d006e92" x="592.230036" y="250.586132" style="fill: #ff7f0e; stroke: #ff7f0e"/>
     <use xlink:href="#mf28d006e92" x="605.711933" y="155.406309" style="fill: #ff7f0e; stroke: #ff7f0e"/>
     <use xlink:href="#mf28d006e92" x="619.193831" y="155.899553" style="fill: #ff7f0e; stroke: #ff7f0e"/>
     <use xlink:href="#mf28d006e92" x="632.675728" y="304.189228" style="fill: #ff7f0e; stroke: #ff7f0e"/>
     <use xlink:href="#mf28d006e92" x="646.157626" y="320.388043" style="fill: #ff7f0e; stroke: #ff7f0e"/>
     <use xlink:href="#mf28d006e92" x="673.12142" y="153.71347" style="fill: #ff7f0e; stroke: #ff7f0e"/>
    </g>
   </g>
   <g id="line2d_19">
    <path d="M 93.39983 309.99342 
L 106.881727 46.813736 
L 120.363624 296.469989 
L 133.845522 303.317241 
L 147.327419 141.040669 
L 160.809317 305.135002 
L 174.291214 226.521224 
L 187.773112 232.205566 
L 201.255009 223.641223 
L 214.736907 303.255982 
L 228.218804 305.186371 
L 241.700702 305.00103 
L 255.182599 229.395298 
L 268.664497 302.467522 
L 282.146394 304.609325 
L 295.628291 227.085921 
L 322.592086 231.385219 
L 336.073984 303.313432 
L 349.555881 222.542209 
L 363.037779 226.229042 
L 376.519676 303.757474 
L 390.001574 300.074694 
L 403.483471 303.929633 
L 416.965369 176.224602 
L 430.447266 304.23484 
L 443.929164 224.920509 
L 470.892959 227.836393 
L 484.374856 226.304308 
L 497.856753 306.221374 
L 511.338651 303.332558 
L 524.820548 197.821714 
L 538.302446 228.456935 
L 551.784343 268.843978 
L 565.266241 228.045366 
L 592.230036 137.099204 
L 605.711933 230.341019 
L 619.193831 303.42709 
L 632.675728 238.544443 
L 646.157626 303.643394 
L 673.12142 228.793602 
" clip-path="url(#pafe5129309)" style="fill: none; stroke: #2ca02c; stroke-width: 2; stroke-linecap: square"/>
    <defs>
     <path id="m2041623cc8" d="M 0 3 
C 0.795609 3 1.55874 2.683901 2.12132 2.12132 
C 2.683901 1.55874 3 0.795609 3 0 
C 3 -0.795609 2.683901 -1.55874 2.12132 -2.12132 
C 1.55874 -2.683901 0.795609 -3 0 -3 
C -0.795609 -3 -1.55874 -2.683901 -2.12132 -2.12132 
C -2.683901 -1.55874 -3 -0.795609 -3 0 
C -3 0.795609 -2.683901 1.55874 -2.12132 2.12132 
C -1.55874 2.683901 -0.795609 3 0 3 
z
" style="stroke: #2ca02c"/>
    </defs>
    <g clip-path="url(#pafe5129309)">
     <use xlink:href="#m2041623cc8" x="93.39983" y="309.99342" style="fill: #2ca02c; stroke: #2ca02c"/>
     <use xlink:href="#m2041623cc8" x="106.881727" y="46.813736" style="fill: #2ca02c; stroke: #2ca02c"/>
     <use xlink:href="#m2041623cc8" x="120.363624" y="296.469989" style="fill: #2ca02c; stroke: #2ca02c"/>
     <use xlink:href="#m2041623cc8" x="133.845522" y="303.317241" style="fill: #2ca02c; stroke: #2ca02c"/>
     <use xlink:href="#m2041623cc8" x="147.327419" y="141.040669" style="fill: #2ca02c; stroke: #2ca02c"/>
     <use xlink:href="#m2041623cc8" x="160.809317" y="305.135002" style="fill: #2ca02c; stroke: #2ca02c"/>
     <use xlink:href="#m2041623cc8" x="174.291214" y="226.521224" style="fill: #2ca02c; stroke: #2ca02c"/>
     <use xlink:href="#m2041623cc8" x="187.773112" y="232.205566" style="fill: #2ca02c; stroke: #2ca02c"/>
     <use xlink:href="#m2041623cc8" x="201.255009" y="223.641223" style="fill: #2ca02c; stroke: #2ca02c"/>
     <use xlink:href="#m2041623cc8" x="214.736907" y="303.255982" style="fill: #2ca02c; stroke: #2ca02c"/>
     <use xlink:href="#m2041623cc8" x="228.218804" y="305.186371" style="fill: #2ca02c; stroke: #2ca02c"/>
     <use xlink:href="#m2041623cc8" x="241.700702" y="305.00103" style="fill: #2ca02c; stroke: #2ca02c"/>
     <use xlink:href="#m2041623cc8" x="255.182599" y="229.395298" style="fill: #2ca02c; stroke: #2ca02c"/>
     <use xlink:href="#m2041623cc8" x="268.664497" y="302.467522" style="fill: #2ca02c; stroke: #2ca02c"/>
     <use xlink:href="#m2041623cc8" x="282.146394" y="304.609325" style="fill: #2ca02c; stroke: #2ca02c"/>
     <use xlink:href="#m2041623cc8" x="295.628291" y="227.085921" style="fill: #2ca02c; stroke: #2ca02c"/>
     <use xlink:href="#m2041623cc8" x="322.592086" y="231.385219" style="fill: #2ca02c; stroke: #2ca02c"/>
     <use xlink:href="#m2041623cc8" x="336.073984" y="303.313432" style="fill: #2ca02c; stroke: #2ca02c"/>
     <use xlink:href="#m2041623cc8" x="349.555881" y="222.542209" style="fill: #2ca02c; stroke: #2ca02c"/>
     <use xlink:href="#m2041623cc8" x="363.037779" y="226.229042" style="fill: #2ca02c; stroke: #2ca02c"/>
     <use xlink:href="#m2041623cc8" x="376.519676" y="303.757474" style="fill: #2ca02c; stroke: #2ca02c"/>
     <use xlink:href="#m2041623cc8" x="390.001574" y="300.074694" style="fill: #2ca02c; stroke: #2ca02c"/>
     <use xlink:href="#m2041623cc8" x="403.483471" y="303.929633" style="fill: #2ca02c; stroke: #2ca02c"/>
     <use xlink:href="#m2041623cc8" x="416.965369" y="176.224602" style="fill: #2ca02c; stroke: #2ca02c"/>
     <use xlink:href="#m2041623cc8" x="430.447266" y="304.23484" style="fill: #2ca02c; stroke: #2ca02c"/>
     <use xlink:href="#m2041623cc8" x="443.929164" y="224.920509" style="fill: #2ca02c; stroke: #2ca02c"/>
     <use xlink:href="#m2041623cc8" x="470.892959" y="227.836393" style="fill: #2ca02c; stroke: #2ca02c"/>
     <use xlink:href="#m2041623cc8" x="484.374856" y="226.304308" style="fill: #2ca02c; stroke: #2ca02c"/>
     <use xlink:href="#m2041623cc8" x="497.856753" y="306.221374" style="fill: #2ca02c; stroke: #2ca02c"/>
     <use xlink:href="#m2041623cc8" x="511.338651" y="303.332558" style="fill: #2ca02c; stroke: #2ca02c"/>
     <use xlink:href="#m2041623cc8" x="524.820548" y="197.821714" style="fill: #2ca02c; stroke: #2ca02c"/>
     <use xlink:href="#m2041623cc8" x="538.302446" y="228.456935" style="fill: #2ca02c; stroke: #2ca02c"/>
     <use xlink:href="#m2041623cc8" x="551.784343" y="268.843978" style="fill: #2ca02c; stroke: #2ca02c"/>
     <use xlink:href="#m2041623cc8" x="565.266241" y="228.045366" style="fill: #2ca02c; stroke: #2ca02c"/>
     <use xlink:href="#m2041623cc8" x="592.230036" y="137.099204" style="fill: #2ca02c; stroke: #2ca02c"/>
     <use xlink:href="#m2041623cc8" x="605.711933" y="230.341019" style="fill: #2ca02c; stroke: #2ca02c"/>
     <use xlink:href="#m2041623cc8" x="619.193831" y="303.42709" style="fill: #2ca02c; stroke: #2ca02c"/>
     <use xlink:href="#m2041623cc8" x="632.675728" y="238.544443" style="fill: #2ca02c; stroke: #2ca02c"/>
     <use xlink:href="#m2041623cc8" x="646.157626" y="303.643394" style="fill: #2ca02c; stroke: #2ca02c"/>
     <use xlink:href="#m2041623cc8" x="673.12142" y="228.793602" style="fill: #2ca02c; stroke: #2ca02c"/>
    </g>
   </g>
   <g id="line2d_20">
    <path d="M 93.39983 504.215036 
L 106.881727 503.765069 
L 120.363624 504.492944 
L 133.845522 252.207841 
L 147.327419 366.478985 
L 160.809317 245.37849 
L 174.291214 504.920487 
L 187.773112 312.965396 
L 201.255009 240.358593 
L 214.736907 500.138822 
L 228.218804 506.092444 
L 241.700702 504.233335 
L 255.182599 167.327267 
L 282.146394 455.785735 
L 295.628291 506.332202 
L 322.592086 504.986515 
L 336.073984 505.933065 
L 349.555881 409.738681 
L 363.037779 504.225572 
L 376.519676 504.033763 
L 403.483471 504.859379 
L 416.965369 504.7011 
L 430.447266 506.201151 
L 443.929164 503.941775 
L 470.892959 504.616713 
L 484.374856 241.70091 
L 497.856753 503.96006 
L 511.338651 501.387882 
L 524.820548 267.78976 
L 538.302446 505.900195 
L 551.784343 504.140742 
L 565.266241 504.183431 
L 592.230036 363.91169 
L 605.711933 505.978754 
L 619.193831 359.25749 
L 646.157626 504.785507 
" clip-path="url(#pafe5129309)" style="fill: none; stroke: #d62728; stroke-width: 2; stroke-linecap: square"/>
    <defs>
     <path id="meffeab474e" d="M 0 3 
C 0.795609 3 1.55874 2.683901 2.12132 2.12132 
C 2.683901 1.55874 3 0.795609 3 0 
C 3 -0.795609 2.683901 -1.55874 2.12132 -2.12132 
C 1.55874 -2.683901 0.795609 -3 0 -3 
C -0.795609 -3 -1.55874 -2.683901 -2.12132 -2.12132 
C -2.683901 -1.55874 -3 -0.795609 -3 0 
C -3 0.795609 -2.683901 1.55874 -2.12132 2.12132 
C -1.55874 2.683901 -0.795609 3 0 3 
z
" style="stroke: #d62728"/>
    </defs>
    <g clip-path="url(#pafe5129309)">
     <use xlink:href="#meffeab474e" x="93.39983" y="504.215036" style="fill: #d62728; stroke: #d62728"/>
     <use xlink:href="#meffeab474e" x="106.881727" y="503.765069" style="fill: #d62728; stroke: #d62728"/>
     <use xlink:href="#meffeab474e" x="120.363624" y="504.492944" style="fill: #d62728; stroke: #d62728"/>
     <use xlink:href="#meffeab474e" x="133.845522" y="252.207841" style="fill: #d62728; stroke: #d62728"/>
     <use xlink:href="#meffeab474e" x="147.327419" y="366.478985" style="fill: #d62728; stroke: #d62728"/>
     <use xlink:href="#meffeab474e" x="160.809317" y="245.37849" style="fill: #d62728; stroke: #d62728"/>
     <use xlink:href="#meffeab474e" x="174.291214" y="504.920487" style="fill: #d62728; stroke: #d62728"/>
     <use xlink:href="#meffeab474e" x="187.773112" y="312.965396" style="fill: #d62728; stroke: #d62728"/>
     <use xlink:href="#meffeab474e" x="201.255009" y="240.358593" style="fill: #d62728; stroke: #d62728"/>
     <use xlink:href="#meffeab474e" x="214.736907" y="500.138822" style="fill: #d62728; stroke: #d62728"/>
     <use xlink:href="#meffeab474e" x="228.218804" y="506.092444" style="fill: #d62728; stroke: #d62728"/>
     <use xlink:href="#meffeab474e" x="241.700702" y="504.233335" style="fill: #d62728; stroke: #d62728"/>
     <use xlink:href="#meffeab474e" x="255.182599" y="167.327267" style="fill: #d62728; stroke: #d62728"/>
     <use xlink:href="#meffeab474e" x="282.146394" y="455.785735" style="fill: #d62728; stroke: #d62728"/>
     <use xlink:href="#meffeab474e" x="295.628291" y="506.332202" style="fill: #d62728; stroke: #d62728"/>
     <use xlink:href="#meffeab474e" x="322.592086" y="504.986515" style="fill: #d62728; stroke: #d62728"/>
     <use xlink:href="#meffeab474e" x="336.073984" y="505.933065" style="fill: #d62728; stroke: #d62728"/>
     <use xlink:href="#meffeab474e" x="349.555881" y="409.738681" style="fill: #d62728; stroke: #d62728"/>
     <use xlink:href="#meffeab474e" x="363.037779" y="504.225572" style="fill: #d62728; stroke: #d62728"/>
     <use xlink:href="#meffeab474e" x="376.519676" y="504.033763" style="fill: #d62728; stroke: #d62728"/>
     <use xlink:href="#meffeab474e" x="403.483471" y="504.859379" style="fill: #d62728; stroke: #d62728"/>
     <use xlink:href="#meffeab474e" x="416.965369" y="504.7011" style="fill: #d62728; stroke: #d62728"/>
     <use xlink:href="#meffeab474e" x="430.447266" y="506.201151" style="fill: #d62728; stroke: #d62728"/>
     <use xlink:href="#meffeab474e" x="443.929164" y="503.941775" style="fill: #d62728; stroke: #d62728"/>
     <use xlink:href="#meffeab474e" x="470.892959" y="504.616713" style="fill: #d62728; stroke: #d62728"/>
     <use xlink:href="#meffeab474e" x="484.374856" y="241.70091" style="fill: #d62728; stroke: #d62728"/>
     <use xlink:href="#meffeab474e" x="497.856753" y="503.96006" style="fill: #d62728; stroke: #d62728"/>
     <use xlink:href="#meffeab474e" x="511.338651" y="501.387882" style="fill: #d62728; stroke: #d62728"/>
     <use xlink:href="#meffeab474e" x="524.820548" y="267.78976" style="fill: #d62728; stroke: #d62728"/>
     <use xlink:href="#meffeab474e" x="538.302446" y="505.900195" style="fill: #d62728; stroke: #d62728"/>
     <use xlink:href="#meffeab474e" x="551.784343" y="504.140742" style="fill: #d62728; stroke: #d62728"/>
     <use xlink:href="#meffeab474e" x="565.266241" y="504.183431" style="fill: #d62728; stroke: #d62728"/>
     <use xlink:href="#meffeab474e" x="592.230036" y="363.91169" style="fill: #d62728; stroke: #d62728"/>
     <use xlink:href="#meffeab474e" x="605.711933" y="505.978754" style="fill: #d62728; stroke: #d62728"/>
     <use xlink:href="#meffeab474e" x="619.193831" y="359.25749" style="fill: #d62728; stroke: #d62728"/>
     <use xlink:href="#meffeab474e" x="646.157626" y="504.785507" style="fill: #d62728; stroke: #d62728"/>
    </g>
   </g>
   <g id="line2d_21">
    <path d="M 93.39983 461.991572 
L 106.881727 407.665623 
L 120.363624 466.93619 
L 133.845522 461.299004 
L 147.327419 368.886445 
L 160.809317 373.015229 
L 174.291214 456.013145 
L 187.773112 284.685676 
L 201.255009 450.498519 
L 214.736907 465.767156 
L 228.218804 459.143063 
L 241.700702 464.044495 
L 255.182599 338.076165 
L 282.146394 450.521448 
L 295.628291 463.665276 
L 322.592086 461.00366 
L 336.073984 461.407165 
L 349.555881 283.638824 
L 363.037779 459.289384 
L 376.519676 464.347663 
L 403.483471 455.468861 
L 416.965369 460.052294 
L 430.447266 478.539969 
L 443.929164 481.961441 
L 470.892959 482.146018 
L 484.374856 368.161718 
L 497.856753 482.726435 
L 511.338651 468.808441 
L 524.820548 479.226324 
L 538.302446 481.495727 
L 551.784343 485.413097 
L 565.266241 481.207952 
L 592.230036 335.347102 
L 605.711933 482.520154 
L 619.193831 366.623896 
L 646.157626 482.63973 
" clip-path="url(#pafe5129309)" style="fill: none; stroke: #9467bd; stroke-width: 2; stroke-linecap: square"/>
    <defs>
     <path id="m4556df8150" d="M 0 3 
C 0.795609 3 1.55874 2.683901 2.12132 2.12132 
C 2.683901 1.55874 3 0.795609 3 0 
C 3 -0.795609 2.683901 -1.55874 2.12132 -2.12132 
C 1.55874 -2.683901 0.795609 -3 0 -3 
C -0.795609 -3 -1.55874 -2.683901 -2.12132 -2.12132 
C -2.683901 -1.55874 -3 -0.795609 -3 0 
C -3 0.795609 -2.683901 1.55874 -2.12132 2.12132 
C -1.55874 2.683901 -0.795609 3 0 3 
z
" style="stroke: #9467bd"/>
    </defs>
    <g clip-path="url(#pafe5129309)">
     <use xlink:href="#m4556df8150" x="93.39983" y="461.991572" style="fill: #9467bd; stroke: #9467bd"/>
     <use xlink:href="#m4556df8150" x="106.881727" y="407.665623" style="fill: #9467bd; stroke: #9467bd"/>
     <use xlink:href="#m4556df8150" x="120.363624" y="466.93619" style="fill: #9467bd; stroke: #9467bd"/>
     <use xlink:href="#m4556df8150" x="133.845522" y="461.299004" style="fill: #9467bd; stroke: #9467bd"/>
     <use xlink:href="#m4556df8150" x="147.327419" y="368.886445" style="fill: #9467bd; stroke: #9467bd"/>
     <use xlink:href="#m4556df8150" x="160.809317" y="373.015229" style="fill: #9467bd; stroke: #9467bd"/>
     <use xlink:href="#m4556df8150" x="174.291214" y="456.013145" style="fill: #9467bd; stroke: #9467bd"/>
     <use xlink:href="#m4556df8150" x="187.773112" y="284.685676" style="fill: #9467bd; stroke: #9467bd"/>
     <use xlink:href="#m4556df8150" x="201.255009" y="450.498519" style="fill: #9467bd; stroke: #9467bd"/>
     <use xlink:href="#m4556df8150" x="214.736907" y="465.767156" style="fill: #9467bd; stroke: #9467bd"/>
     <use xlink:href="#m4556df8150" x="228.218804" y="459.143063" style="fill: #9467bd; stroke: #9467bd"/>
     <use xlink:href="#m4556df8150" x="241.700702" y="464.044495" style="fill: #9467bd; stroke: #9467bd"/>
     <use xlink:href="#m4556df8150" x="255.182599" y="338.076165" style="fill: #9467bd; stroke: #9467bd"/>
     <use xlink:href="#m4556df8150" x="282.146394" y="450.521448" style="fill: #9467bd; stroke: #9467bd"/>
     <use xlink:href="#m4556df8150" x="295.628291" y="463.665276" style="fill: #9467bd; stroke: #9467bd"/>
     <use xlink:href="#m4556df8150" x="322.592086" y="461.00366" style="fill: #9467bd; stroke: #9467bd"/>
     <use xlink:href="#m4556df8150" x="336.073984" y="461.407165" style="fill: #9467bd; stroke: #9467bd"/>
     <use xlink:href="#m4556df8150" x="349.555881" y="283.638824" style="fill: #9467bd; stroke: #9467bd"/>
     <use xlink:href="#m4556df8150" x="363.037779" y="459.289384" style="fill: #9467bd; stroke: #9467bd"/>
     <use xlink:href="#m4556df8150" x="376.519676" y="464.347663" style="fill: #9467bd; stroke: #9467bd"/>
     <use xlink:href="#m4556df8150" x="403.483471" y="455.468861" style="fill: #9467bd; stroke: #9467bd"/>
     <use xlink:href="#m4556df8150" x="416.965369" y="460.052294" style="fill: #9467bd; stroke: #9467bd"/>
     <use xlink:href="#m4556df8150" x="430.447266" y="478.539969" style="fill: #9467bd; stroke: #9467bd"/>
     <use xlink:href="#m4556df8150" x="443.929164" y="481.961441" style="fill: #9467bd; stroke: #9467bd"/>
     <use xlink:href="#m4556df8150" x="470.892959" y="482.146018" style="fill: #9467bd; stroke: #9467bd"/>
     <use xlink:href="#m4556df8150" x="484.374856" y="368.161718" style="fill: #9467bd; stroke: #9467bd"/>
     <use xlink:href="#m4556df8150" x="497.856753" y="482.726435" style="fill: #9467bd; stroke: #9467bd"/>
     <use xlink:href="#m4556df8150" x="511.338651" y="468.808441" style="fill: #9467bd; stroke: #9467bd"/>
     <use xlink:href="#m4556df8150" x="524.820548" y="479.226324" style="fill: #9467bd; stroke: #9467bd"/>
     <use xlink:href="#m4556df8150" x="538.302446" y="481.495727" style="fill: #9467bd; stroke: #9467bd"/>
     <use xlink:href="#m4556df8150" x="551.784343" y="485.413097" style="fill: #9467bd; stroke: #9467bd"/>
     <use xlink:href="#m4556df8150" x="565.266241" y="481.207952" style="fill: #9467bd; stroke: #9467bd"/>
     <use xlink:href="#m4556df8150" x="592.230036" y="335.347102" style="fill: #9467bd; stroke: #9467bd"/>
     <use xlink:href="#m4556df8150" x="605.711933" y="482.520154" style="fill: #9467bd; stroke: #9467bd"/>
     <use xlink:href="#m4556df8150" x="619.193831" y="366.623896" style="fill: #9467bd; stroke: #9467bd"/>
     <use xlink:href="#m4556df8150" x="646.157626" y="482.63973" style="fill: #9467bd; stroke: #9467bd"/>
    </g>
   </g>
   <g id="line2d_22">
    <path d="M 93.39983 428.48458 
L 106.881727 428.116305 
L 120.363624 429.675965 
L 133.845522 431.775747 
L 147.327419 353.222497 
L 160.809317 353.025662 
L 174.291214 431.423573 
L 187.773112 351.697648 
L 201.255009 429.564176 
L 214.736907 429.749008 
L 228.218804 431.810666 
L 241.700702 432.730205 
L 255.182599 351.888674 
L 282.146394 429.943929 
L 295.628291 431.740832 
L 322.592086 430.935437 
L 336.073984 432.640191 
L 349.555881 350.717243 
L 363.037779 430.037264 
L 376.519676 430.563849 
L 403.483471 432.946695 
L 416.965369 430.600459 
L 430.447266 432.090942 
L 443.929164 432.441149 
L 470.892959 431.029655 
L 484.374856 353.069029 
L 497.856753 430.34156 
L 511.338651 430.765022 
L 524.820548 431.597124 
L 538.302446 432.161403 
L 551.784343 429.132219 
L 565.266241 430.818385 
L 592.230036 349.357295 
L 605.711933 433.332136 
L 619.193831 423.09256 
L 646.157626 432.485219 
" clip-path="url(#pafe5129309)" style="fill: none; stroke: #8c564b; stroke-width: 2; stroke-linecap: square"/>
    <defs>
     <path id="m6dfc2183fd" d="M 0 3 
C 0.795609 3 1.55874 2.683901 2.12132 2.12132 
C 2.683901 1.55874 3 0.795609 3 0 
C 3 -0.795609 2.683901 -1.55874 2.12132 -2.12132 
C 1.55874 -2.683901 0.795609 -3 0 -3 
C -0.795609 -3 -1.55874 -2.683901 -2.12132 -2.12132 
C -2.683901 -1.55874 -3 -0.795609 -3 0 
C -3 0.795609 -2.683901 1.55874 -2.12132 2.12132 
C -1.55874 2.683901 -0.795609 3 0 3 
z
" style="stroke: #8c564b"/>
    </defs>
    <g clip-path="url(#pafe5129309)">
     <use xlink:href="#m6dfc2183fd" x="93.39983" y="428.48458" style="fill: #8c564b; stroke: #8c564b"/>
     <use xlink:href="#m6dfc2183fd" x="106.881727" y="428.116305" style="fill: #8c564b; stroke: #8c564b"/>
     <use xlink:href="#m6dfc2183fd" x="120.363624" y="429.675965" style="fill: #8c564b; stroke: #8c564b"/>
     <use xlink:href="#m6dfc2183fd" x="133.845522" y="431.775747" style="fill: #8c564b; stroke: #8c564b"/>
     <use xlink:href="#m6dfc2183fd" x="147.327419" y="353.222497" style="fill: #8c564b; stroke: #8c564b"/>
     <use xlink:href="#m6dfc2183fd" x="160.809317" y="353.025662" style="fill: #8c564b; stroke: #8c564b"/>
     <use xlink:href="#m6dfc2183fd" x="174.291214" y="431.423573" style="fill: #8c564b; stroke: #8c564b"/>
     <use xlink:href="#m6dfc2183fd" x="187.773112" y="351.697648" style="fill: #8c564b; stroke: #8c564b"/>
     <use xlink:href="#m6dfc2183fd" x="201.255009" y="429.564176" style="fill: #8c564b; stroke: #8c564b"/>
     <use xlink:href="#m6dfc2183fd" x="214.736907" y="429.749008" style="fill: #8c564b; stroke: #8c564b"/>
     <use xlink:href="#m6dfc2183fd" x="228.218804" y="431.810666" style="fill: #8c564b; stroke: #8c564b"/>
     <use xlink:href="#m6dfc2183fd" x="241.700702" y="432.730205" style="fill: #8c564b; stroke: #8c564b"/>
     <use xlink:href="#m6dfc2183fd" x="255.182599" y="351.888674" style="fill: #8c564b; stroke: #8c564b"/>
     <use xlink:href="#m6dfc2183fd" x="282.146394" y="429.943929" style="fill: #8c564b; stroke: #8c564b"/>
     <use xlink:href="#m6dfc2183fd" x="295.628291" y="431.740832" style="fill: #8c564b; stroke: #8c564b"/>
     <use xlink:href="#m6dfc2183fd" x="322.592086" y="430.935437" style="fill: #8c564b; stroke: #8c564b"/>
     <use xlink:href="#m6dfc2183fd" x="336.073984" y="432.640191" style="fill: #8c564b; stroke: #8c564b"/>
     <use xlink:href="#m6dfc2183fd" x="349.555881" y="350.717243" style="fill: #8c564b; stroke: #8c564b"/>
     <use xlink:href="#m6dfc2183fd" x="363.037779" y="430.037264" style="fill: #8c564b; stroke: #8c564b"/>
     <use xlink:href="#m6dfc2183fd" x="376.519676" y="430.563849" style="fill: #8c564b; stroke: #8c564b"/>
     <use xlink:href="#m6dfc2183fd" x="403.483471" y="432.946695" style="fill: #8c564b; stroke: #8c564b"/>
     <use xlink:href="#m6dfc2183fd" x="416.965369" y="430.600459" style="fill: #8c564b; stroke: #8c564b"/>
     <use xlink:href="#m6dfc2183fd" x="430.447266" y="432.090942" style="fill: #8c564b; stroke: #8c564b"/>
     <use xlink:href="#m6dfc2183fd" x="443.929164" y="432.441149" style="fill: #8c564b; stroke: #8c564b"/>
     <use xlink:href="#m6dfc2183fd" x="470.892959" y="431.029655" style="fill: #8c564b; stroke: #8c564b"/>
     <use xlink:href="#m6dfc2183fd" x="484.374856" y="353.069029" style="fill: #8c564b; stroke: #8c564b"/>
     <use xlink:href="#m6dfc2183fd" x="497.856753" y="430.34156" style="fill: #8c564b; stroke: #8c564b"/>
     <use xlink:href="#m6dfc2183fd" x="511.338651" y="430.765022" style="fill: #8c564b; stroke: #8c564b"/>
     <use xlink:href="#m6dfc2183fd" x="524.820548" y="431.597124" style="fill: #8c564b; stroke: #8c564b"/>
     <use xlink:href="#m6dfc2183fd" x="538.302446" y="432.161403" style="fill: #8c564b; stroke: #8c564b"/>
     <use xlink:href="#m6dfc2183fd" x="551.784343" y="429.132219" style="fill: #8c564b; stroke: #8c564b"/>
     <use xlink:href="#m6dfc2183fd" x="565.266241" y="430.818385" style="fill: #8c564b; stroke: #8c564b"/>
     <use xlink:href="#m6dfc2183fd" x="592.230036" y="349.357295" style="fill: #8c564b; stroke: #8c564b"/>
     <use xlink:href="#m6dfc2183fd" x="605.711933" y="433.332136" style="fill: #8c564b; stroke: #8c564b"/>
     <use xlink:href="#m6dfc2183fd" x="619.193831" y="423.09256" style="fill: #8c564b; stroke: #8c564b"/>
     <use xlink:href="#m6dfc2183fd" x="646.157626" y="432.485219" style="fill: #8c564b; stroke: #8c564b"/>
    </g>
   </g>
   <g id="patch_3">
    <path d="M 64.41375 529.308125 
L 64.41375 23.837812 
" style="fill: none; stroke: #000000; stroke-width: 0.8; stroke-linejoin: miter; stroke-linecap: square"/>
   </g>
   <g id="patch_4">
    <path d="M 702.1075 529.308125 
L 702.1075 23.837812 
" style="fill: none; stroke: #000000; stroke-width: 0.8; stroke-linejoin: miter; stroke-linecap: square"/>
   </g>
   <g id="patch_5">
    <path d="M 64.41375 529.308125 
L 702.1075 529.308125 
" style="fill: none; stroke: #000000; stroke-width: 0.8; stroke-linejoin: miter; stroke-linecap: square"/>
   </g>
   <g id="patch_6">
    <path d="M 64.41375 23.837812 
L 702.1075 23.837812 
" style="fill: none; stroke: #000000; stroke-width: 0.8; stroke-linejoin: miter; stroke-linecap: square"/>
   </g>
   <g id="text_10">
    <text style="font: 700 14px 'DejaVu Sans', 'Bitstream Vera Sans', 'Computer Modern Sans Serif', 'Lucida Grande', 'Verdana', 'Geneva', 'Lucid', 'Arial', 'Helvetica', 'Avant Garde', sans-serif; text-anchor: middle" x="383.260625" y="17.837813" transform="rotate(-0 383.260625 17.837813)">Matrixops - Performance Trend</text>
   </g>
   <g id="legend_1">
    <g id="patch_7">
     <path d="M 740.992188 119.906563 
L 846.004688 119.906563 
Q 848.004688 119.906563 848.004688 117.906563 
L 848.004688 30.837813 
Q 848.004688 28.837813 846.004688 28.837813 
L 740.992188 28.837813 
Q 738.992188 28.837813 738.992188 30.837813 
L 738.992188 117.906563 
Q 738.992188 119.906563 740.992188 119.906563 
z
" style="fill: #ffffff; opacity: 0.8; stroke: #cccccc; stroke-linejoin: miter"/>
    </g>
    <g id="line2d_23">
     <path d="M 742.992188 36.93625 
L 752.992188 36.93625 
L 762.992188 36.93625 
" style="fill: none; stroke: #1f77b4; stroke-width: 2; stroke-linecap: square"/>
     <g>
      <use xlink:href="#m19fb7601a7" x="752.992188" y="36.93625" style="fill: #1f77b4; stroke: #1f77b4"/>
     </g>
    </g>
    <g id="text_11">
     <text style="font: 10px 'DejaVu Sans', 'Bitstream Vera Sans', 'Computer Modern Sans Serif', 'Lucida Grande', 'Verdana', 'Geneva', 'Lucid', 'Arial', 'Helvetica', 'Avant Garde', sans-serif; text-anchor: start" x="770.992188" y="40.43625" transform="rotate(-0 770.992188 40.43625)">gcc-14.2 - V1</text>
    </g>
    <g id="line2d_24">
     <path d="M 742.992188 51.614375 
L 752.992188 51.614375 
L 762.992188 51.614375 
" style="fill: none; stroke: #ff7f0e; stroke-width: 2; stroke-linecap: square"/>
     <g>
      <use xlink:href="#mf28d006e92" x="752.992188" y="51.614375" style="fill: #ff7f0e; stroke: #ff7f0e"/>
     </g>
    </g>
    <g id="text_12">
     <text style="font: 10px 'DejaVu Sans', 'Bitstream Vera Sans', 'Computer Modern Sans Serif', 'Lucida Grande', 'Verdana', 'Geneva', 'Lucid', 'Arial', 'Helvetica', 'Avant Garde', sans-serif; text-anchor: start" x="770.992188" y="55.114375" transform="rotate(-0 770.992188 55.114375)">gcc-14.2 - V2</text>
    </g>
    <g id="line2d_25">
     <path d="M 742.992188 66.2925 
L 752.992188 66.2925 
L 762.992188 66.2925 
" style="fill: none; stroke: #2ca02c; stroke-width: 2; stroke-linecap: square"/>
     <g>
      <use xlink:href="#m2041623cc8" x="752.992188" y="66.2925" style="fill: #2ca02c; stroke: #2ca02c"/>
     </g>
    </g>
    <g id="text_13">
     <text style="font: 10px 'DejaVu Sans', 'Bitstream Vera Sans', 'Computer Modern Sans Serif', 'Lucida Grande', 'Verdana', 'Geneva', 'Lucid', 'Arial', 'Helvetica', 'Avant Garde', sans-serif; text-anchor: start" x="770.992188" y="69.7925" transform="rotate(-0 770.992188 69.7925)">gcc-14.2 - TBB</text>
    </g>
    <g id="line2d_26">
     <path d="M 742.992188 80.970625 
L 752.992188 80.970625 
L 762.992188 80.970625 
" style="fill: none; stroke: #d62728; stroke-width: 2; stroke-linecap: square"/>
     <g>
      <use xlink:href="#meffeab474e" x="752.992188" y="80.970625" style="fill: #d62728; stroke: #d62728"/>
     </g>
    </g>
    <g id="text_14">
     <text style="font: 10px 'DejaVu Sans', 'Bitstream Vera Sans', 'Computer Modern Sans Serif', 'Lucida Grande', 'Verdana', 'Geneva', 'Lucid', 'Arial', 'Helvetica', 'Avant Garde', sans-serif; text-anchor: start" x="770.992188" y="84.470625" transform="rotate(-0 770.992188 84.470625)">gcc-4.2 - V1</text>
    </g>
    <g id="line2d_27">
     <path d="M 742.992188 95.64875 
L 752.992188 95.64875 
L 762.992188 95.64875 
" style="fill: none; stroke: #9467bd; stroke-width: 2; stroke-linecap: square"/>
     <g>
      <use xlink:href="#m4556df8150" x="752.992188" y="95.64875" style="fill: #9467bd; stroke: #9467bd"/>
     </g>
    </g>
    <g id="text_15">
     <text style="font: 10px 'DejaVu Sans', 'Bitstream Vera Sans', 'Computer Modern Sans Serif', 'Lucida Grande', 'Verdana', 'Geneva', 'Lucid', 'Arial', 'Helvetica', 'Avant Garde', sans-serif; text-anchor: start" x="770.992188" y="99.14875" transform="rotate(-0 770.992188 99.14875)">gcc-4.2 - V2</text>
    </g>
    <g id="line2d_28">
     <path d="M 742.992188 110.326875 
L 752.992188 110.326875 
L 762.992188 110.326875 
" style="fill: none; stroke: #8c564b; stroke-width: 2; stroke-linecap: square"/>
     <g>
      <use xlink:href="#m6dfc2183fd" x="752.992188" y="110.326875" style="fill: #8c564b; stroke: #8c564b"/>
     </g>
    </g>
    <g id="text_16">
     <text style="font: 10px 'DejaVu Sans', 'Bitstream Vera Sans', 'Computer Modern Sans Serif', 'Lucida Grande', 'Verdana', 'Geneva', 'Lucid', 'Arial', 'Helvetica', 'Avant Garde', sans-serif; text-anchor: start" x="770.992188" y="113.826875" transform="rotate(-0 770.992188 113.826875)">gcc-4.2 - TBB</text>
    </g>
   </g>
  </g>
 </g>
 <defs>
  <clipPath id="pafe5129309">
   <rect x="64.41375" y="23.837813" width="637.69375" height="505.470313"/>
  </clipPath>
 </defs>
</svg>
