<?xml version="1.0" encoding="utf-8" standalone="no"?>
<!DOCTYPE svg PUBLIC "-//W3C//DTD SVG 1.1//EN"
  "http://www.w3.org/Graphics/SVG/1.1/DTD/svg11.dtd">
<svg xmlns:xlink="http://www.w3.org/1999/xlink" width="856.684141pt" height="568.8pt" viewBox="0 0 856.684141 568.8" xmlns="http://www.w3.org/2000/svg" version="1.1">
 <metadata>
  <rdf:RDF xmlns:dc="http://purl.org/dc/elements/1.1/" xmlns:cc="http://creativecommons.org/ns#" xmlns:rdf="http://www.w3.org/1999/02/22-rdf-syntax-ns#">
   <cc:Work>
    <dc:type rdf:resource="http://purl.org/dc/dcmitype/StillImage"/>
    <dc:date>2026-03-15T13:27:21.057023</dc:date>
    <dc:format>image/svg+xml</dc:format>
    <dc:creator>
     <cc:Agent>
      <dc:title>Matplotlib v3.9.4, https://matplotlib.org/</dc:title>
     </cc:Agent>
    </dc:creator>
   </cc:Work>
  </rdf:RDF>
 </metadata>
 <defs>
  <style type="text/css">*{stroke-linejoin: round; stroke-linecap: butt}</style>
 </defs>
 <g id="figure_1">
  <g id="patch_1">
   <path d="M 0 568.8 
L 856.684141 568.8 
L 856.684141 0 
L 0 0 
z
" style="fill: #ffffff"/>
  </g>
  <g id="axes_1">
   <g id="patch_2">
    <path d="M 64.41375 529.308125 
L 731.696562 529.308125 
L 731.696562 23.837812 
L 64.41375 23.837812 
z
" style="fill: #ffffff"/>
   </g>
   <g id="matplotlib.axis_1">
    <g id="xtick_1">
     <g id="line2d_1">
      <path d="M 83.715319 529.308125 
L 83.715319 23.837812 
" clip-path="url(#p23bd54c44a)" style="fill: none; stroke: #b0b0b0; stroke-opacity: 0.3; stroke-width: 0.8; stroke-linecap: square"/>
     </g>
     <g id="line2d_2">
      <defs>
       <path id="mea582e5332" d="M 0 0 
L 0 3.5 
" style="stroke: #000000; stroke-width: 0.8"/>
      </defs>
      <g>
       <use xlink:href="#mea582e5332" x="83.715319" y="529.308125" style="stroke: #000000; stroke-width: 0.8"/>
      </g>
     </g>
     <g id="text_1">
      <text style="font: 10px 'DejaVu Sans', 'Bitstream Vera Sans', 'Computer Modern Sans Serif', 'Lucida Grande', 'Verdana', 'Geneva', 'Lucid', 'Arial', 'Helvetica', 'Avant Garde', sans-serif; text-anchor: middle" x="83.715319" y="543.906563" transform="rotate(-0 83.715319 543.906563)">70</text>
     </g>
    </g>
    <g id="xtick_2">
     <g id="line2d_3">
      <path d="M 194.009999 529.308125 
L 194.009999 23.837812 
" clip-path="url(#p23bd54c44a)" style="fill: none; stroke: #b0b0b0; stroke-opacity: 0.3; stroke-width: 0.8; stroke-linecap: square"/>
     </g>
     <g id="line2d_4">
      <g>
       <use xlink:href="#mea582e5332" x="194.009999" y="529.308125" style="stroke: #000000; stroke-width: 0.8"/>
      </g>
     </g>
     <g id="text_2">
      <text style="font: 10px 'DejaVu Sans', 'Bitstream Vera Sans', 'Computer Modern Sans Serif', 'Lucida Grande', 'Verdana', 'Geneva', 'Lucid', 'Arial', 'Helvetica', 'Avant Garde', sans-serif; text-anchor: middle" x="194.009999" y="543.906563" transform="rotate(-0 194.009999 543.906563)">80</text>
     </g>
    </g>
    <g id="xtick_3">
     <g id="line2d_5">
      <path d="M 304.304678 529.308125 
L 304.304678 23.837812 
" clip-path="url(#p23bd54c44a)" style="fill: none; stroke: #b0b0b0; stroke-opacity: 0.3; stroke-width: 0.8; stroke-linecap: square"/>
     </g>
     <g id="line2d_6">
      <g>
       <use xlink:href="#mea582e5332" x="304.304678" y="529.308125" style="stroke: #000000; stroke-width: 0.8"/>
      </g>
     </g>
     <g id="text_3">
      <text style="font: 10px 'DejaVu Sans', 'Bitstream Vera Sans', 'Computer Modern Sans Serif', 'Lucida Grande', 'Verdana', 'Geneva', 'Lucid', 'Arial', 'Helvetica', 'Avant Garde', sans-serif; text-anchor: middle" x="304.304678" y="543.906563" transform="rotate(-0 304.304678 543.906563)">90</text>
     </g>
    </g>
    <g id="xtick_4">
     <g id="line2d_7">
      <path d="M 414.599358 529.308125 
L 414.599358 23.837812 
" clip-path="url(#p23bd54c44a)" style="fill: none; stroke: #b0b0b0; stroke-opacity: 0.3; stroke-width: 0.8; stroke-linecap: square"/>
     </g>
     <g id="line2d_8">
      <g>
       <use xlink:href="#mea582e5332" x="414.599358" y="529.308125" style="stroke: #000000; stroke-width: 0.8"/>
      </g>
     </g>
     <g id="text_4">
      <text style="font: 10px 'DejaVu Sans', 'Bitstream Vera Sans', 'Computer Modern Sans Serif', 'Lucida Grande', 'Verdana', 'Geneva', 'Lucid', 'Arial', 'Helvetica', 'Avant Garde', sans-serif; text-anchor: middle" x="414.599358" y="543.906563" transform="rotate(-0 414.599358 543.906563)">100</text>
     </g>
    </g>
    <g id="xtick_5">
     <g id="line2d_9">
      <path d="M 524.894038 529.308125 
L 524.894038 23.837812 
" clip-path="url(#p23bd54c44a)" style="fill: none; stroke: #b0b0b0; stroke-opacity: 0.3; stroke-width: 0.8; stroke-linecap: square"/>
     </g>
     <g id="line2d_10">
      <g>
       <use xlink:href="#mea582e5332" x="524.894038" y="529.308125" style="stroke: #000000; stroke-width: 0.8"/>
      </g>
     </g>
     <g id="text_5">
      <text style="font: 10px 'DejaVu Sans', 'Bitstream Vera Sans', 'Computer Modern Sans Serif', 'Lucida Grande', 'Verdana', 'Geneva', 'Lucid', 'Arial', 'Helvetica', 'Avant Garde', sans-serif; text-anchor: middle" x="524.894038" y="543.906563" transform="rotate(-0 524.894038 543.906563)">110</text>
     </g>
    </g>
    <g id="xtick_6">
     <g id="line2d_11">
      <path d="M 635.188718 529.308125 
L 635.188718 23.837812 
" clip-path="url(#p23bd54c44a)" style="fill: none; stroke: #b0b0b0; stroke-opacity: 0.3; stroke-width: 0.8; stroke-linecap: square"/>
     </g>
     <g id="line2d_12">
      <g>
       <use xlink:href="#mea582e5332" x="635.188718" y="529.308125" style="stroke: #000000; stroke-width: 0.8"/>
      </g>
     </g>
     <g id="text_6">
      <text style="font: 10px 'DejaVu Sans', 'Bitstream Vera Sans', 'Computer Modern Sans Serif', 'Lucida Grande', 'Verdana', 'Geneva', 'Lucid', 'Arial', 'Helvetica', 'Avant Garde', sans-serif; text-anchor: middle" x="635.188718" y="543.906563" transform="rotate(-0 635.188718 543.906563)">120</text>
     </g>
    </g>
    <g id="text_7">
     <text style="font: 12px 'DejaVu Sans', 'Bitstream Vera Sans', 'Computer Modern Sans Serif', 'Lucida Grande', 'Verdana', 'Geneva', 'Lucid', 'Arial', 'Helvetica', 'Avant Garde', sans-serif; text-anchor: middle" x="398.055156" y="559.104375" transform="rotate(-0 398.055156 559.104375)">Build Number</text>
    </g>
   </g>
   <g id="matplotlib.axis_2">
    <g id="ytick_1">
     <g id="line2d_13">
      <path d="M 64.41375 312.275462 
L 731.696562 312.275462 
" clip-path="url(#p23bd54c44a)" style="fill: none; stroke: #b0b0b0; stroke-opacity: 0.3; stroke-width: 0.8; stroke-linecap: square"/>
     </g>
     <g id="line2d_14">
      <defs>
       <path id="m40bb3a44c8" d="M 0 0 
L -3.5 0 
" style="stroke: #000000; stroke-width: 0.8"/>
      </defs>
      <g>
       <use xlink:href="#m40bb3a44c8" x="64.41375" y="312.275462" style="stroke: #000000; stroke-width: 0.8"/>
      </g>
     </g>
     <g id="text_8">
      <!-- $\mathdefault{10^{1}}$ -->
      <g transform="translate(39.81375 316.074681)">
       <text>
        <tspan style="font: 10px 'DejaVu Sans'" x="0 6.362305" y="-0.06406250000000036">10</tspan>
        <tspan style="font: 7px 'DejaVu Sans'" x="12.820312" y="-3.8921875000000004">1</tspan>
       </text>
      </g>
     </g>
    </g>
    <g id="ytick_2">
     <g id="line2d_15">
      <defs>
       <path id="m56f3feef4c" d="M 0 0 
L -2 0 
" style="stroke: #000000; stroke-width: 0.6"/>
      </defs>
      <g>
       <use xlink:href="#m56f3feef4c" x="64.41375" y="483.768992" style="stroke: #000000; stroke-width: 0.6"/>
      </g>
     </g>
     <g id="text_9">
      <!-- $\mathdefault{6\times10^{0}}$ -->
      <g transform="translate(22.81375 487.568211)">
       <text>
        <tspan style="font: 10px 'DejaVu Sans'" x="0 8.310547 18.637695 25" y="-0.9765625">6×10</tspan>
        <tspan style="font: 7px 'DejaVu Sans'" x="31.458008" y="-4.8046875">0</tspan>
       </text>
      </g>
     </g>
    </g>
    <g id="ytick_3">
     <g id="line2d_16">
      <g>
       <use xlink:href="#m56f3feef4c" x="64.41375" y="432.017782" style="stroke: #000000; stroke-width: 0.6"/>
      </g>
     </g>
    </g>
    <g id="ytick_4">
     <g id="line2d_17">
      <g>
       <use xlink:href="#m56f3feef4c" x="64.41375" y="387.188844" style="stroke: #000000; stroke-width: 0.6"/>
      </g>
     </g>
    </g>
    <g id="ytick_5">
     <g id="line2d_18">
      <g>
       <use xlink:href="#m56f3feef4c" x="64.41375" y="347.646919" style="stroke: #000000; stroke-width: 0.6"/>
      </g>
     </g>
    </g>
    <g id="ytick_6">
     <g id="line2d_19">
      <g>
       <use xlink:href="#m56f3feef4c" x="64.41375" y="79.573242" style="stroke: #000000; stroke-width: 0.6"/>
      </g>
     </g>
     <g id="text_10">
      <!-- $\mathdefault{2\times10^{1}}$ -->
      <g transform="translate(22.81375 83.37246)">
       <text>
        <tspan style="font: 10px 'DejaVu Sans'" x="0 8.310547 18.637695 25" y="-0.06406250000000036">2×10</tspan>
        <tspan style="font: 7px 'DejaVu Sans'" x="31.458008" y="-3.8921875000000004">1</tspan>
       </text>
      </g>
     </g>
    </g>
    <g id="text_11">
     <text style="font: 12px 'DejaVu Sans', 'Bitstream Vera Sans', 'Computer Modern Sans Serif', 'Lucida Grande', 'Verdana', 'Geneva', 'Lucid', 'Arial', 'Helvetica', 'Avant Garde', sans-serif; text-anchor: middle" x="16.318125" y="276.572969" transform="rotate(-90 16.318125 276.572969)">Median Elapsed Time (nanoseconds)</text>
    </g>
   </g>
   <g id="line2d_20">
    <path d="M 94.744787 466.325155 
L 105.774255 466.856775 
L 116.803723 461.578076 
L 127.833191 466.856775 
L 138.862659 472.219802 
L 149.892127 466.856775 
L 160.921595 466.856775 
L 171.951063 466.856775 
L 182.980531 466.856775 
L 194.009999 466.856775 
L 205.039467 461.578076 
L 216.068935 466.856775 
L 227.098403 466.856775 
L 249.157339 466.856775 
L 260.186807 466.856775 
L 282.245743 466.856775 
L 293.27521 466.856775 
L 304.304678 466.856775 
L 315.334146 466.856775 
L 326.363614 466.856775 
L 348.42255 466.856775 
L 359.452018 466.856775 
L 370.481486 466.325155 
L 381.510954 472.219802 
L 403.56989 466.856775 
L 414.599358 466.856775 
L 425.628826 461.578076 
L 436.658294 466.856775 
L 447.687762 466.856775 
L 458.71723 466.856775 
L 469.746698 461.578076 
L 480.776166 466.325155 
L 502.835102 461.054743 
L 513.86457 456.381094 
L 524.894038 456.381094 
L 546.952974 456.381094 
L 580.041378 456.381094 
L 591.070846 456.381094 
L 602.100314 456.381094 
L 613.129782 456.381094 
L 624.15925 456.381094 
L 635.188718 456.381094 
L 646.218186 456.381094 
L 657.247654 456.381094 
L 668.277122 456.381094 
L 679.30659 370.010712 
L 701.365526 456.381094 
" clip-path="url(#p23bd54c44a)" style="fill: none; stroke: #1f77b4; stroke-width: 2; stroke-linecap: square"/>
    <defs>
     <path id="m3e0af58eb3" d="M 0 3 
C 0.795609 3 1.55874 2.683901 2.12132 2.12132 
C 2.683901 1.55874 3 0.795609 3 0 
C 3 -0.795609 2.683901 -1.55874 2.12132 -2.12132 
C 1.55874 -2.683901 0.795609 -3 0 -3 
C -0.795609 -3 -1.55874 -2.683901 -2.12132 -2.12132 
C -2.683901 -1.55874 -3 -0.795609 -3 0 
C -3 0.795609 -2.683901 1.55874 -2.12132 2.12132 
C -1.55874 2.683901 -0.795609 3 0 3 
z
" style="stroke: #1f77b4"/>
    </defs>
    <g clip-path="url(#p23bd54c44a)">
     <use xlink:href="#m3e0af58eb3" x="94.744787" y="466.325155" style="fill: #1f77b4; stroke: #1f77b4"/>
     <use xlink:href="#m3e0af58eb3" x="105.774255" y="466.856775" style="fill: #1f77b4; stroke: #1f77b4"/>
     <use xlink:href="#m3e0af58eb3" x="116.803723" y="461.578076" style="fill: #1f77b4; stroke: #1f77b4"/>
     <use xlink:href="#m3e0af58eb3" x="127.833191" y="466.856775" style="fill: #1f77b4; stroke: #1f77b4"/>
     <use xlink:href="#m3e0af58eb3" x="138.862659" y="472.219802" style="fill: #1f77b4; stroke: #1f77b4"/>
     <use xlink:href="#m3e0af58eb3" x="149.892127" y="466.856775" style="fill: #1f77b4; stroke: #1f77b4"/>
     <use xlink:href="#m3e0af58eb3" x="160.921595" y="466.856775" style="fill: #1f77b4; stroke: #1f77b4"/>
     <use xlink:href="#m3e0af58eb3" x="171.951063" y="466.856775" style="fill: #1f77b4; stroke: #1f77b4"/>
     <use xlink:href="#m3e0af58eb3" x="182.980531" y="466.856775" style="fill: #1f77b4; stroke: #1f77b4"/>
     <use xlink:href="#m3e0af58eb3" x="194.009999" y="466.856775" style="fill: #1f77b4; stroke: #1f77b4"/>
     <use xlink:href="#m3e0af58eb3" x="205.039467" y="461.578076" style="fill: #1f77b4; stroke: #1f77b4"/>
     <use xlink:href="#m3e0af58eb3" x="216.068935" y="466.856775" style="fill: #1f77b4; stroke: #1f77b4"/>
     <use xlink:href="#m3e0af58eb3" x="227.098403" y="466.856775" style="fill: #1f77b4; stroke: #1f77b4"/>
     <use xlink:href="#m3e0af58eb3" x="249.157339" y="466.856775" style="fill: #1f77b4; stroke: #1f77b4"/>
     <use xlink:href="#m3e0af58eb3" x="260.186807" y="466.856775" style="fill: #1f77b4; stroke: #1f77b4"/>
     <use xlink:href="#m3e0af58eb3" x="282.245743" y="466.856775" style="fill: #1f77b4; stroke: #1f77b4"/>
     <use xlink:href="#m3e0af58eb3" x="293.27521" y="466.856775" style="fill: #1f77b4; stroke: #1f77b4"/>
     <use xlink:href="#m3e0af58eb3" x="304.304678" y="466.856775" style="fill: #1f77b4; stroke: #1f77b4"/>
     <use xlink:href="#m3e0af58eb3" x="315.334146" y="466.856775" style="fill: #1f77b4; stroke: #1f77b4"/>
     <use xlink:href="#m3e0af58eb3" x="326.363614" y="466.856775" style="fill: #1f77b4; stroke: #1f77b4"/>
     <use xlink:href="#m3e0af58eb3" x="348.42255" y="466.856775" style="fill: #1f77b4; stroke: #1f77b4"/>
     <use xlink:href="#m3e0af58eb3" x="359.452018" y="466.856775" style="fill: #1f77b4; stroke: #1f77b4"/>
     <use xlink:href="#m3e0af58eb3" x="370.481486" y="466.325155" style="fill: #1f77b4; stroke: #1f77b4"/>
     <use xlink:href="#m3e0af58eb3" x="381.510954" y="472.219802" style="fill: #1f77b4; stroke: #1f77b4"/>
     <use xlink:href="#m3e0af58eb3" x="403.56989" y="466.856775" style="fill: #1f77b4; stroke: #1f77b4"/>
     <use xlink:href="#m3e0af58eb3" x="414.599358" y="466.856775" style="fill: #1f77b4; stroke: #1f77b4"/>
     <use xlink:href="#m3e0af58eb3" x="425.628826" y="461.578076" style="fill: #1f77b4; stroke: #1f77b4"/>
     <use xlink:href="#m3e0af58eb3" x="436.658294" y="466.856775" style="fill: #1f77b4; stroke: #1f77b4"/>
     <use xlink:href="#m3e0af58eb3" x="447.687762" y="466.856775" style="fill: #1f77b4; stroke: #1f77b4"/>
     <use xlink:href="#m3e0af58eb3" x="458.71723" y="466.856775" style="fill: #1f77b4; stroke: #1f77b4"/>
     <use xlink:href="#m3e0af58eb3" x="469.746698" y="461.578076" style="fill: #1f77b4; stroke: #1f77b4"/>
     <use xlink:href="#m3e0af58eb3" x="480.776166" y="466.325155" style="fill: #1f77b4; stroke: #1f77b4"/>
     <use xlink:href="#m3e0af58eb3" x="502.835102" y="461.054743" style="fill: #1f77b4; stroke: #1f77b4"/>
     <use xlink:href="#m3e0af58eb3" x="513.86457" y="456.381094" style="fill: #1f77b4; stroke: #1f77b4"/>
     <use xlink:href="#m3e0af58eb3" x="524.894038" y="456.381094" style="fill: #1f77b4; stroke: #1f77b4"/>
     <use xlink:href="#m3e0af58eb3" x="546.952974" y="456.381094" style="fill: #1f77b4; stroke: #1f77b4"/>
     <use xlink:href="#m3e0af58eb3" x="580.041378" y="456.381094" style="fill: #1f77b4; stroke: #1f77b4"/>
     <use xlink:href="#m3e0af58eb3" x="591.070846" y="456.381094" style="fill: #1f77b4; stroke: #1f77b4"/>
     <use xlink:href="#m3e0af58eb3" x="602.100314" y="456.381094" style="fill: #1f77b4; stroke: #1f77b4"/>
     <use xlink:href="#m3e0af58eb3" x="613.129782" y="456.381094" style="fill: #1f77b4; stroke: #1f77b4"/>
     <use xlink:href="#m3e0af58eb3" x="624.15925" y="456.381094" style="fill: #1f77b4; stroke: #1f77b4"/>
     <use xlink:href="#m3e0af58eb3" x="635.188718" y="456.381094" style="fill: #1f77b4; stroke: #1f77b4"/>
     <use xlink:href="#m3e0af58eb3" x="646.218186" y="456.381094" style="fill: #1f77b4; stroke: #1f77b4"/>
     <use xlink:href="#m3e0af58eb3" x="657.247654" y="456.381094" style="fill: #1f77b4; stroke: #1f77b4"/>
     <use xlink:href="#m3e0af58eb3" x="668.277122" y="456.381094" style="fill: #1f77b4; stroke: #1f77b4"/>
     <use xlink:href="#m3e0af58eb3" x="679.30659" y="370.010712" style="fill: #1f77b4; stroke: #1f77b4"/>
     <use xlink:href="#m3e0af58eb3" x="701.365526" y="456.381094" style="fill: #1f77b4; stroke: #1f77b4"/>
    </g>
   </g>
   <g id="line2d_21">
    <path d="M 94.744787 506.332202 
L 105.774255 483.209927 
L 116.803723 483.209927 
L 127.833191 483.209927 
L 138.862659 483.209927 
L 149.892127 477.669895 
L 160.921595 482.651792 
L 171.951063 482.651792 
L 182.980531 483.209927 
L 194.009999 483.209927 
L 205.039467 483.209927 
L 216.068935 403.526635 
L 227.098403 477.669895 
L 238.127871 483.209927 
L 249.157339 483.209927 
L 260.186807 477.669895 
L 282.245743 472.219802 
L 293.27521 482.651792 
L 304.304678 478.219802 
L 315.334146 483.209927 
L 326.363614 482.651792 
L 337.393082 483.209927 
L 348.42255 477.669895 
L 359.452018 483.209927 
L 370.481486 483.209927 
L 381.510954 335.917575 
L 403.56989 483.209927 
L 414.599358 483.209927 
L 425.628826 483.209927 
L 436.658294 482.651792 
L 447.687762 477.669895 
L 458.71723 483.209927 
L 469.746698 483.209927 
L 480.776166 477.669895 
L 502.835102 477.669895 
L 513.86457 478.219802 
L 524.894038 482.651792 
L 535.923506 483.209927 
L 546.952974 478.219802 
L 569.01191 477.669895 
L 580.041378 477.669895 
L 591.070846 483.209927 
L 602.100314 483.209927 
L 613.129782 482.651792 
L 624.15925 483.209927 
L 635.188718 483.209927 
L 646.218186 483.209927 
L 657.247654 46.813736 
L 668.277122 483.209927 
L 679.30659 477.669895 
" clip-path="url(#p23bd54c44a)" style="fill: none; stroke: #ff7f0e; stroke-width: 2; stroke-linecap: square"/>
    <defs>
     <path id="m4115997e6e" d="M 0 3 
C 0.795609 3 1.55874 2.683901 2.12132 2.12132 
C 2.683901 1.55874 3 0.795609 3 0 
C 3 -0.795609 2.683901 -1.55874 2.12132 -2.12132 
C 1.55874 -2.683901 0.795609 -3 0 -3 
C -0.795609 -3 -1.55874 -2.683901 -2.12132 -2.12132 
C -2.683901 -1.55874 -3 -0.795609 -3 0 
C -3 0.795609 -2.683901 1.55874 -2.12132 2.12132 
C -1.55874 2.683901 -0.795609 3 0 3 
z
" style="stroke: #ff7f0e"/>
    </defs>
    <g clip-path="url(#p23bd54c44a)">
     <use xlink:href="#m4115997e6e" x="94.744787" y="506.332202" style="fill: #ff7f0e; stroke: #ff7f0e"/>
     <use xlink:href="#m4115997e6e" x="105.774255" y="483.209927" style="fill: #ff7f0e; stroke: #ff7f0e"/>
     <use xlink:href="#m4115997e6e" x="116.803723" y="483.209927" style="fill: #ff7f0e; stroke: #ff7f0e"/>
     <use xlink:href="#m4115997e6e" x="127.833191" y="483.209927" style="fill: #ff7f0e; stroke: #ff7f0e"/>
     <use xlink:href="#m4115997e6e" x="138.862659" y="483.209927" style="fill: #ff7f0e; stroke: #ff7f0e"/>
     <use xlink:href="#m4115997e6e" x="149.892127" y="477.669895" style="fill: #ff7f0e; stroke: #ff7f0e"/>
     <use xlink:href="#m4115997e6e" x="160.921595" y="482.651792" style="fill: #ff7f0e; stroke: #ff7f0e"/>
     <use xlink:href="#m4115997e6e" x="171.951063" y="482.651792" style="fill: #ff7f0e; stroke: #ff7f0e"/>
     <use xlink:href="#m4115997e6e" x="182.980531" y="483.209927" style="fill: #ff7f0e; stroke: #ff7f0e"/>
     <use xlink:href="#m4115997e6e" x="194.009999" y="483.209927" style="fill: #ff7f0e; stroke: #ff7f0e"/>
     <use xlink:href="#m4115997e6e" x="205.039467" y="483.209927" style="fill: #ff7f0e; stroke: #ff7f0e"/>
     <use xlink:href="#m4115997e6e" x="216.068935" y="403.526635" style="fill: #ff7f0e; stroke: #ff7f0e"/>
     <use xlink:href="#m4115997e6e" x="227.098403" y="477.669895" style="fill: #ff7f0e; stroke: #ff7f0e"/>
     <use xlink:href="#m4115997e6e" x="238.127871" y="483.209927" style="fill: #ff7f0e; stroke: #ff7f0e"/>
     <use xlink:href="#m4115997e6e" x="249.157339" y="483.209927" style="fill: #ff7f0e; stroke: #ff7f0e"/>
     <use xlink:href="#m4115997e6e" x="260.186807" y="477.669895" style="fill: #ff7f0e; stroke: #ff7f0e"/>
     <use xlink:href="#m4115997e6e" x="282.245743" y="472.219802" style="fill: #ff7f0e; stroke: #ff7f0e"/>
     <use xlink:href="#m4115997e6e" x="293.27521" y="482.651792" style="fill: #ff7f0e; stroke: #ff7f0e"/>
     <use xlink:href="#m4115997e6e" x="304.304678" y="478.219802" style="fill: #ff7f0e; stroke: #ff7f0e"/>
     <use xlink:href="#m4115997e6e" x="315.334146" y="483.209927" style="fill: #ff7f0e; stroke: #ff7f0e"/>
     <use xlink:href="#m4115997e6e" x="326.363614" y="482.651792" style="fill: #ff7f0e; stroke: #ff7f0e"/>
     <use xlink:href="#m4115997e6e" x="337.393082" y="483.209927" style="fill: #ff7f0e; stroke: #ff7f0e"/>
     <use xlink:href="#m4115997e6e" x="348.42255" y="477.669895" style="fill: #ff7f0e; stroke: #ff7f0e"/>
     <use xlink:href="#m4115997e6e" x="359.452018" y="483.209927" style="fill: #ff7f0e; stroke: #ff7f0e"/>
     <use xlink:href="#m4115997e6e" x="370.481486" y="483.209927" style="fill: #ff7f0e; stroke: #ff7f0e"/>
     <use xlink:href="#m4115997e6e" x="381.510954" y="335.917575" style="fill: #ff7f0e; stroke: #ff7f0e"/>
     <use xlink:href="#m4115997e6e" x="403.56989" y="483.209927" style="fill: #ff7f0e; stroke: #ff7f0e"/>
     <use xlink:href="#m4115997e6e" x="414.599358" y="483.209927" style="fill: #ff7f0e; stroke: #ff7f0e"/>
     <use xlink:href="#m4115997e6e" x="425.628826" y="483.209927" style="fill: #ff7f0e; stroke: #ff7f0e"/>
     <use xlink:href="#m4115997e6e" x="436.658294" y="482.651792" style="fill: #ff7f0e; stroke: #ff7f0e"/>
     <use xlink:href="#m4115997e6e" x="447.687762" y="477.669895" style="fill: #ff7f0e; stroke: #ff7f0e"/>
     <use xlink:href="#m4115997e6e" x="458.71723" y="483.209927" style="fill: #ff7f0e; stroke: #ff7f0e"/>
     <use xlink:href="#m4115997e6e" x="469.746698" y="483.209927" style="fill: #ff7f0e; stroke: #ff7f0e"/>
     <use xlink:href="#m4115997e6e" x="480.776166" y="477.669895" style="fill: #ff7f0e; stroke: #ff7f0e"/>
     <use xlink:href="#m4115997e6e" x="502.835102" y="477.669895" style="fill: #ff7f0e; stroke: #ff7f0e"/>
     <use xlink:href="#m4115997e6e" x="513.86457" y="478.219802" style="fill: #ff7f0e; stroke: #ff7f0e"/>
     <use xlink:href="#m4115997e6e" x="524.894038" y="482.651792" style="fill: #ff7f0e; stroke: #ff7f0e"/>
     <use xlink:href="#m4115997e6e" x="535.923506" y="483.209927" style="fill: #ff7f0e; stroke: #ff7f0e"/>
     <use xlink:href="#m4115997e6e" x="546.952974" y="478.219802" style="fill: #ff7f0e; stroke: #ff7f0e"/>
     <use xlink:href="#m4115997e6e" x="569.01191" y="477.669895" style="fill: #ff7f0e; stroke: #ff7f0e"/>
     <use xlink:href="#m4115997e6e" x="580.041378" y="477.669895" style="fill: #ff7f0e; stroke: #ff7f0e"/>
     <use xlink:href="#m4115997e6e" x="591.070846" y="483.209927" style="fill: #ff7f0e; stroke: #ff7f0e"/>
     <use xlink:href="#m4115997e6e" x="602.100314" y="483.209927" style="fill: #ff7f0e; stroke: #ff7f0e"/>
     <use xlink:href="#m4115997e6e" x="613.129782" y="482.651792" style="fill: #ff7f0e; stroke: #ff7f0e"/>
     <use xlink:href="#m4115997e6e" x="624.15925" y="483.209927" style="fill: #ff7f0e; stroke: #ff7f0e"/>
     <use xlink:href="#m4115997e6e" x="635.188718" y="483.209927" style="fill: #ff7f0e; stroke: #ff7f0e"/>
     <use xlink:href="#m4115997e6e" x="646.218186" y="483.209927" style="fill: #ff7f0e; stroke: #ff7f0e"/>
     <use xlink:href="#m4115997e6e" x="657.247654" y="46.813736" style="fill: #ff7f0e; stroke: #ff7f0e"/>
     <use xlink:href="#m4115997e6e" x="668.277122" y="483.209927" style="fill: #ff7f0e; stroke: #ff7f0e"/>
     <use xlink:href="#m4115997e6e" x="679.30659" y="477.669895" style="fill: #ff7f0e; stroke: #ff7f0e"/>
    </g>
   </g>
   <g id="patch_3">
    <path d="M 64.41375 529.308125 
L 64.41375 23.837813 
" style="fill: none; stroke: #000000; stroke-width: 0.8; stroke-linejoin: miter; stroke-linecap: square"/>
   </g>
   <g id="patch_4">
    <path d="M 731.696562 529.308125 
L 731.696562 23.837813 
" style="fill: none; stroke: #000000; stroke-width: 0.8; stroke-linejoin: miter; stroke-linecap: square"/>
   </g>
   <g id="patch_5">
    <path d="M 64.41375 529.308125 
L 731.696562 529.308125 
" style="fill: none; stroke: #000000; stroke-width: 0.8; stroke-linejoin: miter; stroke-linecap: square"/>
   </g>
   <g id="patch_6">
    <path d="M 64.41375 23.837812 
L 731.696562 23.837812 
" style="fill: none; stroke: #000000; stroke-width: 0.8; stroke-linejoin: miter; stroke-linecap: square"/>
   </g>
   <g id="text_12">
    <text style="font: 700 14px 'DejaVu Sans', 'Bitstream Vera Sans', 'Computer Modern Sans Serif', 'Lucida Grande', 'Verdana', 'Geneva', 'Lucid', 'Arial', 'Helvetica', 'Avant Garde', sans-serif; text-anchor: middle" x="398.055156" y="17.837813" transform="rotate(-0 398.055156 17.837813)">Ts Shared Linear Single Thread - Performance Trend</text>
   </g>
   <g id="legend_1">
    <g id="patch_7">
     <path d="M 772.060703 61.194063 
L 847.484141 61.194063 
Q 849.484141 61.194063 849.484141 59.194063 
L 849.484141 30.837813 
Q 849.484141 28.837813 847.484141 28.837813 
L 772.060703 28.837813 
Q 770.060703 28.837813 770.060703 30.837813 
L 770.060703 59.194063 
Q 770.060703 61.194063 772.060703 61.194063 
z
" style="fill: #ffffff; opacity: 0.8; stroke: #cccccc; stroke-linejoin: miter"/>
    </g>
    <g id="line2d_22">
     <path d="M 774.060703 36.93625 
L 784.060703 36.93625 
L 794.060703 36.93625 
" style="fill: none; stroke: #1f77b4; stroke-width: 2; stroke-linecap: square"/>
     <g>
      <use xlink:href="#m3e0af58eb3" x="784.060703" y="36.93625" style="fill: #1f77b4; stroke: #1f77b4"/>
     </g>
    </g>
    <g id="text_13">
     <text style="font: 10px 'DejaVu Sans', 'Bitstream Vera Sans', 'Computer Modern Sans Serif', 'Lucida Grande', 'Verdana', 'Geneva', 'Lucid', 'Arial', 'Helvetica', 'Avant Garde', sans-serif; text-anchor: start" x="802.060703" y="40.43625" transform="rotate(-0 802.060703 40.43625)">clang-18</text>
    </g>
    <g id="line2d_23">
     <path d="M 774.060703 51.614375 
L 784.060703 51.614375 
L 794.060703 51.614375 
" style="fill: none; stroke: #ff7f0e; stroke-width: 2; stroke-linecap: square"/>
     <g>
      <use xlink:href="#m4115997e6e" x="784.060703" y="51.614375" style="fill: #ff7f0e; stroke: #ff7f0e"/>
     </g>
    </g>
    <g id="text_14">
     <text style="font: 10px 'DejaVu Sans', 'Bitstream Vera Sans', 'Computer Modern Sans Serif', 'Lucida Grande', 'Verdana', 'Geneva', 'Lucid', 'Arial', 'Helvetica', 'Avant Garde', sans-serif; text-anchor: start" x="802.060703" y="55.114375" transform="rotate(-0 802.060703 55.114375)">gcc-14</text>
    </g>
   </g>
  </g>
 </g>
 <defs>
  <clipPath id="p23bd54c44a">
   <rect x="64.41375" y="23.837813" width="667.282812" height="505.470313"/>
  </clipPath>
 </defs>
</svg>
