<?xml version="1.0" encoding="utf-8" standalone="no"?>
<!DOCTYPE svg PUBLIC "-//W3C//DTD SVG 1.1//EN"
  "http://www.w3.org/Graphics/SVG/1.1/DTD/svg11.dtd">
<svg xmlns:xlink="http://www.w3.org/1999/xlink" width="855.204687pt" height="568.8pt" viewBox="0 0 855.204687 568.8" xmlns="http://www.w3.org/2000/svg" version="1.1">
 <metadata>
  <rdf:RDF xmlns:dc="http://purl.org/dc/elements/1.1/" xmlns:cc="http://creativecommons.org/ns#" xmlns:rdf="http://www.w3.org/1999/02/22-rdf-syntax-ns#">
   <cc:Work>
    <dc:type rdf:resource="http://purl.org/dc/dcmitype/StillImage"/>
    <dc:date>2025-08-13T22:54:33.350106</dc:date>
    <dc:format>image/svg+xml</dc:format>
    <dc:creator>
     <cc:Agent>
      <dc:title>Matplotlib v3.9.4, https://matplotlib.org/</dc:title>
     </cc:Agent>
    </dc:creator>
   </cc:Work>
  </rdf:RDF>
 </metadata>
 <defs>
  <style type="text/css">*{stroke-linejoin: round; stroke-linecap: butt}</style>
 </defs>
 <g id="figure_1">
  <g id="patch_1">
   <path d="M 0 568.8 
L 855.204687 568.8 
L 855.204687 0 
L 0 0 
z
" style="fill: #ffffff"/>
  </g>
  <g id="axes_1">
   <g id="patch_2">
    <path d="M 64.41375 529.308125 
L 702.1075 529.308125 
L 702.1075 23.837812 
L 64.41375 23.837812 
z
" style="fill: #ffffff"/>
   </g>
   <g id="matplotlib.axis_1">
    <g id="xtick_1">
     <g id="line2d_1">
      <path d="M 144.551735 529.308125 
L 144.551735 23.837812 
" clip-path="url(#pf0047204cd)" style="fill: none; stroke: #b0b0b0; stroke-opacity: 0.3; stroke-width: 0.8; stroke-linecap: square"/>
     </g>
     <g id="line2d_2">
      <defs>
       <path id="mfb0cae91dd" d="M 0 0 
L 0 3.5 
" style="stroke: #000000; stroke-width: 0.8"/>
      </defs>
      <g>
       <use xlink:href="#mfb0cae91dd" x="144.551735" y="529.308125" style="stroke: #000000; stroke-width: 0.8"/>
      </g>
     </g>
     <g id="text_1">
      <text style="font: 10px 'DejaVu Sans', 'Bitstream Vera Sans', 'Computer Modern Sans Serif', 'Lucida Grande', 'Verdana', 'Geneva', 'Lucid', 'Arial', 'Helvetica', 'Avant Garde', sans-serif; text-anchor: middle" x="144.551735" y="543.906563" transform="rotate(-0 144.551735 543.906563)">72.5</text>
     </g>
    </g>
    <g id="xtick_2">
     <g id="line2d_3">
      <path d="M 229.80491 529.308125 
L 229.80491 23.837812 
" clip-path="url(#pf0047204cd)" style="fill: none; stroke: #b0b0b0; stroke-opacity: 0.3; stroke-width: 0.8; stroke-linecap: square"/>
     </g>
     <g id="line2d_4">
      <g>
       <use xlink:href="#mfb0cae91dd" x="229.80491" y="529.308125" style="stroke: #000000; stroke-width: 0.8"/>
      </g>
     </g>
     <g id="text_2">
      <text style="font: 10px 'DejaVu Sans', 'Bitstream Vera Sans', 'Computer Modern Sans Serif', 'Lucida Grande', 'Verdana', 'Geneva', 'Lucid', 'Arial', 'Helvetica', 'Avant Garde', sans-serif; text-anchor: middle" x="229.80491" y="543.906563" transform="rotate(-0 229.80491 543.906563)">75.0</text>
     </g>
    </g>
    <g id="xtick_3">
     <g id="line2d_5">
      <path d="M 315.058085 529.308125 
L 315.058085 23.837812 
" clip-path="url(#pf0047204cd)" style="fill: none; stroke: #b0b0b0; stroke-opacity: 0.3; stroke-width: 0.8; stroke-linecap: square"/>
     </g>
     <g id="line2d_6">
      <g>
       <use xlink:href="#mfb0cae91dd" x="315.058085" y="529.308125" style="stroke: #000000; stroke-width: 0.8"/>
      </g>
     </g>
     <g id="text_3">
      <text style="font: 10px 'DejaVu Sans', 'Bitstream Vera Sans', 'Computer Modern Sans Serif', 'Lucida Grande', 'Verdana', 'Geneva', 'Lucid', 'Arial', 'Helvetica', 'Avant Garde', sans-serif; text-anchor: middle" x="315.058085" y="543.906563" transform="rotate(-0 315.058085 543.906563)">77.5</text>
     </g>
    </g>
    <g id="xtick_4">
     <g id="line2d_7">
      <path d="M 400.31126 529.308125 
L 400.31126 23.837812 
" clip-path="url(#pf0047204cd)" style="fill: none; stroke: #b0b0b0; stroke-opacity: 0.3; stroke-width: 0.8; stroke-linecap: square"/>
     </g>
     <g id="line2d_8">
      <g>
       <use xlink:href="#mfb0cae91dd" x="400.31126" y="529.308125" style="stroke: #000000; stroke-width: 0.8"/>
      </g>
     </g>
     <g id="text_4">
      <text style="font: 10px 'DejaVu Sans', 'Bitstream Vera Sans', 'Computer Modern Sans Serif', 'Lucida Grande', 'Verdana', 'Geneva', 'Lucid', 'Arial', 'Helvetica', 'Avant Garde', sans-serif; text-anchor: middle" x="400.31126" y="543.906563" transform="rotate(-0 400.31126 543.906563)">80.0</text>
     </g>
    </g>
    <g id="xtick_5">
     <g id="line2d_9">
      <path d="M 485.564435 529.308125 
L 485.564435 23.837812 
" clip-path="url(#pf0047204cd)" style="fill: none; stroke: #b0b0b0; stroke-opacity: 0.3; stroke-width: 0.8; stroke-linecap: square"/>
     </g>
     <g id="line2d_10">
      <g>
       <use xlink:href="#mfb0cae91dd" x="485.564435" y="529.308125" style="stroke: #000000; stroke-width: 0.8"/>
      </g>
     </g>
     <g id="text_5">
      <text style="font: 10px 'DejaVu Sans', 'Bitstream Vera Sans', 'Computer Modern Sans Serif', 'Lucida Grande', 'Verdana', 'Geneva', 'Lucid', 'Arial', 'Helvetica', 'Avant Garde', sans-serif; text-anchor: middle" x="485.564435" y="543.906563" transform="rotate(-0 485.564435 543.906563)">82.5</text>
     </g>
    </g>
    <g id="xtick_6">
     <g id="line2d_11">
      <path d="M 570.81761 529.308125 
L 570.81761 23.837812 
" clip-path="url(#pf0047204cd)" style="fill: none; stroke: #b0b0b0; stroke-opacity: 0.3; stroke-width: 0.8; stroke-linecap: square"/>
     </g>
     <g id="line2d_12">
      <g>
       <use xlink:href="#mfb0cae91dd" x="570.81761" y="529.308125" style="stroke: #000000; stroke-width: 0.8"/>
      </g>
     </g>
     <g id="text_6">
      <text style="font: 10px 'DejaVu Sans', 'Bitstream Vera Sans', 'Computer Modern Sans Serif', 'Lucida Grande', 'Verdana', 'Geneva', 'Lucid', 'Arial', 'Helvetica', 'Avant Garde', sans-serif; text-anchor: middle" x="570.81761" y="543.906563" transform="rotate(-0 570.81761 543.906563)">85.0</text>
     </g>
    </g>
    <g id="xtick_7">
     <g id="line2d_13">
      <path d="M 656.070785 529.308125 
L 656.070785 23.837812 
" clip-path="url(#pf0047204cd)" style="fill: none; stroke: #b0b0b0; stroke-opacity: 0.3; stroke-width: 0.8; stroke-linecap: square"/>
     </g>
     <g id="line2d_14">
      <g>
       <use xlink:href="#mfb0cae91dd" x="656.070785" y="529.308125" style="stroke: #000000; stroke-width: 0.8"/>
      </g>
     </g>
     <g id="text_7">
      <text style="font: 10px 'DejaVu Sans', 'Bitstream Vera Sans', 'Computer Modern Sans Serif', 'Lucida Grande', 'Verdana', 'Geneva', 'Lucid', 'Arial', 'Helvetica', 'Avant Garde', sans-serif; text-anchor: middle" x="656.070785" y="543.906563" transform="rotate(-0 656.070785 543.906563)">87.5</text>
     </g>
    </g>
    <g id="text_8">
     <text style="font: 12px 'DejaVu Sans', 'Bitstream Vera Sans', 'Computer Modern Sans Serif', 'Lucida Grande', 'Verdana', 'Geneva', 'Lucid', 'Arial', 'Helvetica', 'Avant Garde', sans-serif; text-anchor: middle" x="383.260625" y="559.104375" transform="rotate(-0 383.260625 559.104375)">Build Number</text>
    </g>
   </g>
   <g id="matplotlib.axis_2">
    <g id="ytick_1">
     <g id="line2d_15">
      <path d="M 64.41375 348.809781 
L 702.1075 348.809781 
" clip-path="url(#pf0047204cd)" style="fill: none; stroke: #b0b0b0; stroke-opacity: 0.3; stroke-width: 0.8; stroke-linecap: square"/>
     </g>
     <g id="line2d_16">
      <defs>
       <path id="m246e6d5571" d="M 0 0 
L -3.5 0 
" style="stroke: #000000; stroke-width: 0.8"/>
      </defs>
      <g>
       <use xlink:href="#m246e6d5571" x="64.41375" y="348.809781" style="stroke: #000000; stroke-width: 0.8"/>
      </g>
     </g>
     <g id="text_9">
      <!-- $\mathdefault{10^{5}}$ -->
      <g transform="translate(39.81375 352.608999)">
       <text>
        <tspan style="font: 10px 'DejaVu Sans'" x="0 6.362305" y="-0.06406250000000036">10</tspan>
        <tspan style="font: 7px 'DejaVu Sans'" x="12.820312" y="-3.8921875000000004">5</tspan>
       </text>
      </g>
     </g>
    </g>
    <g id="ytick_2">
     <g id="line2d_17">
      <defs>
       <path id="m3417e35ac6" d="M 0 0 
L -2 0 
" style="stroke: #000000; stroke-width: 0.6"/>
      </defs>
      <g>
       <use xlink:href="#m3417e35ac6" x="64.41375" y="477.273547" style="stroke: #000000; stroke-width: 0.6"/>
      </g>
     </g>
    </g>
    <g id="ytick_3">
     <g id="line2d_18">
      <g>
       <use xlink:href="#m3417e35ac6" x="64.41375" y="429.179488" style="stroke: #000000; stroke-width: 0.6"/>
      </g>
     </g>
    </g>
    <g id="ytick_4">
     <g id="line2d_19">
      <g>
       <use xlink:href="#m3417e35ac6" x="64.41375" y="386.757522" style="stroke: #000000; stroke-width: 0.6"/>
      </g>
     </g>
    </g>
    <g id="ytick_5">
     <g id="line2d_20">
      <g>
       <use xlink:href="#m3417e35ac6" x="64.41375" y="99.158666" style="stroke: #000000; stroke-width: 0.6"/>
      </g>
     </g>
     <g id="text_10">
      <!-- $\mathdefault{2\times10^{5}}$ -->
      <g transform="translate(22.81375 102.957885)">
       <text>
        <tspan style="font: 10px 'DejaVu Sans'" x="0 8.310547 18.637695 25" y="-0.06406250000000036">2×10</tspan>
        <tspan style="font: 7px 'DejaVu Sans'" x="31.458008" y="-3.8921875000000004">5</tspan>
       </text>
      </g>
     </g>
    </g>
    <g id="text_11">
     <text style="font: 12px 'DejaVu Sans', 'Bitstream Vera Sans', 'Computer Modern Sans Serif', 'Lucida Grande', 'Verdana', 'Geneva', 'Lucid', 'Arial', 'Helvetica', 'Avant Garde', sans-serif; text-anchor: middle" x="16.318125" y="276.572969" transform="rotate(-90 16.318125 276.572969)">Median Elapsed Time (nanoseconds)</text>
    </g>
   </g>
   <g id="line2d_21">
    <path d="M 93.39983 320.399692 
L 127.5011 149.937849 
L 161.60237 149.122015 
L 195.70364 281.632503 
L 229.80491 73.517706 
L 263.90618 262.330675 
L 298.00745 319.41646 
L 332.10872 320.479253 
L 366.20999 154.791122 
L 400.31126 314.376784 
L 434.41253 314.778644 
L 468.5138 320.044049 
L 502.61507 70.757565 
L 536.71634 317.938266 
L 570.81761 319.597083 
L 604.91888 318.721044 
L 673.12142 319.842596 
" clip-path="url(#pf0047204cd)" style="fill: none; stroke: #1f77b4; stroke-width: 2; stroke-linecap: square"/>
    <defs>
     <path id="m47aff3b4e2" d="M 0 3 
C 0.795609 3 1.55874 2.683901 2.12132 2.12132 
C 2.683901 1.55874 3 0.795609 3 0 
C 3 -0.795609 2.683901 -1.55874 2.12132 -2.12132 
C 1.55874 -2.683901 0.795609 -3 0 -3 
C -0.795609 -3 -1.55874 -2.683901 -2.12132 -2.12132 
C -2.683901 -1.55874 -3 -0.795609 -3 0 
C -3 0.795609 -2.683901 1.55874 -2.12132 2.12132 
C -1.55874 2.683901 -0.795609 3 0 3 
z
" style="stroke: #1f77b4"/>
    </defs>
    <g clip-path="url(#pf0047204cd)">
     <use xlink:href="#m47aff3b4e2" x="93.39983" y="320.399692" style="fill: #1f77b4; stroke: #1f77b4"/>
     <use xlink:href="#m47aff3b4e2" x="127.5011" y="149.937849" style="fill: #1f77b4; stroke: #1f77b4"/>
     <use xlink:href="#m47aff3b4e2" x="161.60237" y="149.122015" style="fill: #1f77b4; stroke: #1f77b4"/>
     <use xlink:href="#m47aff3b4e2" x="195.70364" y="281.632503" style="fill: #1f77b4; stroke: #1f77b4"/>
     <use xlink:href="#m47aff3b4e2" x="229.80491" y="73.517706" style="fill: #1f77b4; stroke: #1f77b4"/>
     <use xlink:href="#m47aff3b4e2" x="263.90618" y="262.330675" style="fill: #1f77b4; stroke: #1f77b4"/>
     <use xlink:href="#m47aff3b4e2" x="298.00745" y="319.41646" style="fill: #1f77b4; stroke: #1f77b4"/>
     <use xlink:href="#m47aff3b4e2" x="332.10872" y="320.479253" style="fill: #1f77b4; stroke: #1f77b4"/>
     <use xlink:href="#m47aff3b4e2" x="366.20999" y="154.791122" style="fill: #1f77b4; stroke: #1f77b4"/>
     <use xlink:href="#m47aff3b4e2" x="400.31126" y="314.376784" style="fill: #1f77b4; stroke: #1f77b4"/>
     <use xlink:href="#m47aff3b4e2" x="434.41253" y="314.778644" style="fill: #1f77b4; stroke: #1f77b4"/>
     <use xlink:href="#m47aff3b4e2" x="468.5138" y="320.044049" style="fill: #1f77b4; stroke: #1f77b4"/>
     <use xlink:href="#m47aff3b4e2" x="502.61507" y="70.757565" style="fill: #1f77b4; stroke: #1f77b4"/>
     <use xlink:href="#m47aff3b4e2" x="536.71634" y="317.938266" style="fill: #1f77b4; stroke: #1f77b4"/>
     <use xlink:href="#m47aff3b4e2" x="570.81761" y="319.597083" style="fill: #1f77b4; stroke: #1f77b4"/>
     <use xlink:href="#m47aff3b4e2" x="604.91888" y="318.721044" style="fill: #1f77b4; stroke: #1f77b4"/>
     <use xlink:href="#m47aff3b4e2" x="673.12142" y="319.842596" style="fill: #1f77b4; stroke: #1f77b4"/>
    </g>
   </g>
   <g id="line2d_22">
    <path d="M 93.39983 287.002065 
L 127.5011 166.941871 
L 161.60237 206.761922 
L 195.70364 267.182754 
L 229.80491 170.52357 
L 263.90618 276.779458 
L 298.00745 267.21556 
L 332.10872 274.060871 
L 366.20999 73.812662 
L 400.31126 273.893797 
L 434.41253 270.935313 
L 468.5138 268.600312 
L 502.61507 164.624075 
L 536.71634 275.976789 
L 570.81761 280.273421 
L 604.91888 161.231057 
L 673.12142 161.617455 
" clip-path="url(#pf0047204cd)" style="fill: none; stroke: #ff7f0e; stroke-width: 2; stroke-linecap: square"/>
    <defs>
     <path id="mde7132bcfa" d="M 0 3 
C 0.795609 3 1.55874 2.683901 2.12132 2.12132 
C 2.683901 1.55874 3 0.795609 3 0 
C 3 -0.795609 2.683901 -1.55874 2.12132 -2.12132 
C 1.55874 -2.683901 0.795609 -3 0 -3 
C -0.795609 -3 -1.55874 -2.683901 -2.12132 -2.12132 
C -2.683901 -1.55874 -3 -0.795609 -3 0 
C -3 0.795609 -2.683901 1.55874 -2.12132 2.12132 
C -1.55874 2.683901 -0.795609 3 0 3 
z
" style="stroke: #ff7f0e"/>
    </defs>
    <g clip-path="url(#pf0047204cd)">
     <use xlink:href="#mde7132bcfa" x="93.39983" y="287.002065" style="fill: #ff7f0e; stroke: #ff7f0e"/>
     <use xlink:href="#mde7132bcfa" x="127.5011" y="166.941871" style="fill: #ff7f0e; stroke: #ff7f0e"/>
     <use xlink:href="#mde7132bcfa" x="161.60237" y="206.761922" style="fill: #ff7f0e; stroke: #ff7f0e"/>
     <use xlink:href="#mde7132bcfa" x="195.70364" y="267.182754" style="fill: #ff7f0e; stroke: #ff7f0e"/>
     <use xlink:href="#mde7132bcfa" x="229.80491" y="170.52357" style="fill: #ff7f0e; stroke: #ff7f0e"/>
     <use xlink:href="#mde7132bcfa" x="263.90618" y="276.779458" style="fill: #ff7f0e; stroke: #ff7f0e"/>
     <use xlink:href="#mde7132bcfa" x="298.00745" y="267.21556" style="fill: #ff7f0e; stroke: #ff7f0e"/>
     <use xlink:href="#mde7132bcfa" x="332.10872" y="274.060871" style="fill: #ff7f0e; stroke: #ff7f0e"/>
     <use xlink:href="#mde7132bcfa" x="366.20999" y="73.812662" style="fill: #ff7f0e; stroke: #ff7f0e"/>
     <use xlink:href="#mde7132bcfa" x="400.31126" y="273.893797" style="fill: #ff7f0e; stroke: #ff7f0e"/>
     <use xlink:href="#mde7132bcfa" x="434.41253" y="270.935313" style="fill: #ff7f0e; stroke: #ff7f0e"/>
     <use xlink:href="#mde7132bcfa" x="468.5138" y="268.600312" style="fill: #ff7f0e; stroke: #ff7f0e"/>
     <use xlink:href="#mde7132bcfa" x="502.61507" y="164.624075" style="fill: #ff7f0e; stroke: #ff7f0e"/>
     <use xlink:href="#mde7132bcfa" x="536.71634" y="275.976789" style="fill: #ff7f0e; stroke: #ff7f0e"/>
     <use xlink:href="#mde7132bcfa" x="570.81761" y="280.273421" style="fill: #ff7f0e; stroke: #ff7f0e"/>
     <use xlink:href="#mde7132bcfa" x="604.91888" y="161.231057" style="fill: #ff7f0e; stroke: #ff7f0e"/>
     <use xlink:href="#mde7132bcfa" x="673.12142" y="161.617455" style="fill: #ff7f0e; stroke: #ff7f0e"/>
    </g>
   </g>
   <g id="line2d_23">
    <path d="M 93.39983 309.99342 
L 127.5011 46.813736 
L 161.60237 296.469989 
L 195.70364 303.317241 
L 229.80491 141.040669 
L 263.90618 305.135002 
L 298.00745 226.521224 
L 332.10872 232.205566 
L 366.20999 223.641223 
L 400.31126 303.255982 
L 434.41253 305.186371 
L 468.5138 305.00103 
L 502.61507 229.395298 
L 536.71634 302.467522 
L 570.81761 304.609325 
L 604.91888 227.085921 
L 673.12142 231.385219 
" clip-path="url(#pf0047204cd)" style="fill: none; stroke: #2ca02c; stroke-width: 2; stroke-linecap: square"/>
    <defs>
     <path id="me2a4ce0c64" d="M 0 3 
C 0.795609 3 1.55874 2.683901 2.12132 2.12132 
C 2.683901 1.55874 3 0.795609 3 0 
C 3 -0.795609 2.683901 -1.55874 2.12132 -2.12132 
C 1.55874 -2.683901 0.795609 -3 0 -3 
C -0.795609 -3 -1.55874 -2.683901 -2.12132 -2.12132 
C -2.683901 -1.55874 -3 -0.795609 -3 0 
C -3 0.795609 -2.683901 1.55874 -2.12132 2.12132 
C -1.55874 2.683901 -0.795609 3 0 3 
z
" style="stroke: #2ca02c"/>
    </defs>
    <g clip-path="url(#pf0047204cd)">
     <use xlink:href="#me2a4ce0c64" x="93.39983" y="309.99342" style="fill: #2ca02c; stroke: #2ca02c"/>
     <use xlink:href="#me2a4ce0c64" x="127.5011" y="46.813736" style="fill: #2ca02c; stroke: #2ca02c"/>
     <use xlink:href="#me2a4ce0c64" x="161.60237" y="296.469989" style="fill: #2ca02c; stroke: #2ca02c"/>
     <use xlink:href="#me2a4ce0c64" x="195.70364" y="303.317241" style="fill: #2ca02c; stroke: #2ca02c"/>
     <use xlink:href="#me2a4ce0c64" x="229.80491" y="141.040669" style="fill: #2ca02c; stroke: #2ca02c"/>
     <use xlink:href="#me2a4ce0c64" x="263.90618" y="305.135002" style="fill: #2ca02c; stroke: #2ca02c"/>
     <use xlink:href="#me2a4ce0c64" x="298.00745" y="226.521224" style="fill: #2ca02c; stroke: #2ca02c"/>
     <use xlink:href="#me2a4ce0c64" x="332.10872" y="232.205566" style="fill: #2ca02c; stroke: #2ca02c"/>
     <use xlink:href="#me2a4ce0c64" x="366.20999" y="223.641223" style="fill: #2ca02c; stroke: #2ca02c"/>
     <use xlink:href="#me2a4ce0c64" x="400.31126" y="303.255982" style="fill: #2ca02c; stroke: #2ca02c"/>
     <use xlink:href="#me2a4ce0c64" x="434.41253" y="305.186371" style="fill: #2ca02c; stroke: #2ca02c"/>
     <use xlink:href="#me2a4ce0c64" x="468.5138" y="305.00103" style="fill: #2ca02c; stroke: #2ca02c"/>
     <use xlink:href="#me2a4ce0c64" x="502.61507" y="229.395298" style="fill: #2ca02c; stroke: #2ca02c"/>
     <use xlink:href="#me2a4ce0c64" x="536.71634" y="302.467522" style="fill: #2ca02c; stroke: #2ca02c"/>
     <use xlink:href="#me2a4ce0c64" x="570.81761" y="304.609325" style="fill: #2ca02c; stroke: #2ca02c"/>
     <use xlink:href="#me2a4ce0c64" x="604.91888" y="227.085921" style="fill: #2ca02c; stroke: #2ca02c"/>
     <use xlink:href="#me2a4ce0c64" x="673.12142" y="231.385219" style="fill: #2ca02c; stroke: #2ca02c"/>
    </g>
   </g>
   <g id="line2d_24">
    <path d="M 93.39983 504.215036 
L 127.5011 503.765069 
L 161.60237 504.492944 
L 195.70364 252.207841 
L 229.80491 366.478985 
L 263.90618 245.37849 
L 298.00745 504.920487 
L 332.10872 312.965396 
L 366.20999 240.358593 
L 400.31126 500.138822 
L 434.41253 506.092444 
L 468.5138 504.233335 
L 502.61507 167.327267 
L 570.81761 455.785735 
L 604.91888 506.332202 
L 673.12142 504.986515 
" clip-path="url(#pf0047204cd)" style="fill: none; stroke: #d62728; stroke-width: 2; stroke-linecap: square"/>
    <defs>
     <path id="m32e697b45d" d="M 0 3 
C 0.795609 3 1.55874 2.683901 2.12132 2.12132 
C 2.683901 1.55874 3 0.795609 3 0 
C 3 -0.795609 2.683901 -1.55874 2.12132 -2.12132 
C 1.55874 -2.683901 0.795609 -3 0 -3 
C -0.795609 -3 -1.55874 -2.683901 -2.12132 -2.12132 
C -2.683901 -1.55874 -3 -0.795609 -3 0 
C -3 0.795609 -2.683901 1.55874 -2.12132 2.12132 
C -1.55874 2.683901 -0.795609 3 0 3 
z
" style="stroke: #d62728"/>
    </defs>
    <g clip-path="url(#pf0047204cd)">
     <use xlink:href="#m32e697b45d" x="93.39983" y="504.215036" style="fill: #d62728; stroke: #d62728"/>
     <use xlink:href="#m32e697b45d" x="127.5011" y="503.765069" style="fill: #d62728; stroke: #d62728"/>
     <use xlink:href="#m32e697b45d" x="161.60237" y="504.492944" style="fill: #d62728; stroke: #d62728"/>
     <use xlink:href="#m32e697b45d" x="195.70364" y="252.207841" style="fill: #d62728; stroke: #d62728"/>
     <use xlink:href="#m32e697b45d" x="229.80491" y="366.478985" style="fill: #d62728; stroke: #d62728"/>
     <use xlink:href="#m32e697b45d" x="263.90618" y="245.37849" style="fill: #d62728; stroke: #d62728"/>
     <use xlink:href="#m32e697b45d" x="298.00745" y="504.920487" style="fill: #d62728; stroke: #d62728"/>
     <use xlink:href="#m32e697b45d" x="332.10872" y="312.965396" style="fill: #d62728; stroke: #d62728"/>
     <use xlink:href="#m32e697b45d" x="366.20999" y="240.358593" style="fill: #d62728; stroke: #d62728"/>
     <use xlink:href="#m32e697b45d" x="400.31126" y="500.138822" style="fill: #d62728; stroke: #d62728"/>
     <use xlink:href="#m32e697b45d" x="434.41253" y="506.092444" style="fill: #d62728; stroke: #d62728"/>
     <use xlink:href="#m32e697b45d" x="468.5138" y="504.233335" style="fill: #d62728; stroke: #d62728"/>
     <use xlink:href="#m32e697b45d" x="502.61507" y="167.327267" style="fill: #d62728; stroke: #d62728"/>
     <use xlink:href="#m32e697b45d" x="570.81761" y="455.785735" style="fill: #d62728; stroke: #d62728"/>
     <use xlink:href="#m32e697b45d" x="604.91888" y="506.332202" style="fill: #d62728; stroke: #d62728"/>
     <use xlink:href="#m32e697b45d" x="673.12142" y="504.986515" style="fill: #d62728; stroke: #d62728"/>
    </g>
   </g>
   <g id="line2d_25">
    <path d="M 93.39983 461.991572 
L 127.5011 407.665623 
L 161.60237 466.93619 
L 195.70364 461.299004 
L 229.80491 368.886445 
L 263.90618 373.015229 
L 298.00745 456.013145 
L 332.10872 284.685676 
L 366.20999 450.498519 
L 400.31126 465.767156 
L 434.41253 459.143063 
L 468.5138 464.044495 
L 502.61507 338.076165 
L 570.81761 450.521448 
L 604.91888 463.665276 
L 673.12142 461.00366 
" clip-path="url(#pf0047204cd)" style="fill: none; stroke: #9467bd; stroke-width: 2; stroke-linecap: square"/>
    <defs>
     <path id="m5411951a30" d="M 0 3 
C 0.795609 3 1.55874 2.683901 2.12132 2.12132 
C 2.683901 1.55874 3 0.795609 3 0 
C 3 -0.795609 2.683901 -1.55874 2.12132 -2.12132 
C 1.55874 -2.683901 0.795609 -3 0 -3 
C -0.795609 -3 -1.55874 -2.683901 -2.12132 -2.12132 
C -2.683901 -1.55874 -3 -0.795609 -3 0 
C -3 0.795609 -2.683901 1.55874 -2.12132 2.12132 
C -1.55874 2.683901 -0.795609 3 0 3 
z
" style="stroke: #9467bd"/>
    </defs>
    <g clip-path="url(#pf0047204cd)">
     <use xlink:href="#m5411951a30" x="93.39983" y="461.991572" style="fill: #9467bd; stroke: #9467bd"/>
     <use xlink:href="#m5411951a30" x="127.5011" y="407.665623" style="fill: #9467bd; stroke: #9467bd"/>
     <use xlink:href="#m5411951a30" x="161.60237" y="466.93619" style="fill: #9467bd; stroke: #9467bd"/>
     <use xlink:href="#m5411951a30" x="195.70364" y="461.299004" style="fill: #9467bd; stroke: #9467bd"/>
     <use xlink:href="#m5411951a30" x="229.80491" y="368.886445" style="fill: #9467bd; stroke: #9467bd"/>
     <use xlink:href="#m5411951a30" x="263.90618" y="373.015229" style="fill: #9467bd; stroke: #9467bd"/>
     <use xlink:href="#m5411951a30" x="298.00745" y="456.013145" style="fill: #9467bd; stroke: #9467bd"/>
     <use xlink:href="#m5411951a30" x="332.10872" y="284.685676" style="fill: #9467bd; stroke: #9467bd"/>
     <use xlink:href="#m5411951a30" x="366.20999" y="450.498519" style="fill: #9467bd; stroke: #9467bd"/>
     <use xlink:href="#m5411951a30" x="400.31126" y="465.767156" style="fill: #9467bd; stroke: #9467bd"/>
     <use xlink:href="#m5411951a30" x="434.41253" y="459.143063" style="fill: #9467bd; stroke: #9467bd"/>
     <use xlink:href="#m5411951a30" x="468.5138" y="464.044495" style="fill: #9467bd; stroke: #9467bd"/>
     <use xlink:href="#m5411951a30" x="502.61507" y="338.076165" style="fill: #9467bd; stroke: #9467bd"/>
     <use xlink:href="#m5411951a30" x="570.81761" y="450.521448" style="fill: #9467bd; stroke: #9467bd"/>
     <use xlink:href="#m5411951a30" x="604.91888" y="463.665276" style="fill: #9467bd; stroke: #9467bd"/>
     <use xlink:href="#m5411951a30" x="673.12142" y="461.00366" style="fill: #9467bd; stroke: #9467bd"/>
    </g>
   </g>
   <g id="line2d_26">
    <path d="M 93.39983 428.48458 
L 127.5011 428.116305 
L 161.60237 429.675965 
L 195.70364 431.775747 
L 229.80491 353.222497 
L 263.90618 353.025662 
L 298.00745 431.423573 
L 332.10872 351.697648 
L 366.20999 429.564176 
L 400.31126 429.749008 
L 434.41253 431.810666 
L 468.5138 432.730205 
L 502.61507 351.888674 
L 570.81761 429.943929 
L 604.91888 431.740832 
L 673.12142 430.935437 
" clip-path="url(#pf0047204cd)" style="fill: none; stroke: #8c564b; stroke-width: 2; stroke-linecap: square"/>
    <defs>
     <path id="mb2ea0d6f44" d="M 0 3 
C 0.795609 3 1.55874 2.683901 2.12132 2.12132 
C 2.683901 1.55874 3 0.795609 3 0 
C 3 -0.795609 2.683901 -1.55874 2.12132 -2.12132 
C 1.55874 -2.683901 0.795609 -3 0 -3 
C -0.795609 -3 -1.55874 -2.683901 -2.12132 -2.12132 
C -2.683901 -1.55874 -3 -0.795609 -3 0 
C -3 0.795609 -2.683901 1.55874 -2.12132 2.12132 
C -1.55874 2.683901 -0.795609 3 0 3 
z
" style="stroke: #8c564b"/>
    </defs>
    <g clip-path="url(#pf0047204cd)">
     <use xlink:href="#mb2ea0d6f44" x="93.39983" y="428.48458" style="fill: #8c564b; stroke: #8c564b"/>
     <use xlink:href="#mb2ea0d6f44" x="127.5011" y="428.116305" style="fill: #8c564b; stroke: #8c564b"/>
     <use xlink:href="#mb2ea0d6f44" x="161.60237" y="429.675965" style="fill: #8c564b; stroke: #8c564b"/>
     <use xlink:href="#mb2ea0d6f44" x="195.70364" y="431.775747" style="fill: #8c564b; stroke: #8c564b"/>
     <use xlink:href="#mb2ea0d6f44" x="229.80491" y="353.222497" style="fill: #8c564b; stroke: #8c564b"/>
     <use xlink:href="#mb2ea0d6f44" x="263.90618" y="353.025662" style="fill: #8c564b; stroke: #8c564b"/>
     <use xlink:href="#mb2ea0d6f44" x="298.00745" y="431.423573" style="fill: #8c564b; stroke: #8c564b"/>
     <use xlink:href="#mb2ea0d6f44" x="332.10872" y="351.697648" style="fill: #8c564b; stroke: #8c564b"/>
     <use xlink:href="#mb2ea0d6f44" x="366.20999" y="429.564176" style="fill: #8c564b; stroke: #8c564b"/>
     <use xlink:href="#mb2ea0d6f44" x="400.31126" y="429.749008" style="fill: #8c564b; stroke: #8c564b"/>
     <use xlink:href="#mb2ea0d6f44" x="434.41253" y="431.810666" style="fill: #8c564b; stroke: #8c564b"/>
     <use xlink:href="#mb2ea0d6f44" x="468.5138" y="432.730205" style="fill: #8c564b; stroke: #8c564b"/>
     <use xlink:href="#mb2ea0d6f44" x="502.61507" y="351.888674" style="fill: #8c564b; stroke: #8c564b"/>
     <use xlink:href="#mb2ea0d6f44" x="570.81761" y="429.943929" style="fill: #8c564b; stroke: #8c564b"/>
     <use xlink:href="#mb2ea0d6f44" x="604.91888" y="431.740832" style="fill: #8c564b; stroke: #8c564b"/>
     <use xlink:href="#mb2ea0d6f44" x="673.12142" y="430.935437" style="fill: #8c564b; stroke: #8c564b"/>
    </g>
   </g>
   <g id="patch_3">
    <path d="M 64.41375 529.308125 
L 64.41375 23.837812 
" style="fill: none; stroke: #000000; stroke-width: 0.8; stroke-linejoin: miter; stroke-linecap: square"/>
   </g>
   <g id="patch_4">
    <path d="M 702.1075 529.308125 
L 702.1075 23.837812 
" style="fill: none; stroke: #000000; stroke-width: 0.8; stroke-linejoin: miter; stroke-linecap: square"/>
   </g>
   <g id="patch_5">
    <path d="M 64.41375 529.308125 
L 702.1075 529.308125 
" style="fill: none; stroke: #000000; stroke-width: 0.8; stroke-linejoin: miter; stroke-linecap: square"/>
   </g>
   <g id="patch_6">
    <path d="M 64.41375 23.837812 
L 702.1075 23.837812 
" style="fill: none; stroke: #000000; stroke-width: 0.8; stroke-linejoin: miter; stroke-linecap: square"/>
   </g>
   <g id="text_12">
    <text style="font: 700 14px 'DejaVu Sans', 'Bitstream Vera Sans', 'Computer Modern Sans Serif', 'Lucida Grande', 'Verdana', 'Geneva', 'Lucid', 'Arial', 'Helvetica', 'Avant Garde', sans-serif; text-anchor: middle" x="383.260625" y="17.837813" transform="rotate(-0 383.260625 17.837813)">Matrixops - Performance Trend</text>
   </g>
   <g id="legend_1">
    <g id="patch_7">
     <path d="M 740.992188 119.906563 
L 846.004688 119.906563 
Q 848.004688 119.906563 848.004688 117.906563 
L 848.004688 30.837813 
Q 848.004688 28.837813 846.004688 28.837813 
L 740.992188 28.837813 
Q 738.992188 28.837813 738.992188 30.837813 
L 738.992188 117.906563 
Q 738.992188 119.906563 740.992188 119.906563 
z
" style="fill: #ffffff; opacity: 0.8; stroke: #cccccc; stroke-linejoin: miter"/>
    </g>
    <g id="line2d_27">
     <path d="M 742.992188 36.93625 
L 752.992188 36.93625 
L 762.992188 36.93625 
" style="fill: none; stroke: #1f77b4; stroke-width: 2; stroke-linecap: square"/>
     <g>
      <use xlink:href="#m47aff3b4e2" x="752.992188" y="36.93625" style="fill: #1f77b4; stroke: #1f77b4"/>
     </g>
    </g>
    <g id="text_13">
     <text style="font: 10px 'DejaVu Sans', 'Bitstream Vera Sans', 'Computer Modern Sans Serif', 'Lucida Grande', 'Verdana', 'Geneva', 'Lucid', 'Arial', 'Helvetica', 'Avant Garde', sans-serif; text-anchor: start" x="770.992188" y="40.43625" transform="rotate(-0 770.992188 40.43625)">gcc-14.2 - V1</text>
    </g>
    <g id="line2d_28">
     <path d="M 742.992188 51.614375 
L 752.992188 51.614375 
L 762.992188 51.614375 
" style="fill: none; stroke: #ff7f0e; stroke-width: 2; stroke-linecap: square"/>
     <g>
      <use xlink:href="#mde7132bcfa" x="752.992188" y="51.614375" style="fill: #ff7f0e; stroke: #ff7f0e"/>
     </g>
    </g>
    <g id="text_14">
     <text style="font: 10px 'DejaVu Sans', 'Bitstream Vera Sans', 'Computer Modern Sans Serif', 'Lucida Grande', 'Verdana', 'Geneva', 'Lucid', 'Arial', 'Helvetica', 'Avant Garde', sans-serif; text-anchor: start" x="770.992188" y="55.114375" transform="rotate(-0 770.992188 55.114375)">gcc-14.2 - V2</text>
    </g>
    <g id="line2d_29">
     <path d="M 742.992188 66.2925 
L 752.992188 66.2925 
L 762.992188 66.2925 
" style="fill: none; stroke: #2ca02c; stroke-width: 2; stroke-linecap: square"/>
     <g>
      <use xlink:href="#me2a4ce0c64" x="752.992188" y="66.2925" style="fill: #2ca02c; stroke: #2ca02c"/>
     </g>
    </g>
    <g id="text_15">
     <text style="font: 10px 'DejaVu Sans', 'Bitstream Vera Sans', 'Computer Modern Sans Serif', 'Lucida Grande', 'Verdana', 'Geneva', 'Lucid', 'Arial', 'Helvetica', 'Avant Garde', sans-serif; text-anchor: start" x="770.992188" y="69.7925" transform="rotate(-0 770.992188 69.7925)">gcc-14.2 - TBB</text>
    </g>
    <g id="line2d_30">
     <path d="M 742.992188 80.970625 
L 752.992188 80.970625 
L 762.992188 80.970625 
" style="fill: none; stroke: #d62728; stroke-width: 2; stroke-linecap: square"/>
     <g>
      <use xlink:href="#m32e697b45d" x="752.992188" y="80.970625" style="fill: #d62728; stroke: #d62728"/>
     </g>
    </g>
    <g id="text_16">
     <text style="font: 10px 'DejaVu Sans', 'Bitstream Vera Sans', 'Computer Modern Sans Serif', 'Lucida Grande', 'Verdana', 'Geneva', 'Lucid', 'Arial', 'Helvetica', 'Avant Garde', sans-serif; text-anchor: start" x="770.992188" y="84.470625" transform="rotate(-0 770.992188 84.470625)">gcc-4.2 - V1</text>
    </g>
    <g id="line2d_31">
     <path d="M 742.992188 95.64875 
L 752.992188 95.64875 
L 762.992188 95.64875 
" style="fill: none; stroke: #9467bd; stroke-width: 2; stroke-linecap: square"/>
     <g>
      <use xlink:href="#m5411951a30" x="752.992188" y="95.64875" style="fill: #9467bd; stroke: #9467bd"/>
     </g>
    </g>
    <g id="text_17">
     <text style="font: 10px 'DejaVu Sans', 'Bitstream Vera Sans', 'Computer Modern Sans Serif', 'Lucida Grande', 'Verdana', 'Geneva', 'Lucid', 'Arial', 'Helvetica', 'Avant Garde', sans-serif; text-anchor: start" x="770.992188" y="99.14875" transform="rotate(-0 770.992188 99.14875)">gcc-4.2 - V2</text>
    </g>
    <g id="line2d_32">
     <path d="M 742.992188 110.326875 
L 752.992188 110.326875 
L 762.992188 110.326875 
" style="fill: none; stroke: #8c564b; stroke-width: 2; stroke-linecap: square"/>
     <g>
      <use xlink:href="#mb2ea0d6f44" x="752.992188" y="110.326875" style="fill: #8c564b; stroke: #8c564b"/>
     </g>
    </g>
    <g id="text_18">
     <text style="font: 10px 'DejaVu Sans', 'Bitstream Vera Sans', 'Computer Modern Sans Serif', 'Lucida Grande', 'Verdana', 'Geneva', 'Lucid', 'Arial', 'Helvetica', 'Avant Garde', sans-serif; text-anchor: start" x="770.992188" y="113.826875" transform="rotate(-0 770.992188 113.826875)">gcc-4.2 - TBB</text>
    </g>
   </g>
  </g>
 </g>
 <defs>
  <clipPath id="pf0047204cd">
   <rect x="64.41375" y="23.837813" width="637.69375" height="505.470313"/>
  </clipPath>
 </defs>
</svg>
