<?xml version="1.0" encoding="utf-8" standalone="no"?>
<!DOCTYPE svg PUBLIC "-//W3C//DTD SVG 1.1//EN"
  "http://www.w3.org/Graphics/SVG/1.1/DTD/svg11.dtd">
<svg xmlns:xlink="http://www.w3.org/1999/xlink" width="856.684141pt" height="568.8pt" viewBox="0 0 856.684141 568.8" xmlns="http://www.w3.org/2000/svg" version="1.1">
 <metadata>
  <rdf:RDF xmlns:dc="http://purl.org/dc/elements/1.1/" xmlns:cc="http://creativecommons.org/ns#" xmlns:rdf="http://www.w3.org/1999/02/22-rdf-syntax-ns#">
   <cc:Work>
    <dc:type rdf:resource="http://purl.org/dc/dcmitype/StillImage"/>
    <dc:date>2025-11-22T20:17:39.802318</dc:date>
    <dc:format>image/svg+xml</dc:format>
    <dc:creator>
     <cc:Agent>
      <dc:title>Matplotlib v3.9.4, https://matplotlib.org/</dc:title>
     </cc:Agent>
    </dc:creator>
   </cc:Work>
  </rdf:RDF>
 </metadata>
 <defs>
  <style type="text/css">*{stroke-linejoin: round; stroke-linecap: butt}</style>
 </defs>
 <g id="figure_1">
  <g id="patch_1">
   <path d="M 0 568.8 
L 856.684141 568.8 
L 856.684141 0 
L 0 0 
z
" style="fill: #ffffff"/>
  </g>
  <g id="axes_1">
   <g id="patch_2">
    <path d="M 64.41375 529.308125 
L 731.696562 529.308125 
L 731.696562 23.837812 
L 64.41375 23.837812 
z
" style="fill: #ffffff"/>
   </g>
   <g id="matplotlib.axis_1">
    <g id="xtick_1">
     <g id="line2d_1">
      <path d="M 82.850263 529.308125 
L 82.850263 23.837812 
" clip-path="url(#pa848e5fe57)" style="fill: none; stroke: #b0b0b0; stroke-opacity: 0.3; stroke-width: 0.8; stroke-linecap: square"/>
     </g>
     <g id="line2d_2">
      <defs>
       <path id="m9fdf5efe4b" d="M 0 0 
L 0 3.5 
" style="stroke: #000000; stroke-width: 0.8"/>
      </defs>
      <g>
       <use xlink:href="#m9fdf5efe4b" x="82.850263" y="529.308125" style="stroke: #000000; stroke-width: 0.8"/>
      </g>
     </g>
     <g id="text_1">
      <text style="font: 10px 'DejaVu Sans', 'Bitstream Vera Sans', 'Computer Modern Sans Serif', 'Lucida Grande', 'Verdana', 'Geneva', 'Lucid', 'Arial', 'Helvetica', 'Avant Garde', sans-serif; text-anchor: middle" x="82.850263" y="543.906563" transform="rotate(-0 82.850263 543.906563)">70</text>
     </g>
    </g>
    <g id="xtick_2">
     <g id="line2d_3">
      <path d="M 201.795506 529.308125 
L 201.795506 23.837812 
" clip-path="url(#pa848e5fe57)" style="fill: none; stroke: #b0b0b0; stroke-opacity: 0.3; stroke-width: 0.8; stroke-linecap: square"/>
     </g>
     <g id="line2d_4">
      <g>
       <use xlink:href="#m9fdf5efe4b" x="201.795506" y="529.308125" style="stroke: #000000; stroke-width: 0.8"/>
      </g>
     </g>
     <g id="text_2">
      <text style="font: 10px 'DejaVu Sans', 'Bitstream Vera Sans', 'Computer Modern Sans Serif', 'Lucida Grande', 'Verdana', 'Geneva', 'Lucid', 'Arial', 'Helvetica', 'Avant Garde', sans-serif; text-anchor: middle" x="201.795506" y="543.906563" transform="rotate(-0 201.795506 543.906563)">80</text>
     </g>
    </g>
    <g id="xtick_3">
     <g id="line2d_5">
      <path d="M 320.740748 529.308125 
L 320.740748 23.837812 
" clip-path="url(#pa848e5fe57)" style="fill: none; stroke: #b0b0b0; stroke-opacity: 0.3; stroke-width: 0.8; stroke-linecap: square"/>
     </g>
     <g id="line2d_6">
      <g>
       <use xlink:href="#m9fdf5efe4b" x="320.740748" y="529.308125" style="stroke: #000000; stroke-width: 0.8"/>
      </g>
     </g>
     <g id="text_3">
      <text style="font: 10px 'DejaVu Sans', 'Bitstream Vera Sans', 'Computer Modern Sans Serif', 'Lucida Grande', 'Verdana', 'Geneva', 'Lucid', 'Arial', 'Helvetica', 'Avant Garde', sans-serif; text-anchor: middle" x="320.740748" y="543.906563" transform="rotate(-0 320.740748 543.906563)">90</text>
     </g>
    </g>
    <g id="xtick_4">
     <g id="line2d_7">
      <path d="M 439.685991 529.308125 
L 439.685991 23.837812 
" clip-path="url(#pa848e5fe57)" style="fill: none; stroke: #b0b0b0; stroke-opacity: 0.3; stroke-width: 0.8; stroke-linecap: square"/>
     </g>
     <g id="line2d_8">
      <g>
       <use xlink:href="#m9fdf5efe4b" x="439.685991" y="529.308125" style="stroke: #000000; stroke-width: 0.8"/>
      </g>
     </g>
     <g id="text_4">
      <text style="font: 10px 'DejaVu Sans', 'Bitstream Vera Sans', 'Computer Modern Sans Serif', 'Lucida Grande', 'Verdana', 'Geneva', 'Lucid', 'Arial', 'Helvetica', 'Avant Garde', sans-serif; text-anchor: middle" x="439.685991" y="543.906563" transform="rotate(-0 439.685991 543.906563)">100</text>
     </g>
    </g>
    <g id="xtick_5">
     <g id="line2d_9">
      <path d="M 558.631234 529.308125 
L 558.631234 23.837812 
" clip-path="url(#pa848e5fe57)" style="fill: none; stroke: #b0b0b0; stroke-opacity: 0.3; stroke-width: 0.8; stroke-linecap: square"/>
     </g>
     <g id="line2d_10">
      <g>
       <use xlink:href="#m9fdf5efe4b" x="558.631234" y="529.308125" style="stroke: #000000; stroke-width: 0.8"/>
      </g>
     </g>
     <g id="text_5">
      <text style="font: 10px 'DejaVu Sans', 'Bitstream Vera Sans', 'Computer Modern Sans Serif', 'Lucida Grande', 'Verdana', 'Geneva', 'Lucid', 'Arial', 'Helvetica', 'Avant Garde', sans-serif; text-anchor: middle" x="558.631234" y="543.906563" transform="rotate(-0 558.631234 543.906563)">110</text>
     </g>
    </g>
    <g id="xtick_6">
     <g id="line2d_11">
      <path d="M 677.576477 529.308125 
L 677.576477 23.837812 
" clip-path="url(#pa848e5fe57)" style="fill: none; stroke: #b0b0b0; stroke-opacity: 0.3; stroke-width: 0.8; stroke-linecap: square"/>
     </g>
     <g id="line2d_12">
      <g>
       <use xlink:href="#m9fdf5efe4b" x="677.576477" y="529.308125" style="stroke: #000000; stroke-width: 0.8"/>
      </g>
     </g>
     <g id="text_6">
      <text style="font: 10px 'DejaVu Sans', 'Bitstream Vera Sans', 'Computer Modern Sans Serif', 'Lucida Grande', 'Verdana', 'Geneva', 'Lucid', 'Arial', 'Helvetica', 'Avant Garde', sans-serif; text-anchor: middle" x="677.576477" y="543.906563" transform="rotate(-0 677.576477 543.906563)">120</text>
     </g>
    </g>
    <g id="text_7">
     <text style="font: 12px 'DejaVu Sans', 'Bitstream Vera Sans', 'Computer Modern Sans Serif', 'Lucida Grande', 'Verdana', 'Geneva', 'Lucid', 'Arial', 'Helvetica', 'Avant Garde', sans-serif; text-anchor: middle" x="398.055156" y="559.104375" transform="rotate(-0 398.055156 559.104375)">Build Number</text>
    </g>
   </g>
   <g id="matplotlib.axis_2">
    <g id="ytick_1">
     <g id="line2d_13">
      <defs>
       <path id="m56fdffb88b" d="M 0 0 
L -2 0 
" style="stroke: #000000; stroke-width: 0.6"/>
      </defs>
      <g>
       <use xlink:href="#m56fdffb88b" x="64.41375" y="422.659884" style="stroke: #000000; stroke-width: 0.6"/>
      </g>
     </g>
     <g id="text_8">
      <!-- $\mathdefault{4\times10^{0}}$ -->
      <g transform="translate(22.81375 426.459103)">
       <text>
        <tspan style="font: 10px 'DejaVu Sans'" x="0 8.310547 18.637695 25" y="-0.9765625">4×10</tspan>
        <tspan style="font: 7px 'DejaVu Sans'" x="31.458008" y="-4.8046875">0</tspan>
       </text>
      </g>
     </g>
    </g>
    <g id="ytick_2">
     <g id="line2d_14">
      <g>
       <use xlink:href="#m56fdffb88b" x="64.41375" y="224.687203" style="stroke: #000000; stroke-width: 0.6"/>
      </g>
     </g>
     <g id="text_9">
      <!-- $\mathdefault{5\times10^{0}}$ -->
      <g transform="translate(22.81375 228.486422)">
       <text>
        <tspan style="font: 10px 'DejaVu Sans'" x="0 8.310547 18.637695 25" y="-0.9765625">5×10</tspan>
        <tspan style="font: 7px 'DejaVu Sans'" x="31.458008" y="-4.8046875">0</tspan>
       </text>
      </g>
     </g>
    </g>
    <g id="ytick_3">
     <g id="line2d_15">
      <g>
       <use xlink:href="#m56fdffb88b" x="64.41375" y="62.931745" style="stroke: #000000; stroke-width: 0.6"/>
      </g>
     </g>
     <g id="text_10">
      <!-- $\mathdefault{6\times10^{0}}$ -->
      <g transform="translate(22.81375 66.730964)">
       <text>
        <tspan style="font: 10px 'DejaVu Sans'" x="0 8.310547 18.637695 25" y="-0.9765625">6×10</tspan>
        <tspan style="font: 7px 'DejaVu Sans'" x="31.458008" y="-4.8046875">0</tspan>
       </text>
      </g>
     </g>
    </g>
    <g id="text_11">
     <text style="font: 12px 'DejaVu Sans', 'Bitstream Vera Sans', 'Computer Modern Sans Serif', 'Lucida Grande', 'Verdana', 'Geneva', 'Lucid', 'Arial', 'Helvetica', 'Avant Garde', sans-serif; text-anchor: middle" x="16.318125" y="276.572969" transform="rotate(-90 16.318125 276.572969)">Median Elapsed Time (nanoseconds)</text>
    </g>
   </g>
   <g id="line2d_16">
    <path d="M 94.744787 377.263444 
L 106.639311 377.263444 
L 118.533836 377.263444 
L 130.42836 377.263444 
L 142.322884 377.263444 
L 154.217408 377.263444 
L 166.111933 377.263444 
L 178.006457 377.263444 
L 189.900981 377.263444 
L 201.795506 377.263444 
L 213.69003 377.263444 
L 225.584554 379.373311 
L 237.479078 377.263444 
L 261.268127 379.373311 
L 273.162651 379.373311 
L 296.9517 377.263444 
L 308.846224 377.263444 
L 320.740748 377.263444 
L 332.635273 398.591364 
L 344.529797 377.263444 
L 368.318846 377.263444 
L 380.21337 377.263444 
L 392.107894 377.263444 
L 404.002418 377.263444 
L 427.791467 379.373311 
L 439.685991 379.373311 
L 451.580516 377.263444 
L 463.47504 379.373311 
L 475.369564 379.373311 
L 487.264088 377.263444 
L 499.158613 379.373311 
L 511.053137 379.373311 
L 534.842186 442.849855 
L 546.73671 442.849855 
L 558.631234 445.121812 
L 582.420283 442.849855 
L 618.103856 442.849855 
L 629.99838 445.121812 
L 641.892904 445.121812 
L 653.787428 442.849855 
L 665.681953 442.849855 
L 677.576477 442.849855 
L 689.471001 442.849855 
L 701.365526 465.835564 
" clip-path="url(#pa848e5fe57)" style="fill: none; stroke: #1f77b4; stroke-width: 2; stroke-linecap: square"/>
    <defs>
     <path id="m6b48833e04" d="M 0 3 
C 0.795609 3 1.55874 2.683901 2.12132 2.12132 
C 2.683901 1.55874 3 0.795609 3 0 
C 3 -0.795609 2.683901 -1.55874 2.12132 -2.12132 
C 1.55874 -2.683901 0.795609 -3 0 -3 
C -0.795609 -3 -1.55874 -2.683901 -2.12132 -2.12132 
C -2.683901 -1.55874 -3 -0.795609 -3 0 
C -3 0.795609 -2.683901 1.55874 -2.12132 2.12132 
C -1.55874 2.683901 -0.795609 3 0 3 
z
" style="stroke: #1f77b4"/>
    </defs>
    <g clip-path="url(#pa848e5fe57)">
     <use xlink:href="#m6b48833e04" x="94.744787" y="377.263444" style="fill: #1f77b4; stroke: #1f77b4"/>
     <use xlink:href="#m6b48833e04" x="106.639311" y="377.263444" style="fill: #1f77b4; stroke: #1f77b4"/>
     <use xlink:href="#m6b48833e04" x="118.533836" y="377.263444" style="fill: #1f77b4; stroke: #1f77b4"/>
     <use xlink:href="#m6b48833e04" x="130.42836" y="377.263444" style="fill: #1f77b4; stroke: #1f77b4"/>
     <use xlink:href="#m6b48833e04" x="142.322884" y="377.263444" style="fill: #1f77b4; stroke: #1f77b4"/>
     <use xlink:href="#m6b48833e04" x="154.217408" y="377.263444" style="fill: #1f77b4; stroke: #1f77b4"/>
     <use xlink:href="#m6b48833e04" x="166.111933" y="377.263444" style="fill: #1f77b4; stroke: #1f77b4"/>
     <use xlink:href="#m6b48833e04" x="178.006457" y="377.263444" style="fill: #1f77b4; stroke: #1f77b4"/>
     <use xlink:href="#m6b48833e04" x="189.900981" y="377.263444" style="fill: #1f77b4; stroke: #1f77b4"/>
     <use xlink:href="#m6b48833e04" x="201.795506" y="377.263444" style="fill: #1f77b4; stroke: #1f77b4"/>
     <use xlink:href="#m6b48833e04" x="213.69003" y="377.263444" style="fill: #1f77b4; stroke: #1f77b4"/>
     <use xlink:href="#m6b48833e04" x="225.584554" y="379.373311" style="fill: #1f77b4; stroke: #1f77b4"/>
     <use xlink:href="#m6b48833e04" x="237.479078" y="377.263444" style="fill: #1f77b4; stroke: #1f77b4"/>
     <use xlink:href="#m6b48833e04" x="261.268127" y="379.373311" style="fill: #1f77b4; stroke: #1f77b4"/>
     <use xlink:href="#m6b48833e04" x="273.162651" y="379.373311" style="fill: #1f77b4; stroke: #1f77b4"/>
     <use xlink:href="#m6b48833e04" x="296.9517" y="377.263444" style="fill: #1f77b4; stroke: #1f77b4"/>
     <use xlink:href="#m6b48833e04" x="308.846224" y="377.263444" style="fill: #1f77b4; stroke: #1f77b4"/>
     <use xlink:href="#m6b48833e04" x="320.740748" y="377.263444" style="fill: #1f77b4; stroke: #1f77b4"/>
     <use xlink:href="#m6b48833e04" x="332.635273" y="398.591364" style="fill: #1f77b4; stroke: #1f77b4"/>
     <use xlink:href="#m6b48833e04" x="344.529797" y="377.263444" style="fill: #1f77b4; stroke: #1f77b4"/>
     <use xlink:href="#m6b48833e04" x="368.318846" y="377.263444" style="fill: #1f77b4; stroke: #1f77b4"/>
     <use xlink:href="#m6b48833e04" x="380.21337" y="377.263444" style="fill: #1f77b4; stroke: #1f77b4"/>
     <use xlink:href="#m6b48833e04" x="392.107894" y="377.263444" style="fill: #1f77b4; stroke: #1f77b4"/>
     <use xlink:href="#m6b48833e04" x="404.002418" y="377.263444" style="fill: #1f77b4; stroke: #1f77b4"/>
     <use xlink:href="#m6b48833e04" x="427.791467" y="379.373311" style="fill: #1f77b4; stroke: #1f77b4"/>
     <use xlink:href="#m6b48833e04" x="439.685991" y="379.373311" style="fill: #1f77b4; stroke: #1f77b4"/>
     <use xlink:href="#m6b48833e04" x="451.580516" y="377.263444" style="fill: #1f77b4; stroke: #1f77b4"/>
     <use xlink:href="#m6b48833e04" x="463.47504" y="379.373311" style="fill: #1f77b4; stroke: #1f77b4"/>
     <use xlink:href="#m6b48833e04" x="475.369564" y="379.373311" style="fill: #1f77b4; stroke: #1f77b4"/>
     <use xlink:href="#m6b48833e04" x="487.264088" y="377.263444" style="fill: #1f77b4; stroke: #1f77b4"/>
     <use xlink:href="#m6b48833e04" x="499.158613" y="379.373311" style="fill: #1f77b4; stroke: #1f77b4"/>
     <use xlink:href="#m6b48833e04" x="511.053137" y="379.373311" style="fill: #1f77b4; stroke: #1f77b4"/>
     <use xlink:href="#m6b48833e04" x="534.842186" y="442.849855" style="fill: #1f77b4; stroke: #1f77b4"/>
     <use xlink:href="#m6b48833e04" x="546.73671" y="442.849855" style="fill: #1f77b4; stroke: #1f77b4"/>
     <use xlink:href="#m6b48833e04" x="558.631234" y="445.121812" style="fill: #1f77b4; stroke: #1f77b4"/>
     <use xlink:href="#m6b48833e04" x="582.420283" y="442.849855" style="fill: #1f77b4; stroke: #1f77b4"/>
     <use xlink:href="#m6b48833e04" x="618.103856" y="442.849855" style="fill: #1f77b4; stroke: #1f77b4"/>
     <use xlink:href="#m6b48833e04" x="629.99838" y="445.121812" style="fill: #1f77b4; stroke: #1f77b4"/>
     <use xlink:href="#m6b48833e04" x="641.892904" y="445.121812" style="fill: #1f77b4; stroke: #1f77b4"/>
     <use xlink:href="#m6b48833e04" x="653.787428" y="442.849855" style="fill: #1f77b4; stroke: #1f77b4"/>
     <use xlink:href="#m6b48833e04" x="665.681953" y="442.849855" style="fill: #1f77b4; stroke: #1f77b4"/>
     <use xlink:href="#m6b48833e04" x="677.576477" y="442.849855" style="fill: #1f77b4; stroke: #1f77b4"/>
     <use xlink:href="#m6b48833e04" x="689.471001" y="442.849855" style="fill: #1f77b4; stroke: #1f77b4"/>
     <use xlink:href="#m6b48833e04" x="701.365526" y="465.835564" style="fill: #1f77b4; stroke: #1f77b4"/>
    </g>
   </g>
   <g id="line2d_17">
    <path d="M 94.744787 442.849855 
L 106.639311 356.436226 
L 118.533836 358.497083 
L 130.42836 377.263444 
L 142.322884 358.497083 
L 154.217408 377.263444 
L 166.111933 377.263444 
L 178.006457 358.497083 
L 189.900981 377.263444 
L 201.795506 356.436226 
L 213.69003 377.263444 
L 225.584554 358.497083 
L 237.479078 356.436226 
L 249.373603 356.436226 
L 261.268127 377.263444 
L 273.162651 358.497083 
L 296.9517 358.497083 
L 308.846224 358.497083 
L 320.740748 377.263444 
L 332.635273 356.436226 
L 344.529797 358.497083 
L 356.424321 358.497083 
L 368.318846 358.497083 
L 380.21337 356.436226 
L 392.107894 358.497083 
L 404.002418 46.813736 
L 427.791467 377.263444 
L 439.685991 377.263444 
L 451.580516 358.497083 
L 463.47504 356.436226 
L 475.369564 356.436226 
L 487.264088 356.436226 
L 499.158613 358.497083 
L 511.053137 356.436226 
L 534.842186 356.436226 
L 546.73671 377.263444 
L 558.631234 358.497083 
L 570.525758 358.497083 
L 582.420283 358.497083 
L 606.209331 377.263444 
L 618.103856 356.436226 
L 629.99838 356.436226 
L 641.892904 356.436226 
L 653.787428 356.436226 
L 665.681953 356.436226 
L 677.576477 358.497083 
L 689.471001 358.497083 
L 701.365526 506.332202 
" clip-path="url(#pa848e5fe57)" style="fill: none; stroke: #ff7f0e; stroke-width: 2; stroke-linecap: square"/>
    <defs>
     <path id="m7f1f1a2724" d="M 0 3 
C 0.795609 3 1.55874 2.683901 2.12132 2.12132 
C 2.683901 1.55874 3 0.795609 3 0 
C 3 -0.795609 2.683901 -1.55874 2.12132 -2.12132 
C 1.55874 -2.683901 0.795609 -3 0 -3 
C -0.795609 -3 -1.55874 -2.683901 -2.12132 -2.12132 
C -2.683901 -1.55874 -3 -0.795609 -3 0 
C -3 0.795609 -2.683901 1.55874 -2.12132 2.12132 
C -1.55874 2.683901 -0.795609 3 0 3 
z
" style="stroke: #ff7f0e"/>
    </defs>
    <g clip-path="url(#pa848e5fe57)">
     <use xlink:href="#m7f1f1a2724" x="94.744787" y="442.849855" style="fill: #ff7f0e; stroke: #ff7f0e"/>
     <use xlink:href="#m7f1f1a2724" x="106.639311" y="356.436226" style="fill: #ff7f0e; stroke: #ff7f0e"/>
     <use xlink:href="#m7f1f1a2724" x="118.533836" y="358.497083" style="fill: #ff7f0e; stroke: #ff7f0e"/>
     <use xlink:href="#m7f1f1a2724" x="130.42836" y="377.263444" style="fill: #ff7f0e; stroke: #ff7f0e"/>
     <use xlink:href="#m7f1f1a2724" x="142.322884" y="358.497083" style="fill: #ff7f0e; stroke: #ff7f0e"/>
     <use xlink:href="#m7f1f1a2724" x="154.217408" y="377.263444" style="fill: #ff7f0e; stroke: #ff7f0e"/>
     <use xlink:href="#m7f1f1a2724" x="166.111933" y="377.263444" style="fill: #ff7f0e; stroke: #ff7f0e"/>
     <use xlink:href="#m7f1f1a2724" x="178.006457" y="358.497083" style="fill: #ff7f0e; stroke: #ff7f0e"/>
     <use xlink:href="#m7f1f1a2724" x="189.900981" y="377.263444" style="fill: #ff7f0e; stroke: #ff7f0e"/>
     <use xlink:href="#m7f1f1a2724" x="201.795506" y="356.436226" style="fill: #ff7f0e; stroke: #ff7f0e"/>
     <use xlink:href="#m7f1f1a2724" x="213.69003" y="377.263444" style="fill: #ff7f0e; stroke: #ff7f0e"/>
     <use xlink:href="#m7f1f1a2724" x="225.584554" y="358.497083" style="fill: #ff7f0e; stroke: #ff7f0e"/>
     <use xlink:href="#m7f1f1a2724" x="237.479078" y="356.436226" style="fill: #ff7f0e; stroke: #ff7f0e"/>
     <use xlink:href="#m7f1f1a2724" x="249.373603" y="356.436226" style="fill: #ff7f0e; stroke: #ff7f0e"/>
     <use xlink:href="#m7f1f1a2724" x="261.268127" y="377.263444" style="fill: #ff7f0e; stroke: #ff7f0e"/>
     <use xlink:href="#m7f1f1a2724" x="273.162651" y="358.497083" style="fill: #ff7f0e; stroke: #ff7f0e"/>
     <use xlink:href="#m7f1f1a2724" x="296.9517" y="358.497083" style="fill: #ff7f0e; stroke: #ff7f0e"/>
     <use xlink:href="#m7f1f1a2724" x="308.846224" y="358.497083" style="fill: #ff7f0e; stroke: #ff7f0e"/>
     <use xlink:href="#m7f1f1a2724" x="320.740748" y="377.263444" style="fill: #ff7f0e; stroke: #ff7f0e"/>
     <use xlink:href="#m7f1f1a2724" x="332.635273" y="356.436226" style="fill: #ff7f0e; stroke: #ff7f0e"/>
     <use xlink:href="#m7f1f1a2724" x="344.529797" y="358.497083" style="fill: #ff7f0e; stroke: #ff7f0e"/>
     <use xlink:href="#m7f1f1a2724" x="356.424321" y="358.497083" style="fill: #ff7f0e; stroke: #ff7f0e"/>
     <use xlink:href="#m7f1f1a2724" x="368.318846" y="358.497083" style="fill: #ff7f0e; stroke: #ff7f0e"/>
     <use xlink:href="#m7f1f1a2724" x="380.21337" y="356.436226" style="fill: #ff7f0e; stroke: #ff7f0e"/>
     <use xlink:href="#m7f1f1a2724" x="392.107894" y="358.497083" style="fill: #ff7f0e; stroke: #ff7f0e"/>
     <use xlink:href="#m7f1f1a2724" x="404.002418" y="46.813736" style="fill: #ff7f0e; stroke: #ff7f0e"/>
     <use xlink:href="#m7f1f1a2724" x="427.791467" y="377.263444" style="fill: #ff7f0e; stroke: #ff7f0e"/>
     <use xlink:href="#m7f1f1a2724" x="439.685991" y="377.263444" style="fill: #ff7f0e; stroke: #ff7f0e"/>
     <use xlink:href="#m7f1f1a2724" x="451.580516" y="358.497083" style="fill: #ff7f0e; stroke: #ff7f0e"/>
     <use xlink:href="#m7f1f1a2724" x="463.47504" y="356.436226" style="fill: #ff7f0e; stroke: #ff7f0e"/>
     <use xlink:href="#m7f1f1a2724" x="475.369564" y="356.436226" style="fill: #ff7f0e; stroke: #ff7f0e"/>
     <use xlink:href="#m7f1f1a2724" x="487.264088" y="356.436226" style="fill: #ff7f0e; stroke: #ff7f0e"/>
     <use xlink:href="#m7f1f1a2724" x="499.158613" y="358.497083" style="fill: #ff7f0e; stroke: #ff7f0e"/>
     <use xlink:href="#m7f1f1a2724" x="511.053137" y="356.436226" style="fill: #ff7f0e; stroke: #ff7f0e"/>
     <use xlink:href="#m7f1f1a2724" x="534.842186" y="356.436226" style="fill: #ff7f0e; stroke: #ff7f0e"/>
     <use xlink:href="#m7f1f1a2724" x="546.73671" y="377.263444" style="fill: #ff7f0e; stroke: #ff7f0e"/>
     <use xlink:href="#m7f1f1a2724" x="558.631234" y="358.497083" style="fill: #ff7f0e; stroke: #ff7f0e"/>
     <use xlink:href="#m7f1f1a2724" x="570.525758" y="358.497083" style="fill: #ff7f0e; stroke: #ff7f0e"/>
     <use xlink:href="#m7f1f1a2724" x="582.420283" y="358.497083" style="fill: #ff7f0e; stroke: #ff7f0e"/>
     <use xlink:href="#m7f1f1a2724" x="606.209331" y="377.263444" style="fill: #ff7f0e; stroke: #ff7f0e"/>
     <use xlink:href="#m7f1f1a2724" x="618.103856" y="356.436226" style="fill: #ff7f0e; stroke: #ff7f0e"/>
     <use xlink:href="#m7f1f1a2724" x="629.99838" y="356.436226" style="fill: #ff7f0e; stroke: #ff7f0e"/>
     <use xlink:href="#m7f1f1a2724" x="641.892904" y="356.436226" style="fill: #ff7f0e; stroke: #ff7f0e"/>
     <use xlink:href="#m7f1f1a2724" x="653.787428" y="356.436226" style="fill: #ff7f0e; stroke: #ff7f0e"/>
     <use xlink:href="#m7f1f1a2724" x="665.681953" y="356.436226" style="fill: #ff7f0e; stroke: #ff7f0e"/>
     <use xlink:href="#m7f1f1a2724" x="677.576477" y="358.497083" style="fill: #ff7f0e; stroke: #ff7f0e"/>
     <use xlink:href="#m7f1f1a2724" x="689.471001" y="358.497083" style="fill: #ff7f0e; stroke: #ff7f0e"/>
     <use xlink:href="#m7f1f1a2724" x="701.365526" y="506.332202" style="fill: #ff7f0e; stroke: #ff7f0e"/>
    </g>
   </g>
   <g id="patch_3">
    <path d="M 64.41375 529.308125 
L 64.41375 23.837812 
" style="fill: none; stroke: #000000; stroke-width: 0.8; stroke-linejoin: miter; stroke-linecap: square"/>
   </g>
   <g id="patch_4">
    <path d="M 731.696562 529.308125 
L 731.696562 23.837812 
" style="fill: none; stroke: #000000; stroke-width: 0.8; stroke-linejoin: miter; stroke-linecap: square"/>
   </g>
   <g id="patch_5">
    <path d="M 64.41375 529.308125 
L 731.696562 529.308125 
" style="fill: none; stroke: #000000; stroke-width: 0.8; stroke-linejoin: miter; stroke-linecap: square"/>
   </g>
   <g id="patch_6">
    <path d="M 64.41375 23.837812 
L 731.696562 23.837812 
" style="fill: none; stroke: #000000; stroke-width: 0.8; stroke-linejoin: miter; stroke-linecap: square"/>
   </g>
   <g id="text_12">
    <text style="font: 700 14px 'DejaVu Sans', 'Bitstream Vera Sans', 'Computer Modern Sans Serif', 'Lucida Grande', 'Verdana', 'Geneva', 'Lucid', 'Arial', 'Helvetica', 'Avant Garde', sans-serif; text-anchor: middle" x="398.055156" y="17.837813" transform="rotate(-0 398.055156 17.837813)">Ts Thread Local Single Thread - Performance Trend</text>
   </g>
   <g id="legend_1">
    <g id="patch_7">
     <path d="M 772.060703 61.194063 
L 847.484141 61.194063 
Q 849.484141 61.194063 849.484141 59.194063 
L 849.484141 30.837813 
Q 849.484141 28.837813 847.484141 28.837813 
L 772.060703 28.837813 
Q 770.060703 28.837813 770.060703 30.837813 
L 770.060703 59.194063 
Q 770.060703 61.194063 772.060703 61.194063 
z
" style="fill: #ffffff; opacity: 0.8; stroke: #cccccc; stroke-linejoin: miter"/>
    </g>
    <g id="line2d_18">
     <path d="M 774.060703 36.93625 
L 784.060703 36.93625 
L 794.060703 36.93625 
" style="fill: none; stroke: #1f77b4; stroke-width: 2; stroke-linecap: square"/>
     <g>
      <use xlink:href="#m6b48833e04" x="784.060703" y="36.93625" style="fill: #1f77b4; stroke: #1f77b4"/>
     </g>
    </g>
    <g id="text_13">
     <text style="font: 10px 'DejaVu Sans', 'Bitstream Vera Sans', 'Computer Modern Sans Serif', 'Lucida Grande', 'Verdana', 'Geneva', 'Lucid', 'Arial', 'Helvetica', 'Avant Garde', sans-serif; text-anchor: start" x="802.060703" y="40.43625" transform="rotate(-0 802.060703 40.43625)">clang-18</text>
    </g>
    <g id="line2d_19">
     <path d="M 774.060703 51.614375 
L 784.060703 51.614375 
L 794.060703 51.614375 
" style="fill: none; stroke: #ff7f0e; stroke-width: 2; stroke-linecap: square"/>
     <g>
      <use xlink:href="#m7f1f1a2724" x="784.060703" y="51.614375" style="fill: #ff7f0e; stroke: #ff7f0e"/>
     </g>
    </g>
    <g id="text_14">
     <text style="font: 10px 'DejaVu Sans', 'Bitstream Vera Sans', 'Computer Modern Sans Serif', 'Lucida Grande', 'Verdana', 'Geneva', 'Lucid', 'Arial', 'Helvetica', 'Avant Garde', sans-serif; text-anchor: start" x="802.060703" y="55.114375" transform="rotate(-0 802.060703 55.114375)">gcc-14</text>
    </g>
   </g>
  </g>
 </g>
 <defs>
  <clipPath id="pa848e5fe57">
   <rect x="64.41375" y="23.837813" width="667.282812" height="505.470313"/>
  </clipPath>
 </defs>
</svg>
