<?xml version="1.0" encoding="utf-8" standalone="no"?>
<!DOCTYPE svg PUBLIC "-//W3C//DTD SVG 1.1//EN"
  "http://www.w3.org/Graphics/SVG/1.1/DTD/svg11.dtd">
<svg xmlns:xlink="http://www.w3.org/1999/xlink" width="855.536016pt" height="568.8pt" viewBox="0 0 855.536016 568.8" xmlns="http://www.w3.org/2000/svg" version="1.1">
 <metadata>
  <rdf:RDF xmlns:dc="http://purl.org/dc/elements/1.1/" xmlns:cc="http://creativecommons.org/ns#" xmlns:rdf="http://www.w3.org/1999/02/22-rdf-syntax-ns#">
   <cc:Work>
    <dc:type rdf:resource="http://purl.org/dc/dcmitype/StillImage"/>
    <dc:date>2025-08-30T10:56:12.304817</dc:date>
    <dc:format>image/svg+xml</dc:format>
    <dc:creator>
     <cc:Agent>
      <dc:title>Matplotlib v3.9.4, https://matplotlib.org/</dc:title>
     </cc:Agent>
    </dc:creator>
   </cc:Work>
  </rdf:RDF>
 </metadata>
 <defs>
  <style type="text/css">*{stroke-linejoin: round; stroke-linecap: butt}</style>
 </defs>
 <g id="figure_1">
  <g id="patch_1">
   <path d="M 0 568.8 
L 855.536016 568.8 
L 855.536016 0 
L 0 0 
z
" style="fill: #ffffff"/>
  </g>
  <g id="axes_1">
   <g id="patch_2">
    <path d="M 64.41375 529.308125 
L 708.734063 529.308125 
L 708.734063 23.837812 
L 64.41375 23.837812 
z
" style="fill: #ffffff"/>
   </g>
   <g id="matplotlib.axis_1">
    <g id="xtick_1">
     <g id="line2d_1">
      <path d="M 79.057393 529.308125 
L 79.057393 23.837812 
" clip-path="url(#p3f9022e843)" style="fill: none; stroke: #b0b0b0; stroke-opacity: 0.3; stroke-width: 0.8; stroke-linecap: square"/>
     </g>
     <g id="line2d_2">
      <defs>
       <path id="m130033dd94" d="M 0 0 
L 0 3.5 
" style="stroke: #000000; stroke-width: 0.8"/>
      </defs>
      <g>
       <use xlink:href="#m130033dd94" x="79.057393" y="529.308125" style="stroke: #000000; stroke-width: 0.8"/>
      </g>
     </g>
     <g id="text_1">
      <text style="font: 10px 'DejaVu Sans', 'Bitstream Vera Sans', 'Computer Modern Sans Serif', 'Lucida Grande', 'Verdana', 'Geneva', 'Lucid', 'Arial', 'Helvetica', 'Avant Garde', sans-serif; text-anchor: middle" x="79.057393" y="543.906563" transform="rotate(-0 79.057393 543.906563)">70</text>
     </g>
    </g>
    <g id="xtick_2">
     <g id="line2d_3">
      <path d="M 152.275611 529.308125 
L 152.275611 23.837812 
" clip-path="url(#p3f9022e843)" style="fill: none; stroke: #b0b0b0; stroke-opacity: 0.3; stroke-width: 0.8; stroke-linecap: square"/>
     </g>
     <g id="line2d_4">
      <g>
       <use xlink:href="#m130033dd94" x="152.275611" y="529.308125" style="stroke: #000000; stroke-width: 0.8"/>
      </g>
     </g>
     <g id="text_2">
      <text style="font: 10px 'DejaVu Sans', 'Bitstream Vera Sans', 'Computer Modern Sans Serif', 'Lucida Grande', 'Verdana', 'Geneva', 'Lucid', 'Arial', 'Helvetica', 'Avant Garde', sans-serif; text-anchor: middle" x="152.275611" y="543.906563" transform="rotate(-0 152.275611 543.906563)">75</text>
     </g>
    </g>
    <g id="xtick_3">
     <g id="line2d_5">
      <path d="M 225.493828 529.308125 
L 225.493828 23.837812 
" clip-path="url(#p3f9022e843)" style="fill: none; stroke: #b0b0b0; stroke-opacity: 0.3; stroke-width: 0.8; stroke-linecap: square"/>
     </g>
     <g id="line2d_6">
      <g>
       <use xlink:href="#m130033dd94" x="225.493828" y="529.308125" style="stroke: #000000; stroke-width: 0.8"/>
      </g>
     </g>
     <g id="text_3">
      <text style="font: 10px 'DejaVu Sans', 'Bitstream Vera Sans', 'Computer Modern Sans Serif', 'Lucida Grande', 'Verdana', 'Geneva', 'Lucid', 'Arial', 'Helvetica', 'Avant Garde', sans-serif; text-anchor: middle" x="225.493828" y="543.906563" transform="rotate(-0 225.493828 543.906563)">80</text>
     </g>
    </g>
    <g id="xtick_4">
     <g id="line2d_7">
      <path d="M 298.712045 529.308125 
L 298.712045 23.837812 
" clip-path="url(#p3f9022e843)" style="fill: none; stroke: #b0b0b0; stroke-opacity: 0.3; stroke-width: 0.8; stroke-linecap: square"/>
     </g>
     <g id="line2d_8">
      <g>
       <use xlink:href="#m130033dd94" x="298.712045" y="529.308125" style="stroke: #000000; stroke-width: 0.8"/>
      </g>
     </g>
     <g id="text_4">
      <text style="font: 10px 'DejaVu Sans', 'Bitstream Vera Sans', 'Computer Modern Sans Serif', 'Lucida Grande', 'Verdana', 'Geneva', 'Lucid', 'Arial', 'Helvetica', 'Avant Garde', sans-serif; text-anchor: middle" x="298.712045" y="543.906563" transform="rotate(-0 298.712045 543.906563)">85</text>
     </g>
    </g>
    <g id="xtick_5">
     <g id="line2d_9">
      <path d="M 371.930263 529.308125 
L 371.930263 23.837812 
" clip-path="url(#p3f9022e843)" style="fill: none; stroke: #b0b0b0; stroke-opacity: 0.3; stroke-width: 0.8; stroke-linecap: square"/>
     </g>
     <g id="line2d_10">
      <g>
       <use xlink:href="#m130033dd94" x="371.930263" y="529.308125" style="stroke: #000000; stroke-width: 0.8"/>
      </g>
     </g>
     <g id="text_5">
      <text style="font: 10px 'DejaVu Sans', 'Bitstream Vera Sans', 'Computer Modern Sans Serif', 'Lucida Grande', 'Verdana', 'Geneva', 'Lucid', 'Arial', 'Helvetica', 'Avant Garde', sans-serif; text-anchor: middle" x="371.930263" y="543.906563" transform="rotate(-0 371.930263 543.906563)">90</text>
     </g>
    </g>
    <g id="xtick_6">
     <g id="line2d_11">
      <path d="M 445.14848 529.308125 
L 445.14848 23.837812 
" clip-path="url(#p3f9022e843)" style="fill: none; stroke: #b0b0b0; stroke-opacity: 0.3; stroke-width: 0.8; stroke-linecap: square"/>
     </g>
     <g id="line2d_12">
      <g>
       <use xlink:href="#m130033dd94" x="445.14848" y="529.308125" style="stroke: #000000; stroke-width: 0.8"/>
      </g>
     </g>
     <g id="text_6">
      <text style="font: 10px 'DejaVu Sans', 'Bitstream Vera Sans', 'Computer Modern Sans Serif', 'Lucida Grande', 'Verdana', 'Geneva', 'Lucid', 'Arial', 'Helvetica', 'Avant Garde', sans-serif; text-anchor: middle" x="445.14848" y="543.906563" transform="rotate(-0 445.14848 543.906563)">95</text>
     </g>
    </g>
    <g id="xtick_7">
     <g id="line2d_13">
      <path d="M 518.366697 529.308125 
L 518.366697 23.837812 
" clip-path="url(#p3f9022e843)" style="fill: none; stroke: #b0b0b0; stroke-opacity: 0.3; stroke-width: 0.8; stroke-linecap: square"/>
     </g>
     <g id="line2d_14">
      <g>
       <use xlink:href="#m130033dd94" x="518.366697" y="529.308125" style="stroke: #000000; stroke-width: 0.8"/>
      </g>
     </g>
     <g id="text_7">
      <text style="font: 10px 'DejaVu Sans', 'Bitstream Vera Sans', 'Computer Modern Sans Serif', 'Lucida Grande', 'Verdana', 'Geneva', 'Lucid', 'Arial', 'Helvetica', 'Avant Garde', sans-serif; text-anchor: middle" x="518.366697" y="543.906563" transform="rotate(-0 518.366697 543.906563)">100</text>
     </g>
    </g>
    <g id="xtick_8">
     <g id="line2d_15">
      <path d="M 591.584915 529.308125 
L 591.584915 23.837812 
" clip-path="url(#p3f9022e843)" style="fill: none; stroke: #b0b0b0; stroke-opacity: 0.3; stroke-width: 0.8; stroke-linecap: square"/>
     </g>
     <g id="line2d_16">
      <g>
       <use xlink:href="#m130033dd94" x="591.584915" y="529.308125" style="stroke: #000000; stroke-width: 0.8"/>
      </g>
     </g>
     <g id="text_8">
      <text style="font: 10px 'DejaVu Sans', 'Bitstream Vera Sans', 'Computer Modern Sans Serif', 'Lucida Grande', 'Verdana', 'Geneva', 'Lucid', 'Arial', 'Helvetica', 'Avant Garde', sans-serif; text-anchor: middle" x="591.584915" y="543.906563" transform="rotate(-0 591.584915 543.906563)">105</text>
     </g>
    </g>
    <g id="xtick_9">
     <g id="line2d_17">
      <path d="M 664.803132 529.308125 
L 664.803132 23.837812 
" clip-path="url(#p3f9022e843)" style="fill: none; stroke: #b0b0b0; stroke-opacity: 0.3; stroke-width: 0.8; stroke-linecap: square"/>
     </g>
     <g id="line2d_18">
      <g>
       <use xlink:href="#m130033dd94" x="664.803132" y="529.308125" style="stroke: #000000; stroke-width: 0.8"/>
      </g>
     </g>
     <g id="text_9">
      <text style="font: 10px 'DejaVu Sans', 'Bitstream Vera Sans', 'Computer Modern Sans Serif', 'Lucida Grande', 'Verdana', 'Geneva', 'Lucid', 'Arial', 'Helvetica', 'Avant Garde', sans-serif; text-anchor: middle" x="664.803132" y="543.906563" transform="rotate(-0 664.803132 543.906563)">110</text>
     </g>
    </g>
    <g id="text_10">
     <text style="font: 12px 'DejaVu Sans', 'Bitstream Vera Sans', 'Computer Modern Sans Serif', 'Lucida Grande', 'Verdana', 'Geneva', 'Lucid', 'Arial', 'Helvetica', 'Avant Garde', sans-serif; text-anchor: middle" x="386.573906" y="559.104375" transform="rotate(-0 386.573906 559.104375)">Build Number</text>
    </g>
   </g>
   <g id="matplotlib.axis_2">
    <g id="ytick_1">
     <g id="line2d_19">
      <path d="M 64.41375 334.291639 
L 708.734063 334.291639 
" clip-path="url(#p3f9022e843)" style="fill: none; stroke: #b0b0b0; stroke-opacity: 0.3; stroke-width: 0.8; stroke-linecap: square"/>
     </g>
     <g id="line2d_20">
      <defs>
       <path id="m2bf5aa68ba" d="M 0 0 
L -3.5 0 
" style="stroke: #000000; stroke-width: 0.8"/>
      </defs>
      <g>
       <use xlink:href="#m2bf5aa68ba" x="64.41375" y="334.291639" style="stroke: #000000; stroke-width: 0.8"/>
      </g>
     </g>
     <g id="text_11">
      <!-- $\mathdefault{10^{5}}$ -->
      <g transform="translate(39.81375 338.090858)">
       <text>
        <tspan style="font: 10px 'DejaVu Sans'" x="0 6.362305" y="-0.06406250000000036">10</tspan>
        <tspan style="font: 7px 'DejaVu Sans'" x="12.820312" y="-3.8921875000000004">5</tspan>
       </text>
      </g>
     </g>
    </g>
    <g id="ytick_2">
     <g id="line2d_21">
      <defs>
       <path id="m58e1eab318" d="M 0 0 
L -2 0 
" style="stroke: #000000; stroke-width: 0.6"/>
      </defs>
      <g>
       <use xlink:href="#m58e1eab318" x="64.41375" y="505.7097" style="stroke: #000000; stroke-width: 0.6"/>
      </g>
     </g>
     <g id="text_12">
      <!-- $\mathdefault{6\times10^{4}}$ -->
      <g transform="translate(22.81375 509.508919)">
       <text>
        <tspan style="font: 10px 'DejaVu Sans'" x="0 8.310547 18.637695 25" y="-0.06406250000000036">6×10</tspan>
        <tspan style="font: 7px 'DejaVu Sans'" x="31.458008" y="-3.8921875000000004">4</tspan>
       </text>
      </g>
     </g>
    </g>
    <g id="ytick_3">
     <g id="line2d_22">
      <g>
       <use xlink:href="#m58e1eab318" x="64.41375" y="453.981264" style="stroke: #000000; stroke-width: 0.6"/>
      </g>
     </g>
    </g>
    <g id="ytick_4">
     <g id="line2d_23">
      <g>
       <use xlink:href="#m58e1eab318" x="64.41375" y="409.172055" style="stroke: #000000; stroke-width: 0.6"/>
      </g>
     </g>
    </g>
    <g id="ytick_5">
     <g id="line2d_24">
      <g>
       <use xlink:href="#m58e1eab318" x="64.41375" y="369.647531" style="stroke: #000000; stroke-width: 0.6"/>
      </g>
     </g>
    </g>
    <g id="ytick_6">
     <g id="line2d_25">
      <g>
       <use xlink:href="#m58e1eab318" x="64.41375" y="101.691823" style="stroke: #000000; stroke-width: 0.6"/>
      </g>
     </g>
     <g id="text_13">
      <!-- $\mathdefault{2\times10^{5}}$ -->
      <g transform="translate(22.81375 105.491042)">
       <text>
        <tspan style="font: 10px 'DejaVu Sans'" x="0 8.310547 18.637695 25" y="-0.06406250000000036">2×10</tspan>
        <tspan style="font: 7px 'DejaVu Sans'" x="31.458008" y="-3.8921875000000004">5</tspan>
       </text>
      </g>
     </g>
    </g>
    <g id="text_14">
     <text style="font: 12px 'DejaVu Sans', 'Bitstream Vera Sans', 'Computer Modern Sans Serif', 'Lucida Grande', 'Verdana', 'Geneva', 'Lucid', 'Arial', 'Helvetica', 'Avant Garde', sans-serif; text-anchor: middle" x="16.318125" y="276.572969" transform="rotate(-90 16.318125 276.572969)">Median Elapsed Time (nanoseconds)</text>
    </g>
   </g>
   <g id="line2d_26">
    <path d="M 93.701037 46.813736 
L 108.34468 191.993804 
L 122.988324 203.583288 
L 137.631967 226.939206 
L 152.275611 249.293351 
L 166.919254 197.56458 
L 181.562898 217.514077 
L 196.206541 216.449271 
L 210.850185 213.414453 
L 225.493828 197.627325 
L 240.137472 255.061283 
L 254.781115 181.822836 
L 269.424759 48.546392 
L 284.068402 155.181473 
L 298.712045 255.056248 
L 313.355689 280.19621 
L 342.642976 250.483261 
L 357.286619 243.683337 
L 371.930263 243.288052 
L 386.573906 283.580852 
L 401.21755 283.575659 
L 415.861193 244.097042 
L 430.504837 245.4831 
L 445.14848 283.596143 
L 459.792124 244.026517 
L 474.435767 252.14706 
L 503.723054 107.746626 
L 518.366697 249.935013 
L 533.010341 47.122473 
L 547.653984 283.266816 
L 562.297628 237.087039 
L 576.941271 284.46166 
L 591.584915 243.282935 
L 606.228558 241.955645 
L 635.515845 283.561234 
L 650.159489 282.732565 
L 664.803132 243.462084 
L 679.446776 282.945875 
" clip-path="url(#p3f9022e843)" style="fill: none; stroke: #1f77b4; stroke-width: 2; stroke-linecap: square"/>
    <defs>
     <path id="m09320d10d1" d="M 0 3 
C 0.795609 3 1.55874 2.683901 2.12132 2.12132 
C 2.683901 1.55874 3 0.795609 3 0 
C 3 -0.795609 2.683901 -1.55874 2.12132 -2.12132 
C 1.55874 -2.683901 0.795609 -3 0 -3 
C -0.795609 -3 -1.55874 -2.683901 -2.12132 -2.12132 
C -2.683901 -1.55874 -3 -0.795609 -3 0 
C -3 0.795609 -2.683901 1.55874 -2.12132 2.12132 
C -1.55874 2.683901 -0.795609 3 0 3 
z
" style="stroke: #1f77b4"/>
    </defs>
    <g clip-path="url(#p3f9022e843)">
     <use xlink:href="#m09320d10d1" x="93.701037" y="46.813736" style="fill: #1f77b4; stroke: #1f77b4"/>
     <use xlink:href="#m09320d10d1" x="108.34468" y="191.993804" style="fill: #1f77b4; stroke: #1f77b4"/>
     <use xlink:href="#m09320d10d1" x="122.988324" y="203.583288" style="fill: #1f77b4; stroke: #1f77b4"/>
     <use xlink:href="#m09320d10d1" x="137.631967" y="226.939206" style="fill: #1f77b4; stroke: #1f77b4"/>
     <use xlink:href="#m09320d10d1" x="152.275611" y="249.293351" style="fill: #1f77b4; stroke: #1f77b4"/>
     <use xlink:href="#m09320d10d1" x="166.919254" y="197.56458" style="fill: #1f77b4; stroke: #1f77b4"/>
     <use xlink:href="#m09320d10d1" x="181.562898" y="217.514077" style="fill: #1f77b4; stroke: #1f77b4"/>
     <use xlink:href="#m09320d10d1" x="196.206541" y="216.449271" style="fill: #1f77b4; stroke: #1f77b4"/>
     <use xlink:href="#m09320d10d1" x="210.850185" y="213.414453" style="fill: #1f77b4; stroke: #1f77b4"/>
     <use xlink:href="#m09320d10d1" x="225.493828" y="197.627325" style="fill: #1f77b4; stroke: #1f77b4"/>
     <use xlink:href="#m09320d10d1" x="240.137472" y="255.061283" style="fill: #1f77b4; stroke: #1f77b4"/>
     <use xlink:href="#m09320d10d1" x="254.781115" y="181.822836" style="fill: #1f77b4; stroke: #1f77b4"/>
     <use xlink:href="#m09320d10d1" x="269.424759" y="48.546392" style="fill: #1f77b4; stroke: #1f77b4"/>
     <use xlink:href="#m09320d10d1" x="284.068402" y="155.181473" style="fill: #1f77b4; stroke: #1f77b4"/>
     <use xlink:href="#m09320d10d1" x="298.712045" y="255.056248" style="fill: #1f77b4; stroke: #1f77b4"/>
     <use xlink:href="#m09320d10d1" x="313.355689" y="280.19621" style="fill: #1f77b4; stroke: #1f77b4"/>
     <use xlink:href="#m09320d10d1" x="342.642976" y="250.483261" style="fill: #1f77b4; stroke: #1f77b4"/>
     <use xlink:href="#m09320d10d1" x="357.286619" y="243.683337" style="fill: #1f77b4; stroke: #1f77b4"/>
     <use xlink:href="#m09320d10d1" x="371.930263" y="243.288052" style="fill: #1f77b4; stroke: #1f77b4"/>
     <use xlink:href="#m09320d10d1" x="386.573906" y="283.580852" style="fill: #1f77b4; stroke: #1f77b4"/>
     <use xlink:href="#m09320d10d1" x="401.21755" y="283.575659" style="fill: #1f77b4; stroke: #1f77b4"/>
     <use xlink:href="#m09320d10d1" x="415.861193" y="244.097042" style="fill: #1f77b4; stroke: #1f77b4"/>
     <use xlink:href="#m09320d10d1" x="430.504837" y="245.4831" style="fill: #1f77b4; stroke: #1f77b4"/>
     <use xlink:href="#m09320d10d1" x="445.14848" y="283.596143" style="fill: #1f77b4; stroke: #1f77b4"/>
     <use xlink:href="#m09320d10d1" x="459.792124" y="244.026517" style="fill: #1f77b4; stroke: #1f77b4"/>
     <use xlink:href="#m09320d10d1" x="474.435767" y="252.14706" style="fill: #1f77b4; stroke: #1f77b4"/>
     <use xlink:href="#m09320d10d1" x="503.723054" y="107.746626" style="fill: #1f77b4; stroke: #1f77b4"/>
     <use xlink:href="#m09320d10d1" x="518.366697" y="249.935013" style="fill: #1f77b4; stroke: #1f77b4"/>
     <use xlink:href="#m09320d10d1" x="533.010341" y="47.122473" style="fill: #1f77b4; stroke: #1f77b4"/>
     <use xlink:href="#m09320d10d1" x="547.653984" y="283.266816" style="fill: #1f77b4; stroke: #1f77b4"/>
     <use xlink:href="#m09320d10d1" x="562.297628" y="237.087039" style="fill: #1f77b4; stroke: #1f77b4"/>
     <use xlink:href="#m09320d10d1" x="576.941271" y="284.46166" style="fill: #1f77b4; stroke: #1f77b4"/>
     <use xlink:href="#m09320d10d1" x="591.584915" y="243.282935" style="fill: #1f77b4; stroke: #1f77b4"/>
     <use xlink:href="#m09320d10d1" x="606.228558" y="241.955645" style="fill: #1f77b4; stroke: #1f77b4"/>
     <use xlink:href="#m09320d10d1" x="635.515845" y="283.561234" style="fill: #1f77b4; stroke: #1f77b4"/>
     <use xlink:href="#m09320d10d1" x="650.159489" y="282.732565" style="fill: #1f77b4; stroke: #1f77b4"/>
     <use xlink:href="#m09320d10d1" x="664.803132" y="243.462084" style="fill: #1f77b4; stroke: #1f77b4"/>
     <use xlink:href="#m09320d10d1" x="679.446776" y="282.945875" style="fill: #1f77b4; stroke: #1f77b4"/>
    </g>
   </g>
   <g id="line2d_27">
    <path d="M 93.701037 240.963675 
L 108.34468 243.863598 
L 122.988324 244.090117 
L 137.631967 246.102545 
L 152.275611 239.261485 
L 166.919254 244.568784 
L 181.562898 239.50832 
L 196.206541 247.747045 
L 210.850185 241.093226 
L 225.493828 247.539422 
L 240.137472 242.14731 
L 254.781115 245.28202 
L 269.424759 248.914302 
L 284.068402 244.728064 
L 298.712045 249.45098 
L 313.355689 239.165431 
L 342.642976 244.109353 
L 357.286619 241.526717 
L 371.930263 244.443983 
L 386.573906 247.414482 
L 401.21755 239.866502 
L 415.861193 237.098844 
L 430.504837 237.606123 
L 445.14848 235.646113 
L 459.792124 280.614175 
L 474.435767 247.512733 
L 503.723054 279.756862 
L 518.366697 281.661443 
L 533.010341 280.709844 
L 547.653984 280.122753 
L 562.297628 279.068518 
L 576.941271 280.640628 
L 591.584915 279.542799 
L 606.228558 279.805152 
L 635.515845 278.523852 
L 650.159489 281.342606 
L 664.803132 277.611705 
L 679.446776 277.650819 
" clip-path="url(#p3f9022e843)" style="fill: none; stroke: #ff7f0e; stroke-width: 2; stroke-linecap: square"/>
    <defs>
     <path id="m331ab5899e" d="M 0 3 
C 0.795609 3 1.55874 2.683901 2.12132 2.12132 
C 2.683901 1.55874 3 0.795609 3 0 
C 3 -0.795609 2.683901 -1.55874 2.12132 -2.12132 
C 1.55874 -2.683901 0.795609 -3 0 -3 
C -0.795609 -3 -1.55874 -2.683901 -2.12132 -2.12132 
C -2.683901 -1.55874 -3 -0.795609 -3 0 
C -3 0.795609 -2.683901 1.55874 -2.12132 2.12132 
C -1.55874 2.683901 -0.795609 3 0 3 
z
" style="stroke: #ff7f0e"/>
    </defs>
    <g clip-path="url(#p3f9022e843)">
     <use xlink:href="#m331ab5899e" x="93.701037" y="240.963675" style="fill: #ff7f0e; stroke: #ff7f0e"/>
     <use xlink:href="#m331ab5899e" x="108.34468" y="243.863598" style="fill: #ff7f0e; stroke: #ff7f0e"/>
     <use xlink:href="#m331ab5899e" x="122.988324" y="244.090117" style="fill: #ff7f0e; stroke: #ff7f0e"/>
     <use xlink:href="#m331ab5899e" x="137.631967" y="246.102545" style="fill: #ff7f0e; stroke: #ff7f0e"/>
     <use xlink:href="#m331ab5899e" x="152.275611" y="239.261485" style="fill: #ff7f0e; stroke: #ff7f0e"/>
     <use xlink:href="#m331ab5899e" x="166.919254" y="244.568784" style="fill: #ff7f0e; stroke: #ff7f0e"/>
     <use xlink:href="#m331ab5899e" x="181.562898" y="239.50832" style="fill: #ff7f0e; stroke: #ff7f0e"/>
     <use xlink:href="#m331ab5899e" x="196.206541" y="247.747045" style="fill: #ff7f0e; stroke: #ff7f0e"/>
     <use xlink:href="#m331ab5899e" x="210.850185" y="241.093226" style="fill: #ff7f0e; stroke: #ff7f0e"/>
     <use xlink:href="#m331ab5899e" x="225.493828" y="247.539422" style="fill: #ff7f0e; stroke: #ff7f0e"/>
     <use xlink:href="#m331ab5899e" x="240.137472" y="242.14731" style="fill: #ff7f0e; stroke: #ff7f0e"/>
     <use xlink:href="#m331ab5899e" x="254.781115" y="245.28202" style="fill: #ff7f0e; stroke: #ff7f0e"/>
     <use xlink:href="#m331ab5899e" x="269.424759" y="248.914302" style="fill: #ff7f0e; stroke: #ff7f0e"/>
     <use xlink:href="#m331ab5899e" x="284.068402" y="244.728064" style="fill: #ff7f0e; stroke: #ff7f0e"/>
     <use xlink:href="#m331ab5899e" x="298.712045" y="249.45098" style="fill: #ff7f0e; stroke: #ff7f0e"/>
     <use xlink:href="#m331ab5899e" x="313.355689" y="239.165431" style="fill: #ff7f0e; stroke: #ff7f0e"/>
     <use xlink:href="#m331ab5899e" x="342.642976" y="244.109353" style="fill: #ff7f0e; stroke: #ff7f0e"/>
     <use xlink:href="#m331ab5899e" x="357.286619" y="241.526717" style="fill: #ff7f0e; stroke: #ff7f0e"/>
     <use xlink:href="#m331ab5899e" x="371.930263" y="244.443983" style="fill: #ff7f0e; stroke: #ff7f0e"/>
     <use xlink:href="#m331ab5899e" x="386.573906" y="247.414482" style="fill: #ff7f0e; stroke: #ff7f0e"/>
     <use xlink:href="#m331ab5899e" x="401.21755" y="239.866502" style="fill: #ff7f0e; stroke: #ff7f0e"/>
     <use xlink:href="#m331ab5899e" x="415.861193" y="237.098844" style="fill: #ff7f0e; stroke: #ff7f0e"/>
     <use xlink:href="#m331ab5899e" x="430.504837" y="237.606123" style="fill: #ff7f0e; stroke: #ff7f0e"/>
     <use xlink:href="#m331ab5899e" x="445.14848" y="235.646113" style="fill: #ff7f0e; stroke: #ff7f0e"/>
     <use xlink:href="#m331ab5899e" x="459.792124" y="280.614175" style="fill: #ff7f0e; stroke: #ff7f0e"/>
     <use xlink:href="#m331ab5899e" x="474.435767" y="247.512733" style="fill: #ff7f0e; stroke: #ff7f0e"/>
     <use xlink:href="#m331ab5899e" x="503.723054" y="279.756862" style="fill: #ff7f0e; stroke: #ff7f0e"/>
     <use xlink:href="#m331ab5899e" x="518.366697" y="281.661443" style="fill: #ff7f0e; stroke: #ff7f0e"/>
     <use xlink:href="#m331ab5899e" x="533.010341" y="280.709844" style="fill: #ff7f0e; stroke: #ff7f0e"/>
     <use xlink:href="#m331ab5899e" x="547.653984" y="280.122753" style="fill: #ff7f0e; stroke: #ff7f0e"/>
     <use xlink:href="#m331ab5899e" x="562.297628" y="279.068518" style="fill: #ff7f0e; stroke: #ff7f0e"/>
     <use xlink:href="#m331ab5899e" x="576.941271" y="280.640628" style="fill: #ff7f0e; stroke: #ff7f0e"/>
     <use xlink:href="#m331ab5899e" x="591.584915" y="279.542799" style="fill: #ff7f0e; stroke: #ff7f0e"/>
     <use xlink:href="#m331ab5899e" x="606.228558" y="279.805152" style="fill: #ff7f0e; stroke: #ff7f0e"/>
     <use xlink:href="#m331ab5899e" x="635.515845" y="278.523852" style="fill: #ff7f0e; stroke: #ff7f0e"/>
     <use xlink:href="#m331ab5899e" x="650.159489" y="281.342606" style="fill: #ff7f0e; stroke: #ff7f0e"/>
     <use xlink:href="#m331ab5899e" x="664.803132" y="277.611705" style="fill: #ff7f0e; stroke: #ff7f0e"/>
     <use xlink:href="#m331ab5899e" x="679.446776" y="277.650819" style="fill: #ff7f0e; stroke: #ff7f0e"/>
    </g>
   </g>
   <g id="line2d_28">
    <path d="M 93.701037 414.551779 
L 108.34468 497.463966 
L 122.988324 414.97317 
L 137.631967 486.590358 
L 152.275611 488.58483 
L 166.919254 494.968464 
L 181.562898 431.17622 
L 196.206541 259.841298 
L 210.850185 504.165161 
L 225.493828 502.411088 
L 240.137472 448.322626 
L 254.781115 415.961606 
L 269.424759 472.805361 
L 298.712045 490.422322 
L 313.355689 432.542825 
L 342.642976 506.332202 
L 357.286619 259.267362 
L 371.930263 486.236577 
L 386.573906 481.772945 
L 401.21755 501.586919 
L 430.504837 503.321129 
L 445.14848 460.778799 
L 459.792124 459.561443 
L 474.435767 479.86882 
L 503.723054 480.855226 
L 518.366697 500.319467 
L 533.010341 505.890118 
L 547.653984 501.949525 
L 562.297628 487.90366 
L 576.941271 260.377715 
L 591.584915 480.387571 
L 606.228558 503.662823 
L 635.515845 478.550422 
L 650.159489 502.536827 
L 664.803132 478.931817 
" clip-path="url(#p3f9022e843)" style="fill: none; stroke: #2ca02c; stroke-width: 2; stroke-linecap: square"/>
    <defs>
     <path id="m29c736c6a5" d="M 0 3 
C 0.795609 3 1.55874 2.683901 2.12132 2.12132 
C 2.683901 1.55874 3 0.795609 3 0 
C 3 -0.795609 2.683901 -1.55874 2.12132 -2.12132 
C 1.55874 -2.683901 0.795609 -3 0 -3 
C -0.795609 -3 -1.55874 -2.683901 -2.12132 -2.12132 
C -2.683901 -1.55874 -3 -0.795609 -3 0 
C -3 0.795609 -2.683901 1.55874 -2.12132 2.12132 
C -1.55874 2.683901 -0.795609 3 0 3 
z
" style="stroke: #2ca02c"/>
    </defs>
    <g clip-path="url(#p3f9022e843)">
     <use xlink:href="#m29c736c6a5" x="93.701037" y="414.551779" style="fill: #2ca02c; stroke: #2ca02c"/>
     <use xlink:href="#m29c736c6a5" x="108.34468" y="497.463966" style="fill: #2ca02c; stroke: #2ca02c"/>
     <use xlink:href="#m29c736c6a5" x="122.988324" y="414.97317" style="fill: #2ca02c; stroke: #2ca02c"/>
     <use xlink:href="#m29c736c6a5" x="137.631967" y="486.590358" style="fill: #2ca02c; stroke: #2ca02c"/>
     <use xlink:href="#m29c736c6a5" x="152.275611" y="488.58483" style="fill: #2ca02c; stroke: #2ca02c"/>
     <use xlink:href="#m29c736c6a5" x="166.919254" y="494.968464" style="fill: #2ca02c; stroke: #2ca02c"/>
     <use xlink:href="#m29c736c6a5" x="181.562898" y="431.17622" style="fill: #2ca02c; stroke: #2ca02c"/>
     <use xlink:href="#m29c736c6a5" x="196.206541" y="259.841298" style="fill: #2ca02c; stroke: #2ca02c"/>
     <use xlink:href="#m29c736c6a5" x="210.850185" y="504.165161" style="fill: #2ca02c; stroke: #2ca02c"/>
     <use xlink:href="#m29c736c6a5" x="225.493828" y="502.411088" style="fill: #2ca02c; stroke: #2ca02c"/>
     <use xlink:href="#m29c736c6a5" x="240.137472" y="448.322626" style="fill: #2ca02c; stroke: #2ca02c"/>
     <use xlink:href="#m29c736c6a5" x="254.781115" y="415.961606" style="fill: #2ca02c; stroke: #2ca02c"/>
     <use xlink:href="#m29c736c6a5" x="269.424759" y="472.805361" style="fill: #2ca02c; stroke: #2ca02c"/>
     <use xlink:href="#m29c736c6a5" x="298.712045" y="490.422322" style="fill: #2ca02c; stroke: #2ca02c"/>
     <use xlink:href="#m29c736c6a5" x="313.355689" y="432.542825" style="fill: #2ca02c; stroke: #2ca02c"/>
     <use xlink:href="#m29c736c6a5" x="342.642976" y="506.332202" style="fill: #2ca02c; stroke: #2ca02c"/>
     <use xlink:href="#m29c736c6a5" x="357.286619" y="259.267362" style="fill: #2ca02c; stroke: #2ca02c"/>
     <use xlink:href="#m29c736c6a5" x="371.930263" y="486.236577" style="fill: #2ca02c; stroke: #2ca02c"/>
     <use xlink:href="#m29c736c6a5" x="386.573906" y="481.772945" style="fill: #2ca02c; stroke: #2ca02c"/>
     <use xlink:href="#m29c736c6a5" x="401.21755" y="501.586919" style="fill: #2ca02c; stroke: #2ca02c"/>
     <use xlink:href="#m29c736c6a5" x="430.504837" y="503.321129" style="fill: #2ca02c; stroke: #2ca02c"/>
     <use xlink:href="#m29c736c6a5" x="445.14848" y="460.778799" style="fill: #2ca02c; stroke: #2ca02c"/>
     <use xlink:href="#m29c736c6a5" x="459.792124" y="459.561443" style="fill: #2ca02c; stroke: #2ca02c"/>
     <use xlink:href="#m29c736c6a5" x="474.435767" y="479.86882" style="fill: #2ca02c; stroke: #2ca02c"/>
     <use xlink:href="#m29c736c6a5" x="503.723054" y="480.855226" style="fill: #2ca02c; stroke: #2ca02c"/>
     <use xlink:href="#m29c736c6a5" x="518.366697" y="500.319467" style="fill: #2ca02c; stroke: #2ca02c"/>
     <use xlink:href="#m29c736c6a5" x="533.010341" y="505.890118" style="fill: #2ca02c; stroke: #2ca02c"/>
     <use xlink:href="#m29c736c6a5" x="547.653984" y="501.949525" style="fill: #2ca02c; stroke: #2ca02c"/>
     <use xlink:href="#m29c736c6a5" x="562.297628" y="487.90366" style="fill: #2ca02c; stroke: #2ca02c"/>
     <use xlink:href="#m29c736c6a5" x="576.941271" y="260.377715" style="fill: #2ca02c; stroke: #2ca02c"/>
     <use xlink:href="#m29c736c6a5" x="591.584915" y="480.387571" style="fill: #2ca02c; stroke: #2ca02c"/>
     <use xlink:href="#m29c736c6a5" x="606.228558" y="503.662823" style="fill: #2ca02c; stroke: #2ca02c"/>
     <use xlink:href="#m29c736c6a5" x="635.515845" y="478.550422" style="fill: #2ca02c; stroke: #2ca02c"/>
     <use xlink:href="#m29c736c6a5" x="650.159489" y="502.536827" style="fill: #2ca02c; stroke: #2ca02c"/>
     <use xlink:href="#m29c736c6a5" x="664.803132" y="478.931817" style="fill: #2ca02c; stroke: #2ca02c"/>
    </g>
   </g>
   <g id="line2d_29">
    <path d="M 93.701037 459.866222 
L 108.34468 455.143871 
L 122.988324 459.420607 
L 137.631967 457.27833 
L 152.275611 460.575215 
L 166.919254 466.993507 
L 181.562898 458.812133 
L 196.206541 457.180552 
L 210.850185 460.001714 
L 225.493828 457.742438 
L 240.137472 461.889521 
L 254.781115 465.712231 
L 269.424759 421.868996 
L 298.712045 457.412458 
L 313.355689 454.1049 
L 342.642976 488.92886 
L 357.286619 458.206217 
L 371.930263 456.170075 
L 386.573906 461.129246 
L 401.21755 463.233246 
L 430.504837 459.084593 
L 445.14848 457.457502 
L 459.792124 478.796034 
L 474.435767 480.720181 
L 503.723054 466.047993 
L 518.366697 478.470998 
L 533.010341 479.912321 
L 547.653984 480.445663 
L 562.297628 480.535415 
L 576.941271 481.301371 
L 591.584915 479.19993 
L 606.228558 481.650745 
L 635.515845 479.964115 
L 650.159489 477.156529 
L 664.803132 479.532915 
" clip-path="url(#p3f9022e843)" style="fill: none; stroke: #d62728; stroke-width: 2; stroke-linecap: square"/>
    <defs>
     <path id="m0e3611134b" d="M 0 3 
C 0.795609 3 1.55874 2.683901 2.12132 2.12132 
C 2.683901 1.55874 3 0.795609 3 0 
C 3 -0.795609 2.683901 -1.55874 2.12132 -2.12132 
C 1.55874 -2.683901 0.795609 -3 0 -3 
C -0.795609 -3 -1.55874 -2.683901 -2.12132 -2.12132 
C -2.683901 -1.55874 -3 -0.795609 -3 0 
C -3 0.795609 -2.683901 1.55874 -2.12132 2.12132 
C -1.55874 2.683901 -0.795609 3 0 3 
z
" style="stroke: #d62728"/>
    </defs>
    <g clip-path="url(#p3f9022e843)">
     <use xlink:href="#m0e3611134b" x="93.701037" y="459.866222" style="fill: #d62728; stroke: #d62728"/>
     <use xlink:href="#m0e3611134b" x="108.34468" y="455.143871" style="fill: #d62728; stroke: #d62728"/>
     <use xlink:href="#m0e3611134b" x="122.988324" y="459.420607" style="fill: #d62728; stroke: #d62728"/>
     <use xlink:href="#m0e3611134b" x="137.631967" y="457.27833" style="fill: #d62728; stroke: #d62728"/>
     <use xlink:href="#m0e3611134b" x="152.275611" y="460.575215" style="fill: #d62728; stroke: #d62728"/>
     <use xlink:href="#m0e3611134b" x="166.919254" y="466.993507" style="fill: #d62728; stroke: #d62728"/>
     <use xlink:href="#m0e3611134b" x="181.562898" y="458.812133" style="fill: #d62728; stroke: #d62728"/>
     <use xlink:href="#m0e3611134b" x="196.206541" y="457.180552" style="fill: #d62728; stroke: #d62728"/>
     <use xlink:href="#m0e3611134b" x="210.850185" y="460.001714" style="fill: #d62728; stroke: #d62728"/>
     <use xlink:href="#m0e3611134b" x="225.493828" y="457.742438" style="fill: #d62728; stroke: #d62728"/>
     <use xlink:href="#m0e3611134b" x="240.137472" y="461.889521" style="fill: #d62728; stroke: #d62728"/>
     <use xlink:href="#m0e3611134b" x="254.781115" y="465.712231" style="fill: #d62728; stroke: #d62728"/>
     <use xlink:href="#m0e3611134b" x="269.424759" y="421.868996" style="fill: #d62728; stroke: #d62728"/>
     <use xlink:href="#m0e3611134b" x="298.712045" y="457.412458" style="fill: #d62728; stroke: #d62728"/>
     <use xlink:href="#m0e3611134b" x="313.355689" y="454.1049" style="fill: #d62728; stroke: #d62728"/>
     <use xlink:href="#m0e3611134b" x="342.642976" y="488.92886" style="fill: #d62728; stroke: #d62728"/>
     <use xlink:href="#m0e3611134b" x="357.286619" y="458.206217" style="fill: #d62728; stroke: #d62728"/>
     <use xlink:href="#m0e3611134b" x="371.930263" y="456.170075" style="fill: #d62728; stroke: #d62728"/>
     <use xlink:href="#m0e3611134b" x="386.573906" y="461.129246" style="fill: #d62728; stroke: #d62728"/>
     <use xlink:href="#m0e3611134b" x="401.21755" y="463.233246" style="fill: #d62728; stroke: #d62728"/>
     <use xlink:href="#m0e3611134b" x="430.504837" y="459.084593" style="fill: #d62728; stroke: #d62728"/>
     <use xlink:href="#m0e3611134b" x="445.14848" y="457.457502" style="fill: #d62728; stroke: #d62728"/>
     <use xlink:href="#m0e3611134b" x="459.792124" y="478.796034" style="fill: #d62728; stroke: #d62728"/>
     <use xlink:href="#m0e3611134b" x="474.435767" y="480.720181" style="fill: #d62728; stroke: #d62728"/>
     <use xlink:href="#m0e3611134b" x="503.723054" y="466.047993" style="fill: #d62728; stroke: #d62728"/>
     <use xlink:href="#m0e3611134b" x="518.366697" y="478.470998" style="fill: #d62728; stroke: #d62728"/>
     <use xlink:href="#m0e3611134b" x="533.010341" y="479.912321" style="fill: #d62728; stroke: #d62728"/>
     <use xlink:href="#m0e3611134b" x="547.653984" y="480.445663" style="fill: #d62728; stroke: #d62728"/>
     <use xlink:href="#m0e3611134b" x="562.297628" y="480.535415" style="fill: #d62728; stroke: #d62728"/>
     <use xlink:href="#m0e3611134b" x="576.941271" y="481.301371" style="fill: #d62728; stroke: #d62728"/>
     <use xlink:href="#m0e3611134b" x="591.584915" y="479.19993" style="fill: #d62728; stroke: #d62728"/>
     <use xlink:href="#m0e3611134b" x="606.228558" y="481.650745" style="fill: #d62728; stroke: #d62728"/>
     <use xlink:href="#m0e3611134b" x="635.515845" y="479.964115" style="fill: #d62728; stroke: #d62728"/>
     <use xlink:href="#m0e3611134b" x="650.159489" y="477.156529" style="fill: #d62728; stroke: #d62728"/>
     <use xlink:href="#m0e3611134b" x="664.803132" y="479.532915" style="fill: #d62728; stroke: #d62728"/>
    </g>
   </g>
   <g id="patch_3">
    <path d="M 64.41375 529.308125 
L 64.41375 23.837813 
" style="fill: none; stroke: #000000; stroke-width: 0.8; stroke-linejoin: miter; stroke-linecap: square"/>
   </g>
   <g id="patch_4">
    <path d="M 708.734063 529.308125 
L 708.734063 23.837813 
" style="fill: none; stroke: #000000; stroke-width: 0.8; stroke-linejoin: miter; stroke-linecap: square"/>
   </g>
   <g id="patch_5">
    <path d="M 64.41375 529.308125 
L 708.734063 529.308125 
" style="fill: none; stroke: #000000; stroke-width: 0.8; stroke-linejoin: miter; stroke-linecap: square"/>
   </g>
   <g id="patch_6">
    <path d="M 64.41375 23.837812 
L 708.734063 23.837812 
" style="fill: none; stroke: #000000; stroke-width: 0.8; stroke-linejoin: miter; stroke-linecap: square"/>
   </g>
   <g id="text_15">
    <text style="font: 700 14px 'DejaVu Sans', 'Bitstream Vera Sans', 'Computer Modern Sans Serif', 'Lucida Grande', 'Verdana', 'Geneva', 'Lucid', 'Arial', 'Helvetica', 'Avant Garde', sans-serif; text-anchor: middle" x="386.573906" y="17.837813" transform="rotate(-0 386.573906 17.837813)">Nestedparallel - Performance Trend</text>
   </g>
   <g id="legend_1">
    <g id="patch_7">
     <path d="M 747.950078 90.550312 
L 846.336016 90.550312 
Q 848.336016 90.550312 848.336016 88.550312 
L 848.336016 30.837812 
Q 848.336016 28.837812 846.336016 28.837812 
L 747.950078 28.837812 
Q 745.950078 28.837812 745.950078 30.837812 
L 745.950078 88.550312 
Q 745.950078 90.550312 747.950078 90.550312 
z
" style="fill: #ffffff; opacity: 0.8; stroke: #cccccc; stroke-linejoin: miter"/>
    </g>
    <g id="line2d_30">
     <path d="M 749.950078 36.93625 
L 759.950078 36.93625 
L 769.950078 36.93625 
" style="fill: none; stroke: #1f77b4; stroke-width: 2; stroke-linecap: square"/>
     <g>
      <use xlink:href="#m09320d10d1" x="759.950078" y="36.93625" style="fill: #1f77b4; stroke: #1f77b4"/>
     </g>
    </g>
    <g id="text_16">
     <text style="font: 10px 'DejaVu Sans', 'Bitstream Vera Sans', 'Computer Modern Sans Serif', 'Lucida Grande', 'Verdana', 'Geneva', 'Lucid', 'Arial', 'Helvetica', 'Avant Garde', sans-serif; text-anchor: start" x="777.950078" y="40.43625" transform="rotate(-0 777.950078 40.43625)">gcc-14.2 - V1</text>
    </g>
    <g id="line2d_31">
     <path d="M 749.950078 51.614375 
L 759.950078 51.614375 
L 769.950078 51.614375 
" style="fill: none; stroke: #ff7f0e; stroke-width: 2; stroke-linecap: square"/>
     <g>
      <use xlink:href="#m331ab5899e" x="759.950078" y="51.614375" style="fill: #ff7f0e; stroke: #ff7f0e"/>
     </g>
    </g>
    <g id="text_17">
     <text style="font: 10px 'DejaVu Sans', 'Bitstream Vera Sans', 'Computer Modern Sans Serif', 'Lucida Grande', 'Verdana', 'Geneva', 'Lucid', 'Arial', 'Helvetica', 'Avant Garde', sans-serif; text-anchor: start" x="777.950078" y="55.114375" transform="rotate(-0 777.950078 55.114375)">gcc-14.2 - V2</text>
    </g>
    <g id="line2d_32">
     <path d="M 749.950078 66.2925 
L 759.950078 66.2925 
L 769.950078 66.2925 
" style="fill: none; stroke: #2ca02c; stroke-width: 2; stroke-linecap: square"/>
     <g>
      <use xlink:href="#m29c736c6a5" x="759.950078" y="66.2925" style="fill: #2ca02c; stroke: #2ca02c"/>
     </g>
    </g>
    <g id="text_18">
     <text style="font: 10px 'DejaVu Sans', 'Bitstream Vera Sans', 'Computer Modern Sans Serif', 'Lucida Grande', 'Verdana', 'Geneva', 'Lucid', 'Arial', 'Helvetica', 'Avant Garde', sans-serif; text-anchor: start" x="777.950078" y="69.7925" transform="rotate(-0 777.950078 69.7925)">gcc-4.2 - V1</text>
    </g>
    <g id="line2d_33">
     <path d="M 749.950078 80.970625 
L 759.950078 80.970625 
L 769.950078 80.970625 
" style="fill: none; stroke: #d62728; stroke-width: 2; stroke-linecap: square"/>
     <g>
      <use xlink:href="#m0e3611134b" x="759.950078" y="80.970625" style="fill: #d62728; stroke: #d62728"/>
     </g>
    </g>
    <g id="text_19">
     <text style="font: 10px 'DejaVu Sans', 'Bitstream Vera Sans', 'Computer Modern Sans Serif', 'Lucida Grande', 'Verdana', 'Geneva', 'Lucid', 'Arial', 'Helvetica', 'Avant Garde', sans-serif; text-anchor: start" x="777.950078" y="84.470625" transform="rotate(-0 777.950078 84.470625)">gcc-4.2 - V2</text>
    </g>
   </g>
  </g>
 </g>
 <defs>
  <clipPath id="p3f9022e843">
   <rect x="64.41375" y="23.837813" width="644.320312" height="505.470313"/>
  </clipPath>
 </defs>
</svg>
