<?xml version="1.0" encoding="utf-8" standalone="no"?>
<!DOCTYPE svg PUBLIC "-//W3C//DTD SVG 1.1//EN"
  "http://www.w3.org/Graphics/SVG/1.1/DTD/svg11.dtd">
<svg xmlns:xlink="http://www.w3.org/1999/xlink" width="855.204687pt" height="568.8pt" viewBox="0 0 855.204687 568.8" xmlns="http://www.w3.org/2000/svg" version="1.1">
 <metadata>
  <rdf:RDF xmlns:dc="http://purl.org/dc/elements/1.1/" xmlns:cc="http://creativecommons.org/ns#" xmlns:rdf="http://www.w3.org/1999/02/22-rdf-syntax-ns#">
   <cc:Work>
    <dc:type rdf:resource="http://purl.org/dc/dcmitype/StillImage"/>
    <dc:date>2025-08-22T21:57:27.534198</dc:date>
    <dc:format>image/svg+xml</dc:format>
    <dc:creator>
     <cc:Agent>
      <dc:title>Matplotlib v3.9.4, https://matplotlib.org/</dc:title>
     </cc:Agent>
    </dc:creator>
   </cc:Work>
  </rdf:RDF>
 </metadata>
 <defs>
  <style type="text/css">*{stroke-linejoin: round; stroke-linecap: butt}</style>
 </defs>
 <g id="figure_1">
  <g id="patch_1">
   <path d="M 0 568.8 
L 855.204687 568.8 
L 855.204687 0 
L 0 0 
z
" style="fill: #ffffff"/>
  </g>
  <g id="axes_1">
   <g id="patch_2">
    <path d="M 64.41375 529.308125 
L 702.1075 529.308125 
L 702.1075 23.837812 
L 64.41375 23.837812 
z
" style="fill: #ffffff"/>
   </g>
   <g id="matplotlib.axis_1">
    <g id="xtick_1">
     <g id="line2d_1">
      <path d="M 75.832509 529.308125 
L 75.832509 23.837812 
" clip-path="url(#p6eaacc3b62)" style="fill: none; stroke: #b0b0b0; stroke-opacity: 0.3; stroke-width: 0.8; stroke-linecap: square"/>
     </g>
     <g id="line2d_2">
      <defs>
       <path id="mb0cc269bc0" d="M 0 0 
L 0 3.5 
" style="stroke: #000000; stroke-width: 0.8"/>
      </defs>
      <g>
       <use xlink:href="#mb0cc269bc0" x="75.832509" y="529.308125" style="stroke: #000000; stroke-width: 0.8"/>
      </g>
     </g>
     <g id="text_1">
      <text style="font: 10px 'DejaVu Sans', 'Bitstream Vera Sans', 'Computer Modern Sans Serif', 'Lucida Grande', 'Verdana', 'Geneva', 'Lucid', 'Arial', 'Helvetica', 'Avant Garde', sans-serif; text-anchor: middle" x="75.832509" y="543.906563" transform="rotate(-0 75.832509 543.906563)">70</text>
     </g>
    </g>
    <g id="xtick_2">
     <g id="line2d_3">
      <path d="M 163.669113 529.308125 
L 163.669113 23.837812 
" clip-path="url(#p6eaacc3b62)" style="fill: none; stroke: #b0b0b0; stroke-opacity: 0.3; stroke-width: 0.8; stroke-linecap: square"/>
     </g>
     <g id="line2d_4">
      <g>
       <use xlink:href="#mb0cc269bc0" x="163.669113" y="529.308125" style="stroke: #000000; stroke-width: 0.8"/>
      </g>
     </g>
     <g id="text_2">
      <text style="font: 10px 'DejaVu Sans', 'Bitstream Vera Sans', 'Computer Modern Sans Serif', 'Lucida Grande', 'Verdana', 'Geneva', 'Lucid', 'Arial', 'Helvetica', 'Avant Garde', sans-serif; text-anchor: middle" x="163.669113" y="543.906563" transform="rotate(-0 163.669113 543.906563)">75</text>
     </g>
    </g>
    <g id="xtick_3">
     <g id="line2d_5">
      <path d="M 251.505718 529.308125 
L 251.505718 23.837812 
" clip-path="url(#p6eaacc3b62)" style="fill: none; stroke: #b0b0b0; stroke-opacity: 0.3; stroke-width: 0.8; stroke-linecap: square"/>
     </g>
     <g id="line2d_6">
      <g>
       <use xlink:href="#mb0cc269bc0" x="251.505718" y="529.308125" style="stroke: #000000; stroke-width: 0.8"/>
      </g>
     </g>
     <g id="text_3">
      <text style="font: 10px 'DejaVu Sans', 'Bitstream Vera Sans', 'Computer Modern Sans Serif', 'Lucida Grande', 'Verdana', 'Geneva', 'Lucid', 'Arial', 'Helvetica', 'Avant Garde', sans-serif; text-anchor: middle" x="251.505718" y="543.906563" transform="rotate(-0 251.505718 543.906563)">80</text>
     </g>
    </g>
    <g id="xtick_4">
     <g id="line2d_7">
      <path d="M 339.342323 529.308125 
L 339.342323 23.837812 
" clip-path="url(#p6eaacc3b62)" style="fill: none; stroke: #b0b0b0; stroke-opacity: 0.3; stroke-width: 0.8; stroke-linecap: square"/>
     </g>
     <g id="line2d_8">
      <g>
       <use xlink:href="#mb0cc269bc0" x="339.342323" y="529.308125" style="stroke: #000000; stroke-width: 0.8"/>
      </g>
     </g>
     <g id="text_4">
      <text style="font: 10px 'DejaVu Sans', 'Bitstream Vera Sans', 'Computer Modern Sans Serif', 'Lucida Grande', 'Verdana', 'Geneva', 'Lucid', 'Arial', 'Helvetica', 'Avant Garde', sans-serif; text-anchor: middle" x="339.342323" y="543.906563" transform="rotate(-0 339.342323 543.906563)">85</text>
     </g>
    </g>
    <g id="xtick_5">
     <g id="line2d_9">
      <path d="M 427.178927 529.308125 
L 427.178927 23.837812 
" clip-path="url(#p6eaacc3b62)" style="fill: none; stroke: #b0b0b0; stroke-opacity: 0.3; stroke-width: 0.8; stroke-linecap: square"/>
     </g>
     <g id="line2d_10">
      <g>
       <use xlink:href="#mb0cc269bc0" x="427.178927" y="529.308125" style="stroke: #000000; stroke-width: 0.8"/>
      </g>
     </g>
     <g id="text_5">
      <text style="font: 10px 'DejaVu Sans', 'Bitstream Vera Sans', 'Computer Modern Sans Serif', 'Lucida Grande', 'Verdana', 'Geneva', 'Lucid', 'Arial', 'Helvetica', 'Avant Garde', sans-serif; text-anchor: middle" x="427.178927" y="543.906563" transform="rotate(-0 427.178927 543.906563)">90</text>
     </g>
    </g>
    <g id="xtick_6">
     <g id="line2d_11">
      <path d="M 515.015532 529.308125 
L 515.015532 23.837812 
" clip-path="url(#p6eaacc3b62)" style="fill: none; stroke: #b0b0b0; stroke-opacity: 0.3; stroke-width: 0.8; stroke-linecap: square"/>
     </g>
     <g id="line2d_12">
      <g>
       <use xlink:href="#mb0cc269bc0" x="515.015532" y="529.308125" style="stroke: #000000; stroke-width: 0.8"/>
      </g>
     </g>
     <g id="text_6">
      <text style="font: 10px 'DejaVu Sans', 'Bitstream Vera Sans', 'Computer Modern Sans Serif', 'Lucida Grande', 'Verdana', 'Geneva', 'Lucid', 'Arial', 'Helvetica', 'Avant Garde', sans-serif; text-anchor: middle" x="515.015532" y="543.906563" transform="rotate(-0 515.015532 543.906563)">95</text>
     </g>
    </g>
    <g id="xtick_7">
     <g id="line2d_13">
      <path d="M 602.852137 529.308125 
L 602.852137 23.837812 
" clip-path="url(#p6eaacc3b62)" style="fill: none; stroke: #b0b0b0; stroke-opacity: 0.3; stroke-width: 0.8; stroke-linecap: square"/>
     </g>
     <g id="line2d_14">
      <g>
       <use xlink:href="#mb0cc269bc0" x="602.852137" y="529.308125" style="stroke: #000000; stroke-width: 0.8"/>
      </g>
     </g>
     <g id="text_7">
      <text style="font: 10px 'DejaVu Sans', 'Bitstream Vera Sans', 'Computer Modern Sans Serif', 'Lucida Grande', 'Verdana', 'Geneva', 'Lucid', 'Arial', 'Helvetica', 'Avant Garde', sans-serif; text-anchor: middle" x="602.852137" y="543.906563" transform="rotate(-0 602.852137 543.906563)">100</text>
     </g>
    </g>
    <g id="xtick_8">
     <g id="line2d_15">
      <path d="M 690.688741 529.308125 
L 690.688741 23.837812 
" clip-path="url(#p6eaacc3b62)" style="fill: none; stroke: #b0b0b0; stroke-opacity: 0.3; stroke-width: 0.8; stroke-linecap: square"/>
     </g>
     <g id="line2d_16">
      <g>
       <use xlink:href="#mb0cc269bc0" x="690.688741" y="529.308125" style="stroke: #000000; stroke-width: 0.8"/>
      </g>
     </g>
     <g id="text_8">
      <text style="font: 10px 'DejaVu Sans', 'Bitstream Vera Sans', 'Computer Modern Sans Serif', 'Lucida Grande', 'Verdana', 'Geneva', 'Lucid', 'Arial', 'Helvetica', 'Avant Garde', sans-serif; text-anchor: middle" x="690.688741" y="543.906563" transform="rotate(-0 690.688741 543.906563)">105</text>
     </g>
    </g>
    <g id="text_9">
     <text style="font: 12px 'DejaVu Sans', 'Bitstream Vera Sans', 'Computer Modern Sans Serif', 'Lucida Grande', 'Verdana', 'Geneva', 'Lucid', 'Arial', 'Helvetica', 'Avant Garde', sans-serif; text-anchor: middle" x="383.260625" y="559.104375" transform="rotate(-0 383.260625 559.104375)">Build Number</text>
    </g>
   </g>
   <g id="matplotlib.axis_2">
    <g id="ytick_1">
     <g id="line2d_17">
      <path d="M 64.41375 468.306331 
L 702.1075 468.306331 
" clip-path="url(#p6eaacc3b62)" style="fill: none; stroke: #b0b0b0; stroke-opacity: 0.3; stroke-width: 0.8; stroke-linecap: square"/>
     </g>
     <g id="line2d_18">
      <defs>
       <path id="m8c319fe79e" d="M 0 0 
L -3.5 0 
" style="stroke: #000000; stroke-width: 0.8"/>
      </defs>
      <g>
       <use xlink:href="#m8c319fe79e" x="64.41375" y="468.306331" style="stroke: #000000; stroke-width: 0.8"/>
      </g>
     </g>
     <g id="text_10">
      <!-- $\mathdefault{10^{5}}$ -->
      <g transform="translate(39.81375 472.10555)">
       <text>
        <tspan style="font: 10px 'DejaVu Sans'" x="0 6.362305" y="-0.06406250000000036">10</tspan>
        <tspan style="font: 7px 'DejaVu Sans'" x="12.820312" y="-3.8921875000000004">5</tspan>
       </text>
      </g>
     </g>
    </g>
    <g id="ytick_2">
     <g id="line2d_19">
      <defs>
       <path id="m6b1d08b5d6" d="M 0 0 
L -2 0 
" style="stroke: #000000; stroke-width: 0.6"/>
      </defs>
      <g>
       <use xlink:href="#m6b1d08b5d6" x="64.41375" y="497.655628" style="stroke: #000000; stroke-width: 0.6"/>
      </g>
     </g>
    </g>
    <g id="ytick_3">
     <g id="line2d_20">
      <g>
       <use xlink:href="#m6b1d08b5d6" x="64.41375" y="275.22278" style="stroke: #000000; stroke-width: 0.6"/>
      </g>
     </g>
     <g id="text_11">
      <!-- $\mathdefault{2\times10^{5}}$ -->
      <g transform="translate(22.81375 279.021999)">
       <text>
        <tspan style="font: 10px 'DejaVu Sans'" x="0 8.310547 18.637695 25" y="-0.06406250000000036">2×10</tspan>
        <tspan style="font: 7px 'DejaVu Sans'" x="31.458008" y="-3.8921875000000004">5</tspan>
       </text>
      </g>
     </g>
    </g>
    <g id="ytick_4">
     <g id="line2d_21">
      <g>
       <use xlink:href="#m6b1d08b5d6" x="64.41375" y="162.276143" style="stroke: #000000; stroke-width: 0.6"/>
      </g>
     </g>
     <g id="text_12">
      <!-- $\mathdefault{3\times10^{5}}$ -->
      <g transform="translate(22.81375 166.075361)">
       <text>
        <tspan style="font: 10px 'DejaVu Sans'" x="0 8.310547 18.637695 25" y="-0.06406250000000036">3×10</tspan>
        <tspan style="font: 7px 'DejaVu Sans'" x="31.458008" y="-3.8921875000000004">5</tspan>
       </text>
      </g>
     </g>
    </g>
    <g id="ytick_5">
     <g id="line2d_22">
      <g>
       <use xlink:href="#m6b1d08b5d6" x="64.41375" y="82.139228" style="stroke: #000000; stroke-width: 0.6"/>
      </g>
     </g>
     <g id="text_13">
      <!-- $\mathdefault{4\times10^{5}}$ -->
      <g transform="translate(22.81375 85.938447)">
       <text>
        <tspan style="font: 10px 'DejaVu Sans'" x="0 8.310547 18.637695 25" y="-0.06406250000000036">4×10</tspan>
        <tspan style="font: 7px 'DejaVu Sans'" x="31.458008" y="-3.8921875000000004">5</tspan>
       </text>
      </g>
     </g>
    </g>
    <g id="text_14">
     <text style="font: 12px 'DejaVu Sans', 'Bitstream Vera Sans', 'Computer Modern Sans Serif', 'Lucida Grande', 'Verdana', 'Geneva', 'Lucid', 'Arial', 'Helvetica', 'Avant Garde', sans-serif; text-anchor: middle" x="16.318125" y="276.572969" transform="rotate(-90 16.318125 276.572969)">Median Elapsed Time (nanoseconds)</text>
    </g>
   </g>
   <g id="line2d_23">
    <path d="M 93.39983 243.777005 
L 110.96715 249.27393 
L 128.534471 247.440552 
L 146.101792 249.833323 
L 163.669113 195.655826 
L 181.236434 97.639476 
L 198.803755 249.799504 
L 216.371076 248.859809 
L 233.938397 52.985138 
L 251.505718 249.625007 
L 269.073039 249.659186 
L 286.64036 250.052866 
L 304.207681 53.930679 
L 321.775002 248.694257 
L 339.342323 249.470428 
L 356.909644 249.74497 
L 392.044285 249.927046 
L 409.611606 54.024276 
L 427.178927 249.087462 
L 444.746248 109.506976 
L 462.313569 248.641838 
L 479.88089 244.924707 
L 497.448211 249.759969 
L 515.015532 249.680026 
L 532.582853 249.787554 
L 550.150174 46.813736 
L 585.284816 249.408722 
L 602.852137 249.281925 
L 620.419458 250.020419 
L 637.986779 249.645464 
L 655.5541 249.902246 
L 673.12142 249.748021 
" clip-path="url(#p6eaacc3b62)" style="fill: none; stroke: #1f77b4; stroke-width: 2; stroke-linecap: square"/>
    <defs>
     <path id="m7f55f3061f" d="M 0 3 
C 0.795609 3 1.55874 2.683901 2.12132 2.12132 
C 2.683901 1.55874 3 0.795609 3 0 
C 3 -0.795609 2.683901 -1.55874 2.12132 -2.12132 
C 1.55874 -2.683901 0.795609 -3 0 -3 
C -0.795609 -3 -1.55874 -2.683901 -2.12132 -2.12132 
C -2.683901 -1.55874 -3 -0.795609 -3 0 
C -3 0.795609 -2.683901 1.55874 -2.12132 2.12132 
C -1.55874 2.683901 -0.795609 3 0 3 
z
" style="stroke: #1f77b4"/>
    </defs>
    <g clip-path="url(#p6eaacc3b62)">
     <use xlink:href="#m7f55f3061f" x="93.39983" y="243.777005" style="fill: #1f77b4; stroke: #1f77b4"/>
     <use xlink:href="#m7f55f3061f" x="110.96715" y="249.27393" style="fill: #1f77b4; stroke: #1f77b4"/>
     <use xlink:href="#m7f55f3061f" x="128.534471" y="247.440552" style="fill: #1f77b4; stroke: #1f77b4"/>
     <use xlink:href="#m7f55f3061f" x="146.101792" y="249.833323" style="fill: #1f77b4; stroke: #1f77b4"/>
     <use xlink:href="#m7f55f3061f" x="163.669113" y="195.655826" style="fill: #1f77b4; stroke: #1f77b4"/>
     <use xlink:href="#m7f55f3061f" x="181.236434" y="97.639476" style="fill: #1f77b4; stroke: #1f77b4"/>
     <use xlink:href="#m7f55f3061f" x="198.803755" y="249.799504" style="fill: #1f77b4; stroke: #1f77b4"/>
     <use xlink:href="#m7f55f3061f" x="216.371076" y="248.859809" style="fill: #1f77b4; stroke: #1f77b4"/>
     <use xlink:href="#m7f55f3061f" x="233.938397" y="52.985138" style="fill: #1f77b4; stroke: #1f77b4"/>
     <use xlink:href="#m7f55f3061f" x="251.505718" y="249.625007" style="fill: #1f77b4; stroke: #1f77b4"/>
     <use xlink:href="#m7f55f3061f" x="269.073039" y="249.659186" style="fill: #1f77b4; stroke: #1f77b4"/>
     <use xlink:href="#m7f55f3061f" x="286.64036" y="250.052866" style="fill: #1f77b4; stroke: #1f77b4"/>
     <use xlink:href="#m7f55f3061f" x="304.207681" y="53.930679" style="fill: #1f77b4; stroke: #1f77b4"/>
     <use xlink:href="#m7f55f3061f" x="321.775002" y="248.694257" style="fill: #1f77b4; stroke: #1f77b4"/>
     <use xlink:href="#m7f55f3061f" x="339.342323" y="249.470428" style="fill: #1f77b4; stroke: #1f77b4"/>
     <use xlink:href="#m7f55f3061f" x="356.909644" y="249.74497" style="fill: #1f77b4; stroke: #1f77b4"/>
     <use xlink:href="#m7f55f3061f" x="392.044285" y="249.927046" style="fill: #1f77b4; stroke: #1f77b4"/>
     <use xlink:href="#m7f55f3061f" x="409.611606" y="54.024276" style="fill: #1f77b4; stroke: #1f77b4"/>
     <use xlink:href="#m7f55f3061f" x="427.178927" y="249.087462" style="fill: #1f77b4; stroke: #1f77b4"/>
     <use xlink:href="#m7f55f3061f" x="444.746248" y="109.506976" style="fill: #1f77b4; stroke: #1f77b4"/>
     <use xlink:href="#m7f55f3061f" x="462.313569" y="248.641838" style="fill: #1f77b4; stroke: #1f77b4"/>
     <use xlink:href="#m7f55f3061f" x="479.88089" y="244.924707" style="fill: #1f77b4; stroke: #1f77b4"/>
     <use xlink:href="#m7f55f3061f" x="497.448211" y="249.759969" style="fill: #1f77b4; stroke: #1f77b4"/>
     <use xlink:href="#m7f55f3061f" x="515.015532" y="249.680026" style="fill: #1f77b4; stroke: #1f77b4"/>
     <use xlink:href="#m7f55f3061f" x="532.582853" y="249.787554" style="fill: #1f77b4; stroke: #1f77b4"/>
     <use xlink:href="#m7f55f3061f" x="550.150174" y="46.813736" style="fill: #1f77b4; stroke: #1f77b4"/>
     <use xlink:href="#m7f55f3061f" x="585.284816" y="249.408722" style="fill: #1f77b4; stroke: #1f77b4"/>
     <use xlink:href="#m7f55f3061f" x="602.852137" y="249.281925" style="fill: #1f77b4; stroke: #1f77b4"/>
     <use xlink:href="#m7f55f3061f" x="620.419458" y="250.020419" style="fill: #1f77b4; stroke: #1f77b4"/>
     <use xlink:href="#m7f55f3061f" x="637.986779" y="249.645464" style="fill: #1f77b4; stroke: #1f77b4"/>
     <use xlink:href="#m7f55f3061f" x="655.5541" y="249.902246" style="fill: #1f77b4; stroke: #1f77b4"/>
     <use xlink:href="#m7f55f3061f" x="673.12142" y="249.748021" style="fill: #1f77b4; stroke: #1f77b4"/>
    </g>
   </g>
   <g id="line2d_24">
    <path d="M 93.39983 243.595173 
L 110.96715 241.95412 
L 128.534471 239.701111 
L 146.101792 237.684582 
L 163.669113 205.56849 
L 181.236434 239.155072 
L 198.803755 239.772109 
L 216.371076 241.369236 
L 233.938397 133.794407 
L 251.505718 234.403278 
L 269.073039 237.659265 
L 286.64036 237.157542 
L 304.207681 188.916702 
L 321.775002 234.469087 
L 339.342323 238.961802 
L 356.909644 238.649307 
L 392.044285 238.20884 
L 409.611606 190.246886 
L 427.178927 240.231147 
L 444.746248 189.704849 
L 462.313569 241.302517 
L 479.88089 233.278982 
L 497.448211 239.287258 
L 515.015532 235.972494 
L 532.582853 230.52038 
L 550.150174 146.706777 
L 585.284816 230.774008 
L 602.852137 229.004029 
L 620.419458 231.501399 
L 637.986779 230.639985 
L 655.5541 229.436076 
L 673.12142 231.485804 
" clip-path="url(#p6eaacc3b62)" style="fill: none; stroke: #ff7f0e; stroke-width: 2; stroke-linecap: square"/>
    <defs>
     <path id="ma7ba96e77e" d="M 0 3 
C 0.795609 3 1.55874 2.683901 2.12132 2.12132 
C 2.683901 1.55874 3 0.795609 3 0 
C 3 -0.795609 2.683901 -1.55874 2.12132 -2.12132 
C 1.55874 -2.683901 0.795609 -3 0 -3 
C -0.795609 -3 -1.55874 -2.683901 -2.12132 -2.12132 
C -2.683901 -1.55874 -3 -0.795609 -3 0 
C -3 0.795609 -2.683901 1.55874 -2.12132 2.12132 
C -1.55874 2.683901 -0.795609 3 0 3 
z
" style="stroke: #ff7f0e"/>
    </defs>
    <g clip-path="url(#p6eaacc3b62)">
     <use xlink:href="#ma7ba96e77e" x="93.39983" y="243.595173" style="fill: #ff7f0e; stroke: #ff7f0e"/>
     <use xlink:href="#ma7ba96e77e" x="110.96715" y="241.95412" style="fill: #ff7f0e; stroke: #ff7f0e"/>
     <use xlink:href="#ma7ba96e77e" x="128.534471" y="239.701111" style="fill: #ff7f0e; stroke: #ff7f0e"/>
     <use xlink:href="#ma7ba96e77e" x="146.101792" y="237.684582" style="fill: #ff7f0e; stroke: #ff7f0e"/>
     <use xlink:href="#ma7ba96e77e" x="163.669113" y="205.56849" style="fill: #ff7f0e; stroke: #ff7f0e"/>
     <use xlink:href="#ma7ba96e77e" x="181.236434" y="239.155072" style="fill: #ff7f0e; stroke: #ff7f0e"/>
     <use xlink:href="#ma7ba96e77e" x="198.803755" y="239.772109" style="fill: #ff7f0e; stroke: #ff7f0e"/>
     <use xlink:href="#ma7ba96e77e" x="216.371076" y="241.369236" style="fill: #ff7f0e; stroke: #ff7f0e"/>
     <use xlink:href="#ma7ba96e77e" x="233.938397" y="133.794407" style="fill: #ff7f0e; stroke: #ff7f0e"/>
     <use xlink:href="#ma7ba96e77e" x="251.505718" y="234.403278" style="fill: #ff7f0e; stroke: #ff7f0e"/>
     <use xlink:href="#ma7ba96e77e" x="269.073039" y="237.659265" style="fill: #ff7f0e; stroke: #ff7f0e"/>
     <use xlink:href="#ma7ba96e77e" x="286.64036" y="237.157542" style="fill: #ff7f0e; stroke: #ff7f0e"/>
     <use xlink:href="#ma7ba96e77e" x="304.207681" y="188.916702" style="fill: #ff7f0e; stroke: #ff7f0e"/>
     <use xlink:href="#ma7ba96e77e" x="321.775002" y="234.469087" style="fill: #ff7f0e; stroke: #ff7f0e"/>
     <use xlink:href="#ma7ba96e77e" x="339.342323" y="238.961802" style="fill: #ff7f0e; stroke: #ff7f0e"/>
     <use xlink:href="#ma7ba96e77e" x="356.909644" y="238.649307" style="fill: #ff7f0e; stroke: #ff7f0e"/>
     <use xlink:href="#ma7ba96e77e" x="392.044285" y="238.20884" style="fill: #ff7f0e; stroke: #ff7f0e"/>
     <use xlink:href="#ma7ba96e77e" x="409.611606" y="190.246886" style="fill: #ff7f0e; stroke: #ff7f0e"/>
     <use xlink:href="#ma7ba96e77e" x="427.178927" y="240.231147" style="fill: #ff7f0e; stroke: #ff7f0e"/>
     <use xlink:href="#ma7ba96e77e" x="444.746248" y="189.704849" style="fill: #ff7f0e; stroke: #ff7f0e"/>
     <use xlink:href="#ma7ba96e77e" x="462.313569" y="241.302517" style="fill: #ff7f0e; stroke: #ff7f0e"/>
     <use xlink:href="#ma7ba96e77e" x="479.88089" y="233.278982" style="fill: #ff7f0e; stroke: #ff7f0e"/>
     <use xlink:href="#ma7ba96e77e" x="497.448211" y="239.287258" style="fill: #ff7f0e; stroke: #ff7f0e"/>
     <use xlink:href="#ma7ba96e77e" x="515.015532" y="235.972494" style="fill: #ff7f0e; stroke: #ff7f0e"/>
     <use xlink:href="#ma7ba96e77e" x="532.582853" y="230.52038" style="fill: #ff7f0e; stroke: #ff7f0e"/>
     <use xlink:href="#ma7ba96e77e" x="550.150174" y="146.706777" style="fill: #ff7f0e; stroke: #ff7f0e"/>
     <use xlink:href="#ma7ba96e77e" x="585.284816" y="230.774008" style="fill: #ff7f0e; stroke: #ff7f0e"/>
     <use xlink:href="#ma7ba96e77e" x="602.852137" y="229.004029" style="fill: #ff7f0e; stroke: #ff7f0e"/>
     <use xlink:href="#ma7ba96e77e" x="620.419458" y="231.501399" style="fill: #ff7f0e; stroke: #ff7f0e"/>
     <use xlink:href="#ma7ba96e77e" x="637.986779" y="230.639985" style="fill: #ff7f0e; stroke: #ff7f0e"/>
     <use xlink:href="#ma7ba96e77e" x="655.5541" y="229.436076" style="fill: #ff7f0e; stroke: #ff7f0e"/>
     <use xlink:href="#ma7ba96e77e" x="673.12142" y="231.485804" style="fill: #ff7f0e; stroke: #ff7f0e"/>
    </g>
   </g>
   <g id="line2d_25">
    <path d="M 93.39983 243.349852 
L 110.96715 223.619594 
L 128.534471 201.129601 
L 146.101792 243.806119 
L 163.669113 184.704173 
L 181.236434 244.368467 
L 198.803755 243.795419 
L 216.371076 244.103655 
L 233.938397 197.262068 
L 251.505718 243.390599 
L 269.073039 244.138159 
L 286.64036 243.922606 
L 304.207681 204.256001 
L 321.775002 241.122662 
L 339.342323 243.147444 
L 356.909644 244.556044 
L 392.044285 244.41722 
L 409.611606 210.352231 
L 427.178927 244.216154 
L 444.746248 180.406408 
L 462.313569 244.148748 
L 479.88089 204.288714 
L 497.448211 243.695651 
L 515.015532 228.295832 
L 532.582853 242.841875 
L 550.150174 177.308748 
L 585.284816 244.050971 
L 602.852137 209.600693 
L 620.419458 242.917399 
L 637.986779 243.991326 
L 655.5541 225.594644 
L 673.12142 243.899703 
" clip-path="url(#p6eaacc3b62)" style="fill: none; stroke: #2ca02c; stroke-width: 2; stroke-linecap: square"/>
    <defs>
     <path id="m6ccbd6e75a" d="M 0 3 
C 0.795609 3 1.55874 2.683901 2.12132 2.12132 
C 2.683901 1.55874 3 0.795609 3 0 
C 3 -0.795609 2.683901 -1.55874 2.12132 -2.12132 
C 1.55874 -2.683901 0.795609 -3 0 -3 
C -0.795609 -3 -1.55874 -2.683901 -2.12132 -2.12132 
C -2.683901 -1.55874 -3 -0.795609 -3 0 
C -3 0.795609 -2.683901 1.55874 -2.12132 2.12132 
C -1.55874 2.683901 -0.795609 3 0 3 
z
" style="stroke: #2ca02c"/>
    </defs>
    <g clip-path="url(#p6eaacc3b62)">
     <use xlink:href="#m6ccbd6e75a" x="93.39983" y="243.349852" style="fill: #2ca02c; stroke: #2ca02c"/>
     <use xlink:href="#m6ccbd6e75a" x="110.96715" y="223.619594" style="fill: #2ca02c; stroke: #2ca02c"/>
     <use xlink:href="#m6ccbd6e75a" x="128.534471" y="201.129601" style="fill: #2ca02c; stroke: #2ca02c"/>
     <use xlink:href="#m6ccbd6e75a" x="146.101792" y="243.806119" style="fill: #2ca02c; stroke: #2ca02c"/>
     <use xlink:href="#m6ccbd6e75a" x="163.669113" y="184.704173" style="fill: #2ca02c; stroke: #2ca02c"/>
     <use xlink:href="#m6ccbd6e75a" x="181.236434" y="244.368467" style="fill: #2ca02c; stroke: #2ca02c"/>
     <use xlink:href="#m6ccbd6e75a" x="198.803755" y="243.795419" style="fill: #2ca02c; stroke: #2ca02c"/>
     <use xlink:href="#m6ccbd6e75a" x="216.371076" y="244.103655" style="fill: #2ca02c; stroke: #2ca02c"/>
     <use xlink:href="#m6ccbd6e75a" x="233.938397" y="197.262068" style="fill: #2ca02c; stroke: #2ca02c"/>
     <use xlink:href="#m6ccbd6e75a" x="251.505718" y="243.390599" style="fill: #2ca02c; stroke: #2ca02c"/>
     <use xlink:href="#m6ccbd6e75a" x="269.073039" y="244.138159" style="fill: #2ca02c; stroke: #2ca02c"/>
     <use xlink:href="#m6ccbd6e75a" x="286.64036" y="243.922606" style="fill: #2ca02c; stroke: #2ca02c"/>
     <use xlink:href="#m6ccbd6e75a" x="304.207681" y="204.256001" style="fill: #2ca02c; stroke: #2ca02c"/>
     <use xlink:href="#m6ccbd6e75a" x="321.775002" y="241.122662" style="fill: #2ca02c; stroke: #2ca02c"/>
     <use xlink:href="#m6ccbd6e75a" x="339.342323" y="243.147444" style="fill: #2ca02c; stroke: #2ca02c"/>
     <use xlink:href="#m6ccbd6e75a" x="356.909644" y="244.556044" style="fill: #2ca02c; stroke: #2ca02c"/>
     <use xlink:href="#m6ccbd6e75a" x="392.044285" y="244.41722" style="fill: #2ca02c; stroke: #2ca02c"/>
     <use xlink:href="#m6ccbd6e75a" x="409.611606" y="210.352231" style="fill: #2ca02c; stroke: #2ca02c"/>
     <use xlink:href="#m6ccbd6e75a" x="427.178927" y="244.216154" style="fill: #2ca02c; stroke: #2ca02c"/>
     <use xlink:href="#m6ccbd6e75a" x="444.746248" y="180.406408" style="fill: #2ca02c; stroke: #2ca02c"/>
     <use xlink:href="#m6ccbd6e75a" x="462.313569" y="244.148748" style="fill: #2ca02c; stroke: #2ca02c"/>
     <use xlink:href="#m6ccbd6e75a" x="479.88089" y="204.288714" style="fill: #2ca02c; stroke: #2ca02c"/>
     <use xlink:href="#m6ccbd6e75a" x="497.448211" y="243.695651" style="fill: #2ca02c; stroke: #2ca02c"/>
     <use xlink:href="#m6ccbd6e75a" x="515.015532" y="228.295832" style="fill: #2ca02c; stroke: #2ca02c"/>
     <use xlink:href="#m6ccbd6e75a" x="532.582853" y="242.841875" style="fill: #2ca02c; stroke: #2ca02c"/>
     <use xlink:href="#m6ccbd6e75a" x="550.150174" y="177.308748" style="fill: #2ca02c; stroke: #2ca02c"/>
     <use xlink:href="#m6ccbd6e75a" x="585.284816" y="244.050971" style="fill: #2ca02c; stroke: #2ca02c"/>
     <use xlink:href="#m6ccbd6e75a" x="602.852137" y="209.600693" style="fill: #2ca02c; stroke: #2ca02c"/>
     <use xlink:href="#m6ccbd6e75a" x="620.419458" y="242.917399" style="fill: #2ca02c; stroke: #2ca02c"/>
     <use xlink:href="#m6ccbd6e75a" x="637.986779" y="243.991326" style="fill: #2ca02c; stroke: #2ca02c"/>
     <use xlink:href="#m6ccbd6e75a" x="655.5541" y="225.594644" style="fill: #2ca02c; stroke: #2ca02c"/>
     <use xlink:href="#m6ccbd6e75a" x="673.12142" y="243.899703" style="fill: #2ca02c; stroke: #2ca02c"/>
    </g>
   </g>
   <g id="line2d_26">
    <path d="M 93.39983 502.680728 
L 110.96715 504.277413 
L 128.534471 503.215413 
L 146.101792 504.593599 
L 163.669113 309.16403 
L 181.236434 494.250538 
L 198.803755 503.399241 
L 216.371076 418.548271 
L 233.938397 504.370614 
L 251.505718 504.494296 
L 269.073039 503.62672 
L 286.64036 504.729074 
L 304.207681 502.00996 
L 339.342323 503.678058 
L 356.909644 502.946523 
L 392.044285 503.851747 
L 409.611606 504.956529 
L 427.178927 502.576119 
L 444.746248 504.135135 
L 462.313569 504.24667 
L 497.448211 503.661928 
L 515.015532 504.300869 
L 532.582853 503.163951 
L 550.150174 504.616764 
L 585.284816 504.224169 
L 602.852137 308.913048 
L 620.419458 504.437523 
L 637.986779 504.604388 
L 655.5541 505.156454 
L 673.12142 504.803425 
" clip-path="url(#p6eaacc3b62)" style="fill: none; stroke: #d62728; stroke-width: 2; stroke-linecap: square"/>
    <defs>
     <path id="m1257a3bdb6" d="M 0 3 
C 0.795609 3 1.55874 2.683901 2.12132 2.12132 
C 2.683901 1.55874 3 0.795609 3 0 
C 3 -0.795609 2.683901 -1.55874 2.12132 -2.12132 
C 1.55874 -2.683901 0.795609 -3 0 -3 
C -0.795609 -3 -1.55874 -2.683901 -2.12132 -2.12132 
C -2.683901 -1.55874 -3 -0.795609 -3 0 
C -3 0.795609 -2.683901 1.55874 -2.12132 2.12132 
C -1.55874 2.683901 -0.795609 3 0 3 
z
" style="stroke: #d62728"/>
    </defs>
    <g clip-path="url(#p6eaacc3b62)">
     <use xlink:href="#m1257a3bdb6" x="93.39983" y="502.680728" style="fill: #d62728; stroke: #d62728"/>
     <use xlink:href="#m1257a3bdb6" x="110.96715" y="504.277413" style="fill: #d62728; stroke: #d62728"/>
     <use xlink:href="#m1257a3bdb6" x="128.534471" y="503.215413" style="fill: #d62728; stroke: #d62728"/>
     <use xlink:href="#m1257a3bdb6" x="146.101792" y="504.593599" style="fill: #d62728; stroke: #d62728"/>
     <use xlink:href="#m1257a3bdb6" x="163.669113" y="309.16403" style="fill: #d62728; stroke: #d62728"/>
     <use xlink:href="#m1257a3bdb6" x="181.236434" y="494.250538" style="fill: #d62728; stroke: #d62728"/>
     <use xlink:href="#m1257a3bdb6" x="198.803755" y="503.399241" style="fill: #d62728; stroke: #d62728"/>
     <use xlink:href="#m1257a3bdb6" x="216.371076" y="418.548271" style="fill: #d62728; stroke: #d62728"/>
     <use xlink:href="#m1257a3bdb6" x="233.938397" y="504.370614" style="fill: #d62728; stroke: #d62728"/>
     <use xlink:href="#m1257a3bdb6" x="251.505718" y="504.494296" style="fill: #d62728; stroke: #d62728"/>
     <use xlink:href="#m1257a3bdb6" x="269.073039" y="503.62672" style="fill: #d62728; stroke: #d62728"/>
     <use xlink:href="#m1257a3bdb6" x="286.64036" y="504.729074" style="fill: #d62728; stroke: #d62728"/>
     <use xlink:href="#m1257a3bdb6" x="304.207681" y="502.00996" style="fill: #d62728; stroke: #d62728"/>
     <use xlink:href="#m1257a3bdb6" x="339.342323" y="503.678058" style="fill: #d62728; stroke: #d62728"/>
     <use xlink:href="#m1257a3bdb6" x="356.909644" y="502.946523" style="fill: #d62728; stroke: #d62728"/>
     <use xlink:href="#m1257a3bdb6" x="392.044285" y="503.851747" style="fill: #d62728; stroke: #d62728"/>
     <use xlink:href="#m1257a3bdb6" x="409.611606" y="504.956529" style="fill: #d62728; stroke: #d62728"/>
     <use xlink:href="#m1257a3bdb6" x="427.178927" y="502.576119" style="fill: #d62728; stroke: #d62728"/>
     <use xlink:href="#m1257a3bdb6" x="444.746248" y="504.135135" style="fill: #d62728; stroke: #d62728"/>
     <use xlink:href="#m1257a3bdb6" x="462.313569" y="504.24667" style="fill: #d62728; stroke: #d62728"/>
     <use xlink:href="#m1257a3bdb6" x="497.448211" y="503.661928" style="fill: #d62728; stroke: #d62728"/>
     <use xlink:href="#m1257a3bdb6" x="515.015532" y="504.300869" style="fill: #d62728; stroke: #d62728"/>
     <use xlink:href="#m1257a3bdb6" x="532.582853" y="503.163951" style="fill: #d62728; stroke: #d62728"/>
     <use xlink:href="#m1257a3bdb6" x="550.150174" y="504.616764" style="fill: #d62728; stroke: #d62728"/>
     <use xlink:href="#m1257a3bdb6" x="585.284816" y="504.224169" style="fill: #d62728; stroke: #d62728"/>
     <use xlink:href="#m1257a3bdb6" x="602.852137" y="308.913048" style="fill: #d62728; stroke: #d62728"/>
     <use xlink:href="#m1257a3bdb6" x="620.419458" y="504.437523" style="fill: #d62728; stroke: #d62728"/>
     <use xlink:href="#m1257a3bdb6" x="637.986779" y="504.604388" style="fill: #d62728; stroke: #d62728"/>
     <use xlink:href="#m1257a3bdb6" x="655.5541" y="505.156454" style="fill: #d62728; stroke: #d62728"/>
     <use xlink:href="#m1257a3bdb6" x="673.12142" y="504.803425" style="fill: #d62728; stroke: #d62728"/>
    </g>
   </g>
   <g id="line2d_27">
    <path d="M 93.39983 471.004965 
L 110.96715 467.269233 
L 128.534471 470.0713 
L 146.101792 470.070459 
L 163.669113 415.705857 
L 181.236434 418.712813 
L 198.803755 469.040469 
L 216.371076 397.64394 
L 233.938397 468.929053 
L 251.505718 470.2979 
L 269.073039 468.286833 
L 286.64036 472.079244 
L 304.207681 463.2088 
L 339.342323 467.861547 
L 356.909644 471.397053 
L 392.044285 466.896211 
L 409.611606 465.154488 
L 427.178927 470.525807 
L 444.746248 470.246792 
L 462.313569 471.76854 
L 497.448211 471.906211 
L 515.015532 466.209715 
L 532.582853 506.332202 
L 550.150174 505.814771 
L 585.284816 505.927937 
L 602.852137 417.887019 
L 620.419458 503.97045 
L 637.986779 505.167583 
L 655.5541 505.918691 
L 673.12142 505.928574 
" clip-path="url(#p6eaacc3b62)" style="fill: none; stroke: #9467bd; stroke-width: 2; stroke-linecap: square"/>
    <defs>
     <path id="m4539d8b501" d="M 0 3 
C 0.795609 3 1.55874 2.683901 2.12132 2.12132 
C 2.683901 1.55874 3 0.795609 3 0 
C 3 -0.795609 2.683901 -1.55874 2.12132 -2.12132 
C 1.55874 -2.683901 0.795609 -3 0 -3 
C -0.795609 -3 -1.55874 -2.683901 -2.12132 -2.12132 
C -2.683901 -1.55874 -3 -0.795609 -3 0 
C -3 0.795609 -2.683901 1.55874 -2.12132 2.12132 
C -1.55874 2.683901 -0.795609 3 0 3 
z
" style="stroke: #9467bd"/>
    </defs>
    <g clip-path="url(#p6eaacc3b62)">
     <use xlink:href="#m4539d8b501" x="93.39983" y="471.004965" style="fill: #9467bd; stroke: #9467bd"/>
     <use xlink:href="#m4539d8b501" x="110.96715" y="467.269233" style="fill: #9467bd; stroke: #9467bd"/>
     <use xlink:href="#m4539d8b501" x="128.534471" y="470.0713" style="fill: #9467bd; stroke: #9467bd"/>
     <use xlink:href="#m4539d8b501" x="146.101792" y="470.070459" style="fill: #9467bd; stroke: #9467bd"/>
     <use xlink:href="#m4539d8b501" x="163.669113" y="415.705857" style="fill: #9467bd; stroke: #9467bd"/>
     <use xlink:href="#m4539d8b501" x="181.236434" y="418.712813" style="fill: #9467bd; stroke: #9467bd"/>
     <use xlink:href="#m4539d8b501" x="198.803755" y="469.040469" style="fill: #9467bd; stroke: #9467bd"/>
     <use xlink:href="#m4539d8b501" x="216.371076" y="397.64394" style="fill: #9467bd; stroke: #9467bd"/>
     <use xlink:href="#m4539d8b501" x="233.938397" y="468.929053" style="fill: #9467bd; stroke: #9467bd"/>
     <use xlink:href="#m4539d8b501" x="251.505718" y="470.2979" style="fill: #9467bd; stroke: #9467bd"/>
     <use xlink:href="#m4539d8b501" x="269.073039" y="468.286833" style="fill: #9467bd; stroke: #9467bd"/>
     <use xlink:href="#m4539d8b501" x="286.64036" y="472.079244" style="fill: #9467bd; stroke: #9467bd"/>
     <use xlink:href="#m4539d8b501" x="304.207681" y="463.2088" style="fill: #9467bd; stroke: #9467bd"/>
     <use xlink:href="#m4539d8b501" x="339.342323" y="467.861547" style="fill: #9467bd; stroke: #9467bd"/>
     <use xlink:href="#m4539d8b501" x="356.909644" y="471.397053" style="fill: #9467bd; stroke: #9467bd"/>
     <use xlink:href="#m4539d8b501" x="392.044285" y="466.896211" style="fill: #9467bd; stroke: #9467bd"/>
     <use xlink:href="#m4539d8b501" x="409.611606" y="465.154488" style="fill: #9467bd; stroke: #9467bd"/>
     <use xlink:href="#m4539d8b501" x="427.178927" y="470.525807" style="fill: #9467bd; stroke: #9467bd"/>
     <use xlink:href="#m4539d8b501" x="444.746248" y="470.246792" style="fill: #9467bd; stroke: #9467bd"/>
     <use xlink:href="#m4539d8b501" x="462.313569" y="471.76854" style="fill: #9467bd; stroke: #9467bd"/>
     <use xlink:href="#m4539d8b501" x="497.448211" y="471.906211" style="fill: #9467bd; stroke: #9467bd"/>
     <use xlink:href="#m4539d8b501" x="515.015532" y="466.209715" style="fill: #9467bd; stroke: #9467bd"/>
     <use xlink:href="#m4539d8b501" x="532.582853" y="506.332202" style="fill: #9467bd; stroke: #9467bd"/>
     <use xlink:href="#m4539d8b501" x="550.150174" y="505.814771" style="fill: #9467bd; stroke: #9467bd"/>
     <use xlink:href="#m4539d8b501" x="585.284816" y="505.927937" style="fill: #9467bd; stroke: #9467bd"/>
     <use xlink:href="#m4539d8b501" x="602.852137" y="417.887019" style="fill: #9467bd; stroke: #9467bd"/>
     <use xlink:href="#m4539d8b501" x="620.419458" y="503.97045" style="fill: #9467bd; stroke: #9467bd"/>
     <use xlink:href="#m4539d8b501" x="637.986779" y="505.167583" style="fill: #9467bd; stroke: #9467bd"/>
     <use xlink:href="#m4539d8b501" x="655.5541" y="505.918691" style="fill: #9467bd; stroke: #9467bd"/>
     <use xlink:href="#m4539d8b501" x="673.12142" y="505.928574" style="fill: #9467bd; stroke: #9467bd"/>
    </g>
   </g>
   <g id="line2d_28">
    <path d="M 93.39983 235.93197 
L 110.96715 234.666368 
L 128.534471 235.462446 
L 146.101792 234.538041 
L 163.669113 181.744068 
L 181.236434 182.994846 
L 198.803755 235.101143 
L 216.371076 178.134856 
L 233.938397 236.529293 
L 251.505718 235.142873 
L 269.073039 235.315769 
L 286.64036 235.318545 
L 304.207681 234.347947 
L 339.342323 235.558462 
L 356.909644 234.767409 
L 392.044285 235.91552 
L 409.611606 236.532687 
L 427.178927 236.25693 
L 444.746248 237.210274 
L 462.313569 234.52059 
L 497.448211 235.539618 
L 515.015532 235.17146 
L 532.582853 238.09033 
L 550.150174 239.800807 
L 585.284816 239.313947 
L 602.852137 183.600343 
L 620.419458 239.802647 
L 637.986779 239.526086 
L 655.5541 238.880009 
L 673.12142 239.12644 
" clip-path="url(#p6eaacc3b62)" style="fill: none; stroke: #8c564b; stroke-width: 2; stroke-linecap: square"/>
    <defs>
     <path id="m2f21b25718" d="M 0 3 
C 0.795609 3 1.55874 2.683901 2.12132 2.12132 
C 2.683901 1.55874 3 0.795609 3 0 
C 3 -0.795609 2.683901 -1.55874 2.12132 -2.12132 
C 1.55874 -2.683901 0.795609 -3 0 -3 
C -0.795609 -3 -1.55874 -2.683901 -2.12132 -2.12132 
C -2.683901 -1.55874 -3 -0.795609 -3 0 
C -3 0.795609 -2.683901 1.55874 -2.12132 2.12132 
C -1.55874 2.683901 -0.795609 3 0 3 
z
" style="stroke: #8c564b"/>
    </defs>
    <g clip-path="url(#p6eaacc3b62)">
     <use xlink:href="#m2f21b25718" x="93.39983" y="235.93197" style="fill: #8c564b; stroke: #8c564b"/>
     <use xlink:href="#m2f21b25718" x="110.96715" y="234.666368" style="fill: #8c564b; stroke: #8c564b"/>
     <use xlink:href="#m2f21b25718" x="128.534471" y="235.462446" style="fill: #8c564b; stroke: #8c564b"/>
     <use xlink:href="#m2f21b25718" x="146.101792" y="234.538041" style="fill: #8c564b; stroke: #8c564b"/>
     <use xlink:href="#m2f21b25718" x="163.669113" y="181.744068" style="fill: #8c564b; stroke: #8c564b"/>
     <use xlink:href="#m2f21b25718" x="181.236434" y="182.994846" style="fill: #8c564b; stroke: #8c564b"/>
     <use xlink:href="#m2f21b25718" x="198.803755" y="235.101143" style="fill: #8c564b; stroke: #8c564b"/>
     <use xlink:href="#m2f21b25718" x="216.371076" y="178.134856" style="fill: #8c564b; stroke: #8c564b"/>
     <use xlink:href="#m2f21b25718" x="233.938397" y="236.529293" style="fill: #8c564b; stroke: #8c564b"/>
     <use xlink:href="#m2f21b25718" x="251.505718" y="235.142873" style="fill: #8c564b; stroke: #8c564b"/>
     <use xlink:href="#m2f21b25718" x="269.073039" y="235.315769" style="fill: #8c564b; stroke: #8c564b"/>
     <use xlink:href="#m2f21b25718" x="286.64036" y="235.318545" style="fill: #8c564b; stroke: #8c564b"/>
     <use xlink:href="#m2f21b25718" x="304.207681" y="234.347947" style="fill: #8c564b; stroke: #8c564b"/>
     <use xlink:href="#m2f21b25718" x="339.342323" y="235.558462" style="fill: #8c564b; stroke: #8c564b"/>
     <use xlink:href="#m2f21b25718" x="356.909644" y="234.767409" style="fill: #8c564b; stroke: #8c564b"/>
     <use xlink:href="#m2f21b25718" x="392.044285" y="235.91552" style="fill: #8c564b; stroke: #8c564b"/>
     <use xlink:href="#m2f21b25718" x="409.611606" y="236.532687" style="fill: #8c564b; stroke: #8c564b"/>
     <use xlink:href="#m2f21b25718" x="427.178927" y="236.25693" style="fill: #8c564b; stroke: #8c564b"/>
     <use xlink:href="#m2f21b25718" x="444.746248" y="237.210274" style="fill: #8c564b; stroke: #8c564b"/>
     <use xlink:href="#m2f21b25718" x="462.313569" y="234.52059" style="fill: #8c564b; stroke: #8c564b"/>
     <use xlink:href="#m2f21b25718" x="497.448211" y="235.539618" style="fill: #8c564b; stroke: #8c564b"/>
     <use xlink:href="#m2f21b25718" x="515.015532" y="235.17146" style="fill: #8c564b; stroke: #8c564b"/>
     <use xlink:href="#m2f21b25718" x="532.582853" y="238.09033" style="fill: #8c564b; stroke: #8c564b"/>
     <use xlink:href="#m2f21b25718" x="550.150174" y="239.800807" style="fill: #8c564b; stroke: #8c564b"/>
     <use xlink:href="#m2f21b25718" x="585.284816" y="239.313947" style="fill: #8c564b; stroke: #8c564b"/>
     <use xlink:href="#m2f21b25718" x="602.852137" y="183.600343" style="fill: #8c564b; stroke: #8c564b"/>
     <use xlink:href="#m2f21b25718" x="620.419458" y="239.802647" style="fill: #8c564b; stroke: #8c564b"/>
     <use xlink:href="#m2f21b25718" x="637.986779" y="239.526086" style="fill: #8c564b; stroke: #8c564b"/>
     <use xlink:href="#m2f21b25718" x="655.5541" y="238.880009" style="fill: #8c564b; stroke: #8c564b"/>
     <use xlink:href="#m2f21b25718" x="673.12142" y="239.12644" style="fill: #8c564b; stroke: #8c564b"/>
    </g>
   </g>
   <g id="patch_3">
    <path d="M 64.41375 529.308125 
L 64.41375 23.837812 
" style="fill: none; stroke: #000000; stroke-width: 0.8; stroke-linejoin: miter; stroke-linecap: square"/>
   </g>
   <g id="patch_4">
    <path d="M 702.1075 529.308125 
L 702.1075 23.837812 
" style="fill: none; stroke: #000000; stroke-width: 0.8; stroke-linejoin: miter; stroke-linecap: square"/>
   </g>
   <g id="patch_5">
    <path d="M 64.41375 529.308125 
L 702.1075 529.308125 
" style="fill: none; stroke: #000000; stroke-width: 0.8; stroke-linejoin: miter; stroke-linecap: square"/>
   </g>
   <g id="patch_6">
    <path d="M 64.41375 23.837812 
L 702.1075 23.837812 
" style="fill: none; stroke: #000000; stroke-width: 0.8; stroke-linejoin: miter; stroke-linecap: square"/>
   </g>
   <g id="text_15">
    <text style="font: 700 14px 'DejaVu Sans', 'Bitstream Vera Sans', 'Computer Modern Sans Serif', 'Lucida Grande', 'Verdana', 'Geneva', 'Lucid', 'Arial', 'Helvetica', 'Avant Garde', sans-serif; text-anchor: middle" x="383.260625" y="17.837813" transform="rotate(-0 383.260625 17.837813)">Parallelfor Vectorops - Performance Trend</text>
   </g>
   <g id="legend_1">
    <g id="patch_7">
     <path d="M 740.992188 119.906563 
L 846.004688 119.906563 
Q 848.004688 119.906563 848.004688 117.906563 
L 848.004688 30.837813 
Q 848.004688 28.837813 846.004688 28.837813 
L 740.992188 28.837813 
Q 738.992188 28.837813 738.992188 30.837813 
L 738.992188 117.906563 
Q 738.992188 119.906563 740.992188 119.906563 
z
" style="fill: #ffffff; opacity: 0.8; stroke: #cccccc; stroke-linejoin: miter"/>
    </g>
    <g id="line2d_29">
     <path d="M 742.992188 36.93625 
L 752.992188 36.93625 
L 762.992188 36.93625 
" style="fill: none; stroke: #1f77b4; stroke-width: 2; stroke-linecap: square"/>
     <g>
      <use xlink:href="#m7f55f3061f" x="752.992188" y="36.93625" style="fill: #1f77b4; stroke: #1f77b4"/>
     </g>
    </g>
    <g id="text_16">
     <text style="font: 10px 'DejaVu Sans', 'Bitstream Vera Sans', 'Computer Modern Sans Serif', 'Lucida Grande', 'Verdana', 'Geneva', 'Lucid', 'Arial', 'Helvetica', 'Avant Garde', sans-serif; text-anchor: start" x="770.992188" y="40.43625" transform="rotate(-0 770.992188 40.43625)">gcc-14.2 - V1</text>
    </g>
    <g id="line2d_30">
     <path d="M 742.992188 51.614375 
L 752.992188 51.614375 
L 762.992188 51.614375 
" style="fill: none; stroke: #ff7f0e; stroke-width: 2; stroke-linecap: square"/>
     <g>
      <use xlink:href="#ma7ba96e77e" x="752.992188" y="51.614375" style="fill: #ff7f0e; stroke: #ff7f0e"/>
     </g>
    </g>
    <g id="text_17">
     <text style="font: 10px 'DejaVu Sans', 'Bitstream Vera Sans', 'Computer Modern Sans Serif', 'Lucida Grande', 'Verdana', 'Geneva', 'Lucid', 'Arial', 'Helvetica', 'Avant Garde', sans-serif; text-anchor: start" x="770.992188" y="55.114375" transform="rotate(-0 770.992188 55.114375)">gcc-14.2 - V2</text>
    </g>
    <g id="line2d_31">
     <path d="M 742.992188 66.2925 
L 752.992188 66.2925 
L 762.992188 66.2925 
" style="fill: none; stroke: #2ca02c; stroke-width: 2; stroke-linecap: square"/>
     <g>
      <use xlink:href="#m6ccbd6e75a" x="752.992188" y="66.2925" style="fill: #2ca02c; stroke: #2ca02c"/>
     </g>
    </g>
    <g id="text_18">
     <text style="font: 10px 'DejaVu Sans', 'Bitstream Vera Sans', 'Computer Modern Sans Serif', 'Lucida Grande', 'Verdana', 'Geneva', 'Lucid', 'Arial', 'Helvetica', 'Avant Garde', sans-serif; text-anchor: start" x="770.992188" y="69.7925" transform="rotate(-0 770.992188 69.7925)">gcc-14.2 - TBB</text>
    </g>
    <g id="line2d_32">
     <path d="M 742.992188 80.970625 
L 752.992188 80.970625 
L 762.992188 80.970625 
" style="fill: none; stroke: #d62728; stroke-width: 2; stroke-linecap: square"/>
     <g>
      <use xlink:href="#m1257a3bdb6" x="752.992188" y="80.970625" style="fill: #d62728; stroke: #d62728"/>
     </g>
    </g>
    <g id="text_19">
     <text style="font: 10px 'DejaVu Sans', 'Bitstream Vera Sans', 'Computer Modern Sans Serif', 'Lucida Grande', 'Verdana', 'Geneva', 'Lucid', 'Arial', 'Helvetica', 'Avant Garde', sans-serif; text-anchor: start" x="770.992188" y="84.470625" transform="rotate(-0 770.992188 84.470625)">gcc-4.2 - V1</text>
    </g>
    <g id="line2d_33">
     <path d="M 742.992188 95.64875 
L 752.992188 95.64875 
L 762.992188 95.64875 
" style="fill: none; stroke: #9467bd; stroke-width: 2; stroke-linecap: square"/>
     <g>
      <use xlink:href="#m4539d8b501" x="752.992188" y="95.64875" style="fill: #9467bd; stroke: #9467bd"/>
     </g>
    </g>
    <g id="text_20">
     <text style="font: 10px 'DejaVu Sans', 'Bitstream Vera Sans', 'Computer Modern Sans Serif', 'Lucida Grande', 'Verdana', 'Geneva', 'Lucid', 'Arial', 'Helvetica', 'Avant Garde', sans-serif; text-anchor: start" x="770.992188" y="99.14875" transform="rotate(-0 770.992188 99.14875)">gcc-4.2 - V2</text>
    </g>
    <g id="line2d_34">
     <path d="M 742.992188 110.326875 
L 752.992188 110.326875 
L 762.992188 110.326875 
" style="fill: none; stroke: #8c564b; stroke-width: 2; stroke-linecap: square"/>
     <g>
      <use xlink:href="#m2f21b25718" x="752.992188" y="110.326875" style="fill: #8c564b; stroke: #8c564b"/>
     </g>
    </g>
    <g id="text_21">
     <text style="font: 10px 'DejaVu Sans', 'Bitstream Vera Sans', 'Computer Modern Sans Serif', 'Lucida Grande', 'Verdana', 'Geneva', 'Lucid', 'Arial', 'Helvetica', 'Avant Garde', sans-serif; text-anchor: start" x="770.992188" y="113.826875" transform="rotate(-0 770.992188 113.826875)">gcc-4.2 - TBB</text>
    </g>
   </g>
  </g>
 </g>
 <defs>
  <clipPath id="p6eaacc3b62">
   <rect x="64.41375" y="23.837813" width="637.69375" height="505.470313"/>
  </clipPath>
 </defs>
</svg>
