<?xml version="1.0" encoding="utf-8" standalone="no"?>
<!DOCTYPE svg PUBLIC "-//W3C//DTD SVG 1.1//EN"
  "http://www.w3.org/Graphics/SVG/1.1/DTD/svg11.dtd">
<svg xmlns:xlink="http://www.w3.org/1999/xlink" width="856.684141pt" height="568.8pt" viewBox="0 0 856.684141 568.8" xmlns="http://www.w3.org/2000/svg" version="1.1">
 <metadata>
  <rdf:RDF xmlns:dc="http://purl.org/dc/elements/1.1/" xmlns:cc="http://creativecommons.org/ns#" xmlns:rdf="http://www.w3.org/1999/02/22-rdf-syntax-ns#">
   <cc:Work>
    <dc:type rdf:resource="http://purl.org/dc/dcmitype/StillImage"/>
    <dc:date>2025-08-28T15:03:25.791236</dc:date>
    <dc:format>image/svg+xml</dc:format>
    <dc:creator>
     <cc:Agent>
      <dc:title>Matplotlib v3.9.4, https://matplotlib.org/</dc:title>
     </cc:Agent>
    </dc:creator>
   </cc:Work>
  </rdf:RDF>
 </metadata>
 <defs>
  <style type="text/css">*{stroke-linejoin: round; stroke-linecap: butt}</style>
 </defs>
 <g id="figure_1">
  <g id="patch_1">
   <path d="M 0 568.8 
L 856.684141 568.8 
L 856.684141 0 
L 0 0 
z
" style="fill: #ffffff"/>
  </g>
  <g id="axes_1">
   <g id="patch_2">
    <path d="M 64.41375 529.308125 
L 731.696562 529.308125 
L 731.696562 23.837812 
L 64.41375 23.837812 
z
" style="fill: #ffffff"/>
   </g>
   <g id="matplotlib.axis_1">
    <g id="xtick_1">
     <g id="line2d_1">
      <path d="M 78.349632 529.308125 
L 78.349632 23.837812 
" clip-path="url(#p8698820d3c)" style="fill: none; stroke: #b0b0b0; stroke-opacity: 0.3; stroke-width: 0.8; stroke-linecap: square"/>
     </g>
     <g id="line2d_2">
      <defs>
       <path id="md6ce800863" d="M 0 0 
L 0 3.5 
" style="stroke: #000000; stroke-width: 0.8"/>
      </defs>
      <g>
       <use xlink:href="#md6ce800863" x="78.349632" y="529.308125" style="stroke: #000000; stroke-width: 0.8"/>
      </g>
     </g>
     <g id="text_1">
      <text style="font: 10px 'DejaVu Sans', 'Bitstream Vera Sans', 'Computer Modern Sans Serif', 'Lucida Grande', 'Verdana', 'Geneva', 'Lucid', 'Arial', 'Helvetica', 'Avant Garde', sans-serif; text-anchor: middle" x="78.349632" y="543.906563" transform="rotate(-0 78.349632 543.906563)">70</text>
     </g>
    </g>
    <g id="xtick_2">
     <g id="line2d_3">
      <path d="M 160.325407 529.308125 
L 160.325407 23.837812 
" clip-path="url(#p8698820d3c)" style="fill: none; stroke: #b0b0b0; stroke-opacity: 0.3; stroke-width: 0.8; stroke-linecap: square"/>
     </g>
     <g id="line2d_4">
      <g>
       <use xlink:href="#md6ce800863" x="160.325407" y="529.308125" style="stroke: #000000; stroke-width: 0.8"/>
      </g>
     </g>
     <g id="text_2">
      <text style="font: 10px 'DejaVu Sans', 'Bitstream Vera Sans', 'Computer Modern Sans Serif', 'Lucida Grande', 'Verdana', 'Geneva', 'Lucid', 'Arial', 'Helvetica', 'Avant Garde', sans-serif; text-anchor: middle" x="160.325407" y="543.906563" transform="rotate(-0 160.325407 543.906563)">75</text>
     </g>
    </g>
    <g id="xtick_3">
     <g id="line2d_5">
      <path d="M 242.301183 529.308125 
L 242.301183 23.837812 
" clip-path="url(#p8698820d3c)" style="fill: none; stroke: #b0b0b0; stroke-opacity: 0.3; stroke-width: 0.8; stroke-linecap: square"/>
     </g>
     <g id="line2d_6">
      <g>
       <use xlink:href="#md6ce800863" x="242.301183" y="529.308125" style="stroke: #000000; stroke-width: 0.8"/>
      </g>
     </g>
     <g id="text_3">
      <text style="font: 10px 'DejaVu Sans', 'Bitstream Vera Sans', 'Computer Modern Sans Serif', 'Lucida Grande', 'Verdana', 'Geneva', 'Lucid', 'Arial', 'Helvetica', 'Avant Garde', sans-serif; text-anchor: middle" x="242.301183" y="543.906563" transform="rotate(-0 242.301183 543.906563)">80</text>
     </g>
    </g>
    <g id="xtick_4">
     <g id="line2d_7">
      <path d="M 324.276958 529.308125 
L 324.276958 23.837812 
" clip-path="url(#p8698820d3c)" style="fill: none; stroke: #b0b0b0; stroke-opacity: 0.3; stroke-width: 0.8; stroke-linecap: square"/>
     </g>
     <g id="line2d_8">
      <g>
       <use xlink:href="#md6ce800863" x="324.276958" y="529.308125" style="stroke: #000000; stroke-width: 0.8"/>
      </g>
     </g>
     <g id="text_4">
      <text style="font: 10px 'DejaVu Sans', 'Bitstream Vera Sans', 'Computer Modern Sans Serif', 'Lucida Grande', 'Verdana', 'Geneva', 'Lucid', 'Arial', 'Helvetica', 'Avant Garde', sans-serif; text-anchor: middle" x="324.276958" y="543.906563" transform="rotate(-0 324.276958 543.906563)">85</text>
     </g>
    </g>
    <g id="xtick_5">
     <g id="line2d_9">
      <path d="M 406.252734 529.308125 
L 406.252734 23.837812 
" clip-path="url(#p8698820d3c)" style="fill: none; stroke: #b0b0b0; stroke-opacity: 0.3; stroke-width: 0.8; stroke-linecap: square"/>
     </g>
     <g id="line2d_10">
      <g>
       <use xlink:href="#md6ce800863" x="406.252734" y="529.308125" style="stroke: #000000; stroke-width: 0.8"/>
      </g>
     </g>
     <g id="text_5">
      <text style="font: 10px 'DejaVu Sans', 'Bitstream Vera Sans', 'Computer Modern Sans Serif', 'Lucida Grande', 'Verdana', 'Geneva', 'Lucid', 'Arial', 'Helvetica', 'Avant Garde', sans-serif; text-anchor: middle" x="406.252734" y="543.906563" transform="rotate(-0 406.252734 543.906563)">90</text>
     </g>
    </g>
    <g id="xtick_6">
     <g id="line2d_11">
      <path d="M 488.228509 529.308125 
L 488.228509 23.837812 
" clip-path="url(#p8698820d3c)" style="fill: none; stroke: #b0b0b0; stroke-opacity: 0.3; stroke-width: 0.8; stroke-linecap: square"/>
     </g>
     <g id="line2d_12">
      <g>
       <use xlink:href="#md6ce800863" x="488.228509" y="529.308125" style="stroke: #000000; stroke-width: 0.8"/>
      </g>
     </g>
     <g id="text_6">
      <text style="font: 10px 'DejaVu Sans', 'Bitstream Vera Sans', 'Computer Modern Sans Serif', 'Lucida Grande', 'Verdana', 'Geneva', 'Lucid', 'Arial', 'Helvetica', 'Avant Garde', sans-serif; text-anchor: middle" x="488.228509" y="543.906563" transform="rotate(-0 488.228509 543.906563)">95</text>
     </g>
    </g>
    <g id="xtick_7">
     <g id="line2d_13">
      <path d="M 570.204285 529.308125 
L 570.204285 23.837812 
" clip-path="url(#p8698820d3c)" style="fill: none; stroke: #b0b0b0; stroke-opacity: 0.3; stroke-width: 0.8; stroke-linecap: square"/>
     </g>
     <g id="line2d_14">
      <g>
       <use xlink:href="#md6ce800863" x="570.204285" y="529.308125" style="stroke: #000000; stroke-width: 0.8"/>
      </g>
     </g>
     <g id="text_7">
      <text style="font: 10px 'DejaVu Sans', 'Bitstream Vera Sans', 'Computer Modern Sans Serif', 'Lucida Grande', 'Verdana', 'Geneva', 'Lucid', 'Arial', 'Helvetica', 'Avant Garde', sans-serif; text-anchor: middle" x="570.204285" y="543.906563" transform="rotate(-0 570.204285 543.906563)">100</text>
     </g>
    </g>
    <g id="xtick_8">
     <g id="line2d_15">
      <path d="M 652.18006 529.308125 
L 652.18006 23.837812 
" clip-path="url(#p8698820d3c)" style="fill: none; stroke: #b0b0b0; stroke-opacity: 0.3; stroke-width: 0.8; stroke-linecap: square"/>
     </g>
     <g id="line2d_16">
      <g>
       <use xlink:href="#md6ce800863" x="652.18006" y="529.308125" style="stroke: #000000; stroke-width: 0.8"/>
      </g>
     </g>
     <g id="text_8">
      <text style="font: 10px 'DejaVu Sans', 'Bitstream Vera Sans', 'Computer Modern Sans Serif', 'Lucida Grande', 'Verdana', 'Geneva', 'Lucid', 'Arial', 'Helvetica', 'Avant Garde', sans-serif; text-anchor: middle" x="652.18006" y="543.906563" transform="rotate(-0 652.18006 543.906563)">105</text>
     </g>
    </g>
    <g id="text_9">
     <text style="font: 12px 'DejaVu Sans', 'Bitstream Vera Sans', 'Computer Modern Sans Serif', 'Lucida Grande', 'Verdana', 'Geneva', 'Lucid', 'Arial', 'Helvetica', 'Avant Garde', sans-serif; text-anchor: middle" x="398.055156" y="559.104375" transform="rotate(-0 398.055156 559.104375)">Build Number</text>
    </g>
   </g>
   <g id="matplotlib.axis_2">
    <g id="ytick_1">
     <g id="line2d_17">
      <defs>
       <path id="m8c5d113942" d="M 0 0 
L -2 0 
" style="stroke: #000000; stroke-width: 0.6"/>
      </defs>
      <g>
       <use xlink:href="#m8c5d113942" x="64.41375" y="445.491112" style="stroke: #000000; stroke-width: 0.6"/>
      </g>
     </g>
     <g id="text_10">
      <!-- $\mathdefault{6\times10^{0}}$ -->
      <g transform="translate(22.81375 449.290331)">
       <text>
        <tspan style="font: 10px 'DejaVu Sans'" x="0 8.310547 18.637695 25" y="-0.9765625">6×10</tspan>
        <tspan style="font: 7px 'DejaVu Sans'" x="31.458008" y="-4.8046875">0</tspan>
       </text>
      </g>
     </g>
    </g>
    <g id="ytick_2">
     <g id="line2d_18">
      <g>
       <use xlink:href="#m8c5d113942" x="64.41375" y="305.945364" style="stroke: #000000; stroke-width: 0.6"/>
      </g>
     </g>
     <g id="text_11">
      <!-- $\mathdefault{7\times10^{0}}$ -->
      <g transform="translate(22.81375 309.744582)">
       <text>
        <tspan style="font: 10px 'DejaVu Sans'" x="0 8.310547 18.637695 25" y="-0.9765625">7×10</tspan>
        <tspan style="font: 7px 'DejaVu Sans'" x="31.458008" y="-4.8046875">0</tspan>
       </text>
      </g>
     </g>
    </g>
    <g id="ytick_3">
     <g id="line2d_19">
      <g>
       <use xlink:href="#m8c5d113942" x="64.41375" y="185.065338" style="stroke: #000000; stroke-width: 0.6"/>
      </g>
     </g>
     <g id="text_12">
      <!-- $\mathdefault{8\times10^{0}}$ -->
      <g transform="translate(22.81375 188.864557)">
       <text>
        <tspan style="font: 10px 'DejaVu Sans'" x="0 8.310547 18.637695 25" y="-0.9765625">8×10</tspan>
        <tspan style="font: 7px 'DejaVu Sans'" x="31.458008" y="-4.8046875">0</tspan>
       </text>
      </g>
     </g>
    </g>
    <g id="ytick_4">
     <g id="line2d_20">
      <g>
       <use xlink:href="#m8c5d113942" x="64.41375" y="78.441598" style="stroke: #000000; stroke-width: 0.6"/>
      </g>
     </g>
     <g id="text_13">
      <!-- $\mathdefault{9\times10^{0}}$ -->
      <g transform="translate(22.81375 82.240817)">
       <text>
        <tspan style="font: 10px 'DejaVu Sans'" x="0 8.310547 18.637695 25" y="-0.9765625">9×10</tspan>
        <tspan style="font: 7px 'DejaVu Sans'" x="31.458008" y="-4.8046875">0</tspan>
       </text>
      </g>
     </g>
    </g>
    <g id="text_14">
     <text style="font: 12px 'DejaVu Sans', 'Bitstream Vera Sans', 'Computer Modern Sans Serif', 'Lucida Grande', 'Verdana', 'Geneva', 'Lucid', 'Arial', 'Helvetica', 'Avant Garde', sans-serif; text-anchor: middle" x="16.318125" y="276.572969" transform="rotate(-90 16.318125 276.572969)">Median Elapsed Time (nanoseconds)</text>
    </g>
   </g>
   <g id="line2d_21">
    <path d="M 94.744787 398.454274 
L 111.139942 399.887774 
L 127.535097 385.653904 
L 143.930252 399.887774 
L 160.325407 414.349032 
L 176.720562 399.887774 
L 193.115718 399.887774 
L 209.510873 399.887774 
L 225.906028 399.887774 
L 242.301183 399.887774 
L 258.696338 385.653904 
L 275.091493 399.887774 
L 291.486648 399.887774 
L 324.276958 399.887774 
L 340.672113 399.887774 
L 373.462424 399.887774 
L 389.857579 399.887774 
L 406.252734 399.887774 
L 422.647889 399.887774 
L 439.043044 399.887774 
L 471.833354 399.887774 
L 488.228509 399.887774 
L 504.623664 398.454274 
L 521.018819 414.349032 
L 553.80913 399.887774 
L 570.204285 399.887774 
L 586.59944 385.653904 
L 602.994595 399.887774 
L 619.38975 399.887774 
L 635.784905 399.887774 
L 652.18006 385.653904 
L 668.575215 398.454274 
L 701.365526 384.24275 
" clip-path="url(#p8698820d3c)" style="fill: none; stroke: #1f77b4; stroke-width: 2; stroke-linecap: square"/>
    <defs>
     <path id="m64e893d85f" d="M 0 3 
C 0.795609 3 1.55874 2.683901 2.12132 2.12132 
C 2.683901 1.55874 3 0.795609 3 0 
C 3 -0.795609 2.683901 -1.55874 2.12132 -2.12132 
C 1.55874 -2.683901 0.795609 -3 0 -3 
C -0.795609 -3 -1.55874 -2.683901 -2.12132 -2.12132 
C -2.683901 -1.55874 -3 -0.795609 -3 0 
C -3 0.795609 -2.683901 1.55874 -2.12132 2.12132 
C -1.55874 2.683901 -0.795609 3 0 3 
z
" style="stroke: #1f77b4"/>
    </defs>
    <g clip-path="url(#p8698820d3c)">
     <use xlink:href="#m64e893d85f" x="94.744787" y="398.454274" style="fill: #1f77b4; stroke: #1f77b4"/>
     <use xlink:href="#m64e893d85f" x="111.139942" y="399.887774" style="fill: #1f77b4; stroke: #1f77b4"/>
     <use xlink:href="#m64e893d85f" x="127.535097" y="385.653904" style="fill: #1f77b4; stroke: #1f77b4"/>
     <use xlink:href="#m64e893d85f" x="143.930252" y="399.887774" style="fill: #1f77b4; stroke: #1f77b4"/>
     <use xlink:href="#m64e893d85f" x="160.325407" y="414.349032" style="fill: #1f77b4; stroke: #1f77b4"/>
     <use xlink:href="#m64e893d85f" x="176.720562" y="399.887774" style="fill: #1f77b4; stroke: #1f77b4"/>
     <use xlink:href="#m64e893d85f" x="193.115718" y="399.887774" style="fill: #1f77b4; stroke: #1f77b4"/>
     <use xlink:href="#m64e893d85f" x="209.510873" y="399.887774" style="fill: #1f77b4; stroke: #1f77b4"/>
     <use xlink:href="#m64e893d85f" x="225.906028" y="399.887774" style="fill: #1f77b4; stroke: #1f77b4"/>
     <use xlink:href="#m64e893d85f" x="242.301183" y="399.887774" style="fill: #1f77b4; stroke: #1f77b4"/>
     <use xlink:href="#m64e893d85f" x="258.696338" y="385.653904" style="fill: #1f77b4; stroke: #1f77b4"/>
     <use xlink:href="#m64e893d85f" x="275.091493" y="399.887774" style="fill: #1f77b4; stroke: #1f77b4"/>
     <use xlink:href="#m64e893d85f" x="291.486648" y="399.887774" style="fill: #1f77b4; stroke: #1f77b4"/>
     <use xlink:href="#m64e893d85f" x="324.276958" y="399.887774" style="fill: #1f77b4; stroke: #1f77b4"/>
     <use xlink:href="#m64e893d85f" x="340.672113" y="399.887774" style="fill: #1f77b4; stroke: #1f77b4"/>
     <use xlink:href="#m64e893d85f" x="373.462424" y="399.887774" style="fill: #1f77b4; stroke: #1f77b4"/>
     <use xlink:href="#m64e893d85f" x="389.857579" y="399.887774" style="fill: #1f77b4; stroke: #1f77b4"/>
     <use xlink:href="#m64e893d85f" x="406.252734" y="399.887774" style="fill: #1f77b4; stroke: #1f77b4"/>
     <use xlink:href="#m64e893d85f" x="422.647889" y="399.887774" style="fill: #1f77b4; stroke: #1f77b4"/>
     <use xlink:href="#m64e893d85f" x="439.043044" y="399.887774" style="fill: #1f77b4; stroke: #1f77b4"/>
     <use xlink:href="#m64e893d85f" x="471.833354" y="399.887774" style="fill: #1f77b4; stroke: #1f77b4"/>
     <use xlink:href="#m64e893d85f" x="488.228509" y="399.887774" style="fill: #1f77b4; stroke: #1f77b4"/>
     <use xlink:href="#m64e893d85f" x="504.623664" y="398.454274" style="fill: #1f77b4; stroke: #1f77b4"/>
     <use xlink:href="#m64e893d85f" x="521.018819" y="414.349032" style="fill: #1f77b4; stroke: #1f77b4"/>
     <use xlink:href="#m64e893d85f" x="553.80913" y="399.887774" style="fill: #1f77b4; stroke: #1f77b4"/>
     <use xlink:href="#m64e893d85f" x="570.204285" y="399.887774" style="fill: #1f77b4; stroke: #1f77b4"/>
     <use xlink:href="#m64e893d85f" x="586.59944" y="385.653904" style="fill: #1f77b4; stroke: #1f77b4"/>
     <use xlink:href="#m64e893d85f" x="602.994595" y="399.887774" style="fill: #1f77b4; stroke: #1f77b4"/>
     <use xlink:href="#m64e893d85f" x="619.38975" y="399.887774" style="fill: #1f77b4; stroke: #1f77b4"/>
     <use xlink:href="#m64e893d85f" x="635.784905" y="399.887774" style="fill: #1f77b4; stroke: #1f77b4"/>
     <use xlink:href="#m64e893d85f" x="652.18006" y="385.653904" style="fill: #1f77b4; stroke: #1f77b4"/>
     <use xlink:href="#m64e893d85f" x="668.575215" y="398.454274" style="fill: #1f77b4; stroke: #1f77b4"/>
     <use xlink:href="#m64e893d85f" x="701.365526" y="384.24275" style="fill: #1f77b4; stroke: #1f77b4"/>
    </g>
   </g>
   <g id="line2d_22">
    <path d="M 94.744787 506.332202 
L 111.139942 443.983609 
L 127.535097 443.983609 
L 143.930252 443.983609 
L 160.325407 443.983609 
L 176.720562 429.045061 
L 193.115718 442.478612 
L 209.510873 442.478612 
L 225.906028 443.983609 
L 242.301183 443.983609 
L 258.696338 443.983609 
L 275.091493 229.119752 
L 291.486648 429.045061 
L 307.881803 443.983609 
L 324.276958 443.983609 
L 340.672113 429.045061 
L 373.462424 414.349032 
L 389.857579 442.478612 
L 406.252734 430.527871 
L 422.647889 443.983609 
L 439.043044 442.478612 
L 455.438199 443.983609 
L 471.833354 429.045061 
L 488.228509 443.983609 
L 504.623664 443.983609 
L 521.018819 46.813736 
L 553.80913 443.983609 
L 570.204285 443.983609 
L 586.59944 443.983609 
L 602.994595 442.478612 
L 619.38975 429.045061 
L 635.784905 443.983609 
L 652.18006 443.983609 
L 668.575215 429.045061 
L 701.365526 429.045061 
" clip-path="url(#p8698820d3c)" style="fill: none; stroke: #ff7f0e; stroke-width: 2; stroke-linecap: square"/>
    <defs>
     <path id="mf78730523c" d="M 0 3 
C 0.795609 3 1.55874 2.683901 2.12132 2.12132 
C 2.683901 1.55874 3 0.795609 3 0 
C 3 -0.795609 2.683901 -1.55874 2.12132 -2.12132 
C 1.55874 -2.683901 0.795609 -3 0 -3 
C -0.795609 -3 -1.55874 -2.683901 -2.12132 -2.12132 
C -2.683901 -1.55874 -3 -0.795609 -3 0 
C -3 0.795609 -2.683901 1.55874 -2.12132 2.12132 
C -1.55874 2.683901 -0.795609 3 0 3 
z
" style="stroke: #ff7f0e"/>
    </defs>
    <g clip-path="url(#p8698820d3c)">
     <use xlink:href="#mf78730523c" x="94.744787" y="506.332202" style="fill: #ff7f0e; stroke: #ff7f0e"/>
     <use xlink:href="#mf78730523c" x="111.139942" y="443.983609" style="fill: #ff7f0e; stroke: #ff7f0e"/>
     <use xlink:href="#mf78730523c" x="127.535097" y="443.983609" style="fill: #ff7f0e; stroke: #ff7f0e"/>
     <use xlink:href="#mf78730523c" x="143.930252" y="443.983609" style="fill: #ff7f0e; stroke: #ff7f0e"/>
     <use xlink:href="#mf78730523c" x="160.325407" y="443.983609" style="fill: #ff7f0e; stroke: #ff7f0e"/>
     <use xlink:href="#mf78730523c" x="176.720562" y="429.045061" style="fill: #ff7f0e; stroke: #ff7f0e"/>
     <use xlink:href="#mf78730523c" x="193.115718" y="442.478612" style="fill: #ff7f0e; stroke: #ff7f0e"/>
     <use xlink:href="#mf78730523c" x="209.510873" y="442.478612" style="fill: #ff7f0e; stroke: #ff7f0e"/>
     <use xlink:href="#mf78730523c" x="225.906028" y="443.983609" style="fill: #ff7f0e; stroke: #ff7f0e"/>
     <use xlink:href="#mf78730523c" x="242.301183" y="443.983609" style="fill: #ff7f0e; stroke: #ff7f0e"/>
     <use xlink:href="#mf78730523c" x="258.696338" y="443.983609" style="fill: #ff7f0e; stroke: #ff7f0e"/>
     <use xlink:href="#mf78730523c" x="275.091493" y="229.119752" style="fill: #ff7f0e; stroke: #ff7f0e"/>
     <use xlink:href="#mf78730523c" x="291.486648" y="429.045061" style="fill: #ff7f0e; stroke: #ff7f0e"/>
     <use xlink:href="#mf78730523c" x="307.881803" y="443.983609" style="fill: #ff7f0e; stroke: #ff7f0e"/>
     <use xlink:href="#mf78730523c" x="324.276958" y="443.983609" style="fill: #ff7f0e; stroke: #ff7f0e"/>
     <use xlink:href="#mf78730523c" x="340.672113" y="429.045061" style="fill: #ff7f0e; stroke: #ff7f0e"/>
     <use xlink:href="#mf78730523c" x="373.462424" y="414.349032" style="fill: #ff7f0e; stroke: #ff7f0e"/>
     <use xlink:href="#mf78730523c" x="389.857579" y="442.478612" style="fill: #ff7f0e; stroke: #ff7f0e"/>
     <use xlink:href="#mf78730523c" x="406.252734" y="430.527871" style="fill: #ff7f0e; stroke: #ff7f0e"/>
     <use xlink:href="#mf78730523c" x="422.647889" y="443.983609" style="fill: #ff7f0e; stroke: #ff7f0e"/>
     <use xlink:href="#mf78730523c" x="439.043044" y="442.478612" style="fill: #ff7f0e; stroke: #ff7f0e"/>
     <use xlink:href="#mf78730523c" x="455.438199" y="443.983609" style="fill: #ff7f0e; stroke: #ff7f0e"/>
     <use xlink:href="#mf78730523c" x="471.833354" y="429.045061" style="fill: #ff7f0e; stroke: #ff7f0e"/>
     <use xlink:href="#mf78730523c" x="488.228509" y="443.983609" style="fill: #ff7f0e; stroke: #ff7f0e"/>
     <use xlink:href="#mf78730523c" x="504.623664" y="443.983609" style="fill: #ff7f0e; stroke: #ff7f0e"/>
     <use xlink:href="#mf78730523c" x="521.018819" y="46.813736" style="fill: #ff7f0e; stroke: #ff7f0e"/>
     <use xlink:href="#mf78730523c" x="553.80913" y="443.983609" style="fill: #ff7f0e; stroke: #ff7f0e"/>
     <use xlink:href="#mf78730523c" x="570.204285" y="443.983609" style="fill: #ff7f0e; stroke: #ff7f0e"/>
     <use xlink:href="#mf78730523c" x="586.59944" y="443.983609" style="fill: #ff7f0e; stroke: #ff7f0e"/>
     <use xlink:href="#mf78730523c" x="602.994595" y="442.478612" style="fill: #ff7f0e; stroke: #ff7f0e"/>
     <use xlink:href="#mf78730523c" x="619.38975" y="429.045061" style="fill: #ff7f0e; stroke: #ff7f0e"/>
     <use xlink:href="#mf78730523c" x="635.784905" y="443.983609" style="fill: #ff7f0e; stroke: #ff7f0e"/>
     <use xlink:href="#mf78730523c" x="652.18006" y="443.983609" style="fill: #ff7f0e; stroke: #ff7f0e"/>
     <use xlink:href="#mf78730523c" x="668.575215" y="429.045061" style="fill: #ff7f0e; stroke: #ff7f0e"/>
     <use xlink:href="#mf78730523c" x="701.365526" y="429.045061" style="fill: #ff7f0e; stroke: #ff7f0e"/>
    </g>
   </g>
   <g id="patch_3">
    <path d="M 64.41375 529.308125 
L 64.41375 23.837813 
" style="fill: none; stroke: #000000; stroke-width: 0.8; stroke-linejoin: miter; stroke-linecap: square"/>
   </g>
   <g id="patch_4">
    <path d="M 731.696562 529.308125 
L 731.696562 23.837813 
" style="fill: none; stroke: #000000; stroke-width: 0.8; stroke-linejoin: miter; stroke-linecap: square"/>
   </g>
   <g id="patch_5">
    <path d="M 64.41375 529.308125 
L 731.696562 529.308125 
" style="fill: none; stroke: #000000; stroke-width: 0.8; stroke-linejoin: miter; stroke-linecap: square"/>
   </g>
   <g id="patch_6">
    <path d="M 64.41375 23.837812 
L 731.696562 23.837812 
" style="fill: none; stroke: #000000; stroke-width: 0.8; stroke-linejoin: miter; stroke-linecap: square"/>
   </g>
   <g id="text_15">
    <text style="font: 700 14px 'DejaVu Sans', 'Bitstream Vera Sans', 'Computer Modern Sans Serif', 'Lucida Grande', 'Verdana', 'Geneva', 'Lucid', 'Arial', 'Helvetica', 'Avant Garde', sans-serif; text-anchor: middle" x="398.055156" y="17.837813" transform="rotate(-0 398.055156 17.837813)">Ts Shared Linear Single Thread - Performance Trend</text>
   </g>
   <g id="legend_1">
    <g id="patch_7">
     <path d="M 772.060703 61.194063 
L 847.484141 61.194063 
Q 849.484141 61.194063 849.484141 59.194063 
L 849.484141 30.837813 
Q 849.484141 28.837813 847.484141 28.837813 
L 772.060703 28.837813 
Q 770.060703 28.837813 770.060703 30.837813 
L 770.060703 59.194063 
Q 770.060703 61.194063 772.060703 61.194063 
z
" style="fill: #ffffff; opacity: 0.8; stroke: #cccccc; stroke-linejoin: miter"/>
    </g>
    <g id="line2d_23">
     <path d="M 774.060703 36.93625 
L 784.060703 36.93625 
L 794.060703 36.93625 
" style="fill: none; stroke: #1f77b4; stroke-width: 2; stroke-linecap: square"/>
     <g>
      <use xlink:href="#m64e893d85f" x="784.060703" y="36.93625" style="fill: #1f77b4; stroke: #1f77b4"/>
     </g>
    </g>
    <g id="text_16">
     <text style="font: 10px 'DejaVu Sans', 'Bitstream Vera Sans', 'Computer Modern Sans Serif', 'Lucida Grande', 'Verdana', 'Geneva', 'Lucid', 'Arial', 'Helvetica', 'Avant Garde', sans-serif; text-anchor: start" x="802.060703" y="40.43625" transform="rotate(-0 802.060703 40.43625)">clang-18</text>
    </g>
    <g id="line2d_24">
     <path d="M 774.060703 51.614375 
L 784.060703 51.614375 
L 794.060703 51.614375 
" style="fill: none; stroke: #ff7f0e; stroke-width: 2; stroke-linecap: square"/>
     <g>
      <use xlink:href="#mf78730523c" x="784.060703" y="51.614375" style="fill: #ff7f0e; stroke: #ff7f0e"/>
     </g>
    </g>
    <g id="text_17">
     <text style="font: 10px 'DejaVu Sans', 'Bitstream Vera Sans', 'Computer Modern Sans Serif', 'Lucida Grande', 'Verdana', 'Geneva', 'Lucid', 'Arial', 'Helvetica', 'Avant Garde', sans-serif; text-anchor: start" x="802.060703" y="55.114375" transform="rotate(-0 802.060703 55.114375)">gcc-14</text>
    </g>
   </g>
  </g>
 </g>
 <defs>
  <clipPath id="p8698820d3c">
   <rect x="64.41375" y="23.837813" width="667.282812" height="505.470313"/>
  </clipPath>
 </defs>
</svg>
