<?xml version="1.0" encoding="utf-8" standalone="no"?>
<!DOCTYPE svg PUBLIC "-//W3C//DTD SVG 1.1//EN"
  "http://www.w3.org/Graphics/SVG/1.1/DTD/svg11.dtd">
<svg xmlns:xlink="http://www.w3.org/1999/xlink" width="855.536016pt" height="568.8pt" viewBox="0 0 855.536016 568.8" xmlns="http://www.w3.org/2000/svg" version="1.1">
 <metadata>
  <rdf:RDF xmlns:dc="http://purl.org/dc/elements/1.1/" xmlns:cc="http://creativecommons.org/ns#" xmlns:rdf="http://www.w3.org/1999/02/22-rdf-syntax-ns#">
   <cc:Work>
    <dc:type rdf:resource="http://purl.org/dc/dcmitype/StillImage"/>
    <dc:date>2025-08-22T21:57:30.104874</dc:date>
    <dc:format>image/svg+xml</dc:format>
    <dc:creator>
     <cc:Agent>
      <dc:title>Matplotlib v3.9.4, https://matplotlib.org/</dc:title>
     </cc:Agent>
    </dc:creator>
   </cc:Work>
  </rdf:RDF>
 </metadata>
 <defs>
  <style type="text/css">*{stroke-linejoin: round; stroke-linecap: butt}</style>
 </defs>
 <g id="figure_1">
  <g id="patch_1">
   <path d="M 0 568.8 
L 855.536016 568.8 
L 855.536016 0 
L 0 0 
z
" style="fill: #ffffff"/>
  </g>
  <g id="axes_1">
   <g id="patch_2">
    <path d="M 64.41375 529.308125 
L 708.734063 529.308125 
L 708.734063 23.837812 
L 64.41375 23.837812 
z
" style="fill: #ffffff"/>
   </g>
   <g id="matplotlib.axis_1">
    <g id="xtick_1">
     <g id="line2d_1">
      <path d="M 75.951166 529.308125 
L 75.951166 23.837812 
" clip-path="url(#pdf19342633)" style="fill: none; stroke: #b0b0b0; stroke-opacity: 0.3; stroke-width: 0.8; stroke-linecap: square"/>
     </g>
     <g id="line2d_2">
      <defs>
       <path id="m78a517b99e" d="M 0 0 
L 0 3.5 
" style="stroke: #000000; stroke-width: 0.8"/>
      </defs>
      <g>
       <use xlink:href="#m78a517b99e" x="75.951166" y="529.308125" style="stroke: #000000; stroke-width: 0.8"/>
      </g>
     </g>
     <g id="text_1">
      <text style="font: 10px 'DejaVu Sans', 'Bitstream Vera Sans', 'Computer Modern Sans Serif', 'Lucida Grande', 'Verdana', 'Geneva', 'Lucid', 'Arial', 'Helvetica', 'Avant Garde', sans-serif; text-anchor: middle" x="75.951166" y="543.906563" transform="rotate(-0 75.951166 543.906563)">70</text>
     </g>
    </g>
    <g id="xtick_2">
     <g id="line2d_3">
      <path d="M 164.70052 529.308125 
L 164.70052 23.837812 
" clip-path="url(#pdf19342633)" style="fill: none; stroke: #b0b0b0; stroke-opacity: 0.3; stroke-width: 0.8; stroke-linecap: square"/>
     </g>
     <g id="line2d_4">
      <g>
       <use xlink:href="#m78a517b99e" x="164.70052" y="529.308125" style="stroke: #000000; stroke-width: 0.8"/>
      </g>
     </g>
     <g id="text_2">
      <text style="font: 10px 'DejaVu Sans', 'Bitstream Vera Sans', 'Computer Modern Sans Serif', 'Lucida Grande', 'Verdana', 'Geneva', 'Lucid', 'Arial', 'Helvetica', 'Avant Garde', sans-serif; text-anchor: middle" x="164.70052" y="543.906563" transform="rotate(-0 164.70052 543.906563)">75</text>
     </g>
    </g>
    <g id="xtick_3">
     <g id="line2d_5">
      <path d="M 253.449875 529.308125 
L 253.449875 23.837812 
" clip-path="url(#pdf19342633)" style="fill: none; stroke: #b0b0b0; stroke-opacity: 0.3; stroke-width: 0.8; stroke-linecap: square"/>
     </g>
     <g id="line2d_6">
      <g>
       <use xlink:href="#m78a517b99e" x="253.449875" y="529.308125" style="stroke: #000000; stroke-width: 0.8"/>
      </g>
     </g>
     <g id="text_3">
      <text style="font: 10px 'DejaVu Sans', 'Bitstream Vera Sans', 'Computer Modern Sans Serif', 'Lucida Grande', 'Verdana', 'Geneva', 'Lucid', 'Arial', 'Helvetica', 'Avant Garde', sans-serif; text-anchor: middle" x="253.449875" y="543.906563" transform="rotate(-0 253.449875 543.906563)">80</text>
     </g>
    </g>
    <g id="xtick_4">
     <g id="line2d_7">
      <path d="M 342.199229 529.308125 
L 342.199229 23.837812 
" clip-path="url(#pdf19342633)" style="fill: none; stroke: #b0b0b0; stroke-opacity: 0.3; stroke-width: 0.8; stroke-linecap: square"/>
     </g>
     <g id="line2d_8">
      <g>
       <use xlink:href="#m78a517b99e" x="342.199229" y="529.308125" style="stroke: #000000; stroke-width: 0.8"/>
      </g>
     </g>
     <g id="text_4">
      <text style="font: 10px 'DejaVu Sans', 'Bitstream Vera Sans', 'Computer Modern Sans Serif', 'Lucida Grande', 'Verdana', 'Geneva', 'Lucid', 'Arial', 'Helvetica', 'Avant Garde', sans-serif; text-anchor: middle" x="342.199229" y="543.906563" transform="rotate(-0 342.199229 543.906563)">85</text>
     </g>
    </g>
    <g id="xtick_5">
     <g id="line2d_9">
      <path d="M 430.948583 529.308125 
L 430.948583 23.837812 
" clip-path="url(#pdf19342633)" style="fill: none; stroke: #b0b0b0; stroke-opacity: 0.3; stroke-width: 0.8; stroke-linecap: square"/>
     </g>
     <g id="line2d_10">
      <g>
       <use xlink:href="#m78a517b99e" x="430.948583" y="529.308125" style="stroke: #000000; stroke-width: 0.8"/>
      </g>
     </g>
     <g id="text_5">
      <text style="font: 10px 'DejaVu Sans', 'Bitstream Vera Sans', 'Computer Modern Sans Serif', 'Lucida Grande', 'Verdana', 'Geneva', 'Lucid', 'Arial', 'Helvetica', 'Avant Garde', sans-serif; text-anchor: middle" x="430.948583" y="543.906563" transform="rotate(-0 430.948583 543.906563)">90</text>
     </g>
    </g>
    <g id="xtick_6">
     <g id="line2d_11">
      <path d="M 519.697938 529.308125 
L 519.697938 23.837812 
" clip-path="url(#pdf19342633)" style="fill: none; stroke: #b0b0b0; stroke-opacity: 0.3; stroke-width: 0.8; stroke-linecap: square"/>
     </g>
     <g id="line2d_12">
      <g>
       <use xlink:href="#m78a517b99e" x="519.697938" y="529.308125" style="stroke: #000000; stroke-width: 0.8"/>
      </g>
     </g>
     <g id="text_6">
      <text style="font: 10px 'DejaVu Sans', 'Bitstream Vera Sans', 'Computer Modern Sans Serif', 'Lucida Grande', 'Verdana', 'Geneva', 'Lucid', 'Arial', 'Helvetica', 'Avant Garde', sans-serif; text-anchor: middle" x="519.697938" y="543.906563" transform="rotate(-0 519.697938 543.906563)">95</text>
     </g>
    </g>
    <g id="xtick_7">
     <g id="line2d_13">
      <path d="M 608.447292 529.308125 
L 608.447292 23.837812 
" clip-path="url(#pdf19342633)" style="fill: none; stroke: #b0b0b0; stroke-opacity: 0.3; stroke-width: 0.8; stroke-linecap: square"/>
     </g>
     <g id="line2d_14">
      <g>
       <use xlink:href="#m78a517b99e" x="608.447292" y="529.308125" style="stroke: #000000; stroke-width: 0.8"/>
      </g>
     </g>
     <g id="text_7">
      <text style="font: 10px 'DejaVu Sans', 'Bitstream Vera Sans', 'Computer Modern Sans Serif', 'Lucida Grande', 'Verdana', 'Geneva', 'Lucid', 'Arial', 'Helvetica', 'Avant Garde', sans-serif; text-anchor: middle" x="608.447292" y="543.906563" transform="rotate(-0 608.447292 543.906563)">100</text>
     </g>
    </g>
    <g id="xtick_8">
     <g id="line2d_15">
      <path d="M 697.196646 529.308125 
L 697.196646 23.837812 
" clip-path="url(#pdf19342633)" style="fill: none; stroke: #b0b0b0; stroke-opacity: 0.3; stroke-width: 0.8; stroke-linecap: square"/>
     </g>
     <g id="line2d_16">
      <g>
       <use xlink:href="#m78a517b99e" x="697.196646" y="529.308125" style="stroke: #000000; stroke-width: 0.8"/>
      </g>
     </g>
     <g id="text_8">
      <text style="font: 10px 'DejaVu Sans', 'Bitstream Vera Sans', 'Computer Modern Sans Serif', 'Lucida Grande', 'Verdana', 'Geneva', 'Lucid', 'Arial', 'Helvetica', 'Avant Garde', sans-serif; text-anchor: middle" x="697.196646" y="543.906563" transform="rotate(-0 697.196646 543.906563)">105</text>
     </g>
    </g>
    <g id="text_9">
     <text style="font: 12px 'DejaVu Sans', 'Bitstream Vera Sans', 'Computer Modern Sans Serif', 'Lucida Grande', 'Verdana', 'Geneva', 'Lucid', 'Arial', 'Helvetica', 'Avant Garde', sans-serif; text-anchor: middle" x="386.573906" y="559.104375" transform="rotate(-0 386.573906 559.104375)">Build Number</text>
    </g>
   </g>
   <g id="matplotlib.axis_2">
    <g id="ytick_1">
     <g id="line2d_17">
      <path d="M 64.41375 334.291639 
L 708.734063 334.291639 
" clip-path="url(#pdf19342633)" style="fill: none; stroke: #b0b0b0; stroke-opacity: 0.3; stroke-width: 0.8; stroke-linecap: square"/>
     </g>
     <g id="line2d_18">
      <defs>
       <path id="mfa226b43bb" d="M 0 0 
L -3.5 0 
" style="stroke: #000000; stroke-width: 0.8"/>
      </defs>
      <g>
       <use xlink:href="#mfa226b43bb" x="64.41375" y="334.291639" style="stroke: #000000; stroke-width: 0.8"/>
      </g>
     </g>
     <g id="text_10">
      <!-- $\mathdefault{10^{5}}$ -->
      <g transform="translate(39.81375 338.090858)">
       <text>
        <tspan style="font: 10px 'DejaVu Sans'" x="0 6.362305" y="-0.06406250000000036">10</tspan>
        <tspan style="font: 7px 'DejaVu Sans'" x="12.820312" y="-3.8921875000000004">5</tspan>
       </text>
      </g>
     </g>
    </g>
    <g id="ytick_2">
     <g id="line2d_19">
      <defs>
       <path id="m647adf0688" d="M 0 0 
L -2 0 
" style="stroke: #000000; stroke-width: 0.6"/>
      </defs>
      <g>
       <use xlink:href="#m647adf0688" x="64.41375" y="505.7097" style="stroke: #000000; stroke-width: 0.6"/>
      </g>
     </g>
     <g id="text_11">
      <!-- $\mathdefault{6\times10^{4}}$ -->
      <g transform="translate(22.81375 509.508919)">
       <text>
        <tspan style="font: 10px 'DejaVu Sans'" x="0 8.310547 18.637695 25" y="-0.06406250000000036">6×10</tspan>
        <tspan style="font: 7px 'DejaVu Sans'" x="31.458008" y="-3.8921875000000004">4</tspan>
       </text>
      </g>
     </g>
    </g>
    <g id="ytick_3">
     <g id="line2d_20">
      <g>
       <use xlink:href="#m647adf0688" x="64.41375" y="453.981264" style="stroke: #000000; stroke-width: 0.6"/>
      </g>
     </g>
    </g>
    <g id="ytick_4">
     <g id="line2d_21">
      <g>
       <use xlink:href="#m647adf0688" x="64.41375" y="409.172055" style="stroke: #000000; stroke-width: 0.6"/>
      </g>
     </g>
    </g>
    <g id="ytick_5">
     <g id="line2d_22">
      <g>
       <use xlink:href="#m647adf0688" x="64.41375" y="369.647531" style="stroke: #000000; stroke-width: 0.6"/>
      </g>
     </g>
    </g>
    <g id="ytick_6">
     <g id="line2d_23">
      <g>
       <use xlink:href="#m647adf0688" x="64.41375" y="101.691823" style="stroke: #000000; stroke-width: 0.6"/>
      </g>
     </g>
     <g id="text_12">
      <!-- $\mathdefault{2\times10^{5}}$ -->
      <g transform="translate(22.81375 105.491042)">
       <text>
        <tspan style="font: 10px 'DejaVu Sans'" x="0 8.310547 18.637695 25" y="-0.06406250000000036">2×10</tspan>
        <tspan style="font: 7px 'DejaVu Sans'" x="31.458008" y="-3.8921875000000004">5</tspan>
       </text>
      </g>
     </g>
    </g>
    <g id="text_13">
     <text style="font: 12px 'DejaVu Sans', 'Bitstream Vera Sans', 'Computer Modern Sans Serif', 'Lucida Grande', 'Verdana', 'Geneva', 'Lucid', 'Arial', 'Helvetica', 'Avant Garde', sans-serif; text-anchor: middle" x="16.318125" y="276.572969" transform="rotate(-90 16.318125 276.572969)">Median Elapsed Time (nanoseconds)</text>
    </g>
   </g>
   <g id="line2d_24">
    <path d="M 93.701037 46.813736 
L 111.450908 191.993804 
L 129.200779 203.583288 
L 146.95065 226.939206 
L 164.70052 249.293351 
L 182.450391 197.56458 
L 200.200262 217.514077 
L 217.950133 216.449271 
L 235.700004 213.414453 
L 253.449875 197.627325 
L 271.199746 255.061283 
L 288.949616 181.822836 
L 306.699487 48.546392 
L 324.449358 155.181473 
L 342.199229 255.056248 
L 359.9491 280.19621 
L 395.448842 250.483261 
L 413.198713 243.683337 
L 430.948583 243.288052 
L 448.698454 283.580852 
L 466.448325 283.575659 
L 484.198196 244.097042 
L 501.948067 245.4831 
L 519.697938 283.596143 
L 537.447809 244.026517 
L 555.197679 252.14706 
L 590.697421 107.746626 
L 608.447292 249.935013 
L 626.197163 47.122473 
L 643.947034 283.266816 
L 661.696905 237.087039 
L 679.446776 284.46166 
" clip-path="url(#pdf19342633)" style="fill: none; stroke: #1f77b4; stroke-width: 2; stroke-linecap: square"/>
    <defs>
     <path id="m91f75a5cf1" d="M 0 3 
C 0.795609 3 1.55874 2.683901 2.12132 2.12132 
C 2.683901 1.55874 3 0.795609 3 0 
C 3 -0.795609 2.683901 -1.55874 2.12132 -2.12132 
C 1.55874 -2.683901 0.795609 -3 0 -3 
C -0.795609 -3 -1.55874 -2.683901 -2.12132 -2.12132 
C -2.683901 -1.55874 -3 -0.795609 -3 0 
C -3 0.795609 -2.683901 1.55874 -2.12132 2.12132 
C -1.55874 2.683901 -0.795609 3 0 3 
z
" style="stroke: #1f77b4"/>
    </defs>
    <g clip-path="url(#pdf19342633)">
     <use xlink:href="#m91f75a5cf1" x="93.701037" y="46.813736" style="fill: #1f77b4; stroke: #1f77b4"/>
     <use xlink:href="#m91f75a5cf1" x="111.450908" y="191.993804" style="fill: #1f77b4; stroke: #1f77b4"/>
     <use xlink:href="#m91f75a5cf1" x="129.200779" y="203.583288" style="fill: #1f77b4; stroke: #1f77b4"/>
     <use xlink:href="#m91f75a5cf1" x="146.95065" y="226.939206" style="fill: #1f77b4; stroke: #1f77b4"/>
     <use xlink:href="#m91f75a5cf1" x="164.70052" y="249.293351" style="fill: #1f77b4; stroke: #1f77b4"/>
     <use xlink:href="#m91f75a5cf1" x="182.450391" y="197.56458" style="fill: #1f77b4; stroke: #1f77b4"/>
     <use xlink:href="#m91f75a5cf1" x="200.200262" y="217.514077" style="fill: #1f77b4; stroke: #1f77b4"/>
     <use xlink:href="#m91f75a5cf1" x="217.950133" y="216.449271" style="fill: #1f77b4; stroke: #1f77b4"/>
     <use xlink:href="#m91f75a5cf1" x="235.700004" y="213.414453" style="fill: #1f77b4; stroke: #1f77b4"/>
     <use xlink:href="#m91f75a5cf1" x="253.449875" y="197.627325" style="fill: #1f77b4; stroke: #1f77b4"/>
     <use xlink:href="#m91f75a5cf1" x="271.199746" y="255.061283" style="fill: #1f77b4; stroke: #1f77b4"/>
     <use xlink:href="#m91f75a5cf1" x="288.949616" y="181.822836" style="fill: #1f77b4; stroke: #1f77b4"/>
     <use xlink:href="#m91f75a5cf1" x="306.699487" y="48.546392" style="fill: #1f77b4; stroke: #1f77b4"/>
     <use xlink:href="#m91f75a5cf1" x="324.449358" y="155.181473" style="fill: #1f77b4; stroke: #1f77b4"/>
     <use xlink:href="#m91f75a5cf1" x="342.199229" y="255.056248" style="fill: #1f77b4; stroke: #1f77b4"/>
     <use xlink:href="#m91f75a5cf1" x="359.9491" y="280.19621" style="fill: #1f77b4; stroke: #1f77b4"/>
     <use xlink:href="#m91f75a5cf1" x="395.448842" y="250.483261" style="fill: #1f77b4; stroke: #1f77b4"/>
     <use xlink:href="#m91f75a5cf1" x="413.198713" y="243.683337" style="fill: #1f77b4; stroke: #1f77b4"/>
     <use xlink:href="#m91f75a5cf1" x="430.948583" y="243.288052" style="fill: #1f77b4; stroke: #1f77b4"/>
     <use xlink:href="#m91f75a5cf1" x="448.698454" y="283.580852" style="fill: #1f77b4; stroke: #1f77b4"/>
     <use xlink:href="#m91f75a5cf1" x="466.448325" y="283.575659" style="fill: #1f77b4; stroke: #1f77b4"/>
     <use xlink:href="#m91f75a5cf1" x="484.198196" y="244.097042" style="fill: #1f77b4; stroke: #1f77b4"/>
     <use xlink:href="#m91f75a5cf1" x="501.948067" y="245.4831" style="fill: #1f77b4; stroke: #1f77b4"/>
     <use xlink:href="#m91f75a5cf1" x="519.697938" y="283.596143" style="fill: #1f77b4; stroke: #1f77b4"/>
     <use xlink:href="#m91f75a5cf1" x="537.447809" y="244.026517" style="fill: #1f77b4; stroke: #1f77b4"/>
     <use xlink:href="#m91f75a5cf1" x="555.197679" y="252.14706" style="fill: #1f77b4; stroke: #1f77b4"/>
     <use xlink:href="#m91f75a5cf1" x="590.697421" y="107.746626" style="fill: #1f77b4; stroke: #1f77b4"/>
     <use xlink:href="#m91f75a5cf1" x="608.447292" y="249.935013" style="fill: #1f77b4; stroke: #1f77b4"/>
     <use xlink:href="#m91f75a5cf1" x="626.197163" y="47.122473" style="fill: #1f77b4; stroke: #1f77b4"/>
     <use xlink:href="#m91f75a5cf1" x="643.947034" y="283.266816" style="fill: #1f77b4; stroke: #1f77b4"/>
     <use xlink:href="#m91f75a5cf1" x="661.696905" y="237.087039" style="fill: #1f77b4; stroke: #1f77b4"/>
     <use xlink:href="#m91f75a5cf1" x="679.446776" y="284.46166" style="fill: #1f77b4; stroke: #1f77b4"/>
    </g>
   </g>
   <g id="line2d_25">
    <path d="M 93.701037 240.963675 
L 111.450908 243.863598 
L 129.200779 244.090117 
L 146.95065 246.102545 
L 164.70052 239.261485 
L 182.450391 244.568784 
L 200.200262 239.50832 
L 217.950133 247.747045 
L 235.700004 241.093226 
L 253.449875 247.539422 
L 271.199746 242.14731 
L 288.949616 245.28202 
L 306.699487 248.914302 
L 324.449358 244.728064 
L 342.199229 249.45098 
L 359.9491 239.165431 
L 395.448842 244.109353 
L 413.198713 241.526717 
L 430.948583 244.443983 
L 448.698454 247.414482 
L 466.448325 239.866502 
L 484.198196 237.098844 
L 501.948067 237.606123 
L 519.697938 235.646113 
L 537.447809 280.614175 
L 555.197679 247.512733 
L 590.697421 279.756862 
L 608.447292 281.661443 
L 626.197163 280.709844 
L 643.947034 280.122753 
L 661.696905 279.068518 
L 679.446776 280.640628 
" clip-path="url(#pdf19342633)" style="fill: none; stroke: #ff7f0e; stroke-width: 2; stroke-linecap: square"/>
    <defs>
     <path id="me57533de9e" d="M 0 3 
C 0.795609 3 1.55874 2.683901 2.12132 2.12132 
C 2.683901 1.55874 3 0.795609 3 0 
C 3 -0.795609 2.683901 -1.55874 2.12132 -2.12132 
C 1.55874 -2.683901 0.795609 -3 0 -3 
C -0.795609 -3 -1.55874 -2.683901 -2.12132 -2.12132 
C -2.683901 -1.55874 -3 -0.795609 -3 0 
C -3 0.795609 -2.683901 1.55874 -2.12132 2.12132 
C -1.55874 2.683901 -0.795609 3 0 3 
z
" style="stroke: #ff7f0e"/>
    </defs>
    <g clip-path="url(#pdf19342633)">
     <use xlink:href="#me57533de9e" x="93.701037" y="240.963675" style="fill: #ff7f0e; stroke: #ff7f0e"/>
     <use xlink:href="#me57533de9e" x="111.450908" y="243.863598" style="fill: #ff7f0e; stroke: #ff7f0e"/>
     <use xlink:href="#me57533de9e" x="129.200779" y="244.090117" style="fill: #ff7f0e; stroke: #ff7f0e"/>
     <use xlink:href="#me57533de9e" x="146.95065" y="246.102545" style="fill: #ff7f0e; stroke: #ff7f0e"/>
     <use xlink:href="#me57533de9e" x="164.70052" y="239.261485" style="fill: #ff7f0e; stroke: #ff7f0e"/>
     <use xlink:href="#me57533de9e" x="182.450391" y="244.568784" style="fill: #ff7f0e; stroke: #ff7f0e"/>
     <use xlink:href="#me57533de9e" x="200.200262" y="239.50832" style="fill: #ff7f0e; stroke: #ff7f0e"/>
     <use xlink:href="#me57533de9e" x="217.950133" y="247.747045" style="fill: #ff7f0e; stroke: #ff7f0e"/>
     <use xlink:href="#me57533de9e" x="235.700004" y="241.093226" style="fill: #ff7f0e; stroke: #ff7f0e"/>
     <use xlink:href="#me57533de9e" x="253.449875" y="247.539422" style="fill: #ff7f0e; stroke: #ff7f0e"/>
     <use xlink:href="#me57533de9e" x="271.199746" y="242.14731" style="fill: #ff7f0e; stroke: #ff7f0e"/>
     <use xlink:href="#me57533de9e" x="288.949616" y="245.28202" style="fill: #ff7f0e; stroke: #ff7f0e"/>
     <use xlink:href="#me57533de9e" x="306.699487" y="248.914302" style="fill: #ff7f0e; stroke: #ff7f0e"/>
     <use xlink:href="#me57533de9e" x="324.449358" y="244.728064" style="fill: #ff7f0e; stroke: #ff7f0e"/>
     <use xlink:href="#me57533de9e" x="342.199229" y="249.45098" style="fill: #ff7f0e; stroke: #ff7f0e"/>
     <use xlink:href="#me57533de9e" x="359.9491" y="239.165431" style="fill: #ff7f0e; stroke: #ff7f0e"/>
     <use xlink:href="#me57533de9e" x="395.448842" y="244.109353" style="fill: #ff7f0e; stroke: #ff7f0e"/>
     <use xlink:href="#me57533de9e" x="413.198713" y="241.526717" style="fill: #ff7f0e; stroke: #ff7f0e"/>
     <use xlink:href="#me57533de9e" x="430.948583" y="244.443983" style="fill: #ff7f0e; stroke: #ff7f0e"/>
     <use xlink:href="#me57533de9e" x="448.698454" y="247.414482" style="fill: #ff7f0e; stroke: #ff7f0e"/>
     <use xlink:href="#me57533de9e" x="466.448325" y="239.866502" style="fill: #ff7f0e; stroke: #ff7f0e"/>
     <use xlink:href="#me57533de9e" x="484.198196" y="237.098844" style="fill: #ff7f0e; stroke: #ff7f0e"/>
     <use xlink:href="#me57533de9e" x="501.948067" y="237.606123" style="fill: #ff7f0e; stroke: #ff7f0e"/>
     <use xlink:href="#me57533de9e" x="519.697938" y="235.646113" style="fill: #ff7f0e; stroke: #ff7f0e"/>
     <use xlink:href="#me57533de9e" x="537.447809" y="280.614175" style="fill: #ff7f0e; stroke: #ff7f0e"/>
     <use xlink:href="#me57533de9e" x="555.197679" y="247.512733" style="fill: #ff7f0e; stroke: #ff7f0e"/>
     <use xlink:href="#me57533de9e" x="590.697421" y="279.756862" style="fill: #ff7f0e; stroke: #ff7f0e"/>
     <use xlink:href="#me57533de9e" x="608.447292" y="281.661443" style="fill: #ff7f0e; stroke: #ff7f0e"/>
     <use xlink:href="#me57533de9e" x="626.197163" y="280.709844" style="fill: #ff7f0e; stroke: #ff7f0e"/>
     <use xlink:href="#me57533de9e" x="643.947034" y="280.122753" style="fill: #ff7f0e; stroke: #ff7f0e"/>
     <use xlink:href="#me57533de9e" x="661.696905" y="279.068518" style="fill: #ff7f0e; stroke: #ff7f0e"/>
     <use xlink:href="#me57533de9e" x="679.446776" y="280.640628" style="fill: #ff7f0e; stroke: #ff7f0e"/>
    </g>
   </g>
   <g id="line2d_26">
    <path d="M 93.701037 414.551779 
L 111.450908 497.463966 
L 129.200779 414.97317 
L 146.95065 486.590358 
L 164.70052 488.58483 
L 182.450391 494.968464 
L 200.200262 431.17622 
L 217.950133 259.841298 
L 235.700004 504.165161 
L 253.449875 502.411088 
L 271.199746 448.322626 
L 288.949616 415.961606 
L 306.699487 472.805361 
L 342.199229 490.422322 
L 359.9491 432.542825 
L 395.448842 506.332202 
L 413.198713 259.267362 
L 430.948583 486.236577 
L 448.698454 481.772945 
L 466.448325 501.586919 
L 501.948067 503.321129 
L 519.697938 460.778799 
L 537.447809 459.561443 
L 555.197679 479.86882 
L 590.697421 480.855226 
L 608.447292 500.319467 
L 626.197163 505.890118 
L 643.947034 501.949525 
L 661.696905 487.90366 
L 679.446776 260.377715 
" clip-path="url(#pdf19342633)" style="fill: none; stroke: #2ca02c; stroke-width: 2; stroke-linecap: square"/>
    <defs>
     <path id="mcb99ae6c17" d="M 0 3 
C 0.795609 3 1.55874 2.683901 2.12132 2.12132 
C 2.683901 1.55874 3 0.795609 3 0 
C 3 -0.795609 2.683901 -1.55874 2.12132 -2.12132 
C 1.55874 -2.683901 0.795609 -3 0 -3 
C -0.795609 -3 -1.55874 -2.683901 -2.12132 -2.12132 
C -2.683901 -1.55874 -3 -0.795609 -3 0 
C -3 0.795609 -2.683901 1.55874 -2.12132 2.12132 
C -1.55874 2.683901 -0.795609 3 0 3 
z
" style="stroke: #2ca02c"/>
    </defs>
    <g clip-path="url(#pdf19342633)">
     <use xlink:href="#mcb99ae6c17" x="93.701037" y="414.551779" style="fill: #2ca02c; stroke: #2ca02c"/>
     <use xlink:href="#mcb99ae6c17" x="111.450908" y="497.463966" style="fill: #2ca02c; stroke: #2ca02c"/>
     <use xlink:href="#mcb99ae6c17" x="129.200779" y="414.97317" style="fill: #2ca02c; stroke: #2ca02c"/>
     <use xlink:href="#mcb99ae6c17" x="146.95065" y="486.590358" style="fill: #2ca02c; stroke: #2ca02c"/>
     <use xlink:href="#mcb99ae6c17" x="164.70052" y="488.58483" style="fill: #2ca02c; stroke: #2ca02c"/>
     <use xlink:href="#mcb99ae6c17" x="182.450391" y="494.968464" style="fill: #2ca02c; stroke: #2ca02c"/>
     <use xlink:href="#mcb99ae6c17" x="200.200262" y="431.17622" style="fill: #2ca02c; stroke: #2ca02c"/>
     <use xlink:href="#mcb99ae6c17" x="217.950133" y="259.841298" style="fill: #2ca02c; stroke: #2ca02c"/>
     <use xlink:href="#mcb99ae6c17" x="235.700004" y="504.165161" style="fill: #2ca02c; stroke: #2ca02c"/>
     <use xlink:href="#mcb99ae6c17" x="253.449875" y="502.411088" style="fill: #2ca02c; stroke: #2ca02c"/>
     <use xlink:href="#mcb99ae6c17" x="271.199746" y="448.322626" style="fill: #2ca02c; stroke: #2ca02c"/>
     <use xlink:href="#mcb99ae6c17" x="288.949616" y="415.961606" style="fill: #2ca02c; stroke: #2ca02c"/>
     <use xlink:href="#mcb99ae6c17" x="306.699487" y="472.805361" style="fill: #2ca02c; stroke: #2ca02c"/>
     <use xlink:href="#mcb99ae6c17" x="342.199229" y="490.422322" style="fill: #2ca02c; stroke: #2ca02c"/>
     <use xlink:href="#mcb99ae6c17" x="359.9491" y="432.542825" style="fill: #2ca02c; stroke: #2ca02c"/>
     <use xlink:href="#mcb99ae6c17" x="395.448842" y="506.332202" style="fill: #2ca02c; stroke: #2ca02c"/>
     <use xlink:href="#mcb99ae6c17" x="413.198713" y="259.267362" style="fill: #2ca02c; stroke: #2ca02c"/>
     <use xlink:href="#mcb99ae6c17" x="430.948583" y="486.236577" style="fill: #2ca02c; stroke: #2ca02c"/>
     <use xlink:href="#mcb99ae6c17" x="448.698454" y="481.772945" style="fill: #2ca02c; stroke: #2ca02c"/>
     <use xlink:href="#mcb99ae6c17" x="466.448325" y="501.586919" style="fill: #2ca02c; stroke: #2ca02c"/>
     <use xlink:href="#mcb99ae6c17" x="501.948067" y="503.321129" style="fill: #2ca02c; stroke: #2ca02c"/>
     <use xlink:href="#mcb99ae6c17" x="519.697938" y="460.778799" style="fill: #2ca02c; stroke: #2ca02c"/>
     <use xlink:href="#mcb99ae6c17" x="537.447809" y="459.561443" style="fill: #2ca02c; stroke: #2ca02c"/>
     <use xlink:href="#mcb99ae6c17" x="555.197679" y="479.86882" style="fill: #2ca02c; stroke: #2ca02c"/>
     <use xlink:href="#mcb99ae6c17" x="590.697421" y="480.855226" style="fill: #2ca02c; stroke: #2ca02c"/>
     <use xlink:href="#mcb99ae6c17" x="608.447292" y="500.319467" style="fill: #2ca02c; stroke: #2ca02c"/>
     <use xlink:href="#mcb99ae6c17" x="626.197163" y="505.890118" style="fill: #2ca02c; stroke: #2ca02c"/>
     <use xlink:href="#mcb99ae6c17" x="643.947034" y="501.949525" style="fill: #2ca02c; stroke: #2ca02c"/>
     <use xlink:href="#mcb99ae6c17" x="661.696905" y="487.90366" style="fill: #2ca02c; stroke: #2ca02c"/>
     <use xlink:href="#mcb99ae6c17" x="679.446776" y="260.377715" style="fill: #2ca02c; stroke: #2ca02c"/>
    </g>
   </g>
   <g id="line2d_27">
    <path d="M 93.701037 459.866222 
L 111.450908 455.143871 
L 129.200779 459.420607 
L 146.95065 457.27833 
L 164.70052 460.575215 
L 182.450391 466.993507 
L 200.200262 458.812133 
L 217.950133 457.180552 
L 235.700004 460.001714 
L 253.449875 457.742438 
L 271.199746 461.889521 
L 288.949616 465.712231 
L 306.699487 421.868996 
L 342.199229 457.412458 
L 359.9491 454.1049 
L 395.448842 488.92886 
L 413.198713 458.206217 
L 430.948583 456.170075 
L 448.698454 461.129246 
L 466.448325 463.233246 
L 501.948067 459.084593 
L 519.697938 457.457502 
L 537.447809 478.796034 
L 555.197679 480.720181 
L 590.697421 466.047993 
L 608.447292 478.470998 
L 626.197163 479.912321 
L 643.947034 480.445663 
L 661.696905 480.535415 
L 679.446776 481.301371 
" clip-path="url(#pdf19342633)" style="fill: none; stroke: #d62728; stroke-width: 2; stroke-linecap: square"/>
    <defs>
     <path id="me17a41f5d6" d="M 0 3 
C 0.795609 3 1.55874 2.683901 2.12132 2.12132 
C 2.683901 1.55874 3 0.795609 3 0 
C 3 -0.795609 2.683901 -1.55874 2.12132 -2.12132 
C 1.55874 -2.683901 0.795609 -3 0 -3 
C -0.795609 -3 -1.55874 -2.683901 -2.12132 -2.12132 
C -2.683901 -1.55874 -3 -0.795609 -3 0 
C -3 0.795609 -2.683901 1.55874 -2.12132 2.12132 
C -1.55874 2.683901 -0.795609 3 0 3 
z
" style="stroke: #d62728"/>
    </defs>
    <g clip-path="url(#pdf19342633)">
     <use xlink:href="#me17a41f5d6" x="93.701037" y="459.866222" style="fill: #d62728; stroke: #d62728"/>
     <use xlink:href="#me17a41f5d6" x="111.450908" y="455.143871" style="fill: #d62728; stroke: #d62728"/>
     <use xlink:href="#me17a41f5d6" x="129.200779" y="459.420607" style="fill: #d62728; stroke: #d62728"/>
     <use xlink:href="#me17a41f5d6" x="146.95065" y="457.27833" style="fill: #d62728; stroke: #d62728"/>
     <use xlink:href="#me17a41f5d6" x="164.70052" y="460.575215" style="fill: #d62728; stroke: #d62728"/>
     <use xlink:href="#me17a41f5d6" x="182.450391" y="466.993507" style="fill: #d62728; stroke: #d62728"/>
     <use xlink:href="#me17a41f5d6" x="200.200262" y="458.812133" style="fill: #d62728; stroke: #d62728"/>
     <use xlink:href="#me17a41f5d6" x="217.950133" y="457.180552" style="fill: #d62728; stroke: #d62728"/>
     <use xlink:href="#me17a41f5d6" x="235.700004" y="460.001714" style="fill: #d62728; stroke: #d62728"/>
     <use xlink:href="#me17a41f5d6" x="253.449875" y="457.742438" style="fill: #d62728; stroke: #d62728"/>
     <use xlink:href="#me17a41f5d6" x="271.199746" y="461.889521" style="fill: #d62728; stroke: #d62728"/>
     <use xlink:href="#me17a41f5d6" x="288.949616" y="465.712231" style="fill: #d62728; stroke: #d62728"/>
     <use xlink:href="#me17a41f5d6" x="306.699487" y="421.868996" style="fill: #d62728; stroke: #d62728"/>
     <use xlink:href="#me17a41f5d6" x="342.199229" y="457.412458" style="fill: #d62728; stroke: #d62728"/>
     <use xlink:href="#me17a41f5d6" x="359.9491" y="454.1049" style="fill: #d62728; stroke: #d62728"/>
     <use xlink:href="#me17a41f5d6" x="395.448842" y="488.92886" style="fill: #d62728; stroke: #d62728"/>
     <use xlink:href="#me17a41f5d6" x="413.198713" y="458.206217" style="fill: #d62728; stroke: #d62728"/>
     <use xlink:href="#me17a41f5d6" x="430.948583" y="456.170075" style="fill: #d62728; stroke: #d62728"/>
     <use xlink:href="#me17a41f5d6" x="448.698454" y="461.129246" style="fill: #d62728; stroke: #d62728"/>
     <use xlink:href="#me17a41f5d6" x="466.448325" y="463.233246" style="fill: #d62728; stroke: #d62728"/>
     <use xlink:href="#me17a41f5d6" x="501.948067" y="459.084593" style="fill: #d62728; stroke: #d62728"/>
     <use xlink:href="#me17a41f5d6" x="519.697938" y="457.457502" style="fill: #d62728; stroke: #d62728"/>
     <use xlink:href="#me17a41f5d6" x="537.447809" y="478.796034" style="fill: #d62728; stroke: #d62728"/>
     <use xlink:href="#me17a41f5d6" x="555.197679" y="480.720181" style="fill: #d62728; stroke: #d62728"/>
     <use xlink:href="#me17a41f5d6" x="590.697421" y="466.047993" style="fill: #d62728; stroke: #d62728"/>
     <use xlink:href="#me17a41f5d6" x="608.447292" y="478.470998" style="fill: #d62728; stroke: #d62728"/>
     <use xlink:href="#me17a41f5d6" x="626.197163" y="479.912321" style="fill: #d62728; stroke: #d62728"/>
     <use xlink:href="#me17a41f5d6" x="643.947034" y="480.445663" style="fill: #d62728; stroke: #d62728"/>
     <use xlink:href="#me17a41f5d6" x="661.696905" y="480.535415" style="fill: #d62728; stroke: #d62728"/>
     <use xlink:href="#me17a41f5d6" x="679.446776" y="481.301371" style="fill: #d62728; stroke: #d62728"/>
    </g>
   </g>
   <g id="patch_3">
    <path d="M 64.41375 529.308125 
L 64.41375 23.837813 
" style="fill: none; stroke: #000000; stroke-width: 0.8; stroke-linejoin: miter; stroke-linecap: square"/>
   </g>
   <g id="patch_4">
    <path d="M 708.734063 529.308125 
L 708.734063 23.837813 
" style="fill: none; stroke: #000000; stroke-width: 0.8; stroke-linejoin: miter; stroke-linecap: square"/>
   </g>
   <g id="patch_5">
    <path d="M 64.41375 529.308125 
L 708.734062 529.308125 
" style="fill: none; stroke: #000000; stroke-width: 0.8; stroke-linejoin: miter; stroke-linecap: square"/>
   </g>
   <g id="patch_6">
    <path d="M 64.41375 23.837812 
L 708.734062 23.837812 
" style="fill: none; stroke: #000000; stroke-width: 0.8; stroke-linejoin: miter; stroke-linecap: square"/>
   </g>
   <g id="text_14">
    <text style="font: 700 14px 'DejaVu Sans', 'Bitstream Vera Sans', 'Computer Modern Sans Serif', 'Lucida Grande', 'Verdana', 'Geneva', 'Lucid', 'Arial', 'Helvetica', 'Avant Garde', sans-serif; text-anchor: middle" x="386.573906" y="17.837813" transform="rotate(-0 386.573906 17.837813)">Nestedparallel - Performance Trend</text>
   </g>
   <g id="legend_1">
    <g id="patch_7">
     <path d="M 747.950078 90.550312 
L 846.336016 90.550312 
Q 848.336016 90.550312 848.336016 88.550312 
L 848.336016 30.837812 
Q 848.336016 28.837812 846.336016 28.837812 
L 747.950078 28.837812 
Q 745.950078 28.837812 745.950078 30.837812 
L 745.950078 88.550312 
Q 745.950078 90.550312 747.950078 90.550312 
z
" style="fill: #ffffff; opacity: 0.8; stroke: #cccccc; stroke-linejoin: miter"/>
    </g>
    <g id="line2d_28">
     <path d="M 749.950078 36.93625 
L 759.950078 36.93625 
L 769.950078 36.93625 
" style="fill: none; stroke: #1f77b4; stroke-width: 2; stroke-linecap: square"/>
     <g>
      <use xlink:href="#m91f75a5cf1" x="759.950078" y="36.93625" style="fill: #1f77b4; stroke: #1f77b4"/>
     </g>
    </g>
    <g id="text_15">
     <text style="font: 10px 'DejaVu Sans', 'Bitstream Vera Sans', 'Computer Modern Sans Serif', 'Lucida Grande', 'Verdana', 'Geneva', 'Lucid', 'Arial', 'Helvetica', 'Avant Garde', sans-serif; text-anchor: start" x="777.950078" y="40.43625" transform="rotate(-0 777.950078 40.43625)">gcc-14.2 - V1</text>
    </g>
    <g id="line2d_29">
     <path d="M 749.950078 51.614375 
L 759.950078 51.614375 
L 769.950078 51.614375 
" style="fill: none; stroke: #ff7f0e; stroke-width: 2; stroke-linecap: square"/>
     <g>
      <use xlink:href="#me57533de9e" x="759.950078" y="51.614375" style="fill: #ff7f0e; stroke: #ff7f0e"/>
     </g>
    </g>
    <g id="text_16">
     <text style="font: 10px 'DejaVu Sans', 'Bitstream Vera Sans', 'Computer Modern Sans Serif', 'Lucida Grande', 'Verdana', 'Geneva', 'Lucid', 'Arial', 'Helvetica', 'Avant Garde', sans-serif; text-anchor: start" x="777.950078" y="55.114375" transform="rotate(-0 777.950078 55.114375)">gcc-14.2 - V2</text>
    </g>
    <g id="line2d_30">
     <path d="M 749.950078 66.2925 
L 759.950078 66.2925 
L 769.950078 66.2925 
" style="fill: none; stroke: #2ca02c; stroke-width: 2; stroke-linecap: square"/>
     <g>
      <use xlink:href="#mcb99ae6c17" x="759.950078" y="66.2925" style="fill: #2ca02c; stroke: #2ca02c"/>
     </g>
    </g>
    <g id="text_17">
     <text style="font: 10px 'DejaVu Sans', 'Bitstream Vera Sans', 'Computer Modern Sans Serif', 'Lucida Grande', 'Verdana', 'Geneva', 'Lucid', 'Arial', 'Helvetica', 'Avant Garde', sans-serif; text-anchor: start" x="777.950078" y="69.7925" transform="rotate(-0 777.950078 69.7925)">gcc-4.2 - V1</text>
    </g>
    <g id="line2d_31">
     <path d="M 749.950078 80.970625 
L 759.950078 80.970625 
L 769.950078 80.970625 
" style="fill: none; stroke: #d62728; stroke-width: 2; stroke-linecap: square"/>
     <g>
      <use xlink:href="#me17a41f5d6" x="759.950078" y="80.970625" style="fill: #d62728; stroke: #d62728"/>
     </g>
    </g>
    <g id="text_18">
     <text style="font: 10px 'DejaVu Sans', 'Bitstream Vera Sans', 'Computer Modern Sans Serif', 'Lucida Grande', 'Verdana', 'Geneva', 'Lucid', 'Arial', 'Helvetica', 'Avant Garde', sans-serif; text-anchor: start" x="777.950078" y="84.470625" transform="rotate(-0 777.950078 84.470625)">gcc-4.2 - V2</text>
    </g>
   </g>
  </g>
 </g>
 <defs>
  <clipPath id="pdf19342633">
   <rect x="64.41375" y="23.837813" width="644.320312" height="505.470313"/>
  </clipPath>
 </defs>
</svg>
