<?xml version="1.0" encoding="utf-8" standalone="no"?>
<!DOCTYPE svg PUBLIC "-//W3C//DTD SVG 1.1//EN"
  "http://www.w3.org/Graphics/SVG/1.1/DTD/svg11.dtd">
<svg xmlns:xlink="http://www.w3.org/1999/xlink" width="847.676719pt" height="568.8pt" viewBox="0 0 847.676719 568.8" xmlns="http://www.w3.org/2000/svg" version="1.1">
 <metadata>
  <rdf:RDF xmlns:dc="http://purl.org/dc/elements/1.1/" xmlns:cc="http://creativecommons.org/ns#" xmlns:rdf="http://www.w3.org/1999/02/22-rdf-syntax-ns#">
   <cc:Work>
    <dc:type rdf:resource="http://purl.org/dc/dcmitype/StillImage"/>
    <dc:date>2025-08-22T21:54:11.052443</dc:date>
    <dc:format>image/svg+xml</dc:format>
    <dc:creator>
     <cc:Agent>
      <dc:title>Matplotlib v3.9.4, https://matplotlib.org/</dc:title>
     </cc:Agent>
    </dc:creator>
   </cc:Work>
  </rdf:RDF>
 </metadata>
 <defs>
  <style type="text/css">*{stroke-linejoin: round; stroke-linecap: butt}</style>
 </defs>
 <g id="figure_1">
  <g id="patch_1">
   <path d="M 0 568.8 
L 847.676719 568.8 
L 847.676719 0 
L 0 0 
z
" style="fill: #ffffff"/>
  </g>
  <g id="axes_1">
   <g id="patch_2">
    <path d="M 64.41375 529.308125 
L 551.548125 529.308125 
L 551.548125 23.837812 
L 64.41375 23.837812 
z
" style="fill: #ffffff"/>
   </g>
   <g id="matplotlib.axis_1">
    <g id="xtick_1">
     <g id="line2d_1">
      <path d="M 86.556222 529.308125 
L 86.556222 23.837812 
" clip-path="url(#p23002ffdb3)" style="fill: none; stroke: #b0b0b0; stroke-opacity: 0.3; stroke-width: 0.8; stroke-linecap: square"/>
     </g>
     <g id="line2d_2">
      <defs>
       <path id="me377fa42f7" d="M 0 0 
L 0 3.5 
" style="stroke: #000000; stroke-width: 0.8"/>
      </defs>
      <g>
       <use xlink:href="#me377fa42f7" x="86.556222" y="529.308125" style="stroke: #000000; stroke-width: 0.8"/>
      </g>
     </g>
     <g id="text_1">
      <text style="font: 10px 'DejaVu Sans', 'Bitstream Vera Sans', 'Computer Modern Sans Serif', 'Lucida Grande', 'Verdana', 'Geneva', 'Lucid', 'Arial', 'Helvetica', 'Avant Garde', sans-serif; text-anchor: middle" x="86.556222" y="543.906563" transform="rotate(-0 86.556222 543.906563)">96</text>
     </g>
    </g>
    <g id="xtick_2">
     <g id="line2d_3">
      <path d="M 149.820426 529.308125 
L 149.820426 23.837812 
" clip-path="url(#p23002ffdb3)" style="fill: none; stroke: #b0b0b0; stroke-opacity: 0.3; stroke-width: 0.8; stroke-linecap: square"/>
     </g>
     <g id="line2d_4">
      <g>
       <use xlink:href="#me377fa42f7" x="149.820426" y="529.308125" style="stroke: #000000; stroke-width: 0.8"/>
      </g>
     </g>
     <g id="text_2">
      <text style="font: 10px 'DejaVu Sans', 'Bitstream Vera Sans', 'Computer Modern Sans Serif', 'Lucida Grande', 'Verdana', 'Geneva', 'Lucid', 'Arial', 'Helvetica', 'Avant Garde', sans-serif; text-anchor: middle" x="149.820426" y="543.906563" transform="rotate(-0 149.820426 543.906563)">97</text>
     </g>
    </g>
    <g id="xtick_3">
     <g id="line2d_5">
      <path d="M 213.084631 529.308125 
L 213.084631 23.837812 
" clip-path="url(#p23002ffdb3)" style="fill: none; stroke: #b0b0b0; stroke-opacity: 0.3; stroke-width: 0.8; stroke-linecap: square"/>
     </g>
     <g id="line2d_6">
      <g>
       <use xlink:href="#me377fa42f7" x="213.084631" y="529.308125" style="stroke: #000000; stroke-width: 0.8"/>
      </g>
     </g>
     <g id="text_3">
      <text style="font: 10px 'DejaVu Sans', 'Bitstream Vera Sans', 'Computer Modern Sans Serif', 'Lucida Grande', 'Verdana', 'Geneva', 'Lucid', 'Arial', 'Helvetica', 'Avant Garde', sans-serif; text-anchor: middle" x="213.084631" y="543.906563" transform="rotate(-0 213.084631 543.906563)">98</text>
     </g>
    </g>
    <g id="xtick_4">
     <g id="line2d_7">
      <path d="M 276.348835 529.308125 
L 276.348835 23.837812 
" clip-path="url(#p23002ffdb3)" style="fill: none; stroke: #b0b0b0; stroke-opacity: 0.3; stroke-width: 0.8; stroke-linecap: square"/>
     </g>
     <g id="line2d_8">
      <g>
       <use xlink:href="#me377fa42f7" x="276.348835" y="529.308125" style="stroke: #000000; stroke-width: 0.8"/>
      </g>
     </g>
     <g id="text_4">
      <text style="font: 10px 'DejaVu Sans', 'Bitstream Vera Sans', 'Computer Modern Sans Serif', 'Lucida Grande', 'Verdana', 'Geneva', 'Lucid', 'Arial', 'Helvetica', 'Avant Garde', sans-serif; text-anchor: middle" x="276.348835" y="543.906563" transform="rotate(-0 276.348835 543.906563)">99</text>
     </g>
    </g>
    <g id="xtick_5">
     <g id="line2d_9">
      <path d="M 339.61304 529.308125 
L 339.61304 23.837812 
" clip-path="url(#p23002ffdb3)" style="fill: none; stroke: #b0b0b0; stroke-opacity: 0.3; stroke-width: 0.8; stroke-linecap: square"/>
     </g>
     <g id="line2d_10">
      <g>
       <use xlink:href="#me377fa42f7" x="339.61304" y="529.308125" style="stroke: #000000; stroke-width: 0.8"/>
      </g>
     </g>
     <g id="text_5">
      <text style="font: 10px 'DejaVu Sans', 'Bitstream Vera Sans', 'Computer Modern Sans Serif', 'Lucida Grande', 'Verdana', 'Geneva', 'Lucid', 'Arial', 'Helvetica', 'Avant Garde', sans-serif; text-anchor: middle" x="339.61304" y="543.906563" transform="rotate(-0 339.61304 543.906563)">100</text>
     </g>
    </g>
    <g id="xtick_6">
     <g id="line2d_11">
      <path d="M 402.877244 529.308125 
L 402.877244 23.837812 
" clip-path="url(#p23002ffdb3)" style="fill: none; stroke: #b0b0b0; stroke-opacity: 0.3; stroke-width: 0.8; stroke-linecap: square"/>
     </g>
     <g id="line2d_12">
      <g>
       <use xlink:href="#me377fa42f7" x="402.877244" y="529.308125" style="stroke: #000000; stroke-width: 0.8"/>
      </g>
     </g>
     <g id="text_6">
      <text style="font: 10px 'DejaVu Sans', 'Bitstream Vera Sans', 'Computer Modern Sans Serif', 'Lucida Grande', 'Verdana', 'Geneva', 'Lucid', 'Arial', 'Helvetica', 'Avant Garde', sans-serif; text-anchor: middle" x="402.877244" y="543.906563" transform="rotate(-0 402.877244 543.906563)">101</text>
     </g>
    </g>
    <g id="xtick_7">
     <g id="line2d_13">
      <path d="M 466.141449 529.308125 
L 466.141449 23.837812 
" clip-path="url(#p23002ffdb3)" style="fill: none; stroke: #b0b0b0; stroke-opacity: 0.3; stroke-width: 0.8; stroke-linecap: square"/>
     </g>
     <g id="line2d_14">
      <g>
       <use xlink:href="#me377fa42f7" x="466.141449" y="529.308125" style="stroke: #000000; stroke-width: 0.8"/>
      </g>
     </g>
     <g id="text_7">
      <text style="font: 10px 'DejaVu Sans', 'Bitstream Vera Sans', 'Computer Modern Sans Serif', 'Lucida Grande', 'Verdana', 'Geneva', 'Lucid', 'Arial', 'Helvetica', 'Avant Garde', sans-serif; text-anchor: middle" x="466.141449" y="543.906563" transform="rotate(-0 466.141449 543.906563)">102</text>
     </g>
    </g>
    <g id="xtick_8">
     <g id="line2d_15">
      <path d="M 529.405653 529.308125 
L 529.405653 23.837812 
" clip-path="url(#p23002ffdb3)" style="fill: none; stroke: #b0b0b0; stroke-opacity: 0.3; stroke-width: 0.8; stroke-linecap: square"/>
     </g>
     <g id="line2d_16">
      <g>
       <use xlink:href="#me377fa42f7" x="529.405653" y="529.308125" style="stroke: #000000; stroke-width: 0.8"/>
      </g>
     </g>
     <g id="text_8">
      <text style="font: 10px 'DejaVu Sans', 'Bitstream Vera Sans', 'Computer Modern Sans Serif', 'Lucida Grande', 'Verdana', 'Geneva', 'Lucid', 'Arial', 'Helvetica', 'Avant Garde', sans-serif; text-anchor: middle" x="529.405653" y="543.906563" transform="rotate(-0 529.405653 543.906563)">103</text>
     </g>
    </g>
    <g id="text_9">
     <text style="font: 12px 'DejaVu Sans', 'Bitstream Vera Sans', 'Computer Modern Sans Serif', 'Lucida Grande', 'Verdana', 'Geneva', 'Lucid', 'Arial', 'Helvetica', 'Avant Garde', sans-serif; text-anchor: middle" x="307.980938" y="559.104375" transform="rotate(-0 307.980938 559.104375)">Build Number</text>
    </g>
   </g>
   <g id="matplotlib.axis_2">
    <g id="ytick_1">
     <g id="line2d_17">
      <path d="M 64.41375 47.46532 
L 551.548125 47.46532 
" clip-path="url(#p23002ffdb3)" style="fill: none; stroke: #b0b0b0; stroke-opacity: 0.3; stroke-width: 0.8; stroke-linecap: square"/>
     </g>
     <g id="line2d_18">
      <defs>
       <path id="m4850f54b7c" d="M 0 0 
L -3.5 0 
" style="stroke: #000000; stroke-width: 0.8"/>
      </defs>
      <g>
       <use xlink:href="#m4850f54b7c" x="64.41375" y="47.46532" style="stroke: #000000; stroke-width: 0.8"/>
      </g>
     </g>
     <g id="text_10">
      <!-- $\mathdefault{10^{8}}$ -->
      <g transform="translate(39.81375 51.264539)">
       <text>
        <tspan style="font: 10px 'DejaVu Sans'" x="0 6.362305" y="-0.9765625">10</tspan>
        <tspan style="font: 7px 'DejaVu Sans'" x="12.820312" y="-4.8046875">8</tspan>
       </text>
      </g>
     </g>
    </g>
    <g id="ytick_2">
     <g id="line2d_19">
      <defs>
       <path id="mde6231330c" d="M 0 0 
L -2 0 
" style="stroke: #000000; stroke-width: 0.6"/>
      </defs>
      <g>
       <use xlink:href="#mde6231330c" x="64.41375" y="518.447842" style="stroke: #000000; stroke-width: 0.6"/>
      </g>
     </g>
     <g id="text_11">
      <!-- $\mathdefault{4\times10^{7}}$ -->
      <g transform="translate(22.81375 522.247061)">
       <text>
        <tspan style="font: 10px 'DejaVu Sans'" x="0 8.310547 18.637695 25" y="-0.06406250000000036">4×10</tspan>
        <tspan style="font: 7px 'DejaVu Sans'" x="31.458008" y="-3.8921875000000004">7</tspan>
       </text>
      </g>
     </g>
    </g>
    <g id="ytick_3">
     <g id="line2d_20">
      <g>
       <use xlink:href="#mde6231330c" x="64.41375" y="403.749844" style="stroke: #000000; stroke-width: 0.6"/>
      </g>
     </g>
    </g>
    <g id="ytick_4">
     <g id="line2d_21">
      <g>
       <use xlink:href="#mde6231330c" x="64.41375" y="310.034756" style="stroke: #000000; stroke-width: 0.6"/>
      </g>
     </g>
     <g id="text_12">
      <!-- $\mathdefault{6\times10^{7}}$ -->
      <g transform="translate(22.81375 313.833975)">
       <text>
        <tspan style="font: 10px 'DejaVu Sans'" x="0 8.310547 18.637695 25" y="-0.06406250000000036">6×10</tspan>
        <tspan style="font: 7px 'DejaVu Sans'" x="31.458008" y="-3.8921875000000004">7</tspan>
       </text>
      </g>
     </g>
    </g>
    <g id="ytick_5">
     <g id="line2d_22">
      <g>
       <use xlink:href="#mde6231330c" x="64.41375" y="230.799778" style="stroke: #000000; stroke-width: 0.6"/>
      </g>
     </g>
    </g>
    <g id="ytick_6">
     <g id="line2d_23">
      <g>
       <use xlink:href="#mde6231330c" x="64.41375" y="162.163318" style="stroke: #000000; stroke-width: 0.6"/>
      </g>
     </g>
    </g>
    <g id="ytick_7">
     <g id="line2d_24">
      <g>
       <use xlink:href="#mde6231330c" x="64.41375" y="101.62167" style="stroke: #000000; stroke-width: 0.6"/>
      </g>
     </g>
    </g>
    <g id="text_13">
     <text style="font: 12px 'DejaVu Sans', 'Bitstream Vera Sans', 'Computer Modern Sans Serif', 'Lucida Grande', 'Verdana', 'Geneva', 'Lucid', 'Arial', 'Helvetica', 'Avant Garde', sans-serif; text-anchor: middle" x="16.318125" y="276.572969" transform="rotate(-90 16.318125 276.572969)">Median Elapsed Time (nanoseconds)</text>
    </g>
   </g>
   <g id="line2d_25">
    <path d="M 86.556222 47.045419 
L 149.820426 47.041076 
L 276.348835 47.080004 
L 339.61304 47.027793 
L 402.877244 47.091446 
L 466.141449 47.086463 
L 529.405653 47.051649 
" clip-path="url(#p23002ffdb3)" style="fill: none; stroke: #1f77b4; stroke-width: 2; stroke-linecap: square"/>
    <defs>
     <path id="m9df8e68b4f" d="M 0 3 
C 0.795609 3 1.55874 2.683901 2.12132 2.12132 
C 2.683901 1.55874 3 0.795609 3 0 
C 3 -0.795609 2.683901 -1.55874 2.12132 -2.12132 
C 1.55874 -2.683901 0.795609 -3 0 -3 
C -0.795609 -3 -1.55874 -2.683901 -2.12132 -2.12132 
C -2.683901 -1.55874 -3 -0.795609 -3 0 
C -3 0.795609 -2.683901 1.55874 -2.12132 2.12132 
C -1.55874 2.683901 -0.795609 3 0 3 
z
" style="stroke: #1f77b4"/>
    </defs>
    <g clip-path="url(#p23002ffdb3)">
     <use xlink:href="#m9df8e68b4f" x="86.556222" y="47.045419" style="fill: #1f77b4; stroke: #1f77b4"/>
     <use xlink:href="#m9df8e68b4f" x="149.820426" y="47.041076" style="fill: #1f77b4; stroke: #1f77b4"/>
     <use xlink:href="#m9df8e68b4f" x="276.348835" y="47.080004" style="fill: #1f77b4; stroke: #1f77b4"/>
     <use xlink:href="#m9df8e68b4f" x="339.61304" y="47.027793" style="fill: #1f77b4; stroke: #1f77b4"/>
     <use xlink:href="#m9df8e68b4f" x="402.877244" y="47.091446" style="fill: #1f77b4; stroke: #1f77b4"/>
     <use xlink:href="#m9df8e68b4f" x="466.141449" y="47.086463" style="fill: #1f77b4; stroke: #1f77b4"/>
     <use xlink:href="#m9df8e68b4f" x="529.405653" y="47.051649" style="fill: #1f77b4; stroke: #1f77b4"/>
    </g>
   </g>
   <g id="line2d_26">
    <path d="M 86.556222 504.89379 
L 149.820426 503.607486 
L 276.348835 506.332202 
L 339.61304 505.084141 
L 402.877244 505.472802 
L 466.141449 504.794673 
L 529.405653 504.16112 
" clip-path="url(#p23002ffdb3)" style="fill: none; stroke: #ff7f0e; stroke-width: 2; stroke-linecap: square"/>
    <defs>
     <path id="m4aaf13a6fc" d="M 0 3 
C 0.795609 3 1.55874 2.683901 2.12132 2.12132 
C 2.683901 1.55874 3 0.795609 3 0 
C 3 -0.795609 2.683901 -1.55874 2.12132 -2.12132 
C 1.55874 -2.683901 0.795609 -3 0 -3 
C -0.795609 -3 -1.55874 -2.683901 -2.12132 -2.12132 
C -2.683901 -1.55874 -3 -0.795609 -3 0 
C -3 0.795609 -2.683901 1.55874 -2.12132 2.12132 
C -1.55874 2.683901 -0.795609 3 0 3 
z
" style="stroke: #ff7f0e"/>
    </defs>
    <g clip-path="url(#p23002ffdb3)">
     <use xlink:href="#m4aaf13a6fc" x="86.556222" y="504.89379" style="fill: #ff7f0e; stroke: #ff7f0e"/>
     <use xlink:href="#m4aaf13a6fc" x="149.820426" y="503.607486" style="fill: #ff7f0e; stroke: #ff7f0e"/>
     <use xlink:href="#m4aaf13a6fc" x="276.348835" y="506.332202" style="fill: #ff7f0e; stroke: #ff7f0e"/>
     <use xlink:href="#m4aaf13a6fc" x="339.61304" y="505.084141" style="fill: #ff7f0e; stroke: #ff7f0e"/>
     <use xlink:href="#m4aaf13a6fc" x="402.877244" y="505.472802" style="fill: #ff7f0e; stroke: #ff7f0e"/>
     <use xlink:href="#m4aaf13a6fc" x="466.141449" y="504.794673" style="fill: #ff7f0e; stroke: #ff7f0e"/>
     <use xlink:href="#m4aaf13a6fc" x="529.405653" y="504.16112" style="fill: #ff7f0e; stroke: #ff7f0e"/>
    </g>
   </g>
   <g id="line2d_27">
    <path d="M 86.556222 46.933395 
L 149.820426 46.935546 
L 276.348835 47.002323 
L 339.61304 46.938538 
L 402.877244 47.007851 
L 466.141449 47.000212 
L 529.405653 46.973753 
" clip-path="url(#p23002ffdb3)" style="fill: none; stroke: #2ca02c; stroke-width: 2; stroke-linecap: square"/>
    <defs>
     <path id="m05ed962921" d="M 0 3 
C 0.795609 3 1.55874 2.683901 2.12132 2.12132 
C 2.683901 1.55874 3 0.795609 3 0 
C 3 -0.795609 2.683901 -1.55874 2.12132 -2.12132 
C 1.55874 -2.683901 0.795609 -3 0 -3 
C -0.795609 -3 -1.55874 -2.683901 -2.12132 -2.12132 
C -2.683901 -1.55874 -3 -0.795609 -3 0 
C -3 0.795609 -2.683901 1.55874 -2.12132 2.12132 
C -1.55874 2.683901 -0.795609 3 0 3 
z
" style="stroke: #2ca02c"/>
    </defs>
    <g clip-path="url(#p23002ffdb3)">
     <use xlink:href="#m05ed962921" x="86.556222" y="46.933395" style="fill: #2ca02c; stroke: #2ca02c"/>
     <use xlink:href="#m05ed962921" x="149.820426" y="46.935546" style="fill: #2ca02c; stroke: #2ca02c"/>
     <use xlink:href="#m05ed962921" x="276.348835" y="47.002323" style="fill: #2ca02c; stroke: #2ca02c"/>
     <use xlink:href="#m05ed962921" x="339.61304" y="46.938538" style="fill: #2ca02c; stroke: #2ca02c"/>
     <use xlink:href="#m05ed962921" x="402.877244" y="47.007851" style="fill: #2ca02c; stroke: #2ca02c"/>
     <use xlink:href="#m05ed962921" x="466.141449" y="47.000212" style="fill: #2ca02c; stroke: #2ca02c"/>
     <use xlink:href="#m05ed962921" x="529.405653" y="46.973753" style="fill: #2ca02c; stroke: #2ca02c"/>
    </g>
   </g>
   <g id="line2d_28">
    <path d="M 86.556222 504.124409 
L 149.820426 504.547281 
L 276.348835 504.931253 
L 339.61304 503.829879 
L 402.877244 505.502805 
L 466.141449 505.584703 
L 529.405653 504.605412 
" clip-path="url(#p23002ffdb3)" style="fill: none; stroke: #d62728; stroke-width: 2; stroke-linecap: square"/>
    <defs>
     <path id="mfb694c3a10" d="M 0 3 
C 0.795609 3 1.55874 2.683901 2.12132 2.12132 
C 2.683901 1.55874 3 0.795609 3 0 
C 3 -0.795609 2.683901 -1.55874 2.12132 -2.12132 
C 1.55874 -2.683901 0.795609 -3 0 -3 
C -0.795609 -3 -1.55874 -2.683901 -2.12132 -2.12132 
C -2.683901 -1.55874 -3 -0.795609 -3 0 
C -3 0.795609 -2.683901 1.55874 -2.12132 2.12132 
C -1.55874 2.683901 -0.795609 3 0 3 
z
" style="stroke: #d62728"/>
    </defs>
    <g clip-path="url(#p23002ffdb3)">
     <use xlink:href="#mfb694c3a10" x="86.556222" y="504.124409" style="fill: #d62728; stroke: #d62728"/>
     <use xlink:href="#mfb694c3a10" x="149.820426" y="504.547281" style="fill: #d62728; stroke: #d62728"/>
     <use xlink:href="#mfb694c3a10" x="276.348835" y="504.931253" style="fill: #d62728; stroke: #d62728"/>
     <use xlink:href="#mfb694c3a10" x="339.61304" y="503.829879" style="fill: #d62728; stroke: #d62728"/>
     <use xlink:href="#mfb694c3a10" x="402.877244" y="505.502805" style="fill: #d62728; stroke: #d62728"/>
     <use xlink:href="#mfb694c3a10" x="466.141449" y="505.584703" style="fill: #d62728; stroke: #d62728"/>
     <use xlink:href="#mfb694c3a10" x="529.405653" y="504.605412" style="fill: #d62728; stroke: #d62728"/>
    </g>
   </g>
   <g id="line2d_29">
    <path d="M 86.556222 47.058206 
L 149.820426 47.073436 
L 276.348835 47.077584 
L 339.61304 47.050986 
L 402.877244 47.093062 
L 466.141449 47.102646 
L 529.405653 47.095319 
" clip-path="url(#p23002ffdb3)" style="fill: none; stroke: #9467bd; stroke-width: 2; stroke-linecap: square"/>
    <defs>
     <path id="m84244037f8" d="M 0 3 
C 0.795609 3 1.55874 2.683901 2.12132 2.12132 
C 2.683901 1.55874 3 0.795609 3 0 
C 3 -0.795609 2.683901 -1.55874 2.12132 -2.12132 
C 1.55874 -2.683901 0.795609 -3 0 -3 
C -0.795609 -3 -1.55874 -2.683901 -2.12132 -2.12132 
C -2.683901 -1.55874 -3 -0.795609 -3 0 
C -3 0.795609 -2.683901 1.55874 -2.12132 2.12132 
C -1.55874 2.683901 -0.795609 3 0 3 
z
" style="stroke: #9467bd"/>
    </defs>
    <g clip-path="url(#p23002ffdb3)">
     <use xlink:href="#m84244037f8" x="86.556222" y="47.058206" style="fill: #9467bd; stroke: #9467bd"/>
     <use xlink:href="#m84244037f8" x="149.820426" y="47.073436" style="fill: #9467bd; stroke: #9467bd"/>
     <use xlink:href="#m84244037f8" x="276.348835" y="47.077584" style="fill: #9467bd; stroke: #9467bd"/>
     <use xlink:href="#m84244037f8" x="339.61304" y="47.050986" style="fill: #9467bd; stroke: #9467bd"/>
     <use xlink:href="#m84244037f8" x="402.877244" y="47.093062" style="fill: #9467bd; stroke: #9467bd"/>
     <use xlink:href="#m84244037f8" x="466.141449" y="47.102646" style="fill: #9467bd; stroke: #9467bd"/>
     <use xlink:href="#m84244037f8" x="529.405653" y="47.095319" style="fill: #9467bd; stroke: #9467bd"/>
    </g>
   </g>
   <g id="line2d_30">
    <path d="M 86.556222 423.351373 
L 149.820426 423.188249 
L 276.348835 423.776519 
L 339.61304 424.294215 
L 402.877244 423.685715 
L 466.141449 423.832076 
L 529.405653 423.624349 
" clip-path="url(#p23002ffdb3)" style="fill: none; stroke: #8c564b; stroke-width: 2; stroke-linecap: square"/>
    <defs>
     <path id="m94bed27cf5" d="M 0 3 
C 0.795609 3 1.55874 2.683901 2.12132 2.12132 
C 2.683901 1.55874 3 0.795609 3 0 
C 3 -0.795609 2.683901 -1.55874 2.12132 -2.12132 
C 1.55874 -2.683901 0.795609 -3 0 -3 
C -0.795609 -3 -1.55874 -2.683901 -2.12132 -2.12132 
C -2.683901 -1.55874 -3 -0.795609 -3 0 
C -3 0.795609 -2.683901 1.55874 -2.12132 2.12132 
C -1.55874 2.683901 -0.795609 3 0 3 
z
" style="stroke: #8c564b"/>
    </defs>
    <g clip-path="url(#p23002ffdb3)">
     <use xlink:href="#m94bed27cf5" x="86.556222" y="423.351373" style="fill: #8c564b; stroke: #8c564b"/>
     <use xlink:href="#m94bed27cf5" x="149.820426" y="423.188249" style="fill: #8c564b; stroke: #8c564b"/>
     <use xlink:href="#m94bed27cf5" x="276.348835" y="423.776519" style="fill: #8c564b; stroke: #8c564b"/>
     <use xlink:href="#m94bed27cf5" x="339.61304" y="424.294215" style="fill: #8c564b; stroke: #8c564b"/>
     <use xlink:href="#m94bed27cf5" x="402.877244" y="423.685715" style="fill: #8c564b; stroke: #8c564b"/>
     <use xlink:href="#m94bed27cf5" x="466.141449" y="423.832076" style="fill: #8c564b; stroke: #8c564b"/>
     <use xlink:href="#m94bed27cf5" x="529.405653" y="423.624349" style="fill: #8c564b; stroke: #8c564b"/>
    </g>
   </g>
   <g id="line2d_31">
    <path d="M 86.556222 46.96239 
L 149.820426 46.992283 
L 276.348835 46.999001 
L 339.61304 46.813736 
L 402.877244 47.000552 
L 466.141449 47.007251 
L 529.405653 46.996215 
" clip-path="url(#p23002ffdb3)" style="fill: none; stroke: #e377c2; stroke-width: 2; stroke-linecap: square"/>
    <defs>
     <path id="m3905c2d395" d="M 0 3 
C 0.795609 3 1.55874 2.683901 2.12132 2.12132 
C 2.683901 1.55874 3 0.795609 3 0 
C 3 -0.795609 2.683901 -1.55874 2.12132 -2.12132 
C 1.55874 -2.683901 0.795609 -3 0 -3 
C -0.795609 -3 -1.55874 -2.683901 -2.12132 -2.12132 
C -2.683901 -1.55874 -3 -0.795609 -3 0 
C -3 0.795609 -2.683901 1.55874 -2.12132 2.12132 
C -1.55874 2.683901 -0.795609 3 0 3 
z
" style="stroke: #e377c2"/>
    </defs>
    <g clip-path="url(#p23002ffdb3)">
     <use xlink:href="#m3905c2d395" x="86.556222" y="46.96239" style="fill: #e377c2; stroke: #e377c2"/>
     <use xlink:href="#m3905c2d395" x="149.820426" y="46.992283" style="fill: #e377c2; stroke: #e377c2"/>
     <use xlink:href="#m3905c2d395" x="276.348835" y="46.999001" style="fill: #e377c2; stroke: #e377c2"/>
     <use xlink:href="#m3905c2d395" x="339.61304" y="46.813736" style="fill: #e377c2; stroke: #e377c2"/>
     <use xlink:href="#m3905c2d395" x="402.877244" y="47.000552" style="fill: #e377c2; stroke: #e377c2"/>
     <use xlink:href="#m3905c2d395" x="466.141449" y="47.007251" style="fill: #e377c2; stroke: #e377c2"/>
     <use xlink:href="#m3905c2d395" x="529.405653" y="46.996215" style="fill: #e377c2; stroke: #e377c2"/>
    </g>
   </g>
   <g id="line2d_32">
    <path d="M 86.556222 423.584551 
L 149.820426 424.032078 
L 276.348835 423.288595 
L 339.61304 423.495664 
L 402.877244 423.826623 
L 466.141449 423.778058 
L 529.405653 422.614645 
" clip-path="url(#p23002ffdb3)" style="fill: none; stroke: #7f7f7f; stroke-width: 2; stroke-linecap: square"/>
    <defs>
     <path id="mb2ef54ba84" d="M 0 3 
C 0.795609 3 1.55874 2.683901 2.12132 2.12132 
C 2.683901 1.55874 3 0.795609 3 0 
C 3 -0.795609 2.683901 -1.55874 2.12132 -2.12132 
C 1.55874 -2.683901 0.795609 -3 0 -3 
C -0.795609 -3 -1.55874 -2.683901 -2.12132 -2.12132 
C -2.683901 -1.55874 -3 -0.795609 -3 0 
C -3 0.795609 -2.683901 1.55874 -2.12132 2.12132 
C -1.55874 2.683901 -0.795609 3 0 3 
z
" style="stroke: #7f7f7f"/>
    </defs>
    <g clip-path="url(#p23002ffdb3)">
     <use xlink:href="#mb2ef54ba84" x="86.556222" y="423.584551" style="fill: #7f7f7f; stroke: #7f7f7f"/>
     <use xlink:href="#mb2ef54ba84" x="149.820426" y="424.032078" style="fill: #7f7f7f; stroke: #7f7f7f"/>
     <use xlink:href="#mb2ef54ba84" x="276.348835" y="423.288595" style="fill: #7f7f7f; stroke: #7f7f7f"/>
     <use xlink:href="#mb2ef54ba84" x="339.61304" y="423.495664" style="fill: #7f7f7f; stroke: #7f7f7f"/>
     <use xlink:href="#mb2ef54ba84" x="402.877244" y="423.826623" style="fill: #7f7f7f; stroke: #7f7f7f"/>
     <use xlink:href="#mb2ef54ba84" x="466.141449" y="423.778058" style="fill: #7f7f7f; stroke: #7f7f7f"/>
     <use xlink:href="#mb2ef54ba84" x="529.405653" y="422.614645" style="fill: #7f7f7f; stroke: #7f7f7f"/>
    </g>
   </g>
   <g id="patch_3">
    <path d="M 64.41375 529.308125 
L 64.41375 23.837812 
" style="fill: none; stroke: #000000; stroke-width: 0.8; stroke-linejoin: miter; stroke-linecap: square"/>
   </g>
   <g id="patch_4">
    <path d="M 551.548125 529.308125 
L 551.548125 23.837812 
" style="fill: none; stroke: #000000; stroke-width: 0.8; stroke-linejoin: miter; stroke-linecap: square"/>
   </g>
   <g id="patch_5">
    <path d="M 64.41375 529.308125 
L 551.548125 529.308125 
" style="fill: none; stroke: #000000; stroke-width: 0.8; stroke-linejoin: miter; stroke-linecap: square"/>
   </g>
   <g id="patch_6">
    <path d="M 64.41375 23.837812 
L 551.548125 23.837812 
" style="fill: none; stroke: #000000; stroke-width: 0.8; stroke-linejoin: miter; stroke-linecap: square"/>
   </g>
   <g id="text_14">
    <text style="font: 700 14px 'DejaVu Sans', 'Bitstream Vera Sans', 'Computer Modern Sans Serif', 'Lucida Grande', 'Verdana', 'Geneva', 'Lucid', 'Arial', 'Helvetica', 'Avant Garde', sans-serif; text-anchor: middle" x="307.980938" y="17.837813" transform="rotate(-0 307.980938 17.837813)">Coroutine Parallel Compute - Performance Trend</text>
   </g>
   <g id="legend_1">
    <g id="patch_7">
     <path d="M 582.904844 151.487813 
L 838.476719 151.487813 
Q 840.476719 151.487813 840.476719 149.487813 
L 840.476719 30.837813 
Q 840.476719 28.837813 838.476719 28.837813 
L 582.904844 28.837813 
Q 580.904844 28.837813 580.904844 30.837813 
L 580.904844 149.487813 
Q 580.904844 151.487813 582.904844 151.487813 
z
" style="fill: #ffffff; opacity: 0.8; stroke: #cccccc; stroke-linejoin: miter"/>
    </g>
    <g id="line2d_33">
     <path d="M 584.904844 36.93625 
L 594.904844 36.93625 
L 604.904844 36.93625 
" style="fill: none; stroke: #1f77b4; stroke-width: 2; stroke-linecap: square"/>
     <g>
      <use xlink:href="#m9df8e68b4f" x="594.904844" y="36.93625" style="fill: #1f77b4; stroke: #1f77b4"/>
     </g>
    </g>
    <g id="text_15">
     <text style="font: 10px 'DejaVu Sans', 'Bitstream Vera Sans', 'Computer Modern Sans Serif', 'Lucida Grande', 'Verdana', 'Geneva', 'Lucid', 'Arial', 'Helvetica', 'Avant Garde', sans-serif; text-anchor: start" x="612.904844" y="40.43625" transform="rotate(-0 612.904844 40.43625)">gcc-14.2 - ParallelCompute_Coroutines_V1</text>
    </g>
    <g id="line2d_34">
     <path d="M 584.904844 51.8925 
L 594.904844 51.8925 
L 604.904844 51.8925 
" style="fill: none; stroke: #ff7f0e; stroke-width: 2; stroke-linecap: square"/>
     <g>
      <use xlink:href="#m4aaf13a6fc" x="594.904844" y="51.8925" style="fill: #ff7f0e; stroke: #ff7f0e"/>
     </g>
    </g>
    <g id="text_16">
     <text style="font: 10px 'DejaVu Sans', 'Bitstream Vera Sans', 'Computer Modern Sans Serif', 'Lucida Grande', 'Verdana', 'Geneva', 'Lucid', 'Arial', 'Helvetica', 'Avant Garde', sans-serif; text-anchor: start" x="612.904844" y="55.3925" transform="rotate(-0 612.904844 55.3925)">gcc-14.2 - ParallelCompute_RegularTasks_V1</text>
    </g>
    <g id="line2d_35">
     <path d="M 584.904844 66.84875 
L 594.904844 66.84875 
L 604.904844 66.84875 
" style="fill: none; stroke: #2ca02c; stroke-width: 2; stroke-linecap: square"/>
     <g>
      <use xlink:href="#m05ed962921" x="594.904844" y="66.84875" style="fill: #2ca02c; stroke: #2ca02c"/>
     </g>
    </g>
    <g id="text_17">
     <text style="font: 10px 'DejaVu Sans', 'Bitstream Vera Sans', 'Computer Modern Sans Serif', 'Lucida Grande', 'Verdana', 'Geneva', 'Lucid', 'Arial', 'Helvetica', 'Avant Garde', sans-serif; text-anchor: start" x="612.904844" y="70.34875" transform="rotate(-0 612.904844 70.34875)">gcc-14.2 - ParallelCompute_Coroutines_V2</text>
    </g>
    <g id="line2d_36">
     <path d="M 584.904844 81.805 
L 594.904844 81.805 
L 604.904844 81.805 
" style="fill: none; stroke: #d62728; stroke-width: 2; stroke-linecap: square"/>
     <g>
      <use xlink:href="#mfb694c3a10" x="594.904844" y="81.805" style="fill: #d62728; stroke: #d62728"/>
     </g>
    </g>
    <g id="text_18">
     <text style="font: 10px 'DejaVu Sans', 'Bitstream Vera Sans', 'Computer Modern Sans Serif', 'Lucida Grande', 'Verdana', 'Geneva', 'Lucid', 'Arial', 'Helvetica', 'Avant Garde', sans-serif; text-anchor: start" x="612.904844" y="85.305" transform="rotate(-0 612.904844 85.305)">gcc-14.2 - ParallelCompute_RegularTasks_V2</text>
    </g>
    <g id="line2d_37">
     <path d="M 584.904844 96.76125 
L 594.904844 96.76125 
L 604.904844 96.76125 
" style="fill: none; stroke: #9467bd; stroke-width: 2; stroke-linecap: square"/>
     <g>
      <use xlink:href="#m84244037f8" x="594.904844" y="96.76125" style="fill: #9467bd; stroke: #9467bd"/>
     </g>
    </g>
    <g id="text_19">
     <text style="font: 10px 'DejaVu Sans', 'Bitstream Vera Sans', 'Computer Modern Sans Serif', 'Lucida Grande', 'Verdana', 'Geneva', 'Lucid', 'Arial', 'Helvetica', 'Avant Garde', sans-serif; text-anchor: start" x="612.904844" y="100.26125" transform="rotate(-0 612.904844 100.26125)">gcc-4.2 - ParallelCompute_Coroutines_V1</text>
    </g>
    <g id="line2d_38">
     <path d="M 584.904844 111.7175 
L 594.904844 111.7175 
L 604.904844 111.7175 
" style="fill: none; stroke: #8c564b; stroke-width: 2; stroke-linecap: square"/>
     <g>
      <use xlink:href="#m94bed27cf5" x="594.904844" y="111.7175" style="fill: #8c564b; stroke: #8c564b"/>
     </g>
    </g>
    <g id="text_20">
     <text style="font: 10px 'DejaVu Sans', 'Bitstream Vera Sans', 'Computer Modern Sans Serif', 'Lucida Grande', 'Verdana', 'Geneva', 'Lucid', 'Arial', 'Helvetica', 'Avant Garde', sans-serif; text-anchor: start" x="612.904844" y="115.2175" transform="rotate(-0 612.904844 115.2175)">gcc-4.2 - ParallelCompute_RegularTasks_V1</text>
    </g>
    <g id="line2d_39">
     <path d="M 584.904844 126.67375 
L 594.904844 126.67375 
L 604.904844 126.67375 
" style="fill: none; stroke: #e377c2; stroke-width: 2; stroke-linecap: square"/>
     <g>
      <use xlink:href="#m3905c2d395" x="594.904844" y="126.67375" style="fill: #e377c2; stroke: #e377c2"/>
     </g>
    </g>
    <g id="text_21">
     <text style="font: 10px 'DejaVu Sans', 'Bitstream Vera Sans', 'Computer Modern Sans Serif', 'Lucida Grande', 'Verdana', 'Geneva', 'Lucid', 'Arial', 'Helvetica', 'Avant Garde', sans-serif; text-anchor: start" x="612.904844" y="130.17375" transform="rotate(-0 612.904844 130.17375)">gcc-4.2 - ParallelCompute_Coroutines_V2</text>
    </g>
    <g id="line2d_40">
     <path d="M 584.904844 141.63 
L 594.904844 141.63 
L 604.904844 141.63 
" style="fill: none; stroke: #7f7f7f; stroke-width: 2; stroke-linecap: square"/>
     <g>
      <use xlink:href="#mb2ef54ba84" x="594.904844" y="141.63" style="fill: #7f7f7f; stroke: #7f7f7f"/>
     </g>
    </g>
    <g id="text_22">
     <text style="font: 10px 'DejaVu Sans', 'Bitstream Vera Sans', 'Computer Modern Sans Serif', 'Lucida Grande', 'Verdana', 'Geneva', 'Lucid', 'Arial', 'Helvetica', 'Avant Garde', sans-serif; text-anchor: start" x="612.904844" y="145.13" transform="rotate(-0 612.904844 145.13)">gcc-4.2 - ParallelCompute_RegularTasks_V2</text>
    </g>
   </g>
  </g>
 </g>
 <defs>
  <clipPath id="p23002ffdb3">
   <rect x="64.41375" y="23.837813" width="487.134375" height="505.470313"/>
  </clipPath>
 </defs>
</svg>
