<?xml version="1.0" encoding="utf-8" standalone="no"?>
<!DOCTYPE svg PUBLIC "-//W3C//DTD SVG 1.1//EN"
  "http://www.w3.org/Graphics/SVG/1.1/DTD/svg11.dtd">
<svg xmlns:xlink="http://www.w3.org/1999/xlink" width="848.869766pt" height="568.8pt" viewBox="0 0 848.869766 568.8" xmlns="http://www.w3.org/2000/svg" version="1.1">
 <metadata>
  <rdf:RDF xmlns:dc="http://purl.org/dc/elements/1.1/" xmlns:cc="http://creativecommons.org/ns#" xmlns:rdf="http://www.w3.org/1999/02/22-rdf-syntax-ns#">
   <cc:Work>
    <dc:type rdf:resource="http://purl.org/dc/dcmitype/StillImage"/>
    <dc:date>2025-12-23T10:59:12.427181</dc:date>
    <dc:format>image/svg+xml</dc:format>
    <dc:creator>
     <cc:Agent>
      <dc:title>Matplotlib v3.9.4, https://matplotlib.org/</dc:title>
     </cc:Agent>
    </dc:creator>
   </cc:Work>
  </rdf:RDF>
 </metadata>
 <defs>
  <style type="text/css">*{stroke-linejoin: round; stroke-linecap: butt}</style>
 </defs>
 <g id="figure_1">
  <g id="patch_1">
   <path d="M 0 568.8 
L 848.869766 568.8 
L 848.869766 0 
L 0 0 
z
" style="fill: #ffffff"/>
  </g>
  <g id="axes_1">
   <g id="patch_2">
    <path d="M 86.71375 529.308125 
L 597.709062 529.308125 
L 597.709062 23.837812 
L 86.71375 23.837812 
z
" style="fill: #ffffff"/>
   </g>
   <g id="matplotlib.axis_1">
    <g id="xtick_1">
     <g id="line2d_1">
      <path d="M 92.73558 529.308125 
L 92.73558 23.837812 
" clip-path="url(#pd9b9635003)" style="fill: none; stroke: #b0b0b0; stroke-opacity: 0.3; stroke-width: 0.8; stroke-linecap: square"/>
     </g>
     <g id="line2d_2">
      <defs>
       <path id="m6e18144ecd" d="M 0 0 
L 0 3.5 
" style="stroke: #000000; stroke-width: 0.8"/>
      </defs>
      <g>
       <use xlink:href="#m6e18144ecd" x="92.73558" y="529.308125" style="stroke: #000000; stroke-width: 0.8"/>
      </g>
     </g>
     <g id="text_1">
      <text style="font: 10px 'DejaVu Sans', 'Bitstream Vera Sans', 'Computer Modern Sans Serif', 'Lucida Grande', 'Verdana', 'Geneva', 'Lucid', 'Arial', 'Helvetica', 'Avant Garde', sans-serif; text-anchor: middle" x="92.73558" y="543.906563" transform="rotate(-0 92.73558 543.906563)">95</text>
     </g>
    </g>
    <g id="xtick_2">
     <g id="line2d_3">
      <path d="M 178.761727 529.308125 
L 178.761727 23.837812 
" clip-path="url(#pd9b9635003)" style="fill: none; stroke: #b0b0b0; stroke-opacity: 0.3; stroke-width: 0.8; stroke-linecap: square"/>
     </g>
     <g id="line2d_4">
      <g>
       <use xlink:href="#m6e18144ecd" x="178.761727" y="529.308125" style="stroke: #000000; stroke-width: 0.8"/>
      </g>
     </g>
     <g id="text_2">
      <text style="font: 10px 'DejaVu Sans', 'Bitstream Vera Sans', 'Computer Modern Sans Serif', 'Lucida Grande', 'Verdana', 'Geneva', 'Lucid', 'Arial', 'Helvetica', 'Avant Garde', sans-serif; text-anchor: middle" x="178.761727" y="543.906563" transform="rotate(-0 178.761727 543.906563)">100</text>
     </g>
    </g>
    <g id="xtick_3">
     <g id="line2d_5">
      <path d="M 264.787874 529.308125 
L 264.787874 23.837812 
" clip-path="url(#pd9b9635003)" style="fill: none; stroke: #b0b0b0; stroke-opacity: 0.3; stroke-width: 0.8; stroke-linecap: square"/>
     </g>
     <g id="line2d_6">
      <g>
       <use xlink:href="#m6e18144ecd" x="264.787874" y="529.308125" style="stroke: #000000; stroke-width: 0.8"/>
      </g>
     </g>
     <g id="text_3">
      <text style="font: 10px 'DejaVu Sans', 'Bitstream Vera Sans', 'Computer Modern Sans Serif', 'Lucida Grande', 'Verdana', 'Geneva', 'Lucid', 'Arial', 'Helvetica', 'Avant Garde', sans-serif; text-anchor: middle" x="264.787874" y="543.906563" transform="rotate(-0 264.787874 543.906563)">105</text>
     </g>
    </g>
    <g id="xtick_4">
     <g id="line2d_7">
      <path d="M 350.814021 529.308125 
L 350.814021 23.837812 
" clip-path="url(#pd9b9635003)" style="fill: none; stroke: #b0b0b0; stroke-opacity: 0.3; stroke-width: 0.8; stroke-linecap: square"/>
     </g>
     <g id="line2d_8">
      <g>
       <use xlink:href="#m6e18144ecd" x="350.814021" y="529.308125" style="stroke: #000000; stroke-width: 0.8"/>
      </g>
     </g>
     <g id="text_4">
      <text style="font: 10px 'DejaVu Sans', 'Bitstream Vera Sans', 'Computer Modern Sans Serif', 'Lucida Grande', 'Verdana', 'Geneva', 'Lucid', 'Arial', 'Helvetica', 'Avant Garde', sans-serif; text-anchor: middle" x="350.814021" y="543.906563" transform="rotate(-0 350.814021 543.906563)">110</text>
     </g>
    </g>
    <g id="xtick_5">
     <g id="line2d_9">
      <path d="M 436.840168 529.308125 
L 436.840168 23.837812 
" clip-path="url(#pd9b9635003)" style="fill: none; stroke: #b0b0b0; stroke-opacity: 0.3; stroke-width: 0.8; stroke-linecap: square"/>
     </g>
     <g id="line2d_10">
      <g>
       <use xlink:href="#m6e18144ecd" x="436.840168" y="529.308125" style="stroke: #000000; stroke-width: 0.8"/>
      </g>
     </g>
     <g id="text_5">
      <text style="font: 10px 'DejaVu Sans', 'Bitstream Vera Sans', 'Computer Modern Sans Serif', 'Lucida Grande', 'Verdana', 'Geneva', 'Lucid', 'Arial', 'Helvetica', 'Avant Garde', sans-serif; text-anchor: middle" x="436.840168" y="543.906563" transform="rotate(-0 436.840168 543.906563)">115</text>
     </g>
    </g>
    <g id="xtick_6">
     <g id="line2d_11">
      <path d="M 522.866315 529.308125 
L 522.866315 23.837812 
" clip-path="url(#pd9b9635003)" style="fill: none; stroke: #b0b0b0; stroke-opacity: 0.3; stroke-width: 0.8; stroke-linecap: square"/>
     </g>
     <g id="line2d_12">
      <g>
       <use xlink:href="#m6e18144ecd" x="522.866315" y="529.308125" style="stroke: #000000; stroke-width: 0.8"/>
      </g>
     </g>
     <g id="text_6">
      <text style="font: 10px 'DejaVu Sans', 'Bitstream Vera Sans', 'Computer Modern Sans Serif', 'Lucida Grande', 'Verdana', 'Geneva', 'Lucid', 'Arial', 'Helvetica', 'Avant Garde', sans-serif; text-anchor: middle" x="522.866315" y="543.906563" transform="rotate(-0 522.866315 543.906563)">120</text>
     </g>
    </g>
    <g id="text_7">
     <text style="font: 12px 'DejaVu Sans', 'Bitstream Vera Sans', 'Computer Modern Sans Serif', 'Lucida Grande', 'Verdana', 'Geneva', 'Lucid', 'Arial', 'Helvetica', 'Avant Garde', sans-serif; text-anchor: middle" x="342.211406" y="559.104375" transform="rotate(-0 342.211406 559.104375)">Build Number</text>
    </g>
   </g>
   <g id="matplotlib.axis_2">
    <g id="ytick_1">
     <g id="line2d_13">
      <defs>
       <path id="mb8d83ba377" d="M 0 0 
L -2 0 
" style="stroke: #000000; stroke-width: 0.6"/>
      </defs>
      <g>
       <use xlink:href="#mb8d83ba377" x="86.71375" y="498.34401" style="stroke: #000000; stroke-width: 0.6"/>
      </g>
     </g>
     <g id="text_8">
      <!-- $\mathdefault{5.006\times10^{7}}$ -->
      <g transform="translate(22.81375 502.143229)">
       <text>
        <tspan style="font: 10px 'DejaVu Sans'" x="0 6.362305 9.541016 15.90332 22.265625 30.576172 40.90332 47.265625" y="-0.06406250000000036">5.006×10</tspan>
        <tspan style="font: 7px 'DejaVu Sans'" x="53.723633" y="-3.8921875000000004">7</tspan>
       </text>
      </g>
     </g>
    </g>
    <g id="ytick_2">
     <g id="line2d_14">
      <g>
       <use xlink:href="#mb8d83ba377" x="86.71375" y="397.979961" style="stroke: #000000; stroke-width: 0.6"/>
      </g>
     </g>
     <g id="text_9">
      <!-- $\mathdefault{5.008\times10^{7}}$ -->
      <g transform="translate(22.81375 401.77918)">
       <text>
        <tspan style="font: 10px 'DejaVu Sans'" x="0 6.362305 9.541016 15.90332 22.265625 30.576172 40.90332 47.265625" y="-0.06406250000000036">5.008×10</tspan>
        <tspan style="font: 7px 'DejaVu Sans'" x="53.723633" y="-3.8921875000000004">7</tspan>
       </text>
      </g>
     </g>
    </g>
    <g id="ytick_3">
     <g id="line2d_15">
      <g>
       <use xlink:href="#mb8d83ba377" x="86.71375" y="297.655985" style="stroke: #000000; stroke-width: 0.6"/>
      </g>
     </g>
     <g id="text_10">
      <!-- $\mathdefault{5.01\times10^{7}}$ -->
      <g transform="translate(29.21375 301.455204)">
       <text>
        <tspan style="font: 10px 'DejaVu Sans'" x="0 6.362305 9.541016 15.90332 24.213867 34.541016 40.90332" y="-0.06406250000000036">5.01×10</tspan>
        <tspan style="font: 7px 'DejaVu Sans'" x="47.361328" y="-3.8921875000000004">7</tspan>
       </text>
      </g>
     </g>
    </g>
    <g id="ytick_4">
     <g id="line2d_16">
      <g>
       <use xlink:href="#mb8d83ba377" x="86.71375" y="197.372051" style="stroke: #000000; stroke-width: 0.6"/>
      </g>
     </g>
     <g id="text_11">
      <!-- $\mathdefault{5.012\times10^{7}}$ -->
      <g transform="translate(22.81375 201.17127)">
       <text>
        <tspan style="font: 10px 'DejaVu Sans'" x="0 6.362305 9.541016 15.90332 22.265625 30.576172 40.90332 47.265625" y="-0.06406250000000036">5.012×10</tspan>
        <tspan style="font: 7px 'DejaVu Sans'" x="53.723633" y="-3.8921875000000004">7</tspan>
       </text>
      </g>
     </g>
    </g>
    <g id="ytick_5">
     <g id="line2d_17">
      <g>
       <use xlink:href="#mb8d83ba377" x="86.71375" y="97.128127" style="stroke: #000000; stroke-width: 0.6"/>
      </g>
     </g>
     <g id="text_12">
      <!-- $\mathdefault{5.014\times10^{7}}$ -->
      <g transform="translate(22.81375 100.927345)">
       <text>
        <tspan style="font: 10px 'DejaVu Sans'" x="0 6.362305 9.541016 15.90332 22.265625 30.576172 40.90332 47.265625" y="-0.06406250000000036">5.014×10</tspan>
        <tspan style="font: 7px 'DejaVu Sans'" x="53.723633" y="-3.8921875000000004">7</tspan>
       </text>
      </g>
     </g>
    </g>
    <g id="text_13">
     <text style="font: 12px 'DejaVu Sans', 'Bitstream Vera Sans', 'Computer Modern Sans Serif', 'Lucida Grande', 'Verdana', 'Geneva', 'Lucid', 'Arial', 'Helvetica', 'Avant Garde', sans-serif; text-anchor: middle" x="16.318125" y="276.572969" transform="rotate(-90 16.318125 276.572969)">Median Elapsed Time (nanoseconds)</text>
    </g>
   </g>
   <g id="line2d_18">
    <path d="M 109.94081 456.394991 
L 127.146039 456.08335 
L 161.556498 475.447943 
L 178.761727 484.861282 
L 195.966957 478.633864 
L 213.172186 475.925728 
L 230.377415 482.868773 
L 247.582645 473.182491 
L 264.787874 452.740141 
L 281.993103 453.216377 
L 316.403562 440.440603 
L 333.608792 450.464355 
L 350.814021 473.825889 
L 368.01925 464.969017 
L 385.22448 471.796329 
L 419.634938 476.354832 
L 436.840168 506.332202 
L 454.045397 475.265762 
L 471.250627 477.300369 
L 488.455856 498.001199 
L 505.661085 477.50614 
L 522.866315 468.627056 
L 540.071544 464.375324 
L 557.276773 464.45813 
L 574.482003 466.378728 
" clip-path="url(#pd9b9635003)" style="fill: none; stroke: #1f77b4; stroke-width: 2; stroke-linecap: square"/>
    <defs>
     <path id="md59c51f6ec" d="M 0 3 
C 0.795609 3 1.55874 2.683901 2.12132 2.12132 
C 2.683901 1.55874 3 0.795609 3 0 
C 3 -0.795609 2.683901 -1.55874 2.12132 -2.12132 
C 1.55874 -2.683901 0.795609 -3 0 -3 
C -0.795609 -3 -1.55874 -2.683901 -2.12132 -2.12132 
C -2.683901 -1.55874 -3 -0.795609 -3 0 
C -3 0.795609 -2.683901 1.55874 -2.12132 2.12132 
C -1.55874 2.683901 -0.795609 3 0 3 
z
" style="stroke: #1f77b4"/>
    </defs>
    <g clip-path="url(#pd9b9635003)">
     <use xlink:href="#md59c51f6ec" x="109.94081" y="456.394991" style="fill: #1f77b4; stroke: #1f77b4"/>
     <use xlink:href="#md59c51f6ec" x="127.146039" y="456.08335" style="fill: #1f77b4; stroke: #1f77b4"/>
     <use xlink:href="#md59c51f6ec" x="161.556498" y="475.447943" style="fill: #1f77b4; stroke: #1f77b4"/>
     <use xlink:href="#md59c51f6ec" x="178.761727" y="484.861282" style="fill: #1f77b4; stroke: #1f77b4"/>
     <use xlink:href="#md59c51f6ec" x="195.966957" y="478.633864" style="fill: #1f77b4; stroke: #1f77b4"/>
     <use xlink:href="#md59c51f6ec" x="213.172186" y="475.925728" style="fill: #1f77b4; stroke: #1f77b4"/>
     <use xlink:href="#md59c51f6ec" x="230.377415" y="482.868773" style="fill: #1f77b4; stroke: #1f77b4"/>
     <use xlink:href="#md59c51f6ec" x="247.582645" y="473.182491" style="fill: #1f77b4; stroke: #1f77b4"/>
     <use xlink:href="#md59c51f6ec" x="264.787874" y="452.740141" style="fill: #1f77b4; stroke: #1f77b4"/>
     <use xlink:href="#md59c51f6ec" x="281.993103" y="453.216377" style="fill: #1f77b4; stroke: #1f77b4"/>
     <use xlink:href="#md59c51f6ec" x="316.403562" y="440.440603" style="fill: #1f77b4; stroke: #1f77b4"/>
     <use xlink:href="#md59c51f6ec" x="333.608792" y="450.464355" style="fill: #1f77b4; stroke: #1f77b4"/>
     <use xlink:href="#md59c51f6ec" x="350.814021" y="473.825889" style="fill: #1f77b4; stroke: #1f77b4"/>
     <use xlink:href="#md59c51f6ec" x="368.01925" y="464.969017" style="fill: #1f77b4; stroke: #1f77b4"/>
     <use xlink:href="#md59c51f6ec" x="385.22448" y="471.796329" style="fill: #1f77b4; stroke: #1f77b4"/>
     <use xlink:href="#md59c51f6ec" x="419.634938" y="476.354832" style="fill: #1f77b4; stroke: #1f77b4"/>
     <use xlink:href="#md59c51f6ec" x="436.840168" y="506.332202" style="fill: #1f77b4; stroke: #1f77b4"/>
     <use xlink:href="#md59c51f6ec" x="454.045397" y="475.265762" style="fill: #1f77b4; stroke: #1f77b4"/>
     <use xlink:href="#md59c51f6ec" x="471.250627" y="477.300369" style="fill: #1f77b4; stroke: #1f77b4"/>
     <use xlink:href="#md59c51f6ec" x="488.455856" y="498.001199" style="fill: #1f77b4; stroke: #1f77b4"/>
     <use xlink:href="#md59c51f6ec" x="505.661085" y="477.50614" style="fill: #1f77b4; stroke: #1f77b4"/>
     <use xlink:href="#md59c51f6ec" x="522.866315" y="468.627056" style="fill: #1f77b4; stroke: #1f77b4"/>
     <use xlink:href="#md59c51f6ec" x="540.071544" y="464.375324" style="fill: #1f77b4; stroke: #1f77b4"/>
     <use xlink:href="#md59c51f6ec" x="557.276773" y="464.45813" style="fill: #1f77b4; stroke: #1f77b4"/>
     <use xlink:href="#md59c51f6ec" x="574.482003" y="466.378728" style="fill: #1f77b4; stroke: #1f77b4"/>
    </g>
   </g>
   <g id="line2d_19">
    <path d="M 109.94081 129.499033 
L 127.146039 115.715342 
L 161.556498 232.281361 
L 178.761727 73.042965 
L 195.966957 243.223919 
L 213.172186 240.842228 
L 230.377415 220.55063 
L 247.582645 252.071975 
L 264.787874 90.333537 
L 281.993103 138.108523 
L 316.403562 61.173861 
L 333.608792 69.185244 
L 350.814021 244.147019 
L 368.01925 191.102125 
L 385.22448 244.555671 
L 419.634938 231.455073 
L 436.840168 228.819794 
L 454.045397 235.807657 
L 471.250627 234.654949 
L 488.455856 227.548291 
L 505.661085 226.177021 
L 522.866315 238.424458 
L 540.071544 190.765247 
L 557.276773 119.777751 
L 574.482003 196.52382 
" clip-path="url(#pd9b9635003)" style="fill: none; stroke: #ff7f0e; stroke-width: 2; stroke-linecap: square"/>
    <defs>
     <path id="m30f381592e" d="M 0 3 
C 0.795609 3 1.55874 2.683901 2.12132 2.12132 
C 2.683901 1.55874 3 0.795609 3 0 
C 3 -0.795609 2.683901 -1.55874 2.12132 -2.12132 
C 1.55874 -2.683901 0.795609 -3 0 -3 
C -0.795609 -3 -1.55874 -2.683901 -2.12132 -2.12132 
C -2.683901 -1.55874 -3 -0.795609 -3 0 
C -3 0.795609 -2.683901 1.55874 -2.12132 2.12132 
C -1.55874 2.683901 -0.795609 3 0 3 
z
" style="stroke: #ff7f0e"/>
    </defs>
    <g clip-path="url(#pd9b9635003)">
     <use xlink:href="#m30f381592e" x="109.94081" y="129.499033" style="fill: #ff7f0e; stroke: #ff7f0e"/>
     <use xlink:href="#m30f381592e" x="127.146039" y="115.715342" style="fill: #ff7f0e; stroke: #ff7f0e"/>
     <use xlink:href="#m30f381592e" x="161.556498" y="232.281361" style="fill: #ff7f0e; stroke: #ff7f0e"/>
     <use xlink:href="#m30f381592e" x="178.761727" y="73.042965" style="fill: #ff7f0e; stroke: #ff7f0e"/>
     <use xlink:href="#m30f381592e" x="195.966957" y="243.223919" style="fill: #ff7f0e; stroke: #ff7f0e"/>
     <use xlink:href="#m30f381592e" x="213.172186" y="240.842228" style="fill: #ff7f0e; stroke: #ff7f0e"/>
     <use xlink:href="#m30f381592e" x="230.377415" y="220.55063" style="fill: #ff7f0e; stroke: #ff7f0e"/>
     <use xlink:href="#m30f381592e" x="247.582645" y="252.071975" style="fill: #ff7f0e; stroke: #ff7f0e"/>
     <use xlink:href="#m30f381592e" x="264.787874" y="90.333537" style="fill: #ff7f0e; stroke: #ff7f0e"/>
     <use xlink:href="#m30f381592e" x="281.993103" y="138.108523" style="fill: #ff7f0e; stroke: #ff7f0e"/>
     <use xlink:href="#m30f381592e" x="316.403562" y="61.173861" style="fill: #ff7f0e; stroke: #ff7f0e"/>
     <use xlink:href="#m30f381592e" x="333.608792" y="69.185244" style="fill: #ff7f0e; stroke: #ff7f0e"/>
     <use xlink:href="#m30f381592e" x="350.814021" y="244.147019" style="fill: #ff7f0e; stroke: #ff7f0e"/>
     <use xlink:href="#m30f381592e" x="368.01925" y="191.102125" style="fill: #ff7f0e; stroke: #ff7f0e"/>
     <use xlink:href="#m30f381592e" x="385.22448" y="244.555671" style="fill: #ff7f0e; stroke: #ff7f0e"/>
     <use xlink:href="#m30f381592e" x="419.634938" y="231.455073" style="fill: #ff7f0e; stroke: #ff7f0e"/>
     <use xlink:href="#m30f381592e" x="436.840168" y="228.819794" style="fill: #ff7f0e; stroke: #ff7f0e"/>
     <use xlink:href="#m30f381592e" x="454.045397" y="235.807657" style="fill: #ff7f0e; stroke: #ff7f0e"/>
     <use xlink:href="#m30f381592e" x="471.250627" y="234.654949" style="fill: #ff7f0e; stroke: #ff7f0e"/>
     <use xlink:href="#m30f381592e" x="488.455856" y="227.548291" style="fill: #ff7f0e; stroke: #ff7f0e"/>
     <use xlink:href="#m30f381592e" x="505.661085" y="226.177021" style="fill: #ff7f0e; stroke: #ff7f0e"/>
     <use xlink:href="#m30f381592e" x="522.866315" y="238.424458" style="fill: #ff7f0e; stroke: #ff7f0e"/>
     <use xlink:href="#m30f381592e" x="540.071544" y="190.765247" style="fill: #ff7f0e; stroke: #ff7f0e"/>
     <use xlink:href="#m30f381592e" x="557.276773" y="119.777751" style="fill: #ff7f0e; stroke: #ff7f0e"/>
     <use xlink:href="#m30f381592e" x="574.482003" y="196.52382" style="fill: #ff7f0e; stroke: #ff7f0e"/>
    </g>
   </g>
   <g id="line2d_20">
    <path d="M 109.94081 463.426323 
L 127.146039 477.351561 
L 161.556498 495.343548 
L 178.761727 453.75986 
L 195.966957 494.223277 
L 213.172186 497.38685 
L 230.377415 475.6507 
L 247.582645 468.923154 
L 264.787874 474.307184 
L 281.993103 473.006334 
L 316.403562 498.360072 
L 333.608792 477.697356 
L 350.814021 468.612 
L 385.22448 468.456925 
L 436.840168 477.074022 
L 454.045397 476.881803 
L 471.250627 442.300801 
L 488.455856 470.171287 
L 505.661085 484.841206 
L 522.866315 485.284881 
L 540.071544 476.013556 
L 557.276773 474.051731 
L 574.482003 456.801479 
" clip-path="url(#pd9b9635003)" style="fill: none; stroke: #2ca02c; stroke-width: 2; stroke-linecap: square"/>
    <defs>
     <path id="md2905e7afd" d="M 0 3 
C 0.795609 3 1.55874 2.683901 2.12132 2.12132 
C 2.683901 1.55874 3 0.795609 3 0 
C 3 -0.795609 2.683901 -1.55874 2.12132 -2.12132 
C 1.55874 -2.683901 0.795609 -3 0 -3 
C -0.795609 -3 -1.55874 -2.683901 -2.12132 -2.12132 
C -2.683901 -1.55874 -3 -0.795609 -3 0 
C -3 0.795609 -2.683901 1.55874 -2.12132 2.12132 
C -1.55874 2.683901 -0.795609 3 0 3 
z
" style="stroke: #2ca02c"/>
    </defs>
    <g clip-path="url(#pd9b9635003)">
     <use xlink:href="#md2905e7afd" x="109.94081" y="463.426323" style="fill: #2ca02c; stroke: #2ca02c"/>
     <use xlink:href="#md2905e7afd" x="127.146039" y="477.351561" style="fill: #2ca02c; stroke: #2ca02c"/>
     <use xlink:href="#md2905e7afd" x="161.556498" y="495.343548" style="fill: #2ca02c; stroke: #2ca02c"/>
     <use xlink:href="#md2905e7afd" x="178.761727" y="453.75986" style="fill: #2ca02c; stroke: #2ca02c"/>
     <use xlink:href="#md2905e7afd" x="195.966957" y="494.223277" style="fill: #2ca02c; stroke: #2ca02c"/>
     <use xlink:href="#md2905e7afd" x="213.172186" y="497.38685" style="fill: #2ca02c; stroke: #2ca02c"/>
     <use xlink:href="#md2905e7afd" x="230.377415" y="475.6507" style="fill: #2ca02c; stroke: #2ca02c"/>
     <use xlink:href="#md2905e7afd" x="247.582645" y="468.923154" style="fill: #2ca02c; stroke: #2ca02c"/>
     <use xlink:href="#md2905e7afd" x="264.787874" y="474.307184" style="fill: #2ca02c; stroke: #2ca02c"/>
     <use xlink:href="#md2905e7afd" x="281.993103" y="473.006334" style="fill: #2ca02c; stroke: #2ca02c"/>
     <use xlink:href="#md2905e7afd" x="316.403562" y="498.360072" style="fill: #2ca02c; stroke: #2ca02c"/>
     <use xlink:href="#md2905e7afd" x="333.608792" y="477.697356" style="fill: #2ca02c; stroke: #2ca02c"/>
     <use xlink:href="#md2905e7afd" x="350.814021" y="468.612" style="fill: #2ca02c; stroke: #2ca02c"/>
     <use xlink:href="#md2905e7afd" x="385.22448" y="468.456925" style="fill: #2ca02c; stroke: #2ca02c"/>
     <use xlink:href="#md2905e7afd" x="436.840168" y="477.074022" style="fill: #2ca02c; stroke: #2ca02c"/>
     <use xlink:href="#md2905e7afd" x="454.045397" y="476.881803" style="fill: #2ca02c; stroke: #2ca02c"/>
     <use xlink:href="#md2905e7afd" x="471.250627" y="442.300801" style="fill: #2ca02c; stroke: #2ca02c"/>
     <use xlink:href="#md2905e7afd" x="488.455856" y="470.171287" style="fill: #2ca02c; stroke: #2ca02c"/>
     <use xlink:href="#md2905e7afd" x="505.661085" y="484.841206" style="fill: #2ca02c; stroke: #2ca02c"/>
     <use xlink:href="#md2905e7afd" x="522.866315" y="485.284881" style="fill: #2ca02c; stroke: #2ca02c"/>
     <use xlink:href="#md2905e7afd" x="540.071544" y="476.013556" style="fill: #2ca02c; stroke: #2ca02c"/>
     <use xlink:href="#md2905e7afd" x="557.276773" y="474.051731" style="fill: #2ca02c; stroke: #2ca02c"/>
     <use xlink:href="#md2905e7afd" x="574.482003" y="456.801479" style="fill: #2ca02c; stroke: #2ca02c"/>
    </g>
   </g>
   <g id="line2d_21">
    <path d="M 109.94081 157.701751 
L 127.146039 247.430292 
L 161.556498 244.334547 
L 178.761727 213.448883 
L 195.966957 239.366092 
L 213.172186 237.434192 
L 230.377415 218.08693 
L 247.582645 230.86093 
L 264.787874 247.784295 
L 281.993103 234.366147 
L 316.403562 216.488597 
L 333.608792 233.07456 
L 350.814021 229.441509 
L 385.22448 240.488235 
L 436.840168 237.855869 
L 454.045397 243.159237 
L 471.250627 46.813736 
L 488.455856 237.377032 
L 505.661085 249.588411 
L 522.866315 236.981428 
L 540.071544 208.462489 
L 557.276773 229.054441 
L 574.482003 158.873654 
" clip-path="url(#pd9b9635003)" style="fill: none; stroke: #d62728; stroke-width: 2; stroke-linecap: square"/>
    <defs>
     <path id="m3469e0f554" d="M 0 3 
C 0.795609 3 1.55874 2.683901 2.12132 2.12132 
C 2.683901 1.55874 3 0.795609 3 0 
C 3 -0.795609 2.683901 -1.55874 2.12132 -2.12132 
C 1.55874 -2.683901 0.795609 -3 0 -3 
C -0.795609 -3 -1.55874 -2.683901 -2.12132 -2.12132 
C -2.683901 -1.55874 -3 -0.795609 -3 0 
C -3 0.795609 -2.683901 1.55874 -2.12132 2.12132 
C -1.55874 2.683901 -0.795609 3 0 3 
z
" style="stroke: #d62728"/>
    </defs>
    <g clip-path="url(#pd9b9635003)">
     <use xlink:href="#m3469e0f554" x="109.94081" y="157.701751" style="fill: #d62728; stroke: #d62728"/>
     <use xlink:href="#m3469e0f554" x="127.146039" y="247.430292" style="fill: #d62728; stroke: #d62728"/>
     <use xlink:href="#m3469e0f554" x="161.556498" y="244.334547" style="fill: #d62728; stroke: #d62728"/>
     <use xlink:href="#m3469e0f554" x="178.761727" y="213.448883" style="fill: #d62728; stroke: #d62728"/>
     <use xlink:href="#m3469e0f554" x="195.966957" y="239.366092" style="fill: #d62728; stroke: #d62728"/>
     <use xlink:href="#m3469e0f554" x="213.172186" y="237.434192" style="fill: #d62728; stroke: #d62728"/>
     <use xlink:href="#m3469e0f554" x="230.377415" y="218.08693" style="fill: #d62728; stroke: #d62728"/>
     <use xlink:href="#m3469e0f554" x="247.582645" y="230.86093" style="fill: #d62728; stroke: #d62728"/>
     <use xlink:href="#m3469e0f554" x="264.787874" y="247.784295" style="fill: #d62728; stroke: #d62728"/>
     <use xlink:href="#m3469e0f554" x="281.993103" y="234.366147" style="fill: #d62728; stroke: #d62728"/>
     <use xlink:href="#m3469e0f554" x="316.403562" y="216.488597" style="fill: #d62728; stroke: #d62728"/>
     <use xlink:href="#m3469e0f554" x="333.608792" y="233.07456" style="fill: #d62728; stroke: #d62728"/>
     <use xlink:href="#m3469e0f554" x="350.814021" y="229.441509" style="fill: #d62728; stroke: #d62728"/>
     <use xlink:href="#m3469e0f554" x="385.22448" y="240.488235" style="fill: #d62728; stroke: #d62728"/>
     <use xlink:href="#m3469e0f554" x="436.840168" y="237.855869" style="fill: #d62728; stroke: #d62728"/>
     <use xlink:href="#m3469e0f554" x="454.045397" y="243.159237" style="fill: #d62728; stroke: #d62728"/>
     <use xlink:href="#m3469e0f554" x="471.250627" y="46.813736" style="fill: #d62728; stroke: #d62728"/>
     <use xlink:href="#m3469e0f554" x="488.455856" y="237.377032" style="fill: #d62728; stroke: #d62728"/>
     <use xlink:href="#m3469e0f554" x="505.661085" y="249.588411" style="fill: #d62728; stroke: #d62728"/>
     <use xlink:href="#m3469e0f554" x="522.866315" y="236.981428" style="fill: #d62728; stroke: #d62728"/>
     <use xlink:href="#m3469e0f554" x="540.071544" y="208.462489" style="fill: #d62728; stroke: #d62728"/>
     <use xlink:href="#m3469e0f554" x="557.276773" y="229.054441" style="fill: #d62728; stroke: #d62728"/>
     <use xlink:href="#m3469e0f554" x="574.482003" y="158.873654" style="fill: #d62728; stroke: #d62728"/>
    </g>
   </g>
   <g id="patch_3">
    <path d="M 86.71375 529.308125 
L 86.71375 23.837812 
" style="fill: none; stroke: #000000; stroke-width: 0.8; stroke-linejoin: miter; stroke-linecap: square"/>
   </g>
   <g id="patch_4">
    <path d="M 597.709062 529.308125 
L 597.709062 23.837812 
" style="fill: none; stroke: #000000; stroke-width: 0.8; stroke-linejoin: miter; stroke-linecap: square"/>
   </g>
   <g id="patch_5">
    <path d="M 86.71375 529.308125 
L 597.709062 529.308125 
" style="fill: none; stroke: #000000; stroke-width: 0.8; stroke-linejoin: miter; stroke-linecap: square"/>
   </g>
   <g id="patch_6">
    <path d="M 86.71375 23.837812 
L 597.709062 23.837812 
" style="fill: none; stroke: #000000; stroke-width: 0.8; stroke-linejoin: miter; stroke-linecap: square"/>
   </g>
   <g id="text_14">
    <text style="font: 700 14px 'DejaVu Sans', 'Bitstream Vera Sans', 'Computer Modern Sans Serif', 'Lucida Grande', 'Verdana', 'Geneva', 'Lucid', 'Arial', 'Helvetica', 'Avant Garde', sans-serif; text-anchor: middle" x="342.211406" y="17.837813" transform="rotate(-0 342.211406 17.837813)">Coroutine Suspension - Performance Trend</text>
   </g>
   <g id="legend_1">
    <g id="patch_7">
     <path d="M 630.258828 91.662813 
L 839.669766 91.662813 
Q 841.669766 91.662813 841.669766 89.662813 
L 841.669766 30.837813 
Q 841.669766 28.837813 839.669766 28.837813 
L 630.258828 28.837813 
Q 628.258828 28.837813 628.258828 30.837813 
L 628.258828 89.662813 
Q 628.258828 91.662813 630.258828 91.662813 
z
" style="fill: #ffffff; opacity: 0.8; stroke: #cccccc; stroke-linejoin: miter"/>
    </g>
    <g id="line2d_22">
     <path d="M 632.258828 36.93625 
L 642.258828 36.93625 
L 652.258828 36.93625 
" style="fill: none; stroke: #1f77b4; stroke-width: 2; stroke-linecap: square"/>
     <g>
      <use xlink:href="#md59c51f6ec" x="642.258828" y="36.93625" style="fill: #1f77b4; stroke: #1f77b4"/>
     </g>
    </g>
    <g id="text_15">
     <text style="font: 10px 'DejaVu Sans', 'Bitstream Vera Sans', 'Computer Modern Sans Serif', 'Lucida Grande', 'Verdana', 'Geneva', 'Lucid', 'Arial', 'Helvetica', 'Avant Garde', sans-serif; text-anchor: start" x="660.258828" y="40.43625" transform="rotate(-0 660.258828 40.43625)">gcc-14.2 - SuspensionOverhead_V1</text>
    </g>
    <g id="line2d_23">
     <path d="M 632.258828 51.8925 
L 642.258828 51.8925 
L 652.258828 51.8925 
" style="fill: none; stroke: #ff7f0e; stroke-width: 2; stroke-linecap: square"/>
     <g>
      <use xlink:href="#m30f381592e" x="642.258828" y="51.8925" style="fill: #ff7f0e; stroke: #ff7f0e"/>
     </g>
    </g>
    <g id="text_16">
     <text style="font: 10px 'DejaVu Sans', 'Bitstream Vera Sans', 'Computer Modern Sans Serif', 'Lucida Grande', 'Verdana', 'Geneva', 'Lucid', 'Arial', 'Helvetica', 'Avant Garde', sans-serif; text-anchor: start" x="660.258828" y="55.3925" transform="rotate(-0 660.258828 55.3925)">gcc-14.2 - SuspensionOverhead_V2</text>
    </g>
    <g id="line2d_24">
     <path d="M 632.258828 66.84875 
L 642.258828 66.84875 
L 652.258828 66.84875 
" style="fill: none; stroke: #2ca02c; stroke-width: 2; stroke-linecap: square"/>
     <g>
      <use xlink:href="#md2905e7afd" x="642.258828" y="66.84875" style="fill: #2ca02c; stroke: #2ca02c"/>
     </g>
    </g>
    <g id="text_17">
     <text style="font: 10px 'DejaVu Sans', 'Bitstream Vera Sans', 'Computer Modern Sans Serif', 'Lucida Grande', 'Verdana', 'Geneva', 'Lucid', 'Arial', 'Helvetica', 'Avant Garde', sans-serif; text-anchor: start" x="660.258828" y="70.34875" transform="rotate(-0 660.258828 70.34875)">gcc-4.2 - SuspensionOverhead_V1</text>
    </g>
    <g id="line2d_25">
     <path d="M 632.258828 81.805 
L 642.258828 81.805 
L 652.258828 81.805 
" style="fill: none; stroke: #d62728; stroke-width: 2; stroke-linecap: square"/>
     <g>
      <use xlink:href="#m3469e0f554" x="642.258828" y="81.805" style="fill: #d62728; stroke: #d62728"/>
     </g>
    </g>
    <g id="text_18">
     <text style="font: 10px 'DejaVu Sans', 'Bitstream Vera Sans', 'Computer Modern Sans Serif', 'Lucida Grande', 'Verdana', 'Geneva', 'Lucid', 'Arial', 'Helvetica', 'Avant Garde', sans-serif; text-anchor: start" x="660.258828" y="85.305" transform="rotate(-0 660.258828 85.305)">gcc-4.2 - SuspensionOverhead_V2</text>
    </g>
   </g>
  </g>
 </g>
 <defs>
  <clipPath id="pd9b9635003">
   <rect x="86.71375" y="23.837813" width="510.995312" height="505.470313"/>
  </clipPath>
 </defs>
</svg>
