<?xml version="1.0" encoding="utf-8" standalone="no"?>
<!DOCTYPE svg PUBLIC "-//W3C//DTD SVG 1.1//EN"
  "http://www.w3.org/Graphics/SVG/1.1/DTD/svg11.dtd">
<svg xmlns:xlink="http://www.w3.org/1999/xlink" width="855.536016pt" height="568.8pt" viewBox="0 0 855.536016 568.8" xmlns="http://www.w3.org/2000/svg" version="1.1">
 <metadata>
  <rdf:RDF xmlns:dc="http://purl.org/dc/elements/1.1/" xmlns:cc="http://creativecommons.org/ns#" xmlns:rdf="http://www.w3.org/1999/02/22-rdf-syntax-ns#">
   <cc:Work>
    <dc:type rdf:resource="http://purl.org/dc/dcmitype/StillImage"/>
    <dc:date>2025-08-27T17:03:12.226427</dc:date>
    <dc:format>image/svg+xml</dc:format>
    <dc:creator>
     <cc:Agent>
      <dc:title>Matplotlib v3.9.4, https://matplotlib.org/</dc:title>
     </cc:Agent>
    </dc:creator>
   </cc:Work>
  </rdf:RDF>
 </metadata>
 <defs>
  <style type="text/css">*{stroke-linejoin: round; stroke-linecap: butt}</style>
 </defs>
 <g id="figure_1">
  <g id="patch_1">
   <path d="M 0 568.8 
L 855.536016 568.8 
L 855.536016 0 
L 0 0 
z
" style="fill: #ffffff"/>
  </g>
  <g id="axes_1">
   <g id="patch_2">
    <path d="M 64.41375 529.308125 
L 708.734063 529.308125 
L 708.734063 23.837812 
L 64.41375 23.837812 
z
" style="fill: #ffffff"/>
   </g>
   <g id="matplotlib.axis_1">
    <g id="xtick_1">
     <g id="line2d_1">
      <path d="M 76.965444 529.308125 
L 76.965444 23.837812 
" clip-path="url(#pee4db65a2b)" style="fill: none; stroke: #b0b0b0; stroke-opacity: 0.3; stroke-width: 0.8; stroke-linecap: square"/>
     </g>
     <g id="line2d_2">
      <defs>
       <path id="m9991f8eb53" d="M 0 0 
L 0 3.5 
" style="stroke: #000000; stroke-width: 0.8"/>
      </defs>
      <g>
       <use xlink:href="#m9991f8eb53" x="76.965444" y="529.308125" style="stroke: #000000; stroke-width: 0.8"/>
      </g>
     </g>
     <g id="text_1">
      <text style="font: 10px 'DejaVu Sans', 'Bitstream Vera Sans', 'Computer Modern Sans Serif', 'Lucida Grande', 'Verdana', 'Geneva', 'Lucid', 'Arial', 'Helvetica', 'Avant Garde', sans-serif; text-anchor: middle" x="76.965444" y="543.906563" transform="rotate(-0 76.965444 543.906563)">70</text>
     </g>
    </g>
    <g id="xtick_2">
     <g id="line2d_3">
      <path d="M 160.643407 529.308125 
L 160.643407 23.837812 
" clip-path="url(#pee4db65a2b)" style="fill: none; stroke: #b0b0b0; stroke-opacity: 0.3; stroke-width: 0.8; stroke-linecap: square"/>
     </g>
     <g id="line2d_4">
      <g>
       <use xlink:href="#m9991f8eb53" x="160.643407" y="529.308125" style="stroke: #000000; stroke-width: 0.8"/>
      </g>
     </g>
     <g id="text_2">
      <text style="font: 10px 'DejaVu Sans', 'Bitstream Vera Sans', 'Computer Modern Sans Serif', 'Lucida Grande', 'Verdana', 'Geneva', 'Lucid', 'Arial', 'Helvetica', 'Avant Garde', sans-serif; text-anchor: middle" x="160.643407" y="543.906563" transform="rotate(-0 160.643407 543.906563)">75</text>
     </g>
    </g>
    <g id="xtick_3">
     <g id="line2d_5">
      <path d="M 244.32137 529.308125 
L 244.32137 23.837812 
" clip-path="url(#pee4db65a2b)" style="fill: none; stroke: #b0b0b0; stroke-opacity: 0.3; stroke-width: 0.8; stroke-linecap: square"/>
     </g>
     <g id="line2d_6">
      <g>
       <use xlink:href="#m9991f8eb53" x="244.32137" y="529.308125" style="stroke: #000000; stroke-width: 0.8"/>
      </g>
     </g>
     <g id="text_3">
      <text style="font: 10px 'DejaVu Sans', 'Bitstream Vera Sans', 'Computer Modern Sans Serif', 'Lucida Grande', 'Verdana', 'Geneva', 'Lucid', 'Arial', 'Helvetica', 'Avant Garde', sans-serif; text-anchor: middle" x="244.32137" y="543.906563" transform="rotate(-0 244.32137 543.906563)">80</text>
     </g>
    </g>
    <g id="xtick_4">
     <g id="line2d_7">
      <path d="M 327.999332 529.308125 
L 327.999332 23.837812 
" clip-path="url(#pee4db65a2b)" style="fill: none; stroke: #b0b0b0; stroke-opacity: 0.3; stroke-width: 0.8; stroke-linecap: square"/>
     </g>
     <g id="line2d_8">
      <g>
       <use xlink:href="#m9991f8eb53" x="327.999332" y="529.308125" style="stroke: #000000; stroke-width: 0.8"/>
      </g>
     </g>
     <g id="text_4">
      <text style="font: 10px 'DejaVu Sans', 'Bitstream Vera Sans', 'Computer Modern Sans Serif', 'Lucida Grande', 'Verdana', 'Geneva', 'Lucid', 'Arial', 'Helvetica', 'Avant Garde', sans-serif; text-anchor: middle" x="327.999332" y="543.906563" transform="rotate(-0 327.999332 543.906563)">85</text>
     </g>
    </g>
    <g id="xtick_5">
     <g id="line2d_9">
      <path d="M 411.677295 529.308125 
L 411.677295 23.837812 
" clip-path="url(#pee4db65a2b)" style="fill: none; stroke: #b0b0b0; stroke-opacity: 0.3; stroke-width: 0.8; stroke-linecap: square"/>
     </g>
     <g id="line2d_10">
      <g>
       <use xlink:href="#m9991f8eb53" x="411.677295" y="529.308125" style="stroke: #000000; stroke-width: 0.8"/>
      </g>
     </g>
     <g id="text_5">
      <text style="font: 10px 'DejaVu Sans', 'Bitstream Vera Sans', 'Computer Modern Sans Serif', 'Lucida Grande', 'Verdana', 'Geneva', 'Lucid', 'Arial', 'Helvetica', 'Avant Garde', sans-serif; text-anchor: middle" x="411.677295" y="543.906563" transform="rotate(-0 411.677295 543.906563)">90</text>
     </g>
    </g>
    <g id="xtick_6">
     <g id="line2d_11">
      <path d="M 495.355258 529.308125 
L 495.355258 23.837812 
" clip-path="url(#pee4db65a2b)" style="fill: none; stroke: #b0b0b0; stroke-opacity: 0.3; stroke-width: 0.8; stroke-linecap: square"/>
     </g>
     <g id="line2d_12">
      <g>
       <use xlink:href="#m9991f8eb53" x="495.355258" y="529.308125" style="stroke: #000000; stroke-width: 0.8"/>
      </g>
     </g>
     <g id="text_6">
      <text style="font: 10px 'DejaVu Sans', 'Bitstream Vera Sans', 'Computer Modern Sans Serif', 'Lucida Grande', 'Verdana', 'Geneva', 'Lucid', 'Arial', 'Helvetica', 'Avant Garde', sans-serif; text-anchor: middle" x="495.355258" y="543.906563" transform="rotate(-0 495.355258 543.906563)">95</text>
     </g>
    </g>
    <g id="xtick_7">
     <g id="line2d_13">
      <path d="M 579.03322 529.308125 
L 579.03322 23.837812 
" clip-path="url(#pee4db65a2b)" style="fill: none; stroke: #b0b0b0; stroke-opacity: 0.3; stroke-width: 0.8; stroke-linecap: square"/>
     </g>
     <g id="line2d_14">
      <g>
       <use xlink:href="#m9991f8eb53" x="579.03322" y="529.308125" style="stroke: #000000; stroke-width: 0.8"/>
      </g>
     </g>
     <g id="text_7">
      <text style="font: 10px 'DejaVu Sans', 'Bitstream Vera Sans', 'Computer Modern Sans Serif', 'Lucida Grande', 'Verdana', 'Geneva', 'Lucid', 'Arial', 'Helvetica', 'Avant Garde', sans-serif; text-anchor: middle" x="579.03322" y="543.906563" transform="rotate(-0 579.03322 543.906563)">100</text>
     </g>
    </g>
    <g id="xtick_8">
     <g id="line2d_15">
      <path d="M 662.711183 529.308125 
L 662.711183 23.837812 
" clip-path="url(#pee4db65a2b)" style="fill: none; stroke: #b0b0b0; stroke-opacity: 0.3; stroke-width: 0.8; stroke-linecap: square"/>
     </g>
     <g id="line2d_16">
      <g>
       <use xlink:href="#m9991f8eb53" x="662.711183" y="529.308125" style="stroke: #000000; stroke-width: 0.8"/>
      </g>
     </g>
     <g id="text_8">
      <text style="font: 10px 'DejaVu Sans', 'Bitstream Vera Sans', 'Computer Modern Sans Serif', 'Lucida Grande', 'Verdana', 'Geneva', 'Lucid', 'Arial', 'Helvetica', 'Avant Garde', sans-serif; text-anchor: middle" x="662.711183" y="543.906563" transform="rotate(-0 662.711183 543.906563)">105</text>
     </g>
    </g>
    <g id="text_9">
     <text style="font: 12px 'DejaVu Sans', 'Bitstream Vera Sans', 'Computer Modern Sans Serif', 'Lucida Grande', 'Verdana', 'Geneva', 'Lucid', 'Arial', 'Helvetica', 'Avant Garde', sans-serif; text-anchor: middle" x="386.573906" y="559.104375" transform="rotate(-0 386.573906 559.104375)">Build Number</text>
    </g>
   </g>
   <g id="matplotlib.axis_2">
    <g id="ytick_1">
     <g id="line2d_17">
      <path d="M 64.41375 334.291639 
L 708.734063 334.291639 
" clip-path="url(#pee4db65a2b)" style="fill: none; stroke: #b0b0b0; stroke-opacity: 0.3; stroke-width: 0.8; stroke-linecap: square"/>
     </g>
     <g id="line2d_18">
      <defs>
       <path id="me5b9c9d003" d="M 0 0 
L -3.5 0 
" style="stroke: #000000; stroke-width: 0.8"/>
      </defs>
      <g>
       <use xlink:href="#me5b9c9d003" x="64.41375" y="334.291639" style="stroke: #000000; stroke-width: 0.8"/>
      </g>
     </g>
     <g id="text_10">
      <!-- $\mathdefault{10^{5}}$ -->
      <g transform="translate(39.81375 338.090858)">
       <text>
        <tspan style="font: 10px 'DejaVu Sans'" x="0 6.362305" y="-0.06406250000000036">10</tspan>
        <tspan style="font: 7px 'DejaVu Sans'" x="12.820312" y="-3.8921875000000004">5</tspan>
       </text>
      </g>
     </g>
    </g>
    <g id="ytick_2">
     <g id="line2d_19">
      <defs>
       <path id="m834a3ed1f8" d="M 0 0 
L -2 0 
" style="stroke: #000000; stroke-width: 0.6"/>
      </defs>
      <g>
       <use xlink:href="#m834a3ed1f8" x="64.41375" y="505.7097" style="stroke: #000000; stroke-width: 0.6"/>
      </g>
     </g>
     <g id="text_11">
      <!-- $\mathdefault{6\times10^{4}}$ -->
      <g transform="translate(22.81375 509.508919)">
       <text>
        <tspan style="font: 10px 'DejaVu Sans'" x="0 8.310547 18.637695 25" y="-0.06406250000000036">6×10</tspan>
        <tspan style="font: 7px 'DejaVu Sans'" x="31.458008" y="-3.8921875000000004">4</tspan>
       </text>
      </g>
     </g>
    </g>
    <g id="ytick_3">
     <g id="line2d_20">
      <g>
       <use xlink:href="#m834a3ed1f8" x="64.41375" y="453.981264" style="stroke: #000000; stroke-width: 0.6"/>
      </g>
     </g>
    </g>
    <g id="ytick_4">
     <g id="line2d_21">
      <g>
       <use xlink:href="#m834a3ed1f8" x="64.41375" y="409.172055" style="stroke: #000000; stroke-width: 0.6"/>
      </g>
     </g>
    </g>
    <g id="ytick_5">
     <g id="line2d_22">
      <g>
       <use xlink:href="#m834a3ed1f8" x="64.41375" y="369.647531" style="stroke: #000000; stroke-width: 0.6"/>
      </g>
     </g>
    </g>
    <g id="ytick_6">
     <g id="line2d_23">
      <g>
       <use xlink:href="#m834a3ed1f8" x="64.41375" y="101.691823" style="stroke: #000000; stroke-width: 0.6"/>
      </g>
     </g>
     <g id="text_12">
      <!-- $\mathdefault{2\times10^{5}}$ -->
      <g transform="translate(22.81375 105.491042)">
       <text>
        <tspan style="font: 10px 'DejaVu Sans'" x="0 8.310547 18.637695 25" y="-0.06406250000000036">2×10</tspan>
        <tspan style="font: 7px 'DejaVu Sans'" x="31.458008" y="-3.8921875000000004">5</tspan>
       </text>
      </g>
     </g>
    </g>
    <g id="text_13">
     <text style="font: 12px 'DejaVu Sans', 'Bitstream Vera Sans', 'Computer Modern Sans Serif', 'Lucida Grande', 'Verdana', 'Geneva', 'Lucid', 'Arial', 'Helvetica', 'Avant Garde', sans-serif; text-anchor: middle" x="16.318125" y="276.572969" transform="rotate(-90 16.318125 276.572969)">Median Elapsed Time (nanoseconds)</text>
    </g>
   </g>
   <g id="line2d_24">
    <path d="M 93.701037 46.813736 
L 110.436629 191.993804 
L 127.172222 203.583288 
L 143.907815 226.939206 
L 160.643407 249.293351 
L 177.379 197.56458 
L 194.114592 217.514077 
L 210.850185 216.449271 
L 227.585777 213.414453 
L 244.32137 197.627325 
L 261.056962 255.061283 
L 277.792555 181.822836 
L 294.528147 48.546392 
L 311.26374 155.181473 
L 327.999332 255.056248 
L 344.734925 280.19621 
L 378.20611 250.483261 
L 394.941703 243.683337 
L 411.677295 243.288052 
L 428.412888 283.580852 
L 445.14848 283.575659 
L 461.884073 244.097042 
L 478.619665 245.4831 
L 495.355258 283.596143 
L 512.09085 244.026517 
L 528.826443 252.14706 
L 562.297628 107.746626 
L 579.03322 249.935013 
L 595.768813 47.122473 
L 612.504405 283.266816 
L 629.239998 237.087039 
L 645.975591 284.46166 
L 662.711183 243.282935 
L 679.446776 241.955645 
" clip-path="url(#pee4db65a2b)" style="fill: none; stroke: #1f77b4; stroke-width: 2; stroke-linecap: square"/>
    <defs>
     <path id="m2bfb49733d" d="M 0 3 
C 0.795609 3 1.55874 2.683901 2.12132 2.12132 
C 2.683901 1.55874 3 0.795609 3 0 
C 3 -0.795609 2.683901 -1.55874 2.12132 -2.12132 
C 1.55874 -2.683901 0.795609 -3 0 -3 
C -0.795609 -3 -1.55874 -2.683901 -2.12132 -2.12132 
C -2.683901 -1.55874 -3 -0.795609 -3 0 
C -3 0.795609 -2.683901 1.55874 -2.12132 2.12132 
C -1.55874 2.683901 -0.795609 3 0 3 
z
" style="stroke: #1f77b4"/>
    </defs>
    <g clip-path="url(#pee4db65a2b)">
     <use xlink:href="#m2bfb49733d" x="93.701037" y="46.813736" style="fill: #1f77b4; stroke: #1f77b4"/>
     <use xlink:href="#m2bfb49733d" x="110.436629" y="191.993804" style="fill: #1f77b4; stroke: #1f77b4"/>
     <use xlink:href="#m2bfb49733d" x="127.172222" y="203.583288" style="fill: #1f77b4; stroke: #1f77b4"/>
     <use xlink:href="#m2bfb49733d" x="143.907815" y="226.939206" style="fill: #1f77b4; stroke: #1f77b4"/>
     <use xlink:href="#m2bfb49733d" x="160.643407" y="249.293351" style="fill: #1f77b4; stroke: #1f77b4"/>
     <use xlink:href="#m2bfb49733d" x="177.379" y="197.56458" style="fill: #1f77b4; stroke: #1f77b4"/>
     <use xlink:href="#m2bfb49733d" x="194.114592" y="217.514077" style="fill: #1f77b4; stroke: #1f77b4"/>
     <use xlink:href="#m2bfb49733d" x="210.850185" y="216.449271" style="fill: #1f77b4; stroke: #1f77b4"/>
     <use xlink:href="#m2bfb49733d" x="227.585777" y="213.414453" style="fill: #1f77b4; stroke: #1f77b4"/>
     <use xlink:href="#m2bfb49733d" x="244.32137" y="197.627325" style="fill: #1f77b4; stroke: #1f77b4"/>
     <use xlink:href="#m2bfb49733d" x="261.056962" y="255.061283" style="fill: #1f77b4; stroke: #1f77b4"/>
     <use xlink:href="#m2bfb49733d" x="277.792555" y="181.822836" style="fill: #1f77b4; stroke: #1f77b4"/>
     <use xlink:href="#m2bfb49733d" x="294.528147" y="48.546392" style="fill: #1f77b4; stroke: #1f77b4"/>
     <use xlink:href="#m2bfb49733d" x="311.26374" y="155.181473" style="fill: #1f77b4; stroke: #1f77b4"/>
     <use xlink:href="#m2bfb49733d" x="327.999332" y="255.056248" style="fill: #1f77b4; stroke: #1f77b4"/>
     <use xlink:href="#m2bfb49733d" x="344.734925" y="280.19621" style="fill: #1f77b4; stroke: #1f77b4"/>
     <use xlink:href="#m2bfb49733d" x="378.20611" y="250.483261" style="fill: #1f77b4; stroke: #1f77b4"/>
     <use xlink:href="#m2bfb49733d" x="394.941703" y="243.683337" style="fill: #1f77b4; stroke: #1f77b4"/>
     <use xlink:href="#m2bfb49733d" x="411.677295" y="243.288052" style="fill: #1f77b4; stroke: #1f77b4"/>
     <use xlink:href="#m2bfb49733d" x="428.412888" y="283.580852" style="fill: #1f77b4; stroke: #1f77b4"/>
     <use xlink:href="#m2bfb49733d" x="445.14848" y="283.575659" style="fill: #1f77b4; stroke: #1f77b4"/>
     <use xlink:href="#m2bfb49733d" x="461.884073" y="244.097042" style="fill: #1f77b4; stroke: #1f77b4"/>
     <use xlink:href="#m2bfb49733d" x="478.619665" y="245.4831" style="fill: #1f77b4; stroke: #1f77b4"/>
     <use xlink:href="#m2bfb49733d" x="495.355258" y="283.596143" style="fill: #1f77b4; stroke: #1f77b4"/>
     <use xlink:href="#m2bfb49733d" x="512.09085" y="244.026517" style="fill: #1f77b4; stroke: #1f77b4"/>
     <use xlink:href="#m2bfb49733d" x="528.826443" y="252.14706" style="fill: #1f77b4; stroke: #1f77b4"/>
     <use xlink:href="#m2bfb49733d" x="562.297628" y="107.746626" style="fill: #1f77b4; stroke: #1f77b4"/>
     <use xlink:href="#m2bfb49733d" x="579.03322" y="249.935013" style="fill: #1f77b4; stroke: #1f77b4"/>
     <use xlink:href="#m2bfb49733d" x="595.768813" y="47.122473" style="fill: #1f77b4; stroke: #1f77b4"/>
     <use xlink:href="#m2bfb49733d" x="612.504405" y="283.266816" style="fill: #1f77b4; stroke: #1f77b4"/>
     <use xlink:href="#m2bfb49733d" x="629.239998" y="237.087039" style="fill: #1f77b4; stroke: #1f77b4"/>
     <use xlink:href="#m2bfb49733d" x="645.975591" y="284.46166" style="fill: #1f77b4; stroke: #1f77b4"/>
     <use xlink:href="#m2bfb49733d" x="662.711183" y="243.282935" style="fill: #1f77b4; stroke: #1f77b4"/>
     <use xlink:href="#m2bfb49733d" x="679.446776" y="241.955645" style="fill: #1f77b4; stroke: #1f77b4"/>
    </g>
   </g>
   <g id="line2d_25">
    <path d="M 93.701037 240.963675 
L 110.436629 243.863598 
L 127.172222 244.090117 
L 143.907815 246.102545 
L 160.643407 239.261485 
L 177.379 244.568784 
L 194.114592 239.50832 
L 210.850185 247.747045 
L 227.585777 241.093226 
L 244.32137 247.539422 
L 261.056962 242.14731 
L 277.792555 245.28202 
L 294.528147 248.914302 
L 311.26374 244.728064 
L 327.999332 249.45098 
L 344.734925 239.165431 
L 378.20611 244.109353 
L 394.941703 241.526717 
L 411.677295 244.443983 
L 428.412888 247.414482 
L 445.14848 239.866502 
L 461.884073 237.098844 
L 478.619665 237.606123 
L 495.355258 235.646113 
L 512.09085 280.614175 
L 528.826443 247.512733 
L 562.297628 279.756862 
L 579.03322 281.661443 
L 595.768813 280.709844 
L 612.504405 280.122753 
L 629.239998 279.068518 
L 645.975591 280.640628 
L 662.711183 279.542799 
L 679.446776 279.805152 
" clip-path="url(#pee4db65a2b)" style="fill: none; stroke: #ff7f0e; stroke-width: 2; stroke-linecap: square"/>
    <defs>
     <path id="m7a5abf28e9" d="M 0 3 
C 0.795609 3 1.55874 2.683901 2.12132 2.12132 
C 2.683901 1.55874 3 0.795609 3 0 
C 3 -0.795609 2.683901 -1.55874 2.12132 -2.12132 
C 1.55874 -2.683901 0.795609 -3 0 -3 
C -0.795609 -3 -1.55874 -2.683901 -2.12132 -2.12132 
C -2.683901 -1.55874 -3 -0.795609 -3 0 
C -3 0.795609 -2.683901 1.55874 -2.12132 2.12132 
C -1.55874 2.683901 -0.795609 3 0 3 
z
" style="stroke: #ff7f0e"/>
    </defs>
    <g clip-path="url(#pee4db65a2b)">
     <use xlink:href="#m7a5abf28e9" x="93.701037" y="240.963675" style="fill: #ff7f0e; stroke: #ff7f0e"/>
     <use xlink:href="#m7a5abf28e9" x="110.436629" y="243.863598" style="fill: #ff7f0e; stroke: #ff7f0e"/>
     <use xlink:href="#m7a5abf28e9" x="127.172222" y="244.090117" style="fill: #ff7f0e; stroke: #ff7f0e"/>
     <use xlink:href="#m7a5abf28e9" x="143.907815" y="246.102545" style="fill: #ff7f0e; stroke: #ff7f0e"/>
     <use xlink:href="#m7a5abf28e9" x="160.643407" y="239.261485" style="fill: #ff7f0e; stroke: #ff7f0e"/>
     <use xlink:href="#m7a5abf28e9" x="177.379" y="244.568784" style="fill: #ff7f0e; stroke: #ff7f0e"/>
     <use xlink:href="#m7a5abf28e9" x="194.114592" y="239.50832" style="fill: #ff7f0e; stroke: #ff7f0e"/>
     <use xlink:href="#m7a5abf28e9" x="210.850185" y="247.747045" style="fill: #ff7f0e; stroke: #ff7f0e"/>
     <use xlink:href="#m7a5abf28e9" x="227.585777" y="241.093226" style="fill: #ff7f0e; stroke: #ff7f0e"/>
     <use xlink:href="#m7a5abf28e9" x="244.32137" y="247.539422" style="fill: #ff7f0e; stroke: #ff7f0e"/>
     <use xlink:href="#m7a5abf28e9" x="261.056962" y="242.14731" style="fill: #ff7f0e; stroke: #ff7f0e"/>
     <use xlink:href="#m7a5abf28e9" x="277.792555" y="245.28202" style="fill: #ff7f0e; stroke: #ff7f0e"/>
     <use xlink:href="#m7a5abf28e9" x="294.528147" y="248.914302" style="fill: #ff7f0e; stroke: #ff7f0e"/>
     <use xlink:href="#m7a5abf28e9" x="311.26374" y="244.728064" style="fill: #ff7f0e; stroke: #ff7f0e"/>
     <use xlink:href="#m7a5abf28e9" x="327.999332" y="249.45098" style="fill: #ff7f0e; stroke: #ff7f0e"/>
     <use xlink:href="#m7a5abf28e9" x="344.734925" y="239.165431" style="fill: #ff7f0e; stroke: #ff7f0e"/>
     <use xlink:href="#m7a5abf28e9" x="378.20611" y="244.109353" style="fill: #ff7f0e; stroke: #ff7f0e"/>
     <use xlink:href="#m7a5abf28e9" x="394.941703" y="241.526717" style="fill: #ff7f0e; stroke: #ff7f0e"/>
     <use xlink:href="#m7a5abf28e9" x="411.677295" y="244.443983" style="fill: #ff7f0e; stroke: #ff7f0e"/>
     <use xlink:href="#m7a5abf28e9" x="428.412888" y="247.414482" style="fill: #ff7f0e; stroke: #ff7f0e"/>
     <use xlink:href="#m7a5abf28e9" x="445.14848" y="239.866502" style="fill: #ff7f0e; stroke: #ff7f0e"/>
     <use xlink:href="#m7a5abf28e9" x="461.884073" y="237.098844" style="fill: #ff7f0e; stroke: #ff7f0e"/>
     <use xlink:href="#m7a5abf28e9" x="478.619665" y="237.606123" style="fill: #ff7f0e; stroke: #ff7f0e"/>
     <use xlink:href="#m7a5abf28e9" x="495.355258" y="235.646113" style="fill: #ff7f0e; stroke: #ff7f0e"/>
     <use xlink:href="#m7a5abf28e9" x="512.09085" y="280.614175" style="fill: #ff7f0e; stroke: #ff7f0e"/>
     <use xlink:href="#m7a5abf28e9" x="528.826443" y="247.512733" style="fill: #ff7f0e; stroke: #ff7f0e"/>
     <use xlink:href="#m7a5abf28e9" x="562.297628" y="279.756862" style="fill: #ff7f0e; stroke: #ff7f0e"/>
     <use xlink:href="#m7a5abf28e9" x="579.03322" y="281.661443" style="fill: #ff7f0e; stroke: #ff7f0e"/>
     <use xlink:href="#m7a5abf28e9" x="595.768813" y="280.709844" style="fill: #ff7f0e; stroke: #ff7f0e"/>
     <use xlink:href="#m7a5abf28e9" x="612.504405" y="280.122753" style="fill: #ff7f0e; stroke: #ff7f0e"/>
     <use xlink:href="#m7a5abf28e9" x="629.239998" y="279.068518" style="fill: #ff7f0e; stroke: #ff7f0e"/>
     <use xlink:href="#m7a5abf28e9" x="645.975591" y="280.640628" style="fill: #ff7f0e; stroke: #ff7f0e"/>
     <use xlink:href="#m7a5abf28e9" x="662.711183" y="279.542799" style="fill: #ff7f0e; stroke: #ff7f0e"/>
     <use xlink:href="#m7a5abf28e9" x="679.446776" y="279.805152" style="fill: #ff7f0e; stroke: #ff7f0e"/>
    </g>
   </g>
   <g id="line2d_26">
    <path d="M 93.701037 414.551779 
L 110.436629 497.463966 
L 127.172222 414.97317 
L 143.907815 486.590358 
L 160.643407 488.58483 
L 177.379 494.968464 
L 194.114592 431.17622 
L 210.850185 259.841298 
L 227.585777 504.165161 
L 244.32137 502.411088 
L 261.056962 448.322626 
L 277.792555 415.961606 
L 294.528147 472.805361 
L 327.999332 490.422322 
L 344.734925 432.542825 
L 378.20611 506.332202 
L 394.941703 259.267362 
L 411.677295 486.236577 
L 428.412888 481.772945 
L 445.14848 501.586919 
L 478.619665 503.321129 
L 495.355258 460.778799 
L 512.09085 459.561443 
L 528.826443 479.86882 
L 562.297628 480.855226 
L 579.03322 500.319467 
L 595.768813 505.890118 
L 612.504405 501.949525 
L 629.239998 487.90366 
L 645.975591 260.377715 
L 662.711183 480.387571 
L 679.446776 503.662823 
" clip-path="url(#pee4db65a2b)" style="fill: none; stroke: #2ca02c; stroke-width: 2; stroke-linecap: square"/>
    <defs>
     <path id="mc6101ce728" d="M 0 3 
C 0.795609 3 1.55874 2.683901 2.12132 2.12132 
C 2.683901 1.55874 3 0.795609 3 0 
C 3 -0.795609 2.683901 -1.55874 2.12132 -2.12132 
C 1.55874 -2.683901 0.795609 -3 0 -3 
C -0.795609 -3 -1.55874 -2.683901 -2.12132 -2.12132 
C -2.683901 -1.55874 -3 -0.795609 -3 0 
C -3 0.795609 -2.683901 1.55874 -2.12132 2.12132 
C -1.55874 2.683901 -0.795609 3 0 3 
z
" style="stroke: #2ca02c"/>
    </defs>
    <g clip-path="url(#pee4db65a2b)">
     <use xlink:href="#mc6101ce728" x="93.701037" y="414.551779" style="fill: #2ca02c; stroke: #2ca02c"/>
     <use xlink:href="#mc6101ce728" x="110.436629" y="497.463966" style="fill: #2ca02c; stroke: #2ca02c"/>
     <use xlink:href="#mc6101ce728" x="127.172222" y="414.97317" style="fill: #2ca02c; stroke: #2ca02c"/>
     <use xlink:href="#mc6101ce728" x="143.907815" y="486.590358" style="fill: #2ca02c; stroke: #2ca02c"/>
     <use xlink:href="#mc6101ce728" x="160.643407" y="488.58483" style="fill: #2ca02c; stroke: #2ca02c"/>
     <use xlink:href="#mc6101ce728" x="177.379" y="494.968464" style="fill: #2ca02c; stroke: #2ca02c"/>
     <use xlink:href="#mc6101ce728" x="194.114592" y="431.17622" style="fill: #2ca02c; stroke: #2ca02c"/>
     <use xlink:href="#mc6101ce728" x="210.850185" y="259.841298" style="fill: #2ca02c; stroke: #2ca02c"/>
     <use xlink:href="#mc6101ce728" x="227.585777" y="504.165161" style="fill: #2ca02c; stroke: #2ca02c"/>
     <use xlink:href="#mc6101ce728" x="244.32137" y="502.411088" style="fill: #2ca02c; stroke: #2ca02c"/>
     <use xlink:href="#mc6101ce728" x="261.056962" y="448.322626" style="fill: #2ca02c; stroke: #2ca02c"/>
     <use xlink:href="#mc6101ce728" x="277.792555" y="415.961606" style="fill: #2ca02c; stroke: #2ca02c"/>
     <use xlink:href="#mc6101ce728" x="294.528147" y="472.805361" style="fill: #2ca02c; stroke: #2ca02c"/>
     <use xlink:href="#mc6101ce728" x="327.999332" y="490.422322" style="fill: #2ca02c; stroke: #2ca02c"/>
     <use xlink:href="#mc6101ce728" x="344.734925" y="432.542825" style="fill: #2ca02c; stroke: #2ca02c"/>
     <use xlink:href="#mc6101ce728" x="378.20611" y="506.332202" style="fill: #2ca02c; stroke: #2ca02c"/>
     <use xlink:href="#mc6101ce728" x="394.941703" y="259.267362" style="fill: #2ca02c; stroke: #2ca02c"/>
     <use xlink:href="#mc6101ce728" x="411.677295" y="486.236577" style="fill: #2ca02c; stroke: #2ca02c"/>
     <use xlink:href="#mc6101ce728" x="428.412888" y="481.772945" style="fill: #2ca02c; stroke: #2ca02c"/>
     <use xlink:href="#mc6101ce728" x="445.14848" y="501.586919" style="fill: #2ca02c; stroke: #2ca02c"/>
     <use xlink:href="#mc6101ce728" x="478.619665" y="503.321129" style="fill: #2ca02c; stroke: #2ca02c"/>
     <use xlink:href="#mc6101ce728" x="495.355258" y="460.778799" style="fill: #2ca02c; stroke: #2ca02c"/>
     <use xlink:href="#mc6101ce728" x="512.09085" y="459.561443" style="fill: #2ca02c; stroke: #2ca02c"/>
     <use xlink:href="#mc6101ce728" x="528.826443" y="479.86882" style="fill: #2ca02c; stroke: #2ca02c"/>
     <use xlink:href="#mc6101ce728" x="562.297628" y="480.855226" style="fill: #2ca02c; stroke: #2ca02c"/>
     <use xlink:href="#mc6101ce728" x="579.03322" y="500.319467" style="fill: #2ca02c; stroke: #2ca02c"/>
     <use xlink:href="#mc6101ce728" x="595.768813" y="505.890118" style="fill: #2ca02c; stroke: #2ca02c"/>
     <use xlink:href="#mc6101ce728" x="612.504405" y="501.949525" style="fill: #2ca02c; stroke: #2ca02c"/>
     <use xlink:href="#mc6101ce728" x="629.239998" y="487.90366" style="fill: #2ca02c; stroke: #2ca02c"/>
     <use xlink:href="#mc6101ce728" x="645.975591" y="260.377715" style="fill: #2ca02c; stroke: #2ca02c"/>
     <use xlink:href="#mc6101ce728" x="662.711183" y="480.387571" style="fill: #2ca02c; stroke: #2ca02c"/>
     <use xlink:href="#mc6101ce728" x="679.446776" y="503.662823" style="fill: #2ca02c; stroke: #2ca02c"/>
    </g>
   </g>
   <g id="line2d_27">
    <path d="M 93.701037 459.866222 
L 110.436629 455.143871 
L 127.172222 459.420607 
L 143.907815 457.27833 
L 160.643407 460.575215 
L 177.379 466.993507 
L 194.114592 458.812133 
L 210.850185 457.180552 
L 227.585777 460.001714 
L 244.32137 457.742438 
L 261.056962 461.889521 
L 277.792555 465.712231 
L 294.528147 421.868996 
L 327.999332 457.412458 
L 344.734925 454.1049 
L 378.20611 488.92886 
L 394.941703 458.206217 
L 411.677295 456.170075 
L 428.412888 461.129246 
L 445.14848 463.233246 
L 478.619665 459.084593 
L 495.355258 457.457502 
L 512.09085 478.796034 
L 528.826443 480.720181 
L 562.297628 466.047993 
L 579.03322 478.470998 
L 595.768813 479.912321 
L 612.504405 480.445663 
L 629.239998 480.535415 
L 645.975591 481.301371 
L 662.711183 479.19993 
L 679.446776 481.650745 
" clip-path="url(#pee4db65a2b)" style="fill: none; stroke: #d62728; stroke-width: 2; stroke-linecap: square"/>
    <defs>
     <path id="m250c0e02c1" d="M 0 3 
C 0.795609 3 1.55874 2.683901 2.12132 2.12132 
C 2.683901 1.55874 3 0.795609 3 0 
C 3 -0.795609 2.683901 -1.55874 2.12132 -2.12132 
C 1.55874 -2.683901 0.795609 -3 0 -3 
C -0.795609 -3 -1.55874 -2.683901 -2.12132 -2.12132 
C -2.683901 -1.55874 -3 -0.795609 -3 0 
C -3 0.795609 -2.683901 1.55874 -2.12132 2.12132 
C -1.55874 2.683901 -0.795609 3 0 3 
z
" style="stroke: #d62728"/>
    </defs>
    <g clip-path="url(#pee4db65a2b)">
     <use xlink:href="#m250c0e02c1" x="93.701037" y="459.866222" style="fill: #d62728; stroke: #d62728"/>
     <use xlink:href="#m250c0e02c1" x="110.436629" y="455.143871" style="fill: #d62728; stroke: #d62728"/>
     <use xlink:href="#m250c0e02c1" x="127.172222" y="459.420607" style="fill: #d62728; stroke: #d62728"/>
     <use xlink:href="#m250c0e02c1" x="143.907815" y="457.27833" style="fill: #d62728; stroke: #d62728"/>
     <use xlink:href="#m250c0e02c1" x="160.643407" y="460.575215" style="fill: #d62728; stroke: #d62728"/>
     <use xlink:href="#m250c0e02c1" x="177.379" y="466.993507" style="fill: #d62728; stroke: #d62728"/>
     <use xlink:href="#m250c0e02c1" x="194.114592" y="458.812133" style="fill: #d62728; stroke: #d62728"/>
     <use xlink:href="#m250c0e02c1" x="210.850185" y="457.180552" style="fill: #d62728; stroke: #d62728"/>
     <use xlink:href="#m250c0e02c1" x="227.585777" y="460.001714" style="fill: #d62728; stroke: #d62728"/>
     <use xlink:href="#m250c0e02c1" x="244.32137" y="457.742438" style="fill: #d62728; stroke: #d62728"/>
     <use xlink:href="#m250c0e02c1" x="261.056962" y="461.889521" style="fill: #d62728; stroke: #d62728"/>
     <use xlink:href="#m250c0e02c1" x="277.792555" y="465.712231" style="fill: #d62728; stroke: #d62728"/>
     <use xlink:href="#m250c0e02c1" x="294.528147" y="421.868996" style="fill: #d62728; stroke: #d62728"/>
     <use xlink:href="#m250c0e02c1" x="327.999332" y="457.412458" style="fill: #d62728; stroke: #d62728"/>
     <use xlink:href="#m250c0e02c1" x="344.734925" y="454.1049" style="fill: #d62728; stroke: #d62728"/>
     <use xlink:href="#m250c0e02c1" x="378.20611" y="488.92886" style="fill: #d62728; stroke: #d62728"/>
     <use xlink:href="#m250c0e02c1" x="394.941703" y="458.206217" style="fill: #d62728; stroke: #d62728"/>
     <use xlink:href="#m250c0e02c1" x="411.677295" y="456.170075" style="fill: #d62728; stroke: #d62728"/>
     <use xlink:href="#m250c0e02c1" x="428.412888" y="461.129246" style="fill: #d62728; stroke: #d62728"/>
     <use xlink:href="#m250c0e02c1" x="445.14848" y="463.233246" style="fill: #d62728; stroke: #d62728"/>
     <use xlink:href="#m250c0e02c1" x="478.619665" y="459.084593" style="fill: #d62728; stroke: #d62728"/>
     <use xlink:href="#m250c0e02c1" x="495.355258" y="457.457502" style="fill: #d62728; stroke: #d62728"/>
     <use xlink:href="#m250c0e02c1" x="512.09085" y="478.796034" style="fill: #d62728; stroke: #d62728"/>
     <use xlink:href="#m250c0e02c1" x="528.826443" y="480.720181" style="fill: #d62728; stroke: #d62728"/>
     <use xlink:href="#m250c0e02c1" x="562.297628" y="466.047993" style="fill: #d62728; stroke: #d62728"/>
     <use xlink:href="#m250c0e02c1" x="579.03322" y="478.470998" style="fill: #d62728; stroke: #d62728"/>
     <use xlink:href="#m250c0e02c1" x="595.768813" y="479.912321" style="fill: #d62728; stroke: #d62728"/>
     <use xlink:href="#m250c0e02c1" x="612.504405" y="480.445663" style="fill: #d62728; stroke: #d62728"/>
     <use xlink:href="#m250c0e02c1" x="629.239998" y="480.535415" style="fill: #d62728; stroke: #d62728"/>
     <use xlink:href="#m250c0e02c1" x="645.975591" y="481.301371" style="fill: #d62728; stroke: #d62728"/>
     <use xlink:href="#m250c0e02c1" x="662.711183" y="479.19993" style="fill: #d62728; stroke: #d62728"/>
     <use xlink:href="#m250c0e02c1" x="679.446776" y="481.650745" style="fill: #d62728; stroke: #d62728"/>
    </g>
   </g>
   <g id="patch_3">
    <path d="M 64.41375 529.308125 
L 64.41375 23.837813 
" style="fill: none; stroke: #000000; stroke-width: 0.8; stroke-linejoin: miter; stroke-linecap: square"/>
   </g>
   <g id="patch_4">
    <path d="M 708.734063 529.308125 
L 708.734063 23.837813 
" style="fill: none; stroke: #000000; stroke-width: 0.8; stroke-linejoin: miter; stroke-linecap: square"/>
   </g>
   <g id="patch_5">
    <path d="M 64.41375 529.308125 
L 708.734062 529.308125 
" style="fill: none; stroke: #000000; stroke-width: 0.8; stroke-linejoin: miter; stroke-linecap: square"/>
   </g>
   <g id="patch_6">
    <path d="M 64.41375 23.837812 
L 708.734062 23.837812 
" style="fill: none; stroke: #000000; stroke-width: 0.8; stroke-linejoin: miter; stroke-linecap: square"/>
   </g>
   <g id="text_14">
    <text style="font: 700 14px 'DejaVu Sans', 'Bitstream Vera Sans', 'Computer Modern Sans Serif', 'Lucida Grande', 'Verdana', 'Geneva', 'Lucid', 'Arial', 'Helvetica', 'Avant Garde', sans-serif; text-anchor: middle" x="386.573906" y="17.837813" transform="rotate(-0 386.573906 17.837813)">Nestedparallel - Performance Trend</text>
   </g>
   <g id="legend_1">
    <g id="patch_7">
     <path d="M 747.950078 90.550312 
L 846.336016 90.550312 
Q 848.336016 90.550312 848.336016 88.550312 
L 848.336016 30.837812 
Q 848.336016 28.837812 846.336016 28.837812 
L 747.950078 28.837812 
Q 745.950078 28.837812 745.950078 30.837812 
L 745.950078 88.550312 
Q 745.950078 90.550312 747.950078 90.550312 
z
" style="fill: #ffffff; opacity: 0.8; stroke: #cccccc; stroke-linejoin: miter"/>
    </g>
    <g id="line2d_28">
     <path d="M 749.950078 36.93625 
L 759.950078 36.93625 
L 769.950078 36.93625 
" style="fill: none; stroke: #1f77b4; stroke-width: 2; stroke-linecap: square"/>
     <g>
      <use xlink:href="#m2bfb49733d" x="759.950078" y="36.93625" style="fill: #1f77b4; stroke: #1f77b4"/>
     </g>
    </g>
    <g id="text_15">
     <text style="font: 10px 'DejaVu Sans', 'Bitstream Vera Sans', 'Computer Modern Sans Serif', 'Lucida Grande', 'Verdana', 'Geneva', 'Lucid', 'Arial', 'Helvetica', 'Avant Garde', sans-serif; text-anchor: start" x="777.950078" y="40.43625" transform="rotate(-0 777.950078 40.43625)">gcc-14.2 - V1</text>
    </g>
    <g id="line2d_29">
     <path d="M 749.950078 51.614375 
L 759.950078 51.614375 
L 769.950078 51.614375 
" style="fill: none; stroke: #ff7f0e; stroke-width: 2; stroke-linecap: square"/>
     <g>
      <use xlink:href="#m7a5abf28e9" x="759.950078" y="51.614375" style="fill: #ff7f0e; stroke: #ff7f0e"/>
     </g>
    </g>
    <g id="text_16">
     <text style="font: 10px 'DejaVu Sans', 'Bitstream Vera Sans', 'Computer Modern Sans Serif', 'Lucida Grande', 'Verdana', 'Geneva', 'Lucid', 'Arial', 'Helvetica', 'Avant Garde', sans-serif; text-anchor: start" x="777.950078" y="55.114375" transform="rotate(-0 777.950078 55.114375)">gcc-14.2 - V2</text>
    </g>
    <g id="line2d_30">
     <path d="M 749.950078 66.2925 
L 759.950078 66.2925 
L 769.950078 66.2925 
" style="fill: none; stroke: #2ca02c; stroke-width: 2; stroke-linecap: square"/>
     <g>
      <use xlink:href="#mc6101ce728" x="759.950078" y="66.2925" style="fill: #2ca02c; stroke: #2ca02c"/>
     </g>
    </g>
    <g id="text_17">
     <text style="font: 10px 'DejaVu Sans', 'Bitstream Vera Sans', 'Computer Modern Sans Serif', 'Lucida Grande', 'Verdana', 'Geneva', 'Lucid', 'Arial', 'Helvetica', 'Avant Garde', sans-serif; text-anchor: start" x="777.950078" y="69.7925" transform="rotate(-0 777.950078 69.7925)">gcc-4.2 - V1</text>
    </g>
    <g id="line2d_31">
     <path d="M 749.950078 80.970625 
L 759.950078 80.970625 
L 769.950078 80.970625 
" style="fill: none; stroke: #d62728; stroke-width: 2; stroke-linecap: square"/>
     <g>
      <use xlink:href="#m250c0e02c1" x="759.950078" y="80.970625" style="fill: #d62728; stroke: #d62728"/>
     </g>
    </g>
    <g id="text_18">
     <text style="font: 10px 'DejaVu Sans', 'Bitstream Vera Sans', 'Computer Modern Sans Serif', 'Lucida Grande', 'Verdana', 'Geneva', 'Lucid', 'Arial', 'Helvetica', 'Avant Garde', sans-serif; text-anchor: start" x="777.950078" y="84.470625" transform="rotate(-0 777.950078 84.470625)">gcc-4.2 - V2</text>
    </g>
   </g>
  </g>
 </g>
 <defs>
  <clipPath id="pee4db65a2b">
   <rect x="64.41375" y="23.837813" width="644.320312" height="505.470313"/>
  </clipPath>
 </defs>
</svg>
