<?xml version="1.0" encoding="utf-8" standalone="no"?>
<!DOCTYPE svg PUBLIC "-//W3C//DTD SVG 1.1//EN"
  "http://www.w3.org/Graphics/SVG/1.1/DTD/svg11.dtd">
<svg xmlns:xlink="http://www.w3.org/1999/xlink" width="855.204687pt" height="568.8pt" viewBox="0 0 855.204687 568.8" xmlns="http://www.w3.org/2000/svg" version="1.1">
 <metadata>
  <rdf:RDF xmlns:dc="http://purl.org/dc/elements/1.1/" xmlns:cc="http://creativecommons.org/ns#" xmlns:rdf="http://www.w3.org/1999/02/22-rdf-syntax-ns#">
   <cc:Work>
    <dc:type rdf:resource="http://purl.org/dc/dcmitype/StillImage"/>
    <dc:date>2025-08-03T22:35:30.597136</dc:date>
    <dc:format>image/svg+xml</dc:format>
    <dc:creator>
     <cc:Agent>
      <dc:title>Matplotlib v3.9.4, https://matplotlib.org/</dc:title>
     </cc:Agent>
    </dc:creator>
   </cc:Work>
  </rdf:RDF>
 </metadata>
 <defs>
  <style type="text/css">*{stroke-linejoin: round; stroke-linecap: butt}</style>
 </defs>
 <g id="figure_1">
  <g id="patch_1">
   <path d="M 0 568.8 
L 855.204687 568.8 
L 855.204687 0 
L 0 0 
z
" style="fill: #ffffff"/>
  </g>
  <g id="axes_1">
   <g id="patch_2">
    <path d="M 64.41375 529.308125 
L 702.1075 529.308125 
L 702.1075 23.837812 
L 64.41375 23.837812 
z
" style="fill: #ffffff"/>
   </g>
   <g id="matplotlib.axis_1">
    <g id="xtick_1">
     <g id="line2d_1">
      <path d="M 93.39983 529.308125 
L 93.39983 23.837812 
" clip-path="url(#pd3aa28b7eb)" style="fill: none; stroke: #b0b0b0; stroke-opacity: 0.3; stroke-width: 0.8; stroke-linecap: square"/>
     </g>
     <g id="line2d_2">
      <defs>
       <path id="m8f8026e46c" d="M 0 0 
L 0 3.5 
" style="stroke: #000000; stroke-width: 0.8"/>
      </defs>
      <g>
       <use xlink:href="#m8f8026e46c" x="93.39983" y="529.308125" style="stroke: #000000; stroke-width: 0.8"/>
      </g>
     </g>
     <g id="text_1">
      <text style="font: 10px 'DejaVu Sans', 'Bitstream Vera Sans', 'Computer Modern Sans Serif', 'Lucida Grande', 'Verdana', 'Geneva', 'Lucid', 'Arial', 'Helvetica', 'Avant Garde', sans-serif; text-anchor: middle" x="93.39983" y="543.906563" transform="rotate(-0 93.39983 543.906563)">71</text>
     </g>
    </g>
    <g id="xtick_2">
     <g id="line2d_3">
      <path d="M 165.865028 529.308125 
L 165.865028 23.837812 
" clip-path="url(#pd3aa28b7eb)" style="fill: none; stroke: #b0b0b0; stroke-opacity: 0.3; stroke-width: 0.8; stroke-linecap: square"/>
     </g>
     <g id="line2d_4">
      <g>
       <use xlink:href="#m8f8026e46c" x="165.865028" y="529.308125" style="stroke: #000000; stroke-width: 0.8"/>
      </g>
     </g>
     <g id="text_2">
      <text style="font: 10px 'DejaVu Sans', 'Bitstream Vera Sans', 'Computer Modern Sans Serif', 'Lucida Grande', 'Verdana', 'Geneva', 'Lucid', 'Arial', 'Helvetica', 'Avant Garde', sans-serif; text-anchor: middle" x="165.865028" y="543.906563" transform="rotate(-0 165.865028 543.906563)">72</text>
     </g>
    </g>
    <g id="xtick_3">
     <g id="line2d_5">
      <path d="M 238.330227 529.308125 
L 238.330227 23.837812 
" clip-path="url(#pd3aa28b7eb)" style="fill: none; stroke: #b0b0b0; stroke-opacity: 0.3; stroke-width: 0.8; stroke-linecap: square"/>
     </g>
     <g id="line2d_6">
      <g>
       <use xlink:href="#m8f8026e46c" x="238.330227" y="529.308125" style="stroke: #000000; stroke-width: 0.8"/>
      </g>
     </g>
     <g id="text_3">
      <text style="font: 10px 'DejaVu Sans', 'Bitstream Vera Sans', 'Computer Modern Sans Serif', 'Lucida Grande', 'Verdana', 'Geneva', 'Lucid', 'Arial', 'Helvetica', 'Avant Garde', sans-serif; text-anchor: middle" x="238.330227" y="543.906563" transform="rotate(-0 238.330227 543.906563)">73</text>
     </g>
    </g>
    <g id="xtick_4">
     <g id="line2d_7">
      <path d="M 310.795426 529.308125 
L 310.795426 23.837812 
" clip-path="url(#pd3aa28b7eb)" style="fill: none; stroke: #b0b0b0; stroke-opacity: 0.3; stroke-width: 0.8; stroke-linecap: square"/>
     </g>
     <g id="line2d_8">
      <g>
       <use xlink:href="#m8f8026e46c" x="310.795426" y="529.308125" style="stroke: #000000; stroke-width: 0.8"/>
      </g>
     </g>
     <g id="text_4">
      <text style="font: 10px 'DejaVu Sans', 'Bitstream Vera Sans', 'Computer Modern Sans Serif', 'Lucida Grande', 'Verdana', 'Geneva', 'Lucid', 'Arial', 'Helvetica', 'Avant Garde', sans-serif; text-anchor: middle" x="310.795426" y="543.906563" transform="rotate(-0 310.795426 543.906563)">74</text>
     </g>
    </g>
    <g id="xtick_5">
     <g id="line2d_9">
      <path d="M 383.260625 529.308125 
L 383.260625 23.837812 
" clip-path="url(#pd3aa28b7eb)" style="fill: none; stroke: #b0b0b0; stroke-opacity: 0.3; stroke-width: 0.8; stroke-linecap: square"/>
     </g>
     <g id="line2d_10">
      <g>
       <use xlink:href="#m8f8026e46c" x="383.260625" y="529.308125" style="stroke: #000000; stroke-width: 0.8"/>
      </g>
     </g>
     <g id="text_5">
      <text style="font: 10px 'DejaVu Sans', 'Bitstream Vera Sans', 'Computer Modern Sans Serif', 'Lucida Grande', 'Verdana', 'Geneva', 'Lucid', 'Arial', 'Helvetica', 'Avant Garde', sans-serif; text-anchor: middle" x="383.260625" y="543.906563" transform="rotate(-0 383.260625 543.906563)">75</text>
     </g>
    </g>
    <g id="xtick_6">
     <g id="line2d_11">
      <path d="M 455.725824 529.308125 
L 455.725824 23.837812 
" clip-path="url(#pd3aa28b7eb)" style="fill: none; stroke: #b0b0b0; stroke-opacity: 0.3; stroke-width: 0.8; stroke-linecap: square"/>
     </g>
     <g id="line2d_12">
      <g>
       <use xlink:href="#m8f8026e46c" x="455.725824" y="529.308125" style="stroke: #000000; stroke-width: 0.8"/>
      </g>
     </g>
     <g id="text_6">
      <text style="font: 10px 'DejaVu Sans', 'Bitstream Vera Sans', 'Computer Modern Sans Serif', 'Lucida Grande', 'Verdana', 'Geneva', 'Lucid', 'Arial', 'Helvetica', 'Avant Garde', sans-serif; text-anchor: middle" x="455.725824" y="543.906563" transform="rotate(-0 455.725824 543.906563)">76</text>
     </g>
    </g>
    <g id="xtick_7">
     <g id="line2d_13">
      <path d="M 528.191023 529.308125 
L 528.191023 23.837812 
" clip-path="url(#pd3aa28b7eb)" style="fill: none; stroke: #b0b0b0; stroke-opacity: 0.3; stroke-width: 0.8; stroke-linecap: square"/>
     </g>
     <g id="line2d_14">
      <g>
       <use xlink:href="#m8f8026e46c" x="528.191023" y="529.308125" style="stroke: #000000; stroke-width: 0.8"/>
      </g>
     </g>
     <g id="text_7">
      <text style="font: 10px 'DejaVu Sans', 'Bitstream Vera Sans', 'Computer Modern Sans Serif', 'Lucida Grande', 'Verdana', 'Geneva', 'Lucid', 'Arial', 'Helvetica', 'Avant Garde', sans-serif; text-anchor: middle" x="528.191023" y="543.906563" transform="rotate(-0 528.191023 543.906563)">77</text>
     </g>
    </g>
    <g id="xtick_8">
     <g id="line2d_15">
      <path d="M 600.656222 529.308125 
L 600.656222 23.837812 
" clip-path="url(#pd3aa28b7eb)" style="fill: none; stroke: #b0b0b0; stroke-opacity: 0.3; stroke-width: 0.8; stroke-linecap: square"/>
     </g>
     <g id="line2d_16">
      <g>
       <use xlink:href="#m8f8026e46c" x="600.656222" y="529.308125" style="stroke: #000000; stroke-width: 0.8"/>
      </g>
     </g>
     <g id="text_8">
      <text style="font: 10px 'DejaVu Sans', 'Bitstream Vera Sans', 'Computer Modern Sans Serif', 'Lucida Grande', 'Verdana', 'Geneva', 'Lucid', 'Arial', 'Helvetica', 'Avant Garde', sans-serif; text-anchor: middle" x="600.656222" y="543.906563" transform="rotate(-0 600.656222 543.906563)">78</text>
     </g>
    </g>
    <g id="xtick_9">
     <g id="line2d_17">
      <path d="M 673.12142 529.308125 
L 673.12142 23.837812 
" clip-path="url(#pd3aa28b7eb)" style="fill: none; stroke: #b0b0b0; stroke-opacity: 0.3; stroke-width: 0.8; stroke-linecap: square"/>
     </g>
     <g id="line2d_18">
      <g>
       <use xlink:href="#m8f8026e46c" x="673.12142" y="529.308125" style="stroke: #000000; stroke-width: 0.8"/>
      </g>
     </g>
     <g id="text_9">
      <text style="font: 10px 'DejaVu Sans', 'Bitstream Vera Sans', 'Computer Modern Sans Serif', 'Lucida Grande', 'Verdana', 'Geneva', 'Lucid', 'Arial', 'Helvetica', 'Avant Garde', sans-serif; text-anchor: middle" x="673.12142" y="543.906563" transform="rotate(-0 673.12142 543.906563)">79</text>
     </g>
    </g>
    <g id="text_10">
     <text style="font: 12px 'DejaVu Sans', 'Bitstream Vera Sans', 'Computer Modern Sans Serif', 'Lucida Grande', 'Verdana', 'Geneva', 'Lucid', 'Arial', 'Helvetica', 'Avant Garde', sans-serif; text-anchor: middle" x="383.260625" y="559.104375" transform="rotate(-0 383.260625 559.104375)">Build Number</text>
    </g>
   </g>
   <g id="matplotlib.axis_2">
    <g id="ytick_1">
     <g id="line2d_19">
      <defs>
       <path id="mfff7a74a6a" d="M 0 0 
L -2 0 
" style="stroke: #000000; stroke-width: 0.6"/>
      </defs>
      <g>
       <use xlink:href="#mfff7a74a6a" x="64.41375" y="385.441282" style="stroke: #000000; stroke-width: 0.6"/>
      </g>
     </g>
     <g id="text_11">
      <!-- $\mathdefault{3\times10^{5}}$ -->
      <g transform="translate(22.81375 389.240501)">
       <text>
        <tspan style="font: 10px 'DejaVu Sans'" x="0 8.310547 18.637695 25" y="-0.06406250000000036">3×10</tspan>
        <tspan style="font: 7px 'DejaVu Sans'" x="31.458008" y="-3.8921875000000004">5</tspan>
       </text>
      </g>
     </g>
    </g>
    <g id="ytick_2">
     <g id="line2d_20">
      <g>
       <use xlink:href="#mfff7a74a6a" x="64.41375" y="239.060029" style="stroke: #000000; stroke-width: 0.6"/>
      </g>
     </g>
     <g id="text_12">
      <!-- $\mathdefault{4\times10^{5}}$ -->
      <g transform="translate(22.81375 242.859248)">
       <text>
        <tspan style="font: 10px 'DejaVu Sans'" x="0 8.310547 18.637695 25" y="-0.06406250000000036">4×10</tspan>
        <tspan style="font: 7px 'DejaVu Sans'" x="31.458008" y="-3.8921875000000004">5</tspan>
       </text>
      </g>
     </g>
    </g>
    <g id="ytick_3">
     <g id="line2d_21">
      <g>
       <use xlink:href="#mfff7a74a6a" x="64.41375" y="125.517908" style="stroke: #000000; stroke-width: 0.6"/>
      </g>
     </g>
    </g>
    <g id="ytick_4">
     <g id="line2d_22">
      <g>
       <use xlink:href="#mfff7a74a6a" x="64.41375" y="32.74724" style="stroke: #000000; stroke-width: 0.6"/>
      </g>
     </g>
     <g id="text_13">
      <!-- $\mathdefault{6\times10^{5}}$ -->
      <g transform="translate(22.81375 36.546459)">
       <text>
        <tspan style="font: 10px 'DejaVu Sans'" x="0 8.310547 18.637695 25" y="-0.06406250000000036">6×10</tspan>
        <tspan style="font: 7px 'DejaVu Sans'" x="31.458008" y="-3.8921875000000004">5</tspan>
       </text>
      </g>
     </g>
    </g>
    <g id="text_14">
     <text style="font: 12px 'DejaVu Sans', 'Bitstream Vera Sans', 'Computer Modern Sans Serif', 'Lucida Grande', 'Verdana', 'Geneva', 'Lucid', 'Arial', 'Helvetica', 'Avant Garde', sans-serif; text-anchor: middle" x="16.318125" y="276.572969" transform="rotate(-90 16.318125 276.572969)">Median Elapsed Time (nanoseconds)</text>
    </g>
   </g>
   <g id="line2d_23">
    <path d="M 93.39983 475.181244 
L 165.865028 182.056796 
L 238.330227 208.169786 
L 310.795426 366.280278 
L 383.260625 184.853254 
L 455.725824 471.75111 
L 528.191023 364.521028 
L 600.656222 94.932789 
L 673.12142 173.901034 
" clip-path="url(#pd3aa28b7eb)" style="fill: none; stroke: #1f77b4; stroke-width: 2; stroke-linecap: square"/>
    <defs>
     <path id="mf850712f5a" d="M 0 3 
C 0.795609 3 1.55874 2.683901 2.12132 2.12132 
C 2.683901 1.55874 3 0.795609 3 0 
C 3 -0.795609 2.683901 -1.55874 2.12132 -2.12132 
C 1.55874 -2.683901 0.795609 -3 0 -3 
C -0.795609 -3 -1.55874 -2.683901 -2.12132 -2.12132 
C -2.683901 -1.55874 -3 -0.795609 -3 0 
C -3 0.795609 -2.683901 1.55874 -2.12132 2.12132 
C -1.55874 2.683901 -0.795609 3 0 3 
z
" style="stroke: #1f77b4"/>
    </defs>
    <g clip-path="url(#pd3aa28b7eb)">
     <use xlink:href="#mf850712f5a" x="93.39983" y="475.181244" style="fill: #1f77b4; stroke: #1f77b4"/>
     <use xlink:href="#mf850712f5a" x="165.865028" y="182.056796" style="fill: #1f77b4; stroke: #1f77b4"/>
     <use xlink:href="#mf850712f5a" x="238.330227" y="208.169786" style="fill: #1f77b4; stroke: #1f77b4"/>
     <use xlink:href="#mf850712f5a" x="310.795426" y="366.280278" style="fill: #1f77b4; stroke: #1f77b4"/>
     <use xlink:href="#mf850712f5a" x="383.260625" y="184.853254" style="fill: #1f77b4; stroke: #1f77b4"/>
     <use xlink:href="#mf850712f5a" x="455.725824" y="471.75111" style="fill: #1f77b4; stroke: #1f77b4"/>
     <use xlink:href="#mf850712f5a" x="528.191023" y="364.521028" style="fill: #1f77b4; stroke: #1f77b4"/>
     <use xlink:href="#mf850712f5a" x="600.656222" y="94.932789" style="fill: #1f77b4; stroke: #1f77b4"/>
     <use xlink:href="#mf850712f5a" x="673.12142" y="173.901034" style="fill: #1f77b4; stroke: #1f77b4"/>
    </g>
   </g>
   <g id="line2d_24">
    <path d="M 93.39983 477.3812 
L 165.865028 183.173786 
L 238.330227 192.148863 
L 310.795426 433.264084 
L 383.260625 263.805232 
L 455.725824 481.354398 
L 528.191023 477.425906 
L 600.656222 421.797088 
L 673.12142 315.935486 
" clip-path="url(#pd3aa28b7eb)" style="fill: none; stroke: #ff7f0e; stroke-width: 2; stroke-linecap: square"/>
    <defs>
     <path id="maf78e691d8" d="M 0 3 
C 0.795609 3 1.55874 2.683901 2.12132 2.12132 
C 2.683901 1.55874 3 0.795609 3 0 
C 3 -0.795609 2.683901 -1.55874 2.12132 -2.12132 
C 1.55874 -2.683901 0.795609 -3 0 -3 
C -0.795609 -3 -1.55874 -2.683901 -2.12132 -2.12132 
C -2.683901 -1.55874 -3 -0.795609 -3 0 
C -3 0.795609 -2.683901 1.55874 -2.12132 2.12132 
C -1.55874 2.683901 -0.795609 3 0 3 
z
" style="stroke: #ff7f0e"/>
    </defs>
    <g clip-path="url(#pd3aa28b7eb)">
     <use xlink:href="#maf78e691d8" x="93.39983" y="477.3812" style="fill: #ff7f0e; stroke: #ff7f0e"/>
     <use xlink:href="#maf78e691d8" x="165.865028" y="183.173786" style="fill: #ff7f0e; stroke: #ff7f0e"/>
     <use xlink:href="#maf78e691d8" x="238.330227" y="192.148863" style="fill: #ff7f0e; stroke: #ff7f0e"/>
     <use xlink:href="#maf78e691d8" x="310.795426" y="433.264084" style="fill: #ff7f0e; stroke: #ff7f0e"/>
     <use xlink:href="#maf78e691d8" x="383.260625" y="263.805232" style="fill: #ff7f0e; stroke: #ff7f0e"/>
     <use xlink:href="#maf78e691d8" x="455.725824" y="481.354398" style="fill: #ff7f0e; stroke: #ff7f0e"/>
     <use xlink:href="#maf78e691d8" x="528.191023" y="477.425906" style="fill: #ff7f0e; stroke: #ff7f0e"/>
     <use xlink:href="#maf78e691d8" x="600.656222" y="421.797088" style="fill: #ff7f0e; stroke: #ff7f0e"/>
     <use xlink:href="#maf78e691d8" x="673.12142" y="315.935486" style="fill: #ff7f0e; stroke: #ff7f0e"/>
    </g>
   </g>
   <g id="line2d_25">
    <path d="M 93.39983 499.108506 
L 165.865028 340.130741 
L 238.330227 159.589275 
L 310.795426 496.508884 
L 383.260625 461.037165 
L 455.725824 493.664976 
L 528.191023 491.770166 
L 600.656222 496.848259 
L 673.12142 496.753262 
" clip-path="url(#pd3aa28b7eb)" style="fill: none; stroke: #2ca02c; stroke-width: 2; stroke-linecap: square"/>
    <defs>
     <path id="m77152bea59" d="M 0 3 
C 0.795609 3 1.55874 2.683901 2.12132 2.12132 
C 2.683901 1.55874 3 0.795609 3 0 
C 3 -0.795609 2.683901 -1.55874 2.12132 -2.12132 
C 1.55874 -2.683901 0.795609 -3 0 -3 
C -0.795609 -3 -1.55874 -2.683901 -2.12132 -2.12132 
C -2.683901 -1.55874 -3 -0.795609 -3 0 
C -3 0.795609 -2.683901 1.55874 -2.12132 2.12132 
C -1.55874 2.683901 -0.795609 3 0 3 
z
" style="stroke: #2ca02c"/>
    </defs>
    <g clip-path="url(#pd3aa28b7eb)">
     <use xlink:href="#m77152bea59" x="93.39983" y="499.108506" style="fill: #2ca02c; stroke: #2ca02c"/>
     <use xlink:href="#m77152bea59" x="165.865028" y="340.130741" style="fill: #2ca02c; stroke: #2ca02c"/>
     <use xlink:href="#m77152bea59" x="238.330227" y="159.589275" style="fill: #2ca02c; stroke: #2ca02c"/>
     <use xlink:href="#m77152bea59" x="310.795426" y="496.508884" style="fill: #2ca02c; stroke: #2ca02c"/>
     <use xlink:href="#m77152bea59" x="383.260625" y="461.037165" style="fill: #2ca02c; stroke: #2ca02c"/>
     <use xlink:href="#m77152bea59" x="455.725824" y="493.664976" style="fill: #2ca02c; stroke: #2ca02c"/>
     <use xlink:href="#m77152bea59" x="528.191023" y="491.770166" style="fill: #2ca02c; stroke: #2ca02c"/>
     <use xlink:href="#m77152bea59" x="600.656222" y="496.848259" style="fill: #2ca02c; stroke: #2ca02c"/>
     <use xlink:href="#m77152bea59" x="673.12142" y="496.753262" style="fill: #2ca02c; stroke: #2ca02c"/>
    </g>
   </g>
   <g id="line2d_26">
    <path d="M 93.39983 500.946818 
L 165.865028 497.962316 
L 238.330227 505.290051 
L 310.795426 504.504799 
L 383.260625 202.424436 
L 455.725824 205.259005 
L 528.191023 506.332202 
L 600.656222 364.482451 
L 673.12142 496.666513 
" clip-path="url(#pd3aa28b7eb)" style="fill: none; stroke: #d62728; stroke-width: 2; stroke-linecap: square"/>
    <defs>
     <path id="m730c5bfd29" d="M 0 3 
C 0.795609 3 1.55874 2.683901 2.12132 2.12132 
C 2.683901 1.55874 3 0.795609 3 0 
C 3 -0.795609 2.683901 -1.55874 2.12132 -2.12132 
C 1.55874 -2.683901 0.795609 -3 0 -3 
C -0.795609 -3 -1.55874 -2.683901 -2.12132 -2.12132 
C -2.683901 -1.55874 -3 -0.795609 -3 0 
C -3 0.795609 -2.683901 1.55874 -2.12132 2.12132 
C -1.55874 2.683901 -0.795609 3 0 3 
z
" style="stroke: #d62728"/>
    </defs>
    <g clip-path="url(#pd3aa28b7eb)">
     <use xlink:href="#m730c5bfd29" x="93.39983" y="500.946818" style="fill: #d62728; stroke: #d62728"/>
     <use xlink:href="#m730c5bfd29" x="165.865028" y="497.962316" style="fill: #d62728; stroke: #d62728"/>
     <use xlink:href="#m730c5bfd29" x="238.330227" y="505.290051" style="fill: #d62728; stroke: #d62728"/>
     <use xlink:href="#m730c5bfd29" x="310.795426" y="504.504799" style="fill: #d62728; stroke: #d62728"/>
     <use xlink:href="#m730c5bfd29" x="383.260625" y="202.424436" style="fill: #d62728; stroke: #d62728"/>
     <use xlink:href="#m730c5bfd29" x="455.725824" y="205.259005" style="fill: #d62728; stroke: #d62728"/>
     <use xlink:href="#m730c5bfd29" x="528.191023" y="506.332202" style="fill: #d62728; stroke: #d62728"/>
     <use xlink:href="#m730c5bfd29" x="600.656222" y="364.482451" style="fill: #d62728; stroke: #d62728"/>
     <use xlink:href="#m730c5bfd29" x="673.12142" y="496.666513" style="fill: #d62728; stroke: #d62728"/>
    </g>
   </g>
   <g id="line2d_27">
    <path d="M 93.39983 491.114241 
L 165.865028 443.826482 
L 238.330227 495.099987 
L 310.795426 484.985398 
L 383.260625 300.46737 
L 455.725824 46.813736 
L 528.191023 500.199687 
L 600.656222 457.050191 
L 673.12142 301.15977 
" clip-path="url(#pd3aa28b7eb)" style="fill: none; stroke: #9467bd; stroke-width: 2; stroke-linecap: square"/>
    <defs>
     <path id="m3c359bcee4" d="M 0 3 
C 0.795609 3 1.55874 2.683901 2.12132 2.12132 
C 2.683901 1.55874 3 0.795609 3 0 
C 3 -0.795609 2.683901 -1.55874 2.12132 -2.12132 
C 1.55874 -2.683901 0.795609 -3 0 -3 
C -0.795609 -3 -1.55874 -2.683901 -2.12132 -2.12132 
C -2.683901 -1.55874 -3 -0.795609 -3 0 
C -3 0.795609 -2.683901 1.55874 -2.12132 2.12132 
C -1.55874 2.683901 -0.795609 3 0 3 
z
" style="stroke: #9467bd"/>
    </defs>
    <g clip-path="url(#pd3aa28b7eb)">
     <use xlink:href="#m3c359bcee4" x="93.39983" y="491.114241" style="fill: #9467bd; stroke: #9467bd"/>
     <use xlink:href="#m3c359bcee4" x="165.865028" y="443.826482" style="fill: #9467bd; stroke: #9467bd"/>
     <use xlink:href="#m3c359bcee4" x="238.330227" y="495.099987" style="fill: #9467bd; stroke: #9467bd"/>
     <use xlink:href="#m3c359bcee4" x="310.795426" y="484.985398" style="fill: #9467bd; stroke: #9467bd"/>
     <use xlink:href="#m3c359bcee4" x="383.260625" y="300.46737" style="fill: #9467bd; stroke: #9467bd"/>
     <use xlink:href="#m3c359bcee4" x="455.725824" y="46.813736" style="fill: #9467bd; stroke: #9467bd"/>
     <use xlink:href="#m3c359bcee4" x="528.191023" y="500.199687" style="fill: #9467bd; stroke: #9467bd"/>
     <use xlink:href="#m3c359bcee4" x="600.656222" y="457.050191" style="fill: #9467bd; stroke: #9467bd"/>
     <use xlink:href="#m3c359bcee4" x="673.12142" y="301.15977" style="fill: #9467bd; stroke: #9467bd"/>
    </g>
   </g>
   <g id="line2d_28">
    <path d="M 93.39983 310.885213 
L 165.865028 301.753391 
L 238.330227 309.48608 
L 310.795426 312.889222 
L 383.260625 300.903152 
L 455.725824 304.44399 
L 528.191023 452.113729 
L 600.656222 445.336311 
L 673.12142 303.630838 
" clip-path="url(#pd3aa28b7eb)" style="fill: none; stroke: #8c564b; stroke-width: 2; stroke-linecap: square"/>
    <defs>
     <path id="mfbe5075e7f" d="M 0 3 
C 0.795609 3 1.55874 2.683901 2.12132 2.12132 
C 2.683901 1.55874 3 0.795609 3 0 
C 3 -0.795609 2.683901 -1.55874 2.12132 -2.12132 
C 1.55874 -2.683901 0.795609 -3 0 -3 
C -0.795609 -3 -1.55874 -2.683901 -2.12132 -2.12132 
C -2.683901 -1.55874 -3 -0.795609 -3 0 
C -3 0.795609 -2.683901 1.55874 -2.12132 2.12132 
C -1.55874 2.683901 -0.795609 3 0 3 
z
" style="stroke: #8c564b"/>
    </defs>
    <g clip-path="url(#pd3aa28b7eb)">
     <use xlink:href="#mfbe5075e7f" x="93.39983" y="310.885213" style="fill: #8c564b; stroke: #8c564b"/>
     <use xlink:href="#mfbe5075e7f" x="165.865028" y="301.753391" style="fill: #8c564b; stroke: #8c564b"/>
     <use xlink:href="#mfbe5075e7f" x="238.330227" y="309.48608" style="fill: #8c564b; stroke: #8c564b"/>
     <use xlink:href="#mfbe5075e7f" x="310.795426" y="312.889222" style="fill: #8c564b; stroke: #8c564b"/>
     <use xlink:href="#mfbe5075e7f" x="383.260625" y="300.903152" style="fill: #8c564b; stroke: #8c564b"/>
     <use xlink:href="#mfbe5075e7f" x="455.725824" y="304.44399" style="fill: #8c564b; stroke: #8c564b"/>
     <use xlink:href="#mfbe5075e7f" x="528.191023" y="452.113729" style="fill: #8c564b; stroke: #8c564b"/>
     <use xlink:href="#mfbe5075e7f" x="600.656222" y="445.336311" style="fill: #8c564b; stroke: #8c564b"/>
     <use xlink:href="#mfbe5075e7f" x="673.12142" y="303.630838" style="fill: #8c564b; stroke: #8c564b"/>
    </g>
   </g>
   <g id="patch_3">
    <path d="M 64.41375 529.308125 
L 64.41375 23.837813 
" style="fill: none; stroke: #000000; stroke-width: 0.8; stroke-linejoin: miter; stroke-linecap: square"/>
   </g>
   <g id="patch_4">
    <path d="M 702.1075 529.308125 
L 702.1075 23.837813 
" style="fill: none; stroke: #000000; stroke-width: 0.8; stroke-linejoin: miter; stroke-linecap: square"/>
   </g>
   <g id="patch_5">
    <path d="M 64.41375 529.308125 
L 702.1075 529.308125 
" style="fill: none; stroke: #000000; stroke-width: 0.8; stroke-linejoin: miter; stroke-linecap: square"/>
   </g>
   <g id="patch_6">
    <path d="M 64.41375 23.837812 
L 702.1075 23.837812 
" style="fill: none; stroke: #000000; stroke-width: 0.8; stroke-linejoin: miter; stroke-linecap: square"/>
   </g>
   <g id="text_15">
    <text style="font: 700 14px 'DejaVu Sans', 'Bitstream Vera Sans', 'Computer Modern Sans Serif', 'Lucida Grande', 'Verdana', 'Geneva', 'Lucid', 'Arial', 'Helvetica', 'Avant Garde', sans-serif; text-anchor: middle" x="383.260625" y="17.837813" transform="rotate(-0 383.260625 17.837813)">Mixedworkload - Performance Trend</text>
   </g>
   <g id="legend_1">
    <g id="patch_7">
     <path d="M 740.992188 119.906563 
L 846.004688 119.906563 
Q 848.004688 119.906563 848.004688 117.906563 
L 848.004688 30.837813 
Q 848.004688 28.837813 846.004688 28.837813 
L 740.992188 28.837813 
Q 738.992188 28.837813 738.992188 30.837813 
L 738.992188 117.906563 
Q 738.992188 119.906563 740.992188 119.906563 
z
" style="fill: #ffffff; opacity: 0.8; stroke: #cccccc; stroke-linejoin: miter"/>
    </g>
    <g id="line2d_29">
     <path d="M 742.992188 36.93625 
L 752.992188 36.93625 
L 762.992188 36.93625 
" style="fill: none; stroke: #1f77b4; stroke-width: 2; stroke-linecap: square"/>
     <g>
      <use xlink:href="#mf850712f5a" x="752.992188" y="36.93625" style="fill: #1f77b4; stroke: #1f77b4"/>
     </g>
    </g>
    <g id="text_16">
     <text style="font: 10px 'DejaVu Sans', 'Bitstream Vera Sans', 'Computer Modern Sans Serif', 'Lucida Grande', 'Verdana', 'Geneva', 'Lucid', 'Arial', 'Helvetica', 'Avant Garde', sans-serif; text-anchor: start" x="770.992188" y="40.43625" transform="rotate(-0 770.992188 40.43625)">gcc-14.2 - V1</text>
    </g>
    <g id="line2d_30">
     <path d="M 742.992188 51.614375 
L 752.992188 51.614375 
L 762.992188 51.614375 
" style="fill: none; stroke: #ff7f0e; stroke-width: 2; stroke-linecap: square"/>
     <g>
      <use xlink:href="#maf78e691d8" x="752.992188" y="51.614375" style="fill: #ff7f0e; stroke: #ff7f0e"/>
     </g>
    </g>
    <g id="text_17">
     <text style="font: 10px 'DejaVu Sans', 'Bitstream Vera Sans', 'Computer Modern Sans Serif', 'Lucida Grande', 'Verdana', 'Geneva', 'Lucid', 'Arial', 'Helvetica', 'Avant Garde', sans-serif; text-anchor: start" x="770.992188" y="55.114375" transform="rotate(-0 770.992188 55.114375)">gcc-14.2 - V2</text>
    </g>
    <g id="line2d_31">
     <path d="M 742.992188 66.2925 
L 752.992188 66.2925 
L 762.992188 66.2925 
" style="fill: none; stroke: #2ca02c; stroke-width: 2; stroke-linecap: square"/>
     <g>
      <use xlink:href="#m77152bea59" x="752.992188" y="66.2925" style="fill: #2ca02c; stroke: #2ca02c"/>
     </g>
    </g>
    <g id="text_18">
     <text style="font: 10px 'DejaVu Sans', 'Bitstream Vera Sans', 'Computer Modern Sans Serif', 'Lucida Grande', 'Verdana', 'Geneva', 'Lucid', 'Arial', 'Helvetica', 'Avant Garde', sans-serif; text-anchor: start" x="770.992188" y="69.7925" transform="rotate(-0 770.992188 69.7925)">gcc-14.2 - TBB</text>
    </g>
    <g id="line2d_32">
     <path d="M 742.992188 80.970625 
L 752.992188 80.970625 
L 762.992188 80.970625 
" style="fill: none; stroke: #d62728; stroke-width: 2; stroke-linecap: square"/>
     <g>
      <use xlink:href="#m730c5bfd29" x="752.992188" y="80.970625" style="fill: #d62728; stroke: #d62728"/>
     </g>
    </g>
    <g id="text_19">
     <text style="font: 10px 'DejaVu Sans', 'Bitstream Vera Sans', 'Computer Modern Sans Serif', 'Lucida Grande', 'Verdana', 'Geneva', 'Lucid', 'Arial', 'Helvetica', 'Avant Garde', sans-serif; text-anchor: start" x="770.992188" y="84.470625" transform="rotate(-0 770.992188 84.470625)">gcc-4.2 - V1</text>
    </g>
    <g id="line2d_33">
     <path d="M 742.992188 95.64875 
L 752.992188 95.64875 
L 762.992188 95.64875 
" style="fill: none; stroke: #9467bd; stroke-width: 2; stroke-linecap: square"/>
     <g>
      <use xlink:href="#m3c359bcee4" x="752.992188" y="95.64875" style="fill: #9467bd; stroke: #9467bd"/>
     </g>
    </g>
    <g id="text_20">
     <text style="font: 10px 'DejaVu Sans', 'Bitstream Vera Sans', 'Computer Modern Sans Serif', 'Lucida Grande', 'Verdana', 'Geneva', 'Lucid', 'Arial', 'Helvetica', 'Avant Garde', sans-serif; text-anchor: start" x="770.992188" y="99.14875" transform="rotate(-0 770.992188 99.14875)">gcc-4.2 - V2</text>
    </g>
    <g id="line2d_34">
     <path d="M 742.992188 110.326875 
L 752.992188 110.326875 
L 762.992188 110.326875 
" style="fill: none; stroke: #8c564b; stroke-width: 2; stroke-linecap: square"/>
     <g>
      <use xlink:href="#mfbe5075e7f" x="752.992188" y="110.326875" style="fill: #8c564b; stroke: #8c564b"/>
     </g>
    </g>
    <g id="text_21">
     <text style="font: 10px 'DejaVu Sans', 'Bitstream Vera Sans', 'Computer Modern Sans Serif', 'Lucida Grande', 'Verdana', 'Geneva', 'Lucid', 'Arial', 'Helvetica', 'Avant Garde', sans-serif; text-anchor: start" x="770.992188" y="113.826875" transform="rotate(-0 770.992188 113.826875)">gcc-4.2 - TBB</text>
    </g>
   </g>
  </g>
 </g>
 <defs>
  <clipPath id="pd3aa28b7eb">
   <rect x="64.41375" y="23.837813" width="637.69375" height="505.470313"/>
  </clipPath>
 </defs>
</svg>
