<?xml version="1.0" encoding="utf-8" standalone="no"?>
<!DOCTYPE svg PUBLIC "-//W3C//DTD SVG 1.1//EN"
  "http://www.w3.org/Graphics/SVG/1.1/DTD/svg11.dtd">
<svg xmlns:xlink="http://www.w3.org/1999/xlink" width="855.536016pt" height="568.8pt" viewBox="0 0 855.536016 568.8" xmlns="http://www.w3.org/2000/svg" version="1.1">
 <metadata>
  <rdf:RDF xmlns:dc="http://purl.org/dc/elements/1.1/" xmlns:cc="http://creativecommons.org/ns#" xmlns:rdf="http://www.w3.org/1999/02/22-rdf-syntax-ns#">
   <cc:Work>
    <dc:type rdf:resource="http://purl.org/dc/dcmitype/StillImage"/>
    <dc:date>2025-08-28T18:43:36.094309</dc:date>
    <dc:format>image/svg+xml</dc:format>
    <dc:creator>
     <cc:Agent>
      <dc:title>Matplotlib v3.9.4, https://matplotlib.org/</dc:title>
     </cc:Agent>
    </dc:creator>
   </cc:Work>
  </rdf:RDF>
 </metadata>
 <defs>
  <style type="text/css">*{stroke-linejoin: round; stroke-linecap: butt}</style>
 </defs>
 <g id="figure_1">
  <g id="patch_1">
   <path d="M 0 568.8 
L 855.536016 568.8 
L 855.536016 0 
L 0 0 
z
" style="fill: #ffffff"/>
  </g>
  <g id="axes_1">
   <g id="patch_2">
    <path d="M 64.41375 529.308125 
L 708.734063 529.308125 
L 708.734063 23.837812 
L 64.41375 23.837812 
z
" style="fill: #ffffff"/>
   </g>
   <g id="matplotlib.axis_1">
    <g id="xtick_1">
     <g id="line2d_1">
      <path d="M 78.286675 529.308125 
L 78.286675 23.837812 
" clip-path="url(#p48318d2ef3)" style="fill: none; stroke: #b0b0b0; stroke-opacity: 0.3; stroke-width: 0.8; stroke-linecap: square"/>
     </g>
     <g id="line2d_2">
      <defs>
       <path id="m1c8e63907a" d="M 0 0 
L 0 3.5 
" style="stroke: #000000; stroke-width: 0.8"/>
      </defs>
      <g>
       <use xlink:href="#m1c8e63907a" x="78.286675" y="529.308125" style="stroke: #000000; stroke-width: 0.8"/>
      </g>
     </g>
     <g id="text_1">
      <text style="font: 10px 'DejaVu Sans', 'Bitstream Vera Sans', 'Computer Modern Sans Serif', 'Lucida Grande', 'Verdana', 'Geneva', 'Lucid', 'Arial', 'Helvetica', 'Avant Garde', sans-serif; text-anchor: middle" x="78.286675" y="543.906563" transform="rotate(-0 78.286675 543.906563)">70</text>
     </g>
    </g>
    <g id="xtick_2">
     <g id="line2d_3">
      <path d="M 155.358483 529.308125 
L 155.358483 23.837812 
" clip-path="url(#p48318d2ef3)" style="fill: none; stroke: #b0b0b0; stroke-opacity: 0.3; stroke-width: 0.8; stroke-linecap: square"/>
     </g>
     <g id="line2d_4">
      <g>
       <use xlink:href="#m1c8e63907a" x="155.358483" y="529.308125" style="stroke: #000000; stroke-width: 0.8"/>
      </g>
     </g>
     <g id="text_2">
      <text style="font: 10px 'DejaVu Sans', 'Bitstream Vera Sans', 'Computer Modern Sans Serif', 'Lucida Grande', 'Verdana', 'Geneva', 'Lucid', 'Arial', 'Helvetica', 'Avant Garde', sans-serif; text-anchor: middle" x="155.358483" y="543.906563" transform="rotate(-0 155.358483 543.906563)">75</text>
     </g>
    </g>
    <g id="xtick_3">
     <g id="line2d_5">
      <path d="M 232.430291 529.308125 
L 232.430291 23.837812 
" clip-path="url(#p48318d2ef3)" style="fill: none; stroke: #b0b0b0; stroke-opacity: 0.3; stroke-width: 0.8; stroke-linecap: square"/>
     </g>
     <g id="line2d_6">
      <g>
       <use xlink:href="#m1c8e63907a" x="232.430291" y="529.308125" style="stroke: #000000; stroke-width: 0.8"/>
      </g>
     </g>
     <g id="text_3">
      <text style="font: 10px 'DejaVu Sans', 'Bitstream Vera Sans', 'Computer Modern Sans Serif', 'Lucida Grande', 'Verdana', 'Geneva', 'Lucid', 'Arial', 'Helvetica', 'Avant Garde', sans-serif; text-anchor: middle" x="232.430291" y="543.906563" transform="rotate(-0 232.430291 543.906563)">80</text>
     </g>
    </g>
    <g id="xtick_4">
     <g id="line2d_7">
      <path d="M 309.502099 529.308125 
L 309.502099 23.837812 
" clip-path="url(#p48318d2ef3)" style="fill: none; stroke: #b0b0b0; stroke-opacity: 0.3; stroke-width: 0.8; stroke-linecap: square"/>
     </g>
     <g id="line2d_8">
      <g>
       <use xlink:href="#m1c8e63907a" x="309.502099" y="529.308125" style="stroke: #000000; stroke-width: 0.8"/>
      </g>
     </g>
     <g id="text_4">
      <text style="font: 10px 'DejaVu Sans', 'Bitstream Vera Sans', 'Computer Modern Sans Serif', 'Lucida Grande', 'Verdana', 'Geneva', 'Lucid', 'Arial', 'Helvetica', 'Avant Garde', sans-serif; text-anchor: middle" x="309.502099" y="543.906563" transform="rotate(-0 309.502099 543.906563)">85</text>
     </g>
    </g>
    <g id="xtick_5">
     <g id="line2d_9">
      <path d="M 386.573906 529.308125 
L 386.573906 23.837812 
" clip-path="url(#p48318d2ef3)" style="fill: none; stroke: #b0b0b0; stroke-opacity: 0.3; stroke-width: 0.8; stroke-linecap: square"/>
     </g>
     <g id="line2d_10">
      <g>
       <use xlink:href="#m1c8e63907a" x="386.573906" y="529.308125" style="stroke: #000000; stroke-width: 0.8"/>
      </g>
     </g>
     <g id="text_5">
      <text style="font: 10px 'DejaVu Sans', 'Bitstream Vera Sans', 'Computer Modern Sans Serif', 'Lucida Grande', 'Verdana', 'Geneva', 'Lucid', 'Arial', 'Helvetica', 'Avant Garde', sans-serif; text-anchor: middle" x="386.573906" y="543.906563" transform="rotate(-0 386.573906 543.906563)">90</text>
     </g>
    </g>
    <g id="xtick_6">
     <g id="line2d_11">
      <path d="M 463.645714 529.308125 
L 463.645714 23.837812 
" clip-path="url(#p48318d2ef3)" style="fill: none; stroke: #b0b0b0; stroke-opacity: 0.3; stroke-width: 0.8; stroke-linecap: square"/>
     </g>
     <g id="line2d_12">
      <g>
       <use xlink:href="#m1c8e63907a" x="463.645714" y="529.308125" style="stroke: #000000; stroke-width: 0.8"/>
      </g>
     </g>
     <g id="text_6">
      <text style="font: 10px 'DejaVu Sans', 'Bitstream Vera Sans', 'Computer Modern Sans Serif', 'Lucida Grande', 'Verdana', 'Geneva', 'Lucid', 'Arial', 'Helvetica', 'Avant Garde', sans-serif; text-anchor: middle" x="463.645714" y="543.906563" transform="rotate(-0 463.645714 543.906563)">95</text>
     </g>
    </g>
    <g id="xtick_7">
     <g id="line2d_13">
      <path d="M 540.717522 529.308125 
L 540.717522 23.837812 
" clip-path="url(#p48318d2ef3)" style="fill: none; stroke: #b0b0b0; stroke-opacity: 0.3; stroke-width: 0.8; stroke-linecap: square"/>
     </g>
     <g id="line2d_14">
      <g>
       <use xlink:href="#m1c8e63907a" x="540.717522" y="529.308125" style="stroke: #000000; stroke-width: 0.8"/>
      </g>
     </g>
     <g id="text_7">
      <text style="font: 10px 'DejaVu Sans', 'Bitstream Vera Sans', 'Computer Modern Sans Serif', 'Lucida Grande', 'Verdana', 'Geneva', 'Lucid', 'Arial', 'Helvetica', 'Avant Garde', sans-serif; text-anchor: middle" x="540.717522" y="543.906563" transform="rotate(-0 540.717522 543.906563)">100</text>
     </g>
    </g>
    <g id="xtick_8">
     <g id="line2d_15">
      <path d="M 617.789329 529.308125 
L 617.789329 23.837812 
" clip-path="url(#p48318d2ef3)" style="fill: none; stroke: #b0b0b0; stroke-opacity: 0.3; stroke-width: 0.8; stroke-linecap: square"/>
     </g>
     <g id="line2d_16">
      <g>
       <use xlink:href="#m1c8e63907a" x="617.789329" y="529.308125" style="stroke: #000000; stroke-width: 0.8"/>
      </g>
     </g>
     <g id="text_8">
      <text style="font: 10px 'DejaVu Sans', 'Bitstream Vera Sans', 'Computer Modern Sans Serif', 'Lucida Grande', 'Verdana', 'Geneva', 'Lucid', 'Arial', 'Helvetica', 'Avant Garde', sans-serif; text-anchor: middle" x="617.789329" y="543.906563" transform="rotate(-0 617.789329 543.906563)">105</text>
     </g>
    </g>
    <g id="xtick_9">
     <g id="line2d_17">
      <path d="M 694.861137 529.308125 
L 694.861137 23.837812 
" clip-path="url(#p48318d2ef3)" style="fill: none; stroke: #b0b0b0; stroke-opacity: 0.3; stroke-width: 0.8; stroke-linecap: square"/>
     </g>
     <g id="line2d_18">
      <g>
       <use xlink:href="#m1c8e63907a" x="694.861137" y="529.308125" style="stroke: #000000; stroke-width: 0.8"/>
      </g>
     </g>
     <g id="text_9">
      <text style="font: 10px 'DejaVu Sans', 'Bitstream Vera Sans', 'Computer Modern Sans Serif', 'Lucida Grande', 'Verdana', 'Geneva', 'Lucid', 'Arial', 'Helvetica', 'Avant Garde', sans-serif; text-anchor: middle" x="694.861137" y="543.906563" transform="rotate(-0 694.861137 543.906563)">110</text>
     </g>
    </g>
    <g id="text_10">
     <text style="font: 12px 'DejaVu Sans', 'Bitstream Vera Sans', 'Computer Modern Sans Serif', 'Lucida Grande', 'Verdana', 'Geneva', 'Lucid', 'Arial', 'Helvetica', 'Avant Garde', sans-serif; text-anchor: middle" x="386.573906" y="559.104375" transform="rotate(-0 386.573906 559.104375)">Build Number</text>
    </g>
   </g>
   <g id="matplotlib.axis_2">
    <g id="ytick_1">
     <g id="line2d_19">
      <path d="M 64.41375 334.291639 
L 708.734063 334.291639 
" clip-path="url(#p48318d2ef3)" style="fill: none; stroke: #b0b0b0; stroke-opacity: 0.3; stroke-width: 0.8; stroke-linecap: square"/>
     </g>
     <g id="line2d_20">
      <defs>
       <path id="m5e9781396a" d="M 0 0 
L -3.5 0 
" style="stroke: #000000; stroke-width: 0.8"/>
      </defs>
      <g>
       <use xlink:href="#m5e9781396a" x="64.41375" y="334.291639" style="stroke: #000000; stroke-width: 0.8"/>
      </g>
     </g>
     <g id="text_11">
      <!-- $\mathdefault{10^{5}}$ -->
      <g transform="translate(39.81375 338.090858)">
       <text>
        <tspan style="font: 10px 'DejaVu Sans'" x="0 6.362305" y="-0.06406250000000036">10</tspan>
        <tspan style="font: 7px 'DejaVu Sans'" x="12.820312" y="-3.8921875000000004">5</tspan>
       </text>
      </g>
     </g>
    </g>
    <g id="ytick_2">
     <g id="line2d_21">
      <defs>
       <path id="m771bcccafd" d="M 0 0 
L -2 0 
" style="stroke: #000000; stroke-width: 0.6"/>
      </defs>
      <g>
       <use xlink:href="#m771bcccafd" x="64.41375" y="505.7097" style="stroke: #000000; stroke-width: 0.6"/>
      </g>
     </g>
     <g id="text_12">
      <!-- $\mathdefault{6\times10^{4}}$ -->
      <g transform="translate(22.81375 509.508919)">
       <text>
        <tspan style="font: 10px 'DejaVu Sans'" x="0 8.310547 18.637695 25" y="-0.06406250000000036">6×10</tspan>
        <tspan style="font: 7px 'DejaVu Sans'" x="31.458008" y="-3.8921875000000004">4</tspan>
       </text>
      </g>
     </g>
    </g>
    <g id="ytick_3">
     <g id="line2d_22">
      <g>
       <use xlink:href="#m771bcccafd" x="64.41375" y="453.981264" style="stroke: #000000; stroke-width: 0.6"/>
      </g>
     </g>
    </g>
    <g id="ytick_4">
     <g id="line2d_23">
      <g>
       <use xlink:href="#m771bcccafd" x="64.41375" y="409.172055" style="stroke: #000000; stroke-width: 0.6"/>
      </g>
     </g>
    </g>
    <g id="ytick_5">
     <g id="line2d_24">
      <g>
       <use xlink:href="#m771bcccafd" x="64.41375" y="369.647531" style="stroke: #000000; stroke-width: 0.6"/>
      </g>
     </g>
    </g>
    <g id="ytick_6">
     <g id="line2d_25">
      <g>
       <use xlink:href="#m771bcccafd" x="64.41375" y="101.691823" style="stroke: #000000; stroke-width: 0.6"/>
      </g>
     </g>
     <g id="text_13">
      <!-- $\mathdefault{2\times10^{5}}$ -->
      <g transform="translate(22.81375 105.491042)">
       <text>
        <tspan style="font: 10px 'DejaVu Sans'" x="0 8.310547 18.637695 25" y="-0.06406250000000036">2×10</tspan>
        <tspan style="font: 7px 'DejaVu Sans'" x="31.458008" y="-3.8921875000000004">5</tspan>
       </text>
      </g>
     </g>
    </g>
    <g id="text_14">
     <text style="font: 12px 'DejaVu Sans', 'Bitstream Vera Sans', 'Computer Modern Sans Serif', 'Lucida Grande', 'Verdana', 'Geneva', 'Lucid', 'Arial', 'Helvetica', 'Avant Garde', sans-serif; text-anchor: middle" x="16.318125" y="276.572969" transform="rotate(-90 16.318125 276.572969)">Median Elapsed Time (nanoseconds)</text>
    </g>
   </g>
   <g id="line2d_26">
    <path d="M 93.701037 46.813736 
L 109.115398 191.993804 
L 124.52976 203.583288 
L 139.944122 226.939206 
L 155.358483 249.293351 
L 170.772845 197.56458 
L 186.187206 217.514077 
L 201.601568 216.449271 
L 217.015929 213.414453 
L 232.430291 197.627325 
L 247.844652 255.061283 
L 263.259014 181.822836 
L 278.673375 48.546392 
L 294.087737 155.181473 
L 309.502099 255.056248 
L 324.91646 280.19621 
L 355.745183 250.483261 
L 371.159545 243.683337 
L 386.573906 243.288052 
L 401.988268 283.580852 
L 417.402629 283.575659 
L 432.816991 244.097042 
L 448.231352 245.4831 
L 463.645714 283.596143 
L 479.060076 244.026517 
L 494.474437 252.14706 
L 525.30316 107.746626 
L 540.717522 249.935013 
L 556.131883 47.122473 
L 571.546245 283.266816 
L 586.960606 237.087039 
L 602.374968 284.46166 
L 617.789329 243.282935 
L 633.203691 241.955645 
L 664.032414 283.561234 
L 679.446776 282.732565 
" clip-path="url(#p48318d2ef3)" style="fill: none; stroke: #1f77b4; stroke-width: 2; stroke-linecap: square"/>
    <defs>
     <path id="m6190d39d27" d="M 0 3 
C 0.795609 3 1.55874 2.683901 2.12132 2.12132 
C 2.683901 1.55874 3 0.795609 3 0 
C 3 -0.795609 2.683901 -1.55874 2.12132 -2.12132 
C 1.55874 -2.683901 0.795609 -3 0 -3 
C -0.795609 -3 -1.55874 -2.683901 -2.12132 -2.12132 
C -2.683901 -1.55874 -3 -0.795609 -3 0 
C -3 0.795609 -2.683901 1.55874 -2.12132 2.12132 
C -1.55874 2.683901 -0.795609 3 0 3 
z
" style="stroke: #1f77b4"/>
    </defs>
    <g clip-path="url(#p48318d2ef3)">
     <use xlink:href="#m6190d39d27" x="93.701037" y="46.813736" style="fill: #1f77b4; stroke: #1f77b4"/>
     <use xlink:href="#m6190d39d27" x="109.115398" y="191.993804" style="fill: #1f77b4; stroke: #1f77b4"/>
     <use xlink:href="#m6190d39d27" x="124.52976" y="203.583288" style="fill: #1f77b4; stroke: #1f77b4"/>
     <use xlink:href="#m6190d39d27" x="139.944122" y="226.939206" style="fill: #1f77b4; stroke: #1f77b4"/>
     <use xlink:href="#m6190d39d27" x="155.358483" y="249.293351" style="fill: #1f77b4; stroke: #1f77b4"/>
     <use xlink:href="#m6190d39d27" x="170.772845" y="197.56458" style="fill: #1f77b4; stroke: #1f77b4"/>
     <use xlink:href="#m6190d39d27" x="186.187206" y="217.514077" style="fill: #1f77b4; stroke: #1f77b4"/>
     <use xlink:href="#m6190d39d27" x="201.601568" y="216.449271" style="fill: #1f77b4; stroke: #1f77b4"/>
     <use xlink:href="#m6190d39d27" x="217.015929" y="213.414453" style="fill: #1f77b4; stroke: #1f77b4"/>
     <use xlink:href="#m6190d39d27" x="232.430291" y="197.627325" style="fill: #1f77b4; stroke: #1f77b4"/>
     <use xlink:href="#m6190d39d27" x="247.844652" y="255.061283" style="fill: #1f77b4; stroke: #1f77b4"/>
     <use xlink:href="#m6190d39d27" x="263.259014" y="181.822836" style="fill: #1f77b4; stroke: #1f77b4"/>
     <use xlink:href="#m6190d39d27" x="278.673375" y="48.546392" style="fill: #1f77b4; stroke: #1f77b4"/>
     <use xlink:href="#m6190d39d27" x="294.087737" y="155.181473" style="fill: #1f77b4; stroke: #1f77b4"/>
     <use xlink:href="#m6190d39d27" x="309.502099" y="255.056248" style="fill: #1f77b4; stroke: #1f77b4"/>
     <use xlink:href="#m6190d39d27" x="324.91646" y="280.19621" style="fill: #1f77b4; stroke: #1f77b4"/>
     <use xlink:href="#m6190d39d27" x="355.745183" y="250.483261" style="fill: #1f77b4; stroke: #1f77b4"/>
     <use xlink:href="#m6190d39d27" x="371.159545" y="243.683337" style="fill: #1f77b4; stroke: #1f77b4"/>
     <use xlink:href="#m6190d39d27" x="386.573906" y="243.288052" style="fill: #1f77b4; stroke: #1f77b4"/>
     <use xlink:href="#m6190d39d27" x="401.988268" y="283.580852" style="fill: #1f77b4; stroke: #1f77b4"/>
     <use xlink:href="#m6190d39d27" x="417.402629" y="283.575659" style="fill: #1f77b4; stroke: #1f77b4"/>
     <use xlink:href="#m6190d39d27" x="432.816991" y="244.097042" style="fill: #1f77b4; stroke: #1f77b4"/>
     <use xlink:href="#m6190d39d27" x="448.231352" y="245.4831" style="fill: #1f77b4; stroke: #1f77b4"/>
     <use xlink:href="#m6190d39d27" x="463.645714" y="283.596143" style="fill: #1f77b4; stroke: #1f77b4"/>
     <use xlink:href="#m6190d39d27" x="479.060076" y="244.026517" style="fill: #1f77b4; stroke: #1f77b4"/>
     <use xlink:href="#m6190d39d27" x="494.474437" y="252.14706" style="fill: #1f77b4; stroke: #1f77b4"/>
     <use xlink:href="#m6190d39d27" x="525.30316" y="107.746626" style="fill: #1f77b4; stroke: #1f77b4"/>
     <use xlink:href="#m6190d39d27" x="540.717522" y="249.935013" style="fill: #1f77b4; stroke: #1f77b4"/>
     <use xlink:href="#m6190d39d27" x="556.131883" y="47.122473" style="fill: #1f77b4; stroke: #1f77b4"/>
     <use xlink:href="#m6190d39d27" x="571.546245" y="283.266816" style="fill: #1f77b4; stroke: #1f77b4"/>
     <use xlink:href="#m6190d39d27" x="586.960606" y="237.087039" style="fill: #1f77b4; stroke: #1f77b4"/>
     <use xlink:href="#m6190d39d27" x="602.374968" y="284.46166" style="fill: #1f77b4; stroke: #1f77b4"/>
     <use xlink:href="#m6190d39d27" x="617.789329" y="243.282935" style="fill: #1f77b4; stroke: #1f77b4"/>
     <use xlink:href="#m6190d39d27" x="633.203691" y="241.955645" style="fill: #1f77b4; stroke: #1f77b4"/>
     <use xlink:href="#m6190d39d27" x="664.032414" y="283.561234" style="fill: #1f77b4; stroke: #1f77b4"/>
     <use xlink:href="#m6190d39d27" x="679.446776" y="282.732565" style="fill: #1f77b4; stroke: #1f77b4"/>
    </g>
   </g>
   <g id="line2d_27">
    <path d="M 93.701037 240.963675 
L 109.115398 243.863598 
L 124.52976 244.090117 
L 139.944122 246.102545 
L 155.358483 239.261485 
L 170.772845 244.568784 
L 186.187206 239.50832 
L 201.601568 247.747045 
L 217.015929 241.093226 
L 232.430291 247.539422 
L 247.844652 242.14731 
L 263.259014 245.28202 
L 278.673375 248.914302 
L 294.087737 244.728064 
L 309.502099 249.45098 
L 324.91646 239.165431 
L 355.745183 244.109353 
L 371.159545 241.526717 
L 386.573906 244.443983 
L 401.988268 247.414482 
L 417.402629 239.866502 
L 432.816991 237.098844 
L 448.231352 237.606123 
L 463.645714 235.646113 
L 479.060076 280.614175 
L 494.474437 247.512733 
L 525.30316 279.756862 
L 540.717522 281.661443 
L 556.131883 280.709844 
L 571.546245 280.122753 
L 586.960606 279.068518 
L 602.374968 280.640628 
L 617.789329 279.542799 
L 633.203691 279.805152 
L 664.032414 278.523852 
L 679.446776 281.342606 
" clip-path="url(#p48318d2ef3)" style="fill: none; stroke: #ff7f0e; stroke-width: 2; stroke-linecap: square"/>
    <defs>
     <path id="mce48616bd0" d="M 0 3 
C 0.795609 3 1.55874 2.683901 2.12132 2.12132 
C 2.683901 1.55874 3 0.795609 3 0 
C 3 -0.795609 2.683901 -1.55874 2.12132 -2.12132 
C 1.55874 -2.683901 0.795609 -3 0 -3 
C -0.795609 -3 -1.55874 -2.683901 -2.12132 -2.12132 
C -2.683901 -1.55874 -3 -0.795609 -3 0 
C -3 0.795609 -2.683901 1.55874 -2.12132 2.12132 
C -1.55874 2.683901 -0.795609 3 0 3 
z
" style="stroke: #ff7f0e"/>
    </defs>
    <g clip-path="url(#p48318d2ef3)">
     <use xlink:href="#mce48616bd0" x="93.701037" y="240.963675" style="fill: #ff7f0e; stroke: #ff7f0e"/>
     <use xlink:href="#mce48616bd0" x="109.115398" y="243.863598" style="fill: #ff7f0e; stroke: #ff7f0e"/>
     <use xlink:href="#mce48616bd0" x="124.52976" y="244.090117" style="fill: #ff7f0e; stroke: #ff7f0e"/>
     <use xlink:href="#mce48616bd0" x="139.944122" y="246.102545" style="fill: #ff7f0e; stroke: #ff7f0e"/>
     <use xlink:href="#mce48616bd0" x="155.358483" y="239.261485" style="fill: #ff7f0e; stroke: #ff7f0e"/>
     <use xlink:href="#mce48616bd0" x="170.772845" y="244.568784" style="fill: #ff7f0e; stroke: #ff7f0e"/>
     <use xlink:href="#mce48616bd0" x="186.187206" y="239.50832" style="fill: #ff7f0e; stroke: #ff7f0e"/>
     <use xlink:href="#mce48616bd0" x="201.601568" y="247.747045" style="fill: #ff7f0e; stroke: #ff7f0e"/>
     <use xlink:href="#mce48616bd0" x="217.015929" y="241.093226" style="fill: #ff7f0e; stroke: #ff7f0e"/>
     <use xlink:href="#mce48616bd0" x="232.430291" y="247.539422" style="fill: #ff7f0e; stroke: #ff7f0e"/>
     <use xlink:href="#mce48616bd0" x="247.844652" y="242.14731" style="fill: #ff7f0e; stroke: #ff7f0e"/>
     <use xlink:href="#mce48616bd0" x="263.259014" y="245.28202" style="fill: #ff7f0e; stroke: #ff7f0e"/>
     <use xlink:href="#mce48616bd0" x="278.673375" y="248.914302" style="fill: #ff7f0e; stroke: #ff7f0e"/>
     <use xlink:href="#mce48616bd0" x="294.087737" y="244.728064" style="fill: #ff7f0e; stroke: #ff7f0e"/>
     <use xlink:href="#mce48616bd0" x="309.502099" y="249.45098" style="fill: #ff7f0e; stroke: #ff7f0e"/>
     <use xlink:href="#mce48616bd0" x="324.91646" y="239.165431" style="fill: #ff7f0e; stroke: #ff7f0e"/>
     <use xlink:href="#mce48616bd0" x="355.745183" y="244.109353" style="fill: #ff7f0e; stroke: #ff7f0e"/>
     <use xlink:href="#mce48616bd0" x="371.159545" y="241.526717" style="fill: #ff7f0e; stroke: #ff7f0e"/>
     <use xlink:href="#mce48616bd0" x="386.573906" y="244.443983" style="fill: #ff7f0e; stroke: #ff7f0e"/>
     <use xlink:href="#mce48616bd0" x="401.988268" y="247.414482" style="fill: #ff7f0e; stroke: #ff7f0e"/>
     <use xlink:href="#mce48616bd0" x="417.402629" y="239.866502" style="fill: #ff7f0e; stroke: #ff7f0e"/>
     <use xlink:href="#mce48616bd0" x="432.816991" y="237.098844" style="fill: #ff7f0e; stroke: #ff7f0e"/>
     <use xlink:href="#mce48616bd0" x="448.231352" y="237.606123" style="fill: #ff7f0e; stroke: #ff7f0e"/>
     <use xlink:href="#mce48616bd0" x="463.645714" y="235.646113" style="fill: #ff7f0e; stroke: #ff7f0e"/>
     <use xlink:href="#mce48616bd0" x="479.060076" y="280.614175" style="fill: #ff7f0e; stroke: #ff7f0e"/>
     <use xlink:href="#mce48616bd0" x="494.474437" y="247.512733" style="fill: #ff7f0e; stroke: #ff7f0e"/>
     <use xlink:href="#mce48616bd0" x="525.30316" y="279.756862" style="fill: #ff7f0e; stroke: #ff7f0e"/>
     <use xlink:href="#mce48616bd0" x="540.717522" y="281.661443" style="fill: #ff7f0e; stroke: #ff7f0e"/>
     <use xlink:href="#mce48616bd0" x="556.131883" y="280.709844" style="fill: #ff7f0e; stroke: #ff7f0e"/>
     <use xlink:href="#mce48616bd0" x="571.546245" y="280.122753" style="fill: #ff7f0e; stroke: #ff7f0e"/>
     <use xlink:href="#mce48616bd0" x="586.960606" y="279.068518" style="fill: #ff7f0e; stroke: #ff7f0e"/>
     <use xlink:href="#mce48616bd0" x="602.374968" y="280.640628" style="fill: #ff7f0e; stroke: #ff7f0e"/>
     <use xlink:href="#mce48616bd0" x="617.789329" y="279.542799" style="fill: #ff7f0e; stroke: #ff7f0e"/>
     <use xlink:href="#mce48616bd0" x="633.203691" y="279.805152" style="fill: #ff7f0e; stroke: #ff7f0e"/>
     <use xlink:href="#mce48616bd0" x="664.032414" y="278.523852" style="fill: #ff7f0e; stroke: #ff7f0e"/>
     <use xlink:href="#mce48616bd0" x="679.446776" y="281.342606" style="fill: #ff7f0e; stroke: #ff7f0e"/>
    </g>
   </g>
   <g id="line2d_28">
    <path d="M 93.701037 414.551779 
L 109.115398 497.463966 
L 124.52976 414.97317 
L 139.944122 486.590358 
L 155.358483 488.58483 
L 170.772845 494.968464 
L 186.187206 431.17622 
L 201.601568 259.841298 
L 217.015929 504.165161 
L 232.430291 502.411088 
L 247.844652 448.322626 
L 263.259014 415.961606 
L 278.673375 472.805361 
L 309.502099 490.422322 
L 324.91646 432.542825 
L 355.745183 506.332202 
L 371.159545 259.267362 
L 386.573906 486.236577 
L 401.988268 481.772945 
L 417.402629 501.586919 
L 448.231352 503.321129 
L 463.645714 460.778799 
L 479.060076 459.561443 
L 494.474437 479.86882 
L 525.30316 480.855226 
L 540.717522 500.319467 
L 556.131883 505.890118 
L 571.546245 501.949525 
L 586.960606 487.90366 
L 602.374968 260.377715 
L 617.789329 480.387571 
L 633.203691 503.662823 
L 664.032414 478.550422 
L 679.446776 502.536827 
" clip-path="url(#p48318d2ef3)" style="fill: none; stroke: #2ca02c; stroke-width: 2; stroke-linecap: square"/>
    <defs>
     <path id="mdd93ba61e7" d="M 0 3 
C 0.795609 3 1.55874 2.683901 2.12132 2.12132 
C 2.683901 1.55874 3 0.795609 3 0 
C 3 -0.795609 2.683901 -1.55874 2.12132 -2.12132 
C 1.55874 -2.683901 0.795609 -3 0 -3 
C -0.795609 -3 -1.55874 -2.683901 -2.12132 -2.12132 
C -2.683901 -1.55874 -3 -0.795609 -3 0 
C -3 0.795609 -2.683901 1.55874 -2.12132 2.12132 
C -1.55874 2.683901 -0.795609 3 0 3 
z
" style="stroke: #2ca02c"/>
    </defs>
    <g clip-path="url(#p48318d2ef3)">
     <use xlink:href="#mdd93ba61e7" x="93.701037" y="414.551779" style="fill: #2ca02c; stroke: #2ca02c"/>
     <use xlink:href="#mdd93ba61e7" x="109.115398" y="497.463966" style="fill: #2ca02c; stroke: #2ca02c"/>
     <use xlink:href="#mdd93ba61e7" x="124.52976" y="414.97317" style="fill: #2ca02c; stroke: #2ca02c"/>
     <use xlink:href="#mdd93ba61e7" x="139.944122" y="486.590358" style="fill: #2ca02c; stroke: #2ca02c"/>
     <use xlink:href="#mdd93ba61e7" x="155.358483" y="488.58483" style="fill: #2ca02c; stroke: #2ca02c"/>
     <use xlink:href="#mdd93ba61e7" x="170.772845" y="494.968464" style="fill: #2ca02c; stroke: #2ca02c"/>
     <use xlink:href="#mdd93ba61e7" x="186.187206" y="431.17622" style="fill: #2ca02c; stroke: #2ca02c"/>
     <use xlink:href="#mdd93ba61e7" x="201.601568" y="259.841298" style="fill: #2ca02c; stroke: #2ca02c"/>
     <use xlink:href="#mdd93ba61e7" x="217.015929" y="504.165161" style="fill: #2ca02c; stroke: #2ca02c"/>
     <use xlink:href="#mdd93ba61e7" x="232.430291" y="502.411088" style="fill: #2ca02c; stroke: #2ca02c"/>
     <use xlink:href="#mdd93ba61e7" x="247.844652" y="448.322626" style="fill: #2ca02c; stroke: #2ca02c"/>
     <use xlink:href="#mdd93ba61e7" x="263.259014" y="415.961606" style="fill: #2ca02c; stroke: #2ca02c"/>
     <use xlink:href="#mdd93ba61e7" x="278.673375" y="472.805361" style="fill: #2ca02c; stroke: #2ca02c"/>
     <use xlink:href="#mdd93ba61e7" x="309.502099" y="490.422322" style="fill: #2ca02c; stroke: #2ca02c"/>
     <use xlink:href="#mdd93ba61e7" x="324.91646" y="432.542825" style="fill: #2ca02c; stroke: #2ca02c"/>
     <use xlink:href="#mdd93ba61e7" x="355.745183" y="506.332202" style="fill: #2ca02c; stroke: #2ca02c"/>
     <use xlink:href="#mdd93ba61e7" x="371.159545" y="259.267362" style="fill: #2ca02c; stroke: #2ca02c"/>
     <use xlink:href="#mdd93ba61e7" x="386.573906" y="486.236577" style="fill: #2ca02c; stroke: #2ca02c"/>
     <use xlink:href="#mdd93ba61e7" x="401.988268" y="481.772945" style="fill: #2ca02c; stroke: #2ca02c"/>
     <use xlink:href="#mdd93ba61e7" x="417.402629" y="501.586919" style="fill: #2ca02c; stroke: #2ca02c"/>
     <use xlink:href="#mdd93ba61e7" x="448.231352" y="503.321129" style="fill: #2ca02c; stroke: #2ca02c"/>
     <use xlink:href="#mdd93ba61e7" x="463.645714" y="460.778799" style="fill: #2ca02c; stroke: #2ca02c"/>
     <use xlink:href="#mdd93ba61e7" x="479.060076" y="459.561443" style="fill: #2ca02c; stroke: #2ca02c"/>
     <use xlink:href="#mdd93ba61e7" x="494.474437" y="479.86882" style="fill: #2ca02c; stroke: #2ca02c"/>
     <use xlink:href="#mdd93ba61e7" x="525.30316" y="480.855226" style="fill: #2ca02c; stroke: #2ca02c"/>
     <use xlink:href="#mdd93ba61e7" x="540.717522" y="500.319467" style="fill: #2ca02c; stroke: #2ca02c"/>
     <use xlink:href="#mdd93ba61e7" x="556.131883" y="505.890118" style="fill: #2ca02c; stroke: #2ca02c"/>
     <use xlink:href="#mdd93ba61e7" x="571.546245" y="501.949525" style="fill: #2ca02c; stroke: #2ca02c"/>
     <use xlink:href="#mdd93ba61e7" x="586.960606" y="487.90366" style="fill: #2ca02c; stroke: #2ca02c"/>
     <use xlink:href="#mdd93ba61e7" x="602.374968" y="260.377715" style="fill: #2ca02c; stroke: #2ca02c"/>
     <use xlink:href="#mdd93ba61e7" x="617.789329" y="480.387571" style="fill: #2ca02c; stroke: #2ca02c"/>
     <use xlink:href="#mdd93ba61e7" x="633.203691" y="503.662823" style="fill: #2ca02c; stroke: #2ca02c"/>
     <use xlink:href="#mdd93ba61e7" x="664.032414" y="478.550422" style="fill: #2ca02c; stroke: #2ca02c"/>
     <use xlink:href="#mdd93ba61e7" x="679.446776" y="502.536827" style="fill: #2ca02c; stroke: #2ca02c"/>
    </g>
   </g>
   <g id="line2d_29">
    <path d="M 93.701037 459.866222 
L 109.115398 455.143871 
L 124.52976 459.420607 
L 139.944122 457.27833 
L 155.358483 460.575215 
L 170.772845 466.993507 
L 186.187206 458.812133 
L 201.601568 457.180552 
L 217.015929 460.001714 
L 232.430291 457.742438 
L 247.844652 461.889521 
L 263.259014 465.712231 
L 278.673375 421.868996 
L 309.502099 457.412458 
L 324.91646 454.1049 
L 355.745183 488.92886 
L 371.159545 458.206217 
L 386.573906 456.170075 
L 401.988268 461.129246 
L 417.402629 463.233246 
L 448.231352 459.084593 
L 463.645714 457.457502 
L 479.060076 478.796034 
L 494.474437 480.720181 
L 525.30316 466.047993 
L 540.717522 478.470998 
L 556.131883 479.912321 
L 571.546245 480.445663 
L 586.960606 480.535415 
L 602.374968 481.301371 
L 617.789329 479.19993 
L 633.203691 481.650745 
L 664.032414 479.964115 
L 679.446776 477.156529 
" clip-path="url(#p48318d2ef3)" style="fill: none; stroke: #d62728; stroke-width: 2; stroke-linecap: square"/>
    <defs>
     <path id="md04a924838" d="M 0 3 
C 0.795609 3 1.55874 2.683901 2.12132 2.12132 
C 2.683901 1.55874 3 0.795609 3 0 
C 3 -0.795609 2.683901 -1.55874 2.12132 -2.12132 
C 1.55874 -2.683901 0.795609 -3 0 -3 
C -0.795609 -3 -1.55874 -2.683901 -2.12132 -2.12132 
C -2.683901 -1.55874 -3 -0.795609 -3 0 
C -3 0.795609 -2.683901 1.55874 -2.12132 2.12132 
C -1.55874 2.683901 -0.795609 3 0 3 
z
" style="stroke: #d62728"/>
    </defs>
    <g clip-path="url(#p48318d2ef3)">
     <use xlink:href="#md04a924838" x="93.701037" y="459.866222" style="fill: #d62728; stroke: #d62728"/>
     <use xlink:href="#md04a924838" x="109.115398" y="455.143871" style="fill: #d62728; stroke: #d62728"/>
     <use xlink:href="#md04a924838" x="124.52976" y="459.420607" style="fill: #d62728; stroke: #d62728"/>
     <use xlink:href="#md04a924838" x="139.944122" y="457.27833" style="fill: #d62728; stroke: #d62728"/>
     <use xlink:href="#md04a924838" x="155.358483" y="460.575215" style="fill: #d62728; stroke: #d62728"/>
     <use xlink:href="#md04a924838" x="170.772845" y="466.993507" style="fill: #d62728; stroke: #d62728"/>
     <use xlink:href="#md04a924838" x="186.187206" y="458.812133" style="fill: #d62728; stroke: #d62728"/>
     <use xlink:href="#md04a924838" x="201.601568" y="457.180552" style="fill: #d62728; stroke: #d62728"/>
     <use xlink:href="#md04a924838" x="217.015929" y="460.001714" style="fill: #d62728; stroke: #d62728"/>
     <use xlink:href="#md04a924838" x="232.430291" y="457.742438" style="fill: #d62728; stroke: #d62728"/>
     <use xlink:href="#md04a924838" x="247.844652" y="461.889521" style="fill: #d62728; stroke: #d62728"/>
     <use xlink:href="#md04a924838" x="263.259014" y="465.712231" style="fill: #d62728; stroke: #d62728"/>
     <use xlink:href="#md04a924838" x="278.673375" y="421.868996" style="fill: #d62728; stroke: #d62728"/>
     <use xlink:href="#md04a924838" x="309.502099" y="457.412458" style="fill: #d62728; stroke: #d62728"/>
     <use xlink:href="#md04a924838" x="324.91646" y="454.1049" style="fill: #d62728; stroke: #d62728"/>
     <use xlink:href="#md04a924838" x="355.745183" y="488.92886" style="fill: #d62728; stroke: #d62728"/>
     <use xlink:href="#md04a924838" x="371.159545" y="458.206217" style="fill: #d62728; stroke: #d62728"/>
     <use xlink:href="#md04a924838" x="386.573906" y="456.170075" style="fill: #d62728; stroke: #d62728"/>
     <use xlink:href="#md04a924838" x="401.988268" y="461.129246" style="fill: #d62728; stroke: #d62728"/>
     <use xlink:href="#md04a924838" x="417.402629" y="463.233246" style="fill: #d62728; stroke: #d62728"/>
     <use xlink:href="#md04a924838" x="448.231352" y="459.084593" style="fill: #d62728; stroke: #d62728"/>
     <use xlink:href="#md04a924838" x="463.645714" y="457.457502" style="fill: #d62728; stroke: #d62728"/>
     <use xlink:href="#md04a924838" x="479.060076" y="478.796034" style="fill: #d62728; stroke: #d62728"/>
     <use xlink:href="#md04a924838" x="494.474437" y="480.720181" style="fill: #d62728; stroke: #d62728"/>
     <use xlink:href="#md04a924838" x="525.30316" y="466.047993" style="fill: #d62728; stroke: #d62728"/>
     <use xlink:href="#md04a924838" x="540.717522" y="478.470998" style="fill: #d62728; stroke: #d62728"/>
     <use xlink:href="#md04a924838" x="556.131883" y="479.912321" style="fill: #d62728; stroke: #d62728"/>
     <use xlink:href="#md04a924838" x="571.546245" y="480.445663" style="fill: #d62728; stroke: #d62728"/>
     <use xlink:href="#md04a924838" x="586.960606" y="480.535415" style="fill: #d62728; stroke: #d62728"/>
     <use xlink:href="#md04a924838" x="602.374968" y="481.301371" style="fill: #d62728; stroke: #d62728"/>
     <use xlink:href="#md04a924838" x="617.789329" y="479.19993" style="fill: #d62728; stroke: #d62728"/>
     <use xlink:href="#md04a924838" x="633.203691" y="481.650745" style="fill: #d62728; stroke: #d62728"/>
     <use xlink:href="#md04a924838" x="664.032414" y="479.964115" style="fill: #d62728; stroke: #d62728"/>
     <use xlink:href="#md04a924838" x="679.446776" y="477.156529" style="fill: #d62728; stroke: #d62728"/>
    </g>
   </g>
   <g id="patch_3">
    <path d="M 64.41375 529.308125 
L 64.41375 23.837813 
" style="fill: none; stroke: #000000; stroke-width: 0.8; stroke-linejoin: miter; stroke-linecap: square"/>
   </g>
   <g id="patch_4">
    <path d="M 708.734063 529.308125 
L 708.734063 23.837813 
" style="fill: none; stroke: #000000; stroke-width: 0.8; stroke-linejoin: miter; stroke-linecap: square"/>
   </g>
   <g id="patch_5">
    <path d="M 64.41375 529.308125 
L 708.734062 529.308125 
" style="fill: none; stroke: #000000; stroke-width: 0.8; stroke-linejoin: miter; stroke-linecap: square"/>
   </g>
   <g id="patch_6">
    <path d="M 64.41375 23.837812 
L 708.734062 23.837812 
" style="fill: none; stroke: #000000; stroke-width: 0.8; stroke-linejoin: miter; stroke-linecap: square"/>
   </g>
   <g id="text_15">
    <text style="font: 700 14px 'DejaVu Sans', 'Bitstream Vera Sans', 'Computer Modern Sans Serif', 'Lucida Grande', 'Verdana', 'Geneva', 'Lucid', 'Arial', 'Helvetica', 'Avant Garde', sans-serif; text-anchor: middle" x="386.573906" y="17.837813" transform="rotate(-0 386.573906 17.837813)">Nestedparallel - Performance Trend</text>
   </g>
   <g id="legend_1">
    <g id="patch_7">
     <path d="M 747.950078 90.550312 
L 846.336016 90.550312 
Q 848.336016 90.550312 848.336016 88.550312 
L 848.336016 30.837812 
Q 848.336016 28.837812 846.336016 28.837812 
L 747.950078 28.837812 
Q 745.950078 28.837812 745.950078 30.837812 
L 745.950078 88.550312 
Q 745.950078 90.550312 747.950078 90.550312 
z
" style="fill: #ffffff; opacity: 0.8; stroke: #cccccc; stroke-linejoin: miter"/>
    </g>
    <g id="line2d_30">
     <path d="M 749.950078 36.93625 
L 759.950078 36.93625 
L 769.950078 36.93625 
" style="fill: none; stroke: #1f77b4; stroke-width: 2; stroke-linecap: square"/>
     <g>
      <use xlink:href="#m6190d39d27" x="759.950078" y="36.93625" style="fill: #1f77b4; stroke: #1f77b4"/>
     </g>
    </g>
    <g id="text_16">
     <text style="font: 10px 'DejaVu Sans', 'Bitstream Vera Sans', 'Computer Modern Sans Serif', 'Lucida Grande', 'Verdana', 'Geneva', 'Lucid', 'Arial', 'Helvetica', 'Avant Garde', sans-serif; text-anchor: start" x="777.950078" y="40.43625" transform="rotate(-0 777.950078 40.43625)">gcc-14.2 - V1</text>
    </g>
    <g id="line2d_31">
     <path d="M 749.950078 51.614375 
L 759.950078 51.614375 
L 769.950078 51.614375 
" style="fill: none; stroke: #ff7f0e; stroke-width: 2; stroke-linecap: square"/>
     <g>
      <use xlink:href="#mce48616bd0" x="759.950078" y="51.614375" style="fill: #ff7f0e; stroke: #ff7f0e"/>
     </g>
    </g>
    <g id="text_17">
     <text style="font: 10px 'DejaVu Sans', 'Bitstream Vera Sans', 'Computer Modern Sans Serif', 'Lucida Grande', 'Verdana', 'Geneva', 'Lucid', 'Arial', 'Helvetica', 'Avant Garde', sans-serif; text-anchor: start" x="777.950078" y="55.114375" transform="rotate(-0 777.950078 55.114375)">gcc-14.2 - V2</text>
    </g>
    <g id="line2d_32">
     <path d="M 749.950078 66.2925 
L 759.950078 66.2925 
L 769.950078 66.2925 
" style="fill: none; stroke: #2ca02c; stroke-width: 2; stroke-linecap: square"/>
     <g>
      <use xlink:href="#mdd93ba61e7" x="759.950078" y="66.2925" style="fill: #2ca02c; stroke: #2ca02c"/>
     </g>
    </g>
    <g id="text_18">
     <text style="font: 10px 'DejaVu Sans', 'Bitstream Vera Sans', 'Computer Modern Sans Serif', 'Lucida Grande', 'Verdana', 'Geneva', 'Lucid', 'Arial', 'Helvetica', 'Avant Garde', sans-serif; text-anchor: start" x="777.950078" y="69.7925" transform="rotate(-0 777.950078 69.7925)">gcc-4.2 - V1</text>
    </g>
    <g id="line2d_33">
     <path d="M 749.950078 80.970625 
L 759.950078 80.970625 
L 769.950078 80.970625 
" style="fill: none; stroke: #d62728; stroke-width: 2; stroke-linecap: square"/>
     <g>
      <use xlink:href="#md04a924838" x="759.950078" y="80.970625" style="fill: #d62728; stroke: #d62728"/>
     </g>
    </g>
    <g id="text_19">
     <text style="font: 10px 'DejaVu Sans', 'Bitstream Vera Sans', 'Computer Modern Sans Serif', 'Lucida Grande', 'Verdana', 'Geneva', 'Lucid', 'Arial', 'Helvetica', 'Avant Garde', sans-serif; text-anchor: start" x="777.950078" y="84.470625" transform="rotate(-0 777.950078 84.470625)">gcc-4.2 - V2</text>
    </g>
   </g>
  </g>
 </g>
 <defs>
  <clipPath id="p48318d2ef3">
   <rect x="64.41375" y="23.837813" width="644.320312" height="505.470313"/>
  </clipPath>
 </defs>
</svg>
