<?xml version="1.0" encoding="utf-8" standalone="no"?>
<!DOCTYPE svg PUBLIC "-//W3C//DTD SVG 1.1//EN"
  "http://www.w3.org/Graphics/SVG/1.1/DTD/svg11.dtd">
<svg xmlns:xlink="http://www.w3.org/1999/xlink" width="848.869766pt" height="568.8pt" viewBox="0 0 848.869766 568.8" xmlns="http://www.w3.org/2000/svg" version="1.1">
 <metadata>
  <rdf:RDF xmlns:dc="http://purl.org/dc/elements/1.1/" xmlns:cc="http://creativecommons.org/ns#" xmlns:rdf="http://www.w3.org/1999/02/22-rdf-syntax-ns#">
   <cc:Work>
    <dc:type rdf:resource="http://purl.org/dc/dcmitype/StillImage"/>
    <dc:date>2026-06-12T09:33:23.320908</dc:date>
    <dc:format>image/svg+xml</dc:format>
    <dc:creator>
     <cc:Agent>
      <dc:title>Matplotlib v3.9.4, https://matplotlib.org/</dc:title>
     </cc:Agent>
    </dc:creator>
   </cc:Work>
  </rdf:RDF>
 </metadata>
 <defs>
  <style type="text/css">*{stroke-linejoin: round; stroke-linecap: butt}</style>
 </defs>
 <g id="figure_1">
  <g id="patch_1">
   <path d="M 0 568.8 
L 848.869766 568.8 
L 848.869766 0 
L 0 0 
z
" style="fill: #ffffff"/>
  </g>
  <g id="axes_1">
   <g id="patch_2">
    <path d="M 86.71375 529.308125 
L 597.709062 529.308125 
L 597.709062 23.837812 
L 86.71375 23.837812 
z
" style="fill: #ffffff"/>
   </g>
   <g id="matplotlib.axis_1">
    <g id="xtick_1">
     <g id="line2d_1">
      <path d="M 96.277833 529.308125 
L 96.277833 23.837812 
" clip-path="url(#p4398020c13)" style="fill: none; stroke: #b0b0b0; stroke-opacity: 0.3; stroke-width: 0.8; stroke-linecap: square"/>
     </g>
     <g id="line2d_2">
      <defs>
       <path id="m14ee976f4e" d="M 0 0 
L 0 3.5 
" style="stroke: #000000; stroke-width: 0.8"/>
      </defs>
      <g>
       <use xlink:href="#m14ee976f4e" x="96.277833" y="529.308125" style="stroke: #000000; stroke-width: 0.8"/>
      </g>
     </g>
     <g id="text_1">
      <text style="font: 10px 'DejaVu Sans', 'Bitstream Vera Sans', 'Computer Modern Sans Serif', 'Lucida Grande', 'Verdana', 'Geneva', 'Lucid', 'Arial', 'Helvetica', 'Avant Garde', sans-serif; text-anchor: middle" x="96.277833" y="543.906563" transform="rotate(-0 96.277833 543.906563)">95</text>
     </g>
    </g>
    <g id="xtick_2">
     <g id="line2d_3">
      <path d="M 164.592715 529.308125 
L 164.592715 23.837812 
" clip-path="url(#p4398020c13)" style="fill: none; stroke: #b0b0b0; stroke-opacity: 0.3; stroke-width: 0.8; stroke-linecap: square"/>
     </g>
     <g id="line2d_4">
      <g>
       <use xlink:href="#m14ee976f4e" x="164.592715" y="529.308125" style="stroke: #000000; stroke-width: 0.8"/>
      </g>
     </g>
     <g id="text_2">
      <text style="font: 10px 'DejaVu Sans', 'Bitstream Vera Sans', 'Computer Modern Sans Serif', 'Lucida Grande', 'Verdana', 'Geneva', 'Lucid', 'Arial', 'Helvetica', 'Avant Garde', sans-serif; text-anchor: middle" x="164.592715" y="543.906563" transform="rotate(-0 164.592715 543.906563)">100</text>
     </g>
    </g>
    <g id="xtick_3">
     <g id="line2d_5">
      <path d="M 232.907596 529.308125 
L 232.907596 23.837812 
" clip-path="url(#p4398020c13)" style="fill: none; stroke: #b0b0b0; stroke-opacity: 0.3; stroke-width: 0.8; stroke-linecap: square"/>
     </g>
     <g id="line2d_6">
      <g>
       <use xlink:href="#m14ee976f4e" x="232.907596" y="529.308125" style="stroke: #000000; stroke-width: 0.8"/>
      </g>
     </g>
     <g id="text_3">
      <text style="font: 10px 'DejaVu Sans', 'Bitstream Vera Sans', 'Computer Modern Sans Serif', 'Lucida Grande', 'Verdana', 'Geneva', 'Lucid', 'Arial', 'Helvetica', 'Avant Garde', sans-serif; text-anchor: middle" x="232.907596" y="543.906563" transform="rotate(-0 232.907596 543.906563)">105</text>
     </g>
    </g>
    <g id="xtick_4">
     <g id="line2d_7">
      <path d="M 301.222477 529.308125 
L 301.222477 23.837812 
" clip-path="url(#p4398020c13)" style="fill: none; stroke: #b0b0b0; stroke-opacity: 0.3; stroke-width: 0.8; stroke-linecap: square"/>
     </g>
     <g id="line2d_8">
      <g>
       <use xlink:href="#m14ee976f4e" x="301.222477" y="529.308125" style="stroke: #000000; stroke-width: 0.8"/>
      </g>
     </g>
     <g id="text_4">
      <text style="font: 10px 'DejaVu Sans', 'Bitstream Vera Sans', 'Computer Modern Sans Serif', 'Lucida Grande', 'Verdana', 'Geneva', 'Lucid', 'Arial', 'Helvetica', 'Avant Garde', sans-serif; text-anchor: middle" x="301.222477" y="543.906563" transform="rotate(-0 301.222477 543.906563)">110</text>
     </g>
    </g>
    <g id="xtick_5">
     <g id="line2d_9">
      <path d="M 369.537359 529.308125 
L 369.537359 23.837812 
" clip-path="url(#p4398020c13)" style="fill: none; stroke: #b0b0b0; stroke-opacity: 0.3; stroke-width: 0.8; stroke-linecap: square"/>
     </g>
     <g id="line2d_10">
      <g>
       <use xlink:href="#m14ee976f4e" x="369.537359" y="529.308125" style="stroke: #000000; stroke-width: 0.8"/>
      </g>
     </g>
     <g id="text_5">
      <text style="font: 10px 'DejaVu Sans', 'Bitstream Vera Sans', 'Computer Modern Sans Serif', 'Lucida Grande', 'Verdana', 'Geneva', 'Lucid', 'Arial', 'Helvetica', 'Avant Garde', sans-serif; text-anchor: middle" x="369.537359" y="543.906563" transform="rotate(-0 369.537359 543.906563)">115</text>
     </g>
    </g>
    <g id="xtick_6">
     <g id="line2d_11">
      <path d="M 437.85224 529.308125 
L 437.85224 23.837812 
" clip-path="url(#p4398020c13)" style="fill: none; stroke: #b0b0b0; stroke-opacity: 0.3; stroke-width: 0.8; stroke-linecap: square"/>
     </g>
     <g id="line2d_12">
      <g>
       <use xlink:href="#m14ee976f4e" x="437.85224" y="529.308125" style="stroke: #000000; stroke-width: 0.8"/>
      </g>
     </g>
     <g id="text_6">
      <text style="font: 10px 'DejaVu Sans', 'Bitstream Vera Sans', 'Computer Modern Sans Serif', 'Lucida Grande', 'Verdana', 'Geneva', 'Lucid', 'Arial', 'Helvetica', 'Avant Garde', sans-serif; text-anchor: middle" x="437.85224" y="543.906563" transform="rotate(-0 437.85224 543.906563)">120</text>
     </g>
    </g>
    <g id="xtick_7">
     <g id="line2d_13">
      <path d="M 506.167121 529.308125 
L 506.167121 23.837812 
" clip-path="url(#p4398020c13)" style="fill: none; stroke: #b0b0b0; stroke-opacity: 0.3; stroke-width: 0.8; stroke-linecap: square"/>
     </g>
     <g id="line2d_14">
      <g>
       <use xlink:href="#m14ee976f4e" x="506.167121" y="529.308125" style="stroke: #000000; stroke-width: 0.8"/>
      </g>
     </g>
     <g id="text_7">
      <text style="font: 10px 'DejaVu Sans', 'Bitstream Vera Sans', 'Computer Modern Sans Serif', 'Lucida Grande', 'Verdana', 'Geneva', 'Lucid', 'Arial', 'Helvetica', 'Avant Garde', sans-serif; text-anchor: middle" x="506.167121" y="543.906563" transform="rotate(-0 506.167121 543.906563)">125</text>
     </g>
    </g>
    <g id="xtick_8">
     <g id="line2d_15">
      <path d="M 574.482003 529.308125 
L 574.482003 23.837812 
" clip-path="url(#p4398020c13)" style="fill: none; stroke: #b0b0b0; stroke-opacity: 0.3; stroke-width: 0.8; stroke-linecap: square"/>
     </g>
     <g id="line2d_16">
      <g>
       <use xlink:href="#m14ee976f4e" x="574.482003" y="529.308125" style="stroke: #000000; stroke-width: 0.8"/>
      </g>
     </g>
     <g id="text_8">
      <text style="font: 10px 'DejaVu Sans', 'Bitstream Vera Sans', 'Computer Modern Sans Serif', 'Lucida Grande', 'Verdana', 'Geneva', 'Lucid', 'Arial', 'Helvetica', 'Avant Garde', sans-serif; text-anchor: middle" x="574.482003" y="543.906563" transform="rotate(-0 574.482003 543.906563)">130</text>
     </g>
    </g>
    <g id="text_9">
     <text style="font: 12px 'DejaVu Sans', 'Bitstream Vera Sans', 'Computer Modern Sans Serif', 'Lucida Grande', 'Verdana', 'Geneva', 'Lucid', 'Arial', 'Helvetica', 'Avant Garde', sans-serif; text-anchor: middle" x="342.211406" y="559.104375" transform="rotate(-0 342.211406 559.104375)">Build Number</text>
    </g>
   </g>
   <g id="matplotlib.axis_2">
    <g id="ytick_1">
     <g id="line2d_17">
      <defs>
       <path id="m4787b66076" d="M 0 0 
L -2 0 
" style="stroke: #000000; stroke-width: 0.6"/>
      </defs>
      <g>
       <use xlink:href="#m4787b66076" x="86.71375" y="501.548143" style="stroke: #000000; stroke-width: 0.6"/>
      </g>
     </g>
     <g id="text_10">
      <!-- $\mathdefault{5.006\times10^{7}}$ -->
      <g transform="translate(22.81375 505.347362)">
       <text>
        <tspan style="font: 10px 'DejaVu Sans'" x="0 6.362305 9.541016 15.90332 22.265625 30.576172 40.90332 47.265625" y="-0.06406250000000036">5.006×10</tspan>
        <tspan style="font: 7px 'DejaVu Sans'" x="53.723633" y="-3.8921875000000004">7</tspan>
       </text>
      </g>
     </g>
    </g>
    <g id="ytick_2">
     <g id="line2d_18">
      <g>
       <use xlink:href="#m4787b66076" x="86.71375" y="441.440988" style="stroke: #000000; stroke-width: 0.6"/>
      </g>
     </g>
     <g id="text_11">
      <!-- $\mathdefault{5.008\times10^{7}}$ -->
      <g transform="translate(22.81375 445.240207)">
       <text>
        <tspan style="font: 10px 'DejaVu Sans'" x="0 6.362305 9.541016 15.90332 22.265625 30.576172 40.90332 47.265625" y="-0.06406250000000036">5.008×10</tspan>
        <tspan style="font: 7px 'DejaVu Sans'" x="53.723633" y="-3.8921875000000004">7</tspan>
       </text>
      </g>
     </g>
    </g>
    <g id="ytick_3">
     <g id="line2d_19">
      <g>
       <use xlink:href="#m4787b66076" x="86.71375" y="381.357832" style="stroke: #000000; stroke-width: 0.6"/>
      </g>
     </g>
     <g id="text_12">
      <!-- $\mathdefault{5.01\times10^{7}}$ -->
      <g transform="translate(29.21375 385.157051)">
       <text>
        <tspan style="font: 10px 'DejaVu Sans'" x="0 6.362305 9.541016 15.90332 24.213867 34.541016 40.90332" y="-0.06406250000000036">5.01×10</tspan>
        <tspan style="font: 7px 'DejaVu Sans'" x="47.361328" y="-3.8921875000000004">7</tspan>
       </text>
      </g>
     </g>
    </g>
    <g id="ytick_4">
     <g id="line2d_20">
      <g>
       <use xlink:href="#m4787b66076" x="86.71375" y="321.298657" style="stroke: #000000; stroke-width: 0.6"/>
      </g>
     </g>
     <g id="text_13">
      <!-- $\mathdefault{5.012\times10^{7}}$ -->
      <g transform="translate(22.81375 325.097876)">
       <text>
        <tspan style="font: 10px 'DejaVu Sans'" x="0 6.362305 9.541016 15.90332 22.265625 30.576172 40.90332 47.265625" y="-0.06406250000000036">5.012×10</tspan>
        <tspan style="font: 7px 'DejaVu Sans'" x="53.723633" y="-3.8921875000000004">7</tspan>
       </text>
      </g>
     </g>
    </g>
    <g id="ytick_5">
     <g id="line2d_21">
      <g>
       <use xlink:href="#m4787b66076" x="86.71375" y="261.263443" style="stroke: #000000; stroke-width: 0.6"/>
      </g>
     </g>
     <g id="text_14">
      <!-- $\mathdefault{5.014\times10^{7}}$ -->
      <g transform="translate(22.81375 265.062662)">
       <text>
        <tspan style="font: 10px 'DejaVu Sans'" x="0 6.362305 9.541016 15.90332 22.265625 30.576172 40.90332 47.265625" y="-0.06406250000000036">5.014×10</tspan>
        <tspan style="font: 7px 'DejaVu Sans'" x="53.723633" y="-3.8921875000000004">7</tspan>
       </text>
      </g>
     </g>
    </g>
    <g id="ytick_6">
     <g id="line2d_22">
      <g>
       <use xlink:href="#m4787b66076" x="86.71375" y="201.252172" style="stroke: #000000; stroke-width: 0.6"/>
      </g>
     </g>
     <g id="text_15">
      <!-- $\mathdefault{5.016\times10^{7}}$ -->
      <g transform="translate(22.81375 205.051391)">
       <text>
        <tspan style="font: 10px 'DejaVu Sans'" x="0 6.362305 9.541016 15.90332 22.265625 30.576172 40.90332 47.265625" y="-0.06406250000000036">5.016×10</tspan>
        <tspan style="font: 7px 'DejaVu Sans'" x="53.723633" y="-3.8921875000000004">7</tspan>
       </text>
      </g>
     </g>
    </g>
    <g id="ytick_7">
     <g id="line2d_23">
      <g>
       <use xlink:href="#m4787b66076" x="86.71375" y="141.264824" style="stroke: #000000; stroke-width: 0.6"/>
      </g>
     </g>
     <g id="text_16">
      <!-- $\mathdefault{5.018\times10^{7}}$ -->
      <g transform="translate(22.81375 145.064042)">
       <text>
        <tspan style="font: 10px 'DejaVu Sans'" x="0 6.362305 9.541016 15.90332 22.265625 30.576172 40.90332 47.265625" y="-0.06406250000000036">5.018×10</tspan>
        <tspan style="font: 7px 'DejaVu Sans'" x="53.723633" y="-3.8921875000000004">7</tspan>
       </text>
      </g>
     </g>
    </g>
    <g id="ytick_8">
     <g id="line2d_24">
      <g>
       <use xlink:href="#m4787b66076" x="86.71375" y="81.301379" style="stroke: #000000; stroke-width: 0.6"/>
      </g>
     </g>
     <g id="text_17">
      <!-- $\mathdefault{5.02\times10^{7}}$ -->
      <g transform="translate(29.21375 85.100598)">
       <text>
        <tspan style="font: 10px 'DejaVu Sans'" x="0 6.362305 9.541016 15.90332 24.213867 34.541016 40.90332" y="-0.06406250000000036">5.02×10</tspan>
        <tspan style="font: 7px 'DejaVu Sans'" x="47.361328" y="-3.8921875000000004">7</tspan>
       </text>
      </g>
     </g>
    </g>
    <g id="text_18">
     <text style="font: 12px 'DejaVu Sans', 'Bitstream Vera Sans', 'Computer Modern Sans Serif', 'Lucida Grande', 'Verdana', 'Geneva', 'Lucid', 'Arial', 'Helvetica', 'Avant Garde', sans-serif; text-anchor: middle" x="16.318125" y="276.572969" transform="rotate(-90 16.318125 276.572969)">Median Elapsed Time (nanoseconds)</text>
    </g>
   </g>
   <g id="line2d_25">
    <path d="M 109.94081 476.425241 
L 123.603786 476.238602 
L 150.929738 487.835888 
L 164.592715 493.473455 
L 178.255691 489.743908 
L 191.918667 488.122029 
L 205.581644 492.280158 
L 219.24462 486.479128 
L 232.907596 474.236383 
L 246.570572 474.521597 
L 273.896525 466.870297 
L 287.559501 472.873434 
L 301.222477 486.864454 
L 314.885454 481.56015 
L 328.54843 485.648968 
L 355.874383 488.379016 
L 369.537359 506.332202 
L 383.200335 487.726782 
L 396.863311 488.94529 
L 410.526288 501.342837 
L 424.189264 489.068524 
L 437.85224 483.750918 
L 451.515216 481.204593 
L 465.178193 481.254185 
L 478.841169 482.404414 
L 492.504145 490.475804 
L 519.830098 461.950157 
L 533.493074 464.552053 
L 547.15605 443.607133 
L 560.819027 46.813736 
" clip-path="url(#p4398020c13)" style="fill: none; stroke: #1f77b4; stroke-width: 2; stroke-linecap: square"/>
    <defs>
     <path id="m896d64d438" d="M 0 3 
C 0.795609 3 1.55874 2.683901 2.12132 2.12132 
C 2.683901 1.55874 3 0.795609 3 0 
C 3 -0.795609 2.683901 -1.55874 2.12132 -2.12132 
C 1.55874 -2.683901 0.795609 -3 0 -3 
C -0.795609 -3 -1.55874 -2.683901 -2.12132 -2.12132 
C -2.683901 -1.55874 -3 -0.795609 -3 0 
C -3 0.795609 -2.683901 1.55874 -2.12132 2.12132 
C -1.55874 2.683901 -0.795609 3 0 3 
z
" style="stroke: #1f77b4"/>
    </defs>
    <g clip-path="url(#p4398020c13)">
     <use xlink:href="#m896d64d438" x="109.94081" y="476.425241" style="fill: #1f77b4; stroke: #1f77b4"/>
     <use xlink:href="#m896d64d438" x="123.603786" y="476.238602" style="fill: #1f77b4; stroke: #1f77b4"/>
     <use xlink:href="#m896d64d438" x="150.929738" y="487.835888" style="fill: #1f77b4; stroke: #1f77b4"/>
     <use xlink:href="#m896d64d438" x="164.592715" y="493.473455" style="fill: #1f77b4; stroke: #1f77b4"/>
     <use xlink:href="#m896d64d438" x="178.255691" y="489.743908" style="fill: #1f77b4; stroke: #1f77b4"/>
     <use xlink:href="#m896d64d438" x="191.918667" y="488.122029" style="fill: #1f77b4; stroke: #1f77b4"/>
     <use xlink:href="#m896d64d438" x="205.581644" y="492.280158" style="fill: #1f77b4; stroke: #1f77b4"/>
     <use xlink:href="#m896d64d438" x="219.24462" y="486.479128" style="fill: #1f77b4; stroke: #1f77b4"/>
     <use xlink:href="#m896d64d438" x="232.907596" y="474.236383" style="fill: #1f77b4; stroke: #1f77b4"/>
     <use xlink:href="#m896d64d438" x="246.570572" y="474.521597" style="fill: #1f77b4; stroke: #1f77b4"/>
     <use xlink:href="#m896d64d438" x="273.896525" y="466.870297" style="fill: #1f77b4; stroke: #1f77b4"/>
     <use xlink:href="#m896d64d438" x="287.559501" y="472.873434" style="fill: #1f77b4; stroke: #1f77b4"/>
     <use xlink:href="#m896d64d438" x="301.222477" y="486.864454" style="fill: #1f77b4; stroke: #1f77b4"/>
     <use xlink:href="#m896d64d438" x="314.885454" y="481.56015" style="fill: #1f77b4; stroke: #1f77b4"/>
     <use xlink:href="#m896d64d438" x="328.54843" y="485.648968" style="fill: #1f77b4; stroke: #1f77b4"/>
     <use xlink:href="#m896d64d438" x="355.874383" y="488.379016" style="fill: #1f77b4; stroke: #1f77b4"/>
     <use xlink:href="#m896d64d438" x="369.537359" y="506.332202" style="fill: #1f77b4; stroke: #1f77b4"/>
     <use xlink:href="#m896d64d438" x="383.200335" y="487.726782" style="fill: #1f77b4; stroke: #1f77b4"/>
     <use xlink:href="#m896d64d438" x="396.863311" y="488.94529" style="fill: #1f77b4; stroke: #1f77b4"/>
     <use xlink:href="#m896d64d438" x="410.526288" y="501.342837" style="fill: #1f77b4; stroke: #1f77b4"/>
     <use xlink:href="#m896d64d438" x="424.189264" y="489.068524" style="fill: #1f77b4; stroke: #1f77b4"/>
     <use xlink:href="#m896d64d438" x="437.85224" y="483.750918" style="fill: #1f77b4; stroke: #1f77b4"/>
     <use xlink:href="#m896d64d438" x="451.515216" y="481.204593" style="fill: #1f77b4; stroke: #1f77b4"/>
     <use xlink:href="#m896d64d438" x="465.178193" y="481.254185" style="fill: #1f77b4; stroke: #1f77b4"/>
     <use xlink:href="#m896d64d438" x="478.841169" y="482.404414" style="fill: #1f77b4; stroke: #1f77b4"/>
     <use xlink:href="#m896d64d438" x="492.504145" y="490.475804" style="fill: #1f77b4; stroke: #1f77b4"/>
     <use xlink:href="#m896d64d438" x="519.830098" y="461.950157" style="fill: #1f77b4; stroke: #1f77b4"/>
     <use xlink:href="#m896d64d438" x="533.493074" y="464.552053" style="fill: #1f77b4; stroke: #1f77b4"/>
     <use xlink:href="#m896d64d438" x="547.15605" y="443.607133" style="fill: #1f77b4; stroke: #1f77b4"/>
     <use xlink:href="#m896d64d438" x="560.819027" y="46.813736" style="fill: #1f77b4; stroke: #1f77b4"/>
    </g>
   </g>
   <g id="line2d_26">
    <path d="M 109.94081 280.650098 
L 123.603786 272.395165 
L 150.929738 342.205539 
L 164.592715 246.83905 
L 178.255691 348.758942 
L 191.918667 347.332568 
L 205.581644 335.180106 
L 219.24462 354.057966 
L 232.907596 257.194223 
L 246.570572 285.806246 
L 273.896525 239.730747 
L 287.559501 244.528694 
L 301.222477 349.311778 
L 314.885454 317.543653 
L 328.54843 349.556516 
L 355.874383 341.710682 
L 369.537359 340.132436 
L 383.200335 344.317407 
L 396.863311 343.62706 
L 410.526288 339.370945 
L 424.189264 338.549703 
L 437.85224 345.884586 
L 451.515216 317.3419 
L 465.178193 274.828106 
L 478.841169 320.790659 
L 492.504145 350.376917 
L 519.830098 251.465269 
L 533.493074 298.34887 
L 547.15605 212.13584 
L 560.819027 70.789551 
" clip-path="url(#p4398020c13)" style="fill: none; stroke: #ff7f0e; stroke-width: 2; stroke-linecap: square"/>
    <defs>
     <path id="m1eea897b4a" d="M 0 3 
C 0.795609 3 1.55874 2.683901 2.12132 2.12132 
C 2.683901 1.55874 3 0.795609 3 0 
C 3 -0.795609 2.683901 -1.55874 2.12132 -2.12132 
C 1.55874 -2.683901 0.795609 -3 0 -3 
C -0.795609 -3 -1.55874 -2.683901 -2.12132 -2.12132 
C -2.683901 -1.55874 -3 -0.795609 -3 0 
C -3 0.795609 -2.683901 1.55874 -2.12132 2.12132 
C -1.55874 2.683901 -0.795609 3 0 3 
z
" style="stroke: #ff7f0e"/>
    </defs>
    <g clip-path="url(#p4398020c13)">
     <use xlink:href="#m1eea897b4a" x="109.94081" y="280.650098" style="fill: #ff7f0e; stroke: #ff7f0e"/>
     <use xlink:href="#m1eea897b4a" x="123.603786" y="272.395165" style="fill: #ff7f0e; stroke: #ff7f0e"/>
     <use xlink:href="#m1eea897b4a" x="150.929738" y="342.205539" style="fill: #ff7f0e; stroke: #ff7f0e"/>
     <use xlink:href="#m1eea897b4a" x="164.592715" y="246.83905" style="fill: #ff7f0e; stroke: #ff7f0e"/>
     <use xlink:href="#m1eea897b4a" x="178.255691" y="348.758942" style="fill: #ff7f0e; stroke: #ff7f0e"/>
     <use xlink:href="#m1eea897b4a" x="191.918667" y="347.332568" style="fill: #ff7f0e; stroke: #ff7f0e"/>
     <use xlink:href="#m1eea897b4a" x="205.581644" y="335.180106" style="fill: #ff7f0e; stroke: #ff7f0e"/>
     <use xlink:href="#m1eea897b4a" x="219.24462" y="354.057966" style="fill: #ff7f0e; stroke: #ff7f0e"/>
     <use xlink:href="#m1eea897b4a" x="232.907596" y="257.194223" style="fill: #ff7f0e; stroke: #ff7f0e"/>
     <use xlink:href="#m1eea897b4a" x="246.570572" y="285.806246" style="fill: #ff7f0e; stroke: #ff7f0e"/>
     <use xlink:href="#m1eea897b4a" x="273.896525" y="239.730747" style="fill: #ff7f0e; stroke: #ff7f0e"/>
     <use xlink:href="#m1eea897b4a" x="287.559501" y="244.528694" style="fill: #ff7f0e; stroke: #ff7f0e"/>
     <use xlink:href="#m1eea897b4a" x="301.222477" y="349.311778" style="fill: #ff7f0e; stroke: #ff7f0e"/>
     <use xlink:href="#m1eea897b4a" x="314.885454" y="317.543653" style="fill: #ff7f0e; stroke: #ff7f0e"/>
     <use xlink:href="#m1eea897b4a" x="328.54843" y="349.556516" style="fill: #ff7f0e; stroke: #ff7f0e"/>
     <use xlink:href="#m1eea897b4a" x="355.874383" y="341.710682" style="fill: #ff7f0e; stroke: #ff7f0e"/>
     <use xlink:href="#m1eea897b4a" x="369.537359" y="340.132436" style="fill: #ff7f0e; stroke: #ff7f0e"/>
     <use xlink:href="#m1eea897b4a" x="383.200335" y="344.317407" style="fill: #ff7f0e; stroke: #ff7f0e"/>
     <use xlink:href="#m1eea897b4a" x="396.863311" y="343.62706" style="fill: #ff7f0e; stroke: #ff7f0e"/>
     <use xlink:href="#m1eea897b4a" x="410.526288" y="339.370945" style="fill: #ff7f0e; stroke: #ff7f0e"/>
     <use xlink:href="#m1eea897b4a" x="424.189264" y="338.549703" style="fill: #ff7f0e; stroke: #ff7f0e"/>
     <use xlink:href="#m1eea897b4a" x="437.85224" y="345.884586" style="fill: #ff7f0e; stroke: #ff7f0e"/>
     <use xlink:href="#m1eea897b4a" x="451.515216" y="317.3419" style="fill: #ff7f0e; stroke: #ff7f0e"/>
     <use xlink:href="#m1eea897b4a" x="465.178193" y="274.828106" style="fill: #ff7f0e; stroke: #ff7f0e"/>
     <use xlink:href="#m1eea897b4a" x="478.841169" y="320.790659" style="fill: #ff7f0e; stroke: #ff7f0e"/>
     <use xlink:href="#m1eea897b4a" x="492.504145" y="350.376917" style="fill: #ff7f0e; stroke: #ff7f0e"/>
     <use xlink:href="#m1eea897b4a" x="519.830098" y="251.465269" style="fill: #ff7f0e; stroke: #ff7f0e"/>
     <use xlink:href="#m1eea897b4a" x="533.493074" y="298.34887" style="fill: #ff7f0e; stroke: #ff7f0e"/>
     <use xlink:href="#m1eea897b4a" x="547.15605" y="212.13584" style="fill: #ff7f0e; stroke: #ff7f0e"/>
     <use xlink:href="#m1eea897b4a" x="560.819027" y="70.789551" style="fill: #ff7f0e; stroke: #ff7f0e"/>
    </g>
   </g>
   <g id="line2d_27">
    <path d="M 109.94081 480.636244 
L 123.603786 488.975948 
L 150.929738 499.751192 
L 164.592715 474.847084 
L 178.255691 499.080272 
L 191.918667 500.974908 
L 205.581644 487.957318 
L 219.24462 483.928249 
L 232.907596 487.152698 
L 246.570572 486.37363 
L 273.896525 501.557762 
L 287.559501 489.183042 
L 301.222477 483.741901 
L 328.54843 483.649028 
L 369.537359 488.809733 
L 383.200335 488.694614 
L 396.863311 467.984353 
L 410.526288 484.675745 
L 424.189264 493.461432 
L 437.85224 493.727144 
L 451.515216 488.174629 
L 465.178193 486.999709 
L 478.841169 476.668683 
L 492.504145 501.953046 
L 519.830098 489.458064 
L 533.493074 459.395486 
L 547.15605 462.986943 
L 560.819027 326.293766 
L 574.482003 314.918478 
" clip-path="url(#p4398020c13)" style="fill: none; stroke: #2ca02c; stroke-width: 2; stroke-linecap: square"/>
    <defs>
     <path id="m4548f57c6a" d="M 0 3 
C 0.795609 3 1.55874 2.683901 2.12132 2.12132 
C 2.683901 1.55874 3 0.795609 3 0 
C 3 -0.795609 2.683901 -1.55874 2.12132 -2.12132 
C 1.55874 -2.683901 0.795609 -3 0 -3 
C -0.795609 -3 -1.55874 -2.683901 -2.12132 -2.12132 
C -2.683901 -1.55874 -3 -0.795609 -3 0 
C -3 0.795609 -2.683901 1.55874 -2.12132 2.12132 
C -1.55874 2.683901 -0.795609 3 0 3 
z
" style="stroke: #2ca02c"/>
    </defs>
    <g clip-path="url(#p4398020c13)">
     <use xlink:href="#m4548f57c6a" x="109.94081" y="480.636244" style="fill: #2ca02c; stroke: #2ca02c"/>
     <use xlink:href="#m4548f57c6a" x="123.603786" y="488.975948" style="fill: #2ca02c; stroke: #2ca02c"/>
     <use xlink:href="#m4548f57c6a" x="150.929738" y="499.751192" style="fill: #2ca02c; stroke: #2ca02c"/>
     <use xlink:href="#m4548f57c6a" x="164.592715" y="474.847084" style="fill: #2ca02c; stroke: #2ca02c"/>
     <use xlink:href="#m4548f57c6a" x="178.255691" y="499.080272" style="fill: #2ca02c; stroke: #2ca02c"/>
     <use xlink:href="#m4548f57c6a" x="191.918667" y="500.974908" style="fill: #2ca02c; stroke: #2ca02c"/>
     <use xlink:href="#m4548f57c6a" x="205.581644" y="487.957318" style="fill: #2ca02c; stroke: #2ca02c"/>
     <use xlink:href="#m4548f57c6a" x="219.24462" y="483.928249" style="fill: #2ca02c; stroke: #2ca02c"/>
     <use xlink:href="#m4548f57c6a" x="232.907596" y="487.152698" style="fill: #2ca02c; stroke: #2ca02c"/>
     <use xlink:href="#m4548f57c6a" x="246.570572" y="486.37363" style="fill: #2ca02c; stroke: #2ca02c"/>
     <use xlink:href="#m4548f57c6a" x="273.896525" y="501.557762" style="fill: #2ca02c; stroke: #2ca02c"/>
     <use xlink:href="#m4548f57c6a" x="287.559501" y="489.183042" style="fill: #2ca02c; stroke: #2ca02c"/>
     <use xlink:href="#m4548f57c6a" x="301.222477" y="483.741901" style="fill: #2ca02c; stroke: #2ca02c"/>
     <use xlink:href="#m4548f57c6a" x="328.54843" y="483.649028" style="fill: #2ca02c; stroke: #2ca02c"/>
     <use xlink:href="#m4548f57c6a" x="369.537359" y="488.809733" style="fill: #2ca02c; stroke: #2ca02c"/>
     <use xlink:href="#m4548f57c6a" x="383.200335" y="488.694614" style="fill: #2ca02c; stroke: #2ca02c"/>
     <use xlink:href="#m4548f57c6a" x="396.863311" y="467.984353" style="fill: #2ca02c; stroke: #2ca02c"/>
     <use xlink:href="#m4548f57c6a" x="410.526288" y="484.675745" style="fill: #2ca02c; stroke: #2ca02c"/>
     <use xlink:href="#m4548f57c6a" x="424.189264" y="493.461432" style="fill: #2ca02c; stroke: #2ca02c"/>
     <use xlink:href="#m4548f57c6a" x="437.85224" y="493.727144" style="fill: #2ca02c; stroke: #2ca02c"/>
     <use xlink:href="#m4548f57c6a" x="451.515216" y="488.174629" style="fill: #2ca02c; stroke: #2ca02c"/>
     <use xlink:href="#m4548f57c6a" x="465.178193" y="486.999709" style="fill: #2ca02c; stroke: #2ca02c"/>
     <use xlink:href="#m4548f57c6a" x="478.841169" y="476.668683" style="fill: #2ca02c; stroke: #2ca02c"/>
     <use xlink:href="#m4548f57c6a" x="492.504145" y="501.953046" style="fill: #2ca02c; stroke: #2ca02c"/>
     <use xlink:href="#m4548f57c6a" x="519.830098" y="489.458064" style="fill: #2ca02c; stroke: #2ca02c"/>
     <use xlink:href="#m4548f57c6a" x="533.493074" y="459.395486" style="fill: #2ca02c; stroke: #2ca02c"/>
     <use xlink:href="#m4548f57c6a" x="547.15605" y="462.986943" style="fill: #2ca02c; stroke: #2ca02c"/>
     <use xlink:href="#m4548f57c6a" x="560.819027" y="326.293766" style="fill: #2ca02c; stroke: #2ca02c"/>
     <use xlink:href="#m4548f57c6a" x="574.482003" y="314.918478" style="fill: #2ca02c; stroke: #2ca02c"/>
    </g>
   </g>
   <g id="line2d_28">
    <path d="M 109.94081 297.54046 
L 123.603786 351.278102 
L 150.929738 349.424087 
L 164.592715 330.926932 
L 178.255691 346.448523 
L 191.918667 345.291524 
L 205.581644 333.704618 
L 219.24462 341.354855 
L 232.907596 351.490111 
L 246.570572 343.454099 
L 273.896525 332.74739 
L 287.559501 342.680579 
L 301.222477 340.504776 
L 328.54843 347.120564 
L 369.537359 345.544063 
L 383.200335 348.720204 
L 396.863311 231.130593 
L 410.526288 345.257292 
L 424.189264 352.570581 
L 437.85224 345.020368 
L 451.515216 327.940624 
L 465.178193 340.272964 
L 478.841169 298.242302 
L 492.504145 331.213676 
L 519.830098 304.682115 
L 533.493074 250.626201 
L 547.15605 299.536727 
L 560.819027 295.574538 
L 574.482003 291.171794 
" clip-path="url(#p4398020c13)" style="fill: none; stroke: #d62728; stroke-width: 2; stroke-linecap: square"/>
    <defs>
     <path id="mefc63ca7e2" d="M 0 3 
C 0.795609 3 1.55874 2.683901 2.12132 2.12132 
C 2.683901 1.55874 3 0.795609 3 0 
C 3 -0.795609 2.683901 -1.55874 2.12132 -2.12132 
C 1.55874 -2.683901 0.795609 -3 0 -3 
C -0.795609 -3 -1.55874 -2.683901 -2.12132 -2.12132 
C -2.683901 -1.55874 -3 -0.795609 -3 0 
C -3 0.795609 -2.683901 1.55874 -2.12132 2.12132 
C -1.55874 2.683901 -0.795609 3 0 3 
z
" style="stroke: #d62728"/>
    </defs>
    <g clip-path="url(#p4398020c13)">
     <use xlink:href="#mefc63ca7e2" x="109.94081" y="297.54046" style="fill: #d62728; stroke: #d62728"/>
     <use xlink:href="#mefc63ca7e2" x="123.603786" y="351.278102" style="fill: #d62728; stroke: #d62728"/>
     <use xlink:href="#mefc63ca7e2" x="150.929738" y="349.424087" style="fill: #d62728; stroke: #d62728"/>
     <use xlink:href="#mefc63ca7e2" x="164.592715" y="330.926932" style="fill: #d62728; stroke: #d62728"/>
     <use xlink:href="#mefc63ca7e2" x="178.255691" y="346.448523" style="fill: #d62728; stroke: #d62728"/>
     <use xlink:href="#mefc63ca7e2" x="191.918667" y="345.291524" style="fill: #d62728; stroke: #d62728"/>
     <use xlink:href="#mefc63ca7e2" x="205.581644" y="333.704618" style="fill: #d62728; stroke: #d62728"/>
     <use xlink:href="#mefc63ca7e2" x="219.24462" y="341.354855" style="fill: #d62728; stroke: #d62728"/>
     <use xlink:href="#mefc63ca7e2" x="232.907596" y="351.490111" style="fill: #d62728; stroke: #d62728"/>
     <use xlink:href="#mefc63ca7e2" x="246.570572" y="343.454099" style="fill: #d62728; stroke: #d62728"/>
     <use xlink:href="#mefc63ca7e2" x="273.896525" y="332.74739" style="fill: #d62728; stroke: #d62728"/>
     <use xlink:href="#mefc63ca7e2" x="287.559501" y="342.680579" style="fill: #d62728; stroke: #d62728"/>
     <use xlink:href="#mefc63ca7e2" x="301.222477" y="340.504776" style="fill: #d62728; stroke: #d62728"/>
     <use xlink:href="#mefc63ca7e2" x="328.54843" y="347.120564" style="fill: #d62728; stroke: #d62728"/>
     <use xlink:href="#mefc63ca7e2" x="369.537359" y="345.544063" style="fill: #d62728; stroke: #d62728"/>
     <use xlink:href="#mefc63ca7e2" x="383.200335" y="348.720204" style="fill: #d62728; stroke: #d62728"/>
     <use xlink:href="#mefc63ca7e2" x="396.863311" y="231.130593" style="fill: #d62728; stroke: #d62728"/>
     <use xlink:href="#mefc63ca7e2" x="410.526288" y="345.257292" style="fill: #d62728; stroke: #d62728"/>
     <use xlink:href="#mefc63ca7e2" x="424.189264" y="352.570581" style="fill: #d62728; stroke: #d62728"/>
     <use xlink:href="#mefc63ca7e2" x="437.85224" y="345.020368" style="fill: #d62728; stroke: #d62728"/>
     <use xlink:href="#mefc63ca7e2" x="451.515216" y="327.940624" style="fill: #d62728; stroke: #d62728"/>
     <use xlink:href="#mefc63ca7e2" x="465.178193" y="340.272964" style="fill: #d62728; stroke: #d62728"/>
     <use xlink:href="#mefc63ca7e2" x="478.841169" y="298.242302" style="fill: #d62728; stroke: #d62728"/>
     <use xlink:href="#mefc63ca7e2" x="492.504145" y="331.213676" style="fill: #d62728; stroke: #d62728"/>
     <use xlink:href="#mefc63ca7e2" x="519.830098" y="304.682115" style="fill: #d62728; stroke: #d62728"/>
     <use xlink:href="#mefc63ca7e2" x="533.493074" y="250.626201" style="fill: #d62728; stroke: #d62728"/>
     <use xlink:href="#mefc63ca7e2" x="547.15605" y="299.536727" style="fill: #d62728; stroke: #d62728"/>
     <use xlink:href="#mefc63ca7e2" x="560.819027" y="295.574538" style="fill: #d62728; stroke: #d62728"/>
     <use xlink:href="#mefc63ca7e2" x="574.482003" y="291.171794" style="fill: #d62728; stroke: #d62728"/>
    </g>
   </g>
   <g id="patch_3">
    <path d="M 86.71375 529.308125 
L 86.71375 23.837813 
" style="fill: none; stroke: #000000; stroke-width: 0.8; stroke-linejoin: miter; stroke-linecap: square"/>
   </g>
   <g id="patch_4">
    <path d="M 597.709062 529.308125 
L 597.709062 23.837813 
" style="fill: none; stroke: #000000; stroke-width: 0.8; stroke-linejoin: miter; stroke-linecap: square"/>
   </g>
   <g id="patch_5">
    <path d="M 86.71375 529.308125 
L 597.709063 529.308125 
" style="fill: none; stroke: #000000; stroke-width: 0.8; stroke-linejoin: miter; stroke-linecap: square"/>
   </g>
   <g id="patch_6">
    <path d="M 86.71375 23.837812 
L 597.709063 23.837812 
" style="fill: none; stroke: #000000; stroke-width: 0.8; stroke-linejoin: miter; stroke-linecap: square"/>
   </g>
   <g id="text_19">
    <text style="font: 700 14px 'DejaVu Sans', 'Bitstream Vera Sans', 'Computer Modern Sans Serif', 'Lucida Grande', 'Verdana', 'Geneva', 'Lucid', 'Arial', 'Helvetica', 'Avant Garde', sans-serif; text-anchor: middle" x="342.211406" y="17.837813" transform="rotate(-0 342.211406 17.837813)">Coroutine Suspension - Performance Trend</text>
   </g>
   <g id="legend_1">
    <g id="patch_7">
     <path d="M 630.258828 91.662813 
L 839.669766 91.662813 
Q 841.669766 91.662813 841.669766 89.662813 
L 841.669766 30.837813 
Q 841.669766 28.837813 839.669766 28.837813 
L 630.258828 28.837813 
Q 628.258828 28.837813 628.258828 30.837813 
L 628.258828 89.662813 
Q 628.258828 91.662813 630.258828 91.662813 
z
" style="fill: #ffffff; opacity: 0.8; stroke: #cccccc; stroke-linejoin: miter"/>
    </g>
    <g id="line2d_29">
     <path d="M 632.258828 36.93625 
L 642.258828 36.93625 
L 652.258828 36.93625 
" style="fill: none; stroke: #1f77b4; stroke-width: 2; stroke-linecap: square"/>
     <g>
      <use xlink:href="#m896d64d438" x="642.258828" y="36.93625" style="fill: #1f77b4; stroke: #1f77b4"/>
     </g>
    </g>
    <g id="text_20">
     <text style="font: 10px 'DejaVu Sans', 'Bitstream Vera Sans', 'Computer Modern Sans Serif', 'Lucida Grande', 'Verdana', 'Geneva', 'Lucid', 'Arial', 'Helvetica', 'Avant Garde', sans-serif; text-anchor: start" x="660.258828" y="40.43625" transform="rotate(-0 660.258828 40.43625)">gcc-14.2 - SuspensionOverhead_V1</text>
    </g>
    <g id="line2d_30">
     <path d="M 632.258828 51.8925 
L 642.258828 51.8925 
L 652.258828 51.8925 
" style="fill: none; stroke: #ff7f0e; stroke-width: 2; stroke-linecap: square"/>
     <g>
      <use xlink:href="#m1eea897b4a" x="642.258828" y="51.8925" style="fill: #ff7f0e; stroke: #ff7f0e"/>
     </g>
    </g>
    <g id="text_21">
     <text style="font: 10px 'DejaVu Sans', 'Bitstream Vera Sans', 'Computer Modern Sans Serif', 'Lucida Grande', 'Verdana', 'Geneva', 'Lucid', 'Arial', 'Helvetica', 'Avant Garde', sans-serif; text-anchor: start" x="660.258828" y="55.3925" transform="rotate(-0 660.258828 55.3925)">gcc-14.2 - SuspensionOverhead_V2</text>
    </g>
    <g id="line2d_31">
     <path d="M 632.258828 66.84875 
L 642.258828 66.84875 
L 652.258828 66.84875 
" style="fill: none; stroke: #2ca02c; stroke-width: 2; stroke-linecap: square"/>
     <g>
      <use xlink:href="#m4548f57c6a" x="642.258828" y="66.84875" style="fill: #2ca02c; stroke: #2ca02c"/>
     </g>
    </g>
    <g id="text_22">
     <text style="font: 10px 'DejaVu Sans', 'Bitstream Vera Sans', 'Computer Modern Sans Serif', 'Lucida Grande', 'Verdana', 'Geneva', 'Lucid', 'Arial', 'Helvetica', 'Avant Garde', sans-serif; text-anchor: start" x="660.258828" y="70.34875" transform="rotate(-0 660.258828 70.34875)">gcc-4.2 - SuspensionOverhead_V1</text>
    </g>
    <g id="line2d_32">
     <path d="M 632.258828 81.805 
L 642.258828 81.805 
L 652.258828 81.805 
" style="fill: none; stroke: #d62728; stroke-width: 2; stroke-linecap: square"/>
     <g>
      <use xlink:href="#mefc63ca7e2" x="642.258828" y="81.805" style="fill: #d62728; stroke: #d62728"/>
     </g>
    </g>
    <g id="text_23">
     <text style="font: 10px 'DejaVu Sans', 'Bitstream Vera Sans', 'Computer Modern Sans Serif', 'Lucida Grande', 'Verdana', 'Geneva', 'Lucid', 'Arial', 'Helvetica', 'Avant Garde', sans-serif; text-anchor: start" x="660.258828" y="85.305" transform="rotate(-0 660.258828 85.305)">gcc-4.2 - SuspensionOverhead_V2</text>
    </g>
   </g>
  </g>
 </g>
 <defs>
  <clipPath id="p4398020c13">
   <rect x="86.71375" y="23.837813" width="510.995312" height="505.470313"/>
  </clipPath>
 </defs>
</svg>
