<?xml version="1.0" encoding="utf-8" standalone="no"?>
<!DOCTYPE svg PUBLIC "-//W3C//DTD SVG 1.1//EN"
  "http://www.w3.org/Graphics/SVG/1.1/DTD/svg11.dtd">
<svg xmlns:xlink="http://www.w3.org/1999/xlink" width="850.259141pt" height="568.8pt" viewBox="0 0 850.259141 568.8" xmlns="http://www.w3.org/2000/svg" version="1.1">
 <metadata>
  <rdf:RDF xmlns:dc="http://purl.org/dc/elements/1.1/" xmlns:cc="http://creativecommons.org/ns#" xmlns:rdf="http://www.w3.org/1999/02/22-rdf-syntax-ns#">
   <cc:Work>
    <dc:type rdf:resource="http://purl.org/dc/dcmitype/StillImage"/>
    <dc:date>2025-08-22T17:17:19.031716</dc:date>
    <dc:format>image/svg+xml</dc:format>
    <dc:creator>
     <cc:Agent>
      <dc:title>Matplotlib v3.9.4, https://matplotlib.org/</dc:title>
     </cc:Agent>
    </dc:creator>
   </cc:Work>
  </rdf:RDF>
 </metadata>
 <defs>
  <style type="text/css">*{stroke-linejoin: round; stroke-linecap: butt}</style>
 </defs>
 <g id="figure_1">
  <g id="patch_1">
   <path d="M 0 568.8 
L 850.259141 568.8 
L 850.259141 0 
L 0 0 
z
" style="fill: #ffffff"/>
  </g>
  <g id="axes_1">
   <g id="patch_2">
    <path d="M 74.01375 529.308125 
L 612.796562 529.308125 
L 612.796562 23.837812 
L 74.01375 23.837812 
z
" style="fill: #ffffff"/>
   </g>
   <g id="matplotlib.axis_1">
    <g id="xtick_1">
     <g id="line2d_1">
      <path d="M 98.503878 529.308125 
L 98.503878 23.837812 
" clip-path="url(#pb57ad4093a)" style="fill: none; stroke: #b0b0b0; stroke-opacity: 0.3; stroke-width: 0.8; stroke-linecap: square"/>
     </g>
     <g id="line2d_2">
      <defs>
       <path id="mebe5c03314" d="M 0 0 
L 0 3.5 
" style="stroke: #000000; stroke-width: 0.8"/>
      </defs>
      <g>
       <use xlink:href="#mebe5c03314" x="98.503878" y="529.308125" style="stroke: #000000; stroke-width: 0.8"/>
      </g>
     </g>
     <g id="text_1">
      <text style="font: 10px 'DejaVu Sans', 'Bitstream Vera Sans', 'Computer Modern Sans Serif', 'Lucida Grande', 'Verdana', 'Geneva', 'Lucid', 'Arial', 'Helvetica', 'Avant Garde', sans-serif; text-anchor: middle" x="98.503878" y="543.906563" transform="rotate(-0 98.503878 543.906563)">96</text>
     </g>
    </g>
    <g id="xtick_2">
     <g id="line2d_3">
      <path d="M 180.137637 529.308125 
L 180.137637 23.837812 
" clip-path="url(#pb57ad4093a)" style="fill: none; stroke: #b0b0b0; stroke-opacity: 0.3; stroke-width: 0.8; stroke-linecap: square"/>
     </g>
     <g id="line2d_4">
      <g>
       <use xlink:href="#mebe5c03314" x="180.137637" y="529.308125" style="stroke: #000000; stroke-width: 0.8"/>
      </g>
     </g>
     <g id="text_2">
      <text style="font: 10px 'DejaVu Sans', 'Bitstream Vera Sans', 'Computer Modern Sans Serif', 'Lucida Grande', 'Verdana', 'Geneva', 'Lucid', 'Arial', 'Helvetica', 'Avant Garde', sans-serif; text-anchor: middle" x="180.137637" y="543.906563" transform="rotate(-0 180.137637 543.906563)">97</text>
     </g>
    </g>
    <g id="xtick_3">
     <g id="line2d_5">
      <path d="M 261.771397 529.308125 
L 261.771397 23.837812 
" clip-path="url(#pb57ad4093a)" style="fill: none; stroke: #b0b0b0; stroke-opacity: 0.3; stroke-width: 0.8; stroke-linecap: square"/>
     </g>
     <g id="line2d_6">
      <g>
       <use xlink:href="#mebe5c03314" x="261.771397" y="529.308125" style="stroke: #000000; stroke-width: 0.8"/>
      </g>
     </g>
     <g id="text_3">
      <text style="font: 10px 'DejaVu Sans', 'Bitstream Vera Sans', 'Computer Modern Sans Serif', 'Lucida Grande', 'Verdana', 'Geneva', 'Lucid', 'Arial', 'Helvetica', 'Avant Garde', sans-serif; text-anchor: middle" x="261.771397" y="543.906563" transform="rotate(-0 261.771397 543.906563)">98</text>
     </g>
    </g>
    <g id="xtick_4">
     <g id="line2d_7">
      <path d="M 343.405156 529.308125 
L 343.405156 23.837812 
" clip-path="url(#pb57ad4093a)" style="fill: none; stroke: #b0b0b0; stroke-opacity: 0.3; stroke-width: 0.8; stroke-linecap: square"/>
     </g>
     <g id="line2d_8">
      <g>
       <use xlink:href="#mebe5c03314" x="343.405156" y="529.308125" style="stroke: #000000; stroke-width: 0.8"/>
      </g>
     </g>
     <g id="text_4">
      <text style="font: 10px 'DejaVu Sans', 'Bitstream Vera Sans', 'Computer Modern Sans Serif', 'Lucida Grande', 'Verdana', 'Geneva', 'Lucid', 'Arial', 'Helvetica', 'Avant Garde', sans-serif; text-anchor: middle" x="343.405156" y="543.906563" transform="rotate(-0 343.405156 543.906563)">99</text>
     </g>
    </g>
    <g id="xtick_5">
     <g id="line2d_9">
      <path d="M 425.038916 529.308125 
L 425.038916 23.837812 
" clip-path="url(#pb57ad4093a)" style="fill: none; stroke: #b0b0b0; stroke-opacity: 0.3; stroke-width: 0.8; stroke-linecap: square"/>
     </g>
     <g id="line2d_10">
      <g>
       <use xlink:href="#mebe5c03314" x="425.038916" y="529.308125" style="stroke: #000000; stroke-width: 0.8"/>
      </g>
     </g>
     <g id="text_5">
      <text style="font: 10px 'DejaVu Sans', 'Bitstream Vera Sans', 'Computer Modern Sans Serif', 'Lucida Grande', 'Verdana', 'Geneva', 'Lucid', 'Arial', 'Helvetica', 'Avant Garde', sans-serif; text-anchor: middle" x="425.038916" y="543.906563" transform="rotate(-0 425.038916 543.906563)">100</text>
     </g>
    </g>
    <g id="xtick_6">
     <g id="line2d_11">
      <path d="M 506.672675 529.308125 
L 506.672675 23.837812 
" clip-path="url(#pb57ad4093a)" style="fill: none; stroke: #b0b0b0; stroke-opacity: 0.3; stroke-width: 0.8; stroke-linecap: square"/>
     </g>
     <g id="line2d_12">
      <g>
       <use xlink:href="#mebe5c03314" x="506.672675" y="529.308125" style="stroke: #000000; stroke-width: 0.8"/>
      </g>
     </g>
     <g id="text_6">
      <text style="font: 10px 'DejaVu Sans', 'Bitstream Vera Sans', 'Computer Modern Sans Serif', 'Lucida Grande', 'Verdana', 'Geneva', 'Lucid', 'Arial', 'Helvetica', 'Avant Garde', sans-serif; text-anchor: middle" x="506.672675" y="543.906563" transform="rotate(-0 506.672675 543.906563)">101</text>
     </g>
    </g>
    <g id="xtick_7">
     <g id="line2d_13">
      <path d="M 588.306435 529.308125 
L 588.306435 23.837812 
" clip-path="url(#pb57ad4093a)" style="fill: none; stroke: #b0b0b0; stroke-opacity: 0.3; stroke-width: 0.8; stroke-linecap: square"/>
     </g>
     <g id="line2d_14">
      <g>
       <use xlink:href="#mebe5c03314" x="588.306435" y="529.308125" style="stroke: #000000; stroke-width: 0.8"/>
      </g>
     </g>
     <g id="text_7">
      <text style="font: 10px 'DejaVu Sans', 'Bitstream Vera Sans', 'Computer Modern Sans Serif', 'Lucida Grande', 'Verdana', 'Geneva', 'Lucid', 'Arial', 'Helvetica', 'Avant Garde', sans-serif; text-anchor: middle" x="588.306435" y="543.906563" transform="rotate(-0 588.306435 543.906563)">102</text>
     </g>
    </g>
    <g id="text_8">
     <text style="font: 12px 'DejaVu Sans', 'Bitstream Vera Sans', 'Computer Modern Sans Serif', 'Lucida Grande', 'Verdana', 'Geneva', 'Lucid', 'Arial', 'Helvetica', 'Avant Garde', sans-serif; text-anchor: middle" x="343.405156" y="559.104375" transform="rotate(-0 343.405156 559.104375)">Build Number</text>
    </g>
   </g>
   <g id="matplotlib.axis_2">
    <g id="ytick_1">
     <g id="line2d_15">
      <defs>
       <path id="mb1812b62fd" d="M 0 0 
L -2 0 
" style="stroke: #000000; stroke-width: 0.6"/>
      </defs>
      <g>
       <use xlink:href="#mb1812b62fd" x="74.01375" y="526.137467" style="stroke: #000000; stroke-width: 0.6"/>
      </g>
     </g>
     <g id="text_9">
      <!-- $\mathdefault{5.1\times10^{5}}$ -->
      <g transform="translate(22.81375 529.936685)">
       <text>
        <tspan style="font: 10px 'DejaVu Sans'" x="0 6.362305 9.541016 17.851562 28.178711 34.541016" y="-0.06406250000000036">5.1×10</tspan>
        <tspan style="font: 7px 'DejaVu Sans'" x="40.999023" y="-3.8921875000000004">5</tspan>
       </text>
      </g>
     </g>
    </g>
    <g id="ytick_2">
     <g id="line2d_16">
      <g>
       <use xlink:href="#mb1812b62fd" x="74.01375" y="459.727951" style="stroke: #000000; stroke-width: 0.6"/>
      </g>
     </g>
     <g id="text_10">
      <!-- $\mathdefault{5.2\times10^{5}}$ -->
      <g transform="translate(23.41375 463.52717)">
       <text>
        <tspan style="font: 10px 'DejaVu Sans'" x="0 6.362305 9.041016 17.351562 27.678711 34.041016" y="-0.06406250000000036">5.2×10</tspan>
        <tspan style="font: 7px 'DejaVu Sans'" x="40.499023" y="-3.8921875000000004">5</tspan>
       </text>
      </g>
     </g>
    </g>
    <g id="ytick_3">
     <g id="line2d_17">
      <g>
       <use xlink:href="#mb1812b62fd" x="74.01375" y="394.583457" style="stroke: #000000; stroke-width: 0.6"/>
      </g>
     </g>
     <g id="text_11">
      <!-- $\mathdefault{5.3\times10^{5}}$ -->
      <g transform="translate(22.81375 398.382675)">
       <text>
        <tspan style="font: 10px 'DejaVu Sans'" x="0 6.362305 9.541016 17.851562 28.178711 34.541016" y="-0.06406250000000036">5.3×10</tspan>
        <tspan style="font: 7px 'DejaVu Sans'" x="40.999023" y="-3.8921875000000004">5</tspan>
       </text>
      </g>
     </g>
    </g>
    <g id="ytick_4">
     <g id="line2d_18">
      <g>
       <use xlink:href="#mb1812b62fd" x="74.01375" y="330.656687" style="stroke: #000000; stroke-width: 0.6"/>
      </g>
     </g>
     <g id="text_12">
      <!-- $\mathdefault{5.4\times10^{5}}$ -->
      <g transform="translate(22.81375 334.455906)">
       <text>
        <tspan style="font: 10px 'DejaVu Sans'" x="0 6.362305 9.541016 17.851562 28.178711 34.541016" y="-0.06406250000000036">5.4×10</tspan>
        <tspan style="font: 7px 'DejaVu Sans'" x="40.999023" y="-3.8921875000000004">5</tspan>
       </text>
      </g>
     </g>
    </g>
    <g id="ytick_5">
     <g id="line2d_19">
      <g>
       <use xlink:href="#mb1812b62fd" x="74.01375" y="267.902953" style="stroke: #000000; stroke-width: 0.6"/>
      </g>
     </g>
     <g id="text_13">
      <!-- $\mathdefault{5.5\times10^{5}}$ -->
      <g transform="translate(22.81375 271.702172)">
       <text>
        <tspan style="font: 10px 'DejaVu Sans'" x="0 6.362305 9.541016 17.851562 28.178711 34.541016" y="-0.06406250000000036">5.5×10</tspan>
        <tspan style="font: 7px 'DejaVu Sans'" x="40.999023" y="-3.8921875000000004">5</tspan>
       </text>
      </g>
     </g>
    </g>
    <g id="ytick_6">
     <g id="line2d_20">
      <g>
       <use xlink:href="#mb1812b62fd" x="74.01375" y="206.279978" style="stroke: #000000; stroke-width: 0.6"/>
      </g>
     </g>
     <g id="text_14">
      <!-- $\mathdefault{5.6\times10^{5}}$ -->
      <g transform="translate(22.81375 210.079197)">
       <text>
        <tspan style="font: 10px 'DejaVu Sans'" x="0 6.362305 9.541016 17.851562 28.178711 34.541016" y="-0.06406250000000036">5.6×10</tspan>
        <tspan style="font: 7px 'DejaVu Sans'" x="40.999023" y="-3.8921875000000004">5</tspan>
       </text>
      </g>
     </g>
    </g>
    <g id="ytick_7">
     <g id="line2d_21">
      <g>
       <use xlink:href="#mb1812b62fd" x="74.01375" y="145.747733" style="stroke: #000000; stroke-width: 0.6"/>
      </g>
     </g>
     <g id="text_15">
      <!-- $\mathdefault{5.7\times10^{5}}$ -->
      <g transform="translate(23.61375 149.546952)">
       <text>
        <tspan style="font: 10px 'DejaVu Sans'" x="0 6.362305 8.791016 17.101562 27.428711 33.791016" y="-0.06406250000000036">5.7×10</tspan>
        <tspan style="font: 7px 'DejaVu Sans'" x="40.249023" y="-3.8921875000000004">5</tspan>
       </text>
      </g>
     </g>
    </g>
    <g id="ytick_8">
     <g id="line2d_22">
      <g>
       <use xlink:href="#mb1812b62fd" x="74.01375" y="86.268276" style="stroke: #000000; stroke-width: 0.6"/>
      </g>
     </g>
     <g id="text_16">
      <!-- $\mathdefault{5.8\times10^{5}}$ -->
      <g transform="translate(23.11375 90.067495)">
       <text>
        <tspan style="font: 10px 'DejaVu Sans'" x="0 6.362305 9.291016 17.601562 27.928711 34.291016" y="-0.06406250000000036">5.8×10</tspan>
        <tspan style="font: 7px 'DejaVu Sans'" x="40.749023" y="-3.8921875000000004">5</tspan>
       </text>
      </g>
     </g>
    </g>
    <g id="ytick_9">
     <g id="line2d_23">
      <g>
       <use xlink:href="#mb1812b62fd" x="74.01375" y="27.805612" style="stroke: #000000; stroke-width: 0.6"/>
      </g>
     </g>
     <g id="text_17">
      <!-- $\mathdefault{5.9\times10^{5}}$ -->
      <g transform="translate(22.81375 31.604831)">
       <text>
        <tspan style="font: 10px 'DejaVu Sans'" x="0 6.362305 9.541016 17.851562 28.178711 34.541016" y="-0.06406250000000036">5.9×10</tspan>
        <tspan style="font: 7px 'DejaVu Sans'" x="40.999023" y="-3.8921875000000004">5</tspan>
       </text>
      </g>
     </g>
    </g>
    <g id="text_18">
     <text style="font: 12px 'DejaVu Sans', 'Bitstream Vera Sans', 'Computer Modern Sans Serif', 'Lucida Grande', 'Verdana', 'Geneva', 'Lucid', 'Arial', 'Helvetica', 'Avant Garde', sans-serif; text-anchor: middle" x="16.318125" y="276.572969" transform="rotate(-90 16.318125 276.572969)">Median Elapsed Time (nanoseconds)</text>
    </g>
   </g>
   <g id="line2d_24">
    <path d="M 98.503878 66.472092 
L 180.137637 46.813736 
L 343.405156 58.235841 
L 425.038916 96.477406 
L 506.672675 92.375446 
L 588.306435 102.93406 
" clip-path="url(#pb57ad4093a)" style="fill: none; stroke: #1f77b4; stroke-width: 2; stroke-linecap: square"/>
    <defs>
     <path id="m957e0e7e2b" d="M 0 3 
C 0.795609 3 1.55874 2.683901 2.12132 2.12132 
C 2.683901 1.55874 3 0.795609 3 0 
C 3 -0.795609 2.683901 -1.55874 2.12132 -2.12132 
C 1.55874 -2.683901 0.795609 -3 0 -3 
C -0.795609 -3 -1.55874 -2.683901 -2.12132 -2.12132 
C -2.683901 -1.55874 -3 -0.795609 -3 0 
C -3 0.795609 -2.683901 1.55874 -2.12132 2.12132 
C -1.55874 2.683901 -0.795609 3 0 3 
z
" style="stroke: #1f77b4"/>
    </defs>
    <g clip-path="url(#pb57ad4093a)">
     <use xlink:href="#m957e0e7e2b" x="98.503878" y="66.472092" style="fill: #1f77b4; stroke: #1f77b4"/>
     <use xlink:href="#m957e0e7e2b" x="180.137637" y="46.813736" style="fill: #1f77b4; stroke: #1f77b4"/>
     <use xlink:href="#m957e0e7e2b" x="343.405156" y="58.235841" style="fill: #1f77b4; stroke: #1f77b4"/>
     <use xlink:href="#m957e0e7e2b" x="425.038916" y="96.477406" style="fill: #1f77b4; stroke: #1f77b4"/>
     <use xlink:href="#m957e0e7e2b" x="506.672675" y="92.375446" style="fill: #1f77b4; stroke: #1f77b4"/>
     <use xlink:href="#m957e0e7e2b" x="588.306435" y="102.93406" style="fill: #1f77b4; stroke: #1f77b4"/>
    </g>
   </g>
   <g id="line2d_25">
    <path d="M 98.503878 164.814688 
L 180.137637 127.034121 
L 343.405156 138.494866 
L 425.038916 240.285545 
L 506.672675 176.576712 
L 588.306435 203.488946 
" clip-path="url(#pb57ad4093a)" style="fill: none; stroke: #ff7f0e; stroke-width: 2; stroke-linecap: square"/>
    <defs>
     <path id="md24eaaf576" d="M 0 3 
C 0.795609 3 1.55874 2.683901 2.12132 2.12132 
C 2.683901 1.55874 3 0.795609 3 0 
C 3 -0.795609 2.683901 -1.55874 2.12132 -2.12132 
C 1.55874 -2.683901 0.795609 -3 0 -3 
C -0.795609 -3 -1.55874 -2.683901 -2.12132 -2.12132 
C -2.683901 -1.55874 -3 -0.795609 -3 0 
C -3 0.795609 -2.683901 1.55874 -2.12132 2.12132 
C -1.55874 2.683901 -0.795609 3 0 3 
z
" style="stroke: #ff7f0e"/>
    </defs>
    <g clip-path="url(#pb57ad4093a)">
     <use xlink:href="#md24eaaf576" x="98.503878" y="164.814688" style="fill: #ff7f0e; stroke: #ff7f0e"/>
     <use xlink:href="#md24eaaf576" x="180.137637" y="127.034121" style="fill: #ff7f0e; stroke: #ff7f0e"/>
     <use xlink:href="#md24eaaf576" x="343.405156" y="138.494866" style="fill: #ff7f0e; stroke: #ff7f0e"/>
     <use xlink:href="#md24eaaf576" x="425.038916" y="240.285545" style="fill: #ff7f0e; stroke: #ff7f0e"/>
     <use xlink:href="#md24eaaf576" x="506.672675" y="176.576712" style="fill: #ff7f0e; stroke: #ff7f0e"/>
     <use xlink:href="#md24eaaf576" x="588.306435" y="203.488946" style="fill: #ff7f0e; stroke: #ff7f0e"/>
    </g>
   </g>
   <g id="line2d_26">
    <path d="M 98.503878 494.708507 
L 180.137637 457.735734 
L 343.405156 470.704619 
L 425.038916 484.657531 
L 506.672675 494.583593 
L 588.306435 427.768712 
" clip-path="url(#pb57ad4093a)" style="fill: none; stroke: #2ca02c; stroke-width: 2; stroke-linecap: square"/>
    <defs>
     <path id="m3c9512f21e" d="M 0 3 
C 0.795609 3 1.55874 2.683901 2.12132 2.12132 
C 2.683901 1.55874 3 0.795609 3 0 
C 3 -0.795609 2.683901 -1.55874 2.12132 -2.12132 
C 1.55874 -2.683901 0.795609 -3 0 -3 
C -0.795609 -3 -1.55874 -2.683901 -2.12132 -2.12132 
C -2.683901 -1.55874 -3 -0.795609 -3 0 
C -3 0.795609 -2.683901 1.55874 -2.12132 2.12132 
C -1.55874 2.683901 -0.795609 3 0 3 
z
" style="stroke: #2ca02c"/>
    </defs>
    <g clip-path="url(#pb57ad4093a)">
     <use xlink:href="#m3c9512f21e" x="98.503878" y="494.708507" style="fill: #2ca02c; stroke: #2ca02c"/>
     <use xlink:href="#m3c9512f21e" x="180.137637" y="457.735734" style="fill: #2ca02c; stroke: #2ca02c"/>
     <use xlink:href="#m3c9512f21e" x="343.405156" y="470.704619" style="fill: #2ca02c; stroke: #2ca02c"/>
     <use xlink:href="#m3c9512f21e" x="425.038916" y="484.657531" style="fill: #2ca02c; stroke: #2ca02c"/>
     <use xlink:href="#m3c9512f21e" x="506.672675" y="494.583593" style="fill: #2ca02c; stroke: #2ca02c"/>
     <use xlink:href="#m3c9512f21e" x="588.306435" y="427.768712" style="fill: #2ca02c; stroke: #2ca02c"/>
    </g>
   </g>
   <g id="line2d_27">
    <path d="M 98.503878 500.685143 
L 180.137637 485.61299 
L 343.405156 498.403519 
L 425.038916 461.333747 
L 506.672675 506.332202 
L 588.306435 382.33092 
" clip-path="url(#pb57ad4093a)" style="fill: none; stroke: #d62728; stroke-width: 2; stroke-linecap: square"/>
    <defs>
     <path id="m76deca29ee" d="M 0 3 
C 0.795609 3 1.55874 2.683901 2.12132 2.12132 
C 2.683901 1.55874 3 0.795609 3 0 
C 3 -0.795609 2.683901 -1.55874 2.12132 -2.12132 
C 1.55874 -2.683901 0.795609 -3 0 -3 
C -0.795609 -3 -1.55874 -2.683901 -2.12132 -2.12132 
C -2.683901 -1.55874 -3 -0.795609 -3 0 
C -3 0.795609 -2.683901 1.55874 -2.12132 2.12132 
C -1.55874 2.683901 -0.795609 3 0 3 
z
" style="stroke: #d62728"/>
    </defs>
    <g clip-path="url(#pb57ad4093a)">
     <use xlink:href="#m76deca29ee" x="98.503878" y="500.685143" style="fill: #d62728; stroke: #d62728"/>
     <use xlink:href="#m76deca29ee" x="180.137637" y="485.61299" style="fill: #d62728; stroke: #d62728"/>
     <use xlink:href="#m76deca29ee" x="343.405156" y="498.403519" style="fill: #d62728; stroke: #d62728"/>
     <use xlink:href="#m76deca29ee" x="425.038916" y="461.333747" style="fill: #d62728; stroke: #d62728"/>
     <use xlink:href="#m76deca29ee" x="506.672675" y="506.332202" style="fill: #d62728; stroke: #d62728"/>
     <use xlink:href="#m76deca29ee" x="588.306435" y="382.33092" style="fill: #d62728; stroke: #d62728"/>
    </g>
   </g>
   <g id="patch_3">
    <path d="M 74.01375 529.308125 
L 74.01375 23.837813 
" style="fill: none; stroke: #000000; stroke-width: 0.8; stroke-linejoin: miter; stroke-linecap: square"/>
   </g>
   <g id="patch_4">
    <path d="M 612.796562 529.308125 
L 612.796562 23.837813 
" style="fill: none; stroke: #000000; stroke-width: 0.8; stroke-linejoin: miter; stroke-linecap: square"/>
   </g>
   <g id="patch_5">
    <path d="M 74.01375 529.308125 
L 612.796563 529.308125 
" style="fill: none; stroke: #000000; stroke-width: 0.8; stroke-linejoin: miter; stroke-linecap: square"/>
   </g>
   <g id="patch_6">
    <path d="M 74.01375 23.837812 
L 612.796563 23.837812 
" style="fill: none; stroke: #000000; stroke-width: 0.8; stroke-linejoin: miter; stroke-linecap: square"/>
   </g>
   <g id="text_19">
    <text style="font: 700 14px 'DejaVu Sans', 'Bitstream Vera Sans', 'Computer Modern Sans Serif', 'Lucida Grande', 'Verdana', 'Geneva', 'Lucid', 'Arial', 'Helvetica', 'Avant Garde', sans-serif; text-anchor: middle" x="343.405156" y="17.837813" transform="rotate(-0 343.405156 17.837813)">Coroutine Creation - Performance Trend</text>
   </g>
   <g id="legend_1">
    <g id="patch_7">
     <path d="M 646.735703 91.662813 
L 841.059141 91.662813 
Q 843.059141 91.662813 843.059141 89.662813 
L 843.059141 30.837813 
Q 843.059141 28.837813 841.059141 28.837813 
L 646.735703 28.837813 
Q 644.735703 28.837813 644.735703 30.837813 
L 644.735703 89.662813 
Q 644.735703 91.662813 646.735703 91.662813 
z
" style="fill: #ffffff; opacity: 0.8; stroke: #cccccc; stroke-linejoin: miter"/>
    </g>
    <g id="line2d_28">
     <path d="M 648.735703 36.93625 
L 658.735703 36.93625 
L 668.735703 36.93625 
" style="fill: none; stroke: #1f77b4; stroke-width: 2; stroke-linecap: square"/>
     <g>
      <use xlink:href="#m957e0e7e2b" x="658.735703" y="36.93625" style="fill: #1f77b4; stroke: #1f77b4"/>
     </g>
    </g>
    <g id="text_20">
     <text style="font: 10px 'DejaVu Sans', 'Bitstream Vera Sans', 'Computer Modern Sans Serif', 'Lucida Grande', 'Verdana', 'Geneva', 'Lucid', 'Arial', 'Helvetica', 'Avant Garde', sans-serif; text-anchor: start" x="676.735703" y="40.43625" transform="rotate(-0 676.735703 40.43625)">gcc-14.2 - CoroutineCreation_V1</text>
    </g>
    <g id="line2d_29">
     <path d="M 648.735703 51.8925 
L 658.735703 51.8925 
L 668.735703 51.8925 
" style="fill: none; stroke: #ff7f0e; stroke-width: 2; stroke-linecap: square"/>
     <g>
      <use xlink:href="#md24eaaf576" x="658.735703" y="51.8925" style="fill: #ff7f0e; stroke: #ff7f0e"/>
     </g>
    </g>
    <g id="text_21">
     <text style="font: 10px 'DejaVu Sans', 'Bitstream Vera Sans', 'Computer Modern Sans Serif', 'Lucida Grande', 'Verdana', 'Geneva', 'Lucid', 'Arial', 'Helvetica', 'Avant Garde', sans-serif; text-anchor: start" x="676.735703" y="55.3925" transform="rotate(-0 676.735703 55.3925)">gcc-14.2 - CoroutineCreation_V2</text>
    </g>
    <g id="line2d_30">
     <path d="M 648.735703 66.84875 
L 658.735703 66.84875 
L 668.735703 66.84875 
" style="fill: none; stroke: #2ca02c; stroke-width: 2; stroke-linecap: square"/>
     <g>
      <use xlink:href="#m3c9512f21e" x="658.735703" y="66.84875" style="fill: #2ca02c; stroke: #2ca02c"/>
     </g>
    </g>
    <g id="text_22">
     <text style="font: 10px 'DejaVu Sans', 'Bitstream Vera Sans', 'Computer Modern Sans Serif', 'Lucida Grande', 'Verdana', 'Geneva', 'Lucid', 'Arial', 'Helvetica', 'Avant Garde', sans-serif; text-anchor: start" x="676.735703" y="70.34875" transform="rotate(-0 676.735703 70.34875)">gcc-4.2 - CoroutineCreation_V1</text>
    </g>
    <g id="line2d_31">
     <path d="M 648.735703 81.805 
L 658.735703 81.805 
L 668.735703 81.805 
" style="fill: none; stroke: #d62728; stroke-width: 2; stroke-linecap: square"/>
     <g>
      <use xlink:href="#m76deca29ee" x="658.735703" y="81.805" style="fill: #d62728; stroke: #d62728"/>
     </g>
    </g>
    <g id="text_23">
     <text style="font: 10px 'DejaVu Sans', 'Bitstream Vera Sans', 'Computer Modern Sans Serif', 'Lucida Grande', 'Verdana', 'Geneva', 'Lucid', 'Arial', 'Helvetica', 'Avant Garde', sans-serif; text-anchor: start" x="676.735703" y="85.305" transform="rotate(-0 676.735703 85.305)">gcc-4.2 - CoroutineCreation_V2</text>
    </g>
   </g>
  </g>
 </g>
 <defs>
  <clipPath id="pb57ad4093a">
   <rect x="74.01375" y="23.837813" width="538.782812" height="505.470313"/>
  </clipPath>
 </defs>
</svg>
