<?xml version="1.0" encoding="utf-8" standalone="no"?>
<!DOCTYPE svg PUBLIC "-//W3C//DTD SVG 1.1//EN"
  "http://www.w3.org/Graphics/SVG/1.1/DTD/svg11.dtd">
<svg xmlns:xlink="http://www.w3.org/1999/xlink" width="850.820859pt" height="568.8pt" viewBox="0 0 850.820859 568.8" xmlns="http://www.w3.org/2000/svg" version="1.1">
 <metadata>
  <rdf:RDF xmlns:dc="http://purl.org/dc/elements/1.1/" xmlns:cc="http://creativecommons.org/ns#" xmlns:rdf="http://www.w3.org/1999/02/22-rdf-syntax-ns#">
   <cc:Work>
    <dc:type rdf:resource="http://purl.org/dc/dcmitype/StillImage"/>
    <dc:date>2025-08-31T21:46:04.907306</dc:date>
    <dc:format>image/svg+xml</dc:format>
    <dc:creator>
     <cc:Agent>
      <dc:title>Matplotlib v3.9.4, https://matplotlib.org/</dc:title>
     </cc:Agent>
    </dc:creator>
   </cc:Work>
  </rdf:RDF>
 </metadata>
 <defs>
  <style type="text/css">*{stroke-linejoin: round; stroke-linecap: butt}</style>
 </defs>
 <g id="figure_1">
  <g id="patch_1">
   <path d="M 0 568.8 
L 850.820859 568.8 
L 850.820859 0 
L 0 0 
z
" style="fill: #ffffff"/>
  </g>
  <g id="axes_1">
   <g id="patch_2">
    <path d="M 64.41375 529.308125 
L 614.430938 529.308125 
L 614.430938 23.837812 
L 64.41375 23.837812 
z
" style="fill: #ffffff"/>
   </g>
   <g id="matplotlib.axis_1">
    <g id="xtick_1">
     <g id="line2d_1">
      <path d="M 64.41375 529.308125 
L 64.41375 23.837812 
" clip-path="url(#pe67633101a)" style="fill: none; stroke: #b0b0b0; stroke-opacity: 0.3; stroke-width: 0.8; stroke-linecap: square"/>
     </g>
     <g id="line2d_2">
      <defs>
       <path id="me58448e578" d="M 0 0 
L 0 3.5 
" style="stroke: #000000; stroke-width: 0.8"/>
      </defs>
      <g>
       <use xlink:href="#me58448e578" x="64.41375" y="529.308125" style="stroke: #000000; stroke-width: 0.8"/>
      </g>
     </g>
     <g id="text_1">
      <text style="font: 10px 'DejaVu Sans', 'Bitstream Vera Sans', 'Computer Modern Sans Serif', 'Lucida Grande', 'Verdana', 'Geneva', 'Lucid', 'Arial', 'Helvetica', 'Avant Garde', sans-serif; text-anchor: middle" x="64.41375" y="543.906563" transform="rotate(-0 64.41375 543.906563)">95.0</text>
     </g>
    </g>
    <g id="xtick_2">
     <g id="line2d_3">
      <path d="M 126.915703 529.308125 
L 126.915703 23.837812 
" clip-path="url(#pe67633101a)" style="fill: none; stroke: #b0b0b0; stroke-opacity: 0.3; stroke-width: 0.8; stroke-linecap: square"/>
     </g>
     <g id="line2d_4">
      <g>
       <use xlink:href="#me58448e578" x="126.915703" y="529.308125" style="stroke: #000000; stroke-width: 0.8"/>
      </g>
     </g>
     <g id="text_2">
      <text style="font: 10px 'DejaVu Sans', 'Bitstream Vera Sans', 'Computer Modern Sans Serif', 'Lucida Grande', 'Verdana', 'Geneva', 'Lucid', 'Arial', 'Helvetica', 'Avant Garde', sans-serif; text-anchor: middle" x="126.915703" y="543.906563" transform="rotate(-0 126.915703 543.906563)">97.5</text>
     </g>
    </g>
    <g id="xtick_3">
     <g id="line2d_5">
      <path d="M 189.417656 529.308125 
L 189.417656 23.837812 
" clip-path="url(#pe67633101a)" style="fill: none; stroke: #b0b0b0; stroke-opacity: 0.3; stroke-width: 0.8; stroke-linecap: square"/>
     </g>
     <g id="line2d_6">
      <g>
       <use xlink:href="#me58448e578" x="189.417656" y="529.308125" style="stroke: #000000; stroke-width: 0.8"/>
      </g>
     </g>
     <g id="text_3">
      <text style="font: 10px 'DejaVu Sans', 'Bitstream Vera Sans', 'Computer Modern Sans Serif', 'Lucida Grande', 'Verdana', 'Geneva', 'Lucid', 'Arial', 'Helvetica', 'Avant Garde', sans-serif; text-anchor: middle" x="189.417656" y="543.906563" transform="rotate(-0 189.417656 543.906563)">100.0</text>
     </g>
    </g>
    <g id="xtick_4">
     <g id="line2d_7">
      <path d="M 251.919609 529.308125 
L 251.919609 23.837812 
" clip-path="url(#pe67633101a)" style="fill: none; stroke: #b0b0b0; stroke-opacity: 0.3; stroke-width: 0.8; stroke-linecap: square"/>
     </g>
     <g id="line2d_8">
      <g>
       <use xlink:href="#me58448e578" x="251.919609" y="529.308125" style="stroke: #000000; stroke-width: 0.8"/>
      </g>
     </g>
     <g id="text_4">
      <text style="font: 10px 'DejaVu Sans', 'Bitstream Vera Sans', 'Computer Modern Sans Serif', 'Lucida Grande', 'Verdana', 'Geneva', 'Lucid', 'Arial', 'Helvetica', 'Avant Garde', sans-serif; text-anchor: middle" x="251.919609" y="543.906563" transform="rotate(-0 251.919609 543.906563)">102.5</text>
     </g>
    </g>
    <g id="xtick_5">
     <g id="line2d_9">
      <path d="M 314.421563 529.308125 
L 314.421563 23.837812 
" clip-path="url(#pe67633101a)" style="fill: none; stroke: #b0b0b0; stroke-opacity: 0.3; stroke-width: 0.8; stroke-linecap: square"/>
     </g>
     <g id="line2d_10">
      <g>
       <use xlink:href="#me58448e578" x="314.421563" y="529.308125" style="stroke: #000000; stroke-width: 0.8"/>
      </g>
     </g>
     <g id="text_5">
      <text style="font: 10px 'DejaVu Sans', 'Bitstream Vera Sans', 'Computer Modern Sans Serif', 'Lucida Grande', 'Verdana', 'Geneva', 'Lucid', 'Arial', 'Helvetica', 'Avant Garde', sans-serif; text-anchor: middle" x="314.421563" y="543.906563" transform="rotate(-0 314.421563 543.906563)">105.0</text>
     </g>
    </g>
    <g id="xtick_6">
     <g id="line2d_11">
      <path d="M 376.923516 529.308125 
L 376.923516 23.837812 
" clip-path="url(#pe67633101a)" style="fill: none; stroke: #b0b0b0; stroke-opacity: 0.3; stroke-width: 0.8; stroke-linecap: square"/>
     </g>
     <g id="line2d_12">
      <g>
       <use xlink:href="#me58448e578" x="376.923516" y="529.308125" style="stroke: #000000; stroke-width: 0.8"/>
      </g>
     </g>
     <g id="text_6">
      <text style="font: 10px 'DejaVu Sans', 'Bitstream Vera Sans', 'Computer Modern Sans Serif', 'Lucida Grande', 'Verdana', 'Geneva', 'Lucid', 'Arial', 'Helvetica', 'Avant Garde', sans-serif; text-anchor: middle" x="376.923516" y="543.906563" transform="rotate(-0 376.923516 543.906563)">107.5</text>
     </g>
    </g>
    <g id="xtick_7">
     <g id="line2d_13">
      <path d="M 439.425469 529.308125 
L 439.425469 23.837812 
" clip-path="url(#pe67633101a)" style="fill: none; stroke: #b0b0b0; stroke-opacity: 0.3; stroke-width: 0.8; stroke-linecap: square"/>
     </g>
     <g id="line2d_14">
      <g>
       <use xlink:href="#me58448e578" x="439.425469" y="529.308125" style="stroke: #000000; stroke-width: 0.8"/>
      </g>
     </g>
     <g id="text_7">
      <text style="font: 10px 'DejaVu Sans', 'Bitstream Vera Sans', 'Computer Modern Sans Serif', 'Lucida Grande', 'Verdana', 'Geneva', 'Lucid', 'Arial', 'Helvetica', 'Avant Garde', sans-serif; text-anchor: middle" x="439.425469" y="543.906563" transform="rotate(-0 439.425469 543.906563)">110.0</text>
     </g>
    </g>
    <g id="xtick_8">
     <g id="line2d_15">
      <path d="M 501.927422 529.308125 
L 501.927422 23.837812 
" clip-path="url(#pe67633101a)" style="fill: none; stroke: #b0b0b0; stroke-opacity: 0.3; stroke-width: 0.8; stroke-linecap: square"/>
     </g>
     <g id="line2d_16">
      <g>
       <use xlink:href="#me58448e578" x="501.927422" y="529.308125" style="stroke: #000000; stroke-width: 0.8"/>
      </g>
     </g>
     <g id="text_8">
      <text style="font: 10px 'DejaVu Sans', 'Bitstream Vera Sans', 'Computer Modern Sans Serif', 'Lucida Grande', 'Verdana', 'Geneva', 'Lucid', 'Arial', 'Helvetica', 'Avant Garde', sans-serif; text-anchor: middle" x="501.927422" y="543.906563" transform="rotate(-0 501.927422 543.906563)">112.5</text>
     </g>
    </g>
    <g id="xtick_9">
     <g id="line2d_17">
      <path d="M 564.429375 529.308125 
L 564.429375 23.837812 
" clip-path="url(#pe67633101a)" style="fill: none; stroke: #b0b0b0; stroke-opacity: 0.3; stroke-width: 0.8; stroke-linecap: square"/>
     </g>
     <g id="line2d_18">
      <g>
       <use xlink:href="#me58448e578" x="564.429375" y="529.308125" style="stroke: #000000; stroke-width: 0.8"/>
      </g>
     </g>
     <g id="text_9">
      <text style="font: 10px 'DejaVu Sans', 'Bitstream Vera Sans', 'Computer Modern Sans Serif', 'Lucida Grande', 'Verdana', 'Geneva', 'Lucid', 'Arial', 'Helvetica', 'Avant Garde', sans-serif; text-anchor: middle" x="564.429375" y="543.906563" transform="rotate(-0 564.429375 543.906563)">115.0</text>
     </g>
    </g>
    <g id="text_10">
     <text style="font: 12px 'DejaVu Sans', 'Bitstream Vera Sans', 'Computer Modern Sans Serif', 'Lucida Grande', 'Verdana', 'Geneva', 'Lucid', 'Arial', 'Helvetica', 'Avant Garde', sans-serif; text-anchor: middle" x="339.422344" y="559.104375" transform="rotate(-0 339.422344 559.104375)">Build Number</text>
    </g>
   </g>
   <g id="matplotlib.axis_2">
    <g id="ytick_1">
     <g id="line2d_19">
      <defs>
       <path id="m6c61bb506f" d="M 0 0 
L -2 0 
" style="stroke: #000000; stroke-width: 0.6"/>
      </defs>
      <g>
       <use xlink:href="#m6c61bb506f" x="64.41375" y="314.5009" style="stroke: #000000; stroke-width: 0.6"/>
      </g>
     </g>
     <g id="text_11">
      <!-- $\mathdefault{8\times10^{6}}$ -->
      <g transform="translate(22.81375 318.300119)">
       <text>
        <tspan style="font: 10px 'DejaVu Sans'" x="0 8.310547 18.637695 25" y="-0.9765625">8×10</tspan>
        <tspan style="font: 7px 'DejaVu Sans'" x="31.458008" y="-4.8046875">6</tspan>
       </text>
      </g>
     </g>
    </g>
    <g id="ytick_2">
     <g id="line2d_20">
      <g>
       <use xlink:href="#m6c61bb506f" x="64.41375" y="95.945828" style="stroke: #000000; stroke-width: 0.6"/>
      </g>
     </g>
     <g id="text_12">
      <!-- $\mathdefault{9\times10^{6}}$ -->
      <g transform="translate(22.81375 99.745047)">
       <text>
        <tspan style="font: 10px 'DejaVu Sans'" x="0 8.310547 18.637695 25" y="-0.9765625">9×10</tspan>
        <tspan style="font: 7px 'DejaVu Sans'" x="31.458008" y="-4.8046875">6</tspan>
       </text>
      </g>
     </g>
    </g>
    <g id="text_13">
     <text style="font: 12px 'DejaVu Sans', 'Bitstream Vera Sans', 'Computer Modern Sans Serif', 'Lucida Grande', 'Verdana', 'Geneva', 'Lucid', 'Arial', 'Helvetica', 'Avant Garde', sans-serif; text-anchor: middle" x="16.318125" y="276.572969" transform="rotate(-90 16.318125 276.572969)">Median Elapsed Time (nanoseconds)</text>
    </g>
   </g>
   <g id="line2d_21">
    <path d="M 89.414531 473.324099 
L 114.415313 373.455033 
L 164.416875 495.918948 
L 189.417656 398.318901 
L 214.418437 506.332202 
L 239.419219 483.886668 
L 264.42 432.310647 
L 289.420781 498.309938 
L 314.421563 427.776705 
L 339.422344 452.120479 
L 389.423906 329.339319 
L 414.424687 321.709382 
L 439.425469 500.910014 
L 464.42625 457.621947 
L 489.427031 479.575665 
L 539.428594 492.03907 
L 564.429375 492.32036 
L 589.430156 498.98665 
" clip-path="url(#pe67633101a)" style="fill: none; stroke: #1f77b4; stroke-width: 2; stroke-linecap: square"/>
    <defs>
     <path id="m7bd5932c37" d="M 0 3 
C 0.795609 3 1.55874 2.683901 2.12132 2.12132 
C 2.683901 1.55874 3 0.795609 3 0 
C 3 -0.795609 2.683901 -1.55874 2.12132 -2.12132 
C 1.55874 -2.683901 0.795609 -3 0 -3 
C -0.795609 -3 -1.55874 -2.683901 -2.12132 -2.12132 
C -2.683901 -1.55874 -3 -0.795609 -3 0 
C -3 0.795609 -2.683901 1.55874 -2.12132 2.12132 
C -1.55874 2.683901 -0.795609 3 0 3 
z
" style="stroke: #1f77b4"/>
    </defs>
    <g clip-path="url(#pe67633101a)">
     <use xlink:href="#m7bd5932c37" x="89.414531" y="473.324099" style="fill: #1f77b4; stroke: #1f77b4"/>
     <use xlink:href="#m7bd5932c37" x="114.415313" y="373.455033" style="fill: #1f77b4; stroke: #1f77b4"/>
     <use xlink:href="#m7bd5932c37" x="164.416875" y="495.918948" style="fill: #1f77b4; stroke: #1f77b4"/>
     <use xlink:href="#m7bd5932c37" x="189.417656" y="398.318901" style="fill: #1f77b4; stroke: #1f77b4"/>
     <use xlink:href="#m7bd5932c37" x="214.418437" y="506.332202" style="fill: #1f77b4; stroke: #1f77b4"/>
     <use xlink:href="#m7bd5932c37" x="239.419219" y="483.886668" style="fill: #1f77b4; stroke: #1f77b4"/>
     <use xlink:href="#m7bd5932c37" x="264.42" y="432.310647" style="fill: #1f77b4; stroke: #1f77b4"/>
     <use xlink:href="#m7bd5932c37" x="289.420781" y="498.309938" style="fill: #1f77b4; stroke: #1f77b4"/>
     <use xlink:href="#m7bd5932c37" x="314.421563" y="427.776705" style="fill: #1f77b4; stroke: #1f77b4"/>
     <use xlink:href="#m7bd5932c37" x="339.422344" y="452.120479" style="fill: #1f77b4; stroke: #1f77b4"/>
     <use xlink:href="#m7bd5932c37" x="389.423906" y="329.339319" style="fill: #1f77b4; stroke: #1f77b4"/>
     <use xlink:href="#m7bd5932c37" x="414.424687" y="321.709382" style="fill: #1f77b4; stroke: #1f77b4"/>
     <use xlink:href="#m7bd5932c37" x="439.425469" y="500.910014" style="fill: #1f77b4; stroke: #1f77b4"/>
     <use xlink:href="#m7bd5932c37" x="464.42625" y="457.621947" style="fill: #1f77b4; stroke: #1f77b4"/>
     <use xlink:href="#m7bd5932c37" x="489.427031" y="479.575665" style="fill: #1f77b4; stroke: #1f77b4"/>
     <use xlink:href="#m7bd5932c37" x="539.428594" y="492.03907" style="fill: #1f77b4; stroke: #1f77b4"/>
     <use xlink:href="#m7bd5932c37" x="564.429375" y="492.32036" style="fill: #1f77b4; stroke: #1f77b4"/>
     <use xlink:href="#m7bd5932c37" x="589.430156" y="498.98665" style="fill: #1f77b4; stroke: #1f77b4"/>
    </g>
   </g>
   <g id="line2d_22">
    <path d="M 89.414531 468.731071 
L 114.415313 375.469217 
L 164.416875 493.103119 
L 189.417656 427.034623 
L 214.418437 502.308624 
L 239.419219 490.405747 
L 264.42 433.393284 
L 289.420781 485.415884 
L 314.421563 409.277979 
L 339.422344 468.619366 
L 389.423906 321.046485 
L 414.424687 341.327562 
L 439.425469 487.592791 
L 464.42625 413.223508 
L 489.427031 470.045949 
L 539.428594 500.086119 
L 564.429375 491.212547 
L 589.430156 500.693037 
" clip-path="url(#pe67633101a)" style="fill: none; stroke: #ff7f0e; stroke-width: 2; stroke-linecap: square"/>
    <defs>
     <path id="m2ba03a46c4" d="M 0 3 
C 0.795609 3 1.55874 2.683901 2.12132 2.12132 
C 2.683901 1.55874 3 0.795609 3 0 
C 3 -0.795609 2.683901 -1.55874 2.12132 -2.12132 
C 1.55874 -2.683901 0.795609 -3 0 -3 
C -0.795609 -3 -1.55874 -2.683901 -2.12132 -2.12132 
C -2.683901 -1.55874 -3 -0.795609 -3 0 
C -3 0.795609 -2.683901 1.55874 -2.12132 2.12132 
C -1.55874 2.683901 -0.795609 3 0 3 
z
" style="stroke: #ff7f0e"/>
    </defs>
    <g clip-path="url(#pe67633101a)">
     <use xlink:href="#m2ba03a46c4" x="89.414531" y="468.731071" style="fill: #ff7f0e; stroke: #ff7f0e"/>
     <use xlink:href="#m2ba03a46c4" x="114.415313" y="375.469217" style="fill: #ff7f0e; stroke: #ff7f0e"/>
     <use xlink:href="#m2ba03a46c4" x="164.416875" y="493.103119" style="fill: #ff7f0e; stroke: #ff7f0e"/>
     <use xlink:href="#m2ba03a46c4" x="189.417656" y="427.034623" style="fill: #ff7f0e; stroke: #ff7f0e"/>
     <use xlink:href="#m2ba03a46c4" x="214.418437" y="502.308624" style="fill: #ff7f0e; stroke: #ff7f0e"/>
     <use xlink:href="#m2ba03a46c4" x="239.419219" y="490.405747" style="fill: #ff7f0e; stroke: #ff7f0e"/>
     <use xlink:href="#m2ba03a46c4" x="264.42" y="433.393284" style="fill: #ff7f0e; stroke: #ff7f0e"/>
     <use xlink:href="#m2ba03a46c4" x="289.420781" y="485.415884" style="fill: #ff7f0e; stroke: #ff7f0e"/>
     <use xlink:href="#m2ba03a46c4" x="314.421563" y="409.277979" style="fill: #ff7f0e; stroke: #ff7f0e"/>
     <use xlink:href="#m2ba03a46c4" x="339.422344" y="468.619366" style="fill: #ff7f0e; stroke: #ff7f0e"/>
     <use xlink:href="#m2ba03a46c4" x="389.423906" y="321.046485" style="fill: #ff7f0e; stroke: #ff7f0e"/>
     <use xlink:href="#m2ba03a46c4" x="414.424687" y="341.327562" style="fill: #ff7f0e; stroke: #ff7f0e"/>
     <use xlink:href="#m2ba03a46c4" x="439.425469" y="487.592791" style="fill: #ff7f0e; stroke: #ff7f0e"/>
     <use xlink:href="#m2ba03a46c4" x="464.42625" y="413.223508" style="fill: #ff7f0e; stroke: #ff7f0e"/>
     <use xlink:href="#m2ba03a46c4" x="489.427031" y="470.045949" style="fill: #ff7f0e; stroke: #ff7f0e"/>
     <use xlink:href="#m2ba03a46c4" x="539.428594" y="500.086119" style="fill: #ff7f0e; stroke: #ff7f0e"/>
     <use xlink:href="#m2ba03a46c4" x="564.429375" y="491.212547" style="fill: #ff7f0e; stroke: #ff7f0e"/>
     <use xlink:href="#m2ba03a46c4" x="589.430156" y="500.693037" style="fill: #ff7f0e; stroke: #ff7f0e"/>
    </g>
   </g>
   <g id="line2d_23">
    <path d="M 89.414531 89.173216 
L 114.415313 161.892239 
L 164.416875 128.43146 
L 189.417656 46.813736 
L 214.418437 179.893875 
L 239.419219 137.405096 
L 264.42 180.227381 
L 289.420781 173.569457 
L 314.421563 163.296004 
L 339.422344 170.358504 
L 389.423906 175.253276 
L 414.424687 183.466062 
L 439.425469 155.198592 
L 489.427031 169.4432 
L 564.429375 173.94565 
L 589.430156 137.462802 
" clip-path="url(#pe67633101a)" style="fill: none; stroke: #2ca02c; stroke-width: 2; stroke-linecap: square"/>
    <defs>
     <path id="m886e02b92c" d="M 0 3 
C 0.795609 3 1.55874 2.683901 2.12132 2.12132 
C 2.683901 1.55874 3 0.795609 3 0 
C 3 -0.795609 2.683901 -1.55874 2.12132 -2.12132 
C 1.55874 -2.683901 0.795609 -3 0 -3 
C -0.795609 -3 -1.55874 -2.683901 -2.12132 -2.12132 
C -2.683901 -1.55874 -3 -0.795609 -3 0 
C -3 0.795609 -2.683901 1.55874 -2.12132 2.12132 
C -1.55874 2.683901 -0.795609 3 0 3 
z
" style="stroke: #2ca02c"/>
    </defs>
    <g clip-path="url(#pe67633101a)">
     <use xlink:href="#m886e02b92c" x="89.414531" y="89.173216" style="fill: #2ca02c; stroke: #2ca02c"/>
     <use xlink:href="#m886e02b92c" x="114.415313" y="161.892239" style="fill: #2ca02c; stroke: #2ca02c"/>
     <use xlink:href="#m886e02b92c" x="164.416875" y="128.43146" style="fill: #2ca02c; stroke: #2ca02c"/>
     <use xlink:href="#m886e02b92c" x="189.417656" y="46.813736" style="fill: #2ca02c; stroke: #2ca02c"/>
     <use xlink:href="#m886e02b92c" x="214.418437" y="179.893875" style="fill: #2ca02c; stroke: #2ca02c"/>
     <use xlink:href="#m886e02b92c" x="239.419219" y="137.405096" style="fill: #2ca02c; stroke: #2ca02c"/>
     <use xlink:href="#m886e02b92c" x="264.42" y="180.227381" style="fill: #2ca02c; stroke: #2ca02c"/>
     <use xlink:href="#m886e02b92c" x="289.420781" y="173.569457" style="fill: #2ca02c; stroke: #2ca02c"/>
     <use xlink:href="#m886e02b92c" x="314.421563" y="163.296004" style="fill: #2ca02c; stroke: #2ca02c"/>
     <use xlink:href="#m886e02b92c" x="339.422344" y="170.358504" style="fill: #2ca02c; stroke: #2ca02c"/>
     <use xlink:href="#m886e02b92c" x="389.423906" y="175.253276" style="fill: #2ca02c; stroke: #2ca02c"/>
     <use xlink:href="#m886e02b92c" x="414.424687" y="183.466062" style="fill: #2ca02c; stroke: #2ca02c"/>
     <use xlink:href="#m886e02b92c" x="439.425469" y="155.198592" style="fill: #2ca02c; stroke: #2ca02c"/>
     <use xlink:href="#m886e02b92c" x="489.427031" y="169.4432" style="fill: #2ca02c; stroke: #2ca02c"/>
     <use xlink:href="#m886e02b92c" x="564.429375" y="173.94565" style="fill: #2ca02c; stroke: #2ca02c"/>
     <use xlink:href="#m886e02b92c" x="589.430156" y="137.462802" style="fill: #2ca02c; stroke: #2ca02c"/>
    </g>
   </g>
   <g id="line2d_24">
    <path d="M 89.414531 97.951281 
L 114.415313 174.420983 
L 164.416875 180.369526 
L 189.417656 54.029165 
L 214.418437 198.408958 
L 239.419219 141.028216 
L 264.42 175.879958 
L 289.420781 190.427519 
L 314.421563 187.15686 
L 339.422344 199.113062 
L 389.423906 204.450786 
L 414.424687 192.78371 
L 439.425469 175.888375 
L 489.427031 189.229265 
L 564.429375 194.220722 
L 589.430156 166.219716 
" clip-path="url(#pe67633101a)" style="fill: none; stroke: #d62728; stroke-width: 2; stroke-linecap: square"/>
    <defs>
     <path id="mca7bf90a6c" d="M 0 3 
C 0.795609 3 1.55874 2.683901 2.12132 2.12132 
C 2.683901 1.55874 3 0.795609 3 0 
C 3 -0.795609 2.683901 -1.55874 2.12132 -2.12132 
C 1.55874 -2.683901 0.795609 -3 0 -3 
C -0.795609 -3 -1.55874 -2.683901 -2.12132 -2.12132 
C -2.683901 -1.55874 -3 -0.795609 -3 0 
C -3 0.795609 -2.683901 1.55874 -2.12132 2.12132 
C -1.55874 2.683901 -0.795609 3 0 3 
z
" style="stroke: #d62728"/>
    </defs>
    <g clip-path="url(#pe67633101a)">
     <use xlink:href="#mca7bf90a6c" x="89.414531" y="97.951281" style="fill: #d62728; stroke: #d62728"/>
     <use xlink:href="#mca7bf90a6c" x="114.415313" y="174.420983" style="fill: #d62728; stroke: #d62728"/>
     <use xlink:href="#mca7bf90a6c" x="164.416875" y="180.369526" style="fill: #d62728; stroke: #d62728"/>
     <use xlink:href="#mca7bf90a6c" x="189.417656" y="54.029165" style="fill: #d62728; stroke: #d62728"/>
     <use xlink:href="#mca7bf90a6c" x="214.418437" y="198.408958" style="fill: #d62728; stroke: #d62728"/>
     <use xlink:href="#mca7bf90a6c" x="239.419219" y="141.028216" style="fill: #d62728; stroke: #d62728"/>
     <use xlink:href="#mca7bf90a6c" x="264.42" y="175.879958" style="fill: #d62728; stroke: #d62728"/>
     <use xlink:href="#mca7bf90a6c" x="289.420781" y="190.427519" style="fill: #d62728; stroke: #d62728"/>
     <use xlink:href="#mca7bf90a6c" x="314.421563" y="187.15686" style="fill: #d62728; stroke: #d62728"/>
     <use xlink:href="#mca7bf90a6c" x="339.422344" y="199.113062" style="fill: #d62728; stroke: #d62728"/>
     <use xlink:href="#mca7bf90a6c" x="389.423906" y="204.450786" style="fill: #d62728; stroke: #d62728"/>
     <use xlink:href="#mca7bf90a6c" x="414.424687" y="192.78371" style="fill: #d62728; stroke: #d62728"/>
     <use xlink:href="#mca7bf90a6c" x="439.425469" y="175.888375" style="fill: #d62728; stroke: #d62728"/>
     <use xlink:href="#mca7bf90a6c" x="489.427031" y="189.229265" style="fill: #d62728; stroke: #d62728"/>
     <use xlink:href="#mca7bf90a6c" x="564.429375" y="194.220722" style="fill: #d62728; stroke: #d62728"/>
     <use xlink:href="#mca7bf90a6c" x="589.430156" y="166.219716" style="fill: #d62728; stroke: #d62728"/>
    </g>
   </g>
   <g id="patch_3">
    <path d="M 64.41375 529.308125 
L 64.41375 23.837812 
" style="fill: none; stroke: #000000; stroke-width: 0.8; stroke-linejoin: miter; stroke-linecap: square"/>
   </g>
   <g id="patch_4">
    <path d="M 614.430938 529.308125 
L 614.430938 23.837812 
" style="fill: none; stroke: #000000; stroke-width: 0.8; stroke-linejoin: miter; stroke-linecap: square"/>
   </g>
   <g id="patch_5">
    <path d="M 64.41375 529.308125 
L 614.430938 529.308125 
" style="fill: none; stroke: #000000; stroke-width: 0.8; stroke-linejoin: miter; stroke-linecap: square"/>
   </g>
   <g id="patch_6">
    <path d="M 64.41375 23.837812 
L 614.430938 23.837812 
" style="fill: none; stroke: #000000; stroke-width: 0.8; stroke-linejoin: miter; stroke-linecap: square"/>
   </g>
   <g id="text_14">
    <text style="font: 700 14px 'DejaVu Sans', 'Bitstream Vera Sans', 'Computer Modern Sans Serif', 'Lucida Grande', 'Verdana', 'Geneva', 'Lucid', 'Arial', 'Helvetica', 'Avant Garde', sans-serif; text-anchor: middle" x="339.422344" y="17.837813" transform="rotate(-0 339.422344 17.837813)">Coroutine Memory - Performance Trend</text>
   </g>
   <g id="legend_1">
    <g id="patch_7">
     <path d="M 648.931797 91.662813 
L 841.620859 91.662813 
Q 843.620859 91.662813 843.620859 89.662813 
L 843.620859 30.837813 
Q 843.620859 28.837813 841.620859 28.837813 
L 648.931797 28.837813 
Q 646.931797 28.837813 646.931797 30.837813 
L 646.931797 89.662813 
Q 646.931797 91.662813 648.931797 91.662813 
z
" style="fill: #ffffff; opacity: 0.8; stroke: #cccccc; stroke-linejoin: miter"/>
    </g>
    <g id="line2d_25">
     <path d="M 650.931797 36.93625 
L 660.931797 36.93625 
L 670.931797 36.93625 
" style="fill: none; stroke: #1f77b4; stroke-width: 2; stroke-linecap: square"/>
     <g>
      <use xlink:href="#m7bd5932c37" x="660.931797" y="36.93625" style="fill: #1f77b4; stroke: #1f77b4"/>
     </g>
    </g>
    <g id="text_15">
     <text style="font: 10px 'DejaVu Sans', 'Bitstream Vera Sans', 'Computer Modern Sans Serif', 'Lucida Grande', 'Verdana', 'Geneva', 'Lucid', 'Arial', 'Helvetica', 'Avant Garde', sans-serif; text-anchor: start" x="678.931797" y="40.43625" transform="rotate(-0 678.931797 40.43625)">gcc-14.2 - CoroutineMemory_V1</text>
    </g>
    <g id="line2d_26">
     <path d="M 650.931797 51.8925 
L 660.931797 51.8925 
L 670.931797 51.8925 
" style="fill: none; stroke: #ff7f0e; stroke-width: 2; stroke-linecap: square"/>
     <g>
      <use xlink:href="#m2ba03a46c4" x="660.931797" y="51.8925" style="fill: #ff7f0e; stroke: #ff7f0e"/>
     </g>
    </g>
    <g id="text_16">
     <text style="font: 10px 'DejaVu Sans', 'Bitstream Vera Sans', 'Computer Modern Sans Serif', 'Lucida Grande', 'Verdana', 'Geneva', 'Lucid', 'Arial', 'Helvetica', 'Avant Garde', sans-serif; text-anchor: start" x="678.931797" y="55.3925" transform="rotate(-0 678.931797 55.3925)">gcc-14.2 - CoroutineMemory_V2</text>
    </g>
    <g id="line2d_27">
     <path d="M 650.931797 66.84875 
L 660.931797 66.84875 
L 670.931797 66.84875 
" style="fill: none; stroke: #2ca02c; stroke-width: 2; stroke-linecap: square"/>
     <g>
      <use xlink:href="#m886e02b92c" x="660.931797" y="66.84875" style="fill: #2ca02c; stroke: #2ca02c"/>
     </g>
    </g>
    <g id="text_17">
     <text style="font: 10px 'DejaVu Sans', 'Bitstream Vera Sans', 'Computer Modern Sans Serif', 'Lucida Grande', 'Verdana', 'Geneva', 'Lucid', 'Arial', 'Helvetica', 'Avant Garde', sans-serif; text-anchor: start" x="678.931797" y="70.34875" transform="rotate(-0 678.931797 70.34875)">gcc-4.2 - CoroutineMemory_V1</text>
    </g>
    <g id="line2d_28">
     <path d="M 650.931797 81.805 
L 660.931797 81.805 
L 670.931797 81.805 
" style="fill: none; stroke: #d62728; stroke-width: 2; stroke-linecap: square"/>
     <g>
      <use xlink:href="#mca7bf90a6c" x="660.931797" y="81.805" style="fill: #d62728; stroke: #d62728"/>
     </g>
    </g>
    <g id="text_18">
     <text style="font: 10px 'DejaVu Sans', 'Bitstream Vera Sans', 'Computer Modern Sans Serif', 'Lucida Grande', 'Verdana', 'Geneva', 'Lucid', 'Arial', 'Helvetica', 'Avant Garde', sans-serif; text-anchor: start" x="678.931797" y="85.305" transform="rotate(-0 678.931797 85.305)">gcc-4.2 - CoroutineMemory_V2</text>
    </g>
   </g>
  </g>
 </g>
 <defs>
  <clipPath id="pe67633101a">
   <rect x="64.41375" y="23.837813" width="550.017187" height="505.470313"/>
  </clipPath>
 </defs>
</svg>
