<?xml version="1.0" encoding="utf-8" standalone="no"?>
<!DOCTYPE svg PUBLIC "-//W3C//DTD SVG 1.1//EN"
  "http://www.w3.org/Graphics/SVG/1.1/DTD/svg11.dtd">
<svg xmlns:xlink="http://www.w3.org/1999/xlink" width="855.204687pt" height="568.8pt" viewBox="0 0 855.204687 568.8" xmlns="http://www.w3.org/2000/svg" version="1.1">
 <metadata>
  <rdf:RDF xmlns:dc="http://purl.org/dc/elements/1.1/" xmlns:cc="http://creativecommons.org/ns#" xmlns:rdf="http://www.w3.org/1999/02/22-rdf-syntax-ns#">
   <cc:Work>
    <dc:type rdf:resource="http://purl.org/dc/dcmitype/StillImage"/>
    <dc:date>2025-08-18T02:36:09.443511</dc:date>
    <dc:format>image/svg+xml</dc:format>
    <dc:creator>
     <cc:Agent>
      <dc:title>Matplotlib v3.9.4, https://matplotlib.org/</dc:title>
     </cc:Agent>
    </dc:creator>
   </cc:Work>
  </rdf:RDF>
 </metadata>
 <defs>
  <style type="text/css">*{stroke-linejoin: round; stroke-linecap: butt}</style>
 </defs>
 <g id="figure_1">
  <g id="patch_1">
   <path d="M 0 568.8 
L 855.204687 568.8 
L 855.204687 0 
L 0 0 
z
" style="fill: #ffffff"/>
  </g>
  <g id="axes_1">
   <g id="patch_2">
    <path d="M 64.41375 529.308125 
L 702.1075 529.308125 
L 702.1075 23.837812 
L 64.41375 23.837812 
z
" style="fill: #ffffff"/>
   </g>
   <g id="matplotlib.axis_1">
    <g id="xtick_1">
     <g id="line2d_1">
      <path d="M 70.210966 529.308125 
L 70.210966 23.837812 
" clip-path="url(#p3c751f19e2)" style="fill: none; stroke: #b0b0b0; stroke-opacity: 0.3; stroke-width: 0.8; stroke-linecap: square"/>
     </g>
     <g id="line2d_2">
      <defs>
       <path id="m1663db6a98" d="M 0 0 
L 0 3.5 
" style="stroke: #000000; stroke-width: 0.8"/>
      </defs>
      <g>
       <use xlink:href="#m1663db6a98" x="70.210966" y="529.308125" style="stroke: #000000; stroke-width: 0.8"/>
      </g>
     </g>
     <g id="text_1">
      <text style="font: 10px 'DejaVu Sans', 'Bitstream Vera Sans', 'Computer Modern Sans Serif', 'Lucida Grande', 'Verdana', 'Geneva', 'Lucid', 'Arial', 'Helvetica', 'Avant Garde', sans-serif; text-anchor: middle" x="70.210966" y="543.906563" transform="rotate(-0 70.210966 543.906563)">70</text>
     </g>
    </g>
    <g id="xtick_2">
     <g id="line2d_3">
      <path d="M 186.155284 529.308125 
L 186.155284 23.837812 
" clip-path="url(#p3c751f19e2)" style="fill: none; stroke: #b0b0b0; stroke-opacity: 0.3; stroke-width: 0.8; stroke-linecap: square"/>
     </g>
     <g id="line2d_4">
      <g>
       <use xlink:href="#m1663db6a98" x="186.155284" y="529.308125" style="stroke: #000000; stroke-width: 0.8"/>
      </g>
     </g>
     <g id="text_2">
      <text style="font: 10px 'DejaVu Sans', 'Bitstream Vera Sans', 'Computer Modern Sans Serif', 'Lucida Grande', 'Verdana', 'Geneva', 'Lucid', 'Arial', 'Helvetica', 'Avant Garde', sans-serif; text-anchor: middle" x="186.155284" y="543.906563" transform="rotate(-0 186.155284 543.906563)">75</text>
     </g>
    </g>
    <g id="xtick_3">
     <g id="line2d_5">
      <path d="M 302.099602 529.308125 
L 302.099602 23.837812 
" clip-path="url(#p3c751f19e2)" style="fill: none; stroke: #b0b0b0; stroke-opacity: 0.3; stroke-width: 0.8; stroke-linecap: square"/>
     </g>
     <g id="line2d_6">
      <g>
       <use xlink:href="#m1663db6a98" x="302.099602" y="529.308125" style="stroke: #000000; stroke-width: 0.8"/>
      </g>
     </g>
     <g id="text_3">
      <text style="font: 10px 'DejaVu Sans', 'Bitstream Vera Sans', 'Computer Modern Sans Serif', 'Lucida Grande', 'Verdana', 'Geneva', 'Lucid', 'Arial', 'Helvetica', 'Avant Garde', sans-serif; text-anchor: middle" x="302.099602" y="543.906563" transform="rotate(-0 302.099602 543.906563)">80</text>
     </g>
    </g>
    <g id="xtick_4">
     <g id="line2d_7">
      <path d="M 418.04392 529.308125 
L 418.04392 23.837812 
" clip-path="url(#p3c751f19e2)" style="fill: none; stroke: #b0b0b0; stroke-opacity: 0.3; stroke-width: 0.8; stroke-linecap: square"/>
     </g>
     <g id="line2d_8">
      <g>
       <use xlink:href="#m1663db6a98" x="418.04392" y="529.308125" style="stroke: #000000; stroke-width: 0.8"/>
      </g>
     </g>
     <g id="text_4">
      <text style="font: 10px 'DejaVu Sans', 'Bitstream Vera Sans', 'Computer Modern Sans Serif', 'Lucida Grande', 'Verdana', 'Geneva', 'Lucid', 'Arial', 'Helvetica', 'Avant Garde', sans-serif; text-anchor: middle" x="418.04392" y="543.906563" transform="rotate(-0 418.04392 543.906563)">85</text>
     </g>
    </g>
    <g id="xtick_5">
     <g id="line2d_9">
      <path d="M 533.988239 529.308125 
L 533.988239 23.837812 
" clip-path="url(#p3c751f19e2)" style="fill: none; stroke: #b0b0b0; stroke-opacity: 0.3; stroke-width: 0.8; stroke-linecap: square"/>
     </g>
     <g id="line2d_10">
      <g>
       <use xlink:href="#m1663db6a98" x="533.988239" y="529.308125" style="stroke: #000000; stroke-width: 0.8"/>
      </g>
     </g>
     <g id="text_5">
      <text style="font: 10px 'DejaVu Sans', 'Bitstream Vera Sans', 'Computer Modern Sans Serif', 'Lucida Grande', 'Verdana', 'Geneva', 'Lucid', 'Arial', 'Helvetica', 'Avant Garde', sans-serif; text-anchor: middle" x="533.988239" y="543.906563" transform="rotate(-0 533.988239 543.906563)">90</text>
     </g>
    </g>
    <g id="xtick_6">
     <g id="line2d_11">
      <path d="M 649.932557 529.308125 
L 649.932557 23.837812 
" clip-path="url(#p3c751f19e2)" style="fill: none; stroke: #b0b0b0; stroke-opacity: 0.3; stroke-width: 0.8; stroke-linecap: square"/>
     </g>
     <g id="line2d_12">
      <g>
       <use xlink:href="#m1663db6a98" x="649.932557" y="529.308125" style="stroke: #000000; stroke-width: 0.8"/>
      </g>
     </g>
     <g id="text_6">
      <text style="font: 10px 'DejaVu Sans', 'Bitstream Vera Sans', 'Computer Modern Sans Serif', 'Lucida Grande', 'Verdana', 'Geneva', 'Lucid', 'Arial', 'Helvetica', 'Avant Garde', sans-serif; text-anchor: middle" x="649.932557" y="543.906563" transform="rotate(-0 649.932557 543.906563)">95</text>
     </g>
    </g>
    <g id="text_7">
     <text style="font: 12px 'DejaVu Sans', 'Bitstream Vera Sans', 'Computer Modern Sans Serif', 'Lucida Grande', 'Verdana', 'Geneva', 'Lucid', 'Arial', 'Helvetica', 'Avant Garde', sans-serif; text-anchor: middle" x="383.260625" y="559.104375" transform="rotate(-0 383.260625 559.104375)">Build Number</text>
    </g>
   </g>
   <g id="matplotlib.axis_2">
    <g id="ytick_1">
     <g id="line2d_13">
      <defs>
       <path id="m0122181821" d="M 0 0 
L -2 0 
" style="stroke: #000000; stroke-width: 0.6"/>
      </defs>
      <g>
       <use xlink:href="#m0122181821" x="64.41375" y="417.517106" style="stroke: #000000; stroke-width: 0.6"/>
      </g>
     </g>
     <g id="text_8">
      <!-- $\mathdefault{3\times10^{5}}$ -->
      <g transform="translate(22.81375 421.316325)">
       <text>
        <tspan style="font: 10px 'DejaVu Sans'" x="0 8.310547 18.637695 25" y="-0.06406250000000036">3×10</tspan>
        <tspan style="font: 7px 'DejaVu Sans'" x="31.458008" y="-3.8921875000000004">5</tspan>
       </text>
      </g>
     </g>
    </g>
    <g id="ytick_2">
     <g id="line2d_14">
      <g>
       <use xlink:href="#m0122181821" x="64.41375" y="310.596364" style="stroke: #000000; stroke-width: 0.6"/>
      </g>
     </g>
     <g id="text_9">
      <!-- $\mathdefault{4\times10^{5}}$ -->
      <g transform="translate(22.81375 314.395583)">
       <text>
        <tspan style="font: 10px 'DejaVu Sans'" x="0 8.310547 18.637695 25" y="-0.06406250000000036">4×10</tspan>
        <tspan style="font: 7px 'DejaVu Sans'" x="31.458008" y="-3.8921875000000004">5</tspan>
       </text>
      </g>
     </g>
    </g>
    <g id="ytick_3">
     <g id="line2d_15">
      <g>
       <use xlink:href="#m0122181821" x="64.41375" y="227.662194" style="stroke: #000000; stroke-width: 0.6"/>
      </g>
     </g>
    </g>
    <g id="ytick_4">
     <g id="line2d_16">
      <g>
       <use xlink:href="#m0122181821" x="64.41375" y="159.900043" style="stroke: #000000; stroke-width: 0.6"/>
      </g>
     </g>
     <g id="text_10">
      <!-- $\mathdefault{6\times10^{5}}$ -->
      <g transform="translate(22.81375 163.699262)">
       <text>
        <tspan style="font: 10px 'DejaVu Sans'" x="0 8.310547 18.637695 25" y="-0.06406250000000036">6×10</tspan>
        <tspan style="font: 7px 'DejaVu Sans'" x="31.458008" y="-3.8921875000000004">5</tspan>
       </text>
      </g>
     </g>
    </g>
    <g id="ytick_5">
     <g id="line2d_17">
      <g>
       <use xlink:href="#m0122181821" x="64.41375" y="102.607961" style="stroke: #000000; stroke-width: 0.6"/>
      </g>
     </g>
    </g>
    <g id="ytick_6">
     <g id="line2d_18">
      <g>
       <use xlink:href="#m0122181821" x="64.41375" y="52.979302" style="stroke: #000000; stroke-width: 0.6"/>
      </g>
     </g>
    </g>
    <g id="text_11">
     <text style="font: 12px 'DejaVu Sans', 'Bitstream Vera Sans', 'Computer Modern Sans Serif', 'Lucida Grande', 'Verdana', 'Geneva', 'Lucid', 'Arial', 'Helvetica', 'Avant Garde', sans-serif; text-anchor: middle" x="16.318125" y="276.572969" transform="rotate(-90 16.318125 276.572969)">Median Elapsed Time (nanoseconds)</text>
    </g>
   </g>
   <g id="line2d_19">
    <path d="M 93.39983 483.065549 
L 116.588693 268.959694 
L 139.777557 288.033313 
L 162.96642 403.521401 
L 186.155284 271.002301 
L 209.344148 480.560088 
L 232.533011 402.236399 
L 255.721875 205.322014 
L 278.910739 263.00251 
L 302.099602 483.63391 
L 325.288466 433.762301 
L 348.47733 268.082696 
L 371.666193 458.674828 
L 394.855057 376.149536 
L 418.04392 344.648346 
L 441.232784 486.539097 
L 487.610511 428.054547 
L 510.799375 158.211024 
L 533.988239 401.175922 
L 557.177102 144.989231 
L 580.365966 349.158296 
L 603.55483 228.101536 
L 626.743693 488.354296 
L 649.932557 317.979071 
L 673.12142 486.68576 
" clip-path="url(#p3c751f19e2)" style="fill: none; stroke: #1f77b4; stroke-width: 2; stroke-linecap: square"/>
    <defs>
     <path id="m439c3a98f0" d="M 0 3 
C 0.795609 3 1.55874 2.683901 2.12132 2.12132 
C 2.683901 1.55874 3 0.795609 3 0 
C 3 -0.795609 2.683901 -1.55874 2.12132 -2.12132 
C 1.55874 -2.683901 0.795609 -3 0 -3 
C -0.795609 -3 -1.55874 -2.683901 -2.12132 -2.12132 
C -2.683901 -1.55874 -3 -0.795609 -3 0 
C -3 0.795609 -2.683901 1.55874 -2.12132 2.12132 
C -1.55874 2.683901 -0.795609 3 0 3 
z
" style="stroke: #1f77b4"/>
    </defs>
    <g clip-path="url(#p3c751f19e2)">
     <use xlink:href="#m439c3a98f0" x="93.39983" y="483.065549" style="fill: #1f77b4; stroke: #1f77b4"/>
     <use xlink:href="#m439c3a98f0" x="116.588693" y="268.959694" style="fill: #1f77b4; stroke: #1f77b4"/>
     <use xlink:href="#m439c3a98f0" x="139.777557" y="288.033313" style="fill: #1f77b4; stroke: #1f77b4"/>
     <use xlink:href="#m439c3a98f0" x="162.96642" y="403.521401" style="fill: #1f77b4; stroke: #1f77b4"/>
     <use xlink:href="#m439c3a98f0" x="186.155284" y="271.002301" style="fill: #1f77b4; stroke: #1f77b4"/>
     <use xlink:href="#m439c3a98f0" x="209.344148" y="480.560088" style="fill: #1f77b4; stroke: #1f77b4"/>
     <use xlink:href="#m439c3a98f0" x="232.533011" y="402.236399" style="fill: #1f77b4; stroke: #1f77b4"/>
     <use xlink:href="#m439c3a98f0" x="255.721875" y="205.322014" style="fill: #1f77b4; stroke: #1f77b4"/>
     <use xlink:href="#m439c3a98f0" x="278.910739" y="263.00251" style="fill: #1f77b4; stroke: #1f77b4"/>
     <use xlink:href="#m439c3a98f0" x="302.099602" y="483.63391" style="fill: #1f77b4; stroke: #1f77b4"/>
     <use xlink:href="#m439c3a98f0" x="325.288466" y="433.762301" style="fill: #1f77b4; stroke: #1f77b4"/>
     <use xlink:href="#m439c3a98f0" x="348.47733" y="268.082696" style="fill: #1f77b4; stroke: #1f77b4"/>
     <use xlink:href="#m439c3a98f0" x="371.666193" y="458.674828" style="fill: #1f77b4; stroke: #1f77b4"/>
     <use xlink:href="#m439c3a98f0" x="394.855057" y="376.149536" style="fill: #1f77b4; stroke: #1f77b4"/>
     <use xlink:href="#m439c3a98f0" x="418.04392" y="344.648346" style="fill: #1f77b4; stroke: #1f77b4"/>
     <use xlink:href="#m439c3a98f0" x="441.232784" y="486.539097" style="fill: #1f77b4; stroke: #1f77b4"/>
     <use xlink:href="#m439c3a98f0" x="487.610511" y="428.054547" style="fill: #1f77b4; stroke: #1f77b4"/>
     <use xlink:href="#m439c3a98f0" x="510.799375" y="158.211024" style="fill: #1f77b4; stroke: #1f77b4"/>
     <use xlink:href="#m439c3a98f0" x="533.988239" y="401.175922" style="fill: #1f77b4; stroke: #1f77b4"/>
     <use xlink:href="#m439c3a98f0" x="557.177102" y="144.989231" style="fill: #1f77b4; stroke: #1f77b4"/>
     <use xlink:href="#m439c3a98f0" x="580.365966" y="349.158296" style="fill: #1f77b4; stroke: #1f77b4"/>
     <use xlink:href="#m439c3a98f0" x="603.55483" y="228.101536" style="fill: #1f77b4; stroke: #1f77b4"/>
     <use xlink:href="#m439c3a98f0" x="626.743693" y="488.354296" style="fill: #1f77b4; stroke: #1f77b4"/>
     <use xlink:href="#m439c3a98f0" x="649.932557" y="317.979071" style="fill: #1f77b4; stroke: #1f77b4"/>
     <use xlink:href="#m439c3a98f0" x="673.12142" y="486.68576" style="fill: #1f77b4; stroke: #1f77b4"/>
    </g>
   </g>
   <g id="line2d_20">
    <path d="M 93.39983 484.672455 
L 116.588693 269.775573 
L 139.777557 276.331207 
L 162.96642 452.448146 
L 186.155284 328.670915 
L 209.344148 487.574584 
L 232.533011 484.70511 
L 255.721875 444.072349 
L 278.910739 366.748232 
L 302.099602 345.826664 
L 325.288466 320.759481 
L 348.47733 392.006131 
L 371.666193 481.388315 
L 394.855057 263.938799 
L 418.04392 309.303741 
L 441.232784 485.409362 
L 487.610511 486.58206 
L 510.799375 264.69666 
L 533.988239 494.502361 
L 557.177102 264.359952 
L 580.365966 337.346163 
L 603.55483 294.451892 
L 626.743693 484.417998 
L 649.932557 270.493056 
L 673.12142 488.152435 
" clip-path="url(#p3c751f19e2)" style="fill: none; stroke: #ff7f0e; stroke-width: 2; stroke-linecap: square"/>
    <defs>
     <path id="m5678534884" d="M 0 3 
C 0.795609 3 1.55874 2.683901 2.12132 2.12132 
C 2.683901 1.55874 3 0.795609 3 0 
C 3 -0.795609 2.683901 -1.55874 2.12132 -2.12132 
C 1.55874 -2.683901 0.795609 -3 0 -3 
C -0.795609 -3 -1.55874 -2.683901 -2.12132 -2.12132 
C -2.683901 -1.55874 -3 -0.795609 -3 0 
C -3 0.795609 -2.683901 1.55874 -2.12132 2.12132 
C -1.55874 2.683901 -0.795609 3 0 3 
z
" style="stroke: #ff7f0e"/>
    </defs>
    <g clip-path="url(#p3c751f19e2)">
     <use xlink:href="#m5678534884" x="93.39983" y="484.672455" style="fill: #ff7f0e; stroke: #ff7f0e"/>
     <use xlink:href="#m5678534884" x="116.588693" y="269.775573" style="fill: #ff7f0e; stroke: #ff7f0e"/>
     <use xlink:href="#m5678534884" x="139.777557" y="276.331207" style="fill: #ff7f0e; stroke: #ff7f0e"/>
     <use xlink:href="#m5678534884" x="162.96642" y="452.448146" style="fill: #ff7f0e; stroke: #ff7f0e"/>
     <use xlink:href="#m5678534884" x="186.155284" y="328.670915" style="fill: #ff7f0e; stroke: #ff7f0e"/>
     <use xlink:href="#m5678534884" x="209.344148" y="487.574584" style="fill: #ff7f0e; stroke: #ff7f0e"/>
     <use xlink:href="#m5678534884" x="232.533011" y="484.70511" style="fill: #ff7f0e; stroke: #ff7f0e"/>
     <use xlink:href="#m5678534884" x="255.721875" y="444.072349" style="fill: #ff7f0e; stroke: #ff7f0e"/>
     <use xlink:href="#m5678534884" x="278.910739" y="366.748232" style="fill: #ff7f0e; stroke: #ff7f0e"/>
     <use xlink:href="#m5678534884" x="302.099602" y="345.826664" style="fill: #ff7f0e; stroke: #ff7f0e"/>
     <use xlink:href="#m5678534884" x="325.288466" y="320.759481" style="fill: #ff7f0e; stroke: #ff7f0e"/>
     <use xlink:href="#m5678534884" x="348.47733" y="392.006131" style="fill: #ff7f0e; stroke: #ff7f0e"/>
     <use xlink:href="#m5678534884" x="371.666193" y="481.388315" style="fill: #ff7f0e; stroke: #ff7f0e"/>
     <use xlink:href="#m5678534884" x="394.855057" y="263.938799" style="fill: #ff7f0e; stroke: #ff7f0e"/>
     <use xlink:href="#m5678534884" x="418.04392" y="309.303741" style="fill: #ff7f0e; stroke: #ff7f0e"/>
     <use xlink:href="#m5678534884" x="441.232784" y="485.409362" style="fill: #ff7f0e; stroke: #ff7f0e"/>
     <use xlink:href="#m5678534884" x="487.610511" y="486.58206" style="fill: #ff7f0e; stroke: #ff7f0e"/>
     <use xlink:href="#m5678534884" x="510.799375" y="264.69666" style="fill: #ff7f0e; stroke: #ff7f0e"/>
     <use xlink:href="#m5678534884" x="533.988239" y="494.502361" style="fill: #ff7f0e; stroke: #ff7f0e"/>
     <use xlink:href="#m5678534884" x="557.177102" y="264.359952" style="fill: #ff7f0e; stroke: #ff7f0e"/>
     <use xlink:href="#m5678534884" x="580.365966" y="337.346163" style="fill: #ff7f0e; stroke: #ff7f0e"/>
     <use xlink:href="#m5678534884" x="603.55483" y="294.451892" style="fill: #ff7f0e; stroke: #ff7f0e"/>
     <use xlink:href="#m5678534884" x="626.743693" y="484.417998" style="fill: #ff7f0e; stroke: #ff7f0e"/>
     <use xlink:href="#m5678534884" x="649.932557" y="270.493056" style="fill: #ff7f0e; stroke: #ff7f0e"/>
     <use xlink:href="#m5678534884" x="673.12142" y="488.152435" style="fill: #ff7f0e; stroke: #ff7f0e"/>
    </g>
   </g>
   <g id="line2d_21">
    <path d="M 93.39983 500.542654 
L 116.588693 384.421088 
L 139.777557 252.548823 
L 162.96642 498.643822 
L 186.155284 472.734339 
L 209.344148 496.566556 
L 232.533011 495.182537 
L 255.721875 498.89171 
L 278.910739 498.822322 
L 302.099602 491.607689 
L 325.288466 497.495949 
L 348.47733 497.439262 
L 371.666193 497.671439 
L 394.855057 398.540483 
L 418.04392 489.7543 
L 441.232784 498.685279 
L 487.610511 494.982122 
L 510.799375 459.178929 
L 533.988239 497.520992 
L 557.177102 391.026894 
L 580.365966 448.839444 
L 603.55483 356.844508 
L 626.743693 477.186518 
L 649.932557 253.612997 
L 673.12142 494.530556 
" clip-path="url(#p3c751f19e2)" style="fill: none; stroke: #2ca02c; stroke-width: 2; stroke-linecap: square"/>
    <defs>
     <path id="mdd2dbbc8d1" d="M 0 3 
C 0.795609 3 1.55874 2.683901 2.12132 2.12132 
C 2.683901 1.55874 3 0.795609 3 0 
C 3 -0.795609 2.683901 -1.55874 2.12132 -2.12132 
C 1.55874 -2.683901 0.795609 -3 0 -3 
C -0.795609 -3 -1.55874 -2.683901 -2.12132 -2.12132 
C -2.683901 -1.55874 -3 -0.795609 -3 0 
C -3 0.795609 -2.683901 1.55874 -2.12132 2.12132 
C -1.55874 2.683901 -0.795609 3 0 3 
z
" style="stroke: #2ca02c"/>
    </defs>
    <g clip-path="url(#p3c751f19e2)">
     <use xlink:href="#mdd2dbbc8d1" x="93.39983" y="500.542654" style="fill: #2ca02c; stroke: #2ca02c"/>
     <use xlink:href="#mdd2dbbc8d1" x="116.588693" y="384.421088" style="fill: #2ca02c; stroke: #2ca02c"/>
     <use xlink:href="#mdd2dbbc8d1" x="139.777557" y="252.548823" style="fill: #2ca02c; stroke: #2ca02c"/>
     <use xlink:href="#mdd2dbbc8d1" x="162.96642" y="498.643822" style="fill: #2ca02c; stroke: #2ca02c"/>
     <use xlink:href="#mdd2dbbc8d1" x="186.155284" y="472.734339" style="fill: #2ca02c; stroke: #2ca02c"/>
     <use xlink:href="#mdd2dbbc8d1" x="209.344148" y="496.566556" style="fill: #2ca02c; stroke: #2ca02c"/>
     <use xlink:href="#mdd2dbbc8d1" x="232.533011" y="495.182537" style="fill: #2ca02c; stroke: #2ca02c"/>
     <use xlink:href="#mdd2dbbc8d1" x="255.721875" y="498.89171" style="fill: #2ca02c; stroke: #2ca02c"/>
     <use xlink:href="#mdd2dbbc8d1" x="278.910739" y="498.822322" style="fill: #2ca02c; stroke: #2ca02c"/>
     <use xlink:href="#mdd2dbbc8d1" x="302.099602" y="491.607689" style="fill: #2ca02c; stroke: #2ca02c"/>
     <use xlink:href="#mdd2dbbc8d1" x="325.288466" y="497.495949" style="fill: #2ca02c; stroke: #2ca02c"/>
     <use xlink:href="#mdd2dbbc8d1" x="348.47733" y="497.439262" style="fill: #2ca02c; stroke: #2ca02c"/>
     <use xlink:href="#mdd2dbbc8d1" x="371.666193" y="497.671439" style="fill: #2ca02c; stroke: #2ca02c"/>
     <use xlink:href="#mdd2dbbc8d1" x="394.855057" y="398.540483" style="fill: #2ca02c; stroke: #2ca02c"/>
     <use xlink:href="#mdd2dbbc8d1" x="418.04392" y="489.7543" style="fill: #2ca02c; stroke: #2ca02c"/>
     <use xlink:href="#mdd2dbbc8d1" x="441.232784" y="498.685279" style="fill: #2ca02c; stroke: #2ca02c"/>
     <use xlink:href="#mdd2dbbc8d1" x="487.610511" y="494.982122" style="fill: #2ca02c; stroke: #2ca02c"/>
     <use xlink:href="#mdd2dbbc8d1" x="510.799375" y="459.178929" style="fill: #2ca02c; stroke: #2ca02c"/>
     <use xlink:href="#mdd2dbbc8d1" x="533.988239" y="497.520992" style="fill: #2ca02c; stroke: #2ca02c"/>
     <use xlink:href="#mdd2dbbc8d1" x="557.177102" y="391.026894" style="fill: #2ca02c; stroke: #2ca02c"/>
     <use xlink:href="#mdd2dbbc8d1" x="580.365966" y="448.839444" style="fill: #2ca02c; stroke: #2ca02c"/>
     <use xlink:href="#mdd2dbbc8d1" x="603.55483" y="356.844508" style="fill: #2ca02c; stroke: #2ca02c"/>
     <use xlink:href="#mdd2dbbc8d1" x="626.743693" y="477.186518" style="fill: #2ca02c; stroke: #2ca02c"/>
     <use xlink:href="#mdd2dbbc8d1" x="649.932557" y="253.612997" style="fill: #2ca02c; stroke: #2ca02c"/>
     <use xlink:href="#mdd2dbbc8d1" x="673.12142" y="494.530556" style="fill: #2ca02c; stroke: #2ca02c"/>
    </g>
   </g>
   <g id="line2d_22">
    <path d="M 93.39983 501.885406 
L 116.588693 499.705447 
L 139.777557 505.057818 
L 162.96642 504.48425 
L 186.155284 283.836758 
L 209.344148 285.907202 
L 232.533011 505.819033 
L 255.721875 402.208221 
L 278.910739 498.758958 
L 302.099602 501.847942 
L 325.288466 504.556739 
L 348.47733 502.32359 
L 371.666193 46.813736 
L 418.04392 459.775037 
L 441.232784 501.449446 
L 487.610511 502.030943 
L 510.799375 506.332202 
L 533.988239 83.74864 
L 557.177102 505.781328 
L 580.365966 505.526448 
L 626.743693 505.591918 
L 649.932557 505.364628 
L 673.12142 503.992698 
" clip-path="url(#p3c751f19e2)" style="fill: none; stroke: #d62728; stroke-width: 2; stroke-linecap: square"/>
    <defs>
     <path id="mf4be7867a1" d="M 0 3 
C 0.795609 3 1.55874 2.683901 2.12132 2.12132 
C 2.683901 1.55874 3 0.795609 3 0 
C 3 -0.795609 2.683901 -1.55874 2.12132 -2.12132 
C 1.55874 -2.683901 0.795609 -3 0 -3 
C -0.795609 -3 -1.55874 -2.683901 -2.12132 -2.12132 
C -2.683901 -1.55874 -3 -0.795609 -3 0 
C -3 0.795609 -2.683901 1.55874 -2.12132 2.12132 
C -1.55874 2.683901 -0.795609 3 0 3 
z
" style="stroke: #d62728"/>
    </defs>
    <g clip-path="url(#p3c751f19e2)">
     <use xlink:href="#mf4be7867a1" x="93.39983" y="501.885406" style="fill: #d62728; stroke: #d62728"/>
     <use xlink:href="#mf4be7867a1" x="116.588693" y="499.705447" style="fill: #d62728; stroke: #d62728"/>
     <use xlink:href="#mf4be7867a1" x="139.777557" y="505.057818" style="fill: #d62728; stroke: #d62728"/>
     <use xlink:href="#mf4be7867a1" x="162.96642" y="504.48425" style="fill: #d62728; stroke: #d62728"/>
     <use xlink:href="#mf4be7867a1" x="186.155284" y="283.836758" style="fill: #d62728; stroke: #d62728"/>
     <use xlink:href="#mf4be7867a1" x="209.344148" y="285.907202" style="fill: #d62728; stroke: #d62728"/>
     <use xlink:href="#mf4be7867a1" x="232.533011" y="505.819033" style="fill: #d62728; stroke: #d62728"/>
     <use xlink:href="#mf4be7867a1" x="255.721875" y="402.208221" style="fill: #d62728; stroke: #d62728"/>
     <use xlink:href="#mf4be7867a1" x="278.910739" y="498.758958" style="fill: #d62728; stroke: #d62728"/>
     <use xlink:href="#mf4be7867a1" x="302.099602" y="501.847942" style="fill: #d62728; stroke: #d62728"/>
     <use xlink:href="#mf4be7867a1" x="325.288466" y="504.556739" style="fill: #d62728; stroke: #d62728"/>
     <use xlink:href="#mf4be7867a1" x="348.47733" y="502.32359" style="fill: #d62728; stroke: #d62728"/>
     <use xlink:href="#mf4be7867a1" x="371.666193" y="46.813736" style="fill: #d62728; stroke: #d62728"/>
     <use xlink:href="#mf4be7867a1" x="418.04392" y="459.775037" style="fill: #d62728; stroke: #d62728"/>
     <use xlink:href="#mf4be7867a1" x="441.232784" y="501.449446" style="fill: #d62728; stroke: #d62728"/>
     <use xlink:href="#mf4be7867a1" x="487.610511" y="502.030943" style="fill: #d62728; stroke: #d62728"/>
     <use xlink:href="#mf4be7867a1" x="510.799375" y="506.332202" style="fill: #d62728; stroke: #d62728"/>
     <use xlink:href="#mf4be7867a1" x="533.988239" y="83.74864" style="fill: #d62728; stroke: #d62728"/>
     <use xlink:href="#mf4be7867a1" x="557.177102" y="505.781328" style="fill: #d62728; stroke: #d62728"/>
     <use xlink:href="#mf4be7867a1" x="580.365966" y="505.526448" style="fill: #d62728; stroke: #d62728"/>
     <use xlink:href="#mf4be7867a1" x="626.743693" y="505.591918" style="fill: #d62728; stroke: #d62728"/>
     <use xlink:href="#mf4be7867a1" x="649.932557" y="505.364628" style="fill: #d62728; stroke: #d62728"/>
     <use xlink:href="#mf4be7867a1" x="673.12142" y="503.992698" style="fill: #d62728; stroke: #d62728"/>
    </g>
   </g>
   <g id="line2d_23">
    <path d="M 93.39983 494.703431 
L 116.588693 460.163201 
L 139.777557 497.614726 
L 162.96642 490.226762 
L 186.155284 355.449911 
L 209.344148 170.174584 
L 232.533011 501.339682 
L 255.721875 469.822148 
L 278.910739 355.955659 
L 302.099602 497.262039 
L 325.288466 503.613605 
L 348.47733 501.681656 
L 371.666193 185.173438 
L 418.04392 167.423177 
L 441.232784 502.541552 
L 487.610511 498.257827 
L 510.799375 500.649239 
L 533.988239 273.835928 
L 557.177102 489.604767 
L 580.365966 495.807063 
L 626.743693 501.045327 
L 649.932557 496.209045 
L 673.12142 504.814402 
" clip-path="url(#p3c751f19e2)" style="fill: none; stroke: #9467bd; stroke-width: 2; stroke-linecap: square"/>
    <defs>
     <path id="m504e998495" d="M 0 3 
C 0.795609 3 1.55874 2.683901 2.12132 2.12132 
C 2.683901 1.55874 3 0.795609 3 0 
C 3 -0.795609 2.683901 -1.55874 2.12132 -2.12132 
C 1.55874 -2.683901 0.795609 -3 0 -3 
C -0.795609 -3 -1.55874 -2.683901 -2.12132 -2.12132 
C -2.683901 -1.55874 -3 -0.795609 -3 0 
C -3 0.795609 -2.683901 1.55874 -2.12132 2.12132 
C -1.55874 2.683901 -0.795609 3 0 3 
z
" style="stroke: #9467bd"/>
    </defs>
    <g clip-path="url(#p3c751f19e2)">
     <use xlink:href="#m504e998495" x="93.39983" y="494.703431" style="fill: #9467bd; stroke: #9467bd"/>
     <use xlink:href="#m504e998495" x="116.588693" y="460.163201" style="fill: #9467bd; stroke: #9467bd"/>
     <use xlink:href="#m504e998495" x="139.777557" y="497.614726" style="fill: #9467bd; stroke: #9467bd"/>
     <use xlink:href="#m504e998495" x="162.96642" y="490.226762" style="fill: #9467bd; stroke: #9467bd"/>
     <use xlink:href="#m504e998495" x="186.155284" y="355.449911" style="fill: #9467bd; stroke: #9467bd"/>
     <use xlink:href="#m504e998495" x="209.344148" y="170.174584" style="fill: #9467bd; stroke: #9467bd"/>
     <use xlink:href="#m504e998495" x="232.533011" y="501.339682" style="fill: #9467bd; stroke: #9467bd"/>
     <use xlink:href="#m504e998495" x="255.721875" y="469.822148" style="fill: #9467bd; stroke: #9467bd"/>
     <use xlink:href="#m504e998495" x="278.910739" y="355.955659" style="fill: #9467bd; stroke: #9467bd"/>
     <use xlink:href="#m504e998495" x="302.099602" y="497.262039" style="fill: #9467bd; stroke: #9467bd"/>
     <use xlink:href="#m504e998495" x="325.288466" y="503.613605" style="fill: #9467bd; stroke: #9467bd"/>
     <use xlink:href="#m504e998495" x="348.47733" y="501.681656" style="fill: #9467bd; stroke: #9467bd"/>
     <use xlink:href="#m504e998495" x="371.666193" y="185.173438" style="fill: #9467bd; stroke: #9467bd"/>
     <use xlink:href="#m504e998495" x="418.04392" y="167.423177" style="fill: #9467bd; stroke: #9467bd"/>
     <use xlink:href="#m504e998495" x="441.232784" y="502.541552" style="fill: #9467bd; stroke: #9467bd"/>
     <use xlink:href="#m504e998495" x="487.610511" y="498.257827" style="fill: #9467bd; stroke: #9467bd"/>
     <use xlink:href="#m504e998495" x="510.799375" y="500.649239" style="fill: #9467bd; stroke: #9467bd"/>
     <use xlink:href="#m504e998495" x="533.988239" y="273.835928" style="fill: #9467bd; stroke: #9467bd"/>
     <use xlink:href="#m504e998495" x="557.177102" y="489.604767" style="fill: #9467bd; stroke: #9467bd"/>
     <use xlink:href="#m504e998495" x="580.365966" y="495.807063" style="fill: #9467bd; stroke: #9467bd"/>
     <use xlink:href="#m504e998495" x="626.743693" y="501.045327" style="fill: #9467bd; stroke: #9467bd"/>
     <use xlink:href="#m504e998495" x="649.932557" y="496.209045" style="fill: #9467bd; stroke: #9467bd"/>
     <use xlink:href="#m504e998495" x="673.12142" y="504.814402" style="fill: #9467bd; stroke: #9467bd"/>
    </g>
   </g>
   <g id="line2d_24">
    <path d="M 93.39983 363.05938 
L 116.588693 356.389255 
L 139.777557 362.037416 
L 162.96642 364.523161 
L 186.155284 355.768218 
L 209.344148 358.35454 
L 232.533011 466.216426 
L 255.721875 461.26602 
L 278.910739 357.760592 
L 302.099602 361.919308 
L 325.288466 364.314708 
L 348.47733 362.847041 
L 371.666193 402.423114 
L 418.04392 301.775642 
L 441.232784 361.194415 
L 487.610511 362.768661 
L 510.799375 361.120002 
L 533.988239 437.720081 
L 557.177102 392.130959 
L 580.365966 361.183769 
L 626.743693 465.418755 
L 649.932557 293.738535 
L 673.12142 361.783003 
" clip-path="url(#p3c751f19e2)" style="fill: none; stroke: #8c564b; stroke-width: 2; stroke-linecap: square"/>
    <defs>
     <path id="m6c565d970f" d="M 0 3 
C 0.795609 3 1.55874 2.683901 2.12132 2.12132 
C 2.683901 1.55874 3 0.795609 3 0 
C 3 -0.795609 2.683901 -1.55874 2.12132 -2.12132 
C 1.55874 -2.683901 0.795609 -3 0 -3 
C -0.795609 -3 -1.55874 -2.683901 -2.12132 -2.12132 
C -2.683901 -1.55874 -3 -0.795609 -3 0 
C -3 0.795609 -2.683901 1.55874 -2.12132 2.12132 
C -1.55874 2.683901 -0.795609 3 0 3 
z
" style="stroke: #8c564b"/>
    </defs>
    <g clip-path="url(#p3c751f19e2)">
     <use xlink:href="#m6c565d970f" x="93.39983" y="363.05938" style="fill: #8c564b; stroke: #8c564b"/>
     <use xlink:href="#m6c565d970f" x="116.588693" y="356.389255" style="fill: #8c564b; stroke: #8c564b"/>
     <use xlink:href="#m6c565d970f" x="139.777557" y="362.037416" style="fill: #8c564b; stroke: #8c564b"/>
     <use xlink:href="#m6c565d970f" x="162.96642" y="364.523161" style="fill: #8c564b; stroke: #8c564b"/>
     <use xlink:href="#m6c565d970f" x="186.155284" y="355.768218" style="fill: #8c564b; stroke: #8c564b"/>
     <use xlink:href="#m6c565d970f" x="209.344148" y="358.35454" style="fill: #8c564b; stroke: #8c564b"/>
     <use xlink:href="#m6c565d970f" x="232.533011" y="466.216426" style="fill: #8c564b; stroke: #8c564b"/>
     <use xlink:href="#m6c565d970f" x="255.721875" y="461.26602" style="fill: #8c564b; stroke: #8c564b"/>
     <use xlink:href="#m6c565d970f" x="278.910739" y="357.760592" style="fill: #8c564b; stroke: #8c564b"/>
     <use xlink:href="#m6c565d970f" x="302.099602" y="361.919308" style="fill: #8c564b; stroke: #8c564b"/>
     <use xlink:href="#m6c565d970f" x="325.288466" y="364.314708" style="fill: #8c564b; stroke: #8c564b"/>
     <use xlink:href="#m6c565d970f" x="348.47733" y="362.847041" style="fill: #8c564b; stroke: #8c564b"/>
     <use xlink:href="#m6c565d970f" x="371.666193" y="402.423114" style="fill: #8c564b; stroke: #8c564b"/>
     <use xlink:href="#m6c565d970f" x="418.04392" y="301.775642" style="fill: #8c564b; stroke: #8c564b"/>
     <use xlink:href="#m6c565d970f" x="441.232784" y="361.194415" style="fill: #8c564b; stroke: #8c564b"/>
     <use xlink:href="#m6c565d970f" x="487.610511" y="362.768661" style="fill: #8c564b; stroke: #8c564b"/>
     <use xlink:href="#m6c565d970f" x="510.799375" y="361.120002" style="fill: #8c564b; stroke: #8c564b"/>
     <use xlink:href="#m6c565d970f" x="533.988239" y="437.720081" style="fill: #8c564b; stroke: #8c564b"/>
     <use xlink:href="#m6c565d970f" x="557.177102" y="392.130959" style="fill: #8c564b; stroke: #8c564b"/>
     <use xlink:href="#m6c565d970f" x="580.365966" y="361.183769" style="fill: #8c564b; stroke: #8c564b"/>
     <use xlink:href="#m6c565d970f" x="626.743693" y="465.418755" style="fill: #8c564b; stroke: #8c564b"/>
     <use xlink:href="#m6c565d970f" x="649.932557" y="293.738535" style="fill: #8c564b; stroke: #8c564b"/>
     <use xlink:href="#m6c565d970f" x="673.12142" y="361.783003" style="fill: #8c564b; stroke: #8c564b"/>
    </g>
   </g>
   <g id="patch_3">
    <path d="M 64.41375 529.308125 
L 64.41375 23.837813 
" style="fill: none; stroke: #000000; stroke-width: 0.8; stroke-linejoin: miter; stroke-linecap: square"/>
   </g>
   <g id="patch_4">
    <path d="M 702.1075 529.308125 
L 702.1075 23.837813 
" style="fill: none; stroke: #000000; stroke-width: 0.8; stroke-linejoin: miter; stroke-linecap: square"/>
   </g>
   <g id="patch_5">
    <path d="M 64.41375 529.308125 
L 702.1075 529.308125 
" style="fill: none; stroke: #000000; stroke-width: 0.8; stroke-linejoin: miter; stroke-linecap: square"/>
   </g>
   <g id="patch_6">
    <path d="M 64.41375 23.837812 
L 702.1075 23.837812 
" style="fill: none; stroke: #000000; stroke-width: 0.8; stroke-linejoin: miter; stroke-linecap: square"/>
   </g>
   <g id="text_12">
    <text style="font: 700 14px 'DejaVu Sans', 'Bitstream Vera Sans', 'Computer Modern Sans Serif', 'Lucida Grande', 'Verdana', 'Geneva', 'Lucid', 'Arial', 'Helvetica', 'Avant Garde', sans-serif; text-anchor: middle" x="383.260625" y="17.837813" transform="rotate(-0 383.260625 17.837813)">Mixedworkload - Performance Trend</text>
   </g>
   <g id="legend_1">
    <g id="patch_7">
     <path d="M 740.992188 119.906563 
L 846.004688 119.906563 
Q 848.004688 119.906563 848.004688 117.906563 
L 848.004688 30.837813 
Q 848.004688 28.837813 846.004688 28.837813 
L 740.992188 28.837813 
Q 738.992188 28.837813 738.992188 30.837813 
L 738.992188 117.906563 
Q 738.992188 119.906563 740.992188 119.906563 
z
" style="fill: #ffffff; opacity: 0.8; stroke: #cccccc; stroke-linejoin: miter"/>
    </g>
    <g id="line2d_25">
     <path d="M 742.992188 36.93625 
L 752.992188 36.93625 
L 762.992188 36.93625 
" style="fill: none; stroke: #1f77b4; stroke-width: 2; stroke-linecap: square"/>
     <g>
      <use xlink:href="#m439c3a98f0" x="752.992188" y="36.93625" style="fill: #1f77b4; stroke: #1f77b4"/>
     </g>
    </g>
    <g id="text_13">
     <text style="font: 10px 'DejaVu Sans', 'Bitstream Vera Sans', 'Computer Modern Sans Serif', 'Lucida Grande', 'Verdana', 'Geneva', 'Lucid', 'Arial', 'Helvetica', 'Avant Garde', sans-serif; text-anchor: start" x="770.992188" y="40.43625" transform="rotate(-0 770.992188 40.43625)">gcc-14.2 - V1</text>
    </g>
    <g id="line2d_26">
     <path d="M 742.992188 51.614375 
L 752.992188 51.614375 
L 762.992188 51.614375 
" style="fill: none; stroke: #ff7f0e; stroke-width: 2; stroke-linecap: square"/>
     <g>
      <use xlink:href="#m5678534884" x="752.992188" y="51.614375" style="fill: #ff7f0e; stroke: #ff7f0e"/>
     </g>
    </g>
    <g id="text_14">
     <text style="font: 10px 'DejaVu Sans', 'Bitstream Vera Sans', 'Computer Modern Sans Serif', 'Lucida Grande', 'Verdana', 'Geneva', 'Lucid', 'Arial', 'Helvetica', 'Avant Garde', sans-serif; text-anchor: start" x="770.992188" y="55.114375" transform="rotate(-0 770.992188 55.114375)">gcc-14.2 - V2</text>
    </g>
    <g id="line2d_27">
     <path d="M 742.992188 66.2925 
L 752.992188 66.2925 
L 762.992188 66.2925 
" style="fill: none; stroke: #2ca02c; stroke-width: 2; stroke-linecap: square"/>
     <g>
      <use xlink:href="#mdd2dbbc8d1" x="752.992188" y="66.2925" style="fill: #2ca02c; stroke: #2ca02c"/>
     </g>
    </g>
    <g id="text_15">
     <text style="font: 10px 'DejaVu Sans', 'Bitstream Vera Sans', 'Computer Modern Sans Serif', 'Lucida Grande', 'Verdana', 'Geneva', 'Lucid', 'Arial', 'Helvetica', 'Avant Garde', sans-serif; text-anchor: start" x="770.992188" y="69.7925" transform="rotate(-0 770.992188 69.7925)">gcc-14.2 - TBB</text>
    </g>
    <g id="line2d_28">
     <path d="M 742.992188 80.970625 
L 752.992188 80.970625 
L 762.992188 80.970625 
" style="fill: none; stroke: #d62728; stroke-width: 2; stroke-linecap: square"/>
     <g>
      <use xlink:href="#mf4be7867a1" x="752.992188" y="80.970625" style="fill: #d62728; stroke: #d62728"/>
     </g>
    </g>
    <g id="text_16">
     <text style="font: 10px 'DejaVu Sans', 'Bitstream Vera Sans', 'Computer Modern Sans Serif', 'Lucida Grande', 'Verdana', 'Geneva', 'Lucid', 'Arial', 'Helvetica', 'Avant Garde', sans-serif; text-anchor: start" x="770.992188" y="84.470625" transform="rotate(-0 770.992188 84.470625)">gcc-4.2 - V1</text>
    </g>
    <g id="line2d_29">
     <path d="M 742.992188 95.64875 
L 752.992188 95.64875 
L 762.992188 95.64875 
" style="fill: none; stroke: #9467bd; stroke-width: 2; stroke-linecap: square"/>
     <g>
      <use xlink:href="#m504e998495" x="752.992188" y="95.64875" style="fill: #9467bd; stroke: #9467bd"/>
     </g>
    </g>
    <g id="text_17">
     <text style="font: 10px 'DejaVu Sans', 'Bitstream Vera Sans', 'Computer Modern Sans Serif', 'Lucida Grande', 'Verdana', 'Geneva', 'Lucid', 'Arial', 'Helvetica', 'Avant Garde', sans-serif; text-anchor: start" x="770.992188" y="99.14875" transform="rotate(-0 770.992188 99.14875)">gcc-4.2 - V2</text>
    </g>
    <g id="line2d_30">
     <path d="M 742.992188 110.326875 
L 752.992188 110.326875 
L 762.992188 110.326875 
" style="fill: none; stroke: #8c564b; stroke-width: 2; stroke-linecap: square"/>
     <g>
      <use xlink:href="#m6c565d970f" x="752.992188" y="110.326875" style="fill: #8c564b; stroke: #8c564b"/>
     </g>
    </g>
    <g id="text_18">
     <text style="font: 10px 'DejaVu Sans', 'Bitstream Vera Sans', 'Computer Modern Sans Serif', 'Lucida Grande', 'Verdana', 'Geneva', 'Lucid', 'Arial', 'Helvetica', 'Avant Garde', sans-serif; text-anchor: start" x="770.992188" y="113.826875" transform="rotate(-0 770.992188 113.826875)">gcc-4.2 - TBB</text>
    </g>
   </g>
  </g>
 </g>
 <defs>
  <clipPath id="p3c751f19e2">
   <rect x="64.41375" y="23.837813" width="637.69375" height="505.470313"/>
  </clipPath>
 </defs>
</svg>
