<?xml version="1.0" encoding="utf-8" standalone="no"?>
<!DOCTYPE svg PUBLIC "-//W3C//DTD SVG 1.1//EN"
  "http://www.w3.org/Graphics/SVG/1.1/DTD/svg11.dtd">
<svg xmlns:xlink="http://www.w3.org/1999/xlink" width="847.676719pt" height="568.8pt" viewBox="0 0 847.676719 568.8" xmlns="http://www.w3.org/2000/svg" version="1.1">
 <metadata>
  <rdf:RDF xmlns:dc="http://purl.org/dc/elements/1.1/" xmlns:cc="http://creativecommons.org/ns#" xmlns:rdf="http://www.w3.org/1999/02/22-rdf-syntax-ns#">
   <cc:Work>
    <dc:type rdf:resource="http://purl.org/dc/dcmitype/StillImage"/>
    <dc:date>2025-10-05T09:13:41.656767</dc:date>
    <dc:format>image/svg+xml</dc:format>
    <dc:creator>
     <cc:Agent>
      <dc:title>Matplotlib v3.9.4, https://matplotlib.org/</dc:title>
     </cc:Agent>
    </dc:creator>
   </cc:Work>
  </rdf:RDF>
 </metadata>
 <defs>
  <style type="text/css">*{stroke-linejoin: round; stroke-linecap: butt}</style>
 </defs>
 <g id="figure_1">
  <g id="patch_1">
   <path d="M 0 568.8 
L 847.676719 568.8 
L 847.676719 0 
L 0 0 
z
" style="fill: #ffffff"/>
  </g>
  <g id="axes_1">
   <g id="patch_2">
    <path d="M 64.41375 529.308125 
L 551.548125 529.308125 
L 551.548125 23.837812 
L 64.41375 23.837812 
z
" style="fill: #ffffff"/>
   </g>
   <g id="matplotlib.axis_1">
    <g id="xtick_1">
     <g id="line2d_1">
      <path d="M 67.301898 529.308125 
L 67.301898 23.837812 
" clip-path="url(#pf5e0ebb1c6)" style="fill: none; stroke: #b0b0b0; stroke-opacity: 0.3; stroke-width: 0.8; stroke-linecap: square"/>
     </g>
     <g id="line2d_2">
      <defs>
       <path id="m3f75aab685" d="M 0 0 
L 0 3.5 
" style="stroke: #000000; stroke-width: 0.8"/>
      </defs>
      <g>
       <use xlink:href="#m3f75aab685" x="67.301898" y="529.308125" style="stroke: #000000; stroke-width: 0.8"/>
      </g>
     </g>
     <g id="text_1">
      <text style="font: 10px 'DejaVu Sans', 'Bitstream Vera Sans', 'Computer Modern Sans Serif', 'Lucida Grande', 'Verdana', 'Geneva', 'Lucid', 'Arial', 'Helvetica', 'Avant Garde', sans-serif; text-anchor: middle" x="67.301898" y="543.906563" transform="rotate(-0 67.301898 543.906563)">95</text>
     </g>
    </g>
    <g id="xtick_2">
     <g id="line2d_3">
      <path d="M 163.573514 529.308125 
L 163.573514 23.837812 
" clip-path="url(#pf5e0ebb1c6)" style="fill: none; stroke: #b0b0b0; stroke-opacity: 0.3; stroke-width: 0.8; stroke-linecap: square"/>
     </g>
     <g id="line2d_4">
      <g>
       <use xlink:href="#m3f75aab685" x="163.573514" y="529.308125" style="stroke: #000000; stroke-width: 0.8"/>
      </g>
     </g>
     <g id="text_2">
      <text style="font: 10px 'DejaVu Sans', 'Bitstream Vera Sans', 'Computer Modern Sans Serif', 'Lucida Grande', 'Verdana', 'Geneva', 'Lucid', 'Arial', 'Helvetica', 'Avant Garde', sans-serif; text-anchor: middle" x="163.573514" y="543.906563" transform="rotate(-0 163.573514 543.906563)">100</text>
     </g>
    </g>
    <g id="xtick_3">
     <g id="line2d_5">
      <path d="M 259.84513 529.308125 
L 259.84513 23.837812 
" clip-path="url(#pf5e0ebb1c6)" style="fill: none; stroke: #b0b0b0; stroke-opacity: 0.3; stroke-width: 0.8; stroke-linecap: square"/>
     </g>
     <g id="line2d_6">
      <g>
       <use xlink:href="#m3f75aab685" x="259.84513" y="529.308125" style="stroke: #000000; stroke-width: 0.8"/>
      </g>
     </g>
     <g id="text_3">
      <text style="font: 10px 'DejaVu Sans', 'Bitstream Vera Sans', 'Computer Modern Sans Serif', 'Lucida Grande', 'Verdana', 'Geneva', 'Lucid', 'Arial', 'Helvetica', 'Avant Garde', sans-serif; text-anchor: middle" x="259.84513" y="543.906563" transform="rotate(-0 259.84513 543.906563)">105</text>
     </g>
    </g>
    <g id="xtick_4">
     <g id="line2d_7">
      <path d="M 356.116745 529.308125 
L 356.116745 23.837812 
" clip-path="url(#pf5e0ebb1c6)" style="fill: none; stroke: #b0b0b0; stroke-opacity: 0.3; stroke-width: 0.8; stroke-linecap: square"/>
     </g>
     <g id="line2d_8">
      <g>
       <use xlink:href="#m3f75aab685" x="356.116745" y="529.308125" style="stroke: #000000; stroke-width: 0.8"/>
      </g>
     </g>
     <g id="text_4">
      <text style="font: 10px 'DejaVu Sans', 'Bitstream Vera Sans', 'Computer Modern Sans Serif', 'Lucida Grande', 'Verdana', 'Geneva', 'Lucid', 'Arial', 'Helvetica', 'Avant Garde', sans-serif; text-anchor: middle" x="356.116745" y="543.906563" transform="rotate(-0 356.116745 543.906563)">110</text>
     </g>
    </g>
    <g id="xtick_5">
     <g id="line2d_9">
      <path d="M 452.388361 529.308125 
L 452.388361 23.837812 
" clip-path="url(#pf5e0ebb1c6)" style="fill: none; stroke: #b0b0b0; stroke-opacity: 0.3; stroke-width: 0.8; stroke-linecap: square"/>
     </g>
     <g id="line2d_10">
      <g>
       <use xlink:href="#m3f75aab685" x="452.388361" y="529.308125" style="stroke: #000000; stroke-width: 0.8"/>
      </g>
     </g>
     <g id="text_5">
      <text style="font: 10px 'DejaVu Sans', 'Bitstream Vera Sans', 'Computer Modern Sans Serif', 'Lucida Grande', 'Verdana', 'Geneva', 'Lucid', 'Arial', 'Helvetica', 'Avant Garde', sans-serif; text-anchor: middle" x="452.388361" y="543.906563" transform="rotate(-0 452.388361 543.906563)">115</text>
     </g>
    </g>
    <g id="xtick_6">
     <g id="line2d_11">
      <path d="M 548.659977 529.308125 
L 548.659977 23.837812 
" clip-path="url(#pf5e0ebb1c6)" style="fill: none; stroke: #b0b0b0; stroke-opacity: 0.3; stroke-width: 0.8; stroke-linecap: square"/>
     </g>
     <g id="line2d_12">
      <g>
       <use xlink:href="#m3f75aab685" x="548.659977" y="529.308125" style="stroke: #000000; stroke-width: 0.8"/>
      </g>
     </g>
     <g id="text_6">
      <text style="font: 10px 'DejaVu Sans', 'Bitstream Vera Sans', 'Computer Modern Sans Serif', 'Lucida Grande', 'Verdana', 'Geneva', 'Lucid', 'Arial', 'Helvetica', 'Avant Garde', sans-serif; text-anchor: middle" x="548.659977" y="543.906563" transform="rotate(-0 548.659977 543.906563)">120</text>
     </g>
    </g>
    <g id="text_7">
     <text style="font: 12px 'DejaVu Sans', 'Bitstream Vera Sans', 'Computer Modern Sans Serif', 'Lucida Grande', 'Verdana', 'Geneva', 'Lucid', 'Arial', 'Helvetica', 'Avant Garde', sans-serif; text-anchor: middle" x="307.980938" y="559.104375" transform="rotate(-0 307.980938 559.104375)">Build Number</text>
    </g>
   </g>
   <g id="matplotlib.axis_2">
    <g id="ytick_1">
     <g id="line2d_13">
      <path d="M 64.41375 47.46532 
L 551.548125 47.46532 
" clip-path="url(#pf5e0ebb1c6)" style="fill: none; stroke: #b0b0b0; stroke-opacity: 0.3; stroke-width: 0.8; stroke-linecap: square"/>
     </g>
     <g id="line2d_14">
      <defs>
       <path id="m07553b08ec" d="M 0 0 
L -3.5 0 
" style="stroke: #000000; stroke-width: 0.8"/>
      </defs>
      <g>
       <use xlink:href="#m07553b08ec" x="64.41375" y="47.46532" style="stroke: #000000; stroke-width: 0.8"/>
      </g>
     </g>
     <g id="text_8">
      <!-- $\mathdefault{10^{8}}$ -->
      <g transform="translate(39.81375 51.264539)">
       <text>
        <tspan style="font: 10px 'DejaVu Sans'" x="0 6.362305" y="-0.9765625">10</tspan>
        <tspan style="font: 7px 'DejaVu Sans'" x="12.820312" y="-4.8046875">8</tspan>
       </text>
      </g>
     </g>
    </g>
    <g id="ytick_2">
     <g id="line2d_15">
      <defs>
       <path id="m06b413422c" d="M 0 0 
L -2 0 
" style="stroke: #000000; stroke-width: 0.6"/>
      </defs>
      <g>
       <use xlink:href="#m06b413422c" x="64.41375" y="518.447842" style="stroke: #000000; stroke-width: 0.6"/>
      </g>
     </g>
     <g id="text_9">
      <!-- $\mathdefault{4\times10^{7}}$ -->
      <g transform="translate(22.81375 522.247061)">
       <text>
        <tspan style="font: 10px 'DejaVu Sans'" x="0 8.310547 18.637695 25" y="-0.06406250000000036">4×10</tspan>
        <tspan style="font: 7px 'DejaVu Sans'" x="31.458008" y="-3.8921875000000004">7</tspan>
       </text>
      </g>
     </g>
    </g>
    <g id="ytick_3">
     <g id="line2d_16">
      <g>
       <use xlink:href="#m06b413422c" x="64.41375" y="403.749844" style="stroke: #000000; stroke-width: 0.6"/>
      </g>
     </g>
    </g>
    <g id="ytick_4">
     <g id="line2d_17">
      <g>
       <use xlink:href="#m06b413422c" x="64.41375" y="310.034756" style="stroke: #000000; stroke-width: 0.6"/>
      </g>
     </g>
     <g id="text_10">
      <!-- $\mathdefault{6\times10^{7}}$ -->
      <g transform="translate(22.81375 313.833975)">
       <text>
        <tspan style="font: 10px 'DejaVu Sans'" x="0 8.310547 18.637695 25" y="-0.06406250000000036">6×10</tspan>
        <tspan style="font: 7px 'DejaVu Sans'" x="31.458008" y="-3.8921875000000004">7</tspan>
       </text>
      </g>
     </g>
    </g>
    <g id="ytick_5">
     <g id="line2d_18">
      <g>
       <use xlink:href="#m06b413422c" x="64.41375" y="230.799778" style="stroke: #000000; stroke-width: 0.6"/>
      </g>
     </g>
    </g>
    <g id="ytick_6">
     <g id="line2d_19">
      <g>
       <use xlink:href="#m06b413422c" x="64.41375" y="162.163318" style="stroke: #000000; stroke-width: 0.6"/>
      </g>
     </g>
    </g>
    <g id="ytick_7">
     <g id="line2d_20">
      <g>
       <use xlink:href="#m06b413422c" x="64.41375" y="101.62167" style="stroke: #000000; stroke-width: 0.6"/>
      </g>
     </g>
    </g>
    <g id="text_11">
     <text style="font: 12px 'DejaVu Sans', 'Bitstream Vera Sans', 'Computer Modern Sans Serif', 'Lucida Grande', 'Verdana', 'Geneva', 'Lucid', 'Arial', 'Helvetica', 'Avant Garde', sans-serif; text-anchor: middle" x="16.318125" y="276.572969" transform="rotate(-90 16.318125 276.572969)">Median Elapsed Time (nanoseconds)</text>
    </g>
   </g>
   <g id="line2d_21">
    <path d="M 86.556222 47.045419 
L 105.810545 47.041076 
L 144.319191 47.080004 
L 163.573514 47.027793 
L 182.827837 47.091446 
L 202.08216 47.086463 
L 221.336483 47.051649 
L 240.590807 47.081082 
L 259.84513 47.027741 
L 279.099453 47.032901 
L 317.608099 47.010588 
L 336.862422 47.015253 
L 356.116745 47.077231 
L 375.371068 47.017702 
L 394.625392 47.079463 
L 433.134038 47.089386 
L 452.388361 47.067503 
L 471.642684 47.091274 
L 490.897007 47.06302 
L 510.15133 47.083898 
L 529.405653 47.076146 
" clip-path="url(#pf5e0ebb1c6)" style="fill: none; stroke: #1f77b4; stroke-width: 2; stroke-linecap: square"/>
    <defs>
     <path id="ma5ce09a2dc" d="M 0 3 
C 0.795609 3 1.55874 2.683901 2.12132 2.12132 
C 2.683901 1.55874 3 0.795609 3 0 
C 3 -0.795609 2.683901 -1.55874 2.12132 -2.12132 
C 1.55874 -2.683901 0.795609 -3 0 -3 
C -0.795609 -3 -1.55874 -2.683901 -2.12132 -2.12132 
C -2.683901 -1.55874 -3 -0.795609 -3 0 
C -3 0.795609 -2.683901 1.55874 -2.12132 2.12132 
C -1.55874 2.683901 -0.795609 3 0 3 
z
" style="stroke: #1f77b4"/>
    </defs>
    <g clip-path="url(#pf5e0ebb1c6)">
     <use xlink:href="#ma5ce09a2dc" x="86.556222" y="47.045419" style="fill: #1f77b4; stroke: #1f77b4"/>
     <use xlink:href="#ma5ce09a2dc" x="105.810545" y="47.041076" style="fill: #1f77b4; stroke: #1f77b4"/>
     <use xlink:href="#ma5ce09a2dc" x="144.319191" y="47.080004" style="fill: #1f77b4; stroke: #1f77b4"/>
     <use xlink:href="#ma5ce09a2dc" x="163.573514" y="47.027793" style="fill: #1f77b4; stroke: #1f77b4"/>
     <use xlink:href="#ma5ce09a2dc" x="182.827837" y="47.091446" style="fill: #1f77b4; stroke: #1f77b4"/>
     <use xlink:href="#ma5ce09a2dc" x="202.08216" y="47.086463" style="fill: #1f77b4; stroke: #1f77b4"/>
     <use xlink:href="#ma5ce09a2dc" x="221.336483" y="47.051649" style="fill: #1f77b4; stroke: #1f77b4"/>
     <use xlink:href="#ma5ce09a2dc" x="240.590807" y="47.081082" style="fill: #1f77b4; stroke: #1f77b4"/>
     <use xlink:href="#ma5ce09a2dc" x="259.84513" y="47.027741" style="fill: #1f77b4; stroke: #1f77b4"/>
     <use xlink:href="#ma5ce09a2dc" x="279.099453" y="47.032901" style="fill: #1f77b4; stroke: #1f77b4"/>
     <use xlink:href="#ma5ce09a2dc" x="317.608099" y="47.010588" style="fill: #1f77b4; stroke: #1f77b4"/>
     <use xlink:href="#ma5ce09a2dc" x="336.862422" y="47.015253" style="fill: #1f77b4; stroke: #1f77b4"/>
     <use xlink:href="#ma5ce09a2dc" x="356.116745" y="47.077231" style="fill: #1f77b4; stroke: #1f77b4"/>
     <use xlink:href="#ma5ce09a2dc" x="375.371068" y="47.017702" style="fill: #1f77b4; stroke: #1f77b4"/>
     <use xlink:href="#ma5ce09a2dc" x="394.625392" y="47.079463" style="fill: #1f77b4; stroke: #1f77b4"/>
     <use xlink:href="#ma5ce09a2dc" x="433.134038" y="47.089386" style="fill: #1f77b4; stroke: #1f77b4"/>
     <use xlink:href="#ma5ce09a2dc" x="452.388361" y="47.067503" style="fill: #1f77b4; stroke: #1f77b4"/>
     <use xlink:href="#ma5ce09a2dc" x="471.642684" y="47.091274" style="fill: #1f77b4; stroke: #1f77b4"/>
     <use xlink:href="#ma5ce09a2dc" x="490.897007" y="47.06302" style="fill: #1f77b4; stroke: #1f77b4"/>
     <use xlink:href="#ma5ce09a2dc" x="510.15133" y="47.083898" style="fill: #1f77b4; stroke: #1f77b4"/>
     <use xlink:href="#ma5ce09a2dc" x="529.405653" y="47.076146" style="fill: #1f77b4; stroke: #1f77b4"/>
    </g>
   </g>
   <g id="line2d_22">
    <path d="M 86.556222 504.89379 
L 105.810545 503.607486 
L 144.319191 506.332202 
L 163.573514 505.084141 
L 182.827837 505.472802 
L 202.08216 504.794673 
L 221.336483 504.16112 
L 240.590807 504.919896 
L 259.84513 504.286779 
L 279.099453 504.692142 
L 317.608099 504.698374 
L 336.862422 504.825382 
L 356.116745 504.994401 
L 375.371068 504.634255 
L 394.625392 506.282471 
L 433.134038 504.80694 
L 452.388361 505.762397 
L 471.642684 505.349154 
L 490.897007 505.01537 
L 510.15133 505.34605 
L 529.405653 505.411476 
" clip-path="url(#pf5e0ebb1c6)" style="fill: none; stroke: #ff7f0e; stroke-width: 2; stroke-linecap: square"/>
    <defs>
     <path id="mea8361b478" d="M 0 3 
C 0.795609 3 1.55874 2.683901 2.12132 2.12132 
C 2.683901 1.55874 3 0.795609 3 0 
C 3 -0.795609 2.683901 -1.55874 2.12132 -2.12132 
C 1.55874 -2.683901 0.795609 -3 0 -3 
C -0.795609 -3 -1.55874 -2.683901 -2.12132 -2.12132 
C -2.683901 -1.55874 -3 -0.795609 -3 0 
C -3 0.795609 -2.683901 1.55874 -2.12132 2.12132 
C -1.55874 2.683901 -0.795609 3 0 3 
z
" style="stroke: #ff7f0e"/>
    </defs>
    <g clip-path="url(#pf5e0ebb1c6)">
     <use xlink:href="#mea8361b478" x="86.556222" y="504.89379" style="fill: #ff7f0e; stroke: #ff7f0e"/>
     <use xlink:href="#mea8361b478" x="105.810545" y="503.607486" style="fill: #ff7f0e; stroke: #ff7f0e"/>
     <use xlink:href="#mea8361b478" x="144.319191" y="506.332202" style="fill: #ff7f0e; stroke: #ff7f0e"/>
     <use xlink:href="#mea8361b478" x="163.573514" y="505.084141" style="fill: #ff7f0e; stroke: #ff7f0e"/>
     <use xlink:href="#mea8361b478" x="182.827837" y="505.472802" style="fill: #ff7f0e; stroke: #ff7f0e"/>
     <use xlink:href="#mea8361b478" x="202.08216" y="504.794673" style="fill: #ff7f0e; stroke: #ff7f0e"/>
     <use xlink:href="#mea8361b478" x="221.336483" y="504.16112" style="fill: #ff7f0e; stroke: #ff7f0e"/>
     <use xlink:href="#mea8361b478" x="240.590807" y="504.919896" style="fill: #ff7f0e; stroke: #ff7f0e"/>
     <use xlink:href="#mea8361b478" x="259.84513" y="504.286779" style="fill: #ff7f0e; stroke: #ff7f0e"/>
     <use xlink:href="#mea8361b478" x="279.099453" y="504.692142" style="fill: #ff7f0e; stroke: #ff7f0e"/>
     <use xlink:href="#mea8361b478" x="317.608099" y="504.698374" style="fill: #ff7f0e; stroke: #ff7f0e"/>
     <use xlink:href="#mea8361b478" x="336.862422" y="504.825382" style="fill: #ff7f0e; stroke: #ff7f0e"/>
     <use xlink:href="#mea8361b478" x="356.116745" y="504.994401" style="fill: #ff7f0e; stroke: #ff7f0e"/>
     <use xlink:href="#mea8361b478" x="375.371068" y="504.634255" style="fill: #ff7f0e; stroke: #ff7f0e"/>
     <use xlink:href="#mea8361b478" x="394.625392" y="506.282471" style="fill: #ff7f0e; stroke: #ff7f0e"/>
     <use xlink:href="#mea8361b478" x="433.134038" y="504.80694" style="fill: #ff7f0e; stroke: #ff7f0e"/>
     <use xlink:href="#mea8361b478" x="452.388361" y="505.762397" style="fill: #ff7f0e; stroke: #ff7f0e"/>
     <use xlink:href="#mea8361b478" x="471.642684" y="505.349154" style="fill: #ff7f0e; stroke: #ff7f0e"/>
     <use xlink:href="#mea8361b478" x="490.897007" y="505.01537" style="fill: #ff7f0e; stroke: #ff7f0e"/>
     <use xlink:href="#mea8361b478" x="510.15133" y="505.34605" style="fill: #ff7f0e; stroke: #ff7f0e"/>
     <use xlink:href="#mea8361b478" x="529.405653" y="505.411476" style="fill: #ff7f0e; stroke: #ff7f0e"/>
    </g>
   </g>
   <g id="line2d_23">
    <path d="M 86.556222 46.933395 
L 105.810545 46.935546 
L 144.319191 47.002323 
L 163.573514 46.938538 
L 182.827837 47.007851 
L 202.08216 47.000212 
L 221.336483 46.973753 
L 240.590807 47.002711 
L 259.84513 46.947428 
L 279.099453 46.959179 
L 317.608099 46.89879 
L 336.862422 46.920361 
L 356.116745 47.00537 
L 375.371068 46.977418 
L 394.625392 47.000407 
L 433.134038 47.000408 
L 452.388361 46.998299 
L 471.642684 46.998078 
L 490.897007 46.991324 
L 510.15133 46.985633 
L 529.405653 46.996512 
" clip-path="url(#pf5e0ebb1c6)" style="fill: none; stroke: #2ca02c; stroke-width: 2; stroke-linecap: square"/>
    <defs>
     <path id="mc3982c7922" d="M 0 3 
C 0.795609 3 1.55874 2.683901 2.12132 2.12132 
C 2.683901 1.55874 3 0.795609 3 0 
C 3 -0.795609 2.683901 -1.55874 2.12132 -2.12132 
C 1.55874 -2.683901 0.795609 -3 0 -3 
C -0.795609 -3 -1.55874 -2.683901 -2.12132 -2.12132 
C -2.683901 -1.55874 -3 -0.795609 -3 0 
C -3 0.795609 -2.683901 1.55874 -2.12132 2.12132 
C -1.55874 2.683901 -0.795609 3 0 3 
z
" style="stroke: #2ca02c"/>
    </defs>
    <g clip-path="url(#pf5e0ebb1c6)">
     <use xlink:href="#mc3982c7922" x="86.556222" y="46.933395" style="fill: #2ca02c; stroke: #2ca02c"/>
     <use xlink:href="#mc3982c7922" x="105.810545" y="46.935546" style="fill: #2ca02c; stroke: #2ca02c"/>
     <use xlink:href="#mc3982c7922" x="144.319191" y="47.002323" style="fill: #2ca02c; stroke: #2ca02c"/>
     <use xlink:href="#mc3982c7922" x="163.573514" y="46.938538" style="fill: #2ca02c; stroke: #2ca02c"/>
     <use xlink:href="#mc3982c7922" x="182.827837" y="47.007851" style="fill: #2ca02c; stroke: #2ca02c"/>
     <use xlink:href="#mc3982c7922" x="202.08216" y="47.000212" style="fill: #2ca02c; stroke: #2ca02c"/>
     <use xlink:href="#mc3982c7922" x="221.336483" y="46.973753" style="fill: #2ca02c; stroke: #2ca02c"/>
     <use xlink:href="#mc3982c7922" x="240.590807" y="47.002711" style="fill: #2ca02c; stroke: #2ca02c"/>
     <use xlink:href="#mc3982c7922" x="259.84513" y="46.947428" style="fill: #2ca02c; stroke: #2ca02c"/>
     <use xlink:href="#mc3982c7922" x="279.099453" y="46.959179" style="fill: #2ca02c; stroke: #2ca02c"/>
     <use xlink:href="#mc3982c7922" x="317.608099" y="46.89879" style="fill: #2ca02c; stroke: #2ca02c"/>
     <use xlink:href="#mc3982c7922" x="336.862422" y="46.920361" style="fill: #2ca02c; stroke: #2ca02c"/>
     <use xlink:href="#mc3982c7922" x="356.116745" y="47.00537" style="fill: #2ca02c; stroke: #2ca02c"/>
     <use xlink:href="#mc3982c7922" x="375.371068" y="46.977418" style="fill: #2ca02c; stroke: #2ca02c"/>
     <use xlink:href="#mc3982c7922" x="394.625392" y="47.000407" style="fill: #2ca02c; stroke: #2ca02c"/>
     <use xlink:href="#mc3982c7922" x="433.134038" y="47.000408" style="fill: #2ca02c; stroke: #2ca02c"/>
     <use xlink:href="#mc3982c7922" x="452.388361" y="46.998299" style="fill: #2ca02c; stroke: #2ca02c"/>
     <use xlink:href="#mc3982c7922" x="471.642684" y="46.998078" style="fill: #2ca02c; stroke: #2ca02c"/>
     <use xlink:href="#mc3982c7922" x="490.897007" y="46.991324" style="fill: #2ca02c; stroke: #2ca02c"/>
     <use xlink:href="#mc3982c7922" x="510.15133" y="46.985633" style="fill: #2ca02c; stroke: #2ca02c"/>
     <use xlink:href="#mc3982c7922" x="529.405653" y="46.996512" style="fill: #2ca02c; stroke: #2ca02c"/>
    </g>
   </g>
   <g id="line2d_24">
    <path d="M 86.556222 504.124409 
L 105.810545 504.547281 
L 144.319191 504.931253 
L 163.573514 503.829879 
L 182.827837 505.502805 
L 202.08216 505.584703 
L 221.336483 504.605412 
L 240.590807 505.668892 
L 259.84513 504.652608 
L 279.099453 505.788421 
L 317.608099 505.104428 
L 336.862422 504.650308 
L 356.116745 504.814801 
L 375.371068 505.235861 
L 394.625392 504.561416 
L 433.134038 504.432643 
L 452.388361 505.641227 
L 471.642684 505.638573 
L 490.897007 503.646187 
L 510.15133 505.241071 
L 529.405653 504.813254 
" clip-path="url(#pf5e0ebb1c6)" style="fill: none; stroke: #d62728; stroke-width: 2; stroke-linecap: square"/>
    <defs>
     <path id="ma04671cb22" d="M 0 3 
C 0.795609 3 1.55874 2.683901 2.12132 2.12132 
C 2.683901 1.55874 3 0.795609 3 0 
C 3 -0.795609 2.683901 -1.55874 2.12132 -2.12132 
C 1.55874 -2.683901 0.795609 -3 0 -3 
C -0.795609 -3 -1.55874 -2.683901 -2.12132 -2.12132 
C -2.683901 -1.55874 -3 -0.795609 -3 0 
C -3 0.795609 -2.683901 1.55874 -2.12132 2.12132 
C -1.55874 2.683901 -0.795609 3 0 3 
z
" style="stroke: #d62728"/>
    </defs>
    <g clip-path="url(#pf5e0ebb1c6)">
     <use xlink:href="#ma04671cb22" x="86.556222" y="504.124409" style="fill: #d62728; stroke: #d62728"/>
     <use xlink:href="#ma04671cb22" x="105.810545" y="504.547281" style="fill: #d62728; stroke: #d62728"/>
     <use xlink:href="#ma04671cb22" x="144.319191" y="504.931253" style="fill: #d62728; stroke: #d62728"/>
     <use xlink:href="#ma04671cb22" x="163.573514" y="503.829879" style="fill: #d62728; stroke: #d62728"/>
     <use xlink:href="#ma04671cb22" x="182.827837" y="505.502805" style="fill: #d62728; stroke: #d62728"/>
     <use xlink:href="#ma04671cb22" x="202.08216" y="505.584703" style="fill: #d62728; stroke: #d62728"/>
     <use xlink:href="#ma04671cb22" x="221.336483" y="504.605412" style="fill: #d62728; stroke: #d62728"/>
     <use xlink:href="#ma04671cb22" x="240.590807" y="505.668892" style="fill: #d62728; stroke: #d62728"/>
     <use xlink:href="#ma04671cb22" x="259.84513" y="504.652608" style="fill: #d62728; stroke: #d62728"/>
     <use xlink:href="#ma04671cb22" x="279.099453" y="505.788421" style="fill: #d62728; stroke: #d62728"/>
     <use xlink:href="#ma04671cb22" x="317.608099" y="505.104428" style="fill: #d62728; stroke: #d62728"/>
     <use xlink:href="#ma04671cb22" x="336.862422" y="504.650308" style="fill: #d62728; stroke: #d62728"/>
     <use xlink:href="#ma04671cb22" x="356.116745" y="504.814801" style="fill: #d62728; stroke: #d62728"/>
     <use xlink:href="#ma04671cb22" x="375.371068" y="505.235861" style="fill: #d62728; stroke: #d62728"/>
     <use xlink:href="#ma04671cb22" x="394.625392" y="504.561416" style="fill: #d62728; stroke: #d62728"/>
     <use xlink:href="#ma04671cb22" x="433.134038" y="504.432643" style="fill: #d62728; stroke: #d62728"/>
     <use xlink:href="#ma04671cb22" x="452.388361" y="505.641227" style="fill: #d62728; stroke: #d62728"/>
     <use xlink:href="#ma04671cb22" x="471.642684" y="505.638573" style="fill: #d62728; stroke: #d62728"/>
     <use xlink:href="#ma04671cb22" x="490.897007" y="503.646187" style="fill: #d62728; stroke: #d62728"/>
     <use xlink:href="#ma04671cb22" x="510.15133" y="505.241071" style="fill: #d62728; stroke: #d62728"/>
     <use xlink:href="#ma04671cb22" x="529.405653" y="504.813254" style="fill: #d62728; stroke: #d62728"/>
    </g>
   </g>
   <g id="line2d_25">
    <path d="M 86.556222 47.058206 
L 105.810545 47.073436 
L 144.319191 47.077584 
L 163.573514 47.050986 
L 182.827837 47.093062 
L 202.08216 47.102646 
L 221.336483 47.095319 
L 240.590807 47.083179 
L 259.84513 47.085848 
L 279.099453 47.082449 
L 317.608099 47.076505 
L 336.862422 47.104627 
L 356.116745 47.080111 
L 394.625392 47.090759 
L 452.388361 47.09084 
L 471.642684 47.08782 
L 490.897007 47.038597 
L 510.15133 47.093572 
L 529.405653 47.068999 
" clip-path="url(#pf5e0ebb1c6)" style="fill: none; stroke: #9467bd; stroke-width: 2; stroke-linecap: square"/>
    <defs>
     <path id="m9a8200ab97" d="M 0 3 
C 0.795609 3 1.55874 2.683901 2.12132 2.12132 
C 2.683901 1.55874 3 0.795609 3 0 
C 3 -0.795609 2.683901 -1.55874 2.12132 -2.12132 
C 1.55874 -2.683901 0.795609 -3 0 -3 
C -0.795609 -3 -1.55874 -2.683901 -2.12132 -2.12132 
C -2.683901 -1.55874 -3 -0.795609 -3 0 
C -3 0.795609 -2.683901 1.55874 -2.12132 2.12132 
C -1.55874 2.683901 -0.795609 3 0 3 
z
" style="stroke: #9467bd"/>
    </defs>
    <g clip-path="url(#pf5e0ebb1c6)">
     <use xlink:href="#m9a8200ab97" x="86.556222" y="47.058206" style="fill: #9467bd; stroke: #9467bd"/>
     <use xlink:href="#m9a8200ab97" x="105.810545" y="47.073436" style="fill: #9467bd; stroke: #9467bd"/>
     <use xlink:href="#m9a8200ab97" x="144.319191" y="47.077584" style="fill: #9467bd; stroke: #9467bd"/>
     <use xlink:href="#m9a8200ab97" x="163.573514" y="47.050986" style="fill: #9467bd; stroke: #9467bd"/>
     <use xlink:href="#m9a8200ab97" x="182.827837" y="47.093062" style="fill: #9467bd; stroke: #9467bd"/>
     <use xlink:href="#m9a8200ab97" x="202.08216" y="47.102646" style="fill: #9467bd; stroke: #9467bd"/>
     <use xlink:href="#m9a8200ab97" x="221.336483" y="47.095319" style="fill: #9467bd; stroke: #9467bd"/>
     <use xlink:href="#m9a8200ab97" x="240.590807" y="47.083179" style="fill: #9467bd; stroke: #9467bd"/>
     <use xlink:href="#m9a8200ab97" x="259.84513" y="47.085848" style="fill: #9467bd; stroke: #9467bd"/>
     <use xlink:href="#m9a8200ab97" x="279.099453" y="47.082449" style="fill: #9467bd; stroke: #9467bd"/>
     <use xlink:href="#m9a8200ab97" x="317.608099" y="47.076505" style="fill: #9467bd; stroke: #9467bd"/>
     <use xlink:href="#m9a8200ab97" x="336.862422" y="47.104627" style="fill: #9467bd; stroke: #9467bd"/>
     <use xlink:href="#m9a8200ab97" x="356.116745" y="47.080111" style="fill: #9467bd; stroke: #9467bd"/>
     <use xlink:href="#m9a8200ab97" x="394.625392" y="47.090759" style="fill: #9467bd; stroke: #9467bd"/>
     <use xlink:href="#m9a8200ab97" x="452.388361" y="47.09084" style="fill: #9467bd; stroke: #9467bd"/>
     <use xlink:href="#m9a8200ab97" x="471.642684" y="47.08782" style="fill: #9467bd; stroke: #9467bd"/>
     <use xlink:href="#m9a8200ab97" x="490.897007" y="47.038597" style="fill: #9467bd; stroke: #9467bd"/>
     <use xlink:href="#m9a8200ab97" x="510.15133" y="47.093572" style="fill: #9467bd; stroke: #9467bd"/>
     <use xlink:href="#m9a8200ab97" x="529.405653" y="47.068999" style="fill: #9467bd; stroke: #9467bd"/>
    </g>
   </g>
   <g id="line2d_26">
    <path d="M 86.556222 423.351373 
L 105.810545 423.188249 
L 144.319191 423.776519 
L 163.573514 424.294215 
L 182.827837 423.685715 
L 202.08216 423.832076 
L 221.336483 423.624349 
L 240.590807 423.64012 
L 259.84513 423.84617 
L 279.099453 422.149169 
L 317.608099 423.487148 
L 336.862422 424.331331 
L 356.116745 423.325687 
L 394.625392 423.944683 
L 452.388361 423.250346 
L 471.642684 423.610916 
L 490.897007 423.165109 
L 510.15133 423.535746 
L 529.405653 423.164319 
" clip-path="url(#pf5e0ebb1c6)" style="fill: none; stroke: #8c564b; stroke-width: 2; stroke-linecap: square"/>
    <defs>
     <path id="mac1fc454d5" d="M 0 3 
C 0.795609 3 1.55874 2.683901 2.12132 2.12132 
C 2.683901 1.55874 3 0.795609 3 0 
C 3 -0.795609 2.683901 -1.55874 2.12132 -2.12132 
C 1.55874 -2.683901 0.795609 -3 0 -3 
C -0.795609 -3 -1.55874 -2.683901 -2.12132 -2.12132 
C -2.683901 -1.55874 -3 -0.795609 -3 0 
C -3 0.795609 -2.683901 1.55874 -2.12132 2.12132 
C -1.55874 2.683901 -0.795609 3 0 3 
z
" style="stroke: #8c564b"/>
    </defs>
    <g clip-path="url(#pf5e0ebb1c6)">
     <use xlink:href="#mac1fc454d5" x="86.556222" y="423.351373" style="fill: #8c564b; stroke: #8c564b"/>
     <use xlink:href="#mac1fc454d5" x="105.810545" y="423.188249" style="fill: #8c564b; stroke: #8c564b"/>
     <use xlink:href="#mac1fc454d5" x="144.319191" y="423.776519" style="fill: #8c564b; stroke: #8c564b"/>
     <use xlink:href="#mac1fc454d5" x="163.573514" y="424.294215" style="fill: #8c564b; stroke: #8c564b"/>
     <use xlink:href="#mac1fc454d5" x="182.827837" y="423.685715" style="fill: #8c564b; stroke: #8c564b"/>
     <use xlink:href="#mac1fc454d5" x="202.08216" y="423.832076" style="fill: #8c564b; stroke: #8c564b"/>
     <use xlink:href="#mac1fc454d5" x="221.336483" y="423.624349" style="fill: #8c564b; stroke: #8c564b"/>
     <use xlink:href="#mac1fc454d5" x="240.590807" y="423.64012" style="fill: #8c564b; stroke: #8c564b"/>
     <use xlink:href="#mac1fc454d5" x="259.84513" y="423.84617" style="fill: #8c564b; stroke: #8c564b"/>
     <use xlink:href="#mac1fc454d5" x="279.099453" y="422.149169" style="fill: #8c564b; stroke: #8c564b"/>
     <use xlink:href="#mac1fc454d5" x="317.608099" y="423.487148" style="fill: #8c564b; stroke: #8c564b"/>
     <use xlink:href="#mac1fc454d5" x="336.862422" y="424.331331" style="fill: #8c564b; stroke: #8c564b"/>
     <use xlink:href="#mac1fc454d5" x="356.116745" y="423.325687" style="fill: #8c564b; stroke: #8c564b"/>
     <use xlink:href="#mac1fc454d5" x="394.625392" y="423.944683" style="fill: #8c564b; stroke: #8c564b"/>
     <use xlink:href="#mac1fc454d5" x="452.388361" y="423.250346" style="fill: #8c564b; stroke: #8c564b"/>
     <use xlink:href="#mac1fc454d5" x="471.642684" y="423.610916" style="fill: #8c564b; stroke: #8c564b"/>
     <use xlink:href="#mac1fc454d5" x="490.897007" y="423.165109" style="fill: #8c564b; stroke: #8c564b"/>
     <use xlink:href="#mac1fc454d5" x="510.15133" y="423.535746" style="fill: #8c564b; stroke: #8c564b"/>
     <use xlink:href="#mac1fc454d5" x="529.405653" y="423.164319" style="fill: #8c564b; stroke: #8c564b"/>
    </g>
   </g>
   <g id="line2d_27">
    <path d="M 86.556222 46.96239 
L 105.810545 46.992283 
L 144.319191 46.999001 
L 163.573514 46.813736 
L 182.827837 47.000552 
L 202.08216 47.007251 
L 221.336483 46.996215 
L 240.590807 46.999432 
L 259.84513 46.98848 
L 279.099453 46.998826 
L 317.608099 46.99576 
L 336.862422 47.011218 
L 356.116745 47.005003 
L 394.625392 47.000971 
L 452.388361 47.0026 
L 471.642684 47.014298 
L 490.897007 46.93852 
L 510.15133 47.006187 
L 529.405653 46.995645 
" clip-path="url(#pf5e0ebb1c6)" style="fill: none; stroke: #e377c2; stroke-width: 2; stroke-linecap: square"/>
    <defs>
     <path id="m81de7c8833" d="M 0 3 
C 0.795609 3 1.55874 2.683901 2.12132 2.12132 
C 2.683901 1.55874 3 0.795609 3 0 
C 3 -0.795609 2.683901 -1.55874 2.12132 -2.12132 
C 1.55874 -2.683901 0.795609 -3 0 -3 
C -0.795609 -3 -1.55874 -2.683901 -2.12132 -2.12132 
C -2.683901 -1.55874 -3 -0.795609 -3 0 
C -3 0.795609 -2.683901 1.55874 -2.12132 2.12132 
C -1.55874 2.683901 -0.795609 3 0 3 
z
" style="stroke: #e377c2"/>
    </defs>
    <g clip-path="url(#pf5e0ebb1c6)">
     <use xlink:href="#m81de7c8833" x="86.556222" y="46.96239" style="fill: #e377c2; stroke: #e377c2"/>
     <use xlink:href="#m81de7c8833" x="105.810545" y="46.992283" style="fill: #e377c2; stroke: #e377c2"/>
     <use xlink:href="#m81de7c8833" x="144.319191" y="46.999001" style="fill: #e377c2; stroke: #e377c2"/>
     <use xlink:href="#m81de7c8833" x="163.573514" y="46.813736" style="fill: #e377c2; stroke: #e377c2"/>
     <use xlink:href="#m81de7c8833" x="182.827837" y="47.000552" style="fill: #e377c2; stroke: #e377c2"/>
     <use xlink:href="#m81de7c8833" x="202.08216" y="47.007251" style="fill: #e377c2; stroke: #e377c2"/>
     <use xlink:href="#m81de7c8833" x="221.336483" y="46.996215" style="fill: #e377c2; stroke: #e377c2"/>
     <use xlink:href="#m81de7c8833" x="240.590807" y="46.999432" style="fill: #e377c2; stroke: #e377c2"/>
     <use xlink:href="#m81de7c8833" x="259.84513" y="46.98848" style="fill: #e377c2; stroke: #e377c2"/>
     <use xlink:href="#m81de7c8833" x="279.099453" y="46.998826" style="fill: #e377c2; stroke: #e377c2"/>
     <use xlink:href="#m81de7c8833" x="317.608099" y="46.99576" style="fill: #e377c2; stroke: #e377c2"/>
     <use xlink:href="#m81de7c8833" x="336.862422" y="47.011218" style="fill: #e377c2; stroke: #e377c2"/>
     <use xlink:href="#m81de7c8833" x="356.116745" y="47.005003" style="fill: #e377c2; stroke: #e377c2"/>
     <use xlink:href="#m81de7c8833" x="394.625392" y="47.000971" style="fill: #e377c2; stroke: #e377c2"/>
     <use xlink:href="#m81de7c8833" x="452.388361" y="47.0026" style="fill: #e377c2; stroke: #e377c2"/>
     <use xlink:href="#m81de7c8833" x="471.642684" y="47.014298" style="fill: #e377c2; stroke: #e377c2"/>
     <use xlink:href="#m81de7c8833" x="490.897007" y="46.93852" style="fill: #e377c2; stroke: #e377c2"/>
     <use xlink:href="#m81de7c8833" x="510.15133" y="47.006187" style="fill: #e377c2; stroke: #e377c2"/>
     <use xlink:href="#m81de7c8833" x="529.405653" y="46.995645" style="fill: #e377c2; stroke: #e377c2"/>
    </g>
   </g>
   <g id="line2d_28">
    <path d="M 86.556222 423.584551 
L 105.810545 424.032078 
L 144.319191 423.288595 
L 163.573514 423.495664 
L 182.827837 423.826623 
L 202.08216 423.778058 
L 221.336483 422.614645 
L 240.590807 423.163554 
L 259.84513 423.569898 
L 279.099453 423.321611 
L 317.608099 423.151116 
L 336.862422 423.675467 
L 356.116745 422.802532 
L 394.625392 423.524592 
L 452.388361 423.555987 
L 471.642684 423.665664 
L 490.897007 423.435292 
L 510.15133 423.632861 
L 529.405653 423.269922 
" clip-path="url(#pf5e0ebb1c6)" style="fill: none; stroke: #7f7f7f; stroke-width: 2; stroke-linecap: square"/>
    <defs>
     <path id="m645521895f" d="M 0 3 
C 0.795609 3 1.55874 2.683901 2.12132 2.12132 
C 2.683901 1.55874 3 0.795609 3 0 
C 3 -0.795609 2.683901 -1.55874 2.12132 -2.12132 
C 1.55874 -2.683901 0.795609 -3 0 -3 
C -0.795609 -3 -1.55874 -2.683901 -2.12132 -2.12132 
C -2.683901 -1.55874 -3 -0.795609 -3 0 
C -3 0.795609 -2.683901 1.55874 -2.12132 2.12132 
C -1.55874 2.683901 -0.795609 3 0 3 
z
" style="stroke: #7f7f7f"/>
    </defs>
    <g clip-path="url(#pf5e0ebb1c6)">
     <use xlink:href="#m645521895f" x="86.556222" y="423.584551" style="fill: #7f7f7f; stroke: #7f7f7f"/>
     <use xlink:href="#m645521895f" x="105.810545" y="424.032078" style="fill: #7f7f7f; stroke: #7f7f7f"/>
     <use xlink:href="#m645521895f" x="144.319191" y="423.288595" style="fill: #7f7f7f; stroke: #7f7f7f"/>
     <use xlink:href="#m645521895f" x="163.573514" y="423.495664" style="fill: #7f7f7f; stroke: #7f7f7f"/>
     <use xlink:href="#m645521895f" x="182.827837" y="423.826623" style="fill: #7f7f7f; stroke: #7f7f7f"/>
     <use xlink:href="#m645521895f" x="202.08216" y="423.778058" style="fill: #7f7f7f; stroke: #7f7f7f"/>
     <use xlink:href="#m645521895f" x="221.336483" y="422.614645" style="fill: #7f7f7f; stroke: #7f7f7f"/>
     <use xlink:href="#m645521895f" x="240.590807" y="423.163554" style="fill: #7f7f7f; stroke: #7f7f7f"/>
     <use xlink:href="#m645521895f" x="259.84513" y="423.569898" style="fill: #7f7f7f; stroke: #7f7f7f"/>
     <use xlink:href="#m645521895f" x="279.099453" y="423.321611" style="fill: #7f7f7f; stroke: #7f7f7f"/>
     <use xlink:href="#m645521895f" x="317.608099" y="423.151116" style="fill: #7f7f7f; stroke: #7f7f7f"/>
     <use xlink:href="#m645521895f" x="336.862422" y="423.675467" style="fill: #7f7f7f; stroke: #7f7f7f"/>
     <use xlink:href="#m645521895f" x="356.116745" y="422.802532" style="fill: #7f7f7f; stroke: #7f7f7f"/>
     <use xlink:href="#m645521895f" x="394.625392" y="423.524592" style="fill: #7f7f7f; stroke: #7f7f7f"/>
     <use xlink:href="#m645521895f" x="452.388361" y="423.555987" style="fill: #7f7f7f; stroke: #7f7f7f"/>
     <use xlink:href="#m645521895f" x="471.642684" y="423.665664" style="fill: #7f7f7f; stroke: #7f7f7f"/>
     <use xlink:href="#m645521895f" x="490.897007" y="423.435292" style="fill: #7f7f7f; stroke: #7f7f7f"/>
     <use xlink:href="#m645521895f" x="510.15133" y="423.632861" style="fill: #7f7f7f; stroke: #7f7f7f"/>
     <use xlink:href="#m645521895f" x="529.405653" y="423.269922" style="fill: #7f7f7f; stroke: #7f7f7f"/>
    </g>
   </g>
   <g id="patch_3">
    <path d="M 64.41375 529.308125 
L 64.41375 23.837812 
" style="fill: none; stroke: #000000; stroke-width: 0.8; stroke-linejoin: miter; stroke-linecap: square"/>
   </g>
   <g id="patch_4">
    <path d="M 551.548125 529.308125 
L 551.548125 23.837812 
" style="fill: none; stroke: #000000; stroke-width: 0.8; stroke-linejoin: miter; stroke-linecap: square"/>
   </g>
   <g id="patch_5">
    <path d="M 64.41375 529.308125 
L 551.548125 529.308125 
" style="fill: none; stroke: #000000; stroke-width: 0.8; stroke-linejoin: miter; stroke-linecap: square"/>
   </g>
   <g id="patch_6">
    <path d="M 64.41375 23.837812 
L 551.548125 23.837812 
" style="fill: none; stroke: #000000; stroke-width: 0.8; stroke-linejoin: miter; stroke-linecap: square"/>
   </g>
   <g id="text_12">
    <text style="font: 700 14px 'DejaVu Sans', 'Bitstream Vera Sans', 'Computer Modern Sans Serif', 'Lucida Grande', 'Verdana', 'Geneva', 'Lucid', 'Arial', 'Helvetica', 'Avant Garde', sans-serif; text-anchor: middle" x="307.980938" y="17.837813" transform="rotate(-0 307.980938 17.837813)">Coroutine Parallel Compute - Performance Trend</text>
   </g>
   <g id="legend_1">
    <g id="patch_7">
     <path d="M 582.904844 151.487813 
L 838.476719 151.487813 
Q 840.476719 151.487813 840.476719 149.487813 
L 840.476719 30.837813 
Q 840.476719 28.837813 838.476719 28.837813 
L 582.904844 28.837813 
Q 580.904844 28.837813 580.904844 30.837813 
L 580.904844 149.487813 
Q 580.904844 151.487813 582.904844 151.487813 
z
" style="fill: #ffffff; opacity: 0.8; stroke: #cccccc; stroke-linejoin: miter"/>
    </g>
    <g id="line2d_29">
     <path d="M 584.904844 36.93625 
L 594.904844 36.93625 
L 604.904844 36.93625 
" style="fill: none; stroke: #1f77b4; stroke-width: 2; stroke-linecap: square"/>
     <g>
      <use xlink:href="#ma5ce09a2dc" x="594.904844" y="36.93625" style="fill: #1f77b4; stroke: #1f77b4"/>
     </g>
    </g>
    <g id="text_13">
     <text style="font: 10px 'DejaVu Sans', 'Bitstream Vera Sans', 'Computer Modern Sans Serif', 'Lucida Grande', 'Verdana', 'Geneva', 'Lucid', 'Arial', 'Helvetica', 'Avant Garde', sans-serif; text-anchor: start" x="612.904844" y="40.43625" transform="rotate(-0 612.904844 40.43625)">gcc-14.2 - ParallelCompute_Coroutines_V1</text>
    </g>
    <g id="line2d_30">
     <path d="M 584.904844 51.8925 
L 594.904844 51.8925 
L 604.904844 51.8925 
" style="fill: none; stroke: #ff7f0e; stroke-width: 2; stroke-linecap: square"/>
     <g>
      <use xlink:href="#mea8361b478" x="594.904844" y="51.8925" style="fill: #ff7f0e; stroke: #ff7f0e"/>
     </g>
    </g>
    <g id="text_14">
     <text style="font: 10px 'DejaVu Sans', 'Bitstream Vera Sans', 'Computer Modern Sans Serif', 'Lucida Grande', 'Verdana', 'Geneva', 'Lucid', 'Arial', 'Helvetica', 'Avant Garde', sans-serif; text-anchor: start" x="612.904844" y="55.3925" transform="rotate(-0 612.904844 55.3925)">gcc-14.2 - ParallelCompute_RegularTasks_V1</text>
    </g>
    <g id="line2d_31">
     <path d="M 584.904844 66.84875 
L 594.904844 66.84875 
L 604.904844 66.84875 
" style="fill: none; stroke: #2ca02c; stroke-width: 2; stroke-linecap: square"/>
     <g>
      <use xlink:href="#mc3982c7922" x="594.904844" y="66.84875" style="fill: #2ca02c; stroke: #2ca02c"/>
     </g>
    </g>
    <g id="text_15">
     <text style="font: 10px 'DejaVu Sans', 'Bitstream Vera Sans', 'Computer Modern Sans Serif', 'Lucida Grande', 'Verdana', 'Geneva', 'Lucid', 'Arial', 'Helvetica', 'Avant Garde', sans-serif; text-anchor: start" x="612.904844" y="70.34875" transform="rotate(-0 612.904844 70.34875)">gcc-14.2 - ParallelCompute_Coroutines_V2</text>
    </g>
    <g id="line2d_32">
     <path d="M 584.904844 81.805 
L 594.904844 81.805 
L 604.904844 81.805 
" style="fill: none; stroke: #d62728; stroke-width: 2; stroke-linecap: square"/>
     <g>
      <use xlink:href="#ma04671cb22" x="594.904844" y="81.805" style="fill: #d62728; stroke: #d62728"/>
     </g>
    </g>
    <g id="text_16">
     <text style="font: 10px 'DejaVu Sans', 'Bitstream Vera Sans', 'Computer Modern Sans Serif', 'Lucida Grande', 'Verdana', 'Geneva', 'Lucid', 'Arial', 'Helvetica', 'Avant Garde', sans-serif; text-anchor: start" x="612.904844" y="85.305" transform="rotate(-0 612.904844 85.305)">gcc-14.2 - ParallelCompute_RegularTasks_V2</text>
    </g>
    <g id="line2d_33">
     <path d="M 584.904844 96.76125 
L 594.904844 96.76125 
L 604.904844 96.76125 
" style="fill: none; stroke: #9467bd; stroke-width: 2; stroke-linecap: square"/>
     <g>
      <use xlink:href="#m9a8200ab97" x="594.904844" y="96.76125" style="fill: #9467bd; stroke: #9467bd"/>
     </g>
    </g>
    <g id="text_17">
     <text style="font: 10px 'DejaVu Sans', 'Bitstream Vera Sans', 'Computer Modern Sans Serif', 'Lucida Grande', 'Verdana', 'Geneva', 'Lucid', 'Arial', 'Helvetica', 'Avant Garde', sans-serif; text-anchor: start" x="612.904844" y="100.26125" transform="rotate(-0 612.904844 100.26125)">gcc-4.2 - ParallelCompute_Coroutines_V1</text>
    </g>
    <g id="line2d_34">
     <path d="M 584.904844 111.7175 
L 594.904844 111.7175 
L 604.904844 111.7175 
" style="fill: none; stroke: #8c564b; stroke-width: 2; stroke-linecap: square"/>
     <g>
      <use xlink:href="#mac1fc454d5" x="594.904844" y="111.7175" style="fill: #8c564b; stroke: #8c564b"/>
     </g>
    </g>
    <g id="text_18">
     <text style="font: 10px 'DejaVu Sans', 'Bitstream Vera Sans', 'Computer Modern Sans Serif', 'Lucida Grande', 'Verdana', 'Geneva', 'Lucid', 'Arial', 'Helvetica', 'Avant Garde', sans-serif; text-anchor: start" x="612.904844" y="115.2175" transform="rotate(-0 612.904844 115.2175)">gcc-4.2 - ParallelCompute_RegularTasks_V1</text>
    </g>
    <g id="line2d_35">
     <path d="M 584.904844 126.67375 
L 594.904844 126.67375 
L 604.904844 126.67375 
" style="fill: none; stroke: #e377c2; stroke-width: 2; stroke-linecap: square"/>
     <g>
      <use xlink:href="#m81de7c8833" x="594.904844" y="126.67375" style="fill: #e377c2; stroke: #e377c2"/>
     </g>
    </g>
    <g id="text_19">
     <text style="font: 10px 'DejaVu Sans', 'Bitstream Vera Sans', 'Computer Modern Sans Serif', 'Lucida Grande', 'Verdana', 'Geneva', 'Lucid', 'Arial', 'Helvetica', 'Avant Garde', sans-serif; text-anchor: start" x="612.904844" y="130.17375" transform="rotate(-0 612.904844 130.17375)">gcc-4.2 - ParallelCompute_Coroutines_V2</text>
    </g>
    <g id="line2d_36">
     <path d="M 584.904844 141.63 
L 594.904844 141.63 
L 604.904844 141.63 
" style="fill: none; stroke: #7f7f7f; stroke-width: 2; stroke-linecap: square"/>
     <g>
      <use xlink:href="#m645521895f" x="594.904844" y="141.63" style="fill: #7f7f7f; stroke: #7f7f7f"/>
     </g>
    </g>
    <g id="text_20">
     <text style="font: 10px 'DejaVu Sans', 'Bitstream Vera Sans', 'Computer Modern Sans Serif', 'Lucida Grande', 'Verdana', 'Geneva', 'Lucid', 'Arial', 'Helvetica', 'Avant Garde', sans-serif; text-anchor: start" x="612.904844" y="145.13" transform="rotate(-0 612.904844 145.13)">gcc-4.2 - ParallelCompute_RegularTasks_V2</text>
    </g>
   </g>
  </g>
 </g>
 <defs>
  <clipPath id="pf5e0ebb1c6">
   <rect x="64.41375" y="23.837813" width="487.134375" height="505.470313"/>
  </clipPath>
 </defs>
</svg>
