<?xml version="1.0" encoding="utf-8" standalone="no"?>
<!DOCTYPE svg PUBLIC "-//W3C//DTD SVG 1.1//EN"
  "http://www.w3.org/Graphics/SVG/1.1/DTD/svg11.dtd">
<svg xmlns:xlink="http://www.w3.org/1999/xlink" width="848.869766pt" height="568.8pt" viewBox="0 0 848.869766 568.8" xmlns="http://www.w3.org/2000/svg" version="1.1">
 <metadata>
  <rdf:RDF xmlns:dc="http://purl.org/dc/elements/1.1/" xmlns:cc="http://creativecommons.org/ns#" xmlns:rdf="http://www.w3.org/1999/02/22-rdf-syntax-ns#">
   <cc:Work>
    <dc:type rdf:resource="http://purl.org/dc/dcmitype/StillImage"/>
    <dc:date>2025-08-31T10:43:43.553662</dc:date>
    <dc:format>image/svg+xml</dc:format>
    <dc:creator>
     <cc:Agent>
      <dc:title>Matplotlib v3.9.4, https://matplotlib.org/</dc:title>
     </cc:Agent>
    </dc:creator>
   </cc:Work>
  </rdf:RDF>
 </metadata>
 <defs>
  <style type="text/css">*{stroke-linejoin: round; stroke-linecap: butt}</style>
 </defs>
 <g id="figure_1">
  <g id="patch_1">
   <path d="M 0 568.8 
L 848.869766 568.8 
L 848.869766 0 
L 0 0 
z
" style="fill: #ffffff"/>
  </g>
  <g id="axes_1">
   <g id="patch_2">
    <path d="M 86.71375 529.308125 
L 597.709062 529.308125 
L 597.709062 23.837812 
L 86.71375 23.837812 
z
" style="fill: #ffffff"/>
   </g>
   <g id="matplotlib.axis_1">
    <g id="xtick_1">
     <g id="line2d_1">
      <path d="M 146.615114 529.308125 
L 146.615114 23.837812 
" clip-path="url(#p0c9d79125f)" style="fill: none; stroke: #b0b0b0; stroke-opacity: 0.3; stroke-width: 0.8; stroke-linecap: square"/>
     </g>
     <g id="line2d_2">
      <defs>
       <path id="mbe82d579e7" d="M 0 0 
L 0 3.5 
" style="stroke: #000000; stroke-width: 0.8"/>
      </defs>
      <g>
       <use xlink:href="#mbe82d579e7" x="146.615114" y="529.308125" style="stroke: #000000; stroke-width: 0.8"/>
      </g>
     </g>
     <g id="text_1">
      <text style="font: 10px 'DejaVu Sans', 'Bitstream Vera Sans', 'Computer Modern Sans Serif', 'Lucida Grande', 'Verdana', 'Geneva', 'Lucid', 'Arial', 'Helvetica', 'Avant Garde', sans-serif; text-anchor: middle" x="146.615114" y="543.906563" transform="rotate(-0 146.615114 543.906563)">97.5</text>
     </g>
    </g>
    <g id="xtick_2">
     <g id="line2d_3">
      <path d="M 207.738956 529.308125 
L 207.738956 23.837812 
" clip-path="url(#p0c9d79125f)" style="fill: none; stroke: #b0b0b0; stroke-opacity: 0.3; stroke-width: 0.8; stroke-linecap: square"/>
     </g>
     <g id="line2d_4">
      <g>
       <use xlink:href="#mbe82d579e7" x="207.738956" y="529.308125" style="stroke: #000000; stroke-width: 0.8"/>
      </g>
     </g>
     <g id="text_2">
      <text style="font: 10px 'DejaVu Sans', 'Bitstream Vera Sans', 'Computer Modern Sans Serif', 'Lucida Grande', 'Verdana', 'Geneva', 'Lucid', 'Arial', 'Helvetica', 'Avant Garde', sans-serif; text-anchor: middle" x="207.738956" y="543.906563" transform="rotate(-0 207.738956 543.906563)">100.0</text>
     </g>
    </g>
    <g id="xtick_3">
     <g id="line2d_5">
      <path d="M 268.862797 529.308125 
L 268.862797 23.837812 
" clip-path="url(#p0c9d79125f)" style="fill: none; stroke: #b0b0b0; stroke-opacity: 0.3; stroke-width: 0.8; stroke-linecap: square"/>
     </g>
     <g id="line2d_6">
      <g>
       <use xlink:href="#mbe82d579e7" x="268.862797" y="529.308125" style="stroke: #000000; stroke-width: 0.8"/>
      </g>
     </g>
     <g id="text_3">
      <text style="font: 10px 'DejaVu Sans', 'Bitstream Vera Sans', 'Computer Modern Sans Serif', 'Lucida Grande', 'Verdana', 'Geneva', 'Lucid', 'Arial', 'Helvetica', 'Avant Garde', sans-serif; text-anchor: middle" x="268.862797" y="543.906563" transform="rotate(-0 268.862797 543.906563)">102.5</text>
     </g>
    </g>
    <g id="xtick_4">
     <g id="line2d_7">
      <path d="M 329.986638 529.308125 
L 329.986638 23.837812 
" clip-path="url(#p0c9d79125f)" style="fill: none; stroke: #b0b0b0; stroke-opacity: 0.3; stroke-width: 0.8; stroke-linecap: square"/>
     </g>
     <g id="line2d_8">
      <g>
       <use xlink:href="#mbe82d579e7" x="329.986638" y="529.308125" style="stroke: #000000; stroke-width: 0.8"/>
      </g>
     </g>
     <g id="text_4">
      <text style="font: 10px 'DejaVu Sans', 'Bitstream Vera Sans', 'Computer Modern Sans Serif', 'Lucida Grande', 'Verdana', 'Geneva', 'Lucid', 'Arial', 'Helvetica', 'Avant Garde', sans-serif; text-anchor: middle" x="329.986638" y="543.906563" transform="rotate(-0 329.986638 543.906563)">105.0</text>
     </g>
    </g>
    <g id="xtick_5">
     <g id="line2d_9">
      <path d="M 391.110479 529.308125 
L 391.110479 23.837812 
" clip-path="url(#p0c9d79125f)" style="fill: none; stroke: #b0b0b0; stroke-opacity: 0.3; stroke-width: 0.8; stroke-linecap: square"/>
     </g>
     <g id="line2d_10">
      <g>
       <use xlink:href="#mbe82d579e7" x="391.110479" y="529.308125" style="stroke: #000000; stroke-width: 0.8"/>
      </g>
     </g>
     <g id="text_5">
      <text style="font: 10px 'DejaVu Sans', 'Bitstream Vera Sans', 'Computer Modern Sans Serif', 'Lucida Grande', 'Verdana', 'Geneva', 'Lucid', 'Arial', 'Helvetica', 'Avant Garde', sans-serif; text-anchor: middle" x="391.110479" y="543.906563" transform="rotate(-0 391.110479 543.906563)">107.5</text>
     </g>
    </g>
    <g id="xtick_6">
     <g id="line2d_11">
      <path d="M 452.23432 529.308125 
L 452.23432 23.837812 
" clip-path="url(#p0c9d79125f)" style="fill: none; stroke: #b0b0b0; stroke-opacity: 0.3; stroke-width: 0.8; stroke-linecap: square"/>
     </g>
     <g id="line2d_12">
      <g>
       <use xlink:href="#mbe82d579e7" x="452.23432" y="529.308125" style="stroke: #000000; stroke-width: 0.8"/>
      </g>
     </g>
     <g id="text_6">
      <text style="font: 10px 'DejaVu Sans', 'Bitstream Vera Sans', 'Computer Modern Sans Serif', 'Lucida Grande', 'Verdana', 'Geneva', 'Lucid', 'Arial', 'Helvetica', 'Avant Garde', sans-serif; text-anchor: middle" x="452.23432" y="543.906563" transform="rotate(-0 452.23432 543.906563)">110.0</text>
     </g>
    </g>
    <g id="xtick_7">
     <g id="line2d_13">
      <path d="M 513.358162 529.308125 
L 513.358162 23.837812 
" clip-path="url(#p0c9d79125f)" style="fill: none; stroke: #b0b0b0; stroke-opacity: 0.3; stroke-width: 0.8; stroke-linecap: square"/>
     </g>
     <g id="line2d_14">
      <g>
       <use xlink:href="#mbe82d579e7" x="513.358162" y="529.308125" style="stroke: #000000; stroke-width: 0.8"/>
      </g>
     </g>
     <g id="text_7">
      <text style="font: 10px 'DejaVu Sans', 'Bitstream Vera Sans', 'Computer Modern Sans Serif', 'Lucida Grande', 'Verdana', 'Geneva', 'Lucid', 'Arial', 'Helvetica', 'Avant Garde', sans-serif; text-anchor: middle" x="513.358162" y="543.906563" transform="rotate(-0 513.358162 543.906563)">112.5</text>
     </g>
    </g>
    <g id="xtick_8">
     <g id="line2d_15">
      <path d="M 574.482003 529.308125 
L 574.482003 23.837812 
" clip-path="url(#p0c9d79125f)" style="fill: none; stroke: #b0b0b0; stroke-opacity: 0.3; stroke-width: 0.8; stroke-linecap: square"/>
     </g>
     <g id="line2d_16">
      <g>
       <use xlink:href="#mbe82d579e7" x="574.482003" y="529.308125" style="stroke: #000000; stroke-width: 0.8"/>
      </g>
     </g>
     <g id="text_8">
      <text style="font: 10px 'DejaVu Sans', 'Bitstream Vera Sans', 'Computer Modern Sans Serif', 'Lucida Grande', 'Verdana', 'Geneva', 'Lucid', 'Arial', 'Helvetica', 'Avant Garde', sans-serif; text-anchor: middle" x="574.482003" y="543.906563" transform="rotate(-0 574.482003 543.906563)">115.0</text>
     </g>
    </g>
    <g id="text_9">
     <text style="font: 12px 'DejaVu Sans', 'Bitstream Vera Sans', 'Computer Modern Sans Serif', 'Lucida Grande', 'Verdana', 'Geneva', 'Lucid', 'Arial', 'Helvetica', 'Avant Garde', sans-serif; text-anchor: middle" x="342.211406" y="559.104375" transform="rotate(-0 342.211406 559.104375)">Build Number</text>
    </g>
   </g>
   <g id="matplotlib.axis_2">
    <g id="ytick_1">
     <g id="line2d_17">
      <defs>
       <path id="m5c690bdbfc" d="M 0 0 
L -2 0 
" style="stroke: #000000; stroke-width: 0.6"/>
      </defs>
      <g>
       <use xlink:href="#m5c690bdbfc" x="86.71375" y="498.086323" style="stroke: #000000; stroke-width: 0.6"/>
      </g>
     </g>
     <g id="text_10">
      <!-- $\mathdefault{5.006\times10^{7}}$ -->
      <g transform="translate(22.81375 501.885542)">
       <text>
        <tspan style="font: 10px 'DejaVu Sans'" x="0 6.362305 9.541016 15.90332 22.265625 30.576172 40.90332 47.265625" y="-0.06406250000000036">5.006×10</tspan>
        <tspan style="font: 7px 'DejaVu Sans'" x="53.723633" y="-3.8921875000000004">7</tspan>
       </text>
      </g>
     </g>
    </g>
    <g id="ytick_2">
     <g id="line2d_18">
      <g>
       <use xlink:href="#m5c690bdbfc" x="86.71375" y="394.484684" style="stroke: #000000; stroke-width: 0.6"/>
      </g>
     </g>
     <g id="text_11">
      <!-- $\mathdefault{5.008\times10^{7}}$ -->
      <g transform="translate(22.81375 398.283903)">
       <text>
        <tspan style="font: 10px 'DejaVu Sans'" x="0 6.362305 9.541016 15.90332 22.265625 30.576172 40.90332 47.265625" y="-0.06406250000000036">5.008×10</tspan>
        <tspan style="font: 7px 'DejaVu Sans'" x="53.723633" y="-3.8921875000000004">7</tspan>
       </text>
      </g>
     </g>
    </g>
    <g id="ytick_3">
     <g id="line2d_19">
      <g>
       <use xlink:href="#m5c690bdbfc" x="86.71375" y="290.924411" style="stroke: #000000; stroke-width: 0.6"/>
      </g>
     </g>
     <g id="text_12">
      <!-- $\mathdefault{5.01\times10^{7}}$ -->
      <g transform="translate(29.21375 294.72363)">
       <text>
        <tspan style="font: 10px 'DejaVu Sans'" x="0 6.362305 9.541016 15.90332 24.213867 34.541016 40.90332" y="-0.06406250000000036">5.01×10</tspan>
        <tspan style="font: 7px 'DejaVu Sans'" x="47.361328" y="-3.8921875000000004">7</tspan>
       </text>
      </g>
     </g>
    </g>
    <g id="ytick_4">
     <g id="line2d_20">
      <g>
       <use xlink:href="#m5c690bdbfc" x="86.71375" y="187.405471" style="stroke: #000000; stroke-width: 0.6"/>
      </g>
     </g>
     <g id="text_13">
      <!-- $\mathdefault{5.012\times10^{7}}$ -->
      <g transform="translate(22.81375 191.20469)">
       <text>
        <tspan style="font: 10px 'DejaVu Sans'" x="0 6.362305 9.541016 15.90332 22.265625 30.576172 40.90332 47.265625" y="-0.06406250000000036">5.012×10</tspan>
        <tspan style="font: 7px 'DejaVu Sans'" x="53.723633" y="-3.8921875000000004">7</tspan>
       </text>
      </g>
     </g>
    </g>
    <g id="ytick_5">
     <g id="line2d_21">
      <g>
       <use xlink:href="#m5c690bdbfc" x="86.71375" y="83.927831" style="stroke: #000000; stroke-width: 0.6"/>
      </g>
     </g>
     <g id="text_14">
      <!-- $\mathdefault{5.014\times10^{7}}$ -->
      <g transform="translate(22.81375 87.72705)">
       <text>
        <tspan style="font: 10px 'DejaVu Sans'" x="0 6.362305 9.541016 15.90332 22.265625 30.576172 40.90332 47.265625" y="-0.06406250000000036">5.014×10</tspan>
        <tspan style="font: 7px 'DejaVu Sans'" x="53.723633" y="-3.8921875000000004">7</tspan>
       </text>
      </g>
     </g>
    </g>
    <g id="text_15">
     <text style="font: 12px 'DejaVu Sans', 'Bitstream Vera Sans', 'Computer Modern Sans Serif', 'Lucida Grande', 'Verdana', 'Geneva', 'Lucid', 'Arial', 'Helvetica', 'Avant Garde', sans-serif; text-anchor: middle" x="16.318125" y="276.572969" transform="rotate(-90 16.318125 276.572969)">Median Elapsed Time (nanoseconds)</text>
    </g>
   </g>
   <g id="line2d_22">
    <path d="M 109.94081 454.784093 
L 134.390346 454.462399 
L 183.289419 474.451664 
L 207.738956 484.168663 
L 232.188492 477.740358 
L 256.638029 474.944862 
L 281.087565 482.111878 
L 305.537102 472.113132 
L 329.986638 451.011343 
L 354.436174 451.502942 
L 403.335247 438.315041 
L 427.784784 448.662144 
L 452.23432 472.777285 
L 476.683857 463.634704 
L 501.133393 470.682255 
L 550.032466 475.387808 
L 574.482003 506.332202 
" clip-path="url(#p0c9d79125f)" style="fill: none; stroke: #1f77b4; stroke-width: 2; stroke-linecap: square"/>
    <defs>
     <path id="mf679e25083" d="M 0 3 
C 0.795609 3 1.55874 2.683901 2.12132 2.12132 
C 2.683901 1.55874 3 0.795609 3 0 
C 3 -0.795609 2.683901 -1.55874 2.12132 -2.12132 
C 1.55874 -2.683901 0.795609 -3 0 -3 
C -0.795609 -3 -1.55874 -2.683901 -2.12132 -2.12132 
C -2.683901 -1.55874 -3 -0.795609 -3 0 
C -3 0.795609 -2.683901 1.55874 -2.12132 2.12132 
C -1.55874 2.683901 -0.795609 3 0 3 
z
" style="stroke: #1f77b4"/>
    </defs>
    <g clip-path="url(#p0c9d79125f)">
     <use xlink:href="#mf679e25083" x="109.94081" y="454.784093" style="fill: #1f77b4; stroke: #1f77b4"/>
     <use xlink:href="#mf679e25083" x="134.390346" y="454.462399" style="fill: #1f77b4; stroke: #1f77b4"/>
     <use xlink:href="#mf679e25083" x="183.289419" y="474.451664" style="fill: #1f77b4; stroke: #1f77b4"/>
     <use xlink:href="#mf679e25083" x="207.738956" y="484.168663" style="fill: #1f77b4; stroke: #1f77b4"/>
     <use xlink:href="#mf679e25083" x="232.188492" y="477.740358" style="fill: #1f77b4; stroke: #1f77b4"/>
     <use xlink:href="#mf679e25083" x="256.638029" y="474.944862" style="fill: #1f77b4; stroke: #1f77b4"/>
     <use xlink:href="#mf679e25083" x="281.087565" y="482.111878" style="fill: #1f77b4; stroke: #1f77b4"/>
     <use xlink:href="#mf679e25083" x="305.537102" y="472.113132" style="fill: #1f77b4; stroke: #1f77b4"/>
     <use xlink:href="#mf679e25083" x="329.986638" y="451.011343" style="fill: #1f77b4; stroke: #1f77b4"/>
     <use xlink:href="#mf679e25083" x="354.436174" y="451.502942" style="fill: #1f77b4; stroke: #1f77b4"/>
     <use xlink:href="#mf679e25083" x="403.335247" y="438.315041" style="fill: #1f77b4; stroke: #1f77b4"/>
     <use xlink:href="#mf679e25083" x="427.784784" y="448.662144" style="fill: #1f77b4; stroke: #1f77b4"/>
     <use xlink:href="#mf679e25083" x="452.23432" y="472.777285" style="fill: #1f77b4; stroke: #1f77b4"/>
     <use xlink:href="#mf679e25083" x="476.683857" y="463.634704" style="fill: #1f77b4; stroke: #1f77b4"/>
     <use xlink:href="#mf679e25083" x="501.133393" y="470.682255" style="fill: #1f77b4; stroke: #1f77b4"/>
     <use xlink:href="#mf679e25083" x="550.032466" y="475.387808" style="fill: #1f77b4; stroke: #1f77b4"/>
     <use xlink:href="#mf679e25083" x="574.482003" y="506.332202" style="fill: #1f77b4; stroke: #1f77b4"/>
    </g>
   </g>
   <g id="line2d_23">
    <path d="M 109.94081 117.342974 
L 134.390346 103.114642 
L 183.289419 223.440902 
L 207.738956 59.065719 
L 232.188492 234.73645 
L 256.638029 232.277929 
L 281.087565 211.331755 
L 305.537102 243.869931 
L 329.986638 76.914059 
L 354.436174 126.230193 
L 403.335247 46.813736 
L 427.784784 55.083554 
L 452.23432 235.689327 
L 476.683857 180.933286 
L 501.133393 236.111161 
L 550.032466 222.587959 
L 574.482003 219.867669 
" clip-path="url(#p0c9d79125f)" style="fill: none; stroke: #ff7f0e; stroke-width: 2; stroke-linecap: square"/>
    <defs>
     <path id="m09fe58df85" d="M 0 3 
C 0.795609 3 1.55874 2.683901 2.12132 2.12132 
C 2.683901 1.55874 3 0.795609 3 0 
C 3 -0.795609 2.683901 -1.55874 2.12132 -2.12132 
C 1.55874 -2.683901 0.795609 -3 0 -3 
C -0.795609 -3 -1.55874 -2.683901 -2.12132 -2.12132 
C -2.683901 -1.55874 -3 -0.795609 -3 0 
C -3 0.795609 -2.683901 1.55874 -2.12132 2.12132 
C -1.55874 2.683901 -0.795609 3 0 3 
z
" style="stroke: #ff7f0e"/>
    </defs>
    <g clip-path="url(#p0c9d79125f)">
     <use xlink:href="#m09fe58df85" x="109.94081" y="117.342974" style="fill: #ff7f0e; stroke: #ff7f0e"/>
     <use xlink:href="#m09fe58df85" x="134.390346" y="103.114642" style="fill: #ff7f0e; stroke: #ff7f0e"/>
     <use xlink:href="#m09fe58df85" x="183.289419" y="223.440902" style="fill: #ff7f0e; stroke: #ff7f0e"/>
     <use xlink:href="#m09fe58df85" x="207.738956" y="59.065719" style="fill: #ff7f0e; stroke: #ff7f0e"/>
     <use xlink:href="#m09fe58df85" x="232.188492" y="234.73645" style="fill: #ff7f0e; stroke: #ff7f0e"/>
     <use xlink:href="#m09fe58df85" x="256.638029" y="232.277929" style="fill: #ff7f0e; stroke: #ff7f0e"/>
     <use xlink:href="#m09fe58df85" x="281.087565" y="211.331755" style="fill: #ff7f0e; stroke: #ff7f0e"/>
     <use xlink:href="#m09fe58df85" x="305.537102" y="243.869931" style="fill: #ff7f0e; stroke: #ff7f0e"/>
     <use xlink:href="#m09fe58df85" x="329.986638" y="76.914059" style="fill: #ff7f0e; stroke: #ff7f0e"/>
     <use xlink:href="#m09fe58df85" x="354.436174" y="126.230193" style="fill: #ff7f0e; stroke: #ff7f0e"/>
     <use xlink:href="#m09fe58df85" x="403.335247" y="46.813736" style="fill: #ff7f0e; stroke: #ff7f0e"/>
     <use xlink:href="#m09fe58df85" x="427.784784" y="55.083554" style="fill: #ff7f0e; stroke: #ff7f0e"/>
     <use xlink:href="#m09fe58df85" x="452.23432" y="235.689327" style="fill: #ff7f0e; stroke: #ff7f0e"/>
     <use xlink:href="#m09fe58df85" x="476.683857" y="180.933286" style="fill: #ff7f0e; stroke: #ff7f0e"/>
     <use xlink:href="#m09fe58df85" x="501.133393" y="236.111161" style="fill: #ff7f0e; stroke: #ff7f0e"/>
     <use xlink:href="#m09fe58df85" x="550.032466" y="222.587959" style="fill: #ff7f0e; stroke: #ff7f0e"/>
     <use xlink:href="#m09fe58df85" x="574.482003" y="219.867669" style="fill: #ff7f0e; stroke: #ff7f0e"/>
    </g>
   </g>
   <g id="line2d_24">
    <path d="M 109.94081 462.042245 
L 134.390346 476.41669 
L 183.289419 494.98907 
L 207.738956 452.063957 
L 232.188492 493.832662 
L 256.638029 497.098286 
L 281.087565 474.660962 
L 305.537102 467.716396 
L 329.986638 473.274106 
L 354.436174 471.931293 
L 403.335247 498.102903 
L 427.784784 476.773639 
L 452.23432 467.395204 
L 501.133393 467.235127 
L 574.482003 476.130198 
" clip-path="url(#p0c9d79125f)" style="fill: none; stroke: #2ca02c; stroke-width: 2; stroke-linecap: square"/>
    <defs>
     <path id="md72b0d9455" d="M 0 3 
C 0.795609 3 1.55874 2.683901 2.12132 2.12132 
C 2.683901 1.55874 3 0.795609 3 0 
C 3 -0.795609 2.683901 -1.55874 2.12132 -2.12132 
C 1.55874 -2.683901 0.795609 -3 0 -3 
C -0.795609 -3 -1.55874 -2.683901 -2.12132 -2.12132 
C -2.683901 -1.55874 -3 -0.795609 -3 0 
C -3 0.795609 -2.683901 1.55874 -2.12132 2.12132 
C -1.55874 2.683901 -0.795609 3 0 3 
z
" style="stroke: #2ca02c"/>
    </defs>
    <g clip-path="url(#p0c9d79125f)">
     <use xlink:href="#md72b0d9455" x="109.94081" y="462.042245" style="fill: #2ca02c; stroke: #2ca02c"/>
     <use xlink:href="#md72b0d9455" x="134.390346" y="476.41669" style="fill: #2ca02c; stroke: #2ca02c"/>
     <use xlink:href="#md72b0d9455" x="183.289419" y="494.98907" style="fill: #2ca02c; stroke: #2ca02c"/>
     <use xlink:href="#md72b0d9455" x="207.738956" y="452.063957" style="fill: #2ca02c; stroke: #2ca02c"/>
     <use xlink:href="#md72b0d9455" x="232.188492" y="493.832662" style="fill: #2ca02c; stroke: #2ca02c"/>
     <use xlink:href="#md72b0d9455" x="256.638029" y="497.098286" style="fill: #2ca02c; stroke: #2ca02c"/>
     <use xlink:href="#md72b0d9455" x="281.087565" y="474.660962" style="fill: #2ca02c; stroke: #2ca02c"/>
     <use xlink:href="#md72b0d9455" x="305.537102" y="467.716396" style="fill: #2ca02c; stroke: #2ca02c"/>
     <use xlink:href="#md72b0d9455" x="329.986638" y="473.274106" style="fill: #2ca02c; stroke: #2ca02c"/>
     <use xlink:href="#md72b0d9455" x="354.436174" y="471.931293" style="fill: #2ca02c; stroke: #2ca02c"/>
     <use xlink:href="#md72b0d9455" x="403.335247" y="498.102903" style="fill: #2ca02c; stroke: #2ca02c"/>
     <use xlink:href="#md72b0d9455" x="427.784784" y="476.773639" style="fill: #2ca02c; stroke: #2ca02c"/>
     <use xlink:href="#md72b0d9455" x="452.23432" y="467.395204" style="fill: #2ca02c; stroke: #2ca02c"/>
     <use xlink:href="#md72b0d9455" x="501.133393" y="467.235127" style="fill: #2ca02c; stroke: #2ca02c"/>
     <use xlink:href="#md72b0d9455" x="574.482003" y="476.130198" style="fill: #2ca02c; stroke: #2ca02c"/>
    </g>
   </g>
   <g id="line2d_25">
    <path d="M 109.94081 146.455468 
L 134.390346 239.078514 
L 183.289419 235.882905 
L 207.738956 204.000917 
L 232.188492 230.754175 
L 256.638029 228.759955 
L 281.087565 208.78858 
L 305.537102 221.974649 
L 329.986638 239.443936 
L 354.436174 225.592939 
L 403.335247 207.138687 
L 427.784784 224.259688 
L 452.23432 220.50944 
L 501.133393 231.912517 
L 574.482003 229.195235 
" clip-path="url(#p0c9d79125f)" style="fill: none; stroke: #d62728; stroke-width: 2; stroke-linecap: square"/>
    <defs>
     <path id="m128b0f9fc0" d="M 0 3 
C 0.795609 3 1.55874 2.683901 2.12132 2.12132 
C 2.683901 1.55874 3 0.795609 3 0 
C 3 -0.795609 2.683901 -1.55874 2.12132 -2.12132 
C 1.55874 -2.683901 0.795609 -3 0 -3 
C -0.795609 -3 -1.55874 -2.683901 -2.12132 -2.12132 
C -2.683901 -1.55874 -3 -0.795609 -3 0 
C -3 0.795609 -2.683901 1.55874 -2.12132 2.12132 
C -1.55874 2.683901 -0.795609 3 0 3 
z
" style="stroke: #d62728"/>
    </defs>
    <g clip-path="url(#p0c9d79125f)">
     <use xlink:href="#m128b0f9fc0" x="109.94081" y="146.455468" style="fill: #d62728; stroke: #d62728"/>
     <use xlink:href="#m128b0f9fc0" x="134.390346" y="239.078514" style="fill: #d62728; stroke: #d62728"/>
     <use xlink:href="#m128b0f9fc0" x="183.289419" y="235.882905" style="fill: #d62728; stroke: #d62728"/>
     <use xlink:href="#m128b0f9fc0" x="207.738956" y="204.000917" style="fill: #d62728; stroke: #d62728"/>
     <use xlink:href="#m128b0f9fc0" x="232.188492" y="230.754175" style="fill: #d62728; stroke: #d62728"/>
     <use xlink:href="#m128b0f9fc0" x="256.638029" y="228.759955" style="fill: #d62728; stroke: #d62728"/>
     <use xlink:href="#m128b0f9fc0" x="281.087565" y="208.78858" style="fill: #d62728; stroke: #d62728"/>
     <use xlink:href="#m128b0f9fc0" x="305.537102" y="221.974649" style="fill: #d62728; stroke: #d62728"/>
     <use xlink:href="#m128b0f9fc0" x="329.986638" y="239.443936" style="fill: #d62728; stroke: #d62728"/>
     <use xlink:href="#m128b0f9fc0" x="354.436174" y="225.592939" style="fill: #d62728; stroke: #d62728"/>
     <use xlink:href="#m128b0f9fc0" x="403.335247" y="207.138687" style="fill: #d62728; stroke: #d62728"/>
     <use xlink:href="#m128b0f9fc0" x="427.784784" y="224.259688" style="fill: #d62728; stroke: #d62728"/>
     <use xlink:href="#m128b0f9fc0" x="452.23432" y="220.50944" style="fill: #d62728; stroke: #d62728"/>
     <use xlink:href="#m128b0f9fc0" x="501.133393" y="231.912517" style="fill: #d62728; stroke: #d62728"/>
     <use xlink:href="#m128b0f9fc0" x="574.482003" y="229.195235" style="fill: #d62728; stroke: #d62728"/>
    </g>
   </g>
   <g id="patch_3">
    <path d="M 86.71375 529.308125 
L 86.71375 23.837812 
" style="fill: none; stroke: #000000; stroke-width: 0.8; stroke-linejoin: miter; stroke-linecap: square"/>
   </g>
   <g id="patch_4">
    <path d="M 597.709062 529.308125 
L 597.709062 23.837812 
" style="fill: none; stroke: #000000; stroke-width: 0.8; stroke-linejoin: miter; stroke-linecap: square"/>
   </g>
   <g id="patch_5">
    <path d="M 86.71375 529.308125 
L 597.709062 529.308125 
" style="fill: none; stroke: #000000; stroke-width: 0.8; stroke-linejoin: miter; stroke-linecap: square"/>
   </g>
   <g id="patch_6">
    <path d="M 86.71375 23.837812 
L 597.709062 23.837812 
" style="fill: none; stroke: #000000; stroke-width: 0.8; stroke-linejoin: miter; stroke-linecap: square"/>
   </g>
   <g id="text_16">
    <text style="font: 700 14px 'DejaVu Sans', 'Bitstream Vera Sans', 'Computer Modern Sans Serif', 'Lucida Grande', 'Verdana', 'Geneva', 'Lucid', 'Arial', 'Helvetica', 'Avant Garde', sans-serif; text-anchor: middle" x="342.211406" y="17.837813" transform="rotate(-0 342.211406 17.837813)">Coroutine Suspension - Performance Trend</text>
   </g>
   <g id="legend_1">
    <g id="patch_7">
     <path d="M 630.258828 91.662813 
L 839.669766 91.662813 
Q 841.669766 91.662813 841.669766 89.662813 
L 841.669766 30.837813 
Q 841.669766 28.837813 839.669766 28.837813 
L 630.258828 28.837813 
Q 628.258828 28.837813 628.258828 30.837813 
L 628.258828 89.662813 
Q 628.258828 91.662813 630.258828 91.662813 
z
" style="fill: #ffffff; opacity: 0.8; stroke: #cccccc; stroke-linejoin: miter"/>
    </g>
    <g id="line2d_26">
     <path d="M 632.258828 36.93625 
L 642.258828 36.93625 
L 652.258828 36.93625 
" style="fill: none; stroke: #1f77b4; stroke-width: 2; stroke-linecap: square"/>
     <g>
      <use xlink:href="#mf679e25083" x="642.258828" y="36.93625" style="fill: #1f77b4; stroke: #1f77b4"/>
     </g>
    </g>
    <g id="text_17">
     <text style="font: 10px 'DejaVu Sans', 'Bitstream Vera Sans', 'Computer Modern Sans Serif', 'Lucida Grande', 'Verdana', 'Geneva', 'Lucid', 'Arial', 'Helvetica', 'Avant Garde', sans-serif; text-anchor: start" x="660.258828" y="40.43625" transform="rotate(-0 660.258828 40.43625)">gcc-14.2 - SuspensionOverhead_V1</text>
    </g>
    <g id="line2d_27">
     <path d="M 632.258828 51.8925 
L 642.258828 51.8925 
L 652.258828 51.8925 
" style="fill: none; stroke: #ff7f0e; stroke-width: 2; stroke-linecap: square"/>
     <g>
      <use xlink:href="#m09fe58df85" x="642.258828" y="51.8925" style="fill: #ff7f0e; stroke: #ff7f0e"/>
     </g>
    </g>
    <g id="text_18">
     <text style="font: 10px 'DejaVu Sans', 'Bitstream Vera Sans', 'Computer Modern Sans Serif', 'Lucida Grande', 'Verdana', 'Geneva', 'Lucid', 'Arial', 'Helvetica', 'Avant Garde', sans-serif; text-anchor: start" x="660.258828" y="55.3925" transform="rotate(-0 660.258828 55.3925)">gcc-14.2 - SuspensionOverhead_V2</text>
    </g>
    <g id="line2d_28">
     <path d="M 632.258828 66.84875 
L 642.258828 66.84875 
L 652.258828 66.84875 
" style="fill: none; stroke: #2ca02c; stroke-width: 2; stroke-linecap: square"/>
     <g>
      <use xlink:href="#md72b0d9455" x="642.258828" y="66.84875" style="fill: #2ca02c; stroke: #2ca02c"/>
     </g>
    </g>
    <g id="text_19">
     <text style="font: 10px 'DejaVu Sans', 'Bitstream Vera Sans', 'Computer Modern Sans Serif', 'Lucida Grande', 'Verdana', 'Geneva', 'Lucid', 'Arial', 'Helvetica', 'Avant Garde', sans-serif; text-anchor: start" x="660.258828" y="70.34875" transform="rotate(-0 660.258828 70.34875)">gcc-4.2 - SuspensionOverhead_V1</text>
    </g>
    <g id="line2d_29">
     <path d="M 632.258828 81.805 
L 642.258828 81.805 
L 652.258828 81.805 
" style="fill: none; stroke: #d62728; stroke-width: 2; stroke-linecap: square"/>
     <g>
      <use xlink:href="#m128b0f9fc0" x="642.258828" y="81.805" style="fill: #d62728; stroke: #d62728"/>
     </g>
    </g>
    <g id="text_20">
     <text style="font: 10px 'DejaVu Sans', 'Bitstream Vera Sans', 'Computer Modern Sans Serif', 'Lucida Grande', 'Verdana', 'Geneva', 'Lucid', 'Arial', 'Helvetica', 'Avant Garde', sans-serif; text-anchor: start" x="660.258828" y="85.305" transform="rotate(-0 660.258828 85.305)">gcc-4.2 - SuspensionOverhead_V2</text>
    </g>
   </g>
  </g>
 </g>
 <defs>
  <clipPath id="p0c9d79125f">
   <rect x="86.71375" y="23.837813" width="510.995312" height="505.470313"/>
  </clipPath>
 </defs>
</svg>
