<?xml version="1.0" encoding="utf-8" standalone="no"?>
<!DOCTYPE svg PUBLIC "-//W3C//DTD SVG 1.1//EN"
  "http://www.w3.org/Graphics/SVG/1.1/DTD/svg11.dtd">
<svg xmlns:xlink="http://www.w3.org/1999/xlink" width="849.994062pt" height="568.8pt" viewBox="0 0 849.994062 568.8" xmlns="http://www.w3.org/2000/svg" version="1.1">
 <metadata>
  <rdf:RDF xmlns:dc="http://purl.org/dc/elements/1.1/" xmlns:cc="http://creativecommons.org/ns#" xmlns:rdf="http://www.w3.org/1999/02/22-rdf-syntax-ns#">
   <cc:Work>
    <dc:type rdf:resource="http://purl.org/dc/dcmitype/StillImage"/>
    <dc:date>2025-08-31T10:43:42.927008</dc:date>
    <dc:format>image/svg+xml</dc:format>
    <dc:creator>
     <cc:Agent>
      <dc:title>Matplotlib v3.9.4, https://matplotlib.org/</dc:title>
     </cc:Agent>
    </dc:creator>
   </cc:Work>
  </rdf:RDF>
 </metadata>
 <defs>
  <style type="text/css">*{stroke-linejoin: round; stroke-linecap: butt}</style>
 </defs>
 <g id="figure_1">
  <g id="patch_1">
   <path d="M 0 568.8 
L 849.994062 568.8 
L 849.994062 0 
L 0 0 
z
" style="fill: #ffffff"/>
  </g>
  <g id="axes_1">
   <g id="patch_2">
    <path d="M 64.41375 529.308125 
L 597.895 529.308125 
L 597.895 23.837812 
L 64.41375 23.837812 
z
" style="fill: #ffffff"/>
   </g>
   <g id="matplotlib.axis_1">
    <g id="xtick_1">
     <g id="line2d_1">
      <path d="M 126.951026 529.308125 
L 126.951026 23.837812 
" clip-path="url(#p7ade83e3c0)" style="fill: none; stroke: #b0b0b0; stroke-opacity: 0.3; stroke-width: 0.8; stroke-linecap: square"/>
     </g>
     <g id="line2d_2">
      <defs>
       <path id="mba6c158dd3" d="M 0 0 
L 0 3.5 
" style="stroke: #000000; stroke-width: 0.8"/>
      </defs>
      <g>
       <use xlink:href="#mba6c158dd3" x="126.951026" y="529.308125" style="stroke: #000000; stroke-width: 0.8"/>
      </g>
     </g>
     <g id="text_1">
      <text style="font: 10px 'DejaVu Sans', 'Bitstream Vera Sans', 'Computer Modern Sans Serif', 'Lucida Grande', 'Verdana', 'Geneva', 'Lucid', 'Arial', 'Helvetica', 'Avant Garde', sans-serif; text-anchor: middle" x="126.951026" y="543.906563" transform="rotate(-0 126.951026 543.906563)">97.5</text>
     </g>
    </g>
    <g id="xtick_2">
     <g id="line2d_3">
      <path d="M 190.764572 529.308125 
L 190.764572 23.837812 
" clip-path="url(#p7ade83e3c0)" style="fill: none; stroke: #b0b0b0; stroke-opacity: 0.3; stroke-width: 0.8; stroke-linecap: square"/>
     </g>
     <g id="line2d_4">
      <g>
       <use xlink:href="#mba6c158dd3" x="190.764572" y="529.308125" style="stroke: #000000; stroke-width: 0.8"/>
      </g>
     </g>
     <g id="text_2">
      <text style="font: 10px 'DejaVu Sans', 'Bitstream Vera Sans', 'Computer Modern Sans Serif', 'Lucida Grande', 'Verdana', 'Geneva', 'Lucid', 'Arial', 'Helvetica', 'Avant Garde', sans-serif; text-anchor: middle" x="190.764572" y="543.906563" transform="rotate(-0 190.764572 543.906563)">100.0</text>
     </g>
    </g>
    <g id="xtick_3">
     <g id="line2d_5">
      <path d="M 254.578119 529.308125 
L 254.578119 23.837812 
" clip-path="url(#p7ade83e3c0)" style="fill: none; stroke: #b0b0b0; stroke-opacity: 0.3; stroke-width: 0.8; stroke-linecap: square"/>
     </g>
     <g id="line2d_6">
      <g>
       <use xlink:href="#mba6c158dd3" x="254.578119" y="529.308125" style="stroke: #000000; stroke-width: 0.8"/>
      </g>
     </g>
     <g id="text_3">
      <text style="font: 10px 'DejaVu Sans', 'Bitstream Vera Sans', 'Computer Modern Sans Serif', 'Lucida Grande', 'Verdana', 'Geneva', 'Lucid', 'Arial', 'Helvetica', 'Avant Garde', sans-serif; text-anchor: middle" x="254.578119" y="543.906563" transform="rotate(-0 254.578119 543.906563)">102.5</text>
     </g>
    </g>
    <g id="xtick_4">
     <g id="line2d_7">
      <path d="M 318.391666 529.308125 
L 318.391666 23.837812 
" clip-path="url(#p7ade83e3c0)" style="fill: none; stroke: #b0b0b0; stroke-opacity: 0.3; stroke-width: 0.8; stroke-linecap: square"/>
     </g>
     <g id="line2d_8">
      <g>
       <use xlink:href="#mba6c158dd3" x="318.391666" y="529.308125" style="stroke: #000000; stroke-width: 0.8"/>
      </g>
     </g>
     <g id="text_4">
      <text style="font: 10px 'DejaVu Sans', 'Bitstream Vera Sans', 'Computer Modern Sans Serif', 'Lucida Grande', 'Verdana', 'Geneva', 'Lucid', 'Arial', 'Helvetica', 'Avant Garde', sans-serif; text-anchor: middle" x="318.391666" y="543.906563" transform="rotate(-0 318.391666 543.906563)">105.0</text>
     </g>
    </g>
    <g id="xtick_5">
     <g id="line2d_9">
      <path d="M 382.205212 529.308125 
L 382.205212 23.837812 
" clip-path="url(#p7ade83e3c0)" style="fill: none; stroke: #b0b0b0; stroke-opacity: 0.3; stroke-width: 0.8; stroke-linecap: square"/>
     </g>
     <g id="line2d_10">
      <g>
       <use xlink:href="#mba6c158dd3" x="382.205212" y="529.308125" style="stroke: #000000; stroke-width: 0.8"/>
      </g>
     </g>
     <g id="text_5">
      <text style="font: 10px 'DejaVu Sans', 'Bitstream Vera Sans', 'Computer Modern Sans Serif', 'Lucida Grande', 'Verdana', 'Geneva', 'Lucid', 'Arial', 'Helvetica', 'Avant Garde', sans-serif; text-anchor: middle" x="382.205212" y="543.906563" transform="rotate(-0 382.205212 543.906563)">107.5</text>
     </g>
    </g>
    <g id="xtick_6">
     <g id="line2d_11">
      <path d="M 446.018759 529.308125 
L 446.018759 23.837812 
" clip-path="url(#p7ade83e3c0)" style="fill: none; stroke: #b0b0b0; stroke-opacity: 0.3; stroke-width: 0.8; stroke-linecap: square"/>
     </g>
     <g id="line2d_12">
      <g>
       <use xlink:href="#mba6c158dd3" x="446.018759" y="529.308125" style="stroke: #000000; stroke-width: 0.8"/>
      </g>
     </g>
     <g id="text_6">
      <text style="font: 10px 'DejaVu Sans', 'Bitstream Vera Sans', 'Computer Modern Sans Serif', 'Lucida Grande', 'Verdana', 'Geneva', 'Lucid', 'Arial', 'Helvetica', 'Avant Garde', sans-serif; text-anchor: middle" x="446.018759" y="543.906563" transform="rotate(-0 446.018759 543.906563)">110.0</text>
     </g>
    </g>
    <g id="xtick_7">
     <g id="line2d_13">
      <path d="M 509.832306 529.308125 
L 509.832306 23.837812 
" clip-path="url(#p7ade83e3c0)" style="fill: none; stroke: #b0b0b0; stroke-opacity: 0.3; stroke-width: 0.8; stroke-linecap: square"/>
     </g>
     <g id="line2d_14">
      <g>
       <use xlink:href="#mba6c158dd3" x="509.832306" y="529.308125" style="stroke: #000000; stroke-width: 0.8"/>
      </g>
     </g>
     <g id="text_7">
      <text style="font: 10px 'DejaVu Sans', 'Bitstream Vera Sans', 'Computer Modern Sans Serif', 'Lucida Grande', 'Verdana', 'Geneva', 'Lucid', 'Arial', 'Helvetica', 'Avant Garde', sans-serif; text-anchor: middle" x="509.832306" y="543.906563" transform="rotate(-0 509.832306 543.906563)">112.5</text>
     </g>
    </g>
    <g id="xtick_8">
     <g id="line2d_15">
      <path d="M 573.645852 529.308125 
L 573.645852 23.837812 
" clip-path="url(#p7ade83e3c0)" style="fill: none; stroke: #b0b0b0; stroke-opacity: 0.3; stroke-width: 0.8; stroke-linecap: square"/>
     </g>
     <g id="line2d_16">
      <g>
       <use xlink:href="#mba6c158dd3" x="573.645852" y="529.308125" style="stroke: #000000; stroke-width: 0.8"/>
      </g>
     </g>
     <g id="text_8">
      <text style="font: 10px 'DejaVu Sans', 'Bitstream Vera Sans', 'Computer Modern Sans Serif', 'Lucida Grande', 'Verdana', 'Geneva', 'Lucid', 'Arial', 'Helvetica', 'Avant Garde', sans-serif; text-anchor: middle" x="573.645852" y="543.906563" transform="rotate(-0 573.645852 543.906563)">115.0</text>
     </g>
    </g>
    <g id="text_9">
     <text style="font: 12px 'DejaVu Sans', 'Bitstream Vera Sans', 'Computer Modern Sans Serif', 'Lucida Grande', 'Verdana', 'Geneva', 'Lucid', 'Arial', 'Helvetica', 'Avant Garde', sans-serif; text-anchor: middle" x="331.154375" y="559.104375" transform="rotate(-0 331.154375 559.104375)">Build Number</text>
    </g>
   </g>
   <g id="matplotlib.axis_2">
    <g id="ytick_1">
     <g id="line2d_17">
      <defs>
       <path id="m63e573d564" d="M 0 0 
L -2 0 
" style="stroke: #000000; stroke-width: 0.6"/>
      </defs>
      <g>
       <use xlink:href="#m63e573d564" x="64.41375" y="314.369656" style="stroke: #000000; stroke-width: 0.6"/>
      </g>
     </g>
     <g id="text_10">
      <!-- $\mathdefault{2\times10^{5}}$ -->
      <g transform="translate(22.81375 318.168874)">
       <text>
        <tspan style="font: 10px 'DejaVu Sans'" x="0 8.310547 18.637695 25" y="-0.06406250000000036">2×10</tspan>
        <tspan style="font: 7px 'DejaVu Sans'" x="31.458008" y="-3.8921875000000004">5</tspan>
       </text>
      </g>
     </g>
    </g>
    <g id="ytick_2">
     <g id="line2d_18">
      <g>
       <use xlink:href="#m63e573d564" x="64.41375" y="185.624887" style="stroke: #000000; stroke-width: 0.6"/>
      </g>
     </g>
     <g id="text_11">
      <!-- $\mathdefault{3\times10^{5}}$ -->
      <g transform="translate(22.81375 189.424106)">
       <text>
        <tspan style="font: 10px 'DejaVu Sans'" x="0 8.310547 18.637695 25" y="-0.06406250000000036">3×10</tspan>
        <tspan style="font: 7px 'DejaVu Sans'" x="31.458008" y="-3.8921875000000004">5</tspan>
       </text>
      </g>
     </g>
    </g>
    <g id="ytick_3">
     <g id="line2d_19">
      <g>
       <use xlink:href="#m63e573d564" x="64.41375" y="94.27902" style="stroke: #000000; stroke-width: 0.6"/>
      </g>
     </g>
     <g id="text_12">
      <!-- $\mathdefault{4\times10^{5}}$ -->
      <g transform="translate(22.81375 98.078239)">
       <text>
        <tspan style="font: 10px 'DejaVu Sans'" x="0 8.310547 18.637695 25" y="-0.06406250000000036">4×10</tspan>
        <tspan style="font: 7px 'DejaVu Sans'" x="31.458008" y="-3.8921875000000004">5</tspan>
       </text>
      </g>
     </g>
    </g>
    <g id="text_13">
     <text style="font: 12px 'DejaVu Sans', 'Bitstream Vera Sans', 'Computer Modern Sans Serif', 'Lucida Grande', 'Verdana', 'Geneva', 'Lucid', 'Arial', 'Helvetica', 'Avant Garde', sans-serif; text-anchor: middle" x="16.318125" y="276.572969" transform="rotate(-90 16.318125 276.572969)">Median Elapsed Time (nanoseconds)</text>
    </g>
   </g>
   <g id="line2d_20">
    <path d="M 88.662898 403.795663 
L 114.188316 400.789346 
L 165.239154 430.223753 
L 190.764572 390.224096 
L 216.289991 401.339227 
L 241.81541 396.160192 
L 267.340828 399.660241 
L 292.866247 392.462093 
L 318.391666 404.361318 
L 343.917084 391.302079 
L 394.967922 396.682561 
L 420.49334 387.820835 
L 446.018759 394.856482 
L 471.544178 386.530726 
L 497.069596 407.943233 
L 548.120434 393.236916 
L 573.645852 403.094942 
" clip-path="url(#p7ade83e3c0)" style="fill: none; stroke: #1f77b4; stroke-width: 2; stroke-linecap: square"/>
    <defs>
     <path id="m2d03c74bae" d="M 0 3 
C 0.795609 3 1.55874 2.683901 2.12132 2.12132 
C 2.683901 1.55874 3 0.795609 3 0 
C 3 -0.795609 2.683901 -1.55874 2.12132 -2.12132 
C 1.55874 -2.683901 0.795609 -3 0 -3 
C -0.795609 -3 -1.55874 -2.683901 -2.12132 -2.12132 
C -2.683901 -1.55874 -3 -0.795609 -3 0 
C -3 0.795609 -2.683901 1.55874 -2.12132 2.12132 
C -1.55874 2.683901 -0.795609 3 0 3 
z
" style="stroke: #1f77b4"/>
    </defs>
    <g clip-path="url(#p7ade83e3c0)">
     <use xlink:href="#m2d03c74bae" x="88.662898" y="403.795663" style="fill: #1f77b4; stroke: #1f77b4"/>
     <use xlink:href="#m2d03c74bae" x="114.188316" y="400.789346" style="fill: #1f77b4; stroke: #1f77b4"/>
     <use xlink:href="#m2d03c74bae" x="165.239154" y="430.223753" style="fill: #1f77b4; stroke: #1f77b4"/>
     <use xlink:href="#m2d03c74bae" x="190.764572" y="390.224096" style="fill: #1f77b4; stroke: #1f77b4"/>
     <use xlink:href="#m2d03c74bae" x="216.289991" y="401.339227" style="fill: #1f77b4; stroke: #1f77b4"/>
     <use xlink:href="#m2d03c74bae" x="241.81541" y="396.160192" style="fill: #1f77b4; stroke: #1f77b4"/>
     <use xlink:href="#m2d03c74bae" x="267.340828" y="399.660241" style="fill: #1f77b4; stroke: #1f77b4"/>
     <use xlink:href="#m2d03c74bae" x="292.866247" y="392.462093" style="fill: #1f77b4; stroke: #1f77b4"/>
     <use xlink:href="#m2d03c74bae" x="318.391666" y="404.361318" style="fill: #1f77b4; stroke: #1f77b4"/>
     <use xlink:href="#m2d03c74bae" x="343.917084" y="391.302079" style="fill: #1f77b4; stroke: #1f77b4"/>
     <use xlink:href="#m2d03c74bae" x="394.967922" y="396.682561" style="fill: #1f77b4; stroke: #1f77b4"/>
     <use xlink:href="#m2d03c74bae" x="420.49334" y="387.820835" style="fill: #1f77b4; stroke: #1f77b4"/>
     <use xlink:href="#m2d03c74bae" x="446.018759" y="394.856482" style="fill: #1f77b4; stroke: #1f77b4"/>
     <use xlink:href="#m2d03c74bae" x="471.544178" y="386.530726" style="fill: #1f77b4; stroke: #1f77b4"/>
     <use xlink:href="#m2d03c74bae" x="497.069596" y="407.943233" style="fill: #1f77b4; stroke: #1f77b4"/>
     <use xlink:href="#m2d03c74bae" x="548.120434" y="393.236916" style="fill: #1f77b4; stroke: #1f77b4"/>
     <use xlink:href="#m2d03c74bae" x="573.645852" y="403.094942" style="fill: #1f77b4; stroke: #1f77b4"/>
    </g>
   </g>
   <g id="line2d_21">
    <path d="M 88.662898 462.521588 
L 114.188316 474.44824 
L 165.239154 488.172749 
L 190.764572 487.421305 
L 216.289991 462.36442 
L 241.81541 461.806985 
L 267.340828 468.375247 
L 292.866247 464.804346 
L 318.391666 465.156093 
L 343.917084 459.555379 
L 394.967922 463.282969 
L 420.49334 450.498051 
L 446.018759 457.706371 
L 471.544178 487.035204 
L 497.069596 469.277434 
L 548.120434 450.335515 
L 573.645852 506.332202 
" clip-path="url(#p7ade83e3c0)" style="fill: none; stroke: #ff7f0e; stroke-width: 2; stroke-linecap: square"/>
    <defs>
     <path id="md7192dd70c" d="M 0 3 
C 0.795609 3 1.55874 2.683901 2.12132 2.12132 
C 2.683901 1.55874 3 0.795609 3 0 
C 3 -0.795609 2.683901 -1.55874 2.12132 -2.12132 
C 1.55874 -2.683901 0.795609 -3 0 -3 
C -0.795609 -3 -1.55874 -2.683901 -2.12132 -2.12132 
C -2.683901 -1.55874 -3 -0.795609 -3 0 
C -3 0.795609 -2.683901 1.55874 -2.12132 2.12132 
C -1.55874 2.683901 -0.795609 3 0 3 
z
" style="stroke: #ff7f0e"/>
    </defs>
    <g clip-path="url(#p7ade83e3c0)">
     <use xlink:href="#md7192dd70c" x="88.662898" y="462.521588" style="fill: #ff7f0e; stroke: #ff7f0e"/>
     <use xlink:href="#md7192dd70c" x="114.188316" y="474.44824" style="fill: #ff7f0e; stroke: #ff7f0e"/>
     <use xlink:href="#md7192dd70c" x="165.239154" y="488.172749" style="fill: #ff7f0e; stroke: #ff7f0e"/>
     <use xlink:href="#md7192dd70c" x="190.764572" y="487.421305" style="fill: #ff7f0e; stroke: #ff7f0e"/>
     <use xlink:href="#md7192dd70c" x="216.289991" y="462.36442" style="fill: #ff7f0e; stroke: #ff7f0e"/>
     <use xlink:href="#md7192dd70c" x="241.81541" y="461.806985" style="fill: #ff7f0e; stroke: #ff7f0e"/>
     <use xlink:href="#md7192dd70c" x="267.340828" y="468.375247" style="fill: #ff7f0e; stroke: #ff7f0e"/>
     <use xlink:href="#md7192dd70c" x="292.866247" y="464.804346" style="fill: #ff7f0e; stroke: #ff7f0e"/>
     <use xlink:href="#md7192dd70c" x="318.391666" y="465.156093" style="fill: #ff7f0e; stroke: #ff7f0e"/>
     <use xlink:href="#md7192dd70c" x="343.917084" y="459.555379" style="fill: #ff7f0e; stroke: #ff7f0e"/>
     <use xlink:href="#md7192dd70c" x="394.967922" y="463.282969" style="fill: #ff7f0e; stroke: #ff7f0e"/>
     <use xlink:href="#md7192dd70c" x="420.49334" y="450.498051" style="fill: #ff7f0e; stroke: #ff7f0e"/>
     <use xlink:href="#md7192dd70c" x="446.018759" y="457.706371" style="fill: #ff7f0e; stroke: #ff7f0e"/>
     <use xlink:href="#md7192dd70c" x="471.544178" y="487.035204" style="fill: #ff7f0e; stroke: #ff7f0e"/>
     <use xlink:href="#md7192dd70c" x="497.069596" y="469.277434" style="fill: #ff7f0e; stroke: #ff7f0e"/>
     <use xlink:href="#md7192dd70c" x="548.120434" y="450.335515" style="fill: #ff7f0e; stroke: #ff7f0e"/>
     <use xlink:href="#md7192dd70c" x="573.645852" y="506.332202" style="fill: #ff7f0e; stroke: #ff7f0e"/>
    </g>
   </g>
   <g id="line2d_22">
    <path d="M 88.662898 334.347938 
L 114.188316 306.154555 
L 165.239154 294.862701 
L 190.764572 272.259674 
L 216.289991 311.88982 
L 241.81541 296.47957 
L 267.340828 296.372143 
L 292.866247 306.228204 
L 318.391666 317.292857 
L 343.917084 287.146638 
L 394.967922 311.040313 
L 420.49334 279.292061 
L 446.018759 318.367736 
L 471.544178 270.730411 
L 497.069596 284.388417 
L 548.120434 284.402575 
L 573.645852 284.395351 
" clip-path="url(#p7ade83e3c0)" style="fill: none; stroke: #2ca02c; stroke-width: 2; stroke-linecap: square"/>
    <defs>
     <path id="mc833160d42" d="M 0 3 
C 0.795609 3 1.55874 2.683901 2.12132 2.12132 
C 2.683901 1.55874 3 0.795609 3 0 
C 3 -0.795609 2.683901 -1.55874 2.12132 -2.12132 
C 1.55874 -2.683901 0.795609 -3 0 -3 
C -0.795609 -3 -1.55874 -2.683901 -2.12132 -2.12132 
C -2.683901 -1.55874 -3 -0.795609 -3 0 
C -3 0.795609 -2.683901 1.55874 -2.12132 2.12132 
C -1.55874 2.683901 -0.795609 3 0 3 
z
" style="stroke: #2ca02c"/>
    </defs>
    <g clip-path="url(#p7ade83e3c0)">
     <use xlink:href="#mc833160d42" x="88.662898" y="334.347938" style="fill: #2ca02c; stroke: #2ca02c"/>
     <use xlink:href="#mc833160d42" x="114.188316" y="306.154555" style="fill: #2ca02c; stroke: #2ca02c"/>
     <use xlink:href="#mc833160d42" x="165.239154" y="294.862701" style="fill: #2ca02c; stroke: #2ca02c"/>
     <use xlink:href="#mc833160d42" x="190.764572" y="272.259674" style="fill: #2ca02c; stroke: #2ca02c"/>
     <use xlink:href="#mc833160d42" x="216.289991" y="311.88982" style="fill: #2ca02c; stroke: #2ca02c"/>
     <use xlink:href="#mc833160d42" x="241.81541" y="296.47957" style="fill: #2ca02c; stroke: #2ca02c"/>
     <use xlink:href="#mc833160d42" x="267.340828" y="296.372143" style="fill: #2ca02c; stroke: #2ca02c"/>
     <use xlink:href="#mc833160d42" x="292.866247" y="306.228204" style="fill: #2ca02c; stroke: #2ca02c"/>
     <use xlink:href="#mc833160d42" x="318.391666" y="317.292857" style="fill: #2ca02c; stroke: #2ca02c"/>
     <use xlink:href="#mc833160d42" x="343.917084" y="287.146638" style="fill: #2ca02c; stroke: #2ca02c"/>
     <use xlink:href="#mc833160d42" x="394.967922" y="311.040313" style="fill: #2ca02c; stroke: #2ca02c"/>
     <use xlink:href="#mc833160d42" x="420.49334" y="279.292061" style="fill: #2ca02c; stroke: #2ca02c"/>
     <use xlink:href="#mc833160d42" x="446.018759" y="318.367736" style="fill: #2ca02c; stroke: #2ca02c"/>
     <use xlink:href="#mc833160d42" x="471.544178" y="270.730411" style="fill: #2ca02c; stroke: #2ca02c"/>
     <use xlink:href="#mc833160d42" x="497.069596" y="284.388417" style="fill: #2ca02c; stroke: #2ca02c"/>
     <use xlink:href="#mc833160d42" x="548.120434" y="284.402575" style="fill: #2ca02c; stroke: #2ca02c"/>
     <use xlink:href="#mc833160d42" x="573.645852" y="284.395351" style="fill: #2ca02c; stroke: #2ca02c"/>
    </g>
   </g>
   <g id="line2d_23">
    <path d="M 88.662898 396.04583 
L 114.188316 366.658358 
L 165.239154 400.143265 
L 190.764572 387.627214 
L 216.289991 382.388902 
L 241.81541 362.42402 
L 267.340828 365.625111 
L 292.866247 365.952531 
L 318.391666 385.315308 
L 343.917084 353.027331 
L 394.967922 385.401672 
L 420.49334 374.340335 
L 446.018759 379.769612 
L 471.544178 380.799315 
L 497.069596 361.420273 
L 548.120434 379.757128 
L 573.645852 394.877349 
" clip-path="url(#p7ade83e3c0)" style="fill: none; stroke: #d62728; stroke-width: 2; stroke-linecap: square"/>
    <defs>
     <path id="mbaa21a45fb" d="M 0 3 
C 0.795609 3 1.55874 2.683901 2.12132 2.12132 
C 2.683901 1.55874 3 0.795609 3 0 
C 3 -0.795609 2.683901 -1.55874 2.12132 -2.12132 
C 1.55874 -2.683901 0.795609 -3 0 -3 
C -0.795609 -3 -1.55874 -2.683901 -2.12132 -2.12132 
C -2.683901 -1.55874 -3 -0.795609 -3 0 
C -3 0.795609 -2.683901 1.55874 -2.12132 2.12132 
C -1.55874 2.683901 -0.795609 3 0 3 
z
" style="stroke: #d62728"/>
    </defs>
    <g clip-path="url(#p7ade83e3c0)">
     <use xlink:href="#mbaa21a45fb" x="88.662898" y="396.04583" style="fill: #d62728; stroke: #d62728"/>
     <use xlink:href="#mbaa21a45fb" x="114.188316" y="366.658358" style="fill: #d62728; stroke: #d62728"/>
     <use xlink:href="#mbaa21a45fb" x="165.239154" y="400.143265" style="fill: #d62728; stroke: #d62728"/>
     <use xlink:href="#mbaa21a45fb" x="190.764572" y="387.627214" style="fill: #d62728; stroke: #d62728"/>
     <use xlink:href="#mbaa21a45fb" x="216.289991" y="382.388902" style="fill: #d62728; stroke: #d62728"/>
     <use xlink:href="#mbaa21a45fb" x="241.81541" y="362.42402" style="fill: #d62728; stroke: #d62728"/>
     <use xlink:href="#mbaa21a45fb" x="267.340828" y="365.625111" style="fill: #d62728; stroke: #d62728"/>
     <use xlink:href="#mbaa21a45fb" x="292.866247" y="365.952531" style="fill: #d62728; stroke: #d62728"/>
     <use xlink:href="#mbaa21a45fb" x="318.391666" y="385.315308" style="fill: #d62728; stroke: #d62728"/>
     <use xlink:href="#mbaa21a45fb" x="343.917084" y="353.027331" style="fill: #d62728; stroke: #d62728"/>
     <use xlink:href="#mbaa21a45fb" x="394.967922" y="385.401672" style="fill: #d62728; stroke: #d62728"/>
     <use xlink:href="#mbaa21a45fb" x="420.49334" y="374.340335" style="fill: #d62728; stroke: #d62728"/>
     <use xlink:href="#mbaa21a45fb" x="446.018759" y="379.769612" style="fill: #d62728; stroke: #d62728"/>
     <use xlink:href="#mbaa21a45fb" x="471.544178" y="380.799315" style="fill: #d62728; stroke: #d62728"/>
     <use xlink:href="#mbaa21a45fb" x="497.069596" y="361.420273" style="fill: #d62728; stroke: #d62728"/>
     <use xlink:href="#mbaa21a45fb" x="548.120434" y="379.757128" style="fill: #d62728; stroke: #d62728"/>
     <use xlink:href="#mbaa21a45fb" x="573.645852" y="394.877349" style="fill: #d62728; stroke: #d62728"/>
    </g>
   </g>
   <g id="line2d_24">
    <path d="M 88.662898 429.00595 
L 114.188316 202.366497 
L 165.239154 411.123658 
L 190.764572 46.813736 
L 216.289991 405.772894 
L 241.81541 418.437656 
L 267.340828 395.31586 
L 292.866247 420.691997 
L 318.391666 385.516065 
L 343.917084 396.729886 
L 394.967922 412.200785 
L 420.49334 211.560501 
L 446.018759 394.026419 
L 497.069596 403.977927 
L 573.645852 213.113264 
" clip-path="url(#p7ade83e3c0)" style="fill: none; stroke: #9467bd; stroke-width: 2; stroke-linecap: square"/>
    <defs>
     <path id="m1304d04736" d="M 0 3 
C 0.795609 3 1.55874 2.683901 2.12132 2.12132 
C 2.683901 1.55874 3 0.795609 3 0 
C 3 -0.795609 2.683901 -1.55874 2.12132 -2.12132 
C 1.55874 -2.683901 0.795609 -3 0 -3 
C -0.795609 -3 -1.55874 -2.683901 -2.12132 -2.12132 
C -2.683901 -1.55874 -3 -0.795609 -3 0 
C -3 0.795609 -2.683901 1.55874 -2.12132 2.12132 
C -1.55874 2.683901 -0.795609 3 0 3 
z
" style="stroke: #9467bd"/>
    </defs>
    <g clip-path="url(#p7ade83e3c0)">
     <use xlink:href="#m1304d04736" x="88.662898" y="429.00595" style="fill: #9467bd; stroke: #9467bd"/>
     <use xlink:href="#m1304d04736" x="114.188316" y="202.366497" style="fill: #9467bd; stroke: #9467bd"/>
     <use xlink:href="#m1304d04736" x="165.239154" y="411.123658" style="fill: #9467bd; stroke: #9467bd"/>
     <use xlink:href="#m1304d04736" x="190.764572" y="46.813736" style="fill: #9467bd; stroke: #9467bd"/>
     <use xlink:href="#m1304d04736" x="216.289991" y="405.772894" style="fill: #9467bd; stroke: #9467bd"/>
     <use xlink:href="#m1304d04736" x="241.81541" y="418.437656" style="fill: #9467bd; stroke: #9467bd"/>
     <use xlink:href="#m1304d04736" x="267.340828" y="395.31586" style="fill: #9467bd; stroke: #9467bd"/>
     <use xlink:href="#m1304d04736" x="292.866247" y="420.691997" style="fill: #9467bd; stroke: #9467bd"/>
     <use xlink:href="#m1304d04736" x="318.391666" y="385.516065" style="fill: #9467bd; stroke: #9467bd"/>
     <use xlink:href="#m1304d04736" x="343.917084" y="396.729886" style="fill: #9467bd; stroke: #9467bd"/>
     <use xlink:href="#m1304d04736" x="394.967922" y="412.200785" style="fill: #9467bd; stroke: #9467bd"/>
     <use xlink:href="#m1304d04736" x="420.49334" y="211.560501" style="fill: #9467bd; stroke: #9467bd"/>
     <use xlink:href="#m1304d04736" x="446.018759" y="394.026419" style="fill: #9467bd; stroke: #9467bd"/>
     <use xlink:href="#m1304d04736" x="497.069596" y="403.977927" style="fill: #9467bd; stroke: #9467bd"/>
     <use xlink:href="#m1304d04736" x="573.645852" y="213.113264" style="fill: #9467bd; stroke: #9467bd"/>
    </g>
   </g>
   <g id="line2d_25">
    <path d="M 88.662898 415.289072 
L 114.188316 425.800249 
L 165.239154 421.760241 
L 190.764572 144.806181 
L 216.289991 428.442889 
L 241.81541 431.49475 
L 267.340828 414.342353 
L 292.866247 465.900093 
L 318.391666 421.758682 
L 343.917084 419.22744 
L 394.967922 465.541324 
L 420.49334 407.577 
L 446.018759 451.356219 
L 497.069596 429.541943 
L 573.645852 464.88952 
" clip-path="url(#p7ade83e3c0)" style="fill: none; stroke: #8c564b; stroke-width: 2; stroke-linecap: square"/>
    <defs>
     <path id="ma9d2df6efa" d="M 0 3 
C 0.795609 3 1.55874 2.683901 2.12132 2.12132 
C 2.683901 1.55874 3 0.795609 3 0 
C 3 -0.795609 2.683901 -1.55874 2.12132 -2.12132 
C 1.55874 -2.683901 0.795609 -3 0 -3 
C -0.795609 -3 -1.55874 -2.683901 -2.12132 -2.12132 
C -2.683901 -1.55874 -3 -0.795609 -3 0 
C -3 0.795609 -2.683901 1.55874 -2.12132 2.12132 
C -1.55874 2.683901 -0.795609 3 0 3 
z
" style="stroke: #8c564b"/>
    </defs>
    <g clip-path="url(#p7ade83e3c0)">
     <use xlink:href="#ma9d2df6efa" x="88.662898" y="415.289072" style="fill: #8c564b; stroke: #8c564b"/>
     <use xlink:href="#ma9d2df6efa" x="114.188316" y="425.800249" style="fill: #8c564b; stroke: #8c564b"/>
     <use xlink:href="#ma9d2df6efa" x="165.239154" y="421.760241" style="fill: #8c564b; stroke: #8c564b"/>
     <use xlink:href="#ma9d2df6efa" x="190.764572" y="144.806181" style="fill: #8c564b; stroke: #8c564b"/>
     <use xlink:href="#ma9d2df6efa" x="216.289991" y="428.442889" style="fill: #8c564b; stroke: #8c564b"/>
     <use xlink:href="#ma9d2df6efa" x="241.81541" y="431.49475" style="fill: #8c564b; stroke: #8c564b"/>
     <use xlink:href="#ma9d2df6efa" x="267.340828" y="414.342353" style="fill: #8c564b; stroke: #8c564b"/>
     <use xlink:href="#ma9d2df6efa" x="292.866247" y="465.900093" style="fill: #8c564b; stroke: #8c564b"/>
     <use xlink:href="#ma9d2df6efa" x="318.391666" y="421.758682" style="fill: #8c564b; stroke: #8c564b"/>
     <use xlink:href="#ma9d2df6efa" x="343.917084" y="419.22744" style="fill: #8c564b; stroke: #8c564b"/>
     <use xlink:href="#ma9d2df6efa" x="394.967922" y="465.541324" style="fill: #8c564b; stroke: #8c564b"/>
     <use xlink:href="#ma9d2df6efa" x="420.49334" y="407.577" style="fill: #8c564b; stroke: #8c564b"/>
     <use xlink:href="#ma9d2df6efa" x="446.018759" y="451.356219" style="fill: #8c564b; stroke: #8c564b"/>
     <use xlink:href="#ma9d2df6efa" x="497.069596" y="429.541943" style="fill: #8c564b; stroke: #8c564b"/>
     <use xlink:href="#ma9d2df6efa" x="573.645852" y="464.88952" style="fill: #8c564b; stroke: #8c564b"/>
    </g>
   </g>
   <g id="line2d_26">
    <path d="M 88.662898 407.058308 
L 114.188316 368.403564 
L 165.239154 390.731734 
L 190.764572 359.700842 
L 216.289991 367.343809 
L 241.81541 413.133887 
L 267.340828 394.821504 
L 292.866247 367.480402 
L 318.391666 397.250514 
L 343.917084 388.379757 
L 394.967922 371.565815 
L 420.49334 419.15727 
L 446.018759 371.92968 
L 497.069596 372.123671 
L 573.645852 371.374635 
" clip-path="url(#p7ade83e3c0)" style="fill: none; stroke: #e377c2; stroke-width: 2; stroke-linecap: square"/>
    <defs>
     <path id="m3be2c258e1" d="M 0 3 
C 0.795609 3 1.55874 2.683901 2.12132 2.12132 
C 2.683901 1.55874 3 0.795609 3 0 
C 3 -0.795609 2.683901 -1.55874 2.12132 -2.12132 
C 1.55874 -2.683901 0.795609 -3 0 -3 
C -0.795609 -3 -1.55874 -2.683901 -2.12132 -2.12132 
C -2.683901 -1.55874 -3 -0.795609 -3 0 
C -3 0.795609 -2.683901 1.55874 -2.12132 2.12132 
C -1.55874 2.683901 -0.795609 3 0 3 
z
" style="stroke: #e377c2"/>
    </defs>
    <g clip-path="url(#p7ade83e3c0)">
     <use xlink:href="#m3be2c258e1" x="88.662898" y="407.058308" style="fill: #e377c2; stroke: #e377c2"/>
     <use xlink:href="#m3be2c258e1" x="114.188316" y="368.403564" style="fill: #e377c2; stroke: #e377c2"/>
     <use xlink:href="#m3be2c258e1" x="165.239154" y="390.731734" style="fill: #e377c2; stroke: #e377c2"/>
     <use xlink:href="#m3be2c258e1" x="190.764572" y="359.700842" style="fill: #e377c2; stroke: #e377c2"/>
     <use xlink:href="#m3be2c258e1" x="216.289991" y="367.343809" style="fill: #e377c2; stroke: #e377c2"/>
     <use xlink:href="#m3be2c258e1" x="241.81541" y="413.133887" style="fill: #e377c2; stroke: #e377c2"/>
     <use xlink:href="#m3be2c258e1" x="267.340828" y="394.821504" style="fill: #e377c2; stroke: #e377c2"/>
     <use xlink:href="#m3be2c258e1" x="292.866247" y="367.480402" style="fill: #e377c2; stroke: #e377c2"/>
     <use xlink:href="#m3be2c258e1" x="318.391666" y="397.250514" style="fill: #e377c2; stroke: #e377c2"/>
     <use xlink:href="#m3be2c258e1" x="343.917084" y="388.379757" style="fill: #e377c2; stroke: #e377c2"/>
     <use xlink:href="#m3be2c258e1" x="394.967922" y="371.565815" style="fill: #e377c2; stroke: #e377c2"/>
     <use xlink:href="#m3be2c258e1" x="420.49334" y="419.15727" style="fill: #e377c2; stroke: #e377c2"/>
     <use xlink:href="#m3be2c258e1" x="446.018759" y="371.92968" style="fill: #e377c2; stroke: #e377c2"/>
     <use xlink:href="#m3be2c258e1" x="497.069596" y="372.123671" style="fill: #e377c2; stroke: #e377c2"/>
     <use xlink:href="#m3be2c258e1" x="573.645852" y="371.374635" style="fill: #e377c2; stroke: #e377c2"/>
    </g>
   </g>
   <g id="line2d_27">
    <path d="M 88.662898 417.819334 
L 114.188316 377.198261 
L 165.239154 398.387409 
L 190.764572 374.49193 
L 216.289991 375.163117 
L 241.81541 421.937968 
L 267.340828 411.33194 
L 292.866247 385.042144 
L 318.391666 407.021959 
L 343.917084 397.915514 
L 394.967922 386.145171 
L 420.49334 424.933947 
L 446.018759 396.120345 
L 497.069596 394.328937 
L 573.645852 391.227616 
" clip-path="url(#p7ade83e3c0)" style="fill: none; stroke: #7f7f7f; stroke-width: 2; stroke-linecap: square"/>
    <defs>
     <path id="m413f79fa0d" d="M 0 3 
C 0.795609 3 1.55874 2.683901 2.12132 2.12132 
C 2.683901 1.55874 3 0.795609 3 0 
C 3 -0.795609 2.683901 -1.55874 2.12132 -2.12132 
C 1.55874 -2.683901 0.795609 -3 0 -3 
C -0.795609 -3 -1.55874 -2.683901 -2.12132 -2.12132 
C -2.683901 -1.55874 -3 -0.795609 -3 0 
C -3 0.795609 -2.683901 1.55874 -2.12132 2.12132 
C -1.55874 2.683901 -0.795609 3 0 3 
z
" style="stroke: #7f7f7f"/>
    </defs>
    <g clip-path="url(#p7ade83e3c0)">
     <use xlink:href="#m413f79fa0d" x="88.662898" y="417.819334" style="fill: #7f7f7f; stroke: #7f7f7f"/>
     <use xlink:href="#m413f79fa0d" x="114.188316" y="377.198261" style="fill: #7f7f7f; stroke: #7f7f7f"/>
     <use xlink:href="#m413f79fa0d" x="165.239154" y="398.387409" style="fill: #7f7f7f; stroke: #7f7f7f"/>
     <use xlink:href="#m413f79fa0d" x="190.764572" y="374.49193" style="fill: #7f7f7f; stroke: #7f7f7f"/>
     <use xlink:href="#m413f79fa0d" x="216.289991" y="375.163117" style="fill: #7f7f7f; stroke: #7f7f7f"/>
     <use xlink:href="#m413f79fa0d" x="241.81541" y="421.937968" style="fill: #7f7f7f; stroke: #7f7f7f"/>
     <use xlink:href="#m413f79fa0d" x="267.340828" y="411.33194" style="fill: #7f7f7f; stroke: #7f7f7f"/>
     <use xlink:href="#m413f79fa0d" x="292.866247" y="385.042144" style="fill: #7f7f7f; stroke: #7f7f7f"/>
     <use xlink:href="#m413f79fa0d" x="318.391666" y="407.021959" style="fill: #7f7f7f; stroke: #7f7f7f"/>
     <use xlink:href="#m413f79fa0d" x="343.917084" y="397.915514" style="fill: #7f7f7f; stroke: #7f7f7f"/>
     <use xlink:href="#m413f79fa0d" x="394.967922" y="386.145171" style="fill: #7f7f7f; stroke: #7f7f7f"/>
     <use xlink:href="#m413f79fa0d" x="420.49334" y="424.933947" style="fill: #7f7f7f; stroke: #7f7f7f"/>
     <use xlink:href="#m413f79fa0d" x="446.018759" y="396.120345" style="fill: #7f7f7f; stroke: #7f7f7f"/>
     <use xlink:href="#m413f79fa0d" x="497.069596" y="394.328937" style="fill: #7f7f7f; stroke: #7f7f7f"/>
     <use xlink:href="#m413f79fa0d" x="573.645852" y="391.227616" style="fill: #7f7f7f; stroke: #7f7f7f"/>
    </g>
   </g>
   <g id="patch_3">
    <path d="M 64.41375 529.308125 
L 64.41375 23.837812 
" style="fill: none; stroke: #000000; stroke-width: 0.8; stroke-linejoin: miter; stroke-linecap: square"/>
   </g>
   <g id="patch_4">
    <path d="M 597.895 529.308125 
L 597.895 23.837812 
" style="fill: none; stroke: #000000; stroke-width: 0.8; stroke-linejoin: miter; stroke-linecap: square"/>
   </g>
   <g id="patch_5">
    <path d="M 64.41375 529.308125 
L 597.895 529.308125 
" style="fill: none; stroke: #000000; stroke-width: 0.8; stroke-linejoin: miter; stroke-linecap: square"/>
   </g>
   <g id="patch_6">
    <path d="M 64.41375 23.837812 
L 597.895 23.837812 
" style="fill: none; stroke: #000000; stroke-width: 0.8; stroke-linejoin: miter; stroke-linecap: square"/>
   </g>
   <g id="text_14">
    <text style="font: 700 14px 'DejaVu Sans', 'Bitstream Vera Sans', 'Computer Modern Sans Serif', 'Lucida Grande', 'Verdana', 'Geneva', 'Lucid', 'Arial', 'Helvetica', 'Avant Garde', sans-serif; text-anchor: middle" x="331.154375" y="17.837813" transform="rotate(-0 331.154375 17.837813)">Coroutine Submission - Performance Trend</text>
   </g>
   <g id="legend_1">
    <g id="patch_7">
     <path d="M 631.569062 151.487813 
L 840.794062 151.487813 
Q 842.794062 151.487813 842.794062 149.487813 
L 842.794062 30.837813 
Q 842.794062 28.837813 840.794062 28.837813 
L 631.569062 28.837813 
Q 629.569062 28.837813 629.569062 30.837813 
L 629.569062 149.487813 
Q 629.569062 151.487813 631.569062 151.487813 
z
" style="fill: #ffffff; opacity: 0.8; stroke: #cccccc; stroke-linejoin: miter"/>
    </g>
    <g id="line2d_28">
     <path d="M 633.569062 36.93625 
L 643.569062 36.93625 
L 653.569062 36.93625 
" style="fill: none; stroke: #1f77b4; stroke-width: 2; stroke-linecap: square"/>
     <g>
      <use xlink:href="#m2d03c74bae" x="643.569062" y="36.93625" style="fill: #1f77b4; stroke: #1f77b4"/>
     </g>
    </g>
    <g id="text_15">
     <text style="font: 10px 'DejaVu Sans', 'Bitstream Vera Sans', 'Computer Modern Sans Serif', 'Lucida Grande', 'Verdana', 'Geneva', 'Lucid', 'Arial', 'Helvetica', 'Avant Garde', sans-serif; text-anchor: start" x="661.569062" y="40.43625" transform="rotate(-0 661.569062 40.43625)">gcc-14.2 - CoroutineSubmission_V1</text>
    </g>
    <g id="line2d_29">
     <path d="M 633.569062 51.8925 
L 643.569062 51.8925 
L 653.569062 51.8925 
" style="fill: none; stroke: #ff7f0e; stroke-width: 2; stroke-linecap: square"/>
     <g>
      <use xlink:href="#md7192dd70c" x="643.569062" y="51.8925" style="fill: #ff7f0e; stroke: #ff7f0e"/>
     </g>
    </g>
    <g id="text_16">
     <text style="font: 10px 'DejaVu Sans', 'Bitstream Vera Sans', 'Computer Modern Sans Serif', 'Lucida Grande', 'Verdana', 'Geneva', 'Lucid', 'Arial', 'Helvetica', 'Avant Garde', sans-serif; text-anchor: start" x="661.569062" y="55.3925" transform="rotate(-0 661.569062 55.3925)">gcc-14.2 - LambdaSubmission_V1</text>
    </g>
    <g id="line2d_30">
     <path d="M 633.569062 66.84875 
L 643.569062 66.84875 
L 653.569062 66.84875 
" style="fill: none; stroke: #2ca02c; stroke-width: 2; stroke-linecap: square"/>
     <g>
      <use xlink:href="#mc833160d42" x="643.569062" y="66.84875" style="fill: #2ca02c; stroke: #2ca02c"/>
     </g>
    </g>
    <g id="text_17">
     <text style="font: 10px 'DejaVu Sans', 'Bitstream Vera Sans', 'Computer Modern Sans Serif', 'Lucida Grande', 'Verdana', 'Geneva', 'Lucid', 'Arial', 'Helvetica', 'Avant Garde', sans-serif; text-anchor: start" x="661.569062" y="70.34875" transform="rotate(-0 661.569062 70.34875)">gcc-14.2 - CoroutineSubmission_V2</text>
    </g>
    <g id="line2d_31">
     <path d="M 633.569062 81.805 
L 643.569062 81.805 
L 653.569062 81.805 
" style="fill: none; stroke: #d62728; stroke-width: 2; stroke-linecap: square"/>
     <g>
      <use xlink:href="#mbaa21a45fb" x="643.569062" y="81.805" style="fill: #d62728; stroke: #d62728"/>
     </g>
    </g>
    <g id="text_18">
     <text style="font: 10px 'DejaVu Sans', 'Bitstream Vera Sans', 'Computer Modern Sans Serif', 'Lucida Grande', 'Verdana', 'Geneva', 'Lucid', 'Arial', 'Helvetica', 'Avant Garde', sans-serif; text-anchor: start" x="661.569062" y="85.305" transform="rotate(-0 661.569062 85.305)">gcc-14.2 - LambdaSubmission_V2</text>
    </g>
    <g id="line2d_32">
     <path d="M 633.569062 96.76125 
L 643.569062 96.76125 
L 653.569062 96.76125 
" style="fill: none; stroke: #9467bd; stroke-width: 2; stroke-linecap: square"/>
     <g>
      <use xlink:href="#m1304d04736" x="643.569062" y="96.76125" style="fill: #9467bd; stroke: #9467bd"/>
     </g>
    </g>
    <g id="text_19">
     <text style="font: 10px 'DejaVu Sans', 'Bitstream Vera Sans', 'Computer Modern Sans Serif', 'Lucida Grande', 'Verdana', 'Geneva', 'Lucid', 'Arial', 'Helvetica', 'Avant Garde', sans-serif; text-anchor: start" x="661.569062" y="100.26125" transform="rotate(-0 661.569062 100.26125)">gcc-4.2 - CoroutineSubmission_V1</text>
    </g>
    <g id="line2d_33">
     <path d="M 633.569062 111.7175 
L 643.569062 111.7175 
L 653.569062 111.7175 
" style="fill: none; stroke: #8c564b; stroke-width: 2; stroke-linecap: square"/>
     <g>
      <use xlink:href="#ma9d2df6efa" x="643.569062" y="111.7175" style="fill: #8c564b; stroke: #8c564b"/>
     </g>
    </g>
    <g id="text_20">
     <text style="font: 10px 'DejaVu Sans', 'Bitstream Vera Sans', 'Computer Modern Sans Serif', 'Lucida Grande', 'Verdana', 'Geneva', 'Lucid', 'Arial', 'Helvetica', 'Avant Garde', sans-serif; text-anchor: start" x="661.569062" y="115.2175" transform="rotate(-0 661.569062 115.2175)">gcc-4.2 - LambdaSubmission_V1</text>
    </g>
    <g id="line2d_34">
     <path d="M 633.569062 126.67375 
L 643.569062 126.67375 
L 653.569062 126.67375 
" style="fill: none; stroke: #e377c2; stroke-width: 2; stroke-linecap: square"/>
     <g>
      <use xlink:href="#m3be2c258e1" x="643.569062" y="126.67375" style="fill: #e377c2; stroke: #e377c2"/>
     </g>
    </g>
    <g id="text_21">
     <text style="font: 10px 'DejaVu Sans', 'Bitstream Vera Sans', 'Computer Modern Sans Serif', 'Lucida Grande', 'Verdana', 'Geneva', 'Lucid', 'Arial', 'Helvetica', 'Avant Garde', sans-serif; text-anchor: start" x="661.569062" y="130.17375" transform="rotate(-0 661.569062 130.17375)">gcc-4.2 - CoroutineSubmission_V2</text>
    </g>
    <g id="line2d_35">
     <path d="M 633.569062 141.63 
L 643.569062 141.63 
L 653.569062 141.63 
" style="fill: none; stroke: #7f7f7f; stroke-width: 2; stroke-linecap: square"/>
     <g>
      <use xlink:href="#m413f79fa0d" x="643.569062" y="141.63" style="fill: #7f7f7f; stroke: #7f7f7f"/>
     </g>
    </g>
    <g id="text_22">
     <text style="font: 10px 'DejaVu Sans', 'Bitstream Vera Sans', 'Computer Modern Sans Serif', 'Lucida Grande', 'Verdana', 'Geneva', 'Lucid', 'Arial', 'Helvetica', 'Avant Garde', sans-serif; text-anchor: start" x="661.569062" y="145.13" transform="rotate(-0 661.569062 145.13)">gcc-4.2 - LambdaSubmission_V2</text>
    </g>
   </g>
  </g>
 </g>
 <defs>
  <clipPath id="p7ade83e3c0">
   <rect x="64.41375" y="23.837813" width="533.48125" height="505.470313"/>
  </clipPath>
 </defs>
</svg>
