<?xml version="1.0" encoding="utf-8" standalone="no"?>
<!DOCTYPE svg PUBLIC "-//W3C//DTD SVG 1.1//EN"
  "http://www.w3.org/Graphics/SVG/1.1/DTD/svg11.dtd">
<svg xmlns:xlink="http://www.w3.org/1999/xlink" width="856.204141pt" height="568.8pt" viewBox="0 0 856.204141 568.8" xmlns="http://www.w3.org/2000/svg" version="1.1">
 <metadata>
  <rdf:RDF xmlns:dc="http://purl.org/dc/elements/1.1/" xmlns:cc="http://creativecommons.org/ns#" xmlns:rdf="http://www.w3.org/1999/02/22-rdf-syntax-ns#">
   <cc:Work>
    <dc:type rdf:resource="http://purl.org/dc/dcmitype/StillImage"/>
    <dc:date>2026-06-06T05:47:03.062163</dc:date>
    <dc:format>image/svg+xml</dc:format>
    <dc:creator>
     <cc:Agent>
      <dc:title>Matplotlib v3.9.4, https://matplotlib.org/</dc:title>
     </cc:Agent>
    </dc:creator>
   </cc:Work>
  </rdf:RDF>
 </metadata>
 <defs>
  <style type="text/css">*{stroke-linejoin: round; stroke-linecap: butt}</style>
 </defs>
 <g id="figure_1">
  <g id="patch_1">
   <path d="M 0 568.8 
L 856.204141 568.8 
L 856.204141 0 
L 0 0 
z
" style="fill: #ffffff"/>
  </g>
  <g id="axes_1">
   <g id="patch_2">
    <path d="M 74.01375 529.308125 
L 731.696563 529.308125 
L 731.696563 23.837812 
L 74.01375 23.837812 
z
" style="fill: #ffffff"/>
   </g>
   <g id="matplotlib.axis_1">
    <g id="xtick_1">
     <g id="line2d_1">
      <path d="M 93.419064 529.308125 
L 93.419064 23.837812 
" clip-path="url(#p479420a997)" style="fill: none; stroke: #b0b0b0; stroke-opacity: 0.3; stroke-width: 0.8; stroke-linecap: square"/>
     </g>
     <g id="line2d_2">
      <defs>
       <path id="m487965e02e" d="M 0 0 
L 0 3.5 
" style="stroke: #000000; stroke-width: 0.8"/>
      </defs>
      <g>
       <use xlink:href="#m487965e02e" x="93.419064" y="529.308125" style="stroke: #000000; stroke-width: 0.8"/>
      </g>
     </g>
     <g id="text_1">
      <text style="font: 10px 'DejaVu Sans', 'Bitstream Vera Sans', 'Computer Modern Sans Serif', 'Lucida Grande', 'Verdana', 'Geneva', 'Lucid', 'Arial', 'Helvetica', 'Avant Garde', sans-serif; text-anchor: middle" x="93.419064" y="543.906563" transform="rotate(-0 93.419064 543.906563)">70</text>
     </g>
    </g>
    <g id="xtick_2">
     <g id="line2d_3">
      <path d="M 198.312655 529.308125 
L 198.312655 23.837812 
" clip-path="url(#p479420a997)" style="fill: none; stroke: #b0b0b0; stroke-opacity: 0.3; stroke-width: 0.8; stroke-linecap: square"/>
     </g>
     <g id="line2d_4">
      <g>
       <use xlink:href="#m487965e02e" x="198.312655" y="529.308125" style="stroke: #000000; stroke-width: 0.8"/>
      </g>
     </g>
     <g id="text_2">
      <text style="font: 10px 'DejaVu Sans', 'Bitstream Vera Sans', 'Computer Modern Sans Serif', 'Lucida Grande', 'Verdana', 'Geneva', 'Lucid', 'Arial', 'Helvetica', 'Avant Garde', sans-serif; text-anchor: middle" x="198.312655" y="543.906563" transform="rotate(-0 198.312655 543.906563)">80</text>
     </g>
    </g>
    <g id="xtick_3">
     <g id="line2d_5">
      <path d="M 303.206245 529.308125 
L 303.206245 23.837812 
" clip-path="url(#p479420a997)" style="fill: none; stroke: #b0b0b0; stroke-opacity: 0.3; stroke-width: 0.8; stroke-linecap: square"/>
     </g>
     <g id="line2d_6">
      <g>
       <use xlink:href="#m487965e02e" x="303.206245" y="529.308125" style="stroke: #000000; stroke-width: 0.8"/>
      </g>
     </g>
     <g id="text_3">
      <text style="font: 10px 'DejaVu Sans', 'Bitstream Vera Sans', 'Computer Modern Sans Serif', 'Lucida Grande', 'Verdana', 'Geneva', 'Lucid', 'Arial', 'Helvetica', 'Avant Garde', sans-serif; text-anchor: middle" x="303.206245" y="543.906563" transform="rotate(-0 303.206245 543.906563)">90</text>
     </g>
    </g>
    <g id="xtick_4">
     <g id="line2d_7">
      <path d="M 408.099836 529.308125 
L 408.099836 23.837812 
" clip-path="url(#p479420a997)" style="fill: none; stroke: #b0b0b0; stroke-opacity: 0.3; stroke-width: 0.8; stroke-linecap: square"/>
     </g>
     <g id="line2d_8">
      <g>
       <use xlink:href="#m487965e02e" x="408.099836" y="529.308125" style="stroke: #000000; stroke-width: 0.8"/>
      </g>
     </g>
     <g id="text_4">
      <text style="font: 10px 'DejaVu Sans', 'Bitstream Vera Sans', 'Computer Modern Sans Serif', 'Lucida Grande', 'Verdana', 'Geneva', 'Lucid', 'Arial', 'Helvetica', 'Avant Garde', sans-serif; text-anchor: middle" x="408.099836" y="543.906563" transform="rotate(-0 408.099836 543.906563)">100</text>
     </g>
    </g>
    <g id="xtick_5">
     <g id="line2d_9">
      <path d="M 512.993426 529.308125 
L 512.993426 23.837812 
" clip-path="url(#p479420a997)" style="fill: none; stroke: #b0b0b0; stroke-opacity: 0.3; stroke-width: 0.8; stroke-linecap: square"/>
     </g>
     <g id="line2d_10">
      <g>
       <use xlink:href="#m487965e02e" x="512.993426" y="529.308125" style="stroke: #000000; stroke-width: 0.8"/>
      </g>
     </g>
     <g id="text_5">
      <text style="font: 10px 'DejaVu Sans', 'Bitstream Vera Sans', 'Computer Modern Sans Serif', 'Lucida Grande', 'Verdana', 'Geneva', 'Lucid', 'Arial', 'Helvetica', 'Avant Garde', sans-serif; text-anchor: middle" x="512.993426" y="543.906563" transform="rotate(-0 512.993426 543.906563)">110</text>
     </g>
    </g>
    <g id="xtick_6">
     <g id="line2d_11">
      <path d="M 617.887017 529.308125 
L 617.887017 23.837812 
" clip-path="url(#p479420a997)" style="fill: none; stroke: #b0b0b0; stroke-opacity: 0.3; stroke-width: 0.8; stroke-linecap: square"/>
     </g>
     <g id="line2d_12">
      <g>
       <use xlink:href="#m487965e02e" x="617.887017" y="529.308125" style="stroke: #000000; stroke-width: 0.8"/>
      </g>
     </g>
     <g id="text_6">
      <text style="font: 10px 'DejaVu Sans', 'Bitstream Vera Sans', 'Computer Modern Sans Serif', 'Lucida Grande', 'Verdana', 'Geneva', 'Lucid', 'Arial', 'Helvetica', 'Avant Garde', sans-serif; text-anchor: middle" x="617.887017" y="543.906563" transform="rotate(-0 617.887017 543.906563)">120</text>
     </g>
    </g>
    <g id="xtick_7">
     <g id="line2d_13">
      <path d="M 722.780607 529.308125 
L 722.780607 23.837812 
" clip-path="url(#p479420a997)" style="fill: none; stroke: #b0b0b0; stroke-opacity: 0.3; stroke-width: 0.8; stroke-linecap: square"/>
     </g>
     <g id="line2d_14">
      <g>
       <use xlink:href="#m487965e02e" x="722.780607" y="529.308125" style="stroke: #000000; stroke-width: 0.8"/>
      </g>
     </g>
     <g id="text_7">
      <text style="font: 10px 'DejaVu Sans', 'Bitstream Vera Sans', 'Computer Modern Sans Serif', 'Lucida Grande', 'Verdana', 'Geneva', 'Lucid', 'Arial', 'Helvetica', 'Avant Garde', sans-serif; text-anchor: middle" x="722.780607" y="543.906563" transform="rotate(-0 722.780607 543.906563)">130</text>
     </g>
    </g>
    <g id="text_8">
     <text style="font: 12px 'DejaVu Sans', 'Bitstream Vera Sans', 'Computer Modern Sans Serif', 'Lucida Grande', 'Verdana', 'Geneva', 'Lucid', 'Arial', 'Helvetica', 'Avant Garde', sans-serif; text-anchor: middle" x="402.855156" y="559.104375" transform="rotate(-0 402.855156 559.104375)">Build Number</text>
    </g>
   </g>
   <g id="matplotlib.axis_2">
    <g id="ytick_1">
     <g id="line2d_15">
      <defs>
       <path id="ma8101e0887" d="M 0 0 
L -2 0 
" style="stroke: #000000; stroke-width: 0.6"/>
      </defs>
      <g>
       <use xlink:href="#ma8101e0887" x="74.01375" y="462.427471" style="stroke: #000000; stroke-width: 0.6"/>
      </g>
     </g>
     <g id="text_9">
      <!-- $\mathdefault{1.4\times10^{2}}$ -->
      <g transform="translate(22.81375 466.22669)">
       <text>
        <tspan style="font: 10px 'DejaVu Sans'" x="0 6.362305 9.541016 17.851562 28.178711 34.541016" y="-0.9765625">1.4×10</tspan>
        <tspan style="font: 7px 'DejaVu Sans'" x="40.999023" y="-4.8046875">2</tspan>
       </text>
      </g>
     </g>
    </g>
    <g id="ytick_2">
     <g id="line2d_16">
      <g>
       <use xlink:href="#ma8101e0887" x="74.01375" y="344.146328" style="stroke: #000000; stroke-width: 0.6"/>
      </g>
     </g>
     <g id="text_10">
      <!-- $\mathdefault{1.6\times10^{2}}$ -->
      <g transform="translate(22.81375 347.945547)">
       <text>
        <tspan style="font: 10px 'DejaVu Sans'" x="0 6.362305 9.541016 17.851562 28.178711 34.541016" y="-0.9765625">1.6×10</tspan>
        <tspan style="font: 7px 'DejaVu Sans'" x="40.999023" y="-4.8046875">2</tspan>
       </text>
      </g>
     </g>
    </g>
    <g id="ytick_3">
     <g id="line2d_17">
      <g>
       <use xlink:href="#ma8101e0887" x="74.01375" y="239.814966" style="stroke: #000000; stroke-width: 0.6"/>
      </g>
     </g>
     <g id="text_11">
      <!-- $\mathdefault{1.8\times10^{2}}$ -->
      <g transform="translate(23.11375 243.614185)">
       <text>
        <tspan style="font: 10px 'DejaVu Sans'" x="0 6.362305 9.291016 17.601562 27.928711 34.291016" y="-0.9765625">1.8×10</tspan>
        <tspan style="font: 7px 'DejaVu Sans'" x="40.749023" y="-4.8046875">2</tspan>
       </text>
      </g>
     </g>
    </g>
    <g id="ytick_4">
     <g id="line2d_18">
      <g>
       <use xlink:href="#ma8101e0887" x="74.01375" y="146.487383" style="stroke: #000000; stroke-width: 0.6"/>
      </g>
     </g>
     <g id="text_12">
      <!-- $\mathdefault{2\times10^{2}}$ -->
      <g transform="translate(32.41375 150.286601)">
       <text>
        <tspan style="font: 10px 'DejaVu Sans'" x="0 8.310547 18.637695 25" y="-0.9765625">2×10</tspan>
        <tspan style="font: 7px 'DejaVu Sans'" x="31.458008" y="-4.8046875">2</tspan>
       </text>
      </g>
     </g>
    </g>
    <g id="ytick_5">
     <g id="line2d_19">
      <g>
       <use xlink:href="#ma8101e0887" x="74.01375" y="62.062314" style="stroke: #000000; stroke-width: 0.6"/>
      </g>
     </g>
     <g id="text_13">
      <!-- $\mathdefault{2.2\times10^{2}}$ -->
      <g transform="translate(23.41375 65.861533)">
       <text>
        <tspan style="font: 10px 'DejaVu Sans'" x="0 6.362305 9.041016 17.351562 27.678711 34.041016" y="-0.9765625">2.2×10</tspan>
        <tspan style="font: 7px 'DejaVu Sans'" x="40.499023" y="-4.8046875">2</tspan>
       </text>
      </g>
     </g>
    </g>
    <g id="text_14">
     <text style="font: 12px 'DejaVu Sans', 'Bitstream Vera Sans', 'Computer Modern Sans Serif', 'Lucida Grande', 'Verdana', 'Geneva', 'Lucid', 'Arial', 'Helvetica', 'Avant Garde', sans-serif; text-anchor: middle" x="16.318125" y="276.572969" transform="rotate(-90 16.318125 276.572969)">Median Elapsed Time (nanoseconds)</text>
    </g>
   </g>
   <g id="line2d_20">
    <path d="M 103.908423 127.107182 
L 114.397782 118.199928 
L 124.887141 177.770346 
L 135.3765 120.404631 
L 145.865859 123.405807 
L 156.355219 69.33952 
L 166.844578 72.145045 
L 177.333937 176.853186 
L 187.823296 123.794246 
L 198.312655 170.914684 
L 208.802014 66.461923 
L 219.291373 124.658055 
L 229.780732 126.82127 
L 250.75945 122.931279 
L 261.248809 126.388204 
L 282.227527 194.443713 
L 292.716886 58.40591 
L 303.206245 51.973631 
L 313.695604 125.133509 
L 324.184963 172.737679 
L 345.163681 68.081955 
L 355.653041 127.297887 
L 366.1424 121.638402 
L 376.631759 70.517572 
L 397.610477 128.165121 
L 408.099836 184.26341 
L 418.589195 174.153085 
L 429.078554 124.658055 
L 439.567913 125.565962 
L 450.057272 69.298926 
L 460.546631 107.449267 
L 471.03599 125.133509 
L 492.014708 128.555654 
L 502.504067 64.037416 
L 512.993426 64.037416 
L 533.972144 61.217188 
L 565.440222 119.917497 
L 575.929581 123.405807 
L 586.41894 176.394962 
L 596.908299 176.394962 
L 607.397658 60.81503 
L 617.887017 168.641204 
L 628.376376 67.717189 
L 638.865735 131.642573 
L 649.355094 126.16805 
L 659.844453 83.663116 
L 680.823171 121.250907 
L 691.31253 139.429235 
L 701.801889 123.405807 
" clip-path="url(#p479420a997)" style="fill: none; stroke: #1f77b4; stroke-width: 2; stroke-linecap: square"/>
    <defs>
     <path id="m669f9dc213" d="M 0 3 
C 0.795609 3 1.55874 2.683901 2.12132 2.12132 
C 2.683901 1.55874 3 0.795609 3 0 
C 3 -0.795609 2.683901 -1.55874 2.12132 -2.12132 
C 1.55874 -2.683901 0.795609 -3 0 -3 
C -0.795609 -3 -1.55874 -2.683901 -2.12132 -2.12132 
C -2.683901 -1.55874 -3 -0.795609 -3 0 
C -3 0.795609 -2.683901 1.55874 -2.12132 2.12132 
C -1.55874 2.683901 -0.795609 3 0 3 
z
" style="stroke: #1f77b4"/>
    </defs>
    <g clip-path="url(#p479420a997)">
     <use xlink:href="#m669f9dc213" x="103.908423" y="127.107182" style="fill: #1f77b4; stroke: #1f77b4"/>
     <use xlink:href="#m669f9dc213" x="114.397782" y="118.199928" style="fill: #1f77b4; stroke: #1f77b4"/>
     <use xlink:href="#m669f9dc213" x="124.887141" y="177.770346" style="fill: #1f77b4; stroke: #1f77b4"/>
     <use xlink:href="#m669f9dc213" x="135.3765" y="120.404631" style="fill: #1f77b4; stroke: #1f77b4"/>
     <use xlink:href="#m669f9dc213" x="145.865859" y="123.405807" style="fill: #1f77b4; stroke: #1f77b4"/>
     <use xlink:href="#m669f9dc213" x="156.355219" y="69.33952" style="fill: #1f77b4; stroke: #1f77b4"/>
     <use xlink:href="#m669f9dc213" x="166.844578" y="72.145045" style="fill: #1f77b4; stroke: #1f77b4"/>
     <use xlink:href="#m669f9dc213" x="177.333937" y="176.853186" style="fill: #1f77b4; stroke: #1f77b4"/>
     <use xlink:href="#m669f9dc213" x="187.823296" y="123.794246" style="fill: #1f77b4; stroke: #1f77b4"/>
     <use xlink:href="#m669f9dc213" x="198.312655" y="170.914684" style="fill: #1f77b4; stroke: #1f77b4"/>
     <use xlink:href="#m669f9dc213" x="208.802014" y="66.461923" style="fill: #1f77b4; stroke: #1f77b4"/>
     <use xlink:href="#m669f9dc213" x="219.291373" y="124.658055" style="fill: #1f77b4; stroke: #1f77b4"/>
     <use xlink:href="#m669f9dc213" x="229.780732" y="126.82127" style="fill: #1f77b4; stroke: #1f77b4"/>
     <use xlink:href="#m669f9dc213" x="250.75945" y="122.931279" style="fill: #1f77b4; stroke: #1f77b4"/>
     <use xlink:href="#m669f9dc213" x="261.248809" y="126.388204" style="fill: #1f77b4; stroke: #1f77b4"/>
     <use xlink:href="#m669f9dc213" x="282.227527" y="194.443713" style="fill: #1f77b4; stroke: #1f77b4"/>
     <use xlink:href="#m669f9dc213" x="292.716886" y="58.40591" style="fill: #1f77b4; stroke: #1f77b4"/>
     <use xlink:href="#m669f9dc213" x="303.206245" y="51.973631" style="fill: #1f77b4; stroke: #1f77b4"/>
     <use xlink:href="#m669f9dc213" x="313.695604" y="125.133509" style="fill: #1f77b4; stroke: #1f77b4"/>
     <use xlink:href="#m669f9dc213" x="324.184963" y="172.737679" style="fill: #1f77b4; stroke: #1f77b4"/>
     <use xlink:href="#m669f9dc213" x="345.163681" y="68.081955" style="fill: #1f77b4; stroke: #1f77b4"/>
     <use xlink:href="#m669f9dc213" x="355.653041" y="127.297887" style="fill: #1f77b4; stroke: #1f77b4"/>
     <use xlink:href="#m669f9dc213" x="366.1424" y="121.638402" style="fill: #1f77b4; stroke: #1f77b4"/>
     <use xlink:href="#m669f9dc213" x="376.631759" y="70.517572" style="fill: #1f77b4; stroke: #1f77b4"/>
     <use xlink:href="#m669f9dc213" x="397.610477" y="128.165121" style="fill: #1f77b4; stroke: #1f77b4"/>
     <use xlink:href="#m669f9dc213" x="408.099836" y="184.26341" style="fill: #1f77b4; stroke: #1f77b4"/>
     <use xlink:href="#m669f9dc213" x="418.589195" y="174.153085" style="fill: #1f77b4; stroke: #1f77b4"/>
     <use xlink:href="#m669f9dc213" x="429.078554" y="124.658055" style="fill: #1f77b4; stroke: #1f77b4"/>
     <use xlink:href="#m669f9dc213" x="439.567913" y="125.565962" style="fill: #1f77b4; stroke: #1f77b4"/>
     <use xlink:href="#m669f9dc213" x="450.057272" y="69.298926" style="fill: #1f77b4; stroke: #1f77b4"/>
     <use xlink:href="#m669f9dc213" x="460.546631" y="107.449267" style="fill: #1f77b4; stroke: #1f77b4"/>
     <use xlink:href="#m669f9dc213" x="471.03599" y="125.133509" style="fill: #1f77b4; stroke: #1f77b4"/>
     <use xlink:href="#m669f9dc213" x="492.014708" y="128.555654" style="fill: #1f77b4; stroke: #1f77b4"/>
     <use xlink:href="#m669f9dc213" x="502.504067" y="64.037416" style="fill: #1f77b4; stroke: #1f77b4"/>
     <use xlink:href="#m669f9dc213" x="512.993426" y="64.037416" style="fill: #1f77b4; stroke: #1f77b4"/>
     <use xlink:href="#m669f9dc213" x="533.972144" y="61.217188" style="fill: #1f77b4; stroke: #1f77b4"/>
     <use xlink:href="#m669f9dc213" x="565.440222" y="119.917497" style="fill: #1f77b4; stroke: #1f77b4"/>
     <use xlink:href="#m669f9dc213" x="575.929581" y="123.405807" style="fill: #1f77b4; stroke: #1f77b4"/>
     <use xlink:href="#m669f9dc213" x="586.41894" y="176.394962" style="fill: #1f77b4; stroke: #1f77b4"/>
     <use xlink:href="#m669f9dc213" x="596.908299" y="176.394962" style="fill: #1f77b4; stroke: #1f77b4"/>
     <use xlink:href="#m669f9dc213" x="607.397658" y="60.81503" style="fill: #1f77b4; stroke: #1f77b4"/>
     <use xlink:href="#m669f9dc213" x="617.887017" y="168.641204" style="fill: #1f77b4; stroke: #1f77b4"/>
     <use xlink:href="#m669f9dc213" x="628.376376" y="67.717189" style="fill: #1f77b4; stroke: #1f77b4"/>
     <use xlink:href="#m669f9dc213" x="638.865735" y="131.642573" style="fill: #1f77b4; stroke: #1f77b4"/>
     <use xlink:href="#m669f9dc213" x="649.355094" y="126.16805" style="fill: #1f77b4; stroke: #1f77b4"/>
     <use xlink:href="#m669f9dc213" x="659.844453" y="83.663116" style="fill: #1f77b4; stroke: #1f77b4"/>
     <use xlink:href="#m669f9dc213" x="680.823171" y="121.250907" style="fill: #1f77b4; stroke: #1f77b4"/>
     <use xlink:href="#m669f9dc213" x="691.31253" y="139.429235" style="fill: #1f77b4; stroke: #1f77b4"/>
     <use xlink:href="#m669f9dc213" x="701.801889" y="123.405807" style="fill: #1f77b4; stroke: #1f77b4"/>
    </g>
   </g>
   <g id="line2d_21">
    <path d="M 103.908423 124.269237 
L 114.397782 118.122595 
L 124.887141 121.681468 
L 135.3765 67.271568 
L 145.865859 111.788545 
L 156.355219 163.16341 
L 166.844578 172.97814 
L 177.333937 111.788545 
L 187.823296 119.752177 
L 198.312655 53.208519 
L 208.802014 46.813736 
L 219.291373 165.875438 
L 229.780732 60.372867 
L 240.270091 129.033205 
L 250.75945 163.614838 
L 261.248809 170.122154 
L 282.227527 61.579286 
L 292.716886 174.107391 
L 303.206245 62.424758 
L 313.695604 115.244927 
L 324.184963 169.504439 
L 334.674322 126.431501 
L 345.163681 165.422856 
L 355.653041 177.311647 
L 366.1424 113.493715 
L 376.631759 122.112238 
L 397.610477 112.266349 
L 408.099836 175.479225 
L 418.589195 63.23072 
L 429.078554 57.203802 
L 439.567913 116.913934 
L 450.057272 169.05 
L 460.546631 54.804471 
L 471.03599 157.315681 
L 492.014708 128.165121 
L 502.504067 157.764138 
L 512.993426 124.701268 
L 523.482785 113.770814 
L 533.972144 169.959112 
L 554.950862 54.405213 
L 565.440222 163.614838 
L 575.929581 124.269237 
L 586.41894 165.01573 
L 596.908299 59.5695 
L 607.397658 128.989781 
L 617.887017 125.090276 
L 628.376376 111.788545 
L 638.865735 506.332202 
L 649.355094 166.826612 
L 659.844453 180.527537 
L 680.823171 156.86745 
L 691.31253 108.812374 
L 701.801889 47.24918 
" clip-path="url(#p479420a997)" style="fill: none; stroke: #ff7f0e; stroke-width: 2; stroke-linecap: square"/>
    <defs>
     <path id="m091bb0957c" d="M 0 3 
C 0.795609 3 1.55874 2.683901 2.12132 2.12132 
C 2.683901 1.55874 3 0.795609 3 0 
C 3 -0.795609 2.683901 -1.55874 2.12132 -2.12132 
C 1.55874 -2.683901 0.795609 -3 0 -3 
C -0.795609 -3 -1.55874 -2.683901 -2.12132 -2.12132 
C -2.683901 -1.55874 -3 -0.795609 -3 0 
C -3 0.795609 -2.683901 1.55874 -2.12132 2.12132 
C -1.55874 2.683901 -0.795609 3 0 3 
z
" style="stroke: #ff7f0e"/>
    </defs>
    <g clip-path="url(#p479420a997)">
     <use xlink:href="#m091bb0957c" x="103.908423" y="124.269237" style="fill: #ff7f0e; stroke: #ff7f0e"/>
     <use xlink:href="#m091bb0957c" x="114.397782" y="118.122595" style="fill: #ff7f0e; stroke: #ff7f0e"/>
     <use xlink:href="#m091bb0957c" x="124.887141" y="121.681468" style="fill: #ff7f0e; stroke: #ff7f0e"/>
     <use xlink:href="#m091bb0957c" x="135.3765" y="67.271568" style="fill: #ff7f0e; stroke: #ff7f0e"/>
     <use xlink:href="#m091bb0957c" x="145.865859" y="111.788545" style="fill: #ff7f0e; stroke: #ff7f0e"/>
     <use xlink:href="#m091bb0957c" x="156.355219" y="163.16341" style="fill: #ff7f0e; stroke: #ff7f0e"/>
     <use xlink:href="#m091bb0957c" x="166.844578" y="172.97814" style="fill: #ff7f0e; stroke: #ff7f0e"/>
     <use xlink:href="#m091bb0957c" x="177.333937" y="111.788545" style="fill: #ff7f0e; stroke: #ff7f0e"/>
     <use xlink:href="#m091bb0957c" x="187.823296" y="119.752177" style="fill: #ff7f0e; stroke: #ff7f0e"/>
     <use xlink:href="#m091bb0957c" x="198.312655" y="53.208519" style="fill: #ff7f0e; stroke: #ff7f0e"/>
     <use xlink:href="#m091bb0957c" x="208.802014" y="46.813736" style="fill: #ff7f0e; stroke: #ff7f0e"/>
     <use xlink:href="#m091bb0957c" x="219.291373" y="165.875438" style="fill: #ff7f0e; stroke: #ff7f0e"/>
     <use xlink:href="#m091bb0957c" x="229.780732" y="60.372867" style="fill: #ff7f0e; stroke: #ff7f0e"/>
     <use xlink:href="#m091bb0957c" x="240.270091" y="129.033205" style="fill: #ff7f0e; stroke: #ff7f0e"/>
     <use xlink:href="#m091bb0957c" x="250.75945" y="163.614838" style="fill: #ff7f0e; stroke: #ff7f0e"/>
     <use xlink:href="#m091bb0957c" x="261.248809" y="170.122154" style="fill: #ff7f0e; stroke: #ff7f0e"/>
     <use xlink:href="#m091bb0957c" x="282.227527" y="61.579286" style="fill: #ff7f0e; stroke: #ff7f0e"/>
     <use xlink:href="#m091bb0957c" x="292.716886" y="174.107391" style="fill: #ff7f0e; stroke: #ff7f0e"/>
     <use xlink:href="#m091bb0957c" x="303.206245" y="62.424758" style="fill: #ff7f0e; stroke: #ff7f0e"/>
     <use xlink:href="#m091bb0957c" x="313.695604" y="115.244927" style="fill: #ff7f0e; stroke: #ff7f0e"/>
     <use xlink:href="#m091bb0957c" x="324.184963" y="169.504439" style="fill: #ff7f0e; stroke: #ff7f0e"/>
     <use xlink:href="#m091bb0957c" x="334.674322" y="126.431501" style="fill: #ff7f0e; stroke: #ff7f0e"/>
     <use xlink:href="#m091bb0957c" x="345.163681" y="165.422856" style="fill: #ff7f0e; stroke: #ff7f0e"/>
     <use xlink:href="#m091bb0957c" x="355.653041" y="177.311647" style="fill: #ff7f0e; stroke: #ff7f0e"/>
     <use xlink:href="#m091bb0957c" x="366.1424" y="113.493715" style="fill: #ff7f0e; stroke: #ff7f0e"/>
     <use xlink:href="#m091bb0957c" x="376.631759" y="122.112238" style="fill: #ff7f0e; stroke: #ff7f0e"/>
     <use xlink:href="#m091bb0957c" x="397.610477" y="112.266349" style="fill: #ff7f0e; stroke: #ff7f0e"/>
     <use xlink:href="#m091bb0957c" x="408.099836" y="175.479225" style="fill: #ff7f0e; stroke: #ff7f0e"/>
     <use xlink:href="#m091bb0957c" x="418.589195" y="63.23072" style="fill: #ff7f0e; stroke: #ff7f0e"/>
     <use xlink:href="#m091bb0957c" x="429.078554" y="57.203802" style="fill: #ff7f0e; stroke: #ff7f0e"/>
     <use xlink:href="#m091bb0957c" x="439.567913" y="116.913934" style="fill: #ff7f0e; stroke: #ff7f0e"/>
     <use xlink:href="#m091bb0957c" x="450.057272" y="169.05" style="fill: #ff7f0e; stroke: #ff7f0e"/>
     <use xlink:href="#m091bb0957c" x="460.546631" y="54.804471" style="fill: #ff7f0e; stroke: #ff7f0e"/>
     <use xlink:href="#m091bb0957c" x="471.03599" y="157.315681" style="fill: #ff7f0e; stroke: #ff7f0e"/>
     <use xlink:href="#m091bb0957c" x="492.014708" y="128.165121" style="fill: #ff7f0e; stroke: #ff7f0e"/>
     <use xlink:href="#m091bb0957c" x="502.504067" y="157.764138" style="fill: #ff7f0e; stroke: #ff7f0e"/>
     <use xlink:href="#m091bb0957c" x="512.993426" y="124.701268" style="fill: #ff7f0e; stroke: #ff7f0e"/>
     <use xlink:href="#m091bb0957c" x="523.482785" y="113.770814" style="fill: #ff7f0e; stroke: #ff7f0e"/>
     <use xlink:href="#m091bb0957c" x="533.972144" y="169.959112" style="fill: #ff7f0e; stroke: #ff7f0e"/>
     <use xlink:href="#m091bb0957c" x="554.950862" y="54.405213" style="fill: #ff7f0e; stroke: #ff7f0e"/>
     <use xlink:href="#m091bb0957c" x="565.440222" y="163.614838" style="fill: #ff7f0e; stroke: #ff7f0e"/>
     <use xlink:href="#m091bb0957c" x="575.929581" y="124.269237" style="fill: #ff7f0e; stroke: #ff7f0e"/>
     <use xlink:href="#m091bb0957c" x="586.41894" y="165.01573" style="fill: #ff7f0e; stroke: #ff7f0e"/>
     <use xlink:href="#m091bb0957c" x="596.908299" y="59.5695" style="fill: #ff7f0e; stroke: #ff7f0e"/>
     <use xlink:href="#m091bb0957c" x="607.397658" y="128.989781" style="fill: #ff7f0e; stroke: #ff7f0e"/>
     <use xlink:href="#m091bb0957c" x="617.887017" y="125.090276" style="fill: #ff7f0e; stroke: #ff7f0e"/>
     <use xlink:href="#m091bb0957c" x="628.376376" y="111.788545" style="fill: #ff7f0e; stroke: #ff7f0e"/>
     <use xlink:href="#m091bb0957c" x="638.865735" y="506.332202" style="fill: #ff7f0e; stroke: #ff7f0e"/>
     <use xlink:href="#m091bb0957c" x="649.355094" y="166.826612" style="fill: #ff7f0e; stroke: #ff7f0e"/>
     <use xlink:href="#m091bb0957c" x="659.844453" y="180.527537" style="fill: #ff7f0e; stroke: #ff7f0e"/>
     <use xlink:href="#m091bb0957c" x="680.823171" y="156.86745" style="fill: #ff7f0e; stroke: #ff7f0e"/>
     <use xlink:href="#m091bb0957c" x="691.31253" y="108.812374" style="fill: #ff7f0e; stroke: #ff7f0e"/>
     <use xlink:href="#m091bb0957c" x="701.801889" y="47.24918" style="fill: #ff7f0e; stroke: #ff7f0e"/>
    </g>
   </g>
   <g id="patch_3">
    <path d="M 74.01375 529.308125 
L 74.01375 23.837813 
" style="fill: none; stroke: #000000; stroke-width: 0.8; stroke-linejoin: miter; stroke-linecap: square"/>
   </g>
   <g id="patch_4">
    <path d="M 731.696563 529.308125 
L 731.696563 23.837813 
" style="fill: none; stroke: #000000; stroke-width: 0.8; stroke-linejoin: miter; stroke-linecap: square"/>
   </g>
   <g id="patch_5">
    <path d="M 74.01375 529.308125 
L 731.696563 529.308125 
" style="fill: none; stroke: #000000; stroke-width: 0.8; stroke-linejoin: miter; stroke-linecap: square"/>
   </g>
   <g id="patch_6">
    <path d="M 74.01375 23.837812 
L 731.696563 23.837812 
" style="fill: none; stroke: #000000; stroke-width: 0.8; stroke-linejoin: miter; stroke-linecap: square"/>
   </g>
   <g id="text_15">
    <text style="font: 700 14px 'DejaVu Sans', 'Bitstream Vera Sans', 'Computer Modern Sans Serif', 'Lucida Grande', 'Verdana', 'Geneva', 'Lucid', 'Arial', 'Helvetica', 'Avant Garde', sans-serif; text-anchor: middle" x="402.855156" y="17.837813" transform="rotate(-0 402.855156 17.837813)">Coalescing Arena Alloc Dealloc - Performance Trend</text>
   </g>
   <g id="legend_1">
    <g id="patch_7">
     <path d="M 771.580703 61.194063 
L 847.004141 61.194063 
Q 849.004141 61.194063 849.004141 59.194063 
L 849.004141 30.837813 
Q 849.004141 28.837813 847.004141 28.837813 
L 771.580703 28.837813 
Q 769.580703 28.837813 769.580703 30.837813 
L 769.580703 59.194063 
Q 769.580703 61.194063 771.580703 61.194063 
z
" style="fill: #ffffff; opacity: 0.8; stroke: #cccccc; stroke-linejoin: miter"/>
    </g>
    <g id="line2d_22">
     <path d="M 773.580703 36.93625 
L 783.580703 36.93625 
L 793.580703 36.93625 
" style="fill: none; stroke: #1f77b4; stroke-width: 2; stroke-linecap: square"/>
     <g>
      <use xlink:href="#m669f9dc213" x="783.580703" y="36.93625" style="fill: #1f77b4; stroke: #1f77b4"/>
     </g>
    </g>
    <g id="text_16">
     <text style="font: 10px 'DejaVu Sans', 'Bitstream Vera Sans', 'Computer Modern Sans Serif', 'Lucida Grande', 'Verdana', 'Geneva', 'Lucid', 'Arial', 'Helvetica', 'Avant Garde', sans-serif; text-anchor: start" x="801.580703" y="40.43625" transform="rotate(-0 801.580703 40.43625)">clang-18</text>
    </g>
    <g id="line2d_23">
     <path d="M 773.580703 51.614375 
L 783.580703 51.614375 
L 793.580703 51.614375 
" style="fill: none; stroke: #ff7f0e; stroke-width: 2; stroke-linecap: square"/>
     <g>
      <use xlink:href="#m091bb0957c" x="783.580703" y="51.614375" style="fill: #ff7f0e; stroke: #ff7f0e"/>
     </g>
    </g>
    <g id="text_17">
     <text style="font: 10px 'DejaVu Sans', 'Bitstream Vera Sans', 'Computer Modern Sans Serif', 'Lucida Grande', 'Verdana', 'Geneva', 'Lucid', 'Arial', 'Helvetica', 'Avant Garde', sans-serif; text-anchor: start" x="801.580703" y="55.114375" transform="rotate(-0 801.580703 55.114375)">gcc-14</text>
    </g>
   </g>
  </g>
 </g>
 <defs>
  <clipPath id="p479420a997">
   <rect x="74.01375" y="23.837813" width="657.682812" height="505.470313"/>
  </clipPath>
 </defs>
</svg>
