<?xml version="1.0" encoding="utf-8" standalone="no"?>
<!DOCTYPE svg PUBLIC "-//W3C//DTD SVG 1.1//EN"
  "http://www.w3.org/Graphics/SVG/1.1/DTD/svg11.dtd">
<svg xmlns:xlink="http://www.w3.org/1999/xlink" width="855.536016pt" height="568.8pt" viewBox="0 0 855.536016 568.8" xmlns="http://www.w3.org/2000/svg" version="1.1">
 <metadata>
  <rdf:RDF xmlns:dc="http://purl.org/dc/elements/1.1/" xmlns:cc="http://creativecommons.org/ns#" xmlns:rdf="http://www.w3.org/1999/02/22-rdf-syntax-ns#">
   <cc:Work>
    <dc:type rdf:resource="http://purl.org/dc/dcmitype/StillImage"/>
    <dc:date>2025-08-30T22:53:04.908933</dc:date>
    <dc:format>image/svg+xml</dc:format>
    <dc:creator>
     <cc:Agent>
      <dc:title>Matplotlib v3.9.4, https://matplotlib.org/</dc:title>
     </cc:Agent>
    </dc:creator>
   </cc:Work>
  </rdf:RDF>
 </metadata>
 <defs>
  <style type="text/css">*{stroke-linejoin: round; stroke-linecap: butt}</style>
 </defs>
 <g id="figure_1">
  <g id="patch_1">
   <path d="M 0 568.8 
L 855.536016 568.8 
L 855.536016 0 
L 0 0 
z
" style="fill: #ffffff"/>
  </g>
  <g id="axes_1">
   <g id="patch_2">
    <path d="M 64.41375 529.308125 
L 708.734063 529.308125 
L 708.734063 23.837812 
L 64.41375 23.837812 
z
" style="fill: #ffffff"/>
   </g>
   <g id="matplotlib.axis_1">
    <g id="xtick_1">
     <g id="line2d_1">
      <path d="M 80.079043 529.308125 
L 80.079043 23.837812 
" clip-path="url(#p03e47d4bb3)" style="fill: none; stroke: #b0b0b0; stroke-opacity: 0.3; stroke-width: 0.8; stroke-linecap: square"/>
     </g>
     <g id="line2d_2">
      <defs>
       <path id="mf24b75a929" d="M 0 0 
L 0 3.5 
" style="stroke: #000000; stroke-width: 0.8"/>
      </defs>
      <g>
       <use xlink:href="#mf24b75a929" x="80.079043" y="529.308125" style="stroke: #000000; stroke-width: 0.8"/>
      </g>
     </g>
     <g id="text_1">
      <text style="font: 10px 'DejaVu Sans', 'Bitstream Vera Sans', 'Computer Modern Sans Serif', 'Lucida Grande', 'Verdana', 'Geneva', 'Lucid', 'Arial', 'Helvetica', 'Avant Garde', sans-serif; text-anchor: middle" x="80.079043" y="543.906563" transform="rotate(-0 80.079043 543.906563)">70</text>
     </g>
    </g>
    <g id="xtick_2">
     <g id="line2d_3">
      <path d="M 216.298982 529.308125 
L 216.298982 23.837812 
" clip-path="url(#p03e47d4bb3)" style="fill: none; stroke: #b0b0b0; stroke-opacity: 0.3; stroke-width: 0.8; stroke-linecap: square"/>
     </g>
     <g id="line2d_4">
      <g>
       <use xlink:href="#mf24b75a929" x="216.298982" y="529.308125" style="stroke: #000000; stroke-width: 0.8"/>
      </g>
     </g>
     <g id="text_2">
      <text style="font: 10px 'DejaVu Sans', 'Bitstream Vera Sans', 'Computer Modern Sans Serif', 'Lucida Grande', 'Verdana', 'Geneva', 'Lucid', 'Arial', 'Helvetica', 'Avant Garde', sans-serif; text-anchor: middle" x="216.298982" y="543.906563" transform="rotate(-0 216.298982 543.906563)">80</text>
     </g>
    </g>
    <g id="xtick_3">
     <g id="line2d_5">
      <path d="M 352.518921 529.308125 
L 352.518921 23.837812 
" clip-path="url(#p03e47d4bb3)" style="fill: none; stroke: #b0b0b0; stroke-opacity: 0.3; stroke-width: 0.8; stroke-linecap: square"/>
     </g>
     <g id="line2d_6">
      <g>
       <use xlink:href="#mf24b75a929" x="352.518921" y="529.308125" style="stroke: #000000; stroke-width: 0.8"/>
      </g>
     </g>
     <g id="text_3">
      <text style="font: 10px 'DejaVu Sans', 'Bitstream Vera Sans', 'Computer Modern Sans Serif', 'Lucida Grande', 'Verdana', 'Geneva', 'Lucid', 'Arial', 'Helvetica', 'Avant Garde', sans-serif; text-anchor: middle" x="352.518921" y="543.906563" transform="rotate(-0 352.518921 543.906563)">90</text>
     </g>
    </g>
    <g id="xtick_4">
     <g id="line2d_7">
      <path d="M 488.738861 529.308125 
L 488.738861 23.837812 
" clip-path="url(#p03e47d4bb3)" style="fill: none; stroke: #b0b0b0; stroke-opacity: 0.3; stroke-width: 0.8; stroke-linecap: square"/>
     </g>
     <g id="line2d_8">
      <g>
       <use xlink:href="#mf24b75a929" x="488.738861" y="529.308125" style="stroke: #000000; stroke-width: 0.8"/>
      </g>
     </g>
     <g id="text_4">
      <text style="font: 10px 'DejaVu Sans', 'Bitstream Vera Sans', 'Computer Modern Sans Serif', 'Lucida Grande', 'Verdana', 'Geneva', 'Lucid', 'Arial', 'Helvetica', 'Avant Garde', sans-serif; text-anchor: middle" x="488.738861" y="543.906563" transform="rotate(-0 488.738861 543.906563)">100</text>
     </g>
    </g>
    <g id="xtick_5">
     <g id="line2d_9">
      <path d="M 624.9588 529.308125 
L 624.9588 23.837812 
" clip-path="url(#p03e47d4bb3)" style="fill: none; stroke: #b0b0b0; stroke-opacity: 0.3; stroke-width: 0.8; stroke-linecap: square"/>
     </g>
     <g id="line2d_10">
      <g>
       <use xlink:href="#mf24b75a929" x="624.9588" y="529.308125" style="stroke: #000000; stroke-width: 0.8"/>
      </g>
     </g>
     <g id="text_5">
      <text style="font: 10px 'DejaVu Sans', 'Bitstream Vera Sans', 'Computer Modern Sans Serif', 'Lucida Grande', 'Verdana', 'Geneva', 'Lucid', 'Arial', 'Helvetica', 'Avant Garde', sans-serif; text-anchor: middle" x="624.9588" y="543.906563" transform="rotate(-0 624.9588 543.906563)">110</text>
     </g>
    </g>
    <g id="text_6">
     <text style="font: 12px 'DejaVu Sans', 'Bitstream Vera Sans', 'Computer Modern Sans Serif', 'Lucida Grande', 'Verdana', 'Geneva', 'Lucid', 'Arial', 'Helvetica', 'Avant Garde', sans-serif; text-anchor: middle" x="386.573906" y="559.104375" transform="rotate(-0 386.573906 559.104375)">Build Number</text>
    </g>
   </g>
   <g id="matplotlib.axis_2">
    <g id="ytick_1">
     <g id="line2d_11">
      <path d="M 64.41375 334.291639 
L 708.734063 334.291639 
" clip-path="url(#p03e47d4bb3)" style="fill: none; stroke: #b0b0b0; stroke-opacity: 0.3; stroke-width: 0.8; stroke-linecap: square"/>
     </g>
     <g id="line2d_12">
      <defs>
       <path id="m74c6fe6e20" d="M 0 0 
L -3.5 0 
" style="stroke: #000000; stroke-width: 0.8"/>
      </defs>
      <g>
       <use xlink:href="#m74c6fe6e20" x="64.41375" y="334.291639" style="stroke: #000000; stroke-width: 0.8"/>
      </g>
     </g>
     <g id="text_7">
      <!-- $\mathdefault{10^{5}}$ -->
      <g transform="translate(39.81375 338.090858)">
       <text>
        <tspan style="font: 10px 'DejaVu Sans'" x="0 6.362305" y="-0.06406250000000036">10</tspan>
        <tspan style="font: 7px 'DejaVu Sans'" x="12.820312" y="-3.8921875000000004">5</tspan>
       </text>
      </g>
     </g>
    </g>
    <g id="ytick_2">
     <g id="line2d_13">
      <defs>
       <path id="m16473afed9" d="M 0 0 
L -2 0 
" style="stroke: #000000; stroke-width: 0.6"/>
      </defs>
      <g>
       <use xlink:href="#m16473afed9" x="64.41375" y="505.7097" style="stroke: #000000; stroke-width: 0.6"/>
      </g>
     </g>
     <g id="text_8">
      <!-- $\mathdefault{6\times10^{4}}$ -->
      <g transform="translate(22.81375 509.508919)">
       <text>
        <tspan style="font: 10px 'DejaVu Sans'" x="0 8.310547 18.637695 25" y="-0.06406250000000036">6×10</tspan>
        <tspan style="font: 7px 'DejaVu Sans'" x="31.458008" y="-3.8921875000000004">4</tspan>
       </text>
      </g>
     </g>
    </g>
    <g id="ytick_3">
     <g id="line2d_14">
      <g>
       <use xlink:href="#m16473afed9" x="64.41375" y="453.981264" style="stroke: #000000; stroke-width: 0.6"/>
      </g>
     </g>
    </g>
    <g id="ytick_4">
     <g id="line2d_15">
      <g>
       <use xlink:href="#m16473afed9" x="64.41375" y="409.172055" style="stroke: #000000; stroke-width: 0.6"/>
      </g>
     </g>
    </g>
    <g id="ytick_5">
     <g id="line2d_16">
      <g>
       <use xlink:href="#m16473afed9" x="64.41375" y="369.647531" style="stroke: #000000; stroke-width: 0.6"/>
      </g>
     </g>
    </g>
    <g id="ytick_6">
     <g id="line2d_17">
      <g>
       <use xlink:href="#m16473afed9" x="64.41375" y="101.691823" style="stroke: #000000; stroke-width: 0.6"/>
      </g>
     </g>
     <g id="text_9">
      <!-- $\mathdefault{2\times10^{5}}$ -->
      <g transform="translate(22.81375 105.491042)">
       <text>
        <tspan style="font: 10px 'DejaVu Sans'" x="0 8.310547 18.637695 25" y="-0.06406250000000036">2×10</tspan>
        <tspan style="font: 7px 'DejaVu Sans'" x="31.458008" y="-3.8921875000000004">5</tspan>
       </text>
      </g>
     </g>
    </g>
    <g id="text_10">
     <text style="font: 12px 'DejaVu Sans', 'Bitstream Vera Sans', 'Computer Modern Sans Serif', 'Lucida Grande', 'Verdana', 'Geneva', 'Lucid', 'Arial', 'Helvetica', 'Avant Garde', sans-serif; text-anchor: middle" x="16.318125" y="276.572969" transform="rotate(-90 16.318125 276.572969)">Median Elapsed Time (nanoseconds)</text>
    </g>
   </g>
   <g id="line2d_18">
    <path d="M 93.701037 46.813736 
L 107.323031 191.993804 
L 120.945025 203.583288 
L 134.567019 226.939206 
L 148.189013 249.293351 
L 161.811007 197.56458 
L 175.433 217.514077 
L 189.054994 216.449271 
L 202.676988 213.414453 
L 216.298982 197.627325 
L 229.920976 255.061283 
L 243.54297 181.822836 
L 257.164964 48.546392 
L 270.786958 155.181473 
L 284.408952 255.056248 
L 298.030946 280.19621 
L 325.274934 250.483261 
L 338.896928 243.683337 
L 352.518921 243.288052 
L 366.140915 283.580852 
L 379.762909 283.575659 
L 393.384903 244.097042 
L 407.006897 245.4831 
L 420.628891 283.596143 
L 434.250885 244.026517 
L 447.872879 252.14706 
L 475.116867 107.746626 
L 488.738861 249.935013 
L 502.360855 47.122473 
L 515.982849 283.266816 
L 529.604842 237.087039 
L 543.226836 284.46166 
L 556.84883 243.282935 
L 570.470824 241.955645 
L 597.714812 283.561234 
L 611.336806 282.732565 
L 624.9588 243.462084 
L 638.580794 282.945875 
L 652.202788 244.993097 
L 679.446776 279.539663 
" clip-path="url(#p03e47d4bb3)" style="fill: none; stroke: #1f77b4; stroke-width: 2; stroke-linecap: square"/>
    <defs>
     <path id="m0e3c41adbf" d="M 0 3 
C 0.795609 3 1.55874 2.683901 2.12132 2.12132 
C 2.683901 1.55874 3 0.795609 3 0 
C 3 -0.795609 2.683901 -1.55874 2.12132 -2.12132 
C 1.55874 -2.683901 0.795609 -3 0 -3 
C -0.795609 -3 -1.55874 -2.683901 -2.12132 -2.12132 
C -2.683901 -1.55874 -3 -0.795609 -3 0 
C -3 0.795609 -2.683901 1.55874 -2.12132 2.12132 
C -1.55874 2.683901 -0.795609 3 0 3 
z
" style="stroke: #1f77b4"/>
    </defs>
    <g clip-path="url(#p03e47d4bb3)">
     <use xlink:href="#m0e3c41adbf" x="93.701037" y="46.813736" style="fill: #1f77b4; stroke: #1f77b4"/>
     <use xlink:href="#m0e3c41adbf" x="107.323031" y="191.993804" style="fill: #1f77b4; stroke: #1f77b4"/>
     <use xlink:href="#m0e3c41adbf" x="120.945025" y="203.583288" style="fill: #1f77b4; stroke: #1f77b4"/>
     <use xlink:href="#m0e3c41adbf" x="134.567019" y="226.939206" style="fill: #1f77b4; stroke: #1f77b4"/>
     <use xlink:href="#m0e3c41adbf" x="148.189013" y="249.293351" style="fill: #1f77b4; stroke: #1f77b4"/>
     <use xlink:href="#m0e3c41adbf" x="161.811007" y="197.56458" style="fill: #1f77b4; stroke: #1f77b4"/>
     <use xlink:href="#m0e3c41adbf" x="175.433" y="217.514077" style="fill: #1f77b4; stroke: #1f77b4"/>
     <use xlink:href="#m0e3c41adbf" x="189.054994" y="216.449271" style="fill: #1f77b4; stroke: #1f77b4"/>
     <use xlink:href="#m0e3c41adbf" x="202.676988" y="213.414453" style="fill: #1f77b4; stroke: #1f77b4"/>
     <use xlink:href="#m0e3c41adbf" x="216.298982" y="197.627325" style="fill: #1f77b4; stroke: #1f77b4"/>
     <use xlink:href="#m0e3c41adbf" x="229.920976" y="255.061283" style="fill: #1f77b4; stroke: #1f77b4"/>
     <use xlink:href="#m0e3c41adbf" x="243.54297" y="181.822836" style="fill: #1f77b4; stroke: #1f77b4"/>
     <use xlink:href="#m0e3c41adbf" x="257.164964" y="48.546392" style="fill: #1f77b4; stroke: #1f77b4"/>
     <use xlink:href="#m0e3c41adbf" x="270.786958" y="155.181473" style="fill: #1f77b4; stroke: #1f77b4"/>
     <use xlink:href="#m0e3c41adbf" x="284.408952" y="255.056248" style="fill: #1f77b4; stroke: #1f77b4"/>
     <use xlink:href="#m0e3c41adbf" x="298.030946" y="280.19621" style="fill: #1f77b4; stroke: #1f77b4"/>
     <use xlink:href="#m0e3c41adbf" x="325.274934" y="250.483261" style="fill: #1f77b4; stroke: #1f77b4"/>
     <use xlink:href="#m0e3c41adbf" x="338.896928" y="243.683337" style="fill: #1f77b4; stroke: #1f77b4"/>
     <use xlink:href="#m0e3c41adbf" x="352.518921" y="243.288052" style="fill: #1f77b4; stroke: #1f77b4"/>
     <use xlink:href="#m0e3c41adbf" x="366.140915" y="283.580852" style="fill: #1f77b4; stroke: #1f77b4"/>
     <use xlink:href="#m0e3c41adbf" x="379.762909" y="283.575659" style="fill: #1f77b4; stroke: #1f77b4"/>
     <use xlink:href="#m0e3c41adbf" x="393.384903" y="244.097042" style="fill: #1f77b4; stroke: #1f77b4"/>
     <use xlink:href="#m0e3c41adbf" x="407.006897" y="245.4831" style="fill: #1f77b4; stroke: #1f77b4"/>
     <use xlink:href="#m0e3c41adbf" x="420.628891" y="283.596143" style="fill: #1f77b4; stroke: #1f77b4"/>
     <use xlink:href="#m0e3c41adbf" x="434.250885" y="244.026517" style="fill: #1f77b4; stroke: #1f77b4"/>
     <use xlink:href="#m0e3c41adbf" x="447.872879" y="252.14706" style="fill: #1f77b4; stroke: #1f77b4"/>
     <use xlink:href="#m0e3c41adbf" x="475.116867" y="107.746626" style="fill: #1f77b4; stroke: #1f77b4"/>
     <use xlink:href="#m0e3c41adbf" x="488.738861" y="249.935013" style="fill: #1f77b4; stroke: #1f77b4"/>
     <use xlink:href="#m0e3c41adbf" x="502.360855" y="47.122473" style="fill: #1f77b4; stroke: #1f77b4"/>
     <use xlink:href="#m0e3c41adbf" x="515.982849" y="283.266816" style="fill: #1f77b4; stroke: #1f77b4"/>
     <use xlink:href="#m0e3c41adbf" x="529.604842" y="237.087039" style="fill: #1f77b4; stroke: #1f77b4"/>
     <use xlink:href="#m0e3c41adbf" x="543.226836" y="284.46166" style="fill: #1f77b4; stroke: #1f77b4"/>
     <use xlink:href="#m0e3c41adbf" x="556.84883" y="243.282935" style="fill: #1f77b4; stroke: #1f77b4"/>
     <use xlink:href="#m0e3c41adbf" x="570.470824" y="241.955645" style="fill: #1f77b4; stroke: #1f77b4"/>
     <use xlink:href="#m0e3c41adbf" x="597.714812" y="283.561234" style="fill: #1f77b4; stroke: #1f77b4"/>
     <use xlink:href="#m0e3c41adbf" x="611.336806" y="282.732565" style="fill: #1f77b4; stroke: #1f77b4"/>
     <use xlink:href="#m0e3c41adbf" x="624.9588" y="243.462084" style="fill: #1f77b4; stroke: #1f77b4"/>
     <use xlink:href="#m0e3c41adbf" x="638.580794" y="282.945875" style="fill: #1f77b4; stroke: #1f77b4"/>
     <use xlink:href="#m0e3c41adbf" x="652.202788" y="244.993097" style="fill: #1f77b4; stroke: #1f77b4"/>
     <use xlink:href="#m0e3c41adbf" x="679.446776" y="279.539663" style="fill: #1f77b4; stroke: #1f77b4"/>
    </g>
   </g>
   <g id="line2d_19">
    <path d="M 93.701037 240.963675 
L 107.323031 243.863598 
L 120.945025 244.090117 
L 134.567019 246.102545 
L 148.189013 239.261485 
L 161.811007 244.568784 
L 175.433 239.50832 
L 189.054994 247.747045 
L 202.676988 241.093226 
L 216.298982 247.539422 
L 229.920976 242.14731 
L 243.54297 245.28202 
L 257.164964 248.914302 
L 270.786958 244.728064 
L 284.408952 249.45098 
L 298.030946 239.165431 
L 325.274934 244.109353 
L 338.896928 241.526717 
L 352.518921 244.443983 
L 366.140915 247.414482 
L 379.762909 239.866502 
L 393.384903 237.098844 
L 407.006897 237.606123 
L 420.628891 235.646113 
L 434.250885 280.614175 
L 447.872879 247.512733 
L 475.116867 279.756862 
L 488.738861 281.661443 
L 502.360855 280.709844 
L 515.982849 280.122753 
L 529.604842 279.068518 
L 543.226836 280.640628 
L 556.84883 279.542799 
L 570.470824 279.805152 
L 597.714812 278.523852 
L 611.336806 281.342606 
L 624.9588 277.611705 
L 638.580794 277.650819 
L 652.202788 277.88645 
L 679.446776 277.597534 
" clip-path="url(#p03e47d4bb3)" style="fill: none; stroke: #ff7f0e; stroke-width: 2; stroke-linecap: square"/>
    <defs>
     <path id="m2e979d999d" d="M 0 3 
C 0.795609 3 1.55874 2.683901 2.12132 2.12132 
C 2.683901 1.55874 3 0.795609 3 0 
C 3 -0.795609 2.683901 -1.55874 2.12132 -2.12132 
C 1.55874 -2.683901 0.795609 -3 0 -3 
C -0.795609 -3 -1.55874 -2.683901 -2.12132 -2.12132 
C -2.683901 -1.55874 -3 -0.795609 -3 0 
C -3 0.795609 -2.683901 1.55874 -2.12132 2.12132 
C -1.55874 2.683901 -0.795609 3 0 3 
z
" style="stroke: #ff7f0e"/>
    </defs>
    <g clip-path="url(#p03e47d4bb3)">
     <use xlink:href="#m2e979d999d" x="93.701037" y="240.963675" style="fill: #ff7f0e; stroke: #ff7f0e"/>
     <use xlink:href="#m2e979d999d" x="107.323031" y="243.863598" style="fill: #ff7f0e; stroke: #ff7f0e"/>
     <use xlink:href="#m2e979d999d" x="120.945025" y="244.090117" style="fill: #ff7f0e; stroke: #ff7f0e"/>
     <use xlink:href="#m2e979d999d" x="134.567019" y="246.102545" style="fill: #ff7f0e; stroke: #ff7f0e"/>
     <use xlink:href="#m2e979d999d" x="148.189013" y="239.261485" style="fill: #ff7f0e; stroke: #ff7f0e"/>
     <use xlink:href="#m2e979d999d" x="161.811007" y="244.568784" style="fill: #ff7f0e; stroke: #ff7f0e"/>
     <use xlink:href="#m2e979d999d" x="175.433" y="239.50832" style="fill: #ff7f0e; stroke: #ff7f0e"/>
     <use xlink:href="#m2e979d999d" x="189.054994" y="247.747045" style="fill: #ff7f0e; stroke: #ff7f0e"/>
     <use xlink:href="#m2e979d999d" x="202.676988" y="241.093226" style="fill: #ff7f0e; stroke: #ff7f0e"/>
     <use xlink:href="#m2e979d999d" x="216.298982" y="247.539422" style="fill: #ff7f0e; stroke: #ff7f0e"/>
     <use xlink:href="#m2e979d999d" x="229.920976" y="242.14731" style="fill: #ff7f0e; stroke: #ff7f0e"/>
     <use xlink:href="#m2e979d999d" x="243.54297" y="245.28202" style="fill: #ff7f0e; stroke: #ff7f0e"/>
     <use xlink:href="#m2e979d999d" x="257.164964" y="248.914302" style="fill: #ff7f0e; stroke: #ff7f0e"/>
     <use xlink:href="#m2e979d999d" x="270.786958" y="244.728064" style="fill: #ff7f0e; stroke: #ff7f0e"/>
     <use xlink:href="#m2e979d999d" x="284.408952" y="249.45098" style="fill: #ff7f0e; stroke: #ff7f0e"/>
     <use xlink:href="#m2e979d999d" x="298.030946" y="239.165431" style="fill: #ff7f0e; stroke: #ff7f0e"/>
     <use xlink:href="#m2e979d999d" x="325.274934" y="244.109353" style="fill: #ff7f0e; stroke: #ff7f0e"/>
     <use xlink:href="#m2e979d999d" x="338.896928" y="241.526717" style="fill: #ff7f0e; stroke: #ff7f0e"/>
     <use xlink:href="#m2e979d999d" x="352.518921" y="244.443983" style="fill: #ff7f0e; stroke: #ff7f0e"/>
     <use xlink:href="#m2e979d999d" x="366.140915" y="247.414482" style="fill: #ff7f0e; stroke: #ff7f0e"/>
     <use xlink:href="#m2e979d999d" x="379.762909" y="239.866502" style="fill: #ff7f0e; stroke: #ff7f0e"/>
     <use xlink:href="#m2e979d999d" x="393.384903" y="237.098844" style="fill: #ff7f0e; stroke: #ff7f0e"/>
     <use xlink:href="#m2e979d999d" x="407.006897" y="237.606123" style="fill: #ff7f0e; stroke: #ff7f0e"/>
     <use xlink:href="#m2e979d999d" x="420.628891" y="235.646113" style="fill: #ff7f0e; stroke: #ff7f0e"/>
     <use xlink:href="#m2e979d999d" x="434.250885" y="280.614175" style="fill: #ff7f0e; stroke: #ff7f0e"/>
     <use xlink:href="#m2e979d999d" x="447.872879" y="247.512733" style="fill: #ff7f0e; stroke: #ff7f0e"/>
     <use xlink:href="#m2e979d999d" x="475.116867" y="279.756862" style="fill: #ff7f0e; stroke: #ff7f0e"/>
     <use xlink:href="#m2e979d999d" x="488.738861" y="281.661443" style="fill: #ff7f0e; stroke: #ff7f0e"/>
     <use xlink:href="#m2e979d999d" x="502.360855" y="280.709844" style="fill: #ff7f0e; stroke: #ff7f0e"/>
     <use xlink:href="#m2e979d999d" x="515.982849" y="280.122753" style="fill: #ff7f0e; stroke: #ff7f0e"/>
     <use xlink:href="#m2e979d999d" x="529.604842" y="279.068518" style="fill: #ff7f0e; stroke: #ff7f0e"/>
     <use xlink:href="#m2e979d999d" x="543.226836" y="280.640628" style="fill: #ff7f0e; stroke: #ff7f0e"/>
     <use xlink:href="#m2e979d999d" x="556.84883" y="279.542799" style="fill: #ff7f0e; stroke: #ff7f0e"/>
     <use xlink:href="#m2e979d999d" x="570.470824" y="279.805152" style="fill: #ff7f0e; stroke: #ff7f0e"/>
     <use xlink:href="#m2e979d999d" x="597.714812" y="278.523852" style="fill: #ff7f0e; stroke: #ff7f0e"/>
     <use xlink:href="#m2e979d999d" x="611.336806" y="281.342606" style="fill: #ff7f0e; stroke: #ff7f0e"/>
     <use xlink:href="#m2e979d999d" x="624.9588" y="277.611705" style="fill: #ff7f0e; stroke: #ff7f0e"/>
     <use xlink:href="#m2e979d999d" x="638.580794" y="277.650819" style="fill: #ff7f0e; stroke: #ff7f0e"/>
     <use xlink:href="#m2e979d999d" x="652.202788" y="277.88645" style="fill: #ff7f0e; stroke: #ff7f0e"/>
     <use xlink:href="#m2e979d999d" x="679.446776" y="277.597534" style="fill: #ff7f0e; stroke: #ff7f0e"/>
    </g>
   </g>
   <g id="line2d_20">
    <path d="M 93.701037 414.551779 
L 107.323031 497.463966 
L 120.945025 414.97317 
L 134.567019 486.590358 
L 148.189013 488.58483 
L 161.811007 494.968464 
L 175.433 431.17622 
L 189.054994 259.841298 
L 202.676988 504.165161 
L 216.298982 502.411088 
L 229.920976 448.322626 
L 243.54297 415.961606 
L 257.164964 472.805361 
L 284.408952 490.422322 
L 298.030946 432.542825 
L 325.274934 506.332202 
L 338.896928 259.267362 
L 352.518921 486.236577 
L 366.140915 481.772945 
L 379.762909 501.586919 
L 407.006897 503.321129 
L 420.628891 460.778799 
L 434.250885 459.561443 
L 447.872879 479.86882 
L 475.116867 480.855226 
L 488.738861 500.319467 
L 502.360855 505.890118 
L 515.982849 501.949525 
L 529.604842 487.90366 
L 543.226836 260.377715 
L 556.84883 480.387571 
L 570.470824 503.662823 
L 597.714812 478.550422 
L 611.336806 502.536827 
L 624.9588 478.931817 
L 652.202788 479.468257 
" clip-path="url(#p03e47d4bb3)" style="fill: none; stroke: #2ca02c; stroke-width: 2; stroke-linecap: square"/>
    <defs>
     <path id="mc07ea98ab6" d="M 0 3 
C 0.795609 3 1.55874 2.683901 2.12132 2.12132 
C 2.683901 1.55874 3 0.795609 3 0 
C 3 -0.795609 2.683901 -1.55874 2.12132 -2.12132 
C 1.55874 -2.683901 0.795609 -3 0 -3 
C -0.795609 -3 -1.55874 -2.683901 -2.12132 -2.12132 
C -2.683901 -1.55874 -3 -0.795609 -3 0 
C -3 0.795609 -2.683901 1.55874 -2.12132 2.12132 
C -1.55874 2.683901 -0.795609 3 0 3 
z
" style="stroke: #2ca02c"/>
    </defs>
    <g clip-path="url(#p03e47d4bb3)">
     <use xlink:href="#mc07ea98ab6" x="93.701037" y="414.551779" style="fill: #2ca02c; stroke: #2ca02c"/>
     <use xlink:href="#mc07ea98ab6" x="107.323031" y="497.463966" style="fill: #2ca02c; stroke: #2ca02c"/>
     <use xlink:href="#mc07ea98ab6" x="120.945025" y="414.97317" style="fill: #2ca02c; stroke: #2ca02c"/>
     <use xlink:href="#mc07ea98ab6" x="134.567019" y="486.590358" style="fill: #2ca02c; stroke: #2ca02c"/>
     <use xlink:href="#mc07ea98ab6" x="148.189013" y="488.58483" style="fill: #2ca02c; stroke: #2ca02c"/>
     <use xlink:href="#mc07ea98ab6" x="161.811007" y="494.968464" style="fill: #2ca02c; stroke: #2ca02c"/>
     <use xlink:href="#mc07ea98ab6" x="175.433" y="431.17622" style="fill: #2ca02c; stroke: #2ca02c"/>
     <use xlink:href="#mc07ea98ab6" x="189.054994" y="259.841298" style="fill: #2ca02c; stroke: #2ca02c"/>
     <use xlink:href="#mc07ea98ab6" x="202.676988" y="504.165161" style="fill: #2ca02c; stroke: #2ca02c"/>
     <use xlink:href="#mc07ea98ab6" x="216.298982" y="502.411088" style="fill: #2ca02c; stroke: #2ca02c"/>
     <use xlink:href="#mc07ea98ab6" x="229.920976" y="448.322626" style="fill: #2ca02c; stroke: #2ca02c"/>
     <use xlink:href="#mc07ea98ab6" x="243.54297" y="415.961606" style="fill: #2ca02c; stroke: #2ca02c"/>
     <use xlink:href="#mc07ea98ab6" x="257.164964" y="472.805361" style="fill: #2ca02c; stroke: #2ca02c"/>
     <use xlink:href="#mc07ea98ab6" x="284.408952" y="490.422322" style="fill: #2ca02c; stroke: #2ca02c"/>
     <use xlink:href="#mc07ea98ab6" x="298.030946" y="432.542825" style="fill: #2ca02c; stroke: #2ca02c"/>
     <use xlink:href="#mc07ea98ab6" x="325.274934" y="506.332202" style="fill: #2ca02c; stroke: #2ca02c"/>
     <use xlink:href="#mc07ea98ab6" x="338.896928" y="259.267362" style="fill: #2ca02c; stroke: #2ca02c"/>
     <use xlink:href="#mc07ea98ab6" x="352.518921" y="486.236577" style="fill: #2ca02c; stroke: #2ca02c"/>
     <use xlink:href="#mc07ea98ab6" x="366.140915" y="481.772945" style="fill: #2ca02c; stroke: #2ca02c"/>
     <use xlink:href="#mc07ea98ab6" x="379.762909" y="501.586919" style="fill: #2ca02c; stroke: #2ca02c"/>
     <use xlink:href="#mc07ea98ab6" x="407.006897" y="503.321129" style="fill: #2ca02c; stroke: #2ca02c"/>
     <use xlink:href="#mc07ea98ab6" x="420.628891" y="460.778799" style="fill: #2ca02c; stroke: #2ca02c"/>
     <use xlink:href="#mc07ea98ab6" x="434.250885" y="459.561443" style="fill: #2ca02c; stroke: #2ca02c"/>
     <use xlink:href="#mc07ea98ab6" x="447.872879" y="479.86882" style="fill: #2ca02c; stroke: #2ca02c"/>
     <use xlink:href="#mc07ea98ab6" x="475.116867" y="480.855226" style="fill: #2ca02c; stroke: #2ca02c"/>
     <use xlink:href="#mc07ea98ab6" x="488.738861" y="500.319467" style="fill: #2ca02c; stroke: #2ca02c"/>
     <use xlink:href="#mc07ea98ab6" x="502.360855" y="505.890118" style="fill: #2ca02c; stroke: #2ca02c"/>
     <use xlink:href="#mc07ea98ab6" x="515.982849" y="501.949525" style="fill: #2ca02c; stroke: #2ca02c"/>
     <use xlink:href="#mc07ea98ab6" x="529.604842" y="487.90366" style="fill: #2ca02c; stroke: #2ca02c"/>
     <use xlink:href="#mc07ea98ab6" x="543.226836" y="260.377715" style="fill: #2ca02c; stroke: #2ca02c"/>
     <use xlink:href="#mc07ea98ab6" x="556.84883" y="480.387571" style="fill: #2ca02c; stroke: #2ca02c"/>
     <use xlink:href="#mc07ea98ab6" x="570.470824" y="503.662823" style="fill: #2ca02c; stroke: #2ca02c"/>
     <use xlink:href="#mc07ea98ab6" x="597.714812" y="478.550422" style="fill: #2ca02c; stroke: #2ca02c"/>
     <use xlink:href="#mc07ea98ab6" x="611.336806" y="502.536827" style="fill: #2ca02c; stroke: #2ca02c"/>
     <use xlink:href="#mc07ea98ab6" x="624.9588" y="478.931817" style="fill: #2ca02c; stroke: #2ca02c"/>
     <use xlink:href="#mc07ea98ab6" x="652.202788" y="479.468257" style="fill: #2ca02c; stroke: #2ca02c"/>
    </g>
   </g>
   <g id="line2d_21">
    <path d="M 93.701037 459.866222 
L 107.323031 455.143871 
L 120.945025 459.420607 
L 134.567019 457.27833 
L 148.189013 460.575215 
L 161.811007 466.993507 
L 175.433 458.812133 
L 189.054994 457.180552 
L 202.676988 460.001714 
L 216.298982 457.742438 
L 229.920976 461.889521 
L 243.54297 465.712231 
L 257.164964 421.868996 
L 284.408952 457.412458 
L 298.030946 454.1049 
L 325.274934 488.92886 
L 338.896928 458.206217 
L 352.518921 456.170075 
L 366.140915 461.129246 
L 379.762909 463.233246 
L 407.006897 459.084593 
L 420.628891 457.457502 
L 434.250885 478.796034 
L 447.872879 480.720181 
L 475.116867 466.047993 
L 488.738861 478.470998 
L 502.360855 479.912321 
L 515.982849 480.445663 
L 529.604842 480.535415 
L 543.226836 481.301371 
L 556.84883 479.19993 
L 570.470824 481.650745 
L 597.714812 479.964115 
L 611.336806 477.156529 
L 624.9588 479.532915 
L 652.202788 478.356021 
" clip-path="url(#p03e47d4bb3)" style="fill: none; stroke: #d62728; stroke-width: 2; stroke-linecap: square"/>
    <defs>
     <path id="m819712f086" d="M 0 3 
C 0.795609 3 1.55874 2.683901 2.12132 2.12132 
C 2.683901 1.55874 3 0.795609 3 0 
C 3 -0.795609 2.683901 -1.55874 2.12132 -2.12132 
C 1.55874 -2.683901 0.795609 -3 0 -3 
C -0.795609 -3 -1.55874 -2.683901 -2.12132 -2.12132 
C -2.683901 -1.55874 -3 -0.795609 -3 0 
C -3 0.795609 -2.683901 1.55874 -2.12132 2.12132 
C -1.55874 2.683901 -0.795609 3 0 3 
z
" style="stroke: #d62728"/>
    </defs>
    <g clip-path="url(#p03e47d4bb3)">
     <use xlink:href="#m819712f086" x="93.701037" y="459.866222" style="fill: #d62728; stroke: #d62728"/>
     <use xlink:href="#m819712f086" x="107.323031" y="455.143871" style="fill: #d62728; stroke: #d62728"/>
     <use xlink:href="#m819712f086" x="120.945025" y="459.420607" style="fill: #d62728; stroke: #d62728"/>
     <use xlink:href="#m819712f086" x="134.567019" y="457.27833" style="fill: #d62728; stroke: #d62728"/>
     <use xlink:href="#m819712f086" x="148.189013" y="460.575215" style="fill: #d62728; stroke: #d62728"/>
     <use xlink:href="#m819712f086" x="161.811007" y="466.993507" style="fill: #d62728; stroke: #d62728"/>
     <use xlink:href="#m819712f086" x="175.433" y="458.812133" style="fill: #d62728; stroke: #d62728"/>
     <use xlink:href="#m819712f086" x="189.054994" y="457.180552" style="fill: #d62728; stroke: #d62728"/>
     <use xlink:href="#m819712f086" x="202.676988" y="460.001714" style="fill: #d62728; stroke: #d62728"/>
     <use xlink:href="#m819712f086" x="216.298982" y="457.742438" style="fill: #d62728; stroke: #d62728"/>
     <use xlink:href="#m819712f086" x="229.920976" y="461.889521" style="fill: #d62728; stroke: #d62728"/>
     <use xlink:href="#m819712f086" x="243.54297" y="465.712231" style="fill: #d62728; stroke: #d62728"/>
     <use xlink:href="#m819712f086" x="257.164964" y="421.868996" style="fill: #d62728; stroke: #d62728"/>
     <use xlink:href="#m819712f086" x="284.408952" y="457.412458" style="fill: #d62728; stroke: #d62728"/>
     <use xlink:href="#m819712f086" x="298.030946" y="454.1049" style="fill: #d62728; stroke: #d62728"/>
     <use xlink:href="#m819712f086" x="325.274934" y="488.92886" style="fill: #d62728; stroke: #d62728"/>
     <use xlink:href="#m819712f086" x="338.896928" y="458.206217" style="fill: #d62728; stroke: #d62728"/>
     <use xlink:href="#m819712f086" x="352.518921" y="456.170075" style="fill: #d62728; stroke: #d62728"/>
     <use xlink:href="#m819712f086" x="366.140915" y="461.129246" style="fill: #d62728; stroke: #d62728"/>
     <use xlink:href="#m819712f086" x="379.762909" y="463.233246" style="fill: #d62728; stroke: #d62728"/>
     <use xlink:href="#m819712f086" x="407.006897" y="459.084593" style="fill: #d62728; stroke: #d62728"/>
     <use xlink:href="#m819712f086" x="420.628891" y="457.457502" style="fill: #d62728; stroke: #d62728"/>
     <use xlink:href="#m819712f086" x="434.250885" y="478.796034" style="fill: #d62728; stroke: #d62728"/>
     <use xlink:href="#m819712f086" x="447.872879" y="480.720181" style="fill: #d62728; stroke: #d62728"/>
     <use xlink:href="#m819712f086" x="475.116867" y="466.047993" style="fill: #d62728; stroke: #d62728"/>
     <use xlink:href="#m819712f086" x="488.738861" y="478.470998" style="fill: #d62728; stroke: #d62728"/>
     <use xlink:href="#m819712f086" x="502.360855" y="479.912321" style="fill: #d62728; stroke: #d62728"/>
     <use xlink:href="#m819712f086" x="515.982849" y="480.445663" style="fill: #d62728; stroke: #d62728"/>
     <use xlink:href="#m819712f086" x="529.604842" y="480.535415" style="fill: #d62728; stroke: #d62728"/>
     <use xlink:href="#m819712f086" x="543.226836" y="481.301371" style="fill: #d62728; stroke: #d62728"/>
     <use xlink:href="#m819712f086" x="556.84883" y="479.19993" style="fill: #d62728; stroke: #d62728"/>
     <use xlink:href="#m819712f086" x="570.470824" y="481.650745" style="fill: #d62728; stroke: #d62728"/>
     <use xlink:href="#m819712f086" x="597.714812" y="479.964115" style="fill: #d62728; stroke: #d62728"/>
     <use xlink:href="#m819712f086" x="611.336806" y="477.156529" style="fill: #d62728; stroke: #d62728"/>
     <use xlink:href="#m819712f086" x="624.9588" y="479.532915" style="fill: #d62728; stroke: #d62728"/>
     <use xlink:href="#m819712f086" x="652.202788" y="478.356021" style="fill: #d62728; stroke: #d62728"/>
    </g>
   </g>
   <g id="patch_3">
    <path d="M 64.41375 529.308125 
L 64.41375 23.837813 
" style="fill: none; stroke: #000000; stroke-width: 0.8; stroke-linejoin: miter; stroke-linecap: square"/>
   </g>
   <g id="patch_4">
    <path d="M 708.734063 529.308125 
L 708.734063 23.837813 
" style="fill: none; stroke: #000000; stroke-width: 0.8; stroke-linejoin: miter; stroke-linecap: square"/>
   </g>
   <g id="patch_5">
    <path d="M 64.41375 529.308125 
L 708.734063 529.308125 
" style="fill: none; stroke: #000000; stroke-width: 0.8; stroke-linejoin: miter; stroke-linecap: square"/>
   </g>
   <g id="patch_6">
    <path d="M 64.41375 23.837812 
L 708.734063 23.837812 
" style="fill: none; stroke: #000000; stroke-width: 0.8; stroke-linejoin: miter; stroke-linecap: square"/>
   </g>
   <g id="text_11">
    <text style="font: 700 14px 'DejaVu Sans', 'Bitstream Vera Sans', 'Computer Modern Sans Serif', 'Lucida Grande', 'Verdana', 'Geneva', 'Lucid', 'Arial', 'Helvetica', 'Avant Garde', sans-serif; text-anchor: middle" x="386.573906" y="17.837813" transform="rotate(-0 386.573906 17.837813)">Nestedparallel - Performance Trend</text>
   </g>
   <g id="legend_1">
    <g id="patch_7">
     <path d="M 747.950078 90.550312 
L 846.336016 90.550312 
Q 848.336016 90.550312 848.336016 88.550312 
L 848.336016 30.837812 
Q 848.336016 28.837812 846.336016 28.837812 
L 747.950078 28.837812 
Q 745.950078 28.837812 745.950078 30.837812 
L 745.950078 88.550312 
Q 745.950078 90.550312 747.950078 90.550312 
z
" style="fill: #ffffff; opacity: 0.8; stroke: #cccccc; stroke-linejoin: miter"/>
    </g>
    <g id="line2d_22">
     <path d="M 749.950078 36.93625 
L 759.950078 36.93625 
L 769.950078 36.93625 
" style="fill: none; stroke: #1f77b4; stroke-width: 2; stroke-linecap: square"/>
     <g>
      <use xlink:href="#m0e3c41adbf" x="759.950078" y="36.93625" style="fill: #1f77b4; stroke: #1f77b4"/>
     </g>
    </g>
    <g id="text_12">
     <text style="font: 10px 'DejaVu Sans', 'Bitstream Vera Sans', 'Computer Modern Sans Serif', 'Lucida Grande', 'Verdana', 'Geneva', 'Lucid', 'Arial', 'Helvetica', 'Avant Garde', sans-serif; text-anchor: start" x="777.950078" y="40.43625" transform="rotate(-0 777.950078 40.43625)">gcc-14.2 - V1</text>
    </g>
    <g id="line2d_23">
     <path d="M 749.950078 51.614375 
L 759.950078 51.614375 
L 769.950078 51.614375 
" style="fill: none; stroke: #ff7f0e; stroke-width: 2; stroke-linecap: square"/>
     <g>
      <use xlink:href="#m2e979d999d" x="759.950078" y="51.614375" style="fill: #ff7f0e; stroke: #ff7f0e"/>
     </g>
    </g>
    <g id="text_13">
     <text style="font: 10px 'DejaVu Sans', 'Bitstream Vera Sans', 'Computer Modern Sans Serif', 'Lucida Grande', 'Verdana', 'Geneva', 'Lucid', 'Arial', 'Helvetica', 'Avant Garde', sans-serif; text-anchor: start" x="777.950078" y="55.114375" transform="rotate(-0 777.950078 55.114375)">gcc-14.2 - V2</text>
    </g>
    <g id="line2d_24">
     <path d="M 749.950078 66.2925 
L 759.950078 66.2925 
L 769.950078 66.2925 
" style="fill: none; stroke: #2ca02c; stroke-width: 2; stroke-linecap: square"/>
     <g>
      <use xlink:href="#mc07ea98ab6" x="759.950078" y="66.2925" style="fill: #2ca02c; stroke: #2ca02c"/>
     </g>
    </g>
    <g id="text_14">
     <text style="font: 10px 'DejaVu Sans', 'Bitstream Vera Sans', 'Computer Modern Sans Serif', 'Lucida Grande', 'Verdana', 'Geneva', 'Lucid', 'Arial', 'Helvetica', 'Avant Garde', sans-serif; text-anchor: start" x="777.950078" y="69.7925" transform="rotate(-0 777.950078 69.7925)">gcc-4.2 - V1</text>
    </g>
    <g id="line2d_25">
     <path d="M 749.950078 80.970625 
L 759.950078 80.970625 
L 769.950078 80.970625 
" style="fill: none; stroke: #d62728; stroke-width: 2; stroke-linecap: square"/>
     <g>
      <use xlink:href="#m819712f086" x="759.950078" y="80.970625" style="fill: #d62728; stroke: #d62728"/>
     </g>
    </g>
    <g id="text_15">
     <text style="font: 10px 'DejaVu Sans', 'Bitstream Vera Sans', 'Computer Modern Sans Serif', 'Lucida Grande', 'Verdana', 'Geneva', 'Lucid', 'Arial', 'Helvetica', 'Avant Garde', sans-serif; text-anchor: start" x="777.950078" y="84.470625" transform="rotate(-0 777.950078 84.470625)">gcc-4.2 - V2</text>
    </g>
   </g>
  </g>
 </g>
 <defs>
  <clipPath id="p03e47d4bb3">
   <rect x="64.41375" y="23.837813" width="644.320312" height="505.470313"/>
  </clipPath>
 </defs>
</svg>
