<?xml version="1.0" encoding="utf-8" standalone="no"?>
<!DOCTYPE svg PUBLIC "-//W3C//DTD SVG 1.1//EN"
  "http://www.w3.org/Graphics/SVG/1.1/DTD/svg11.dtd">
<svg xmlns:xlink="http://www.w3.org/1999/xlink" width="856.684141pt" height="568.8pt" viewBox="0 0 856.684141 568.8" xmlns="http://www.w3.org/2000/svg" version="1.1">
 <metadata>
  <rdf:RDF xmlns:dc="http://purl.org/dc/elements/1.1/" xmlns:cc="http://creativecommons.org/ns#" xmlns:rdf="http://www.w3.org/1999/02/22-rdf-syntax-ns#">
   <cc:Work>
    <dc:type rdf:resource="http://purl.org/dc/dcmitype/StillImage"/>
    <dc:date>2025-08-13T17:02:26.446304</dc:date>
    <dc:format>image/svg+xml</dc:format>
    <dc:creator>
     <cc:Agent>
      <dc:title>Matplotlib v3.9.4, https://matplotlib.org/</dc:title>
     </cc:Agent>
    </dc:creator>
   </cc:Work>
  </rdf:RDF>
 </metadata>
 <defs>
  <style type="text/css">*{stroke-linejoin: round; stroke-linecap: butt}</style>
 </defs>
 <g id="figure_1">
  <g id="patch_1">
   <path d="M 0 568.8 
L 856.684141 568.8 
L 856.684141 0 
L 0 0 
z
" style="fill: #ffffff"/>
  </g>
  <g id="axes_1">
   <g id="patch_2">
    <path d="M 64.41375 529.308125 
L 731.696562 529.308125 
L 731.696562 23.837812 
L 64.41375 23.837812 
z
" style="fill: #ffffff"/>
   </g>
   <g id="matplotlib.axis_1">
    <g id="xtick_1">
     <g id="line2d_1">
      <path d="M 141.407921 529.308125 
L 141.407921 23.837812 
" clip-path="url(#pdfac1776f2)" style="fill: none; stroke: #b0b0b0; stroke-opacity: 0.3; stroke-width: 0.8; stroke-linecap: square"/>
     </g>
     <g id="line2d_2">
      <defs>
       <path id="m9a7256dc8d" d="M 0 0 
L 0 3.5 
" style="stroke: #000000; stroke-width: 0.8"/>
      </defs>
      <g>
       <use xlink:href="#m9a7256dc8d" x="141.407921" y="529.308125" style="stroke: #000000; stroke-width: 0.8"/>
      </g>
     </g>
     <g id="text_1">
      <text style="font: 10px 'DejaVu Sans', 'Bitstream Vera Sans', 'Computer Modern Sans Serif', 'Lucida Grande', 'Verdana', 'Geneva', 'Lucid', 'Arial', 'Helvetica', 'Avant Garde', sans-serif; text-anchor: middle" x="141.407921" y="543.906563" transform="rotate(-0 141.407921 543.906563)">72</text>
     </g>
    </g>
    <g id="xtick_2">
     <g id="line2d_3">
      <path d="M 234.734188 529.308125 
L 234.734188 23.837812 
" clip-path="url(#pdfac1776f2)" style="fill: none; stroke: #b0b0b0; stroke-opacity: 0.3; stroke-width: 0.8; stroke-linecap: square"/>
     </g>
     <g id="line2d_4">
      <g>
       <use xlink:href="#m9a7256dc8d" x="234.734188" y="529.308125" style="stroke: #000000; stroke-width: 0.8"/>
      </g>
     </g>
     <g id="text_2">
      <text style="font: 10px 'DejaVu Sans', 'Bitstream Vera Sans', 'Computer Modern Sans Serif', 'Lucida Grande', 'Verdana', 'Geneva', 'Lucid', 'Arial', 'Helvetica', 'Avant Garde', sans-serif; text-anchor: middle" x="234.734188" y="543.906563" transform="rotate(-0 234.734188 543.906563)">74</text>
     </g>
    </g>
    <g id="xtick_3">
     <g id="line2d_5">
      <path d="M 328.060456 529.308125 
L 328.060456 23.837812 
" clip-path="url(#pdfac1776f2)" style="fill: none; stroke: #b0b0b0; stroke-opacity: 0.3; stroke-width: 0.8; stroke-linecap: square"/>
     </g>
     <g id="line2d_6">
      <g>
       <use xlink:href="#m9a7256dc8d" x="328.060456" y="529.308125" style="stroke: #000000; stroke-width: 0.8"/>
      </g>
     </g>
     <g id="text_3">
      <text style="font: 10px 'DejaVu Sans', 'Bitstream Vera Sans', 'Computer Modern Sans Serif', 'Lucida Grande', 'Verdana', 'Geneva', 'Lucid', 'Arial', 'Helvetica', 'Avant Garde', sans-serif; text-anchor: middle" x="328.060456" y="543.906563" transform="rotate(-0 328.060456 543.906563)">76</text>
     </g>
    </g>
    <g id="xtick_4">
     <g id="line2d_7">
      <path d="M 421.386723 529.308125 
L 421.386723 23.837812 
" clip-path="url(#pdfac1776f2)" style="fill: none; stroke: #b0b0b0; stroke-opacity: 0.3; stroke-width: 0.8; stroke-linecap: square"/>
     </g>
     <g id="line2d_8">
      <g>
       <use xlink:href="#m9a7256dc8d" x="421.386723" y="529.308125" style="stroke: #000000; stroke-width: 0.8"/>
      </g>
     </g>
     <g id="text_4">
      <text style="font: 10px 'DejaVu Sans', 'Bitstream Vera Sans', 'Computer Modern Sans Serif', 'Lucida Grande', 'Verdana', 'Geneva', 'Lucid', 'Arial', 'Helvetica', 'Avant Garde', sans-serif; text-anchor: middle" x="421.386723" y="543.906563" transform="rotate(-0 421.386723 543.906563)">78</text>
     </g>
    </g>
    <g id="xtick_5">
     <g id="line2d_9">
      <path d="M 514.712991 529.308125 
L 514.712991 23.837812 
" clip-path="url(#pdfac1776f2)" style="fill: none; stroke: #b0b0b0; stroke-opacity: 0.3; stroke-width: 0.8; stroke-linecap: square"/>
     </g>
     <g id="line2d_10">
      <g>
       <use xlink:href="#m9a7256dc8d" x="514.712991" y="529.308125" style="stroke: #000000; stroke-width: 0.8"/>
      </g>
     </g>
     <g id="text_5">
      <text style="font: 10px 'DejaVu Sans', 'Bitstream Vera Sans', 'Computer Modern Sans Serif', 'Lucida Grande', 'Verdana', 'Geneva', 'Lucid', 'Arial', 'Helvetica', 'Avant Garde', sans-serif; text-anchor: middle" x="514.712991" y="543.906563" transform="rotate(-0 514.712991 543.906563)">80</text>
     </g>
    </g>
    <g id="xtick_6">
     <g id="line2d_11">
      <path d="M 608.039258 529.308125 
L 608.039258 23.837812 
" clip-path="url(#pdfac1776f2)" style="fill: none; stroke: #b0b0b0; stroke-opacity: 0.3; stroke-width: 0.8; stroke-linecap: square"/>
     </g>
     <g id="line2d_12">
      <g>
       <use xlink:href="#m9a7256dc8d" x="608.039258" y="529.308125" style="stroke: #000000; stroke-width: 0.8"/>
      </g>
     </g>
     <g id="text_6">
      <text style="font: 10px 'DejaVu Sans', 'Bitstream Vera Sans', 'Computer Modern Sans Serif', 'Lucida Grande', 'Verdana', 'Geneva', 'Lucid', 'Arial', 'Helvetica', 'Avant Garde', sans-serif; text-anchor: middle" x="608.039258" y="543.906563" transform="rotate(-0 608.039258 543.906563)">82</text>
     </g>
    </g>
    <g id="xtick_7">
     <g id="line2d_13">
      <path d="M 701.365526 529.308125 
L 701.365526 23.837812 
" clip-path="url(#pdfac1776f2)" style="fill: none; stroke: #b0b0b0; stroke-opacity: 0.3; stroke-width: 0.8; stroke-linecap: square"/>
     </g>
     <g id="line2d_14">
      <g>
       <use xlink:href="#m9a7256dc8d" x="701.365526" y="529.308125" style="stroke: #000000; stroke-width: 0.8"/>
      </g>
     </g>
     <g id="text_7">
      <text style="font: 10px 'DejaVu Sans', 'Bitstream Vera Sans', 'Computer Modern Sans Serif', 'Lucida Grande', 'Verdana', 'Geneva', 'Lucid', 'Arial', 'Helvetica', 'Avant Garde', sans-serif; text-anchor: middle" x="701.365526" y="543.906563" transform="rotate(-0 701.365526 543.906563)">84</text>
     </g>
    </g>
    <g id="text_8">
     <text style="font: 12px 'DejaVu Sans', 'Bitstream Vera Sans', 'Computer Modern Sans Serif', 'Lucida Grande', 'Verdana', 'Geneva', 'Lucid', 'Arial', 'Helvetica', 'Avant Garde', sans-serif; text-anchor: middle" x="398.055156" y="559.104375" transform="rotate(-0 398.055156 559.104375)">Build Number</text>
    </g>
   </g>
   <g id="matplotlib.axis_2">
    <g id="ytick_1">
     <g id="line2d_15">
      <defs>
       <path id="m026b79a0bc" d="M 0 0 
L -2 0 
" style="stroke: #000000; stroke-width: 0.6"/>
      </defs>
      <g>
       <use xlink:href="#m026b79a0bc" x="64.41375" y="405.479574" style="stroke: #000000; stroke-width: 0.6"/>
      </g>
     </g>
     <g id="text_9">
      <!-- $\mathdefault{6\times10^{0}}$ -->
      <g transform="translate(22.81375 409.278793)">
       <text>
        <tspan style="font: 10px 'DejaVu Sans'" x="0 8.310547 18.637695 25" y="-0.9765625">6×10</tspan>
        <tspan style="font: 7px 'DejaVu Sans'" x="31.458008" y="-4.8046875">0</tspan>
       </text>
      </g>
     </g>
    </g>
    <g id="ytick_2">
     <g id="line2d_16">
      <g>
       <use xlink:href="#m026b79a0bc" x="64.41375" y="174.162949" style="stroke: #000000; stroke-width: 0.6"/>
      </g>
     </g>
     <g id="text_10">
      <!-- $\mathdefault{7\times10^{0}}$ -->
      <g transform="translate(22.81375 177.962167)">
       <text>
        <tspan style="font: 10px 'DejaVu Sans'" x="0 8.310547 18.637695 25" y="-0.9765625">7×10</tspan>
        <tspan style="font: 7px 'DejaVu Sans'" x="31.458008" y="-4.8046875">0</tspan>
       </text>
      </g>
     </g>
    </g>
    <g id="text_11">
     <text style="font: 12px 'DejaVu Sans', 'Bitstream Vera Sans', 'Computer Modern Sans Serif', 'Lucida Grande', 'Verdana', 'Geneva', 'Lucid', 'Arial', 'Helvetica', 'Avant Garde', sans-serif; text-anchor: middle" x="16.318125" y="276.572969" transform="rotate(-90 16.318125 276.572969)">Median Elapsed Time (nanoseconds)</text>
    </g>
   </g>
   <g id="line2d_17">
    <path d="M 94.744787 327.509425 
L 141.407921 329.885653 
L 188.071054 306.29102 
L 234.734188 329.885653 
L 281.397322 353.857214 
L 328.060456 329.885653 
L 374.723589 329.885653 
L 421.386723 329.885653 
L 468.049857 329.885653 
L 514.712991 329.885653 
L 561.376124 306.29102 
L 608.039258 329.885653 
L 654.702392 329.885653 
" clip-path="url(#pdfac1776f2)" style="fill: none; stroke: #1f77b4; stroke-width: 2; stroke-linecap: square"/>
    <defs>
     <path id="m08c93e56cd" d="M 0 3 
C 0.795609 3 1.55874 2.683901 2.12132 2.12132 
C 2.683901 1.55874 3 0.795609 3 0 
C 3 -0.795609 2.683901 -1.55874 2.12132 -2.12132 
C 1.55874 -2.683901 0.795609 -3 0 -3 
C -0.795609 -3 -1.55874 -2.683901 -2.12132 -2.12132 
C -2.683901 -1.55874 -3 -0.795609 -3 0 
C -3 0.795609 -2.683901 1.55874 -2.12132 2.12132 
C -1.55874 2.683901 -0.795609 3 0 3 
z
" style="stroke: #1f77b4"/>
    </defs>
    <g clip-path="url(#pdfac1776f2)">
     <use xlink:href="#m08c93e56cd" x="94.744787" y="327.509425" style="fill: #1f77b4; stroke: #1f77b4"/>
     <use xlink:href="#m08c93e56cd" x="141.407921" y="329.885653" style="fill: #1f77b4; stroke: #1f77b4"/>
     <use xlink:href="#m08c93e56cd" x="188.071054" y="306.29102" style="fill: #1f77b4; stroke: #1f77b4"/>
     <use xlink:href="#m08c93e56cd" x="234.734188" y="329.885653" style="fill: #1f77b4; stroke: #1f77b4"/>
     <use xlink:href="#m08c93e56cd" x="281.397322" y="353.857214" style="fill: #1f77b4; stroke: #1f77b4"/>
     <use xlink:href="#m08c93e56cd" x="328.060456" y="329.885653" style="fill: #1f77b4; stroke: #1f77b4"/>
     <use xlink:href="#m08c93e56cd" x="374.723589" y="329.885653" style="fill: #1f77b4; stroke: #1f77b4"/>
     <use xlink:href="#m08c93e56cd" x="421.386723" y="329.885653" style="fill: #1f77b4; stroke: #1f77b4"/>
     <use xlink:href="#m08c93e56cd" x="468.049857" y="329.885653" style="fill: #1f77b4; stroke: #1f77b4"/>
     <use xlink:href="#m08c93e56cd" x="514.712991" y="329.885653" style="fill: #1f77b4; stroke: #1f77b4"/>
     <use xlink:href="#m08c93e56cd" x="561.376124" y="306.29102" style="fill: #1f77b4; stroke: #1f77b4"/>
     <use xlink:href="#m08c93e56cd" x="608.039258" y="329.885653" style="fill: #1f77b4; stroke: #1f77b4"/>
     <use xlink:href="#m08c93e56cd" x="654.702392" y="329.885653" style="fill: #1f77b4; stroke: #1f77b4"/>
    </g>
   </g>
   <g id="line2d_18">
    <path d="M 94.744787 506.332202 
L 141.407921 402.980676 
L 188.071054 402.980676 
L 234.734188 402.980676 
L 281.397322 402.980676 
L 328.060456 378.21794 
L 374.723589 400.485933 
L 421.386723 400.485933 
L 468.049857 402.980676 
L 514.712991 402.980676 
L 561.376124 402.980676 
L 608.039258 46.813736 
L 654.702392 378.21794 
L 701.365526 402.980676 
" clip-path="url(#pdfac1776f2)" style="fill: none; stroke: #ff7f0e; stroke-width: 2; stroke-linecap: square"/>
    <defs>
     <path id="mc66c410dab" d="M 0 3 
C 0.795609 3 1.55874 2.683901 2.12132 2.12132 
C 2.683901 1.55874 3 0.795609 3 0 
C 3 -0.795609 2.683901 -1.55874 2.12132 -2.12132 
C 1.55874 -2.683901 0.795609 -3 0 -3 
C -0.795609 -3 -1.55874 -2.683901 -2.12132 -2.12132 
C -2.683901 -1.55874 -3 -0.795609 -3 0 
C -3 0.795609 -2.683901 1.55874 -2.12132 2.12132 
C -1.55874 2.683901 -0.795609 3 0 3 
z
" style="stroke: #ff7f0e"/>
    </defs>
    <g clip-path="url(#pdfac1776f2)">
     <use xlink:href="#mc66c410dab" x="94.744787" y="506.332202" style="fill: #ff7f0e; stroke: #ff7f0e"/>
     <use xlink:href="#mc66c410dab" x="141.407921" y="402.980676" style="fill: #ff7f0e; stroke: #ff7f0e"/>
     <use xlink:href="#mc66c410dab" x="188.071054" y="402.980676" style="fill: #ff7f0e; stroke: #ff7f0e"/>
     <use xlink:href="#mc66c410dab" x="234.734188" y="402.980676" style="fill: #ff7f0e; stroke: #ff7f0e"/>
     <use xlink:href="#mc66c410dab" x="281.397322" y="402.980676" style="fill: #ff7f0e; stroke: #ff7f0e"/>
     <use xlink:href="#mc66c410dab" x="328.060456" y="378.21794" style="fill: #ff7f0e; stroke: #ff7f0e"/>
     <use xlink:href="#mc66c410dab" x="374.723589" y="400.485933" style="fill: #ff7f0e; stroke: #ff7f0e"/>
     <use xlink:href="#mc66c410dab" x="421.386723" y="400.485933" style="fill: #ff7f0e; stroke: #ff7f0e"/>
     <use xlink:href="#mc66c410dab" x="468.049857" y="402.980676" style="fill: #ff7f0e; stroke: #ff7f0e"/>
     <use xlink:href="#mc66c410dab" x="514.712991" y="402.980676" style="fill: #ff7f0e; stroke: #ff7f0e"/>
     <use xlink:href="#mc66c410dab" x="561.376124" y="402.980676" style="fill: #ff7f0e; stroke: #ff7f0e"/>
     <use xlink:href="#mc66c410dab" x="608.039258" y="46.813736" style="fill: #ff7f0e; stroke: #ff7f0e"/>
     <use xlink:href="#mc66c410dab" x="654.702392" y="378.21794" style="fill: #ff7f0e; stroke: #ff7f0e"/>
     <use xlink:href="#mc66c410dab" x="701.365526" y="402.980676" style="fill: #ff7f0e; stroke: #ff7f0e"/>
    </g>
   </g>
   <g id="patch_3">
    <path d="M 64.41375 529.308125 
L 64.41375 23.837812 
" style="fill: none; stroke: #000000; stroke-width: 0.8; stroke-linejoin: miter; stroke-linecap: square"/>
   </g>
   <g id="patch_4">
    <path d="M 731.696562 529.308125 
L 731.696562 23.837812 
" style="fill: none; stroke: #000000; stroke-width: 0.8; stroke-linejoin: miter; stroke-linecap: square"/>
   </g>
   <g id="patch_5">
    <path d="M 64.41375 529.308125 
L 731.696563 529.308125 
" style="fill: none; stroke: #000000; stroke-width: 0.8; stroke-linejoin: miter; stroke-linecap: square"/>
   </g>
   <g id="patch_6">
    <path d="M 64.41375 23.837812 
L 731.696563 23.837812 
" style="fill: none; stroke: #000000; stroke-width: 0.8; stroke-linejoin: miter; stroke-linecap: square"/>
   </g>
   <g id="text_12">
    <text style="font: 700 14px 'DejaVu Sans', 'Bitstream Vera Sans', 'Computer Modern Sans Serif', 'Lucida Grande', 'Verdana', 'Geneva', 'Lucid', 'Arial', 'Helvetica', 'Avant Garde', sans-serif; text-anchor: middle" x="398.055156" y="17.837813" transform="rotate(-0 398.055156 17.837813)">Ts Shared Linear Single Thread - Performance Trend</text>
   </g>
   <g id="legend_1">
    <g id="patch_7">
     <path d="M 772.060703 61.194063 
L 847.484141 61.194063 
Q 849.484141 61.194063 849.484141 59.194063 
L 849.484141 30.837813 
Q 849.484141 28.837813 847.484141 28.837813 
L 772.060703 28.837813 
Q 770.060703 28.837813 770.060703 30.837813 
L 770.060703 59.194063 
Q 770.060703 61.194063 772.060703 61.194063 
z
" style="fill: #ffffff; opacity: 0.8; stroke: #cccccc; stroke-linejoin: miter"/>
    </g>
    <g id="line2d_19">
     <path d="M 774.060703 36.93625 
L 784.060703 36.93625 
L 794.060703 36.93625 
" style="fill: none; stroke: #1f77b4; stroke-width: 2; stroke-linecap: square"/>
     <g>
      <use xlink:href="#m08c93e56cd" x="784.060703" y="36.93625" style="fill: #1f77b4; stroke: #1f77b4"/>
     </g>
    </g>
    <g id="text_13">
     <text style="font: 10px 'DejaVu Sans', 'Bitstream Vera Sans', 'Computer Modern Sans Serif', 'Lucida Grande', 'Verdana', 'Geneva', 'Lucid', 'Arial', 'Helvetica', 'Avant Garde', sans-serif; text-anchor: start" x="802.060703" y="40.43625" transform="rotate(-0 802.060703 40.43625)">clang-18</text>
    </g>
    <g id="line2d_20">
     <path d="M 774.060703 51.614375 
L 784.060703 51.614375 
L 794.060703 51.614375 
" style="fill: none; stroke: #ff7f0e; stroke-width: 2; stroke-linecap: square"/>
     <g>
      <use xlink:href="#mc66c410dab" x="784.060703" y="51.614375" style="fill: #ff7f0e; stroke: #ff7f0e"/>
     </g>
    </g>
    <g id="text_14">
     <text style="font: 10px 'DejaVu Sans', 'Bitstream Vera Sans', 'Computer Modern Sans Serif', 'Lucida Grande', 'Verdana', 'Geneva', 'Lucid', 'Arial', 'Helvetica', 'Avant Garde', sans-serif; text-anchor: start" x="802.060703" y="55.114375" transform="rotate(-0 802.060703 55.114375)">gcc-14</text>
    </g>
   </g>
  </g>
 </g>
 <defs>
  <clipPath id="pdfac1776f2">
   <rect x="64.41375" y="23.837813" width="667.282812" height="505.470313"/>
  </clipPath>
 </defs>
</svg>
