<?xml version="1.0" encoding="utf-8" standalone="no"?>
<!DOCTYPE svg PUBLIC "-//W3C//DTD SVG 1.1//EN"
  "http://www.w3.org/Graphics/SVG/1.1/DTD/svg11.dtd">
<svg xmlns:xlink="http://www.w3.org/1999/xlink" width="855.204687pt" height="568.8pt" viewBox="0 0 855.204687 568.8" xmlns="http://www.w3.org/2000/svg" version="1.1">
 <metadata>
  <rdf:RDF xmlns:dc="http://purl.org/dc/elements/1.1/" xmlns:cc="http://creativecommons.org/ns#" xmlns:rdf="http://www.w3.org/1999/02/22-rdf-syntax-ns#">
   <cc:Work>
    <dc:type rdf:resource="http://purl.org/dc/dcmitype/StillImage"/>
    <dc:date>2025-08-28T18:43:34.802325</dc:date>
    <dc:format>image/svg+xml</dc:format>
    <dc:creator>
     <cc:Agent>
      <dc:title>Matplotlib v3.9.4, https://matplotlib.org/</dc:title>
     </cc:Agent>
    </dc:creator>
   </cc:Work>
  </rdf:RDF>
 </metadata>
 <defs>
  <style type="text/css">*{stroke-linejoin: round; stroke-linecap: butt}</style>
 </defs>
 <g id="figure_1">
  <g id="patch_1">
   <path d="M 0 568.8 
L 855.204687 568.8 
L 855.204687 0 
L 0 0 
z
" style="fill: #ffffff"/>
  </g>
  <g id="axes_1">
   <g id="patch_2">
    <path d="M 64.41375 529.308125 
L 702.1075 529.308125 
L 702.1075 23.837812 
L 64.41375 23.837812 
z
" style="fill: #ffffff"/>
   </g>
   <g id="matplotlib.axis_1">
    <g id="xtick_1">
     <g id="line2d_1">
      <path d="M 78.143998 529.308125 
L 78.143998 23.837812 
" clip-path="url(#pcd110a3e8d)" style="fill: none; stroke: #b0b0b0; stroke-opacity: 0.3; stroke-width: 0.8; stroke-linecap: square"/>
     </g>
     <g id="line2d_2">
      <defs>
       <path id="m5a8900ab74" d="M 0 0 
L 0 3.5 
" style="stroke: #000000; stroke-width: 0.8"/>
      </defs>
      <g>
       <use xlink:href="#m5a8900ab74" x="78.143998" y="529.308125" style="stroke: #000000; stroke-width: 0.8"/>
      </g>
     </g>
     <g id="text_1">
      <text style="font: 10px 'DejaVu Sans', 'Bitstream Vera Sans', 'Computer Modern Sans Serif', 'Lucida Grande', 'Verdana', 'Geneva', 'Lucid', 'Arial', 'Helvetica', 'Avant Garde', sans-serif; text-anchor: middle" x="78.143998" y="543.906563" transform="rotate(-0 78.143998 543.906563)">70</text>
     </g>
    </g>
    <g id="xtick_2">
     <g id="line2d_3">
      <path d="M 154.423155 529.308125 
L 154.423155 23.837812 
" clip-path="url(#pcd110a3e8d)" style="fill: none; stroke: #b0b0b0; stroke-opacity: 0.3; stroke-width: 0.8; stroke-linecap: square"/>
     </g>
     <g id="line2d_4">
      <g>
       <use xlink:href="#m5a8900ab74" x="154.423155" y="529.308125" style="stroke: #000000; stroke-width: 0.8"/>
      </g>
     </g>
     <g id="text_2">
      <text style="font: 10px 'DejaVu Sans', 'Bitstream Vera Sans', 'Computer Modern Sans Serif', 'Lucida Grande', 'Verdana', 'Geneva', 'Lucid', 'Arial', 'Helvetica', 'Avant Garde', sans-serif; text-anchor: middle" x="154.423155" y="543.906563" transform="rotate(-0 154.423155 543.906563)">75</text>
     </g>
    </g>
    <g id="xtick_3">
     <g id="line2d_5">
      <path d="M 230.702312 529.308125 
L 230.702312 23.837812 
" clip-path="url(#pcd110a3e8d)" style="fill: none; stroke: #b0b0b0; stroke-opacity: 0.3; stroke-width: 0.8; stroke-linecap: square"/>
     </g>
     <g id="line2d_6">
      <g>
       <use xlink:href="#m5a8900ab74" x="230.702312" y="529.308125" style="stroke: #000000; stroke-width: 0.8"/>
      </g>
     </g>
     <g id="text_3">
      <text style="font: 10px 'DejaVu Sans', 'Bitstream Vera Sans', 'Computer Modern Sans Serif', 'Lucida Grande', 'Verdana', 'Geneva', 'Lucid', 'Arial', 'Helvetica', 'Avant Garde', sans-serif; text-anchor: middle" x="230.702312" y="543.906563" transform="rotate(-0 230.702312 543.906563)">80</text>
     </g>
    </g>
    <g id="xtick_4">
     <g id="line2d_7">
      <path d="M 306.981468 529.308125 
L 306.981468 23.837812 
" clip-path="url(#pcd110a3e8d)" style="fill: none; stroke: #b0b0b0; stroke-opacity: 0.3; stroke-width: 0.8; stroke-linecap: square"/>
     </g>
     <g id="line2d_8">
      <g>
       <use xlink:href="#m5a8900ab74" x="306.981468" y="529.308125" style="stroke: #000000; stroke-width: 0.8"/>
      </g>
     </g>
     <g id="text_4">
      <text style="font: 10px 'DejaVu Sans', 'Bitstream Vera Sans', 'Computer Modern Sans Serif', 'Lucida Grande', 'Verdana', 'Geneva', 'Lucid', 'Arial', 'Helvetica', 'Avant Garde', sans-serif; text-anchor: middle" x="306.981468" y="543.906563" transform="rotate(-0 306.981468 543.906563)">85</text>
     </g>
    </g>
    <g id="xtick_5">
     <g id="line2d_9">
      <path d="M 383.260625 529.308125 
L 383.260625 23.837812 
" clip-path="url(#pcd110a3e8d)" style="fill: none; stroke: #b0b0b0; stroke-opacity: 0.3; stroke-width: 0.8; stroke-linecap: square"/>
     </g>
     <g id="line2d_10">
      <g>
       <use xlink:href="#m5a8900ab74" x="383.260625" y="529.308125" style="stroke: #000000; stroke-width: 0.8"/>
      </g>
     </g>
     <g id="text_5">
      <text style="font: 10px 'DejaVu Sans', 'Bitstream Vera Sans', 'Computer Modern Sans Serif', 'Lucida Grande', 'Verdana', 'Geneva', 'Lucid', 'Arial', 'Helvetica', 'Avant Garde', sans-serif; text-anchor: middle" x="383.260625" y="543.906563" transform="rotate(-0 383.260625 543.906563)">90</text>
     </g>
    </g>
    <g id="xtick_6">
     <g id="line2d_11">
      <path d="M 459.539782 529.308125 
L 459.539782 23.837812 
" clip-path="url(#pcd110a3e8d)" style="fill: none; stroke: #b0b0b0; stroke-opacity: 0.3; stroke-width: 0.8; stroke-linecap: square"/>
     </g>
     <g id="line2d_12">
      <g>
       <use xlink:href="#m5a8900ab74" x="459.539782" y="529.308125" style="stroke: #000000; stroke-width: 0.8"/>
      </g>
     </g>
     <g id="text_6">
      <text style="font: 10px 'DejaVu Sans', 'Bitstream Vera Sans', 'Computer Modern Sans Serif', 'Lucida Grande', 'Verdana', 'Geneva', 'Lucid', 'Arial', 'Helvetica', 'Avant Garde', sans-serif; text-anchor: middle" x="459.539782" y="543.906563" transform="rotate(-0 459.539782 543.906563)">95</text>
     </g>
    </g>
    <g id="xtick_7">
     <g id="line2d_13">
      <path d="M 535.818938 529.308125 
L 535.818938 23.837812 
" clip-path="url(#pcd110a3e8d)" style="fill: none; stroke: #b0b0b0; stroke-opacity: 0.3; stroke-width: 0.8; stroke-linecap: square"/>
     </g>
     <g id="line2d_14">
      <g>
       <use xlink:href="#m5a8900ab74" x="535.818938" y="529.308125" style="stroke: #000000; stroke-width: 0.8"/>
      </g>
     </g>
     <g id="text_7">
      <text style="font: 10px 'DejaVu Sans', 'Bitstream Vera Sans', 'Computer Modern Sans Serif', 'Lucida Grande', 'Verdana', 'Geneva', 'Lucid', 'Arial', 'Helvetica', 'Avant Garde', sans-serif; text-anchor: middle" x="535.818938" y="543.906563" transform="rotate(-0 535.818938 543.906563)">100</text>
     </g>
    </g>
    <g id="xtick_8">
     <g id="line2d_15">
      <path d="M 612.098095 529.308125 
L 612.098095 23.837812 
" clip-path="url(#pcd110a3e8d)" style="fill: none; stroke: #b0b0b0; stroke-opacity: 0.3; stroke-width: 0.8; stroke-linecap: square"/>
     </g>
     <g id="line2d_16">
      <g>
       <use xlink:href="#m5a8900ab74" x="612.098095" y="529.308125" style="stroke: #000000; stroke-width: 0.8"/>
      </g>
     </g>
     <g id="text_8">
      <text style="font: 10px 'DejaVu Sans', 'Bitstream Vera Sans', 'Computer Modern Sans Serif', 'Lucida Grande', 'Verdana', 'Geneva', 'Lucid', 'Arial', 'Helvetica', 'Avant Garde', sans-serif; text-anchor: middle" x="612.098095" y="543.906563" transform="rotate(-0 612.098095 543.906563)">105</text>
     </g>
    </g>
    <g id="xtick_9">
     <g id="line2d_17">
      <path d="M 688.377252 529.308125 
L 688.377252 23.837812 
" clip-path="url(#pcd110a3e8d)" style="fill: none; stroke: #b0b0b0; stroke-opacity: 0.3; stroke-width: 0.8; stroke-linecap: square"/>
     </g>
     <g id="line2d_18">
      <g>
       <use xlink:href="#m5a8900ab74" x="688.377252" y="529.308125" style="stroke: #000000; stroke-width: 0.8"/>
      </g>
     </g>
     <g id="text_9">
      <text style="font: 10px 'DejaVu Sans', 'Bitstream Vera Sans', 'Computer Modern Sans Serif', 'Lucida Grande', 'Verdana', 'Geneva', 'Lucid', 'Arial', 'Helvetica', 'Avant Garde', sans-serif; text-anchor: middle" x="688.377252" y="543.906563" transform="rotate(-0 688.377252 543.906563)">110</text>
     </g>
    </g>
    <g id="text_10">
     <text style="font: 12px 'DejaVu Sans', 'Bitstream Vera Sans', 'Computer Modern Sans Serif', 'Lucida Grande', 'Verdana', 'Geneva', 'Lucid', 'Arial', 'Helvetica', 'Avant Garde', sans-serif; text-anchor: middle" x="383.260625" y="559.104375" transform="rotate(-0 383.260625 559.104375)">Build Number</text>
    </g>
   </g>
   <g id="matplotlib.axis_2">
    <g id="ytick_1">
     <g id="line2d_19">
      <defs>
       <path id="mbe48446fdf" d="M 0 0 
L -2 0 
" style="stroke: #000000; stroke-width: 0.6"/>
      </defs>
      <g>
       <use xlink:href="#mbe48446fdf" x="64.41375" y="417.011716" style="stroke: #000000; stroke-width: 0.6"/>
      </g>
     </g>
     <g id="text_11">
      <!-- $\mathdefault{3\times10^{5}}$ -->
      <g transform="translate(22.81375 420.810934)">
       <text>
        <tspan style="font: 10px 'DejaVu Sans'" x="0 8.310547 18.637695 25" y="-0.06406250000000036">3×10</tspan>
        <tspan style="font: 7px 'DejaVu Sans'" x="31.458008" y="-3.8921875000000004">5</tspan>
       </text>
      </g>
     </g>
    </g>
    <g id="ytick_2">
     <g id="line2d_20">
      <g>
       <use xlink:href="#mbe48446fdf" x="64.41375" y="310.236742" style="stroke: #000000; stroke-width: 0.6"/>
      </g>
     </g>
     <g id="text_12">
      <!-- $\mathdefault{4\times10^{5}}$ -->
      <g transform="translate(22.81375 314.035961)">
       <text>
        <tspan style="font: 10px 'DejaVu Sans'" x="0 8.310547 18.637695 25" y="-0.06406250000000036">4×10</tspan>
        <tspan style="font: 7px 'DejaVu Sans'" x="31.458008" y="-3.8921875000000004">5</tspan>
       </text>
      </g>
     </g>
    </g>
    <g id="ytick_3">
     <g id="line2d_21">
      <g>
       <use xlink:href="#mbe48446fdf" x="64.41375" y="227.415638" style="stroke: #000000; stroke-width: 0.6"/>
      </g>
     </g>
    </g>
    <g id="ytick_4">
     <g id="line2d_22">
      <g>
       <use xlink:href="#mbe48446fdf" x="64.41375" y="159.745869" style="stroke: #000000; stroke-width: 0.6"/>
      </g>
     </g>
     <g id="text_13">
      <!-- $\mathdefault{6\times10^{5}}$ -->
      <g transform="translate(22.81375 163.545088)">
       <text>
        <tspan style="font: 10px 'DejaVu Sans'" x="0 8.310547 18.637695 25" y="-0.06406250000000036">6×10</tspan>
        <tspan style="font: 7px 'DejaVu Sans'" x="31.458008" y="-3.8921875000000004">5</tspan>
       </text>
      </g>
     </g>
    </g>
    <g id="ytick_5">
     <g id="line2d_23">
      <g>
       <use xlink:href="#mbe48446fdf" x="64.41375" y="102.531895" style="stroke: #000000; stroke-width: 0.6"/>
      </g>
     </g>
    </g>
    <g id="ytick_6">
     <g id="line2d_24">
      <g>
       <use xlink:href="#mbe48446fdf" x="64.41375" y="52.970896" style="stroke: #000000; stroke-width: 0.6"/>
      </g>
     </g>
    </g>
    <g id="text_14">
     <text style="font: 12px 'DejaVu Sans', 'Bitstream Vera Sans', 'Computer Modern Sans Serif', 'Lucida Grande', 'Verdana', 'Geneva', 'Lucid', 'Arial', 'Helvetica', 'Avant Garde', sans-serif; text-anchor: middle" x="16.318125" y="276.572969" transform="rotate(-90 16.318125 276.572969)">Median Elapsed Time (nanoseconds)</text>
    </g>
   </g>
   <g id="line2d_25">
    <path d="M 93.39983 482.470795 
L 108.655661 268.656836 
L 123.911492 287.704452 
L 139.167324 403.035091 
L 154.423155 270.696658 
L 169.678986 479.96875 
L 184.934818 401.751841 
L 200.190649 205.105915 
L 215.44648 262.707773 
L 230.702312 483.038381 
L 245.958143 433.234763 
L 261.213974 267.781034 
L 276.469806 458.113326 
L 291.725637 375.700544 
L 306.981468 344.2423 
L 322.2373 485.939607 
L 352.748962 427.534791 
L 368.004794 158.059153 
L 383.260625 400.69281 
L 398.516456 144.855386 
L 413.772288 348.746101 
L 429.028119 227.854382 
L 444.28395 487.752332 
L 459.539782 317.609384 
L 474.795613 486.08607 
L 490.051444 265.637883 
L 520.563107 454.638269 
L 535.818938 332.325175 
L 551.07477 488.218328 
L 566.330601 485.046585 
L 581.586432 301.788225 
L 596.842264 482.596407 
L 612.098095 486.10142 
L 627.353926 289.826267 
L 657.865589 281.851871 
L 673.12142 266.317505 
" clip-path="url(#pcd110a3e8d)" style="fill: none; stroke: #1f77b4; stroke-width: 2; stroke-linecap: square"/>
    <defs>
     <path id="mc998ba7fe6" d="M 0 3 
C 0.795609 3 1.55874 2.683901 2.12132 2.12132 
C 2.683901 1.55874 3 0.795609 3 0 
C 3 -0.795609 2.683901 -1.55874 2.12132 -2.12132 
C 1.55874 -2.683901 0.795609 -3 0 -3 
C -0.795609 -3 -1.55874 -2.683901 -2.12132 -2.12132 
C -2.683901 -1.55874 -3 -0.795609 -3 0 
C -3 0.795609 -2.683901 1.55874 -2.12132 2.12132 
C -1.55874 2.683901 -0.795609 3 0 3 
z
" style="stroke: #1f77b4"/>
    </defs>
    <g clip-path="url(#pcd110a3e8d)">
     <use xlink:href="#mc998ba7fe6" x="93.39983" y="482.470795" style="fill: #1f77b4; stroke: #1f77b4"/>
     <use xlink:href="#mc998ba7fe6" x="108.655661" y="268.656836" style="fill: #1f77b4; stroke: #1f77b4"/>
     <use xlink:href="#mc998ba7fe6" x="123.911492" y="287.704452" style="fill: #1f77b4; stroke: #1f77b4"/>
     <use xlink:href="#mc998ba7fe6" x="139.167324" y="403.035091" style="fill: #1f77b4; stroke: #1f77b4"/>
     <use xlink:href="#mc998ba7fe6" x="154.423155" y="270.696658" style="fill: #1f77b4; stroke: #1f77b4"/>
     <use xlink:href="#mc998ba7fe6" x="169.678986" y="479.96875" style="fill: #1f77b4; stroke: #1f77b4"/>
     <use xlink:href="#mc998ba7fe6" x="184.934818" y="401.751841" style="fill: #1f77b4; stroke: #1f77b4"/>
     <use xlink:href="#mc998ba7fe6" x="200.190649" y="205.105915" style="fill: #1f77b4; stroke: #1f77b4"/>
     <use xlink:href="#mc998ba7fe6" x="215.44648" y="262.707773" style="fill: #1f77b4; stroke: #1f77b4"/>
     <use xlink:href="#mc998ba7fe6" x="230.702312" y="483.038381" style="fill: #1f77b4; stroke: #1f77b4"/>
     <use xlink:href="#mc998ba7fe6" x="245.958143" y="433.234763" style="fill: #1f77b4; stroke: #1f77b4"/>
     <use xlink:href="#mc998ba7fe6" x="261.213974" y="267.781034" style="fill: #1f77b4; stroke: #1f77b4"/>
     <use xlink:href="#mc998ba7fe6" x="276.469806" y="458.113326" style="fill: #1f77b4; stroke: #1f77b4"/>
     <use xlink:href="#mc998ba7fe6" x="291.725637" y="375.700544" style="fill: #1f77b4; stroke: #1f77b4"/>
     <use xlink:href="#mc998ba7fe6" x="306.981468" y="344.2423" style="fill: #1f77b4; stroke: #1f77b4"/>
     <use xlink:href="#mc998ba7fe6" x="322.2373" y="485.939607" style="fill: #1f77b4; stroke: #1f77b4"/>
     <use xlink:href="#mc998ba7fe6" x="352.748962" y="427.534791" style="fill: #1f77b4; stroke: #1f77b4"/>
     <use xlink:href="#mc998ba7fe6" x="368.004794" y="158.059153" style="fill: #1f77b4; stroke: #1f77b4"/>
     <use xlink:href="#mc998ba7fe6" x="383.260625" y="400.69281" style="fill: #1f77b4; stroke: #1f77b4"/>
     <use xlink:href="#mc998ba7fe6" x="398.516456" y="144.855386" style="fill: #1f77b4; stroke: #1f77b4"/>
     <use xlink:href="#mc998ba7fe6" x="413.772288" y="348.746101" style="fill: #1f77b4; stroke: #1f77b4"/>
     <use xlink:href="#mc998ba7fe6" x="429.028119" y="227.854382" style="fill: #1f77b4; stroke: #1f77b4"/>
     <use xlink:href="#mc998ba7fe6" x="444.28395" y="487.752332" style="fill: #1f77b4; stroke: #1f77b4"/>
     <use xlink:href="#mc998ba7fe6" x="459.539782" y="317.609384" style="fill: #1f77b4; stroke: #1f77b4"/>
     <use xlink:href="#mc998ba7fe6" x="474.795613" y="486.08607" style="fill: #1f77b4; stroke: #1f77b4"/>
     <use xlink:href="#mc998ba7fe6" x="490.051444" y="265.637883" style="fill: #1f77b4; stroke: #1f77b4"/>
     <use xlink:href="#mc998ba7fe6" x="520.563107" y="454.638269" style="fill: #1f77b4; stroke: #1f77b4"/>
     <use xlink:href="#mc998ba7fe6" x="535.818938" y="332.325175" style="fill: #1f77b4; stroke: #1f77b4"/>
     <use xlink:href="#mc998ba7fe6" x="551.07477" y="488.218328" style="fill: #1f77b4; stroke: #1f77b4"/>
     <use xlink:href="#mc998ba7fe6" x="566.330601" y="485.046585" style="fill: #1f77b4; stroke: #1f77b4"/>
     <use xlink:href="#mc998ba7fe6" x="581.586432" y="301.788225" style="fill: #1f77b4; stroke: #1f77b4"/>
     <use xlink:href="#mc998ba7fe6" x="596.842264" y="482.596407" style="fill: #1f77b4; stroke: #1f77b4"/>
     <use xlink:href="#mc998ba7fe6" x="612.098095" y="486.10142" style="fill: #1f77b4; stroke: #1f77b4"/>
     <use xlink:href="#mc998ba7fe6" x="627.353926" y="289.826267" style="fill: #1f77b4; stroke: #1f77b4"/>
     <use xlink:href="#mc998ba7fe6" x="657.865589" y="281.851871" style="fill: #1f77b4; stroke: #1f77b4"/>
     <use xlink:href="#mc998ba7fe6" x="673.12142" y="266.317505" style="fill: #1f77b4; stroke: #1f77b4"/>
    </g>
   </g>
   <g id="line2d_26">
    <path d="M 93.39983 484.075511 
L 108.655661 269.471603 
L 123.911492 276.018299 
L 139.167324 451.895133 
L 154.423155 328.286652 
L 169.678986 486.973683 
L 184.934818 484.10812 
L 200.190649 443.530755 
L 215.44648 366.312057 
L 230.702312 345.419011 
L 245.958143 320.386004 
L 261.213974 391.53552 
L 276.469806 480.795848 
L 291.725637 263.642786 
L 306.981468 308.945882 
L 322.2373 484.811412 
L 352.748962 485.982512 
L 368.004794 264.399614 
L 383.260625 493.892014 
L 398.516456 264.063365 
L 413.772288 336.950072 
L 429.028119 294.11428 
L 444.28395 483.8214 
L 459.539782 270.188108 
L 474.795613 487.550746 
L 490.051444 355.014587 
L 520.563107 499.822767 
L 535.818938 367.985815 
L 551.07477 494.266445 
L 566.330601 417.662304 
L 581.586432 359.63945 
L 596.842264 501.963328 
L 612.098095 489.105802 
L 627.353926 252.433389 
L 657.865589 222.416139 
L 673.12142 283.801683 
" clip-path="url(#pcd110a3e8d)" style="fill: none; stroke: #ff7f0e; stroke-width: 2; stroke-linecap: square"/>
    <defs>
     <path id="m3e628ff6c7" d="M 0 3 
C 0.795609 3 1.55874 2.683901 2.12132 2.12132 
C 2.683901 1.55874 3 0.795609 3 0 
C 3 -0.795609 2.683901 -1.55874 2.12132 -2.12132 
C 1.55874 -2.683901 0.795609 -3 0 -3 
C -0.795609 -3 -1.55874 -2.683901 -2.12132 -2.12132 
C -2.683901 -1.55874 -3 -0.795609 -3 0 
C -3 0.795609 -2.683901 1.55874 -2.12132 2.12132 
C -1.55874 2.683901 -0.795609 3 0 3 
z
" style="stroke: #ff7f0e"/>
    </defs>
    <g clip-path="url(#pcd110a3e8d)">
     <use xlink:href="#m3e628ff6c7" x="93.39983" y="484.075511" style="fill: #ff7f0e; stroke: #ff7f0e"/>
     <use xlink:href="#m3e628ff6c7" x="108.655661" y="269.471603" style="fill: #ff7f0e; stroke: #ff7f0e"/>
     <use xlink:href="#m3e628ff6c7" x="123.911492" y="276.018299" style="fill: #ff7f0e; stroke: #ff7f0e"/>
     <use xlink:href="#m3e628ff6c7" x="139.167324" y="451.895133" style="fill: #ff7f0e; stroke: #ff7f0e"/>
     <use xlink:href="#m3e628ff6c7" x="154.423155" y="328.286652" style="fill: #ff7f0e; stroke: #ff7f0e"/>
     <use xlink:href="#m3e628ff6c7" x="169.678986" y="486.973683" style="fill: #ff7f0e; stroke: #ff7f0e"/>
     <use xlink:href="#m3e628ff6c7" x="184.934818" y="484.10812" style="fill: #ff7f0e; stroke: #ff7f0e"/>
     <use xlink:href="#m3e628ff6c7" x="200.190649" y="443.530755" style="fill: #ff7f0e; stroke: #ff7f0e"/>
     <use xlink:href="#m3e628ff6c7" x="215.44648" y="366.312057" style="fill: #ff7f0e; stroke: #ff7f0e"/>
     <use xlink:href="#m3e628ff6c7" x="230.702312" y="345.419011" style="fill: #ff7f0e; stroke: #ff7f0e"/>
     <use xlink:href="#m3e628ff6c7" x="245.958143" y="320.386004" style="fill: #ff7f0e; stroke: #ff7f0e"/>
     <use xlink:href="#m3e628ff6c7" x="261.213974" y="391.53552" style="fill: #ff7f0e; stroke: #ff7f0e"/>
     <use xlink:href="#m3e628ff6c7" x="276.469806" y="480.795848" style="fill: #ff7f0e; stroke: #ff7f0e"/>
     <use xlink:href="#m3e628ff6c7" x="291.725637" y="263.642786" style="fill: #ff7f0e; stroke: #ff7f0e"/>
     <use xlink:href="#m3e628ff6c7" x="306.981468" y="308.945882" style="fill: #ff7f0e; stroke: #ff7f0e"/>
     <use xlink:href="#m3e628ff6c7" x="322.2373" y="484.811412" style="fill: #ff7f0e; stroke: #ff7f0e"/>
     <use xlink:href="#m3e628ff6c7" x="352.748962" y="485.982512" style="fill: #ff7f0e; stroke: #ff7f0e"/>
     <use xlink:href="#m3e628ff6c7" x="368.004794" y="264.399614" style="fill: #ff7f0e; stroke: #ff7f0e"/>
     <use xlink:href="#m3e628ff6c7" x="383.260625" y="493.892014" style="fill: #ff7f0e; stroke: #ff7f0e"/>
     <use xlink:href="#m3e628ff6c7" x="398.516456" y="264.063365" style="fill: #ff7f0e; stroke: #ff7f0e"/>
     <use xlink:href="#m3e628ff6c7" x="413.772288" y="336.950072" style="fill: #ff7f0e; stroke: #ff7f0e"/>
     <use xlink:href="#m3e628ff6c7" x="429.028119" y="294.11428" style="fill: #ff7f0e; stroke: #ff7f0e"/>
     <use xlink:href="#m3e628ff6c7" x="444.28395" y="483.8214" style="fill: #ff7f0e; stroke: #ff7f0e"/>
     <use xlink:href="#m3e628ff6c7" x="459.539782" y="270.188108" style="fill: #ff7f0e; stroke: #ff7f0e"/>
     <use xlink:href="#m3e628ff6c7" x="474.795613" y="487.550746" style="fill: #ff7f0e; stroke: #ff7f0e"/>
     <use xlink:href="#m3e628ff6c7" x="490.051444" y="355.014587" style="fill: #ff7f0e; stroke: #ff7f0e"/>
     <use xlink:href="#m3e628ff6c7" x="520.563107" y="499.822767" style="fill: #ff7f0e; stroke: #ff7f0e"/>
     <use xlink:href="#m3e628ff6c7" x="535.818938" y="367.985815" style="fill: #ff7f0e; stroke: #ff7f0e"/>
     <use xlink:href="#m3e628ff6c7" x="551.07477" y="494.266445" style="fill: #ff7f0e; stroke: #ff7f0e"/>
     <use xlink:href="#m3e628ff6c7" x="566.330601" y="417.662304" style="fill: #ff7f0e; stroke: #ff7f0e"/>
     <use xlink:href="#m3e628ff6c7" x="581.586432" y="359.63945" style="fill: #ff7f0e; stroke: #ff7f0e"/>
     <use xlink:href="#m3e628ff6c7" x="596.842264" y="501.963328" style="fill: #ff7f0e; stroke: #ff7f0e"/>
     <use xlink:href="#m3e628ff6c7" x="612.098095" y="489.105802" style="fill: #ff7f0e; stroke: #ff7f0e"/>
     <use xlink:href="#m3e628ff6c7" x="627.353926" y="252.433389" style="fill: #ff7f0e; stroke: #ff7f0e"/>
     <use xlink:href="#m3e628ff6c7" x="657.865589" y="222.416139" style="fill: #ff7f0e; stroke: #ff7f0e"/>
     <use xlink:href="#m3e628ff6c7" x="673.12142" y="283.801683" style="fill: #ff7f0e; stroke: #ff7f0e"/>
    </g>
   </g>
   <g id="line2d_27">
    <path d="M 93.39983 499.924073 
L 108.655661 383.960818 
L 123.911492 252.268338 
L 139.167324 498.027829 
L 154.423155 472.15367 
L 169.678986 495.953396 
L 184.934818 494.571263 
L 200.190649 498.27538 
L 215.44648 498.206086 
L 230.702312 491.001289 
L 245.958143 496.881521 
L 261.213974 496.824912 
L 276.469806 497.056772 
L 291.725637 398.060965 
L 306.981468 489.150427 
L 322.2373 498.06923 
L 352.748962 494.371122 
L 368.004794 458.61674 
L 383.260625 496.90653 
L 398.516456 390.557618 
L 413.772288 448.291351 
L 429.028119 356.421834 
L 444.28395 476.599779 
L 459.539782 253.331061 
L 474.795613 493.920171 
L 490.051444 351.486402 
L 520.563107 499.155614 
L 535.818938 388.099756 
L 551.07477 498.802745 
L 566.330601 393.908536 
L 581.586432 402.716511 
L 596.842264 496.939213 
L 612.098095 497.643129 
L 627.353926 330.197252 
L 657.865589 393.749536 
L 673.12142 308.34801 
" clip-path="url(#pcd110a3e8d)" style="fill: none; stroke: #2ca02c; stroke-width: 2; stroke-linecap: square"/>
    <defs>
     <path id="m66fcfb2992" d="M 0 3 
C 0.795609 3 1.55874 2.683901 2.12132 2.12132 
C 2.683901 1.55874 3 0.795609 3 0 
C 3 -0.795609 2.683901 -1.55874 2.12132 -2.12132 
C 1.55874 -2.683901 0.795609 -3 0 -3 
C -0.795609 -3 -1.55874 -2.683901 -2.12132 -2.12132 
C -2.683901 -1.55874 -3 -0.795609 -3 0 
C -3 0.795609 -2.683901 1.55874 -2.12132 2.12132 
C -1.55874 2.683901 -0.795609 3 0 3 
z
" style="stroke: #2ca02c"/>
    </defs>
    <g clip-path="url(#pcd110a3e8d)">
     <use xlink:href="#m66fcfb2992" x="93.39983" y="499.924073" style="fill: #2ca02c; stroke: #2ca02c"/>
     <use xlink:href="#m66fcfb2992" x="108.655661" y="383.960818" style="fill: #2ca02c; stroke: #2ca02c"/>
     <use xlink:href="#m66fcfb2992" x="123.911492" y="252.268338" style="fill: #2ca02c; stroke: #2ca02c"/>
     <use xlink:href="#m66fcfb2992" x="139.167324" y="498.027829" style="fill: #2ca02c; stroke: #2ca02c"/>
     <use xlink:href="#m66fcfb2992" x="154.423155" y="472.15367" style="fill: #2ca02c; stroke: #2ca02c"/>
     <use xlink:href="#m66fcfb2992" x="169.678986" y="495.953396" style="fill: #2ca02c; stroke: #2ca02c"/>
     <use xlink:href="#m66fcfb2992" x="184.934818" y="494.571263" style="fill: #2ca02c; stroke: #2ca02c"/>
     <use xlink:href="#m66fcfb2992" x="200.190649" y="498.27538" style="fill: #2ca02c; stroke: #2ca02c"/>
     <use xlink:href="#m66fcfb2992" x="215.44648" y="498.206086" style="fill: #2ca02c; stroke: #2ca02c"/>
     <use xlink:href="#m66fcfb2992" x="230.702312" y="491.001289" style="fill: #2ca02c; stroke: #2ca02c"/>
     <use xlink:href="#m66fcfb2992" x="245.958143" y="496.881521" style="fill: #2ca02c; stroke: #2ca02c"/>
     <use xlink:href="#m66fcfb2992" x="261.213974" y="496.824912" style="fill: #2ca02c; stroke: #2ca02c"/>
     <use xlink:href="#m66fcfb2992" x="276.469806" y="497.056772" style="fill: #2ca02c; stroke: #2ca02c"/>
     <use xlink:href="#m66fcfb2992" x="291.725637" y="398.060965" style="fill: #2ca02c; stroke: #2ca02c"/>
     <use xlink:href="#m66fcfb2992" x="306.981468" y="489.150427" style="fill: #2ca02c; stroke: #2ca02c"/>
     <use xlink:href="#m66fcfb2992" x="322.2373" y="498.06923" style="fill: #2ca02c; stroke: #2ca02c"/>
     <use xlink:href="#m66fcfb2992" x="352.748962" y="494.371122" style="fill: #2ca02c; stroke: #2ca02c"/>
     <use xlink:href="#m66fcfb2992" x="368.004794" y="458.61674" style="fill: #2ca02c; stroke: #2ca02c"/>
     <use xlink:href="#m66fcfb2992" x="383.260625" y="496.90653" style="fill: #2ca02c; stroke: #2ca02c"/>
     <use xlink:href="#m66fcfb2992" x="398.516456" y="390.557618" style="fill: #2ca02c; stroke: #2ca02c"/>
     <use xlink:href="#m66fcfb2992" x="413.772288" y="448.291351" style="fill: #2ca02c; stroke: #2ca02c"/>
     <use xlink:href="#m66fcfb2992" x="429.028119" y="356.421834" style="fill: #2ca02c; stroke: #2ca02c"/>
     <use xlink:href="#m66fcfb2992" x="444.28395" y="476.599779" style="fill: #2ca02c; stroke: #2ca02c"/>
     <use xlink:href="#m66fcfb2992" x="459.539782" y="253.331061" style="fill: #2ca02c; stroke: #2ca02c"/>
     <use xlink:href="#m66fcfb2992" x="474.795613" y="493.920171" style="fill: #2ca02c; stroke: #2ca02c"/>
     <use xlink:href="#m66fcfb2992" x="490.051444" y="351.486402" style="fill: #2ca02c; stroke: #2ca02c"/>
     <use xlink:href="#m66fcfb2992" x="520.563107" y="499.155614" style="fill: #2ca02c; stroke: #2ca02c"/>
     <use xlink:href="#m66fcfb2992" x="535.818938" y="388.099756" style="fill: #2ca02c; stroke: #2ca02c"/>
     <use xlink:href="#m66fcfb2992" x="551.07477" y="498.802745" style="fill: #2ca02c; stroke: #2ca02c"/>
     <use xlink:href="#m66fcfb2992" x="566.330601" y="393.908536" style="fill: #2ca02c; stroke: #2ca02c"/>
     <use xlink:href="#m66fcfb2992" x="581.586432" y="402.716511" style="fill: #2ca02c; stroke: #2ca02c"/>
     <use xlink:href="#m66fcfb2992" x="596.842264" y="496.939213" style="fill: #2ca02c; stroke: #2ca02c"/>
     <use xlink:href="#m66fcfb2992" x="612.098095" y="497.643129" style="fill: #2ca02c; stroke: #2ca02c"/>
     <use xlink:href="#m66fcfb2992" x="627.353926" y="330.197252" style="fill: #2ca02c; stroke: #2ca02c"/>
     <use xlink:href="#m66fcfb2992" x="657.865589" y="393.749536" style="fill: #2ca02c; stroke: #2ca02c"/>
     <use xlink:href="#m66fcfb2992" x="673.12142" y="308.34801" style="fill: #2ca02c; stroke: #2ca02c"/>
    </g>
   </g>
   <g id="line2d_28">
    <path d="M 93.39983 501.264994 
L 108.655661 499.088007 
L 123.911492 504.433081 
L 139.167324 503.860295 
L 154.423155 283.513617 
L 169.678986 285.581239 
L 184.934818 505.193258 
L 200.190649 401.723702 
L 215.44648 498.142809 
L 230.702312 501.227582 
L 245.958143 503.932685 
L 261.213974 501.702581 
L 276.469806 46.813736 
L 306.981468 459.212035 
L 322.2373 500.829629 
L 352.748962 501.410333 
L 368.004794 505.705727 
L 383.260625 83.698286 
L 398.516456 505.155605 
L 413.772288 504.901072 
L 444.28395 504.966453 
L 459.539782 504.739473 
L 474.795613 503.369413 
L 490.051444 506.121372 
L 520.563107 506.332202 
L 535.818938 279.72409 
L 551.07477 503.292606 
L 566.330601 505.56812 
L 581.586432 503.402045 
L 596.842264 505.654983 
L 612.098095 473.150854 
L 627.353926 504.858118 
L 657.865589 384.050919 
L 673.12142 505.428209 
" clip-path="url(#pcd110a3e8d)" style="fill: none; stroke: #d62728; stroke-width: 2; stroke-linecap: square"/>
    <defs>
     <path id="md781a86319" d="M 0 3 
C 0.795609 3 1.55874 2.683901 2.12132 2.12132 
C 2.683901 1.55874 3 0.795609 3 0 
C 3 -0.795609 2.683901 -1.55874 2.12132 -2.12132 
C 1.55874 -2.683901 0.795609 -3 0 -3 
C -0.795609 -3 -1.55874 -2.683901 -2.12132 -2.12132 
C -2.683901 -1.55874 -3 -0.795609 -3 0 
C -3 0.795609 -2.683901 1.55874 -2.12132 2.12132 
C -1.55874 2.683901 -0.795609 3 0 3 
z
" style="stroke: #d62728"/>
    </defs>
    <g clip-path="url(#pcd110a3e8d)">
     <use xlink:href="#md781a86319" x="93.39983" y="501.264994" style="fill: #d62728; stroke: #d62728"/>
     <use xlink:href="#md781a86319" x="108.655661" y="499.088007" style="fill: #d62728; stroke: #d62728"/>
     <use xlink:href="#md781a86319" x="123.911492" y="504.433081" style="fill: #d62728; stroke: #d62728"/>
     <use xlink:href="#md781a86319" x="139.167324" y="503.860295" style="fill: #d62728; stroke: #d62728"/>
     <use xlink:href="#md781a86319" x="154.423155" y="283.513617" style="fill: #d62728; stroke: #d62728"/>
     <use xlink:href="#md781a86319" x="169.678986" y="285.581239" style="fill: #d62728; stroke: #d62728"/>
     <use xlink:href="#md781a86319" x="184.934818" y="505.193258" style="fill: #d62728; stroke: #d62728"/>
     <use xlink:href="#md781a86319" x="200.190649" y="401.723702" style="fill: #d62728; stroke: #d62728"/>
     <use xlink:href="#md781a86319" x="215.44648" y="498.142809" style="fill: #d62728; stroke: #d62728"/>
     <use xlink:href="#md781a86319" x="230.702312" y="501.227582" style="fill: #d62728; stroke: #d62728"/>
     <use xlink:href="#md781a86319" x="245.958143" y="503.932685" style="fill: #d62728; stroke: #d62728"/>
     <use xlink:href="#md781a86319" x="261.213974" y="501.702581" style="fill: #d62728; stroke: #d62728"/>
     <use xlink:href="#md781a86319" x="276.469806" y="46.813736" style="fill: #d62728; stroke: #d62728"/>
     <use xlink:href="#md781a86319" x="306.981468" y="459.212035" style="fill: #d62728; stroke: #d62728"/>
     <use xlink:href="#md781a86319" x="322.2373" y="500.829629" style="fill: #d62728; stroke: #d62728"/>
     <use xlink:href="#md781a86319" x="352.748962" y="501.410333" style="fill: #d62728; stroke: #d62728"/>
     <use xlink:href="#md781a86319" x="368.004794" y="505.705727" style="fill: #d62728; stroke: #d62728"/>
     <use xlink:href="#md781a86319" x="383.260625" y="83.698286" style="fill: #d62728; stroke: #d62728"/>
     <use xlink:href="#md781a86319" x="398.516456" y="505.155605" style="fill: #d62728; stroke: #d62728"/>
     <use xlink:href="#md781a86319" x="413.772288" y="504.901072" style="fill: #d62728; stroke: #d62728"/>
     <use xlink:href="#md781a86319" x="444.28395" y="504.966453" style="fill: #d62728; stroke: #d62728"/>
     <use xlink:href="#md781a86319" x="459.539782" y="504.739473" style="fill: #d62728; stroke: #d62728"/>
     <use xlink:href="#md781a86319" x="474.795613" y="503.369413" style="fill: #d62728; stroke: #d62728"/>
     <use xlink:href="#md781a86319" x="490.051444" y="506.121372" style="fill: #d62728; stroke: #d62728"/>
     <use xlink:href="#md781a86319" x="520.563107" y="506.332202" style="fill: #d62728; stroke: #d62728"/>
     <use xlink:href="#md781a86319" x="535.818938" y="279.72409" style="fill: #d62728; stroke: #d62728"/>
     <use xlink:href="#md781a86319" x="551.07477" y="503.292606" style="fill: #d62728; stroke: #d62728"/>
     <use xlink:href="#md781a86319" x="566.330601" y="505.56812" style="fill: #d62728; stroke: #d62728"/>
     <use xlink:href="#md781a86319" x="581.586432" y="503.402045" style="fill: #d62728; stroke: #d62728"/>
     <use xlink:href="#md781a86319" x="596.842264" y="505.654983" style="fill: #d62728; stroke: #d62728"/>
     <use xlink:href="#md781a86319" x="612.098095" y="473.150854" style="fill: #d62728; stroke: #d62728"/>
     <use xlink:href="#md781a86319" x="627.353926" y="504.858118" style="fill: #d62728; stroke: #d62728"/>
     <use xlink:href="#md781a86319" x="657.865589" y="384.050919" style="fill: #d62728; stroke: #d62728"/>
     <use xlink:href="#md781a86319" x="673.12142" y="505.428209" style="fill: #d62728; stroke: #d62728"/>
    </g>
   </g>
   <g id="line2d_29">
    <path d="M 93.39983 494.092811 
L 108.655661 459.59967 
L 123.911492 497.000136 
L 139.167324 489.622245 
L 154.423155 355.029139 
L 169.678986 170.006402 
L 184.934818 500.720014 
L 200.190649 469.245449 
L 215.44648 355.534197 
L 230.702312 496.647931 
L 245.958143 502.990837 
L 261.213974 501.061522 
L 276.469806 184.984809 
L 306.981468 167.258747 
L 322.2373 501.920246 
L 352.748962 497.642361 
L 368.004794 500.030513 
L 383.260625 273.526422 
L 398.516456 489.001098 
L 413.772288 495.194938 
L 444.28395 500.426061 
L 459.539782 495.596371 
L 474.795613 504.189997 
L 490.051444 502.767244 
L 520.563107 504.724273 
L 535.818938 282.345767 
L 551.07477 505.819025 
L 566.330601 503.00737 
L 581.586432 503.583528 
L 596.842264 505.50546 
L 612.098095 468.333123 
L 627.353926 501.594729 
L 657.865589 505.589952 
L 673.12142 504.58139 
" clip-path="url(#pcd110a3e8d)" style="fill: none; stroke: #9467bd; stroke-width: 2; stroke-linecap: square"/>
    <defs>
     <path id="m5b0a2199f8" d="M 0 3 
C 0.795609 3 1.55874 2.683901 2.12132 2.12132 
C 2.683901 1.55874 3 0.795609 3 0 
C 3 -0.795609 2.683901 -1.55874 2.12132 -2.12132 
C 1.55874 -2.683901 0.795609 -3 0 -3 
C -0.795609 -3 -1.55874 -2.683901 -2.12132 -2.12132 
C -2.683901 -1.55874 -3 -0.795609 -3 0 
C -3 0.795609 -2.683901 1.55874 -2.12132 2.12132 
C -1.55874 2.683901 -0.795609 3 0 3 
z
" style="stroke: #9467bd"/>
    </defs>
    <g clip-path="url(#pcd110a3e8d)">
     <use xlink:href="#m5b0a2199f8" x="93.39983" y="494.092811" style="fill: #9467bd; stroke: #9467bd"/>
     <use xlink:href="#m5b0a2199f8" x="108.655661" y="459.59967" style="fill: #9467bd; stroke: #9467bd"/>
     <use xlink:href="#m5b0a2199f8" x="123.911492" y="497.000136" style="fill: #9467bd; stroke: #9467bd"/>
     <use xlink:href="#m5b0a2199f8" x="139.167324" y="489.622245" style="fill: #9467bd; stroke: #9467bd"/>
     <use xlink:href="#m5b0a2199f8" x="154.423155" y="355.029139" style="fill: #9467bd; stroke: #9467bd"/>
     <use xlink:href="#m5b0a2199f8" x="169.678986" y="170.006402" style="fill: #9467bd; stroke: #9467bd"/>
     <use xlink:href="#m5b0a2199f8" x="184.934818" y="500.720014" style="fill: #9467bd; stroke: #9467bd"/>
     <use xlink:href="#m5b0a2199f8" x="200.190649" y="469.245449" style="fill: #9467bd; stroke: #9467bd"/>
     <use xlink:href="#m5b0a2199f8" x="215.44648" y="355.534197" style="fill: #9467bd; stroke: #9467bd"/>
     <use xlink:href="#m5b0a2199f8" x="230.702312" y="496.647931" style="fill: #9467bd; stroke: #9467bd"/>
     <use xlink:href="#m5b0a2199f8" x="245.958143" y="502.990837" style="fill: #9467bd; stroke: #9467bd"/>
     <use xlink:href="#m5b0a2199f8" x="261.213974" y="501.061522" style="fill: #9467bd; stroke: #9467bd"/>
     <use xlink:href="#m5b0a2199f8" x="276.469806" y="184.984809" style="fill: #9467bd; stroke: #9467bd"/>
     <use xlink:href="#m5b0a2199f8" x="306.981468" y="167.258747" style="fill: #9467bd; stroke: #9467bd"/>
     <use xlink:href="#m5b0a2199f8" x="322.2373" y="501.920246" style="fill: #9467bd; stroke: #9467bd"/>
     <use xlink:href="#m5b0a2199f8" x="352.748962" y="497.642361" style="fill: #9467bd; stroke: #9467bd"/>
     <use xlink:href="#m5b0a2199f8" x="368.004794" y="500.030513" style="fill: #9467bd; stroke: #9467bd"/>
     <use xlink:href="#m5b0a2199f8" x="383.260625" y="273.526422" style="fill: #9467bd; stroke: #9467bd"/>
     <use xlink:href="#m5b0a2199f8" x="398.516456" y="489.001098" style="fill: #9467bd; stroke: #9467bd"/>
     <use xlink:href="#m5b0a2199f8" x="413.772288" y="495.194938" style="fill: #9467bd; stroke: #9467bd"/>
     <use xlink:href="#m5b0a2199f8" x="444.28395" y="500.426061" style="fill: #9467bd; stroke: #9467bd"/>
     <use xlink:href="#m5b0a2199f8" x="459.539782" y="495.596371" style="fill: #9467bd; stroke: #9467bd"/>
     <use xlink:href="#m5b0a2199f8" x="474.795613" y="504.189997" style="fill: #9467bd; stroke: #9467bd"/>
     <use xlink:href="#m5b0a2199f8" x="490.051444" y="502.767244" style="fill: #9467bd; stroke: #9467bd"/>
     <use xlink:href="#m5b0a2199f8" x="520.563107" y="504.724273" style="fill: #9467bd; stroke: #9467bd"/>
     <use xlink:href="#m5b0a2199f8" x="535.818938" y="282.345767" style="fill: #9467bd; stroke: #9467bd"/>
     <use xlink:href="#m5b0a2199f8" x="551.07477" y="505.819025" style="fill: #9467bd; stroke: #9467bd"/>
     <use xlink:href="#m5b0a2199f8" x="566.330601" y="503.00737" style="fill: #9467bd; stroke: #9467bd"/>
     <use xlink:href="#m5b0a2199f8" x="581.586432" y="503.583528" style="fill: #9467bd; stroke: #9467bd"/>
     <use xlink:href="#m5b0a2199f8" x="596.842264" y="505.50546" style="fill: #9467bd; stroke: #9467bd"/>
     <use xlink:href="#m5b0a2199f8" x="612.098095" y="468.333123" style="fill: #9467bd; stroke: #9467bd"/>
     <use xlink:href="#m5b0a2199f8" x="627.353926" y="501.594729" style="fill: #9467bd; stroke: #9467bd"/>
     <use xlink:href="#m5b0a2199f8" x="657.865589" y="505.589952" style="fill: #9467bd; stroke: #9467bd"/>
     <use xlink:href="#m5b0a2199f8" x="673.12142" y="504.58139" style="fill: #9467bd; stroke: #9467bd"/>
    </g>
   </g>
   <g id="line2d_30">
    <path d="M 93.39983 362.628233 
L 108.655661 355.967202 
L 123.911492 361.607663 
L 139.167324 364.090019 
L 154.423155 355.347012 
L 169.678986 357.929808 
L 184.934818 465.644642 
L 200.190649 460.700986 
L 215.44648 357.33667 
L 230.702312 361.489716 
L 245.958143 363.88185 
L 261.213974 362.416184 
L 276.469806 401.938302 
L 306.981468 301.428046 
L 322.2373 360.765811 
L 352.748962 362.337911 
L 368.004794 360.6915 
L 383.260625 437.187148 
L 398.516456 391.660178 
L 413.772288 360.755179 
L 444.28395 464.848059 
L 459.539782 293.401896 
L 474.795613 361.353597 
L 490.051444 359.948037 
L 520.563107 465.957177 
L 535.818938 456.4119 
L 551.07477 392.217318 
L 566.330601 363.548124 
L 581.586432 360.342149 
L 596.842264 358.690592 
L 612.098095 425.927971 
L 627.353926 360.781016 
L 657.865589 465.664247 
L 673.12142 362.786735 
" clip-path="url(#pcd110a3e8d)" style="fill: none; stroke: #8c564b; stroke-width: 2; stroke-linecap: square"/>
    <defs>
     <path id="m15d403f8f6" d="M 0 3 
C 0.795609 3 1.55874 2.683901 2.12132 2.12132 
C 2.683901 1.55874 3 0.795609 3 0 
C 3 -0.795609 2.683901 -1.55874 2.12132 -2.12132 
C 1.55874 -2.683901 0.795609 -3 0 -3 
C -0.795609 -3 -1.55874 -2.683901 -2.12132 -2.12132 
C -2.683901 -1.55874 -3 -0.795609 -3 0 
C -3 0.795609 -2.683901 1.55874 -2.12132 2.12132 
C -1.55874 2.683901 -0.795609 3 0 3 
z
" style="stroke: #8c564b"/>
    </defs>
    <g clip-path="url(#pcd110a3e8d)">
     <use xlink:href="#m15d403f8f6" x="93.39983" y="362.628233" style="fill: #8c564b; stroke: #8c564b"/>
     <use xlink:href="#m15d403f8f6" x="108.655661" y="355.967202" style="fill: #8c564b; stroke: #8c564b"/>
     <use xlink:href="#m15d403f8f6" x="123.911492" y="361.607663" style="fill: #8c564b; stroke: #8c564b"/>
     <use xlink:href="#m15d403f8f6" x="139.167324" y="364.090019" style="fill: #8c564b; stroke: #8c564b"/>
     <use xlink:href="#m15d403f8f6" x="154.423155" y="355.347012" style="fill: #8c564b; stroke: #8c564b"/>
     <use xlink:href="#m15d403f8f6" x="169.678986" y="357.929808" style="fill: #8c564b; stroke: #8c564b"/>
     <use xlink:href="#m15d403f8f6" x="184.934818" y="465.644642" style="fill: #8c564b; stroke: #8c564b"/>
     <use xlink:href="#m15d403f8f6" x="200.190649" y="460.700986" style="fill: #8c564b; stroke: #8c564b"/>
     <use xlink:href="#m15d403f8f6" x="215.44648" y="357.33667" style="fill: #8c564b; stroke: #8c564b"/>
     <use xlink:href="#m15d403f8f6" x="230.702312" y="361.489716" style="fill: #8c564b; stroke: #8c564b"/>
     <use xlink:href="#m15d403f8f6" x="245.958143" y="363.88185" style="fill: #8c564b; stroke: #8c564b"/>
     <use xlink:href="#m15d403f8f6" x="261.213974" y="362.416184" style="fill: #8c564b; stroke: #8c564b"/>
     <use xlink:href="#m15d403f8f6" x="276.469806" y="401.938302" style="fill: #8c564b; stroke: #8c564b"/>
     <use xlink:href="#m15d403f8f6" x="306.981468" y="301.428046" style="fill: #8c564b; stroke: #8c564b"/>
     <use xlink:href="#m15d403f8f6" x="322.2373" y="360.765811" style="fill: #8c564b; stroke: #8c564b"/>
     <use xlink:href="#m15d403f8f6" x="352.748962" y="362.337911" style="fill: #8c564b; stroke: #8c564b"/>
     <use xlink:href="#m15d403f8f6" x="368.004794" y="360.6915" style="fill: #8c564b; stroke: #8c564b"/>
     <use xlink:href="#m15d403f8f6" x="383.260625" y="437.187148" style="fill: #8c564b; stroke: #8c564b"/>
     <use xlink:href="#m15d403f8f6" x="398.516456" y="391.660178" style="fill: #8c564b; stroke: #8c564b"/>
     <use xlink:href="#m15d403f8f6" x="413.772288" y="360.755179" style="fill: #8c564b; stroke: #8c564b"/>
     <use xlink:href="#m15d403f8f6" x="444.28395" y="464.848059" style="fill: #8c564b; stroke: #8c564b"/>
     <use xlink:href="#m15d403f8f6" x="459.539782" y="293.401896" style="fill: #8c564b; stroke: #8c564b"/>
     <use xlink:href="#m15d403f8f6" x="474.795613" y="361.353597" style="fill: #8c564b; stroke: #8c564b"/>
     <use xlink:href="#m15d403f8f6" x="490.051444" y="359.948037" style="fill: #8c564b; stroke: #8c564b"/>
     <use xlink:href="#m15d403f8f6" x="520.563107" y="465.957177" style="fill: #8c564b; stroke: #8c564b"/>
     <use xlink:href="#m15d403f8f6" x="535.818938" y="456.4119" style="fill: #8c564b; stroke: #8c564b"/>
     <use xlink:href="#m15d403f8f6" x="551.07477" y="392.217318" style="fill: #8c564b; stroke: #8c564b"/>
     <use xlink:href="#m15d403f8f6" x="566.330601" y="363.548124" style="fill: #8c564b; stroke: #8c564b"/>
     <use xlink:href="#m15d403f8f6" x="581.586432" y="360.342149" style="fill: #8c564b; stroke: #8c564b"/>
     <use xlink:href="#m15d403f8f6" x="596.842264" y="358.690592" style="fill: #8c564b; stroke: #8c564b"/>
     <use xlink:href="#m15d403f8f6" x="612.098095" y="425.927971" style="fill: #8c564b; stroke: #8c564b"/>
     <use xlink:href="#m15d403f8f6" x="627.353926" y="360.781016" style="fill: #8c564b; stroke: #8c564b"/>
     <use xlink:href="#m15d403f8f6" x="657.865589" y="465.664247" style="fill: #8c564b; stroke: #8c564b"/>
     <use xlink:href="#m15d403f8f6" x="673.12142" y="362.786735" style="fill: #8c564b; stroke: #8c564b"/>
    </g>
   </g>
   <g id="patch_3">
    <path d="M 64.41375 529.308125 
L 64.41375 23.837813 
" style="fill: none; stroke: #000000; stroke-width: 0.8; stroke-linejoin: miter; stroke-linecap: square"/>
   </g>
   <g id="patch_4">
    <path d="M 702.1075 529.308125 
L 702.1075 23.837813 
" style="fill: none; stroke: #000000; stroke-width: 0.8; stroke-linejoin: miter; stroke-linecap: square"/>
   </g>
   <g id="patch_5">
    <path d="M 64.41375 529.308125 
L 702.1075 529.308125 
" style="fill: none; stroke: #000000; stroke-width: 0.8; stroke-linejoin: miter; stroke-linecap: square"/>
   </g>
   <g id="patch_6">
    <path d="M 64.41375 23.837812 
L 702.1075 23.837812 
" style="fill: none; stroke: #000000; stroke-width: 0.8; stroke-linejoin: miter; stroke-linecap: square"/>
   </g>
   <g id="text_15">
    <text style="font: 700 14px 'DejaVu Sans', 'Bitstream Vera Sans', 'Computer Modern Sans Serif', 'Lucida Grande', 'Verdana', 'Geneva', 'Lucid', 'Arial', 'Helvetica', 'Avant Garde', sans-serif; text-anchor: middle" x="383.260625" y="17.837813" transform="rotate(-0 383.260625 17.837813)">Mixedworkload - Performance Trend</text>
   </g>
   <g id="legend_1">
    <g id="patch_7">
     <path d="M 740.992188 119.906563 
L 846.004688 119.906563 
Q 848.004688 119.906563 848.004688 117.906563 
L 848.004688 30.837813 
Q 848.004688 28.837813 846.004688 28.837813 
L 740.992188 28.837813 
Q 738.992188 28.837813 738.992188 30.837813 
L 738.992188 117.906563 
Q 738.992188 119.906563 740.992188 119.906563 
z
" style="fill: #ffffff; opacity: 0.8; stroke: #cccccc; stroke-linejoin: miter"/>
    </g>
    <g id="line2d_31">
     <path d="M 742.992188 36.93625 
L 752.992188 36.93625 
L 762.992188 36.93625 
" style="fill: none; stroke: #1f77b4; stroke-width: 2; stroke-linecap: square"/>
     <g>
      <use xlink:href="#mc998ba7fe6" x="752.992188" y="36.93625" style="fill: #1f77b4; stroke: #1f77b4"/>
     </g>
    </g>
    <g id="text_16">
     <text style="font: 10px 'DejaVu Sans', 'Bitstream Vera Sans', 'Computer Modern Sans Serif', 'Lucida Grande', 'Verdana', 'Geneva', 'Lucid', 'Arial', 'Helvetica', 'Avant Garde', sans-serif; text-anchor: start" x="770.992188" y="40.43625" transform="rotate(-0 770.992188 40.43625)">gcc-14.2 - V1</text>
    </g>
    <g id="line2d_32">
     <path d="M 742.992188 51.614375 
L 752.992188 51.614375 
L 762.992188 51.614375 
" style="fill: none; stroke: #ff7f0e; stroke-width: 2; stroke-linecap: square"/>
     <g>
      <use xlink:href="#m3e628ff6c7" x="752.992188" y="51.614375" style="fill: #ff7f0e; stroke: #ff7f0e"/>
     </g>
    </g>
    <g id="text_17">
     <text style="font: 10px 'DejaVu Sans', 'Bitstream Vera Sans', 'Computer Modern Sans Serif', 'Lucida Grande', 'Verdana', 'Geneva', 'Lucid', 'Arial', 'Helvetica', 'Avant Garde', sans-serif; text-anchor: start" x="770.992188" y="55.114375" transform="rotate(-0 770.992188 55.114375)">gcc-14.2 - V2</text>
    </g>
    <g id="line2d_33">
     <path d="M 742.992188 66.2925 
L 752.992188 66.2925 
L 762.992188 66.2925 
" style="fill: none; stroke: #2ca02c; stroke-width: 2; stroke-linecap: square"/>
     <g>
      <use xlink:href="#m66fcfb2992" x="752.992188" y="66.2925" style="fill: #2ca02c; stroke: #2ca02c"/>
     </g>
    </g>
    <g id="text_18">
     <text style="font: 10px 'DejaVu Sans', 'Bitstream Vera Sans', 'Computer Modern Sans Serif', 'Lucida Grande', 'Verdana', 'Geneva', 'Lucid', 'Arial', 'Helvetica', 'Avant Garde', sans-serif; text-anchor: start" x="770.992188" y="69.7925" transform="rotate(-0 770.992188 69.7925)">gcc-14.2 - TBB</text>
    </g>
    <g id="line2d_34">
     <path d="M 742.992188 80.970625 
L 752.992188 80.970625 
L 762.992188 80.970625 
" style="fill: none; stroke: #d62728; stroke-width: 2; stroke-linecap: square"/>
     <g>
      <use xlink:href="#md781a86319" x="752.992188" y="80.970625" style="fill: #d62728; stroke: #d62728"/>
     </g>
    </g>
    <g id="text_19">
     <text style="font: 10px 'DejaVu Sans', 'Bitstream Vera Sans', 'Computer Modern Sans Serif', 'Lucida Grande', 'Verdana', 'Geneva', 'Lucid', 'Arial', 'Helvetica', 'Avant Garde', sans-serif; text-anchor: start" x="770.992188" y="84.470625" transform="rotate(-0 770.992188 84.470625)">gcc-4.2 - V1</text>
    </g>
    <g id="line2d_35">
     <path d="M 742.992188 95.64875 
L 752.992188 95.64875 
L 762.992188 95.64875 
" style="fill: none; stroke: #9467bd; stroke-width: 2; stroke-linecap: square"/>
     <g>
      <use xlink:href="#m5b0a2199f8" x="752.992188" y="95.64875" style="fill: #9467bd; stroke: #9467bd"/>
     </g>
    </g>
    <g id="text_20">
     <text style="font: 10px 'DejaVu Sans', 'Bitstream Vera Sans', 'Computer Modern Sans Serif', 'Lucida Grande', 'Verdana', 'Geneva', 'Lucid', 'Arial', 'Helvetica', 'Avant Garde', sans-serif; text-anchor: start" x="770.992188" y="99.14875" transform="rotate(-0 770.992188 99.14875)">gcc-4.2 - V2</text>
    </g>
    <g id="line2d_36">
     <path d="M 742.992188 110.326875 
L 752.992188 110.326875 
L 762.992188 110.326875 
" style="fill: none; stroke: #8c564b; stroke-width: 2; stroke-linecap: square"/>
     <g>
      <use xlink:href="#m15d403f8f6" x="752.992188" y="110.326875" style="fill: #8c564b; stroke: #8c564b"/>
     </g>
    </g>
    <g id="text_21">
     <text style="font: 10px 'DejaVu Sans', 'Bitstream Vera Sans', 'Computer Modern Sans Serif', 'Lucida Grande', 'Verdana', 'Geneva', 'Lucid', 'Arial', 'Helvetica', 'Avant Garde', sans-serif; text-anchor: start" x="770.992188" y="113.826875" transform="rotate(-0 770.992188 113.826875)">gcc-4.2 - TBB</text>
    </g>
   </g>
  </g>
 </g>
 <defs>
  <clipPath id="pcd110a3e8d">
   <rect x="64.41375" y="23.837813" width="637.69375" height="505.470313"/>
  </clipPath>
 </defs>
</svg>
