<?xml version="1.0" encoding="utf-8" standalone="no"?>
<!DOCTYPE svg PUBLIC "-//W3C//DTD SVG 1.1//EN"
  "http://www.w3.org/Graphics/SVG/1.1/DTD/svg11.dtd">
<svg xmlns:xlink="http://www.w3.org/1999/xlink" width="854.724687pt" height="568.8pt" viewBox="0 0 854.724687 568.8" xmlns="http://www.w3.org/2000/svg" version="1.1">
 <metadata>
  <rdf:RDF xmlns:dc="http://purl.org/dc/elements/1.1/" xmlns:cc="http://creativecommons.org/ns#" xmlns:rdf="http://www.w3.org/1999/02/22-rdf-syntax-ns#">
   <cc:Work>
    <dc:type rdf:resource="http://purl.org/dc/dcmitype/StillImage"/>
    <dc:date>2025-08-05T06:46:54.806962</dc:date>
    <dc:format>image/svg+xml</dc:format>
    <dc:creator>
     <cc:Agent>
      <dc:title>Matplotlib v3.9.4, https://matplotlib.org/</dc:title>
     </cc:Agent>
    </dc:creator>
   </cc:Work>
  </rdf:RDF>
 </metadata>
 <defs>
  <style type="text/css">*{stroke-linejoin: round; stroke-linecap: butt}</style>
 </defs>
 <g id="figure_1">
  <g id="patch_1">
   <path d="M 0 568.8 
L 854.724687 568.8 
L 854.724687 0 
L 0 0 
z
" style="fill: #ffffff"/>
  </g>
  <g id="axes_1">
   <g id="patch_2">
    <path d="M 74.01375 529.308125 
L 702.1075 529.308125 
L 702.1075 23.837812 
L 74.01375 23.837812 
z
" style="fill: #ffffff"/>
   </g>
   <g id="matplotlib.axis_1">
    <g id="xtick_1">
     <g id="line2d_1">
      <path d="M 159.662898 529.308125 
L 159.662898 23.837812 
" clip-path="url(#p6b5fddb6c1)" style="fill: none; stroke: #b0b0b0; stroke-opacity: 0.3; stroke-width: 0.8; stroke-linecap: square"/>
     </g>
     <g id="line2d_2">
      <defs>
       <path id="m6c6723c9c4" d="M 0 0 
L 0 3.5 
" style="stroke: #000000; stroke-width: 0.8"/>
      </defs>
      <g>
       <use xlink:href="#m6c6723c9c4" x="159.662898" y="529.308125" style="stroke: #000000; stroke-width: 0.8"/>
      </g>
     </g>
     <g id="text_1">
      <text style="font: 10px 'DejaVu Sans', 'Bitstream Vera Sans', 'Computer Modern Sans Serif', 'Lucida Grande', 'Verdana', 'Geneva', 'Lucid', 'Arial', 'Helvetica', 'Avant Garde', sans-serif; text-anchor: middle" x="159.662898" y="543.906563" transform="rotate(-0 159.662898 543.906563)">72</text>
     </g>
    </g>
    <g id="xtick_2">
     <g id="line2d_3">
      <path d="M 273.861761 529.308125 
L 273.861761 23.837812 
" clip-path="url(#p6b5fddb6c1)" style="fill: none; stroke: #b0b0b0; stroke-opacity: 0.3; stroke-width: 0.8; stroke-linecap: square"/>
     </g>
     <g id="line2d_4">
      <g>
       <use xlink:href="#m6c6723c9c4" x="273.861761" y="529.308125" style="stroke: #000000; stroke-width: 0.8"/>
      </g>
     </g>
     <g id="text_2">
      <text style="font: 10px 'DejaVu Sans', 'Bitstream Vera Sans', 'Computer Modern Sans Serif', 'Lucida Grande', 'Verdana', 'Geneva', 'Lucid', 'Arial', 'Helvetica', 'Avant Garde', sans-serif; text-anchor: middle" x="273.861761" y="543.906563" transform="rotate(-0 273.861761 543.906563)">74</text>
     </g>
    </g>
    <g id="xtick_3">
     <g id="line2d_5">
      <path d="M 388.060625 529.308125 
L 388.060625 23.837812 
" clip-path="url(#p6b5fddb6c1)" style="fill: none; stroke: #b0b0b0; stroke-opacity: 0.3; stroke-width: 0.8; stroke-linecap: square"/>
     </g>
     <g id="line2d_6">
      <g>
       <use xlink:href="#m6c6723c9c4" x="388.060625" y="529.308125" style="stroke: #000000; stroke-width: 0.8"/>
      </g>
     </g>
     <g id="text_3">
      <text style="font: 10px 'DejaVu Sans', 'Bitstream Vera Sans', 'Computer Modern Sans Serif', 'Lucida Grande', 'Verdana', 'Geneva', 'Lucid', 'Arial', 'Helvetica', 'Avant Garde', sans-serif; text-anchor: middle" x="388.060625" y="543.906563" transform="rotate(-0 388.060625 543.906563)">76</text>
     </g>
    </g>
    <g id="xtick_4">
     <g id="line2d_7">
      <path d="M 502.259489 529.308125 
L 502.259489 23.837812 
" clip-path="url(#p6b5fddb6c1)" style="fill: none; stroke: #b0b0b0; stroke-opacity: 0.3; stroke-width: 0.8; stroke-linecap: square"/>
     </g>
     <g id="line2d_8">
      <g>
       <use xlink:href="#m6c6723c9c4" x="502.259489" y="529.308125" style="stroke: #000000; stroke-width: 0.8"/>
      </g>
     </g>
     <g id="text_4">
      <text style="font: 10px 'DejaVu Sans', 'Bitstream Vera Sans', 'Computer Modern Sans Serif', 'Lucida Grande', 'Verdana', 'Geneva', 'Lucid', 'Arial', 'Helvetica', 'Avant Garde', sans-serif; text-anchor: middle" x="502.259489" y="543.906563" transform="rotate(-0 502.259489 543.906563)">78</text>
     </g>
    </g>
    <g id="xtick_5">
     <g id="line2d_9">
      <path d="M 616.458352 529.308125 
L 616.458352 23.837812 
" clip-path="url(#p6b5fddb6c1)" style="fill: none; stroke: #b0b0b0; stroke-opacity: 0.3; stroke-width: 0.8; stroke-linecap: square"/>
     </g>
     <g id="line2d_10">
      <g>
       <use xlink:href="#m6c6723c9c4" x="616.458352" y="529.308125" style="stroke: #000000; stroke-width: 0.8"/>
      </g>
     </g>
     <g id="text_5">
      <text style="font: 10px 'DejaVu Sans', 'Bitstream Vera Sans', 'Computer Modern Sans Serif', 'Lucida Grande', 'Verdana', 'Geneva', 'Lucid', 'Arial', 'Helvetica', 'Avant Garde', sans-serif; text-anchor: middle" x="616.458352" y="543.906563" transform="rotate(-0 616.458352 543.906563)">80</text>
     </g>
    </g>
    <g id="text_6">
     <text style="font: 12px 'DejaVu Sans', 'Bitstream Vera Sans', 'Computer Modern Sans Serif', 'Lucida Grande', 'Verdana', 'Geneva', 'Lucid', 'Arial', 'Helvetica', 'Avant Garde', sans-serif; text-anchor: middle" x="388.060625" y="559.104375" transform="rotate(-0 388.060625 559.104375)">Build Number</text>
    </g>
   </g>
   <g id="matplotlib.axis_2">
    <g id="ytick_1">
     <g id="line2d_11">
      <defs>
       <path id="mfa83052e89" d="M 0 0 
L -2 0 
" style="stroke: #000000; stroke-width: 0.6"/>
      </defs>
      <g>
       <use xlink:href="#mfa83052e89" x="74.01375" y="466.628293" style="stroke: #000000; stroke-width: 0.6"/>
      </g>
     </g>
     <g id="text_7">
      <!-- $\mathdefault{1.2\times10^{5}}$ -->
      <g transform="translate(23.41375 470.427512)">
       <text>
        <tspan style="font: 10px 'DejaVu Sans'" x="0 6.362305 9.041016 17.351562 27.678711 34.041016" y="-0.06406250000000036">1.2×10</tspan>
        <tspan style="font: 7px 'DejaVu Sans'" x="40.499023" y="-3.8921875000000004">5</tspan>
       </text>
      </g>
     </g>
    </g>
    <g id="ytick_2">
     <g id="line2d_12">
      <g>
       <use xlink:href="#mfa83052e89" x="74.01375" y="382.051266" style="stroke: #000000; stroke-width: 0.6"/>
      </g>
     </g>
     <g id="text_8">
      <!-- $\mathdefault{1.4\times10^{5}}$ -->
      <g transform="translate(22.81375 385.850485)">
       <text>
        <tspan style="font: 10px 'DejaVu Sans'" x="0 6.362305 9.541016 17.851562 28.178711 34.541016" y="-0.06406250000000036">1.4×10</tspan>
        <tspan style="font: 7px 'DejaVu Sans'" x="40.999023" y="-3.8921875000000004">5</tspan>
       </text>
      </g>
     </g>
    </g>
    <g id="ytick_3">
     <g id="line2d_13">
      <g>
       <use xlink:href="#mfa83052e89" x="74.01375" y="308.787312" style="stroke: #000000; stroke-width: 0.6"/>
      </g>
     </g>
     <g id="text_9">
      <!-- $\mathdefault{1.6\times10^{5}}$ -->
      <g transform="translate(22.81375 312.586531)">
       <text>
        <tspan style="font: 10px 'DejaVu Sans'" x="0 6.362305 9.541016 17.851562 28.178711 34.541016" y="-0.06406250000000036">1.6×10</tspan>
        <tspan style="font: 7px 'DejaVu Sans'" x="40.999023" y="-3.8921875000000004">5</tspan>
       </text>
      </g>
     </g>
    </g>
    <g id="ytick_4">
     <g id="line2d_14">
      <g>
       <use xlink:href="#mfa83052e89" x="74.01375" y="244.163926" style="stroke: #000000; stroke-width: 0.6"/>
      </g>
     </g>
     <g id="text_10">
      <!-- $\mathdefault{1.8\times10^{5}}$ -->
      <g transform="translate(23.11375 247.963144)">
       <text>
        <tspan style="font: 10px 'DejaVu Sans'" x="0 6.362305 9.291016 17.601562 27.928711 34.291016" y="-0.06406250000000036">1.8×10</tspan>
        <tspan style="font: 7px 'DejaVu Sans'" x="40.749023" y="-3.8921875000000004">5</tspan>
       </text>
      </g>
     </g>
    </g>
    <g id="ytick_5">
     <g id="line2d_15">
      <g>
       <use xlink:href="#mfa83052e89" x="74.01375" y="186.356336" style="stroke: #000000; stroke-width: 0.6"/>
      </g>
     </g>
     <g id="text_11">
      <!-- $\mathdefault{2\times10^{5}}$ -->
      <g transform="translate(32.41375 190.155555)">
       <text>
        <tspan style="font: 10px 'DejaVu Sans'" x="0 8.310547 18.637695 25" y="-0.06406250000000036">2×10</tspan>
        <tspan style="font: 7px 'DejaVu Sans'" x="31.458008" y="-3.8921875000000004">5</tspan>
       </text>
      </g>
     </g>
    </g>
    <g id="ytick_6">
     <g id="line2d_16">
      <g>
       <use xlink:href="#mfa83052e89" x="74.01375" y="134.063011" style="stroke: #000000; stroke-width: 0.6"/>
      </g>
     </g>
     <g id="text_12">
      <!-- $\mathdefault{2.2\times10^{5}}$ -->
      <g transform="translate(23.41375 137.86223)">
       <text>
        <tspan style="font: 10px 'DejaVu Sans'" x="0 6.362305 9.041016 17.351562 27.678711 34.041016" y="-0.06406250000000036">2.2×10</tspan>
        <tspan style="font: 7px 'DejaVu Sans'" x="40.499023" y="-3.8921875000000004">5</tspan>
       </text>
      </g>
     </g>
    </g>
    <g id="ytick_7">
     <g id="line2d_17">
      <g>
       <use xlink:href="#mfa83052e89" x="74.01375" y="86.322945" style="stroke: #000000; stroke-width: 0.6"/>
      </g>
     </g>
     <g id="text_13">
      <!-- $\mathdefault{2.4\times10^{5}}$ -->
      <g transform="translate(22.81375 90.122164)">
       <text>
        <tspan style="font: 10px 'DejaVu Sans'" x="0 6.362305 9.541016 17.851562 28.178711 34.541016" y="-0.06406250000000036">2.4×10</tspan>
        <tspan style="font: 7px 'DejaVu Sans'" x="40.999023" y="-3.8921875000000004">5</tspan>
       </text>
      </g>
     </g>
    </g>
    <g id="ytick_8">
     <g id="line2d_18">
      <g>
       <use xlink:href="#mfa83052e89" x="74.01375" y="42.406342" style="stroke: #000000; stroke-width: 0.6"/>
      </g>
     </g>
     <g id="text_14">
      <!-- $\mathdefault{2.6\times10^{5}}$ -->
      <g transform="translate(22.81375 46.205561)">
       <text>
        <tspan style="font: 10px 'DejaVu Sans'" x="0 6.362305 9.541016 17.851562 28.178711 34.541016" y="-0.06406250000000036">2.6×10</tspan>
        <tspan style="font: 7px 'DejaVu Sans'" x="40.999023" y="-3.8921875000000004">5</tspan>
       </text>
      </g>
     </g>
    </g>
    <g id="text_15">
     <text style="font: 12px 'DejaVu Sans', 'Bitstream Vera Sans', 'Computer Modern Sans Serif', 'Lucida Grande', 'Verdana', 'Geneva', 'Lucid', 'Arial', 'Helvetica', 'Avant Garde', sans-serif; text-anchor: middle" x="16.318125" y="276.572969" transform="rotate(-90 16.318125 276.572969)">Median Elapsed Time (nanoseconds)</text>
    </g>
   </g>
   <g id="line2d_19">
    <path d="M 102.563466 438.949088 
L 159.662898 69.729662 
L 216.76233 254.027121 
L 273.861761 402.174409 
L 330.961193 264.596762 
L 388.060625 385.219923 
L 445.160057 321.763916 
L 502.259489 109.354814 
L 559.35892 360.918257 
L 616.458352 344.476475 
L 673.557784 379.850836 
" clip-path="url(#p6b5fddb6c1)" style="fill: none; stroke: #1f77b4; stroke-width: 2; stroke-linecap: square"/>
    <defs>
     <path id="m6efeaa464d" d="M 0 3 
C 0.795609 3 1.55874 2.683901 2.12132 2.12132 
C 2.683901 1.55874 3 0.795609 3 0 
C 3 -0.795609 2.683901 -1.55874 2.12132 -2.12132 
C 1.55874 -2.683901 0.795609 -3 0 -3 
C -0.795609 -3 -1.55874 -2.683901 -2.12132 -2.12132 
C -2.683901 -1.55874 -3 -0.795609 -3 0 
C -3 0.795609 -2.683901 1.55874 -2.12132 2.12132 
C -1.55874 2.683901 -0.795609 3 0 3 
z
" style="stroke: #1f77b4"/>
    </defs>
    <g clip-path="url(#p6b5fddb6c1)">
     <use xlink:href="#m6efeaa464d" x="102.563466" y="438.949088" style="fill: #1f77b4; stroke: #1f77b4"/>
     <use xlink:href="#m6efeaa464d" x="159.662898" y="69.729662" style="fill: #1f77b4; stroke: #1f77b4"/>
     <use xlink:href="#m6efeaa464d" x="216.76233" y="254.027121" style="fill: #1f77b4; stroke: #1f77b4"/>
     <use xlink:href="#m6efeaa464d" x="273.861761" y="402.174409" style="fill: #1f77b4; stroke: #1f77b4"/>
     <use xlink:href="#m6efeaa464d" x="330.961193" y="264.596762" style="fill: #1f77b4; stroke: #1f77b4"/>
     <use xlink:href="#m6efeaa464d" x="388.060625" y="385.219923" style="fill: #1f77b4; stroke: #1f77b4"/>
     <use xlink:href="#m6efeaa464d" x="445.160057" y="321.763916" style="fill: #1f77b4; stroke: #1f77b4"/>
     <use xlink:href="#m6efeaa464d" x="502.259489" y="109.354814" style="fill: #1f77b4; stroke: #1f77b4"/>
     <use xlink:href="#m6efeaa464d" x="559.35892" y="360.918257" style="fill: #1f77b4; stroke: #1f77b4"/>
     <use xlink:href="#m6efeaa464d" x="616.458352" y="344.476475" style="fill: #1f77b4; stroke: #1f77b4"/>
     <use xlink:href="#m6efeaa464d" x="673.557784" y="379.850836" style="fill: #1f77b4; stroke: #1f77b4"/>
    </g>
   </g>
   <g id="line2d_20">
    <path d="M 102.563466 484.679068 
L 159.662898 476.973818 
L 216.76233 492.150047 
L 273.861761 474.836601 
L 330.961193 413.424845 
L 388.060625 500.384557 
L 445.160057 469.919617 
L 502.259489 506.332202 
L 559.35892 490.030778 
L 616.458352 408.501611 
L 673.557784 460.803696 
" clip-path="url(#p6b5fddb6c1)" style="fill: none; stroke: #ff7f0e; stroke-width: 2; stroke-linecap: square"/>
    <defs>
     <path id="m36dfd45270" d="M 0 3 
C 0.795609 3 1.55874 2.683901 2.12132 2.12132 
C 2.683901 1.55874 3 0.795609 3 0 
C 3 -0.795609 2.683901 -1.55874 2.12132 -2.12132 
C 1.55874 -2.683901 0.795609 -3 0 -3 
C -0.795609 -3 -1.55874 -2.683901 -2.12132 -2.12132 
C -2.683901 -1.55874 -3 -0.795609 -3 0 
C -3 0.795609 -2.683901 1.55874 -2.12132 2.12132 
C -1.55874 2.683901 -0.795609 3 0 3 
z
" style="stroke: #ff7f0e"/>
    </defs>
    <g clip-path="url(#p6b5fddb6c1)">
     <use xlink:href="#m36dfd45270" x="102.563466" y="484.679068" style="fill: #ff7f0e; stroke: #ff7f0e"/>
     <use xlink:href="#m36dfd45270" x="159.662898" y="476.973818" style="fill: #ff7f0e; stroke: #ff7f0e"/>
     <use xlink:href="#m36dfd45270" x="216.76233" y="492.150047" style="fill: #ff7f0e; stroke: #ff7f0e"/>
     <use xlink:href="#m36dfd45270" x="273.861761" y="474.836601" style="fill: #ff7f0e; stroke: #ff7f0e"/>
     <use xlink:href="#m36dfd45270" x="330.961193" y="413.424845" style="fill: #ff7f0e; stroke: #ff7f0e"/>
     <use xlink:href="#m36dfd45270" x="388.060625" y="500.384557" style="fill: #ff7f0e; stroke: #ff7f0e"/>
     <use xlink:href="#m36dfd45270" x="445.160057" y="469.919617" style="fill: #ff7f0e; stroke: #ff7f0e"/>
     <use xlink:href="#m36dfd45270" x="502.259489" y="506.332202" style="fill: #ff7f0e; stroke: #ff7f0e"/>
     <use xlink:href="#m36dfd45270" x="559.35892" y="490.030778" style="fill: #ff7f0e; stroke: #ff7f0e"/>
     <use xlink:href="#m36dfd45270" x="616.458352" y="408.501611" style="fill: #ff7f0e; stroke: #ff7f0e"/>
     <use xlink:href="#m36dfd45270" x="673.557784" y="460.803696" style="fill: #ff7f0e; stroke: #ff7f0e"/>
    </g>
   </g>
   <g id="line2d_21">
    <path d="M 102.563466 298.275089 
L 159.662898 133.778278 
L 216.76233 87.290133 
L 273.861761 66.86308 
L 330.961193 280.042975 
L 388.060625 61.215078 
L 445.160057 135.882604 
L 502.259489 74.476918 
L 559.35892 243.451125 
L 616.458352 306.238522 
L 673.557784 59.161309 
" clip-path="url(#p6b5fddb6c1)" style="fill: none; stroke: #2ca02c; stroke-width: 2; stroke-linecap: square"/>
    <defs>
     <path id="m6e2919efd7" d="M 0 3 
C 0.795609 3 1.55874 2.683901 2.12132 2.12132 
C 2.683901 1.55874 3 0.795609 3 0 
C 3 -0.795609 2.683901 -1.55874 2.12132 -2.12132 
C 1.55874 -2.683901 0.795609 -3 0 -3 
C -0.795609 -3 -1.55874 -2.683901 -2.12132 -2.12132 
C -2.683901 -1.55874 -3 -0.795609 -3 0 
C -3 0.795609 -2.683901 1.55874 -2.12132 2.12132 
C -1.55874 2.683901 -0.795609 3 0 3 
z
" style="stroke: #2ca02c"/>
    </defs>
    <g clip-path="url(#p6b5fddb6c1)">
     <use xlink:href="#m6e2919efd7" x="102.563466" y="298.275089" style="fill: #2ca02c; stroke: #2ca02c"/>
     <use xlink:href="#m6e2919efd7" x="159.662898" y="133.778278" style="fill: #2ca02c; stroke: #2ca02c"/>
     <use xlink:href="#m6e2919efd7" x="216.76233" y="87.290133" style="fill: #2ca02c; stroke: #2ca02c"/>
     <use xlink:href="#m6e2919efd7" x="273.861761" y="66.86308" style="fill: #2ca02c; stroke: #2ca02c"/>
     <use xlink:href="#m6e2919efd7" x="330.961193" y="280.042975" style="fill: #2ca02c; stroke: #2ca02c"/>
     <use xlink:href="#m6e2919efd7" x="388.060625" y="61.215078" style="fill: #2ca02c; stroke: #2ca02c"/>
     <use xlink:href="#m6e2919efd7" x="445.160057" y="135.882604" style="fill: #2ca02c; stroke: #2ca02c"/>
     <use xlink:href="#m6e2919efd7" x="502.259489" y="74.476918" style="fill: #2ca02c; stroke: #2ca02c"/>
     <use xlink:href="#m6e2919efd7" x="559.35892" y="243.451125" style="fill: #2ca02c; stroke: #2ca02c"/>
     <use xlink:href="#m6e2919efd7" x="616.458352" y="306.238522" style="fill: #2ca02c; stroke: #2ca02c"/>
     <use xlink:href="#m6e2919efd7" x="673.557784" y="59.161309" style="fill: #2ca02c; stroke: #2ca02c"/>
    </g>
   </g>
   <g id="line2d_22">
    <path d="M 102.563466 373.029381 
L 159.662898 352.306221 
L 216.76233 121.036953 
L 273.861761 344.804476 
L 330.961193 370.529259 
L 388.060625 355.154568 
L 445.160057 404.059127 
L 502.259489 143.604983 
L 559.35892 46.813736 
L 616.458352 338.263343 
L 673.557784 335.731596 
" clip-path="url(#p6b5fddb6c1)" style="fill: none; stroke: #d62728; stroke-width: 2; stroke-linecap: square"/>
    <defs>
     <path id="mf72985e669" d="M 0 3 
C 0.795609 3 1.55874 2.683901 2.12132 2.12132 
C 2.683901 1.55874 3 0.795609 3 0 
C 3 -0.795609 2.683901 -1.55874 2.12132 -2.12132 
C 1.55874 -2.683901 0.795609 -3 0 -3 
C -0.795609 -3 -1.55874 -2.683901 -2.12132 -2.12132 
C -2.683901 -1.55874 -3 -0.795609 -3 0 
C -3 0.795609 -2.683901 1.55874 -2.12132 2.12132 
C -1.55874 2.683901 -0.795609 3 0 3 
z
" style="stroke: #d62728"/>
    </defs>
    <g clip-path="url(#p6b5fddb6c1)">
     <use xlink:href="#mf72985e669" x="102.563466" y="373.029381" style="fill: #d62728; stroke: #d62728"/>
     <use xlink:href="#mf72985e669" x="159.662898" y="352.306221" style="fill: #d62728; stroke: #d62728"/>
     <use xlink:href="#mf72985e669" x="216.76233" y="121.036953" style="fill: #d62728; stroke: #d62728"/>
     <use xlink:href="#mf72985e669" x="273.861761" y="344.804476" style="fill: #d62728; stroke: #d62728"/>
     <use xlink:href="#mf72985e669" x="330.961193" y="370.529259" style="fill: #d62728; stroke: #d62728"/>
     <use xlink:href="#mf72985e669" x="388.060625" y="355.154568" style="fill: #d62728; stroke: #d62728"/>
     <use xlink:href="#mf72985e669" x="445.160057" y="404.059127" style="fill: #d62728; stroke: #d62728"/>
     <use xlink:href="#mf72985e669" x="502.259489" y="143.604983" style="fill: #d62728; stroke: #d62728"/>
     <use xlink:href="#mf72985e669" x="559.35892" y="46.813736" style="fill: #d62728; stroke: #d62728"/>
     <use xlink:href="#mf72985e669" x="616.458352" y="338.263343" style="fill: #d62728; stroke: #d62728"/>
     <use xlink:href="#mf72985e669" x="673.557784" y="335.731596" style="fill: #d62728; stroke: #d62728"/>
    </g>
   </g>
   <g id="line2d_23">
    <path d="M 102.563466 464.309605 
L 159.662898 477.077263 
L 216.76233 449.069256 
L 273.861761 470.788271 
L 330.961193 431.46267 
L 388.060625 463.363867 
L 445.160057 485.143272 
L 502.259489 453.689998 
L 559.35892 449.582281 
L 616.458352 462.843248 
L 673.557784 430.269662 
" clip-path="url(#p6b5fddb6c1)" style="fill: none; stroke: #9467bd; stroke-width: 2; stroke-linecap: square"/>
    <defs>
     <path id="m517f56f66f" d="M 0 3 
C 0.795609 3 1.55874 2.683901 2.12132 2.12132 
C 2.683901 1.55874 3 0.795609 3 0 
C 3 -0.795609 2.683901 -1.55874 2.12132 -2.12132 
C 1.55874 -2.683901 0.795609 -3 0 -3 
C -0.795609 -3 -1.55874 -2.683901 -2.12132 -2.12132 
C -2.683901 -1.55874 -3 -0.795609 -3 0 
C -3 0.795609 -2.683901 1.55874 -2.12132 2.12132 
C -1.55874 2.683901 -0.795609 3 0 3 
z
" style="stroke: #9467bd"/>
    </defs>
    <g clip-path="url(#p6b5fddb6c1)">
     <use xlink:href="#m517f56f66f" x="102.563466" y="464.309605" style="fill: #9467bd; stroke: #9467bd"/>
     <use xlink:href="#m517f56f66f" x="159.662898" y="477.077263" style="fill: #9467bd; stroke: #9467bd"/>
     <use xlink:href="#m517f56f66f" x="216.76233" y="449.069256" style="fill: #9467bd; stroke: #9467bd"/>
     <use xlink:href="#m517f56f66f" x="273.861761" y="470.788271" style="fill: #9467bd; stroke: #9467bd"/>
     <use xlink:href="#m517f56f66f" x="330.961193" y="431.46267" style="fill: #9467bd; stroke: #9467bd"/>
     <use xlink:href="#m517f56f66f" x="388.060625" y="463.363867" style="fill: #9467bd; stroke: #9467bd"/>
     <use xlink:href="#m517f56f66f" x="445.160057" y="485.143272" style="fill: #9467bd; stroke: #9467bd"/>
     <use xlink:href="#m517f56f66f" x="502.259489" y="453.689998" style="fill: #9467bd; stroke: #9467bd"/>
     <use xlink:href="#m517f56f66f" x="559.35892" y="449.582281" style="fill: #9467bd; stroke: #9467bd"/>
     <use xlink:href="#m517f56f66f" x="616.458352" y="462.843248" style="fill: #9467bd; stroke: #9467bd"/>
     <use xlink:href="#m517f56f66f" x="673.557784" y="430.269662" style="fill: #9467bd; stroke: #9467bd"/>
    </g>
   </g>
   <g id="line2d_24">
    <path d="M 102.563466 326.32742 
L 159.662898 87.537752 
L 216.76233 329.290706 
L 273.861761 303.293627 
L 330.961193 246.92087 
L 388.060625 315.864585 
L 445.160057 294.052641 
L 502.259489 236.128424 
L 559.35892 283.631949 
L 616.458352 65.400396 
L 673.557784 330.799967 
" clip-path="url(#p6b5fddb6c1)" style="fill: none; stroke: #8c564b; stroke-width: 2; stroke-linecap: square"/>
    <defs>
     <path id="m79c39e99db" d="M 0 3 
C 0.795609 3 1.55874 2.683901 2.12132 2.12132 
C 2.683901 1.55874 3 0.795609 3 0 
C 3 -0.795609 2.683901 -1.55874 2.12132 -2.12132 
C 1.55874 -2.683901 0.795609 -3 0 -3 
C -0.795609 -3 -1.55874 -2.683901 -2.12132 -2.12132 
C -2.683901 -1.55874 -3 -0.795609 -3 0 
C -3 0.795609 -2.683901 1.55874 -2.12132 2.12132 
C -1.55874 2.683901 -0.795609 3 0 3 
z
" style="stroke: #8c564b"/>
    </defs>
    <g clip-path="url(#p6b5fddb6c1)">
     <use xlink:href="#m79c39e99db" x="102.563466" y="326.32742" style="fill: #8c564b; stroke: #8c564b"/>
     <use xlink:href="#m79c39e99db" x="159.662898" y="87.537752" style="fill: #8c564b; stroke: #8c564b"/>
     <use xlink:href="#m79c39e99db" x="216.76233" y="329.290706" style="fill: #8c564b; stroke: #8c564b"/>
     <use xlink:href="#m79c39e99db" x="273.861761" y="303.293627" style="fill: #8c564b; stroke: #8c564b"/>
     <use xlink:href="#m79c39e99db" x="330.961193" y="246.92087" style="fill: #8c564b; stroke: #8c564b"/>
     <use xlink:href="#m79c39e99db" x="388.060625" y="315.864585" style="fill: #8c564b; stroke: #8c564b"/>
     <use xlink:href="#m79c39e99db" x="445.160057" y="294.052641" style="fill: #8c564b; stroke: #8c564b"/>
     <use xlink:href="#m79c39e99db" x="502.259489" y="236.128424" style="fill: #8c564b; stroke: #8c564b"/>
     <use xlink:href="#m79c39e99db" x="559.35892" y="283.631949" style="fill: #8c564b; stroke: #8c564b"/>
     <use xlink:href="#m79c39e99db" x="616.458352" y="65.400396" style="fill: #8c564b; stroke: #8c564b"/>
     <use xlink:href="#m79c39e99db" x="673.557784" y="330.799967" style="fill: #8c564b; stroke: #8c564b"/>
    </g>
   </g>
   <g id="patch_3">
    <path d="M 74.01375 529.308125 
L 74.01375 23.837813 
" style="fill: none; stroke: #000000; stroke-width: 0.8; stroke-linejoin: miter; stroke-linecap: square"/>
   </g>
   <g id="patch_4">
    <path d="M 702.1075 529.308125 
L 702.1075 23.837813 
" style="fill: none; stroke: #000000; stroke-width: 0.8; stroke-linejoin: miter; stroke-linecap: square"/>
   </g>
   <g id="patch_5">
    <path d="M 74.01375 529.308125 
L 702.1075 529.308125 
" style="fill: none; stroke: #000000; stroke-width: 0.8; stroke-linejoin: miter; stroke-linecap: square"/>
   </g>
   <g id="patch_6">
    <path d="M 74.01375 23.837812 
L 702.1075 23.837812 
" style="fill: none; stroke: #000000; stroke-width: 0.8; stroke-linejoin: miter; stroke-linecap: square"/>
   </g>
   <g id="text_16">
    <text style="font: 700 14px 'DejaVu Sans', 'Bitstream Vera Sans', 'Computer Modern Sans Serif', 'Lucida Grande', 'Verdana', 'Geneva', 'Lucid', 'Arial', 'Helvetica', 'Avant Garde', sans-serif; text-anchor: middle" x="388.060625" y="17.837813" transform="rotate(-0 388.060625 17.837813)">Tasksubmission - Performance Trend</text>
   </g>
   <g id="legend_1">
    <g id="patch_7">
     <path d="M 740.512187 119.906563 
L 845.524688 119.906563 
Q 847.524688 119.906563 847.524688 117.906563 
L 847.524688 30.837813 
Q 847.524688 28.837813 845.524688 28.837813 
L 740.512187 28.837813 
Q 738.512187 28.837813 738.512187 30.837813 
L 738.512187 117.906563 
Q 738.512187 119.906563 740.512187 119.906563 
z
" style="fill: #ffffff; opacity: 0.8; stroke: #cccccc; stroke-linejoin: miter"/>
    </g>
    <g id="line2d_25">
     <path d="M 742.512187 36.93625 
L 752.512187 36.93625 
L 762.512187 36.93625 
" style="fill: none; stroke: #1f77b4; stroke-width: 2; stroke-linecap: square"/>
     <g>
      <use xlink:href="#m6efeaa464d" x="752.512187" y="36.93625" style="fill: #1f77b4; stroke: #1f77b4"/>
     </g>
    </g>
    <g id="text_17">
     <text style="font: 10px 'DejaVu Sans', 'Bitstream Vera Sans', 'Computer Modern Sans Serif', 'Lucida Grande', 'Verdana', 'Geneva', 'Lucid', 'Arial', 'Helvetica', 'Avant Garde', sans-serif; text-anchor: start" x="770.512187" y="40.43625" transform="rotate(-0 770.512187 40.43625)">gcc-14.2 - V1</text>
    </g>
    <g id="line2d_26">
     <path d="M 742.512187 51.614375 
L 752.512187 51.614375 
L 762.512187 51.614375 
" style="fill: none; stroke: #ff7f0e; stroke-width: 2; stroke-linecap: square"/>
     <g>
      <use xlink:href="#m36dfd45270" x="752.512187" y="51.614375" style="fill: #ff7f0e; stroke: #ff7f0e"/>
     </g>
    </g>
    <g id="text_18">
     <text style="font: 10px 'DejaVu Sans', 'Bitstream Vera Sans', 'Computer Modern Sans Serif', 'Lucida Grande', 'Verdana', 'Geneva', 'Lucid', 'Arial', 'Helvetica', 'Avant Garde', sans-serif; text-anchor: start" x="770.512187" y="55.114375" transform="rotate(-0 770.512187 55.114375)">gcc-14.2 - V2</text>
    </g>
    <g id="line2d_27">
     <path d="M 742.512187 66.2925 
L 752.512187 66.2925 
L 762.512187 66.2925 
" style="fill: none; stroke: #2ca02c; stroke-width: 2; stroke-linecap: square"/>
     <g>
      <use xlink:href="#m6e2919efd7" x="752.512187" y="66.2925" style="fill: #2ca02c; stroke: #2ca02c"/>
     </g>
    </g>
    <g id="text_19">
     <text style="font: 10px 'DejaVu Sans', 'Bitstream Vera Sans', 'Computer Modern Sans Serif', 'Lucida Grande', 'Verdana', 'Geneva', 'Lucid', 'Arial', 'Helvetica', 'Avant Garde', sans-serif; text-anchor: start" x="770.512187" y="69.7925" transform="rotate(-0 770.512187 69.7925)">gcc-14.2 - TBB</text>
    </g>
    <g id="line2d_28">
     <path d="M 742.512187 80.970625 
L 752.512187 80.970625 
L 762.512187 80.970625 
" style="fill: none; stroke: #d62728; stroke-width: 2; stroke-linecap: square"/>
     <g>
      <use xlink:href="#mf72985e669" x="752.512187" y="80.970625" style="fill: #d62728; stroke: #d62728"/>
     </g>
    </g>
    <g id="text_20">
     <text style="font: 10px 'DejaVu Sans', 'Bitstream Vera Sans', 'Computer Modern Sans Serif', 'Lucida Grande', 'Verdana', 'Geneva', 'Lucid', 'Arial', 'Helvetica', 'Avant Garde', sans-serif; text-anchor: start" x="770.512187" y="84.470625" transform="rotate(-0 770.512187 84.470625)">gcc-4.2 - V1</text>
    </g>
    <g id="line2d_29">
     <path d="M 742.512187 95.64875 
L 752.512187 95.64875 
L 762.512187 95.64875 
" style="fill: none; stroke: #9467bd; stroke-width: 2; stroke-linecap: square"/>
     <g>
      <use xlink:href="#m517f56f66f" x="752.512187" y="95.64875" style="fill: #9467bd; stroke: #9467bd"/>
     </g>
    </g>
    <g id="text_21">
     <text style="font: 10px 'DejaVu Sans', 'Bitstream Vera Sans', 'Computer Modern Sans Serif', 'Lucida Grande', 'Verdana', 'Geneva', 'Lucid', 'Arial', 'Helvetica', 'Avant Garde', sans-serif; text-anchor: start" x="770.512187" y="99.14875" transform="rotate(-0 770.512187 99.14875)">gcc-4.2 - V2</text>
    </g>
    <g id="line2d_30">
     <path d="M 742.512187 110.326875 
L 752.512187 110.326875 
L 762.512187 110.326875 
" style="fill: none; stroke: #8c564b; stroke-width: 2; stroke-linecap: square"/>
     <g>
      <use xlink:href="#m79c39e99db" x="752.512187" y="110.326875" style="fill: #8c564b; stroke: #8c564b"/>
     </g>
    </g>
    <g id="text_22">
     <text style="font: 10px 'DejaVu Sans', 'Bitstream Vera Sans', 'Computer Modern Sans Serif', 'Lucida Grande', 'Verdana', 'Geneva', 'Lucid', 'Arial', 'Helvetica', 'Avant Garde', sans-serif; text-anchor: start" x="770.512187" y="113.826875" transform="rotate(-0 770.512187 113.826875)">gcc-4.2 - TBB</text>
    </g>
   </g>
  </g>
 </g>
 <defs>
  <clipPath id="p6b5fddb6c1">
   <rect x="74.01375" y="23.837813" width="628.09375" height="505.470313"/>
  </clipPath>
 </defs>
</svg>
