<?xml version="1.0" encoding="utf-8" standalone="no"?>
<!DOCTYPE svg PUBLIC "-//W3C//DTD SVG 1.1//EN"
  "http://www.w3.org/Graphics/SVG/1.1/DTD/svg11.dtd">
<svg xmlns:xlink="http://www.w3.org/1999/xlink" width="856.684141pt" height="568.8pt" viewBox="0 0 856.684141 568.8" xmlns="http://www.w3.org/2000/svg" version="1.1">
 <metadata>
  <rdf:RDF xmlns:dc="http://purl.org/dc/elements/1.1/" xmlns:cc="http://creativecommons.org/ns#" xmlns:rdf="http://www.w3.org/1999/02/22-rdf-syntax-ns#">
   <cc:Work>
    <dc:type rdf:resource="http://purl.org/dc/dcmitype/StillImage"/>
    <dc:date>2025-09-02T22:19:08.301316</dc:date>
    <dc:format>image/svg+xml</dc:format>
    <dc:creator>
     <cc:Agent>
      <dc:title>Matplotlib v3.9.4, https://matplotlib.org/</dc:title>
     </cc:Agent>
    </dc:creator>
   </cc:Work>
  </rdf:RDF>
 </metadata>
 <defs>
  <style type="text/css">*{stroke-linejoin: round; stroke-linecap: butt}</style>
 </defs>
 <g id="figure_1">
  <g id="patch_1">
   <path d="M 0 568.8 
L 856.684141 568.8 
L 856.684141 0 
L 0 0 
z
" style="fill: #ffffff"/>
  </g>
  <g id="axes_1">
   <g id="patch_2">
    <path d="M 64.41375 529.308125 
L 731.696562 529.308125 
L 731.696562 23.837812 
L 64.41375 23.837812 
z
" style="fill: #ffffff"/>
   </g>
   <g id="matplotlib.axis_1">
    <g id="xtick_1">
     <g id="line2d_1">
      <path d="M 81.837963 529.308125 
L 81.837963 23.837812 
" clip-path="url(#p25852a6c98)" style="fill: none; stroke: #b0b0b0; stroke-opacity: 0.3; stroke-width: 0.8; stroke-linecap: square"/>
     </g>
     <g id="line2d_2">
      <defs>
       <path id="mb89ff5e8c5" d="M 0 0 
L 0 3.5 
" style="stroke: #000000; stroke-width: 0.8"/>
      </defs>
      <g>
       <use xlink:href="#mb89ff5e8c5" x="81.837963" y="529.308125" style="stroke: #000000; stroke-width: 0.8"/>
      </g>
     </g>
     <g id="text_1">
      <text style="font: 10px 'DejaVu Sans', 'Bitstream Vera Sans', 'Computer Modern Sans Serif', 'Lucida Grande', 'Verdana', 'Geneva', 'Lucid', 'Arial', 'Helvetica', 'Avant Garde', sans-serif; text-anchor: middle" x="81.837963" y="543.906563" transform="rotate(-0 81.837963 543.906563)">70</text>
     </g>
    </g>
    <g id="xtick_2">
     <g id="line2d_3">
      <path d="M 210.906205 529.308125 
L 210.906205 23.837812 
" clip-path="url(#p25852a6c98)" style="fill: none; stroke: #b0b0b0; stroke-opacity: 0.3; stroke-width: 0.8; stroke-linecap: square"/>
     </g>
     <g id="line2d_4">
      <g>
       <use xlink:href="#mb89ff5e8c5" x="210.906205" y="529.308125" style="stroke: #000000; stroke-width: 0.8"/>
      </g>
     </g>
     <g id="text_2">
      <text style="font: 10px 'DejaVu Sans', 'Bitstream Vera Sans', 'Computer Modern Sans Serif', 'Lucida Grande', 'Verdana', 'Geneva', 'Lucid', 'Arial', 'Helvetica', 'Avant Garde', sans-serif; text-anchor: middle" x="210.906205" y="543.906563" transform="rotate(-0 210.906205 543.906563)">80</text>
     </g>
    </g>
    <g id="xtick_3">
     <g id="line2d_5">
      <path d="M 339.974447 529.308125 
L 339.974447 23.837812 
" clip-path="url(#p25852a6c98)" style="fill: none; stroke: #b0b0b0; stroke-opacity: 0.3; stroke-width: 0.8; stroke-linecap: square"/>
     </g>
     <g id="line2d_6">
      <g>
       <use xlink:href="#mb89ff5e8c5" x="339.974447" y="529.308125" style="stroke: #000000; stroke-width: 0.8"/>
      </g>
     </g>
     <g id="text_3">
      <text style="font: 10px 'DejaVu Sans', 'Bitstream Vera Sans', 'Computer Modern Sans Serif', 'Lucida Grande', 'Verdana', 'Geneva', 'Lucid', 'Arial', 'Helvetica', 'Avant Garde', sans-serif; text-anchor: middle" x="339.974447" y="543.906563" transform="rotate(-0 339.974447 543.906563)">90</text>
     </g>
    </g>
    <g id="xtick_4">
     <g id="line2d_7">
      <path d="M 469.042689 529.308125 
L 469.042689 23.837812 
" clip-path="url(#p25852a6c98)" style="fill: none; stroke: #b0b0b0; stroke-opacity: 0.3; stroke-width: 0.8; stroke-linecap: square"/>
     </g>
     <g id="line2d_8">
      <g>
       <use xlink:href="#mb89ff5e8c5" x="469.042689" y="529.308125" style="stroke: #000000; stroke-width: 0.8"/>
      </g>
     </g>
     <g id="text_4">
      <text style="font: 10px 'DejaVu Sans', 'Bitstream Vera Sans', 'Computer Modern Sans Serif', 'Lucida Grande', 'Verdana', 'Geneva', 'Lucid', 'Arial', 'Helvetica', 'Avant Garde', sans-serif; text-anchor: middle" x="469.042689" y="543.906563" transform="rotate(-0 469.042689 543.906563)">100</text>
     </g>
    </g>
    <g id="xtick_5">
     <g id="line2d_9">
      <path d="M 598.110932 529.308125 
L 598.110932 23.837812 
" clip-path="url(#p25852a6c98)" style="fill: none; stroke: #b0b0b0; stroke-opacity: 0.3; stroke-width: 0.8; stroke-linecap: square"/>
     </g>
     <g id="line2d_10">
      <g>
       <use xlink:href="#mb89ff5e8c5" x="598.110932" y="529.308125" style="stroke: #000000; stroke-width: 0.8"/>
      </g>
     </g>
     <g id="text_5">
      <text style="font: 10px 'DejaVu Sans', 'Bitstream Vera Sans', 'Computer Modern Sans Serif', 'Lucida Grande', 'Verdana', 'Geneva', 'Lucid', 'Arial', 'Helvetica', 'Avant Garde', sans-serif; text-anchor: middle" x="598.110932" y="543.906563" transform="rotate(-0 598.110932 543.906563)">110</text>
     </g>
    </g>
    <g id="xtick_6">
     <g id="line2d_11">
      <path d="M 727.179174 529.308125 
L 727.179174 23.837812 
" clip-path="url(#p25852a6c98)" style="fill: none; stroke: #b0b0b0; stroke-opacity: 0.3; stroke-width: 0.8; stroke-linecap: square"/>
     </g>
     <g id="line2d_12">
      <g>
       <use xlink:href="#mb89ff5e8c5" x="727.179174" y="529.308125" style="stroke: #000000; stroke-width: 0.8"/>
      </g>
     </g>
     <g id="text_6">
      <text style="font: 10px 'DejaVu Sans', 'Bitstream Vera Sans', 'Computer Modern Sans Serif', 'Lucida Grande', 'Verdana', 'Geneva', 'Lucid', 'Arial', 'Helvetica', 'Avant Garde', sans-serif; text-anchor: middle" x="727.179174" y="543.906563" transform="rotate(-0 727.179174 543.906563)">120</text>
     </g>
    </g>
    <g id="text_7">
     <text style="font: 12px 'DejaVu Sans', 'Bitstream Vera Sans', 'Computer Modern Sans Serif', 'Lucida Grande', 'Verdana', 'Geneva', 'Lucid', 'Arial', 'Helvetica', 'Avant Garde', sans-serif; text-anchor: middle" x="398.055156" y="559.104375" transform="rotate(-0 398.055156 559.104375)">Build Number</text>
    </g>
   </g>
   <g id="matplotlib.axis_2">
    <g id="ytick_1">
     <g id="line2d_13">
      <defs>
       <path id="m9333a311eb" d="M 0 0 
L -2 0 
" style="stroke: #000000; stroke-width: 0.6"/>
      </defs>
      <g>
       <use xlink:href="#m9333a311eb" x="64.41375" y="480.418415" style="stroke: #000000; stroke-width: 0.6"/>
      </g>
     </g>
     <g id="text_8">
      <!-- $\mathdefault{4\times10^{0}}$ -->
      <g transform="translate(22.81375 484.217634)">
       <text>
        <tspan style="font: 10px 'DejaVu Sans'" x="0 8.310547 18.637695 25" y="-0.9765625">4×10</tspan>
        <tspan style="font: 7px 'DejaVu Sans'" x="31.458008" y="-4.8046875">0</tspan>
       </text>
      </g>
     </g>
    </g>
    <g id="ytick_2">
     <g id="line2d_14">
      <g>
       <use xlink:href="#m9333a311eb" x="64.41375" y="252.022085" style="stroke: #000000; stroke-width: 0.6"/>
      </g>
     </g>
     <g id="text_9">
      <!-- $\mathdefault{5\times10^{0}}$ -->
      <g transform="translate(22.81375 255.821304)">
       <text>
        <tspan style="font: 10px 'DejaVu Sans'" x="0 8.310547 18.637695 25" y="-0.9765625">5×10</tspan>
        <tspan style="font: 7px 'DejaVu Sans'" x="31.458008" y="-4.8046875">0</tspan>
       </text>
      </g>
     </g>
    </g>
    <g id="ytick_3">
     <g id="line2d_15">
      <g>
       <use xlink:href="#m9333a311eb" x="64.41375" y="65.408696" style="stroke: #000000; stroke-width: 0.6"/>
      </g>
     </g>
     <g id="text_10">
      <!-- $\mathdefault{6\times10^{0}}$ -->
      <g transform="translate(22.81375 69.207915)">
       <text>
        <tspan style="font: 10px 'DejaVu Sans'" x="0 8.310547 18.637695 25" y="-0.9765625">6×10</tspan>
        <tspan style="font: 7px 'DejaVu Sans'" x="31.458008" y="-4.8046875">0</tspan>
       </text>
      </g>
     </g>
    </g>
    <g id="text_11">
     <text style="font: 12px 'DejaVu Sans', 'Bitstream Vera Sans', 'Computer Modern Sans Serif', 'Lucida Grande', 'Verdana', 'Geneva', 'Lucid', 'Arial', 'Helvetica', 'Avant Garde', sans-serif; text-anchor: middle" x="16.318125" y="276.572969" transform="rotate(-90 16.318125 276.572969)">Median Elapsed Time (nanoseconds)</text>
    </g>
   </g>
   <g id="line2d_16">
    <path d="M 94.744787 428.045632 
L 107.651611 428.045632 
L 120.558435 428.045632 
L 133.46526 428.045632 
L 146.372084 428.045632 
L 159.278908 428.045632 
L 172.185732 428.045632 
L 185.092557 428.045632 
L 197.999381 428.045632 
L 210.906205 428.045632 
L 223.813029 428.045632 
L 236.719853 430.479735 
L 249.626678 428.045632 
L 275.440326 430.479735 
L 288.34715 430.479735 
L 314.160799 428.045632 
L 327.067623 428.045632 
L 339.974447 428.045632 
L 352.881271 452.651141 
L 365.788096 428.045632 
L 391.601744 428.045632 
L 404.508568 428.045632 
L 417.415393 428.045632 
L 430.322217 428.045632 
L 456.135865 430.479735 
L 469.042689 430.479735 
L 481.949514 428.045632 
L 494.856338 430.479735 
L 507.763162 430.479735 
L 520.669986 428.045632 
L 533.576811 430.479735 
L 546.483635 430.479735 
L 572.297283 503.711099 
L 585.204108 503.711099 
L 598.110932 506.332202 
L 623.92458 503.711099 
L 662.645053 503.711099 
L 675.551877 506.332202 
L 688.458701 506.332202 
L 701.365526 503.711099 
" clip-path="url(#p25852a6c98)" style="fill: none; stroke: #1f77b4; stroke-width: 2; stroke-linecap: square"/>
    <defs>
     <path id="m3cc81d9513" d="M 0 3 
C 0.795609 3 1.55874 2.683901 2.12132 2.12132 
C 2.683901 1.55874 3 0.795609 3 0 
C 3 -0.795609 2.683901 -1.55874 2.12132 -2.12132 
C 1.55874 -2.683901 0.795609 -3 0 -3 
C -0.795609 -3 -1.55874 -2.683901 -2.12132 -2.12132 
C -2.683901 -1.55874 -3 -0.795609 -3 0 
C -3 0.795609 -2.683901 1.55874 -2.12132 2.12132 
C -1.55874 2.683901 -0.795609 3 0 3 
z
" style="stroke: #1f77b4"/>
    </defs>
    <g clip-path="url(#p25852a6c98)">
     <use xlink:href="#m3cc81d9513" x="94.744787" y="428.045632" style="fill: #1f77b4; stroke: #1f77b4"/>
     <use xlink:href="#m3cc81d9513" x="107.651611" y="428.045632" style="fill: #1f77b4; stroke: #1f77b4"/>
     <use xlink:href="#m3cc81d9513" x="120.558435" y="428.045632" style="fill: #1f77b4; stroke: #1f77b4"/>
     <use xlink:href="#m3cc81d9513" x="133.46526" y="428.045632" style="fill: #1f77b4; stroke: #1f77b4"/>
     <use xlink:href="#m3cc81d9513" x="146.372084" y="428.045632" style="fill: #1f77b4; stroke: #1f77b4"/>
     <use xlink:href="#m3cc81d9513" x="159.278908" y="428.045632" style="fill: #1f77b4; stroke: #1f77b4"/>
     <use xlink:href="#m3cc81d9513" x="172.185732" y="428.045632" style="fill: #1f77b4; stroke: #1f77b4"/>
     <use xlink:href="#m3cc81d9513" x="185.092557" y="428.045632" style="fill: #1f77b4; stroke: #1f77b4"/>
     <use xlink:href="#m3cc81d9513" x="197.999381" y="428.045632" style="fill: #1f77b4; stroke: #1f77b4"/>
     <use xlink:href="#m3cc81d9513" x="210.906205" y="428.045632" style="fill: #1f77b4; stroke: #1f77b4"/>
     <use xlink:href="#m3cc81d9513" x="223.813029" y="428.045632" style="fill: #1f77b4; stroke: #1f77b4"/>
     <use xlink:href="#m3cc81d9513" x="236.719853" y="430.479735" style="fill: #1f77b4; stroke: #1f77b4"/>
     <use xlink:href="#m3cc81d9513" x="249.626678" y="428.045632" style="fill: #1f77b4; stroke: #1f77b4"/>
     <use xlink:href="#m3cc81d9513" x="275.440326" y="430.479735" style="fill: #1f77b4; stroke: #1f77b4"/>
     <use xlink:href="#m3cc81d9513" x="288.34715" y="430.479735" style="fill: #1f77b4; stroke: #1f77b4"/>
     <use xlink:href="#m3cc81d9513" x="314.160799" y="428.045632" style="fill: #1f77b4; stroke: #1f77b4"/>
     <use xlink:href="#m3cc81d9513" x="327.067623" y="428.045632" style="fill: #1f77b4; stroke: #1f77b4"/>
     <use xlink:href="#m3cc81d9513" x="339.974447" y="428.045632" style="fill: #1f77b4; stroke: #1f77b4"/>
     <use xlink:href="#m3cc81d9513" x="352.881271" y="452.651141" style="fill: #1f77b4; stroke: #1f77b4"/>
     <use xlink:href="#m3cc81d9513" x="365.788096" y="428.045632" style="fill: #1f77b4; stroke: #1f77b4"/>
     <use xlink:href="#m3cc81d9513" x="391.601744" y="428.045632" style="fill: #1f77b4; stroke: #1f77b4"/>
     <use xlink:href="#m3cc81d9513" x="404.508568" y="428.045632" style="fill: #1f77b4; stroke: #1f77b4"/>
     <use xlink:href="#m3cc81d9513" x="417.415393" y="428.045632" style="fill: #1f77b4; stroke: #1f77b4"/>
     <use xlink:href="#m3cc81d9513" x="430.322217" y="428.045632" style="fill: #1f77b4; stroke: #1f77b4"/>
     <use xlink:href="#m3cc81d9513" x="456.135865" y="430.479735" style="fill: #1f77b4; stroke: #1f77b4"/>
     <use xlink:href="#m3cc81d9513" x="469.042689" y="430.479735" style="fill: #1f77b4; stroke: #1f77b4"/>
     <use xlink:href="#m3cc81d9513" x="481.949514" y="428.045632" style="fill: #1f77b4; stroke: #1f77b4"/>
     <use xlink:href="#m3cc81d9513" x="494.856338" y="430.479735" style="fill: #1f77b4; stroke: #1f77b4"/>
     <use xlink:href="#m3cc81d9513" x="507.763162" y="430.479735" style="fill: #1f77b4; stroke: #1f77b4"/>
     <use xlink:href="#m3cc81d9513" x="520.669986" y="428.045632" style="fill: #1f77b4; stroke: #1f77b4"/>
     <use xlink:href="#m3cc81d9513" x="533.576811" y="430.479735" style="fill: #1f77b4; stroke: #1f77b4"/>
     <use xlink:href="#m3cc81d9513" x="546.483635" y="430.479735" style="fill: #1f77b4; stroke: #1f77b4"/>
     <use xlink:href="#m3cc81d9513" x="572.297283" y="503.711099" style="fill: #1f77b4; stroke: #1f77b4"/>
     <use xlink:href="#m3cc81d9513" x="585.204108" y="503.711099" style="fill: #1f77b4; stroke: #1f77b4"/>
     <use xlink:href="#m3cc81d9513" x="598.110932" y="506.332202" style="fill: #1f77b4; stroke: #1f77b4"/>
     <use xlink:href="#m3cc81d9513" x="623.92458" y="503.711099" style="fill: #1f77b4; stroke: #1f77b4"/>
     <use xlink:href="#m3cc81d9513" x="662.645053" y="503.711099" style="fill: #1f77b4; stroke: #1f77b4"/>
     <use xlink:href="#m3cc81d9513" x="675.551877" y="506.332202" style="fill: #1f77b4; stroke: #1f77b4"/>
     <use xlink:href="#m3cc81d9513" x="688.458701" y="506.332202" style="fill: #1f77b4; stroke: #1f77b4"/>
     <use xlink:href="#m3cc81d9513" x="701.365526" y="503.711099" style="fill: #1f77b4; stroke: #1f77b4"/>
    </g>
   </g>
   <g id="line2d_17">
    <path d="M 94.744787 503.711099 
L 107.651611 404.01777 
L 120.558435 406.395332 
L 133.46526 428.045632 
L 146.372084 406.395332 
L 159.278908 428.045632 
L 172.185732 428.045632 
L 185.092557 406.395332 
L 197.999381 428.045632 
L 210.906205 404.01777 
L 223.813029 428.045632 
L 236.719853 406.395332 
L 249.626678 404.01777 
L 262.533502 404.01777 
L 275.440326 428.045632 
L 288.34715 406.395332 
L 314.160799 406.395332 
L 327.067623 406.395332 
L 339.974447 428.045632 
L 352.881271 404.01777 
L 365.788096 406.395332 
L 378.69492 406.395332 
L 391.601744 406.395332 
L 404.508568 404.01777 
L 417.415393 406.395332 
L 430.322217 46.813736 
L 456.135865 428.045632 
L 469.042689 428.045632 
L 481.949514 406.395332 
L 494.856338 404.01777 
L 507.763162 404.01777 
L 520.669986 404.01777 
L 533.576811 406.395332 
L 546.483635 404.01777 
L 572.297283 404.01777 
L 585.204108 428.045632 
L 598.110932 406.395332 
L 611.017756 406.395332 
L 623.92458 406.395332 
L 649.738229 428.045632 
L 662.645053 404.01777 
L 675.551877 404.01777 
L 688.458701 404.01777 
L 701.365526 404.01777 
" clip-path="url(#p25852a6c98)" style="fill: none; stroke: #ff7f0e; stroke-width: 2; stroke-linecap: square"/>
    <defs>
     <path id="mf7545556ea" d="M 0 3 
C 0.795609 3 1.55874 2.683901 2.12132 2.12132 
C 2.683901 1.55874 3 0.795609 3 0 
C 3 -0.795609 2.683901 -1.55874 2.12132 -2.12132 
C 1.55874 -2.683901 0.795609 -3 0 -3 
C -0.795609 -3 -1.55874 -2.683901 -2.12132 -2.12132 
C -2.683901 -1.55874 -3 -0.795609 -3 0 
C -3 0.795609 -2.683901 1.55874 -2.12132 2.12132 
C -1.55874 2.683901 -0.795609 3 0 3 
z
" style="stroke: #ff7f0e"/>
    </defs>
    <g clip-path="url(#p25852a6c98)">
     <use xlink:href="#mf7545556ea" x="94.744787" y="503.711099" style="fill: #ff7f0e; stroke: #ff7f0e"/>
     <use xlink:href="#mf7545556ea" x="107.651611" y="404.01777" style="fill: #ff7f0e; stroke: #ff7f0e"/>
     <use xlink:href="#mf7545556ea" x="120.558435" y="406.395332" style="fill: #ff7f0e; stroke: #ff7f0e"/>
     <use xlink:href="#mf7545556ea" x="133.46526" y="428.045632" style="fill: #ff7f0e; stroke: #ff7f0e"/>
     <use xlink:href="#mf7545556ea" x="146.372084" y="406.395332" style="fill: #ff7f0e; stroke: #ff7f0e"/>
     <use xlink:href="#mf7545556ea" x="159.278908" y="428.045632" style="fill: #ff7f0e; stroke: #ff7f0e"/>
     <use xlink:href="#mf7545556ea" x="172.185732" y="428.045632" style="fill: #ff7f0e; stroke: #ff7f0e"/>
     <use xlink:href="#mf7545556ea" x="185.092557" y="406.395332" style="fill: #ff7f0e; stroke: #ff7f0e"/>
     <use xlink:href="#mf7545556ea" x="197.999381" y="428.045632" style="fill: #ff7f0e; stroke: #ff7f0e"/>
     <use xlink:href="#mf7545556ea" x="210.906205" y="404.01777" style="fill: #ff7f0e; stroke: #ff7f0e"/>
     <use xlink:href="#mf7545556ea" x="223.813029" y="428.045632" style="fill: #ff7f0e; stroke: #ff7f0e"/>
     <use xlink:href="#mf7545556ea" x="236.719853" y="406.395332" style="fill: #ff7f0e; stroke: #ff7f0e"/>
     <use xlink:href="#mf7545556ea" x="249.626678" y="404.01777" style="fill: #ff7f0e; stroke: #ff7f0e"/>
     <use xlink:href="#mf7545556ea" x="262.533502" y="404.01777" style="fill: #ff7f0e; stroke: #ff7f0e"/>
     <use xlink:href="#mf7545556ea" x="275.440326" y="428.045632" style="fill: #ff7f0e; stroke: #ff7f0e"/>
     <use xlink:href="#mf7545556ea" x="288.34715" y="406.395332" style="fill: #ff7f0e; stroke: #ff7f0e"/>
     <use xlink:href="#mf7545556ea" x="314.160799" y="406.395332" style="fill: #ff7f0e; stroke: #ff7f0e"/>
     <use xlink:href="#mf7545556ea" x="327.067623" y="406.395332" style="fill: #ff7f0e; stroke: #ff7f0e"/>
     <use xlink:href="#mf7545556ea" x="339.974447" y="428.045632" style="fill: #ff7f0e; stroke: #ff7f0e"/>
     <use xlink:href="#mf7545556ea" x="352.881271" y="404.01777" style="fill: #ff7f0e; stroke: #ff7f0e"/>
     <use xlink:href="#mf7545556ea" x="365.788096" y="406.395332" style="fill: #ff7f0e; stroke: #ff7f0e"/>
     <use xlink:href="#mf7545556ea" x="378.69492" y="406.395332" style="fill: #ff7f0e; stroke: #ff7f0e"/>
     <use xlink:href="#mf7545556ea" x="391.601744" y="406.395332" style="fill: #ff7f0e; stroke: #ff7f0e"/>
     <use xlink:href="#mf7545556ea" x="404.508568" y="404.01777" style="fill: #ff7f0e; stroke: #ff7f0e"/>
     <use xlink:href="#mf7545556ea" x="417.415393" y="406.395332" style="fill: #ff7f0e; stroke: #ff7f0e"/>
     <use xlink:href="#mf7545556ea" x="430.322217" y="46.813736" style="fill: #ff7f0e; stroke: #ff7f0e"/>
     <use xlink:href="#mf7545556ea" x="456.135865" y="428.045632" style="fill: #ff7f0e; stroke: #ff7f0e"/>
     <use xlink:href="#mf7545556ea" x="469.042689" y="428.045632" style="fill: #ff7f0e; stroke: #ff7f0e"/>
     <use xlink:href="#mf7545556ea" x="481.949514" y="406.395332" style="fill: #ff7f0e; stroke: #ff7f0e"/>
     <use xlink:href="#mf7545556ea" x="494.856338" y="404.01777" style="fill: #ff7f0e; stroke: #ff7f0e"/>
     <use xlink:href="#mf7545556ea" x="507.763162" y="404.01777" style="fill: #ff7f0e; stroke: #ff7f0e"/>
     <use xlink:href="#mf7545556ea" x="520.669986" y="404.01777" style="fill: #ff7f0e; stroke: #ff7f0e"/>
     <use xlink:href="#mf7545556ea" x="533.576811" y="406.395332" style="fill: #ff7f0e; stroke: #ff7f0e"/>
     <use xlink:href="#mf7545556ea" x="546.483635" y="404.01777" style="fill: #ff7f0e; stroke: #ff7f0e"/>
     <use xlink:href="#mf7545556ea" x="572.297283" y="404.01777" style="fill: #ff7f0e; stroke: #ff7f0e"/>
     <use xlink:href="#mf7545556ea" x="585.204108" y="428.045632" style="fill: #ff7f0e; stroke: #ff7f0e"/>
     <use xlink:href="#mf7545556ea" x="598.110932" y="406.395332" style="fill: #ff7f0e; stroke: #ff7f0e"/>
     <use xlink:href="#mf7545556ea" x="611.017756" y="406.395332" style="fill: #ff7f0e; stroke: #ff7f0e"/>
     <use xlink:href="#mf7545556ea" x="623.92458" y="406.395332" style="fill: #ff7f0e; stroke: #ff7f0e"/>
     <use xlink:href="#mf7545556ea" x="649.738229" y="428.045632" style="fill: #ff7f0e; stroke: #ff7f0e"/>
     <use xlink:href="#mf7545556ea" x="662.645053" y="404.01777" style="fill: #ff7f0e; stroke: #ff7f0e"/>
     <use xlink:href="#mf7545556ea" x="675.551877" y="404.01777" style="fill: #ff7f0e; stroke: #ff7f0e"/>
     <use xlink:href="#mf7545556ea" x="688.458701" y="404.01777" style="fill: #ff7f0e; stroke: #ff7f0e"/>
     <use xlink:href="#mf7545556ea" x="701.365526" y="404.01777" style="fill: #ff7f0e; stroke: #ff7f0e"/>
    </g>
   </g>
   <g id="patch_3">
    <path d="M 64.41375 529.308125 
L 64.41375 23.837812 
" style="fill: none; stroke: #000000; stroke-width: 0.8; stroke-linejoin: miter; stroke-linecap: square"/>
   </g>
   <g id="patch_4">
    <path d="M 731.696562 529.308125 
L 731.696562 23.837812 
" style="fill: none; stroke: #000000; stroke-width: 0.8; stroke-linejoin: miter; stroke-linecap: square"/>
   </g>
   <g id="patch_5">
    <path d="M 64.41375 529.308125 
L 731.696562 529.308125 
" style="fill: none; stroke: #000000; stroke-width: 0.8; stroke-linejoin: miter; stroke-linecap: square"/>
   </g>
   <g id="patch_6">
    <path d="M 64.41375 23.837812 
L 731.696562 23.837812 
" style="fill: none; stroke: #000000; stroke-width: 0.8; stroke-linejoin: miter; stroke-linecap: square"/>
   </g>
   <g id="text_12">
    <text style="font: 700 14px 'DejaVu Sans', 'Bitstream Vera Sans', 'Computer Modern Sans Serif', 'Lucida Grande', 'Verdana', 'Geneva', 'Lucid', 'Arial', 'Helvetica', 'Avant Garde', sans-serif; text-anchor: middle" x="398.055156" y="17.837813" transform="rotate(-0 398.055156 17.837813)">Ts Thread Local Single Thread - Performance Trend</text>
   </g>
   <g id="legend_1">
    <g id="patch_7">
     <path d="M 772.060703 61.194063 
L 847.484141 61.194063 
Q 849.484141 61.194063 849.484141 59.194063 
L 849.484141 30.837813 
Q 849.484141 28.837813 847.484141 28.837813 
L 772.060703 28.837813 
Q 770.060703 28.837813 770.060703 30.837813 
L 770.060703 59.194063 
Q 770.060703 61.194063 772.060703 61.194063 
z
" style="fill: #ffffff; opacity: 0.8; stroke: #cccccc; stroke-linejoin: miter"/>
    </g>
    <g id="line2d_18">
     <path d="M 774.060703 36.93625 
L 784.060703 36.93625 
L 794.060703 36.93625 
" style="fill: none; stroke: #1f77b4; stroke-width: 2; stroke-linecap: square"/>
     <g>
      <use xlink:href="#m3cc81d9513" x="784.060703" y="36.93625" style="fill: #1f77b4; stroke: #1f77b4"/>
     </g>
    </g>
    <g id="text_13">
     <text style="font: 10px 'DejaVu Sans', 'Bitstream Vera Sans', 'Computer Modern Sans Serif', 'Lucida Grande', 'Verdana', 'Geneva', 'Lucid', 'Arial', 'Helvetica', 'Avant Garde', sans-serif; text-anchor: start" x="802.060703" y="40.43625" transform="rotate(-0 802.060703 40.43625)">clang-18</text>
    </g>
    <g id="line2d_19">
     <path d="M 774.060703 51.614375 
L 784.060703 51.614375 
L 794.060703 51.614375 
" style="fill: none; stroke: #ff7f0e; stroke-width: 2; stroke-linecap: square"/>
     <g>
      <use xlink:href="#mf7545556ea" x="784.060703" y="51.614375" style="fill: #ff7f0e; stroke: #ff7f0e"/>
     </g>
    </g>
    <g id="text_14">
     <text style="font: 10px 'DejaVu Sans', 'Bitstream Vera Sans', 'Computer Modern Sans Serif', 'Lucida Grande', 'Verdana', 'Geneva', 'Lucid', 'Arial', 'Helvetica', 'Avant Garde', sans-serif; text-anchor: start" x="802.060703" y="55.114375" transform="rotate(-0 802.060703 55.114375)">gcc-14</text>
    </g>
   </g>
  </g>
 </g>
 <defs>
  <clipPath id="p25852a6c98">
   <rect x="64.41375" y="23.837813" width="667.282812" height="505.470313"/>
  </clipPath>
 </defs>
</svg>
