<?xml version="1.0" encoding="utf-8" standalone="no"?>
<!DOCTYPE svg PUBLIC "-//W3C//DTD SVG 1.1//EN"
  "http://www.w3.org/Graphics/SVG/1.1/DTD/svg11.dtd">
<svg xmlns:xlink="http://www.w3.org/1999/xlink" width="855.204687pt" height="568.8pt" viewBox="0 0 855.204687 568.8" xmlns="http://www.w3.org/2000/svg" version="1.1">
 <metadata>
  <rdf:RDF xmlns:dc="http://purl.org/dc/elements/1.1/" xmlns:cc="http://creativecommons.org/ns#" xmlns:rdf="http://www.w3.org/1999/02/22-rdf-syntax-ns#">
   <cc:Work>
    <dc:type rdf:resource="http://purl.org/dc/dcmitype/StillImage"/>
    <dc:date>2025-08-12T17:25:57.988219</dc:date>
    <dc:format>image/svg+xml</dc:format>
    <dc:creator>
     <cc:Agent>
      <dc:title>Matplotlib v3.9.4, https://matplotlib.org/</dc:title>
     </cc:Agent>
    </dc:creator>
   </cc:Work>
  </rdf:RDF>
 </metadata>
 <defs>
  <style type="text/css">*{stroke-linejoin: round; stroke-linecap: butt}</style>
 </defs>
 <g id="figure_1">
  <g id="patch_1">
   <path d="M 0 568.8 
L 855.204687 568.8 
L 855.204687 0 
L 0 0 
z
" style="fill: #ffffff"/>
  </g>
  <g id="axes_1">
   <g id="patch_2">
    <path d="M 64.41375 529.308125 
L 702.1075 529.308125 
L 702.1075 23.837812 
L 64.41375 23.837812 
z
" style="fill: #ffffff"/>
   </g>
   <g id="matplotlib.axis_1">
    <g id="xtick_1">
     <g id="line2d_1">
      <path d="M 141.709962 529.308125 
L 141.709962 23.837812 
" clip-path="url(#pdeabae6dc3)" style="fill: none; stroke: #b0b0b0; stroke-opacity: 0.3; stroke-width: 0.8; stroke-linecap: square"/>
     </g>
     <g id="line2d_2">
      <defs>
       <path id="m10585a53e6" d="M 0 0 
L 0 3.5 
" style="stroke: #000000; stroke-width: 0.8"/>
      </defs>
      <g>
       <use xlink:href="#m10585a53e6" x="141.709962" y="529.308125" style="stroke: #000000; stroke-width: 0.8"/>
      </g>
     </g>
     <g id="text_1">
      <text style="font: 10px 'DejaVu Sans', 'Bitstream Vera Sans', 'Computer Modern Sans Serif', 'Lucida Grande', 'Verdana', 'Geneva', 'Lucid', 'Arial', 'Helvetica', 'Avant Garde', sans-serif; text-anchor: middle" x="141.709962" y="543.906563" transform="rotate(-0 141.709962 543.906563)">72</text>
     </g>
    </g>
    <g id="xtick_2">
     <g id="line2d_3">
      <path d="M 238.330227 529.308125 
L 238.330227 23.837812 
" clip-path="url(#pdeabae6dc3)" style="fill: none; stroke: #b0b0b0; stroke-opacity: 0.3; stroke-width: 0.8; stroke-linecap: square"/>
     </g>
     <g id="line2d_4">
      <g>
       <use xlink:href="#m10585a53e6" x="238.330227" y="529.308125" style="stroke: #000000; stroke-width: 0.8"/>
      </g>
     </g>
     <g id="text_2">
      <text style="font: 10px 'DejaVu Sans', 'Bitstream Vera Sans', 'Computer Modern Sans Serif', 'Lucida Grande', 'Verdana', 'Geneva', 'Lucid', 'Arial', 'Helvetica', 'Avant Garde', sans-serif; text-anchor: middle" x="238.330227" y="543.906563" transform="rotate(-0 238.330227 543.906563)">74</text>
     </g>
    </g>
    <g id="xtick_3">
     <g id="line2d_5">
      <path d="M 334.950492 529.308125 
L 334.950492 23.837812 
" clip-path="url(#pdeabae6dc3)" style="fill: none; stroke: #b0b0b0; stroke-opacity: 0.3; stroke-width: 0.8; stroke-linecap: square"/>
     </g>
     <g id="line2d_6">
      <g>
       <use xlink:href="#m10585a53e6" x="334.950492" y="529.308125" style="stroke: #000000; stroke-width: 0.8"/>
      </g>
     </g>
     <g id="text_3">
      <text style="font: 10px 'DejaVu Sans', 'Bitstream Vera Sans', 'Computer Modern Sans Serif', 'Lucida Grande', 'Verdana', 'Geneva', 'Lucid', 'Arial', 'Helvetica', 'Avant Garde', sans-serif; text-anchor: middle" x="334.950492" y="543.906563" transform="rotate(-0 334.950492 543.906563)">76</text>
     </g>
    </g>
    <g id="xtick_4">
     <g id="line2d_7">
      <path d="M 431.570758 529.308125 
L 431.570758 23.837812 
" clip-path="url(#pdeabae6dc3)" style="fill: none; stroke: #b0b0b0; stroke-opacity: 0.3; stroke-width: 0.8; stroke-linecap: square"/>
     </g>
     <g id="line2d_8">
      <g>
       <use xlink:href="#m10585a53e6" x="431.570758" y="529.308125" style="stroke: #000000; stroke-width: 0.8"/>
      </g>
     </g>
     <g id="text_4">
      <text style="font: 10px 'DejaVu Sans', 'Bitstream Vera Sans', 'Computer Modern Sans Serif', 'Lucida Grande', 'Verdana', 'Geneva', 'Lucid', 'Arial', 'Helvetica', 'Avant Garde', sans-serif; text-anchor: middle" x="431.570758" y="543.906563" transform="rotate(-0 431.570758 543.906563)">78</text>
     </g>
    </g>
    <g id="xtick_5">
     <g id="line2d_9">
      <path d="M 528.191023 529.308125 
L 528.191023 23.837812 
" clip-path="url(#pdeabae6dc3)" style="fill: none; stroke: #b0b0b0; stroke-opacity: 0.3; stroke-width: 0.8; stroke-linecap: square"/>
     </g>
     <g id="line2d_10">
      <g>
       <use xlink:href="#m10585a53e6" x="528.191023" y="529.308125" style="stroke: #000000; stroke-width: 0.8"/>
      </g>
     </g>
     <g id="text_5">
      <text style="font: 10px 'DejaVu Sans', 'Bitstream Vera Sans', 'Computer Modern Sans Serif', 'Lucida Grande', 'Verdana', 'Geneva', 'Lucid', 'Arial', 'Helvetica', 'Avant Garde', sans-serif; text-anchor: middle" x="528.191023" y="543.906563" transform="rotate(-0 528.191023 543.906563)">80</text>
     </g>
    </g>
    <g id="xtick_6">
     <g id="line2d_11">
      <path d="M 624.811288 529.308125 
L 624.811288 23.837812 
" clip-path="url(#pdeabae6dc3)" style="fill: none; stroke: #b0b0b0; stroke-opacity: 0.3; stroke-width: 0.8; stroke-linecap: square"/>
     </g>
     <g id="line2d_12">
      <g>
       <use xlink:href="#m10585a53e6" x="624.811288" y="529.308125" style="stroke: #000000; stroke-width: 0.8"/>
      </g>
     </g>
     <g id="text_6">
      <text style="font: 10px 'DejaVu Sans', 'Bitstream Vera Sans', 'Computer Modern Sans Serif', 'Lucida Grande', 'Verdana', 'Geneva', 'Lucid', 'Arial', 'Helvetica', 'Avant Garde', sans-serif; text-anchor: middle" x="624.811288" y="543.906563" transform="rotate(-0 624.811288 543.906563)">82</text>
     </g>
    </g>
    <g id="text_7">
     <text style="font: 12px 'DejaVu Sans', 'Bitstream Vera Sans', 'Computer Modern Sans Serif', 'Lucida Grande', 'Verdana', 'Geneva', 'Lucid', 'Arial', 'Helvetica', 'Avant Garde', sans-serif; text-anchor: middle" x="383.260625" y="559.104375" transform="rotate(-0 383.260625 559.104375)">Build Number</text>
    </g>
   </g>
   <g id="matplotlib.axis_2">
    <g id="ytick_1">
     <g id="line2d_13">
      <defs>
       <path id="m434d1e2d32" d="M 0 0 
L -2 0 
" style="stroke: #000000; stroke-width: 0.6"/>
      </defs>
      <g>
       <use xlink:href="#m434d1e2d32" x="64.41375" y="417.931553" style="stroke: #000000; stroke-width: 0.6"/>
      </g>
     </g>
     <g id="text_8">
      <!-- $\mathdefault{3\times10^{5}}$ -->
      <g transform="translate(22.81375 421.730772)">
       <text>
        <tspan style="font: 10px 'DejaVu Sans'" x="0 8.310547 18.637695 25" y="-0.06406250000000036">3×10</tspan>
        <tspan style="font: 7px 'DejaVu Sans'" x="31.458008" y="-3.8921875000000004">5</tspan>
       </text>
      </g>
     </g>
    </g>
    <g id="ytick_2">
     <g id="line2d_14">
      <g>
       <use xlink:href="#m434d1e2d32" x="64.41375" y="310.891274" style="stroke: #000000; stroke-width: 0.6"/>
      </g>
     </g>
     <g id="text_9">
      <!-- $\mathdefault{4\times10^{5}}$ -->
      <g transform="translate(22.81375 314.690493)">
       <text>
        <tspan style="font: 10px 'DejaVu Sans'" x="0 8.310547 18.637695 25" y="-0.06406250000000036">4×10</tspan>
        <tspan style="font: 7px 'DejaVu Sans'" x="31.458008" y="-3.8921875000000004">5</tspan>
       </text>
      </g>
     </g>
    </g>
    <g id="ytick_3">
     <g id="line2d_15">
      <g>
       <use xlink:href="#m434d1e2d32" x="64.41375" y="227.864383" style="stroke: #000000; stroke-width: 0.6"/>
      </g>
     </g>
    </g>
    <g id="ytick_4">
     <g id="line2d_16">
      <g>
       <use xlink:href="#m434d1e2d32" x="64.41375" y="160.026474" style="stroke: #000000; stroke-width: 0.6"/>
      </g>
     </g>
     <g id="text_10">
      <!-- $\mathdefault{6\times10^{5}}$ -->
      <g transform="translate(22.81375 163.825693)">
       <text>
        <tspan style="font: 10px 'DejaVu Sans'" x="0 8.310547 18.637695 25" y="-0.06406250000000036">6×10</tspan>
        <tspan style="font: 7px 'DejaVu Sans'" x="31.458008" y="-3.8921875000000004">5</tspan>
       </text>
      </g>
     </g>
    </g>
    <g id="ytick_5">
     <g id="line2d_17">
      <g>
       <use xlink:href="#m434d1e2d32" x="64.41375" y="102.670339" style="stroke: #000000; stroke-width: 0.6"/>
      </g>
     </g>
    </g>
    <g id="ytick_6">
     <g id="line2d_18">
      <g>
       <use xlink:href="#m434d1e2d32" x="64.41375" y="52.986195" style="stroke: #000000; stroke-width: 0.6"/>
      </g>
     </g>
    </g>
    <g id="text_11">
     <text style="font: 12px 'DejaVu Sans', 'Bitstream Vera Sans', 'Computer Modern Sans Serif', 'Lucida Grande', 'Verdana', 'Geneva', 'Lucid', 'Arial', 'Helvetica', 'Avant Garde', sans-serif; text-anchor: middle" x="16.318125" y="276.572969" transform="rotate(-90 16.318125 276.572969)">Median Elapsed Time (nanoseconds)</text>
    </g>
   </g>
   <g id="line2d_19">
    <path d="M 93.39983 483.553279 
L 141.709962 269.208054 
L 190.020095 288.302997 
L 238.330227 403.920201 
L 286.64036 271.252944 
L 334.950492 481.045017 
L 383.260625 402.633762 
L 431.570758 205.499226 
L 479.88089 263.244209 
L 528.191023 484.122276 
L 576.501155 434.19491 
L 624.811288 268.330075 
L 673.12142 459.135289 
" clip-path="url(#pdeabae6dc3)" style="fill: none; stroke: #1f77b4; stroke-width: 2; stroke-linecap: square"/>
    <defs>
     <path id="ma98f929cfe" d="M 0 3 
C 0.795609 3 1.55874 2.683901 2.12132 2.12132 
C 2.683901 1.55874 3 0.795609 3 0 
C 3 -0.795609 2.683901 -1.55874 2.12132 -2.12132 
C 1.55874 -2.683901 0.795609 -3 0 -3 
C -0.795609 -3 -1.55874 -2.683901 -2.12132 -2.12132 
C -2.683901 -1.55874 -3 -0.795609 -3 0 
C -3 0.795609 -2.683901 1.55874 -2.12132 2.12132 
C -1.55874 2.683901 -0.795609 3 0 3 
z
" style="stroke: #1f77b4"/>
    </defs>
    <g clip-path="url(#pdeabae6dc3)">
     <use xlink:href="#ma98f929cfe" x="93.39983" y="483.553279" style="fill: #1f77b4; stroke: #1f77b4"/>
     <use xlink:href="#ma98f929cfe" x="141.709962" y="269.208054" style="fill: #1f77b4; stroke: #1f77b4"/>
     <use xlink:href="#ma98f929cfe" x="190.020095" y="288.302997" style="fill: #1f77b4; stroke: #1f77b4"/>
     <use xlink:href="#ma98f929cfe" x="238.330227" y="403.920201" style="fill: #1f77b4; stroke: #1f77b4"/>
     <use xlink:href="#ma98f929cfe" x="286.64036" y="271.252944" style="fill: #1f77b4; stroke: #1f77b4"/>
     <use xlink:href="#ma98f929cfe" x="334.950492" y="481.045017" style="fill: #1f77b4; stroke: #1f77b4"/>
     <use xlink:href="#ma98f929cfe" x="383.260625" y="402.633762" style="fill: #1f77b4; stroke: #1f77b4"/>
     <use xlink:href="#ma98f929cfe" x="431.570758" y="205.499226" style="fill: #1f77b4; stroke: #1f77b4"/>
     <use xlink:href="#ma98f929cfe" x="479.88089" y="263.244209" style="fill: #1f77b4; stroke: #1f77b4"/>
     <use xlink:href="#ma98f929cfe" x="528.191023" y="484.122276" style="fill: #1f77b4; stroke: #1f77b4"/>
     <use xlink:href="#ma98f929cfe" x="576.501155" y="434.19491" style="fill: #1f77b4; stroke: #1f77b4"/>
     <use xlink:href="#ma98f929cfe" x="624.811288" y="268.330075" style="fill: #1f77b4; stroke: #1f77b4"/>
     <use xlink:href="#ma98f929cfe" x="673.12142" y="459.135289" style="fill: #1f77b4; stroke: #1f77b4"/>
    </g>
   </g>
   <g id="line2d_20">
    <path d="M 93.39983 485.161982 
L 141.709962 270.024845 
L 190.020095 276.587808 
L 238.330227 452.901646 
L 286.64036 328.986032 
L 334.950492 488.067355 
L 383.260625 485.194673 
L 431.570758 444.516485 
L 479.88089 367.10592 
L 528.191023 346.160961 
L 576.501155 321.065753 
L 624.811288 392.392056 
L 673.12142 481.874171 
" clip-path="url(#pdeabae6dc3)" style="fill: none; stroke: #ff7f0e; stroke-width: 2; stroke-linecap: square"/>
    <defs>
     <path id="m0361e60b00" d="M 0 3 
C 0.795609 3 1.55874 2.683901 2.12132 2.12132 
C 2.683901 1.55874 3 0.795609 3 0 
C 3 -0.795609 2.683901 -1.55874 2.12132 -2.12132 
C 1.55874 -2.683901 0.795609 -3 0 -3 
C -0.795609 -3 -1.55874 -2.683901 -2.12132 -2.12132 
C -2.683901 -1.55874 -3 -0.795609 -3 0 
C -3 0.795609 -2.683901 1.55874 -2.12132 2.12132 
C -1.55874 2.683901 -0.795609 3 0 3 
z
" style="stroke: #ff7f0e"/>
    </defs>
    <g clip-path="url(#pdeabae6dc3)">
     <use xlink:href="#m0361e60b00" x="93.39983" y="485.161982" style="fill: #ff7f0e; stroke: #ff7f0e"/>
     <use xlink:href="#m0361e60b00" x="141.709962" y="270.024845" style="fill: #ff7f0e; stroke: #ff7f0e"/>
     <use xlink:href="#m0361e60b00" x="190.020095" y="276.587808" style="fill: #ff7f0e; stroke: #ff7f0e"/>
     <use xlink:href="#m0361e60b00" x="238.330227" y="452.901646" style="fill: #ff7f0e; stroke: #ff7f0e"/>
     <use xlink:href="#m0361e60b00" x="286.64036" y="328.986032" style="fill: #ff7f0e; stroke: #ff7f0e"/>
     <use xlink:href="#m0361e60b00" x="334.950492" y="488.067355" style="fill: #ff7f0e; stroke: #ff7f0e"/>
     <use xlink:href="#m0361e60b00" x="383.260625" y="485.194673" style="fill: #ff7f0e; stroke: #ff7f0e"/>
     <use xlink:href="#m0361e60b00" x="431.570758" y="444.516485" style="fill: #ff7f0e; stroke: #ff7f0e"/>
     <use xlink:href="#m0361e60b00" x="479.88089" y="367.10592" style="fill: #ff7f0e; stroke: #ff7f0e"/>
     <use xlink:href="#m0361e60b00" x="528.191023" y="346.160961" style="fill: #ff7f0e; stroke: #ff7f0e"/>
     <use xlink:href="#m0361e60b00" x="576.501155" y="321.065753" style="fill: #ff7f0e; stroke: #ff7f0e"/>
     <use xlink:href="#m0361e60b00" x="624.811288" y="392.392056" style="fill: #ff7f0e; stroke: #ff7f0e"/>
     <use xlink:href="#m0361e60b00" x="673.12142" y="481.874171" style="fill: #ff7f0e; stroke: #ff7f0e"/>
    </g>
   </g>
   <g id="line2d_21">
    <path d="M 93.39983 501.049924 
L 141.709962 384.798533 
L 190.020095 252.778835 
L 238.330227 499.148969 
L 286.64036 473.210519 
L 334.950492 497.069381 
L 383.260625 495.683814 
L 431.570758 499.397134 
L 479.88089 499.327668 
L 528.191023 492.104969 
L 576.501155 497.999812 
L 624.811288 497.943062 
L 673.12142 498.175499 
" clip-path="url(#pdeabae6dc3)" style="fill: none; stroke: #2ca02c; stroke-width: 2; stroke-linecap: square"/>
    <defs>
     <path id="m4a1fab486b" d="M 0 3 
C 0.795609 3 1.55874 2.683901 2.12132 2.12132 
C 2.683901 1.55874 3 0.795609 3 0 
C 3 -0.795609 2.683901 -1.55874 2.12132 -2.12132 
C 1.55874 -2.683901 0.795609 -3 0 -3 
C -0.795609 -3 -1.55874 -2.683901 -2.12132 -2.12132 
C -2.683901 -1.55874 -3 -0.795609 -3 0 
C -3 0.795609 -2.683901 1.55874 -2.12132 2.12132 
C -1.55874 2.683901 -0.795609 3 0 3 
z
" style="stroke: #2ca02c"/>
    </defs>
    <g clip-path="url(#pdeabae6dc3)">
     <use xlink:href="#m4a1fab486b" x="93.39983" y="501.049924" style="fill: #2ca02c; stroke: #2ca02c"/>
     <use xlink:href="#m4a1fab486b" x="141.709962" y="384.798533" style="fill: #2ca02c; stroke: #2ca02c"/>
     <use xlink:href="#m4a1fab486b" x="190.020095" y="252.778835" style="fill: #2ca02c; stroke: #2ca02c"/>
     <use xlink:href="#m4a1fab486b" x="238.330227" y="499.148969" style="fill: #2ca02c; stroke: #2ca02c"/>
     <use xlink:href="#m4a1fab486b" x="286.64036" y="473.210519" style="fill: #2ca02c; stroke: #2ca02c"/>
     <use xlink:href="#m4a1fab486b" x="334.950492" y="497.069381" style="fill: #2ca02c; stroke: #2ca02c"/>
     <use xlink:href="#m4a1fab486b" x="383.260625" y="495.683814" style="fill: #2ca02c; stroke: #2ca02c"/>
     <use xlink:href="#m4a1fab486b" x="431.570758" y="499.397134" style="fill: #2ca02c; stroke: #2ca02c"/>
     <use xlink:href="#m4a1fab486b" x="479.88089" y="499.327668" style="fill: #2ca02c; stroke: #2ca02c"/>
     <use xlink:href="#m4a1fab486b" x="528.191023" y="492.104969" style="fill: #2ca02c; stroke: #2ca02c"/>
     <use xlink:href="#m4a1fab486b" x="576.501155" y="497.999812" style="fill: #2ca02c; stroke: #2ca02c"/>
     <use xlink:href="#m4a1fab486b" x="624.811288" y="497.943062" style="fill: #2ca02c; stroke: #2ca02c"/>
     <use xlink:href="#m4a1fab486b" x="673.12142" y="498.175499" style="fill: #2ca02c; stroke: #2ca02c"/>
    </g>
   </g>
   <g id="line2d_22">
    <path d="M 93.39983 502.394177 
L 141.709962 500.211781 
L 190.020095 505.570136 
L 238.330227 504.995926 
L 286.64036 284.10175 
L 334.950492 286.174509 
L 383.260625 506.332202 
L 431.570758 402.605553 
L 479.88089 499.264234 
L 528.191023 502.356672 
L 576.501155 505.068497 
L 624.811288 502.832851 
L 673.12142 46.813736 
" clip-path="url(#pdeabae6dc3)" style="fill: none; stroke: #d62728; stroke-width: 2; stroke-linecap: square"/>
    <defs>
     <path id="me087e4bc05" d="M 0 3 
C 0.795609 3 1.55874 2.683901 2.12132 2.12132 
C 2.683901 1.55874 3 0.795609 3 0 
C 3 -0.795609 2.683901 -1.55874 2.12132 -2.12132 
C 1.55874 -2.683901 0.795609 -3 0 -3 
C -0.795609 -3 -1.55874 -2.683901 -2.12132 -2.12132 
C -2.683901 -1.55874 -3 -0.795609 -3 0 
C -3 0.795609 -2.683901 1.55874 -2.12132 2.12132 
C -1.55874 2.683901 -0.795609 3 0 3 
z
" style="stroke: #d62728"/>
    </defs>
    <g clip-path="url(#pdeabae6dc3)">
     <use xlink:href="#me087e4bc05" x="93.39983" y="502.394177" style="fill: #d62728; stroke: #d62728"/>
     <use xlink:href="#me087e4bc05" x="141.709962" y="500.211781" style="fill: #d62728; stroke: #d62728"/>
     <use xlink:href="#me087e4bc05" x="190.020095" y="505.570136" style="fill: #d62728; stroke: #d62728"/>
     <use xlink:href="#me087e4bc05" x="238.330227" y="504.995926" style="fill: #d62728; stroke: #d62728"/>
     <use xlink:href="#me087e4bc05" x="286.64036" y="284.10175" style="fill: #d62728; stroke: #d62728"/>
     <use xlink:href="#me087e4bc05" x="334.950492" y="286.174509" style="fill: #d62728; stroke: #d62728"/>
     <use xlink:href="#me087e4bc05" x="383.260625" y="506.332202" style="fill: #d62728; stroke: #d62728"/>
     <use xlink:href="#me087e4bc05" x="431.570758" y="402.605553" style="fill: #d62728; stroke: #d62728"/>
     <use xlink:href="#me087e4bc05" x="479.88089" y="499.264234" style="fill: #d62728; stroke: #d62728"/>
     <use xlink:href="#me087e4bc05" x="528.191023" y="502.356672" style="fill: #d62728; stroke: #d62728"/>
     <use xlink:href="#me087e4bc05" x="576.501155" y="505.068497" style="fill: #d62728; stroke: #d62728"/>
     <use xlink:href="#me087e4bc05" x="624.811288" y="502.832851" style="fill: #d62728; stroke: #d62728"/>
     <use xlink:href="#me087e4bc05" x="673.12142" y="46.813736" style="fill: #d62728; stroke: #d62728"/>
    </g>
   </g>
   <g id="line2d_23">
    <path d="M 93.39983 495.204173 
L 141.709962 460.625327 
L 190.020095 498.118722 
L 238.330227 490.722499 
L 286.64036 355.794967 
L 334.950492 170.312501 
L 383.260625 501.847843 
L 431.570758 470.295072 
L 479.88089 356.30128 
L 528.191023 497.765641 
L 576.501155 504.124308 
L 624.811288 502.190199 
L 673.12142 185.328125 
" clip-path="url(#pdeabae6dc3)" style="fill: none; stroke: #9467bd; stroke-width: 2; stroke-linecap: square"/>
    <defs>
     <path id="m31f8f288a0" d="M 0 3 
C 0.795609 3 1.55874 2.683901 2.12132 2.12132 
C 2.683901 1.55874 3 0.795609 3 0 
C 3 -0.795609 2.683901 -1.55874 2.12132 -2.12132 
C 1.55874 -2.683901 0.795609 -3 0 -3 
C -0.795609 -3 -1.55874 -2.683901 -2.12132 -2.12132 
C -2.683901 -1.55874 -3 -0.795609 -3 0 
C -3 0.795609 -2.683901 1.55874 -2.12132 2.12132 
C -1.55874 2.683901 -0.795609 3 0 3 
z
" style="stroke: #9467bd"/>
    </defs>
    <g clip-path="url(#pdeabae6dc3)">
     <use xlink:href="#m31f8f288a0" x="93.39983" y="495.204173" style="fill: #9467bd; stroke: #9467bd"/>
     <use xlink:href="#m31f8f288a0" x="141.709962" y="460.625327" style="fill: #9467bd; stroke: #9467bd"/>
     <use xlink:href="#m31f8f288a0" x="190.020095" y="498.118722" style="fill: #9467bd; stroke: #9467bd"/>
     <use xlink:href="#m31f8f288a0" x="238.330227" y="490.722499" style="fill: #9467bd; stroke: #9467bd"/>
     <use xlink:href="#m31f8f288a0" x="286.64036" y="355.794967" style="fill: #9467bd; stroke: #9467bd"/>
     <use xlink:href="#m31f8f288a0" x="334.950492" y="170.312501" style="fill: #9467bd; stroke: #9467bd"/>
     <use xlink:href="#m31f8f288a0" x="383.260625" y="501.847843" style="fill: #9467bd; stroke: #9467bd"/>
     <use xlink:href="#m31f8f288a0" x="431.570758" y="470.295072" style="fill: #9467bd; stroke: #9467bd"/>
     <use xlink:href="#m31f8f288a0" x="479.88089" y="356.30128" style="fill: #9467bd; stroke: #9467bd"/>
     <use xlink:href="#m31f8f288a0" x="528.191023" y="497.765641" style="fill: #9467bd; stroke: #9467bd"/>
     <use xlink:href="#m31f8f288a0" x="576.501155" y="504.124308" style="fill: #9467bd; stroke: #9467bd"/>
     <use xlink:href="#m31f8f288a0" x="624.811288" y="502.190199" style="fill: #9467bd; stroke: #9467bd"/>
     <use xlink:href="#m31f8f288a0" x="673.12142" y="185.328125" style="fill: #9467bd; stroke: #9467bd"/>
    </g>
   </g>
   <g id="line2d_24">
    <path d="M 93.39983 363.412943 
L 141.709962 356.735361 
L 190.020095 362.389836 
L 238.330227 364.87836 
L 286.64036 356.11363 
L 334.950492 358.702843 
L 383.260625 466.685319 
L 431.570758 461.729378 
L 479.88089 358.108231 
L 528.191023 362.271597 
L 576.501155 364.669675 
L 624.811288 363.200366 
L 673.12142 402.820686 
" clip-path="url(#pdeabae6dc3)" style="fill: none; stroke: #8c564b; stroke-width: 2; stroke-linecap: square"/>
    <defs>
     <path id="m61d0bdb192" d="M 0 3 
C 0.795609 3 1.55874 2.683901 2.12132 2.12132 
C 2.683901 1.55874 3 0.795609 3 0 
C 3 -0.795609 2.683901 -1.55874 2.12132 -2.12132 
C 1.55874 -2.683901 0.795609 -3 0 -3 
C -0.795609 -3 -1.55874 -2.683901 -2.12132 -2.12132 
C -2.683901 -1.55874 -3 -0.795609 -3 0 
C -3 0.795609 -2.683901 1.55874 -2.12132 2.12132 
C -1.55874 2.683901 -0.795609 3 0 3 
z
" style="stroke: #8c564b"/>
    </defs>
    <g clip-path="url(#pdeabae6dc3)">
     <use xlink:href="#m61d0bdb192" x="93.39983" y="363.412943" style="fill: #8c564b; stroke: #8c564b"/>
     <use xlink:href="#m61d0bdb192" x="141.709962" y="356.735361" style="fill: #8c564b; stroke: #8c564b"/>
     <use xlink:href="#m61d0bdb192" x="190.020095" y="362.389836" style="fill: #8c564b; stroke: #8c564b"/>
     <use xlink:href="#m61d0bdb192" x="238.330227" y="364.87836" style="fill: #8c564b; stroke: #8c564b"/>
     <use xlink:href="#m61d0bdb192" x="286.64036" y="356.11363" style="fill: #8c564b; stroke: #8c564b"/>
     <use xlink:href="#m61d0bdb192" x="334.950492" y="358.702843" style="fill: #8c564b; stroke: #8c564b"/>
     <use xlink:href="#m61d0bdb192" x="383.260625" y="466.685319" style="fill: #8c564b; stroke: #8c564b"/>
     <use xlink:href="#m61d0bdb192" x="431.570758" y="461.729378" style="fill: #8c564b; stroke: #8c564b"/>
     <use xlink:href="#m61d0bdb192" x="479.88089" y="358.108231" style="fill: #8c564b; stroke: #8c564b"/>
     <use xlink:href="#m61d0bdb192" x="528.191023" y="362.271597" style="fill: #8c564b; stroke: #8c564b"/>
     <use xlink:href="#m61d0bdb192" x="576.501155" y="364.669675" style="fill: #8c564b; stroke: #8c564b"/>
     <use xlink:href="#m61d0bdb192" x="624.811288" y="363.200366" style="fill: #8c564b; stroke: #8c564b"/>
     <use xlink:href="#m61d0bdb192" x="673.12142" y="402.820686" style="fill: #8c564b; stroke: #8c564b"/>
    </g>
   </g>
   <g id="patch_3">
    <path d="M 64.41375 529.308125 
L 64.41375 23.837812 
" style="fill: none; stroke: #000000; stroke-width: 0.8; stroke-linejoin: miter; stroke-linecap: square"/>
   </g>
   <g id="patch_4">
    <path d="M 702.1075 529.308125 
L 702.1075 23.837812 
" style="fill: none; stroke: #000000; stroke-width: 0.8; stroke-linejoin: miter; stroke-linecap: square"/>
   </g>
   <g id="patch_5">
    <path d="M 64.41375 529.308125 
L 702.1075 529.308125 
" style="fill: none; stroke: #000000; stroke-width: 0.8; stroke-linejoin: miter; stroke-linecap: square"/>
   </g>
   <g id="patch_6">
    <path d="M 64.41375 23.837812 
L 702.1075 23.837812 
" style="fill: none; stroke: #000000; stroke-width: 0.8; stroke-linejoin: miter; stroke-linecap: square"/>
   </g>
   <g id="text_12">
    <text style="font: 700 14px 'DejaVu Sans', 'Bitstream Vera Sans', 'Computer Modern Sans Serif', 'Lucida Grande', 'Verdana', 'Geneva', 'Lucid', 'Arial', 'Helvetica', 'Avant Garde', sans-serif; text-anchor: middle" x="383.260625" y="17.837813" transform="rotate(-0 383.260625 17.837813)">Mixedworkload - Performance Trend</text>
   </g>
   <g id="legend_1">
    <g id="patch_7">
     <path d="M 740.992188 119.906563 
L 846.004688 119.906563 
Q 848.004688 119.906563 848.004688 117.906563 
L 848.004688 30.837813 
Q 848.004688 28.837813 846.004688 28.837813 
L 740.992188 28.837813 
Q 738.992188 28.837813 738.992188 30.837813 
L 738.992188 117.906563 
Q 738.992188 119.906563 740.992188 119.906563 
z
" style="fill: #ffffff; opacity: 0.8; stroke: #cccccc; stroke-linejoin: miter"/>
    </g>
    <g id="line2d_25">
     <path d="M 742.992188 36.93625 
L 752.992188 36.93625 
L 762.992188 36.93625 
" style="fill: none; stroke: #1f77b4; stroke-width: 2; stroke-linecap: square"/>
     <g>
      <use xlink:href="#ma98f929cfe" x="752.992188" y="36.93625" style="fill: #1f77b4; stroke: #1f77b4"/>
     </g>
    </g>
    <g id="text_13">
     <text style="font: 10px 'DejaVu Sans', 'Bitstream Vera Sans', 'Computer Modern Sans Serif', 'Lucida Grande', 'Verdana', 'Geneva', 'Lucid', 'Arial', 'Helvetica', 'Avant Garde', sans-serif; text-anchor: start" x="770.992188" y="40.43625" transform="rotate(-0 770.992188 40.43625)">gcc-14.2 - V1</text>
    </g>
    <g id="line2d_26">
     <path d="M 742.992188 51.614375 
L 752.992188 51.614375 
L 762.992188 51.614375 
" style="fill: none; stroke: #ff7f0e; stroke-width: 2; stroke-linecap: square"/>
     <g>
      <use xlink:href="#m0361e60b00" x="752.992188" y="51.614375" style="fill: #ff7f0e; stroke: #ff7f0e"/>
     </g>
    </g>
    <g id="text_14">
     <text style="font: 10px 'DejaVu Sans', 'Bitstream Vera Sans', 'Computer Modern Sans Serif', 'Lucida Grande', 'Verdana', 'Geneva', 'Lucid', 'Arial', 'Helvetica', 'Avant Garde', sans-serif; text-anchor: start" x="770.992188" y="55.114375" transform="rotate(-0 770.992188 55.114375)">gcc-14.2 - V2</text>
    </g>
    <g id="line2d_27">
     <path d="M 742.992188 66.2925 
L 752.992188 66.2925 
L 762.992188 66.2925 
" style="fill: none; stroke: #2ca02c; stroke-width: 2; stroke-linecap: square"/>
     <g>
      <use xlink:href="#m4a1fab486b" x="752.992188" y="66.2925" style="fill: #2ca02c; stroke: #2ca02c"/>
     </g>
    </g>
    <g id="text_15">
     <text style="font: 10px 'DejaVu Sans', 'Bitstream Vera Sans', 'Computer Modern Sans Serif', 'Lucida Grande', 'Verdana', 'Geneva', 'Lucid', 'Arial', 'Helvetica', 'Avant Garde', sans-serif; text-anchor: start" x="770.992188" y="69.7925" transform="rotate(-0 770.992188 69.7925)">gcc-14.2 - TBB</text>
    </g>
    <g id="line2d_28">
     <path d="M 742.992188 80.970625 
L 752.992188 80.970625 
L 762.992188 80.970625 
" style="fill: none; stroke: #d62728; stroke-width: 2; stroke-linecap: square"/>
     <g>
      <use xlink:href="#me087e4bc05" x="752.992188" y="80.970625" style="fill: #d62728; stroke: #d62728"/>
     </g>
    </g>
    <g id="text_16">
     <text style="font: 10px 'DejaVu Sans', 'Bitstream Vera Sans', 'Computer Modern Sans Serif', 'Lucida Grande', 'Verdana', 'Geneva', 'Lucid', 'Arial', 'Helvetica', 'Avant Garde', sans-serif; text-anchor: start" x="770.992188" y="84.470625" transform="rotate(-0 770.992188 84.470625)">gcc-4.2 - V1</text>
    </g>
    <g id="line2d_29">
     <path d="M 742.992188 95.64875 
L 752.992188 95.64875 
L 762.992188 95.64875 
" style="fill: none; stroke: #9467bd; stroke-width: 2; stroke-linecap: square"/>
     <g>
      <use xlink:href="#m31f8f288a0" x="752.992188" y="95.64875" style="fill: #9467bd; stroke: #9467bd"/>
     </g>
    </g>
    <g id="text_17">
     <text style="font: 10px 'DejaVu Sans', 'Bitstream Vera Sans', 'Computer Modern Sans Serif', 'Lucida Grande', 'Verdana', 'Geneva', 'Lucid', 'Arial', 'Helvetica', 'Avant Garde', sans-serif; text-anchor: start" x="770.992188" y="99.14875" transform="rotate(-0 770.992188 99.14875)">gcc-4.2 - V2</text>
    </g>
    <g id="line2d_30">
     <path d="M 742.992188 110.326875 
L 752.992188 110.326875 
L 762.992188 110.326875 
" style="fill: none; stroke: #8c564b; stroke-width: 2; stroke-linecap: square"/>
     <g>
      <use xlink:href="#m61d0bdb192" x="752.992188" y="110.326875" style="fill: #8c564b; stroke: #8c564b"/>
     </g>
    </g>
    <g id="text_18">
     <text style="font: 10px 'DejaVu Sans', 'Bitstream Vera Sans', 'Computer Modern Sans Serif', 'Lucida Grande', 'Verdana', 'Geneva', 'Lucid', 'Arial', 'Helvetica', 'Avant Garde', sans-serif; text-anchor: start" x="770.992188" y="113.826875" transform="rotate(-0 770.992188 113.826875)">gcc-4.2 - TBB</text>
    </g>
   </g>
  </g>
 </g>
 <defs>
  <clipPath id="pdeabae6dc3">
   <rect x="64.41375" y="23.837813" width="637.69375" height="505.470313"/>
  </clipPath>
 </defs>
</svg>
