<?xml version="1.0" encoding="utf-8" standalone="no"?>
<!DOCTYPE svg PUBLIC "-//W3C//DTD SVG 1.1//EN"
  "http://www.w3.org/Graphics/SVG/1.1/DTD/svg11.dtd">
<svg xmlns:xlink="http://www.w3.org/1999/xlink" width="850.739141pt" height="568.8pt" viewBox="0 0 850.739141 568.8" xmlns="http://www.w3.org/2000/svg" version="1.1">
 <metadata>
  <rdf:RDF xmlns:dc="http://purl.org/dc/elements/1.1/" xmlns:cc="http://creativecommons.org/ns#" xmlns:rdf="http://www.w3.org/1999/02/22-rdf-syntax-ns#">
   <cc:Work>
    <dc:type rdf:resource="http://purl.org/dc/dcmitype/StillImage"/>
    <dc:date>2026-06-12T08:28:57.943861</dc:date>
    <dc:format>image/svg+xml</dc:format>
    <dc:creator>
     <cc:Agent>
      <dc:title>Matplotlib v3.9.4, https://matplotlib.org/</dc:title>
     </cc:Agent>
    </dc:creator>
   </cc:Work>
  </rdf:RDF>
 </metadata>
 <defs>
  <style type="text/css">*{stroke-linejoin: round; stroke-linecap: butt}</style>
 </defs>
 <g id="figure_1">
  <g id="patch_1">
   <path d="M 0 568.8 
L 850.739141 568.8 
L 850.739141 0 
L 0 0 
z
" style="fill: #ffffff"/>
  </g>
  <g id="axes_1">
   <g id="patch_2">
    <path d="M 64.41375 529.308125 
L 612.796562 529.308125 
L 612.796562 23.837812 
L 64.41375 23.837812 
z
" style="fill: #ffffff"/>
   </g>
   <g id="matplotlib.axis_1">
    <g id="xtick_1">
     <g id="line2d_1">
      <path d="M 74.677599 529.308125 
L 74.677599 23.837812 
" clip-path="url(#pb1083f3824)" style="fill: none; stroke: #b0b0b0; stroke-opacity: 0.3; stroke-width: 0.8; stroke-linecap: square"/>
     </g>
     <g id="line2d_2">
      <defs>
       <path id="m8c987cca94" d="M 0 0 
L 0 3.5 
" style="stroke: #000000; stroke-width: 0.8"/>
      </defs>
      <g>
       <use xlink:href="#m8c987cca94" x="74.677599" y="529.308125" style="stroke: #000000; stroke-width: 0.8"/>
      </g>
     </g>
     <g id="text_1">
      <text style="font: 10px 'DejaVu Sans', 'Bitstream Vera Sans', 'Computer Modern Sans Serif', 'Lucida Grande', 'Verdana', 'Geneva', 'Lucid', 'Arial', 'Helvetica', 'Avant Garde', sans-serif; text-anchor: middle" x="74.677599" y="543.906563" transform="rotate(-0 74.677599 543.906563)">95</text>
     </g>
    </g>
    <g id="xtick_2">
     <g id="line2d_3">
      <path d="M 147.99081 529.308125 
L 147.99081 23.837812 
" clip-path="url(#pb1083f3824)" style="fill: none; stroke: #b0b0b0; stroke-opacity: 0.3; stroke-width: 0.8; stroke-linecap: square"/>
     </g>
     <g id="line2d_4">
      <g>
       <use xlink:href="#m8c987cca94" x="147.99081" y="529.308125" style="stroke: #000000; stroke-width: 0.8"/>
      </g>
     </g>
     <g id="text_2">
      <text style="font: 10px 'DejaVu Sans', 'Bitstream Vera Sans', 'Computer Modern Sans Serif', 'Lucida Grande', 'Verdana', 'Geneva', 'Lucid', 'Arial', 'Helvetica', 'Avant Garde', sans-serif; text-anchor: middle" x="147.99081" y="543.906563" transform="rotate(-0 147.99081 543.906563)">100</text>
     </g>
    </g>
    <g id="xtick_3">
     <g id="line2d_5">
      <path d="M 221.30402 529.308125 
L 221.30402 23.837812 
" clip-path="url(#pb1083f3824)" style="fill: none; stroke: #b0b0b0; stroke-opacity: 0.3; stroke-width: 0.8; stroke-linecap: square"/>
     </g>
     <g id="line2d_6">
      <g>
       <use xlink:href="#m8c987cca94" x="221.30402" y="529.308125" style="stroke: #000000; stroke-width: 0.8"/>
      </g>
     </g>
     <g id="text_3">
      <text style="font: 10px 'DejaVu Sans', 'Bitstream Vera Sans', 'Computer Modern Sans Serif', 'Lucida Grande', 'Verdana', 'Geneva', 'Lucid', 'Arial', 'Helvetica', 'Avant Garde', sans-serif; text-anchor: middle" x="221.30402" y="543.906563" transform="rotate(-0 221.30402 543.906563)">105</text>
     </g>
    </g>
    <g id="xtick_4">
     <g id="line2d_7">
      <path d="M 294.61723 529.308125 
L 294.61723 23.837812 
" clip-path="url(#pb1083f3824)" style="fill: none; stroke: #b0b0b0; stroke-opacity: 0.3; stroke-width: 0.8; stroke-linecap: square"/>
     </g>
     <g id="line2d_8">
      <g>
       <use xlink:href="#m8c987cca94" x="294.61723" y="529.308125" style="stroke: #000000; stroke-width: 0.8"/>
      </g>
     </g>
     <g id="text_4">
      <text style="font: 10px 'DejaVu Sans', 'Bitstream Vera Sans', 'Computer Modern Sans Serif', 'Lucida Grande', 'Verdana', 'Geneva', 'Lucid', 'Arial', 'Helvetica', 'Avant Garde', sans-serif; text-anchor: middle" x="294.61723" y="543.906563" transform="rotate(-0 294.61723 543.906563)">110</text>
     </g>
    </g>
    <g id="xtick_5">
     <g id="line2d_9">
      <path d="M 367.93044 529.308125 
L 367.93044 23.837812 
" clip-path="url(#pb1083f3824)" style="fill: none; stroke: #b0b0b0; stroke-opacity: 0.3; stroke-width: 0.8; stroke-linecap: square"/>
     </g>
     <g id="line2d_10">
      <g>
       <use xlink:href="#m8c987cca94" x="367.93044" y="529.308125" style="stroke: #000000; stroke-width: 0.8"/>
      </g>
     </g>
     <g id="text_5">
      <text style="font: 10px 'DejaVu Sans', 'Bitstream Vera Sans', 'Computer Modern Sans Serif', 'Lucida Grande', 'Verdana', 'Geneva', 'Lucid', 'Arial', 'Helvetica', 'Avant Garde', sans-serif; text-anchor: middle" x="367.93044" y="543.906563" transform="rotate(-0 367.93044 543.906563)">115</text>
     </g>
    </g>
    <g id="xtick_6">
     <g id="line2d_11">
      <path d="M 441.243651 529.308125 
L 441.243651 23.837812 
" clip-path="url(#pb1083f3824)" style="fill: none; stroke: #b0b0b0; stroke-opacity: 0.3; stroke-width: 0.8; stroke-linecap: square"/>
     </g>
     <g id="line2d_12">
      <g>
       <use xlink:href="#m8c987cca94" x="441.243651" y="529.308125" style="stroke: #000000; stroke-width: 0.8"/>
      </g>
     </g>
     <g id="text_6">
      <text style="font: 10px 'DejaVu Sans', 'Bitstream Vera Sans', 'Computer Modern Sans Serif', 'Lucida Grande', 'Verdana', 'Geneva', 'Lucid', 'Arial', 'Helvetica', 'Avant Garde', sans-serif; text-anchor: middle" x="441.243651" y="543.906563" transform="rotate(-0 441.243651 543.906563)">120</text>
     </g>
    </g>
    <g id="xtick_7">
     <g id="line2d_13">
      <path d="M 514.556861 529.308125 
L 514.556861 23.837812 
" clip-path="url(#pb1083f3824)" style="fill: none; stroke: #b0b0b0; stroke-opacity: 0.3; stroke-width: 0.8; stroke-linecap: square"/>
     </g>
     <g id="line2d_14">
      <g>
       <use xlink:href="#m8c987cca94" x="514.556861" y="529.308125" style="stroke: #000000; stroke-width: 0.8"/>
      </g>
     </g>
     <g id="text_7">
      <text style="font: 10px 'DejaVu Sans', 'Bitstream Vera Sans', 'Computer Modern Sans Serif', 'Lucida Grande', 'Verdana', 'Geneva', 'Lucid', 'Arial', 'Helvetica', 'Avant Garde', sans-serif; text-anchor: middle" x="514.556861" y="543.906563" transform="rotate(-0 514.556861 543.906563)">125</text>
     </g>
    </g>
    <g id="xtick_8">
     <g id="line2d_15">
      <path d="M 587.870071 529.308125 
L 587.870071 23.837812 
" clip-path="url(#pb1083f3824)" style="fill: none; stroke: #b0b0b0; stroke-opacity: 0.3; stroke-width: 0.8; stroke-linecap: square"/>
     </g>
     <g id="line2d_16">
      <g>
       <use xlink:href="#m8c987cca94" x="587.870071" y="529.308125" style="stroke: #000000; stroke-width: 0.8"/>
      </g>
     </g>
     <g id="text_8">
      <text style="font: 10px 'DejaVu Sans', 'Bitstream Vera Sans', 'Computer Modern Sans Serif', 'Lucida Grande', 'Verdana', 'Geneva', 'Lucid', 'Arial', 'Helvetica', 'Avant Garde', sans-serif; text-anchor: middle" x="587.870071" y="543.906563" transform="rotate(-0 587.870071 543.906563)">130</text>
     </g>
    </g>
    <g id="text_9">
     <text style="font: 12px 'DejaVu Sans', 'Bitstream Vera Sans', 'Computer Modern Sans Serif', 'Lucida Grande', 'Verdana', 'Geneva', 'Lucid', 'Arial', 'Helvetica', 'Avant Garde', sans-serif; text-anchor: middle" x="338.605156" y="559.104375" transform="rotate(-0 338.605156 559.104375)">Build Number</text>
    </g>
   </g>
   <g id="matplotlib.axis_2">
    <g id="ytick_1">
     <g id="line2d_17">
      <defs>
       <path id="mfd48004307" d="M 0 0 
L -2 0 
" style="stroke: #000000; stroke-width: 0.6"/>
      </defs>
      <g>
       <use xlink:href="#mfd48004307" x="64.41375" y="310.865139" style="stroke: #000000; stroke-width: 0.6"/>
      </g>
     </g>
     <g id="text_10">
      <!-- $\mathdefault{5\times10^{5}}$ -->
      <g transform="translate(22.81375 314.664357)">
       <text>
        <tspan style="font: 10px 'DejaVu Sans'" x="0 8.310547 18.637695 25" y="-0.06406250000000036">5×10</tspan>
        <tspan style="font: 7px 'DejaVu Sans'" x="31.458008" y="-3.8921875000000004">5</tspan>
       </text>
      </g>
     </g>
    </g>
    <g id="ytick_2">
     <g id="line2d_18">
      <g>
       <use xlink:href="#mfd48004307" x="64.41375" y="101.819977" style="stroke: #000000; stroke-width: 0.6"/>
      </g>
     </g>
     <g id="text_11">
      <!-- $\mathdefault{6\times10^{5}}$ -->
      <g transform="translate(22.81375 105.619195)">
       <text>
        <tspan style="font: 10px 'DejaVu Sans'" x="0 8.310547 18.637695 25" y="-0.06406250000000036">6×10</tspan>
        <tspan style="font: 7px 'DejaVu Sans'" x="31.458008" y="-3.8921875000000004">5</tspan>
       </text>
      </g>
     </g>
    </g>
    <g id="text_12">
     <text style="font: 12px 'DejaVu Sans', 'Bitstream Vera Sans', 'Computer Modern Sans Serif', 'Lucida Grande', 'Verdana', 'Geneva', 'Lucid', 'Arial', 'Helvetica', 'Avant Garde', sans-serif; text-anchor: middle" x="16.318125" y="276.572969" transform="rotate(-90 16.318125 276.572969)">Median Elapsed Time (nanoseconds)</text>
    </g>
   </g>
   <g id="line2d_19">
    <path d="M 89.340241 134.053801 
L 104.002884 127.463194 
L 133.328168 131.292538 
L 147.99081 144.1133 
L 162.653452 142.738089 
L 177.316094 146.277941 
L 191.978736 114.238262 
L 206.641378 137.591151 
L 221.30402 141.463034 
L 235.966662 134.259798 
L 265.291946 131.093542 
L 279.954588 148.998312 
L 294.61723 137.288366 
L 309.279872 138.052381 
L 323.942514 121.660318 
L 353.267798 145.411951 
L 367.93044 135.153206 
L 382.593082 137.063892 
L 397.255724 126.526158 
L 411.918366 134.777508 
L 426.581009 154.582146 
L 441.243651 137.135625 
L 455.906293 134.162102 
L 470.568935 453.806152 
L 485.231577 133.681803 
L 499.894219 138.812564 
L 529.219503 46.813736 
L 543.882145 136.029198 
L 558.544787 127.455377 
L 573.207429 457.435823 
" clip-path="url(#pb1083f3824)" style="fill: none; stroke: #1f77b4; stroke-width: 2; stroke-linecap: square"/>
    <defs>
     <path id="me2eb58b4e7" d="M 0 3 
C 0.795609 3 1.55874 2.683901 2.12132 2.12132 
C 2.683901 1.55874 3 0.795609 3 0 
C 3 -0.795609 2.683901 -1.55874 2.12132 -2.12132 
C 1.55874 -2.683901 0.795609 -3 0 -3 
C -0.795609 -3 -1.55874 -2.683901 -2.12132 -2.12132 
C -2.683901 -1.55874 -3 -0.795609 -3 0 
C -3 0.795609 -2.683901 1.55874 -2.12132 2.12132 
C -1.55874 2.683901 -0.795609 3 0 3 
z
" style="stroke: #1f77b4"/>
    </defs>
    <g clip-path="url(#pb1083f3824)">
     <use xlink:href="#me2eb58b4e7" x="89.340241" y="134.053801" style="fill: #1f77b4; stroke: #1f77b4"/>
     <use xlink:href="#me2eb58b4e7" x="104.002884" y="127.463194" style="fill: #1f77b4; stroke: #1f77b4"/>
     <use xlink:href="#me2eb58b4e7" x="133.328168" y="131.292538" style="fill: #1f77b4; stroke: #1f77b4"/>
     <use xlink:href="#me2eb58b4e7" x="147.99081" y="144.1133" style="fill: #1f77b4; stroke: #1f77b4"/>
     <use xlink:href="#me2eb58b4e7" x="162.653452" y="142.738089" style="fill: #1f77b4; stroke: #1f77b4"/>
     <use xlink:href="#me2eb58b4e7" x="177.316094" y="146.277941" style="fill: #1f77b4; stroke: #1f77b4"/>
     <use xlink:href="#me2eb58b4e7" x="191.978736" y="114.238262" style="fill: #1f77b4; stroke: #1f77b4"/>
     <use xlink:href="#me2eb58b4e7" x="206.641378" y="137.591151" style="fill: #1f77b4; stroke: #1f77b4"/>
     <use xlink:href="#me2eb58b4e7" x="221.30402" y="141.463034" style="fill: #1f77b4; stroke: #1f77b4"/>
     <use xlink:href="#me2eb58b4e7" x="235.966662" y="134.259798" style="fill: #1f77b4; stroke: #1f77b4"/>
     <use xlink:href="#me2eb58b4e7" x="265.291946" y="131.093542" style="fill: #1f77b4; stroke: #1f77b4"/>
     <use xlink:href="#me2eb58b4e7" x="279.954588" y="148.998312" style="fill: #1f77b4; stroke: #1f77b4"/>
     <use xlink:href="#me2eb58b4e7" x="294.61723" y="137.288366" style="fill: #1f77b4; stroke: #1f77b4"/>
     <use xlink:href="#me2eb58b4e7" x="309.279872" y="138.052381" style="fill: #1f77b4; stroke: #1f77b4"/>
     <use xlink:href="#me2eb58b4e7" x="323.942514" y="121.660318" style="fill: #1f77b4; stroke: #1f77b4"/>
     <use xlink:href="#me2eb58b4e7" x="353.267798" y="145.411951" style="fill: #1f77b4; stroke: #1f77b4"/>
     <use xlink:href="#me2eb58b4e7" x="367.93044" y="135.153206" style="fill: #1f77b4; stroke: #1f77b4"/>
     <use xlink:href="#me2eb58b4e7" x="382.593082" y="137.063892" style="fill: #1f77b4; stroke: #1f77b4"/>
     <use xlink:href="#me2eb58b4e7" x="397.255724" y="126.526158" style="fill: #1f77b4; stroke: #1f77b4"/>
     <use xlink:href="#me2eb58b4e7" x="411.918366" y="134.777508" style="fill: #1f77b4; stroke: #1f77b4"/>
     <use xlink:href="#me2eb58b4e7" x="426.581009" y="154.582146" style="fill: #1f77b4; stroke: #1f77b4"/>
     <use xlink:href="#me2eb58b4e7" x="441.243651" y="137.135625" style="fill: #1f77b4; stroke: #1f77b4"/>
     <use xlink:href="#me2eb58b4e7" x="455.906293" y="134.162102" style="fill: #1f77b4; stroke: #1f77b4"/>
     <use xlink:href="#me2eb58b4e7" x="470.568935" y="453.806152" style="fill: #1f77b4; stroke: #1f77b4"/>
     <use xlink:href="#me2eb58b4e7" x="485.231577" y="133.681803" style="fill: #1f77b4; stroke: #1f77b4"/>
     <use xlink:href="#me2eb58b4e7" x="499.894219" y="138.812564" style="fill: #1f77b4; stroke: #1f77b4"/>
     <use xlink:href="#me2eb58b4e7" x="529.219503" y="46.813736" style="fill: #1f77b4; stroke: #1f77b4"/>
     <use xlink:href="#me2eb58b4e7" x="543.882145" y="136.029198" style="fill: #1f77b4; stroke: #1f77b4"/>
     <use xlink:href="#me2eb58b4e7" x="558.544787" y="127.455377" style="fill: #1f77b4; stroke: #1f77b4"/>
     <use xlink:href="#me2eb58b4e7" x="573.207429" y="457.435823" style="fill: #1f77b4; stroke: #1f77b4"/>
    </g>
   </g>
   <g id="line2d_20">
    <path d="M 89.340241 167.023871 
L 104.002884 154.357661 
L 133.328168 158.19996 
L 147.99081 192.326025 
L 162.653452 170.967175 
L 177.316094 179.989697 
L 191.978736 156.518898 
L 206.641378 163.152746 
L 221.30402 176.491635 
L 235.966662 161.138152 
L 265.291946 148.524896 
L 279.954588 149.694855 
L 294.61723 170.188423 
L 309.279872 170.309117 
L 323.942514 172.828137 
L 353.267798 178.52483 
L 367.93044 140.794405 
L 382.593082 169.86616 
L 397.255724 165.874498 
L 411.918366 180.804823 
L 426.581009 190.466618 
L 441.243651 170.606343 
L 455.906293 171.205899 
L 470.568935 495.394426 
L 485.231577 156.041966 
L 499.894219 177.276723 
L 529.219503 92.915 
L 543.882145 173.735641 
L 558.544787 170.657478 
L 573.207429 506.332202 
" clip-path="url(#pb1083f3824)" style="fill: none; stroke: #ff7f0e; stroke-width: 2; stroke-linecap: square"/>
    <defs>
     <path id="m93302802da" d="M 0 3 
C 0.795609 3 1.55874 2.683901 2.12132 2.12132 
C 2.683901 1.55874 3 0.795609 3 0 
C 3 -0.795609 2.683901 -1.55874 2.12132 -2.12132 
C 1.55874 -2.683901 0.795609 -3 0 -3 
C -0.795609 -3 -1.55874 -2.683901 -2.12132 -2.12132 
C -2.683901 -1.55874 -3 -0.795609 -3 0 
C -3 0.795609 -2.683901 1.55874 -2.12132 2.12132 
C -1.55874 2.683901 -0.795609 3 0 3 
z
" style="stroke: #ff7f0e"/>
    </defs>
    <g clip-path="url(#pb1083f3824)">
     <use xlink:href="#m93302802da" x="89.340241" y="167.023871" style="fill: #ff7f0e; stroke: #ff7f0e"/>
     <use xlink:href="#m93302802da" x="104.002884" y="154.357661" style="fill: #ff7f0e; stroke: #ff7f0e"/>
     <use xlink:href="#m93302802da" x="133.328168" y="158.19996" style="fill: #ff7f0e; stroke: #ff7f0e"/>
     <use xlink:href="#m93302802da" x="147.99081" y="192.326025" style="fill: #ff7f0e; stroke: #ff7f0e"/>
     <use xlink:href="#m93302802da" x="162.653452" y="170.967175" style="fill: #ff7f0e; stroke: #ff7f0e"/>
     <use xlink:href="#m93302802da" x="177.316094" y="179.989697" style="fill: #ff7f0e; stroke: #ff7f0e"/>
     <use xlink:href="#m93302802da" x="191.978736" y="156.518898" style="fill: #ff7f0e; stroke: #ff7f0e"/>
     <use xlink:href="#m93302802da" x="206.641378" y="163.152746" style="fill: #ff7f0e; stroke: #ff7f0e"/>
     <use xlink:href="#m93302802da" x="221.30402" y="176.491635" style="fill: #ff7f0e; stroke: #ff7f0e"/>
     <use xlink:href="#m93302802da" x="235.966662" y="161.138152" style="fill: #ff7f0e; stroke: #ff7f0e"/>
     <use xlink:href="#m93302802da" x="265.291946" y="148.524896" style="fill: #ff7f0e; stroke: #ff7f0e"/>
     <use xlink:href="#m93302802da" x="279.954588" y="149.694855" style="fill: #ff7f0e; stroke: #ff7f0e"/>
     <use xlink:href="#m93302802da" x="294.61723" y="170.188423" style="fill: #ff7f0e; stroke: #ff7f0e"/>
     <use xlink:href="#m93302802da" x="309.279872" y="170.309117" style="fill: #ff7f0e; stroke: #ff7f0e"/>
     <use xlink:href="#m93302802da" x="323.942514" y="172.828137" style="fill: #ff7f0e; stroke: #ff7f0e"/>
     <use xlink:href="#m93302802da" x="353.267798" y="178.52483" style="fill: #ff7f0e; stroke: #ff7f0e"/>
     <use xlink:href="#m93302802da" x="367.93044" y="140.794405" style="fill: #ff7f0e; stroke: #ff7f0e"/>
     <use xlink:href="#m93302802da" x="382.593082" y="169.86616" style="fill: #ff7f0e; stroke: #ff7f0e"/>
     <use xlink:href="#m93302802da" x="397.255724" y="165.874498" style="fill: #ff7f0e; stroke: #ff7f0e"/>
     <use xlink:href="#m93302802da" x="411.918366" y="180.804823" style="fill: #ff7f0e; stroke: #ff7f0e"/>
     <use xlink:href="#m93302802da" x="426.581009" y="190.466618" style="fill: #ff7f0e; stroke: #ff7f0e"/>
     <use xlink:href="#m93302802da" x="441.243651" y="170.606343" style="fill: #ff7f0e; stroke: #ff7f0e"/>
     <use xlink:href="#m93302802da" x="455.906293" y="171.205899" style="fill: #ff7f0e; stroke: #ff7f0e"/>
     <use xlink:href="#m93302802da" x="470.568935" y="495.394426" style="fill: #ff7f0e; stroke: #ff7f0e"/>
     <use xlink:href="#m93302802da" x="485.231577" y="156.041966" style="fill: #ff7f0e; stroke: #ff7f0e"/>
     <use xlink:href="#m93302802da" x="499.894219" y="177.276723" style="fill: #ff7f0e; stroke: #ff7f0e"/>
     <use xlink:href="#m93302802da" x="529.219503" y="92.915" style="fill: #ff7f0e; stroke: #ff7f0e"/>
     <use xlink:href="#m93302802da" x="543.882145" y="173.735641" style="fill: #ff7f0e; stroke: #ff7f0e"/>
     <use xlink:href="#m93302802da" x="558.544787" y="170.657478" style="fill: #ff7f0e; stroke: #ff7f0e"/>
     <use xlink:href="#m93302802da" x="573.207429" y="506.332202" style="fill: #ff7f0e; stroke: #ff7f0e"/>
    </g>
   </g>
   <g id="line2d_21">
    <path d="M 89.340241 277.623173 
L 104.002884 265.227782 
L 133.328168 269.575695 
L 147.99081 274.25351 
L 162.653452 277.581295 
L 177.316094 255.18112 
L 191.978736 283.651559 
L 206.641378 269.760636 
L 221.30402 275.34458 
L 235.966662 271.212887 
L 265.291946 270.589699 
L 279.954588 272.259825 
L 294.61723 274.082056 
L 323.942514 274.353685 
L 367.93044 268.48833 
L 382.593082 265.636635 
L 397.255724 255.303892 
L 411.918366 265.196931 
L 426.581009 271.166812 
L 441.243651 265.727683 
L 455.906293 264.916447 
L 470.568935 264.636911 
L 485.231577 267.323179 
L 499.894219 264.161704 
L 529.219503 178.120966 
L 543.882145 201.672105 
L 558.544787 271.725377 
L 573.207429 191.7887 
L 587.870071 191.574998 
" clip-path="url(#pb1083f3824)" style="fill: none; stroke: #2ca02c; stroke-width: 2; stroke-linecap: square"/>
    <defs>
     <path id="mad3990b2d0" d="M 0 3 
C 0.795609 3 1.55874 2.683901 2.12132 2.12132 
C 2.683901 1.55874 3 0.795609 3 0 
C 3 -0.795609 2.683901 -1.55874 2.12132 -2.12132 
C 1.55874 -2.683901 0.795609 -3 0 -3 
C -0.795609 -3 -1.55874 -2.683901 -2.12132 -2.12132 
C -2.683901 -1.55874 -3 -0.795609 -3 0 
C -3 0.795609 -2.683901 1.55874 -2.12132 2.12132 
C -1.55874 2.683901 -0.795609 3 0 3 
z
" style="stroke: #2ca02c"/>
    </defs>
    <g clip-path="url(#pb1083f3824)">
     <use xlink:href="#mad3990b2d0" x="89.340241" y="277.623173" style="fill: #2ca02c; stroke: #2ca02c"/>
     <use xlink:href="#mad3990b2d0" x="104.002884" y="265.227782" style="fill: #2ca02c; stroke: #2ca02c"/>
     <use xlink:href="#mad3990b2d0" x="133.328168" y="269.575695" style="fill: #2ca02c; stroke: #2ca02c"/>
     <use xlink:href="#mad3990b2d0" x="147.99081" y="274.25351" style="fill: #2ca02c; stroke: #2ca02c"/>
     <use xlink:href="#mad3990b2d0" x="162.653452" y="277.581295" style="fill: #2ca02c; stroke: #2ca02c"/>
     <use xlink:href="#mad3990b2d0" x="177.316094" y="255.18112" style="fill: #2ca02c; stroke: #2ca02c"/>
     <use xlink:href="#mad3990b2d0" x="191.978736" y="283.651559" style="fill: #2ca02c; stroke: #2ca02c"/>
     <use xlink:href="#mad3990b2d0" x="206.641378" y="269.760636" style="fill: #2ca02c; stroke: #2ca02c"/>
     <use xlink:href="#mad3990b2d0" x="221.30402" y="275.34458" style="fill: #2ca02c; stroke: #2ca02c"/>
     <use xlink:href="#mad3990b2d0" x="235.966662" y="271.212887" style="fill: #2ca02c; stroke: #2ca02c"/>
     <use xlink:href="#mad3990b2d0" x="265.291946" y="270.589699" style="fill: #2ca02c; stroke: #2ca02c"/>
     <use xlink:href="#mad3990b2d0" x="279.954588" y="272.259825" style="fill: #2ca02c; stroke: #2ca02c"/>
     <use xlink:href="#mad3990b2d0" x="294.61723" y="274.082056" style="fill: #2ca02c; stroke: #2ca02c"/>
     <use xlink:href="#mad3990b2d0" x="323.942514" y="274.353685" style="fill: #2ca02c; stroke: #2ca02c"/>
     <use xlink:href="#mad3990b2d0" x="367.93044" y="268.48833" style="fill: #2ca02c; stroke: #2ca02c"/>
     <use xlink:href="#mad3990b2d0" x="382.593082" y="265.636635" style="fill: #2ca02c; stroke: #2ca02c"/>
     <use xlink:href="#mad3990b2d0" x="397.255724" y="255.303892" style="fill: #2ca02c; stroke: #2ca02c"/>
     <use xlink:href="#mad3990b2d0" x="411.918366" y="265.196931" style="fill: #2ca02c; stroke: #2ca02c"/>
     <use xlink:href="#mad3990b2d0" x="426.581009" y="271.166812" style="fill: #2ca02c; stroke: #2ca02c"/>
     <use xlink:href="#mad3990b2d0" x="441.243651" y="265.727683" style="fill: #2ca02c; stroke: #2ca02c"/>
     <use xlink:href="#mad3990b2d0" x="455.906293" y="264.916447" style="fill: #2ca02c; stroke: #2ca02c"/>
     <use xlink:href="#mad3990b2d0" x="470.568935" y="264.636911" style="fill: #2ca02c; stroke: #2ca02c"/>
     <use xlink:href="#mad3990b2d0" x="485.231577" y="267.323179" style="fill: #2ca02c; stroke: #2ca02c"/>
     <use xlink:href="#mad3990b2d0" x="499.894219" y="264.161704" style="fill: #2ca02c; stroke: #2ca02c"/>
     <use xlink:href="#mad3990b2d0" x="529.219503" y="178.120966" style="fill: #2ca02c; stroke: #2ca02c"/>
     <use xlink:href="#mad3990b2d0" x="543.882145" y="201.672105" style="fill: #2ca02c; stroke: #2ca02c"/>
     <use xlink:href="#mad3990b2d0" x="558.544787" y="271.725377" style="fill: #2ca02c; stroke: #2ca02c"/>
     <use xlink:href="#mad3990b2d0" x="573.207429" y="191.7887" style="fill: #2ca02c; stroke: #2ca02c"/>
     <use xlink:href="#mad3990b2d0" x="587.870071" y="191.574998" style="fill: #2ca02c; stroke: #2ca02c"/>
    </g>
   </g>
   <g id="line2d_22">
    <path d="M 89.340241 279.626884 
L 104.002884 274.573835 
L 133.328168 278.861953 
L 147.99081 266.434042 
L 162.653452 281.520101 
L 177.316094 239.94777 
L 191.978736 289.775069 
L 206.641378 259.866477 
L 221.30402 285.025334 
L 235.966662 277.185084 
L 265.291946 279.979741 
L 279.954588 284.221842 
L 294.61723 274.482305 
L 323.942514 277.529394 
L 367.93044 278.87065 
L 382.593082 280.205885 
L 397.255724 269.464877 
L 411.918366 276.019296 
L 426.581009 283.10618 
L 441.243651 265.41004 
L 455.906293 275.266326 
L 470.568935 258.617585 
L 485.231577 272.566064 
L 499.894219 260.541361 
L 529.219503 188.249565 
L 543.882145 214.617116 
L 558.544787 287.763449 
L 573.207429 203.542479 
L 587.870071 209.749425 
" clip-path="url(#pb1083f3824)" style="fill: none; stroke: #d62728; stroke-width: 2; stroke-linecap: square"/>
    <defs>
     <path id="m8b12c8e8c3" d="M 0 3 
C 0.795609 3 1.55874 2.683901 2.12132 2.12132 
C 2.683901 1.55874 3 0.795609 3 0 
C 3 -0.795609 2.683901 -1.55874 2.12132 -2.12132 
C 1.55874 -2.683901 0.795609 -3 0 -3 
C -0.795609 -3 -1.55874 -2.683901 -2.12132 -2.12132 
C -2.683901 -1.55874 -3 -0.795609 -3 0 
C -3 0.795609 -2.683901 1.55874 -2.12132 2.12132 
C -1.55874 2.683901 -0.795609 3 0 3 
z
" style="stroke: #d62728"/>
    </defs>
    <g clip-path="url(#pb1083f3824)">
     <use xlink:href="#m8b12c8e8c3" x="89.340241" y="279.626884" style="fill: #d62728; stroke: #d62728"/>
     <use xlink:href="#m8b12c8e8c3" x="104.002884" y="274.573835" style="fill: #d62728; stroke: #d62728"/>
     <use xlink:href="#m8b12c8e8c3" x="133.328168" y="278.861953" style="fill: #d62728; stroke: #d62728"/>
     <use xlink:href="#m8b12c8e8c3" x="147.99081" y="266.434042" style="fill: #d62728; stroke: #d62728"/>
     <use xlink:href="#m8b12c8e8c3" x="162.653452" y="281.520101" style="fill: #d62728; stroke: #d62728"/>
     <use xlink:href="#m8b12c8e8c3" x="177.316094" y="239.94777" style="fill: #d62728; stroke: #d62728"/>
     <use xlink:href="#m8b12c8e8c3" x="191.978736" y="289.775069" style="fill: #d62728; stroke: #d62728"/>
     <use xlink:href="#m8b12c8e8c3" x="206.641378" y="259.866477" style="fill: #d62728; stroke: #d62728"/>
     <use xlink:href="#m8b12c8e8c3" x="221.30402" y="285.025334" style="fill: #d62728; stroke: #d62728"/>
     <use xlink:href="#m8b12c8e8c3" x="235.966662" y="277.185084" style="fill: #d62728; stroke: #d62728"/>
     <use xlink:href="#m8b12c8e8c3" x="265.291946" y="279.979741" style="fill: #d62728; stroke: #d62728"/>
     <use xlink:href="#m8b12c8e8c3" x="279.954588" y="284.221842" style="fill: #d62728; stroke: #d62728"/>
     <use xlink:href="#m8b12c8e8c3" x="294.61723" y="274.482305" style="fill: #d62728; stroke: #d62728"/>
     <use xlink:href="#m8b12c8e8c3" x="323.942514" y="277.529394" style="fill: #d62728; stroke: #d62728"/>
     <use xlink:href="#m8b12c8e8c3" x="367.93044" y="278.87065" style="fill: #d62728; stroke: #d62728"/>
     <use xlink:href="#m8b12c8e8c3" x="382.593082" y="280.205885" style="fill: #d62728; stroke: #d62728"/>
     <use xlink:href="#m8b12c8e8c3" x="397.255724" y="269.464877" style="fill: #d62728; stroke: #d62728"/>
     <use xlink:href="#m8b12c8e8c3" x="411.918366" y="276.019296" style="fill: #d62728; stroke: #d62728"/>
     <use xlink:href="#m8b12c8e8c3" x="426.581009" y="283.10618" style="fill: #d62728; stroke: #d62728"/>
     <use xlink:href="#m8b12c8e8c3" x="441.243651" y="265.41004" style="fill: #d62728; stroke: #d62728"/>
     <use xlink:href="#m8b12c8e8c3" x="455.906293" y="275.266326" style="fill: #d62728; stroke: #d62728"/>
     <use xlink:href="#m8b12c8e8c3" x="470.568935" y="258.617585" style="fill: #d62728; stroke: #d62728"/>
     <use xlink:href="#m8b12c8e8c3" x="485.231577" y="272.566064" style="fill: #d62728; stroke: #d62728"/>
     <use xlink:href="#m8b12c8e8c3" x="499.894219" y="260.541361" style="fill: #d62728; stroke: #d62728"/>
     <use xlink:href="#m8b12c8e8c3" x="529.219503" y="188.249565" style="fill: #d62728; stroke: #d62728"/>
     <use xlink:href="#m8b12c8e8c3" x="543.882145" y="214.617116" style="fill: #d62728; stroke: #d62728"/>
     <use xlink:href="#m8b12c8e8c3" x="558.544787" y="287.763449" style="fill: #d62728; stroke: #d62728"/>
     <use xlink:href="#m8b12c8e8c3" x="573.207429" y="203.542479" style="fill: #d62728; stroke: #d62728"/>
     <use xlink:href="#m8b12c8e8c3" x="587.870071" y="209.749425" style="fill: #d62728; stroke: #d62728"/>
    </g>
   </g>
   <g id="patch_3">
    <path d="M 64.41375 529.308125 
L 64.41375 23.837812 
" style="fill: none; stroke: #000000; stroke-width: 0.8; stroke-linejoin: miter; stroke-linecap: square"/>
   </g>
   <g id="patch_4">
    <path d="M 612.796562 529.308125 
L 612.796562 23.837812 
" style="fill: none; stroke: #000000; stroke-width: 0.8; stroke-linejoin: miter; stroke-linecap: square"/>
   </g>
   <g id="patch_5">
    <path d="M 64.41375 529.308125 
L 612.796562 529.308125 
" style="fill: none; stroke: #000000; stroke-width: 0.8; stroke-linejoin: miter; stroke-linecap: square"/>
   </g>
   <g id="patch_6">
    <path d="M 64.41375 23.837812 
L 612.796562 23.837812 
" style="fill: none; stroke: #000000; stroke-width: 0.8; stroke-linejoin: miter; stroke-linecap: square"/>
   </g>
   <g id="text_13">
    <text style="font: 700 14px 'DejaVu Sans', 'Bitstream Vera Sans', 'Computer Modern Sans Serif', 'Lucida Grande', 'Verdana', 'Geneva', 'Lucid', 'Arial', 'Helvetica', 'Avant Garde', sans-serif; text-anchor: middle" x="338.605156" y="17.837813" transform="rotate(-0 338.605156 17.837813)">Coroutine Creation - Performance Trend</text>
   </g>
   <g id="legend_1">
    <g id="patch_7">
     <path d="M 647.215703 91.662813 
L 841.539141 91.662813 
Q 843.539141 91.662813 843.539141 89.662813 
L 843.539141 30.837813 
Q 843.539141 28.837813 841.539141 28.837813 
L 647.215703 28.837813 
Q 645.215703 28.837813 645.215703 30.837813 
L 645.215703 89.662813 
Q 645.215703 91.662813 647.215703 91.662813 
z
" style="fill: #ffffff; opacity: 0.8; stroke: #cccccc; stroke-linejoin: miter"/>
    </g>
    <g id="line2d_23">
     <path d="M 649.215703 36.93625 
L 659.215703 36.93625 
L 669.215703 36.93625 
" style="fill: none; stroke: #1f77b4; stroke-width: 2; stroke-linecap: square"/>
     <g>
      <use xlink:href="#me2eb58b4e7" x="659.215703" y="36.93625" style="fill: #1f77b4; stroke: #1f77b4"/>
     </g>
    </g>
    <g id="text_14">
     <text style="font: 10px 'DejaVu Sans', 'Bitstream Vera Sans', 'Computer Modern Sans Serif', 'Lucida Grande', 'Verdana', 'Geneva', 'Lucid', 'Arial', 'Helvetica', 'Avant Garde', sans-serif; text-anchor: start" x="677.215703" y="40.43625" transform="rotate(-0 677.215703 40.43625)">gcc-14.2 - CoroutineCreation_V1</text>
    </g>
    <g id="line2d_24">
     <path d="M 649.215703 51.8925 
L 659.215703 51.8925 
L 669.215703 51.8925 
" style="fill: none; stroke: #ff7f0e; stroke-width: 2; stroke-linecap: square"/>
     <g>
      <use xlink:href="#m93302802da" x="659.215703" y="51.8925" style="fill: #ff7f0e; stroke: #ff7f0e"/>
     </g>
    </g>
    <g id="text_15">
     <text style="font: 10px 'DejaVu Sans', 'Bitstream Vera Sans', 'Computer Modern Sans Serif', 'Lucida Grande', 'Verdana', 'Geneva', 'Lucid', 'Arial', 'Helvetica', 'Avant Garde', sans-serif; text-anchor: start" x="677.215703" y="55.3925" transform="rotate(-0 677.215703 55.3925)">gcc-14.2 - CoroutineCreation_V2</text>
    </g>
    <g id="line2d_25">
     <path d="M 649.215703 66.84875 
L 659.215703 66.84875 
L 669.215703 66.84875 
" style="fill: none; stroke: #2ca02c; stroke-width: 2; stroke-linecap: square"/>
     <g>
      <use xlink:href="#mad3990b2d0" x="659.215703" y="66.84875" style="fill: #2ca02c; stroke: #2ca02c"/>
     </g>
    </g>
    <g id="text_16">
     <text style="font: 10px 'DejaVu Sans', 'Bitstream Vera Sans', 'Computer Modern Sans Serif', 'Lucida Grande', 'Verdana', 'Geneva', 'Lucid', 'Arial', 'Helvetica', 'Avant Garde', sans-serif; text-anchor: start" x="677.215703" y="70.34875" transform="rotate(-0 677.215703 70.34875)">gcc-4.2 - CoroutineCreation_V1</text>
    </g>
    <g id="line2d_26">
     <path d="M 649.215703 81.805 
L 659.215703 81.805 
L 669.215703 81.805 
" style="fill: none; stroke: #d62728; stroke-width: 2; stroke-linecap: square"/>
     <g>
      <use xlink:href="#m8b12c8e8c3" x="659.215703" y="81.805" style="fill: #d62728; stroke: #d62728"/>
     </g>
    </g>
    <g id="text_17">
     <text style="font: 10px 'DejaVu Sans', 'Bitstream Vera Sans', 'Computer Modern Sans Serif', 'Lucida Grande', 'Verdana', 'Geneva', 'Lucid', 'Arial', 'Helvetica', 'Avant Garde', sans-serif; text-anchor: start" x="677.215703" y="85.305" transform="rotate(-0 677.215703 85.305)">gcc-4.2 - CoroutineCreation_V2</text>
    </g>
   </g>
  </g>
 </g>
 <defs>
  <clipPath id="pb1083f3824">
   <rect x="64.41375" y="23.837813" width="548.382812" height="505.470313"/>
  </clipPath>
 </defs>
</svg>
