<?xml version="1.0" encoding="utf-8" standalone="no"?>
<!DOCTYPE svg PUBLIC "-//W3C//DTD SVG 1.1//EN"
  "http://www.w3.org/Graphics/SVG/1.1/DTD/svg11.dtd">
<svg xmlns:xlink="http://www.w3.org/1999/xlink" width="855.889141pt" height="568.8pt" viewBox="0 0 855.889141 568.8" xmlns="http://www.w3.org/2000/svg" version="1.1">
 <metadata>
  <rdf:RDF xmlns:dc="http://purl.org/dc/elements/1.1/" xmlns:cc="http://creativecommons.org/ns#" xmlns:rdf="http://www.w3.org/1999/02/22-rdf-syntax-ns#">
   <cc:Work>
    <dc:type rdf:resource="http://purl.org/dc/dcmitype/StillImage"/>
    <dc:date>2025-08-31T21:45:58.472158</dc:date>
    <dc:format>image/svg+xml</dc:format>
    <dc:creator>
     <cc:Agent>
      <dc:title>Matplotlib v3.9.4, https://matplotlib.org/</dc:title>
     </cc:Agent>
    </dc:creator>
   </cc:Work>
  </rdf:RDF>
 </metadata>
 <defs>
  <style type="text/css">*{stroke-linejoin: round; stroke-linecap: butt}</style>
 </defs>
 <g id="figure_1">
  <g id="patch_1">
   <path d="M 0 568.8 
L 855.889141 568.8 
L 855.889141 0 
L 0 0 
z
" style="fill: #ffffff"/>
  </g>
  <g id="axes_1">
   <g id="patch_2">
    <path d="M 80.31375 529.308125 
L 731.696562 529.308125 
L 731.696562 23.837812 
L 80.31375 23.837812 
z
" style="fill: #ffffff"/>
   </g>
   <g id="matplotlib.axis_1">
    <g id="xtick_1">
     <g id="line2d_1">
      <path d="M 96.762811 529.308125 
L 96.762811 23.837812 
" clip-path="url(#p2d2b78ad98)" style="fill: none; stroke: #b0b0b0; stroke-opacity: 0.3; stroke-width: 0.8; stroke-linecap: square"/>
     </g>
     <g id="line2d_2">
      <defs>
       <path id="m22f6a7c66e" d="M 0 0 
L 0 3.5 
" style="stroke: #000000; stroke-width: 0.8"/>
      </defs>
      <g>
       <use xlink:href="#m22f6a7c66e" x="96.762811" y="529.308125" style="stroke: #000000; stroke-width: 0.8"/>
      </g>
     </g>
     <g id="text_1">
      <text style="font: 10px 'DejaVu Sans', 'Bitstream Vera Sans', 'Computer Modern Sans Serif', 'Lucida Grande', 'Verdana', 'Geneva', 'Lucid', 'Arial', 'Helvetica', 'Avant Garde', sans-serif; text-anchor: middle" x="96.762811" y="543.906563" transform="rotate(-0 96.762811 543.906563)">70</text>
     </g>
    </g>
    <g id="xtick_2">
     <g id="line2d_3">
      <path d="M 228.355298 529.308125 
L 228.355298 23.837812 
" clip-path="url(#p2d2b78ad98)" style="fill: none; stroke: #b0b0b0; stroke-opacity: 0.3; stroke-width: 0.8; stroke-linecap: square"/>
     </g>
     <g id="line2d_4">
      <g>
       <use xlink:href="#m22f6a7c66e" x="228.355298" y="529.308125" style="stroke: #000000; stroke-width: 0.8"/>
      </g>
     </g>
     <g id="text_2">
      <text style="font: 10px 'DejaVu Sans', 'Bitstream Vera Sans', 'Computer Modern Sans Serif', 'Lucida Grande', 'Verdana', 'Geneva', 'Lucid', 'Arial', 'Helvetica', 'Avant Garde', sans-serif; text-anchor: middle" x="228.355298" y="543.906563" transform="rotate(-0 228.355298 543.906563)">80</text>
     </g>
    </g>
    <g id="xtick_3">
     <g id="line2d_5">
      <path d="M 359.947786 529.308125 
L 359.947786 23.837812 
" clip-path="url(#p2d2b78ad98)" style="fill: none; stroke: #b0b0b0; stroke-opacity: 0.3; stroke-width: 0.8; stroke-linecap: square"/>
     </g>
     <g id="line2d_6">
      <g>
       <use xlink:href="#m22f6a7c66e" x="359.947786" y="529.308125" style="stroke: #000000; stroke-width: 0.8"/>
      </g>
     </g>
     <g id="text_3">
      <text style="font: 10px 'DejaVu Sans', 'Bitstream Vera Sans', 'Computer Modern Sans Serif', 'Lucida Grande', 'Verdana', 'Geneva', 'Lucid', 'Arial', 'Helvetica', 'Avant Garde', sans-serif; text-anchor: middle" x="359.947786" y="543.906563" transform="rotate(-0 359.947786 543.906563)">90</text>
     </g>
    </g>
    <g id="xtick_4">
     <g id="line2d_7">
      <path d="M 491.540273 529.308125 
L 491.540273 23.837812 
" clip-path="url(#p2d2b78ad98)" style="fill: none; stroke: #b0b0b0; stroke-opacity: 0.3; stroke-width: 0.8; stroke-linecap: square"/>
     </g>
     <g id="line2d_8">
      <g>
       <use xlink:href="#m22f6a7c66e" x="491.540273" y="529.308125" style="stroke: #000000; stroke-width: 0.8"/>
      </g>
     </g>
     <g id="text_4">
      <text style="font: 10px 'DejaVu Sans', 'Bitstream Vera Sans', 'Computer Modern Sans Serif', 'Lucida Grande', 'Verdana', 'Geneva', 'Lucid', 'Arial', 'Helvetica', 'Avant Garde', sans-serif; text-anchor: middle" x="491.540273" y="543.906563" transform="rotate(-0 491.540273 543.906563)">100</text>
     </g>
    </g>
    <g id="xtick_5">
     <g id="line2d_9">
      <path d="M 623.13276 529.308125 
L 623.13276 23.837812 
" clip-path="url(#p2d2b78ad98)" style="fill: none; stroke: #b0b0b0; stroke-opacity: 0.3; stroke-width: 0.8; stroke-linecap: square"/>
     </g>
     <g id="line2d_10">
      <g>
       <use xlink:href="#m22f6a7c66e" x="623.13276" y="529.308125" style="stroke: #000000; stroke-width: 0.8"/>
      </g>
     </g>
     <g id="text_5">
      <text style="font: 10px 'DejaVu Sans', 'Bitstream Vera Sans', 'Computer Modern Sans Serif', 'Lucida Grande', 'Verdana', 'Geneva', 'Lucid', 'Arial', 'Helvetica', 'Avant Garde', sans-serif; text-anchor: middle" x="623.13276" y="543.906563" transform="rotate(-0 623.13276 543.906563)">110</text>
     </g>
    </g>
    <g id="text_6">
     <text style="font: 12px 'DejaVu Sans', 'Bitstream Vera Sans', 'Computer Modern Sans Serif', 'Lucida Grande', 'Verdana', 'Geneva', 'Lucid', 'Arial', 'Helvetica', 'Avant Garde', sans-serif; text-anchor: middle" x="406.005156" y="559.104375" transform="rotate(-0 406.005156 559.104375)">Build Number</text>
    </g>
   </g>
   <g id="matplotlib.axis_2">
    <g id="ytick_1">
     <g id="line2d_11">
      <defs>
       <path id="m9b8eb66425" d="M 0 0 
L -2 0 
" style="stroke: #000000; stroke-width: 0.6"/>
      </defs>
      <g>
       <use xlink:href="#m9b8eb66425" x="80.31375" y="498.484932" style="stroke: #000000; stroke-width: 0.6"/>
      </g>
     </g>
     <g id="text_7">
      <!-- $\mathdefault{1.9\times10^{2}}$ -->
      <g transform="translate(29.11375 502.28415)">
       <text>
        <tspan style="font: 10px 'DejaVu Sans'" x="0 6.362305 9.541016 17.851562 28.178711 34.541016" y="-0.9765625">1.9×10</tspan>
        <tspan style="font: 7px 'DejaVu Sans'" x="40.999023" y="-4.8046875">2</tspan>
       </text>
      </g>
     </g>
    </g>
    <g id="ytick_2">
     <g id="line2d_12">
      <g>
       <use xlink:href="#m9b8eb66425" x="80.31375" y="426.866594" style="stroke: #000000; stroke-width: 0.6"/>
      </g>
     </g>
     <g id="text_8">
      <!-- $\mathdefault{1.95\times10^{2}}$ -->
      <g transform="translate(22.81375 430.665812)">
       <text>
        <tspan style="font: 10px 'DejaVu Sans'" x="0 6.362305 9.541016 15.90332 24.213867 34.541016 40.90332" y="-0.9765625">1.95×10</tspan>
        <tspan style="font: 7px 'DejaVu Sans'" x="47.361328" y="-4.8046875">2</tspan>
       </text>
      </g>
     </g>
    </g>
    <g id="ytick_3">
     <g id="line2d_13">
      <g>
       <use xlink:href="#m9b8eb66425" x="80.31375" y="357.061574" style="stroke: #000000; stroke-width: 0.6"/>
      </g>
     </g>
     <g id="text_9">
      <!-- $\mathdefault{2\times10^{2}}$ -->
      <g transform="translate(38.71375 360.860793)">
       <text>
        <tspan style="font: 10px 'DejaVu Sans'" x="0 8.310547 18.637695 25" y="-0.9765625">2×10</tspan>
        <tspan style="font: 7px 'DejaVu Sans'" x="31.458008" y="-4.8046875">2</tspan>
       </text>
      </g>
     </g>
    </g>
    <g id="ytick_4">
     <g id="line2d_14">
      <g>
       <use xlink:href="#m9b8eb66425" x="80.31375" y="288.980313" style="stroke: #000000; stroke-width: 0.6"/>
      </g>
     </g>
     <g id="text_10">
      <!-- $\mathdefault{2.05\times10^{2}}$ -->
      <g transform="translate(22.81375 292.779532)">
       <text>
        <tspan style="font: 10px 'DejaVu Sans'" x="0 6.362305 9.541016 15.90332 24.213867 34.541016 40.90332" y="-0.9765625">2.05×10</tspan>
        <tspan style="font: 7px 'DejaVu Sans'" x="47.361328" y="-4.8046875">2</tspan>
       </text>
      </g>
     </g>
    </g>
    <g id="ytick_5">
     <g id="line2d_15">
      <g>
       <use xlink:href="#m9b8eb66425" x="80.31375" y="222.539725" style="stroke: #000000; stroke-width: 0.6"/>
      </g>
     </g>
     <g id="text_11">
      <!-- $\mathdefault{2.1\times10^{2}}$ -->
      <g transform="translate(29.11375 226.338944)">
       <text>
        <tspan style="font: 10px 'DejaVu Sans'" x="0 6.362305 9.541016 17.851562 28.178711 34.541016" y="-0.9765625">2.1×10</tspan>
        <tspan style="font: 7px 'DejaVu Sans'" x="40.999023" y="-4.8046875">2</tspan>
       </text>
      </g>
     </g>
    </g>
    <g id="ytick_6">
     <g id="line2d_16">
      <g>
       <use xlink:href="#m9b8eb66425" x="80.31375" y="157.662591" style="stroke: #000000; stroke-width: 0.6"/>
      </g>
     </g>
     <g id="text_12">
      <!-- $\mathdefault{2.15\times10^{2}}$ -->
      <g transform="translate(22.81375 161.461809)">
       <text>
        <tspan style="font: 10px 'DejaVu Sans'" x="0 6.362305 9.541016 15.90332 24.213867 34.541016 40.90332" y="-0.9765625">2.15×10</tspan>
        <tspan style="font: 7px 'DejaVu Sans'" x="47.361328" y="-4.8046875">2</tspan>
       </text>
      </g>
     </g>
    </g>
    <g id="ytick_7">
     <g id="line2d_17">
      <g>
       <use xlink:href="#m9b8eb66425" x="80.31375" y="94.277018" style="stroke: #000000; stroke-width: 0.6"/>
      </g>
     </g>
     <g id="text_13">
      <!-- $\mathdefault{2.2\times10^{2}}$ -->
      <g transform="translate(29.71375 98.076236)">
       <text>
        <tspan style="font: 10px 'DejaVu Sans'" x="0 6.362305 9.041016 17.351562 27.678711 34.041016" y="-0.9765625">2.2×10</tspan>
        <tspan style="font: 7px 'DejaVu Sans'" x="40.499023" y="-4.8046875">2</tspan>
       </text>
      </g>
     </g>
    </g>
    <g id="ytick_8">
     <g id="line2d_18">
      <g>
       <use xlink:href="#m9b8eb66425" x="80.31375" y="32.315961" style="stroke: #000000; stroke-width: 0.6"/>
      </g>
     </g>
     <g id="text_14">
      <!-- $\mathdefault{2.25\times10^{2}}$ -->
      <g transform="translate(23.31375 36.11518)">
       <text>
        <tspan style="font: 10px 'DejaVu Sans'" x="0 6.362305 9.041016 15.40332 23.713867 34.041016 40.40332" y="-0.9765625">2.25×10</tspan>
        <tspan style="font: 7px 'DejaVu Sans'" x="46.861328" y="-4.8046875">2</tspan>
       </text>
      </g>
     </g>
    </g>
    <g id="text_15">
     <text style="font: 12px 'DejaVu Sans', 'Bitstream Vera Sans', 'Computer Modern Sans Serif', 'Lucida Grande', 'Verdana', 'Geneva', 'Lucid', 'Arial', 'Helvetica', 'Avant Garde', sans-serif; text-anchor: middle" x="16.318125" y="276.572969" transform="rotate(-90 16.318125 276.572969)">Median Elapsed Time (nanoseconds)</text>
    </g>
   </g>
   <g id="line2d_19">
    <path d="M 109.92206 296.738053 
L 123.081308 269.013009 
L 136.240557 454.43407 
L 149.399806 275.875447 
L 162.559055 285.217018 
L 175.718303 116.928317 
L 188.877552 125.660895 
L 202.036801 451.579285 
L 215.19605 286.426088 
L 228.355298 433.094887 
L 241.514547 107.9714 
L 254.673796 289.114811 
L 267.833045 295.848113 
L 294.151542 283.739985 
L 307.310791 294.500137 
L 333.629288 506.332202 
L 346.788537 82.89596 
L 359.947786 62.874615 
L 373.107034 290.594728 
L 386.266283 438.769207 
L 412.584781 113.013971 
L 425.744029 297.331649 
L 438.903278 279.715729 
L 452.062527 120.595162 
L 478.381024 300.031033 
L 491.540273 474.64462 
L 504.699522 443.174851 
L 517.858771 289.114811 
L 531.018019 291.940796 
L 544.177268 116.801961 
L 557.336517 235.550109 
L 570.495765 290.594728 
L 596.814263 301.246619 
L 609.973512 100.424794 
L 623.13276 100.424794 
L 649.451258 91.646447 
L 688.929004 274.359176 
L 702.088253 285.217018 
" clip-path="url(#p2d2b78ad98)" style="fill: none; stroke: #1f77b4; stroke-width: 2; stroke-linecap: square"/>
    <defs>
     <path id="mc5d7a7f26d" d="M 0 3 
C 0.795609 3 1.55874 2.683901 2.12132 2.12132 
C 2.683901 1.55874 3 0.795609 3 0 
C 3 -0.795609 2.683901 -1.55874 2.12132 -2.12132 
C 1.55874 -2.683901 0.795609 -3 0 -3 
C -0.795609 -3 -1.55874 -2.683901 -2.12132 -2.12132 
C -2.683901 -1.55874 -3 -0.795609 -3 0 
C -3 0.795609 -2.683901 1.55874 -2.12132 2.12132 
C -1.55874 2.683901 -0.795609 3 0 3 
z
" style="stroke: #1f77b4"/>
    </defs>
    <g clip-path="url(#p2d2b78ad98)">
     <use xlink:href="#mc5d7a7f26d" x="109.92206" y="296.738053" style="fill: #1f77b4; stroke: #1f77b4"/>
     <use xlink:href="#mc5d7a7f26d" x="123.081308" y="269.013009" style="fill: #1f77b4; stroke: #1f77b4"/>
     <use xlink:href="#mc5d7a7f26d" x="136.240557" y="454.43407" style="fill: #1f77b4; stroke: #1f77b4"/>
     <use xlink:href="#mc5d7a7f26d" x="149.399806" y="275.875447" style="fill: #1f77b4; stroke: #1f77b4"/>
     <use xlink:href="#mc5d7a7f26d" x="162.559055" y="285.217018" style="fill: #1f77b4; stroke: #1f77b4"/>
     <use xlink:href="#mc5d7a7f26d" x="175.718303" y="116.928317" style="fill: #1f77b4; stroke: #1f77b4"/>
     <use xlink:href="#mc5d7a7f26d" x="188.877552" y="125.660895" style="fill: #1f77b4; stroke: #1f77b4"/>
     <use xlink:href="#mc5d7a7f26d" x="202.036801" y="451.579285" style="fill: #1f77b4; stroke: #1f77b4"/>
     <use xlink:href="#mc5d7a7f26d" x="215.19605" y="286.426088" style="fill: #1f77b4; stroke: #1f77b4"/>
     <use xlink:href="#mc5d7a7f26d" x="228.355298" y="433.094887" style="fill: #1f77b4; stroke: #1f77b4"/>
     <use xlink:href="#mc5d7a7f26d" x="241.514547" y="107.9714" style="fill: #1f77b4; stroke: #1f77b4"/>
     <use xlink:href="#mc5d7a7f26d" x="254.673796" y="289.114811" style="fill: #1f77b4; stroke: #1f77b4"/>
     <use xlink:href="#mc5d7a7f26d" x="267.833045" y="295.848113" style="fill: #1f77b4; stroke: #1f77b4"/>
     <use xlink:href="#mc5d7a7f26d" x="294.151542" y="283.739985" style="fill: #1f77b4; stroke: #1f77b4"/>
     <use xlink:href="#mc5d7a7f26d" x="307.310791" y="294.500137" style="fill: #1f77b4; stroke: #1f77b4"/>
     <use xlink:href="#mc5d7a7f26d" x="333.629288" y="506.332202" style="fill: #1f77b4; stroke: #1f77b4"/>
     <use xlink:href="#mc5d7a7f26d" x="346.788537" y="82.89596" style="fill: #1f77b4; stroke: #1f77b4"/>
     <use xlink:href="#mc5d7a7f26d" x="359.947786" y="62.874615" style="fill: #1f77b4; stroke: #1f77b4"/>
     <use xlink:href="#mc5d7a7f26d" x="373.107034" y="290.594728" style="fill: #1f77b4; stroke: #1f77b4"/>
     <use xlink:href="#mc5d7a7f26d" x="386.266283" y="438.769207" style="fill: #1f77b4; stroke: #1f77b4"/>
     <use xlink:href="#mc5d7a7f26d" x="412.584781" y="113.013971" style="fill: #1f77b4; stroke: #1f77b4"/>
     <use xlink:href="#mc5d7a7f26d" x="425.744029" y="297.331649" style="fill: #1f77b4; stroke: #1f77b4"/>
     <use xlink:href="#mc5d7a7f26d" x="438.903278" y="279.715729" style="fill: #1f77b4; stroke: #1f77b4"/>
     <use xlink:href="#mc5d7a7f26d" x="452.062527" y="120.595162" style="fill: #1f77b4; stroke: #1f77b4"/>
     <use xlink:href="#mc5d7a7f26d" x="478.381024" y="300.031033" style="fill: #1f77b4; stroke: #1f77b4"/>
     <use xlink:href="#mc5d7a7f26d" x="491.540273" y="474.64462" style="fill: #1f77b4; stroke: #1f77b4"/>
     <use xlink:href="#mc5d7a7f26d" x="504.699522" y="443.174851" style="fill: #1f77b4; stroke: #1f77b4"/>
     <use xlink:href="#mc5d7a7f26d" x="517.858771" y="289.114811" style="fill: #1f77b4; stroke: #1f77b4"/>
     <use xlink:href="#mc5d7a7f26d" x="531.018019" y="291.940796" style="fill: #1f77b4; stroke: #1f77b4"/>
     <use xlink:href="#mc5d7a7f26d" x="544.177268" y="116.801961" style="fill: #1f77b4; stroke: #1f77b4"/>
     <use xlink:href="#mc5d7a7f26d" x="557.336517" y="235.550109" style="fill: #1f77b4; stroke: #1f77b4"/>
     <use xlink:href="#mc5d7a7f26d" x="570.495765" y="290.594728" style="fill: #1f77b4; stroke: #1f77b4"/>
     <use xlink:href="#mc5d7a7f26d" x="596.814263" y="301.246619" style="fill: #1f77b4; stroke: #1f77b4"/>
     <use xlink:href="#mc5d7a7f26d" x="609.973512" y="100.424794" style="fill: #1f77b4; stroke: #1f77b4"/>
     <use xlink:href="#mc5d7a7f26d" x="623.13276" y="100.424794" style="fill: #1f77b4; stroke: #1f77b4"/>
     <use xlink:href="#mc5d7a7f26d" x="649.451258" y="91.646447" style="fill: #1f77b4; stroke: #1f77b4"/>
     <use xlink:href="#mc5d7a7f26d" x="688.929004" y="274.359176" style="fill: #1f77b4; stroke: #1f77b4"/>
     <use xlink:href="#mc5d7a7f26d" x="702.088253" y="285.217018" style="fill: #1f77b4; stroke: #1f77b4"/>
    </g>
   </g>
   <g id="line2d_20">
    <path d="M 109.92206 287.904562 
L 123.081308 268.772299 
L 136.240557 279.849776 
L 149.399806 110.491533 
L 162.559055 249.056705 
L 175.718303 408.967986 
L 188.877552 439.517676 
L 202.036801 249.056705 
L 215.19605 273.844596 
L 228.355298 66.718372 
L 241.514547 46.813736 
L 254.673796 417.409543 
L 267.833045 89.018384 
L 280.992293 302.733063 
L 294.151542 410.373119 
L 307.310791 430.628028 
L 333.629288 92.773527 
L 346.788537 443.032623 
L 359.947786 95.405174 
L 373.107034 259.815166 
L 386.266283 428.705307 
L 399.425532 294.634905 
L 412.584781 416.000821 
L 425.744029 453.006308 
L 438.903278 254.364278 
L 452.062527 281.190608 
L 478.381024 250.543933 
L 491.540273 447.302643 
L 504.699522 97.913841 
L 517.858771 79.154237 
L 531.018019 265.010176 
L 544.177268 427.290803 
L 557.336517 71.685989 
L 570.495765 390.766131 
L 596.814263 300.031033 
L 609.973512 392.162016 
L 623.13276 289.249316 
L 636.292009 255.226785 
L 649.451258 430.120537 
L 675.769755 70.443245 
L 688.929004 410.373119 
L 702.088253 287.904562 
" clip-path="url(#p2d2b78ad98)" style="fill: none; stroke: #ff7f0e; stroke-width: 2; stroke-linecap: square"/>
    <defs>
     <path id="m8e44c73234" d="M 0 3 
C 0.795609 3 1.55874 2.683901 2.12132 2.12132 
C 2.683901 1.55874 3 0.795609 3 0 
C 3 -0.795609 2.683901 -1.55874 2.12132 -2.12132 
C 1.55874 -2.683901 0.795609 -3 0 -3 
C -0.795609 -3 -1.55874 -2.683901 -2.12132 -2.12132 
C -2.683901 -1.55874 -3 -0.795609 -3 0 
C -3 0.795609 -2.683901 1.55874 -2.12132 2.12132 
C -1.55874 2.683901 -0.795609 3 0 3 
z
" style="stroke: #ff7f0e"/>
    </defs>
    <g clip-path="url(#p2d2b78ad98)">
     <use xlink:href="#m8e44c73234" x="109.92206" y="287.904562" style="fill: #ff7f0e; stroke: #ff7f0e"/>
     <use xlink:href="#m8e44c73234" x="123.081308" y="268.772299" style="fill: #ff7f0e; stroke: #ff7f0e"/>
     <use xlink:href="#m8e44c73234" x="136.240557" y="279.849776" style="fill: #ff7f0e; stroke: #ff7f0e"/>
     <use xlink:href="#m8e44c73234" x="149.399806" y="110.491533" style="fill: #ff7f0e; stroke: #ff7f0e"/>
     <use xlink:href="#m8e44c73234" x="162.559055" y="249.056705" style="fill: #ff7f0e; stroke: #ff7f0e"/>
     <use xlink:href="#m8e44c73234" x="175.718303" y="408.967986" style="fill: #ff7f0e; stroke: #ff7f0e"/>
     <use xlink:href="#m8e44c73234" x="188.877552" y="439.517676" style="fill: #ff7f0e; stroke: #ff7f0e"/>
     <use xlink:href="#m8e44c73234" x="202.036801" y="249.056705" style="fill: #ff7f0e; stroke: #ff7f0e"/>
     <use xlink:href="#m8e44c73234" x="215.19605" y="273.844596" style="fill: #ff7f0e; stroke: #ff7f0e"/>
     <use xlink:href="#m8e44c73234" x="228.355298" y="66.718372" style="fill: #ff7f0e; stroke: #ff7f0e"/>
     <use xlink:href="#m8e44c73234" x="241.514547" y="46.813736" style="fill: #ff7f0e; stroke: #ff7f0e"/>
     <use xlink:href="#m8e44c73234" x="254.673796" y="417.409543" style="fill: #ff7f0e; stroke: #ff7f0e"/>
     <use xlink:href="#m8e44c73234" x="267.833045" y="89.018384" style="fill: #ff7f0e; stroke: #ff7f0e"/>
     <use xlink:href="#m8e44c73234" x="280.992293" y="302.733063" style="fill: #ff7f0e; stroke: #ff7f0e"/>
     <use xlink:href="#m8e44c73234" x="294.151542" y="410.373119" style="fill: #ff7f0e; stroke: #ff7f0e"/>
     <use xlink:href="#m8e44c73234" x="307.310791" y="430.628028" style="fill: #ff7f0e; stroke: #ff7f0e"/>
     <use xlink:href="#m8e44c73234" x="333.629288" y="92.773527" style="fill: #ff7f0e; stroke: #ff7f0e"/>
     <use xlink:href="#m8e44c73234" x="346.788537" y="443.032623" style="fill: #ff7f0e; stroke: #ff7f0e"/>
     <use xlink:href="#m8e44c73234" x="359.947786" y="95.405174" style="fill: #ff7f0e; stroke: #ff7f0e"/>
     <use xlink:href="#m8e44c73234" x="373.107034" y="259.815166" style="fill: #ff7f0e; stroke: #ff7f0e"/>
     <use xlink:href="#m8e44c73234" x="386.266283" y="428.705307" style="fill: #ff7f0e; stroke: #ff7f0e"/>
     <use xlink:href="#m8e44c73234" x="399.425532" y="294.634905" style="fill: #ff7f0e; stroke: #ff7f0e"/>
     <use xlink:href="#m8e44c73234" x="412.584781" y="416.000821" style="fill: #ff7f0e; stroke: #ff7f0e"/>
     <use xlink:href="#m8e44c73234" x="425.744029" y="453.006308" style="fill: #ff7f0e; stroke: #ff7f0e"/>
     <use xlink:href="#m8e44c73234" x="438.903278" y="254.364278" style="fill: #ff7f0e; stroke: #ff7f0e"/>
     <use xlink:href="#m8e44c73234" x="452.062527" y="281.190608" style="fill: #ff7f0e; stroke: #ff7f0e"/>
     <use xlink:href="#m8e44c73234" x="478.381024" y="250.543933" style="fill: #ff7f0e; stroke: #ff7f0e"/>
     <use xlink:href="#m8e44c73234" x="491.540273" y="447.302643" style="fill: #ff7f0e; stroke: #ff7f0e"/>
     <use xlink:href="#m8e44c73234" x="504.699522" y="97.913841" style="fill: #ff7f0e; stroke: #ff7f0e"/>
     <use xlink:href="#m8e44c73234" x="517.858771" y="79.154237" style="fill: #ff7f0e; stroke: #ff7f0e"/>
     <use xlink:href="#m8e44c73234" x="531.018019" y="265.010176" style="fill: #ff7f0e; stroke: #ff7f0e"/>
     <use xlink:href="#m8e44c73234" x="544.177268" y="427.290803" style="fill: #ff7f0e; stroke: #ff7f0e"/>
     <use xlink:href="#m8e44c73234" x="557.336517" y="71.685989" style="fill: #ff7f0e; stroke: #ff7f0e"/>
     <use xlink:href="#m8e44c73234" x="570.495765" y="390.766131" style="fill: #ff7f0e; stroke: #ff7f0e"/>
     <use xlink:href="#m8e44c73234" x="596.814263" y="300.031033" style="fill: #ff7f0e; stroke: #ff7f0e"/>
     <use xlink:href="#m8e44c73234" x="609.973512" y="392.162016" style="fill: #ff7f0e; stroke: #ff7f0e"/>
     <use xlink:href="#m8e44c73234" x="623.13276" y="289.249316" style="fill: #ff7f0e; stroke: #ff7f0e"/>
     <use xlink:href="#m8e44c73234" x="636.292009" y="255.226785" style="fill: #ff7f0e; stroke: #ff7f0e"/>
     <use xlink:href="#m8e44c73234" x="649.451258" y="430.120537" style="fill: #ff7f0e; stroke: #ff7f0e"/>
     <use xlink:href="#m8e44c73234" x="675.769755" y="70.443245" style="fill: #ff7f0e; stroke: #ff7f0e"/>
     <use xlink:href="#m8e44c73234" x="688.929004" y="410.373119" style="fill: #ff7f0e; stroke: #ff7f0e"/>
     <use xlink:href="#m8e44c73234" x="702.088253" y="287.904562" style="fill: #ff7f0e; stroke: #ff7f0e"/>
    </g>
   </g>
   <g id="patch_3">
    <path d="M 80.31375 529.308125 
L 80.31375 23.837812 
" style="fill: none; stroke: #000000; stroke-width: 0.8; stroke-linejoin: miter; stroke-linecap: square"/>
   </g>
   <g id="patch_4">
    <path d="M 731.696562 529.308125 
L 731.696562 23.837812 
" style="fill: none; stroke: #000000; stroke-width: 0.8; stroke-linejoin: miter; stroke-linecap: square"/>
   </g>
   <g id="patch_5">
    <path d="M 80.31375 529.308125 
L 731.696563 529.308125 
" style="fill: none; stroke: #000000; stroke-width: 0.8; stroke-linejoin: miter; stroke-linecap: square"/>
   </g>
   <g id="patch_6">
    <path d="M 80.31375 23.837812 
L 731.696563 23.837812 
" style="fill: none; stroke: #000000; stroke-width: 0.8; stroke-linejoin: miter; stroke-linecap: square"/>
   </g>
   <g id="text_16">
    <text style="font: 700 14px 'DejaVu Sans', 'Bitstream Vera Sans', 'Computer Modern Sans Serif', 'Lucida Grande', 'Verdana', 'Geneva', 'Lucid', 'Arial', 'Helvetica', 'Avant Garde', sans-serif; text-anchor: middle" x="406.005156" y="17.837813" transform="rotate(-0 406.005156 17.837813)">Coalescing Arena Alloc Dealloc - Performance Trend</text>
   </g>
   <g id="legend_1">
    <g id="patch_7">
     <path d="M 771.265703 61.194063 
L 846.689141 61.194063 
Q 848.689141 61.194063 848.689141 59.194063 
L 848.689141 30.837813 
Q 848.689141 28.837813 846.689141 28.837813 
L 771.265703 28.837813 
Q 769.265703 28.837813 769.265703 30.837813 
L 769.265703 59.194063 
Q 769.265703 61.194063 771.265703 61.194063 
z
" style="fill: #ffffff; opacity: 0.8; stroke: #cccccc; stroke-linejoin: miter"/>
    </g>
    <g id="line2d_21">
     <path d="M 773.265703 36.93625 
L 783.265703 36.93625 
L 793.265703 36.93625 
" style="fill: none; stroke: #1f77b4; stroke-width: 2; stroke-linecap: square"/>
     <g>
      <use xlink:href="#mc5d7a7f26d" x="783.265703" y="36.93625" style="fill: #1f77b4; stroke: #1f77b4"/>
     </g>
    </g>
    <g id="text_17">
     <text style="font: 10px 'DejaVu Sans', 'Bitstream Vera Sans', 'Computer Modern Sans Serif', 'Lucida Grande', 'Verdana', 'Geneva', 'Lucid', 'Arial', 'Helvetica', 'Avant Garde', sans-serif; text-anchor: start" x="801.265703" y="40.43625" transform="rotate(-0 801.265703 40.43625)">clang-18</text>
    </g>
    <g id="line2d_22">
     <path d="M 773.265703 51.614375 
L 783.265703 51.614375 
L 793.265703 51.614375 
" style="fill: none; stroke: #ff7f0e; stroke-width: 2; stroke-linecap: square"/>
     <g>
      <use xlink:href="#m8e44c73234" x="783.265703" y="51.614375" style="fill: #ff7f0e; stroke: #ff7f0e"/>
     </g>
    </g>
    <g id="text_18">
     <text style="font: 10px 'DejaVu Sans', 'Bitstream Vera Sans', 'Computer Modern Sans Serif', 'Lucida Grande', 'Verdana', 'Geneva', 'Lucid', 'Arial', 'Helvetica', 'Avant Garde', sans-serif; text-anchor: start" x="801.265703" y="55.114375" transform="rotate(-0 801.265703 55.114375)">gcc-14</text>
    </g>
   </g>
  </g>
 </g>
 <defs>
  <clipPath id="p2d2b78ad98">
   <rect x="80.31375" y="23.837813" width="651.382812" height="505.470313"/>
  </clipPath>
 </defs>
</svg>
