<?xml version="1.0" encoding="utf-8" standalone="no"?>
<!DOCTYPE svg PUBLIC "-//W3C//DTD SVG 1.1//EN"
  "http://www.w3.org/Graphics/SVG/1.1/DTD/svg11.dtd">
<svg xmlns:xlink="http://www.w3.org/1999/xlink" width="855.536016pt" height="568.8pt" viewBox="0 0 855.536016 568.8" xmlns="http://www.w3.org/2000/svg" version="1.1">
 <metadata>
  <rdf:RDF xmlns:dc="http://purl.org/dc/elements/1.1/" xmlns:cc="http://creativecommons.org/ns#" xmlns:rdf="http://www.w3.org/1999/02/22-rdf-syntax-ns#">
   <cc:Work>
    <dc:type rdf:resource="http://purl.org/dc/dcmitype/StillImage"/>
    <dc:date>2026-06-12T09:33:21.321424</dc:date>
    <dc:format>image/svg+xml</dc:format>
    <dc:creator>
     <cc:Agent>
      <dc:title>Matplotlib v3.9.4, https://matplotlib.org/</dc:title>
     </cc:Agent>
    </dc:creator>
   </cc:Work>
  </rdf:RDF>
 </metadata>
 <defs>
  <style type="text/css">*{stroke-linejoin: round; stroke-linecap: butt}</style>
 </defs>
 <g id="figure_1">
  <g id="patch_1">
   <path d="M 0 568.8 
L 855.536016 568.8 
L 855.536016 0 
L 0 0 
z
" style="fill: #ffffff"/>
  </g>
  <g id="axes_1">
   <g id="patch_2">
    <path d="M 64.41375 529.308125 
L 708.734063 529.308125 
L 708.734063 23.837812 
L 64.41375 23.837812 
z
" style="fill: #ffffff"/>
   </g>
   <g id="matplotlib.axis_1">
    <g id="xtick_1">
     <g id="line2d_1">
      <path d="M 83.773143 529.308125 
L 83.773143 23.837812 
" clip-path="url(#p402dcff09c)" style="fill: none; stroke: #b0b0b0; stroke-opacity: 0.3; stroke-width: 0.8; stroke-linecap: square"/>
     </g>
     <g id="line2d_2">
      <defs>
       <path id="mcdb29be6ee" d="M 0 0 
L 0 3.5 
" style="stroke: #000000; stroke-width: 0.8"/>
      </defs>
      <g>
       <use xlink:href="#mcdb29be6ee" x="83.773143" y="529.308125" style="stroke: #000000; stroke-width: 0.8"/>
      </g>
     </g>
     <g id="text_1">
      <text style="font: 10px 'DejaVu Sans', 'Bitstream Vera Sans', 'Computer Modern Sans Serif', 'Lucida Grande', 'Verdana', 'Geneva', 'Lucid', 'Arial', 'Helvetica', 'Avant Garde', sans-serif; text-anchor: middle" x="83.773143" y="543.906563" transform="rotate(-0 83.773143 543.906563)">70</text>
     </g>
    </g>
    <g id="xtick_2">
     <g id="line2d_3">
      <path d="M 183.052082 529.308125 
L 183.052082 23.837812 
" clip-path="url(#p402dcff09c)" style="fill: none; stroke: #b0b0b0; stroke-opacity: 0.3; stroke-width: 0.8; stroke-linecap: square"/>
     </g>
     <g id="line2d_4">
      <g>
       <use xlink:href="#mcdb29be6ee" x="183.052082" y="529.308125" style="stroke: #000000; stroke-width: 0.8"/>
      </g>
     </g>
     <g id="text_2">
      <text style="font: 10px 'DejaVu Sans', 'Bitstream Vera Sans', 'Computer Modern Sans Serif', 'Lucida Grande', 'Verdana', 'Geneva', 'Lucid', 'Arial', 'Helvetica', 'Avant Garde', sans-serif; text-anchor: middle" x="183.052082" y="543.906563" transform="rotate(-0 183.052082 543.906563)">80</text>
     </g>
    </g>
    <g id="xtick_3">
     <g id="line2d_5">
      <path d="M 282.331021 529.308125 
L 282.331021 23.837812 
" clip-path="url(#p402dcff09c)" style="fill: none; stroke: #b0b0b0; stroke-opacity: 0.3; stroke-width: 0.8; stroke-linecap: square"/>
     </g>
     <g id="line2d_6">
      <g>
       <use xlink:href="#mcdb29be6ee" x="282.331021" y="529.308125" style="stroke: #000000; stroke-width: 0.8"/>
      </g>
     </g>
     <g id="text_3">
      <text style="font: 10px 'DejaVu Sans', 'Bitstream Vera Sans', 'Computer Modern Sans Serif', 'Lucida Grande', 'Verdana', 'Geneva', 'Lucid', 'Arial', 'Helvetica', 'Avant Garde', sans-serif; text-anchor: middle" x="282.331021" y="543.906563" transform="rotate(-0 282.331021 543.906563)">90</text>
     </g>
    </g>
    <g id="xtick_4">
     <g id="line2d_7">
      <path d="M 381.609959 529.308125 
L 381.609959 23.837812 
" clip-path="url(#p402dcff09c)" style="fill: none; stroke: #b0b0b0; stroke-opacity: 0.3; stroke-width: 0.8; stroke-linecap: square"/>
     </g>
     <g id="line2d_8">
      <g>
       <use xlink:href="#mcdb29be6ee" x="381.609959" y="529.308125" style="stroke: #000000; stroke-width: 0.8"/>
      </g>
     </g>
     <g id="text_4">
      <text style="font: 10px 'DejaVu Sans', 'Bitstream Vera Sans', 'Computer Modern Sans Serif', 'Lucida Grande', 'Verdana', 'Geneva', 'Lucid', 'Arial', 'Helvetica', 'Avant Garde', sans-serif; text-anchor: middle" x="381.609959" y="543.906563" transform="rotate(-0 381.609959 543.906563)">100</text>
     </g>
    </g>
    <g id="xtick_5">
     <g id="line2d_9">
      <path d="M 480.888898 529.308125 
L 480.888898 23.837812 
" clip-path="url(#p402dcff09c)" style="fill: none; stroke: #b0b0b0; stroke-opacity: 0.3; stroke-width: 0.8; stroke-linecap: square"/>
     </g>
     <g id="line2d_10">
      <g>
       <use xlink:href="#mcdb29be6ee" x="480.888898" y="529.308125" style="stroke: #000000; stroke-width: 0.8"/>
      </g>
     </g>
     <g id="text_5">
      <text style="font: 10px 'DejaVu Sans', 'Bitstream Vera Sans', 'Computer Modern Sans Serif', 'Lucida Grande', 'Verdana', 'Geneva', 'Lucid', 'Arial', 'Helvetica', 'Avant Garde', sans-serif; text-anchor: middle" x="480.888898" y="543.906563" transform="rotate(-0 480.888898 543.906563)">110</text>
     </g>
    </g>
    <g id="xtick_6">
     <g id="line2d_11">
      <path d="M 580.167837 529.308125 
L 580.167837 23.837812 
" clip-path="url(#p402dcff09c)" style="fill: none; stroke: #b0b0b0; stroke-opacity: 0.3; stroke-width: 0.8; stroke-linecap: square"/>
     </g>
     <g id="line2d_12">
      <g>
       <use xlink:href="#mcdb29be6ee" x="580.167837" y="529.308125" style="stroke: #000000; stroke-width: 0.8"/>
      </g>
     </g>
     <g id="text_6">
      <text style="font: 10px 'DejaVu Sans', 'Bitstream Vera Sans', 'Computer Modern Sans Serif', 'Lucida Grande', 'Verdana', 'Geneva', 'Lucid', 'Arial', 'Helvetica', 'Avant Garde', sans-serif; text-anchor: middle" x="580.167837" y="543.906563" transform="rotate(-0 580.167837 543.906563)">120</text>
     </g>
    </g>
    <g id="xtick_7">
     <g id="line2d_13">
      <path d="M 679.446776 529.308125 
L 679.446776 23.837812 
" clip-path="url(#p402dcff09c)" style="fill: none; stroke: #b0b0b0; stroke-opacity: 0.3; stroke-width: 0.8; stroke-linecap: square"/>
     </g>
     <g id="line2d_14">
      <g>
       <use xlink:href="#mcdb29be6ee" x="679.446776" y="529.308125" style="stroke: #000000; stroke-width: 0.8"/>
      </g>
     </g>
     <g id="text_7">
      <text style="font: 10px 'DejaVu Sans', 'Bitstream Vera Sans', 'Computer Modern Sans Serif', 'Lucida Grande', 'Verdana', 'Geneva', 'Lucid', 'Arial', 'Helvetica', 'Avant Garde', sans-serif; text-anchor: middle" x="679.446776" y="543.906563" transform="rotate(-0 679.446776 543.906563)">130</text>
     </g>
    </g>
    <g id="text_8">
     <text style="font: 12px 'DejaVu Sans', 'Bitstream Vera Sans', 'Computer Modern Sans Serif', 'Lucida Grande', 'Verdana', 'Geneva', 'Lucid', 'Arial', 'Helvetica', 'Avant Garde', sans-serif; text-anchor: middle" x="386.573906" y="559.104375" transform="rotate(-0 386.573906 559.104375)">Build Number</text>
    </g>
   </g>
   <g id="matplotlib.axis_2">
    <g id="ytick_1">
     <g id="line2d_15">
      <path d="M 64.41375 331.639082 
L 708.734063 331.639082 
" clip-path="url(#p402dcff09c)" style="fill: none; stroke: #b0b0b0; stroke-opacity: 0.3; stroke-width: 0.8; stroke-linecap: square"/>
     </g>
     <g id="line2d_16">
      <defs>
       <path id="mba99e6ab5f" d="M 0 0 
L -3.5 0 
" style="stroke: #000000; stroke-width: 0.8"/>
      </defs>
      <g>
       <use xlink:href="#mba99e6ab5f" x="64.41375" y="331.639082" style="stroke: #000000; stroke-width: 0.8"/>
      </g>
     </g>
     <g id="text_9">
      <!-- $\mathdefault{10^{5}}$ -->
      <g transform="translate(39.81375 335.4383)">
       <text>
        <tspan style="font: 10px 'DejaVu Sans'" x="0 6.362305" y="-0.06406250000000036">10</tspan>
        <tspan style="font: 7px 'DejaVu Sans'" x="12.820312" y="-3.8921875000000004">5</tspan>
       </text>
      </g>
     </g>
    </g>
    <g id="ytick_2">
     <g id="line2d_17">
      <defs>
       <path id="m3247819add" d="M 0 0 
L -2 0 
" style="stroke: #000000; stroke-width: 0.6"/>
      </defs>
      <g>
       <use xlink:href="#m3247819add" x="64.41375" y="501.475469" style="stroke: #000000; stroke-width: 0.6"/>
      </g>
     </g>
     <g id="text_10">
      <!-- $\mathdefault{6\times10^{4}}$ -->
      <g transform="translate(22.81375 505.274688)">
       <text>
        <tspan style="font: 10px 'DejaVu Sans'" x="0 8.310547 18.637695 25" y="-0.06406250000000036">6×10</tspan>
        <tspan style="font: 7px 'DejaVu Sans'" x="31.458008" y="-3.8921875000000004">4</tspan>
       </text>
      </g>
     </g>
    </g>
    <g id="ytick_3">
     <g id="line2d_18">
      <g>
       <use xlink:href="#m3247819add" x="64.41375" y="450.224331" style="stroke: #000000; stroke-width: 0.6"/>
      </g>
     </g>
    </g>
    <g id="ytick_4">
     <g id="line2d_19">
      <g>
       <use xlink:href="#m3247819add" x="64.41375" y="405.828576" style="stroke: #000000; stroke-width: 0.6"/>
      </g>
     </g>
    </g>
    <g id="ytick_5">
     <g id="line2d_20">
      <g>
       <use xlink:href="#m3247819add" x="64.41375" y="366.668744" style="stroke: #000000; stroke-width: 0.6"/>
      </g>
     </g>
    </g>
    <g id="ytick_6">
     <g id="line2d_21">
      <g>
       <use xlink:href="#m3247819add" x="64.41375" y="101.185463" style="stroke: #000000; stroke-width: 0.6"/>
      </g>
     </g>
     <g id="text_11">
      <!-- $\mathdefault{2\times10^{5}}$ -->
      <g transform="translate(22.81375 104.984682)">
       <text>
        <tspan style="font: 10px 'DejaVu Sans'" x="0 8.310547 18.637695 25" y="-0.06406250000000036">2×10</tspan>
        <tspan style="font: 7px 'DejaVu Sans'" x="31.458008" y="-3.8921875000000004">5</tspan>
       </text>
      </g>
     </g>
    </g>
    <g id="text_12">
     <text style="font: 12px 'DejaVu Sans', 'Bitstream Vera Sans', 'Computer Modern Sans Serif', 'Lucida Grande', 'Verdana', 'Geneva', 'Lucid', 'Arial', 'Helvetica', 'Avant Garde', sans-serif; text-anchor: middle" x="16.318125" y="276.572969" transform="rotate(-90 16.318125 276.572969)">Median Elapsed Time (nanoseconds)</text>
    </g>
   </g>
   <g id="line2d_22">
    <path d="M 93.701037 46.813736 
L 103.628931 190.654228 
L 113.556825 202.136776 
L 123.484719 225.277189 
L 133.412612 247.425072 
L 143.340506 196.173602 
L 153.2684 215.939026 
L 163.196294 214.884044 
L 173.124188 211.877229 
L 183.052082 196.235768 
L 192.979976 253.139783 
L 202.90787 180.577108 
L 212.835763 48.530405 
L 222.763657 154.181565 
L 232.691551 253.134795 
L 242.619445 278.042791 
L 262.475233 248.604003 
L 272.403127 241.866822 
L 282.331021 241.475185 
L 292.258914 281.396203 
L 302.186808 281.391058 
L 312.114702 242.27671 
L 322.042596 243.649978 
L 331.97049 281.411353 
L 341.898384 242.206836 
L 351.826278 250.25245 
L 371.682065 107.184399 
L 381.609959 248.060813 
L 391.537853 47.119624 
L 401.465747 281.085065 
L 411.393641 235.331388 
L 421.321535 282.268884 
L 431.249429 241.470115 
L 441.177323 240.155071 
L 461.03311 281.376766 
L 470.961004 280.555743 
L 480.888898 241.647611 
L 490.816792 280.767085 
L 500.744686 243.164497 
L 520.600474 277.392302 
L 530.528367 241.322611 
L 540.456261 280.204658 
L 550.384155 264.852479 
L 560.312049 240.424559 
L 570.239943 280.903203 
L 580.167837 280.921755 
L 590.095731 282.297545 
L 600.023625 229.081633 
L 609.951518 272.231485 
L 619.879412 196.392673 
L 639.7352 275.239607 
L 649.663094 238.873307 
L 659.590988 230.875912 
L 669.518882 203.407457 
" clip-path="url(#p402dcff09c)" style="fill: none; stroke: #1f77b4; stroke-width: 2; stroke-linecap: square"/>
    <defs>
     <path id="maaf5e2db36" d="M 0 3 
C 0.795609 3 1.55874 2.683901 2.12132 2.12132 
C 2.683901 1.55874 3 0.795609 3 0 
C 3 -0.795609 2.683901 -1.55874 2.12132 -2.12132 
C 1.55874 -2.683901 0.795609 -3 0 -3 
C -0.795609 -3 -1.55874 -2.683901 -2.12132 -2.12132 
C -2.683901 -1.55874 -3 -0.795609 -3 0 
C -3 0.795609 -2.683901 1.55874 -2.12132 2.12132 
C -1.55874 2.683901 -0.795609 3 0 3 
z
" style="stroke: #1f77b4"/>
    </defs>
    <g clip-path="url(#p402dcff09c)">
     <use xlink:href="#maaf5e2db36" x="93.701037" y="46.813736" style="fill: #1f77b4; stroke: #1f77b4"/>
     <use xlink:href="#maaf5e2db36" x="103.628931" y="190.654228" style="fill: #1f77b4; stroke: #1f77b4"/>
     <use xlink:href="#maaf5e2db36" x="113.556825" y="202.136776" style="fill: #1f77b4; stroke: #1f77b4"/>
     <use xlink:href="#maaf5e2db36" x="123.484719" y="225.277189" style="fill: #1f77b4; stroke: #1f77b4"/>
     <use xlink:href="#maaf5e2db36" x="133.412612" y="247.425072" style="fill: #1f77b4; stroke: #1f77b4"/>
     <use xlink:href="#maaf5e2db36" x="143.340506" y="196.173602" style="fill: #1f77b4; stroke: #1f77b4"/>
     <use xlink:href="#maaf5e2db36" x="153.2684" y="215.939026" style="fill: #1f77b4; stroke: #1f77b4"/>
     <use xlink:href="#maaf5e2db36" x="163.196294" y="214.884044" style="fill: #1f77b4; stroke: #1f77b4"/>
     <use xlink:href="#maaf5e2db36" x="173.124188" y="211.877229" style="fill: #1f77b4; stroke: #1f77b4"/>
     <use xlink:href="#maaf5e2db36" x="183.052082" y="196.235768" style="fill: #1f77b4; stroke: #1f77b4"/>
     <use xlink:href="#maaf5e2db36" x="192.979976" y="253.139783" style="fill: #1f77b4; stroke: #1f77b4"/>
     <use xlink:href="#maaf5e2db36" x="202.90787" y="180.577108" style="fill: #1f77b4; stroke: #1f77b4"/>
     <use xlink:href="#maaf5e2db36" x="212.835763" y="48.530405" style="fill: #1f77b4; stroke: #1f77b4"/>
     <use xlink:href="#maaf5e2db36" x="222.763657" y="154.181565" style="fill: #1f77b4; stroke: #1f77b4"/>
     <use xlink:href="#maaf5e2db36" x="232.691551" y="253.134795" style="fill: #1f77b4; stroke: #1f77b4"/>
     <use xlink:href="#maaf5e2db36" x="242.619445" y="278.042791" style="fill: #1f77b4; stroke: #1f77b4"/>
     <use xlink:href="#maaf5e2db36" x="262.475233" y="248.604003" style="fill: #1f77b4; stroke: #1f77b4"/>
     <use xlink:href="#maaf5e2db36" x="272.403127" y="241.866822" style="fill: #1f77b4; stroke: #1f77b4"/>
     <use xlink:href="#maaf5e2db36" x="282.331021" y="241.475185" style="fill: #1f77b4; stroke: #1f77b4"/>
     <use xlink:href="#maaf5e2db36" x="292.258914" y="281.396203" style="fill: #1f77b4; stroke: #1f77b4"/>
     <use xlink:href="#maaf5e2db36" x="302.186808" y="281.391058" style="fill: #1f77b4; stroke: #1f77b4"/>
     <use xlink:href="#maaf5e2db36" x="312.114702" y="242.27671" style="fill: #1f77b4; stroke: #1f77b4"/>
     <use xlink:href="#maaf5e2db36" x="322.042596" y="243.649978" style="fill: #1f77b4; stroke: #1f77b4"/>
     <use xlink:href="#maaf5e2db36" x="331.97049" y="281.411353" style="fill: #1f77b4; stroke: #1f77b4"/>
     <use xlink:href="#maaf5e2db36" x="341.898384" y="242.206836" style="fill: #1f77b4; stroke: #1f77b4"/>
     <use xlink:href="#maaf5e2db36" x="351.826278" y="250.25245" style="fill: #1f77b4; stroke: #1f77b4"/>
     <use xlink:href="#maaf5e2db36" x="371.682065" y="107.184399" style="fill: #1f77b4; stroke: #1f77b4"/>
     <use xlink:href="#maaf5e2db36" x="381.609959" y="248.060813" style="fill: #1f77b4; stroke: #1f77b4"/>
     <use xlink:href="#maaf5e2db36" x="391.537853" y="47.119624" style="fill: #1f77b4; stroke: #1f77b4"/>
     <use xlink:href="#maaf5e2db36" x="401.465747" y="281.085065" style="fill: #1f77b4; stroke: #1f77b4"/>
     <use xlink:href="#maaf5e2db36" x="411.393641" y="235.331388" style="fill: #1f77b4; stroke: #1f77b4"/>
     <use xlink:href="#maaf5e2db36" x="421.321535" y="282.268884" style="fill: #1f77b4; stroke: #1f77b4"/>
     <use xlink:href="#maaf5e2db36" x="431.249429" y="241.470115" style="fill: #1f77b4; stroke: #1f77b4"/>
     <use xlink:href="#maaf5e2db36" x="441.177323" y="240.155071" style="fill: #1f77b4; stroke: #1f77b4"/>
     <use xlink:href="#maaf5e2db36" x="461.03311" y="281.376766" style="fill: #1f77b4; stroke: #1f77b4"/>
     <use xlink:href="#maaf5e2db36" x="470.961004" y="280.555743" style="fill: #1f77b4; stroke: #1f77b4"/>
     <use xlink:href="#maaf5e2db36" x="480.888898" y="241.647611" style="fill: #1f77b4; stroke: #1f77b4"/>
     <use xlink:href="#maaf5e2db36" x="490.816792" y="280.767085" style="fill: #1f77b4; stroke: #1f77b4"/>
     <use xlink:href="#maaf5e2db36" x="500.744686" y="243.164497" style="fill: #1f77b4; stroke: #1f77b4"/>
     <use xlink:href="#maaf5e2db36" x="520.600474" y="277.392302" style="fill: #1f77b4; stroke: #1f77b4"/>
     <use xlink:href="#maaf5e2db36" x="530.528367" y="241.322611" style="fill: #1f77b4; stroke: #1f77b4"/>
     <use xlink:href="#maaf5e2db36" x="540.456261" y="280.204658" style="fill: #1f77b4; stroke: #1f77b4"/>
     <use xlink:href="#maaf5e2db36" x="550.384155" y="264.852479" style="fill: #1f77b4; stroke: #1f77b4"/>
     <use xlink:href="#maaf5e2db36" x="560.312049" y="240.424559" style="fill: #1f77b4; stroke: #1f77b4"/>
     <use xlink:href="#maaf5e2db36" x="570.239943" y="280.903203" style="fill: #1f77b4; stroke: #1f77b4"/>
     <use xlink:href="#maaf5e2db36" x="580.167837" y="280.921755" style="fill: #1f77b4; stroke: #1f77b4"/>
     <use xlink:href="#maaf5e2db36" x="590.095731" y="282.297545" style="fill: #1f77b4; stroke: #1f77b4"/>
     <use xlink:href="#maaf5e2db36" x="600.023625" y="229.081633" style="fill: #1f77b4; stroke: #1f77b4"/>
     <use xlink:href="#maaf5e2db36" x="609.951518" y="272.231485" style="fill: #1f77b4; stroke: #1f77b4"/>
     <use xlink:href="#maaf5e2db36" x="619.879412" y="196.392673" style="fill: #1f77b4; stroke: #1f77b4"/>
     <use xlink:href="#maaf5e2db36" x="639.7352" y="275.239607" style="fill: #1f77b4; stroke: #1f77b4"/>
     <use xlink:href="#maaf5e2db36" x="649.663094" y="238.873307" style="fill: #1f77b4; stroke: #1f77b4"/>
     <use xlink:href="#maaf5e2db36" x="659.590988" y="230.875912" style="fill: #1f77b4; stroke: #1f77b4"/>
     <use xlink:href="#maaf5e2db36" x="669.518882" y="203.407457" style="fill: #1f77b4; stroke: #1f77b4"/>
    </g>
   </g>
   <g id="line2d_23">
    <path d="M 93.701037 239.172254 
L 103.628931 242.045419 
L 113.556825 242.269849 
L 123.484719 244.263708 
L 133.412612 237.485771 
L 143.340506 242.744099 
L 153.2684 237.730328 
L 163.196294 245.893034 
L 173.124188 239.30061 
L 183.052082 245.687327 
L 192.979976 240.344968 
L 202.90787 243.450753 
L 212.835763 247.049521 
L 222.763657 242.901909 
L 232.691551 247.581247 
L 242.619445 237.390603 
L 262.475233 242.288907 
L 272.403127 239.730101 
L 282.331021 242.620449 
L 292.258914 245.56354 
L 302.186808 238.085205 
L 312.114702 235.343084 
L 322.042596 235.845682 
L 331.97049 233.903757 
L 341.898384 278.456899 
L 351.826278 245.660884 
L 371.682065 277.607497 
L 381.609959 279.494504 
L 391.537853 278.551686 
L 401.465747 277.970011 
L 411.393641 276.925504 
L 421.321535 278.483108 
L 431.249429 277.395409 
L 441.177323 277.655341 
L 461.03311 276.385864 
L 470.961004 279.178609 
L 480.888898 275.482133 
L 490.816792 275.520886 
L 500.744686 275.754343 
L 520.600474 275.468093 
L 530.528367 272.987865 
L 540.456261 277.065489 
L 550.384155 276.834141 
L 560.312049 277.981108 
L 570.239943 276.11398 
L 580.167837 277.799521 
L 590.095731 278.147508 
L 600.023625 227.589831 
L 609.951518 271.43271 
L 619.879412 276.800228 
L 639.7352 271.75653 
L 649.663094 273.540439 
L 659.590988 242.055704 
L 669.518882 222.881506 
" clip-path="url(#p402dcff09c)" style="fill: none; stroke: #ff7f0e; stroke-width: 2; stroke-linecap: square"/>
    <defs>
     <path id="m6812a14104" d="M 0 3 
C 0.795609 3 1.55874 2.683901 2.12132 2.12132 
C 2.683901 1.55874 3 0.795609 3 0 
C 3 -0.795609 2.683901 -1.55874 2.12132 -2.12132 
C 1.55874 -2.683901 0.795609 -3 0 -3 
C -0.795609 -3 -1.55874 -2.683901 -2.12132 -2.12132 
C -2.683901 -1.55874 -3 -0.795609 -3 0 
C -3 0.795609 -2.683901 1.55874 -2.12132 2.12132 
C -1.55874 2.683901 -0.795609 3 0 3 
z
" style="stroke: #ff7f0e"/>
    </defs>
    <g clip-path="url(#p402dcff09c)">
     <use xlink:href="#m6812a14104" x="93.701037" y="239.172254" style="fill: #ff7f0e; stroke: #ff7f0e"/>
     <use xlink:href="#m6812a14104" x="103.628931" y="242.045419" style="fill: #ff7f0e; stroke: #ff7f0e"/>
     <use xlink:href="#m6812a14104" x="113.556825" y="242.269849" style="fill: #ff7f0e; stroke: #ff7f0e"/>
     <use xlink:href="#m6812a14104" x="123.484719" y="244.263708" style="fill: #ff7f0e; stroke: #ff7f0e"/>
     <use xlink:href="#m6812a14104" x="133.412612" y="237.485771" style="fill: #ff7f0e; stroke: #ff7f0e"/>
     <use xlink:href="#m6812a14104" x="143.340506" y="242.744099" style="fill: #ff7f0e; stroke: #ff7f0e"/>
     <use xlink:href="#m6812a14104" x="153.2684" y="237.730328" style="fill: #ff7f0e; stroke: #ff7f0e"/>
     <use xlink:href="#m6812a14104" x="163.196294" y="245.893034" style="fill: #ff7f0e; stroke: #ff7f0e"/>
     <use xlink:href="#m6812a14104" x="173.124188" y="239.30061" style="fill: #ff7f0e; stroke: #ff7f0e"/>
     <use xlink:href="#m6812a14104" x="183.052082" y="245.687327" style="fill: #ff7f0e; stroke: #ff7f0e"/>
     <use xlink:href="#m6812a14104" x="192.979976" y="240.344968" style="fill: #ff7f0e; stroke: #ff7f0e"/>
     <use xlink:href="#m6812a14104" x="202.90787" y="243.450753" style="fill: #ff7f0e; stroke: #ff7f0e"/>
     <use xlink:href="#m6812a14104" x="212.835763" y="247.049521" style="fill: #ff7f0e; stroke: #ff7f0e"/>
     <use xlink:href="#m6812a14104" x="222.763657" y="242.901909" style="fill: #ff7f0e; stroke: #ff7f0e"/>
     <use xlink:href="#m6812a14104" x="232.691551" y="247.581247" style="fill: #ff7f0e; stroke: #ff7f0e"/>
     <use xlink:href="#m6812a14104" x="242.619445" y="237.390603" style="fill: #ff7f0e; stroke: #ff7f0e"/>
     <use xlink:href="#m6812a14104" x="262.475233" y="242.288907" style="fill: #ff7f0e; stroke: #ff7f0e"/>
     <use xlink:href="#m6812a14104" x="272.403127" y="239.730101" style="fill: #ff7f0e; stroke: #ff7f0e"/>
     <use xlink:href="#m6812a14104" x="282.331021" y="242.620449" style="fill: #ff7f0e; stroke: #ff7f0e"/>
     <use xlink:href="#m6812a14104" x="292.258914" y="245.56354" style="fill: #ff7f0e; stroke: #ff7f0e"/>
     <use xlink:href="#m6812a14104" x="302.186808" y="238.085205" style="fill: #ff7f0e; stroke: #ff7f0e"/>
     <use xlink:href="#m6812a14104" x="312.114702" y="235.343084" style="fill: #ff7f0e; stroke: #ff7f0e"/>
     <use xlink:href="#m6812a14104" x="322.042596" y="235.845682" style="fill: #ff7f0e; stroke: #ff7f0e"/>
     <use xlink:href="#m6812a14104" x="331.97049" y="233.903757" style="fill: #ff7f0e; stroke: #ff7f0e"/>
     <use xlink:href="#m6812a14104" x="341.898384" y="278.456899" style="fill: #ff7f0e; stroke: #ff7f0e"/>
     <use xlink:href="#m6812a14104" x="351.826278" y="245.660884" style="fill: #ff7f0e; stroke: #ff7f0e"/>
     <use xlink:href="#m6812a14104" x="371.682065" y="277.607497" style="fill: #ff7f0e; stroke: #ff7f0e"/>
     <use xlink:href="#m6812a14104" x="381.609959" y="279.494504" style="fill: #ff7f0e; stroke: #ff7f0e"/>
     <use xlink:href="#m6812a14104" x="391.537853" y="278.551686" style="fill: #ff7f0e; stroke: #ff7f0e"/>
     <use xlink:href="#m6812a14104" x="401.465747" y="277.970011" style="fill: #ff7f0e; stroke: #ff7f0e"/>
     <use xlink:href="#m6812a14104" x="411.393641" y="276.925504" style="fill: #ff7f0e; stroke: #ff7f0e"/>
     <use xlink:href="#m6812a14104" x="421.321535" y="278.483108" style="fill: #ff7f0e; stroke: #ff7f0e"/>
     <use xlink:href="#m6812a14104" x="431.249429" y="277.395409" style="fill: #ff7f0e; stroke: #ff7f0e"/>
     <use xlink:href="#m6812a14104" x="441.177323" y="277.655341" style="fill: #ff7f0e; stroke: #ff7f0e"/>
     <use xlink:href="#m6812a14104" x="461.03311" y="276.385864" style="fill: #ff7f0e; stroke: #ff7f0e"/>
     <use xlink:href="#m6812a14104" x="470.961004" y="279.178609" style="fill: #ff7f0e; stroke: #ff7f0e"/>
     <use xlink:href="#m6812a14104" x="480.888898" y="275.482133" style="fill: #ff7f0e; stroke: #ff7f0e"/>
     <use xlink:href="#m6812a14104" x="490.816792" y="275.520886" style="fill: #ff7f0e; stroke: #ff7f0e"/>
     <use xlink:href="#m6812a14104" x="500.744686" y="275.754343" style="fill: #ff7f0e; stroke: #ff7f0e"/>
     <use xlink:href="#m6812a14104" x="520.600474" y="275.468093" style="fill: #ff7f0e; stroke: #ff7f0e"/>
     <use xlink:href="#m6812a14104" x="530.528367" y="272.987865" style="fill: #ff7f0e; stroke: #ff7f0e"/>
     <use xlink:href="#m6812a14104" x="540.456261" y="277.065489" style="fill: #ff7f0e; stroke: #ff7f0e"/>
     <use xlink:href="#m6812a14104" x="550.384155" y="276.834141" style="fill: #ff7f0e; stroke: #ff7f0e"/>
     <use xlink:href="#m6812a14104" x="560.312049" y="277.981108" style="fill: #ff7f0e; stroke: #ff7f0e"/>
     <use xlink:href="#m6812a14104" x="570.239943" y="276.11398" style="fill: #ff7f0e; stroke: #ff7f0e"/>
     <use xlink:href="#m6812a14104" x="580.167837" y="277.799521" style="fill: #ff7f0e; stroke: #ff7f0e"/>
     <use xlink:href="#m6812a14104" x="590.095731" y="278.147508" style="fill: #ff7f0e; stroke: #ff7f0e"/>
     <use xlink:href="#m6812a14104" x="600.023625" y="227.589831" style="fill: #ff7f0e; stroke: #ff7f0e"/>
     <use xlink:href="#m6812a14104" x="609.951518" y="271.43271" style="fill: #ff7f0e; stroke: #ff7f0e"/>
     <use xlink:href="#m6812a14104" x="619.879412" y="276.800228" style="fill: #ff7f0e; stroke: #ff7f0e"/>
     <use xlink:href="#m6812a14104" x="639.7352" y="271.75653" style="fill: #ff7f0e; stroke: #ff7f0e"/>
     <use xlink:href="#m6812a14104" x="649.663094" y="273.540439" style="fill: #ff7f0e; stroke: #ff7f0e"/>
     <use xlink:href="#m6812a14104" x="659.590988" y="242.055704" style="fill: #ff7f0e; stroke: #ff7f0e"/>
     <use xlink:href="#m6812a14104" x="669.518882" y="222.881506" style="fill: #ff7f0e; stroke: #ff7f0e"/>
    </g>
   </g>
   <g id="line2d_24">
    <path d="M 93.701037 411.158661 
L 103.628931 493.305818 
L 113.556825 411.576165 
L 123.484719 482.532541 
L 133.412612 484.50861 
L 143.340506 490.833342 
L 153.2684 427.629709 
L 163.196294 257.875693 
L 173.124188 499.945182 
L 183.052082 498.207293 
L 192.979976 444.617905 
L 202.90787 412.55548 
L 212.835763 468.874738 
L 232.691551 486.329147 
L 242.619445 428.983705 
L 262.475233 502.092227 
L 272.403127 257.307053 
L 282.331021 482.182024 
L 292.258914 477.759579 
L 302.186808 497.390728 
L 322.042596 499.108937 
L 331.97049 456.959145 
L 341.898384 455.753021 
L 351.826278 475.873023 
L 371.682065 476.850327 
L 381.609959 496.134971 
L 391.537853 501.654222 
L 401.465747 497.749989 
L 411.393641 483.833725 
L 421.321535 258.407161 
L 431.249429 476.386987 
L 441.177323 499.447478 
L 461.03311 474.56679 
L 470.961004 498.331872 
L 480.888898 474.944665 
L 500.744686 475.476155 
L 530.528367 476.31557 
L 540.456261 262.452612 
L 550.384155 264.290175 
L 560.312049 475.60224 
L 570.239943 476.74379 
L 580.167837 482.918536 
L 590.095731 478.622016 
L 600.023625 497.129741 
L 609.951518 475.482817 
L 619.879412 483.986217 
L 639.7352 473.856178 
L 649.663094 506.332202 
L 659.590988 494.81773 
L 669.518882 408.182495 
L 679.446776 416.717272 
" clip-path="url(#p402dcff09c)" style="fill: none; stroke: #2ca02c; stroke-width: 2; stroke-linecap: square"/>
    <defs>
     <path id="me27e915d17" d="M 0 3 
C 0.795609 3 1.55874 2.683901 2.12132 2.12132 
C 2.683901 1.55874 3 0.795609 3 0 
C 3 -0.795609 2.683901 -1.55874 2.12132 -2.12132 
C 1.55874 -2.683901 0.795609 -3 0 -3 
C -0.795609 -3 -1.55874 -2.683901 -2.12132 -2.12132 
C -2.683901 -1.55874 -3 -0.795609 -3 0 
C -3 0.795609 -2.683901 1.55874 -2.12132 2.12132 
C -1.55874 2.683901 -0.795609 3 0 3 
z
" style="stroke: #2ca02c"/>
    </defs>
    <g clip-path="url(#p402dcff09c)">
     <use xlink:href="#me27e915d17" x="93.701037" y="411.158661" style="fill: #2ca02c; stroke: #2ca02c"/>
     <use xlink:href="#me27e915d17" x="103.628931" y="493.305818" style="fill: #2ca02c; stroke: #2ca02c"/>
     <use xlink:href="#me27e915d17" x="113.556825" y="411.576165" style="fill: #2ca02c; stroke: #2ca02c"/>
     <use xlink:href="#me27e915d17" x="123.484719" y="482.532541" style="fill: #2ca02c; stroke: #2ca02c"/>
     <use xlink:href="#me27e915d17" x="133.412612" y="484.50861" style="fill: #2ca02c; stroke: #2ca02c"/>
     <use xlink:href="#me27e915d17" x="143.340506" y="490.833342" style="fill: #2ca02c; stroke: #2ca02c"/>
     <use xlink:href="#me27e915d17" x="153.2684" y="427.629709" style="fill: #2ca02c; stroke: #2ca02c"/>
     <use xlink:href="#me27e915d17" x="163.196294" y="257.875693" style="fill: #2ca02c; stroke: #2ca02c"/>
     <use xlink:href="#me27e915d17" x="173.124188" y="499.945182" style="fill: #2ca02c; stroke: #2ca02c"/>
     <use xlink:href="#me27e915d17" x="183.052082" y="498.207293" style="fill: #2ca02c; stroke: #2ca02c"/>
     <use xlink:href="#me27e915d17" x="192.979976" y="444.617905" style="fill: #2ca02c; stroke: #2ca02c"/>
     <use xlink:href="#me27e915d17" x="202.90787" y="412.55548" style="fill: #2ca02c; stroke: #2ca02c"/>
     <use xlink:href="#me27e915d17" x="212.835763" y="468.874738" style="fill: #2ca02c; stroke: #2ca02c"/>
     <use xlink:href="#me27e915d17" x="232.691551" y="486.329147" style="fill: #2ca02c; stroke: #2ca02c"/>
     <use xlink:href="#me27e915d17" x="242.619445" y="428.983705" style="fill: #2ca02c; stroke: #2ca02c"/>
     <use xlink:href="#me27e915d17" x="262.475233" y="502.092227" style="fill: #2ca02c; stroke: #2ca02c"/>
     <use xlink:href="#me27e915d17" x="272.403127" y="257.307053" style="fill: #2ca02c; stroke: #2ca02c"/>
     <use xlink:href="#me27e915d17" x="282.331021" y="482.182024" style="fill: #2ca02c; stroke: #2ca02c"/>
     <use xlink:href="#me27e915d17" x="292.258914" y="477.759579" style="fill: #2ca02c; stroke: #2ca02c"/>
     <use xlink:href="#me27e915d17" x="302.186808" y="497.390728" style="fill: #2ca02c; stroke: #2ca02c"/>
     <use xlink:href="#me27e915d17" x="322.042596" y="499.108937" style="fill: #2ca02c; stroke: #2ca02c"/>
     <use xlink:href="#me27e915d17" x="331.97049" y="456.959145" style="fill: #2ca02c; stroke: #2ca02c"/>
     <use xlink:href="#me27e915d17" x="341.898384" y="455.753021" style="fill: #2ca02c; stroke: #2ca02c"/>
     <use xlink:href="#me27e915d17" x="351.826278" y="475.873023" style="fill: #2ca02c; stroke: #2ca02c"/>
     <use xlink:href="#me27e915d17" x="371.682065" y="476.850327" style="fill: #2ca02c; stroke: #2ca02c"/>
     <use xlink:href="#me27e915d17" x="381.609959" y="496.134971" style="fill: #2ca02c; stroke: #2ca02c"/>
     <use xlink:href="#me27e915d17" x="391.537853" y="501.654222" style="fill: #2ca02c; stroke: #2ca02c"/>
     <use xlink:href="#me27e915d17" x="401.465747" y="497.749989" style="fill: #2ca02c; stroke: #2ca02c"/>
     <use xlink:href="#me27e915d17" x="411.393641" y="483.833725" style="fill: #2ca02c; stroke: #2ca02c"/>
     <use xlink:href="#me27e915d17" x="421.321535" y="258.407161" style="fill: #2ca02c; stroke: #2ca02c"/>
     <use xlink:href="#me27e915d17" x="431.249429" y="476.386987" style="fill: #2ca02c; stroke: #2ca02c"/>
     <use xlink:href="#me27e915d17" x="441.177323" y="499.447478" style="fill: #2ca02c; stroke: #2ca02c"/>
     <use xlink:href="#me27e915d17" x="461.03311" y="474.56679" style="fill: #2ca02c; stroke: #2ca02c"/>
     <use xlink:href="#me27e915d17" x="470.961004" y="498.331872" style="fill: #2ca02c; stroke: #2ca02c"/>
     <use xlink:href="#me27e915d17" x="480.888898" y="474.944665" style="fill: #2ca02c; stroke: #2ca02c"/>
     <use xlink:href="#me27e915d17" x="500.744686" y="475.476155" style="fill: #2ca02c; stroke: #2ca02c"/>
     <use xlink:href="#me27e915d17" x="530.528367" y="476.31557" style="fill: #2ca02c; stroke: #2ca02c"/>
     <use xlink:href="#me27e915d17" x="540.456261" y="262.452612" style="fill: #2ca02c; stroke: #2ca02c"/>
     <use xlink:href="#me27e915d17" x="550.384155" y="264.290175" style="fill: #2ca02c; stroke: #2ca02c"/>
     <use xlink:href="#me27e915d17" x="560.312049" y="475.60224" style="fill: #2ca02c; stroke: #2ca02c"/>
     <use xlink:href="#me27e915d17" x="570.239943" y="476.74379" style="fill: #2ca02c; stroke: #2ca02c"/>
     <use xlink:href="#me27e915d17" x="580.167837" y="482.918536" style="fill: #2ca02c; stroke: #2ca02c"/>
     <use xlink:href="#me27e915d17" x="590.095731" y="478.622016" style="fill: #2ca02c; stroke: #2ca02c"/>
     <use xlink:href="#me27e915d17" x="600.023625" y="497.129741" style="fill: #2ca02c; stroke: #2ca02c"/>
     <use xlink:href="#me27e915d17" x="609.951518" y="475.482817" style="fill: #2ca02c; stroke: #2ca02c"/>
     <use xlink:href="#me27e915d17" x="619.879412" y="483.986217" style="fill: #2ca02c; stroke: #2ca02c"/>
     <use xlink:href="#me27e915d17" x="639.7352" y="473.856178" style="fill: #2ca02c; stroke: #2ca02c"/>
     <use xlink:href="#me27e915d17" x="649.663094" y="506.332202" style="fill: #2ca02c; stroke: #2ca02c"/>
     <use xlink:href="#me27e915d17" x="659.590988" y="494.81773" style="fill: #2ca02c; stroke: #2ca02c"/>
     <use xlink:href="#me27e915d17" x="669.518882" y="408.182495" style="fill: #2ca02c; stroke: #2ca02c"/>
     <use xlink:href="#me27e915d17" x="679.446776" y="416.717272" style="fill: #2ca02c; stroke: #2ca02c"/>
    </g>
   </g>
   <g id="line2d_25">
    <path d="M 93.701037 456.054988 
L 103.628931 451.37621 
L 113.556825 455.613485 
L 123.484719 453.490975 
L 133.412612 456.757439 
L 143.340506 463.11651 
L 153.2684 455.010626 
L 163.196294 453.394099 
L 173.124188 456.18923 
L 183.052082 453.9508 
L 192.979976 458.059618 
L 202.90787 461.847056 
L 212.835763 418.408363 
L 232.691551 453.623866 
L 242.619445 450.346826 
L 262.475233 484.849466 
L 272.403127 454.410301 
L 282.331021 452.392946 
L 292.258914 457.306359 
L 302.186808 459.390944 
L 322.042596 455.280571 
L 331.97049 453.668494 
L 341.898384 474.810135 
L 351.826278 476.716527 
L 371.682065 462.179721 
L 381.609959 474.488098 
L 391.537853 475.916122 
L 401.465747 476.444543 
L 411.393641 476.533466 
L 421.321535 477.292355 
L 431.249429 475.210304 
L 441.177323 477.638505 
L 461.03311 475.967438 
L 470.961004 473.185758 
L 480.888898 475.540217 
L 500.744686 474.374182 
L 530.528367 475.658699 
L 540.456261 469.107918 
L 550.384155 474.927782 
L 560.312049 478.283864 
L 570.239943 473.890856 
L 580.167837 476.651725 
L 590.095731 474.992761 
L 600.023625 479.376598 
L 609.951518 476.418334 
L 619.879412 472.863256 
L 639.7352 479.690433 
L 649.663094 455.806631 
L 659.590988 466.220299 
L 669.518882 423.353763 
L 679.446776 416.348168 
" clip-path="url(#p402dcff09c)" style="fill: none; stroke: #d62728; stroke-width: 2; stroke-linecap: square"/>
    <defs>
     <path id="m0423cbff66" d="M 0 3 
C 0.795609 3 1.55874 2.683901 2.12132 2.12132 
C 2.683901 1.55874 3 0.795609 3 0 
C 3 -0.795609 2.683901 -1.55874 2.12132 -2.12132 
C 1.55874 -2.683901 0.795609 -3 0 -3 
C -0.795609 -3 -1.55874 -2.683901 -2.12132 -2.12132 
C -2.683901 -1.55874 -3 -0.795609 -3 0 
C -3 0.795609 -2.683901 1.55874 -2.12132 2.12132 
C -1.55874 2.683901 -0.795609 3 0 3 
z
" style="stroke: #d62728"/>
    </defs>
    <g clip-path="url(#p402dcff09c)">
     <use xlink:href="#m0423cbff66" x="93.701037" y="456.054988" style="fill: #d62728; stroke: #d62728"/>
     <use xlink:href="#m0423cbff66" x="103.628931" y="451.37621" style="fill: #d62728; stroke: #d62728"/>
     <use xlink:href="#m0423cbff66" x="113.556825" y="455.613485" style="fill: #d62728; stroke: #d62728"/>
     <use xlink:href="#m0423cbff66" x="123.484719" y="453.490975" style="fill: #d62728; stroke: #d62728"/>
     <use xlink:href="#m0423cbff66" x="133.412612" y="456.757439" style="fill: #d62728; stroke: #d62728"/>
     <use xlink:href="#m0423cbff66" x="143.340506" y="463.11651" style="fill: #d62728; stroke: #d62728"/>
     <use xlink:href="#m0423cbff66" x="153.2684" y="455.010626" style="fill: #d62728; stroke: #d62728"/>
     <use xlink:href="#m0423cbff66" x="163.196294" y="453.394099" style="fill: #d62728; stroke: #d62728"/>
     <use xlink:href="#m0423cbff66" x="173.124188" y="456.18923" style="fill: #d62728; stroke: #d62728"/>
     <use xlink:href="#m0423cbff66" x="183.052082" y="453.9508" style="fill: #d62728; stroke: #d62728"/>
     <use xlink:href="#m0423cbff66" x="192.979976" y="458.059618" style="fill: #d62728; stroke: #d62728"/>
     <use xlink:href="#m0423cbff66" x="202.90787" y="461.847056" style="fill: #d62728; stroke: #d62728"/>
     <use xlink:href="#m0423cbff66" x="212.835763" y="418.408363" style="fill: #d62728; stroke: #d62728"/>
     <use xlink:href="#m0423cbff66" x="232.691551" y="453.623866" style="fill: #d62728; stroke: #d62728"/>
     <use xlink:href="#m0423cbff66" x="242.619445" y="450.346826" style="fill: #d62728; stroke: #d62728"/>
     <use xlink:href="#m0423cbff66" x="262.475233" y="484.849466" style="fill: #d62728; stroke: #d62728"/>
     <use xlink:href="#m0423cbff66" x="272.403127" y="454.410301" style="fill: #d62728; stroke: #d62728"/>
     <use xlink:href="#m0423cbff66" x="282.331021" y="452.392946" style="fill: #d62728; stroke: #d62728"/>
     <use xlink:href="#m0423cbff66" x="292.258914" y="457.306359" style="fill: #d62728; stroke: #d62728"/>
     <use xlink:href="#m0423cbff66" x="302.186808" y="459.390944" style="fill: #d62728; stroke: #d62728"/>
     <use xlink:href="#m0423cbff66" x="322.042596" y="455.280571" style="fill: #d62728; stroke: #d62728"/>
     <use xlink:href="#m0423cbff66" x="331.97049" y="453.668494" style="fill: #d62728; stroke: #d62728"/>
     <use xlink:href="#m0423cbff66" x="341.898384" y="474.810135" style="fill: #d62728; stroke: #d62728"/>
     <use xlink:href="#m0423cbff66" x="351.826278" y="476.716527" style="fill: #d62728; stroke: #d62728"/>
     <use xlink:href="#m0423cbff66" x="371.682065" y="462.179721" style="fill: #d62728; stroke: #d62728"/>
     <use xlink:href="#m0423cbff66" x="381.609959" y="474.488098" style="fill: #d62728; stroke: #d62728"/>
     <use xlink:href="#m0423cbff66" x="391.537853" y="475.916122" style="fill: #d62728; stroke: #d62728"/>
     <use xlink:href="#m0423cbff66" x="401.465747" y="476.444543" style="fill: #d62728; stroke: #d62728"/>
     <use xlink:href="#m0423cbff66" x="411.393641" y="476.533466" style="fill: #d62728; stroke: #d62728"/>
     <use xlink:href="#m0423cbff66" x="421.321535" y="477.292355" style="fill: #d62728; stroke: #d62728"/>
     <use xlink:href="#m0423cbff66" x="431.249429" y="475.210304" style="fill: #d62728; stroke: #d62728"/>
     <use xlink:href="#m0423cbff66" x="441.177323" y="477.638505" style="fill: #d62728; stroke: #d62728"/>
     <use xlink:href="#m0423cbff66" x="461.03311" y="475.967438" style="fill: #d62728; stroke: #d62728"/>
     <use xlink:href="#m0423cbff66" x="470.961004" y="473.185758" style="fill: #d62728; stroke: #d62728"/>
     <use xlink:href="#m0423cbff66" x="480.888898" y="475.540217" style="fill: #d62728; stroke: #d62728"/>
     <use xlink:href="#m0423cbff66" x="500.744686" y="474.374182" style="fill: #d62728; stroke: #d62728"/>
     <use xlink:href="#m0423cbff66" x="530.528367" y="475.658699" style="fill: #d62728; stroke: #d62728"/>
     <use xlink:href="#m0423cbff66" x="540.456261" y="469.107918" style="fill: #d62728; stroke: #d62728"/>
     <use xlink:href="#m0423cbff66" x="550.384155" y="474.927782" style="fill: #d62728; stroke: #d62728"/>
     <use xlink:href="#m0423cbff66" x="560.312049" y="478.283864" style="fill: #d62728; stroke: #d62728"/>
     <use xlink:href="#m0423cbff66" x="570.239943" y="473.890856" style="fill: #d62728; stroke: #d62728"/>
     <use xlink:href="#m0423cbff66" x="580.167837" y="476.651725" style="fill: #d62728; stroke: #d62728"/>
     <use xlink:href="#m0423cbff66" x="590.095731" y="474.992761" style="fill: #d62728; stroke: #d62728"/>
     <use xlink:href="#m0423cbff66" x="600.023625" y="479.376598" style="fill: #d62728; stroke: #d62728"/>
     <use xlink:href="#m0423cbff66" x="609.951518" y="476.418334" style="fill: #d62728; stroke: #d62728"/>
     <use xlink:href="#m0423cbff66" x="619.879412" y="472.863256" style="fill: #d62728; stroke: #d62728"/>
     <use xlink:href="#m0423cbff66" x="639.7352" y="479.690433" style="fill: #d62728; stroke: #d62728"/>
     <use xlink:href="#m0423cbff66" x="649.663094" y="455.806631" style="fill: #d62728; stroke: #d62728"/>
     <use xlink:href="#m0423cbff66" x="659.590988" y="466.220299" style="fill: #d62728; stroke: #d62728"/>
     <use xlink:href="#m0423cbff66" x="669.518882" y="423.353763" style="fill: #d62728; stroke: #d62728"/>
     <use xlink:href="#m0423cbff66" x="679.446776" y="416.348168" style="fill: #d62728; stroke: #d62728"/>
    </g>
   </g>
   <g id="patch_3">
    <path d="M 64.41375 529.308125 
L 64.41375 23.837812 
" style="fill: none; stroke: #000000; stroke-width: 0.8; stroke-linejoin: miter; stroke-linecap: square"/>
   </g>
   <g id="patch_4">
    <path d="M 708.734063 529.308125 
L 708.734063 23.837812 
" style="fill: none; stroke: #000000; stroke-width: 0.8; stroke-linejoin: miter; stroke-linecap: square"/>
   </g>
   <g id="patch_5">
    <path d="M 64.41375 529.308125 
L 708.734063 529.308125 
" style="fill: none; stroke: #000000; stroke-width: 0.8; stroke-linejoin: miter; stroke-linecap: square"/>
   </g>
   <g id="patch_6">
    <path d="M 64.41375 23.837812 
L 708.734063 23.837812 
" style="fill: none; stroke: #000000; stroke-width: 0.8; stroke-linejoin: miter; stroke-linecap: square"/>
   </g>
   <g id="text_13">
    <text style="font: 700 14px 'DejaVu Sans', 'Bitstream Vera Sans', 'Computer Modern Sans Serif', 'Lucida Grande', 'Verdana', 'Geneva', 'Lucid', 'Arial', 'Helvetica', 'Avant Garde', sans-serif; text-anchor: middle" x="386.573906" y="17.837813" transform="rotate(-0 386.573906 17.837813)">Nestedparallel - Performance Trend</text>
   </g>
   <g id="legend_1">
    <g id="patch_7">
     <path d="M 747.950078 90.550312 
L 846.336016 90.550312 
Q 848.336016 90.550312 848.336016 88.550312 
L 848.336016 30.837812 
Q 848.336016 28.837812 846.336016 28.837812 
L 747.950078 28.837812 
Q 745.950078 28.837812 745.950078 30.837812 
L 745.950078 88.550312 
Q 745.950078 90.550312 747.950078 90.550312 
z
" style="fill: #ffffff; opacity: 0.8; stroke: #cccccc; stroke-linejoin: miter"/>
    </g>
    <g id="line2d_26">
     <path d="M 749.950078 36.93625 
L 759.950078 36.93625 
L 769.950078 36.93625 
" style="fill: none; stroke: #1f77b4; stroke-width: 2; stroke-linecap: square"/>
     <g>
      <use xlink:href="#maaf5e2db36" x="759.950078" y="36.93625" style="fill: #1f77b4; stroke: #1f77b4"/>
     </g>
    </g>
    <g id="text_14">
     <text style="font: 10px 'DejaVu Sans', 'Bitstream Vera Sans', 'Computer Modern Sans Serif', 'Lucida Grande', 'Verdana', 'Geneva', 'Lucid', 'Arial', 'Helvetica', 'Avant Garde', sans-serif; text-anchor: start" x="777.950078" y="40.43625" transform="rotate(-0 777.950078 40.43625)">gcc-14.2 - V1</text>
    </g>
    <g id="line2d_27">
     <path d="M 749.950078 51.614375 
L 759.950078 51.614375 
L 769.950078 51.614375 
" style="fill: none; stroke: #ff7f0e; stroke-width: 2; stroke-linecap: square"/>
     <g>
      <use xlink:href="#m6812a14104" x="759.950078" y="51.614375" style="fill: #ff7f0e; stroke: #ff7f0e"/>
     </g>
    </g>
    <g id="text_15">
     <text style="font: 10px 'DejaVu Sans', 'Bitstream Vera Sans', 'Computer Modern Sans Serif', 'Lucida Grande', 'Verdana', 'Geneva', 'Lucid', 'Arial', 'Helvetica', 'Avant Garde', sans-serif; text-anchor: start" x="777.950078" y="55.114375" transform="rotate(-0 777.950078 55.114375)">gcc-14.2 - V2</text>
    </g>
    <g id="line2d_28">
     <path d="M 749.950078 66.2925 
L 759.950078 66.2925 
L 769.950078 66.2925 
" style="fill: none; stroke: #2ca02c; stroke-width: 2; stroke-linecap: square"/>
     <g>
      <use xlink:href="#me27e915d17" x="759.950078" y="66.2925" style="fill: #2ca02c; stroke: #2ca02c"/>
     </g>
    </g>
    <g id="text_16">
     <text style="font: 10px 'DejaVu Sans', 'Bitstream Vera Sans', 'Computer Modern Sans Serif', 'Lucida Grande', 'Verdana', 'Geneva', 'Lucid', 'Arial', 'Helvetica', 'Avant Garde', sans-serif; text-anchor: start" x="777.950078" y="69.7925" transform="rotate(-0 777.950078 69.7925)">gcc-4.2 - V1</text>
    </g>
    <g id="line2d_29">
     <path d="M 749.950078 80.970625 
L 759.950078 80.970625 
L 769.950078 80.970625 
" style="fill: none; stroke: #d62728; stroke-width: 2; stroke-linecap: square"/>
     <g>
      <use xlink:href="#m0423cbff66" x="759.950078" y="80.970625" style="fill: #d62728; stroke: #d62728"/>
     </g>
    </g>
    <g id="text_17">
     <text style="font: 10px 'DejaVu Sans', 'Bitstream Vera Sans', 'Computer Modern Sans Serif', 'Lucida Grande', 'Verdana', 'Geneva', 'Lucid', 'Arial', 'Helvetica', 'Avant Garde', sans-serif; text-anchor: start" x="777.950078" y="84.470625" transform="rotate(-0 777.950078 84.470625)">gcc-4.2 - V2</text>
    </g>
   </g>
  </g>
 </g>
 <defs>
  <clipPath id="p402dcff09c">
   <rect x="64.41375" y="23.837813" width="644.320312" height="505.470313"/>
  </clipPath>
 </defs>
</svg>
