<?xml version="1.0" encoding="utf-8" standalone="no"?>
<!DOCTYPE svg PUBLIC "-//W3C//DTD SVG 1.1//EN"
  "http://www.w3.org/Graphics/SVG/1.1/DTD/svg11.dtd">
<svg xmlns:xlink="http://www.w3.org/1999/xlink" width="855.204687pt" height="568.8pt" viewBox="0 0 855.204687 568.8" xmlns="http://www.w3.org/2000/svg" version="1.1">
 <metadata>
  <rdf:RDF xmlns:dc="http://purl.org/dc/elements/1.1/" xmlns:cc="http://creativecommons.org/ns#" xmlns:rdf="http://www.w3.org/1999/02/22-rdf-syntax-ns#">
   <cc:Work>
    <dc:type rdf:resource="http://purl.org/dc/dcmitype/StillImage"/>
    <dc:date>2025-08-22T23:02:28.963261</dc:date>
    <dc:format>image/svg+xml</dc:format>
    <dc:creator>
     <cc:Agent>
      <dc:title>Matplotlib v3.9.4, https://matplotlib.org/</dc:title>
     </cc:Agent>
    </dc:creator>
   </cc:Work>
  </rdf:RDF>
 </metadata>
 <defs>
  <style type="text/css">*{stroke-linejoin: round; stroke-linecap: butt}</style>
 </defs>
 <g id="figure_1">
  <g id="patch_1">
   <path d="M 0 568.8 
L 855.204687 568.8 
L 855.204687 0 
L 0 0 
z
" style="fill: #ffffff"/>
  </g>
  <g id="axes_1">
   <g id="patch_2">
    <path d="M 64.41375 529.308125 
L 702.1075 529.308125 
L 702.1075 23.837812 
L 64.41375 23.837812 
z
" style="fill: #ffffff"/>
   </g>
   <g id="matplotlib.axis_1">
    <g id="xtick_1">
     <g id="line2d_1">
      <path d="M 76.349195 529.308125 
L 76.349195 23.837812 
" clip-path="url(#pf50bdf87a7)" style="fill: none; stroke: #b0b0b0; stroke-opacity: 0.3; stroke-width: 0.8; stroke-linecap: square"/>
     </g>
     <g id="line2d_2">
      <defs>
       <path id="ma5370da599" d="M 0 0 
L 0 3.5 
" style="stroke: #000000; stroke-width: 0.8"/>
      </defs>
      <g>
       <use xlink:href="#ma5370da599" x="76.349195" y="529.308125" style="stroke: #000000; stroke-width: 0.8"/>
      </g>
     </g>
     <g id="text_1">
      <text style="font: 10px 'DejaVu Sans', 'Bitstream Vera Sans', 'Computer Modern Sans Serif', 'Lucida Grande', 'Verdana', 'Geneva', 'Lucid', 'Arial', 'Helvetica', 'Avant Garde', sans-serif; text-anchor: middle" x="76.349195" y="543.906563" transform="rotate(-0 76.349195 543.906563)">70</text>
     </g>
    </g>
    <g id="xtick_2">
     <g id="line2d_3">
      <path d="M 161.60237 529.308125 
L 161.60237 23.837812 
" clip-path="url(#pf50bdf87a7)" style="fill: none; stroke: #b0b0b0; stroke-opacity: 0.3; stroke-width: 0.8; stroke-linecap: square"/>
     </g>
     <g id="line2d_4">
      <g>
       <use xlink:href="#ma5370da599" x="161.60237" y="529.308125" style="stroke: #000000; stroke-width: 0.8"/>
      </g>
     </g>
     <g id="text_2">
      <text style="font: 10px 'DejaVu Sans', 'Bitstream Vera Sans', 'Computer Modern Sans Serif', 'Lucida Grande', 'Verdana', 'Geneva', 'Lucid', 'Arial', 'Helvetica', 'Avant Garde', sans-serif; text-anchor: middle" x="161.60237" y="543.906563" transform="rotate(-0 161.60237 543.906563)">75</text>
     </g>
    </g>
    <g id="xtick_3">
     <g id="line2d_5">
      <path d="M 246.855545 529.308125 
L 246.855545 23.837812 
" clip-path="url(#pf50bdf87a7)" style="fill: none; stroke: #b0b0b0; stroke-opacity: 0.3; stroke-width: 0.8; stroke-linecap: square"/>
     </g>
     <g id="line2d_6">
      <g>
       <use xlink:href="#ma5370da599" x="246.855545" y="529.308125" style="stroke: #000000; stroke-width: 0.8"/>
      </g>
     </g>
     <g id="text_3">
      <text style="font: 10px 'DejaVu Sans', 'Bitstream Vera Sans', 'Computer Modern Sans Serif', 'Lucida Grande', 'Verdana', 'Geneva', 'Lucid', 'Arial', 'Helvetica', 'Avant Garde', sans-serif; text-anchor: middle" x="246.855545" y="543.906563" transform="rotate(-0 246.855545 543.906563)">80</text>
     </g>
    </g>
    <g id="xtick_4">
     <g id="line2d_7">
      <path d="M 332.10872 529.308125 
L 332.10872 23.837812 
" clip-path="url(#pf50bdf87a7)" style="fill: none; stroke: #b0b0b0; stroke-opacity: 0.3; stroke-width: 0.8; stroke-linecap: square"/>
     </g>
     <g id="line2d_8">
      <g>
       <use xlink:href="#ma5370da599" x="332.10872" y="529.308125" style="stroke: #000000; stroke-width: 0.8"/>
      </g>
     </g>
     <g id="text_4">
      <text style="font: 10px 'DejaVu Sans', 'Bitstream Vera Sans', 'Computer Modern Sans Serif', 'Lucida Grande', 'Verdana', 'Geneva', 'Lucid', 'Arial', 'Helvetica', 'Avant Garde', sans-serif; text-anchor: middle" x="332.10872" y="543.906563" transform="rotate(-0 332.10872 543.906563)">85</text>
     </g>
    </g>
    <g id="xtick_5">
     <g id="line2d_9">
      <path d="M 417.361895 529.308125 
L 417.361895 23.837812 
" clip-path="url(#pf50bdf87a7)" style="fill: none; stroke: #b0b0b0; stroke-opacity: 0.3; stroke-width: 0.8; stroke-linecap: square"/>
     </g>
     <g id="line2d_10">
      <g>
       <use xlink:href="#ma5370da599" x="417.361895" y="529.308125" style="stroke: #000000; stroke-width: 0.8"/>
      </g>
     </g>
     <g id="text_5">
      <text style="font: 10px 'DejaVu Sans', 'Bitstream Vera Sans', 'Computer Modern Sans Serif', 'Lucida Grande', 'Verdana', 'Geneva', 'Lucid', 'Arial', 'Helvetica', 'Avant Garde', sans-serif; text-anchor: middle" x="417.361895" y="543.906563" transform="rotate(-0 417.361895 543.906563)">90</text>
     </g>
    </g>
    <g id="xtick_6">
     <g id="line2d_11">
      <path d="M 502.61507 529.308125 
L 502.61507 23.837812 
" clip-path="url(#pf50bdf87a7)" style="fill: none; stroke: #b0b0b0; stroke-opacity: 0.3; stroke-width: 0.8; stroke-linecap: square"/>
     </g>
     <g id="line2d_12">
      <g>
       <use xlink:href="#ma5370da599" x="502.61507" y="529.308125" style="stroke: #000000; stroke-width: 0.8"/>
      </g>
     </g>
     <g id="text_6">
      <text style="font: 10px 'DejaVu Sans', 'Bitstream Vera Sans', 'Computer Modern Sans Serif', 'Lucida Grande', 'Verdana', 'Geneva', 'Lucid', 'Arial', 'Helvetica', 'Avant Garde', sans-serif; text-anchor: middle" x="502.61507" y="543.906563" transform="rotate(-0 502.61507 543.906563)">95</text>
     </g>
    </g>
    <g id="xtick_7">
     <g id="line2d_13">
      <path d="M 587.868245 529.308125 
L 587.868245 23.837812 
" clip-path="url(#pf50bdf87a7)" style="fill: none; stroke: #b0b0b0; stroke-opacity: 0.3; stroke-width: 0.8; stroke-linecap: square"/>
     </g>
     <g id="line2d_14">
      <g>
       <use xlink:href="#ma5370da599" x="587.868245" y="529.308125" style="stroke: #000000; stroke-width: 0.8"/>
      </g>
     </g>
     <g id="text_7">
      <text style="font: 10px 'DejaVu Sans', 'Bitstream Vera Sans', 'Computer Modern Sans Serif', 'Lucida Grande', 'Verdana', 'Geneva', 'Lucid', 'Arial', 'Helvetica', 'Avant Garde', sans-serif; text-anchor: middle" x="587.868245" y="543.906563" transform="rotate(-0 587.868245 543.906563)">100</text>
     </g>
    </g>
    <g id="xtick_8">
     <g id="line2d_15">
      <path d="M 673.12142 529.308125 
L 673.12142 23.837812 
" clip-path="url(#pf50bdf87a7)" style="fill: none; stroke: #b0b0b0; stroke-opacity: 0.3; stroke-width: 0.8; stroke-linecap: square"/>
     </g>
     <g id="line2d_16">
      <g>
       <use xlink:href="#ma5370da599" x="673.12142" y="529.308125" style="stroke: #000000; stroke-width: 0.8"/>
      </g>
     </g>
     <g id="text_8">
      <text style="font: 10px 'DejaVu Sans', 'Bitstream Vera Sans', 'Computer Modern Sans Serif', 'Lucida Grande', 'Verdana', 'Geneva', 'Lucid', 'Arial', 'Helvetica', 'Avant Garde', sans-serif; text-anchor: middle" x="673.12142" y="543.906563" transform="rotate(-0 673.12142 543.906563)">105</text>
     </g>
    </g>
    <g id="text_9">
     <text style="font: 12px 'DejaVu Sans', 'Bitstream Vera Sans', 'Computer Modern Sans Serif', 'Lucida Grande', 'Verdana', 'Geneva', 'Lucid', 'Arial', 'Helvetica', 'Avant Garde', sans-serif; text-anchor: middle" x="383.260625" y="559.104375" transform="rotate(-0 383.260625 559.104375)">Build Number</text>
    </g>
   </g>
   <g id="matplotlib.axis_2">
    <g id="ytick_1">
     <g id="line2d_17">
      <path d="M 64.41375 453.786204 
L 702.1075 453.786204 
" clip-path="url(#pf50bdf87a7)" style="fill: none; stroke: #b0b0b0; stroke-opacity: 0.3; stroke-width: 0.8; stroke-linecap: square"/>
     </g>
     <g id="line2d_18">
      <defs>
       <path id="m5898861c8b" d="M 0 0 
L -3.5 0 
" style="stroke: #000000; stroke-width: 0.8"/>
      </defs>
      <g>
       <use xlink:href="#m5898861c8b" x="64.41375" y="453.786204" style="stroke: #000000; stroke-width: 0.8"/>
      </g>
     </g>
     <g id="text_10">
      <!-- $\mathdefault{10^{5}}$ -->
      <g transform="translate(39.81375 457.585423)">
       <text>
        <tspan style="font: 10px 'DejaVu Sans'" x="0 6.362305" y="-0.06406250000000036">10</tspan>
        <tspan style="font: 7px 'DejaVu Sans'" x="12.820312" y="-3.8921875000000004">5</tspan>
       </text>
      </g>
     </g>
    </g>
    <g id="ytick_2">
     <g id="line2d_19">
      <defs>
       <path id="m535db0df30" d="M 0 0 
L -2 0 
" style="stroke: #000000; stroke-width: 0.6"/>
      </defs>
      <g>
       <use xlink:href="#m535db0df30" x="64.41375" y="496.873642" style="stroke: #000000; stroke-width: 0.6"/>
      </g>
     </g>
    </g>
    <g id="ytick_3">
     <g id="line2d_20">
      <g>
       <use xlink:href="#m535db0df30" x="64.41375" y="170.321985" style="stroke: #000000; stroke-width: 0.6"/>
      </g>
     </g>
     <g id="text_11">
      <!-- $\mathdefault{2\times10^{5}}$ -->
      <g transform="translate(22.81375 174.121204)">
       <text>
        <tspan style="font: 10px 'DejaVu Sans'" x="0 8.310547 18.637695 25" y="-0.06406250000000036">2×10</tspan>
        <tspan style="font: 7px 'DejaVu Sans'" x="31.458008" y="-3.8921875000000004">5</tspan>
       </text>
      </g>
     </g>
    </g>
    <g id="text_12">
     <text style="font: 12px 'DejaVu Sans', 'Bitstream Vera Sans', 'Computer Modern Sans Serif', 'Lucida Grande', 'Verdana', 'Geneva', 'Lucid', 'Arial', 'Helvetica', 'Avant Garde', sans-serif; text-anchor: middle" x="16.318125" y="276.572969" transform="rotate(-90 16.318125 276.572969)">Median Elapsed Time (nanoseconds)</text>
    </g>
   </g>
   <g id="line2d_21">
    <path d="M 93.39983 358.594402 
L 110.450465 83.393181 
L 127.5011 220.76105 
L 144.551735 331.184044 
L 161.60237 228.639233 
L 178.653005 318.546856 
L 195.70364 271.249317 
L 212.754275 112.928166 
L 229.80491 300.433378 
L 246.855545 288.178339 
L 263.90618 314.544957 
L 280.956815 271.473142 
L 298.00745 355.083876 
L 315.058085 289.902078 
L 332.10872 324.935545 
L 349.159355 310.91823 
L 383.260625 46.813736 
L 400.31126 298.535776 
L 417.361895 272.004793 
L 434.41253 264.733822 
L 451.463165 300.821441 
L 468.5138 315.773402 
L 485.564435 320.378392 
L 502.61507 300.841979 
L 519.665705 296.635402 
L 536.71634 282.449221 
L 570.81761 284.389929 
L 587.868245 256.561491 
L 604.91888 311.509364 
L 621.969515 291.407878 
L 639.02015 290.404492 
L 656.070785 328.307603 
L 673.12142 139.93792 
" clip-path="url(#pf50bdf87a7)" style="fill: none; stroke: #1f77b4; stroke-width: 2; stroke-linecap: square"/>
    <defs>
     <path id="m91cfb0ae47" d="M 0 3 
C 0.795609 3 1.55874 2.683901 2.12132 2.12132 
C 2.683901 1.55874 3 0.795609 3 0 
C 3 -0.795609 2.683901 -1.55874 2.12132 -2.12132 
C 1.55874 -2.683901 0.795609 -3 0 -3 
C -0.795609 -3 -1.55874 -2.683901 -2.12132 -2.12132 
C -2.683901 -1.55874 -3 -0.795609 -3 0 
C -3 0.795609 -2.683901 1.55874 -2.12132 2.12132 
C -1.55874 2.683901 -0.795609 3 0 3 
z
" style="stroke: #1f77b4"/>
    </defs>
    <g clip-path="url(#pf50bdf87a7)">
     <use xlink:href="#m91cfb0ae47" x="93.39983" y="358.594402" style="fill: #1f77b4; stroke: #1f77b4"/>
     <use xlink:href="#m91cfb0ae47" x="110.450465" y="83.393181" style="fill: #1f77b4; stroke: #1f77b4"/>
     <use xlink:href="#m91cfb0ae47" x="127.5011" y="220.76105" style="fill: #1f77b4; stroke: #1f77b4"/>
     <use xlink:href="#m91cfb0ae47" x="144.551735" y="331.184044" style="fill: #1f77b4; stroke: #1f77b4"/>
     <use xlink:href="#m91cfb0ae47" x="161.60237" y="228.639233" style="fill: #1f77b4; stroke: #1f77b4"/>
     <use xlink:href="#m91cfb0ae47" x="178.653005" y="318.546856" style="fill: #1f77b4; stroke: #1f77b4"/>
     <use xlink:href="#m91cfb0ae47" x="195.70364" y="271.249317" style="fill: #1f77b4; stroke: #1f77b4"/>
     <use xlink:href="#m91cfb0ae47" x="212.754275" y="112.928166" style="fill: #1f77b4; stroke: #1f77b4"/>
     <use xlink:href="#m91cfb0ae47" x="229.80491" y="300.433378" style="fill: #1f77b4; stroke: #1f77b4"/>
     <use xlink:href="#m91cfb0ae47" x="246.855545" y="288.178339" style="fill: #1f77b4; stroke: #1f77b4"/>
     <use xlink:href="#m91cfb0ae47" x="263.90618" y="314.544957" style="fill: #1f77b4; stroke: #1f77b4"/>
     <use xlink:href="#m91cfb0ae47" x="280.956815" y="271.473142" style="fill: #1f77b4; stroke: #1f77b4"/>
     <use xlink:href="#m91cfb0ae47" x="298.00745" y="355.083876" style="fill: #1f77b4; stroke: #1f77b4"/>
     <use xlink:href="#m91cfb0ae47" x="315.058085" y="289.902078" style="fill: #1f77b4; stroke: #1f77b4"/>
     <use xlink:href="#m91cfb0ae47" x="332.10872" y="324.935545" style="fill: #1f77b4; stroke: #1f77b4"/>
     <use xlink:href="#m91cfb0ae47" x="349.159355" y="310.91823" style="fill: #1f77b4; stroke: #1f77b4"/>
     <use xlink:href="#m91cfb0ae47" x="383.260625" y="46.813736" style="fill: #1f77b4; stroke: #1f77b4"/>
     <use xlink:href="#m91cfb0ae47" x="400.31126" y="298.535776" style="fill: #1f77b4; stroke: #1f77b4"/>
     <use xlink:href="#m91cfb0ae47" x="417.361895" y="272.004793" style="fill: #1f77b4; stroke: #1f77b4"/>
     <use xlink:href="#m91cfb0ae47" x="434.41253" y="264.733822" style="fill: #1f77b4; stroke: #1f77b4"/>
     <use xlink:href="#m91cfb0ae47" x="451.463165" y="300.821441" style="fill: #1f77b4; stroke: #1f77b4"/>
     <use xlink:href="#m91cfb0ae47" x="468.5138" y="315.773402" style="fill: #1f77b4; stroke: #1f77b4"/>
     <use xlink:href="#m91cfb0ae47" x="485.564435" y="320.378392" style="fill: #1f77b4; stroke: #1f77b4"/>
     <use xlink:href="#m91cfb0ae47" x="502.61507" y="300.841979" style="fill: #1f77b4; stroke: #1f77b4"/>
     <use xlink:href="#m91cfb0ae47" x="519.665705" y="296.635402" style="fill: #1f77b4; stroke: #1f77b4"/>
     <use xlink:href="#m91cfb0ae47" x="536.71634" y="282.449221" style="fill: #1f77b4; stroke: #1f77b4"/>
     <use xlink:href="#m91cfb0ae47" x="570.81761" y="284.389929" style="fill: #1f77b4; stroke: #1f77b4"/>
     <use xlink:href="#m91cfb0ae47" x="587.868245" y="256.561491" style="fill: #1f77b4; stroke: #1f77b4"/>
     <use xlink:href="#m91cfb0ae47" x="604.91888" y="311.509364" style="fill: #1f77b4; stroke: #1f77b4"/>
     <use xlink:href="#m91cfb0ae47" x="621.969515" y="291.407878" style="fill: #1f77b4; stroke: #1f77b4"/>
     <use xlink:href="#m91cfb0ae47" x="639.02015" y="290.404492" style="fill: #1f77b4; stroke: #1f77b4"/>
     <use xlink:href="#m91cfb0ae47" x="656.070785" y="328.307603" style="fill: #1f77b4; stroke: #1f77b4"/>
     <use xlink:href="#m91cfb0ae47" x="673.12142" y="139.93792" style="fill: #1f77b4; stroke: #1f77b4"/>
    </g>
   </g>
   <g id="line2d_22">
    <path d="M 93.39983 392.679679 
L 110.450465 386.936497 
L 127.5011 398.248244 
L 144.551735 385.343502 
L 161.60237 339.569664 
L 178.653005 404.385915 
L 195.70364 381.678582 
L 212.754275 408.819049 
L 229.80491 396.668627 
L 246.855545 335.900085 
L 263.90618 374.883943 
L 280.956815 381.8178 
L 298.00745 372.43382 
L 315.058085 408.554433 
L 332.10872 391.855324 
L 349.159355 368.569402 
L 383.260625 391.970803 
L 400.31126 383.410177 
L 417.361895 355.940819 
L 434.41253 365.503518 
L 451.463165 346.510892 
L 468.5138 416.125962 
L 485.564435 357.092056 
L 502.61507 354.857344 
L 519.665705 282.149957 
L 536.71634 279.938227 
L 570.81761 284.948124 
L 587.868245 314.650581 
L 604.91888 310.644081 
L 621.969515 291.583875 
L 639.02015 299.684166 
L 656.070785 328.841744 
L 673.12142 285.576462 
" clip-path="url(#pf50bdf87a7)" style="fill: none; stroke: #ff7f0e; stroke-width: 2; stroke-linecap: square"/>
    <defs>
     <path id="mff5068d199" d="M 0 3 
C 0.795609 3 1.55874 2.683901 2.12132 2.12132 
C 2.683901 1.55874 3 0.795609 3 0 
C 3 -0.795609 2.683901 -1.55874 2.12132 -2.12132 
C 1.55874 -2.683901 0.795609 -3 0 -3 
C -0.795609 -3 -1.55874 -2.683901 -2.12132 -2.12132 
C -2.683901 -1.55874 -3 -0.795609 -3 0 
C -3 0.795609 -2.683901 1.55874 -2.12132 2.12132 
C -1.55874 2.683901 -0.795609 3 0 3 
z
" style="stroke: #ff7f0e"/>
    </defs>
    <g clip-path="url(#pf50bdf87a7)">
     <use xlink:href="#mff5068d199" x="93.39983" y="392.679679" style="fill: #ff7f0e; stroke: #ff7f0e"/>
     <use xlink:href="#mff5068d199" x="110.450465" y="386.936497" style="fill: #ff7f0e; stroke: #ff7f0e"/>
     <use xlink:href="#mff5068d199" x="127.5011" y="398.248244" style="fill: #ff7f0e; stroke: #ff7f0e"/>
     <use xlink:href="#mff5068d199" x="144.551735" y="385.343502" style="fill: #ff7f0e; stroke: #ff7f0e"/>
     <use xlink:href="#mff5068d199" x="161.60237" y="339.569664" style="fill: #ff7f0e; stroke: #ff7f0e"/>
     <use xlink:href="#mff5068d199" x="178.653005" y="404.385915" style="fill: #ff7f0e; stroke: #ff7f0e"/>
     <use xlink:href="#mff5068d199" x="195.70364" y="381.678582" style="fill: #ff7f0e; stroke: #ff7f0e"/>
     <use xlink:href="#mff5068d199" x="212.754275" y="408.819049" style="fill: #ff7f0e; stroke: #ff7f0e"/>
     <use xlink:href="#mff5068d199" x="229.80491" y="396.668627" style="fill: #ff7f0e; stroke: #ff7f0e"/>
     <use xlink:href="#mff5068d199" x="246.855545" y="335.900085" style="fill: #ff7f0e; stroke: #ff7f0e"/>
     <use xlink:href="#mff5068d199" x="263.90618" y="374.883943" style="fill: #ff7f0e; stroke: #ff7f0e"/>
     <use xlink:href="#mff5068d199" x="280.956815" y="381.8178" style="fill: #ff7f0e; stroke: #ff7f0e"/>
     <use xlink:href="#mff5068d199" x="298.00745" y="372.43382" style="fill: #ff7f0e; stroke: #ff7f0e"/>
     <use xlink:href="#mff5068d199" x="315.058085" y="408.554433" style="fill: #ff7f0e; stroke: #ff7f0e"/>
     <use xlink:href="#mff5068d199" x="332.10872" y="391.855324" style="fill: #ff7f0e; stroke: #ff7f0e"/>
     <use xlink:href="#mff5068d199" x="349.159355" y="368.569402" style="fill: #ff7f0e; stroke: #ff7f0e"/>
     <use xlink:href="#mff5068d199" x="383.260625" y="391.970803" style="fill: #ff7f0e; stroke: #ff7f0e"/>
     <use xlink:href="#mff5068d199" x="400.31126" y="383.410177" style="fill: #ff7f0e; stroke: #ff7f0e"/>
     <use xlink:href="#mff5068d199" x="417.361895" y="355.940819" style="fill: #ff7f0e; stroke: #ff7f0e"/>
     <use xlink:href="#mff5068d199" x="434.41253" y="365.503518" style="fill: #ff7f0e; stroke: #ff7f0e"/>
     <use xlink:href="#mff5068d199" x="451.463165" y="346.510892" style="fill: #ff7f0e; stroke: #ff7f0e"/>
     <use xlink:href="#mff5068d199" x="468.5138" y="416.125962" style="fill: #ff7f0e; stroke: #ff7f0e"/>
     <use xlink:href="#mff5068d199" x="485.564435" y="357.092056" style="fill: #ff7f0e; stroke: #ff7f0e"/>
     <use xlink:href="#mff5068d199" x="502.61507" y="354.857344" style="fill: #ff7f0e; stroke: #ff7f0e"/>
     <use xlink:href="#mff5068d199" x="519.665705" y="282.149957" style="fill: #ff7f0e; stroke: #ff7f0e"/>
     <use xlink:href="#mff5068d199" x="536.71634" y="279.938227" style="fill: #ff7f0e; stroke: #ff7f0e"/>
     <use xlink:href="#mff5068d199" x="570.81761" y="284.948124" style="fill: #ff7f0e; stroke: #ff7f0e"/>
     <use xlink:href="#mff5068d199" x="587.868245" y="314.650581" style="fill: #ff7f0e; stroke: #ff7f0e"/>
     <use xlink:href="#mff5068d199" x="604.91888" y="310.644081" style="fill: #ff7f0e; stroke: #ff7f0e"/>
     <use xlink:href="#mff5068d199" x="621.969515" y="291.583875" style="fill: #ff7f0e; stroke: #ff7f0e"/>
     <use xlink:href="#mff5068d199" x="639.02015" y="299.684166" style="fill: #ff7f0e; stroke: #ff7f0e"/>
     <use xlink:href="#mff5068d199" x="656.070785" y="328.841744" style="fill: #ff7f0e; stroke: #ff7f0e"/>
     <use xlink:href="#mff5068d199" x="673.12142" y="285.576462" style="fill: #ff7f0e; stroke: #ff7f0e"/>
    </g>
   </g>
   <g id="line2d_23">
    <path d="M 93.39983 253.741696 
L 110.450465 131.132428 
L 127.5011 96.482045 
L 144.551735 81.256547 
L 161.60237 240.152215 
L 178.653005 77.046755 
L 195.70364 132.700907 
L 212.754275 86.931594 
L 229.80491 212.878131 
L 246.855545 259.677316 
L 263.90618 75.515958 
L 280.956815 128.781141 
L 298.00745 197.396234 
L 315.058085 112.022002 
L 332.10872 278.006773 
L 349.159355 84.085137 
L 383.260625 101.398895 
L 400.31126 202.032381 
L 417.361895 119.799375 
L 434.41253 215.475984 
L 451.463165 242.654232 
L 468.5138 83.347224 
L 485.564435 247.574723 
L 502.61507 84.118424 
L 519.665705 125.304641 
L 536.71634 130.136687 
L 570.81761 129.336619 
L 587.868245 263.001692 
L 604.91888 241.69872 
L 621.969515 101.165388 
L 639.02015 259.971521 
L 656.070785 63.886241 
L 673.12142 270.088178 
" clip-path="url(#pf50bdf87a7)" style="fill: none; stroke: #2ca02c; stroke-width: 2; stroke-linecap: square"/>
    <defs>
     <path id="m1954bcbfae" d="M 0 3 
C 0.795609 3 1.55874 2.683901 2.12132 2.12132 
C 2.683901 1.55874 3 0.795609 3 0 
C 3 -0.795609 2.683901 -1.55874 2.12132 -2.12132 
C 1.55874 -2.683901 0.795609 -3 0 -3 
C -0.795609 -3 -1.55874 -2.683901 -2.12132 -2.12132 
C -2.683901 -1.55874 -3 -0.795609 -3 0 
C -3 0.795609 -2.683901 1.55874 -2.12132 2.12132 
C -1.55874 2.683901 -0.795609 3 0 3 
z
" style="stroke: #2ca02c"/>
    </defs>
    <g clip-path="url(#pf50bdf87a7)">
     <use xlink:href="#m1954bcbfae" x="93.39983" y="253.741696" style="fill: #2ca02c; stroke: #2ca02c"/>
     <use xlink:href="#m1954bcbfae" x="110.450465" y="131.132428" style="fill: #2ca02c; stroke: #2ca02c"/>
     <use xlink:href="#m1954bcbfae" x="127.5011" y="96.482045" style="fill: #2ca02c; stroke: #2ca02c"/>
     <use xlink:href="#m1954bcbfae" x="144.551735" y="81.256547" style="fill: #2ca02c; stroke: #2ca02c"/>
     <use xlink:href="#m1954bcbfae" x="161.60237" y="240.152215" style="fill: #2ca02c; stroke: #2ca02c"/>
     <use xlink:href="#m1954bcbfae" x="178.653005" y="77.046755" style="fill: #2ca02c; stroke: #2ca02c"/>
     <use xlink:href="#m1954bcbfae" x="195.70364" y="132.700907" style="fill: #2ca02c; stroke: #2ca02c"/>
     <use xlink:href="#m1954bcbfae" x="212.754275" y="86.931594" style="fill: #2ca02c; stroke: #2ca02c"/>
     <use xlink:href="#m1954bcbfae" x="229.80491" y="212.878131" style="fill: #2ca02c; stroke: #2ca02c"/>
     <use xlink:href="#m1954bcbfae" x="246.855545" y="259.677316" style="fill: #2ca02c; stroke: #2ca02c"/>
     <use xlink:href="#m1954bcbfae" x="263.90618" y="75.515958" style="fill: #2ca02c; stroke: #2ca02c"/>
     <use xlink:href="#m1954bcbfae" x="280.956815" y="128.781141" style="fill: #2ca02c; stroke: #2ca02c"/>
     <use xlink:href="#m1954bcbfae" x="298.00745" y="197.396234" style="fill: #2ca02c; stroke: #2ca02c"/>
     <use xlink:href="#m1954bcbfae" x="315.058085" y="112.022002" style="fill: #2ca02c; stroke: #2ca02c"/>
     <use xlink:href="#m1954bcbfae" x="332.10872" y="278.006773" style="fill: #2ca02c; stroke: #2ca02c"/>
     <use xlink:href="#m1954bcbfae" x="349.159355" y="84.085137" style="fill: #2ca02c; stroke: #2ca02c"/>
     <use xlink:href="#m1954bcbfae" x="383.260625" y="101.398895" style="fill: #2ca02c; stroke: #2ca02c"/>
     <use xlink:href="#m1954bcbfae" x="400.31126" y="202.032381" style="fill: #2ca02c; stroke: #2ca02c"/>
     <use xlink:href="#m1954bcbfae" x="417.361895" y="119.799375" style="fill: #2ca02c; stroke: #2ca02c"/>
     <use xlink:href="#m1954bcbfae" x="434.41253" y="215.475984" style="fill: #2ca02c; stroke: #2ca02c"/>
     <use xlink:href="#m1954bcbfae" x="451.463165" y="242.654232" style="fill: #2ca02c; stroke: #2ca02c"/>
     <use xlink:href="#m1954bcbfae" x="468.5138" y="83.347224" style="fill: #2ca02c; stroke: #2ca02c"/>
     <use xlink:href="#m1954bcbfae" x="485.564435" y="247.574723" style="fill: #2ca02c; stroke: #2ca02c"/>
     <use xlink:href="#m1954bcbfae" x="502.61507" y="84.118424" style="fill: #2ca02c; stroke: #2ca02c"/>
     <use xlink:href="#m1954bcbfae" x="519.665705" y="125.304641" style="fill: #2ca02c; stroke: #2ca02c"/>
     <use xlink:href="#m1954bcbfae" x="536.71634" y="130.136687" style="fill: #2ca02c; stroke: #2ca02c"/>
     <use xlink:href="#m1954bcbfae" x="570.81761" y="129.336619" style="fill: #2ca02c; stroke: #2ca02c"/>
     <use xlink:href="#m1954bcbfae" x="587.868245" y="263.001692" style="fill: #2ca02c; stroke: #2ca02c"/>
     <use xlink:href="#m1954bcbfae" x="604.91888" y="241.69872" style="fill: #2ca02c; stroke: #2ca02c"/>
     <use xlink:href="#m1954bcbfae" x="621.969515" y="101.165388" style="fill: #2ca02c; stroke: #2ca02c"/>
     <use xlink:href="#m1954bcbfae" x="639.02015" y="259.971521" style="fill: #2ca02c; stroke: #2ca02c"/>
     <use xlink:href="#m1954bcbfae" x="656.070785" y="63.886241" style="fill: #2ca02c; stroke: #2ca02c"/>
     <use xlink:href="#m1954bcbfae" x="673.12142" y="270.088178" style="fill: #2ca02c; stroke: #2ca02c"/>
    </g>
   </g>
   <g id="line2d_24">
    <path d="M 93.39983 309.46052 
L 110.450465 294.014315 
L 127.5011 121.63556 
L 144.551735 288.422818 
L 161.60237 307.59703 
L 178.653005 296.137357 
L 195.70364 332.588837 
L 212.754275 138.456856 
L 229.80491 66.312577 
L 246.855545 283.547321 
L 263.90618 281.66026 
L 280.956815 296.901271 
L 298.00745 313.205049 
L 332.10872 344.12319 
L 349.159355 298.313978 
L 383.260625 314.901513 
L 400.31126 208.372962 
L 417.361895 117.617315 
L 434.41253 207.136064 
L 451.463165 313.390974 
L 485.564435 286.409414 
L 502.61507 279.949187 
L 519.665705 292.178976 
L 536.71634 93.79761 
L 570.81761 274.424933 
L 587.868245 298.329917 
L 604.91888 282.699717 
L 621.969515 252.928086 
L 639.02015 364.840181 
L 656.070785 289.455275 
L 673.12142 307.411148 
" clip-path="url(#pf50bdf87a7)" style="fill: none; stroke: #d62728; stroke-width: 2; stroke-linecap: square"/>
    <defs>
     <path id="md528858cee" d="M 0 3 
C 0.795609 3 1.55874 2.683901 2.12132 2.12132 
C 2.683901 1.55874 3 0.795609 3 0 
C 3 -0.795609 2.683901 -1.55874 2.12132 -2.12132 
C 1.55874 -2.683901 0.795609 -3 0 -3 
C -0.795609 -3 -1.55874 -2.683901 -2.12132 -2.12132 
C -2.683901 -1.55874 -3 -0.795609 -3 0 
C -3 0.795609 -2.683901 1.55874 -2.12132 2.12132 
C -1.55874 2.683901 -0.795609 3 0 3 
z
" style="stroke: #d62728"/>
    </defs>
    <g clip-path="url(#pf50bdf87a7)">
     <use xlink:href="#md528858cee" x="93.39983" y="309.46052" style="fill: #d62728; stroke: #d62728"/>
     <use xlink:href="#md528858cee" x="110.450465" y="294.014315" style="fill: #d62728; stroke: #d62728"/>
     <use xlink:href="#md528858cee" x="127.5011" y="121.63556" style="fill: #d62728; stroke: #d62728"/>
     <use xlink:href="#md528858cee" x="144.551735" y="288.422818" style="fill: #d62728; stroke: #d62728"/>
     <use xlink:href="#md528858cee" x="161.60237" y="307.59703" style="fill: #d62728; stroke: #d62728"/>
     <use xlink:href="#md528858cee" x="178.653005" y="296.137357" style="fill: #d62728; stroke: #d62728"/>
     <use xlink:href="#md528858cee" x="195.70364" y="332.588837" style="fill: #d62728; stroke: #d62728"/>
     <use xlink:href="#md528858cee" x="212.754275" y="138.456856" style="fill: #d62728; stroke: #d62728"/>
     <use xlink:href="#md528858cee" x="229.80491" y="66.312577" style="fill: #d62728; stroke: #d62728"/>
     <use xlink:href="#md528858cee" x="246.855545" y="283.547321" style="fill: #d62728; stroke: #d62728"/>
     <use xlink:href="#md528858cee" x="263.90618" y="281.66026" style="fill: #d62728; stroke: #d62728"/>
     <use xlink:href="#md528858cee" x="280.956815" y="296.901271" style="fill: #d62728; stroke: #d62728"/>
     <use xlink:href="#md528858cee" x="298.00745" y="313.205049" style="fill: #d62728; stroke: #d62728"/>
     <use xlink:href="#md528858cee" x="332.10872" y="344.12319" style="fill: #d62728; stroke: #d62728"/>
     <use xlink:href="#md528858cee" x="349.159355" y="298.313978" style="fill: #d62728; stroke: #d62728"/>
     <use xlink:href="#md528858cee" x="383.260625" y="314.901513" style="fill: #d62728; stroke: #d62728"/>
     <use xlink:href="#md528858cee" x="400.31126" y="208.372962" style="fill: #d62728; stroke: #d62728"/>
     <use xlink:href="#md528858cee" x="417.361895" y="117.617315" style="fill: #d62728; stroke: #d62728"/>
     <use xlink:href="#md528858cee" x="434.41253" y="207.136064" style="fill: #d62728; stroke: #d62728"/>
     <use xlink:href="#md528858cee" x="451.463165" y="313.390974" style="fill: #d62728; stroke: #d62728"/>
     <use xlink:href="#md528858cee" x="485.564435" y="286.409414" style="fill: #d62728; stroke: #d62728"/>
     <use xlink:href="#md528858cee" x="502.61507" y="279.949187" style="fill: #d62728; stroke: #d62728"/>
     <use xlink:href="#md528858cee" x="519.665705" y="292.178976" style="fill: #d62728; stroke: #d62728"/>
     <use xlink:href="#md528858cee" x="536.71634" y="93.79761" style="fill: #d62728; stroke: #d62728"/>
     <use xlink:href="#md528858cee" x="570.81761" y="274.424933" style="fill: #d62728; stroke: #d62728"/>
     <use xlink:href="#md528858cee" x="587.868245" y="298.329917" style="fill: #d62728; stroke: #d62728"/>
     <use xlink:href="#md528858cee" x="604.91888" y="282.699717" style="fill: #d62728; stroke: #d62728"/>
     <use xlink:href="#md528858cee" x="621.969515" y="252.928086" style="fill: #d62728; stroke: #d62728"/>
     <use xlink:href="#md528858cee" x="639.02015" y="364.840181" style="fill: #d62728; stroke: #d62728"/>
     <use xlink:href="#md528858cee" x="656.070785" y="289.455275" style="fill: #d62728; stroke: #d62728"/>
     <use xlink:href="#md528858cee" x="673.12142" y="307.411148" style="fill: #d62728; stroke: #d62728"/>
    </g>
   </g>
   <g id="line2d_25">
    <path d="M 93.39983 377.497105 
L 110.450465 387.013601 
L 127.5011 366.137566 
L 144.551735 382.326041 
L 161.60237 353.014329 
L 178.653005 376.792191 
L 195.70364 393.025678 
L 212.754275 369.58168 
L 229.80491 366.519954 
L 246.855545 376.404142 
L 263.90618 352.125109 
L 280.956815 354.006725 
L 298.00745 372.147341 
L 332.10872 416.543906 
L 349.159355 365.251985 
L 383.260625 390.812516 
L 400.31126 506.332202 
L 417.361895 317.490832 
L 434.41253 355.132603 
L 451.463165 396.66187 
L 485.564435 322.484467 
L 502.61507 364.753659 
L 519.665705 299.948817 
L 536.71634 301.488194 
L 570.81761 270.681795 
L 587.868245 298.498009 
L 604.91888 283.817652 
L 621.969515 251.129522 
L 639.02015 306.721546 
L 656.070785 292.501386 
L 673.12142 312.187082 
" clip-path="url(#pf50bdf87a7)" style="fill: none; stroke: #9467bd; stroke-width: 2; stroke-linecap: square"/>
    <defs>
     <path id="m096ea809a8" d="M 0 3 
C 0.795609 3 1.55874 2.683901 2.12132 2.12132 
C 2.683901 1.55874 3 0.795609 3 0 
C 3 -0.795609 2.683901 -1.55874 2.12132 -2.12132 
C 1.55874 -2.683901 0.795609 -3 0 -3 
C -0.795609 -3 -1.55874 -2.683901 -2.12132 -2.12132 
C -2.683901 -1.55874 -3 -0.795609 -3 0 
C -3 0.795609 -2.683901 1.55874 -2.12132 2.12132 
C -1.55874 2.683901 -0.795609 3 0 3 
z
" style="stroke: #9467bd"/>
    </defs>
    <g clip-path="url(#pf50bdf87a7)">
     <use xlink:href="#m096ea809a8" x="93.39983" y="377.497105" style="fill: #9467bd; stroke: #9467bd"/>
     <use xlink:href="#m096ea809a8" x="110.450465" y="387.013601" style="fill: #9467bd; stroke: #9467bd"/>
     <use xlink:href="#m096ea809a8" x="127.5011" y="366.137566" style="fill: #9467bd; stroke: #9467bd"/>
     <use xlink:href="#m096ea809a8" x="144.551735" y="382.326041" style="fill: #9467bd; stroke: #9467bd"/>
     <use xlink:href="#m096ea809a8" x="161.60237" y="353.014329" style="fill: #9467bd; stroke: #9467bd"/>
     <use xlink:href="#m096ea809a8" x="178.653005" y="376.792191" style="fill: #9467bd; stroke: #9467bd"/>
     <use xlink:href="#m096ea809a8" x="195.70364" y="393.025678" style="fill: #9467bd; stroke: #9467bd"/>
     <use xlink:href="#m096ea809a8" x="212.754275" y="369.58168" style="fill: #9467bd; stroke: #9467bd"/>
     <use xlink:href="#m096ea809a8" x="229.80491" y="366.519954" style="fill: #9467bd; stroke: #9467bd"/>
     <use xlink:href="#m096ea809a8" x="246.855545" y="376.404142" style="fill: #9467bd; stroke: #9467bd"/>
     <use xlink:href="#m096ea809a8" x="263.90618" y="352.125109" style="fill: #9467bd; stroke: #9467bd"/>
     <use xlink:href="#m096ea809a8" x="280.956815" y="354.006725" style="fill: #9467bd; stroke: #9467bd"/>
     <use xlink:href="#m096ea809a8" x="298.00745" y="372.147341" style="fill: #9467bd; stroke: #9467bd"/>
     <use xlink:href="#m096ea809a8" x="332.10872" y="416.543906" style="fill: #9467bd; stroke: #9467bd"/>
     <use xlink:href="#m096ea809a8" x="349.159355" y="365.251985" style="fill: #9467bd; stroke: #9467bd"/>
     <use xlink:href="#m096ea809a8" x="383.260625" y="390.812516" style="fill: #9467bd; stroke: #9467bd"/>
     <use xlink:href="#m096ea809a8" x="400.31126" y="506.332202" style="fill: #9467bd; stroke: #9467bd"/>
     <use xlink:href="#m096ea809a8" x="417.361895" y="317.490832" style="fill: #9467bd; stroke: #9467bd"/>
     <use xlink:href="#m096ea809a8" x="434.41253" y="355.132603" style="fill: #9467bd; stroke: #9467bd"/>
     <use xlink:href="#m096ea809a8" x="451.463165" y="396.66187" style="fill: #9467bd; stroke: #9467bd"/>
     <use xlink:href="#m096ea809a8" x="485.564435" y="322.484467" style="fill: #9467bd; stroke: #9467bd"/>
     <use xlink:href="#m096ea809a8" x="502.61507" y="364.753659" style="fill: #9467bd; stroke: #9467bd"/>
     <use xlink:href="#m096ea809a8" x="519.665705" y="299.948817" style="fill: #9467bd; stroke: #9467bd"/>
     <use xlink:href="#m096ea809a8" x="536.71634" y="301.488194" style="fill: #9467bd; stroke: #9467bd"/>
     <use xlink:href="#m096ea809a8" x="570.81761" y="270.681795" style="fill: #9467bd; stroke: #9467bd"/>
     <use xlink:href="#m096ea809a8" x="587.868245" y="298.498009" style="fill: #9467bd; stroke: #9467bd"/>
     <use xlink:href="#m096ea809a8" x="604.91888" y="283.817652" style="fill: #9467bd; stroke: #9467bd"/>
     <use xlink:href="#m096ea809a8" x="621.969515" y="251.129522" style="fill: #9467bd; stroke: #9467bd"/>
     <use xlink:href="#m096ea809a8" x="639.02015" y="306.721546" style="fill: #9467bd; stroke: #9467bd"/>
     <use xlink:href="#m096ea809a8" x="656.070785" y="292.501386" style="fill: #9467bd; stroke: #9467bd"/>
     <use xlink:href="#m096ea809a8" x="673.12142" y="312.187082" style="fill: #9467bd; stroke: #9467bd"/>
    </g>
   </g>
   <g id="line2d_26">
    <path d="M 93.39983 274.650768 
L 110.450465 96.666611 
L 127.5011 276.859481 
L 144.551735 257.482311 
L 161.60237 215.464338 
L 178.653005 266.852194 
L 195.70364 250.594453 
L 212.754275 207.420086 
L 229.80491 242.827291 
L 246.855545 80.166321 
L 263.90618 277.984423 
L 280.956815 104.891121 
L 298.00745 124.203671 
L 332.10872 267.439832 
L 349.159355 250.251968 
L 383.260625 230.273162 
L 400.31126 275.952272 
L 417.361895 73.774918 
L 434.41253 87.604345 
L 451.463165 121.351933 
L 485.564435 91.384657 
L 502.61507 89.741917 
L 519.665705 260.968451 
L 536.71634 108.857789 
L 570.81761 92.233004 
L 587.868245 220.457906 
L 604.91888 247.506065 
L 621.969515 111.227191 
L 639.02015 287.394321 
L 656.070785 269.499071 
L 673.12142 116.213532 
" clip-path="url(#pf50bdf87a7)" style="fill: none; stroke: #8c564b; stroke-width: 2; stroke-linecap: square"/>
    <defs>
     <path id="mf1193b9ea8" d="M 0 3 
C 0.795609 3 1.55874 2.683901 2.12132 2.12132 
C 2.683901 1.55874 3 0.795609 3 0 
C 3 -0.795609 2.683901 -1.55874 2.12132 -2.12132 
C 1.55874 -2.683901 0.795609 -3 0 -3 
C -0.795609 -3 -1.55874 -2.683901 -2.12132 -2.12132 
C -2.683901 -1.55874 -3 -0.795609 -3 0 
C -3 0.795609 -2.683901 1.55874 -2.12132 2.12132 
C -1.55874 2.683901 -0.795609 3 0 3 
z
" style="stroke: #8c564b"/>
    </defs>
    <g clip-path="url(#pf50bdf87a7)">
     <use xlink:href="#mf1193b9ea8" x="93.39983" y="274.650768" style="fill: #8c564b; stroke: #8c564b"/>
     <use xlink:href="#mf1193b9ea8" x="110.450465" y="96.666611" style="fill: #8c564b; stroke: #8c564b"/>
     <use xlink:href="#mf1193b9ea8" x="127.5011" y="276.859481" style="fill: #8c564b; stroke: #8c564b"/>
     <use xlink:href="#mf1193b9ea8" x="144.551735" y="257.482311" style="fill: #8c564b; stroke: #8c564b"/>
     <use xlink:href="#mf1193b9ea8" x="161.60237" y="215.464338" style="fill: #8c564b; stroke: #8c564b"/>
     <use xlink:href="#mf1193b9ea8" x="178.653005" y="266.852194" style="fill: #8c564b; stroke: #8c564b"/>
     <use xlink:href="#mf1193b9ea8" x="195.70364" y="250.594453" style="fill: #8c564b; stroke: #8c564b"/>
     <use xlink:href="#mf1193b9ea8" x="212.754275" y="207.420086" style="fill: #8c564b; stroke: #8c564b"/>
     <use xlink:href="#mf1193b9ea8" x="229.80491" y="242.827291" style="fill: #8c564b; stroke: #8c564b"/>
     <use xlink:href="#mf1193b9ea8" x="246.855545" y="80.166321" style="fill: #8c564b; stroke: #8c564b"/>
     <use xlink:href="#mf1193b9ea8" x="263.90618" y="277.984423" style="fill: #8c564b; stroke: #8c564b"/>
     <use xlink:href="#mf1193b9ea8" x="280.956815" y="104.891121" style="fill: #8c564b; stroke: #8c564b"/>
     <use xlink:href="#mf1193b9ea8" x="298.00745" y="124.203671" style="fill: #8c564b; stroke: #8c564b"/>
     <use xlink:href="#mf1193b9ea8" x="332.10872" y="267.439832" style="fill: #8c564b; stroke: #8c564b"/>
     <use xlink:href="#mf1193b9ea8" x="349.159355" y="250.251968" style="fill: #8c564b; stroke: #8c564b"/>
     <use xlink:href="#mf1193b9ea8" x="383.260625" y="230.273162" style="fill: #8c564b; stroke: #8c564b"/>
     <use xlink:href="#mf1193b9ea8" x="400.31126" y="275.952272" style="fill: #8c564b; stroke: #8c564b"/>
     <use xlink:href="#mf1193b9ea8" x="417.361895" y="73.774918" style="fill: #8c564b; stroke: #8c564b"/>
     <use xlink:href="#mf1193b9ea8" x="434.41253" y="87.604345" style="fill: #8c564b; stroke: #8c564b"/>
     <use xlink:href="#mf1193b9ea8" x="451.463165" y="121.351933" style="fill: #8c564b; stroke: #8c564b"/>
     <use xlink:href="#mf1193b9ea8" x="485.564435" y="91.384657" style="fill: #8c564b; stroke: #8c564b"/>
     <use xlink:href="#mf1193b9ea8" x="502.61507" y="89.741917" style="fill: #8c564b; stroke: #8c564b"/>
     <use xlink:href="#mf1193b9ea8" x="519.665705" y="260.968451" style="fill: #8c564b; stroke: #8c564b"/>
     <use xlink:href="#mf1193b9ea8" x="536.71634" y="108.857789" style="fill: #8c564b; stroke: #8c564b"/>
     <use xlink:href="#mf1193b9ea8" x="570.81761" y="92.233004" style="fill: #8c564b; stroke: #8c564b"/>
     <use xlink:href="#mf1193b9ea8" x="587.868245" y="220.457906" style="fill: #8c564b; stroke: #8c564b"/>
     <use xlink:href="#mf1193b9ea8" x="604.91888" y="247.506065" style="fill: #8c564b; stroke: #8c564b"/>
     <use xlink:href="#mf1193b9ea8" x="621.969515" y="111.227191" style="fill: #8c564b; stroke: #8c564b"/>
     <use xlink:href="#mf1193b9ea8" x="639.02015" y="287.394321" style="fill: #8c564b; stroke: #8c564b"/>
     <use xlink:href="#mf1193b9ea8" x="656.070785" y="269.499071" style="fill: #8c564b; stroke: #8c564b"/>
     <use xlink:href="#mf1193b9ea8" x="673.12142" y="116.213532" style="fill: #8c564b; stroke: #8c564b"/>
    </g>
   </g>
   <g id="patch_3">
    <path d="M 64.41375 529.308125 
L 64.41375 23.837812 
" style="fill: none; stroke: #000000; stroke-width: 0.8; stroke-linejoin: miter; stroke-linecap: square"/>
   </g>
   <g id="patch_4">
    <path d="M 702.1075 529.308125 
L 702.1075 23.837812 
" style="fill: none; stroke: #000000; stroke-width: 0.8; stroke-linejoin: miter; stroke-linecap: square"/>
   </g>
   <g id="patch_5">
    <path d="M 64.41375 529.308125 
L 702.1075 529.308125 
" style="fill: none; stroke: #000000; stroke-width: 0.8; stroke-linejoin: miter; stroke-linecap: square"/>
   </g>
   <g id="patch_6">
    <path d="M 64.41375 23.837812 
L 702.1075 23.837812 
" style="fill: none; stroke: #000000; stroke-width: 0.8; stroke-linejoin: miter; stroke-linecap: square"/>
   </g>
   <g id="text_13">
    <text style="font: 700 14px 'DejaVu Sans', 'Bitstream Vera Sans', 'Computer Modern Sans Serif', 'Lucida Grande', 'Verdana', 'Geneva', 'Lucid', 'Arial', 'Helvetica', 'Avant Garde', sans-serif; text-anchor: middle" x="383.260625" y="17.837813" transform="rotate(-0 383.260625 17.837813)">Tasksubmission - Performance Trend</text>
   </g>
   <g id="legend_1">
    <g id="patch_7">
     <path d="M 740.992188 119.906563 
L 846.004688 119.906563 
Q 848.004688 119.906563 848.004688 117.906563 
L 848.004688 30.837813 
Q 848.004688 28.837813 846.004688 28.837813 
L 740.992188 28.837813 
Q 738.992188 28.837813 738.992188 30.837813 
L 738.992188 117.906563 
Q 738.992188 119.906563 740.992188 119.906563 
z
" style="fill: #ffffff; opacity: 0.8; stroke: #cccccc; stroke-linejoin: miter"/>
    </g>
    <g id="line2d_27">
     <path d="M 742.992188 36.93625 
L 752.992188 36.93625 
L 762.992188 36.93625 
" style="fill: none; stroke: #1f77b4; stroke-width: 2; stroke-linecap: square"/>
     <g>
      <use xlink:href="#m91cfb0ae47" x="752.992188" y="36.93625" style="fill: #1f77b4; stroke: #1f77b4"/>
     </g>
    </g>
    <g id="text_14">
     <text style="font: 10px 'DejaVu Sans', 'Bitstream Vera Sans', 'Computer Modern Sans Serif', 'Lucida Grande', 'Verdana', 'Geneva', 'Lucid', 'Arial', 'Helvetica', 'Avant Garde', sans-serif; text-anchor: start" x="770.992188" y="40.43625" transform="rotate(-0 770.992188 40.43625)">gcc-14.2 - V1</text>
    </g>
    <g id="line2d_28">
     <path d="M 742.992188 51.614375 
L 752.992188 51.614375 
L 762.992188 51.614375 
" style="fill: none; stroke: #ff7f0e; stroke-width: 2; stroke-linecap: square"/>
     <g>
      <use xlink:href="#mff5068d199" x="752.992188" y="51.614375" style="fill: #ff7f0e; stroke: #ff7f0e"/>
     </g>
    </g>
    <g id="text_15">
     <text style="font: 10px 'DejaVu Sans', 'Bitstream Vera Sans', 'Computer Modern Sans Serif', 'Lucida Grande', 'Verdana', 'Geneva', 'Lucid', 'Arial', 'Helvetica', 'Avant Garde', sans-serif; text-anchor: start" x="770.992188" y="55.114375" transform="rotate(-0 770.992188 55.114375)">gcc-14.2 - V2</text>
    </g>
    <g id="line2d_29">
     <path d="M 742.992188 66.2925 
L 752.992188 66.2925 
L 762.992188 66.2925 
" style="fill: none; stroke: #2ca02c; stroke-width: 2; stroke-linecap: square"/>
     <g>
      <use xlink:href="#m1954bcbfae" x="752.992188" y="66.2925" style="fill: #2ca02c; stroke: #2ca02c"/>
     </g>
    </g>
    <g id="text_16">
     <text style="font: 10px 'DejaVu Sans', 'Bitstream Vera Sans', 'Computer Modern Sans Serif', 'Lucida Grande', 'Verdana', 'Geneva', 'Lucid', 'Arial', 'Helvetica', 'Avant Garde', sans-serif; text-anchor: start" x="770.992188" y="69.7925" transform="rotate(-0 770.992188 69.7925)">gcc-14.2 - TBB</text>
    </g>
    <g id="line2d_30">
     <path d="M 742.992188 80.970625 
L 752.992188 80.970625 
L 762.992188 80.970625 
" style="fill: none; stroke: #d62728; stroke-width: 2; stroke-linecap: square"/>
     <g>
      <use xlink:href="#md528858cee" x="752.992188" y="80.970625" style="fill: #d62728; stroke: #d62728"/>
     </g>
    </g>
    <g id="text_17">
     <text style="font: 10px 'DejaVu Sans', 'Bitstream Vera Sans', 'Computer Modern Sans Serif', 'Lucida Grande', 'Verdana', 'Geneva', 'Lucid', 'Arial', 'Helvetica', 'Avant Garde', sans-serif; text-anchor: start" x="770.992188" y="84.470625" transform="rotate(-0 770.992188 84.470625)">gcc-4.2 - V1</text>
    </g>
    <g id="line2d_31">
     <path d="M 742.992188 95.64875 
L 752.992188 95.64875 
L 762.992188 95.64875 
" style="fill: none; stroke: #9467bd; stroke-width: 2; stroke-linecap: square"/>
     <g>
      <use xlink:href="#m096ea809a8" x="752.992188" y="95.64875" style="fill: #9467bd; stroke: #9467bd"/>
     </g>
    </g>
    <g id="text_18">
     <text style="font: 10px 'DejaVu Sans', 'Bitstream Vera Sans', 'Computer Modern Sans Serif', 'Lucida Grande', 'Verdana', 'Geneva', 'Lucid', 'Arial', 'Helvetica', 'Avant Garde', sans-serif; text-anchor: start" x="770.992188" y="99.14875" transform="rotate(-0 770.992188 99.14875)">gcc-4.2 - V2</text>
    </g>
    <g id="line2d_32">
     <path d="M 742.992188 110.326875 
L 752.992188 110.326875 
L 762.992188 110.326875 
" style="fill: none; stroke: #8c564b; stroke-width: 2; stroke-linecap: square"/>
     <g>
      <use xlink:href="#mf1193b9ea8" x="752.992188" y="110.326875" style="fill: #8c564b; stroke: #8c564b"/>
     </g>
    </g>
    <g id="text_19">
     <text style="font: 10px 'DejaVu Sans', 'Bitstream Vera Sans', 'Computer Modern Sans Serif', 'Lucida Grande', 'Verdana', 'Geneva', 'Lucid', 'Arial', 'Helvetica', 'Avant Garde', sans-serif; text-anchor: start" x="770.992188" y="113.826875" transform="rotate(-0 770.992188 113.826875)">gcc-4.2 - TBB</text>
    </g>
   </g>
  </g>
 </g>
 <defs>
  <clipPath id="pf50bdf87a7">
   <rect x="64.41375" y="23.837813" width="637.69375" height="505.470313"/>
  </clipPath>
 </defs>
</svg>
