<?xml version="1.0" encoding="utf-8" standalone="no"?>
<!DOCTYPE svg PUBLIC "-//W3C//DTD SVG 1.1//EN"
  "http://www.w3.org/Graphics/SVG/1.1/DTD/svg11.dtd">
<svg xmlns:xlink="http://www.w3.org/1999/xlink" width="855.204687pt" height="568.8pt" viewBox="0 0 855.204687 568.8" xmlns="http://www.w3.org/2000/svg" version="1.1">
 <metadata>
  <rdf:RDF xmlns:dc="http://purl.org/dc/elements/1.1/" xmlns:cc="http://creativecommons.org/ns#" xmlns:rdf="http://www.w3.org/1999/02/22-rdf-syntax-ns#">
   <cc:Work>
    <dc:type rdf:resource="http://purl.org/dc/dcmitype/StillImage"/>
    <dc:date>2025-08-17T13:04:18.810674</dc:date>
    <dc:format>image/svg+xml</dc:format>
    <dc:creator>
     <cc:Agent>
      <dc:title>Matplotlib v3.9.4, https://matplotlib.org/</dc:title>
     </cc:Agent>
    </dc:creator>
   </cc:Work>
  </rdf:RDF>
 </metadata>
 <defs>
  <style type="text/css">*{stroke-linejoin: round; stroke-linecap: butt}</style>
 </defs>
 <g id="figure_1">
  <g id="patch_1">
   <path d="M 0 568.8 
L 855.204687 568.8 
L 855.204687 0 
L 0 0 
z
" style="fill: #ffffff"/>
  </g>
  <g id="axes_1">
   <g id="patch_2">
    <path d="M 64.41375 529.308125 
L 702.1075 529.308125 
L 702.1075 23.837812 
L 64.41375 23.837812 
z
" style="fill: #ffffff"/>
   </g>
   <g id="matplotlib.axis_1">
    <g id="xtick_1">
     <g id="line2d_1">
      <path d="M 69.244763 529.308125 
L 69.244763 23.837812 
" clip-path="url(#p11cab3932e)" style="fill: none; stroke: #b0b0b0; stroke-opacity: 0.3; stroke-width: 0.8; stroke-linecap: square"/>
     </g>
     <g id="line2d_2">
      <defs>
       <path id="mc04e9b5292" d="M 0 0 
L 0 3.5 
" style="stroke: #000000; stroke-width: 0.8"/>
      </defs>
      <g>
       <use xlink:href="#mc04e9b5292" x="69.244763" y="529.308125" style="stroke: #000000; stroke-width: 0.8"/>
      </g>
     </g>
     <g id="text_1">
      <text style="font: 10px 'DejaVu Sans', 'Bitstream Vera Sans', 'Computer Modern Sans Serif', 'Lucida Grande', 'Verdana', 'Geneva', 'Lucid', 'Arial', 'Helvetica', 'Avant Garde', sans-serif; text-anchor: middle" x="69.244763" y="543.906563" transform="rotate(-0 69.244763 543.906563)">70</text>
     </g>
    </g>
    <g id="xtick_2">
     <g id="line2d_3">
      <path d="M 190.020095 529.308125 
L 190.020095 23.837812 
" clip-path="url(#p11cab3932e)" style="fill: none; stroke: #b0b0b0; stroke-opacity: 0.3; stroke-width: 0.8; stroke-linecap: square"/>
     </g>
     <g id="line2d_4">
      <g>
       <use xlink:href="#mc04e9b5292" x="190.020095" y="529.308125" style="stroke: #000000; stroke-width: 0.8"/>
      </g>
     </g>
     <g id="text_2">
      <text style="font: 10px 'DejaVu Sans', 'Bitstream Vera Sans', 'Computer Modern Sans Serif', 'Lucida Grande', 'Verdana', 'Geneva', 'Lucid', 'Arial', 'Helvetica', 'Avant Garde', sans-serif; text-anchor: middle" x="190.020095" y="543.906563" transform="rotate(-0 190.020095 543.906563)">75</text>
     </g>
    </g>
    <g id="xtick_3">
     <g id="line2d_5">
      <path d="M 310.795426 529.308125 
L 310.795426 23.837812 
" clip-path="url(#p11cab3932e)" style="fill: none; stroke: #b0b0b0; stroke-opacity: 0.3; stroke-width: 0.8; stroke-linecap: square"/>
     </g>
     <g id="line2d_6">
      <g>
       <use xlink:href="#mc04e9b5292" x="310.795426" y="529.308125" style="stroke: #000000; stroke-width: 0.8"/>
      </g>
     </g>
     <g id="text_3">
      <text style="font: 10px 'DejaVu Sans', 'Bitstream Vera Sans', 'Computer Modern Sans Serif', 'Lucida Grande', 'Verdana', 'Geneva', 'Lucid', 'Arial', 'Helvetica', 'Avant Garde', sans-serif; text-anchor: middle" x="310.795426" y="543.906563" transform="rotate(-0 310.795426 543.906563)">80</text>
     </g>
    </g>
    <g id="xtick_4">
     <g id="line2d_7">
      <path d="M 431.570758 529.308125 
L 431.570758 23.837812 
" clip-path="url(#p11cab3932e)" style="fill: none; stroke: #b0b0b0; stroke-opacity: 0.3; stroke-width: 0.8; stroke-linecap: square"/>
     </g>
     <g id="line2d_8">
      <g>
       <use xlink:href="#mc04e9b5292" x="431.570758" y="529.308125" style="stroke: #000000; stroke-width: 0.8"/>
      </g>
     </g>
     <g id="text_4">
      <text style="font: 10px 'DejaVu Sans', 'Bitstream Vera Sans', 'Computer Modern Sans Serif', 'Lucida Grande', 'Verdana', 'Geneva', 'Lucid', 'Arial', 'Helvetica', 'Avant Garde', sans-serif; text-anchor: middle" x="431.570758" y="543.906563" transform="rotate(-0 431.570758 543.906563)">85</text>
     </g>
    </g>
    <g id="xtick_5">
     <g id="line2d_9">
      <path d="M 552.346089 529.308125 
L 552.346089 23.837812 
" clip-path="url(#p11cab3932e)" style="fill: none; stroke: #b0b0b0; stroke-opacity: 0.3; stroke-width: 0.8; stroke-linecap: square"/>
     </g>
     <g id="line2d_10">
      <g>
       <use xlink:href="#mc04e9b5292" x="552.346089" y="529.308125" style="stroke: #000000; stroke-width: 0.8"/>
      </g>
     </g>
     <g id="text_5">
      <text style="font: 10px 'DejaVu Sans', 'Bitstream Vera Sans', 'Computer Modern Sans Serif', 'Lucida Grande', 'Verdana', 'Geneva', 'Lucid', 'Arial', 'Helvetica', 'Avant Garde', sans-serif; text-anchor: middle" x="552.346089" y="543.906563" transform="rotate(-0 552.346089 543.906563)">90</text>
     </g>
    </g>
    <g id="xtick_6">
     <g id="line2d_11">
      <path d="M 673.12142 529.308125 
L 673.12142 23.837812 
" clip-path="url(#p11cab3932e)" style="fill: none; stroke: #b0b0b0; stroke-opacity: 0.3; stroke-width: 0.8; stroke-linecap: square"/>
     </g>
     <g id="line2d_12">
      <g>
       <use xlink:href="#mc04e9b5292" x="673.12142" y="529.308125" style="stroke: #000000; stroke-width: 0.8"/>
      </g>
     </g>
     <g id="text_6">
      <text style="font: 10px 'DejaVu Sans', 'Bitstream Vera Sans', 'Computer Modern Sans Serif', 'Lucida Grande', 'Verdana', 'Geneva', 'Lucid', 'Arial', 'Helvetica', 'Avant Garde', sans-serif; text-anchor: middle" x="673.12142" y="543.906563" transform="rotate(-0 673.12142 543.906563)">95</text>
     </g>
    </g>
    <g id="text_7">
     <text style="font: 12px 'DejaVu Sans', 'Bitstream Vera Sans', 'Computer Modern Sans Serif', 'Lucida Grande', 'Verdana', 'Geneva', 'Lucid', 'Arial', 'Helvetica', 'Avant Garde', sans-serif; text-anchor: middle" x="383.260625" y="559.104375" transform="rotate(-0 383.260625 559.104375)">Build Number</text>
    </g>
   </g>
   <g id="matplotlib.axis_2">
    <g id="ytick_1">
     <g id="line2d_13">
      <path d="M 64.41375 469.070014 
L 702.1075 469.070014 
" clip-path="url(#p11cab3932e)" style="fill: none; stroke: #b0b0b0; stroke-opacity: 0.3; stroke-width: 0.8; stroke-linecap: square"/>
     </g>
     <g id="line2d_14">
      <defs>
       <path id="m6b147bc82b" d="M 0 0 
L -3.5 0 
" style="stroke: #000000; stroke-width: 0.8"/>
      </defs>
      <g>
       <use xlink:href="#m6b147bc82b" x="64.41375" y="469.070014" style="stroke: #000000; stroke-width: 0.8"/>
      </g>
     </g>
     <g id="text_8">
      <!-- $\mathdefault{10^{5}}$ -->
      <g transform="translate(39.81375 472.869233)">
       <text>
        <tspan style="font: 10px 'DejaVu Sans'" x="0 6.362305" y="-0.06406250000000036">10</tspan>
        <tspan style="font: 7px 'DejaVu Sans'" x="12.820312" y="-3.8921875000000004">5</tspan>
       </text>
      </g>
     </g>
    </g>
    <g id="ytick_2">
     <g id="line2d_15">
      <defs>
       <path id="md4bbc6ef73" d="M 0 0 
L -2 0 
" style="stroke: #000000; stroke-width: 0.6"/>
      </defs>
      <g>
       <use xlink:href="#md4bbc6ef73" x="64.41375" y="498.909389" style="stroke: #000000; stroke-width: 0.6"/>
      </g>
     </g>
    </g>
    <g id="ytick_3">
     <g id="line2d_16">
      <g>
       <use xlink:href="#md4bbc6ef73" x="64.41375" y="272.762329" style="stroke: #000000; stroke-width: 0.6"/>
      </g>
     </g>
     <g id="text_9">
      <!-- $\mathdefault{2\times10^{5}}$ -->
      <g transform="translate(22.81375 276.561548)">
       <text>
        <tspan style="font: 10px 'DejaVu Sans'" x="0 8.310547 18.637695 25" y="-0.06406250000000036">2×10</tspan>
        <tspan style="font: 7px 'DejaVu Sans'" x="31.458008" y="-3.8921875000000004">5</tspan>
       </text>
      </g>
     </g>
    </g>
    <g id="ytick_4">
     <g id="line2d_17">
      <g>
       <use xlink:href="#md4bbc6ef73" x="64.41375" y="157.929695" style="stroke: #000000; stroke-width: 0.6"/>
      </g>
     </g>
     <g id="text_10">
      <!-- $\mathdefault{3\times10^{5}}$ -->
      <g transform="translate(22.81375 161.728914)">
       <text>
        <tspan style="font: 10px 'DejaVu Sans'" x="0 8.310547 18.637695 25" y="-0.06406250000000036">3×10</tspan>
        <tspan style="font: 7px 'DejaVu Sans'" x="31.458008" y="-3.8921875000000004">5</tspan>
       </text>
      </g>
     </g>
    </g>
    <g id="ytick_5">
     <g id="line2d_18">
      <g>
       <use xlink:href="#md4bbc6ef73" x="64.41375" y="76.454644" style="stroke: #000000; stroke-width: 0.6"/>
      </g>
     </g>
     <g id="text_11">
      <!-- $\mathdefault{4\times10^{5}}$ -->
      <g transform="translate(22.81375 80.253863)">
       <text>
        <tspan style="font: 10px 'DejaVu Sans'" x="0 8.310547 18.637695 25" y="-0.06406250000000036">4×10</tspan>
        <tspan style="font: 7px 'DejaVu Sans'" x="31.458008" y="-3.8921875000000004">5</tspan>
       </text>
      </g>
     </g>
    </g>
    <g id="text_12">
     <text style="font: 12px 'DejaVu Sans', 'Bitstream Vera Sans', 'Computer Modern Sans Serif', 'Lucida Grande', 'Verdana', 'Geneva', 'Lucid', 'Arial', 'Helvetica', 'Avant Garde', sans-serif; text-anchor: middle" x="16.318125" y="276.572969" transform="rotate(-90 16.318125 276.572969)">Median Elapsed Time (nanoseconds)</text>
    </g>
   </g>
   <g id="line2d_19">
    <path d="M 93.39983 240.791469 
L 117.554896 246.380183 
L 141.709962 244.51619 
L 165.865028 246.948917 
L 190.020095 191.866757 
L 214.175161 92.213717 
L 238.330227 246.914533 
L 262.485294 245.959147 
L 286.64036 46.813736 
L 310.795426 246.737122 
L 334.950492 246.771872 
L 359.105559 247.172125 
L 383.260625 47.775065 
L 407.415691 245.79083 
L 431.570758 246.579962 
L 455.725824 246.859088 
L 504.035956 247.044205 
L 528.191023 47.870225 
L 552.346089 246.1906 
L 576.501155 104.279383 
L 600.656222 245.737536 
L 624.811288 241.958335 
L 648.966354 246.874338 
L 673.12142 246.79306 
" clip-path="url(#p11cab3932e)" style="fill: none; stroke: #1f77b4; stroke-width: 2; stroke-linecap: square"/>
    <defs>
     <path id="m39fda6f141" d="M 0 3 
C 0.795609 3 1.55874 2.683901 2.12132 2.12132 
C 2.683901 1.55874 3 0.795609 3 0 
C 3 -0.795609 2.683901 -1.55874 2.12132 -2.12132 
C 1.55874 -2.683901 0.795609 -3 0 -3 
C -0.795609 -3 -1.55874 -2.683901 -2.12132 -2.12132 
C -2.683901 -1.55874 -3 -0.795609 -3 0 
C -3 0.795609 -2.683901 1.55874 -2.12132 2.12132 
C -1.55874 2.683901 -0.795609 3 0 3 
z
" style="stroke: #1f77b4"/>
    </defs>
    <g clip-path="url(#p11cab3932e)">
     <use xlink:href="#m39fda6f141" x="93.39983" y="240.791469" style="fill: #1f77b4; stroke: #1f77b4"/>
     <use xlink:href="#m39fda6f141" x="117.554896" y="246.380183" style="fill: #1f77b4; stroke: #1f77b4"/>
     <use xlink:href="#m39fda6f141" x="141.709962" y="244.51619" style="fill: #1f77b4; stroke: #1f77b4"/>
     <use xlink:href="#m39fda6f141" x="165.865028" y="246.948917" style="fill: #1f77b4; stroke: #1f77b4"/>
     <use xlink:href="#m39fda6f141" x="190.020095" y="191.866757" style="fill: #1f77b4; stroke: #1f77b4"/>
     <use xlink:href="#m39fda6f141" x="214.175161" y="92.213717" style="fill: #1f77b4; stroke: #1f77b4"/>
     <use xlink:href="#m39fda6f141" x="238.330227" y="246.914533" style="fill: #1f77b4; stroke: #1f77b4"/>
     <use xlink:href="#m39fda6f141" x="262.485294" y="245.959147" style="fill: #1f77b4; stroke: #1f77b4"/>
     <use xlink:href="#m39fda6f141" x="286.64036" y="46.813736" style="fill: #1f77b4; stroke: #1f77b4"/>
     <use xlink:href="#m39fda6f141" x="310.795426" y="246.737122" style="fill: #1f77b4; stroke: #1f77b4"/>
     <use xlink:href="#m39fda6f141" x="334.950492" y="246.771872" style="fill: #1f77b4; stroke: #1f77b4"/>
     <use xlink:href="#m39fda6f141" x="359.105559" y="247.172125" style="fill: #1f77b4; stroke: #1f77b4"/>
     <use xlink:href="#m39fda6f141" x="383.260625" y="47.775065" style="fill: #1f77b4; stroke: #1f77b4"/>
     <use xlink:href="#m39fda6f141" x="407.415691" y="245.79083" style="fill: #1f77b4; stroke: #1f77b4"/>
     <use xlink:href="#m39fda6f141" x="431.570758" y="246.579962" style="fill: #1f77b4; stroke: #1f77b4"/>
     <use xlink:href="#m39fda6f141" x="455.725824" y="246.859088" style="fill: #1f77b4; stroke: #1f77b4"/>
     <use xlink:href="#m39fda6f141" x="504.035956" y="247.044205" style="fill: #1f77b4; stroke: #1f77b4"/>
     <use xlink:href="#m39fda6f141" x="528.191023" y="47.870225" style="fill: #1f77b4; stroke: #1f77b4"/>
     <use xlink:href="#m39fda6f141" x="552.346089" y="246.1906" style="fill: #1f77b4; stroke: #1f77b4"/>
     <use xlink:href="#m39fda6f141" x="576.501155" y="104.279383" style="fill: #1f77b4; stroke: #1f77b4"/>
     <use xlink:href="#m39fda6f141" x="600.656222" y="245.737536" style="fill: #1f77b4; stroke: #1f77b4"/>
     <use xlink:href="#m39fda6f141" x="624.811288" y="241.958335" style="fill: #1f77b4; stroke: #1f77b4"/>
     <use xlink:href="#m39fda6f141" x="648.966354" y="246.874338" style="fill: #1f77b4; stroke: #1f77b4"/>
     <use xlink:href="#m39fda6f141" x="673.12142" y="246.79306" style="fill: #1f77b4; stroke: #1f77b4"/>
    </g>
   </g>
   <g id="line2d_20">
    <path d="M 93.39983 240.606601 
L 117.554896 238.938145 
L 141.709962 236.647515 
L 165.865028 234.597314 
L 190.020095 201.944944 
L 214.175161 236.092359 
L 238.330227 236.719698 
L 262.485294 238.343495 
L 286.64036 128.972368 
L 310.795426 231.261218 
L 334.950492 234.571575 
L 359.105559 234.061474 
L 383.260625 185.015102 
L 407.415691 231.328126 
L 431.570758 235.895861 
L 455.725824 235.578148 
L 504.035956 235.130326 
L 528.191023 186.367497 
L 552.346089 237.186402 
L 576.501155 185.816409 
L 600.656222 238.275661 
L 624.811288 230.118148 
L 648.966354 236.226752 
L 673.12142 232.856637 
" clip-path="url(#p11cab3932e)" style="fill: none; stroke: #ff7f0e; stroke-width: 2; stroke-linecap: square"/>
    <defs>
     <path id="m1ac30314c7" d="M 0 3 
C 0.795609 3 1.55874 2.683901 2.12132 2.12132 
C 2.683901 1.55874 3 0.795609 3 0 
C 3 -0.795609 2.683901 -1.55874 2.12132 -2.12132 
C 1.55874 -2.683901 0.795609 -3 0 -3 
C -0.795609 -3 -1.55874 -2.683901 -2.12132 -2.12132 
C -2.683901 -1.55874 -3 -0.795609 -3 0 
C -3 0.795609 -2.683901 1.55874 -2.12132 2.12132 
C -1.55874 2.683901 -0.795609 3 0 3 
z
" style="stroke: #ff7f0e"/>
    </defs>
    <g clip-path="url(#p11cab3932e)">
     <use xlink:href="#m1ac30314c7" x="93.39983" y="240.606601" style="fill: #ff7f0e; stroke: #ff7f0e"/>
     <use xlink:href="#m1ac30314c7" x="117.554896" y="238.938145" style="fill: #ff7f0e; stroke: #ff7f0e"/>
     <use xlink:href="#m1ac30314c7" x="141.709962" y="236.647515" style="fill: #ff7f0e; stroke: #ff7f0e"/>
     <use xlink:href="#m1ac30314c7" x="165.865028" y="234.597314" style="fill: #ff7f0e; stroke: #ff7f0e"/>
     <use xlink:href="#m1ac30314c7" x="190.020095" y="201.944944" style="fill: #ff7f0e; stroke: #ff7f0e"/>
     <use xlink:href="#m1ac30314c7" x="214.175161" y="236.092359" style="fill: #ff7f0e; stroke: #ff7f0e"/>
     <use xlink:href="#m1ac30314c7" x="238.330227" y="236.719698" style="fill: #ff7f0e; stroke: #ff7f0e"/>
     <use xlink:href="#m1ac30314c7" x="262.485294" y="238.343495" style="fill: #ff7f0e; stroke: #ff7f0e"/>
     <use xlink:href="#m1ac30314c7" x="286.64036" y="128.972368" style="fill: #ff7f0e; stroke: #ff7f0e"/>
     <use xlink:href="#m1ac30314c7" x="310.795426" y="231.261218" style="fill: #ff7f0e; stroke: #ff7f0e"/>
     <use xlink:href="#m1ac30314c7" x="334.950492" y="234.571575" style="fill: #ff7f0e; stroke: #ff7f0e"/>
     <use xlink:href="#m1ac30314c7" x="359.105559" y="234.061474" style="fill: #ff7f0e; stroke: #ff7f0e"/>
     <use xlink:href="#m1ac30314c7" x="383.260625" y="185.015102" style="fill: #ff7f0e; stroke: #ff7f0e"/>
     <use xlink:href="#m1ac30314c7" x="407.415691" y="231.328126" style="fill: #ff7f0e; stroke: #ff7f0e"/>
     <use xlink:href="#m1ac30314c7" x="431.570758" y="235.895861" style="fill: #ff7f0e; stroke: #ff7f0e"/>
     <use xlink:href="#m1ac30314c7" x="455.725824" y="235.578148" style="fill: #ff7f0e; stroke: #ff7f0e"/>
     <use xlink:href="#m1ac30314c7" x="504.035956" y="235.130326" style="fill: #ff7f0e; stroke: #ff7f0e"/>
     <use xlink:href="#m1ac30314c7" x="528.191023" y="186.367497" style="fill: #ff7f0e; stroke: #ff7f0e"/>
     <use xlink:href="#m1ac30314c7" x="552.346089" y="237.186402" style="fill: #ff7f0e; stroke: #ff7f0e"/>
     <use xlink:href="#m1ac30314c7" x="576.501155" y="185.816409" style="fill: #ff7f0e; stroke: #ff7f0e"/>
     <use xlink:href="#m1ac30314c7" x="600.656222" y="238.275661" style="fill: #ff7f0e; stroke: #ff7f0e"/>
     <use xlink:href="#m1ac30314c7" x="624.811288" y="230.118148" style="fill: #ff7f0e; stroke: #ff7f0e"/>
     <use xlink:href="#m1ac30314c7" x="648.966354" y="236.226752" style="fill: #ff7f0e; stroke: #ff7f0e"/>
     <use xlink:href="#m1ac30314c7" x="673.12142" y="232.856637" style="fill: #ff7f0e; stroke: #ff7f0e"/>
    </g>
   </g>
   <g id="line2d_21">
    <path d="M 93.39983 240.357183 
L 117.554896 220.297468 
L 141.709962 197.431933 
L 165.865028 240.821069 
L 190.020095 180.732232 
L 214.175161 241.392807 
L 238.330227 240.81019 
L 262.485294 241.123573 
L 286.64036 193.49982 
L 310.795426 240.398611 
L 334.950492 241.158654 
L 359.105559 240.939501 
L 383.260625 200.610539 
L 407.415691 238.092804 
L 431.570758 240.151395 
L 455.725824 241.583517 
L 504.035956 241.442374 
L 528.191023 206.808564 
L 552.346089 241.237951 
L 576.501155 176.362702 
L 600.656222 241.16942 
L 624.811288 200.643797 
L 648.966354 240.708757 
L 673.12142 225.05179 
" clip-path="url(#p11cab3932e)" style="fill: none; stroke: #2ca02c; stroke-width: 2; stroke-linecap: square"/>
    <defs>
     <path id="m6b6174d067" d="M 0 3 
C 0.795609 3 1.55874 2.683901 2.12132 2.12132 
C 2.683901 1.55874 3 0.795609 3 0 
C 3 -0.795609 2.683901 -1.55874 2.12132 -2.12132 
C 1.55874 -2.683901 0.795609 -3 0 -3 
C -0.795609 -3 -1.55874 -2.683901 -2.12132 -2.12132 
C -2.683901 -1.55874 -3 -0.795609 -3 0 
C -3 0.795609 -2.683901 1.55874 -2.12132 2.12132 
C -1.55874 2.683901 -0.795609 3 0 3 
z
" style="stroke: #2ca02c"/>
    </defs>
    <g clip-path="url(#p11cab3932e)">
     <use xlink:href="#m6b6174d067" x="93.39983" y="240.357183" style="fill: #2ca02c; stroke: #2ca02c"/>
     <use xlink:href="#m6b6174d067" x="117.554896" y="220.297468" style="fill: #2ca02c; stroke: #2ca02c"/>
     <use xlink:href="#m6b6174d067" x="141.709962" y="197.431933" style="fill: #2ca02c; stroke: #2ca02c"/>
     <use xlink:href="#m6b6174d067" x="165.865028" y="240.821069" style="fill: #2ca02c; stroke: #2ca02c"/>
     <use xlink:href="#m6b6174d067" x="190.020095" y="180.732232" style="fill: #2ca02c; stroke: #2ca02c"/>
     <use xlink:href="#m6b6174d067" x="214.175161" y="241.392807" style="fill: #2ca02c; stroke: #2ca02c"/>
     <use xlink:href="#m6b6174d067" x="238.330227" y="240.81019" style="fill: #2ca02c; stroke: #2ca02c"/>
     <use xlink:href="#m6b6174d067" x="262.485294" y="241.123573" style="fill: #2ca02c; stroke: #2ca02c"/>
     <use xlink:href="#m6b6174d067" x="286.64036" y="193.49982" style="fill: #2ca02c; stroke: #2ca02c"/>
     <use xlink:href="#m6b6174d067" x="310.795426" y="240.398611" style="fill: #2ca02c; stroke: #2ca02c"/>
     <use xlink:href="#m6b6174d067" x="334.950492" y="241.158654" style="fill: #2ca02c; stroke: #2ca02c"/>
     <use xlink:href="#m6b6174d067" x="359.105559" y="240.939501" style="fill: #2ca02c; stroke: #2ca02c"/>
     <use xlink:href="#m6b6174d067" x="383.260625" y="200.610539" style="fill: #2ca02c; stroke: #2ca02c"/>
     <use xlink:href="#m6b6174d067" x="407.415691" y="238.092804" style="fill: #2ca02c; stroke: #2ca02c"/>
     <use xlink:href="#m6b6174d067" x="431.570758" y="240.151395" style="fill: #2ca02c; stroke: #2ca02c"/>
     <use xlink:href="#m6b6174d067" x="455.725824" y="241.583517" style="fill: #2ca02c; stroke: #2ca02c"/>
     <use xlink:href="#m6b6174d067" x="504.035956" y="241.442374" style="fill: #2ca02c; stroke: #2ca02c"/>
     <use xlink:href="#m6b6174d067" x="528.191023" y="206.808564" style="fill: #2ca02c; stroke: #2ca02c"/>
     <use xlink:href="#m6b6174d067" x="552.346089" y="241.237951" style="fill: #2ca02c; stroke: #2ca02c"/>
     <use xlink:href="#m6b6174d067" x="576.501155" y="176.362702" style="fill: #2ca02c; stroke: #2ca02c"/>
     <use xlink:href="#m6b6174d067" x="600.656222" y="241.16942" style="fill: #2ca02c; stroke: #2ca02c"/>
     <use xlink:href="#m6b6174d067" x="624.811288" y="200.643797" style="fill: #2ca02c; stroke: #2ca02c"/>
     <use xlink:href="#m6b6174d067" x="648.966354" y="240.708757" style="fill: #2ca02c; stroke: #2ca02c"/>
     <use xlink:href="#m6b6174d067" x="673.12142" y="225.05179" style="fill: #2ca02c; stroke: #2ca02c"/>
    </g>
   </g>
   <g id="line2d_22">
    <path d="M 93.39983 504.018399 
L 117.554896 505.641745 
L 141.709962 504.562012 
L 165.865028 505.963211 
L 190.020095 307.270335 
L 214.175161 495.447441 
L 238.330227 504.74891 
L 262.485294 418.481088 
L 286.64036 505.736503 
L 310.795426 505.86225 
L 334.950492 504.980187 
L 359.105559 506.100948 
L 383.260625 503.336431 
L 431.570758 505.032382 
L 455.725824 504.288632 
L 504.035956 505.208972 
L 528.191023 506.332202 
L 552.346089 503.912043 
L 576.501155 505.497092 
L 600.656222 505.610489 
L 648.966354 505.015983 
L 673.12142 505.665593 
" clip-path="url(#p11cab3932e)" style="fill: none; stroke: #d62728; stroke-width: 2; stroke-linecap: square"/>
    <defs>
     <path id="m998d92e724" d="M 0 3 
C 0.795609 3 1.55874 2.683901 2.12132 2.12132 
C 2.683901 1.55874 3 0.795609 3 0 
C 3 -0.795609 2.683901 -1.55874 2.12132 -2.12132 
C 1.55874 -2.683901 0.795609 -3 0 -3 
C -0.795609 -3 -1.55874 -2.683901 -2.12132 -2.12132 
C -2.683901 -1.55874 -3 -0.795609 -3 0 
C -3 0.795609 -2.683901 1.55874 -2.12132 2.12132 
C -1.55874 2.683901 -0.795609 3 0 3 
z
" style="stroke: #d62728"/>
    </defs>
    <g clip-path="url(#p11cab3932e)">
     <use xlink:href="#m998d92e724" x="93.39983" y="504.018399" style="fill: #d62728; stroke: #d62728"/>
     <use xlink:href="#m998d92e724" x="117.554896" y="505.641745" style="fill: #d62728; stroke: #d62728"/>
     <use xlink:href="#m998d92e724" x="141.709962" y="504.562012" style="fill: #d62728; stroke: #d62728"/>
     <use xlink:href="#m998d92e724" x="165.865028" y="505.963211" style="fill: #d62728; stroke: #d62728"/>
     <use xlink:href="#m998d92e724" x="190.020095" y="307.270335" style="fill: #d62728; stroke: #d62728"/>
     <use xlink:href="#m998d92e724" x="214.175161" y="495.447441" style="fill: #d62728; stroke: #d62728"/>
     <use xlink:href="#m998d92e724" x="238.330227" y="504.74891" style="fill: #d62728; stroke: #d62728"/>
     <use xlink:href="#m998d92e724" x="262.485294" y="418.481088" style="fill: #d62728; stroke: #d62728"/>
     <use xlink:href="#m998d92e724" x="286.64036" y="505.736503" style="fill: #d62728; stroke: #d62728"/>
     <use xlink:href="#m998d92e724" x="310.795426" y="505.86225" style="fill: #d62728; stroke: #d62728"/>
     <use xlink:href="#m998d92e724" x="334.950492" y="504.980187" style="fill: #d62728; stroke: #d62728"/>
     <use xlink:href="#m998d92e724" x="359.105559" y="506.100948" style="fill: #d62728; stroke: #d62728"/>
     <use xlink:href="#m998d92e724" x="383.260625" y="503.336431" style="fill: #d62728; stroke: #d62728"/>
     <use xlink:href="#m998d92e724" x="431.570758" y="505.032382" style="fill: #d62728; stroke: #d62728"/>
     <use xlink:href="#m998d92e724" x="455.725824" y="504.288632" style="fill: #d62728; stroke: #d62728"/>
     <use xlink:href="#m998d92e724" x="504.035956" y="505.208972" style="fill: #d62728; stroke: #d62728"/>
     <use xlink:href="#m998d92e724" x="528.191023" y="506.332202" style="fill: #d62728; stroke: #d62728"/>
     <use xlink:href="#m998d92e724" x="552.346089" y="503.912043" style="fill: #d62728; stroke: #d62728"/>
     <use xlink:href="#m998d92e724" x="576.501155" y="505.497092" style="fill: #d62728; stroke: #d62728"/>
     <use xlink:href="#m998d92e724" x="600.656222" y="505.610489" style="fill: #d62728; stroke: #d62728"/>
     <use xlink:href="#m998d92e724" x="648.966354" y="505.015983" style="fill: #d62728; stroke: #d62728"/>
     <use xlink:href="#m998d92e724" x="673.12142" y="505.665593" style="fill: #d62728; stroke: #d62728"/>
    </g>
   </g>
   <g id="line2d_23">
    <path d="M 93.39983 471.813709 
L 117.554896 468.015598 
L 141.709962 470.864455 
L 165.865028 470.8636 
L 190.020095 415.59121 
L 214.175161 418.648377 
L 238.330227 469.816411 
L 262.485294 397.227693 
L 286.64036 469.703134 
L 310.795426 471.094838 
L 334.950492 469.05019 
L 359.105559 472.905927 
L 383.260625 463.887363 
L 431.570758 468.617802 
L 455.725824 472.212345 
L 504.035956 467.636347 
L 528.191023 465.865541 
L 552.346089 471.326551 
L 576.501155 471.042877 
L 600.656222 472.590035 
L 648.966354 472.730005 
L 673.12142 466.938389 
" clip-path="url(#p11cab3932e)" style="fill: none; stroke: #9467bd; stroke-width: 2; stroke-linecap: square"/>
    <defs>
     <path id="m99b655f71f" d="M 0 3 
C 0.795609 3 1.55874 2.683901 2.12132 2.12132 
C 2.683901 1.55874 3 0.795609 3 0 
C 3 -0.795609 2.683901 -1.55874 2.12132 -2.12132 
C 1.55874 -2.683901 0.795609 -3 0 -3 
C -0.795609 -3 -1.55874 -2.683901 -2.12132 -2.12132 
C -2.683901 -1.55874 -3 -0.795609 -3 0 
C -3 0.795609 -2.683901 1.55874 -2.12132 2.12132 
C -1.55874 2.683901 -0.795609 3 0 3 
z
" style="stroke: #9467bd"/>
    </defs>
    <g clip-path="url(#p11cab3932e)">
     <use xlink:href="#m99b655f71f" x="93.39983" y="471.813709" style="fill: #9467bd; stroke: #9467bd"/>
     <use xlink:href="#m99b655f71f" x="117.554896" y="468.015598" style="fill: #9467bd; stroke: #9467bd"/>
     <use xlink:href="#m99b655f71f" x="141.709962" y="470.864455" style="fill: #9467bd; stroke: #9467bd"/>
     <use xlink:href="#m99b655f71f" x="165.865028" y="470.8636" style="fill: #9467bd; stroke: #9467bd"/>
     <use xlink:href="#m99b655f71f" x="190.020095" y="415.59121" style="fill: #9467bd; stroke: #9467bd"/>
     <use xlink:href="#m99b655f71f" x="214.175161" y="418.648377" style="fill: #9467bd; stroke: #9467bd"/>
     <use xlink:href="#m99b655f71f" x="238.330227" y="469.816411" style="fill: #9467bd; stroke: #9467bd"/>
     <use xlink:href="#m99b655f71f" x="262.485294" y="397.227693" style="fill: #9467bd; stroke: #9467bd"/>
     <use xlink:href="#m99b655f71f" x="286.64036" y="469.703134" style="fill: #9467bd; stroke: #9467bd"/>
     <use xlink:href="#m99b655f71f" x="310.795426" y="471.094838" style="fill: #9467bd; stroke: #9467bd"/>
     <use xlink:href="#m99b655f71f" x="334.950492" y="469.05019" style="fill: #9467bd; stroke: #9467bd"/>
     <use xlink:href="#m99b655f71f" x="359.105559" y="472.905927" style="fill: #9467bd; stroke: #9467bd"/>
     <use xlink:href="#m99b655f71f" x="383.260625" y="463.887363" style="fill: #9467bd; stroke: #9467bd"/>
     <use xlink:href="#m99b655f71f" x="431.570758" y="468.617802" style="fill: #9467bd; stroke: #9467bd"/>
     <use xlink:href="#m99b655f71f" x="455.725824" y="472.212345" style="fill: #9467bd; stroke: #9467bd"/>
     <use xlink:href="#m99b655f71f" x="504.035956" y="467.636347" style="fill: #9467bd; stroke: #9467bd"/>
     <use xlink:href="#m99b655f71f" x="528.191023" y="465.865541" style="fill: #9467bd; stroke: #9467bd"/>
     <use xlink:href="#m99b655f71f" x="552.346089" y="471.326551" style="fill: #9467bd; stroke: #9467bd"/>
     <use xlink:href="#m99b655f71f" x="576.501155" y="471.042877" style="fill: #9467bd; stroke: #9467bd"/>
     <use xlink:href="#m99b655f71f" x="600.656222" y="472.590035" style="fill: #9467bd; stroke: #9467bd"/>
     <use xlink:href="#m99b655f71f" x="648.966354" y="472.730005" style="fill: #9467bd; stroke: #9467bd"/>
     <use xlink:href="#m99b655f71f" x="673.12142" y="466.938389" style="fill: #9467bd; stroke: #9467bd"/>
    </g>
   </g>
   <g id="line2d_24">
    <path d="M 93.39983 232.815437 
L 117.554896 231.528701 
L 141.709962 232.338072 
L 165.865028 231.398232 
L 190.020095 177.722699 
L 214.175161 178.994362 
L 238.330227 231.970737 
L 262.485294 174.053219 
L 286.64036 233.422734 
L 310.795426 232.013163 
L 334.950492 232.188946 
L 359.105559 232.191768 
L 383.260625 231.204964 
L 431.570758 232.435691 
L 455.725824 231.63143 
L 504.035956 232.798712 
L 528.191023 233.426185 
L 552.346089 233.145823 
L 576.501155 234.115086 
L 600.656222 231.38049 
L 648.966354 232.416533 
L 673.12142 232.042228 
" clip-path="url(#p11cab3932e)" style="fill: none; stroke: #8c564b; stroke-width: 2; stroke-linecap: square"/>
    <defs>
     <path id="m33476452c8" d="M 0 3 
C 0.795609 3 1.55874 2.683901 2.12132 2.12132 
C 2.683901 1.55874 3 0.795609 3 0 
C 3 -0.795609 2.683901 -1.55874 2.12132 -2.12132 
C 1.55874 -2.683901 0.795609 -3 0 -3 
C -0.795609 -3 -1.55874 -2.683901 -2.12132 -2.12132 
C -2.683901 -1.55874 -3 -0.795609 -3 0 
C -3 0.795609 -2.683901 1.55874 -2.12132 2.12132 
C -1.55874 2.683901 -0.795609 3 0 3 
z
" style="stroke: #8c564b"/>
    </defs>
    <g clip-path="url(#p11cab3932e)">
     <use xlink:href="#m33476452c8" x="93.39983" y="232.815437" style="fill: #8c564b; stroke: #8c564b"/>
     <use xlink:href="#m33476452c8" x="117.554896" y="231.528701" style="fill: #8c564b; stroke: #8c564b"/>
     <use xlink:href="#m33476452c8" x="141.709962" y="232.338072" style="fill: #8c564b; stroke: #8c564b"/>
     <use xlink:href="#m33476452c8" x="165.865028" y="231.398232" style="fill: #8c564b; stroke: #8c564b"/>
     <use xlink:href="#m33476452c8" x="190.020095" y="177.722699" style="fill: #8c564b; stroke: #8c564b"/>
     <use xlink:href="#m33476452c8" x="214.175161" y="178.994362" style="fill: #8c564b; stroke: #8c564b"/>
     <use xlink:href="#m33476452c8" x="238.330227" y="231.970737" style="fill: #8c564b; stroke: #8c564b"/>
     <use xlink:href="#m33476452c8" x="262.485294" y="174.053219" style="fill: #8c564b; stroke: #8c564b"/>
     <use xlink:href="#m33476452c8" x="286.64036" y="233.422734" style="fill: #8c564b; stroke: #8c564b"/>
     <use xlink:href="#m33476452c8" x="310.795426" y="232.013163" style="fill: #8c564b; stroke: #8c564b"/>
     <use xlink:href="#m33476452c8" x="334.950492" y="232.188946" style="fill: #8c564b; stroke: #8c564b"/>
     <use xlink:href="#m33476452c8" x="359.105559" y="232.191768" style="fill: #8c564b; stroke: #8c564b"/>
     <use xlink:href="#m33476452c8" x="383.260625" y="231.204964" style="fill: #8c564b; stroke: #8c564b"/>
     <use xlink:href="#m33476452c8" x="431.570758" y="232.435691" style="fill: #8c564b; stroke: #8c564b"/>
     <use xlink:href="#m33476452c8" x="455.725824" y="231.63143" style="fill: #8c564b; stroke: #8c564b"/>
     <use xlink:href="#m33476452c8" x="504.035956" y="232.798712" style="fill: #8c564b; stroke: #8c564b"/>
     <use xlink:href="#m33476452c8" x="528.191023" y="233.426185" style="fill: #8c564b; stroke: #8c564b"/>
     <use xlink:href="#m33476452c8" x="552.346089" y="233.145823" style="fill: #8c564b; stroke: #8c564b"/>
     <use xlink:href="#m33476452c8" x="576.501155" y="234.115086" style="fill: #8c564b; stroke: #8c564b"/>
     <use xlink:href="#m33476452c8" x="600.656222" y="231.38049" style="fill: #8c564b; stroke: #8c564b"/>
     <use xlink:href="#m33476452c8" x="648.966354" y="232.416533" style="fill: #8c564b; stroke: #8c564b"/>
     <use xlink:href="#m33476452c8" x="673.12142" y="232.042228" style="fill: #8c564b; stroke: #8c564b"/>
    </g>
   </g>
   <g id="patch_3">
    <path d="M 64.41375 529.308125 
L 64.41375 23.837813 
" style="fill: none; stroke: #000000; stroke-width: 0.8; stroke-linejoin: miter; stroke-linecap: square"/>
   </g>
   <g id="patch_4">
    <path d="M 702.1075 529.308125 
L 702.1075 23.837813 
" style="fill: none; stroke: #000000; stroke-width: 0.8; stroke-linejoin: miter; stroke-linecap: square"/>
   </g>
   <g id="patch_5">
    <path d="M 64.41375 529.308125 
L 702.1075 529.308125 
" style="fill: none; stroke: #000000; stroke-width: 0.8; stroke-linejoin: miter; stroke-linecap: square"/>
   </g>
   <g id="patch_6">
    <path d="M 64.41375 23.837812 
L 702.1075 23.837812 
" style="fill: none; stroke: #000000; stroke-width: 0.8; stroke-linejoin: miter; stroke-linecap: square"/>
   </g>
   <g id="text_13">
    <text style="font: 700 14px 'DejaVu Sans', 'Bitstream Vera Sans', 'Computer Modern Sans Serif', 'Lucida Grande', 'Verdana', 'Geneva', 'Lucid', 'Arial', 'Helvetica', 'Avant Garde', sans-serif; text-anchor: middle" x="383.260625" y="17.837813" transform="rotate(-0 383.260625 17.837813)">Parallelfor Vectorops - Performance Trend</text>
   </g>
   <g id="legend_1">
    <g id="patch_7">
     <path d="M 740.992188 119.906563 
L 846.004688 119.906563 
Q 848.004688 119.906563 848.004688 117.906563 
L 848.004688 30.837813 
Q 848.004688 28.837813 846.004688 28.837813 
L 740.992188 28.837813 
Q 738.992188 28.837813 738.992188 30.837813 
L 738.992188 117.906563 
Q 738.992188 119.906563 740.992188 119.906563 
z
" style="fill: #ffffff; opacity: 0.8; stroke: #cccccc; stroke-linejoin: miter"/>
    </g>
    <g id="line2d_25">
     <path d="M 742.992188 36.93625 
L 752.992188 36.93625 
L 762.992188 36.93625 
" style="fill: none; stroke: #1f77b4; stroke-width: 2; stroke-linecap: square"/>
     <g>
      <use xlink:href="#m39fda6f141" x="752.992188" y="36.93625" style="fill: #1f77b4; stroke: #1f77b4"/>
     </g>
    </g>
    <g id="text_14">
     <text style="font: 10px 'DejaVu Sans', 'Bitstream Vera Sans', 'Computer Modern Sans Serif', 'Lucida Grande', 'Verdana', 'Geneva', 'Lucid', 'Arial', 'Helvetica', 'Avant Garde', sans-serif; text-anchor: start" x="770.992188" y="40.43625" transform="rotate(-0 770.992188 40.43625)">gcc-14.2 - V1</text>
    </g>
    <g id="line2d_26">
     <path d="M 742.992188 51.614375 
L 752.992188 51.614375 
L 762.992188 51.614375 
" style="fill: none; stroke: #ff7f0e; stroke-width: 2; stroke-linecap: square"/>
     <g>
      <use xlink:href="#m1ac30314c7" x="752.992188" y="51.614375" style="fill: #ff7f0e; stroke: #ff7f0e"/>
     </g>
    </g>
    <g id="text_15">
     <text style="font: 10px 'DejaVu Sans', 'Bitstream Vera Sans', 'Computer Modern Sans Serif', 'Lucida Grande', 'Verdana', 'Geneva', 'Lucid', 'Arial', 'Helvetica', 'Avant Garde', sans-serif; text-anchor: start" x="770.992188" y="55.114375" transform="rotate(-0 770.992188 55.114375)">gcc-14.2 - V2</text>
    </g>
    <g id="line2d_27">
     <path d="M 742.992188 66.2925 
L 752.992188 66.2925 
L 762.992188 66.2925 
" style="fill: none; stroke: #2ca02c; stroke-width: 2; stroke-linecap: square"/>
     <g>
      <use xlink:href="#m6b6174d067" x="752.992188" y="66.2925" style="fill: #2ca02c; stroke: #2ca02c"/>
     </g>
    </g>
    <g id="text_16">
     <text style="font: 10px 'DejaVu Sans', 'Bitstream Vera Sans', 'Computer Modern Sans Serif', 'Lucida Grande', 'Verdana', 'Geneva', 'Lucid', 'Arial', 'Helvetica', 'Avant Garde', sans-serif; text-anchor: start" x="770.992188" y="69.7925" transform="rotate(-0 770.992188 69.7925)">gcc-14.2 - TBB</text>
    </g>
    <g id="line2d_28">
     <path d="M 742.992188 80.970625 
L 752.992188 80.970625 
L 762.992188 80.970625 
" style="fill: none; stroke: #d62728; stroke-width: 2; stroke-linecap: square"/>
     <g>
      <use xlink:href="#m998d92e724" x="752.992188" y="80.970625" style="fill: #d62728; stroke: #d62728"/>
     </g>
    </g>
    <g id="text_17">
     <text style="font: 10px 'DejaVu Sans', 'Bitstream Vera Sans', 'Computer Modern Sans Serif', 'Lucida Grande', 'Verdana', 'Geneva', 'Lucid', 'Arial', 'Helvetica', 'Avant Garde', sans-serif; text-anchor: start" x="770.992188" y="84.470625" transform="rotate(-0 770.992188 84.470625)">gcc-4.2 - V1</text>
    </g>
    <g id="line2d_29">
     <path d="M 742.992188 95.64875 
L 752.992188 95.64875 
L 762.992188 95.64875 
" style="fill: none; stroke: #9467bd; stroke-width: 2; stroke-linecap: square"/>
     <g>
      <use xlink:href="#m99b655f71f" x="752.992188" y="95.64875" style="fill: #9467bd; stroke: #9467bd"/>
     </g>
    </g>
    <g id="text_18">
     <text style="font: 10px 'DejaVu Sans', 'Bitstream Vera Sans', 'Computer Modern Sans Serif', 'Lucida Grande', 'Verdana', 'Geneva', 'Lucid', 'Arial', 'Helvetica', 'Avant Garde', sans-serif; text-anchor: start" x="770.992188" y="99.14875" transform="rotate(-0 770.992188 99.14875)">gcc-4.2 - V2</text>
    </g>
    <g id="line2d_30">
     <path d="M 742.992188 110.326875 
L 752.992188 110.326875 
L 762.992188 110.326875 
" style="fill: none; stroke: #8c564b; stroke-width: 2; stroke-linecap: square"/>
     <g>
      <use xlink:href="#m33476452c8" x="752.992188" y="110.326875" style="fill: #8c564b; stroke: #8c564b"/>
     </g>
    </g>
    <g id="text_19">
     <text style="font: 10px 'DejaVu Sans', 'Bitstream Vera Sans', 'Computer Modern Sans Serif', 'Lucida Grande', 'Verdana', 'Geneva', 'Lucid', 'Arial', 'Helvetica', 'Avant Garde', sans-serif; text-anchor: start" x="770.992188" y="113.826875" transform="rotate(-0 770.992188 113.826875)">gcc-4.2 - TBB</text>
    </g>
   </g>
  </g>
 </g>
 <defs>
  <clipPath id="p11cab3932e">
   <rect x="64.41375" y="23.837813" width="637.69375" height="505.470313"/>
  </clipPath>
 </defs>
</svg>
