<?xml version="1.0" encoding="utf-8" standalone="no"?>
<!DOCTYPE svg PUBLIC "-//W3C//DTD SVG 1.1//EN"
  "http://www.w3.org/Graphics/SVG/1.1/DTD/svg11.dtd">
<svg xmlns:xlink="http://www.w3.org/1999/xlink" width="847.981719pt" height="568.8pt" viewBox="0 0 847.981719 568.8" xmlns="http://www.w3.org/2000/svg" version="1.1">
 <metadata>
  <rdf:RDF xmlns:dc="http://purl.org/dc/elements/1.1/" xmlns:cc="http://creativecommons.org/ns#" xmlns:rdf="http://www.w3.org/1999/02/22-rdf-syntax-ns#">
   <cc:Work>
    <dc:type rdf:resource="http://purl.org/dc/dcmitype/StillImage"/>
    <dc:date>2025-08-30T10:56:16.389818</dc:date>
    <dc:format>image/svg+xml</dc:format>
    <dc:creator>
     <cc:Agent>
      <dc:title>Matplotlib v3.9.4, https://matplotlib.org/</dc:title>
     </cc:Agent>
    </dc:creator>
   </cc:Work>
  </rdf:RDF>
 </metadata>
 <defs>
  <style type="text/css">*{stroke-linejoin: round; stroke-linecap: butt}</style>
 </defs>
 <g id="figure_1">
  <g id="patch_1">
   <path d="M 0 568.8 
L 847.981719 568.8 
L 847.981719 0 
L 0 0 
z
" style="fill: #ffffff"/>
  </g>
  <g id="axes_1">
   <g id="patch_2">
    <path d="M 47.41375 529.308125 
L 540.648125 529.308125 
L 540.648125 23.837812 
L 47.41375 23.837812 
z
" style="fill: #ffffff"/>
   </g>
   <g id="matplotlib.axis_1">
    <g id="xtick_1">
     <g id="line2d_1">
      <path d="M 69.833494 529.308125 
L 69.833494 23.837812 
" clip-path="url(#p1053814200)" style="fill: none; stroke: #b0b0b0; stroke-opacity: 0.3; stroke-width: 0.8; stroke-linecap: square"/>
     </g>
     <g id="line2d_2">
      <defs>
       <path id="m54ce67ae07" d="M 0 0 
L 0 3.5 
" style="stroke: #000000; stroke-width: 0.8"/>
      </defs>
      <g>
       <use xlink:href="#m54ce67ae07" x="69.833494" y="529.308125" style="stroke: #000000; stroke-width: 0.8"/>
      </g>
     </g>
     <g id="text_1">
      <text style="font: 10px 'DejaVu Sans', 'Bitstream Vera Sans', 'Computer Modern Sans Serif', 'Lucida Grande', 'Verdana', 'Geneva', 'Lucid', 'Arial', 'Helvetica', 'Avant Garde', sans-serif; text-anchor: middle" x="69.833494" y="543.906563" transform="rotate(-0 69.833494 543.906563)">96</text>
     </g>
    </g>
    <g id="xtick_2">
     <g id="line2d_3">
      <path d="M 129.619479 529.308125 
L 129.619479 23.837812 
" clip-path="url(#p1053814200)" style="fill: none; stroke: #b0b0b0; stroke-opacity: 0.3; stroke-width: 0.8; stroke-linecap: square"/>
     </g>
     <g id="line2d_4">
      <g>
       <use xlink:href="#m54ce67ae07" x="129.619479" y="529.308125" style="stroke: #000000; stroke-width: 0.8"/>
      </g>
     </g>
     <g id="text_2">
      <text style="font: 10px 'DejaVu Sans', 'Bitstream Vera Sans', 'Computer Modern Sans Serif', 'Lucida Grande', 'Verdana', 'Geneva', 'Lucid', 'Arial', 'Helvetica', 'Avant Garde', sans-serif; text-anchor: middle" x="129.619479" y="543.906563" transform="rotate(-0 129.619479 543.906563)">98</text>
     </g>
    </g>
    <g id="xtick_3">
     <g id="line2d_5">
      <path d="M 189.405464 529.308125 
L 189.405464 23.837812 
" clip-path="url(#p1053814200)" style="fill: none; stroke: #b0b0b0; stroke-opacity: 0.3; stroke-width: 0.8; stroke-linecap: square"/>
     </g>
     <g id="line2d_6">
      <g>
       <use xlink:href="#m54ce67ae07" x="189.405464" y="529.308125" style="stroke: #000000; stroke-width: 0.8"/>
      </g>
     </g>
     <g id="text_3">
      <text style="font: 10px 'DejaVu Sans', 'Bitstream Vera Sans', 'Computer Modern Sans Serif', 'Lucida Grande', 'Verdana', 'Geneva', 'Lucid', 'Arial', 'Helvetica', 'Avant Garde', sans-serif; text-anchor: middle" x="189.405464" y="543.906563" transform="rotate(-0 189.405464 543.906563)">100</text>
     </g>
    </g>
    <g id="xtick_4">
     <g id="line2d_7">
      <path d="M 249.191449 529.308125 
L 249.191449 23.837812 
" clip-path="url(#p1053814200)" style="fill: none; stroke: #b0b0b0; stroke-opacity: 0.3; stroke-width: 0.8; stroke-linecap: square"/>
     </g>
     <g id="line2d_8">
      <g>
       <use xlink:href="#m54ce67ae07" x="249.191449" y="529.308125" style="stroke: #000000; stroke-width: 0.8"/>
      </g>
     </g>
     <g id="text_4">
      <text style="font: 10px 'DejaVu Sans', 'Bitstream Vera Sans', 'Computer Modern Sans Serif', 'Lucida Grande', 'Verdana', 'Geneva', 'Lucid', 'Arial', 'Helvetica', 'Avant Garde', sans-serif; text-anchor: middle" x="249.191449" y="543.906563" transform="rotate(-0 249.191449 543.906563)">102</text>
     </g>
    </g>
    <g id="xtick_5">
     <g id="line2d_9">
      <path d="M 308.977434 529.308125 
L 308.977434 23.837812 
" clip-path="url(#p1053814200)" style="fill: none; stroke: #b0b0b0; stroke-opacity: 0.3; stroke-width: 0.8; stroke-linecap: square"/>
     </g>
     <g id="line2d_10">
      <g>
       <use xlink:href="#m54ce67ae07" x="308.977434" y="529.308125" style="stroke: #000000; stroke-width: 0.8"/>
      </g>
     </g>
     <g id="text_5">
      <text style="font: 10px 'DejaVu Sans', 'Bitstream Vera Sans', 'Computer Modern Sans Serif', 'Lucida Grande', 'Verdana', 'Geneva', 'Lucid', 'Arial', 'Helvetica', 'Avant Garde', sans-serif; text-anchor: middle" x="308.977434" y="543.906563" transform="rotate(-0 308.977434 543.906563)">104</text>
     </g>
    </g>
    <g id="xtick_6">
     <g id="line2d_11">
      <path d="M 368.763419 529.308125 
L 368.763419 23.837812 
" clip-path="url(#p1053814200)" style="fill: none; stroke: #b0b0b0; stroke-opacity: 0.3; stroke-width: 0.8; stroke-linecap: square"/>
     </g>
     <g id="line2d_12">
      <g>
       <use xlink:href="#m54ce67ae07" x="368.763419" y="529.308125" style="stroke: #000000; stroke-width: 0.8"/>
      </g>
     </g>
     <g id="text_6">
      <text style="font: 10px 'DejaVu Sans', 'Bitstream Vera Sans', 'Computer Modern Sans Serif', 'Lucida Grande', 'Verdana', 'Geneva', 'Lucid', 'Arial', 'Helvetica', 'Avant Garde', sans-serif; text-anchor: middle" x="368.763419" y="543.906563" transform="rotate(-0 368.763419 543.906563)">106</text>
     </g>
    </g>
    <g id="xtick_7">
     <g id="line2d_13">
      <path d="M 428.549403 529.308125 
L 428.549403 23.837812 
" clip-path="url(#p1053814200)" style="fill: none; stroke: #b0b0b0; stroke-opacity: 0.3; stroke-width: 0.8; stroke-linecap: square"/>
     </g>
     <g id="line2d_14">
      <g>
       <use xlink:href="#m54ce67ae07" x="428.549403" y="529.308125" style="stroke: #000000; stroke-width: 0.8"/>
      </g>
     </g>
     <g id="text_7">
      <text style="font: 10px 'DejaVu Sans', 'Bitstream Vera Sans', 'Computer Modern Sans Serif', 'Lucida Grande', 'Verdana', 'Geneva', 'Lucid', 'Arial', 'Helvetica', 'Avant Garde', sans-serif; text-anchor: middle" x="428.549403" y="543.906563" transform="rotate(-0 428.549403 543.906563)">108</text>
     </g>
    </g>
    <g id="xtick_8">
     <g id="line2d_15">
      <path d="M 488.335388 529.308125 
L 488.335388 23.837812 
" clip-path="url(#p1053814200)" style="fill: none; stroke: #b0b0b0; stroke-opacity: 0.3; stroke-width: 0.8; stroke-linecap: square"/>
     </g>
     <g id="line2d_16">
      <g>
       <use xlink:href="#m54ce67ae07" x="488.335388" y="529.308125" style="stroke: #000000; stroke-width: 0.8"/>
      </g>
     </g>
     <g id="text_8">
      <text style="font: 10px 'DejaVu Sans', 'Bitstream Vera Sans', 'Computer Modern Sans Serif', 'Lucida Grande', 'Verdana', 'Geneva', 'Lucid', 'Arial', 'Helvetica', 'Avant Garde', sans-serif; text-anchor: middle" x="488.335388" y="543.906563" transform="rotate(-0 488.335388 543.906563)">110</text>
     </g>
    </g>
    <g id="text_9">
     <text style="font: 12px 'DejaVu Sans', 'Bitstream Vera Sans', 'Computer Modern Sans Serif', 'Lucida Grande', 'Verdana', 'Geneva', 'Lucid', 'Arial', 'Helvetica', 'Avant Garde', sans-serif; text-anchor: middle" x="294.030937" y="559.104375" transform="rotate(-0 294.030937 559.104375)">Build Number</text>
    </g>
   </g>
   <g id="matplotlib.axis_2">
    <g id="ytick_1">
     <g id="line2d_17">
      <path d="M 47.41375 518.657235 
L 540.648125 518.657235 
" clip-path="url(#p1053814200)" style="fill: none; stroke: #b0b0b0; stroke-opacity: 0.3; stroke-width: 0.8; stroke-linecap: square"/>
     </g>
     <g id="line2d_18">
      <defs>
       <path id="ma57bc9a131" d="M 0 0 
L -3.5 0 
" style="stroke: #000000; stroke-width: 0.8"/>
      </defs>
      <g>
       <use xlink:href="#ma57bc9a131" x="47.41375" y="518.657235" style="stroke: #000000; stroke-width: 0.8"/>
      </g>
     </g>
     <g id="text_10">
      <!-- $\mathdefault{10^{5}}$ -->
      <g transform="translate(22.81375 522.456454)">
       <text>
        <tspan style="font: 10px 'DejaVu Sans'" x="0 6.362305" y="-0.06406250000000036">10</tspan>
        <tspan style="font: 7px 'DejaVu Sans'" x="12.820312" y="-3.8921875000000004">5</tspan>
       </text>
      </g>
     </g>
    </g>
    <g id="ytick_2">
     <g id="line2d_19">
      <path d="M 47.41375 361.458702 
L 540.648125 361.458702 
" clip-path="url(#p1053814200)" style="fill: none; stroke: #b0b0b0; stroke-opacity: 0.3; stroke-width: 0.8; stroke-linecap: square"/>
     </g>
     <g id="line2d_20">
      <g>
       <use xlink:href="#ma57bc9a131" x="47.41375" y="361.458702" style="stroke: #000000; stroke-width: 0.8"/>
      </g>
     </g>
     <g id="text_11">
      <!-- $\mathdefault{10^{6}}$ -->
      <g transform="translate(22.81375 365.257921)">
       <text>
        <tspan style="font: 10px 'DejaVu Sans'" x="0 6.362305" y="-0.9765625">10</tspan>
        <tspan style="font: 7px 'DejaVu Sans'" x="12.820312" y="-4.8046875">6</tspan>
       </text>
      </g>
     </g>
    </g>
    <g id="ytick_3">
     <g id="line2d_21">
      <path d="M 47.41375 204.260169 
L 540.648125 204.260169 
" clip-path="url(#p1053814200)" style="fill: none; stroke: #b0b0b0; stroke-opacity: 0.3; stroke-width: 0.8; stroke-linecap: square"/>
     </g>
     <g id="line2d_22">
      <g>
       <use xlink:href="#ma57bc9a131" x="47.41375" y="204.260169" style="stroke: #000000; stroke-width: 0.8"/>
      </g>
     </g>
     <g id="text_12">
      <!-- $\mathdefault{10^{7}}$ -->
      <g transform="translate(22.81375 208.059388)">
       <text>
        <tspan style="font: 10px 'DejaVu Sans'" x="0 6.362305" y="-0.06406250000000036">10</tspan>
        <tspan style="font: 7px 'DejaVu Sans'" x="12.820312" y="-3.8921875000000004">7</tspan>
       </text>
      </g>
     </g>
    </g>
    <g id="ytick_4">
     <g id="line2d_23">
      <path d="M 47.41375 47.061636 
L 540.648125 47.061636 
" clip-path="url(#p1053814200)" style="fill: none; stroke: #b0b0b0; stroke-opacity: 0.3; stroke-width: 0.8; stroke-linecap: square"/>
     </g>
     <g id="line2d_24">
      <g>
       <use xlink:href="#ma57bc9a131" x="47.41375" y="47.061636" style="stroke: #000000; stroke-width: 0.8"/>
      </g>
     </g>
     <g id="text_13">
      <!-- $\mathdefault{10^{8}}$ -->
      <g transform="translate(22.81375 50.860855)">
       <text>
        <tspan style="font: 10px 'DejaVu Sans'" x="0 6.362305" y="-0.9765625">10</tspan>
        <tspan style="font: 7px 'DejaVu Sans'" x="12.820312" y="-4.8046875">8</tspan>
       </text>
      </g>
     </g>
    </g>
    <g id="ytick_5">
     <g id="line2d_25">
      <defs>
       <path id="mdccb1bb9fd" d="M 0 0 
L -2 0 
" style="stroke: #000000; stroke-width: 0.6"/>
      </defs>
      <g>
       <use xlink:href="#mdccb1bb9fd" x="47.41375" y="525.850245" style="stroke: #000000; stroke-width: 0.6"/>
      </g>
     </g>
    </g>
    <g id="ytick_6">
     <g id="line2d_26">
      <g>
       <use xlink:href="#mdccb1bb9fd" x="47.41375" y="471.335761" style="stroke: #000000; stroke-width: 0.6"/>
      </g>
     </g>
    </g>
    <g id="ytick_7">
     <g id="line2d_27">
      <g>
       <use xlink:href="#mdccb1bb9fd" x="47.41375" y="443.654474" style="stroke: #000000; stroke-width: 0.6"/>
      </g>
     </g>
    </g>
    <g id="ytick_8">
     <g id="line2d_28">
      <g>
       <use xlink:href="#mdccb1bb9fd" x="47.41375" y="424.014287" style="stroke: #000000; stroke-width: 0.6"/>
      </g>
     </g>
    </g>
    <g id="ytick_9">
     <g id="line2d_29">
      <g>
       <use xlink:href="#mdccb1bb9fd" x="47.41375" y="408.780176" style="stroke: #000000; stroke-width: 0.6"/>
      </g>
     </g>
    </g>
    <g id="ytick_10">
     <g id="line2d_30">
      <g>
       <use xlink:href="#mdccb1bb9fd" x="47.41375" y="396.333" style="stroke: #000000; stroke-width: 0.6"/>
      </g>
     </g>
    </g>
    <g id="ytick_11">
     <g id="line2d_31">
      <g>
       <use xlink:href="#mdccb1bb9fd" x="47.41375" y="385.809063" style="stroke: #000000; stroke-width: 0.6"/>
      </g>
     </g>
    </g>
    <g id="ytick_12">
     <g id="line2d_32">
      <g>
       <use xlink:href="#mdccb1bb9fd" x="47.41375" y="376.692814" style="stroke: #000000; stroke-width: 0.6"/>
      </g>
     </g>
    </g>
    <g id="ytick_13">
     <g id="line2d_33">
      <g>
       <use xlink:href="#mdccb1bb9fd" x="47.41375" y="368.651712" style="stroke: #000000; stroke-width: 0.6"/>
      </g>
     </g>
    </g>
    <g id="ytick_14">
     <g id="line2d_34">
      <g>
       <use xlink:href="#mdccb1bb9fd" x="47.41375" y="314.137228" style="stroke: #000000; stroke-width: 0.6"/>
      </g>
     </g>
    </g>
    <g id="ytick_15">
     <g id="line2d_35">
      <g>
       <use xlink:href="#mdccb1bb9fd" x="47.41375" y="286.455941" style="stroke: #000000; stroke-width: 0.6"/>
      </g>
     </g>
    </g>
    <g id="ytick_16">
     <g id="line2d_36">
      <g>
       <use xlink:href="#mdccb1bb9fd" x="47.41375" y="266.815755" style="stroke: #000000; stroke-width: 0.6"/>
      </g>
     </g>
    </g>
    <g id="ytick_17">
     <g id="line2d_37">
      <g>
       <use xlink:href="#mdccb1bb9fd" x="47.41375" y="251.581643" style="stroke: #000000; stroke-width: 0.6"/>
      </g>
     </g>
    </g>
    <g id="ytick_18">
     <g id="line2d_38">
      <g>
       <use xlink:href="#mdccb1bb9fd" x="47.41375" y="239.134467" style="stroke: #000000; stroke-width: 0.6"/>
      </g>
     </g>
    </g>
    <g id="ytick_19">
     <g id="line2d_39">
      <g>
       <use xlink:href="#mdccb1bb9fd" x="47.41375" y="228.61053" style="stroke: #000000; stroke-width: 0.6"/>
      </g>
     </g>
    </g>
    <g id="ytick_20">
     <g id="line2d_40">
      <g>
       <use xlink:href="#mdccb1bb9fd" x="47.41375" y="219.494281" style="stroke: #000000; stroke-width: 0.6"/>
      </g>
     </g>
    </g>
    <g id="ytick_21">
     <g id="line2d_41">
      <g>
       <use xlink:href="#mdccb1bb9fd" x="47.41375" y="211.453179" style="stroke: #000000; stroke-width: 0.6"/>
      </g>
     </g>
    </g>
    <g id="ytick_22">
     <g id="line2d_42">
      <g>
       <use xlink:href="#mdccb1bb9fd" x="47.41375" y="156.938695" style="stroke: #000000; stroke-width: 0.6"/>
      </g>
     </g>
    </g>
    <g id="ytick_23">
     <g id="line2d_43">
      <g>
       <use xlink:href="#mdccb1bb9fd" x="47.41375" y="129.257408" style="stroke: #000000; stroke-width: 0.6"/>
      </g>
     </g>
    </g>
    <g id="ytick_24">
     <g id="line2d_44">
      <g>
       <use xlink:href="#mdccb1bb9fd" x="47.41375" y="109.617222" style="stroke: #000000; stroke-width: 0.6"/>
      </g>
     </g>
    </g>
    <g id="ytick_25">
     <g id="line2d_45">
      <g>
       <use xlink:href="#mdccb1bb9fd" x="47.41375" y="94.38311" style="stroke: #000000; stroke-width: 0.6"/>
      </g>
     </g>
    </g>
    <g id="ytick_26">
     <g id="line2d_46">
      <g>
       <use xlink:href="#mdccb1bb9fd" x="47.41375" y="81.935934" style="stroke: #000000; stroke-width: 0.6"/>
      </g>
     </g>
    </g>
    <g id="ytick_27">
     <g id="line2d_47">
      <g>
       <use xlink:href="#mdccb1bb9fd" x="47.41375" y="71.411997" style="stroke: #000000; stroke-width: 0.6"/>
      </g>
     </g>
    </g>
    <g id="ytick_28">
     <g id="line2d_48">
      <g>
       <use xlink:href="#mdccb1bb9fd" x="47.41375" y="62.295748" style="stroke: #000000; stroke-width: 0.6"/>
      </g>
     </g>
    </g>
    <g id="ytick_29">
     <g id="line2d_49">
      <g>
       <use xlink:href="#mdccb1bb9fd" x="47.41375" y="54.254646" style="stroke: #000000; stroke-width: 0.6"/>
      </g>
     </g>
    </g>
    <g id="text_14">
     <text style="font: 12px 'DejaVu Sans', 'Bitstream Vera Sans', 'Computer Modern Sans Serif', 'Lucida Grande', 'Verdana', 'Geneva', 'Lucid', 'Arial', 'Helvetica', 'Avant Garde', sans-serif; text-anchor: middle" x="16.318125" y="276.572969" transform="rotate(-90 16.318125 276.572969)">Median Elapsed Time (nanoseconds)</text>
    </g>
   </g>
   <g id="line2d_50">
    <path d="M 69.833494 46.836469 
L 99.726487 46.909668 
L 159.512472 46.907631 
L 189.405464 46.89928 
L 219.298456 46.908295 
L 249.191449 46.907249 
L 279.084441 46.905268 
L 308.977434 46.908045 
L 338.870426 46.897502 
L 368.763419 46.902405 
L 428.549403 46.896815 
L 458.442396 46.813736 
L 488.335388 46.911346 
L 518.228381 46.908459 
" clip-path="url(#p1053814200)" style="fill: none; stroke: #1f77b4; stroke-width: 2; stroke-linecap: square"/>
    <defs>
     <path id="mfc5552f8f6" d="M 0 3 
C 0.795609 3 1.55874 2.683901 2.12132 2.12132 
C 2.683901 1.55874 3 0.795609 3 0 
C 3 -0.795609 2.683901 -1.55874 2.12132 -2.12132 
C 1.55874 -2.683901 0.795609 -3 0 -3 
C -0.795609 -3 -1.55874 -2.683901 -2.12132 -2.12132 
C -2.683901 -1.55874 -3 -0.795609 -3 0 
C -3 0.795609 -2.683901 1.55874 -2.12132 2.12132 
C -1.55874 2.683901 -0.795609 3 0 3 
z
" style="stroke: #1f77b4"/>
    </defs>
    <g clip-path="url(#p1053814200)">
     <use xlink:href="#mfc5552f8f6" x="69.833494" y="46.836469" style="fill: #1f77b4; stroke: #1f77b4"/>
     <use xlink:href="#mfc5552f8f6" x="99.726487" y="46.909668" style="fill: #1f77b4; stroke: #1f77b4"/>
     <use xlink:href="#mfc5552f8f6" x="159.512472" y="46.907631" style="fill: #1f77b4; stroke: #1f77b4"/>
     <use xlink:href="#mfc5552f8f6" x="189.405464" y="46.89928" style="fill: #1f77b4; stroke: #1f77b4"/>
     <use xlink:href="#mfc5552f8f6" x="219.298456" y="46.908295" style="fill: #1f77b4; stroke: #1f77b4"/>
     <use xlink:href="#mfc5552f8f6" x="249.191449" y="46.907249" style="fill: #1f77b4; stroke: #1f77b4"/>
     <use xlink:href="#mfc5552f8f6" x="279.084441" y="46.905268" style="fill: #1f77b4; stroke: #1f77b4"/>
     <use xlink:href="#mfc5552f8f6" x="308.977434" y="46.908045" style="fill: #1f77b4; stroke: #1f77b4"/>
     <use xlink:href="#mfc5552f8f6" x="338.870426" y="46.897502" style="fill: #1f77b4; stroke: #1f77b4"/>
     <use xlink:href="#mfc5552f8f6" x="368.763419" y="46.902405" style="fill: #1f77b4; stroke: #1f77b4"/>
     <use xlink:href="#mfc5552f8f6" x="428.549403" y="46.896815" style="fill: #1f77b4; stroke: #1f77b4"/>
     <use xlink:href="#mfc5552f8f6" x="458.442396" y="46.813736" style="fill: #1f77b4; stroke: #1f77b4"/>
     <use xlink:href="#mfc5552f8f6" x="488.335388" y="46.911346" style="fill: #1f77b4; stroke: #1f77b4"/>
     <use xlink:href="#mfc5552f8f6" x="518.228381" y="46.908459" style="fill: #1f77b4; stroke: #1f77b4"/>
    </g>
   </g>
   <g id="line2d_51">
    <path d="M 69.833494 319.013878 
L 99.726487 320.370044 
L 159.512472 319.646061 
L 189.405464 320.008847 
L 219.298456 320.365938 
L 249.191449 320.008419 
L 279.084441 320.268247 
L 308.977434 320.21573 
L 338.870426 319.671702 
L 368.763419 320.397488 
L 428.549403 320.053019 
L 458.442396 318.798309 
L 488.335388 320.264744 
L 518.228381 320.11231 
" clip-path="url(#p1053814200)" style="fill: none; stroke: #ff7f0e; stroke-width: 2; stroke-linecap: square"/>
    <defs>
     <path id="m489896ba81" d="M 0 3 
C 0.795609 3 1.55874 2.683901 2.12132 2.12132 
C 2.683901 1.55874 3 0.795609 3 0 
C 3 -0.795609 2.683901 -1.55874 2.12132 -2.12132 
C 1.55874 -2.683901 0.795609 -3 0 -3 
C -0.795609 -3 -1.55874 -2.683901 -2.12132 -2.12132 
C -2.683901 -1.55874 -3 -0.795609 -3 0 
C -3 0.795609 -2.683901 1.55874 -2.12132 2.12132 
C -1.55874 2.683901 -0.795609 3 0 3 
z
" style="stroke: #ff7f0e"/>
    </defs>
    <g clip-path="url(#p1053814200)">
     <use xlink:href="#m489896ba81" x="69.833494" y="319.013878" style="fill: #ff7f0e; stroke: #ff7f0e"/>
     <use xlink:href="#m489896ba81" x="99.726487" y="320.370044" style="fill: #ff7f0e; stroke: #ff7f0e"/>
     <use xlink:href="#m489896ba81" x="159.512472" y="319.646061" style="fill: #ff7f0e; stroke: #ff7f0e"/>
     <use xlink:href="#m489896ba81" x="189.405464" y="320.008847" style="fill: #ff7f0e; stroke: #ff7f0e"/>
     <use xlink:href="#m489896ba81" x="219.298456" y="320.365938" style="fill: #ff7f0e; stroke: #ff7f0e"/>
     <use xlink:href="#m489896ba81" x="249.191449" y="320.008419" style="fill: #ff7f0e; stroke: #ff7f0e"/>
     <use xlink:href="#m489896ba81" x="279.084441" y="320.268247" style="fill: #ff7f0e; stroke: #ff7f0e"/>
     <use xlink:href="#m489896ba81" x="308.977434" y="320.21573" style="fill: #ff7f0e; stroke: #ff7f0e"/>
     <use xlink:href="#m489896ba81" x="338.870426" y="319.671702" style="fill: #ff7f0e; stroke: #ff7f0e"/>
     <use xlink:href="#m489896ba81" x="368.763419" y="320.397488" style="fill: #ff7f0e; stroke: #ff7f0e"/>
     <use xlink:href="#m489896ba81" x="428.549403" y="320.053019" style="fill: #ff7f0e; stroke: #ff7f0e"/>
     <use xlink:href="#m489896ba81" x="458.442396" y="318.798309" style="fill: #ff7f0e; stroke: #ff7f0e"/>
     <use xlink:href="#m489896ba81" x="488.335388" y="320.264744" style="fill: #ff7f0e; stroke: #ff7f0e"/>
     <use xlink:href="#m489896ba81" x="518.228381" y="320.11231" style="fill: #ff7f0e; stroke: #ff7f0e"/>
    </g>
   </g>
   <g id="line2d_52">
    <path d="M 69.833494 46.87772 
L 99.726487 46.872229 
L 159.512472 46.855349 
L 189.405464 46.864596 
L 219.298456 46.877236 
L 249.191449 46.87031 
L 279.084441 46.86692 
L 308.977434 46.871591 
L 338.870426 46.881266 
L 368.763419 46.872885 
L 428.549403 46.877829 
L 458.442396 46.866583 
L 488.335388 46.88865 
L 518.228381 46.87306 
" clip-path="url(#p1053814200)" style="fill: none; stroke: #2ca02c; stroke-width: 2; stroke-linecap: square"/>
    <defs>
     <path id="m2f5b6a453d" d="M 0 3 
C 0.795609 3 1.55874 2.683901 2.12132 2.12132 
C 2.683901 1.55874 3 0.795609 3 0 
C 3 -0.795609 2.683901 -1.55874 2.12132 -2.12132 
C 1.55874 -2.683901 0.795609 -3 0 -3 
C -0.795609 -3 -1.55874 -2.683901 -2.12132 -2.12132 
C -2.683901 -1.55874 -3 -0.795609 -3 0 
C -3 0.795609 -2.683901 1.55874 -2.12132 2.12132 
C -1.55874 2.683901 -0.795609 3 0 3 
z
" style="stroke: #2ca02c"/>
    </defs>
    <g clip-path="url(#p1053814200)">
     <use xlink:href="#m2f5b6a453d" x="69.833494" y="46.87772" style="fill: #2ca02c; stroke: #2ca02c"/>
     <use xlink:href="#m2f5b6a453d" x="99.726487" y="46.872229" style="fill: #2ca02c; stroke: #2ca02c"/>
     <use xlink:href="#m2f5b6a453d" x="159.512472" y="46.855349" style="fill: #2ca02c; stroke: #2ca02c"/>
     <use xlink:href="#m2f5b6a453d" x="189.405464" y="46.864596" style="fill: #2ca02c; stroke: #2ca02c"/>
     <use xlink:href="#m2f5b6a453d" x="219.298456" y="46.877236" style="fill: #2ca02c; stroke: #2ca02c"/>
     <use xlink:href="#m2f5b6a453d" x="249.191449" y="46.87031" style="fill: #2ca02c; stroke: #2ca02c"/>
     <use xlink:href="#m2f5b6a453d" x="279.084441" y="46.86692" style="fill: #2ca02c; stroke: #2ca02c"/>
     <use xlink:href="#m2f5b6a453d" x="308.977434" y="46.871591" style="fill: #2ca02c; stroke: #2ca02c"/>
     <use xlink:href="#m2f5b6a453d" x="338.870426" y="46.881266" style="fill: #2ca02c; stroke: #2ca02c"/>
     <use xlink:href="#m2f5b6a453d" x="368.763419" y="46.872885" style="fill: #2ca02c; stroke: #2ca02c"/>
     <use xlink:href="#m2f5b6a453d" x="428.549403" y="46.877829" style="fill: #2ca02c; stroke: #2ca02c"/>
     <use xlink:href="#m2f5b6a453d" x="458.442396" y="46.866583" style="fill: #2ca02c; stroke: #2ca02c"/>
     <use xlink:href="#m2f5b6a453d" x="488.335388" y="46.88865" style="fill: #2ca02c; stroke: #2ca02c"/>
     <use xlink:href="#m2f5b6a453d" x="518.228381" y="46.87306" style="fill: #2ca02c; stroke: #2ca02c"/>
    </g>
   </g>
   <g id="line2d_53">
    <path d="M 69.833494 351.251468 
L 99.726487 351.168889 
L 159.512472 350.881568 
L 189.405464 350.972283 
L 219.298456 351.227415 
L 249.191449 350.999121 
L 279.084441 351.142987 
L 308.977434 350.933996 
L 338.870426 351.781877 
L 368.763419 350.973817 
L 428.549403 351.280569 
L 458.442396 350.677578 
L 488.335388 351.411186 
L 518.228381 350.555449 
" clip-path="url(#p1053814200)" style="fill: none; stroke: #d62728; stroke-width: 2; stroke-linecap: square"/>
    <defs>
     <path id="m36b0a6865b" d="M 0 3 
C 0.795609 3 1.55874 2.683901 2.12132 2.12132 
C 2.683901 1.55874 3 0.795609 3 0 
C 3 -0.795609 2.683901 -1.55874 2.12132 -2.12132 
C 1.55874 -2.683901 0.795609 -3 0 -3 
C -0.795609 -3 -1.55874 -2.683901 -2.12132 -2.12132 
C -2.683901 -1.55874 -3 -0.795609 -3 0 
C -3 0.795609 -2.683901 1.55874 -2.12132 2.12132 
C -1.55874 2.683901 -0.795609 3 0 3 
z
" style="stroke: #d62728"/>
    </defs>
    <g clip-path="url(#p1053814200)">
     <use xlink:href="#m36b0a6865b" x="69.833494" y="351.251468" style="fill: #d62728; stroke: #d62728"/>
     <use xlink:href="#m36b0a6865b" x="99.726487" y="351.168889" style="fill: #d62728; stroke: #d62728"/>
     <use xlink:href="#m36b0a6865b" x="159.512472" y="350.881568" style="fill: #d62728; stroke: #d62728"/>
     <use xlink:href="#m36b0a6865b" x="189.405464" y="350.972283" style="fill: #d62728; stroke: #d62728"/>
     <use xlink:href="#m36b0a6865b" x="219.298456" y="351.227415" style="fill: #d62728; stroke: #d62728"/>
     <use xlink:href="#m36b0a6865b" x="249.191449" y="350.999121" style="fill: #d62728; stroke: #d62728"/>
     <use xlink:href="#m36b0a6865b" x="279.084441" y="351.142987" style="fill: #d62728; stroke: #d62728"/>
     <use xlink:href="#m36b0a6865b" x="308.977434" y="350.933996" style="fill: #d62728; stroke: #d62728"/>
     <use xlink:href="#m36b0a6865b" x="338.870426" y="351.781877" style="fill: #d62728; stroke: #d62728"/>
     <use xlink:href="#m36b0a6865b" x="368.763419" y="350.973817" style="fill: #d62728; stroke: #d62728"/>
     <use xlink:href="#m36b0a6865b" x="428.549403" y="351.280569" style="fill: #d62728; stroke: #d62728"/>
     <use xlink:href="#m36b0a6865b" x="458.442396" y="350.677578" style="fill: #d62728; stroke: #d62728"/>
     <use xlink:href="#m36b0a6865b" x="488.335388" y="351.411186" style="fill: #d62728; stroke: #d62728"/>
     <use xlink:href="#m36b0a6865b" x="518.228381" y="350.555449" style="fill: #d62728; stroke: #d62728"/>
    </g>
   </g>
   <g id="line2d_54">
    <path d="M 69.833494 505.683172 
L 99.726487 506.059178 
L 159.512472 505.255459 
L 189.405464 504.972562 
L 219.298456 505.602433 
L 249.191449 504.652563 
L 279.084441 505.739763 
L 308.977434 506.332202 
L 338.870426 504.492986 
L 368.763419 504.275522 
L 428.549403 505.502925 
L 458.442396 505.625782 
L 488.335388 506.254563 
L 518.228381 505.250074 
" clip-path="url(#p1053814200)" style="fill: none; stroke: #9467bd; stroke-width: 2; stroke-linecap: square"/>
    <defs>
     <path id="mb2639cc56f" d="M 0 3 
C 0.795609 3 1.55874 2.683901 2.12132 2.12132 
C 2.683901 1.55874 3 0.795609 3 0 
C 3 -0.795609 2.683901 -1.55874 2.12132 -2.12132 
C 1.55874 -2.683901 0.795609 -3 0 -3 
C -0.795609 -3 -1.55874 -2.683901 -2.12132 -2.12132 
C -2.683901 -1.55874 -3 -0.795609 -3 0 
C -3 0.795609 -2.683901 1.55874 -2.12132 2.12132 
C -1.55874 2.683901 -0.795609 3 0 3 
z
" style="stroke: #9467bd"/>
    </defs>
    <g clip-path="url(#p1053814200)">
     <use xlink:href="#mb2639cc56f" x="69.833494" y="505.683172" style="fill: #9467bd; stroke: #9467bd"/>
     <use xlink:href="#mb2639cc56f" x="99.726487" y="506.059178" style="fill: #9467bd; stroke: #9467bd"/>
     <use xlink:href="#mb2639cc56f" x="159.512472" y="505.255459" style="fill: #9467bd; stroke: #9467bd"/>
     <use xlink:href="#mb2639cc56f" x="189.405464" y="504.972562" style="fill: #9467bd; stroke: #9467bd"/>
     <use xlink:href="#mb2639cc56f" x="219.298456" y="505.602433" style="fill: #9467bd; stroke: #9467bd"/>
     <use xlink:href="#mb2639cc56f" x="249.191449" y="504.652563" style="fill: #9467bd; stroke: #9467bd"/>
     <use xlink:href="#mb2639cc56f" x="279.084441" y="505.739763" style="fill: #9467bd; stroke: #9467bd"/>
     <use xlink:href="#mb2639cc56f" x="308.977434" y="506.332202" style="fill: #9467bd; stroke: #9467bd"/>
     <use xlink:href="#mb2639cc56f" x="338.870426" y="504.492986" style="fill: #9467bd; stroke: #9467bd"/>
     <use xlink:href="#mb2639cc56f" x="368.763419" y="504.275522" style="fill: #9467bd; stroke: #9467bd"/>
     <use xlink:href="#mb2639cc56f" x="428.549403" y="505.502925" style="fill: #9467bd; stroke: #9467bd"/>
     <use xlink:href="#mb2639cc56f" x="458.442396" y="505.625782" style="fill: #9467bd; stroke: #9467bd"/>
     <use xlink:href="#mb2639cc56f" x="488.335388" y="506.254563" style="fill: #9467bd; stroke: #9467bd"/>
     <use xlink:href="#mb2639cc56f" x="518.228381" y="505.250074" style="fill: #9467bd; stroke: #9467bd"/>
    </g>
   </g>
   <g id="line2d_55">
    <path d="M 69.833494 46.901474 
L 99.726487 46.891441 
L 159.512472 46.904477 
L 189.405464 46.899977 
L 219.298456 46.906207 
L 249.191449 46.907562 
L 279.084441 46.906735 
L 308.977434 46.904257 
L 338.870426 46.895283 
L 368.763419 46.901533 
L 428.549403 46.906357 
L 458.442396 46.908449 
L 488.335388 46.907169 
" clip-path="url(#p1053814200)" style="fill: none; stroke: #8c564b; stroke-width: 2; stroke-linecap: square"/>
    <defs>
     <path id="me26c2a186e" d="M 0 3 
C 0.795609 3 1.55874 2.683901 2.12132 2.12132 
C 2.683901 1.55874 3 0.795609 3 0 
C 3 -0.795609 2.683901 -1.55874 2.12132 -2.12132 
C 1.55874 -2.683901 0.795609 -3 0 -3 
C -0.795609 -3 -1.55874 -2.683901 -2.12132 -2.12132 
C -2.683901 -1.55874 -3 -0.795609 -3 0 
C -3 0.795609 -2.683901 1.55874 -2.12132 2.12132 
C -1.55874 2.683901 -0.795609 3 0 3 
z
" style="stroke: #8c564b"/>
    </defs>
    <g clip-path="url(#p1053814200)">
     <use xlink:href="#me26c2a186e" x="69.833494" y="46.901474" style="fill: #8c564b; stroke: #8c564b"/>
     <use xlink:href="#me26c2a186e" x="99.726487" y="46.891441" style="fill: #8c564b; stroke: #8c564b"/>
     <use xlink:href="#me26c2a186e" x="159.512472" y="46.904477" style="fill: #8c564b; stroke: #8c564b"/>
     <use xlink:href="#me26c2a186e" x="189.405464" y="46.899977" style="fill: #8c564b; stroke: #8c564b"/>
     <use xlink:href="#me26c2a186e" x="219.298456" y="46.906207" style="fill: #8c564b; stroke: #8c564b"/>
     <use xlink:href="#me26c2a186e" x="249.191449" y="46.907562" style="fill: #8c564b; stroke: #8c564b"/>
     <use xlink:href="#me26c2a186e" x="279.084441" y="46.906735" style="fill: #8c564b; stroke: #8c564b"/>
     <use xlink:href="#me26c2a186e" x="308.977434" y="46.904257" style="fill: #8c564b; stroke: #8c564b"/>
     <use xlink:href="#me26c2a186e" x="338.870426" y="46.895283" style="fill: #8c564b; stroke: #8c564b"/>
     <use xlink:href="#me26c2a186e" x="368.763419" y="46.901533" style="fill: #8c564b; stroke: #8c564b"/>
     <use xlink:href="#me26c2a186e" x="428.549403" y="46.906357" style="fill: #8c564b; stroke: #8c564b"/>
     <use xlink:href="#me26c2a186e" x="458.442396" y="46.908449" style="fill: #8c564b; stroke: #8c564b"/>
     <use xlink:href="#me26c2a186e" x="488.335388" y="46.907169" style="fill: #8c564b; stroke: #8c564b"/>
    </g>
   </g>
   <g id="line2d_56">
    <path d="M 69.833494 321.197192 
L 99.726487 321.790324 
L 159.512472 321.857004 
L 189.405464 322.152408 
L 219.298456 322.280051 
L 249.191449 321.859465 
L 279.084441 321.092722 
L 308.977434 321.610357 
L 338.870426 322.400269 
L 368.763419 321.591394 
L 428.549403 321.819056 
L 458.442396 320.795934 
L 488.335388 320.610568 
" clip-path="url(#p1053814200)" style="fill: none; stroke: #e377c2; stroke-width: 2; stroke-linecap: square"/>
    <defs>
     <path id="m679de9fc59" d="M 0 3 
C 0.795609 3 1.55874 2.683901 2.12132 2.12132 
C 2.683901 1.55874 3 0.795609 3 0 
C 3 -0.795609 2.683901 -1.55874 2.12132 -2.12132 
C 1.55874 -2.683901 0.795609 -3 0 -3 
C -0.795609 -3 -1.55874 -2.683901 -2.12132 -2.12132 
C -2.683901 -1.55874 -3 -0.795609 -3 0 
C -3 0.795609 -2.683901 1.55874 -2.12132 2.12132 
C -1.55874 2.683901 -0.795609 3 0 3 
z
" style="stroke: #e377c2"/>
    </defs>
    <g clip-path="url(#p1053814200)">
     <use xlink:href="#m679de9fc59" x="69.833494" y="321.197192" style="fill: #e377c2; stroke: #e377c2"/>
     <use xlink:href="#m679de9fc59" x="99.726487" y="321.790324" style="fill: #e377c2; stroke: #e377c2"/>
     <use xlink:href="#m679de9fc59" x="159.512472" y="321.857004" style="fill: #e377c2; stroke: #e377c2"/>
     <use xlink:href="#m679de9fc59" x="189.405464" y="322.152408" style="fill: #e377c2; stroke: #e377c2"/>
     <use xlink:href="#m679de9fc59" x="219.298456" y="322.280051" style="fill: #e377c2; stroke: #e377c2"/>
     <use xlink:href="#m679de9fc59" x="249.191449" y="321.859465" style="fill: #e377c2; stroke: #e377c2"/>
     <use xlink:href="#m679de9fc59" x="279.084441" y="321.092722" style="fill: #e377c2; stroke: #e377c2"/>
     <use xlink:href="#m679de9fc59" x="308.977434" y="321.610357" style="fill: #e377c2; stroke: #e377c2"/>
     <use xlink:href="#m679de9fc59" x="338.870426" y="322.400269" style="fill: #e377c2; stroke: #e377c2"/>
     <use xlink:href="#m679de9fc59" x="368.763419" y="321.591394" style="fill: #e377c2; stroke: #e377c2"/>
     <use xlink:href="#m679de9fc59" x="428.549403" y="321.819056" style="fill: #e377c2; stroke: #e377c2"/>
     <use xlink:href="#m679de9fc59" x="458.442396" y="320.795934" style="fill: #e377c2; stroke: #e377c2"/>
     <use xlink:href="#m679de9fc59" x="488.335388" y="320.610568" style="fill: #e377c2; stroke: #e377c2"/>
    </g>
   </g>
   <g id="line2d_57">
    <path d="M 69.833494 46.902465 
L 99.726487 46.888139 
L 159.512472 46.885184 
L 189.405464 46.884053 
L 219.298456 46.868239 
L 249.191449 46.879093 
L 279.084441 46.886784 
L 308.977434 46.868823 
L 338.870426 46.884838 
L 368.763419 46.879698 
L 428.549403 46.868499 
L 458.442396 46.880435 
L 488.335388 46.880623 
" clip-path="url(#p1053814200)" style="fill: none; stroke: #7f7f7f; stroke-width: 2; stroke-linecap: square"/>
    <defs>
     <path id="m993c10ae88" d="M 0 3 
C 0.795609 3 1.55874 2.683901 2.12132 2.12132 
C 2.683901 1.55874 3 0.795609 3 0 
C 3 -0.795609 2.683901 -1.55874 2.12132 -2.12132 
C 1.55874 -2.683901 0.795609 -3 0 -3 
C -0.795609 -3 -1.55874 -2.683901 -2.12132 -2.12132 
C -2.683901 -1.55874 -3 -0.795609 -3 0 
C -3 0.795609 -2.683901 1.55874 -2.12132 2.12132 
C -1.55874 2.683901 -0.795609 3 0 3 
z
" style="stroke: #7f7f7f"/>
    </defs>
    <g clip-path="url(#p1053814200)">
     <use xlink:href="#m993c10ae88" x="69.833494" y="46.902465" style="fill: #7f7f7f; stroke: #7f7f7f"/>
     <use xlink:href="#m993c10ae88" x="99.726487" y="46.888139" style="fill: #7f7f7f; stroke: #7f7f7f"/>
     <use xlink:href="#m993c10ae88" x="159.512472" y="46.885184" style="fill: #7f7f7f; stroke: #7f7f7f"/>
     <use xlink:href="#m993c10ae88" x="189.405464" y="46.884053" style="fill: #7f7f7f; stroke: #7f7f7f"/>
     <use xlink:href="#m993c10ae88" x="219.298456" y="46.868239" style="fill: #7f7f7f; stroke: #7f7f7f"/>
     <use xlink:href="#m993c10ae88" x="249.191449" y="46.879093" style="fill: #7f7f7f; stroke: #7f7f7f"/>
     <use xlink:href="#m993c10ae88" x="279.084441" y="46.886784" style="fill: #7f7f7f; stroke: #7f7f7f"/>
     <use xlink:href="#m993c10ae88" x="308.977434" y="46.868823" style="fill: #7f7f7f; stroke: #7f7f7f"/>
     <use xlink:href="#m993c10ae88" x="338.870426" y="46.884838" style="fill: #7f7f7f; stroke: #7f7f7f"/>
     <use xlink:href="#m993c10ae88" x="368.763419" y="46.879698" style="fill: #7f7f7f; stroke: #7f7f7f"/>
     <use xlink:href="#m993c10ae88" x="428.549403" y="46.868499" style="fill: #7f7f7f; stroke: #7f7f7f"/>
     <use xlink:href="#m993c10ae88" x="458.442396" y="46.880435" style="fill: #7f7f7f; stroke: #7f7f7f"/>
     <use xlink:href="#m993c10ae88" x="488.335388" y="46.880623" style="fill: #7f7f7f; stroke: #7f7f7f"/>
    </g>
   </g>
   <g id="line2d_58">
    <path d="M 69.833494 351.527566 
L 99.726487 351.443462 
L 159.512472 351.274517 
L 189.405464 350.709771 
L 219.298456 350.955235 
L 249.191449 351.945336 
L 279.084441 351.442513 
L 308.977434 350.996333 
L 338.870426 351.361887 
L 368.763419 350.925857 
L 428.549403 350.67858 
L 458.442396 351.681797 
L 488.335388 350.977506 
" clip-path="url(#p1053814200)" style="fill: none; stroke: #bcbd22; stroke-width: 2; stroke-linecap: square"/>
    <defs>
     <path id="mc3ecccfe07" d="M 0 3 
C 0.795609 3 1.55874 2.683901 2.12132 2.12132 
C 2.683901 1.55874 3 0.795609 3 0 
C 3 -0.795609 2.683901 -1.55874 2.12132 -2.12132 
C 1.55874 -2.683901 0.795609 -3 0 -3 
C -0.795609 -3 -1.55874 -2.683901 -2.12132 -2.12132 
C -2.683901 -1.55874 -3 -0.795609 -3 0 
C -3 0.795609 -2.683901 1.55874 -2.12132 2.12132 
C -1.55874 2.683901 -0.795609 3 0 3 
z
" style="stroke: #bcbd22"/>
    </defs>
    <g clip-path="url(#p1053814200)">
     <use xlink:href="#mc3ecccfe07" x="69.833494" y="351.527566" style="fill: #bcbd22; stroke: #bcbd22"/>
     <use xlink:href="#mc3ecccfe07" x="99.726487" y="351.443462" style="fill: #bcbd22; stroke: #bcbd22"/>
     <use xlink:href="#mc3ecccfe07" x="159.512472" y="351.274517" style="fill: #bcbd22; stroke: #bcbd22"/>
     <use xlink:href="#mc3ecccfe07" x="189.405464" y="350.709771" style="fill: #bcbd22; stroke: #bcbd22"/>
     <use xlink:href="#mc3ecccfe07" x="219.298456" y="350.955235" style="fill: #bcbd22; stroke: #bcbd22"/>
     <use xlink:href="#mc3ecccfe07" x="249.191449" y="351.945336" style="fill: #bcbd22; stroke: #bcbd22"/>
     <use xlink:href="#mc3ecccfe07" x="279.084441" y="351.442513" style="fill: #bcbd22; stroke: #bcbd22"/>
     <use xlink:href="#mc3ecccfe07" x="308.977434" y="350.996333" style="fill: #bcbd22; stroke: #bcbd22"/>
     <use xlink:href="#mc3ecccfe07" x="338.870426" y="351.361887" style="fill: #bcbd22; stroke: #bcbd22"/>
     <use xlink:href="#mc3ecccfe07" x="368.763419" y="350.925857" style="fill: #bcbd22; stroke: #bcbd22"/>
     <use xlink:href="#mc3ecccfe07" x="428.549403" y="350.67858" style="fill: #bcbd22; stroke: #bcbd22"/>
     <use xlink:href="#mc3ecccfe07" x="458.442396" y="351.681797" style="fill: #bcbd22; stroke: #bcbd22"/>
     <use xlink:href="#mc3ecccfe07" x="488.335388" y="350.977506" style="fill: #bcbd22; stroke: #bcbd22"/>
    </g>
   </g>
   <g id="line2d_59">
    <path d="M 69.833494 453.900645 
L 99.726487 454.544089 
L 159.512472 454.115559 
L 189.405464 454.23508 
L 219.298456 454.500408 
L 249.191449 454.511559 
L 279.084441 454.191277 
L 308.977434 454.304095 
L 338.870426 454.441934 
L 368.763419 454.230164 
L 428.549403 454.515027 
L 458.442396 453.904056 
L 488.335388 454.386467 
" clip-path="url(#p1053814200)" style="fill: none; stroke: #17becf; stroke-width: 2; stroke-linecap: square"/>
    <defs>
     <path id="ma549a1c8f3" d="M 0 3 
C 0.795609 3 1.55874 2.683901 2.12132 2.12132 
C 2.683901 1.55874 3 0.795609 3 0 
C 3 -0.795609 2.683901 -1.55874 2.12132 -2.12132 
C 1.55874 -2.683901 0.795609 -3 0 -3 
C -0.795609 -3 -1.55874 -2.683901 -2.12132 -2.12132 
C -2.683901 -1.55874 -3 -0.795609 -3 0 
C -3 0.795609 -2.683901 1.55874 -2.12132 2.12132 
C -1.55874 2.683901 -0.795609 3 0 3 
z
" style="stroke: #17becf"/>
    </defs>
    <g clip-path="url(#p1053814200)">
     <use xlink:href="#ma549a1c8f3" x="69.833494" y="453.900645" style="fill: #17becf; stroke: #17becf"/>
     <use xlink:href="#ma549a1c8f3" x="99.726487" y="454.544089" style="fill: #17becf; stroke: #17becf"/>
     <use xlink:href="#ma549a1c8f3" x="159.512472" y="454.115559" style="fill: #17becf; stroke: #17becf"/>
     <use xlink:href="#ma549a1c8f3" x="189.405464" y="454.23508" style="fill: #17becf; stroke: #17becf"/>
     <use xlink:href="#ma549a1c8f3" x="219.298456" y="454.500408" style="fill: #17becf; stroke: #17becf"/>
     <use xlink:href="#ma549a1c8f3" x="249.191449" y="454.511559" style="fill: #17becf; stroke: #17becf"/>
     <use xlink:href="#ma549a1c8f3" x="279.084441" y="454.191277" style="fill: #17becf; stroke: #17becf"/>
     <use xlink:href="#ma549a1c8f3" x="308.977434" y="454.304095" style="fill: #17becf; stroke: #17becf"/>
     <use xlink:href="#ma549a1c8f3" x="338.870426" y="454.441934" style="fill: #17becf; stroke: #17becf"/>
     <use xlink:href="#ma549a1c8f3" x="368.763419" y="454.230164" style="fill: #17becf; stroke: #17becf"/>
     <use xlink:href="#ma549a1c8f3" x="428.549403" y="454.515027" style="fill: #17becf; stroke: #17becf"/>
     <use xlink:href="#ma549a1c8f3" x="458.442396" y="453.904056" style="fill: #17becf; stroke: #17becf"/>
     <use xlink:href="#ma549a1c8f3" x="488.335388" y="454.386467" style="fill: #17becf; stroke: #17becf"/>
    </g>
   </g>
   <g id="patch_3">
    <path d="M 47.41375 529.308125 
L 47.41375 23.837812 
" style="fill: none; stroke: #000000; stroke-width: 0.8; stroke-linejoin: miter; stroke-linecap: square"/>
   </g>
   <g id="patch_4">
    <path d="M 540.648125 529.308125 
L 540.648125 23.837812 
" style="fill: none; stroke: #000000; stroke-width: 0.8; stroke-linejoin: miter; stroke-linecap: square"/>
   </g>
   <g id="patch_5">
    <path d="M 47.41375 529.308125 
L 540.648125 529.308125 
" style="fill: none; stroke: #000000; stroke-width: 0.8; stroke-linejoin: miter; stroke-linecap: square"/>
   </g>
   <g id="patch_6">
    <path d="M 47.41375 23.837812 
L 540.648125 23.837812 
" style="fill: none; stroke: #000000; stroke-width: 0.8; stroke-linejoin: miter; stroke-linecap: square"/>
   </g>
   <g id="text_15">
    <text style="font: 700 14px 'DejaVu Sans', 'Bitstream Vera Sans', 'Computer Modern Sans Serif', 'Lucida Grande', 'Verdana', 'Geneva', 'Lucid', 'Arial', 'Helvetica', 'Avant Garde', sans-serif; text-anchor: middle" x="294.030937" y="17.837813" transform="rotate(-0 294.030937 17.837813)">Coroutine Task Chaining - Performance Trend</text>
   </g>
   <g id="legend_1">
    <g id="patch_7">
     <path d="M 572.309844 181.400313 
L 838.781719 181.400313 
Q 840.781719 181.400313 840.781719 179.400313 
L 840.781719 30.837813 
Q 840.781719 28.837813 838.781719 28.837813 
L 572.309844 28.837813 
Q 570.309844 28.837813 570.309844 30.837813 
L 570.309844 179.400313 
Q 570.309844 181.400313 572.309844 181.400313 
z
" style="fill: #ffffff; opacity: 0.8; stroke: #cccccc; stroke-linejoin: miter"/>
    </g>
    <g id="line2d_60">
     <path d="M 574.309844 36.93625 
L 584.309844 36.93625 
L 594.309844 36.93625 
" style="fill: none; stroke: #1f77b4; stroke-width: 2; stroke-linecap: square"/>
     <g>
      <use xlink:href="#mfc5552f8f6" x="584.309844" y="36.93625" style="fill: #1f77b4; stroke: #1f77b4"/>
     </g>
    </g>
    <g id="text_16">
     <text style="font: 10px 'DejaVu Sans', 'Bitstream Vera Sans', 'Computer Modern Sans Serif', 'Lucida Grande', 'Verdana', 'Geneva', 'Lucid', 'Arial', 'Helvetica', 'Avant Garde', sans-serif; text-anchor: start" x="602.309844" y="40.43625" transform="rotate(-0 602.309844 40.43625)">gcc-14.2 - TaskChaining_Coroutines_V1</text>
    </g>
    <g id="line2d_61">
     <path d="M 574.309844 51.8925 
L 584.309844 51.8925 
L 594.309844 51.8925 
" style="fill: none; stroke: #ff7f0e; stroke-width: 2; stroke-linecap: square"/>
     <g>
      <use xlink:href="#m489896ba81" x="584.309844" y="51.8925" style="fill: #ff7f0e; stroke: #ff7f0e"/>
     </g>
    </g>
    <g id="text_17">
     <text style="font: 10px 'DejaVu Sans', 'Bitstream Vera Sans', 'Computer Modern Sans Serif', 'Lucida Grande', 'Verdana', 'Geneva', 'Lucid', 'Arial', 'Helvetica', 'Avant Garde', sans-serif; text-anchor: start" x="602.309844" y="55.3925" transform="rotate(-0 602.309844 55.3925)">gcc-14.2 - TaskChaining_NestedSubmission_V1</text>
    </g>
    <g id="line2d_62">
     <path d="M 574.309844 66.84875 
L 584.309844 66.84875 
L 594.309844 66.84875 
" style="fill: none; stroke: #2ca02c; stroke-width: 2; stroke-linecap: square"/>
     <g>
      <use xlink:href="#m2f5b6a453d" x="584.309844" y="66.84875" style="fill: #2ca02c; stroke: #2ca02c"/>
     </g>
    </g>
    <g id="text_18">
     <text style="font: 10px 'DejaVu Sans', 'Bitstream Vera Sans', 'Computer Modern Sans Serif', 'Lucida Grande', 'Verdana', 'Geneva', 'Lucid', 'Arial', 'Helvetica', 'Avant Garde', sans-serif; text-anchor: start" x="602.309844" y="70.34875" transform="rotate(-0 602.309844 70.34875)">gcc-14.2 - TaskChaining_Coroutines_V2</text>
    </g>
    <g id="line2d_63">
     <path d="M 574.309844 81.805 
L 584.309844 81.805 
L 594.309844 81.805 
" style="fill: none; stroke: #d62728; stroke-width: 2; stroke-linecap: square"/>
     <g>
      <use xlink:href="#m36b0a6865b" x="584.309844" y="81.805" style="fill: #d62728; stroke: #d62728"/>
     </g>
    </g>
    <g id="text_19">
     <text style="font: 10px 'DejaVu Sans', 'Bitstream Vera Sans', 'Computer Modern Sans Serif', 'Lucida Grande', 'Verdana', 'Geneva', 'Lucid', 'Arial', 'Helvetica', 'Avant Garde', sans-serif; text-anchor: start" x="602.309844" y="85.305" transform="rotate(-0 602.309844 85.305)">gcc-14.2 - TaskChaining_NestedSubmission_V2</text>
    </g>
    <g id="line2d_64">
     <path d="M 574.309844 96.76125 
L 584.309844 96.76125 
L 594.309844 96.76125 
" style="fill: none; stroke: #9467bd; stroke-width: 2; stroke-linecap: square"/>
     <g>
      <use xlink:href="#mb2639cc56f" x="584.309844" y="96.76125" style="fill: #9467bd; stroke: #9467bd"/>
     </g>
    </g>
    <g id="text_20">
     <text style="font: 10px 'DejaVu Sans', 'Bitstream Vera Sans', 'Computer Modern Sans Serif', 'Lucida Grande', 'Verdana', 'Geneva', 'Lucid', 'Arial', 'Helvetica', 'Avant Garde', sans-serif; text-anchor: start" x="602.309844" y="100.26125" transform="rotate(-0 602.309844 100.26125)">gcc-14.2 - TaskChaining_TBB_Equivalent</text>
    </g>
    <g id="line2d_65">
     <path d="M 574.309844 111.7175 
L 584.309844 111.7175 
L 594.309844 111.7175 
" style="fill: none; stroke: #8c564b; stroke-width: 2; stroke-linecap: square"/>
     <g>
      <use xlink:href="#me26c2a186e" x="584.309844" y="111.7175" style="fill: #8c564b; stroke: #8c564b"/>
     </g>
    </g>
    <g id="text_21">
     <text style="font: 10px 'DejaVu Sans', 'Bitstream Vera Sans', 'Computer Modern Sans Serif', 'Lucida Grande', 'Verdana', 'Geneva', 'Lucid', 'Arial', 'Helvetica', 'Avant Garde', sans-serif; text-anchor: start" x="602.309844" y="115.2175" transform="rotate(-0 602.309844 115.2175)">gcc-4.2 - TaskChaining_Coroutines_V1</text>
    </g>
    <g id="line2d_66">
     <path d="M 574.309844 126.67375 
L 584.309844 126.67375 
L 594.309844 126.67375 
" style="fill: none; stroke: #e377c2; stroke-width: 2; stroke-linecap: square"/>
     <g>
      <use xlink:href="#m679de9fc59" x="584.309844" y="126.67375" style="fill: #e377c2; stroke: #e377c2"/>
     </g>
    </g>
    <g id="text_22">
     <text style="font: 10px 'DejaVu Sans', 'Bitstream Vera Sans', 'Computer Modern Sans Serif', 'Lucida Grande', 'Verdana', 'Geneva', 'Lucid', 'Arial', 'Helvetica', 'Avant Garde', sans-serif; text-anchor: start" x="602.309844" y="130.17375" transform="rotate(-0 602.309844 130.17375)">gcc-4.2 - TaskChaining_NestedSubmission_V1</text>
    </g>
    <g id="line2d_67">
     <path d="M 574.309844 141.63 
L 584.309844 141.63 
L 594.309844 141.63 
" style="fill: none; stroke: #7f7f7f; stroke-width: 2; stroke-linecap: square"/>
     <g>
      <use xlink:href="#m993c10ae88" x="584.309844" y="141.63" style="fill: #7f7f7f; stroke: #7f7f7f"/>
     </g>
    </g>
    <g id="text_23">
     <text style="font: 10px 'DejaVu Sans', 'Bitstream Vera Sans', 'Computer Modern Sans Serif', 'Lucida Grande', 'Verdana', 'Geneva', 'Lucid', 'Arial', 'Helvetica', 'Avant Garde', sans-serif; text-anchor: start" x="602.309844" y="145.13" transform="rotate(-0 602.309844 145.13)">gcc-4.2 - TaskChaining_Coroutines_V2</text>
    </g>
    <g id="line2d_68">
     <path d="M 574.309844 156.58625 
L 584.309844 156.58625 
L 594.309844 156.58625 
" style="fill: none; stroke: #bcbd22; stroke-width: 2; stroke-linecap: square"/>
     <g>
      <use xlink:href="#mc3ecccfe07" x="584.309844" y="156.58625" style="fill: #bcbd22; stroke: #bcbd22"/>
     </g>
    </g>
    <g id="text_24">
     <text style="font: 10px 'DejaVu Sans', 'Bitstream Vera Sans', 'Computer Modern Sans Serif', 'Lucida Grande', 'Verdana', 'Geneva', 'Lucid', 'Arial', 'Helvetica', 'Avant Garde', sans-serif; text-anchor: start" x="602.309844" y="160.08625" transform="rotate(-0 602.309844 160.08625)">gcc-4.2 - TaskChaining_NestedSubmission_V2</text>
    </g>
    <g id="line2d_69">
     <path d="M 574.309844 171.5425 
L 584.309844 171.5425 
L 594.309844 171.5425 
" style="fill: none; stroke: #17becf; stroke-width: 2; stroke-linecap: square"/>
     <g>
      <use xlink:href="#ma549a1c8f3" x="584.309844" y="171.5425" style="fill: #17becf; stroke: #17becf"/>
     </g>
    </g>
    <g id="text_25">
     <text style="font: 10px 'DejaVu Sans', 'Bitstream Vera Sans', 'Computer Modern Sans Serif', 'Lucida Grande', 'Verdana', 'Geneva', 'Lucid', 'Arial', 'Helvetica', 'Avant Garde', sans-serif; text-anchor: start" x="602.309844" y="175.0425" transform="rotate(-0 602.309844 175.0425)">gcc-4.2 - TaskChaining_TBB_Equivalent</text>
    </g>
   </g>
  </g>
 </g>
 <defs>
  <clipPath id="p1053814200">
   <rect x="47.41375" y="23.837813" width="493.234375" height="505.470313"/>
  </clipPath>
 </defs>
</svg>
