<?xml version="1.0" encoding="utf-8" standalone="no"?>
<!DOCTYPE svg PUBLIC "-//W3C//DTD SVG 1.1//EN"
  "http://www.w3.org/Graphics/SVG/1.1/DTD/svg11.dtd">
<svg xmlns:xlink="http://www.w3.org/1999/xlink" width="856.684141pt" height="568.8pt" viewBox="0 0 856.684141 568.8" xmlns="http://www.w3.org/2000/svg" version="1.1">
 <metadata>
  <rdf:RDF xmlns:dc="http://purl.org/dc/elements/1.1/" xmlns:cc="http://creativecommons.org/ns#" xmlns:rdf="http://www.w3.org/1999/02/22-rdf-syntax-ns#">
   <cc:Work>
    <dc:type rdf:resource="http://purl.org/dc/dcmitype/StillImage"/>
    <dc:date>2026-06-06T05:47:02.753881</dc:date>
    <dc:format>image/svg+xml</dc:format>
    <dc:creator>
     <cc:Agent>
      <dc:title>Matplotlib v3.9.4, https://matplotlib.org/</dc:title>
     </cc:Agent>
    </dc:creator>
   </cc:Work>
  </rdf:RDF>
 </metadata>
 <defs>
  <style type="text/css">*{stroke-linejoin: round; stroke-linecap: butt}</style>
 </defs>
 <g id="figure_1">
  <g id="patch_1">
   <path d="M 0 568.8 
L 856.684141 568.8 
L 856.684141 0 
L 0 0 
z
" style="fill: #ffffff"/>
  </g>
  <g id="axes_1">
   <g id="patch_2">
    <path d="M 64.41375 529.308125 
L 731.696562 529.308125 
L 731.696562 23.837812 
L 64.41375 23.837812 
z
" style="fill: #ffffff"/>
   </g>
   <g id="matplotlib.axis_1">
    <g id="xtick_1">
     <g id="line2d_1">
      <path d="M 84.102318 529.308125 
L 84.102318 23.837812 
" clip-path="url(#p41374a77f2)" style="fill: none; stroke: #b0b0b0; stroke-opacity: 0.3; stroke-width: 0.8; stroke-linecap: square"/>
     </g>
     <g id="line2d_2">
      <defs>
       <path id="m064213a835" d="M 0 0 
L 0 3.5 
" style="stroke: #000000; stroke-width: 0.8"/>
      </defs>
      <g>
       <use xlink:href="#m064213a835" x="84.102318" y="529.308125" style="stroke: #000000; stroke-width: 0.8"/>
      </g>
     </g>
     <g id="text_1">
      <text style="font: 10px 'DejaVu Sans', 'Bitstream Vera Sans', 'Computer Modern Sans Serif', 'Lucida Grande', 'Verdana', 'Geneva', 'Lucid', 'Arial', 'Helvetica', 'Avant Garde', sans-serif; text-anchor: middle" x="84.102318" y="543.906563" transform="rotate(-0 84.102318 543.906563)">70</text>
     </g>
    </g>
    <g id="xtick_2">
     <g id="line2d_3">
      <path d="M 190.527009 529.308125 
L 190.527009 23.837812 
" clip-path="url(#p41374a77f2)" style="fill: none; stroke: #b0b0b0; stroke-opacity: 0.3; stroke-width: 0.8; stroke-linecap: square"/>
     </g>
     <g id="line2d_4">
      <g>
       <use xlink:href="#m064213a835" x="190.527009" y="529.308125" style="stroke: #000000; stroke-width: 0.8"/>
      </g>
     </g>
     <g id="text_2">
      <text style="font: 10px 'DejaVu Sans', 'Bitstream Vera Sans', 'Computer Modern Sans Serif', 'Lucida Grande', 'Verdana', 'Geneva', 'Lucid', 'Arial', 'Helvetica', 'Avant Garde', sans-serif; text-anchor: middle" x="190.527009" y="543.906563" transform="rotate(-0 190.527009 543.906563)">80</text>
     </g>
    </g>
    <g id="xtick_3">
     <g id="line2d_5">
      <path d="M 296.9517 529.308125 
L 296.9517 23.837812 
" clip-path="url(#p41374a77f2)" style="fill: none; stroke: #b0b0b0; stroke-opacity: 0.3; stroke-width: 0.8; stroke-linecap: square"/>
     </g>
     <g id="line2d_6">
      <g>
       <use xlink:href="#m064213a835" x="296.9517" y="529.308125" style="stroke: #000000; stroke-width: 0.8"/>
      </g>
     </g>
     <g id="text_3">
      <text style="font: 10px 'DejaVu Sans', 'Bitstream Vera Sans', 'Computer Modern Sans Serif', 'Lucida Grande', 'Verdana', 'Geneva', 'Lucid', 'Arial', 'Helvetica', 'Avant Garde', sans-serif; text-anchor: middle" x="296.9517" y="543.906563" transform="rotate(-0 296.9517 543.906563)">90</text>
     </g>
    </g>
    <g id="xtick_4">
     <g id="line2d_7">
      <path d="M 403.376391 529.308125 
L 403.376391 23.837812 
" clip-path="url(#p41374a77f2)" style="fill: none; stroke: #b0b0b0; stroke-opacity: 0.3; stroke-width: 0.8; stroke-linecap: square"/>
     </g>
     <g id="line2d_8">
      <g>
       <use xlink:href="#m064213a835" x="403.376391" y="529.308125" style="stroke: #000000; stroke-width: 0.8"/>
      </g>
     </g>
     <g id="text_4">
      <text style="font: 10px 'DejaVu Sans', 'Bitstream Vera Sans', 'Computer Modern Sans Serif', 'Lucida Grande', 'Verdana', 'Geneva', 'Lucid', 'Arial', 'Helvetica', 'Avant Garde', sans-serif; text-anchor: middle" x="403.376391" y="543.906563" transform="rotate(-0 403.376391 543.906563)">100</text>
     </g>
    </g>
    <g id="xtick_5">
     <g id="line2d_9">
      <path d="M 509.801082 529.308125 
L 509.801082 23.837812 
" clip-path="url(#p41374a77f2)" style="fill: none; stroke: #b0b0b0; stroke-opacity: 0.3; stroke-width: 0.8; stroke-linecap: square"/>
     </g>
     <g id="line2d_10">
      <g>
       <use xlink:href="#m064213a835" x="509.801082" y="529.308125" style="stroke: #000000; stroke-width: 0.8"/>
      </g>
     </g>
     <g id="text_5">
      <text style="font: 10px 'DejaVu Sans', 'Bitstream Vera Sans', 'Computer Modern Sans Serif', 'Lucida Grande', 'Verdana', 'Geneva', 'Lucid', 'Arial', 'Helvetica', 'Avant Garde', sans-serif; text-anchor: middle" x="509.801082" y="543.906563" transform="rotate(-0 509.801082 543.906563)">110</text>
     </g>
    </g>
    <g id="xtick_6">
     <g id="line2d_11">
      <path d="M 616.225773 529.308125 
L 616.225773 23.837812 
" clip-path="url(#p41374a77f2)" style="fill: none; stroke: #b0b0b0; stroke-opacity: 0.3; stroke-width: 0.8; stroke-linecap: square"/>
     </g>
     <g id="line2d_12">
      <g>
       <use xlink:href="#m064213a835" x="616.225773" y="529.308125" style="stroke: #000000; stroke-width: 0.8"/>
      </g>
     </g>
     <g id="text_6">
      <text style="font: 10px 'DejaVu Sans', 'Bitstream Vera Sans', 'Computer Modern Sans Serif', 'Lucida Grande', 'Verdana', 'Geneva', 'Lucid', 'Arial', 'Helvetica', 'Avant Garde', sans-serif; text-anchor: middle" x="616.225773" y="543.906563" transform="rotate(-0 616.225773 543.906563)">120</text>
     </g>
    </g>
    <g id="xtick_7">
     <g id="line2d_13">
      <path d="M 722.650464 529.308125 
L 722.650464 23.837812 
" clip-path="url(#p41374a77f2)" style="fill: none; stroke: #b0b0b0; stroke-opacity: 0.3; stroke-width: 0.8; stroke-linecap: square"/>
     </g>
     <g id="line2d_14">
      <g>
       <use xlink:href="#m064213a835" x="722.650464" y="529.308125" style="stroke: #000000; stroke-width: 0.8"/>
      </g>
     </g>
     <g id="text_7">
      <text style="font: 10px 'DejaVu Sans', 'Bitstream Vera Sans', 'Computer Modern Sans Serif', 'Lucida Grande', 'Verdana', 'Geneva', 'Lucid', 'Arial', 'Helvetica', 'Avant Garde', sans-serif; text-anchor: middle" x="722.650464" y="543.906563" transform="rotate(-0 722.650464 543.906563)">130</text>
     </g>
    </g>
    <g id="text_8">
     <text style="font: 12px 'DejaVu Sans', 'Bitstream Vera Sans', 'Computer Modern Sans Serif', 'Lucida Grande', 'Verdana', 'Geneva', 'Lucid', 'Arial', 'Helvetica', 'Avant Garde', sans-serif; text-anchor: middle" x="398.055156" y="559.104375" transform="rotate(-0 398.055156 559.104375)">Build Number</text>
    </g>
   </g>
   <g id="matplotlib.axis_2">
    <g id="ytick_1">
     <g id="line2d_15">
      <defs>
       <path id="m55118dce04" d="M 0 0 
L -2 0 
" style="stroke: #000000; stroke-width: 0.6"/>
      </defs>
      <g>
       <use xlink:href="#m55118dce04" x="64.41375" y="422.659884" style="stroke: #000000; stroke-width: 0.6"/>
      </g>
     </g>
     <g id="text_9">
      <!-- $\mathdefault{4\times10^{0}}$ -->
      <g transform="translate(22.81375 426.459103)">
       <text>
        <tspan style="font: 10px 'DejaVu Sans'" x="0 8.310547 18.637695 25" y="-0.9765625">4×10</tspan>
        <tspan style="font: 7px 'DejaVu Sans'" x="31.458008" y="-4.8046875">0</tspan>
       </text>
      </g>
     </g>
    </g>
    <g id="ytick_2">
     <g id="line2d_16">
      <g>
       <use xlink:href="#m55118dce04" x="64.41375" y="224.687203" style="stroke: #000000; stroke-width: 0.6"/>
      </g>
     </g>
     <g id="text_10">
      <!-- $\mathdefault{5\times10^{0}}$ -->
      <g transform="translate(22.81375 228.486422)">
       <text>
        <tspan style="font: 10px 'DejaVu Sans'" x="0 8.310547 18.637695 25" y="-0.9765625">5×10</tspan>
        <tspan style="font: 7px 'DejaVu Sans'" x="31.458008" y="-4.8046875">0</tspan>
       </text>
      </g>
     </g>
    </g>
    <g id="ytick_3">
     <g id="line2d_17">
      <g>
       <use xlink:href="#m55118dce04" x="64.41375" y="62.931745" style="stroke: #000000; stroke-width: 0.6"/>
      </g>
     </g>
     <g id="text_11">
      <!-- $\mathdefault{6\times10^{0}}$ -->
      <g transform="translate(22.81375 66.730964)">
       <text>
        <tspan style="font: 10px 'DejaVu Sans'" x="0 8.310547 18.637695 25" y="-0.9765625">6×10</tspan>
        <tspan style="font: 7px 'DejaVu Sans'" x="31.458008" y="-4.8046875">0</tspan>
       </text>
      </g>
     </g>
    </g>
    <g id="text_12">
     <text style="font: 12px 'DejaVu Sans', 'Bitstream Vera Sans', 'Computer Modern Sans Serif', 'Lucida Grande', 'Verdana', 'Geneva', 'Lucid', 'Arial', 'Helvetica', 'Avant Garde', sans-serif; text-anchor: middle" x="16.318125" y="276.572969" transform="rotate(-90 16.318125 276.572969)">Median Elapsed Time (nanoseconds)</text>
    </g>
   </g>
   <g id="line2d_18">
    <path d="M 94.744787 377.263444 
L 105.387256 377.263444 
L 116.029725 377.263444 
L 126.672194 377.263444 
L 137.314663 377.263444 
L 147.957132 377.263444 
L 158.599602 377.263444 
L 169.242071 377.263444 
L 179.88454 377.263444 
L 190.527009 377.263444 
L 201.169478 377.263444 
L 211.811947 379.373311 
L 222.454416 377.263444 
L 243.739354 379.373311 
L 254.381823 379.373311 
L 275.666762 377.263444 
L 286.309231 377.263444 
L 296.9517 377.263444 
L 307.594169 398.591364 
L 318.236638 377.263444 
L 339.521576 377.263444 
L 350.164045 377.263444 
L 360.806514 377.263444 
L 371.448984 377.263444 
L 392.733922 379.373311 
L 403.376391 379.373311 
L 414.01886 377.263444 
L 424.661329 379.373311 
L 435.303798 379.373311 
L 445.946267 377.263444 
L 456.588736 379.373311 
L 467.231205 379.373311 
L 488.516144 442.849855 
L 499.158613 442.849855 
L 509.801082 445.121812 
L 531.08602 442.849855 
L 563.013427 442.849855 
L 573.655896 445.121812 
L 584.298365 445.121812 
L 594.940835 442.849855 
L 605.583304 442.849855 
L 616.225773 442.849855 
L 626.868242 442.849855 
L 637.510711 465.835564 
L 648.15318 445.121812 
L 658.795649 445.121812 
L 680.080587 445.121812 
L 690.723056 374.167627 
L 701.365526 442.849855 
" clip-path="url(#p41374a77f2)" style="fill: none; stroke: #1f77b4; stroke-width: 2; stroke-linecap: square"/>
    <defs>
     <path id="m5c2a7a5a59" d="M 0 3 
C 0.795609 3 1.55874 2.683901 2.12132 2.12132 
C 2.683901 1.55874 3 0.795609 3 0 
C 3 -0.795609 2.683901 -1.55874 2.12132 -2.12132 
C 1.55874 -2.683901 0.795609 -3 0 -3 
C -0.795609 -3 -1.55874 -2.683901 -2.12132 -2.12132 
C -2.683901 -1.55874 -3 -0.795609 -3 0 
C -3 0.795609 -2.683901 1.55874 -2.12132 2.12132 
C -1.55874 2.683901 -0.795609 3 0 3 
z
" style="stroke: #1f77b4"/>
    </defs>
    <g clip-path="url(#p41374a77f2)">
     <use xlink:href="#m5c2a7a5a59" x="94.744787" y="377.263444" style="fill: #1f77b4; stroke: #1f77b4"/>
     <use xlink:href="#m5c2a7a5a59" x="105.387256" y="377.263444" style="fill: #1f77b4; stroke: #1f77b4"/>
     <use xlink:href="#m5c2a7a5a59" x="116.029725" y="377.263444" style="fill: #1f77b4; stroke: #1f77b4"/>
     <use xlink:href="#m5c2a7a5a59" x="126.672194" y="377.263444" style="fill: #1f77b4; stroke: #1f77b4"/>
     <use xlink:href="#m5c2a7a5a59" x="137.314663" y="377.263444" style="fill: #1f77b4; stroke: #1f77b4"/>
     <use xlink:href="#m5c2a7a5a59" x="147.957132" y="377.263444" style="fill: #1f77b4; stroke: #1f77b4"/>
     <use xlink:href="#m5c2a7a5a59" x="158.599602" y="377.263444" style="fill: #1f77b4; stroke: #1f77b4"/>
     <use xlink:href="#m5c2a7a5a59" x="169.242071" y="377.263444" style="fill: #1f77b4; stroke: #1f77b4"/>
     <use xlink:href="#m5c2a7a5a59" x="179.88454" y="377.263444" style="fill: #1f77b4; stroke: #1f77b4"/>
     <use xlink:href="#m5c2a7a5a59" x="190.527009" y="377.263444" style="fill: #1f77b4; stroke: #1f77b4"/>
     <use xlink:href="#m5c2a7a5a59" x="201.169478" y="377.263444" style="fill: #1f77b4; stroke: #1f77b4"/>
     <use xlink:href="#m5c2a7a5a59" x="211.811947" y="379.373311" style="fill: #1f77b4; stroke: #1f77b4"/>
     <use xlink:href="#m5c2a7a5a59" x="222.454416" y="377.263444" style="fill: #1f77b4; stroke: #1f77b4"/>
     <use xlink:href="#m5c2a7a5a59" x="243.739354" y="379.373311" style="fill: #1f77b4; stroke: #1f77b4"/>
     <use xlink:href="#m5c2a7a5a59" x="254.381823" y="379.373311" style="fill: #1f77b4; stroke: #1f77b4"/>
     <use xlink:href="#m5c2a7a5a59" x="275.666762" y="377.263444" style="fill: #1f77b4; stroke: #1f77b4"/>
     <use xlink:href="#m5c2a7a5a59" x="286.309231" y="377.263444" style="fill: #1f77b4; stroke: #1f77b4"/>
     <use xlink:href="#m5c2a7a5a59" x="296.9517" y="377.263444" style="fill: #1f77b4; stroke: #1f77b4"/>
     <use xlink:href="#m5c2a7a5a59" x="307.594169" y="398.591364" style="fill: #1f77b4; stroke: #1f77b4"/>
     <use xlink:href="#m5c2a7a5a59" x="318.236638" y="377.263444" style="fill: #1f77b4; stroke: #1f77b4"/>
     <use xlink:href="#m5c2a7a5a59" x="339.521576" y="377.263444" style="fill: #1f77b4; stroke: #1f77b4"/>
     <use xlink:href="#m5c2a7a5a59" x="350.164045" y="377.263444" style="fill: #1f77b4; stroke: #1f77b4"/>
     <use xlink:href="#m5c2a7a5a59" x="360.806514" y="377.263444" style="fill: #1f77b4; stroke: #1f77b4"/>
     <use xlink:href="#m5c2a7a5a59" x="371.448984" y="377.263444" style="fill: #1f77b4; stroke: #1f77b4"/>
     <use xlink:href="#m5c2a7a5a59" x="392.733922" y="379.373311" style="fill: #1f77b4; stroke: #1f77b4"/>
     <use xlink:href="#m5c2a7a5a59" x="403.376391" y="379.373311" style="fill: #1f77b4; stroke: #1f77b4"/>
     <use xlink:href="#m5c2a7a5a59" x="414.01886" y="377.263444" style="fill: #1f77b4; stroke: #1f77b4"/>
     <use xlink:href="#m5c2a7a5a59" x="424.661329" y="379.373311" style="fill: #1f77b4; stroke: #1f77b4"/>
     <use xlink:href="#m5c2a7a5a59" x="435.303798" y="379.373311" style="fill: #1f77b4; stroke: #1f77b4"/>
     <use xlink:href="#m5c2a7a5a59" x="445.946267" y="377.263444" style="fill: #1f77b4; stroke: #1f77b4"/>
     <use xlink:href="#m5c2a7a5a59" x="456.588736" y="379.373311" style="fill: #1f77b4; stroke: #1f77b4"/>
     <use xlink:href="#m5c2a7a5a59" x="467.231205" y="379.373311" style="fill: #1f77b4; stroke: #1f77b4"/>
     <use xlink:href="#m5c2a7a5a59" x="488.516144" y="442.849855" style="fill: #1f77b4; stroke: #1f77b4"/>
     <use xlink:href="#m5c2a7a5a59" x="499.158613" y="442.849855" style="fill: #1f77b4; stroke: #1f77b4"/>
     <use xlink:href="#m5c2a7a5a59" x="509.801082" y="445.121812" style="fill: #1f77b4; stroke: #1f77b4"/>
     <use xlink:href="#m5c2a7a5a59" x="531.08602" y="442.849855" style="fill: #1f77b4; stroke: #1f77b4"/>
     <use xlink:href="#m5c2a7a5a59" x="563.013427" y="442.849855" style="fill: #1f77b4; stroke: #1f77b4"/>
     <use xlink:href="#m5c2a7a5a59" x="573.655896" y="445.121812" style="fill: #1f77b4; stroke: #1f77b4"/>
     <use xlink:href="#m5c2a7a5a59" x="584.298365" y="445.121812" style="fill: #1f77b4; stroke: #1f77b4"/>
     <use xlink:href="#m5c2a7a5a59" x="594.940835" y="442.849855" style="fill: #1f77b4; stroke: #1f77b4"/>
     <use xlink:href="#m5c2a7a5a59" x="605.583304" y="442.849855" style="fill: #1f77b4; stroke: #1f77b4"/>
     <use xlink:href="#m5c2a7a5a59" x="616.225773" y="442.849855" style="fill: #1f77b4; stroke: #1f77b4"/>
     <use xlink:href="#m5c2a7a5a59" x="626.868242" y="442.849855" style="fill: #1f77b4; stroke: #1f77b4"/>
     <use xlink:href="#m5c2a7a5a59" x="637.510711" y="465.835564" style="fill: #1f77b4; stroke: #1f77b4"/>
     <use xlink:href="#m5c2a7a5a59" x="648.15318" y="445.121812" style="fill: #1f77b4; stroke: #1f77b4"/>
     <use xlink:href="#m5c2a7a5a59" x="658.795649" y="445.121812" style="fill: #1f77b4; stroke: #1f77b4"/>
     <use xlink:href="#m5c2a7a5a59" x="680.080587" y="445.121812" style="fill: #1f77b4; stroke: #1f77b4"/>
     <use xlink:href="#m5c2a7a5a59" x="690.723056" y="374.167627" style="fill: #1f77b4; stroke: #1f77b4"/>
     <use xlink:href="#m5c2a7a5a59" x="701.365526" y="442.849855" style="fill: #1f77b4; stroke: #1f77b4"/>
    </g>
   </g>
   <g id="line2d_19">
    <path d="M 94.744787 442.849855 
L 105.387256 356.436226 
L 116.029725 358.497083 
L 126.672194 377.263444 
L 137.314663 358.497083 
L 147.957132 377.263444 
L 158.599602 377.263444 
L 169.242071 358.497083 
L 179.88454 377.263444 
L 190.527009 356.436226 
L 201.169478 377.263444 
L 211.811947 358.497083 
L 222.454416 356.436226 
L 233.096885 356.436226 
L 243.739354 377.263444 
L 254.381823 358.497083 
L 275.666762 358.497083 
L 286.309231 358.497083 
L 296.9517 377.263444 
L 307.594169 356.436226 
L 318.236638 358.497083 
L 328.879107 358.497083 
L 339.521576 358.497083 
L 350.164045 356.436226 
L 360.806514 358.497083 
L 371.448984 46.813736 
L 392.733922 377.263444 
L 403.376391 377.263444 
L 414.01886 358.497083 
L 424.661329 356.436226 
L 435.303798 356.436226 
L 445.946267 356.436226 
L 456.588736 358.497083 
L 467.231205 356.436226 
L 488.516144 356.436226 
L 499.158613 377.263444 
L 509.801082 358.497083 
L 520.443551 358.497083 
L 531.08602 358.497083 
L 552.370958 377.263444 
L 563.013427 356.436226 
L 573.655896 356.436226 
L 584.298365 356.436226 
L 594.940835 356.436226 
L 605.583304 356.436226 
L 616.225773 358.497083 
L 626.868242 358.497083 
L 637.510711 506.332202 
L 648.15318 356.436226 
L 658.795649 377.263444 
L 680.080587 316.193556 
L 690.723056 316.193556 
L 701.365526 318.162922 
" clip-path="url(#p41374a77f2)" style="fill: none; stroke: #ff7f0e; stroke-width: 2; stroke-linecap: square"/>
    <defs>
     <path id="mcb7f5c34ca" d="M 0 3 
C 0.795609 3 1.55874 2.683901 2.12132 2.12132 
C 2.683901 1.55874 3 0.795609 3 0 
C 3 -0.795609 2.683901 -1.55874 2.12132 -2.12132 
C 1.55874 -2.683901 0.795609 -3 0 -3 
C -0.795609 -3 -1.55874 -2.683901 -2.12132 -2.12132 
C -2.683901 -1.55874 -3 -0.795609 -3 0 
C -3 0.795609 -2.683901 1.55874 -2.12132 2.12132 
C -1.55874 2.683901 -0.795609 3 0 3 
z
" style="stroke: #ff7f0e"/>
    </defs>
    <g clip-path="url(#p41374a77f2)">
     <use xlink:href="#mcb7f5c34ca" x="94.744787" y="442.849855" style="fill: #ff7f0e; stroke: #ff7f0e"/>
     <use xlink:href="#mcb7f5c34ca" x="105.387256" y="356.436226" style="fill: #ff7f0e; stroke: #ff7f0e"/>
     <use xlink:href="#mcb7f5c34ca" x="116.029725" y="358.497083" style="fill: #ff7f0e; stroke: #ff7f0e"/>
     <use xlink:href="#mcb7f5c34ca" x="126.672194" y="377.263444" style="fill: #ff7f0e; stroke: #ff7f0e"/>
     <use xlink:href="#mcb7f5c34ca" x="137.314663" y="358.497083" style="fill: #ff7f0e; stroke: #ff7f0e"/>
     <use xlink:href="#mcb7f5c34ca" x="147.957132" y="377.263444" style="fill: #ff7f0e; stroke: #ff7f0e"/>
     <use xlink:href="#mcb7f5c34ca" x="158.599602" y="377.263444" style="fill: #ff7f0e; stroke: #ff7f0e"/>
     <use xlink:href="#mcb7f5c34ca" x="169.242071" y="358.497083" style="fill: #ff7f0e; stroke: #ff7f0e"/>
     <use xlink:href="#mcb7f5c34ca" x="179.88454" y="377.263444" style="fill: #ff7f0e; stroke: #ff7f0e"/>
     <use xlink:href="#mcb7f5c34ca" x="190.527009" y="356.436226" style="fill: #ff7f0e; stroke: #ff7f0e"/>
     <use xlink:href="#mcb7f5c34ca" x="201.169478" y="377.263444" style="fill: #ff7f0e; stroke: #ff7f0e"/>
     <use xlink:href="#mcb7f5c34ca" x="211.811947" y="358.497083" style="fill: #ff7f0e; stroke: #ff7f0e"/>
     <use xlink:href="#mcb7f5c34ca" x="222.454416" y="356.436226" style="fill: #ff7f0e; stroke: #ff7f0e"/>
     <use xlink:href="#mcb7f5c34ca" x="233.096885" y="356.436226" style="fill: #ff7f0e; stroke: #ff7f0e"/>
     <use xlink:href="#mcb7f5c34ca" x="243.739354" y="377.263444" style="fill: #ff7f0e; stroke: #ff7f0e"/>
     <use xlink:href="#mcb7f5c34ca" x="254.381823" y="358.497083" style="fill: #ff7f0e; stroke: #ff7f0e"/>
     <use xlink:href="#mcb7f5c34ca" x="275.666762" y="358.497083" style="fill: #ff7f0e; stroke: #ff7f0e"/>
     <use xlink:href="#mcb7f5c34ca" x="286.309231" y="358.497083" style="fill: #ff7f0e; stroke: #ff7f0e"/>
     <use xlink:href="#mcb7f5c34ca" x="296.9517" y="377.263444" style="fill: #ff7f0e; stroke: #ff7f0e"/>
     <use xlink:href="#mcb7f5c34ca" x="307.594169" y="356.436226" style="fill: #ff7f0e; stroke: #ff7f0e"/>
     <use xlink:href="#mcb7f5c34ca" x="318.236638" y="358.497083" style="fill: #ff7f0e; stroke: #ff7f0e"/>
     <use xlink:href="#mcb7f5c34ca" x="328.879107" y="358.497083" style="fill: #ff7f0e; stroke: #ff7f0e"/>
     <use xlink:href="#mcb7f5c34ca" x="339.521576" y="358.497083" style="fill: #ff7f0e; stroke: #ff7f0e"/>
     <use xlink:href="#mcb7f5c34ca" x="350.164045" y="356.436226" style="fill: #ff7f0e; stroke: #ff7f0e"/>
     <use xlink:href="#mcb7f5c34ca" x="360.806514" y="358.497083" style="fill: #ff7f0e; stroke: #ff7f0e"/>
     <use xlink:href="#mcb7f5c34ca" x="371.448984" y="46.813736" style="fill: #ff7f0e; stroke: #ff7f0e"/>
     <use xlink:href="#mcb7f5c34ca" x="392.733922" y="377.263444" style="fill: #ff7f0e; stroke: #ff7f0e"/>
     <use xlink:href="#mcb7f5c34ca" x="403.376391" y="377.263444" style="fill: #ff7f0e; stroke: #ff7f0e"/>
     <use xlink:href="#mcb7f5c34ca" x="414.01886" y="358.497083" style="fill: #ff7f0e; stroke: #ff7f0e"/>
     <use xlink:href="#mcb7f5c34ca" x="424.661329" y="356.436226" style="fill: #ff7f0e; stroke: #ff7f0e"/>
     <use xlink:href="#mcb7f5c34ca" x="435.303798" y="356.436226" style="fill: #ff7f0e; stroke: #ff7f0e"/>
     <use xlink:href="#mcb7f5c34ca" x="445.946267" y="356.436226" style="fill: #ff7f0e; stroke: #ff7f0e"/>
     <use xlink:href="#mcb7f5c34ca" x="456.588736" y="358.497083" style="fill: #ff7f0e; stroke: #ff7f0e"/>
     <use xlink:href="#mcb7f5c34ca" x="467.231205" y="356.436226" style="fill: #ff7f0e; stroke: #ff7f0e"/>
     <use xlink:href="#mcb7f5c34ca" x="488.516144" y="356.436226" style="fill: #ff7f0e; stroke: #ff7f0e"/>
     <use xlink:href="#mcb7f5c34ca" x="499.158613" y="377.263444" style="fill: #ff7f0e; stroke: #ff7f0e"/>
     <use xlink:href="#mcb7f5c34ca" x="509.801082" y="358.497083" style="fill: #ff7f0e; stroke: #ff7f0e"/>
     <use xlink:href="#mcb7f5c34ca" x="520.443551" y="358.497083" style="fill: #ff7f0e; stroke: #ff7f0e"/>
     <use xlink:href="#mcb7f5c34ca" x="531.08602" y="358.497083" style="fill: #ff7f0e; stroke: #ff7f0e"/>
     <use xlink:href="#mcb7f5c34ca" x="552.370958" y="377.263444" style="fill: #ff7f0e; stroke: #ff7f0e"/>
     <use xlink:href="#mcb7f5c34ca" x="563.013427" y="356.436226" style="fill: #ff7f0e; stroke: #ff7f0e"/>
     <use xlink:href="#mcb7f5c34ca" x="573.655896" y="356.436226" style="fill: #ff7f0e; stroke: #ff7f0e"/>
     <use xlink:href="#mcb7f5c34ca" x="584.298365" y="356.436226" style="fill: #ff7f0e; stroke: #ff7f0e"/>
     <use xlink:href="#mcb7f5c34ca" x="594.940835" y="356.436226" style="fill: #ff7f0e; stroke: #ff7f0e"/>
     <use xlink:href="#mcb7f5c34ca" x="605.583304" y="356.436226" style="fill: #ff7f0e; stroke: #ff7f0e"/>
     <use xlink:href="#mcb7f5c34ca" x="616.225773" y="358.497083" style="fill: #ff7f0e; stroke: #ff7f0e"/>
     <use xlink:href="#mcb7f5c34ca" x="626.868242" y="358.497083" style="fill: #ff7f0e; stroke: #ff7f0e"/>
     <use xlink:href="#mcb7f5c34ca" x="637.510711" y="506.332202" style="fill: #ff7f0e; stroke: #ff7f0e"/>
     <use xlink:href="#mcb7f5c34ca" x="648.15318" y="356.436226" style="fill: #ff7f0e; stroke: #ff7f0e"/>
     <use xlink:href="#mcb7f5c34ca" x="658.795649" y="377.263444" style="fill: #ff7f0e; stroke: #ff7f0e"/>
     <use xlink:href="#mcb7f5c34ca" x="680.080587" y="316.193556" style="fill: #ff7f0e; stroke: #ff7f0e"/>
     <use xlink:href="#mcb7f5c34ca" x="690.723056" y="316.193556" style="fill: #ff7f0e; stroke: #ff7f0e"/>
     <use xlink:href="#mcb7f5c34ca" x="701.365526" y="318.162922" style="fill: #ff7f0e; stroke: #ff7f0e"/>
    </g>
   </g>
   <g id="patch_3">
    <path d="M 64.41375 529.308125 
L 64.41375 23.837812 
" style="fill: none; stroke: #000000; stroke-width: 0.8; stroke-linejoin: miter; stroke-linecap: square"/>
   </g>
   <g id="patch_4">
    <path d="M 731.696562 529.308125 
L 731.696562 23.837812 
" style="fill: none; stroke: #000000; stroke-width: 0.8; stroke-linejoin: miter; stroke-linecap: square"/>
   </g>
   <g id="patch_5">
    <path d="M 64.41375 529.308125 
L 731.696562 529.308125 
" style="fill: none; stroke: #000000; stroke-width: 0.8; stroke-linejoin: miter; stroke-linecap: square"/>
   </g>
   <g id="patch_6">
    <path d="M 64.41375 23.837812 
L 731.696562 23.837812 
" style="fill: none; stroke: #000000; stroke-width: 0.8; stroke-linejoin: miter; stroke-linecap: square"/>
   </g>
   <g id="text_13">
    <text style="font: 700 14px 'DejaVu Sans', 'Bitstream Vera Sans', 'Computer Modern Sans Serif', 'Lucida Grande', 'Verdana', 'Geneva', 'Lucid', 'Arial', 'Helvetica', 'Avant Garde', sans-serif; text-anchor: middle" x="398.055156" y="17.837813" transform="rotate(-0 398.055156 17.837813)">Ts Thread Local Single Thread - Performance Trend</text>
   </g>
   <g id="legend_1">
    <g id="patch_7">
     <path d="M 772.060703 61.194063 
L 847.484141 61.194063 
Q 849.484141 61.194063 849.484141 59.194063 
L 849.484141 30.837813 
Q 849.484141 28.837813 847.484141 28.837813 
L 772.060703 28.837813 
Q 770.060703 28.837813 770.060703 30.837813 
L 770.060703 59.194063 
Q 770.060703 61.194063 772.060703 61.194063 
z
" style="fill: #ffffff; opacity: 0.8; stroke: #cccccc; stroke-linejoin: miter"/>
    </g>
    <g id="line2d_20">
     <path d="M 774.060703 36.93625 
L 784.060703 36.93625 
L 794.060703 36.93625 
" style="fill: none; stroke: #1f77b4; stroke-width: 2; stroke-linecap: square"/>
     <g>
      <use xlink:href="#m5c2a7a5a59" x="784.060703" y="36.93625" style="fill: #1f77b4; stroke: #1f77b4"/>
     </g>
    </g>
    <g id="text_14">
     <text style="font: 10px 'DejaVu Sans', 'Bitstream Vera Sans', 'Computer Modern Sans Serif', 'Lucida Grande', 'Verdana', 'Geneva', 'Lucid', 'Arial', 'Helvetica', 'Avant Garde', sans-serif; text-anchor: start" x="802.060703" y="40.43625" transform="rotate(-0 802.060703 40.43625)">clang-18</text>
    </g>
    <g id="line2d_21">
     <path d="M 774.060703 51.614375 
L 784.060703 51.614375 
L 794.060703 51.614375 
" style="fill: none; stroke: #ff7f0e; stroke-width: 2; stroke-linecap: square"/>
     <g>
      <use xlink:href="#mcb7f5c34ca" x="784.060703" y="51.614375" style="fill: #ff7f0e; stroke: #ff7f0e"/>
     </g>
    </g>
    <g id="text_15">
     <text style="font: 10px 'DejaVu Sans', 'Bitstream Vera Sans', 'Computer Modern Sans Serif', 'Lucida Grande', 'Verdana', 'Geneva', 'Lucid', 'Arial', 'Helvetica', 'Avant Garde', sans-serif; text-anchor: start" x="802.060703" y="55.114375" transform="rotate(-0 802.060703 55.114375)">gcc-14</text>
    </g>
   </g>
  </g>
 </g>
 <defs>
  <clipPath id="p41374a77f2">
   <rect x="64.41375" y="23.837813" width="667.282812" height="505.470313"/>
  </clipPath>
 </defs>
</svg>
