<?xml version="1.0" encoding="utf-8" standalone="no"?>
<!DOCTYPE svg PUBLIC "-//W3C//DTD SVG 1.1//EN"
  "http://www.w3.org/Graphics/SVG/1.1/DTD/svg11.dtd">
<svg xmlns:xlink="http://www.w3.org/1999/xlink" width="855.204687pt" height="568.8pt" viewBox="0 0 855.204687 568.8" xmlns="http://www.w3.org/2000/svg" version="1.1">
 <metadata>
  <rdf:RDF xmlns:dc="http://purl.org/dc/elements/1.1/" xmlns:cc="http://creativecommons.org/ns#" xmlns:rdf="http://www.w3.org/1999/02/22-rdf-syntax-ns#">
   <cc:Work>
    <dc:type rdf:resource="http://purl.org/dc/dcmitype/StillImage"/>
    <dc:date>2025-08-22T16:47:00.548136</dc:date>
    <dc:format>image/svg+xml</dc:format>
    <dc:creator>
     <cc:Agent>
      <dc:title>Matplotlib v3.9.4, https://matplotlib.org/</dc:title>
     </cc:Agent>
    </dc:creator>
   </cc:Work>
  </rdf:RDF>
 </metadata>
 <defs>
  <style type="text/css">*{stroke-linejoin: round; stroke-linecap: butt}</style>
 </defs>
 <g id="figure_1">
  <g id="patch_1">
   <path d="M 0 568.8 
L 855.204687 568.8 
L 855.204687 0 
L 0 0 
z
" style="fill: #ffffff"/>
  </g>
  <g id="axes_1">
   <g id="patch_2">
    <path d="M 64.41375 529.308125 
L 702.1075 529.308125 
L 702.1075 23.837812 
L 64.41375 23.837812 
z
" style="fill: #ffffff"/>
   </g>
   <g id="matplotlib.axis_1">
    <g id="xtick_1">
     <g id="line2d_1">
      <path d="M 74.075777 529.308125 
L 74.075777 23.837812 
" clip-path="url(#p6ec2938f7b)" style="fill: none; stroke: #b0b0b0; stroke-opacity: 0.3; stroke-width: 0.8; stroke-linecap: square"/>
     </g>
     <g id="line2d_2">
      <defs>
       <path id="mb9cb4bedc9" d="M 0 0 
L 0 3.5 
" style="stroke: #000000; stroke-width: 0.8"/>
      </defs>
      <g>
       <use xlink:href="#mb9cb4bedc9" x="74.075777" y="529.308125" style="stroke: #000000; stroke-width: 0.8"/>
      </g>
     </g>
     <g id="text_1">
      <text style="font: 10px 'DejaVu Sans', 'Bitstream Vera Sans', 'Computer Modern Sans Serif', 'Lucida Grande', 'Verdana', 'Geneva', 'Lucid', 'Arial', 'Helvetica', 'Avant Garde', sans-serif; text-anchor: middle" x="74.075777" y="543.906563" transform="rotate(-0 74.075777 543.906563)">70</text>
     </g>
    </g>
    <g id="xtick_2">
     <g id="line2d_3">
      <path d="M 170.696042 529.308125 
L 170.696042 23.837812 
" clip-path="url(#p6ec2938f7b)" style="fill: none; stroke: #b0b0b0; stroke-opacity: 0.3; stroke-width: 0.8; stroke-linecap: square"/>
     </g>
     <g id="line2d_4">
      <g>
       <use xlink:href="#mb9cb4bedc9" x="170.696042" y="529.308125" style="stroke: #000000; stroke-width: 0.8"/>
      </g>
     </g>
     <g id="text_2">
      <text style="font: 10px 'DejaVu Sans', 'Bitstream Vera Sans', 'Computer Modern Sans Serif', 'Lucida Grande', 'Verdana', 'Geneva', 'Lucid', 'Arial', 'Helvetica', 'Avant Garde', sans-serif; text-anchor: middle" x="170.696042" y="543.906563" transform="rotate(-0 170.696042 543.906563)">75</text>
     </g>
    </g>
    <g id="xtick_3">
     <g id="line2d_5">
      <path d="M 267.316307 529.308125 
L 267.316307 23.837812 
" clip-path="url(#p6ec2938f7b)" style="fill: none; stroke: #b0b0b0; stroke-opacity: 0.3; stroke-width: 0.8; stroke-linecap: square"/>
     </g>
     <g id="line2d_6">
      <g>
       <use xlink:href="#mb9cb4bedc9" x="267.316307" y="529.308125" style="stroke: #000000; stroke-width: 0.8"/>
      </g>
     </g>
     <g id="text_3">
      <text style="font: 10px 'DejaVu Sans', 'Bitstream Vera Sans', 'Computer Modern Sans Serif', 'Lucida Grande', 'Verdana', 'Geneva', 'Lucid', 'Arial', 'Helvetica', 'Avant Garde', sans-serif; text-anchor: middle" x="267.316307" y="543.906563" transform="rotate(-0 267.316307 543.906563)">80</text>
     </g>
    </g>
    <g id="xtick_4">
     <g id="line2d_7">
      <path d="M 363.936572 529.308125 
L 363.936572 23.837812 
" clip-path="url(#p6ec2938f7b)" style="fill: none; stroke: #b0b0b0; stroke-opacity: 0.3; stroke-width: 0.8; stroke-linecap: square"/>
     </g>
     <g id="line2d_8">
      <g>
       <use xlink:href="#mb9cb4bedc9" x="363.936572" y="529.308125" style="stroke: #000000; stroke-width: 0.8"/>
      </g>
     </g>
     <g id="text_4">
      <text style="font: 10px 'DejaVu Sans', 'Bitstream Vera Sans', 'Computer Modern Sans Serif', 'Lucida Grande', 'Verdana', 'Geneva', 'Lucid', 'Arial', 'Helvetica', 'Avant Garde', sans-serif; text-anchor: middle" x="363.936572" y="543.906563" transform="rotate(-0 363.936572 543.906563)">85</text>
     </g>
    </g>
    <g id="xtick_5">
     <g id="line2d_9">
      <path d="M 460.556837 529.308125 
L 460.556837 23.837812 
" clip-path="url(#p6ec2938f7b)" style="fill: none; stroke: #b0b0b0; stroke-opacity: 0.3; stroke-width: 0.8; stroke-linecap: square"/>
     </g>
     <g id="line2d_10">
      <g>
       <use xlink:href="#mb9cb4bedc9" x="460.556837" y="529.308125" style="stroke: #000000; stroke-width: 0.8"/>
      </g>
     </g>
     <g id="text_5">
      <text style="font: 10px 'DejaVu Sans', 'Bitstream Vera Sans', 'Computer Modern Sans Serif', 'Lucida Grande', 'Verdana', 'Geneva', 'Lucid', 'Arial', 'Helvetica', 'Avant Garde', sans-serif; text-anchor: middle" x="460.556837" y="543.906563" transform="rotate(-0 460.556837 543.906563)">90</text>
     </g>
    </g>
    <g id="xtick_6">
     <g id="line2d_11">
      <path d="M 557.177102 529.308125 
L 557.177102 23.837812 
" clip-path="url(#p6ec2938f7b)" style="fill: none; stroke: #b0b0b0; stroke-opacity: 0.3; stroke-width: 0.8; stroke-linecap: square"/>
     </g>
     <g id="line2d_12">
      <g>
       <use xlink:href="#mb9cb4bedc9" x="557.177102" y="529.308125" style="stroke: #000000; stroke-width: 0.8"/>
      </g>
     </g>
     <g id="text_6">
      <text style="font: 10px 'DejaVu Sans', 'Bitstream Vera Sans', 'Computer Modern Sans Serif', 'Lucida Grande', 'Verdana', 'Geneva', 'Lucid', 'Arial', 'Helvetica', 'Avant Garde', sans-serif; text-anchor: middle" x="557.177102" y="543.906563" transform="rotate(-0 557.177102 543.906563)">95</text>
     </g>
    </g>
    <g id="xtick_7">
     <g id="line2d_13">
      <path d="M 653.797367 529.308125 
L 653.797367 23.837812 
" clip-path="url(#p6ec2938f7b)" style="fill: none; stroke: #b0b0b0; stroke-opacity: 0.3; stroke-width: 0.8; stroke-linecap: square"/>
     </g>
     <g id="line2d_14">
      <g>
       <use xlink:href="#mb9cb4bedc9" x="653.797367" y="529.308125" style="stroke: #000000; stroke-width: 0.8"/>
      </g>
     </g>
     <g id="text_7">
      <text style="font: 10px 'DejaVu Sans', 'Bitstream Vera Sans', 'Computer Modern Sans Serif', 'Lucida Grande', 'Verdana', 'Geneva', 'Lucid', 'Arial', 'Helvetica', 'Avant Garde', sans-serif; text-anchor: middle" x="653.797367" y="543.906563" transform="rotate(-0 653.797367 543.906563)">100</text>
     </g>
    </g>
    <g id="text_8">
     <text style="font: 12px 'DejaVu Sans', 'Bitstream Vera Sans', 'Computer Modern Sans Serif', 'Lucida Grande', 'Verdana', 'Geneva', 'Lucid', 'Arial', 'Helvetica', 'Avant Garde', sans-serif; text-anchor: middle" x="383.260625" y="559.104375" transform="rotate(-0 383.260625 559.104375)">Build Number</text>
    </g>
   </g>
   <g id="matplotlib.axis_2">
    <g id="ytick_1">
     <g id="line2d_15">
      <defs>
       <path id="m6f1855aaa9" d="M 0 0 
L -2 0 
" style="stroke: #000000; stroke-width: 0.6"/>
      </defs>
      <g>
       <use xlink:href="#m6f1855aaa9" x="64.41375" y="514.915957" style="stroke: #000000; stroke-width: 0.6"/>
      </g>
     </g>
     <g id="text_9">
      <!-- $\mathdefault{5\times10^{7}}$ -->
      <g transform="translate(22.81375 518.715175)">
       <text>
        <tspan style="font: 10px 'DejaVu Sans'" x="0 8.310547 18.637695 25" y="-0.06406250000000036">5×10</tspan>
        <tspan style="font: 7px 'DejaVu Sans'" x="31.458008" y="-3.8921875000000004">7</tspan>
       </text>
      </g>
     </g>
    </g>
    <g id="ytick_2">
     <g id="line2d_16">
      <g>
       <use xlink:href="#m6f1855aaa9" x="64.41375" y="288.174215" style="stroke: #000000; stroke-width: 0.6"/>
      </g>
     </g>
     <g id="text_10">
      <!-- $\mathdefault{6\times10^{7}}$ -->
      <g transform="translate(22.81375 291.973434)">
       <text>
        <tspan style="font: 10px 'DejaVu Sans'" x="0 8.310547 18.637695 25" y="-0.06406250000000036">6×10</tspan>
        <tspan style="font: 7px 'DejaVu Sans'" x="31.458008" y="-3.8921875000000004">7</tspan>
       </text>
      </g>
     </g>
    </g>
    <g id="ytick_3">
     <g id="line2d_17">
      <g>
       <use xlink:href="#m6f1855aaa9" x="64.41375" y="96.466805" style="stroke: #000000; stroke-width: 0.6"/>
      </g>
     </g>
     <g id="text_11">
      <!-- $\mathdefault{7\times10^{7}}$ -->
      <g transform="translate(22.81375 100.266023)">
       <text>
        <tspan style="font: 10px 'DejaVu Sans'" x="0 8.310547 18.637695 25" y="-0.06406250000000036">7×10</tspan>
        <tspan style="font: 7px 'DejaVu Sans'" x="31.458008" y="-3.8921875000000004">7</tspan>
       </text>
      </g>
     </g>
    </g>
    <g id="text_12">
     <text style="font: 12px 'DejaVu Sans', 'Bitstream Vera Sans', 'Computer Modern Sans Serif', 'Lucida Grande', 'Verdana', 'Geneva', 'Lucid', 'Arial', 'Helvetica', 'Avant Garde', sans-serif; text-anchor: middle" x="16.318125" y="276.572969" transform="rotate(-90 16.318125 276.572969)">Median Elapsed Time (nanoseconds)</text>
    </g>
   </g>
   <g id="line2d_18">
    <path d="M 93.39983 493.691829 
L 112.723883 490.814075 
L 132.047936 487.494679 
L 151.371989 487.145326 
L 170.696042 488.410505 
L 190.020095 475.327557 
L 209.344148 487.596827 
L 228.668201 488.415686 
L 247.992254 489.713847 
L 267.316307 457.081027 
L 286.64036 483.450798 
L 305.964413 486.101722 
L 325.288466 488.754486 
L 344.612519 490.455908 
L 363.936572 482.796643 
L 383.260625 488.14356 
L 421.908731 488.224408 
L 441.232784 490.992343 
L 460.556837 489.612786 
L 479.88089 487.665045 
L 499.204943 485.091497 
L 518.528996 485.139142 
L 537.853049 487.108851 
L 557.177102 489.465187 
L 576.501155 488.642446 
L 595.825208 475.771404 
L 634.473314 470.614423 
L 653.797367 487.595644 
L 673.12142 490.252334 
" clip-path="url(#p6ec2938f7b)" style="fill: none; stroke: #1f77b4; stroke-width: 2; stroke-linecap: square"/>
    <defs>
     <path id="m129a96e573" d="M 0 3 
C 0.795609 3 1.55874 2.683901 2.12132 2.12132 
C 2.683901 1.55874 3 0.795609 3 0 
C 3 -0.795609 2.683901 -1.55874 2.12132 -2.12132 
C 1.55874 -2.683901 0.795609 -3 0 -3 
C -0.795609 -3 -1.55874 -2.683901 -2.12132 -2.12132 
C -2.683901 -1.55874 -3 -0.795609 -3 0 
C -3 0.795609 -2.683901 1.55874 -2.12132 2.12132 
C -1.55874 2.683901 -0.795609 3 0 3 
z
" style="stroke: #1f77b4"/>
    </defs>
    <g clip-path="url(#p6ec2938f7b)">
     <use xlink:href="#m129a96e573" x="93.39983" y="493.691829" style="fill: #1f77b4; stroke: #1f77b4"/>
     <use xlink:href="#m129a96e573" x="112.723883" y="490.814075" style="fill: #1f77b4; stroke: #1f77b4"/>
     <use xlink:href="#m129a96e573" x="132.047936" y="487.494679" style="fill: #1f77b4; stroke: #1f77b4"/>
     <use xlink:href="#m129a96e573" x="151.371989" y="487.145326" style="fill: #1f77b4; stroke: #1f77b4"/>
     <use xlink:href="#m129a96e573" x="170.696042" y="488.410505" style="fill: #1f77b4; stroke: #1f77b4"/>
     <use xlink:href="#m129a96e573" x="190.020095" y="475.327557" style="fill: #1f77b4; stroke: #1f77b4"/>
     <use xlink:href="#m129a96e573" x="209.344148" y="487.596827" style="fill: #1f77b4; stroke: #1f77b4"/>
     <use xlink:href="#m129a96e573" x="228.668201" y="488.415686" style="fill: #1f77b4; stroke: #1f77b4"/>
     <use xlink:href="#m129a96e573" x="247.992254" y="489.713847" style="fill: #1f77b4; stroke: #1f77b4"/>
     <use xlink:href="#m129a96e573" x="267.316307" y="457.081027" style="fill: #1f77b4; stroke: #1f77b4"/>
     <use xlink:href="#m129a96e573" x="286.64036" y="483.450798" style="fill: #1f77b4; stroke: #1f77b4"/>
     <use xlink:href="#m129a96e573" x="305.964413" y="486.101722" style="fill: #1f77b4; stroke: #1f77b4"/>
     <use xlink:href="#m129a96e573" x="325.288466" y="488.754486" style="fill: #1f77b4; stroke: #1f77b4"/>
     <use xlink:href="#m129a96e573" x="344.612519" y="490.455908" style="fill: #1f77b4; stroke: #1f77b4"/>
     <use xlink:href="#m129a96e573" x="363.936572" y="482.796643" style="fill: #1f77b4; stroke: #1f77b4"/>
     <use xlink:href="#m129a96e573" x="383.260625" y="488.14356" style="fill: #1f77b4; stroke: #1f77b4"/>
     <use xlink:href="#m129a96e573" x="421.908731" y="488.224408" style="fill: #1f77b4; stroke: #1f77b4"/>
     <use xlink:href="#m129a96e573" x="441.232784" y="490.992343" style="fill: #1f77b4; stroke: #1f77b4"/>
     <use xlink:href="#m129a96e573" x="460.556837" y="489.612786" style="fill: #1f77b4; stroke: #1f77b4"/>
     <use xlink:href="#m129a96e573" x="479.88089" y="487.665045" style="fill: #1f77b4; stroke: #1f77b4"/>
     <use xlink:href="#m129a96e573" x="499.204943" y="485.091497" style="fill: #1f77b4; stroke: #1f77b4"/>
     <use xlink:href="#m129a96e573" x="518.528996" y="485.139142" style="fill: #1f77b4; stroke: #1f77b4"/>
     <use xlink:href="#m129a96e573" x="537.853049" y="487.108851" style="fill: #1f77b4; stroke: #1f77b4"/>
     <use xlink:href="#m129a96e573" x="557.177102" y="489.465187" style="fill: #1f77b4; stroke: #1f77b4"/>
     <use xlink:href="#m129a96e573" x="576.501155" y="488.642446" style="fill: #1f77b4; stroke: #1f77b4"/>
     <use xlink:href="#m129a96e573" x="595.825208" y="475.771404" style="fill: #1f77b4; stroke: #1f77b4"/>
     <use xlink:href="#m129a96e573" x="634.473314" y="470.614423" style="fill: #1f77b4; stroke: #1f77b4"/>
     <use xlink:href="#m129a96e573" x="653.797367" y="487.595644" style="fill: #1f77b4; stroke: #1f77b4"/>
     <use xlink:href="#m129a96e573" x="673.12142" y="490.252334" style="fill: #1f77b4; stroke: #1f77b4"/>
    </g>
   </g>
   <g id="line2d_19">
    <path d="M 93.39983 214.978781 
L 112.723883 182.906967 
L 132.047936 272.956006 
L 151.371989 182.029092 
L 170.696042 268.872976 
L 190.020095 274.785303 
L 209.344148 171.913022 
L 228.668201 270.679187 
L 247.992254 182.508331 
L 267.316307 270.8712 
L 286.64036 182.657976 
L 305.964413 183.510793 
L 325.288466 272.463822 
L 344.612519 182.405436 
L 363.936572 272.552038 
L 383.260625 181.404628 
L 421.908731 275.226397 
L 441.232784 183.724883 
L 460.556837 182.093211 
L 479.88089 183.676891 
L 499.204943 275.146352 
L 518.528996 181.106543 
L 537.853049 272.254953 
L 557.177102 272.203128 
L 576.501155 489.711083 
L 595.825208 487.792477 
L 634.473314 488.905576 
L 653.797367 487.110074 
L 673.12142 490.669798 
" clip-path="url(#p6ec2938f7b)" style="fill: none; stroke: #ff7f0e; stroke-width: 2; stroke-linecap: square"/>
    <defs>
     <path id="mca830c3691" d="M 0 3 
C 0.795609 3 1.55874 2.683901 2.12132 2.12132 
C 2.683901 1.55874 3 0.795609 3 0 
C 3 -0.795609 2.683901 -1.55874 2.12132 -2.12132 
C 1.55874 -2.683901 0.795609 -3 0 -3 
C -0.795609 -3 -1.55874 -2.683901 -2.12132 -2.12132 
C -2.683901 -1.55874 -3 -0.795609 -3 0 
C -3 0.795609 -2.683901 1.55874 -2.12132 2.12132 
C -1.55874 2.683901 -0.795609 3 0 3 
z
" style="stroke: #ff7f0e"/>
    </defs>
    <g clip-path="url(#p6ec2938f7b)">
     <use xlink:href="#mca830c3691" x="93.39983" y="214.978781" style="fill: #ff7f0e; stroke: #ff7f0e"/>
     <use xlink:href="#mca830c3691" x="112.723883" y="182.906967" style="fill: #ff7f0e; stroke: #ff7f0e"/>
     <use xlink:href="#mca830c3691" x="132.047936" y="272.956006" style="fill: #ff7f0e; stroke: #ff7f0e"/>
     <use xlink:href="#mca830c3691" x="151.371989" y="182.029092" style="fill: #ff7f0e; stroke: #ff7f0e"/>
     <use xlink:href="#mca830c3691" x="170.696042" y="268.872976" style="fill: #ff7f0e; stroke: #ff7f0e"/>
     <use xlink:href="#mca830c3691" x="190.020095" y="274.785303" style="fill: #ff7f0e; stroke: #ff7f0e"/>
     <use xlink:href="#mca830c3691" x="209.344148" y="171.913022" style="fill: #ff7f0e; stroke: #ff7f0e"/>
     <use xlink:href="#mca830c3691" x="228.668201" y="270.679187" style="fill: #ff7f0e; stroke: #ff7f0e"/>
     <use xlink:href="#mca830c3691" x="247.992254" y="182.508331" style="fill: #ff7f0e; stroke: #ff7f0e"/>
     <use xlink:href="#mca830c3691" x="267.316307" y="270.8712" style="fill: #ff7f0e; stroke: #ff7f0e"/>
     <use xlink:href="#mca830c3691" x="286.64036" y="182.657976" style="fill: #ff7f0e; stroke: #ff7f0e"/>
     <use xlink:href="#mca830c3691" x="305.964413" y="183.510793" style="fill: #ff7f0e; stroke: #ff7f0e"/>
     <use xlink:href="#mca830c3691" x="325.288466" y="272.463822" style="fill: #ff7f0e; stroke: #ff7f0e"/>
     <use xlink:href="#mca830c3691" x="344.612519" y="182.405436" style="fill: #ff7f0e; stroke: #ff7f0e"/>
     <use xlink:href="#mca830c3691" x="363.936572" y="272.552038" style="fill: #ff7f0e; stroke: #ff7f0e"/>
     <use xlink:href="#mca830c3691" x="383.260625" y="181.404628" style="fill: #ff7f0e; stroke: #ff7f0e"/>
     <use xlink:href="#mca830c3691" x="421.908731" y="275.226397" style="fill: #ff7f0e; stroke: #ff7f0e"/>
     <use xlink:href="#mca830c3691" x="441.232784" y="183.724883" style="fill: #ff7f0e; stroke: #ff7f0e"/>
     <use xlink:href="#mca830c3691" x="460.556837" y="182.093211" style="fill: #ff7f0e; stroke: #ff7f0e"/>
     <use xlink:href="#mca830c3691" x="479.88089" y="183.676891" style="fill: #ff7f0e; stroke: #ff7f0e"/>
     <use xlink:href="#mca830c3691" x="499.204943" y="275.146352" style="fill: #ff7f0e; stroke: #ff7f0e"/>
     <use xlink:href="#mca830c3691" x="518.528996" y="181.106543" style="fill: #ff7f0e; stroke: #ff7f0e"/>
     <use xlink:href="#mca830c3691" x="537.853049" y="272.254953" style="fill: #ff7f0e; stroke: #ff7f0e"/>
     <use xlink:href="#mca830c3691" x="557.177102" y="272.203128" style="fill: #ff7f0e; stroke: #ff7f0e"/>
     <use xlink:href="#mca830c3691" x="576.501155" y="489.711083" style="fill: #ff7f0e; stroke: #ff7f0e"/>
     <use xlink:href="#mca830c3691" x="595.825208" y="487.792477" style="fill: #ff7f0e; stroke: #ff7f0e"/>
     <use xlink:href="#mca830c3691" x="634.473314" y="488.905576" style="fill: #ff7f0e; stroke: #ff7f0e"/>
     <use xlink:href="#mca830c3691" x="653.797367" y="487.110074" style="fill: #ff7f0e; stroke: #ff7f0e"/>
     <use xlink:href="#mca830c3691" x="673.12142" y="490.669798" style="fill: #ff7f0e; stroke: #ff7f0e"/>
    </g>
   </g>
   <g id="line2d_20">
    <path d="M 93.39983 506.332202 
L 112.723883 488.22548 
L 132.047936 487.132838 
L 151.371989 488.186015 
L 170.696042 486.766103 
L 190.020095 489.39061 
L 209.344148 488.226181 
L 228.668201 487.796971 
L 247.992254 488.498719 
L 267.316307 489.635154 
L 286.64036 487.489777 
L 305.964413 488.674621 
L 325.288466 488.025081 
L 344.612519 486.62109 
L 363.936572 488.454844 
L 383.260625 487.47967 
L 421.908731 488.84933 
L 441.232784 488.865783 
L 460.556837 488.877107 
L 479.88089 487.310761 
L 499.204943 485.899652 
L 518.528996 488.616735 
L 537.853049 489.033189 
L 557.177102 489.763866 
L 576.501155 488.529815 
L 595.825208 486.353552 
L 634.473314 488.038332 
L 653.797367 488.389339 
L 673.12142 488.955913 
" clip-path="url(#p6ec2938f7b)" style="fill: none; stroke: #2ca02c; stroke-width: 2; stroke-linecap: square"/>
    <defs>
     <path id="mfd6467de74" d="M 0 3 
C 0.795609 3 1.55874 2.683901 2.12132 2.12132 
C 2.683901 1.55874 3 0.795609 3 0 
C 3 -0.795609 2.683901 -1.55874 2.12132 -2.12132 
C 1.55874 -2.683901 0.795609 -3 0 -3 
C -0.795609 -3 -1.55874 -2.683901 -2.12132 -2.12132 
C -2.683901 -1.55874 -3 -0.795609 -3 0 
C -3 0.795609 -2.683901 1.55874 -2.12132 2.12132 
C -1.55874 2.683901 -0.795609 3 0 3 
z
" style="stroke: #2ca02c"/>
    </defs>
    <g clip-path="url(#p6ec2938f7b)">
     <use xlink:href="#mfd6467de74" x="93.39983" y="506.332202" style="fill: #2ca02c; stroke: #2ca02c"/>
     <use xlink:href="#mfd6467de74" x="112.723883" y="488.22548" style="fill: #2ca02c; stroke: #2ca02c"/>
     <use xlink:href="#mfd6467de74" x="132.047936" y="487.132838" style="fill: #2ca02c; stroke: #2ca02c"/>
     <use xlink:href="#mfd6467de74" x="151.371989" y="488.186015" style="fill: #2ca02c; stroke: #2ca02c"/>
     <use xlink:href="#mfd6467de74" x="170.696042" y="486.766103" style="fill: #2ca02c; stroke: #2ca02c"/>
     <use xlink:href="#mfd6467de74" x="190.020095" y="489.39061" style="fill: #2ca02c; stroke: #2ca02c"/>
     <use xlink:href="#mfd6467de74" x="209.344148" y="488.226181" style="fill: #2ca02c; stroke: #2ca02c"/>
     <use xlink:href="#mfd6467de74" x="228.668201" y="487.796971" style="fill: #2ca02c; stroke: #2ca02c"/>
     <use xlink:href="#mfd6467de74" x="247.992254" y="488.498719" style="fill: #2ca02c; stroke: #2ca02c"/>
     <use xlink:href="#mfd6467de74" x="267.316307" y="489.635154" style="fill: #2ca02c; stroke: #2ca02c"/>
     <use xlink:href="#mfd6467de74" x="286.64036" y="487.489777" style="fill: #2ca02c; stroke: #2ca02c"/>
     <use xlink:href="#mfd6467de74" x="305.964413" y="488.674621" style="fill: #2ca02c; stroke: #2ca02c"/>
     <use xlink:href="#mfd6467de74" x="325.288466" y="488.025081" style="fill: #2ca02c; stroke: #2ca02c"/>
     <use xlink:href="#mfd6467de74" x="344.612519" y="486.62109" style="fill: #2ca02c; stroke: #2ca02c"/>
     <use xlink:href="#mfd6467de74" x="363.936572" y="488.454844" style="fill: #2ca02c; stroke: #2ca02c"/>
     <use xlink:href="#mfd6467de74" x="383.260625" y="487.47967" style="fill: #2ca02c; stroke: #2ca02c"/>
     <use xlink:href="#mfd6467de74" x="421.908731" y="488.84933" style="fill: #2ca02c; stroke: #2ca02c"/>
     <use xlink:href="#mfd6467de74" x="441.232784" y="488.865783" style="fill: #2ca02c; stroke: #2ca02c"/>
     <use xlink:href="#mfd6467de74" x="460.556837" y="488.877107" style="fill: #2ca02c; stroke: #2ca02c"/>
     <use xlink:href="#mfd6467de74" x="479.88089" y="487.310761" style="fill: #2ca02c; stroke: #2ca02c"/>
     <use xlink:href="#mfd6467de74" x="499.204943" y="485.899652" style="fill: #2ca02c; stroke: #2ca02c"/>
     <use xlink:href="#mfd6467de74" x="518.528996" y="488.616735" style="fill: #2ca02c; stroke: #2ca02c"/>
     <use xlink:href="#mfd6467de74" x="537.853049" y="489.033189" style="fill: #2ca02c; stroke: #2ca02c"/>
     <use xlink:href="#mfd6467de74" x="557.177102" y="489.763866" style="fill: #2ca02c; stroke: #2ca02c"/>
     <use xlink:href="#mfd6467de74" x="576.501155" y="488.529815" style="fill: #2ca02c; stroke: #2ca02c"/>
     <use xlink:href="#mfd6467de74" x="595.825208" y="486.353552" style="fill: #2ca02c; stroke: #2ca02c"/>
     <use xlink:href="#mfd6467de74" x="634.473314" y="488.038332" style="fill: #2ca02c; stroke: #2ca02c"/>
     <use xlink:href="#mfd6467de74" x="653.797367" y="488.389339" style="fill: #2ca02c; stroke: #2ca02c"/>
     <use xlink:href="#mfd6467de74" x="673.12142" y="488.955913" style="fill: #2ca02c; stroke: #2ca02c"/>
    </g>
   </g>
   <g id="line2d_21">
    <path d="M 93.39983 284.582811 
L 112.723883 287.362379 
L 132.047936 286.431637 
L 151.371989 285.037666 
L 170.696042 287.11432 
L 190.020095 282.282277 
L 209.344148 283.577155 
L 228.668201 286.238334 
L 247.992254 283.759492 
L 267.316307 286.297496 
L 286.64036 287.752534 
L 305.964413 281.162939 
L 325.288466 284.020288 
L 363.936572 284.844574 
L 383.260625 286.186715 
L 421.908731 289.351632 
L 441.232784 287.698079 
L 460.556837 284.38334 
L 479.88089 285.367533 
L 499.204943 285.749032 
L 537.853049 286.351667 
L 557.177102 288.068451 
L 576.501155 286.273402 
L 595.825208 282.389277 
L 634.473314 285.068925 
L 653.797367 282.095847 
L 673.12142 285.504043 
" clip-path="url(#p6ec2938f7b)" style="fill: none; stroke: #d62728; stroke-width: 2; stroke-linecap: square"/>
    <defs>
     <path id="m5694322f59" d="M 0 3 
C 0.795609 3 1.55874 2.683901 2.12132 2.12132 
C 2.683901 1.55874 3 0.795609 3 0 
C 3 -0.795609 2.683901 -1.55874 2.12132 -2.12132 
C 1.55874 -2.683901 0.795609 -3 0 -3 
C -0.795609 -3 -1.55874 -2.683901 -2.12132 -2.12132 
C -2.683901 -1.55874 -3 -0.795609 -3 0 
C -3 0.795609 -2.683901 1.55874 -2.12132 2.12132 
C -1.55874 2.683901 -0.795609 3 0 3 
z
" style="stroke: #d62728"/>
    </defs>
    <g clip-path="url(#p6ec2938f7b)">
     <use xlink:href="#m5694322f59" x="93.39983" y="284.582811" style="fill: #d62728; stroke: #d62728"/>
     <use xlink:href="#m5694322f59" x="112.723883" y="287.362379" style="fill: #d62728; stroke: #d62728"/>
     <use xlink:href="#m5694322f59" x="132.047936" y="286.431637" style="fill: #d62728; stroke: #d62728"/>
     <use xlink:href="#m5694322f59" x="151.371989" y="285.037666" style="fill: #d62728; stroke: #d62728"/>
     <use xlink:href="#m5694322f59" x="170.696042" y="287.11432" style="fill: #d62728; stroke: #d62728"/>
     <use xlink:href="#m5694322f59" x="190.020095" y="282.282277" style="fill: #d62728; stroke: #d62728"/>
     <use xlink:href="#m5694322f59" x="209.344148" y="283.577155" style="fill: #d62728; stroke: #d62728"/>
     <use xlink:href="#m5694322f59" x="228.668201" y="286.238334" style="fill: #d62728; stroke: #d62728"/>
     <use xlink:href="#m5694322f59" x="247.992254" y="283.759492" style="fill: #d62728; stroke: #d62728"/>
     <use xlink:href="#m5694322f59" x="267.316307" y="286.297496" style="fill: #d62728; stroke: #d62728"/>
     <use xlink:href="#m5694322f59" x="286.64036" y="287.752534" style="fill: #d62728; stroke: #d62728"/>
     <use xlink:href="#m5694322f59" x="305.964413" y="281.162939" style="fill: #d62728; stroke: #d62728"/>
     <use xlink:href="#m5694322f59" x="325.288466" y="284.020288" style="fill: #d62728; stroke: #d62728"/>
     <use xlink:href="#m5694322f59" x="363.936572" y="284.844574" style="fill: #d62728; stroke: #d62728"/>
     <use xlink:href="#m5694322f59" x="383.260625" y="286.186715" style="fill: #d62728; stroke: #d62728"/>
     <use xlink:href="#m5694322f59" x="421.908731" y="289.351632" style="fill: #d62728; stroke: #d62728"/>
     <use xlink:href="#m5694322f59" x="441.232784" y="287.698079" style="fill: #d62728; stroke: #d62728"/>
     <use xlink:href="#m5694322f59" x="460.556837" y="284.38334" style="fill: #d62728; stroke: #d62728"/>
     <use xlink:href="#m5694322f59" x="479.88089" y="285.367533" style="fill: #d62728; stroke: #d62728"/>
     <use xlink:href="#m5694322f59" x="499.204943" y="285.749032" style="fill: #d62728; stroke: #d62728"/>
     <use xlink:href="#m5694322f59" x="537.853049" y="286.351667" style="fill: #d62728; stroke: #d62728"/>
     <use xlink:href="#m5694322f59" x="557.177102" y="288.068451" style="fill: #d62728; stroke: #d62728"/>
     <use xlink:href="#m5694322f59" x="576.501155" y="286.273402" style="fill: #d62728; stroke: #d62728"/>
     <use xlink:href="#m5694322f59" x="595.825208" y="282.389277" style="fill: #d62728; stroke: #d62728"/>
     <use xlink:href="#m5694322f59" x="634.473314" y="285.068925" style="fill: #d62728; stroke: #d62728"/>
     <use xlink:href="#m5694322f59" x="653.797367" y="282.095847" style="fill: #d62728; stroke: #d62728"/>
     <use xlink:href="#m5694322f59" x="673.12142" y="285.504043" style="fill: #d62728; stroke: #d62728"/>
    </g>
   </g>
   <g id="line2d_22">
    <path d="M 93.39983 72.672576 
L 112.723883 71.170534 
L 132.047936 171.757446 
L 151.371989 76.360371 
L 170.696042 175.593608 
L 190.020095 76.238119 
L 209.344148 75.280247 
L 228.668201 75.944887 
L 247.992254 77.695079 
L 267.316307 79.242966 
L 286.64036 75.394225 
L 305.964413 76.179059 
L 325.288466 75.413168 
L 363.936572 46.813736 
L 383.260625 74.863866 
L 421.908731 74.899226 
L 441.232784 77.920815 
L 460.556837 75.090369 
L 479.88089 177.096391 
L 499.204943 134.163695 
L 537.853049 76.118159 
L 557.177102 76.587946 
L 576.501155 285.646284 
L 595.825208 287.55 
L 634.473314 287.78835 
L 653.797367 287.574042 
L 673.12142 288.297225 
" clip-path="url(#p6ec2938f7b)" style="fill: none; stroke: #9467bd; stroke-width: 2; stroke-linecap: square"/>
    <defs>
     <path id="m50421b66e9" d="M 0 3 
C 0.795609 3 1.55874 2.683901 2.12132 2.12132 
C 2.683901 1.55874 3 0.795609 3 0 
C 3 -0.795609 2.683901 -1.55874 2.12132 -2.12132 
C 1.55874 -2.683901 0.795609 -3 0 -3 
C -0.795609 -3 -1.55874 -2.683901 -2.12132 -2.12132 
C -2.683901 -1.55874 -3 -0.795609 -3 0 
C -3 0.795609 -2.683901 1.55874 -2.12132 2.12132 
C -1.55874 2.683901 -0.795609 3 0 3 
z
" style="stroke: #9467bd"/>
    </defs>
    <g clip-path="url(#p6ec2938f7b)">
     <use xlink:href="#m50421b66e9" x="93.39983" y="72.672576" style="fill: #9467bd; stroke: #9467bd"/>
     <use xlink:href="#m50421b66e9" x="112.723883" y="71.170534" style="fill: #9467bd; stroke: #9467bd"/>
     <use xlink:href="#m50421b66e9" x="132.047936" y="171.757446" style="fill: #9467bd; stroke: #9467bd"/>
     <use xlink:href="#m50421b66e9" x="151.371989" y="76.360371" style="fill: #9467bd; stroke: #9467bd"/>
     <use xlink:href="#m50421b66e9" x="170.696042" y="175.593608" style="fill: #9467bd; stroke: #9467bd"/>
     <use xlink:href="#m50421b66e9" x="190.020095" y="76.238119" style="fill: #9467bd; stroke: #9467bd"/>
     <use xlink:href="#m50421b66e9" x="209.344148" y="75.280247" style="fill: #9467bd; stroke: #9467bd"/>
     <use xlink:href="#m50421b66e9" x="228.668201" y="75.944887" style="fill: #9467bd; stroke: #9467bd"/>
     <use xlink:href="#m50421b66e9" x="247.992254" y="77.695079" style="fill: #9467bd; stroke: #9467bd"/>
     <use xlink:href="#m50421b66e9" x="267.316307" y="79.242966" style="fill: #9467bd; stroke: #9467bd"/>
     <use xlink:href="#m50421b66e9" x="286.64036" y="75.394225" style="fill: #9467bd; stroke: #9467bd"/>
     <use xlink:href="#m50421b66e9" x="305.964413" y="76.179059" style="fill: #9467bd; stroke: #9467bd"/>
     <use xlink:href="#m50421b66e9" x="325.288466" y="75.413168" style="fill: #9467bd; stroke: #9467bd"/>
     <use xlink:href="#m50421b66e9" x="363.936572" y="46.813736" style="fill: #9467bd; stroke: #9467bd"/>
     <use xlink:href="#m50421b66e9" x="383.260625" y="74.863866" style="fill: #9467bd; stroke: #9467bd"/>
     <use xlink:href="#m50421b66e9" x="421.908731" y="74.899226" style="fill: #9467bd; stroke: #9467bd"/>
     <use xlink:href="#m50421b66e9" x="441.232784" y="77.920815" style="fill: #9467bd; stroke: #9467bd"/>
     <use xlink:href="#m50421b66e9" x="460.556837" y="75.090369" style="fill: #9467bd; stroke: #9467bd"/>
     <use xlink:href="#m50421b66e9" x="479.88089" y="177.096391" style="fill: #9467bd; stroke: #9467bd"/>
     <use xlink:href="#m50421b66e9" x="499.204943" y="134.163695" style="fill: #9467bd; stroke: #9467bd"/>
     <use xlink:href="#m50421b66e9" x="537.853049" y="76.118159" style="fill: #9467bd; stroke: #9467bd"/>
     <use xlink:href="#m50421b66e9" x="557.177102" y="76.587946" style="fill: #9467bd; stroke: #9467bd"/>
     <use xlink:href="#m50421b66e9" x="576.501155" y="285.646284" style="fill: #9467bd; stroke: #9467bd"/>
     <use xlink:href="#m50421b66e9" x="595.825208" y="287.55" style="fill: #9467bd; stroke: #9467bd"/>
     <use xlink:href="#m50421b66e9" x="634.473314" y="287.78835" style="fill: #9467bd; stroke: #9467bd"/>
     <use xlink:href="#m50421b66e9" x="653.797367" y="287.574042" style="fill: #9467bd; stroke: #9467bd"/>
     <use xlink:href="#m50421b66e9" x="673.12142" y="288.297225" style="fill: #9467bd; stroke: #9467bd"/>
    </g>
   </g>
   <g id="line2d_23">
    <path d="M 93.39983 288.410145 
L 112.723883 287.725399 
L 132.047936 287.42418 
L 151.371989 287.301725 
L 170.696042 289.195523 
L 190.020095 288.223477 
L 209.344148 287.868621 
L 228.668201 288.889558 
L 247.992254 288.158774 
L 267.316307 288.526643 
L 286.64036 287.650844 
L 305.964413 289.356014 
L 325.288466 285.698464 
L 363.936572 285.728186 
L 383.260625 288.513851 
L 421.908731 294.187616 
L 441.232784 288.180987 
L 460.556837 288.032356 
L 479.88089 287.944953 
L 499.204943 287.058117 
L 537.853049 288.654389 
L 557.177102 288.311479 
L 576.501155 286.780635 
L 595.825208 288.80425 
L 634.473314 288.417364 
L 653.797367 286.563061 
L 673.12142 287.377873 
" clip-path="url(#p6ec2938f7b)" style="fill: none; stroke: #8c564b; stroke-width: 2; stroke-linecap: square"/>
    <defs>
     <path id="me2b76e466d" d="M 0 3 
C 0.795609 3 1.55874 2.683901 2.12132 2.12132 
C 2.683901 1.55874 3 0.795609 3 0 
C 3 -0.795609 2.683901 -1.55874 2.12132 -2.12132 
C 1.55874 -2.683901 0.795609 -3 0 -3 
C -0.795609 -3 -1.55874 -2.683901 -2.12132 -2.12132 
C -2.683901 -1.55874 -3 -0.795609 -3 0 
C -3 0.795609 -2.683901 1.55874 -2.12132 2.12132 
C -1.55874 2.683901 -0.795609 3 0 3 
z
" style="stroke: #8c564b"/>
    </defs>
    <g clip-path="url(#p6ec2938f7b)">
     <use xlink:href="#me2b76e466d" x="93.39983" y="288.410145" style="fill: #8c564b; stroke: #8c564b"/>
     <use xlink:href="#me2b76e466d" x="112.723883" y="287.725399" style="fill: #8c564b; stroke: #8c564b"/>
     <use xlink:href="#me2b76e466d" x="132.047936" y="287.42418" style="fill: #8c564b; stroke: #8c564b"/>
     <use xlink:href="#me2b76e466d" x="151.371989" y="287.301725" style="fill: #8c564b; stroke: #8c564b"/>
     <use xlink:href="#me2b76e466d" x="170.696042" y="289.195523" style="fill: #8c564b; stroke: #8c564b"/>
     <use xlink:href="#me2b76e466d" x="190.020095" y="288.223477" style="fill: #8c564b; stroke: #8c564b"/>
     <use xlink:href="#me2b76e466d" x="209.344148" y="287.868621" style="fill: #8c564b; stroke: #8c564b"/>
     <use xlink:href="#me2b76e466d" x="228.668201" y="288.889558" style="fill: #8c564b; stroke: #8c564b"/>
     <use xlink:href="#me2b76e466d" x="247.992254" y="288.158774" style="fill: #8c564b; stroke: #8c564b"/>
     <use xlink:href="#me2b76e466d" x="267.316307" y="288.526643" style="fill: #8c564b; stroke: #8c564b"/>
     <use xlink:href="#me2b76e466d" x="286.64036" y="287.650844" style="fill: #8c564b; stroke: #8c564b"/>
     <use xlink:href="#me2b76e466d" x="305.964413" y="289.356014" style="fill: #8c564b; stroke: #8c564b"/>
     <use xlink:href="#me2b76e466d" x="325.288466" y="285.698464" style="fill: #8c564b; stroke: #8c564b"/>
     <use xlink:href="#me2b76e466d" x="363.936572" y="285.728186" style="fill: #8c564b; stroke: #8c564b"/>
     <use xlink:href="#me2b76e466d" x="383.260625" y="288.513851" style="fill: #8c564b; stroke: #8c564b"/>
     <use xlink:href="#me2b76e466d" x="421.908731" y="294.187616" style="fill: #8c564b; stroke: #8c564b"/>
     <use xlink:href="#me2b76e466d" x="441.232784" y="288.180987" style="fill: #8c564b; stroke: #8c564b"/>
     <use xlink:href="#me2b76e466d" x="460.556837" y="288.032356" style="fill: #8c564b; stroke: #8c564b"/>
     <use xlink:href="#me2b76e466d" x="479.88089" y="287.944953" style="fill: #8c564b; stroke: #8c564b"/>
     <use xlink:href="#me2b76e466d" x="499.204943" y="287.058117" style="fill: #8c564b; stroke: #8c564b"/>
     <use xlink:href="#me2b76e466d" x="537.853049" y="288.654389" style="fill: #8c564b; stroke: #8c564b"/>
     <use xlink:href="#me2b76e466d" x="557.177102" y="288.311479" style="fill: #8c564b; stroke: #8c564b"/>
     <use xlink:href="#me2b76e466d" x="576.501155" y="286.780635" style="fill: #8c564b; stroke: #8c564b"/>
     <use xlink:href="#me2b76e466d" x="595.825208" y="288.80425" style="fill: #8c564b; stroke: #8c564b"/>
     <use xlink:href="#me2b76e466d" x="634.473314" y="288.417364" style="fill: #8c564b; stroke: #8c564b"/>
     <use xlink:href="#me2b76e466d" x="653.797367" y="286.563061" style="fill: #8c564b; stroke: #8c564b"/>
     <use xlink:href="#me2b76e466d" x="673.12142" y="287.377873" style="fill: #8c564b; stroke: #8c564b"/>
    </g>
   </g>
   <g id="patch_3">
    <path d="M 64.41375 529.308125 
L 64.41375 23.837812 
" style="fill: none; stroke: #000000; stroke-width: 0.8; stroke-linejoin: miter; stroke-linecap: square"/>
   </g>
   <g id="patch_4">
    <path d="M 702.1075 529.308125 
L 702.1075 23.837812 
" style="fill: none; stroke: #000000; stroke-width: 0.8; stroke-linejoin: miter; stroke-linecap: square"/>
   </g>
   <g id="patch_5">
    <path d="M 64.41375 529.308125 
L 702.1075 529.308125 
" style="fill: none; stroke: #000000; stroke-width: 0.8; stroke-linejoin: miter; stroke-linecap: square"/>
   </g>
   <g id="patch_6">
    <path d="M 64.41375 23.837812 
L 702.1075 23.837812 
" style="fill: none; stroke: #000000; stroke-width: 0.8; stroke-linejoin: miter; stroke-linecap: square"/>
   </g>
   <g id="text_13">
    <text style="font: 700 14px 'DejaVu Sans', 'Bitstream Vera Sans', 'Computer Modern Sans Serif', 'Lucida Grande', 'Verdana', 'Geneva', 'Lucid', 'Arial', 'Helvetica', 'Avant Garde', sans-serif; text-anchor: middle" x="383.260625" y="17.837813" transform="rotate(-0 383.260625 17.837813)">Taskthroughput - Performance Trend</text>
   </g>
   <g id="legend_1">
    <g id="patch_7">
     <path d="M 740.992188 119.906563 
L 846.004688 119.906563 
Q 848.004688 119.906563 848.004688 117.906563 
L 848.004688 30.837813 
Q 848.004688 28.837813 846.004688 28.837813 
L 740.992188 28.837813 
Q 738.992188 28.837813 738.992188 30.837813 
L 738.992188 117.906563 
Q 738.992188 119.906563 740.992188 119.906563 
z
" style="fill: #ffffff; opacity: 0.8; stroke: #cccccc; stroke-linejoin: miter"/>
    </g>
    <g id="line2d_24">
     <path d="M 742.992188 36.93625 
L 752.992188 36.93625 
L 762.992188 36.93625 
" style="fill: none; stroke: #1f77b4; stroke-width: 2; stroke-linecap: square"/>
     <g>
      <use xlink:href="#m129a96e573" x="752.992188" y="36.93625" style="fill: #1f77b4; stroke: #1f77b4"/>
     </g>
    </g>
    <g id="text_14">
     <text style="font: 10px 'DejaVu Sans', 'Bitstream Vera Sans', 'Computer Modern Sans Serif', 'Lucida Grande', 'Verdana', 'Geneva', 'Lucid', 'Arial', 'Helvetica', 'Avant Garde', sans-serif; text-anchor: start" x="770.992188" y="40.43625" transform="rotate(-0 770.992188 40.43625)">gcc-14.2 - V1</text>
    </g>
    <g id="line2d_25">
     <path d="M 742.992188 51.614375 
L 752.992188 51.614375 
L 762.992188 51.614375 
" style="fill: none; stroke: #ff7f0e; stroke-width: 2; stroke-linecap: square"/>
     <g>
      <use xlink:href="#mca830c3691" x="752.992188" y="51.614375" style="fill: #ff7f0e; stroke: #ff7f0e"/>
     </g>
    </g>
    <g id="text_15">
     <text style="font: 10px 'DejaVu Sans', 'Bitstream Vera Sans', 'Computer Modern Sans Serif', 'Lucida Grande', 'Verdana', 'Geneva', 'Lucid', 'Arial', 'Helvetica', 'Avant Garde', sans-serif; text-anchor: start" x="770.992188" y="55.114375" transform="rotate(-0 770.992188 55.114375)">gcc-14.2 - V2</text>
    </g>
    <g id="line2d_26">
     <path d="M 742.992188 66.2925 
L 752.992188 66.2925 
L 762.992188 66.2925 
" style="fill: none; stroke: #2ca02c; stroke-width: 2; stroke-linecap: square"/>
     <g>
      <use xlink:href="#mfd6467de74" x="752.992188" y="66.2925" style="fill: #2ca02c; stroke: #2ca02c"/>
     </g>
    </g>
    <g id="text_16">
     <text style="font: 10px 'DejaVu Sans', 'Bitstream Vera Sans', 'Computer Modern Sans Serif', 'Lucida Grande', 'Verdana', 'Geneva', 'Lucid', 'Arial', 'Helvetica', 'Avant Garde', sans-serif; text-anchor: start" x="770.992188" y="69.7925" transform="rotate(-0 770.992188 69.7925)">gcc-14.2 - TBB</text>
    </g>
    <g id="line2d_27">
     <path d="M 742.992188 80.970625 
L 752.992188 80.970625 
L 762.992188 80.970625 
" style="fill: none; stroke: #d62728; stroke-width: 2; stroke-linecap: square"/>
     <g>
      <use xlink:href="#m5694322f59" x="752.992188" y="80.970625" style="fill: #d62728; stroke: #d62728"/>
     </g>
    </g>
    <g id="text_17">
     <text style="font: 10px 'DejaVu Sans', 'Bitstream Vera Sans', 'Computer Modern Sans Serif', 'Lucida Grande', 'Verdana', 'Geneva', 'Lucid', 'Arial', 'Helvetica', 'Avant Garde', sans-serif; text-anchor: start" x="770.992188" y="84.470625" transform="rotate(-0 770.992188 84.470625)">gcc-4.2 - V1</text>
    </g>
    <g id="line2d_28">
     <path d="M 742.992188 95.64875 
L 752.992188 95.64875 
L 762.992188 95.64875 
" style="fill: none; stroke: #9467bd; stroke-width: 2; stroke-linecap: square"/>
     <g>
      <use xlink:href="#m50421b66e9" x="752.992188" y="95.64875" style="fill: #9467bd; stroke: #9467bd"/>
     </g>
    </g>
    <g id="text_18">
     <text style="font: 10px 'DejaVu Sans', 'Bitstream Vera Sans', 'Computer Modern Sans Serif', 'Lucida Grande', 'Verdana', 'Geneva', 'Lucid', 'Arial', 'Helvetica', 'Avant Garde', sans-serif; text-anchor: start" x="770.992188" y="99.14875" transform="rotate(-0 770.992188 99.14875)">gcc-4.2 - V2</text>
    </g>
    <g id="line2d_29">
     <path d="M 742.992188 110.326875 
L 752.992188 110.326875 
L 762.992188 110.326875 
" style="fill: none; stroke: #8c564b; stroke-width: 2; stroke-linecap: square"/>
     <g>
      <use xlink:href="#me2b76e466d" x="752.992188" y="110.326875" style="fill: #8c564b; stroke: #8c564b"/>
     </g>
    </g>
    <g id="text_19">
     <text style="font: 10px 'DejaVu Sans', 'Bitstream Vera Sans', 'Computer Modern Sans Serif', 'Lucida Grande', 'Verdana', 'Geneva', 'Lucid', 'Arial', 'Helvetica', 'Avant Garde', sans-serif; text-anchor: start" x="770.992188" y="113.826875" transform="rotate(-0 770.992188 113.826875)">gcc-4.2 - TBB</text>
    </g>
   </g>
  </g>
 </g>
 <defs>
  <clipPath id="p6ec2938f7b">
   <rect x="64.41375" y="23.837813" width="637.69375" height="505.470313"/>
  </clipPath>
 </defs>
</svg>
