<?xml version="1.0" encoding="utf-8" standalone="no"?>
<!DOCTYPE svg PUBLIC "-//W3C//DTD SVG 1.1//EN"
  "http://www.w3.org/Graphics/SVG/1.1/DTD/svg11.dtd">
<svg xmlns:xlink="http://www.w3.org/1999/xlink" width="856.684141pt" height="568.8pt" viewBox="0 0 856.684141 568.8" xmlns="http://www.w3.org/2000/svg" version="1.1">
 <metadata>
  <rdf:RDF xmlns:dc="http://purl.org/dc/elements/1.1/" xmlns:cc="http://creativecommons.org/ns#" xmlns:rdf="http://www.w3.org/1999/02/22-rdf-syntax-ns#">
   <cc:Work>
    <dc:type rdf:resource="http://purl.org/dc/dcmitype/StillImage"/>
    <dc:date>2026-05-09T23:46:41.339525</dc:date>
    <dc:format>image/svg+xml</dc:format>
    <dc:creator>
     <cc:Agent>
      <dc:title>Matplotlib v3.9.4, https://matplotlib.org/</dc:title>
     </cc:Agent>
    </dc:creator>
   </cc:Work>
  </rdf:RDF>
 </metadata>
 <defs>
  <style type="text/css">*{stroke-linejoin: round; stroke-linecap: butt}</style>
 </defs>
 <g id="figure_1">
  <g id="patch_1">
   <path d="M 0 568.8 
L 856.684141 568.8 
L 856.684141 0 
L 0 0 
z
" style="fill: #ffffff"/>
  </g>
  <g id="axes_1">
   <g id="patch_2">
    <path d="M 64.41375 529.308125 
L 731.696562 529.308125 
L 731.696562 23.837812 
L 64.41375 23.837812 
z
" style="fill: #ffffff"/>
   </g>
   <g id="matplotlib.axis_1">
    <g id="xtick_1">
     <g id="line2d_1">
      <path d="M 83.912274 529.308125 
L 83.912274 23.837812 
" clip-path="url(#p0a0b79862e)" style="fill: none; stroke: #b0b0b0; stroke-opacity: 0.3; stroke-width: 0.8; stroke-linecap: square"/>
     </g>
     <g id="line2d_2">
      <defs>
       <path id="mff58a3e152" d="M 0 0 
L 0 3.5 
" style="stroke: #000000; stroke-width: 0.8"/>
      </defs>
      <g>
       <use xlink:href="#mff58a3e152" x="83.912274" y="529.308125" style="stroke: #000000; stroke-width: 0.8"/>
      </g>
     </g>
     <g id="text_1">
      <text style="font: 10px 'DejaVu Sans', 'Bitstream Vera Sans', 'Computer Modern Sans Serif', 'Lucida Grande', 'Verdana', 'Geneva', 'Lucid', 'Arial', 'Helvetica', 'Avant Garde', sans-serif; text-anchor: middle" x="83.912274" y="543.906563" transform="rotate(-0 83.912274 543.906563)">70</text>
     </g>
    </g>
    <g id="xtick_2">
     <g id="line2d_3">
      <path d="M 192.237406 529.308125 
L 192.237406 23.837812 
" clip-path="url(#p0a0b79862e)" style="fill: none; stroke: #b0b0b0; stroke-opacity: 0.3; stroke-width: 0.8; stroke-linecap: square"/>
     </g>
     <g id="line2d_4">
      <g>
       <use xlink:href="#mff58a3e152" x="192.237406" y="529.308125" style="stroke: #000000; stroke-width: 0.8"/>
      </g>
     </g>
     <g id="text_2">
      <text style="font: 10px 'DejaVu Sans', 'Bitstream Vera Sans', 'Computer Modern Sans Serif', 'Lucida Grande', 'Verdana', 'Geneva', 'Lucid', 'Arial', 'Helvetica', 'Avant Garde', sans-serif; text-anchor: middle" x="192.237406" y="543.906563" transform="rotate(-0 192.237406 543.906563)">80</text>
     </g>
    </g>
    <g id="xtick_3">
     <g id="line2d_5">
      <path d="M 300.562538 529.308125 
L 300.562538 23.837812 
" clip-path="url(#p0a0b79862e)" style="fill: none; stroke: #b0b0b0; stroke-opacity: 0.3; stroke-width: 0.8; stroke-linecap: square"/>
     </g>
     <g id="line2d_6">
      <g>
       <use xlink:href="#mff58a3e152" x="300.562538" y="529.308125" style="stroke: #000000; stroke-width: 0.8"/>
      </g>
     </g>
     <g id="text_3">
      <text style="font: 10px 'DejaVu Sans', 'Bitstream Vera Sans', 'Computer Modern Sans Serif', 'Lucida Grande', 'Verdana', 'Geneva', 'Lucid', 'Arial', 'Helvetica', 'Avant Garde', sans-serif; text-anchor: middle" x="300.562538" y="543.906563" transform="rotate(-0 300.562538 543.906563)">90</text>
     </g>
    </g>
    <g id="xtick_4">
     <g id="line2d_7">
      <path d="M 408.887669 529.308125 
L 408.887669 23.837812 
" clip-path="url(#p0a0b79862e)" style="fill: none; stroke: #b0b0b0; stroke-opacity: 0.3; stroke-width: 0.8; stroke-linecap: square"/>
     </g>
     <g id="line2d_8">
      <g>
       <use xlink:href="#mff58a3e152" x="408.887669" y="529.308125" style="stroke: #000000; stroke-width: 0.8"/>
      </g>
     </g>
     <g id="text_4">
      <text style="font: 10px 'DejaVu Sans', 'Bitstream Vera Sans', 'Computer Modern Sans Serif', 'Lucida Grande', 'Verdana', 'Geneva', 'Lucid', 'Arial', 'Helvetica', 'Avant Garde', sans-serif; text-anchor: middle" x="408.887669" y="543.906563" transform="rotate(-0 408.887669 543.906563)">100</text>
     </g>
    </g>
    <g id="xtick_5">
     <g id="line2d_9">
      <path d="M 517.212801 529.308125 
L 517.212801 23.837812 
" clip-path="url(#p0a0b79862e)" style="fill: none; stroke: #b0b0b0; stroke-opacity: 0.3; stroke-width: 0.8; stroke-linecap: square"/>
     </g>
     <g id="line2d_10">
      <g>
       <use xlink:href="#mff58a3e152" x="517.212801" y="529.308125" style="stroke: #000000; stroke-width: 0.8"/>
      </g>
     </g>
     <g id="text_5">
      <text style="font: 10px 'DejaVu Sans', 'Bitstream Vera Sans', 'Computer Modern Sans Serif', 'Lucida Grande', 'Verdana', 'Geneva', 'Lucid', 'Arial', 'Helvetica', 'Avant Garde', sans-serif; text-anchor: middle" x="517.212801" y="543.906563" transform="rotate(-0 517.212801 543.906563)">110</text>
     </g>
    </g>
    <g id="xtick_6">
     <g id="line2d_11">
      <path d="M 625.537933 529.308125 
L 625.537933 23.837812 
" clip-path="url(#p0a0b79862e)" style="fill: none; stroke: #b0b0b0; stroke-opacity: 0.3; stroke-width: 0.8; stroke-linecap: square"/>
     </g>
     <g id="line2d_12">
      <g>
       <use xlink:href="#mff58a3e152" x="625.537933" y="529.308125" style="stroke: #000000; stroke-width: 0.8"/>
      </g>
     </g>
     <g id="text_6">
      <text style="font: 10px 'DejaVu Sans', 'Bitstream Vera Sans', 'Computer Modern Sans Serif', 'Lucida Grande', 'Verdana', 'Geneva', 'Lucid', 'Arial', 'Helvetica', 'Avant Garde', sans-serif; text-anchor: middle" x="625.537933" y="543.906563" transform="rotate(-0 625.537933 543.906563)">120</text>
     </g>
    </g>
    <g id="text_7">
     <text style="font: 12px 'DejaVu Sans', 'Bitstream Vera Sans', 'Computer Modern Sans Serif', 'Lucida Grande', 'Verdana', 'Geneva', 'Lucid', 'Arial', 'Helvetica', 'Avant Garde', sans-serif; text-anchor: middle" x="398.055156" y="559.104375" transform="rotate(-0 398.055156 559.104375)">Build Number</text>
    </g>
   </g>
   <g id="matplotlib.axis_2">
    <g id="ytick_1">
     <g id="line2d_13">
      <path d="M 64.41375 312.275462 
L 731.696562 312.275462 
" clip-path="url(#p0a0b79862e)" style="fill: none; stroke: #b0b0b0; stroke-opacity: 0.3; stroke-width: 0.8; stroke-linecap: square"/>
     </g>
     <g id="line2d_14">
      <defs>
       <path id="me650836bd7" d="M 0 0 
L -3.5 0 
" style="stroke: #000000; stroke-width: 0.8"/>
      </defs>
      <g>
       <use xlink:href="#me650836bd7" x="64.41375" y="312.275462" style="stroke: #000000; stroke-width: 0.8"/>
      </g>
     </g>
     <g id="text_8">
      <!-- $\mathdefault{10^{1}}$ -->
      <g transform="translate(39.81375 316.074681)">
       <text>
        <tspan style="font: 10px 'DejaVu Sans'" x="0 6.362305" y="-0.06406250000000036">10</tspan>
        <tspan style="font: 7px 'DejaVu Sans'" x="12.820312" y="-3.8921875000000004">1</tspan>
       </text>
      </g>
     </g>
    </g>
    <g id="ytick_2">
     <g id="line2d_15">
      <defs>
       <path id="mdfe71a01e6" d="M 0 0 
L -2 0 
" style="stroke: #000000; stroke-width: 0.6"/>
      </defs>
      <g>
       <use xlink:href="#mdfe71a01e6" x="64.41375" y="483.768992" style="stroke: #000000; stroke-width: 0.6"/>
      </g>
     </g>
     <g id="text_9">
      <!-- $\mathdefault{6\times10^{0}}$ -->
      <g transform="translate(22.81375 487.568211)">
       <text>
        <tspan style="font: 10px 'DejaVu Sans'" x="0 8.310547 18.637695 25" y="-0.9765625">6×10</tspan>
        <tspan style="font: 7px 'DejaVu Sans'" x="31.458008" y="-4.8046875">0</tspan>
       </text>
      </g>
     </g>
    </g>
    <g id="ytick_3">
     <g id="line2d_16">
      <g>
       <use xlink:href="#mdfe71a01e6" x="64.41375" y="432.017782" style="stroke: #000000; stroke-width: 0.6"/>
      </g>
     </g>
    </g>
    <g id="ytick_4">
     <g id="line2d_17">
      <g>
       <use xlink:href="#mdfe71a01e6" x="64.41375" y="387.188844" style="stroke: #000000; stroke-width: 0.6"/>
      </g>
     </g>
    </g>
    <g id="ytick_5">
     <g id="line2d_18">
      <g>
       <use xlink:href="#mdfe71a01e6" x="64.41375" y="347.646919" style="stroke: #000000; stroke-width: 0.6"/>
      </g>
     </g>
    </g>
    <g id="ytick_6">
     <g id="line2d_19">
      <g>
       <use xlink:href="#mdfe71a01e6" x="64.41375" y="79.573242" style="stroke: #000000; stroke-width: 0.6"/>
      </g>
     </g>
     <g id="text_10">
      <!-- $\mathdefault{2\times10^{1}}$ -->
      <g transform="translate(22.81375 83.37246)">
       <text>
        <tspan style="font: 10px 'DejaVu Sans'" x="0 8.310547 18.637695 25" y="-0.06406250000000036">2×10</tspan>
        <tspan style="font: 7px 'DejaVu Sans'" x="31.458008" y="-3.8921875000000004">1</tspan>
       </text>
      </g>
     </g>
    </g>
    <g id="text_11">
     <text style="font: 12px 'DejaVu Sans', 'Bitstream Vera Sans', 'Computer Modern Sans Serif', 'Lucida Grande', 'Verdana', 'Geneva', 'Lucid', 'Arial', 'Helvetica', 'Avant Garde', sans-serif; text-anchor: middle" x="16.318125" y="276.572969" transform="rotate(-90 16.318125 276.572969)">Median Elapsed Time (nanoseconds)</text>
    </g>
   </g>
   <g id="line2d_20">
    <path d="M 94.744787 466.325155 
L 105.5773 466.856775 
L 116.409813 461.578076 
L 127.242327 466.856775 
L 138.07484 472.219802 
L 148.907353 466.856775 
L 159.739866 466.856775 
L 170.572379 466.856775 
L 181.404892 466.856775 
L 192.237406 466.856775 
L 203.069919 461.578076 
L 213.902432 466.856775 
L 224.734945 466.856775 
L 246.399972 466.856775 
L 257.232485 466.856775 
L 278.897511 466.856775 
L 289.730024 466.856775 
L 300.562538 466.856775 
L 311.395051 466.856775 
L 322.227564 466.856775 
L 343.89259 466.856775 
L 354.725103 466.856775 
L 365.557617 466.325155 
L 376.39013 472.219802 
L 398.055156 466.856775 
L 408.887669 466.856775 
L 419.720183 461.578076 
L 430.552696 466.856775 
L 441.385209 466.856775 
L 452.217722 466.856775 
L 463.050235 461.578076 
L 473.882749 466.325155 
L 495.547775 461.054743 
L 506.380288 456.381094 
L 517.212801 456.381094 
L 538.877828 456.381094 
L 571.375367 456.381094 
L 582.20788 456.381094 
L 593.040394 456.381094 
L 603.872907 456.381094 
L 614.70542 456.381094 
L 625.537933 456.381094 
L 636.370446 456.381094 
L 647.20296 456.381094 
L 658.035473 456.381094 
L 668.867986 370.010712 
L 690.533012 456.381094 
L 701.365526 408.408283 
" clip-path="url(#p0a0b79862e)" style="fill: none; stroke: #1f77b4; stroke-width: 2; stroke-linecap: square"/>
    <defs>
     <path id="m87e6fdf79a" d="M 0 3 
C 0.795609 3 1.55874 2.683901 2.12132 2.12132 
C 2.683901 1.55874 3 0.795609 3 0 
C 3 -0.795609 2.683901 -1.55874 2.12132 -2.12132 
C 1.55874 -2.683901 0.795609 -3 0 -3 
C -0.795609 -3 -1.55874 -2.683901 -2.12132 -2.12132 
C -2.683901 -1.55874 -3 -0.795609 -3 0 
C -3 0.795609 -2.683901 1.55874 -2.12132 2.12132 
C -1.55874 2.683901 -0.795609 3 0 3 
z
" style="stroke: #1f77b4"/>
    </defs>
    <g clip-path="url(#p0a0b79862e)">
     <use xlink:href="#m87e6fdf79a" x="94.744787" y="466.325155" style="fill: #1f77b4; stroke: #1f77b4"/>
     <use xlink:href="#m87e6fdf79a" x="105.5773" y="466.856775" style="fill: #1f77b4; stroke: #1f77b4"/>
     <use xlink:href="#m87e6fdf79a" x="116.409813" y="461.578076" style="fill: #1f77b4; stroke: #1f77b4"/>
     <use xlink:href="#m87e6fdf79a" x="127.242327" y="466.856775" style="fill: #1f77b4; stroke: #1f77b4"/>
     <use xlink:href="#m87e6fdf79a" x="138.07484" y="472.219802" style="fill: #1f77b4; stroke: #1f77b4"/>
     <use xlink:href="#m87e6fdf79a" x="148.907353" y="466.856775" style="fill: #1f77b4; stroke: #1f77b4"/>
     <use xlink:href="#m87e6fdf79a" x="159.739866" y="466.856775" style="fill: #1f77b4; stroke: #1f77b4"/>
     <use xlink:href="#m87e6fdf79a" x="170.572379" y="466.856775" style="fill: #1f77b4; stroke: #1f77b4"/>
     <use xlink:href="#m87e6fdf79a" x="181.404892" y="466.856775" style="fill: #1f77b4; stroke: #1f77b4"/>
     <use xlink:href="#m87e6fdf79a" x="192.237406" y="466.856775" style="fill: #1f77b4; stroke: #1f77b4"/>
     <use xlink:href="#m87e6fdf79a" x="203.069919" y="461.578076" style="fill: #1f77b4; stroke: #1f77b4"/>
     <use xlink:href="#m87e6fdf79a" x="213.902432" y="466.856775" style="fill: #1f77b4; stroke: #1f77b4"/>
     <use xlink:href="#m87e6fdf79a" x="224.734945" y="466.856775" style="fill: #1f77b4; stroke: #1f77b4"/>
     <use xlink:href="#m87e6fdf79a" x="246.399972" y="466.856775" style="fill: #1f77b4; stroke: #1f77b4"/>
     <use xlink:href="#m87e6fdf79a" x="257.232485" y="466.856775" style="fill: #1f77b4; stroke: #1f77b4"/>
     <use xlink:href="#m87e6fdf79a" x="278.897511" y="466.856775" style="fill: #1f77b4; stroke: #1f77b4"/>
     <use xlink:href="#m87e6fdf79a" x="289.730024" y="466.856775" style="fill: #1f77b4; stroke: #1f77b4"/>
     <use xlink:href="#m87e6fdf79a" x="300.562538" y="466.856775" style="fill: #1f77b4; stroke: #1f77b4"/>
     <use xlink:href="#m87e6fdf79a" x="311.395051" y="466.856775" style="fill: #1f77b4; stroke: #1f77b4"/>
     <use xlink:href="#m87e6fdf79a" x="322.227564" y="466.856775" style="fill: #1f77b4; stroke: #1f77b4"/>
     <use xlink:href="#m87e6fdf79a" x="343.89259" y="466.856775" style="fill: #1f77b4; stroke: #1f77b4"/>
     <use xlink:href="#m87e6fdf79a" x="354.725103" y="466.856775" style="fill: #1f77b4; stroke: #1f77b4"/>
     <use xlink:href="#m87e6fdf79a" x="365.557617" y="466.325155" style="fill: #1f77b4; stroke: #1f77b4"/>
     <use xlink:href="#m87e6fdf79a" x="376.39013" y="472.219802" style="fill: #1f77b4; stroke: #1f77b4"/>
     <use xlink:href="#m87e6fdf79a" x="398.055156" y="466.856775" style="fill: #1f77b4; stroke: #1f77b4"/>
     <use xlink:href="#m87e6fdf79a" x="408.887669" y="466.856775" style="fill: #1f77b4; stroke: #1f77b4"/>
     <use xlink:href="#m87e6fdf79a" x="419.720183" y="461.578076" style="fill: #1f77b4; stroke: #1f77b4"/>
     <use xlink:href="#m87e6fdf79a" x="430.552696" y="466.856775" style="fill: #1f77b4; stroke: #1f77b4"/>
     <use xlink:href="#m87e6fdf79a" x="441.385209" y="466.856775" style="fill: #1f77b4; stroke: #1f77b4"/>
     <use xlink:href="#m87e6fdf79a" x="452.217722" y="466.856775" style="fill: #1f77b4; stroke: #1f77b4"/>
     <use xlink:href="#m87e6fdf79a" x="463.050235" y="461.578076" style="fill: #1f77b4; stroke: #1f77b4"/>
     <use xlink:href="#m87e6fdf79a" x="473.882749" y="466.325155" style="fill: #1f77b4; stroke: #1f77b4"/>
     <use xlink:href="#m87e6fdf79a" x="495.547775" y="461.054743" style="fill: #1f77b4; stroke: #1f77b4"/>
     <use xlink:href="#m87e6fdf79a" x="506.380288" y="456.381094" style="fill: #1f77b4; stroke: #1f77b4"/>
     <use xlink:href="#m87e6fdf79a" x="517.212801" y="456.381094" style="fill: #1f77b4; stroke: #1f77b4"/>
     <use xlink:href="#m87e6fdf79a" x="538.877828" y="456.381094" style="fill: #1f77b4; stroke: #1f77b4"/>
     <use xlink:href="#m87e6fdf79a" x="571.375367" y="456.381094" style="fill: #1f77b4; stroke: #1f77b4"/>
     <use xlink:href="#m87e6fdf79a" x="582.20788" y="456.381094" style="fill: #1f77b4; stroke: #1f77b4"/>
     <use xlink:href="#m87e6fdf79a" x="593.040394" y="456.381094" style="fill: #1f77b4; stroke: #1f77b4"/>
     <use xlink:href="#m87e6fdf79a" x="603.872907" y="456.381094" style="fill: #1f77b4; stroke: #1f77b4"/>
     <use xlink:href="#m87e6fdf79a" x="614.70542" y="456.381094" style="fill: #1f77b4; stroke: #1f77b4"/>
     <use xlink:href="#m87e6fdf79a" x="625.537933" y="456.381094" style="fill: #1f77b4; stroke: #1f77b4"/>
     <use xlink:href="#m87e6fdf79a" x="636.370446" y="456.381094" style="fill: #1f77b4; stroke: #1f77b4"/>
     <use xlink:href="#m87e6fdf79a" x="647.20296" y="456.381094" style="fill: #1f77b4; stroke: #1f77b4"/>
     <use xlink:href="#m87e6fdf79a" x="658.035473" y="456.381094" style="fill: #1f77b4; stroke: #1f77b4"/>
     <use xlink:href="#m87e6fdf79a" x="668.867986" y="370.010712" style="fill: #1f77b4; stroke: #1f77b4"/>
     <use xlink:href="#m87e6fdf79a" x="690.533012" y="456.381094" style="fill: #1f77b4; stroke: #1f77b4"/>
     <use xlink:href="#m87e6fdf79a" x="701.365526" y="408.408283" style="fill: #1f77b4; stroke: #1f77b4"/>
    </g>
   </g>
   <g id="line2d_21">
    <path d="M 94.744787 506.332202 
L 105.5773 483.209927 
L 116.409813 483.209927 
L 127.242327 483.209927 
L 138.07484 483.209927 
L 148.907353 477.669895 
L 159.739866 482.651792 
L 170.572379 482.651792 
L 181.404892 483.209927 
L 192.237406 483.209927 
L 203.069919 483.209927 
L 213.902432 403.526635 
L 224.734945 477.669895 
L 235.567458 483.209927 
L 246.399972 483.209927 
L 257.232485 477.669895 
L 278.897511 472.219802 
L 289.730024 482.651792 
L 300.562538 478.219802 
L 311.395051 483.209927 
L 322.227564 482.651792 
L 333.060077 483.209927 
L 343.89259 477.669895 
L 354.725103 483.209927 
L 365.557617 483.209927 
L 376.39013 335.917575 
L 398.055156 483.209927 
L 408.887669 483.209927 
L 419.720183 483.209927 
L 430.552696 482.651792 
L 441.385209 477.669895 
L 452.217722 483.209927 
L 463.050235 483.209927 
L 473.882749 477.669895 
L 495.547775 477.669895 
L 506.380288 478.219802 
L 517.212801 482.651792 
L 528.045315 483.209927 
L 538.877828 478.219802 
L 560.542854 477.669895 
L 571.375367 477.669895 
L 582.20788 483.209927 
L 593.040394 483.209927 
L 603.872907 482.651792 
L 614.70542 483.209927 
L 625.537933 483.209927 
L 636.370446 483.209927 
L 647.20296 46.813736 
L 658.035473 483.209927 
L 668.867986 477.669895 
L 690.533012 483.209927 
L 701.365526 472.219802 
" clip-path="url(#p0a0b79862e)" style="fill: none; stroke: #ff7f0e; stroke-width: 2; stroke-linecap: square"/>
    <defs>
     <path id="mfbe0eba84f" d="M 0 3 
C 0.795609 3 1.55874 2.683901 2.12132 2.12132 
C 2.683901 1.55874 3 0.795609 3 0 
C 3 -0.795609 2.683901 -1.55874 2.12132 -2.12132 
C 1.55874 -2.683901 0.795609 -3 0 -3 
C -0.795609 -3 -1.55874 -2.683901 -2.12132 -2.12132 
C -2.683901 -1.55874 -3 -0.795609 -3 0 
C -3 0.795609 -2.683901 1.55874 -2.12132 2.12132 
C -1.55874 2.683901 -0.795609 3 0 3 
z
" style="stroke: #ff7f0e"/>
    </defs>
    <g clip-path="url(#p0a0b79862e)">
     <use xlink:href="#mfbe0eba84f" x="94.744787" y="506.332202" style="fill: #ff7f0e; stroke: #ff7f0e"/>
     <use xlink:href="#mfbe0eba84f" x="105.5773" y="483.209927" style="fill: #ff7f0e; stroke: #ff7f0e"/>
     <use xlink:href="#mfbe0eba84f" x="116.409813" y="483.209927" style="fill: #ff7f0e; stroke: #ff7f0e"/>
     <use xlink:href="#mfbe0eba84f" x="127.242327" y="483.209927" style="fill: #ff7f0e; stroke: #ff7f0e"/>
     <use xlink:href="#mfbe0eba84f" x="138.07484" y="483.209927" style="fill: #ff7f0e; stroke: #ff7f0e"/>
     <use xlink:href="#mfbe0eba84f" x="148.907353" y="477.669895" style="fill: #ff7f0e; stroke: #ff7f0e"/>
     <use xlink:href="#mfbe0eba84f" x="159.739866" y="482.651792" style="fill: #ff7f0e; stroke: #ff7f0e"/>
     <use xlink:href="#mfbe0eba84f" x="170.572379" y="482.651792" style="fill: #ff7f0e; stroke: #ff7f0e"/>
     <use xlink:href="#mfbe0eba84f" x="181.404892" y="483.209927" style="fill: #ff7f0e; stroke: #ff7f0e"/>
     <use xlink:href="#mfbe0eba84f" x="192.237406" y="483.209927" style="fill: #ff7f0e; stroke: #ff7f0e"/>
     <use xlink:href="#mfbe0eba84f" x="203.069919" y="483.209927" style="fill: #ff7f0e; stroke: #ff7f0e"/>
     <use xlink:href="#mfbe0eba84f" x="213.902432" y="403.526635" style="fill: #ff7f0e; stroke: #ff7f0e"/>
     <use xlink:href="#mfbe0eba84f" x="224.734945" y="477.669895" style="fill: #ff7f0e; stroke: #ff7f0e"/>
     <use xlink:href="#mfbe0eba84f" x="235.567458" y="483.209927" style="fill: #ff7f0e; stroke: #ff7f0e"/>
     <use xlink:href="#mfbe0eba84f" x="246.399972" y="483.209927" style="fill: #ff7f0e; stroke: #ff7f0e"/>
     <use xlink:href="#mfbe0eba84f" x="257.232485" y="477.669895" style="fill: #ff7f0e; stroke: #ff7f0e"/>
     <use xlink:href="#mfbe0eba84f" x="278.897511" y="472.219802" style="fill: #ff7f0e; stroke: #ff7f0e"/>
     <use xlink:href="#mfbe0eba84f" x="289.730024" y="482.651792" style="fill: #ff7f0e; stroke: #ff7f0e"/>
     <use xlink:href="#mfbe0eba84f" x="300.562538" y="478.219802" style="fill: #ff7f0e; stroke: #ff7f0e"/>
     <use xlink:href="#mfbe0eba84f" x="311.395051" y="483.209927" style="fill: #ff7f0e; stroke: #ff7f0e"/>
     <use xlink:href="#mfbe0eba84f" x="322.227564" y="482.651792" style="fill: #ff7f0e; stroke: #ff7f0e"/>
     <use xlink:href="#mfbe0eba84f" x="333.060077" y="483.209927" style="fill: #ff7f0e; stroke: #ff7f0e"/>
     <use xlink:href="#mfbe0eba84f" x="343.89259" y="477.669895" style="fill: #ff7f0e; stroke: #ff7f0e"/>
     <use xlink:href="#mfbe0eba84f" x="354.725103" y="483.209927" style="fill: #ff7f0e; stroke: #ff7f0e"/>
     <use xlink:href="#mfbe0eba84f" x="365.557617" y="483.209927" style="fill: #ff7f0e; stroke: #ff7f0e"/>
     <use xlink:href="#mfbe0eba84f" x="376.39013" y="335.917575" style="fill: #ff7f0e; stroke: #ff7f0e"/>
     <use xlink:href="#mfbe0eba84f" x="398.055156" y="483.209927" style="fill: #ff7f0e; stroke: #ff7f0e"/>
     <use xlink:href="#mfbe0eba84f" x="408.887669" y="483.209927" style="fill: #ff7f0e; stroke: #ff7f0e"/>
     <use xlink:href="#mfbe0eba84f" x="419.720183" y="483.209927" style="fill: #ff7f0e; stroke: #ff7f0e"/>
     <use xlink:href="#mfbe0eba84f" x="430.552696" y="482.651792" style="fill: #ff7f0e; stroke: #ff7f0e"/>
     <use xlink:href="#mfbe0eba84f" x="441.385209" y="477.669895" style="fill: #ff7f0e; stroke: #ff7f0e"/>
     <use xlink:href="#mfbe0eba84f" x="452.217722" y="483.209927" style="fill: #ff7f0e; stroke: #ff7f0e"/>
     <use xlink:href="#mfbe0eba84f" x="463.050235" y="483.209927" style="fill: #ff7f0e; stroke: #ff7f0e"/>
     <use xlink:href="#mfbe0eba84f" x="473.882749" y="477.669895" style="fill: #ff7f0e; stroke: #ff7f0e"/>
     <use xlink:href="#mfbe0eba84f" x="495.547775" y="477.669895" style="fill: #ff7f0e; stroke: #ff7f0e"/>
     <use xlink:href="#mfbe0eba84f" x="506.380288" y="478.219802" style="fill: #ff7f0e; stroke: #ff7f0e"/>
     <use xlink:href="#mfbe0eba84f" x="517.212801" y="482.651792" style="fill: #ff7f0e; stroke: #ff7f0e"/>
     <use xlink:href="#mfbe0eba84f" x="528.045315" y="483.209927" style="fill: #ff7f0e; stroke: #ff7f0e"/>
     <use xlink:href="#mfbe0eba84f" x="538.877828" y="478.219802" style="fill: #ff7f0e; stroke: #ff7f0e"/>
     <use xlink:href="#mfbe0eba84f" x="560.542854" y="477.669895" style="fill: #ff7f0e; stroke: #ff7f0e"/>
     <use xlink:href="#mfbe0eba84f" x="571.375367" y="477.669895" style="fill: #ff7f0e; stroke: #ff7f0e"/>
     <use xlink:href="#mfbe0eba84f" x="582.20788" y="483.209927" style="fill: #ff7f0e; stroke: #ff7f0e"/>
     <use xlink:href="#mfbe0eba84f" x="593.040394" y="483.209927" style="fill: #ff7f0e; stroke: #ff7f0e"/>
     <use xlink:href="#mfbe0eba84f" x="603.872907" y="482.651792" style="fill: #ff7f0e; stroke: #ff7f0e"/>
     <use xlink:href="#mfbe0eba84f" x="614.70542" y="483.209927" style="fill: #ff7f0e; stroke: #ff7f0e"/>
     <use xlink:href="#mfbe0eba84f" x="625.537933" y="483.209927" style="fill: #ff7f0e; stroke: #ff7f0e"/>
     <use xlink:href="#mfbe0eba84f" x="636.370446" y="483.209927" style="fill: #ff7f0e; stroke: #ff7f0e"/>
     <use xlink:href="#mfbe0eba84f" x="647.20296" y="46.813736" style="fill: #ff7f0e; stroke: #ff7f0e"/>
     <use xlink:href="#mfbe0eba84f" x="658.035473" y="483.209927" style="fill: #ff7f0e; stroke: #ff7f0e"/>
     <use xlink:href="#mfbe0eba84f" x="668.867986" y="477.669895" style="fill: #ff7f0e; stroke: #ff7f0e"/>
     <use xlink:href="#mfbe0eba84f" x="690.533012" y="483.209927" style="fill: #ff7f0e; stroke: #ff7f0e"/>
     <use xlink:href="#mfbe0eba84f" x="701.365526" y="472.219802" style="fill: #ff7f0e; stroke: #ff7f0e"/>
    </g>
   </g>
   <g id="patch_3">
    <path d="M 64.41375 529.308125 
L 64.41375 23.837813 
" style="fill: none; stroke: #000000; stroke-width: 0.8; stroke-linejoin: miter; stroke-linecap: square"/>
   </g>
   <g id="patch_4">
    <path d="M 731.696562 529.308125 
L 731.696562 23.837813 
" style="fill: none; stroke: #000000; stroke-width: 0.8; stroke-linejoin: miter; stroke-linecap: square"/>
   </g>
   <g id="patch_5">
    <path d="M 64.41375 529.308125 
L 731.696563 529.308125 
" style="fill: none; stroke: #000000; stroke-width: 0.8; stroke-linejoin: miter; stroke-linecap: square"/>
   </g>
   <g id="patch_6">
    <path d="M 64.41375 23.837812 
L 731.696563 23.837812 
" style="fill: none; stroke: #000000; stroke-width: 0.8; stroke-linejoin: miter; stroke-linecap: square"/>
   </g>
   <g id="text_12">
    <text style="font: 700 14px 'DejaVu Sans', 'Bitstream Vera Sans', 'Computer Modern Sans Serif', 'Lucida Grande', 'Verdana', 'Geneva', 'Lucid', 'Arial', 'Helvetica', 'Avant Garde', sans-serif; text-anchor: middle" x="398.055156" y="17.837813" transform="rotate(-0 398.055156 17.837813)">Ts Shared Linear Single Thread - Performance Trend</text>
   </g>
   <g id="legend_1">
    <g id="patch_7">
     <path d="M 772.060703 61.194063 
L 847.484141 61.194063 
Q 849.484141 61.194063 849.484141 59.194063 
L 849.484141 30.837813 
Q 849.484141 28.837813 847.484141 28.837813 
L 772.060703 28.837813 
Q 770.060703 28.837813 770.060703 30.837813 
L 770.060703 59.194063 
Q 770.060703 61.194063 772.060703 61.194063 
z
" style="fill: #ffffff; opacity: 0.8; stroke: #cccccc; stroke-linejoin: miter"/>
    </g>
    <g id="line2d_22">
     <path d="M 774.060703 36.93625 
L 784.060703 36.93625 
L 794.060703 36.93625 
" style="fill: none; stroke: #1f77b4; stroke-width: 2; stroke-linecap: square"/>
     <g>
      <use xlink:href="#m87e6fdf79a" x="784.060703" y="36.93625" style="fill: #1f77b4; stroke: #1f77b4"/>
     </g>
    </g>
    <g id="text_13">
     <text style="font: 10px 'DejaVu Sans', 'Bitstream Vera Sans', 'Computer Modern Sans Serif', 'Lucida Grande', 'Verdana', 'Geneva', 'Lucid', 'Arial', 'Helvetica', 'Avant Garde', sans-serif; text-anchor: start" x="802.060703" y="40.43625" transform="rotate(-0 802.060703 40.43625)">clang-18</text>
    </g>
    <g id="line2d_23">
     <path d="M 774.060703 51.614375 
L 784.060703 51.614375 
L 794.060703 51.614375 
" style="fill: none; stroke: #ff7f0e; stroke-width: 2; stroke-linecap: square"/>
     <g>
      <use xlink:href="#mfbe0eba84f" x="784.060703" y="51.614375" style="fill: #ff7f0e; stroke: #ff7f0e"/>
     </g>
    </g>
    <g id="text_14">
     <text style="font: 10px 'DejaVu Sans', 'Bitstream Vera Sans', 'Computer Modern Sans Serif', 'Lucida Grande', 'Verdana', 'Geneva', 'Lucid', 'Arial', 'Helvetica', 'Avant Garde', sans-serif; text-anchor: start" x="802.060703" y="55.114375" transform="rotate(-0 802.060703 55.114375)">gcc-14</text>
    </g>
   </g>
  </g>
 </g>
 <defs>
  <clipPath id="p0a0b79862e">
   <rect x="64.41375" y="23.837813" width="667.282812" height="505.470313"/>
  </clipPath>
 </defs>
</svg>
