<?xml version="1.0" encoding="utf-8" standalone="no"?>
<!DOCTYPE svg PUBLIC "-//W3C//DTD SVG 1.1//EN"
  "http://www.w3.org/Graphics/SVG/1.1/DTD/svg11.dtd">
<svg xmlns:xlink="http://www.w3.org/1999/xlink" width="847.676719pt" height="568.8pt" viewBox="0 0 847.676719 568.8" xmlns="http://www.w3.org/2000/svg" version="1.1">
 <metadata>
  <rdf:RDF xmlns:dc="http://purl.org/dc/elements/1.1/" xmlns:cc="http://creativecommons.org/ns#" xmlns:rdf="http://www.w3.org/1999/02/22-rdf-syntax-ns#">
   <cc:Work>
    <dc:type rdf:resource="http://purl.org/dc/dcmitype/StillImage"/>
    <dc:date>2025-10-14T04:52:24.130330</dc:date>
    <dc:format>image/svg+xml</dc:format>
    <dc:creator>
     <cc:Agent>
      <dc:title>Matplotlib v3.9.4, https://matplotlib.org/</dc:title>
     </cc:Agent>
    </dc:creator>
   </cc:Work>
  </rdf:RDF>
 </metadata>
 <defs>
  <style type="text/css">*{stroke-linejoin: round; stroke-linecap: butt}</style>
 </defs>
 <g id="figure_1">
  <g id="patch_1">
   <path d="M 0 568.8 
L 847.676719 568.8 
L 847.676719 0 
L 0 0 
z
" style="fill: #ffffff"/>
  </g>
  <g id="axes_1">
   <g id="patch_2">
    <path d="M 64.41375 529.308125 
L 551.548125 529.308125 
L 551.548125 23.837812 
L 64.41375 23.837812 
z
" style="fill: #ffffff"/>
   </g>
   <g id="matplotlib.axis_1">
    <g id="xtick_1">
     <g id="line2d_1">
      <path d="M 68.104162 529.308125 
L 68.104162 23.837812 
" clip-path="url(#p159f268333)" style="fill: none; stroke: #b0b0b0; stroke-opacity: 0.3; stroke-width: 0.8; stroke-linecap: square"/>
     </g>
     <g id="line2d_2">
      <defs>
       <path id="m54c13e74c7" d="M 0 0 
L 0 3.5 
" style="stroke: #000000; stroke-width: 0.8"/>
      </defs>
      <g>
       <use xlink:href="#m54c13e74c7" x="68.104162" y="529.308125" style="stroke: #000000; stroke-width: 0.8"/>
      </g>
     </g>
     <g id="text_1">
      <text style="font: 10px 'DejaVu Sans', 'Bitstream Vera Sans', 'Computer Modern Sans Serif', 'Lucida Grande', 'Verdana', 'Geneva', 'Lucid', 'Arial', 'Helvetica', 'Avant Garde', sans-serif; text-anchor: middle" x="68.104162" y="543.906563" transform="rotate(-0 68.104162 543.906563)">95</text>
     </g>
    </g>
    <g id="xtick_2">
     <g id="line2d_3">
      <path d="M 160.36446 529.308125 
L 160.36446 23.837812 
" clip-path="url(#p159f268333)" style="fill: none; stroke: #b0b0b0; stroke-opacity: 0.3; stroke-width: 0.8; stroke-linecap: square"/>
     </g>
     <g id="line2d_4">
      <g>
       <use xlink:href="#m54c13e74c7" x="160.36446" y="529.308125" style="stroke: #000000; stroke-width: 0.8"/>
      </g>
     </g>
     <g id="text_2">
      <text style="font: 10px 'DejaVu Sans', 'Bitstream Vera Sans', 'Computer Modern Sans Serif', 'Lucida Grande', 'Verdana', 'Geneva', 'Lucid', 'Arial', 'Helvetica', 'Avant Garde', sans-serif; text-anchor: middle" x="160.36446" y="543.906563" transform="rotate(-0 160.36446 543.906563)">100</text>
     </g>
    </g>
    <g id="xtick_3">
     <g id="line2d_5">
      <path d="M 252.624759 529.308125 
L 252.624759 23.837812 
" clip-path="url(#p159f268333)" style="fill: none; stroke: #b0b0b0; stroke-opacity: 0.3; stroke-width: 0.8; stroke-linecap: square"/>
     </g>
     <g id="line2d_6">
      <g>
       <use xlink:href="#m54c13e74c7" x="252.624759" y="529.308125" style="stroke: #000000; stroke-width: 0.8"/>
      </g>
     </g>
     <g id="text_3">
      <text style="font: 10px 'DejaVu Sans', 'Bitstream Vera Sans', 'Computer Modern Sans Serif', 'Lucida Grande', 'Verdana', 'Geneva', 'Lucid', 'Arial', 'Helvetica', 'Avant Garde', sans-serif; text-anchor: middle" x="252.624759" y="543.906563" transform="rotate(-0 252.624759 543.906563)">105</text>
     </g>
    </g>
    <g id="xtick_4">
     <g id="line2d_7">
      <path d="M 344.885057 529.308125 
L 344.885057 23.837812 
" clip-path="url(#p159f268333)" style="fill: none; stroke: #b0b0b0; stroke-opacity: 0.3; stroke-width: 0.8; stroke-linecap: square"/>
     </g>
     <g id="line2d_8">
      <g>
       <use xlink:href="#m54c13e74c7" x="344.885057" y="529.308125" style="stroke: #000000; stroke-width: 0.8"/>
      </g>
     </g>
     <g id="text_4">
      <text style="font: 10px 'DejaVu Sans', 'Bitstream Vera Sans', 'Computer Modern Sans Serif', 'Lucida Grande', 'Verdana', 'Geneva', 'Lucid', 'Arial', 'Helvetica', 'Avant Garde', sans-serif; text-anchor: middle" x="344.885057" y="543.906563" transform="rotate(-0 344.885057 543.906563)">110</text>
     </g>
    </g>
    <g id="xtick_5">
     <g id="line2d_9">
      <path d="M 437.145355 529.308125 
L 437.145355 23.837812 
" clip-path="url(#p159f268333)" style="fill: none; stroke: #b0b0b0; stroke-opacity: 0.3; stroke-width: 0.8; stroke-linecap: square"/>
     </g>
     <g id="line2d_10">
      <g>
       <use xlink:href="#m54c13e74c7" x="437.145355" y="529.308125" style="stroke: #000000; stroke-width: 0.8"/>
      </g>
     </g>
     <g id="text_5">
      <text style="font: 10px 'DejaVu Sans', 'Bitstream Vera Sans', 'Computer Modern Sans Serif', 'Lucida Grande', 'Verdana', 'Geneva', 'Lucid', 'Arial', 'Helvetica', 'Avant Garde', sans-serif; text-anchor: middle" x="437.145355" y="543.906563" transform="rotate(-0 437.145355 543.906563)">115</text>
     </g>
    </g>
    <g id="xtick_6">
     <g id="line2d_11">
      <path d="M 529.405653 529.308125 
L 529.405653 23.837812 
" clip-path="url(#p159f268333)" style="fill: none; stroke: #b0b0b0; stroke-opacity: 0.3; stroke-width: 0.8; stroke-linecap: square"/>
     </g>
     <g id="line2d_12">
      <g>
       <use xlink:href="#m54c13e74c7" x="529.405653" y="529.308125" style="stroke: #000000; stroke-width: 0.8"/>
      </g>
     </g>
     <g id="text_6">
      <text style="font: 10px 'DejaVu Sans', 'Bitstream Vera Sans', 'Computer Modern Sans Serif', 'Lucida Grande', 'Verdana', 'Geneva', 'Lucid', 'Arial', 'Helvetica', 'Avant Garde', sans-serif; text-anchor: middle" x="529.405653" y="543.906563" transform="rotate(-0 529.405653 543.906563)">120</text>
     </g>
    </g>
    <g id="text_7">
     <text style="font: 12px 'DejaVu Sans', 'Bitstream Vera Sans', 'Computer Modern Sans Serif', 'Lucida Grande', 'Verdana', 'Geneva', 'Lucid', 'Arial', 'Helvetica', 'Avant Garde', sans-serif; text-anchor: middle" x="307.980938" y="559.104375" transform="rotate(-0 307.980938 559.104375)">Build Number</text>
    </g>
   </g>
   <g id="matplotlib.axis_2">
    <g id="ytick_1">
     <g id="line2d_13">
      <path d="M 64.41375 47.46532 
L 551.548125 47.46532 
" clip-path="url(#p159f268333)" style="fill: none; stroke: #b0b0b0; stroke-opacity: 0.3; stroke-width: 0.8; stroke-linecap: square"/>
     </g>
     <g id="line2d_14">
      <defs>
       <path id="md6aa9df0b0" d="M 0 0 
L -3.5 0 
" style="stroke: #000000; stroke-width: 0.8"/>
      </defs>
      <g>
       <use xlink:href="#md6aa9df0b0" x="64.41375" y="47.46532" style="stroke: #000000; stroke-width: 0.8"/>
      </g>
     </g>
     <g id="text_8">
      <!-- $\mathdefault{10^{8}}$ -->
      <g transform="translate(39.81375 51.264539)">
       <text>
        <tspan style="font: 10px 'DejaVu Sans'" x="0 6.362305" y="-0.9765625">10</tspan>
        <tspan style="font: 7px 'DejaVu Sans'" x="12.820312" y="-4.8046875">8</tspan>
       </text>
      </g>
     </g>
    </g>
    <g id="ytick_2">
     <g id="line2d_15">
      <defs>
       <path id="m80a1b4bc43" d="M 0 0 
L -2 0 
" style="stroke: #000000; stroke-width: 0.6"/>
      </defs>
      <g>
       <use xlink:href="#m80a1b4bc43" x="64.41375" y="518.447842" style="stroke: #000000; stroke-width: 0.6"/>
      </g>
     </g>
     <g id="text_9">
      <!-- $\mathdefault{4\times10^{7}}$ -->
      <g transform="translate(22.81375 522.247061)">
       <text>
        <tspan style="font: 10px 'DejaVu Sans'" x="0 8.310547 18.637695 25" y="-0.06406250000000036">4×10</tspan>
        <tspan style="font: 7px 'DejaVu Sans'" x="31.458008" y="-3.8921875000000004">7</tspan>
       </text>
      </g>
     </g>
    </g>
    <g id="ytick_3">
     <g id="line2d_16">
      <g>
       <use xlink:href="#m80a1b4bc43" x="64.41375" y="403.749844" style="stroke: #000000; stroke-width: 0.6"/>
      </g>
     </g>
    </g>
    <g id="ytick_4">
     <g id="line2d_17">
      <g>
       <use xlink:href="#m80a1b4bc43" x="64.41375" y="310.034756" style="stroke: #000000; stroke-width: 0.6"/>
      </g>
     </g>
     <g id="text_10">
      <!-- $\mathdefault{6\times10^{7}}$ -->
      <g transform="translate(22.81375 313.833975)">
       <text>
        <tspan style="font: 10px 'DejaVu Sans'" x="0 8.310547 18.637695 25" y="-0.06406250000000036">6×10</tspan>
        <tspan style="font: 7px 'DejaVu Sans'" x="31.458008" y="-3.8921875000000004">7</tspan>
       </text>
      </g>
     </g>
    </g>
    <g id="ytick_5">
     <g id="line2d_18">
      <g>
       <use xlink:href="#m80a1b4bc43" x="64.41375" y="230.799778" style="stroke: #000000; stroke-width: 0.6"/>
      </g>
     </g>
    </g>
    <g id="ytick_6">
     <g id="line2d_19">
      <g>
       <use xlink:href="#m80a1b4bc43" x="64.41375" y="162.163318" style="stroke: #000000; stroke-width: 0.6"/>
      </g>
     </g>
    </g>
    <g id="ytick_7">
     <g id="line2d_20">
      <g>
       <use xlink:href="#m80a1b4bc43" x="64.41375" y="101.62167" style="stroke: #000000; stroke-width: 0.6"/>
      </g>
     </g>
    </g>
    <g id="text_11">
     <text style="font: 12px 'DejaVu Sans', 'Bitstream Vera Sans', 'Computer Modern Sans Serif', 'Lucida Grande', 'Verdana', 'Geneva', 'Lucid', 'Arial', 'Helvetica', 'Avant Garde', sans-serif; text-anchor: middle" x="16.318125" y="276.572969" transform="rotate(-90 16.318125 276.572969)">Median Elapsed Time (nanoseconds)</text>
    </g>
   </g>
   <g id="line2d_21">
    <path d="M 86.556222 47.045419 
L 105.008281 47.041076 
L 141.912401 47.080004 
L 160.36446 47.027793 
L 178.81652 47.091446 
L 197.26858 47.086463 
L 215.720639 47.051649 
L 234.172699 47.081082 
L 252.624759 47.027741 
L 271.076818 47.032901 
L 307.980937 47.010588 
L 326.432997 47.015253 
L 344.885057 47.077231 
L 363.337116 47.017702 
L 381.789176 47.079463 
L 418.693295 47.089386 
L 437.145355 47.067503 
L 455.597415 47.091274 
L 474.049474 47.06302 
L 492.501534 47.083898 
L 510.953594 47.076146 
L 529.405653 47.078336 
" clip-path="url(#p159f268333)" style="fill: none; stroke: #1f77b4; stroke-width: 2; stroke-linecap: square"/>
    <defs>
     <path id="meb0fe0d6a6" d="M 0 3 
C 0.795609 3 1.55874 2.683901 2.12132 2.12132 
C 2.683901 1.55874 3 0.795609 3 0 
C 3 -0.795609 2.683901 -1.55874 2.12132 -2.12132 
C 1.55874 -2.683901 0.795609 -3 0 -3 
C -0.795609 -3 -1.55874 -2.683901 -2.12132 -2.12132 
C -2.683901 -1.55874 -3 -0.795609 -3 0 
C -3 0.795609 -2.683901 1.55874 -2.12132 2.12132 
C -1.55874 2.683901 -0.795609 3 0 3 
z
" style="stroke: #1f77b4"/>
    </defs>
    <g clip-path="url(#p159f268333)">
     <use xlink:href="#meb0fe0d6a6" x="86.556222" y="47.045419" style="fill: #1f77b4; stroke: #1f77b4"/>
     <use xlink:href="#meb0fe0d6a6" x="105.008281" y="47.041076" style="fill: #1f77b4; stroke: #1f77b4"/>
     <use xlink:href="#meb0fe0d6a6" x="141.912401" y="47.080004" style="fill: #1f77b4; stroke: #1f77b4"/>
     <use xlink:href="#meb0fe0d6a6" x="160.36446" y="47.027793" style="fill: #1f77b4; stroke: #1f77b4"/>
     <use xlink:href="#meb0fe0d6a6" x="178.81652" y="47.091446" style="fill: #1f77b4; stroke: #1f77b4"/>
     <use xlink:href="#meb0fe0d6a6" x="197.26858" y="47.086463" style="fill: #1f77b4; stroke: #1f77b4"/>
     <use xlink:href="#meb0fe0d6a6" x="215.720639" y="47.051649" style="fill: #1f77b4; stroke: #1f77b4"/>
     <use xlink:href="#meb0fe0d6a6" x="234.172699" y="47.081082" style="fill: #1f77b4; stroke: #1f77b4"/>
     <use xlink:href="#meb0fe0d6a6" x="252.624759" y="47.027741" style="fill: #1f77b4; stroke: #1f77b4"/>
     <use xlink:href="#meb0fe0d6a6" x="271.076818" y="47.032901" style="fill: #1f77b4; stroke: #1f77b4"/>
     <use xlink:href="#meb0fe0d6a6" x="307.980937" y="47.010588" style="fill: #1f77b4; stroke: #1f77b4"/>
     <use xlink:href="#meb0fe0d6a6" x="326.432997" y="47.015253" style="fill: #1f77b4; stroke: #1f77b4"/>
     <use xlink:href="#meb0fe0d6a6" x="344.885057" y="47.077231" style="fill: #1f77b4; stroke: #1f77b4"/>
     <use xlink:href="#meb0fe0d6a6" x="363.337116" y="47.017702" style="fill: #1f77b4; stroke: #1f77b4"/>
     <use xlink:href="#meb0fe0d6a6" x="381.789176" y="47.079463" style="fill: #1f77b4; stroke: #1f77b4"/>
     <use xlink:href="#meb0fe0d6a6" x="418.693295" y="47.089386" style="fill: #1f77b4; stroke: #1f77b4"/>
     <use xlink:href="#meb0fe0d6a6" x="437.145355" y="47.067503" style="fill: #1f77b4; stroke: #1f77b4"/>
     <use xlink:href="#meb0fe0d6a6" x="455.597415" y="47.091274" style="fill: #1f77b4; stroke: #1f77b4"/>
     <use xlink:href="#meb0fe0d6a6" x="474.049474" y="47.06302" style="fill: #1f77b4; stroke: #1f77b4"/>
     <use xlink:href="#meb0fe0d6a6" x="492.501534" y="47.083898" style="fill: #1f77b4; stroke: #1f77b4"/>
     <use xlink:href="#meb0fe0d6a6" x="510.953594" y="47.076146" style="fill: #1f77b4; stroke: #1f77b4"/>
     <use xlink:href="#meb0fe0d6a6" x="529.405653" y="47.078336" style="fill: #1f77b4; stroke: #1f77b4"/>
    </g>
   </g>
   <g id="line2d_22">
    <path d="M 86.556222 504.89379 
L 105.008281 503.607486 
L 141.912401 506.332202 
L 160.36446 505.084141 
L 178.81652 505.472802 
L 197.26858 504.794673 
L 215.720639 504.16112 
L 234.172699 504.919896 
L 252.624759 504.286779 
L 271.076818 504.692142 
L 307.980937 504.698374 
L 326.432997 504.825382 
L 344.885057 504.994401 
L 363.337116 504.634255 
L 381.789176 506.282471 
L 418.693295 504.80694 
L 437.145355 505.762397 
L 455.597415 505.349154 
L 474.049474 505.01537 
L 492.501534 505.34605 
L 510.953594 505.411476 
L 529.405653 504.610885 
" clip-path="url(#p159f268333)" style="fill: none; stroke: #ff7f0e; stroke-width: 2; stroke-linecap: square"/>
    <defs>
     <path id="m4aa1b3a97e" d="M 0 3 
C 0.795609 3 1.55874 2.683901 2.12132 2.12132 
C 2.683901 1.55874 3 0.795609 3 0 
C 3 -0.795609 2.683901 -1.55874 2.12132 -2.12132 
C 1.55874 -2.683901 0.795609 -3 0 -3 
C -0.795609 -3 -1.55874 -2.683901 -2.12132 -2.12132 
C -2.683901 -1.55874 -3 -0.795609 -3 0 
C -3 0.795609 -2.683901 1.55874 -2.12132 2.12132 
C -1.55874 2.683901 -0.795609 3 0 3 
z
" style="stroke: #ff7f0e"/>
    </defs>
    <g clip-path="url(#p159f268333)">
     <use xlink:href="#m4aa1b3a97e" x="86.556222" y="504.89379" style="fill: #ff7f0e; stroke: #ff7f0e"/>
     <use xlink:href="#m4aa1b3a97e" x="105.008281" y="503.607486" style="fill: #ff7f0e; stroke: #ff7f0e"/>
     <use xlink:href="#m4aa1b3a97e" x="141.912401" y="506.332202" style="fill: #ff7f0e; stroke: #ff7f0e"/>
     <use xlink:href="#m4aa1b3a97e" x="160.36446" y="505.084141" style="fill: #ff7f0e; stroke: #ff7f0e"/>
     <use xlink:href="#m4aa1b3a97e" x="178.81652" y="505.472802" style="fill: #ff7f0e; stroke: #ff7f0e"/>
     <use xlink:href="#m4aa1b3a97e" x="197.26858" y="504.794673" style="fill: #ff7f0e; stroke: #ff7f0e"/>
     <use xlink:href="#m4aa1b3a97e" x="215.720639" y="504.16112" style="fill: #ff7f0e; stroke: #ff7f0e"/>
     <use xlink:href="#m4aa1b3a97e" x="234.172699" y="504.919896" style="fill: #ff7f0e; stroke: #ff7f0e"/>
     <use xlink:href="#m4aa1b3a97e" x="252.624759" y="504.286779" style="fill: #ff7f0e; stroke: #ff7f0e"/>
     <use xlink:href="#m4aa1b3a97e" x="271.076818" y="504.692142" style="fill: #ff7f0e; stroke: #ff7f0e"/>
     <use xlink:href="#m4aa1b3a97e" x="307.980937" y="504.698374" style="fill: #ff7f0e; stroke: #ff7f0e"/>
     <use xlink:href="#m4aa1b3a97e" x="326.432997" y="504.825382" style="fill: #ff7f0e; stroke: #ff7f0e"/>
     <use xlink:href="#m4aa1b3a97e" x="344.885057" y="504.994401" style="fill: #ff7f0e; stroke: #ff7f0e"/>
     <use xlink:href="#m4aa1b3a97e" x="363.337116" y="504.634255" style="fill: #ff7f0e; stroke: #ff7f0e"/>
     <use xlink:href="#m4aa1b3a97e" x="381.789176" y="506.282471" style="fill: #ff7f0e; stroke: #ff7f0e"/>
     <use xlink:href="#m4aa1b3a97e" x="418.693295" y="504.80694" style="fill: #ff7f0e; stroke: #ff7f0e"/>
     <use xlink:href="#m4aa1b3a97e" x="437.145355" y="505.762397" style="fill: #ff7f0e; stroke: #ff7f0e"/>
     <use xlink:href="#m4aa1b3a97e" x="455.597415" y="505.349154" style="fill: #ff7f0e; stroke: #ff7f0e"/>
     <use xlink:href="#m4aa1b3a97e" x="474.049474" y="505.01537" style="fill: #ff7f0e; stroke: #ff7f0e"/>
     <use xlink:href="#m4aa1b3a97e" x="492.501534" y="505.34605" style="fill: #ff7f0e; stroke: #ff7f0e"/>
     <use xlink:href="#m4aa1b3a97e" x="510.953594" y="505.411476" style="fill: #ff7f0e; stroke: #ff7f0e"/>
     <use xlink:href="#m4aa1b3a97e" x="529.405653" y="504.610885" style="fill: #ff7f0e; stroke: #ff7f0e"/>
    </g>
   </g>
   <g id="line2d_23">
    <path d="M 86.556222 46.933395 
L 105.008281 46.935546 
L 141.912401 47.002323 
L 160.36446 46.938538 
L 178.81652 47.007851 
L 197.26858 47.000212 
L 215.720639 46.973753 
L 234.172699 47.002711 
L 252.624759 46.947428 
L 271.076818 46.959179 
L 307.980937 46.89879 
L 326.432997 46.920361 
L 344.885057 47.00537 
L 363.337116 46.977418 
L 381.789176 47.000407 
L 418.693295 47.000408 
L 437.145355 46.998299 
L 455.597415 46.998078 
L 474.049474 46.991324 
L 492.501534 46.985633 
L 510.953594 46.996512 
L 529.405653 46.9851 
" clip-path="url(#p159f268333)" style="fill: none; stroke: #2ca02c; stroke-width: 2; stroke-linecap: square"/>
    <defs>
     <path id="m3f48fe2aa6" d="M 0 3 
C 0.795609 3 1.55874 2.683901 2.12132 2.12132 
C 2.683901 1.55874 3 0.795609 3 0 
C 3 -0.795609 2.683901 -1.55874 2.12132 -2.12132 
C 1.55874 -2.683901 0.795609 -3 0 -3 
C -0.795609 -3 -1.55874 -2.683901 -2.12132 -2.12132 
C -2.683901 -1.55874 -3 -0.795609 -3 0 
C -3 0.795609 -2.683901 1.55874 -2.12132 2.12132 
C -1.55874 2.683901 -0.795609 3 0 3 
z
" style="stroke: #2ca02c"/>
    </defs>
    <g clip-path="url(#p159f268333)">
     <use xlink:href="#m3f48fe2aa6" x="86.556222" y="46.933395" style="fill: #2ca02c; stroke: #2ca02c"/>
     <use xlink:href="#m3f48fe2aa6" x="105.008281" y="46.935546" style="fill: #2ca02c; stroke: #2ca02c"/>
     <use xlink:href="#m3f48fe2aa6" x="141.912401" y="47.002323" style="fill: #2ca02c; stroke: #2ca02c"/>
     <use xlink:href="#m3f48fe2aa6" x="160.36446" y="46.938538" style="fill: #2ca02c; stroke: #2ca02c"/>
     <use xlink:href="#m3f48fe2aa6" x="178.81652" y="47.007851" style="fill: #2ca02c; stroke: #2ca02c"/>
     <use xlink:href="#m3f48fe2aa6" x="197.26858" y="47.000212" style="fill: #2ca02c; stroke: #2ca02c"/>
     <use xlink:href="#m3f48fe2aa6" x="215.720639" y="46.973753" style="fill: #2ca02c; stroke: #2ca02c"/>
     <use xlink:href="#m3f48fe2aa6" x="234.172699" y="47.002711" style="fill: #2ca02c; stroke: #2ca02c"/>
     <use xlink:href="#m3f48fe2aa6" x="252.624759" y="46.947428" style="fill: #2ca02c; stroke: #2ca02c"/>
     <use xlink:href="#m3f48fe2aa6" x="271.076818" y="46.959179" style="fill: #2ca02c; stroke: #2ca02c"/>
     <use xlink:href="#m3f48fe2aa6" x="307.980937" y="46.89879" style="fill: #2ca02c; stroke: #2ca02c"/>
     <use xlink:href="#m3f48fe2aa6" x="326.432997" y="46.920361" style="fill: #2ca02c; stroke: #2ca02c"/>
     <use xlink:href="#m3f48fe2aa6" x="344.885057" y="47.00537" style="fill: #2ca02c; stroke: #2ca02c"/>
     <use xlink:href="#m3f48fe2aa6" x="363.337116" y="46.977418" style="fill: #2ca02c; stroke: #2ca02c"/>
     <use xlink:href="#m3f48fe2aa6" x="381.789176" y="47.000407" style="fill: #2ca02c; stroke: #2ca02c"/>
     <use xlink:href="#m3f48fe2aa6" x="418.693295" y="47.000408" style="fill: #2ca02c; stroke: #2ca02c"/>
     <use xlink:href="#m3f48fe2aa6" x="437.145355" y="46.998299" style="fill: #2ca02c; stroke: #2ca02c"/>
     <use xlink:href="#m3f48fe2aa6" x="455.597415" y="46.998078" style="fill: #2ca02c; stroke: #2ca02c"/>
     <use xlink:href="#m3f48fe2aa6" x="474.049474" y="46.991324" style="fill: #2ca02c; stroke: #2ca02c"/>
     <use xlink:href="#m3f48fe2aa6" x="492.501534" y="46.985633" style="fill: #2ca02c; stroke: #2ca02c"/>
     <use xlink:href="#m3f48fe2aa6" x="510.953594" y="46.996512" style="fill: #2ca02c; stroke: #2ca02c"/>
     <use xlink:href="#m3f48fe2aa6" x="529.405653" y="46.9851" style="fill: #2ca02c; stroke: #2ca02c"/>
    </g>
   </g>
   <g id="line2d_24">
    <path d="M 86.556222 504.124409 
L 105.008281 504.547281 
L 141.912401 504.931253 
L 160.36446 503.829879 
L 178.81652 505.502805 
L 197.26858 505.584703 
L 215.720639 504.605412 
L 234.172699 505.668892 
L 252.624759 504.652608 
L 271.076818 505.788421 
L 307.980937 505.104428 
L 326.432997 504.650308 
L 344.885057 504.814801 
L 363.337116 505.235861 
L 381.789176 504.561416 
L 418.693295 504.432643 
L 437.145355 505.641227 
L 455.597415 505.638573 
L 474.049474 503.646187 
L 492.501534 505.241071 
L 510.953594 504.813254 
L 529.405653 504.754476 
" clip-path="url(#p159f268333)" style="fill: none; stroke: #d62728; stroke-width: 2; stroke-linecap: square"/>
    <defs>
     <path id="md183b27329" d="M 0 3 
C 0.795609 3 1.55874 2.683901 2.12132 2.12132 
C 2.683901 1.55874 3 0.795609 3 0 
C 3 -0.795609 2.683901 -1.55874 2.12132 -2.12132 
C 1.55874 -2.683901 0.795609 -3 0 -3 
C -0.795609 -3 -1.55874 -2.683901 -2.12132 -2.12132 
C -2.683901 -1.55874 -3 -0.795609 -3 0 
C -3 0.795609 -2.683901 1.55874 -2.12132 2.12132 
C -1.55874 2.683901 -0.795609 3 0 3 
z
" style="stroke: #d62728"/>
    </defs>
    <g clip-path="url(#p159f268333)">
     <use xlink:href="#md183b27329" x="86.556222" y="504.124409" style="fill: #d62728; stroke: #d62728"/>
     <use xlink:href="#md183b27329" x="105.008281" y="504.547281" style="fill: #d62728; stroke: #d62728"/>
     <use xlink:href="#md183b27329" x="141.912401" y="504.931253" style="fill: #d62728; stroke: #d62728"/>
     <use xlink:href="#md183b27329" x="160.36446" y="503.829879" style="fill: #d62728; stroke: #d62728"/>
     <use xlink:href="#md183b27329" x="178.81652" y="505.502805" style="fill: #d62728; stroke: #d62728"/>
     <use xlink:href="#md183b27329" x="197.26858" y="505.584703" style="fill: #d62728; stroke: #d62728"/>
     <use xlink:href="#md183b27329" x="215.720639" y="504.605412" style="fill: #d62728; stroke: #d62728"/>
     <use xlink:href="#md183b27329" x="234.172699" y="505.668892" style="fill: #d62728; stroke: #d62728"/>
     <use xlink:href="#md183b27329" x="252.624759" y="504.652608" style="fill: #d62728; stroke: #d62728"/>
     <use xlink:href="#md183b27329" x="271.076818" y="505.788421" style="fill: #d62728; stroke: #d62728"/>
     <use xlink:href="#md183b27329" x="307.980937" y="505.104428" style="fill: #d62728; stroke: #d62728"/>
     <use xlink:href="#md183b27329" x="326.432997" y="504.650308" style="fill: #d62728; stroke: #d62728"/>
     <use xlink:href="#md183b27329" x="344.885057" y="504.814801" style="fill: #d62728; stroke: #d62728"/>
     <use xlink:href="#md183b27329" x="363.337116" y="505.235861" style="fill: #d62728; stroke: #d62728"/>
     <use xlink:href="#md183b27329" x="381.789176" y="504.561416" style="fill: #d62728; stroke: #d62728"/>
     <use xlink:href="#md183b27329" x="418.693295" y="504.432643" style="fill: #d62728; stroke: #d62728"/>
     <use xlink:href="#md183b27329" x="437.145355" y="505.641227" style="fill: #d62728; stroke: #d62728"/>
     <use xlink:href="#md183b27329" x="455.597415" y="505.638573" style="fill: #d62728; stroke: #d62728"/>
     <use xlink:href="#md183b27329" x="474.049474" y="503.646187" style="fill: #d62728; stroke: #d62728"/>
     <use xlink:href="#md183b27329" x="492.501534" y="505.241071" style="fill: #d62728; stroke: #d62728"/>
     <use xlink:href="#md183b27329" x="510.953594" y="504.813254" style="fill: #d62728; stroke: #d62728"/>
     <use xlink:href="#md183b27329" x="529.405653" y="504.754476" style="fill: #d62728; stroke: #d62728"/>
    </g>
   </g>
   <g id="line2d_25">
    <path d="M 86.556222 47.058206 
L 105.008281 47.073436 
L 141.912401 47.077584 
L 160.36446 47.050986 
L 178.81652 47.093062 
L 197.26858 47.102646 
L 215.720639 47.095319 
L 234.172699 47.083179 
L 252.624759 47.085848 
L 271.076818 47.082449 
L 307.980937 47.076505 
L 326.432997 47.104627 
L 344.885057 47.080111 
L 381.789176 47.090759 
L 437.145355 47.09084 
L 455.597415 47.08782 
L 474.049474 47.038597 
L 492.501534 47.093572 
L 510.953594 47.068999 
L 529.405653 47.076934 
" clip-path="url(#p159f268333)" style="fill: none; stroke: #9467bd; stroke-width: 2; stroke-linecap: square"/>
    <defs>
     <path id="mf38143a5b3" d="M 0 3 
C 0.795609 3 1.55874 2.683901 2.12132 2.12132 
C 2.683901 1.55874 3 0.795609 3 0 
C 3 -0.795609 2.683901 -1.55874 2.12132 -2.12132 
C 1.55874 -2.683901 0.795609 -3 0 -3 
C -0.795609 -3 -1.55874 -2.683901 -2.12132 -2.12132 
C -2.683901 -1.55874 -3 -0.795609 -3 0 
C -3 0.795609 -2.683901 1.55874 -2.12132 2.12132 
C -1.55874 2.683901 -0.795609 3 0 3 
z
" style="stroke: #9467bd"/>
    </defs>
    <g clip-path="url(#p159f268333)">
     <use xlink:href="#mf38143a5b3" x="86.556222" y="47.058206" style="fill: #9467bd; stroke: #9467bd"/>
     <use xlink:href="#mf38143a5b3" x="105.008281" y="47.073436" style="fill: #9467bd; stroke: #9467bd"/>
     <use xlink:href="#mf38143a5b3" x="141.912401" y="47.077584" style="fill: #9467bd; stroke: #9467bd"/>
     <use xlink:href="#mf38143a5b3" x="160.36446" y="47.050986" style="fill: #9467bd; stroke: #9467bd"/>
     <use xlink:href="#mf38143a5b3" x="178.81652" y="47.093062" style="fill: #9467bd; stroke: #9467bd"/>
     <use xlink:href="#mf38143a5b3" x="197.26858" y="47.102646" style="fill: #9467bd; stroke: #9467bd"/>
     <use xlink:href="#mf38143a5b3" x="215.720639" y="47.095319" style="fill: #9467bd; stroke: #9467bd"/>
     <use xlink:href="#mf38143a5b3" x="234.172699" y="47.083179" style="fill: #9467bd; stroke: #9467bd"/>
     <use xlink:href="#mf38143a5b3" x="252.624759" y="47.085848" style="fill: #9467bd; stroke: #9467bd"/>
     <use xlink:href="#mf38143a5b3" x="271.076818" y="47.082449" style="fill: #9467bd; stroke: #9467bd"/>
     <use xlink:href="#mf38143a5b3" x="307.980937" y="47.076505" style="fill: #9467bd; stroke: #9467bd"/>
     <use xlink:href="#mf38143a5b3" x="326.432997" y="47.104627" style="fill: #9467bd; stroke: #9467bd"/>
     <use xlink:href="#mf38143a5b3" x="344.885057" y="47.080111" style="fill: #9467bd; stroke: #9467bd"/>
     <use xlink:href="#mf38143a5b3" x="381.789176" y="47.090759" style="fill: #9467bd; stroke: #9467bd"/>
     <use xlink:href="#mf38143a5b3" x="437.145355" y="47.09084" style="fill: #9467bd; stroke: #9467bd"/>
     <use xlink:href="#mf38143a5b3" x="455.597415" y="47.08782" style="fill: #9467bd; stroke: #9467bd"/>
     <use xlink:href="#mf38143a5b3" x="474.049474" y="47.038597" style="fill: #9467bd; stroke: #9467bd"/>
     <use xlink:href="#mf38143a5b3" x="492.501534" y="47.093572" style="fill: #9467bd; stroke: #9467bd"/>
     <use xlink:href="#mf38143a5b3" x="510.953594" y="47.068999" style="fill: #9467bd; stroke: #9467bd"/>
     <use xlink:href="#mf38143a5b3" x="529.405653" y="47.076934" style="fill: #9467bd; stroke: #9467bd"/>
    </g>
   </g>
   <g id="line2d_26">
    <path d="M 86.556222 423.351373 
L 105.008281 423.188249 
L 141.912401 423.776519 
L 160.36446 424.294215 
L 178.81652 423.685715 
L 197.26858 423.832076 
L 215.720639 423.624349 
L 234.172699 423.64012 
L 252.624759 423.84617 
L 271.076818 422.149169 
L 307.980937 423.487148 
L 326.432997 424.331331 
L 344.885057 423.325687 
L 381.789176 423.944683 
L 437.145355 423.250346 
L 455.597415 423.610916 
L 474.049474 423.165109 
L 492.501534 423.535746 
L 510.953594 423.164319 
L 529.405653 423.864948 
" clip-path="url(#p159f268333)" style="fill: none; stroke: #8c564b; stroke-width: 2; stroke-linecap: square"/>
    <defs>
     <path id="m6a40af6a78" d="M 0 3 
C 0.795609 3 1.55874 2.683901 2.12132 2.12132 
C 2.683901 1.55874 3 0.795609 3 0 
C 3 -0.795609 2.683901 -1.55874 2.12132 -2.12132 
C 1.55874 -2.683901 0.795609 -3 0 -3 
C -0.795609 -3 -1.55874 -2.683901 -2.12132 -2.12132 
C -2.683901 -1.55874 -3 -0.795609 -3 0 
C -3 0.795609 -2.683901 1.55874 -2.12132 2.12132 
C -1.55874 2.683901 -0.795609 3 0 3 
z
" style="stroke: #8c564b"/>
    </defs>
    <g clip-path="url(#p159f268333)">
     <use xlink:href="#m6a40af6a78" x="86.556222" y="423.351373" style="fill: #8c564b; stroke: #8c564b"/>
     <use xlink:href="#m6a40af6a78" x="105.008281" y="423.188249" style="fill: #8c564b; stroke: #8c564b"/>
     <use xlink:href="#m6a40af6a78" x="141.912401" y="423.776519" style="fill: #8c564b; stroke: #8c564b"/>
     <use xlink:href="#m6a40af6a78" x="160.36446" y="424.294215" style="fill: #8c564b; stroke: #8c564b"/>
     <use xlink:href="#m6a40af6a78" x="178.81652" y="423.685715" style="fill: #8c564b; stroke: #8c564b"/>
     <use xlink:href="#m6a40af6a78" x="197.26858" y="423.832076" style="fill: #8c564b; stroke: #8c564b"/>
     <use xlink:href="#m6a40af6a78" x="215.720639" y="423.624349" style="fill: #8c564b; stroke: #8c564b"/>
     <use xlink:href="#m6a40af6a78" x="234.172699" y="423.64012" style="fill: #8c564b; stroke: #8c564b"/>
     <use xlink:href="#m6a40af6a78" x="252.624759" y="423.84617" style="fill: #8c564b; stroke: #8c564b"/>
     <use xlink:href="#m6a40af6a78" x="271.076818" y="422.149169" style="fill: #8c564b; stroke: #8c564b"/>
     <use xlink:href="#m6a40af6a78" x="307.980937" y="423.487148" style="fill: #8c564b; stroke: #8c564b"/>
     <use xlink:href="#m6a40af6a78" x="326.432997" y="424.331331" style="fill: #8c564b; stroke: #8c564b"/>
     <use xlink:href="#m6a40af6a78" x="344.885057" y="423.325687" style="fill: #8c564b; stroke: #8c564b"/>
     <use xlink:href="#m6a40af6a78" x="381.789176" y="423.944683" style="fill: #8c564b; stroke: #8c564b"/>
     <use xlink:href="#m6a40af6a78" x="437.145355" y="423.250346" style="fill: #8c564b; stroke: #8c564b"/>
     <use xlink:href="#m6a40af6a78" x="455.597415" y="423.610916" style="fill: #8c564b; stroke: #8c564b"/>
     <use xlink:href="#m6a40af6a78" x="474.049474" y="423.165109" style="fill: #8c564b; stroke: #8c564b"/>
     <use xlink:href="#m6a40af6a78" x="492.501534" y="423.535746" style="fill: #8c564b; stroke: #8c564b"/>
     <use xlink:href="#m6a40af6a78" x="510.953594" y="423.164319" style="fill: #8c564b; stroke: #8c564b"/>
     <use xlink:href="#m6a40af6a78" x="529.405653" y="423.864948" style="fill: #8c564b; stroke: #8c564b"/>
    </g>
   </g>
   <g id="line2d_27">
    <path d="M 86.556222 46.96239 
L 105.008281 46.992283 
L 141.912401 46.999001 
L 160.36446 46.813736 
L 178.81652 47.000552 
L 197.26858 47.007251 
L 215.720639 46.996215 
L 234.172699 46.999432 
L 252.624759 46.98848 
L 271.076818 46.998826 
L 307.980937 46.99576 
L 326.432997 47.011218 
L 344.885057 47.005003 
L 381.789176 47.000971 
L 437.145355 47.0026 
L 455.597415 47.014298 
L 474.049474 46.93852 
L 492.501534 47.006187 
L 510.953594 46.995645 
L 529.405653 47.001161 
" clip-path="url(#p159f268333)" style="fill: none; stroke: #e377c2; stroke-width: 2; stroke-linecap: square"/>
    <defs>
     <path id="m42f01f13ed" d="M 0 3 
C 0.795609 3 1.55874 2.683901 2.12132 2.12132 
C 2.683901 1.55874 3 0.795609 3 0 
C 3 -0.795609 2.683901 -1.55874 2.12132 -2.12132 
C 1.55874 -2.683901 0.795609 -3 0 -3 
C -0.795609 -3 -1.55874 -2.683901 -2.12132 -2.12132 
C -2.683901 -1.55874 -3 -0.795609 -3 0 
C -3 0.795609 -2.683901 1.55874 -2.12132 2.12132 
C -1.55874 2.683901 -0.795609 3 0 3 
z
" style="stroke: #e377c2"/>
    </defs>
    <g clip-path="url(#p159f268333)">
     <use xlink:href="#m42f01f13ed" x="86.556222" y="46.96239" style="fill: #e377c2; stroke: #e377c2"/>
     <use xlink:href="#m42f01f13ed" x="105.008281" y="46.992283" style="fill: #e377c2; stroke: #e377c2"/>
     <use xlink:href="#m42f01f13ed" x="141.912401" y="46.999001" style="fill: #e377c2; stroke: #e377c2"/>
     <use xlink:href="#m42f01f13ed" x="160.36446" y="46.813736" style="fill: #e377c2; stroke: #e377c2"/>
     <use xlink:href="#m42f01f13ed" x="178.81652" y="47.000552" style="fill: #e377c2; stroke: #e377c2"/>
     <use xlink:href="#m42f01f13ed" x="197.26858" y="47.007251" style="fill: #e377c2; stroke: #e377c2"/>
     <use xlink:href="#m42f01f13ed" x="215.720639" y="46.996215" style="fill: #e377c2; stroke: #e377c2"/>
     <use xlink:href="#m42f01f13ed" x="234.172699" y="46.999432" style="fill: #e377c2; stroke: #e377c2"/>
     <use xlink:href="#m42f01f13ed" x="252.624759" y="46.98848" style="fill: #e377c2; stroke: #e377c2"/>
     <use xlink:href="#m42f01f13ed" x="271.076818" y="46.998826" style="fill: #e377c2; stroke: #e377c2"/>
     <use xlink:href="#m42f01f13ed" x="307.980937" y="46.99576" style="fill: #e377c2; stroke: #e377c2"/>
     <use xlink:href="#m42f01f13ed" x="326.432997" y="47.011218" style="fill: #e377c2; stroke: #e377c2"/>
     <use xlink:href="#m42f01f13ed" x="344.885057" y="47.005003" style="fill: #e377c2; stroke: #e377c2"/>
     <use xlink:href="#m42f01f13ed" x="381.789176" y="47.000971" style="fill: #e377c2; stroke: #e377c2"/>
     <use xlink:href="#m42f01f13ed" x="437.145355" y="47.0026" style="fill: #e377c2; stroke: #e377c2"/>
     <use xlink:href="#m42f01f13ed" x="455.597415" y="47.014298" style="fill: #e377c2; stroke: #e377c2"/>
     <use xlink:href="#m42f01f13ed" x="474.049474" y="46.93852" style="fill: #e377c2; stroke: #e377c2"/>
     <use xlink:href="#m42f01f13ed" x="492.501534" y="47.006187" style="fill: #e377c2; stroke: #e377c2"/>
     <use xlink:href="#m42f01f13ed" x="510.953594" y="46.995645" style="fill: #e377c2; stroke: #e377c2"/>
     <use xlink:href="#m42f01f13ed" x="529.405653" y="47.001161" style="fill: #e377c2; stroke: #e377c2"/>
    </g>
   </g>
   <g id="line2d_28">
    <path d="M 86.556222 423.584551 
L 105.008281 424.032078 
L 141.912401 423.288595 
L 160.36446 423.495664 
L 178.81652 423.826623 
L 197.26858 423.778058 
L 215.720639 422.614645 
L 234.172699 423.163554 
L 252.624759 423.569898 
L 271.076818 423.321611 
L 307.980937 423.151116 
L 326.432997 423.675467 
L 344.885057 422.802532 
L 381.789176 423.524592 
L 437.145355 423.555987 
L 455.597415 423.665664 
L 474.049474 423.435292 
L 492.501534 423.632861 
L 510.953594 423.269922 
L 529.405653 423.416489 
" clip-path="url(#p159f268333)" style="fill: none; stroke: #7f7f7f; stroke-width: 2; stroke-linecap: square"/>
    <defs>
     <path id="mf20f4952fb" d="M 0 3 
C 0.795609 3 1.55874 2.683901 2.12132 2.12132 
C 2.683901 1.55874 3 0.795609 3 0 
C 3 -0.795609 2.683901 -1.55874 2.12132 -2.12132 
C 1.55874 -2.683901 0.795609 -3 0 -3 
C -0.795609 -3 -1.55874 -2.683901 -2.12132 -2.12132 
C -2.683901 -1.55874 -3 -0.795609 -3 0 
C -3 0.795609 -2.683901 1.55874 -2.12132 2.12132 
C -1.55874 2.683901 -0.795609 3 0 3 
z
" style="stroke: #7f7f7f"/>
    </defs>
    <g clip-path="url(#p159f268333)">
     <use xlink:href="#mf20f4952fb" x="86.556222" y="423.584551" style="fill: #7f7f7f; stroke: #7f7f7f"/>
     <use xlink:href="#mf20f4952fb" x="105.008281" y="424.032078" style="fill: #7f7f7f; stroke: #7f7f7f"/>
     <use xlink:href="#mf20f4952fb" x="141.912401" y="423.288595" style="fill: #7f7f7f; stroke: #7f7f7f"/>
     <use xlink:href="#mf20f4952fb" x="160.36446" y="423.495664" style="fill: #7f7f7f; stroke: #7f7f7f"/>
     <use xlink:href="#mf20f4952fb" x="178.81652" y="423.826623" style="fill: #7f7f7f; stroke: #7f7f7f"/>
     <use xlink:href="#mf20f4952fb" x="197.26858" y="423.778058" style="fill: #7f7f7f; stroke: #7f7f7f"/>
     <use xlink:href="#mf20f4952fb" x="215.720639" y="422.614645" style="fill: #7f7f7f; stroke: #7f7f7f"/>
     <use xlink:href="#mf20f4952fb" x="234.172699" y="423.163554" style="fill: #7f7f7f; stroke: #7f7f7f"/>
     <use xlink:href="#mf20f4952fb" x="252.624759" y="423.569898" style="fill: #7f7f7f; stroke: #7f7f7f"/>
     <use xlink:href="#mf20f4952fb" x="271.076818" y="423.321611" style="fill: #7f7f7f; stroke: #7f7f7f"/>
     <use xlink:href="#mf20f4952fb" x="307.980937" y="423.151116" style="fill: #7f7f7f; stroke: #7f7f7f"/>
     <use xlink:href="#mf20f4952fb" x="326.432997" y="423.675467" style="fill: #7f7f7f; stroke: #7f7f7f"/>
     <use xlink:href="#mf20f4952fb" x="344.885057" y="422.802532" style="fill: #7f7f7f; stroke: #7f7f7f"/>
     <use xlink:href="#mf20f4952fb" x="381.789176" y="423.524592" style="fill: #7f7f7f; stroke: #7f7f7f"/>
     <use xlink:href="#mf20f4952fb" x="437.145355" y="423.555987" style="fill: #7f7f7f; stroke: #7f7f7f"/>
     <use xlink:href="#mf20f4952fb" x="455.597415" y="423.665664" style="fill: #7f7f7f; stroke: #7f7f7f"/>
     <use xlink:href="#mf20f4952fb" x="474.049474" y="423.435292" style="fill: #7f7f7f; stroke: #7f7f7f"/>
     <use xlink:href="#mf20f4952fb" x="492.501534" y="423.632861" style="fill: #7f7f7f; stroke: #7f7f7f"/>
     <use xlink:href="#mf20f4952fb" x="510.953594" y="423.269922" style="fill: #7f7f7f; stroke: #7f7f7f"/>
     <use xlink:href="#mf20f4952fb" x="529.405653" y="423.416489" style="fill: #7f7f7f; stroke: #7f7f7f"/>
    </g>
   </g>
   <g id="patch_3">
    <path d="M 64.41375 529.308125 
L 64.41375 23.837812 
" style="fill: none; stroke: #000000; stroke-width: 0.8; stroke-linejoin: miter; stroke-linecap: square"/>
   </g>
   <g id="patch_4">
    <path d="M 551.548125 529.308125 
L 551.548125 23.837812 
" style="fill: none; stroke: #000000; stroke-width: 0.8; stroke-linejoin: miter; stroke-linecap: square"/>
   </g>
   <g id="patch_5">
    <path d="M 64.41375 529.308125 
L 551.548125 529.308125 
" style="fill: none; stroke: #000000; stroke-width: 0.8; stroke-linejoin: miter; stroke-linecap: square"/>
   </g>
   <g id="patch_6">
    <path d="M 64.41375 23.837812 
L 551.548125 23.837812 
" style="fill: none; stroke: #000000; stroke-width: 0.8; stroke-linejoin: miter; stroke-linecap: square"/>
   </g>
   <g id="text_12">
    <text style="font: 700 14px 'DejaVu Sans', 'Bitstream Vera Sans', 'Computer Modern Sans Serif', 'Lucida Grande', 'Verdana', 'Geneva', 'Lucid', 'Arial', 'Helvetica', 'Avant Garde', sans-serif; text-anchor: middle" x="307.980938" y="17.837813" transform="rotate(-0 307.980938 17.837813)">Coroutine Parallel Compute - Performance Trend</text>
   </g>
   <g id="legend_1">
    <g id="patch_7">
     <path d="M 582.904844 151.487813 
L 838.476719 151.487813 
Q 840.476719 151.487813 840.476719 149.487813 
L 840.476719 30.837813 
Q 840.476719 28.837813 838.476719 28.837813 
L 582.904844 28.837813 
Q 580.904844 28.837813 580.904844 30.837813 
L 580.904844 149.487813 
Q 580.904844 151.487813 582.904844 151.487813 
z
" style="fill: #ffffff; opacity: 0.8; stroke: #cccccc; stroke-linejoin: miter"/>
    </g>
    <g id="line2d_29">
     <path d="M 584.904844 36.93625 
L 594.904844 36.93625 
L 604.904844 36.93625 
" style="fill: none; stroke: #1f77b4; stroke-width: 2; stroke-linecap: square"/>
     <g>
      <use xlink:href="#meb0fe0d6a6" x="594.904844" y="36.93625" style="fill: #1f77b4; stroke: #1f77b4"/>
     </g>
    </g>
    <g id="text_13">
     <text style="font: 10px 'DejaVu Sans', 'Bitstream Vera Sans', 'Computer Modern Sans Serif', 'Lucida Grande', 'Verdana', 'Geneva', 'Lucid', 'Arial', 'Helvetica', 'Avant Garde', sans-serif; text-anchor: start" x="612.904844" y="40.43625" transform="rotate(-0 612.904844 40.43625)">gcc-14.2 - ParallelCompute_Coroutines_V1</text>
    </g>
    <g id="line2d_30">
     <path d="M 584.904844 51.8925 
L 594.904844 51.8925 
L 604.904844 51.8925 
" style="fill: none; stroke: #ff7f0e; stroke-width: 2; stroke-linecap: square"/>
     <g>
      <use xlink:href="#m4aa1b3a97e" x="594.904844" y="51.8925" style="fill: #ff7f0e; stroke: #ff7f0e"/>
     </g>
    </g>
    <g id="text_14">
     <text style="font: 10px 'DejaVu Sans', 'Bitstream Vera Sans', 'Computer Modern Sans Serif', 'Lucida Grande', 'Verdana', 'Geneva', 'Lucid', 'Arial', 'Helvetica', 'Avant Garde', sans-serif; text-anchor: start" x="612.904844" y="55.3925" transform="rotate(-0 612.904844 55.3925)">gcc-14.2 - ParallelCompute_RegularTasks_V1</text>
    </g>
    <g id="line2d_31">
     <path d="M 584.904844 66.84875 
L 594.904844 66.84875 
L 604.904844 66.84875 
" style="fill: none; stroke: #2ca02c; stroke-width: 2; stroke-linecap: square"/>
     <g>
      <use xlink:href="#m3f48fe2aa6" x="594.904844" y="66.84875" style="fill: #2ca02c; stroke: #2ca02c"/>
     </g>
    </g>
    <g id="text_15">
     <text style="font: 10px 'DejaVu Sans', 'Bitstream Vera Sans', 'Computer Modern Sans Serif', 'Lucida Grande', 'Verdana', 'Geneva', 'Lucid', 'Arial', 'Helvetica', 'Avant Garde', sans-serif; text-anchor: start" x="612.904844" y="70.34875" transform="rotate(-0 612.904844 70.34875)">gcc-14.2 - ParallelCompute_Coroutines_V2</text>
    </g>
    <g id="line2d_32">
     <path d="M 584.904844 81.805 
L 594.904844 81.805 
L 604.904844 81.805 
" style="fill: none; stroke: #d62728; stroke-width: 2; stroke-linecap: square"/>
     <g>
      <use xlink:href="#md183b27329" x="594.904844" y="81.805" style="fill: #d62728; stroke: #d62728"/>
     </g>
    </g>
    <g id="text_16">
     <text style="font: 10px 'DejaVu Sans', 'Bitstream Vera Sans', 'Computer Modern Sans Serif', 'Lucida Grande', 'Verdana', 'Geneva', 'Lucid', 'Arial', 'Helvetica', 'Avant Garde', sans-serif; text-anchor: start" x="612.904844" y="85.305" transform="rotate(-0 612.904844 85.305)">gcc-14.2 - ParallelCompute_RegularTasks_V2</text>
    </g>
    <g id="line2d_33">
     <path d="M 584.904844 96.76125 
L 594.904844 96.76125 
L 604.904844 96.76125 
" style="fill: none; stroke: #9467bd; stroke-width: 2; stroke-linecap: square"/>
     <g>
      <use xlink:href="#mf38143a5b3" x="594.904844" y="96.76125" style="fill: #9467bd; stroke: #9467bd"/>
     </g>
    </g>
    <g id="text_17">
     <text style="font: 10px 'DejaVu Sans', 'Bitstream Vera Sans', 'Computer Modern Sans Serif', 'Lucida Grande', 'Verdana', 'Geneva', 'Lucid', 'Arial', 'Helvetica', 'Avant Garde', sans-serif; text-anchor: start" x="612.904844" y="100.26125" transform="rotate(-0 612.904844 100.26125)">gcc-4.2 - ParallelCompute_Coroutines_V1</text>
    </g>
    <g id="line2d_34">
     <path d="M 584.904844 111.7175 
L 594.904844 111.7175 
L 604.904844 111.7175 
" style="fill: none; stroke: #8c564b; stroke-width: 2; stroke-linecap: square"/>
     <g>
      <use xlink:href="#m6a40af6a78" x="594.904844" y="111.7175" style="fill: #8c564b; stroke: #8c564b"/>
     </g>
    </g>
    <g id="text_18">
     <text style="font: 10px 'DejaVu Sans', 'Bitstream Vera Sans', 'Computer Modern Sans Serif', 'Lucida Grande', 'Verdana', 'Geneva', 'Lucid', 'Arial', 'Helvetica', 'Avant Garde', sans-serif; text-anchor: start" x="612.904844" y="115.2175" transform="rotate(-0 612.904844 115.2175)">gcc-4.2 - ParallelCompute_RegularTasks_V1</text>
    </g>
    <g id="line2d_35">
     <path d="M 584.904844 126.67375 
L 594.904844 126.67375 
L 604.904844 126.67375 
" style="fill: none; stroke: #e377c2; stroke-width: 2; stroke-linecap: square"/>
     <g>
      <use xlink:href="#m42f01f13ed" x="594.904844" y="126.67375" style="fill: #e377c2; stroke: #e377c2"/>
     </g>
    </g>
    <g id="text_19">
     <text style="font: 10px 'DejaVu Sans', 'Bitstream Vera Sans', 'Computer Modern Sans Serif', 'Lucida Grande', 'Verdana', 'Geneva', 'Lucid', 'Arial', 'Helvetica', 'Avant Garde', sans-serif; text-anchor: start" x="612.904844" y="130.17375" transform="rotate(-0 612.904844 130.17375)">gcc-4.2 - ParallelCompute_Coroutines_V2</text>
    </g>
    <g id="line2d_36">
     <path d="M 584.904844 141.63 
L 594.904844 141.63 
L 604.904844 141.63 
" style="fill: none; stroke: #7f7f7f; stroke-width: 2; stroke-linecap: square"/>
     <g>
      <use xlink:href="#mf20f4952fb" x="594.904844" y="141.63" style="fill: #7f7f7f; stroke: #7f7f7f"/>
     </g>
    </g>
    <g id="text_20">
     <text style="font: 10px 'DejaVu Sans', 'Bitstream Vera Sans', 'Computer Modern Sans Serif', 'Lucida Grande', 'Verdana', 'Geneva', 'Lucid', 'Arial', 'Helvetica', 'Avant Garde', sans-serif; text-anchor: start" x="612.904844" y="145.13" transform="rotate(-0 612.904844 145.13)">gcc-4.2 - ParallelCompute_RegularTasks_V2</text>
    </g>
   </g>
  </g>
 </g>
 <defs>
  <clipPath id="p159f268333">
   <rect x="64.41375" y="23.837813" width="487.134375" height="505.470313"/>
  </clipPath>
 </defs>
</svg>
