<?xml version="1.0" encoding="utf-8" standalone="no"?>
<!DOCTYPE svg PUBLIC "-//W3C//DTD SVG 1.1//EN"
  "http://www.w3.org/Graphics/SVG/1.1/DTD/svg11.dtd">
<svg xmlns:xlink="http://www.w3.org/1999/xlink" width="855.204687pt" height="568.8pt" viewBox="0 0 855.204687 568.8" xmlns="http://www.w3.org/2000/svg" version="1.1">
 <metadata>
  <rdf:RDF xmlns:dc="http://purl.org/dc/elements/1.1/" xmlns:cc="http://creativecommons.org/ns#" xmlns:rdf="http://www.w3.org/1999/02/22-rdf-syntax-ns#">
   <cc:Work>
    <dc:type rdf:resource="http://purl.org/dc/dcmitype/StillImage"/>
    <dc:date>2025-08-30T22:53:03.666765</dc:date>
    <dc:format>image/svg+xml</dc:format>
    <dc:creator>
     <cc:Agent>
      <dc:title>Matplotlib v3.9.4, https://matplotlib.org/</dc:title>
     </cc:Agent>
    </dc:creator>
   </cc:Work>
  </rdf:RDF>
 </metadata>
 <defs>
  <style type="text/css">*{stroke-linejoin: round; stroke-linecap: butt}</style>
 </defs>
 <g id="figure_1">
  <g id="patch_1">
   <path d="M 0 568.8 
L 855.204687 568.8 
L 855.204687 0 
L 0 0 
z
" style="fill: #ffffff"/>
  </g>
  <g id="axes_1">
   <g id="patch_2">
    <path d="M 64.41375 529.308125 
L 702.1075 529.308125 
L 702.1075 23.837812 
L 64.41375 23.837812 
z
" style="fill: #ffffff"/>
   </g>
   <g id="matplotlib.axis_1">
    <g id="xtick_1">
     <g id="line2d_1">
      <path d="M 79.917932 529.308125 
L 79.917932 23.837812 
" clip-path="url(#p4ec4260127)" style="fill: none; stroke: #b0b0b0; stroke-opacity: 0.3; stroke-width: 0.8; stroke-linecap: square"/>
     </g>
     <g id="line2d_2">
      <defs>
       <path id="m3cc23ca185" d="M 0 0 
L 0 3.5 
" style="stroke: #000000; stroke-width: 0.8"/>
      </defs>
      <g>
       <use xlink:href="#m3cc23ca185" x="79.917932" y="529.308125" style="stroke: #000000; stroke-width: 0.8"/>
      </g>
     </g>
     <g id="text_1">
      <text style="font: 10px 'DejaVu Sans', 'Bitstream Vera Sans', 'Computer Modern Sans Serif', 'Lucida Grande', 'Verdana', 'Geneva', 'Lucid', 'Arial', 'Helvetica', 'Avant Garde', sans-serif; text-anchor: middle" x="79.917932" y="543.906563" transform="rotate(-0 79.917932 543.906563)">70</text>
     </g>
    </g>
    <g id="xtick_2">
     <g id="line2d_3">
      <path d="M 214.736907 529.308125 
L 214.736907 23.837812 
" clip-path="url(#p4ec4260127)" style="fill: none; stroke: #b0b0b0; stroke-opacity: 0.3; stroke-width: 0.8; stroke-linecap: square"/>
     </g>
     <g id="line2d_4">
      <g>
       <use xlink:href="#m3cc23ca185" x="214.736907" y="529.308125" style="stroke: #000000; stroke-width: 0.8"/>
      </g>
     </g>
     <g id="text_2">
      <text style="font: 10px 'DejaVu Sans', 'Bitstream Vera Sans', 'Computer Modern Sans Serif', 'Lucida Grande', 'Verdana', 'Geneva', 'Lucid', 'Arial', 'Helvetica', 'Avant Garde', sans-serif; text-anchor: middle" x="214.736907" y="543.906563" transform="rotate(-0 214.736907 543.906563)">80</text>
     </g>
    </g>
    <g id="xtick_3">
     <g id="line2d_5">
      <path d="M 349.555881 529.308125 
L 349.555881 23.837812 
" clip-path="url(#p4ec4260127)" style="fill: none; stroke: #b0b0b0; stroke-opacity: 0.3; stroke-width: 0.8; stroke-linecap: square"/>
     </g>
     <g id="line2d_6">
      <g>
       <use xlink:href="#m3cc23ca185" x="349.555881" y="529.308125" style="stroke: #000000; stroke-width: 0.8"/>
      </g>
     </g>
     <g id="text_3">
      <text style="font: 10px 'DejaVu Sans', 'Bitstream Vera Sans', 'Computer Modern Sans Serif', 'Lucida Grande', 'Verdana', 'Geneva', 'Lucid', 'Arial', 'Helvetica', 'Avant Garde', sans-serif; text-anchor: middle" x="349.555881" y="543.906563" transform="rotate(-0 349.555881 543.906563)">90</text>
     </g>
    </g>
    <g id="xtick_4">
     <g id="line2d_7">
      <path d="M 484.374856 529.308125 
L 484.374856 23.837812 
" clip-path="url(#p4ec4260127)" style="fill: none; stroke: #b0b0b0; stroke-opacity: 0.3; stroke-width: 0.8; stroke-linecap: square"/>
     </g>
     <g id="line2d_8">
      <g>
       <use xlink:href="#m3cc23ca185" x="484.374856" y="529.308125" style="stroke: #000000; stroke-width: 0.8"/>
      </g>
     </g>
     <g id="text_4">
      <text style="font: 10px 'DejaVu Sans', 'Bitstream Vera Sans', 'Computer Modern Sans Serif', 'Lucida Grande', 'Verdana', 'Geneva', 'Lucid', 'Arial', 'Helvetica', 'Avant Garde', sans-serif; text-anchor: middle" x="484.374856" y="543.906563" transform="rotate(-0 484.374856 543.906563)">100</text>
     </g>
    </g>
    <g id="xtick_5">
     <g id="line2d_9">
      <path d="M 619.193831 529.308125 
L 619.193831 23.837812 
" clip-path="url(#p4ec4260127)" style="fill: none; stroke: #b0b0b0; stroke-opacity: 0.3; stroke-width: 0.8; stroke-linecap: square"/>
     </g>
     <g id="line2d_10">
      <g>
       <use xlink:href="#m3cc23ca185" x="619.193831" y="529.308125" style="stroke: #000000; stroke-width: 0.8"/>
      </g>
     </g>
     <g id="text_5">
      <text style="font: 10px 'DejaVu Sans', 'Bitstream Vera Sans', 'Computer Modern Sans Serif', 'Lucida Grande', 'Verdana', 'Geneva', 'Lucid', 'Arial', 'Helvetica', 'Avant Garde', sans-serif; text-anchor: middle" x="619.193831" y="543.906563" transform="rotate(-0 619.193831 543.906563)">110</text>
     </g>
    </g>
    <g id="text_6">
     <text style="font: 12px 'DejaVu Sans', 'Bitstream Vera Sans', 'Computer Modern Sans Serif', 'Lucida Grande', 'Verdana', 'Geneva', 'Lucid', 'Arial', 'Helvetica', 'Avant Garde', sans-serif; text-anchor: middle" x="383.260625" y="559.104375" transform="rotate(-0 383.260625 559.104375)">Build Number</text>
    </g>
   </g>
   <g id="matplotlib.axis_2">
    <g id="ytick_1">
     <g id="line2d_11">
      <defs>
       <path id="m5809d82423" d="M 0 0 
L -2 0 
" style="stroke: #000000; stroke-width: 0.6"/>
      </defs>
      <g>
       <use xlink:href="#m5809d82423" x="64.41375" y="418.432278" style="stroke: #000000; stroke-width: 0.6"/>
      </g>
     </g>
     <g id="text_7">
      <!-- $\mathdefault{3\times10^{5}}$ -->
      <g transform="translate(22.81375 422.231497)">
       <text>
        <tspan style="font: 10px 'DejaVu Sans'" x="0 8.310547 18.637695 25" y="-0.06406250000000036">3×10</tspan>
        <tspan style="font: 7px 'DejaVu Sans'" x="31.458008" y="-3.8921875000000004">5</tspan>
       </text>
      </g>
     </g>
    </g>
    <g id="ytick_2">
     <g id="line2d_12">
      <g>
       <use xlink:href="#m5809d82423" x="64.41375" y="313.355466" style="stroke: #000000; stroke-width: 0.6"/>
      </g>
     </g>
     <g id="text_8">
      <!-- $\mathdefault{4\times10^{5}}$ -->
      <g transform="translate(22.81375 317.154684)">
       <text>
        <tspan style="font: 10px 'DejaVu Sans'" x="0 8.310547 18.637695 25" y="-0.06406250000000036">4×10</tspan>
        <tspan style="font: 7px 'DejaVu Sans'" x="31.458008" y="-3.8921875000000004">5</tspan>
       </text>
      </g>
     </g>
    </g>
    <g id="ytick_3">
     <g id="line2d_13">
      <g>
       <use xlink:href="#m5809d82423" x="64.41375" y="231.851558" style="stroke: #000000; stroke-width: 0.6"/>
      </g>
     </g>
    </g>
    <g id="ytick_4">
     <g id="line2d_14">
      <g>
       <use xlink:href="#m5809d82423" x="64.41375" y="165.258016" style="stroke: #000000; stroke-width: 0.6"/>
      </g>
     </g>
     <g id="text_9">
      <!-- $\mathdefault{6\times10^{5}}$ -->
      <g transform="translate(22.81375 169.057235)">
       <text>
        <tspan style="font: 10px 'DejaVu Sans'" x="0 8.310547 18.637695 25" y="-0.06406250000000036">6×10</tspan>
        <tspan style="font: 7px 'DejaVu Sans'" x="31.458008" y="-3.8921875000000004">5</tspan>
       </text>
      </g>
     </g>
    </g>
    <g id="ytick_5">
     <g id="line2d_15">
      <g>
       <use xlink:href="#m5809d82423" x="64.41375" y="108.953979" style="stroke: #000000; stroke-width: 0.6"/>
      </g>
     </g>
    </g>
    <g id="ytick_6">
     <g id="line2d_16">
      <g>
       <use xlink:href="#m5809d82423" x="64.41375" y="60.181203" style="stroke: #000000; stroke-width: 0.6"/>
      </g>
     </g>
    </g>
    <g id="text_10">
     <text style="font: 12px 'DejaVu Sans', 'Bitstream Vera Sans', 'Computer Modern Sans Serif', 'Lucida Grande', 'Verdana', 'Geneva', 'Lucid', 'Arial', 'Helvetica', 'Avant Garde', sans-serif; text-anchor: middle" x="16.318125" y="276.572969" transform="rotate(-90 16.318125 276.572969)">Median Elapsed Time (nanoseconds)</text>
    </g>
   </g>
   <g id="line2d_17">
    <path d="M 93.39983 482.850289 
L 106.881727 272.436851 
L 120.363624 291.181531 
L 133.845522 404.67794 
L 147.327419 274.444232 
L 160.809317 480.388037 
L 174.291214 403.415098 
L 187.773112 209.896651 
L 201.255009 266.582403 
L 214.736907 483.408849 
L 228.218804 434.397313 
L 241.700702 271.574978 
L 255.182599 458.880205 
L 268.664497 377.778124 
L 282.146394 346.820195 
L 295.628291 486.263933 
L 322.592086 428.787994 
L 336.073984 163.598126 
L 349.555881 402.372911 
L 363.037779 150.604352 
L 376.519676 351.252367 
L 390.001574 232.283323 
L 403.483471 488.047828 
L 416.965369 320.610852 
L 430.447266 486.408067 
L 443.929164 269.465911 
L 470.892959 455.460415 
L 484.374856 335.092602 
L 497.856753 488.506413 
L 511.338651 485.385114 
L 524.820548 305.041314 
L 538.302446 482.973904 
L 551.784343 486.423173 
L 565.266241 293.269601 
L 592.230036 285.422031 
L 605.711933 270.134725 
L 619.193831 376.863524 
L 632.675728 338.776936 
L 646.157626 483.284651 
L 673.12142 274.593658 
" clip-path="url(#p4ec4260127)" style="fill: none; stroke: #1f77b4; stroke-width: 2; stroke-linecap: square"/>
    <defs>
     <path id="m27aaa4a5f3" d="M 0 3 
C 0.795609 3 1.55874 2.683901 2.12132 2.12132 
C 2.683901 1.55874 3 0.795609 3 0 
C 3 -0.795609 2.683901 -1.55874 2.12132 -2.12132 
C 1.55874 -2.683901 0.795609 -3 0 -3 
C -0.795609 -3 -1.55874 -2.683901 -2.12132 -2.12132 
C -2.683901 -1.55874 -3 -0.795609 -3 0 
C -3 0.795609 -2.683901 1.55874 -2.12132 2.12132 
C -1.55874 2.683901 -0.795609 3 0 3 
z
" style="stroke: #1f77b4"/>
    </defs>
    <g clip-path="url(#p4ec4260127)">
     <use xlink:href="#m27aaa4a5f3" x="93.39983" y="482.850289" style="fill: #1f77b4; stroke: #1f77b4"/>
     <use xlink:href="#m27aaa4a5f3" x="106.881727" y="272.436851" style="fill: #1f77b4; stroke: #1f77b4"/>
     <use xlink:href="#m27aaa4a5f3" x="120.363624" y="291.181531" style="fill: #1f77b4; stroke: #1f77b4"/>
     <use xlink:href="#m27aaa4a5f3" x="133.845522" y="404.67794" style="fill: #1f77b4; stroke: #1f77b4"/>
     <use xlink:href="#m27aaa4a5f3" x="147.327419" y="274.444232" style="fill: #1f77b4; stroke: #1f77b4"/>
     <use xlink:href="#m27aaa4a5f3" x="160.809317" y="480.388037" style="fill: #1f77b4; stroke: #1f77b4"/>
     <use xlink:href="#m27aaa4a5f3" x="174.291214" y="403.415098" style="fill: #1f77b4; stroke: #1f77b4"/>
     <use xlink:href="#m27aaa4a5f3" x="187.773112" y="209.896651" style="fill: #1f77b4; stroke: #1f77b4"/>
     <use xlink:href="#m27aaa4a5f3" x="201.255009" y="266.582403" style="fill: #1f77b4; stroke: #1f77b4"/>
     <use xlink:href="#m27aaa4a5f3" x="214.736907" y="483.408849" style="fill: #1f77b4; stroke: #1f77b4"/>
     <use xlink:href="#m27aaa4a5f3" x="228.218804" y="434.397313" style="fill: #1f77b4; stroke: #1f77b4"/>
     <use xlink:href="#m27aaa4a5f3" x="241.700702" y="271.574978" style="fill: #1f77b4; stroke: #1f77b4"/>
     <use xlink:href="#m27aaa4a5f3" x="255.182599" y="458.880205" style="fill: #1f77b4; stroke: #1f77b4"/>
     <use xlink:href="#m27aaa4a5f3" x="268.664497" y="377.778124" style="fill: #1f77b4; stroke: #1f77b4"/>
     <use xlink:href="#m27aaa4a5f3" x="282.146394" y="346.820195" style="fill: #1f77b4; stroke: #1f77b4"/>
     <use xlink:href="#m27aaa4a5f3" x="295.628291" y="486.263933" style="fill: #1f77b4; stroke: #1f77b4"/>
     <use xlink:href="#m27aaa4a5f3" x="322.592086" y="428.787994" style="fill: #1f77b4; stroke: #1f77b4"/>
     <use xlink:href="#m27aaa4a5f3" x="336.073984" y="163.598126" style="fill: #1f77b4; stroke: #1f77b4"/>
     <use xlink:href="#m27aaa4a5f3" x="349.555881" y="402.372911" style="fill: #1f77b4; stroke: #1f77b4"/>
     <use xlink:href="#m27aaa4a5f3" x="363.037779" y="150.604352" style="fill: #1f77b4; stroke: #1f77b4"/>
     <use xlink:href="#m27aaa4a5f3" x="376.519676" y="351.252367" style="fill: #1f77b4; stroke: #1f77b4"/>
     <use xlink:href="#m27aaa4a5f3" x="390.001574" y="232.283323" style="fill: #1f77b4; stroke: #1f77b4"/>
     <use xlink:href="#m27aaa4a5f3" x="403.483471" y="488.047828" style="fill: #1f77b4; stroke: #1f77b4"/>
     <use xlink:href="#m27aaa4a5f3" x="416.965369" y="320.610852" style="fill: #1f77b4; stroke: #1f77b4"/>
     <use xlink:href="#m27aaa4a5f3" x="430.447266" y="486.408067" style="fill: #1f77b4; stroke: #1f77b4"/>
     <use xlink:href="#m27aaa4a5f3" x="443.929164" y="269.465911" style="fill: #1f77b4; stroke: #1f77b4"/>
     <use xlink:href="#m27aaa4a5f3" x="470.892959" y="455.460415" style="fill: #1f77b4; stroke: #1f77b4"/>
     <use xlink:href="#m27aaa4a5f3" x="484.374856" y="335.092602" style="fill: #1f77b4; stroke: #1f77b4"/>
     <use xlink:href="#m27aaa4a5f3" x="497.856753" y="488.506413" style="fill: #1f77b4; stroke: #1f77b4"/>
     <use xlink:href="#m27aaa4a5f3" x="511.338651" y="485.385114" style="fill: #1f77b4; stroke: #1f77b4"/>
     <use xlink:href="#m27aaa4a5f3" x="524.820548" y="305.041314" style="fill: #1f77b4; stroke: #1f77b4"/>
     <use xlink:href="#m27aaa4a5f3" x="538.302446" y="482.973904" style="fill: #1f77b4; stroke: #1f77b4"/>
     <use xlink:href="#m27aaa4a5f3" x="551.784343" y="486.423173" style="fill: #1f77b4; stroke: #1f77b4"/>
     <use xlink:href="#m27aaa4a5f3" x="565.266241" y="293.269601" style="fill: #1f77b4; stroke: #1f77b4"/>
     <use xlink:href="#m27aaa4a5f3" x="592.230036" y="285.422031" style="fill: #1f77b4; stroke: #1f77b4"/>
     <use xlink:href="#m27aaa4a5f3" x="605.711933" y="270.134725" style="fill: #1f77b4; stroke: #1f77b4"/>
     <use xlink:href="#m27aaa4a5f3" x="619.193831" y="376.863524" style="fill: #1f77b4; stroke: #1f77b4"/>
     <use xlink:href="#m27aaa4a5f3" x="632.675728" y="338.776936" style="fill: #1f77b4; stroke: #1f77b4"/>
     <use xlink:href="#m27aaa4a5f3" x="646.157626" y="483.284651" style="fill: #1f77b4; stroke: #1f77b4"/>
     <use xlink:href="#m27aaa4a5f3" x="673.12142" y="274.593658" style="fill: #1f77b4; stroke: #1f77b4"/>
    </g>
   </g>
   <g id="line2d_18">
    <path d="M 93.39983 484.429483 
L 106.881727 273.23866 
L 120.363624 279.681236 
L 133.845522 452.760906 
L 147.327419 331.118307 
L 160.809317 487.281563 
L 174.291214 484.461575 
L 187.773112 444.529556 
L 201.255009 368.538952 
L 214.736907 347.978192 
L 228.218804 323.343312 
L 241.700702 393.361259 
L 255.182599 481.201981 
L 268.664497 267.502545 
L 282.146394 312.085135 
L 295.628291 485.153681 
L 322.592086 486.306156 
L 336.073984 268.247336 
L 349.555881 494.089865 
L 363.037779 267.916435 
L 376.519676 339.643944 
L 390.001574 297.489416 
L 403.483471 484.179414 
L 416.965369 273.943769 
L 430.447266 487.849448 
L 443.929164 357.421159 
L 470.892959 499.926294 
L 484.374856 370.18609 
L 497.856753 494.45834 
L 511.338651 419.072519 
L 524.820548 361.972468 
L 538.302446 502.032811 
L 551.784343 489.379773 
L 565.266241 256.471423 
L 592.230036 226.931571 
L 605.711933 287.340833 
L 619.193831 301.328628 
L 632.675728 445.801924 
L 646.157626 389.61417 
L 673.12142 282.127339 
" clip-path="url(#p4ec4260127)" style="fill: none; stroke: #ff7f0e; stroke-width: 2; stroke-linecap: square"/>
    <defs>
     <path id="m74882e4c11" d="M 0 3 
C 0.795609 3 1.55874 2.683901 2.12132 2.12132 
C 2.683901 1.55874 3 0.795609 3 0 
C 3 -0.795609 2.683901 -1.55874 2.12132 -2.12132 
C 1.55874 -2.683901 0.795609 -3 0 -3 
C -0.795609 -3 -1.55874 -2.683901 -2.12132 -2.12132 
C -2.683901 -1.55874 -3 -0.795609 -3 0 
C -3 0.795609 -2.683901 1.55874 -2.12132 2.12132 
C -1.55874 2.683901 -0.795609 3 0 3 
z
" style="stroke: #ff7f0e"/>
    </defs>
    <g clip-path="url(#p4ec4260127)">
     <use xlink:href="#m74882e4c11" x="93.39983" y="484.429483" style="fill: #ff7f0e; stroke: #ff7f0e"/>
     <use xlink:href="#m74882e4c11" x="106.881727" y="273.23866" style="fill: #ff7f0e; stroke: #ff7f0e"/>
     <use xlink:href="#m74882e4c11" x="120.363624" y="279.681236" style="fill: #ff7f0e; stroke: #ff7f0e"/>
     <use xlink:href="#m74882e4c11" x="133.845522" y="452.760906" style="fill: #ff7f0e; stroke: #ff7f0e"/>
     <use xlink:href="#m74882e4c11" x="147.327419" y="331.118307" style="fill: #ff7f0e; stroke: #ff7f0e"/>
     <use xlink:href="#m74882e4c11" x="160.809317" y="487.281563" style="fill: #ff7f0e; stroke: #ff7f0e"/>
     <use xlink:href="#m74882e4c11" x="174.291214" y="484.461575" style="fill: #ff7f0e; stroke: #ff7f0e"/>
     <use xlink:href="#m74882e4c11" x="187.773112" y="444.529556" style="fill: #ff7f0e; stroke: #ff7f0e"/>
     <use xlink:href="#m74882e4c11" x="201.255009" y="368.538952" style="fill: #ff7f0e; stroke: #ff7f0e"/>
     <use xlink:href="#m74882e4c11" x="214.736907" y="347.978192" style="fill: #ff7f0e; stroke: #ff7f0e"/>
     <use xlink:href="#m74882e4c11" x="228.218804" y="323.343312" style="fill: #ff7f0e; stroke: #ff7f0e"/>
     <use xlink:href="#m74882e4c11" x="241.700702" y="393.361259" style="fill: #ff7f0e; stroke: #ff7f0e"/>
     <use xlink:href="#m74882e4c11" x="255.182599" y="481.201981" style="fill: #ff7f0e; stroke: #ff7f0e"/>
     <use xlink:href="#m74882e4c11" x="268.664497" y="267.502545" style="fill: #ff7f0e; stroke: #ff7f0e"/>
     <use xlink:href="#m74882e4c11" x="282.146394" y="312.085135" style="fill: #ff7f0e; stroke: #ff7f0e"/>
     <use xlink:href="#m74882e4c11" x="295.628291" y="485.153681" style="fill: #ff7f0e; stroke: #ff7f0e"/>
     <use xlink:href="#m74882e4c11" x="322.592086" y="486.306156" style="fill: #ff7f0e; stroke: #ff7f0e"/>
     <use xlink:href="#m74882e4c11" x="336.073984" y="268.247336" style="fill: #ff7f0e; stroke: #ff7f0e"/>
     <use xlink:href="#m74882e4c11" x="349.555881" y="494.089865" style="fill: #ff7f0e; stroke: #ff7f0e"/>
     <use xlink:href="#m74882e4c11" x="363.037779" y="267.916435" style="fill: #ff7f0e; stroke: #ff7f0e"/>
     <use xlink:href="#m74882e4c11" x="376.519676" y="339.643944" style="fill: #ff7f0e; stroke: #ff7f0e"/>
     <use xlink:href="#m74882e4c11" x="390.001574" y="297.489416" style="fill: #ff7f0e; stroke: #ff7f0e"/>
     <use xlink:href="#m74882e4c11" x="403.483471" y="484.179414" style="fill: #ff7f0e; stroke: #ff7f0e"/>
     <use xlink:href="#m74882e4c11" x="416.965369" y="273.943769" style="fill: #ff7f0e; stroke: #ff7f0e"/>
     <use xlink:href="#m74882e4c11" x="430.447266" y="487.849448" style="fill: #ff7f0e; stroke: #ff7f0e"/>
     <use xlink:href="#m74882e4c11" x="443.929164" y="357.421159" style="fill: #ff7f0e; stroke: #ff7f0e"/>
     <use xlink:href="#m74882e4c11" x="470.892959" y="499.926294" style="fill: #ff7f0e; stroke: #ff7f0e"/>
     <use xlink:href="#m74882e4c11" x="484.374856" y="370.18609" style="fill: #ff7f0e; stroke: #ff7f0e"/>
     <use xlink:href="#m74882e4c11" x="497.856753" y="494.45834" style="fill: #ff7f0e; stroke: #ff7f0e"/>
     <use xlink:href="#m74882e4c11" x="511.338651" y="419.072519" style="fill: #ff7f0e; stroke: #ff7f0e"/>
     <use xlink:href="#m74882e4c11" x="524.820548" y="361.972468" style="fill: #ff7f0e; stroke: #ff7f0e"/>
     <use xlink:href="#m74882e4c11" x="538.302446" y="502.032811" style="fill: #ff7f0e; stroke: #ff7f0e"/>
     <use xlink:href="#m74882e4c11" x="551.784343" y="489.379773" style="fill: #ff7f0e; stroke: #ff7f0e"/>
     <use xlink:href="#m74882e4c11" x="565.266241" y="256.471423" style="fill: #ff7f0e; stroke: #ff7f0e"/>
     <use xlink:href="#m74882e4c11" x="592.230036" y="226.931571" style="fill: #ff7f0e; stroke: #ff7f0e"/>
     <use xlink:href="#m74882e4c11" x="605.711933" y="287.340833" style="fill: #ff7f0e; stroke: #ff7f0e"/>
     <use xlink:href="#m74882e4c11" x="619.193831" y="301.328628" style="fill: #ff7f0e; stroke: #ff7f0e"/>
     <use xlink:href="#m74882e4c11" x="632.675728" y="445.801924" style="fill: #ff7f0e; stroke: #ff7f0e"/>
     <use xlink:href="#m74882e4c11" x="646.157626" y="389.61417" style="fill: #ff7f0e; stroke: #ff7f0e"/>
     <use xlink:href="#m74882e4c11" x="673.12142" y="282.127339" style="fill: #ff7f0e; stroke: #ff7f0e"/>
    </g>
   </g>
   <g id="line2d_19">
    <path d="M 93.39983 500.025989 
L 106.881727 385.907026 
L 120.363624 256.308997 
L 133.845522 498.159903 
L 147.327419 472.697249 
L 160.809317 496.118462 
L 174.291214 494.75831 
L 187.773112 498.403517 
L 201.255009 498.335325 
L 214.736907 491.245114 
L 228.218804 497.031826 
L 241.700702 496.976117 
L 255.182599 497.20429 
L 268.664497 399.782922 
L 282.146394 489.423688 
L 295.628291 498.200645 
L 322.592086 494.561352 
L 336.073984 459.375612 
L 349.555881 497.056437 
L 363.037779 392.39891 
L 376.519676 449.214439 
L 390.001574 358.806025 
L 403.483471 477.072647 
L 416.965369 257.354819 
L 430.447266 494.117573 
L 443.929164 353.949086 
L 470.892959 499.269751 
L 484.374856 389.980137 
L 497.856753 498.922495 
L 511.338651 395.696534 
L 524.820548 404.364427 
L 538.302446 497.0886 
L 551.784343 497.781321 
L 565.266241 332.998521 
L 592.230036 395.540063 
L 605.711933 311.496772 
L 619.193831 388.335773 
L 632.675728 485.51076 
L 646.157626 370.244452 
L 673.12142 406.001643 
" clip-path="url(#p4ec4260127)" style="fill: none; stroke: #2ca02c; stroke-width: 2; stroke-linecap: square"/>
    <defs>
     <path id="mc29f21aded" d="M 0 3 
C 0.795609 3 1.55874 2.683901 2.12132 2.12132 
C 2.683901 1.55874 3 0.795609 3 0 
C 3 -0.795609 2.683901 -1.55874 2.12132 -2.12132 
C 1.55874 -2.683901 0.795609 -3 0 -3 
C -0.795609 -3 -1.55874 -2.683901 -2.12132 -2.12132 
C -2.683901 -1.55874 -3 -0.795609 -3 0 
C -3 0.795609 -2.683901 1.55874 -2.12132 2.12132 
C -1.55874 2.683901 -0.795609 3 0 3 
z
" style="stroke: #2ca02c"/>
    </defs>
    <g clip-path="url(#p4ec4260127)">
     <use xlink:href="#mc29f21aded" x="93.39983" y="500.025989" style="fill: #2ca02c; stroke: #2ca02c"/>
     <use xlink:href="#mc29f21aded" x="106.881727" y="385.907026" style="fill: #2ca02c; stroke: #2ca02c"/>
     <use xlink:href="#mc29f21aded" x="120.363624" y="256.308997" style="fill: #2ca02c; stroke: #2ca02c"/>
     <use xlink:href="#mc29f21aded" x="133.845522" y="498.159903" style="fill: #2ca02c; stroke: #2ca02c"/>
     <use xlink:href="#mc29f21aded" x="147.327419" y="472.697249" style="fill: #2ca02c; stroke: #2ca02c"/>
     <use xlink:href="#mc29f21aded" x="160.809317" y="496.118462" style="fill: #2ca02c; stroke: #2ca02c"/>
     <use xlink:href="#mc29f21aded" x="174.291214" y="494.75831" style="fill: #2ca02c; stroke: #2ca02c"/>
     <use xlink:href="#mc29f21aded" x="187.773112" y="498.403517" style="fill: #2ca02c; stroke: #2ca02c"/>
     <use xlink:href="#mc29f21aded" x="201.255009" y="498.335325" style="fill: #2ca02c; stroke: #2ca02c"/>
     <use xlink:href="#mc29f21aded" x="214.736907" y="491.245114" style="fill: #2ca02c; stroke: #2ca02c"/>
     <use xlink:href="#mc29f21aded" x="228.218804" y="497.031826" style="fill: #2ca02c; stroke: #2ca02c"/>
     <use xlink:href="#mc29f21aded" x="241.700702" y="496.976117" style="fill: #2ca02c; stroke: #2ca02c"/>
     <use xlink:href="#mc29f21aded" x="255.182599" y="497.20429" style="fill: #2ca02c; stroke: #2ca02c"/>
     <use xlink:href="#mc29f21aded" x="268.664497" y="399.782922" style="fill: #2ca02c; stroke: #2ca02c"/>
     <use xlink:href="#mc29f21aded" x="282.146394" y="489.423688" style="fill: #2ca02c; stroke: #2ca02c"/>
     <use xlink:href="#mc29f21aded" x="295.628291" y="498.200645" style="fill: #2ca02c; stroke: #2ca02c"/>
     <use xlink:href="#mc29f21aded" x="322.592086" y="494.561352" style="fill: #2ca02c; stroke: #2ca02c"/>
     <use xlink:href="#mc29f21aded" x="336.073984" y="459.375612" style="fill: #2ca02c; stroke: #2ca02c"/>
     <use xlink:href="#mc29f21aded" x="349.555881" y="497.056437" style="fill: #2ca02c; stroke: #2ca02c"/>
     <use xlink:href="#mc29f21aded" x="363.037779" y="392.39891" style="fill: #2ca02c; stroke: #2ca02c"/>
     <use xlink:href="#mc29f21aded" x="376.519676" y="449.214439" style="fill: #2ca02c; stroke: #2ca02c"/>
     <use xlink:href="#mc29f21aded" x="390.001574" y="358.806025" style="fill: #2ca02c; stroke: #2ca02c"/>
     <use xlink:href="#mc29f21aded" x="403.483471" y="477.072647" style="fill: #2ca02c; stroke: #2ca02c"/>
     <use xlink:href="#mc29f21aded" x="416.965369" y="257.354819" style="fill: #2ca02c; stroke: #2ca02c"/>
     <use xlink:href="#mc29f21aded" x="430.447266" y="494.117573" style="fill: #2ca02c; stroke: #2ca02c"/>
     <use xlink:href="#mc29f21aded" x="443.929164" y="353.949086" style="fill: #2ca02c; stroke: #2ca02c"/>
     <use xlink:href="#mc29f21aded" x="470.892959" y="499.269751" style="fill: #2ca02c; stroke: #2ca02c"/>
     <use xlink:href="#mc29f21aded" x="484.374856" y="389.980137" style="fill: #2ca02c; stroke: #2ca02c"/>
     <use xlink:href="#mc29f21aded" x="497.856753" y="498.922495" style="fill: #2ca02c; stroke: #2ca02c"/>
     <use xlink:href="#mc29f21aded" x="511.338651" y="395.696534" style="fill: #2ca02c; stroke: #2ca02c"/>
     <use xlink:href="#mc29f21aded" x="524.820548" y="404.364427" style="fill: #2ca02c; stroke: #2ca02c"/>
     <use xlink:href="#mc29f21aded" x="538.302446" y="497.0886" style="fill: #2ca02c; stroke: #2ca02c"/>
     <use xlink:href="#mc29f21aded" x="551.784343" y="497.781321" style="fill: #2ca02c; stroke: #2ca02c"/>
     <use xlink:href="#mc29f21aded" x="565.266241" y="332.998521" style="fill: #2ca02c; stroke: #2ca02c"/>
     <use xlink:href="#mc29f21aded" x="592.230036" y="395.540063" style="fill: #2ca02c; stroke: #2ca02c"/>
     <use xlink:href="#mc29f21aded" x="605.711933" y="311.496772" style="fill: #2ca02c; stroke: #2ca02c"/>
     <use xlink:href="#mc29f21aded" x="619.193831" y="388.335773" style="fill: #2ca02c; stroke: #2ca02c"/>
     <use xlink:href="#mc29f21aded" x="632.675728" y="485.51076" style="fill: #2ca02c; stroke: #2ca02c"/>
     <use xlink:href="#mc29f21aded" x="646.157626" y="370.244452" style="fill: #2ca02c; stroke: #2ca02c"/>
     <use xlink:href="#mc29f21aded" x="673.12142" y="406.001643" style="fill: #2ca02c; stroke: #2ca02c"/>
    </g>
   </g>
   <g id="line2d_20">
    <path d="M 93.39983 501.345584 
L 106.881727 499.20322 
L 120.363624 504.463285 
L 133.845522 503.899608 
L 147.327419 287.057348 
L 160.809317 289.092086 
L 174.291214 505.211372 
L 187.773112 403.387407 
L 201.255009 498.273054 
L 214.736907 501.308766 
L 228.218804 503.970848 
L 241.700702 501.776211 
L 255.182599 54.121967 
L 282.146394 459.96144 
L 295.628291 500.917142 
L 322.592086 501.488611 
L 336.073984 505.715691 
L 349.555881 90.419902 
L 363.037779 505.174317 
L 376.519676 504.923833 
L 403.483471 504.988174 
L 416.965369 504.764804 
L 430.447266 503.416534 
L 443.929164 506.124725 
L 470.892959 506.332202 
L 484.374856 283.32809 
L 497.856753 503.340948 
L 511.338651 505.580272 
L 524.820548 503.448647 
L 538.302446 505.665753 
L 551.784343 473.678574 
L 565.266241 504.881562 
L 592.230036 385.995694 
L 605.711933 505.442586 
L 619.193831 46.813736 
L 646.157626 487.533177 
" clip-path="url(#p4ec4260127)" style="fill: none; stroke: #d62728; stroke-width: 2; stroke-linecap: square"/>
    <defs>
     <path id="mb8537b1a12" d="M 0 3 
C 0.795609 3 1.55874 2.683901 2.12132 2.12132 
C 2.683901 1.55874 3 0.795609 3 0 
C 3 -0.795609 2.683901 -1.55874 2.12132 -2.12132 
C 1.55874 -2.683901 0.795609 -3 0 -3 
C -0.795609 -3 -1.55874 -2.683901 -2.12132 -2.12132 
C -2.683901 -1.55874 -3 -0.795609 -3 0 
C -3 0.795609 -2.683901 1.55874 -2.12132 2.12132 
C -1.55874 2.683901 -0.795609 3 0 3 
z
" style="stroke: #d62728"/>
    </defs>
    <g clip-path="url(#p4ec4260127)">
     <use xlink:href="#mb8537b1a12" x="93.39983" y="501.345584" style="fill: #d62728; stroke: #d62728"/>
     <use xlink:href="#mb8537b1a12" x="106.881727" y="499.20322" style="fill: #d62728; stroke: #d62728"/>
     <use xlink:href="#mb8537b1a12" x="120.363624" y="504.463285" style="fill: #d62728; stroke: #d62728"/>
     <use xlink:href="#mb8537b1a12" x="133.845522" y="503.899608" style="fill: #d62728; stroke: #d62728"/>
     <use xlink:href="#mb8537b1a12" x="147.327419" y="287.057348" style="fill: #d62728; stroke: #d62728"/>
     <use xlink:href="#mb8537b1a12" x="160.809317" y="289.092086" style="fill: #d62728; stroke: #d62728"/>
     <use xlink:href="#mb8537b1a12" x="174.291214" y="505.211372" style="fill: #d62728; stroke: #d62728"/>
     <use xlink:href="#mb8537b1a12" x="187.773112" y="403.387407" style="fill: #d62728; stroke: #d62728"/>
     <use xlink:href="#mb8537b1a12" x="201.255009" y="498.273054" style="fill: #d62728; stroke: #d62728"/>
     <use xlink:href="#mb8537b1a12" x="214.736907" y="501.308766" style="fill: #d62728; stroke: #d62728"/>
     <use xlink:href="#mb8537b1a12" x="228.218804" y="503.970848" style="fill: #d62728; stroke: #d62728"/>
     <use xlink:href="#mb8537b1a12" x="241.700702" y="501.776211" style="fill: #d62728; stroke: #d62728"/>
     <use xlink:href="#mb8537b1a12" x="255.182599" y="54.121967" style="fill: #d62728; stroke: #d62728"/>
     <use xlink:href="#mb8537b1a12" x="282.146394" y="459.96144" style="fill: #d62728; stroke: #d62728"/>
     <use xlink:href="#mb8537b1a12" x="295.628291" y="500.917142" style="fill: #d62728; stroke: #d62728"/>
     <use xlink:href="#mb8537b1a12" x="322.592086" y="501.488611" style="fill: #d62728; stroke: #d62728"/>
     <use xlink:href="#mb8537b1a12" x="336.073984" y="505.715691" style="fill: #d62728; stroke: #d62728"/>
     <use xlink:href="#mb8537b1a12" x="349.555881" y="90.419902" style="fill: #d62728; stroke: #d62728"/>
     <use xlink:href="#mb8537b1a12" x="363.037779" y="505.174317" style="fill: #d62728; stroke: #d62728"/>
     <use xlink:href="#mb8537b1a12" x="376.519676" y="504.923833" style="fill: #d62728; stroke: #d62728"/>
     <use xlink:href="#mb8537b1a12" x="403.483471" y="504.988174" style="fill: #d62728; stroke: #d62728"/>
     <use xlink:href="#mb8537b1a12" x="416.965369" y="504.764804" style="fill: #d62728; stroke: #d62728"/>
     <use xlink:href="#mb8537b1a12" x="430.447266" y="503.416534" style="fill: #d62728; stroke: #d62728"/>
     <use xlink:href="#mb8537b1a12" x="443.929164" y="506.124725" style="fill: #d62728; stroke: #d62728"/>
     <use xlink:href="#mb8537b1a12" x="470.892959" y="506.332202" style="fill: #d62728; stroke: #d62728"/>
     <use xlink:href="#mb8537b1a12" x="484.374856" y="283.32809" style="fill: #d62728; stroke: #d62728"/>
     <use xlink:href="#mb8537b1a12" x="497.856753" y="503.340948" style="fill: #d62728; stroke: #d62728"/>
     <use xlink:href="#mb8537b1a12" x="511.338651" y="505.580272" style="fill: #d62728; stroke: #d62728"/>
     <use xlink:href="#mb8537b1a12" x="524.820548" y="503.448647" style="fill: #d62728; stroke: #d62728"/>
     <use xlink:href="#mb8537b1a12" x="538.302446" y="505.665753" style="fill: #d62728; stroke: #d62728"/>
     <use xlink:href="#mb8537b1a12" x="551.784343" y="473.678574" style="fill: #d62728; stroke: #d62728"/>
     <use xlink:href="#mb8537b1a12" x="565.266241" y="504.881562" style="fill: #d62728; stroke: #d62728"/>
     <use xlink:href="#mb8537b1a12" x="592.230036" y="385.995694" style="fill: #d62728; stroke: #d62728"/>
     <use xlink:href="#mb8537b1a12" x="605.711933" y="505.442586" style="fill: #d62728; stroke: #d62728"/>
     <use xlink:href="#mb8537b1a12" x="619.193831" y="46.813736" style="fill: #d62728; stroke: #d62728"/>
     <use xlink:href="#mb8537b1a12" x="646.157626" y="487.533177" style="fill: #d62728; stroke: #d62728"/>
    </g>
   </g>
   <g id="line2d_21">
    <path d="M 93.39983 494.287468 
L 106.881727 460.34291 
L 120.363624 497.148555 
L 133.845522 489.888002 
L 147.327419 357.435479 
L 160.809317 175.355364 
L 174.291214 500.809271 
L 187.773112 469.835281 
L 201.255009 357.932505 
L 214.736907 496.80195 
L 228.218804 503.043979 
L 241.700702 501.145348 
L 255.182599 190.095553 
L 282.146394 172.651408 
L 295.628291 501.990414 
L 322.592086 497.780565 
L 336.073984 500.130736 
L 349.555881 277.22899 
L 363.037779 489.276733 
L 376.519676 495.372066 
L 403.483471 500.519993 
L 416.965369 495.767115 
L 430.447266 504.224067 
L 443.929164 502.823941 
L 470.892959 504.749845 
L 484.374856 285.908071 
L 497.856753 505.827186 
L 511.338651 503.060249 
L 524.820548 503.627243 
L 538.302446 505.518609 
L 551.784343 468.937465 
L 565.266241 501.670074 
L 592.230036 505.601757 
L 605.711933 504.609235 
L 619.193831 285.85251 
L 646.157626 502.832225 
" clip-path="url(#p4ec4260127)" style="fill: none; stroke: #9467bd; stroke-width: 2; stroke-linecap: square"/>
    <defs>
     <path id="md74ddf1597" d="M 0 3 
C 0.795609 3 1.55874 2.683901 2.12132 2.12132 
C 2.683901 1.55874 3 0.795609 3 0 
C 3 -0.795609 2.683901 -1.55874 2.12132 -2.12132 
C 1.55874 -2.683901 0.795609 -3 0 -3 
C -0.795609 -3 -1.55874 -2.683901 -2.12132 -2.12132 
C -2.683901 -1.55874 -3 -0.795609 -3 0 
C -3 0.795609 -2.683901 1.55874 -2.12132 2.12132 
C -1.55874 2.683901 -0.795609 3 0 3 
z
" style="stroke: #9467bd"/>
    </defs>
    <g clip-path="url(#p4ec4260127)">
     <use xlink:href="#md74ddf1597" x="93.39983" y="494.287468" style="fill: #9467bd; stroke: #9467bd"/>
     <use xlink:href="#md74ddf1597" x="106.881727" y="460.34291" style="fill: #9467bd; stroke: #9467bd"/>
     <use xlink:href="#md74ddf1597" x="120.363624" y="497.148555" style="fill: #9467bd; stroke: #9467bd"/>
     <use xlink:href="#md74ddf1597" x="133.845522" y="489.888002" style="fill: #9467bd; stroke: #9467bd"/>
     <use xlink:href="#md74ddf1597" x="147.327419" y="357.435479" style="fill: #9467bd; stroke: #9467bd"/>
     <use xlink:href="#md74ddf1597" x="160.809317" y="175.355364" style="fill: #9467bd; stroke: #9467bd"/>
     <use xlink:href="#md74ddf1597" x="174.291214" y="500.809271" style="fill: #9467bd; stroke: #9467bd"/>
     <use xlink:href="#md74ddf1597" x="187.773112" y="469.835281" style="fill: #9467bd; stroke: #9467bd"/>
     <use xlink:href="#md74ddf1597" x="201.255009" y="357.932505" style="fill: #9467bd; stroke: #9467bd"/>
     <use xlink:href="#md74ddf1597" x="214.736907" y="496.80195" style="fill: #9467bd; stroke: #9467bd"/>
     <use xlink:href="#md74ddf1597" x="228.218804" y="503.043979" style="fill: #9467bd; stroke: #9467bd"/>
     <use xlink:href="#md74ddf1597" x="241.700702" y="501.145348" style="fill: #9467bd; stroke: #9467bd"/>
     <use xlink:href="#md74ddf1597" x="255.182599" y="190.095553" style="fill: #9467bd; stroke: #9467bd"/>
     <use xlink:href="#md74ddf1597" x="282.146394" y="172.651408" style="fill: #9467bd; stroke: #9467bd"/>
     <use xlink:href="#md74ddf1597" x="295.628291" y="501.990414" style="fill: #9467bd; stroke: #9467bd"/>
     <use xlink:href="#md74ddf1597" x="322.592086" y="497.780565" style="fill: #9467bd; stroke: #9467bd"/>
     <use xlink:href="#md74ddf1597" x="336.073984" y="500.130736" style="fill: #9467bd; stroke: #9467bd"/>
     <use xlink:href="#md74ddf1597" x="349.555881" y="277.22899" style="fill: #9467bd; stroke: #9467bd"/>
     <use xlink:href="#md74ddf1597" x="363.037779" y="489.276733" style="fill: #9467bd; stroke: #9467bd"/>
     <use xlink:href="#md74ddf1597" x="376.519676" y="495.372066" style="fill: #9467bd; stroke: #9467bd"/>
     <use xlink:href="#md74ddf1597" x="403.483471" y="500.519993" style="fill: #9467bd; stroke: #9467bd"/>
     <use xlink:href="#md74ddf1597" x="416.965369" y="495.767115" style="fill: #9467bd; stroke: #9467bd"/>
     <use xlink:href="#md74ddf1597" x="430.447266" y="504.224067" style="fill: #9467bd; stroke: #9467bd"/>
     <use xlink:href="#md74ddf1597" x="443.929164" y="502.823941" style="fill: #9467bd; stroke: #9467bd"/>
     <use xlink:href="#md74ddf1597" x="470.892959" y="504.749845" style="fill: #9467bd; stroke: #9467bd"/>
     <use xlink:href="#md74ddf1597" x="484.374856" y="285.908071" style="fill: #9467bd; stroke: #9467bd"/>
     <use xlink:href="#md74ddf1597" x="497.856753" y="505.827186" style="fill: #9467bd; stroke: #9467bd"/>
     <use xlink:href="#md74ddf1597" x="511.338651" y="503.060249" style="fill: #9467bd; stroke: #9467bd"/>
     <use xlink:href="#md74ddf1597" x="524.820548" y="503.627243" style="fill: #9467bd; stroke: #9467bd"/>
     <use xlink:href="#md74ddf1597" x="538.302446" y="505.518609" style="fill: #9467bd; stroke: #9467bd"/>
     <use xlink:href="#md74ddf1597" x="551.784343" y="468.937465" style="fill: #9467bd; stroke: #9467bd"/>
     <use xlink:href="#md74ddf1597" x="565.266241" y="501.670074" style="fill: #9467bd; stroke: #9467bd"/>
     <use xlink:href="#md74ddf1597" x="592.230036" y="505.601757" style="fill: #9467bd; stroke: #9467bd"/>
     <use xlink:href="#md74ddf1597" x="605.711933" y="504.609235" style="fill: #9467bd; stroke: #9467bd"/>
     <use xlink:href="#md74ddf1597" x="619.193831" y="285.85251" style="fill: #9467bd; stroke: #9467bd"/>
     <use xlink:href="#md74ddf1597" x="646.157626" y="502.832225" style="fill: #9467bd; stroke: #9467bd"/>
    </g>
   </g>
   <g id="line2d_22">
    <path d="M 93.39983 364.913717 
L 106.881727 358.358623 
L 120.363624 363.909377 
L 133.845522 366.352254 
L 147.327419 357.748297 
L 160.809317 360.290015 
L 174.291214 466.291742 
L 187.773112 461.426709 
L 201.255009 359.706311 
L 214.736907 363.793307 
L 228.218804 366.147396 
L 241.700702 364.70504 
L 255.182599 403.598594 
L 282.146394 304.686863 
L 295.628291 363.080915 
L 322.592086 364.628012 
L 336.073984 363.007786 
L 349.555881 438.286838 
L 363.037779 393.483935 
L 376.519676 363.070452 
L 403.483471 465.507828 
L 416.965369 296.788363 
L 430.447266 363.659352 
L 443.929164 362.276146 
L 470.892959 466.599306 
L 484.374856 457.205838 
L 497.856753 394.032213 
L 511.338651 365.818977 
L 524.820548 362.663991 
L 538.302446 361.0387 
L 551.784343 427.206728 
L 565.266241 363.095878 
L 592.230036 466.311035 
L 605.711933 365.069698 
L 619.193831 464.843083 
L 646.157626 421.870836 
" clip-path="url(#p4ec4260127)" style="fill: none; stroke: #8c564b; stroke-width: 2; stroke-linecap: square"/>
    <defs>
     <path id="mf02670cb17" d="M 0 3 
C 0.795609 3 1.55874 2.683901 2.12132 2.12132 
C 2.683901 1.55874 3 0.795609 3 0 
C 3 -0.795609 2.683901 -1.55874 2.12132 -2.12132 
C 1.55874 -2.683901 0.795609 -3 0 -3 
C -0.795609 -3 -1.55874 -2.683901 -2.12132 -2.12132 
C -2.683901 -1.55874 -3 -0.795609 -3 0 
C -3 0.795609 -2.683901 1.55874 -2.12132 2.12132 
C -1.55874 2.683901 -0.795609 3 0 3 
z
" style="stroke: #8c564b"/>
    </defs>
    <g clip-path="url(#p4ec4260127)">
     <use xlink:href="#mf02670cb17" x="93.39983" y="364.913717" style="fill: #8c564b; stroke: #8c564b"/>
     <use xlink:href="#mf02670cb17" x="106.881727" y="358.358623" style="fill: #8c564b; stroke: #8c564b"/>
     <use xlink:href="#mf02670cb17" x="120.363624" y="363.909377" style="fill: #8c564b; stroke: #8c564b"/>
     <use xlink:href="#mf02670cb17" x="133.845522" y="366.352254" style="fill: #8c564b; stroke: #8c564b"/>
     <use xlink:href="#mf02670cb17" x="147.327419" y="357.748297" style="fill: #8c564b; stroke: #8c564b"/>
     <use xlink:href="#mf02670cb17" x="160.809317" y="360.290015" style="fill: #8c564b; stroke: #8c564b"/>
     <use xlink:href="#mf02670cb17" x="174.291214" y="466.291742" style="fill: #8c564b; stroke: #8c564b"/>
     <use xlink:href="#mf02670cb17" x="187.773112" y="461.426709" style="fill: #8c564b; stroke: #8c564b"/>
     <use xlink:href="#mf02670cb17" x="201.255009" y="359.706311" style="fill: #8c564b; stroke: #8c564b"/>
     <use xlink:href="#mf02670cb17" x="214.736907" y="363.793307" style="fill: #8c564b; stroke: #8c564b"/>
     <use xlink:href="#mf02670cb17" x="228.218804" y="366.147396" style="fill: #8c564b; stroke: #8c564b"/>
     <use xlink:href="#mf02670cb17" x="241.700702" y="364.70504" style="fill: #8c564b; stroke: #8c564b"/>
     <use xlink:href="#mf02670cb17" x="255.182599" y="403.598594" style="fill: #8c564b; stroke: #8c564b"/>
     <use xlink:href="#mf02670cb17" x="282.146394" y="304.686863" style="fill: #8c564b; stroke: #8c564b"/>
     <use xlink:href="#mf02670cb17" x="295.628291" y="363.080915" style="fill: #8c564b; stroke: #8c564b"/>
     <use xlink:href="#mf02670cb17" x="322.592086" y="364.628012" style="fill: #8c564b; stroke: #8c564b"/>
     <use xlink:href="#mf02670cb17" x="336.073984" y="363.007786" style="fill: #8c564b; stroke: #8c564b"/>
     <use xlink:href="#mf02670cb17" x="349.555881" y="438.286838" style="fill: #8c564b; stroke: #8c564b"/>
     <use xlink:href="#mf02670cb17" x="363.037779" y="393.483935" style="fill: #8c564b; stroke: #8c564b"/>
     <use xlink:href="#mf02670cb17" x="376.519676" y="363.070452" style="fill: #8c564b; stroke: #8c564b"/>
     <use xlink:href="#mf02670cb17" x="403.483471" y="465.507828" style="fill: #8c564b; stroke: #8c564b"/>
     <use xlink:href="#mf02670cb17" x="416.965369" y="296.788363" style="fill: #8c564b; stroke: #8c564b"/>
     <use xlink:href="#mf02670cb17" x="430.447266" y="363.659352" style="fill: #8c564b; stroke: #8c564b"/>
     <use xlink:href="#mf02670cb17" x="443.929164" y="362.276146" style="fill: #8c564b; stroke: #8c564b"/>
     <use xlink:href="#mf02670cb17" x="470.892959" y="466.599306" style="fill: #8c564b; stroke: #8c564b"/>
     <use xlink:href="#mf02670cb17" x="484.374856" y="457.205838" style="fill: #8c564b; stroke: #8c564b"/>
     <use xlink:href="#mf02670cb17" x="497.856753" y="394.032213" style="fill: #8c564b; stroke: #8c564b"/>
     <use xlink:href="#mf02670cb17" x="511.338651" y="365.818977" style="fill: #8c564b; stroke: #8c564b"/>
     <use xlink:href="#mf02670cb17" x="524.820548" y="362.663991" style="fill: #8c564b; stroke: #8c564b"/>
     <use xlink:href="#mf02670cb17" x="538.302446" y="361.0387" style="fill: #8c564b; stroke: #8c564b"/>
     <use xlink:href="#mf02670cb17" x="551.784343" y="427.206728" style="fill: #8c564b; stroke: #8c564b"/>
     <use xlink:href="#mf02670cb17" x="565.266241" y="363.095878" style="fill: #8c564b; stroke: #8c564b"/>
     <use xlink:href="#mf02670cb17" x="592.230036" y="466.311035" style="fill: #8c564b; stroke: #8c564b"/>
     <use xlink:href="#mf02670cb17" x="605.711933" y="365.069698" style="fill: #8c564b; stroke: #8c564b"/>
     <use xlink:href="#mf02670cb17" x="619.193831" y="464.843083" style="fill: #8c564b; stroke: #8c564b"/>
     <use xlink:href="#mf02670cb17" x="646.157626" y="421.870836" style="fill: #8c564b; stroke: #8c564b"/>
    </g>
   </g>
   <g id="patch_3">
    <path d="M 64.41375 529.308125 
L 64.41375 23.837812 
" style="fill: none; stroke: #000000; stroke-width: 0.8; stroke-linejoin: miter; stroke-linecap: square"/>
   </g>
   <g id="patch_4">
    <path d="M 702.1075 529.308125 
L 702.1075 23.837812 
" style="fill: none; stroke: #000000; stroke-width: 0.8; stroke-linejoin: miter; stroke-linecap: square"/>
   </g>
   <g id="patch_5">
    <path d="M 64.41375 529.308125 
L 702.1075 529.308125 
" style="fill: none; stroke: #000000; stroke-width: 0.8; stroke-linejoin: miter; stroke-linecap: square"/>
   </g>
   <g id="patch_6">
    <path d="M 64.41375 23.837812 
L 702.1075 23.837812 
" style="fill: none; stroke: #000000; stroke-width: 0.8; stroke-linejoin: miter; stroke-linecap: square"/>
   </g>
   <g id="text_11">
    <text style="font: 700 14px 'DejaVu Sans', 'Bitstream Vera Sans', 'Computer Modern Sans Serif', 'Lucida Grande', 'Verdana', 'Geneva', 'Lucid', 'Arial', 'Helvetica', 'Avant Garde', sans-serif; text-anchor: middle" x="383.260625" y="17.837813" transform="rotate(-0 383.260625 17.837813)">Mixedworkload - Performance Trend</text>
   </g>
   <g id="legend_1">
    <g id="patch_7">
     <path d="M 740.992188 119.906563 
L 846.004688 119.906563 
Q 848.004688 119.906563 848.004688 117.906563 
L 848.004688 30.837813 
Q 848.004688 28.837813 846.004688 28.837813 
L 740.992188 28.837813 
Q 738.992188 28.837813 738.992188 30.837813 
L 738.992188 117.906563 
Q 738.992188 119.906563 740.992188 119.906563 
z
" style="fill: #ffffff; opacity: 0.8; stroke: #cccccc; stroke-linejoin: miter"/>
    </g>
    <g id="line2d_23">
     <path d="M 742.992188 36.93625 
L 752.992188 36.93625 
L 762.992188 36.93625 
" style="fill: none; stroke: #1f77b4; stroke-width: 2; stroke-linecap: square"/>
     <g>
      <use xlink:href="#m27aaa4a5f3" x="752.992188" y="36.93625" style="fill: #1f77b4; stroke: #1f77b4"/>
     </g>
    </g>
    <g id="text_12">
     <text style="font: 10px 'DejaVu Sans', 'Bitstream Vera Sans', 'Computer Modern Sans Serif', 'Lucida Grande', 'Verdana', 'Geneva', 'Lucid', 'Arial', 'Helvetica', 'Avant Garde', sans-serif; text-anchor: start" x="770.992188" y="40.43625" transform="rotate(-0 770.992188 40.43625)">gcc-14.2 - V1</text>
    </g>
    <g id="line2d_24">
     <path d="M 742.992188 51.614375 
L 752.992188 51.614375 
L 762.992188 51.614375 
" style="fill: none; stroke: #ff7f0e; stroke-width: 2; stroke-linecap: square"/>
     <g>
      <use xlink:href="#m74882e4c11" x="752.992188" y="51.614375" style="fill: #ff7f0e; stroke: #ff7f0e"/>
     </g>
    </g>
    <g id="text_13">
     <text style="font: 10px 'DejaVu Sans', 'Bitstream Vera Sans', 'Computer Modern Sans Serif', 'Lucida Grande', 'Verdana', 'Geneva', 'Lucid', 'Arial', 'Helvetica', 'Avant Garde', sans-serif; text-anchor: start" x="770.992188" y="55.114375" transform="rotate(-0 770.992188 55.114375)">gcc-14.2 - V2</text>
    </g>
    <g id="line2d_25">
     <path d="M 742.992188 66.2925 
L 752.992188 66.2925 
L 762.992188 66.2925 
" style="fill: none; stroke: #2ca02c; stroke-width: 2; stroke-linecap: square"/>
     <g>
      <use xlink:href="#mc29f21aded" x="752.992188" y="66.2925" style="fill: #2ca02c; stroke: #2ca02c"/>
     </g>
    </g>
    <g id="text_14">
     <text style="font: 10px 'DejaVu Sans', 'Bitstream Vera Sans', 'Computer Modern Sans Serif', 'Lucida Grande', 'Verdana', 'Geneva', 'Lucid', 'Arial', 'Helvetica', 'Avant Garde', sans-serif; text-anchor: start" x="770.992188" y="69.7925" transform="rotate(-0 770.992188 69.7925)">gcc-14.2 - TBB</text>
    </g>
    <g id="line2d_26">
     <path d="M 742.992188 80.970625 
L 752.992188 80.970625 
L 762.992188 80.970625 
" style="fill: none; stroke: #d62728; stroke-width: 2; stroke-linecap: square"/>
     <g>
      <use xlink:href="#mb8537b1a12" x="752.992188" y="80.970625" style="fill: #d62728; stroke: #d62728"/>
     </g>
    </g>
    <g id="text_15">
     <text style="font: 10px 'DejaVu Sans', 'Bitstream Vera Sans', 'Computer Modern Sans Serif', 'Lucida Grande', 'Verdana', 'Geneva', 'Lucid', 'Arial', 'Helvetica', 'Avant Garde', sans-serif; text-anchor: start" x="770.992188" y="84.470625" transform="rotate(-0 770.992188 84.470625)">gcc-4.2 - V1</text>
    </g>
    <g id="line2d_27">
     <path d="M 742.992188 95.64875 
L 752.992188 95.64875 
L 762.992188 95.64875 
" style="fill: none; stroke: #9467bd; stroke-width: 2; stroke-linecap: square"/>
     <g>
      <use xlink:href="#md74ddf1597" x="752.992188" y="95.64875" style="fill: #9467bd; stroke: #9467bd"/>
     </g>
    </g>
    <g id="text_16">
     <text style="font: 10px 'DejaVu Sans', 'Bitstream Vera Sans', 'Computer Modern Sans Serif', 'Lucida Grande', 'Verdana', 'Geneva', 'Lucid', 'Arial', 'Helvetica', 'Avant Garde', sans-serif; text-anchor: start" x="770.992188" y="99.14875" transform="rotate(-0 770.992188 99.14875)">gcc-4.2 - V2</text>
    </g>
    <g id="line2d_28">
     <path d="M 742.992188 110.326875 
L 752.992188 110.326875 
L 762.992188 110.326875 
" style="fill: none; stroke: #8c564b; stroke-width: 2; stroke-linecap: square"/>
     <g>
      <use xlink:href="#mf02670cb17" x="752.992188" y="110.326875" style="fill: #8c564b; stroke: #8c564b"/>
     </g>
    </g>
    <g id="text_17">
     <text style="font: 10px 'DejaVu Sans', 'Bitstream Vera Sans', 'Computer Modern Sans Serif', 'Lucida Grande', 'Verdana', 'Geneva', 'Lucid', 'Arial', 'Helvetica', 'Avant Garde', sans-serif; text-anchor: start" x="770.992188" y="113.826875" transform="rotate(-0 770.992188 113.826875)">gcc-4.2 - TBB</text>
    </g>
   </g>
  </g>
 </g>
 <defs>
  <clipPath id="p4ec4260127">
   <rect x="64.41375" y="23.837813" width="637.69375" height="505.470313"/>
  </clipPath>
 </defs>
</svg>
