<?xml version="1.0" encoding="utf-8" standalone="no"?>
<!DOCTYPE svg PUBLIC "-//W3C//DTD SVG 1.1//EN"
  "http://www.w3.org/Graphics/SVG/1.1/DTD/svg11.dtd">
<svg xmlns:xlink="http://www.w3.org/1999/xlink" width="849.994062pt" height="568.8pt" viewBox="0 0 849.994062 568.8" xmlns="http://www.w3.org/2000/svg" version="1.1">
 <metadata>
  <rdf:RDF xmlns:dc="http://purl.org/dc/elements/1.1/" xmlns:cc="http://creativecommons.org/ns#" xmlns:rdf="http://www.w3.org/1999/02/22-rdf-syntax-ns#">
   <cc:Work>
    <dc:type rdf:resource="http://purl.org/dc/dcmitype/StillImage"/>
    <dc:date>2025-10-14T04:52:22.154543</dc:date>
    <dc:format>image/svg+xml</dc:format>
    <dc:creator>
     <cc:Agent>
      <dc:title>Matplotlib v3.9.4, https://matplotlib.org/</dc:title>
     </cc:Agent>
    </dc:creator>
   </cc:Work>
  </rdf:RDF>
 </metadata>
 <defs>
  <style type="text/css">*{stroke-linejoin: round; stroke-linecap: butt}</style>
 </defs>
 <g id="figure_1">
  <g id="patch_1">
   <path d="M 0 568.8 
L 849.994062 568.8 
L 849.994062 0 
L 0 0 
z
" style="fill: #ffffff"/>
  </g>
  <g id="axes_1">
   <g id="patch_2">
    <path d="M 64.41375 529.308125 
L 597.895 529.308125 
L 597.895 23.837812 
L 64.41375 23.837812 
z
" style="fill: #ffffff"/>
   </g>
   <g id="matplotlib.axis_1">
    <g id="xtick_1">
     <g id="line2d_1">
      <path d="M 68.455275 529.308125 
L 68.455275 23.837812 
" clip-path="url(#p867105d1eb)" style="fill: none; stroke: #b0b0b0; stroke-opacity: 0.3; stroke-width: 0.8; stroke-linecap: square"/>
     </g>
     <g id="line2d_2">
      <defs>
       <path id="m7194fdbd25" d="M 0 0 
L 0 3.5 
" style="stroke: #000000; stroke-width: 0.8"/>
      </defs>
      <g>
       <use xlink:href="#m7194fdbd25" x="68.455275" y="529.308125" style="stroke: #000000; stroke-width: 0.8"/>
      </g>
     </g>
     <g id="text_1">
      <text style="font: 10px 'DejaVu Sans', 'Bitstream Vera Sans', 'Computer Modern Sans Serif', 'Lucida Grande', 'Verdana', 'Geneva', 'Lucid', 'Arial', 'Helvetica', 'Avant Garde', sans-serif; text-anchor: middle" x="68.455275" y="543.906563" transform="rotate(-0 68.455275 543.906563)">95</text>
     </g>
    </g>
    <g id="xtick_2">
     <g id="line2d_3">
      <path d="M 169.49339 529.308125 
L 169.49339 23.837812 
" clip-path="url(#p867105d1eb)" style="fill: none; stroke: #b0b0b0; stroke-opacity: 0.3; stroke-width: 0.8; stroke-linecap: square"/>
     </g>
     <g id="line2d_4">
      <g>
       <use xlink:href="#m7194fdbd25" x="169.49339" y="529.308125" style="stroke: #000000; stroke-width: 0.8"/>
      </g>
     </g>
     <g id="text_2">
      <text style="font: 10px 'DejaVu Sans', 'Bitstream Vera Sans', 'Computer Modern Sans Serif', 'Lucida Grande', 'Verdana', 'Geneva', 'Lucid', 'Arial', 'Helvetica', 'Avant Garde', sans-serif; text-anchor: middle" x="169.49339" y="543.906563" transform="rotate(-0 169.49339 543.906563)">100</text>
     </g>
    </g>
    <g id="xtick_3">
     <g id="line2d_5">
      <path d="M 270.531506 529.308125 
L 270.531506 23.837812 
" clip-path="url(#p867105d1eb)" style="fill: none; stroke: #b0b0b0; stroke-opacity: 0.3; stroke-width: 0.8; stroke-linecap: square"/>
     </g>
     <g id="line2d_6">
      <g>
       <use xlink:href="#m7194fdbd25" x="270.531506" y="529.308125" style="stroke: #000000; stroke-width: 0.8"/>
      </g>
     </g>
     <g id="text_3">
      <text style="font: 10px 'DejaVu Sans', 'Bitstream Vera Sans', 'Computer Modern Sans Serif', 'Lucida Grande', 'Verdana', 'Geneva', 'Lucid', 'Arial', 'Helvetica', 'Avant Garde', sans-serif; text-anchor: middle" x="270.531506" y="543.906563" transform="rotate(-0 270.531506 543.906563)">105</text>
     </g>
    </g>
    <g id="xtick_4">
     <g id="line2d_7">
      <path d="M 371.569621 529.308125 
L 371.569621 23.837812 
" clip-path="url(#p867105d1eb)" style="fill: none; stroke: #b0b0b0; stroke-opacity: 0.3; stroke-width: 0.8; stroke-linecap: square"/>
     </g>
     <g id="line2d_8">
      <g>
       <use xlink:href="#m7194fdbd25" x="371.569621" y="529.308125" style="stroke: #000000; stroke-width: 0.8"/>
      </g>
     </g>
     <g id="text_4">
      <text style="font: 10px 'DejaVu Sans', 'Bitstream Vera Sans', 'Computer Modern Sans Serif', 'Lucida Grande', 'Verdana', 'Geneva', 'Lucid', 'Arial', 'Helvetica', 'Avant Garde', sans-serif; text-anchor: middle" x="371.569621" y="543.906563" transform="rotate(-0 371.569621 543.906563)">110</text>
     </g>
    </g>
    <g id="xtick_5">
     <g id="line2d_9">
      <path d="M 472.607737 529.308125 
L 472.607737 23.837812 
" clip-path="url(#p867105d1eb)" style="fill: none; stroke: #b0b0b0; stroke-opacity: 0.3; stroke-width: 0.8; stroke-linecap: square"/>
     </g>
     <g id="line2d_10">
      <g>
       <use xlink:href="#m7194fdbd25" x="472.607737" y="529.308125" style="stroke: #000000; stroke-width: 0.8"/>
      </g>
     </g>
     <g id="text_5">
      <text style="font: 10px 'DejaVu Sans', 'Bitstream Vera Sans', 'Computer Modern Sans Serif', 'Lucida Grande', 'Verdana', 'Geneva', 'Lucid', 'Arial', 'Helvetica', 'Avant Garde', sans-serif; text-anchor: middle" x="472.607737" y="543.906563" transform="rotate(-0 472.607737 543.906563)">115</text>
     </g>
    </g>
    <g id="xtick_6">
     <g id="line2d_11">
      <path d="M 573.645852 529.308125 
L 573.645852 23.837812 
" clip-path="url(#p867105d1eb)" style="fill: none; stroke: #b0b0b0; stroke-opacity: 0.3; stroke-width: 0.8; stroke-linecap: square"/>
     </g>
     <g id="line2d_12">
      <g>
       <use xlink:href="#m7194fdbd25" x="573.645852" y="529.308125" style="stroke: #000000; stroke-width: 0.8"/>
      </g>
     </g>
     <g id="text_6">
      <text style="font: 10px 'DejaVu Sans', 'Bitstream Vera Sans', 'Computer Modern Sans Serif', 'Lucida Grande', 'Verdana', 'Geneva', 'Lucid', 'Arial', 'Helvetica', 'Avant Garde', sans-serif; text-anchor: middle" x="573.645852" y="543.906563" transform="rotate(-0 573.645852 543.906563)">120</text>
     </g>
    </g>
    <g id="text_7">
     <text style="font: 12px 'DejaVu Sans', 'Bitstream Vera Sans', 'Computer Modern Sans Serif', 'Lucida Grande', 'Verdana', 'Geneva', 'Lucid', 'Arial', 'Helvetica', 'Avant Garde', sans-serif; text-anchor: middle" x="331.154375" y="559.104375" transform="rotate(-0 331.154375 559.104375)">Build Number</text>
    </g>
   </g>
   <g id="matplotlib.axis_2">
    <g id="ytick_1">
     <g id="line2d_13">
      <defs>
       <path id="mb3971c2738" d="M 0 0 
L -2 0 
" style="stroke: #000000; stroke-width: 0.6"/>
      </defs>
      <g>
       <use xlink:href="#mb3971c2738" x="64.41375" y="314.369656" style="stroke: #000000; stroke-width: 0.6"/>
      </g>
     </g>
     <g id="text_8">
      <!-- $\mathdefault{2\times10^{5}}$ -->
      <g transform="translate(22.81375 318.168874)">
       <text>
        <tspan style="font: 10px 'DejaVu Sans'" x="0 8.310547 18.637695 25" y="-0.06406250000000036">2×10</tspan>
        <tspan style="font: 7px 'DejaVu Sans'" x="31.458008" y="-3.8921875000000004">5</tspan>
       </text>
      </g>
     </g>
    </g>
    <g id="ytick_2">
     <g id="line2d_14">
      <g>
       <use xlink:href="#mb3971c2738" x="64.41375" y="185.624887" style="stroke: #000000; stroke-width: 0.6"/>
      </g>
     </g>
     <g id="text_9">
      <!-- $\mathdefault{3\times10^{5}}$ -->
      <g transform="translate(22.81375 189.424106)">
       <text>
        <tspan style="font: 10px 'DejaVu Sans'" x="0 8.310547 18.637695 25" y="-0.06406250000000036">3×10</tspan>
        <tspan style="font: 7px 'DejaVu Sans'" x="31.458008" y="-3.8921875000000004">5</tspan>
       </text>
      </g>
     </g>
    </g>
    <g id="ytick_3">
     <g id="line2d_15">
      <g>
       <use xlink:href="#mb3971c2738" x="64.41375" y="94.27902" style="stroke: #000000; stroke-width: 0.6"/>
      </g>
     </g>
     <g id="text_10">
      <!-- $\mathdefault{4\times10^{5}}$ -->
      <g transform="translate(22.81375 98.078239)">
       <text>
        <tspan style="font: 10px 'DejaVu Sans'" x="0 8.310547 18.637695 25" y="-0.06406250000000036">4×10</tspan>
        <tspan style="font: 7px 'DejaVu Sans'" x="31.458008" y="-3.8921875000000004">5</tspan>
       </text>
      </g>
     </g>
    </g>
    <g id="text_11">
     <text style="font: 12px 'DejaVu Sans', 'Bitstream Vera Sans', 'Computer Modern Sans Serif', 'Lucida Grande', 'Verdana', 'Geneva', 'Lucid', 'Arial', 'Helvetica', 'Avant Garde', sans-serif; text-anchor: middle" x="16.318125" y="276.572969" transform="rotate(-90 16.318125 276.572969)">Median Elapsed Time (nanoseconds)</text>
    </g>
   </g>
   <g id="line2d_16">
    <path d="M 88.662898 403.795663 
L 108.870521 400.789346 
L 149.285767 430.223753 
L 169.49339 390.224096 
L 189.701013 401.339227 
L 209.908636 396.160192 
L 230.116259 399.660241 
L 250.323883 392.462093 
L 270.531506 404.361318 
L 290.739129 391.302079 
L 331.154375 396.682561 
L 351.361998 387.820835 
L 371.569621 394.856482 
L 391.777244 386.530726 
L 411.984867 407.943233 
L 452.400114 393.236916 
L 472.607737 403.094942 
L 492.81536 389.561917 
L 513.022983 395.277758 
L 533.230606 394.464572 
L 553.438229 410.229408 
L 573.645852 388.223457 
" clip-path="url(#p867105d1eb)" style="fill: none; stroke: #1f77b4; stroke-width: 2; stroke-linecap: square"/>
    <defs>
     <path id="mac7c6b818e" d="M 0 3 
C 0.795609 3 1.55874 2.683901 2.12132 2.12132 
C 2.683901 1.55874 3 0.795609 3 0 
C 3 -0.795609 2.683901 -1.55874 2.12132 -2.12132 
C 1.55874 -2.683901 0.795609 -3 0 -3 
C -0.795609 -3 -1.55874 -2.683901 -2.12132 -2.12132 
C -2.683901 -1.55874 -3 -0.795609 -3 0 
C -3 0.795609 -2.683901 1.55874 -2.12132 2.12132 
C -1.55874 2.683901 -0.795609 3 0 3 
z
" style="stroke: #1f77b4"/>
    </defs>
    <g clip-path="url(#p867105d1eb)">
     <use xlink:href="#mac7c6b818e" x="88.662898" y="403.795663" style="fill: #1f77b4; stroke: #1f77b4"/>
     <use xlink:href="#mac7c6b818e" x="108.870521" y="400.789346" style="fill: #1f77b4; stroke: #1f77b4"/>
     <use xlink:href="#mac7c6b818e" x="149.285767" y="430.223753" style="fill: #1f77b4; stroke: #1f77b4"/>
     <use xlink:href="#mac7c6b818e" x="169.49339" y="390.224096" style="fill: #1f77b4; stroke: #1f77b4"/>
     <use xlink:href="#mac7c6b818e" x="189.701013" y="401.339227" style="fill: #1f77b4; stroke: #1f77b4"/>
     <use xlink:href="#mac7c6b818e" x="209.908636" y="396.160192" style="fill: #1f77b4; stroke: #1f77b4"/>
     <use xlink:href="#mac7c6b818e" x="230.116259" y="399.660241" style="fill: #1f77b4; stroke: #1f77b4"/>
     <use xlink:href="#mac7c6b818e" x="250.323883" y="392.462093" style="fill: #1f77b4; stroke: #1f77b4"/>
     <use xlink:href="#mac7c6b818e" x="270.531506" y="404.361318" style="fill: #1f77b4; stroke: #1f77b4"/>
     <use xlink:href="#mac7c6b818e" x="290.739129" y="391.302079" style="fill: #1f77b4; stroke: #1f77b4"/>
     <use xlink:href="#mac7c6b818e" x="331.154375" y="396.682561" style="fill: #1f77b4; stroke: #1f77b4"/>
     <use xlink:href="#mac7c6b818e" x="351.361998" y="387.820835" style="fill: #1f77b4; stroke: #1f77b4"/>
     <use xlink:href="#mac7c6b818e" x="371.569621" y="394.856482" style="fill: #1f77b4; stroke: #1f77b4"/>
     <use xlink:href="#mac7c6b818e" x="391.777244" y="386.530726" style="fill: #1f77b4; stroke: #1f77b4"/>
     <use xlink:href="#mac7c6b818e" x="411.984867" y="407.943233" style="fill: #1f77b4; stroke: #1f77b4"/>
     <use xlink:href="#mac7c6b818e" x="452.400114" y="393.236916" style="fill: #1f77b4; stroke: #1f77b4"/>
     <use xlink:href="#mac7c6b818e" x="472.607737" y="403.094942" style="fill: #1f77b4; stroke: #1f77b4"/>
     <use xlink:href="#mac7c6b818e" x="492.81536" y="389.561917" style="fill: #1f77b4; stroke: #1f77b4"/>
     <use xlink:href="#mac7c6b818e" x="513.022983" y="395.277758" style="fill: #1f77b4; stroke: #1f77b4"/>
     <use xlink:href="#mac7c6b818e" x="533.230606" y="394.464572" style="fill: #1f77b4; stroke: #1f77b4"/>
     <use xlink:href="#mac7c6b818e" x="553.438229" y="410.229408" style="fill: #1f77b4; stroke: #1f77b4"/>
     <use xlink:href="#mac7c6b818e" x="573.645852" y="388.223457" style="fill: #1f77b4; stroke: #1f77b4"/>
    </g>
   </g>
   <g id="line2d_17">
    <path d="M 88.662898 462.521588 
L 108.870521 474.44824 
L 149.285767 488.172749 
L 169.49339 487.421305 
L 189.701013 462.36442 
L 209.908636 461.806985 
L 230.116259 468.375247 
L 250.323883 464.804346 
L 270.531506 465.156093 
L 290.739129 459.555379 
L 331.154375 463.282969 
L 351.361998 450.498051 
L 371.569621 457.706371 
L 391.777244 487.035204 
L 411.984867 469.277434 
L 452.400114 450.335515 
L 472.607737 506.332202 
L 492.81536 457.725321 
L 513.022983 473.10095 
L 533.230606 461.263387 
L 553.438229 472.628031 
L 573.645852 487.535136 
" clip-path="url(#p867105d1eb)" style="fill: none; stroke: #ff7f0e; stroke-width: 2; stroke-linecap: square"/>
    <defs>
     <path id="madfe27b986" d="M 0 3 
C 0.795609 3 1.55874 2.683901 2.12132 2.12132 
C 2.683901 1.55874 3 0.795609 3 0 
C 3 -0.795609 2.683901 -1.55874 2.12132 -2.12132 
C 1.55874 -2.683901 0.795609 -3 0 -3 
C -0.795609 -3 -1.55874 -2.683901 -2.12132 -2.12132 
C -2.683901 -1.55874 -3 -0.795609 -3 0 
C -3 0.795609 -2.683901 1.55874 -2.12132 2.12132 
C -1.55874 2.683901 -0.795609 3 0 3 
z
" style="stroke: #ff7f0e"/>
    </defs>
    <g clip-path="url(#p867105d1eb)">
     <use xlink:href="#madfe27b986" x="88.662898" y="462.521588" style="fill: #ff7f0e; stroke: #ff7f0e"/>
     <use xlink:href="#madfe27b986" x="108.870521" y="474.44824" style="fill: #ff7f0e; stroke: #ff7f0e"/>
     <use xlink:href="#madfe27b986" x="149.285767" y="488.172749" style="fill: #ff7f0e; stroke: #ff7f0e"/>
     <use xlink:href="#madfe27b986" x="169.49339" y="487.421305" style="fill: #ff7f0e; stroke: #ff7f0e"/>
     <use xlink:href="#madfe27b986" x="189.701013" y="462.36442" style="fill: #ff7f0e; stroke: #ff7f0e"/>
     <use xlink:href="#madfe27b986" x="209.908636" y="461.806985" style="fill: #ff7f0e; stroke: #ff7f0e"/>
     <use xlink:href="#madfe27b986" x="230.116259" y="468.375247" style="fill: #ff7f0e; stroke: #ff7f0e"/>
     <use xlink:href="#madfe27b986" x="250.323883" y="464.804346" style="fill: #ff7f0e; stroke: #ff7f0e"/>
     <use xlink:href="#madfe27b986" x="270.531506" y="465.156093" style="fill: #ff7f0e; stroke: #ff7f0e"/>
     <use xlink:href="#madfe27b986" x="290.739129" y="459.555379" style="fill: #ff7f0e; stroke: #ff7f0e"/>
     <use xlink:href="#madfe27b986" x="331.154375" y="463.282969" style="fill: #ff7f0e; stroke: #ff7f0e"/>
     <use xlink:href="#madfe27b986" x="351.361998" y="450.498051" style="fill: #ff7f0e; stroke: #ff7f0e"/>
     <use xlink:href="#madfe27b986" x="371.569621" y="457.706371" style="fill: #ff7f0e; stroke: #ff7f0e"/>
     <use xlink:href="#madfe27b986" x="391.777244" y="487.035204" style="fill: #ff7f0e; stroke: #ff7f0e"/>
     <use xlink:href="#madfe27b986" x="411.984867" y="469.277434" style="fill: #ff7f0e; stroke: #ff7f0e"/>
     <use xlink:href="#madfe27b986" x="452.400114" y="450.335515" style="fill: #ff7f0e; stroke: #ff7f0e"/>
     <use xlink:href="#madfe27b986" x="472.607737" y="506.332202" style="fill: #ff7f0e; stroke: #ff7f0e"/>
     <use xlink:href="#madfe27b986" x="492.81536" y="457.725321" style="fill: #ff7f0e; stroke: #ff7f0e"/>
     <use xlink:href="#madfe27b986" x="513.022983" y="473.10095" style="fill: #ff7f0e; stroke: #ff7f0e"/>
     <use xlink:href="#madfe27b986" x="533.230606" y="461.263387" style="fill: #ff7f0e; stroke: #ff7f0e"/>
     <use xlink:href="#madfe27b986" x="553.438229" y="472.628031" style="fill: #ff7f0e; stroke: #ff7f0e"/>
     <use xlink:href="#madfe27b986" x="573.645852" y="487.535136" style="fill: #ff7f0e; stroke: #ff7f0e"/>
    </g>
   </g>
   <g id="line2d_18">
    <path d="M 88.662898 334.347938 
L 108.870521 306.154555 
L 149.285767 294.862701 
L 169.49339 272.259674 
L 189.701013 311.88982 
L 209.908636 296.47957 
L 230.116259 296.372143 
L 250.323883 306.228204 
L 270.531506 317.292857 
L 290.739129 287.146638 
L 331.154375 311.040313 
L 351.361998 279.292061 
L 371.569621 318.367736 
L 391.777244 270.730411 
L 411.984867 284.388417 
L 452.400114 284.402575 
L 472.607737 284.395351 
L 492.81536 308.502539 
L 513.022983 289.553372 
L 533.230606 298.266752 
L 553.438229 322.216412 
L 573.645852 270.914088 
" clip-path="url(#p867105d1eb)" style="fill: none; stroke: #2ca02c; stroke-width: 2; stroke-linecap: square"/>
    <defs>
     <path id="meaed836dfb" d="M 0 3 
C 0.795609 3 1.55874 2.683901 2.12132 2.12132 
C 2.683901 1.55874 3 0.795609 3 0 
C 3 -0.795609 2.683901 -1.55874 2.12132 -2.12132 
C 1.55874 -2.683901 0.795609 -3 0 -3 
C -0.795609 -3 -1.55874 -2.683901 -2.12132 -2.12132 
C -2.683901 -1.55874 -3 -0.795609 -3 0 
C -3 0.795609 -2.683901 1.55874 -2.12132 2.12132 
C -1.55874 2.683901 -0.795609 3 0 3 
z
" style="stroke: #2ca02c"/>
    </defs>
    <g clip-path="url(#p867105d1eb)">
     <use xlink:href="#meaed836dfb" x="88.662898" y="334.347938" style="fill: #2ca02c; stroke: #2ca02c"/>
     <use xlink:href="#meaed836dfb" x="108.870521" y="306.154555" style="fill: #2ca02c; stroke: #2ca02c"/>
     <use xlink:href="#meaed836dfb" x="149.285767" y="294.862701" style="fill: #2ca02c; stroke: #2ca02c"/>
     <use xlink:href="#meaed836dfb" x="169.49339" y="272.259674" style="fill: #2ca02c; stroke: #2ca02c"/>
     <use xlink:href="#meaed836dfb" x="189.701013" y="311.88982" style="fill: #2ca02c; stroke: #2ca02c"/>
     <use xlink:href="#meaed836dfb" x="209.908636" y="296.47957" style="fill: #2ca02c; stroke: #2ca02c"/>
     <use xlink:href="#meaed836dfb" x="230.116259" y="296.372143" style="fill: #2ca02c; stroke: #2ca02c"/>
     <use xlink:href="#meaed836dfb" x="250.323883" y="306.228204" style="fill: #2ca02c; stroke: #2ca02c"/>
     <use xlink:href="#meaed836dfb" x="270.531506" y="317.292857" style="fill: #2ca02c; stroke: #2ca02c"/>
     <use xlink:href="#meaed836dfb" x="290.739129" y="287.146638" style="fill: #2ca02c; stroke: #2ca02c"/>
     <use xlink:href="#meaed836dfb" x="331.154375" y="311.040313" style="fill: #2ca02c; stroke: #2ca02c"/>
     <use xlink:href="#meaed836dfb" x="351.361998" y="279.292061" style="fill: #2ca02c; stroke: #2ca02c"/>
     <use xlink:href="#meaed836dfb" x="371.569621" y="318.367736" style="fill: #2ca02c; stroke: #2ca02c"/>
     <use xlink:href="#meaed836dfb" x="391.777244" y="270.730411" style="fill: #2ca02c; stroke: #2ca02c"/>
     <use xlink:href="#meaed836dfb" x="411.984867" y="284.388417" style="fill: #2ca02c; stroke: #2ca02c"/>
     <use xlink:href="#meaed836dfb" x="452.400114" y="284.402575" style="fill: #2ca02c; stroke: #2ca02c"/>
     <use xlink:href="#meaed836dfb" x="472.607737" y="284.395351" style="fill: #2ca02c; stroke: #2ca02c"/>
     <use xlink:href="#meaed836dfb" x="492.81536" y="308.502539" style="fill: #2ca02c; stroke: #2ca02c"/>
     <use xlink:href="#meaed836dfb" x="513.022983" y="289.553372" style="fill: #2ca02c; stroke: #2ca02c"/>
     <use xlink:href="#meaed836dfb" x="533.230606" y="298.266752" style="fill: #2ca02c; stroke: #2ca02c"/>
     <use xlink:href="#meaed836dfb" x="553.438229" y="322.216412" style="fill: #2ca02c; stroke: #2ca02c"/>
     <use xlink:href="#meaed836dfb" x="573.645852" y="270.914088" style="fill: #2ca02c; stroke: #2ca02c"/>
    </g>
   </g>
   <g id="line2d_19">
    <path d="M 88.662898 396.04583 
L 108.870521 366.658358 
L 149.285767 400.143265 
L 169.49339 387.627214 
L 189.701013 382.388902 
L 209.908636 362.42402 
L 230.116259 365.625111 
L 250.323883 365.952531 
L 270.531506 385.315308 
L 290.739129 353.027331 
L 331.154375 385.401672 
L 351.361998 374.340335 
L 371.569621 379.769612 
L 391.777244 380.799315 
L 411.984867 361.420273 
L 452.400114 379.757128 
L 472.607737 394.877349 
L 492.81536 356.475535 
L 513.022983 377.305865 
L 533.230606 360.006441 
L 553.438229 388.519893 
L 573.645852 383.059138 
" clip-path="url(#p867105d1eb)" style="fill: none; stroke: #d62728; stroke-width: 2; stroke-linecap: square"/>
    <defs>
     <path id="m19342236fa" d="M 0 3 
C 0.795609 3 1.55874 2.683901 2.12132 2.12132 
C 2.683901 1.55874 3 0.795609 3 0 
C 3 -0.795609 2.683901 -1.55874 2.12132 -2.12132 
C 1.55874 -2.683901 0.795609 -3 0 -3 
C -0.795609 -3 -1.55874 -2.683901 -2.12132 -2.12132 
C -2.683901 -1.55874 -3 -0.795609 -3 0 
C -3 0.795609 -2.683901 1.55874 -2.12132 2.12132 
C -1.55874 2.683901 -0.795609 3 0 3 
z
" style="stroke: #d62728"/>
    </defs>
    <g clip-path="url(#p867105d1eb)">
     <use xlink:href="#m19342236fa" x="88.662898" y="396.04583" style="fill: #d62728; stroke: #d62728"/>
     <use xlink:href="#m19342236fa" x="108.870521" y="366.658358" style="fill: #d62728; stroke: #d62728"/>
     <use xlink:href="#m19342236fa" x="149.285767" y="400.143265" style="fill: #d62728; stroke: #d62728"/>
     <use xlink:href="#m19342236fa" x="169.49339" y="387.627214" style="fill: #d62728; stroke: #d62728"/>
     <use xlink:href="#m19342236fa" x="189.701013" y="382.388902" style="fill: #d62728; stroke: #d62728"/>
     <use xlink:href="#m19342236fa" x="209.908636" y="362.42402" style="fill: #d62728; stroke: #d62728"/>
     <use xlink:href="#m19342236fa" x="230.116259" y="365.625111" style="fill: #d62728; stroke: #d62728"/>
     <use xlink:href="#m19342236fa" x="250.323883" y="365.952531" style="fill: #d62728; stroke: #d62728"/>
     <use xlink:href="#m19342236fa" x="270.531506" y="385.315308" style="fill: #d62728; stroke: #d62728"/>
     <use xlink:href="#m19342236fa" x="290.739129" y="353.027331" style="fill: #d62728; stroke: #d62728"/>
     <use xlink:href="#m19342236fa" x="331.154375" y="385.401672" style="fill: #d62728; stroke: #d62728"/>
     <use xlink:href="#m19342236fa" x="351.361998" y="374.340335" style="fill: #d62728; stroke: #d62728"/>
     <use xlink:href="#m19342236fa" x="371.569621" y="379.769612" style="fill: #d62728; stroke: #d62728"/>
     <use xlink:href="#m19342236fa" x="391.777244" y="380.799315" style="fill: #d62728; stroke: #d62728"/>
     <use xlink:href="#m19342236fa" x="411.984867" y="361.420273" style="fill: #d62728; stroke: #d62728"/>
     <use xlink:href="#m19342236fa" x="452.400114" y="379.757128" style="fill: #d62728; stroke: #d62728"/>
     <use xlink:href="#m19342236fa" x="472.607737" y="394.877349" style="fill: #d62728; stroke: #d62728"/>
     <use xlink:href="#m19342236fa" x="492.81536" y="356.475535" style="fill: #d62728; stroke: #d62728"/>
     <use xlink:href="#m19342236fa" x="513.022983" y="377.305865" style="fill: #d62728; stroke: #d62728"/>
     <use xlink:href="#m19342236fa" x="533.230606" y="360.006441" style="fill: #d62728; stroke: #d62728"/>
     <use xlink:href="#m19342236fa" x="553.438229" y="388.519893" style="fill: #d62728; stroke: #d62728"/>
     <use xlink:href="#m19342236fa" x="573.645852" y="383.059138" style="fill: #d62728; stroke: #d62728"/>
    </g>
   </g>
   <g id="line2d_20">
    <path d="M 88.662898 429.00595 
L 108.870521 202.366497 
L 149.285767 411.123658 
L 169.49339 46.813736 
L 189.701013 405.772894 
L 209.908636 418.437656 
L 230.116259 395.31586 
L 250.323883 420.691997 
L 270.531506 385.516065 
L 290.739129 396.729886 
L 331.154375 412.200785 
L 351.361998 211.560501 
L 371.569621 394.026419 
L 411.984867 403.977927 
L 472.607737 213.113264 
L 492.81536 401.52301 
L 513.022983 390.959385 
L 533.230606 401.786759 
L 553.438229 402.702802 
L 573.645852 405.320134 
" clip-path="url(#p867105d1eb)" style="fill: none; stroke: #9467bd; stroke-width: 2; stroke-linecap: square"/>
    <defs>
     <path id="mf5a63e9872" d="M 0 3 
C 0.795609 3 1.55874 2.683901 2.12132 2.12132 
C 2.683901 1.55874 3 0.795609 3 0 
C 3 -0.795609 2.683901 -1.55874 2.12132 -2.12132 
C 1.55874 -2.683901 0.795609 -3 0 -3 
C -0.795609 -3 -1.55874 -2.683901 -2.12132 -2.12132 
C -2.683901 -1.55874 -3 -0.795609 -3 0 
C -3 0.795609 -2.683901 1.55874 -2.12132 2.12132 
C -1.55874 2.683901 -0.795609 3 0 3 
z
" style="stroke: #9467bd"/>
    </defs>
    <g clip-path="url(#p867105d1eb)">
     <use xlink:href="#mf5a63e9872" x="88.662898" y="429.00595" style="fill: #9467bd; stroke: #9467bd"/>
     <use xlink:href="#mf5a63e9872" x="108.870521" y="202.366497" style="fill: #9467bd; stroke: #9467bd"/>
     <use xlink:href="#mf5a63e9872" x="149.285767" y="411.123658" style="fill: #9467bd; stroke: #9467bd"/>
     <use xlink:href="#mf5a63e9872" x="169.49339" y="46.813736" style="fill: #9467bd; stroke: #9467bd"/>
     <use xlink:href="#mf5a63e9872" x="189.701013" y="405.772894" style="fill: #9467bd; stroke: #9467bd"/>
     <use xlink:href="#mf5a63e9872" x="209.908636" y="418.437656" style="fill: #9467bd; stroke: #9467bd"/>
     <use xlink:href="#mf5a63e9872" x="230.116259" y="395.31586" style="fill: #9467bd; stroke: #9467bd"/>
     <use xlink:href="#mf5a63e9872" x="250.323883" y="420.691997" style="fill: #9467bd; stroke: #9467bd"/>
     <use xlink:href="#mf5a63e9872" x="270.531506" y="385.516065" style="fill: #9467bd; stroke: #9467bd"/>
     <use xlink:href="#mf5a63e9872" x="290.739129" y="396.729886" style="fill: #9467bd; stroke: #9467bd"/>
     <use xlink:href="#mf5a63e9872" x="331.154375" y="412.200785" style="fill: #9467bd; stroke: #9467bd"/>
     <use xlink:href="#mf5a63e9872" x="351.361998" y="211.560501" style="fill: #9467bd; stroke: #9467bd"/>
     <use xlink:href="#mf5a63e9872" x="371.569621" y="394.026419" style="fill: #9467bd; stroke: #9467bd"/>
     <use xlink:href="#mf5a63e9872" x="411.984867" y="403.977927" style="fill: #9467bd; stroke: #9467bd"/>
     <use xlink:href="#mf5a63e9872" x="472.607737" y="213.113264" style="fill: #9467bd; stroke: #9467bd"/>
     <use xlink:href="#mf5a63e9872" x="492.81536" y="401.52301" style="fill: #9467bd; stroke: #9467bd"/>
     <use xlink:href="#mf5a63e9872" x="513.022983" y="390.959385" style="fill: #9467bd; stroke: #9467bd"/>
     <use xlink:href="#mf5a63e9872" x="533.230606" y="401.786759" style="fill: #9467bd; stroke: #9467bd"/>
     <use xlink:href="#mf5a63e9872" x="553.438229" y="402.702802" style="fill: #9467bd; stroke: #9467bd"/>
     <use xlink:href="#mf5a63e9872" x="573.645852" y="405.320134" style="fill: #9467bd; stroke: #9467bd"/>
    </g>
   </g>
   <g id="line2d_21">
    <path d="M 88.662898 415.289072 
L 108.870521 425.800249 
L 149.285767 421.760241 
L 169.49339 144.806181 
L 189.701013 428.442889 
L 209.908636 431.49475 
L 230.116259 414.342353 
L 250.323883 465.900093 
L 270.531506 421.758682 
L 290.739129 419.22744 
L 331.154375 465.541324 
L 351.361998 407.577 
L 371.569621 451.356219 
L 411.984867 429.541943 
L 472.607737 464.88952 
L 492.81536 435.330785 
L 513.022983 419.982586 
L 533.230606 428.502308 
L 553.438229 424.435307 
L 573.645852 427.102986 
" clip-path="url(#p867105d1eb)" style="fill: none; stroke: #8c564b; stroke-width: 2; stroke-linecap: square"/>
    <defs>
     <path id="m299e0f5a8c" d="M 0 3 
C 0.795609 3 1.55874 2.683901 2.12132 2.12132 
C 2.683901 1.55874 3 0.795609 3 0 
C 3 -0.795609 2.683901 -1.55874 2.12132 -2.12132 
C 1.55874 -2.683901 0.795609 -3 0 -3 
C -0.795609 -3 -1.55874 -2.683901 -2.12132 -2.12132 
C -2.683901 -1.55874 -3 -0.795609 -3 0 
C -3 0.795609 -2.683901 1.55874 -2.12132 2.12132 
C -1.55874 2.683901 -0.795609 3 0 3 
z
" style="stroke: #8c564b"/>
    </defs>
    <g clip-path="url(#p867105d1eb)">
     <use xlink:href="#m299e0f5a8c" x="88.662898" y="415.289072" style="fill: #8c564b; stroke: #8c564b"/>
     <use xlink:href="#m299e0f5a8c" x="108.870521" y="425.800249" style="fill: #8c564b; stroke: #8c564b"/>
     <use xlink:href="#m299e0f5a8c" x="149.285767" y="421.760241" style="fill: #8c564b; stroke: #8c564b"/>
     <use xlink:href="#m299e0f5a8c" x="169.49339" y="144.806181" style="fill: #8c564b; stroke: #8c564b"/>
     <use xlink:href="#m299e0f5a8c" x="189.701013" y="428.442889" style="fill: #8c564b; stroke: #8c564b"/>
     <use xlink:href="#m299e0f5a8c" x="209.908636" y="431.49475" style="fill: #8c564b; stroke: #8c564b"/>
     <use xlink:href="#m299e0f5a8c" x="230.116259" y="414.342353" style="fill: #8c564b; stroke: #8c564b"/>
     <use xlink:href="#m299e0f5a8c" x="250.323883" y="465.900093" style="fill: #8c564b; stroke: #8c564b"/>
     <use xlink:href="#m299e0f5a8c" x="270.531506" y="421.758682" style="fill: #8c564b; stroke: #8c564b"/>
     <use xlink:href="#m299e0f5a8c" x="290.739129" y="419.22744" style="fill: #8c564b; stroke: #8c564b"/>
     <use xlink:href="#m299e0f5a8c" x="331.154375" y="465.541324" style="fill: #8c564b; stroke: #8c564b"/>
     <use xlink:href="#m299e0f5a8c" x="351.361998" y="407.577" style="fill: #8c564b; stroke: #8c564b"/>
     <use xlink:href="#m299e0f5a8c" x="371.569621" y="451.356219" style="fill: #8c564b; stroke: #8c564b"/>
     <use xlink:href="#m299e0f5a8c" x="411.984867" y="429.541943" style="fill: #8c564b; stroke: #8c564b"/>
     <use xlink:href="#m299e0f5a8c" x="472.607737" y="464.88952" style="fill: #8c564b; stroke: #8c564b"/>
     <use xlink:href="#m299e0f5a8c" x="492.81536" y="435.330785" style="fill: #8c564b; stroke: #8c564b"/>
     <use xlink:href="#m299e0f5a8c" x="513.022983" y="419.982586" style="fill: #8c564b; stroke: #8c564b"/>
     <use xlink:href="#m299e0f5a8c" x="533.230606" y="428.502308" style="fill: #8c564b; stroke: #8c564b"/>
     <use xlink:href="#m299e0f5a8c" x="553.438229" y="424.435307" style="fill: #8c564b; stroke: #8c564b"/>
     <use xlink:href="#m299e0f5a8c" x="573.645852" y="427.102986" style="fill: #8c564b; stroke: #8c564b"/>
    </g>
   </g>
   <g id="line2d_22">
    <path d="M 88.662898 407.058308 
L 108.870521 368.403564 
L 149.285767 390.731734 
L 169.49339 359.700842 
L 189.701013 367.343809 
L 209.908636 413.133887 
L 230.116259 394.821504 
L 250.323883 367.480402 
L 270.531506 397.250514 
L 290.739129 388.379757 
L 331.154375 371.565815 
L 351.361998 419.15727 
L 371.569621 371.92968 
L 411.984867 372.123671 
L 472.607737 371.374635 
L 492.81536 384.923691 
L 513.022983 370.529765 
L 533.230606 373.076496 
L 553.438229 412.169891 
L 573.645852 373.045364 
" clip-path="url(#p867105d1eb)" style="fill: none; stroke: #e377c2; stroke-width: 2; stroke-linecap: square"/>
    <defs>
     <path id="m25863b8e6f" d="M 0 3 
C 0.795609 3 1.55874 2.683901 2.12132 2.12132 
C 2.683901 1.55874 3 0.795609 3 0 
C 3 -0.795609 2.683901 -1.55874 2.12132 -2.12132 
C 1.55874 -2.683901 0.795609 -3 0 -3 
C -0.795609 -3 -1.55874 -2.683901 -2.12132 -2.12132 
C -2.683901 -1.55874 -3 -0.795609 -3 0 
C -3 0.795609 -2.683901 1.55874 -2.12132 2.12132 
C -1.55874 2.683901 -0.795609 3 0 3 
z
" style="stroke: #e377c2"/>
    </defs>
    <g clip-path="url(#p867105d1eb)">
     <use xlink:href="#m25863b8e6f" x="88.662898" y="407.058308" style="fill: #e377c2; stroke: #e377c2"/>
     <use xlink:href="#m25863b8e6f" x="108.870521" y="368.403564" style="fill: #e377c2; stroke: #e377c2"/>
     <use xlink:href="#m25863b8e6f" x="149.285767" y="390.731734" style="fill: #e377c2; stroke: #e377c2"/>
     <use xlink:href="#m25863b8e6f" x="169.49339" y="359.700842" style="fill: #e377c2; stroke: #e377c2"/>
     <use xlink:href="#m25863b8e6f" x="189.701013" y="367.343809" style="fill: #e377c2; stroke: #e377c2"/>
     <use xlink:href="#m25863b8e6f" x="209.908636" y="413.133887" style="fill: #e377c2; stroke: #e377c2"/>
     <use xlink:href="#m25863b8e6f" x="230.116259" y="394.821504" style="fill: #e377c2; stroke: #e377c2"/>
     <use xlink:href="#m25863b8e6f" x="250.323883" y="367.480402" style="fill: #e377c2; stroke: #e377c2"/>
     <use xlink:href="#m25863b8e6f" x="270.531506" y="397.250514" style="fill: #e377c2; stroke: #e377c2"/>
     <use xlink:href="#m25863b8e6f" x="290.739129" y="388.379757" style="fill: #e377c2; stroke: #e377c2"/>
     <use xlink:href="#m25863b8e6f" x="331.154375" y="371.565815" style="fill: #e377c2; stroke: #e377c2"/>
     <use xlink:href="#m25863b8e6f" x="351.361998" y="419.15727" style="fill: #e377c2; stroke: #e377c2"/>
     <use xlink:href="#m25863b8e6f" x="371.569621" y="371.92968" style="fill: #e377c2; stroke: #e377c2"/>
     <use xlink:href="#m25863b8e6f" x="411.984867" y="372.123671" style="fill: #e377c2; stroke: #e377c2"/>
     <use xlink:href="#m25863b8e6f" x="472.607737" y="371.374635" style="fill: #e377c2; stroke: #e377c2"/>
     <use xlink:href="#m25863b8e6f" x="492.81536" y="384.923691" style="fill: #e377c2; stroke: #e377c2"/>
     <use xlink:href="#m25863b8e6f" x="513.022983" y="370.529765" style="fill: #e377c2; stroke: #e377c2"/>
     <use xlink:href="#m25863b8e6f" x="533.230606" y="373.076496" style="fill: #e377c2; stroke: #e377c2"/>
     <use xlink:href="#m25863b8e6f" x="553.438229" y="412.169891" style="fill: #e377c2; stroke: #e377c2"/>
     <use xlink:href="#m25863b8e6f" x="573.645852" y="373.045364" style="fill: #e377c2; stroke: #e377c2"/>
    </g>
   </g>
   <g id="line2d_23">
    <path d="M 88.662898 417.819334 
L 108.870521 377.198261 
L 149.285767 398.387409 
L 169.49339 374.49193 
L 189.701013 375.163117 
L 209.908636 421.937968 
L 230.116259 411.33194 
L 250.323883 385.042144 
L 270.531506 407.021959 
L 290.739129 397.915514 
L 331.154375 386.145171 
L 351.361998 424.933947 
L 371.569621 396.120345 
L 411.984867 394.328937 
L 472.607737 391.227616 
L 492.81536 402.520848 
L 513.022983 377.200002 
L 533.230606 374.770438 
L 553.438229 420.216112 
L 573.645852 382.102849 
" clip-path="url(#p867105d1eb)" style="fill: none; stroke: #7f7f7f; stroke-width: 2; stroke-linecap: square"/>
    <defs>
     <path id="ma3734800ec" d="M 0 3 
C 0.795609 3 1.55874 2.683901 2.12132 2.12132 
C 2.683901 1.55874 3 0.795609 3 0 
C 3 -0.795609 2.683901 -1.55874 2.12132 -2.12132 
C 1.55874 -2.683901 0.795609 -3 0 -3 
C -0.795609 -3 -1.55874 -2.683901 -2.12132 -2.12132 
C -2.683901 -1.55874 -3 -0.795609 -3 0 
C -3 0.795609 -2.683901 1.55874 -2.12132 2.12132 
C -1.55874 2.683901 -0.795609 3 0 3 
z
" style="stroke: #7f7f7f"/>
    </defs>
    <g clip-path="url(#p867105d1eb)">
     <use xlink:href="#ma3734800ec" x="88.662898" y="417.819334" style="fill: #7f7f7f; stroke: #7f7f7f"/>
     <use xlink:href="#ma3734800ec" x="108.870521" y="377.198261" style="fill: #7f7f7f; stroke: #7f7f7f"/>
     <use xlink:href="#ma3734800ec" x="149.285767" y="398.387409" style="fill: #7f7f7f; stroke: #7f7f7f"/>
     <use xlink:href="#ma3734800ec" x="169.49339" y="374.49193" style="fill: #7f7f7f; stroke: #7f7f7f"/>
     <use xlink:href="#ma3734800ec" x="189.701013" y="375.163117" style="fill: #7f7f7f; stroke: #7f7f7f"/>
     <use xlink:href="#ma3734800ec" x="209.908636" y="421.937968" style="fill: #7f7f7f; stroke: #7f7f7f"/>
     <use xlink:href="#ma3734800ec" x="230.116259" y="411.33194" style="fill: #7f7f7f; stroke: #7f7f7f"/>
     <use xlink:href="#ma3734800ec" x="250.323883" y="385.042144" style="fill: #7f7f7f; stroke: #7f7f7f"/>
     <use xlink:href="#ma3734800ec" x="270.531506" y="407.021959" style="fill: #7f7f7f; stroke: #7f7f7f"/>
     <use xlink:href="#ma3734800ec" x="290.739129" y="397.915514" style="fill: #7f7f7f; stroke: #7f7f7f"/>
     <use xlink:href="#ma3734800ec" x="331.154375" y="386.145171" style="fill: #7f7f7f; stroke: #7f7f7f"/>
     <use xlink:href="#ma3734800ec" x="351.361998" y="424.933947" style="fill: #7f7f7f; stroke: #7f7f7f"/>
     <use xlink:href="#ma3734800ec" x="371.569621" y="396.120345" style="fill: #7f7f7f; stroke: #7f7f7f"/>
     <use xlink:href="#ma3734800ec" x="411.984867" y="394.328937" style="fill: #7f7f7f; stroke: #7f7f7f"/>
     <use xlink:href="#ma3734800ec" x="472.607737" y="391.227616" style="fill: #7f7f7f; stroke: #7f7f7f"/>
     <use xlink:href="#ma3734800ec" x="492.81536" y="402.520848" style="fill: #7f7f7f; stroke: #7f7f7f"/>
     <use xlink:href="#ma3734800ec" x="513.022983" y="377.200002" style="fill: #7f7f7f; stroke: #7f7f7f"/>
     <use xlink:href="#ma3734800ec" x="533.230606" y="374.770438" style="fill: #7f7f7f; stroke: #7f7f7f"/>
     <use xlink:href="#ma3734800ec" x="553.438229" y="420.216112" style="fill: #7f7f7f; stroke: #7f7f7f"/>
     <use xlink:href="#ma3734800ec" x="573.645852" y="382.102849" style="fill: #7f7f7f; stroke: #7f7f7f"/>
    </g>
   </g>
   <g id="patch_3">
    <path d="M 64.41375 529.308125 
L 64.41375 23.837812 
" style="fill: none; stroke: #000000; stroke-width: 0.8; stroke-linejoin: miter; stroke-linecap: square"/>
   </g>
   <g id="patch_4">
    <path d="M 597.895 529.308125 
L 597.895 23.837812 
" style="fill: none; stroke: #000000; stroke-width: 0.8; stroke-linejoin: miter; stroke-linecap: square"/>
   </g>
   <g id="patch_5">
    <path d="M 64.41375 529.308125 
L 597.895 529.308125 
" style="fill: none; stroke: #000000; stroke-width: 0.8; stroke-linejoin: miter; stroke-linecap: square"/>
   </g>
   <g id="patch_6">
    <path d="M 64.41375 23.837812 
L 597.895 23.837812 
" style="fill: none; stroke: #000000; stroke-width: 0.8; stroke-linejoin: miter; stroke-linecap: square"/>
   </g>
   <g id="text_12">
    <text style="font: 700 14px 'DejaVu Sans', 'Bitstream Vera Sans', 'Computer Modern Sans Serif', 'Lucida Grande', 'Verdana', 'Geneva', 'Lucid', 'Arial', 'Helvetica', 'Avant Garde', sans-serif; text-anchor: middle" x="331.154375" y="17.837813" transform="rotate(-0 331.154375 17.837813)">Coroutine Submission - Performance Trend</text>
   </g>
   <g id="legend_1">
    <g id="patch_7">
     <path d="M 631.569062 151.487813 
L 840.794062 151.487813 
Q 842.794062 151.487813 842.794062 149.487813 
L 842.794062 30.837813 
Q 842.794062 28.837813 840.794062 28.837813 
L 631.569062 28.837813 
Q 629.569062 28.837813 629.569062 30.837813 
L 629.569062 149.487813 
Q 629.569062 151.487813 631.569062 151.487813 
z
" style="fill: #ffffff; opacity: 0.8; stroke: #cccccc; stroke-linejoin: miter"/>
    </g>
    <g id="line2d_24">
     <path d="M 633.569062 36.93625 
L 643.569062 36.93625 
L 653.569062 36.93625 
" style="fill: none; stroke: #1f77b4; stroke-width: 2; stroke-linecap: square"/>
     <g>
      <use xlink:href="#mac7c6b818e" x="643.569062" y="36.93625" style="fill: #1f77b4; stroke: #1f77b4"/>
     </g>
    </g>
    <g id="text_13">
     <text style="font: 10px 'DejaVu Sans', 'Bitstream Vera Sans', 'Computer Modern Sans Serif', 'Lucida Grande', 'Verdana', 'Geneva', 'Lucid', 'Arial', 'Helvetica', 'Avant Garde', sans-serif; text-anchor: start" x="661.569062" y="40.43625" transform="rotate(-0 661.569062 40.43625)">gcc-14.2 - CoroutineSubmission_V1</text>
    </g>
    <g id="line2d_25">
     <path d="M 633.569062 51.8925 
L 643.569062 51.8925 
L 653.569062 51.8925 
" style="fill: none; stroke: #ff7f0e; stroke-width: 2; stroke-linecap: square"/>
     <g>
      <use xlink:href="#madfe27b986" x="643.569062" y="51.8925" style="fill: #ff7f0e; stroke: #ff7f0e"/>
     </g>
    </g>
    <g id="text_14">
     <text style="font: 10px 'DejaVu Sans', 'Bitstream Vera Sans', 'Computer Modern Sans Serif', 'Lucida Grande', 'Verdana', 'Geneva', 'Lucid', 'Arial', 'Helvetica', 'Avant Garde', sans-serif; text-anchor: start" x="661.569062" y="55.3925" transform="rotate(-0 661.569062 55.3925)">gcc-14.2 - LambdaSubmission_V1</text>
    </g>
    <g id="line2d_26">
     <path d="M 633.569062 66.84875 
L 643.569062 66.84875 
L 653.569062 66.84875 
" style="fill: none; stroke: #2ca02c; stroke-width: 2; stroke-linecap: square"/>
     <g>
      <use xlink:href="#meaed836dfb" x="643.569062" y="66.84875" style="fill: #2ca02c; stroke: #2ca02c"/>
     </g>
    </g>
    <g id="text_15">
     <text style="font: 10px 'DejaVu Sans', 'Bitstream Vera Sans', 'Computer Modern Sans Serif', 'Lucida Grande', 'Verdana', 'Geneva', 'Lucid', 'Arial', 'Helvetica', 'Avant Garde', sans-serif; text-anchor: start" x="661.569062" y="70.34875" transform="rotate(-0 661.569062 70.34875)">gcc-14.2 - CoroutineSubmission_V2</text>
    </g>
    <g id="line2d_27">
     <path d="M 633.569062 81.805 
L 643.569062 81.805 
L 653.569062 81.805 
" style="fill: none; stroke: #d62728; stroke-width: 2; stroke-linecap: square"/>
     <g>
      <use xlink:href="#m19342236fa" x="643.569062" y="81.805" style="fill: #d62728; stroke: #d62728"/>
     </g>
    </g>
    <g id="text_16">
     <text style="font: 10px 'DejaVu Sans', 'Bitstream Vera Sans', 'Computer Modern Sans Serif', 'Lucida Grande', 'Verdana', 'Geneva', 'Lucid', 'Arial', 'Helvetica', 'Avant Garde', sans-serif; text-anchor: start" x="661.569062" y="85.305" transform="rotate(-0 661.569062 85.305)">gcc-14.2 - LambdaSubmission_V2</text>
    </g>
    <g id="line2d_28">
     <path d="M 633.569062 96.76125 
L 643.569062 96.76125 
L 653.569062 96.76125 
" style="fill: none; stroke: #9467bd; stroke-width: 2; stroke-linecap: square"/>
     <g>
      <use xlink:href="#mf5a63e9872" x="643.569062" y="96.76125" style="fill: #9467bd; stroke: #9467bd"/>
     </g>
    </g>
    <g id="text_17">
     <text style="font: 10px 'DejaVu Sans', 'Bitstream Vera Sans', 'Computer Modern Sans Serif', 'Lucida Grande', 'Verdana', 'Geneva', 'Lucid', 'Arial', 'Helvetica', 'Avant Garde', sans-serif; text-anchor: start" x="661.569062" y="100.26125" transform="rotate(-0 661.569062 100.26125)">gcc-4.2 - CoroutineSubmission_V1</text>
    </g>
    <g id="line2d_29">
     <path d="M 633.569062 111.7175 
L 643.569062 111.7175 
L 653.569062 111.7175 
" style="fill: none; stroke: #8c564b; stroke-width: 2; stroke-linecap: square"/>
     <g>
      <use xlink:href="#m299e0f5a8c" x="643.569062" y="111.7175" style="fill: #8c564b; stroke: #8c564b"/>
     </g>
    </g>
    <g id="text_18">
     <text style="font: 10px 'DejaVu Sans', 'Bitstream Vera Sans', 'Computer Modern Sans Serif', 'Lucida Grande', 'Verdana', 'Geneva', 'Lucid', 'Arial', 'Helvetica', 'Avant Garde', sans-serif; text-anchor: start" x="661.569062" y="115.2175" transform="rotate(-0 661.569062 115.2175)">gcc-4.2 - LambdaSubmission_V1</text>
    </g>
    <g id="line2d_30">
     <path d="M 633.569062 126.67375 
L 643.569062 126.67375 
L 653.569062 126.67375 
" style="fill: none; stroke: #e377c2; stroke-width: 2; stroke-linecap: square"/>
     <g>
      <use xlink:href="#m25863b8e6f" x="643.569062" y="126.67375" style="fill: #e377c2; stroke: #e377c2"/>
     </g>
    </g>
    <g id="text_19">
     <text style="font: 10px 'DejaVu Sans', 'Bitstream Vera Sans', 'Computer Modern Sans Serif', 'Lucida Grande', 'Verdana', 'Geneva', 'Lucid', 'Arial', 'Helvetica', 'Avant Garde', sans-serif; text-anchor: start" x="661.569062" y="130.17375" transform="rotate(-0 661.569062 130.17375)">gcc-4.2 - CoroutineSubmission_V2</text>
    </g>
    <g id="line2d_31">
     <path d="M 633.569062 141.63 
L 643.569062 141.63 
L 653.569062 141.63 
" style="fill: none; stroke: #7f7f7f; stroke-width: 2; stroke-linecap: square"/>
     <g>
      <use xlink:href="#ma3734800ec" x="643.569062" y="141.63" style="fill: #7f7f7f; stroke: #7f7f7f"/>
     </g>
    </g>
    <g id="text_20">
     <text style="font: 10px 'DejaVu Sans', 'Bitstream Vera Sans', 'Computer Modern Sans Serif', 'Lucida Grande', 'Verdana', 'Geneva', 'Lucid', 'Arial', 'Helvetica', 'Avant Garde', sans-serif; text-anchor: start" x="661.569062" y="145.13" transform="rotate(-0 661.569062 145.13)">gcc-4.2 - LambdaSubmission_V2</text>
    </g>
   </g>
  </g>
 </g>
 <defs>
  <clipPath id="p867105d1eb">
   <rect x="64.41375" y="23.837813" width="533.48125" height="505.470313"/>
  </clipPath>
 </defs>
</svg>
