<?xml version="1.0" encoding="utf-8" standalone="no"?>
<!DOCTYPE svg PUBLIC "-//W3C//DTD SVG 1.1//EN"
  "http://www.w3.org/Graphics/SVG/1.1/DTD/svg11.dtd">
<svg xmlns:xlink="http://www.w3.org/1999/xlink" width="855.204687pt" height="568.8pt" viewBox="0 0 855.204687 568.8" xmlns="http://www.w3.org/2000/svg" version="1.1">
 <metadata>
  <rdf:RDF xmlns:dc="http://purl.org/dc/elements/1.1/" xmlns:cc="http://creativecommons.org/ns#" xmlns:rdf="http://www.w3.org/1999/02/22-rdf-syntax-ns#">
   <cc:Work>
    <dc:type rdf:resource="http://purl.org/dc/dcmitype/StillImage"/>
    <dc:date>2025-08-17T04:15:56.384691</dc:date>
    <dc:format>image/svg+xml</dc:format>
    <dc:creator>
     <cc:Agent>
      <dc:title>Matplotlib v3.9.4, https://matplotlib.org/</dc:title>
     </cc:Agent>
    </dc:creator>
   </cc:Work>
  </rdf:RDF>
 </metadata>
 <defs>
  <style type="text/css">*{stroke-linejoin: round; stroke-linecap: butt}</style>
 </defs>
 <g id="figure_1">
  <g id="patch_1">
   <path d="M 0 568.8 
L 855.204687 568.8 
L 855.204687 0 
L 0 0 
z
" style="fill: #ffffff"/>
  </g>
  <g id="axes_1">
   <g id="patch_2">
    <path d="M 64.41375 529.308125 
L 702.1075 529.308125 
L 702.1075 23.837812 
L 64.41375 23.837812 
z
" style="fill: #ffffff"/>
   </g>
   <g id="matplotlib.axis_1">
    <g id="xtick_1">
     <g id="line2d_1">
      <path d="M 68.194543 529.308125 
L 68.194543 23.837812 
" clip-path="url(#p3e08fe356c)" style="fill: none; stroke: #b0b0b0; stroke-opacity: 0.3; stroke-width: 0.8; stroke-linecap: square"/>
     </g>
     <g id="line2d_2">
      <defs>
       <path id="mb52be353c5" d="M 0 0 
L 0 3.5 
" style="stroke: #000000; stroke-width: 0.8"/>
      </defs>
      <g>
       <use xlink:href="#mb52be353c5" x="68.194543" y="529.308125" style="stroke: #000000; stroke-width: 0.8"/>
      </g>
     </g>
     <g id="text_1">
      <text style="font: 10px 'DejaVu Sans', 'Bitstream Vera Sans', 'Computer Modern Sans Serif', 'Lucida Grande', 'Verdana', 'Geneva', 'Lucid', 'Arial', 'Helvetica', 'Avant Garde', sans-serif; text-anchor: middle" x="68.194543" y="543.906563" transform="rotate(-0 68.194543 543.906563)">70</text>
     </g>
    </g>
    <g id="xtick_2">
     <g id="line2d_3">
      <path d="M 194.220976 529.308125 
L 194.220976 23.837812 
" clip-path="url(#p3e08fe356c)" style="fill: none; stroke: #b0b0b0; stroke-opacity: 0.3; stroke-width: 0.8; stroke-linecap: square"/>
     </g>
     <g id="line2d_4">
      <g>
       <use xlink:href="#mb52be353c5" x="194.220976" y="529.308125" style="stroke: #000000; stroke-width: 0.8"/>
      </g>
     </g>
     <g id="text_2">
      <text style="font: 10px 'DejaVu Sans', 'Bitstream Vera Sans', 'Computer Modern Sans Serif', 'Lucida Grande', 'Verdana', 'Geneva', 'Lucid', 'Arial', 'Helvetica', 'Avant Garde', sans-serif; text-anchor: middle" x="194.220976" y="543.906563" transform="rotate(-0 194.220976 543.906563)">75</text>
     </g>
    </g>
    <g id="xtick_3">
     <g id="line2d_5">
      <path d="M 320.247409 529.308125 
L 320.247409 23.837812 
" clip-path="url(#p3e08fe356c)" style="fill: none; stroke: #b0b0b0; stroke-opacity: 0.3; stroke-width: 0.8; stroke-linecap: square"/>
     </g>
     <g id="line2d_6">
      <g>
       <use xlink:href="#mb52be353c5" x="320.247409" y="529.308125" style="stroke: #000000; stroke-width: 0.8"/>
      </g>
     </g>
     <g id="text_3">
      <text style="font: 10px 'DejaVu Sans', 'Bitstream Vera Sans', 'Computer Modern Sans Serif', 'Lucida Grande', 'Verdana', 'Geneva', 'Lucid', 'Arial', 'Helvetica', 'Avant Garde', sans-serif; text-anchor: middle" x="320.247409" y="543.906563" transform="rotate(-0 320.247409 543.906563)">80</text>
     </g>
    </g>
    <g id="xtick_4">
     <g id="line2d_7">
      <path d="M 446.273841 529.308125 
L 446.273841 23.837812 
" clip-path="url(#p3e08fe356c)" style="fill: none; stroke: #b0b0b0; stroke-opacity: 0.3; stroke-width: 0.8; stroke-linecap: square"/>
     </g>
     <g id="line2d_8">
      <g>
       <use xlink:href="#mb52be353c5" x="446.273841" y="529.308125" style="stroke: #000000; stroke-width: 0.8"/>
      </g>
     </g>
     <g id="text_4">
      <text style="font: 10px 'DejaVu Sans', 'Bitstream Vera Sans', 'Computer Modern Sans Serif', 'Lucida Grande', 'Verdana', 'Geneva', 'Lucid', 'Arial', 'Helvetica', 'Avant Garde', sans-serif; text-anchor: middle" x="446.273841" y="543.906563" transform="rotate(-0 446.273841 543.906563)">85</text>
     </g>
    </g>
    <g id="xtick_5">
     <g id="line2d_9">
      <path d="M 572.300274 529.308125 
L 572.300274 23.837812 
" clip-path="url(#p3e08fe356c)" style="fill: none; stroke: #b0b0b0; stroke-opacity: 0.3; stroke-width: 0.8; stroke-linecap: square"/>
     </g>
     <g id="line2d_10">
      <g>
       <use xlink:href="#mb52be353c5" x="572.300274" y="529.308125" style="stroke: #000000; stroke-width: 0.8"/>
      </g>
     </g>
     <g id="text_5">
      <text style="font: 10px 'DejaVu Sans', 'Bitstream Vera Sans', 'Computer Modern Sans Serif', 'Lucida Grande', 'Verdana', 'Geneva', 'Lucid', 'Arial', 'Helvetica', 'Avant Garde', sans-serif; text-anchor: middle" x="572.300274" y="543.906563" transform="rotate(-0 572.300274 543.906563)">90</text>
     </g>
    </g>
    <g id="xtick_6">
     <g id="line2d_11">
      <path d="M 698.326707 529.308125 
L 698.326707 23.837812 
" clip-path="url(#p3e08fe356c)" style="fill: none; stroke: #b0b0b0; stroke-opacity: 0.3; stroke-width: 0.8; stroke-linecap: square"/>
     </g>
     <g id="line2d_12">
      <g>
       <use xlink:href="#mb52be353c5" x="698.326707" y="529.308125" style="stroke: #000000; stroke-width: 0.8"/>
      </g>
     </g>
     <g id="text_6">
      <text style="font: 10px 'DejaVu Sans', 'Bitstream Vera Sans', 'Computer Modern Sans Serif', 'Lucida Grande', 'Verdana', 'Geneva', 'Lucid', 'Arial', 'Helvetica', 'Avant Garde', sans-serif; text-anchor: middle" x="698.326707" y="543.906563" transform="rotate(-0 698.326707 543.906563)">95</text>
     </g>
    </g>
    <g id="text_7">
     <text style="font: 12px 'DejaVu Sans', 'Bitstream Vera Sans', 'Computer Modern Sans Serif', 'Lucida Grande', 'Verdana', 'Geneva', 'Lucid', 'Arial', 'Helvetica', 'Avant Garde', sans-serif; text-anchor: middle" x="383.260625" y="559.104375" transform="rotate(-0 383.260625 559.104375)">Build Number</text>
    </g>
   </g>
   <g id="matplotlib.axis_2">
    <g id="ytick_1">
     <g id="line2d_13">
      <defs>
       <path id="mf1d83773e7" d="M 0 0 
L -2 0 
" style="stroke: #000000; stroke-width: 0.6"/>
      </defs>
      <g>
       <use xlink:href="#mf1d83773e7" x="64.41375" y="417.517106" style="stroke: #000000; stroke-width: 0.6"/>
      </g>
     </g>
     <g id="text_8">
      <!-- $\mathdefault{3\times10^{5}}$ -->
      <g transform="translate(22.81375 421.316325)">
       <text>
        <tspan style="font: 10px 'DejaVu Sans'" x="0 8.310547 18.637695 25" y="-0.06406250000000036">3×10</tspan>
        <tspan style="font: 7px 'DejaVu Sans'" x="31.458008" y="-3.8921875000000004">5</tspan>
       </text>
      </g>
     </g>
    </g>
    <g id="ytick_2">
     <g id="line2d_14">
      <g>
       <use xlink:href="#mf1d83773e7" x="64.41375" y="310.596364" style="stroke: #000000; stroke-width: 0.6"/>
      </g>
     </g>
     <g id="text_9">
      <!-- $\mathdefault{4\times10^{5}}$ -->
      <g transform="translate(22.81375 314.395583)">
       <text>
        <tspan style="font: 10px 'DejaVu Sans'" x="0 8.310547 18.637695 25" y="-0.06406250000000036">4×10</tspan>
        <tspan style="font: 7px 'DejaVu Sans'" x="31.458008" y="-3.8921875000000004">5</tspan>
       </text>
      </g>
     </g>
    </g>
    <g id="ytick_3">
     <g id="line2d_15">
      <g>
       <use xlink:href="#mf1d83773e7" x="64.41375" y="227.662194" style="stroke: #000000; stroke-width: 0.6"/>
      </g>
     </g>
    </g>
    <g id="ytick_4">
     <g id="line2d_16">
      <g>
       <use xlink:href="#mf1d83773e7" x="64.41375" y="159.900043" style="stroke: #000000; stroke-width: 0.6"/>
      </g>
     </g>
     <g id="text_10">
      <!-- $\mathdefault{6\times10^{5}}$ -->
      <g transform="translate(22.81375 163.699262)">
       <text>
        <tspan style="font: 10px 'DejaVu Sans'" x="0 8.310547 18.637695 25" y="-0.06406250000000036">6×10</tspan>
        <tspan style="font: 7px 'DejaVu Sans'" x="31.458008" y="-3.8921875000000004">5</tspan>
       </text>
      </g>
     </g>
    </g>
    <g id="ytick_5">
     <g id="line2d_17">
      <g>
       <use xlink:href="#mf1d83773e7" x="64.41375" y="102.607961" style="stroke: #000000; stroke-width: 0.6"/>
      </g>
     </g>
    </g>
    <g id="ytick_6">
     <g id="line2d_18">
      <g>
       <use xlink:href="#mf1d83773e7" x="64.41375" y="52.979302" style="stroke: #000000; stroke-width: 0.6"/>
      </g>
     </g>
    </g>
    <g id="text_11">
     <text style="font: 12px 'DejaVu Sans', 'Bitstream Vera Sans', 'Computer Modern Sans Serif', 'Lucida Grande', 'Verdana', 'Geneva', 'Lucid', 'Arial', 'Helvetica', 'Avant Garde', sans-serif; text-anchor: middle" x="16.318125" y="276.572969" transform="rotate(-90 16.318125 276.572969)">Median Elapsed Time (nanoseconds)</text>
    </g>
   </g>
   <g id="line2d_19">
    <path d="M 93.39983 483.065549 
L 118.605116 268.959694 
L 143.810403 288.033313 
L 169.015689 403.521401 
L 194.220976 271.002301 
L 219.426262 480.560088 
L 244.631549 402.236399 
L 269.836835 205.322014 
L 295.042122 263.00251 
L 320.247409 483.63391 
L 345.452695 433.762301 
L 370.657982 268.082696 
L 395.863268 458.674828 
L 421.068555 376.149536 
L 446.273841 344.648346 
L 471.479128 486.539097 
L 521.889701 428.054547 
L 547.094988 158.211024 
L 572.300274 401.175922 
L 597.505561 144.989231 
L 622.710847 349.158296 
L 647.916134 228.101536 
L 673.12142 488.354296 
" clip-path="url(#p3e08fe356c)" style="fill: none; stroke: #1f77b4; stroke-width: 2; stroke-linecap: square"/>
    <defs>
     <path id="m1dc6fb6bfa" d="M 0 3 
C 0.795609 3 1.55874 2.683901 2.12132 2.12132 
C 2.683901 1.55874 3 0.795609 3 0 
C 3 -0.795609 2.683901 -1.55874 2.12132 -2.12132 
C 1.55874 -2.683901 0.795609 -3 0 -3 
C -0.795609 -3 -1.55874 -2.683901 -2.12132 -2.12132 
C -2.683901 -1.55874 -3 -0.795609 -3 0 
C -3 0.795609 -2.683901 1.55874 -2.12132 2.12132 
C -1.55874 2.683901 -0.795609 3 0 3 
z
" style="stroke: #1f77b4"/>
    </defs>
    <g clip-path="url(#p3e08fe356c)">
     <use xlink:href="#m1dc6fb6bfa" x="93.39983" y="483.065549" style="fill: #1f77b4; stroke: #1f77b4"/>
     <use xlink:href="#m1dc6fb6bfa" x="118.605116" y="268.959694" style="fill: #1f77b4; stroke: #1f77b4"/>
     <use xlink:href="#m1dc6fb6bfa" x="143.810403" y="288.033313" style="fill: #1f77b4; stroke: #1f77b4"/>
     <use xlink:href="#m1dc6fb6bfa" x="169.015689" y="403.521401" style="fill: #1f77b4; stroke: #1f77b4"/>
     <use xlink:href="#m1dc6fb6bfa" x="194.220976" y="271.002301" style="fill: #1f77b4; stroke: #1f77b4"/>
     <use xlink:href="#m1dc6fb6bfa" x="219.426262" y="480.560088" style="fill: #1f77b4; stroke: #1f77b4"/>
     <use xlink:href="#m1dc6fb6bfa" x="244.631549" y="402.236399" style="fill: #1f77b4; stroke: #1f77b4"/>
     <use xlink:href="#m1dc6fb6bfa" x="269.836835" y="205.322014" style="fill: #1f77b4; stroke: #1f77b4"/>
     <use xlink:href="#m1dc6fb6bfa" x="295.042122" y="263.00251" style="fill: #1f77b4; stroke: #1f77b4"/>
     <use xlink:href="#m1dc6fb6bfa" x="320.247409" y="483.63391" style="fill: #1f77b4; stroke: #1f77b4"/>
     <use xlink:href="#m1dc6fb6bfa" x="345.452695" y="433.762301" style="fill: #1f77b4; stroke: #1f77b4"/>
     <use xlink:href="#m1dc6fb6bfa" x="370.657982" y="268.082696" style="fill: #1f77b4; stroke: #1f77b4"/>
     <use xlink:href="#m1dc6fb6bfa" x="395.863268" y="458.674828" style="fill: #1f77b4; stroke: #1f77b4"/>
     <use xlink:href="#m1dc6fb6bfa" x="421.068555" y="376.149536" style="fill: #1f77b4; stroke: #1f77b4"/>
     <use xlink:href="#m1dc6fb6bfa" x="446.273841" y="344.648346" style="fill: #1f77b4; stroke: #1f77b4"/>
     <use xlink:href="#m1dc6fb6bfa" x="471.479128" y="486.539097" style="fill: #1f77b4; stroke: #1f77b4"/>
     <use xlink:href="#m1dc6fb6bfa" x="521.889701" y="428.054547" style="fill: #1f77b4; stroke: #1f77b4"/>
     <use xlink:href="#m1dc6fb6bfa" x="547.094988" y="158.211024" style="fill: #1f77b4; stroke: #1f77b4"/>
     <use xlink:href="#m1dc6fb6bfa" x="572.300274" y="401.175922" style="fill: #1f77b4; stroke: #1f77b4"/>
     <use xlink:href="#m1dc6fb6bfa" x="597.505561" y="144.989231" style="fill: #1f77b4; stroke: #1f77b4"/>
     <use xlink:href="#m1dc6fb6bfa" x="622.710847" y="349.158296" style="fill: #1f77b4; stroke: #1f77b4"/>
     <use xlink:href="#m1dc6fb6bfa" x="647.916134" y="228.101536" style="fill: #1f77b4; stroke: #1f77b4"/>
     <use xlink:href="#m1dc6fb6bfa" x="673.12142" y="488.354296" style="fill: #1f77b4; stroke: #1f77b4"/>
    </g>
   </g>
   <g id="line2d_20">
    <path d="M 93.39983 484.672455 
L 118.605116 269.775573 
L 143.810403 276.331207 
L 169.015689 452.448146 
L 194.220976 328.670915 
L 219.426262 487.574584 
L 244.631549 484.70511 
L 269.836835 444.072349 
L 295.042122 366.748232 
L 320.247409 345.826664 
L 345.452695 320.759481 
L 370.657982 392.006131 
L 395.863268 481.388315 
L 421.068555 263.938799 
L 446.273841 309.303741 
L 471.479128 485.409362 
L 521.889701 486.58206 
L 547.094988 264.69666 
L 572.300274 494.502361 
L 597.505561 264.359952 
L 622.710847 337.346163 
L 647.916134 294.451892 
L 673.12142 484.417998 
" clip-path="url(#p3e08fe356c)" style="fill: none; stroke: #ff7f0e; stroke-width: 2; stroke-linecap: square"/>
    <defs>
     <path id="m716cb63f4d" d="M 0 3 
C 0.795609 3 1.55874 2.683901 2.12132 2.12132 
C 2.683901 1.55874 3 0.795609 3 0 
C 3 -0.795609 2.683901 -1.55874 2.12132 -2.12132 
C 1.55874 -2.683901 0.795609 -3 0 -3 
C -0.795609 -3 -1.55874 -2.683901 -2.12132 -2.12132 
C -2.683901 -1.55874 -3 -0.795609 -3 0 
C -3 0.795609 -2.683901 1.55874 -2.12132 2.12132 
C -1.55874 2.683901 -0.795609 3 0 3 
z
" style="stroke: #ff7f0e"/>
    </defs>
    <g clip-path="url(#p3e08fe356c)">
     <use xlink:href="#m716cb63f4d" x="93.39983" y="484.672455" style="fill: #ff7f0e; stroke: #ff7f0e"/>
     <use xlink:href="#m716cb63f4d" x="118.605116" y="269.775573" style="fill: #ff7f0e; stroke: #ff7f0e"/>
     <use xlink:href="#m716cb63f4d" x="143.810403" y="276.331207" style="fill: #ff7f0e; stroke: #ff7f0e"/>
     <use xlink:href="#m716cb63f4d" x="169.015689" y="452.448146" style="fill: #ff7f0e; stroke: #ff7f0e"/>
     <use xlink:href="#m716cb63f4d" x="194.220976" y="328.670915" style="fill: #ff7f0e; stroke: #ff7f0e"/>
     <use xlink:href="#m716cb63f4d" x="219.426262" y="487.574584" style="fill: #ff7f0e; stroke: #ff7f0e"/>
     <use xlink:href="#m716cb63f4d" x="244.631549" y="484.70511" style="fill: #ff7f0e; stroke: #ff7f0e"/>
     <use xlink:href="#m716cb63f4d" x="269.836835" y="444.072349" style="fill: #ff7f0e; stroke: #ff7f0e"/>
     <use xlink:href="#m716cb63f4d" x="295.042122" y="366.748232" style="fill: #ff7f0e; stroke: #ff7f0e"/>
     <use xlink:href="#m716cb63f4d" x="320.247409" y="345.826664" style="fill: #ff7f0e; stroke: #ff7f0e"/>
     <use xlink:href="#m716cb63f4d" x="345.452695" y="320.759481" style="fill: #ff7f0e; stroke: #ff7f0e"/>
     <use xlink:href="#m716cb63f4d" x="370.657982" y="392.006131" style="fill: #ff7f0e; stroke: #ff7f0e"/>
     <use xlink:href="#m716cb63f4d" x="395.863268" y="481.388315" style="fill: #ff7f0e; stroke: #ff7f0e"/>
     <use xlink:href="#m716cb63f4d" x="421.068555" y="263.938799" style="fill: #ff7f0e; stroke: #ff7f0e"/>
     <use xlink:href="#m716cb63f4d" x="446.273841" y="309.303741" style="fill: #ff7f0e; stroke: #ff7f0e"/>
     <use xlink:href="#m716cb63f4d" x="471.479128" y="485.409362" style="fill: #ff7f0e; stroke: #ff7f0e"/>
     <use xlink:href="#m716cb63f4d" x="521.889701" y="486.58206" style="fill: #ff7f0e; stroke: #ff7f0e"/>
     <use xlink:href="#m716cb63f4d" x="547.094988" y="264.69666" style="fill: #ff7f0e; stroke: #ff7f0e"/>
     <use xlink:href="#m716cb63f4d" x="572.300274" y="494.502361" style="fill: #ff7f0e; stroke: #ff7f0e"/>
     <use xlink:href="#m716cb63f4d" x="597.505561" y="264.359952" style="fill: #ff7f0e; stroke: #ff7f0e"/>
     <use xlink:href="#m716cb63f4d" x="622.710847" y="337.346163" style="fill: #ff7f0e; stroke: #ff7f0e"/>
     <use xlink:href="#m716cb63f4d" x="647.916134" y="294.451892" style="fill: #ff7f0e; stroke: #ff7f0e"/>
     <use xlink:href="#m716cb63f4d" x="673.12142" y="484.417998" style="fill: #ff7f0e; stroke: #ff7f0e"/>
    </g>
   </g>
   <g id="line2d_21">
    <path d="M 93.39983 500.542654 
L 118.605116 384.421088 
L 143.810403 252.548823 
L 169.015689 498.643822 
L 194.220976 472.734339 
L 219.426262 496.566556 
L 244.631549 495.182537 
L 269.836835 498.89171 
L 295.042122 498.822322 
L 320.247409 491.607689 
L 345.452695 497.495949 
L 370.657982 497.439262 
L 395.863268 497.671439 
L 421.068555 398.540483 
L 446.273841 489.7543 
L 471.479128 498.685279 
L 521.889701 494.982122 
L 547.094988 459.178929 
L 572.300274 497.520992 
L 597.505561 391.026894 
L 622.710847 448.839444 
L 647.916134 356.844508 
L 673.12142 477.186518 
" clip-path="url(#p3e08fe356c)" style="fill: none; stroke: #2ca02c; stroke-width: 2; stroke-linecap: square"/>
    <defs>
     <path id="m995ae93d0d" d="M 0 3 
C 0.795609 3 1.55874 2.683901 2.12132 2.12132 
C 2.683901 1.55874 3 0.795609 3 0 
C 3 -0.795609 2.683901 -1.55874 2.12132 -2.12132 
C 1.55874 -2.683901 0.795609 -3 0 -3 
C -0.795609 -3 -1.55874 -2.683901 -2.12132 -2.12132 
C -2.683901 -1.55874 -3 -0.795609 -3 0 
C -3 0.795609 -2.683901 1.55874 -2.12132 2.12132 
C -1.55874 2.683901 -0.795609 3 0 3 
z
" style="stroke: #2ca02c"/>
    </defs>
    <g clip-path="url(#p3e08fe356c)">
     <use xlink:href="#m995ae93d0d" x="93.39983" y="500.542654" style="fill: #2ca02c; stroke: #2ca02c"/>
     <use xlink:href="#m995ae93d0d" x="118.605116" y="384.421088" style="fill: #2ca02c; stroke: #2ca02c"/>
     <use xlink:href="#m995ae93d0d" x="143.810403" y="252.548823" style="fill: #2ca02c; stroke: #2ca02c"/>
     <use xlink:href="#m995ae93d0d" x="169.015689" y="498.643822" style="fill: #2ca02c; stroke: #2ca02c"/>
     <use xlink:href="#m995ae93d0d" x="194.220976" y="472.734339" style="fill: #2ca02c; stroke: #2ca02c"/>
     <use xlink:href="#m995ae93d0d" x="219.426262" y="496.566556" style="fill: #2ca02c; stroke: #2ca02c"/>
     <use xlink:href="#m995ae93d0d" x="244.631549" y="495.182537" style="fill: #2ca02c; stroke: #2ca02c"/>
     <use xlink:href="#m995ae93d0d" x="269.836835" y="498.89171" style="fill: #2ca02c; stroke: #2ca02c"/>
     <use xlink:href="#m995ae93d0d" x="295.042122" y="498.822322" style="fill: #2ca02c; stroke: #2ca02c"/>
     <use xlink:href="#m995ae93d0d" x="320.247409" y="491.607689" style="fill: #2ca02c; stroke: #2ca02c"/>
     <use xlink:href="#m995ae93d0d" x="345.452695" y="497.495949" style="fill: #2ca02c; stroke: #2ca02c"/>
     <use xlink:href="#m995ae93d0d" x="370.657982" y="497.439262" style="fill: #2ca02c; stroke: #2ca02c"/>
     <use xlink:href="#m995ae93d0d" x="395.863268" y="497.671439" style="fill: #2ca02c; stroke: #2ca02c"/>
     <use xlink:href="#m995ae93d0d" x="421.068555" y="398.540483" style="fill: #2ca02c; stroke: #2ca02c"/>
     <use xlink:href="#m995ae93d0d" x="446.273841" y="489.7543" style="fill: #2ca02c; stroke: #2ca02c"/>
     <use xlink:href="#m995ae93d0d" x="471.479128" y="498.685279" style="fill: #2ca02c; stroke: #2ca02c"/>
     <use xlink:href="#m995ae93d0d" x="521.889701" y="494.982122" style="fill: #2ca02c; stroke: #2ca02c"/>
     <use xlink:href="#m995ae93d0d" x="547.094988" y="459.178929" style="fill: #2ca02c; stroke: #2ca02c"/>
     <use xlink:href="#m995ae93d0d" x="572.300274" y="497.520992" style="fill: #2ca02c; stroke: #2ca02c"/>
     <use xlink:href="#m995ae93d0d" x="597.505561" y="391.026894" style="fill: #2ca02c; stroke: #2ca02c"/>
     <use xlink:href="#m995ae93d0d" x="622.710847" y="448.839444" style="fill: #2ca02c; stroke: #2ca02c"/>
     <use xlink:href="#m995ae93d0d" x="647.916134" y="356.844508" style="fill: #2ca02c; stroke: #2ca02c"/>
     <use xlink:href="#m995ae93d0d" x="673.12142" y="477.186518" style="fill: #2ca02c; stroke: #2ca02c"/>
    </g>
   </g>
   <g id="line2d_22">
    <path d="M 93.39983 501.885406 
L 118.605116 499.705447 
L 143.810403 505.057818 
L 169.015689 504.48425 
L 194.220976 283.836758 
L 219.426262 285.907202 
L 244.631549 505.819033 
L 269.836835 402.208221 
L 295.042122 498.758958 
L 320.247409 501.847942 
L 345.452695 504.556739 
L 370.657982 502.32359 
L 395.863268 46.813736 
L 446.273841 459.775037 
L 471.479128 501.449446 
L 521.889701 502.030943 
L 547.094988 506.332202 
L 572.300274 83.74864 
L 597.505561 505.781328 
L 622.710847 505.526448 
L 673.12142 505.591918 
" clip-path="url(#p3e08fe356c)" style="fill: none; stroke: #d62728; stroke-width: 2; stroke-linecap: square"/>
    <defs>
     <path id="m6815330f96" d="M 0 3 
C 0.795609 3 1.55874 2.683901 2.12132 2.12132 
C 2.683901 1.55874 3 0.795609 3 0 
C 3 -0.795609 2.683901 -1.55874 2.12132 -2.12132 
C 1.55874 -2.683901 0.795609 -3 0 -3 
C -0.795609 -3 -1.55874 -2.683901 -2.12132 -2.12132 
C -2.683901 -1.55874 -3 -0.795609 -3 0 
C -3 0.795609 -2.683901 1.55874 -2.12132 2.12132 
C -1.55874 2.683901 -0.795609 3 0 3 
z
" style="stroke: #d62728"/>
    </defs>
    <g clip-path="url(#p3e08fe356c)">
     <use xlink:href="#m6815330f96" x="93.39983" y="501.885406" style="fill: #d62728; stroke: #d62728"/>
     <use xlink:href="#m6815330f96" x="118.605116" y="499.705447" style="fill: #d62728; stroke: #d62728"/>
     <use xlink:href="#m6815330f96" x="143.810403" y="505.057818" style="fill: #d62728; stroke: #d62728"/>
     <use xlink:href="#m6815330f96" x="169.015689" y="504.48425" style="fill: #d62728; stroke: #d62728"/>
     <use xlink:href="#m6815330f96" x="194.220976" y="283.836758" style="fill: #d62728; stroke: #d62728"/>
     <use xlink:href="#m6815330f96" x="219.426262" y="285.907202" style="fill: #d62728; stroke: #d62728"/>
     <use xlink:href="#m6815330f96" x="244.631549" y="505.819033" style="fill: #d62728; stroke: #d62728"/>
     <use xlink:href="#m6815330f96" x="269.836835" y="402.208221" style="fill: #d62728; stroke: #d62728"/>
     <use xlink:href="#m6815330f96" x="295.042122" y="498.758958" style="fill: #d62728; stroke: #d62728"/>
     <use xlink:href="#m6815330f96" x="320.247409" y="501.847942" style="fill: #d62728; stroke: #d62728"/>
     <use xlink:href="#m6815330f96" x="345.452695" y="504.556739" style="fill: #d62728; stroke: #d62728"/>
     <use xlink:href="#m6815330f96" x="370.657982" y="502.32359" style="fill: #d62728; stroke: #d62728"/>
     <use xlink:href="#m6815330f96" x="395.863268" y="46.813736" style="fill: #d62728; stroke: #d62728"/>
     <use xlink:href="#m6815330f96" x="446.273841" y="459.775037" style="fill: #d62728; stroke: #d62728"/>
     <use xlink:href="#m6815330f96" x="471.479128" y="501.449446" style="fill: #d62728; stroke: #d62728"/>
     <use xlink:href="#m6815330f96" x="521.889701" y="502.030943" style="fill: #d62728; stroke: #d62728"/>
     <use xlink:href="#m6815330f96" x="547.094988" y="506.332202" style="fill: #d62728; stroke: #d62728"/>
     <use xlink:href="#m6815330f96" x="572.300274" y="83.74864" style="fill: #d62728; stroke: #d62728"/>
     <use xlink:href="#m6815330f96" x="597.505561" y="505.781328" style="fill: #d62728; stroke: #d62728"/>
     <use xlink:href="#m6815330f96" x="622.710847" y="505.526448" style="fill: #d62728; stroke: #d62728"/>
     <use xlink:href="#m6815330f96" x="673.12142" y="505.591918" style="fill: #d62728; stroke: #d62728"/>
    </g>
   </g>
   <g id="line2d_23">
    <path d="M 93.39983 494.703431 
L 118.605116 460.163201 
L 143.810403 497.614726 
L 169.015689 490.226762 
L 194.220976 355.449911 
L 219.426262 170.174584 
L 244.631549 501.339682 
L 269.836835 469.822148 
L 295.042122 355.955659 
L 320.247409 497.262039 
L 345.452695 503.613605 
L 370.657982 501.681656 
L 395.863268 185.173438 
L 446.273841 167.423177 
L 471.479128 502.541552 
L 521.889701 498.257827 
L 547.094988 500.649239 
L 572.300274 273.835928 
L 597.505561 489.604767 
L 622.710847 495.807063 
L 673.12142 501.045327 
" clip-path="url(#p3e08fe356c)" style="fill: none; stroke: #9467bd; stroke-width: 2; stroke-linecap: square"/>
    <defs>
     <path id="meec07c1644" d="M 0 3 
C 0.795609 3 1.55874 2.683901 2.12132 2.12132 
C 2.683901 1.55874 3 0.795609 3 0 
C 3 -0.795609 2.683901 -1.55874 2.12132 -2.12132 
C 1.55874 -2.683901 0.795609 -3 0 -3 
C -0.795609 -3 -1.55874 -2.683901 -2.12132 -2.12132 
C -2.683901 -1.55874 -3 -0.795609 -3 0 
C -3 0.795609 -2.683901 1.55874 -2.12132 2.12132 
C -1.55874 2.683901 -0.795609 3 0 3 
z
" style="stroke: #9467bd"/>
    </defs>
    <g clip-path="url(#p3e08fe356c)">
     <use xlink:href="#meec07c1644" x="93.39983" y="494.703431" style="fill: #9467bd; stroke: #9467bd"/>
     <use xlink:href="#meec07c1644" x="118.605116" y="460.163201" style="fill: #9467bd; stroke: #9467bd"/>
     <use xlink:href="#meec07c1644" x="143.810403" y="497.614726" style="fill: #9467bd; stroke: #9467bd"/>
     <use xlink:href="#meec07c1644" x="169.015689" y="490.226762" style="fill: #9467bd; stroke: #9467bd"/>
     <use xlink:href="#meec07c1644" x="194.220976" y="355.449911" style="fill: #9467bd; stroke: #9467bd"/>
     <use xlink:href="#meec07c1644" x="219.426262" y="170.174584" style="fill: #9467bd; stroke: #9467bd"/>
     <use xlink:href="#meec07c1644" x="244.631549" y="501.339682" style="fill: #9467bd; stroke: #9467bd"/>
     <use xlink:href="#meec07c1644" x="269.836835" y="469.822148" style="fill: #9467bd; stroke: #9467bd"/>
     <use xlink:href="#meec07c1644" x="295.042122" y="355.955659" style="fill: #9467bd; stroke: #9467bd"/>
     <use xlink:href="#meec07c1644" x="320.247409" y="497.262039" style="fill: #9467bd; stroke: #9467bd"/>
     <use xlink:href="#meec07c1644" x="345.452695" y="503.613605" style="fill: #9467bd; stroke: #9467bd"/>
     <use xlink:href="#meec07c1644" x="370.657982" y="501.681656" style="fill: #9467bd; stroke: #9467bd"/>
     <use xlink:href="#meec07c1644" x="395.863268" y="185.173438" style="fill: #9467bd; stroke: #9467bd"/>
     <use xlink:href="#meec07c1644" x="446.273841" y="167.423177" style="fill: #9467bd; stroke: #9467bd"/>
     <use xlink:href="#meec07c1644" x="471.479128" y="502.541552" style="fill: #9467bd; stroke: #9467bd"/>
     <use xlink:href="#meec07c1644" x="521.889701" y="498.257827" style="fill: #9467bd; stroke: #9467bd"/>
     <use xlink:href="#meec07c1644" x="547.094988" y="500.649239" style="fill: #9467bd; stroke: #9467bd"/>
     <use xlink:href="#meec07c1644" x="572.300274" y="273.835928" style="fill: #9467bd; stroke: #9467bd"/>
     <use xlink:href="#meec07c1644" x="597.505561" y="489.604767" style="fill: #9467bd; stroke: #9467bd"/>
     <use xlink:href="#meec07c1644" x="622.710847" y="495.807063" style="fill: #9467bd; stroke: #9467bd"/>
     <use xlink:href="#meec07c1644" x="673.12142" y="501.045327" style="fill: #9467bd; stroke: #9467bd"/>
    </g>
   </g>
   <g id="line2d_24">
    <path d="M 93.39983 363.05938 
L 118.605116 356.389255 
L 143.810403 362.037416 
L 169.015689 364.523161 
L 194.220976 355.768218 
L 219.426262 358.35454 
L 244.631549 466.216426 
L 269.836835 461.26602 
L 295.042122 357.760592 
L 320.247409 361.919308 
L 345.452695 364.314708 
L 370.657982 362.847041 
L 395.863268 402.423114 
L 446.273841 301.775642 
L 471.479128 361.194415 
L 521.889701 362.768661 
L 547.094988 361.120002 
L 572.300274 437.720081 
L 597.505561 392.130959 
L 622.710847 361.183769 
L 673.12142 465.418755 
" clip-path="url(#p3e08fe356c)" style="fill: none; stroke: #8c564b; stroke-width: 2; stroke-linecap: square"/>
    <defs>
     <path id="m6cb225571b" d="M 0 3 
C 0.795609 3 1.55874 2.683901 2.12132 2.12132 
C 2.683901 1.55874 3 0.795609 3 0 
C 3 -0.795609 2.683901 -1.55874 2.12132 -2.12132 
C 1.55874 -2.683901 0.795609 -3 0 -3 
C -0.795609 -3 -1.55874 -2.683901 -2.12132 -2.12132 
C -2.683901 -1.55874 -3 -0.795609 -3 0 
C -3 0.795609 -2.683901 1.55874 -2.12132 2.12132 
C -1.55874 2.683901 -0.795609 3 0 3 
z
" style="stroke: #8c564b"/>
    </defs>
    <g clip-path="url(#p3e08fe356c)">
     <use xlink:href="#m6cb225571b" x="93.39983" y="363.05938" style="fill: #8c564b; stroke: #8c564b"/>
     <use xlink:href="#m6cb225571b" x="118.605116" y="356.389255" style="fill: #8c564b; stroke: #8c564b"/>
     <use xlink:href="#m6cb225571b" x="143.810403" y="362.037416" style="fill: #8c564b; stroke: #8c564b"/>
     <use xlink:href="#m6cb225571b" x="169.015689" y="364.523161" style="fill: #8c564b; stroke: #8c564b"/>
     <use xlink:href="#m6cb225571b" x="194.220976" y="355.768218" style="fill: #8c564b; stroke: #8c564b"/>
     <use xlink:href="#m6cb225571b" x="219.426262" y="358.35454" style="fill: #8c564b; stroke: #8c564b"/>
     <use xlink:href="#m6cb225571b" x="244.631549" y="466.216426" style="fill: #8c564b; stroke: #8c564b"/>
     <use xlink:href="#m6cb225571b" x="269.836835" y="461.26602" style="fill: #8c564b; stroke: #8c564b"/>
     <use xlink:href="#m6cb225571b" x="295.042122" y="357.760592" style="fill: #8c564b; stroke: #8c564b"/>
     <use xlink:href="#m6cb225571b" x="320.247409" y="361.919308" style="fill: #8c564b; stroke: #8c564b"/>
     <use xlink:href="#m6cb225571b" x="345.452695" y="364.314708" style="fill: #8c564b; stroke: #8c564b"/>
     <use xlink:href="#m6cb225571b" x="370.657982" y="362.847041" style="fill: #8c564b; stroke: #8c564b"/>
     <use xlink:href="#m6cb225571b" x="395.863268" y="402.423114" style="fill: #8c564b; stroke: #8c564b"/>
     <use xlink:href="#m6cb225571b" x="446.273841" y="301.775642" style="fill: #8c564b; stroke: #8c564b"/>
     <use xlink:href="#m6cb225571b" x="471.479128" y="361.194415" style="fill: #8c564b; stroke: #8c564b"/>
     <use xlink:href="#m6cb225571b" x="521.889701" y="362.768661" style="fill: #8c564b; stroke: #8c564b"/>
     <use xlink:href="#m6cb225571b" x="547.094988" y="361.120002" style="fill: #8c564b; stroke: #8c564b"/>
     <use xlink:href="#m6cb225571b" x="572.300274" y="437.720081" style="fill: #8c564b; stroke: #8c564b"/>
     <use xlink:href="#m6cb225571b" x="597.505561" y="392.130959" style="fill: #8c564b; stroke: #8c564b"/>
     <use xlink:href="#m6cb225571b" x="622.710847" y="361.183769" style="fill: #8c564b; stroke: #8c564b"/>
     <use xlink:href="#m6cb225571b" x="673.12142" y="465.418755" style="fill: #8c564b; stroke: #8c564b"/>
    </g>
   </g>
   <g id="patch_3">
    <path d="M 64.41375 529.308125 
L 64.41375 23.837813 
" style="fill: none; stroke: #000000; stroke-width: 0.8; stroke-linejoin: miter; stroke-linecap: square"/>
   </g>
   <g id="patch_4">
    <path d="M 702.1075 529.308125 
L 702.1075 23.837813 
" style="fill: none; stroke: #000000; stroke-width: 0.8; stroke-linejoin: miter; stroke-linecap: square"/>
   </g>
   <g id="patch_5">
    <path d="M 64.41375 529.308125 
L 702.1075 529.308125 
" style="fill: none; stroke: #000000; stroke-width: 0.8; stroke-linejoin: miter; stroke-linecap: square"/>
   </g>
   <g id="patch_6">
    <path d="M 64.41375 23.837812 
L 702.1075 23.837812 
" style="fill: none; stroke: #000000; stroke-width: 0.8; stroke-linejoin: miter; stroke-linecap: square"/>
   </g>
   <g id="text_12">
    <text style="font: 700 14px 'DejaVu Sans', 'Bitstream Vera Sans', 'Computer Modern Sans Serif', 'Lucida Grande', 'Verdana', 'Geneva', 'Lucid', 'Arial', 'Helvetica', 'Avant Garde', sans-serif; text-anchor: middle" x="383.260625" y="17.837813" transform="rotate(-0 383.260625 17.837813)">Mixedworkload - Performance Trend</text>
   </g>
   <g id="legend_1">
    <g id="patch_7">
     <path d="M 740.992188 119.906563 
L 846.004688 119.906563 
Q 848.004688 119.906563 848.004688 117.906563 
L 848.004688 30.837813 
Q 848.004688 28.837813 846.004688 28.837813 
L 740.992188 28.837813 
Q 738.992188 28.837813 738.992188 30.837813 
L 738.992188 117.906563 
Q 738.992188 119.906563 740.992188 119.906563 
z
" style="fill: #ffffff; opacity: 0.8; stroke: #cccccc; stroke-linejoin: miter"/>
    </g>
    <g id="line2d_25">
     <path d="M 742.992188 36.93625 
L 752.992188 36.93625 
L 762.992188 36.93625 
" style="fill: none; stroke: #1f77b4; stroke-width: 2; stroke-linecap: square"/>
     <g>
      <use xlink:href="#m1dc6fb6bfa" x="752.992188" y="36.93625" style="fill: #1f77b4; stroke: #1f77b4"/>
     </g>
    </g>
    <g id="text_13">
     <text style="font: 10px 'DejaVu Sans', 'Bitstream Vera Sans', 'Computer Modern Sans Serif', 'Lucida Grande', 'Verdana', 'Geneva', 'Lucid', 'Arial', 'Helvetica', 'Avant Garde', sans-serif; text-anchor: start" x="770.992188" y="40.43625" transform="rotate(-0 770.992188 40.43625)">gcc-14.2 - V1</text>
    </g>
    <g id="line2d_26">
     <path d="M 742.992188 51.614375 
L 752.992188 51.614375 
L 762.992188 51.614375 
" style="fill: none; stroke: #ff7f0e; stroke-width: 2; stroke-linecap: square"/>
     <g>
      <use xlink:href="#m716cb63f4d" x="752.992188" y="51.614375" style="fill: #ff7f0e; stroke: #ff7f0e"/>
     </g>
    </g>
    <g id="text_14">
     <text style="font: 10px 'DejaVu Sans', 'Bitstream Vera Sans', 'Computer Modern Sans Serif', 'Lucida Grande', 'Verdana', 'Geneva', 'Lucid', 'Arial', 'Helvetica', 'Avant Garde', sans-serif; text-anchor: start" x="770.992188" y="55.114375" transform="rotate(-0 770.992188 55.114375)">gcc-14.2 - V2</text>
    </g>
    <g id="line2d_27">
     <path d="M 742.992188 66.2925 
L 752.992188 66.2925 
L 762.992188 66.2925 
" style="fill: none; stroke: #2ca02c; stroke-width: 2; stroke-linecap: square"/>
     <g>
      <use xlink:href="#m995ae93d0d" x="752.992188" y="66.2925" style="fill: #2ca02c; stroke: #2ca02c"/>
     </g>
    </g>
    <g id="text_15">
     <text style="font: 10px 'DejaVu Sans', 'Bitstream Vera Sans', 'Computer Modern Sans Serif', 'Lucida Grande', 'Verdana', 'Geneva', 'Lucid', 'Arial', 'Helvetica', 'Avant Garde', sans-serif; text-anchor: start" x="770.992188" y="69.7925" transform="rotate(-0 770.992188 69.7925)">gcc-14.2 - TBB</text>
    </g>
    <g id="line2d_28">
     <path d="M 742.992188 80.970625 
L 752.992188 80.970625 
L 762.992188 80.970625 
" style="fill: none; stroke: #d62728; stroke-width: 2; stroke-linecap: square"/>
     <g>
      <use xlink:href="#m6815330f96" x="752.992188" y="80.970625" style="fill: #d62728; stroke: #d62728"/>
     </g>
    </g>
    <g id="text_16">
     <text style="font: 10px 'DejaVu Sans', 'Bitstream Vera Sans', 'Computer Modern Sans Serif', 'Lucida Grande', 'Verdana', 'Geneva', 'Lucid', 'Arial', 'Helvetica', 'Avant Garde', sans-serif; text-anchor: start" x="770.992188" y="84.470625" transform="rotate(-0 770.992188 84.470625)">gcc-4.2 - V1</text>
    </g>
    <g id="line2d_29">
     <path d="M 742.992188 95.64875 
L 752.992188 95.64875 
L 762.992188 95.64875 
" style="fill: none; stroke: #9467bd; stroke-width: 2; stroke-linecap: square"/>
     <g>
      <use xlink:href="#meec07c1644" x="752.992188" y="95.64875" style="fill: #9467bd; stroke: #9467bd"/>
     </g>
    </g>
    <g id="text_17">
     <text style="font: 10px 'DejaVu Sans', 'Bitstream Vera Sans', 'Computer Modern Sans Serif', 'Lucida Grande', 'Verdana', 'Geneva', 'Lucid', 'Arial', 'Helvetica', 'Avant Garde', sans-serif; text-anchor: start" x="770.992188" y="99.14875" transform="rotate(-0 770.992188 99.14875)">gcc-4.2 - V2</text>
    </g>
    <g id="line2d_30">
     <path d="M 742.992188 110.326875 
L 752.992188 110.326875 
L 762.992188 110.326875 
" style="fill: none; stroke: #8c564b; stroke-width: 2; stroke-linecap: square"/>
     <g>
      <use xlink:href="#m6cb225571b" x="752.992188" y="110.326875" style="fill: #8c564b; stroke: #8c564b"/>
     </g>
    </g>
    <g id="text_18">
     <text style="font: 10px 'DejaVu Sans', 'Bitstream Vera Sans', 'Computer Modern Sans Serif', 'Lucida Grande', 'Verdana', 'Geneva', 'Lucid', 'Arial', 'Helvetica', 'Avant Garde', sans-serif; text-anchor: start" x="770.992188" y="113.826875" transform="rotate(-0 770.992188 113.826875)">gcc-4.2 - TBB</text>
    </g>
   </g>
  </g>
 </g>
 <defs>
  <clipPath id="p3e08fe356c">
   <rect x="64.41375" y="23.837813" width="637.69375" height="505.470313"/>
  </clipPath>
 </defs>
</svg>
