<?xml version="1.0" encoding="utf-8" standalone="no"?>
<!DOCTYPE svg PUBLIC "-//W3C//DTD SVG 1.1//EN"
  "http://www.w3.org/Graphics/SVG/1.1/DTD/svg11.dtd">
<svg xmlns:xlink="http://www.w3.org/1999/xlink" width="856.684141pt" height="568.8pt" viewBox="0 0 856.684141 568.8" xmlns="http://www.w3.org/2000/svg" version="1.1">
 <metadata>
  <rdf:RDF xmlns:dc="http://purl.org/dc/elements/1.1/" xmlns:cc="http://creativecommons.org/ns#" xmlns:rdf="http://www.w3.org/1999/02/22-rdf-syntax-ns#">
   <cc:Work>
    <dc:type rdf:resource="http://purl.org/dc/dcmitype/StillImage"/>
    <dc:date>2025-09-02T22:19:07.676874</dc:date>
    <dc:format>image/svg+xml</dc:format>
    <dc:creator>
     <cc:Agent>
      <dc:title>Matplotlib v3.9.4, https://matplotlib.org/</dc:title>
     </cc:Agent>
    </dc:creator>
   </cc:Work>
  </rdf:RDF>
 </metadata>
 <defs>
  <style type="text/css">*{stroke-linejoin: round; stroke-linecap: butt}</style>
 </defs>
 <g id="figure_1">
  <g id="patch_1">
   <path d="M 0 568.8 
L 856.684141 568.8 
L 856.684141 0 
L 0 0 
z
" style="fill: #ffffff"/>
  </g>
  <g id="axes_1">
   <g id="patch_2">
    <path d="M 64.41375 529.308125 
L 731.696562 529.308125 
L 731.696562 23.837812 
L 64.41375 23.837812 
z
" style="fill: #ffffff"/>
   </g>
   <g id="matplotlib.axis_1">
    <g id="xtick_1">
     <g id="line2d_1">
      <path d="M 81.837963 529.308125 
L 81.837963 23.837812 
" clip-path="url(#pda21e35856)" style="fill: none; stroke: #b0b0b0; stroke-opacity: 0.3; stroke-width: 0.8; stroke-linecap: square"/>
     </g>
     <g id="line2d_2">
      <defs>
       <path id="m4b40490ae6" d="M 0 0 
L 0 3.5 
" style="stroke: #000000; stroke-width: 0.8"/>
      </defs>
      <g>
       <use xlink:href="#m4b40490ae6" x="81.837963" y="529.308125" style="stroke: #000000; stroke-width: 0.8"/>
      </g>
     </g>
     <g id="text_1">
      <text style="font: 10px 'DejaVu Sans', 'Bitstream Vera Sans', 'Computer Modern Sans Serif', 'Lucida Grande', 'Verdana', 'Geneva', 'Lucid', 'Arial', 'Helvetica', 'Avant Garde', sans-serif; text-anchor: middle" x="81.837963" y="543.906563" transform="rotate(-0 81.837963 543.906563)">70</text>
     </g>
    </g>
    <g id="xtick_2">
     <g id="line2d_3">
      <path d="M 210.906205 529.308125 
L 210.906205 23.837812 
" clip-path="url(#pda21e35856)" style="fill: none; stroke: #b0b0b0; stroke-opacity: 0.3; stroke-width: 0.8; stroke-linecap: square"/>
     </g>
     <g id="line2d_4">
      <g>
       <use xlink:href="#m4b40490ae6" x="210.906205" y="529.308125" style="stroke: #000000; stroke-width: 0.8"/>
      </g>
     </g>
     <g id="text_2">
      <text style="font: 10px 'DejaVu Sans', 'Bitstream Vera Sans', 'Computer Modern Sans Serif', 'Lucida Grande', 'Verdana', 'Geneva', 'Lucid', 'Arial', 'Helvetica', 'Avant Garde', sans-serif; text-anchor: middle" x="210.906205" y="543.906563" transform="rotate(-0 210.906205 543.906563)">80</text>
     </g>
    </g>
    <g id="xtick_3">
     <g id="line2d_5">
      <path d="M 339.974447 529.308125 
L 339.974447 23.837812 
" clip-path="url(#pda21e35856)" style="fill: none; stroke: #b0b0b0; stroke-opacity: 0.3; stroke-width: 0.8; stroke-linecap: square"/>
     </g>
     <g id="line2d_6">
      <g>
       <use xlink:href="#m4b40490ae6" x="339.974447" y="529.308125" style="stroke: #000000; stroke-width: 0.8"/>
      </g>
     </g>
     <g id="text_3">
      <text style="font: 10px 'DejaVu Sans', 'Bitstream Vera Sans', 'Computer Modern Sans Serif', 'Lucida Grande', 'Verdana', 'Geneva', 'Lucid', 'Arial', 'Helvetica', 'Avant Garde', sans-serif; text-anchor: middle" x="339.974447" y="543.906563" transform="rotate(-0 339.974447 543.906563)">90</text>
     </g>
    </g>
    <g id="xtick_4">
     <g id="line2d_7">
      <path d="M 469.042689 529.308125 
L 469.042689 23.837812 
" clip-path="url(#pda21e35856)" style="fill: none; stroke: #b0b0b0; stroke-opacity: 0.3; stroke-width: 0.8; stroke-linecap: square"/>
     </g>
     <g id="line2d_8">
      <g>
       <use xlink:href="#m4b40490ae6" x="469.042689" y="529.308125" style="stroke: #000000; stroke-width: 0.8"/>
      </g>
     </g>
     <g id="text_4">
      <text style="font: 10px 'DejaVu Sans', 'Bitstream Vera Sans', 'Computer Modern Sans Serif', 'Lucida Grande', 'Verdana', 'Geneva', 'Lucid', 'Arial', 'Helvetica', 'Avant Garde', sans-serif; text-anchor: middle" x="469.042689" y="543.906563" transform="rotate(-0 469.042689 543.906563)">100</text>
     </g>
    </g>
    <g id="xtick_5">
     <g id="line2d_9">
      <path d="M 598.110932 529.308125 
L 598.110932 23.837812 
" clip-path="url(#pda21e35856)" style="fill: none; stroke: #b0b0b0; stroke-opacity: 0.3; stroke-width: 0.8; stroke-linecap: square"/>
     </g>
     <g id="line2d_10">
      <g>
       <use xlink:href="#m4b40490ae6" x="598.110932" y="529.308125" style="stroke: #000000; stroke-width: 0.8"/>
      </g>
     </g>
     <g id="text_5">
      <text style="font: 10px 'DejaVu Sans', 'Bitstream Vera Sans', 'Computer Modern Sans Serif', 'Lucida Grande', 'Verdana', 'Geneva', 'Lucid', 'Arial', 'Helvetica', 'Avant Garde', sans-serif; text-anchor: middle" x="598.110932" y="543.906563" transform="rotate(-0 598.110932 543.906563)">110</text>
     </g>
    </g>
    <g id="xtick_6">
     <g id="line2d_11">
      <path d="M 727.179174 529.308125 
L 727.179174 23.837812 
" clip-path="url(#pda21e35856)" style="fill: none; stroke: #b0b0b0; stroke-opacity: 0.3; stroke-width: 0.8; stroke-linecap: square"/>
     </g>
     <g id="line2d_12">
      <g>
       <use xlink:href="#m4b40490ae6" x="727.179174" y="529.308125" style="stroke: #000000; stroke-width: 0.8"/>
      </g>
     </g>
     <g id="text_6">
      <text style="font: 10px 'DejaVu Sans', 'Bitstream Vera Sans', 'Computer Modern Sans Serif', 'Lucida Grande', 'Verdana', 'Geneva', 'Lucid', 'Arial', 'Helvetica', 'Avant Garde', sans-serif; text-anchor: middle" x="727.179174" y="543.906563" transform="rotate(-0 727.179174 543.906563)">120</text>
     </g>
    </g>
    <g id="text_7">
     <text style="font: 12px 'DejaVu Sans', 'Bitstream Vera Sans', 'Computer Modern Sans Serif', 'Lucida Grande', 'Verdana', 'Geneva', 'Lucid', 'Arial', 'Helvetica', 'Avant Garde', sans-serif; text-anchor: middle" x="398.055156" y="559.104375" transform="rotate(-0 398.055156 559.104375)">Build Number</text>
    </g>
   </g>
   <g id="matplotlib.axis_2">
    <g id="ytick_1">
     <g id="line2d_13">
      <defs>
       <path id="me0fdb464df" d="M 0 0 
L -2 0 
" style="stroke: #000000; stroke-width: 0.6"/>
      </defs>
      <g>
       <use xlink:href="#me0fdb464df" x="64.41375" y="445.491112" style="stroke: #000000; stroke-width: 0.6"/>
      </g>
     </g>
     <g id="text_8">
      <!-- $\mathdefault{6\times10^{0}}$ -->
      <g transform="translate(22.81375 449.290331)">
       <text>
        <tspan style="font: 10px 'DejaVu Sans'" x="0 8.310547 18.637695 25" y="-0.9765625">6×10</tspan>
        <tspan style="font: 7px 'DejaVu Sans'" x="31.458008" y="-4.8046875">0</tspan>
       </text>
      </g>
     </g>
    </g>
    <g id="ytick_2">
     <g id="line2d_14">
      <g>
       <use xlink:href="#me0fdb464df" x="64.41375" y="305.945364" style="stroke: #000000; stroke-width: 0.6"/>
      </g>
     </g>
     <g id="text_9">
      <!-- $\mathdefault{7\times10^{0}}$ -->
      <g transform="translate(22.81375 309.744582)">
       <text>
        <tspan style="font: 10px 'DejaVu Sans'" x="0 8.310547 18.637695 25" y="-0.9765625">7×10</tspan>
        <tspan style="font: 7px 'DejaVu Sans'" x="31.458008" y="-4.8046875">0</tspan>
       </text>
      </g>
     </g>
    </g>
    <g id="ytick_3">
     <g id="line2d_15">
      <g>
       <use xlink:href="#me0fdb464df" x="64.41375" y="185.065338" style="stroke: #000000; stroke-width: 0.6"/>
      </g>
     </g>
     <g id="text_10">
      <!-- $\mathdefault{8\times10^{0}}$ -->
      <g transform="translate(22.81375 188.864557)">
       <text>
        <tspan style="font: 10px 'DejaVu Sans'" x="0 8.310547 18.637695 25" y="-0.9765625">8×10</tspan>
        <tspan style="font: 7px 'DejaVu Sans'" x="31.458008" y="-4.8046875">0</tspan>
       </text>
      </g>
     </g>
    </g>
    <g id="ytick_4">
     <g id="line2d_16">
      <g>
       <use xlink:href="#me0fdb464df" x="64.41375" y="78.441598" style="stroke: #000000; stroke-width: 0.6"/>
      </g>
     </g>
     <g id="text_11">
      <!-- $\mathdefault{9\times10^{0}}$ -->
      <g transform="translate(22.81375 82.240817)">
       <text>
        <tspan style="font: 10px 'DejaVu Sans'" x="0 8.310547 18.637695 25" y="-0.9765625">9×10</tspan>
        <tspan style="font: 7px 'DejaVu Sans'" x="31.458008" y="-4.8046875">0</tspan>
       </text>
      </g>
     </g>
    </g>
    <g id="text_12">
     <text style="font: 12px 'DejaVu Sans', 'Bitstream Vera Sans', 'Computer Modern Sans Serif', 'Lucida Grande', 'Verdana', 'Geneva', 'Lucid', 'Arial', 'Helvetica', 'Avant Garde', sans-serif; text-anchor: middle" x="16.318125" y="276.572969" transform="rotate(-90 16.318125 276.572969)">Median Elapsed Time (nanoseconds)</text>
    </g>
   </g>
   <g id="line2d_17">
    <path d="M 94.744787 398.454274 
L 107.651611 399.887774 
L 120.558435 385.653904 
L 133.46526 399.887774 
L 146.372084 414.349032 
L 159.278908 399.887774 
L 172.185732 399.887774 
L 185.092557 399.887774 
L 197.999381 399.887774 
L 210.906205 399.887774 
L 223.813029 385.653904 
L 236.719853 399.887774 
L 249.626678 399.887774 
L 275.440326 399.887774 
L 288.34715 399.887774 
L 314.160799 399.887774 
L 327.067623 399.887774 
L 339.974447 399.887774 
L 352.881271 399.887774 
L 365.788096 399.887774 
L 391.601744 399.887774 
L 404.508568 399.887774 
L 417.415393 398.454274 
L 430.322217 414.349032 
L 456.135865 399.887774 
L 469.042689 399.887774 
L 481.949514 385.653904 
L 494.856338 399.887774 
L 507.763162 399.887774 
L 520.669986 399.887774 
L 533.576811 385.653904 
L 546.483635 398.454274 
L 572.297283 384.24275 
L 585.204108 371.640381 
L 598.110932 371.640381 
L 623.92458 371.640381 
L 662.645053 371.640381 
L 675.551877 371.640381 
L 688.458701 371.640381 
L 701.365526 371.640381 
" clip-path="url(#pda21e35856)" style="fill: none; stroke: #1f77b4; stroke-width: 2; stroke-linecap: square"/>
    <defs>
     <path id="me006ac6bc7" d="M 0 3 
C 0.795609 3 1.55874 2.683901 2.12132 2.12132 
C 2.683901 1.55874 3 0.795609 3 0 
C 3 -0.795609 2.683901 -1.55874 2.12132 -2.12132 
C 1.55874 -2.683901 0.795609 -3 0 -3 
C -0.795609 -3 -1.55874 -2.683901 -2.12132 -2.12132 
C -2.683901 -1.55874 -3 -0.795609 -3 0 
C -3 0.795609 -2.683901 1.55874 -2.12132 2.12132 
C -1.55874 2.683901 -0.795609 3 0 3 
z
" style="stroke: #1f77b4"/>
    </defs>
    <g clip-path="url(#pda21e35856)">
     <use xlink:href="#me006ac6bc7" x="94.744787" y="398.454274" style="fill: #1f77b4; stroke: #1f77b4"/>
     <use xlink:href="#me006ac6bc7" x="107.651611" y="399.887774" style="fill: #1f77b4; stroke: #1f77b4"/>
     <use xlink:href="#me006ac6bc7" x="120.558435" y="385.653904" style="fill: #1f77b4; stroke: #1f77b4"/>
     <use xlink:href="#me006ac6bc7" x="133.46526" y="399.887774" style="fill: #1f77b4; stroke: #1f77b4"/>
     <use xlink:href="#me006ac6bc7" x="146.372084" y="414.349032" style="fill: #1f77b4; stroke: #1f77b4"/>
     <use xlink:href="#me006ac6bc7" x="159.278908" y="399.887774" style="fill: #1f77b4; stroke: #1f77b4"/>
     <use xlink:href="#me006ac6bc7" x="172.185732" y="399.887774" style="fill: #1f77b4; stroke: #1f77b4"/>
     <use xlink:href="#me006ac6bc7" x="185.092557" y="399.887774" style="fill: #1f77b4; stroke: #1f77b4"/>
     <use xlink:href="#me006ac6bc7" x="197.999381" y="399.887774" style="fill: #1f77b4; stroke: #1f77b4"/>
     <use xlink:href="#me006ac6bc7" x="210.906205" y="399.887774" style="fill: #1f77b4; stroke: #1f77b4"/>
     <use xlink:href="#me006ac6bc7" x="223.813029" y="385.653904" style="fill: #1f77b4; stroke: #1f77b4"/>
     <use xlink:href="#me006ac6bc7" x="236.719853" y="399.887774" style="fill: #1f77b4; stroke: #1f77b4"/>
     <use xlink:href="#me006ac6bc7" x="249.626678" y="399.887774" style="fill: #1f77b4; stroke: #1f77b4"/>
     <use xlink:href="#me006ac6bc7" x="275.440326" y="399.887774" style="fill: #1f77b4; stroke: #1f77b4"/>
     <use xlink:href="#me006ac6bc7" x="288.34715" y="399.887774" style="fill: #1f77b4; stroke: #1f77b4"/>
     <use xlink:href="#me006ac6bc7" x="314.160799" y="399.887774" style="fill: #1f77b4; stroke: #1f77b4"/>
     <use xlink:href="#me006ac6bc7" x="327.067623" y="399.887774" style="fill: #1f77b4; stroke: #1f77b4"/>
     <use xlink:href="#me006ac6bc7" x="339.974447" y="399.887774" style="fill: #1f77b4; stroke: #1f77b4"/>
     <use xlink:href="#me006ac6bc7" x="352.881271" y="399.887774" style="fill: #1f77b4; stroke: #1f77b4"/>
     <use xlink:href="#me006ac6bc7" x="365.788096" y="399.887774" style="fill: #1f77b4; stroke: #1f77b4"/>
     <use xlink:href="#me006ac6bc7" x="391.601744" y="399.887774" style="fill: #1f77b4; stroke: #1f77b4"/>
     <use xlink:href="#me006ac6bc7" x="404.508568" y="399.887774" style="fill: #1f77b4; stroke: #1f77b4"/>
     <use xlink:href="#me006ac6bc7" x="417.415393" y="398.454274" style="fill: #1f77b4; stroke: #1f77b4"/>
     <use xlink:href="#me006ac6bc7" x="430.322217" y="414.349032" style="fill: #1f77b4; stroke: #1f77b4"/>
     <use xlink:href="#me006ac6bc7" x="456.135865" y="399.887774" style="fill: #1f77b4; stroke: #1f77b4"/>
     <use xlink:href="#me006ac6bc7" x="469.042689" y="399.887774" style="fill: #1f77b4; stroke: #1f77b4"/>
     <use xlink:href="#me006ac6bc7" x="481.949514" y="385.653904" style="fill: #1f77b4; stroke: #1f77b4"/>
     <use xlink:href="#me006ac6bc7" x="494.856338" y="399.887774" style="fill: #1f77b4; stroke: #1f77b4"/>
     <use xlink:href="#me006ac6bc7" x="507.763162" y="399.887774" style="fill: #1f77b4; stroke: #1f77b4"/>
     <use xlink:href="#me006ac6bc7" x="520.669986" y="399.887774" style="fill: #1f77b4; stroke: #1f77b4"/>
     <use xlink:href="#me006ac6bc7" x="533.576811" y="385.653904" style="fill: #1f77b4; stroke: #1f77b4"/>
     <use xlink:href="#me006ac6bc7" x="546.483635" y="398.454274" style="fill: #1f77b4; stroke: #1f77b4"/>
     <use xlink:href="#me006ac6bc7" x="572.297283" y="384.24275" style="fill: #1f77b4; stroke: #1f77b4"/>
     <use xlink:href="#me006ac6bc7" x="585.204108" y="371.640381" style="fill: #1f77b4; stroke: #1f77b4"/>
     <use xlink:href="#me006ac6bc7" x="598.110932" y="371.640381" style="fill: #1f77b4; stroke: #1f77b4"/>
     <use xlink:href="#me006ac6bc7" x="623.92458" y="371.640381" style="fill: #1f77b4; stroke: #1f77b4"/>
     <use xlink:href="#me006ac6bc7" x="662.645053" y="371.640381" style="fill: #1f77b4; stroke: #1f77b4"/>
     <use xlink:href="#me006ac6bc7" x="675.551877" y="371.640381" style="fill: #1f77b4; stroke: #1f77b4"/>
     <use xlink:href="#me006ac6bc7" x="688.458701" y="371.640381" style="fill: #1f77b4; stroke: #1f77b4"/>
     <use xlink:href="#me006ac6bc7" x="701.365526" y="371.640381" style="fill: #1f77b4; stroke: #1f77b4"/>
    </g>
   </g>
   <g id="line2d_18">
    <path d="M 94.744787 506.332202 
L 107.651611 443.983609 
L 120.558435 443.983609 
L 133.46526 443.983609 
L 146.372084 443.983609 
L 159.278908 429.045061 
L 172.185732 442.478612 
L 185.092557 442.478612 
L 197.999381 443.983609 
L 210.906205 443.983609 
L 223.813029 443.983609 
L 236.719853 229.119752 
L 249.626678 429.045061 
L 262.533502 443.983609 
L 275.440326 443.983609 
L 288.34715 429.045061 
L 314.160799 414.349032 
L 327.067623 442.478612 
L 339.974447 430.527871 
L 352.881271 443.983609 
L 365.788096 442.478612 
L 378.69492 443.983609 
L 391.601744 429.045061 
L 404.508568 443.983609 
L 417.415393 443.983609 
L 430.322217 46.813736 
L 456.135865 443.983609 
L 469.042689 443.983609 
L 481.949514 443.983609 
L 494.856338 442.478612 
L 507.763162 429.045061 
L 520.669986 443.983609 
L 533.576811 443.983609 
L 546.483635 429.045061 
L 572.297283 429.045061 
L 585.204108 430.527871 
L 598.110932 442.478612 
L 611.017756 443.983609 
L 623.92458 430.527871 
L 649.738229 429.045061 
L 662.645053 429.045061 
L 675.551877 443.983609 
L 688.458701 443.983609 
L 701.365526 442.478612 
" clip-path="url(#pda21e35856)" style="fill: none; stroke: #ff7f0e; stroke-width: 2; stroke-linecap: square"/>
    <defs>
     <path id="m516015bd4b" d="M 0 3 
C 0.795609 3 1.55874 2.683901 2.12132 2.12132 
C 2.683901 1.55874 3 0.795609 3 0 
C 3 -0.795609 2.683901 -1.55874 2.12132 -2.12132 
C 1.55874 -2.683901 0.795609 -3 0 -3 
C -0.795609 -3 -1.55874 -2.683901 -2.12132 -2.12132 
C -2.683901 -1.55874 -3 -0.795609 -3 0 
C -3 0.795609 -2.683901 1.55874 -2.12132 2.12132 
C -1.55874 2.683901 -0.795609 3 0 3 
z
" style="stroke: #ff7f0e"/>
    </defs>
    <g clip-path="url(#pda21e35856)">
     <use xlink:href="#m516015bd4b" x="94.744787" y="506.332202" style="fill: #ff7f0e; stroke: #ff7f0e"/>
     <use xlink:href="#m516015bd4b" x="107.651611" y="443.983609" style="fill: #ff7f0e; stroke: #ff7f0e"/>
     <use xlink:href="#m516015bd4b" x="120.558435" y="443.983609" style="fill: #ff7f0e; stroke: #ff7f0e"/>
     <use xlink:href="#m516015bd4b" x="133.46526" y="443.983609" style="fill: #ff7f0e; stroke: #ff7f0e"/>
     <use xlink:href="#m516015bd4b" x="146.372084" y="443.983609" style="fill: #ff7f0e; stroke: #ff7f0e"/>
     <use xlink:href="#m516015bd4b" x="159.278908" y="429.045061" style="fill: #ff7f0e; stroke: #ff7f0e"/>
     <use xlink:href="#m516015bd4b" x="172.185732" y="442.478612" style="fill: #ff7f0e; stroke: #ff7f0e"/>
     <use xlink:href="#m516015bd4b" x="185.092557" y="442.478612" style="fill: #ff7f0e; stroke: #ff7f0e"/>
     <use xlink:href="#m516015bd4b" x="197.999381" y="443.983609" style="fill: #ff7f0e; stroke: #ff7f0e"/>
     <use xlink:href="#m516015bd4b" x="210.906205" y="443.983609" style="fill: #ff7f0e; stroke: #ff7f0e"/>
     <use xlink:href="#m516015bd4b" x="223.813029" y="443.983609" style="fill: #ff7f0e; stroke: #ff7f0e"/>
     <use xlink:href="#m516015bd4b" x="236.719853" y="229.119752" style="fill: #ff7f0e; stroke: #ff7f0e"/>
     <use xlink:href="#m516015bd4b" x="249.626678" y="429.045061" style="fill: #ff7f0e; stroke: #ff7f0e"/>
     <use xlink:href="#m516015bd4b" x="262.533502" y="443.983609" style="fill: #ff7f0e; stroke: #ff7f0e"/>
     <use xlink:href="#m516015bd4b" x="275.440326" y="443.983609" style="fill: #ff7f0e; stroke: #ff7f0e"/>
     <use xlink:href="#m516015bd4b" x="288.34715" y="429.045061" style="fill: #ff7f0e; stroke: #ff7f0e"/>
     <use xlink:href="#m516015bd4b" x="314.160799" y="414.349032" style="fill: #ff7f0e; stroke: #ff7f0e"/>
     <use xlink:href="#m516015bd4b" x="327.067623" y="442.478612" style="fill: #ff7f0e; stroke: #ff7f0e"/>
     <use xlink:href="#m516015bd4b" x="339.974447" y="430.527871" style="fill: #ff7f0e; stroke: #ff7f0e"/>
     <use xlink:href="#m516015bd4b" x="352.881271" y="443.983609" style="fill: #ff7f0e; stroke: #ff7f0e"/>
     <use xlink:href="#m516015bd4b" x="365.788096" y="442.478612" style="fill: #ff7f0e; stroke: #ff7f0e"/>
     <use xlink:href="#m516015bd4b" x="378.69492" y="443.983609" style="fill: #ff7f0e; stroke: #ff7f0e"/>
     <use xlink:href="#m516015bd4b" x="391.601744" y="429.045061" style="fill: #ff7f0e; stroke: #ff7f0e"/>
     <use xlink:href="#m516015bd4b" x="404.508568" y="443.983609" style="fill: #ff7f0e; stroke: #ff7f0e"/>
     <use xlink:href="#m516015bd4b" x="417.415393" y="443.983609" style="fill: #ff7f0e; stroke: #ff7f0e"/>
     <use xlink:href="#m516015bd4b" x="430.322217" y="46.813736" style="fill: #ff7f0e; stroke: #ff7f0e"/>
     <use xlink:href="#m516015bd4b" x="456.135865" y="443.983609" style="fill: #ff7f0e; stroke: #ff7f0e"/>
     <use xlink:href="#m516015bd4b" x="469.042689" y="443.983609" style="fill: #ff7f0e; stroke: #ff7f0e"/>
     <use xlink:href="#m516015bd4b" x="481.949514" y="443.983609" style="fill: #ff7f0e; stroke: #ff7f0e"/>
     <use xlink:href="#m516015bd4b" x="494.856338" y="442.478612" style="fill: #ff7f0e; stroke: #ff7f0e"/>
     <use xlink:href="#m516015bd4b" x="507.763162" y="429.045061" style="fill: #ff7f0e; stroke: #ff7f0e"/>
     <use xlink:href="#m516015bd4b" x="520.669986" y="443.983609" style="fill: #ff7f0e; stroke: #ff7f0e"/>
     <use xlink:href="#m516015bd4b" x="533.576811" y="443.983609" style="fill: #ff7f0e; stroke: #ff7f0e"/>
     <use xlink:href="#m516015bd4b" x="546.483635" y="429.045061" style="fill: #ff7f0e; stroke: #ff7f0e"/>
     <use xlink:href="#m516015bd4b" x="572.297283" y="429.045061" style="fill: #ff7f0e; stroke: #ff7f0e"/>
     <use xlink:href="#m516015bd4b" x="585.204108" y="430.527871" style="fill: #ff7f0e; stroke: #ff7f0e"/>
     <use xlink:href="#m516015bd4b" x="598.110932" y="442.478612" style="fill: #ff7f0e; stroke: #ff7f0e"/>
     <use xlink:href="#m516015bd4b" x="611.017756" y="443.983609" style="fill: #ff7f0e; stroke: #ff7f0e"/>
     <use xlink:href="#m516015bd4b" x="623.92458" y="430.527871" style="fill: #ff7f0e; stroke: #ff7f0e"/>
     <use xlink:href="#m516015bd4b" x="649.738229" y="429.045061" style="fill: #ff7f0e; stroke: #ff7f0e"/>
     <use xlink:href="#m516015bd4b" x="662.645053" y="429.045061" style="fill: #ff7f0e; stroke: #ff7f0e"/>
     <use xlink:href="#m516015bd4b" x="675.551877" y="443.983609" style="fill: #ff7f0e; stroke: #ff7f0e"/>
     <use xlink:href="#m516015bd4b" x="688.458701" y="443.983609" style="fill: #ff7f0e; stroke: #ff7f0e"/>
     <use xlink:href="#m516015bd4b" x="701.365526" y="442.478612" style="fill: #ff7f0e; stroke: #ff7f0e"/>
    </g>
   </g>
   <g id="patch_3">
    <path d="M 64.41375 529.308125 
L 64.41375 23.837813 
" style="fill: none; stroke: #000000; stroke-width: 0.8; stroke-linejoin: miter; stroke-linecap: square"/>
   </g>
   <g id="patch_4">
    <path d="M 731.696562 529.308125 
L 731.696562 23.837813 
" style="fill: none; stroke: #000000; stroke-width: 0.8; stroke-linejoin: miter; stroke-linecap: square"/>
   </g>
   <g id="patch_5">
    <path d="M 64.41375 529.308125 
L 731.696562 529.308125 
" style="fill: none; stroke: #000000; stroke-width: 0.8; stroke-linejoin: miter; stroke-linecap: square"/>
   </g>
   <g id="patch_6">
    <path d="M 64.41375 23.837812 
L 731.696562 23.837812 
" style="fill: none; stroke: #000000; stroke-width: 0.8; stroke-linejoin: miter; stroke-linecap: square"/>
   </g>
   <g id="text_13">
    <text style="font: 700 14px 'DejaVu Sans', 'Bitstream Vera Sans', 'Computer Modern Sans Serif', 'Lucida Grande', 'Verdana', 'Geneva', 'Lucid', 'Arial', 'Helvetica', 'Avant Garde', sans-serif; text-anchor: middle" x="398.055156" y="17.837813" transform="rotate(-0 398.055156 17.837813)">Ts Shared Linear Single Thread - Performance Trend</text>
   </g>
   <g id="legend_1">
    <g id="patch_7">
     <path d="M 772.060703 61.194063 
L 847.484141 61.194063 
Q 849.484141 61.194063 849.484141 59.194063 
L 849.484141 30.837813 
Q 849.484141 28.837813 847.484141 28.837813 
L 772.060703 28.837813 
Q 770.060703 28.837813 770.060703 30.837813 
L 770.060703 59.194063 
Q 770.060703 61.194063 772.060703 61.194063 
z
" style="fill: #ffffff; opacity: 0.8; stroke: #cccccc; stroke-linejoin: miter"/>
    </g>
    <g id="line2d_19">
     <path d="M 774.060703 36.93625 
L 784.060703 36.93625 
L 794.060703 36.93625 
" style="fill: none; stroke: #1f77b4; stroke-width: 2; stroke-linecap: square"/>
     <g>
      <use xlink:href="#me006ac6bc7" x="784.060703" y="36.93625" style="fill: #1f77b4; stroke: #1f77b4"/>
     </g>
    </g>
    <g id="text_14">
     <text style="font: 10px 'DejaVu Sans', 'Bitstream Vera Sans', 'Computer Modern Sans Serif', 'Lucida Grande', 'Verdana', 'Geneva', 'Lucid', 'Arial', 'Helvetica', 'Avant Garde', sans-serif; text-anchor: start" x="802.060703" y="40.43625" transform="rotate(-0 802.060703 40.43625)">clang-18</text>
    </g>
    <g id="line2d_20">
     <path d="M 774.060703 51.614375 
L 784.060703 51.614375 
L 794.060703 51.614375 
" style="fill: none; stroke: #ff7f0e; stroke-width: 2; stroke-linecap: square"/>
     <g>
      <use xlink:href="#m516015bd4b" x="784.060703" y="51.614375" style="fill: #ff7f0e; stroke: #ff7f0e"/>
     </g>
    </g>
    <g id="text_15">
     <text style="font: 10px 'DejaVu Sans', 'Bitstream Vera Sans', 'Computer Modern Sans Serif', 'Lucida Grande', 'Verdana', 'Geneva', 'Lucid', 'Arial', 'Helvetica', 'Avant Garde', sans-serif; text-anchor: start" x="802.060703" y="55.114375" transform="rotate(-0 802.060703 55.114375)">gcc-14</text>
    </g>
   </g>
  </g>
 </g>
 <defs>
  <clipPath id="pda21e35856">
   <rect x="64.41375" y="23.837813" width="667.282812" height="505.470313"/>
  </clipPath>
 </defs>
</svg>
