<?xml version="1.0" encoding="utf-8" standalone="no"?>
<!DOCTYPE svg PUBLIC "-//W3C//DTD SVG 1.1//EN"
  "http://www.w3.org/Graphics/SVG/1.1/DTD/svg11.dtd">
<svg xmlns:xlink="http://www.w3.org/1999/xlink" width="855.204687pt" height="568.8pt" viewBox="0 0 855.204687 568.8" xmlns="http://www.w3.org/2000/svg" version="1.1">
 <metadata>
  <rdf:RDF xmlns:dc="http://purl.org/dc/elements/1.1/" xmlns:cc="http://creativecommons.org/ns#" xmlns:rdf="http://www.w3.org/1999/02/22-rdf-syntax-ns#">
   <cc:Work>
    <dc:type rdf:resource="http://purl.org/dc/dcmitype/StillImage"/>
    <dc:date>2025-08-13T22:54:33.980030</dc:date>
    <dc:format>image/svg+xml</dc:format>
    <dc:creator>
     <cc:Agent>
      <dc:title>Matplotlib v3.9.4, https://matplotlib.org/</dc:title>
     </cc:Agent>
    </dc:creator>
   </cc:Work>
  </rdf:RDF>
 </metadata>
 <defs>
  <style type="text/css">*{stroke-linejoin: round; stroke-linecap: butt}</style>
 </defs>
 <g id="figure_1">
  <g id="patch_1">
   <path d="M 0 568.8 
L 855.204687 568.8 
L 855.204687 0 
L 0 0 
z
" style="fill: #ffffff"/>
  </g>
  <g id="axes_1">
   <g id="patch_2">
    <path d="M 64.41375 529.308125 
L 702.1075 529.308125 
L 702.1075 23.837812 
L 64.41375 23.837812 
z
" style="fill: #ffffff"/>
   </g>
   <g id="matplotlib.axis_1">
    <g id="xtick_1">
     <g id="line2d_1">
      <path d="M 144.551735 529.308125 
L 144.551735 23.837812 
" clip-path="url(#p088c97980a)" style="fill: none; stroke: #b0b0b0; stroke-opacity: 0.3; stroke-width: 0.8; stroke-linecap: square"/>
     </g>
     <g id="line2d_2">
      <defs>
       <path id="m00d5406ec2" d="M 0 0 
L 0 3.5 
" style="stroke: #000000; stroke-width: 0.8"/>
      </defs>
      <g>
       <use xlink:href="#m00d5406ec2" x="144.551735" y="529.308125" style="stroke: #000000; stroke-width: 0.8"/>
      </g>
     </g>
     <g id="text_1">
      <text style="font: 10px 'DejaVu Sans', 'Bitstream Vera Sans', 'Computer Modern Sans Serif', 'Lucida Grande', 'Verdana', 'Geneva', 'Lucid', 'Arial', 'Helvetica', 'Avant Garde', sans-serif; text-anchor: middle" x="144.551735" y="543.906563" transform="rotate(-0 144.551735 543.906563)">72.5</text>
     </g>
    </g>
    <g id="xtick_2">
     <g id="line2d_3">
      <path d="M 229.80491 529.308125 
L 229.80491 23.837812 
" clip-path="url(#p088c97980a)" style="fill: none; stroke: #b0b0b0; stroke-opacity: 0.3; stroke-width: 0.8; stroke-linecap: square"/>
     </g>
     <g id="line2d_4">
      <g>
       <use xlink:href="#m00d5406ec2" x="229.80491" y="529.308125" style="stroke: #000000; stroke-width: 0.8"/>
      </g>
     </g>
     <g id="text_2">
      <text style="font: 10px 'DejaVu Sans', 'Bitstream Vera Sans', 'Computer Modern Sans Serif', 'Lucida Grande', 'Verdana', 'Geneva', 'Lucid', 'Arial', 'Helvetica', 'Avant Garde', sans-serif; text-anchor: middle" x="229.80491" y="543.906563" transform="rotate(-0 229.80491 543.906563)">75.0</text>
     </g>
    </g>
    <g id="xtick_3">
     <g id="line2d_5">
      <path d="M 315.058085 529.308125 
L 315.058085 23.837812 
" clip-path="url(#p088c97980a)" style="fill: none; stroke: #b0b0b0; stroke-opacity: 0.3; stroke-width: 0.8; stroke-linecap: square"/>
     </g>
     <g id="line2d_6">
      <g>
       <use xlink:href="#m00d5406ec2" x="315.058085" y="529.308125" style="stroke: #000000; stroke-width: 0.8"/>
      </g>
     </g>
     <g id="text_3">
      <text style="font: 10px 'DejaVu Sans', 'Bitstream Vera Sans', 'Computer Modern Sans Serif', 'Lucida Grande', 'Verdana', 'Geneva', 'Lucid', 'Arial', 'Helvetica', 'Avant Garde', sans-serif; text-anchor: middle" x="315.058085" y="543.906563" transform="rotate(-0 315.058085 543.906563)">77.5</text>
     </g>
    </g>
    <g id="xtick_4">
     <g id="line2d_7">
      <path d="M 400.31126 529.308125 
L 400.31126 23.837812 
" clip-path="url(#p088c97980a)" style="fill: none; stroke: #b0b0b0; stroke-opacity: 0.3; stroke-width: 0.8; stroke-linecap: square"/>
     </g>
     <g id="line2d_8">
      <g>
       <use xlink:href="#m00d5406ec2" x="400.31126" y="529.308125" style="stroke: #000000; stroke-width: 0.8"/>
      </g>
     </g>
     <g id="text_4">
      <text style="font: 10px 'DejaVu Sans', 'Bitstream Vera Sans', 'Computer Modern Sans Serif', 'Lucida Grande', 'Verdana', 'Geneva', 'Lucid', 'Arial', 'Helvetica', 'Avant Garde', sans-serif; text-anchor: middle" x="400.31126" y="543.906563" transform="rotate(-0 400.31126 543.906563)">80.0</text>
     </g>
    </g>
    <g id="xtick_5">
     <g id="line2d_9">
      <path d="M 485.564435 529.308125 
L 485.564435 23.837812 
" clip-path="url(#p088c97980a)" style="fill: none; stroke: #b0b0b0; stroke-opacity: 0.3; stroke-width: 0.8; stroke-linecap: square"/>
     </g>
     <g id="line2d_10">
      <g>
       <use xlink:href="#m00d5406ec2" x="485.564435" y="529.308125" style="stroke: #000000; stroke-width: 0.8"/>
      </g>
     </g>
     <g id="text_5">
      <text style="font: 10px 'DejaVu Sans', 'Bitstream Vera Sans', 'Computer Modern Sans Serif', 'Lucida Grande', 'Verdana', 'Geneva', 'Lucid', 'Arial', 'Helvetica', 'Avant Garde', sans-serif; text-anchor: middle" x="485.564435" y="543.906563" transform="rotate(-0 485.564435 543.906563)">82.5</text>
     </g>
    </g>
    <g id="xtick_6">
     <g id="line2d_11">
      <path d="M 570.81761 529.308125 
L 570.81761 23.837812 
" clip-path="url(#p088c97980a)" style="fill: none; stroke: #b0b0b0; stroke-opacity: 0.3; stroke-width: 0.8; stroke-linecap: square"/>
     </g>
     <g id="line2d_12">
      <g>
       <use xlink:href="#m00d5406ec2" x="570.81761" y="529.308125" style="stroke: #000000; stroke-width: 0.8"/>
      </g>
     </g>
     <g id="text_6">
      <text style="font: 10px 'DejaVu Sans', 'Bitstream Vera Sans', 'Computer Modern Sans Serif', 'Lucida Grande', 'Verdana', 'Geneva', 'Lucid', 'Arial', 'Helvetica', 'Avant Garde', sans-serif; text-anchor: middle" x="570.81761" y="543.906563" transform="rotate(-0 570.81761 543.906563)">85.0</text>
     </g>
    </g>
    <g id="xtick_7">
     <g id="line2d_13">
      <path d="M 656.070785 529.308125 
L 656.070785 23.837812 
" clip-path="url(#p088c97980a)" style="fill: none; stroke: #b0b0b0; stroke-opacity: 0.3; stroke-width: 0.8; stroke-linecap: square"/>
     </g>
     <g id="line2d_14">
      <g>
       <use xlink:href="#m00d5406ec2" x="656.070785" y="529.308125" style="stroke: #000000; stroke-width: 0.8"/>
      </g>
     </g>
     <g id="text_7">
      <text style="font: 10px 'DejaVu Sans', 'Bitstream Vera Sans', 'Computer Modern Sans Serif', 'Lucida Grande', 'Verdana', 'Geneva', 'Lucid', 'Arial', 'Helvetica', 'Avant Garde', sans-serif; text-anchor: middle" x="656.070785" y="543.906563" transform="rotate(-0 656.070785 543.906563)">87.5</text>
     </g>
    </g>
    <g id="text_8">
     <text style="font: 12px 'DejaVu Sans', 'Bitstream Vera Sans', 'Computer Modern Sans Serif', 'Lucida Grande', 'Verdana', 'Geneva', 'Lucid', 'Arial', 'Helvetica', 'Avant Garde', sans-serif; text-anchor: middle" x="383.260625" y="559.104375" transform="rotate(-0 383.260625 559.104375)">Build Number</text>
    </g>
   </g>
   <g id="matplotlib.axis_2">
    <g id="ytick_1">
     <g id="line2d_15">
      <defs>
       <path id="m8026290807" d="M 0 0 
L -2 0 
" style="stroke: #000000; stroke-width: 0.6"/>
      </defs>
      <g>
       <use xlink:href="#m8026290807" x="64.41375" y="417.931553" style="stroke: #000000; stroke-width: 0.6"/>
      </g>
     </g>
     <g id="text_9">
      <!-- $\mathdefault{3\times10^{5}}$ -->
      <g transform="translate(22.81375 421.730772)">
       <text>
        <tspan style="font: 10px 'DejaVu Sans'" x="0 8.310547 18.637695 25" y="-0.06406250000000036">3×10</tspan>
        <tspan style="font: 7px 'DejaVu Sans'" x="31.458008" y="-3.8921875000000004">5</tspan>
       </text>
      </g>
     </g>
    </g>
    <g id="ytick_2">
     <g id="line2d_16">
      <g>
       <use xlink:href="#m8026290807" x="64.41375" y="310.891274" style="stroke: #000000; stroke-width: 0.6"/>
      </g>
     </g>
     <g id="text_10">
      <!-- $\mathdefault{4\times10^{5}}$ -->
      <g transform="translate(22.81375 314.690493)">
       <text>
        <tspan style="font: 10px 'DejaVu Sans'" x="0 8.310547 18.637695 25" y="-0.06406250000000036">4×10</tspan>
        <tspan style="font: 7px 'DejaVu Sans'" x="31.458008" y="-3.8921875000000004">5</tspan>
       </text>
      </g>
     </g>
    </g>
    <g id="ytick_3">
     <g id="line2d_17">
      <g>
       <use xlink:href="#m8026290807" x="64.41375" y="227.864383" style="stroke: #000000; stroke-width: 0.6"/>
      </g>
     </g>
    </g>
    <g id="ytick_4">
     <g id="line2d_18">
      <g>
       <use xlink:href="#m8026290807" x="64.41375" y="160.026474" style="stroke: #000000; stroke-width: 0.6"/>
      </g>
     </g>
     <g id="text_11">
      <!-- $\mathdefault{6\times10^{5}}$ -->
      <g transform="translate(22.81375 163.825693)">
       <text>
        <tspan style="font: 10px 'DejaVu Sans'" x="0 8.310547 18.637695 25" y="-0.06406250000000036">6×10</tspan>
        <tspan style="font: 7px 'DejaVu Sans'" x="31.458008" y="-3.8921875000000004">5</tspan>
       </text>
      </g>
     </g>
    </g>
    <g id="ytick_5">
     <g id="line2d_19">
      <g>
       <use xlink:href="#m8026290807" x="64.41375" y="102.670339" style="stroke: #000000; stroke-width: 0.6"/>
      </g>
     </g>
    </g>
    <g id="ytick_6">
     <g id="line2d_20">
      <g>
       <use xlink:href="#m8026290807" x="64.41375" y="52.986195" style="stroke: #000000; stroke-width: 0.6"/>
      </g>
     </g>
    </g>
    <g id="text_12">
     <text style="font: 12px 'DejaVu Sans', 'Bitstream Vera Sans', 'Computer Modern Sans Serif', 'Lucida Grande', 'Verdana', 'Geneva', 'Lucid', 'Arial', 'Helvetica', 'Avant Garde', sans-serif; text-anchor: middle" x="16.318125" y="276.572969" transform="rotate(-90 16.318125 276.572969)">Median Elapsed Time (nanoseconds)</text>
    </g>
   </g>
   <g id="line2d_21">
    <path d="M 93.39983 483.553279 
L 127.5011 269.208054 
L 161.60237 288.302997 
L 195.70364 403.920201 
L 229.80491 271.252944 
L 263.90618 481.045017 
L 298.00745 402.633762 
L 332.10872 205.499226 
L 366.20999 263.244209 
L 400.31126 484.122276 
L 434.41253 434.19491 
L 468.5138 268.330075 
L 502.61507 459.135289 
L 536.71634 376.517734 
L 570.81761 344.981325 
L 604.91888 487.030711 
L 673.12142 428.480775 
" clip-path="url(#p088c97980a)" style="fill: none; stroke: #1f77b4; stroke-width: 2; stroke-linecap: square"/>
    <defs>
     <path id="m49356bf122" d="M 0 3 
C 0.795609 3 1.55874 2.683901 2.12132 2.12132 
C 2.683901 1.55874 3 0.795609 3 0 
C 3 -0.795609 2.683901 -1.55874 2.12132 -2.12132 
C 1.55874 -2.683901 0.795609 -3 0 -3 
C -0.795609 -3 -1.55874 -2.683901 -2.12132 -2.12132 
C -2.683901 -1.55874 -3 -0.795609 -3 0 
C -3 0.795609 -2.683901 1.55874 -2.12132 2.12132 
C -1.55874 2.683901 -0.795609 3 0 3 
z
" style="stroke: #1f77b4"/>
    </defs>
    <g clip-path="url(#p088c97980a)">
     <use xlink:href="#m49356bf122" x="93.39983" y="483.553279" style="fill: #1f77b4; stroke: #1f77b4"/>
     <use xlink:href="#m49356bf122" x="127.5011" y="269.208054" style="fill: #1f77b4; stroke: #1f77b4"/>
     <use xlink:href="#m49356bf122" x="161.60237" y="288.302997" style="fill: #1f77b4; stroke: #1f77b4"/>
     <use xlink:href="#m49356bf122" x="195.70364" y="403.920201" style="fill: #1f77b4; stroke: #1f77b4"/>
     <use xlink:href="#m49356bf122" x="229.80491" y="271.252944" style="fill: #1f77b4; stroke: #1f77b4"/>
     <use xlink:href="#m49356bf122" x="263.90618" y="481.045017" style="fill: #1f77b4; stroke: #1f77b4"/>
     <use xlink:href="#m49356bf122" x="298.00745" y="402.633762" style="fill: #1f77b4; stroke: #1f77b4"/>
     <use xlink:href="#m49356bf122" x="332.10872" y="205.499226" style="fill: #1f77b4; stroke: #1f77b4"/>
     <use xlink:href="#m49356bf122" x="366.20999" y="263.244209" style="fill: #1f77b4; stroke: #1f77b4"/>
     <use xlink:href="#m49356bf122" x="400.31126" y="484.122276" style="fill: #1f77b4; stroke: #1f77b4"/>
     <use xlink:href="#m49356bf122" x="434.41253" y="434.19491" style="fill: #1f77b4; stroke: #1f77b4"/>
     <use xlink:href="#m49356bf122" x="468.5138" y="268.330075" style="fill: #1f77b4; stroke: #1f77b4"/>
     <use xlink:href="#m49356bf122" x="502.61507" y="459.135289" style="fill: #1f77b4; stroke: #1f77b4"/>
     <use xlink:href="#m49356bf122" x="536.71634" y="376.517734" style="fill: #1f77b4; stroke: #1f77b4"/>
     <use xlink:href="#m49356bf122" x="570.81761" y="344.981325" style="fill: #1f77b4; stroke: #1f77b4"/>
     <use xlink:href="#m49356bf122" x="604.91888" y="487.030711" style="fill: #1f77b4; stroke: #1f77b4"/>
     <use xlink:href="#m49356bf122" x="673.12142" y="428.480775" style="fill: #1f77b4; stroke: #1f77b4"/>
    </g>
   </g>
   <g id="line2d_22">
    <path d="M 93.39983 485.161982 
L 127.5011 270.024845 
L 161.60237 276.587808 
L 195.70364 452.901646 
L 229.80491 328.986032 
L 263.90618 488.067355 
L 298.00745 485.194673 
L 332.10872 444.516485 
L 366.20999 367.10592 
L 400.31126 346.160961 
L 434.41253 321.065753 
L 468.5138 392.392056 
L 502.61507 481.874171 
L 536.71634 264.181545 
L 570.81761 309.597206 
L 604.91888 485.899712 
L 673.12142 487.073722 
" clip-path="url(#p088c97980a)" style="fill: none; stroke: #ff7f0e; stroke-width: 2; stroke-linecap: square"/>
    <defs>
     <path id="mdcb18b0c7a" d="M 0 3 
C 0.795609 3 1.55874 2.683901 2.12132 2.12132 
C 2.683901 1.55874 3 0.795609 3 0 
C 3 -0.795609 2.683901 -1.55874 2.12132 -2.12132 
C 1.55874 -2.683901 0.795609 -3 0 -3 
C -0.795609 -3 -1.55874 -2.683901 -2.12132 -2.12132 
C -2.683901 -1.55874 -3 -0.795609 -3 0 
C -3 0.795609 -2.683901 1.55874 -2.12132 2.12132 
C -1.55874 2.683901 -0.795609 3 0 3 
z
" style="stroke: #ff7f0e"/>
    </defs>
    <g clip-path="url(#p088c97980a)">
     <use xlink:href="#mdcb18b0c7a" x="93.39983" y="485.161982" style="fill: #ff7f0e; stroke: #ff7f0e"/>
     <use xlink:href="#mdcb18b0c7a" x="127.5011" y="270.024845" style="fill: #ff7f0e; stroke: #ff7f0e"/>
     <use xlink:href="#mdcb18b0c7a" x="161.60237" y="276.587808" style="fill: #ff7f0e; stroke: #ff7f0e"/>
     <use xlink:href="#mdcb18b0c7a" x="195.70364" y="452.901646" style="fill: #ff7f0e; stroke: #ff7f0e"/>
     <use xlink:href="#mdcb18b0c7a" x="229.80491" y="328.986032" style="fill: #ff7f0e; stroke: #ff7f0e"/>
     <use xlink:href="#mdcb18b0c7a" x="263.90618" y="488.067355" style="fill: #ff7f0e; stroke: #ff7f0e"/>
     <use xlink:href="#mdcb18b0c7a" x="298.00745" y="485.194673" style="fill: #ff7f0e; stroke: #ff7f0e"/>
     <use xlink:href="#mdcb18b0c7a" x="332.10872" y="444.516485" style="fill: #ff7f0e; stroke: #ff7f0e"/>
     <use xlink:href="#mdcb18b0c7a" x="366.20999" y="367.10592" style="fill: #ff7f0e; stroke: #ff7f0e"/>
     <use xlink:href="#mdcb18b0c7a" x="400.31126" y="346.160961" style="fill: #ff7f0e; stroke: #ff7f0e"/>
     <use xlink:href="#mdcb18b0c7a" x="434.41253" y="321.065753" style="fill: #ff7f0e; stroke: #ff7f0e"/>
     <use xlink:href="#mdcb18b0c7a" x="468.5138" y="392.392056" style="fill: #ff7f0e; stroke: #ff7f0e"/>
     <use xlink:href="#mdcb18b0c7a" x="502.61507" y="481.874171" style="fill: #ff7f0e; stroke: #ff7f0e"/>
     <use xlink:href="#mdcb18b0c7a" x="536.71634" y="264.181545" style="fill: #ff7f0e; stroke: #ff7f0e"/>
     <use xlink:href="#mdcb18b0c7a" x="570.81761" y="309.597206" style="fill: #ff7f0e; stroke: #ff7f0e"/>
     <use xlink:href="#mdcb18b0c7a" x="604.91888" y="485.899712" style="fill: #ff7f0e; stroke: #ff7f0e"/>
     <use xlink:href="#mdcb18b0c7a" x="673.12142" y="487.073722" style="fill: #ff7f0e; stroke: #ff7f0e"/>
    </g>
   </g>
   <g id="line2d_23">
    <path d="M 93.39983 501.049924 
L 127.5011 384.798533 
L 161.60237 252.778835 
L 195.70364 499.148969 
L 229.80491 473.210519 
L 263.90618 497.069381 
L 298.00745 495.683814 
L 332.10872 499.397134 
L 366.20999 499.327668 
L 400.31126 492.104969 
L 434.41253 497.999812 
L 468.5138 497.943062 
L 502.61507 498.175499 
L 536.71634 398.933714 
L 570.81761 490.249508 
L 604.91888 499.190472 
L 673.12142 495.483175 
" clip-path="url(#p088c97980a)" style="fill: none; stroke: #2ca02c; stroke-width: 2; stroke-linecap: square"/>
    <defs>
     <path id="m2fedfa227a" d="M 0 3 
C 0.795609 3 1.55874 2.683901 2.12132 2.12132 
C 2.683901 1.55874 3 0.795609 3 0 
C 3 -0.795609 2.683901 -1.55874 2.12132 -2.12132 
C 1.55874 -2.683901 0.795609 -3 0 -3 
C -0.795609 -3 -1.55874 -2.683901 -2.12132 -2.12132 
C -2.683901 -1.55874 -3 -0.795609 -3 0 
C -3 0.795609 -2.683901 1.55874 -2.12132 2.12132 
C -1.55874 2.683901 -0.795609 3 0 3 
z
" style="stroke: #2ca02c"/>
    </defs>
    <g clip-path="url(#p088c97980a)">
     <use xlink:href="#m2fedfa227a" x="93.39983" y="501.049924" style="fill: #2ca02c; stroke: #2ca02c"/>
     <use xlink:href="#m2fedfa227a" x="127.5011" y="384.798533" style="fill: #2ca02c; stroke: #2ca02c"/>
     <use xlink:href="#m2fedfa227a" x="161.60237" y="252.778835" style="fill: #2ca02c; stroke: #2ca02c"/>
     <use xlink:href="#m2fedfa227a" x="195.70364" y="499.148969" style="fill: #2ca02c; stroke: #2ca02c"/>
     <use xlink:href="#m2fedfa227a" x="229.80491" y="473.210519" style="fill: #2ca02c; stroke: #2ca02c"/>
     <use xlink:href="#m2fedfa227a" x="263.90618" y="497.069381" style="fill: #2ca02c; stroke: #2ca02c"/>
     <use xlink:href="#m2fedfa227a" x="298.00745" y="495.683814" style="fill: #2ca02c; stroke: #2ca02c"/>
     <use xlink:href="#m2fedfa227a" x="332.10872" y="499.397134" style="fill: #2ca02c; stroke: #2ca02c"/>
     <use xlink:href="#m2fedfa227a" x="366.20999" y="499.327668" style="fill: #2ca02c; stroke: #2ca02c"/>
     <use xlink:href="#m2fedfa227a" x="400.31126" y="492.104969" style="fill: #2ca02c; stroke: #2ca02c"/>
     <use xlink:href="#m2fedfa227a" x="434.41253" y="497.999812" style="fill: #2ca02c; stroke: #2ca02c"/>
     <use xlink:href="#m2fedfa227a" x="468.5138" y="497.943062" style="fill: #2ca02c; stroke: #2ca02c"/>
     <use xlink:href="#m2fedfa227a" x="502.61507" y="498.175499" style="fill: #2ca02c; stroke: #2ca02c"/>
     <use xlink:href="#m2fedfa227a" x="536.71634" y="398.933714" style="fill: #2ca02c; stroke: #2ca02c"/>
     <use xlink:href="#m2fedfa227a" x="570.81761" y="490.249508" style="fill: #2ca02c; stroke: #2ca02c"/>
     <use xlink:href="#m2fedfa227a" x="604.91888" y="499.190472" style="fill: #2ca02c; stroke: #2ca02c"/>
     <use xlink:href="#m2fedfa227a" x="673.12142" y="495.483175" style="fill: #2ca02c; stroke: #2ca02c"/>
    </g>
   </g>
   <g id="line2d_24">
    <path d="M 93.39983 502.394177 
L 127.5011 500.211781 
L 161.60237 505.570136 
L 195.70364 504.995926 
L 229.80491 284.10175 
L 263.90618 286.174509 
L 298.00745 506.332202 
L 332.10872 402.605553 
L 366.20999 499.264234 
L 400.31126 502.356672 
L 434.41253 505.068497 
L 468.5138 502.832851 
L 502.61507 46.813736 
L 570.81761 460.236728 
L 604.91888 501.95773 
L 673.12142 502.539877 
" clip-path="url(#p088c97980a)" style="fill: none; stroke: #d62728; stroke-width: 2; stroke-linecap: square"/>
    <defs>
     <path id="m2cf8cc1550" d="M 0 3 
C 0.795609 3 1.55874 2.683901 2.12132 2.12132 
C 2.683901 1.55874 3 0.795609 3 0 
C 3 -0.795609 2.683901 -1.55874 2.12132 -2.12132 
C 1.55874 -2.683901 0.795609 -3 0 -3 
C -0.795609 -3 -1.55874 -2.683901 -2.12132 -2.12132 
C -2.683901 -1.55874 -3 -0.795609 -3 0 
C -3 0.795609 -2.683901 1.55874 -2.12132 2.12132 
C -1.55874 2.683901 -0.795609 3 0 3 
z
" style="stroke: #d62728"/>
    </defs>
    <g clip-path="url(#p088c97980a)">
     <use xlink:href="#m2cf8cc1550" x="93.39983" y="502.394177" style="fill: #d62728; stroke: #d62728"/>
     <use xlink:href="#m2cf8cc1550" x="127.5011" y="500.211781" style="fill: #d62728; stroke: #d62728"/>
     <use xlink:href="#m2cf8cc1550" x="161.60237" y="505.570136" style="fill: #d62728; stroke: #d62728"/>
     <use xlink:href="#m2cf8cc1550" x="195.70364" y="504.995926" style="fill: #d62728; stroke: #d62728"/>
     <use xlink:href="#m2cf8cc1550" x="229.80491" y="284.10175" style="fill: #d62728; stroke: #d62728"/>
     <use xlink:href="#m2cf8cc1550" x="263.90618" y="286.174509" style="fill: #d62728; stroke: #d62728"/>
     <use xlink:href="#m2cf8cc1550" x="298.00745" y="506.332202" style="fill: #d62728; stroke: #d62728"/>
     <use xlink:href="#m2cf8cc1550" x="332.10872" y="402.605553" style="fill: #d62728; stroke: #d62728"/>
     <use xlink:href="#m2cf8cc1550" x="366.20999" y="499.264234" style="fill: #d62728; stroke: #d62728"/>
     <use xlink:href="#m2cf8cc1550" x="400.31126" y="502.356672" style="fill: #d62728; stroke: #d62728"/>
     <use xlink:href="#m2cf8cc1550" x="434.41253" y="505.068497" style="fill: #d62728; stroke: #d62728"/>
     <use xlink:href="#m2cf8cc1550" x="468.5138" y="502.832851" style="fill: #d62728; stroke: #d62728"/>
     <use xlink:href="#m2cf8cc1550" x="502.61507" y="46.813736" style="fill: #d62728; stroke: #d62728"/>
     <use xlink:href="#m2cf8cc1550" x="570.81761" y="460.236728" style="fill: #d62728; stroke: #d62728"/>
     <use xlink:href="#m2cf8cc1550" x="604.91888" y="501.95773" style="fill: #d62728; stroke: #d62728"/>
     <use xlink:href="#m2cf8cc1550" x="673.12142" y="502.539877" style="fill: #d62728; stroke: #d62728"/>
    </g>
   </g>
   <g id="line2d_25">
    <path d="M 93.39983 495.204173 
L 127.5011 460.625327 
L 161.60237 498.118722 
L 195.70364 490.722499 
L 229.80491 355.794967 
L 263.90618 170.312501 
L 298.00745 501.847843 
L 332.10872 470.295072 
L 366.20999 356.30128 
L 400.31126 497.765641 
L 434.41253 504.124308 
L 468.5138 502.190199 
L 502.61507 185.328125 
L 570.81761 167.558019 
L 604.91888 503.051057 
L 673.12142 498.762542 
" clip-path="url(#p088c97980a)" style="fill: none; stroke: #9467bd; stroke-width: 2; stroke-linecap: square"/>
    <defs>
     <path id="m071cfdb28c" d="M 0 3 
C 0.795609 3 1.55874 2.683901 2.12132 2.12132 
C 2.683901 1.55874 3 0.795609 3 0 
C 3 -0.795609 2.683901 -1.55874 2.12132 -2.12132 
C 1.55874 -2.683901 0.795609 -3 0 -3 
C -0.795609 -3 -1.55874 -2.683901 -2.12132 -2.12132 
C -2.683901 -1.55874 -3 -0.795609 -3 0 
C -3 0.795609 -2.683901 1.55874 -2.12132 2.12132 
C -1.55874 2.683901 -0.795609 3 0 3 
z
" style="stroke: #9467bd"/>
    </defs>
    <g clip-path="url(#p088c97980a)">
     <use xlink:href="#m071cfdb28c" x="93.39983" y="495.204173" style="fill: #9467bd; stroke: #9467bd"/>
     <use xlink:href="#m071cfdb28c" x="127.5011" y="460.625327" style="fill: #9467bd; stroke: #9467bd"/>
     <use xlink:href="#m071cfdb28c" x="161.60237" y="498.118722" style="fill: #9467bd; stroke: #9467bd"/>
     <use xlink:href="#m071cfdb28c" x="195.70364" y="490.722499" style="fill: #9467bd; stroke: #9467bd"/>
     <use xlink:href="#m071cfdb28c" x="229.80491" y="355.794967" style="fill: #9467bd; stroke: #9467bd"/>
     <use xlink:href="#m071cfdb28c" x="263.90618" y="170.312501" style="fill: #9467bd; stroke: #9467bd"/>
     <use xlink:href="#m071cfdb28c" x="298.00745" y="501.847843" style="fill: #9467bd; stroke: #9467bd"/>
     <use xlink:href="#m071cfdb28c" x="332.10872" y="470.295072" style="fill: #9467bd; stroke: #9467bd"/>
     <use xlink:href="#m071cfdb28c" x="366.20999" y="356.30128" style="fill: #9467bd; stroke: #9467bd"/>
     <use xlink:href="#m071cfdb28c" x="400.31126" y="497.765641" style="fill: #9467bd; stroke: #9467bd"/>
     <use xlink:href="#m071cfdb28c" x="434.41253" y="504.124308" style="fill: #9467bd; stroke: #9467bd"/>
     <use xlink:href="#m071cfdb28c" x="468.5138" y="502.190199" style="fill: #9467bd; stroke: #9467bd"/>
     <use xlink:href="#m071cfdb28c" x="502.61507" y="185.328125" style="fill: #9467bd; stroke: #9467bd"/>
     <use xlink:href="#m071cfdb28c" x="570.81761" y="167.558019" style="fill: #9467bd; stroke: #9467bd"/>
     <use xlink:href="#m071cfdb28c" x="604.91888" y="503.051057" style="fill: #9467bd; stroke: #9467bd"/>
     <use xlink:href="#m071cfdb28c" x="673.12142" y="498.762542" style="fill: #9467bd; stroke: #9467bd"/>
    </g>
   </g>
   <g id="line2d_26">
    <path d="M 93.39983 363.412943 
L 127.5011 356.735361 
L 161.60237 362.389836 
L 195.70364 364.87836 
L 229.80491 356.11363 
L 263.90618 358.702843 
L 298.00745 466.685319 
L 332.10872 461.729378 
L 366.20999 358.108231 
L 400.31126 362.271597 
L 434.41253 364.669675 
L 468.5138 363.200366 
L 502.61507 402.820686 
L 570.81761 302.06069 
L 604.91888 361.545893 
L 673.12142 363.121899 
" clip-path="url(#p088c97980a)" style="fill: none; stroke: #8c564b; stroke-width: 2; stroke-linecap: square"/>
    <defs>
     <path id="m6e056e4ff6" d="M 0 3 
C 0.795609 3 1.55874 2.683901 2.12132 2.12132 
C 2.683901 1.55874 3 0.795609 3 0 
C 3 -0.795609 2.683901 -1.55874 2.12132 -2.12132 
C 1.55874 -2.683901 0.795609 -3 0 -3 
C -0.795609 -3 -1.55874 -2.683901 -2.12132 -2.12132 
C -2.683901 -1.55874 -3 -0.795609 -3 0 
C -3 0.795609 -2.683901 1.55874 -2.12132 2.12132 
C -1.55874 2.683901 -0.795609 3 0 3 
z
" style="stroke: #8c564b"/>
    </defs>
    <g clip-path="url(#p088c97980a)">
     <use xlink:href="#m6e056e4ff6" x="93.39983" y="363.412943" style="fill: #8c564b; stroke: #8c564b"/>
     <use xlink:href="#m6e056e4ff6" x="127.5011" y="356.735361" style="fill: #8c564b; stroke: #8c564b"/>
     <use xlink:href="#m6e056e4ff6" x="161.60237" y="362.389836" style="fill: #8c564b; stroke: #8c564b"/>
     <use xlink:href="#m6e056e4ff6" x="195.70364" y="364.87836" style="fill: #8c564b; stroke: #8c564b"/>
     <use xlink:href="#m6e056e4ff6" x="229.80491" y="356.11363" style="fill: #8c564b; stroke: #8c564b"/>
     <use xlink:href="#m6e056e4ff6" x="263.90618" y="358.702843" style="fill: #8c564b; stroke: #8c564b"/>
     <use xlink:href="#m6e056e4ff6" x="298.00745" y="466.685319" style="fill: #8c564b; stroke: #8c564b"/>
     <use xlink:href="#m6e056e4ff6" x="332.10872" y="461.729378" style="fill: #8c564b; stroke: #8c564b"/>
     <use xlink:href="#m6e056e4ff6" x="366.20999" y="358.108231" style="fill: #8c564b; stroke: #8c564b"/>
     <use xlink:href="#m6e056e4ff6" x="400.31126" y="362.271597" style="fill: #8c564b; stroke: #8c564b"/>
     <use xlink:href="#m6e056e4ff6" x="434.41253" y="364.669675" style="fill: #8c564b; stroke: #8c564b"/>
     <use xlink:href="#m6e056e4ff6" x="468.5138" y="363.200366" style="fill: #8c564b; stroke: #8c564b"/>
     <use xlink:href="#m6e056e4ff6" x="502.61507" y="402.820686" style="fill: #8c564b; stroke: #8c564b"/>
     <use xlink:href="#m6e056e4ff6" x="570.81761" y="302.06069" style="fill: #8c564b; stroke: #8c564b"/>
     <use xlink:href="#m6e056e4ff6" x="604.91888" y="361.545893" style="fill: #8c564b; stroke: #8c564b"/>
     <use xlink:href="#m6e056e4ff6" x="673.12142" y="363.121899" style="fill: #8c564b; stroke: #8c564b"/>
    </g>
   </g>
   <g id="patch_3">
    <path d="M 64.41375 529.308125 
L 64.41375 23.837812 
" style="fill: none; stroke: #000000; stroke-width: 0.8; stroke-linejoin: miter; stroke-linecap: square"/>
   </g>
   <g id="patch_4">
    <path d="M 702.1075 529.308125 
L 702.1075 23.837812 
" style="fill: none; stroke: #000000; stroke-width: 0.8; stroke-linejoin: miter; stroke-linecap: square"/>
   </g>
   <g id="patch_5">
    <path d="M 64.41375 529.308125 
L 702.1075 529.308125 
" style="fill: none; stroke: #000000; stroke-width: 0.8; stroke-linejoin: miter; stroke-linecap: square"/>
   </g>
   <g id="patch_6">
    <path d="M 64.41375 23.837812 
L 702.1075 23.837812 
" style="fill: none; stroke: #000000; stroke-width: 0.8; stroke-linejoin: miter; stroke-linecap: square"/>
   </g>
   <g id="text_13">
    <text style="font: 700 14px 'DejaVu Sans', 'Bitstream Vera Sans', 'Computer Modern Sans Serif', 'Lucida Grande', 'Verdana', 'Geneva', 'Lucid', 'Arial', 'Helvetica', 'Avant Garde', sans-serif; text-anchor: middle" x="383.260625" y="17.837813" transform="rotate(-0 383.260625 17.837813)">Mixedworkload - Performance Trend</text>
   </g>
   <g id="legend_1">
    <g id="patch_7">
     <path d="M 740.992188 119.906563 
L 846.004688 119.906563 
Q 848.004688 119.906563 848.004688 117.906563 
L 848.004688 30.837813 
Q 848.004688 28.837813 846.004688 28.837813 
L 740.992188 28.837813 
Q 738.992188 28.837813 738.992188 30.837813 
L 738.992188 117.906563 
Q 738.992188 119.906563 740.992188 119.906563 
z
" style="fill: #ffffff; opacity: 0.8; stroke: #cccccc; stroke-linejoin: miter"/>
    </g>
    <g id="line2d_27">
     <path d="M 742.992188 36.93625 
L 752.992188 36.93625 
L 762.992188 36.93625 
" style="fill: none; stroke: #1f77b4; stroke-width: 2; stroke-linecap: square"/>
     <g>
      <use xlink:href="#m49356bf122" x="752.992188" y="36.93625" style="fill: #1f77b4; stroke: #1f77b4"/>
     </g>
    </g>
    <g id="text_14">
     <text style="font: 10px 'DejaVu Sans', 'Bitstream Vera Sans', 'Computer Modern Sans Serif', 'Lucida Grande', 'Verdana', 'Geneva', 'Lucid', 'Arial', 'Helvetica', 'Avant Garde', sans-serif; text-anchor: start" x="770.992188" y="40.43625" transform="rotate(-0 770.992188 40.43625)">gcc-14.2 - V1</text>
    </g>
    <g id="line2d_28">
     <path d="M 742.992188 51.614375 
L 752.992188 51.614375 
L 762.992188 51.614375 
" style="fill: none; stroke: #ff7f0e; stroke-width: 2; stroke-linecap: square"/>
     <g>
      <use xlink:href="#mdcb18b0c7a" x="752.992188" y="51.614375" style="fill: #ff7f0e; stroke: #ff7f0e"/>
     </g>
    </g>
    <g id="text_15">
     <text style="font: 10px 'DejaVu Sans', 'Bitstream Vera Sans', 'Computer Modern Sans Serif', 'Lucida Grande', 'Verdana', 'Geneva', 'Lucid', 'Arial', 'Helvetica', 'Avant Garde', sans-serif; text-anchor: start" x="770.992188" y="55.114375" transform="rotate(-0 770.992188 55.114375)">gcc-14.2 - V2</text>
    </g>
    <g id="line2d_29">
     <path d="M 742.992188 66.2925 
L 752.992188 66.2925 
L 762.992188 66.2925 
" style="fill: none; stroke: #2ca02c; stroke-width: 2; stroke-linecap: square"/>
     <g>
      <use xlink:href="#m2fedfa227a" x="752.992188" y="66.2925" style="fill: #2ca02c; stroke: #2ca02c"/>
     </g>
    </g>
    <g id="text_16">
     <text style="font: 10px 'DejaVu Sans', 'Bitstream Vera Sans', 'Computer Modern Sans Serif', 'Lucida Grande', 'Verdana', 'Geneva', 'Lucid', 'Arial', 'Helvetica', 'Avant Garde', sans-serif; text-anchor: start" x="770.992188" y="69.7925" transform="rotate(-0 770.992188 69.7925)">gcc-14.2 - TBB</text>
    </g>
    <g id="line2d_30">
     <path d="M 742.992188 80.970625 
L 752.992188 80.970625 
L 762.992188 80.970625 
" style="fill: none; stroke: #d62728; stroke-width: 2; stroke-linecap: square"/>
     <g>
      <use xlink:href="#m2cf8cc1550" x="752.992188" y="80.970625" style="fill: #d62728; stroke: #d62728"/>
     </g>
    </g>
    <g id="text_17">
     <text style="font: 10px 'DejaVu Sans', 'Bitstream Vera Sans', 'Computer Modern Sans Serif', 'Lucida Grande', 'Verdana', 'Geneva', 'Lucid', 'Arial', 'Helvetica', 'Avant Garde', sans-serif; text-anchor: start" x="770.992188" y="84.470625" transform="rotate(-0 770.992188 84.470625)">gcc-4.2 - V1</text>
    </g>
    <g id="line2d_31">
     <path d="M 742.992188 95.64875 
L 752.992188 95.64875 
L 762.992188 95.64875 
" style="fill: none; stroke: #9467bd; stroke-width: 2; stroke-linecap: square"/>
     <g>
      <use xlink:href="#m071cfdb28c" x="752.992188" y="95.64875" style="fill: #9467bd; stroke: #9467bd"/>
     </g>
    </g>
    <g id="text_18">
     <text style="font: 10px 'DejaVu Sans', 'Bitstream Vera Sans', 'Computer Modern Sans Serif', 'Lucida Grande', 'Verdana', 'Geneva', 'Lucid', 'Arial', 'Helvetica', 'Avant Garde', sans-serif; text-anchor: start" x="770.992188" y="99.14875" transform="rotate(-0 770.992188 99.14875)">gcc-4.2 - V2</text>
    </g>
    <g id="line2d_32">
     <path d="M 742.992188 110.326875 
L 752.992188 110.326875 
L 762.992188 110.326875 
" style="fill: none; stroke: #8c564b; stroke-width: 2; stroke-linecap: square"/>
     <g>
      <use xlink:href="#m6e056e4ff6" x="752.992188" y="110.326875" style="fill: #8c564b; stroke: #8c564b"/>
     </g>
    </g>
    <g id="text_19">
     <text style="font: 10px 'DejaVu Sans', 'Bitstream Vera Sans', 'Computer Modern Sans Serif', 'Lucida Grande', 'Verdana', 'Geneva', 'Lucid', 'Arial', 'Helvetica', 'Avant Garde', sans-serif; text-anchor: start" x="770.992188" y="113.826875" transform="rotate(-0 770.992188 113.826875)">gcc-4.2 - TBB</text>
    </g>
   </g>
  </g>
 </g>
 <defs>
  <clipPath id="p088c97980a">
   <rect x="64.41375" y="23.837813" width="637.69375" height="505.470313"/>
  </clipPath>
 </defs>
</svg>
