<?xml version="1.0" encoding="utf-8" standalone="no"?>
<!DOCTYPE svg PUBLIC "-//W3C//DTD SVG 1.1//EN"
  "http://www.w3.org/Graphics/SVG/1.1/DTD/svg11.dtd">
<svg xmlns:xlink="http://www.w3.org/1999/xlink" width="847.676719pt" height="568.8pt" viewBox="0 0 847.676719 568.8" xmlns="http://www.w3.org/2000/svg" version="1.1">
 <metadata>
  <rdf:RDF xmlns:dc="http://purl.org/dc/elements/1.1/" xmlns:cc="http://creativecommons.org/ns#" xmlns:rdf="http://www.w3.org/1999/02/22-rdf-syntax-ns#">
   <cc:Work>
    <dc:type rdf:resource="http://purl.org/dc/dcmitype/StillImage"/>
    <dc:date>2025-09-02T22:12:49.306643</dc:date>
    <dc:format>image/svg+xml</dc:format>
    <dc:creator>
     <cc:Agent>
      <dc:title>Matplotlib v3.9.4, https://matplotlib.org/</dc:title>
     </cc:Agent>
    </dc:creator>
   </cc:Work>
  </rdf:RDF>
 </metadata>
 <defs>
  <style type="text/css">*{stroke-linejoin: round; stroke-linecap: butt}</style>
 </defs>
 <g id="figure_1">
  <g id="patch_1">
   <path d="M 0 568.8 
L 847.676719 568.8 
L 847.676719 0 
L 0 0 
z
" style="fill: #ffffff"/>
  </g>
  <g id="axes_1">
   <g id="patch_2">
    <path d="M 64.41375 529.308125 
L 551.548125 529.308125 
L 551.548125 23.837812 
L 64.41375 23.837812 
z
" style="fill: #ffffff"/>
   </g>
   <g id="matplotlib.axis_1">
    <g id="xtick_1">
     <g id="line2d_1">
      <path d="M 65.468153 529.308125 
L 65.468153 23.837812 
" clip-path="url(#p81295fe71c)" style="fill: none; stroke: #b0b0b0; stroke-opacity: 0.3; stroke-width: 0.8; stroke-linecap: square"/>
     </g>
     <g id="line2d_2">
      <defs>
       <path id="m5c54faa653" d="M 0 0 
L 0 3.5 
" style="stroke: #000000; stroke-width: 0.8"/>
      </defs>
      <g>
       <use xlink:href="#m5c54faa653" x="65.468153" y="529.308125" style="stroke: #000000; stroke-width: 0.8"/>
      </g>
     </g>
     <g id="text_1">
      <text style="font: 10px 'DejaVu Sans', 'Bitstream Vera Sans', 'Computer Modern Sans Serif', 'Lucida Grande', 'Verdana', 'Geneva', 'Lucid', 'Arial', 'Helvetica', 'Avant Garde', sans-serif; text-anchor: middle" x="65.468153" y="543.906563" transform="rotate(-0 65.468153 543.906563)">95</text>
     </g>
    </g>
    <g id="xtick_2">
     <g id="line2d_3">
      <path d="M 170.908494 529.308125 
L 170.908494 23.837812 
" clip-path="url(#p81295fe71c)" style="fill: none; stroke: #b0b0b0; stroke-opacity: 0.3; stroke-width: 0.8; stroke-linecap: square"/>
     </g>
     <g id="line2d_4">
      <g>
       <use xlink:href="#m5c54faa653" x="170.908494" y="529.308125" style="stroke: #000000; stroke-width: 0.8"/>
      </g>
     </g>
     <g id="text_2">
      <text style="font: 10px 'DejaVu Sans', 'Bitstream Vera Sans', 'Computer Modern Sans Serif', 'Lucida Grande', 'Verdana', 'Geneva', 'Lucid', 'Arial', 'Helvetica', 'Avant Garde', sans-serif; text-anchor: middle" x="170.908494" y="543.906563" transform="rotate(-0 170.908494 543.906563)">100</text>
     </g>
    </g>
    <g id="xtick_3">
     <g id="line2d_5">
      <path d="M 276.348835 529.308125 
L 276.348835 23.837812 
" clip-path="url(#p81295fe71c)" style="fill: none; stroke: #b0b0b0; stroke-opacity: 0.3; stroke-width: 0.8; stroke-linecap: square"/>
     </g>
     <g id="line2d_6">
      <g>
       <use xlink:href="#m5c54faa653" x="276.348835" y="529.308125" style="stroke: #000000; stroke-width: 0.8"/>
      </g>
     </g>
     <g id="text_3">
      <text style="font: 10px 'DejaVu Sans', 'Bitstream Vera Sans', 'Computer Modern Sans Serif', 'Lucida Grande', 'Verdana', 'Geneva', 'Lucid', 'Arial', 'Helvetica', 'Avant Garde', sans-serif; text-anchor: middle" x="276.348835" y="543.906563" transform="rotate(-0 276.348835 543.906563)">105</text>
     </g>
    </g>
    <g id="xtick_4">
     <g id="line2d_7">
      <path d="M 381.789176 529.308125 
L 381.789176 23.837812 
" clip-path="url(#p81295fe71c)" style="fill: none; stroke: #b0b0b0; stroke-opacity: 0.3; stroke-width: 0.8; stroke-linecap: square"/>
     </g>
     <g id="line2d_8">
      <g>
       <use xlink:href="#m5c54faa653" x="381.789176" y="529.308125" style="stroke: #000000; stroke-width: 0.8"/>
      </g>
     </g>
     <g id="text_4">
      <text style="font: 10px 'DejaVu Sans', 'Bitstream Vera Sans', 'Computer Modern Sans Serif', 'Lucida Grande', 'Verdana', 'Geneva', 'Lucid', 'Arial', 'Helvetica', 'Avant Garde', sans-serif; text-anchor: middle" x="381.789176" y="543.906563" transform="rotate(-0 381.789176 543.906563)">110</text>
     </g>
    </g>
    <g id="xtick_5">
     <g id="line2d_9">
      <path d="M 487.229517 529.308125 
L 487.229517 23.837812 
" clip-path="url(#p81295fe71c)" style="fill: none; stroke: #b0b0b0; stroke-opacity: 0.3; stroke-width: 0.8; stroke-linecap: square"/>
     </g>
     <g id="line2d_10">
      <g>
       <use xlink:href="#m5c54faa653" x="487.229517" y="529.308125" style="stroke: #000000; stroke-width: 0.8"/>
      </g>
     </g>
     <g id="text_5">
      <text style="font: 10px 'DejaVu Sans', 'Bitstream Vera Sans', 'Computer Modern Sans Serif', 'Lucida Grande', 'Verdana', 'Geneva', 'Lucid', 'Arial', 'Helvetica', 'Avant Garde', sans-serif; text-anchor: middle" x="487.229517" y="543.906563" transform="rotate(-0 487.229517 543.906563)">115</text>
     </g>
    </g>
    <g id="text_6">
     <text style="font: 12px 'DejaVu Sans', 'Bitstream Vera Sans', 'Computer Modern Sans Serif', 'Lucida Grande', 'Verdana', 'Geneva', 'Lucid', 'Arial', 'Helvetica', 'Avant Garde', sans-serif; text-anchor: middle" x="307.980938" y="559.104375" transform="rotate(-0 307.980938 559.104375)">Build Number</text>
    </g>
   </g>
   <g id="matplotlib.axis_2">
    <g id="ytick_1">
     <g id="line2d_11">
      <path d="M 64.41375 47.46532 
L 551.548125 47.46532 
" clip-path="url(#p81295fe71c)" style="fill: none; stroke: #b0b0b0; stroke-opacity: 0.3; stroke-width: 0.8; stroke-linecap: square"/>
     </g>
     <g id="line2d_12">
      <defs>
       <path id="mac2c75cd97" d="M 0 0 
L -3.5 0 
" style="stroke: #000000; stroke-width: 0.8"/>
      </defs>
      <g>
       <use xlink:href="#mac2c75cd97" x="64.41375" y="47.46532" style="stroke: #000000; stroke-width: 0.8"/>
      </g>
     </g>
     <g id="text_7">
      <!-- $\mathdefault{10^{8}}$ -->
      <g transform="translate(39.81375 51.264539)">
       <text>
        <tspan style="font: 10px 'DejaVu Sans'" x="0 6.362305" y="-0.9765625">10</tspan>
        <tspan style="font: 7px 'DejaVu Sans'" x="12.820312" y="-4.8046875">8</tspan>
       </text>
      </g>
     </g>
    </g>
    <g id="ytick_2">
     <g id="line2d_13">
      <defs>
       <path id="m84089b26a2" d="M 0 0 
L -2 0 
" style="stroke: #000000; stroke-width: 0.6"/>
      </defs>
      <g>
       <use xlink:href="#m84089b26a2" x="64.41375" y="518.447842" style="stroke: #000000; stroke-width: 0.6"/>
      </g>
     </g>
     <g id="text_8">
      <!-- $\mathdefault{4\times10^{7}}$ -->
      <g transform="translate(22.81375 522.247061)">
       <text>
        <tspan style="font: 10px 'DejaVu Sans'" x="0 8.310547 18.637695 25" y="-0.06406250000000036">4×10</tspan>
        <tspan style="font: 7px 'DejaVu Sans'" x="31.458008" y="-3.8921875000000004">7</tspan>
       </text>
      </g>
     </g>
    </g>
    <g id="ytick_3">
     <g id="line2d_14">
      <g>
       <use xlink:href="#m84089b26a2" x="64.41375" y="403.749844" style="stroke: #000000; stroke-width: 0.6"/>
      </g>
     </g>
    </g>
    <g id="ytick_4">
     <g id="line2d_15">
      <g>
       <use xlink:href="#m84089b26a2" x="64.41375" y="310.034756" style="stroke: #000000; stroke-width: 0.6"/>
      </g>
     </g>
     <g id="text_9">
      <!-- $\mathdefault{6\times10^{7}}$ -->
      <g transform="translate(22.81375 313.833975)">
       <text>
        <tspan style="font: 10px 'DejaVu Sans'" x="0 8.310547 18.637695 25" y="-0.06406250000000036">6×10</tspan>
        <tspan style="font: 7px 'DejaVu Sans'" x="31.458008" y="-3.8921875000000004">7</tspan>
       </text>
      </g>
     </g>
    </g>
    <g id="ytick_5">
     <g id="line2d_16">
      <g>
       <use xlink:href="#m84089b26a2" x="64.41375" y="230.799778" style="stroke: #000000; stroke-width: 0.6"/>
      </g>
     </g>
    </g>
    <g id="ytick_6">
     <g id="line2d_17">
      <g>
       <use xlink:href="#m84089b26a2" x="64.41375" y="162.163318" style="stroke: #000000; stroke-width: 0.6"/>
      </g>
     </g>
    </g>
    <g id="ytick_7">
     <g id="line2d_18">
      <g>
       <use xlink:href="#m84089b26a2" x="64.41375" y="101.62167" style="stroke: #000000; stroke-width: 0.6"/>
      </g>
     </g>
    </g>
    <g id="text_10">
     <text style="font: 12px 'DejaVu Sans', 'Bitstream Vera Sans', 'Computer Modern Sans Serif', 'Lucida Grande', 'Verdana', 'Geneva', 'Lucid', 'Arial', 'Helvetica', 'Avant Garde', sans-serif; text-anchor: middle" x="16.318125" y="276.572969" transform="rotate(-90 16.318125 276.572969)">Median Elapsed Time (nanoseconds)</text>
    </g>
   </g>
   <g id="line2d_19">
    <path d="M 86.556222 47.045419 
L 107.64429 47.041076 
L 149.820426 47.080004 
L 170.908494 47.027793 
L 191.996563 47.091446 
L 213.084631 47.086463 
L 234.172699 47.051649 
L 255.260767 47.081082 
L 276.348835 47.027741 
L 297.436903 47.032901 
L 339.61304 47.010588 
L 360.701108 47.015253 
L 381.789176 47.077231 
L 402.877244 47.017702 
L 423.965313 47.079463 
L 466.141449 47.089386 
L 487.229517 47.067503 
L 508.317585 47.091274 
L 529.405653 47.06302 
" clip-path="url(#p81295fe71c)" style="fill: none; stroke: #1f77b4; stroke-width: 2; stroke-linecap: square"/>
    <defs>
     <path id="ma3de467c47" d="M 0 3 
C 0.795609 3 1.55874 2.683901 2.12132 2.12132 
C 2.683901 1.55874 3 0.795609 3 0 
C 3 -0.795609 2.683901 -1.55874 2.12132 -2.12132 
C 1.55874 -2.683901 0.795609 -3 0 -3 
C -0.795609 -3 -1.55874 -2.683901 -2.12132 -2.12132 
C -2.683901 -1.55874 -3 -0.795609 -3 0 
C -3 0.795609 -2.683901 1.55874 -2.12132 2.12132 
C -1.55874 2.683901 -0.795609 3 0 3 
z
" style="stroke: #1f77b4"/>
    </defs>
    <g clip-path="url(#p81295fe71c)">
     <use xlink:href="#ma3de467c47" x="86.556222" y="47.045419" style="fill: #1f77b4; stroke: #1f77b4"/>
     <use xlink:href="#ma3de467c47" x="107.64429" y="47.041076" style="fill: #1f77b4; stroke: #1f77b4"/>
     <use xlink:href="#ma3de467c47" x="149.820426" y="47.080004" style="fill: #1f77b4; stroke: #1f77b4"/>
     <use xlink:href="#ma3de467c47" x="170.908494" y="47.027793" style="fill: #1f77b4; stroke: #1f77b4"/>
     <use xlink:href="#ma3de467c47" x="191.996563" y="47.091446" style="fill: #1f77b4; stroke: #1f77b4"/>
     <use xlink:href="#ma3de467c47" x="213.084631" y="47.086463" style="fill: #1f77b4; stroke: #1f77b4"/>
     <use xlink:href="#ma3de467c47" x="234.172699" y="47.051649" style="fill: #1f77b4; stroke: #1f77b4"/>
     <use xlink:href="#ma3de467c47" x="255.260767" y="47.081082" style="fill: #1f77b4; stroke: #1f77b4"/>
     <use xlink:href="#ma3de467c47" x="276.348835" y="47.027741" style="fill: #1f77b4; stroke: #1f77b4"/>
     <use xlink:href="#ma3de467c47" x="297.436903" y="47.032901" style="fill: #1f77b4; stroke: #1f77b4"/>
     <use xlink:href="#ma3de467c47" x="339.61304" y="47.010588" style="fill: #1f77b4; stroke: #1f77b4"/>
     <use xlink:href="#ma3de467c47" x="360.701108" y="47.015253" style="fill: #1f77b4; stroke: #1f77b4"/>
     <use xlink:href="#ma3de467c47" x="381.789176" y="47.077231" style="fill: #1f77b4; stroke: #1f77b4"/>
     <use xlink:href="#ma3de467c47" x="402.877244" y="47.017702" style="fill: #1f77b4; stroke: #1f77b4"/>
     <use xlink:href="#ma3de467c47" x="423.965313" y="47.079463" style="fill: #1f77b4; stroke: #1f77b4"/>
     <use xlink:href="#ma3de467c47" x="466.141449" y="47.089386" style="fill: #1f77b4; stroke: #1f77b4"/>
     <use xlink:href="#ma3de467c47" x="487.229517" y="47.067503" style="fill: #1f77b4; stroke: #1f77b4"/>
     <use xlink:href="#ma3de467c47" x="508.317585" y="47.091274" style="fill: #1f77b4; stroke: #1f77b4"/>
     <use xlink:href="#ma3de467c47" x="529.405653" y="47.06302" style="fill: #1f77b4; stroke: #1f77b4"/>
    </g>
   </g>
   <g id="line2d_20">
    <path d="M 86.556222 504.89379 
L 107.64429 503.607486 
L 149.820426 506.332202 
L 170.908494 505.084141 
L 191.996563 505.472802 
L 213.084631 504.794673 
L 234.172699 504.16112 
L 255.260767 504.919896 
L 276.348835 504.286779 
L 297.436903 504.692142 
L 339.61304 504.698374 
L 360.701108 504.825382 
L 381.789176 504.994401 
L 402.877244 504.634255 
L 423.965313 506.282471 
L 466.141449 504.80694 
L 487.229517 505.762397 
L 508.317585 505.349154 
L 529.405653 505.01537 
" clip-path="url(#p81295fe71c)" style="fill: none; stroke: #ff7f0e; stroke-width: 2; stroke-linecap: square"/>
    <defs>
     <path id="m26c39242c2" d="M 0 3 
C 0.795609 3 1.55874 2.683901 2.12132 2.12132 
C 2.683901 1.55874 3 0.795609 3 0 
C 3 -0.795609 2.683901 -1.55874 2.12132 -2.12132 
C 1.55874 -2.683901 0.795609 -3 0 -3 
C -0.795609 -3 -1.55874 -2.683901 -2.12132 -2.12132 
C -2.683901 -1.55874 -3 -0.795609 -3 0 
C -3 0.795609 -2.683901 1.55874 -2.12132 2.12132 
C -1.55874 2.683901 -0.795609 3 0 3 
z
" style="stroke: #ff7f0e"/>
    </defs>
    <g clip-path="url(#p81295fe71c)">
     <use xlink:href="#m26c39242c2" x="86.556222" y="504.89379" style="fill: #ff7f0e; stroke: #ff7f0e"/>
     <use xlink:href="#m26c39242c2" x="107.64429" y="503.607486" style="fill: #ff7f0e; stroke: #ff7f0e"/>
     <use xlink:href="#m26c39242c2" x="149.820426" y="506.332202" style="fill: #ff7f0e; stroke: #ff7f0e"/>
     <use xlink:href="#m26c39242c2" x="170.908494" y="505.084141" style="fill: #ff7f0e; stroke: #ff7f0e"/>
     <use xlink:href="#m26c39242c2" x="191.996563" y="505.472802" style="fill: #ff7f0e; stroke: #ff7f0e"/>
     <use xlink:href="#m26c39242c2" x="213.084631" y="504.794673" style="fill: #ff7f0e; stroke: #ff7f0e"/>
     <use xlink:href="#m26c39242c2" x="234.172699" y="504.16112" style="fill: #ff7f0e; stroke: #ff7f0e"/>
     <use xlink:href="#m26c39242c2" x="255.260767" y="504.919896" style="fill: #ff7f0e; stroke: #ff7f0e"/>
     <use xlink:href="#m26c39242c2" x="276.348835" y="504.286779" style="fill: #ff7f0e; stroke: #ff7f0e"/>
     <use xlink:href="#m26c39242c2" x="297.436903" y="504.692142" style="fill: #ff7f0e; stroke: #ff7f0e"/>
     <use xlink:href="#m26c39242c2" x="339.61304" y="504.698374" style="fill: #ff7f0e; stroke: #ff7f0e"/>
     <use xlink:href="#m26c39242c2" x="360.701108" y="504.825382" style="fill: #ff7f0e; stroke: #ff7f0e"/>
     <use xlink:href="#m26c39242c2" x="381.789176" y="504.994401" style="fill: #ff7f0e; stroke: #ff7f0e"/>
     <use xlink:href="#m26c39242c2" x="402.877244" y="504.634255" style="fill: #ff7f0e; stroke: #ff7f0e"/>
     <use xlink:href="#m26c39242c2" x="423.965313" y="506.282471" style="fill: #ff7f0e; stroke: #ff7f0e"/>
     <use xlink:href="#m26c39242c2" x="466.141449" y="504.80694" style="fill: #ff7f0e; stroke: #ff7f0e"/>
     <use xlink:href="#m26c39242c2" x="487.229517" y="505.762397" style="fill: #ff7f0e; stroke: #ff7f0e"/>
     <use xlink:href="#m26c39242c2" x="508.317585" y="505.349154" style="fill: #ff7f0e; stroke: #ff7f0e"/>
     <use xlink:href="#m26c39242c2" x="529.405653" y="505.01537" style="fill: #ff7f0e; stroke: #ff7f0e"/>
    </g>
   </g>
   <g id="line2d_21">
    <path d="M 86.556222 46.933395 
L 107.64429 46.935546 
L 149.820426 47.002323 
L 170.908494 46.938538 
L 191.996563 47.007851 
L 213.084631 47.000212 
L 234.172699 46.973753 
L 255.260767 47.002711 
L 276.348835 46.947428 
L 297.436903 46.959179 
L 339.61304 46.89879 
L 360.701108 46.920361 
L 381.789176 47.00537 
L 402.877244 46.977418 
L 423.965313 47.000407 
L 466.141449 47.000408 
L 487.229517 46.998299 
L 508.317585 46.998078 
L 529.405653 46.991324 
" clip-path="url(#p81295fe71c)" style="fill: none; stroke: #2ca02c; stroke-width: 2; stroke-linecap: square"/>
    <defs>
     <path id="m7731e762c3" d="M 0 3 
C 0.795609 3 1.55874 2.683901 2.12132 2.12132 
C 2.683901 1.55874 3 0.795609 3 0 
C 3 -0.795609 2.683901 -1.55874 2.12132 -2.12132 
C 1.55874 -2.683901 0.795609 -3 0 -3 
C -0.795609 -3 -1.55874 -2.683901 -2.12132 -2.12132 
C -2.683901 -1.55874 -3 -0.795609 -3 0 
C -3 0.795609 -2.683901 1.55874 -2.12132 2.12132 
C -1.55874 2.683901 -0.795609 3 0 3 
z
" style="stroke: #2ca02c"/>
    </defs>
    <g clip-path="url(#p81295fe71c)">
     <use xlink:href="#m7731e762c3" x="86.556222" y="46.933395" style="fill: #2ca02c; stroke: #2ca02c"/>
     <use xlink:href="#m7731e762c3" x="107.64429" y="46.935546" style="fill: #2ca02c; stroke: #2ca02c"/>
     <use xlink:href="#m7731e762c3" x="149.820426" y="47.002323" style="fill: #2ca02c; stroke: #2ca02c"/>
     <use xlink:href="#m7731e762c3" x="170.908494" y="46.938538" style="fill: #2ca02c; stroke: #2ca02c"/>
     <use xlink:href="#m7731e762c3" x="191.996563" y="47.007851" style="fill: #2ca02c; stroke: #2ca02c"/>
     <use xlink:href="#m7731e762c3" x="213.084631" y="47.000212" style="fill: #2ca02c; stroke: #2ca02c"/>
     <use xlink:href="#m7731e762c3" x="234.172699" y="46.973753" style="fill: #2ca02c; stroke: #2ca02c"/>
     <use xlink:href="#m7731e762c3" x="255.260767" y="47.002711" style="fill: #2ca02c; stroke: #2ca02c"/>
     <use xlink:href="#m7731e762c3" x="276.348835" y="46.947428" style="fill: #2ca02c; stroke: #2ca02c"/>
     <use xlink:href="#m7731e762c3" x="297.436903" y="46.959179" style="fill: #2ca02c; stroke: #2ca02c"/>
     <use xlink:href="#m7731e762c3" x="339.61304" y="46.89879" style="fill: #2ca02c; stroke: #2ca02c"/>
     <use xlink:href="#m7731e762c3" x="360.701108" y="46.920361" style="fill: #2ca02c; stroke: #2ca02c"/>
     <use xlink:href="#m7731e762c3" x="381.789176" y="47.00537" style="fill: #2ca02c; stroke: #2ca02c"/>
     <use xlink:href="#m7731e762c3" x="402.877244" y="46.977418" style="fill: #2ca02c; stroke: #2ca02c"/>
     <use xlink:href="#m7731e762c3" x="423.965313" y="47.000407" style="fill: #2ca02c; stroke: #2ca02c"/>
     <use xlink:href="#m7731e762c3" x="466.141449" y="47.000408" style="fill: #2ca02c; stroke: #2ca02c"/>
     <use xlink:href="#m7731e762c3" x="487.229517" y="46.998299" style="fill: #2ca02c; stroke: #2ca02c"/>
     <use xlink:href="#m7731e762c3" x="508.317585" y="46.998078" style="fill: #2ca02c; stroke: #2ca02c"/>
     <use xlink:href="#m7731e762c3" x="529.405653" y="46.991324" style="fill: #2ca02c; stroke: #2ca02c"/>
    </g>
   </g>
   <g id="line2d_22">
    <path d="M 86.556222 504.124409 
L 107.64429 504.547281 
L 149.820426 504.931253 
L 170.908494 503.829879 
L 191.996563 505.502805 
L 213.084631 505.584703 
L 234.172699 504.605412 
L 255.260767 505.668892 
L 276.348835 504.652608 
L 297.436903 505.788421 
L 339.61304 505.104428 
L 360.701108 504.650308 
L 381.789176 504.814801 
L 402.877244 505.235861 
L 423.965313 504.561416 
L 466.141449 504.432643 
L 487.229517 505.641227 
L 508.317585 505.638573 
L 529.405653 503.646187 
" clip-path="url(#p81295fe71c)" style="fill: none; stroke: #d62728; stroke-width: 2; stroke-linecap: square"/>
    <defs>
     <path id="mb2a61dfa78" d="M 0 3 
C 0.795609 3 1.55874 2.683901 2.12132 2.12132 
C 2.683901 1.55874 3 0.795609 3 0 
C 3 -0.795609 2.683901 -1.55874 2.12132 -2.12132 
C 1.55874 -2.683901 0.795609 -3 0 -3 
C -0.795609 -3 -1.55874 -2.683901 -2.12132 -2.12132 
C -2.683901 -1.55874 -3 -0.795609 -3 0 
C -3 0.795609 -2.683901 1.55874 -2.12132 2.12132 
C -1.55874 2.683901 -0.795609 3 0 3 
z
" style="stroke: #d62728"/>
    </defs>
    <g clip-path="url(#p81295fe71c)">
     <use xlink:href="#mb2a61dfa78" x="86.556222" y="504.124409" style="fill: #d62728; stroke: #d62728"/>
     <use xlink:href="#mb2a61dfa78" x="107.64429" y="504.547281" style="fill: #d62728; stroke: #d62728"/>
     <use xlink:href="#mb2a61dfa78" x="149.820426" y="504.931253" style="fill: #d62728; stroke: #d62728"/>
     <use xlink:href="#mb2a61dfa78" x="170.908494" y="503.829879" style="fill: #d62728; stroke: #d62728"/>
     <use xlink:href="#mb2a61dfa78" x="191.996563" y="505.502805" style="fill: #d62728; stroke: #d62728"/>
     <use xlink:href="#mb2a61dfa78" x="213.084631" y="505.584703" style="fill: #d62728; stroke: #d62728"/>
     <use xlink:href="#mb2a61dfa78" x="234.172699" y="504.605412" style="fill: #d62728; stroke: #d62728"/>
     <use xlink:href="#mb2a61dfa78" x="255.260767" y="505.668892" style="fill: #d62728; stroke: #d62728"/>
     <use xlink:href="#mb2a61dfa78" x="276.348835" y="504.652608" style="fill: #d62728; stroke: #d62728"/>
     <use xlink:href="#mb2a61dfa78" x="297.436903" y="505.788421" style="fill: #d62728; stroke: #d62728"/>
     <use xlink:href="#mb2a61dfa78" x="339.61304" y="505.104428" style="fill: #d62728; stroke: #d62728"/>
     <use xlink:href="#mb2a61dfa78" x="360.701108" y="504.650308" style="fill: #d62728; stroke: #d62728"/>
     <use xlink:href="#mb2a61dfa78" x="381.789176" y="504.814801" style="fill: #d62728; stroke: #d62728"/>
     <use xlink:href="#mb2a61dfa78" x="402.877244" y="505.235861" style="fill: #d62728; stroke: #d62728"/>
     <use xlink:href="#mb2a61dfa78" x="423.965313" y="504.561416" style="fill: #d62728; stroke: #d62728"/>
     <use xlink:href="#mb2a61dfa78" x="466.141449" y="504.432643" style="fill: #d62728; stroke: #d62728"/>
     <use xlink:href="#mb2a61dfa78" x="487.229517" y="505.641227" style="fill: #d62728; stroke: #d62728"/>
     <use xlink:href="#mb2a61dfa78" x="508.317585" y="505.638573" style="fill: #d62728; stroke: #d62728"/>
     <use xlink:href="#mb2a61dfa78" x="529.405653" y="503.646187" style="fill: #d62728; stroke: #d62728"/>
    </g>
   </g>
   <g id="line2d_23">
    <path d="M 86.556222 47.058206 
L 107.64429 47.073436 
L 149.820426 47.077584 
L 170.908494 47.050986 
L 191.996563 47.093062 
L 213.084631 47.102646 
L 234.172699 47.095319 
L 255.260767 47.083179 
L 276.348835 47.085848 
L 297.436903 47.082449 
L 339.61304 47.076505 
L 360.701108 47.104627 
L 381.789176 47.080111 
L 423.965313 47.090759 
L 487.229517 47.09084 
L 508.317585 47.08782 
L 529.405653 47.038597 
" clip-path="url(#p81295fe71c)" style="fill: none; stroke: #9467bd; stroke-width: 2; stroke-linecap: square"/>
    <defs>
     <path id="mb9f38a8606" d="M 0 3 
C 0.795609 3 1.55874 2.683901 2.12132 2.12132 
C 2.683901 1.55874 3 0.795609 3 0 
C 3 -0.795609 2.683901 -1.55874 2.12132 -2.12132 
C 1.55874 -2.683901 0.795609 -3 0 -3 
C -0.795609 -3 -1.55874 -2.683901 -2.12132 -2.12132 
C -2.683901 -1.55874 -3 -0.795609 -3 0 
C -3 0.795609 -2.683901 1.55874 -2.12132 2.12132 
C -1.55874 2.683901 -0.795609 3 0 3 
z
" style="stroke: #9467bd"/>
    </defs>
    <g clip-path="url(#p81295fe71c)">
     <use xlink:href="#mb9f38a8606" x="86.556222" y="47.058206" style="fill: #9467bd; stroke: #9467bd"/>
     <use xlink:href="#mb9f38a8606" x="107.64429" y="47.073436" style="fill: #9467bd; stroke: #9467bd"/>
     <use xlink:href="#mb9f38a8606" x="149.820426" y="47.077584" style="fill: #9467bd; stroke: #9467bd"/>
     <use xlink:href="#mb9f38a8606" x="170.908494" y="47.050986" style="fill: #9467bd; stroke: #9467bd"/>
     <use xlink:href="#mb9f38a8606" x="191.996563" y="47.093062" style="fill: #9467bd; stroke: #9467bd"/>
     <use xlink:href="#mb9f38a8606" x="213.084631" y="47.102646" style="fill: #9467bd; stroke: #9467bd"/>
     <use xlink:href="#mb9f38a8606" x="234.172699" y="47.095319" style="fill: #9467bd; stroke: #9467bd"/>
     <use xlink:href="#mb9f38a8606" x="255.260767" y="47.083179" style="fill: #9467bd; stroke: #9467bd"/>
     <use xlink:href="#mb9f38a8606" x="276.348835" y="47.085848" style="fill: #9467bd; stroke: #9467bd"/>
     <use xlink:href="#mb9f38a8606" x="297.436903" y="47.082449" style="fill: #9467bd; stroke: #9467bd"/>
     <use xlink:href="#mb9f38a8606" x="339.61304" y="47.076505" style="fill: #9467bd; stroke: #9467bd"/>
     <use xlink:href="#mb9f38a8606" x="360.701108" y="47.104627" style="fill: #9467bd; stroke: #9467bd"/>
     <use xlink:href="#mb9f38a8606" x="381.789176" y="47.080111" style="fill: #9467bd; stroke: #9467bd"/>
     <use xlink:href="#mb9f38a8606" x="423.965313" y="47.090759" style="fill: #9467bd; stroke: #9467bd"/>
     <use xlink:href="#mb9f38a8606" x="487.229517" y="47.09084" style="fill: #9467bd; stroke: #9467bd"/>
     <use xlink:href="#mb9f38a8606" x="508.317585" y="47.08782" style="fill: #9467bd; stroke: #9467bd"/>
     <use xlink:href="#mb9f38a8606" x="529.405653" y="47.038597" style="fill: #9467bd; stroke: #9467bd"/>
    </g>
   </g>
   <g id="line2d_24">
    <path d="M 86.556222 423.351373 
L 107.64429 423.188249 
L 149.820426 423.776519 
L 170.908494 424.294215 
L 191.996563 423.685715 
L 213.084631 423.832076 
L 234.172699 423.624349 
L 255.260767 423.64012 
L 276.348835 423.84617 
L 297.436903 422.149169 
L 339.61304 423.487148 
L 360.701108 424.331331 
L 381.789176 423.325687 
L 423.965313 423.944683 
L 487.229517 423.250346 
L 508.317585 423.610916 
L 529.405653 423.165109 
" clip-path="url(#p81295fe71c)" style="fill: none; stroke: #8c564b; stroke-width: 2; stroke-linecap: square"/>
    <defs>
     <path id="m26e296ed9f" d="M 0 3 
C 0.795609 3 1.55874 2.683901 2.12132 2.12132 
C 2.683901 1.55874 3 0.795609 3 0 
C 3 -0.795609 2.683901 -1.55874 2.12132 -2.12132 
C 1.55874 -2.683901 0.795609 -3 0 -3 
C -0.795609 -3 -1.55874 -2.683901 -2.12132 -2.12132 
C -2.683901 -1.55874 -3 -0.795609 -3 0 
C -3 0.795609 -2.683901 1.55874 -2.12132 2.12132 
C -1.55874 2.683901 -0.795609 3 0 3 
z
" style="stroke: #8c564b"/>
    </defs>
    <g clip-path="url(#p81295fe71c)">
     <use xlink:href="#m26e296ed9f" x="86.556222" y="423.351373" style="fill: #8c564b; stroke: #8c564b"/>
     <use xlink:href="#m26e296ed9f" x="107.64429" y="423.188249" style="fill: #8c564b; stroke: #8c564b"/>
     <use xlink:href="#m26e296ed9f" x="149.820426" y="423.776519" style="fill: #8c564b; stroke: #8c564b"/>
     <use xlink:href="#m26e296ed9f" x="170.908494" y="424.294215" style="fill: #8c564b; stroke: #8c564b"/>
     <use xlink:href="#m26e296ed9f" x="191.996563" y="423.685715" style="fill: #8c564b; stroke: #8c564b"/>
     <use xlink:href="#m26e296ed9f" x="213.084631" y="423.832076" style="fill: #8c564b; stroke: #8c564b"/>
     <use xlink:href="#m26e296ed9f" x="234.172699" y="423.624349" style="fill: #8c564b; stroke: #8c564b"/>
     <use xlink:href="#m26e296ed9f" x="255.260767" y="423.64012" style="fill: #8c564b; stroke: #8c564b"/>
     <use xlink:href="#m26e296ed9f" x="276.348835" y="423.84617" style="fill: #8c564b; stroke: #8c564b"/>
     <use xlink:href="#m26e296ed9f" x="297.436903" y="422.149169" style="fill: #8c564b; stroke: #8c564b"/>
     <use xlink:href="#m26e296ed9f" x="339.61304" y="423.487148" style="fill: #8c564b; stroke: #8c564b"/>
     <use xlink:href="#m26e296ed9f" x="360.701108" y="424.331331" style="fill: #8c564b; stroke: #8c564b"/>
     <use xlink:href="#m26e296ed9f" x="381.789176" y="423.325687" style="fill: #8c564b; stroke: #8c564b"/>
     <use xlink:href="#m26e296ed9f" x="423.965313" y="423.944683" style="fill: #8c564b; stroke: #8c564b"/>
     <use xlink:href="#m26e296ed9f" x="487.229517" y="423.250346" style="fill: #8c564b; stroke: #8c564b"/>
     <use xlink:href="#m26e296ed9f" x="508.317585" y="423.610916" style="fill: #8c564b; stroke: #8c564b"/>
     <use xlink:href="#m26e296ed9f" x="529.405653" y="423.165109" style="fill: #8c564b; stroke: #8c564b"/>
    </g>
   </g>
   <g id="line2d_25">
    <path d="M 86.556222 46.96239 
L 107.64429 46.992283 
L 149.820426 46.999001 
L 170.908494 46.813736 
L 191.996563 47.000552 
L 213.084631 47.007251 
L 234.172699 46.996215 
L 255.260767 46.999432 
L 276.348835 46.98848 
L 297.436903 46.998826 
L 339.61304 46.99576 
L 360.701108 47.011218 
L 381.789176 47.005003 
L 423.965313 47.000971 
L 487.229517 47.0026 
L 508.317585 47.014298 
L 529.405653 46.93852 
" clip-path="url(#p81295fe71c)" style="fill: none; stroke: #e377c2; stroke-width: 2; stroke-linecap: square"/>
    <defs>
     <path id="mc6b862f18e" d="M 0 3 
C 0.795609 3 1.55874 2.683901 2.12132 2.12132 
C 2.683901 1.55874 3 0.795609 3 0 
C 3 -0.795609 2.683901 -1.55874 2.12132 -2.12132 
C 1.55874 -2.683901 0.795609 -3 0 -3 
C -0.795609 -3 -1.55874 -2.683901 -2.12132 -2.12132 
C -2.683901 -1.55874 -3 -0.795609 -3 0 
C -3 0.795609 -2.683901 1.55874 -2.12132 2.12132 
C -1.55874 2.683901 -0.795609 3 0 3 
z
" style="stroke: #e377c2"/>
    </defs>
    <g clip-path="url(#p81295fe71c)">
     <use xlink:href="#mc6b862f18e" x="86.556222" y="46.96239" style="fill: #e377c2; stroke: #e377c2"/>
     <use xlink:href="#mc6b862f18e" x="107.64429" y="46.992283" style="fill: #e377c2; stroke: #e377c2"/>
     <use xlink:href="#mc6b862f18e" x="149.820426" y="46.999001" style="fill: #e377c2; stroke: #e377c2"/>
     <use xlink:href="#mc6b862f18e" x="170.908494" y="46.813736" style="fill: #e377c2; stroke: #e377c2"/>
     <use xlink:href="#mc6b862f18e" x="191.996563" y="47.000552" style="fill: #e377c2; stroke: #e377c2"/>
     <use xlink:href="#mc6b862f18e" x="213.084631" y="47.007251" style="fill: #e377c2; stroke: #e377c2"/>
     <use xlink:href="#mc6b862f18e" x="234.172699" y="46.996215" style="fill: #e377c2; stroke: #e377c2"/>
     <use xlink:href="#mc6b862f18e" x="255.260767" y="46.999432" style="fill: #e377c2; stroke: #e377c2"/>
     <use xlink:href="#mc6b862f18e" x="276.348835" y="46.98848" style="fill: #e377c2; stroke: #e377c2"/>
     <use xlink:href="#mc6b862f18e" x="297.436903" y="46.998826" style="fill: #e377c2; stroke: #e377c2"/>
     <use xlink:href="#mc6b862f18e" x="339.61304" y="46.99576" style="fill: #e377c2; stroke: #e377c2"/>
     <use xlink:href="#mc6b862f18e" x="360.701108" y="47.011218" style="fill: #e377c2; stroke: #e377c2"/>
     <use xlink:href="#mc6b862f18e" x="381.789176" y="47.005003" style="fill: #e377c2; stroke: #e377c2"/>
     <use xlink:href="#mc6b862f18e" x="423.965313" y="47.000971" style="fill: #e377c2; stroke: #e377c2"/>
     <use xlink:href="#mc6b862f18e" x="487.229517" y="47.0026" style="fill: #e377c2; stroke: #e377c2"/>
     <use xlink:href="#mc6b862f18e" x="508.317585" y="47.014298" style="fill: #e377c2; stroke: #e377c2"/>
     <use xlink:href="#mc6b862f18e" x="529.405653" y="46.93852" style="fill: #e377c2; stroke: #e377c2"/>
    </g>
   </g>
   <g id="line2d_26">
    <path d="M 86.556222 423.584551 
L 107.64429 424.032078 
L 149.820426 423.288595 
L 170.908494 423.495664 
L 191.996563 423.826623 
L 213.084631 423.778058 
L 234.172699 422.614645 
L 255.260767 423.163554 
L 276.348835 423.569898 
L 297.436903 423.321611 
L 339.61304 423.151116 
L 360.701108 423.675467 
L 381.789176 422.802532 
L 423.965313 423.524592 
L 487.229517 423.555987 
L 508.317585 423.665664 
L 529.405653 423.435292 
" clip-path="url(#p81295fe71c)" style="fill: none; stroke: #7f7f7f; stroke-width: 2; stroke-linecap: square"/>
    <defs>
     <path id="m7c20702cae" d="M 0 3 
C 0.795609 3 1.55874 2.683901 2.12132 2.12132 
C 2.683901 1.55874 3 0.795609 3 0 
C 3 -0.795609 2.683901 -1.55874 2.12132 -2.12132 
C 1.55874 -2.683901 0.795609 -3 0 -3 
C -0.795609 -3 -1.55874 -2.683901 -2.12132 -2.12132 
C -2.683901 -1.55874 -3 -0.795609 -3 0 
C -3 0.795609 -2.683901 1.55874 -2.12132 2.12132 
C -1.55874 2.683901 -0.795609 3 0 3 
z
" style="stroke: #7f7f7f"/>
    </defs>
    <g clip-path="url(#p81295fe71c)">
     <use xlink:href="#m7c20702cae" x="86.556222" y="423.584551" style="fill: #7f7f7f; stroke: #7f7f7f"/>
     <use xlink:href="#m7c20702cae" x="107.64429" y="424.032078" style="fill: #7f7f7f; stroke: #7f7f7f"/>
     <use xlink:href="#m7c20702cae" x="149.820426" y="423.288595" style="fill: #7f7f7f; stroke: #7f7f7f"/>
     <use xlink:href="#m7c20702cae" x="170.908494" y="423.495664" style="fill: #7f7f7f; stroke: #7f7f7f"/>
     <use xlink:href="#m7c20702cae" x="191.996563" y="423.826623" style="fill: #7f7f7f; stroke: #7f7f7f"/>
     <use xlink:href="#m7c20702cae" x="213.084631" y="423.778058" style="fill: #7f7f7f; stroke: #7f7f7f"/>
     <use xlink:href="#m7c20702cae" x="234.172699" y="422.614645" style="fill: #7f7f7f; stroke: #7f7f7f"/>
     <use xlink:href="#m7c20702cae" x="255.260767" y="423.163554" style="fill: #7f7f7f; stroke: #7f7f7f"/>
     <use xlink:href="#m7c20702cae" x="276.348835" y="423.569898" style="fill: #7f7f7f; stroke: #7f7f7f"/>
     <use xlink:href="#m7c20702cae" x="297.436903" y="423.321611" style="fill: #7f7f7f; stroke: #7f7f7f"/>
     <use xlink:href="#m7c20702cae" x="339.61304" y="423.151116" style="fill: #7f7f7f; stroke: #7f7f7f"/>
     <use xlink:href="#m7c20702cae" x="360.701108" y="423.675467" style="fill: #7f7f7f; stroke: #7f7f7f"/>
     <use xlink:href="#m7c20702cae" x="381.789176" y="422.802532" style="fill: #7f7f7f; stroke: #7f7f7f"/>
     <use xlink:href="#m7c20702cae" x="423.965313" y="423.524592" style="fill: #7f7f7f; stroke: #7f7f7f"/>
     <use xlink:href="#m7c20702cae" x="487.229517" y="423.555987" style="fill: #7f7f7f; stroke: #7f7f7f"/>
     <use xlink:href="#m7c20702cae" x="508.317585" y="423.665664" style="fill: #7f7f7f; stroke: #7f7f7f"/>
     <use xlink:href="#m7c20702cae" x="529.405653" y="423.435292" style="fill: #7f7f7f; stroke: #7f7f7f"/>
    </g>
   </g>
   <g id="patch_3">
    <path d="M 64.41375 529.308125 
L 64.41375 23.837812 
" style="fill: none; stroke: #000000; stroke-width: 0.8; stroke-linejoin: miter; stroke-linecap: square"/>
   </g>
   <g id="patch_4">
    <path d="M 551.548125 529.308125 
L 551.548125 23.837812 
" style="fill: none; stroke: #000000; stroke-width: 0.8; stroke-linejoin: miter; stroke-linecap: square"/>
   </g>
   <g id="patch_5">
    <path d="M 64.41375 529.308125 
L 551.548125 529.308125 
" style="fill: none; stroke: #000000; stroke-width: 0.8; stroke-linejoin: miter; stroke-linecap: square"/>
   </g>
   <g id="patch_6">
    <path d="M 64.41375 23.837812 
L 551.548125 23.837812 
" style="fill: none; stroke: #000000; stroke-width: 0.8; stroke-linejoin: miter; stroke-linecap: square"/>
   </g>
   <g id="text_11">
    <text style="font: 700 14px 'DejaVu Sans', 'Bitstream Vera Sans', 'Computer Modern Sans Serif', 'Lucida Grande', 'Verdana', 'Geneva', 'Lucid', 'Arial', 'Helvetica', 'Avant Garde', sans-serif; text-anchor: middle" x="307.980938" y="17.837813" transform="rotate(-0 307.980938 17.837813)">Coroutine Parallel Compute - Performance Trend</text>
   </g>
   <g id="legend_1">
    <g id="patch_7">
     <path d="M 582.904844 151.487813 
L 838.476719 151.487813 
Q 840.476719 151.487813 840.476719 149.487813 
L 840.476719 30.837813 
Q 840.476719 28.837813 838.476719 28.837813 
L 582.904844 28.837813 
Q 580.904844 28.837813 580.904844 30.837813 
L 580.904844 149.487813 
Q 580.904844 151.487813 582.904844 151.487813 
z
" style="fill: #ffffff; opacity: 0.8; stroke: #cccccc; stroke-linejoin: miter"/>
    </g>
    <g id="line2d_27">
     <path d="M 584.904844 36.93625 
L 594.904844 36.93625 
L 604.904844 36.93625 
" style="fill: none; stroke: #1f77b4; stroke-width: 2; stroke-linecap: square"/>
     <g>
      <use xlink:href="#ma3de467c47" x="594.904844" y="36.93625" style="fill: #1f77b4; stroke: #1f77b4"/>
     </g>
    </g>
    <g id="text_12">
     <text style="font: 10px 'DejaVu Sans', 'Bitstream Vera Sans', 'Computer Modern Sans Serif', 'Lucida Grande', 'Verdana', 'Geneva', 'Lucid', 'Arial', 'Helvetica', 'Avant Garde', sans-serif; text-anchor: start" x="612.904844" y="40.43625" transform="rotate(-0 612.904844 40.43625)">gcc-14.2 - ParallelCompute_Coroutines_V1</text>
    </g>
    <g id="line2d_28">
     <path d="M 584.904844 51.8925 
L 594.904844 51.8925 
L 604.904844 51.8925 
" style="fill: none; stroke: #ff7f0e; stroke-width: 2; stroke-linecap: square"/>
     <g>
      <use xlink:href="#m26c39242c2" x="594.904844" y="51.8925" style="fill: #ff7f0e; stroke: #ff7f0e"/>
     </g>
    </g>
    <g id="text_13">
     <text style="font: 10px 'DejaVu Sans', 'Bitstream Vera Sans', 'Computer Modern Sans Serif', 'Lucida Grande', 'Verdana', 'Geneva', 'Lucid', 'Arial', 'Helvetica', 'Avant Garde', sans-serif; text-anchor: start" x="612.904844" y="55.3925" transform="rotate(-0 612.904844 55.3925)">gcc-14.2 - ParallelCompute_RegularTasks_V1</text>
    </g>
    <g id="line2d_29">
     <path d="M 584.904844 66.84875 
L 594.904844 66.84875 
L 604.904844 66.84875 
" style="fill: none; stroke: #2ca02c; stroke-width: 2; stroke-linecap: square"/>
     <g>
      <use xlink:href="#m7731e762c3" x="594.904844" y="66.84875" style="fill: #2ca02c; stroke: #2ca02c"/>
     </g>
    </g>
    <g id="text_14">
     <text style="font: 10px 'DejaVu Sans', 'Bitstream Vera Sans', 'Computer Modern Sans Serif', 'Lucida Grande', 'Verdana', 'Geneva', 'Lucid', 'Arial', 'Helvetica', 'Avant Garde', sans-serif; text-anchor: start" x="612.904844" y="70.34875" transform="rotate(-0 612.904844 70.34875)">gcc-14.2 - ParallelCompute_Coroutines_V2</text>
    </g>
    <g id="line2d_30">
     <path d="M 584.904844 81.805 
L 594.904844 81.805 
L 604.904844 81.805 
" style="fill: none; stroke: #d62728; stroke-width: 2; stroke-linecap: square"/>
     <g>
      <use xlink:href="#mb2a61dfa78" x="594.904844" y="81.805" style="fill: #d62728; stroke: #d62728"/>
     </g>
    </g>
    <g id="text_15">
     <text style="font: 10px 'DejaVu Sans', 'Bitstream Vera Sans', 'Computer Modern Sans Serif', 'Lucida Grande', 'Verdana', 'Geneva', 'Lucid', 'Arial', 'Helvetica', 'Avant Garde', sans-serif; text-anchor: start" x="612.904844" y="85.305" transform="rotate(-0 612.904844 85.305)">gcc-14.2 - ParallelCompute_RegularTasks_V2</text>
    </g>
    <g id="line2d_31">
     <path d="M 584.904844 96.76125 
L 594.904844 96.76125 
L 604.904844 96.76125 
" style="fill: none; stroke: #9467bd; stroke-width: 2; stroke-linecap: square"/>
     <g>
      <use xlink:href="#mb9f38a8606" x="594.904844" y="96.76125" style="fill: #9467bd; stroke: #9467bd"/>
     </g>
    </g>
    <g id="text_16">
     <text style="font: 10px 'DejaVu Sans', 'Bitstream Vera Sans', 'Computer Modern Sans Serif', 'Lucida Grande', 'Verdana', 'Geneva', 'Lucid', 'Arial', 'Helvetica', 'Avant Garde', sans-serif; text-anchor: start" x="612.904844" y="100.26125" transform="rotate(-0 612.904844 100.26125)">gcc-4.2 - ParallelCompute_Coroutines_V1</text>
    </g>
    <g id="line2d_32">
     <path d="M 584.904844 111.7175 
L 594.904844 111.7175 
L 604.904844 111.7175 
" style="fill: none; stroke: #8c564b; stroke-width: 2; stroke-linecap: square"/>
     <g>
      <use xlink:href="#m26e296ed9f" x="594.904844" y="111.7175" style="fill: #8c564b; stroke: #8c564b"/>
     </g>
    </g>
    <g id="text_17">
     <text style="font: 10px 'DejaVu Sans', 'Bitstream Vera Sans', 'Computer Modern Sans Serif', 'Lucida Grande', 'Verdana', 'Geneva', 'Lucid', 'Arial', 'Helvetica', 'Avant Garde', sans-serif; text-anchor: start" x="612.904844" y="115.2175" transform="rotate(-0 612.904844 115.2175)">gcc-4.2 - ParallelCompute_RegularTasks_V1</text>
    </g>
    <g id="line2d_33">
     <path d="M 584.904844 126.67375 
L 594.904844 126.67375 
L 604.904844 126.67375 
" style="fill: none; stroke: #e377c2; stroke-width: 2; stroke-linecap: square"/>
     <g>
      <use xlink:href="#mc6b862f18e" x="594.904844" y="126.67375" style="fill: #e377c2; stroke: #e377c2"/>
     </g>
    </g>
    <g id="text_18">
     <text style="font: 10px 'DejaVu Sans', 'Bitstream Vera Sans', 'Computer Modern Sans Serif', 'Lucida Grande', 'Verdana', 'Geneva', 'Lucid', 'Arial', 'Helvetica', 'Avant Garde', sans-serif; text-anchor: start" x="612.904844" y="130.17375" transform="rotate(-0 612.904844 130.17375)">gcc-4.2 - ParallelCompute_Coroutines_V2</text>
    </g>
    <g id="line2d_34">
     <path d="M 584.904844 141.63 
L 594.904844 141.63 
L 604.904844 141.63 
" style="fill: none; stroke: #7f7f7f; stroke-width: 2; stroke-linecap: square"/>
     <g>
      <use xlink:href="#m7c20702cae" x="594.904844" y="141.63" style="fill: #7f7f7f; stroke: #7f7f7f"/>
     </g>
    </g>
    <g id="text_19">
     <text style="font: 10px 'DejaVu Sans', 'Bitstream Vera Sans', 'Computer Modern Sans Serif', 'Lucida Grande', 'Verdana', 'Geneva', 'Lucid', 'Arial', 'Helvetica', 'Avant Garde', sans-serif; text-anchor: start" x="612.904844" y="145.13" transform="rotate(-0 612.904844 145.13)">gcc-4.2 - ParallelCompute_RegularTasks_V2</text>
    </g>
   </g>
  </g>
 </g>
 <defs>
  <clipPath id="p81295fe71c">
   <rect x="64.41375" y="23.837813" width="487.134375" height="505.470313"/>
  </clipPath>
 </defs>
</svg>
