<?xml version="1.0" encoding="utf-8" standalone="no"?>
<!DOCTYPE svg PUBLIC "-//W3C//DTD SVG 1.1//EN"
  "http://www.w3.org/Graphics/SVG/1.1/DTD/svg11.dtd">
<svg xmlns:xlink="http://www.w3.org/1999/xlink" width="850.820859pt" height="568.8pt" viewBox="0 0 850.820859 568.8" xmlns="http://www.w3.org/2000/svg" version="1.1">
 <metadata>
  <rdf:RDF xmlns:dc="http://purl.org/dc/elements/1.1/" xmlns:cc="http://creativecommons.org/ns#" xmlns:rdf="http://www.w3.org/1999/02/22-rdf-syntax-ns#">
   <cc:Work>
    <dc:type rdf:resource="http://purl.org/dc/dcmitype/StillImage"/>
    <dc:date>2025-10-14T04:52:23.458318</dc:date>
    <dc:format>image/svg+xml</dc:format>
    <dc:creator>
     <cc:Agent>
      <dc:title>Matplotlib v3.9.4, https://matplotlib.org/</dc:title>
     </cc:Agent>
    </dc:creator>
   </cc:Work>
  </rdf:RDF>
 </metadata>
 <defs>
  <style type="text/css">*{stroke-linejoin: round; stroke-linecap: butt}</style>
 </defs>
 <g id="figure_1">
  <g id="patch_1">
   <path d="M 0 568.8 
L 850.820859 568.8 
L 850.820859 0 
L 0 0 
z
" style="fill: #ffffff"/>
  </g>
  <g id="axes_1">
   <g id="patch_2">
    <path d="M 64.41375 529.308125 
L 614.430938 529.308125 
L 614.430938 23.837812 
L 64.41375 23.837812 
z
" style="fill: #ffffff"/>
   </g>
   <g id="matplotlib.axis_1">
    <g id="xtick_1">
     <g id="line2d_1">
      <path d="M 68.580547 529.308125 
L 68.580547 23.837812 
" clip-path="url(#pb25d92cfa5)" style="fill: none; stroke: #b0b0b0; stroke-opacity: 0.3; stroke-width: 0.8; stroke-linecap: square"/>
     </g>
     <g id="line2d_2">
      <defs>
       <path id="md4357efa94" d="M 0 0 
L 0 3.5 
" style="stroke: #000000; stroke-width: 0.8"/>
      </defs>
      <g>
       <use xlink:href="#md4357efa94" x="68.580547" y="529.308125" style="stroke: #000000; stroke-width: 0.8"/>
      </g>
     </g>
     <g id="text_1">
      <text style="font: 10px 'DejaVu Sans', 'Bitstream Vera Sans', 'Computer Modern Sans Serif', 'Lucida Grande', 'Verdana', 'Geneva', 'Lucid', 'Arial', 'Helvetica', 'Avant Garde', sans-serif; text-anchor: middle" x="68.580547" y="543.906563" transform="rotate(-0 68.580547 543.906563)">95</text>
     </g>
    </g>
    <g id="xtick_2">
     <g id="line2d_3">
      <path d="M 172.750469 529.308125 
L 172.750469 23.837812 
" clip-path="url(#pb25d92cfa5)" style="fill: none; stroke: #b0b0b0; stroke-opacity: 0.3; stroke-width: 0.8; stroke-linecap: square"/>
     </g>
     <g id="line2d_4">
      <g>
       <use xlink:href="#md4357efa94" x="172.750469" y="529.308125" style="stroke: #000000; stroke-width: 0.8"/>
      </g>
     </g>
     <g id="text_2">
      <text style="font: 10px 'DejaVu Sans', 'Bitstream Vera Sans', 'Computer Modern Sans Serif', 'Lucida Grande', 'Verdana', 'Geneva', 'Lucid', 'Arial', 'Helvetica', 'Avant Garde', sans-serif; text-anchor: middle" x="172.750469" y="543.906563" transform="rotate(-0 172.750469 543.906563)">100</text>
     </g>
    </g>
    <g id="xtick_3">
     <g id="line2d_5">
      <path d="M 276.920391 529.308125 
L 276.920391 23.837812 
" clip-path="url(#pb25d92cfa5)" style="fill: none; stroke: #b0b0b0; stroke-opacity: 0.3; stroke-width: 0.8; stroke-linecap: square"/>
     </g>
     <g id="line2d_6">
      <g>
       <use xlink:href="#md4357efa94" x="276.920391" y="529.308125" style="stroke: #000000; stroke-width: 0.8"/>
      </g>
     </g>
     <g id="text_3">
      <text style="font: 10px 'DejaVu Sans', 'Bitstream Vera Sans', 'Computer Modern Sans Serif', 'Lucida Grande', 'Verdana', 'Geneva', 'Lucid', 'Arial', 'Helvetica', 'Avant Garde', sans-serif; text-anchor: middle" x="276.920391" y="543.906563" transform="rotate(-0 276.920391 543.906563)">105</text>
     </g>
    </g>
    <g id="xtick_4">
     <g id="line2d_7">
      <path d="M 381.090312 529.308125 
L 381.090312 23.837812 
" clip-path="url(#pb25d92cfa5)" style="fill: none; stroke: #b0b0b0; stroke-opacity: 0.3; stroke-width: 0.8; stroke-linecap: square"/>
     </g>
     <g id="line2d_8">
      <g>
       <use xlink:href="#md4357efa94" x="381.090312" y="529.308125" style="stroke: #000000; stroke-width: 0.8"/>
      </g>
     </g>
     <g id="text_4">
      <text style="font: 10px 'DejaVu Sans', 'Bitstream Vera Sans', 'Computer Modern Sans Serif', 'Lucida Grande', 'Verdana', 'Geneva', 'Lucid', 'Arial', 'Helvetica', 'Avant Garde', sans-serif; text-anchor: middle" x="381.090312" y="543.906563" transform="rotate(-0 381.090312 543.906563)">110</text>
     </g>
    </g>
    <g id="xtick_5">
     <g id="line2d_9">
      <path d="M 485.260234 529.308125 
L 485.260234 23.837812 
" clip-path="url(#pb25d92cfa5)" style="fill: none; stroke: #b0b0b0; stroke-opacity: 0.3; stroke-width: 0.8; stroke-linecap: square"/>
     </g>
     <g id="line2d_10">
      <g>
       <use xlink:href="#md4357efa94" x="485.260234" y="529.308125" style="stroke: #000000; stroke-width: 0.8"/>
      </g>
     </g>
     <g id="text_5">
      <text style="font: 10px 'DejaVu Sans', 'Bitstream Vera Sans', 'Computer Modern Sans Serif', 'Lucida Grande', 'Verdana', 'Geneva', 'Lucid', 'Arial', 'Helvetica', 'Avant Garde', sans-serif; text-anchor: middle" x="485.260234" y="543.906563" transform="rotate(-0 485.260234 543.906563)">115</text>
     </g>
    </g>
    <g id="xtick_6">
     <g id="line2d_11">
      <path d="M 589.430156 529.308125 
L 589.430156 23.837812 
" clip-path="url(#pb25d92cfa5)" style="fill: none; stroke: #b0b0b0; stroke-opacity: 0.3; stroke-width: 0.8; stroke-linecap: square"/>
     </g>
     <g id="line2d_12">
      <g>
       <use xlink:href="#md4357efa94" x="589.430156" y="529.308125" style="stroke: #000000; stroke-width: 0.8"/>
      </g>
     </g>
     <g id="text_6">
      <text style="font: 10px 'DejaVu Sans', 'Bitstream Vera Sans', 'Computer Modern Sans Serif', 'Lucida Grande', 'Verdana', 'Geneva', 'Lucid', 'Arial', 'Helvetica', 'Avant Garde', sans-serif; text-anchor: middle" x="589.430156" y="543.906563" transform="rotate(-0 589.430156 543.906563)">120</text>
     </g>
    </g>
    <g id="text_7">
     <text style="font: 12px 'DejaVu Sans', 'Bitstream Vera Sans', 'Computer Modern Sans Serif', 'Lucida Grande', 'Verdana', 'Geneva', 'Lucid', 'Arial', 'Helvetica', 'Avant Garde', sans-serif; text-anchor: middle" x="339.422344" y="559.104375" transform="rotate(-0 339.422344 559.104375)">Build Number</text>
    </g>
   </g>
   <g id="matplotlib.axis_2">
    <g id="ytick_1">
     <g id="line2d_13">
      <defs>
       <path id="mbf59b3b557" d="M 0 0 
L -2 0 
" style="stroke: #000000; stroke-width: 0.6"/>
      </defs>
      <g>
       <use xlink:href="#mbf59b3b557" x="64.41375" y="333.737412" style="stroke: #000000; stroke-width: 0.6"/>
      </g>
     </g>
     <g id="text_8">
      <!-- $\mathdefault{8\times10^{6}}$ -->
      <g transform="translate(22.81375 337.53663)">
       <text>
        <tspan style="font: 10px 'DejaVu Sans'" x="0 8.310547 18.637695 25" y="-0.9765625">8×10</tspan>
        <tspan style="font: 7px 'DejaVu Sans'" x="31.458008" y="-4.8046875">6</tspan>
       </text>
      </g>
     </g>
    </g>
    <g id="ytick_2">
     <g id="line2d_14">
      <g>
       <use xlink:href="#mbf59b3b557" x="64.41375" y="137.098665" style="stroke: #000000; stroke-width: 0.6"/>
      </g>
     </g>
     <g id="text_9">
      <!-- $\mathdefault{9\times10^{6}}$ -->
      <g transform="translate(22.81375 140.897884)">
       <text>
        <tspan style="font: 10px 'DejaVu Sans'" x="0 8.310547 18.637695 25" y="-0.9765625">9×10</tspan>
        <tspan style="font: 7px 'DejaVu Sans'" x="31.458008" y="-4.8046875">6</tspan>
       </text>
      </g>
     </g>
    </g>
    <g id="text_10">
     <text style="font: 12px 'DejaVu Sans', 'Bitstream Vera Sans', 'Computer Modern Sans Serif', 'Lucida Grande', 'Verdana', 'Geneva', 'Lucid', 'Arial', 'Helvetica', 'Avant Garde', sans-serif; text-anchor: middle" x="16.318125" y="276.572969" transform="rotate(-90 16.318125 276.572969)">Median Elapsed Time (nanoseconds)</text>
    </g>
   </g>
   <g id="line2d_15">
    <path d="M 89.414531 476.634094 
L 110.248516 386.779726 
L 151.916484 496.963171 
L 172.750469 409.150288 
L 193.584453 506.332202 
L 214.418437 486.137467 
L 235.252422 439.733401 
L 256.086406 499.114396 
L 276.920391 435.654115 
L 297.754375 457.556737 
L 339.422344 347.08786 
L 360.256328 340.22304 
L 381.090312 501.453742 
L 401.924297 462.506527 
L 422.758281 482.258764 
L 464.42625 493.47236 
L 485.260234 493.725444 
L 506.094219 499.723249 
L 526.928203 491.96187 
L 547.762187 489.188746 
L 568.596172 481.560617 
L 589.430156 471.802717 
" clip-path="url(#pb25d92cfa5)" style="fill: none; stroke: #1f77b4; stroke-width: 2; stroke-linecap: square"/>
    <defs>
     <path id="mc28077d767" d="M 0 3 
C 0.795609 3 1.55874 2.683901 2.12132 2.12132 
C 2.683901 1.55874 3 0.795609 3 0 
C 3 -0.795609 2.683901 -1.55874 2.12132 -2.12132 
C 1.55874 -2.683901 0.795609 -3 0 -3 
C -0.795609 -3 -1.55874 -2.683901 -2.12132 -2.12132 
C -2.683901 -1.55874 -3 -0.795609 -3 0 
C -3 0.795609 -2.683901 1.55874 -2.12132 2.12132 
C -1.55874 2.683901 -0.795609 3 0 3 
z
" style="stroke: #1f77b4"/>
    </defs>
    <g clip-path="url(#pb25d92cfa5)">
     <use xlink:href="#mc28077d767" x="89.414531" y="476.634094" style="fill: #1f77b4; stroke: #1f77b4"/>
     <use xlink:href="#mc28077d767" x="110.248516" y="386.779726" style="fill: #1f77b4; stroke: #1f77b4"/>
     <use xlink:href="#mc28077d767" x="151.916484" y="496.963171" style="fill: #1f77b4; stroke: #1f77b4"/>
     <use xlink:href="#mc28077d767" x="172.750469" y="409.150288" style="fill: #1f77b4; stroke: #1f77b4"/>
     <use xlink:href="#mc28077d767" x="193.584453" y="506.332202" style="fill: #1f77b4; stroke: #1f77b4"/>
     <use xlink:href="#mc28077d767" x="214.418437" y="486.137467" style="fill: #1f77b4; stroke: #1f77b4"/>
     <use xlink:href="#mc28077d767" x="235.252422" y="439.733401" style="fill: #1f77b4; stroke: #1f77b4"/>
     <use xlink:href="#mc28077d767" x="256.086406" y="499.114396" style="fill: #1f77b4; stroke: #1f77b4"/>
     <use xlink:href="#mc28077d767" x="276.920391" y="435.654115" style="fill: #1f77b4; stroke: #1f77b4"/>
     <use xlink:href="#mc28077d767" x="297.754375" y="457.556737" style="fill: #1f77b4; stroke: #1f77b4"/>
     <use xlink:href="#mc28077d767" x="339.422344" y="347.08786" style="fill: #1f77b4; stroke: #1f77b4"/>
     <use xlink:href="#mc28077d767" x="360.256328" y="340.22304" style="fill: #1f77b4; stroke: #1f77b4"/>
     <use xlink:href="#mc28077d767" x="381.090312" y="501.453742" style="fill: #1f77b4; stroke: #1f77b4"/>
     <use xlink:href="#mc28077d767" x="401.924297" y="462.506527" style="fill: #1f77b4; stroke: #1f77b4"/>
     <use xlink:href="#mc28077d767" x="422.758281" y="482.258764" style="fill: #1f77b4; stroke: #1f77b4"/>
     <use xlink:href="#mc28077d767" x="464.42625" y="493.47236" style="fill: #1f77b4; stroke: #1f77b4"/>
     <use xlink:href="#mc28077d767" x="485.260234" y="493.725444" style="fill: #1f77b4; stroke: #1f77b4"/>
     <use xlink:href="#mc28077d767" x="506.094219" y="499.723249" style="fill: #1f77b4; stroke: #1f77b4"/>
     <use xlink:href="#mc28077d767" x="526.928203" y="491.96187" style="fill: #1f77b4; stroke: #1f77b4"/>
     <use xlink:href="#mc28077d767" x="547.762187" y="489.188746" style="fill: #1f77b4; stroke: #1f77b4"/>
     <use xlink:href="#mc28077d767" x="568.596172" y="481.560617" style="fill: #1f77b4; stroke: #1f77b4"/>
     <use xlink:href="#mc28077d767" x="589.430156" y="471.802717" style="fill: #1f77b4; stroke: #1f77b4"/>
    </g>
   </g>
   <g id="line2d_16">
    <path d="M 89.414531 472.501647 
L 110.248516 388.591931 
L 151.916484 494.429708 
L 172.750469 434.986447 
L 193.584453 502.712102 
L 214.418437 492.002824 
L 235.252422 440.707473 
L 256.086406 487.513336 
L 276.920391 419.010409 
L 297.754375 472.401144 
L 339.422344 339.626617 
L 360.256328 357.873942 
L 381.090312 489.471947 
L 401.924297 422.560287 
L 422.758281 473.684671 
L 464.42625 500.712466 
L 485.260234 492.72872 
L 506.094219 501.258523 
L 526.928203 486.277145 
L 547.762187 489.419188 
L 568.596172 470.440952 
L 589.430156 462.441449 
" clip-path="url(#pb25d92cfa5)" style="fill: none; stroke: #ff7f0e; stroke-width: 2; stroke-linecap: square"/>
    <defs>
     <path id="mef5fa60476" d="M 0 3 
C 0.795609 3 1.55874 2.683901 2.12132 2.12132 
C 2.683901 1.55874 3 0.795609 3 0 
C 3 -0.795609 2.683901 -1.55874 2.12132 -2.12132 
C 1.55874 -2.683901 0.795609 -3 0 -3 
C -0.795609 -3 -1.55874 -2.683901 -2.12132 -2.12132 
C -2.683901 -1.55874 -3 -0.795609 -3 0 
C -3 0.795609 -2.683901 1.55874 -2.12132 2.12132 
C -1.55874 2.683901 -0.795609 3 0 3 
z
" style="stroke: #ff7f0e"/>
    </defs>
    <g clip-path="url(#pb25d92cfa5)">
     <use xlink:href="#mef5fa60476" x="89.414531" y="472.501647" style="fill: #ff7f0e; stroke: #ff7f0e"/>
     <use xlink:href="#mef5fa60476" x="110.248516" y="388.591931" style="fill: #ff7f0e; stroke: #ff7f0e"/>
     <use xlink:href="#mef5fa60476" x="151.916484" y="494.429708" style="fill: #ff7f0e; stroke: #ff7f0e"/>
     <use xlink:href="#mef5fa60476" x="172.750469" y="434.986447" style="fill: #ff7f0e; stroke: #ff7f0e"/>
     <use xlink:href="#mef5fa60476" x="193.584453" y="502.712102" style="fill: #ff7f0e; stroke: #ff7f0e"/>
     <use xlink:href="#mef5fa60476" x="214.418437" y="492.002824" style="fill: #ff7f0e; stroke: #ff7f0e"/>
     <use xlink:href="#mef5fa60476" x="235.252422" y="440.707473" style="fill: #ff7f0e; stroke: #ff7f0e"/>
     <use xlink:href="#mef5fa60476" x="256.086406" y="487.513336" style="fill: #ff7f0e; stroke: #ff7f0e"/>
     <use xlink:href="#mef5fa60476" x="276.920391" y="419.010409" style="fill: #ff7f0e; stroke: #ff7f0e"/>
     <use xlink:href="#mef5fa60476" x="297.754375" y="472.401144" style="fill: #ff7f0e; stroke: #ff7f0e"/>
     <use xlink:href="#mef5fa60476" x="339.422344" y="339.626617" style="fill: #ff7f0e; stroke: #ff7f0e"/>
     <use xlink:href="#mef5fa60476" x="360.256328" y="357.873942" style="fill: #ff7f0e; stroke: #ff7f0e"/>
     <use xlink:href="#mef5fa60476" x="381.090312" y="489.471947" style="fill: #ff7f0e; stroke: #ff7f0e"/>
     <use xlink:href="#mef5fa60476" x="401.924297" y="422.560287" style="fill: #ff7f0e; stroke: #ff7f0e"/>
     <use xlink:href="#mef5fa60476" x="422.758281" y="473.684671" style="fill: #ff7f0e; stroke: #ff7f0e"/>
     <use xlink:href="#mef5fa60476" x="464.42625" y="500.712466" style="fill: #ff7f0e; stroke: #ff7f0e"/>
     <use xlink:href="#mef5fa60476" x="485.260234" y="492.72872" style="fill: #ff7f0e; stroke: #ff7f0e"/>
     <use xlink:href="#mef5fa60476" x="506.094219" y="501.258523" style="fill: #ff7f0e; stroke: #ff7f0e"/>
     <use xlink:href="#mef5fa60476" x="526.928203" y="486.277145" style="fill: #ff7f0e; stroke: #ff7f0e"/>
     <use xlink:href="#mef5fa60476" x="547.762187" y="489.419188" style="fill: #ff7f0e; stroke: #ff7f0e"/>
     <use xlink:href="#mef5fa60476" x="568.596172" y="470.440952" style="fill: #ff7f0e; stroke: #ff7f0e"/>
     <use xlink:href="#mef5fa60476" x="589.430156" y="462.441449" style="fill: #ff7f0e; stroke: #ff7f0e"/>
    </g>
   </g>
   <g id="line2d_17">
    <path d="M 89.414531 131.005199 
L 110.248516 196.432084 
L 151.916484 166.326694 
L 172.750469 92.893454 
L 193.584453 212.628547 
L 214.418437 174.400469 
L 235.252422 212.928609 
L 256.086406 206.93833 
L 276.920391 197.695081 
L 297.754375 204.049367 
L 339.422344 208.453299 
L 360.256328 215.842521 
L 381.090312 190.409664 
L 422.758281 203.225847 
L 485.260234 207.276799 
L 506.094219 174.452389 
L 526.928203 65.033399 
L 547.762187 209.896282 
L 568.596172 216.688612 
L 589.430156 183.762935 
" clip-path="url(#pb25d92cfa5)" style="fill: none; stroke: #2ca02c; stroke-width: 2; stroke-linecap: square"/>
    <defs>
     <path id="mf84d7cbae9" d="M 0 3 
C 0.795609 3 1.55874 2.683901 2.12132 2.12132 
C 2.683901 1.55874 3 0.795609 3 0 
C 3 -0.795609 2.683901 -1.55874 2.12132 -2.12132 
C 1.55874 -2.683901 0.795609 -3 0 -3 
C -0.795609 -3 -1.55874 -2.683901 -2.12132 -2.12132 
C -2.683901 -1.55874 -3 -0.795609 -3 0 
C -3 0.795609 -2.683901 1.55874 -2.12132 2.12132 
C -1.55874 2.683901 -0.795609 3 0 3 
z
" style="stroke: #2ca02c"/>
    </defs>
    <g clip-path="url(#pb25d92cfa5)">
     <use xlink:href="#mf84d7cbae9" x="89.414531" y="131.005199" style="fill: #2ca02c; stroke: #2ca02c"/>
     <use xlink:href="#mf84d7cbae9" x="110.248516" y="196.432084" style="fill: #2ca02c; stroke: #2ca02c"/>
     <use xlink:href="#mf84d7cbae9" x="151.916484" y="166.326694" style="fill: #2ca02c; stroke: #2ca02c"/>
     <use xlink:href="#mf84d7cbae9" x="172.750469" y="92.893454" style="fill: #2ca02c; stroke: #2ca02c"/>
     <use xlink:href="#mf84d7cbae9" x="193.584453" y="212.628547" style="fill: #2ca02c; stroke: #2ca02c"/>
     <use xlink:href="#mf84d7cbae9" x="214.418437" y="174.400469" style="fill: #2ca02c; stroke: #2ca02c"/>
     <use xlink:href="#mf84d7cbae9" x="235.252422" y="212.928609" style="fill: #2ca02c; stroke: #2ca02c"/>
     <use xlink:href="#mf84d7cbae9" x="256.086406" y="206.93833" style="fill: #2ca02c; stroke: #2ca02c"/>
     <use xlink:href="#mf84d7cbae9" x="276.920391" y="197.695081" style="fill: #2ca02c; stroke: #2ca02c"/>
     <use xlink:href="#mf84d7cbae9" x="297.754375" y="204.049367" style="fill: #2ca02c; stroke: #2ca02c"/>
     <use xlink:href="#mf84d7cbae9" x="339.422344" y="208.453299" style="fill: #2ca02c; stroke: #2ca02c"/>
     <use xlink:href="#mf84d7cbae9" x="360.256328" y="215.842521" style="fill: #2ca02c; stroke: #2ca02c"/>
     <use xlink:href="#mf84d7cbae9" x="381.090312" y="190.409664" style="fill: #2ca02c; stroke: #2ca02c"/>
     <use xlink:href="#mf84d7cbae9" x="422.758281" y="203.225847" style="fill: #2ca02c; stroke: #2ca02c"/>
     <use xlink:href="#mf84d7cbae9" x="485.260234" y="207.276799" style="fill: #2ca02c; stroke: #2ca02c"/>
     <use xlink:href="#mf84d7cbae9" x="506.094219" y="174.452389" style="fill: #2ca02c; stroke: #2ca02c"/>
     <use xlink:href="#mf84d7cbae9" x="526.928203" y="65.033399" style="fill: #2ca02c; stroke: #2ca02c"/>
     <use xlink:href="#mf84d7cbae9" x="547.762187" y="209.896282" style="fill: #2ca02c; stroke: #2ca02c"/>
     <use xlink:href="#mf84d7cbae9" x="568.596172" y="216.688612" style="fill: #2ca02c; stroke: #2ca02c"/>
     <use xlink:href="#mf84d7cbae9" x="589.430156" y="183.762935" style="fill: #2ca02c; stroke: #2ca02c"/>
    </g>
   </g>
   <g id="line2d_18">
    <path d="M 89.414531 138.903015 
L 110.248516 207.704467 
L 151.916484 213.0565 
L 172.750469 99.385333 
L 193.584453 229.286969 
L 214.418437 177.660269 
L 235.252422 209.017139 
L 256.086406 222.105895 
L 276.920391 219.163212 
L 297.754375 229.920466 
L 339.422344 234.722934 
L 360.256328 224.225811 
L 381.090312 209.024711 
L 422.758281 221.0278 
L 485.260234 225.518722 
L 506.094219 200.325609 
L 526.928203 46.813736 
L 547.762187 222.589763 
L 568.596172 184.159759 
L 589.430156 205.130229 
" clip-path="url(#pb25d92cfa5)" style="fill: none; stroke: #d62728; stroke-width: 2; stroke-linecap: square"/>
    <defs>
     <path id="m1191b7a7a0" d="M 0 3 
C 0.795609 3 1.55874 2.683901 2.12132 2.12132 
C 2.683901 1.55874 3 0.795609 3 0 
C 3 -0.795609 2.683901 -1.55874 2.12132 -2.12132 
C 1.55874 -2.683901 0.795609 -3 0 -3 
C -0.795609 -3 -1.55874 -2.683901 -2.12132 -2.12132 
C -2.683901 -1.55874 -3 -0.795609 -3 0 
C -3 0.795609 -2.683901 1.55874 -2.12132 2.12132 
C -1.55874 2.683901 -0.795609 3 0 3 
z
" style="stroke: #d62728"/>
    </defs>
    <g clip-path="url(#pb25d92cfa5)">
     <use xlink:href="#m1191b7a7a0" x="89.414531" y="138.903015" style="fill: #d62728; stroke: #d62728"/>
     <use xlink:href="#m1191b7a7a0" x="110.248516" y="207.704467" style="fill: #d62728; stroke: #d62728"/>
     <use xlink:href="#m1191b7a7a0" x="151.916484" y="213.0565" style="fill: #d62728; stroke: #d62728"/>
     <use xlink:href="#m1191b7a7a0" x="172.750469" y="99.385333" style="fill: #d62728; stroke: #d62728"/>
     <use xlink:href="#m1191b7a7a0" x="193.584453" y="229.286969" style="fill: #d62728; stroke: #d62728"/>
     <use xlink:href="#m1191b7a7a0" x="214.418437" y="177.660269" style="fill: #d62728; stroke: #d62728"/>
     <use xlink:href="#m1191b7a7a0" x="235.252422" y="209.017139" style="fill: #d62728; stroke: #d62728"/>
     <use xlink:href="#m1191b7a7a0" x="256.086406" y="222.105895" style="fill: #d62728; stroke: #d62728"/>
     <use xlink:href="#m1191b7a7a0" x="276.920391" y="219.163212" style="fill: #d62728; stroke: #d62728"/>
     <use xlink:href="#m1191b7a7a0" x="297.754375" y="229.920466" style="fill: #d62728; stroke: #d62728"/>
     <use xlink:href="#m1191b7a7a0" x="339.422344" y="234.722934" style="fill: #d62728; stroke: #d62728"/>
     <use xlink:href="#m1191b7a7a0" x="360.256328" y="224.225811" style="fill: #d62728; stroke: #d62728"/>
     <use xlink:href="#m1191b7a7a0" x="381.090312" y="209.024711" style="fill: #d62728; stroke: #d62728"/>
     <use xlink:href="#m1191b7a7a0" x="422.758281" y="221.0278" style="fill: #d62728; stroke: #d62728"/>
     <use xlink:href="#m1191b7a7a0" x="485.260234" y="225.518722" style="fill: #d62728; stroke: #d62728"/>
     <use xlink:href="#m1191b7a7a0" x="506.094219" y="200.325609" style="fill: #d62728; stroke: #d62728"/>
     <use xlink:href="#m1191b7a7a0" x="526.928203" y="46.813736" style="fill: #d62728; stroke: #d62728"/>
     <use xlink:href="#m1191b7a7a0" x="547.762187" y="222.589763" style="fill: #d62728; stroke: #d62728"/>
     <use xlink:href="#m1191b7a7a0" x="568.596172" y="184.159759" style="fill: #d62728; stroke: #d62728"/>
     <use xlink:href="#m1191b7a7a0" x="589.430156" y="205.130229" style="fill: #d62728; stroke: #d62728"/>
    </g>
   </g>
   <g id="patch_3">
    <path d="M 64.41375 529.308125 
L 64.41375 23.837813 
" style="fill: none; stroke: #000000; stroke-width: 0.8; stroke-linejoin: miter; stroke-linecap: square"/>
   </g>
   <g id="patch_4">
    <path d="M 614.430938 529.308125 
L 614.430938 23.837813 
" style="fill: none; stroke: #000000; stroke-width: 0.8; stroke-linejoin: miter; stroke-linecap: square"/>
   </g>
   <g id="patch_5">
    <path d="M 64.41375 529.308125 
L 614.430938 529.308125 
" style="fill: none; stroke: #000000; stroke-width: 0.8; stroke-linejoin: miter; stroke-linecap: square"/>
   </g>
   <g id="patch_6">
    <path d="M 64.41375 23.837812 
L 614.430938 23.837812 
" style="fill: none; stroke: #000000; stroke-width: 0.8; stroke-linejoin: miter; stroke-linecap: square"/>
   </g>
   <g id="text_11">
    <text style="font: 700 14px 'DejaVu Sans', 'Bitstream Vera Sans', 'Computer Modern Sans Serif', 'Lucida Grande', 'Verdana', 'Geneva', 'Lucid', 'Arial', 'Helvetica', 'Avant Garde', sans-serif; text-anchor: middle" x="339.422344" y="17.837813" transform="rotate(-0 339.422344 17.837813)">Coroutine Memory - Performance Trend</text>
   </g>
   <g id="legend_1">
    <g id="patch_7">
     <path d="M 648.931797 91.662813 
L 841.620859 91.662813 
Q 843.620859 91.662813 843.620859 89.662813 
L 843.620859 30.837813 
Q 843.620859 28.837813 841.620859 28.837813 
L 648.931797 28.837813 
Q 646.931797 28.837813 646.931797 30.837813 
L 646.931797 89.662813 
Q 646.931797 91.662813 648.931797 91.662813 
z
" style="fill: #ffffff; opacity: 0.8; stroke: #cccccc; stroke-linejoin: miter"/>
    </g>
    <g id="line2d_19">
     <path d="M 650.931797 36.93625 
L 660.931797 36.93625 
L 670.931797 36.93625 
" style="fill: none; stroke: #1f77b4; stroke-width: 2; stroke-linecap: square"/>
     <g>
      <use xlink:href="#mc28077d767" x="660.931797" y="36.93625" style="fill: #1f77b4; stroke: #1f77b4"/>
     </g>
    </g>
    <g id="text_12">
     <text style="font: 10px 'DejaVu Sans', 'Bitstream Vera Sans', 'Computer Modern Sans Serif', 'Lucida Grande', 'Verdana', 'Geneva', 'Lucid', 'Arial', 'Helvetica', 'Avant Garde', sans-serif; text-anchor: start" x="678.931797" y="40.43625" transform="rotate(-0 678.931797 40.43625)">gcc-14.2 - CoroutineMemory_V1</text>
    </g>
    <g id="line2d_20">
     <path d="M 650.931797 51.8925 
L 660.931797 51.8925 
L 670.931797 51.8925 
" style="fill: none; stroke: #ff7f0e; stroke-width: 2; stroke-linecap: square"/>
     <g>
      <use xlink:href="#mef5fa60476" x="660.931797" y="51.8925" style="fill: #ff7f0e; stroke: #ff7f0e"/>
     </g>
    </g>
    <g id="text_13">
     <text style="font: 10px 'DejaVu Sans', 'Bitstream Vera Sans', 'Computer Modern Sans Serif', 'Lucida Grande', 'Verdana', 'Geneva', 'Lucid', 'Arial', 'Helvetica', 'Avant Garde', sans-serif; text-anchor: start" x="678.931797" y="55.3925" transform="rotate(-0 678.931797 55.3925)">gcc-14.2 - CoroutineMemory_V2</text>
    </g>
    <g id="line2d_21">
     <path d="M 650.931797 66.84875 
L 660.931797 66.84875 
L 670.931797 66.84875 
" style="fill: none; stroke: #2ca02c; stroke-width: 2; stroke-linecap: square"/>
     <g>
      <use xlink:href="#mf84d7cbae9" x="660.931797" y="66.84875" style="fill: #2ca02c; stroke: #2ca02c"/>
     </g>
    </g>
    <g id="text_14">
     <text style="font: 10px 'DejaVu Sans', 'Bitstream Vera Sans', 'Computer Modern Sans Serif', 'Lucida Grande', 'Verdana', 'Geneva', 'Lucid', 'Arial', 'Helvetica', 'Avant Garde', sans-serif; text-anchor: start" x="678.931797" y="70.34875" transform="rotate(-0 678.931797 70.34875)">gcc-4.2 - CoroutineMemory_V1</text>
    </g>
    <g id="line2d_22">
     <path d="M 650.931797 81.805 
L 660.931797 81.805 
L 670.931797 81.805 
" style="fill: none; stroke: #d62728; stroke-width: 2; stroke-linecap: square"/>
     <g>
      <use xlink:href="#m1191b7a7a0" x="660.931797" y="81.805" style="fill: #d62728; stroke: #d62728"/>
     </g>
    </g>
    <g id="text_15">
     <text style="font: 10px 'DejaVu Sans', 'Bitstream Vera Sans', 'Computer Modern Sans Serif', 'Lucida Grande', 'Verdana', 'Geneva', 'Lucid', 'Arial', 'Helvetica', 'Avant Garde', sans-serif; text-anchor: start" x="678.931797" y="85.305" transform="rotate(-0 678.931797 85.305)">gcc-4.2 - CoroutineMemory_V2</text>
    </g>
   </g>
  </g>
 </g>
 <defs>
  <clipPath id="pb25d92cfa5">
   <rect x="64.41375" y="23.837813" width="550.017187" height="505.470313"/>
  </clipPath>
 </defs>
</svg>
