<?xml version="1.0" encoding="utf-8" standalone="no"?>
<!DOCTYPE svg PUBLIC "-//W3C//DTD SVG 1.1//EN"
  "http://www.w3.org/Graphics/SVG/1.1/DTD/svg11.dtd">
<svg xmlns:xlink="http://www.w3.org/1999/xlink" width="855.204687pt" height="568.8pt" viewBox="0 0 855.204687 568.8" xmlns="http://www.w3.org/2000/svg" version="1.1">
 <metadata>
  <rdf:RDF xmlns:dc="http://purl.org/dc/elements/1.1/" xmlns:cc="http://creativecommons.org/ns#" xmlns:rdf="http://www.w3.org/1999/02/22-rdf-syntax-ns#">
   <cc:Work>
    <dc:type rdf:resource="http://purl.org/dc/dcmitype/StillImage"/>
    <dc:date>2025-08-14T23:11:19.475471</dc:date>
    <dc:format>image/svg+xml</dc:format>
    <dc:creator>
     <cc:Agent>
      <dc:title>Matplotlib v3.9.4, https://matplotlib.org/</dc:title>
     </cc:Agent>
    </dc:creator>
   </cc:Work>
  </rdf:RDF>
 </metadata>
 <defs>
  <style type="text/css">*{stroke-linejoin: round; stroke-linecap: butt}</style>
 </defs>
 <g id="figure_1">
  <g id="patch_1">
   <path d="M 0 568.8 
L 855.204687 568.8 
L 855.204687 0 
L 0 0 
z
" style="fill: #ffffff"/>
  </g>
  <g id="axes_1">
   <g id="patch_2">
    <path d="M 64.41375 529.308125 
L 702.1075 529.308125 
L 702.1075 23.837812 
L 64.41375 23.837812 
z
" style="fill: #ffffff"/>
   </g>
   <g id="matplotlib.axis_1">
    <g id="xtick_1">
     <g id="line2d_1">
      <path d="M 64.41375 529.308125 
L 64.41375 23.837812 
" clip-path="url(#pd0ff0c3de4)" style="fill: none; stroke: #b0b0b0; stroke-opacity: 0.3; stroke-width: 0.8; stroke-linecap: square"/>
     </g>
     <g id="line2d_2">
      <defs>
       <path id="m956e6e7489" d="M 0 0 
L 0 3.5 
" style="stroke: #000000; stroke-width: 0.8"/>
      </defs>
      <g>
       <use xlink:href="#m956e6e7489" x="64.41375" y="529.308125" style="stroke: #000000; stroke-width: 0.8"/>
      </g>
     </g>
     <g id="text_1">
      <text style="font: 10px 'DejaVu Sans', 'Bitstream Vera Sans', 'Computer Modern Sans Serif', 'Lucida Grande', 'Verdana', 'Geneva', 'Lucid', 'Arial', 'Helvetica', 'Avant Garde', sans-serif; text-anchor: middle" x="64.41375" y="543.906563" transform="rotate(-0 64.41375 543.906563)">70.0</text>
     </g>
    </g>
    <g id="xtick_2">
     <g id="line2d_3">
      <path d="M 136.878949 529.308125 
L 136.878949 23.837812 
" clip-path="url(#pd0ff0c3de4)" style="fill: none; stroke: #b0b0b0; stroke-opacity: 0.3; stroke-width: 0.8; stroke-linecap: square"/>
     </g>
     <g id="line2d_4">
      <g>
       <use xlink:href="#m956e6e7489" x="136.878949" y="529.308125" style="stroke: #000000; stroke-width: 0.8"/>
      </g>
     </g>
     <g id="text_2">
      <text style="font: 10px 'DejaVu Sans', 'Bitstream Vera Sans', 'Computer Modern Sans Serif', 'Lucida Grande', 'Verdana', 'Geneva', 'Lucid', 'Arial', 'Helvetica', 'Avant Garde', sans-serif; text-anchor: middle" x="136.878949" y="543.906563" transform="rotate(-0 136.878949 543.906563)">72.5</text>
     </g>
    </g>
    <g id="xtick_3">
     <g id="line2d_5">
      <path d="M 209.344148 529.308125 
L 209.344148 23.837812 
" clip-path="url(#pd0ff0c3de4)" style="fill: none; stroke: #b0b0b0; stroke-opacity: 0.3; stroke-width: 0.8; stroke-linecap: square"/>
     </g>
     <g id="line2d_6">
      <g>
       <use xlink:href="#m956e6e7489" x="209.344148" y="529.308125" style="stroke: #000000; stroke-width: 0.8"/>
      </g>
     </g>
     <g id="text_3">
      <text style="font: 10px 'DejaVu Sans', 'Bitstream Vera Sans', 'Computer Modern Sans Serif', 'Lucida Grande', 'Verdana', 'Geneva', 'Lucid', 'Arial', 'Helvetica', 'Avant Garde', sans-serif; text-anchor: middle" x="209.344148" y="543.906563" transform="rotate(-0 209.344148 543.906563)">75.0</text>
     </g>
    </g>
    <g id="xtick_4">
     <g id="line2d_7">
      <path d="M 281.809347 529.308125 
L 281.809347 23.837812 
" clip-path="url(#pd0ff0c3de4)" style="fill: none; stroke: #b0b0b0; stroke-opacity: 0.3; stroke-width: 0.8; stroke-linecap: square"/>
     </g>
     <g id="line2d_8">
      <g>
       <use xlink:href="#m956e6e7489" x="281.809347" y="529.308125" style="stroke: #000000; stroke-width: 0.8"/>
      </g>
     </g>
     <g id="text_4">
      <text style="font: 10px 'DejaVu Sans', 'Bitstream Vera Sans', 'Computer Modern Sans Serif', 'Lucida Grande', 'Verdana', 'Geneva', 'Lucid', 'Arial', 'Helvetica', 'Avant Garde', sans-serif; text-anchor: middle" x="281.809347" y="543.906563" transform="rotate(-0 281.809347 543.906563)">77.5</text>
     </g>
    </g>
    <g id="xtick_5">
     <g id="line2d_9">
      <path d="M 354.274545 529.308125 
L 354.274545 23.837812 
" clip-path="url(#pd0ff0c3de4)" style="fill: none; stroke: #b0b0b0; stroke-opacity: 0.3; stroke-width: 0.8; stroke-linecap: square"/>
     </g>
     <g id="line2d_10">
      <g>
       <use xlink:href="#m956e6e7489" x="354.274545" y="529.308125" style="stroke: #000000; stroke-width: 0.8"/>
      </g>
     </g>
     <g id="text_5">
      <text style="font: 10px 'DejaVu Sans', 'Bitstream Vera Sans', 'Computer Modern Sans Serif', 'Lucida Grande', 'Verdana', 'Geneva', 'Lucid', 'Arial', 'Helvetica', 'Avant Garde', sans-serif; text-anchor: middle" x="354.274545" y="543.906563" transform="rotate(-0 354.274545 543.906563)">80.0</text>
     </g>
    </g>
    <g id="xtick_6">
     <g id="line2d_11">
      <path d="M 426.739744 529.308125 
L 426.739744 23.837812 
" clip-path="url(#pd0ff0c3de4)" style="fill: none; stroke: #b0b0b0; stroke-opacity: 0.3; stroke-width: 0.8; stroke-linecap: square"/>
     </g>
     <g id="line2d_12">
      <g>
       <use xlink:href="#m956e6e7489" x="426.739744" y="529.308125" style="stroke: #000000; stroke-width: 0.8"/>
      </g>
     </g>
     <g id="text_6">
      <text style="font: 10px 'DejaVu Sans', 'Bitstream Vera Sans', 'Computer Modern Sans Serif', 'Lucida Grande', 'Verdana', 'Geneva', 'Lucid', 'Arial', 'Helvetica', 'Avant Garde', sans-serif; text-anchor: middle" x="426.739744" y="543.906563" transform="rotate(-0 426.739744 543.906563)">82.5</text>
     </g>
    </g>
    <g id="xtick_7">
     <g id="line2d_13">
      <path d="M 499.204943 529.308125 
L 499.204943 23.837812 
" clip-path="url(#pd0ff0c3de4)" style="fill: none; stroke: #b0b0b0; stroke-opacity: 0.3; stroke-width: 0.8; stroke-linecap: square"/>
     </g>
     <g id="line2d_14">
      <g>
       <use xlink:href="#m956e6e7489" x="499.204943" y="529.308125" style="stroke: #000000; stroke-width: 0.8"/>
      </g>
     </g>
     <g id="text_7">
      <text style="font: 10px 'DejaVu Sans', 'Bitstream Vera Sans', 'Computer Modern Sans Serif', 'Lucida Grande', 'Verdana', 'Geneva', 'Lucid', 'Arial', 'Helvetica', 'Avant Garde', sans-serif; text-anchor: middle" x="499.204943" y="543.906563" transform="rotate(-0 499.204943 543.906563)">85.0</text>
     </g>
    </g>
    <g id="xtick_8">
     <g id="line2d_15">
      <path d="M 571.670142 529.308125 
L 571.670142 23.837812 
" clip-path="url(#pd0ff0c3de4)" style="fill: none; stroke: #b0b0b0; stroke-opacity: 0.3; stroke-width: 0.8; stroke-linecap: square"/>
     </g>
     <g id="line2d_16">
      <g>
       <use xlink:href="#m956e6e7489" x="571.670142" y="529.308125" style="stroke: #000000; stroke-width: 0.8"/>
      </g>
     </g>
     <g id="text_8">
      <text style="font: 10px 'DejaVu Sans', 'Bitstream Vera Sans', 'Computer Modern Sans Serif', 'Lucida Grande', 'Verdana', 'Geneva', 'Lucid', 'Arial', 'Helvetica', 'Avant Garde', sans-serif; text-anchor: middle" x="571.670142" y="543.906563" transform="rotate(-0 571.670142 543.906563)">87.5</text>
     </g>
    </g>
    <g id="xtick_9">
     <g id="line2d_17">
      <path d="M 644.135341 529.308125 
L 644.135341 23.837812 
" clip-path="url(#pd0ff0c3de4)" style="fill: none; stroke: #b0b0b0; stroke-opacity: 0.3; stroke-width: 0.8; stroke-linecap: square"/>
     </g>
     <g id="line2d_18">
      <g>
       <use xlink:href="#m956e6e7489" x="644.135341" y="529.308125" style="stroke: #000000; stroke-width: 0.8"/>
      </g>
     </g>
     <g id="text_9">
      <text style="font: 10px 'DejaVu Sans', 'Bitstream Vera Sans', 'Computer Modern Sans Serif', 'Lucida Grande', 'Verdana', 'Geneva', 'Lucid', 'Arial', 'Helvetica', 'Avant Garde', sans-serif; text-anchor: middle" x="644.135341" y="543.906563" transform="rotate(-0 644.135341 543.906563)">90.0</text>
     </g>
    </g>
    <g id="text_10">
     <text style="font: 12px 'DejaVu Sans', 'Bitstream Vera Sans', 'Computer Modern Sans Serif', 'Lucida Grande', 'Verdana', 'Geneva', 'Lucid', 'Arial', 'Helvetica', 'Avant Garde', sans-serif; text-anchor: middle" x="383.260625" y="559.104375" transform="rotate(-0 383.260625 559.104375)">Build Number</text>
    </g>
   </g>
   <g id="matplotlib.axis_2">
    <g id="ytick_1">
     <g id="line2d_19">
      <path d="M 64.41375 469.070014 
L 702.1075 469.070014 
" clip-path="url(#pd0ff0c3de4)" style="fill: none; stroke: #b0b0b0; stroke-opacity: 0.3; stroke-width: 0.8; stroke-linecap: square"/>
     </g>
     <g id="line2d_20">
      <defs>
       <path id="mf053234cb5" d="M 0 0 
L -3.5 0 
" style="stroke: #000000; stroke-width: 0.8"/>
      </defs>
      <g>
       <use xlink:href="#mf053234cb5" x="64.41375" y="469.070014" style="stroke: #000000; stroke-width: 0.8"/>
      </g>
     </g>
     <g id="text_11">
      <!-- $\mathdefault{10^{5}}$ -->
      <g transform="translate(39.81375 472.869233)">
       <text>
        <tspan style="font: 10px 'DejaVu Sans'" x="0 6.362305" y="-0.06406250000000036">10</tspan>
        <tspan style="font: 7px 'DejaVu Sans'" x="12.820312" y="-3.8921875000000004">5</tspan>
       </text>
      </g>
     </g>
    </g>
    <g id="ytick_2">
     <g id="line2d_21">
      <defs>
       <path id="m87985927a8" d="M 0 0 
L -2 0 
" style="stroke: #000000; stroke-width: 0.6"/>
      </defs>
      <g>
       <use xlink:href="#m87985927a8" x="64.41375" y="498.909389" style="stroke: #000000; stroke-width: 0.6"/>
      </g>
     </g>
    </g>
    <g id="ytick_3">
     <g id="line2d_22">
      <g>
       <use xlink:href="#m87985927a8" x="64.41375" y="272.762329" style="stroke: #000000; stroke-width: 0.6"/>
      </g>
     </g>
     <g id="text_12">
      <!-- $\mathdefault{2\times10^{5}}$ -->
      <g transform="translate(22.81375 276.561548)">
       <text>
        <tspan style="font: 10px 'DejaVu Sans'" x="0 8.310547 18.637695 25" y="-0.06406250000000036">2×10</tspan>
        <tspan style="font: 7px 'DejaVu Sans'" x="31.458008" y="-3.8921875000000004">5</tspan>
       </text>
      </g>
     </g>
    </g>
    <g id="ytick_4">
     <g id="line2d_23">
      <g>
       <use xlink:href="#m87985927a8" x="64.41375" y="157.929695" style="stroke: #000000; stroke-width: 0.6"/>
      </g>
     </g>
     <g id="text_13">
      <!-- $\mathdefault{3\times10^{5}}$ -->
      <g transform="translate(22.81375 161.728914)">
       <text>
        <tspan style="font: 10px 'DejaVu Sans'" x="0 8.310547 18.637695 25" y="-0.06406250000000036">3×10</tspan>
        <tspan style="font: 7px 'DejaVu Sans'" x="31.458008" y="-3.8921875000000004">5</tspan>
       </text>
      </g>
     </g>
    </g>
    <g id="ytick_5">
     <g id="line2d_24">
      <g>
       <use xlink:href="#m87985927a8" x="64.41375" y="76.454644" style="stroke: #000000; stroke-width: 0.6"/>
      </g>
     </g>
     <g id="text_14">
      <!-- $\mathdefault{4\times10^{5}}$ -->
      <g transform="translate(22.81375 80.253863)">
       <text>
        <tspan style="font: 10px 'DejaVu Sans'" x="0 8.310547 18.637695 25" y="-0.06406250000000036">4×10</tspan>
        <tspan style="font: 7px 'DejaVu Sans'" x="31.458008" y="-3.8921875000000004">5</tspan>
       </text>
      </g>
     </g>
    </g>
    <g id="text_15">
     <text style="font: 12px 'DejaVu Sans', 'Bitstream Vera Sans', 'Computer Modern Sans Serif', 'Lucida Grande', 'Verdana', 'Geneva', 'Lucid', 'Arial', 'Helvetica', 'Avant Garde', sans-serif; text-anchor: middle" x="16.318125" y="276.572969" transform="rotate(-90 16.318125 276.572969)">Median Elapsed Time (nanoseconds)</text>
    </g>
   </g>
   <g id="line2d_25">
    <path d="M 93.39983 240.791469 
L 122.385909 246.380183 
L 151.371989 244.51619 
L 180.358068 246.948917 
L 209.344148 191.866757 
L 238.330227 92.213717 
L 267.316307 246.914533 
L 296.302386 245.959147 
L 325.288466 46.813736 
L 354.274545 246.737122 
L 383.260625 246.771872 
L 412.246705 247.172125 
L 441.232784 47.775065 
L 470.218864 245.79083 
L 499.204943 246.579962 
L 528.191023 246.859088 
L 586.163182 247.044205 
L 615.149261 47.870225 
L 644.135341 246.1906 
L 673.12142 104.279383 
" clip-path="url(#pd0ff0c3de4)" style="fill: none; stroke: #1f77b4; stroke-width: 2; stroke-linecap: square"/>
    <defs>
     <path id="mb27b3e3720" d="M 0 3 
C 0.795609 3 1.55874 2.683901 2.12132 2.12132 
C 2.683901 1.55874 3 0.795609 3 0 
C 3 -0.795609 2.683901 -1.55874 2.12132 -2.12132 
C 1.55874 -2.683901 0.795609 -3 0 -3 
C -0.795609 -3 -1.55874 -2.683901 -2.12132 -2.12132 
C -2.683901 -1.55874 -3 -0.795609 -3 0 
C -3 0.795609 -2.683901 1.55874 -2.12132 2.12132 
C -1.55874 2.683901 -0.795609 3 0 3 
z
" style="stroke: #1f77b4"/>
    </defs>
    <g clip-path="url(#pd0ff0c3de4)">
     <use xlink:href="#mb27b3e3720" x="93.39983" y="240.791469" style="fill: #1f77b4; stroke: #1f77b4"/>
     <use xlink:href="#mb27b3e3720" x="122.385909" y="246.380183" style="fill: #1f77b4; stroke: #1f77b4"/>
     <use xlink:href="#mb27b3e3720" x="151.371989" y="244.51619" style="fill: #1f77b4; stroke: #1f77b4"/>
     <use xlink:href="#mb27b3e3720" x="180.358068" y="246.948917" style="fill: #1f77b4; stroke: #1f77b4"/>
     <use xlink:href="#mb27b3e3720" x="209.344148" y="191.866757" style="fill: #1f77b4; stroke: #1f77b4"/>
     <use xlink:href="#mb27b3e3720" x="238.330227" y="92.213717" style="fill: #1f77b4; stroke: #1f77b4"/>
     <use xlink:href="#mb27b3e3720" x="267.316307" y="246.914533" style="fill: #1f77b4; stroke: #1f77b4"/>
     <use xlink:href="#mb27b3e3720" x="296.302386" y="245.959147" style="fill: #1f77b4; stroke: #1f77b4"/>
     <use xlink:href="#mb27b3e3720" x="325.288466" y="46.813736" style="fill: #1f77b4; stroke: #1f77b4"/>
     <use xlink:href="#mb27b3e3720" x="354.274545" y="246.737122" style="fill: #1f77b4; stroke: #1f77b4"/>
     <use xlink:href="#mb27b3e3720" x="383.260625" y="246.771872" style="fill: #1f77b4; stroke: #1f77b4"/>
     <use xlink:href="#mb27b3e3720" x="412.246705" y="247.172125" style="fill: #1f77b4; stroke: #1f77b4"/>
     <use xlink:href="#mb27b3e3720" x="441.232784" y="47.775065" style="fill: #1f77b4; stroke: #1f77b4"/>
     <use xlink:href="#mb27b3e3720" x="470.218864" y="245.79083" style="fill: #1f77b4; stroke: #1f77b4"/>
     <use xlink:href="#mb27b3e3720" x="499.204943" y="246.579962" style="fill: #1f77b4; stroke: #1f77b4"/>
     <use xlink:href="#mb27b3e3720" x="528.191023" y="246.859088" style="fill: #1f77b4; stroke: #1f77b4"/>
     <use xlink:href="#mb27b3e3720" x="586.163182" y="247.044205" style="fill: #1f77b4; stroke: #1f77b4"/>
     <use xlink:href="#mb27b3e3720" x="615.149261" y="47.870225" style="fill: #1f77b4; stroke: #1f77b4"/>
     <use xlink:href="#mb27b3e3720" x="644.135341" y="246.1906" style="fill: #1f77b4; stroke: #1f77b4"/>
     <use xlink:href="#mb27b3e3720" x="673.12142" y="104.279383" style="fill: #1f77b4; stroke: #1f77b4"/>
    </g>
   </g>
   <g id="line2d_26">
    <path d="M 93.39983 240.606601 
L 122.385909 238.938145 
L 151.371989 236.647515 
L 180.358068 234.597314 
L 209.344148 201.944944 
L 238.330227 236.092359 
L 267.316307 236.719698 
L 296.302386 238.343495 
L 325.288466 128.972368 
L 354.274545 231.261218 
L 383.260625 234.571575 
L 412.246705 234.061474 
L 441.232784 185.015102 
L 470.218864 231.328126 
L 499.204943 235.895861 
L 528.191023 235.578148 
L 586.163182 235.130326 
L 615.149261 186.367497 
L 644.135341 237.186402 
L 673.12142 185.816409 
" clip-path="url(#pd0ff0c3de4)" style="fill: none; stroke: #ff7f0e; stroke-width: 2; stroke-linecap: square"/>
    <defs>
     <path id="m59bfa7c8fd" d="M 0 3 
C 0.795609 3 1.55874 2.683901 2.12132 2.12132 
C 2.683901 1.55874 3 0.795609 3 0 
C 3 -0.795609 2.683901 -1.55874 2.12132 -2.12132 
C 1.55874 -2.683901 0.795609 -3 0 -3 
C -0.795609 -3 -1.55874 -2.683901 -2.12132 -2.12132 
C -2.683901 -1.55874 -3 -0.795609 -3 0 
C -3 0.795609 -2.683901 1.55874 -2.12132 2.12132 
C -1.55874 2.683901 -0.795609 3 0 3 
z
" style="stroke: #ff7f0e"/>
    </defs>
    <g clip-path="url(#pd0ff0c3de4)">
     <use xlink:href="#m59bfa7c8fd" x="93.39983" y="240.606601" style="fill: #ff7f0e; stroke: #ff7f0e"/>
     <use xlink:href="#m59bfa7c8fd" x="122.385909" y="238.938145" style="fill: #ff7f0e; stroke: #ff7f0e"/>
     <use xlink:href="#m59bfa7c8fd" x="151.371989" y="236.647515" style="fill: #ff7f0e; stroke: #ff7f0e"/>
     <use xlink:href="#m59bfa7c8fd" x="180.358068" y="234.597314" style="fill: #ff7f0e; stroke: #ff7f0e"/>
     <use xlink:href="#m59bfa7c8fd" x="209.344148" y="201.944944" style="fill: #ff7f0e; stroke: #ff7f0e"/>
     <use xlink:href="#m59bfa7c8fd" x="238.330227" y="236.092359" style="fill: #ff7f0e; stroke: #ff7f0e"/>
     <use xlink:href="#m59bfa7c8fd" x="267.316307" y="236.719698" style="fill: #ff7f0e; stroke: #ff7f0e"/>
     <use xlink:href="#m59bfa7c8fd" x="296.302386" y="238.343495" style="fill: #ff7f0e; stroke: #ff7f0e"/>
     <use xlink:href="#m59bfa7c8fd" x="325.288466" y="128.972368" style="fill: #ff7f0e; stroke: #ff7f0e"/>
     <use xlink:href="#m59bfa7c8fd" x="354.274545" y="231.261218" style="fill: #ff7f0e; stroke: #ff7f0e"/>
     <use xlink:href="#m59bfa7c8fd" x="383.260625" y="234.571575" style="fill: #ff7f0e; stroke: #ff7f0e"/>
     <use xlink:href="#m59bfa7c8fd" x="412.246705" y="234.061474" style="fill: #ff7f0e; stroke: #ff7f0e"/>
     <use xlink:href="#m59bfa7c8fd" x="441.232784" y="185.015102" style="fill: #ff7f0e; stroke: #ff7f0e"/>
     <use xlink:href="#m59bfa7c8fd" x="470.218864" y="231.328126" style="fill: #ff7f0e; stroke: #ff7f0e"/>
     <use xlink:href="#m59bfa7c8fd" x="499.204943" y="235.895861" style="fill: #ff7f0e; stroke: #ff7f0e"/>
     <use xlink:href="#m59bfa7c8fd" x="528.191023" y="235.578148" style="fill: #ff7f0e; stroke: #ff7f0e"/>
     <use xlink:href="#m59bfa7c8fd" x="586.163182" y="235.130326" style="fill: #ff7f0e; stroke: #ff7f0e"/>
     <use xlink:href="#m59bfa7c8fd" x="615.149261" y="186.367497" style="fill: #ff7f0e; stroke: #ff7f0e"/>
     <use xlink:href="#m59bfa7c8fd" x="644.135341" y="237.186402" style="fill: #ff7f0e; stroke: #ff7f0e"/>
     <use xlink:href="#m59bfa7c8fd" x="673.12142" y="185.816409" style="fill: #ff7f0e; stroke: #ff7f0e"/>
    </g>
   </g>
   <g id="line2d_27">
    <path d="M 93.39983 240.357183 
L 122.385909 220.297468 
L 151.371989 197.431933 
L 180.358068 240.821069 
L 209.344148 180.732232 
L 238.330227 241.392807 
L 267.316307 240.81019 
L 296.302386 241.123573 
L 325.288466 193.49982 
L 354.274545 240.398611 
L 383.260625 241.158654 
L 412.246705 240.939501 
L 441.232784 200.610539 
L 470.218864 238.092804 
L 499.204943 240.151395 
L 528.191023 241.583517 
L 586.163182 241.442374 
L 615.149261 206.808564 
L 644.135341 241.237951 
L 673.12142 176.362702 
" clip-path="url(#pd0ff0c3de4)" style="fill: none; stroke: #2ca02c; stroke-width: 2; stroke-linecap: square"/>
    <defs>
     <path id="m3b71606ca6" d="M 0 3 
C 0.795609 3 1.55874 2.683901 2.12132 2.12132 
C 2.683901 1.55874 3 0.795609 3 0 
C 3 -0.795609 2.683901 -1.55874 2.12132 -2.12132 
C 1.55874 -2.683901 0.795609 -3 0 -3 
C -0.795609 -3 -1.55874 -2.683901 -2.12132 -2.12132 
C -2.683901 -1.55874 -3 -0.795609 -3 0 
C -3 0.795609 -2.683901 1.55874 -2.12132 2.12132 
C -1.55874 2.683901 -0.795609 3 0 3 
z
" style="stroke: #2ca02c"/>
    </defs>
    <g clip-path="url(#pd0ff0c3de4)">
     <use xlink:href="#m3b71606ca6" x="93.39983" y="240.357183" style="fill: #2ca02c; stroke: #2ca02c"/>
     <use xlink:href="#m3b71606ca6" x="122.385909" y="220.297468" style="fill: #2ca02c; stroke: #2ca02c"/>
     <use xlink:href="#m3b71606ca6" x="151.371989" y="197.431933" style="fill: #2ca02c; stroke: #2ca02c"/>
     <use xlink:href="#m3b71606ca6" x="180.358068" y="240.821069" style="fill: #2ca02c; stroke: #2ca02c"/>
     <use xlink:href="#m3b71606ca6" x="209.344148" y="180.732232" style="fill: #2ca02c; stroke: #2ca02c"/>
     <use xlink:href="#m3b71606ca6" x="238.330227" y="241.392807" style="fill: #2ca02c; stroke: #2ca02c"/>
     <use xlink:href="#m3b71606ca6" x="267.316307" y="240.81019" style="fill: #2ca02c; stroke: #2ca02c"/>
     <use xlink:href="#m3b71606ca6" x="296.302386" y="241.123573" style="fill: #2ca02c; stroke: #2ca02c"/>
     <use xlink:href="#m3b71606ca6" x="325.288466" y="193.49982" style="fill: #2ca02c; stroke: #2ca02c"/>
     <use xlink:href="#m3b71606ca6" x="354.274545" y="240.398611" style="fill: #2ca02c; stroke: #2ca02c"/>
     <use xlink:href="#m3b71606ca6" x="383.260625" y="241.158654" style="fill: #2ca02c; stroke: #2ca02c"/>
     <use xlink:href="#m3b71606ca6" x="412.246705" y="240.939501" style="fill: #2ca02c; stroke: #2ca02c"/>
     <use xlink:href="#m3b71606ca6" x="441.232784" y="200.610539" style="fill: #2ca02c; stroke: #2ca02c"/>
     <use xlink:href="#m3b71606ca6" x="470.218864" y="238.092804" style="fill: #2ca02c; stroke: #2ca02c"/>
     <use xlink:href="#m3b71606ca6" x="499.204943" y="240.151395" style="fill: #2ca02c; stroke: #2ca02c"/>
     <use xlink:href="#m3b71606ca6" x="528.191023" y="241.583517" style="fill: #2ca02c; stroke: #2ca02c"/>
     <use xlink:href="#m3b71606ca6" x="586.163182" y="241.442374" style="fill: #2ca02c; stroke: #2ca02c"/>
     <use xlink:href="#m3b71606ca6" x="615.149261" y="206.808564" style="fill: #2ca02c; stroke: #2ca02c"/>
     <use xlink:href="#m3b71606ca6" x="644.135341" y="241.237951" style="fill: #2ca02c; stroke: #2ca02c"/>
     <use xlink:href="#m3b71606ca6" x="673.12142" y="176.362702" style="fill: #2ca02c; stroke: #2ca02c"/>
    </g>
   </g>
   <g id="line2d_28">
    <path d="M 93.39983 504.018399 
L 122.385909 505.641745 
L 151.371989 504.562012 
L 180.358068 505.963211 
L 209.344148 307.270335 
L 238.330227 495.447441 
L 267.316307 504.74891 
L 296.302386 418.481088 
L 325.288466 505.736503 
L 354.274545 505.86225 
L 383.260625 504.980187 
L 412.246705 506.100948 
L 441.232784 503.336431 
L 499.204943 505.032382 
L 528.191023 504.288632 
L 586.163182 505.208972 
L 615.149261 506.332202 
L 644.135341 503.912043 
L 673.12142 505.497092 
" clip-path="url(#pd0ff0c3de4)" style="fill: none; stroke: #d62728; stroke-width: 2; stroke-linecap: square"/>
    <defs>
     <path id="m2574c554bb" d="M 0 3 
C 0.795609 3 1.55874 2.683901 2.12132 2.12132 
C 2.683901 1.55874 3 0.795609 3 0 
C 3 -0.795609 2.683901 -1.55874 2.12132 -2.12132 
C 1.55874 -2.683901 0.795609 -3 0 -3 
C -0.795609 -3 -1.55874 -2.683901 -2.12132 -2.12132 
C -2.683901 -1.55874 -3 -0.795609 -3 0 
C -3 0.795609 -2.683901 1.55874 -2.12132 2.12132 
C -1.55874 2.683901 -0.795609 3 0 3 
z
" style="stroke: #d62728"/>
    </defs>
    <g clip-path="url(#pd0ff0c3de4)">
     <use xlink:href="#m2574c554bb" x="93.39983" y="504.018399" style="fill: #d62728; stroke: #d62728"/>
     <use xlink:href="#m2574c554bb" x="122.385909" y="505.641745" style="fill: #d62728; stroke: #d62728"/>
     <use xlink:href="#m2574c554bb" x="151.371989" y="504.562012" style="fill: #d62728; stroke: #d62728"/>
     <use xlink:href="#m2574c554bb" x="180.358068" y="505.963211" style="fill: #d62728; stroke: #d62728"/>
     <use xlink:href="#m2574c554bb" x="209.344148" y="307.270335" style="fill: #d62728; stroke: #d62728"/>
     <use xlink:href="#m2574c554bb" x="238.330227" y="495.447441" style="fill: #d62728; stroke: #d62728"/>
     <use xlink:href="#m2574c554bb" x="267.316307" y="504.74891" style="fill: #d62728; stroke: #d62728"/>
     <use xlink:href="#m2574c554bb" x="296.302386" y="418.481088" style="fill: #d62728; stroke: #d62728"/>
     <use xlink:href="#m2574c554bb" x="325.288466" y="505.736503" style="fill: #d62728; stroke: #d62728"/>
     <use xlink:href="#m2574c554bb" x="354.274545" y="505.86225" style="fill: #d62728; stroke: #d62728"/>
     <use xlink:href="#m2574c554bb" x="383.260625" y="504.980187" style="fill: #d62728; stroke: #d62728"/>
     <use xlink:href="#m2574c554bb" x="412.246705" y="506.100948" style="fill: #d62728; stroke: #d62728"/>
     <use xlink:href="#m2574c554bb" x="441.232784" y="503.336431" style="fill: #d62728; stroke: #d62728"/>
     <use xlink:href="#m2574c554bb" x="499.204943" y="505.032382" style="fill: #d62728; stroke: #d62728"/>
     <use xlink:href="#m2574c554bb" x="528.191023" y="504.288632" style="fill: #d62728; stroke: #d62728"/>
     <use xlink:href="#m2574c554bb" x="586.163182" y="505.208972" style="fill: #d62728; stroke: #d62728"/>
     <use xlink:href="#m2574c554bb" x="615.149261" y="506.332202" style="fill: #d62728; stroke: #d62728"/>
     <use xlink:href="#m2574c554bb" x="644.135341" y="503.912043" style="fill: #d62728; stroke: #d62728"/>
     <use xlink:href="#m2574c554bb" x="673.12142" y="505.497092" style="fill: #d62728; stroke: #d62728"/>
    </g>
   </g>
   <g id="line2d_29">
    <path d="M 93.39983 471.813709 
L 122.385909 468.015598 
L 151.371989 470.864455 
L 180.358068 470.8636 
L 209.344148 415.59121 
L 238.330227 418.648377 
L 267.316307 469.816411 
L 296.302386 397.227693 
L 325.288466 469.703134 
L 354.274545 471.094838 
L 383.260625 469.05019 
L 412.246705 472.905927 
L 441.232784 463.887363 
L 499.204943 468.617802 
L 528.191023 472.212345 
L 586.163182 467.636347 
L 615.149261 465.865541 
L 644.135341 471.326551 
L 673.12142 471.042877 
" clip-path="url(#pd0ff0c3de4)" style="fill: none; stroke: #9467bd; stroke-width: 2; stroke-linecap: square"/>
    <defs>
     <path id="m8e641dcb99" d="M 0 3 
C 0.795609 3 1.55874 2.683901 2.12132 2.12132 
C 2.683901 1.55874 3 0.795609 3 0 
C 3 -0.795609 2.683901 -1.55874 2.12132 -2.12132 
C 1.55874 -2.683901 0.795609 -3 0 -3 
C -0.795609 -3 -1.55874 -2.683901 -2.12132 -2.12132 
C -2.683901 -1.55874 -3 -0.795609 -3 0 
C -3 0.795609 -2.683901 1.55874 -2.12132 2.12132 
C -1.55874 2.683901 -0.795609 3 0 3 
z
" style="stroke: #9467bd"/>
    </defs>
    <g clip-path="url(#pd0ff0c3de4)">
     <use xlink:href="#m8e641dcb99" x="93.39983" y="471.813709" style="fill: #9467bd; stroke: #9467bd"/>
     <use xlink:href="#m8e641dcb99" x="122.385909" y="468.015598" style="fill: #9467bd; stroke: #9467bd"/>
     <use xlink:href="#m8e641dcb99" x="151.371989" y="470.864455" style="fill: #9467bd; stroke: #9467bd"/>
     <use xlink:href="#m8e641dcb99" x="180.358068" y="470.8636" style="fill: #9467bd; stroke: #9467bd"/>
     <use xlink:href="#m8e641dcb99" x="209.344148" y="415.59121" style="fill: #9467bd; stroke: #9467bd"/>
     <use xlink:href="#m8e641dcb99" x="238.330227" y="418.648377" style="fill: #9467bd; stroke: #9467bd"/>
     <use xlink:href="#m8e641dcb99" x="267.316307" y="469.816411" style="fill: #9467bd; stroke: #9467bd"/>
     <use xlink:href="#m8e641dcb99" x="296.302386" y="397.227693" style="fill: #9467bd; stroke: #9467bd"/>
     <use xlink:href="#m8e641dcb99" x="325.288466" y="469.703134" style="fill: #9467bd; stroke: #9467bd"/>
     <use xlink:href="#m8e641dcb99" x="354.274545" y="471.094838" style="fill: #9467bd; stroke: #9467bd"/>
     <use xlink:href="#m8e641dcb99" x="383.260625" y="469.05019" style="fill: #9467bd; stroke: #9467bd"/>
     <use xlink:href="#m8e641dcb99" x="412.246705" y="472.905927" style="fill: #9467bd; stroke: #9467bd"/>
     <use xlink:href="#m8e641dcb99" x="441.232784" y="463.887363" style="fill: #9467bd; stroke: #9467bd"/>
     <use xlink:href="#m8e641dcb99" x="499.204943" y="468.617802" style="fill: #9467bd; stroke: #9467bd"/>
     <use xlink:href="#m8e641dcb99" x="528.191023" y="472.212345" style="fill: #9467bd; stroke: #9467bd"/>
     <use xlink:href="#m8e641dcb99" x="586.163182" y="467.636347" style="fill: #9467bd; stroke: #9467bd"/>
     <use xlink:href="#m8e641dcb99" x="615.149261" y="465.865541" style="fill: #9467bd; stroke: #9467bd"/>
     <use xlink:href="#m8e641dcb99" x="644.135341" y="471.326551" style="fill: #9467bd; stroke: #9467bd"/>
     <use xlink:href="#m8e641dcb99" x="673.12142" y="471.042877" style="fill: #9467bd; stroke: #9467bd"/>
    </g>
   </g>
   <g id="line2d_30">
    <path d="M 93.39983 232.815437 
L 122.385909 231.528701 
L 151.371989 232.338072 
L 180.358068 231.398232 
L 209.344148 177.722699 
L 238.330227 178.994362 
L 267.316307 231.970737 
L 296.302386 174.053219 
L 325.288466 233.422734 
L 354.274545 232.013163 
L 383.260625 232.188946 
L 412.246705 232.191768 
L 441.232784 231.204964 
L 499.204943 232.435691 
L 528.191023 231.63143 
L 586.163182 232.798712 
L 615.149261 233.426185 
L 644.135341 233.145823 
L 673.12142 234.115086 
" clip-path="url(#pd0ff0c3de4)" style="fill: none; stroke: #8c564b; stroke-width: 2; stroke-linecap: square"/>
    <defs>
     <path id="mbdbad5c892" d="M 0 3 
C 0.795609 3 1.55874 2.683901 2.12132 2.12132 
C 2.683901 1.55874 3 0.795609 3 0 
C 3 -0.795609 2.683901 -1.55874 2.12132 -2.12132 
C 1.55874 -2.683901 0.795609 -3 0 -3 
C -0.795609 -3 -1.55874 -2.683901 -2.12132 -2.12132 
C -2.683901 -1.55874 -3 -0.795609 -3 0 
C -3 0.795609 -2.683901 1.55874 -2.12132 2.12132 
C -1.55874 2.683901 -0.795609 3 0 3 
z
" style="stroke: #8c564b"/>
    </defs>
    <g clip-path="url(#pd0ff0c3de4)">
     <use xlink:href="#mbdbad5c892" x="93.39983" y="232.815437" style="fill: #8c564b; stroke: #8c564b"/>
     <use xlink:href="#mbdbad5c892" x="122.385909" y="231.528701" style="fill: #8c564b; stroke: #8c564b"/>
     <use xlink:href="#mbdbad5c892" x="151.371989" y="232.338072" style="fill: #8c564b; stroke: #8c564b"/>
     <use xlink:href="#mbdbad5c892" x="180.358068" y="231.398232" style="fill: #8c564b; stroke: #8c564b"/>
     <use xlink:href="#mbdbad5c892" x="209.344148" y="177.722699" style="fill: #8c564b; stroke: #8c564b"/>
     <use xlink:href="#mbdbad5c892" x="238.330227" y="178.994362" style="fill: #8c564b; stroke: #8c564b"/>
     <use xlink:href="#mbdbad5c892" x="267.316307" y="231.970737" style="fill: #8c564b; stroke: #8c564b"/>
     <use xlink:href="#mbdbad5c892" x="296.302386" y="174.053219" style="fill: #8c564b; stroke: #8c564b"/>
     <use xlink:href="#mbdbad5c892" x="325.288466" y="233.422734" style="fill: #8c564b; stroke: #8c564b"/>
     <use xlink:href="#mbdbad5c892" x="354.274545" y="232.013163" style="fill: #8c564b; stroke: #8c564b"/>
     <use xlink:href="#mbdbad5c892" x="383.260625" y="232.188946" style="fill: #8c564b; stroke: #8c564b"/>
     <use xlink:href="#mbdbad5c892" x="412.246705" y="232.191768" style="fill: #8c564b; stroke: #8c564b"/>
     <use xlink:href="#mbdbad5c892" x="441.232784" y="231.204964" style="fill: #8c564b; stroke: #8c564b"/>
     <use xlink:href="#mbdbad5c892" x="499.204943" y="232.435691" style="fill: #8c564b; stroke: #8c564b"/>
     <use xlink:href="#mbdbad5c892" x="528.191023" y="231.63143" style="fill: #8c564b; stroke: #8c564b"/>
     <use xlink:href="#mbdbad5c892" x="586.163182" y="232.798712" style="fill: #8c564b; stroke: #8c564b"/>
     <use xlink:href="#mbdbad5c892" x="615.149261" y="233.426185" style="fill: #8c564b; stroke: #8c564b"/>
     <use xlink:href="#mbdbad5c892" x="644.135341" y="233.145823" style="fill: #8c564b; stroke: #8c564b"/>
     <use xlink:href="#mbdbad5c892" x="673.12142" y="234.115086" style="fill: #8c564b; stroke: #8c564b"/>
    </g>
   </g>
   <g id="patch_3">
    <path d="M 64.41375 529.308125 
L 64.41375 23.837813 
" style="fill: none; stroke: #000000; stroke-width: 0.8; stroke-linejoin: miter; stroke-linecap: square"/>
   </g>
   <g id="patch_4">
    <path d="M 702.1075 529.308125 
L 702.1075 23.837813 
" style="fill: none; stroke: #000000; stroke-width: 0.8; stroke-linejoin: miter; stroke-linecap: square"/>
   </g>
   <g id="patch_5">
    <path d="M 64.41375 529.308125 
L 702.1075 529.308125 
" style="fill: none; stroke: #000000; stroke-width: 0.8; stroke-linejoin: miter; stroke-linecap: square"/>
   </g>
   <g id="patch_6">
    <path d="M 64.41375 23.837812 
L 702.1075 23.837812 
" style="fill: none; stroke: #000000; stroke-width: 0.8; stroke-linejoin: miter; stroke-linecap: square"/>
   </g>
   <g id="text_16">
    <text style="font: 700 14px 'DejaVu Sans', 'Bitstream Vera Sans', 'Computer Modern Sans Serif', 'Lucida Grande', 'Verdana', 'Geneva', 'Lucid', 'Arial', 'Helvetica', 'Avant Garde', sans-serif; text-anchor: middle" x="383.260625" y="17.837813" transform="rotate(-0 383.260625 17.837813)">Parallelfor Vectorops - Performance Trend</text>
   </g>
   <g id="legend_1">
    <g id="patch_7">
     <path d="M 740.992188 119.906563 
L 846.004688 119.906563 
Q 848.004688 119.906563 848.004688 117.906563 
L 848.004688 30.837813 
Q 848.004688 28.837813 846.004688 28.837813 
L 740.992188 28.837813 
Q 738.992188 28.837813 738.992188 30.837813 
L 738.992188 117.906563 
Q 738.992188 119.906563 740.992188 119.906563 
z
" style="fill: #ffffff; opacity: 0.8; stroke: #cccccc; stroke-linejoin: miter"/>
    </g>
    <g id="line2d_31">
     <path d="M 742.992188 36.93625 
L 752.992188 36.93625 
L 762.992188 36.93625 
" style="fill: none; stroke: #1f77b4; stroke-width: 2; stroke-linecap: square"/>
     <g>
      <use xlink:href="#mb27b3e3720" x="752.992188" y="36.93625" style="fill: #1f77b4; stroke: #1f77b4"/>
     </g>
    </g>
    <g id="text_17">
     <text style="font: 10px 'DejaVu Sans', 'Bitstream Vera Sans', 'Computer Modern Sans Serif', 'Lucida Grande', 'Verdana', 'Geneva', 'Lucid', 'Arial', 'Helvetica', 'Avant Garde', sans-serif; text-anchor: start" x="770.992188" y="40.43625" transform="rotate(-0 770.992188 40.43625)">gcc-14.2 - V1</text>
    </g>
    <g id="line2d_32">
     <path d="M 742.992188 51.614375 
L 752.992188 51.614375 
L 762.992188 51.614375 
" style="fill: none; stroke: #ff7f0e; stroke-width: 2; stroke-linecap: square"/>
     <g>
      <use xlink:href="#m59bfa7c8fd" x="752.992188" y="51.614375" style="fill: #ff7f0e; stroke: #ff7f0e"/>
     </g>
    </g>
    <g id="text_18">
     <text style="font: 10px 'DejaVu Sans', 'Bitstream Vera Sans', 'Computer Modern Sans Serif', 'Lucida Grande', 'Verdana', 'Geneva', 'Lucid', 'Arial', 'Helvetica', 'Avant Garde', sans-serif; text-anchor: start" x="770.992188" y="55.114375" transform="rotate(-0 770.992188 55.114375)">gcc-14.2 - V2</text>
    </g>
    <g id="line2d_33">
     <path d="M 742.992188 66.2925 
L 752.992188 66.2925 
L 762.992188 66.2925 
" style="fill: none; stroke: #2ca02c; stroke-width: 2; stroke-linecap: square"/>
     <g>
      <use xlink:href="#m3b71606ca6" x="752.992188" y="66.2925" style="fill: #2ca02c; stroke: #2ca02c"/>
     </g>
    </g>
    <g id="text_19">
     <text style="font: 10px 'DejaVu Sans', 'Bitstream Vera Sans', 'Computer Modern Sans Serif', 'Lucida Grande', 'Verdana', 'Geneva', 'Lucid', 'Arial', 'Helvetica', 'Avant Garde', sans-serif; text-anchor: start" x="770.992188" y="69.7925" transform="rotate(-0 770.992188 69.7925)">gcc-14.2 - TBB</text>
    </g>
    <g id="line2d_34">
     <path d="M 742.992188 80.970625 
L 752.992188 80.970625 
L 762.992188 80.970625 
" style="fill: none; stroke: #d62728; stroke-width: 2; stroke-linecap: square"/>
     <g>
      <use xlink:href="#m2574c554bb" x="752.992188" y="80.970625" style="fill: #d62728; stroke: #d62728"/>
     </g>
    </g>
    <g id="text_20">
     <text style="font: 10px 'DejaVu Sans', 'Bitstream Vera Sans', 'Computer Modern Sans Serif', 'Lucida Grande', 'Verdana', 'Geneva', 'Lucid', 'Arial', 'Helvetica', 'Avant Garde', sans-serif; text-anchor: start" x="770.992188" y="84.470625" transform="rotate(-0 770.992188 84.470625)">gcc-4.2 - V1</text>
    </g>
    <g id="line2d_35">
     <path d="M 742.992188 95.64875 
L 752.992188 95.64875 
L 762.992188 95.64875 
" style="fill: none; stroke: #9467bd; stroke-width: 2; stroke-linecap: square"/>
     <g>
      <use xlink:href="#m8e641dcb99" x="752.992188" y="95.64875" style="fill: #9467bd; stroke: #9467bd"/>
     </g>
    </g>
    <g id="text_21">
     <text style="font: 10px 'DejaVu Sans', 'Bitstream Vera Sans', 'Computer Modern Sans Serif', 'Lucida Grande', 'Verdana', 'Geneva', 'Lucid', 'Arial', 'Helvetica', 'Avant Garde', sans-serif; text-anchor: start" x="770.992188" y="99.14875" transform="rotate(-0 770.992188 99.14875)">gcc-4.2 - V2</text>
    </g>
    <g id="line2d_36">
     <path d="M 742.992188 110.326875 
L 752.992188 110.326875 
L 762.992188 110.326875 
" style="fill: none; stroke: #8c564b; stroke-width: 2; stroke-linecap: square"/>
     <g>
      <use xlink:href="#mbdbad5c892" x="752.992188" y="110.326875" style="fill: #8c564b; stroke: #8c564b"/>
     </g>
    </g>
    <g id="text_22">
     <text style="font: 10px 'DejaVu Sans', 'Bitstream Vera Sans', 'Computer Modern Sans Serif', 'Lucida Grande', 'Verdana', 'Geneva', 'Lucid', 'Arial', 'Helvetica', 'Avant Garde', sans-serif; text-anchor: start" x="770.992188" y="113.826875" transform="rotate(-0 770.992188 113.826875)">gcc-4.2 - TBB</text>
    </g>
   </g>
  </g>
 </g>
 <defs>
  <clipPath id="pd0ff0c3de4">
   <rect x="64.41375" y="23.837813" width="637.69375" height="505.470313"/>
  </clipPath>
 </defs>
</svg>
