<?xml version="1.0" encoding="utf-8" standalone="no"?>
<!DOCTYPE svg PUBLIC "-//W3C//DTD SVG 1.1//EN"
  "http://www.w3.org/Graphics/SVG/1.1/DTD/svg11.dtd">
<svg xmlns:xlink="http://www.w3.org/1999/xlink" width="848.869766pt" height="568.8pt" viewBox="0 0 848.869766 568.8" xmlns="http://www.w3.org/2000/svg" version="1.1">
 <metadata>
  <rdf:RDF xmlns:dc="http://purl.org/dc/elements/1.1/" xmlns:cc="http://creativecommons.org/ns#" xmlns:rdf="http://www.w3.org/1999/02/22-rdf-syntax-ns#">
   <cc:Work>
    <dc:type rdf:resource="http://purl.org/dc/dcmitype/StillImage"/>
    <dc:date>2026-05-09T23:46:48.123640</dc:date>
    <dc:format>image/svg+xml</dc:format>
    <dc:creator>
     <cc:Agent>
      <dc:title>Matplotlib v3.9.4, https://matplotlib.org/</dc:title>
     </cc:Agent>
    </dc:creator>
   </cc:Work>
  </rdf:RDF>
 </metadata>
 <defs>
  <style type="text/css">*{stroke-linejoin: round; stroke-linecap: butt}</style>
 </defs>
 <g id="figure_1">
  <g id="patch_1">
   <path d="M 0 568.8 
L 848.869766 568.8 
L 848.869766 0 
L 0 0 
z
" style="fill: #ffffff"/>
  </g>
  <g id="axes_1">
   <g id="patch_2">
    <path d="M 86.71375 529.308125 
L 597.709062 529.308125 
L 597.709062 23.837812 
L 86.71375 23.837812 
z
" style="fill: #ffffff"/>
   </g>
   <g id="matplotlib.axis_1">
    <g id="xtick_1">
     <g id="line2d_1">
      <path d="M 94.95561 529.308125 
L 94.95561 23.837812 
" clip-path="url(#p0ee3213ba9)" style="fill: none; stroke: #b0b0b0; stroke-opacity: 0.3; stroke-width: 0.8; stroke-linecap: square"/>
     </g>
     <g id="line2d_2">
      <defs>
       <path id="m1802d72d73" d="M 0 0 
L 0 3.5 
" style="stroke: #000000; stroke-width: 0.8"/>
      </defs>
      <g>
       <use xlink:href="#m1802d72d73" x="94.95561" y="529.308125" style="stroke: #000000; stroke-width: 0.8"/>
      </g>
     </g>
     <g id="text_1">
      <text style="font: 10px 'DejaVu Sans', 'Bitstream Vera Sans', 'Computer Modern Sans Serif', 'Lucida Grande', 'Verdana', 'Geneva', 'Lucid', 'Arial', 'Helvetica', 'Avant Garde', sans-serif; text-anchor: middle" x="94.95561" y="543.906563" transform="rotate(-0 94.95561 543.906563)">95</text>
     </g>
    </g>
    <g id="xtick_2">
     <g id="line2d_3">
      <path d="M 169.881609 529.308125 
L 169.881609 23.837812 
" clip-path="url(#p0ee3213ba9)" style="fill: none; stroke: #b0b0b0; stroke-opacity: 0.3; stroke-width: 0.8; stroke-linecap: square"/>
     </g>
     <g id="line2d_4">
      <g>
       <use xlink:href="#m1802d72d73" x="169.881609" y="529.308125" style="stroke: #000000; stroke-width: 0.8"/>
      </g>
     </g>
     <g id="text_2">
      <text style="font: 10px 'DejaVu Sans', 'Bitstream Vera Sans', 'Computer Modern Sans Serif', 'Lucida Grande', 'Verdana', 'Geneva', 'Lucid', 'Arial', 'Helvetica', 'Avant Garde', sans-serif; text-anchor: middle" x="169.881609" y="543.906563" transform="rotate(-0 169.881609 543.906563)">100</text>
     </g>
    </g>
    <g id="xtick_3">
     <g id="line2d_5">
      <path d="M 244.807608 529.308125 
L 244.807608 23.837812 
" clip-path="url(#p0ee3213ba9)" style="fill: none; stroke: #b0b0b0; stroke-opacity: 0.3; stroke-width: 0.8; stroke-linecap: square"/>
     </g>
     <g id="line2d_6">
      <g>
       <use xlink:href="#m1802d72d73" x="244.807608" y="529.308125" style="stroke: #000000; stroke-width: 0.8"/>
      </g>
     </g>
     <g id="text_3">
      <text style="font: 10px 'DejaVu Sans', 'Bitstream Vera Sans', 'Computer Modern Sans Serif', 'Lucida Grande', 'Verdana', 'Geneva', 'Lucid', 'Arial', 'Helvetica', 'Avant Garde', sans-serif; text-anchor: middle" x="244.807608" y="543.906563" transform="rotate(-0 244.807608 543.906563)">105</text>
     </g>
    </g>
    <g id="xtick_4">
     <g id="line2d_7">
      <path d="M 319.733607 529.308125 
L 319.733607 23.837812 
" clip-path="url(#p0ee3213ba9)" style="fill: none; stroke: #b0b0b0; stroke-opacity: 0.3; stroke-width: 0.8; stroke-linecap: square"/>
     </g>
     <g id="line2d_8">
      <g>
       <use xlink:href="#m1802d72d73" x="319.733607" y="529.308125" style="stroke: #000000; stroke-width: 0.8"/>
      </g>
     </g>
     <g id="text_4">
      <text style="font: 10px 'DejaVu Sans', 'Bitstream Vera Sans', 'Computer Modern Sans Serif', 'Lucida Grande', 'Verdana', 'Geneva', 'Lucid', 'Arial', 'Helvetica', 'Avant Garde', sans-serif; text-anchor: middle" x="319.733607" y="543.906563" transform="rotate(-0 319.733607 543.906563)">110</text>
     </g>
    </g>
    <g id="xtick_5">
     <g id="line2d_9">
      <path d="M 394.659605 529.308125 
L 394.659605 23.837812 
" clip-path="url(#p0ee3213ba9)" style="fill: none; stroke: #b0b0b0; stroke-opacity: 0.3; stroke-width: 0.8; stroke-linecap: square"/>
     </g>
     <g id="line2d_10">
      <g>
       <use xlink:href="#m1802d72d73" x="394.659605" y="529.308125" style="stroke: #000000; stroke-width: 0.8"/>
      </g>
     </g>
     <g id="text_5">
      <text style="font: 10px 'DejaVu Sans', 'Bitstream Vera Sans', 'Computer Modern Sans Serif', 'Lucida Grande', 'Verdana', 'Geneva', 'Lucid', 'Arial', 'Helvetica', 'Avant Garde', sans-serif; text-anchor: middle" x="394.659605" y="543.906563" transform="rotate(-0 394.659605 543.906563)">115</text>
     </g>
    </g>
    <g id="xtick_6">
     <g id="line2d_11">
      <path d="M 469.585604 529.308125 
L 469.585604 23.837812 
" clip-path="url(#p0ee3213ba9)" style="fill: none; stroke: #b0b0b0; stroke-opacity: 0.3; stroke-width: 0.8; stroke-linecap: square"/>
     </g>
     <g id="line2d_12">
      <g>
       <use xlink:href="#m1802d72d73" x="469.585604" y="529.308125" style="stroke: #000000; stroke-width: 0.8"/>
      </g>
     </g>
     <g id="text_6">
      <text style="font: 10px 'DejaVu Sans', 'Bitstream Vera Sans', 'Computer Modern Sans Serif', 'Lucida Grande', 'Verdana', 'Geneva', 'Lucid', 'Arial', 'Helvetica', 'Avant Garde', sans-serif; text-anchor: middle" x="469.585604" y="543.906563" transform="rotate(-0 469.585604 543.906563)">120</text>
     </g>
    </g>
    <g id="xtick_7">
     <g id="line2d_13">
      <path d="M 544.511603 529.308125 
L 544.511603 23.837812 
" clip-path="url(#p0ee3213ba9)" style="fill: none; stroke: #b0b0b0; stroke-opacity: 0.3; stroke-width: 0.8; stroke-linecap: square"/>
     </g>
     <g id="line2d_14">
      <g>
       <use xlink:href="#m1802d72d73" x="544.511603" y="529.308125" style="stroke: #000000; stroke-width: 0.8"/>
      </g>
     </g>
     <g id="text_7">
      <text style="font: 10px 'DejaVu Sans', 'Bitstream Vera Sans', 'Computer Modern Sans Serif', 'Lucida Grande', 'Verdana', 'Geneva', 'Lucid', 'Arial', 'Helvetica', 'Avant Garde', sans-serif; text-anchor: middle" x="544.511603" y="543.906563" transform="rotate(-0 544.511603 543.906563)">125</text>
     </g>
    </g>
    <g id="text_8">
     <text style="font: 12px 'DejaVu Sans', 'Bitstream Vera Sans', 'Computer Modern Sans Serif', 'Lucida Grande', 'Verdana', 'Geneva', 'Lucid', 'Arial', 'Helvetica', 'Avant Garde', sans-serif; text-anchor: middle" x="342.211406" y="559.104375" transform="rotate(-0 342.211406 559.104375)">Build Number</text>
    </g>
   </g>
   <g id="matplotlib.axis_2">
    <g id="ytick_1">
     <g id="line2d_15">
      <defs>
       <path id="mfa3176cbec" d="M 0 0 
L -2 0 
" style="stroke: #000000; stroke-width: 0.6"/>
      </defs>
      <g>
       <use xlink:href="#mfa3176cbec" x="86.71375" y="498.34401" style="stroke: #000000; stroke-width: 0.6"/>
      </g>
     </g>
     <g id="text_9">
      <!-- $\mathdefault{5.006\times10^{7}}$ -->
      <g transform="translate(22.81375 502.143229)">
       <text>
        <tspan style="font: 10px 'DejaVu Sans'" x="0 6.362305 9.541016 15.90332 22.265625 30.576172 40.90332 47.265625" y="-0.06406250000000036">5.006×10</tspan>
        <tspan style="font: 7px 'DejaVu Sans'" x="53.723633" y="-3.8921875000000004">7</tspan>
       </text>
      </g>
     </g>
    </g>
    <g id="ytick_2">
     <g id="line2d_16">
      <g>
       <use xlink:href="#mfa3176cbec" x="86.71375" y="397.979961" style="stroke: #000000; stroke-width: 0.6"/>
      </g>
     </g>
     <g id="text_10">
      <!-- $\mathdefault{5.008\times10^{7}}$ -->
      <g transform="translate(22.81375 401.77918)">
       <text>
        <tspan style="font: 10px 'DejaVu Sans'" x="0 6.362305 9.541016 15.90332 22.265625 30.576172 40.90332 47.265625" y="-0.06406250000000036">5.008×10</tspan>
        <tspan style="font: 7px 'DejaVu Sans'" x="53.723633" y="-3.8921875000000004">7</tspan>
       </text>
      </g>
     </g>
    </g>
    <g id="ytick_3">
     <g id="line2d_17">
      <g>
       <use xlink:href="#mfa3176cbec" x="86.71375" y="297.655985" style="stroke: #000000; stroke-width: 0.6"/>
      </g>
     </g>
     <g id="text_11">
      <!-- $\mathdefault{5.01\times10^{7}}$ -->
      <g transform="translate(29.21375 301.455204)">
       <text>
        <tspan style="font: 10px 'DejaVu Sans'" x="0 6.362305 9.541016 15.90332 24.213867 34.541016 40.90332" y="-0.06406250000000036">5.01×10</tspan>
        <tspan style="font: 7px 'DejaVu Sans'" x="47.361328" y="-3.8921875000000004">7</tspan>
       </text>
      </g>
     </g>
    </g>
    <g id="ytick_4">
     <g id="line2d_18">
      <g>
       <use xlink:href="#mfa3176cbec" x="86.71375" y="197.372051" style="stroke: #000000; stroke-width: 0.6"/>
      </g>
     </g>
     <g id="text_12">
      <!-- $\mathdefault{5.012\times10^{7}}$ -->
      <g transform="translate(22.81375 201.17127)">
       <text>
        <tspan style="font: 10px 'DejaVu Sans'" x="0 6.362305 9.541016 15.90332 22.265625 30.576172 40.90332 47.265625" y="-0.06406250000000036">5.012×10</tspan>
        <tspan style="font: 7px 'DejaVu Sans'" x="53.723633" y="-3.8921875000000004">7</tspan>
       </text>
      </g>
     </g>
    </g>
    <g id="ytick_5">
     <g id="line2d_19">
      <g>
       <use xlink:href="#mfa3176cbec" x="86.71375" y="97.128127" style="stroke: #000000; stroke-width: 0.6"/>
      </g>
     </g>
     <g id="text_13">
      <!-- $\mathdefault{5.014\times10^{7}}$ -->
      <g transform="translate(22.81375 100.927345)">
       <text>
        <tspan style="font: 10px 'DejaVu Sans'" x="0 6.362305 9.541016 15.90332 22.265625 30.576172 40.90332 47.265625" y="-0.06406250000000036">5.014×10</tspan>
        <tspan style="font: 7px 'DejaVu Sans'" x="53.723633" y="-3.8921875000000004">7</tspan>
       </text>
      </g>
     </g>
    </g>
    <g id="text_14">
     <text style="font: 12px 'DejaVu Sans', 'Bitstream Vera Sans', 'Computer Modern Sans Serif', 'Lucida Grande', 'Verdana', 'Geneva', 'Lucid', 'Arial', 'Helvetica', 'Avant Garde', sans-serif; text-anchor: middle" x="16.318125" y="276.572969" transform="rotate(-90 16.318125 276.572969)">Median Elapsed Time (nanoseconds)</text>
    </g>
   </g>
   <g id="line2d_20">
    <path d="M 109.94081 456.394991 
L 124.926009 456.08335 
L 154.896409 475.447943 
L 169.881609 484.861282 
L 184.866809 478.633864 
L 199.852008 475.925728 
L 214.837208 482.868773 
L 229.822408 473.182491 
L 244.807608 452.740141 
L 259.792807 453.216377 
L 289.763207 440.440603 
L 304.748407 450.464355 
L 319.733607 473.825889 
L 334.718806 464.969017 
L 349.704006 471.796329 
L 379.674406 476.354832 
L 394.659605 506.332202 
L 409.644805 475.265762 
L 424.630005 477.300369 
L 439.615205 498.001199 
L 454.600405 477.50614 
L 469.585604 468.627056 
L 484.570804 464.375324 
L 499.556004 464.45813 
L 514.541204 466.378728 
L 529.526404 479.855948 
L 559.496803 432.225189 
L 574.482003 436.569711 
" clip-path="url(#p0ee3213ba9)" style="fill: none; stroke: #1f77b4; stroke-width: 2; stroke-linecap: square"/>
    <defs>
     <path id="m2b6a56e37d" d="M 0 3 
C 0.795609 3 1.55874 2.683901 2.12132 2.12132 
C 2.683901 1.55874 3 0.795609 3 0 
C 3 -0.795609 2.683901 -1.55874 2.12132 -2.12132 
C 1.55874 -2.683901 0.795609 -3 0 -3 
C -0.795609 -3 -1.55874 -2.683901 -2.12132 -2.12132 
C -2.683901 -1.55874 -3 -0.795609 -3 0 
C -3 0.795609 -2.683901 1.55874 -2.12132 2.12132 
C -1.55874 2.683901 -0.795609 3 0 3 
z
" style="stroke: #1f77b4"/>
    </defs>
    <g clip-path="url(#p0ee3213ba9)">
     <use xlink:href="#m2b6a56e37d" x="109.94081" y="456.394991" style="fill: #1f77b4; stroke: #1f77b4"/>
     <use xlink:href="#m2b6a56e37d" x="124.926009" y="456.08335" style="fill: #1f77b4; stroke: #1f77b4"/>
     <use xlink:href="#m2b6a56e37d" x="154.896409" y="475.447943" style="fill: #1f77b4; stroke: #1f77b4"/>
     <use xlink:href="#m2b6a56e37d" x="169.881609" y="484.861282" style="fill: #1f77b4; stroke: #1f77b4"/>
     <use xlink:href="#m2b6a56e37d" x="184.866809" y="478.633864" style="fill: #1f77b4; stroke: #1f77b4"/>
     <use xlink:href="#m2b6a56e37d" x="199.852008" y="475.925728" style="fill: #1f77b4; stroke: #1f77b4"/>
     <use xlink:href="#m2b6a56e37d" x="214.837208" y="482.868773" style="fill: #1f77b4; stroke: #1f77b4"/>
     <use xlink:href="#m2b6a56e37d" x="229.822408" y="473.182491" style="fill: #1f77b4; stroke: #1f77b4"/>
     <use xlink:href="#m2b6a56e37d" x="244.807608" y="452.740141" style="fill: #1f77b4; stroke: #1f77b4"/>
     <use xlink:href="#m2b6a56e37d" x="259.792807" y="453.216377" style="fill: #1f77b4; stroke: #1f77b4"/>
     <use xlink:href="#m2b6a56e37d" x="289.763207" y="440.440603" style="fill: #1f77b4; stroke: #1f77b4"/>
     <use xlink:href="#m2b6a56e37d" x="304.748407" y="450.464355" style="fill: #1f77b4; stroke: #1f77b4"/>
     <use xlink:href="#m2b6a56e37d" x="319.733607" y="473.825889" style="fill: #1f77b4; stroke: #1f77b4"/>
     <use xlink:href="#m2b6a56e37d" x="334.718806" y="464.969017" style="fill: #1f77b4; stroke: #1f77b4"/>
     <use xlink:href="#m2b6a56e37d" x="349.704006" y="471.796329" style="fill: #1f77b4; stroke: #1f77b4"/>
     <use xlink:href="#m2b6a56e37d" x="379.674406" y="476.354832" style="fill: #1f77b4; stroke: #1f77b4"/>
     <use xlink:href="#m2b6a56e37d" x="394.659605" y="506.332202" style="fill: #1f77b4; stroke: #1f77b4"/>
     <use xlink:href="#m2b6a56e37d" x="409.644805" y="475.265762" style="fill: #1f77b4; stroke: #1f77b4"/>
     <use xlink:href="#m2b6a56e37d" x="424.630005" y="477.300369" style="fill: #1f77b4; stroke: #1f77b4"/>
     <use xlink:href="#m2b6a56e37d" x="439.615205" y="498.001199" style="fill: #1f77b4; stroke: #1f77b4"/>
     <use xlink:href="#m2b6a56e37d" x="454.600405" y="477.50614" style="fill: #1f77b4; stroke: #1f77b4"/>
     <use xlink:href="#m2b6a56e37d" x="469.585604" y="468.627056" style="fill: #1f77b4; stroke: #1f77b4"/>
     <use xlink:href="#m2b6a56e37d" x="484.570804" y="464.375324" style="fill: #1f77b4; stroke: #1f77b4"/>
     <use xlink:href="#m2b6a56e37d" x="499.556004" y="464.45813" style="fill: #1f77b4; stroke: #1f77b4"/>
     <use xlink:href="#m2b6a56e37d" x="514.541204" y="466.378728" style="fill: #1f77b4; stroke: #1f77b4"/>
     <use xlink:href="#m2b6a56e37d" x="529.526404" y="479.855948" style="fill: #1f77b4; stroke: #1f77b4"/>
     <use xlink:href="#m2b6a56e37d" x="559.496803" y="432.225189" style="fill: #1f77b4; stroke: #1f77b4"/>
     <use xlink:href="#m2b6a56e37d" x="574.482003" y="436.569711" style="fill: #1f77b4; stroke: #1f77b4"/>
    </g>
   </g>
   <g id="line2d_21">
    <path d="M 109.94081 129.499033 
L 124.926009 115.715342 
L 154.896409 232.281361 
L 169.881609 73.042965 
L 184.866809 243.223919 
L 199.852008 240.842228 
L 214.837208 220.55063 
L 229.822408 252.071975 
L 244.807608 90.333537 
L 259.792807 138.108523 
L 289.763207 61.173861 
L 304.748407 69.185244 
L 319.733607 244.147019 
L 334.718806 191.102125 
L 349.704006 244.555671 
L 379.674406 231.455073 
L 394.659605 228.819794 
L 409.644805 235.807657 
L 424.630005 234.654949 
L 439.615205 227.548291 
L 454.600405 226.177021 
L 469.585604 238.424458 
L 484.570804 190.765247 
L 499.556004 119.777751 
L 514.541204 196.52382 
L 529.526404 245.925537 
L 559.496803 80.767604 
L 574.482003 159.051595 
" clip-path="url(#p0ee3213ba9)" style="fill: none; stroke: #ff7f0e; stroke-width: 2; stroke-linecap: square"/>
    <defs>
     <path id="m8533e95571" d="M 0 3 
C 0.795609 3 1.55874 2.683901 2.12132 2.12132 
C 2.683901 1.55874 3 0.795609 3 0 
C 3 -0.795609 2.683901 -1.55874 2.12132 -2.12132 
C 1.55874 -2.683901 0.795609 -3 0 -3 
C -0.795609 -3 -1.55874 -2.683901 -2.12132 -2.12132 
C -2.683901 -1.55874 -3 -0.795609 -3 0 
C -3 0.795609 -2.683901 1.55874 -2.12132 2.12132 
C -1.55874 2.683901 -0.795609 3 0 3 
z
" style="stroke: #ff7f0e"/>
    </defs>
    <g clip-path="url(#p0ee3213ba9)">
     <use xlink:href="#m8533e95571" x="109.94081" y="129.499033" style="fill: #ff7f0e; stroke: #ff7f0e"/>
     <use xlink:href="#m8533e95571" x="124.926009" y="115.715342" style="fill: #ff7f0e; stroke: #ff7f0e"/>
     <use xlink:href="#m8533e95571" x="154.896409" y="232.281361" style="fill: #ff7f0e; stroke: #ff7f0e"/>
     <use xlink:href="#m8533e95571" x="169.881609" y="73.042965" style="fill: #ff7f0e; stroke: #ff7f0e"/>
     <use xlink:href="#m8533e95571" x="184.866809" y="243.223919" style="fill: #ff7f0e; stroke: #ff7f0e"/>
     <use xlink:href="#m8533e95571" x="199.852008" y="240.842228" style="fill: #ff7f0e; stroke: #ff7f0e"/>
     <use xlink:href="#m8533e95571" x="214.837208" y="220.55063" style="fill: #ff7f0e; stroke: #ff7f0e"/>
     <use xlink:href="#m8533e95571" x="229.822408" y="252.071975" style="fill: #ff7f0e; stroke: #ff7f0e"/>
     <use xlink:href="#m8533e95571" x="244.807608" y="90.333537" style="fill: #ff7f0e; stroke: #ff7f0e"/>
     <use xlink:href="#m8533e95571" x="259.792807" y="138.108523" style="fill: #ff7f0e; stroke: #ff7f0e"/>
     <use xlink:href="#m8533e95571" x="289.763207" y="61.173861" style="fill: #ff7f0e; stroke: #ff7f0e"/>
     <use xlink:href="#m8533e95571" x="304.748407" y="69.185244" style="fill: #ff7f0e; stroke: #ff7f0e"/>
     <use xlink:href="#m8533e95571" x="319.733607" y="244.147019" style="fill: #ff7f0e; stroke: #ff7f0e"/>
     <use xlink:href="#m8533e95571" x="334.718806" y="191.102125" style="fill: #ff7f0e; stroke: #ff7f0e"/>
     <use xlink:href="#m8533e95571" x="349.704006" y="244.555671" style="fill: #ff7f0e; stroke: #ff7f0e"/>
     <use xlink:href="#m8533e95571" x="379.674406" y="231.455073" style="fill: #ff7f0e; stroke: #ff7f0e"/>
     <use xlink:href="#m8533e95571" x="394.659605" y="228.819794" style="fill: #ff7f0e; stroke: #ff7f0e"/>
     <use xlink:href="#m8533e95571" x="409.644805" y="235.807657" style="fill: #ff7f0e; stroke: #ff7f0e"/>
     <use xlink:href="#m8533e95571" x="424.630005" y="234.654949" style="fill: #ff7f0e; stroke: #ff7f0e"/>
     <use xlink:href="#m8533e95571" x="439.615205" y="227.548291" style="fill: #ff7f0e; stroke: #ff7f0e"/>
     <use xlink:href="#m8533e95571" x="454.600405" y="226.177021" style="fill: #ff7f0e; stroke: #ff7f0e"/>
     <use xlink:href="#m8533e95571" x="469.585604" y="238.424458" style="fill: #ff7f0e; stroke: #ff7f0e"/>
     <use xlink:href="#m8533e95571" x="484.570804" y="190.765247" style="fill: #ff7f0e; stroke: #ff7f0e"/>
     <use xlink:href="#m8533e95571" x="499.556004" y="119.777751" style="fill: #ff7f0e; stroke: #ff7f0e"/>
     <use xlink:href="#m8533e95571" x="514.541204" y="196.52382" style="fill: #ff7f0e; stroke: #ff7f0e"/>
     <use xlink:href="#m8533e95571" x="529.526404" y="245.925537" style="fill: #ff7f0e; stroke: #ff7f0e"/>
     <use xlink:href="#m8533e95571" x="559.496803" y="80.767604" style="fill: #ff7f0e; stroke: #ff7f0e"/>
     <use xlink:href="#m8533e95571" x="574.482003" y="159.051595" style="fill: #ff7f0e; stroke: #ff7f0e"/>
    </g>
   </g>
   <g id="line2d_22">
    <path d="M 109.94081 463.426323 
L 124.926009 477.351561 
L 154.896409 495.343548 
L 169.881609 453.75986 
L 184.866809 494.223277 
L 199.852008 497.38685 
L 214.837208 475.6507 
L 229.822408 468.923154 
L 244.807608 474.307184 
L 259.792807 473.006334 
L 289.763207 498.360072 
L 304.748407 477.697356 
L 319.733607 468.612 
L 349.704006 468.456925 
L 394.659605 477.074022 
L 409.644805 476.881803 
L 424.630005 442.300801 
L 439.615205 470.171287 
L 454.600405 484.841206 
L 469.585604 485.284881 
L 484.570804 476.013556 
L 499.556004 474.051731 
L 514.541204 456.801479 
L 529.526404 499.020098 
L 559.496803 478.156576 
L 574.482003 427.959522 
" clip-path="url(#p0ee3213ba9)" style="fill: none; stroke: #2ca02c; stroke-width: 2; stroke-linecap: square"/>
    <defs>
     <path id="m7ca7ac85b0" d="M 0 3 
C 0.795609 3 1.55874 2.683901 2.12132 2.12132 
C 2.683901 1.55874 3 0.795609 3 0 
C 3 -0.795609 2.683901 -1.55874 2.12132 -2.12132 
C 1.55874 -2.683901 0.795609 -3 0 -3 
C -0.795609 -3 -1.55874 -2.683901 -2.12132 -2.12132 
C -2.683901 -1.55874 -3 -0.795609 -3 0 
C -3 0.795609 -2.683901 1.55874 -2.12132 2.12132 
C -1.55874 2.683901 -0.795609 3 0 3 
z
" style="stroke: #2ca02c"/>
    </defs>
    <g clip-path="url(#p0ee3213ba9)">
     <use xlink:href="#m7ca7ac85b0" x="109.94081" y="463.426323" style="fill: #2ca02c; stroke: #2ca02c"/>
     <use xlink:href="#m7ca7ac85b0" x="124.926009" y="477.351561" style="fill: #2ca02c; stroke: #2ca02c"/>
     <use xlink:href="#m7ca7ac85b0" x="154.896409" y="495.343548" style="fill: #2ca02c; stroke: #2ca02c"/>
     <use xlink:href="#m7ca7ac85b0" x="169.881609" y="453.75986" style="fill: #2ca02c; stroke: #2ca02c"/>
     <use xlink:href="#m7ca7ac85b0" x="184.866809" y="494.223277" style="fill: #2ca02c; stroke: #2ca02c"/>
     <use xlink:href="#m7ca7ac85b0" x="199.852008" y="497.38685" style="fill: #2ca02c; stroke: #2ca02c"/>
     <use xlink:href="#m7ca7ac85b0" x="214.837208" y="475.6507" style="fill: #2ca02c; stroke: #2ca02c"/>
     <use xlink:href="#m7ca7ac85b0" x="229.822408" y="468.923154" style="fill: #2ca02c; stroke: #2ca02c"/>
     <use xlink:href="#m7ca7ac85b0" x="244.807608" y="474.307184" style="fill: #2ca02c; stroke: #2ca02c"/>
     <use xlink:href="#m7ca7ac85b0" x="259.792807" y="473.006334" style="fill: #2ca02c; stroke: #2ca02c"/>
     <use xlink:href="#m7ca7ac85b0" x="289.763207" y="498.360072" style="fill: #2ca02c; stroke: #2ca02c"/>
     <use xlink:href="#m7ca7ac85b0" x="304.748407" y="477.697356" style="fill: #2ca02c; stroke: #2ca02c"/>
     <use xlink:href="#m7ca7ac85b0" x="319.733607" y="468.612" style="fill: #2ca02c; stroke: #2ca02c"/>
     <use xlink:href="#m7ca7ac85b0" x="349.704006" y="468.456925" style="fill: #2ca02c; stroke: #2ca02c"/>
     <use xlink:href="#m7ca7ac85b0" x="394.659605" y="477.074022" style="fill: #2ca02c; stroke: #2ca02c"/>
     <use xlink:href="#m7ca7ac85b0" x="409.644805" y="476.881803" style="fill: #2ca02c; stroke: #2ca02c"/>
     <use xlink:href="#m7ca7ac85b0" x="424.630005" y="442.300801" style="fill: #2ca02c; stroke: #2ca02c"/>
     <use xlink:href="#m7ca7ac85b0" x="439.615205" y="470.171287" style="fill: #2ca02c; stroke: #2ca02c"/>
     <use xlink:href="#m7ca7ac85b0" x="454.600405" y="484.841206" style="fill: #2ca02c; stroke: #2ca02c"/>
     <use xlink:href="#m7ca7ac85b0" x="469.585604" y="485.284881" style="fill: #2ca02c; stroke: #2ca02c"/>
     <use xlink:href="#m7ca7ac85b0" x="484.570804" y="476.013556" style="fill: #2ca02c; stroke: #2ca02c"/>
     <use xlink:href="#m7ca7ac85b0" x="499.556004" y="474.051731" style="fill: #2ca02c; stroke: #2ca02c"/>
     <use xlink:href="#m7ca7ac85b0" x="514.541204" y="456.801479" style="fill: #2ca02c; stroke: #2ca02c"/>
     <use xlink:href="#m7ca7ac85b0" x="529.526404" y="499.020098" style="fill: #2ca02c; stroke: #2ca02c"/>
     <use xlink:href="#m7ca7ac85b0" x="559.496803" y="478.156576" style="fill: #2ca02c; stroke: #2ca02c"/>
     <use xlink:href="#m7ca7ac85b0" x="574.482003" y="427.959522" style="fill: #2ca02c; stroke: #2ca02c"/>
    </g>
   </g>
   <g id="line2d_23">
    <path d="M 109.94081 157.701751 
L 124.926009 247.430292 
L 154.896409 244.334547 
L 169.881609 213.448883 
L 184.866809 239.366092 
L 199.852008 237.434192 
L 214.837208 218.08693 
L 229.822408 230.86093 
L 244.807608 247.784295 
L 259.792807 234.366147 
L 289.763207 216.488597 
L 304.748407 233.07456 
L 319.733607 229.441509 
L 349.704006 240.488235 
L 394.659605 237.855869 
L 409.644805 243.159237 
L 424.630005 46.813736 
L 439.615205 237.377032 
L 454.600405 249.588411 
L 469.585604 236.981428 
L 484.570804 208.462489 
L 499.556004 229.054441 
L 514.541204 158.873654 
L 529.526404 213.927674 
L 559.496803 169.626545 
L 574.482003 79.366568 
" clip-path="url(#p0ee3213ba9)" style="fill: none; stroke: #d62728; stroke-width: 2; stroke-linecap: square"/>
    <defs>
     <path id="ma11bb5c308" d="M 0 3 
C 0.795609 3 1.55874 2.683901 2.12132 2.12132 
C 2.683901 1.55874 3 0.795609 3 0 
C 3 -0.795609 2.683901 -1.55874 2.12132 -2.12132 
C 1.55874 -2.683901 0.795609 -3 0 -3 
C -0.795609 -3 -1.55874 -2.683901 -2.12132 -2.12132 
C -2.683901 -1.55874 -3 -0.795609 -3 0 
C -3 0.795609 -2.683901 1.55874 -2.12132 2.12132 
C -1.55874 2.683901 -0.795609 3 0 3 
z
" style="stroke: #d62728"/>
    </defs>
    <g clip-path="url(#p0ee3213ba9)">
     <use xlink:href="#ma11bb5c308" x="109.94081" y="157.701751" style="fill: #d62728; stroke: #d62728"/>
     <use xlink:href="#ma11bb5c308" x="124.926009" y="247.430292" style="fill: #d62728; stroke: #d62728"/>
     <use xlink:href="#ma11bb5c308" x="154.896409" y="244.334547" style="fill: #d62728; stroke: #d62728"/>
     <use xlink:href="#ma11bb5c308" x="169.881609" y="213.448883" style="fill: #d62728; stroke: #d62728"/>
     <use xlink:href="#ma11bb5c308" x="184.866809" y="239.366092" style="fill: #d62728; stroke: #d62728"/>
     <use xlink:href="#ma11bb5c308" x="199.852008" y="237.434192" style="fill: #d62728; stroke: #d62728"/>
     <use xlink:href="#ma11bb5c308" x="214.837208" y="218.08693" style="fill: #d62728; stroke: #d62728"/>
     <use xlink:href="#ma11bb5c308" x="229.822408" y="230.86093" style="fill: #d62728; stroke: #d62728"/>
     <use xlink:href="#ma11bb5c308" x="244.807608" y="247.784295" style="fill: #d62728; stroke: #d62728"/>
     <use xlink:href="#ma11bb5c308" x="259.792807" y="234.366147" style="fill: #d62728; stroke: #d62728"/>
     <use xlink:href="#ma11bb5c308" x="289.763207" y="216.488597" style="fill: #d62728; stroke: #d62728"/>
     <use xlink:href="#ma11bb5c308" x="304.748407" y="233.07456" style="fill: #d62728; stroke: #d62728"/>
     <use xlink:href="#ma11bb5c308" x="319.733607" y="229.441509" style="fill: #d62728; stroke: #d62728"/>
     <use xlink:href="#ma11bb5c308" x="349.704006" y="240.488235" style="fill: #d62728; stroke: #d62728"/>
     <use xlink:href="#ma11bb5c308" x="394.659605" y="237.855869" style="fill: #d62728; stroke: #d62728"/>
     <use xlink:href="#ma11bb5c308" x="409.644805" y="243.159237" style="fill: #d62728; stroke: #d62728"/>
     <use xlink:href="#ma11bb5c308" x="424.630005" y="46.813736" style="fill: #d62728; stroke: #d62728"/>
     <use xlink:href="#ma11bb5c308" x="439.615205" y="237.377032" style="fill: #d62728; stroke: #d62728"/>
     <use xlink:href="#ma11bb5c308" x="454.600405" y="249.588411" style="fill: #d62728; stroke: #d62728"/>
     <use xlink:href="#ma11bb5c308" x="469.585604" y="236.981428" style="fill: #d62728; stroke: #d62728"/>
     <use xlink:href="#ma11bb5c308" x="484.570804" y="208.462489" style="fill: #d62728; stroke: #d62728"/>
     <use xlink:href="#ma11bb5c308" x="499.556004" y="229.054441" style="fill: #d62728; stroke: #d62728"/>
     <use xlink:href="#ma11bb5c308" x="514.541204" y="158.873654" style="fill: #d62728; stroke: #d62728"/>
     <use xlink:href="#ma11bb5c308" x="529.526404" y="213.927674" style="fill: #d62728; stroke: #d62728"/>
     <use xlink:href="#ma11bb5c308" x="559.496803" y="169.626545" style="fill: #d62728; stroke: #d62728"/>
     <use xlink:href="#ma11bb5c308" x="574.482003" y="79.366568" style="fill: #d62728; stroke: #d62728"/>
    </g>
   </g>
   <g id="patch_3">
    <path d="M 86.71375 529.308125 
L 86.71375 23.837812 
" style="fill: none; stroke: #000000; stroke-width: 0.8; stroke-linejoin: miter; stroke-linecap: square"/>
   </g>
   <g id="patch_4">
    <path d="M 597.709062 529.308125 
L 597.709062 23.837812 
" style="fill: none; stroke: #000000; stroke-width: 0.8; stroke-linejoin: miter; stroke-linecap: square"/>
   </g>
   <g id="patch_5">
    <path d="M 86.71375 529.308125 
L 597.709063 529.308125 
" style="fill: none; stroke: #000000; stroke-width: 0.8; stroke-linejoin: miter; stroke-linecap: square"/>
   </g>
   <g id="patch_6">
    <path d="M 86.71375 23.837812 
L 597.709063 23.837812 
" style="fill: none; stroke: #000000; stroke-width: 0.8; stroke-linejoin: miter; stroke-linecap: square"/>
   </g>
   <g id="text_15">
    <text style="font: 700 14px 'DejaVu Sans', 'Bitstream Vera Sans', 'Computer Modern Sans Serif', 'Lucida Grande', 'Verdana', 'Geneva', 'Lucid', 'Arial', 'Helvetica', 'Avant Garde', sans-serif; text-anchor: middle" x="342.211406" y="17.837813" transform="rotate(-0 342.211406 17.837813)">Coroutine Suspension - Performance Trend</text>
   </g>
   <g id="legend_1">
    <g id="patch_7">
     <path d="M 630.258828 91.662813 
L 839.669766 91.662813 
Q 841.669766 91.662813 841.669766 89.662813 
L 841.669766 30.837813 
Q 841.669766 28.837813 839.669766 28.837813 
L 630.258828 28.837813 
Q 628.258828 28.837813 628.258828 30.837813 
L 628.258828 89.662813 
Q 628.258828 91.662813 630.258828 91.662813 
z
" style="fill: #ffffff; opacity: 0.8; stroke: #cccccc; stroke-linejoin: miter"/>
    </g>
    <g id="line2d_24">
     <path d="M 632.258828 36.93625 
L 642.258828 36.93625 
L 652.258828 36.93625 
" style="fill: none; stroke: #1f77b4; stroke-width: 2; stroke-linecap: square"/>
     <g>
      <use xlink:href="#m2b6a56e37d" x="642.258828" y="36.93625" style="fill: #1f77b4; stroke: #1f77b4"/>
     </g>
    </g>
    <g id="text_16">
     <text style="font: 10px 'DejaVu Sans', 'Bitstream Vera Sans', 'Computer Modern Sans Serif', 'Lucida Grande', 'Verdana', 'Geneva', 'Lucid', 'Arial', 'Helvetica', 'Avant Garde', sans-serif; text-anchor: start" x="660.258828" y="40.43625" transform="rotate(-0 660.258828 40.43625)">gcc-14.2 - SuspensionOverhead_V1</text>
    </g>
    <g id="line2d_25">
     <path d="M 632.258828 51.8925 
L 642.258828 51.8925 
L 652.258828 51.8925 
" style="fill: none; stroke: #ff7f0e; stroke-width: 2; stroke-linecap: square"/>
     <g>
      <use xlink:href="#m8533e95571" x="642.258828" y="51.8925" style="fill: #ff7f0e; stroke: #ff7f0e"/>
     </g>
    </g>
    <g id="text_17">
     <text style="font: 10px 'DejaVu Sans', 'Bitstream Vera Sans', 'Computer Modern Sans Serif', 'Lucida Grande', 'Verdana', 'Geneva', 'Lucid', 'Arial', 'Helvetica', 'Avant Garde', sans-serif; text-anchor: start" x="660.258828" y="55.3925" transform="rotate(-0 660.258828 55.3925)">gcc-14.2 - SuspensionOverhead_V2</text>
    </g>
    <g id="line2d_26">
     <path d="M 632.258828 66.84875 
L 642.258828 66.84875 
L 652.258828 66.84875 
" style="fill: none; stroke: #2ca02c; stroke-width: 2; stroke-linecap: square"/>
     <g>
      <use xlink:href="#m7ca7ac85b0" x="642.258828" y="66.84875" style="fill: #2ca02c; stroke: #2ca02c"/>
     </g>
    </g>
    <g id="text_18">
     <text style="font: 10px 'DejaVu Sans', 'Bitstream Vera Sans', 'Computer Modern Sans Serif', 'Lucida Grande', 'Verdana', 'Geneva', 'Lucid', 'Arial', 'Helvetica', 'Avant Garde', sans-serif; text-anchor: start" x="660.258828" y="70.34875" transform="rotate(-0 660.258828 70.34875)">gcc-4.2 - SuspensionOverhead_V1</text>
    </g>
    <g id="line2d_27">
     <path d="M 632.258828 81.805 
L 642.258828 81.805 
L 652.258828 81.805 
" style="fill: none; stroke: #d62728; stroke-width: 2; stroke-linecap: square"/>
     <g>
      <use xlink:href="#ma11bb5c308" x="642.258828" y="81.805" style="fill: #d62728; stroke: #d62728"/>
     </g>
    </g>
    <g id="text_19">
     <text style="font: 10px 'DejaVu Sans', 'Bitstream Vera Sans', 'Computer Modern Sans Serif', 'Lucida Grande', 'Verdana', 'Geneva', 'Lucid', 'Arial', 'Helvetica', 'Avant Garde', sans-serif; text-anchor: start" x="660.258828" y="85.305" transform="rotate(-0 660.258828 85.305)">gcc-4.2 - SuspensionOverhead_V2</text>
    </g>
   </g>
  </g>
 </g>
 <defs>
  <clipPath id="p0ee3213ba9">
   <rect x="86.71375" y="23.837813" width="510.995312" height="505.470313"/>
  </clipPath>
 </defs>
</svg>
