<?xml version="1.0" encoding="utf-8" standalone="no"?>
<!DOCTYPE svg PUBLIC "-//W3C//DTD SVG 1.1//EN"
  "http://www.w3.org/Graphics/SVG/1.1/DTD/svg11.dtd">
<svg xmlns:xlink="http://www.w3.org/1999/xlink" width="855.204687pt" height="568.8pt" viewBox="0 0 855.204687 568.8" xmlns="http://www.w3.org/2000/svg" version="1.1">
 <metadata>
  <rdf:RDF xmlns:dc="http://purl.org/dc/elements/1.1/" xmlns:cc="http://creativecommons.org/ns#" xmlns:rdf="http://www.w3.org/1999/02/22-rdf-syntax-ns#">
   <cc:Work>
    <dc:type rdf:resource="http://purl.org/dc/dcmitype/StillImage"/>
    <dc:date>2025-08-14T23:11:18.816801</dc:date>
    <dc:format>image/svg+xml</dc:format>
    <dc:creator>
     <cc:Agent>
      <dc:title>Matplotlib v3.9.4, https://matplotlib.org/</dc:title>
     </cc:Agent>
    </dc:creator>
   </cc:Work>
  </rdf:RDF>
 </metadata>
 <defs>
  <style type="text/css">*{stroke-linejoin: round; stroke-linecap: butt}</style>
 </defs>
 <g id="figure_1">
  <g id="patch_1">
   <path d="M 0 568.8 
L 855.204687 568.8 
L 855.204687 0 
L 0 0 
z
" style="fill: #ffffff"/>
  </g>
  <g id="axes_1">
   <g id="patch_2">
    <path d="M 64.41375 529.308125 
L 702.1075 529.308125 
L 702.1075 23.837812 
L 64.41375 23.837812 
z
" style="fill: #ffffff"/>
   </g>
   <g id="matplotlib.axis_1">
    <g id="xtick_1">
     <g id="line2d_1">
      <path d="M 64.41375 529.308125 
L 64.41375 23.837812 
" clip-path="url(#p8d27dab2d3)" style="fill: none; stroke: #b0b0b0; stroke-opacity: 0.3; stroke-width: 0.8; stroke-linecap: square"/>
     </g>
     <g id="line2d_2">
      <defs>
       <path id="mffc9474ef6" d="M 0 0 
L 0 3.5 
" style="stroke: #000000; stroke-width: 0.8"/>
      </defs>
      <g>
       <use xlink:href="#mffc9474ef6" x="64.41375" y="529.308125" style="stroke: #000000; stroke-width: 0.8"/>
      </g>
     </g>
     <g id="text_1">
      <text style="font: 10px 'DejaVu Sans', 'Bitstream Vera Sans', 'Computer Modern Sans Serif', 'Lucida Grande', 'Verdana', 'Geneva', 'Lucid', 'Arial', 'Helvetica', 'Avant Garde', sans-serif; text-anchor: middle" x="64.41375" y="543.906563" transform="rotate(-0 64.41375 543.906563)">70.0</text>
     </g>
    </g>
    <g id="xtick_2">
     <g id="line2d_3">
      <path d="M 136.878949 529.308125 
L 136.878949 23.837812 
" clip-path="url(#p8d27dab2d3)" style="fill: none; stroke: #b0b0b0; stroke-opacity: 0.3; stroke-width: 0.8; stroke-linecap: square"/>
     </g>
     <g id="line2d_4">
      <g>
       <use xlink:href="#mffc9474ef6" x="136.878949" y="529.308125" style="stroke: #000000; stroke-width: 0.8"/>
      </g>
     </g>
     <g id="text_2">
      <text style="font: 10px 'DejaVu Sans', 'Bitstream Vera Sans', 'Computer Modern Sans Serif', 'Lucida Grande', 'Verdana', 'Geneva', 'Lucid', 'Arial', 'Helvetica', 'Avant Garde', sans-serif; text-anchor: middle" x="136.878949" y="543.906563" transform="rotate(-0 136.878949 543.906563)">72.5</text>
     </g>
    </g>
    <g id="xtick_3">
     <g id="line2d_5">
      <path d="M 209.344148 529.308125 
L 209.344148 23.837812 
" clip-path="url(#p8d27dab2d3)" style="fill: none; stroke: #b0b0b0; stroke-opacity: 0.3; stroke-width: 0.8; stroke-linecap: square"/>
     </g>
     <g id="line2d_6">
      <g>
       <use xlink:href="#mffc9474ef6" x="209.344148" y="529.308125" style="stroke: #000000; stroke-width: 0.8"/>
      </g>
     </g>
     <g id="text_3">
      <text style="font: 10px 'DejaVu Sans', 'Bitstream Vera Sans', 'Computer Modern Sans Serif', 'Lucida Grande', 'Verdana', 'Geneva', 'Lucid', 'Arial', 'Helvetica', 'Avant Garde', sans-serif; text-anchor: middle" x="209.344148" y="543.906563" transform="rotate(-0 209.344148 543.906563)">75.0</text>
     </g>
    </g>
    <g id="xtick_4">
     <g id="line2d_7">
      <path d="M 281.809347 529.308125 
L 281.809347 23.837812 
" clip-path="url(#p8d27dab2d3)" style="fill: none; stroke: #b0b0b0; stroke-opacity: 0.3; stroke-width: 0.8; stroke-linecap: square"/>
     </g>
     <g id="line2d_8">
      <g>
       <use xlink:href="#mffc9474ef6" x="281.809347" y="529.308125" style="stroke: #000000; stroke-width: 0.8"/>
      </g>
     </g>
     <g id="text_4">
      <text style="font: 10px 'DejaVu Sans', 'Bitstream Vera Sans', 'Computer Modern Sans Serif', 'Lucida Grande', 'Verdana', 'Geneva', 'Lucid', 'Arial', 'Helvetica', 'Avant Garde', sans-serif; text-anchor: middle" x="281.809347" y="543.906563" transform="rotate(-0 281.809347 543.906563)">77.5</text>
     </g>
    </g>
    <g id="xtick_5">
     <g id="line2d_9">
      <path d="M 354.274545 529.308125 
L 354.274545 23.837812 
" clip-path="url(#p8d27dab2d3)" style="fill: none; stroke: #b0b0b0; stroke-opacity: 0.3; stroke-width: 0.8; stroke-linecap: square"/>
     </g>
     <g id="line2d_10">
      <g>
       <use xlink:href="#mffc9474ef6" x="354.274545" y="529.308125" style="stroke: #000000; stroke-width: 0.8"/>
      </g>
     </g>
     <g id="text_5">
      <text style="font: 10px 'DejaVu Sans', 'Bitstream Vera Sans', 'Computer Modern Sans Serif', 'Lucida Grande', 'Verdana', 'Geneva', 'Lucid', 'Arial', 'Helvetica', 'Avant Garde', sans-serif; text-anchor: middle" x="354.274545" y="543.906563" transform="rotate(-0 354.274545 543.906563)">80.0</text>
     </g>
    </g>
    <g id="xtick_6">
     <g id="line2d_11">
      <path d="M 426.739744 529.308125 
L 426.739744 23.837812 
" clip-path="url(#p8d27dab2d3)" style="fill: none; stroke: #b0b0b0; stroke-opacity: 0.3; stroke-width: 0.8; stroke-linecap: square"/>
     </g>
     <g id="line2d_12">
      <g>
       <use xlink:href="#mffc9474ef6" x="426.739744" y="529.308125" style="stroke: #000000; stroke-width: 0.8"/>
      </g>
     </g>
     <g id="text_6">
      <text style="font: 10px 'DejaVu Sans', 'Bitstream Vera Sans', 'Computer Modern Sans Serif', 'Lucida Grande', 'Verdana', 'Geneva', 'Lucid', 'Arial', 'Helvetica', 'Avant Garde', sans-serif; text-anchor: middle" x="426.739744" y="543.906563" transform="rotate(-0 426.739744 543.906563)">82.5</text>
     </g>
    </g>
    <g id="xtick_7">
     <g id="line2d_13">
      <path d="M 499.204943 529.308125 
L 499.204943 23.837812 
" clip-path="url(#p8d27dab2d3)" style="fill: none; stroke: #b0b0b0; stroke-opacity: 0.3; stroke-width: 0.8; stroke-linecap: square"/>
     </g>
     <g id="line2d_14">
      <g>
       <use xlink:href="#mffc9474ef6" x="499.204943" y="529.308125" style="stroke: #000000; stroke-width: 0.8"/>
      </g>
     </g>
     <g id="text_7">
      <text style="font: 10px 'DejaVu Sans', 'Bitstream Vera Sans', 'Computer Modern Sans Serif', 'Lucida Grande', 'Verdana', 'Geneva', 'Lucid', 'Arial', 'Helvetica', 'Avant Garde', sans-serif; text-anchor: middle" x="499.204943" y="543.906563" transform="rotate(-0 499.204943 543.906563)">85.0</text>
     </g>
    </g>
    <g id="xtick_8">
     <g id="line2d_15">
      <path d="M 571.670142 529.308125 
L 571.670142 23.837812 
" clip-path="url(#p8d27dab2d3)" style="fill: none; stroke: #b0b0b0; stroke-opacity: 0.3; stroke-width: 0.8; stroke-linecap: square"/>
     </g>
     <g id="line2d_16">
      <g>
       <use xlink:href="#mffc9474ef6" x="571.670142" y="529.308125" style="stroke: #000000; stroke-width: 0.8"/>
      </g>
     </g>
     <g id="text_8">
      <text style="font: 10px 'DejaVu Sans', 'Bitstream Vera Sans', 'Computer Modern Sans Serif', 'Lucida Grande', 'Verdana', 'Geneva', 'Lucid', 'Arial', 'Helvetica', 'Avant Garde', sans-serif; text-anchor: middle" x="571.670142" y="543.906563" transform="rotate(-0 571.670142 543.906563)">87.5</text>
     </g>
    </g>
    <g id="xtick_9">
     <g id="line2d_17">
      <path d="M 644.135341 529.308125 
L 644.135341 23.837812 
" clip-path="url(#p8d27dab2d3)" style="fill: none; stroke: #b0b0b0; stroke-opacity: 0.3; stroke-width: 0.8; stroke-linecap: square"/>
     </g>
     <g id="line2d_18">
      <g>
       <use xlink:href="#mffc9474ef6" x="644.135341" y="529.308125" style="stroke: #000000; stroke-width: 0.8"/>
      </g>
     </g>
     <g id="text_9">
      <text style="font: 10px 'DejaVu Sans', 'Bitstream Vera Sans', 'Computer Modern Sans Serif', 'Lucida Grande', 'Verdana', 'Geneva', 'Lucid', 'Arial', 'Helvetica', 'Avant Garde', sans-serif; text-anchor: middle" x="644.135341" y="543.906563" transform="rotate(-0 644.135341 543.906563)">90.0</text>
     </g>
    </g>
    <g id="text_10">
     <text style="font: 12px 'DejaVu Sans', 'Bitstream Vera Sans', 'Computer Modern Sans Serif', 'Lucida Grande', 'Verdana', 'Geneva', 'Lucid', 'Arial', 'Helvetica', 'Avant Garde', sans-serif; text-anchor: middle" x="383.260625" y="559.104375" transform="rotate(-0 383.260625 559.104375)">Build Number</text>
    </g>
   </g>
   <g id="matplotlib.axis_2">
    <g id="ytick_1">
     <g id="line2d_19">
      <path d="M 64.41375 453.786204 
L 702.1075 453.786204 
" clip-path="url(#p8d27dab2d3)" style="fill: none; stroke: #b0b0b0; stroke-opacity: 0.3; stroke-width: 0.8; stroke-linecap: square"/>
     </g>
     <g id="line2d_20">
      <defs>
       <path id="mabb3a7483c" d="M 0 0 
L -3.5 0 
" style="stroke: #000000; stroke-width: 0.8"/>
      </defs>
      <g>
       <use xlink:href="#mabb3a7483c" x="64.41375" y="453.786204" style="stroke: #000000; stroke-width: 0.8"/>
      </g>
     </g>
     <g id="text_11">
      <!-- $\mathdefault{10^{5}}$ -->
      <g transform="translate(39.81375 457.585423)">
       <text>
        <tspan style="font: 10px 'DejaVu Sans'" x="0 6.362305" y="-0.06406250000000036">10</tspan>
        <tspan style="font: 7px 'DejaVu Sans'" x="12.820312" y="-3.8921875000000004">5</tspan>
       </text>
      </g>
     </g>
    </g>
    <g id="ytick_2">
     <g id="line2d_21">
      <defs>
       <path id="mdd1ffdebcc" d="M 0 0 
L -2 0 
" style="stroke: #000000; stroke-width: 0.6"/>
      </defs>
      <g>
       <use xlink:href="#mdd1ffdebcc" x="64.41375" y="496.873642" style="stroke: #000000; stroke-width: 0.6"/>
      </g>
     </g>
    </g>
    <g id="ytick_3">
     <g id="line2d_22">
      <g>
       <use xlink:href="#mdd1ffdebcc" x="64.41375" y="170.321985" style="stroke: #000000; stroke-width: 0.6"/>
      </g>
     </g>
     <g id="text_12">
      <!-- $\mathdefault{2\times10^{5}}$ -->
      <g transform="translate(22.81375 174.121204)">
       <text>
        <tspan style="font: 10px 'DejaVu Sans'" x="0 8.310547 18.637695 25" y="-0.06406250000000036">2×10</tspan>
        <tspan style="font: 7px 'DejaVu Sans'" x="31.458008" y="-3.8921875000000004">5</tspan>
       </text>
      </g>
     </g>
    </g>
    <g id="text_13">
     <text style="font: 12px 'DejaVu Sans', 'Bitstream Vera Sans', 'Computer Modern Sans Serif', 'Lucida Grande', 'Verdana', 'Geneva', 'Lucid', 'Arial', 'Helvetica', 'Avant Garde', sans-serif; text-anchor: middle" x="16.318125" y="276.572969" transform="rotate(-90 16.318125 276.572969)">Median Elapsed Time (nanoseconds)</text>
    </g>
   </g>
   <g id="line2d_23">
    <path d="M 93.39983 358.594402 
L 122.385909 83.393181 
L 151.371989 220.76105 
L 180.358068 331.184044 
L 209.344148 228.639233 
L 238.330227 318.546856 
L 267.316307 271.249317 
L 296.302386 112.928166 
L 325.288466 300.433378 
L 354.274545 288.178339 
L 383.260625 314.544957 
L 412.246705 271.473142 
L 441.232784 355.083876 
L 470.218864 289.902078 
L 499.204943 324.935545 
L 528.191023 310.91823 
L 586.163182 46.813736 
L 615.149261 298.535776 
L 644.135341 272.004793 
L 673.12142 264.733822 
" clip-path="url(#p8d27dab2d3)" style="fill: none; stroke: #1f77b4; stroke-width: 2; stroke-linecap: square"/>
    <defs>
     <path id="m2755bd9e89" d="M 0 3 
C 0.795609 3 1.55874 2.683901 2.12132 2.12132 
C 2.683901 1.55874 3 0.795609 3 0 
C 3 -0.795609 2.683901 -1.55874 2.12132 -2.12132 
C 1.55874 -2.683901 0.795609 -3 0 -3 
C -0.795609 -3 -1.55874 -2.683901 -2.12132 -2.12132 
C -2.683901 -1.55874 -3 -0.795609 -3 0 
C -3 0.795609 -2.683901 1.55874 -2.12132 2.12132 
C -1.55874 2.683901 -0.795609 3 0 3 
z
" style="stroke: #1f77b4"/>
    </defs>
    <g clip-path="url(#p8d27dab2d3)">
     <use xlink:href="#m2755bd9e89" x="93.39983" y="358.594402" style="fill: #1f77b4; stroke: #1f77b4"/>
     <use xlink:href="#m2755bd9e89" x="122.385909" y="83.393181" style="fill: #1f77b4; stroke: #1f77b4"/>
     <use xlink:href="#m2755bd9e89" x="151.371989" y="220.76105" style="fill: #1f77b4; stroke: #1f77b4"/>
     <use xlink:href="#m2755bd9e89" x="180.358068" y="331.184044" style="fill: #1f77b4; stroke: #1f77b4"/>
     <use xlink:href="#m2755bd9e89" x="209.344148" y="228.639233" style="fill: #1f77b4; stroke: #1f77b4"/>
     <use xlink:href="#m2755bd9e89" x="238.330227" y="318.546856" style="fill: #1f77b4; stroke: #1f77b4"/>
     <use xlink:href="#m2755bd9e89" x="267.316307" y="271.249317" style="fill: #1f77b4; stroke: #1f77b4"/>
     <use xlink:href="#m2755bd9e89" x="296.302386" y="112.928166" style="fill: #1f77b4; stroke: #1f77b4"/>
     <use xlink:href="#m2755bd9e89" x="325.288466" y="300.433378" style="fill: #1f77b4; stroke: #1f77b4"/>
     <use xlink:href="#m2755bd9e89" x="354.274545" y="288.178339" style="fill: #1f77b4; stroke: #1f77b4"/>
     <use xlink:href="#m2755bd9e89" x="383.260625" y="314.544957" style="fill: #1f77b4; stroke: #1f77b4"/>
     <use xlink:href="#m2755bd9e89" x="412.246705" y="271.473142" style="fill: #1f77b4; stroke: #1f77b4"/>
     <use xlink:href="#m2755bd9e89" x="441.232784" y="355.083876" style="fill: #1f77b4; stroke: #1f77b4"/>
     <use xlink:href="#m2755bd9e89" x="470.218864" y="289.902078" style="fill: #1f77b4; stroke: #1f77b4"/>
     <use xlink:href="#m2755bd9e89" x="499.204943" y="324.935545" style="fill: #1f77b4; stroke: #1f77b4"/>
     <use xlink:href="#m2755bd9e89" x="528.191023" y="310.91823" style="fill: #1f77b4; stroke: #1f77b4"/>
     <use xlink:href="#m2755bd9e89" x="586.163182" y="46.813736" style="fill: #1f77b4; stroke: #1f77b4"/>
     <use xlink:href="#m2755bd9e89" x="615.149261" y="298.535776" style="fill: #1f77b4; stroke: #1f77b4"/>
     <use xlink:href="#m2755bd9e89" x="644.135341" y="272.004793" style="fill: #1f77b4; stroke: #1f77b4"/>
     <use xlink:href="#m2755bd9e89" x="673.12142" y="264.733822" style="fill: #1f77b4; stroke: #1f77b4"/>
    </g>
   </g>
   <g id="line2d_24">
    <path d="M 93.39983 392.679679 
L 122.385909 386.936497 
L 151.371989 398.248244 
L 180.358068 385.343502 
L 209.344148 339.569664 
L 238.330227 404.385915 
L 267.316307 381.678582 
L 296.302386 408.819049 
L 325.288466 396.668627 
L 354.274545 335.900085 
L 383.260625 374.883943 
L 412.246705 381.8178 
L 441.232784 372.43382 
L 470.218864 408.554433 
L 499.204943 391.855324 
L 528.191023 368.569402 
L 586.163182 391.970803 
L 615.149261 383.410177 
L 644.135341 355.940819 
L 673.12142 365.503518 
" clip-path="url(#p8d27dab2d3)" style="fill: none; stroke: #ff7f0e; stroke-width: 2; stroke-linecap: square"/>
    <defs>
     <path id="m824d78d5df" d="M 0 3 
C 0.795609 3 1.55874 2.683901 2.12132 2.12132 
C 2.683901 1.55874 3 0.795609 3 0 
C 3 -0.795609 2.683901 -1.55874 2.12132 -2.12132 
C 1.55874 -2.683901 0.795609 -3 0 -3 
C -0.795609 -3 -1.55874 -2.683901 -2.12132 -2.12132 
C -2.683901 -1.55874 -3 -0.795609 -3 0 
C -3 0.795609 -2.683901 1.55874 -2.12132 2.12132 
C -1.55874 2.683901 -0.795609 3 0 3 
z
" style="stroke: #ff7f0e"/>
    </defs>
    <g clip-path="url(#p8d27dab2d3)">
     <use xlink:href="#m824d78d5df" x="93.39983" y="392.679679" style="fill: #ff7f0e; stroke: #ff7f0e"/>
     <use xlink:href="#m824d78d5df" x="122.385909" y="386.936497" style="fill: #ff7f0e; stroke: #ff7f0e"/>
     <use xlink:href="#m824d78d5df" x="151.371989" y="398.248244" style="fill: #ff7f0e; stroke: #ff7f0e"/>
     <use xlink:href="#m824d78d5df" x="180.358068" y="385.343502" style="fill: #ff7f0e; stroke: #ff7f0e"/>
     <use xlink:href="#m824d78d5df" x="209.344148" y="339.569664" style="fill: #ff7f0e; stroke: #ff7f0e"/>
     <use xlink:href="#m824d78d5df" x="238.330227" y="404.385915" style="fill: #ff7f0e; stroke: #ff7f0e"/>
     <use xlink:href="#m824d78d5df" x="267.316307" y="381.678582" style="fill: #ff7f0e; stroke: #ff7f0e"/>
     <use xlink:href="#m824d78d5df" x="296.302386" y="408.819049" style="fill: #ff7f0e; stroke: #ff7f0e"/>
     <use xlink:href="#m824d78d5df" x="325.288466" y="396.668627" style="fill: #ff7f0e; stroke: #ff7f0e"/>
     <use xlink:href="#m824d78d5df" x="354.274545" y="335.900085" style="fill: #ff7f0e; stroke: #ff7f0e"/>
     <use xlink:href="#m824d78d5df" x="383.260625" y="374.883943" style="fill: #ff7f0e; stroke: #ff7f0e"/>
     <use xlink:href="#m824d78d5df" x="412.246705" y="381.8178" style="fill: #ff7f0e; stroke: #ff7f0e"/>
     <use xlink:href="#m824d78d5df" x="441.232784" y="372.43382" style="fill: #ff7f0e; stroke: #ff7f0e"/>
     <use xlink:href="#m824d78d5df" x="470.218864" y="408.554433" style="fill: #ff7f0e; stroke: #ff7f0e"/>
     <use xlink:href="#m824d78d5df" x="499.204943" y="391.855324" style="fill: #ff7f0e; stroke: #ff7f0e"/>
     <use xlink:href="#m824d78d5df" x="528.191023" y="368.569402" style="fill: #ff7f0e; stroke: #ff7f0e"/>
     <use xlink:href="#m824d78d5df" x="586.163182" y="391.970803" style="fill: #ff7f0e; stroke: #ff7f0e"/>
     <use xlink:href="#m824d78d5df" x="615.149261" y="383.410177" style="fill: #ff7f0e; stroke: #ff7f0e"/>
     <use xlink:href="#m824d78d5df" x="644.135341" y="355.940819" style="fill: #ff7f0e; stroke: #ff7f0e"/>
     <use xlink:href="#m824d78d5df" x="673.12142" y="365.503518" style="fill: #ff7f0e; stroke: #ff7f0e"/>
    </g>
   </g>
   <g id="line2d_25">
    <path d="M 93.39983 253.741696 
L 122.385909 131.132428 
L 151.371989 96.482045 
L 180.358068 81.256547 
L 209.344148 240.152215 
L 238.330227 77.046755 
L 267.316307 132.700907 
L 296.302386 86.931594 
L 325.288466 212.878131 
L 354.274545 259.677316 
L 383.260625 75.515958 
L 412.246705 128.781141 
L 441.232784 197.396234 
L 470.218864 112.022002 
L 499.204943 278.006773 
L 528.191023 84.085137 
L 586.163182 101.398895 
L 615.149261 202.032381 
L 644.135341 119.799375 
L 673.12142 215.475984 
" clip-path="url(#p8d27dab2d3)" style="fill: none; stroke: #2ca02c; stroke-width: 2; stroke-linecap: square"/>
    <defs>
     <path id="m3218fcea44" d="M 0 3 
C 0.795609 3 1.55874 2.683901 2.12132 2.12132 
C 2.683901 1.55874 3 0.795609 3 0 
C 3 -0.795609 2.683901 -1.55874 2.12132 -2.12132 
C 1.55874 -2.683901 0.795609 -3 0 -3 
C -0.795609 -3 -1.55874 -2.683901 -2.12132 -2.12132 
C -2.683901 -1.55874 -3 -0.795609 -3 0 
C -3 0.795609 -2.683901 1.55874 -2.12132 2.12132 
C -1.55874 2.683901 -0.795609 3 0 3 
z
" style="stroke: #2ca02c"/>
    </defs>
    <g clip-path="url(#p8d27dab2d3)">
     <use xlink:href="#m3218fcea44" x="93.39983" y="253.741696" style="fill: #2ca02c; stroke: #2ca02c"/>
     <use xlink:href="#m3218fcea44" x="122.385909" y="131.132428" style="fill: #2ca02c; stroke: #2ca02c"/>
     <use xlink:href="#m3218fcea44" x="151.371989" y="96.482045" style="fill: #2ca02c; stroke: #2ca02c"/>
     <use xlink:href="#m3218fcea44" x="180.358068" y="81.256547" style="fill: #2ca02c; stroke: #2ca02c"/>
     <use xlink:href="#m3218fcea44" x="209.344148" y="240.152215" style="fill: #2ca02c; stroke: #2ca02c"/>
     <use xlink:href="#m3218fcea44" x="238.330227" y="77.046755" style="fill: #2ca02c; stroke: #2ca02c"/>
     <use xlink:href="#m3218fcea44" x="267.316307" y="132.700907" style="fill: #2ca02c; stroke: #2ca02c"/>
     <use xlink:href="#m3218fcea44" x="296.302386" y="86.931594" style="fill: #2ca02c; stroke: #2ca02c"/>
     <use xlink:href="#m3218fcea44" x="325.288466" y="212.878131" style="fill: #2ca02c; stroke: #2ca02c"/>
     <use xlink:href="#m3218fcea44" x="354.274545" y="259.677316" style="fill: #2ca02c; stroke: #2ca02c"/>
     <use xlink:href="#m3218fcea44" x="383.260625" y="75.515958" style="fill: #2ca02c; stroke: #2ca02c"/>
     <use xlink:href="#m3218fcea44" x="412.246705" y="128.781141" style="fill: #2ca02c; stroke: #2ca02c"/>
     <use xlink:href="#m3218fcea44" x="441.232784" y="197.396234" style="fill: #2ca02c; stroke: #2ca02c"/>
     <use xlink:href="#m3218fcea44" x="470.218864" y="112.022002" style="fill: #2ca02c; stroke: #2ca02c"/>
     <use xlink:href="#m3218fcea44" x="499.204943" y="278.006773" style="fill: #2ca02c; stroke: #2ca02c"/>
     <use xlink:href="#m3218fcea44" x="528.191023" y="84.085137" style="fill: #2ca02c; stroke: #2ca02c"/>
     <use xlink:href="#m3218fcea44" x="586.163182" y="101.398895" style="fill: #2ca02c; stroke: #2ca02c"/>
     <use xlink:href="#m3218fcea44" x="615.149261" y="202.032381" style="fill: #2ca02c; stroke: #2ca02c"/>
     <use xlink:href="#m3218fcea44" x="644.135341" y="119.799375" style="fill: #2ca02c; stroke: #2ca02c"/>
     <use xlink:href="#m3218fcea44" x="673.12142" y="215.475984" style="fill: #2ca02c; stroke: #2ca02c"/>
    </g>
   </g>
   <g id="line2d_26">
    <path d="M 93.39983 309.46052 
L 122.385909 294.014315 
L 151.371989 121.63556 
L 180.358068 288.422818 
L 209.344148 307.59703 
L 238.330227 296.137357 
L 267.316307 332.588837 
L 296.302386 138.456856 
L 325.288466 66.312577 
L 354.274545 283.547321 
L 383.260625 281.66026 
L 412.246705 296.901271 
L 441.232784 313.205049 
L 499.204943 344.12319 
L 528.191023 298.313978 
L 586.163182 314.901513 
L 615.149261 208.372962 
L 644.135341 117.617315 
L 673.12142 207.136064 
" clip-path="url(#p8d27dab2d3)" style="fill: none; stroke: #d62728; stroke-width: 2; stroke-linecap: square"/>
    <defs>
     <path id="mac5c19d37d" d="M 0 3 
C 0.795609 3 1.55874 2.683901 2.12132 2.12132 
C 2.683901 1.55874 3 0.795609 3 0 
C 3 -0.795609 2.683901 -1.55874 2.12132 -2.12132 
C 1.55874 -2.683901 0.795609 -3 0 -3 
C -0.795609 -3 -1.55874 -2.683901 -2.12132 -2.12132 
C -2.683901 -1.55874 -3 -0.795609 -3 0 
C -3 0.795609 -2.683901 1.55874 -2.12132 2.12132 
C -1.55874 2.683901 -0.795609 3 0 3 
z
" style="stroke: #d62728"/>
    </defs>
    <g clip-path="url(#p8d27dab2d3)">
     <use xlink:href="#mac5c19d37d" x="93.39983" y="309.46052" style="fill: #d62728; stroke: #d62728"/>
     <use xlink:href="#mac5c19d37d" x="122.385909" y="294.014315" style="fill: #d62728; stroke: #d62728"/>
     <use xlink:href="#mac5c19d37d" x="151.371989" y="121.63556" style="fill: #d62728; stroke: #d62728"/>
     <use xlink:href="#mac5c19d37d" x="180.358068" y="288.422818" style="fill: #d62728; stroke: #d62728"/>
     <use xlink:href="#mac5c19d37d" x="209.344148" y="307.59703" style="fill: #d62728; stroke: #d62728"/>
     <use xlink:href="#mac5c19d37d" x="238.330227" y="296.137357" style="fill: #d62728; stroke: #d62728"/>
     <use xlink:href="#mac5c19d37d" x="267.316307" y="332.588837" style="fill: #d62728; stroke: #d62728"/>
     <use xlink:href="#mac5c19d37d" x="296.302386" y="138.456856" style="fill: #d62728; stroke: #d62728"/>
     <use xlink:href="#mac5c19d37d" x="325.288466" y="66.312577" style="fill: #d62728; stroke: #d62728"/>
     <use xlink:href="#mac5c19d37d" x="354.274545" y="283.547321" style="fill: #d62728; stroke: #d62728"/>
     <use xlink:href="#mac5c19d37d" x="383.260625" y="281.66026" style="fill: #d62728; stroke: #d62728"/>
     <use xlink:href="#mac5c19d37d" x="412.246705" y="296.901271" style="fill: #d62728; stroke: #d62728"/>
     <use xlink:href="#mac5c19d37d" x="441.232784" y="313.205049" style="fill: #d62728; stroke: #d62728"/>
     <use xlink:href="#mac5c19d37d" x="499.204943" y="344.12319" style="fill: #d62728; stroke: #d62728"/>
     <use xlink:href="#mac5c19d37d" x="528.191023" y="298.313978" style="fill: #d62728; stroke: #d62728"/>
     <use xlink:href="#mac5c19d37d" x="586.163182" y="314.901513" style="fill: #d62728; stroke: #d62728"/>
     <use xlink:href="#mac5c19d37d" x="615.149261" y="208.372962" style="fill: #d62728; stroke: #d62728"/>
     <use xlink:href="#mac5c19d37d" x="644.135341" y="117.617315" style="fill: #d62728; stroke: #d62728"/>
     <use xlink:href="#mac5c19d37d" x="673.12142" y="207.136064" style="fill: #d62728; stroke: #d62728"/>
    </g>
   </g>
   <g id="line2d_27">
    <path d="M 93.39983 377.497105 
L 122.385909 387.013601 
L 151.371989 366.137566 
L 180.358068 382.326041 
L 209.344148 353.014329 
L 238.330227 376.792191 
L 267.316307 393.025678 
L 296.302386 369.58168 
L 325.288466 366.519954 
L 354.274545 376.404142 
L 383.260625 352.125109 
L 412.246705 354.006725 
L 441.232784 372.147341 
L 499.204943 416.543906 
L 528.191023 365.251985 
L 586.163182 390.812516 
L 615.149261 506.332202 
L 644.135341 317.490832 
L 673.12142 355.132603 
" clip-path="url(#p8d27dab2d3)" style="fill: none; stroke: #9467bd; stroke-width: 2; stroke-linecap: square"/>
    <defs>
     <path id="m5e1b14c5e9" d="M 0 3 
C 0.795609 3 1.55874 2.683901 2.12132 2.12132 
C 2.683901 1.55874 3 0.795609 3 0 
C 3 -0.795609 2.683901 -1.55874 2.12132 -2.12132 
C 1.55874 -2.683901 0.795609 -3 0 -3 
C -0.795609 -3 -1.55874 -2.683901 -2.12132 -2.12132 
C -2.683901 -1.55874 -3 -0.795609 -3 0 
C -3 0.795609 -2.683901 1.55874 -2.12132 2.12132 
C -1.55874 2.683901 -0.795609 3 0 3 
z
" style="stroke: #9467bd"/>
    </defs>
    <g clip-path="url(#p8d27dab2d3)">
     <use xlink:href="#m5e1b14c5e9" x="93.39983" y="377.497105" style="fill: #9467bd; stroke: #9467bd"/>
     <use xlink:href="#m5e1b14c5e9" x="122.385909" y="387.013601" style="fill: #9467bd; stroke: #9467bd"/>
     <use xlink:href="#m5e1b14c5e9" x="151.371989" y="366.137566" style="fill: #9467bd; stroke: #9467bd"/>
     <use xlink:href="#m5e1b14c5e9" x="180.358068" y="382.326041" style="fill: #9467bd; stroke: #9467bd"/>
     <use xlink:href="#m5e1b14c5e9" x="209.344148" y="353.014329" style="fill: #9467bd; stroke: #9467bd"/>
     <use xlink:href="#m5e1b14c5e9" x="238.330227" y="376.792191" style="fill: #9467bd; stroke: #9467bd"/>
     <use xlink:href="#m5e1b14c5e9" x="267.316307" y="393.025678" style="fill: #9467bd; stroke: #9467bd"/>
     <use xlink:href="#m5e1b14c5e9" x="296.302386" y="369.58168" style="fill: #9467bd; stroke: #9467bd"/>
     <use xlink:href="#m5e1b14c5e9" x="325.288466" y="366.519954" style="fill: #9467bd; stroke: #9467bd"/>
     <use xlink:href="#m5e1b14c5e9" x="354.274545" y="376.404142" style="fill: #9467bd; stroke: #9467bd"/>
     <use xlink:href="#m5e1b14c5e9" x="383.260625" y="352.125109" style="fill: #9467bd; stroke: #9467bd"/>
     <use xlink:href="#m5e1b14c5e9" x="412.246705" y="354.006725" style="fill: #9467bd; stroke: #9467bd"/>
     <use xlink:href="#m5e1b14c5e9" x="441.232784" y="372.147341" style="fill: #9467bd; stroke: #9467bd"/>
     <use xlink:href="#m5e1b14c5e9" x="499.204943" y="416.543906" style="fill: #9467bd; stroke: #9467bd"/>
     <use xlink:href="#m5e1b14c5e9" x="528.191023" y="365.251985" style="fill: #9467bd; stroke: #9467bd"/>
     <use xlink:href="#m5e1b14c5e9" x="586.163182" y="390.812516" style="fill: #9467bd; stroke: #9467bd"/>
     <use xlink:href="#m5e1b14c5e9" x="615.149261" y="506.332202" style="fill: #9467bd; stroke: #9467bd"/>
     <use xlink:href="#m5e1b14c5e9" x="644.135341" y="317.490832" style="fill: #9467bd; stroke: #9467bd"/>
     <use xlink:href="#m5e1b14c5e9" x="673.12142" y="355.132603" style="fill: #9467bd; stroke: #9467bd"/>
    </g>
   </g>
   <g id="line2d_28">
    <path d="M 93.39983 274.650768 
L 122.385909 96.666611 
L 151.371989 276.859481 
L 180.358068 257.482311 
L 209.344148 215.464338 
L 238.330227 266.852194 
L 267.316307 250.594453 
L 296.302386 207.420086 
L 325.288466 242.827291 
L 354.274545 80.166321 
L 383.260625 277.984423 
L 412.246705 104.891121 
L 441.232784 124.203671 
L 499.204943 267.439832 
L 528.191023 250.251968 
L 586.163182 230.273162 
L 615.149261 275.952272 
L 644.135341 73.774918 
L 673.12142 87.604345 
" clip-path="url(#p8d27dab2d3)" style="fill: none; stroke: #8c564b; stroke-width: 2; stroke-linecap: square"/>
    <defs>
     <path id="me5880ad29d" d="M 0 3 
C 0.795609 3 1.55874 2.683901 2.12132 2.12132 
C 2.683901 1.55874 3 0.795609 3 0 
C 3 -0.795609 2.683901 -1.55874 2.12132 -2.12132 
C 1.55874 -2.683901 0.795609 -3 0 -3 
C -0.795609 -3 -1.55874 -2.683901 -2.12132 -2.12132 
C -2.683901 -1.55874 -3 -0.795609 -3 0 
C -3 0.795609 -2.683901 1.55874 -2.12132 2.12132 
C -1.55874 2.683901 -0.795609 3 0 3 
z
" style="stroke: #8c564b"/>
    </defs>
    <g clip-path="url(#p8d27dab2d3)">
     <use xlink:href="#me5880ad29d" x="93.39983" y="274.650768" style="fill: #8c564b; stroke: #8c564b"/>
     <use xlink:href="#me5880ad29d" x="122.385909" y="96.666611" style="fill: #8c564b; stroke: #8c564b"/>
     <use xlink:href="#me5880ad29d" x="151.371989" y="276.859481" style="fill: #8c564b; stroke: #8c564b"/>
     <use xlink:href="#me5880ad29d" x="180.358068" y="257.482311" style="fill: #8c564b; stroke: #8c564b"/>
     <use xlink:href="#me5880ad29d" x="209.344148" y="215.464338" style="fill: #8c564b; stroke: #8c564b"/>
     <use xlink:href="#me5880ad29d" x="238.330227" y="266.852194" style="fill: #8c564b; stroke: #8c564b"/>
     <use xlink:href="#me5880ad29d" x="267.316307" y="250.594453" style="fill: #8c564b; stroke: #8c564b"/>
     <use xlink:href="#me5880ad29d" x="296.302386" y="207.420086" style="fill: #8c564b; stroke: #8c564b"/>
     <use xlink:href="#me5880ad29d" x="325.288466" y="242.827291" style="fill: #8c564b; stroke: #8c564b"/>
     <use xlink:href="#me5880ad29d" x="354.274545" y="80.166321" style="fill: #8c564b; stroke: #8c564b"/>
     <use xlink:href="#me5880ad29d" x="383.260625" y="277.984423" style="fill: #8c564b; stroke: #8c564b"/>
     <use xlink:href="#me5880ad29d" x="412.246705" y="104.891121" style="fill: #8c564b; stroke: #8c564b"/>
     <use xlink:href="#me5880ad29d" x="441.232784" y="124.203671" style="fill: #8c564b; stroke: #8c564b"/>
     <use xlink:href="#me5880ad29d" x="499.204943" y="267.439832" style="fill: #8c564b; stroke: #8c564b"/>
     <use xlink:href="#me5880ad29d" x="528.191023" y="250.251968" style="fill: #8c564b; stroke: #8c564b"/>
     <use xlink:href="#me5880ad29d" x="586.163182" y="230.273162" style="fill: #8c564b; stroke: #8c564b"/>
     <use xlink:href="#me5880ad29d" x="615.149261" y="275.952272" style="fill: #8c564b; stroke: #8c564b"/>
     <use xlink:href="#me5880ad29d" x="644.135341" y="73.774918" style="fill: #8c564b; stroke: #8c564b"/>
     <use xlink:href="#me5880ad29d" x="673.12142" y="87.604345" style="fill: #8c564b; stroke: #8c564b"/>
    </g>
   </g>
   <g id="patch_3">
    <path d="M 64.41375 529.308125 
L 64.41375 23.837812 
" style="fill: none; stroke: #000000; stroke-width: 0.8; stroke-linejoin: miter; stroke-linecap: square"/>
   </g>
   <g id="patch_4">
    <path d="M 702.1075 529.308125 
L 702.1075 23.837812 
" style="fill: none; stroke: #000000; stroke-width: 0.8; stroke-linejoin: miter; stroke-linecap: square"/>
   </g>
   <g id="patch_5">
    <path d="M 64.41375 529.308125 
L 702.1075 529.308125 
" style="fill: none; stroke: #000000; stroke-width: 0.8; stroke-linejoin: miter; stroke-linecap: square"/>
   </g>
   <g id="patch_6">
    <path d="M 64.41375 23.837812 
L 702.1075 23.837812 
" style="fill: none; stroke: #000000; stroke-width: 0.8; stroke-linejoin: miter; stroke-linecap: square"/>
   </g>
   <g id="text_14">
    <text style="font: 700 14px 'DejaVu Sans', 'Bitstream Vera Sans', 'Computer Modern Sans Serif', 'Lucida Grande', 'Verdana', 'Geneva', 'Lucid', 'Arial', 'Helvetica', 'Avant Garde', sans-serif; text-anchor: middle" x="383.260625" y="17.837813" transform="rotate(-0 383.260625 17.837813)">Tasksubmission - Performance Trend</text>
   </g>
   <g id="legend_1">
    <g id="patch_7">
     <path d="M 740.992188 119.906563 
L 846.004688 119.906563 
Q 848.004688 119.906563 848.004688 117.906563 
L 848.004688 30.837813 
Q 848.004688 28.837813 846.004688 28.837813 
L 740.992188 28.837813 
Q 738.992188 28.837813 738.992188 30.837813 
L 738.992188 117.906563 
Q 738.992188 119.906563 740.992188 119.906563 
z
" style="fill: #ffffff; opacity: 0.8; stroke: #cccccc; stroke-linejoin: miter"/>
    </g>
    <g id="line2d_29">
     <path d="M 742.992188 36.93625 
L 752.992188 36.93625 
L 762.992188 36.93625 
" style="fill: none; stroke: #1f77b4; stroke-width: 2; stroke-linecap: square"/>
     <g>
      <use xlink:href="#m2755bd9e89" x="752.992188" y="36.93625" style="fill: #1f77b4; stroke: #1f77b4"/>
     </g>
    </g>
    <g id="text_15">
     <text style="font: 10px 'DejaVu Sans', 'Bitstream Vera Sans', 'Computer Modern Sans Serif', 'Lucida Grande', 'Verdana', 'Geneva', 'Lucid', 'Arial', 'Helvetica', 'Avant Garde', sans-serif; text-anchor: start" x="770.992188" y="40.43625" transform="rotate(-0 770.992188 40.43625)">gcc-14.2 - V1</text>
    </g>
    <g id="line2d_30">
     <path d="M 742.992188 51.614375 
L 752.992188 51.614375 
L 762.992188 51.614375 
" style="fill: none; stroke: #ff7f0e; stroke-width: 2; stroke-linecap: square"/>
     <g>
      <use xlink:href="#m824d78d5df" x="752.992188" y="51.614375" style="fill: #ff7f0e; stroke: #ff7f0e"/>
     </g>
    </g>
    <g id="text_16">
     <text style="font: 10px 'DejaVu Sans', 'Bitstream Vera Sans', 'Computer Modern Sans Serif', 'Lucida Grande', 'Verdana', 'Geneva', 'Lucid', 'Arial', 'Helvetica', 'Avant Garde', sans-serif; text-anchor: start" x="770.992188" y="55.114375" transform="rotate(-0 770.992188 55.114375)">gcc-14.2 - V2</text>
    </g>
    <g id="line2d_31">
     <path d="M 742.992188 66.2925 
L 752.992188 66.2925 
L 762.992188 66.2925 
" style="fill: none; stroke: #2ca02c; stroke-width: 2; stroke-linecap: square"/>
     <g>
      <use xlink:href="#m3218fcea44" x="752.992188" y="66.2925" style="fill: #2ca02c; stroke: #2ca02c"/>
     </g>
    </g>
    <g id="text_17">
     <text style="font: 10px 'DejaVu Sans', 'Bitstream Vera Sans', 'Computer Modern Sans Serif', 'Lucida Grande', 'Verdana', 'Geneva', 'Lucid', 'Arial', 'Helvetica', 'Avant Garde', sans-serif; text-anchor: start" x="770.992188" y="69.7925" transform="rotate(-0 770.992188 69.7925)">gcc-14.2 - TBB</text>
    </g>
    <g id="line2d_32">
     <path d="M 742.992188 80.970625 
L 752.992188 80.970625 
L 762.992188 80.970625 
" style="fill: none; stroke: #d62728; stroke-width: 2; stroke-linecap: square"/>
     <g>
      <use xlink:href="#mac5c19d37d" x="752.992188" y="80.970625" style="fill: #d62728; stroke: #d62728"/>
     </g>
    </g>
    <g id="text_18">
     <text style="font: 10px 'DejaVu Sans', 'Bitstream Vera Sans', 'Computer Modern Sans Serif', 'Lucida Grande', 'Verdana', 'Geneva', 'Lucid', 'Arial', 'Helvetica', 'Avant Garde', sans-serif; text-anchor: start" x="770.992188" y="84.470625" transform="rotate(-0 770.992188 84.470625)">gcc-4.2 - V1</text>
    </g>
    <g id="line2d_33">
     <path d="M 742.992188 95.64875 
L 752.992188 95.64875 
L 762.992188 95.64875 
" style="fill: none; stroke: #9467bd; stroke-width: 2; stroke-linecap: square"/>
     <g>
      <use xlink:href="#m5e1b14c5e9" x="752.992188" y="95.64875" style="fill: #9467bd; stroke: #9467bd"/>
     </g>
    </g>
    <g id="text_19">
     <text style="font: 10px 'DejaVu Sans', 'Bitstream Vera Sans', 'Computer Modern Sans Serif', 'Lucida Grande', 'Verdana', 'Geneva', 'Lucid', 'Arial', 'Helvetica', 'Avant Garde', sans-serif; text-anchor: start" x="770.992188" y="99.14875" transform="rotate(-0 770.992188 99.14875)">gcc-4.2 - V2</text>
    </g>
    <g id="line2d_34">
     <path d="M 742.992188 110.326875 
L 752.992188 110.326875 
L 762.992188 110.326875 
" style="fill: none; stroke: #8c564b; stroke-width: 2; stroke-linecap: square"/>
     <g>
      <use xlink:href="#me5880ad29d" x="752.992188" y="110.326875" style="fill: #8c564b; stroke: #8c564b"/>
     </g>
    </g>
    <g id="text_20">
     <text style="font: 10px 'DejaVu Sans', 'Bitstream Vera Sans', 'Computer Modern Sans Serif', 'Lucida Grande', 'Verdana', 'Geneva', 'Lucid', 'Arial', 'Helvetica', 'Avant Garde', sans-serif; text-anchor: start" x="770.992188" y="113.826875" transform="rotate(-0 770.992188 113.826875)">gcc-4.2 - TBB</text>
    </g>
   </g>
  </g>
 </g>
 <defs>
  <clipPath id="p8d27dab2d3">
   <rect x="64.41375" y="23.837813" width="637.69375" height="505.470313"/>
  </clipPath>
 </defs>
</svg>
