<?xml version="1.0" encoding="utf-8" standalone="no"?>
<!DOCTYPE svg PUBLIC "-//W3C//DTD SVG 1.1//EN"
  "http://www.w3.org/Graphics/SVG/1.1/DTD/svg11.dtd">
<svg xmlns:xlink="http://www.w3.org/1999/xlink" width="856.204141pt" height="568.8pt" viewBox="0 0 856.204141 568.8" xmlns="http://www.w3.org/2000/svg" version="1.1">
 <metadata>
  <rdf:RDF xmlns:dc="http://purl.org/dc/elements/1.1/" xmlns:cc="http://creativecommons.org/ns#" xmlns:rdf="http://www.w3.org/1999/02/22-rdf-syntax-ns#">
   <cc:Work>
    <dc:type rdf:resource="http://purl.org/dc/dcmitype/StillImage"/>
    <dc:date>2025-08-05T06:46:52.730896</dc:date>
    <dc:format>image/svg+xml</dc:format>
    <dc:creator>
     <cc:Agent>
      <dc:title>Matplotlib v3.9.4, https://matplotlib.org/</dc:title>
     </cc:Agent>
    </dc:creator>
   </cc:Work>
  </rdf:RDF>
 </metadata>
 <defs>
  <style type="text/css">*{stroke-linejoin: round; stroke-linecap: butt}</style>
 </defs>
 <g id="figure_1">
  <g id="patch_1">
   <path d="M 0 568.8 
L 856.204141 568.8 
L 856.204141 0 
L 0 0 
z
" style="fill: #ffffff"/>
  </g>
  <g id="axes_1">
   <g id="patch_2">
    <path d="M 74.01375 529.308125 
L 731.696563 529.308125 
L 731.696563 23.837812 
L 74.01375 23.837812 
z
" style="fill: #ffffff"/>
   </g>
   <g id="matplotlib.axis_1">
    <g id="xtick_1">
     <g id="line2d_1">
      <path d="M 163.69777 529.308125 
L 163.69777 23.837812 
" clip-path="url(#p6df5e2a702)" style="fill: none; stroke: #b0b0b0; stroke-opacity: 0.3; stroke-width: 0.8; stroke-linecap: square"/>
     </g>
     <g id="line2d_2">
      <defs>
       <path id="m75b012aa8d" d="M 0 0 
L 0 3.5 
" style="stroke: #000000; stroke-width: 0.8"/>
      </defs>
      <g>
       <use xlink:href="#m75b012aa8d" x="163.69777" y="529.308125" style="stroke: #000000; stroke-width: 0.8"/>
      </g>
     </g>
     <g id="text_1">
      <text style="font: 10px 'DejaVu Sans', 'Bitstream Vera Sans', 'Computer Modern Sans Serif', 'Lucida Grande', 'Verdana', 'Geneva', 'Lucid', 'Arial', 'Helvetica', 'Avant Garde', sans-serif; text-anchor: middle" x="163.69777" y="543.906563" transform="rotate(-0 163.69777 543.906563)">72</text>
     </g>
    </g>
    <g id="xtick_2">
     <g id="line2d_3">
      <path d="M 283.276463 529.308125 
L 283.276463 23.837812 
" clip-path="url(#p6df5e2a702)" style="fill: none; stroke: #b0b0b0; stroke-opacity: 0.3; stroke-width: 0.8; stroke-linecap: square"/>
     </g>
     <g id="line2d_4">
      <g>
       <use xlink:href="#m75b012aa8d" x="283.276463" y="529.308125" style="stroke: #000000; stroke-width: 0.8"/>
      </g>
     </g>
     <g id="text_2">
      <text style="font: 10px 'DejaVu Sans', 'Bitstream Vera Sans', 'Computer Modern Sans Serif', 'Lucida Grande', 'Verdana', 'Geneva', 'Lucid', 'Arial', 'Helvetica', 'Avant Garde', sans-serif; text-anchor: middle" x="283.276463" y="543.906563" transform="rotate(-0 283.276463 543.906563)">74</text>
     </g>
    </g>
    <g id="xtick_3">
     <g id="line2d_5">
      <path d="M 402.855156 529.308125 
L 402.855156 23.837812 
" clip-path="url(#p6df5e2a702)" style="fill: none; stroke: #b0b0b0; stroke-opacity: 0.3; stroke-width: 0.8; stroke-linecap: square"/>
     </g>
     <g id="line2d_6">
      <g>
       <use xlink:href="#m75b012aa8d" x="402.855156" y="529.308125" style="stroke: #000000; stroke-width: 0.8"/>
      </g>
     </g>
     <g id="text_3">
      <text style="font: 10px 'DejaVu Sans', 'Bitstream Vera Sans', 'Computer Modern Sans Serif', 'Lucida Grande', 'Verdana', 'Geneva', 'Lucid', 'Arial', 'Helvetica', 'Avant Garde', sans-serif; text-anchor: middle" x="402.855156" y="543.906563" transform="rotate(-0 402.855156 543.906563)">76</text>
     </g>
    </g>
    <g id="xtick_4">
     <g id="line2d_7">
      <path d="M 522.433849 529.308125 
L 522.433849 23.837812 
" clip-path="url(#p6df5e2a702)" style="fill: none; stroke: #b0b0b0; stroke-opacity: 0.3; stroke-width: 0.8; stroke-linecap: square"/>
     </g>
     <g id="line2d_8">
      <g>
       <use xlink:href="#m75b012aa8d" x="522.433849" y="529.308125" style="stroke: #000000; stroke-width: 0.8"/>
      </g>
     </g>
     <g id="text_4">
      <text style="font: 10px 'DejaVu Sans', 'Bitstream Vera Sans', 'Computer Modern Sans Serif', 'Lucida Grande', 'Verdana', 'Geneva', 'Lucid', 'Arial', 'Helvetica', 'Avant Garde', sans-serif; text-anchor: middle" x="522.433849" y="543.906563" transform="rotate(-0 522.433849 543.906563)">78</text>
     </g>
    </g>
    <g id="xtick_5">
     <g id="line2d_9">
      <path d="M 642.012543 529.308125 
L 642.012543 23.837812 
" clip-path="url(#p6df5e2a702)" style="fill: none; stroke: #b0b0b0; stroke-opacity: 0.3; stroke-width: 0.8; stroke-linecap: square"/>
     </g>
     <g id="line2d_10">
      <g>
       <use xlink:href="#m75b012aa8d" x="642.012543" y="529.308125" style="stroke: #000000; stroke-width: 0.8"/>
      </g>
     </g>
     <g id="text_5">
      <text style="font: 10px 'DejaVu Sans', 'Bitstream Vera Sans', 'Computer Modern Sans Serif', 'Lucida Grande', 'Verdana', 'Geneva', 'Lucid', 'Arial', 'Helvetica', 'Avant Garde', sans-serif; text-anchor: middle" x="642.012543" y="543.906563" transform="rotate(-0 642.012543 543.906563)">80</text>
     </g>
    </g>
    <g id="text_6">
     <text style="font: 12px 'DejaVu Sans', 'Bitstream Vera Sans', 'Computer Modern Sans Serif', 'Lucida Grande', 'Verdana', 'Geneva', 'Lucid', 'Arial', 'Helvetica', 'Avant Garde', sans-serif; text-anchor: middle" x="402.855156" y="559.104375" transform="rotate(-0 402.855156 559.104375)">Build Number</text>
    </g>
   </g>
   <g id="matplotlib.axis_2">
    <g id="ytick_1">
     <g id="line2d_11">
      <defs>
       <path id="m2dcf0ba60d" d="M 0 0 
L -2 0 
" style="stroke: #000000; stroke-width: 0.6"/>
      </defs>
      <g>
       <use xlink:href="#m2dcf0ba60d" x="74.01375" y="512.482122" style="stroke: #000000; stroke-width: 0.6"/>
      </g>
     </g>
     <g id="text_7">
      <!-- $\mathdefault{5.6\times10^{0}}$ -->
      <g transform="translate(22.81375 516.28134)">
       <text>
        <tspan style="font: 10px 'DejaVu Sans'" x="0 6.362305 9.541016 17.851562 28.178711 34.541016" y="-0.9765625">5.6×10</tspan>
        <tspan style="font: 7px 'DejaVu Sans'" x="40.999023" y="-4.8046875">0</tspan>
       </text>
      </g>
     </g>
    </g>
    <g id="ytick_2">
     <g id="line2d_12">
      <g>
       <use xlink:href="#m2dcf0ba60d" x="74.01375" y="451.471163" style="stroke: #000000; stroke-width: 0.6"/>
      </g>
     </g>
     <g id="text_8">
      <!-- $\mathdefault{5.7\times10^{0}}$ -->
      <g transform="translate(23.61375 455.270382)">
       <text>
        <tspan style="font: 10px 'DejaVu Sans'" x="0 6.362305 8.791016 17.101562 27.428711 33.791016" y="-0.9765625">5.7×10</tspan>
        <tspan style="font: 7px 'DejaVu Sans'" x="40.249023" y="-4.8046875">0</tspan>
       </text>
      </g>
     </g>
    </g>
    <g id="ytick_3">
     <g id="line2d_13">
      <g>
       <use xlink:href="#m2dcf0ba60d" x="74.01375" y="391.521318" style="stroke: #000000; stroke-width: 0.6"/>
      </g>
     </g>
     <g id="text_9">
      <!-- $\mathdefault{5.8\times10^{0}}$ -->
      <g transform="translate(23.11375 395.320537)">
       <text>
        <tspan style="font: 10px 'DejaVu Sans'" x="0 6.362305 9.291016 17.601562 27.928711 34.291016" y="-0.9765625">5.8×10</tspan>
        <tspan style="font: 7px 'DejaVu Sans'" x="40.749023" y="-4.8046875">0</tspan>
       </text>
      </g>
     </g>
    </g>
    <g id="ytick_4">
     <g id="line2d_14">
      <g>
       <use xlink:href="#m2dcf0ba60d" x="74.01375" y="332.596308" style="stroke: #000000; stroke-width: 0.6"/>
      </g>
     </g>
     <g id="text_10">
      <!-- $\mathdefault{5.9\times10^{0}}$ -->
      <g transform="translate(22.81375 336.395527)">
       <text>
        <tspan style="font: 10px 'DejaVu Sans'" x="0 6.362305 9.541016 17.851562 28.178711 34.541016" y="-0.9765625">5.9×10</tspan>
        <tspan style="font: 7px 'DejaVu Sans'" x="40.999023" y="-4.8046875">0</tspan>
       </text>
      </g>
     </g>
    </g>
    <g id="ytick_5">
     <g id="line2d_15">
      <g>
       <use xlink:href="#m2dcf0ba60d" x="74.01375" y="274.661681" style="stroke: #000000; stroke-width: 0.6"/>
      </g>
     </g>
     <g id="text_11">
      <!-- $\mathdefault{6\times10^{0}}$ -->
      <g transform="translate(32.41375 278.460899)">
       <text>
        <tspan style="font: 10px 'DejaVu Sans'" x="0 8.310547 18.637695 25" y="-0.9765625">6×10</tspan>
        <tspan style="font: 7px 'DejaVu Sans'" x="31.458008" y="-4.8046875">0</tspan>
       </text>
      </g>
     </g>
    </g>
    <g id="ytick_6">
     <g id="line2d_16">
      <g>
       <use xlink:href="#m2dcf0ba60d" x="74.01375" y="217.684695" style="stroke: #000000; stroke-width: 0.6"/>
      </g>
     </g>
     <g id="text_12">
      <!-- $\mathdefault{6.1\times10^{0}}$ -->
      <g transform="translate(22.81375 221.483913)">
       <text>
        <tspan style="font: 10px 'DejaVu Sans'" x="0 6.362305 9.541016 17.851562 28.178711 34.541016" y="-0.9765625">6.1×10</tspan>
        <tspan style="font: 7px 'DejaVu Sans'" x="40.999023" y="-4.8046875">0</tspan>
       </text>
      </g>
     </g>
    </g>
    <g id="ytick_7">
     <g id="line2d_17">
      <g>
       <use xlink:href="#m2dcf0ba60d" x="74.01375" y="161.634205" style="stroke: #000000; stroke-width: 0.6"/>
      </g>
     </g>
     <g id="text_13">
      <!-- $\mathdefault{6.2\times10^{0}}$ -->
      <g transform="translate(23.41375 165.433424)">
       <text>
        <tspan style="font: 10px 'DejaVu Sans'" x="0 6.362305 9.041016 17.351562 27.678711 34.041016" y="-0.9765625">6.2×10</tspan>
        <tspan style="font: 7px 'DejaVu Sans'" x="40.499023" y="-4.8046875">0</tspan>
       </text>
      </g>
     </g>
    </g>
    <g id="ytick_8">
     <g id="line2d_18">
      <g>
       <use xlink:href="#m2dcf0ba60d" x="74.01375" y="106.480561" style="stroke: #000000; stroke-width: 0.6"/>
      </g>
     </g>
     <g id="text_14">
      <!-- $\mathdefault{6.3\times10^{0}}$ -->
      <g transform="translate(22.81375 110.27978)">
       <text>
        <tspan style="font: 10px 'DejaVu Sans'" x="0 6.362305 9.541016 17.851562 28.178711 34.541016" y="-0.9765625">6.3×10</tspan>
        <tspan style="font: 7px 'DejaVu Sans'" x="40.999023" y="-4.8046875">0</tspan>
       </text>
      </g>
     </g>
    </g>
    <g id="ytick_9">
     <g id="line2d_19">
      <g>
       <use xlink:href="#m2dcf0ba60d" x="74.01375" y="52.195515" style="stroke: #000000; stroke-width: 0.6"/>
      </g>
     </g>
     <g id="text_15">
      <!-- $\mathdefault{6.4\times10^{0}}$ -->
      <g transform="translate(22.81375 55.994734)">
       <text>
        <tspan style="font: 10px 'DejaVu Sans'" x="0 6.362305 9.541016 17.851562 28.178711 34.541016" y="-0.9765625">6.4×10</tspan>
        <tspan style="font: 7px 'DejaVu Sans'" x="40.999023" y="-4.8046875">0</tspan>
       </text>
      </g>
     </g>
    </g>
    <g id="text_16">
     <text style="font: 12px 'DejaVu Sans', 'Bitstream Vera Sans', 'Computer Modern Sans Serif', 'Lucida Grande', 'Verdana', 'Geneva', 'Lucid', 'Arial', 'Helvetica', 'Avant Garde', sans-serif; text-anchor: middle" x="16.318125" y="276.572969" transform="rotate(-90 16.318125 276.572969)">Median Elapsed Time (nanoseconds)</text>
    </g>
   </g>
   <g id="line2d_20">
    <path d="M 103.908423 95.554945 
L 163.69777 101.013424 
L 223.487116 46.813736 
L 283.276463 101.013424 
L 343.06581 156.078959 
L 402.855156 101.013424 
L 462.644503 101.013424 
L 522.433849 101.013424 
L 582.223196 101.013424 
L 642.012543 101.013424 
L 701.801889 46.813736 
" clip-path="url(#p6df5e2a702)" style="fill: none; stroke: #1f77b4; stroke-width: 2; stroke-linecap: square"/>
    <defs>
     <path id="mbf1ca38f53" d="M 0 3 
C 0.795609 3 1.55874 2.683901 2.12132 2.12132 
C 2.683901 1.55874 3 0.795609 3 0 
C 3 -0.795609 2.683901 -1.55874 2.12132 -2.12132 
C 1.55874 -2.683901 0.795609 -3 0 -3 
C -0.795609 -3 -1.55874 -2.683901 -2.12132 -2.12132 
C -2.683901 -1.55874 -3 -0.795609 -3 0 
C -3 0.795609 -2.683901 1.55874 -2.12132 2.12132 
C -1.55874 2.683901 -0.795609 3 0 3 
z
" style="stroke: #1f77b4"/>
    </defs>
    <g clip-path="url(#p6df5e2a702)">
     <use xlink:href="#mbf1ca38f53" x="103.908423" y="95.554945" style="fill: #1f77b4; stroke: #1f77b4"/>
     <use xlink:href="#mbf1ca38f53" x="163.69777" y="101.013424" style="fill: #1f77b4; stroke: #1f77b4"/>
     <use xlink:href="#mbf1ca38f53" x="223.487116" y="46.813736" style="fill: #1f77b4; stroke: #1f77b4"/>
     <use xlink:href="#mbf1ca38f53" x="283.276463" y="101.013424" style="fill: #1f77b4; stroke: #1f77b4"/>
     <use xlink:href="#mbf1ca38f53" x="343.06581" y="156.078959" style="fill: #1f77b4; stroke: #1f77b4"/>
     <use xlink:href="#mbf1ca38f53" x="402.855156" y="101.013424" style="fill: #1f77b4; stroke: #1f77b4"/>
     <use xlink:href="#mbf1ca38f53" x="462.644503" y="101.013424" style="fill: #1f77b4; stroke: #1f77b4"/>
     <use xlink:href="#mbf1ca38f53" x="522.433849" y="101.013424" style="fill: #1f77b4; stroke: #1f77b4"/>
     <use xlink:href="#mbf1ca38f53" x="582.223196" y="101.013424" style="fill: #1f77b4; stroke: #1f77b4"/>
     <use xlink:href="#mbf1ca38f53" x="642.012543" y="101.013424" style="fill: #1f77b4; stroke: #1f77b4"/>
     <use xlink:href="#mbf1ca38f53" x="701.801889" y="46.813736" style="fill: #1f77b4; stroke: #1f77b4"/>
    </g>
   </g>
   <g id="line2d_21">
    <path d="M 103.908423 506.332202 
L 163.69777 268.921414 
L 223.487116 268.921414 
L 283.276463 268.921414 
L 343.06581 268.921414 
L 402.855156 212.038454 
L 462.644503 263.190691 
L 522.433849 263.190691 
L 582.223196 268.921414 
L 642.012543 268.921414 
L 701.801889 268.921414 
" clip-path="url(#p6df5e2a702)" style="fill: none; stroke: #ff7f0e; stroke-width: 2; stroke-linecap: square"/>
    <defs>
     <path id="m8512b4def4" d="M 0 3 
C 0.795609 3 1.55874 2.683901 2.12132 2.12132 
C 2.683901 1.55874 3 0.795609 3 0 
C 3 -0.795609 2.683901 -1.55874 2.12132 -2.12132 
C 1.55874 -2.683901 0.795609 -3 0 -3 
C -0.795609 -3 -1.55874 -2.683901 -2.12132 -2.12132 
C -2.683901 -1.55874 -3 -0.795609 -3 0 
C -3 0.795609 -2.683901 1.55874 -2.12132 2.12132 
C -1.55874 2.683901 -0.795609 3 0 3 
z
" style="stroke: #ff7f0e"/>
    </defs>
    <g clip-path="url(#p6df5e2a702)">
     <use xlink:href="#m8512b4def4" x="103.908423" y="506.332202" style="fill: #ff7f0e; stroke: #ff7f0e"/>
     <use xlink:href="#m8512b4def4" x="163.69777" y="268.921414" style="fill: #ff7f0e; stroke: #ff7f0e"/>
     <use xlink:href="#m8512b4def4" x="223.487116" y="268.921414" style="fill: #ff7f0e; stroke: #ff7f0e"/>
     <use xlink:href="#m8512b4def4" x="283.276463" y="268.921414" style="fill: #ff7f0e; stroke: #ff7f0e"/>
     <use xlink:href="#m8512b4def4" x="343.06581" y="268.921414" style="fill: #ff7f0e; stroke: #ff7f0e"/>
     <use xlink:href="#m8512b4def4" x="402.855156" y="212.038454" style="fill: #ff7f0e; stroke: #ff7f0e"/>
     <use xlink:href="#m8512b4def4" x="462.644503" y="263.190691" style="fill: #ff7f0e; stroke: #ff7f0e"/>
     <use xlink:href="#m8512b4def4" x="522.433849" y="263.190691" style="fill: #ff7f0e; stroke: #ff7f0e"/>
     <use xlink:href="#m8512b4def4" x="582.223196" y="268.921414" style="fill: #ff7f0e; stroke: #ff7f0e"/>
     <use xlink:href="#m8512b4def4" x="642.012543" y="268.921414" style="fill: #ff7f0e; stroke: #ff7f0e"/>
     <use xlink:href="#m8512b4def4" x="701.801889" y="268.921414" style="fill: #ff7f0e; stroke: #ff7f0e"/>
    </g>
   </g>
   <g id="patch_3">
    <path d="M 74.01375 529.308125 
L 74.01375 23.837813 
" style="fill: none; stroke: #000000; stroke-width: 0.8; stroke-linejoin: miter; stroke-linecap: square"/>
   </g>
   <g id="patch_4">
    <path d="M 731.696563 529.308125 
L 731.696563 23.837813 
" style="fill: none; stroke: #000000; stroke-width: 0.8; stroke-linejoin: miter; stroke-linecap: square"/>
   </g>
   <g id="patch_5">
    <path d="M 74.01375 529.308125 
L 731.696563 529.308125 
" style="fill: none; stroke: #000000; stroke-width: 0.8; stroke-linejoin: miter; stroke-linecap: square"/>
   </g>
   <g id="patch_6">
    <path d="M 74.01375 23.837812 
L 731.696563 23.837812 
" style="fill: none; stroke: #000000; stroke-width: 0.8; stroke-linejoin: miter; stroke-linecap: square"/>
   </g>
   <g id="text_17">
    <text style="font: 700 14px 'DejaVu Sans', 'Bitstream Vera Sans', 'Computer Modern Sans Serif', 'Lucida Grande', 'Verdana', 'Geneva', 'Lucid', 'Arial', 'Helvetica', 'Avant Garde', sans-serif; text-anchor: middle" x="402.855156" y="17.837813" transform="rotate(-0 402.855156 17.837813)">Ts Shared Linear Single Thread - Performance Trend</text>
   </g>
   <g id="legend_1">
    <g id="patch_7">
     <path d="M 771.580703 61.194063 
L 847.004141 61.194063 
Q 849.004141 61.194063 849.004141 59.194063 
L 849.004141 30.837813 
Q 849.004141 28.837813 847.004141 28.837813 
L 771.580703 28.837813 
Q 769.580703 28.837813 769.580703 30.837813 
L 769.580703 59.194063 
Q 769.580703 61.194063 771.580703 61.194063 
z
" style="fill: #ffffff; opacity: 0.8; stroke: #cccccc; stroke-linejoin: miter"/>
    </g>
    <g id="line2d_22">
     <path d="M 773.580703 36.93625 
L 783.580703 36.93625 
L 793.580703 36.93625 
" style="fill: none; stroke: #1f77b4; stroke-width: 2; stroke-linecap: square"/>
     <g>
      <use xlink:href="#mbf1ca38f53" x="783.580703" y="36.93625" style="fill: #1f77b4; stroke: #1f77b4"/>
     </g>
    </g>
    <g id="text_18">
     <text style="font: 10px 'DejaVu Sans', 'Bitstream Vera Sans', 'Computer Modern Sans Serif', 'Lucida Grande', 'Verdana', 'Geneva', 'Lucid', 'Arial', 'Helvetica', 'Avant Garde', sans-serif; text-anchor: start" x="801.580703" y="40.43625" transform="rotate(-0 801.580703 40.43625)">clang-18</text>
    </g>
    <g id="line2d_23">
     <path d="M 773.580703 51.614375 
L 783.580703 51.614375 
L 793.580703 51.614375 
" style="fill: none; stroke: #ff7f0e; stroke-width: 2; stroke-linecap: square"/>
     <g>
      <use xlink:href="#m8512b4def4" x="783.580703" y="51.614375" style="fill: #ff7f0e; stroke: #ff7f0e"/>
     </g>
    </g>
    <g id="text_19">
     <text style="font: 10px 'DejaVu Sans', 'Bitstream Vera Sans', 'Computer Modern Sans Serif', 'Lucida Grande', 'Verdana', 'Geneva', 'Lucid', 'Arial', 'Helvetica', 'Avant Garde', sans-serif; text-anchor: start" x="801.580703" y="55.114375" transform="rotate(-0 801.580703 55.114375)">gcc-14</text>
    </g>
   </g>
  </g>
 </g>
 <defs>
  <clipPath id="p6df5e2a702">
   <rect x="74.01375" y="23.837813" width="657.682812" height="505.470313"/>
  </clipPath>
 </defs>
</svg>
