<?xml version="1.0" encoding="utf-8" standalone="no"?>
<!DOCTYPE svg PUBLIC "-//W3C//DTD SVG 1.1//EN"
  "http://www.w3.org/Graphics/SVG/1.1/DTD/svg11.dtd">
<svg xmlns:xlink="http://www.w3.org/1999/xlink" width="849.994062pt" height="568.8pt" viewBox="0 0 849.994062 568.8" xmlns="http://www.w3.org/2000/svg" version="1.1">
 <metadata>
  <rdf:RDF xmlns:dc="http://purl.org/dc/elements/1.1/" xmlns:cc="http://creativecommons.org/ns#" xmlns:rdf="http://www.w3.org/1999/02/22-rdf-syntax-ns#">
   <cc:Work>
    <dc:type rdf:resource="http://purl.org/dc/dcmitype/StillImage"/>
    <dc:date>2025-08-28T18:43:37.294302</dc:date>
    <dc:format>image/svg+xml</dc:format>
    <dc:creator>
     <cc:Agent>
      <dc:title>Matplotlib v3.9.4, https://matplotlib.org/</dc:title>
     </cc:Agent>
    </dc:creator>
   </cc:Work>
  </rdf:RDF>
 </metadata>
 <defs>
  <style type="text/css">*{stroke-linejoin: round; stroke-linecap: butt}</style>
 </defs>
 <g id="figure_1">
  <g id="patch_1">
   <path d="M 0 568.8 
L 849.994062 568.8 
L 849.994062 0 
L 0 0 
z
" style="fill: #ffffff"/>
  </g>
  <g id="axes_1">
   <g id="patch_2">
    <path d="M 64.41375 529.308125 
L 597.895 529.308125 
L 597.895 23.837812 
L 64.41375 23.837812 
z
" style="fill: #ffffff"/>
   </g>
   <g id="matplotlib.axis_1">
    <g id="xtick_1">
     <g id="line2d_1">
      <path d="M 88.662898 529.308125 
L 88.662898 23.837812 
" clip-path="url(#p8fd6cbb52e)" style="fill: none; stroke: #b0b0b0; stroke-opacity: 0.3; stroke-width: 0.8; stroke-linecap: square"/>
     </g>
     <g id="line2d_2">
      <defs>
       <path id="mfe432d0f1a" d="M 0 0 
L 0 3.5 
" style="stroke: #000000; stroke-width: 0.8"/>
      </defs>
      <g>
       <use xlink:href="#mfe432d0f1a" x="88.662898" y="529.308125" style="stroke: #000000; stroke-width: 0.8"/>
      </g>
     </g>
     <g id="text_1">
      <text style="font: 10px 'DejaVu Sans', 'Bitstream Vera Sans', 'Computer Modern Sans Serif', 'Lucida Grande', 'Verdana', 'Geneva', 'Lucid', 'Arial', 'Helvetica', 'Avant Garde', sans-serif; text-anchor: middle" x="88.662898" y="543.906563" transform="rotate(-0 88.662898 543.906563)">96</text>
     </g>
    </g>
    <g id="xtick_2">
     <g id="line2d_3">
      <path d="M 163.27566 529.308125 
L 163.27566 23.837812 
" clip-path="url(#p8fd6cbb52e)" style="fill: none; stroke: #b0b0b0; stroke-opacity: 0.3; stroke-width: 0.8; stroke-linecap: square"/>
     </g>
     <g id="line2d_4">
      <g>
       <use xlink:href="#mfe432d0f1a" x="163.27566" y="529.308125" style="stroke: #000000; stroke-width: 0.8"/>
      </g>
     </g>
     <g id="text_2">
      <text style="font: 10px 'DejaVu Sans', 'Bitstream Vera Sans', 'Computer Modern Sans Serif', 'Lucida Grande', 'Verdana', 'Geneva', 'Lucid', 'Arial', 'Helvetica', 'Avant Garde', sans-serif; text-anchor: middle" x="163.27566" y="543.906563" transform="rotate(-0 163.27566 543.906563)">98</text>
     </g>
    </g>
    <g id="xtick_3">
     <g id="line2d_5">
      <path d="M 237.888422 529.308125 
L 237.888422 23.837812 
" clip-path="url(#p8fd6cbb52e)" style="fill: none; stroke: #b0b0b0; stroke-opacity: 0.3; stroke-width: 0.8; stroke-linecap: square"/>
     </g>
     <g id="line2d_6">
      <g>
       <use xlink:href="#mfe432d0f1a" x="237.888422" y="529.308125" style="stroke: #000000; stroke-width: 0.8"/>
      </g>
     </g>
     <g id="text_3">
      <text style="font: 10px 'DejaVu Sans', 'Bitstream Vera Sans', 'Computer Modern Sans Serif', 'Lucida Grande', 'Verdana', 'Geneva', 'Lucid', 'Arial', 'Helvetica', 'Avant Garde', sans-serif; text-anchor: middle" x="237.888422" y="543.906563" transform="rotate(-0 237.888422 543.906563)">100</text>
     </g>
    </g>
    <g id="xtick_4">
     <g id="line2d_7">
      <path d="M 312.501184 529.308125 
L 312.501184 23.837812 
" clip-path="url(#p8fd6cbb52e)" style="fill: none; stroke: #b0b0b0; stroke-opacity: 0.3; stroke-width: 0.8; stroke-linecap: square"/>
     </g>
     <g id="line2d_8">
      <g>
       <use xlink:href="#mfe432d0f1a" x="312.501184" y="529.308125" style="stroke: #000000; stroke-width: 0.8"/>
      </g>
     </g>
     <g id="text_4">
      <text style="font: 10px 'DejaVu Sans', 'Bitstream Vera Sans', 'Computer Modern Sans Serif', 'Lucida Grande', 'Verdana', 'Geneva', 'Lucid', 'Arial', 'Helvetica', 'Avant Garde', sans-serif; text-anchor: middle" x="312.501184" y="543.906563" transform="rotate(-0 312.501184 543.906563)">102</text>
     </g>
    </g>
    <g id="xtick_5">
     <g id="line2d_9">
      <path d="M 387.113947 529.308125 
L 387.113947 23.837812 
" clip-path="url(#p8fd6cbb52e)" style="fill: none; stroke: #b0b0b0; stroke-opacity: 0.3; stroke-width: 0.8; stroke-linecap: square"/>
     </g>
     <g id="line2d_10">
      <g>
       <use xlink:href="#mfe432d0f1a" x="387.113947" y="529.308125" style="stroke: #000000; stroke-width: 0.8"/>
      </g>
     </g>
     <g id="text_5">
      <text style="font: 10px 'DejaVu Sans', 'Bitstream Vera Sans', 'Computer Modern Sans Serif', 'Lucida Grande', 'Verdana', 'Geneva', 'Lucid', 'Arial', 'Helvetica', 'Avant Garde', sans-serif; text-anchor: middle" x="387.113947" y="543.906563" transform="rotate(-0 387.113947 543.906563)">104</text>
     </g>
    </g>
    <g id="xtick_6">
     <g id="line2d_11">
      <path d="M 461.726709 529.308125 
L 461.726709 23.837812 
" clip-path="url(#p8fd6cbb52e)" style="fill: none; stroke: #b0b0b0; stroke-opacity: 0.3; stroke-width: 0.8; stroke-linecap: square"/>
     </g>
     <g id="line2d_12">
      <g>
       <use xlink:href="#mfe432d0f1a" x="461.726709" y="529.308125" style="stroke: #000000; stroke-width: 0.8"/>
      </g>
     </g>
     <g id="text_6">
      <text style="font: 10px 'DejaVu Sans', 'Bitstream Vera Sans', 'Computer Modern Sans Serif', 'Lucida Grande', 'Verdana', 'Geneva', 'Lucid', 'Arial', 'Helvetica', 'Avant Garde', sans-serif; text-anchor: middle" x="461.726709" y="543.906563" transform="rotate(-0 461.726709 543.906563)">106</text>
     </g>
    </g>
    <g id="xtick_7">
     <g id="line2d_13">
      <path d="M 536.339471 529.308125 
L 536.339471 23.837812 
" clip-path="url(#p8fd6cbb52e)" style="fill: none; stroke: #b0b0b0; stroke-opacity: 0.3; stroke-width: 0.8; stroke-linecap: square"/>
     </g>
     <g id="line2d_14">
      <g>
       <use xlink:href="#mfe432d0f1a" x="536.339471" y="529.308125" style="stroke: #000000; stroke-width: 0.8"/>
      </g>
     </g>
     <g id="text_7">
      <text style="font: 10px 'DejaVu Sans', 'Bitstream Vera Sans', 'Computer Modern Sans Serif', 'Lucida Grande', 'Verdana', 'Geneva', 'Lucid', 'Arial', 'Helvetica', 'Avant Garde', sans-serif; text-anchor: middle" x="536.339471" y="543.906563" transform="rotate(-0 536.339471 543.906563)">108</text>
     </g>
    </g>
    <g id="text_8">
     <text style="font: 12px 'DejaVu Sans', 'Bitstream Vera Sans', 'Computer Modern Sans Serif', 'Lucida Grande', 'Verdana', 'Geneva', 'Lucid', 'Arial', 'Helvetica', 'Avant Garde', sans-serif; text-anchor: middle" x="331.154375" y="559.104375" transform="rotate(-0 331.154375 559.104375)">Build Number</text>
    </g>
   </g>
   <g id="matplotlib.axis_2">
    <g id="ytick_1">
     <g id="line2d_15">
      <defs>
       <path id="m82b3f53084" d="M 0 0 
L -2 0 
" style="stroke: #000000; stroke-width: 0.6"/>
      </defs>
      <g>
       <use xlink:href="#m82b3f53084" x="64.41375" y="325.378084" style="stroke: #000000; stroke-width: 0.6"/>
      </g>
     </g>
     <g id="text_9">
      <!-- $\mathdefault{2\times10^{5}}$ -->
      <g transform="translate(22.81375 329.177303)">
       <text>
        <tspan style="font: 10px 'DejaVu Sans'" x="0 8.310547 18.637695 25" y="-0.06406250000000036">2×10</tspan>
        <tspan style="font: 7px 'DejaVu Sans'" x="31.458008" y="-3.8921875000000004">5</tspan>
       </text>
      </g>
     </g>
    </g>
    <g id="ytick_2">
     <g id="line2d_16">
      <g>
       <use xlink:href="#m82b3f53084" x="64.41375" y="191.336189" style="stroke: #000000; stroke-width: 0.6"/>
      </g>
     </g>
     <g id="text_10">
      <!-- $\mathdefault{3\times10^{5}}$ -->
      <g transform="translate(22.81375 195.135408)">
       <text>
        <tspan style="font: 10px 'DejaVu Sans'" x="0 8.310547 18.637695 25" y="-0.06406250000000036">3×10</tspan>
        <tspan style="font: 7px 'DejaVu Sans'" x="31.458008" y="-3.8921875000000004">5</tspan>
       </text>
      </g>
     </g>
    </g>
    <g id="ytick_3">
     <g id="line2d_17">
      <g>
       <use xlink:href="#m82b3f53084" x="64.41375" y="96.231951" style="stroke: #000000; stroke-width: 0.6"/>
      </g>
     </g>
     <g id="text_11">
      <!-- $\mathdefault{4\times10^{5}}$ -->
      <g transform="translate(22.81375 100.03117)">
       <text>
        <tspan style="font: 10px 'DejaVu Sans'" x="0 8.310547 18.637695 25" y="-0.06406250000000036">4×10</tspan>
        <tspan style="font: 7px 'DejaVu Sans'" x="31.458008" y="-3.8921875000000004">5</tspan>
       </text>
      </g>
     </g>
    </g>
    <g id="text_12">
     <text style="font: 12px 'DejaVu Sans', 'Bitstream Vera Sans', 'Computer Modern Sans Serif', 'Lucida Grande', 'Verdana', 'Geneva', 'Lucid', 'Arial', 'Helvetica', 'Avant Garde', sans-serif; text-anchor: middle" x="16.318125" y="276.572969" transform="rotate(-90 16.318125 276.572969)">Median Elapsed Time (nanoseconds)</text>
    </g>
   </g>
   <g id="line2d_18">
    <path d="M 88.662898 418.483471 
L 125.969279 415.353461 
L 200.582041 445.998929 
L 237.888422 404.35351 
L 275.194803 415.925966 
L 312.501184 410.533843 
L 349.807566 414.177899 
L 387.113947 406.683589 
L 424.420328 419.0724 
L 461.726709 405.475846 
L 536.339471 411.077704 
L 573.645852 401.851369 
" clip-path="url(#p8fd6cbb52e)" style="fill: none; stroke: #1f77b4; stroke-width: 2; stroke-linecap: square"/>
    <defs>
     <path id="mf4cd5151c6" d="M 0 3 
C 0.795609 3 1.55874 2.683901 2.12132 2.12132 
C 2.683901 1.55874 3 0.795609 3 0 
C 3 -0.795609 2.683901 -1.55874 2.12132 -2.12132 
C 1.55874 -2.683901 0.795609 -3 0 -3 
C -0.795609 -3 -1.55874 -2.683901 -2.12132 -2.12132 
C -2.683901 -1.55874 -3 -0.795609 -3 0 
C -3 0.795609 -2.683901 1.55874 -2.12132 2.12132 
C -1.55874 2.683901 -0.795609 3 0 3 
z
" style="stroke: #1f77b4"/>
    </defs>
    <g clip-path="url(#p8fd6cbb52e)">
     <use xlink:href="#mf4cd5151c6" x="88.662898" y="418.483471" style="fill: #1f77b4; stroke: #1f77b4"/>
     <use xlink:href="#mf4cd5151c6" x="125.969279" y="415.353461" style="fill: #1f77b4; stroke: #1f77b4"/>
     <use xlink:href="#mf4cd5151c6" x="200.582041" y="445.998929" style="fill: #1f77b4; stroke: #1f77b4"/>
     <use xlink:href="#mf4cd5151c6" x="237.888422" y="404.35351" style="fill: #1f77b4; stroke: #1f77b4"/>
     <use xlink:href="#mf4cd5151c6" x="275.194803" y="415.925966" style="fill: #1f77b4; stroke: #1f77b4"/>
     <use xlink:href="#mf4cd5151c6" x="312.501184" y="410.533843" style="fill: #1f77b4; stroke: #1f77b4"/>
     <use xlink:href="#mf4cd5151c6" x="349.807566" y="414.177899" style="fill: #1f77b4; stroke: #1f77b4"/>
     <use xlink:href="#mf4cd5151c6" x="387.113947" y="406.683589" style="fill: #1f77b4; stroke: #1f77b4"/>
     <use xlink:href="#mf4cd5151c6" x="424.420328" y="419.0724" style="fill: #1f77b4; stroke: #1f77b4"/>
     <use xlink:href="#mf4cd5151c6" x="461.726709" y="405.475846" style="fill: #1f77b4; stroke: #1f77b4"/>
     <use xlink:href="#mf4cd5151c6" x="536.339471" y="411.077704" style="fill: #1f77b4; stroke: #1f77b4"/>
     <use xlink:href="#mf4cd5151c6" x="573.645852" y="401.851369" style="fill: #1f77b4; stroke: #1f77b4"/>
    </g>
   </g>
   <g id="line2d_19">
    <path d="M 88.662898 479.625639 
L 125.969279 492.043006 
L 200.582041 506.332202 
L 237.888422 505.54984 
L 275.194803 479.462004 
L 312.501184 478.881634 
L 349.807566 485.720144 
L 387.113947 482.00232 
L 424.420328 482.368539 
L 461.726709 476.537387 
L 536.339471 480.418347 
L 573.645852 467.107402 
" clip-path="url(#p8fd6cbb52e)" style="fill: none; stroke: #ff7f0e; stroke-width: 2; stroke-linecap: square"/>
    <defs>
     <path id="mdeb15c805b" d="M 0 3 
C 0.795609 3 1.55874 2.683901 2.12132 2.12132 
C 2.683901 1.55874 3 0.795609 3 0 
C 3 -0.795609 2.683901 -1.55874 2.12132 -2.12132 
C 1.55874 -2.683901 0.795609 -3 0 -3 
C -0.795609 -3 -1.55874 -2.683901 -2.12132 -2.12132 
C -2.683901 -1.55874 -3 -0.795609 -3 0 
C -3 0.795609 -2.683901 1.55874 -2.12132 2.12132 
C -1.55874 2.683901 -0.795609 3 0 3 
z
" style="stroke: #ff7f0e"/>
    </defs>
    <g clip-path="url(#p8fd6cbb52e)">
     <use xlink:href="#mdeb15c805b" x="88.662898" y="479.625639" style="fill: #ff7f0e; stroke: #ff7f0e"/>
     <use xlink:href="#mdeb15c805b" x="125.969279" y="492.043006" style="fill: #ff7f0e; stroke: #ff7f0e"/>
     <use xlink:href="#mdeb15c805b" x="200.582041" y="506.332202" style="fill: #ff7f0e; stroke: #ff7f0e"/>
     <use xlink:href="#mdeb15c805b" x="237.888422" y="505.54984" style="fill: #ff7f0e; stroke: #ff7f0e"/>
     <use xlink:href="#mdeb15c805b" x="275.194803" y="479.462004" style="fill: #ff7f0e; stroke: #ff7f0e"/>
     <use xlink:href="#mdeb15c805b" x="312.501184" y="478.881634" style="fill: #ff7f0e; stroke: #ff7f0e"/>
     <use xlink:href="#mdeb15c805b" x="349.807566" y="485.720144" style="fill: #ff7f0e; stroke: #ff7f0e"/>
     <use xlink:href="#mdeb15c805b" x="387.113947" y="482.00232" style="fill: #ff7f0e; stroke: #ff7f0e"/>
     <use xlink:href="#mdeb15c805b" x="424.420328" y="482.368539" style="fill: #ff7f0e; stroke: #ff7f0e"/>
     <use xlink:href="#mdeb15c805b" x="461.726709" y="476.537387" style="fill: #ff7f0e; stroke: #ff7f0e"/>
     <use xlink:href="#mdeb15c805b" x="536.339471" y="480.418347" style="fill: #ff7f0e; stroke: #ff7f0e"/>
     <use xlink:href="#mdeb15c805b" x="573.645852" y="467.107402" style="fill: #ff7f0e; stroke: #ff7f0e"/>
    </g>
   </g>
   <g id="line2d_20">
    <path d="M 88.662898 346.178361 
L 125.969279 316.824978 
L 200.582041 305.068528 
L 237.888422 281.535513 
L 275.194803 322.796218 
L 312.501184 306.751922 
L 349.807566 306.640074 
L 387.113947 316.901657 
L 424.420328 328.421559 
L 461.726709 297.034992 
L 536.339471 321.911758 
L 573.645852 288.857243 
" clip-path="url(#p8fd6cbb52e)" style="fill: none; stroke: #2ca02c; stroke-width: 2; stroke-linecap: square"/>
    <defs>
     <path id="m801fcb8908" d="M 0 3 
C 0.795609 3 1.55874 2.683901 2.12132 2.12132 
C 2.683901 1.55874 3 0.795609 3 0 
C 3 -0.795609 2.683901 -1.55874 2.12132 -2.12132 
C 1.55874 -2.683901 0.795609 -3 0 -3 
C -0.795609 -3 -1.55874 -2.683901 -2.12132 -2.12132 
C -2.683901 -1.55874 -3 -0.795609 -3 0 
C -3 0.795609 -2.683901 1.55874 -2.12132 2.12132 
C -1.55874 2.683901 -0.795609 3 0 3 
z
" style="stroke: #2ca02c"/>
    </defs>
    <g clip-path="url(#p8fd6cbb52e)">
     <use xlink:href="#m801fcb8908" x="88.662898" y="346.178361" style="fill: #2ca02c; stroke: #2ca02c"/>
     <use xlink:href="#m801fcb8908" x="125.969279" y="316.824978" style="fill: #2ca02c; stroke: #2ca02c"/>
     <use xlink:href="#m801fcb8908" x="200.582041" y="305.068528" style="fill: #2ca02c; stroke: #2ca02c"/>
     <use xlink:href="#m801fcb8908" x="237.888422" y="281.535513" style="fill: #2ca02c; stroke: #2ca02c"/>
     <use xlink:href="#m801fcb8908" x="275.194803" y="322.796218" style="fill: #2ca02c; stroke: #2ca02c"/>
     <use xlink:href="#m801fcb8908" x="312.501184" y="306.751922" style="fill: #2ca02c; stroke: #2ca02c"/>
     <use xlink:href="#m801fcb8908" x="349.807566" y="306.640074" style="fill: #2ca02c; stroke: #2ca02c"/>
     <use xlink:href="#m801fcb8908" x="387.113947" y="316.901657" style="fill: #2ca02c; stroke: #2ca02c"/>
     <use xlink:href="#m801fcb8908" x="424.420328" y="328.421559" style="fill: #2ca02c; stroke: #2ca02c"/>
     <use xlink:href="#m801fcb8908" x="461.726709" y="297.034992" style="fill: #2ca02c; stroke: #2ca02c"/>
     <use xlink:href="#m801fcb8908" x="536.339471" y="321.911758" style="fill: #2ca02c; stroke: #2ca02c"/>
     <use xlink:href="#m801fcb8908" x="573.645852" y="288.857243" style="fill: #2ca02c; stroke: #2ca02c"/>
    </g>
   </g>
   <g id="line2d_21">
    <path d="M 88.662898 410.414776 
L 125.969279 379.818174 
L 200.582041 414.680797 
L 237.888422 401.649781 
L 275.194803 396.195942 
L 312.501184 375.409617 
L 349.807566 378.742415 
L 387.113947 379.083306 
L 424.420328 399.242753 
L 461.726709 365.626307 
L 536.339471 399.33267 
L 573.645852 387.816222 
" clip-path="url(#p8fd6cbb52e)" style="fill: none; stroke: #d62728; stroke-width: 2; stroke-linecap: square"/>
    <defs>
     <path id="mc742f68e99" d="M 0 3 
C 0.795609 3 1.55874 2.683901 2.12132 2.12132 
C 2.683901 1.55874 3 0.795609 3 0 
C 3 -0.795609 2.683901 -1.55874 2.12132 -2.12132 
C 1.55874 -2.683901 0.795609 -3 0 -3 
C -0.795609 -3 -1.55874 -2.683901 -2.12132 -2.12132 
C -2.683901 -1.55874 -3 -0.795609 -3 0 
C -3 0.795609 -2.683901 1.55874 -2.12132 2.12132 
C -1.55874 2.683901 -0.795609 3 0 3 
z
" style="stroke: #d62728"/>
    </defs>
    <g clip-path="url(#p8fd6cbb52e)">
     <use xlink:href="#mc742f68e99" x="88.662898" y="410.414776" style="fill: #d62728; stroke: #d62728"/>
     <use xlink:href="#mc742f68e99" x="125.969279" y="379.818174" style="fill: #d62728; stroke: #d62728"/>
     <use xlink:href="#mc742f68e99" x="200.582041" y="414.680797" style="fill: #d62728; stroke: #d62728"/>
     <use xlink:href="#mc742f68e99" x="237.888422" y="401.649781" style="fill: #d62728; stroke: #d62728"/>
     <use xlink:href="#mc742f68e99" x="275.194803" y="396.195942" style="fill: #d62728; stroke: #d62728"/>
     <use xlink:href="#mc742f68e99" x="312.501184" y="375.409617" style="fill: #d62728; stroke: #d62728"/>
     <use xlink:href="#mc742f68e99" x="349.807566" y="378.742415" style="fill: #d62728; stroke: #d62728"/>
     <use xlink:href="#mc742f68e99" x="387.113947" y="379.083306" style="fill: #d62728; stroke: #d62728"/>
     <use xlink:href="#mc742f68e99" x="424.420328" y="399.242753" style="fill: #d62728; stroke: #d62728"/>
     <use xlink:href="#mc742f68e99" x="461.726709" y="365.626307" style="fill: #d62728; stroke: #d62728"/>
     <use xlink:href="#mc742f68e99" x="536.339471" y="399.33267" style="fill: #d62728; stroke: #d62728"/>
     <use xlink:href="#mc742f68e99" x="573.645852" y="387.816222" style="fill: #d62728; stroke: #d62728"/>
    </g>
   </g>
   <g id="line2d_22">
    <path d="M 88.662898 444.73102 
L 125.969279 208.766622 
L 200.582041 426.112972 
L 237.888422 46.813736 
L 275.194803 420.542054 
L 312.501184 433.7279 
L 349.807566 409.654771 
L 387.113947 436.074995 
L 424.420328 399.45177 
L 461.726709 411.126977 
L 536.339471 427.234417 
L 573.645852 218.338908 
" clip-path="url(#p8fd6cbb52e)" style="fill: none; stroke: #9467bd; stroke-width: 2; stroke-linecap: square"/>
    <defs>
     <path id="m16687e39ba" d="M 0 3 
C 0.795609 3 1.55874 2.683901 2.12132 2.12132 
C 2.683901 1.55874 3 0.795609 3 0 
C 3 -0.795609 2.683901 -1.55874 2.12132 -2.12132 
C 1.55874 -2.683901 0.795609 -3 0 -3 
C -0.795609 -3 -1.55874 -2.683901 -2.12132 -2.12132 
C -2.683901 -1.55874 -3 -0.795609 -3 0 
C -3 0.795609 -2.683901 1.55874 -2.12132 2.12132 
C -1.55874 2.683901 -0.795609 3 0 3 
z
" style="stroke: #9467bd"/>
    </defs>
    <g clip-path="url(#p8fd6cbb52e)">
     <use xlink:href="#m16687e39ba" x="88.662898" y="444.73102" style="fill: #9467bd; stroke: #9467bd"/>
     <use xlink:href="#m16687e39ba" x="125.969279" y="208.766622" style="fill: #9467bd; stroke: #9467bd"/>
     <use xlink:href="#m16687e39ba" x="200.582041" y="426.112972" style="fill: #9467bd; stroke: #9467bd"/>
     <use xlink:href="#m16687e39ba" x="237.888422" y="46.813736" style="fill: #9467bd; stroke: #9467bd"/>
     <use xlink:href="#m16687e39ba" x="275.194803" y="420.542054" style="fill: #9467bd; stroke: #9467bd"/>
     <use xlink:href="#m16687e39ba" x="312.501184" y="433.7279" style="fill: #9467bd; stroke: #9467bd"/>
     <use xlink:href="#m16687e39ba" x="349.807566" y="409.654771" style="fill: #9467bd; stroke: #9467bd"/>
     <use xlink:href="#m16687e39ba" x="387.113947" y="436.074995" style="fill: #9467bd; stroke: #9467bd"/>
     <use xlink:href="#m16687e39ba" x="424.420328" y="399.45177" style="fill: #9467bd; stroke: #9467bd"/>
     <use xlink:href="#m16687e39ba" x="461.726709" y="411.126977" style="fill: #9467bd; stroke: #9467bd"/>
     <use xlink:href="#m16687e39ba" x="536.339471" y="427.234417" style="fill: #9467bd; stroke: #9467bd"/>
     <use xlink:href="#m16687e39ba" x="573.645852" y="218.338908" style="fill: #9467bd; stroke: #9467bd"/>
    </g>
   </g>
   <g id="line2d_23">
    <path d="M 88.662898 430.44977 
L 125.969279 441.393423 
L 200.582041 437.187191 
L 237.888422 148.838021 
L 275.194803 444.144793 
L 312.501184 447.32222 
L 349.807566 429.464098 
L 387.113947 483.143151 
L 424.420328 437.185568 
L 461.726709 434.55018 
L 536.339471 482.769621 
L 573.645852 422.420389 
" clip-path="url(#p8fd6cbb52e)" style="fill: none; stroke: #8c564b; stroke-width: 2; stroke-linecap: square"/>
    <defs>
     <path id="mb1df96b63a" d="M 0 3 
C 0.795609 3 1.55874 2.683901 2.12132 2.12132 
C 2.683901 1.55874 3 0.795609 3 0 
C 3 -0.795609 2.683901 -1.55874 2.12132 -2.12132 
C 1.55874 -2.683901 0.795609 -3 0 -3 
C -0.795609 -3 -1.55874 -2.683901 -2.12132 -2.12132 
C -2.683901 -1.55874 -3 -0.795609 -3 0 
C -3 0.795609 -2.683901 1.55874 -2.12132 2.12132 
C -1.55874 2.683901 -0.795609 3 0 3 
z
" style="stroke: #8c564b"/>
    </defs>
    <g clip-path="url(#p8fd6cbb52e)">
     <use xlink:href="#mb1df96b63a" x="88.662898" y="430.44977" style="fill: #8c564b; stroke: #8c564b"/>
     <use xlink:href="#mb1df96b63a" x="125.969279" y="441.393423" style="fill: #8c564b; stroke: #8c564b"/>
     <use xlink:href="#mb1df96b63a" x="200.582041" y="437.187191" style="fill: #8c564b; stroke: #8c564b"/>
     <use xlink:href="#mb1df96b63a" x="237.888422" y="148.838021" style="fill: #8c564b; stroke: #8c564b"/>
     <use xlink:href="#mb1df96b63a" x="275.194803" y="444.144793" style="fill: #8c564b; stroke: #8c564b"/>
     <use xlink:href="#mb1df96b63a" x="312.501184" y="447.32222" style="fill: #8c564b; stroke: #8c564b"/>
     <use xlink:href="#mb1df96b63a" x="349.807566" y="429.464098" style="fill: #8c564b; stroke: #8c564b"/>
     <use xlink:href="#mb1df96b63a" x="387.113947" y="483.143151" style="fill: #8c564b; stroke: #8c564b"/>
     <use xlink:href="#mb1df96b63a" x="424.420328" y="437.185568" style="fill: #8c564b; stroke: #8c564b"/>
     <use xlink:href="#mb1df96b63a" x="461.726709" y="434.55018" style="fill: #8c564b; stroke: #8c564b"/>
     <use xlink:href="#mb1df96b63a" x="536.339471" y="482.769621" style="fill: #8c564b; stroke: #8c564b"/>
     <use xlink:href="#mb1df96b63a" x="573.645852" y="422.420389" style="fill: #8c564b; stroke: #8c564b"/>
    </g>
   </g>
   <g id="line2d_24">
    <path d="M 88.662898 421.880356 
L 125.969279 381.635185 
L 200.582041 404.882034 
L 237.888422 372.574395 
L 275.194803 380.531828 
L 312.501184 428.205911 
L 349.807566 409.140075 
L 387.113947 380.67404 
L 424.420328 411.669026 
L 461.726709 402.433287 
L 536.339471 384.927545 
L 573.645852 434.477122 
" clip-path="url(#p8fd6cbb52e)" style="fill: none; stroke: #e377c2; stroke-width: 2; stroke-linecap: square"/>
    <defs>
     <path id="m95001a42ad" d="M 0 3 
C 0.795609 3 1.55874 2.683901 2.12132 2.12132 
C 2.683901 1.55874 3 0.795609 3 0 
C 3 -0.795609 2.683901 -1.55874 2.12132 -2.12132 
C 1.55874 -2.683901 0.795609 -3 0 -3 
C -0.795609 -3 -1.55874 -2.683901 -2.12132 -2.12132 
C -2.683901 -1.55874 -3 -0.795609 -3 0 
C -3 0.795609 -2.683901 1.55874 -2.12132 2.12132 
C -1.55874 2.683901 -0.795609 3 0 3 
z
" style="stroke: #e377c2"/>
    </defs>
    <g clip-path="url(#p8fd6cbb52e)">
     <use xlink:href="#m95001a42ad" x="88.662898" y="421.880356" style="fill: #e377c2; stroke: #e377c2"/>
     <use xlink:href="#m95001a42ad" x="125.969279" y="381.635185" style="fill: #e377c2; stroke: #e377c2"/>
     <use xlink:href="#m95001a42ad" x="200.582041" y="404.882034" style="fill: #e377c2; stroke: #e377c2"/>
     <use xlink:href="#m95001a42ad" x="237.888422" y="372.574395" style="fill: #e377c2; stroke: #e377c2"/>
     <use xlink:href="#m95001a42ad" x="275.194803" y="380.531828" style="fill: #e377c2; stroke: #e377c2"/>
     <use xlink:href="#m95001a42ad" x="312.501184" y="428.205911" style="fill: #e377c2; stroke: #e377c2"/>
     <use xlink:href="#m95001a42ad" x="349.807566" y="409.140075" style="fill: #e377c2; stroke: #e377c2"/>
     <use xlink:href="#m95001a42ad" x="387.113947" y="380.67404" style="fill: #e377c2; stroke: #e377c2"/>
     <use xlink:href="#m95001a42ad" x="424.420328" y="411.669026" style="fill: #e377c2; stroke: #e377c2"/>
     <use xlink:href="#m95001a42ad" x="461.726709" y="402.433287" style="fill: #e377c2; stroke: #e377c2"/>
     <use xlink:href="#m95001a42ad" x="536.339471" y="384.927545" style="fill: #e377c2; stroke: #e377c2"/>
     <use xlink:href="#m95001a42ad" x="573.645852" y="434.477122" style="fill: #e377c2; stroke: #e377c2"/>
    </g>
   </g>
   <g id="line2d_25">
    <path d="M 88.662898 433.084138 
L 125.969279 390.791735 
L 200.582041 412.852697 
L 237.888422 387.974054 
L 275.194803 388.672856 
L 312.501184 437.372231 
L 349.807566 426.329824 
L 387.113947 398.95835 
L 424.420328 421.842511 
L 461.726709 412.361387 
L 536.339471 400.10676 
L 573.645852 440.491478 
" clip-path="url(#p8fd6cbb52e)" style="fill: none; stroke: #7f7f7f; stroke-width: 2; stroke-linecap: square"/>
    <defs>
     <path id="m409b98169a" d="M 0 3 
C 0.795609 3 1.55874 2.683901 2.12132 2.12132 
C 2.683901 1.55874 3 0.795609 3 0 
C 3 -0.795609 2.683901 -1.55874 2.12132 -2.12132 
C 1.55874 -2.683901 0.795609 -3 0 -3 
C -0.795609 -3 -1.55874 -2.683901 -2.12132 -2.12132 
C -2.683901 -1.55874 -3 -0.795609 -3 0 
C -3 0.795609 -2.683901 1.55874 -2.12132 2.12132 
C -1.55874 2.683901 -0.795609 3 0 3 
z
" style="stroke: #7f7f7f"/>
    </defs>
    <g clip-path="url(#p8fd6cbb52e)">
     <use xlink:href="#m409b98169a" x="88.662898" y="433.084138" style="fill: #7f7f7f; stroke: #7f7f7f"/>
     <use xlink:href="#m409b98169a" x="125.969279" y="390.791735" style="fill: #7f7f7f; stroke: #7f7f7f"/>
     <use xlink:href="#m409b98169a" x="200.582041" y="412.852697" style="fill: #7f7f7f; stroke: #7f7f7f"/>
     <use xlink:href="#m409b98169a" x="237.888422" y="387.974054" style="fill: #7f7f7f; stroke: #7f7f7f"/>
     <use xlink:href="#m409b98169a" x="275.194803" y="388.672856" style="fill: #7f7f7f; stroke: #7f7f7f"/>
     <use xlink:href="#m409b98169a" x="312.501184" y="437.372231" style="fill: #7f7f7f; stroke: #7f7f7f"/>
     <use xlink:href="#m409b98169a" x="349.807566" y="426.329824" style="fill: #7f7f7f; stroke: #7f7f7f"/>
     <use xlink:href="#m409b98169a" x="387.113947" y="398.95835" style="fill: #7f7f7f; stroke: #7f7f7f"/>
     <use xlink:href="#m409b98169a" x="424.420328" y="421.842511" style="fill: #7f7f7f; stroke: #7f7f7f"/>
     <use xlink:href="#m409b98169a" x="461.726709" y="412.361387" style="fill: #7f7f7f; stroke: #7f7f7f"/>
     <use xlink:href="#m409b98169a" x="536.339471" y="400.10676" style="fill: #7f7f7f; stroke: #7f7f7f"/>
     <use xlink:href="#m409b98169a" x="573.645852" y="440.491478" style="fill: #7f7f7f; stroke: #7f7f7f"/>
    </g>
   </g>
   <g id="patch_3">
    <path d="M 64.41375 529.308125 
L 64.41375 23.837812 
" style="fill: none; stroke: #000000; stroke-width: 0.8; stroke-linejoin: miter; stroke-linecap: square"/>
   </g>
   <g id="patch_4">
    <path d="M 597.895 529.308125 
L 597.895 23.837812 
" style="fill: none; stroke: #000000; stroke-width: 0.8; stroke-linejoin: miter; stroke-linecap: square"/>
   </g>
   <g id="patch_5">
    <path d="M 64.41375 529.308125 
L 597.895 529.308125 
" style="fill: none; stroke: #000000; stroke-width: 0.8; stroke-linejoin: miter; stroke-linecap: square"/>
   </g>
   <g id="patch_6">
    <path d="M 64.41375 23.837812 
L 597.895 23.837812 
" style="fill: none; stroke: #000000; stroke-width: 0.8; stroke-linejoin: miter; stroke-linecap: square"/>
   </g>
   <g id="text_13">
    <text style="font: 700 14px 'DejaVu Sans', 'Bitstream Vera Sans', 'Computer Modern Sans Serif', 'Lucida Grande', 'Verdana', 'Geneva', 'Lucid', 'Arial', 'Helvetica', 'Avant Garde', sans-serif; text-anchor: middle" x="331.154375" y="17.837813" transform="rotate(-0 331.154375 17.837813)">Coroutine Submission - Performance Trend</text>
   </g>
   <g id="legend_1">
    <g id="patch_7">
     <path d="M 631.569062 151.487813 
L 840.794062 151.487813 
Q 842.794062 151.487813 842.794062 149.487813 
L 842.794062 30.837813 
Q 842.794062 28.837813 840.794062 28.837813 
L 631.569062 28.837813 
Q 629.569062 28.837813 629.569062 30.837813 
L 629.569062 149.487813 
Q 629.569062 151.487813 631.569062 151.487813 
z
" style="fill: #ffffff; opacity: 0.8; stroke: #cccccc; stroke-linejoin: miter"/>
    </g>
    <g id="line2d_26">
     <path d="M 633.569062 36.93625 
L 643.569062 36.93625 
L 653.569062 36.93625 
" style="fill: none; stroke: #1f77b4; stroke-width: 2; stroke-linecap: square"/>
     <g>
      <use xlink:href="#mf4cd5151c6" x="643.569062" y="36.93625" style="fill: #1f77b4; stroke: #1f77b4"/>
     </g>
    </g>
    <g id="text_14">
     <text style="font: 10px 'DejaVu Sans', 'Bitstream Vera Sans', 'Computer Modern Sans Serif', 'Lucida Grande', 'Verdana', 'Geneva', 'Lucid', 'Arial', 'Helvetica', 'Avant Garde', sans-serif; text-anchor: start" x="661.569062" y="40.43625" transform="rotate(-0 661.569062 40.43625)">gcc-14.2 - CoroutineSubmission_V1</text>
    </g>
    <g id="line2d_27">
     <path d="M 633.569062 51.8925 
L 643.569062 51.8925 
L 653.569062 51.8925 
" style="fill: none; stroke: #ff7f0e; stroke-width: 2; stroke-linecap: square"/>
     <g>
      <use xlink:href="#mdeb15c805b" x="643.569062" y="51.8925" style="fill: #ff7f0e; stroke: #ff7f0e"/>
     </g>
    </g>
    <g id="text_15">
     <text style="font: 10px 'DejaVu Sans', 'Bitstream Vera Sans', 'Computer Modern Sans Serif', 'Lucida Grande', 'Verdana', 'Geneva', 'Lucid', 'Arial', 'Helvetica', 'Avant Garde', sans-serif; text-anchor: start" x="661.569062" y="55.3925" transform="rotate(-0 661.569062 55.3925)">gcc-14.2 - LambdaSubmission_V1</text>
    </g>
    <g id="line2d_28">
     <path d="M 633.569062 66.84875 
L 643.569062 66.84875 
L 653.569062 66.84875 
" style="fill: none; stroke: #2ca02c; stroke-width: 2; stroke-linecap: square"/>
     <g>
      <use xlink:href="#m801fcb8908" x="643.569062" y="66.84875" style="fill: #2ca02c; stroke: #2ca02c"/>
     </g>
    </g>
    <g id="text_16">
     <text style="font: 10px 'DejaVu Sans', 'Bitstream Vera Sans', 'Computer Modern Sans Serif', 'Lucida Grande', 'Verdana', 'Geneva', 'Lucid', 'Arial', 'Helvetica', 'Avant Garde', sans-serif; text-anchor: start" x="661.569062" y="70.34875" transform="rotate(-0 661.569062 70.34875)">gcc-14.2 - CoroutineSubmission_V2</text>
    </g>
    <g id="line2d_29">
     <path d="M 633.569062 81.805 
L 643.569062 81.805 
L 653.569062 81.805 
" style="fill: none; stroke: #d62728; stroke-width: 2; stroke-linecap: square"/>
     <g>
      <use xlink:href="#mc742f68e99" x="643.569062" y="81.805" style="fill: #d62728; stroke: #d62728"/>
     </g>
    </g>
    <g id="text_17">
     <text style="font: 10px 'DejaVu Sans', 'Bitstream Vera Sans', 'Computer Modern Sans Serif', 'Lucida Grande', 'Verdana', 'Geneva', 'Lucid', 'Arial', 'Helvetica', 'Avant Garde', sans-serif; text-anchor: start" x="661.569062" y="85.305" transform="rotate(-0 661.569062 85.305)">gcc-14.2 - LambdaSubmission_V2</text>
    </g>
    <g id="line2d_30">
     <path d="M 633.569062 96.76125 
L 643.569062 96.76125 
L 653.569062 96.76125 
" style="fill: none; stroke: #9467bd; stroke-width: 2; stroke-linecap: square"/>
     <g>
      <use xlink:href="#m16687e39ba" x="643.569062" y="96.76125" style="fill: #9467bd; stroke: #9467bd"/>
     </g>
    </g>
    <g id="text_18">
     <text style="font: 10px 'DejaVu Sans', 'Bitstream Vera Sans', 'Computer Modern Sans Serif', 'Lucida Grande', 'Verdana', 'Geneva', 'Lucid', 'Arial', 'Helvetica', 'Avant Garde', sans-serif; text-anchor: start" x="661.569062" y="100.26125" transform="rotate(-0 661.569062 100.26125)">gcc-4.2 - CoroutineSubmission_V1</text>
    </g>
    <g id="line2d_31">
     <path d="M 633.569062 111.7175 
L 643.569062 111.7175 
L 653.569062 111.7175 
" style="fill: none; stroke: #8c564b; stroke-width: 2; stroke-linecap: square"/>
     <g>
      <use xlink:href="#mb1df96b63a" x="643.569062" y="111.7175" style="fill: #8c564b; stroke: #8c564b"/>
     </g>
    </g>
    <g id="text_19">
     <text style="font: 10px 'DejaVu Sans', 'Bitstream Vera Sans', 'Computer Modern Sans Serif', 'Lucida Grande', 'Verdana', 'Geneva', 'Lucid', 'Arial', 'Helvetica', 'Avant Garde', sans-serif; text-anchor: start" x="661.569062" y="115.2175" transform="rotate(-0 661.569062 115.2175)">gcc-4.2 - LambdaSubmission_V1</text>
    </g>
    <g id="line2d_32">
     <path d="M 633.569062 126.67375 
L 643.569062 126.67375 
L 653.569062 126.67375 
" style="fill: none; stroke: #e377c2; stroke-width: 2; stroke-linecap: square"/>
     <g>
      <use xlink:href="#m95001a42ad" x="643.569062" y="126.67375" style="fill: #e377c2; stroke: #e377c2"/>
     </g>
    </g>
    <g id="text_20">
     <text style="font: 10px 'DejaVu Sans', 'Bitstream Vera Sans', 'Computer Modern Sans Serif', 'Lucida Grande', 'Verdana', 'Geneva', 'Lucid', 'Arial', 'Helvetica', 'Avant Garde', sans-serif; text-anchor: start" x="661.569062" y="130.17375" transform="rotate(-0 661.569062 130.17375)">gcc-4.2 - CoroutineSubmission_V2</text>
    </g>
    <g id="line2d_33">
     <path d="M 633.569062 141.63 
L 643.569062 141.63 
L 653.569062 141.63 
" style="fill: none; stroke: #7f7f7f; stroke-width: 2; stroke-linecap: square"/>
     <g>
      <use xlink:href="#m409b98169a" x="643.569062" y="141.63" style="fill: #7f7f7f; stroke: #7f7f7f"/>
     </g>
    </g>
    <g id="text_21">
     <text style="font: 10px 'DejaVu Sans', 'Bitstream Vera Sans', 'Computer Modern Sans Serif', 'Lucida Grande', 'Verdana', 'Geneva', 'Lucid', 'Arial', 'Helvetica', 'Avant Garde', sans-serif; text-anchor: start" x="661.569062" y="145.13" transform="rotate(-0 661.569062 145.13)">gcc-4.2 - LambdaSubmission_V2</text>
    </g>
   </g>
  </g>
 </g>
 <defs>
  <clipPath id="p8fd6cbb52e">
   <rect x="64.41375" y="23.837813" width="533.48125" height="505.470313"/>
  </clipPath>
 </defs>
</svg>
