<?xml version="1.0" encoding="utf-8" standalone="no"?>
<!DOCTYPE svg PUBLIC "-//W3C//DTD SVG 1.1//EN"
  "http://www.w3.org/Graphics/SVG/1.1/DTD/svg11.dtd">
<svg xmlns:xlink="http://www.w3.org/1999/xlink" width="850.820859pt" height="568.8pt" viewBox="0 0 850.820859 568.8" xmlns="http://www.w3.org/2000/svg" version="1.1">
 <metadata>
  <rdf:RDF xmlns:dc="http://purl.org/dc/elements/1.1/" xmlns:cc="http://creativecommons.org/ns#" xmlns:rdf="http://www.w3.org/1999/02/22-rdf-syntax-ns#">
   <cc:Work>
    <dc:type rdf:resource="http://purl.org/dc/dcmitype/StillImage"/>
    <dc:date>2025-08-28T18:43:38.628119</dc:date>
    <dc:format>image/svg+xml</dc:format>
    <dc:creator>
     <cc:Agent>
      <dc:title>Matplotlib v3.9.4, https://matplotlib.org/</dc:title>
     </cc:Agent>
    </dc:creator>
   </cc:Work>
  </rdf:RDF>
 </metadata>
 <defs>
  <style type="text/css">*{stroke-linejoin: round; stroke-linecap: butt}</style>
 </defs>
 <g id="figure_1">
  <g id="patch_1">
   <path d="M 0 568.8 
L 850.820859 568.8 
L 850.820859 0 
L 0 0 
z
" style="fill: #ffffff"/>
  </g>
  <g id="axes_1">
   <g id="patch_2">
    <path d="M 64.41375 529.308125 
L 614.430938 529.308125 
L 614.430938 23.837812 
L 64.41375 23.837812 
z
" style="fill: #ffffff"/>
   </g>
   <g id="matplotlib.axis_1">
    <g id="xtick_1">
     <g id="line2d_1">
      <path d="M 89.414531 529.308125 
L 89.414531 23.837812 
" clip-path="url(#p4bd764bc8d)" style="fill: none; stroke: #b0b0b0; stroke-opacity: 0.3; stroke-width: 0.8; stroke-linecap: square"/>
     </g>
     <g id="line2d_2">
      <defs>
       <path id="m57f6b0aace" d="M 0 0 
L 0 3.5 
" style="stroke: #000000; stroke-width: 0.8"/>
      </defs>
      <g>
       <use xlink:href="#m57f6b0aace" x="89.414531" y="529.308125" style="stroke: #000000; stroke-width: 0.8"/>
      </g>
     </g>
     <g id="text_1">
      <text style="font: 10px 'DejaVu Sans', 'Bitstream Vera Sans', 'Computer Modern Sans Serif', 'Lucida Grande', 'Verdana', 'Geneva', 'Lucid', 'Arial', 'Helvetica', 'Avant Garde', sans-serif; text-anchor: middle" x="89.414531" y="543.906563" transform="rotate(-0 89.414531 543.906563)">96</text>
     </g>
    </g>
    <g id="xtick_2">
     <g id="line2d_3">
      <path d="M 166.340012 529.308125 
L 166.340012 23.837812 
" clip-path="url(#p4bd764bc8d)" style="fill: none; stroke: #b0b0b0; stroke-opacity: 0.3; stroke-width: 0.8; stroke-linecap: square"/>
     </g>
     <g id="line2d_4">
      <g>
       <use xlink:href="#m57f6b0aace" x="166.340012" y="529.308125" style="stroke: #000000; stroke-width: 0.8"/>
      </g>
     </g>
     <g id="text_2">
      <text style="font: 10px 'DejaVu Sans', 'Bitstream Vera Sans', 'Computer Modern Sans Serif', 'Lucida Grande', 'Verdana', 'Geneva', 'Lucid', 'Arial', 'Helvetica', 'Avant Garde', sans-serif; text-anchor: middle" x="166.340012" y="543.906563" transform="rotate(-0 166.340012 543.906563)">98</text>
     </g>
    </g>
    <g id="xtick_3">
     <g id="line2d_5">
      <path d="M 243.265493 529.308125 
L 243.265493 23.837812 
" clip-path="url(#p4bd764bc8d)" style="fill: none; stroke: #b0b0b0; stroke-opacity: 0.3; stroke-width: 0.8; stroke-linecap: square"/>
     </g>
     <g id="line2d_6">
      <g>
       <use xlink:href="#m57f6b0aace" x="243.265493" y="529.308125" style="stroke: #000000; stroke-width: 0.8"/>
      </g>
     </g>
     <g id="text_3">
      <text style="font: 10px 'DejaVu Sans', 'Bitstream Vera Sans', 'Computer Modern Sans Serif', 'Lucida Grande', 'Verdana', 'Geneva', 'Lucid', 'Arial', 'Helvetica', 'Avant Garde', sans-serif; text-anchor: middle" x="243.265493" y="543.906563" transform="rotate(-0 243.265493 543.906563)">100</text>
     </g>
    </g>
    <g id="xtick_4">
     <g id="line2d_7">
      <path d="M 320.190974 529.308125 
L 320.190974 23.837812 
" clip-path="url(#p4bd764bc8d)" style="fill: none; stroke: #b0b0b0; stroke-opacity: 0.3; stroke-width: 0.8; stroke-linecap: square"/>
     </g>
     <g id="line2d_8">
      <g>
       <use xlink:href="#m57f6b0aace" x="320.190974" y="529.308125" style="stroke: #000000; stroke-width: 0.8"/>
      </g>
     </g>
     <g id="text_4">
      <text style="font: 10px 'DejaVu Sans', 'Bitstream Vera Sans', 'Computer Modern Sans Serif', 'Lucida Grande', 'Verdana', 'Geneva', 'Lucid', 'Arial', 'Helvetica', 'Avant Garde', sans-serif; text-anchor: middle" x="320.190974" y="543.906563" transform="rotate(-0 320.190974 543.906563)">102</text>
     </g>
    </g>
    <g id="xtick_5">
     <g id="line2d_9">
      <path d="M 397.116454 529.308125 
L 397.116454 23.837812 
" clip-path="url(#p4bd764bc8d)" style="fill: none; stroke: #b0b0b0; stroke-opacity: 0.3; stroke-width: 0.8; stroke-linecap: square"/>
     </g>
     <g id="line2d_10">
      <g>
       <use xlink:href="#m57f6b0aace" x="397.116454" y="529.308125" style="stroke: #000000; stroke-width: 0.8"/>
      </g>
     </g>
     <g id="text_5">
      <text style="font: 10px 'DejaVu Sans', 'Bitstream Vera Sans', 'Computer Modern Sans Serif', 'Lucida Grande', 'Verdana', 'Geneva', 'Lucid', 'Arial', 'Helvetica', 'Avant Garde', sans-serif; text-anchor: middle" x="397.116454" y="543.906563" transform="rotate(-0 397.116454 543.906563)">104</text>
     </g>
    </g>
    <g id="xtick_6">
     <g id="line2d_11">
      <path d="M 474.041935 529.308125 
L 474.041935 23.837812 
" clip-path="url(#p4bd764bc8d)" style="fill: none; stroke: #b0b0b0; stroke-opacity: 0.3; stroke-width: 0.8; stroke-linecap: square"/>
     </g>
     <g id="line2d_12">
      <g>
       <use xlink:href="#m57f6b0aace" x="474.041935" y="529.308125" style="stroke: #000000; stroke-width: 0.8"/>
      </g>
     </g>
     <g id="text_6">
      <text style="font: 10px 'DejaVu Sans', 'Bitstream Vera Sans', 'Computer Modern Sans Serif', 'Lucida Grande', 'Verdana', 'Geneva', 'Lucid', 'Arial', 'Helvetica', 'Avant Garde', sans-serif; text-anchor: middle" x="474.041935" y="543.906563" transform="rotate(-0 474.041935 543.906563)">106</text>
     </g>
    </g>
    <g id="xtick_7">
     <g id="line2d_13">
      <path d="M 550.967416 529.308125 
L 550.967416 23.837812 
" clip-path="url(#p4bd764bc8d)" style="fill: none; stroke: #b0b0b0; stroke-opacity: 0.3; stroke-width: 0.8; stroke-linecap: square"/>
     </g>
     <g id="line2d_14">
      <g>
       <use xlink:href="#m57f6b0aace" x="550.967416" y="529.308125" style="stroke: #000000; stroke-width: 0.8"/>
      </g>
     </g>
     <g id="text_7">
      <text style="font: 10px 'DejaVu Sans', 'Bitstream Vera Sans', 'Computer Modern Sans Serif', 'Lucida Grande', 'Verdana', 'Geneva', 'Lucid', 'Arial', 'Helvetica', 'Avant Garde', sans-serif; text-anchor: middle" x="550.967416" y="543.906563" transform="rotate(-0 550.967416 543.906563)">108</text>
     </g>
    </g>
    <g id="text_8">
     <text style="font: 12px 'DejaVu Sans', 'Bitstream Vera Sans', 'Computer Modern Sans Serif', 'Lucida Grande', 'Verdana', 'Geneva', 'Lucid', 'Arial', 'Helvetica', 'Avant Garde', sans-serif; text-anchor: middle" x="339.422344" y="559.104375" transform="rotate(-0 339.422344 559.104375)">Build Number</text>
    </g>
   </g>
   <g id="matplotlib.axis_2">
    <g id="ytick_1">
     <g id="line2d_15">
      <defs>
       <path id="m7c9b8d69a3" d="M 0 0 
L -2 0 
" style="stroke: #000000; stroke-width: 0.6"/>
      </defs>
      <g>
       <use xlink:href="#m7c9b8d69a3" x="64.41375" y="314.5009" style="stroke: #000000; stroke-width: 0.6"/>
      </g>
     </g>
     <g id="text_9">
      <!-- $\mathdefault{8\times10^{6}}$ -->
      <g transform="translate(22.81375 318.300119)">
       <text>
        <tspan style="font: 10px 'DejaVu Sans'" x="0 8.310547 18.637695 25" y="-0.9765625">8×10</tspan>
        <tspan style="font: 7px 'DejaVu Sans'" x="31.458008" y="-4.8046875">6</tspan>
       </text>
      </g>
     </g>
    </g>
    <g id="ytick_2">
     <g id="line2d_16">
      <g>
       <use xlink:href="#m7c9b8d69a3" x="64.41375" y="95.945828" style="stroke: #000000; stroke-width: 0.6"/>
      </g>
     </g>
     <g id="text_10">
      <!-- $\mathdefault{9\times10^{6}}$ -->
      <g transform="translate(22.81375 99.745047)">
       <text>
        <tspan style="font: 10px 'DejaVu Sans'" x="0 8.310547 18.637695 25" y="-0.9765625">9×10</tspan>
        <tspan style="font: 7px 'DejaVu Sans'" x="31.458008" y="-4.8046875">6</tspan>
       </text>
      </g>
     </g>
    </g>
    <g id="text_11">
     <text style="font: 12px 'DejaVu Sans', 'Bitstream Vera Sans', 'Computer Modern Sans Serif', 'Lucida Grande', 'Verdana', 'Geneva', 'Lucid', 'Arial', 'Helvetica', 'Avant Garde', sans-serif; text-anchor: middle" x="16.318125" y="276.572969" transform="rotate(-90 16.318125 276.572969)">Median Elapsed Time (nanoseconds)</text>
    </g>
   </g>
   <g id="line2d_17">
    <path d="M 89.414531 473.324099 
L 127.877272 373.455033 
L 204.802752 495.918948 
L 243.265493 398.318901 
L 281.728233 506.332202 
L 320.190974 483.886668 
L 358.653714 432.310647 
L 397.116454 498.309938 
L 435.579195 427.776705 
L 474.041935 452.120479 
L 550.967416 329.339319 
L 589.430156 321.709382 
" clip-path="url(#p4bd764bc8d)" style="fill: none; stroke: #1f77b4; stroke-width: 2; stroke-linecap: square"/>
    <defs>
     <path id="mbeb36c06ee" d="M 0 3 
C 0.795609 3 1.55874 2.683901 2.12132 2.12132 
C 2.683901 1.55874 3 0.795609 3 0 
C 3 -0.795609 2.683901 -1.55874 2.12132 -2.12132 
C 1.55874 -2.683901 0.795609 -3 0 -3 
C -0.795609 -3 -1.55874 -2.683901 -2.12132 -2.12132 
C -2.683901 -1.55874 -3 -0.795609 -3 0 
C -3 0.795609 -2.683901 1.55874 -2.12132 2.12132 
C -1.55874 2.683901 -0.795609 3 0 3 
z
" style="stroke: #1f77b4"/>
    </defs>
    <g clip-path="url(#p4bd764bc8d)">
     <use xlink:href="#mbeb36c06ee" x="89.414531" y="473.324099" style="fill: #1f77b4; stroke: #1f77b4"/>
     <use xlink:href="#mbeb36c06ee" x="127.877272" y="373.455033" style="fill: #1f77b4; stroke: #1f77b4"/>
     <use xlink:href="#mbeb36c06ee" x="204.802752" y="495.918948" style="fill: #1f77b4; stroke: #1f77b4"/>
     <use xlink:href="#mbeb36c06ee" x="243.265493" y="398.318901" style="fill: #1f77b4; stroke: #1f77b4"/>
     <use xlink:href="#mbeb36c06ee" x="281.728233" y="506.332202" style="fill: #1f77b4; stroke: #1f77b4"/>
     <use xlink:href="#mbeb36c06ee" x="320.190974" y="483.886668" style="fill: #1f77b4; stroke: #1f77b4"/>
     <use xlink:href="#mbeb36c06ee" x="358.653714" y="432.310647" style="fill: #1f77b4; stroke: #1f77b4"/>
     <use xlink:href="#mbeb36c06ee" x="397.116454" y="498.309938" style="fill: #1f77b4; stroke: #1f77b4"/>
     <use xlink:href="#mbeb36c06ee" x="435.579195" y="427.776705" style="fill: #1f77b4; stroke: #1f77b4"/>
     <use xlink:href="#mbeb36c06ee" x="474.041935" y="452.120479" style="fill: #1f77b4; stroke: #1f77b4"/>
     <use xlink:href="#mbeb36c06ee" x="550.967416" y="329.339319" style="fill: #1f77b4; stroke: #1f77b4"/>
     <use xlink:href="#mbeb36c06ee" x="589.430156" y="321.709382" style="fill: #1f77b4; stroke: #1f77b4"/>
    </g>
   </g>
   <g id="line2d_18">
    <path d="M 89.414531 468.731071 
L 127.877272 375.469217 
L 204.802752 493.103119 
L 243.265493 427.034623 
L 281.728233 502.308624 
L 320.190974 490.405747 
L 358.653714 433.393284 
L 397.116454 485.415884 
L 435.579195 409.277979 
L 474.041935 468.619366 
L 550.967416 321.046485 
L 589.430156 341.327562 
" clip-path="url(#p4bd764bc8d)" style="fill: none; stroke: #ff7f0e; stroke-width: 2; stroke-linecap: square"/>
    <defs>
     <path id="mdd8014c21f" d="M 0 3 
C 0.795609 3 1.55874 2.683901 2.12132 2.12132 
C 2.683901 1.55874 3 0.795609 3 0 
C 3 -0.795609 2.683901 -1.55874 2.12132 -2.12132 
C 1.55874 -2.683901 0.795609 -3 0 -3 
C -0.795609 -3 -1.55874 -2.683901 -2.12132 -2.12132 
C -2.683901 -1.55874 -3 -0.795609 -3 0 
C -3 0.795609 -2.683901 1.55874 -2.12132 2.12132 
C -1.55874 2.683901 -0.795609 3 0 3 
z
" style="stroke: #ff7f0e"/>
    </defs>
    <g clip-path="url(#p4bd764bc8d)">
     <use xlink:href="#mdd8014c21f" x="89.414531" y="468.731071" style="fill: #ff7f0e; stroke: #ff7f0e"/>
     <use xlink:href="#mdd8014c21f" x="127.877272" y="375.469217" style="fill: #ff7f0e; stroke: #ff7f0e"/>
     <use xlink:href="#mdd8014c21f" x="204.802752" y="493.103119" style="fill: #ff7f0e; stroke: #ff7f0e"/>
     <use xlink:href="#mdd8014c21f" x="243.265493" y="427.034623" style="fill: #ff7f0e; stroke: #ff7f0e"/>
     <use xlink:href="#mdd8014c21f" x="281.728233" y="502.308624" style="fill: #ff7f0e; stroke: #ff7f0e"/>
     <use xlink:href="#mdd8014c21f" x="320.190974" y="490.405747" style="fill: #ff7f0e; stroke: #ff7f0e"/>
     <use xlink:href="#mdd8014c21f" x="358.653714" y="433.393284" style="fill: #ff7f0e; stroke: #ff7f0e"/>
     <use xlink:href="#mdd8014c21f" x="397.116454" y="485.415884" style="fill: #ff7f0e; stroke: #ff7f0e"/>
     <use xlink:href="#mdd8014c21f" x="435.579195" y="409.277979" style="fill: #ff7f0e; stroke: #ff7f0e"/>
     <use xlink:href="#mdd8014c21f" x="474.041935" y="468.619366" style="fill: #ff7f0e; stroke: #ff7f0e"/>
     <use xlink:href="#mdd8014c21f" x="550.967416" y="321.046485" style="fill: #ff7f0e; stroke: #ff7f0e"/>
     <use xlink:href="#mdd8014c21f" x="589.430156" y="341.327562" style="fill: #ff7f0e; stroke: #ff7f0e"/>
    </g>
   </g>
   <g id="line2d_19">
    <path d="M 89.414531 89.173216 
L 127.877272 161.892239 
L 204.802752 128.43146 
L 243.265493 46.813736 
L 281.728233 179.893875 
L 320.190974 137.405096 
L 358.653714 180.227381 
L 397.116454 173.569457 
L 435.579195 163.296004 
L 474.041935 170.358504 
L 550.967416 175.253276 
L 589.430156 183.466062 
" clip-path="url(#p4bd764bc8d)" style="fill: none; stroke: #2ca02c; stroke-width: 2; stroke-linecap: square"/>
    <defs>
     <path id="mef187b208f" d="M 0 3 
C 0.795609 3 1.55874 2.683901 2.12132 2.12132 
C 2.683901 1.55874 3 0.795609 3 0 
C 3 -0.795609 2.683901 -1.55874 2.12132 -2.12132 
C 1.55874 -2.683901 0.795609 -3 0 -3 
C -0.795609 -3 -1.55874 -2.683901 -2.12132 -2.12132 
C -2.683901 -1.55874 -3 -0.795609 -3 0 
C -3 0.795609 -2.683901 1.55874 -2.12132 2.12132 
C -1.55874 2.683901 -0.795609 3 0 3 
z
" style="stroke: #2ca02c"/>
    </defs>
    <g clip-path="url(#p4bd764bc8d)">
     <use xlink:href="#mef187b208f" x="89.414531" y="89.173216" style="fill: #2ca02c; stroke: #2ca02c"/>
     <use xlink:href="#mef187b208f" x="127.877272" y="161.892239" style="fill: #2ca02c; stroke: #2ca02c"/>
     <use xlink:href="#mef187b208f" x="204.802752" y="128.43146" style="fill: #2ca02c; stroke: #2ca02c"/>
     <use xlink:href="#mef187b208f" x="243.265493" y="46.813736" style="fill: #2ca02c; stroke: #2ca02c"/>
     <use xlink:href="#mef187b208f" x="281.728233" y="179.893875" style="fill: #2ca02c; stroke: #2ca02c"/>
     <use xlink:href="#mef187b208f" x="320.190974" y="137.405096" style="fill: #2ca02c; stroke: #2ca02c"/>
     <use xlink:href="#mef187b208f" x="358.653714" y="180.227381" style="fill: #2ca02c; stroke: #2ca02c"/>
     <use xlink:href="#mef187b208f" x="397.116454" y="173.569457" style="fill: #2ca02c; stroke: #2ca02c"/>
     <use xlink:href="#mef187b208f" x="435.579195" y="163.296004" style="fill: #2ca02c; stroke: #2ca02c"/>
     <use xlink:href="#mef187b208f" x="474.041935" y="170.358504" style="fill: #2ca02c; stroke: #2ca02c"/>
     <use xlink:href="#mef187b208f" x="550.967416" y="175.253276" style="fill: #2ca02c; stroke: #2ca02c"/>
     <use xlink:href="#mef187b208f" x="589.430156" y="183.466062" style="fill: #2ca02c; stroke: #2ca02c"/>
    </g>
   </g>
   <g id="line2d_20">
    <path d="M 89.414531 97.951281 
L 127.877272 174.420983 
L 204.802752 180.369526 
L 243.265493 54.029165 
L 281.728233 198.408958 
L 320.190974 141.028216 
L 358.653714 175.879958 
L 397.116454 190.427519 
L 435.579195 187.15686 
L 474.041935 199.113062 
L 550.967416 204.450786 
L 589.430156 192.78371 
" clip-path="url(#p4bd764bc8d)" style="fill: none; stroke: #d62728; stroke-width: 2; stroke-linecap: square"/>
    <defs>
     <path id="m3c14825c94" d="M 0 3 
C 0.795609 3 1.55874 2.683901 2.12132 2.12132 
C 2.683901 1.55874 3 0.795609 3 0 
C 3 -0.795609 2.683901 -1.55874 2.12132 -2.12132 
C 1.55874 -2.683901 0.795609 -3 0 -3 
C -0.795609 -3 -1.55874 -2.683901 -2.12132 -2.12132 
C -2.683901 -1.55874 -3 -0.795609 -3 0 
C -3 0.795609 -2.683901 1.55874 -2.12132 2.12132 
C -1.55874 2.683901 -0.795609 3 0 3 
z
" style="stroke: #d62728"/>
    </defs>
    <g clip-path="url(#p4bd764bc8d)">
     <use xlink:href="#m3c14825c94" x="89.414531" y="97.951281" style="fill: #d62728; stroke: #d62728"/>
     <use xlink:href="#m3c14825c94" x="127.877272" y="174.420983" style="fill: #d62728; stroke: #d62728"/>
     <use xlink:href="#m3c14825c94" x="204.802752" y="180.369526" style="fill: #d62728; stroke: #d62728"/>
     <use xlink:href="#m3c14825c94" x="243.265493" y="54.029165" style="fill: #d62728; stroke: #d62728"/>
     <use xlink:href="#m3c14825c94" x="281.728233" y="198.408958" style="fill: #d62728; stroke: #d62728"/>
     <use xlink:href="#m3c14825c94" x="320.190974" y="141.028216" style="fill: #d62728; stroke: #d62728"/>
     <use xlink:href="#m3c14825c94" x="358.653714" y="175.879958" style="fill: #d62728; stroke: #d62728"/>
     <use xlink:href="#m3c14825c94" x="397.116454" y="190.427519" style="fill: #d62728; stroke: #d62728"/>
     <use xlink:href="#m3c14825c94" x="435.579195" y="187.15686" style="fill: #d62728; stroke: #d62728"/>
     <use xlink:href="#m3c14825c94" x="474.041935" y="199.113062" style="fill: #d62728; stroke: #d62728"/>
     <use xlink:href="#m3c14825c94" x="550.967416" y="204.450786" style="fill: #d62728; stroke: #d62728"/>
     <use xlink:href="#m3c14825c94" x="589.430156" y="192.78371" style="fill: #d62728; stroke: #d62728"/>
    </g>
   </g>
   <g id="patch_3">
    <path d="M 64.41375 529.308125 
L 64.41375 23.837812 
" style="fill: none; stroke: #000000; stroke-width: 0.8; stroke-linejoin: miter; stroke-linecap: square"/>
   </g>
   <g id="patch_4">
    <path d="M 614.430938 529.308125 
L 614.430938 23.837812 
" style="fill: none; stroke: #000000; stroke-width: 0.8; stroke-linejoin: miter; stroke-linecap: square"/>
   </g>
   <g id="patch_5">
    <path d="M 64.41375 529.308125 
L 614.430938 529.308125 
" style="fill: none; stroke: #000000; stroke-width: 0.8; stroke-linejoin: miter; stroke-linecap: square"/>
   </g>
   <g id="patch_6">
    <path d="M 64.41375 23.837812 
L 614.430938 23.837812 
" style="fill: none; stroke: #000000; stroke-width: 0.8; stroke-linejoin: miter; stroke-linecap: square"/>
   </g>
   <g id="text_12">
    <text style="font: 700 14px 'DejaVu Sans', 'Bitstream Vera Sans', 'Computer Modern Sans Serif', 'Lucida Grande', 'Verdana', 'Geneva', 'Lucid', 'Arial', 'Helvetica', 'Avant Garde', sans-serif; text-anchor: middle" x="339.422344" y="17.837813" transform="rotate(-0 339.422344 17.837813)">Coroutine Memory - Performance Trend</text>
   </g>
   <g id="legend_1">
    <g id="patch_7">
     <path d="M 648.931797 91.662813 
L 841.620859 91.662813 
Q 843.620859 91.662813 843.620859 89.662813 
L 843.620859 30.837813 
Q 843.620859 28.837813 841.620859 28.837813 
L 648.931797 28.837813 
Q 646.931797 28.837813 646.931797 30.837813 
L 646.931797 89.662813 
Q 646.931797 91.662813 648.931797 91.662813 
z
" style="fill: #ffffff; opacity: 0.8; stroke: #cccccc; stroke-linejoin: miter"/>
    </g>
    <g id="line2d_21">
     <path d="M 650.931797 36.93625 
L 660.931797 36.93625 
L 670.931797 36.93625 
" style="fill: none; stroke: #1f77b4; stroke-width: 2; stroke-linecap: square"/>
     <g>
      <use xlink:href="#mbeb36c06ee" x="660.931797" y="36.93625" style="fill: #1f77b4; stroke: #1f77b4"/>
     </g>
    </g>
    <g id="text_13">
     <text style="font: 10px 'DejaVu Sans', 'Bitstream Vera Sans', 'Computer Modern Sans Serif', 'Lucida Grande', 'Verdana', 'Geneva', 'Lucid', 'Arial', 'Helvetica', 'Avant Garde', sans-serif; text-anchor: start" x="678.931797" y="40.43625" transform="rotate(-0 678.931797 40.43625)">gcc-14.2 - CoroutineMemory_V1</text>
    </g>
    <g id="line2d_22">
     <path d="M 650.931797 51.8925 
L 660.931797 51.8925 
L 670.931797 51.8925 
" style="fill: none; stroke: #ff7f0e; stroke-width: 2; stroke-linecap: square"/>
     <g>
      <use xlink:href="#mdd8014c21f" x="660.931797" y="51.8925" style="fill: #ff7f0e; stroke: #ff7f0e"/>
     </g>
    </g>
    <g id="text_14">
     <text style="font: 10px 'DejaVu Sans', 'Bitstream Vera Sans', 'Computer Modern Sans Serif', 'Lucida Grande', 'Verdana', 'Geneva', 'Lucid', 'Arial', 'Helvetica', 'Avant Garde', sans-serif; text-anchor: start" x="678.931797" y="55.3925" transform="rotate(-0 678.931797 55.3925)">gcc-14.2 - CoroutineMemory_V2</text>
    </g>
    <g id="line2d_23">
     <path d="M 650.931797 66.84875 
L 660.931797 66.84875 
L 670.931797 66.84875 
" style="fill: none; stroke: #2ca02c; stroke-width: 2; stroke-linecap: square"/>
     <g>
      <use xlink:href="#mef187b208f" x="660.931797" y="66.84875" style="fill: #2ca02c; stroke: #2ca02c"/>
     </g>
    </g>
    <g id="text_15">
     <text style="font: 10px 'DejaVu Sans', 'Bitstream Vera Sans', 'Computer Modern Sans Serif', 'Lucida Grande', 'Verdana', 'Geneva', 'Lucid', 'Arial', 'Helvetica', 'Avant Garde', sans-serif; text-anchor: start" x="678.931797" y="70.34875" transform="rotate(-0 678.931797 70.34875)">gcc-4.2 - CoroutineMemory_V1</text>
    </g>
    <g id="line2d_24">
     <path d="M 650.931797 81.805 
L 660.931797 81.805 
L 670.931797 81.805 
" style="fill: none; stroke: #d62728; stroke-width: 2; stroke-linecap: square"/>
     <g>
      <use xlink:href="#m3c14825c94" x="660.931797" y="81.805" style="fill: #d62728; stroke: #d62728"/>
     </g>
    </g>
    <g id="text_16">
     <text style="font: 10px 'DejaVu Sans', 'Bitstream Vera Sans', 'Computer Modern Sans Serif', 'Lucida Grande', 'Verdana', 'Geneva', 'Lucid', 'Arial', 'Helvetica', 'Avant Garde', sans-serif; text-anchor: start" x="678.931797" y="85.305" transform="rotate(-0 678.931797 85.305)">gcc-4.2 - CoroutineMemory_V2</text>
    </g>
   </g>
  </g>
 </g>
 <defs>
  <clipPath id="p4bd764bc8d">
   <rect x="64.41375" y="23.837813" width="550.017187" height="505.470313"/>
  </clipPath>
 </defs>
</svg>
