<?xml version="1.0" encoding="utf-8" standalone="no"?>
<!DOCTYPE svg PUBLIC "-//W3C//DTD SVG 1.1//EN"
  "http://www.w3.org/Graphics/SVG/1.1/DTD/svg11.dtd">
<svg xmlns:xlink="http://www.w3.org/1999/xlink" width="855.536016pt" height="568.8pt" viewBox="0 0 855.536016 568.8" xmlns="http://www.w3.org/2000/svg" version="1.1">
 <metadata>
  <rdf:RDF xmlns:dc="http://purl.org/dc/elements/1.1/" xmlns:cc="http://creativecommons.org/ns#" xmlns:rdf="http://www.w3.org/1999/02/22-rdf-syntax-ns#">
   <cc:Work>
    <dc:type rdf:resource="http://purl.org/dc/dcmitype/StillImage"/>
    <dc:date>2025-10-21T17:13:30.318061</dc:date>
    <dc:format>image/svg+xml</dc:format>
    <dc:creator>
     <cc:Agent>
      <dc:title>Matplotlib v3.9.4, https://matplotlib.org/</dc:title>
     </cc:Agent>
    </dc:creator>
   </cc:Work>
  </rdf:RDF>
 </metadata>
 <defs>
  <style type="text/css">*{stroke-linejoin: round; stroke-linecap: butt}</style>
 </defs>
 <g id="figure_1">
  <g id="patch_1">
   <path d="M 0 568.8 
L 855.536016 568.8 
L 855.536016 0 
L 0 0 
z
" style="fill: #ffffff"/>
  </g>
  <g id="axes_1">
   <g id="patch_2">
    <path d="M 64.41375 529.308125 
L 708.734063 529.308125 
L 708.734063 23.837812 
L 64.41375 23.837812 
z
" style="fill: #ffffff"/>
   </g>
   <g id="matplotlib.axis_1">
    <g id="xtick_1">
     <g id="line2d_1">
      <path d="M 81.986122 529.308125 
L 81.986122 23.837812 
" clip-path="url(#p8d71d6788a)" style="fill: none; stroke: #b0b0b0; stroke-opacity: 0.3; stroke-width: 0.8; stroke-linecap: square"/>
     </g>
     <g id="line2d_2">
      <defs>
       <path id="m44645f5d2c" d="M 0 0 
L 0 3.5 
" style="stroke: #000000; stroke-width: 0.8"/>
      </defs>
      <g>
       <use xlink:href="#m44645f5d2c" x="81.986122" y="529.308125" style="stroke: #000000; stroke-width: 0.8"/>
      </g>
     </g>
     <g id="text_1">
      <text style="font: 10px 'DejaVu Sans', 'Bitstream Vera Sans', 'Computer Modern Sans Serif', 'Lucida Grande', 'Verdana', 'Geneva', 'Lucid', 'Arial', 'Helvetica', 'Avant Garde', sans-serif; text-anchor: middle" x="81.986122" y="543.906563" transform="rotate(-0 81.986122 543.906563)">70</text>
     </g>
    </g>
    <g id="xtick_2">
     <g id="line2d_3">
      <path d="M 199.13527 529.308125 
L 199.13527 23.837812 
" clip-path="url(#p8d71d6788a)" style="fill: none; stroke: #b0b0b0; stroke-opacity: 0.3; stroke-width: 0.8; stroke-linecap: square"/>
     </g>
     <g id="line2d_4">
      <g>
       <use xlink:href="#m44645f5d2c" x="199.13527" y="529.308125" style="stroke: #000000; stroke-width: 0.8"/>
      </g>
     </g>
     <g id="text_2">
      <text style="font: 10px 'DejaVu Sans', 'Bitstream Vera Sans', 'Computer Modern Sans Serif', 'Lucida Grande', 'Verdana', 'Geneva', 'Lucid', 'Arial', 'Helvetica', 'Avant Garde', sans-serif; text-anchor: middle" x="199.13527" y="543.906563" transform="rotate(-0 199.13527 543.906563)">80</text>
     </g>
    </g>
    <g id="xtick_3">
     <g id="line2d_5">
      <path d="M 316.284418 529.308125 
L 316.284418 23.837812 
" clip-path="url(#p8d71d6788a)" style="fill: none; stroke: #b0b0b0; stroke-opacity: 0.3; stroke-width: 0.8; stroke-linecap: square"/>
     </g>
     <g id="line2d_6">
      <g>
       <use xlink:href="#m44645f5d2c" x="316.284418" y="529.308125" style="stroke: #000000; stroke-width: 0.8"/>
      </g>
     </g>
     <g id="text_3">
      <text style="font: 10px 'DejaVu Sans', 'Bitstream Vera Sans', 'Computer Modern Sans Serif', 'Lucida Grande', 'Verdana', 'Geneva', 'Lucid', 'Arial', 'Helvetica', 'Avant Garde', sans-serif; text-anchor: middle" x="316.284418" y="543.906563" transform="rotate(-0 316.284418 543.906563)">90</text>
     </g>
    </g>
    <g id="xtick_4">
     <g id="line2d_7">
      <path d="M 433.433565 529.308125 
L 433.433565 23.837812 
" clip-path="url(#p8d71d6788a)" style="fill: none; stroke: #b0b0b0; stroke-opacity: 0.3; stroke-width: 0.8; stroke-linecap: square"/>
     </g>
     <g id="line2d_8">
      <g>
       <use xlink:href="#m44645f5d2c" x="433.433565" y="529.308125" style="stroke: #000000; stroke-width: 0.8"/>
      </g>
     </g>
     <g id="text_4">
      <text style="font: 10px 'DejaVu Sans', 'Bitstream Vera Sans', 'Computer Modern Sans Serif', 'Lucida Grande', 'Verdana', 'Geneva', 'Lucid', 'Arial', 'Helvetica', 'Avant Garde', sans-serif; text-anchor: middle" x="433.433565" y="543.906563" transform="rotate(-0 433.433565 543.906563)">100</text>
     </g>
    </g>
    <g id="xtick_5">
     <g id="line2d_9">
      <path d="M 550.582713 529.308125 
L 550.582713 23.837812 
" clip-path="url(#p8d71d6788a)" style="fill: none; stroke: #b0b0b0; stroke-opacity: 0.3; stroke-width: 0.8; stroke-linecap: square"/>
     </g>
     <g id="line2d_10">
      <g>
       <use xlink:href="#m44645f5d2c" x="550.582713" y="529.308125" style="stroke: #000000; stroke-width: 0.8"/>
      </g>
     </g>
     <g id="text_5">
      <text style="font: 10px 'DejaVu Sans', 'Bitstream Vera Sans', 'Computer Modern Sans Serif', 'Lucida Grande', 'Verdana', 'Geneva', 'Lucid', 'Arial', 'Helvetica', 'Avant Garde', sans-serif; text-anchor: middle" x="550.582713" y="543.906563" transform="rotate(-0 550.582713 543.906563)">110</text>
     </g>
    </g>
    <g id="xtick_6">
     <g id="line2d_11">
      <path d="M 667.731861 529.308125 
L 667.731861 23.837812 
" clip-path="url(#p8d71d6788a)" style="fill: none; stroke: #b0b0b0; stroke-opacity: 0.3; stroke-width: 0.8; stroke-linecap: square"/>
     </g>
     <g id="line2d_12">
      <g>
       <use xlink:href="#m44645f5d2c" x="667.731861" y="529.308125" style="stroke: #000000; stroke-width: 0.8"/>
      </g>
     </g>
     <g id="text_6">
      <text style="font: 10px 'DejaVu Sans', 'Bitstream Vera Sans', 'Computer Modern Sans Serif', 'Lucida Grande', 'Verdana', 'Geneva', 'Lucid', 'Arial', 'Helvetica', 'Avant Garde', sans-serif; text-anchor: middle" x="667.731861" y="543.906563" transform="rotate(-0 667.731861 543.906563)">120</text>
     </g>
    </g>
    <g id="text_7">
     <text style="font: 12px 'DejaVu Sans', 'Bitstream Vera Sans', 'Computer Modern Sans Serif', 'Lucida Grande', 'Verdana', 'Geneva', 'Lucid', 'Arial', 'Helvetica', 'Avant Garde', sans-serif; text-anchor: middle" x="386.573906" y="559.104375" transform="rotate(-0 386.573906 559.104375)">Build Number</text>
    </g>
   </g>
   <g id="matplotlib.axis_2">
    <g id="ytick_1">
     <g id="line2d_13">
      <path d="M 64.41375 334.291639 
L 708.734063 334.291639 
" clip-path="url(#p8d71d6788a)" style="fill: none; stroke: #b0b0b0; stroke-opacity: 0.3; stroke-width: 0.8; stroke-linecap: square"/>
     </g>
     <g id="line2d_14">
      <defs>
       <path id="m3f3f1465d7" d="M 0 0 
L -3.5 0 
" style="stroke: #000000; stroke-width: 0.8"/>
      </defs>
      <g>
       <use xlink:href="#m3f3f1465d7" x="64.41375" y="334.291639" style="stroke: #000000; stroke-width: 0.8"/>
      </g>
     </g>
     <g id="text_8">
      <!-- $\mathdefault{10^{5}}$ -->
      <g transform="translate(39.81375 338.090858)">
       <text>
        <tspan style="font: 10px 'DejaVu Sans'" x="0 6.362305" y="-0.06406250000000036">10</tspan>
        <tspan style="font: 7px 'DejaVu Sans'" x="12.820312" y="-3.8921875000000004">5</tspan>
       </text>
      </g>
     </g>
    </g>
    <g id="ytick_2">
     <g id="line2d_15">
      <defs>
       <path id="m0d68f13fec" d="M 0 0 
L -2 0 
" style="stroke: #000000; stroke-width: 0.6"/>
      </defs>
      <g>
       <use xlink:href="#m0d68f13fec" x="64.41375" y="505.7097" style="stroke: #000000; stroke-width: 0.6"/>
      </g>
     </g>
     <g id="text_9">
      <!-- $\mathdefault{6\times10^{4}}$ -->
      <g transform="translate(22.81375 509.508919)">
       <text>
        <tspan style="font: 10px 'DejaVu Sans'" x="0 8.310547 18.637695 25" y="-0.06406250000000036">6×10</tspan>
        <tspan style="font: 7px 'DejaVu Sans'" x="31.458008" y="-3.8921875000000004">4</tspan>
       </text>
      </g>
     </g>
    </g>
    <g id="ytick_3">
     <g id="line2d_16">
      <g>
       <use xlink:href="#m0d68f13fec" x="64.41375" y="453.981264" style="stroke: #000000; stroke-width: 0.6"/>
      </g>
     </g>
    </g>
    <g id="ytick_4">
     <g id="line2d_17">
      <g>
       <use xlink:href="#m0d68f13fec" x="64.41375" y="409.172055" style="stroke: #000000; stroke-width: 0.6"/>
      </g>
     </g>
    </g>
    <g id="ytick_5">
     <g id="line2d_18">
      <g>
       <use xlink:href="#m0d68f13fec" x="64.41375" y="369.647531" style="stroke: #000000; stroke-width: 0.6"/>
      </g>
     </g>
    </g>
    <g id="ytick_6">
     <g id="line2d_19">
      <g>
       <use xlink:href="#m0d68f13fec" x="64.41375" y="101.691823" style="stroke: #000000; stroke-width: 0.6"/>
      </g>
     </g>
     <g id="text_10">
      <!-- $\mathdefault{2\times10^{5}}$ -->
      <g transform="translate(22.81375 105.491042)">
       <text>
        <tspan style="font: 10px 'DejaVu Sans'" x="0 8.310547 18.637695 25" y="-0.06406250000000036">2×10</tspan>
        <tspan style="font: 7px 'DejaVu Sans'" x="31.458008" y="-3.8921875000000004">5</tspan>
       </text>
      </g>
     </g>
    </g>
    <g id="text_11">
     <text style="font: 12px 'DejaVu Sans', 'Bitstream Vera Sans', 'Computer Modern Sans Serif', 'Lucida Grande', 'Verdana', 'Geneva', 'Lucid', 'Arial', 'Helvetica', 'Avant Garde', sans-serif; text-anchor: middle" x="16.318125" y="276.572969" transform="rotate(-90 16.318125 276.572969)">Median Elapsed Time (nanoseconds)</text>
    </g>
   </g>
   <g id="line2d_20">
    <path d="M 93.701037 46.813736 
L 105.415952 191.993804 
L 117.130866 203.583288 
L 128.845781 226.939206 
L 140.560696 249.293351 
L 152.275611 197.56458 
L 163.990526 217.514077 
L 175.70544 216.449271 
L 187.420355 213.414453 
L 199.13527 197.627325 
L 210.850185 255.061283 
L 222.565099 181.822836 
L 234.280014 48.546392 
L 245.994929 155.181473 
L 257.709844 255.056248 
L 269.424759 280.19621 
L 292.854588 250.483261 
L 304.569503 243.683337 
L 316.284418 243.288052 
L 327.999332 283.580852 
L 339.714247 283.575659 
L 351.429162 244.097042 
L 363.144077 245.4831 
L 374.858991 283.596143 
L 386.573906 244.026517 
L 398.288821 252.14706 
L 421.718651 107.746626 
L 433.433565 249.935013 
L 445.14848 47.122473 
L 456.863395 283.266816 
L 468.57831 237.087039 
L 480.293224 284.46166 
L 492.008139 243.282935 
L 503.723054 241.955645 
L 527.152884 283.561234 
L 538.867798 282.732565 
L 550.582713 243.462084 
L 562.297628 282.945875 
L 574.012543 244.993097 
L 597.442372 279.539663 
L 609.157287 243.134058 
L 620.872202 282.378211 
L 632.587116 266.883058 
L 644.302031 242.227643 
L 656.016946 283.083261 
L 667.731861 283.101986 
L 679.446776 284.490588 
" clip-path="url(#p8d71d6788a)" style="fill: none; stroke: #1f77b4; stroke-width: 2; stroke-linecap: square"/>
    <defs>
     <path id="m9b8f57d986" d="M 0 3 
C 0.795609 3 1.55874 2.683901 2.12132 2.12132 
C 2.683901 1.55874 3 0.795609 3 0 
C 3 -0.795609 2.683901 -1.55874 2.12132 -2.12132 
C 1.55874 -2.683901 0.795609 -3 0 -3 
C -0.795609 -3 -1.55874 -2.683901 -2.12132 -2.12132 
C -2.683901 -1.55874 -3 -0.795609 -3 0 
C -3 0.795609 -2.683901 1.55874 -2.12132 2.12132 
C -1.55874 2.683901 -0.795609 3 0 3 
z
" style="stroke: #1f77b4"/>
    </defs>
    <g clip-path="url(#p8d71d6788a)">
     <use xlink:href="#m9b8f57d986" x="93.701037" y="46.813736" style="fill: #1f77b4; stroke: #1f77b4"/>
     <use xlink:href="#m9b8f57d986" x="105.415952" y="191.993804" style="fill: #1f77b4; stroke: #1f77b4"/>
     <use xlink:href="#m9b8f57d986" x="117.130866" y="203.583288" style="fill: #1f77b4; stroke: #1f77b4"/>
     <use xlink:href="#m9b8f57d986" x="128.845781" y="226.939206" style="fill: #1f77b4; stroke: #1f77b4"/>
     <use xlink:href="#m9b8f57d986" x="140.560696" y="249.293351" style="fill: #1f77b4; stroke: #1f77b4"/>
     <use xlink:href="#m9b8f57d986" x="152.275611" y="197.56458" style="fill: #1f77b4; stroke: #1f77b4"/>
     <use xlink:href="#m9b8f57d986" x="163.990526" y="217.514077" style="fill: #1f77b4; stroke: #1f77b4"/>
     <use xlink:href="#m9b8f57d986" x="175.70544" y="216.449271" style="fill: #1f77b4; stroke: #1f77b4"/>
     <use xlink:href="#m9b8f57d986" x="187.420355" y="213.414453" style="fill: #1f77b4; stroke: #1f77b4"/>
     <use xlink:href="#m9b8f57d986" x="199.13527" y="197.627325" style="fill: #1f77b4; stroke: #1f77b4"/>
     <use xlink:href="#m9b8f57d986" x="210.850185" y="255.061283" style="fill: #1f77b4; stroke: #1f77b4"/>
     <use xlink:href="#m9b8f57d986" x="222.565099" y="181.822836" style="fill: #1f77b4; stroke: #1f77b4"/>
     <use xlink:href="#m9b8f57d986" x="234.280014" y="48.546392" style="fill: #1f77b4; stroke: #1f77b4"/>
     <use xlink:href="#m9b8f57d986" x="245.994929" y="155.181473" style="fill: #1f77b4; stroke: #1f77b4"/>
     <use xlink:href="#m9b8f57d986" x="257.709844" y="255.056248" style="fill: #1f77b4; stroke: #1f77b4"/>
     <use xlink:href="#m9b8f57d986" x="269.424759" y="280.19621" style="fill: #1f77b4; stroke: #1f77b4"/>
     <use xlink:href="#m9b8f57d986" x="292.854588" y="250.483261" style="fill: #1f77b4; stroke: #1f77b4"/>
     <use xlink:href="#m9b8f57d986" x="304.569503" y="243.683337" style="fill: #1f77b4; stroke: #1f77b4"/>
     <use xlink:href="#m9b8f57d986" x="316.284418" y="243.288052" style="fill: #1f77b4; stroke: #1f77b4"/>
     <use xlink:href="#m9b8f57d986" x="327.999332" y="283.580852" style="fill: #1f77b4; stroke: #1f77b4"/>
     <use xlink:href="#m9b8f57d986" x="339.714247" y="283.575659" style="fill: #1f77b4; stroke: #1f77b4"/>
     <use xlink:href="#m9b8f57d986" x="351.429162" y="244.097042" style="fill: #1f77b4; stroke: #1f77b4"/>
     <use xlink:href="#m9b8f57d986" x="363.144077" y="245.4831" style="fill: #1f77b4; stroke: #1f77b4"/>
     <use xlink:href="#m9b8f57d986" x="374.858991" y="283.596143" style="fill: #1f77b4; stroke: #1f77b4"/>
     <use xlink:href="#m9b8f57d986" x="386.573906" y="244.026517" style="fill: #1f77b4; stroke: #1f77b4"/>
     <use xlink:href="#m9b8f57d986" x="398.288821" y="252.14706" style="fill: #1f77b4; stroke: #1f77b4"/>
     <use xlink:href="#m9b8f57d986" x="421.718651" y="107.746626" style="fill: #1f77b4; stroke: #1f77b4"/>
     <use xlink:href="#m9b8f57d986" x="433.433565" y="249.935013" style="fill: #1f77b4; stroke: #1f77b4"/>
     <use xlink:href="#m9b8f57d986" x="445.14848" y="47.122473" style="fill: #1f77b4; stroke: #1f77b4"/>
     <use xlink:href="#m9b8f57d986" x="456.863395" y="283.266816" style="fill: #1f77b4; stroke: #1f77b4"/>
     <use xlink:href="#m9b8f57d986" x="468.57831" y="237.087039" style="fill: #1f77b4; stroke: #1f77b4"/>
     <use xlink:href="#m9b8f57d986" x="480.293224" y="284.46166" style="fill: #1f77b4; stroke: #1f77b4"/>
     <use xlink:href="#m9b8f57d986" x="492.008139" y="243.282935" style="fill: #1f77b4; stroke: #1f77b4"/>
     <use xlink:href="#m9b8f57d986" x="503.723054" y="241.955645" style="fill: #1f77b4; stroke: #1f77b4"/>
     <use xlink:href="#m9b8f57d986" x="527.152884" y="283.561234" style="fill: #1f77b4; stroke: #1f77b4"/>
     <use xlink:href="#m9b8f57d986" x="538.867798" y="282.732565" style="fill: #1f77b4; stroke: #1f77b4"/>
     <use xlink:href="#m9b8f57d986" x="550.582713" y="243.462084" style="fill: #1f77b4; stroke: #1f77b4"/>
     <use xlink:href="#m9b8f57d986" x="562.297628" y="282.945875" style="fill: #1f77b4; stroke: #1f77b4"/>
     <use xlink:href="#m9b8f57d986" x="574.012543" y="244.993097" style="fill: #1f77b4; stroke: #1f77b4"/>
     <use xlink:href="#m9b8f57d986" x="597.442372" y="279.539663" style="fill: #1f77b4; stroke: #1f77b4"/>
     <use xlink:href="#m9b8f57d986" x="609.157287" y="243.134058" style="fill: #1f77b4; stroke: #1f77b4"/>
     <use xlink:href="#m9b8f57d986" x="620.872202" y="282.378211" style="fill: #1f77b4; stroke: #1f77b4"/>
     <use xlink:href="#m9b8f57d986" x="632.587116" y="266.883058" style="fill: #1f77b4; stroke: #1f77b4"/>
     <use xlink:href="#m9b8f57d986" x="644.302031" y="242.227643" style="fill: #1f77b4; stroke: #1f77b4"/>
     <use xlink:href="#m9b8f57d986" x="656.016946" y="283.083261" style="fill: #1f77b4; stroke: #1f77b4"/>
     <use xlink:href="#m9b8f57d986" x="667.731861" y="283.101986" style="fill: #1f77b4; stroke: #1f77b4"/>
     <use xlink:href="#m9b8f57d986" x="679.446776" y="284.490588" style="fill: #1f77b4; stroke: #1f77b4"/>
    </g>
   </g>
   <g id="line2d_21">
    <path d="M 93.701037 240.963675 
L 105.415952 243.863598 
L 117.130866 244.090117 
L 128.845781 246.102545 
L 140.560696 239.261485 
L 152.275611 244.568784 
L 163.990526 239.50832 
L 175.70544 247.747045 
L 187.420355 241.093226 
L 199.13527 247.539422 
L 210.850185 242.14731 
L 222.565099 245.28202 
L 234.280014 248.914302 
L 245.994929 244.728064 
L 257.709844 249.45098 
L 269.424759 239.165431 
L 292.854588 244.109353 
L 304.569503 241.526717 
L 316.284418 244.443983 
L 327.999332 247.414482 
L 339.714247 239.866502 
L 351.429162 237.098844 
L 363.144077 237.606123 
L 374.858991 235.646113 
L 386.573906 280.614175 
L 398.288821 247.512733 
L 421.718651 279.756862 
L 433.433565 281.661443 
L 445.14848 280.709844 
L 456.863395 280.122753 
L 468.57831 279.068518 
L 480.293224 280.640628 
L 492.008139 279.542799 
L 503.723054 279.805152 
L 527.152884 278.523852 
L 538.867798 281.342606 
L 550.582713 277.611705 
L 562.297628 277.650819 
L 574.012543 277.88645 
L 597.442372 277.597534 
L 609.157287 275.094208 
L 620.872202 279.209807 
L 632.587116 278.976304 
L 644.302031 280.133953 
L 656.016946 278.249436 
L 667.731861 279.950675 
L 679.446776 280.301902 
" clip-path="url(#p8d71d6788a)" style="fill: none; stroke: #ff7f0e; stroke-width: 2; stroke-linecap: square"/>
    <defs>
     <path id="md5bcd7df53" d="M 0 3 
C 0.795609 3 1.55874 2.683901 2.12132 2.12132 
C 2.683901 1.55874 3 0.795609 3 0 
C 3 -0.795609 2.683901 -1.55874 2.12132 -2.12132 
C 1.55874 -2.683901 0.795609 -3 0 -3 
C -0.795609 -3 -1.55874 -2.683901 -2.12132 -2.12132 
C -2.683901 -1.55874 -3 -0.795609 -3 0 
C -3 0.795609 -2.683901 1.55874 -2.12132 2.12132 
C -1.55874 2.683901 -0.795609 3 0 3 
z
" style="stroke: #ff7f0e"/>
    </defs>
    <g clip-path="url(#p8d71d6788a)">
     <use xlink:href="#md5bcd7df53" x="93.701037" y="240.963675" style="fill: #ff7f0e; stroke: #ff7f0e"/>
     <use xlink:href="#md5bcd7df53" x="105.415952" y="243.863598" style="fill: #ff7f0e; stroke: #ff7f0e"/>
     <use xlink:href="#md5bcd7df53" x="117.130866" y="244.090117" style="fill: #ff7f0e; stroke: #ff7f0e"/>
     <use xlink:href="#md5bcd7df53" x="128.845781" y="246.102545" style="fill: #ff7f0e; stroke: #ff7f0e"/>
     <use xlink:href="#md5bcd7df53" x="140.560696" y="239.261485" style="fill: #ff7f0e; stroke: #ff7f0e"/>
     <use xlink:href="#md5bcd7df53" x="152.275611" y="244.568784" style="fill: #ff7f0e; stroke: #ff7f0e"/>
     <use xlink:href="#md5bcd7df53" x="163.990526" y="239.50832" style="fill: #ff7f0e; stroke: #ff7f0e"/>
     <use xlink:href="#md5bcd7df53" x="175.70544" y="247.747045" style="fill: #ff7f0e; stroke: #ff7f0e"/>
     <use xlink:href="#md5bcd7df53" x="187.420355" y="241.093226" style="fill: #ff7f0e; stroke: #ff7f0e"/>
     <use xlink:href="#md5bcd7df53" x="199.13527" y="247.539422" style="fill: #ff7f0e; stroke: #ff7f0e"/>
     <use xlink:href="#md5bcd7df53" x="210.850185" y="242.14731" style="fill: #ff7f0e; stroke: #ff7f0e"/>
     <use xlink:href="#md5bcd7df53" x="222.565099" y="245.28202" style="fill: #ff7f0e; stroke: #ff7f0e"/>
     <use xlink:href="#md5bcd7df53" x="234.280014" y="248.914302" style="fill: #ff7f0e; stroke: #ff7f0e"/>
     <use xlink:href="#md5bcd7df53" x="245.994929" y="244.728064" style="fill: #ff7f0e; stroke: #ff7f0e"/>
     <use xlink:href="#md5bcd7df53" x="257.709844" y="249.45098" style="fill: #ff7f0e; stroke: #ff7f0e"/>
     <use xlink:href="#md5bcd7df53" x="269.424759" y="239.165431" style="fill: #ff7f0e; stroke: #ff7f0e"/>
     <use xlink:href="#md5bcd7df53" x="292.854588" y="244.109353" style="fill: #ff7f0e; stroke: #ff7f0e"/>
     <use xlink:href="#md5bcd7df53" x="304.569503" y="241.526717" style="fill: #ff7f0e; stroke: #ff7f0e"/>
     <use xlink:href="#md5bcd7df53" x="316.284418" y="244.443983" style="fill: #ff7f0e; stroke: #ff7f0e"/>
     <use xlink:href="#md5bcd7df53" x="327.999332" y="247.414482" style="fill: #ff7f0e; stroke: #ff7f0e"/>
     <use xlink:href="#md5bcd7df53" x="339.714247" y="239.866502" style="fill: #ff7f0e; stroke: #ff7f0e"/>
     <use xlink:href="#md5bcd7df53" x="351.429162" y="237.098844" style="fill: #ff7f0e; stroke: #ff7f0e"/>
     <use xlink:href="#md5bcd7df53" x="363.144077" y="237.606123" style="fill: #ff7f0e; stroke: #ff7f0e"/>
     <use xlink:href="#md5bcd7df53" x="374.858991" y="235.646113" style="fill: #ff7f0e; stroke: #ff7f0e"/>
     <use xlink:href="#md5bcd7df53" x="386.573906" y="280.614175" style="fill: #ff7f0e; stroke: #ff7f0e"/>
     <use xlink:href="#md5bcd7df53" x="398.288821" y="247.512733" style="fill: #ff7f0e; stroke: #ff7f0e"/>
     <use xlink:href="#md5bcd7df53" x="421.718651" y="279.756862" style="fill: #ff7f0e; stroke: #ff7f0e"/>
     <use xlink:href="#md5bcd7df53" x="433.433565" y="281.661443" style="fill: #ff7f0e; stroke: #ff7f0e"/>
     <use xlink:href="#md5bcd7df53" x="445.14848" y="280.709844" style="fill: #ff7f0e; stroke: #ff7f0e"/>
     <use xlink:href="#md5bcd7df53" x="456.863395" y="280.122753" style="fill: #ff7f0e; stroke: #ff7f0e"/>
     <use xlink:href="#md5bcd7df53" x="468.57831" y="279.068518" style="fill: #ff7f0e; stroke: #ff7f0e"/>
     <use xlink:href="#md5bcd7df53" x="480.293224" y="280.640628" style="fill: #ff7f0e; stroke: #ff7f0e"/>
     <use xlink:href="#md5bcd7df53" x="492.008139" y="279.542799" style="fill: #ff7f0e; stroke: #ff7f0e"/>
     <use xlink:href="#md5bcd7df53" x="503.723054" y="279.805152" style="fill: #ff7f0e; stroke: #ff7f0e"/>
     <use xlink:href="#md5bcd7df53" x="527.152884" y="278.523852" style="fill: #ff7f0e; stroke: #ff7f0e"/>
     <use xlink:href="#md5bcd7df53" x="538.867798" y="281.342606" style="fill: #ff7f0e; stroke: #ff7f0e"/>
     <use xlink:href="#md5bcd7df53" x="550.582713" y="277.611705" style="fill: #ff7f0e; stroke: #ff7f0e"/>
     <use xlink:href="#md5bcd7df53" x="562.297628" y="277.650819" style="fill: #ff7f0e; stroke: #ff7f0e"/>
     <use xlink:href="#md5bcd7df53" x="574.012543" y="277.88645" style="fill: #ff7f0e; stroke: #ff7f0e"/>
     <use xlink:href="#md5bcd7df53" x="597.442372" y="277.597534" style="fill: #ff7f0e; stroke: #ff7f0e"/>
     <use xlink:href="#md5bcd7df53" x="609.157287" y="275.094208" style="fill: #ff7f0e; stroke: #ff7f0e"/>
     <use xlink:href="#md5bcd7df53" x="620.872202" y="279.209807" style="fill: #ff7f0e; stroke: #ff7f0e"/>
     <use xlink:href="#md5bcd7df53" x="632.587116" y="278.976304" style="fill: #ff7f0e; stroke: #ff7f0e"/>
     <use xlink:href="#md5bcd7df53" x="644.302031" y="280.133953" style="fill: #ff7f0e; stroke: #ff7f0e"/>
     <use xlink:href="#md5bcd7df53" x="656.016946" y="278.249436" style="fill: #ff7f0e; stroke: #ff7f0e"/>
     <use xlink:href="#md5bcd7df53" x="667.731861" y="279.950675" style="fill: #ff7f0e; stroke: #ff7f0e"/>
     <use xlink:href="#md5bcd7df53" x="679.446776" y="280.301902" style="fill: #ff7f0e; stroke: #ff7f0e"/>
    </g>
   </g>
   <g id="line2d_22">
    <path d="M 93.701037 414.551779 
L 105.415952 497.463966 
L 117.130866 414.97317 
L 128.845781 486.590358 
L 140.560696 488.58483 
L 152.275611 494.968464 
L 163.990526 431.17622 
L 175.70544 259.841298 
L 187.420355 504.165161 
L 199.13527 502.411088 
L 210.850185 448.322626 
L 222.565099 415.961606 
L 234.280014 472.805361 
L 257.709844 490.422322 
L 269.424759 432.542825 
L 292.854588 506.332202 
L 304.569503 259.267362 
L 316.284418 486.236577 
L 327.999332 481.772945 
L 339.714247 501.586919 
L 363.144077 503.321129 
L 374.858991 460.778799 
L 386.573906 459.561443 
L 398.288821 479.86882 
L 421.718651 480.855226 
L 433.433565 500.319467 
L 445.14848 505.890118 
L 456.863395 501.949525 
L 468.57831 487.90366 
L 480.293224 260.377715 
L 492.008139 480.387571 
L 503.723054 503.662823 
L 527.152884 478.550422 
L 538.867798 502.536827 
L 550.582713 478.931817 
L 574.012543 479.468257 
L 609.157287 480.315489 
L 620.872202 264.460841 
L 632.587116 266.315517 
L 644.302031 479.595516 
L 656.016946 480.747697 
L 667.731861 486.979948 
L 679.446776 482.643414 
" clip-path="url(#p8d71d6788a)" style="fill: none; stroke: #2ca02c; stroke-width: 2; stroke-linecap: square"/>
    <defs>
     <path id="mebf749e455" d="M 0 3 
C 0.795609 3 1.55874 2.683901 2.12132 2.12132 
C 2.683901 1.55874 3 0.795609 3 0 
C 3 -0.795609 2.683901 -1.55874 2.12132 -2.12132 
C 1.55874 -2.683901 0.795609 -3 0 -3 
C -0.795609 -3 -1.55874 -2.683901 -2.12132 -2.12132 
C -2.683901 -1.55874 -3 -0.795609 -3 0 
C -3 0.795609 -2.683901 1.55874 -2.12132 2.12132 
C -1.55874 2.683901 -0.795609 3 0 3 
z
" style="stroke: #2ca02c"/>
    </defs>
    <g clip-path="url(#p8d71d6788a)">
     <use xlink:href="#mebf749e455" x="93.701037" y="414.551779" style="fill: #2ca02c; stroke: #2ca02c"/>
     <use xlink:href="#mebf749e455" x="105.415952" y="497.463966" style="fill: #2ca02c; stroke: #2ca02c"/>
     <use xlink:href="#mebf749e455" x="117.130866" y="414.97317" style="fill: #2ca02c; stroke: #2ca02c"/>
     <use xlink:href="#mebf749e455" x="128.845781" y="486.590358" style="fill: #2ca02c; stroke: #2ca02c"/>
     <use xlink:href="#mebf749e455" x="140.560696" y="488.58483" style="fill: #2ca02c; stroke: #2ca02c"/>
     <use xlink:href="#mebf749e455" x="152.275611" y="494.968464" style="fill: #2ca02c; stroke: #2ca02c"/>
     <use xlink:href="#mebf749e455" x="163.990526" y="431.17622" style="fill: #2ca02c; stroke: #2ca02c"/>
     <use xlink:href="#mebf749e455" x="175.70544" y="259.841298" style="fill: #2ca02c; stroke: #2ca02c"/>
     <use xlink:href="#mebf749e455" x="187.420355" y="504.165161" style="fill: #2ca02c; stroke: #2ca02c"/>
     <use xlink:href="#mebf749e455" x="199.13527" y="502.411088" style="fill: #2ca02c; stroke: #2ca02c"/>
     <use xlink:href="#mebf749e455" x="210.850185" y="448.322626" style="fill: #2ca02c; stroke: #2ca02c"/>
     <use xlink:href="#mebf749e455" x="222.565099" y="415.961606" style="fill: #2ca02c; stroke: #2ca02c"/>
     <use xlink:href="#mebf749e455" x="234.280014" y="472.805361" style="fill: #2ca02c; stroke: #2ca02c"/>
     <use xlink:href="#mebf749e455" x="257.709844" y="490.422322" style="fill: #2ca02c; stroke: #2ca02c"/>
     <use xlink:href="#mebf749e455" x="269.424759" y="432.542825" style="fill: #2ca02c; stroke: #2ca02c"/>
     <use xlink:href="#mebf749e455" x="292.854588" y="506.332202" style="fill: #2ca02c; stroke: #2ca02c"/>
     <use xlink:href="#mebf749e455" x="304.569503" y="259.267362" style="fill: #2ca02c; stroke: #2ca02c"/>
     <use xlink:href="#mebf749e455" x="316.284418" y="486.236577" style="fill: #2ca02c; stroke: #2ca02c"/>
     <use xlink:href="#mebf749e455" x="327.999332" y="481.772945" style="fill: #2ca02c; stroke: #2ca02c"/>
     <use xlink:href="#mebf749e455" x="339.714247" y="501.586919" style="fill: #2ca02c; stroke: #2ca02c"/>
     <use xlink:href="#mebf749e455" x="363.144077" y="503.321129" style="fill: #2ca02c; stroke: #2ca02c"/>
     <use xlink:href="#mebf749e455" x="374.858991" y="460.778799" style="fill: #2ca02c; stroke: #2ca02c"/>
     <use xlink:href="#mebf749e455" x="386.573906" y="459.561443" style="fill: #2ca02c; stroke: #2ca02c"/>
     <use xlink:href="#mebf749e455" x="398.288821" y="479.86882" style="fill: #2ca02c; stroke: #2ca02c"/>
     <use xlink:href="#mebf749e455" x="421.718651" y="480.855226" style="fill: #2ca02c; stroke: #2ca02c"/>
     <use xlink:href="#mebf749e455" x="433.433565" y="500.319467" style="fill: #2ca02c; stroke: #2ca02c"/>
     <use xlink:href="#mebf749e455" x="445.14848" y="505.890118" style="fill: #2ca02c; stroke: #2ca02c"/>
     <use xlink:href="#mebf749e455" x="456.863395" y="501.949525" style="fill: #2ca02c; stroke: #2ca02c"/>
     <use xlink:href="#mebf749e455" x="468.57831" y="487.90366" style="fill: #2ca02c; stroke: #2ca02c"/>
     <use xlink:href="#mebf749e455" x="480.293224" y="260.377715" style="fill: #2ca02c; stroke: #2ca02c"/>
     <use xlink:href="#mebf749e455" x="492.008139" y="480.387571" style="fill: #2ca02c; stroke: #2ca02c"/>
     <use xlink:href="#mebf749e455" x="503.723054" y="503.662823" style="fill: #2ca02c; stroke: #2ca02c"/>
     <use xlink:href="#mebf749e455" x="527.152884" y="478.550422" style="fill: #2ca02c; stroke: #2ca02c"/>
     <use xlink:href="#mebf749e455" x="538.867798" y="502.536827" style="fill: #2ca02c; stroke: #2ca02c"/>
     <use xlink:href="#mebf749e455" x="550.582713" y="478.931817" style="fill: #2ca02c; stroke: #2ca02c"/>
     <use xlink:href="#mebf749e455" x="574.012543" y="479.468257" style="fill: #2ca02c; stroke: #2ca02c"/>
     <use xlink:href="#mebf749e455" x="609.157287" y="480.315489" style="fill: #2ca02c; stroke: #2ca02c"/>
     <use xlink:href="#mebf749e455" x="620.872202" y="264.460841" style="fill: #2ca02c; stroke: #2ca02c"/>
     <use xlink:href="#mebf749e455" x="632.587116" y="266.315517" style="fill: #2ca02c; stroke: #2ca02c"/>
     <use xlink:href="#mebf749e455" x="644.302031" y="479.595516" style="fill: #2ca02c; stroke: #2ca02c"/>
     <use xlink:href="#mebf749e455" x="656.016946" y="480.747697" style="fill: #2ca02c; stroke: #2ca02c"/>
     <use xlink:href="#mebf749e455" x="667.731861" y="486.979948" style="fill: #2ca02c; stroke: #2ca02c"/>
     <use xlink:href="#mebf749e455" x="679.446776" y="482.643414" style="fill: #2ca02c; stroke: #2ca02c"/>
    </g>
   </g>
   <g id="line2d_23">
    <path d="M 93.701037 459.866222 
L 105.415952 455.143871 
L 117.130866 459.420607 
L 128.845781 457.27833 
L 140.560696 460.575215 
L 152.275611 466.993507 
L 163.990526 458.812133 
L 175.70544 457.180552 
L 187.420355 460.001714 
L 199.13527 457.742438 
L 210.850185 461.889521 
L 222.565099 465.712231 
L 234.280014 421.868996 
L 257.709844 457.412458 
L 269.424759 454.1049 
L 292.854588 488.92886 
L 304.569503 458.206217 
L 316.284418 456.170075 
L 327.999332 461.129246 
L 339.714247 463.233246 
L 363.144077 459.084593 
L 374.858991 457.457502 
L 386.573906 478.796034 
L 398.288821 480.720181 
L 421.718651 466.047993 
L 433.433565 478.470998 
L 445.14848 479.912321 
L 456.863395 480.445663 
L 468.57831 480.535415 
L 480.293224 481.301371 
L 492.008139 479.19993 
L 503.723054 481.650745 
L 527.152884 479.964115 
L 538.867798 477.156529 
L 550.582713 479.532915 
L 574.012543 478.356021 
L 609.157287 479.652501 
L 620.872202 473.040713 
L 632.587116 478.914776 
L 644.302031 482.302114 
L 656.016946 477.868194 
L 667.731861 480.654774 
L 679.446776 478.980361 
" clip-path="url(#p8d71d6788a)" style="fill: none; stroke: #d62728; stroke-width: 2; stroke-linecap: square"/>
    <defs>
     <path id="m9f30d1811e" d="M 0 3 
C 0.795609 3 1.55874 2.683901 2.12132 2.12132 
C 2.683901 1.55874 3 0.795609 3 0 
C 3 -0.795609 2.683901 -1.55874 2.12132 -2.12132 
C 1.55874 -2.683901 0.795609 -3 0 -3 
C -0.795609 -3 -1.55874 -2.683901 -2.12132 -2.12132 
C -2.683901 -1.55874 -3 -0.795609 -3 0 
C -3 0.795609 -2.683901 1.55874 -2.12132 2.12132 
C -1.55874 2.683901 -0.795609 3 0 3 
z
" style="stroke: #d62728"/>
    </defs>
    <g clip-path="url(#p8d71d6788a)">
     <use xlink:href="#m9f30d1811e" x="93.701037" y="459.866222" style="fill: #d62728; stroke: #d62728"/>
     <use xlink:href="#m9f30d1811e" x="105.415952" y="455.143871" style="fill: #d62728; stroke: #d62728"/>
     <use xlink:href="#m9f30d1811e" x="117.130866" y="459.420607" style="fill: #d62728; stroke: #d62728"/>
     <use xlink:href="#m9f30d1811e" x="128.845781" y="457.27833" style="fill: #d62728; stroke: #d62728"/>
     <use xlink:href="#m9f30d1811e" x="140.560696" y="460.575215" style="fill: #d62728; stroke: #d62728"/>
     <use xlink:href="#m9f30d1811e" x="152.275611" y="466.993507" style="fill: #d62728; stroke: #d62728"/>
     <use xlink:href="#m9f30d1811e" x="163.990526" y="458.812133" style="fill: #d62728; stroke: #d62728"/>
     <use xlink:href="#m9f30d1811e" x="175.70544" y="457.180552" style="fill: #d62728; stroke: #d62728"/>
     <use xlink:href="#m9f30d1811e" x="187.420355" y="460.001714" style="fill: #d62728; stroke: #d62728"/>
     <use xlink:href="#m9f30d1811e" x="199.13527" y="457.742438" style="fill: #d62728; stroke: #d62728"/>
     <use xlink:href="#m9f30d1811e" x="210.850185" y="461.889521" style="fill: #d62728; stroke: #d62728"/>
     <use xlink:href="#m9f30d1811e" x="222.565099" y="465.712231" style="fill: #d62728; stroke: #d62728"/>
     <use xlink:href="#m9f30d1811e" x="234.280014" y="421.868996" style="fill: #d62728; stroke: #d62728"/>
     <use xlink:href="#m9f30d1811e" x="257.709844" y="457.412458" style="fill: #d62728; stroke: #d62728"/>
     <use xlink:href="#m9f30d1811e" x="269.424759" y="454.1049" style="fill: #d62728; stroke: #d62728"/>
     <use xlink:href="#m9f30d1811e" x="292.854588" y="488.92886" style="fill: #d62728; stroke: #d62728"/>
     <use xlink:href="#m9f30d1811e" x="304.569503" y="458.206217" style="fill: #d62728; stroke: #d62728"/>
     <use xlink:href="#m9f30d1811e" x="316.284418" y="456.170075" style="fill: #d62728; stroke: #d62728"/>
     <use xlink:href="#m9f30d1811e" x="327.999332" y="461.129246" style="fill: #d62728; stroke: #d62728"/>
     <use xlink:href="#m9f30d1811e" x="339.714247" y="463.233246" style="fill: #d62728; stroke: #d62728"/>
     <use xlink:href="#m9f30d1811e" x="363.144077" y="459.084593" style="fill: #d62728; stroke: #d62728"/>
     <use xlink:href="#m9f30d1811e" x="374.858991" y="457.457502" style="fill: #d62728; stroke: #d62728"/>
     <use xlink:href="#m9f30d1811e" x="386.573906" y="478.796034" style="fill: #d62728; stroke: #d62728"/>
     <use xlink:href="#m9f30d1811e" x="398.288821" y="480.720181" style="fill: #d62728; stroke: #d62728"/>
     <use xlink:href="#m9f30d1811e" x="421.718651" y="466.047993" style="fill: #d62728; stroke: #d62728"/>
     <use xlink:href="#m9f30d1811e" x="433.433565" y="478.470998" style="fill: #d62728; stroke: #d62728"/>
     <use xlink:href="#m9f30d1811e" x="445.14848" y="479.912321" style="fill: #d62728; stroke: #d62728"/>
     <use xlink:href="#m9f30d1811e" x="456.863395" y="480.445663" style="fill: #d62728; stroke: #d62728"/>
     <use xlink:href="#m9f30d1811e" x="468.57831" y="480.535415" style="fill: #d62728; stroke: #d62728"/>
     <use xlink:href="#m9f30d1811e" x="480.293224" y="481.301371" style="fill: #d62728; stroke: #d62728"/>
     <use xlink:href="#m9f30d1811e" x="492.008139" y="479.19993" style="fill: #d62728; stroke: #d62728"/>
     <use xlink:href="#m9f30d1811e" x="503.723054" y="481.650745" style="fill: #d62728; stroke: #d62728"/>
     <use xlink:href="#m9f30d1811e" x="527.152884" y="479.964115" style="fill: #d62728; stroke: #d62728"/>
     <use xlink:href="#m9f30d1811e" x="538.867798" y="477.156529" style="fill: #d62728; stroke: #d62728"/>
     <use xlink:href="#m9f30d1811e" x="550.582713" y="479.532915" style="fill: #d62728; stroke: #d62728"/>
     <use xlink:href="#m9f30d1811e" x="574.012543" y="478.356021" style="fill: #d62728; stroke: #d62728"/>
     <use xlink:href="#m9f30d1811e" x="609.157287" y="479.652501" style="fill: #d62728; stroke: #d62728"/>
     <use xlink:href="#m9f30d1811e" x="620.872202" y="473.040713" style="fill: #d62728; stroke: #d62728"/>
     <use xlink:href="#m9f30d1811e" x="632.587116" y="478.914776" style="fill: #d62728; stroke: #d62728"/>
     <use xlink:href="#m9f30d1811e" x="644.302031" y="482.302114" style="fill: #d62728; stroke: #d62728"/>
     <use xlink:href="#m9f30d1811e" x="656.016946" y="477.868194" style="fill: #d62728; stroke: #d62728"/>
     <use xlink:href="#m9f30d1811e" x="667.731861" y="480.654774" style="fill: #d62728; stroke: #d62728"/>
     <use xlink:href="#m9f30d1811e" x="679.446776" y="478.980361" style="fill: #d62728; stroke: #d62728"/>
    </g>
   </g>
   <g id="patch_3">
    <path d="M 64.41375 529.308125 
L 64.41375 23.837813 
" style="fill: none; stroke: #000000; stroke-width: 0.8; stroke-linejoin: miter; stroke-linecap: square"/>
   </g>
   <g id="patch_4">
    <path d="M 708.734063 529.308125 
L 708.734063 23.837813 
" style="fill: none; stroke: #000000; stroke-width: 0.8; stroke-linejoin: miter; stroke-linecap: square"/>
   </g>
   <g id="patch_5">
    <path d="M 64.41375 529.308125 
L 708.734062 529.308125 
" style="fill: none; stroke: #000000; stroke-width: 0.8; stroke-linejoin: miter; stroke-linecap: square"/>
   </g>
   <g id="patch_6">
    <path d="M 64.41375 23.837812 
L 708.734062 23.837812 
" style="fill: none; stroke: #000000; stroke-width: 0.8; stroke-linejoin: miter; stroke-linecap: square"/>
   </g>
   <g id="text_12">
    <text style="font: 700 14px 'DejaVu Sans', 'Bitstream Vera Sans', 'Computer Modern Sans Serif', 'Lucida Grande', 'Verdana', 'Geneva', 'Lucid', 'Arial', 'Helvetica', 'Avant Garde', sans-serif; text-anchor: middle" x="386.573906" y="17.837813" transform="rotate(-0 386.573906 17.837813)">Nestedparallel - Performance Trend</text>
   </g>
   <g id="legend_1">
    <g id="patch_7">
     <path d="M 747.950078 90.550312 
L 846.336016 90.550312 
Q 848.336016 90.550312 848.336016 88.550312 
L 848.336016 30.837812 
Q 848.336016 28.837812 846.336016 28.837812 
L 747.950078 28.837812 
Q 745.950078 28.837812 745.950078 30.837812 
L 745.950078 88.550312 
Q 745.950078 90.550312 747.950078 90.550312 
z
" style="fill: #ffffff; opacity: 0.8; stroke: #cccccc; stroke-linejoin: miter"/>
    </g>
    <g id="line2d_24">
     <path d="M 749.950078 36.93625 
L 759.950078 36.93625 
L 769.950078 36.93625 
" style="fill: none; stroke: #1f77b4; stroke-width: 2; stroke-linecap: square"/>
     <g>
      <use xlink:href="#m9b8f57d986" x="759.950078" y="36.93625" style="fill: #1f77b4; stroke: #1f77b4"/>
     </g>
    </g>
    <g id="text_13">
     <text style="font: 10px 'DejaVu Sans', 'Bitstream Vera Sans', 'Computer Modern Sans Serif', 'Lucida Grande', 'Verdana', 'Geneva', 'Lucid', 'Arial', 'Helvetica', 'Avant Garde', sans-serif; text-anchor: start" x="777.950078" y="40.43625" transform="rotate(-0 777.950078 40.43625)">gcc-14.2 - V1</text>
    </g>
    <g id="line2d_25">
     <path d="M 749.950078 51.614375 
L 759.950078 51.614375 
L 769.950078 51.614375 
" style="fill: none; stroke: #ff7f0e; stroke-width: 2; stroke-linecap: square"/>
     <g>
      <use xlink:href="#md5bcd7df53" x="759.950078" y="51.614375" style="fill: #ff7f0e; stroke: #ff7f0e"/>
     </g>
    </g>
    <g id="text_14">
     <text style="font: 10px 'DejaVu Sans', 'Bitstream Vera Sans', 'Computer Modern Sans Serif', 'Lucida Grande', 'Verdana', 'Geneva', 'Lucid', 'Arial', 'Helvetica', 'Avant Garde', sans-serif; text-anchor: start" x="777.950078" y="55.114375" transform="rotate(-0 777.950078 55.114375)">gcc-14.2 - V2</text>
    </g>
    <g id="line2d_26">
     <path d="M 749.950078 66.2925 
L 759.950078 66.2925 
L 769.950078 66.2925 
" style="fill: none; stroke: #2ca02c; stroke-width: 2; stroke-linecap: square"/>
     <g>
      <use xlink:href="#mebf749e455" x="759.950078" y="66.2925" style="fill: #2ca02c; stroke: #2ca02c"/>
     </g>
    </g>
    <g id="text_15">
     <text style="font: 10px 'DejaVu Sans', 'Bitstream Vera Sans', 'Computer Modern Sans Serif', 'Lucida Grande', 'Verdana', 'Geneva', 'Lucid', 'Arial', 'Helvetica', 'Avant Garde', sans-serif; text-anchor: start" x="777.950078" y="69.7925" transform="rotate(-0 777.950078 69.7925)">gcc-4.2 - V1</text>
    </g>
    <g id="line2d_27">
     <path d="M 749.950078 80.970625 
L 759.950078 80.970625 
L 769.950078 80.970625 
" style="fill: none; stroke: #d62728; stroke-width: 2; stroke-linecap: square"/>
     <g>
      <use xlink:href="#m9f30d1811e" x="759.950078" y="80.970625" style="fill: #d62728; stroke: #d62728"/>
     </g>
    </g>
    <g id="text_16">
     <text style="font: 10px 'DejaVu Sans', 'Bitstream Vera Sans', 'Computer Modern Sans Serif', 'Lucida Grande', 'Verdana', 'Geneva', 'Lucid', 'Arial', 'Helvetica', 'Avant Garde', sans-serif; text-anchor: start" x="777.950078" y="84.470625" transform="rotate(-0 777.950078 84.470625)">gcc-4.2 - V2</text>
    </g>
   </g>
  </g>
 </g>
 <defs>
  <clipPath id="p8d71d6788a">
   <rect x="64.41375" y="23.837813" width="644.320312" height="505.470313"/>
  </clipPath>
 </defs>
</svg>
