<?xml version="1.0" encoding="utf-8" standalone="no"?>
<!DOCTYPE svg PUBLIC "-//W3C//DTD SVG 1.1//EN"
  "http://www.w3.org/Graphics/SVG/1.1/DTD/svg11.dtd">
<svg xmlns:xlink="http://www.w3.org/1999/xlink" width="855.204687pt" height="568.8pt" viewBox="0 0 855.204687 568.8" xmlns="http://www.w3.org/2000/svg" version="1.1">
 <metadata>
  <rdf:RDF xmlns:dc="http://purl.org/dc/elements/1.1/" xmlns:cc="http://creativecommons.org/ns#" xmlns:rdf="http://www.w3.org/1999/02/22-rdf-syntax-ns#">
   <cc:Work>
    <dc:type rdf:resource="http://purl.org/dc/dcmitype/StillImage"/>
    <dc:date>2025-08-31T21:46:01.061876</dc:date>
    <dc:format>image/svg+xml</dc:format>
    <dc:creator>
     <cc:Agent>
      <dc:title>Matplotlib v3.9.4, https://matplotlib.org/</dc:title>
     </cc:Agent>
    </dc:creator>
   </cc:Work>
  </rdf:RDF>
 </metadata>
 <defs>
  <style type="text/css">*{stroke-linejoin: round; stroke-linecap: butt}</style>
 </defs>
 <g id="figure_1">
  <g id="patch_1">
   <path d="M 0 568.8 
L 855.204687 568.8 
L 855.204687 0 
L 0 0 
z
" style="fill: #ffffff"/>
  </g>
  <g id="axes_1">
   <g id="patch_2">
    <path d="M 64.41375 529.308125 
L 702.1075 529.308125 
L 702.1075 23.837812 
L 64.41375 23.837812 
z
" style="fill: #ffffff"/>
   </g>
   <g id="matplotlib.axis_1">
    <g id="xtick_1">
     <g id="line2d_1">
      <path d="M 80.517128 529.308125 
L 80.517128 23.837812 
" clip-path="url(#p620e495ed5)" style="fill: none; stroke: #b0b0b0; stroke-opacity: 0.3; stroke-width: 0.8; stroke-linecap: square"/>
     </g>
     <g id="line2d_2">
      <defs>
       <path id="me3fb7b9f43" d="M 0 0 
L 0 3.5 
" style="stroke: #000000; stroke-width: 0.8"/>
      </defs>
      <g>
       <use xlink:href="#me3fb7b9f43" x="80.517128" y="529.308125" style="stroke: #000000; stroke-width: 0.8"/>
      </g>
     </g>
     <g id="text_1">
      <text style="font: 10px 'DejaVu Sans', 'Bitstream Vera Sans', 'Computer Modern Sans Serif', 'Lucida Grande', 'Verdana', 'Geneva', 'Lucid', 'Arial', 'Helvetica', 'Avant Garde', sans-serif; text-anchor: middle" x="80.517128" y="543.906563" transform="rotate(-0 80.517128 543.906563)">70</text>
     </g>
    </g>
    <g id="xtick_2">
     <g id="line2d_3">
      <path d="M 209.344148 529.308125 
L 209.344148 23.837812 
" clip-path="url(#p620e495ed5)" style="fill: none; stroke: #b0b0b0; stroke-opacity: 0.3; stroke-width: 0.8; stroke-linecap: square"/>
     </g>
     <g id="line2d_4">
      <g>
       <use xlink:href="#me3fb7b9f43" x="209.344148" y="529.308125" style="stroke: #000000; stroke-width: 0.8"/>
      </g>
     </g>
     <g id="text_2">
      <text style="font: 10px 'DejaVu Sans', 'Bitstream Vera Sans', 'Computer Modern Sans Serif', 'Lucida Grande', 'Verdana', 'Geneva', 'Lucid', 'Arial', 'Helvetica', 'Avant Garde', sans-serif; text-anchor: middle" x="209.344148" y="543.906563" transform="rotate(-0 209.344148 543.906563)">80</text>
     </g>
    </g>
    <g id="xtick_3">
     <g id="line2d_5">
      <path d="M 338.171168 529.308125 
L 338.171168 23.837812 
" clip-path="url(#p620e495ed5)" style="fill: none; stroke: #b0b0b0; stroke-opacity: 0.3; stroke-width: 0.8; stroke-linecap: square"/>
     </g>
     <g id="line2d_6">
      <g>
       <use xlink:href="#me3fb7b9f43" x="338.171168" y="529.308125" style="stroke: #000000; stroke-width: 0.8"/>
      </g>
     </g>
     <g id="text_3">
      <text style="font: 10px 'DejaVu Sans', 'Bitstream Vera Sans', 'Computer Modern Sans Serif', 'Lucida Grande', 'Verdana', 'Geneva', 'Lucid', 'Arial', 'Helvetica', 'Avant Garde', sans-serif; text-anchor: middle" x="338.171168" y="543.906563" transform="rotate(-0 338.171168 543.906563)">90</text>
     </g>
    </g>
    <g id="xtick_4">
     <g id="line2d_7">
      <path d="M 466.998188 529.308125 
L 466.998188 23.837812 
" clip-path="url(#p620e495ed5)" style="fill: none; stroke: #b0b0b0; stroke-opacity: 0.3; stroke-width: 0.8; stroke-linecap: square"/>
     </g>
     <g id="line2d_8">
      <g>
       <use xlink:href="#me3fb7b9f43" x="466.998188" y="529.308125" style="stroke: #000000; stroke-width: 0.8"/>
      </g>
     </g>
     <g id="text_4">
      <text style="font: 10px 'DejaVu Sans', 'Bitstream Vera Sans', 'Computer Modern Sans Serif', 'Lucida Grande', 'Verdana', 'Geneva', 'Lucid', 'Arial', 'Helvetica', 'Avant Garde', sans-serif; text-anchor: middle" x="466.998188" y="543.906563" transform="rotate(-0 466.998188 543.906563)">100</text>
     </g>
    </g>
    <g id="xtick_5">
     <g id="line2d_9">
      <path d="M 595.825208 529.308125 
L 595.825208 23.837812 
" clip-path="url(#p620e495ed5)" style="fill: none; stroke: #b0b0b0; stroke-opacity: 0.3; stroke-width: 0.8; stroke-linecap: square"/>
     </g>
     <g id="line2d_10">
      <g>
       <use xlink:href="#me3fb7b9f43" x="595.825208" y="529.308125" style="stroke: #000000; stroke-width: 0.8"/>
      </g>
     </g>
     <g id="text_5">
      <text style="font: 10px 'DejaVu Sans', 'Bitstream Vera Sans', 'Computer Modern Sans Serif', 'Lucida Grande', 'Verdana', 'Geneva', 'Lucid', 'Arial', 'Helvetica', 'Avant Garde', sans-serif; text-anchor: middle" x="595.825208" y="543.906563" transform="rotate(-0 595.825208 543.906563)">110</text>
     </g>
    </g>
    <g id="text_6">
     <text style="font: 12px 'DejaVu Sans', 'Bitstream Vera Sans', 'Computer Modern Sans Serif', 'Lucida Grande', 'Verdana', 'Geneva', 'Lucid', 'Arial', 'Helvetica', 'Avant Garde', sans-serif; text-anchor: middle" x="383.260625" y="559.104375" transform="rotate(-0 383.260625 559.104375)">Build Number</text>
    </g>
   </g>
   <g id="matplotlib.axis_2">
    <g id="ytick_1">
     <g id="line2d_11">
      <defs>
       <path id="m6080727d0d" d="M 0 0 
L -2 0 
" style="stroke: #000000; stroke-width: 0.6"/>
      </defs>
      <g>
       <use xlink:href="#m6080727d0d" x="64.41375" y="418.432278" style="stroke: #000000; stroke-width: 0.6"/>
      </g>
     </g>
     <g id="text_7">
      <!-- $\mathdefault{3\times10^{5}}$ -->
      <g transform="translate(22.81375 422.231497)">
       <text>
        <tspan style="font: 10px 'DejaVu Sans'" x="0 8.310547 18.637695 25" y="-0.06406250000000036">3×10</tspan>
        <tspan style="font: 7px 'DejaVu Sans'" x="31.458008" y="-3.8921875000000004">5</tspan>
       </text>
      </g>
     </g>
    </g>
    <g id="ytick_2">
     <g id="line2d_12">
      <g>
       <use xlink:href="#m6080727d0d" x="64.41375" y="313.355466" style="stroke: #000000; stroke-width: 0.6"/>
      </g>
     </g>
     <g id="text_8">
      <!-- $\mathdefault{4\times10^{5}}$ -->
      <g transform="translate(22.81375 317.154684)">
       <text>
        <tspan style="font: 10px 'DejaVu Sans'" x="0 8.310547 18.637695 25" y="-0.06406250000000036">4×10</tspan>
        <tspan style="font: 7px 'DejaVu Sans'" x="31.458008" y="-3.8921875000000004">5</tspan>
       </text>
      </g>
     </g>
    </g>
    <g id="ytick_3">
     <g id="line2d_13">
      <g>
       <use xlink:href="#m6080727d0d" x="64.41375" y="231.851558" style="stroke: #000000; stroke-width: 0.6"/>
      </g>
     </g>
    </g>
    <g id="ytick_4">
     <g id="line2d_14">
      <g>
       <use xlink:href="#m6080727d0d" x="64.41375" y="165.258016" style="stroke: #000000; stroke-width: 0.6"/>
      </g>
     </g>
     <g id="text_9">
      <!-- $\mathdefault{6\times10^{5}}$ -->
      <g transform="translate(22.81375 169.057235)">
       <text>
        <tspan style="font: 10px 'DejaVu Sans'" x="0 8.310547 18.637695 25" y="-0.06406250000000036">6×10</tspan>
        <tspan style="font: 7px 'DejaVu Sans'" x="31.458008" y="-3.8921875000000004">5</tspan>
       </text>
      </g>
     </g>
    </g>
    <g id="ytick_5">
     <g id="line2d_15">
      <g>
       <use xlink:href="#m6080727d0d" x="64.41375" y="108.953979" style="stroke: #000000; stroke-width: 0.6"/>
      </g>
     </g>
    </g>
    <g id="ytick_6">
     <g id="line2d_16">
      <g>
       <use xlink:href="#m6080727d0d" x="64.41375" y="60.181203" style="stroke: #000000; stroke-width: 0.6"/>
      </g>
     </g>
    </g>
    <g id="text_10">
     <text style="font: 12px 'DejaVu Sans', 'Bitstream Vera Sans', 'Computer Modern Sans Serif', 'Lucida Grande', 'Verdana', 'Geneva', 'Lucid', 'Arial', 'Helvetica', 'Avant Garde', sans-serif; text-anchor: middle" x="16.318125" y="276.572969" transform="rotate(-90 16.318125 276.572969)">Median Elapsed Time (nanoseconds)</text>
    </g>
   </g>
   <g id="line2d_17">
    <path d="M 93.39983 482.850289 
L 106.282532 272.436851 
L 119.165234 291.181531 
L 132.047936 404.67794 
L 144.930638 274.444232 
L 157.81334 480.388037 
L 170.696042 403.415098 
L 183.578744 209.896651 
L 196.461446 266.582403 
L 209.344148 483.408849 
L 222.22685 434.397313 
L 235.109552 271.574978 
L 247.992254 458.880205 
L 260.874956 377.778124 
L 273.757658 346.820195 
L 286.64036 486.263933 
L 312.405764 428.787994 
L 325.288466 163.598126 
L 338.171168 402.372911 
L 351.05387 150.604352 
L 363.936572 351.252367 
L 376.819274 232.283323 
L 389.701976 488.047828 
L 402.584678 320.610852 
L 415.46738 486.408067 
L 428.350082 269.465911 
L 454.115486 455.460415 
L 466.998188 335.092602 
L 479.88089 488.506413 
L 492.763592 485.385114 
L 505.646294 305.041314 
L 518.528996 482.973904 
L 531.411698 486.423173 
L 544.2944 293.269601 
L 570.059804 285.422031 
L 582.942506 270.134725 
L 595.825208 376.863524 
L 608.70791 338.776936 
L 621.590612 483.284651 
L 647.356016 274.593658 
L 660.238718 349.182879 
L 673.12142 355.8715 
" clip-path="url(#p620e495ed5)" style="fill: none; stroke: #1f77b4; stroke-width: 2; stroke-linecap: square"/>
    <defs>
     <path id="mb37346a9e7" d="M 0 3 
C 0.795609 3 1.55874 2.683901 2.12132 2.12132 
C 2.683901 1.55874 3 0.795609 3 0 
C 3 -0.795609 2.683901 -1.55874 2.12132 -2.12132 
C 1.55874 -2.683901 0.795609 -3 0 -3 
C -0.795609 -3 -1.55874 -2.683901 -2.12132 -2.12132 
C -2.683901 -1.55874 -3 -0.795609 -3 0 
C -3 0.795609 -2.683901 1.55874 -2.12132 2.12132 
C -1.55874 2.683901 -0.795609 3 0 3 
z
" style="stroke: #1f77b4"/>
    </defs>
    <g clip-path="url(#p620e495ed5)">
     <use xlink:href="#mb37346a9e7" x="93.39983" y="482.850289" style="fill: #1f77b4; stroke: #1f77b4"/>
     <use xlink:href="#mb37346a9e7" x="106.282532" y="272.436851" style="fill: #1f77b4; stroke: #1f77b4"/>
     <use xlink:href="#mb37346a9e7" x="119.165234" y="291.181531" style="fill: #1f77b4; stroke: #1f77b4"/>
     <use xlink:href="#mb37346a9e7" x="132.047936" y="404.67794" style="fill: #1f77b4; stroke: #1f77b4"/>
     <use xlink:href="#mb37346a9e7" x="144.930638" y="274.444232" style="fill: #1f77b4; stroke: #1f77b4"/>
     <use xlink:href="#mb37346a9e7" x="157.81334" y="480.388037" style="fill: #1f77b4; stroke: #1f77b4"/>
     <use xlink:href="#mb37346a9e7" x="170.696042" y="403.415098" style="fill: #1f77b4; stroke: #1f77b4"/>
     <use xlink:href="#mb37346a9e7" x="183.578744" y="209.896651" style="fill: #1f77b4; stroke: #1f77b4"/>
     <use xlink:href="#mb37346a9e7" x="196.461446" y="266.582403" style="fill: #1f77b4; stroke: #1f77b4"/>
     <use xlink:href="#mb37346a9e7" x="209.344148" y="483.408849" style="fill: #1f77b4; stroke: #1f77b4"/>
     <use xlink:href="#mb37346a9e7" x="222.22685" y="434.397313" style="fill: #1f77b4; stroke: #1f77b4"/>
     <use xlink:href="#mb37346a9e7" x="235.109552" y="271.574978" style="fill: #1f77b4; stroke: #1f77b4"/>
     <use xlink:href="#mb37346a9e7" x="247.992254" y="458.880205" style="fill: #1f77b4; stroke: #1f77b4"/>
     <use xlink:href="#mb37346a9e7" x="260.874956" y="377.778124" style="fill: #1f77b4; stroke: #1f77b4"/>
     <use xlink:href="#mb37346a9e7" x="273.757658" y="346.820195" style="fill: #1f77b4; stroke: #1f77b4"/>
     <use xlink:href="#mb37346a9e7" x="286.64036" y="486.263933" style="fill: #1f77b4; stroke: #1f77b4"/>
     <use xlink:href="#mb37346a9e7" x="312.405764" y="428.787994" style="fill: #1f77b4; stroke: #1f77b4"/>
     <use xlink:href="#mb37346a9e7" x="325.288466" y="163.598126" style="fill: #1f77b4; stroke: #1f77b4"/>
     <use xlink:href="#mb37346a9e7" x="338.171168" y="402.372911" style="fill: #1f77b4; stroke: #1f77b4"/>
     <use xlink:href="#mb37346a9e7" x="351.05387" y="150.604352" style="fill: #1f77b4; stroke: #1f77b4"/>
     <use xlink:href="#mb37346a9e7" x="363.936572" y="351.252367" style="fill: #1f77b4; stroke: #1f77b4"/>
     <use xlink:href="#mb37346a9e7" x="376.819274" y="232.283323" style="fill: #1f77b4; stroke: #1f77b4"/>
     <use xlink:href="#mb37346a9e7" x="389.701976" y="488.047828" style="fill: #1f77b4; stroke: #1f77b4"/>
     <use xlink:href="#mb37346a9e7" x="402.584678" y="320.610852" style="fill: #1f77b4; stroke: #1f77b4"/>
     <use xlink:href="#mb37346a9e7" x="415.46738" y="486.408067" style="fill: #1f77b4; stroke: #1f77b4"/>
     <use xlink:href="#mb37346a9e7" x="428.350082" y="269.465911" style="fill: #1f77b4; stroke: #1f77b4"/>
     <use xlink:href="#mb37346a9e7" x="454.115486" y="455.460415" style="fill: #1f77b4; stroke: #1f77b4"/>
     <use xlink:href="#mb37346a9e7" x="466.998188" y="335.092602" style="fill: #1f77b4; stroke: #1f77b4"/>
     <use xlink:href="#mb37346a9e7" x="479.88089" y="488.506413" style="fill: #1f77b4; stroke: #1f77b4"/>
     <use xlink:href="#mb37346a9e7" x="492.763592" y="485.385114" style="fill: #1f77b4; stroke: #1f77b4"/>
     <use xlink:href="#mb37346a9e7" x="505.646294" y="305.041314" style="fill: #1f77b4; stroke: #1f77b4"/>
     <use xlink:href="#mb37346a9e7" x="518.528996" y="482.973904" style="fill: #1f77b4; stroke: #1f77b4"/>
     <use xlink:href="#mb37346a9e7" x="531.411698" y="486.423173" style="fill: #1f77b4; stroke: #1f77b4"/>
     <use xlink:href="#mb37346a9e7" x="544.2944" y="293.269601" style="fill: #1f77b4; stroke: #1f77b4"/>
     <use xlink:href="#mb37346a9e7" x="570.059804" y="285.422031" style="fill: #1f77b4; stroke: #1f77b4"/>
     <use xlink:href="#mb37346a9e7" x="582.942506" y="270.134725" style="fill: #1f77b4; stroke: #1f77b4"/>
     <use xlink:href="#mb37346a9e7" x="595.825208" y="376.863524" style="fill: #1f77b4; stroke: #1f77b4"/>
     <use xlink:href="#mb37346a9e7" x="608.70791" y="338.776936" style="fill: #1f77b4; stroke: #1f77b4"/>
     <use xlink:href="#mb37346a9e7" x="621.590612" y="483.284651" style="fill: #1f77b4; stroke: #1f77b4"/>
     <use xlink:href="#mb37346a9e7" x="647.356016" y="274.593658" style="fill: #1f77b4; stroke: #1f77b4"/>
     <use xlink:href="#mb37346a9e7" x="660.238718" y="349.182879" style="fill: #1f77b4; stroke: #1f77b4"/>
     <use xlink:href="#mb37346a9e7" x="673.12142" y="355.8715" style="fill: #1f77b4; stroke: #1f77b4"/>
    </g>
   </g>
   <g id="line2d_18">
    <path d="M 93.39983 484.429483 
L 106.282532 273.23866 
L 119.165234 279.681236 
L 132.047936 452.760906 
L 144.930638 331.118307 
L 157.81334 487.281563 
L 170.696042 484.461575 
L 183.578744 444.529556 
L 196.461446 368.538952 
L 209.344148 347.978192 
L 222.22685 323.343312 
L 235.109552 393.361259 
L 247.992254 481.201981 
L 260.874956 267.502545 
L 273.757658 312.085135 
L 286.64036 485.153681 
L 312.405764 486.306156 
L 325.288466 268.247336 
L 338.171168 494.089865 
L 351.05387 267.916435 
L 363.936572 339.643944 
L 376.819274 297.489416 
L 389.701976 484.179414 
L 402.584678 273.943769 
L 415.46738 487.849448 
L 428.350082 357.421159 
L 454.115486 499.926294 
L 466.998188 370.18609 
L 479.88089 494.45834 
L 492.763592 419.072519 
L 505.646294 361.972468 
L 518.528996 502.032811 
L 531.411698 489.379773 
L 544.2944 256.471423 
L 570.059804 226.931571 
L 582.942506 287.340833 
L 595.825208 301.328628 
L 608.70791 445.801924 
L 621.590612 389.61417 
L 647.356016 282.127339 
L 660.238718 356.887587 
L 673.12142 324.869314 
" clip-path="url(#p620e495ed5)" style="fill: none; stroke: #ff7f0e; stroke-width: 2; stroke-linecap: square"/>
    <defs>
     <path id="ma507dc699a" d="M 0 3 
C 0.795609 3 1.55874 2.683901 2.12132 2.12132 
C 2.683901 1.55874 3 0.795609 3 0 
C 3 -0.795609 2.683901 -1.55874 2.12132 -2.12132 
C 1.55874 -2.683901 0.795609 -3 0 -3 
C -0.795609 -3 -1.55874 -2.683901 -2.12132 -2.12132 
C -2.683901 -1.55874 -3 -0.795609 -3 0 
C -3 0.795609 -2.683901 1.55874 -2.12132 2.12132 
C -1.55874 2.683901 -0.795609 3 0 3 
z
" style="stroke: #ff7f0e"/>
    </defs>
    <g clip-path="url(#p620e495ed5)">
     <use xlink:href="#ma507dc699a" x="93.39983" y="484.429483" style="fill: #ff7f0e; stroke: #ff7f0e"/>
     <use xlink:href="#ma507dc699a" x="106.282532" y="273.23866" style="fill: #ff7f0e; stroke: #ff7f0e"/>
     <use xlink:href="#ma507dc699a" x="119.165234" y="279.681236" style="fill: #ff7f0e; stroke: #ff7f0e"/>
     <use xlink:href="#ma507dc699a" x="132.047936" y="452.760906" style="fill: #ff7f0e; stroke: #ff7f0e"/>
     <use xlink:href="#ma507dc699a" x="144.930638" y="331.118307" style="fill: #ff7f0e; stroke: #ff7f0e"/>
     <use xlink:href="#ma507dc699a" x="157.81334" y="487.281563" style="fill: #ff7f0e; stroke: #ff7f0e"/>
     <use xlink:href="#ma507dc699a" x="170.696042" y="484.461575" style="fill: #ff7f0e; stroke: #ff7f0e"/>
     <use xlink:href="#ma507dc699a" x="183.578744" y="444.529556" style="fill: #ff7f0e; stroke: #ff7f0e"/>
     <use xlink:href="#ma507dc699a" x="196.461446" y="368.538952" style="fill: #ff7f0e; stroke: #ff7f0e"/>
     <use xlink:href="#ma507dc699a" x="209.344148" y="347.978192" style="fill: #ff7f0e; stroke: #ff7f0e"/>
     <use xlink:href="#ma507dc699a" x="222.22685" y="323.343312" style="fill: #ff7f0e; stroke: #ff7f0e"/>
     <use xlink:href="#ma507dc699a" x="235.109552" y="393.361259" style="fill: #ff7f0e; stroke: #ff7f0e"/>
     <use xlink:href="#ma507dc699a" x="247.992254" y="481.201981" style="fill: #ff7f0e; stroke: #ff7f0e"/>
     <use xlink:href="#ma507dc699a" x="260.874956" y="267.502545" style="fill: #ff7f0e; stroke: #ff7f0e"/>
     <use xlink:href="#ma507dc699a" x="273.757658" y="312.085135" style="fill: #ff7f0e; stroke: #ff7f0e"/>
     <use xlink:href="#ma507dc699a" x="286.64036" y="485.153681" style="fill: #ff7f0e; stroke: #ff7f0e"/>
     <use xlink:href="#ma507dc699a" x="312.405764" y="486.306156" style="fill: #ff7f0e; stroke: #ff7f0e"/>
     <use xlink:href="#ma507dc699a" x="325.288466" y="268.247336" style="fill: #ff7f0e; stroke: #ff7f0e"/>
     <use xlink:href="#ma507dc699a" x="338.171168" y="494.089865" style="fill: #ff7f0e; stroke: #ff7f0e"/>
     <use xlink:href="#ma507dc699a" x="351.05387" y="267.916435" style="fill: #ff7f0e; stroke: #ff7f0e"/>
     <use xlink:href="#ma507dc699a" x="363.936572" y="339.643944" style="fill: #ff7f0e; stroke: #ff7f0e"/>
     <use xlink:href="#ma507dc699a" x="376.819274" y="297.489416" style="fill: #ff7f0e; stroke: #ff7f0e"/>
     <use xlink:href="#ma507dc699a" x="389.701976" y="484.179414" style="fill: #ff7f0e; stroke: #ff7f0e"/>
     <use xlink:href="#ma507dc699a" x="402.584678" y="273.943769" style="fill: #ff7f0e; stroke: #ff7f0e"/>
     <use xlink:href="#ma507dc699a" x="415.46738" y="487.849448" style="fill: #ff7f0e; stroke: #ff7f0e"/>
     <use xlink:href="#ma507dc699a" x="428.350082" y="357.421159" style="fill: #ff7f0e; stroke: #ff7f0e"/>
     <use xlink:href="#ma507dc699a" x="454.115486" y="499.926294" style="fill: #ff7f0e; stroke: #ff7f0e"/>
     <use xlink:href="#ma507dc699a" x="466.998188" y="370.18609" style="fill: #ff7f0e; stroke: #ff7f0e"/>
     <use xlink:href="#ma507dc699a" x="479.88089" y="494.45834" style="fill: #ff7f0e; stroke: #ff7f0e"/>
     <use xlink:href="#ma507dc699a" x="492.763592" y="419.072519" style="fill: #ff7f0e; stroke: #ff7f0e"/>
     <use xlink:href="#ma507dc699a" x="505.646294" y="361.972468" style="fill: #ff7f0e; stroke: #ff7f0e"/>
     <use xlink:href="#ma507dc699a" x="518.528996" y="502.032811" style="fill: #ff7f0e; stroke: #ff7f0e"/>
     <use xlink:href="#ma507dc699a" x="531.411698" y="489.379773" style="fill: #ff7f0e; stroke: #ff7f0e"/>
     <use xlink:href="#ma507dc699a" x="544.2944" y="256.471423" style="fill: #ff7f0e; stroke: #ff7f0e"/>
     <use xlink:href="#ma507dc699a" x="570.059804" y="226.931571" style="fill: #ff7f0e; stroke: #ff7f0e"/>
     <use xlink:href="#ma507dc699a" x="582.942506" y="287.340833" style="fill: #ff7f0e; stroke: #ff7f0e"/>
     <use xlink:href="#ma507dc699a" x="595.825208" y="301.328628" style="fill: #ff7f0e; stroke: #ff7f0e"/>
     <use xlink:href="#ma507dc699a" x="608.70791" y="445.801924" style="fill: #ff7f0e; stroke: #ff7f0e"/>
     <use xlink:href="#ma507dc699a" x="621.590612" y="389.61417" style="fill: #ff7f0e; stroke: #ff7f0e"/>
     <use xlink:href="#ma507dc699a" x="647.356016" y="282.127339" style="fill: #ff7f0e; stroke: #ff7f0e"/>
     <use xlink:href="#ma507dc699a" x="660.238718" y="356.887587" style="fill: #ff7f0e; stroke: #ff7f0e"/>
     <use xlink:href="#ma507dc699a" x="673.12142" y="324.869314" style="fill: #ff7f0e; stroke: #ff7f0e"/>
    </g>
   </g>
   <g id="line2d_19">
    <path d="M 93.39983 500.025989 
L 106.282532 385.907026 
L 119.165234 256.308997 
L 132.047936 498.159903 
L 144.930638 472.697249 
L 157.81334 496.118462 
L 170.696042 494.75831 
L 183.578744 498.403517 
L 196.461446 498.335325 
L 209.344148 491.245114 
L 222.22685 497.031826 
L 235.109552 496.976117 
L 247.992254 497.20429 
L 260.874956 399.782922 
L 273.757658 489.423688 
L 286.64036 498.200645 
L 312.405764 494.561352 
L 325.288466 459.375612 
L 338.171168 497.056437 
L 351.05387 392.39891 
L 363.936572 449.214439 
L 376.819274 358.806025 
L 389.701976 477.072647 
L 402.584678 257.354819 
L 415.46738 494.117573 
L 428.350082 353.949086 
L 454.115486 499.269751 
L 466.998188 389.980137 
L 479.88089 498.922495 
L 492.763592 395.696534 
L 505.646294 404.364427 
L 518.528996 497.0886 
L 531.411698 497.781321 
L 544.2944 332.998521 
L 570.059804 395.540063 
L 582.942506 311.496772 
L 595.825208 388.335773 
L 608.70791 485.51076 
L 621.590612 370.244452 
L 647.356016 406.001643 
L 660.238718 447.321383 
L 673.12142 344.199356 
" clip-path="url(#p620e495ed5)" style="fill: none; stroke: #2ca02c; stroke-width: 2; stroke-linecap: square"/>
    <defs>
     <path id="m6b4af454d3" d="M 0 3 
C 0.795609 3 1.55874 2.683901 2.12132 2.12132 
C 2.683901 1.55874 3 0.795609 3 0 
C 3 -0.795609 2.683901 -1.55874 2.12132 -2.12132 
C 1.55874 -2.683901 0.795609 -3 0 -3 
C -0.795609 -3 -1.55874 -2.683901 -2.12132 -2.12132 
C -2.683901 -1.55874 -3 -0.795609 -3 0 
C -3 0.795609 -2.683901 1.55874 -2.12132 2.12132 
C -1.55874 2.683901 -0.795609 3 0 3 
z
" style="stroke: #2ca02c"/>
    </defs>
    <g clip-path="url(#p620e495ed5)">
     <use xlink:href="#m6b4af454d3" x="93.39983" y="500.025989" style="fill: #2ca02c; stroke: #2ca02c"/>
     <use xlink:href="#m6b4af454d3" x="106.282532" y="385.907026" style="fill: #2ca02c; stroke: #2ca02c"/>
     <use xlink:href="#m6b4af454d3" x="119.165234" y="256.308997" style="fill: #2ca02c; stroke: #2ca02c"/>
     <use xlink:href="#m6b4af454d3" x="132.047936" y="498.159903" style="fill: #2ca02c; stroke: #2ca02c"/>
     <use xlink:href="#m6b4af454d3" x="144.930638" y="472.697249" style="fill: #2ca02c; stroke: #2ca02c"/>
     <use xlink:href="#m6b4af454d3" x="157.81334" y="496.118462" style="fill: #2ca02c; stroke: #2ca02c"/>
     <use xlink:href="#m6b4af454d3" x="170.696042" y="494.75831" style="fill: #2ca02c; stroke: #2ca02c"/>
     <use xlink:href="#m6b4af454d3" x="183.578744" y="498.403517" style="fill: #2ca02c; stroke: #2ca02c"/>
     <use xlink:href="#m6b4af454d3" x="196.461446" y="498.335325" style="fill: #2ca02c; stroke: #2ca02c"/>
     <use xlink:href="#m6b4af454d3" x="209.344148" y="491.245114" style="fill: #2ca02c; stroke: #2ca02c"/>
     <use xlink:href="#m6b4af454d3" x="222.22685" y="497.031826" style="fill: #2ca02c; stroke: #2ca02c"/>
     <use xlink:href="#m6b4af454d3" x="235.109552" y="496.976117" style="fill: #2ca02c; stroke: #2ca02c"/>
     <use xlink:href="#m6b4af454d3" x="247.992254" y="497.20429" style="fill: #2ca02c; stroke: #2ca02c"/>
     <use xlink:href="#m6b4af454d3" x="260.874956" y="399.782922" style="fill: #2ca02c; stroke: #2ca02c"/>
     <use xlink:href="#m6b4af454d3" x="273.757658" y="489.423688" style="fill: #2ca02c; stroke: #2ca02c"/>
     <use xlink:href="#m6b4af454d3" x="286.64036" y="498.200645" style="fill: #2ca02c; stroke: #2ca02c"/>
     <use xlink:href="#m6b4af454d3" x="312.405764" y="494.561352" style="fill: #2ca02c; stroke: #2ca02c"/>
     <use xlink:href="#m6b4af454d3" x="325.288466" y="459.375612" style="fill: #2ca02c; stroke: #2ca02c"/>
     <use xlink:href="#m6b4af454d3" x="338.171168" y="497.056437" style="fill: #2ca02c; stroke: #2ca02c"/>
     <use xlink:href="#m6b4af454d3" x="351.05387" y="392.39891" style="fill: #2ca02c; stroke: #2ca02c"/>
     <use xlink:href="#m6b4af454d3" x="363.936572" y="449.214439" style="fill: #2ca02c; stroke: #2ca02c"/>
     <use xlink:href="#m6b4af454d3" x="376.819274" y="358.806025" style="fill: #2ca02c; stroke: #2ca02c"/>
     <use xlink:href="#m6b4af454d3" x="389.701976" y="477.072647" style="fill: #2ca02c; stroke: #2ca02c"/>
     <use xlink:href="#m6b4af454d3" x="402.584678" y="257.354819" style="fill: #2ca02c; stroke: #2ca02c"/>
     <use xlink:href="#m6b4af454d3" x="415.46738" y="494.117573" style="fill: #2ca02c; stroke: #2ca02c"/>
     <use xlink:href="#m6b4af454d3" x="428.350082" y="353.949086" style="fill: #2ca02c; stroke: #2ca02c"/>
     <use xlink:href="#m6b4af454d3" x="454.115486" y="499.269751" style="fill: #2ca02c; stroke: #2ca02c"/>
     <use xlink:href="#m6b4af454d3" x="466.998188" y="389.980137" style="fill: #2ca02c; stroke: #2ca02c"/>
     <use xlink:href="#m6b4af454d3" x="479.88089" y="498.922495" style="fill: #2ca02c; stroke: #2ca02c"/>
     <use xlink:href="#m6b4af454d3" x="492.763592" y="395.696534" style="fill: #2ca02c; stroke: #2ca02c"/>
     <use xlink:href="#m6b4af454d3" x="505.646294" y="404.364427" style="fill: #2ca02c; stroke: #2ca02c"/>
     <use xlink:href="#m6b4af454d3" x="518.528996" y="497.0886" style="fill: #2ca02c; stroke: #2ca02c"/>
     <use xlink:href="#m6b4af454d3" x="531.411698" y="497.781321" style="fill: #2ca02c; stroke: #2ca02c"/>
     <use xlink:href="#m6b4af454d3" x="544.2944" y="332.998521" style="fill: #2ca02c; stroke: #2ca02c"/>
     <use xlink:href="#m6b4af454d3" x="570.059804" y="395.540063" style="fill: #2ca02c; stroke: #2ca02c"/>
     <use xlink:href="#m6b4af454d3" x="582.942506" y="311.496772" style="fill: #2ca02c; stroke: #2ca02c"/>
     <use xlink:href="#m6b4af454d3" x="595.825208" y="388.335773" style="fill: #2ca02c; stroke: #2ca02c"/>
     <use xlink:href="#m6b4af454d3" x="608.70791" y="485.51076" style="fill: #2ca02c; stroke: #2ca02c"/>
     <use xlink:href="#m6b4af454d3" x="621.590612" y="370.244452" style="fill: #2ca02c; stroke: #2ca02c"/>
     <use xlink:href="#m6b4af454d3" x="647.356016" y="406.001643" style="fill: #2ca02c; stroke: #2ca02c"/>
     <use xlink:href="#m6b4af454d3" x="660.238718" y="447.321383" style="fill: #2ca02c; stroke: #2ca02c"/>
     <use xlink:href="#m6b4af454d3" x="673.12142" y="344.199356" style="fill: #2ca02c; stroke: #2ca02c"/>
    </g>
   </g>
   <g id="line2d_20">
    <path d="M 93.39983 501.345584 
L 106.282532 499.20322 
L 119.165234 504.463285 
L 132.047936 503.899608 
L 144.930638 287.057348 
L 157.81334 289.092086 
L 170.696042 505.211372 
L 183.578744 403.387407 
L 196.461446 498.273054 
L 209.344148 501.308766 
L 222.22685 503.970848 
L 235.109552 501.776211 
L 247.992254 54.121967 
L 273.757658 459.96144 
L 286.64036 500.917142 
L 312.405764 501.488611 
L 325.288466 505.715691 
L 338.171168 90.419902 
L 351.05387 505.174317 
L 363.936572 504.923833 
L 389.701976 504.988174 
L 402.584678 504.764804 
L 415.46738 503.416534 
L 428.350082 506.124725 
L 454.115486 506.332202 
L 466.998188 283.32809 
L 479.88089 503.340948 
L 492.763592 505.580272 
L 505.646294 503.448647 
L 518.528996 505.665753 
L 531.411698 473.678574 
L 544.2944 504.881562 
L 570.059804 385.995694 
L 582.942506 505.442586 
L 595.825208 46.813736 
L 621.590612 487.533177 
L 660.238718 505.503156 
L 673.12142 104.058776 
" clip-path="url(#p620e495ed5)" style="fill: none; stroke: #d62728; stroke-width: 2; stroke-linecap: square"/>
    <defs>
     <path id="m6bc05c00a5" d="M 0 3 
C 0.795609 3 1.55874 2.683901 2.12132 2.12132 
C 2.683901 1.55874 3 0.795609 3 0 
C 3 -0.795609 2.683901 -1.55874 2.12132 -2.12132 
C 1.55874 -2.683901 0.795609 -3 0 -3 
C -0.795609 -3 -1.55874 -2.683901 -2.12132 -2.12132 
C -2.683901 -1.55874 -3 -0.795609 -3 0 
C -3 0.795609 -2.683901 1.55874 -2.12132 2.12132 
C -1.55874 2.683901 -0.795609 3 0 3 
z
" style="stroke: #d62728"/>
    </defs>
    <g clip-path="url(#p620e495ed5)">
     <use xlink:href="#m6bc05c00a5" x="93.39983" y="501.345584" style="fill: #d62728; stroke: #d62728"/>
     <use xlink:href="#m6bc05c00a5" x="106.282532" y="499.20322" style="fill: #d62728; stroke: #d62728"/>
     <use xlink:href="#m6bc05c00a5" x="119.165234" y="504.463285" style="fill: #d62728; stroke: #d62728"/>
     <use xlink:href="#m6bc05c00a5" x="132.047936" y="503.899608" style="fill: #d62728; stroke: #d62728"/>
     <use xlink:href="#m6bc05c00a5" x="144.930638" y="287.057348" style="fill: #d62728; stroke: #d62728"/>
     <use xlink:href="#m6bc05c00a5" x="157.81334" y="289.092086" style="fill: #d62728; stroke: #d62728"/>
     <use xlink:href="#m6bc05c00a5" x="170.696042" y="505.211372" style="fill: #d62728; stroke: #d62728"/>
     <use xlink:href="#m6bc05c00a5" x="183.578744" y="403.387407" style="fill: #d62728; stroke: #d62728"/>
     <use xlink:href="#m6bc05c00a5" x="196.461446" y="498.273054" style="fill: #d62728; stroke: #d62728"/>
     <use xlink:href="#m6bc05c00a5" x="209.344148" y="501.308766" style="fill: #d62728; stroke: #d62728"/>
     <use xlink:href="#m6bc05c00a5" x="222.22685" y="503.970848" style="fill: #d62728; stroke: #d62728"/>
     <use xlink:href="#m6bc05c00a5" x="235.109552" y="501.776211" style="fill: #d62728; stroke: #d62728"/>
     <use xlink:href="#m6bc05c00a5" x="247.992254" y="54.121967" style="fill: #d62728; stroke: #d62728"/>
     <use xlink:href="#m6bc05c00a5" x="273.757658" y="459.96144" style="fill: #d62728; stroke: #d62728"/>
     <use xlink:href="#m6bc05c00a5" x="286.64036" y="500.917142" style="fill: #d62728; stroke: #d62728"/>
     <use xlink:href="#m6bc05c00a5" x="312.405764" y="501.488611" style="fill: #d62728; stroke: #d62728"/>
     <use xlink:href="#m6bc05c00a5" x="325.288466" y="505.715691" style="fill: #d62728; stroke: #d62728"/>
     <use xlink:href="#m6bc05c00a5" x="338.171168" y="90.419902" style="fill: #d62728; stroke: #d62728"/>
     <use xlink:href="#m6bc05c00a5" x="351.05387" y="505.174317" style="fill: #d62728; stroke: #d62728"/>
     <use xlink:href="#m6bc05c00a5" x="363.936572" y="504.923833" style="fill: #d62728; stroke: #d62728"/>
     <use xlink:href="#m6bc05c00a5" x="389.701976" y="504.988174" style="fill: #d62728; stroke: #d62728"/>
     <use xlink:href="#m6bc05c00a5" x="402.584678" y="504.764804" style="fill: #d62728; stroke: #d62728"/>
     <use xlink:href="#m6bc05c00a5" x="415.46738" y="503.416534" style="fill: #d62728; stroke: #d62728"/>
     <use xlink:href="#m6bc05c00a5" x="428.350082" y="506.124725" style="fill: #d62728; stroke: #d62728"/>
     <use xlink:href="#m6bc05c00a5" x="454.115486" y="506.332202" style="fill: #d62728; stroke: #d62728"/>
     <use xlink:href="#m6bc05c00a5" x="466.998188" y="283.32809" style="fill: #d62728; stroke: #d62728"/>
     <use xlink:href="#m6bc05c00a5" x="479.88089" y="503.340948" style="fill: #d62728; stroke: #d62728"/>
     <use xlink:href="#m6bc05c00a5" x="492.763592" y="505.580272" style="fill: #d62728; stroke: #d62728"/>
     <use xlink:href="#m6bc05c00a5" x="505.646294" y="503.448647" style="fill: #d62728; stroke: #d62728"/>
     <use xlink:href="#m6bc05c00a5" x="518.528996" y="505.665753" style="fill: #d62728; stroke: #d62728"/>
     <use xlink:href="#m6bc05c00a5" x="531.411698" y="473.678574" style="fill: #d62728; stroke: #d62728"/>
     <use xlink:href="#m6bc05c00a5" x="544.2944" y="504.881562" style="fill: #d62728; stroke: #d62728"/>
     <use xlink:href="#m6bc05c00a5" x="570.059804" y="385.995694" style="fill: #d62728; stroke: #d62728"/>
     <use xlink:href="#m6bc05c00a5" x="582.942506" y="505.442586" style="fill: #d62728; stroke: #d62728"/>
     <use xlink:href="#m6bc05c00a5" x="595.825208" y="46.813736" style="fill: #d62728; stroke: #d62728"/>
     <use xlink:href="#m6bc05c00a5" x="621.590612" y="487.533177" style="fill: #d62728; stroke: #d62728"/>
     <use xlink:href="#m6bc05c00a5" x="660.238718" y="505.503156" style="fill: #d62728; stroke: #d62728"/>
     <use xlink:href="#m6bc05c00a5" x="673.12142" y="104.058776" style="fill: #d62728; stroke: #d62728"/>
    </g>
   </g>
   <g id="line2d_21">
    <path d="M 93.39983 494.287468 
L 106.282532 460.34291 
L 119.165234 497.148555 
L 132.047936 489.888002 
L 144.930638 357.435479 
L 157.81334 175.355364 
L 170.696042 500.809271 
L 183.578744 469.835281 
L 196.461446 357.932505 
L 209.344148 496.80195 
L 222.22685 503.043979 
L 235.109552 501.145348 
L 247.992254 190.095553 
L 273.757658 172.651408 
L 286.64036 501.990414 
L 312.405764 497.780565 
L 325.288466 500.130736 
L 338.171168 277.22899 
L 351.05387 489.276733 
L 363.936572 495.372066 
L 389.701976 500.519993 
L 402.584678 495.767115 
L 415.46738 504.224067 
L 428.350082 502.823941 
L 454.115486 504.749845 
L 466.998188 285.908071 
L 479.88089 505.827186 
L 492.763592 503.060249 
L 505.646294 503.627243 
L 518.528996 505.518609 
L 531.411698 468.937465 
L 544.2944 501.670074 
L 570.059804 505.601757 
L 582.942506 504.609235 
L 595.825208 285.85251 
L 621.590612 502.832225 
L 660.238718 504.530627 
L 673.12142 283.30084 
" clip-path="url(#p620e495ed5)" style="fill: none; stroke: #9467bd; stroke-width: 2; stroke-linecap: square"/>
    <defs>
     <path id="m91476f2748" d="M 0 3 
C 0.795609 3 1.55874 2.683901 2.12132 2.12132 
C 2.683901 1.55874 3 0.795609 3 0 
C 3 -0.795609 2.683901 -1.55874 2.12132 -2.12132 
C 1.55874 -2.683901 0.795609 -3 0 -3 
C -0.795609 -3 -1.55874 -2.683901 -2.12132 -2.12132 
C -2.683901 -1.55874 -3 -0.795609 -3 0 
C -3 0.795609 -2.683901 1.55874 -2.12132 2.12132 
C -1.55874 2.683901 -0.795609 3 0 3 
z
" style="stroke: #9467bd"/>
    </defs>
    <g clip-path="url(#p620e495ed5)">
     <use xlink:href="#m91476f2748" x="93.39983" y="494.287468" style="fill: #9467bd; stroke: #9467bd"/>
     <use xlink:href="#m91476f2748" x="106.282532" y="460.34291" style="fill: #9467bd; stroke: #9467bd"/>
     <use xlink:href="#m91476f2748" x="119.165234" y="497.148555" style="fill: #9467bd; stroke: #9467bd"/>
     <use xlink:href="#m91476f2748" x="132.047936" y="489.888002" style="fill: #9467bd; stroke: #9467bd"/>
     <use xlink:href="#m91476f2748" x="144.930638" y="357.435479" style="fill: #9467bd; stroke: #9467bd"/>
     <use xlink:href="#m91476f2748" x="157.81334" y="175.355364" style="fill: #9467bd; stroke: #9467bd"/>
     <use xlink:href="#m91476f2748" x="170.696042" y="500.809271" style="fill: #9467bd; stroke: #9467bd"/>
     <use xlink:href="#m91476f2748" x="183.578744" y="469.835281" style="fill: #9467bd; stroke: #9467bd"/>
     <use xlink:href="#m91476f2748" x="196.461446" y="357.932505" style="fill: #9467bd; stroke: #9467bd"/>
     <use xlink:href="#m91476f2748" x="209.344148" y="496.80195" style="fill: #9467bd; stroke: #9467bd"/>
     <use xlink:href="#m91476f2748" x="222.22685" y="503.043979" style="fill: #9467bd; stroke: #9467bd"/>
     <use xlink:href="#m91476f2748" x="235.109552" y="501.145348" style="fill: #9467bd; stroke: #9467bd"/>
     <use xlink:href="#m91476f2748" x="247.992254" y="190.095553" style="fill: #9467bd; stroke: #9467bd"/>
     <use xlink:href="#m91476f2748" x="273.757658" y="172.651408" style="fill: #9467bd; stroke: #9467bd"/>
     <use xlink:href="#m91476f2748" x="286.64036" y="501.990414" style="fill: #9467bd; stroke: #9467bd"/>
     <use xlink:href="#m91476f2748" x="312.405764" y="497.780565" style="fill: #9467bd; stroke: #9467bd"/>
     <use xlink:href="#m91476f2748" x="325.288466" y="500.130736" style="fill: #9467bd; stroke: #9467bd"/>
     <use xlink:href="#m91476f2748" x="338.171168" y="277.22899" style="fill: #9467bd; stroke: #9467bd"/>
     <use xlink:href="#m91476f2748" x="351.05387" y="489.276733" style="fill: #9467bd; stroke: #9467bd"/>
     <use xlink:href="#m91476f2748" x="363.936572" y="495.372066" style="fill: #9467bd; stroke: #9467bd"/>
     <use xlink:href="#m91476f2748" x="389.701976" y="500.519993" style="fill: #9467bd; stroke: #9467bd"/>
     <use xlink:href="#m91476f2748" x="402.584678" y="495.767115" style="fill: #9467bd; stroke: #9467bd"/>
     <use xlink:href="#m91476f2748" x="415.46738" y="504.224067" style="fill: #9467bd; stroke: #9467bd"/>
     <use xlink:href="#m91476f2748" x="428.350082" y="502.823941" style="fill: #9467bd; stroke: #9467bd"/>
     <use xlink:href="#m91476f2748" x="454.115486" y="504.749845" style="fill: #9467bd; stroke: #9467bd"/>
     <use xlink:href="#m91476f2748" x="466.998188" y="285.908071" style="fill: #9467bd; stroke: #9467bd"/>
     <use xlink:href="#m91476f2748" x="479.88089" y="505.827186" style="fill: #9467bd; stroke: #9467bd"/>
     <use xlink:href="#m91476f2748" x="492.763592" y="503.060249" style="fill: #9467bd; stroke: #9467bd"/>
     <use xlink:href="#m91476f2748" x="505.646294" y="503.627243" style="fill: #9467bd; stroke: #9467bd"/>
     <use xlink:href="#m91476f2748" x="518.528996" y="505.518609" style="fill: #9467bd; stroke: #9467bd"/>
     <use xlink:href="#m91476f2748" x="531.411698" y="468.937465" style="fill: #9467bd; stroke: #9467bd"/>
     <use xlink:href="#m91476f2748" x="544.2944" y="501.670074" style="fill: #9467bd; stroke: #9467bd"/>
     <use xlink:href="#m91476f2748" x="570.059804" y="505.601757" style="fill: #9467bd; stroke: #9467bd"/>
     <use xlink:href="#m91476f2748" x="582.942506" y="504.609235" style="fill: #9467bd; stroke: #9467bd"/>
     <use xlink:href="#m91476f2748" x="595.825208" y="285.85251" style="fill: #9467bd; stroke: #9467bd"/>
     <use xlink:href="#m91476f2748" x="621.590612" y="502.832225" style="fill: #9467bd; stroke: #9467bd"/>
     <use xlink:href="#m91476f2748" x="660.238718" y="504.530627" style="fill: #9467bd; stroke: #9467bd"/>
     <use xlink:href="#m91476f2748" x="673.12142" y="283.30084" style="fill: #9467bd; stroke: #9467bd"/>
    </g>
   </g>
   <g id="line2d_22">
    <path d="M 93.39983 364.913717 
L 106.282532 358.358623 
L 119.165234 363.909377 
L 132.047936 366.352254 
L 144.930638 357.748297 
L 157.81334 360.290015 
L 170.696042 466.291742 
L 183.578744 461.426709 
L 196.461446 359.706311 
L 209.344148 363.793307 
L 222.22685 366.147396 
L 235.109552 364.70504 
L 247.992254 403.598594 
L 273.757658 304.686863 
L 286.64036 363.080915 
L 312.405764 364.628012 
L 325.288466 363.007786 
L 338.171168 438.286838 
L 351.05387 393.483935 
L 363.936572 363.070452 
L 389.701976 465.507828 
L 402.584678 296.788363 
L 415.46738 363.659352 
L 428.350082 362.276146 
L 454.115486 466.599306 
L 466.998188 457.205838 
L 479.88089 394.032213 
L 492.763592 365.818977 
L 505.646294 362.663991 
L 518.528996 361.0387 
L 531.411698 427.206728 
L 544.2944 363.095878 
L 570.059804 466.311035 
L 582.942506 365.069698 
L 595.825208 464.843083 
L 621.590612 421.870836 
L 660.238718 406.505178 
L 673.12142 358.273009 
" clip-path="url(#p620e495ed5)" style="fill: none; stroke: #8c564b; stroke-width: 2; stroke-linecap: square"/>
    <defs>
     <path id="md3dca5ace4" d="M 0 3 
C 0.795609 3 1.55874 2.683901 2.12132 2.12132 
C 2.683901 1.55874 3 0.795609 3 0 
C 3 -0.795609 2.683901 -1.55874 2.12132 -2.12132 
C 1.55874 -2.683901 0.795609 -3 0 -3 
C -0.795609 -3 -1.55874 -2.683901 -2.12132 -2.12132 
C -2.683901 -1.55874 -3 -0.795609 -3 0 
C -3 0.795609 -2.683901 1.55874 -2.12132 2.12132 
C -1.55874 2.683901 -0.795609 3 0 3 
z
" style="stroke: #8c564b"/>
    </defs>
    <g clip-path="url(#p620e495ed5)">
     <use xlink:href="#md3dca5ace4" x="93.39983" y="364.913717" style="fill: #8c564b; stroke: #8c564b"/>
     <use xlink:href="#md3dca5ace4" x="106.282532" y="358.358623" style="fill: #8c564b; stroke: #8c564b"/>
     <use xlink:href="#md3dca5ace4" x="119.165234" y="363.909377" style="fill: #8c564b; stroke: #8c564b"/>
     <use xlink:href="#md3dca5ace4" x="132.047936" y="366.352254" style="fill: #8c564b; stroke: #8c564b"/>
     <use xlink:href="#md3dca5ace4" x="144.930638" y="357.748297" style="fill: #8c564b; stroke: #8c564b"/>
     <use xlink:href="#md3dca5ace4" x="157.81334" y="360.290015" style="fill: #8c564b; stroke: #8c564b"/>
     <use xlink:href="#md3dca5ace4" x="170.696042" y="466.291742" style="fill: #8c564b; stroke: #8c564b"/>
     <use xlink:href="#md3dca5ace4" x="183.578744" y="461.426709" style="fill: #8c564b; stroke: #8c564b"/>
     <use xlink:href="#md3dca5ace4" x="196.461446" y="359.706311" style="fill: #8c564b; stroke: #8c564b"/>
     <use xlink:href="#md3dca5ace4" x="209.344148" y="363.793307" style="fill: #8c564b; stroke: #8c564b"/>
     <use xlink:href="#md3dca5ace4" x="222.22685" y="366.147396" style="fill: #8c564b; stroke: #8c564b"/>
     <use xlink:href="#md3dca5ace4" x="235.109552" y="364.70504" style="fill: #8c564b; stroke: #8c564b"/>
     <use xlink:href="#md3dca5ace4" x="247.992254" y="403.598594" style="fill: #8c564b; stroke: #8c564b"/>
     <use xlink:href="#md3dca5ace4" x="273.757658" y="304.686863" style="fill: #8c564b; stroke: #8c564b"/>
     <use xlink:href="#md3dca5ace4" x="286.64036" y="363.080915" style="fill: #8c564b; stroke: #8c564b"/>
     <use xlink:href="#md3dca5ace4" x="312.405764" y="364.628012" style="fill: #8c564b; stroke: #8c564b"/>
     <use xlink:href="#md3dca5ace4" x="325.288466" y="363.007786" style="fill: #8c564b; stroke: #8c564b"/>
     <use xlink:href="#md3dca5ace4" x="338.171168" y="438.286838" style="fill: #8c564b; stroke: #8c564b"/>
     <use xlink:href="#md3dca5ace4" x="351.05387" y="393.483935" style="fill: #8c564b; stroke: #8c564b"/>
     <use xlink:href="#md3dca5ace4" x="363.936572" y="363.070452" style="fill: #8c564b; stroke: #8c564b"/>
     <use xlink:href="#md3dca5ace4" x="389.701976" y="465.507828" style="fill: #8c564b; stroke: #8c564b"/>
     <use xlink:href="#md3dca5ace4" x="402.584678" y="296.788363" style="fill: #8c564b; stroke: #8c564b"/>
     <use xlink:href="#md3dca5ace4" x="415.46738" y="363.659352" style="fill: #8c564b; stroke: #8c564b"/>
     <use xlink:href="#md3dca5ace4" x="428.350082" y="362.276146" style="fill: #8c564b; stroke: #8c564b"/>
     <use xlink:href="#md3dca5ace4" x="454.115486" y="466.599306" style="fill: #8c564b; stroke: #8c564b"/>
     <use xlink:href="#md3dca5ace4" x="466.998188" y="457.205838" style="fill: #8c564b; stroke: #8c564b"/>
     <use xlink:href="#md3dca5ace4" x="479.88089" y="394.032213" style="fill: #8c564b; stroke: #8c564b"/>
     <use xlink:href="#md3dca5ace4" x="492.763592" y="365.818977" style="fill: #8c564b; stroke: #8c564b"/>
     <use xlink:href="#md3dca5ace4" x="505.646294" y="362.663991" style="fill: #8c564b; stroke: #8c564b"/>
     <use xlink:href="#md3dca5ace4" x="518.528996" y="361.0387" style="fill: #8c564b; stroke: #8c564b"/>
     <use xlink:href="#md3dca5ace4" x="531.411698" y="427.206728" style="fill: #8c564b; stroke: #8c564b"/>
     <use xlink:href="#md3dca5ace4" x="544.2944" y="363.095878" style="fill: #8c564b; stroke: #8c564b"/>
     <use xlink:href="#md3dca5ace4" x="570.059804" y="466.311035" style="fill: #8c564b; stroke: #8c564b"/>
     <use xlink:href="#md3dca5ace4" x="582.942506" y="365.069698" style="fill: #8c564b; stroke: #8c564b"/>
     <use xlink:href="#md3dca5ace4" x="595.825208" y="464.843083" style="fill: #8c564b; stroke: #8c564b"/>
     <use xlink:href="#md3dca5ace4" x="621.590612" y="421.870836" style="fill: #8c564b; stroke: #8c564b"/>
     <use xlink:href="#md3dca5ace4" x="660.238718" y="406.505178" style="fill: #8c564b; stroke: #8c564b"/>
     <use xlink:href="#md3dca5ace4" x="673.12142" y="358.273009" style="fill: #8c564b; stroke: #8c564b"/>
    </g>
   </g>
   <g id="patch_3">
    <path d="M 64.41375 529.308125 
L 64.41375 23.837812 
" style="fill: none; stroke: #000000; stroke-width: 0.8; stroke-linejoin: miter; stroke-linecap: square"/>
   </g>
   <g id="patch_4">
    <path d="M 702.1075 529.308125 
L 702.1075 23.837812 
" style="fill: none; stroke: #000000; stroke-width: 0.8; stroke-linejoin: miter; stroke-linecap: square"/>
   </g>
   <g id="patch_5">
    <path d="M 64.41375 529.308125 
L 702.1075 529.308125 
" style="fill: none; stroke: #000000; stroke-width: 0.8; stroke-linejoin: miter; stroke-linecap: square"/>
   </g>
   <g id="patch_6">
    <path d="M 64.41375 23.837812 
L 702.1075 23.837812 
" style="fill: none; stroke: #000000; stroke-width: 0.8; stroke-linejoin: miter; stroke-linecap: square"/>
   </g>
   <g id="text_11">
    <text style="font: 700 14px 'DejaVu Sans', 'Bitstream Vera Sans', 'Computer Modern Sans Serif', 'Lucida Grande', 'Verdana', 'Geneva', 'Lucid', 'Arial', 'Helvetica', 'Avant Garde', sans-serif; text-anchor: middle" x="383.260625" y="17.837813" transform="rotate(-0 383.260625 17.837813)">Mixedworkload - Performance Trend</text>
   </g>
   <g id="legend_1">
    <g id="patch_7">
     <path d="M 740.992188 119.906563 
L 846.004688 119.906563 
Q 848.004688 119.906563 848.004688 117.906563 
L 848.004688 30.837813 
Q 848.004688 28.837813 846.004688 28.837813 
L 740.992188 28.837813 
Q 738.992188 28.837813 738.992188 30.837813 
L 738.992188 117.906563 
Q 738.992188 119.906563 740.992188 119.906563 
z
" style="fill: #ffffff; opacity: 0.8; stroke: #cccccc; stroke-linejoin: miter"/>
    </g>
    <g id="line2d_23">
     <path d="M 742.992188 36.93625 
L 752.992188 36.93625 
L 762.992188 36.93625 
" style="fill: none; stroke: #1f77b4; stroke-width: 2; stroke-linecap: square"/>
     <g>
      <use xlink:href="#mb37346a9e7" x="752.992188" y="36.93625" style="fill: #1f77b4; stroke: #1f77b4"/>
     </g>
    </g>
    <g id="text_12">
     <text style="font: 10px 'DejaVu Sans', 'Bitstream Vera Sans', 'Computer Modern Sans Serif', 'Lucida Grande', 'Verdana', 'Geneva', 'Lucid', 'Arial', 'Helvetica', 'Avant Garde', sans-serif; text-anchor: start" x="770.992188" y="40.43625" transform="rotate(-0 770.992188 40.43625)">gcc-14.2 - V1</text>
    </g>
    <g id="line2d_24">
     <path d="M 742.992188 51.614375 
L 752.992188 51.614375 
L 762.992188 51.614375 
" style="fill: none; stroke: #ff7f0e; stroke-width: 2; stroke-linecap: square"/>
     <g>
      <use xlink:href="#ma507dc699a" x="752.992188" y="51.614375" style="fill: #ff7f0e; stroke: #ff7f0e"/>
     </g>
    </g>
    <g id="text_13">
     <text style="font: 10px 'DejaVu Sans', 'Bitstream Vera Sans', 'Computer Modern Sans Serif', 'Lucida Grande', 'Verdana', 'Geneva', 'Lucid', 'Arial', 'Helvetica', 'Avant Garde', sans-serif; text-anchor: start" x="770.992188" y="55.114375" transform="rotate(-0 770.992188 55.114375)">gcc-14.2 - V2</text>
    </g>
    <g id="line2d_25">
     <path d="M 742.992188 66.2925 
L 752.992188 66.2925 
L 762.992188 66.2925 
" style="fill: none; stroke: #2ca02c; stroke-width: 2; stroke-linecap: square"/>
     <g>
      <use xlink:href="#m6b4af454d3" x="752.992188" y="66.2925" style="fill: #2ca02c; stroke: #2ca02c"/>
     </g>
    </g>
    <g id="text_14">
     <text style="font: 10px 'DejaVu Sans', 'Bitstream Vera Sans', 'Computer Modern Sans Serif', 'Lucida Grande', 'Verdana', 'Geneva', 'Lucid', 'Arial', 'Helvetica', 'Avant Garde', sans-serif; text-anchor: start" x="770.992188" y="69.7925" transform="rotate(-0 770.992188 69.7925)">gcc-14.2 - TBB</text>
    </g>
    <g id="line2d_26">
     <path d="M 742.992188 80.970625 
L 752.992188 80.970625 
L 762.992188 80.970625 
" style="fill: none; stroke: #d62728; stroke-width: 2; stroke-linecap: square"/>
     <g>
      <use xlink:href="#m6bc05c00a5" x="752.992188" y="80.970625" style="fill: #d62728; stroke: #d62728"/>
     </g>
    </g>
    <g id="text_15">
     <text style="font: 10px 'DejaVu Sans', 'Bitstream Vera Sans', 'Computer Modern Sans Serif', 'Lucida Grande', 'Verdana', 'Geneva', 'Lucid', 'Arial', 'Helvetica', 'Avant Garde', sans-serif; text-anchor: start" x="770.992188" y="84.470625" transform="rotate(-0 770.992188 84.470625)">gcc-4.2 - V1</text>
    </g>
    <g id="line2d_27">
     <path d="M 742.992188 95.64875 
L 752.992188 95.64875 
L 762.992188 95.64875 
" style="fill: none; stroke: #9467bd; stroke-width: 2; stroke-linecap: square"/>
     <g>
      <use xlink:href="#m91476f2748" x="752.992188" y="95.64875" style="fill: #9467bd; stroke: #9467bd"/>
     </g>
    </g>
    <g id="text_16">
     <text style="font: 10px 'DejaVu Sans', 'Bitstream Vera Sans', 'Computer Modern Sans Serif', 'Lucida Grande', 'Verdana', 'Geneva', 'Lucid', 'Arial', 'Helvetica', 'Avant Garde', sans-serif; text-anchor: start" x="770.992188" y="99.14875" transform="rotate(-0 770.992188 99.14875)">gcc-4.2 - V2</text>
    </g>
    <g id="line2d_28">
     <path d="M 742.992188 110.326875 
L 752.992188 110.326875 
L 762.992188 110.326875 
" style="fill: none; stroke: #8c564b; stroke-width: 2; stroke-linecap: square"/>
     <g>
      <use xlink:href="#md3dca5ace4" x="752.992188" y="110.326875" style="fill: #8c564b; stroke: #8c564b"/>
     </g>
    </g>
    <g id="text_17">
     <text style="font: 10px 'DejaVu Sans', 'Bitstream Vera Sans', 'Computer Modern Sans Serif', 'Lucida Grande', 'Verdana', 'Geneva', 'Lucid', 'Arial', 'Helvetica', 'Avant Garde', sans-serif; text-anchor: start" x="770.992188" y="113.826875" transform="rotate(-0 770.992188 113.826875)">gcc-4.2 - TBB</text>
    </g>
   </g>
  </g>
 </g>
 <defs>
  <clipPath id="p620e495ed5">
   <rect x="64.41375" y="23.837813" width="637.69375" height="505.470313"/>
  </clipPath>
 </defs>
</svg>
