<?xml version="1.0" encoding="utf-8" standalone="no"?>
<!DOCTYPE svg PUBLIC "-//W3C//DTD SVG 1.1//EN"
  "http://www.w3.org/Graphics/SVG/1.1/DTD/svg11.dtd">
<svg xmlns:xlink="http://www.w3.org/1999/xlink" width="855.204687pt" height="568.8pt" viewBox="0 0 855.204687 568.8" xmlns="http://www.w3.org/2000/svg" version="1.1">
 <metadata>
  <rdf:RDF xmlns:dc="http://purl.org/dc/elements/1.1/" xmlns:cc="http://creativecommons.org/ns#" xmlns:rdf="http://www.w3.org/1999/02/22-rdf-syntax-ns#">
   <cc:Work>
    <dc:type rdf:resource="http://purl.org/dc/dcmitype/StillImage"/>
    <dc:date>2025-08-30T02:09:48.022125</dc:date>
    <dc:format>image/svg+xml</dc:format>
    <dc:creator>
     <cc:Agent>
      <dc:title>Matplotlib v3.9.4, https://matplotlib.org/</dc:title>
     </cc:Agent>
    </dc:creator>
   </cc:Work>
  </rdf:RDF>
 </metadata>
 <defs>
  <style type="text/css">*{stroke-linejoin: round; stroke-linecap: butt}</style>
 </defs>
 <g id="figure_1">
  <g id="patch_1">
   <path d="M 0 568.8 
L 855.204687 568.8 
L 855.204687 0 
L 0 0 
z
" style="fill: #ffffff"/>
  </g>
  <g id="axes_1">
   <g id="patch_2">
    <path d="M 64.41375 529.308125 
L 702.1075 529.308125 
L 702.1075 23.837812 
L 64.41375 23.837812 
z
" style="fill: #ffffff"/>
   </g>
   <g id="matplotlib.axis_1">
    <g id="xtick_1">
     <g id="line2d_1">
      <path d="M 78.535173 529.308125 
L 78.535173 23.837812 
" clip-path="url(#p289cc1db41)" style="fill: none; stroke: #b0b0b0; stroke-opacity: 0.3; stroke-width: 0.8; stroke-linecap: square"/>
     </g>
     <g id="line2d_2">
      <defs>
       <path id="m325190234e" d="M 0 0 
L 0 3.5 
" style="stroke: #000000; stroke-width: 0.8"/>
      </defs>
      <g>
       <use xlink:href="#m325190234e" x="78.535173" y="529.308125" style="stroke: #000000; stroke-width: 0.8"/>
      </g>
     </g>
     <g id="text_1">
      <text style="font: 10px 'DejaVu Sans', 'Bitstream Vera Sans', 'Computer Modern Sans Serif', 'Lucida Grande', 'Verdana', 'Geneva', 'Lucid', 'Arial', 'Helvetica', 'Avant Garde', sans-serif; text-anchor: middle" x="78.535173" y="543.906563" transform="rotate(-0 78.535173 543.906563)">70</text>
     </g>
    </g>
    <g id="xtick_2">
     <g id="line2d_3">
      <path d="M 152.858454 529.308125 
L 152.858454 23.837812 
" clip-path="url(#p289cc1db41)" style="fill: none; stroke: #b0b0b0; stroke-opacity: 0.3; stroke-width: 0.8; stroke-linecap: square"/>
     </g>
     <g id="line2d_4">
      <g>
       <use xlink:href="#m325190234e" x="152.858454" y="529.308125" style="stroke: #000000; stroke-width: 0.8"/>
      </g>
     </g>
     <g id="text_2">
      <text style="font: 10px 'DejaVu Sans', 'Bitstream Vera Sans', 'Computer Modern Sans Serif', 'Lucida Grande', 'Verdana', 'Geneva', 'Lucid', 'Arial', 'Helvetica', 'Avant Garde', sans-serif; text-anchor: middle" x="152.858454" y="543.906563" transform="rotate(-0 152.858454 543.906563)">75</text>
     </g>
    </g>
    <g id="xtick_3">
     <g id="line2d_5">
      <path d="M 227.181735 529.308125 
L 227.181735 23.837812 
" clip-path="url(#p289cc1db41)" style="fill: none; stroke: #b0b0b0; stroke-opacity: 0.3; stroke-width: 0.8; stroke-linecap: square"/>
     </g>
     <g id="line2d_6">
      <g>
       <use xlink:href="#m325190234e" x="227.181735" y="529.308125" style="stroke: #000000; stroke-width: 0.8"/>
      </g>
     </g>
     <g id="text_3">
      <text style="font: 10px 'DejaVu Sans', 'Bitstream Vera Sans', 'Computer Modern Sans Serif', 'Lucida Grande', 'Verdana', 'Geneva', 'Lucid', 'Arial', 'Helvetica', 'Avant Garde', sans-serif; text-anchor: middle" x="227.181735" y="543.906563" transform="rotate(-0 227.181735 543.906563)">80</text>
     </g>
    </g>
    <g id="xtick_4">
     <g id="line2d_7">
      <path d="M 301.505016 529.308125 
L 301.505016 23.837812 
" clip-path="url(#p289cc1db41)" style="fill: none; stroke: #b0b0b0; stroke-opacity: 0.3; stroke-width: 0.8; stroke-linecap: square"/>
     </g>
     <g id="line2d_8">
      <g>
       <use xlink:href="#m325190234e" x="301.505016" y="529.308125" style="stroke: #000000; stroke-width: 0.8"/>
      </g>
     </g>
     <g id="text_4">
      <text style="font: 10px 'DejaVu Sans', 'Bitstream Vera Sans', 'Computer Modern Sans Serif', 'Lucida Grande', 'Verdana', 'Geneva', 'Lucid', 'Arial', 'Helvetica', 'Avant Garde', sans-serif; text-anchor: middle" x="301.505016" y="543.906563" transform="rotate(-0 301.505016 543.906563)">85</text>
     </g>
    </g>
    <g id="xtick_5">
     <g id="line2d_9">
      <path d="M 375.828297 529.308125 
L 375.828297 23.837812 
" clip-path="url(#p289cc1db41)" style="fill: none; stroke: #b0b0b0; stroke-opacity: 0.3; stroke-width: 0.8; stroke-linecap: square"/>
     </g>
     <g id="line2d_10">
      <g>
       <use xlink:href="#m325190234e" x="375.828297" y="529.308125" style="stroke: #000000; stroke-width: 0.8"/>
      </g>
     </g>
     <g id="text_5">
      <text style="font: 10px 'DejaVu Sans', 'Bitstream Vera Sans', 'Computer Modern Sans Serif', 'Lucida Grande', 'Verdana', 'Geneva', 'Lucid', 'Arial', 'Helvetica', 'Avant Garde', sans-serif; text-anchor: middle" x="375.828297" y="543.906563" transform="rotate(-0 375.828297 543.906563)">90</text>
     </g>
    </g>
    <g id="xtick_6">
     <g id="line2d_11">
      <path d="M 450.151578 529.308125 
L 450.151578 23.837812 
" clip-path="url(#p289cc1db41)" style="fill: none; stroke: #b0b0b0; stroke-opacity: 0.3; stroke-width: 0.8; stroke-linecap: square"/>
     </g>
     <g id="line2d_12">
      <g>
       <use xlink:href="#m325190234e" x="450.151578" y="529.308125" style="stroke: #000000; stroke-width: 0.8"/>
      </g>
     </g>
     <g id="text_6">
      <text style="font: 10px 'DejaVu Sans', 'Bitstream Vera Sans', 'Computer Modern Sans Serif', 'Lucida Grande', 'Verdana', 'Geneva', 'Lucid', 'Arial', 'Helvetica', 'Avant Garde', sans-serif; text-anchor: middle" x="450.151578" y="543.906563" transform="rotate(-0 450.151578 543.906563)">95</text>
     </g>
    </g>
    <g id="xtick_7">
     <g id="line2d_13">
      <path d="M 524.474859 529.308125 
L 524.474859 23.837812 
" clip-path="url(#p289cc1db41)" style="fill: none; stroke: #b0b0b0; stroke-opacity: 0.3; stroke-width: 0.8; stroke-linecap: square"/>
     </g>
     <g id="line2d_14">
      <g>
       <use xlink:href="#m325190234e" x="524.474859" y="529.308125" style="stroke: #000000; stroke-width: 0.8"/>
      </g>
     </g>
     <g id="text_7">
      <text style="font: 10px 'DejaVu Sans', 'Bitstream Vera Sans', 'Computer Modern Sans Serif', 'Lucida Grande', 'Verdana', 'Geneva', 'Lucid', 'Arial', 'Helvetica', 'Avant Garde', sans-serif; text-anchor: middle" x="524.474859" y="543.906563" transform="rotate(-0 524.474859 543.906563)">100</text>
     </g>
    </g>
    <g id="xtick_8">
     <g id="line2d_15">
      <path d="M 598.79814 529.308125 
L 598.79814 23.837812 
" clip-path="url(#p289cc1db41)" style="fill: none; stroke: #b0b0b0; stroke-opacity: 0.3; stroke-width: 0.8; stroke-linecap: square"/>
     </g>
     <g id="line2d_16">
      <g>
       <use xlink:href="#m325190234e" x="598.79814" y="529.308125" style="stroke: #000000; stroke-width: 0.8"/>
      </g>
     </g>
     <g id="text_8">
      <text style="font: 10px 'DejaVu Sans', 'Bitstream Vera Sans', 'Computer Modern Sans Serif', 'Lucida Grande', 'Verdana', 'Geneva', 'Lucid', 'Arial', 'Helvetica', 'Avant Garde', sans-serif; text-anchor: middle" x="598.79814" y="543.906563" transform="rotate(-0 598.79814 543.906563)">105</text>
     </g>
    </g>
    <g id="xtick_9">
     <g id="line2d_17">
      <path d="M 673.12142 529.308125 
L 673.12142 23.837812 
" clip-path="url(#p289cc1db41)" style="fill: none; stroke: #b0b0b0; stroke-opacity: 0.3; stroke-width: 0.8; stroke-linecap: square"/>
     </g>
     <g id="line2d_18">
      <g>
       <use xlink:href="#m325190234e" x="673.12142" y="529.308125" style="stroke: #000000; stroke-width: 0.8"/>
      </g>
     </g>
     <g id="text_9">
      <text style="font: 10px 'DejaVu Sans', 'Bitstream Vera Sans', 'Computer Modern Sans Serif', 'Lucida Grande', 'Verdana', 'Geneva', 'Lucid', 'Arial', 'Helvetica', 'Avant Garde', sans-serif; text-anchor: middle" x="673.12142" y="543.906563" transform="rotate(-0 673.12142 543.906563)">110</text>
     </g>
    </g>
    <g id="text_10">
     <text style="font: 12px 'DejaVu Sans', 'Bitstream Vera Sans', 'Computer Modern Sans Serif', 'Lucida Grande', 'Verdana', 'Geneva', 'Lucid', 'Arial', 'Helvetica', 'Avant Garde', sans-serif; text-anchor: middle" x="383.260625" y="559.104375" transform="rotate(-0 383.260625 559.104375)">Build Number</text>
    </g>
   </g>
   <g id="matplotlib.axis_2">
    <g id="ytick_1">
     <g id="line2d_19">
      <defs>
       <path id="m4d8d380051" d="M 0 0 
L -2 0 
" style="stroke: #000000; stroke-width: 0.6"/>
      </defs>
      <g>
       <use xlink:href="#m4d8d380051" x="64.41375" y="514.915957" style="stroke: #000000; stroke-width: 0.6"/>
      </g>
     </g>
     <g id="text_11">
      <!-- $\mathdefault{5\times10^{7}}$ -->
      <g transform="translate(22.81375 518.715175)">
       <text>
        <tspan style="font: 10px 'DejaVu Sans'" x="0 8.310547 18.637695 25" y="-0.06406250000000036">5×10</tspan>
        <tspan style="font: 7px 'DejaVu Sans'" x="31.458008" y="-3.8921875000000004">7</tspan>
       </text>
      </g>
     </g>
    </g>
    <g id="ytick_2">
     <g id="line2d_20">
      <g>
       <use xlink:href="#m4d8d380051" x="64.41375" y="288.174215" style="stroke: #000000; stroke-width: 0.6"/>
      </g>
     </g>
     <g id="text_12">
      <!-- $\mathdefault{6\times10^{7}}$ -->
      <g transform="translate(22.81375 291.973434)">
       <text>
        <tspan style="font: 10px 'DejaVu Sans'" x="0 8.310547 18.637695 25" y="-0.06406250000000036">6×10</tspan>
        <tspan style="font: 7px 'DejaVu Sans'" x="31.458008" y="-3.8921875000000004">7</tspan>
       </text>
      </g>
     </g>
    </g>
    <g id="ytick_3">
     <g id="line2d_21">
      <g>
       <use xlink:href="#m4d8d380051" x="64.41375" y="96.466805" style="stroke: #000000; stroke-width: 0.6"/>
      </g>
     </g>
     <g id="text_13">
      <!-- $\mathdefault{7\times10^{7}}$ -->
      <g transform="translate(22.81375 100.266023)">
       <text>
        <tspan style="font: 10px 'DejaVu Sans'" x="0 8.310547 18.637695 25" y="-0.06406250000000036">7×10</tspan>
        <tspan style="font: 7px 'DejaVu Sans'" x="31.458008" y="-3.8921875000000004">7</tspan>
       </text>
      </g>
     </g>
    </g>
    <g id="text_14">
     <text style="font: 12px 'DejaVu Sans', 'Bitstream Vera Sans', 'Computer Modern Sans Serif', 'Lucida Grande', 'Verdana', 'Geneva', 'Lucid', 'Arial', 'Helvetica', 'Avant Garde', sans-serif; text-anchor: middle" x="16.318125" y="276.572969" transform="rotate(-90 16.318125 276.572969)">Median Elapsed Time (nanoseconds)</text>
    </g>
   </g>
   <g id="line2d_22">
    <path d="M 93.39983 493.691829 
L 108.264486 490.814075 
L 123.129142 487.494679 
L 137.993798 487.145326 
L 152.858454 488.410505 
L 167.72311 475.327557 
L 182.587767 487.596827 
L 197.452423 488.415686 
L 212.317079 489.713847 
L 227.181735 457.081027 
L 242.046391 483.450798 
L 256.911047 486.101722 
L 271.775704 488.754486 
L 286.64036 490.455908 
L 301.505016 482.796643 
L 316.369672 488.14356 
L 346.098985 488.224408 
L 360.963641 490.992343 
L 375.828297 489.612786 
L 390.692953 487.665045 
L 405.557609 485.091497 
L 420.422265 485.139142 
L 435.286922 487.108851 
L 450.151578 489.465187 
L 465.016234 488.642446 
L 479.88089 475.771404 
L 509.610203 470.614423 
L 524.474859 487.595644 
L 539.339515 490.252334 
L 554.204171 488.974158 
L 569.068827 487.566519 
L 583.933483 486.91951 
L 598.79814 488.851067 
L 613.662796 482.397861 
L 643.392108 483.640904 
L 658.256764 489.950559 
L 673.12142 483.885191 
" clip-path="url(#p289cc1db41)" style="fill: none; stroke: #1f77b4; stroke-width: 2; stroke-linecap: square"/>
    <defs>
     <path id="m3ba02473e0" d="M 0 3 
C 0.795609 3 1.55874 2.683901 2.12132 2.12132 
C 2.683901 1.55874 3 0.795609 3 0 
C 3 -0.795609 2.683901 -1.55874 2.12132 -2.12132 
C 1.55874 -2.683901 0.795609 -3 0 -3 
C -0.795609 -3 -1.55874 -2.683901 -2.12132 -2.12132 
C -2.683901 -1.55874 -3 -0.795609 -3 0 
C -3 0.795609 -2.683901 1.55874 -2.12132 2.12132 
C -1.55874 2.683901 -0.795609 3 0 3 
z
" style="stroke: #1f77b4"/>
    </defs>
    <g clip-path="url(#p289cc1db41)">
     <use xlink:href="#m3ba02473e0" x="93.39983" y="493.691829" style="fill: #1f77b4; stroke: #1f77b4"/>
     <use xlink:href="#m3ba02473e0" x="108.264486" y="490.814075" style="fill: #1f77b4; stroke: #1f77b4"/>
     <use xlink:href="#m3ba02473e0" x="123.129142" y="487.494679" style="fill: #1f77b4; stroke: #1f77b4"/>
     <use xlink:href="#m3ba02473e0" x="137.993798" y="487.145326" style="fill: #1f77b4; stroke: #1f77b4"/>
     <use xlink:href="#m3ba02473e0" x="152.858454" y="488.410505" style="fill: #1f77b4; stroke: #1f77b4"/>
     <use xlink:href="#m3ba02473e0" x="167.72311" y="475.327557" style="fill: #1f77b4; stroke: #1f77b4"/>
     <use xlink:href="#m3ba02473e0" x="182.587767" y="487.596827" style="fill: #1f77b4; stroke: #1f77b4"/>
     <use xlink:href="#m3ba02473e0" x="197.452423" y="488.415686" style="fill: #1f77b4; stroke: #1f77b4"/>
     <use xlink:href="#m3ba02473e0" x="212.317079" y="489.713847" style="fill: #1f77b4; stroke: #1f77b4"/>
     <use xlink:href="#m3ba02473e0" x="227.181735" y="457.081027" style="fill: #1f77b4; stroke: #1f77b4"/>
     <use xlink:href="#m3ba02473e0" x="242.046391" y="483.450798" style="fill: #1f77b4; stroke: #1f77b4"/>
     <use xlink:href="#m3ba02473e0" x="256.911047" y="486.101722" style="fill: #1f77b4; stroke: #1f77b4"/>
     <use xlink:href="#m3ba02473e0" x="271.775704" y="488.754486" style="fill: #1f77b4; stroke: #1f77b4"/>
     <use xlink:href="#m3ba02473e0" x="286.64036" y="490.455908" style="fill: #1f77b4; stroke: #1f77b4"/>
     <use xlink:href="#m3ba02473e0" x="301.505016" y="482.796643" style="fill: #1f77b4; stroke: #1f77b4"/>
     <use xlink:href="#m3ba02473e0" x="316.369672" y="488.14356" style="fill: #1f77b4; stroke: #1f77b4"/>
     <use xlink:href="#m3ba02473e0" x="346.098985" y="488.224408" style="fill: #1f77b4; stroke: #1f77b4"/>
     <use xlink:href="#m3ba02473e0" x="360.963641" y="490.992343" style="fill: #1f77b4; stroke: #1f77b4"/>
     <use xlink:href="#m3ba02473e0" x="375.828297" y="489.612786" style="fill: #1f77b4; stroke: #1f77b4"/>
     <use xlink:href="#m3ba02473e0" x="390.692953" y="487.665045" style="fill: #1f77b4; stroke: #1f77b4"/>
     <use xlink:href="#m3ba02473e0" x="405.557609" y="485.091497" style="fill: #1f77b4; stroke: #1f77b4"/>
     <use xlink:href="#m3ba02473e0" x="420.422265" y="485.139142" style="fill: #1f77b4; stroke: #1f77b4"/>
     <use xlink:href="#m3ba02473e0" x="435.286922" y="487.108851" style="fill: #1f77b4; stroke: #1f77b4"/>
     <use xlink:href="#m3ba02473e0" x="450.151578" y="489.465187" style="fill: #1f77b4; stroke: #1f77b4"/>
     <use xlink:href="#m3ba02473e0" x="465.016234" y="488.642446" style="fill: #1f77b4; stroke: #1f77b4"/>
     <use xlink:href="#m3ba02473e0" x="479.88089" y="475.771404" style="fill: #1f77b4; stroke: #1f77b4"/>
     <use xlink:href="#m3ba02473e0" x="509.610203" y="470.614423" style="fill: #1f77b4; stroke: #1f77b4"/>
     <use xlink:href="#m3ba02473e0" x="524.474859" y="487.595644" style="fill: #1f77b4; stroke: #1f77b4"/>
     <use xlink:href="#m3ba02473e0" x="539.339515" y="490.252334" style="fill: #1f77b4; stroke: #1f77b4"/>
     <use xlink:href="#m3ba02473e0" x="554.204171" y="488.974158" style="fill: #1f77b4; stroke: #1f77b4"/>
     <use xlink:href="#m3ba02473e0" x="569.068827" y="487.566519" style="fill: #1f77b4; stroke: #1f77b4"/>
     <use xlink:href="#m3ba02473e0" x="583.933483" y="486.91951" style="fill: #1f77b4; stroke: #1f77b4"/>
     <use xlink:href="#m3ba02473e0" x="598.79814" y="488.851067" style="fill: #1f77b4; stroke: #1f77b4"/>
     <use xlink:href="#m3ba02473e0" x="613.662796" y="482.397861" style="fill: #1f77b4; stroke: #1f77b4"/>
     <use xlink:href="#m3ba02473e0" x="643.392108" y="483.640904" style="fill: #1f77b4; stroke: #1f77b4"/>
     <use xlink:href="#m3ba02473e0" x="658.256764" y="489.950559" style="fill: #1f77b4; stroke: #1f77b4"/>
     <use xlink:href="#m3ba02473e0" x="673.12142" y="483.885191" style="fill: #1f77b4; stroke: #1f77b4"/>
    </g>
   </g>
   <g id="line2d_23">
    <path d="M 93.39983 214.978781 
L 108.264486 182.906967 
L 123.129142 272.956006 
L 137.993798 182.029092 
L 152.858454 268.872976 
L 167.72311 274.785303 
L 182.587767 171.913022 
L 197.452423 270.679187 
L 212.317079 182.508331 
L 227.181735 270.8712 
L 242.046391 182.657976 
L 256.911047 183.510793 
L 271.775704 272.463822 
L 286.64036 182.405436 
L 301.505016 272.552038 
L 316.369672 181.404628 
L 346.098985 275.226397 
L 360.963641 183.724883 
L 375.828297 182.093211 
L 390.692953 183.676891 
L 405.557609 275.146352 
L 420.422265 181.106543 
L 435.286922 272.254953 
L 450.151578 272.203128 
L 465.016234 489.711083 
L 479.88089 487.792477 
L 509.610203 488.905576 
L 524.474859 487.110074 
L 539.339515 490.669798 
L 554.204171 488.46594 
L 569.068827 489.881935 
L 583.933483 490.438612 
L 598.79814 489.117759 
L 613.662796 490.470534 
L 643.392108 488.81708 
L 658.256764 490.381763 
L 673.12142 489.858134 
" clip-path="url(#p289cc1db41)" style="fill: none; stroke: #ff7f0e; stroke-width: 2; stroke-linecap: square"/>
    <defs>
     <path id="mb77cf0e72d" d="M 0 3 
C 0.795609 3 1.55874 2.683901 2.12132 2.12132 
C 2.683901 1.55874 3 0.795609 3 0 
C 3 -0.795609 2.683901 -1.55874 2.12132 -2.12132 
C 1.55874 -2.683901 0.795609 -3 0 -3 
C -0.795609 -3 -1.55874 -2.683901 -2.12132 -2.12132 
C -2.683901 -1.55874 -3 -0.795609 -3 0 
C -3 0.795609 -2.683901 1.55874 -2.12132 2.12132 
C -1.55874 2.683901 -0.795609 3 0 3 
z
" style="stroke: #ff7f0e"/>
    </defs>
    <g clip-path="url(#p289cc1db41)">
     <use xlink:href="#mb77cf0e72d" x="93.39983" y="214.978781" style="fill: #ff7f0e; stroke: #ff7f0e"/>
     <use xlink:href="#mb77cf0e72d" x="108.264486" y="182.906967" style="fill: #ff7f0e; stroke: #ff7f0e"/>
     <use xlink:href="#mb77cf0e72d" x="123.129142" y="272.956006" style="fill: #ff7f0e; stroke: #ff7f0e"/>
     <use xlink:href="#mb77cf0e72d" x="137.993798" y="182.029092" style="fill: #ff7f0e; stroke: #ff7f0e"/>
     <use xlink:href="#mb77cf0e72d" x="152.858454" y="268.872976" style="fill: #ff7f0e; stroke: #ff7f0e"/>
     <use xlink:href="#mb77cf0e72d" x="167.72311" y="274.785303" style="fill: #ff7f0e; stroke: #ff7f0e"/>
     <use xlink:href="#mb77cf0e72d" x="182.587767" y="171.913022" style="fill: #ff7f0e; stroke: #ff7f0e"/>
     <use xlink:href="#mb77cf0e72d" x="197.452423" y="270.679187" style="fill: #ff7f0e; stroke: #ff7f0e"/>
     <use xlink:href="#mb77cf0e72d" x="212.317079" y="182.508331" style="fill: #ff7f0e; stroke: #ff7f0e"/>
     <use xlink:href="#mb77cf0e72d" x="227.181735" y="270.8712" style="fill: #ff7f0e; stroke: #ff7f0e"/>
     <use xlink:href="#mb77cf0e72d" x="242.046391" y="182.657976" style="fill: #ff7f0e; stroke: #ff7f0e"/>
     <use xlink:href="#mb77cf0e72d" x="256.911047" y="183.510793" style="fill: #ff7f0e; stroke: #ff7f0e"/>
     <use xlink:href="#mb77cf0e72d" x="271.775704" y="272.463822" style="fill: #ff7f0e; stroke: #ff7f0e"/>
     <use xlink:href="#mb77cf0e72d" x="286.64036" y="182.405436" style="fill: #ff7f0e; stroke: #ff7f0e"/>
     <use xlink:href="#mb77cf0e72d" x="301.505016" y="272.552038" style="fill: #ff7f0e; stroke: #ff7f0e"/>
     <use xlink:href="#mb77cf0e72d" x="316.369672" y="181.404628" style="fill: #ff7f0e; stroke: #ff7f0e"/>
     <use xlink:href="#mb77cf0e72d" x="346.098985" y="275.226397" style="fill: #ff7f0e; stroke: #ff7f0e"/>
     <use xlink:href="#mb77cf0e72d" x="360.963641" y="183.724883" style="fill: #ff7f0e; stroke: #ff7f0e"/>
     <use xlink:href="#mb77cf0e72d" x="375.828297" y="182.093211" style="fill: #ff7f0e; stroke: #ff7f0e"/>
     <use xlink:href="#mb77cf0e72d" x="390.692953" y="183.676891" style="fill: #ff7f0e; stroke: #ff7f0e"/>
     <use xlink:href="#mb77cf0e72d" x="405.557609" y="275.146352" style="fill: #ff7f0e; stroke: #ff7f0e"/>
     <use xlink:href="#mb77cf0e72d" x="420.422265" y="181.106543" style="fill: #ff7f0e; stroke: #ff7f0e"/>
     <use xlink:href="#mb77cf0e72d" x="435.286922" y="272.254953" style="fill: #ff7f0e; stroke: #ff7f0e"/>
     <use xlink:href="#mb77cf0e72d" x="450.151578" y="272.203128" style="fill: #ff7f0e; stroke: #ff7f0e"/>
     <use xlink:href="#mb77cf0e72d" x="465.016234" y="489.711083" style="fill: #ff7f0e; stroke: #ff7f0e"/>
     <use xlink:href="#mb77cf0e72d" x="479.88089" y="487.792477" style="fill: #ff7f0e; stroke: #ff7f0e"/>
     <use xlink:href="#mb77cf0e72d" x="509.610203" y="488.905576" style="fill: #ff7f0e; stroke: #ff7f0e"/>
     <use xlink:href="#mb77cf0e72d" x="524.474859" y="487.110074" style="fill: #ff7f0e; stroke: #ff7f0e"/>
     <use xlink:href="#mb77cf0e72d" x="539.339515" y="490.669798" style="fill: #ff7f0e; stroke: #ff7f0e"/>
     <use xlink:href="#mb77cf0e72d" x="554.204171" y="488.46594" style="fill: #ff7f0e; stroke: #ff7f0e"/>
     <use xlink:href="#mb77cf0e72d" x="569.068827" y="489.881935" style="fill: #ff7f0e; stroke: #ff7f0e"/>
     <use xlink:href="#mb77cf0e72d" x="583.933483" y="490.438612" style="fill: #ff7f0e; stroke: #ff7f0e"/>
     <use xlink:href="#mb77cf0e72d" x="598.79814" y="489.117759" style="fill: #ff7f0e; stroke: #ff7f0e"/>
     <use xlink:href="#mb77cf0e72d" x="613.662796" y="490.470534" style="fill: #ff7f0e; stroke: #ff7f0e"/>
     <use xlink:href="#mb77cf0e72d" x="643.392108" y="488.81708" style="fill: #ff7f0e; stroke: #ff7f0e"/>
     <use xlink:href="#mb77cf0e72d" x="658.256764" y="490.381763" style="fill: #ff7f0e; stroke: #ff7f0e"/>
     <use xlink:href="#mb77cf0e72d" x="673.12142" y="489.858134" style="fill: #ff7f0e; stroke: #ff7f0e"/>
    </g>
   </g>
   <g id="line2d_24">
    <path d="M 93.39983 506.332202 
L 108.264486 488.22548 
L 123.129142 487.132838 
L 137.993798 488.186015 
L 152.858454 486.766103 
L 167.72311 489.39061 
L 182.587767 488.226181 
L 197.452423 487.796971 
L 212.317079 488.498719 
L 227.181735 489.635154 
L 242.046391 487.489777 
L 256.911047 488.674621 
L 271.775704 488.025081 
L 286.64036 486.62109 
L 301.505016 488.454844 
L 316.369672 487.47967 
L 346.098985 488.84933 
L 360.963641 488.865783 
L 375.828297 488.877107 
L 390.692953 487.310761 
L 405.557609 485.899652 
L 420.422265 488.616735 
L 435.286922 489.033189 
L 450.151578 489.763866 
L 465.016234 488.529815 
L 479.88089 486.353552 
L 509.610203 488.038332 
L 524.474859 488.389339 
L 539.339515 488.955913 
L 554.204171 489.2194 
L 569.068827 488.100693 
L 583.933483 489.304055 
L 598.79814 488.114028 
L 613.662796 488.279243 
L 643.392108 487.252874 
L 658.256764 487.386414 
L 673.12142 488.210576 
" clip-path="url(#p289cc1db41)" style="fill: none; stroke: #2ca02c; stroke-width: 2; stroke-linecap: square"/>
    <defs>
     <path id="m871543a638" d="M 0 3 
C 0.795609 3 1.55874 2.683901 2.12132 2.12132 
C 2.683901 1.55874 3 0.795609 3 0 
C 3 -0.795609 2.683901 -1.55874 2.12132 -2.12132 
C 1.55874 -2.683901 0.795609 -3 0 -3 
C -0.795609 -3 -1.55874 -2.683901 -2.12132 -2.12132 
C -2.683901 -1.55874 -3 -0.795609 -3 0 
C -3 0.795609 -2.683901 1.55874 -2.12132 2.12132 
C -1.55874 2.683901 -0.795609 3 0 3 
z
" style="stroke: #2ca02c"/>
    </defs>
    <g clip-path="url(#p289cc1db41)">
     <use xlink:href="#m871543a638" x="93.39983" y="506.332202" style="fill: #2ca02c; stroke: #2ca02c"/>
     <use xlink:href="#m871543a638" x="108.264486" y="488.22548" style="fill: #2ca02c; stroke: #2ca02c"/>
     <use xlink:href="#m871543a638" x="123.129142" y="487.132838" style="fill: #2ca02c; stroke: #2ca02c"/>
     <use xlink:href="#m871543a638" x="137.993798" y="488.186015" style="fill: #2ca02c; stroke: #2ca02c"/>
     <use xlink:href="#m871543a638" x="152.858454" y="486.766103" style="fill: #2ca02c; stroke: #2ca02c"/>
     <use xlink:href="#m871543a638" x="167.72311" y="489.39061" style="fill: #2ca02c; stroke: #2ca02c"/>
     <use xlink:href="#m871543a638" x="182.587767" y="488.226181" style="fill: #2ca02c; stroke: #2ca02c"/>
     <use xlink:href="#m871543a638" x="197.452423" y="487.796971" style="fill: #2ca02c; stroke: #2ca02c"/>
     <use xlink:href="#m871543a638" x="212.317079" y="488.498719" style="fill: #2ca02c; stroke: #2ca02c"/>
     <use xlink:href="#m871543a638" x="227.181735" y="489.635154" style="fill: #2ca02c; stroke: #2ca02c"/>
     <use xlink:href="#m871543a638" x="242.046391" y="487.489777" style="fill: #2ca02c; stroke: #2ca02c"/>
     <use xlink:href="#m871543a638" x="256.911047" y="488.674621" style="fill: #2ca02c; stroke: #2ca02c"/>
     <use xlink:href="#m871543a638" x="271.775704" y="488.025081" style="fill: #2ca02c; stroke: #2ca02c"/>
     <use xlink:href="#m871543a638" x="286.64036" y="486.62109" style="fill: #2ca02c; stroke: #2ca02c"/>
     <use xlink:href="#m871543a638" x="301.505016" y="488.454844" style="fill: #2ca02c; stroke: #2ca02c"/>
     <use xlink:href="#m871543a638" x="316.369672" y="487.47967" style="fill: #2ca02c; stroke: #2ca02c"/>
     <use xlink:href="#m871543a638" x="346.098985" y="488.84933" style="fill: #2ca02c; stroke: #2ca02c"/>
     <use xlink:href="#m871543a638" x="360.963641" y="488.865783" style="fill: #2ca02c; stroke: #2ca02c"/>
     <use xlink:href="#m871543a638" x="375.828297" y="488.877107" style="fill: #2ca02c; stroke: #2ca02c"/>
     <use xlink:href="#m871543a638" x="390.692953" y="487.310761" style="fill: #2ca02c; stroke: #2ca02c"/>
     <use xlink:href="#m871543a638" x="405.557609" y="485.899652" style="fill: #2ca02c; stroke: #2ca02c"/>
     <use xlink:href="#m871543a638" x="420.422265" y="488.616735" style="fill: #2ca02c; stroke: #2ca02c"/>
     <use xlink:href="#m871543a638" x="435.286922" y="489.033189" style="fill: #2ca02c; stroke: #2ca02c"/>
     <use xlink:href="#m871543a638" x="450.151578" y="489.763866" style="fill: #2ca02c; stroke: #2ca02c"/>
     <use xlink:href="#m871543a638" x="465.016234" y="488.529815" style="fill: #2ca02c; stroke: #2ca02c"/>
     <use xlink:href="#m871543a638" x="479.88089" y="486.353552" style="fill: #2ca02c; stroke: #2ca02c"/>
     <use xlink:href="#m871543a638" x="509.610203" y="488.038332" style="fill: #2ca02c; stroke: #2ca02c"/>
     <use xlink:href="#m871543a638" x="524.474859" y="488.389339" style="fill: #2ca02c; stroke: #2ca02c"/>
     <use xlink:href="#m871543a638" x="539.339515" y="488.955913" style="fill: #2ca02c; stroke: #2ca02c"/>
     <use xlink:href="#m871543a638" x="554.204171" y="489.2194" style="fill: #2ca02c; stroke: #2ca02c"/>
     <use xlink:href="#m871543a638" x="569.068827" y="488.100693" style="fill: #2ca02c; stroke: #2ca02c"/>
     <use xlink:href="#m871543a638" x="583.933483" y="489.304055" style="fill: #2ca02c; stroke: #2ca02c"/>
     <use xlink:href="#m871543a638" x="598.79814" y="488.114028" style="fill: #2ca02c; stroke: #2ca02c"/>
     <use xlink:href="#m871543a638" x="613.662796" y="488.279243" style="fill: #2ca02c; stroke: #2ca02c"/>
     <use xlink:href="#m871543a638" x="643.392108" y="487.252874" style="fill: #2ca02c; stroke: #2ca02c"/>
     <use xlink:href="#m871543a638" x="658.256764" y="487.386414" style="fill: #2ca02c; stroke: #2ca02c"/>
     <use xlink:href="#m871543a638" x="673.12142" y="488.210576" style="fill: #2ca02c; stroke: #2ca02c"/>
    </g>
   </g>
   <g id="line2d_25">
    <path d="M 93.39983 284.582811 
L 108.264486 287.362379 
L 123.129142 286.431637 
L 137.993798 285.037666 
L 152.858454 287.11432 
L 167.72311 282.282277 
L 182.587767 283.577155 
L 197.452423 286.238334 
L 212.317079 283.759492 
L 227.181735 286.297496 
L 242.046391 287.752534 
L 256.911047 281.162939 
L 271.775704 284.020288 
L 301.505016 284.844574 
L 316.369672 286.186715 
L 346.098985 289.351632 
L 360.963641 287.698079 
L 375.828297 284.38334 
L 390.692953 285.367533 
L 405.557609 285.749032 
L 435.286922 286.351667 
L 450.151578 288.068451 
L 465.016234 286.273402 
L 479.88089 282.389277 
L 509.610203 285.068925 
L 524.474859 282.095847 
L 539.339515 285.504043 
L 554.204171 284.925507 
L 569.068827 285.20077 
L 583.933483 287.441334 
L 598.79814 282.722539 
L 613.662796 276.577594 
L 643.392108 286.441383 
L 658.256764 275.962874 
L 673.12142 282.81132 
" clip-path="url(#p289cc1db41)" style="fill: none; stroke: #d62728; stroke-width: 2; stroke-linecap: square"/>
    <defs>
     <path id="mc2ecfab70d" d="M 0 3 
C 0.795609 3 1.55874 2.683901 2.12132 2.12132 
C 2.683901 1.55874 3 0.795609 3 0 
C 3 -0.795609 2.683901 -1.55874 2.12132 -2.12132 
C 1.55874 -2.683901 0.795609 -3 0 -3 
C -0.795609 -3 -1.55874 -2.683901 -2.12132 -2.12132 
C -2.683901 -1.55874 -3 -0.795609 -3 0 
C -3 0.795609 -2.683901 1.55874 -2.12132 2.12132 
C -1.55874 2.683901 -0.795609 3 0 3 
z
" style="stroke: #d62728"/>
    </defs>
    <g clip-path="url(#p289cc1db41)">
     <use xlink:href="#mc2ecfab70d" x="93.39983" y="284.582811" style="fill: #d62728; stroke: #d62728"/>
     <use xlink:href="#mc2ecfab70d" x="108.264486" y="287.362379" style="fill: #d62728; stroke: #d62728"/>
     <use xlink:href="#mc2ecfab70d" x="123.129142" y="286.431637" style="fill: #d62728; stroke: #d62728"/>
     <use xlink:href="#mc2ecfab70d" x="137.993798" y="285.037666" style="fill: #d62728; stroke: #d62728"/>
     <use xlink:href="#mc2ecfab70d" x="152.858454" y="287.11432" style="fill: #d62728; stroke: #d62728"/>
     <use xlink:href="#mc2ecfab70d" x="167.72311" y="282.282277" style="fill: #d62728; stroke: #d62728"/>
     <use xlink:href="#mc2ecfab70d" x="182.587767" y="283.577155" style="fill: #d62728; stroke: #d62728"/>
     <use xlink:href="#mc2ecfab70d" x="197.452423" y="286.238334" style="fill: #d62728; stroke: #d62728"/>
     <use xlink:href="#mc2ecfab70d" x="212.317079" y="283.759492" style="fill: #d62728; stroke: #d62728"/>
     <use xlink:href="#mc2ecfab70d" x="227.181735" y="286.297496" style="fill: #d62728; stroke: #d62728"/>
     <use xlink:href="#mc2ecfab70d" x="242.046391" y="287.752534" style="fill: #d62728; stroke: #d62728"/>
     <use xlink:href="#mc2ecfab70d" x="256.911047" y="281.162939" style="fill: #d62728; stroke: #d62728"/>
     <use xlink:href="#mc2ecfab70d" x="271.775704" y="284.020288" style="fill: #d62728; stroke: #d62728"/>
     <use xlink:href="#mc2ecfab70d" x="301.505016" y="284.844574" style="fill: #d62728; stroke: #d62728"/>
     <use xlink:href="#mc2ecfab70d" x="316.369672" y="286.186715" style="fill: #d62728; stroke: #d62728"/>
     <use xlink:href="#mc2ecfab70d" x="346.098985" y="289.351632" style="fill: #d62728; stroke: #d62728"/>
     <use xlink:href="#mc2ecfab70d" x="360.963641" y="287.698079" style="fill: #d62728; stroke: #d62728"/>
     <use xlink:href="#mc2ecfab70d" x="375.828297" y="284.38334" style="fill: #d62728; stroke: #d62728"/>
     <use xlink:href="#mc2ecfab70d" x="390.692953" y="285.367533" style="fill: #d62728; stroke: #d62728"/>
     <use xlink:href="#mc2ecfab70d" x="405.557609" y="285.749032" style="fill: #d62728; stroke: #d62728"/>
     <use xlink:href="#mc2ecfab70d" x="435.286922" y="286.351667" style="fill: #d62728; stroke: #d62728"/>
     <use xlink:href="#mc2ecfab70d" x="450.151578" y="288.068451" style="fill: #d62728; stroke: #d62728"/>
     <use xlink:href="#mc2ecfab70d" x="465.016234" y="286.273402" style="fill: #d62728; stroke: #d62728"/>
     <use xlink:href="#mc2ecfab70d" x="479.88089" y="282.389277" style="fill: #d62728; stroke: #d62728"/>
     <use xlink:href="#mc2ecfab70d" x="509.610203" y="285.068925" style="fill: #d62728; stroke: #d62728"/>
     <use xlink:href="#mc2ecfab70d" x="524.474859" y="282.095847" style="fill: #d62728; stroke: #d62728"/>
     <use xlink:href="#mc2ecfab70d" x="539.339515" y="285.504043" style="fill: #d62728; stroke: #d62728"/>
     <use xlink:href="#mc2ecfab70d" x="554.204171" y="284.925507" style="fill: #d62728; stroke: #d62728"/>
     <use xlink:href="#mc2ecfab70d" x="569.068827" y="285.20077" style="fill: #d62728; stroke: #d62728"/>
     <use xlink:href="#mc2ecfab70d" x="583.933483" y="287.441334" style="fill: #d62728; stroke: #d62728"/>
     <use xlink:href="#mc2ecfab70d" x="598.79814" y="282.722539" style="fill: #d62728; stroke: #d62728"/>
     <use xlink:href="#mc2ecfab70d" x="613.662796" y="276.577594" style="fill: #d62728; stroke: #d62728"/>
     <use xlink:href="#mc2ecfab70d" x="643.392108" y="286.441383" style="fill: #d62728; stroke: #d62728"/>
     <use xlink:href="#mc2ecfab70d" x="658.256764" y="275.962874" style="fill: #d62728; stroke: #d62728"/>
     <use xlink:href="#mc2ecfab70d" x="673.12142" y="282.81132" style="fill: #d62728; stroke: #d62728"/>
    </g>
   </g>
   <g id="line2d_26">
    <path d="M 93.39983 72.672576 
L 108.264486 71.170534 
L 123.129142 171.757446 
L 137.993798 76.360371 
L 152.858454 175.593608 
L 167.72311 76.238119 
L 182.587767 75.280247 
L 197.452423 75.944887 
L 212.317079 77.695079 
L 227.181735 79.242966 
L 242.046391 75.394225 
L 256.911047 76.179059 
L 271.775704 75.413168 
L 301.505016 46.813736 
L 316.369672 74.863866 
L 346.098985 74.899226 
L 360.963641 77.920815 
L 375.828297 75.090369 
L 390.692953 177.096391 
L 405.557609 134.163695 
L 435.286922 76.118159 
L 450.151578 76.587946 
L 465.016234 285.646284 
L 479.88089 287.55 
L 509.610203 287.78835 
L 524.474859 287.574042 
L 539.339515 288.297225 
L 554.204171 285.365389 
L 569.068827 288.270447 
L 583.933483 287.688993 
L 598.79814 285.846028 
L 613.662796 286.964209 
L 643.392108 289.402479 
L 658.256764 287.502197 
L 673.12142 284.903836 
" clip-path="url(#p289cc1db41)" style="fill: none; stroke: #9467bd; stroke-width: 2; stroke-linecap: square"/>
    <defs>
     <path id="m4de32080b2" d="M 0 3 
C 0.795609 3 1.55874 2.683901 2.12132 2.12132 
C 2.683901 1.55874 3 0.795609 3 0 
C 3 -0.795609 2.683901 -1.55874 2.12132 -2.12132 
C 1.55874 -2.683901 0.795609 -3 0 -3 
C -0.795609 -3 -1.55874 -2.683901 -2.12132 -2.12132 
C -2.683901 -1.55874 -3 -0.795609 -3 0 
C -3 0.795609 -2.683901 1.55874 -2.12132 2.12132 
C -1.55874 2.683901 -0.795609 3 0 3 
z
" style="stroke: #9467bd"/>
    </defs>
    <g clip-path="url(#p289cc1db41)">
     <use xlink:href="#m4de32080b2" x="93.39983" y="72.672576" style="fill: #9467bd; stroke: #9467bd"/>
     <use xlink:href="#m4de32080b2" x="108.264486" y="71.170534" style="fill: #9467bd; stroke: #9467bd"/>
     <use xlink:href="#m4de32080b2" x="123.129142" y="171.757446" style="fill: #9467bd; stroke: #9467bd"/>
     <use xlink:href="#m4de32080b2" x="137.993798" y="76.360371" style="fill: #9467bd; stroke: #9467bd"/>
     <use xlink:href="#m4de32080b2" x="152.858454" y="175.593608" style="fill: #9467bd; stroke: #9467bd"/>
     <use xlink:href="#m4de32080b2" x="167.72311" y="76.238119" style="fill: #9467bd; stroke: #9467bd"/>
     <use xlink:href="#m4de32080b2" x="182.587767" y="75.280247" style="fill: #9467bd; stroke: #9467bd"/>
     <use xlink:href="#m4de32080b2" x="197.452423" y="75.944887" style="fill: #9467bd; stroke: #9467bd"/>
     <use xlink:href="#m4de32080b2" x="212.317079" y="77.695079" style="fill: #9467bd; stroke: #9467bd"/>
     <use xlink:href="#m4de32080b2" x="227.181735" y="79.242966" style="fill: #9467bd; stroke: #9467bd"/>
     <use xlink:href="#m4de32080b2" x="242.046391" y="75.394225" style="fill: #9467bd; stroke: #9467bd"/>
     <use xlink:href="#m4de32080b2" x="256.911047" y="76.179059" style="fill: #9467bd; stroke: #9467bd"/>
     <use xlink:href="#m4de32080b2" x="271.775704" y="75.413168" style="fill: #9467bd; stroke: #9467bd"/>
     <use xlink:href="#m4de32080b2" x="301.505016" y="46.813736" style="fill: #9467bd; stroke: #9467bd"/>
     <use xlink:href="#m4de32080b2" x="316.369672" y="74.863866" style="fill: #9467bd; stroke: #9467bd"/>
     <use xlink:href="#m4de32080b2" x="346.098985" y="74.899226" style="fill: #9467bd; stroke: #9467bd"/>
     <use xlink:href="#m4de32080b2" x="360.963641" y="77.920815" style="fill: #9467bd; stroke: #9467bd"/>
     <use xlink:href="#m4de32080b2" x="375.828297" y="75.090369" style="fill: #9467bd; stroke: #9467bd"/>
     <use xlink:href="#m4de32080b2" x="390.692953" y="177.096391" style="fill: #9467bd; stroke: #9467bd"/>
     <use xlink:href="#m4de32080b2" x="405.557609" y="134.163695" style="fill: #9467bd; stroke: #9467bd"/>
     <use xlink:href="#m4de32080b2" x="435.286922" y="76.118159" style="fill: #9467bd; stroke: #9467bd"/>
     <use xlink:href="#m4de32080b2" x="450.151578" y="76.587946" style="fill: #9467bd; stroke: #9467bd"/>
     <use xlink:href="#m4de32080b2" x="465.016234" y="285.646284" style="fill: #9467bd; stroke: #9467bd"/>
     <use xlink:href="#m4de32080b2" x="479.88089" y="287.55" style="fill: #9467bd; stroke: #9467bd"/>
     <use xlink:href="#m4de32080b2" x="509.610203" y="287.78835" style="fill: #9467bd; stroke: #9467bd"/>
     <use xlink:href="#m4de32080b2" x="524.474859" y="287.574042" style="fill: #9467bd; stroke: #9467bd"/>
     <use xlink:href="#m4de32080b2" x="539.339515" y="288.297225" style="fill: #9467bd; stroke: #9467bd"/>
     <use xlink:href="#m4de32080b2" x="554.204171" y="285.365389" style="fill: #9467bd; stroke: #9467bd"/>
     <use xlink:href="#m4de32080b2" x="569.068827" y="288.270447" style="fill: #9467bd; stroke: #9467bd"/>
     <use xlink:href="#m4de32080b2" x="583.933483" y="287.688993" style="fill: #9467bd; stroke: #9467bd"/>
     <use xlink:href="#m4de32080b2" x="598.79814" y="285.846028" style="fill: #9467bd; stroke: #9467bd"/>
     <use xlink:href="#m4de32080b2" x="613.662796" y="286.964209" style="fill: #9467bd; stroke: #9467bd"/>
     <use xlink:href="#m4de32080b2" x="643.392108" y="289.402479" style="fill: #9467bd; stroke: #9467bd"/>
     <use xlink:href="#m4de32080b2" x="658.256764" y="287.502197" style="fill: #9467bd; stroke: #9467bd"/>
     <use xlink:href="#m4de32080b2" x="673.12142" y="284.903836" style="fill: #9467bd; stroke: #9467bd"/>
    </g>
   </g>
   <g id="line2d_27">
    <path d="M 93.39983 288.410145 
L 108.264486 287.725399 
L 123.129142 287.42418 
L 137.993798 287.301725 
L 152.858454 289.195523 
L 167.72311 288.223477 
L 182.587767 287.868621 
L 197.452423 288.889558 
L 212.317079 288.158774 
L 227.181735 288.526643 
L 242.046391 287.650844 
L 256.911047 289.356014 
L 271.775704 285.698464 
L 301.505016 285.728186 
L 316.369672 288.513851 
L 346.098985 294.187616 
L 360.963641 288.180987 
L 375.828297 288.032356 
L 390.692953 287.944953 
L 405.557609 287.058117 
L 435.286922 288.654389 
L 450.151578 288.311479 
L 465.016234 286.780635 
L 479.88089 288.80425 
L 509.610203 288.417364 
L 524.474859 286.563061 
L 539.339515 287.377873 
L 554.204171 287.334677 
L 569.068827 287.646364 
L 583.933483 289.139347 
L 598.79814 288.249288 
L 613.662796 287.634331 
L 643.392108 288.885621 
L 658.256764 289.413478 
L 673.12142 287.460326 
" clip-path="url(#p289cc1db41)" style="fill: none; stroke: #8c564b; stroke-width: 2; stroke-linecap: square"/>
    <defs>
     <path id="m0955d32587" d="M 0 3 
C 0.795609 3 1.55874 2.683901 2.12132 2.12132 
C 2.683901 1.55874 3 0.795609 3 0 
C 3 -0.795609 2.683901 -1.55874 2.12132 -2.12132 
C 1.55874 -2.683901 0.795609 -3 0 -3 
C -0.795609 -3 -1.55874 -2.683901 -2.12132 -2.12132 
C -2.683901 -1.55874 -3 -0.795609 -3 0 
C -3 0.795609 -2.683901 1.55874 -2.12132 2.12132 
C -1.55874 2.683901 -0.795609 3 0 3 
z
" style="stroke: #8c564b"/>
    </defs>
    <g clip-path="url(#p289cc1db41)">
     <use xlink:href="#m0955d32587" x="93.39983" y="288.410145" style="fill: #8c564b; stroke: #8c564b"/>
     <use xlink:href="#m0955d32587" x="108.264486" y="287.725399" style="fill: #8c564b; stroke: #8c564b"/>
     <use xlink:href="#m0955d32587" x="123.129142" y="287.42418" style="fill: #8c564b; stroke: #8c564b"/>
     <use xlink:href="#m0955d32587" x="137.993798" y="287.301725" style="fill: #8c564b; stroke: #8c564b"/>
     <use xlink:href="#m0955d32587" x="152.858454" y="289.195523" style="fill: #8c564b; stroke: #8c564b"/>
     <use xlink:href="#m0955d32587" x="167.72311" y="288.223477" style="fill: #8c564b; stroke: #8c564b"/>
     <use xlink:href="#m0955d32587" x="182.587767" y="287.868621" style="fill: #8c564b; stroke: #8c564b"/>
     <use xlink:href="#m0955d32587" x="197.452423" y="288.889558" style="fill: #8c564b; stroke: #8c564b"/>
     <use xlink:href="#m0955d32587" x="212.317079" y="288.158774" style="fill: #8c564b; stroke: #8c564b"/>
     <use xlink:href="#m0955d32587" x="227.181735" y="288.526643" style="fill: #8c564b; stroke: #8c564b"/>
     <use xlink:href="#m0955d32587" x="242.046391" y="287.650844" style="fill: #8c564b; stroke: #8c564b"/>
     <use xlink:href="#m0955d32587" x="256.911047" y="289.356014" style="fill: #8c564b; stroke: #8c564b"/>
     <use xlink:href="#m0955d32587" x="271.775704" y="285.698464" style="fill: #8c564b; stroke: #8c564b"/>
     <use xlink:href="#m0955d32587" x="301.505016" y="285.728186" style="fill: #8c564b; stroke: #8c564b"/>
     <use xlink:href="#m0955d32587" x="316.369672" y="288.513851" style="fill: #8c564b; stroke: #8c564b"/>
     <use xlink:href="#m0955d32587" x="346.098985" y="294.187616" style="fill: #8c564b; stroke: #8c564b"/>
     <use xlink:href="#m0955d32587" x="360.963641" y="288.180987" style="fill: #8c564b; stroke: #8c564b"/>
     <use xlink:href="#m0955d32587" x="375.828297" y="288.032356" style="fill: #8c564b; stroke: #8c564b"/>
     <use xlink:href="#m0955d32587" x="390.692953" y="287.944953" style="fill: #8c564b; stroke: #8c564b"/>
     <use xlink:href="#m0955d32587" x="405.557609" y="287.058117" style="fill: #8c564b; stroke: #8c564b"/>
     <use xlink:href="#m0955d32587" x="435.286922" y="288.654389" style="fill: #8c564b; stroke: #8c564b"/>
     <use xlink:href="#m0955d32587" x="450.151578" y="288.311479" style="fill: #8c564b; stroke: #8c564b"/>
     <use xlink:href="#m0955d32587" x="465.016234" y="286.780635" style="fill: #8c564b; stroke: #8c564b"/>
     <use xlink:href="#m0955d32587" x="479.88089" y="288.80425" style="fill: #8c564b; stroke: #8c564b"/>
     <use xlink:href="#m0955d32587" x="509.610203" y="288.417364" style="fill: #8c564b; stroke: #8c564b"/>
     <use xlink:href="#m0955d32587" x="524.474859" y="286.563061" style="fill: #8c564b; stroke: #8c564b"/>
     <use xlink:href="#m0955d32587" x="539.339515" y="287.377873" style="fill: #8c564b; stroke: #8c564b"/>
     <use xlink:href="#m0955d32587" x="554.204171" y="287.334677" style="fill: #8c564b; stroke: #8c564b"/>
     <use xlink:href="#m0955d32587" x="569.068827" y="287.646364" style="fill: #8c564b; stroke: #8c564b"/>
     <use xlink:href="#m0955d32587" x="583.933483" y="289.139347" style="fill: #8c564b; stroke: #8c564b"/>
     <use xlink:href="#m0955d32587" x="598.79814" y="288.249288" style="fill: #8c564b; stroke: #8c564b"/>
     <use xlink:href="#m0955d32587" x="613.662796" y="287.634331" style="fill: #8c564b; stroke: #8c564b"/>
     <use xlink:href="#m0955d32587" x="643.392108" y="288.885621" style="fill: #8c564b; stroke: #8c564b"/>
     <use xlink:href="#m0955d32587" x="658.256764" y="289.413478" style="fill: #8c564b; stroke: #8c564b"/>
     <use xlink:href="#m0955d32587" x="673.12142" y="287.460326" style="fill: #8c564b; stroke: #8c564b"/>
    </g>
   </g>
   <g id="patch_3">
    <path d="M 64.41375 529.308125 
L 64.41375 23.837812 
" style="fill: none; stroke: #000000; stroke-width: 0.8; stroke-linejoin: miter; stroke-linecap: square"/>
   </g>
   <g id="patch_4">
    <path d="M 702.1075 529.308125 
L 702.1075 23.837812 
" style="fill: none; stroke: #000000; stroke-width: 0.8; stroke-linejoin: miter; stroke-linecap: square"/>
   </g>
   <g id="patch_5">
    <path d="M 64.41375 529.308125 
L 702.1075 529.308125 
" style="fill: none; stroke: #000000; stroke-width: 0.8; stroke-linejoin: miter; stroke-linecap: square"/>
   </g>
   <g id="patch_6">
    <path d="M 64.41375 23.837812 
L 702.1075 23.837812 
" style="fill: none; stroke: #000000; stroke-width: 0.8; stroke-linejoin: miter; stroke-linecap: square"/>
   </g>
   <g id="text_15">
    <text style="font: 700 14px 'DejaVu Sans', 'Bitstream Vera Sans', 'Computer Modern Sans Serif', 'Lucida Grande', 'Verdana', 'Geneva', 'Lucid', 'Arial', 'Helvetica', 'Avant Garde', sans-serif; text-anchor: middle" x="383.260625" y="17.837813" transform="rotate(-0 383.260625 17.837813)">Taskthroughput - Performance Trend</text>
   </g>
   <g id="legend_1">
    <g id="patch_7">
     <path d="M 740.992188 119.906563 
L 846.004688 119.906563 
Q 848.004688 119.906563 848.004688 117.906563 
L 848.004688 30.837813 
Q 848.004688 28.837813 846.004688 28.837813 
L 740.992188 28.837813 
Q 738.992188 28.837813 738.992188 30.837813 
L 738.992188 117.906563 
Q 738.992188 119.906563 740.992188 119.906563 
z
" style="fill: #ffffff; opacity: 0.8; stroke: #cccccc; stroke-linejoin: miter"/>
    </g>
    <g id="line2d_28">
     <path d="M 742.992188 36.93625 
L 752.992188 36.93625 
L 762.992188 36.93625 
" style="fill: none; stroke: #1f77b4; stroke-width: 2; stroke-linecap: square"/>
     <g>
      <use xlink:href="#m3ba02473e0" x="752.992188" y="36.93625" style="fill: #1f77b4; stroke: #1f77b4"/>
     </g>
    </g>
    <g id="text_16">
     <text style="font: 10px 'DejaVu Sans', 'Bitstream Vera Sans', 'Computer Modern Sans Serif', 'Lucida Grande', 'Verdana', 'Geneva', 'Lucid', 'Arial', 'Helvetica', 'Avant Garde', sans-serif; text-anchor: start" x="770.992188" y="40.43625" transform="rotate(-0 770.992188 40.43625)">gcc-14.2 - V1</text>
    </g>
    <g id="line2d_29">
     <path d="M 742.992188 51.614375 
L 752.992188 51.614375 
L 762.992188 51.614375 
" style="fill: none; stroke: #ff7f0e; stroke-width: 2; stroke-linecap: square"/>
     <g>
      <use xlink:href="#mb77cf0e72d" x="752.992188" y="51.614375" style="fill: #ff7f0e; stroke: #ff7f0e"/>
     </g>
    </g>
    <g id="text_17">
     <text style="font: 10px 'DejaVu Sans', 'Bitstream Vera Sans', 'Computer Modern Sans Serif', 'Lucida Grande', 'Verdana', 'Geneva', 'Lucid', 'Arial', 'Helvetica', 'Avant Garde', sans-serif; text-anchor: start" x="770.992188" y="55.114375" transform="rotate(-0 770.992188 55.114375)">gcc-14.2 - V2</text>
    </g>
    <g id="line2d_30">
     <path d="M 742.992188 66.2925 
L 752.992188 66.2925 
L 762.992188 66.2925 
" style="fill: none; stroke: #2ca02c; stroke-width: 2; stroke-linecap: square"/>
     <g>
      <use xlink:href="#m871543a638" x="752.992188" y="66.2925" style="fill: #2ca02c; stroke: #2ca02c"/>
     </g>
    </g>
    <g id="text_18">
     <text style="font: 10px 'DejaVu Sans', 'Bitstream Vera Sans', 'Computer Modern Sans Serif', 'Lucida Grande', 'Verdana', 'Geneva', 'Lucid', 'Arial', 'Helvetica', 'Avant Garde', sans-serif; text-anchor: start" x="770.992188" y="69.7925" transform="rotate(-0 770.992188 69.7925)">gcc-14.2 - TBB</text>
    </g>
    <g id="line2d_31">
     <path d="M 742.992188 80.970625 
L 752.992188 80.970625 
L 762.992188 80.970625 
" style="fill: none; stroke: #d62728; stroke-width: 2; stroke-linecap: square"/>
     <g>
      <use xlink:href="#mc2ecfab70d" x="752.992188" y="80.970625" style="fill: #d62728; stroke: #d62728"/>
     </g>
    </g>
    <g id="text_19">
     <text style="font: 10px 'DejaVu Sans', 'Bitstream Vera Sans', 'Computer Modern Sans Serif', 'Lucida Grande', 'Verdana', 'Geneva', 'Lucid', 'Arial', 'Helvetica', 'Avant Garde', sans-serif; text-anchor: start" x="770.992188" y="84.470625" transform="rotate(-0 770.992188 84.470625)">gcc-4.2 - V1</text>
    </g>
    <g id="line2d_32">
     <path d="M 742.992188 95.64875 
L 752.992188 95.64875 
L 762.992188 95.64875 
" style="fill: none; stroke: #9467bd; stroke-width: 2; stroke-linecap: square"/>
     <g>
      <use xlink:href="#m4de32080b2" x="752.992188" y="95.64875" style="fill: #9467bd; stroke: #9467bd"/>
     </g>
    </g>
    <g id="text_20">
     <text style="font: 10px 'DejaVu Sans', 'Bitstream Vera Sans', 'Computer Modern Sans Serif', 'Lucida Grande', 'Verdana', 'Geneva', 'Lucid', 'Arial', 'Helvetica', 'Avant Garde', sans-serif; text-anchor: start" x="770.992188" y="99.14875" transform="rotate(-0 770.992188 99.14875)">gcc-4.2 - V2</text>
    </g>
    <g id="line2d_33">
     <path d="M 742.992188 110.326875 
L 752.992188 110.326875 
L 762.992188 110.326875 
" style="fill: none; stroke: #8c564b; stroke-width: 2; stroke-linecap: square"/>
     <g>
      <use xlink:href="#m0955d32587" x="752.992188" y="110.326875" style="fill: #8c564b; stroke: #8c564b"/>
     </g>
    </g>
    <g id="text_21">
     <text style="font: 10px 'DejaVu Sans', 'Bitstream Vera Sans', 'Computer Modern Sans Serif', 'Lucida Grande', 'Verdana', 'Geneva', 'Lucid', 'Arial', 'Helvetica', 'Avant Garde', sans-serif; text-anchor: start" x="770.992188" y="113.826875" transform="rotate(-0 770.992188 113.826875)">gcc-4.2 - TBB</text>
    </g>
   </g>
  </g>
 </g>
 <defs>
  <clipPath id="p289cc1db41">
   <rect x="64.41375" y="23.837813" width="637.69375" height="505.470313"/>
  </clipPath>
 </defs>
</svg>
