<?xml version="1.0" encoding="utf-8" standalone="no"?>
<!DOCTYPE svg PUBLIC "-//W3C//DTD SVG 1.1//EN"
  "http://www.w3.org/Graphics/SVG/1.1/DTD/svg11.dtd">
<svg xmlns:xlink="http://www.w3.org/1999/xlink" width="850.739141pt" height="568.8pt" viewBox="0 0 850.739141 568.8" xmlns="http://www.w3.org/2000/svg" version="1.1">
 <metadata>
  <rdf:RDF xmlns:dc="http://purl.org/dc/elements/1.1/" xmlns:cc="http://creativecommons.org/ns#" xmlns:rdf="http://www.w3.org/1999/02/22-rdf-syntax-ns#">
   <cc:Work>
    <dc:type rdf:resource="http://purl.org/dc/dcmitype/StillImage"/>
    <dc:date>2026-06-12T00:15:47.570152</dc:date>
    <dc:format>image/svg+xml</dc:format>
    <dc:creator>
     <cc:Agent>
      <dc:title>Matplotlib v3.9.4, https://matplotlib.org/</dc:title>
     </cc:Agent>
    </dc:creator>
   </cc:Work>
  </rdf:RDF>
 </metadata>
 <defs>
  <style type="text/css">*{stroke-linejoin: round; stroke-linecap: butt}</style>
 </defs>
 <g id="figure_1">
  <g id="patch_1">
   <path d="M 0 568.8 
L 850.739141 568.8 
L 850.739141 0 
L 0 0 
z
" style="fill: #ffffff"/>
  </g>
  <g id="axes_1">
   <g id="patch_2">
    <path d="M 64.41375 529.308125 
L 612.796562 529.308125 
L 612.796562 23.837812 
L 64.41375 23.837812 
z
" style="fill: #ffffff"/>
   </g>
   <g id="matplotlib.axis_1">
    <g id="xtick_1">
     <g id="line2d_1">
      <path d="M 74.233277 529.308125 
L 74.233277 23.837812 
" clip-path="url(#pc5088d8a5b)" style="fill: none; stroke: #b0b0b0; stroke-opacity: 0.3; stroke-width: 0.8; stroke-linecap: square"/>
     </g>
     <g id="line2d_2">
      <defs>
       <path id="m6db80a9965" d="M 0 0 
L 0 3.5 
" style="stroke: #000000; stroke-width: 0.8"/>
      </defs>
      <g>
       <use xlink:href="#m6db80a9965" x="74.233277" y="529.308125" style="stroke: #000000; stroke-width: 0.8"/>
      </g>
     </g>
     <g id="text_1">
      <text style="font: 10px 'DejaVu Sans', 'Bitstream Vera Sans', 'Computer Modern Sans Serif', 'Lucida Grande', 'Verdana', 'Geneva', 'Lucid', 'Arial', 'Helvetica', 'Avant Garde', sans-serif; text-anchor: middle" x="74.233277" y="543.906563" transform="rotate(-0 74.233277 543.906563)">95</text>
     </g>
    </g>
    <g id="xtick_2">
     <g id="line2d_3">
      <path d="M 149.7681 529.308125 
L 149.7681 23.837812 
" clip-path="url(#pc5088d8a5b)" style="fill: none; stroke: #b0b0b0; stroke-opacity: 0.3; stroke-width: 0.8; stroke-linecap: square"/>
     </g>
     <g id="line2d_4">
      <g>
       <use xlink:href="#m6db80a9965" x="149.7681" y="529.308125" style="stroke: #000000; stroke-width: 0.8"/>
      </g>
     </g>
     <g id="text_2">
      <text style="font: 10px 'DejaVu Sans', 'Bitstream Vera Sans', 'Computer Modern Sans Serif', 'Lucida Grande', 'Verdana', 'Geneva', 'Lucid', 'Arial', 'Helvetica', 'Avant Garde', sans-serif; text-anchor: middle" x="149.7681" y="543.906563" transform="rotate(-0 149.7681 543.906563)">100</text>
     </g>
    </g>
    <g id="xtick_3">
     <g id="line2d_5">
      <path d="M 225.302922 529.308125 
L 225.302922 23.837812 
" clip-path="url(#pc5088d8a5b)" style="fill: none; stroke: #b0b0b0; stroke-opacity: 0.3; stroke-width: 0.8; stroke-linecap: square"/>
     </g>
     <g id="line2d_6">
      <g>
       <use xlink:href="#m6db80a9965" x="225.302922" y="529.308125" style="stroke: #000000; stroke-width: 0.8"/>
      </g>
     </g>
     <g id="text_3">
      <text style="font: 10px 'DejaVu Sans', 'Bitstream Vera Sans', 'Computer Modern Sans Serif', 'Lucida Grande', 'Verdana', 'Geneva', 'Lucid', 'Arial', 'Helvetica', 'Avant Garde', sans-serif; text-anchor: middle" x="225.302922" y="543.906563" transform="rotate(-0 225.302922 543.906563)">105</text>
     </g>
    </g>
    <g id="xtick_4">
     <g id="line2d_7">
      <path d="M 300.837745 529.308125 
L 300.837745 23.837812 
" clip-path="url(#pc5088d8a5b)" style="fill: none; stroke: #b0b0b0; stroke-opacity: 0.3; stroke-width: 0.8; stroke-linecap: square"/>
     </g>
     <g id="line2d_8">
      <g>
       <use xlink:href="#m6db80a9965" x="300.837745" y="529.308125" style="stroke: #000000; stroke-width: 0.8"/>
      </g>
     </g>
     <g id="text_4">
      <text style="font: 10px 'DejaVu Sans', 'Bitstream Vera Sans', 'Computer Modern Sans Serif', 'Lucida Grande', 'Verdana', 'Geneva', 'Lucid', 'Arial', 'Helvetica', 'Avant Garde', sans-serif; text-anchor: middle" x="300.837745" y="543.906563" transform="rotate(-0 300.837745 543.906563)">110</text>
     </g>
    </g>
    <g id="xtick_5">
     <g id="line2d_9">
      <path d="M 376.372568 529.308125 
L 376.372568 23.837812 
" clip-path="url(#pc5088d8a5b)" style="fill: none; stroke: #b0b0b0; stroke-opacity: 0.3; stroke-width: 0.8; stroke-linecap: square"/>
     </g>
     <g id="line2d_10">
      <g>
       <use xlink:href="#m6db80a9965" x="376.372568" y="529.308125" style="stroke: #000000; stroke-width: 0.8"/>
      </g>
     </g>
     <g id="text_5">
      <text style="font: 10px 'DejaVu Sans', 'Bitstream Vera Sans', 'Computer Modern Sans Serif', 'Lucida Grande', 'Verdana', 'Geneva', 'Lucid', 'Arial', 'Helvetica', 'Avant Garde', sans-serif; text-anchor: middle" x="376.372568" y="543.906563" transform="rotate(-0 376.372568 543.906563)">115</text>
     </g>
    </g>
    <g id="xtick_6">
     <g id="line2d_11">
      <path d="M 451.90739 529.308125 
L 451.90739 23.837812 
" clip-path="url(#pc5088d8a5b)" style="fill: none; stroke: #b0b0b0; stroke-opacity: 0.3; stroke-width: 0.8; stroke-linecap: square"/>
     </g>
     <g id="line2d_12">
      <g>
       <use xlink:href="#m6db80a9965" x="451.90739" y="529.308125" style="stroke: #000000; stroke-width: 0.8"/>
      </g>
     </g>
     <g id="text_6">
      <text style="font: 10px 'DejaVu Sans', 'Bitstream Vera Sans', 'Computer Modern Sans Serif', 'Lucida Grande', 'Verdana', 'Geneva', 'Lucid', 'Arial', 'Helvetica', 'Avant Garde', sans-serif; text-anchor: middle" x="451.90739" y="543.906563" transform="rotate(-0 451.90739 543.906563)">120</text>
     </g>
    </g>
    <g id="xtick_7">
     <g id="line2d_13">
      <path d="M 527.442213 529.308125 
L 527.442213 23.837812 
" clip-path="url(#pc5088d8a5b)" style="fill: none; stroke: #b0b0b0; stroke-opacity: 0.3; stroke-width: 0.8; stroke-linecap: square"/>
     </g>
     <g id="line2d_14">
      <g>
       <use xlink:href="#m6db80a9965" x="527.442213" y="529.308125" style="stroke: #000000; stroke-width: 0.8"/>
      </g>
     </g>
     <g id="text_7">
      <text style="font: 10px 'DejaVu Sans', 'Bitstream Vera Sans', 'Computer Modern Sans Serif', 'Lucida Grande', 'Verdana', 'Geneva', 'Lucid', 'Arial', 'Helvetica', 'Avant Garde', sans-serif; text-anchor: middle" x="527.442213" y="543.906563" transform="rotate(-0 527.442213 543.906563)">125</text>
     </g>
    </g>
    <g id="xtick_8">
     <g id="line2d_15">
      <path d="M 602.977036 529.308125 
L 602.977036 23.837812 
" clip-path="url(#pc5088d8a5b)" style="fill: none; stroke: #b0b0b0; stroke-opacity: 0.3; stroke-width: 0.8; stroke-linecap: square"/>
     </g>
     <g id="line2d_16">
      <g>
       <use xlink:href="#m6db80a9965" x="602.977036" y="529.308125" style="stroke: #000000; stroke-width: 0.8"/>
      </g>
     </g>
     <g id="text_8">
      <text style="font: 10px 'DejaVu Sans', 'Bitstream Vera Sans', 'Computer Modern Sans Serif', 'Lucida Grande', 'Verdana', 'Geneva', 'Lucid', 'Arial', 'Helvetica', 'Avant Garde', sans-serif; text-anchor: middle" x="602.977036" y="543.906563" transform="rotate(-0 602.977036 543.906563)">130</text>
     </g>
    </g>
    <g id="text_9">
     <text style="font: 12px 'DejaVu Sans', 'Bitstream Vera Sans', 'Computer Modern Sans Serif', 'Lucida Grande', 'Verdana', 'Geneva', 'Lucid', 'Arial', 'Helvetica', 'Avant Garde', sans-serif; text-anchor: middle" x="338.605156" y="559.104375" transform="rotate(-0 338.605156 559.104375)">Build Number</text>
    </g>
   </g>
   <g id="matplotlib.axis_2">
    <g id="ytick_1">
     <g id="line2d_17">
      <defs>
       <path id="mecea49146e" d="M 0 0 
L -2 0 
" style="stroke: #000000; stroke-width: 0.6"/>
      </defs>
      <g>
       <use xlink:href="#mecea49146e" x="64.41375" y="310.865139" style="stroke: #000000; stroke-width: 0.6"/>
      </g>
     </g>
     <g id="text_10">
      <!-- $\mathdefault{5\times10^{5}}$ -->
      <g transform="translate(22.81375 314.664357)">
       <text>
        <tspan style="font: 10px 'DejaVu Sans'" x="0 8.310547 18.637695 25" y="-0.06406250000000036">5×10</tspan>
        <tspan style="font: 7px 'DejaVu Sans'" x="31.458008" y="-3.8921875000000004">5</tspan>
       </text>
      </g>
     </g>
    </g>
    <g id="ytick_2">
     <g id="line2d_18">
      <g>
       <use xlink:href="#mecea49146e" x="64.41375" y="101.819977" style="stroke: #000000; stroke-width: 0.6"/>
      </g>
     </g>
     <g id="text_11">
      <!-- $\mathdefault{6\times10^{5}}$ -->
      <g transform="translate(22.81375 105.619195)">
       <text>
        <tspan style="font: 10px 'DejaVu Sans'" x="0 8.310547 18.637695 25" y="-0.06406250000000036">6×10</tspan>
        <tspan style="font: 7px 'DejaVu Sans'" x="31.458008" y="-3.8921875000000004">5</tspan>
       </text>
      </g>
     </g>
    </g>
    <g id="text_12">
     <text style="font: 12px 'DejaVu Sans', 'Bitstream Vera Sans', 'Computer Modern Sans Serif', 'Lucida Grande', 'Verdana', 'Geneva', 'Lucid', 'Arial', 'Helvetica', 'Avant Garde', sans-serif; text-anchor: middle" x="16.318125" y="276.572969" transform="rotate(-90 16.318125 276.572969)">Median Elapsed Time (nanoseconds)</text>
    </g>
   </g>
   <g id="line2d_19">
    <path d="M 89.340241 134.053801 
L 104.447206 127.463194 
L 134.661135 131.292538 
L 149.7681 144.1133 
L 164.875064 142.738089 
L 179.982029 146.277941 
L 195.088993 114.238262 
L 210.195958 137.591151 
L 225.302922 141.463034 
L 240.409887 134.259798 
L 270.623816 131.093542 
L 285.73078 148.998312 
L 300.837745 137.288366 
L 315.944709 138.052381 
L 331.051674 121.660318 
L 361.265603 145.411951 
L 376.372568 135.153206 
L 391.479532 137.063892 
L 406.586497 126.526158 
L 421.693461 134.777508 
L 436.800426 154.582146 
L 451.90739 137.135625 
L 467.014355 134.162102 
L 482.121319 453.806152 
L 497.228284 133.681803 
L 512.335248 138.812564 
L 542.549177 46.813736 
L 557.656142 136.029198 
L 572.763106 127.455377 
L 587.870071 457.435823 
" clip-path="url(#pc5088d8a5b)" style="fill: none; stroke: #1f77b4; stroke-width: 2; stroke-linecap: square"/>
    <defs>
     <path id="m3103ba07b1" d="M 0 3 
C 0.795609 3 1.55874 2.683901 2.12132 2.12132 
C 2.683901 1.55874 3 0.795609 3 0 
C 3 -0.795609 2.683901 -1.55874 2.12132 -2.12132 
C 1.55874 -2.683901 0.795609 -3 0 -3 
C -0.795609 -3 -1.55874 -2.683901 -2.12132 -2.12132 
C -2.683901 -1.55874 -3 -0.795609 -3 0 
C -3 0.795609 -2.683901 1.55874 -2.12132 2.12132 
C -1.55874 2.683901 -0.795609 3 0 3 
z
" style="stroke: #1f77b4"/>
    </defs>
    <g clip-path="url(#pc5088d8a5b)">
     <use xlink:href="#m3103ba07b1" x="89.340241" y="134.053801" style="fill: #1f77b4; stroke: #1f77b4"/>
     <use xlink:href="#m3103ba07b1" x="104.447206" y="127.463194" style="fill: #1f77b4; stroke: #1f77b4"/>
     <use xlink:href="#m3103ba07b1" x="134.661135" y="131.292538" style="fill: #1f77b4; stroke: #1f77b4"/>
     <use xlink:href="#m3103ba07b1" x="149.7681" y="144.1133" style="fill: #1f77b4; stroke: #1f77b4"/>
     <use xlink:href="#m3103ba07b1" x="164.875064" y="142.738089" style="fill: #1f77b4; stroke: #1f77b4"/>
     <use xlink:href="#m3103ba07b1" x="179.982029" y="146.277941" style="fill: #1f77b4; stroke: #1f77b4"/>
     <use xlink:href="#m3103ba07b1" x="195.088993" y="114.238262" style="fill: #1f77b4; stroke: #1f77b4"/>
     <use xlink:href="#m3103ba07b1" x="210.195958" y="137.591151" style="fill: #1f77b4; stroke: #1f77b4"/>
     <use xlink:href="#m3103ba07b1" x="225.302922" y="141.463034" style="fill: #1f77b4; stroke: #1f77b4"/>
     <use xlink:href="#m3103ba07b1" x="240.409887" y="134.259798" style="fill: #1f77b4; stroke: #1f77b4"/>
     <use xlink:href="#m3103ba07b1" x="270.623816" y="131.093542" style="fill: #1f77b4; stroke: #1f77b4"/>
     <use xlink:href="#m3103ba07b1" x="285.73078" y="148.998312" style="fill: #1f77b4; stroke: #1f77b4"/>
     <use xlink:href="#m3103ba07b1" x="300.837745" y="137.288366" style="fill: #1f77b4; stroke: #1f77b4"/>
     <use xlink:href="#m3103ba07b1" x="315.944709" y="138.052381" style="fill: #1f77b4; stroke: #1f77b4"/>
     <use xlink:href="#m3103ba07b1" x="331.051674" y="121.660318" style="fill: #1f77b4; stroke: #1f77b4"/>
     <use xlink:href="#m3103ba07b1" x="361.265603" y="145.411951" style="fill: #1f77b4; stroke: #1f77b4"/>
     <use xlink:href="#m3103ba07b1" x="376.372568" y="135.153206" style="fill: #1f77b4; stroke: #1f77b4"/>
     <use xlink:href="#m3103ba07b1" x="391.479532" y="137.063892" style="fill: #1f77b4; stroke: #1f77b4"/>
     <use xlink:href="#m3103ba07b1" x="406.586497" y="126.526158" style="fill: #1f77b4; stroke: #1f77b4"/>
     <use xlink:href="#m3103ba07b1" x="421.693461" y="134.777508" style="fill: #1f77b4; stroke: #1f77b4"/>
     <use xlink:href="#m3103ba07b1" x="436.800426" y="154.582146" style="fill: #1f77b4; stroke: #1f77b4"/>
     <use xlink:href="#m3103ba07b1" x="451.90739" y="137.135625" style="fill: #1f77b4; stroke: #1f77b4"/>
     <use xlink:href="#m3103ba07b1" x="467.014355" y="134.162102" style="fill: #1f77b4; stroke: #1f77b4"/>
     <use xlink:href="#m3103ba07b1" x="482.121319" y="453.806152" style="fill: #1f77b4; stroke: #1f77b4"/>
     <use xlink:href="#m3103ba07b1" x="497.228284" y="133.681803" style="fill: #1f77b4; stroke: #1f77b4"/>
     <use xlink:href="#m3103ba07b1" x="512.335248" y="138.812564" style="fill: #1f77b4; stroke: #1f77b4"/>
     <use xlink:href="#m3103ba07b1" x="542.549177" y="46.813736" style="fill: #1f77b4; stroke: #1f77b4"/>
     <use xlink:href="#m3103ba07b1" x="557.656142" y="136.029198" style="fill: #1f77b4; stroke: #1f77b4"/>
     <use xlink:href="#m3103ba07b1" x="572.763106" y="127.455377" style="fill: #1f77b4; stroke: #1f77b4"/>
     <use xlink:href="#m3103ba07b1" x="587.870071" y="457.435823" style="fill: #1f77b4; stroke: #1f77b4"/>
    </g>
   </g>
   <g id="line2d_20">
    <path d="M 89.340241 167.023871 
L 104.447206 154.357661 
L 134.661135 158.19996 
L 149.7681 192.326025 
L 164.875064 170.967175 
L 179.982029 179.989697 
L 195.088993 156.518898 
L 210.195958 163.152746 
L 225.302922 176.491635 
L 240.409887 161.138152 
L 270.623816 148.524896 
L 285.73078 149.694855 
L 300.837745 170.188423 
L 315.944709 170.309117 
L 331.051674 172.828137 
L 361.265603 178.52483 
L 376.372568 140.794405 
L 391.479532 169.86616 
L 406.586497 165.874498 
L 421.693461 180.804823 
L 436.800426 190.466618 
L 451.90739 170.606343 
L 467.014355 171.205899 
L 482.121319 495.394426 
L 497.228284 156.041966 
L 512.335248 177.276723 
L 542.549177 92.915 
L 557.656142 173.735641 
L 572.763106 170.657478 
L 587.870071 506.332202 
" clip-path="url(#pc5088d8a5b)" style="fill: none; stroke: #ff7f0e; stroke-width: 2; stroke-linecap: square"/>
    <defs>
     <path id="m8727da79bc" d="M 0 3 
C 0.795609 3 1.55874 2.683901 2.12132 2.12132 
C 2.683901 1.55874 3 0.795609 3 0 
C 3 -0.795609 2.683901 -1.55874 2.12132 -2.12132 
C 1.55874 -2.683901 0.795609 -3 0 -3 
C -0.795609 -3 -1.55874 -2.683901 -2.12132 -2.12132 
C -2.683901 -1.55874 -3 -0.795609 -3 0 
C -3 0.795609 -2.683901 1.55874 -2.12132 2.12132 
C -1.55874 2.683901 -0.795609 3 0 3 
z
" style="stroke: #ff7f0e"/>
    </defs>
    <g clip-path="url(#pc5088d8a5b)">
     <use xlink:href="#m8727da79bc" x="89.340241" y="167.023871" style="fill: #ff7f0e; stroke: #ff7f0e"/>
     <use xlink:href="#m8727da79bc" x="104.447206" y="154.357661" style="fill: #ff7f0e; stroke: #ff7f0e"/>
     <use xlink:href="#m8727da79bc" x="134.661135" y="158.19996" style="fill: #ff7f0e; stroke: #ff7f0e"/>
     <use xlink:href="#m8727da79bc" x="149.7681" y="192.326025" style="fill: #ff7f0e; stroke: #ff7f0e"/>
     <use xlink:href="#m8727da79bc" x="164.875064" y="170.967175" style="fill: #ff7f0e; stroke: #ff7f0e"/>
     <use xlink:href="#m8727da79bc" x="179.982029" y="179.989697" style="fill: #ff7f0e; stroke: #ff7f0e"/>
     <use xlink:href="#m8727da79bc" x="195.088993" y="156.518898" style="fill: #ff7f0e; stroke: #ff7f0e"/>
     <use xlink:href="#m8727da79bc" x="210.195958" y="163.152746" style="fill: #ff7f0e; stroke: #ff7f0e"/>
     <use xlink:href="#m8727da79bc" x="225.302922" y="176.491635" style="fill: #ff7f0e; stroke: #ff7f0e"/>
     <use xlink:href="#m8727da79bc" x="240.409887" y="161.138152" style="fill: #ff7f0e; stroke: #ff7f0e"/>
     <use xlink:href="#m8727da79bc" x="270.623816" y="148.524896" style="fill: #ff7f0e; stroke: #ff7f0e"/>
     <use xlink:href="#m8727da79bc" x="285.73078" y="149.694855" style="fill: #ff7f0e; stroke: #ff7f0e"/>
     <use xlink:href="#m8727da79bc" x="300.837745" y="170.188423" style="fill: #ff7f0e; stroke: #ff7f0e"/>
     <use xlink:href="#m8727da79bc" x="315.944709" y="170.309117" style="fill: #ff7f0e; stroke: #ff7f0e"/>
     <use xlink:href="#m8727da79bc" x="331.051674" y="172.828137" style="fill: #ff7f0e; stroke: #ff7f0e"/>
     <use xlink:href="#m8727da79bc" x="361.265603" y="178.52483" style="fill: #ff7f0e; stroke: #ff7f0e"/>
     <use xlink:href="#m8727da79bc" x="376.372568" y="140.794405" style="fill: #ff7f0e; stroke: #ff7f0e"/>
     <use xlink:href="#m8727da79bc" x="391.479532" y="169.86616" style="fill: #ff7f0e; stroke: #ff7f0e"/>
     <use xlink:href="#m8727da79bc" x="406.586497" y="165.874498" style="fill: #ff7f0e; stroke: #ff7f0e"/>
     <use xlink:href="#m8727da79bc" x="421.693461" y="180.804823" style="fill: #ff7f0e; stroke: #ff7f0e"/>
     <use xlink:href="#m8727da79bc" x="436.800426" y="190.466618" style="fill: #ff7f0e; stroke: #ff7f0e"/>
     <use xlink:href="#m8727da79bc" x="451.90739" y="170.606343" style="fill: #ff7f0e; stroke: #ff7f0e"/>
     <use xlink:href="#m8727da79bc" x="467.014355" y="171.205899" style="fill: #ff7f0e; stroke: #ff7f0e"/>
     <use xlink:href="#m8727da79bc" x="482.121319" y="495.394426" style="fill: #ff7f0e; stroke: #ff7f0e"/>
     <use xlink:href="#m8727da79bc" x="497.228284" y="156.041966" style="fill: #ff7f0e; stroke: #ff7f0e"/>
     <use xlink:href="#m8727da79bc" x="512.335248" y="177.276723" style="fill: #ff7f0e; stroke: #ff7f0e"/>
     <use xlink:href="#m8727da79bc" x="542.549177" y="92.915" style="fill: #ff7f0e; stroke: #ff7f0e"/>
     <use xlink:href="#m8727da79bc" x="557.656142" y="173.735641" style="fill: #ff7f0e; stroke: #ff7f0e"/>
     <use xlink:href="#m8727da79bc" x="572.763106" y="170.657478" style="fill: #ff7f0e; stroke: #ff7f0e"/>
     <use xlink:href="#m8727da79bc" x="587.870071" y="506.332202" style="fill: #ff7f0e; stroke: #ff7f0e"/>
    </g>
   </g>
   <g id="line2d_21">
    <path d="M 89.340241 277.623173 
L 104.447206 265.227782 
L 134.661135 269.575695 
L 149.7681 274.25351 
L 164.875064 277.581295 
L 179.982029 255.18112 
L 195.088993 283.651559 
L 210.195958 269.760636 
L 225.302922 275.34458 
L 240.409887 271.212887 
L 270.623816 270.589699 
L 285.73078 272.259825 
L 300.837745 274.082056 
L 331.051674 274.353685 
L 376.372568 268.48833 
L 391.479532 265.636635 
L 406.586497 255.303892 
L 421.693461 265.196931 
L 436.800426 271.166812 
L 451.90739 265.727683 
L 467.014355 264.916447 
L 482.121319 264.636911 
L 497.228284 267.323179 
L 512.335248 264.161704 
L 542.549177 178.120966 
L 557.656142 201.672105 
L 572.763106 271.725377 
L 587.870071 191.7887 
" clip-path="url(#pc5088d8a5b)" style="fill: none; stroke: #2ca02c; stroke-width: 2; stroke-linecap: square"/>
    <defs>
     <path id="m5d3e242ca9" d="M 0 3 
C 0.795609 3 1.55874 2.683901 2.12132 2.12132 
C 2.683901 1.55874 3 0.795609 3 0 
C 3 -0.795609 2.683901 -1.55874 2.12132 -2.12132 
C 1.55874 -2.683901 0.795609 -3 0 -3 
C -0.795609 -3 -1.55874 -2.683901 -2.12132 -2.12132 
C -2.683901 -1.55874 -3 -0.795609 -3 0 
C -3 0.795609 -2.683901 1.55874 -2.12132 2.12132 
C -1.55874 2.683901 -0.795609 3 0 3 
z
" style="stroke: #2ca02c"/>
    </defs>
    <g clip-path="url(#pc5088d8a5b)">
     <use xlink:href="#m5d3e242ca9" x="89.340241" y="277.623173" style="fill: #2ca02c; stroke: #2ca02c"/>
     <use xlink:href="#m5d3e242ca9" x="104.447206" y="265.227782" style="fill: #2ca02c; stroke: #2ca02c"/>
     <use xlink:href="#m5d3e242ca9" x="134.661135" y="269.575695" style="fill: #2ca02c; stroke: #2ca02c"/>
     <use xlink:href="#m5d3e242ca9" x="149.7681" y="274.25351" style="fill: #2ca02c; stroke: #2ca02c"/>
     <use xlink:href="#m5d3e242ca9" x="164.875064" y="277.581295" style="fill: #2ca02c; stroke: #2ca02c"/>
     <use xlink:href="#m5d3e242ca9" x="179.982029" y="255.18112" style="fill: #2ca02c; stroke: #2ca02c"/>
     <use xlink:href="#m5d3e242ca9" x="195.088993" y="283.651559" style="fill: #2ca02c; stroke: #2ca02c"/>
     <use xlink:href="#m5d3e242ca9" x="210.195958" y="269.760636" style="fill: #2ca02c; stroke: #2ca02c"/>
     <use xlink:href="#m5d3e242ca9" x="225.302922" y="275.34458" style="fill: #2ca02c; stroke: #2ca02c"/>
     <use xlink:href="#m5d3e242ca9" x="240.409887" y="271.212887" style="fill: #2ca02c; stroke: #2ca02c"/>
     <use xlink:href="#m5d3e242ca9" x="270.623816" y="270.589699" style="fill: #2ca02c; stroke: #2ca02c"/>
     <use xlink:href="#m5d3e242ca9" x="285.73078" y="272.259825" style="fill: #2ca02c; stroke: #2ca02c"/>
     <use xlink:href="#m5d3e242ca9" x="300.837745" y="274.082056" style="fill: #2ca02c; stroke: #2ca02c"/>
     <use xlink:href="#m5d3e242ca9" x="331.051674" y="274.353685" style="fill: #2ca02c; stroke: #2ca02c"/>
     <use xlink:href="#m5d3e242ca9" x="376.372568" y="268.48833" style="fill: #2ca02c; stroke: #2ca02c"/>
     <use xlink:href="#m5d3e242ca9" x="391.479532" y="265.636635" style="fill: #2ca02c; stroke: #2ca02c"/>
     <use xlink:href="#m5d3e242ca9" x="406.586497" y="255.303892" style="fill: #2ca02c; stroke: #2ca02c"/>
     <use xlink:href="#m5d3e242ca9" x="421.693461" y="265.196931" style="fill: #2ca02c; stroke: #2ca02c"/>
     <use xlink:href="#m5d3e242ca9" x="436.800426" y="271.166812" style="fill: #2ca02c; stroke: #2ca02c"/>
     <use xlink:href="#m5d3e242ca9" x="451.90739" y="265.727683" style="fill: #2ca02c; stroke: #2ca02c"/>
     <use xlink:href="#m5d3e242ca9" x="467.014355" y="264.916447" style="fill: #2ca02c; stroke: #2ca02c"/>
     <use xlink:href="#m5d3e242ca9" x="482.121319" y="264.636911" style="fill: #2ca02c; stroke: #2ca02c"/>
     <use xlink:href="#m5d3e242ca9" x="497.228284" y="267.323179" style="fill: #2ca02c; stroke: #2ca02c"/>
     <use xlink:href="#m5d3e242ca9" x="512.335248" y="264.161704" style="fill: #2ca02c; stroke: #2ca02c"/>
     <use xlink:href="#m5d3e242ca9" x="542.549177" y="178.120966" style="fill: #2ca02c; stroke: #2ca02c"/>
     <use xlink:href="#m5d3e242ca9" x="557.656142" y="201.672105" style="fill: #2ca02c; stroke: #2ca02c"/>
     <use xlink:href="#m5d3e242ca9" x="572.763106" y="271.725377" style="fill: #2ca02c; stroke: #2ca02c"/>
     <use xlink:href="#m5d3e242ca9" x="587.870071" y="191.7887" style="fill: #2ca02c; stroke: #2ca02c"/>
    </g>
   </g>
   <g id="line2d_22">
    <path d="M 89.340241 279.626884 
L 104.447206 274.573835 
L 134.661135 278.861953 
L 149.7681 266.434042 
L 164.875064 281.520101 
L 179.982029 239.94777 
L 195.088993 289.775069 
L 210.195958 259.866477 
L 225.302922 285.025334 
L 240.409887 277.185084 
L 270.623816 279.979741 
L 285.73078 284.221842 
L 300.837745 274.482305 
L 331.051674 277.529394 
L 376.372568 278.87065 
L 391.479532 280.205885 
L 406.586497 269.464877 
L 421.693461 276.019296 
L 436.800426 283.10618 
L 451.90739 265.41004 
L 467.014355 275.266326 
L 482.121319 258.617585 
L 497.228284 272.566064 
L 512.335248 260.541361 
L 542.549177 188.249565 
L 557.656142 214.617116 
L 572.763106 287.763449 
L 587.870071 203.542479 
" clip-path="url(#pc5088d8a5b)" style="fill: none; stroke: #d62728; stroke-width: 2; stroke-linecap: square"/>
    <defs>
     <path id="m3ec7e9b668" d="M 0 3 
C 0.795609 3 1.55874 2.683901 2.12132 2.12132 
C 2.683901 1.55874 3 0.795609 3 0 
C 3 -0.795609 2.683901 -1.55874 2.12132 -2.12132 
C 1.55874 -2.683901 0.795609 -3 0 -3 
C -0.795609 -3 -1.55874 -2.683901 -2.12132 -2.12132 
C -2.683901 -1.55874 -3 -0.795609 -3 0 
C -3 0.795609 -2.683901 1.55874 -2.12132 2.12132 
C -1.55874 2.683901 -0.795609 3 0 3 
z
" style="stroke: #d62728"/>
    </defs>
    <g clip-path="url(#pc5088d8a5b)">
     <use xlink:href="#m3ec7e9b668" x="89.340241" y="279.626884" style="fill: #d62728; stroke: #d62728"/>
     <use xlink:href="#m3ec7e9b668" x="104.447206" y="274.573835" style="fill: #d62728; stroke: #d62728"/>
     <use xlink:href="#m3ec7e9b668" x="134.661135" y="278.861953" style="fill: #d62728; stroke: #d62728"/>
     <use xlink:href="#m3ec7e9b668" x="149.7681" y="266.434042" style="fill: #d62728; stroke: #d62728"/>
     <use xlink:href="#m3ec7e9b668" x="164.875064" y="281.520101" style="fill: #d62728; stroke: #d62728"/>
     <use xlink:href="#m3ec7e9b668" x="179.982029" y="239.94777" style="fill: #d62728; stroke: #d62728"/>
     <use xlink:href="#m3ec7e9b668" x="195.088993" y="289.775069" style="fill: #d62728; stroke: #d62728"/>
     <use xlink:href="#m3ec7e9b668" x="210.195958" y="259.866477" style="fill: #d62728; stroke: #d62728"/>
     <use xlink:href="#m3ec7e9b668" x="225.302922" y="285.025334" style="fill: #d62728; stroke: #d62728"/>
     <use xlink:href="#m3ec7e9b668" x="240.409887" y="277.185084" style="fill: #d62728; stroke: #d62728"/>
     <use xlink:href="#m3ec7e9b668" x="270.623816" y="279.979741" style="fill: #d62728; stroke: #d62728"/>
     <use xlink:href="#m3ec7e9b668" x="285.73078" y="284.221842" style="fill: #d62728; stroke: #d62728"/>
     <use xlink:href="#m3ec7e9b668" x="300.837745" y="274.482305" style="fill: #d62728; stroke: #d62728"/>
     <use xlink:href="#m3ec7e9b668" x="331.051674" y="277.529394" style="fill: #d62728; stroke: #d62728"/>
     <use xlink:href="#m3ec7e9b668" x="376.372568" y="278.87065" style="fill: #d62728; stroke: #d62728"/>
     <use xlink:href="#m3ec7e9b668" x="391.479532" y="280.205885" style="fill: #d62728; stroke: #d62728"/>
     <use xlink:href="#m3ec7e9b668" x="406.586497" y="269.464877" style="fill: #d62728; stroke: #d62728"/>
     <use xlink:href="#m3ec7e9b668" x="421.693461" y="276.019296" style="fill: #d62728; stroke: #d62728"/>
     <use xlink:href="#m3ec7e9b668" x="436.800426" y="283.10618" style="fill: #d62728; stroke: #d62728"/>
     <use xlink:href="#m3ec7e9b668" x="451.90739" y="265.41004" style="fill: #d62728; stroke: #d62728"/>
     <use xlink:href="#m3ec7e9b668" x="467.014355" y="275.266326" style="fill: #d62728; stroke: #d62728"/>
     <use xlink:href="#m3ec7e9b668" x="482.121319" y="258.617585" style="fill: #d62728; stroke: #d62728"/>
     <use xlink:href="#m3ec7e9b668" x="497.228284" y="272.566064" style="fill: #d62728; stroke: #d62728"/>
     <use xlink:href="#m3ec7e9b668" x="512.335248" y="260.541361" style="fill: #d62728; stroke: #d62728"/>
     <use xlink:href="#m3ec7e9b668" x="542.549177" y="188.249565" style="fill: #d62728; stroke: #d62728"/>
     <use xlink:href="#m3ec7e9b668" x="557.656142" y="214.617116" style="fill: #d62728; stroke: #d62728"/>
     <use xlink:href="#m3ec7e9b668" x="572.763106" y="287.763449" style="fill: #d62728; stroke: #d62728"/>
     <use xlink:href="#m3ec7e9b668" x="587.870071" y="203.542479" style="fill: #d62728; stroke: #d62728"/>
    </g>
   </g>
   <g id="patch_3">
    <path d="M 64.41375 529.308125 
L 64.41375 23.837812 
" style="fill: none; stroke: #000000; stroke-width: 0.8; stroke-linejoin: miter; stroke-linecap: square"/>
   </g>
   <g id="patch_4">
    <path d="M 612.796562 529.308125 
L 612.796562 23.837812 
" style="fill: none; stroke: #000000; stroke-width: 0.8; stroke-linejoin: miter; stroke-linecap: square"/>
   </g>
   <g id="patch_5">
    <path d="M 64.41375 529.308125 
L 612.796562 529.308125 
" style="fill: none; stroke: #000000; stroke-width: 0.8; stroke-linejoin: miter; stroke-linecap: square"/>
   </g>
   <g id="patch_6">
    <path d="M 64.41375 23.837812 
L 612.796562 23.837812 
" style="fill: none; stroke: #000000; stroke-width: 0.8; stroke-linejoin: miter; stroke-linecap: square"/>
   </g>
   <g id="text_13">
    <text style="font: 700 14px 'DejaVu Sans', 'Bitstream Vera Sans', 'Computer Modern Sans Serif', 'Lucida Grande', 'Verdana', 'Geneva', 'Lucid', 'Arial', 'Helvetica', 'Avant Garde', sans-serif; text-anchor: middle" x="338.605156" y="17.837813" transform="rotate(-0 338.605156 17.837813)">Coroutine Creation - Performance Trend</text>
   </g>
   <g id="legend_1">
    <g id="patch_7">
     <path d="M 647.215703 91.662813 
L 841.539141 91.662813 
Q 843.539141 91.662813 843.539141 89.662813 
L 843.539141 30.837813 
Q 843.539141 28.837813 841.539141 28.837813 
L 647.215703 28.837813 
Q 645.215703 28.837813 645.215703 30.837813 
L 645.215703 89.662813 
Q 645.215703 91.662813 647.215703 91.662813 
z
" style="fill: #ffffff; opacity: 0.8; stroke: #cccccc; stroke-linejoin: miter"/>
    </g>
    <g id="line2d_23">
     <path d="M 649.215703 36.93625 
L 659.215703 36.93625 
L 669.215703 36.93625 
" style="fill: none; stroke: #1f77b4; stroke-width: 2; stroke-linecap: square"/>
     <g>
      <use xlink:href="#m3103ba07b1" x="659.215703" y="36.93625" style="fill: #1f77b4; stroke: #1f77b4"/>
     </g>
    </g>
    <g id="text_14">
     <text style="font: 10px 'DejaVu Sans', 'Bitstream Vera Sans', 'Computer Modern Sans Serif', 'Lucida Grande', 'Verdana', 'Geneva', 'Lucid', 'Arial', 'Helvetica', 'Avant Garde', sans-serif; text-anchor: start" x="677.215703" y="40.43625" transform="rotate(-0 677.215703 40.43625)">gcc-14.2 - CoroutineCreation_V1</text>
    </g>
    <g id="line2d_24">
     <path d="M 649.215703 51.8925 
L 659.215703 51.8925 
L 669.215703 51.8925 
" style="fill: none; stroke: #ff7f0e; stroke-width: 2; stroke-linecap: square"/>
     <g>
      <use xlink:href="#m8727da79bc" x="659.215703" y="51.8925" style="fill: #ff7f0e; stroke: #ff7f0e"/>
     </g>
    </g>
    <g id="text_15">
     <text style="font: 10px 'DejaVu Sans', 'Bitstream Vera Sans', 'Computer Modern Sans Serif', 'Lucida Grande', 'Verdana', 'Geneva', 'Lucid', 'Arial', 'Helvetica', 'Avant Garde', sans-serif; text-anchor: start" x="677.215703" y="55.3925" transform="rotate(-0 677.215703 55.3925)">gcc-14.2 - CoroutineCreation_V2</text>
    </g>
    <g id="line2d_25">
     <path d="M 649.215703 66.84875 
L 659.215703 66.84875 
L 669.215703 66.84875 
" style="fill: none; stroke: #2ca02c; stroke-width: 2; stroke-linecap: square"/>
     <g>
      <use xlink:href="#m5d3e242ca9" x="659.215703" y="66.84875" style="fill: #2ca02c; stroke: #2ca02c"/>
     </g>
    </g>
    <g id="text_16">
     <text style="font: 10px 'DejaVu Sans', 'Bitstream Vera Sans', 'Computer Modern Sans Serif', 'Lucida Grande', 'Verdana', 'Geneva', 'Lucid', 'Arial', 'Helvetica', 'Avant Garde', sans-serif; text-anchor: start" x="677.215703" y="70.34875" transform="rotate(-0 677.215703 70.34875)">gcc-4.2 - CoroutineCreation_V1</text>
    </g>
    <g id="line2d_26">
     <path d="M 649.215703 81.805 
L 659.215703 81.805 
L 669.215703 81.805 
" style="fill: none; stroke: #d62728; stroke-width: 2; stroke-linecap: square"/>
     <g>
      <use xlink:href="#m3ec7e9b668" x="659.215703" y="81.805" style="fill: #d62728; stroke: #d62728"/>
     </g>
    </g>
    <g id="text_17">
     <text style="font: 10px 'DejaVu Sans', 'Bitstream Vera Sans', 'Computer Modern Sans Serif', 'Lucida Grande', 'Verdana', 'Geneva', 'Lucid', 'Arial', 'Helvetica', 'Avant Garde', sans-serif; text-anchor: start" x="677.215703" y="85.305" transform="rotate(-0 677.215703 85.305)">gcc-4.2 - CoroutineCreation_V2</text>
    </g>
   </g>
  </g>
 </g>
 <defs>
  <clipPath id="pc5088d8a5b">
   <rect x="64.41375" y="23.837813" width="548.382812" height="505.470313"/>
  </clipPath>
 </defs>
</svg>
