<?xml version="1.0" encoding="utf-8" standalone="no"?>
<!DOCTYPE svg PUBLIC "-//W3C//DTD SVG 1.1//EN"
  "http://www.w3.org/Graphics/SVG/1.1/DTD/svg11.dtd">
<svg xmlns:xlink="http://www.w3.org/1999/xlink" width="855.204687pt" height="568.8pt" viewBox="0 0 855.204687 568.8" xmlns="http://www.w3.org/2000/svg" version="1.1">
 <metadata>
  <rdf:RDF xmlns:dc="http://purl.org/dc/elements/1.1/" xmlns:cc="http://creativecommons.org/ns#" xmlns:rdf="http://www.w3.org/1999/02/22-rdf-syntax-ns#">
   <cc:Work>
    <dc:type rdf:resource="http://purl.org/dc/dcmitype/StillImage"/>
    <dc:date>2025-08-16T05:13:20.828327</dc:date>
    <dc:format>image/svg+xml</dc:format>
    <dc:creator>
     <cc:Agent>
      <dc:title>Matplotlib v3.9.4, https://matplotlib.org/</dc:title>
     </cc:Agent>
    </dc:creator>
   </cc:Work>
  </rdf:RDF>
 </metadata>
 <defs>
  <style type="text/css">*{stroke-linejoin: round; stroke-linecap: butt}</style>
 </defs>
 <g id="figure_1">
  <g id="patch_1">
   <path d="M 0 568.8 
L 855.204687 568.8 
L 855.204687 0 
L 0 0 
z
" style="fill: #ffffff"/>
  </g>
  <g id="axes_1">
   <g id="patch_2">
    <path d="M 64.41375 529.308125 
L 702.1075 529.308125 
L 702.1075 23.837812 
L 64.41375 23.837812 
z
" style="fill: #ffffff"/>
   </g>
   <g id="matplotlib.axis_1">
    <g id="xtick_1">
     <g id="line2d_1">
      <path d="M 65.79404 529.308125 
L 65.79404 23.837812 
" clip-path="url(#pcc235c9840)" style="fill: none; stroke: #b0b0b0; stroke-opacity: 0.3; stroke-width: 0.8; stroke-linecap: square"/>
     </g>
     <g id="line2d_2">
      <defs>
       <path id="me175968924" d="M 0 0 
L 0 3.5 
" style="stroke: #000000; stroke-width: 0.8"/>
      </defs>
      <g>
       <use xlink:href="#me175968924" x="65.79404" y="529.308125" style="stroke: #000000; stroke-width: 0.8"/>
      </g>
     </g>
     <g id="text_1">
      <text style="font: 10px 'DejaVu Sans', 'Bitstream Vera Sans', 'Computer Modern Sans Serif', 'Lucida Grande', 'Verdana', 'Geneva', 'Lucid', 'Arial', 'Helvetica', 'Avant Garde', sans-serif; text-anchor: middle" x="65.79404" y="543.906563" transform="rotate(-0 65.79404 543.906563)">70</text>
     </g>
    </g>
    <g id="xtick_2">
     <g id="line2d_3">
      <path d="M 203.82299 529.308125 
L 203.82299 23.837812 
" clip-path="url(#pcc235c9840)" style="fill: none; stroke: #b0b0b0; stroke-opacity: 0.3; stroke-width: 0.8; stroke-linecap: square"/>
     </g>
     <g id="line2d_4">
      <g>
       <use xlink:href="#me175968924" x="203.82299" y="529.308125" style="stroke: #000000; stroke-width: 0.8"/>
      </g>
     </g>
     <g id="text_2">
      <text style="font: 10px 'DejaVu Sans', 'Bitstream Vera Sans', 'Computer Modern Sans Serif', 'Lucida Grande', 'Verdana', 'Geneva', 'Lucid', 'Arial', 'Helvetica', 'Avant Garde', sans-serif; text-anchor: middle" x="203.82299" y="543.906563" transform="rotate(-0 203.82299 543.906563)">75</text>
     </g>
    </g>
    <g id="xtick_3">
     <g id="line2d_5">
      <path d="M 341.85194 529.308125 
L 341.85194 23.837812 
" clip-path="url(#pcc235c9840)" style="fill: none; stroke: #b0b0b0; stroke-opacity: 0.3; stroke-width: 0.8; stroke-linecap: square"/>
     </g>
     <g id="line2d_6">
      <g>
       <use xlink:href="#me175968924" x="341.85194" y="529.308125" style="stroke: #000000; stroke-width: 0.8"/>
      </g>
     </g>
     <g id="text_3">
      <text style="font: 10px 'DejaVu Sans', 'Bitstream Vera Sans', 'Computer Modern Sans Serif', 'Lucida Grande', 'Verdana', 'Geneva', 'Lucid', 'Arial', 'Helvetica', 'Avant Garde', sans-serif; text-anchor: middle" x="341.85194" y="543.906563" transform="rotate(-0 341.85194 543.906563)">80</text>
     </g>
    </g>
    <g id="xtick_4">
     <g id="line2d_7">
      <path d="M 479.88089 529.308125 
L 479.88089 23.837812 
" clip-path="url(#pcc235c9840)" style="fill: none; stroke: #b0b0b0; stroke-opacity: 0.3; stroke-width: 0.8; stroke-linecap: square"/>
     </g>
     <g id="line2d_8">
      <g>
       <use xlink:href="#me175968924" x="479.88089" y="529.308125" style="stroke: #000000; stroke-width: 0.8"/>
      </g>
     </g>
     <g id="text_4">
      <text style="font: 10px 'DejaVu Sans', 'Bitstream Vera Sans', 'Computer Modern Sans Serif', 'Lucida Grande', 'Verdana', 'Geneva', 'Lucid', 'Arial', 'Helvetica', 'Avant Garde', sans-serif; text-anchor: middle" x="479.88089" y="543.906563" transform="rotate(-0 479.88089 543.906563)">85</text>
     </g>
    </g>
    <g id="xtick_5">
     <g id="line2d_9">
      <path d="M 617.90984 529.308125 
L 617.90984 23.837812 
" clip-path="url(#pcc235c9840)" style="fill: none; stroke: #b0b0b0; stroke-opacity: 0.3; stroke-width: 0.8; stroke-linecap: square"/>
     </g>
     <g id="line2d_10">
      <g>
       <use xlink:href="#me175968924" x="617.90984" y="529.308125" style="stroke: #000000; stroke-width: 0.8"/>
      </g>
     </g>
     <g id="text_5">
      <text style="font: 10px 'DejaVu Sans', 'Bitstream Vera Sans', 'Computer Modern Sans Serif', 'Lucida Grande', 'Verdana', 'Geneva', 'Lucid', 'Arial', 'Helvetica', 'Avant Garde', sans-serif; text-anchor: middle" x="617.90984" y="543.906563" transform="rotate(-0 617.90984 543.906563)">90</text>
     </g>
    </g>
    <g id="text_6">
     <text style="font: 12px 'DejaVu Sans', 'Bitstream Vera Sans', 'Computer Modern Sans Serif', 'Lucida Grande', 'Verdana', 'Geneva', 'Lucid', 'Arial', 'Helvetica', 'Avant Garde', sans-serif; text-anchor: middle" x="383.260625" y="559.104375" transform="rotate(-0 383.260625 559.104375)">Build Number</text>
    </g>
   </g>
   <g id="matplotlib.axis_2">
    <g id="ytick_1">
     <g id="line2d_11">
      <defs>
       <path id="md555d8fdf6" d="M 0 0 
L -2 0 
" style="stroke: #000000; stroke-width: 0.6"/>
      </defs>
      <g>
       <use xlink:href="#md555d8fdf6" x="64.41375" y="514.915957" style="stroke: #000000; stroke-width: 0.6"/>
      </g>
     </g>
     <g id="text_7">
      <!-- $\mathdefault{5\times10^{7}}$ -->
      <g transform="translate(22.81375 518.715175)">
       <text>
        <tspan style="font: 10px 'DejaVu Sans'" x="0 8.310547 18.637695 25" y="-0.06406250000000036">5×10</tspan>
        <tspan style="font: 7px 'DejaVu Sans'" x="31.458008" y="-3.8921875000000004">7</tspan>
       </text>
      </g>
     </g>
    </g>
    <g id="ytick_2">
     <g id="line2d_12">
      <g>
       <use xlink:href="#md555d8fdf6" x="64.41375" y="288.174215" style="stroke: #000000; stroke-width: 0.6"/>
      </g>
     </g>
     <g id="text_8">
      <!-- $\mathdefault{6\times10^{7}}$ -->
      <g transform="translate(22.81375 291.973434)">
       <text>
        <tspan style="font: 10px 'DejaVu Sans'" x="0 8.310547 18.637695 25" y="-0.06406250000000036">6×10</tspan>
        <tspan style="font: 7px 'DejaVu Sans'" x="31.458008" y="-3.8921875000000004">7</tspan>
       </text>
      </g>
     </g>
    </g>
    <g id="ytick_3">
     <g id="line2d_13">
      <g>
       <use xlink:href="#md555d8fdf6" x="64.41375" y="96.466805" style="stroke: #000000; stroke-width: 0.6"/>
      </g>
     </g>
     <g id="text_9">
      <!-- $\mathdefault{7\times10^{7}}$ -->
      <g transform="translate(22.81375 100.266023)">
       <text>
        <tspan style="font: 10px 'DejaVu Sans'" x="0 8.310547 18.637695 25" y="-0.06406250000000036">7×10</tspan>
        <tspan style="font: 7px 'DejaVu Sans'" x="31.458008" y="-3.8921875000000004">7</tspan>
       </text>
      </g>
     </g>
    </g>
    <g id="text_10">
     <text style="font: 12px 'DejaVu Sans', 'Bitstream Vera Sans', 'Computer Modern Sans Serif', 'Lucida Grande', 'Verdana', 'Geneva', 'Lucid', 'Arial', 'Helvetica', 'Avant Garde', sans-serif; text-anchor: middle" x="16.318125" y="276.572969" transform="rotate(-90 16.318125 276.572969)">Median Elapsed Time (nanoseconds)</text>
    </g>
   </g>
   <g id="line2d_14">
    <path d="M 93.39983 493.691829 
L 121.00562 490.814075 
L 148.61141 487.494679 
L 176.2172 487.145326 
L 203.82299 488.410505 
L 231.42878 475.327557 
L 259.03457 487.596827 
L 286.64036 488.415686 
L 314.24615 489.713847 
L 341.85194 457.081027 
L 369.45773 483.450798 
L 397.06352 486.101722 
L 424.66931 488.754486 
L 452.2751 490.455908 
L 479.88089 482.796643 
L 507.48668 488.14356 
L 562.69826 488.224408 
L 590.30405 490.992343 
L 617.90984 489.612786 
L 645.51563 487.665045 
L 673.12142 485.091497 
" clip-path="url(#pcc235c9840)" style="fill: none; stroke: #1f77b4; stroke-width: 2; stroke-linecap: square"/>
    <defs>
     <path id="m7ef304c7eb" d="M 0 3 
C 0.795609 3 1.55874 2.683901 2.12132 2.12132 
C 2.683901 1.55874 3 0.795609 3 0 
C 3 -0.795609 2.683901 -1.55874 2.12132 -2.12132 
C 1.55874 -2.683901 0.795609 -3 0 -3 
C -0.795609 -3 -1.55874 -2.683901 -2.12132 -2.12132 
C -2.683901 -1.55874 -3 -0.795609 -3 0 
C -3 0.795609 -2.683901 1.55874 -2.12132 2.12132 
C -1.55874 2.683901 -0.795609 3 0 3 
z
" style="stroke: #1f77b4"/>
    </defs>
    <g clip-path="url(#pcc235c9840)">
     <use xlink:href="#m7ef304c7eb" x="93.39983" y="493.691829" style="fill: #1f77b4; stroke: #1f77b4"/>
     <use xlink:href="#m7ef304c7eb" x="121.00562" y="490.814075" style="fill: #1f77b4; stroke: #1f77b4"/>
     <use xlink:href="#m7ef304c7eb" x="148.61141" y="487.494679" style="fill: #1f77b4; stroke: #1f77b4"/>
     <use xlink:href="#m7ef304c7eb" x="176.2172" y="487.145326" style="fill: #1f77b4; stroke: #1f77b4"/>
     <use xlink:href="#m7ef304c7eb" x="203.82299" y="488.410505" style="fill: #1f77b4; stroke: #1f77b4"/>
     <use xlink:href="#m7ef304c7eb" x="231.42878" y="475.327557" style="fill: #1f77b4; stroke: #1f77b4"/>
     <use xlink:href="#m7ef304c7eb" x="259.03457" y="487.596827" style="fill: #1f77b4; stroke: #1f77b4"/>
     <use xlink:href="#m7ef304c7eb" x="286.64036" y="488.415686" style="fill: #1f77b4; stroke: #1f77b4"/>
     <use xlink:href="#m7ef304c7eb" x="314.24615" y="489.713847" style="fill: #1f77b4; stroke: #1f77b4"/>
     <use xlink:href="#m7ef304c7eb" x="341.85194" y="457.081027" style="fill: #1f77b4; stroke: #1f77b4"/>
     <use xlink:href="#m7ef304c7eb" x="369.45773" y="483.450798" style="fill: #1f77b4; stroke: #1f77b4"/>
     <use xlink:href="#m7ef304c7eb" x="397.06352" y="486.101722" style="fill: #1f77b4; stroke: #1f77b4"/>
     <use xlink:href="#m7ef304c7eb" x="424.66931" y="488.754486" style="fill: #1f77b4; stroke: #1f77b4"/>
     <use xlink:href="#m7ef304c7eb" x="452.2751" y="490.455908" style="fill: #1f77b4; stroke: #1f77b4"/>
     <use xlink:href="#m7ef304c7eb" x="479.88089" y="482.796643" style="fill: #1f77b4; stroke: #1f77b4"/>
     <use xlink:href="#m7ef304c7eb" x="507.48668" y="488.14356" style="fill: #1f77b4; stroke: #1f77b4"/>
     <use xlink:href="#m7ef304c7eb" x="562.69826" y="488.224408" style="fill: #1f77b4; stroke: #1f77b4"/>
     <use xlink:href="#m7ef304c7eb" x="590.30405" y="490.992343" style="fill: #1f77b4; stroke: #1f77b4"/>
     <use xlink:href="#m7ef304c7eb" x="617.90984" y="489.612786" style="fill: #1f77b4; stroke: #1f77b4"/>
     <use xlink:href="#m7ef304c7eb" x="645.51563" y="487.665045" style="fill: #1f77b4; stroke: #1f77b4"/>
     <use xlink:href="#m7ef304c7eb" x="673.12142" y="485.091497" style="fill: #1f77b4; stroke: #1f77b4"/>
    </g>
   </g>
   <g id="line2d_15">
    <path d="M 93.39983 214.978781 
L 121.00562 182.906967 
L 148.61141 272.956006 
L 176.2172 182.029092 
L 203.82299 268.872976 
L 231.42878 274.785303 
L 259.03457 171.913022 
L 286.64036 270.679187 
L 314.24615 182.508331 
L 341.85194 270.8712 
L 369.45773 182.657976 
L 397.06352 183.510793 
L 424.66931 272.463822 
L 452.2751 182.405436 
L 479.88089 272.552038 
L 507.48668 181.404628 
L 562.69826 275.226397 
L 590.30405 183.724883 
L 617.90984 182.093211 
L 645.51563 183.676891 
L 673.12142 275.146352 
" clip-path="url(#pcc235c9840)" style="fill: none; stroke: #ff7f0e; stroke-width: 2; stroke-linecap: square"/>
    <defs>
     <path id="m0c3a75e9be" d="M 0 3 
C 0.795609 3 1.55874 2.683901 2.12132 2.12132 
C 2.683901 1.55874 3 0.795609 3 0 
C 3 -0.795609 2.683901 -1.55874 2.12132 -2.12132 
C 1.55874 -2.683901 0.795609 -3 0 -3 
C -0.795609 -3 -1.55874 -2.683901 -2.12132 -2.12132 
C -2.683901 -1.55874 -3 -0.795609 -3 0 
C -3 0.795609 -2.683901 1.55874 -2.12132 2.12132 
C -1.55874 2.683901 -0.795609 3 0 3 
z
" style="stroke: #ff7f0e"/>
    </defs>
    <g clip-path="url(#pcc235c9840)">
     <use xlink:href="#m0c3a75e9be" x="93.39983" y="214.978781" style="fill: #ff7f0e; stroke: #ff7f0e"/>
     <use xlink:href="#m0c3a75e9be" x="121.00562" y="182.906967" style="fill: #ff7f0e; stroke: #ff7f0e"/>
     <use xlink:href="#m0c3a75e9be" x="148.61141" y="272.956006" style="fill: #ff7f0e; stroke: #ff7f0e"/>
     <use xlink:href="#m0c3a75e9be" x="176.2172" y="182.029092" style="fill: #ff7f0e; stroke: #ff7f0e"/>
     <use xlink:href="#m0c3a75e9be" x="203.82299" y="268.872976" style="fill: #ff7f0e; stroke: #ff7f0e"/>
     <use xlink:href="#m0c3a75e9be" x="231.42878" y="274.785303" style="fill: #ff7f0e; stroke: #ff7f0e"/>
     <use xlink:href="#m0c3a75e9be" x="259.03457" y="171.913022" style="fill: #ff7f0e; stroke: #ff7f0e"/>
     <use xlink:href="#m0c3a75e9be" x="286.64036" y="270.679187" style="fill: #ff7f0e; stroke: #ff7f0e"/>
     <use xlink:href="#m0c3a75e9be" x="314.24615" y="182.508331" style="fill: #ff7f0e; stroke: #ff7f0e"/>
     <use xlink:href="#m0c3a75e9be" x="341.85194" y="270.8712" style="fill: #ff7f0e; stroke: #ff7f0e"/>
     <use xlink:href="#m0c3a75e9be" x="369.45773" y="182.657976" style="fill: #ff7f0e; stroke: #ff7f0e"/>
     <use xlink:href="#m0c3a75e9be" x="397.06352" y="183.510793" style="fill: #ff7f0e; stroke: #ff7f0e"/>
     <use xlink:href="#m0c3a75e9be" x="424.66931" y="272.463822" style="fill: #ff7f0e; stroke: #ff7f0e"/>
     <use xlink:href="#m0c3a75e9be" x="452.2751" y="182.405436" style="fill: #ff7f0e; stroke: #ff7f0e"/>
     <use xlink:href="#m0c3a75e9be" x="479.88089" y="272.552038" style="fill: #ff7f0e; stroke: #ff7f0e"/>
     <use xlink:href="#m0c3a75e9be" x="507.48668" y="181.404628" style="fill: #ff7f0e; stroke: #ff7f0e"/>
     <use xlink:href="#m0c3a75e9be" x="562.69826" y="275.226397" style="fill: #ff7f0e; stroke: #ff7f0e"/>
     <use xlink:href="#m0c3a75e9be" x="590.30405" y="183.724883" style="fill: #ff7f0e; stroke: #ff7f0e"/>
     <use xlink:href="#m0c3a75e9be" x="617.90984" y="182.093211" style="fill: #ff7f0e; stroke: #ff7f0e"/>
     <use xlink:href="#m0c3a75e9be" x="645.51563" y="183.676891" style="fill: #ff7f0e; stroke: #ff7f0e"/>
     <use xlink:href="#m0c3a75e9be" x="673.12142" y="275.146352" style="fill: #ff7f0e; stroke: #ff7f0e"/>
    </g>
   </g>
   <g id="line2d_16">
    <path d="M 93.39983 506.332202 
L 121.00562 488.22548 
L 148.61141 487.132838 
L 176.2172 488.186015 
L 203.82299 486.766103 
L 231.42878 489.39061 
L 259.03457 488.226181 
L 286.64036 487.796971 
L 314.24615 488.498719 
L 341.85194 489.635154 
L 369.45773 487.489777 
L 397.06352 488.674621 
L 424.66931 488.025081 
L 452.2751 486.62109 
L 479.88089 488.454844 
L 507.48668 487.47967 
L 562.69826 488.84933 
L 590.30405 488.865783 
L 617.90984 488.877107 
L 645.51563 487.310761 
L 673.12142 485.899652 
" clip-path="url(#pcc235c9840)" style="fill: none; stroke: #2ca02c; stroke-width: 2; stroke-linecap: square"/>
    <defs>
     <path id="m392dad6418" d="M 0 3 
C 0.795609 3 1.55874 2.683901 2.12132 2.12132 
C 2.683901 1.55874 3 0.795609 3 0 
C 3 -0.795609 2.683901 -1.55874 2.12132 -2.12132 
C 1.55874 -2.683901 0.795609 -3 0 -3 
C -0.795609 -3 -1.55874 -2.683901 -2.12132 -2.12132 
C -2.683901 -1.55874 -3 -0.795609 -3 0 
C -3 0.795609 -2.683901 1.55874 -2.12132 2.12132 
C -1.55874 2.683901 -0.795609 3 0 3 
z
" style="stroke: #2ca02c"/>
    </defs>
    <g clip-path="url(#pcc235c9840)">
     <use xlink:href="#m392dad6418" x="93.39983" y="506.332202" style="fill: #2ca02c; stroke: #2ca02c"/>
     <use xlink:href="#m392dad6418" x="121.00562" y="488.22548" style="fill: #2ca02c; stroke: #2ca02c"/>
     <use xlink:href="#m392dad6418" x="148.61141" y="487.132838" style="fill: #2ca02c; stroke: #2ca02c"/>
     <use xlink:href="#m392dad6418" x="176.2172" y="488.186015" style="fill: #2ca02c; stroke: #2ca02c"/>
     <use xlink:href="#m392dad6418" x="203.82299" y="486.766103" style="fill: #2ca02c; stroke: #2ca02c"/>
     <use xlink:href="#m392dad6418" x="231.42878" y="489.39061" style="fill: #2ca02c; stroke: #2ca02c"/>
     <use xlink:href="#m392dad6418" x="259.03457" y="488.226181" style="fill: #2ca02c; stroke: #2ca02c"/>
     <use xlink:href="#m392dad6418" x="286.64036" y="487.796971" style="fill: #2ca02c; stroke: #2ca02c"/>
     <use xlink:href="#m392dad6418" x="314.24615" y="488.498719" style="fill: #2ca02c; stroke: #2ca02c"/>
     <use xlink:href="#m392dad6418" x="341.85194" y="489.635154" style="fill: #2ca02c; stroke: #2ca02c"/>
     <use xlink:href="#m392dad6418" x="369.45773" y="487.489777" style="fill: #2ca02c; stroke: #2ca02c"/>
     <use xlink:href="#m392dad6418" x="397.06352" y="488.674621" style="fill: #2ca02c; stroke: #2ca02c"/>
     <use xlink:href="#m392dad6418" x="424.66931" y="488.025081" style="fill: #2ca02c; stroke: #2ca02c"/>
     <use xlink:href="#m392dad6418" x="452.2751" y="486.62109" style="fill: #2ca02c; stroke: #2ca02c"/>
     <use xlink:href="#m392dad6418" x="479.88089" y="488.454844" style="fill: #2ca02c; stroke: #2ca02c"/>
     <use xlink:href="#m392dad6418" x="507.48668" y="487.47967" style="fill: #2ca02c; stroke: #2ca02c"/>
     <use xlink:href="#m392dad6418" x="562.69826" y="488.84933" style="fill: #2ca02c; stroke: #2ca02c"/>
     <use xlink:href="#m392dad6418" x="590.30405" y="488.865783" style="fill: #2ca02c; stroke: #2ca02c"/>
     <use xlink:href="#m392dad6418" x="617.90984" y="488.877107" style="fill: #2ca02c; stroke: #2ca02c"/>
     <use xlink:href="#m392dad6418" x="645.51563" y="487.310761" style="fill: #2ca02c; stroke: #2ca02c"/>
     <use xlink:href="#m392dad6418" x="673.12142" y="485.899652" style="fill: #2ca02c; stroke: #2ca02c"/>
    </g>
   </g>
   <g id="line2d_17">
    <path d="M 93.39983 284.582811 
L 121.00562 287.362379 
L 148.61141 286.431637 
L 176.2172 285.037666 
L 203.82299 287.11432 
L 231.42878 282.282277 
L 259.03457 283.577155 
L 286.64036 286.238334 
L 314.24615 283.759492 
L 341.85194 286.297496 
L 369.45773 287.752534 
L 397.06352 281.162939 
L 424.66931 284.020288 
L 479.88089 284.844574 
L 507.48668 286.186715 
L 562.69826 289.351632 
L 590.30405 287.698079 
L 617.90984 284.38334 
L 645.51563 285.367533 
L 673.12142 285.749032 
" clip-path="url(#pcc235c9840)" style="fill: none; stroke: #d62728; stroke-width: 2; stroke-linecap: square"/>
    <defs>
     <path id="m75ee36cc98" d="M 0 3 
C 0.795609 3 1.55874 2.683901 2.12132 2.12132 
C 2.683901 1.55874 3 0.795609 3 0 
C 3 -0.795609 2.683901 -1.55874 2.12132 -2.12132 
C 1.55874 -2.683901 0.795609 -3 0 -3 
C -0.795609 -3 -1.55874 -2.683901 -2.12132 -2.12132 
C -2.683901 -1.55874 -3 -0.795609 -3 0 
C -3 0.795609 -2.683901 1.55874 -2.12132 2.12132 
C -1.55874 2.683901 -0.795609 3 0 3 
z
" style="stroke: #d62728"/>
    </defs>
    <g clip-path="url(#pcc235c9840)">
     <use xlink:href="#m75ee36cc98" x="93.39983" y="284.582811" style="fill: #d62728; stroke: #d62728"/>
     <use xlink:href="#m75ee36cc98" x="121.00562" y="287.362379" style="fill: #d62728; stroke: #d62728"/>
     <use xlink:href="#m75ee36cc98" x="148.61141" y="286.431637" style="fill: #d62728; stroke: #d62728"/>
     <use xlink:href="#m75ee36cc98" x="176.2172" y="285.037666" style="fill: #d62728; stroke: #d62728"/>
     <use xlink:href="#m75ee36cc98" x="203.82299" y="287.11432" style="fill: #d62728; stroke: #d62728"/>
     <use xlink:href="#m75ee36cc98" x="231.42878" y="282.282277" style="fill: #d62728; stroke: #d62728"/>
     <use xlink:href="#m75ee36cc98" x="259.03457" y="283.577155" style="fill: #d62728; stroke: #d62728"/>
     <use xlink:href="#m75ee36cc98" x="286.64036" y="286.238334" style="fill: #d62728; stroke: #d62728"/>
     <use xlink:href="#m75ee36cc98" x="314.24615" y="283.759492" style="fill: #d62728; stroke: #d62728"/>
     <use xlink:href="#m75ee36cc98" x="341.85194" y="286.297496" style="fill: #d62728; stroke: #d62728"/>
     <use xlink:href="#m75ee36cc98" x="369.45773" y="287.752534" style="fill: #d62728; stroke: #d62728"/>
     <use xlink:href="#m75ee36cc98" x="397.06352" y="281.162939" style="fill: #d62728; stroke: #d62728"/>
     <use xlink:href="#m75ee36cc98" x="424.66931" y="284.020288" style="fill: #d62728; stroke: #d62728"/>
     <use xlink:href="#m75ee36cc98" x="479.88089" y="284.844574" style="fill: #d62728; stroke: #d62728"/>
     <use xlink:href="#m75ee36cc98" x="507.48668" y="286.186715" style="fill: #d62728; stroke: #d62728"/>
     <use xlink:href="#m75ee36cc98" x="562.69826" y="289.351632" style="fill: #d62728; stroke: #d62728"/>
     <use xlink:href="#m75ee36cc98" x="590.30405" y="287.698079" style="fill: #d62728; stroke: #d62728"/>
     <use xlink:href="#m75ee36cc98" x="617.90984" y="284.38334" style="fill: #d62728; stroke: #d62728"/>
     <use xlink:href="#m75ee36cc98" x="645.51563" y="285.367533" style="fill: #d62728; stroke: #d62728"/>
     <use xlink:href="#m75ee36cc98" x="673.12142" y="285.749032" style="fill: #d62728; stroke: #d62728"/>
    </g>
   </g>
   <g id="line2d_18">
    <path d="M 93.39983 72.672576 
L 121.00562 71.170534 
L 148.61141 171.757446 
L 176.2172 76.360371 
L 203.82299 175.593608 
L 231.42878 76.238119 
L 259.03457 75.280247 
L 286.64036 75.944887 
L 314.24615 77.695079 
L 341.85194 79.242966 
L 369.45773 75.394225 
L 397.06352 76.179059 
L 424.66931 75.413168 
L 479.88089 46.813736 
L 507.48668 74.863866 
L 562.69826 74.899226 
L 590.30405 77.920815 
L 617.90984 75.090369 
L 645.51563 177.096391 
L 673.12142 134.163695 
" clip-path="url(#pcc235c9840)" style="fill: none; stroke: #9467bd; stroke-width: 2; stroke-linecap: square"/>
    <defs>
     <path id="md26f231841" d="M 0 3 
C 0.795609 3 1.55874 2.683901 2.12132 2.12132 
C 2.683901 1.55874 3 0.795609 3 0 
C 3 -0.795609 2.683901 -1.55874 2.12132 -2.12132 
C 1.55874 -2.683901 0.795609 -3 0 -3 
C -0.795609 -3 -1.55874 -2.683901 -2.12132 -2.12132 
C -2.683901 -1.55874 -3 -0.795609 -3 0 
C -3 0.795609 -2.683901 1.55874 -2.12132 2.12132 
C -1.55874 2.683901 -0.795609 3 0 3 
z
" style="stroke: #9467bd"/>
    </defs>
    <g clip-path="url(#pcc235c9840)">
     <use xlink:href="#md26f231841" x="93.39983" y="72.672576" style="fill: #9467bd; stroke: #9467bd"/>
     <use xlink:href="#md26f231841" x="121.00562" y="71.170534" style="fill: #9467bd; stroke: #9467bd"/>
     <use xlink:href="#md26f231841" x="148.61141" y="171.757446" style="fill: #9467bd; stroke: #9467bd"/>
     <use xlink:href="#md26f231841" x="176.2172" y="76.360371" style="fill: #9467bd; stroke: #9467bd"/>
     <use xlink:href="#md26f231841" x="203.82299" y="175.593608" style="fill: #9467bd; stroke: #9467bd"/>
     <use xlink:href="#md26f231841" x="231.42878" y="76.238119" style="fill: #9467bd; stroke: #9467bd"/>
     <use xlink:href="#md26f231841" x="259.03457" y="75.280247" style="fill: #9467bd; stroke: #9467bd"/>
     <use xlink:href="#md26f231841" x="286.64036" y="75.944887" style="fill: #9467bd; stroke: #9467bd"/>
     <use xlink:href="#md26f231841" x="314.24615" y="77.695079" style="fill: #9467bd; stroke: #9467bd"/>
     <use xlink:href="#md26f231841" x="341.85194" y="79.242966" style="fill: #9467bd; stroke: #9467bd"/>
     <use xlink:href="#md26f231841" x="369.45773" y="75.394225" style="fill: #9467bd; stroke: #9467bd"/>
     <use xlink:href="#md26f231841" x="397.06352" y="76.179059" style="fill: #9467bd; stroke: #9467bd"/>
     <use xlink:href="#md26f231841" x="424.66931" y="75.413168" style="fill: #9467bd; stroke: #9467bd"/>
     <use xlink:href="#md26f231841" x="479.88089" y="46.813736" style="fill: #9467bd; stroke: #9467bd"/>
     <use xlink:href="#md26f231841" x="507.48668" y="74.863866" style="fill: #9467bd; stroke: #9467bd"/>
     <use xlink:href="#md26f231841" x="562.69826" y="74.899226" style="fill: #9467bd; stroke: #9467bd"/>
     <use xlink:href="#md26f231841" x="590.30405" y="77.920815" style="fill: #9467bd; stroke: #9467bd"/>
     <use xlink:href="#md26f231841" x="617.90984" y="75.090369" style="fill: #9467bd; stroke: #9467bd"/>
     <use xlink:href="#md26f231841" x="645.51563" y="177.096391" style="fill: #9467bd; stroke: #9467bd"/>
     <use xlink:href="#md26f231841" x="673.12142" y="134.163695" style="fill: #9467bd; stroke: #9467bd"/>
    </g>
   </g>
   <g id="line2d_19">
    <path d="M 93.39983 288.410145 
L 121.00562 287.725399 
L 148.61141 287.42418 
L 176.2172 287.301725 
L 203.82299 289.195523 
L 231.42878 288.223477 
L 259.03457 287.868621 
L 286.64036 288.889558 
L 314.24615 288.158774 
L 341.85194 288.526643 
L 369.45773 287.650844 
L 397.06352 289.356014 
L 424.66931 285.698464 
L 479.88089 285.728186 
L 507.48668 288.513851 
L 562.69826 294.187616 
L 590.30405 288.180987 
L 617.90984 288.032356 
L 645.51563 287.944953 
L 673.12142 287.058117 
" clip-path="url(#pcc235c9840)" style="fill: none; stroke: #8c564b; stroke-width: 2; stroke-linecap: square"/>
    <defs>
     <path id="m208c54e59b" d="M 0 3 
C 0.795609 3 1.55874 2.683901 2.12132 2.12132 
C 2.683901 1.55874 3 0.795609 3 0 
C 3 -0.795609 2.683901 -1.55874 2.12132 -2.12132 
C 1.55874 -2.683901 0.795609 -3 0 -3 
C -0.795609 -3 -1.55874 -2.683901 -2.12132 -2.12132 
C -2.683901 -1.55874 -3 -0.795609 -3 0 
C -3 0.795609 -2.683901 1.55874 -2.12132 2.12132 
C -1.55874 2.683901 -0.795609 3 0 3 
z
" style="stroke: #8c564b"/>
    </defs>
    <g clip-path="url(#pcc235c9840)">
     <use xlink:href="#m208c54e59b" x="93.39983" y="288.410145" style="fill: #8c564b; stroke: #8c564b"/>
     <use xlink:href="#m208c54e59b" x="121.00562" y="287.725399" style="fill: #8c564b; stroke: #8c564b"/>
     <use xlink:href="#m208c54e59b" x="148.61141" y="287.42418" style="fill: #8c564b; stroke: #8c564b"/>
     <use xlink:href="#m208c54e59b" x="176.2172" y="287.301725" style="fill: #8c564b; stroke: #8c564b"/>
     <use xlink:href="#m208c54e59b" x="203.82299" y="289.195523" style="fill: #8c564b; stroke: #8c564b"/>
     <use xlink:href="#m208c54e59b" x="231.42878" y="288.223477" style="fill: #8c564b; stroke: #8c564b"/>
     <use xlink:href="#m208c54e59b" x="259.03457" y="287.868621" style="fill: #8c564b; stroke: #8c564b"/>
     <use xlink:href="#m208c54e59b" x="286.64036" y="288.889558" style="fill: #8c564b; stroke: #8c564b"/>
     <use xlink:href="#m208c54e59b" x="314.24615" y="288.158774" style="fill: #8c564b; stroke: #8c564b"/>
     <use xlink:href="#m208c54e59b" x="341.85194" y="288.526643" style="fill: #8c564b; stroke: #8c564b"/>
     <use xlink:href="#m208c54e59b" x="369.45773" y="287.650844" style="fill: #8c564b; stroke: #8c564b"/>
     <use xlink:href="#m208c54e59b" x="397.06352" y="289.356014" style="fill: #8c564b; stroke: #8c564b"/>
     <use xlink:href="#m208c54e59b" x="424.66931" y="285.698464" style="fill: #8c564b; stroke: #8c564b"/>
     <use xlink:href="#m208c54e59b" x="479.88089" y="285.728186" style="fill: #8c564b; stroke: #8c564b"/>
     <use xlink:href="#m208c54e59b" x="507.48668" y="288.513851" style="fill: #8c564b; stroke: #8c564b"/>
     <use xlink:href="#m208c54e59b" x="562.69826" y="294.187616" style="fill: #8c564b; stroke: #8c564b"/>
     <use xlink:href="#m208c54e59b" x="590.30405" y="288.180987" style="fill: #8c564b; stroke: #8c564b"/>
     <use xlink:href="#m208c54e59b" x="617.90984" y="288.032356" style="fill: #8c564b; stroke: #8c564b"/>
     <use xlink:href="#m208c54e59b" x="645.51563" y="287.944953" style="fill: #8c564b; stroke: #8c564b"/>
     <use xlink:href="#m208c54e59b" x="673.12142" y="287.058117" style="fill: #8c564b; stroke: #8c564b"/>
    </g>
   </g>
   <g id="patch_3">
    <path d="M 64.41375 529.308125 
L 64.41375 23.837812 
" style="fill: none; stroke: #000000; stroke-width: 0.8; stroke-linejoin: miter; stroke-linecap: square"/>
   </g>
   <g id="patch_4">
    <path d="M 702.1075 529.308125 
L 702.1075 23.837812 
" style="fill: none; stroke: #000000; stroke-width: 0.8; stroke-linejoin: miter; stroke-linecap: square"/>
   </g>
   <g id="patch_5">
    <path d="M 64.41375 529.308125 
L 702.1075 529.308125 
" style="fill: none; stroke: #000000; stroke-width: 0.8; stroke-linejoin: miter; stroke-linecap: square"/>
   </g>
   <g id="patch_6">
    <path d="M 64.41375 23.837812 
L 702.1075 23.837812 
" style="fill: none; stroke: #000000; stroke-width: 0.8; stroke-linejoin: miter; stroke-linecap: square"/>
   </g>
   <g id="text_11">
    <text style="font: 700 14px 'DejaVu Sans', 'Bitstream Vera Sans', 'Computer Modern Sans Serif', 'Lucida Grande', 'Verdana', 'Geneva', 'Lucid', 'Arial', 'Helvetica', 'Avant Garde', sans-serif; text-anchor: middle" x="383.260625" y="17.837813" transform="rotate(-0 383.260625 17.837813)">Taskthroughput - Performance Trend</text>
   </g>
   <g id="legend_1">
    <g id="patch_7">
     <path d="M 740.992188 119.906563 
L 846.004688 119.906563 
Q 848.004688 119.906563 848.004688 117.906563 
L 848.004688 30.837813 
Q 848.004688 28.837813 846.004688 28.837813 
L 740.992188 28.837813 
Q 738.992188 28.837813 738.992188 30.837813 
L 738.992188 117.906563 
Q 738.992188 119.906563 740.992188 119.906563 
z
" style="fill: #ffffff; opacity: 0.8; stroke: #cccccc; stroke-linejoin: miter"/>
    </g>
    <g id="line2d_20">
     <path d="M 742.992188 36.93625 
L 752.992188 36.93625 
L 762.992188 36.93625 
" style="fill: none; stroke: #1f77b4; stroke-width: 2; stroke-linecap: square"/>
     <g>
      <use xlink:href="#m7ef304c7eb" x="752.992188" y="36.93625" style="fill: #1f77b4; stroke: #1f77b4"/>
     </g>
    </g>
    <g id="text_12">
     <text style="font: 10px 'DejaVu Sans', 'Bitstream Vera Sans', 'Computer Modern Sans Serif', 'Lucida Grande', 'Verdana', 'Geneva', 'Lucid', 'Arial', 'Helvetica', 'Avant Garde', sans-serif; text-anchor: start" x="770.992188" y="40.43625" transform="rotate(-0 770.992188 40.43625)">gcc-14.2 - V1</text>
    </g>
    <g id="line2d_21">
     <path d="M 742.992188 51.614375 
L 752.992188 51.614375 
L 762.992188 51.614375 
" style="fill: none; stroke: #ff7f0e; stroke-width: 2; stroke-linecap: square"/>
     <g>
      <use xlink:href="#m0c3a75e9be" x="752.992188" y="51.614375" style="fill: #ff7f0e; stroke: #ff7f0e"/>
     </g>
    </g>
    <g id="text_13">
     <text style="font: 10px 'DejaVu Sans', 'Bitstream Vera Sans', 'Computer Modern Sans Serif', 'Lucida Grande', 'Verdana', 'Geneva', 'Lucid', 'Arial', 'Helvetica', 'Avant Garde', sans-serif; text-anchor: start" x="770.992188" y="55.114375" transform="rotate(-0 770.992188 55.114375)">gcc-14.2 - V2</text>
    </g>
    <g id="line2d_22">
     <path d="M 742.992188 66.2925 
L 752.992188 66.2925 
L 762.992188 66.2925 
" style="fill: none; stroke: #2ca02c; stroke-width: 2; stroke-linecap: square"/>
     <g>
      <use xlink:href="#m392dad6418" x="752.992188" y="66.2925" style="fill: #2ca02c; stroke: #2ca02c"/>
     </g>
    </g>
    <g id="text_14">
     <text style="font: 10px 'DejaVu Sans', 'Bitstream Vera Sans', 'Computer Modern Sans Serif', 'Lucida Grande', 'Verdana', 'Geneva', 'Lucid', 'Arial', 'Helvetica', 'Avant Garde', sans-serif; text-anchor: start" x="770.992188" y="69.7925" transform="rotate(-0 770.992188 69.7925)">gcc-14.2 - TBB</text>
    </g>
    <g id="line2d_23">
     <path d="M 742.992188 80.970625 
L 752.992188 80.970625 
L 762.992188 80.970625 
" style="fill: none; stroke: #d62728; stroke-width: 2; stroke-linecap: square"/>
     <g>
      <use xlink:href="#m75ee36cc98" x="752.992188" y="80.970625" style="fill: #d62728; stroke: #d62728"/>
     </g>
    </g>
    <g id="text_15">
     <text style="font: 10px 'DejaVu Sans', 'Bitstream Vera Sans', 'Computer Modern Sans Serif', 'Lucida Grande', 'Verdana', 'Geneva', 'Lucid', 'Arial', 'Helvetica', 'Avant Garde', sans-serif; text-anchor: start" x="770.992188" y="84.470625" transform="rotate(-0 770.992188 84.470625)">gcc-4.2 - V1</text>
    </g>
    <g id="line2d_24">
     <path d="M 742.992188 95.64875 
L 752.992188 95.64875 
L 762.992188 95.64875 
" style="fill: none; stroke: #9467bd; stroke-width: 2; stroke-linecap: square"/>
     <g>
      <use xlink:href="#md26f231841" x="752.992188" y="95.64875" style="fill: #9467bd; stroke: #9467bd"/>
     </g>
    </g>
    <g id="text_16">
     <text style="font: 10px 'DejaVu Sans', 'Bitstream Vera Sans', 'Computer Modern Sans Serif', 'Lucida Grande', 'Verdana', 'Geneva', 'Lucid', 'Arial', 'Helvetica', 'Avant Garde', sans-serif; text-anchor: start" x="770.992188" y="99.14875" transform="rotate(-0 770.992188 99.14875)">gcc-4.2 - V2</text>
    </g>
    <g id="line2d_25">
     <path d="M 742.992188 110.326875 
L 752.992188 110.326875 
L 762.992188 110.326875 
" style="fill: none; stroke: #8c564b; stroke-width: 2; stroke-linecap: square"/>
     <g>
      <use xlink:href="#m208c54e59b" x="752.992188" y="110.326875" style="fill: #8c564b; stroke: #8c564b"/>
     </g>
    </g>
    <g id="text_17">
     <text style="font: 10px 'DejaVu Sans', 'Bitstream Vera Sans', 'Computer Modern Sans Serif', 'Lucida Grande', 'Verdana', 'Geneva', 'Lucid', 'Arial', 'Helvetica', 'Avant Garde', sans-serif; text-anchor: start" x="770.992188" y="113.826875" transform="rotate(-0 770.992188 113.826875)">gcc-4.2 - TBB</text>
    </g>
   </g>
  </g>
 </g>
 <defs>
  <clipPath id="pcc235c9840">
   <rect x="64.41375" y="23.837813" width="637.69375" height="505.470313"/>
  </clipPath>
 </defs>
</svg>
