<?xml version="1.0" encoding="utf-8" standalone="no"?>
<!DOCTYPE svg PUBLIC "-//W3C//DTD SVG 1.1//EN"
  "http://www.w3.org/Graphics/SVG/1.1/DTD/svg11.dtd">
<svg xmlns:xlink="http://www.w3.org/1999/xlink" width="850.259141pt" height="568.8pt" viewBox="0 0 850.259141 568.8" xmlns="http://www.w3.org/2000/svg" version="1.1">
 <metadata>
  <rdf:RDF xmlns:dc="http://purl.org/dc/elements/1.1/" xmlns:cc="http://creativecommons.org/ns#" xmlns:rdf="http://www.w3.org/1999/02/22-rdf-syntax-ns#">
   <cc:Work>
    <dc:type rdf:resource="http://purl.org/dc/dcmitype/StillImage"/>
    <dc:date>2025-08-28T15:03:31.559261</dc:date>
    <dc:format>image/svg+xml</dc:format>
    <dc:creator>
     <cc:Agent>
      <dc:title>Matplotlib v3.9.4, https://matplotlib.org/</dc:title>
     </cc:Agent>
    </dc:creator>
   </cc:Work>
  </rdf:RDF>
 </metadata>
 <defs>
  <style type="text/css">*{stroke-linejoin: round; stroke-linecap: butt}</style>
 </defs>
 <g id="figure_1">
  <g id="patch_1">
   <path d="M 0 568.8 
L 850.259141 568.8 
L 850.259141 0 
L 0 0 
z
" style="fill: #ffffff"/>
  </g>
  <g id="axes_1">
   <g id="patch_2">
    <path d="M 74.01375 529.308125 
L 612.796562 529.308125 
L 612.796562 23.837812 
L 74.01375 23.837812 
z
" style="fill: #ffffff"/>
   </g>
   <g id="matplotlib.axis_1">
    <g id="xtick_1">
     <g id="line2d_1">
      <path d="M 98.503878 529.308125 
L 98.503878 23.837812 
" clip-path="url(#p37f345319f)" style="fill: none; stroke: #b0b0b0; stroke-opacity: 0.3; stroke-width: 0.8; stroke-linecap: square"/>
     </g>
     <g id="line2d_2">
      <defs>
       <path id="m5d5f9c81d9" d="M 0 0 
L 0 3.5 
" style="stroke: #000000; stroke-width: 0.8"/>
      </defs>
      <g>
       <use xlink:href="#m5d5f9c81d9" x="98.503878" y="529.308125" style="stroke: #000000; stroke-width: 0.8"/>
      </g>
     </g>
     <g id="text_1">
      <text style="font: 10px 'DejaVu Sans', 'Bitstream Vera Sans', 'Computer Modern Sans Serif', 'Lucida Grande', 'Verdana', 'Geneva', 'Lucid', 'Arial', 'Helvetica', 'Avant Garde', sans-serif; text-anchor: middle" x="98.503878" y="543.906563" transform="rotate(-0 98.503878 543.906563)">96</text>
     </g>
    </g>
    <g id="xtick_2">
     <g id="line2d_3">
      <path d="M 180.137637 529.308125 
L 180.137637 23.837812 
" clip-path="url(#p37f345319f)" style="fill: none; stroke: #b0b0b0; stroke-opacity: 0.3; stroke-width: 0.8; stroke-linecap: square"/>
     </g>
     <g id="line2d_4">
      <g>
       <use xlink:href="#m5d5f9c81d9" x="180.137637" y="529.308125" style="stroke: #000000; stroke-width: 0.8"/>
      </g>
     </g>
     <g id="text_2">
      <text style="font: 10px 'DejaVu Sans', 'Bitstream Vera Sans', 'Computer Modern Sans Serif', 'Lucida Grande', 'Verdana', 'Geneva', 'Lucid', 'Arial', 'Helvetica', 'Avant Garde', sans-serif; text-anchor: middle" x="180.137637" y="543.906563" transform="rotate(-0 180.137637 543.906563)">98</text>
     </g>
    </g>
    <g id="xtick_3">
     <g id="line2d_5">
      <path d="M 261.771397 529.308125 
L 261.771397 23.837812 
" clip-path="url(#p37f345319f)" style="fill: none; stroke: #b0b0b0; stroke-opacity: 0.3; stroke-width: 0.8; stroke-linecap: square"/>
     </g>
     <g id="line2d_6">
      <g>
       <use xlink:href="#m5d5f9c81d9" x="261.771397" y="529.308125" style="stroke: #000000; stroke-width: 0.8"/>
      </g>
     </g>
     <g id="text_3">
      <text style="font: 10px 'DejaVu Sans', 'Bitstream Vera Sans', 'Computer Modern Sans Serif', 'Lucida Grande', 'Verdana', 'Geneva', 'Lucid', 'Arial', 'Helvetica', 'Avant Garde', sans-serif; text-anchor: middle" x="261.771397" y="543.906563" transform="rotate(-0 261.771397 543.906563)">100</text>
     </g>
    </g>
    <g id="xtick_4">
     <g id="line2d_7">
      <path d="M 343.405156 529.308125 
L 343.405156 23.837812 
" clip-path="url(#p37f345319f)" style="fill: none; stroke: #b0b0b0; stroke-opacity: 0.3; stroke-width: 0.8; stroke-linecap: square"/>
     </g>
     <g id="line2d_8">
      <g>
       <use xlink:href="#m5d5f9c81d9" x="343.405156" y="529.308125" style="stroke: #000000; stroke-width: 0.8"/>
      </g>
     </g>
     <g id="text_4">
      <text style="font: 10px 'DejaVu Sans', 'Bitstream Vera Sans', 'Computer Modern Sans Serif', 'Lucida Grande', 'Verdana', 'Geneva', 'Lucid', 'Arial', 'Helvetica', 'Avant Garde', sans-serif; text-anchor: middle" x="343.405156" y="543.906563" transform="rotate(-0 343.405156 543.906563)">102</text>
     </g>
    </g>
    <g id="xtick_5">
     <g id="line2d_9">
      <path d="M 425.038916 529.308125 
L 425.038916 23.837812 
" clip-path="url(#p37f345319f)" style="fill: none; stroke: #b0b0b0; stroke-opacity: 0.3; stroke-width: 0.8; stroke-linecap: square"/>
     </g>
     <g id="line2d_10">
      <g>
       <use xlink:href="#m5d5f9c81d9" x="425.038916" y="529.308125" style="stroke: #000000; stroke-width: 0.8"/>
      </g>
     </g>
     <g id="text_5">
      <text style="font: 10px 'DejaVu Sans', 'Bitstream Vera Sans', 'Computer Modern Sans Serif', 'Lucida Grande', 'Verdana', 'Geneva', 'Lucid', 'Arial', 'Helvetica', 'Avant Garde', sans-serif; text-anchor: middle" x="425.038916" y="543.906563" transform="rotate(-0 425.038916 543.906563)">104</text>
     </g>
    </g>
    <g id="xtick_6">
     <g id="line2d_11">
      <path d="M 506.672675 529.308125 
L 506.672675 23.837812 
" clip-path="url(#p37f345319f)" style="fill: none; stroke: #b0b0b0; stroke-opacity: 0.3; stroke-width: 0.8; stroke-linecap: square"/>
     </g>
     <g id="line2d_12">
      <g>
       <use xlink:href="#m5d5f9c81d9" x="506.672675" y="529.308125" style="stroke: #000000; stroke-width: 0.8"/>
      </g>
     </g>
     <g id="text_6">
      <text style="font: 10px 'DejaVu Sans', 'Bitstream Vera Sans', 'Computer Modern Sans Serif', 'Lucida Grande', 'Verdana', 'Geneva', 'Lucid', 'Arial', 'Helvetica', 'Avant Garde', sans-serif; text-anchor: middle" x="506.672675" y="543.906563" transform="rotate(-0 506.672675 543.906563)">106</text>
     </g>
    </g>
    <g id="xtick_7">
     <g id="line2d_13">
      <path d="M 588.306435 529.308125 
L 588.306435 23.837812 
" clip-path="url(#p37f345319f)" style="fill: none; stroke: #b0b0b0; stroke-opacity: 0.3; stroke-width: 0.8; stroke-linecap: square"/>
     </g>
     <g id="line2d_14">
      <g>
       <use xlink:href="#m5d5f9c81d9" x="588.306435" y="529.308125" style="stroke: #000000; stroke-width: 0.8"/>
      </g>
     </g>
     <g id="text_7">
      <text style="font: 10px 'DejaVu Sans', 'Bitstream Vera Sans', 'Computer Modern Sans Serif', 'Lucida Grande', 'Verdana', 'Geneva', 'Lucid', 'Arial', 'Helvetica', 'Avant Garde', sans-serif; text-anchor: middle" x="588.306435" y="543.906563" transform="rotate(-0 588.306435 543.906563)">108</text>
     </g>
    </g>
    <g id="text_8">
     <text style="font: 12px 'DejaVu Sans', 'Bitstream Vera Sans', 'Computer Modern Sans Serif', 'Lucida Grande', 'Verdana', 'Geneva', 'Lucid', 'Arial', 'Helvetica', 'Avant Garde', sans-serif; text-anchor: middle" x="343.405156" y="559.104375" transform="rotate(-0 343.405156 559.104375)">Build Number</text>
    </g>
   </g>
   <g id="matplotlib.axis_2">
    <g id="ytick_1">
     <g id="line2d_15">
      <defs>
       <path id="maff6058d0a" d="M 0 0 
L -2 0 
" style="stroke: #000000; stroke-width: 0.6"/>
      </defs>
      <g>
       <use xlink:href="#maff6058d0a" x="74.01375" y="443.821" style="stroke: #000000; stroke-width: 0.6"/>
      </g>
     </g>
     <g id="text_9">
      <!-- $\mathdefault{5.2\times10^{5}}$ -->
      <g transform="translate(23.41375 447.620219)">
       <text>
        <tspan style="font: 10px 'DejaVu Sans'" x="0 6.362305 9.041016 17.351562 27.678711 34.041016" y="-0.06406250000000036">5.2×10</tspan>
        <tspan style="font: 7px 'DejaVu Sans'" x="40.499023" y="-3.8921875000000004">5</tspan>
       </text>
      </g>
     </g>
    </g>
    <g id="ytick_2">
     <g id="line2d_16">
      <g>
       <use xlink:href="#maff6058d0a" x="74.01375" y="330.54379" style="stroke: #000000; stroke-width: 0.6"/>
      </g>
     </g>
     <g id="text_10">
      <!-- $\mathdefault{5.4\times10^{5}}$ -->
      <g transform="translate(22.81375 334.343009)">
       <text>
        <tspan style="font: 10px 'DejaVu Sans'" x="0 6.362305 9.541016 17.851562 28.178711 34.541016" y="-0.06406250000000036">5.4×10</tspan>
        <tspan style="font: 7px 'DejaVu Sans'" x="40.999023" y="-3.8921875000000004">5</tspan>
       </text>
      </g>
     </g>
    </g>
    <g id="ytick_3">
     <g id="line2d_17">
      <g>
       <use xlink:href="#maff6058d0a" x="74.01375" y="221.386676" style="stroke: #000000; stroke-width: 0.6"/>
      </g>
     </g>
     <g id="text_11">
      <!-- $\mathdefault{5.6\times10^{5}}$ -->
      <g transform="translate(22.81375 225.185895)">
       <text>
        <tspan style="font: 10px 'DejaVu Sans'" x="0 6.362305 9.541016 17.851562 28.178711 34.541016" y="-0.06406250000000036">5.6×10</tspan>
        <tspan style="font: 7px 'DejaVu Sans'" x="40.999023" y="-3.8921875000000004">5</tspan>
       </text>
      </g>
     </g>
    </g>
    <g id="ytick_4">
     <g id="line2d_18">
      <g>
       <use xlink:href="#maff6058d0a" x="74.01375" y="116.060437" style="stroke: #000000; stroke-width: 0.6"/>
      </g>
     </g>
     <g id="text_12">
      <!-- $\mathdefault{5.8\times10^{5}}$ -->
      <g transform="translate(23.11375 119.859656)">
       <text>
        <tspan style="font: 10px 'DejaVu Sans'" x="0 6.362305 9.291016 17.601562 27.928711 34.291016" y="-0.06406250000000036">5.8×10</tspan>
        <tspan style="font: 7px 'DejaVu Sans'" x="40.749023" y="-3.8921875000000004">5</tspan>
       </text>
      </g>
     </g>
    </g>
    <g id="text_13">
     <text style="font: 12px 'DejaVu Sans', 'Bitstream Vera Sans', 'Computer Modern Sans Serif', 'Lucida Grande', 'Verdana', 'Geneva', 'Lucid', 'Arial', 'Helvetica', 'Avant Garde', sans-serif; text-anchor: middle" x="16.318125" y="276.572969" transform="rotate(-90 16.318125 276.572969)">Median Elapsed Time (nanoseconds)</text>
    </g>
   </g>
   <g id="line2d_19">
    <path d="M 98.503878 98.686651 
L 139.320758 81.433828 
L 220.954517 91.458245 
L 261.771397 125.020307 
L 302.588277 121.420292 
L 343.405156 130.68688 
L 384.222036 46.813736 
L 425.038916 107.946691 
L 465.855795 118.082466 
L 506.672675 99.225908 
L 588.306435 90.937317 
" clip-path="url(#p37f345319f)" style="fill: none; stroke: #1f77b4; stroke-width: 2; stroke-linecap: square"/>
    <defs>
     <path id="mf8e97a6bb4" d="M 0 3 
C 0.795609 3 1.55874 2.683901 2.12132 2.12132 
C 2.683901 1.55874 3 0.795609 3 0 
C 3 -0.795609 2.683901 -1.55874 2.12132 -2.12132 
C 1.55874 -2.683901 0.795609 -3 0 -3 
C -0.795609 -3 -1.55874 -2.683901 -2.12132 -2.12132 
C -2.683901 -1.55874 -3 -0.795609 -3 0 
C -3 0.795609 -2.683901 1.55874 -2.12132 2.12132 
C -1.55874 2.683901 -0.795609 3 0 3 
z
" style="stroke: #1f77b4"/>
    </defs>
    <g clip-path="url(#p37f345319f)">
     <use xlink:href="#mf8e97a6bb4" x="98.503878" y="98.686651" style="fill: #1f77b4; stroke: #1f77b4"/>
     <use xlink:href="#mf8e97a6bb4" x="139.320758" y="81.433828" style="fill: #1f77b4; stroke: #1f77b4"/>
     <use xlink:href="#mf8e97a6bb4" x="220.954517" y="91.458245" style="fill: #1f77b4; stroke: #1f77b4"/>
     <use xlink:href="#mf8e97a6bb4" x="261.771397" y="125.020307" style="fill: #1f77b4; stroke: #1f77b4"/>
     <use xlink:href="#mf8e97a6bb4" x="302.588277" y="121.420292" style="fill: #1f77b4; stroke: #1f77b4"/>
     <use xlink:href="#mf8e97a6bb4" x="343.405156" y="130.68688" style="fill: #1f77b4; stroke: #1f77b4"/>
     <use xlink:href="#mf8e97a6bb4" x="384.222036" y="46.813736" style="fill: #1f77b4; stroke: #1f77b4"/>
     <use xlink:href="#mf8e97a6bb4" x="425.038916" y="107.946691" style="fill: #1f77b4; stroke: #1f77b4"/>
     <use xlink:href="#mf8e97a6bb4" x="465.855795" y="118.082466" style="fill: #1f77b4; stroke: #1f77b4"/>
     <use xlink:href="#mf8e97a6bb4" x="506.672675" y="99.225908" style="fill: #1f77b4; stroke: #1f77b4"/>
     <use xlink:href="#mf8e97a6bb4" x="588.306435" y="90.937317" style="fill: #1f77b4; stroke: #1f77b4"/>
    </g>
   </g>
   <g id="line2d_20">
    <path d="M 98.503878 184.995366 
L 139.320758 151.837891 
L 220.954517 161.89622 
L 261.771397 251.231086 
L 302.588277 195.318107 
L 343.405156 218.937174 
L 384.222036 157.495554 
L 425.038916 174.861573 
L 465.855795 209.779981 
L 506.672675 169.58779 
L 588.306435 136.568936 
" clip-path="url(#p37f345319f)" style="fill: none; stroke: #ff7f0e; stroke-width: 2; stroke-linecap: square"/>
    <defs>
     <path id="m4fecbc0fb0" d="M 0 3 
C 0.795609 3 1.55874 2.683901 2.12132 2.12132 
C 2.683901 1.55874 3 0.795609 3 0 
C 3 -0.795609 2.683901 -1.55874 2.12132 -2.12132 
C 1.55874 -2.683901 0.795609 -3 0 -3 
C -0.795609 -3 -1.55874 -2.683901 -2.12132 -2.12132 
C -2.683901 -1.55874 -3 -0.795609 -3 0 
C -3 0.795609 -2.683901 1.55874 -2.12132 2.12132 
C -1.55874 2.683901 -0.795609 3 0 3 
z
" style="stroke: #ff7f0e"/>
    </defs>
    <g clip-path="url(#p37f345319f)">
     <use xlink:href="#m4fecbc0fb0" x="98.503878" y="184.995366" style="fill: #ff7f0e; stroke: #ff7f0e"/>
     <use xlink:href="#m4fecbc0fb0" x="139.320758" y="151.837891" style="fill: #ff7f0e; stroke: #ff7f0e"/>
     <use xlink:href="#m4fecbc0fb0" x="220.954517" y="161.89622" style="fill: #ff7f0e; stroke: #ff7f0e"/>
     <use xlink:href="#m4fecbc0fb0" x="261.771397" y="251.231086" style="fill: #ff7f0e; stroke: #ff7f0e"/>
     <use xlink:href="#m4fecbc0fb0" x="302.588277" y="195.318107" style="fill: #ff7f0e; stroke: #ff7f0e"/>
     <use xlink:href="#m4fecbc0fb0" x="343.405156" y="218.937174" style="fill: #ff7f0e; stroke: #ff7f0e"/>
     <use xlink:href="#m4fecbc0fb0" x="384.222036" y="157.495554" style="fill: #ff7f0e; stroke: #ff7f0e"/>
     <use xlink:href="#m4fecbc0fb0" x="425.038916" y="174.861573" style="fill: #ff7f0e; stroke: #ff7f0e"/>
     <use xlink:href="#m4fecbc0fb0" x="465.855795" y="209.779981" style="fill: #ff7f0e; stroke: #ff7f0e"/>
     <use xlink:href="#m4fecbc0fb0" x="506.672675" y="169.58779" style="fill: #ff7f0e; stroke: #ff7f0e"/>
     <use xlink:href="#m4fecbc0fb0" x="588.306435" y="136.568936" style="fill: #ff7f0e; stroke: #ff7f0e"/>
    </g>
   </g>
   <g id="line2d_21">
    <path d="M 98.503878 474.521093 
L 139.320758 442.072564 
L 220.954517 453.454486 
L 261.771397 465.700023 
L 302.588277 474.411464 
L 343.405156 415.772515 
L 384.222036 490.302139 
L 425.038916 453.938624 
L 465.855795 468.556215 
L 506.672675 457.740311 
L 588.306435 456.108936 
" clip-path="url(#p37f345319f)" style="fill: none; stroke: #2ca02c; stroke-width: 2; stroke-linecap: square"/>
    <defs>
     <path id="m61e5bf25cb" d="M 0 3 
C 0.795609 3 1.55874 2.683901 2.12132 2.12132 
C 2.683901 1.55874 3 0.795609 3 0 
C 3 -0.795609 2.683901 -1.55874 2.12132 -2.12132 
C 1.55874 -2.683901 0.795609 -3 0 -3 
C -0.795609 -3 -1.55874 -2.683901 -2.12132 -2.12132 
C -2.683901 -1.55874 -3 -0.795609 -3 0 
C -3 0.795609 -2.683901 1.55874 -2.12132 2.12132 
C -1.55874 2.683901 -0.795609 3 0 3 
z
" style="stroke: #2ca02c"/>
    </defs>
    <g clip-path="url(#p37f345319f)">
     <use xlink:href="#m61e5bf25cb" x="98.503878" y="474.521093" style="fill: #2ca02c; stroke: #2ca02c"/>
     <use xlink:href="#m61e5bf25cb" x="139.320758" y="442.072564" style="fill: #2ca02c; stroke: #2ca02c"/>
     <use xlink:href="#m61e5bf25cb" x="220.954517" y="453.454486" style="fill: #2ca02c; stroke: #2ca02c"/>
     <use xlink:href="#m61e5bf25cb" x="261.771397" y="465.700023" style="fill: #2ca02c; stroke: #2ca02c"/>
     <use xlink:href="#m61e5bf25cb" x="302.588277" y="474.411464" style="fill: #2ca02c; stroke: #2ca02c"/>
     <use xlink:href="#m61e5bf25cb" x="343.405156" y="415.772515" style="fill: #2ca02c; stroke: #2ca02c"/>
     <use xlink:href="#m61e5bf25cb" x="384.222036" y="490.302139" style="fill: #2ca02c; stroke: #2ca02c"/>
     <use xlink:href="#m61e5bf25cb" x="425.038916" y="453.938624" style="fill: #2ca02c; stroke: #2ca02c"/>
     <use xlink:href="#m61e5bf25cb" x="465.855795" y="468.556215" style="fill: #2ca02c; stroke: #2ca02c"/>
     <use xlink:href="#m61e5bf25cb" x="506.672675" y="457.740311" style="fill: #2ca02c; stroke: #2ca02c"/>
     <use xlink:href="#m61e5bf25cb" x="588.306435" y="456.108936" style="fill: #2ca02c; stroke: #2ca02c"/>
    </g>
   </g>
   <g id="line2d_22">
    <path d="M 98.503878 479.766386 
L 139.320758 466.538566 
L 220.954517 477.763957 
L 261.771397 445.230299 
L 302.588277 484.722431 
L 343.405156 375.894805 
L 384.222036 506.332202 
L 425.038916 428.037793 
L 465.855795 493.898394 
L 506.672675 473.374268 
L 588.306435 480.690091 
" clip-path="url(#p37f345319f)" style="fill: none; stroke: #d62728; stroke-width: 2; stroke-linecap: square"/>
    <defs>
     <path id="m9b6b8d99c1" d="M 0 3 
C 0.795609 3 1.55874 2.683901 2.12132 2.12132 
C 2.683901 1.55874 3 0.795609 3 0 
C 3 -0.795609 2.683901 -1.55874 2.12132 -2.12132 
C 1.55874 -2.683901 0.795609 -3 0 -3 
C -0.795609 -3 -1.55874 -2.683901 -2.12132 -2.12132 
C -2.683901 -1.55874 -3 -0.795609 -3 0 
C -3 0.795609 -2.683901 1.55874 -2.12132 2.12132 
C -1.55874 2.683901 -0.795609 3 0 3 
z
" style="stroke: #d62728"/>
    </defs>
    <g clip-path="url(#p37f345319f)">
     <use xlink:href="#m9b6b8d99c1" x="98.503878" y="479.766386" style="fill: #d62728; stroke: #d62728"/>
     <use xlink:href="#m9b6b8d99c1" x="139.320758" y="466.538566" style="fill: #d62728; stroke: #d62728"/>
     <use xlink:href="#m9b6b8d99c1" x="220.954517" y="477.763957" style="fill: #d62728; stroke: #d62728"/>
     <use xlink:href="#m9b6b8d99c1" x="261.771397" y="445.230299" style="fill: #d62728; stroke: #d62728"/>
     <use xlink:href="#m9b6b8d99c1" x="302.588277" y="484.722431" style="fill: #d62728; stroke: #d62728"/>
     <use xlink:href="#m9b6b8d99c1" x="343.405156" y="375.894805" style="fill: #d62728; stroke: #d62728"/>
     <use xlink:href="#m9b6b8d99c1" x="384.222036" y="506.332202" style="fill: #d62728; stroke: #d62728"/>
     <use xlink:href="#m9b6b8d99c1" x="425.038916" y="428.037793" style="fill: #d62728; stroke: #d62728"/>
     <use xlink:href="#m9b6b8d99c1" x="465.855795" y="493.898394" style="fill: #d62728; stroke: #d62728"/>
     <use xlink:href="#m9b6b8d99c1" x="506.672675" y="473.374268" style="fill: #d62728; stroke: #d62728"/>
     <use xlink:href="#m9b6b8d99c1" x="588.306435" y="480.690091" style="fill: #d62728; stroke: #d62728"/>
    </g>
   </g>
   <g id="patch_3">
    <path d="M 74.01375 529.308125 
L 74.01375 23.837813 
" style="fill: none; stroke: #000000; stroke-width: 0.8; stroke-linejoin: miter; stroke-linecap: square"/>
   </g>
   <g id="patch_4">
    <path d="M 612.796562 529.308125 
L 612.796562 23.837813 
" style="fill: none; stroke: #000000; stroke-width: 0.8; stroke-linejoin: miter; stroke-linecap: square"/>
   </g>
   <g id="patch_5">
    <path d="M 74.01375 529.308125 
L 612.796563 529.308125 
" style="fill: none; stroke: #000000; stroke-width: 0.8; stroke-linejoin: miter; stroke-linecap: square"/>
   </g>
   <g id="patch_6">
    <path d="M 74.01375 23.837812 
L 612.796563 23.837812 
" style="fill: none; stroke: #000000; stroke-width: 0.8; stroke-linejoin: miter; stroke-linecap: square"/>
   </g>
   <g id="text_14">
    <text style="font: 700 14px 'DejaVu Sans', 'Bitstream Vera Sans', 'Computer Modern Sans Serif', 'Lucida Grande', 'Verdana', 'Geneva', 'Lucid', 'Arial', 'Helvetica', 'Avant Garde', sans-serif; text-anchor: middle" x="343.405156" y="17.837813" transform="rotate(-0 343.405156 17.837813)">Coroutine Creation - Performance Trend</text>
   </g>
   <g id="legend_1">
    <g id="patch_7">
     <path d="M 646.735703 91.662813 
L 841.059141 91.662813 
Q 843.059141 91.662813 843.059141 89.662813 
L 843.059141 30.837813 
Q 843.059141 28.837813 841.059141 28.837813 
L 646.735703 28.837813 
Q 644.735703 28.837813 644.735703 30.837813 
L 644.735703 89.662813 
Q 644.735703 91.662813 646.735703 91.662813 
z
" style="fill: #ffffff; opacity: 0.8; stroke: #cccccc; stroke-linejoin: miter"/>
    </g>
    <g id="line2d_23">
     <path d="M 648.735703 36.93625 
L 658.735703 36.93625 
L 668.735703 36.93625 
" style="fill: none; stroke: #1f77b4; stroke-width: 2; stroke-linecap: square"/>
     <g>
      <use xlink:href="#mf8e97a6bb4" x="658.735703" y="36.93625" style="fill: #1f77b4; stroke: #1f77b4"/>
     </g>
    </g>
    <g id="text_15">
     <text style="font: 10px 'DejaVu Sans', 'Bitstream Vera Sans', 'Computer Modern Sans Serif', 'Lucida Grande', 'Verdana', 'Geneva', 'Lucid', 'Arial', 'Helvetica', 'Avant Garde', sans-serif; text-anchor: start" x="676.735703" y="40.43625" transform="rotate(-0 676.735703 40.43625)">gcc-14.2 - CoroutineCreation_V1</text>
    </g>
    <g id="line2d_24">
     <path d="M 648.735703 51.8925 
L 658.735703 51.8925 
L 668.735703 51.8925 
" style="fill: none; stroke: #ff7f0e; stroke-width: 2; stroke-linecap: square"/>
     <g>
      <use xlink:href="#m4fecbc0fb0" x="658.735703" y="51.8925" style="fill: #ff7f0e; stroke: #ff7f0e"/>
     </g>
    </g>
    <g id="text_16">
     <text style="font: 10px 'DejaVu Sans', 'Bitstream Vera Sans', 'Computer Modern Sans Serif', 'Lucida Grande', 'Verdana', 'Geneva', 'Lucid', 'Arial', 'Helvetica', 'Avant Garde', sans-serif; text-anchor: start" x="676.735703" y="55.3925" transform="rotate(-0 676.735703 55.3925)">gcc-14.2 - CoroutineCreation_V2</text>
    </g>
    <g id="line2d_25">
     <path d="M 648.735703 66.84875 
L 658.735703 66.84875 
L 668.735703 66.84875 
" style="fill: none; stroke: #2ca02c; stroke-width: 2; stroke-linecap: square"/>
     <g>
      <use xlink:href="#m61e5bf25cb" x="658.735703" y="66.84875" style="fill: #2ca02c; stroke: #2ca02c"/>
     </g>
    </g>
    <g id="text_17">
     <text style="font: 10px 'DejaVu Sans', 'Bitstream Vera Sans', 'Computer Modern Sans Serif', 'Lucida Grande', 'Verdana', 'Geneva', 'Lucid', 'Arial', 'Helvetica', 'Avant Garde', sans-serif; text-anchor: start" x="676.735703" y="70.34875" transform="rotate(-0 676.735703 70.34875)">gcc-4.2 - CoroutineCreation_V1</text>
    </g>
    <g id="line2d_26">
     <path d="M 648.735703 81.805 
L 658.735703 81.805 
L 668.735703 81.805 
" style="fill: none; stroke: #d62728; stroke-width: 2; stroke-linecap: square"/>
     <g>
      <use xlink:href="#m9b6b8d99c1" x="658.735703" y="81.805" style="fill: #d62728; stroke: #d62728"/>
     </g>
    </g>
    <g id="text_18">
     <text style="font: 10px 'DejaVu Sans', 'Bitstream Vera Sans', 'Computer Modern Sans Serif', 'Lucida Grande', 'Verdana', 'Geneva', 'Lucid', 'Arial', 'Helvetica', 'Avant Garde', sans-serif; text-anchor: start" x="676.735703" y="85.305" transform="rotate(-0 676.735703 85.305)">gcc-4.2 - CoroutineCreation_V2</text>
    </g>
   </g>
  </g>
 </g>
 <defs>
  <clipPath id="p37f345319f">
   <rect x="74.01375" y="23.837813" width="538.782812" height="505.470313"/>
  </clipPath>
 </defs>
</svg>
