<?xml version="1.0" encoding="utf-8" standalone="no"?>
<!DOCTYPE svg PUBLIC "-//W3C//DTD SVG 1.1//EN"
  "http://www.w3.org/Graphics/SVG/1.1/DTD/svg11.dtd">
<svg xmlns:xlink="http://www.w3.org/1999/xlink" width="855.204687pt" height="568.8pt" viewBox="0 0 855.204687 568.8" xmlns="http://www.w3.org/2000/svg" version="1.1">
 <metadata>
  <rdf:RDF xmlns:dc="http://purl.org/dc/elements/1.1/" xmlns:cc="http://creativecommons.org/ns#" xmlns:rdf="http://www.w3.org/1999/02/22-rdf-syntax-ns#">
   <cc:Work>
    <dc:type rdf:resource="http://purl.org/dc/dcmitype/StillImage"/>
    <dc:date>2025-08-28T15:03:28.387869</dc:date>
    <dc:format>image/svg+xml</dc:format>
    <dc:creator>
     <cc:Agent>
      <dc:title>Matplotlib v3.9.4, https://matplotlib.org/</dc:title>
     </cc:Agent>
    </dc:creator>
   </cc:Work>
  </rdf:RDF>
 </metadata>
 <defs>
  <style type="text/css">*{stroke-linejoin: round; stroke-linecap: butt}</style>
 </defs>
 <g id="figure_1">
  <g id="patch_1">
   <path d="M 0 568.8 
L 855.204687 568.8 
L 855.204687 0 
L 0 0 
z
" style="fill: #ffffff"/>
  </g>
  <g id="axes_1">
   <g id="patch_2">
    <path d="M 64.41375 529.308125 
L 702.1075 529.308125 
L 702.1075 23.837812 
L 64.41375 23.837812 
z
" style="fill: #ffffff"/>
   </g>
   <g id="matplotlib.axis_1">
    <g id="xtick_1">
     <g id="line2d_1">
      <path d="M 77.731678 529.308125 
L 77.731678 23.837812 
" clip-path="url(#p868c5a64df)" style="fill: none; stroke: #b0b0b0; stroke-opacity: 0.3; stroke-width: 0.8; stroke-linecap: square"/>
     </g>
     <g id="line2d_2">
      <defs>
       <path id="m9245d9882d" d="M 0 0 
L 0 3.5 
" style="stroke: #000000; stroke-width: 0.8"/>
      </defs>
      <g>
       <use xlink:href="#m9245d9882d" x="77.731678" y="529.308125" style="stroke: #000000; stroke-width: 0.8"/>
      </g>
     </g>
     <g id="text_1">
      <text style="font: 10px 'DejaVu Sans', 'Bitstream Vera Sans', 'Computer Modern Sans Serif', 'Lucida Grande', 'Verdana', 'Geneva', 'Lucid', 'Arial', 'Helvetica', 'Avant Garde', sans-serif; text-anchor: middle" x="77.731678" y="543.906563" transform="rotate(-0 77.731678 543.906563)">70</text>
     </g>
    </g>
    <g id="xtick_2">
     <g id="line2d_3">
      <path d="M 156.072434 529.308125 
L 156.072434 23.837812 
" clip-path="url(#p868c5a64df)" style="fill: none; stroke: #b0b0b0; stroke-opacity: 0.3; stroke-width: 0.8; stroke-linecap: square"/>
     </g>
     <g id="line2d_4">
      <g>
       <use xlink:href="#m9245d9882d" x="156.072434" y="529.308125" style="stroke: #000000; stroke-width: 0.8"/>
      </g>
     </g>
     <g id="text_2">
      <text style="font: 10px 'DejaVu Sans', 'Bitstream Vera Sans', 'Computer Modern Sans Serif', 'Lucida Grande', 'Verdana', 'Geneva', 'Lucid', 'Arial', 'Helvetica', 'Avant Garde', sans-serif; text-anchor: middle" x="156.072434" y="543.906563" transform="rotate(-0 156.072434 543.906563)">75</text>
     </g>
    </g>
    <g id="xtick_3">
     <g id="line2d_5">
      <path d="M 234.413189 529.308125 
L 234.413189 23.837812 
" clip-path="url(#p868c5a64df)" style="fill: none; stroke: #b0b0b0; stroke-opacity: 0.3; stroke-width: 0.8; stroke-linecap: square"/>
     </g>
     <g id="line2d_6">
      <g>
       <use xlink:href="#m9245d9882d" x="234.413189" y="529.308125" style="stroke: #000000; stroke-width: 0.8"/>
      </g>
     </g>
     <g id="text_3">
      <text style="font: 10px 'DejaVu Sans', 'Bitstream Vera Sans', 'Computer Modern Sans Serif', 'Lucida Grande', 'Verdana', 'Geneva', 'Lucid', 'Arial', 'Helvetica', 'Avant Garde', sans-serif; text-anchor: middle" x="234.413189" y="543.906563" transform="rotate(-0 234.413189 543.906563)">80</text>
     </g>
    </g>
    <g id="xtick_4">
     <g id="line2d_7">
      <path d="M 312.753945 529.308125 
L 312.753945 23.837812 
" clip-path="url(#p868c5a64df)" style="fill: none; stroke: #b0b0b0; stroke-opacity: 0.3; stroke-width: 0.8; stroke-linecap: square"/>
     </g>
     <g id="line2d_8">
      <g>
       <use xlink:href="#m9245d9882d" x="312.753945" y="529.308125" style="stroke: #000000; stroke-width: 0.8"/>
      </g>
     </g>
     <g id="text_4">
      <text style="font: 10px 'DejaVu Sans', 'Bitstream Vera Sans', 'Computer Modern Sans Serif', 'Lucida Grande', 'Verdana', 'Geneva', 'Lucid', 'Arial', 'Helvetica', 'Avant Garde', sans-serif; text-anchor: middle" x="312.753945" y="543.906563" transform="rotate(-0 312.753945 543.906563)">85</text>
     </g>
    </g>
    <g id="xtick_5">
     <g id="line2d_9">
      <path d="M 391.094701 529.308125 
L 391.094701 23.837812 
" clip-path="url(#p868c5a64df)" style="fill: none; stroke: #b0b0b0; stroke-opacity: 0.3; stroke-width: 0.8; stroke-linecap: square"/>
     </g>
     <g id="line2d_10">
      <g>
       <use xlink:href="#m9245d9882d" x="391.094701" y="529.308125" style="stroke: #000000; stroke-width: 0.8"/>
      </g>
     </g>
     <g id="text_5">
      <text style="font: 10px 'DejaVu Sans', 'Bitstream Vera Sans', 'Computer Modern Sans Serif', 'Lucida Grande', 'Verdana', 'Geneva', 'Lucid', 'Arial', 'Helvetica', 'Avant Garde', sans-serif; text-anchor: middle" x="391.094701" y="543.906563" transform="rotate(-0 391.094701 543.906563)">90</text>
     </g>
    </g>
    <g id="xtick_6">
     <g id="line2d_11">
      <path d="M 469.435456 529.308125 
L 469.435456 23.837812 
" clip-path="url(#p868c5a64df)" style="fill: none; stroke: #b0b0b0; stroke-opacity: 0.3; stroke-width: 0.8; stroke-linecap: square"/>
     </g>
     <g id="line2d_12">
      <g>
       <use xlink:href="#m9245d9882d" x="469.435456" y="529.308125" style="stroke: #000000; stroke-width: 0.8"/>
      </g>
     </g>
     <g id="text_6">
      <text style="font: 10px 'DejaVu Sans', 'Bitstream Vera Sans', 'Computer Modern Sans Serif', 'Lucida Grande', 'Verdana', 'Geneva', 'Lucid', 'Arial', 'Helvetica', 'Avant Garde', sans-serif; text-anchor: middle" x="469.435456" y="543.906563" transform="rotate(-0 469.435456 543.906563)">95</text>
     </g>
    </g>
    <g id="xtick_7">
     <g id="line2d_13">
      <path d="M 547.776212 529.308125 
L 547.776212 23.837812 
" clip-path="url(#p868c5a64df)" style="fill: none; stroke: #b0b0b0; stroke-opacity: 0.3; stroke-width: 0.8; stroke-linecap: square"/>
     </g>
     <g id="line2d_14">
      <g>
       <use xlink:href="#m9245d9882d" x="547.776212" y="529.308125" style="stroke: #000000; stroke-width: 0.8"/>
      </g>
     </g>
     <g id="text_7">
      <text style="font: 10px 'DejaVu Sans', 'Bitstream Vera Sans', 'Computer Modern Sans Serif', 'Lucida Grande', 'Verdana', 'Geneva', 'Lucid', 'Arial', 'Helvetica', 'Avant Garde', sans-serif; text-anchor: middle" x="547.776212" y="543.906563" transform="rotate(-0 547.776212 543.906563)">100</text>
     </g>
    </g>
    <g id="xtick_8">
     <g id="line2d_15">
      <path d="M 626.116967 529.308125 
L 626.116967 23.837812 
" clip-path="url(#p868c5a64df)" style="fill: none; stroke: #b0b0b0; stroke-opacity: 0.3; stroke-width: 0.8; stroke-linecap: square"/>
     </g>
     <g id="line2d_16">
      <g>
       <use xlink:href="#m9245d9882d" x="626.116967" y="529.308125" style="stroke: #000000; stroke-width: 0.8"/>
      </g>
     </g>
     <g id="text_8">
      <text style="font: 10px 'DejaVu Sans', 'Bitstream Vera Sans', 'Computer Modern Sans Serif', 'Lucida Grande', 'Verdana', 'Geneva', 'Lucid', 'Arial', 'Helvetica', 'Avant Garde', sans-serif; text-anchor: middle" x="626.116967" y="543.906563" transform="rotate(-0 626.116967 543.906563)">105</text>
     </g>
    </g>
    <g id="text_9">
     <text style="font: 12px 'DejaVu Sans', 'Bitstream Vera Sans', 'Computer Modern Sans Serif', 'Lucida Grande', 'Verdana', 'Geneva', 'Lucid', 'Arial', 'Helvetica', 'Avant Garde', sans-serif; text-anchor: middle" x="383.260625" y="559.104375" transform="rotate(-0 383.260625 559.104375)">Build Number</text>
    </g>
   </g>
   <g id="matplotlib.axis_2">
    <g id="ytick_1">
     <g id="line2d_17">
      <path d="M 64.41375 472.948128 
L 702.1075 472.948128 
" clip-path="url(#p868c5a64df)" style="fill: none; stroke: #b0b0b0; stroke-opacity: 0.3; stroke-width: 0.8; stroke-linecap: square"/>
     </g>
     <g id="line2d_18">
      <defs>
       <path id="ma464a41f93" d="M 0 0 
L -3.5 0 
" style="stroke: #000000; stroke-width: 0.8"/>
      </defs>
      <g>
       <use xlink:href="#ma464a41f93" x="64.41375" y="472.948128" style="stroke: #000000; stroke-width: 0.8"/>
      </g>
     </g>
     <g id="text_10">
      <!-- $\mathdefault{10^{5}}$ -->
      <g transform="translate(39.81375 476.747347)">
       <text>
        <tspan style="font: 10px 'DejaVu Sans'" x="0 6.362305" y="-0.06406250000000036">10</tspan>
        <tspan style="font: 7px 'DejaVu Sans'" x="12.820312" y="-3.8921875000000004">5</tspan>
       </text>
      </g>
     </g>
    </g>
    <g id="ytick_2">
     <g id="line2d_19">
      <defs>
       <path id="m8532fd4cf6" d="M 0 0 
L -2 0 
" style="stroke: #000000; stroke-width: 0.6"/>
      </defs>
      <g>
       <use xlink:href="#m8532fd4cf6" x="64.41375" y="527.519431" style="stroke: #000000; stroke-width: 0.6"/>
      </g>
     </g>
    </g>
    <g id="ytick_3">
     <g id="line2d_20">
      <g>
       <use xlink:href="#m8532fd4cf6" x="64.41375" y="498.714773" style="stroke: #000000; stroke-width: 0.6"/>
      </g>
     </g>
    </g>
    <g id="ytick_4">
     <g id="line2d_21">
      <g>
       <use xlink:href="#m8532fd4cf6" x="64.41375" y="303.43418" style="stroke: #000000; stroke-width: 0.6"/>
      </g>
     </g>
     <g id="text_11">
      <!-- $\mathdefault{2\times10^{5}}$ -->
      <g transform="translate(22.81375 307.233399)">
       <text>
        <tspan style="font: 10px 'DejaVu Sans'" x="0 8.310547 18.637695 25" y="-0.06406250000000036">2×10</tspan>
        <tspan style="font: 7px 'DejaVu Sans'" x="31.458008" y="-3.8921875000000004">5</tspan>
       </text>
      </g>
     </g>
    </g>
    <g id="ytick_5">
     <g id="line2d_22">
      <g>
       <use xlink:href="#m8532fd4cf6" x="64.41375" y="204.274877" style="stroke: #000000; stroke-width: 0.6"/>
      </g>
     </g>
     <g id="text_12">
      <!-- $\mathdefault{3\times10^{5}}$ -->
      <g transform="translate(22.81375 208.074095)">
       <text>
        <tspan style="font: 10px 'DejaVu Sans'" x="0 8.310547 18.637695 25" y="-0.06406250000000036">3×10</tspan>
        <tspan style="font: 7px 'DejaVu Sans'" x="31.458008" y="-3.8921875000000004">5</tspan>
       </text>
      </g>
     </g>
    </g>
    <g id="ytick_6">
     <g id="line2d_23">
      <g>
       <use xlink:href="#m8532fd4cf6" x="64.41375" y="133.920231" style="stroke: #000000; stroke-width: 0.6"/>
      </g>
     </g>
     <g id="text_13">
      <!-- $\mathdefault{4\times10^{5}}$ -->
      <g transform="translate(22.81375 137.71945)">
       <text>
        <tspan style="font: 10px 'DejaVu Sans'" x="0 8.310547 18.637695 25" y="-0.06406250000000036">4×10</tspan>
        <tspan style="font: 7px 'DejaVu Sans'" x="31.458008" y="-3.8921875000000004">5</tspan>
       </text>
      </g>
     </g>
    </g>
    <g id="ytick_7">
     <g id="line2d_24">
      <g>
       <use xlink:href="#m8532fd4cf6" x="64.41375" y="79.348929" style="stroke: #000000; stroke-width: 0.6"/>
      </g>
     </g>
    </g>
    <g id="ytick_8">
     <g id="line2d_25">
      <g>
       <use xlink:href="#m8532fd4cf6" x="64.41375" y="34.760928" style="stroke: #000000; stroke-width: 0.6"/>
      </g>
     </g>
     <g id="text_14">
      <!-- $\mathdefault{6\times10^{5}}$ -->
      <g transform="translate(22.81375 38.560147)">
       <text>
        <tspan style="font: 10px 'DejaVu Sans'" x="0 8.310547 18.637695 25" y="-0.06406250000000036">6×10</tspan>
        <tspan style="font: 7px 'DejaVu Sans'" x="31.458008" y="-3.8921875000000004">5</tspan>
       </text>
      </g>
     </g>
    </g>
    <g id="text_15">
     <text style="font: 12px 'DejaVu Sans', 'Bitstream Vera Sans', 'Computer Modern Sans Serif', 'Lucida Grande', 'Verdana', 'Geneva', 'Lucid', 'Arial', 'Helvetica', 'Avant Garde', sans-serif; text-anchor: middle" x="16.318125" y="276.572969" transform="rotate(-90 16.318125 276.572969)">Median Elapsed Time (nanoseconds)</text>
    </g>
   </g>
   <g id="line2d_26">
    <path d="M 93.39983 275.826973 
L 109.067981 280.652892 
L 124.736132 279.043313 
L 140.404283 281.144 
L 156.072434 233.57992 
L 171.740585 147.528372 
L 187.408736 281.11431 
L 203.076887 280.289323 
L 218.745038 108.324965 
L 234.413189 280.961113 
L 250.081341 280.99112 
L 265.749492 281.336743 
L 281.417643 109.155084 
L 297.085794 280.143979 
L 312.753945 280.825404 
L 328.422096 281.066432 
L 359.758398 281.226283 
L 375.426549 109.237256 
L 391.094701 280.489185 
L 406.762852 157.947213 
L 422.431003 280.097959 
L 438.099154 276.834576 
L 453.767305 281.079601 
L 469.435456 281.009416 
L 485.103607 281.103818 
L 500.771758 102.906902 
L 532.108061 280.77123 
L 547.776212 280.65991 
L 563.444363 281.308258 
L 579.112514 280.979072 
L 594.780665 281.204509 
L 610.448816 281.069111 
L 626.116967 281.108617 
L 641.785118 260.363461 
L 673.12142 46.813736 
" clip-path="url(#p868c5a64df)" style="fill: none; stroke: #1f77b4; stroke-width: 2; stroke-linecap: square"/>
    <defs>
     <path id="m4303b2609d" d="M 0 3 
C 0.795609 3 1.55874 2.683901 2.12132 2.12132 
C 2.683901 1.55874 3 0.795609 3 0 
C 3 -0.795609 2.683901 -1.55874 2.12132 -2.12132 
C 1.55874 -2.683901 0.795609 -3 0 -3 
C -0.795609 -3 -1.55874 -2.683901 -2.12132 -2.12132 
C -2.683901 -1.55874 -3 -0.795609 -3 0 
C -3 0.795609 -2.683901 1.55874 -2.12132 2.12132 
C -1.55874 2.683901 -0.795609 3 0 3 
z
" style="stroke: #1f77b4"/>
    </defs>
    <g clip-path="url(#p868c5a64df)">
     <use xlink:href="#m4303b2609d" x="93.39983" y="275.826973" style="fill: #1f77b4; stroke: #1f77b4"/>
     <use xlink:href="#m4303b2609d" x="109.067981" y="280.652892" style="fill: #1f77b4; stroke: #1f77b4"/>
     <use xlink:href="#m4303b2609d" x="124.736132" y="279.043313" style="fill: #1f77b4; stroke: #1f77b4"/>
     <use xlink:href="#m4303b2609d" x="140.404283" y="281.144" style="fill: #1f77b4; stroke: #1f77b4"/>
     <use xlink:href="#m4303b2609d" x="156.072434" y="233.57992" style="fill: #1f77b4; stroke: #1f77b4"/>
     <use xlink:href="#m4303b2609d" x="171.740585" y="147.528372" style="fill: #1f77b4; stroke: #1f77b4"/>
     <use xlink:href="#m4303b2609d" x="187.408736" y="281.11431" style="fill: #1f77b4; stroke: #1f77b4"/>
     <use xlink:href="#m4303b2609d" x="203.076887" y="280.289323" style="fill: #1f77b4; stroke: #1f77b4"/>
     <use xlink:href="#m4303b2609d" x="218.745038" y="108.324965" style="fill: #1f77b4; stroke: #1f77b4"/>
     <use xlink:href="#m4303b2609d" x="234.413189" y="280.961113" style="fill: #1f77b4; stroke: #1f77b4"/>
     <use xlink:href="#m4303b2609d" x="250.081341" y="280.99112" style="fill: #1f77b4; stroke: #1f77b4"/>
     <use xlink:href="#m4303b2609d" x="265.749492" y="281.336743" style="fill: #1f77b4; stroke: #1f77b4"/>
     <use xlink:href="#m4303b2609d" x="281.417643" y="109.155084" style="fill: #1f77b4; stroke: #1f77b4"/>
     <use xlink:href="#m4303b2609d" x="297.085794" y="280.143979" style="fill: #1f77b4; stroke: #1f77b4"/>
     <use xlink:href="#m4303b2609d" x="312.753945" y="280.825404" style="fill: #1f77b4; stroke: #1f77b4"/>
     <use xlink:href="#m4303b2609d" x="328.422096" y="281.066432" style="fill: #1f77b4; stroke: #1f77b4"/>
     <use xlink:href="#m4303b2609d" x="359.758398" y="281.226283" style="fill: #1f77b4; stroke: #1f77b4"/>
     <use xlink:href="#m4303b2609d" x="375.426549" y="109.237256" style="fill: #1f77b4; stroke: #1f77b4"/>
     <use xlink:href="#m4303b2609d" x="391.094701" y="280.489185" style="fill: #1f77b4; stroke: #1f77b4"/>
     <use xlink:href="#m4303b2609d" x="406.762852" y="157.947213" style="fill: #1f77b4; stroke: #1f77b4"/>
     <use xlink:href="#m4303b2609d" x="422.431003" y="280.097959" style="fill: #1f77b4; stroke: #1f77b4"/>
     <use xlink:href="#m4303b2609d" x="438.099154" y="276.834576" style="fill: #1f77b4; stroke: #1f77b4"/>
     <use xlink:href="#m4303b2609d" x="453.767305" y="281.079601" style="fill: #1f77b4; stroke: #1f77b4"/>
     <use xlink:href="#m4303b2609d" x="469.435456" y="281.009416" style="fill: #1f77b4; stroke: #1f77b4"/>
     <use xlink:href="#m4303b2609d" x="485.103607" y="281.103818" style="fill: #1f77b4; stroke: #1f77b4"/>
     <use xlink:href="#m4303b2609d" x="500.771758" y="102.906902" style="fill: #1f77b4; stroke: #1f77b4"/>
     <use xlink:href="#m4303b2609d" x="532.108061" y="280.77123" style="fill: #1f77b4; stroke: #1f77b4"/>
     <use xlink:href="#m4303b2609d" x="547.776212" y="280.65991" style="fill: #1f77b4; stroke: #1f77b4"/>
     <use xlink:href="#m4303b2609d" x="563.444363" y="281.308258" style="fill: #1f77b4; stroke: #1f77b4"/>
     <use xlink:href="#m4303b2609d" x="579.112514" y="280.979072" style="fill: #1f77b4; stroke: #1f77b4"/>
     <use xlink:href="#m4303b2609d" x="594.780665" y="281.204509" style="fill: #1f77b4; stroke: #1f77b4"/>
     <use xlink:href="#m4303b2609d" x="610.448816" y="281.069111" style="fill: #1f77b4; stroke: #1f77b4"/>
     <use xlink:href="#m4303b2609d" x="626.116967" y="281.108617" style="fill: #1f77b4; stroke: #1f77b4"/>
     <use xlink:href="#m4303b2609d" x="641.785118" y="260.363461" style="fill: #1f77b4; stroke: #1f77b4"/>
     <use xlink:href="#m4303b2609d" x="673.12142" y="46.813736" style="fill: #1f77b4; stroke: #1f77b4"/>
    </g>
   </g>
   <g id="line2d_27">
    <path d="M 93.39983 275.667338 
L 109.067981 274.226607 
L 124.736132 272.248622 
L 140.404283 270.478249 
L 156.072434 242.282551 
L 171.740585 271.769237 
L 187.408736 272.310952 
L 203.076887 273.71312 
L 218.745038 179.269891 
L 234.413189 267.597492 
L 250.081341 270.456023 
L 265.749492 270.015545 
L 281.417643 227.663437 
L 297.085794 267.655268 
L 312.753945 271.59956 
L 328.422096 271.325211 
L 359.758398 270.938512 
L 375.426549 228.831247 
L 391.094701 272.713957 
L 406.762852 228.355376 
L 422.431003 273.654544 
L 438.099154 266.610438 
L 453.767305 271.885287 
L 469.435456 268.975154 
L 485.103607 264.188577 
L 500.771758 190.606055 
L 532.108061 264.411245 
L 547.776212 262.857327 
L 563.444363 265.049844 
L 579.112514 264.293582 
L 594.780665 263.236634 
L 610.448816 265.036152 
L 626.116967 264.370489 
L 641.785118 248.352872 
L 673.12142 174.731505 
" clip-path="url(#p868c5a64df)" style="fill: none; stroke: #ff7f0e; stroke-width: 2; stroke-linecap: square"/>
    <defs>
     <path id="m29a04fc455" d="M 0 3 
C 0.795609 3 1.55874 2.683901 2.12132 2.12132 
C 2.683901 1.55874 3 0.795609 3 0 
C 3 -0.795609 2.683901 -1.55874 2.12132 -2.12132 
C 1.55874 -2.683901 0.795609 -3 0 -3 
C -0.795609 -3 -1.55874 -2.683901 -2.12132 -2.12132 
C -2.683901 -1.55874 -3 -0.795609 -3 0 
C -3 0.795609 -2.683901 1.55874 -2.12132 2.12132 
C -1.55874 2.683901 -0.795609 3 0 3 
z
" style="stroke: #ff7f0e"/>
    </defs>
    <g clip-path="url(#p868c5a64df)">
     <use xlink:href="#m29a04fc455" x="93.39983" y="275.667338" style="fill: #ff7f0e; stroke: #ff7f0e"/>
     <use xlink:href="#m29a04fc455" x="109.067981" y="274.226607" style="fill: #ff7f0e; stroke: #ff7f0e"/>
     <use xlink:href="#m29a04fc455" x="124.736132" y="272.248622" style="fill: #ff7f0e; stroke: #ff7f0e"/>
     <use xlink:href="#m29a04fc455" x="140.404283" y="270.478249" style="fill: #ff7f0e; stroke: #ff7f0e"/>
     <use xlink:href="#m29a04fc455" x="156.072434" y="242.282551" style="fill: #ff7f0e; stroke: #ff7f0e"/>
     <use xlink:href="#m29a04fc455" x="171.740585" y="271.769237" style="fill: #ff7f0e; stroke: #ff7f0e"/>
     <use xlink:href="#m29a04fc455" x="187.408736" y="272.310952" style="fill: #ff7f0e; stroke: #ff7f0e"/>
     <use xlink:href="#m29a04fc455" x="203.076887" y="273.71312" style="fill: #ff7f0e; stroke: #ff7f0e"/>
     <use xlink:href="#m29a04fc455" x="218.745038" y="179.269891" style="fill: #ff7f0e; stroke: #ff7f0e"/>
     <use xlink:href="#m29a04fc455" x="234.413189" y="267.597492" style="fill: #ff7f0e; stroke: #ff7f0e"/>
     <use xlink:href="#m29a04fc455" x="250.081341" y="270.456023" style="fill: #ff7f0e; stroke: #ff7f0e"/>
     <use xlink:href="#m29a04fc455" x="265.749492" y="270.015545" style="fill: #ff7f0e; stroke: #ff7f0e"/>
     <use xlink:href="#m29a04fc455" x="281.417643" y="227.663437" style="fill: #ff7f0e; stroke: #ff7f0e"/>
     <use xlink:href="#m29a04fc455" x="297.085794" y="267.655268" style="fill: #ff7f0e; stroke: #ff7f0e"/>
     <use xlink:href="#m29a04fc455" x="312.753945" y="271.59956" style="fill: #ff7f0e; stroke: #ff7f0e"/>
     <use xlink:href="#m29a04fc455" x="328.422096" y="271.325211" style="fill: #ff7f0e; stroke: #ff7f0e"/>
     <use xlink:href="#m29a04fc455" x="359.758398" y="270.938512" style="fill: #ff7f0e; stroke: #ff7f0e"/>
     <use xlink:href="#m29a04fc455" x="375.426549" y="228.831247" style="fill: #ff7f0e; stroke: #ff7f0e"/>
     <use xlink:href="#m29a04fc455" x="391.094701" y="272.713957" style="fill: #ff7f0e; stroke: #ff7f0e"/>
     <use xlink:href="#m29a04fc455" x="406.762852" y="228.355376" style="fill: #ff7f0e; stroke: #ff7f0e"/>
     <use xlink:href="#m29a04fc455" x="422.431003" y="273.654544" style="fill: #ff7f0e; stroke: #ff7f0e"/>
     <use xlink:href="#m29a04fc455" x="438.099154" y="266.610438" style="fill: #ff7f0e; stroke: #ff7f0e"/>
     <use xlink:href="#m29a04fc455" x="453.767305" y="271.885287" style="fill: #ff7f0e; stroke: #ff7f0e"/>
     <use xlink:href="#m29a04fc455" x="469.435456" y="268.975154" style="fill: #ff7f0e; stroke: #ff7f0e"/>
     <use xlink:href="#m29a04fc455" x="485.103607" y="264.188577" style="fill: #ff7f0e; stroke: #ff7f0e"/>
     <use xlink:href="#m29a04fc455" x="500.771758" y="190.606055" style="fill: #ff7f0e; stroke: #ff7f0e"/>
     <use xlink:href="#m29a04fc455" x="532.108061" y="264.411245" style="fill: #ff7f0e; stroke: #ff7f0e"/>
     <use xlink:href="#m29a04fc455" x="547.776212" y="262.857327" style="fill: #ff7f0e; stroke: #ff7f0e"/>
     <use xlink:href="#m29a04fc455" x="563.444363" y="265.049844" style="fill: #ff7f0e; stroke: #ff7f0e"/>
     <use xlink:href="#m29a04fc455" x="579.112514" y="264.293582" style="fill: #ff7f0e; stroke: #ff7f0e"/>
     <use xlink:href="#m29a04fc455" x="594.780665" y="263.236634" style="fill: #ff7f0e; stroke: #ff7f0e"/>
     <use xlink:href="#m29a04fc455" x="610.448816" y="265.036152" style="fill: #ff7f0e; stroke: #ff7f0e"/>
     <use xlink:href="#m29a04fc455" x="626.116967" y="264.370489" style="fill: #ff7f0e; stroke: #ff7f0e"/>
     <use xlink:href="#m29a04fc455" x="641.785118" y="248.352872" style="fill: #ff7f0e; stroke: #ff7f0e"/>
     <use xlink:href="#m29a04fc455" x="673.12142" y="174.731505" style="fill: #ff7f0e; stroke: #ff7f0e"/>
    </g>
   </g>
   <g id="line2d_28">
    <path d="M 93.39983 275.451962 
L 109.067981 258.130167 
L 124.736132 238.385514 
L 140.404283 275.852534 
L 156.072434 223.96513 
L 171.740585 276.346236 
L 187.408736 275.843139 
L 203.076887 276.113749 
L 218.745038 234.99009 
L 234.413189 275.487736 
L 250.081341 276.144042 
L 265.749492 275.954801 
L 281.417643 241.130277 
L 297.085794 273.496645 
L 312.753945 275.274262 
L 328.422096 276.510916 
L 359.758398 276.389038 
L 375.426549 246.482343 
L 391.094701 276.212515 
L 406.762852 220.191991 
L 422.431003 276.153338 
L 438.099154 241.158996 
L 453.767305 275.75555 
L 469.435456 262.235579 
L 485.103607 275.005994 
L 500.771758 217.47246 
L 532.108061 276.067497 
L 547.776212 245.822545 
L 563.444363 275.072299 
L 579.112514 276.015132 
L 594.780665 259.864123 
L 610.448816 275.934693 
L 626.116967 276.236256 
L 641.785118 240.840901 
L 673.12142 240.338646 
" clip-path="url(#p868c5a64df)" style="fill: none; stroke: #2ca02c; stroke-width: 2; stroke-linecap: square"/>
    <defs>
     <path id="mbc44da77da" d="M 0 3 
C 0.795609 3 1.55874 2.683901 2.12132 2.12132 
C 2.683901 1.55874 3 0.795609 3 0 
C 3 -0.795609 2.683901 -1.55874 2.12132 -2.12132 
C 1.55874 -2.683901 0.795609 -3 0 -3 
C -0.795609 -3 -1.55874 -2.683901 -2.12132 -2.12132 
C -2.683901 -1.55874 -3 -0.795609 -3 0 
C -3 0.795609 -2.683901 1.55874 -2.12132 2.12132 
C -1.55874 2.683901 -0.795609 3 0 3 
z
" style="stroke: #2ca02c"/>
    </defs>
    <g clip-path="url(#p868c5a64df)">
     <use xlink:href="#mbc44da77da" x="93.39983" y="275.451962" style="fill: #2ca02c; stroke: #2ca02c"/>
     <use xlink:href="#mbc44da77da" x="109.067981" y="258.130167" style="fill: #2ca02c; stroke: #2ca02c"/>
     <use xlink:href="#mbc44da77da" x="124.736132" y="238.385514" style="fill: #2ca02c; stroke: #2ca02c"/>
     <use xlink:href="#mbc44da77da" x="140.404283" y="275.852534" style="fill: #2ca02c; stroke: #2ca02c"/>
     <use xlink:href="#mbc44da77da" x="156.072434" y="223.96513" style="fill: #2ca02c; stroke: #2ca02c"/>
     <use xlink:href="#mbc44da77da" x="171.740585" y="276.346236" style="fill: #2ca02c; stroke: #2ca02c"/>
     <use xlink:href="#mbc44da77da" x="187.408736" y="275.843139" style="fill: #2ca02c; stroke: #2ca02c"/>
     <use xlink:href="#mbc44da77da" x="203.076887" y="276.113749" style="fill: #2ca02c; stroke: #2ca02c"/>
     <use xlink:href="#mbc44da77da" x="218.745038" y="234.99009" style="fill: #2ca02c; stroke: #2ca02c"/>
     <use xlink:href="#mbc44da77da" x="234.413189" y="275.487736" style="fill: #2ca02c; stroke: #2ca02c"/>
     <use xlink:href="#mbc44da77da" x="250.081341" y="276.144042" style="fill: #2ca02c; stroke: #2ca02c"/>
     <use xlink:href="#mbc44da77da" x="265.749492" y="275.954801" style="fill: #2ca02c; stroke: #2ca02c"/>
     <use xlink:href="#mbc44da77da" x="281.417643" y="241.130277" style="fill: #2ca02c; stroke: #2ca02c"/>
     <use xlink:href="#mbc44da77da" x="297.085794" y="273.496645" style="fill: #2ca02c; stroke: #2ca02c"/>
     <use xlink:href="#mbc44da77da" x="312.753945" y="275.274262" style="fill: #2ca02c; stroke: #2ca02c"/>
     <use xlink:href="#mbc44da77da" x="328.422096" y="276.510916" style="fill: #2ca02c; stroke: #2ca02c"/>
     <use xlink:href="#mbc44da77da" x="359.758398" y="276.389038" style="fill: #2ca02c; stroke: #2ca02c"/>
     <use xlink:href="#mbc44da77da" x="375.426549" y="246.482343" style="fill: #2ca02c; stroke: #2ca02c"/>
     <use xlink:href="#mbc44da77da" x="391.094701" y="276.212515" style="fill: #2ca02c; stroke: #2ca02c"/>
     <use xlink:href="#mbc44da77da" x="406.762852" y="220.191991" style="fill: #2ca02c; stroke: #2ca02c"/>
     <use xlink:href="#mbc44da77da" x="422.431003" y="276.153338" style="fill: #2ca02c; stroke: #2ca02c"/>
     <use xlink:href="#mbc44da77da" x="438.099154" y="241.158996" style="fill: #2ca02c; stroke: #2ca02c"/>
     <use xlink:href="#mbc44da77da" x="453.767305" y="275.75555" style="fill: #2ca02c; stroke: #2ca02c"/>
     <use xlink:href="#mbc44da77da" x="469.435456" y="262.235579" style="fill: #2ca02c; stroke: #2ca02c"/>
     <use xlink:href="#mbc44da77da" x="485.103607" y="275.005994" style="fill: #2ca02c; stroke: #2ca02c"/>
     <use xlink:href="#mbc44da77da" x="500.771758" y="217.47246" style="fill: #2ca02c; stroke: #2ca02c"/>
     <use xlink:href="#mbc44da77da" x="532.108061" y="276.067497" style="fill: #2ca02c; stroke: #2ca02c"/>
     <use xlink:href="#mbc44da77da" x="547.776212" y="245.822545" style="fill: #2ca02c; stroke: #2ca02c"/>
     <use xlink:href="#mbc44da77da" x="563.444363" y="275.072299" style="fill: #2ca02c; stroke: #2ca02c"/>
     <use xlink:href="#mbc44da77da" x="579.112514" y="276.015132" style="fill: #2ca02c; stroke: #2ca02c"/>
     <use xlink:href="#mbc44da77da" x="594.780665" y="259.864123" style="fill: #2ca02c; stroke: #2ca02c"/>
     <use xlink:href="#mbc44da77da" x="610.448816" y="275.934693" style="fill: #2ca02c; stroke: #2ca02c"/>
     <use xlink:href="#mbc44da77da" x="626.116967" y="276.236256" style="fill: #2ca02c; stroke: #2ca02c"/>
     <use xlink:href="#mbc44da77da" x="641.785118" y="240.840901" style="fill: #2ca02c; stroke: #2ca02c"/>
     <use xlink:href="#mbc44da77da" x="673.12142" y="240.338646" style="fill: #2ca02c; stroke: #2ca02c"/>
    </g>
   </g>
   <g id="line2d_29">
    <path d="M 93.39983 503.126462 
L 109.067981 504.52824 
L 124.736132 503.595878 
L 140.404283 504.805829 
L 156.072434 333.232241 
L 171.740585 495.72534 
L 187.408736 503.757266 
L 203.076887 429.264007 
L 218.745038 504.610064 
L 234.413189 504.718648 
L 250.081341 503.956977 
L 265.749492 504.924767 
L 281.417643 502.537574 
L 312.753945 504.002047 
L 328.422096 503.359811 
L 359.758398 504.154535 
L 375.426549 505.124457 
L 391.094701 503.034622 
L 406.762852 504.40333 
L 422.431003 504.501249 
L 453.767305 503.987887 
L 469.435456 504.548832 
L 485.103607 503.550697 
L 500.771758 504.826167 
L 532.108061 504.481496 
L 547.776212 333.011895 
L 563.444363 504.668805 
L 579.112514 504.815301 
L 594.780665 505.299977 
L 610.448816 504.990042 
L 626.116967 504.60227 
L 641.785118 504.390815 
L 673.12142 333.523301 
" clip-path="url(#p868c5a64df)" style="fill: none; stroke: #d62728; stroke-width: 2; stroke-linecap: square"/>
    <defs>
     <path id="m1e198161b2" d="M 0 3 
C 0.795609 3 1.55874 2.683901 2.12132 2.12132 
C 2.683901 1.55874 3 0.795609 3 0 
C 3 -0.795609 2.683901 -1.55874 2.12132 -2.12132 
C 1.55874 -2.683901 0.795609 -3 0 -3 
C -0.795609 -3 -1.55874 -2.683901 -2.12132 -2.12132 
C -2.683901 -1.55874 -3 -0.795609 -3 0 
C -3 0.795609 -2.683901 1.55874 -2.12132 2.12132 
C -1.55874 2.683901 -0.795609 3 0 3 
z
" style="stroke: #d62728"/>
    </defs>
    <g clip-path="url(#p868c5a64df)">
     <use xlink:href="#m1e198161b2" x="93.39983" y="503.126462" style="fill: #d62728; stroke: #d62728"/>
     <use xlink:href="#m1e198161b2" x="109.067981" y="504.52824" style="fill: #d62728; stroke: #d62728"/>
     <use xlink:href="#m1e198161b2" x="124.736132" y="503.595878" style="fill: #d62728; stroke: #d62728"/>
     <use xlink:href="#m1e198161b2" x="140.404283" y="504.805829" style="fill: #d62728; stroke: #d62728"/>
     <use xlink:href="#m1e198161b2" x="156.072434" y="333.232241" style="fill: #d62728; stroke: #d62728"/>
     <use xlink:href="#m1e198161b2" x="171.740585" y="495.72534" style="fill: #d62728; stroke: #d62728"/>
     <use xlink:href="#m1e198161b2" x="187.408736" y="503.757266" style="fill: #d62728; stroke: #d62728"/>
     <use xlink:href="#m1e198161b2" x="203.076887" y="429.264007" style="fill: #d62728; stroke: #d62728"/>
     <use xlink:href="#m1e198161b2" x="218.745038" y="504.610064" style="fill: #d62728; stroke: #d62728"/>
     <use xlink:href="#m1e198161b2" x="234.413189" y="504.718648" style="fill: #d62728; stroke: #d62728"/>
     <use xlink:href="#m1e198161b2" x="250.081341" y="503.956977" style="fill: #d62728; stroke: #d62728"/>
     <use xlink:href="#m1e198161b2" x="265.749492" y="504.924767" style="fill: #d62728; stroke: #d62728"/>
     <use xlink:href="#m1e198161b2" x="281.417643" y="502.537574" style="fill: #d62728; stroke: #d62728"/>
     <use xlink:href="#m1e198161b2" x="312.753945" y="504.002047" style="fill: #d62728; stroke: #d62728"/>
     <use xlink:href="#m1e198161b2" x="328.422096" y="503.359811" style="fill: #d62728; stroke: #d62728"/>
     <use xlink:href="#m1e198161b2" x="359.758398" y="504.154535" style="fill: #d62728; stroke: #d62728"/>
     <use xlink:href="#m1e198161b2" x="375.426549" y="505.124457" style="fill: #d62728; stroke: #d62728"/>
     <use xlink:href="#m1e198161b2" x="391.094701" y="503.034622" style="fill: #d62728; stroke: #d62728"/>
     <use xlink:href="#m1e198161b2" x="406.762852" y="504.40333" style="fill: #d62728; stroke: #d62728"/>
     <use xlink:href="#m1e198161b2" x="422.431003" y="504.501249" style="fill: #d62728; stroke: #d62728"/>
     <use xlink:href="#m1e198161b2" x="453.767305" y="503.987887" style="fill: #d62728; stroke: #d62728"/>
     <use xlink:href="#m1e198161b2" x="469.435456" y="504.548832" style="fill: #d62728; stroke: #d62728"/>
     <use xlink:href="#m1e198161b2" x="485.103607" y="503.550697" style="fill: #d62728; stroke: #d62728"/>
     <use xlink:href="#m1e198161b2" x="500.771758" y="504.826167" style="fill: #d62728; stroke: #d62728"/>
     <use xlink:href="#m1e198161b2" x="532.108061" y="504.481496" style="fill: #d62728; stroke: #d62728"/>
     <use xlink:href="#m1e198161b2" x="547.776212" y="333.011895" style="fill: #d62728; stroke: #d62728"/>
     <use xlink:href="#m1e198161b2" x="563.444363" y="504.668805" style="fill: #d62728; stroke: #d62728"/>
     <use xlink:href="#m1e198161b2" x="579.112514" y="504.815301" style="fill: #d62728; stroke: #d62728"/>
     <use xlink:href="#m1e198161b2" x="594.780665" y="505.299977" style="fill: #d62728; stroke: #d62728"/>
     <use xlink:href="#m1e198161b2" x="610.448816" y="504.990042" style="fill: #d62728; stroke: #d62728"/>
     <use xlink:href="#m1e198161b2" x="626.116967" y="504.60227" style="fill: #d62728; stroke: #d62728"/>
     <use xlink:href="#m1e198161b2" x="641.785118" y="504.390815" style="fill: #d62728; stroke: #d62728"/>
     <use xlink:href="#m1e198161b2" x="673.12142" y="333.523301" style="fill: #d62728; stroke: #d62728"/>
    </g>
   </g>
   <g id="line2d_30">
    <path d="M 93.39983 475.317341 
L 109.067981 472.037628 
L 124.736132 474.497648 
L 140.404283 474.49691 
L 156.072434 426.768565 
L 171.740585 429.408464 
L 187.408736 473.592651 
L 203.076887 410.911456 
L 218.745038 473.494835 
L 234.413189 474.696587 
L 250.081341 472.93101 
L 265.749492 476.260484 
L 281.417643 468.47285 
L 312.753945 472.557638 
L 328.422096 475.661567 
L 359.758398 471.710141 
L 375.426549 470.181029 
L 391.094701 474.896674 
L 406.762852 474.651718 
L 422.431003 475.987707 
L 453.767305 476.108573 
L 469.435456 471.107445 
L 485.103607 506.332202 
L 500.771758 505.877934 
L 532.108061 505.977285 
L 547.776212 428.683473 
L 563.444363 504.258748 
L 579.112514 505.309747 
L 594.780665 505.969168 
L 610.448816 505.977845 
L 626.116967 505.768274 
L 641.785118 504.563304 
L 673.12142 427.893622 
" clip-path="url(#p868c5a64df)" style="fill: none; stroke: #9467bd; stroke-width: 2; stroke-linecap: square"/>
    <defs>
     <path id="mdf1b7d76d2" d="M 0 3 
C 0.795609 3 1.55874 2.683901 2.12132 2.12132 
C 2.683901 1.55874 3 0.795609 3 0 
C 3 -0.795609 2.683901 -1.55874 2.12132 -2.12132 
C 1.55874 -2.683901 0.795609 -3 0 -3 
C -0.795609 -3 -1.55874 -2.683901 -2.12132 -2.12132 
C -2.683901 -1.55874 -3 -0.795609 -3 0 
C -3 0.795609 -2.683901 1.55874 -2.12132 2.12132 
C -1.55874 2.683901 -0.795609 3 0 3 
z
" style="stroke: #9467bd"/>
    </defs>
    <g clip-path="url(#p868c5a64df)">
     <use xlink:href="#mdf1b7d76d2" x="93.39983" y="475.317341" style="fill: #9467bd; stroke: #9467bd"/>
     <use xlink:href="#mdf1b7d76d2" x="109.067981" y="472.037628" style="fill: #9467bd; stroke: #9467bd"/>
     <use xlink:href="#mdf1b7d76d2" x="124.736132" y="474.497648" style="fill: #9467bd; stroke: #9467bd"/>
     <use xlink:href="#mdf1b7d76d2" x="140.404283" y="474.49691" style="fill: #9467bd; stroke: #9467bd"/>
     <use xlink:href="#mdf1b7d76d2" x="156.072434" y="426.768565" style="fill: #9467bd; stroke: #9467bd"/>
     <use xlink:href="#mdf1b7d76d2" x="171.740585" y="429.408464" style="fill: #9467bd; stroke: #9467bd"/>
     <use xlink:href="#mdf1b7d76d2" x="187.408736" y="473.592651" style="fill: #9467bd; stroke: #9467bd"/>
     <use xlink:href="#mdf1b7d76d2" x="203.076887" y="410.911456" style="fill: #9467bd; stroke: #9467bd"/>
     <use xlink:href="#mdf1b7d76d2" x="218.745038" y="473.494835" style="fill: #9467bd; stroke: #9467bd"/>
     <use xlink:href="#mdf1b7d76d2" x="234.413189" y="474.696587" style="fill: #9467bd; stroke: #9467bd"/>
     <use xlink:href="#mdf1b7d76d2" x="250.081341" y="472.93101" style="fill: #9467bd; stroke: #9467bd"/>
     <use xlink:href="#mdf1b7d76d2" x="265.749492" y="476.260484" style="fill: #9467bd; stroke: #9467bd"/>
     <use xlink:href="#mdf1b7d76d2" x="281.417643" y="468.47285" style="fill: #9467bd; stroke: #9467bd"/>
     <use xlink:href="#mdf1b7d76d2" x="312.753945" y="472.557638" style="fill: #9467bd; stroke: #9467bd"/>
     <use xlink:href="#mdf1b7d76d2" x="328.422096" y="475.661567" style="fill: #9467bd; stroke: #9467bd"/>
     <use xlink:href="#mdf1b7d76d2" x="359.758398" y="471.710141" style="fill: #9467bd; stroke: #9467bd"/>
     <use xlink:href="#mdf1b7d76d2" x="375.426549" y="470.181029" style="fill: #9467bd; stroke: #9467bd"/>
     <use xlink:href="#mdf1b7d76d2" x="391.094701" y="474.896674" style="fill: #9467bd; stroke: #9467bd"/>
     <use xlink:href="#mdf1b7d76d2" x="406.762852" y="474.651718" style="fill: #9467bd; stroke: #9467bd"/>
     <use xlink:href="#mdf1b7d76d2" x="422.431003" y="475.987707" style="fill: #9467bd; stroke: #9467bd"/>
     <use xlink:href="#mdf1b7d76d2" x="453.767305" y="476.108573" style="fill: #9467bd; stroke: #9467bd"/>
     <use xlink:href="#mdf1b7d76d2" x="469.435456" y="471.107445" style="fill: #9467bd; stroke: #9467bd"/>
     <use xlink:href="#mdf1b7d76d2" x="485.103607" y="506.332202" style="fill: #9467bd; stroke: #9467bd"/>
     <use xlink:href="#mdf1b7d76d2" x="500.771758" y="505.877934" style="fill: #9467bd; stroke: #9467bd"/>
     <use xlink:href="#mdf1b7d76d2" x="532.108061" y="505.977285" style="fill: #9467bd; stroke: #9467bd"/>
     <use xlink:href="#mdf1b7d76d2" x="547.776212" y="428.683473" style="fill: #9467bd; stroke: #9467bd"/>
     <use xlink:href="#mdf1b7d76d2" x="563.444363" y="504.258748" style="fill: #9467bd; stroke: #9467bd"/>
     <use xlink:href="#mdf1b7d76d2" x="579.112514" y="505.309747" style="fill: #9467bd; stroke: #9467bd"/>
     <use xlink:href="#mdf1b7d76d2" x="594.780665" y="505.969168" style="fill: #9467bd; stroke: #9467bd"/>
     <use xlink:href="#mdf1b7d76d2" x="610.448816" y="505.977845" style="fill: #9467bd; stroke: #9467bd"/>
     <use xlink:href="#mdf1b7d76d2" x="626.116967" y="505.768274" style="fill: #9467bd; stroke: #9467bd"/>
     <use xlink:href="#mdf1b7d76d2" x="641.785118" y="504.563304" style="fill: #9467bd; stroke: #9467bd"/>
     <use xlink:href="#mdf1b7d76d2" x="673.12142" y="427.893622" style="fill: #9467bd; stroke: #9467bd"/>
    </g>
   </g>
   <g id="line2d_31">
    <path d="M 93.39983 268.939577 
L 109.067981 267.828467 
L 124.736132 268.527368 
L 140.404283 267.715805 
L 156.072434 221.366363 
L 171.740585 222.464459 
L 187.408736 268.210169 
L 203.076887 218.197725 
L 218.745038 269.463986 
L 234.413189 268.246805 
L 250.081341 268.398596 
L 265.749492 268.401033 
L 281.417643 267.548915 
L 312.753945 268.611663 
L 328.422096 267.917174 
L 359.758398 268.925136 
L 375.426549 269.466966 
L 391.094701 269.22487 
L 406.762852 270.06184 
L 422.431003 267.700484 
L 453.767305 268.59512 
L 469.435456 268.271903 
L 485.103607 270.834468 
L 500.771758 272.336148 
L 532.108061 271.908719 
L 547.776212 222.996044 
L 563.444363 272.337763 
L 579.112514 272.094961 
L 594.780665 271.527751 
L 610.448816 271.744101 
L 626.116967 271.174594 
L 641.785118 271.176309 
L 673.12142 224.299778 
" clip-path="url(#p868c5a64df)" style="fill: none; stroke: #8c564b; stroke-width: 2; stroke-linecap: square"/>
    <defs>
     <path id="m3002b381ee" d="M 0 3 
C 0.795609 3 1.55874 2.683901 2.12132 2.12132 
C 2.683901 1.55874 3 0.795609 3 0 
C 3 -0.795609 2.683901 -1.55874 2.12132 -2.12132 
C 1.55874 -2.683901 0.795609 -3 0 -3 
C -0.795609 -3 -1.55874 -2.683901 -2.12132 -2.12132 
C -2.683901 -1.55874 -3 -0.795609 -3 0 
C -3 0.795609 -2.683901 1.55874 -2.12132 2.12132 
C -1.55874 2.683901 -0.795609 3 0 3 
z
" style="stroke: #8c564b"/>
    </defs>
    <g clip-path="url(#p868c5a64df)">
     <use xlink:href="#m3002b381ee" x="93.39983" y="268.939577" style="fill: #8c564b; stroke: #8c564b"/>
     <use xlink:href="#m3002b381ee" x="109.067981" y="267.828467" style="fill: #8c564b; stroke: #8c564b"/>
     <use xlink:href="#m3002b381ee" x="124.736132" y="268.527368" style="fill: #8c564b; stroke: #8c564b"/>
     <use xlink:href="#m3002b381ee" x="140.404283" y="267.715805" style="fill: #8c564b; stroke: #8c564b"/>
     <use xlink:href="#m3002b381ee" x="156.072434" y="221.366363" style="fill: #8c564b; stroke: #8c564b"/>
     <use xlink:href="#m3002b381ee" x="171.740585" y="222.464459" style="fill: #8c564b; stroke: #8c564b"/>
     <use xlink:href="#m3002b381ee" x="187.408736" y="268.210169" style="fill: #8c564b; stroke: #8c564b"/>
     <use xlink:href="#m3002b381ee" x="203.076887" y="218.197725" style="fill: #8c564b; stroke: #8c564b"/>
     <use xlink:href="#m3002b381ee" x="218.745038" y="269.463986" style="fill: #8c564b; stroke: #8c564b"/>
     <use xlink:href="#m3002b381ee" x="234.413189" y="268.246805" style="fill: #8c564b; stroke: #8c564b"/>
     <use xlink:href="#m3002b381ee" x="250.081341" y="268.398596" style="fill: #8c564b; stroke: #8c564b"/>
     <use xlink:href="#m3002b381ee" x="265.749492" y="268.401033" style="fill: #8c564b; stroke: #8c564b"/>
     <use xlink:href="#m3002b381ee" x="281.417643" y="267.548915" style="fill: #8c564b; stroke: #8c564b"/>
     <use xlink:href="#m3002b381ee" x="312.753945" y="268.611663" style="fill: #8c564b; stroke: #8c564b"/>
     <use xlink:href="#m3002b381ee" x="328.422096" y="267.917174" style="fill: #8c564b; stroke: #8c564b"/>
     <use xlink:href="#m3002b381ee" x="359.758398" y="268.925136" style="fill: #8c564b; stroke: #8c564b"/>
     <use xlink:href="#m3002b381ee" x="375.426549" y="269.466966" style="fill: #8c564b; stroke: #8c564b"/>
     <use xlink:href="#m3002b381ee" x="391.094701" y="269.22487" style="fill: #8c564b; stroke: #8c564b"/>
     <use xlink:href="#m3002b381ee" x="406.762852" y="270.06184" style="fill: #8c564b; stroke: #8c564b"/>
     <use xlink:href="#m3002b381ee" x="422.431003" y="267.700484" style="fill: #8c564b; stroke: #8c564b"/>
     <use xlink:href="#m3002b381ee" x="453.767305" y="268.59512" style="fill: #8c564b; stroke: #8c564b"/>
     <use xlink:href="#m3002b381ee" x="469.435456" y="268.271903" style="fill: #8c564b; stroke: #8c564b"/>
     <use xlink:href="#m3002b381ee" x="485.103607" y="270.834468" style="fill: #8c564b; stroke: #8c564b"/>
     <use xlink:href="#m3002b381ee" x="500.771758" y="272.336148" style="fill: #8c564b; stroke: #8c564b"/>
     <use xlink:href="#m3002b381ee" x="532.108061" y="271.908719" style="fill: #8c564b; stroke: #8c564b"/>
     <use xlink:href="#m3002b381ee" x="547.776212" y="222.996044" style="fill: #8c564b; stroke: #8c564b"/>
     <use xlink:href="#m3002b381ee" x="563.444363" y="272.337763" style="fill: #8c564b; stroke: #8c564b"/>
     <use xlink:href="#m3002b381ee" x="579.112514" y="272.094961" style="fill: #8c564b; stroke: #8c564b"/>
     <use xlink:href="#m3002b381ee" x="594.780665" y="271.527751" style="fill: #8c564b; stroke: #8c564b"/>
     <use xlink:href="#m3002b381ee" x="610.448816" y="271.744101" style="fill: #8c564b; stroke: #8c564b"/>
     <use xlink:href="#m3002b381ee" x="626.116967" y="271.174594" style="fill: #8c564b; stroke: #8c564b"/>
     <use xlink:href="#m3002b381ee" x="641.785118" y="271.176309" style="fill: #8c564b; stroke: #8c564b"/>
     <use xlink:href="#m3002b381ee" x="673.12142" y="224.299778" style="fill: #8c564b; stroke: #8c564b"/>
    </g>
   </g>
   <g id="patch_3">
    <path d="M 64.41375 529.308125 
L 64.41375 23.837813 
" style="fill: none; stroke: #000000; stroke-width: 0.8; stroke-linejoin: miter; stroke-linecap: square"/>
   </g>
   <g id="patch_4">
    <path d="M 702.1075 529.308125 
L 702.1075 23.837813 
" style="fill: none; stroke: #000000; stroke-width: 0.8; stroke-linejoin: miter; stroke-linecap: square"/>
   </g>
   <g id="patch_5">
    <path d="M 64.41375 529.308125 
L 702.1075 529.308125 
" style="fill: none; stroke: #000000; stroke-width: 0.8; stroke-linejoin: miter; stroke-linecap: square"/>
   </g>
   <g id="patch_6">
    <path d="M 64.41375 23.837812 
L 702.1075 23.837812 
" style="fill: none; stroke: #000000; stroke-width: 0.8; stroke-linejoin: miter; stroke-linecap: square"/>
   </g>
   <g id="text_16">
    <text style="font: 700 14px 'DejaVu Sans', 'Bitstream Vera Sans', 'Computer Modern Sans Serif', 'Lucida Grande', 'Verdana', 'Geneva', 'Lucid', 'Arial', 'Helvetica', 'Avant Garde', sans-serif; text-anchor: middle" x="383.260625" y="17.837813" transform="rotate(-0 383.260625 17.837813)">Parallelfor Vectorops - Performance Trend</text>
   </g>
   <g id="legend_1">
    <g id="patch_7">
     <path d="M 740.992188 119.906563 
L 846.004688 119.906563 
Q 848.004688 119.906563 848.004688 117.906563 
L 848.004688 30.837813 
Q 848.004688 28.837813 846.004688 28.837813 
L 740.992188 28.837813 
Q 738.992188 28.837813 738.992188 30.837813 
L 738.992188 117.906563 
Q 738.992188 119.906563 740.992188 119.906563 
z
" style="fill: #ffffff; opacity: 0.8; stroke: #cccccc; stroke-linejoin: miter"/>
    </g>
    <g id="line2d_32">
     <path d="M 742.992188 36.93625 
L 752.992188 36.93625 
L 762.992188 36.93625 
" style="fill: none; stroke: #1f77b4; stroke-width: 2; stroke-linecap: square"/>
     <g>
      <use xlink:href="#m4303b2609d" x="752.992188" y="36.93625" style="fill: #1f77b4; stroke: #1f77b4"/>
     </g>
    </g>
    <g id="text_17">
     <text style="font: 10px 'DejaVu Sans', 'Bitstream Vera Sans', 'Computer Modern Sans Serif', 'Lucida Grande', 'Verdana', 'Geneva', 'Lucid', 'Arial', 'Helvetica', 'Avant Garde', sans-serif; text-anchor: start" x="770.992188" y="40.43625" transform="rotate(-0 770.992188 40.43625)">gcc-14.2 - V1</text>
    </g>
    <g id="line2d_33">
     <path d="M 742.992188 51.614375 
L 752.992188 51.614375 
L 762.992188 51.614375 
" style="fill: none; stroke: #ff7f0e; stroke-width: 2; stroke-linecap: square"/>
     <g>
      <use xlink:href="#m29a04fc455" x="752.992188" y="51.614375" style="fill: #ff7f0e; stroke: #ff7f0e"/>
     </g>
    </g>
    <g id="text_18">
     <text style="font: 10px 'DejaVu Sans', 'Bitstream Vera Sans', 'Computer Modern Sans Serif', 'Lucida Grande', 'Verdana', 'Geneva', 'Lucid', 'Arial', 'Helvetica', 'Avant Garde', sans-serif; text-anchor: start" x="770.992188" y="55.114375" transform="rotate(-0 770.992188 55.114375)">gcc-14.2 - V2</text>
    </g>
    <g id="line2d_34">
     <path d="M 742.992188 66.2925 
L 752.992188 66.2925 
L 762.992188 66.2925 
" style="fill: none; stroke: #2ca02c; stroke-width: 2; stroke-linecap: square"/>
     <g>
      <use xlink:href="#mbc44da77da" x="752.992188" y="66.2925" style="fill: #2ca02c; stroke: #2ca02c"/>
     </g>
    </g>
    <g id="text_19">
     <text style="font: 10px 'DejaVu Sans', 'Bitstream Vera Sans', 'Computer Modern Sans Serif', 'Lucida Grande', 'Verdana', 'Geneva', 'Lucid', 'Arial', 'Helvetica', 'Avant Garde', sans-serif; text-anchor: start" x="770.992188" y="69.7925" transform="rotate(-0 770.992188 69.7925)">gcc-14.2 - TBB</text>
    </g>
    <g id="line2d_35">
     <path d="M 742.992188 80.970625 
L 752.992188 80.970625 
L 762.992188 80.970625 
" style="fill: none; stroke: #d62728; stroke-width: 2; stroke-linecap: square"/>
     <g>
      <use xlink:href="#m1e198161b2" x="752.992188" y="80.970625" style="fill: #d62728; stroke: #d62728"/>
     </g>
    </g>
    <g id="text_20">
     <text style="font: 10px 'DejaVu Sans', 'Bitstream Vera Sans', 'Computer Modern Sans Serif', 'Lucida Grande', 'Verdana', 'Geneva', 'Lucid', 'Arial', 'Helvetica', 'Avant Garde', sans-serif; text-anchor: start" x="770.992188" y="84.470625" transform="rotate(-0 770.992188 84.470625)">gcc-4.2 - V1</text>
    </g>
    <g id="line2d_36">
     <path d="M 742.992188 95.64875 
L 752.992188 95.64875 
L 762.992188 95.64875 
" style="fill: none; stroke: #9467bd; stroke-width: 2; stroke-linecap: square"/>
     <g>
      <use xlink:href="#mdf1b7d76d2" x="752.992188" y="95.64875" style="fill: #9467bd; stroke: #9467bd"/>
     </g>
    </g>
    <g id="text_21">
     <text style="font: 10px 'DejaVu Sans', 'Bitstream Vera Sans', 'Computer Modern Sans Serif', 'Lucida Grande', 'Verdana', 'Geneva', 'Lucid', 'Arial', 'Helvetica', 'Avant Garde', sans-serif; text-anchor: start" x="770.992188" y="99.14875" transform="rotate(-0 770.992188 99.14875)">gcc-4.2 - V2</text>
    </g>
    <g id="line2d_37">
     <path d="M 742.992188 110.326875 
L 752.992188 110.326875 
L 762.992188 110.326875 
" style="fill: none; stroke: #8c564b; stroke-width: 2; stroke-linecap: square"/>
     <g>
      <use xlink:href="#m3002b381ee" x="752.992188" y="110.326875" style="fill: #8c564b; stroke: #8c564b"/>
     </g>
    </g>
    <g id="text_22">
     <text style="font: 10px 'DejaVu Sans', 'Bitstream Vera Sans', 'Computer Modern Sans Serif', 'Lucida Grande', 'Verdana', 'Geneva', 'Lucid', 'Arial', 'Helvetica', 'Avant Garde', sans-serif; text-anchor: start" x="770.992188" y="113.826875" transform="rotate(-0 770.992188 113.826875)">gcc-4.2 - TBB</text>
    </g>
   </g>
  </g>
 </g>
 <defs>
  <clipPath id="p868c5a64df">
   <rect x="64.41375" y="23.837813" width="637.69375" height="505.470313"/>
  </clipPath>
 </defs>
</svg>
