<?xml version="1.0" encoding="utf-8" standalone="no"?>
<!DOCTYPE svg PUBLIC "-//W3C//DTD SVG 1.1//EN"
  "http://www.w3.org/Graphics/SVG/1.1/DTD/svg11.dtd">
<svg xmlns:xlink="http://www.w3.org/1999/xlink" width="856.684141pt" height="568.8pt" viewBox="0 0 856.684141 568.8" xmlns="http://www.w3.org/2000/svg" version="1.1">
 <metadata>
  <rdf:RDF xmlns:dc="http://purl.org/dc/elements/1.1/" xmlns:cc="http://creativecommons.org/ns#" xmlns:rdf="http://www.w3.org/1999/02/22-rdf-syntax-ns#">
   <cc:Work>
    <dc:type rdf:resource="http://purl.org/dc/dcmitype/StillImage"/>
    <dc:date>2025-08-17T04:15:52.575322</dc:date>
    <dc:format>image/svg+xml</dc:format>
    <dc:creator>
     <cc:Agent>
      <dc:title>Matplotlib v3.9.4, https://matplotlib.org/</dc:title>
     </cc:Agent>
    </dc:creator>
   </cc:Work>
  </rdf:RDF>
 </metadata>
 <defs>
  <style type="text/css">*{stroke-linejoin: round; stroke-linecap: butt}</style>
 </defs>
 <g id="figure_1">
  <g id="patch_1">
   <path d="M 0 568.8 
L 856.684141 568.8 
L 856.684141 0 
L 0 0 
z
" style="fill: #ffffff"/>
  </g>
  <g id="axes_1">
   <g id="patch_2">
    <path d="M 64.41375 529.308125 
L 731.696562 529.308125 
L 731.696562 23.837812 
L 64.41375 23.837812 
z
" style="fill: #ffffff"/>
   </g>
   <g id="matplotlib.axis_1">
    <g id="xtick_1">
     <g id="line2d_1">
      <path d="M 68.369972 529.308125 
L 68.369972 23.837812 
" clip-path="url(#pf1ba9807ff)" style="fill: none; stroke: #b0b0b0; stroke-opacity: 0.3; stroke-width: 0.8; stroke-linecap: square"/>
     </g>
     <g id="line2d_2">
      <defs>
       <path id="m5a9bc2f3b2" d="M 0 0 
L 0 3.5 
" style="stroke: #000000; stroke-width: 0.8"/>
      </defs>
      <g>
       <use xlink:href="#m5a9bc2f3b2" x="68.369972" y="529.308125" style="stroke: #000000; stroke-width: 0.8"/>
      </g>
     </g>
     <g id="text_1">
      <text style="font: 10px 'DejaVu Sans', 'Bitstream Vera Sans', 'Computer Modern Sans Serif', 'Lucida Grande', 'Verdana', 'Geneva', 'Lucid', 'Arial', 'Helvetica', 'Avant Garde', sans-serif; text-anchor: middle" x="68.369972" y="543.906563" transform="rotate(-0 68.369972 543.906563)">70</text>
     </g>
    </g>
    <g id="xtick_2">
     <g id="line2d_3">
      <path d="M 200.244046 529.308125 
L 200.244046 23.837812 
" clip-path="url(#pf1ba9807ff)" style="fill: none; stroke: #b0b0b0; stroke-opacity: 0.3; stroke-width: 0.8; stroke-linecap: square"/>
     </g>
     <g id="line2d_4">
      <g>
       <use xlink:href="#m5a9bc2f3b2" x="200.244046" y="529.308125" style="stroke: #000000; stroke-width: 0.8"/>
      </g>
     </g>
     <g id="text_2">
      <text style="font: 10px 'DejaVu Sans', 'Bitstream Vera Sans', 'Computer Modern Sans Serif', 'Lucida Grande', 'Verdana', 'Geneva', 'Lucid', 'Arial', 'Helvetica', 'Avant Garde', sans-serif; text-anchor: middle" x="200.244046" y="543.906563" transform="rotate(-0 200.244046 543.906563)">75</text>
     </g>
    </g>
    <g id="xtick_3">
     <g id="line2d_5">
      <path d="M 332.118119 529.308125 
L 332.118119 23.837812 
" clip-path="url(#pf1ba9807ff)" style="fill: none; stroke: #b0b0b0; stroke-opacity: 0.3; stroke-width: 0.8; stroke-linecap: square"/>
     </g>
     <g id="line2d_6">
      <g>
       <use xlink:href="#m5a9bc2f3b2" x="332.118119" y="529.308125" style="stroke: #000000; stroke-width: 0.8"/>
      </g>
     </g>
     <g id="text_3">
      <text style="font: 10px 'DejaVu Sans', 'Bitstream Vera Sans', 'Computer Modern Sans Serif', 'Lucida Grande', 'Verdana', 'Geneva', 'Lucid', 'Arial', 'Helvetica', 'Avant Garde', sans-serif; text-anchor: middle" x="332.118119" y="543.906563" transform="rotate(-0 332.118119 543.906563)">80</text>
     </g>
    </g>
    <g id="xtick_4">
     <g id="line2d_7">
      <path d="M 463.992193 529.308125 
L 463.992193 23.837812 
" clip-path="url(#pf1ba9807ff)" style="fill: none; stroke: #b0b0b0; stroke-opacity: 0.3; stroke-width: 0.8; stroke-linecap: square"/>
     </g>
     <g id="line2d_8">
      <g>
       <use xlink:href="#m5a9bc2f3b2" x="463.992193" y="529.308125" style="stroke: #000000; stroke-width: 0.8"/>
      </g>
     </g>
     <g id="text_4">
      <text style="font: 10px 'DejaVu Sans', 'Bitstream Vera Sans', 'Computer Modern Sans Serif', 'Lucida Grande', 'Verdana', 'Geneva', 'Lucid', 'Arial', 'Helvetica', 'Avant Garde', sans-serif; text-anchor: middle" x="463.992193" y="543.906563" transform="rotate(-0 463.992193 543.906563)">85</text>
     </g>
    </g>
    <g id="xtick_5">
     <g id="line2d_9">
      <path d="M 595.866267 529.308125 
L 595.866267 23.837812 
" clip-path="url(#pf1ba9807ff)" style="fill: none; stroke: #b0b0b0; stroke-opacity: 0.3; stroke-width: 0.8; stroke-linecap: square"/>
     </g>
     <g id="line2d_10">
      <g>
       <use xlink:href="#m5a9bc2f3b2" x="595.866267" y="529.308125" style="stroke: #000000; stroke-width: 0.8"/>
      </g>
     </g>
     <g id="text_5">
      <text style="font: 10px 'DejaVu Sans', 'Bitstream Vera Sans', 'Computer Modern Sans Serif', 'Lucida Grande', 'Verdana', 'Geneva', 'Lucid', 'Arial', 'Helvetica', 'Avant Garde', sans-serif; text-anchor: middle" x="595.866267" y="543.906563" transform="rotate(-0 595.866267 543.906563)">90</text>
     </g>
    </g>
    <g id="xtick_6">
     <g id="line2d_11">
      <path d="M 727.74034 529.308125 
L 727.74034 23.837812 
" clip-path="url(#pf1ba9807ff)" style="fill: none; stroke: #b0b0b0; stroke-opacity: 0.3; stroke-width: 0.8; stroke-linecap: square"/>
     </g>
     <g id="line2d_12">
      <g>
       <use xlink:href="#m5a9bc2f3b2" x="727.74034" y="529.308125" style="stroke: #000000; stroke-width: 0.8"/>
      </g>
     </g>
     <g id="text_6">
      <text style="font: 10px 'DejaVu Sans', 'Bitstream Vera Sans', 'Computer Modern Sans Serif', 'Lucida Grande', 'Verdana', 'Geneva', 'Lucid', 'Arial', 'Helvetica', 'Avant Garde', sans-serif; text-anchor: middle" x="727.74034" y="543.906563" transform="rotate(-0 727.74034 543.906563)">95</text>
     </g>
    </g>
    <g id="text_7">
     <text style="font: 12px 'DejaVu Sans', 'Bitstream Vera Sans', 'Computer Modern Sans Serif', 'Lucida Grande', 'Verdana', 'Geneva', 'Lucid', 'Arial', 'Helvetica', 'Avant Garde', sans-serif; text-anchor: middle" x="398.055156" y="559.104375" transform="rotate(-0 398.055156 559.104375)">Build Number</text>
    </g>
   </g>
   <g id="matplotlib.axis_2">
    <g id="ytick_1">
     <g id="line2d_13">
      <defs>
       <path id="m2e6acb7c4d" d="M 0 0 
L -2 0 
" style="stroke: #000000; stroke-width: 0.6"/>
      </defs>
      <g>
       <use xlink:href="#m2e6acb7c4d" x="64.41375" y="405.479574" style="stroke: #000000; stroke-width: 0.6"/>
      </g>
     </g>
     <g id="text_8">
      <!-- $\mathdefault{6\times10^{0}}$ -->
      <g transform="translate(22.81375 409.278793)">
       <text>
        <tspan style="font: 10px 'DejaVu Sans'" x="0 8.310547 18.637695 25" y="-0.9765625">6×10</tspan>
        <tspan style="font: 7px 'DejaVu Sans'" x="31.458008" y="-4.8046875">0</tspan>
       </text>
      </g>
     </g>
    </g>
    <g id="ytick_2">
     <g id="line2d_14">
      <g>
       <use xlink:href="#m2e6acb7c4d" x="64.41375" y="174.162949" style="stroke: #000000; stroke-width: 0.6"/>
      </g>
     </g>
     <g id="text_9">
      <!-- $\mathdefault{7\times10^{0}}$ -->
      <g transform="translate(22.81375 177.962167)">
       <text>
        <tspan style="font: 10px 'DejaVu Sans'" x="0 8.310547 18.637695 25" y="-0.9765625">7×10</tspan>
        <tspan style="font: 7px 'DejaVu Sans'" x="31.458008" y="-4.8046875">0</tspan>
       </text>
      </g>
     </g>
    </g>
    <g id="text_10">
     <text style="font: 12px 'DejaVu Sans', 'Bitstream Vera Sans', 'Computer Modern Sans Serif', 'Lucida Grande', 'Verdana', 'Geneva', 'Lucid', 'Arial', 'Helvetica', 'Avant Garde', sans-serif; text-anchor: middle" x="16.318125" y="276.572969" transform="rotate(-90 16.318125 276.572969)">Median Elapsed Time (nanoseconds)</text>
    </g>
   </g>
   <g id="line2d_15">
    <path d="M 94.744787 327.509425 
L 121.119602 329.885653 
L 147.494416 306.29102 
L 173.869231 329.885653 
L 200.244046 353.857214 
L 226.618861 329.885653 
L 252.993675 329.885653 
L 279.36849 329.885653 
L 305.743305 329.885653 
L 332.118119 329.885653 
L 358.492934 306.29102 
L 384.867749 329.885653 
L 411.242564 329.885653 
L 463.992193 329.885653 
L 490.367008 329.885653 
L 543.116637 329.885653 
L 569.491452 329.885653 
L 595.866267 329.885653 
L 622.241081 329.885653 
L 648.615896 329.885653 
L 701.365526 329.885653 
" clip-path="url(#pf1ba9807ff)" style="fill: none; stroke: #1f77b4; stroke-width: 2; stroke-linecap: square"/>
    <defs>
     <path id="m00f232099a" d="M 0 3 
C 0.795609 3 1.55874 2.683901 2.12132 2.12132 
C 2.683901 1.55874 3 0.795609 3 0 
C 3 -0.795609 2.683901 -1.55874 2.12132 -2.12132 
C 1.55874 -2.683901 0.795609 -3 0 -3 
C -0.795609 -3 -1.55874 -2.683901 -2.12132 -2.12132 
C -2.683901 -1.55874 -3 -0.795609 -3 0 
C -3 0.795609 -2.683901 1.55874 -2.12132 2.12132 
C -1.55874 2.683901 -0.795609 3 0 3 
z
" style="stroke: #1f77b4"/>
    </defs>
    <g clip-path="url(#pf1ba9807ff)">
     <use xlink:href="#m00f232099a" x="94.744787" y="327.509425" style="fill: #1f77b4; stroke: #1f77b4"/>
     <use xlink:href="#m00f232099a" x="121.119602" y="329.885653" style="fill: #1f77b4; stroke: #1f77b4"/>
     <use xlink:href="#m00f232099a" x="147.494416" y="306.29102" style="fill: #1f77b4; stroke: #1f77b4"/>
     <use xlink:href="#m00f232099a" x="173.869231" y="329.885653" style="fill: #1f77b4; stroke: #1f77b4"/>
     <use xlink:href="#m00f232099a" x="200.244046" y="353.857214" style="fill: #1f77b4; stroke: #1f77b4"/>
     <use xlink:href="#m00f232099a" x="226.618861" y="329.885653" style="fill: #1f77b4; stroke: #1f77b4"/>
     <use xlink:href="#m00f232099a" x="252.993675" y="329.885653" style="fill: #1f77b4; stroke: #1f77b4"/>
     <use xlink:href="#m00f232099a" x="279.36849" y="329.885653" style="fill: #1f77b4; stroke: #1f77b4"/>
     <use xlink:href="#m00f232099a" x="305.743305" y="329.885653" style="fill: #1f77b4; stroke: #1f77b4"/>
     <use xlink:href="#m00f232099a" x="332.118119" y="329.885653" style="fill: #1f77b4; stroke: #1f77b4"/>
     <use xlink:href="#m00f232099a" x="358.492934" y="306.29102" style="fill: #1f77b4; stroke: #1f77b4"/>
     <use xlink:href="#m00f232099a" x="384.867749" y="329.885653" style="fill: #1f77b4; stroke: #1f77b4"/>
     <use xlink:href="#m00f232099a" x="411.242564" y="329.885653" style="fill: #1f77b4; stroke: #1f77b4"/>
     <use xlink:href="#m00f232099a" x="463.992193" y="329.885653" style="fill: #1f77b4; stroke: #1f77b4"/>
     <use xlink:href="#m00f232099a" x="490.367008" y="329.885653" style="fill: #1f77b4; stroke: #1f77b4"/>
     <use xlink:href="#m00f232099a" x="543.116637" y="329.885653" style="fill: #1f77b4; stroke: #1f77b4"/>
     <use xlink:href="#m00f232099a" x="569.491452" y="329.885653" style="fill: #1f77b4; stroke: #1f77b4"/>
     <use xlink:href="#m00f232099a" x="595.866267" y="329.885653" style="fill: #1f77b4; stroke: #1f77b4"/>
     <use xlink:href="#m00f232099a" x="622.241081" y="329.885653" style="fill: #1f77b4; stroke: #1f77b4"/>
     <use xlink:href="#m00f232099a" x="648.615896" y="329.885653" style="fill: #1f77b4; stroke: #1f77b4"/>
     <use xlink:href="#m00f232099a" x="701.365526" y="329.885653" style="fill: #1f77b4; stroke: #1f77b4"/>
    </g>
   </g>
   <g id="line2d_16">
    <path d="M 94.744787 506.332202 
L 121.119602 402.980676 
L 147.494416 402.980676 
L 173.869231 402.980676 
L 200.244046 402.980676 
L 226.618861 378.21794 
L 252.993675 400.485933 
L 279.36849 400.485933 
L 305.743305 402.980676 
L 332.118119 402.980676 
L 358.492934 402.980676 
L 384.867749 46.813736 
L 411.242564 378.21794 
L 437.617378 402.980676 
L 463.992193 402.980676 
L 490.367008 378.21794 
L 543.116637 353.857214 
L 569.491452 400.485933 
L 595.866267 380.675905 
L 622.241081 402.980676 
L 648.615896 400.485933 
L 674.990711 402.980676 
L 701.365526 378.21794 
" clip-path="url(#pf1ba9807ff)" style="fill: none; stroke: #ff7f0e; stroke-width: 2; stroke-linecap: square"/>
    <defs>
     <path id="mdbb67e97ba" d="M 0 3 
C 0.795609 3 1.55874 2.683901 2.12132 2.12132 
C 2.683901 1.55874 3 0.795609 3 0 
C 3 -0.795609 2.683901 -1.55874 2.12132 -2.12132 
C 1.55874 -2.683901 0.795609 -3 0 -3 
C -0.795609 -3 -1.55874 -2.683901 -2.12132 -2.12132 
C -2.683901 -1.55874 -3 -0.795609 -3 0 
C -3 0.795609 -2.683901 1.55874 -2.12132 2.12132 
C -1.55874 2.683901 -0.795609 3 0 3 
z
" style="stroke: #ff7f0e"/>
    </defs>
    <g clip-path="url(#pf1ba9807ff)">
     <use xlink:href="#mdbb67e97ba" x="94.744787" y="506.332202" style="fill: #ff7f0e; stroke: #ff7f0e"/>
     <use xlink:href="#mdbb67e97ba" x="121.119602" y="402.980676" style="fill: #ff7f0e; stroke: #ff7f0e"/>
     <use xlink:href="#mdbb67e97ba" x="147.494416" y="402.980676" style="fill: #ff7f0e; stroke: #ff7f0e"/>
     <use xlink:href="#mdbb67e97ba" x="173.869231" y="402.980676" style="fill: #ff7f0e; stroke: #ff7f0e"/>
     <use xlink:href="#mdbb67e97ba" x="200.244046" y="402.980676" style="fill: #ff7f0e; stroke: #ff7f0e"/>
     <use xlink:href="#mdbb67e97ba" x="226.618861" y="378.21794" style="fill: #ff7f0e; stroke: #ff7f0e"/>
     <use xlink:href="#mdbb67e97ba" x="252.993675" y="400.485933" style="fill: #ff7f0e; stroke: #ff7f0e"/>
     <use xlink:href="#mdbb67e97ba" x="279.36849" y="400.485933" style="fill: #ff7f0e; stroke: #ff7f0e"/>
     <use xlink:href="#mdbb67e97ba" x="305.743305" y="402.980676" style="fill: #ff7f0e; stroke: #ff7f0e"/>
     <use xlink:href="#mdbb67e97ba" x="332.118119" y="402.980676" style="fill: #ff7f0e; stroke: #ff7f0e"/>
     <use xlink:href="#mdbb67e97ba" x="358.492934" y="402.980676" style="fill: #ff7f0e; stroke: #ff7f0e"/>
     <use xlink:href="#mdbb67e97ba" x="384.867749" y="46.813736" style="fill: #ff7f0e; stroke: #ff7f0e"/>
     <use xlink:href="#mdbb67e97ba" x="411.242564" y="378.21794" style="fill: #ff7f0e; stroke: #ff7f0e"/>
     <use xlink:href="#mdbb67e97ba" x="437.617378" y="402.980676" style="fill: #ff7f0e; stroke: #ff7f0e"/>
     <use xlink:href="#mdbb67e97ba" x="463.992193" y="402.980676" style="fill: #ff7f0e; stroke: #ff7f0e"/>
     <use xlink:href="#mdbb67e97ba" x="490.367008" y="378.21794" style="fill: #ff7f0e; stroke: #ff7f0e"/>
     <use xlink:href="#mdbb67e97ba" x="543.116637" y="353.857214" style="fill: #ff7f0e; stroke: #ff7f0e"/>
     <use xlink:href="#mdbb67e97ba" x="569.491452" y="400.485933" style="fill: #ff7f0e; stroke: #ff7f0e"/>
     <use xlink:href="#mdbb67e97ba" x="595.866267" y="380.675905" style="fill: #ff7f0e; stroke: #ff7f0e"/>
     <use xlink:href="#mdbb67e97ba" x="622.241081" y="402.980676" style="fill: #ff7f0e; stroke: #ff7f0e"/>
     <use xlink:href="#mdbb67e97ba" x="648.615896" y="400.485933" style="fill: #ff7f0e; stroke: #ff7f0e"/>
     <use xlink:href="#mdbb67e97ba" x="674.990711" y="402.980676" style="fill: #ff7f0e; stroke: #ff7f0e"/>
     <use xlink:href="#mdbb67e97ba" x="701.365526" y="378.21794" style="fill: #ff7f0e; stroke: #ff7f0e"/>
    </g>
   </g>
   <g id="patch_3">
    <path d="M 64.41375 529.308125 
L 64.41375 23.837812 
" style="fill: none; stroke: #000000; stroke-width: 0.8; stroke-linejoin: miter; stroke-linecap: square"/>
   </g>
   <g id="patch_4">
    <path d="M 731.696562 529.308125 
L 731.696562 23.837812 
" style="fill: none; stroke: #000000; stroke-width: 0.8; stroke-linejoin: miter; stroke-linecap: square"/>
   </g>
   <g id="patch_5">
    <path d="M 64.41375 529.308125 
L 731.696562 529.308125 
" style="fill: none; stroke: #000000; stroke-width: 0.8; stroke-linejoin: miter; stroke-linecap: square"/>
   </g>
   <g id="patch_6">
    <path d="M 64.41375 23.837812 
L 731.696562 23.837812 
" style="fill: none; stroke: #000000; stroke-width: 0.8; stroke-linejoin: miter; stroke-linecap: square"/>
   </g>
   <g id="text_11">
    <text style="font: 700 14px 'DejaVu Sans', 'Bitstream Vera Sans', 'Computer Modern Sans Serif', 'Lucida Grande', 'Verdana', 'Geneva', 'Lucid', 'Arial', 'Helvetica', 'Avant Garde', sans-serif; text-anchor: middle" x="398.055156" y="17.837813" transform="rotate(-0 398.055156 17.837813)">Ts Shared Linear Single Thread - Performance Trend</text>
   </g>
   <g id="legend_1">
    <g id="patch_7">
     <path d="M 772.060703 61.194063 
L 847.484141 61.194063 
Q 849.484141 61.194063 849.484141 59.194063 
L 849.484141 30.837813 
Q 849.484141 28.837813 847.484141 28.837813 
L 772.060703 28.837813 
Q 770.060703 28.837813 770.060703 30.837813 
L 770.060703 59.194063 
Q 770.060703 61.194063 772.060703 61.194063 
z
" style="fill: #ffffff; opacity: 0.8; stroke: #cccccc; stroke-linejoin: miter"/>
    </g>
    <g id="line2d_17">
     <path d="M 774.060703 36.93625 
L 784.060703 36.93625 
L 794.060703 36.93625 
" style="fill: none; stroke: #1f77b4; stroke-width: 2; stroke-linecap: square"/>
     <g>
      <use xlink:href="#m00f232099a" x="784.060703" y="36.93625" style="fill: #1f77b4; stroke: #1f77b4"/>
     </g>
    </g>
    <g id="text_12">
     <text style="font: 10px 'DejaVu Sans', 'Bitstream Vera Sans', 'Computer Modern Sans Serif', 'Lucida Grande', 'Verdana', 'Geneva', 'Lucid', 'Arial', 'Helvetica', 'Avant Garde', sans-serif; text-anchor: start" x="802.060703" y="40.43625" transform="rotate(-0 802.060703 40.43625)">clang-18</text>
    </g>
    <g id="line2d_18">
     <path d="M 774.060703 51.614375 
L 784.060703 51.614375 
L 794.060703 51.614375 
" style="fill: none; stroke: #ff7f0e; stroke-width: 2; stroke-linecap: square"/>
     <g>
      <use xlink:href="#mdbb67e97ba" x="784.060703" y="51.614375" style="fill: #ff7f0e; stroke: #ff7f0e"/>
     </g>
    </g>
    <g id="text_13">
     <text style="font: 10px 'DejaVu Sans', 'Bitstream Vera Sans', 'Computer Modern Sans Serif', 'Lucida Grande', 'Verdana', 'Geneva', 'Lucid', 'Arial', 'Helvetica', 'Avant Garde', sans-serif; text-anchor: start" x="802.060703" y="55.114375" transform="rotate(-0 802.060703 55.114375)">gcc-14</text>
    </g>
   </g>
  </g>
 </g>
 <defs>
  <clipPath id="pf1ba9807ff">
   <rect x="64.41375" y="23.837813" width="667.282812" height="505.470313"/>
  </clipPath>
 </defs>
</svg>
