<?xml version="1.0" encoding="utf-8" standalone="no"?>
<!DOCTYPE svg PUBLIC "-//W3C//DTD SVG 1.1//EN"
  "http://www.w3.org/Graphics/SVG/1.1/DTD/svg11.dtd">
<svg xmlns:xlink="http://www.w3.org/1999/xlink" width="856.684141pt" height="568.8pt" viewBox="0 0 856.684141 568.8" xmlns="http://www.w3.org/2000/svg" version="1.1">
 <metadata>
  <rdf:RDF xmlns:dc="http://purl.org/dc/elements/1.1/" xmlns:cc="http://creativecommons.org/ns#" xmlns:rdf="http://www.w3.org/1999/02/22-rdf-syntax-ns#">
   <cc:Work>
    <dc:type rdf:resource="http://purl.org/dc/dcmitype/StillImage"/>
    <dc:date>2025-08-22T17:17:13.928746</dc:date>
    <dc:format>image/svg+xml</dc:format>
    <dc:creator>
     <cc:Agent>
      <dc:title>Matplotlib v3.9.4, https://matplotlib.org/</dc:title>
     </cc:Agent>
    </dc:creator>
   </cc:Work>
  </rdf:RDF>
 </metadata>
 <defs>
  <style type="text/css">*{stroke-linejoin: round; stroke-linecap: butt}</style>
 </defs>
 <g id="figure_1">
  <g id="patch_1">
   <path d="M 0 568.8 
L 856.684141 568.8 
L 856.684141 0 
L 0 0 
z
" style="fill: #ffffff"/>
  </g>
  <g id="axes_1">
   <g id="patch_2">
    <path d="M 64.41375 529.308125 
L 731.696562 529.308125 
L 731.696562 23.837812 
L 64.41375 23.837812 
z
" style="fill: #ffffff"/>
   </g>
   <g id="matplotlib.axis_1">
    <g id="xtick_1">
     <g id="line2d_1">
      <path d="M 75.176376 529.308125 
L 75.176376 23.837812 
" clip-path="url(#p31fd695f46)" style="fill: none; stroke: #b0b0b0; stroke-opacity: 0.3; stroke-width: 0.8; stroke-linecap: square"/>
     </g>
     <g id="line2d_2">
      <defs>
       <path id="m6c3b3b7acf" d="M 0 0 
L 0 3.5 
" style="stroke: #000000; stroke-width: 0.8"/>
      </defs>
      <g>
       <use xlink:href="#m6c3b3b7acf" x="75.176376" y="529.308125" style="stroke: #000000; stroke-width: 0.8"/>
      </g>
     </g>
     <g id="text_1">
      <text style="font: 10px 'DejaVu Sans', 'Bitstream Vera Sans', 'Computer Modern Sans Serif', 'Lucida Grande', 'Verdana', 'Geneva', 'Lucid', 'Arial', 'Helvetica', 'Avant Garde', sans-serif; text-anchor: middle" x="75.176376" y="543.906563" transform="rotate(-0 75.176376 543.906563)">70</text>
     </g>
    </g>
    <g id="xtick_2">
     <g id="line2d_3">
      <path d="M 173.018431 529.308125 
L 173.018431 23.837812 
" clip-path="url(#p31fd695f46)" style="fill: none; stroke: #b0b0b0; stroke-opacity: 0.3; stroke-width: 0.8; stroke-linecap: square"/>
     </g>
     <g id="line2d_4">
      <g>
       <use xlink:href="#m6c3b3b7acf" x="173.018431" y="529.308125" style="stroke: #000000; stroke-width: 0.8"/>
      </g>
     </g>
     <g id="text_2">
      <text style="font: 10px 'DejaVu Sans', 'Bitstream Vera Sans', 'Computer Modern Sans Serif', 'Lucida Grande', 'Verdana', 'Geneva', 'Lucid', 'Arial', 'Helvetica', 'Avant Garde', sans-serif; text-anchor: middle" x="173.018431" y="543.906563" transform="rotate(-0 173.018431 543.906563)">75</text>
     </g>
    </g>
    <g id="xtick_3">
     <g id="line2d_5">
      <path d="M 270.860485 529.308125 
L 270.860485 23.837812 
" clip-path="url(#p31fd695f46)" style="fill: none; stroke: #b0b0b0; stroke-opacity: 0.3; stroke-width: 0.8; stroke-linecap: square"/>
     </g>
     <g id="line2d_6">
      <g>
       <use xlink:href="#m6c3b3b7acf" x="270.860485" y="529.308125" style="stroke: #000000; stroke-width: 0.8"/>
      </g>
     </g>
     <g id="text_3">
      <text style="font: 10px 'DejaVu Sans', 'Bitstream Vera Sans', 'Computer Modern Sans Serif', 'Lucida Grande', 'Verdana', 'Geneva', 'Lucid', 'Arial', 'Helvetica', 'Avant Garde', sans-serif; text-anchor: middle" x="270.860485" y="543.906563" transform="rotate(-0 270.860485 543.906563)">80</text>
     </g>
    </g>
    <g id="xtick_4">
     <g id="line2d_7">
      <path d="M 368.70254 529.308125 
L 368.70254 23.837812 
" clip-path="url(#p31fd695f46)" style="fill: none; stroke: #b0b0b0; stroke-opacity: 0.3; stroke-width: 0.8; stroke-linecap: square"/>
     </g>
     <g id="line2d_8">
      <g>
       <use xlink:href="#m6c3b3b7acf" x="368.70254" y="529.308125" style="stroke: #000000; stroke-width: 0.8"/>
      </g>
     </g>
     <g id="text_4">
      <text style="font: 10px 'DejaVu Sans', 'Bitstream Vera Sans', 'Computer Modern Sans Serif', 'Lucida Grande', 'Verdana', 'Geneva', 'Lucid', 'Arial', 'Helvetica', 'Avant Garde', sans-serif; text-anchor: middle" x="368.70254" y="543.906563" transform="rotate(-0 368.70254 543.906563)">85</text>
     </g>
    </g>
    <g id="xtick_5">
     <g id="line2d_9">
      <path d="M 466.544594 529.308125 
L 466.544594 23.837812 
" clip-path="url(#p31fd695f46)" style="fill: none; stroke: #b0b0b0; stroke-opacity: 0.3; stroke-width: 0.8; stroke-linecap: square"/>
     </g>
     <g id="line2d_10">
      <g>
       <use xlink:href="#m6c3b3b7acf" x="466.544594" y="529.308125" style="stroke: #000000; stroke-width: 0.8"/>
      </g>
     </g>
     <g id="text_5">
      <text style="font: 10px 'DejaVu Sans', 'Bitstream Vera Sans', 'Computer Modern Sans Serif', 'Lucida Grande', 'Verdana', 'Geneva', 'Lucid', 'Arial', 'Helvetica', 'Avant Garde', sans-serif; text-anchor: middle" x="466.544594" y="543.906563" transform="rotate(-0 466.544594 543.906563)">90</text>
     </g>
    </g>
    <g id="xtick_6">
     <g id="line2d_11">
      <path d="M 564.386649 529.308125 
L 564.386649 23.837812 
" clip-path="url(#p31fd695f46)" style="fill: none; stroke: #b0b0b0; stroke-opacity: 0.3; stroke-width: 0.8; stroke-linecap: square"/>
     </g>
     <g id="line2d_12">
      <g>
       <use xlink:href="#m6c3b3b7acf" x="564.386649" y="529.308125" style="stroke: #000000; stroke-width: 0.8"/>
      </g>
     </g>
     <g id="text_6">
      <text style="font: 10px 'DejaVu Sans', 'Bitstream Vera Sans', 'Computer Modern Sans Serif', 'Lucida Grande', 'Verdana', 'Geneva', 'Lucid', 'Arial', 'Helvetica', 'Avant Garde', sans-serif; text-anchor: middle" x="564.386649" y="543.906563" transform="rotate(-0 564.386649 543.906563)">95</text>
     </g>
    </g>
    <g id="xtick_7">
     <g id="line2d_13">
      <path d="M 662.228704 529.308125 
L 662.228704 23.837812 
" clip-path="url(#p31fd695f46)" style="fill: none; stroke: #b0b0b0; stroke-opacity: 0.3; stroke-width: 0.8; stroke-linecap: square"/>
     </g>
     <g id="line2d_14">
      <g>
       <use xlink:href="#m6c3b3b7acf" x="662.228704" y="529.308125" style="stroke: #000000; stroke-width: 0.8"/>
      </g>
     </g>
     <g id="text_7">
      <text style="font: 10px 'DejaVu Sans', 'Bitstream Vera Sans', 'Computer Modern Sans Serif', 'Lucida Grande', 'Verdana', 'Geneva', 'Lucid', 'Arial', 'Helvetica', 'Avant Garde', sans-serif; text-anchor: middle" x="662.228704" y="543.906563" transform="rotate(-0 662.228704 543.906563)">100</text>
     </g>
    </g>
    <g id="text_8">
     <text style="font: 12px 'DejaVu Sans', 'Bitstream Vera Sans', 'Computer Modern Sans Serif', 'Lucida Grande', 'Verdana', 'Geneva', 'Lucid', 'Arial', 'Helvetica', 'Avant Garde', sans-serif; text-anchor: middle" x="398.055156" y="559.104375" transform="rotate(-0 398.055156 559.104375)">Build Number</text>
    </g>
   </g>
   <g id="matplotlib.axis_2">
    <g id="ytick_1">
     <g id="line2d_15">
      <defs>
       <path id="m51cef4c2ad" d="M 0 0 
L -2 0 
" style="stroke: #000000; stroke-width: 0.6"/>
      </defs>
      <g>
       <use xlink:href="#m51cef4c2ad" x="64.41375" y="482.905893" style="stroke: #000000; stroke-width: 0.6"/>
      </g>
     </g>
     <g id="text_9">
      <!-- $\mathdefault{4\times10^{0}}$ -->
      <g transform="translate(22.81375 486.705112)">
       <text>
        <tspan style="font: 10px 'DejaVu Sans'" x="0 8.310547 18.637695 25" y="-0.9765625">4×10</tspan>
        <tspan style="font: 7px 'DejaVu Sans'" x="31.458008" y="-4.8046875">0</tspan>
       </text>
      </g>
     </g>
    </g>
    <g id="ytick_2">
     <g id="line2d_16">
      <g>
       <use xlink:href="#m51cef4c2ad" x="64.41375" y="253.199313" style="stroke: #000000; stroke-width: 0.6"/>
      </g>
     </g>
     <g id="text_10">
      <!-- $\mathdefault{5\times10^{0}}$ -->
      <g transform="translate(22.81375 256.998532)">
       <text>
        <tspan style="font: 10px 'DejaVu Sans'" x="0 8.310547 18.637695 25" y="-0.9765625">5×10</tspan>
        <tspan style="font: 7px 'DejaVu Sans'" x="31.458008" y="-4.8046875">0</tspan>
       </text>
      </g>
     </g>
    </g>
    <g id="ytick_3">
     <g id="line2d_17">
      <g>
       <use xlink:href="#m51cef4c2ad" x="64.41375" y="65.515371" style="stroke: #000000; stroke-width: 0.6"/>
      </g>
     </g>
     <g id="text_11">
      <!-- $\mathdefault{6\times10^{0}}$ -->
      <g transform="translate(22.81375 69.31459)">
       <text>
        <tspan style="font: 10px 'DejaVu Sans'" x="0 8.310547 18.637695 25" y="-0.9765625">6×10</tspan>
        <tspan style="font: 7px 'DejaVu Sans'" x="31.458008" y="-4.8046875">0</tspan>
       </text>
      </g>
     </g>
    </g>
    <g id="text_12">
     <text style="font: 12px 'DejaVu Sans', 'Bitstream Vera Sans', 'Computer Modern Sans Serif', 'Lucida Grande', 'Verdana', 'Geneva', 'Lucid', 'Arial', 'Helvetica', 'Avant Garde', sans-serif; text-anchor: middle" x="16.318125" y="276.572969" transform="rotate(-90 16.318125 276.572969)">Median Elapsed Time (nanoseconds)</text>
    </g>
   </g>
   <g id="line2d_18">
    <path d="M 94.744787 430.232661 
L 114.313198 430.232661 
L 133.881609 430.232661 
L 153.45002 430.232661 
L 173.018431 430.232661 
L 192.586842 430.232661 
L 212.155252 430.232661 
L 231.723663 430.232661 
L 251.292074 430.232661 
L 270.860485 430.232661 
L 290.428896 430.232661 
L 309.997307 432.680728 
L 329.565718 430.232661 
L 368.70254 432.680728 
L 388.270951 432.680728 
L 427.407773 430.232661 
L 446.976184 430.232661 
L 466.544594 430.232661 
L 486.113005 454.979326 
L 505.681416 430.232661 
L 544.818238 430.232661 
L 564.386649 430.232661 
L 583.95506 430.232661 
L 603.523471 430.232661 
L 642.660293 432.680728 
L 662.228704 432.680728 
L 681.797115 430.232661 
L 701.365526 432.680728 
" clip-path="url(#p31fd695f46)" style="fill: none; stroke: #1f77b4; stroke-width: 2; stroke-linecap: square"/>
    <defs>
     <path id="m12f345abb9" d="M 0 3 
C 0.795609 3 1.55874 2.683901 2.12132 2.12132 
C 2.683901 1.55874 3 0.795609 3 0 
C 3 -0.795609 2.683901 -1.55874 2.12132 -2.12132 
C 1.55874 -2.683901 0.795609 -3 0 -3 
C -0.795609 -3 -1.55874 -2.683901 -2.12132 -2.12132 
C -2.683901 -1.55874 -3 -0.795609 -3 0 
C -3 0.795609 -2.683901 1.55874 -2.12132 2.12132 
C -1.55874 2.683901 -0.795609 3 0 3 
z
" style="stroke: #1f77b4"/>
    </defs>
    <g clip-path="url(#p31fd695f46)">
     <use xlink:href="#m12f345abb9" x="94.744787" y="430.232661" style="fill: #1f77b4; stroke: #1f77b4"/>
     <use xlink:href="#m12f345abb9" x="114.313198" y="430.232661" style="fill: #1f77b4; stroke: #1f77b4"/>
     <use xlink:href="#m12f345abb9" x="133.881609" y="430.232661" style="fill: #1f77b4; stroke: #1f77b4"/>
     <use xlink:href="#m12f345abb9" x="153.45002" y="430.232661" style="fill: #1f77b4; stroke: #1f77b4"/>
     <use xlink:href="#m12f345abb9" x="173.018431" y="430.232661" style="fill: #1f77b4; stroke: #1f77b4"/>
     <use xlink:href="#m12f345abb9" x="192.586842" y="430.232661" style="fill: #1f77b4; stroke: #1f77b4"/>
     <use xlink:href="#m12f345abb9" x="212.155252" y="430.232661" style="fill: #1f77b4; stroke: #1f77b4"/>
     <use xlink:href="#m12f345abb9" x="231.723663" y="430.232661" style="fill: #1f77b4; stroke: #1f77b4"/>
     <use xlink:href="#m12f345abb9" x="251.292074" y="430.232661" style="fill: #1f77b4; stroke: #1f77b4"/>
     <use xlink:href="#m12f345abb9" x="270.860485" y="430.232661" style="fill: #1f77b4; stroke: #1f77b4"/>
     <use xlink:href="#m12f345abb9" x="290.428896" y="430.232661" style="fill: #1f77b4; stroke: #1f77b4"/>
     <use xlink:href="#m12f345abb9" x="309.997307" y="432.680728" style="fill: #1f77b4; stroke: #1f77b4"/>
     <use xlink:href="#m12f345abb9" x="329.565718" y="430.232661" style="fill: #1f77b4; stroke: #1f77b4"/>
     <use xlink:href="#m12f345abb9" x="368.70254" y="432.680728" style="fill: #1f77b4; stroke: #1f77b4"/>
     <use xlink:href="#m12f345abb9" x="388.270951" y="432.680728" style="fill: #1f77b4; stroke: #1f77b4"/>
     <use xlink:href="#m12f345abb9" x="427.407773" y="430.232661" style="fill: #1f77b4; stroke: #1f77b4"/>
     <use xlink:href="#m12f345abb9" x="446.976184" y="430.232661" style="fill: #1f77b4; stroke: #1f77b4"/>
     <use xlink:href="#m12f345abb9" x="466.544594" y="430.232661" style="fill: #1f77b4; stroke: #1f77b4"/>
     <use xlink:href="#m12f345abb9" x="486.113005" y="454.979326" style="fill: #1f77b4; stroke: #1f77b4"/>
     <use xlink:href="#m12f345abb9" x="505.681416" y="430.232661" style="fill: #1f77b4; stroke: #1f77b4"/>
     <use xlink:href="#m12f345abb9" x="544.818238" y="430.232661" style="fill: #1f77b4; stroke: #1f77b4"/>
     <use xlink:href="#m12f345abb9" x="564.386649" y="430.232661" style="fill: #1f77b4; stroke: #1f77b4"/>
     <use xlink:href="#m12f345abb9" x="583.95506" y="430.232661" style="fill: #1f77b4; stroke: #1f77b4"/>
     <use xlink:href="#m12f345abb9" x="603.523471" y="430.232661" style="fill: #1f77b4; stroke: #1f77b4"/>
     <use xlink:href="#m12f345abb9" x="642.660293" y="432.680728" style="fill: #1f77b4; stroke: #1f77b4"/>
     <use xlink:href="#m12f345abb9" x="662.228704" y="432.680728" style="fill: #1f77b4; stroke: #1f77b4"/>
     <use xlink:href="#m12f345abb9" x="681.797115" y="430.232661" style="fill: #1f77b4; stroke: #1f77b4"/>
     <use xlink:href="#m12f345abb9" x="701.365526" y="432.680728" style="fill: #1f77b4; stroke: #1f77b4"/>
    </g>
   </g>
   <g id="line2d_19">
    <path d="M 94.744787 506.332202 
L 114.313198 406.066957 
L 133.881609 408.458159 
L 153.45002 430.232661 
L 173.018431 408.458159 
L 192.586842 430.232661 
L 212.155252 430.232661 
L 231.723663 408.458159 
L 251.292074 430.232661 
L 270.860485 406.066957 
L 290.428896 430.232661 
L 309.997307 408.458159 
L 329.565718 406.066957 
L 349.134129 406.066957 
L 368.70254 430.232661 
L 388.270951 408.458159 
L 427.407773 408.458159 
L 446.976184 408.458159 
L 466.544594 430.232661 
L 486.113005 406.066957 
L 505.681416 408.458159 
L 525.249827 408.458159 
L 544.818238 408.458159 
L 564.386649 406.066957 
L 583.95506 408.458159 
L 603.523471 46.813736 
L 642.660293 430.232661 
L 662.228704 430.232661 
L 681.797115 408.458159 
L 701.365526 406.066957 
" clip-path="url(#p31fd695f46)" style="fill: none; stroke: #ff7f0e; stroke-width: 2; stroke-linecap: square"/>
    <defs>
     <path id="med0afb0883" d="M 0 3 
C 0.795609 3 1.55874 2.683901 2.12132 2.12132 
C 2.683901 1.55874 3 0.795609 3 0 
C 3 -0.795609 2.683901 -1.55874 2.12132 -2.12132 
C 1.55874 -2.683901 0.795609 -3 0 -3 
C -0.795609 -3 -1.55874 -2.683901 -2.12132 -2.12132 
C -2.683901 -1.55874 -3 -0.795609 -3 0 
C -3 0.795609 -2.683901 1.55874 -2.12132 2.12132 
C -1.55874 2.683901 -0.795609 3 0 3 
z
" style="stroke: #ff7f0e"/>
    </defs>
    <g clip-path="url(#p31fd695f46)">
     <use xlink:href="#med0afb0883" x="94.744787" y="506.332202" style="fill: #ff7f0e; stroke: #ff7f0e"/>
     <use xlink:href="#med0afb0883" x="114.313198" y="406.066957" style="fill: #ff7f0e; stroke: #ff7f0e"/>
     <use xlink:href="#med0afb0883" x="133.881609" y="408.458159" style="fill: #ff7f0e; stroke: #ff7f0e"/>
     <use xlink:href="#med0afb0883" x="153.45002" y="430.232661" style="fill: #ff7f0e; stroke: #ff7f0e"/>
     <use xlink:href="#med0afb0883" x="173.018431" y="408.458159" style="fill: #ff7f0e; stroke: #ff7f0e"/>
     <use xlink:href="#med0afb0883" x="192.586842" y="430.232661" style="fill: #ff7f0e; stroke: #ff7f0e"/>
     <use xlink:href="#med0afb0883" x="212.155252" y="430.232661" style="fill: #ff7f0e; stroke: #ff7f0e"/>
     <use xlink:href="#med0afb0883" x="231.723663" y="408.458159" style="fill: #ff7f0e; stroke: #ff7f0e"/>
     <use xlink:href="#med0afb0883" x="251.292074" y="430.232661" style="fill: #ff7f0e; stroke: #ff7f0e"/>
     <use xlink:href="#med0afb0883" x="270.860485" y="406.066957" style="fill: #ff7f0e; stroke: #ff7f0e"/>
     <use xlink:href="#med0afb0883" x="290.428896" y="430.232661" style="fill: #ff7f0e; stroke: #ff7f0e"/>
     <use xlink:href="#med0afb0883" x="309.997307" y="408.458159" style="fill: #ff7f0e; stroke: #ff7f0e"/>
     <use xlink:href="#med0afb0883" x="329.565718" y="406.066957" style="fill: #ff7f0e; stroke: #ff7f0e"/>
     <use xlink:href="#med0afb0883" x="349.134129" y="406.066957" style="fill: #ff7f0e; stroke: #ff7f0e"/>
     <use xlink:href="#med0afb0883" x="368.70254" y="430.232661" style="fill: #ff7f0e; stroke: #ff7f0e"/>
     <use xlink:href="#med0afb0883" x="388.270951" y="408.458159" style="fill: #ff7f0e; stroke: #ff7f0e"/>
     <use xlink:href="#med0afb0883" x="427.407773" y="408.458159" style="fill: #ff7f0e; stroke: #ff7f0e"/>
     <use xlink:href="#med0afb0883" x="446.976184" y="408.458159" style="fill: #ff7f0e; stroke: #ff7f0e"/>
     <use xlink:href="#med0afb0883" x="466.544594" y="430.232661" style="fill: #ff7f0e; stroke: #ff7f0e"/>
     <use xlink:href="#med0afb0883" x="486.113005" y="406.066957" style="fill: #ff7f0e; stroke: #ff7f0e"/>
     <use xlink:href="#med0afb0883" x="505.681416" y="408.458159" style="fill: #ff7f0e; stroke: #ff7f0e"/>
     <use xlink:href="#med0afb0883" x="525.249827" y="408.458159" style="fill: #ff7f0e; stroke: #ff7f0e"/>
     <use xlink:href="#med0afb0883" x="544.818238" y="408.458159" style="fill: #ff7f0e; stroke: #ff7f0e"/>
     <use xlink:href="#med0afb0883" x="564.386649" y="406.066957" style="fill: #ff7f0e; stroke: #ff7f0e"/>
     <use xlink:href="#med0afb0883" x="583.95506" y="408.458159" style="fill: #ff7f0e; stroke: #ff7f0e"/>
     <use xlink:href="#med0afb0883" x="603.523471" y="46.813736" style="fill: #ff7f0e; stroke: #ff7f0e"/>
     <use xlink:href="#med0afb0883" x="642.660293" y="430.232661" style="fill: #ff7f0e; stroke: #ff7f0e"/>
     <use xlink:href="#med0afb0883" x="662.228704" y="430.232661" style="fill: #ff7f0e; stroke: #ff7f0e"/>
     <use xlink:href="#med0afb0883" x="681.797115" y="408.458159" style="fill: #ff7f0e; stroke: #ff7f0e"/>
     <use xlink:href="#med0afb0883" x="701.365526" y="406.066957" style="fill: #ff7f0e; stroke: #ff7f0e"/>
    </g>
   </g>
   <g id="patch_3">
    <path d="M 64.41375 529.308125 
L 64.41375 23.837812 
" style="fill: none; stroke: #000000; stroke-width: 0.8; stroke-linejoin: miter; stroke-linecap: square"/>
   </g>
   <g id="patch_4">
    <path d="M 731.696562 529.308125 
L 731.696562 23.837812 
" style="fill: none; stroke: #000000; stroke-width: 0.8; stroke-linejoin: miter; stroke-linecap: square"/>
   </g>
   <g id="patch_5">
    <path d="M 64.41375 529.308125 
L 731.696562 529.308125 
" style="fill: none; stroke: #000000; stroke-width: 0.8; stroke-linejoin: miter; stroke-linecap: square"/>
   </g>
   <g id="patch_6">
    <path d="M 64.41375 23.837812 
L 731.696562 23.837812 
" style="fill: none; stroke: #000000; stroke-width: 0.8; stroke-linejoin: miter; stroke-linecap: square"/>
   </g>
   <g id="text_13">
    <text style="font: 700 14px 'DejaVu Sans', 'Bitstream Vera Sans', 'Computer Modern Sans Serif', 'Lucida Grande', 'Verdana', 'Geneva', 'Lucid', 'Arial', 'Helvetica', 'Avant Garde', sans-serif; text-anchor: middle" x="398.055156" y="17.837813" transform="rotate(-0 398.055156 17.837813)">Ts Thread Local Single Thread - Performance Trend</text>
   </g>
   <g id="legend_1">
    <g id="patch_7">
     <path d="M 772.060703 61.194063 
L 847.484141 61.194063 
Q 849.484141 61.194063 849.484141 59.194063 
L 849.484141 30.837813 
Q 849.484141 28.837813 847.484141 28.837813 
L 772.060703 28.837813 
Q 770.060703 28.837813 770.060703 30.837813 
L 770.060703 59.194063 
Q 770.060703 61.194063 772.060703 61.194063 
z
" style="fill: #ffffff; opacity: 0.8; stroke: #cccccc; stroke-linejoin: miter"/>
    </g>
    <g id="line2d_20">
     <path d="M 774.060703 36.93625 
L 784.060703 36.93625 
L 794.060703 36.93625 
" style="fill: none; stroke: #1f77b4; stroke-width: 2; stroke-linecap: square"/>
     <g>
      <use xlink:href="#m12f345abb9" x="784.060703" y="36.93625" style="fill: #1f77b4; stroke: #1f77b4"/>
     </g>
    </g>
    <g id="text_14">
     <text style="font: 10px 'DejaVu Sans', 'Bitstream Vera Sans', 'Computer Modern Sans Serif', 'Lucida Grande', 'Verdana', 'Geneva', 'Lucid', 'Arial', 'Helvetica', 'Avant Garde', sans-serif; text-anchor: start" x="802.060703" y="40.43625" transform="rotate(-0 802.060703 40.43625)">clang-18</text>
    </g>
    <g id="line2d_21">
     <path d="M 774.060703 51.614375 
L 784.060703 51.614375 
L 794.060703 51.614375 
" style="fill: none; stroke: #ff7f0e; stroke-width: 2; stroke-linecap: square"/>
     <g>
      <use xlink:href="#med0afb0883" x="784.060703" y="51.614375" style="fill: #ff7f0e; stroke: #ff7f0e"/>
     </g>
    </g>
    <g id="text_15">
     <text style="font: 10px 'DejaVu Sans', 'Bitstream Vera Sans', 'Computer Modern Sans Serif', 'Lucida Grande', 'Verdana', 'Geneva', 'Lucid', 'Arial', 'Helvetica', 'Avant Garde', sans-serif; text-anchor: start" x="802.060703" y="55.114375" transform="rotate(-0 802.060703 55.114375)">gcc-14</text>
    </g>
   </g>
  </g>
 </g>
 <defs>
  <clipPath id="p31fd695f46">
   <rect x="64.41375" y="23.837813" width="667.282812" height="505.470313"/>
  </clipPath>
 </defs>
</svg>
