<?xml version="1.0" encoding="utf-8" standalone="no"?>
<!DOCTYPE svg PUBLIC "-//W3C//DTD SVG 1.1//EN"
  "http://www.w3.org/Graphics/SVG/1.1/DTD/svg11.dtd">
<svg xmlns:xlink="http://www.w3.org/1999/xlink" width="847.981719pt" height="568.8pt" viewBox="0 0 847.981719 568.8" xmlns="http://www.w3.org/2000/svg" version="1.1">
 <metadata>
  <rdf:RDF xmlns:dc="http://purl.org/dc/elements/1.1/" xmlns:cc="http://creativecommons.org/ns#" xmlns:rdf="http://www.w3.org/1999/02/22-rdf-syntax-ns#">
   <cc:Work>
    <dc:type rdf:resource="http://purl.org/dc/dcmitype/StillImage"/>
    <dc:date>2025-08-28T18:43:40.119745</dc:date>
    <dc:format>image/svg+xml</dc:format>
    <dc:creator>
     <cc:Agent>
      <dc:title>Matplotlib v3.9.4, https://matplotlib.org/</dc:title>
     </cc:Agent>
    </dc:creator>
   </cc:Work>
  </rdf:RDF>
 </metadata>
 <defs>
  <style type="text/css">*{stroke-linejoin: round; stroke-linecap: butt}</style>
 </defs>
 <g id="figure_1">
  <g id="patch_1">
   <path d="M 0 568.8 
L 847.981719 568.8 
L 847.981719 0 
L 0 0 
z
" style="fill: #ffffff"/>
  </g>
  <g id="axes_1">
   <g id="patch_2">
    <path d="M 47.41375 529.308125 
L 540.648125 529.308125 
L 540.648125 23.837812 
L 47.41375 23.837812 
z
" style="fill: #ffffff"/>
   </g>
   <g id="matplotlib.axis_1">
    <g id="xtick_1">
     <g id="line2d_1">
      <path d="M 69.833494 529.308125 
L 69.833494 23.837812 
" clip-path="url(#p5bffc25bdc)" style="fill: none; stroke: #b0b0b0; stroke-opacity: 0.3; stroke-width: 0.8; stroke-linecap: square"/>
     </g>
     <g id="line2d_2">
      <defs>
       <path id="mca1676c866" d="M 0 0 
L 0 3.5 
" style="stroke: #000000; stroke-width: 0.8"/>
      </defs>
      <g>
       <use xlink:href="#mca1676c866" x="69.833494" y="529.308125" style="stroke: #000000; stroke-width: 0.8"/>
      </g>
     </g>
     <g id="text_1">
      <text style="font: 10px 'DejaVu Sans', 'Bitstream Vera Sans', 'Computer Modern Sans Serif', 'Lucida Grande', 'Verdana', 'Geneva', 'Lucid', 'Arial', 'Helvetica', 'Avant Garde', sans-serif; text-anchor: middle" x="69.833494" y="543.906563" transform="rotate(-0 69.833494 543.906563)">96</text>
     </g>
    </g>
    <g id="xtick_2">
     <g id="line2d_3">
      <path d="M 138.817323 529.308125 
L 138.817323 23.837812 
" clip-path="url(#p5bffc25bdc)" style="fill: none; stroke: #b0b0b0; stroke-opacity: 0.3; stroke-width: 0.8; stroke-linecap: square"/>
     </g>
     <g id="line2d_4">
      <g>
       <use xlink:href="#mca1676c866" x="138.817323" y="529.308125" style="stroke: #000000; stroke-width: 0.8"/>
      </g>
     </g>
     <g id="text_2">
      <text style="font: 10px 'DejaVu Sans', 'Bitstream Vera Sans', 'Computer Modern Sans Serif', 'Lucida Grande', 'Verdana', 'Geneva', 'Lucid', 'Arial', 'Helvetica', 'Avant Garde', sans-serif; text-anchor: middle" x="138.817323" y="543.906563" transform="rotate(-0 138.817323 543.906563)">98</text>
     </g>
    </g>
    <g id="xtick_3">
     <g id="line2d_5">
      <path d="M 207.801152 529.308125 
L 207.801152 23.837812 
" clip-path="url(#p5bffc25bdc)" style="fill: none; stroke: #b0b0b0; stroke-opacity: 0.3; stroke-width: 0.8; stroke-linecap: square"/>
     </g>
     <g id="line2d_6">
      <g>
       <use xlink:href="#mca1676c866" x="207.801152" y="529.308125" style="stroke: #000000; stroke-width: 0.8"/>
      </g>
     </g>
     <g id="text_3">
      <text style="font: 10px 'DejaVu Sans', 'Bitstream Vera Sans', 'Computer Modern Sans Serif', 'Lucida Grande', 'Verdana', 'Geneva', 'Lucid', 'Arial', 'Helvetica', 'Avant Garde', sans-serif; text-anchor: middle" x="207.801152" y="543.906563" transform="rotate(-0 207.801152 543.906563)">100</text>
     </g>
    </g>
    <g id="xtick_4">
     <g id="line2d_7">
      <path d="M 276.78498 529.308125 
L 276.78498 23.837812 
" clip-path="url(#p5bffc25bdc)" style="fill: none; stroke: #b0b0b0; stroke-opacity: 0.3; stroke-width: 0.8; stroke-linecap: square"/>
     </g>
     <g id="line2d_8">
      <g>
       <use xlink:href="#mca1676c866" x="276.78498" y="529.308125" style="stroke: #000000; stroke-width: 0.8"/>
      </g>
     </g>
     <g id="text_4">
      <text style="font: 10px 'DejaVu Sans', 'Bitstream Vera Sans', 'Computer Modern Sans Serif', 'Lucida Grande', 'Verdana', 'Geneva', 'Lucid', 'Arial', 'Helvetica', 'Avant Garde', sans-serif; text-anchor: middle" x="276.78498" y="543.906563" transform="rotate(-0 276.78498 543.906563)">102</text>
     </g>
    </g>
    <g id="xtick_5">
     <g id="line2d_9">
      <path d="M 345.768809 529.308125 
L 345.768809 23.837812 
" clip-path="url(#p5bffc25bdc)" style="fill: none; stroke: #b0b0b0; stroke-opacity: 0.3; stroke-width: 0.8; stroke-linecap: square"/>
     </g>
     <g id="line2d_10">
      <g>
       <use xlink:href="#mca1676c866" x="345.768809" y="529.308125" style="stroke: #000000; stroke-width: 0.8"/>
      </g>
     </g>
     <g id="text_5">
      <text style="font: 10px 'DejaVu Sans', 'Bitstream Vera Sans', 'Computer Modern Sans Serif', 'Lucida Grande', 'Verdana', 'Geneva', 'Lucid', 'Arial', 'Helvetica', 'Avant Garde', sans-serif; text-anchor: middle" x="345.768809" y="543.906563" transform="rotate(-0 345.768809 543.906563)">104</text>
     </g>
    </g>
    <g id="xtick_6">
     <g id="line2d_11">
      <path d="M 414.752638 529.308125 
L 414.752638 23.837812 
" clip-path="url(#p5bffc25bdc)" style="fill: none; stroke: #b0b0b0; stroke-opacity: 0.3; stroke-width: 0.8; stroke-linecap: square"/>
     </g>
     <g id="line2d_12">
      <g>
       <use xlink:href="#mca1676c866" x="414.752638" y="529.308125" style="stroke: #000000; stroke-width: 0.8"/>
      </g>
     </g>
     <g id="text_6">
      <text style="font: 10px 'DejaVu Sans', 'Bitstream Vera Sans', 'Computer Modern Sans Serif', 'Lucida Grande', 'Verdana', 'Geneva', 'Lucid', 'Arial', 'Helvetica', 'Avant Garde', sans-serif; text-anchor: middle" x="414.752638" y="543.906563" transform="rotate(-0 414.752638 543.906563)">106</text>
     </g>
    </g>
    <g id="xtick_7">
     <g id="line2d_13">
      <path d="M 483.736466 529.308125 
L 483.736466 23.837812 
" clip-path="url(#p5bffc25bdc)" style="fill: none; stroke: #b0b0b0; stroke-opacity: 0.3; stroke-width: 0.8; stroke-linecap: square"/>
     </g>
     <g id="line2d_14">
      <g>
       <use xlink:href="#mca1676c866" x="483.736466" y="529.308125" style="stroke: #000000; stroke-width: 0.8"/>
      </g>
     </g>
     <g id="text_7">
      <text style="font: 10px 'DejaVu Sans', 'Bitstream Vera Sans', 'Computer Modern Sans Serif', 'Lucida Grande', 'Verdana', 'Geneva', 'Lucid', 'Arial', 'Helvetica', 'Avant Garde', sans-serif; text-anchor: middle" x="483.736466" y="543.906563" transform="rotate(-0 483.736466 543.906563)">108</text>
     </g>
    </g>
    <g id="text_8">
     <text style="font: 12px 'DejaVu Sans', 'Bitstream Vera Sans', 'Computer Modern Sans Serif', 'Lucida Grande', 'Verdana', 'Geneva', 'Lucid', 'Arial', 'Helvetica', 'Avant Garde', sans-serif; text-anchor: middle" x="294.030937" y="559.104375" transform="rotate(-0 294.030937 559.104375)">Build Number</text>
    </g>
   </g>
   <g id="matplotlib.axis_2">
    <g id="ytick_1">
     <g id="line2d_15">
      <path d="M 47.41375 518.657235 
L 540.648125 518.657235 
" clip-path="url(#p5bffc25bdc)" style="fill: none; stroke: #b0b0b0; stroke-opacity: 0.3; stroke-width: 0.8; stroke-linecap: square"/>
     </g>
     <g id="line2d_16">
      <defs>
       <path id="me6e2bc1183" d="M 0 0 
L -3.5 0 
" style="stroke: #000000; stroke-width: 0.8"/>
      </defs>
      <g>
       <use xlink:href="#me6e2bc1183" x="47.41375" y="518.657235" style="stroke: #000000; stroke-width: 0.8"/>
      </g>
     </g>
     <g id="text_9">
      <!-- $\mathdefault{10^{5}}$ -->
      <g transform="translate(22.81375 522.456454)">
       <text>
        <tspan style="font: 10px 'DejaVu Sans'" x="0 6.362305" y="-0.06406250000000036">10</tspan>
        <tspan style="font: 7px 'DejaVu Sans'" x="12.820312" y="-3.8921875000000004">5</tspan>
       </text>
      </g>
     </g>
    </g>
    <g id="ytick_2">
     <g id="line2d_17">
      <path d="M 47.41375 361.458702 
L 540.648125 361.458702 
" clip-path="url(#p5bffc25bdc)" style="fill: none; stroke: #b0b0b0; stroke-opacity: 0.3; stroke-width: 0.8; stroke-linecap: square"/>
     </g>
     <g id="line2d_18">
      <g>
       <use xlink:href="#me6e2bc1183" x="47.41375" y="361.458702" style="stroke: #000000; stroke-width: 0.8"/>
      </g>
     </g>
     <g id="text_10">
      <!-- $\mathdefault{10^{6}}$ -->
      <g transform="translate(22.81375 365.257921)">
       <text>
        <tspan style="font: 10px 'DejaVu Sans'" x="0 6.362305" y="-0.9765625">10</tspan>
        <tspan style="font: 7px 'DejaVu Sans'" x="12.820312" y="-4.8046875">6</tspan>
       </text>
      </g>
     </g>
    </g>
    <g id="ytick_3">
     <g id="line2d_19">
      <path d="M 47.41375 204.260169 
L 540.648125 204.260169 
" clip-path="url(#p5bffc25bdc)" style="fill: none; stroke: #b0b0b0; stroke-opacity: 0.3; stroke-width: 0.8; stroke-linecap: square"/>
     </g>
     <g id="line2d_20">
      <g>
       <use xlink:href="#me6e2bc1183" x="47.41375" y="204.260169" style="stroke: #000000; stroke-width: 0.8"/>
      </g>
     </g>
     <g id="text_11">
      <!-- $\mathdefault{10^{7}}$ -->
      <g transform="translate(22.81375 208.059388)">
       <text>
        <tspan style="font: 10px 'DejaVu Sans'" x="0 6.362305" y="-0.06406250000000036">10</tspan>
        <tspan style="font: 7px 'DejaVu Sans'" x="12.820312" y="-3.8921875000000004">7</tspan>
       </text>
      </g>
     </g>
    </g>
    <g id="ytick_4">
     <g id="line2d_21">
      <path d="M 47.41375 47.061636 
L 540.648125 47.061636 
" clip-path="url(#p5bffc25bdc)" style="fill: none; stroke: #b0b0b0; stroke-opacity: 0.3; stroke-width: 0.8; stroke-linecap: square"/>
     </g>
     <g id="line2d_22">
      <g>
       <use xlink:href="#me6e2bc1183" x="47.41375" y="47.061636" style="stroke: #000000; stroke-width: 0.8"/>
      </g>
     </g>
     <g id="text_12">
      <!-- $\mathdefault{10^{8}}$ -->
      <g transform="translate(22.81375 50.860855)">
       <text>
        <tspan style="font: 10px 'DejaVu Sans'" x="0 6.362305" y="-0.9765625">10</tspan>
        <tspan style="font: 7px 'DejaVu Sans'" x="12.820312" y="-4.8046875">8</tspan>
       </text>
      </g>
     </g>
    </g>
    <g id="ytick_5">
     <g id="line2d_23">
      <defs>
       <path id="mc8ef8fceaf" d="M 0 0 
L -2 0 
" style="stroke: #000000; stroke-width: 0.6"/>
      </defs>
      <g>
       <use xlink:href="#mc8ef8fceaf" x="47.41375" y="525.850245" style="stroke: #000000; stroke-width: 0.6"/>
      </g>
     </g>
    </g>
    <g id="ytick_6">
     <g id="line2d_24">
      <g>
       <use xlink:href="#mc8ef8fceaf" x="47.41375" y="471.335761" style="stroke: #000000; stroke-width: 0.6"/>
      </g>
     </g>
    </g>
    <g id="ytick_7">
     <g id="line2d_25">
      <g>
       <use xlink:href="#mc8ef8fceaf" x="47.41375" y="443.654474" style="stroke: #000000; stroke-width: 0.6"/>
      </g>
     </g>
    </g>
    <g id="ytick_8">
     <g id="line2d_26">
      <g>
       <use xlink:href="#mc8ef8fceaf" x="47.41375" y="424.014287" style="stroke: #000000; stroke-width: 0.6"/>
      </g>
     </g>
    </g>
    <g id="ytick_9">
     <g id="line2d_27">
      <g>
       <use xlink:href="#mc8ef8fceaf" x="47.41375" y="408.780176" style="stroke: #000000; stroke-width: 0.6"/>
      </g>
     </g>
    </g>
    <g id="ytick_10">
     <g id="line2d_28">
      <g>
       <use xlink:href="#mc8ef8fceaf" x="47.41375" y="396.333" style="stroke: #000000; stroke-width: 0.6"/>
      </g>
     </g>
    </g>
    <g id="ytick_11">
     <g id="line2d_29">
      <g>
       <use xlink:href="#mc8ef8fceaf" x="47.41375" y="385.809063" style="stroke: #000000; stroke-width: 0.6"/>
      </g>
     </g>
    </g>
    <g id="ytick_12">
     <g id="line2d_30">
      <g>
       <use xlink:href="#mc8ef8fceaf" x="47.41375" y="376.692814" style="stroke: #000000; stroke-width: 0.6"/>
      </g>
     </g>
    </g>
    <g id="ytick_13">
     <g id="line2d_31">
      <g>
       <use xlink:href="#mc8ef8fceaf" x="47.41375" y="368.651712" style="stroke: #000000; stroke-width: 0.6"/>
      </g>
     </g>
    </g>
    <g id="ytick_14">
     <g id="line2d_32">
      <g>
       <use xlink:href="#mc8ef8fceaf" x="47.41375" y="314.137228" style="stroke: #000000; stroke-width: 0.6"/>
      </g>
     </g>
    </g>
    <g id="ytick_15">
     <g id="line2d_33">
      <g>
       <use xlink:href="#mc8ef8fceaf" x="47.41375" y="286.455941" style="stroke: #000000; stroke-width: 0.6"/>
      </g>
     </g>
    </g>
    <g id="ytick_16">
     <g id="line2d_34">
      <g>
       <use xlink:href="#mc8ef8fceaf" x="47.41375" y="266.815755" style="stroke: #000000; stroke-width: 0.6"/>
      </g>
     </g>
    </g>
    <g id="ytick_17">
     <g id="line2d_35">
      <g>
       <use xlink:href="#mc8ef8fceaf" x="47.41375" y="251.581643" style="stroke: #000000; stroke-width: 0.6"/>
      </g>
     </g>
    </g>
    <g id="ytick_18">
     <g id="line2d_36">
      <g>
       <use xlink:href="#mc8ef8fceaf" x="47.41375" y="239.134467" style="stroke: #000000; stroke-width: 0.6"/>
      </g>
     </g>
    </g>
    <g id="ytick_19">
     <g id="line2d_37">
      <g>
       <use xlink:href="#mc8ef8fceaf" x="47.41375" y="228.61053" style="stroke: #000000; stroke-width: 0.6"/>
      </g>
     </g>
    </g>
    <g id="ytick_20">
     <g id="line2d_38">
      <g>
       <use xlink:href="#mc8ef8fceaf" x="47.41375" y="219.494281" style="stroke: #000000; stroke-width: 0.6"/>
      </g>
     </g>
    </g>
    <g id="ytick_21">
     <g id="line2d_39">
      <g>
       <use xlink:href="#mc8ef8fceaf" x="47.41375" y="211.453179" style="stroke: #000000; stroke-width: 0.6"/>
      </g>
     </g>
    </g>
    <g id="ytick_22">
     <g id="line2d_40">
      <g>
       <use xlink:href="#mc8ef8fceaf" x="47.41375" y="156.938695" style="stroke: #000000; stroke-width: 0.6"/>
      </g>
     </g>
    </g>
    <g id="ytick_23">
     <g id="line2d_41">
      <g>
       <use xlink:href="#mc8ef8fceaf" x="47.41375" y="129.257408" style="stroke: #000000; stroke-width: 0.6"/>
      </g>
     </g>
    </g>
    <g id="ytick_24">
     <g id="line2d_42">
      <g>
       <use xlink:href="#mc8ef8fceaf" x="47.41375" y="109.617222" style="stroke: #000000; stroke-width: 0.6"/>
      </g>
     </g>
    </g>
    <g id="ytick_25">
     <g id="line2d_43">
      <g>
       <use xlink:href="#mc8ef8fceaf" x="47.41375" y="94.38311" style="stroke: #000000; stroke-width: 0.6"/>
      </g>
     </g>
    </g>
    <g id="ytick_26">
     <g id="line2d_44">
      <g>
       <use xlink:href="#mc8ef8fceaf" x="47.41375" y="81.935934" style="stroke: #000000; stroke-width: 0.6"/>
      </g>
     </g>
    </g>
    <g id="ytick_27">
     <g id="line2d_45">
      <g>
       <use xlink:href="#mc8ef8fceaf" x="47.41375" y="71.411997" style="stroke: #000000; stroke-width: 0.6"/>
      </g>
     </g>
    </g>
    <g id="ytick_28">
     <g id="line2d_46">
      <g>
       <use xlink:href="#mc8ef8fceaf" x="47.41375" y="62.295748" style="stroke: #000000; stroke-width: 0.6"/>
      </g>
     </g>
    </g>
    <g id="ytick_29">
     <g id="line2d_47">
      <g>
       <use xlink:href="#mc8ef8fceaf" x="47.41375" y="54.254646" style="stroke: #000000; stroke-width: 0.6"/>
      </g>
     </g>
    </g>
    <g id="text_13">
     <text style="font: 12px 'DejaVu Sans', 'Bitstream Vera Sans', 'Computer Modern Sans Serif', 'Lucida Grande', 'Verdana', 'Geneva', 'Lucid', 'Arial', 'Helvetica', 'Avant Garde', sans-serif; text-anchor: middle" x="16.318125" y="276.572969" transform="rotate(-90 16.318125 276.572969)">Median Elapsed Time (nanoseconds)</text>
    </g>
   </g>
   <g id="line2d_48">
    <path d="M 69.833494 46.836469 
L 104.325409 46.909668 
L 173.309237 46.907631 
L 207.801152 46.89928 
L 242.293066 46.908295 
L 276.78498 46.907249 
L 311.276895 46.905268 
L 345.768809 46.908045 
L 380.260723 46.897502 
L 414.752638 46.902405 
L 483.736466 46.896815 
L 518.228381 46.813736 
" clip-path="url(#p5bffc25bdc)" style="fill: none; stroke: #1f77b4; stroke-width: 2; stroke-linecap: square"/>
    <defs>
     <path id="m1cb7a51c2f" d="M 0 3 
C 0.795609 3 1.55874 2.683901 2.12132 2.12132 
C 2.683901 1.55874 3 0.795609 3 0 
C 3 -0.795609 2.683901 -1.55874 2.12132 -2.12132 
C 1.55874 -2.683901 0.795609 -3 0 -3 
C -0.795609 -3 -1.55874 -2.683901 -2.12132 -2.12132 
C -2.683901 -1.55874 -3 -0.795609 -3 0 
C -3 0.795609 -2.683901 1.55874 -2.12132 2.12132 
C -1.55874 2.683901 -0.795609 3 0 3 
z
" style="stroke: #1f77b4"/>
    </defs>
    <g clip-path="url(#p5bffc25bdc)">
     <use xlink:href="#m1cb7a51c2f" x="69.833494" y="46.836469" style="fill: #1f77b4; stroke: #1f77b4"/>
     <use xlink:href="#m1cb7a51c2f" x="104.325409" y="46.909668" style="fill: #1f77b4; stroke: #1f77b4"/>
     <use xlink:href="#m1cb7a51c2f" x="173.309237" y="46.907631" style="fill: #1f77b4; stroke: #1f77b4"/>
     <use xlink:href="#m1cb7a51c2f" x="207.801152" y="46.89928" style="fill: #1f77b4; stroke: #1f77b4"/>
     <use xlink:href="#m1cb7a51c2f" x="242.293066" y="46.908295" style="fill: #1f77b4; stroke: #1f77b4"/>
     <use xlink:href="#m1cb7a51c2f" x="276.78498" y="46.907249" style="fill: #1f77b4; stroke: #1f77b4"/>
     <use xlink:href="#m1cb7a51c2f" x="311.276895" y="46.905268" style="fill: #1f77b4; stroke: #1f77b4"/>
     <use xlink:href="#m1cb7a51c2f" x="345.768809" y="46.908045" style="fill: #1f77b4; stroke: #1f77b4"/>
     <use xlink:href="#m1cb7a51c2f" x="380.260723" y="46.897502" style="fill: #1f77b4; stroke: #1f77b4"/>
     <use xlink:href="#m1cb7a51c2f" x="414.752638" y="46.902405" style="fill: #1f77b4; stroke: #1f77b4"/>
     <use xlink:href="#m1cb7a51c2f" x="483.736466" y="46.896815" style="fill: #1f77b4; stroke: #1f77b4"/>
     <use xlink:href="#m1cb7a51c2f" x="518.228381" y="46.813736" style="fill: #1f77b4; stroke: #1f77b4"/>
    </g>
   </g>
   <g id="line2d_49">
    <path d="M 69.833494 319.013878 
L 104.325409 320.370044 
L 173.309237 319.646061 
L 207.801152 320.008847 
L 242.293066 320.365938 
L 276.78498 320.008419 
L 311.276895 320.268247 
L 345.768809 320.21573 
L 380.260723 319.671702 
L 414.752638 320.397488 
L 483.736466 320.053019 
L 518.228381 318.798309 
" clip-path="url(#p5bffc25bdc)" style="fill: none; stroke: #ff7f0e; stroke-width: 2; stroke-linecap: square"/>
    <defs>
     <path id="mef234d4da8" d="M 0 3 
C 0.795609 3 1.55874 2.683901 2.12132 2.12132 
C 2.683901 1.55874 3 0.795609 3 0 
C 3 -0.795609 2.683901 -1.55874 2.12132 -2.12132 
C 1.55874 -2.683901 0.795609 -3 0 -3 
C -0.795609 -3 -1.55874 -2.683901 -2.12132 -2.12132 
C -2.683901 -1.55874 -3 -0.795609 -3 0 
C -3 0.795609 -2.683901 1.55874 -2.12132 2.12132 
C -1.55874 2.683901 -0.795609 3 0 3 
z
" style="stroke: #ff7f0e"/>
    </defs>
    <g clip-path="url(#p5bffc25bdc)">
     <use xlink:href="#mef234d4da8" x="69.833494" y="319.013878" style="fill: #ff7f0e; stroke: #ff7f0e"/>
     <use xlink:href="#mef234d4da8" x="104.325409" y="320.370044" style="fill: #ff7f0e; stroke: #ff7f0e"/>
     <use xlink:href="#mef234d4da8" x="173.309237" y="319.646061" style="fill: #ff7f0e; stroke: #ff7f0e"/>
     <use xlink:href="#mef234d4da8" x="207.801152" y="320.008847" style="fill: #ff7f0e; stroke: #ff7f0e"/>
     <use xlink:href="#mef234d4da8" x="242.293066" y="320.365938" style="fill: #ff7f0e; stroke: #ff7f0e"/>
     <use xlink:href="#mef234d4da8" x="276.78498" y="320.008419" style="fill: #ff7f0e; stroke: #ff7f0e"/>
     <use xlink:href="#mef234d4da8" x="311.276895" y="320.268247" style="fill: #ff7f0e; stroke: #ff7f0e"/>
     <use xlink:href="#mef234d4da8" x="345.768809" y="320.21573" style="fill: #ff7f0e; stroke: #ff7f0e"/>
     <use xlink:href="#mef234d4da8" x="380.260723" y="319.671702" style="fill: #ff7f0e; stroke: #ff7f0e"/>
     <use xlink:href="#mef234d4da8" x="414.752638" y="320.397488" style="fill: #ff7f0e; stroke: #ff7f0e"/>
     <use xlink:href="#mef234d4da8" x="483.736466" y="320.053019" style="fill: #ff7f0e; stroke: #ff7f0e"/>
     <use xlink:href="#mef234d4da8" x="518.228381" y="318.798309" style="fill: #ff7f0e; stroke: #ff7f0e"/>
    </g>
   </g>
   <g id="line2d_50">
    <path d="M 69.833494 46.87772 
L 104.325409 46.872229 
L 173.309237 46.855349 
L 207.801152 46.864596 
L 242.293066 46.877236 
L 276.78498 46.87031 
L 311.276895 46.86692 
L 345.768809 46.871591 
L 380.260723 46.881266 
L 414.752638 46.872885 
L 483.736466 46.877829 
L 518.228381 46.866583 
" clip-path="url(#p5bffc25bdc)" style="fill: none; stroke: #2ca02c; stroke-width: 2; stroke-linecap: square"/>
    <defs>
     <path id="m55bd9d0f52" d="M 0 3 
C 0.795609 3 1.55874 2.683901 2.12132 2.12132 
C 2.683901 1.55874 3 0.795609 3 0 
C 3 -0.795609 2.683901 -1.55874 2.12132 -2.12132 
C 1.55874 -2.683901 0.795609 -3 0 -3 
C -0.795609 -3 -1.55874 -2.683901 -2.12132 -2.12132 
C -2.683901 -1.55874 -3 -0.795609 -3 0 
C -3 0.795609 -2.683901 1.55874 -2.12132 2.12132 
C -1.55874 2.683901 -0.795609 3 0 3 
z
" style="stroke: #2ca02c"/>
    </defs>
    <g clip-path="url(#p5bffc25bdc)">
     <use xlink:href="#m55bd9d0f52" x="69.833494" y="46.87772" style="fill: #2ca02c; stroke: #2ca02c"/>
     <use xlink:href="#m55bd9d0f52" x="104.325409" y="46.872229" style="fill: #2ca02c; stroke: #2ca02c"/>
     <use xlink:href="#m55bd9d0f52" x="173.309237" y="46.855349" style="fill: #2ca02c; stroke: #2ca02c"/>
     <use xlink:href="#m55bd9d0f52" x="207.801152" y="46.864596" style="fill: #2ca02c; stroke: #2ca02c"/>
     <use xlink:href="#m55bd9d0f52" x="242.293066" y="46.877236" style="fill: #2ca02c; stroke: #2ca02c"/>
     <use xlink:href="#m55bd9d0f52" x="276.78498" y="46.87031" style="fill: #2ca02c; stroke: #2ca02c"/>
     <use xlink:href="#m55bd9d0f52" x="311.276895" y="46.86692" style="fill: #2ca02c; stroke: #2ca02c"/>
     <use xlink:href="#m55bd9d0f52" x="345.768809" y="46.871591" style="fill: #2ca02c; stroke: #2ca02c"/>
     <use xlink:href="#m55bd9d0f52" x="380.260723" y="46.881266" style="fill: #2ca02c; stroke: #2ca02c"/>
     <use xlink:href="#m55bd9d0f52" x="414.752638" y="46.872885" style="fill: #2ca02c; stroke: #2ca02c"/>
     <use xlink:href="#m55bd9d0f52" x="483.736466" y="46.877829" style="fill: #2ca02c; stroke: #2ca02c"/>
     <use xlink:href="#m55bd9d0f52" x="518.228381" y="46.866583" style="fill: #2ca02c; stroke: #2ca02c"/>
    </g>
   </g>
   <g id="line2d_51">
    <path d="M 69.833494 351.251468 
L 104.325409 351.168889 
L 173.309237 350.881568 
L 207.801152 350.972283 
L 242.293066 351.227415 
L 276.78498 350.999121 
L 311.276895 351.142987 
L 345.768809 350.933996 
L 380.260723 351.781877 
L 414.752638 350.973817 
L 483.736466 351.280569 
L 518.228381 350.677578 
" clip-path="url(#p5bffc25bdc)" style="fill: none; stroke: #d62728; stroke-width: 2; stroke-linecap: square"/>
    <defs>
     <path id="m57cbab91ed" d="M 0 3 
C 0.795609 3 1.55874 2.683901 2.12132 2.12132 
C 2.683901 1.55874 3 0.795609 3 0 
C 3 -0.795609 2.683901 -1.55874 2.12132 -2.12132 
C 1.55874 -2.683901 0.795609 -3 0 -3 
C -0.795609 -3 -1.55874 -2.683901 -2.12132 -2.12132 
C -2.683901 -1.55874 -3 -0.795609 -3 0 
C -3 0.795609 -2.683901 1.55874 -2.12132 2.12132 
C -1.55874 2.683901 -0.795609 3 0 3 
z
" style="stroke: #d62728"/>
    </defs>
    <g clip-path="url(#p5bffc25bdc)">
     <use xlink:href="#m57cbab91ed" x="69.833494" y="351.251468" style="fill: #d62728; stroke: #d62728"/>
     <use xlink:href="#m57cbab91ed" x="104.325409" y="351.168889" style="fill: #d62728; stroke: #d62728"/>
     <use xlink:href="#m57cbab91ed" x="173.309237" y="350.881568" style="fill: #d62728; stroke: #d62728"/>
     <use xlink:href="#m57cbab91ed" x="207.801152" y="350.972283" style="fill: #d62728; stroke: #d62728"/>
     <use xlink:href="#m57cbab91ed" x="242.293066" y="351.227415" style="fill: #d62728; stroke: #d62728"/>
     <use xlink:href="#m57cbab91ed" x="276.78498" y="350.999121" style="fill: #d62728; stroke: #d62728"/>
     <use xlink:href="#m57cbab91ed" x="311.276895" y="351.142987" style="fill: #d62728; stroke: #d62728"/>
     <use xlink:href="#m57cbab91ed" x="345.768809" y="350.933996" style="fill: #d62728; stroke: #d62728"/>
     <use xlink:href="#m57cbab91ed" x="380.260723" y="351.781877" style="fill: #d62728; stroke: #d62728"/>
     <use xlink:href="#m57cbab91ed" x="414.752638" y="350.973817" style="fill: #d62728; stroke: #d62728"/>
     <use xlink:href="#m57cbab91ed" x="483.736466" y="351.280569" style="fill: #d62728; stroke: #d62728"/>
     <use xlink:href="#m57cbab91ed" x="518.228381" y="350.677578" style="fill: #d62728; stroke: #d62728"/>
    </g>
   </g>
   <g id="line2d_52">
    <path d="M 69.833494 505.683172 
L 104.325409 506.059178 
L 173.309237 505.255459 
L 207.801152 504.972562 
L 242.293066 505.602433 
L 276.78498 504.652563 
L 311.276895 505.739763 
L 345.768809 506.332202 
L 380.260723 504.492986 
L 414.752638 504.275522 
L 483.736466 505.502925 
L 518.228381 505.625782 
" clip-path="url(#p5bffc25bdc)" style="fill: none; stroke: #9467bd; stroke-width: 2; stroke-linecap: square"/>
    <defs>
     <path id="m3c1aa4cf7c" d="M 0 3 
C 0.795609 3 1.55874 2.683901 2.12132 2.12132 
C 2.683901 1.55874 3 0.795609 3 0 
C 3 -0.795609 2.683901 -1.55874 2.12132 -2.12132 
C 1.55874 -2.683901 0.795609 -3 0 -3 
C -0.795609 -3 -1.55874 -2.683901 -2.12132 -2.12132 
C -2.683901 -1.55874 -3 -0.795609 -3 0 
C -3 0.795609 -2.683901 1.55874 -2.12132 2.12132 
C -1.55874 2.683901 -0.795609 3 0 3 
z
" style="stroke: #9467bd"/>
    </defs>
    <g clip-path="url(#p5bffc25bdc)">
     <use xlink:href="#m3c1aa4cf7c" x="69.833494" y="505.683172" style="fill: #9467bd; stroke: #9467bd"/>
     <use xlink:href="#m3c1aa4cf7c" x="104.325409" y="506.059178" style="fill: #9467bd; stroke: #9467bd"/>
     <use xlink:href="#m3c1aa4cf7c" x="173.309237" y="505.255459" style="fill: #9467bd; stroke: #9467bd"/>
     <use xlink:href="#m3c1aa4cf7c" x="207.801152" y="504.972562" style="fill: #9467bd; stroke: #9467bd"/>
     <use xlink:href="#m3c1aa4cf7c" x="242.293066" y="505.602433" style="fill: #9467bd; stroke: #9467bd"/>
     <use xlink:href="#m3c1aa4cf7c" x="276.78498" y="504.652563" style="fill: #9467bd; stroke: #9467bd"/>
     <use xlink:href="#m3c1aa4cf7c" x="311.276895" y="505.739763" style="fill: #9467bd; stroke: #9467bd"/>
     <use xlink:href="#m3c1aa4cf7c" x="345.768809" y="506.332202" style="fill: #9467bd; stroke: #9467bd"/>
     <use xlink:href="#m3c1aa4cf7c" x="380.260723" y="504.492986" style="fill: #9467bd; stroke: #9467bd"/>
     <use xlink:href="#m3c1aa4cf7c" x="414.752638" y="504.275522" style="fill: #9467bd; stroke: #9467bd"/>
     <use xlink:href="#m3c1aa4cf7c" x="483.736466" y="505.502925" style="fill: #9467bd; stroke: #9467bd"/>
     <use xlink:href="#m3c1aa4cf7c" x="518.228381" y="505.625782" style="fill: #9467bd; stroke: #9467bd"/>
    </g>
   </g>
   <g id="line2d_53">
    <path d="M 69.833494 46.901474 
L 104.325409 46.891441 
L 173.309237 46.904477 
L 207.801152 46.899977 
L 242.293066 46.906207 
L 276.78498 46.907562 
L 311.276895 46.906735 
L 345.768809 46.904257 
L 380.260723 46.895283 
L 414.752638 46.901533 
L 483.736466 46.906357 
L 518.228381 46.908449 
" clip-path="url(#p5bffc25bdc)" style="fill: none; stroke: #8c564b; stroke-width: 2; stroke-linecap: square"/>
    <defs>
     <path id="m72bf7c86b1" d="M 0 3 
C 0.795609 3 1.55874 2.683901 2.12132 2.12132 
C 2.683901 1.55874 3 0.795609 3 0 
C 3 -0.795609 2.683901 -1.55874 2.12132 -2.12132 
C 1.55874 -2.683901 0.795609 -3 0 -3 
C -0.795609 -3 -1.55874 -2.683901 -2.12132 -2.12132 
C -2.683901 -1.55874 -3 -0.795609 -3 0 
C -3 0.795609 -2.683901 1.55874 -2.12132 2.12132 
C -1.55874 2.683901 -0.795609 3 0 3 
z
" style="stroke: #8c564b"/>
    </defs>
    <g clip-path="url(#p5bffc25bdc)">
     <use xlink:href="#m72bf7c86b1" x="69.833494" y="46.901474" style="fill: #8c564b; stroke: #8c564b"/>
     <use xlink:href="#m72bf7c86b1" x="104.325409" y="46.891441" style="fill: #8c564b; stroke: #8c564b"/>
     <use xlink:href="#m72bf7c86b1" x="173.309237" y="46.904477" style="fill: #8c564b; stroke: #8c564b"/>
     <use xlink:href="#m72bf7c86b1" x="207.801152" y="46.899977" style="fill: #8c564b; stroke: #8c564b"/>
     <use xlink:href="#m72bf7c86b1" x="242.293066" y="46.906207" style="fill: #8c564b; stroke: #8c564b"/>
     <use xlink:href="#m72bf7c86b1" x="276.78498" y="46.907562" style="fill: #8c564b; stroke: #8c564b"/>
     <use xlink:href="#m72bf7c86b1" x="311.276895" y="46.906735" style="fill: #8c564b; stroke: #8c564b"/>
     <use xlink:href="#m72bf7c86b1" x="345.768809" y="46.904257" style="fill: #8c564b; stroke: #8c564b"/>
     <use xlink:href="#m72bf7c86b1" x="380.260723" y="46.895283" style="fill: #8c564b; stroke: #8c564b"/>
     <use xlink:href="#m72bf7c86b1" x="414.752638" y="46.901533" style="fill: #8c564b; stroke: #8c564b"/>
     <use xlink:href="#m72bf7c86b1" x="483.736466" y="46.906357" style="fill: #8c564b; stroke: #8c564b"/>
     <use xlink:href="#m72bf7c86b1" x="518.228381" y="46.908449" style="fill: #8c564b; stroke: #8c564b"/>
    </g>
   </g>
   <g id="line2d_54">
    <path d="M 69.833494 321.197192 
L 104.325409 321.790324 
L 173.309237 321.857004 
L 207.801152 322.152408 
L 242.293066 322.280051 
L 276.78498 321.859465 
L 311.276895 321.092722 
L 345.768809 321.610357 
L 380.260723 322.400269 
L 414.752638 321.591394 
L 483.736466 321.819056 
L 518.228381 320.795934 
" clip-path="url(#p5bffc25bdc)" style="fill: none; stroke: #e377c2; stroke-width: 2; stroke-linecap: square"/>
    <defs>
     <path id="m693e0d7894" d="M 0 3 
C 0.795609 3 1.55874 2.683901 2.12132 2.12132 
C 2.683901 1.55874 3 0.795609 3 0 
C 3 -0.795609 2.683901 -1.55874 2.12132 -2.12132 
C 1.55874 -2.683901 0.795609 -3 0 -3 
C -0.795609 -3 -1.55874 -2.683901 -2.12132 -2.12132 
C -2.683901 -1.55874 -3 -0.795609 -3 0 
C -3 0.795609 -2.683901 1.55874 -2.12132 2.12132 
C -1.55874 2.683901 -0.795609 3 0 3 
z
" style="stroke: #e377c2"/>
    </defs>
    <g clip-path="url(#p5bffc25bdc)">
     <use xlink:href="#m693e0d7894" x="69.833494" y="321.197192" style="fill: #e377c2; stroke: #e377c2"/>
     <use xlink:href="#m693e0d7894" x="104.325409" y="321.790324" style="fill: #e377c2; stroke: #e377c2"/>
     <use xlink:href="#m693e0d7894" x="173.309237" y="321.857004" style="fill: #e377c2; stroke: #e377c2"/>
     <use xlink:href="#m693e0d7894" x="207.801152" y="322.152408" style="fill: #e377c2; stroke: #e377c2"/>
     <use xlink:href="#m693e0d7894" x="242.293066" y="322.280051" style="fill: #e377c2; stroke: #e377c2"/>
     <use xlink:href="#m693e0d7894" x="276.78498" y="321.859465" style="fill: #e377c2; stroke: #e377c2"/>
     <use xlink:href="#m693e0d7894" x="311.276895" y="321.092722" style="fill: #e377c2; stroke: #e377c2"/>
     <use xlink:href="#m693e0d7894" x="345.768809" y="321.610357" style="fill: #e377c2; stroke: #e377c2"/>
     <use xlink:href="#m693e0d7894" x="380.260723" y="322.400269" style="fill: #e377c2; stroke: #e377c2"/>
     <use xlink:href="#m693e0d7894" x="414.752638" y="321.591394" style="fill: #e377c2; stroke: #e377c2"/>
     <use xlink:href="#m693e0d7894" x="483.736466" y="321.819056" style="fill: #e377c2; stroke: #e377c2"/>
     <use xlink:href="#m693e0d7894" x="518.228381" y="320.795934" style="fill: #e377c2; stroke: #e377c2"/>
    </g>
   </g>
   <g id="line2d_55">
    <path d="M 69.833494 46.902465 
L 104.325409 46.888139 
L 173.309237 46.885184 
L 207.801152 46.884053 
L 242.293066 46.868239 
L 276.78498 46.879093 
L 311.276895 46.886784 
L 345.768809 46.868823 
L 380.260723 46.884838 
L 414.752638 46.879698 
L 483.736466 46.868499 
L 518.228381 46.880435 
" clip-path="url(#p5bffc25bdc)" style="fill: none; stroke: #7f7f7f; stroke-width: 2; stroke-linecap: square"/>
    <defs>
     <path id="mae3133c462" d="M 0 3 
C 0.795609 3 1.55874 2.683901 2.12132 2.12132 
C 2.683901 1.55874 3 0.795609 3 0 
C 3 -0.795609 2.683901 -1.55874 2.12132 -2.12132 
C 1.55874 -2.683901 0.795609 -3 0 -3 
C -0.795609 -3 -1.55874 -2.683901 -2.12132 -2.12132 
C -2.683901 -1.55874 -3 -0.795609 -3 0 
C -3 0.795609 -2.683901 1.55874 -2.12132 2.12132 
C -1.55874 2.683901 -0.795609 3 0 3 
z
" style="stroke: #7f7f7f"/>
    </defs>
    <g clip-path="url(#p5bffc25bdc)">
     <use xlink:href="#mae3133c462" x="69.833494" y="46.902465" style="fill: #7f7f7f; stroke: #7f7f7f"/>
     <use xlink:href="#mae3133c462" x="104.325409" y="46.888139" style="fill: #7f7f7f; stroke: #7f7f7f"/>
     <use xlink:href="#mae3133c462" x="173.309237" y="46.885184" style="fill: #7f7f7f; stroke: #7f7f7f"/>
     <use xlink:href="#mae3133c462" x="207.801152" y="46.884053" style="fill: #7f7f7f; stroke: #7f7f7f"/>
     <use xlink:href="#mae3133c462" x="242.293066" y="46.868239" style="fill: #7f7f7f; stroke: #7f7f7f"/>
     <use xlink:href="#mae3133c462" x="276.78498" y="46.879093" style="fill: #7f7f7f; stroke: #7f7f7f"/>
     <use xlink:href="#mae3133c462" x="311.276895" y="46.886784" style="fill: #7f7f7f; stroke: #7f7f7f"/>
     <use xlink:href="#mae3133c462" x="345.768809" y="46.868823" style="fill: #7f7f7f; stroke: #7f7f7f"/>
     <use xlink:href="#mae3133c462" x="380.260723" y="46.884838" style="fill: #7f7f7f; stroke: #7f7f7f"/>
     <use xlink:href="#mae3133c462" x="414.752638" y="46.879698" style="fill: #7f7f7f; stroke: #7f7f7f"/>
     <use xlink:href="#mae3133c462" x="483.736466" y="46.868499" style="fill: #7f7f7f; stroke: #7f7f7f"/>
     <use xlink:href="#mae3133c462" x="518.228381" y="46.880435" style="fill: #7f7f7f; stroke: #7f7f7f"/>
    </g>
   </g>
   <g id="line2d_56">
    <path d="M 69.833494 351.527566 
L 104.325409 351.443462 
L 173.309237 351.274517 
L 207.801152 350.709771 
L 242.293066 350.955235 
L 276.78498 351.945336 
L 311.276895 351.442513 
L 345.768809 350.996333 
L 380.260723 351.361887 
L 414.752638 350.925857 
L 483.736466 350.67858 
L 518.228381 351.681797 
" clip-path="url(#p5bffc25bdc)" style="fill: none; stroke: #bcbd22; stroke-width: 2; stroke-linecap: square"/>
    <defs>
     <path id="mf750592b28" d="M 0 3 
C 0.795609 3 1.55874 2.683901 2.12132 2.12132 
C 2.683901 1.55874 3 0.795609 3 0 
C 3 -0.795609 2.683901 -1.55874 2.12132 -2.12132 
C 1.55874 -2.683901 0.795609 -3 0 -3 
C -0.795609 -3 -1.55874 -2.683901 -2.12132 -2.12132 
C -2.683901 -1.55874 -3 -0.795609 -3 0 
C -3 0.795609 -2.683901 1.55874 -2.12132 2.12132 
C -1.55874 2.683901 -0.795609 3 0 3 
z
" style="stroke: #bcbd22"/>
    </defs>
    <g clip-path="url(#p5bffc25bdc)">
     <use xlink:href="#mf750592b28" x="69.833494" y="351.527566" style="fill: #bcbd22; stroke: #bcbd22"/>
     <use xlink:href="#mf750592b28" x="104.325409" y="351.443462" style="fill: #bcbd22; stroke: #bcbd22"/>
     <use xlink:href="#mf750592b28" x="173.309237" y="351.274517" style="fill: #bcbd22; stroke: #bcbd22"/>
     <use xlink:href="#mf750592b28" x="207.801152" y="350.709771" style="fill: #bcbd22; stroke: #bcbd22"/>
     <use xlink:href="#mf750592b28" x="242.293066" y="350.955235" style="fill: #bcbd22; stroke: #bcbd22"/>
     <use xlink:href="#mf750592b28" x="276.78498" y="351.945336" style="fill: #bcbd22; stroke: #bcbd22"/>
     <use xlink:href="#mf750592b28" x="311.276895" y="351.442513" style="fill: #bcbd22; stroke: #bcbd22"/>
     <use xlink:href="#mf750592b28" x="345.768809" y="350.996333" style="fill: #bcbd22; stroke: #bcbd22"/>
     <use xlink:href="#mf750592b28" x="380.260723" y="351.361887" style="fill: #bcbd22; stroke: #bcbd22"/>
     <use xlink:href="#mf750592b28" x="414.752638" y="350.925857" style="fill: #bcbd22; stroke: #bcbd22"/>
     <use xlink:href="#mf750592b28" x="483.736466" y="350.67858" style="fill: #bcbd22; stroke: #bcbd22"/>
     <use xlink:href="#mf750592b28" x="518.228381" y="351.681797" style="fill: #bcbd22; stroke: #bcbd22"/>
    </g>
   </g>
   <g id="line2d_57">
    <path d="M 69.833494 453.900645 
L 104.325409 454.544089 
L 173.309237 454.115559 
L 207.801152 454.23508 
L 242.293066 454.500408 
L 276.78498 454.511559 
L 311.276895 454.191277 
L 345.768809 454.304095 
L 380.260723 454.441934 
L 414.752638 454.230164 
L 483.736466 454.515027 
L 518.228381 453.904056 
" clip-path="url(#p5bffc25bdc)" style="fill: none; stroke: #17becf; stroke-width: 2; stroke-linecap: square"/>
    <defs>
     <path id="mf593193743" d="M 0 3 
C 0.795609 3 1.55874 2.683901 2.12132 2.12132 
C 2.683901 1.55874 3 0.795609 3 0 
C 3 -0.795609 2.683901 -1.55874 2.12132 -2.12132 
C 1.55874 -2.683901 0.795609 -3 0 -3 
C -0.795609 -3 -1.55874 -2.683901 -2.12132 -2.12132 
C -2.683901 -1.55874 -3 -0.795609 -3 0 
C -3 0.795609 -2.683901 1.55874 -2.12132 2.12132 
C -1.55874 2.683901 -0.795609 3 0 3 
z
" style="stroke: #17becf"/>
    </defs>
    <g clip-path="url(#p5bffc25bdc)">
     <use xlink:href="#mf593193743" x="69.833494" y="453.900645" style="fill: #17becf; stroke: #17becf"/>
     <use xlink:href="#mf593193743" x="104.325409" y="454.544089" style="fill: #17becf; stroke: #17becf"/>
     <use xlink:href="#mf593193743" x="173.309237" y="454.115559" style="fill: #17becf; stroke: #17becf"/>
     <use xlink:href="#mf593193743" x="207.801152" y="454.23508" style="fill: #17becf; stroke: #17becf"/>
     <use xlink:href="#mf593193743" x="242.293066" y="454.500408" style="fill: #17becf; stroke: #17becf"/>
     <use xlink:href="#mf593193743" x="276.78498" y="454.511559" style="fill: #17becf; stroke: #17becf"/>
     <use xlink:href="#mf593193743" x="311.276895" y="454.191277" style="fill: #17becf; stroke: #17becf"/>
     <use xlink:href="#mf593193743" x="345.768809" y="454.304095" style="fill: #17becf; stroke: #17becf"/>
     <use xlink:href="#mf593193743" x="380.260723" y="454.441934" style="fill: #17becf; stroke: #17becf"/>
     <use xlink:href="#mf593193743" x="414.752638" y="454.230164" style="fill: #17becf; stroke: #17becf"/>
     <use xlink:href="#mf593193743" x="483.736466" y="454.515027" style="fill: #17becf; stroke: #17becf"/>
     <use xlink:href="#mf593193743" x="518.228381" y="453.904056" style="fill: #17becf; stroke: #17becf"/>
    </g>
   </g>
   <g id="patch_3">
    <path d="M 47.41375 529.308125 
L 47.41375 23.837812 
" style="fill: none; stroke: #000000; stroke-width: 0.8; stroke-linejoin: miter; stroke-linecap: square"/>
   </g>
   <g id="patch_4">
    <path d="M 540.648125 529.308125 
L 540.648125 23.837812 
" style="fill: none; stroke: #000000; stroke-width: 0.8; stroke-linejoin: miter; stroke-linecap: square"/>
   </g>
   <g id="patch_5">
    <path d="M 47.41375 529.308125 
L 540.648125 529.308125 
" style="fill: none; stroke: #000000; stroke-width: 0.8; stroke-linejoin: miter; stroke-linecap: square"/>
   </g>
   <g id="patch_6">
    <path d="M 47.41375 23.837812 
L 540.648125 23.837812 
" style="fill: none; stroke: #000000; stroke-width: 0.8; stroke-linejoin: miter; stroke-linecap: square"/>
   </g>
   <g id="text_14">
    <text style="font: 700 14px 'DejaVu Sans', 'Bitstream Vera Sans', 'Computer Modern Sans Serif', 'Lucida Grande', 'Verdana', 'Geneva', 'Lucid', 'Arial', 'Helvetica', 'Avant Garde', sans-serif; text-anchor: middle" x="294.030937" y="17.837813" transform="rotate(-0 294.030937 17.837813)">Coroutine Task Chaining - Performance Trend</text>
   </g>
   <g id="legend_1">
    <g id="patch_7">
     <path d="M 572.309844 181.400313 
L 838.781719 181.400313 
Q 840.781719 181.400313 840.781719 179.400313 
L 840.781719 30.837813 
Q 840.781719 28.837813 838.781719 28.837813 
L 572.309844 28.837813 
Q 570.309844 28.837813 570.309844 30.837813 
L 570.309844 179.400313 
Q 570.309844 181.400313 572.309844 181.400313 
z
" style="fill: #ffffff; opacity: 0.8; stroke: #cccccc; stroke-linejoin: miter"/>
    </g>
    <g id="line2d_58">
     <path d="M 574.309844 36.93625 
L 584.309844 36.93625 
L 594.309844 36.93625 
" style="fill: none; stroke: #1f77b4; stroke-width: 2; stroke-linecap: square"/>
     <g>
      <use xlink:href="#m1cb7a51c2f" x="584.309844" y="36.93625" style="fill: #1f77b4; stroke: #1f77b4"/>
     </g>
    </g>
    <g id="text_15">
     <text style="font: 10px 'DejaVu Sans', 'Bitstream Vera Sans', 'Computer Modern Sans Serif', 'Lucida Grande', 'Verdana', 'Geneva', 'Lucid', 'Arial', 'Helvetica', 'Avant Garde', sans-serif; text-anchor: start" x="602.309844" y="40.43625" transform="rotate(-0 602.309844 40.43625)">gcc-14.2 - TaskChaining_Coroutines_V1</text>
    </g>
    <g id="line2d_59">
     <path d="M 574.309844 51.8925 
L 584.309844 51.8925 
L 594.309844 51.8925 
" style="fill: none; stroke: #ff7f0e; stroke-width: 2; stroke-linecap: square"/>
     <g>
      <use xlink:href="#mef234d4da8" x="584.309844" y="51.8925" style="fill: #ff7f0e; stroke: #ff7f0e"/>
     </g>
    </g>
    <g id="text_16">
     <text style="font: 10px 'DejaVu Sans', 'Bitstream Vera Sans', 'Computer Modern Sans Serif', 'Lucida Grande', 'Verdana', 'Geneva', 'Lucid', 'Arial', 'Helvetica', 'Avant Garde', sans-serif; text-anchor: start" x="602.309844" y="55.3925" transform="rotate(-0 602.309844 55.3925)">gcc-14.2 - TaskChaining_NestedSubmission_V1</text>
    </g>
    <g id="line2d_60">
     <path d="M 574.309844 66.84875 
L 584.309844 66.84875 
L 594.309844 66.84875 
" style="fill: none; stroke: #2ca02c; stroke-width: 2; stroke-linecap: square"/>
     <g>
      <use xlink:href="#m55bd9d0f52" x="584.309844" y="66.84875" style="fill: #2ca02c; stroke: #2ca02c"/>
     </g>
    </g>
    <g id="text_17">
     <text style="font: 10px 'DejaVu Sans', 'Bitstream Vera Sans', 'Computer Modern Sans Serif', 'Lucida Grande', 'Verdana', 'Geneva', 'Lucid', 'Arial', 'Helvetica', 'Avant Garde', sans-serif; text-anchor: start" x="602.309844" y="70.34875" transform="rotate(-0 602.309844 70.34875)">gcc-14.2 - TaskChaining_Coroutines_V2</text>
    </g>
    <g id="line2d_61">
     <path d="M 574.309844 81.805 
L 584.309844 81.805 
L 594.309844 81.805 
" style="fill: none; stroke: #d62728; stroke-width: 2; stroke-linecap: square"/>
     <g>
      <use xlink:href="#m57cbab91ed" x="584.309844" y="81.805" style="fill: #d62728; stroke: #d62728"/>
     </g>
    </g>
    <g id="text_18">
     <text style="font: 10px 'DejaVu Sans', 'Bitstream Vera Sans', 'Computer Modern Sans Serif', 'Lucida Grande', 'Verdana', 'Geneva', 'Lucid', 'Arial', 'Helvetica', 'Avant Garde', sans-serif; text-anchor: start" x="602.309844" y="85.305" transform="rotate(-0 602.309844 85.305)">gcc-14.2 - TaskChaining_NestedSubmission_V2</text>
    </g>
    <g id="line2d_62">
     <path d="M 574.309844 96.76125 
L 584.309844 96.76125 
L 594.309844 96.76125 
" style="fill: none; stroke: #9467bd; stroke-width: 2; stroke-linecap: square"/>
     <g>
      <use xlink:href="#m3c1aa4cf7c" x="584.309844" y="96.76125" style="fill: #9467bd; stroke: #9467bd"/>
     </g>
    </g>
    <g id="text_19">
     <text style="font: 10px 'DejaVu Sans', 'Bitstream Vera Sans', 'Computer Modern Sans Serif', 'Lucida Grande', 'Verdana', 'Geneva', 'Lucid', 'Arial', 'Helvetica', 'Avant Garde', sans-serif; text-anchor: start" x="602.309844" y="100.26125" transform="rotate(-0 602.309844 100.26125)">gcc-14.2 - TaskChaining_TBB_Equivalent</text>
    </g>
    <g id="line2d_63">
     <path d="M 574.309844 111.7175 
L 584.309844 111.7175 
L 594.309844 111.7175 
" style="fill: none; stroke: #8c564b; stroke-width: 2; stroke-linecap: square"/>
     <g>
      <use xlink:href="#m72bf7c86b1" x="584.309844" y="111.7175" style="fill: #8c564b; stroke: #8c564b"/>
     </g>
    </g>
    <g id="text_20">
     <text style="font: 10px 'DejaVu Sans', 'Bitstream Vera Sans', 'Computer Modern Sans Serif', 'Lucida Grande', 'Verdana', 'Geneva', 'Lucid', 'Arial', 'Helvetica', 'Avant Garde', sans-serif; text-anchor: start" x="602.309844" y="115.2175" transform="rotate(-0 602.309844 115.2175)">gcc-4.2 - TaskChaining_Coroutines_V1</text>
    </g>
    <g id="line2d_64">
     <path d="M 574.309844 126.67375 
L 584.309844 126.67375 
L 594.309844 126.67375 
" style="fill: none; stroke: #e377c2; stroke-width: 2; stroke-linecap: square"/>
     <g>
      <use xlink:href="#m693e0d7894" x="584.309844" y="126.67375" style="fill: #e377c2; stroke: #e377c2"/>
     </g>
    </g>
    <g id="text_21">
     <text style="font: 10px 'DejaVu Sans', 'Bitstream Vera Sans', 'Computer Modern Sans Serif', 'Lucida Grande', 'Verdana', 'Geneva', 'Lucid', 'Arial', 'Helvetica', 'Avant Garde', sans-serif; text-anchor: start" x="602.309844" y="130.17375" transform="rotate(-0 602.309844 130.17375)">gcc-4.2 - TaskChaining_NestedSubmission_V1</text>
    </g>
    <g id="line2d_65">
     <path d="M 574.309844 141.63 
L 584.309844 141.63 
L 594.309844 141.63 
" style="fill: none; stroke: #7f7f7f; stroke-width: 2; stroke-linecap: square"/>
     <g>
      <use xlink:href="#mae3133c462" x="584.309844" y="141.63" style="fill: #7f7f7f; stroke: #7f7f7f"/>
     </g>
    </g>
    <g id="text_22">
     <text style="font: 10px 'DejaVu Sans', 'Bitstream Vera Sans', 'Computer Modern Sans Serif', 'Lucida Grande', 'Verdana', 'Geneva', 'Lucid', 'Arial', 'Helvetica', 'Avant Garde', sans-serif; text-anchor: start" x="602.309844" y="145.13" transform="rotate(-0 602.309844 145.13)">gcc-4.2 - TaskChaining_Coroutines_V2</text>
    </g>
    <g id="line2d_66">
     <path d="M 574.309844 156.58625 
L 584.309844 156.58625 
L 594.309844 156.58625 
" style="fill: none; stroke: #bcbd22; stroke-width: 2; stroke-linecap: square"/>
     <g>
      <use xlink:href="#mf750592b28" x="584.309844" y="156.58625" style="fill: #bcbd22; stroke: #bcbd22"/>
     </g>
    </g>
    <g id="text_23">
     <text style="font: 10px 'DejaVu Sans', 'Bitstream Vera Sans', 'Computer Modern Sans Serif', 'Lucida Grande', 'Verdana', 'Geneva', 'Lucid', 'Arial', 'Helvetica', 'Avant Garde', sans-serif; text-anchor: start" x="602.309844" y="160.08625" transform="rotate(-0 602.309844 160.08625)">gcc-4.2 - TaskChaining_NestedSubmission_V2</text>
    </g>
    <g id="line2d_67">
     <path d="M 574.309844 171.5425 
L 584.309844 171.5425 
L 594.309844 171.5425 
" style="fill: none; stroke: #17becf; stroke-width: 2; stroke-linecap: square"/>
     <g>
      <use xlink:href="#mf593193743" x="584.309844" y="171.5425" style="fill: #17becf; stroke: #17becf"/>
     </g>
    </g>
    <g id="text_24">
     <text style="font: 10px 'DejaVu Sans', 'Bitstream Vera Sans', 'Computer Modern Sans Serif', 'Lucida Grande', 'Verdana', 'Geneva', 'Lucid', 'Arial', 'Helvetica', 'Avant Garde', sans-serif; text-anchor: start" x="602.309844" y="175.0425" transform="rotate(-0 602.309844 175.0425)">gcc-4.2 - TaskChaining_TBB_Equivalent</text>
    </g>
   </g>
  </g>
 </g>
 <defs>
  <clipPath id="p5bffc25bdc">
   <rect x="47.41375" y="23.837813" width="493.234375" height="505.470313"/>
  </clipPath>
 </defs>
</svg>
