<?xml version="1.0" encoding="utf-8" standalone="no"?>
<!DOCTYPE svg PUBLIC "-//W3C//DTD SVG 1.1//EN"
  "http://www.w3.org/Graphics/SVG/1.1/DTD/svg11.dtd">
<svg xmlns:xlink="http://www.w3.org/1999/xlink" width="855.889141pt" height="568.8pt" viewBox="0 0 855.889141 568.8" xmlns="http://www.w3.org/2000/svg" version="1.1">
 <metadata>
  <rdf:RDF xmlns:dc="http://purl.org/dc/elements/1.1/" xmlns:cc="http://creativecommons.org/ns#" xmlns:rdf="http://www.w3.org/1999/02/22-rdf-syntax-ns#">
   <cc:Work>
    <dc:type rdf:resource="http://purl.org/dc/dcmitype/StillImage"/>
    <dc:date>2025-10-05T09:13:34.623965</dc:date>
    <dc:format>image/svg+xml</dc:format>
    <dc:creator>
     <cc:Agent>
      <dc:title>Matplotlib v3.9.4, https://matplotlib.org/</dc:title>
     </cc:Agent>
    </dc:creator>
   </cc:Work>
  </rdf:RDF>
 </metadata>
 <defs>
  <style type="text/css">*{stroke-linejoin: round; stroke-linecap: butt}</style>
 </defs>
 <g id="figure_1">
  <g id="patch_1">
   <path d="M 0 568.8 
L 855.889141 568.8 
L 855.889141 0 
L 0 0 
z
" style="fill: #ffffff"/>
  </g>
  <g id="axes_1">
   <g id="patch_2">
    <path d="M 80.31375 529.308125 
L 731.696562 529.308125 
L 731.696562 23.837812 
L 80.31375 23.837812 
z
" style="fill: #ffffff"/>
   </g>
   <g id="matplotlib.axis_1">
    <g id="xtick_1">
     <g id="line2d_1">
      <path d="M 97.585264 529.308125 
L 97.585264 23.837812 
" clip-path="url(#p4b261aba15)" style="fill: none; stroke: #b0b0b0; stroke-opacity: 0.3; stroke-width: 0.8; stroke-linecap: square"/>
     </g>
     <g id="line2d_2">
      <defs>
       <path id="m9b5a3b7464" d="M 0 0 
L 0 3.5 
" style="stroke: #000000; stroke-width: 0.8"/>
      </defs>
      <g>
       <use xlink:href="#m9b5a3b7464" x="97.585264" y="529.308125" style="stroke: #000000; stroke-width: 0.8"/>
      </g>
     </g>
     <g id="text_1">
      <text style="font: 10px 'DejaVu Sans', 'Bitstream Vera Sans', 'Computer Modern Sans Serif', 'Lucida Grande', 'Verdana', 'Geneva', 'Lucid', 'Arial', 'Helvetica', 'Avant Garde', sans-serif; text-anchor: middle" x="97.585264" y="543.906563" transform="rotate(-0 97.585264 543.906563)">70</text>
     </g>
    </g>
    <g id="xtick_2">
     <g id="line2d_3">
      <path d="M 220.953221 529.308125 
L 220.953221 23.837812 
" clip-path="url(#p4b261aba15)" style="fill: none; stroke: #b0b0b0; stroke-opacity: 0.3; stroke-width: 0.8; stroke-linecap: square"/>
     </g>
     <g id="line2d_4">
      <g>
       <use xlink:href="#m9b5a3b7464" x="220.953221" y="529.308125" style="stroke: #000000; stroke-width: 0.8"/>
      </g>
     </g>
     <g id="text_2">
      <text style="font: 10px 'DejaVu Sans', 'Bitstream Vera Sans', 'Computer Modern Sans Serif', 'Lucida Grande', 'Verdana', 'Geneva', 'Lucid', 'Arial', 'Helvetica', 'Avant Garde', sans-serif; text-anchor: middle" x="220.953221" y="543.906563" transform="rotate(-0 220.953221 543.906563)">80</text>
     </g>
    </g>
    <g id="xtick_3">
     <g id="line2d_5">
      <path d="M 344.321178 529.308125 
L 344.321178 23.837812 
" clip-path="url(#p4b261aba15)" style="fill: none; stroke: #b0b0b0; stroke-opacity: 0.3; stroke-width: 0.8; stroke-linecap: square"/>
     </g>
     <g id="line2d_6">
      <g>
       <use xlink:href="#m9b5a3b7464" x="344.321178" y="529.308125" style="stroke: #000000; stroke-width: 0.8"/>
      </g>
     </g>
     <g id="text_3">
      <text style="font: 10px 'DejaVu Sans', 'Bitstream Vera Sans', 'Computer Modern Sans Serif', 'Lucida Grande', 'Verdana', 'Geneva', 'Lucid', 'Arial', 'Helvetica', 'Avant Garde', sans-serif; text-anchor: middle" x="344.321178" y="543.906563" transform="rotate(-0 344.321178 543.906563)">90</text>
     </g>
    </g>
    <g id="xtick_4">
     <g id="line2d_7">
      <path d="M 467.689135 529.308125 
L 467.689135 23.837812 
" clip-path="url(#p4b261aba15)" style="fill: none; stroke: #b0b0b0; stroke-opacity: 0.3; stroke-width: 0.8; stroke-linecap: square"/>
     </g>
     <g id="line2d_8">
      <g>
       <use xlink:href="#m9b5a3b7464" x="467.689135" y="529.308125" style="stroke: #000000; stroke-width: 0.8"/>
      </g>
     </g>
     <g id="text_4">
      <text style="font: 10px 'DejaVu Sans', 'Bitstream Vera Sans', 'Computer Modern Sans Serif', 'Lucida Grande', 'Verdana', 'Geneva', 'Lucid', 'Arial', 'Helvetica', 'Avant Garde', sans-serif; text-anchor: middle" x="467.689135" y="543.906563" transform="rotate(-0 467.689135 543.906563)">100</text>
     </g>
    </g>
    <g id="xtick_5">
     <g id="line2d_9">
      <path d="M 591.057092 529.308125 
L 591.057092 23.837812 
" clip-path="url(#p4b261aba15)" style="fill: none; stroke: #b0b0b0; stroke-opacity: 0.3; stroke-width: 0.8; stroke-linecap: square"/>
     </g>
     <g id="line2d_10">
      <g>
       <use xlink:href="#m9b5a3b7464" x="591.057092" y="529.308125" style="stroke: #000000; stroke-width: 0.8"/>
      </g>
     </g>
     <g id="text_5">
      <text style="font: 10px 'DejaVu Sans', 'Bitstream Vera Sans', 'Computer Modern Sans Serif', 'Lucida Grande', 'Verdana', 'Geneva', 'Lucid', 'Arial', 'Helvetica', 'Avant Garde', sans-serif; text-anchor: middle" x="591.057092" y="543.906563" transform="rotate(-0 591.057092 543.906563)">110</text>
     </g>
    </g>
    <g id="xtick_6">
     <g id="line2d_11">
      <path d="M 714.425049 529.308125 
L 714.425049 23.837812 
" clip-path="url(#p4b261aba15)" style="fill: none; stroke: #b0b0b0; stroke-opacity: 0.3; stroke-width: 0.8; stroke-linecap: square"/>
     </g>
     <g id="line2d_12">
      <g>
       <use xlink:href="#m9b5a3b7464" x="714.425049" y="529.308125" style="stroke: #000000; stroke-width: 0.8"/>
      </g>
     </g>
     <g id="text_6">
      <text style="font: 10px 'DejaVu Sans', 'Bitstream Vera Sans', 'Computer Modern Sans Serif', 'Lucida Grande', 'Verdana', 'Geneva', 'Lucid', 'Arial', 'Helvetica', 'Avant Garde', sans-serif; text-anchor: middle" x="714.425049" y="543.906563" transform="rotate(-0 714.425049 543.906563)">120</text>
     </g>
    </g>
    <g id="text_7">
     <text style="font: 12px 'DejaVu Sans', 'Bitstream Vera Sans', 'Computer Modern Sans Serif', 'Lucida Grande', 'Verdana', 'Geneva', 'Lucid', 'Arial', 'Helvetica', 'Avant Garde', sans-serif; text-anchor: middle" x="406.005156" y="559.104375" transform="rotate(-0 406.005156 559.104375)">Build Number</text>
    </g>
   </g>
   <g id="matplotlib.axis_2">
    <g id="ytick_1">
     <g id="line2d_13">
      <defs>
       <path id="mb96e471d1f" d="M 0 0 
L -2 0 
" style="stroke: #000000; stroke-width: 0.6"/>
      </defs>
      <g>
       <use xlink:href="#mb96e471d1f" x="80.31375" y="498.484932" style="stroke: #000000; stroke-width: 0.6"/>
      </g>
     </g>
     <g id="text_8">
      <!-- $\mathdefault{1.9\times10^{2}}$ -->
      <g transform="translate(29.11375 502.28415)">
       <text>
        <tspan style="font: 10px 'DejaVu Sans'" x="0 6.362305 9.541016 17.851562 28.178711 34.541016" y="-0.9765625">1.9×10</tspan>
        <tspan style="font: 7px 'DejaVu Sans'" x="40.999023" y="-4.8046875">2</tspan>
       </text>
      </g>
     </g>
    </g>
    <g id="ytick_2">
     <g id="line2d_14">
      <g>
       <use xlink:href="#mb96e471d1f" x="80.31375" y="426.866594" style="stroke: #000000; stroke-width: 0.6"/>
      </g>
     </g>
     <g id="text_9">
      <!-- $\mathdefault{1.95\times10^{2}}$ -->
      <g transform="translate(22.81375 430.665812)">
       <text>
        <tspan style="font: 10px 'DejaVu Sans'" x="0 6.362305 9.541016 15.90332 24.213867 34.541016 40.90332" y="-0.9765625">1.95×10</tspan>
        <tspan style="font: 7px 'DejaVu Sans'" x="47.361328" y="-4.8046875">2</tspan>
       </text>
      </g>
     </g>
    </g>
    <g id="ytick_3">
     <g id="line2d_15">
      <g>
       <use xlink:href="#mb96e471d1f" x="80.31375" y="357.061574" style="stroke: #000000; stroke-width: 0.6"/>
      </g>
     </g>
     <g id="text_10">
      <!-- $\mathdefault{2\times10^{2}}$ -->
      <g transform="translate(38.71375 360.860793)">
       <text>
        <tspan style="font: 10px 'DejaVu Sans'" x="0 8.310547 18.637695 25" y="-0.9765625">2×10</tspan>
        <tspan style="font: 7px 'DejaVu Sans'" x="31.458008" y="-4.8046875">2</tspan>
       </text>
      </g>
     </g>
    </g>
    <g id="ytick_4">
     <g id="line2d_16">
      <g>
       <use xlink:href="#mb96e471d1f" x="80.31375" y="288.980313" style="stroke: #000000; stroke-width: 0.6"/>
      </g>
     </g>
     <g id="text_11">
      <!-- $\mathdefault{2.05\times10^{2}}$ -->
      <g transform="translate(22.81375 292.779532)">
       <text>
        <tspan style="font: 10px 'DejaVu Sans'" x="0 6.362305 9.541016 15.90332 24.213867 34.541016 40.90332" y="-0.9765625">2.05×10</tspan>
        <tspan style="font: 7px 'DejaVu Sans'" x="47.361328" y="-4.8046875">2</tspan>
       </text>
      </g>
     </g>
    </g>
    <g id="ytick_5">
     <g id="line2d_17">
      <g>
       <use xlink:href="#mb96e471d1f" x="80.31375" y="222.539725" style="stroke: #000000; stroke-width: 0.6"/>
      </g>
     </g>
     <g id="text_12">
      <!-- $\mathdefault{2.1\times10^{2}}$ -->
      <g transform="translate(29.11375 226.338944)">
       <text>
        <tspan style="font: 10px 'DejaVu Sans'" x="0 6.362305 9.541016 17.851562 28.178711 34.541016" y="-0.9765625">2.1×10</tspan>
        <tspan style="font: 7px 'DejaVu Sans'" x="40.999023" y="-4.8046875">2</tspan>
       </text>
      </g>
     </g>
    </g>
    <g id="ytick_6">
     <g id="line2d_18">
      <g>
       <use xlink:href="#mb96e471d1f" x="80.31375" y="157.662591" style="stroke: #000000; stroke-width: 0.6"/>
      </g>
     </g>
     <g id="text_13">
      <!-- $\mathdefault{2.15\times10^{2}}$ -->
      <g transform="translate(22.81375 161.461809)">
       <text>
        <tspan style="font: 10px 'DejaVu Sans'" x="0 6.362305 9.541016 15.90332 24.213867 34.541016 40.90332" y="-0.9765625">2.15×10</tspan>
        <tspan style="font: 7px 'DejaVu Sans'" x="47.361328" y="-4.8046875">2</tspan>
       </text>
      </g>
     </g>
    </g>
    <g id="ytick_7">
     <g id="line2d_19">
      <g>
       <use xlink:href="#mb96e471d1f" x="80.31375" y="94.277018" style="stroke: #000000; stroke-width: 0.6"/>
      </g>
     </g>
     <g id="text_14">
      <!-- $\mathdefault{2.2\times10^{2}}$ -->
      <g transform="translate(29.71375 98.076236)">
       <text>
        <tspan style="font: 10px 'DejaVu Sans'" x="0 6.362305 9.041016 17.351562 27.678711 34.041016" y="-0.9765625">2.2×10</tspan>
        <tspan style="font: 7px 'DejaVu Sans'" x="40.499023" y="-4.8046875">2</tspan>
       </text>
      </g>
     </g>
    </g>
    <g id="ytick_8">
     <g id="line2d_20">
      <g>
       <use xlink:href="#mb96e471d1f" x="80.31375" y="32.315961" style="stroke: #000000; stroke-width: 0.6"/>
      </g>
     </g>
     <g id="text_15">
      <!-- $\mathdefault{2.25\times10^{2}}$ -->
      <g transform="translate(23.31375 36.11518)">
       <text>
        <tspan style="font: 10px 'DejaVu Sans'" x="0 6.362305 9.041016 15.40332 23.713867 34.041016 40.40332" y="-0.9765625">2.25×10</tspan>
        <tspan style="font: 7px 'DejaVu Sans'" x="46.861328" y="-4.8046875">2</tspan>
       </text>
      </g>
     </g>
    </g>
    <g id="text_16">
     <text style="font: 12px 'DejaVu Sans', 'Bitstream Vera Sans', 'Computer Modern Sans Serif', 'Lucida Grande', 'Verdana', 'Geneva', 'Lucid', 'Arial', 'Helvetica', 'Avant Garde', sans-serif; text-anchor: middle" x="16.318125" y="276.572969" transform="rotate(-90 16.318125 276.572969)">Median Elapsed Time (nanoseconds)</text>
    </g>
   </g>
   <g id="line2d_21">
    <path d="M 109.92206 296.738053 
L 122.258855 269.013009 
L 134.595651 454.43407 
L 146.932447 275.875447 
L 159.269242 285.217018 
L 171.606038 116.928317 
L 183.942834 125.660895 
L 196.279629 451.579285 
L 208.616425 286.426088 
L 220.953221 433.094887 
L 233.290017 107.9714 
L 245.626812 289.114811 
L 257.963608 295.848113 
L 282.637199 283.739985 
L 294.973995 294.500137 
L 319.647586 506.332202 
L 331.984382 82.89596 
L 344.321178 62.874615 
L 356.657973 290.594728 
L 368.994769 438.769207 
L 393.668361 113.013971 
L 406.005156 297.331649 
L 418.341952 279.715729 
L 430.678748 120.595162 
L 455.352339 300.031033 
L 467.689135 474.64462 
L 480.02593 443.174851 
L 492.362726 289.114811 
L 504.699522 291.940796 
L 517.036317 116.801961 
L 529.373113 235.550109 
L 541.709909 290.594728 
L 566.3835 301.246619 
L 578.720296 100.424794 
L 591.057092 100.424794 
L 615.730683 91.646447 
L 652.74107 274.359176 
L 665.077866 285.217018 
L 677.414661 450.153001 
L 689.751457 450.153001 
L 702.088253 90.394676 
" clip-path="url(#p4b261aba15)" style="fill: none; stroke: #1f77b4; stroke-width: 2; stroke-linecap: square"/>
    <defs>
     <path id="mb9b45d9a17" d="M 0 3 
C 0.795609 3 1.55874 2.683901 2.12132 2.12132 
C 2.683901 1.55874 3 0.795609 3 0 
C 3 -0.795609 2.683901 -1.55874 2.12132 -2.12132 
C 1.55874 -2.683901 0.795609 -3 0 -3 
C -0.795609 -3 -1.55874 -2.683901 -2.12132 -2.12132 
C -2.683901 -1.55874 -3 -0.795609 -3 0 
C -3 0.795609 -2.683901 1.55874 -2.12132 2.12132 
C -1.55874 2.683901 -0.795609 3 0 3 
z
" style="stroke: #1f77b4"/>
    </defs>
    <g clip-path="url(#p4b261aba15)">
     <use xlink:href="#mb9b45d9a17" x="109.92206" y="296.738053" style="fill: #1f77b4; stroke: #1f77b4"/>
     <use xlink:href="#mb9b45d9a17" x="122.258855" y="269.013009" style="fill: #1f77b4; stroke: #1f77b4"/>
     <use xlink:href="#mb9b45d9a17" x="134.595651" y="454.43407" style="fill: #1f77b4; stroke: #1f77b4"/>
     <use xlink:href="#mb9b45d9a17" x="146.932447" y="275.875447" style="fill: #1f77b4; stroke: #1f77b4"/>
     <use xlink:href="#mb9b45d9a17" x="159.269242" y="285.217018" style="fill: #1f77b4; stroke: #1f77b4"/>
     <use xlink:href="#mb9b45d9a17" x="171.606038" y="116.928317" style="fill: #1f77b4; stroke: #1f77b4"/>
     <use xlink:href="#mb9b45d9a17" x="183.942834" y="125.660895" style="fill: #1f77b4; stroke: #1f77b4"/>
     <use xlink:href="#mb9b45d9a17" x="196.279629" y="451.579285" style="fill: #1f77b4; stroke: #1f77b4"/>
     <use xlink:href="#mb9b45d9a17" x="208.616425" y="286.426088" style="fill: #1f77b4; stroke: #1f77b4"/>
     <use xlink:href="#mb9b45d9a17" x="220.953221" y="433.094887" style="fill: #1f77b4; stroke: #1f77b4"/>
     <use xlink:href="#mb9b45d9a17" x="233.290017" y="107.9714" style="fill: #1f77b4; stroke: #1f77b4"/>
     <use xlink:href="#mb9b45d9a17" x="245.626812" y="289.114811" style="fill: #1f77b4; stroke: #1f77b4"/>
     <use xlink:href="#mb9b45d9a17" x="257.963608" y="295.848113" style="fill: #1f77b4; stroke: #1f77b4"/>
     <use xlink:href="#mb9b45d9a17" x="282.637199" y="283.739985" style="fill: #1f77b4; stroke: #1f77b4"/>
     <use xlink:href="#mb9b45d9a17" x="294.973995" y="294.500137" style="fill: #1f77b4; stroke: #1f77b4"/>
     <use xlink:href="#mb9b45d9a17" x="319.647586" y="506.332202" style="fill: #1f77b4; stroke: #1f77b4"/>
     <use xlink:href="#mb9b45d9a17" x="331.984382" y="82.89596" style="fill: #1f77b4; stroke: #1f77b4"/>
     <use xlink:href="#mb9b45d9a17" x="344.321178" y="62.874615" style="fill: #1f77b4; stroke: #1f77b4"/>
     <use xlink:href="#mb9b45d9a17" x="356.657973" y="290.594728" style="fill: #1f77b4; stroke: #1f77b4"/>
     <use xlink:href="#mb9b45d9a17" x="368.994769" y="438.769207" style="fill: #1f77b4; stroke: #1f77b4"/>
     <use xlink:href="#mb9b45d9a17" x="393.668361" y="113.013971" style="fill: #1f77b4; stroke: #1f77b4"/>
     <use xlink:href="#mb9b45d9a17" x="406.005156" y="297.331649" style="fill: #1f77b4; stroke: #1f77b4"/>
     <use xlink:href="#mb9b45d9a17" x="418.341952" y="279.715729" style="fill: #1f77b4; stroke: #1f77b4"/>
     <use xlink:href="#mb9b45d9a17" x="430.678748" y="120.595162" style="fill: #1f77b4; stroke: #1f77b4"/>
     <use xlink:href="#mb9b45d9a17" x="455.352339" y="300.031033" style="fill: #1f77b4; stroke: #1f77b4"/>
     <use xlink:href="#mb9b45d9a17" x="467.689135" y="474.64462" style="fill: #1f77b4; stroke: #1f77b4"/>
     <use xlink:href="#mb9b45d9a17" x="480.02593" y="443.174851" style="fill: #1f77b4; stroke: #1f77b4"/>
     <use xlink:href="#mb9b45d9a17" x="492.362726" y="289.114811" style="fill: #1f77b4; stroke: #1f77b4"/>
     <use xlink:href="#mb9b45d9a17" x="504.699522" y="291.940796" style="fill: #1f77b4; stroke: #1f77b4"/>
     <use xlink:href="#mb9b45d9a17" x="517.036317" y="116.801961" style="fill: #1f77b4; stroke: #1f77b4"/>
     <use xlink:href="#mb9b45d9a17" x="529.373113" y="235.550109" style="fill: #1f77b4; stroke: #1f77b4"/>
     <use xlink:href="#mb9b45d9a17" x="541.709909" y="290.594728" style="fill: #1f77b4; stroke: #1f77b4"/>
     <use xlink:href="#mb9b45d9a17" x="566.3835" y="301.246619" style="fill: #1f77b4; stroke: #1f77b4"/>
     <use xlink:href="#mb9b45d9a17" x="578.720296" y="100.424794" style="fill: #1f77b4; stroke: #1f77b4"/>
     <use xlink:href="#mb9b45d9a17" x="591.057092" y="100.424794" style="fill: #1f77b4; stroke: #1f77b4"/>
     <use xlink:href="#mb9b45d9a17" x="615.730683" y="91.646447" style="fill: #1f77b4; stroke: #1f77b4"/>
     <use xlink:href="#mb9b45d9a17" x="652.74107" y="274.359176" style="fill: #1f77b4; stroke: #1f77b4"/>
     <use xlink:href="#mb9b45d9a17" x="665.077866" y="285.217018" style="fill: #1f77b4; stroke: #1f77b4"/>
     <use xlink:href="#mb9b45d9a17" x="677.414661" y="450.153001" style="fill: #1f77b4; stroke: #1f77b4"/>
     <use xlink:href="#mb9b45d9a17" x="689.751457" y="450.153001" style="fill: #1f77b4; stroke: #1f77b4"/>
     <use xlink:href="#mb9b45d9a17" x="702.088253" y="90.394676" style="fill: #1f77b4; stroke: #1f77b4"/>
    </g>
   </g>
   <g id="line2d_22">
    <path d="M 109.92206 287.904562 
L 122.258855 268.772299 
L 134.595651 279.849776 
L 146.932447 110.491533 
L 159.269242 249.056705 
L 171.606038 408.967986 
L 183.942834 439.517676 
L 196.279629 249.056705 
L 208.616425 273.844596 
L 220.953221 66.718372 
L 233.290017 46.813736 
L 245.626812 417.409543 
L 257.963608 89.018384 
L 270.300404 302.733063 
L 282.637199 410.373119 
L 294.973995 430.628028 
L 319.647586 92.773527 
L 331.984382 443.032623 
L 344.321178 95.405174 
L 356.657973 259.815166 
L 368.994769 428.705307 
L 381.331565 294.634905 
L 393.668361 416.000821 
L 406.005156 453.006308 
L 418.341952 254.364278 
L 430.678748 281.190608 
L 455.352339 250.543933 
L 467.689135 447.302643 
L 480.02593 97.913841 
L 492.362726 79.154237 
L 504.699522 265.010176 
L 517.036317 427.290803 
L 529.373113 71.685989 
L 541.709909 390.766131 
L 566.3835 300.031033 
L 578.720296 392.162016 
L 591.057092 289.249316 
L 603.393887 255.226785 
L 615.730683 430.120537 
L 640.404274 70.443245 
L 652.74107 410.373119 
L 665.077866 287.904562 
L 677.414661 414.733586 
L 689.751457 86.517793 
L 702.088253 302.597899 
" clip-path="url(#p4b261aba15)" style="fill: none; stroke: #ff7f0e; stroke-width: 2; stroke-linecap: square"/>
    <defs>
     <path id="m17ae3c9317" d="M 0 3 
C 0.795609 3 1.55874 2.683901 2.12132 2.12132 
C 2.683901 1.55874 3 0.795609 3 0 
C 3 -0.795609 2.683901 -1.55874 2.12132 -2.12132 
C 1.55874 -2.683901 0.795609 -3 0 -3 
C -0.795609 -3 -1.55874 -2.683901 -2.12132 -2.12132 
C -2.683901 -1.55874 -3 -0.795609 -3 0 
C -3 0.795609 -2.683901 1.55874 -2.12132 2.12132 
C -1.55874 2.683901 -0.795609 3 0 3 
z
" style="stroke: #ff7f0e"/>
    </defs>
    <g clip-path="url(#p4b261aba15)">
     <use xlink:href="#m17ae3c9317" x="109.92206" y="287.904562" style="fill: #ff7f0e; stroke: #ff7f0e"/>
     <use xlink:href="#m17ae3c9317" x="122.258855" y="268.772299" style="fill: #ff7f0e; stroke: #ff7f0e"/>
     <use xlink:href="#m17ae3c9317" x="134.595651" y="279.849776" style="fill: #ff7f0e; stroke: #ff7f0e"/>
     <use xlink:href="#m17ae3c9317" x="146.932447" y="110.491533" style="fill: #ff7f0e; stroke: #ff7f0e"/>
     <use xlink:href="#m17ae3c9317" x="159.269242" y="249.056705" style="fill: #ff7f0e; stroke: #ff7f0e"/>
     <use xlink:href="#m17ae3c9317" x="171.606038" y="408.967986" style="fill: #ff7f0e; stroke: #ff7f0e"/>
     <use xlink:href="#m17ae3c9317" x="183.942834" y="439.517676" style="fill: #ff7f0e; stroke: #ff7f0e"/>
     <use xlink:href="#m17ae3c9317" x="196.279629" y="249.056705" style="fill: #ff7f0e; stroke: #ff7f0e"/>
     <use xlink:href="#m17ae3c9317" x="208.616425" y="273.844596" style="fill: #ff7f0e; stroke: #ff7f0e"/>
     <use xlink:href="#m17ae3c9317" x="220.953221" y="66.718372" style="fill: #ff7f0e; stroke: #ff7f0e"/>
     <use xlink:href="#m17ae3c9317" x="233.290017" y="46.813736" style="fill: #ff7f0e; stroke: #ff7f0e"/>
     <use xlink:href="#m17ae3c9317" x="245.626812" y="417.409543" style="fill: #ff7f0e; stroke: #ff7f0e"/>
     <use xlink:href="#m17ae3c9317" x="257.963608" y="89.018384" style="fill: #ff7f0e; stroke: #ff7f0e"/>
     <use xlink:href="#m17ae3c9317" x="270.300404" y="302.733063" style="fill: #ff7f0e; stroke: #ff7f0e"/>
     <use xlink:href="#m17ae3c9317" x="282.637199" y="410.373119" style="fill: #ff7f0e; stroke: #ff7f0e"/>
     <use xlink:href="#m17ae3c9317" x="294.973995" y="430.628028" style="fill: #ff7f0e; stroke: #ff7f0e"/>
     <use xlink:href="#m17ae3c9317" x="319.647586" y="92.773527" style="fill: #ff7f0e; stroke: #ff7f0e"/>
     <use xlink:href="#m17ae3c9317" x="331.984382" y="443.032623" style="fill: #ff7f0e; stroke: #ff7f0e"/>
     <use xlink:href="#m17ae3c9317" x="344.321178" y="95.405174" style="fill: #ff7f0e; stroke: #ff7f0e"/>
     <use xlink:href="#m17ae3c9317" x="356.657973" y="259.815166" style="fill: #ff7f0e; stroke: #ff7f0e"/>
     <use xlink:href="#m17ae3c9317" x="368.994769" y="428.705307" style="fill: #ff7f0e; stroke: #ff7f0e"/>
     <use xlink:href="#m17ae3c9317" x="381.331565" y="294.634905" style="fill: #ff7f0e; stroke: #ff7f0e"/>
     <use xlink:href="#m17ae3c9317" x="393.668361" y="416.000821" style="fill: #ff7f0e; stroke: #ff7f0e"/>
     <use xlink:href="#m17ae3c9317" x="406.005156" y="453.006308" style="fill: #ff7f0e; stroke: #ff7f0e"/>
     <use xlink:href="#m17ae3c9317" x="418.341952" y="254.364278" style="fill: #ff7f0e; stroke: #ff7f0e"/>
     <use xlink:href="#m17ae3c9317" x="430.678748" y="281.190608" style="fill: #ff7f0e; stroke: #ff7f0e"/>
     <use xlink:href="#m17ae3c9317" x="455.352339" y="250.543933" style="fill: #ff7f0e; stroke: #ff7f0e"/>
     <use xlink:href="#m17ae3c9317" x="467.689135" y="447.302643" style="fill: #ff7f0e; stroke: #ff7f0e"/>
     <use xlink:href="#m17ae3c9317" x="480.02593" y="97.913841" style="fill: #ff7f0e; stroke: #ff7f0e"/>
     <use xlink:href="#m17ae3c9317" x="492.362726" y="79.154237" style="fill: #ff7f0e; stroke: #ff7f0e"/>
     <use xlink:href="#m17ae3c9317" x="504.699522" y="265.010176" style="fill: #ff7f0e; stroke: #ff7f0e"/>
     <use xlink:href="#m17ae3c9317" x="517.036317" y="427.290803" style="fill: #ff7f0e; stroke: #ff7f0e"/>
     <use xlink:href="#m17ae3c9317" x="529.373113" y="71.685989" style="fill: #ff7f0e; stroke: #ff7f0e"/>
     <use xlink:href="#m17ae3c9317" x="541.709909" y="390.766131" style="fill: #ff7f0e; stroke: #ff7f0e"/>
     <use xlink:href="#m17ae3c9317" x="566.3835" y="300.031033" style="fill: #ff7f0e; stroke: #ff7f0e"/>
     <use xlink:href="#m17ae3c9317" x="578.720296" y="392.162016" style="fill: #ff7f0e; stroke: #ff7f0e"/>
     <use xlink:href="#m17ae3c9317" x="591.057092" y="289.249316" style="fill: #ff7f0e; stroke: #ff7f0e"/>
     <use xlink:href="#m17ae3c9317" x="603.393887" y="255.226785" style="fill: #ff7f0e; stroke: #ff7f0e"/>
     <use xlink:href="#m17ae3c9317" x="615.730683" y="430.120537" style="fill: #ff7f0e; stroke: #ff7f0e"/>
     <use xlink:href="#m17ae3c9317" x="640.404274" y="70.443245" style="fill: #ff7f0e; stroke: #ff7f0e"/>
     <use xlink:href="#m17ae3c9317" x="652.74107" y="410.373119" style="fill: #ff7f0e; stroke: #ff7f0e"/>
     <use xlink:href="#m17ae3c9317" x="665.077866" y="287.904562" style="fill: #ff7f0e; stroke: #ff7f0e"/>
     <use xlink:href="#m17ae3c9317" x="677.414661" y="414.733586" style="fill: #ff7f0e; stroke: #ff7f0e"/>
     <use xlink:href="#m17ae3c9317" x="689.751457" y="86.517793" style="fill: #ff7f0e; stroke: #ff7f0e"/>
     <use xlink:href="#m17ae3c9317" x="702.088253" y="302.597899" style="fill: #ff7f0e; stroke: #ff7f0e"/>
    </g>
   </g>
   <g id="patch_3">
    <path d="M 80.31375 529.308125 
L 80.31375 23.837812 
" style="fill: none; stroke: #000000; stroke-width: 0.8; stroke-linejoin: miter; stroke-linecap: square"/>
   </g>
   <g id="patch_4">
    <path d="M 731.696562 529.308125 
L 731.696562 23.837812 
" style="fill: none; stroke: #000000; stroke-width: 0.8; stroke-linejoin: miter; stroke-linecap: square"/>
   </g>
   <g id="patch_5">
    <path d="M 80.31375 529.308125 
L 731.696563 529.308125 
" style="fill: none; stroke: #000000; stroke-width: 0.8; stroke-linejoin: miter; stroke-linecap: square"/>
   </g>
   <g id="patch_6">
    <path d="M 80.31375 23.837812 
L 731.696563 23.837812 
" style="fill: none; stroke: #000000; stroke-width: 0.8; stroke-linejoin: miter; stroke-linecap: square"/>
   </g>
   <g id="text_17">
    <text style="font: 700 14px 'DejaVu Sans', 'Bitstream Vera Sans', 'Computer Modern Sans Serif', 'Lucida Grande', 'Verdana', 'Geneva', 'Lucid', 'Arial', 'Helvetica', 'Avant Garde', sans-serif; text-anchor: middle" x="406.005156" y="17.837813" transform="rotate(-0 406.005156 17.837813)">Coalescing Arena Alloc Dealloc - Performance Trend</text>
   </g>
   <g id="legend_1">
    <g id="patch_7">
     <path d="M 771.265703 61.194063 
L 846.689141 61.194063 
Q 848.689141 61.194063 848.689141 59.194063 
L 848.689141 30.837813 
Q 848.689141 28.837813 846.689141 28.837813 
L 771.265703 28.837813 
Q 769.265703 28.837813 769.265703 30.837813 
L 769.265703 59.194063 
Q 769.265703 61.194063 771.265703 61.194063 
z
" style="fill: #ffffff; opacity: 0.8; stroke: #cccccc; stroke-linejoin: miter"/>
    </g>
    <g id="line2d_23">
     <path d="M 773.265703 36.93625 
L 783.265703 36.93625 
L 793.265703 36.93625 
" style="fill: none; stroke: #1f77b4; stroke-width: 2; stroke-linecap: square"/>
     <g>
      <use xlink:href="#mb9b45d9a17" x="783.265703" y="36.93625" style="fill: #1f77b4; stroke: #1f77b4"/>
     </g>
    </g>
    <g id="text_18">
     <text style="font: 10px 'DejaVu Sans', 'Bitstream Vera Sans', 'Computer Modern Sans Serif', 'Lucida Grande', 'Verdana', 'Geneva', 'Lucid', 'Arial', 'Helvetica', 'Avant Garde', sans-serif; text-anchor: start" x="801.265703" y="40.43625" transform="rotate(-0 801.265703 40.43625)">clang-18</text>
    </g>
    <g id="line2d_24">
     <path d="M 773.265703 51.614375 
L 783.265703 51.614375 
L 793.265703 51.614375 
" style="fill: none; stroke: #ff7f0e; stroke-width: 2; stroke-linecap: square"/>
     <g>
      <use xlink:href="#m17ae3c9317" x="783.265703" y="51.614375" style="fill: #ff7f0e; stroke: #ff7f0e"/>
     </g>
    </g>
    <g id="text_19">
     <text style="font: 10px 'DejaVu Sans', 'Bitstream Vera Sans', 'Computer Modern Sans Serif', 'Lucida Grande', 'Verdana', 'Geneva', 'Lucid', 'Arial', 'Helvetica', 'Avant Garde', sans-serif; text-anchor: start" x="801.265703" y="55.114375" transform="rotate(-0 801.265703 55.114375)">gcc-14</text>
    </g>
   </g>
  </g>
 </g>
 <defs>
  <clipPath id="p4b261aba15">
   <rect x="80.31375" y="23.837813" width="651.382812" height="505.470313"/>
  </clipPath>
 </defs>
</svg>
