<?xml version="1.0" encoding="utf-8" standalone="no"?>
<!DOCTYPE svg PUBLIC "-//W3C//DTD SVG 1.1//EN"
  "http://www.w3.org/Graphics/SVG/1.1/DTD/svg11.dtd">
<svg xmlns:xlink="http://www.w3.org/1999/xlink" width="856.204141pt" height="568.8pt" viewBox="0 0 856.204141 568.8" xmlns="http://www.w3.org/2000/svg" version="1.1">
 <metadata>
  <rdf:RDF xmlns:dc="http://purl.org/dc/elements/1.1/" xmlns:cc="http://creativecommons.org/ns#" xmlns:rdf="http://www.w3.org/1999/02/22-rdf-syntax-ns#">
   <cc:Work>
    <dc:type rdf:resource="http://purl.org/dc/dcmitype/StillImage"/>
    <dc:date>2026-06-12T00:15:43.122691</dc:date>
    <dc:format>image/svg+xml</dc:format>
    <dc:creator>
     <cc:Agent>
      <dc:title>Matplotlib v3.9.4, https://matplotlib.org/</dc:title>
     </cc:Agent>
    </dc:creator>
   </cc:Work>
  </rdf:RDF>
 </metadata>
 <defs>
  <style type="text/css">*{stroke-linejoin: round; stroke-linecap: butt}</style>
 </defs>
 <g id="figure_1">
  <g id="patch_1">
   <path d="M 0 568.8 
L 856.204141 568.8 
L 856.204141 0 
L 0 0 
z
" style="fill: #ffffff"/>
  </g>
  <g id="axes_1">
   <g id="patch_2">
    <path d="M 74.01375 529.308125 
L 731.696563 529.308125 
L 731.696563 23.837812 
L 74.01375 23.837812 
z
" style="fill: #ffffff"/>
   </g>
   <g id="matplotlib.axis_1">
    <g id="xtick_1">
     <g id="line2d_1">
      <path d="M 93.599915 529.308125 
L 93.599915 23.837812 
" clip-path="url(#pf943a7cc4a)" style="fill: none; stroke: #b0b0b0; stroke-opacity: 0.3; stroke-width: 0.8; stroke-linecap: square"/>
     </g>
     <g id="line2d_2">
      <defs>
       <path id="m20faa3ef10" d="M 0 0 
L 0 3.5 
" style="stroke: #000000; stroke-width: 0.8"/>
      </defs>
      <g>
       <use xlink:href="#m20faa3ef10" x="93.599915" y="529.308125" style="stroke: #000000; stroke-width: 0.8"/>
      </g>
     </g>
     <g id="text_1">
      <text style="font: 10px 'DejaVu Sans', 'Bitstream Vera Sans', 'Computer Modern Sans Serif', 'Lucida Grande', 'Verdana', 'Geneva', 'Lucid', 'Arial', 'Helvetica', 'Avant Garde', sans-serif; text-anchor: middle" x="93.599915" y="543.906563" transform="rotate(-0 93.599915 543.906563)">70</text>
     </g>
    </g>
    <g id="xtick_2">
     <g id="line2d_3">
      <path d="M 196.684996 529.308125 
L 196.684996 23.837812 
" clip-path="url(#pf943a7cc4a)" style="fill: none; stroke: #b0b0b0; stroke-opacity: 0.3; stroke-width: 0.8; stroke-linecap: square"/>
     </g>
     <g id="line2d_4">
      <g>
       <use xlink:href="#m20faa3ef10" x="196.684996" y="529.308125" style="stroke: #000000; stroke-width: 0.8"/>
      </g>
     </g>
     <g id="text_2">
      <text style="font: 10px 'DejaVu Sans', 'Bitstream Vera Sans', 'Computer Modern Sans Serif', 'Lucida Grande', 'Verdana', 'Geneva', 'Lucid', 'Arial', 'Helvetica', 'Avant Garde', sans-serif; text-anchor: middle" x="196.684996" y="543.906563" transform="rotate(-0 196.684996 543.906563)">80</text>
     </g>
    </g>
    <g id="xtick_3">
     <g id="line2d_5">
      <path d="M 299.770076 529.308125 
L 299.770076 23.837812 
" clip-path="url(#pf943a7cc4a)" style="fill: none; stroke: #b0b0b0; stroke-opacity: 0.3; stroke-width: 0.8; stroke-linecap: square"/>
     </g>
     <g id="line2d_6">
      <g>
       <use xlink:href="#m20faa3ef10" x="299.770076" y="529.308125" style="stroke: #000000; stroke-width: 0.8"/>
      </g>
     </g>
     <g id="text_3">
      <text style="font: 10px 'DejaVu Sans', 'Bitstream Vera Sans', 'Computer Modern Sans Serif', 'Lucida Grande', 'Verdana', 'Geneva', 'Lucid', 'Arial', 'Helvetica', 'Avant Garde', sans-serif; text-anchor: middle" x="299.770076" y="543.906563" transform="rotate(-0 299.770076 543.906563)">90</text>
     </g>
    </g>
    <g id="xtick_4">
     <g id="line2d_7">
      <path d="M 402.855156 529.308125 
L 402.855156 23.837812 
" clip-path="url(#pf943a7cc4a)" style="fill: none; stroke: #b0b0b0; stroke-opacity: 0.3; stroke-width: 0.8; stroke-linecap: square"/>
     </g>
     <g id="line2d_8">
      <g>
       <use xlink:href="#m20faa3ef10" x="402.855156" y="529.308125" style="stroke: #000000; stroke-width: 0.8"/>
      </g>
     </g>
     <g id="text_4">
      <text style="font: 10px 'DejaVu Sans', 'Bitstream Vera Sans', 'Computer Modern Sans Serif', 'Lucida Grande', 'Verdana', 'Geneva', 'Lucid', 'Arial', 'Helvetica', 'Avant Garde', sans-serif; text-anchor: middle" x="402.855156" y="543.906563" transform="rotate(-0 402.855156 543.906563)">100</text>
     </g>
    </g>
    <g id="xtick_5">
     <g id="line2d_9">
      <path d="M 505.940237 529.308125 
L 505.940237 23.837812 
" clip-path="url(#pf943a7cc4a)" style="fill: none; stroke: #b0b0b0; stroke-opacity: 0.3; stroke-width: 0.8; stroke-linecap: square"/>
     </g>
     <g id="line2d_10">
      <g>
       <use xlink:href="#m20faa3ef10" x="505.940237" y="529.308125" style="stroke: #000000; stroke-width: 0.8"/>
      </g>
     </g>
     <g id="text_5">
      <text style="font: 10px 'DejaVu Sans', 'Bitstream Vera Sans', 'Computer Modern Sans Serif', 'Lucida Grande', 'Verdana', 'Geneva', 'Lucid', 'Arial', 'Helvetica', 'Avant Garde', sans-serif; text-anchor: middle" x="505.940237" y="543.906563" transform="rotate(-0 505.940237 543.906563)">110</text>
     </g>
    </g>
    <g id="xtick_6">
     <g id="line2d_11">
      <path d="M 609.025317 529.308125 
L 609.025317 23.837812 
" clip-path="url(#pf943a7cc4a)" style="fill: none; stroke: #b0b0b0; stroke-opacity: 0.3; stroke-width: 0.8; stroke-linecap: square"/>
     </g>
     <g id="line2d_12">
      <g>
       <use xlink:href="#m20faa3ef10" x="609.025317" y="529.308125" style="stroke: #000000; stroke-width: 0.8"/>
      </g>
     </g>
     <g id="text_6">
      <text style="font: 10px 'DejaVu Sans', 'Bitstream Vera Sans', 'Computer Modern Sans Serif', 'Lucida Grande', 'Verdana', 'Geneva', 'Lucid', 'Arial', 'Helvetica', 'Avant Garde', sans-serif; text-anchor: middle" x="609.025317" y="543.906563" transform="rotate(-0 609.025317 543.906563)">120</text>
     </g>
    </g>
    <g id="xtick_7">
     <g id="line2d_13">
      <path d="M 712.110397 529.308125 
L 712.110397 23.837812 
" clip-path="url(#pf943a7cc4a)" style="fill: none; stroke: #b0b0b0; stroke-opacity: 0.3; stroke-width: 0.8; stroke-linecap: square"/>
     </g>
     <g id="line2d_14">
      <g>
       <use xlink:href="#m20faa3ef10" x="712.110397" y="529.308125" style="stroke: #000000; stroke-width: 0.8"/>
      </g>
     </g>
     <g id="text_7">
      <text style="font: 10px 'DejaVu Sans', 'Bitstream Vera Sans', 'Computer Modern Sans Serif', 'Lucida Grande', 'Verdana', 'Geneva', 'Lucid', 'Arial', 'Helvetica', 'Avant Garde', sans-serif; text-anchor: middle" x="712.110397" y="543.906563" transform="rotate(-0 712.110397 543.906563)">130</text>
     </g>
    </g>
    <g id="text_8">
     <text style="font: 12px 'DejaVu Sans', 'Bitstream Vera Sans', 'Computer Modern Sans Serif', 'Lucida Grande', 'Verdana', 'Geneva', 'Lucid', 'Arial', 'Helvetica', 'Avant Garde', sans-serif; text-anchor: middle" x="402.855156" y="559.104375" transform="rotate(-0 402.855156 559.104375)">Build Number</text>
    </g>
   </g>
   <g id="matplotlib.axis_2">
    <g id="ytick_1">
     <g id="line2d_15">
      <defs>
       <path id="mc2f489ae39" d="M 0 0 
L -2 0 
" style="stroke: #000000; stroke-width: 0.6"/>
      </defs>
      <g>
       <use xlink:href="#mc2f489ae39" x="74.01375" y="462.427471" style="stroke: #000000; stroke-width: 0.6"/>
      </g>
     </g>
     <g id="text_9">
      <!-- $\mathdefault{1.4\times10^{2}}$ -->
      <g transform="translate(22.81375 466.22669)">
       <text>
        <tspan style="font: 10px 'DejaVu Sans'" x="0 6.362305 9.541016 17.851562 28.178711 34.541016" y="-0.9765625">1.4×10</tspan>
        <tspan style="font: 7px 'DejaVu Sans'" x="40.999023" y="-4.8046875">2</tspan>
       </text>
      </g>
     </g>
    </g>
    <g id="ytick_2">
     <g id="line2d_16">
      <g>
       <use xlink:href="#mc2f489ae39" x="74.01375" y="344.146328" style="stroke: #000000; stroke-width: 0.6"/>
      </g>
     </g>
     <g id="text_10">
      <!-- $\mathdefault{1.6\times10^{2}}$ -->
      <g transform="translate(22.81375 347.945547)">
       <text>
        <tspan style="font: 10px 'DejaVu Sans'" x="0 6.362305 9.541016 17.851562 28.178711 34.541016" y="-0.9765625">1.6×10</tspan>
        <tspan style="font: 7px 'DejaVu Sans'" x="40.999023" y="-4.8046875">2</tspan>
       </text>
      </g>
     </g>
    </g>
    <g id="ytick_3">
     <g id="line2d_17">
      <g>
       <use xlink:href="#mc2f489ae39" x="74.01375" y="239.814966" style="stroke: #000000; stroke-width: 0.6"/>
      </g>
     </g>
     <g id="text_11">
      <!-- $\mathdefault{1.8\times10^{2}}$ -->
      <g transform="translate(23.11375 243.614185)">
       <text>
        <tspan style="font: 10px 'DejaVu Sans'" x="0 6.362305 9.291016 17.601562 27.928711 34.291016" y="-0.9765625">1.8×10</tspan>
        <tspan style="font: 7px 'DejaVu Sans'" x="40.749023" y="-4.8046875">2</tspan>
       </text>
      </g>
     </g>
    </g>
    <g id="ytick_4">
     <g id="line2d_18">
      <g>
       <use xlink:href="#mc2f489ae39" x="74.01375" y="146.487383" style="stroke: #000000; stroke-width: 0.6"/>
      </g>
     </g>
     <g id="text_12">
      <!-- $\mathdefault{2\times10^{2}}$ -->
      <g transform="translate(32.41375 150.286601)">
       <text>
        <tspan style="font: 10px 'DejaVu Sans'" x="0 8.310547 18.637695 25" y="-0.9765625">2×10</tspan>
        <tspan style="font: 7px 'DejaVu Sans'" x="31.458008" y="-4.8046875">2</tspan>
       </text>
      </g>
     </g>
    </g>
    <g id="ytick_5">
     <g id="line2d_19">
      <g>
       <use xlink:href="#mc2f489ae39" x="74.01375" y="62.062314" style="stroke: #000000; stroke-width: 0.6"/>
      </g>
     </g>
     <g id="text_13">
      <!-- $\mathdefault{2.2\times10^{2}}$ -->
      <g transform="translate(23.41375 65.861533)">
       <text>
        <tspan style="font: 10px 'DejaVu Sans'" x="0 6.362305 9.041016 17.351562 27.678711 34.041016" y="-0.9765625">2.2×10</tspan>
        <tspan style="font: 7px 'DejaVu Sans'" x="40.499023" y="-4.8046875">2</tspan>
       </text>
      </g>
     </g>
    </g>
    <g id="text_14">
     <text style="font: 12px 'DejaVu Sans', 'Bitstream Vera Sans', 'Computer Modern Sans Serif', 'Lucida Grande', 'Verdana', 'Geneva', 'Lucid', 'Arial', 'Helvetica', 'Avant Garde', sans-serif; text-anchor: middle" x="16.318125" y="276.572969" transform="rotate(-90 16.318125 276.572969)">Median Elapsed Time (nanoseconds)</text>
    </g>
   </g>
   <g id="line2d_20">
    <path d="M 103.908423 127.107182 
L 114.216931 118.199928 
L 124.525439 177.770346 
L 134.833947 120.404631 
L 145.142455 123.405807 
L 155.450963 69.33952 
L 165.759471 72.145045 
L 176.06798 176.853186 
L 186.376488 123.794246 
L 196.684996 170.914684 
L 206.993504 66.461923 
L 217.302012 124.658055 
L 227.61052 126.82127 
L 248.227536 122.931279 
L 258.536044 126.388204 
L 279.15306 194.443713 
L 289.461568 58.40591 
L 299.770076 51.973631 
L 310.078584 125.133509 
L 320.387092 172.737679 
L 341.004108 68.081955 
L 351.312616 127.297887 
L 361.621124 121.638402 
L 371.929632 70.517572 
L 392.546648 128.165121 
L 402.855156 184.26341 
L 413.163664 174.153085 
L 423.472172 124.658055 
L 433.78068 125.565962 
L 444.089188 69.298926 
L 454.397696 107.449267 
L 464.706204 125.133509 
L 485.323221 128.555654 
L 495.631729 64.037416 
L 505.940237 64.037416 
L 526.557253 61.217188 
L 557.482777 119.917497 
L 567.791285 123.405807 
L 578.099793 176.394962 
L 588.408301 176.394962 
L 598.716809 60.81503 
L 609.025317 168.641204 
L 619.333825 67.717189 
L 629.642333 131.642573 
L 639.950841 126.16805 
L 650.259349 83.663116 
L 670.876365 121.250907 
L 681.184873 139.429235 
L 691.493381 123.405807 
L 701.801889 125.868805 
" clip-path="url(#pf943a7cc4a)" style="fill: none; stroke: #1f77b4; stroke-width: 2; stroke-linecap: square"/>
    <defs>
     <path id="m0f849469a3" d="M 0 3 
C 0.795609 3 1.55874 2.683901 2.12132 2.12132 
C 2.683901 1.55874 3 0.795609 3 0 
C 3 -0.795609 2.683901 -1.55874 2.12132 -2.12132 
C 1.55874 -2.683901 0.795609 -3 0 -3 
C -0.795609 -3 -1.55874 -2.683901 -2.12132 -2.12132 
C -2.683901 -1.55874 -3 -0.795609 -3 0 
C -3 0.795609 -2.683901 1.55874 -2.12132 2.12132 
C -1.55874 2.683901 -0.795609 3 0 3 
z
" style="stroke: #1f77b4"/>
    </defs>
    <g clip-path="url(#pf943a7cc4a)">
     <use xlink:href="#m0f849469a3" x="103.908423" y="127.107182" style="fill: #1f77b4; stroke: #1f77b4"/>
     <use xlink:href="#m0f849469a3" x="114.216931" y="118.199928" style="fill: #1f77b4; stroke: #1f77b4"/>
     <use xlink:href="#m0f849469a3" x="124.525439" y="177.770346" style="fill: #1f77b4; stroke: #1f77b4"/>
     <use xlink:href="#m0f849469a3" x="134.833947" y="120.404631" style="fill: #1f77b4; stroke: #1f77b4"/>
     <use xlink:href="#m0f849469a3" x="145.142455" y="123.405807" style="fill: #1f77b4; stroke: #1f77b4"/>
     <use xlink:href="#m0f849469a3" x="155.450963" y="69.33952" style="fill: #1f77b4; stroke: #1f77b4"/>
     <use xlink:href="#m0f849469a3" x="165.759471" y="72.145045" style="fill: #1f77b4; stroke: #1f77b4"/>
     <use xlink:href="#m0f849469a3" x="176.06798" y="176.853186" style="fill: #1f77b4; stroke: #1f77b4"/>
     <use xlink:href="#m0f849469a3" x="186.376488" y="123.794246" style="fill: #1f77b4; stroke: #1f77b4"/>
     <use xlink:href="#m0f849469a3" x="196.684996" y="170.914684" style="fill: #1f77b4; stroke: #1f77b4"/>
     <use xlink:href="#m0f849469a3" x="206.993504" y="66.461923" style="fill: #1f77b4; stroke: #1f77b4"/>
     <use xlink:href="#m0f849469a3" x="217.302012" y="124.658055" style="fill: #1f77b4; stroke: #1f77b4"/>
     <use xlink:href="#m0f849469a3" x="227.61052" y="126.82127" style="fill: #1f77b4; stroke: #1f77b4"/>
     <use xlink:href="#m0f849469a3" x="248.227536" y="122.931279" style="fill: #1f77b4; stroke: #1f77b4"/>
     <use xlink:href="#m0f849469a3" x="258.536044" y="126.388204" style="fill: #1f77b4; stroke: #1f77b4"/>
     <use xlink:href="#m0f849469a3" x="279.15306" y="194.443713" style="fill: #1f77b4; stroke: #1f77b4"/>
     <use xlink:href="#m0f849469a3" x="289.461568" y="58.40591" style="fill: #1f77b4; stroke: #1f77b4"/>
     <use xlink:href="#m0f849469a3" x="299.770076" y="51.973631" style="fill: #1f77b4; stroke: #1f77b4"/>
     <use xlink:href="#m0f849469a3" x="310.078584" y="125.133509" style="fill: #1f77b4; stroke: #1f77b4"/>
     <use xlink:href="#m0f849469a3" x="320.387092" y="172.737679" style="fill: #1f77b4; stroke: #1f77b4"/>
     <use xlink:href="#m0f849469a3" x="341.004108" y="68.081955" style="fill: #1f77b4; stroke: #1f77b4"/>
     <use xlink:href="#m0f849469a3" x="351.312616" y="127.297887" style="fill: #1f77b4; stroke: #1f77b4"/>
     <use xlink:href="#m0f849469a3" x="361.621124" y="121.638402" style="fill: #1f77b4; stroke: #1f77b4"/>
     <use xlink:href="#m0f849469a3" x="371.929632" y="70.517572" style="fill: #1f77b4; stroke: #1f77b4"/>
     <use xlink:href="#m0f849469a3" x="392.546648" y="128.165121" style="fill: #1f77b4; stroke: #1f77b4"/>
     <use xlink:href="#m0f849469a3" x="402.855156" y="184.26341" style="fill: #1f77b4; stroke: #1f77b4"/>
     <use xlink:href="#m0f849469a3" x="413.163664" y="174.153085" style="fill: #1f77b4; stroke: #1f77b4"/>
     <use xlink:href="#m0f849469a3" x="423.472172" y="124.658055" style="fill: #1f77b4; stroke: #1f77b4"/>
     <use xlink:href="#m0f849469a3" x="433.78068" y="125.565962" style="fill: #1f77b4; stroke: #1f77b4"/>
     <use xlink:href="#m0f849469a3" x="444.089188" y="69.298926" style="fill: #1f77b4; stroke: #1f77b4"/>
     <use xlink:href="#m0f849469a3" x="454.397696" y="107.449267" style="fill: #1f77b4; stroke: #1f77b4"/>
     <use xlink:href="#m0f849469a3" x="464.706204" y="125.133509" style="fill: #1f77b4; stroke: #1f77b4"/>
     <use xlink:href="#m0f849469a3" x="485.323221" y="128.555654" style="fill: #1f77b4; stroke: #1f77b4"/>
     <use xlink:href="#m0f849469a3" x="495.631729" y="64.037416" style="fill: #1f77b4; stroke: #1f77b4"/>
     <use xlink:href="#m0f849469a3" x="505.940237" y="64.037416" style="fill: #1f77b4; stroke: #1f77b4"/>
     <use xlink:href="#m0f849469a3" x="526.557253" y="61.217188" style="fill: #1f77b4; stroke: #1f77b4"/>
     <use xlink:href="#m0f849469a3" x="557.482777" y="119.917497" style="fill: #1f77b4; stroke: #1f77b4"/>
     <use xlink:href="#m0f849469a3" x="567.791285" y="123.405807" style="fill: #1f77b4; stroke: #1f77b4"/>
     <use xlink:href="#m0f849469a3" x="578.099793" y="176.394962" style="fill: #1f77b4; stroke: #1f77b4"/>
     <use xlink:href="#m0f849469a3" x="588.408301" y="176.394962" style="fill: #1f77b4; stroke: #1f77b4"/>
     <use xlink:href="#m0f849469a3" x="598.716809" y="60.81503" style="fill: #1f77b4; stroke: #1f77b4"/>
     <use xlink:href="#m0f849469a3" x="609.025317" y="168.641204" style="fill: #1f77b4; stroke: #1f77b4"/>
     <use xlink:href="#m0f849469a3" x="619.333825" y="67.717189" style="fill: #1f77b4; stroke: #1f77b4"/>
     <use xlink:href="#m0f849469a3" x="629.642333" y="131.642573" style="fill: #1f77b4; stroke: #1f77b4"/>
     <use xlink:href="#m0f849469a3" x="639.950841" y="126.16805" style="fill: #1f77b4; stroke: #1f77b4"/>
     <use xlink:href="#m0f849469a3" x="650.259349" y="83.663116" style="fill: #1f77b4; stroke: #1f77b4"/>
     <use xlink:href="#m0f849469a3" x="670.876365" y="121.250907" style="fill: #1f77b4; stroke: #1f77b4"/>
     <use xlink:href="#m0f849469a3" x="681.184873" y="139.429235" style="fill: #1f77b4; stroke: #1f77b4"/>
     <use xlink:href="#m0f849469a3" x="691.493381" y="123.405807" style="fill: #1f77b4; stroke: #1f77b4"/>
     <use xlink:href="#m0f849469a3" x="701.801889" y="125.868805" style="fill: #1f77b4; stroke: #1f77b4"/>
    </g>
   </g>
   <g id="line2d_21">
    <path d="M 103.908423 124.269237 
L 114.216931 118.122595 
L 124.525439 121.681468 
L 134.833947 67.271568 
L 145.142455 111.788545 
L 155.450963 163.16341 
L 165.759471 172.97814 
L 176.06798 111.788545 
L 186.376488 119.752177 
L 196.684996 53.208519 
L 206.993504 46.813736 
L 217.302012 165.875438 
L 227.61052 60.372867 
L 237.919028 129.033205 
L 248.227536 163.614838 
L 258.536044 170.122154 
L 279.15306 61.579286 
L 289.461568 174.107391 
L 299.770076 62.424758 
L 310.078584 115.244927 
L 320.387092 169.504439 
L 330.6956 126.431501 
L 341.004108 165.422856 
L 351.312616 177.311647 
L 361.621124 113.493715 
L 371.929632 122.112238 
L 392.546648 112.266349 
L 402.855156 175.479225 
L 413.163664 63.23072 
L 423.472172 57.203802 
L 433.78068 116.913934 
L 444.089188 169.05 
L 454.397696 54.804471 
L 464.706204 157.315681 
L 485.323221 128.165121 
L 495.631729 157.764138 
L 505.940237 124.701268 
L 516.248745 113.770814 
L 526.557253 169.959112 
L 547.174269 54.405213 
L 557.482777 163.614838 
L 567.791285 124.269237 
L 578.099793 165.01573 
L 588.408301 59.5695 
L 598.716809 128.989781 
L 609.025317 125.090276 
L 619.333825 111.788545 
L 629.642333 506.332202 
L 639.950841 166.826612 
L 650.259349 180.527537 
L 670.876365 156.86745 
L 681.184873 108.812374 
L 691.493381 47.24918 
L 701.801889 403.620144 
" clip-path="url(#pf943a7cc4a)" style="fill: none; stroke: #ff7f0e; stroke-width: 2; stroke-linecap: square"/>
    <defs>
     <path id="m6f654f0014" d="M 0 3 
C 0.795609 3 1.55874 2.683901 2.12132 2.12132 
C 2.683901 1.55874 3 0.795609 3 0 
C 3 -0.795609 2.683901 -1.55874 2.12132 -2.12132 
C 1.55874 -2.683901 0.795609 -3 0 -3 
C -0.795609 -3 -1.55874 -2.683901 -2.12132 -2.12132 
C -2.683901 -1.55874 -3 -0.795609 -3 0 
C -3 0.795609 -2.683901 1.55874 -2.12132 2.12132 
C -1.55874 2.683901 -0.795609 3 0 3 
z
" style="stroke: #ff7f0e"/>
    </defs>
    <g clip-path="url(#pf943a7cc4a)">
     <use xlink:href="#m6f654f0014" x="103.908423" y="124.269237" style="fill: #ff7f0e; stroke: #ff7f0e"/>
     <use xlink:href="#m6f654f0014" x="114.216931" y="118.122595" style="fill: #ff7f0e; stroke: #ff7f0e"/>
     <use xlink:href="#m6f654f0014" x="124.525439" y="121.681468" style="fill: #ff7f0e; stroke: #ff7f0e"/>
     <use xlink:href="#m6f654f0014" x="134.833947" y="67.271568" style="fill: #ff7f0e; stroke: #ff7f0e"/>
     <use xlink:href="#m6f654f0014" x="145.142455" y="111.788545" style="fill: #ff7f0e; stroke: #ff7f0e"/>
     <use xlink:href="#m6f654f0014" x="155.450963" y="163.16341" style="fill: #ff7f0e; stroke: #ff7f0e"/>
     <use xlink:href="#m6f654f0014" x="165.759471" y="172.97814" style="fill: #ff7f0e; stroke: #ff7f0e"/>
     <use xlink:href="#m6f654f0014" x="176.06798" y="111.788545" style="fill: #ff7f0e; stroke: #ff7f0e"/>
     <use xlink:href="#m6f654f0014" x="186.376488" y="119.752177" style="fill: #ff7f0e; stroke: #ff7f0e"/>
     <use xlink:href="#m6f654f0014" x="196.684996" y="53.208519" style="fill: #ff7f0e; stroke: #ff7f0e"/>
     <use xlink:href="#m6f654f0014" x="206.993504" y="46.813736" style="fill: #ff7f0e; stroke: #ff7f0e"/>
     <use xlink:href="#m6f654f0014" x="217.302012" y="165.875438" style="fill: #ff7f0e; stroke: #ff7f0e"/>
     <use xlink:href="#m6f654f0014" x="227.61052" y="60.372867" style="fill: #ff7f0e; stroke: #ff7f0e"/>
     <use xlink:href="#m6f654f0014" x="237.919028" y="129.033205" style="fill: #ff7f0e; stroke: #ff7f0e"/>
     <use xlink:href="#m6f654f0014" x="248.227536" y="163.614838" style="fill: #ff7f0e; stroke: #ff7f0e"/>
     <use xlink:href="#m6f654f0014" x="258.536044" y="170.122154" style="fill: #ff7f0e; stroke: #ff7f0e"/>
     <use xlink:href="#m6f654f0014" x="279.15306" y="61.579286" style="fill: #ff7f0e; stroke: #ff7f0e"/>
     <use xlink:href="#m6f654f0014" x="289.461568" y="174.107391" style="fill: #ff7f0e; stroke: #ff7f0e"/>
     <use xlink:href="#m6f654f0014" x="299.770076" y="62.424758" style="fill: #ff7f0e; stroke: #ff7f0e"/>
     <use xlink:href="#m6f654f0014" x="310.078584" y="115.244927" style="fill: #ff7f0e; stroke: #ff7f0e"/>
     <use xlink:href="#m6f654f0014" x="320.387092" y="169.504439" style="fill: #ff7f0e; stroke: #ff7f0e"/>
     <use xlink:href="#m6f654f0014" x="330.6956" y="126.431501" style="fill: #ff7f0e; stroke: #ff7f0e"/>
     <use xlink:href="#m6f654f0014" x="341.004108" y="165.422856" style="fill: #ff7f0e; stroke: #ff7f0e"/>
     <use xlink:href="#m6f654f0014" x="351.312616" y="177.311647" style="fill: #ff7f0e; stroke: #ff7f0e"/>
     <use xlink:href="#m6f654f0014" x="361.621124" y="113.493715" style="fill: #ff7f0e; stroke: #ff7f0e"/>
     <use xlink:href="#m6f654f0014" x="371.929632" y="122.112238" style="fill: #ff7f0e; stroke: #ff7f0e"/>
     <use xlink:href="#m6f654f0014" x="392.546648" y="112.266349" style="fill: #ff7f0e; stroke: #ff7f0e"/>
     <use xlink:href="#m6f654f0014" x="402.855156" y="175.479225" style="fill: #ff7f0e; stroke: #ff7f0e"/>
     <use xlink:href="#m6f654f0014" x="413.163664" y="63.23072" style="fill: #ff7f0e; stroke: #ff7f0e"/>
     <use xlink:href="#m6f654f0014" x="423.472172" y="57.203802" style="fill: #ff7f0e; stroke: #ff7f0e"/>
     <use xlink:href="#m6f654f0014" x="433.78068" y="116.913934" style="fill: #ff7f0e; stroke: #ff7f0e"/>
     <use xlink:href="#m6f654f0014" x="444.089188" y="169.05" style="fill: #ff7f0e; stroke: #ff7f0e"/>
     <use xlink:href="#m6f654f0014" x="454.397696" y="54.804471" style="fill: #ff7f0e; stroke: #ff7f0e"/>
     <use xlink:href="#m6f654f0014" x="464.706204" y="157.315681" style="fill: #ff7f0e; stroke: #ff7f0e"/>
     <use xlink:href="#m6f654f0014" x="485.323221" y="128.165121" style="fill: #ff7f0e; stroke: #ff7f0e"/>
     <use xlink:href="#m6f654f0014" x="495.631729" y="157.764138" style="fill: #ff7f0e; stroke: #ff7f0e"/>
     <use xlink:href="#m6f654f0014" x="505.940237" y="124.701268" style="fill: #ff7f0e; stroke: #ff7f0e"/>
     <use xlink:href="#m6f654f0014" x="516.248745" y="113.770814" style="fill: #ff7f0e; stroke: #ff7f0e"/>
     <use xlink:href="#m6f654f0014" x="526.557253" y="169.959112" style="fill: #ff7f0e; stroke: #ff7f0e"/>
     <use xlink:href="#m6f654f0014" x="547.174269" y="54.405213" style="fill: #ff7f0e; stroke: #ff7f0e"/>
     <use xlink:href="#m6f654f0014" x="557.482777" y="163.614838" style="fill: #ff7f0e; stroke: #ff7f0e"/>
     <use xlink:href="#m6f654f0014" x="567.791285" y="124.269237" style="fill: #ff7f0e; stroke: #ff7f0e"/>
     <use xlink:href="#m6f654f0014" x="578.099793" y="165.01573" style="fill: #ff7f0e; stroke: #ff7f0e"/>
     <use xlink:href="#m6f654f0014" x="588.408301" y="59.5695" style="fill: #ff7f0e; stroke: #ff7f0e"/>
     <use xlink:href="#m6f654f0014" x="598.716809" y="128.989781" style="fill: #ff7f0e; stroke: #ff7f0e"/>
     <use xlink:href="#m6f654f0014" x="609.025317" y="125.090276" style="fill: #ff7f0e; stroke: #ff7f0e"/>
     <use xlink:href="#m6f654f0014" x="619.333825" y="111.788545" style="fill: #ff7f0e; stroke: #ff7f0e"/>
     <use xlink:href="#m6f654f0014" x="629.642333" y="506.332202" style="fill: #ff7f0e; stroke: #ff7f0e"/>
     <use xlink:href="#m6f654f0014" x="639.950841" y="166.826612" style="fill: #ff7f0e; stroke: #ff7f0e"/>
     <use xlink:href="#m6f654f0014" x="650.259349" y="180.527537" style="fill: #ff7f0e; stroke: #ff7f0e"/>
     <use xlink:href="#m6f654f0014" x="670.876365" y="156.86745" style="fill: #ff7f0e; stroke: #ff7f0e"/>
     <use xlink:href="#m6f654f0014" x="681.184873" y="108.812374" style="fill: #ff7f0e; stroke: #ff7f0e"/>
     <use xlink:href="#m6f654f0014" x="691.493381" y="47.24918" style="fill: #ff7f0e; stroke: #ff7f0e"/>
     <use xlink:href="#m6f654f0014" x="701.801889" y="403.620144" style="fill: #ff7f0e; stroke: #ff7f0e"/>
    </g>
   </g>
   <g id="patch_3">
    <path d="M 74.01375 529.308125 
L 74.01375 23.837813 
" style="fill: none; stroke: #000000; stroke-width: 0.8; stroke-linejoin: miter; stroke-linecap: square"/>
   </g>
   <g id="patch_4">
    <path d="M 731.696563 529.308125 
L 731.696563 23.837813 
" style="fill: none; stroke: #000000; stroke-width: 0.8; stroke-linejoin: miter; stroke-linecap: square"/>
   </g>
   <g id="patch_5">
    <path d="M 74.01375 529.308125 
L 731.696563 529.308125 
" style="fill: none; stroke: #000000; stroke-width: 0.8; stroke-linejoin: miter; stroke-linecap: square"/>
   </g>
   <g id="patch_6">
    <path d="M 74.01375 23.837812 
L 731.696563 23.837812 
" style="fill: none; stroke: #000000; stroke-width: 0.8; stroke-linejoin: miter; stroke-linecap: square"/>
   </g>
   <g id="text_15">
    <text style="font: 700 14px 'DejaVu Sans', 'Bitstream Vera Sans', 'Computer Modern Sans Serif', 'Lucida Grande', 'Verdana', 'Geneva', 'Lucid', 'Arial', 'Helvetica', 'Avant Garde', sans-serif; text-anchor: middle" x="402.855156" y="17.837813" transform="rotate(-0 402.855156 17.837813)">Coalescing Arena Alloc Dealloc - Performance Trend</text>
   </g>
   <g id="legend_1">
    <g id="patch_7">
     <path d="M 771.580703 61.194063 
L 847.004141 61.194063 
Q 849.004141 61.194063 849.004141 59.194063 
L 849.004141 30.837813 
Q 849.004141 28.837813 847.004141 28.837813 
L 771.580703 28.837813 
Q 769.580703 28.837813 769.580703 30.837813 
L 769.580703 59.194063 
Q 769.580703 61.194063 771.580703 61.194063 
z
" style="fill: #ffffff; opacity: 0.8; stroke: #cccccc; stroke-linejoin: miter"/>
    </g>
    <g id="line2d_22">
     <path d="M 773.580703 36.93625 
L 783.580703 36.93625 
L 793.580703 36.93625 
" style="fill: none; stroke: #1f77b4; stroke-width: 2; stroke-linecap: square"/>
     <g>
      <use xlink:href="#m0f849469a3" x="783.580703" y="36.93625" style="fill: #1f77b4; stroke: #1f77b4"/>
     </g>
    </g>
    <g id="text_16">
     <text style="font: 10px 'DejaVu Sans', 'Bitstream Vera Sans', 'Computer Modern Sans Serif', 'Lucida Grande', 'Verdana', 'Geneva', 'Lucid', 'Arial', 'Helvetica', 'Avant Garde', sans-serif; text-anchor: start" x="801.580703" y="40.43625" transform="rotate(-0 801.580703 40.43625)">clang-18</text>
    </g>
    <g id="line2d_23">
     <path d="M 773.580703 51.614375 
L 783.580703 51.614375 
L 793.580703 51.614375 
" style="fill: none; stroke: #ff7f0e; stroke-width: 2; stroke-linecap: square"/>
     <g>
      <use xlink:href="#m6f654f0014" x="783.580703" y="51.614375" style="fill: #ff7f0e; stroke: #ff7f0e"/>
     </g>
    </g>
    <g id="text_17">
     <text style="font: 10px 'DejaVu Sans', 'Bitstream Vera Sans', 'Computer Modern Sans Serif', 'Lucida Grande', 'Verdana', 'Geneva', 'Lucid', 'Arial', 'Helvetica', 'Avant Garde', sans-serif; text-anchor: start" x="801.580703" y="55.114375" transform="rotate(-0 801.580703 55.114375)">gcc-14</text>
    </g>
   </g>
  </g>
 </g>
 <defs>
  <clipPath id="pf943a7cc4a">
   <rect x="74.01375" y="23.837813" width="657.682812" height="505.470313"/>
  </clipPath>
 </defs>
</svg>
