<?xml version="1.0" encoding="utf-8" standalone="no"?>
<!DOCTYPE svg PUBLIC "-//W3C//DTD SVG 1.1//EN"
  "http://www.w3.org/Graphics/SVG/1.1/DTD/svg11.dtd">
<svg xmlns:xlink="http://www.w3.org/1999/xlink" width="856.684141pt" height="568.8pt" viewBox="0 0 856.684141 568.8" xmlns="http://www.w3.org/2000/svg" version="1.1">
 <metadata>
  <rdf:RDF xmlns:dc="http://purl.org/dc/elements/1.1/" xmlns:cc="http://creativecommons.org/ns#" xmlns:rdf="http://www.w3.org/1999/02/22-rdf-syntax-ns#">
   <cc:Work>
    <dc:type rdf:resource="http://purl.org/dc/dcmitype/StillImage"/>
    <dc:date>2026-06-06T05:47:02.508983</dc:date>
    <dc:format>image/svg+xml</dc:format>
    <dc:creator>
     <cc:Agent>
      <dc:title>Matplotlib v3.9.4, https://matplotlib.org/</dc:title>
     </cc:Agent>
    </dc:creator>
   </cc:Work>
  </rdf:RDF>
 </metadata>
 <defs>
  <style type="text/css">*{stroke-linejoin: round; stroke-linecap: butt}</style>
 </defs>
 <g id="figure_1">
  <g id="patch_1">
   <path d="M 0 568.8 
L 856.684141 568.8 
L 856.684141 0 
L 0 0 
z
" style="fill: #ffffff"/>
  </g>
  <g id="axes_1">
   <g id="patch_2">
    <path d="M 64.41375 529.308125 
L 731.696562 529.308125 
L 731.696562 23.837812 
L 64.41375 23.837812 
z
" style="fill: #ffffff"/>
   </g>
   <g id="matplotlib.axis_1">
    <g id="xtick_1">
     <g id="line2d_1">
      <path d="M 84.102318 529.308125 
L 84.102318 23.837812 
" clip-path="url(#p7a919439c9)" style="fill: none; stroke: #b0b0b0; stroke-opacity: 0.3; stroke-width: 0.8; stroke-linecap: square"/>
     </g>
     <g id="line2d_2">
      <defs>
       <path id="mc92ed5017c" d="M 0 0 
L 0 3.5 
" style="stroke: #000000; stroke-width: 0.8"/>
      </defs>
      <g>
       <use xlink:href="#mc92ed5017c" x="84.102318" y="529.308125" style="stroke: #000000; stroke-width: 0.8"/>
      </g>
     </g>
     <g id="text_1">
      <text style="font: 10px 'DejaVu Sans', 'Bitstream Vera Sans', 'Computer Modern Sans Serif', 'Lucida Grande', 'Verdana', 'Geneva', 'Lucid', 'Arial', 'Helvetica', 'Avant Garde', sans-serif; text-anchor: middle" x="84.102318" y="543.906563" transform="rotate(-0 84.102318 543.906563)">70</text>
     </g>
    </g>
    <g id="xtick_2">
     <g id="line2d_3">
      <path d="M 190.527009 529.308125 
L 190.527009 23.837812 
" clip-path="url(#p7a919439c9)" style="fill: none; stroke: #b0b0b0; stroke-opacity: 0.3; stroke-width: 0.8; stroke-linecap: square"/>
     </g>
     <g id="line2d_4">
      <g>
       <use xlink:href="#mc92ed5017c" x="190.527009" y="529.308125" style="stroke: #000000; stroke-width: 0.8"/>
      </g>
     </g>
     <g id="text_2">
      <text style="font: 10px 'DejaVu Sans', 'Bitstream Vera Sans', 'Computer Modern Sans Serif', 'Lucida Grande', 'Verdana', 'Geneva', 'Lucid', 'Arial', 'Helvetica', 'Avant Garde', sans-serif; text-anchor: middle" x="190.527009" y="543.906563" transform="rotate(-0 190.527009 543.906563)">80</text>
     </g>
    </g>
    <g id="xtick_3">
     <g id="line2d_5">
      <path d="M 296.9517 529.308125 
L 296.9517 23.837812 
" clip-path="url(#p7a919439c9)" style="fill: none; stroke: #b0b0b0; stroke-opacity: 0.3; stroke-width: 0.8; stroke-linecap: square"/>
     </g>
     <g id="line2d_6">
      <g>
       <use xlink:href="#mc92ed5017c" x="296.9517" y="529.308125" style="stroke: #000000; stroke-width: 0.8"/>
      </g>
     </g>
     <g id="text_3">
      <text style="font: 10px 'DejaVu Sans', 'Bitstream Vera Sans', 'Computer Modern Sans Serif', 'Lucida Grande', 'Verdana', 'Geneva', 'Lucid', 'Arial', 'Helvetica', 'Avant Garde', sans-serif; text-anchor: middle" x="296.9517" y="543.906563" transform="rotate(-0 296.9517 543.906563)">90</text>
     </g>
    </g>
    <g id="xtick_4">
     <g id="line2d_7">
      <path d="M 403.376391 529.308125 
L 403.376391 23.837812 
" clip-path="url(#p7a919439c9)" style="fill: none; stroke: #b0b0b0; stroke-opacity: 0.3; stroke-width: 0.8; stroke-linecap: square"/>
     </g>
     <g id="line2d_8">
      <g>
       <use xlink:href="#mc92ed5017c" x="403.376391" y="529.308125" style="stroke: #000000; stroke-width: 0.8"/>
      </g>
     </g>
     <g id="text_4">
      <text style="font: 10px 'DejaVu Sans', 'Bitstream Vera Sans', 'Computer Modern Sans Serif', 'Lucida Grande', 'Verdana', 'Geneva', 'Lucid', 'Arial', 'Helvetica', 'Avant Garde', sans-serif; text-anchor: middle" x="403.376391" y="543.906563" transform="rotate(-0 403.376391 543.906563)">100</text>
     </g>
    </g>
    <g id="xtick_5">
     <g id="line2d_9">
      <path d="M 509.801082 529.308125 
L 509.801082 23.837812 
" clip-path="url(#p7a919439c9)" style="fill: none; stroke: #b0b0b0; stroke-opacity: 0.3; stroke-width: 0.8; stroke-linecap: square"/>
     </g>
     <g id="line2d_10">
      <g>
       <use xlink:href="#mc92ed5017c" x="509.801082" y="529.308125" style="stroke: #000000; stroke-width: 0.8"/>
      </g>
     </g>
     <g id="text_5">
      <text style="font: 10px 'DejaVu Sans', 'Bitstream Vera Sans', 'Computer Modern Sans Serif', 'Lucida Grande', 'Verdana', 'Geneva', 'Lucid', 'Arial', 'Helvetica', 'Avant Garde', sans-serif; text-anchor: middle" x="509.801082" y="543.906563" transform="rotate(-0 509.801082 543.906563)">110</text>
     </g>
    </g>
    <g id="xtick_6">
     <g id="line2d_11">
      <path d="M 616.225773 529.308125 
L 616.225773 23.837812 
" clip-path="url(#p7a919439c9)" style="fill: none; stroke: #b0b0b0; stroke-opacity: 0.3; stroke-width: 0.8; stroke-linecap: square"/>
     </g>
     <g id="line2d_12">
      <g>
       <use xlink:href="#mc92ed5017c" x="616.225773" y="529.308125" style="stroke: #000000; stroke-width: 0.8"/>
      </g>
     </g>
     <g id="text_6">
      <text style="font: 10px 'DejaVu Sans', 'Bitstream Vera Sans', 'Computer Modern Sans Serif', 'Lucida Grande', 'Verdana', 'Geneva', 'Lucid', 'Arial', 'Helvetica', 'Avant Garde', sans-serif; text-anchor: middle" x="616.225773" y="543.906563" transform="rotate(-0 616.225773 543.906563)">120</text>
     </g>
    </g>
    <g id="xtick_7">
     <g id="line2d_13">
      <path d="M 722.650464 529.308125 
L 722.650464 23.837812 
" clip-path="url(#p7a919439c9)" style="fill: none; stroke: #b0b0b0; stroke-opacity: 0.3; stroke-width: 0.8; stroke-linecap: square"/>
     </g>
     <g id="line2d_14">
      <g>
       <use xlink:href="#mc92ed5017c" x="722.650464" y="529.308125" style="stroke: #000000; stroke-width: 0.8"/>
      </g>
     </g>
     <g id="text_7">
      <text style="font: 10px 'DejaVu Sans', 'Bitstream Vera Sans', 'Computer Modern Sans Serif', 'Lucida Grande', 'Verdana', 'Geneva', 'Lucid', 'Arial', 'Helvetica', 'Avant Garde', sans-serif; text-anchor: middle" x="722.650464" y="543.906563" transform="rotate(-0 722.650464 543.906563)">130</text>
     </g>
    </g>
    <g id="text_8">
     <text style="font: 12px 'DejaVu Sans', 'Bitstream Vera Sans', 'Computer Modern Sans Serif', 'Lucida Grande', 'Verdana', 'Geneva', 'Lucid', 'Arial', 'Helvetica', 'Avant Garde', sans-serif; text-anchor: middle" x="398.055156" y="559.104375" transform="rotate(-0 398.055156 559.104375)">Build Number</text>
    </g>
   </g>
   <g id="matplotlib.axis_2">
    <g id="ytick_1">
     <g id="line2d_15">
      <path d="M 64.41375 312.275462 
L 731.696562 312.275462 
" clip-path="url(#p7a919439c9)" style="fill: none; stroke: #b0b0b0; stroke-opacity: 0.3; stroke-width: 0.8; stroke-linecap: square"/>
     </g>
     <g id="line2d_16">
      <defs>
       <path id="m9589f3a1fe" d="M 0 0 
L -3.5 0 
" style="stroke: #000000; stroke-width: 0.8"/>
      </defs>
      <g>
       <use xlink:href="#m9589f3a1fe" x="64.41375" y="312.275462" style="stroke: #000000; stroke-width: 0.8"/>
      </g>
     </g>
     <g id="text_9">
      <!-- $\mathdefault{10^{1}}$ -->
      <g transform="translate(39.81375 316.074681)">
       <text>
        <tspan style="font: 10px 'DejaVu Sans'" x="0 6.362305" y="-0.06406250000000036">10</tspan>
        <tspan style="font: 7px 'DejaVu Sans'" x="12.820312" y="-3.8921875000000004">1</tspan>
       </text>
      </g>
     </g>
    </g>
    <g id="ytick_2">
     <g id="line2d_17">
      <defs>
       <path id="m3f952da640" d="M 0 0 
L -2 0 
" style="stroke: #000000; stroke-width: 0.6"/>
      </defs>
      <g>
       <use xlink:href="#m3f952da640" x="64.41375" y="483.768992" style="stroke: #000000; stroke-width: 0.6"/>
      </g>
     </g>
     <g id="text_10">
      <!-- $\mathdefault{6\times10^{0}}$ -->
      <g transform="translate(22.81375 487.568211)">
       <text>
        <tspan style="font: 10px 'DejaVu Sans'" x="0 8.310547 18.637695 25" y="-0.9765625">6×10</tspan>
        <tspan style="font: 7px 'DejaVu Sans'" x="31.458008" y="-4.8046875">0</tspan>
       </text>
      </g>
     </g>
    </g>
    <g id="ytick_3">
     <g id="line2d_18">
      <g>
       <use xlink:href="#m3f952da640" x="64.41375" y="432.017782" style="stroke: #000000; stroke-width: 0.6"/>
      </g>
     </g>
    </g>
    <g id="ytick_4">
     <g id="line2d_19">
      <g>
       <use xlink:href="#m3f952da640" x="64.41375" y="387.188844" style="stroke: #000000; stroke-width: 0.6"/>
      </g>
     </g>
    </g>
    <g id="ytick_5">
     <g id="line2d_20">
      <g>
       <use xlink:href="#m3f952da640" x="64.41375" y="347.646919" style="stroke: #000000; stroke-width: 0.6"/>
      </g>
     </g>
    </g>
    <g id="ytick_6">
     <g id="line2d_21">
      <g>
       <use xlink:href="#m3f952da640" x="64.41375" y="79.573242" style="stroke: #000000; stroke-width: 0.6"/>
      </g>
     </g>
     <g id="text_11">
      <!-- $\mathdefault{2\times10^{1}}$ -->
      <g transform="translate(22.81375 83.37246)">
       <text>
        <tspan style="font: 10px 'DejaVu Sans'" x="0 8.310547 18.637695 25" y="-0.06406250000000036">2×10</tspan>
        <tspan style="font: 7px 'DejaVu Sans'" x="31.458008" y="-3.8921875000000004">1</tspan>
       </text>
      </g>
     </g>
    </g>
    <g id="text_12">
     <text style="font: 12px 'DejaVu Sans', 'Bitstream Vera Sans', 'Computer Modern Sans Serif', 'Lucida Grande', 'Verdana', 'Geneva', 'Lucid', 'Arial', 'Helvetica', 'Avant Garde', sans-serif; text-anchor: middle" x="16.318125" y="276.572969" transform="rotate(-90 16.318125 276.572969)">Median Elapsed Time (nanoseconds)</text>
    </g>
   </g>
   <g id="line2d_22">
    <path d="M 94.744787 466.325155 
L 105.387256 466.856775 
L 116.029725 461.578076 
L 126.672194 466.856775 
L 137.314663 472.219802 
L 147.957132 466.856775 
L 158.599602 466.856775 
L 169.242071 466.856775 
L 179.88454 466.856775 
L 190.527009 466.856775 
L 201.169478 461.578076 
L 211.811947 466.856775 
L 222.454416 466.856775 
L 243.739354 466.856775 
L 254.381823 466.856775 
L 275.666762 466.856775 
L 286.309231 466.856775 
L 296.9517 466.856775 
L 307.594169 466.856775 
L 318.236638 466.856775 
L 339.521576 466.856775 
L 350.164045 466.856775 
L 360.806514 466.325155 
L 371.448984 472.219802 
L 392.733922 466.856775 
L 403.376391 466.856775 
L 414.01886 461.578076 
L 424.661329 466.856775 
L 435.303798 466.856775 
L 445.946267 466.856775 
L 456.588736 461.578076 
L 467.231205 466.325155 
L 488.516144 461.054743 
L 499.158613 456.381094 
L 509.801082 456.381094 
L 531.08602 456.381094 
L 563.013427 456.381094 
L 573.655896 456.381094 
L 584.298365 456.381094 
L 594.940835 456.381094 
L 605.583304 456.381094 
L 616.225773 456.381094 
L 626.868242 456.381094 
L 637.510711 456.381094 
L 648.15318 456.381094 
L 658.795649 370.010712 
L 680.080587 456.381094 
L 690.723056 408.408283 
L 701.365526 461.054743 
" clip-path="url(#p7a919439c9)" style="fill: none; stroke: #1f77b4; stroke-width: 2; stroke-linecap: square"/>
    <defs>
     <path id="m57750c30cc" d="M 0 3 
C 0.795609 3 1.55874 2.683901 2.12132 2.12132 
C 2.683901 1.55874 3 0.795609 3 0 
C 3 -0.795609 2.683901 -1.55874 2.12132 -2.12132 
C 1.55874 -2.683901 0.795609 -3 0 -3 
C -0.795609 -3 -1.55874 -2.683901 -2.12132 -2.12132 
C -2.683901 -1.55874 -3 -0.795609 -3 0 
C -3 0.795609 -2.683901 1.55874 -2.12132 2.12132 
C -1.55874 2.683901 -0.795609 3 0 3 
z
" style="stroke: #1f77b4"/>
    </defs>
    <g clip-path="url(#p7a919439c9)">
     <use xlink:href="#m57750c30cc" x="94.744787" y="466.325155" style="fill: #1f77b4; stroke: #1f77b4"/>
     <use xlink:href="#m57750c30cc" x="105.387256" y="466.856775" style="fill: #1f77b4; stroke: #1f77b4"/>
     <use xlink:href="#m57750c30cc" x="116.029725" y="461.578076" style="fill: #1f77b4; stroke: #1f77b4"/>
     <use xlink:href="#m57750c30cc" x="126.672194" y="466.856775" style="fill: #1f77b4; stroke: #1f77b4"/>
     <use xlink:href="#m57750c30cc" x="137.314663" y="472.219802" style="fill: #1f77b4; stroke: #1f77b4"/>
     <use xlink:href="#m57750c30cc" x="147.957132" y="466.856775" style="fill: #1f77b4; stroke: #1f77b4"/>
     <use xlink:href="#m57750c30cc" x="158.599602" y="466.856775" style="fill: #1f77b4; stroke: #1f77b4"/>
     <use xlink:href="#m57750c30cc" x="169.242071" y="466.856775" style="fill: #1f77b4; stroke: #1f77b4"/>
     <use xlink:href="#m57750c30cc" x="179.88454" y="466.856775" style="fill: #1f77b4; stroke: #1f77b4"/>
     <use xlink:href="#m57750c30cc" x="190.527009" y="466.856775" style="fill: #1f77b4; stroke: #1f77b4"/>
     <use xlink:href="#m57750c30cc" x="201.169478" y="461.578076" style="fill: #1f77b4; stroke: #1f77b4"/>
     <use xlink:href="#m57750c30cc" x="211.811947" y="466.856775" style="fill: #1f77b4; stroke: #1f77b4"/>
     <use xlink:href="#m57750c30cc" x="222.454416" y="466.856775" style="fill: #1f77b4; stroke: #1f77b4"/>
     <use xlink:href="#m57750c30cc" x="243.739354" y="466.856775" style="fill: #1f77b4; stroke: #1f77b4"/>
     <use xlink:href="#m57750c30cc" x="254.381823" y="466.856775" style="fill: #1f77b4; stroke: #1f77b4"/>
     <use xlink:href="#m57750c30cc" x="275.666762" y="466.856775" style="fill: #1f77b4; stroke: #1f77b4"/>
     <use xlink:href="#m57750c30cc" x="286.309231" y="466.856775" style="fill: #1f77b4; stroke: #1f77b4"/>
     <use xlink:href="#m57750c30cc" x="296.9517" y="466.856775" style="fill: #1f77b4; stroke: #1f77b4"/>
     <use xlink:href="#m57750c30cc" x="307.594169" y="466.856775" style="fill: #1f77b4; stroke: #1f77b4"/>
     <use xlink:href="#m57750c30cc" x="318.236638" y="466.856775" style="fill: #1f77b4; stroke: #1f77b4"/>
     <use xlink:href="#m57750c30cc" x="339.521576" y="466.856775" style="fill: #1f77b4; stroke: #1f77b4"/>
     <use xlink:href="#m57750c30cc" x="350.164045" y="466.856775" style="fill: #1f77b4; stroke: #1f77b4"/>
     <use xlink:href="#m57750c30cc" x="360.806514" y="466.325155" style="fill: #1f77b4; stroke: #1f77b4"/>
     <use xlink:href="#m57750c30cc" x="371.448984" y="472.219802" style="fill: #1f77b4; stroke: #1f77b4"/>
     <use xlink:href="#m57750c30cc" x="392.733922" y="466.856775" style="fill: #1f77b4; stroke: #1f77b4"/>
     <use xlink:href="#m57750c30cc" x="403.376391" y="466.856775" style="fill: #1f77b4; stroke: #1f77b4"/>
     <use xlink:href="#m57750c30cc" x="414.01886" y="461.578076" style="fill: #1f77b4; stroke: #1f77b4"/>
     <use xlink:href="#m57750c30cc" x="424.661329" y="466.856775" style="fill: #1f77b4; stroke: #1f77b4"/>
     <use xlink:href="#m57750c30cc" x="435.303798" y="466.856775" style="fill: #1f77b4; stroke: #1f77b4"/>
     <use xlink:href="#m57750c30cc" x="445.946267" y="466.856775" style="fill: #1f77b4; stroke: #1f77b4"/>
     <use xlink:href="#m57750c30cc" x="456.588736" y="461.578076" style="fill: #1f77b4; stroke: #1f77b4"/>
     <use xlink:href="#m57750c30cc" x="467.231205" y="466.325155" style="fill: #1f77b4; stroke: #1f77b4"/>
     <use xlink:href="#m57750c30cc" x="488.516144" y="461.054743" style="fill: #1f77b4; stroke: #1f77b4"/>
     <use xlink:href="#m57750c30cc" x="499.158613" y="456.381094" style="fill: #1f77b4; stroke: #1f77b4"/>
     <use xlink:href="#m57750c30cc" x="509.801082" y="456.381094" style="fill: #1f77b4; stroke: #1f77b4"/>
     <use xlink:href="#m57750c30cc" x="531.08602" y="456.381094" style="fill: #1f77b4; stroke: #1f77b4"/>
     <use xlink:href="#m57750c30cc" x="563.013427" y="456.381094" style="fill: #1f77b4; stroke: #1f77b4"/>
     <use xlink:href="#m57750c30cc" x="573.655896" y="456.381094" style="fill: #1f77b4; stroke: #1f77b4"/>
     <use xlink:href="#m57750c30cc" x="584.298365" y="456.381094" style="fill: #1f77b4; stroke: #1f77b4"/>
     <use xlink:href="#m57750c30cc" x="594.940835" y="456.381094" style="fill: #1f77b4; stroke: #1f77b4"/>
     <use xlink:href="#m57750c30cc" x="605.583304" y="456.381094" style="fill: #1f77b4; stroke: #1f77b4"/>
     <use xlink:href="#m57750c30cc" x="616.225773" y="456.381094" style="fill: #1f77b4; stroke: #1f77b4"/>
     <use xlink:href="#m57750c30cc" x="626.868242" y="456.381094" style="fill: #1f77b4; stroke: #1f77b4"/>
     <use xlink:href="#m57750c30cc" x="637.510711" y="456.381094" style="fill: #1f77b4; stroke: #1f77b4"/>
     <use xlink:href="#m57750c30cc" x="648.15318" y="456.381094" style="fill: #1f77b4; stroke: #1f77b4"/>
     <use xlink:href="#m57750c30cc" x="658.795649" y="370.010712" style="fill: #1f77b4; stroke: #1f77b4"/>
     <use xlink:href="#m57750c30cc" x="680.080587" y="456.381094" style="fill: #1f77b4; stroke: #1f77b4"/>
     <use xlink:href="#m57750c30cc" x="690.723056" y="408.408283" style="fill: #1f77b4; stroke: #1f77b4"/>
     <use xlink:href="#m57750c30cc" x="701.365526" y="461.054743" style="fill: #1f77b4; stroke: #1f77b4"/>
    </g>
   </g>
   <g id="line2d_23">
    <path d="M 94.744787 506.332202 
L 105.387256 483.209927 
L 116.029725 483.209927 
L 126.672194 483.209927 
L 137.314663 483.209927 
L 147.957132 477.669895 
L 158.599602 482.651792 
L 169.242071 482.651792 
L 179.88454 483.209927 
L 190.527009 483.209927 
L 201.169478 483.209927 
L 211.811947 403.526635 
L 222.454416 477.669895 
L 233.096885 483.209927 
L 243.739354 483.209927 
L 254.381823 477.669895 
L 275.666762 472.219802 
L 286.309231 482.651792 
L 296.9517 478.219802 
L 307.594169 483.209927 
L 318.236638 482.651792 
L 328.879107 483.209927 
L 339.521576 477.669895 
L 350.164045 483.209927 
L 360.806514 483.209927 
L 371.448984 335.917575 
L 392.733922 483.209927 
L 403.376391 483.209927 
L 414.01886 483.209927 
L 424.661329 482.651792 
L 435.303798 477.669895 
L 445.946267 483.209927 
L 456.588736 483.209927 
L 467.231205 477.669895 
L 488.516144 477.669895 
L 499.158613 478.219802 
L 509.801082 482.651792 
L 520.443551 483.209927 
L 531.08602 478.219802 
L 552.370958 477.669895 
L 563.013427 477.669895 
L 573.655896 483.209927 
L 584.298365 483.209927 
L 594.940835 482.651792 
L 605.583304 483.209927 
L 616.225773 483.209927 
L 626.868242 483.209927 
L 637.510711 46.813736 
L 648.15318 483.209927 
L 658.795649 477.669895 
L 680.080587 483.209927 
L 690.723056 472.219802 
L 701.365526 477.120887 
" clip-path="url(#p7a919439c9)" style="fill: none; stroke: #ff7f0e; stroke-width: 2; stroke-linecap: square"/>
    <defs>
     <path id="mf91de3f7db" d="M 0 3 
C 0.795609 3 1.55874 2.683901 2.12132 2.12132 
C 2.683901 1.55874 3 0.795609 3 0 
C 3 -0.795609 2.683901 -1.55874 2.12132 -2.12132 
C 1.55874 -2.683901 0.795609 -3 0 -3 
C -0.795609 -3 -1.55874 -2.683901 -2.12132 -2.12132 
C -2.683901 -1.55874 -3 -0.795609 -3 0 
C -3 0.795609 -2.683901 1.55874 -2.12132 2.12132 
C -1.55874 2.683901 -0.795609 3 0 3 
z
" style="stroke: #ff7f0e"/>
    </defs>
    <g clip-path="url(#p7a919439c9)">
     <use xlink:href="#mf91de3f7db" x="94.744787" y="506.332202" style="fill: #ff7f0e; stroke: #ff7f0e"/>
     <use xlink:href="#mf91de3f7db" x="105.387256" y="483.209927" style="fill: #ff7f0e; stroke: #ff7f0e"/>
     <use xlink:href="#mf91de3f7db" x="116.029725" y="483.209927" style="fill: #ff7f0e; stroke: #ff7f0e"/>
     <use xlink:href="#mf91de3f7db" x="126.672194" y="483.209927" style="fill: #ff7f0e; stroke: #ff7f0e"/>
     <use xlink:href="#mf91de3f7db" x="137.314663" y="483.209927" style="fill: #ff7f0e; stroke: #ff7f0e"/>
     <use xlink:href="#mf91de3f7db" x="147.957132" y="477.669895" style="fill: #ff7f0e; stroke: #ff7f0e"/>
     <use xlink:href="#mf91de3f7db" x="158.599602" y="482.651792" style="fill: #ff7f0e; stroke: #ff7f0e"/>
     <use xlink:href="#mf91de3f7db" x="169.242071" y="482.651792" style="fill: #ff7f0e; stroke: #ff7f0e"/>
     <use xlink:href="#mf91de3f7db" x="179.88454" y="483.209927" style="fill: #ff7f0e; stroke: #ff7f0e"/>
     <use xlink:href="#mf91de3f7db" x="190.527009" y="483.209927" style="fill: #ff7f0e; stroke: #ff7f0e"/>
     <use xlink:href="#mf91de3f7db" x="201.169478" y="483.209927" style="fill: #ff7f0e; stroke: #ff7f0e"/>
     <use xlink:href="#mf91de3f7db" x="211.811947" y="403.526635" style="fill: #ff7f0e; stroke: #ff7f0e"/>
     <use xlink:href="#mf91de3f7db" x="222.454416" y="477.669895" style="fill: #ff7f0e; stroke: #ff7f0e"/>
     <use xlink:href="#mf91de3f7db" x="233.096885" y="483.209927" style="fill: #ff7f0e; stroke: #ff7f0e"/>
     <use xlink:href="#mf91de3f7db" x="243.739354" y="483.209927" style="fill: #ff7f0e; stroke: #ff7f0e"/>
     <use xlink:href="#mf91de3f7db" x="254.381823" y="477.669895" style="fill: #ff7f0e; stroke: #ff7f0e"/>
     <use xlink:href="#mf91de3f7db" x="275.666762" y="472.219802" style="fill: #ff7f0e; stroke: #ff7f0e"/>
     <use xlink:href="#mf91de3f7db" x="286.309231" y="482.651792" style="fill: #ff7f0e; stroke: #ff7f0e"/>
     <use xlink:href="#mf91de3f7db" x="296.9517" y="478.219802" style="fill: #ff7f0e; stroke: #ff7f0e"/>
     <use xlink:href="#mf91de3f7db" x="307.594169" y="483.209927" style="fill: #ff7f0e; stroke: #ff7f0e"/>
     <use xlink:href="#mf91de3f7db" x="318.236638" y="482.651792" style="fill: #ff7f0e; stroke: #ff7f0e"/>
     <use xlink:href="#mf91de3f7db" x="328.879107" y="483.209927" style="fill: #ff7f0e; stroke: #ff7f0e"/>
     <use xlink:href="#mf91de3f7db" x="339.521576" y="477.669895" style="fill: #ff7f0e; stroke: #ff7f0e"/>
     <use xlink:href="#mf91de3f7db" x="350.164045" y="483.209927" style="fill: #ff7f0e; stroke: #ff7f0e"/>
     <use xlink:href="#mf91de3f7db" x="360.806514" y="483.209927" style="fill: #ff7f0e; stroke: #ff7f0e"/>
     <use xlink:href="#mf91de3f7db" x="371.448984" y="335.917575" style="fill: #ff7f0e; stroke: #ff7f0e"/>
     <use xlink:href="#mf91de3f7db" x="392.733922" y="483.209927" style="fill: #ff7f0e; stroke: #ff7f0e"/>
     <use xlink:href="#mf91de3f7db" x="403.376391" y="483.209927" style="fill: #ff7f0e; stroke: #ff7f0e"/>
     <use xlink:href="#mf91de3f7db" x="414.01886" y="483.209927" style="fill: #ff7f0e; stroke: #ff7f0e"/>
     <use xlink:href="#mf91de3f7db" x="424.661329" y="482.651792" style="fill: #ff7f0e; stroke: #ff7f0e"/>
     <use xlink:href="#mf91de3f7db" x="435.303798" y="477.669895" style="fill: #ff7f0e; stroke: #ff7f0e"/>
     <use xlink:href="#mf91de3f7db" x="445.946267" y="483.209927" style="fill: #ff7f0e; stroke: #ff7f0e"/>
     <use xlink:href="#mf91de3f7db" x="456.588736" y="483.209927" style="fill: #ff7f0e; stroke: #ff7f0e"/>
     <use xlink:href="#mf91de3f7db" x="467.231205" y="477.669895" style="fill: #ff7f0e; stroke: #ff7f0e"/>
     <use xlink:href="#mf91de3f7db" x="488.516144" y="477.669895" style="fill: #ff7f0e; stroke: #ff7f0e"/>
     <use xlink:href="#mf91de3f7db" x="499.158613" y="478.219802" style="fill: #ff7f0e; stroke: #ff7f0e"/>
     <use xlink:href="#mf91de3f7db" x="509.801082" y="482.651792" style="fill: #ff7f0e; stroke: #ff7f0e"/>
     <use xlink:href="#mf91de3f7db" x="520.443551" y="483.209927" style="fill: #ff7f0e; stroke: #ff7f0e"/>
     <use xlink:href="#mf91de3f7db" x="531.08602" y="478.219802" style="fill: #ff7f0e; stroke: #ff7f0e"/>
     <use xlink:href="#mf91de3f7db" x="552.370958" y="477.669895" style="fill: #ff7f0e; stroke: #ff7f0e"/>
     <use xlink:href="#mf91de3f7db" x="563.013427" y="477.669895" style="fill: #ff7f0e; stroke: #ff7f0e"/>
     <use xlink:href="#mf91de3f7db" x="573.655896" y="483.209927" style="fill: #ff7f0e; stroke: #ff7f0e"/>
     <use xlink:href="#mf91de3f7db" x="584.298365" y="483.209927" style="fill: #ff7f0e; stroke: #ff7f0e"/>
     <use xlink:href="#mf91de3f7db" x="594.940835" y="482.651792" style="fill: #ff7f0e; stroke: #ff7f0e"/>
     <use xlink:href="#mf91de3f7db" x="605.583304" y="483.209927" style="fill: #ff7f0e; stroke: #ff7f0e"/>
     <use xlink:href="#mf91de3f7db" x="616.225773" y="483.209927" style="fill: #ff7f0e; stroke: #ff7f0e"/>
     <use xlink:href="#mf91de3f7db" x="626.868242" y="483.209927" style="fill: #ff7f0e; stroke: #ff7f0e"/>
     <use xlink:href="#mf91de3f7db" x="637.510711" y="46.813736" style="fill: #ff7f0e; stroke: #ff7f0e"/>
     <use xlink:href="#mf91de3f7db" x="648.15318" y="483.209927" style="fill: #ff7f0e; stroke: #ff7f0e"/>
     <use xlink:href="#mf91de3f7db" x="658.795649" y="477.669895" style="fill: #ff7f0e; stroke: #ff7f0e"/>
     <use xlink:href="#mf91de3f7db" x="680.080587" y="483.209927" style="fill: #ff7f0e; stroke: #ff7f0e"/>
     <use xlink:href="#mf91de3f7db" x="690.723056" y="472.219802" style="fill: #ff7f0e; stroke: #ff7f0e"/>
     <use xlink:href="#mf91de3f7db" x="701.365526" y="477.120887" style="fill: #ff7f0e; stroke: #ff7f0e"/>
    </g>
   </g>
   <g id="patch_3">
    <path d="M 64.41375 529.308125 
L 64.41375 23.837813 
" style="fill: none; stroke: #000000; stroke-width: 0.8; stroke-linejoin: miter; stroke-linecap: square"/>
   </g>
   <g id="patch_4">
    <path d="M 731.696562 529.308125 
L 731.696562 23.837813 
" style="fill: none; stroke: #000000; stroke-width: 0.8; stroke-linejoin: miter; stroke-linecap: square"/>
   </g>
   <g id="patch_5">
    <path d="M 64.41375 529.308125 
L 731.696562 529.308125 
" style="fill: none; stroke: #000000; stroke-width: 0.8; stroke-linejoin: miter; stroke-linecap: square"/>
   </g>
   <g id="patch_6">
    <path d="M 64.41375 23.837812 
L 731.696562 23.837812 
" style="fill: none; stroke: #000000; stroke-width: 0.8; stroke-linejoin: miter; stroke-linecap: square"/>
   </g>
   <g id="text_13">
    <text style="font: 700 14px 'DejaVu Sans', 'Bitstream Vera Sans', 'Computer Modern Sans Serif', 'Lucida Grande', 'Verdana', 'Geneva', 'Lucid', 'Arial', 'Helvetica', 'Avant Garde', sans-serif; text-anchor: middle" x="398.055156" y="17.837813" transform="rotate(-0 398.055156 17.837813)">Ts Shared Linear Single Thread - Performance Trend</text>
   </g>
   <g id="legend_1">
    <g id="patch_7">
     <path d="M 772.060703 61.194063 
L 847.484141 61.194063 
Q 849.484141 61.194063 849.484141 59.194063 
L 849.484141 30.837813 
Q 849.484141 28.837813 847.484141 28.837813 
L 772.060703 28.837813 
Q 770.060703 28.837813 770.060703 30.837813 
L 770.060703 59.194063 
Q 770.060703 61.194063 772.060703 61.194063 
z
" style="fill: #ffffff; opacity: 0.8; stroke: #cccccc; stroke-linejoin: miter"/>
    </g>
    <g id="line2d_24">
     <path d="M 774.060703 36.93625 
L 784.060703 36.93625 
L 794.060703 36.93625 
" style="fill: none; stroke: #1f77b4; stroke-width: 2; stroke-linecap: square"/>
     <g>
      <use xlink:href="#m57750c30cc" x="784.060703" y="36.93625" style="fill: #1f77b4; stroke: #1f77b4"/>
     </g>
    </g>
    <g id="text_14">
     <text style="font: 10px 'DejaVu Sans', 'Bitstream Vera Sans', 'Computer Modern Sans Serif', 'Lucida Grande', 'Verdana', 'Geneva', 'Lucid', 'Arial', 'Helvetica', 'Avant Garde', sans-serif; text-anchor: start" x="802.060703" y="40.43625" transform="rotate(-0 802.060703 40.43625)">clang-18</text>
    </g>
    <g id="line2d_25">
     <path d="M 774.060703 51.614375 
L 784.060703 51.614375 
L 794.060703 51.614375 
" style="fill: none; stroke: #ff7f0e; stroke-width: 2; stroke-linecap: square"/>
     <g>
      <use xlink:href="#mf91de3f7db" x="784.060703" y="51.614375" style="fill: #ff7f0e; stroke: #ff7f0e"/>
     </g>
    </g>
    <g id="text_15">
     <text style="font: 10px 'DejaVu Sans', 'Bitstream Vera Sans', 'Computer Modern Sans Serif', 'Lucida Grande', 'Verdana', 'Geneva', 'Lucid', 'Arial', 'Helvetica', 'Avant Garde', sans-serif; text-anchor: start" x="802.060703" y="55.114375" transform="rotate(-0 802.060703 55.114375)">gcc-14</text>
    </g>
   </g>
  </g>
 </g>
 <defs>
  <clipPath id="p7a919439c9">
   <rect x="64.41375" y="23.837813" width="667.282812" height="505.470313"/>
  </clipPath>
 </defs>
</svg>
