<?xml version="1.0" encoding="utf-8" standalone="no"?>
<!DOCTYPE svg PUBLIC "-//W3C//DTD SVG 1.1//EN"
  "http://www.w3.org/Graphics/SVG/1.1/DTD/svg11.dtd">
<svg xmlns:xlink="http://www.w3.org/1999/xlink" width="856.684141pt" height="568.8pt" viewBox="0 0 856.684141 568.8" xmlns="http://www.w3.org/2000/svg" version="1.1">
 <metadata>
  <rdf:RDF xmlns:dc="http://purl.org/dc/elements/1.1/" xmlns:cc="http://creativecommons.org/ns#" xmlns:rdf="http://www.w3.org/1999/02/22-rdf-syntax-ns#">
   <cc:Work>
    <dc:type rdf:resource="http://purl.org/dc/dcmitype/StillImage"/>
    <dc:date>2026-06-12T00:15:42.525253</dc:date>
    <dc:format>image/svg+xml</dc:format>
    <dc:creator>
     <cc:Agent>
      <dc:title>Matplotlib v3.9.4, https://matplotlib.org/</dc:title>
     </cc:Agent>
    </dc:creator>
   </cc:Work>
  </rdf:RDF>
 </metadata>
 <defs>
  <style type="text/css">*{stroke-linejoin: round; stroke-linecap: butt}</style>
 </defs>
 <g id="figure_1">
  <g id="patch_1">
   <path d="M 0 568.8 
L 856.684141 568.8 
L 856.684141 0 
L 0 0 
z
" style="fill: #ffffff"/>
  </g>
  <g id="axes_1">
   <g id="patch_2">
    <path d="M 64.41375 529.308125 
L 731.696562 529.308125 
L 731.696562 23.837812 
L 64.41375 23.837812 
z
" style="fill: #ffffff"/>
   </g>
   <g id="matplotlib.axis_1">
    <g id="xtick_1">
     <g id="line2d_1">
      <path d="M 84.285809 529.308125 
L 84.285809 23.837812 
" clip-path="url(#p1a50504cbf)" style="fill: none; stroke: #b0b0b0; stroke-opacity: 0.3; stroke-width: 0.8; stroke-linecap: square"/>
     </g>
     <g id="line2d_2">
      <defs>
       <path id="m458245bcab" d="M 0 0 
L 0 3.5 
" style="stroke: #000000; stroke-width: 0.8"/>
      </defs>
      <g>
       <use xlink:href="#m458245bcab" x="84.285809" y="529.308125" style="stroke: #000000; stroke-width: 0.8"/>
      </g>
     </g>
     <g id="text_1">
      <text style="font: 10px 'DejaVu Sans', 'Bitstream Vera Sans', 'Computer Modern Sans Serif', 'Lucida Grande', 'Verdana', 'Geneva', 'Lucid', 'Arial', 'Helvetica', 'Avant Garde', sans-serif; text-anchor: middle" x="84.285809" y="543.906563" transform="rotate(-0 84.285809 543.906563)">70</text>
     </g>
    </g>
    <g id="xtick_2">
     <g id="line2d_3">
      <path d="M 188.875591 529.308125 
L 188.875591 23.837812 
" clip-path="url(#p1a50504cbf)" style="fill: none; stroke: #b0b0b0; stroke-opacity: 0.3; stroke-width: 0.8; stroke-linecap: square"/>
     </g>
     <g id="line2d_4">
      <g>
       <use xlink:href="#m458245bcab" x="188.875591" y="529.308125" style="stroke: #000000; stroke-width: 0.8"/>
      </g>
     </g>
     <g id="text_2">
      <text style="font: 10px 'DejaVu Sans', 'Bitstream Vera Sans', 'Computer Modern Sans Serif', 'Lucida Grande', 'Verdana', 'Geneva', 'Lucid', 'Arial', 'Helvetica', 'Avant Garde', sans-serif; text-anchor: middle" x="188.875591" y="543.906563" transform="rotate(-0 188.875591 543.906563)">80</text>
     </g>
    </g>
    <g id="xtick_3">
     <g id="line2d_5">
      <path d="M 293.465374 529.308125 
L 293.465374 23.837812 
" clip-path="url(#p1a50504cbf)" style="fill: none; stroke: #b0b0b0; stroke-opacity: 0.3; stroke-width: 0.8; stroke-linecap: square"/>
     </g>
     <g id="line2d_6">
      <g>
       <use xlink:href="#m458245bcab" x="293.465374" y="529.308125" style="stroke: #000000; stroke-width: 0.8"/>
      </g>
     </g>
     <g id="text_3">
      <text style="font: 10px 'DejaVu Sans', 'Bitstream Vera Sans', 'Computer Modern Sans Serif', 'Lucida Grande', 'Verdana', 'Geneva', 'Lucid', 'Arial', 'Helvetica', 'Avant Garde', sans-serif; text-anchor: middle" x="293.465374" y="543.906563" transform="rotate(-0 293.465374 543.906563)">90</text>
     </g>
    </g>
    <g id="xtick_4">
     <g id="line2d_7">
      <path d="M 398.055156 529.308125 
L 398.055156 23.837812 
" clip-path="url(#p1a50504cbf)" style="fill: none; stroke: #b0b0b0; stroke-opacity: 0.3; stroke-width: 0.8; stroke-linecap: square"/>
     </g>
     <g id="line2d_8">
      <g>
       <use xlink:href="#m458245bcab" x="398.055156" y="529.308125" style="stroke: #000000; stroke-width: 0.8"/>
      </g>
     </g>
     <g id="text_4">
      <text style="font: 10px 'DejaVu Sans', 'Bitstream Vera Sans', 'Computer Modern Sans Serif', 'Lucida Grande', 'Verdana', 'Geneva', 'Lucid', 'Arial', 'Helvetica', 'Avant Garde', sans-serif; text-anchor: middle" x="398.055156" y="543.906563" transform="rotate(-0 398.055156 543.906563)">100</text>
     </g>
    </g>
    <g id="xtick_5">
     <g id="line2d_9">
      <path d="M 502.644939 529.308125 
L 502.644939 23.837812 
" clip-path="url(#p1a50504cbf)" style="fill: none; stroke: #b0b0b0; stroke-opacity: 0.3; stroke-width: 0.8; stroke-linecap: square"/>
     </g>
     <g id="line2d_10">
      <g>
       <use xlink:href="#m458245bcab" x="502.644939" y="529.308125" style="stroke: #000000; stroke-width: 0.8"/>
      </g>
     </g>
     <g id="text_5">
      <text style="font: 10px 'DejaVu Sans', 'Bitstream Vera Sans', 'Computer Modern Sans Serif', 'Lucida Grande', 'Verdana', 'Geneva', 'Lucid', 'Arial', 'Helvetica', 'Avant Garde', sans-serif; text-anchor: middle" x="502.644939" y="543.906563" transform="rotate(-0 502.644939 543.906563)">110</text>
     </g>
    </g>
    <g id="xtick_6">
     <g id="line2d_11">
      <path d="M 607.234721 529.308125 
L 607.234721 23.837812 
" clip-path="url(#p1a50504cbf)" style="fill: none; stroke: #b0b0b0; stroke-opacity: 0.3; stroke-width: 0.8; stroke-linecap: square"/>
     </g>
     <g id="line2d_12">
      <g>
       <use xlink:href="#m458245bcab" x="607.234721" y="529.308125" style="stroke: #000000; stroke-width: 0.8"/>
      </g>
     </g>
     <g id="text_6">
      <text style="font: 10px 'DejaVu Sans', 'Bitstream Vera Sans', 'Computer Modern Sans Serif', 'Lucida Grande', 'Verdana', 'Geneva', 'Lucid', 'Arial', 'Helvetica', 'Avant Garde', sans-serif; text-anchor: middle" x="607.234721" y="543.906563" transform="rotate(-0 607.234721 543.906563)">120</text>
     </g>
    </g>
    <g id="xtick_7">
     <g id="line2d_13">
      <path d="M 711.824504 529.308125 
L 711.824504 23.837812 
" clip-path="url(#p1a50504cbf)" style="fill: none; stroke: #b0b0b0; stroke-opacity: 0.3; stroke-width: 0.8; stroke-linecap: square"/>
     </g>
     <g id="line2d_14">
      <g>
       <use xlink:href="#m458245bcab" x="711.824504" y="529.308125" style="stroke: #000000; stroke-width: 0.8"/>
      </g>
     </g>
     <g id="text_7">
      <text style="font: 10px 'DejaVu Sans', 'Bitstream Vera Sans', 'Computer Modern Sans Serif', 'Lucida Grande', 'Verdana', 'Geneva', 'Lucid', 'Arial', 'Helvetica', 'Avant Garde', sans-serif; text-anchor: middle" x="711.824504" y="543.906563" transform="rotate(-0 711.824504 543.906563)">130</text>
     </g>
    </g>
    <g id="text_8">
     <text style="font: 12px 'DejaVu Sans', 'Bitstream Vera Sans', 'Computer Modern Sans Serif', 'Lucida Grande', 'Verdana', 'Geneva', 'Lucid', 'Arial', 'Helvetica', 'Avant Garde', sans-serif; text-anchor: middle" x="398.055156" y="559.104375" transform="rotate(-0 398.055156 559.104375)">Build Number</text>
    </g>
   </g>
   <g id="matplotlib.axis_2">
    <g id="ytick_1">
     <g id="line2d_15">
      <defs>
       <path id="m1f17d4f875" d="M 0 0 
L -2 0 
" style="stroke: #000000; stroke-width: 0.6"/>
      </defs>
      <g>
       <use xlink:href="#m1f17d4f875" x="64.41375" y="422.659884" style="stroke: #000000; stroke-width: 0.6"/>
      </g>
     </g>
     <g id="text_9">
      <!-- $\mathdefault{4\times10^{0}}$ -->
      <g transform="translate(22.81375 426.459103)">
       <text>
        <tspan style="font: 10px 'DejaVu Sans'" x="0 8.310547 18.637695 25" y="-0.9765625">4×10</tspan>
        <tspan style="font: 7px 'DejaVu Sans'" x="31.458008" y="-4.8046875">0</tspan>
       </text>
      </g>
     </g>
    </g>
    <g id="ytick_2">
     <g id="line2d_16">
      <g>
       <use xlink:href="#m1f17d4f875" x="64.41375" y="224.687203" style="stroke: #000000; stroke-width: 0.6"/>
      </g>
     </g>
     <g id="text_10">
      <!-- $\mathdefault{5\times10^{0}}$ -->
      <g transform="translate(22.81375 228.486422)">
       <text>
        <tspan style="font: 10px 'DejaVu Sans'" x="0 8.310547 18.637695 25" y="-0.9765625">5×10</tspan>
        <tspan style="font: 7px 'DejaVu Sans'" x="31.458008" y="-4.8046875">0</tspan>
       </text>
      </g>
     </g>
    </g>
    <g id="ytick_3">
     <g id="line2d_17">
      <g>
       <use xlink:href="#m1f17d4f875" x="64.41375" y="62.931745" style="stroke: #000000; stroke-width: 0.6"/>
      </g>
     </g>
     <g id="text_11">
      <!-- $\mathdefault{6\times10^{0}}$ -->
      <g transform="translate(22.81375 66.730964)">
       <text>
        <tspan style="font: 10px 'DejaVu Sans'" x="0 8.310547 18.637695 25" y="-0.9765625">6×10</tspan>
        <tspan style="font: 7px 'DejaVu Sans'" x="31.458008" y="-4.8046875">0</tspan>
       </text>
      </g>
     </g>
    </g>
    <g id="text_12">
     <text style="font: 12px 'DejaVu Sans', 'Bitstream Vera Sans', 'Computer Modern Sans Serif', 'Lucida Grande', 'Verdana', 'Geneva', 'Lucid', 'Arial', 'Helvetica', 'Avant Garde', sans-serif; text-anchor: middle" x="16.318125" y="276.572969" transform="rotate(-90 16.318125 276.572969)">Median Elapsed Time (nanoseconds)</text>
    </g>
   </g>
   <g id="line2d_18">
    <path d="M 94.744787 377.263444 
L 105.203765 377.263444 
L 115.662743 377.263444 
L 126.121722 377.263444 
L 136.5807 377.263444 
L 147.039678 377.263444 
L 157.498656 377.263444 
L 167.957635 377.263444 
L 178.416613 377.263444 
L 188.875591 377.263444 
L 199.334569 377.263444 
L 209.793548 379.373311 
L 220.252526 377.263444 
L 241.170482 379.373311 
L 251.629461 379.373311 
L 272.547417 377.263444 
L 283.006395 377.263444 
L 293.465374 377.263444 
L 303.924352 398.591364 
L 314.38333 377.263444 
L 335.301287 377.263444 
L 345.760265 377.263444 
L 356.219243 377.263444 
L 366.678221 377.263444 
L 387.596178 379.373311 
L 398.055156 379.373311 
L 408.514135 377.263444 
L 418.973113 379.373311 
L 429.432091 379.373311 
L 439.891069 377.263444 
L 450.350048 379.373311 
L 460.809026 379.373311 
L 481.726982 442.849855 
L 492.185961 442.849855 
L 502.644939 445.121812 
L 523.562895 442.849855 
L 554.93983 442.849855 
L 565.398808 445.121812 
L 575.857787 445.121812 
L 586.316765 442.849855 
L 596.775743 442.849855 
L 607.234721 442.849855 
L 617.6937 442.849855 
L 628.152678 465.835564 
L 638.611656 445.121812 
L 649.070634 445.121812 
L 669.988591 445.121812 
L 680.447569 374.167627 
L 690.906547 442.849855 
L 701.365526 358.497083 
" clip-path="url(#p1a50504cbf)" style="fill: none; stroke: #1f77b4; stroke-width: 2; stroke-linecap: square"/>
    <defs>
     <path id="m77aaff253b" d="M 0 3 
C 0.795609 3 1.55874 2.683901 2.12132 2.12132 
C 2.683901 1.55874 3 0.795609 3 0 
C 3 -0.795609 2.683901 -1.55874 2.12132 -2.12132 
C 1.55874 -2.683901 0.795609 -3 0 -3 
C -0.795609 -3 -1.55874 -2.683901 -2.12132 -2.12132 
C -2.683901 -1.55874 -3 -0.795609 -3 0 
C -3 0.795609 -2.683901 1.55874 -2.12132 2.12132 
C -1.55874 2.683901 -0.795609 3 0 3 
z
" style="stroke: #1f77b4"/>
    </defs>
    <g clip-path="url(#p1a50504cbf)">
     <use xlink:href="#m77aaff253b" x="94.744787" y="377.263444" style="fill: #1f77b4; stroke: #1f77b4"/>
     <use xlink:href="#m77aaff253b" x="105.203765" y="377.263444" style="fill: #1f77b4; stroke: #1f77b4"/>
     <use xlink:href="#m77aaff253b" x="115.662743" y="377.263444" style="fill: #1f77b4; stroke: #1f77b4"/>
     <use xlink:href="#m77aaff253b" x="126.121722" y="377.263444" style="fill: #1f77b4; stroke: #1f77b4"/>
     <use xlink:href="#m77aaff253b" x="136.5807" y="377.263444" style="fill: #1f77b4; stroke: #1f77b4"/>
     <use xlink:href="#m77aaff253b" x="147.039678" y="377.263444" style="fill: #1f77b4; stroke: #1f77b4"/>
     <use xlink:href="#m77aaff253b" x="157.498656" y="377.263444" style="fill: #1f77b4; stroke: #1f77b4"/>
     <use xlink:href="#m77aaff253b" x="167.957635" y="377.263444" style="fill: #1f77b4; stroke: #1f77b4"/>
     <use xlink:href="#m77aaff253b" x="178.416613" y="377.263444" style="fill: #1f77b4; stroke: #1f77b4"/>
     <use xlink:href="#m77aaff253b" x="188.875591" y="377.263444" style="fill: #1f77b4; stroke: #1f77b4"/>
     <use xlink:href="#m77aaff253b" x="199.334569" y="377.263444" style="fill: #1f77b4; stroke: #1f77b4"/>
     <use xlink:href="#m77aaff253b" x="209.793548" y="379.373311" style="fill: #1f77b4; stroke: #1f77b4"/>
     <use xlink:href="#m77aaff253b" x="220.252526" y="377.263444" style="fill: #1f77b4; stroke: #1f77b4"/>
     <use xlink:href="#m77aaff253b" x="241.170482" y="379.373311" style="fill: #1f77b4; stroke: #1f77b4"/>
     <use xlink:href="#m77aaff253b" x="251.629461" y="379.373311" style="fill: #1f77b4; stroke: #1f77b4"/>
     <use xlink:href="#m77aaff253b" x="272.547417" y="377.263444" style="fill: #1f77b4; stroke: #1f77b4"/>
     <use xlink:href="#m77aaff253b" x="283.006395" y="377.263444" style="fill: #1f77b4; stroke: #1f77b4"/>
     <use xlink:href="#m77aaff253b" x="293.465374" y="377.263444" style="fill: #1f77b4; stroke: #1f77b4"/>
     <use xlink:href="#m77aaff253b" x="303.924352" y="398.591364" style="fill: #1f77b4; stroke: #1f77b4"/>
     <use xlink:href="#m77aaff253b" x="314.38333" y="377.263444" style="fill: #1f77b4; stroke: #1f77b4"/>
     <use xlink:href="#m77aaff253b" x="335.301287" y="377.263444" style="fill: #1f77b4; stroke: #1f77b4"/>
     <use xlink:href="#m77aaff253b" x="345.760265" y="377.263444" style="fill: #1f77b4; stroke: #1f77b4"/>
     <use xlink:href="#m77aaff253b" x="356.219243" y="377.263444" style="fill: #1f77b4; stroke: #1f77b4"/>
     <use xlink:href="#m77aaff253b" x="366.678221" y="377.263444" style="fill: #1f77b4; stroke: #1f77b4"/>
     <use xlink:href="#m77aaff253b" x="387.596178" y="379.373311" style="fill: #1f77b4; stroke: #1f77b4"/>
     <use xlink:href="#m77aaff253b" x="398.055156" y="379.373311" style="fill: #1f77b4; stroke: #1f77b4"/>
     <use xlink:href="#m77aaff253b" x="408.514135" y="377.263444" style="fill: #1f77b4; stroke: #1f77b4"/>
     <use xlink:href="#m77aaff253b" x="418.973113" y="379.373311" style="fill: #1f77b4; stroke: #1f77b4"/>
     <use xlink:href="#m77aaff253b" x="429.432091" y="379.373311" style="fill: #1f77b4; stroke: #1f77b4"/>
     <use xlink:href="#m77aaff253b" x="439.891069" y="377.263444" style="fill: #1f77b4; stroke: #1f77b4"/>
     <use xlink:href="#m77aaff253b" x="450.350048" y="379.373311" style="fill: #1f77b4; stroke: #1f77b4"/>
     <use xlink:href="#m77aaff253b" x="460.809026" y="379.373311" style="fill: #1f77b4; stroke: #1f77b4"/>
     <use xlink:href="#m77aaff253b" x="481.726982" y="442.849855" style="fill: #1f77b4; stroke: #1f77b4"/>
     <use xlink:href="#m77aaff253b" x="492.185961" y="442.849855" style="fill: #1f77b4; stroke: #1f77b4"/>
     <use xlink:href="#m77aaff253b" x="502.644939" y="445.121812" style="fill: #1f77b4; stroke: #1f77b4"/>
     <use xlink:href="#m77aaff253b" x="523.562895" y="442.849855" style="fill: #1f77b4; stroke: #1f77b4"/>
     <use xlink:href="#m77aaff253b" x="554.93983" y="442.849855" style="fill: #1f77b4; stroke: #1f77b4"/>
     <use xlink:href="#m77aaff253b" x="565.398808" y="445.121812" style="fill: #1f77b4; stroke: #1f77b4"/>
     <use xlink:href="#m77aaff253b" x="575.857787" y="445.121812" style="fill: #1f77b4; stroke: #1f77b4"/>
     <use xlink:href="#m77aaff253b" x="586.316765" y="442.849855" style="fill: #1f77b4; stroke: #1f77b4"/>
     <use xlink:href="#m77aaff253b" x="596.775743" y="442.849855" style="fill: #1f77b4; stroke: #1f77b4"/>
     <use xlink:href="#m77aaff253b" x="607.234721" y="442.849855" style="fill: #1f77b4; stroke: #1f77b4"/>
     <use xlink:href="#m77aaff253b" x="617.6937" y="442.849855" style="fill: #1f77b4; stroke: #1f77b4"/>
     <use xlink:href="#m77aaff253b" x="628.152678" y="465.835564" style="fill: #1f77b4; stroke: #1f77b4"/>
     <use xlink:href="#m77aaff253b" x="638.611656" y="445.121812" style="fill: #1f77b4; stroke: #1f77b4"/>
     <use xlink:href="#m77aaff253b" x="649.070634" y="445.121812" style="fill: #1f77b4; stroke: #1f77b4"/>
     <use xlink:href="#m77aaff253b" x="669.988591" y="445.121812" style="fill: #1f77b4; stroke: #1f77b4"/>
     <use xlink:href="#m77aaff253b" x="680.447569" y="374.167627" style="fill: #1f77b4; stroke: #1f77b4"/>
     <use xlink:href="#m77aaff253b" x="690.906547" y="442.849855" style="fill: #1f77b4; stroke: #1f77b4"/>
     <use xlink:href="#m77aaff253b" x="701.365526" y="358.497083" style="fill: #1f77b4; stroke: #1f77b4"/>
    </g>
   </g>
   <g id="line2d_19">
    <path d="M 94.744787 442.849855 
L 105.203765 356.436226 
L 115.662743 358.497083 
L 126.121722 377.263444 
L 136.5807 358.497083 
L 147.039678 377.263444 
L 157.498656 377.263444 
L 167.957635 358.497083 
L 178.416613 377.263444 
L 188.875591 356.436226 
L 199.334569 377.263444 
L 209.793548 358.497083 
L 220.252526 356.436226 
L 230.711504 356.436226 
L 241.170482 377.263444 
L 251.629461 358.497083 
L 272.547417 358.497083 
L 283.006395 358.497083 
L 293.465374 377.263444 
L 303.924352 356.436226 
L 314.38333 358.497083 
L 324.842308 358.497083 
L 335.301287 358.497083 
L 345.760265 356.436226 
L 356.219243 358.497083 
L 366.678221 46.813736 
L 387.596178 377.263444 
L 398.055156 377.263444 
L 408.514135 358.497083 
L 418.973113 356.436226 
L 429.432091 356.436226 
L 439.891069 356.436226 
L 450.350048 358.497083 
L 460.809026 356.436226 
L 481.726982 356.436226 
L 492.185961 377.263444 
L 502.644939 358.497083 
L 513.103917 358.497083 
L 523.562895 358.497083 
L 544.480852 377.263444 
L 554.93983 356.436226 
L 565.398808 356.436226 
L 575.857787 356.436226 
L 586.316765 356.436226 
L 596.775743 356.436226 
L 607.234721 358.497083 
L 617.6937 358.497083 
L 628.152678 506.332202 
L 638.611656 356.436226 
L 649.070634 377.263444 
L 669.988591 316.193556 
L 680.447569 316.193556 
L 690.906547 318.162922 
L 701.365526 496.635944 
" clip-path="url(#p1a50504cbf)" style="fill: none; stroke: #ff7f0e; stroke-width: 2; stroke-linecap: square"/>
    <defs>
     <path id="m48eba7046a" d="M 0 3 
C 0.795609 3 1.55874 2.683901 2.12132 2.12132 
C 2.683901 1.55874 3 0.795609 3 0 
C 3 -0.795609 2.683901 -1.55874 2.12132 -2.12132 
C 1.55874 -2.683901 0.795609 -3 0 -3 
C -0.795609 -3 -1.55874 -2.683901 -2.12132 -2.12132 
C -2.683901 -1.55874 -3 -0.795609 -3 0 
C -3 0.795609 -2.683901 1.55874 -2.12132 2.12132 
C -1.55874 2.683901 -0.795609 3 0 3 
z
" style="stroke: #ff7f0e"/>
    </defs>
    <g clip-path="url(#p1a50504cbf)">
     <use xlink:href="#m48eba7046a" x="94.744787" y="442.849855" style="fill: #ff7f0e; stroke: #ff7f0e"/>
     <use xlink:href="#m48eba7046a" x="105.203765" y="356.436226" style="fill: #ff7f0e; stroke: #ff7f0e"/>
     <use xlink:href="#m48eba7046a" x="115.662743" y="358.497083" style="fill: #ff7f0e; stroke: #ff7f0e"/>
     <use xlink:href="#m48eba7046a" x="126.121722" y="377.263444" style="fill: #ff7f0e; stroke: #ff7f0e"/>
     <use xlink:href="#m48eba7046a" x="136.5807" y="358.497083" style="fill: #ff7f0e; stroke: #ff7f0e"/>
     <use xlink:href="#m48eba7046a" x="147.039678" y="377.263444" style="fill: #ff7f0e; stroke: #ff7f0e"/>
     <use xlink:href="#m48eba7046a" x="157.498656" y="377.263444" style="fill: #ff7f0e; stroke: #ff7f0e"/>
     <use xlink:href="#m48eba7046a" x="167.957635" y="358.497083" style="fill: #ff7f0e; stroke: #ff7f0e"/>
     <use xlink:href="#m48eba7046a" x="178.416613" y="377.263444" style="fill: #ff7f0e; stroke: #ff7f0e"/>
     <use xlink:href="#m48eba7046a" x="188.875591" y="356.436226" style="fill: #ff7f0e; stroke: #ff7f0e"/>
     <use xlink:href="#m48eba7046a" x="199.334569" y="377.263444" style="fill: #ff7f0e; stroke: #ff7f0e"/>
     <use xlink:href="#m48eba7046a" x="209.793548" y="358.497083" style="fill: #ff7f0e; stroke: #ff7f0e"/>
     <use xlink:href="#m48eba7046a" x="220.252526" y="356.436226" style="fill: #ff7f0e; stroke: #ff7f0e"/>
     <use xlink:href="#m48eba7046a" x="230.711504" y="356.436226" style="fill: #ff7f0e; stroke: #ff7f0e"/>
     <use xlink:href="#m48eba7046a" x="241.170482" y="377.263444" style="fill: #ff7f0e; stroke: #ff7f0e"/>
     <use xlink:href="#m48eba7046a" x="251.629461" y="358.497083" style="fill: #ff7f0e; stroke: #ff7f0e"/>
     <use xlink:href="#m48eba7046a" x="272.547417" y="358.497083" style="fill: #ff7f0e; stroke: #ff7f0e"/>
     <use xlink:href="#m48eba7046a" x="283.006395" y="358.497083" style="fill: #ff7f0e; stroke: #ff7f0e"/>
     <use xlink:href="#m48eba7046a" x="293.465374" y="377.263444" style="fill: #ff7f0e; stroke: #ff7f0e"/>
     <use xlink:href="#m48eba7046a" x="303.924352" y="356.436226" style="fill: #ff7f0e; stroke: #ff7f0e"/>
     <use xlink:href="#m48eba7046a" x="314.38333" y="358.497083" style="fill: #ff7f0e; stroke: #ff7f0e"/>
     <use xlink:href="#m48eba7046a" x="324.842308" y="358.497083" style="fill: #ff7f0e; stroke: #ff7f0e"/>
     <use xlink:href="#m48eba7046a" x="335.301287" y="358.497083" style="fill: #ff7f0e; stroke: #ff7f0e"/>
     <use xlink:href="#m48eba7046a" x="345.760265" y="356.436226" style="fill: #ff7f0e; stroke: #ff7f0e"/>
     <use xlink:href="#m48eba7046a" x="356.219243" y="358.497083" style="fill: #ff7f0e; stroke: #ff7f0e"/>
     <use xlink:href="#m48eba7046a" x="366.678221" y="46.813736" style="fill: #ff7f0e; stroke: #ff7f0e"/>
     <use xlink:href="#m48eba7046a" x="387.596178" y="377.263444" style="fill: #ff7f0e; stroke: #ff7f0e"/>
     <use xlink:href="#m48eba7046a" x="398.055156" y="377.263444" style="fill: #ff7f0e; stroke: #ff7f0e"/>
     <use xlink:href="#m48eba7046a" x="408.514135" y="358.497083" style="fill: #ff7f0e; stroke: #ff7f0e"/>
     <use xlink:href="#m48eba7046a" x="418.973113" y="356.436226" style="fill: #ff7f0e; stroke: #ff7f0e"/>
     <use xlink:href="#m48eba7046a" x="429.432091" y="356.436226" style="fill: #ff7f0e; stroke: #ff7f0e"/>
     <use xlink:href="#m48eba7046a" x="439.891069" y="356.436226" style="fill: #ff7f0e; stroke: #ff7f0e"/>
     <use xlink:href="#m48eba7046a" x="450.350048" y="358.497083" style="fill: #ff7f0e; stroke: #ff7f0e"/>
     <use xlink:href="#m48eba7046a" x="460.809026" y="356.436226" style="fill: #ff7f0e; stroke: #ff7f0e"/>
     <use xlink:href="#m48eba7046a" x="481.726982" y="356.436226" style="fill: #ff7f0e; stroke: #ff7f0e"/>
     <use xlink:href="#m48eba7046a" x="492.185961" y="377.263444" style="fill: #ff7f0e; stroke: #ff7f0e"/>
     <use xlink:href="#m48eba7046a" x="502.644939" y="358.497083" style="fill: #ff7f0e; stroke: #ff7f0e"/>
     <use xlink:href="#m48eba7046a" x="513.103917" y="358.497083" style="fill: #ff7f0e; stroke: #ff7f0e"/>
     <use xlink:href="#m48eba7046a" x="523.562895" y="358.497083" style="fill: #ff7f0e; stroke: #ff7f0e"/>
     <use xlink:href="#m48eba7046a" x="544.480852" y="377.263444" style="fill: #ff7f0e; stroke: #ff7f0e"/>
     <use xlink:href="#m48eba7046a" x="554.93983" y="356.436226" style="fill: #ff7f0e; stroke: #ff7f0e"/>
     <use xlink:href="#m48eba7046a" x="565.398808" y="356.436226" style="fill: #ff7f0e; stroke: #ff7f0e"/>
     <use xlink:href="#m48eba7046a" x="575.857787" y="356.436226" style="fill: #ff7f0e; stroke: #ff7f0e"/>
     <use xlink:href="#m48eba7046a" x="586.316765" y="356.436226" style="fill: #ff7f0e; stroke: #ff7f0e"/>
     <use xlink:href="#m48eba7046a" x="596.775743" y="356.436226" style="fill: #ff7f0e; stroke: #ff7f0e"/>
     <use xlink:href="#m48eba7046a" x="607.234721" y="358.497083" style="fill: #ff7f0e; stroke: #ff7f0e"/>
     <use xlink:href="#m48eba7046a" x="617.6937" y="358.497083" style="fill: #ff7f0e; stroke: #ff7f0e"/>
     <use xlink:href="#m48eba7046a" x="628.152678" y="506.332202" style="fill: #ff7f0e; stroke: #ff7f0e"/>
     <use xlink:href="#m48eba7046a" x="638.611656" y="356.436226" style="fill: #ff7f0e; stroke: #ff7f0e"/>
     <use xlink:href="#m48eba7046a" x="649.070634" y="377.263444" style="fill: #ff7f0e; stroke: #ff7f0e"/>
     <use xlink:href="#m48eba7046a" x="669.988591" y="316.193556" style="fill: #ff7f0e; stroke: #ff7f0e"/>
     <use xlink:href="#m48eba7046a" x="680.447569" y="316.193556" style="fill: #ff7f0e; stroke: #ff7f0e"/>
     <use xlink:href="#m48eba7046a" x="690.906547" y="318.162922" style="fill: #ff7f0e; stroke: #ff7f0e"/>
     <use xlink:href="#m48eba7046a" x="701.365526" y="496.635944" style="fill: #ff7f0e; stroke: #ff7f0e"/>
    </g>
   </g>
   <g id="patch_3">
    <path d="M 64.41375 529.308125 
L 64.41375 23.837812 
" style="fill: none; stroke: #000000; stroke-width: 0.8; stroke-linejoin: miter; stroke-linecap: square"/>
   </g>
   <g id="patch_4">
    <path d="M 731.696562 529.308125 
L 731.696562 23.837812 
" style="fill: none; stroke: #000000; stroke-width: 0.8; stroke-linejoin: miter; stroke-linecap: square"/>
   </g>
   <g id="patch_5">
    <path d="M 64.41375 529.308125 
L 731.696563 529.308125 
" style="fill: none; stroke: #000000; stroke-width: 0.8; stroke-linejoin: miter; stroke-linecap: square"/>
   </g>
   <g id="patch_6">
    <path d="M 64.41375 23.837812 
L 731.696563 23.837812 
" style="fill: none; stroke: #000000; stroke-width: 0.8; stroke-linejoin: miter; stroke-linecap: square"/>
   </g>
   <g id="text_13">
    <text style="font: 700 14px 'DejaVu Sans', 'Bitstream Vera Sans', 'Computer Modern Sans Serif', 'Lucida Grande', 'Verdana', 'Geneva', 'Lucid', 'Arial', 'Helvetica', 'Avant Garde', sans-serif; text-anchor: middle" x="398.055156" y="17.837813" transform="rotate(-0 398.055156 17.837813)">Ts Thread Local Single Thread - Performance Trend</text>
   </g>
   <g id="legend_1">
    <g id="patch_7">
     <path d="M 772.060703 61.194063 
L 847.484141 61.194063 
Q 849.484141 61.194063 849.484141 59.194063 
L 849.484141 30.837813 
Q 849.484141 28.837813 847.484141 28.837813 
L 772.060703 28.837813 
Q 770.060703 28.837813 770.060703 30.837813 
L 770.060703 59.194063 
Q 770.060703 61.194063 772.060703 61.194063 
z
" style="fill: #ffffff; opacity: 0.8; stroke: #cccccc; stroke-linejoin: miter"/>
    </g>
    <g id="line2d_20">
     <path d="M 774.060703 36.93625 
L 784.060703 36.93625 
L 794.060703 36.93625 
" style="fill: none; stroke: #1f77b4; stroke-width: 2; stroke-linecap: square"/>
     <g>
      <use xlink:href="#m77aaff253b" x="784.060703" y="36.93625" style="fill: #1f77b4; stroke: #1f77b4"/>
     </g>
    </g>
    <g id="text_14">
     <text style="font: 10px 'DejaVu Sans', 'Bitstream Vera Sans', 'Computer Modern Sans Serif', 'Lucida Grande', 'Verdana', 'Geneva', 'Lucid', 'Arial', 'Helvetica', 'Avant Garde', sans-serif; text-anchor: start" x="802.060703" y="40.43625" transform="rotate(-0 802.060703 40.43625)">clang-18</text>
    </g>
    <g id="line2d_21">
     <path d="M 774.060703 51.614375 
L 784.060703 51.614375 
L 794.060703 51.614375 
" style="fill: none; stroke: #ff7f0e; stroke-width: 2; stroke-linecap: square"/>
     <g>
      <use xlink:href="#m48eba7046a" x="784.060703" y="51.614375" style="fill: #ff7f0e; stroke: #ff7f0e"/>
     </g>
    </g>
    <g id="text_15">
     <text style="font: 10px 'DejaVu Sans', 'Bitstream Vera Sans', 'Computer Modern Sans Serif', 'Lucida Grande', 'Verdana', 'Geneva', 'Lucid', 'Arial', 'Helvetica', 'Avant Garde', sans-serif; text-anchor: start" x="802.060703" y="55.114375" transform="rotate(-0 802.060703 55.114375)">gcc-14</text>
    </g>
   </g>
  </g>
 </g>
 <defs>
  <clipPath id="p1a50504cbf">
   <rect x="64.41375" y="23.837813" width="667.282812" height="505.470313"/>
  </clipPath>
 </defs>
</svg>
