<?xml version="1.0" encoding="utf-8" standalone="no"?>
<!DOCTYPE svg PUBLIC "-//W3C//DTD SVG 1.1//EN"
  "http://www.w3.org/Graphics/SVG/1.1/DTD/svg11.dtd">
<svg xmlns:xlink="http://www.w3.org/1999/xlink" width="855.204687pt" height="568.8pt" viewBox="0 0 855.204687 568.8" xmlns="http://www.w3.org/2000/svg" version="1.1">
 <metadata>
  <rdf:RDF xmlns:dc="http://purl.org/dc/elements/1.1/" xmlns:cc="http://creativecommons.org/ns#" xmlns:rdf="http://www.w3.org/1999/02/22-rdf-syntax-ns#">
   <cc:Work>
    <dc:type rdf:resource="http://purl.org/dc/dcmitype/StillImage"/>
    <dc:date>2025-08-14T22:04:50.185741</dc:date>
    <dc:format>image/svg+xml</dc:format>
    <dc:creator>
     <cc:Agent>
      <dc:title>Matplotlib v3.9.4, https://matplotlib.org/</dc:title>
     </cc:Agent>
    </dc:creator>
   </cc:Work>
  </rdf:RDF>
 </metadata>
 <defs>
  <style type="text/css">*{stroke-linejoin: round; stroke-linecap: butt}</style>
 </defs>
 <g id="figure_1">
  <g id="patch_1">
   <path d="M 0 568.8 
L 855.204687 568.8 
L 855.204687 0 
L 0 0 
z
" style="fill: #ffffff"/>
  </g>
  <g id="axes_1">
   <g id="patch_2">
    <path d="M 64.41375 529.308125 
L 702.1075 529.308125 
L 702.1075 23.837812 
L 64.41375 23.837812 
z
" style="fill: #ffffff"/>
   </g>
   <g id="matplotlib.axis_1">
    <g id="xtick_1">
     <g id="line2d_1">
      <path d="M 139.167324 529.308125 
L 139.167324 23.837812 
" clip-path="url(#peaf2681442)" style="fill: none; stroke: #b0b0b0; stroke-opacity: 0.3; stroke-width: 0.8; stroke-linecap: square"/>
     </g>
     <g id="line2d_2">
      <defs>
       <path id="ma19782c84d" d="M 0 0 
L 0 3.5 
" style="stroke: #000000; stroke-width: 0.8"/>
      </defs>
      <g>
       <use xlink:href="#ma19782c84d" x="139.167324" y="529.308125" style="stroke: #000000; stroke-width: 0.8"/>
      </g>
     </g>
     <g id="text_1">
      <text style="font: 10px 'DejaVu Sans', 'Bitstream Vera Sans', 'Computer Modern Sans Serif', 'Lucida Grande', 'Verdana', 'Geneva', 'Lucid', 'Arial', 'Helvetica', 'Avant Garde', sans-serif; text-anchor: middle" x="139.167324" y="543.906563" transform="rotate(-0 139.167324 543.906563)">72.5</text>
     </g>
    </g>
    <g id="xtick_2">
     <g id="line2d_3">
      <path d="M 215.44648 529.308125 
L 215.44648 23.837812 
" clip-path="url(#peaf2681442)" style="fill: none; stroke: #b0b0b0; stroke-opacity: 0.3; stroke-width: 0.8; stroke-linecap: square"/>
     </g>
     <g id="line2d_4">
      <g>
       <use xlink:href="#ma19782c84d" x="215.44648" y="529.308125" style="stroke: #000000; stroke-width: 0.8"/>
      </g>
     </g>
     <g id="text_2">
      <text style="font: 10px 'DejaVu Sans', 'Bitstream Vera Sans', 'Computer Modern Sans Serif', 'Lucida Grande', 'Verdana', 'Geneva', 'Lucid', 'Arial', 'Helvetica', 'Avant Garde', sans-serif; text-anchor: middle" x="215.44648" y="543.906563" transform="rotate(-0 215.44648 543.906563)">75.0</text>
     </g>
    </g>
    <g id="xtick_3">
     <g id="line2d_5">
      <path d="M 291.725637 529.308125 
L 291.725637 23.837812 
" clip-path="url(#peaf2681442)" style="fill: none; stroke: #b0b0b0; stroke-opacity: 0.3; stroke-width: 0.8; stroke-linecap: square"/>
     </g>
     <g id="line2d_6">
      <g>
       <use xlink:href="#ma19782c84d" x="291.725637" y="529.308125" style="stroke: #000000; stroke-width: 0.8"/>
      </g>
     </g>
     <g id="text_3">
      <text style="font: 10px 'DejaVu Sans', 'Bitstream Vera Sans', 'Computer Modern Sans Serif', 'Lucida Grande', 'Verdana', 'Geneva', 'Lucid', 'Arial', 'Helvetica', 'Avant Garde', sans-serif; text-anchor: middle" x="291.725637" y="543.906563" transform="rotate(-0 291.725637 543.906563)">77.5</text>
     </g>
    </g>
    <g id="xtick_4">
     <g id="line2d_7">
      <path d="M 368.004794 529.308125 
L 368.004794 23.837812 
" clip-path="url(#peaf2681442)" style="fill: none; stroke: #b0b0b0; stroke-opacity: 0.3; stroke-width: 0.8; stroke-linecap: square"/>
     </g>
     <g id="line2d_8">
      <g>
       <use xlink:href="#ma19782c84d" x="368.004794" y="529.308125" style="stroke: #000000; stroke-width: 0.8"/>
      </g>
     </g>
     <g id="text_4">
      <text style="font: 10px 'DejaVu Sans', 'Bitstream Vera Sans', 'Computer Modern Sans Serif', 'Lucida Grande', 'Verdana', 'Geneva', 'Lucid', 'Arial', 'Helvetica', 'Avant Garde', sans-serif; text-anchor: middle" x="368.004794" y="543.906563" transform="rotate(-0 368.004794 543.906563)">80.0</text>
     </g>
    </g>
    <g id="xtick_5">
     <g id="line2d_9">
      <path d="M 444.28395 529.308125 
L 444.28395 23.837812 
" clip-path="url(#peaf2681442)" style="fill: none; stroke: #b0b0b0; stroke-opacity: 0.3; stroke-width: 0.8; stroke-linecap: square"/>
     </g>
     <g id="line2d_10">
      <g>
       <use xlink:href="#ma19782c84d" x="444.28395" y="529.308125" style="stroke: #000000; stroke-width: 0.8"/>
      </g>
     </g>
     <g id="text_5">
      <text style="font: 10px 'DejaVu Sans', 'Bitstream Vera Sans', 'Computer Modern Sans Serif', 'Lucida Grande', 'Verdana', 'Geneva', 'Lucid', 'Arial', 'Helvetica', 'Avant Garde', sans-serif; text-anchor: middle" x="444.28395" y="543.906563" transform="rotate(-0 444.28395 543.906563)">82.5</text>
     </g>
    </g>
    <g id="xtick_6">
     <g id="line2d_11">
      <path d="M 520.563107 529.308125 
L 520.563107 23.837812 
" clip-path="url(#peaf2681442)" style="fill: none; stroke: #b0b0b0; stroke-opacity: 0.3; stroke-width: 0.8; stroke-linecap: square"/>
     </g>
     <g id="line2d_12">
      <g>
       <use xlink:href="#ma19782c84d" x="520.563107" y="529.308125" style="stroke: #000000; stroke-width: 0.8"/>
      </g>
     </g>
     <g id="text_6">
      <text style="font: 10px 'DejaVu Sans', 'Bitstream Vera Sans', 'Computer Modern Sans Serif', 'Lucida Grande', 'Verdana', 'Geneva', 'Lucid', 'Arial', 'Helvetica', 'Avant Garde', sans-serif; text-anchor: middle" x="520.563107" y="543.906563" transform="rotate(-0 520.563107 543.906563)">85.0</text>
     </g>
    </g>
    <g id="xtick_7">
     <g id="line2d_13">
      <path d="M 596.842264 529.308125 
L 596.842264 23.837812 
" clip-path="url(#peaf2681442)" style="fill: none; stroke: #b0b0b0; stroke-opacity: 0.3; stroke-width: 0.8; stroke-linecap: square"/>
     </g>
     <g id="line2d_14">
      <g>
       <use xlink:href="#ma19782c84d" x="596.842264" y="529.308125" style="stroke: #000000; stroke-width: 0.8"/>
      </g>
     </g>
     <g id="text_7">
      <text style="font: 10px 'DejaVu Sans', 'Bitstream Vera Sans', 'Computer Modern Sans Serif', 'Lucida Grande', 'Verdana', 'Geneva', 'Lucid', 'Arial', 'Helvetica', 'Avant Garde', sans-serif; text-anchor: middle" x="596.842264" y="543.906563" transform="rotate(-0 596.842264 543.906563)">87.5</text>
     </g>
    </g>
    <g id="xtick_8">
     <g id="line2d_15">
      <path d="M 673.12142 529.308125 
L 673.12142 23.837812 
" clip-path="url(#peaf2681442)" style="fill: none; stroke: #b0b0b0; stroke-opacity: 0.3; stroke-width: 0.8; stroke-linecap: square"/>
     </g>
     <g id="line2d_16">
      <g>
       <use xlink:href="#ma19782c84d" x="673.12142" y="529.308125" style="stroke: #000000; stroke-width: 0.8"/>
      </g>
     </g>
     <g id="text_8">
      <text style="font: 10px 'DejaVu Sans', 'Bitstream Vera Sans', 'Computer Modern Sans Serif', 'Lucida Grande', 'Verdana', 'Geneva', 'Lucid', 'Arial', 'Helvetica', 'Avant Garde', sans-serif; text-anchor: middle" x="673.12142" y="543.906563" transform="rotate(-0 673.12142 543.906563)">90.0</text>
     </g>
    </g>
    <g id="text_9">
     <text style="font: 12px 'DejaVu Sans', 'Bitstream Vera Sans', 'Computer Modern Sans Serif', 'Lucida Grande', 'Verdana', 'Geneva', 'Lucid', 'Arial', 'Helvetica', 'Avant Garde', sans-serif; text-anchor: middle" x="383.260625" y="559.104375" transform="rotate(-0 383.260625 559.104375)">Build Number</text>
    </g>
   </g>
   <g id="matplotlib.axis_2">
    <g id="ytick_1">
     <g id="line2d_17">
      <path d="M 64.41375 453.786204 
L 702.1075 453.786204 
" clip-path="url(#peaf2681442)" style="fill: none; stroke: #b0b0b0; stroke-opacity: 0.3; stroke-width: 0.8; stroke-linecap: square"/>
     </g>
     <g id="line2d_18">
      <defs>
       <path id="ma6ec4c9fb7" d="M 0 0 
L -3.5 0 
" style="stroke: #000000; stroke-width: 0.8"/>
      </defs>
      <g>
       <use xlink:href="#ma6ec4c9fb7" x="64.41375" y="453.786204" style="stroke: #000000; stroke-width: 0.8"/>
      </g>
     </g>
     <g id="text_10">
      <!-- $\mathdefault{10^{5}}$ -->
      <g transform="translate(39.81375 457.585423)">
       <text>
        <tspan style="font: 10px 'DejaVu Sans'" x="0 6.362305" y="-0.06406250000000036">10</tspan>
        <tspan style="font: 7px 'DejaVu Sans'" x="12.820312" y="-3.8921875000000004">5</tspan>
       </text>
      </g>
     </g>
    </g>
    <g id="ytick_2">
     <g id="line2d_19">
      <defs>
       <path id="m2477b06a93" d="M 0 0 
L -2 0 
" style="stroke: #000000; stroke-width: 0.6"/>
      </defs>
      <g>
       <use xlink:href="#m2477b06a93" x="64.41375" y="496.873642" style="stroke: #000000; stroke-width: 0.6"/>
      </g>
     </g>
    </g>
    <g id="ytick_3">
     <g id="line2d_20">
      <g>
       <use xlink:href="#m2477b06a93" x="64.41375" y="170.321985" style="stroke: #000000; stroke-width: 0.6"/>
      </g>
     </g>
     <g id="text_11">
      <!-- $\mathdefault{2\times10^{5}}$ -->
      <g transform="translate(22.81375 174.121204)">
       <text>
        <tspan style="font: 10px 'DejaVu Sans'" x="0 8.310547 18.637695 25" y="-0.06406250000000036">2×10</tspan>
        <tspan style="font: 7px 'DejaVu Sans'" x="31.458008" y="-3.8921875000000004">5</tspan>
       </text>
      </g>
     </g>
    </g>
    <g id="text_12">
     <text style="font: 12px 'DejaVu Sans', 'Bitstream Vera Sans', 'Computer Modern Sans Serif', 'Lucida Grande', 'Verdana', 'Geneva', 'Lucid', 'Arial', 'Helvetica', 'Avant Garde', sans-serif; text-anchor: middle" x="16.318125" y="276.572969" transform="rotate(-90 16.318125 276.572969)">Median Elapsed Time (nanoseconds)</text>
    </g>
   </g>
   <g id="line2d_21">
    <path d="M 93.39983 358.594402 
L 123.911492 83.393181 
L 154.423155 220.76105 
L 184.934818 331.184044 
L 215.44648 228.639233 
L 245.958143 318.546856 
L 276.469806 271.249317 
L 306.981468 112.928166 
L 337.493131 300.433378 
L 368.004794 288.178339 
L 398.516456 314.544957 
L 429.028119 271.473142 
L 459.539782 355.083876 
L 490.051444 289.902078 
L 520.563107 324.935545 
L 551.07477 310.91823 
L 612.098095 46.813736 
L 642.609758 298.535776 
L 673.12142 272.004793 
" clip-path="url(#peaf2681442)" style="fill: none; stroke: #1f77b4; stroke-width: 2; stroke-linecap: square"/>
    <defs>
     <path id="mdd34db6584" d="M 0 3 
C 0.795609 3 1.55874 2.683901 2.12132 2.12132 
C 2.683901 1.55874 3 0.795609 3 0 
C 3 -0.795609 2.683901 -1.55874 2.12132 -2.12132 
C 1.55874 -2.683901 0.795609 -3 0 -3 
C -0.795609 -3 -1.55874 -2.683901 -2.12132 -2.12132 
C -2.683901 -1.55874 -3 -0.795609 -3 0 
C -3 0.795609 -2.683901 1.55874 -2.12132 2.12132 
C -1.55874 2.683901 -0.795609 3 0 3 
z
" style="stroke: #1f77b4"/>
    </defs>
    <g clip-path="url(#peaf2681442)">
     <use xlink:href="#mdd34db6584" x="93.39983" y="358.594402" style="fill: #1f77b4; stroke: #1f77b4"/>
     <use xlink:href="#mdd34db6584" x="123.911492" y="83.393181" style="fill: #1f77b4; stroke: #1f77b4"/>
     <use xlink:href="#mdd34db6584" x="154.423155" y="220.76105" style="fill: #1f77b4; stroke: #1f77b4"/>
     <use xlink:href="#mdd34db6584" x="184.934818" y="331.184044" style="fill: #1f77b4; stroke: #1f77b4"/>
     <use xlink:href="#mdd34db6584" x="215.44648" y="228.639233" style="fill: #1f77b4; stroke: #1f77b4"/>
     <use xlink:href="#mdd34db6584" x="245.958143" y="318.546856" style="fill: #1f77b4; stroke: #1f77b4"/>
     <use xlink:href="#mdd34db6584" x="276.469806" y="271.249317" style="fill: #1f77b4; stroke: #1f77b4"/>
     <use xlink:href="#mdd34db6584" x="306.981468" y="112.928166" style="fill: #1f77b4; stroke: #1f77b4"/>
     <use xlink:href="#mdd34db6584" x="337.493131" y="300.433378" style="fill: #1f77b4; stroke: #1f77b4"/>
     <use xlink:href="#mdd34db6584" x="368.004794" y="288.178339" style="fill: #1f77b4; stroke: #1f77b4"/>
     <use xlink:href="#mdd34db6584" x="398.516456" y="314.544957" style="fill: #1f77b4; stroke: #1f77b4"/>
     <use xlink:href="#mdd34db6584" x="429.028119" y="271.473142" style="fill: #1f77b4; stroke: #1f77b4"/>
     <use xlink:href="#mdd34db6584" x="459.539782" y="355.083876" style="fill: #1f77b4; stroke: #1f77b4"/>
     <use xlink:href="#mdd34db6584" x="490.051444" y="289.902078" style="fill: #1f77b4; stroke: #1f77b4"/>
     <use xlink:href="#mdd34db6584" x="520.563107" y="324.935545" style="fill: #1f77b4; stroke: #1f77b4"/>
     <use xlink:href="#mdd34db6584" x="551.07477" y="310.91823" style="fill: #1f77b4; stroke: #1f77b4"/>
     <use xlink:href="#mdd34db6584" x="612.098095" y="46.813736" style="fill: #1f77b4; stroke: #1f77b4"/>
     <use xlink:href="#mdd34db6584" x="642.609758" y="298.535776" style="fill: #1f77b4; stroke: #1f77b4"/>
     <use xlink:href="#mdd34db6584" x="673.12142" y="272.004793" style="fill: #1f77b4; stroke: #1f77b4"/>
    </g>
   </g>
   <g id="line2d_22">
    <path d="M 93.39983 392.679679 
L 123.911492 386.936497 
L 154.423155 398.248244 
L 184.934818 385.343502 
L 215.44648 339.569664 
L 245.958143 404.385915 
L 276.469806 381.678582 
L 306.981468 408.819049 
L 337.493131 396.668627 
L 368.004794 335.900085 
L 398.516456 374.883943 
L 429.028119 381.8178 
L 459.539782 372.43382 
L 490.051444 408.554433 
L 520.563107 391.855324 
L 551.07477 368.569402 
L 612.098095 391.970803 
L 642.609758 383.410177 
L 673.12142 355.940819 
" clip-path="url(#peaf2681442)" style="fill: none; stroke: #ff7f0e; stroke-width: 2; stroke-linecap: square"/>
    <defs>
     <path id="mef58ba8d32" d="M 0 3 
C 0.795609 3 1.55874 2.683901 2.12132 2.12132 
C 2.683901 1.55874 3 0.795609 3 0 
C 3 -0.795609 2.683901 -1.55874 2.12132 -2.12132 
C 1.55874 -2.683901 0.795609 -3 0 -3 
C -0.795609 -3 -1.55874 -2.683901 -2.12132 -2.12132 
C -2.683901 -1.55874 -3 -0.795609 -3 0 
C -3 0.795609 -2.683901 1.55874 -2.12132 2.12132 
C -1.55874 2.683901 -0.795609 3 0 3 
z
" style="stroke: #ff7f0e"/>
    </defs>
    <g clip-path="url(#peaf2681442)">
     <use xlink:href="#mef58ba8d32" x="93.39983" y="392.679679" style="fill: #ff7f0e; stroke: #ff7f0e"/>
     <use xlink:href="#mef58ba8d32" x="123.911492" y="386.936497" style="fill: #ff7f0e; stroke: #ff7f0e"/>
     <use xlink:href="#mef58ba8d32" x="154.423155" y="398.248244" style="fill: #ff7f0e; stroke: #ff7f0e"/>
     <use xlink:href="#mef58ba8d32" x="184.934818" y="385.343502" style="fill: #ff7f0e; stroke: #ff7f0e"/>
     <use xlink:href="#mef58ba8d32" x="215.44648" y="339.569664" style="fill: #ff7f0e; stroke: #ff7f0e"/>
     <use xlink:href="#mef58ba8d32" x="245.958143" y="404.385915" style="fill: #ff7f0e; stroke: #ff7f0e"/>
     <use xlink:href="#mef58ba8d32" x="276.469806" y="381.678582" style="fill: #ff7f0e; stroke: #ff7f0e"/>
     <use xlink:href="#mef58ba8d32" x="306.981468" y="408.819049" style="fill: #ff7f0e; stroke: #ff7f0e"/>
     <use xlink:href="#mef58ba8d32" x="337.493131" y="396.668627" style="fill: #ff7f0e; stroke: #ff7f0e"/>
     <use xlink:href="#mef58ba8d32" x="368.004794" y="335.900085" style="fill: #ff7f0e; stroke: #ff7f0e"/>
     <use xlink:href="#mef58ba8d32" x="398.516456" y="374.883943" style="fill: #ff7f0e; stroke: #ff7f0e"/>
     <use xlink:href="#mef58ba8d32" x="429.028119" y="381.8178" style="fill: #ff7f0e; stroke: #ff7f0e"/>
     <use xlink:href="#mef58ba8d32" x="459.539782" y="372.43382" style="fill: #ff7f0e; stroke: #ff7f0e"/>
     <use xlink:href="#mef58ba8d32" x="490.051444" y="408.554433" style="fill: #ff7f0e; stroke: #ff7f0e"/>
     <use xlink:href="#mef58ba8d32" x="520.563107" y="391.855324" style="fill: #ff7f0e; stroke: #ff7f0e"/>
     <use xlink:href="#mef58ba8d32" x="551.07477" y="368.569402" style="fill: #ff7f0e; stroke: #ff7f0e"/>
     <use xlink:href="#mef58ba8d32" x="612.098095" y="391.970803" style="fill: #ff7f0e; stroke: #ff7f0e"/>
     <use xlink:href="#mef58ba8d32" x="642.609758" y="383.410177" style="fill: #ff7f0e; stroke: #ff7f0e"/>
     <use xlink:href="#mef58ba8d32" x="673.12142" y="355.940819" style="fill: #ff7f0e; stroke: #ff7f0e"/>
    </g>
   </g>
   <g id="line2d_23">
    <path d="M 93.39983 253.741696 
L 123.911492 131.132428 
L 154.423155 96.482045 
L 184.934818 81.256547 
L 215.44648 240.152215 
L 245.958143 77.046755 
L 276.469806 132.700907 
L 306.981468 86.931594 
L 337.493131 212.878131 
L 368.004794 259.677316 
L 398.516456 75.515958 
L 429.028119 128.781141 
L 459.539782 197.396234 
L 490.051444 112.022002 
L 520.563107 278.006773 
L 551.07477 84.085137 
L 612.098095 101.398895 
L 642.609758 202.032381 
L 673.12142 119.799375 
" clip-path="url(#peaf2681442)" style="fill: none; stroke: #2ca02c; stroke-width: 2; stroke-linecap: square"/>
    <defs>
     <path id="ma4e1b5f604" d="M 0 3 
C 0.795609 3 1.55874 2.683901 2.12132 2.12132 
C 2.683901 1.55874 3 0.795609 3 0 
C 3 -0.795609 2.683901 -1.55874 2.12132 -2.12132 
C 1.55874 -2.683901 0.795609 -3 0 -3 
C -0.795609 -3 -1.55874 -2.683901 -2.12132 -2.12132 
C -2.683901 -1.55874 -3 -0.795609 -3 0 
C -3 0.795609 -2.683901 1.55874 -2.12132 2.12132 
C -1.55874 2.683901 -0.795609 3 0 3 
z
" style="stroke: #2ca02c"/>
    </defs>
    <g clip-path="url(#peaf2681442)">
     <use xlink:href="#ma4e1b5f604" x="93.39983" y="253.741696" style="fill: #2ca02c; stroke: #2ca02c"/>
     <use xlink:href="#ma4e1b5f604" x="123.911492" y="131.132428" style="fill: #2ca02c; stroke: #2ca02c"/>
     <use xlink:href="#ma4e1b5f604" x="154.423155" y="96.482045" style="fill: #2ca02c; stroke: #2ca02c"/>
     <use xlink:href="#ma4e1b5f604" x="184.934818" y="81.256547" style="fill: #2ca02c; stroke: #2ca02c"/>
     <use xlink:href="#ma4e1b5f604" x="215.44648" y="240.152215" style="fill: #2ca02c; stroke: #2ca02c"/>
     <use xlink:href="#ma4e1b5f604" x="245.958143" y="77.046755" style="fill: #2ca02c; stroke: #2ca02c"/>
     <use xlink:href="#ma4e1b5f604" x="276.469806" y="132.700907" style="fill: #2ca02c; stroke: #2ca02c"/>
     <use xlink:href="#ma4e1b5f604" x="306.981468" y="86.931594" style="fill: #2ca02c; stroke: #2ca02c"/>
     <use xlink:href="#ma4e1b5f604" x="337.493131" y="212.878131" style="fill: #2ca02c; stroke: #2ca02c"/>
     <use xlink:href="#ma4e1b5f604" x="368.004794" y="259.677316" style="fill: #2ca02c; stroke: #2ca02c"/>
     <use xlink:href="#ma4e1b5f604" x="398.516456" y="75.515958" style="fill: #2ca02c; stroke: #2ca02c"/>
     <use xlink:href="#ma4e1b5f604" x="429.028119" y="128.781141" style="fill: #2ca02c; stroke: #2ca02c"/>
     <use xlink:href="#ma4e1b5f604" x="459.539782" y="197.396234" style="fill: #2ca02c; stroke: #2ca02c"/>
     <use xlink:href="#ma4e1b5f604" x="490.051444" y="112.022002" style="fill: #2ca02c; stroke: #2ca02c"/>
     <use xlink:href="#ma4e1b5f604" x="520.563107" y="278.006773" style="fill: #2ca02c; stroke: #2ca02c"/>
     <use xlink:href="#ma4e1b5f604" x="551.07477" y="84.085137" style="fill: #2ca02c; stroke: #2ca02c"/>
     <use xlink:href="#ma4e1b5f604" x="612.098095" y="101.398895" style="fill: #2ca02c; stroke: #2ca02c"/>
     <use xlink:href="#ma4e1b5f604" x="642.609758" y="202.032381" style="fill: #2ca02c; stroke: #2ca02c"/>
     <use xlink:href="#ma4e1b5f604" x="673.12142" y="119.799375" style="fill: #2ca02c; stroke: #2ca02c"/>
    </g>
   </g>
   <g id="line2d_24">
    <path d="M 93.39983 309.46052 
L 123.911492 294.014315 
L 154.423155 121.63556 
L 184.934818 288.422818 
L 215.44648 307.59703 
L 245.958143 296.137357 
L 276.469806 332.588837 
L 306.981468 138.456856 
L 337.493131 66.312577 
L 368.004794 283.547321 
L 398.516456 281.66026 
L 429.028119 296.901271 
L 459.539782 313.205049 
L 520.563107 344.12319 
L 551.07477 298.313978 
L 612.098095 314.901513 
L 642.609758 208.372962 
L 673.12142 117.617315 
" clip-path="url(#peaf2681442)" style="fill: none; stroke: #d62728; stroke-width: 2; stroke-linecap: square"/>
    <defs>
     <path id="m4ff7b422dd" d="M 0 3 
C 0.795609 3 1.55874 2.683901 2.12132 2.12132 
C 2.683901 1.55874 3 0.795609 3 0 
C 3 -0.795609 2.683901 -1.55874 2.12132 -2.12132 
C 1.55874 -2.683901 0.795609 -3 0 -3 
C -0.795609 -3 -1.55874 -2.683901 -2.12132 -2.12132 
C -2.683901 -1.55874 -3 -0.795609 -3 0 
C -3 0.795609 -2.683901 1.55874 -2.12132 2.12132 
C -1.55874 2.683901 -0.795609 3 0 3 
z
" style="stroke: #d62728"/>
    </defs>
    <g clip-path="url(#peaf2681442)">
     <use xlink:href="#m4ff7b422dd" x="93.39983" y="309.46052" style="fill: #d62728; stroke: #d62728"/>
     <use xlink:href="#m4ff7b422dd" x="123.911492" y="294.014315" style="fill: #d62728; stroke: #d62728"/>
     <use xlink:href="#m4ff7b422dd" x="154.423155" y="121.63556" style="fill: #d62728; stroke: #d62728"/>
     <use xlink:href="#m4ff7b422dd" x="184.934818" y="288.422818" style="fill: #d62728; stroke: #d62728"/>
     <use xlink:href="#m4ff7b422dd" x="215.44648" y="307.59703" style="fill: #d62728; stroke: #d62728"/>
     <use xlink:href="#m4ff7b422dd" x="245.958143" y="296.137357" style="fill: #d62728; stroke: #d62728"/>
     <use xlink:href="#m4ff7b422dd" x="276.469806" y="332.588837" style="fill: #d62728; stroke: #d62728"/>
     <use xlink:href="#m4ff7b422dd" x="306.981468" y="138.456856" style="fill: #d62728; stroke: #d62728"/>
     <use xlink:href="#m4ff7b422dd" x="337.493131" y="66.312577" style="fill: #d62728; stroke: #d62728"/>
     <use xlink:href="#m4ff7b422dd" x="368.004794" y="283.547321" style="fill: #d62728; stroke: #d62728"/>
     <use xlink:href="#m4ff7b422dd" x="398.516456" y="281.66026" style="fill: #d62728; stroke: #d62728"/>
     <use xlink:href="#m4ff7b422dd" x="429.028119" y="296.901271" style="fill: #d62728; stroke: #d62728"/>
     <use xlink:href="#m4ff7b422dd" x="459.539782" y="313.205049" style="fill: #d62728; stroke: #d62728"/>
     <use xlink:href="#m4ff7b422dd" x="520.563107" y="344.12319" style="fill: #d62728; stroke: #d62728"/>
     <use xlink:href="#m4ff7b422dd" x="551.07477" y="298.313978" style="fill: #d62728; stroke: #d62728"/>
     <use xlink:href="#m4ff7b422dd" x="612.098095" y="314.901513" style="fill: #d62728; stroke: #d62728"/>
     <use xlink:href="#m4ff7b422dd" x="642.609758" y="208.372962" style="fill: #d62728; stroke: #d62728"/>
     <use xlink:href="#m4ff7b422dd" x="673.12142" y="117.617315" style="fill: #d62728; stroke: #d62728"/>
    </g>
   </g>
   <g id="line2d_25">
    <path d="M 93.39983 377.497105 
L 123.911492 387.013601 
L 154.423155 366.137566 
L 184.934818 382.326041 
L 215.44648 353.014329 
L 245.958143 376.792191 
L 276.469806 393.025678 
L 306.981468 369.58168 
L 337.493131 366.519954 
L 368.004794 376.404142 
L 398.516456 352.125109 
L 429.028119 354.006725 
L 459.539782 372.147341 
L 520.563107 416.543906 
L 551.07477 365.251985 
L 612.098095 390.812516 
L 642.609758 506.332202 
L 673.12142 317.490832 
" clip-path="url(#peaf2681442)" style="fill: none; stroke: #9467bd; stroke-width: 2; stroke-linecap: square"/>
    <defs>
     <path id="m9602bb0f5d" d="M 0 3 
C 0.795609 3 1.55874 2.683901 2.12132 2.12132 
C 2.683901 1.55874 3 0.795609 3 0 
C 3 -0.795609 2.683901 -1.55874 2.12132 -2.12132 
C 1.55874 -2.683901 0.795609 -3 0 -3 
C -0.795609 -3 -1.55874 -2.683901 -2.12132 -2.12132 
C -2.683901 -1.55874 -3 -0.795609 -3 0 
C -3 0.795609 -2.683901 1.55874 -2.12132 2.12132 
C -1.55874 2.683901 -0.795609 3 0 3 
z
" style="stroke: #9467bd"/>
    </defs>
    <g clip-path="url(#peaf2681442)">
     <use xlink:href="#m9602bb0f5d" x="93.39983" y="377.497105" style="fill: #9467bd; stroke: #9467bd"/>
     <use xlink:href="#m9602bb0f5d" x="123.911492" y="387.013601" style="fill: #9467bd; stroke: #9467bd"/>
     <use xlink:href="#m9602bb0f5d" x="154.423155" y="366.137566" style="fill: #9467bd; stroke: #9467bd"/>
     <use xlink:href="#m9602bb0f5d" x="184.934818" y="382.326041" style="fill: #9467bd; stroke: #9467bd"/>
     <use xlink:href="#m9602bb0f5d" x="215.44648" y="353.014329" style="fill: #9467bd; stroke: #9467bd"/>
     <use xlink:href="#m9602bb0f5d" x="245.958143" y="376.792191" style="fill: #9467bd; stroke: #9467bd"/>
     <use xlink:href="#m9602bb0f5d" x="276.469806" y="393.025678" style="fill: #9467bd; stroke: #9467bd"/>
     <use xlink:href="#m9602bb0f5d" x="306.981468" y="369.58168" style="fill: #9467bd; stroke: #9467bd"/>
     <use xlink:href="#m9602bb0f5d" x="337.493131" y="366.519954" style="fill: #9467bd; stroke: #9467bd"/>
     <use xlink:href="#m9602bb0f5d" x="368.004794" y="376.404142" style="fill: #9467bd; stroke: #9467bd"/>
     <use xlink:href="#m9602bb0f5d" x="398.516456" y="352.125109" style="fill: #9467bd; stroke: #9467bd"/>
     <use xlink:href="#m9602bb0f5d" x="429.028119" y="354.006725" style="fill: #9467bd; stroke: #9467bd"/>
     <use xlink:href="#m9602bb0f5d" x="459.539782" y="372.147341" style="fill: #9467bd; stroke: #9467bd"/>
     <use xlink:href="#m9602bb0f5d" x="520.563107" y="416.543906" style="fill: #9467bd; stroke: #9467bd"/>
     <use xlink:href="#m9602bb0f5d" x="551.07477" y="365.251985" style="fill: #9467bd; stroke: #9467bd"/>
     <use xlink:href="#m9602bb0f5d" x="612.098095" y="390.812516" style="fill: #9467bd; stroke: #9467bd"/>
     <use xlink:href="#m9602bb0f5d" x="642.609758" y="506.332202" style="fill: #9467bd; stroke: #9467bd"/>
     <use xlink:href="#m9602bb0f5d" x="673.12142" y="317.490832" style="fill: #9467bd; stroke: #9467bd"/>
    </g>
   </g>
   <g id="line2d_26">
    <path d="M 93.39983 274.650768 
L 123.911492 96.666611 
L 154.423155 276.859481 
L 184.934818 257.482311 
L 215.44648 215.464338 
L 245.958143 266.852194 
L 276.469806 250.594453 
L 306.981468 207.420086 
L 337.493131 242.827291 
L 368.004794 80.166321 
L 398.516456 277.984423 
L 429.028119 104.891121 
L 459.539782 124.203671 
L 520.563107 267.439832 
L 551.07477 250.251968 
L 612.098095 230.273162 
L 642.609758 275.952272 
L 673.12142 73.774918 
" clip-path="url(#peaf2681442)" style="fill: none; stroke: #8c564b; stroke-width: 2; stroke-linecap: square"/>
    <defs>
     <path id="m165faad319" d="M 0 3 
C 0.795609 3 1.55874 2.683901 2.12132 2.12132 
C 2.683901 1.55874 3 0.795609 3 0 
C 3 -0.795609 2.683901 -1.55874 2.12132 -2.12132 
C 1.55874 -2.683901 0.795609 -3 0 -3 
C -0.795609 -3 -1.55874 -2.683901 -2.12132 -2.12132 
C -2.683901 -1.55874 -3 -0.795609 -3 0 
C -3 0.795609 -2.683901 1.55874 -2.12132 2.12132 
C -1.55874 2.683901 -0.795609 3 0 3 
z
" style="stroke: #8c564b"/>
    </defs>
    <g clip-path="url(#peaf2681442)">
     <use xlink:href="#m165faad319" x="93.39983" y="274.650768" style="fill: #8c564b; stroke: #8c564b"/>
     <use xlink:href="#m165faad319" x="123.911492" y="96.666611" style="fill: #8c564b; stroke: #8c564b"/>
     <use xlink:href="#m165faad319" x="154.423155" y="276.859481" style="fill: #8c564b; stroke: #8c564b"/>
     <use xlink:href="#m165faad319" x="184.934818" y="257.482311" style="fill: #8c564b; stroke: #8c564b"/>
     <use xlink:href="#m165faad319" x="215.44648" y="215.464338" style="fill: #8c564b; stroke: #8c564b"/>
     <use xlink:href="#m165faad319" x="245.958143" y="266.852194" style="fill: #8c564b; stroke: #8c564b"/>
     <use xlink:href="#m165faad319" x="276.469806" y="250.594453" style="fill: #8c564b; stroke: #8c564b"/>
     <use xlink:href="#m165faad319" x="306.981468" y="207.420086" style="fill: #8c564b; stroke: #8c564b"/>
     <use xlink:href="#m165faad319" x="337.493131" y="242.827291" style="fill: #8c564b; stroke: #8c564b"/>
     <use xlink:href="#m165faad319" x="368.004794" y="80.166321" style="fill: #8c564b; stroke: #8c564b"/>
     <use xlink:href="#m165faad319" x="398.516456" y="277.984423" style="fill: #8c564b; stroke: #8c564b"/>
     <use xlink:href="#m165faad319" x="429.028119" y="104.891121" style="fill: #8c564b; stroke: #8c564b"/>
     <use xlink:href="#m165faad319" x="459.539782" y="124.203671" style="fill: #8c564b; stroke: #8c564b"/>
     <use xlink:href="#m165faad319" x="520.563107" y="267.439832" style="fill: #8c564b; stroke: #8c564b"/>
     <use xlink:href="#m165faad319" x="551.07477" y="250.251968" style="fill: #8c564b; stroke: #8c564b"/>
     <use xlink:href="#m165faad319" x="612.098095" y="230.273162" style="fill: #8c564b; stroke: #8c564b"/>
     <use xlink:href="#m165faad319" x="642.609758" y="275.952272" style="fill: #8c564b; stroke: #8c564b"/>
     <use xlink:href="#m165faad319" x="673.12142" y="73.774918" style="fill: #8c564b; stroke: #8c564b"/>
    </g>
   </g>
   <g id="patch_3">
    <path d="M 64.41375 529.308125 
L 64.41375 23.837812 
" style="fill: none; stroke: #000000; stroke-width: 0.8; stroke-linejoin: miter; stroke-linecap: square"/>
   </g>
   <g id="patch_4">
    <path d="M 702.1075 529.308125 
L 702.1075 23.837812 
" style="fill: none; stroke: #000000; stroke-width: 0.8; stroke-linejoin: miter; stroke-linecap: square"/>
   </g>
   <g id="patch_5">
    <path d="M 64.41375 529.308125 
L 702.1075 529.308125 
" style="fill: none; stroke: #000000; stroke-width: 0.8; stroke-linejoin: miter; stroke-linecap: square"/>
   </g>
   <g id="patch_6">
    <path d="M 64.41375 23.837812 
L 702.1075 23.837812 
" style="fill: none; stroke: #000000; stroke-width: 0.8; stroke-linejoin: miter; stroke-linecap: square"/>
   </g>
   <g id="text_13">
    <text style="font: 700 14px 'DejaVu Sans', 'Bitstream Vera Sans', 'Computer Modern Sans Serif', 'Lucida Grande', 'Verdana', 'Geneva', 'Lucid', 'Arial', 'Helvetica', 'Avant Garde', sans-serif; text-anchor: middle" x="383.260625" y="17.837813" transform="rotate(-0 383.260625 17.837813)">Tasksubmission - Performance Trend</text>
   </g>
   <g id="legend_1">
    <g id="patch_7">
     <path d="M 740.992188 119.906563 
L 846.004688 119.906563 
Q 848.004688 119.906563 848.004688 117.906563 
L 848.004688 30.837813 
Q 848.004688 28.837813 846.004688 28.837813 
L 740.992188 28.837813 
Q 738.992188 28.837813 738.992188 30.837813 
L 738.992188 117.906563 
Q 738.992188 119.906563 740.992188 119.906563 
z
" style="fill: #ffffff; opacity: 0.8; stroke: #cccccc; stroke-linejoin: miter"/>
    </g>
    <g id="line2d_27">
     <path d="M 742.992188 36.93625 
L 752.992188 36.93625 
L 762.992188 36.93625 
" style="fill: none; stroke: #1f77b4; stroke-width: 2; stroke-linecap: square"/>
     <g>
      <use xlink:href="#mdd34db6584" x="752.992188" y="36.93625" style="fill: #1f77b4; stroke: #1f77b4"/>
     </g>
    </g>
    <g id="text_14">
     <text style="font: 10px 'DejaVu Sans', 'Bitstream Vera Sans', 'Computer Modern Sans Serif', 'Lucida Grande', 'Verdana', 'Geneva', 'Lucid', 'Arial', 'Helvetica', 'Avant Garde', sans-serif; text-anchor: start" x="770.992188" y="40.43625" transform="rotate(-0 770.992188 40.43625)">gcc-14.2 - V1</text>
    </g>
    <g id="line2d_28">
     <path d="M 742.992188 51.614375 
L 752.992188 51.614375 
L 762.992188 51.614375 
" style="fill: none; stroke: #ff7f0e; stroke-width: 2; stroke-linecap: square"/>
     <g>
      <use xlink:href="#mef58ba8d32" x="752.992188" y="51.614375" style="fill: #ff7f0e; stroke: #ff7f0e"/>
     </g>
    </g>
    <g id="text_15">
     <text style="font: 10px 'DejaVu Sans', 'Bitstream Vera Sans', 'Computer Modern Sans Serif', 'Lucida Grande', 'Verdana', 'Geneva', 'Lucid', 'Arial', 'Helvetica', 'Avant Garde', sans-serif; text-anchor: start" x="770.992188" y="55.114375" transform="rotate(-0 770.992188 55.114375)">gcc-14.2 - V2</text>
    </g>
    <g id="line2d_29">
     <path d="M 742.992188 66.2925 
L 752.992188 66.2925 
L 762.992188 66.2925 
" style="fill: none; stroke: #2ca02c; stroke-width: 2; stroke-linecap: square"/>
     <g>
      <use xlink:href="#ma4e1b5f604" x="752.992188" y="66.2925" style="fill: #2ca02c; stroke: #2ca02c"/>
     </g>
    </g>
    <g id="text_16">
     <text style="font: 10px 'DejaVu Sans', 'Bitstream Vera Sans', 'Computer Modern Sans Serif', 'Lucida Grande', 'Verdana', 'Geneva', 'Lucid', 'Arial', 'Helvetica', 'Avant Garde', sans-serif; text-anchor: start" x="770.992188" y="69.7925" transform="rotate(-0 770.992188 69.7925)">gcc-14.2 - TBB</text>
    </g>
    <g id="line2d_30">
     <path d="M 742.992188 80.970625 
L 752.992188 80.970625 
L 762.992188 80.970625 
" style="fill: none; stroke: #d62728; stroke-width: 2; stroke-linecap: square"/>
     <g>
      <use xlink:href="#m4ff7b422dd" x="752.992188" y="80.970625" style="fill: #d62728; stroke: #d62728"/>
     </g>
    </g>
    <g id="text_17">
     <text style="font: 10px 'DejaVu Sans', 'Bitstream Vera Sans', 'Computer Modern Sans Serif', 'Lucida Grande', 'Verdana', 'Geneva', 'Lucid', 'Arial', 'Helvetica', 'Avant Garde', sans-serif; text-anchor: start" x="770.992188" y="84.470625" transform="rotate(-0 770.992188 84.470625)">gcc-4.2 - V1</text>
    </g>
    <g id="line2d_31">
     <path d="M 742.992188 95.64875 
L 752.992188 95.64875 
L 762.992188 95.64875 
" style="fill: none; stroke: #9467bd; stroke-width: 2; stroke-linecap: square"/>
     <g>
      <use xlink:href="#m9602bb0f5d" x="752.992188" y="95.64875" style="fill: #9467bd; stroke: #9467bd"/>
     </g>
    </g>
    <g id="text_18">
     <text style="font: 10px 'DejaVu Sans', 'Bitstream Vera Sans', 'Computer Modern Sans Serif', 'Lucida Grande', 'Verdana', 'Geneva', 'Lucid', 'Arial', 'Helvetica', 'Avant Garde', sans-serif; text-anchor: start" x="770.992188" y="99.14875" transform="rotate(-0 770.992188 99.14875)">gcc-4.2 - V2</text>
    </g>
    <g id="line2d_32">
     <path d="M 742.992188 110.326875 
L 752.992188 110.326875 
L 762.992188 110.326875 
" style="fill: none; stroke: #8c564b; stroke-width: 2; stroke-linecap: square"/>
     <g>
      <use xlink:href="#m165faad319" x="752.992188" y="110.326875" style="fill: #8c564b; stroke: #8c564b"/>
     </g>
    </g>
    <g id="text_19">
     <text style="font: 10px 'DejaVu Sans', 'Bitstream Vera Sans', 'Computer Modern Sans Serif', 'Lucida Grande', 'Verdana', 'Geneva', 'Lucid', 'Arial', 'Helvetica', 'Avant Garde', sans-serif; text-anchor: start" x="770.992188" y="113.826875" transform="rotate(-0 770.992188 113.826875)">gcc-4.2 - TBB</text>
    </g>
   </g>
  </g>
 </g>
 <defs>
  <clipPath id="peaf2681442">
   <rect x="64.41375" y="23.837813" width="637.69375" height="505.470313"/>
  </clipPath>
 </defs>
</svg>
