<?xml version="1.0" encoding="utf-8" standalone="no"?>
<!DOCTYPE svg PUBLIC "-//W3C//DTD SVG 1.1//EN"
  "http://www.w3.org/Graphics/SVG/1.1/DTD/svg11.dtd">
<svg xmlns:xlink="http://www.w3.org/1999/xlink" width="856.684141pt" height="568.8pt" viewBox="0 0 856.684141 568.8" xmlns="http://www.w3.org/2000/svg" version="1.1">
 <metadata>
  <rdf:RDF xmlns:dc="http://purl.org/dc/elements/1.1/" xmlns:cc="http://creativecommons.org/ns#" xmlns:rdf="http://www.w3.org/1999/02/22-rdf-syntax-ns#">
   <cc:Work>
    <dc:type rdf:resource="http://purl.org/dc/dcmitype/StillImage"/>
    <dc:date>2025-08-30T02:09:43.911865</dc:date>
    <dc:format>image/svg+xml</dc:format>
    <dc:creator>
     <cc:Agent>
      <dc:title>Matplotlib v3.9.4, https://matplotlib.org/</dc:title>
     </cc:Agent>
    </dc:creator>
   </cc:Work>
  </rdf:RDF>
 </metadata>
 <defs>
  <style type="text/css">*{stroke-linejoin: round; stroke-linecap: butt}</style>
 </defs>
 <g id="figure_1">
  <g id="patch_1">
   <path d="M 0 568.8 
L 856.684141 568.8 
L 856.684141 0 
L 0 0 
z
" style="fill: #ffffff"/>
  </g>
  <g id="axes_1">
   <g id="patch_2">
    <path d="M 64.41375 529.308125 
L 731.696562 529.308125 
L 731.696562 23.837812 
L 64.41375 23.837812 
z
" style="fill: #ffffff"/>
   </g>
   <g id="matplotlib.axis_1">
    <g id="xtick_1">
     <g id="line2d_1">
      <path d="M 79.190409 529.308125 
L 79.190409 23.837812 
" clip-path="url(#p9088db8aea)" style="fill: none; stroke: #b0b0b0; stroke-opacity: 0.3; stroke-width: 0.8; stroke-linecap: square"/>
     </g>
     <g id="line2d_2">
      <defs>
       <path id="m9ec0fa8035" d="M 0 0 
L 0 3.5 
" style="stroke: #000000; stroke-width: 0.8"/>
      </defs>
      <g>
       <use xlink:href="#m9ec0fa8035" x="79.190409" y="529.308125" style="stroke: #000000; stroke-width: 0.8"/>
      </g>
     </g>
     <g id="text_1">
      <text style="font: 10px 'DejaVu Sans', 'Bitstream Vera Sans', 'Computer Modern Sans Serif', 'Lucida Grande', 'Verdana', 'Geneva', 'Lucid', 'Arial', 'Helvetica', 'Avant Garde', sans-serif; text-anchor: middle" x="79.190409" y="543.906563" transform="rotate(-0 79.190409 543.906563)">70</text>
     </g>
    </g>
    <g id="xtick_2">
     <g id="line2d_3">
      <path d="M 156.962299 529.308125 
L 156.962299 23.837812 
" clip-path="url(#p9088db8aea)" style="fill: none; stroke: #b0b0b0; stroke-opacity: 0.3; stroke-width: 0.8; stroke-linecap: square"/>
     </g>
     <g id="line2d_4">
      <g>
       <use xlink:href="#m9ec0fa8035" x="156.962299" y="529.308125" style="stroke: #000000; stroke-width: 0.8"/>
      </g>
     </g>
     <g id="text_2">
      <text style="font: 10px 'DejaVu Sans', 'Bitstream Vera Sans', 'Computer Modern Sans Serif', 'Lucida Grande', 'Verdana', 'Geneva', 'Lucid', 'Arial', 'Helvetica', 'Avant Garde', sans-serif; text-anchor: middle" x="156.962299" y="543.906563" transform="rotate(-0 156.962299 543.906563)">75</text>
     </g>
    </g>
    <g id="xtick_3">
     <g id="line2d_5">
      <path d="M 234.734188 529.308125 
L 234.734188 23.837812 
" clip-path="url(#p9088db8aea)" style="fill: none; stroke: #b0b0b0; stroke-opacity: 0.3; stroke-width: 0.8; stroke-linecap: square"/>
     </g>
     <g id="line2d_6">
      <g>
       <use xlink:href="#m9ec0fa8035" x="234.734188" y="529.308125" style="stroke: #000000; stroke-width: 0.8"/>
      </g>
     </g>
     <g id="text_3">
      <text style="font: 10px 'DejaVu Sans', 'Bitstream Vera Sans', 'Computer Modern Sans Serif', 'Lucida Grande', 'Verdana', 'Geneva', 'Lucid', 'Arial', 'Helvetica', 'Avant Garde', sans-serif; text-anchor: middle" x="234.734188" y="543.906563" transform="rotate(-0 234.734188 543.906563)">80</text>
     </g>
    </g>
    <g id="xtick_4">
     <g id="line2d_7">
      <path d="M 312.506078 529.308125 
L 312.506078 23.837812 
" clip-path="url(#p9088db8aea)" style="fill: none; stroke: #b0b0b0; stroke-opacity: 0.3; stroke-width: 0.8; stroke-linecap: square"/>
     </g>
     <g id="line2d_8">
      <g>
       <use xlink:href="#m9ec0fa8035" x="312.506078" y="529.308125" style="stroke: #000000; stroke-width: 0.8"/>
      </g>
     </g>
     <g id="text_4">
      <text style="font: 10px 'DejaVu Sans', 'Bitstream Vera Sans', 'Computer Modern Sans Serif', 'Lucida Grande', 'Verdana', 'Geneva', 'Lucid', 'Arial', 'Helvetica', 'Avant Garde', sans-serif; text-anchor: middle" x="312.506078" y="543.906563" transform="rotate(-0 312.506078 543.906563)">85</text>
     </g>
    </g>
    <g id="xtick_5">
     <g id="line2d_9">
      <path d="M 390.277967 529.308125 
L 390.277967 23.837812 
" clip-path="url(#p9088db8aea)" style="fill: none; stroke: #b0b0b0; stroke-opacity: 0.3; stroke-width: 0.8; stroke-linecap: square"/>
     </g>
     <g id="line2d_10">
      <g>
       <use xlink:href="#m9ec0fa8035" x="390.277967" y="529.308125" style="stroke: #000000; stroke-width: 0.8"/>
      </g>
     </g>
     <g id="text_5">
      <text style="font: 10px 'DejaVu Sans', 'Bitstream Vera Sans', 'Computer Modern Sans Serif', 'Lucida Grande', 'Verdana', 'Geneva', 'Lucid', 'Arial', 'Helvetica', 'Avant Garde', sans-serif; text-anchor: middle" x="390.277967" y="543.906563" transform="rotate(-0 390.277967 543.906563)">90</text>
     </g>
    </g>
    <g id="xtick_6">
     <g id="line2d_11">
      <path d="M 468.049857 529.308125 
L 468.049857 23.837812 
" clip-path="url(#p9088db8aea)" style="fill: none; stroke: #b0b0b0; stroke-opacity: 0.3; stroke-width: 0.8; stroke-linecap: square"/>
     </g>
     <g id="line2d_12">
      <g>
       <use xlink:href="#m9ec0fa8035" x="468.049857" y="529.308125" style="stroke: #000000; stroke-width: 0.8"/>
      </g>
     </g>
     <g id="text_6">
      <text style="font: 10px 'DejaVu Sans', 'Bitstream Vera Sans', 'Computer Modern Sans Serif', 'Lucida Grande', 'Verdana', 'Geneva', 'Lucid', 'Arial', 'Helvetica', 'Avant Garde', sans-serif; text-anchor: middle" x="468.049857" y="543.906563" transform="rotate(-0 468.049857 543.906563)">95</text>
     </g>
    </g>
    <g id="xtick_7">
     <g id="line2d_13">
      <path d="M 545.821746 529.308125 
L 545.821746 23.837812 
" clip-path="url(#p9088db8aea)" style="fill: none; stroke: #b0b0b0; stroke-opacity: 0.3; stroke-width: 0.8; stroke-linecap: square"/>
     </g>
     <g id="line2d_14">
      <g>
       <use xlink:href="#m9ec0fa8035" x="545.821746" y="529.308125" style="stroke: #000000; stroke-width: 0.8"/>
      </g>
     </g>
     <g id="text_7">
      <text style="font: 10px 'DejaVu Sans', 'Bitstream Vera Sans', 'Computer Modern Sans Serif', 'Lucida Grande', 'Verdana', 'Geneva', 'Lucid', 'Arial', 'Helvetica', 'Avant Garde', sans-serif; text-anchor: middle" x="545.821746" y="543.906563" transform="rotate(-0 545.821746 543.906563)">100</text>
     </g>
    </g>
    <g id="xtick_8">
     <g id="line2d_15">
      <path d="M 623.593636 529.308125 
L 623.593636 23.837812 
" clip-path="url(#p9088db8aea)" style="fill: none; stroke: #b0b0b0; stroke-opacity: 0.3; stroke-width: 0.8; stroke-linecap: square"/>
     </g>
     <g id="line2d_16">
      <g>
       <use xlink:href="#m9ec0fa8035" x="623.593636" y="529.308125" style="stroke: #000000; stroke-width: 0.8"/>
      </g>
     </g>
     <g id="text_8">
      <text style="font: 10px 'DejaVu Sans', 'Bitstream Vera Sans', 'Computer Modern Sans Serif', 'Lucida Grande', 'Verdana', 'Geneva', 'Lucid', 'Arial', 'Helvetica', 'Avant Garde', sans-serif; text-anchor: middle" x="623.593636" y="543.906563" transform="rotate(-0 623.593636 543.906563)">105</text>
     </g>
    </g>
    <g id="xtick_9">
     <g id="line2d_17">
      <path d="M 701.365526 529.308125 
L 701.365526 23.837812 
" clip-path="url(#p9088db8aea)" style="fill: none; stroke: #b0b0b0; stroke-opacity: 0.3; stroke-width: 0.8; stroke-linecap: square"/>
     </g>
     <g id="line2d_18">
      <g>
       <use xlink:href="#m9ec0fa8035" x="701.365526" y="529.308125" style="stroke: #000000; stroke-width: 0.8"/>
      </g>
     </g>
     <g id="text_9">
      <text style="font: 10px 'DejaVu Sans', 'Bitstream Vera Sans', 'Computer Modern Sans Serif', 'Lucida Grande', 'Verdana', 'Geneva', 'Lucid', 'Arial', 'Helvetica', 'Avant Garde', sans-serif; text-anchor: middle" x="701.365526" y="543.906563" transform="rotate(-0 701.365526 543.906563)">110</text>
     </g>
    </g>
    <g id="text_10">
     <text style="font: 12px 'DejaVu Sans', 'Bitstream Vera Sans', 'Computer Modern Sans Serif', 'Lucida Grande', 'Verdana', 'Geneva', 'Lucid', 'Arial', 'Helvetica', 'Avant Garde', sans-serif; text-anchor: middle" x="398.055156" y="559.104375" transform="rotate(-0 398.055156 559.104375)">Build Number</text>
    </g>
   </g>
   <g id="matplotlib.axis_2">
    <g id="ytick_1">
     <g id="line2d_19">
      <defs>
       <path id="mceab6a1e6e" d="M 0 0 
L -2 0 
" style="stroke: #000000; stroke-width: 0.6"/>
      </defs>
      <g>
       <use xlink:href="#mceab6a1e6e" x="64.41375" y="480.418415" style="stroke: #000000; stroke-width: 0.6"/>
      </g>
     </g>
     <g id="text_11">
      <!-- $\mathdefault{4\times10^{0}}$ -->
      <g transform="translate(22.81375 484.217634)">
       <text>
        <tspan style="font: 10px 'DejaVu Sans'" x="0 8.310547 18.637695 25" y="-0.9765625">4×10</tspan>
        <tspan style="font: 7px 'DejaVu Sans'" x="31.458008" y="-4.8046875">0</tspan>
       </text>
      </g>
     </g>
    </g>
    <g id="ytick_2">
     <g id="line2d_20">
      <g>
       <use xlink:href="#mceab6a1e6e" x="64.41375" y="252.022085" style="stroke: #000000; stroke-width: 0.6"/>
      </g>
     </g>
     <g id="text_12">
      <!-- $\mathdefault{5\times10^{0}}$ -->
      <g transform="translate(22.81375 255.821304)">
       <text>
        <tspan style="font: 10px 'DejaVu Sans'" x="0 8.310547 18.637695 25" y="-0.9765625">5×10</tspan>
        <tspan style="font: 7px 'DejaVu Sans'" x="31.458008" y="-4.8046875">0</tspan>
       </text>
      </g>
     </g>
    </g>
    <g id="ytick_3">
     <g id="line2d_21">
      <g>
       <use xlink:href="#mceab6a1e6e" x="64.41375" y="65.408696" style="stroke: #000000; stroke-width: 0.6"/>
      </g>
     </g>
     <g id="text_13">
      <!-- $\mathdefault{6\times10^{0}}$ -->
      <g transform="translate(22.81375 69.207915)">
       <text>
        <tspan style="font: 10px 'DejaVu Sans'" x="0 8.310547 18.637695 25" y="-0.9765625">6×10</tspan>
        <tspan style="font: 7px 'DejaVu Sans'" x="31.458008" y="-4.8046875">0</tspan>
       </text>
      </g>
     </g>
    </g>
    <g id="text_14">
     <text style="font: 12px 'DejaVu Sans', 'Bitstream Vera Sans', 'Computer Modern Sans Serif', 'Lucida Grande', 'Verdana', 'Geneva', 'Lucid', 'Arial', 'Helvetica', 'Avant Garde', sans-serif; text-anchor: middle" x="16.318125" y="276.572969" transform="rotate(-90 16.318125 276.572969)">Median Elapsed Time (nanoseconds)</text>
    </g>
   </g>
   <g id="line2d_22">
    <path d="M 94.744787 428.045632 
L 110.299165 428.045632 
L 125.853543 428.045632 
L 141.407921 428.045632 
L 156.962299 428.045632 
L 172.516677 428.045632 
L 188.071054 428.045632 
L 203.625432 428.045632 
L 219.17981 428.045632 
L 234.734188 428.045632 
L 250.288566 428.045632 
L 265.842944 430.479735 
L 281.397322 428.045632 
L 312.506078 430.479735 
L 328.060456 430.479735 
L 359.169211 428.045632 
L 374.723589 428.045632 
L 390.277967 428.045632 
L 405.832345 452.651141 
L 421.386723 428.045632 
L 452.495479 428.045632 
L 468.049857 428.045632 
L 483.604235 428.045632 
L 499.158613 428.045632 
L 530.267369 430.479735 
L 545.821746 430.479735 
L 561.376124 428.045632 
L 576.930502 430.479735 
L 592.48488 430.479735 
L 608.039258 428.045632 
L 623.593636 430.479735 
L 639.148014 430.479735 
L 670.25677 503.711099 
L 685.811148 503.711099 
L 701.365526 506.332202 
" clip-path="url(#p9088db8aea)" style="fill: none; stroke: #1f77b4; stroke-width: 2; stroke-linecap: square"/>
    <defs>
     <path id="m17419519fd" d="M 0 3 
C 0.795609 3 1.55874 2.683901 2.12132 2.12132 
C 2.683901 1.55874 3 0.795609 3 0 
C 3 -0.795609 2.683901 -1.55874 2.12132 -2.12132 
C 1.55874 -2.683901 0.795609 -3 0 -3 
C -0.795609 -3 -1.55874 -2.683901 -2.12132 -2.12132 
C -2.683901 -1.55874 -3 -0.795609 -3 0 
C -3 0.795609 -2.683901 1.55874 -2.12132 2.12132 
C -1.55874 2.683901 -0.795609 3 0 3 
z
" style="stroke: #1f77b4"/>
    </defs>
    <g clip-path="url(#p9088db8aea)">
     <use xlink:href="#m17419519fd" x="94.744787" y="428.045632" style="fill: #1f77b4; stroke: #1f77b4"/>
     <use xlink:href="#m17419519fd" x="110.299165" y="428.045632" style="fill: #1f77b4; stroke: #1f77b4"/>
     <use xlink:href="#m17419519fd" x="125.853543" y="428.045632" style="fill: #1f77b4; stroke: #1f77b4"/>
     <use xlink:href="#m17419519fd" x="141.407921" y="428.045632" style="fill: #1f77b4; stroke: #1f77b4"/>
     <use xlink:href="#m17419519fd" x="156.962299" y="428.045632" style="fill: #1f77b4; stroke: #1f77b4"/>
     <use xlink:href="#m17419519fd" x="172.516677" y="428.045632" style="fill: #1f77b4; stroke: #1f77b4"/>
     <use xlink:href="#m17419519fd" x="188.071054" y="428.045632" style="fill: #1f77b4; stroke: #1f77b4"/>
     <use xlink:href="#m17419519fd" x="203.625432" y="428.045632" style="fill: #1f77b4; stroke: #1f77b4"/>
     <use xlink:href="#m17419519fd" x="219.17981" y="428.045632" style="fill: #1f77b4; stroke: #1f77b4"/>
     <use xlink:href="#m17419519fd" x="234.734188" y="428.045632" style="fill: #1f77b4; stroke: #1f77b4"/>
     <use xlink:href="#m17419519fd" x="250.288566" y="428.045632" style="fill: #1f77b4; stroke: #1f77b4"/>
     <use xlink:href="#m17419519fd" x="265.842944" y="430.479735" style="fill: #1f77b4; stroke: #1f77b4"/>
     <use xlink:href="#m17419519fd" x="281.397322" y="428.045632" style="fill: #1f77b4; stroke: #1f77b4"/>
     <use xlink:href="#m17419519fd" x="312.506078" y="430.479735" style="fill: #1f77b4; stroke: #1f77b4"/>
     <use xlink:href="#m17419519fd" x="328.060456" y="430.479735" style="fill: #1f77b4; stroke: #1f77b4"/>
     <use xlink:href="#m17419519fd" x="359.169211" y="428.045632" style="fill: #1f77b4; stroke: #1f77b4"/>
     <use xlink:href="#m17419519fd" x="374.723589" y="428.045632" style="fill: #1f77b4; stroke: #1f77b4"/>
     <use xlink:href="#m17419519fd" x="390.277967" y="428.045632" style="fill: #1f77b4; stroke: #1f77b4"/>
     <use xlink:href="#m17419519fd" x="405.832345" y="452.651141" style="fill: #1f77b4; stroke: #1f77b4"/>
     <use xlink:href="#m17419519fd" x="421.386723" y="428.045632" style="fill: #1f77b4; stroke: #1f77b4"/>
     <use xlink:href="#m17419519fd" x="452.495479" y="428.045632" style="fill: #1f77b4; stroke: #1f77b4"/>
     <use xlink:href="#m17419519fd" x="468.049857" y="428.045632" style="fill: #1f77b4; stroke: #1f77b4"/>
     <use xlink:href="#m17419519fd" x="483.604235" y="428.045632" style="fill: #1f77b4; stroke: #1f77b4"/>
     <use xlink:href="#m17419519fd" x="499.158613" y="428.045632" style="fill: #1f77b4; stroke: #1f77b4"/>
     <use xlink:href="#m17419519fd" x="530.267369" y="430.479735" style="fill: #1f77b4; stroke: #1f77b4"/>
     <use xlink:href="#m17419519fd" x="545.821746" y="430.479735" style="fill: #1f77b4; stroke: #1f77b4"/>
     <use xlink:href="#m17419519fd" x="561.376124" y="428.045632" style="fill: #1f77b4; stroke: #1f77b4"/>
     <use xlink:href="#m17419519fd" x="576.930502" y="430.479735" style="fill: #1f77b4; stroke: #1f77b4"/>
     <use xlink:href="#m17419519fd" x="592.48488" y="430.479735" style="fill: #1f77b4; stroke: #1f77b4"/>
     <use xlink:href="#m17419519fd" x="608.039258" y="428.045632" style="fill: #1f77b4; stroke: #1f77b4"/>
     <use xlink:href="#m17419519fd" x="623.593636" y="430.479735" style="fill: #1f77b4; stroke: #1f77b4"/>
     <use xlink:href="#m17419519fd" x="639.148014" y="430.479735" style="fill: #1f77b4; stroke: #1f77b4"/>
     <use xlink:href="#m17419519fd" x="670.25677" y="503.711099" style="fill: #1f77b4; stroke: #1f77b4"/>
     <use xlink:href="#m17419519fd" x="685.811148" y="503.711099" style="fill: #1f77b4; stroke: #1f77b4"/>
     <use xlink:href="#m17419519fd" x="701.365526" y="506.332202" style="fill: #1f77b4; stroke: #1f77b4"/>
    </g>
   </g>
   <g id="line2d_23">
    <path d="M 94.744787 503.711099 
L 110.299165 404.01777 
L 125.853543 406.395332 
L 141.407921 428.045632 
L 156.962299 406.395332 
L 172.516677 428.045632 
L 188.071054 428.045632 
L 203.625432 406.395332 
L 219.17981 428.045632 
L 234.734188 404.01777 
L 250.288566 428.045632 
L 265.842944 406.395332 
L 281.397322 404.01777 
L 296.9517 404.01777 
L 312.506078 428.045632 
L 328.060456 406.395332 
L 359.169211 406.395332 
L 374.723589 406.395332 
L 390.277967 428.045632 
L 405.832345 404.01777 
L 421.386723 406.395332 
L 436.941101 406.395332 
L 452.495479 406.395332 
L 468.049857 404.01777 
L 483.604235 406.395332 
L 499.158613 46.813736 
L 530.267369 428.045632 
L 545.821746 428.045632 
L 561.376124 406.395332 
L 576.930502 404.01777 
L 592.48488 404.01777 
L 608.039258 404.01777 
L 623.593636 406.395332 
L 639.148014 404.01777 
L 670.25677 404.01777 
L 685.811148 428.045632 
L 701.365526 406.395332 
" clip-path="url(#p9088db8aea)" style="fill: none; stroke: #ff7f0e; stroke-width: 2; stroke-linecap: square"/>
    <defs>
     <path id="m400ee5cdd0" d="M 0 3 
C 0.795609 3 1.55874 2.683901 2.12132 2.12132 
C 2.683901 1.55874 3 0.795609 3 0 
C 3 -0.795609 2.683901 -1.55874 2.12132 -2.12132 
C 1.55874 -2.683901 0.795609 -3 0 -3 
C -0.795609 -3 -1.55874 -2.683901 -2.12132 -2.12132 
C -2.683901 -1.55874 -3 -0.795609 -3 0 
C -3 0.795609 -2.683901 1.55874 -2.12132 2.12132 
C -1.55874 2.683901 -0.795609 3 0 3 
z
" style="stroke: #ff7f0e"/>
    </defs>
    <g clip-path="url(#p9088db8aea)">
     <use xlink:href="#m400ee5cdd0" x="94.744787" y="503.711099" style="fill: #ff7f0e; stroke: #ff7f0e"/>
     <use xlink:href="#m400ee5cdd0" x="110.299165" y="404.01777" style="fill: #ff7f0e; stroke: #ff7f0e"/>
     <use xlink:href="#m400ee5cdd0" x="125.853543" y="406.395332" style="fill: #ff7f0e; stroke: #ff7f0e"/>
     <use xlink:href="#m400ee5cdd0" x="141.407921" y="428.045632" style="fill: #ff7f0e; stroke: #ff7f0e"/>
     <use xlink:href="#m400ee5cdd0" x="156.962299" y="406.395332" style="fill: #ff7f0e; stroke: #ff7f0e"/>
     <use xlink:href="#m400ee5cdd0" x="172.516677" y="428.045632" style="fill: #ff7f0e; stroke: #ff7f0e"/>
     <use xlink:href="#m400ee5cdd0" x="188.071054" y="428.045632" style="fill: #ff7f0e; stroke: #ff7f0e"/>
     <use xlink:href="#m400ee5cdd0" x="203.625432" y="406.395332" style="fill: #ff7f0e; stroke: #ff7f0e"/>
     <use xlink:href="#m400ee5cdd0" x="219.17981" y="428.045632" style="fill: #ff7f0e; stroke: #ff7f0e"/>
     <use xlink:href="#m400ee5cdd0" x="234.734188" y="404.01777" style="fill: #ff7f0e; stroke: #ff7f0e"/>
     <use xlink:href="#m400ee5cdd0" x="250.288566" y="428.045632" style="fill: #ff7f0e; stroke: #ff7f0e"/>
     <use xlink:href="#m400ee5cdd0" x="265.842944" y="406.395332" style="fill: #ff7f0e; stroke: #ff7f0e"/>
     <use xlink:href="#m400ee5cdd0" x="281.397322" y="404.01777" style="fill: #ff7f0e; stroke: #ff7f0e"/>
     <use xlink:href="#m400ee5cdd0" x="296.9517" y="404.01777" style="fill: #ff7f0e; stroke: #ff7f0e"/>
     <use xlink:href="#m400ee5cdd0" x="312.506078" y="428.045632" style="fill: #ff7f0e; stroke: #ff7f0e"/>
     <use xlink:href="#m400ee5cdd0" x="328.060456" y="406.395332" style="fill: #ff7f0e; stroke: #ff7f0e"/>
     <use xlink:href="#m400ee5cdd0" x="359.169211" y="406.395332" style="fill: #ff7f0e; stroke: #ff7f0e"/>
     <use xlink:href="#m400ee5cdd0" x="374.723589" y="406.395332" style="fill: #ff7f0e; stroke: #ff7f0e"/>
     <use xlink:href="#m400ee5cdd0" x="390.277967" y="428.045632" style="fill: #ff7f0e; stroke: #ff7f0e"/>
     <use xlink:href="#m400ee5cdd0" x="405.832345" y="404.01777" style="fill: #ff7f0e; stroke: #ff7f0e"/>
     <use xlink:href="#m400ee5cdd0" x="421.386723" y="406.395332" style="fill: #ff7f0e; stroke: #ff7f0e"/>
     <use xlink:href="#m400ee5cdd0" x="436.941101" y="406.395332" style="fill: #ff7f0e; stroke: #ff7f0e"/>
     <use xlink:href="#m400ee5cdd0" x="452.495479" y="406.395332" style="fill: #ff7f0e; stroke: #ff7f0e"/>
     <use xlink:href="#m400ee5cdd0" x="468.049857" y="404.01777" style="fill: #ff7f0e; stroke: #ff7f0e"/>
     <use xlink:href="#m400ee5cdd0" x="483.604235" y="406.395332" style="fill: #ff7f0e; stroke: #ff7f0e"/>
     <use xlink:href="#m400ee5cdd0" x="499.158613" y="46.813736" style="fill: #ff7f0e; stroke: #ff7f0e"/>
     <use xlink:href="#m400ee5cdd0" x="530.267369" y="428.045632" style="fill: #ff7f0e; stroke: #ff7f0e"/>
     <use xlink:href="#m400ee5cdd0" x="545.821746" y="428.045632" style="fill: #ff7f0e; stroke: #ff7f0e"/>
     <use xlink:href="#m400ee5cdd0" x="561.376124" y="406.395332" style="fill: #ff7f0e; stroke: #ff7f0e"/>
     <use xlink:href="#m400ee5cdd0" x="576.930502" y="404.01777" style="fill: #ff7f0e; stroke: #ff7f0e"/>
     <use xlink:href="#m400ee5cdd0" x="592.48488" y="404.01777" style="fill: #ff7f0e; stroke: #ff7f0e"/>
     <use xlink:href="#m400ee5cdd0" x="608.039258" y="404.01777" style="fill: #ff7f0e; stroke: #ff7f0e"/>
     <use xlink:href="#m400ee5cdd0" x="623.593636" y="406.395332" style="fill: #ff7f0e; stroke: #ff7f0e"/>
     <use xlink:href="#m400ee5cdd0" x="639.148014" y="404.01777" style="fill: #ff7f0e; stroke: #ff7f0e"/>
     <use xlink:href="#m400ee5cdd0" x="670.25677" y="404.01777" style="fill: #ff7f0e; stroke: #ff7f0e"/>
     <use xlink:href="#m400ee5cdd0" x="685.811148" y="428.045632" style="fill: #ff7f0e; stroke: #ff7f0e"/>
     <use xlink:href="#m400ee5cdd0" x="701.365526" y="406.395332" style="fill: #ff7f0e; stroke: #ff7f0e"/>
    </g>
   </g>
   <g id="patch_3">
    <path d="M 64.41375 529.308125 
L 64.41375 23.837812 
" style="fill: none; stroke: #000000; stroke-width: 0.8; stroke-linejoin: miter; stroke-linecap: square"/>
   </g>
   <g id="patch_4">
    <path d="M 731.696562 529.308125 
L 731.696562 23.837812 
" style="fill: none; stroke: #000000; stroke-width: 0.8; stroke-linejoin: miter; stroke-linecap: square"/>
   </g>
   <g id="patch_5">
    <path d="M 64.41375 529.308125 
L 731.696562 529.308125 
" style="fill: none; stroke: #000000; stroke-width: 0.8; stroke-linejoin: miter; stroke-linecap: square"/>
   </g>
   <g id="patch_6">
    <path d="M 64.41375 23.837812 
L 731.696562 23.837812 
" style="fill: none; stroke: #000000; stroke-width: 0.8; stroke-linejoin: miter; stroke-linecap: square"/>
   </g>
   <g id="text_15">
    <text style="font: 700 14px 'DejaVu Sans', 'Bitstream Vera Sans', 'Computer Modern Sans Serif', 'Lucida Grande', 'Verdana', 'Geneva', 'Lucid', 'Arial', 'Helvetica', 'Avant Garde', sans-serif; text-anchor: middle" x="398.055156" y="17.837813" transform="rotate(-0 398.055156 17.837813)">Ts Thread Local Single Thread - Performance Trend</text>
   </g>
   <g id="legend_1">
    <g id="patch_7">
     <path d="M 772.060703 61.194063 
L 847.484141 61.194063 
Q 849.484141 61.194063 849.484141 59.194063 
L 849.484141 30.837813 
Q 849.484141 28.837813 847.484141 28.837813 
L 772.060703 28.837813 
Q 770.060703 28.837813 770.060703 30.837813 
L 770.060703 59.194063 
Q 770.060703 61.194063 772.060703 61.194063 
z
" style="fill: #ffffff; opacity: 0.8; stroke: #cccccc; stroke-linejoin: miter"/>
    </g>
    <g id="line2d_24">
     <path d="M 774.060703 36.93625 
L 784.060703 36.93625 
L 794.060703 36.93625 
" style="fill: none; stroke: #1f77b4; stroke-width: 2; stroke-linecap: square"/>
     <g>
      <use xlink:href="#m17419519fd" x="784.060703" y="36.93625" style="fill: #1f77b4; stroke: #1f77b4"/>
     </g>
    </g>
    <g id="text_16">
     <text style="font: 10px 'DejaVu Sans', 'Bitstream Vera Sans', 'Computer Modern Sans Serif', 'Lucida Grande', 'Verdana', 'Geneva', 'Lucid', 'Arial', 'Helvetica', 'Avant Garde', sans-serif; text-anchor: start" x="802.060703" y="40.43625" transform="rotate(-0 802.060703 40.43625)">clang-18</text>
    </g>
    <g id="line2d_25">
     <path d="M 774.060703 51.614375 
L 784.060703 51.614375 
L 794.060703 51.614375 
" style="fill: none; stroke: #ff7f0e; stroke-width: 2; stroke-linecap: square"/>
     <g>
      <use xlink:href="#m400ee5cdd0" x="784.060703" y="51.614375" style="fill: #ff7f0e; stroke: #ff7f0e"/>
     </g>
    </g>
    <g id="text_17">
     <text style="font: 10px 'DejaVu Sans', 'Bitstream Vera Sans', 'Computer Modern Sans Serif', 'Lucida Grande', 'Verdana', 'Geneva', 'Lucid', 'Arial', 'Helvetica', 'Avant Garde', sans-serif; text-anchor: start" x="802.060703" y="55.114375" transform="rotate(-0 802.060703 55.114375)">gcc-14</text>
    </g>
   </g>
  </g>
 </g>
 <defs>
  <clipPath id="p9088db8aea">
   <rect x="64.41375" y="23.837813" width="667.282812" height="505.470313"/>
  </clipPath>
 </defs>
</svg>
