<?xml version="1.0" encoding="utf-8" standalone="no"?>
<!DOCTYPE svg PUBLIC "-//W3C//DTD SVG 1.1//EN"
  "http://www.w3.org/Graphics/SVG/1.1/DTD/svg11.dtd">
<svg xmlns:xlink="http://www.w3.org/1999/xlink" width="855.204687pt" height="568.8pt" viewBox="0 0 855.204687 568.8" xmlns="http://www.w3.org/2000/svg" version="1.1">
 <metadata>
  <rdf:RDF xmlns:dc="http://purl.org/dc/elements/1.1/" xmlns:cc="http://creativecommons.org/ns#" xmlns:rdf="http://www.w3.org/1999/02/22-rdf-syntax-ns#">
   <cc:Work>
    <dc:type rdf:resource="http://purl.org/dc/dcmitype/StillImage"/>
    <dc:date>2025-08-22T16:20:12.919572</dc:date>
    <dc:format>image/svg+xml</dc:format>
    <dc:creator>
     <cc:Agent>
      <dc:title>Matplotlib v3.9.4, https://matplotlib.org/</dc:title>
     </cc:Agent>
    </dc:creator>
   </cc:Work>
  </rdf:RDF>
 </metadata>
 <defs>
  <style type="text/css">*{stroke-linejoin: round; stroke-linecap: butt}</style>
 </defs>
 <g id="figure_1">
  <g id="patch_1">
   <path d="M 0 568.8 
L 855.204687 568.8 
L 855.204687 0 
L 0 0 
z
" style="fill: #ffffff"/>
  </g>
  <g id="axes_1">
   <g id="patch_2">
    <path d="M 64.41375 529.308125 
L 702.1075 529.308125 
L 702.1075 23.837812 
L 64.41375 23.837812 
z
" style="fill: #ffffff"/>
   </g>
   <g id="matplotlib.axis_1">
    <g id="xtick_1">
     <g id="line2d_1">
      <path d="M 73.40943 529.308125 
L 73.40943 23.837812 
" clip-path="url(#pcc0122763d)" style="fill: none; stroke: #b0b0b0; stroke-opacity: 0.3; stroke-width: 0.8; stroke-linecap: square"/>
     </g>
     <g id="line2d_2">
      <defs>
       <path id="m3f0de51c2d" d="M 0 0 
L 0 3.5 
" style="stroke: #000000; stroke-width: 0.8"/>
      </defs>
      <g>
       <use xlink:href="#m3f0de51c2d" x="73.40943" y="529.308125" style="stroke: #000000; stroke-width: 0.8"/>
      </g>
     </g>
     <g id="text_1">
      <text style="font: 10px 'DejaVu Sans', 'Bitstream Vera Sans', 'Computer Modern Sans Serif', 'Lucida Grande', 'Verdana', 'Geneva', 'Lucid', 'Arial', 'Helvetica', 'Avant Garde', sans-serif; text-anchor: middle" x="73.40943" y="543.906563" transform="rotate(-0 73.40943 543.906563)">70</text>
     </g>
    </g>
    <g id="xtick_2">
     <g id="line2d_3">
      <path d="M 173.361428 529.308125 
L 173.361428 23.837812 
" clip-path="url(#pcc0122763d)" style="fill: none; stroke: #b0b0b0; stroke-opacity: 0.3; stroke-width: 0.8; stroke-linecap: square"/>
     </g>
     <g id="line2d_4">
      <g>
       <use xlink:href="#m3f0de51c2d" x="173.361428" y="529.308125" style="stroke: #000000; stroke-width: 0.8"/>
      </g>
     </g>
     <g id="text_2">
      <text style="font: 10px 'DejaVu Sans', 'Bitstream Vera Sans', 'Computer Modern Sans Serif', 'Lucida Grande', 'Verdana', 'Geneva', 'Lucid', 'Arial', 'Helvetica', 'Avant Garde', sans-serif; text-anchor: middle" x="173.361428" y="543.906563" transform="rotate(-0 173.361428 543.906563)">75</text>
     </g>
    </g>
    <g id="xtick_3">
     <g id="line2d_5">
      <path d="M 273.313427 529.308125 
L 273.313427 23.837812 
" clip-path="url(#pcc0122763d)" style="fill: none; stroke: #b0b0b0; stroke-opacity: 0.3; stroke-width: 0.8; stroke-linecap: square"/>
     </g>
     <g id="line2d_6">
      <g>
       <use xlink:href="#m3f0de51c2d" x="273.313427" y="529.308125" style="stroke: #000000; stroke-width: 0.8"/>
      </g>
     </g>
     <g id="text_3">
      <text style="font: 10px 'DejaVu Sans', 'Bitstream Vera Sans', 'Computer Modern Sans Serif', 'Lucida Grande', 'Verdana', 'Geneva', 'Lucid', 'Arial', 'Helvetica', 'Avant Garde', sans-serif; text-anchor: middle" x="273.313427" y="543.906563" transform="rotate(-0 273.313427 543.906563)">80</text>
     </g>
    </g>
    <g id="xtick_4">
     <g id="line2d_7">
      <path d="M 373.265425 529.308125 
L 373.265425 23.837812 
" clip-path="url(#pcc0122763d)" style="fill: none; stroke: #b0b0b0; stroke-opacity: 0.3; stroke-width: 0.8; stroke-linecap: square"/>
     </g>
     <g id="line2d_8">
      <g>
       <use xlink:href="#m3f0de51c2d" x="373.265425" y="529.308125" style="stroke: #000000; stroke-width: 0.8"/>
      </g>
     </g>
     <g id="text_4">
      <text style="font: 10px 'DejaVu Sans', 'Bitstream Vera Sans', 'Computer Modern Sans Serif', 'Lucida Grande', 'Verdana', 'Geneva', 'Lucid', 'Arial', 'Helvetica', 'Avant Garde', sans-serif; text-anchor: middle" x="373.265425" y="543.906563" transform="rotate(-0 373.265425 543.906563)">85</text>
     </g>
    </g>
    <g id="xtick_5">
     <g id="line2d_9">
      <path d="M 473.217424 529.308125 
L 473.217424 23.837812 
" clip-path="url(#pcc0122763d)" style="fill: none; stroke: #b0b0b0; stroke-opacity: 0.3; stroke-width: 0.8; stroke-linecap: square"/>
     </g>
     <g id="line2d_10">
      <g>
       <use xlink:href="#m3f0de51c2d" x="473.217424" y="529.308125" style="stroke: #000000; stroke-width: 0.8"/>
      </g>
     </g>
     <g id="text_5">
      <text style="font: 10px 'DejaVu Sans', 'Bitstream Vera Sans', 'Computer Modern Sans Serif', 'Lucida Grande', 'Verdana', 'Geneva', 'Lucid', 'Arial', 'Helvetica', 'Avant Garde', sans-serif; text-anchor: middle" x="473.217424" y="543.906563" transform="rotate(-0 473.217424 543.906563)">90</text>
     </g>
    </g>
    <g id="xtick_6">
     <g id="line2d_11">
      <path d="M 573.169422 529.308125 
L 573.169422 23.837812 
" clip-path="url(#pcc0122763d)" style="fill: none; stroke: #b0b0b0; stroke-opacity: 0.3; stroke-width: 0.8; stroke-linecap: square"/>
     </g>
     <g id="line2d_12">
      <g>
       <use xlink:href="#m3f0de51c2d" x="573.169422" y="529.308125" style="stroke: #000000; stroke-width: 0.8"/>
      </g>
     </g>
     <g id="text_6">
      <text style="font: 10px 'DejaVu Sans', 'Bitstream Vera Sans', 'Computer Modern Sans Serif', 'Lucida Grande', 'Verdana', 'Geneva', 'Lucid', 'Arial', 'Helvetica', 'Avant Garde', sans-serif; text-anchor: middle" x="573.169422" y="543.906563" transform="rotate(-0 573.169422 543.906563)">95</text>
     </g>
    </g>
    <g id="xtick_7">
     <g id="line2d_13">
      <path d="M 673.12142 529.308125 
L 673.12142 23.837812 
" clip-path="url(#pcc0122763d)" style="fill: none; stroke: #b0b0b0; stroke-opacity: 0.3; stroke-width: 0.8; stroke-linecap: square"/>
     </g>
     <g id="line2d_14">
      <g>
       <use xlink:href="#m3f0de51c2d" x="673.12142" y="529.308125" style="stroke: #000000; stroke-width: 0.8"/>
      </g>
     </g>
     <g id="text_7">
      <text style="font: 10px 'DejaVu Sans', 'Bitstream Vera Sans', 'Computer Modern Sans Serif', 'Lucida Grande', 'Verdana', 'Geneva', 'Lucid', 'Arial', 'Helvetica', 'Avant Garde', sans-serif; text-anchor: middle" x="673.12142" y="543.906563" transform="rotate(-0 673.12142 543.906563)">100</text>
     </g>
    </g>
    <g id="text_8">
     <text style="font: 12px 'DejaVu Sans', 'Bitstream Vera Sans', 'Computer Modern Sans Serif', 'Lucida Grande', 'Verdana', 'Geneva', 'Lucid', 'Arial', 'Helvetica', 'Avant Garde', sans-serif; text-anchor: middle" x="383.260625" y="559.104375" transform="rotate(-0 383.260625 559.104375)">Build Number</text>
    </g>
   </g>
   <g id="matplotlib.axis_2">
    <g id="ytick_1">
     <g id="line2d_15">
      <path d="M 64.41375 348.809781 
L 702.1075 348.809781 
" clip-path="url(#pcc0122763d)" style="fill: none; stroke: #b0b0b0; stroke-opacity: 0.3; stroke-width: 0.8; stroke-linecap: square"/>
     </g>
     <g id="line2d_16">
      <defs>
       <path id="m3bff8f657d" d="M 0 0 
L -3.5 0 
" style="stroke: #000000; stroke-width: 0.8"/>
      </defs>
      <g>
       <use xlink:href="#m3bff8f657d" x="64.41375" y="348.809781" style="stroke: #000000; stroke-width: 0.8"/>
      </g>
     </g>
     <g id="text_9">
      <!-- $\mathdefault{10^{5}}$ -->
      <g transform="translate(39.81375 352.608999)">
       <text>
        <tspan style="font: 10px 'DejaVu Sans'" x="0 6.362305" y="-0.06406250000000036">10</tspan>
        <tspan style="font: 7px 'DejaVu Sans'" x="12.820312" y="-3.8921875000000004">5</tspan>
       </text>
      </g>
     </g>
    </g>
    <g id="ytick_2">
     <g id="line2d_17">
      <defs>
       <path id="mf75dfc81cc" d="M 0 0 
L -2 0 
" style="stroke: #000000; stroke-width: 0.6"/>
      </defs>
      <g>
       <use xlink:href="#mf75dfc81cc" x="64.41375" y="477.273547" style="stroke: #000000; stroke-width: 0.6"/>
      </g>
     </g>
    </g>
    <g id="ytick_3">
     <g id="line2d_18">
      <g>
       <use xlink:href="#mf75dfc81cc" x="64.41375" y="429.179488" style="stroke: #000000; stroke-width: 0.6"/>
      </g>
     </g>
    </g>
    <g id="ytick_4">
     <g id="line2d_19">
      <g>
       <use xlink:href="#mf75dfc81cc" x="64.41375" y="386.757522" style="stroke: #000000; stroke-width: 0.6"/>
      </g>
     </g>
    </g>
    <g id="ytick_5">
     <g id="line2d_20">
      <g>
       <use xlink:href="#mf75dfc81cc" x="64.41375" y="99.158666" style="stroke: #000000; stroke-width: 0.6"/>
      </g>
     </g>
     <g id="text_10">
      <!-- $\mathdefault{2\times10^{5}}$ -->
      <g transform="translate(22.81375 102.957885)">
       <text>
        <tspan style="font: 10px 'DejaVu Sans'" x="0 8.310547 18.637695 25" y="-0.06406250000000036">2×10</tspan>
        <tspan style="font: 7px 'DejaVu Sans'" x="31.458008" y="-3.8921875000000004">5</tspan>
       </text>
      </g>
     </g>
    </g>
    <g id="text_11">
     <text style="font: 12px 'DejaVu Sans', 'Bitstream Vera Sans', 'Computer Modern Sans Serif', 'Lucida Grande', 'Verdana', 'Geneva', 'Lucid', 'Arial', 'Helvetica', 'Avant Garde', sans-serif; text-anchor: middle" x="16.318125" y="276.572969" transform="rotate(-90 16.318125 276.572969)">Median Elapsed Time (nanoseconds)</text>
    </g>
   </g>
   <g id="line2d_21">
    <path d="M 93.39983 320.399692 
L 113.390229 149.937849 
L 133.380629 149.122015 
L 153.371029 281.632503 
L 173.361428 73.517706 
L 193.351828 262.330675 
L 213.342228 319.41646 
L 233.332627 320.479253 
L 253.323027 154.791122 
L 273.313427 314.376784 
L 293.303826 314.778644 
L 313.294226 320.044049 
L 333.284626 70.757565 
L 353.275025 317.938266 
L 373.265425 319.597083 
L 393.255825 318.721044 
L 433.236624 319.842596 
L 453.227024 167.082323 
L 473.217424 319.906078 
L 493.207823 153.803023 
L 513.198223 319.841267 
L 533.188623 67.555908 
L 553.179022 318.710773 
L 573.169422 147.600096 
L 593.159822 255.817313 
L 613.150221 170.559724 
L 653.131021 226.811932 
L 673.12142 263.587557 
" clip-path="url(#pcc0122763d)" style="fill: none; stroke: #1f77b4; stroke-width: 2; stroke-linecap: square"/>
    <defs>
     <path id="m552bceffe4" d="M 0 3 
C 0.795609 3 1.55874 2.683901 2.12132 2.12132 
C 2.683901 1.55874 3 0.795609 3 0 
C 3 -0.795609 2.683901 -1.55874 2.12132 -2.12132 
C 1.55874 -2.683901 0.795609 -3 0 -3 
C -0.795609 -3 -1.55874 -2.683901 -2.12132 -2.12132 
C -2.683901 -1.55874 -3 -0.795609 -3 0 
C -3 0.795609 -2.683901 1.55874 -2.12132 2.12132 
C -1.55874 2.683901 -0.795609 3 0 3 
z
" style="stroke: #1f77b4"/>
    </defs>
    <g clip-path="url(#pcc0122763d)">
     <use xlink:href="#m552bceffe4" x="93.39983" y="320.399692" style="fill: #1f77b4; stroke: #1f77b4"/>
     <use xlink:href="#m552bceffe4" x="113.390229" y="149.937849" style="fill: #1f77b4; stroke: #1f77b4"/>
     <use xlink:href="#m552bceffe4" x="133.380629" y="149.122015" style="fill: #1f77b4; stroke: #1f77b4"/>
     <use xlink:href="#m552bceffe4" x="153.371029" y="281.632503" style="fill: #1f77b4; stroke: #1f77b4"/>
     <use xlink:href="#m552bceffe4" x="173.361428" y="73.517706" style="fill: #1f77b4; stroke: #1f77b4"/>
     <use xlink:href="#m552bceffe4" x="193.351828" y="262.330675" style="fill: #1f77b4; stroke: #1f77b4"/>
     <use xlink:href="#m552bceffe4" x="213.342228" y="319.41646" style="fill: #1f77b4; stroke: #1f77b4"/>
     <use xlink:href="#m552bceffe4" x="233.332627" y="320.479253" style="fill: #1f77b4; stroke: #1f77b4"/>
     <use xlink:href="#m552bceffe4" x="253.323027" y="154.791122" style="fill: #1f77b4; stroke: #1f77b4"/>
     <use xlink:href="#m552bceffe4" x="273.313427" y="314.376784" style="fill: #1f77b4; stroke: #1f77b4"/>
     <use xlink:href="#m552bceffe4" x="293.303826" y="314.778644" style="fill: #1f77b4; stroke: #1f77b4"/>
     <use xlink:href="#m552bceffe4" x="313.294226" y="320.044049" style="fill: #1f77b4; stroke: #1f77b4"/>
     <use xlink:href="#m552bceffe4" x="333.284626" y="70.757565" style="fill: #1f77b4; stroke: #1f77b4"/>
     <use xlink:href="#m552bceffe4" x="353.275025" y="317.938266" style="fill: #1f77b4; stroke: #1f77b4"/>
     <use xlink:href="#m552bceffe4" x="373.265425" y="319.597083" style="fill: #1f77b4; stroke: #1f77b4"/>
     <use xlink:href="#m552bceffe4" x="393.255825" y="318.721044" style="fill: #1f77b4; stroke: #1f77b4"/>
     <use xlink:href="#m552bceffe4" x="433.236624" y="319.842596" style="fill: #1f77b4; stroke: #1f77b4"/>
     <use xlink:href="#m552bceffe4" x="453.227024" y="167.082323" style="fill: #1f77b4; stroke: #1f77b4"/>
     <use xlink:href="#m552bceffe4" x="473.217424" y="319.906078" style="fill: #1f77b4; stroke: #1f77b4"/>
     <use xlink:href="#m552bceffe4" x="493.207823" y="153.803023" style="fill: #1f77b4; stroke: #1f77b4"/>
     <use xlink:href="#m552bceffe4" x="513.198223" y="319.841267" style="fill: #1f77b4; stroke: #1f77b4"/>
     <use xlink:href="#m552bceffe4" x="533.188623" y="67.555908" style="fill: #1f77b4; stroke: #1f77b4"/>
     <use xlink:href="#m552bceffe4" x="553.179022" y="318.710773" style="fill: #1f77b4; stroke: #1f77b4"/>
     <use xlink:href="#m552bceffe4" x="573.169422" y="147.600096" style="fill: #1f77b4; stroke: #1f77b4"/>
     <use xlink:href="#m552bceffe4" x="593.159822" y="255.817313" style="fill: #1f77b4; stroke: #1f77b4"/>
     <use xlink:href="#m552bceffe4" x="613.150221" y="170.559724" style="fill: #1f77b4; stroke: #1f77b4"/>
     <use xlink:href="#m552bceffe4" x="653.131021" y="226.811932" style="fill: #1f77b4; stroke: #1f77b4"/>
     <use xlink:href="#m552bceffe4" x="673.12142" y="263.587557" style="fill: #1f77b4; stroke: #1f77b4"/>
    </g>
   </g>
   <g id="line2d_22">
    <path d="M 93.39983 287.002065 
L 113.390229 166.941871 
L 133.380629 206.761922 
L 153.371029 267.182754 
L 173.361428 170.52357 
L 193.351828 276.779458 
L 213.342228 267.21556 
L 233.332627 274.060871 
L 253.323027 73.812662 
L 273.313427 273.893797 
L 293.303826 270.935313 
L 313.294226 268.600312 
L 333.284626 164.624075 
L 353.275025 275.976789 
L 373.265425 280.273421 
L 393.255825 161.231057 
L 433.236624 161.617455 
L 453.227024 144.792844 
L 473.217424 251.284103 
L 493.207823 151.838117 
L 513.198223 270.392581 
L 533.188623 169.497912 
L 553.179022 257.445194 
L 573.169422 173.681673 
L 593.159822 322.455249 
L 613.150221 321.781345 
L 653.131021 208.787844 
L 673.12142 158.587297 
" clip-path="url(#pcc0122763d)" style="fill: none; stroke: #ff7f0e; stroke-width: 2; stroke-linecap: square"/>
    <defs>
     <path id="me2818a5089" d="M 0 3 
C 0.795609 3 1.55874 2.683901 2.12132 2.12132 
C 2.683901 1.55874 3 0.795609 3 0 
C 3 -0.795609 2.683901 -1.55874 2.12132 -2.12132 
C 1.55874 -2.683901 0.795609 -3 0 -3 
C -0.795609 -3 -1.55874 -2.683901 -2.12132 -2.12132 
C -2.683901 -1.55874 -3 -0.795609 -3 0 
C -3 0.795609 -2.683901 1.55874 -2.12132 2.12132 
C -1.55874 2.683901 -0.795609 3 0 3 
z
" style="stroke: #ff7f0e"/>
    </defs>
    <g clip-path="url(#pcc0122763d)">
     <use xlink:href="#me2818a5089" x="93.39983" y="287.002065" style="fill: #ff7f0e; stroke: #ff7f0e"/>
     <use xlink:href="#me2818a5089" x="113.390229" y="166.941871" style="fill: #ff7f0e; stroke: #ff7f0e"/>
     <use xlink:href="#me2818a5089" x="133.380629" y="206.761922" style="fill: #ff7f0e; stroke: #ff7f0e"/>
     <use xlink:href="#me2818a5089" x="153.371029" y="267.182754" style="fill: #ff7f0e; stroke: #ff7f0e"/>
     <use xlink:href="#me2818a5089" x="173.361428" y="170.52357" style="fill: #ff7f0e; stroke: #ff7f0e"/>
     <use xlink:href="#me2818a5089" x="193.351828" y="276.779458" style="fill: #ff7f0e; stroke: #ff7f0e"/>
     <use xlink:href="#me2818a5089" x="213.342228" y="267.21556" style="fill: #ff7f0e; stroke: #ff7f0e"/>
     <use xlink:href="#me2818a5089" x="233.332627" y="274.060871" style="fill: #ff7f0e; stroke: #ff7f0e"/>
     <use xlink:href="#me2818a5089" x="253.323027" y="73.812662" style="fill: #ff7f0e; stroke: #ff7f0e"/>
     <use xlink:href="#me2818a5089" x="273.313427" y="273.893797" style="fill: #ff7f0e; stroke: #ff7f0e"/>
     <use xlink:href="#me2818a5089" x="293.303826" y="270.935313" style="fill: #ff7f0e; stroke: #ff7f0e"/>
     <use xlink:href="#me2818a5089" x="313.294226" y="268.600312" style="fill: #ff7f0e; stroke: #ff7f0e"/>
     <use xlink:href="#me2818a5089" x="333.284626" y="164.624075" style="fill: #ff7f0e; stroke: #ff7f0e"/>
     <use xlink:href="#me2818a5089" x="353.275025" y="275.976789" style="fill: #ff7f0e; stroke: #ff7f0e"/>
     <use xlink:href="#me2818a5089" x="373.265425" y="280.273421" style="fill: #ff7f0e; stroke: #ff7f0e"/>
     <use xlink:href="#me2818a5089" x="393.255825" y="161.231057" style="fill: #ff7f0e; stroke: #ff7f0e"/>
     <use xlink:href="#me2818a5089" x="433.236624" y="161.617455" style="fill: #ff7f0e; stroke: #ff7f0e"/>
     <use xlink:href="#me2818a5089" x="453.227024" y="144.792844" style="fill: #ff7f0e; stroke: #ff7f0e"/>
     <use xlink:href="#me2818a5089" x="473.217424" y="251.284103" style="fill: #ff7f0e; stroke: #ff7f0e"/>
     <use xlink:href="#me2818a5089" x="493.207823" y="151.838117" style="fill: #ff7f0e; stroke: #ff7f0e"/>
     <use xlink:href="#me2818a5089" x="513.198223" y="270.392581" style="fill: #ff7f0e; stroke: #ff7f0e"/>
     <use xlink:href="#me2818a5089" x="533.188623" y="169.497912" style="fill: #ff7f0e; stroke: #ff7f0e"/>
     <use xlink:href="#me2818a5089" x="553.179022" y="257.445194" style="fill: #ff7f0e; stroke: #ff7f0e"/>
     <use xlink:href="#me2818a5089" x="573.169422" y="173.681673" style="fill: #ff7f0e; stroke: #ff7f0e"/>
     <use xlink:href="#me2818a5089" x="593.159822" y="322.455249" style="fill: #ff7f0e; stroke: #ff7f0e"/>
     <use xlink:href="#me2818a5089" x="613.150221" y="321.781345" style="fill: #ff7f0e; stroke: #ff7f0e"/>
     <use xlink:href="#me2818a5089" x="653.131021" y="208.787844" style="fill: #ff7f0e; stroke: #ff7f0e"/>
     <use xlink:href="#me2818a5089" x="673.12142" y="158.587297" style="fill: #ff7f0e; stroke: #ff7f0e"/>
    </g>
   </g>
   <g id="line2d_23">
    <path d="M 93.39983 309.99342 
L 113.390229 46.813736 
L 133.380629 296.469989 
L 153.371029 303.317241 
L 173.361428 141.040669 
L 193.351828 305.135002 
L 213.342228 226.521224 
L 233.332627 232.205566 
L 253.323027 223.641223 
L 273.313427 303.255982 
L 293.303826 305.186371 
L 313.294226 305.00103 
L 333.284626 229.395298 
L 353.275025 302.467522 
L 373.265425 304.609325 
L 393.255825 227.085921 
L 433.236624 231.385219 
L 453.227024 303.313432 
L 473.217424 222.542209 
L 493.207823 226.229042 
L 513.198223 303.757474 
L 533.188623 300.074694 
L 553.179022 303.929633 
L 573.169422 176.224602 
L 593.159822 304.23484 
L 613.150221 224.920509 
L 653.131021 227.836393 
L 673.12142 226.304308 
" clip-path="url(#pcc0122763d)" style="fill: none; stroke: #2ca02c; stroke-width: 2; stroke-linecap: square"/>
    <defs>
     <path id="m6d97c50763" d="M 0 3 
C 0.795609 3 1.55874 2.683901 2.12132 2.12132 
C 2.683901 1.55874 3 0.795609 3 0 
C 3 -0.795609 2.683901 -1.55874 2.12132 -2.12132 
C 1.55874 -2.683901 0.795609 -3 0 -3 
C -0.795609 -3 -1.55874 -2.683901 -2.12132 -2.12132 
C -2.683901 -1.55874 -3 -0.795609 -3 0 
C -3 0.795609 -2.683901 1.55874 -2.12132 2.12132 
C -1.55874 2.683901 -0.795609 3 0 3 
z
" style="stroke: #2ca02c"/>
    </defs>
    <g clip-path="url(#pcc0122763d)">
     <use xlink:href="#m6d97c50763" x="93.39983" y="309.99342" style="fill: #2ca02c; stroke: #2ca02c"/>
     <use xlink:href="#m6d97c50763" x="113.390229" y="46.813736" style="fill: #2ca02c; stroke: #2ca02c"/>
     <use xlink:href="#m6d97c50763" x="133.380629" y="296.469989" style="fill: #2ca02c; stroke: #2ca02c"/>
     <use xlink:href="#m6d97c50763" x="153.371029" y="303.317241" style="fill: #2ca02c; stroke: #2ca02c"/>
     <use xlink:href="#m6d97c50763" x="173.361428" y="141.040669" style="fill: #2ca02c; stroke: #2ca02c"/>
     <use xlink:href="#m6d97c50763" x="193.351828" y="305.135002" style="fill: #2ca02c; stroke: #2ca02c"/>
     <use xlink:href="#m6d97c50763" x="213.342228" y="226.521224" style="fill: #2ca02c; stroke: #2ca02c"/>
     <use xlink:href="#m6d97c50763" x="233.332627" y="232.205566" style="fill: #2ca02c; stroke: #2ca02c"/>
     <use xlink:href="#m6d97c50763" x="253.323027" y="223.641223" style="fill: #2ca02c; stroke: #2ca02c"/>
     <use xlink:href="#m6d97c50763" x="273.313427" y="303.255982" style="fill: #2ca02c; stroke: #2ca02c"/>
     <use xlink:href="#m6d97c50763" x="293.303826" y="305.186371" style="fill: #2ca02c; stroke: #2ca02c"/>
     <use xlink:href="#m6d97c50763" x="313.294226" y="305.00103" style="fill: #2ca02c; stroke: #2ca02c"/>
     <use xlink:href="#m6d97c50763" x="333.284626" y="229.395298" style="fill: #2ca02c; stroke: #2ca02c"/>
     <use xlink:href="#m6d97c50763" x="353.275025" y="302.467522" style="fill: #2ca02c; stroke: #2ca02c"/>
     <use xlink:href="#m6d97c50763" x="373.265425" y="304.609325" style="fill: #2ca02c; stroke: #2ca02c"/>
     <use xlink:href="#m6d97c50763" x="393.255825" y="227.085921" style="fill: #2ca02c; stroke: #2ca02c"/>
     <use xlink:href="#m6d97c50763" x="433.236624" y="231.385219" style="fill: #2ca02c; stroke: #2ca02c"/>
     <use xlink:href="#m6d97c50763" x="453.227024" y="303.313432" style="fill: #2ca02c; stroke: #2ca02c"/>
     <use xlink:href="#m6d97c50763" x="473.217424" y="222.542209" style="fill: #2ca02c; stroke: #2ca02c"/>
     <use xlink:href="#m6d97c50763" x="493.207823" y="226.229042" style="fill: #2ca02c; stroke: #2ca02c"/>
     <use xlink:href="#m6d97c50763" x="513.198223" y="303.757474" style="fill: #2ca02c; stroke: #2ca02c"/>
     <use xlink:href="#m6d97c50763" x="533.188623" y="300.074694" style="fill: #2ca02c; stroke: #2ca02c"/>
     <use xlink:href="#m6d97c50763" x="553.179022" y="303.929633" style="fill: #2ca02c; stroke: #2ca02c"/>
     <use xlink:href="#m6d97c50763" x="573.169422" y="176.224602" style="fill: #2ca02c; stroke: #2ca02c"/>
     <use xlink:href="#m6d97c50763" x="593.159822" y="304.23484" style="fill: #2ca02c; stroke: #2ca02c"/>
     <use xlink:href="#m6d97c50763" x="613.150221" y="224.920509" style="fill: #2ca02c; stroke: #2ca02c"/>
     <use xlink:href="#m6d97c50763" x="653.131021" y="227.836393" style="fill: #2ca02c; stroke: #2ca02c"/>
     <use xlink:href="#m6d97c50763" x="673.12142" y="226.304308" style="fill: #2ca02c; stroke: #2ca02c"/>
    </g>
   </g>
   <g id="line2d_24">
    <path d="M 93.39983 504.215036 
L 113.390229 503.765069 
L 133.380629 504.492944 
L 153.371029 252.207841 
L 173.361428 366.478985 
L 193.351828 245.37849 
L 213.342228 504.920487 
L 233.332627 312.965396 
L 253.323027 240.358593 
L 273.313427 500.138822 
L 293.303826 506.092444 
L 313.294226 504.233335 
L 333.284626 167.327267 
L 373.265425 455.785735 
L 393.255825 506.332202 
L 433.236624 504.986515 
L 453.227024 505.933065 
L 473.217424 409.738681 
L 493.207823 504.225572 
L 513.198223 504.033763 
L 553.179022 504.859379 
L 573.169422 504.7011 
L 593.159822 506.201151 
L 613.150221 503.941775 
L 653.131021 504.616713 
L 673.12142 241.70091 
" clip-path="url(#pcc0122763d)" style="fill: none; stroke: #d62728; stroke-width: 2; stroke-linecap: square"/>
    <defs>
     <path id="mf1d51cf554" d="M 0 3 
C 0.795609 3 1.55874 2.683901 2.12132 2.12132 
C 2.683901 1.55874 3 0.795609 3 0 
C 3 -0.795609 2.683901 -1.55874 2.12132 -2.12132 
C 1.55874 -2.683901 0.795609 -3 0 -3 
C -0.795609 -3 -1.55874 -2.683901 -2.12132 -2.12132 
C -2.683901 -1.55874 -3 -0.795609 -3 0 
C -3 0.795609 -2.683901 1.55874 -2.12132 2.12132 
C -1.55874 2.683901 -0.795609 3 0 3 
z
" style="stroke: #d62728"/>
    </defs>
    <g clip-path="url(#pcc0122763d)">
     <use xlink:href="#mf1d51cf554" x="93.39983" y="504.215036" style="fill: #d62728; stroke: #d62728"/>
     <use xlink:href="#mf1d51cf554" x="113.390229" y="503.765069" style="fill: #d62728; stroke: #d62728"/>
     <use xlink:href="#mf1d51cf554" x="133.380629" y="504.492944" style="fill: #d62728; stroke: #d62728"/>
     <use xlink:href="#mf1d51cf554" x="153.371029" y="252.207841" style="fill: #d62728; stroke: #d62728"/>
     <use xlink:href="#mf1d51cf554" x="173.361428" y="366.478985" style="fill: #d62728; stroke: #d62728"/>
     <use xlink:href="#mf1d51cf554" x="193.351828" y="245.37849" style="fill: #d62728; stroke: #d62728"/>
     <use xlink:href="#mf1d51cf554" x="213.342228" y="504.920487" style="fill: #d62728; stroke: #d62728"/>
     <use xlink:href="#mf1d51cf554" x="233.332627" y="312.965396" style="fill: #d62728; stroke: #d62728"/>
     <use xlink:href="#mf1d51cf554" x="253.323027" y="240.358593" style="fill: #d62728; stroke: #d62728"/>
     <use xlink:href="#mf1d51cf554" x="273.313427" y="500.138822" style="fill: #d62728; stroke: #d62728"/>
     <use xlink:href="#mf1d51cf554" x="293.303826" y="506.092444" style="fill: #d62728; stroke: #d62728"/>
     <use xlink:href="#mf1d51cf554" x="313.294226" y="504.233335" style="fill: #d62728; stroke: #d62728"/>
     <use xlink:href="#mf1d51cf554" x="333.284626" y="167.327267" style="fill: #d62728; stroke: #d62728"/>
     <use xlink:href="#mf1d51cf554" x="373.265425" y="455.785735" style="fill: #d62728; stroke: #d62728"/>
     <use xlink:href="#mf1d51cf554" x="393.255825" y="506.332202" style="fill: #d62728; stroke: #d62728"/>
     <use xlink:href="#mf1d51cf554" x="433.236624" y="504.986515" style="fill: #d62728; stroke: #d62728"/>
     <use xlink:href="#mf1d51cf554" x="453.227024" y="505.933065" style="fill: #d62728; stroke: #d62728"/>
     <use xlink:href="#mf1d51cf554" x="473.217424" y="409.738681" style="fill: #d62728; stroke: #d62728"/>
     <use xlink:href="#mf1d51cf554" x="493.207823" y="504.225572" style="fill: #d62728; stroke: #d62728"/>
     <use xlink:href="#mf1d51cf554" x="513.198223" y="504.033763" style="fill: #d62728; stroke: #d62728"/>
     <use xlink:href="#mf1d51cf554" x="553.179022" y="504.859379" style="fill: #d62728; stroke: #d62728"/>
     <use xlink:href="#mf1d51cf554" x="573.169422" y="504.7011" style="fill: #d62728; stroke: #d62728"/>
     <use xlink:href="#mf1d51cf554" x="593.159822" y="506.201151" style="fill: #d62728; stroke: #d62728"/>
     <use xlink:href="#mf1d51cf554" x="613.150221" y="503.941775" style="fill: #d62728; stroke: #d62728"/>
     <use xlink:href="#mf1d51cf554" x="653.131021" y="504.616713" style="fill: #d62728; stroke: #d62728"/>
     <use xlink:href="#mf1d51cf554" x="673.12142" y="241.70091" style="fill: #d62728; stroke: #d62728"/>
    </g>
   </g>
   <g id="line2d_25">
    <path d="M 93.39983 461.991572 
L 113.390229 407.665623 
L 133.380629 466.93619 
L 153.371029 461.299004 
L 173.361428 368.886445 
L 193.351828 373.015229 
L 213.342228 456.013145 
L 233.332627 284.685676 
L 253.323027 450.498519 
L 273.313427 465.767156 
L 293.303826 459.143063 
L 313.294226 464.044495 
L 333.284626 338.076165 
L 373.265425 450.521448 
L 393.255825 463.665276 
L 433.236624 461.00366 
L 453.227024 461.407165 
L 473.217424 283.638824 
L 493.207823 459.289384 
L 513.198223 464.347663 
L 553.179022 455.468861 
L 573.169422 460.052294 
L 593.159822 478.539969 
L 613.150221 481.961441 
L 653.131021 482.146018 
L 673.12142 368.161718 
" clip-path="url(#pcc0122763d)" style="fill: none; stroke: #9467bd; stroke-width: 2; stroke-linecap: square"/>
    <defs>
     <path id="m4a3d4f0d85" d="M 0 3 
C 0.795609 3 1.55874 2.683901 2.12132 2.12132 
C 2.683901 1.55874 3 0.795609 3 0 
C 3 -0.795609 2.683901 -1.55874 2.12132 -2.12132 
C 1.55874 -2.683901 0.795609 -3 0 -3 
C -0.795609 -3 -1.55874 -2.683901 -2.12132 -2.12132 
C -2.683901 -1.55874 -3 -0.795609 -3 0 
C -3 0.795609 -2.683901 1.55874 -2.12132 2.12132 
C -1.55874 2.683901 -0.795609 3 0 3 
z
" style="stroke: #9467bd"/>
    </defs>
    <g clip-path="url(#pcc0122763d)">
     <use xlink:href="#m4a3d4f0d85" x="93.39983" y="461.991572" style="fill: #9467bd; stroke: #9467bd"/>
     <use xlink:href="#m4a3d4f0d85" x="113.390229" y="407.665623" style="fill: #9467bd; stroke: #9467bd"/>
     <use xlink:href="#m4a3d4f0d85" x="133.380629" y="466.93619" style="fill: #9467bd; stroke: #9467bd"/>
     <use xlink:href="#m4a3d4f0d85" x="153.371029" y="461.299004" style="fill: #9467bd; stroke: #9467bd"/>
     <use xlink:href="#m4a3d4f0d85" x="173.361428" y="368.886445" style="fill: #9467bd; stroke: #9467bd"/>
     <use xlink:href="#m4a3d4f0d85" x="193.351828" y="373.015229" style="fill: #9467bd; stroke: #9467bd"/>
     <use xlink:href="#m4a3d4f0d85" x="213.342228" y="456.013145" style="fill: #9467bd; stroke: #9467bd"/>
     <use xlink:href="#m4a3d4f0d85" x="233.332627" y="284.685676" style="fill: #9467bd; stroke: #9467bd"/>
     <use xlink:href="#m4a3d4f0d85" x="253.323027" y="450.498519" style="fill: #9467bd; stroke: #9467bd"/>
     <use xlink:href="#m4a3d4f0d85" x="273.313427" y="465.767156" style="fill: #9467bd; stroke: #9467bd"/>
     <use xlink:href="#m4a3d4f0d85" x="293.303826" y="459.143063" style="fill: #9467bd; stroke: #9467bd"/>
     <use xlink:href="#m4a3d4f0d85" x="313.294226" y="464.044495" style="fill: #9467bd; stroke: #9467bd"/>
     <use xlink:href="#m4a3d4f0d85" x="333.284626" y="338.076165" style="fill: #9467bd; stroke: #9467bd"/>
     <use xlink:href="#m4a3d4f0d85" x="373.265425" y="450.521448" style="fill: #9467bd; stroke: #9467bd"/>
     <use xlink:href="#m4a3d4f0d85" x="393.255825" y="463.665276" style="fill: #9467bd; stroke: #9467bd"/>
     <use xlink:href="#m4a3d4f0d85" x="433.236624" y="461.00366" style="fill: #9467bd; stroke: #9467bd"/>
     <use xlink:href="#m4a3d4f0d85" x="453.227024" y="461.407165" style="fill: #9467bd; stroke: #9467bd"/>
     <use xlink:href="#m4a3d4f0d85" x="473.217424" y="283.638824" style="fill: #9467bd; stroke: #9467bd"/>
     <use xlink:href="#m4a3d4f0d85" x="493.207823" y="459.289384" style="fill: #9467bd; stroke: #9467bd"/>
     <use xlink:href="#m4a3d4f0d85" x="513.198223" y="464.347663" style="fill: #9467bd; stroke: #9467bd"/>
     <use xlink:href="#m4a3d4f0d85" x="553.179022" y="455.468861" style="fill: #9467bd; stroke: #9467bd"/>
     <use xlink:href="#m4a3d4f0d85" x="573.169422" y="460.052294" style="fill: #9467bd; stroke: #9467bd"/>
     <use xlink:href="#m4a3d4f0d85" x="593.159822" y="478.539969" style="fill: #9467bd; stroke: #9467bd"/>
     <use xlink:href="#m4a3d4f0d85" x="613.150221" y="481.961441" style="fill: #9467bd; stroke: #9467bd"/>
     <use xlink:href="#m4a3d4f0d85" x="653.131021" y="482.146018" style="fill: #9467bd; stroke: #9467bd"/>
     <use xlink:href="#m4a3d4f0d85" x="673.12142" y="368.161718" style="fill: #9467bd; stroke: #9467bd"/>
    </g>
   </g>
   <g id="line2d_26">
    <path d="M 93.39983 428.48458 
L 113.390229 428.116305 
L 133.380629 429.675965 
L 153.371029 431.775747 
L 173.361428 353.222497 
L 193.351828 353.025662 
L 213.342228 431.423573 
L 233.332627 351.697648 
L 253.323027 429.564176 
L 273.313427 429.749008 
L 293.303826 431.810666 
L 313.294226 432.730205 
L 333.284626 351.888674 
L 373.265425 429.943929 
L 393.255825 431.740832 
L 433.236624 430.935437 
L 453.227024 432.640191 
L 473.217424 350.717243 
L 493.207823 430.037264 
L 513.198223 430.563849 
L 553.179022 432.946695 
L 573.169422 430.600459 
L 593.159822 432.090942 
L 613.150221 432.441149 
L 653.131021 431.029655 
L 673.12142 353.069029 
" clip-path="url(#pcc0122763d)" style="fill: none; stroke: #8c564b; stroke-width: 2; stroke-linecap: square"/>
    <defs>
     <path id="m326e8512a0" d="M 0 3 
C 0.795609 3 1.55874 2.683901 2.12132 2.12132 
C 2.683901 1.55874 3 0.795609 3 0 
C 3 -0.795609 2.683901 -1.55874 2.12132 -2.12132 
C 1.55874 -2.683901 0.795609 -3 0 -3 
C -0.795609 -3 -1.55874 -2.683901 -2.12132 -2.12132 
C -2.683901 -1.55874 -3 -0.795609 -3 0 
C -3 0.795609 -2.683901 1.55874 -2.12132 2.12132 
C -1.55874 2.683901 -0.795609 3 0 3 
z
" style="stroke: #8c564b"/>
    </defs>
    <g clip-path="url(#pcc0122763d)">
     <use xlink:href="#m326e8512a0" x="93.39983" y="428.48458" style="fill: #8c564b; stroke: #8c564b"/>
     <use xlink:href="#m326e8512a0" x="113.390229" y="428.116305" style="fill: #8c564b; stroke: #8c564b"/>
     <use xlink:href="#m326e8512a0" x="133.380629" y="429.675965" style="fill: #8c564b; stroke: #8c564b"/>
     <use xlink:href="#m326e8512a0" x="153.371029" y="431.775747" style="fill: #8c564b; stroke: #8c564b"/>
     <use xlink:href="#m326e8512a0" x="173.361428" y="353.222497" style="fill: #8c564b; stroke: #8c564b"/>
     <use xlink:href="#m326e8512a0" x="193.351828" y="353.025662" style="fill: #8c564b; stroke: #8c564b"/>
     <use xlink:href="#m326e8512a0" x="213.342228" y="431.423573" style="fill: #8c564b; stroke: #8c564b"/>
     <use xlink:href="#m326e8512a0" x="233.332627" y="351.697648" style="fill: #8c564b; stroke: #8c564b"/>
     <use xlink:href="#m326e8512a0" x="253.323027" y="429.564176" style="fill: #8c564b; stroke: #8c564b"/>
     <use xlink:href="#m326e8512a0" x="273.313427" y="429.749008" style="fill: #8c564b; stroke: #8c564b"/>
     <use xlink:href="#m326e8512a0" x="293.303826" y="431.810666" style="fill: #8c564b; stroke: #8c564b"/>
     <use xlink:href="#m326e8512a0" x="313.294226" y="432.730205" style="fill: #8c564b; stroke: #8c564b"/>
     <use xlink:href="#m326e8512a0" x="333.284626" y="351.888674" style="fill: #8c564b; stroke: #8c564b"/>
     <use xlink:href="#m326e8512a0" x="373.265425" y="429.943929" style="fill: #8c564b; stroke: #8c564b"/>
     <use xlink:href="#m326e8512a0" x="393.255825" y="431.740832" style="fill: #8c564b; stroke: #8c564b"/>
     <use xlink:href="#m326e8512a0" x="433.236624" y="430.935437" style="fill: #8c564b; stroke: #8c564b"/>
     <use xlink:href="#m326e8512a0" x="453.227024" y="432.640191" style="fill: #8c564b; stroke: #8c564b"/>
     <use xlink:href="#m326e8512a0" x="473.217424" y="350.717243" style="fill: #8c564b; stroke: #8c564b"/>
     <use xlink:href="#m326e8512a0" x="493.207823" y="430.037264" style="fill: #8c564b; stroke: #8c564b"/>
     <use xlink:href="#m326e8512a0" x="513.198223" y="430.563849" style="fill: #8c564b; stroke: #8c564b"/>
     <use xlink:href="#m326e8512a0" x="553.179022" y="432.946695" style="fill: #8c564b; stroke: #8c564b"/>
     <use xlink:href="#m326e8512a0" x="573.169422" y="430.600459" style="fill: #8c564b; stroke: #8c564b"/>
     <use xlink:href="#m326e8512a0" x="593.159822" y="432.090942" style="fill: #8c564b; stroke: #8c564b"/>
     <use xlink:href="#m326e8512a0" x="613.150221" y="432.441149" style="fill: #8c564b; stroke: #8c564b"/>
     <use xlink:href="#m326e8512a0" x="653.131021" y="431.029655" style="fill: #8c564b; stroke: #8c564b"/>
     <use xlink:href="#m326e8512a0" x="673.12142" y="353.069029" style="fill: #8c564b; stroke: #8c564b"/>
    </g>
   </g>
   <g id="patch_3">
    <path d="M 64.41375 529.308125 
L 64.41375 23.837812 
" style="fill: none; stroke: #000000; stroke-width: 0.8; stroke-linejoin: miter; stroke-linecap: square"/>
   </g>
   <g id="patch_4">
    <path d="M 702.1075 529.308125 
L 702.1075 23.837812 
" style="fill: none; stroke: #000000; stroke-width: 0.8; stroke-linejoin: miter; stroke-linecap: square"/>
   </g>
   <g id="patch_5">
    <path d="M 64.41375 529.308125 
L 702.1075 529.308125 
" style="fill: none; stroke: #000000; stroke-width: 0.8; stroke-linejoin: miter; stroke-linecap: square"/>
   </g>
   <g id="patch_6">
    <path d="M 64.41375 23.837812 
L 702.1075 23.837812 
" style="fill: none; stroke: #000000; stroke-width: 0.8; stroke-linejoin: miter; stroke-linecap: square"/>
   </g>
   <g id="text_12">
    <text style="font: 700 14px 'DejaVu Sans', 'Bitstream Vera Sans', 'Computer Modern Sans Serif', 'Lucida Grande', 'Verdana', 'Geneva', 'Lucid', 'Arial', 'Helvetica', 'Avant Garde', sans-serif; text-anchor: middle" x="383.260625" y="17.837813" transform="rotate(-0 383.260625 17.837813)">Matrixops - Performance Trend</text>
   </g>
   <g id="legend_1">
    <g id="patch_7">
     <path d="M 740.992188 119.906563 
L 846.004688 119.906563 
Q 848.004688 119.906563 848.004688 117.906563 
L 848.004688 30.837813 
Q 848.004688 28.837813 846.004688 28.837813 
L 740.992188 28.837813 
Q 738.992188 28.837813 738.992188 30.837813 
L 738.992188 117.906563 
Q 738.992188 119.906563 740.992188 119.906563 
z
" style="fill: #ffffff; opacity: 0.8; stroke: #cccccc; stroke-linejoin: miter"/>
    </g>
    <g id="line2d_27">
     <path d="M 742.992188 36.93625 
L 752.992188 36.93625 
L 762.992188 36.93625 
" style="fill: none; stroke: #1f77b4; stroke-width: 2; stroke-linecap: square"/>
     <g>
      <use xlink:href="#m552bceffe4" x="752.992188" y="36.93625" style="fill: #1f77b4; stroke: #1f77b4"/>
     </g>
    </g>
    <g id="text_13">
     <text style="font: 10px 'DejaVu Sans', 'Bitstream Vera Sans', 'Computer Modern Sans Serif', 'Lucida Grande', 'Verdana', 'Geneva', 'Lucid', 'Arial', 'Helvetica', 'Avant Garde', sans-serif; text-anchor: start" x="770.992188" y="40.43625" transform="rotate(-0 770.992188 40.43625)">gcc-14.2 - V1</text>
    </g>
    <g id="line2d_28">
     <path d="M 742.992188 51.614375 
L 752.992188 51.614375 
L 762.992188 51.614375 
" style="fill: none; stroke: #ff7f0e; stroke-width: 2; stroke-linecap: square"/>
     <g>
      <use xlink:href="#me2818a5089" x="752.992188" y="51.614375" style="fill: #ff7f0e; stroke: #ff7f0e"/>
     </g>
    </g>
    <g id="text_14">
     <text style="font: 10px 'DejaVu Sans', 'Bitstream Vera Sans', 'Computer Modern Sans Serif', 'Lucida Grande', 'Verdana', 'Geneva', 'Lucid', 'Arial', 'Helvetica', 'Avant Garde', sans-serif; text-anchor: start" x="770.992188" y="55.114375" transform="rotate(-0 770.992188 55.114375)">gcc-14.2 - V2</text>
    </g>
    <g id="line2d_29">
     <path d="M 742.992188 66.2925 
L 752.992188 66.2925 
L 762.992188 66.2925 
" style="fill: none; stroke: #2ca02c; stroke-width: 2; stroke-linecap: square"/>
     <g>
      <use xlink:href="#m6d97c50763" x="752.992188" y="66.2925" style="fill: #2ca02c; stroke: #2ca02c"/>
     </g>
    </g>
    <g id="text_15">
     <text style="font: 10px 'DejaVu Sans', 'Bitstream Vera Sans', 'Computer Modern Sans Serif', 'Lucida Grande', 'Verdana', 'Geneva', 'Lucid', 'Arial', 'Helvetica', 'Avant Garde', sans-serif; text-anchor: start" x="770.992188" y="69.7925" transform="rotate(-0 770.992188 69.7925)">gcc-14.2 - TBB</text>
    </g>
    <g id="line2d_30">
     <path d="M 742.992188 80.970625 
L 752.992188 80.970625 
L 762.992188 80.970625 
" style="fill: none; stroke: #d62728; stroke-width: 2; stroke-linecap: square"/>
     <g>
      <use xlink:href="#mf1d51cf554" x="752.992188" y="80.970625" style="fill: #d62728; stroke: #d62728"/>
     </g>
    </g>
    <g id="text_16">
     <text style="font: 10px 'DejaVu Sans', 'Bitstream Vera Sans', 'Computer Modern Sans Serif', 'Lucida Grande', 'Verdana', 'Geneva', 'Lucid', 'Arial', 'Helvetica', 'Avant Garde', sans-serif; text-anchor: start" x="770.992188" y="84.470625" transform="rotate(-0 770.992188 84.470625)">gcc-4.2 - V1</text>
    </g>
    <g id="line2d_31">
     <path d="M 742.992188 95.64875 
L 752.992188 95.64875 
L 762.992188 95.64875 
" style="fill: none; stroke: #9467bd; stroke-width: 2; stroke-linecap: square"/>
     <g>
      <use xlink:href="#m4a3d4f0d85" x="752.992188" y="95.64875" style="fill: #9467bd; stroke: #9467bd"/>
     </g>
    </g>
    <g id="text_17">
     <text style="font: 10px 'DejaVu Sans', 'Bitstream Vera Sans', 'Computer Modern Sans Serif', 'Lucida Grande', 'Verdana', 'Geneva', 'Lucid', 'Arial', 'Helvetica', 'Avant Garde', sans-serif; text-anchor: start" x="770.992188" y="99.14875" transform="rotate(-0 770.992188 99.14875)">gcc-4.2 - V2</text>
    </g>
    <g id="line2d_32">
     <path d="M 742.992188 110.326875 
L 752.992188 110.326875 
L 762.992188 110.326875 
" style="fill: none; stroke: #8c564b; stroke-width: 2; stroke-linecap: square"/>
     <g>
      <use xlink:href="#m326e8512a0" x="752.992188" y="110.326875" style="fill: #8c564b; stroke: #8c564b"/>
     </g>
    </g>
    <g id="text_18">
     <text style="font: 10px 'DejaVu Sans', 'Bitstream Vera Sans', 'Computer Modern Sans Serif', 'Lucida Grande', 'Verdana', 'Geneva', 'Lucid', 'Arial', 'Helvetica', 'Avant Garde', sans-serif; text-anchor: start" x="770.992188" y="113.826875" transform="rotate(-0 770.992188 113.826875)">gcc-4.2 - TBB</text>
    </g>
   </g>
  </g>
 </g>
 <defs>
  <clipPath id="pcc0122763d">
   <rect x="64.41375" y="23.837813" width="637.69375" height="505.470313"/>
  </clipPath>
 </defs>
</svg>
