<?xml version="1.0" encoding="utf-8" standalone="no"?>
<!DOCTYPE svg PUBLIC "-//W3C//DTD SVG 1.1//EN"
  "http://www.w3.org/Graphics/SVG/1.1/DTD/svg11.dtd">
<svg xmlns:xlink="http://www.w3.org/1999/xlink" width="855.204687pt" height="568.8pt" viewBox="0 0 855.204687 568.8" xmlns="http://www.w3.org/2000/svg" version="1.1">
 <metadata>
  <rdf:RDF xmlns:dc="http://purl.org/dc/elements/1.1/" xmlns:cc="http://creativecommons.org/ns#" xmlns:rdf="http://www.w3.org/1999/02/22-rdf-syntax-ns#">
   <cc:Work>
    <dc:type rdf:resource="http://purl.org/dc/dcmitype/StillImage"/>
    <dc:date>2025-08-13T22:07:40.819275</dc:date>
    <dc:format>image/svg+xml</dc:format>
    <dc:creator>
     <cc:Agent>
      <dc:title>Matplotlib v3.9.4, https://matplotlib.org/</dc:title>
     </cc:Agent>
    </dc:creator>
   </cc:Work>
  </rdf:RDF>
 </metadata>
 <defs>
  <style type="text/css">*{stroke-linejoin: round; stroke-linecap: butt}</style>
 </defs>
 <g id="figure_1">
  <g id="patch_1">
   <path d="M 0 568.8 
L 855.204687 568.8 
L 855.204687 0 
L 0 0 
z
" style="fill: #ffffff"/>
  </g>
  <g id="axes_1">
   <g id="patch_2">
    <path d="M 64.41375 529.308125 
L 702.1075 529.308125 
L 702.1075 23.837812 
L 64.41375 23.837812 
z
" style="fill: #ffffff"/>
   </g>
   <g id="matplotlib.axis_1">
    <g id="xtick_1">
     <g id="line2d_1">
      <path d="M 132.047936 529.308125 
L 132.047936 23.837812 
" clip-path="url(#pc1bb2b845f)" style="fill: none; stroke: #b0b0b0; stroke-opacity: 0.3; stroke-width: 0.8; stroke-linecap: square"/>
     </g>
     <g id="line2d_2">
      <defs>
       <path id="m25176ebdd1" d="M 0 0 
L 0 3.5 
" style="stroke: #000000; stroke-width: 0.8"/>
      </defs>
      <g>
       <use xlink:href="#m25176ebdd1" x="132.047936" y="529.308125" style="stroke: #000000; stroke-width: 0.8"/>
      </g>
     </g>
     <g id="text_1">
      <text style="font: 10px 'DejaVu Sans', 'Bitstream Vera Sans', 'Computer Modern Sans Serif', 'Lucida Grande', 'Verdana', 'Geneva', 'Lucid', 'Arial', 'Helvetica', 'Avant Garde', sans-serif; text-anchor: middle" x="132.047936" y="543.906563" transform="rotate(-0 132.047936 543.906563)">72</text>
     </g>
    </g>
    <g id="xtick_2">
     <g id="line2d_3">
      <path d="M 209.344148 529.308125 
L 209.344148 23.837812 
" clip-path="url(#pc1bb2b845f)" style="fill: none; stroke: #b0b0b0; stroke-opacity: 0.3; stroke-width: 0.8; stroke-linecap: square"/>
     </g>
     <g id="line2d_4">
      <g>
       <use xlink:href="#m25176ebdd1" x="209.344148" y="529.308125" style="stroke: #000000; stroke-width: 0.8"/>
      </g>
     </g>
     <g id="text_2">
      <text style="font: 10px 'DejaVu Sans', 'Bitstream Vera Sans', 'Computer Modern Sans Serif', 'Lucida Grande', 'Verdana', 'Geneva', 'Lucid', 'Arial', 'Helvetica', 'Avant Garde', sans-serif; text-anchor: middle" x="209.344148" y="543.906563" transform="rotate(-0 209.344148 543.906563)">74</text>
     </g>
    </g>
    <g id="xtick_3">
     <g id="line2d_5">
      <path d="M 286.64036 529.308125 
L 286.64036 23.837812 
" clip-path="url(#pc1bb2b845f)" style="fill: none; stroke: #b0b0b0; stroke-opacity: 0.3; stroke-width: 0.8; stroke-linecap: square"/>
     </g>
     <g id="line2d_6">
      <g>
       <use xlink:href="#m25176ebdd1" x="286.64036" y="529.308125" style="stroke: #000000; stroke-width: 0.8"/>
      </g>
     </g>
     <g id="text_3">
      <text style="font: 10px 'DejaVu Sans', 'Bitstream Vera Sans', 'Computer Modern Sans Serif', 'Lucida Grande', 'Verdana', 'Geneva', 'Lucid', 'Arial', 'Helvetica', 'Avant Garde', sans-serif; text-anchor: middle" x="286.64036" y="543.906563" transform="rotate(-0 286.64036 543.906563)">76</text>
     </g>
    </g>
    <g id="xtick_4">
     <g id="line2d_7">
      <path d="M 363.936572 529.308125 
L 363.936572 23.837812 
" clip-path="url(#pc1bb2b845f)" style="fill: none; stroke: #b0b0b0; stroke-opacity: 0.3; stroke-width: 0.8; stroke-linecap: square"/>
     </g>
     <g id="line2d_8">
      <g>
       <use xlink:href="#m25176ebdd1" x="363.936572" y="529.308125" style="stroke: #000000; stroke-width: 0.8"/>
      </g>
     </g>
     <g id="text_4">
      <text style="font: 10px 'DejaVu Sans', 'Bitstream Vera Sans', 'Computer Modern Sans Serif', 'Lucida Grande', 'Verdana', 'Geneva', 'Lucid', 'Arial', 'Helvetica', 'Avant Garde', sans-serif; text-anchor: middle" x="363.936572" y="543.906563" transform="rotate(-0 363.936572 543.906563)">78</text>
     </g>
    </g>
    <g id="xtick_5">
     <g id="line2d_9">
      <path d="M 441.232784 529.308125 
L 441.232784 23.837812 
" clip-path="url(#pc1bb2b845f)" style="fill: none; stroke: #b0b0b0; stroke-opacity: 0.3; stroke-width: 0.8; stroke-linecap: square"/>
     </g>
     <g id="line2d_10">
      <g>
       <use xlink:href="#m25176ebdd1" x="441.232784" y="529.308125" style="stroke: #000000; stroke-width: 0.8"/>
      </g>
     </g>
     <g id="text_5">
      <text style="font: 10px 'DejaVu Sans', 'Bitstream Vera Sans', 'Computer Modern Sans Serif', 'Lucida Grande', 'Verdana', 'Geneva', 'Lucid', 'Arial', 'Helvetica', 'Avant Garde', sans-serif; text-anchor: middle" x="441.232784" y="543.906563" transform="rotate(-0 441.232784 543.906563)">80</text>
     </g>
    </g>
    <g id="xtick_6">
     <g id="line2d_11">
      <path d="M 518.528996 529.308125 
L 518.528996 23.837812 
" clip-path="url(#pc1bb2b845f)" style="fill: none; stroke: #b0b0b0; stroke-opacity: 0.3; stroke-width: 0.8; stroke-linecap: square"/>
     </g>
     <g id="line2d_12">
      <g>
       <use xlink:href="#m25176ebdd1" x="518.528996" y="529.308125" style="stroke: #000000; stroke-width: 0.8"/>
      </g>
     </g>
     <g id="text_6">
      <text style="font: 10px 'DejaVu Sans', 'Bitstream Vera Sans', 'Computer Modern Sans Serif', 'Lucida Grande', 'Verdana', 'Geneva', 'Lucid', 'Arial', 'Helvetica', 'Avant Garde', sans-serif; text-anchor: middle" x="518.528996" y="543.906563" transform="rotate(-0 518.528996 543.906563)">82</text>
     </g>
    </g>
    <g id="xtick_7">
     <g id="line2d_13">
      <path d="M 595.825208 529.308125 
L 595.825208 23.837812 
" clip-path="url(#pc1bb2b845f)" style="fill: none; stroke: #b0b0b0; stroke-opacity: 0.3; stroke-width: 0.8; stroke-linecap: square"/>
     </g>
     <g id="line2d_14">
      <g>
       <use xlink:href="#m25176ebdd1" x="595.825208" y="529.308125" style="stroke: #000000; stroke-width: 0.8"/>
      </g>
     </g>
     <g id="text_7">
      <text style="font: 10px 'DejaVu Sans', 'Bitstream Vera Sans', 'Computer Modern Sans Serif', 'Lucida Grande', 'Verdana', 'Geneva', 'Lucid', 'Arial', 'Helvetica', 'Avant Garde', sans-serif; text-anchor: middle" x="595.825208" y="543.906563" transform="rotate(-0 595.825208 543.906563)">84</text>
     </g>
    </g>
    <g id="xtick_8">
     <g id="line2d_15">
      <path d="M 673.12142 529.308125 
L 673.12142 23.837812 
" clip-path="url(#pc1bb2b845f)" style="fill: none; stroke: #b0b0b0; stroke-opacity: 0.3; stroke-width: 0.8; stroke-linecap: square"/>
     </g>
     <g id="line2d_16">
      <g>
       <use xlink:href="#m25176ebdd1" x="673.12142" y="529.308125" style="stroke: #000000; stroke-width: 0.8"/>
      </g>
     </g>
     <g id="text_8">
      <text style="font: 10px 'DejaVu Sans', 'Bitstream Vera Sans', 'Computer Modern Sans Serif', 'Lucida Grande', 'Verdana', 'Geneva', 'Lucid', 'Arial', 'Helvetica', 'Avant Garde', sans-serif; text-anchor: middle" x="673.12142" y="543.906563" transform="rotate(-0 673.12142 543.906563)">86</text>
     </g>
    </g>
    <g id="text_9">
     <text style="font: 12px 'DejaVu Sans', 'Bitstream Vera Sans', 'Computer Modern Sans Serif', 'Lucida Grande', 'Verdana', 'Geneva', 'Lucid', 'Arial', 'Helvetica', 'Avant Garde', sans-serif; text-anchor: middle" x="383.260625" y="559.104375" transform="rotate(-0 383.260625 559.104375)">Build Number</text>
    </g>
   </g>
   <g id="matplotlib.axis_2">
    <g id="ytick_1">
     <g id="line2d_17">
      <defs>
       <path id="m773e1bea88" d="M 0 0 
L -2 0 
" style="stroke: #000000; stroke-width: 0.6"/>
      </defs>
      <g>
       <use xlink:href="#m773e1bea88" x="64.41375" y="514.915957" style="stroke: #000000; stroke-width: 0.6"/>
      </g>
     </g>
     <g id="text_10">
      <!-- $\mathdefault{5\times10^{7}}$ -->
      <g transform="translate(22.81375 518.715175)">
       <text>
        <tspan style="font: 10px 'DejaVu Sans'" x="0 8.310547 18.637695 25" y="-0.06406250000000036">5×10</tspan>
        <tspan style="font: 7px 'DejaVu Sans'" x="31.458008" y="-3.8921875000000004">7</tspan>
       </text>
      </g>
     </g>
    </g>
    <g id="ytick_2">
     <g id="line2d_18">
      <g>
       <use xlink:href="#m773e1bea88" x="64.41375" y="288.174215" style="stroke: #000000; stroke-width: 0.6"/>
      </g>
     </g>
     <g id="text_11">
      <!-- $\mathdefault{6\times10^{7}}$ -->
      <g transform="translate(22.81375 291.973434)">
       <text>
        <tspan style="font: 10px 'DejaVu Sans'" x="0 8.310547 18.637695 25" y="-0.06406250000000036">6×10</tspan>
        <tspan style="font: 7px 'DejaVu Sans'" x="31.458008" y="-3.8921875000000004">7</tspan>
       </text>
      </g>
     </g>
    </g>
    <g id="ytick_3">
     <g id="line2d_19">
      <g>
       <use xlink:href="#m773e1bea88" x="64.41375" y="96.466805" style="stroke: #000000; stroke-width: 0.6"/>
      </g>
     </g>
     <g id="text_12">
      <!-- $\mathdefault{7\times10^{7}}$ -->
      <g transform="translate(22.81375 100.266023)">
       <text>
        <tspan style="font: 10px 'DejaVu Sans'" x="0 8.310547 18.637695 25" y="-0.06406250000000036">7×10</tspan>
        <tspan style="font: 7px 'DejaVu Sans'" x="31.458008" y="-3.8921875000000004">7</tspan>
       </text>
      </g>
     </g>
    </g>
    <g id="text_13">
     <text style="font: 12px 'DejaVu Sans', 'Bitstream Vera Sans', 'Computer Modern Sans Serif', 'Lucida Grande', 'Verdana', 'Geneva', 'Lucid', 'Arial', 'Helvetica', 'Avant Garde', sans-serif; text-anchor: middle" x="16.318125" y="276.572969" transform="rotate(-90 16.318125 276.572969)">Median Elapsed Time (nanoseconds)</text>
    </g>
   </g>
   <g id="line2d_20">
    <path d="M 93.39983 493.691829 
L 132.047936 490.814075 
L 170.696042 487.494679 
L 209.344148 487.145326 
L 247.992254 488.410505 
L 286.64036 475.327557 
L 325.288466 487.596827 
L 363.936572 488.415686 
L 402.584678 489.713847 
L 441.232784 457.081027 
L 479.88089 483.450798 
L 518.528996 486.101722 
L 557.177102 488.754486 
L 595.825208 490.455908 
L 634.473314 482.796643 
L 673.12142 488.14356 
" clip-path="url(#pc1bb2b845f)" style="fill: none; stroke: #1f77b4; stroke-width: 2; stroke-linecap: square"/>
    <defs>
     <path id="mec0adfe9e9" d="M 0 3 
C 0.795609 3 1.55874 2.683901 2.12132 2.12132 
C 2.683901 1.55874 3 0.795609 3 0 
C 3 -0.795609 2.683901 -1.55874 2.12132 -2.12132 
C 1.55874 -2.683901 0.795609 -3 0 -3 
C -0.795609 -3 -1.55874 -2.683901 -2.12132 -2.12132 
C -2.683901 -1.55874 -3 -0.795609 -3 0 
C -3 0.795609 -2.683901 1.55874 -2.12132 2.12132 
C -1.55874 2.683901 -0.795609 3 0 3 
z
" style="stroke: #1f77b4"/>
    </defs>
    <g clip-path="url(#pc1bb2b845f)">
     <use xlink:href="#mec0adfe9e9" x="93.39983" y="493.691829" style="fill: #1f77b4; stroke: #1f77b4"/>
     <use xlink:href="#mec0adfe9e9" x="132.047936" y="490.814075" style="fill: #1f77b4; stroke: #1f77b4"/>
     <use xlink:href="#mec0adfe9e9" x="170.696042" y="487.494679" style="fill: #1f77b4; stroke: #1f77b4"/>
     <use xlink:href="#mec0adfe9e9" x="209.344148" y="487.145326" style="fill: #1f77b4; stroke: #1f77b4"/>
     <use xlink:href="#mec0adfe9e9" x="247.992254" y="488.410505" style="fill: #1f77b4; stroke: #1f77b4"/>
     <use xlink:href="#mec0adfe9e9" x="286.64036" y="475.327557" style="fill: #1f77b4; stroke: #1f77b4"/>
     <use xlink:href="#mec0adfe9e9" x="325.288466" y="487.596827" style="fill: #1f77b4; stroke: #1f77b4"/>
     <use xlink:href="#mec0adfe9e9" x="363.936572" y="488.415686" style="fill: #1f77b4; stroke: #1f77b4"/>
     <use xlink:href="#mec0adfe9e9" x="402.584678" y="489.713847" style="fill: #1f77b4; stroke: #1f77b4"/>
     <use xlink:href="#mec0adfe9e9" x="441.232784" y="457.081027" style="fill: #1f77b4; stroke: #1f77b4"/>
     <use xlink:href="#mec0adfe9e9" x="479.88089" y="483.450798" style="fill: #1f77b4; stroke: #1f77b4"/>
     <use xlink:href="#mec0adfe9e9" x="518.528996" y="486.101722" style="fill: #1f77b4; stroke: #1f77b4"/>
     <use xlink:href="#mec0adfe9e9" x="557.177102" y="488.754486" style="fill: #1f77b4; stroke: #1f77b4"/>
     <use xlink:href="#mec0adfe9e9" x="595.825208" y="490.455908" style="fill: #1f77b4; stroke: #1f77b4"/>
     <use xlink:href="#mec0adfe9e9" x="634.473314" y="482.796643" style="fill: #1f77b4; stroke: #1f77b4"/>
     <use xlink:href="#mec0adfe9e9" x="673.12142" y="488.14356" style="fill: #1f77b4; stroke: #1f77b4"/>
    </g>
   </g>
   <g id="line2d_21">
    <path d="M 93.39983 214.978781 
L 132.047936 182.906967 
L 170.696042 272.956006 
L 209.344148 182.029092 
L 247.992254 268.872976 
L 286.64036 274.785303 
L 325.288466 171.913022 
L 363.936572 270.679187 
L 402.584678 182.508331 
L 441.232784 270.8712 
L 479.88089 182.657976 
L 518.528996 183.510793 
L 557.177102 272.463822 
L 595.825208 182.405436 
L 634.473314 272.552038 
L 673.12142 181.404628 
" clip-path="url(#pc1bb2b845f)" style="fill: none; stroke: #ff7f0e; stroke-width: 2; stroke-linecap: square"/>
    <defs>
     <path id="ma0c9555a02" d="M 0 3 
C 0.795609 3 1.55874 2.683901 2.12132 2.12132 
C 2.683901 1.55874 3 0.795609 3 0 
C 3 -0.795609 2.683901 -1.55874 2.12132 -2.12132 
C 1.55874 -2.683901 0.795609 -3 0 -3 
C -0.795609 -3 -1.55874 -2.683901 -2.12132 -2.12132 
C -2.683901 -1.55874 -3 -0.795609 -3 0 
C -3 0.795609 -2.683901 1.55874 -2.12132 2.12132 
C -1.55874 2.683901 -0.795609 3 0 3 
z
" style="stroke: #ff7f0e"/>
    </defs>
    <g clip-path="url(#pc1bb2b845f)">
     <use xlink:href="#ma0c9555a02" x="93.39983" y="214.978781" style="fill: #ff7f0e; stroke: #ff7f0e"/>
     <use xlink:href="#ma0c9555a02" x="132.047936" y="182.906967" style="fill: #ff7f0e; stroke: #ff7f0e"/>
     <use xlink:href="#ma0c9555a02" x="170.696042" y="272.956006" style="fill: #ff7f0e; stroke: #ff7f0e"/>
     <use xlink:href="#ma0c9555a02" x="209.344148" y="182.029092" style="fill: #ff7f0e; stroke: #ff7f0e"/>
     <use xlink:href="#ma0c9555a02" x="247.992254" y="268.872976" style="fill: #ff7f0e; stroke: #ff7f0e"/>
     <use xlink:href="#ma0c9555a02" x="286.64036" y="274.785303" style="fill: #ff7f0e; stroke: #ff7f0e"/>
     <use xlink:href="#ma0c9555a02" x="325.288466" y="171.913022" style="fill: #ff7f0e; stroke: #ff7f0e"/>
     <use xlink:href="#ma0c9555a02" x="363.936572" y="270.679187" style="fill: #ff7f0e; stroke: #ff7f0e"/>
     <use xlink:href="#ma0c9555a02" x="402.584678" y="182.508331" style="fill: #ff7f0e; stroke: #ff7f0e"/>
     <use xlink:href="#ma0c9555a02" x="441.232784" y="270.8712" style="fill: #ff7f0e; stroke: #ff7f0e"/>
     <use xlink:href="#ma0c9555a02" x="479.88089" y="182.657976" style="fill: #ff7f0e; stroke: #ff7f0e"/>
     <use xlink:href="#ma0c9555a02" x="518.528996" y="183.510793" style="fill: #ff7f0e; stroke: #ff7f0e"/>
     <use xlink:href="#ma0c9555a02" x="557.177102" y="272.463822" style="fill: #ff7f0e; stroke: #ff7f0e"/>
     <use xlink:href="#ma0c9555a02" x="595.825208" y="182.405436" style="fill: #ff7f0e; stroke: #ff7f0e"/>
     <use xlink:href="#ma0c9555a02" x="634.473314" y="272.552038" style="fill: #ff7f0e; stroke: #ff7f0e"/>
     <use xlink:href="#ma0c9555a02" x="673.12142" y="181.404628" style="fill: #ff7f0e; stroke: #ff7f0e"/>
    </g>
   </g>
   <g id="line2d_22">
    <path d="M 93.39983 506.332202 
L 132.047936 488.22548 
L 170.696042 487.132838 
L 209.344148 488.186015 
L 247.992254 486.766103 
L 286.64036 489.39061 
L 325.288466 488.226181 
L 363.936572 487.796971 
L 402.584678 488.498719 
L 441.232784 489.635154 
L 479.88089 487.489777 
L 518.528996 488.674621 
L 557.177102 488.025081 
L 595.825208 486.62109 
L 634.473314 488.454844 
L 673.12142 487.47967 
" clip-path="url(#pc1bb2b845f)" style="fill: none; stroke: #2ca02c; stroke-width: 2; stroke-linecap: square"/>
    <defs>
     <path id="mf6f6f789fb" d="M 0 3 
C 0.795609 3 1.55874 2.683901 2.12132 2.12132 
C 2.683901 1.55874 3 0.795609 3 0 
C 3 -0.795609 2.683901 -1.55874 2.12132 -2.12132 
C 1.55874 -2.683901 0.795609 -3 0 -3 
C -0.795609 -3 -1.55874 -2.683901 -2.12132 -2.12132 
C -2.683901 -1.55874 -3 -0.795609 -3 0 
C -3 0.795609 -2.683901 1.55874 -2.12132 2.12132 
C -1.55874 2.683901 -0.795609 3 0 3 
z
" style="stroke: #2ca02c"/>
    </defs>
    <g clip-path="url(#pc1bb2b845f)">
     <use xlink:href="#mf6f6f789fb" x="93.39983" y="506.332202" style="fill: #2ca02c; stroke: #2ca02c"/>
     <use xlink:href="#mf6f6f789fb" x="132.047936" y="488.22548" style="fill: #2ca02c; stroke: #2ca02c"/>
     <use xlink:href="#mf6f6f789fb" x="170.696042" y="487.132838" style="fill: #2ca02c; stroke: #2ca02c"/>
     <use xlink:href="#mf6f6f789fb" x="209.344148" y="488.186015" style="fill: #2ca02c; stroke: #2ca02c"/>
     <use xlink:href="#mf6f6f789fb" x="247.992254" y="486.766103" style="fill: #2ca02c; stroke: #2ca02c"/>
     <use xlink:href="#mf6f6f789fb" x="286.64036" y="489.39061" style="fill: #2ca02c; stroke: #2ca02c"/>
     <use xlink:href="#mf6f6f789fb" x="325.288466" y="488.226181" style="fill: #2ca02c; stroke: #2ca02c"/>
     <use xlink:href="#mf6f6f789fb" x="363.936572" y="487.796971" style="fill: #2ca02c; stroke: #2ca02c"/>
     <use xlink:href="#mf6f6f789fb" x="402.584678" y="488.498719" style="fill: #2ca02c; stroke: #2ca02c"/>
     <use xlink:href="#mf6f6f789fb" x="441.232784" y="489.635154" style="fill: #2ca02c; stroke: #2ca02c"/>
     <use xlink:href="#mf6f6f789fb" x="479.88089" y="487.489777" style="fill: #2ca02c; stroke: #2ca02c"/>
     <use xlink:href="#mf6f6f789fb" x="518.528996" y="488.674621" style="fill: #2ca02c; stroke: #2ca02c"/>
     <use xlink:href="#mf6f6f789fb" x="557.177102" y="488.025081" style="fill: #2ca02c; stroke: #2ca02c"/>
     <use xlink:href="#mf6f6f789fb" x="595.825208" y="486.62109" style="fill: #2ca02c; stroke: #2ca02c"/>
     <use xlink:href="#mf6f6f789fb" x="634.473314" y="488.454844" style="fill: #2ca02c; stroke: #2ca02c"/>
     <use xlink:href="#mf6f6f789fb" x="673.12142" y="487.47967" style="fill: #2ca02c; stroke: #2ca02c"/>
    </g>
   </g>
   <g id="line2d_23">
    <path d="M 93.39983 284.582811 
L 132.047936 287.362379 
L 170.696042 286.431637 
L 209.344148 285.037666 
L 247.992254 287.11432 
L 286.64036 282.282277 
L 325.288466 283.577155 
L 363.936572 286.238334 
L 402.584678 283.759492 
L 441.232784 286.297496 
L 479.88089 287.752534 
L 518.528996 281.162939 
L 557.177102 284.020288 
L 634.473314 284.844574 
L 673.12142 286.186715 
" clip-path="url(#pc1bb2b845f)" style="fill: none; stroke: #d62728; stroke-width: 2; stroke-linecap: square"/>
    <defs>
     <path id="m9f8631607f" d="M 0 3 
C 0.795609 3 1.55874 2.683901 2.12132 2.12132 
C 2.683901 1.55874 3 0.795609 3 0 
C 3 -0.795609 2.683901 -1.55874 2.12132 -2.12132 
C 1.55874 -2.683901 0.795609 -3 0 -3 
C -0.795609 -3 -1.55874 -2.683901 -2.12132 -2.12132 
C -2.683901 -1.55874 -3 -0.795609 -3 0 
C -3 0.795609 -2.683901 1.55874 -2.12132 2.12132 
C -1.55874 2.683901 -0.795609 3 0 3 
z
" style="stroke: #d62728"/>
    </defs>
    <g clip-path="url(#pc1bb2b845f)">
     <use xlink:href="#m9f8631607f" x="93.39983" y="284.582811" style="fill: #d62728; stroke: #d62728"/>
     <use xlink:href="#m9f8631607f" x="132.047936" y="287.362379" style="fill: #d62728; stroke: #d62728"/>
     <use xlink:href="#m9f8631607f" x="170.696042" y="286.431637" style="fill: #d62728; stroke: #d62728"/>
     <use xlink:href="#m9f8631607f" x="209.344148" y="285.037666" style="fill: #d62728; stroke: #d62728"/>
     <use xlink:href="#m9f8631607f" x="247.992254" y="287.11432" style="fill: #d62728; stroke: #d62728"/>
     <use xlink:href="#m9f8631607f" x="286.64036" y="282.282277" style="fill: #d62728; stroke: #d62728"/>
     <use xlink:href="#m9f8631607f" x="325.288466" y="283.577155" style="fill: #d62728; stroke: #d62728"/>
     <use xlink:href="#m9f8631607f" x="363.936572" y="286.238334" style="fill: #d62728; stroke: #d62728"/>
     <use xlink:href="#m9f8631607f" x="402.584678" y="283.759492" style="fill: #d62728; stroke: #d62728"/>
     <use xlink:href="#m9f8631607f" x="441.232784" y="286.297496" style="fill: #d62728; stroke: #d62728"/>
     <use xlink:href="#m9f8631607f" x="479.88089" y="287.752534" style="fill: #d62728; stroke: #d62728"/>
     <use xlink:href="#m9f8631607f" x="518.528996" y="281.162939" style="fill: #d62728; stroke: #d62728"/>
     <use xlink:href="#m9f8631607f" x="557.177102" y="284.020288" style="fill: #d62728; stroke: #d62728"/>
     <use xlink:href="#m9f8631607f" x="634.473314" y="284.844574" style="fill: #d62728; stroke: #d62728"/>
     <use xlink:href="#m9f8631607f" x="673.12142" y="286.186715" style="fill: #d62728; stroke: #d62728"/>
    </g>
   </g>
   <g id="line2d_24">
    <path d="M 93.39983 72.672576 
L 132.047936 71.170534 
L 170.696042 171.757446 
L 209.344148 76.360371 
L 247.992254 175.593608 
L 286.64036 76.238119 
L 325.288466 75.280247 
L 363.936572 75.944887 
L 402.584678 77.695079 
L 441.232784 79.242966 
L 479.88089 75.394225 
L 518.528996 76.179059 
L 557.177102 75.413168 
L 634.473314 46.813736 
L 673.12142 74.863866 
" clip-path="url(#pc1bb2b845f)" style="fill: none; stroke: #9467bd; stroke-width: 2; stroke-linecap: square"/>
    <defs>
     <path id="m672ba4e1c7" d="M 0 3 
C 0.795609 3 1.55874 2.683901 2.12132 2.12132 
C 2.683901 1.55874 3 0.795609 3 0 
C 3 -0.795609 2.683901 -1.55874 2.12132 -2.12132 
C 1.55874 -2.683901 0.795609 -3 0 -3 
C -0.795609 -3 -1.55874 -2.683901 -2.12132 -2.12132 
C -2.683901 -1.55874 -3 -0.795609 -3 0 
C -3 0.795609 -2.683901 1.55874 -2.12132 2.12132 
C -1.55874 2.683901 -0.795609 3 0 3 
z
" style="stroke: #9467bd"/>
    </defs>
    <g clip-path="url(#pc1bb2b845f)">
     <use xlink:href="#m672ba4e1c7" x="93.39983" y="72.672576" style="fill: #9467bd; stroke: #9467bd"/>
     <use xlink:href="#m672ba4e1c7" x="132.047936" y="71.170534" style="fill: #9467bd; stroke: #9467bd"/>
     <use xlink:href="#m672ba4e1c7" x="170.696042" y="171.757446" style="fill: #9467bd; stroke: #9467bd"/>
     <use xlink:href="#m672ba4e1c7" x="209.344148" y="76.360371" style="fill: #9467bd; stroke: #9467bd"/>
     <use xlink:href="#m672ba4e1c7" x="247.992254" y="175.593608" style="fill: #9467bd; stroke: #9467bd"/>
     <use xlink:href="#m672ba4e1c7" x="286.64036" y="76.238119" style="fill: #9467bd; stroke: #9467bd"/>
     <use xlink:href="#m672ba4e1c7" x="325.288466" y="75.280247" style="fill: #9467bd; stroke: #9467bd"/>
     <use xlink:href="#m672ba4e1c7" x="363.936572" y="75.944887" style="fill: #9467bd; stroke: #9467bd"/>
     <use xlink:href="#m672ba4e1c7" x="402.584678" y="77.695079" style="fill: #9467bd; stroke: #9467bd"/>
     <use xlink:href="#m672ba4e1c7" x="441.232784" y="79.242966" style="fill: #9467bd; stroke: #9467bd"/>
     <use xlink:href="#m672ba4e1c7" x="479.88089" y="75.394225" style="fill: #9467bd; stroke: #9467bd"/>
     <use xlink:href="#m672ba4e1c7" x="518.528996" y="76.179059" style="fill: #9467bd; stroke: #9467bd"/>
     <use xlink:href="#m672ba4e1c7" x="557.177102" y="75.413168" style="fill: #9467bd; stroke: #9467bd"/>
     <use xlink:href="#m672ba4e1c7" x="634.473314" y="46.813736" style="fill: #9467bd; stroke: #9467bd"/>
     <use xlink:href="#m672ba4e1c7" x="673.12142" y="74.863866" style="fill: #9467bd; stroke: #9467bd"/>
    </g>
   </g>
   <g id="line2d_25">
    <path d="M 93.39983 288.410145 
L 132.047936 287.725399 
L 170.696042 287.42418 
L 209.344148 287.301725 
L 247.992254 289.195523 
L 286.64036 288.223477 
L 325.288466 287.868621 
L 363.936572 288.889558 
L 402.584678 288.158774 
L 441.232784 288.526643 
L 479.88089 287.650844 
L 518.528996 289.356014 
L 557.177102 285.698464 
L 634.473314 285.728186 
L 673.12142 288.513851 
" clip-path="url(#pc1bb2b845f)" style="fill: none; stroke: #8c564b; stroke-width: 2; stroke-linecap: square"/>
    <defs>
     <path id="m9d3b35d82d" d="M 0 3 
C 0.795609 3 1.55874 2.683901 2.12132 2.12132 
C 2.683901 1.55874 3 0.795609 3 0 
C 3 -0.795609 2.683901 -1.55874 2.12132 -2.12132 
C 1.55874 -2.683901 0.795609 -3 0 -3 
C -0.795609 -3 -1.55874 -2.683901 -2.12132 -2.12132 
C -2.683901 -1.55874 -3 -0.795609 -3 0 
C -3 0.795609 -2.683901 1.55874 -2.12132 2.12132 
C -1.55874 2.683901 -0.795609 3 0 3 
z
" style="stroke: #8c564b"/>
    </defs>
    <g clip-path="url(#pc1bb2b845f)">
     <use xlink:href="#m9d3b35d82d" x="93.39983" y="288.410145" style="fill: #8c564b; stroke: #8c564b"/>
     <use xlink:href="#m9d3b35d82d" x="132.047936" y="287.725399" style="fill: #8c564b; stroke: #8c564b"/>
     <use xlink:href="#m9d3b35d82d" x="170.696042" y="287.42418" style="fill: #8c564b; stroke: #8c564b"/>
     <use xlink:href="#m9d3b35d82d" x="209.344148" y="287.301725" style="fill: #8c564b; stroke: #8c564b"/>
     <use xlink:href="#m9d3b35d82d" x="247.992254" y="289.195523" style="fill: #8c564b; stroke: #8c564b"/>
     <use xlink:href="#m9d3b35d82d" x="286.64036" y="288.223477" style="fill: #8c564b; stroke: #8c564b"/>
     <use xlink:href="#m9d3b35d82d" x="325.288466" y="287.868621" style="fill: #8c564b; stroke: #8c564b"/>
     <use xlink:href="#m9d3b35d82d" x="363.936572" y="288.889558" style="fill: #8c564b; stroke: #8c564b"/>
     <use xlink:href="#m9d3b35d82d" x="402.584678" y="288.158774" style="fill: #8c564b; stroke: #8c564b"/>
     <use xlink:href="#m9d3b35d82d" x="441.232784" y="288.526643" style="fill: #8c564b; stroke: #8c564b"/>
     <use xlink:href="#m9d3b35d82d" x="479.88089" y="287.650844" style="fill: #8c564b; stroke: #8c564b"/>
     <use xlink:href="#m9d3b35d82d" x="518.528996" y="289.356014" style="fill: #8c564b; stroke: #8c564b"/>
     <use xlink:href="#m9d3b35d82d" x="557.177102" y="285.698464" style="fill: #8c564b; stroke: #8c564b"/>
     <use xlink:href="#m9d3b35d82d" x="634.473314" y="285.728186" style="fill: #8c564b; stroke: #8c564b"/>
     <use xlink:href="#m9d3b35d82d" x="673.12142" y="288.513851" style="fill: #8c564b; stroke: #8c564b"/>
    </g>
   </g>
   <g id="patch_3">
    <path d="M 64.41375 529.308125 
L 64.41375 23.837812 
" style="fill: none; stroke: #000000; stroke-width: 0.8; stroke-linejoin: miter; stroke-linecap: square"/>
   </g>
   <g id="patch_4">
    <path d="M 702.1075 529.308125 
L 702.1075 23.837812 
" style="fill: none; stroke: #000000; stroke-width: 0.8; stroke-linejoin: miter; stroke-linecap: square"/>
   </g>
   <g id="patch_5">
    <path d="M 64.41375 529.308125 
L 702.1075 529.308125 
" style="fill: none; stroke: #000000; stroke-width: 0.8; stroke-linejoin: miter; stroke-linecap: square"/>
   </g>
   <g id="patch_6">
    <path d="M 64.41375 23.837812 
L 702.1075 23.837812 
" style="fill: none; stroke: #000000; stroke-width: 0.8; stroke-linejoin: miter; stroke-linecap: square"/>
   </g>
   <g id="text_14">
    <text style="font: 700 14px 'DejaVu Sans', 'Bitstream Vera Sans', 'Computer Modern Sans Serif', 'Lucida Grande', 'Verdana', 'Geneva', 'Lucid', 'Arial', 'Helvetica', 'Avant Garde', sans-serif; text-anchor: middle" x="383.260625" y="17.837813" transform="rotate(-0 383.260625 17.837813)">Taskthroughput - Performance Trend</text>
   </g>
   <g id="legend_1">
    <g id="patch_7">
     <path d="M 740.992188 119.906563 
L 846.004688 119.906563 
Q 848.004688 119.906563 848.004688 117.906563 
L 848.004688 30.837813 
Q 848.004688 28.837813 846.004688 28.837813 
L 740.992188 28.837813 
Q 738.992188 28.837813 738.992188 30.837813 
L 738.992188 117.906563 
Q 738.992188 119.906563 740.992188 119.906563 
z
" style="fill: #ffffff; opacity: 0.8; stroke: #cccccc; stroke-linejoin: miter"/>
    </g>
    <g id="line2d_26">
     <path d="M 742.992188 36.93625 
L 752.992188 36.93625 
L 762.992188 36.93625 
" style="fill: none; stroke: #1f77b4; stroke-width: 2; stroke-linecap: square"/>
     <g>
      <use xlink:href="#mec0adfe9e9" x="752.992188" y="36.93625" style="fill: #1f77b4; stroke: #1f77b4"/>
     </g>
    </g>
    <g id="text_15">
     <text style="font: 10px 'DejaVu Sans', 'Bitstream Vera Sans', 'Computer Modern Sans Serif', 'Lucida Grande', 'Verdana', 'Geneva', 'Lucid', 'Arial', 'Helvetica', 'Avant Garde', sans-serif; text-anchor: start" x="770.992188" y="40.43625" transform="rotate(-0 770.992188 40.43625)">gcc-14.2 - V1</text>
    </g>
    <g id="line2d_27">
     <path d="M 742.992188 51.614375 
L 752.992188 51.614375 
L 762.992188 51.614375 
" style="fill: none; stroke: #ff7f0e; stroke-width: 2; stroke-linecap: square"/>
     <g>
      <use xlink:href="#ma0c9555a02" x="752.992188" y="51.614375" style="fill: #ff7f0e; stroke: #ff7f0e"/>
     </g>
    </g>
    <g id="text_16">
     <text style="font: 10px 'DejaVu Sans', 'Bitstream Vera Sans', 'Computer Modern Sans Serif', 'Lucida Grande', 'Verdana', 'Geneva', 'Lucid', 'Arial', 'Helvetica', 'Avant Garde', sans-serif; text-anchor: start" x="770.992188" y="55.114375" transform="rotate(-0 770.992188 55.114375)">gcc-14.2 - V2</text>
    </g>
    <g id="line2d_28">
     <path d="M 742.992188 66.2925 
L 752.992188 66.2925 
L 762.992188 66.2925 
" style="fill: none; stroke: #2ca02c; stroke-width: 2; stroke-linecap: square"/>
     <g>
      <use xlink:href="#mf6f6f789fb" x="752.992188" y="66.2925" style="fill: #2ca02c; stroke: #2ca02c"/>
     </g>
    </g>
    <g id="text_17">
     <text style="font: 10px 'DejaVu Sans', 'Bitstream Vera Sans', 'Computer Modern Sans Serif', 'Lucida Grande', 'Verdana', 'Geneva', 'Lucid', 'Arial', 'Helvetica', 'Avant Garde', sans-serif; text-anchor: start" x="770.992188" y="69.7925" transform="rotate(-0 770.992188 69.7925)">gcc-14.2 - TBB</text>
    </g>
    <g id="line2d_29">
     <path d="M 742.992188 80.970625 
L 752.992188 80.970625 
L 762.992188 80.970625 
" style="fill: none; stroke: #d62728; stroke-width: 2; stroke-linecap: square"/>
     <g>
      <use xlink:href="#m9f8631607f" x="752.992188" y="80.970625" style="fill: #d62728; stroke: #d62728"/>
     </g>
    </g>
    <g id="text_18">
     <text style="font: 10px 'DejaVu Sans', 'Bitstream Vera Sans', 'Computer Modern Sans Serif', 'Lucida Grande', 'Verdana', 'Geneva', 'Lucid', 'Arial', 'Helvetica', 'Avant Garde', sans-serif; text-anchor: start" x="770.992188" y="84.470625" transform="rotate(-0 770.992188 84.470625)">gcc-4.2 - V1</text>
    </g>
    <g id="line2d_30">
     <path d="M 742.992188 95.64875 
L 752.992188 95.64875 
L 762.992188 95.64875 
" style="fill: none; stroke: #9467bd; stroke-width: 2; stroke-linecap: square"/>
     <g>
      <use xlink:href="#m672ba4e1c7" x="752.992188" y="95.64875" style="fill: #9467bd; stroke: #9467bd"/>
     </g>
    </g>
    <g id="text_19">
     <text style="font: 10px 'DejaVu Sans', 'Bitstream Vera Sans', 'Computer Modern Sans Serif', 'Lucida Grande', 'Verdana', 'Geneva', 'Lucid', 'Arial', 'Helvetica', 'Avant Garde', sans-serif; text-anchor: start" x="770.992188" y="99.14875" transform="rotate(-0 770.992188 99.14875)">gcc-4.2 - V2</text>
    </g>
    <g id="line2d_31">
     <path d="M 742.992188 110.326875 
L 752.992188 110.326875 
L 762.992188 110.326875 
" style="fill: none; stroke: #8c564b; stroke-width: 2; stroke-linecap: square"/>
     <g>
      <use xlink:href="#m9d3b35d82d" x="752.992188" y="110.326875" style="fill: #8c564b; stroke: #8c564b"/>
     </g>
    </g>
    <g id="text_20">
     <text style="font: 10px 'DejaVu Sans', 'Bitstream Vera Sans', 'Computer Modern Sans Serif', 'Lucida Grande', 'Verdana', 'Geneva', 'Lucid', 'Arial', 'Helvetica', 'Avant Garde', sans-serif; text-anchor: start" x="770.992188" y="113.826875" transform="rotate(-0 770.992188 113.826875)">gcc-4.2 - TBB</text>
    </g>
   </g>
  </g>
 </g>
 <defs>
  <clipPath id="pc1bb2b845f">
   <rect x="64.41375" y="23.837813" width="637.69375" height="505.470313"/>
  </clipPath>
 </defs>
</svg>
