<?xml version="1.0" encoding="utf-8" standalone="no"?>
<!DOCTYPE svg PUBLIC "-//W3C//DTD SVG 1.1//EN"
  "http://www.w3.org/Graphics/SVG/1.1/DTD/svg11.dtd">
<svg xmlns:xlink="http://www.w3.org/1999/xlink" width="855.536016pt" height="568.8pt" viewBox="0 0 855.536016 568.8" xmlns="http://www.w3.org/2000/svg" version="1.1">
 <metadata>
  <rdf:RDF xmlns:dc="http://purl.org/dc/elements/1.1/" xmlns:cc="http://creativecommons.org/ns#" xmlns:rdf="http://www.w3.org/1999/02/22-rdf-syntax-ns#">
   <cc:Work>
    <dc:type rdf:resource="http://purl.org/dc/dcmitype/StillImage"/>
    <dc:date>2025-10-14T04:52:20.998646</dc:date>
    <dc:format>image/svg+xml</dc:format>
    <dc:creator>
     <cc:Agent>
      <dc:title>Matplotlib v3.9.4, https://matplotlib.org/</dc:title>
     </cc:Agent>
    </dc:creator>
   </cc:Work>
  </rdf:RDF>
 </metadata>
 <defs>
  <style type="text/css">*{stroke-linejoin: round; stroke-linecap: butt}</style>
 </defs>
 <g id="figure_1">
  <g id="patch_1">
   <path d="M 0 568.8 
L 855.536016 568.8 
L 855.536016 0 
L 0 0 
z
" style="fill: #ffffff"/>
  </g>
  <g id="axes_1">
   <g id="patch_2">
    <path d="M 64.41375 529.308125 
L 708.734063 529.308125 
L 708.734063 23.837812 
L 64.41375 23.837812 
z
" style="fill: #ffffff"/>
   </g>
   <g id="matplotlib.axis_1">
    <g id="xtick_1">
     <g id="line2d_1">
      <path d="M 81.747042 529.308125 
L 81.747042 23.837812 
" clip-path="url(#p01b6aafde6)" style="fill: none; stroke: #b0b0b0; stroke-opacity: 0.3; stroke-width: 0.8; stroke-linecap: square"/>
     </g>
     <g id="line2d_2">
      <defs>
       <path id="m93324a08b5" d="M 0 0 
L 0 3.5 
" style="stroke: #000000; stroke-width: 0.8"/>
      </defs>
      <g>
       <use xlink:href="#m93324a08b5" x="81.747042" y="529.308125" style="stroke: #000000; stroke-width: 0.8"/>
      </g>
     </g>
     <g id="text_1">
      <text style="font: 10px 'DejaVu Sans', 'Bitstream Vera Sans', 'Computer Modern Sans Serif', 'Lucida Grande', 'Verdana', 'Geneva', 'Lucid', 'Arial', 'Helvetica', 'Avant Garde', sans-serif; text-anchor: middle" x="81.747042" y="543.906563" transform="rotate(-0 81.747042 543.906563)">70</text>
     </g>
    </g>
    <g id="xtick_2">
     <g id="line2d_3">
      <path d="M 201.286989 529.308125 
L 201.286989 23.837812 
" clip-path="url(#p01b6aafde6)" style="fill: none; stroke: #b0b0b0; stroke-opacity: 0.3; stroke-width: 0.8; stroke-linecap: square"/>
     </g>
     <g id="line2d_4">
      <g>
       <use xlink:href="#m93324a08b5" x="201.286989" y="529.308125" style="stroke: #000000; stroke-width: 0.8"/>
      </g>
     </g>
     <g id="text_2">
      <text style="font: 10px 'DejaVu Sans', 'Bitstream Vera Sans', 'Computer Modern Sans Serif', 'Lucida Grande', 'Verdana', 'Geneva', 'Lucid', 'Arial', 'Helvetica', 'Avant Garde', sans-serif; text-anchor: middle" x="201.286989" y="543.906563" transform="rotate(-0 201.286989 543.906563)">80</text>
     </g>
    </g>
    <g id="xtick_3">
     <g id="line2d_5">
      <path d="M 320.826936 529.308125 
L 320.826936 23.837812 
" clip-path="url(#p01b6aafde6)" style="fill: none; stroke: #b0b0b0; stroke-opacity: 0.3; stroke-width: 0.8; stroke-linecap: square"/>
     </g>
     <g id="line2d_6">
      <g>
       <use xlink:href="#m93324a08b5" x="320.826936" y="529.308125" style="stroke: #000000; stroke-width: 0.8"/>
      </g>
     </g>
     <g id="text_3">
      <text style="font: 10px 'DejaVu Sans', 'Bitstream Vera Sans', 'Computer Modern Sans Serif', 'Lucida Grande', 'Verdana', 'Geneva', 'Lucid', 'Arial', 'Helvetica', 'Avant Garde', sans-serif; text-anchor: middle" x="320.826936" y="543.906563" transform="rotate(-0 320.826936 543.906563)">90</text>
     </g>
    </g>
    <g id="xtick_4">
     <g id="line2d_7">
      <path d="M 440.366882 529.308125 
L 440.366882 23.837812 
" clip-path="url(#p01b6aafde6)" style="fill: none; stroke: #b0b0b0; stroke-opacity: 0.3; stroke-width: 0.8; stroke-linecap: square"/>
     </g>
     <g id="line2d_8">
      <g>
       <use xlink:href="#m93324a08b5" x="440.366882" y="529.308125" style="stroke: #000000; stroke-width: 0.8"/>
      </g>
     </g>
     <g id="text_4">
      <text style="font: 10px 'DejaVu Sans', 'Bitstream Vera Sans', 'Computer Modern Sans Serif', 'Lucida Grande', 'Verdana', 'Geneva', 'Lucid', 'Arial', 'Helvetica', 'Avant Garde', sans-serif; text-anchor: middle" x="440.366882" y="543.906563" transform="rotate(-0 440.366882 543.906563)">100</text>
     </g>
    </g>
    <g id="xtick_5">
     <g id="line2d_9">
      <path d="M 559.906829 529.308125 
L 559.906829 23.837812 
" clip-path="url(#p01b6aafde6)" style="fill: none; stroke: #b0b0b0; stroke-opacity: 0.3; stroke-width: 0.8; stroke-linecap: square"/>
     </g>
     <g id="line2d_10">
      <g>
       <use xlink:href="#m93324a08b5" x="559.906829" y="529.308125" style="stroke: #000000; stroke-width: 0.8"/>
      </g>
     </g>
     <g id="text_5">
      <text style="font: 10px 'DejaVu Sans', 'Bitstream Vera Sans', 'Computer Modern Sans Serif', 'Lucida Grande', 'Verdana', 'Geneva', 'Lucid', 'Arial', 'Helvetica', 'Avant Garde', sans-serif; text-anchor: middle" x="559.906829" y="543.906563" transform="rotate(-0 559.906829 543.906563)">110</text>
     </g>
    </g>
    <g id="xtick_6">
     <g id="line2d_11">
      <path d="M 679.446776 529.308125 
L 679.446776 23.837812 
" clip-path="url(#p01b6aafde6)" style="fill: none; stroke: #b0b0b0; stroke-opacity: 0.3; stroke-width: 0.8; stroke-linecap: square"/>
     </g>
     <g id="line2d_12">
      <g>
       <use xlink:href="#m93324a08b5" x="679.446776" y="529.308125" style="stroke: #000000; stroke-width: 0.8"/>
      </g>
     </g>
     <g id="text_6">
      <text style="font: 10px 'DejaVu Sans', 'Bitstream Vera Sans', 'Computer Modern Sans Serif', 'Lucida Grande', 'Verdana', 'Geneva', 'Lucid', 'Arial', 'Helvetica', 'Avant Garde', sans-serif; text-anchor: middle" x="679.446776" y="543.906563" transform="rotate(-0 679.446776 543.906563)">120</text>
     </g>
    </g>
    <g id="text_7">
     <text style="font: 12px 'DejaVu Sans', 'Bitstream Vera Sans', 'Computer Modern Sans Serif', 'Lucida Grande', 'Verdana', 'Geneva', 'Lucid', 'Arial', 'Helvetica', 'Avant Garde', sans-serif; text-anchor: middle" x="386.573906" y="559.104375" transform="rotate(-0 386.573906 559.104375)">Build Number</text>
    </g>
   </g>
   <g id="matplotlib.axis_2">
    <g id="ytick_1">
     <g id="line2d_13">
      <path d="M 64.41375 334.291639 
L 708.734063 334.291639 
" clip-path="url(#p01b6aafde6)" style="fill: none; stroke: #b0b0b0; stroke-opacity: 0.3; stroke-width: 0.8; stroke-linecap: square"/>
     </g>
     <g id="line2d_14">
      <defs>
       <path id="m702fb936c4" d="M 0 0 
L -3.5 0 
" style="stroke: #000000; stroke-width: 0.8"/>
      </defs>
      <g>
       <use xlink:href="#m702fb936c4" x="64.41375" y="334.291639" style="stroke: #000000; stroke-width: 0.8"/>
      </g>
     </g>
     <g id="text_8">
      <!-- $\mathdefault{10^{5}}$ -->
      <g transform="translate(39.81375 338.090858)">
       <text>
        <tspan style="font: 10px 'DejaVu Sans'" x="0 6.362305" y="-0.06406250000000036">10</tspan>
        <tspan style="font: 7px 'DejaVu Sans'" x="12.820312" y="-3.8921875000000004">5</tspan>
       </text>
      </g>
     </g>
    </g>
    <g id="ytick_2">
     <g id="line2d_15">
      <defs>
       <path id="m5a8cefc269" d="M 0 0 
L -2 0 
" style="stroke: #000000; stroke-width: 0.6"/>
      </defs>
      <g>
       <use xlink:href="#m5a8cefc269" x="64.41375" y="505.7097" style="stroke: #000000; stroke-width: 0.6"/>
      </g>
     </g>
     <g id="text_9">
      <!-- $\mathdefault{6\times10^{4}}$ -->
      <g transform="translate(22.81375 509.508919)">
       <text>
        <tspan style="font: 10px 'DejaVu Sans'" x="0 8.310547 18.637695 25" y="-0.06406250000000036">6×10</tspan>
        <tspan style="font: 7px 'DejaVu Sans'" x="31.458008" y="-3.8921875000000004">4</tspan>
       </text>
      </g>
     </g>
    </g>
    <g id="ytick_3">
     <g id="line2d_16">
      <g>
       <use xlink:href="#m5a8cefc269" x="64.41375" y="453.981264" style="stroke: #000000; stroke-width: 0.6"/>
      </g>
     </g>
    </g>
    <g id="ytick_4">
     <g id="line2d_17">
      <g>
       <use xlink:href="#m5a8cefc269" x="64.41375" y="409.172055" style="stroke: #000000; stroke-width: 0.6"/>
      </g>
     </g>
    </g>
    <g id="ytick_5">
     <g id="line2d_18">
      <g>
       <use xlink:href="#m5a8cefc269" x="64.41375" y="369.647531" style="stroke: #000000; stroke-width: 0.6"/>
      </g>
     </g>
    </g>
    <g id="ytick_6">
     <g id="line2d_19">
      <g>
       <use xlink:href="#m5a8cefc269" x="64.41375" y="101.691823" style="stroke: #000000; stroke-width: 0.6"/>
      </g>
     </g>
     <g id="text_10">
      <!-- $\mathdefault{2\times10^{5}}$ -->
      <g transform="translate(22.81375 105.491042)">
       <text>
        <tspan style="font: 10px 'DejaVu Sans'" x="0 8.310547 18.637695 25" y="-0.06406250000000036">2×10</tspan>
        <tspan style="font: 7px 'DejaVu Sans'" x="31.458008" y="-3.8921875000000004">5</tspan>
       </text>
      </g>
     </g>
    </g>
    <g id="text_11">
     <text style="font: 12px 'DejaVu Sans', 'Bitstream Vera Sans', 'Computer Modern Sans Serif', 'Lucida Grande', 'Verdana', 'Geneva', 'Lucid', 'Arial', 'Helvetica', 'Avant Garde', sans-serif; text-anchor: middle" x="16.318125" y="276.572969" transform="rotate(-90 16.318125 276.572969)">Median Elapsed Time (nanoseconds)</text>
    </g>
   </g>
   <g id="line2d_20">
    <path d="M 93.701037 46.813736 
L 105.655032 191.993804 
L 117.609026 203.583288 
L 129.563021 226.939206 
L 141.517016 249.293351 
L 153.47101 197.56458 
L 165.425005 217.514077 
L 177.379 216.449271 
L 189.332994 213.414453 
L 201.286989 197.627325 
L 213.240984 255.061283 
L 225.194978 181.822836 
L 237.148973 48.546392 
L 249.102968 155.181473 
L 261.056962 255.056248 
L 273.010957 280.19621 
L 296.918946 250.483261 
L 308.872941 243.683337 
L 320.826936 243.288052 
L 332.78093 283.580852 
L 344.734925 283.575659 
L 356.68892 244.097042 
L 368.642914 245.4831 
L 380.596909 283.596143 
L 392.550904 244.026517 
L 404.504898 252.14706 
L 428.412888 107.746626 
L 440.366882 249.935013 
L 452.320877 47.122473 
L 464.274872 283.266816 
L 476.228866 237.087039 
L 488.182861 284.46166 
L 500.136856 243.282935 
L 512.09085 241.955645 
L 535.99884 283.561234 
L 547.952834 282.732565 
L 559.906829 243.462084 
L 571.860824 282.945875 
L 583.814818 244.993097 
L 607.722808 279.539663 
L 619.676802 243.134058 
L 631.630797 282.378211 
L 643.584792 266.883058 
L 655.538786 242.227643 
L 667.492781 283.083261 
L 679.446776 283.101986 
" clip-path="url(#p01b6aafde6)" style="fill: none; stroke: #1f77b4; stroke-width: 2; stroke-linecap: square"/>
    <defs>
     <path id="m10d68f6f82" d="M 0 3 
C 0.795609 3 1.55874 2.683901 2.12132 2.12132 
C 2.683901 1.55874 3 0.795609 3 0 
C 3 -0.795609 2.683901 -1.55874 2.12132 -2.12132 
C 1.55874 -2.683901 0.795609 -3 0 -3 
C -0.795609 -3 -1.55874 -2.683901 -2.12132 -2.12132 
C -2.683901 -1.55874 -3 -0.795609 -3 0 
C -3 0.795609 -2.683901 1.55874 -2.12132 2.12132 
C -1.55874 2.683901 -0.795609 3 0 3 
z
" style="stroke: #1f77b4"/>
    </defs>
    <g clip-path="url(#p01b6aafde6)">
     <use xlink:href="#m10d68f6f82" x="93.701037" y="46.813736" style="fill: #1f77b4; stroke: #1f77b4"/>
     <use xlink:href="#m10d68f6f82" x="105.655032" y="191.993804" style="fill: #1f77b4; stroke: #1f77b4"/>
     <use xlink:href="#m10d68f6f82" x="117.609026" y="203.583288" style="fill: #1f77b4; stroke: #1f77b4"/>
     <use xlink:href="#m10d68f6f82" x="129.563021" y="226.939206" style="fill: #1f77b4; stroke: #1f77b4"/>
     <use xlink:href="#m10d68f6f82" x="141.517016" y="249.293351" style="fill: #1f77b4; stroke: #1f77b4"/>
     <use xlink:href="#m10d68f6f82" x="153.47101" y="197.56458" style="fill: #1f77b4; stroke: #1f77b4"/>
     <use xlink:href="#m10d68f6f82" x="165.425005" y="217.514077" style="fill: #1f77b4; stroke: #1f77b4"/>
     <use xlink:href="#m10d68f6f82" x="177.379" y="216.449271" style="fill: #1f77b4; stroke: #1f77b4"/>
     <use xlink:href="#m10d68f6f82" x="189.332994" y="213.414453" style="fill: #1f77b4; stroke: #1f77b4"/>
     <use xlink:href="#m10d68f6f82" x="201.286989" y="197.627325" style="fill: #1f77b4; stroke: #1f77b4"/>
     <use xlink:href="#m10d68f6f82" x="213.240984" y="255.061283" style="fill: #1f77b4; stroke: #1f77b4"/>
     <use xlink:href="#m10d68f6f82" x="225.194978" y="181.822836" style="fill: #1f77b4; stroke: #1f77b4"/>
     <use xlink:href="#m10d68f6f82" x="237.148973" y="48.546392" style="fill: #1f77b4; stroke: #1f77b4"/>
     <use xlink:href="#m10d68f6f82" x="249.102968" y="155.181473" style="fill: #1f77b4; stroke: #1f77b4"/>
     <use xlink:href="#m10d68f6f82" x="261.056962" y="255.056248" style="fill: #1f77b4; stroke: #1f77b4"/>
     <use xlink:href="#m10d68f6f82" x="273.010957" y="280.19621" style="fill: #1f77b4; stroke: #1f77b4"/>
     <use xlink:href="#m10d68f6f82" x="296.918946" y="250.483261" style="fill: #1f77b4; stroke: #1f77b4"/>
     <use xlink:href="#m10d68f6f82" x="308.872941" y="243.683337" style="fill: #1f77b4; stroke: #1f77b4"/>
     <use xlink:href="#m10d68f6f82" x="320.826936" y="243.288052" style="fill: #1f77b4; stroke: #1f77b4"/>
     <use xlink:href="#m10d68f6f82" x="332.78093" y="283.580852" style="fill: #1f77b4; stroke: #1f77b4"/>
     <use xlink:href="#m10d68f6f82" x="344.734925" y="283.575659" style="fill: #1f77b4; stroke: #1f77b4"/>
     <use xlink:href="#m10d68f6f82" x="356.68892" y="244.097042" style="fill: #1f77b4; stroke: #1f77b4"/>
     <use xlink:href="#m10d68f6f82" x="368.642914" y="245.4831" style="fill: #1f77b4; stroke: #1f77b4"/>
     <use xlink:href="#m10d68f6f82" x="380.596909" y="283.596143" style="fill: #1f77b4; stroke: #1f77b4"/>
     <use xlink:href="#m10d68f6f82" x="392.550904" y="244.026517" style="fill: #1f77b4; stroke: #1f77b4"/>
     <use xlink:href="#m10d68f6f82" x="404.504898" y="252.14706" style="fill: #1f77b4; stroke: #1f77b4"/>
     <use xlink:href="#m10d68f6f82" x="428.412888" y="107.746626" style="fill: #1f77b4; stroke: #1f77b4"/>
     <use xlink:href="#m10d68f6f82" x="440.366882" y="249.935013" style="fill: #1f77b4; stroke: #1f77b4"/>
     <use xlink:href="#m10d68f6f82" x="452.320877" y="47.122473" style="fill: #1f77b4; stroke: #1f77b4"/>
     <use xlink:href="#m10d68f6f82" x="464.274872" y="283.266816" style="fill: #1f77b4; stroke: #1f77b4"/>
     <use xlink:href="#m10d68f6f82" x="476.228866" y="237.087039" style="fill: #1f77b4; stroke: #1f77b4"/>
     <use xlink:href="#m10d68f6f82" x="488.182861" y="284.46166" style="fill: #1f77b4; stroke: #1f77b4"/>
     <use xlink:href="#m10d68f6f82" x="500.136856" y="243.282935" style="fill: #1f77b4; stroke: #1f77b4"/>
     <use xlink:href="#m10d68f6f82" x="512.09085" y="241.955645" style="fill: #1f77b4; stroke: #1f77b4"/>
     <use xlink:href="#m10d68f6f82" x="535.99884" y="283.561234" style="fill: #1f77b4; stroke: #1f77b4"/>
     <use xlink:href="#m10d68f6f82" x="547.952834" y="282.732565" style="fill: #1f77b4; stroke: #1f77b4"/>
     <use xlink:href="#m10d68f6f82" x="559.906829" y="243.462084" style="fill: #1f77b4; stroke: #1f77b4"/>
     <use xlink:href="#m10d68f6f82" x="571.860824" y="282.945875" style="fill: #1f77b4; stroke: #1f77b4"/>
     <use xlink:href="#m10d68f6f82" x="583.814818" y="244.993097" style="fill: #1f77b4; stroke: #1f77b4"/>
     <use xlink:href="#m10d68f6f82" x="607.722808" y="279.539663" style="fill: #1f77b4; stroke: #1f77b4"/>
     <use xlink:href="#m10d68f6f82" x="619.676802" y="243.134058" style="fill: #1f77b4; stroke: #1f77b4"/>
     <use xlink:href="#m10d68f6f82" x="631.630797" y="282.378211" style="fill: #1f77b4; stroke: #1f77b4"/>
     <use xlink:href="#m10d68f6f82" x="643.584792" y="266.883058" style="fill: #1f77b4; stroke: #1f77b4"/>
     <use xlink:href="#m10d68f6f82" x="655.538786" y="242.227643" style="fill: #1f77b4; stroke: #1f77b4"/>
     <use xlink:href="#m10d68f6f82" x="667.492781" y="283.083261" style="fill: #1f77b4; stroke: #1f77b4"/>
     <use xlink:href="#m10d68f6f82" x="679.446776" y="283.101986" style="fill: #1f77b4; stroke: #1f77b4"/>
    </g>
   </g>
   <g id="line2d_21">
    <path d="M 93.701037 240.963675 
L 105.655032 243.863598 
L 117.609026 244.090117 
L 129.563021 246.102545 
L 141.517016 239.261485 
L 153.47101 244.568784 
L 165.425005 239.50832 
L 177.379 247.747045 
L 189.332994 241.093226 
L 201.286989 247.539422 
L 213.240984 242.14731 
L 225.194978 245.28202 
L 237.148973 248.914302 
L 249.102968 244.728064 
L 261.056962 249.45098 
L 273.010957 239.165431 
L 296.918946 244.109353 
L 308.872941 241.526717 
L 320.826936 244.443983 
L 332.78093 247.414482 
L 344.734925 239.866502 
L 356.68892 237.098844 
L 368.642914 237.606123 
L 380.596909 235.646113 
L 392.550904 280.614175 
L 404.504898 247.512733 
L 428.412888 279.756862 
L 440.366882 281.661443 
L 452.320877 280.709844 
L 464.274872 280.122753 
L 476.228866 279.068518 
L 488.182861 280.640628 
L 500.136856 279.542799 
L 512.09085 279.805152 
L 535.99884 278.523852 
L 547.952834 281.342606 
L 559.906829 277.611705 
L 571.860824 277.650819 
L 583.814818 277.88645 
L 607.722808 277.597534 
L 619.676802 275.094208 
L 631.630797 279.209807 
L 643.584792 278.976304 
L 655.538786 280.133953 
L 667.492781 278.249436 
L 679.446776 279.950675 
" clip-path="url(#p01b6aafde6)" style="fill: none; stroke: #ff7f0e; stroke-width: 2; stroke-linecap: square"/>
    <defs>
     <path id="ma7e962baf2" d="M 0 3 
C 0.795609 3 1.55874 2.683901 2.12132 2.12132 
C 2.683901 1.55874 3 0.795609 3 0 
C 3 -0.795609 2.683901 -1.55874 2.12132 -2.12132 
C 1.55874 -2.683901 0.795609 -3 0 -3 
C -0.795609 -3 -1.55874 -2.683901 -2.12132 -2.12132 
C -2.683901 -1.55874 -3 -0.795609 -3 0 
C -3 0.795609 -2.683901 1.55874 -2.12132 2.12132 
C -1.55874 2.683901 -0.795609 3 0 3 
z
" style="stroke: #ff7f0e"/>
    </defs>
    <g clip-path="url(#p01b6aafde6)">
     <use xlink:href="#ma7e962baf2" x="93.701037" y="240.963675" style="fill: #ff7f0e; stroke: #ff7f0e"/>
     <use xlink:href="#ma7e962baf2" x="105.655032" y="243.863598" style="fill: #ff7f0e; stroke: #ff7f0e"/>
     <use xlink:href="#ma7e962baf2" x="117.609026" y="244.090117" style="fill: #ff7f0e; stroke: #ff7f0e"/>
     <use xlink:href="#ma7e962baf2" x="129.563021" y="246.102545" style="fill: #ff7f0e; stroke: #ff7f0e"/>
     <use xlink:href="#ma7e962baf2" x="141.517016" y="239.261485" style="fill: #ff7f0e; stroke: #ff7f0e"/>
     <use xlink:href="#ma7e962baf2" x="153.47101" y="244.568784" style="fill: #ff7f0e; stroke: #ff7f0e"/>
     <use xlink:href="#ma7e962baf2" x="165.425005" y="239.50832" style="fill: #ff7f0e; stroke: #ff7f0e"/>
     <use xlink:href="#ma7e962baf2" x="177.379" y="247.747045" style="fill: #ff7f0e; stroke: #ff7f0e"/>
     <use xlink:href="#ma7e962baf2" x="189.332994" y="241.093226" style="fill: #ff7f0e; stroke: #ff7f0e"/>
     <use xlink:href="#ma7e962baf2" x="201.286989" y="247.539422" style="fill: #ff7f0e; stroke: #ff7f0e"/>
     <use xlink:href="#ma7e962baf2" x="213.240984" y="242.14731" style="fill: #ff7f0e; stroke: #ff7f0e"/>
     <use xlink:href="#ma7e962baf2" x="225.194978" y="245.28202" style="fill: #ff7f0e; stroke: #ff7f0e"/>
     <use xlink:href="#ma7e962baf2" x="237.148973" y="248.914302" style="fill: #ff7f0e; stroke: #ff7f0e"/>
     <use xlink:href="#ma7e962baf2" x="249.102968" y="244.728064" style="fill: #ff7f0e; stroke: #ff7f0e"/>
     <use xlink:href="#ma7e962baf2" x="261.056962" y="249.45098" style="fill: #ff7f0e; stroke: #ff7f0e"/>
     <use xlink:href="#ma7e962baf2" x="273.010957" y="239.165431" style="fill: #ff7f0e; stroke: #ff7f0e"/>
     <use xlink:href="#ma7e962baf2" x="296.918946" y="244.109353" style="fill: #ff7f0e; stroke: #ff7f0e"/>
     <use xlink:href="#ma7e962baf2" x="308.872941" y="241.526717" style="fill: #ff7f0e; stroke: #ff7f0e"/>
     <use xlink:href="#ma7e962baf2" x="320.826936" y="244.443983" style="fill: #ff7f0e; stroke: #ff7f0e"/>
     <use xlink:href="#ma7e962baf2" x="332.78093" y="247.414482" style="fill: #ff7f0e; stroke: #ff7f0e"/>
     <use xlink:href="#ma7e962baf2" x="344.734925" y="239.866502" style="fill: #ff7f0e; stroke: #ff7f0e"/>
     <use xlink:href="#ma7e962baf2" x="356.68892" y="237.098844" style="fill: #ff7f0e; stroke: #ff7f0e"/>
     <use xlink:href="#ma7e962baf2" x="368.642914" y="237.606123" style="fill: #ff7f0e; stroke: #ff7f0e"/>
     <use xlink:href="#ma7e962baf2" x="380.596909" y="235.646113" style="fill: #ff7f0e; stroke: #ff7f0e"/>
     <use xlink:href="#ma7e962baf2" x="392.550904" y="280.614175" style="fill: #ff7f0e; stroke: #ff7f0e"/>
     <use xlink:href="#ma7e962baf2" x="404.504898" y="247.512733" style="fill: #ff7f0e; stroke: #ff7f0e"/>
     <use xlink:href="#ma7e962baf2" x="428.412888" y="279.756862" style="fill: #ff7f0e; stroke: #ff7f0e"/>
     <use xlink:href="#ma7e962baf2" x="440.366882" y="281.661443" style="fill: #ff7f0e; stroke: #ff7f0e"/>
     <use xlink:href="#ma7e962baf2" x="452.320877" y="280.709844" style="fill: #ff7f0e; stroke: #ff7f0e"/>
     <use xlink:href="#ma7e962baf2" x="464.274872" y="280.122753" style="fill: #ff7f0e; stroke: #ff7f0e"/>
     <use xlink:href="#ma7e962baf2" x="476.228866" y="279.068518" style="fill: #ff7f0e; stroke: #ff7f0e"/>
     <use xlink:href="#ma7e962baf2" x="488.182861" y="280.640628" style="fill: #ff7f0e; stroke: #ff7f0e"/>
     <use xlink:href="#ma7e962baf2" x="500.136856" y="279.542799" style="fill: #ff7f0e; stroke: #ff7f0e"/>
     <use xlink:href="#ma7e962baf2" x="512.09085" y="279.805152" style="fill: #ff7f0e; stroke: #ff7f0e"/>
     <use xlink:href="#ma7e962baf2" x="535.99884" y="278.523852" style="fill: #ff7f0e; stroke: #ff7f0e"/>
     <use xlink:href="#ma7e962baf2" x="547.952834" y="281.342606" style="fill: #ff7f0e; stroke: #ff7f0e"/>
     <use xlink:href="#ma7e962baf2" x="559.906829" y="277.611705" style="fill: #ff7f0e; stroke: #ff7f0e"/>
     <use xlink:href="#ma7e962baf2" x="571.860824" y="277.650819" style="fill: #ff7f0e; stroke: #ff7f0e"/>
     <use xlink:href="#ma7e962baf2" x="583.814818" y="277.88645" style="fill: #ff7f0e; stroke: #ff7f0e"/>
     <use xlink:href="#ma7e962baf2" x="607.722808" y="277.597534" style="fill: #ff7f0e; stroke: #ff7f0e"/>
     <use xlink:href="#ma7e962baf2" x="619.676802" y="275.094208" style="fill: #ff7f0e; stroke: #ff7f0e"/>
     <use xlink:href="#ma7e962baf2" x="631.630797" y="279.209807" style="fill: #ff7f0e; stroke: #ff7f0e"/>
     <use xlink:href="#ma7e962baf2" x="643.584792" y="278.976304" style="fill: #ff7f0e; stroke: #ff7f0e"/>
     <use xlink:href="#ma7e962baf2" x="655.538786" y="280.133953" style="fill: #ff7f0e; stroke: #ff7f0e"/>
     <use xlink:href="#ma7e962baf2" x="667.492781" y="278.249436" style="fill: #ff7f0e; stroke: #ff7f0e"/>
     <use xlink:href="#ma7e962baf2" x="679.446776" y="279.950675" style="fill: #ff7f0e; stroke: #ff7f0e"/>
    </g>
   </g>
   <g id="line2d_22">
    <path d="M 93.701037 414.551779 
L 105.655032 497.463966 
L 117.609026 414.97317 
L 129.563021 486.590358 
L 141.517016 488.58483 
L 153.47101 494.968464 
L 165.425005 431.17622 
L 177.379 259.841298 
L 189.332994 504.165161 
L 201.286989 502.411088 
L 213.240984 448.322626 
L 225.194978 415.961606 
L 237.148973 472.805361 
L 261.056962 490.422322 
L 273.010957 432.542825 
L 296.918946 506.332202 
L 308.872941 259.267362 
L 320.826936 486.236577 
L 332.78093 481.772945 
L 344.734925 501.586919 
L 368.642914 503.321129 
L 380.596909 460.778799 
L 392.550904 459.561443 
L 404.504898 479.86882 
L 428.412888 480.855226 
L 440.366882 500.319467 
L 452.320877 505.890118 
L 464.274872 501.949525 
L 476.228866 487.90366 
L 488.182861 260.377715 
L 500.136856 480.387571 
L 512.09085 503.662823 
L 535.99884 478.550422 
L 547.952834 502.536827 
L 559.906829 478.931817 
L 583.814818 479.468257 
L 619.676802 480.315489 
L 631.630797 264.460841 
L 643.584792 266.315517 
L 655.538786 479.595516 
L 667.492781 480.747697 
L 679.446776 486.979948 
" clip-path="url(#p01b6aafde6)" style="fill: none; stroke: #2ca02c; stroke-width: 2; stroke-linecap: square"/>
    <defs>
     <path id="m6e8957fdd1" d="M 0 3 
C 0.795609 3 1.55874 2.683901 2.12132 2.12132 
C 2.683901 1.55874 3 0.795609 3 0 
C 3 -0.795609 2.683901 -1.55874 2.12132 -2.12132 
C 1.55874 -2.683901 0.795609 -3 0 -3 
C -0.795609 -3 -1.55874 -2.683901 -2.12132 -2.12132 
C -2.683901 -1.55874 -3 -0.795609 -3 0 
C -3 0.795609 -2.683901 1.55874 -2.12132 2.12132 
C -1.55874 2.683901 -0.795609 3 0 3 
z
" style="stroke: #2ca02c"/>
    </defs>
    <g clip-path="url(#p01b6aafde6)">
     <use xlink:href="#m6e8957fdd1" x="93.701037" y="414.551779" style="fill: #2ca02c; stroke: #2ca02c"/>
     <use xlink:href="#m6e8957fdd1" x="105.655032" y="497.463966" style="fill: #2ca02c; stroke: #2ca02c"/>
     <use xlink:href="#m6e8957fdd1" x="117.609026" y="414.97317" style="fill: #2ca02c; stroke: #2ca02c"/>
     <use xlink:href="#m6e8957fdd1" x="129.563021" y="486.590358" style="fill: #2ca02c; stroke: #2ca02c"/>
     <use xlink:href="#m6e8957fdd1" x="141.517016" y="488.58483" style="fill: #2ca02c; stroke: #2ca02c"/>
     <use xlink:href="#m6e8957fdd1" x="153.47101" y="494.968464" style="fill: #2ca02c; stroke: #2ca02c"/>
     <use xlink:href="#m6e8957fdd1" x="165.425005" y="431.17622" style="fill: #2ca02c; stroke: #2ca02c"/>
     <use xlink:href="#m6e8957fdd1" x="177.379" y="259.841298" style="fill: #2ca02c; stroke: #2ca02c"/>
     <use xlink:href="#m6e8957fdd1" x="189.332994" y="504.165161" style="fill: #2ca02c; stroke: #2ca02c"/>
     <use xlink:href="#m6e8957fdd1" x="201.286989" y="502.411088" style="fill: #2ca02c; stroke: #2ca02c"/>
     <use xlink:href="#m6e8957fdd1" x="213.240984" y="448.322626" style="fill: #2ca02c; stroke: #2ca02c"/>
     <use xlink:href="#m6e8957fdd1" x="225.194978" y="415.961606" style="fill: #2ca02c; stroke: #2ca02c"/>
     <use xlink:href="#m6e8957fdd1" x="237.148973" y="472.805361" style="fill: #2ca02c; stroke: #2ca02c"/>
     <use xlink:href="#m6e8957fdd1" x="261.056962" y="490.422322" style="fill: #2ca02c; stroke: #2ca02c"/>
     <use xlink:href="#m6e8957fdd1" x="273.010957" y="432.542825" style="fill: #2ca02c; stroke: #2ca02c"/>
     <use xlink:href="#m6e8957fdd1" x="296.918946" y="506.332202" style="fill: #2ca02c; stroke: #2ca02c"/>
     <use xlink:href="#m6e8957fdd1" x="308.872941" y="259.267362" style="fill: #2ca02c; stroke: #2ca02c"/>
     <use xlink:href="#m6e8957fdd1" x="320.826936" y="486.236577" style="fill: #2ca02c; stroke: #2ca02c"/>
     <use xlink:href="#m6e8957fdd1" x="332.78093" y="481.772945" style="fill: #2ca02c; stroke: #2ca02c"/>
     <use xlink:href="#m6e8957fdd1" x="344.734925" y="501.586919" style="fill: #2ca02c; stroke: #2ca02c"/>
     <use xlink:href="#m6e8957fdd1" x="368.642914" y="503.321129" style="fill: #2ca02c; stroke: #2ca02c"/>
     <use xlink:href="#m6e8957fdd1" x="380.596909" y="460.778799" style="fill: #2ca02c; stroke: #2ca02c"/>
     <use xlink:href="#m6e8957fdd1" x="392.550904" y="459.561443" style="fill: #2ca02c; stroke: #2ca02c"/>
     <use xlink:href="#m6e8957fdd1" x="404.504898" y="479.86882" style="fill: #2ca02c; stroke: #2ca02c"/>
     <use xlink:href="#m6e8957fdd1" x="428.412888" y="480.855226" style="fill: #2ca02c; stroke: #2ca02c"/>
     <use xlink:href="#m6e8957fdd1" x="440.366882" y="500.319467" style="fill: #2ca02c; stroke: #2ca02c"/>
     <use xlink:href="#m6e8957fdd1" x="452.320877" y="505.890118" style="fill: #2ca02c; stroke: #2ca02c"/>
     <use xlink:href="#m6e8957fdd1" x="464.274872" y="501.949525" style="fill: #2ca02c; stroke: #2ca02c"/>
     <use xlink:href="#m6e8957fdd1" x="476.228866" y="487.90366" style="fill: #2ca02c; stroke: #2ca02c"/>
     <use xlink:href="#m6e8957fdd1" x="488.182861" y="260.377715" style="fill: #2ca02c; stroke: #2ca02c"/>
     <use xlink:href="#m6e8957fdd1" x="500.136856" y="480.387571" style="fill: #2ca02c; stroke: #2ca02c"/>
     <use xlink:href="#m6e8957fdd1" x="512.09085" y="503.662823" style="fill: #2ca02c; stroke: #2ca02c"/>
     <use xlink:href="#m6e8957fdd1" x="535.99884" y="478.550422" style="fill: #2ca02c; stroke: #2ca02c"/>
     <use xlink:href="#m6e8957fdd1" x="547.952834" y="502.536827" style="fill: #2ca02c; stroke: #2ca02c"/>
     <use xlink:href="#m6e8957fdd1" x="559.906829" y="478.931817" style="fill: #2ca02c; stroke: #2ca02c"/>
     <use xlink:href="#m6e8957fdd1" x="583.814818" y="479.468257" style="fill: #2ca02c; stroke: #2ca02c"/>
     <use xlink:href="#m6e8957fdd1" x="619.676802" y="480.315489" style="fill: #2ca02c; stroke: #2ca02c"/>
     <use xlink:href="#m6e8957fdd1" x="631.630797" y="264.460841" style="fill: #2ca02c; stroke: #2ca02c"/>
     <use xlink:href="#m6e8957fdd1" x="643.584792" y="266.315517" style="fill: #2ca02c; stroke: #2ca02c"/>
     <use xlink:href="#m6e8957fdd1" x="655.538786" y="479.595516" style="fill: #2ca02c; stroke: #2ca02c"/>
     <use xlink:href="#m6e8957fdd1" x="667.492781" y="480.747697" style="fill: #2ca02c; stroke: #2ca02c"/>
     <use xlink:href="#m6e8957fdd1" x="679.446776" y="486.979948" style="fill: #2ca02c; stroke: #2ca02c"/>
    </g>
   </g>
   <g id="line2d_23">
    <path d="M 93.701037 459.866222 
L 105.655032 455.143871 
L 117.609026 459.420607 
L 129.563021 457.27833 
L 141.517016 460.575215 
L 153.47101 466.993507 
L 165.425005 458.812133 
L 177.379 457.180552 
L 189.332994 460.001714 
L 201.286989 457.742438 
L 213.240984 461.889521 
L 225.194978 465.712231 
L 237.148973 421.868996 
L 261.056962 457.412458 
L 273.010957 454.1049 
L 296.918946 488.92886 
L 308.872941 458.206217 
L 320.826936 456.170075 
L 332.78093 461.129246 
L 344.734925 463.233246 
L 368.642914 459.084593 
L 380.596909 457.457502 
L 392.550904 478.796034 
L 404.504898 480.720181 
L 428.412888 466.047993 
L 440.366882 478.470998 
L 452.320877 479.912321 
L 464.274872 480.445663 
L 476.228866 480.535415 
L 488.182861 481.301371 
L 500.136856 479.19993 
L 512.09085 481.650745 
L 535.99884 479.964115 
L 547.952834 477.156529 
L 559.906829 479.532915 
L 583.814818 478.356021 
L 619.676802 479.652501 
L 631.630797 473.040713 
L 643.584792 478.914776 
L 655.538786 482.302114 
L 667.492781 477.868194 
L 679.446776 480.654774 
" clip-path="url(#p01b6aafde6)" style="fill: none; stroke: #d62728; stroke-width: 2; stroke-linecap: square"/>
    <defs>
     <path id="m24e6f091e0" d="M 0 3 
C 0.795609 3 1.55874 2.683901 2.12132 2.12132 
C 2.683901 1.55874 3 0.795609 3 0 
C 3 -0.795609 2.683901 -1.55874 2.12132 -2.12132 
C 1.55874 -2.683901 0.795609 -3 0 -3 
C -0.795609 -3 -1.55874 -2.683901 -2.12132 -2.12132 
C -2.683901 -1.55874 -3 -0.795609 -3 0 
C -3 0.795609 -2.683901 1.55874 -2.12132 2.12132 
C -1.55874 2.683901 -0.795609 3 0 3 
z
" style="stroke: #d62728"/>
    </defs>
    <g clip-path="url(#p01b6aafde6)">
     <use xlink:href="#m24e6f091e0" x="93.701037" y="459.866222" style="fill: #d62728; stroke: #d62728"/>
     <use xlink:href="#m24e6f091e0" x="105.655032" y="455.143871" style="fill: #d62728; stroke: #d62728"/>
     <use xlink:href="#m24e6f091e0" x="117.609026" y="459.420607" style="fill: #d62728; stroke: #d62728"/>
     <use xlink:href="#m24e6f091e0" x="129.563021" y="457.27833" style="fill: #d62728; stroke: #d62728"/>
     <use xlink:href="#m24e6f091e0" x="141.517016" y="460.575215" style="fill: #d62728; stroke: #d62728"/>
     <use xlink:href="#m24e6f091e0" x="153.47101" y="466.993507" style="fill: #d62728; stroke: #d62728"/>
     <use xlink:href="#m24e6f091e0" x="165.425005" y="458.812133" style="fill: #d62728; stroke: #d62728"/>
     <use xlink:href="#m24e6f091e0" x="177.379" y="457.180552" style="fill: #d62728; stroke: #d62728"/>
     <use xlink:href="#m24e6f091e0" x="189.332994" y="460.001714" style="fill: #d62728; stroke: #d62728"/>
     <use xlink:href="#m24e6f091e0" x="201.286989" y="457.742438" style="fill: #d62728; stroke: #d62728"/>
     <use xlink:href="#m24e6f091e0" x="213.240984" y="461.889521" style="fill: #d62728; stroke: #d62728"/>
     <use xlink:href="#m24e6f091e0" x="225.194978" y="465.712231" style="fill: #d62728; stroke: #d62728"/>
     <use xlink:href="#m24e6f091e0" x="237.148973" y="421.868996" style="fill: #d62728; stroke: #d62728"/>
     <use xlink:href="#m24e6f091e0" x="261.056962" y="457.412458" style="fill: #d62728; stroke: #d62728"/>
     <use xlink:href="#m24e6f091e0" x="273.010957" y="454.1049" style="fill: #d62728; stroke: #d62728"/>
     <use xlink:href="#m24e6f091e0" x="296.918946" y="488.92886" style="fill: #d62728; stroke: #d62728"/>
     <use xlink:href="#m24e6f091e0" x="308.872941" y="458.206217" style="fill: #d62728; stroke: #d62728"/>
     <use xlink:href="#m24e6f091e0" x="320.826936" y="456.170075" style="fill: #d62728; stroke: #d62728"/>
     <use xlink:href="#m24e6f091e0" x="332.78093" y="461.129246" style="fill: #d62728; stroke: #d62728"/>
     <use xlink:href="#m24e6f091e0" x="344.734925" y="463.233246" style="fill: #d62728; stroke: #d62728"/>
     <use xlink:href="#m24e6f091e0" x="368.642914" y="459.084593" style="fill: #d62728; stroke: #d62728"/>
     <use xlink:href="#m24e6f091e0" x="380.596909" y="457.457502" style="fill: #d62728; stroke: #d62728"/>
     <use xlink:href="#m24e6f091e0" x="392.550904" y="478.796034" style="fill: #d62728; stroke: #d62728"/>
     <use xlink:href="#m24e6f091e0" x="404.504898" y="480.720181" style="fill: #d62728; stroke: #d62728"/>
     <use xlink:href="#m24e6f091e0" x="428.412888" y="466.047993" style="fill: #d62728; stroke: #d62728"/>
     <use xlink:href="#m24e6f091e0" x="440.366882" y="478.470998" style="fill: #d62728; stroke: #d62728"/>
     <use xlink:href="#m24e6f091e0" x="452.320877" y="479.912321" style="fill: #d62728; stroke: #d62728"/>
     <use xlink:href="#m24e6f091e0" x="464.274872" y="480.445663" style="fill: #d62728; stroke: #d62728"/>
     <use xlink:href="#m24e6f091e0" x="476.228866" y="480.535415" style="fill: #d62728; stroke: #d62728"/>
     <use xlink:href="#m24e6f091e0" x="488.182861" y="481.301371" style="fill: #d62728; stroke: #d62728"/>
     <use xlink:href="#m24e6f091e0" x="500.136856" y="479.19993" style="fill: #d62728; stroke: #d62728"/>
     <use xlink:href="#m24e6f091e0" x="512.09085" y="481.650745" style="fill: #d62728; stroke: #d62728"/>
     <use xlink:href="#m24e6f091e0" x="535.99884" y="479.964115" style="fill: #d62728; stroke: #d62728"/>
     <use xlink:href="#m24e6f091e0" x="547.952834" y="477.156529" style="fill: #d62728; stroke: #d62728"/>
     <use xlink:href="#m24e6f091e0" x="559.906829" y="479.532915" style="fill: #d62728; stroke: #d62728"/>
     <use xlink:href="#m24e6f091e0" x="583.814818" y="478.356021" style="fill: #d62728; stroke: #d62728"/>
     <use xlink:href="#m24e6f091e0" x="619.676802" y="479.652501" style="fill: #d62728; stroke: #d62728"/>
     <use xlink:href="#m24e6f091e0" x="631.630797" y="473.040713" style="fill: #d62728; stroke: #d62728"/>
     <use xlink:href="#m24e6f091e0" x="643.584792" y="478.914776" style="fill: #d62728; stroke: #d62728"/>
     <use xlink:href="#m24e6f091e0" x="655.538786" y="482.302114" style="fill: #d62728; stroke: #d62728"/>
     <use xlink:href="#m24e6f091e0" x="667.492781" y="477.868194" style="fill: #d62728; stroke: #d62728"/>
     <use xlink:href="#m24e6f091e0" x="679.446776" y="480.654774" style="fill: #d62728; stroke: #d62728"/>
    </g>
   </g>
   <g id="patch_3">
    <path d="M 64.41375 529.308125 
L 64.41375 23.837813 
" style="fill: none; stroke: #000000; stroke-width: 0.8; stroke-linejoin: miter; stroke-linecap: square"/>
   </g>
   <g id="patch_4">
    <path d="M 708.734063 529.308125 
L 708.734063 23.837813 
" style="fill: none; stroke: #000000; stroke-width: 0.8; stroke-linejoin: miter; stroke-linecap: square"/>
   </g>
   <g id="patch_5">
    <path d="M 64.41375 529.308125 
L 708.734063 529.308125 
" style="fill: none; stroke: #000000; stroke-width: 0.8; stroke-linejoin: miter; stroke-linecap: square"/>
   </g>
   <g id="patch_6">
    <path d="M 64.41375 23.837812 
L 708.734063 23.837812 
" style="fill: none; stroke: #000000; stroke-width: 0.8; stroke-linejoin: miter; stroke-linecap: square"/>
   </g>
   <g id="text_12">
    <text style="font: 700 14px 'DejaVu Sans', 'Bitstream Vera Sans', 'Computer Modern Sans Serif', 'Lucida Grande', 'Verdana', 'Geneva', 'Lucid', 'Arial', 'Helvetica', 'Avant Garde', sans-serif; text-anchor: middle" x="386.573906" y="17.837813" transform="rotate(-0 386.573906 17.837813)">Nestedparallel - Performance Trend</text>
   </g>
   <g id="legend_1">
    <g id="patch_7">
     <path d="M 747.950078 90.550312 
L 846.336016 90.550312 
Q 848.336016 90.550312 848.336016 88.550312 
L 848.336016 30.837812 
Q 848.336016 28.837812 846.336016 28.837812 
L 747.950078 28.837812 
Q 745.950078 28.837812 745.950078 30.837812 
L 745.950078 88.550312 
Q 745.950078 90.550312 747.950078 90.550312 
z
" style="fill: #ffffff; opacity: 0.8; stroke: #cccccc; stroke-linejoin: miter"/>
    </g>
    <g id="line2d_24">
     <path d="M 749.950078 36.93625 
L 759.950078 36.93625 
L 769.950078 36.93625 
" style="fill: none; stroke: #1f77b4; stroke-width: 2; stroke-linecap: square"/>
     <g>
      <use xlink:href="#m10d68f6f82" x="759.950078" y="36.93625" style="fill: #1f77b4; stroke: #1f77b4"/>
     </g>
    </g>
    <g id="text_13">
     <text style="font: 10px 'DejaVu Sans', 'Bitstream Vera Sans', 'Computer Modern Sans Serif', 'Lucida Grande', 'Verdana', 'Geneva', 'Lucid', 'Arial', 'Helvetica', 'Avant Garde', sans-serif; text-anchor: start" x="777.950078" y="40.43625" transform="rotate(-0 777.950078 40.43625)">gcc-14.2 - V1</text>
    </g>
    <g id="line2d_25">
     <path d="M 749.950078 51.614375 
L 759.950078 51.614375 
L 769.950078 51.614375 
" style="fill: none; stroke: #ff7f0e; stroke-width: 2; stroke-linecap: square"/>
     <g>
      <use xlink:href="#ma7e962baf2" x="759.950078" y="51.614375" style="fill: #ff7f0e; stroke: #ff7f0e"/>
     </g>
    </g>
    <g id="text_14">
     <text style="font: 10px 'DejaVu Sans', 'Bitstream Vera Sans', 'Computer Modern Sans Serif', 'Lucida Grande', 'Verdana', 'Geneva', 'Lucid', 'Arial', 'Helvetica', 'Avant Garde', sans-serif; text-anchor: start" x="777.950078" y="55.114375" transform="rotate(-0 777.950078 55.114375)">gcc-14.2 - V2</text>
    </g>
    <g id="line2d_26">
     <path d="M 749.950078 66.2925 
L 759.950078 66.2925 
L 769.950078 66.2925 
" style="fill: none; stroke: #2ca02c; stroke-width: 2; stroke-linecap: square"/>
     <g>
      <use xlink:href="#m6e8957fdd1" x="759.950078" y="66.2925" style="fill: #2ca02c; stroke: #2ca02c"/>
     </g>
    </g>
    <g id="text_15">
     <text style="font: 10px 'DejaVu Sans', 'Bitstream Vera Sans', 'Computer Modern Sans Serif', 'Lucida Grande', 'Verdana', 'Geneva', 'Lucid', 'Arial', 'Helvetica', 'Avant Garde', sans-serif; text-anchor: start" x="777.950078" y="69.7925" transform="rotate(-0 777.950078 69.7925)">gcc-4.2 - V1</text>
    </g>
    <g id="line2d_27">
     <path d="M 749.950078 80.970625 
L 759.950078 80.970625 
L 769.950078 80.970625 
" style="fill: none; stroke: #d62728; stroke-width: 2; stroke-linecap: square"/>
     <g>
      <use xlink:href="#m24e6f091e0" x="759.950078" y="80.970625" style="fill: #d62728; stroke: #d62728"/>
     </g>
    </g>
    <g id="text_16">
     <text style="font: 10px 'DejaVu Sans', 'Bitstream Vera Sans', 'Computer Modern Sans Serif', 'Lucida Grande', 'Verdana', 'Geneva', 'Lucid', 'Arial', 'Helvetica', 'Avant Garde', sans-serif; text-anchor: start" x="777.950078" y="84.470625" transform="rotate(-0 777.950078 84.470625)">gcc-4.2 - V2</text>
    </g>
   </g>
  </g>
 </g>
 <defs>
  <clipPath id="p01b6aafde6">
   <rect x="64.41375" y="23.837813" width="644.320312" height="505.470313"/>
  </clipPath>
 </defs>
</svg>
