<?xml version="1.0" encoding="utf-8" standalone="no"?>
<!DOCTYPE svg PUBLIC "-//W3C//DTD SVG 1.1//EN"
  "http://www.w3.org/Graphics/SVG/1.1/DTD/svg11.dtd">
<svg xmlns:xlink="http://www.w3.org/1999/xlink" width="855.204687pt" height="568.8pt" viewBox="0 0 855.204687 568.8" xmlns="http://www.w3.org/2000/svg" version="1.1">
 <metadata>
  <rdf:RDF xmlns:dc="http://purl.org/dc/elements/1.1/" xmlns:cc="http://creativecommons.org/ns#" xmlns:rdf="http://www.w3.org/1999/02/22-rdf-syntax-ns#">
   <cc:Work>
    <dc:type rdf:resource="http://purl.org/dc/dcmitype/StillImage"/>
    <dc:date>2025-08-22T21:57:26.893788</dc:date>
    <dc:format>image/svg+xml</dc:format>
    <dc:creator>
     <cc:Agent>
      <dc:title>Matplotlib v3.9.4, https://matplotlib.org/</dc:title>
     </cc:Agent>
    </dc:creator>
   </cc:Work>
  </rdf:RDF>
 </metadata>
 <defs>
  <style type="text/css">*{stroke-linejoin: round; stroke-linecap: butt}</style>
 </defs>
 <g id="figure_1">
  <g id="patch_1">
   <path d="M 0 568.8 
L 855.204687 568.8 
L 855.204687 0 
L 0 0 
z
" style="fill: #ffffff"/>
  </g>
  <g id="axes_1">
   <g id="patch_2">
    <path d="M 64.41375 529.308125 
L 702.1075 529.308125 
L 702.1075 23.837812 
L 64.41375 23.837812 
z
" style="fill: #ffffff"/>
   </g>
   <g id="matplotlib.axis_1">
    <g id="xtick_1">
     <g id="line2d_1">
      <path d="M 75.832509 529.308125 
L 75.832509 23.837812 
" clip-path="url(#pa9e3d84943)" style="fill: none; stroke: #b0b0b0; stroke-opacity: 0.3; stroke-width: 0.8; stroke-linecap: square"/>
     </g>
     <g id="line2d_2">
      <defs>
       <path id="m7de6be0b23" d="M 0 0 
L 0 3.5 
" style="stroke: #000000; stroke-width: 0.8"/>
      </defs>
      <g>
       <use xlink:href="#m7de6be0b23" x="75.832509" y="529.308125" style="stroke: #000000; stroke-width: 0.8"/>
      </g>
     </g>
     <g id="text_1">
      <text style="font: 10px 'DejaVu Sans', 'Bitstream Vera Sans', 'Computer Modern Sans Serif', 'Lucida Grande', 'Verdana', 'Geneva', 'Lucid', 'Arial', 'Helvetica', 'Avant Garde', sans-serif; text-anchor: middle" x="75.832509" y="543.906563" transform="rotate(-0 75.832509 543.906563)">70</text>
     </g>
    </g>
    <g id="xtick_2">
     <g id="line2d_3">
      <path d="M 163.669113 529.308125 
L 163.669113 23.837812 
" clip-path="url(#pa9e3d84943)" style="fill: none; stroke: #b0b0b0; stroke-opacity: 0.3; stroke-width: 0.8; stroke-linecap: square"/>
     </g>
     <g id="line2d_4">
      <g>
       <use xlink:href="#m7de6be0b23" x="163.669113" y="529.308125" style="stroke: #000000; stroke-width: 0.8"/>
      </g>
     </g>
     <g id="text_2">
      <text style="font: 10px 'DejaVu Sans', 'Bitstream Vera Sans', 'Computer Modern Sans Serif', 'Lucida Grande', 'Verdana', 'Geneva', 'Lucid', 'Arial', 'Helvetica', 'Avant Garde', sans-serif; text-anchor: middle" x="163.669113" y="543.906563" transform="rotate(-0 163.669113 543.906563)">75</text>
     </g>
    </g>
    <g id="xtick_3">
     <g id="line2d_5">
      <path d="M 251.505718 529.308125 
L 251.505718 23.837812 
" clip-path="url(#pa9e3d84943)" style="fill: none; stroke: #b0b0b0; stroke-opacity: 0.3; stroke-width: 0.8; stroke-linecap: square"/>
     </g>
     <g id="line2d_6">
      <g>
       <use xlink:href="#m7de6be0b23" x="251.505718" y="529.308125" style="stroke: #000000; stroke-width: 0.8"/>
      </g>
     </g>
     <g id="text_3">
      <text style="font: 10px 'DejaVu Sans', 'Bitstream Vera Sans', 'Computer Modern Sans Serif', 'Lucida Grande', 'Verdana', 'Geneva', 'Lucid', 'Arial', 'Helvetica', 'Avant Garde', sans-serif; text-anchor: middle" x="251.505718" y="543.906563" transform="rotate(-0 251.505718 543.906563)">80</text>
     </g>
    </g>
    <g id="xtick_4">
     <g id="line2d_7">
      <path d="M 339.342323 529.308125 
L 339.342323 23.837812 
" clip-path="url(#pa9e3d84943)" style="fill: none; stroke: #b0b0b0; stroke-opacity: 0.3; stroke-width: 0.8; stroke-linecap: square"/>
     </g>
     <g id="line2d_8">
      <g>
       <use xlink:href="#m7de6be0b23" x="339.342323" y="529.308125" style="stroke: #000000; stroke-width: 0.8"/>
      </g>
     </g>
     <g id="text_4">
      <text style="font: 10px 'DejaVu Sans', 'Bitstream Vera Sans', 'Computer Modern Sans Serif', 'Lucida Grande', 'Verdana', 'Geneva', 'Lucid', 'Arial', 'Helvetica', 'Avant Garde', sans-serif; text-anchor: middle" x="339.342323" y="543.906563" transform="rotate(-0 339.342323 543.906563)">85</text>
     </g>
    </g>
    <g id="xtick_5">
     <g id="line2d_9">
      <path d="M 427.178927 529.308125 
L 427.178927 23.837812 
" clip-path="url(#pa9e3d84943)" style="fill: none; stroke: #b0b0b0; stroke-opacity: 0.3; stroke-width: 0.8; stroke-linecap: square"/>
     </g>
     <g id="line2d_10">
      <g>
       <use xlink:href="#m7de6be0b23" x="427.178927" y="529.308125" style="stroke: #000000; stroke-width: 0.8"/>
      </g>
     </g>
     <g id="text_5">
      <text style="font: 10px 'DejaVu Sans', 'Bitstream Vera Sans', 'Computer Modern Sans Serif', 'Lucida Grande', 'Verdana', 'Geneva', 'Lucid', 'Arial', 'Helvetica', 'Avant Garde', sans-serif; text-anchor: middle" x="427.178927" y="543.906563" transform="rotate(-0 427.178927 543.906563)">90</text>
     </g>
    </g>
    <g id="xtick_6">
     <g id="line2d_11">
      <path d="M 515.015532 529.308125 
L 515.015532 23.837812 
" clip-path="url(#pa9e3d84943)" style="fill: none; stroke: #b0b0b0; stroke-opacity: 0.3; stroke-width: 0.8; stroke-linecap: square"/>
     </g>
     <g id="line2d_12">
      <g>
       <use xlink:href="#m7de6be0b23" x="515.015532" y="529.308125" style="stroke: #000000; stroke-width: 0.8"/>
      </g>
     </g>
     <g id="text_6">
      <text style="font: 10px 'DejaVu Sans', 'Bitstream Vera Sans', 'Computer Modern Sans Serif', 'Lucida Grande', 'Verdana', 'Geneva', 'Lucid', 'Arial', 'Helvetica', 'Avant Garde', sans-serif; text-anchor: middle" x="515.015532" y="543.906563" transform="rotate(-0 515.015532 543.906563)">95</text>
     </g>
    </g>
    <g id="xtick_7">
     <g id="line2d_13">
      <path d="M 602.852137 529.308125 
L 602.852137 23.837812 
" clip-path="url(#pa9e3d84943)" style="fill: none; stroke: #b0b0b0; stroke-opacity: 0.3; stroke-width: 0.8; stroke-linecap: square"/>
     </g>
     <g id="line2d_14">
      <g>
       <use xlink:href="#m7de6be0b23" x="602.852137" y="529.308125" style="stroke: #000000; stroke-width: 0.8"/>
      </g>
     </g>
     <g id="text_7">
      <text style="font: 10px 'DejaVu Sans', 'Bitstream Vera Sans', 'Computer Modern Sans Serif', 'Lucida Grande', 'Verdana', 'Geneva', 'Lucid', 'Arial', 'Helvetica', 'Avant Garde', sans-serif; text-anchor: middle" x="602.852137" y="543.906563" transform="rotate(-0 602.852137 543.906563)">100</text>
     </g>
    </g>
    <g id="xtick_8">
     <g id="line2d_15">
      <path d="M 690.688741 529.308125 
L 690.688741 23.837812 
" clip-path="url(#pa9e3d84943)" style="fill: none; stroke: #b0b0b0; stroke-opacity: 0.3; stroke-width: 0.8; stroke-linecap: square"/>
     </g>
     <g id="line2d_16">
      <g>
       <use xlink:href="#m7de6be0b23" x="690.688741" y="529.308125" style="stroke: #000000; stroke-width: 0.8"/>
      </g>
     </g>
     <g id="text_8">
      <text style="font: 10px 'DejaVu Sans', 'Bitstream Vera Sans', 'Computer Modern Sans Serif', 'Lucida Grande', 'Verdana', 'Geneva', 'Lucid', 'Arial', 'Helvetica', 'Avant Garde', sans-serif; text-anchor: middle" x="690.688741" y="543.906563" transform="rotate(-0 690.688741 543.906563)">105</text>
     </g>
    </g>
    <g id="text_9">
     <text style="font: 12px 'DejaVu Sans', 'Bitstream Vera Sans', 'Computer Modern Sans Serif', 'Lucida Grande', 'Verdana', 'Geneva', 'Lucid', 'Arial', 'Helvetica', 'Avant Garde', sans-serif; text-anchor: middle" x="383.260625" y="559.104375" transform="rotate(-0 383.260625 559.104375)">Build Number</text>
    </g>
   </g>
   <g id="matplotlib.axis_2">
    <g id="ytick_1">
     <g id="line2d_17">
      <path d="M 64.41375 453.786204 
L 702.1075 453.786204 
" clip-path="url(#pa9e3d84943)" style="fill: none; stroke: #b0b0b0; stroke-opacity: 0.3; stroke-width: 0.8; stroke-linecap: square"/>
     </g>
     <g id="line2d_18">
      <defs>
       <path id="m9954fb0998" d="M 0 0 
L -3.5 0 
" style="stroke: #000000; stroke-width: 0.8"/>
      </defs>
      <g>
       <use xlink:href="#m9954fb0998" x="64.41375" y="453.786204" style="stroke: #000000; stroke-width: 0.8"/>
      </g>
     </g>
     <g id="text_10">
      <!-- $\mathdefault{10^{5}}$ -->
      <g transform="translate(39.81375 457.585423)">
       <text>
        <tspan style="font: 10px 'DejaVu Sans'" x="0 6.362305" y="-0.06406250000000036">10</tspan>
        <tspan style="font: 7px 'DejaVu Sans'" x="12.820312" y="-3.8921875000000004">5</tspan>
       </text>
      </g>
     </g>
    </g>
    <g id="ytick_2">
     <g id="line2d_19">
      <defs>
       <path id="mfbd87334ac" d="M 0 0 
L -2 0 
" style="stroke: #000000; stroke-width: 0.6"/>
      </defs>
      <g>
       <use xlink:href="#mfbd87334ac" x="64.41375" y="496.873642" style="stroke: #000000; stroke-width: 0.6"/>
      </g>
     </g>
    </g>
    <g id="ytick_3">
     <g id="line2d_20">
      <g>
       <use xlink:href="#mfbd87334ac" x="64.41375" y="170.321985" style="stroke: #000000; stroke-width: 0.6"/>
      </g>
     </g>
     <g id="text_11">
      <!-- $\mathdefault{2\times10^{5}}$ -->
      <g transform="translate(22.81375 174.121204)">
       <text>
        <tspan style="font: 10px 'DejaVu Sans'" x="0 8.310547 18.637695 25" y="-0.06406250000000036">2×10</tspan>
        <tspan style="font: 7px 'DejaVu Sans'" x="31.458008" y="-3.8921875000000004">5</tspan>
       </text>
      </g>
     </g>
    </g>
    <g id="text_12">
     <text style="font: 12px 'DejaVu Sans', 'Bitstream Vera Sans', 'Computer Modern Sans Serif', 'Lucida Grande', 'Verdana', 'Geneva', 'Lucid', 'Arial', 'Helvetica', 'Avant Garde', sans-serif; text-anchor: middle" x="16.318125" y="276.572969" transform="rotate(-90 16.318125 276.572969)">Median Elapsed Time (nanoseconds)</text>
    </g>
   </g>
   <g id="line2d_21">
    <path d="M 93.39983 358.594402 
L 110.96715 83.393181 
L 128.534471 220.76105 
L 146.101792 331.184044 
L 163.669113 228.639233 
L 181.236434 318.546856 
L 198.803755 271.249317 
L 216.371076 112.928166 
L 233.938397 300.433378 
L 251.505718 288.178339 
L 269.073039 314.544957 
L 286.64036 271.473142 
L 304.207681 355.083876 
L 321.775002 289.902078 
L 339.342323 324.935545 
L 356.909644 310.91823 
L 392.044285 46.813736 
L 409.611606 298.535776 
L 427.178927 272.004793 
L 444.746248 264.733822 
L 462.313569 300.821441 
L 479.88089 315.773402 
L 497.448211 320.378392 
L 515.015532 300.841979 
L 532.582853 296.635402 
L 550.150174 282.449221 
L 585.284816 284.389929 
L 602.852137 256.561491 
L 620.419458 311.509364 
L 637.986779 291.407878 
L 655.5541 290.404492 
L 673.12142 328.307603 
" clip-path="url(#pa9e3d84943)" style="fill: none; stroke: #1f77b4; stroke-width: 2; stroke-linecap: square"/>
    <defs>
     <path id="m2ddec1fe92" d="M 0 3 
C 0.795609 3 1.55874 2.683901 2.12132 2.12132 
C 2.683901 1.55874 3 0.795609 3 0 
C 3 -0.795609 2.683901 -1.55874 2.12132 -2.12132 
C 1.55874 -2.683901 0.795609 -3 0 -3 
C -0.795609 -3 -1.55874 -2.683901 -2.12132 -2.12132 
C -2.683901 -1.55874 -3 -0.795609 -3 0 
C -3 0.795609 -2.683901 1.55874 -2.12132 2.12132 
C -1.55874 2.683901 -0.795609 3 0 3 
z
" style="stroke: #1f77b4"/>
    </defs>
    <g clip-path="url(#pa9e3d84943)">
     <use xlink:href="#m2ddec1fe92" x="93.39983" y="358.594402" style="fill: #1f77b4; stroke: #1f77b4"/>
     <use xlink:href="#m2ddec1fe92" x="110.96715" y="83.393181" style="fill: #1f77b4; stroke: #1f77b4"/>
     <use xlink:href="#m2ddec1fe92" x="128.534471" y="220.76105" style="fill: #1f77b4; stroke: #1f77b4"/>
     <use xlink:href="#m2ddec1fe92" x="146.101792" y="331.184044" style="fill: #1f77b4; stroke: #1f77b4"/>
     <use xlink:href="#m2ddec1fe92" x="163.669113" y="228.639233" style="fill: #1f77b4; stroke: #1f77b4"/>
     <use xlink:href="#m2ddec1fe92" x="181.236434" y="318.546856" style="fill: #1f77b4; stroke: #1f77b4"/>
     <use xlink:href="#m2ddec1fe92" x="198.803755" y="271.249317" style="fill: #1f77b4; stroke: #1f77b4"/>
     <use xlink:href="#m2ddec1fe92" x="216.371076" y="112.928166" style="fill: #1f77b4; stroke: #1f77b4"/>
     <use xlink:href="#m2ddec1fe92" x="233.938397" y="300.433378" style="fill: #1f77b4; stroke: #1f77b4"/>
     <use xlink:href="#m2ddec1fe92" x="251.505718" y="288.178339" style="fill: #1f77b4; stroke: #1f77b4"/>
     <use xlink:href="#m2ddec1fe92" x="269.073039" y="314.544957" style="fill: #1f77b4; stroke: #1f77b4"/>
     <use xlink:href="#m2ddec1fe92" x="286.64036" y="271.473142" style="fill: #1f77b4; stroke: #1f77b4"/>
     <use xlink:href="#m2ddec1fe92" x="304.207681" y="355.083876" style="fill: #1f77b4; stroke: #1f77b4"/>
     <use xlink:href="#m2ddec1fe92" x="321.775002" y="289.902078" style="fill: #1f77b4; stroke: #1f77b4"/>
     <use xlink:href="#m2ddec1fe92" x="339.342323" y="324.935545" style="fill: #1f77b4; stroke: #1f77b4"/>
     <use xlink:href="#m2ddec1fe92" x="356.909644" y="310.91823" style="fill: #1f77b4; stroke: #1f77b4"/>
     <use xlink:href="#m2ddec1fe92" x="392.044285" y="46.813736" style="fill: #1f77b4; stroke: #1f77b4"/>
     <use xlink:href="#m2ddec1fe92" x="409.611606" y="298.535776" style="fill: #1f77b4; stroke: #1f77b4"/>
     <use xlink:href="#m2ddec1fe92" x="427.178927" y="272.004793" style="fill: #1f77b4; stroke: #1f77b4"/>
     <use xlink:href="#m2ddec1fe92" x="444.746248" y="264.733822" style="fill: #1f77b4; stroke: #1f77b4"/>
     <use xlink:href="#m2ddec1fe92" x="462.313569" y="300.821441" style="fill: #1f77b4; stroke: #1f77b4"/>
     <use xlink:href="#m2ddec1fe92" x="479.88089" y="315.773402" style="fill: #1f77b4; stroke: #1f77b4"/>
     <use xlink:href="#m2ddec1fe92" x="497.448211" y="320.378392" style="fill: #1f77b4; stroke: #1f77b4"/>
     <use xlink:href="#m2ddec1fe92" x="515.015532" y="300.841979" style="fill: #1f77b4; stroke: #1f77b4"/>
     <use xlink:href="#m2ddec1fe92" x="532.582853" y="296.635402" style="fill: #1f77b4; stroke: #1f77b4"/>
     <use xlink:href="#m2ddec1fe92" x="550.150174" y="282.449221" style="fill: #1f77b4; stroke: #1f77b4"/>
     <use xlink:href="#m2ddec1fe92" x="585.284816" y="284.389929" style="fill: #1f77b4; stroke: #1f77b4"/>
     <use xlink:href="#m2ddec1fe92" x="602.852137" y="256.561491" style="fill: #1f77b4; stroke: #1f77b4"/>
     <use xlink:href="#m2ddec1fe92" x="620.419458" y="311.509364" style="fill: #1f77b4; stroke: #1f77b4"/>
     <use xlink:href="#m2ddec1fe92" x="637.986779" y="291.407878" style="fill: #1f77b4; stroke: #1f77b4"/>
     <use xlink:href="#m2ddec1fe92" x="655.5541" y="290.404492" style="fill: #1f77b4; stroke: #1f77b4"/>
     <use xlink:href="#m2ddec1fe92" x="673.12142" y="328.307603" style="fill: #1f77b4; stroke: #1f77b4"/>
    </g>
   </g>
   <g id="line2d_22">
    <path d="M 93.39983 392.679679 
L 110.96715 386.936497 
L 128.534471 398.248244 
L 146.101792 385.343502 
L 163.669113 339.569664 
L 181.236434 404.385915 
L 198.803755 381.678582 
L 216.371076 408.819049 
L 233.938397 396.668627 
L 251.505718 335.900085 
L 269.073039 374.883943 
L 286.64036 381.8178 
L 304.207681 372.43382 
L 321.775002 408.554433 
L 339.342323 391.855324 
L 356.909644 368.569402 
L 392.044285 391.970803 
L 409.611606 383.410177 
L 427.178927 355.940819 
L 444.746248 365.503518 
L 462.313569 346.510892 
L 479.88089 416.125962 
L 497.448211 357.092056 
L 515.015532 354.857344 
L 532.582853 282.149957 
L 550.150174 279.938227 
L 585.284816 284.948124 
L 602.852137 314.650581 
L 620.419458 310.644081 
L 637.986779 291.583875 
L 655.5541 299.684166 
L 673.12142 328.841744 
" clip-path="url(#pa9e3d84943)" style="fill: none; stroke: #ff7f0e; stroke-width: 2; stroke-linecap: square"/>
    <defs>
     <path id="ma6f0c60eb4" d="M 0 3 
C 0.795609 3 1.55874 2.683901 2.12132 2.12132 
C 2.683901 1.55874 3 0.795609 3 0 
C 3 -0.795609 2.683901 -1.55874 2.12132 -2.12132 
C 1.55874 -2.683901 0.795609 -3 0 -3 
C -0.795609 -3 -1.55874 -2.683901 -2.12132 -2.12132 
C -2.683901 -1.55874 -3 -0.795609 -3 0 
C -3 0.795609 -2.683901 1.55874 -2.12132 2.12132 
C -1.55874 2.683901 -0.795609 3 0 3 
z
" style="stroke: #ff7f0e"/>
    </defs>
    <g clip-path="url(#pa9e3d84943)">
     <use xlink:href="#ma6f0c60eb4" x="93.39983" y="392.679679" style="fill: #ff7f0e; stroke: #ff7f0e"/>
     <use xlink:href="#ma6f0c60eb4" x="110.96715" y="386.936497" style="fill: #ff7f0e; stroke: #ff7f0e"/>
     <use xlink:href="#ma6f0c60eb4" x="128.534471" y="398.248244" style="fill: #ff7f0e; stroke: #ff7f0e"/>
     <use xlink:href="#ma6f0c60eb4" x="146.101792" y="385.343502" style="fill: #ff7f0e; stroke: #ff7f0e"/>
     <use xlink:href="#ma6f0c60eb4" x="163.669113" y="339.569664" style="fill: #ff7f0e; stroke: #ff7f0e"/>
     <use xlink:href="#ma6f0c60eb4" x="181.236434" y="404.385915" style="fill: #ff7f0e; stroke: #ff7f0e"/>
     <use xlink:href="#ma6f0c60eb4" x="198.803755" y="381.678582" style="fill: #ff7f0e; stroke: #ff7f0e"/>
     <use xlink:href="#ma6f0c60eb4" x="216.371076" y="408.819049" style="fill: #ff7f0e; stroke: #ff7f0e"/>
     <use xlink:href="#ma6f0c60eb4" x="233.938397" y="396.668627" style="fill: #ff7f0e; stroke: #ff7f0e"/>
     <use xlink:href="#ma6f0c60eb4" x="251.505718" y="335.900085" style="fill: #ff7f0e; stroke: #ff7f0e"/>
     <use xlink:href="#ma6f0c60eb4" x="269.073039" y="374.883943" style="fill: #ff7f0e; stroke: #ff7f0e"/>
     <use xlink:href="#ma6f0c60eb4" x="286.64036" y="381.8178" style="fill: #ff7f0e; stroke: #ff7f0e"/>
     <use xlink:href="#ma6f0c60eb4" x="304.207681" y="372.43382" style="fill: #ff7f0e; stroke: #ff7f0e"/>
     <use xlink:href="#ma6f0c60eb4" x="321.775002" y="408.554433" style="fill: #ff7f0e; stroke: #ff7f0e"/>
     <use xlink:href="#ma6f0c60eb4" x="339.342323" y="391.855324" style="fill: #ff7f0e; stroke: #ff7f0e"/>
     <use xlink:href="#ma6f0c60eb4" x="356.909644" y="368.569402" style="fill: #ff7f0e; stroke: #ff7f0e"/>
     <use xlink:href="#ma6f0c60eb4" x="392.044285" y="391.970803" style="fill: #ff7f0e; stroke: #ff7f0e"/>
     <use xlink:href="#ma6f0c60eb4" x="409.611606" y="383.410177" style="fill: #ff7f0e; stroke: #ff7f0e"/>
     <use xlink:href="#ma6f0c60eb4" x="427.178927" y="355.940819" style="fill: #ff7f0e; stroke: #ff7f0e"/>
     <use xlink:href="#ma6f0c60eb4" x="444.746248" y="365.503518" style="fill: #ff7f0e; stroke: #ff7f0e"/>
     <use xlink:href="#ma6f0c60eb4" x="462.313569" y="346.510892" style="fill: #ff7f0e; stroke: #ff7f0e"/>
     <use xlink:href="#ma6f0c60eb4" x="479.88089" y="416.125962" style="fill: #ff7f0e; stroke: #ff7f0e"/>
     <use xlink:href="#ma6f0c60eb4" x="497.448211" y="357.092056" style="fill: #ff7f0e; stroke: #ff7f0e"/>
     <use xlink:href="#ma6f0c60eb4" x="515.015532" y="354.857344" style="fill: #ff7f0e; stroke: #ff7f0e"/>
     <use xlink:href="#ma6f0c60eb4" x="532.582853" y="282.149957" style="fill: #ff7f0e; stroke: #ff7f0e"/>
     <use xlink:href="#ma6f0c60eb4" x="550.150174" y="279.938227" style="fill: #ff7f0e; stroke: #ff7f0e"/>
     <use xlink:href="#ma6f0c60eb4" x="585.284816" y="284.948124" style="fill: #ff7f0e; stroke: #ff7f0e"/>
     <use xlink:href="#ma6f0c60eb4" x="602.852137" y="314.650581" style="fill: #ff7f0e; stroke: #ff7f0e"/>
     <use xlink:href="#ma6f0c60eb4" x="620.419458" y="310.644081" style="fill: #ff7f0e; stroke: #ff7f0e"/>
     <use xlink:href="#ma6f0c60eb4" x="637.986779" y="291.583875" style="fill: #ff7f0e; stroke: #ff7f0e"/>
     <use xlink:href="#ma6f0c60eb4" x="655.5541" y="299.684166" style="fill: #ff7f0e; stroke: #ff7f0e"/>
     <use xlink:href="#ma6f0c60eb4" x="673.12142" y="328.841744" style="fill: #ff7f0e; stroke: #ff7f0e"/>
    </g>
   </g>
   <g id="line2d_23">
    <path d="M 93.39983 253.741696 
L 110.96715 131.132428 
L 128.534471 96.482045 
L 146.101792 81.256547 
L 163.669113 240.152215 
L 181.236434 77.046755 
L 198.803755 132.700907 
L 216.371076 86.931594 
L 233.938397 212.878131 
L 251.505718 259.677316 
L 269.073039 75.515958 
L 286.64036 128.781141 
L 304.207681 197.396234 
L 321.775002 112.022002 
L 339.342323 278.006773 
L 356.909644 84.085137 
L 392.044285 101.398895 
L 409.611606 202.032381 
L 427.178927 119.799375 
L 444.746248 215.475984 
L 462.313569 242.654232 
L 479.88089 83.347224 
L 497.448211 247.574723 
L 515.015532 84.118424 
L 532.582853 125.304641 
L 550.150174 130.136687 
L 585.284816 129.336619 
L 602.852137 263.001692 
L 620.419458 241.69872 
L 637.986779 101.165388 
L 655.5541 259.971521 
L 673.12142 63.886241 
" clip-path="url(#pa9e3d84943)" style="fill: none; stroke: #2ca02c; stroke-width: 2; stroke-linecap: square"/>
    <defs>
     <path id="m2982ddbd8d" d="M 0 3 
C 0.795609 3 1.55874 2.683901 2.12132 2.12132 
C 2.683901 1.55874 3 0.795609 3 0 
C 3 -0.795609 2.683901 -1.55874 2.12132 -2.12132 
C 1.55874 -2.683901 0.795609 -3 0 -3 
C -0.795609 -3 -1.55874 -2.683901 -2.12132 -2.12132 
C -2.683901 -1.55874 -3 -0.795609 -3 0 
C -3 0.795609 -2.683901 1.55874 -2.12132 2.12132 
C -1.55874 2.683901 -0.795609 3 0 3 
z
" style="stroke: #2ca02c"/>
    </defs>
    <g clip-path="url(#pa9e3d84943)">
     <use xlink:href="#m2982ddbd8d" x="93.39983" y="253.741696" style="fill: #2ca02c; stroke: #2ca02c"/>
     <use xlink:href="#m2982ddbd8d" x="110.96715" y="131.132428" style="fill: #2ca02c; stroke: #2ca02c"/>
     <use xlink:href="#m2982ddbd8d" x="128.534471" y="96.482045" style="fill: #2ca02c; stroke: #2ca02c"/>
     <use xlink:href="#m2982ddbd8d" x="146.101792" y="81.256547" style="fill: #2ca02c; stroke: #2ca02c"/>
     <use xlink:href="#m2982ddbd8d" x="163.669113" y="240.152215" style="fill: #2ca02c; stroke: #2ca02c"/>
     <use xlink:href="#m2982ddbd8d" x="181.236434" y="77.046755" style="fill: #2ca02c; stroke: #2ca02c"/>
     <use xlink:href="#m2982ddbd8d" x="198.803755" y="132.700907" style="fill: #2ca02c; stroke: #2ca02c"/>
     <use xlink:href="#m2982ddbd8d" x="216.371076" y="86.931594" style="fill: #2ca02c; stroke: #2ca02c"/>
     <use xlink:href="#m2982ddbd8d" x="233.938397" y="212.878131" style="fill: #2ca02c; stroke: #2ca02c"/>
     <use xlink:href="#m2982ddbd8d" x="251.505718" y="259.677316" style="fill: #2ca02c; stroke: #2ca02c"/>
     <use xlink:href="#m2982ddbd8d" x="269.073039" y="75.515958" style="fill: #2ca02c; stroke: #2ca02c"/>
     <use xlink:href="#m2982ddbd8d" x="286.64036" y="128.781141" style="fill: #2ca02c; stroke: #2ca02c"/>
     <use xlink:href="#m2982ddbd8d" x="304.207681" y="197.396234" style="fill: #2ca02c; stroke: #2ca02c"/>
     <use xlink:href="#m2982ddbd8d" x="321.775002" y="112.022002" style="fill: #2ca02c; stroke: #2ca02c"/>
     <use xlink:href="#m2982ddbd8d" x="339.342323" y="278.006773" style="fill: #2ca02c; stroke: #2ca02c"/>
     <use xlink:href="#m2982ddbd8d" x="356.909644" y="84.085137" style="fill: #2ca02c; stroke: #2ca02c"/>
     <use xlink:href="#m2982ddbd8d" x="392.044285" y="101.398895" style="fill: #2ca02c; stroke: #2ca02c"/>
     <use xlink:href="#m2982ddbd8d" x="409.611606" y="202.032381" style="fill: #2ca02c; stroke: #2ca02c"/>
     <use xlink:href="#m2982ddbd8d" x="427.178927" y="119.799375" style="fill: #2ca02c; stroke: #2ca02c"/>
     <use xlink:href="#m2982ddbd8d" x="444.746248" y="215.475984" style="fill: #2ca02c; stroke: #2ca02c"/>
     <use xlink:href="#m2982ddbd8d" x="462.313569" y="242.654232" style="fill: #2ca02c; stroke: #2ca02c"/>
     <use xlink:href="#m2982ddbd8d" x="479.88089" y="83.347224" style="fill: #2ca02c; stroke: #2ca02c"/>
     <use xlink:href="#m2982ddbd8d" x="497.448211" y="247.574723" style="fill: #2ca02c; stroke: #2ca02c"/>
     <use xlink:href="#m2982ddbd8d" x="515.015532" y="84.118424" style="fill: #2ca02c; stroke: #2ca02c"/>
     <use xlink:href="#m2982ddbd8d" x="532.582853" y="125.304641" style="fill: #2ca02c; stroke: #2ca02c"/>
     <use xlink:href="#m2982ddbd8d" x="550.150174" y="130.136687" style="fill: #2ca02c; stroke: #2ca02c"/>
     <use xlink:href="#m2982ddbd8d" x="585.284816" y="129.336619" style="fill: #2ca02c; stroke: #2ca02c"/>
     <use xlink:href="#m2982ddbd8d" x="602.852137" y="263.001692" style="fill: #2ca02c; stroke: #2ca02c"/>
     <use xlink:href="#m2982ddbd8d" x="620.419458" y="241.69872" style="fill: #2ca02c; stroke: #2ca02c"/>
     <use xlink:href="#m2982ddbd8d" x="637.986779" y="101.165388" style="fill: #2ca02c; stroke: #2ca02c"/>
     <use xlink:href="#m2982ddbd8d" x="655.5541" y="259.971521" style="fill: #2ca02c; stroke: #2ca02c"/>
     <use xlink:href="#m2982ddbd8d" x="673.12142" y="63.886241" style="fill: #2ca02c; stroke: #2ca02c"/>
    </g>
   </g>
   <g id="line2d_24">
    <path d="M 93.39983 309.46052 
L 110.96715 294.014315 
L 128.534471 121.63556 
L 146.101792 288.422818 
L 163.669113 307.59703 
L 181.236434 296.137357 
L 198.803755 332.588837 
L 216.371076 138.456856 
L 233.938397 66.312577 
L 251.505718 283.547321 
L 269.073039 281.66026 
L 286.64036 296.901271 
L 304.207681 313.205049 
L 339.342323 344.12319 
L 356.909644 298.313978 
L 392.044285 314.901513 
L 409.611606 208.372962 
L 427.178927 117.617315 
L 444.746248 207.136064 
L 462.313569 313.390974 
L 497.448211 286.409414 
L 515.015532 279.949187 
L 532.582853 292.178976 
L 550.150174 93.79761 
L 585.284816 274.424933 
L 602.852137 298.329917 
L 620.419458 282.699717 
L 637.986779 252.928086 
L 655.5541 364.840181 
L 673.12142 289.455275 
" clip-path="url(#pa9e3d84943)" style="fill: none; stroke: #d62728; stroke-width: 2; stroke-linecap: square"/>
    <defs>
     <path id="m9893d51de8" d="M 0 3 
C 0.795609 3 1.55874 2.683901 2.12132 2.12132 
C 2.683901 1.55874 3 0.795609 3 0 
C 3 -0.795609 2.683901 -1.55874 2.12132 -2.12132 
C 1.55874 -2.683901 0.795609 -3 0 -3 
C -0.795609 -3 -1.55874 -2.683901 -2.12132 -2.12132 
C -2.683901 -1.55874 -3 -0.795609 -3 0 
C -3 0.795609 -2.683901 1.55874 -2.12132 2.12132 
C -1.55874 2.683901 -0.795609 3 0 3 
z
" style="stroke: #d62728"/>
    </defs>
    <g clip-path="url(#pa9e3d84943)">
     <use xlink:href="#m9893d51de8" x="93.39983" y="309.46052" style="fill: #d62728; stroke: #d62728"/>
     <use xlink:href="#m9893d51de8" x="110.96715" y="294.014315" style="fill: #d62728; stroke: #d62728"/>
     <use xlink:href="#m9893d51de8" x="128.534471" y="121.63556" style="fill: #d62728; stroke: #d62728"/>
     <use xlink:href="#m9893d51de8" x="146.101792" y="288.422818" style="fill: #d62728; stroke: #d62728"/>
     <use xlink:href="#m9893d51de8" x="163.669113" y="307.59703" style="fill: #d62728; stroke: #d62728"/>
     <use xlink:href="#m9893d51de8" x="181.236434" y="296.137357" style="fill: #d62728; stroke: #d62728"/>
     <use xlink:href="#m9893d51de8" x="198.803755" y="332.588837" style="fill: #d62728; stroke: #d62728"/>
     <use xlink:href="#m9893d51de8" x="216.371076" y="138.456856" style="fill: #d62728; stroke: #d62728"/>
     <use xlink:href="#m9893d51de8" x="233.938397" y="66.312577" style="fill: #d62728; stroke: #d62728"/>
     <use xlink:href="#m9893d51de8" x="251.505718" y="283.547321" style="fill: #d62728; stroke: #d62728"/>
     <use xlink:href="#m9893d51de8" x="269.073039" y="281.66026" style="fill: #d62728; stroke: #d62728"/>
     <use xlink:href="#m9893d51de8" x="286.64036" y="296.901271" style="fill: #d62728; stroke: #d62728"/>
     <use xlink:href="#m9893d51de8" x="304.207681" y="313.205049" style="fill: #d62728; stroke: #d62728"/>
     <use xlink:href="#m9893d51de8" x="339.342323" y="344.12319" style="fill: #d62728; stroke: #d62728"/>
     <use xlink:href="#m9893d51de8" x="356.909644" y="298.313978" style="fill: #d62728; stroke: #d62728"/>
     <use xlink:href="#m9893d51de8" x="392.044285" y="314.901513" style="fill: #d62728; stroke: #d62728"/>
     <use xlink:href="#m9893d51de8" x="409.611606" y="208.372962" style="fill: #d62728; stroke: #d62728"/>
     <use xlink:href="#m9893d51de8" x="427.178927" y="117.617315" style="fill: #d62728; stroke: #d62728"/>
     <use xlink:href="#m9893d51de8" x="444.746248" y="207.136064" style="fill: #d62728; stroke: #d62728"/>
     <use xlink:href="#m9893d51de8" x="462.313569" y="313.390974" style="fill: #d62728; stroke: #d62728"/>
     <use xlink:href="#m9893d51de8" x="497.448211" y="286.409414" style="fill: #d62728; stroke: #d62728"/>
     <use xlink:href="#m9893d51de8" x="515.015532" y="279.949187" style="fill: #d62728; stroke: #d62728"/>
     <use xlink:href="#m9893d51de8" x="532.582853" y="292.178976" style="fill: #d62728; stroke: #d62728"/>
     <use xlink:href="#m9893d51de8" x="550.150174" y="93.79761" style="fill: #d62728; stroke: #d62728"/>
     <use xlink:href="#m9893d51de8" x="585.284816" y="274.424933" style="fill: #d62728; stroke: #d62728"/>
     <use xlink:href="#m9893d51de8" x="602.852137" y="298.329917" style="fill: #d62728; stroke: #d62728"/>
     <use xlink:href="#m9893d51de8" x="620.419458" y="282.699717" style="fill: #d62728; stroke: #d62728"/>
     <use xlink:href="#m9893d51de8" x="637.986779" y="252.928086" style="fill: #d62728; stroke: #d62728"/>
     <use xlink:href="#m9893d51de8" x="655.5541" y="364.840181" style="fill: #d62728; stroke: #d62728"/>
     <use xlink:href="#m9893d51de8" x="673.12142" y="289.455275" style="fill: #d62728; stroke: #d62728"/>
    </g>
   </g>
   <g id="line2d_25">
    <path d="M 93.39983 377.497105 
L 110.96715 387.013601 
L 128.534471 366.137566 
L 146.101792 382.326041 
L 163.669113 353.014329 
L 181.236434 376.792191 
L 198.803755 393.025678 
L 216.371076 369.58168 
L 233.938397 366.519954 
L 251.505718 376.404142 
L 269.073039 352.125109 
L 286.64036 354.006725 
L 304.207681 372.147341 
L 339.342323 416.543906 
L 356.909644 365.251985 
L 392.044285 390.812516 
L 409.611606 506.332202 
L 427.178927 317.490832 
L 444.746248 355.132603 
L 462.313569 396.66187 
L 497.448211 322.484467 
L 515.015532 364.753659 
L 532.582853 299.948817 
L 550.150174 301.488194 
L 585.284816 270.681795 
L 602.852137 298.498009 
L 620.419458 283.817652 
L 637.986779 251.129522 
L 655.5541 306.721546 
L 673.12142 292.501386 
" clip-path="url(#pa9e3d84943)" style="fill: none; stroke: #9467bd; stroke-width: 2; stroke-linecap: square"/>
    <defs>
     <path id="md58fd027cc" d="M 0 3 
C 0.795609 3 1.55874 2.683901 2.12132 2.12132 
C 2.683901 1.55874 3 0.795609 3 0 
C 3 -0.795609 2.683901 -1.55874 2.12132 -2.12132 
C 1.55874 -2.683901 0.795609 -3 0 -3 
C -0.795609 -3 -1.55874 -2.683901 -2.12132 -2.12132 
C -2.683901 -1.55874 -3 -0.795609 -3 0 
C -3 0.795609 -2.683901 1.55874 -2.12132 2.12132 
C -1.55874 2.683901 -0.795609 3 0 3 
z
" style="stroke: #9467bd"/>
    </defs>
    <g clip-path="url(#pa9e3d84943)">
     <use xlink:href="#md58fd027cc" x="93.39983" y="377.497105" style="fill: #9467bd; stroke: #9467bd"/>
     <use xlink:href="#md58fd027cc" x="110.96715" y="387.013601" style="fill: #9467bd; stroke: #9467bd"/>
     <use xlink:href="#md58fd027cc" x="128.534471" y="366.137566" style="fill: #9467bd; stroke: #9467bd"/>
     <use xlink:href="#md58fd027cc" x="146.101792" y="382.326041" style="fill: #9467bd; stroke: #9467bd"/>
     <use xlink:href="#md58fd027cc" x="163.669113" y="353.014329" style="fill: #9467bd; stroke: #9467bd"/>
     <use xlink:href="#md58fd027cc" x="181.236434" y="376.792191" style="fill: #9467bd; stroke: #9467bd"/>
     <use xlink:href="#md58fd027cc" x="198.803755" y="393.025678" style="fill: #9467bd; stroke: #9467bd"/>
     <use xlink:href="#md58fd027cc" x="216.371076" y="369.58168" style="fill: #9467bd; stroke: #9467bd"/>
     <use xlink:href="#md58fd027cc" x="233.938397" y="366.519954" style="fill: #9467bd; stroke: #9467bd"/>
     <use xlink:href="#md58fd027cc" x="251.505718" y="376.404142" style="fill: #9467bd; stroke: #9467bd"/>
     <use xlink:href="#md58fd027cc" x="269.073039" y="352.125109" style="fill: #9467bd; stroke: #9467bd"/>
     <use xlink:href="#md58fd027cc" x="286.64036" y="354.006725" style="fill: #9467bd; stroke: #9467bd"/>
     <use xlink:href="#md58fd027cc" x="304.207681" y="372.147341" style="fill: #9467bd; stroke: #9467bd"/>
     <use xlink:href="#md58fd027cc" x="339.342323" y="416.543906" style="fill: #9467bd; stroke: #9467bd"/>
     <use xlink:href="#md58fd027cc" x="356.909644" y="365.251985" style="fill: #9467bd; stroke: #9467bd"/>
     <use xlink:href="#md58fd027cc" x="392.044285" y="390.812516" style="fill: #9467bd; stroke: #9467bd"/>
     <use xlink:href="#md58fd027cc" x="409.611606" y="506.332202" style="fill: #9467bd; stroke: #9467bd"/>
     <use xlink:href="#md58fd027cc" x="427.178927" y="317.490832" style="fill: #9467bd; stroke: #9467bd"/>
     <use xlink:href="#md58fd027cc" x="444.746248" y="355.132603" style="fill: #9467bd; stroke: #9467bd"/>
     <use xlink:href="#md58fd027cc" x="462.313569" y="396.66187" style="fill: #9467bd; stroke: #9467bd"/>
     <use xlink:href="#md58fd027cc" x="497.448211" y="322.484467" style="fill: #9467bd; stroke: #9467bd"/>
     <use xlink:href="#md58fd027cc" x="515.015532" y="364.753659" style="fill: #9467bd; stroke: #9467bd"/>
     <use xlink:href="#md58fd027cc" x="532.582853" y="299.948817" style="fill: #9467bd; stroke: #9467bd"/>
     <use xlink:href="#md58fd027cc" x="550.150174" y="301.488194" style="fill: #9467bd; stroke: #9467bd"/>
     <use xlink:href="#md58fd027cc" x="585.284816" y="270.681795" style="fill: #9467bd; stroke: #9467bd"/>
     <use xlink:href="#md58fd027cc" x="602.852137" y="298.498009" style="fill: #9467bd; stroke: #9467bd"/>
     <use xlink:href="#md58fd027cc" x="620.419458" y="283.817652" style="fill: #9467bd; stroke: #9467bd"/>
     <use xlink:href="#md58fd027cc" x="637.986779" y="251.129522" style="fill: #9467bd; stroke: #9467bd"/>
     <use xlink:href="#md58fd027cc" x="655.5541" y="306.721546" style="fill: #9467bd; stroke: #9467bd"/>
     <use xlink:href="#md58fd027cc" x="673.12142" y="292.501386" style="fill: #9467bd; stroke: #9467bd"/>
    </g>
   </g>
   <g id="line2d_26">
    <path d="M 93.39983 274.650768 
L 110.96715 96.666611 
L 128.534471 276.859481 
L 146.101792 257.482311 
L 163.669113 215.464338 
L 181.236434 266.852194 
L 198.803755 250.594453 
L 216.371076 207.420086 
L 233.938397 242.827291 
L 251.505718 80.166321 
L 269.073039 277.984423 
L 286.64036 104.891121 
L 304.207681 124.203671 
L 339.342323 267.439832 
L 356.909644 250.251968 
L 392.044285 230.273162 
L 409.611606 275.952272 
L 427.178927 73.774918 
L 444.746248 87.604345 
L 462.313569 121.351933 
L 497.448211 91.384657 
L 515.015532 89.741917 
L 532.582853 260.968451 
L 550.150174 108.857789 
L 585.284816 92.233004 
L 602.852137 220.457906 
L 620.419458 247.506065 
L 637.986779 111.227191 
L 655.5541 287.394321 
L 673.12142 269.499071 
" clip-path="url(#pa9e3d84943)" style="fill: none; stroke: #8c564b; stroke-width: 2; stroke-linecap: square"/>
    <defs>
     <path id="md2fddd0e7c" d="M 0 3 
C 0.795609 3 1.55874 2.683901 2.12132 2.12132 
C 2.683901 1.55874 3 0.795609 3 0 
C 3 -0.795609 2.683901 -1.55874 2.12132 -2.12132 
C 1.55874 -2.683901 0.795609 -3 0 -3 
C -0.795609 -3 -1.55874 -2.683901 -2.12132 -2.12132 
C -2.683901 -1.55874 -3 -0.795609 -3 0 
C -3 0.795609 -2.683901 1.55874 -2.12132 2.12132 
C -1.55874 2.683901 -0.795609 3 0 3 
z
" style="stroke: #8c564b"/>
    </defs>
    <g clip-path="url(#pa9e3d84943)">
     <use xlink:href="#md2fddd0e7c" x="93.39983" y="274.650768" style="fill: #8c564b; stroke: #8c564b"/>
     <use xlink:href="#md2fddd0e7c" x="110.96715" y="96.666611" style="fill: #8c564b; stroke: #8c564b"/>
     <use xlink:href="#md2fddd0e7c" x="128.534471" y="276.859481" style="fill: #8c564b; stroke: #8c564b"/>
     <use xlink:href="#md2fddd0e7c" x="146.101792" y="257.482311" style="fill: #8c564b; stroke: #8c564b"/>
     <use xlink:href="#md2fddd0e7c" x="163.669113" y="215.464338" style="fill: #8c564b; stroke: #8c564b"/>
     <use xlink:href="#md2fddd0e7c" x="181.236434" y="266.852194" style="fill: #8c564b; stroke: #8c564b"/>
     <use xlink:href="#md2fddd0e7c" x="198.803755" y="250.594453" style="fill: #8c564b; stroke: #8c564b"/>
     <use xlink:href="#md2fddd0e7c" x="216.371076" y="207.420086" style="fill: #8c564b; stroke: #8c564b"/>
     <use xlink:href="#md2fddd0e7c" x="233.938397" y="242.827291" style="fill: #8c564b; stroke: #8c564b"/>
     <use xlink:href="#md2fddd0e7c" x="251.505718" y="80.166321" style="fill: #8c564b; stroke: #8c564b"/>
     <use xlink:href="#md2fddd0e7c" x="269.073039" y="277.984423" style="fill: #8c564b; stroke: #8c564b"/>
     <use xlink:href="#md2fddd0e7c" x="286.64036" y="104.891121" style="fill: #8c564b; stroke: #8c564b"/>
     <use xlink:href="#md2fddd0e7c" x="304.207681" y="124.203671" style="fill: #8c564b; stroke: #8c564b"/>
     <use xlink:href="#md2fddd0e7c" x="339.342323" y="267.439832" style="fill: #8c564b; stroke: #8c564b"/>
     <use xlink:href="#md2fddd0e7c" x="356.909644" y="250.251968" style="fill: #8c564b; stroke: #8c564b"/>
     <use xlink:href="#md2fddd0e7c" x="392.044285" y="230.273162" style="fill: #8c564b; stroke: #8c564b"/>
     <use xlink:href="#md2fddd0e7c" x="409.611606" y="275.952272" style="fill: #8c564b; stroke: #8c564b"/>
     <use xlink:href="#md2fddd0e7c" x="427.178927" y="73.774918" style="fill: #8c564b; stroke: #8c564b"/>
     <use xlink:href="#md2fddd0e7c" x="444.746248" y="87.604345" style="fill: #8c564b; stroke: #8c564b"/>
     <use xlink:href="#md2fddd0e7c" x="462.313569" y="121.351933" style="fill: #8c564b; stroke: #8c564b"/>
     <use xlink:href="#md2fddd0e7c" x="497.448211" y="91.384657" style="fill: #8c564b; stroke: #8c564b"/>
     <use xlink:href="#md2fddd0e7c" x="515.015532" y="89.741917" style="fill: #8c564b; stroke: #8c564b"/>
     <use xlink:href="#md2fddd0e7c" x="532.582853" y="260.968451" style="fill: #8c564b; stroke: #8c564b"/>
     <use xlink:href="#md2fddd0e7c" x="550.150174" y="108.857789" style="fill: #8c564b; stroke: #8c564b"/>
     <use xlink:href="#md2fddd0e7c" x="585.284816" y="92.233004" style="fill: #8c564b; stroke: #8c564b"/>
     <use xlink:href="#md2fddd0e7c" x="602.852137" y="220.457906" style="fill: #8c564b; stroke: #8c564b"/>
     <use xlink:href="#md2fddd0e7c" x="620.419458" y="247.506065" style="fill: #8c564b; stroke: #8c564b"/>
     <use xlink:href="#md2fddd0e7c" x="637.986779" y="111.227191" style="fill: #8c564b; stroke: #8c564b"/>
     <use xlink:href="#md2fddd0e7c" x="655.5541" y="287.394321" style="fill: #8c564b; stroke: #8c564b"/>
     <use xlink:href="#md2fddd0e7c" x="673.12142" y="269.499071" style="fill: #8c564b; stroke: #8c564b"/>
    </g>
   </g>
   <g id="patch_3">
    <path d="M 64.41375 529.308125 
L 64.41375 23.837812 
" style="fill: none; stroke: #000000; stroke-width: 0.8; stroke-linejoin: miter; stroke-linecap: square"/>
   </g>
   <g id="patch_4">
    <path d="M 702.1075 529.308125 
L 702.1075 23.837812 
" style="fill: none; stroke: #000000; stroke-width: 0.8; stroke-linejoin: miter; stroke-linecap: square"/>
   </g>
   <g id="patch_5">
    <path d="M 64.41375 529.308125 
L 702.1075 529.308125 
" style="fill: none; stroke: #000000; stroke-width: 0.8; stroke-linejoin: miter; stroke-linecap: square"/>
   </g>
   <g id="patch_6">
    <path d="M 64.41375 23.837812 
L 702.1075 23.837812 
" style="fill: none; stroke: #000000; stroke-width: 0.8; stroke-linejoin: miter; stroke-linecap: square"/>
   </g>
   <g id="text_13">
    <text style="font: 700 14px 'DejaVu Sans', 'Bitstream Vera Sans', 'Computer Modern Sans Serif', 'Lucida Grande', 'Verdana', 'Geneva', 'Lucid', 'Arial', 'Helvetica', 'Avant Garde', sans-serif; text-anchor: middle" x="383.260625" y="17.837813" transform="rotate(-0 383.260625 17.837813)">Tasksubmission - Performance Trend</text>
   </g>
   <g id="legend_1">
    <g id="patch_7">
     <path d="M 740.992188 119.906563 
L 846.004688 119.906563 
Q 848.004688 119.906563 848.004688 117.906563 
L 848.004688 30.837813 
Q 848.004688 28.837813 846.004688 28.837813 
L 740.992188 28.837813 
Q 738.992188 28.837813 738.992188 30.837813 
L 738.992188 117.906563 
Q 738.992188 119.906563 740.992188 119.906563 
z
" style="fill: #ffffff; opacity: 0.8; stroke: #cccccc; stroke-linejoin: miter"/>
    </g>
    <g id="line2d_27">
     <path d="M 742.992188 36.93625 
L 752.992188 36.93625 
L 762.992188 36.93625 
" style="fill: none; stroke: #1f77b4; stroke-width: 2; stroke-linecap: square"/>
     <g>
      <use xlink:href="#m2ddec1fe92" x="752.992188" y="36.93625" style="fill: #1f77b4; stroke: #1f77b4"/>
     </g>
    </g>
    <g id="text_14">
     <text style="font: 10px 'DejaVu Sans', 'Bitstream Vera Sans', 'Computer Modern Sans Serif', 'Lucida Grande', 'Verdana', 'Geneva', 'Lucid', 'Arial', 'Helvetica', 'Avant Garde', sans-serif; text-anchor: start" x="770.992188" y="40.43625" transform="rotate(-0 770.992188 40.43625)">gcc-14.2 - V1</text>
    </g>
    <g id="line2d_28">
     <path d="M 742.992188 51.614375 
L 752.992188 51.614375 
L 762.992188 51.614375 
" style="fill: none; stroke: #ff7f0e; stroke-width: 2; stroke-linecap: square"/>
     <g>
      <use xlink:href="#ma6f0c60eb4" x="752.992188" y="51.614375" style="fill: #ff7f0e; stroke: #ff7f0e"/>
     </g>
    </g>
    <g id="text_15">
     <text style="font: 10px 'DejaVu Sans', 'Bitstream Vera Sans', 'Computer Modern Sans Serif', 'Lucida Grande', 'Verdana', 'Geneva', 'Lucid', 'Arial', 'Helvetica', 'Avant Garde', sans-serif; text-anchor: start" x="770.992188" y="55.114375" transform="rotate(-0 770.992188 55.114375)">gcc-14.2 - V2</text>
    </g>
    <g id="line2d_29">
     <path d="M 742.992188 66.2925 
L 752.992188 66.2925 
L 762.992188 66.2925 
" style="fill: none; stroke: #2ca02c; stroke-width: 2; stroke-linecap: square"/>
     <g>
      <use xlink:href="#m2982ddbd8d" x="752.992188" y="66.2925" style="fill: #2ca02c; stroke: #2ca02c"/>
     </g>
    </g>
    <g id="text_16">
     <text style="font: 10px 'DejaVu Sans', 'Bitstream Vera Sans', 'Computer Modern Sans Serif', 'Lucida Grande', 'Verdana', 'Geneva', 'Lucid', 'Arial', 'Helvetica', 'Avant Garde', sans-serif; text-anchor: start" x="770.992188" y="69.7925" transform="rotate(-0 770.992188 69.7925)">gcc-14.2 - TBB</text>
    </g>
    <g id="line2d_30">
     <path d="M 742.992188 80.970625 
L 752.992188 80.970625 
L 762.992188 80.970625 
" style="fill: none; stroke: #d62728; stroke-width: 2; stroke-linecap: square"/>
     <g>
      <use xlink:href="#m9893d51de8" x="752.992188" y="80.970625" style="fill: #d62728; stroke: #d62728"/>
     </g>
    </g>
    <g id="text_17">
     <text style="font: 10px 'DejaVu Sans', 'Bitstream Vera Sans', 'Computer Modern Sans Serif', 'Lucida Grande', 'Verdana', 'Geneva', 'Lucid', 'Arial', 'Helvetica', 'Avant Garde', sans-serif; text-anchor: start" x="770.992188" y="84.470625" transform="rotate(-0 770.992188 84.470625)">gcc-4.2 - V1</text>
    </g>
    <g id="line2d_31">
     <path d="M 742.992188 95.64875 
L 752.992188 95.64875 
L 762.992188 95.64875 
" style="fill: none; stroke: #9467bd; stroke-width: 2; stroke-linecap: square"/>
     <g>
      <use xlink:href="#md58fd027cc" x="752.992188" y="95.64875" style="fill: #9467bd; stroke: #9467bd"/>
     </g>
    </g>
    <g id="text_18">
     <text style="font: 10px 'DejaVu Sans', 'Bitstream Vera Sans', 'Computer Modern Sans Serif', 'Lucida Grande', 'Verdana', 'Geneva', 'Lucid', 'Arial', 'Helvetica', 'Avant Garde', sans-serif; text-anchor: start" x="770.992188" y="99.14875" transform="rotate(-0 770.992188 99.14875)">gcc-4.2 - V2</text>
    </g>
    <g id="line2d_32">
     <path d="M 742.992188 110.326875 
L 752.992188 110.326875 
L 762.992188 110.326875 
" style="fill: none; stroke: #8c564b; stroke-width: 2; stroke-linecap: square"/>
     <g>
      <use xlink:href="#md2fddd0e7c" x="752.992188" y="110.326875" style="fill: #8c564b; stroke: #8c564b"/>
     </g>
    </g>
    <g id="text_19">
     <text style="font: 10px 'DejaVu Sans', 'Bitstream Vera Sans', 'Computer Modern Sans Serif', 'Lucida Grande', 'Verdana', 'Geneva', 'Lucid', 'Arial', 'Helvetica', 'Avant Garde', sans-serif; text-anchor: start" x="770.992188" y="113.826875" transform="rotate(-0 770.992188 113.826875)">gcc-4.2 - TBB</text>
    </g>
   </g>
  </g>
 </g>
 <defs>
  <clipPath id="pa9e3d84943">
   <rect x="64.41375" y="23.837813" width="637.69375" height="505.470313"/>
  </clipPath>
 </defs>
</svg>
