<?xml version="1.0" encoding="utf-8" standalone="no"?>
<!DOCTYPE svg PUBLIC "-//W3C//DTD SVG 1.1//EN"
  "http://www.w3.org/Graphics/SVG/1.1/DTD/svg11.dtd">
<svg xmlns:xlink="http://www.w3.org/1999/xlink" width="850.259141pt" height="568.8pt" viewBox="0 0 850.259141 568.8" xmlns="http://www.w3.org/2000/svg" version="1.1">
 <metadata>
  <rdf:RDF xmlns:dc="http://purl.org/dc/elements/1.1/" xmlns:cc="http://creativecommons.org/ns#" xmlns:rdf="http://www.w3.org/1999/02/22-rdf-syntax-ns#">
   <cc:Work>
    <dc:type rdf:resource="http://purl.org/dc/dcmitype/StillImage"/>
    <dc:date>2025-08-30T22:53:05.484461</dc:date>
    <dc:format>image/svg+xml</dc:format>
    <dc:creator>
     <cc:Agent>
      <dc:title>Matplotlib v3.9.4, https://matplotlib.org/</dc:title>
     </cc:Agent>
    </dc:creator>
   </cc:Work>
  </rdf:RDF>
 </metadata>
 <defs>
  <style type="text/css">*{stroke-linejoin: round; stroke-linecap: butt}</style>
 </defs>
 <g id="figure_1">
  <g id="patch_1">
   <path d="M 0 568.8 
L 850.259141 568.8 
L 850.259141 0 
L 0 0 
z
" style="fill: #ffffff"/>
  </g>
  <g id="axes_1">
   <g id="patch_2">
    <path d="M 74.01375 529.308125 
L 612.796562 529.308125 
L 612.796562 23.837812 
L 74.01375 23.837812 
z
" style="fill: #ffffff"/>
   </g>
   <g id="matplotlib.axis_1">
    <g id="xtick_1">
     <g id="line2d_1">
      <path d="M 139.320758 529.308125 
L 139.320758 23.837812 
" clip-path="url(#p4fb6e7612d)" style="fill: none; stroke: #b0b0b0; stroke-opacity: 0.3; stroke-width: 0.8; stroke-linecap: square"/>
     </g>
     <g id="line2d_2">
      <defs>
       <path id="mce5ca4c93a" d="M 0 0 
L 0 3.5 
" style="stroke: #000000; stroke-width: 0.8"/>
      </defs>
      <g>
       <use xlink:href="#mce5ca4c93a" x="139.320758" y="529.308125" style="stroke: #000000; stroke-width: 0.8"/>
      </g>
     </g>
     <g id="text_1">
      <text style="font: 10px 'DejaVu Sans', 'Bitstream Vera Sans', 'Computer Modern Sans Serif', 'Lucida Grande', 'Verdana', 'Geneva', 'Lucid', 'Arial', 'Helvetica', 'Avant Garde', sans-serif; text-anchor: middle" x="139.320758" y="543.906563" transform="rotate(-0 139.320758 543.906563)">97.5</text>
     </g>
    </g>
    <g id="xtick_2">
     <g id="line2d_3">
      <path d="M 207.34889 529.308125 
L 207.34889 23.837812 
" clip-path="url(#p4fb6e7612d)" style="fill: none; stroke: #b0b0b0; stroke-opacity: 0.3; stroke-width: 0.8; stroke-linecap: square"/>
     </g>
     <g id="line2d_4">
      <g>
       <use xlink:href="#mce5ca4c93a" x="207.34889" y="529.308125" style="stroke: #000000; stroke-width: 0.8"/>
      </g>
     </g>
     <g id="text_2">
      <text style="font: 10px 'DejaVu Sans', 'Bitstream Vera Sans', 'Computer Modern Sans Serif', 'Lucida Grande', 'Verdana', 'Geneva', 'Lucid', 'Arial', 'Helvetica', 'Avant Garde', sans-serif; text-anchor: middle" x="207.34889" y="543.906563" transform="rotate(-0 207.34889 543.906563)">100.0</text>
     </g>
    </g>
    <g id="xtick_3">
     <g id="line2d_5">
      <path d="M 275.377023 529.308125 
L 275.377023 23.837812 
" clip-path="url(#p4fb6e7612d)" style="fill: none; stroke: #b0b0b0; stroke-opacity: 0.3; stroke-width: 0.8; stroke-linecap: square"/>
     </g>
     <g id="line2d_6">
      <g>
       <use xlink:href="#mce5ca4c93a" x="275.377023" y="529.308125" style="stroke: #000000; stroke-width: 0.8"/>
      </g>
     </g>
     <g id="text_3">
      <text style="font: 10px 'DejaVu Sans', 'Bitstream Vera Sans', 'Computer Modern Sans Serif', 'Lucida Grande', 'Verdana', 'Geneva', 'Lucid', 'Arial', 'Helvetica', 'Avant Garde', sans-serif; text-anchor: middle" x="275.377023" y="543.906563" transform="rotate(-0 275.377023 543.906563)">102.5</text>
     </g>
    </g>
    <g id="xtick_4">
     <g id="line2d_7">
      <path d="M 343.405156 529.308125 
L 343.405156 23.837812 
" clip-path="url(#p4fb6e7612d)" style="fill: none; stroke: #b0b0b0; stroke-opacity: 0.3; stroke-width: 0.8; stroke-linecap: square"/>
     </g>
     <g id="line2d_8">
      <g>
       <use xlink:href="#mce5ca4c93a" x="343.405156" y="529.308125" style="stroke: #000000; stroke-width: 0.8"/>
      </g>
     </g>
     <g id="text_4">
      <text style="font: 10px 'DejaVu Sans', 'Bitstream Vera Sans', 'Computer Modern Sans Serif', 'Lucida Grande', 'Verdana', 'Geneva', 'Lucid', 'Arial', 'Helvetica', 'Avant Garde', sans-serif; text-anchor: middle" x="343.405156" y="543.906563" transform="rotate(-0 343.405156 543.906563)">105.0</text>
     </g>
    </g>
    <g id="xtick_5">
     <g id="line2d_9">
      <path d="M 411.433289 529.308125 
L 411.433289 23.837812 
" clip-path="url(#p4fb6e7612d)" style="fill: none; stroke: #b0b0b0; stroke-opacity: 0.3; stroke-width: 0.8; stroke-linecap: square"/>
     </g>
     <g id="line2d_10">
      <g>
       <use xlink:href="#mce5ca4c93a" x="411.433289" y="529.308125" style="stroke: #000000; stroke-width: 0.8"/>
      </g>
     </g>
     <g id="text_5">
      <text style="font: 10px 'DejaVu Sans', 'Bitstream Vera Sans', 'Computer Modern Sans Serif', 'Lucida Grande', 'Verdana', 'Geneva', 'Lucid', 'Arial', 'Helvetica', 'Avant Garde', sans-serif; text-anchor: middle" x="411.433289" y="543.906563" transform="rotate(-0 411.433289 543.906563)">107.5</text>
     </g>
    </g>
    <g id="xtick_6">
     <g id="line2d_11">
      <path d="M 479.461422 529.308125 
L 479.461422 23.837812 
" clip-path="url(#p4fb6e7612d)" style="fill: none; stroke: #b0b0b0; stroke-opacity: 0.3; stroke-width: 0.8; stroke-linecap: square"/>
     </g>
     <g id="line2d_12">
      <g>
       <use xlink:href="#mce5ca4c93a" x="479.461422" y="529.308125" style="stroke: #000000; stroke-width: 0.8"/>
      </g>
     </g>
     <g id="text_6">
      <text style="font: 10px 'DejaVu Sans', 'Bitstream Vera Sans', 'Computer Modern Sans Serif', 'Lucida Grande', 'Verdana', 'Geneva', 'Lucid', 'Arial', 'Helvetica', 'Avant Garde', sans-serif; text-anchor: middle" x="479.461422" y="543.906563" transform="rotate(-0 479.461422 543.906563)">110.0</text>
     </g>
    </g>
    <g id="xtick_7">
     <g id="line2d_13">
      <path d="M 547.489555 529.308125 
L 547.489555 23.837812 
" clip-path="url(#p4fb6e7612d)" style="fill: none; stroke: #b0b0b0; stroke-opacity: 0.3; stroke-width: 0.8; stroke-linecap: square"/>
     </g>
     <g id="line2d_14">
      <g>
       <use xlink:href="#mce5ca4c93a" x="547.489555" y="529.308125" style="stroke: #000000; stroke-width: 0.8"/>
      </g>
     </g>
     <g id="text_7">
      <text style="font: 10px 'DejaVu Sans', 'Bitstream Vera Sans', 'Computer Modern Sans Serif', 'Lucida Grande', 'Verdana', 'Geneva', 'Lucid', 'Arial', 'Helvetica', 'Avant Garde', sans-serif; text-anchor: middle" x="547.489555" y="543.906563" transform="rotate(-0 547.489555 543.906563)">112.5</text>
     </g>
    </g>
    <g id="text_8">
     <text style="font: 12px 'DejaVu Sans', 'Bitstream Vera Sans', 'Computer Modern Sans Serif', 'Lucida Grande', 'Verdana', 'Geneva', 'Lucid', 'Arial', 'Helvetica', 'Avant Garde', sans-serif; text-anchor: middle" x="343.405156" y="559.104375" transform="rotate(-0 343.405156 559.104375)">Build Number</text>
    </g>
   </g>
   <g id="matplotlib.axis_2">
    <g id="ytick_1">
     <g id="line2d_15">
      <defs>
       <path id="mb80f4d3491" d="M 0 0 
L -2 0 
" style="stroke: #000000; stroke-width: 0.6"/>
      </defs>
      <g>
       <use xlink:href="#mb80f4d3491" x="74.01375" y="443.821" style="stroke: #000000; stroke-width: 0.6"/>
      </g>
     </g>
     <g id="text_9">
      <!-- $\mathdefault{5.2\times10^{5}}$ -->
      <g transform="translate(23.41375 447.620219)">
       <text>
        <tspan style="font: 10px 'DejaVu Sans'" x="0 6.362305 9.041016 17.351562 27.678711 34.041016" y="-0.06406250000000036">5.2×10</tspan>
        <tspan style="font: 7px 'DejaVu Sans'" x="40.499023" y="-3.8921875000000004">5</tspan>
       </text>
      </g>
     </g>
    </g>
    <g id="ytick_2">
     <g id="line2d_16">
      <g>
       <use xlink:href="#mb80f4d3491" x="74.01375" y="330.54379" style="stroke: #000000; stroke-width: 0.6"/>
      </g>
     </g>
     <g id="text_10">
      <!-- $\mathdefault{5.4\times10^{5}}$ -->
      <g transform="translate(22.81375 334.343009)">
       <text>
        <tspan style="font: 10px 'DejaVu Sans'" x="0 6.362305 9.541016 17.851562 28.178711 34.541016" y="-0.06406250000000036">5.4×10</tspan>
        <tspan style="font: 7px 'DejaVu Sans'" x="40.999023" y="-3.8921875000000004">5</tspan>
       </text>
      </g>
     </g>
    </g>
    <g id="ytick_3">
     <g id="line2d_17">
      <g>
       <use xlink:href="#mb80f4d3491" x="74.01375" y="221.386676" style="stroke: #000000; stroke-width: 0.6"/>
      </g>
     </g>
     <g id="text_11">
      <!-- $\mathdefault{5.6\times10^{5}}$ -->
      <g transform="translate(22.81375 225.185895)">
       <text>
        <tspan style="font: 10px 'DejaVu Sans'" x="0 6.362305 9.541016 17.851562 28.178711 34.541016" y="-0.06406250000000036">5.6×10</tspan>
        <tspan style="font: 7px 'DejaVu Sans'" x="40.999023" y="-3.8921875000000004">5</tspan>
       </text>
      </g>
     </g>
    </g>
    <g id="ytick_4">
     <g id="line2d_18">
      <g>
       <use xlink:href="#mb80f4d3491" x="74.01375" y="116.060437" style="stroke: #000000; stroke-width: 0.6"/>
      </g>
     </g>
     <g id="text_12">
      <!-- $\mathdefault{5.8\times10^{5}}$ -->
      <g transform="translate(23.11375 119.859656)">
       <text>
        <tspan style="font: 10px 'DejaVu Sans'" x="0 6.362305 9.291016 17.601562 27.928711 34.291016" y="-0.06406250000000036">5.8×10</tspan>
        <tspan style="font: 7px 'DejaVu Sans'" x="40.749023" y="-3.8921875000000004">5</tspan>
       </text>
      </g>
     </g>
    </g>
    <g id="text_13">
     <text style="font: 12px 'DejaVu Sans', 'Bitstream Vera Sans', 'Computer Modern Sans Serif', 'Lucida Grande', 'Verdana', 'Geneva', 'Lucid', 'Arial', 'Helvetica', 'Avant Garde', sans-serif; text-anchor: middle" x="16.318125" y="276.572969" transform="rotate(-90 16.318125 276.572969)">Median Elapsed Time (nanoseconds)</text>
    </g>
   </g>
   <g id="line2d_19">
    <path d="M 98.503878 98.686651 
L 125.715131 81.433828 
L 180.137637 91.458245 
L 207.34889 125.020307 
L 234.560144 121.420292 
L 261.771397 130.68688 
L 288.98265 46.813736 
L 316.193903 107.946691 
L 343.405156 118.082466 
L 370.616409 99.225908 
L 425.038916 90.937317 
L 452.250169 137.80824 
L 479.461422 107.154064 
L 506.672675 109.154095 
L 533.883928 66.243119 
L 588.306435 128.419902 
" clip-path="url(#p4fb6e7612d)" style="fill: none; stroke: #1f77b4; stroke-width: 2; stroke-linecap: square"/>
    <defs>
     <path id="mfffe667df9" d="M 0 3 
C 0.795609 3 1.55874 2.683901 2.12132 2.12132 
C 2.683901 1.55874 3 0.795609 3 0 
C 3 -0.795609 2.683901 -1.55874 2.12132 -2.12132 
C 1.55874 -2.683901 0.795609 -3 0 -3 
C -0.795609 -3 -1.55874 -2.683901 -2.12132 -2.12132 
C -2.683901 -1.55874 -3 -0.795609 -3 0 
C -3 0.795609 -2.683901 1.55874 -2.12132 2.12132 
C -1.55874 2.683901 -0.795609 3 0 3 
z
" style="stroke: #1f77b4"/>
    </defs>
    <g clip-path="url(#p4fb6e7612d)">
     <use xlink:href="#mfffe667df9" x="98.503878" y="98.686651" style="fill: #1f77b4; stroke: #1f77b4"/>
     <use xlink:href="#mfffe667df9" x="125.715131" y="81.433828" style="fill: #1f77b4; stroke: #1f77b4"/>
     <use xlink:href="#mfffe667df9" x="180.137637" y="91.458245" style="fill: #1f77b4; stroke: #1f77b4"/>
     <use xlink:href="#mfffe667df9" x="207.34889" y="125.020307" style="fill: #1f77b4; stroke: #1f77b4"/>
     <use xlink:href="#mfffe667df9" x="234.560144" y="121.420292" style="fill: #1f77b4; stroke: #1f77b4"/>
     <use xlink:href="#mfffe667df9" x="261.771397" y="130.68688" style="fill: #1f77b4; stroke: #1f77b4"/>
     <use xlink:href="#mfffe667df9" x="288.98265" y="46.813736" style="fill: #1f77b4; stroke: #1f77b4"/>
     <use xlink:href="#mfffe667df9" x="316.193903" y="107.946691" style="fill: #1f77b4; stroke: #1f77b4"/>
     <use xlink:href="#mfffe667df9" x="343.405156" y="118.082466" style="fill: #1f77b4; stroke: #1f77b4"/>
     <use xlink:href="#mfffe667df9" x="370.616409" y="99.225908" style="fill: #1f77b4; stroke: #1f77b4"/>
     <use xlink:href="#mfffe667df9" x="425.038916" y="90.937317" style="fill: #1f77b4; stroke: #1f77b4"/>
     <use xlink:href="#mfffe667df9" x="452.250169" y="137.80824" style="fill: #1f77b4; stroke: #1f77b4"/>
     <use xlink:href="#mfffe667df9" x="479.461422" y="107.154064" style="fill: #1f77b4; stroke: #1f77b4"/>
     <use xlink:href="#mfffe667df9" x="506.672675" y="109.154095" style="fill: #1f77b4; stroke: #1f77b4"/>
     <use xlink:href="#mfffe667df9" x="533.883928" y="66.243119" style="fill: #1f77b4; stroke: #1f77b4"/>
     <use xlink:href="#mfffe667df9" x="588.306435" y="128.419902" style="fill: #1f77b4; stroke: #1f77b4"/>
    </g>
   </g>
   <g id="line2d_20">
    <path d="M 98.503878 184.995366 
L 125.715131 151.837891 
L 180.137637 161.89622 
L 207.34889 251.231086 
L 234.560144 195.318107 
L 261.771397 218.937174 
L 288.98265 157.495554 
L 316.193903 174.861573 
L 343.405156 209.779981 
L 370.616409 169.58779 
L 425.038916 136.568936 
L 452.250169 139.631645 
L 479.461422 193.279496 
L 506.672675 193.595449 
L 533.883928 200.189714 
L 588.306435 215.102458 
" clip-path="url(#p4fb6e7612d)" style="fill: none; stroke: #ff7f0e; stroke-width: 2; stroke-linecap: square"/>
    <defs>
     <path id="md573f8e207" d="M 0 3 
C 0.795609 3 1.55874 2.683901 2.12132 2.12132 
C 2.683901 1.55874 3 0.795609 3 0 
C 3 -0.795609 2.683901 -1.55874 2.12132 -2.12132 
C 1.55874 -2.683901 0.795609 -3 0 -3 
C -0.795609 -3 -1.55874 -2.683901 -2.12132 -2.12132 
C -2.683901 -1.55874 -3 -0.795609 -3 0 
C -3 0.795609 -2.683901 1.55874 -2.12132 2.12132 
C -1.55874 2.683901 -0.795609 3 0 3 
z
" style="stroke: #ff7f0e"/>
    </defs>
    <g clip-path="url(#p4fb6e7612d)">
     <use xlink:href="#md573f8e207" x="98.503878" y="184.995366" style="fill: #ff7f0e; stroke: #ff7f0e"/>
     <use xlink:href="#md573f8e207" x="125.715131" y="151.837891" style="fill: #ff7f0e; stroke: #ff7f0e"/>
     <use xlink:href="#md573f8e207" x="180.137637" y="161.89622" style="fill: #ff7f0e; stroke: #ff7f0e"/>
     <use xlink:href="#md573f8e207" x="207.34889" y="251.231086" style="fill: #ff7f0e; stroke: #ff7f0e"/>
     <use xlink:href="#md573f8e207" x="234.560144" y="195.318107" style="fill: #ff7f0e; stroke: #ff7f0e"/>
     <use xlink:href="#md573f8e207" x="261.771397" y="218.937174" style="fill: #ff7f0e; stroke: #ff7f0e"/>
     <use xlink:href="#md573f8e207" x="288.98265" y="157.495554" style="fill: #ff7f0e; stroke: #ff7f0e"/>
     <use xlink:href="#md573f8e207" x="316.193903" y="174.861573" style="fill: #ff7f0e; stroke: #ff7f0e"/>
     <use xlink:href="#md573f8e207" x="343.405156" y="209.779981" style="fill: #ff7f0e; stroke: #ff7f0e"/>
     <use xlink:href="#md573f8e207" x="370.616409" y="169.58779" style="fill: #ff7f0e; stroke: #ff7f0e"/>
     <use xlink:href="#md573f8e207" x="425.038916" y="136.568936" style="fill: #ff7f0e; stroke: #ff7f0e"/>
     <use xlink:href="#md573f8e207" x="452.250169" y="139.631645" style="fill: #ff7f0e; stroke: #ff7f0e"/>
     <use xlink:href="#md573f8e207" x="479.461422" y="193.279496" style="fill: #ff7f0e; stroke: #ff7f0e"/>
     <use xlink:href="#md573f8e207" x="506.672675" y="193.595449" style="fill: #ff7f0e; stroke: #ff7f0e"/>
     <use xlink:href="#md573f8e207" x="533.883928" y="200.189714" style="fill: #ff7f0e; stroke: #ff7f0e"/>
     <use xlink:href="#md573f8e207" x="588.306435" y="215.102458" style="fill: #ff7f0e; stroke: #ff7f0e"/>
    </g>
   </g>
   <g id="line2d_21">
    <path d="M 98.503878 474.521093 
L 125.715131 442.072564 
L 180.137637 453.454486 
L 207.34889 465.700023 
L 234.560144 474.411464 
L 261.771397 415.772515 
L 288.98265 490.302139 
L 316.193903 453.938624 
L 343.405156 468.556215 
L 370.616409 457.740311 
L 425.038916 456.108936 
L 452.250169 460.480974 
L 479.461422 465.251191 
L 533.883928 465.962261 
" clip-path="url(#p4fb6e7612d)" style="fill: none; stroke: #2ca02c; stroke-width: 2; stroke-linecap: square"/>
    <defs>
     <path id="mb662265004" d="M 0 3 
C 0.795609 3 1.55874 2.683901 2.12132 2.12132 
C 2.683901 1.55874 3 0.795609 3 0 
C 3 -0.795609 2.683901 -1.55874 2.12132 -2.12132 
C 1.55874 -2.683901 0.795609 -3 0 -3 
C -0.795609 -3 -1.55874 -2.683901 -2.12132 -2.12132 
C -2.683901 -1.55874 -3 -0.795609 -3 0 
C -3 0.795609 -2.683901 1.55874 -2.12132 2.12132 
C -1.55874 2.683901 -0.795609 3 0 3 
z
" style="stroke: #2ca02c"/>
    </defs>
    <g clip-path="url(#p4fb6e7612d)">
     <use xlink:href="#mb662265004" x="98.503878" y="474.521093" style="fill: #2ca02c; stroke: #2ca02c"/>
     <use xlink:href="#mb662265004" x="125.715131" y="442.072564" style="fill: #2ca02c; stroke: #2ca02c"/>
     <use xlink:href="#mb662265004" x="180.137637" y="453.454486" style="fill: #2ca02c; stroke: #2ca02c"/>
     <use xlink:href="#mb662265004" x="207.34889" y="465.700023" style="fill: #2ca02c; stroke: #2ca02c"/>
     <use xlink:href="#mb662265004" x="234.560144" y="474.411464" style="fill: #2ca02c; stroke: #2ca02c"/>
     <use xlink:href="#mb662265004" x="261.771397" y="415.772515" style="fill: #2ca02c; stroke: #2ca02c"/>
     <use xlink:href="#mb662265004" x="288.98265" y="490.302139" style="fill: #2ca02c; stroke: #2ca02c"/>
     <use xlink:href="#mb662265004" x="316.193903" y="453.938624" style="fill: #2ca02c; stroke: #2ca02c"/>
     <use xlink:href="#mb662265004" x="343.405156" y="468.556215" style="fill: #2ca02c; stroke: #2ca02c"/>
     <use xlink:href="#mb662265004" x="370.616409" y="457.740311" style="fill: #2ca02c; stroke: #2ca02c"/>
     <use xlink:href="#mb662265004" x="425.038916" y="456.108936" style="fill: #2ca02c; stroke: #2ca02c"/>
     <use xlink:href="#mb662265004" x="452.250169" y="460.480974" style="fill: #2ca02c; stroke: #2ca02c"/>
     <use xlink:href="#mb662265004" x="479.461422" y="465.251191" style="fill: #2ca02c; stroke: #2ca02c"/>
     <use xlink:href="#mb662265004" x="533.883928" y="465.962261" style="fill: #2ca02c; stroke: #2ca02c"/>
    </g>
   </g>
   <g id="line2d_22">
    <path d="M 98.503878 479.766386 
L 125.715131 466.538566 
L 180.137637 477.763957 
L 207.34889 445.230299 
L 234.560144 484.722431 
L 261.771397 375.894805 
L 288.98265 506.332202 
L 316.193903 428.037793 
L 343.405156 493.898394 
L 370.616409 473.374268 
L 425.038916 480.690091 
L 452.250169 491.795021 
L 479.461422 466.298958 
L 533.883928 474.275599 
" clip-path="url(#p4fb6e7612d)" style="fill: none; stroke: #d62728; stroke-width: 2; stroke-linecap: square"/>
    <defs>
     <path id="m11af981579" d="M 0 3 
C 0.795609 3 1.55874 2.683901 2.12132 2.12132 
C 2.683901 1.55874 3 0.795609 3 0 
C 3 -0.795609 2.683901 -1.55874 2.12132 -2.12132 
C 1.55874 -2.683901 0.795609 -3 0 -3 
C -0.795609 -3 -1.55874 -2.683901 -2.12132 -2.12132 
C -2.683901 -1.55874 -3 -0.795609 -3 0 
C -3 0.795609 -2.683901 1.55874 -2.12132 2.12132 
C -1.55874 2.683901 -0.795609 3 0 3 
z
" style="stroke: #d62728"/>
    </defs>
    <g clip-path="url(#p4fb6e7612d)">
     <use xlink:href="#m11af981579" x="98.503878" y="479.766386" style="fill: #d62728; stroke: #d62728"/>
     <use xlink:href="#m11af981579" x="125.715131" y="466.538566" style="fill: #d62728; stroke: #d62728"/>
     <use xlink:href="#m11af981579" x="180.137637" y="477.763957" style="fill: #d62728; stroke: #d62728"/>
     <use xlink:href="#m11af981579" x="207.34889" y="445.230299" style="fill: #d62728; stroke: #d62728"/>
     <use xlink:href="#m11af981579" x="234.560144" y="484.722431" style="fill: #d62728; stroke: #d62728"/>
     <use xlink:href="#m11af981579" x="261.771397" y="375.894805" style="fill: #d62728; stroke: #d62728"/>
     <use xlink:href="#m11af981579" x="288.98265" y="506.332202" style="fill: #d62728; stroke: #d62728"/>
     <use xlink:href="#m11af981579" x="316.193903" y="428.037793" style="fill: #d62728; stroke: #d62728"/>
     <use xlink:href="#m11af981579" x="343.405156" y="493.898394" style="fill: #d62728; stroke: #d62728"/>
     <use xlink:href="#m11af981579" x="370.616409" y="473.374268" style="fill: #d62728; stroke: #d62728"/>
     <use xlink:href="#m11af981579" x="425.038916" y="480.690091" style="fill: #d62728; stroke: #d62728"/>
     <use xlink:href="#m11af981579" x="452.250169" y="491.795021" style="fill: #d62728; stroke: #d62728"/>
     <use xlink:href="#m11af981579" x="479.461422" y="466.298958" style="fill: #d62728; stroke: #d62728"/>
     <use xlink:href="#m11af981579" x="533.883928" y="474.275599" style="fill: #d62728; stroke: #d62728"/>
    </g>
   </g>
   <g id="patch_3">
    <path d="M 74.01375 529.308125 
L 74.01375 23.837813 
" style="fill: none; stroke: #000000; stroke-width: 0.8; stroke-linejoin: miter; stroke-linecap: square"/>
   </g>
   <g id="patch_4">
    <path d="M 612.796562 529.308125 
L 612.796562 23.837813 
" style="fill: none; stroke: #000000; stroke-width: 0.8; stroke-linejoin: miter; stroke-linecap: square"/>
   </g>
   <g id="patch_5">
    <path d="M 74.01375 529.308125 
L 612.796562 529.308125 
" style="fill: none; stroke: #000000; stroke-width: 0.8; stroke-linejoin: miter; stroke-linecap: square"/>
   </g>
   <g id="patch_6">
    <path d="M 74.01375 23.837812 
L 612.796562 23.837812 
" style="fill: none; stroke: #000000; stroke-width: 0.8; stroke-linejoin: miter; stroke-linecap: square"/>
   </g>
   <g id="text_14">
    <text style="font: 700 14px 'DejaVu Sans', 'Bitstream Vera Sans', 'Computer Modern Sans Serif', 'Lucida Grande', 'Verdana', 'Geneva', 'Lucid', 'Arial', 'Helvetica', 'Avant Garde', sans-serif; text-anchor: middle" x="343.405156" y="17.837813" transform="rotate(-0 343.405156 17.837813)">Coroutine Creation - Performance Trend</text>
   </g>
   <g id="legend_1">
    <g id="patch_7">
     <path d="M 646.735703 91.662813 
L 841.059141 91.662813 
Q 843.059141 91.662813 843.059141 89.662813 
L 843.059141 30.837813 
Q 843.059141 28.837813 841.059141 28.837813 
L 646.735703 28.837813 
Q 644.735703 28.837813 644.735703 30.837813 
L 644.735703 89.662813 
Q 644.735703 91.662813 646.735703 91.662813 
z
" style="fill: #ffffff; opacity: 0.8; stroke: #cccccc; stroke-linejoin: miter"/>
    </g>
    <g id="line2d_23">
     <path d="M 648.735703 36.93625 
L 658.735703 36.93625 
L 668.735703 36.93625 
" style="fill: none; stroke: #1f77b4; stroke-width: 2; stroke-linecap: square"/>
     <g>
      <use xlink:href="#mfffe667df9" x="658.735703" y="36.93625" style="fill: #1f77b4; stroke: #1f77b4"/>
     </g>
    </g>
    <g id="text_15">
     <text style="font: 10px 'DejaVu Sans', 'Bitstream Vera Sans', 'Computer Modern Sans Serif', 'Lucida Grande', 'Verdana', 'Geneva', 'Lucid', 'Arial', 'Helvetica', 'Avant Garde', sans-serif; text-anchor: start" x="676.735703" y="40.43625" transform="rotate(-0 676.735703 40.43625)">gcc-14.2 - CoroutineCreation_V1</text>
    </g>
    <g id="line2d_24">
     <path d="M 648.735703 51.8925 
L 658.735703 51.8925 
L 668.735703 51.8925 
" style="fill: none; stroke: #ff7f0e; stroke-width: 2; stroke-linecap: square"/>
     <g>
      <use xlink:href="#md573f8e207" x="658.735703" y="51.8925" style="fill: #ff7f0e; stroke: #ff7f0e"/>
     </g>
    </g>
    <g id="text_16">
     <text style="font: 10px 'DejaVu Sans', 'Bitstream Vera Sans', 'Computer Modern Sans Serif', 'Lucida Grande', 'Verdana', 'Geneva', 'Lucid', 'Arial', 'Helvetica', 'Avant Garde', sans-serif; text-anchor: start" x="676.735703" y="55.3925" transform="rotate(-0 676.735703 55.3925)">gcc-14.2 - CoroutineCreation_V2</text>
    </g>
    <g id="line2d_25">
     <path d="M 648.735703 66.84875 
L 658.735703 66.84875 
L 668.735703 66.84875 
" style="fill: none; stroke: #2ca02c; stroke-width: 2; stroke-linecap: square"/>
     <g>
      <use xlink:href="#mb662265004" x="658.735703" y="66.84875" style="fill: #2ca02c; stroke: #2ca02c"/>
     </g>
    </g>
    <g id="text_17">
     <text style="font: 10px 'DejaVu Sans', 'Bitstream Vera Sans', 'Computer Modern Sans Serif', 'Lucida Grande', 'Verdana', 'Geneva', 'Lucid', 'Arial', 'Helvetica', 'Avant Garde', sans-serif; text-anchor: start" x="676.735703" y="70.34875" transform="rotate(-0 676.735703 70.34875)">gcc-4.2 - CoroutineCreation_V1</text>
    </g>
    <g id="line2d_26">
     <path d="M 648.735703 81.805 
L 658.735703 81.805 
L 668.735703 81.805 
" style="fill: none; stroke: #d62728; stroke-width: 2; stroke-linecap: square"/>
     <g>
      <use xlink:href="#m11af981579" x="658.735703" y="81.805" style="fill: #d62728; stroke: #d62728"/>
     </g>
    </g>
    <g id="text_18">
     <text style="font: 10px 'DejaVu Sans', 'Bitstream Vera Sans', 'Computer Modern Sans Serif', 'Lucida Grande', 'Verdana', 'Geneva', 'Lucid', 'Arial', 'Helvetica', 'Avant Garde', sans-serif; text-anchor: start" x="676.735703" y="85.305" transform="rotate(-0 676.735703 85.305)">gcc-4.2 - CoroutineCreation_V2</text>
    </g>
   </g>
  </g>
 </g>
 <defs>
  <clipPath id="p4fb6e7612d">
   <rect x="74.01375" y="23.837813" width="538.782812" height="505.470313"/>
  </clipPath>
 </defs>
</svg>
