<?xml version="1.0" encoding="utf-8" standalone="no"?>
<!DOCTYPE svg PUBLIC "-//W3C//DTD SVG 1.1//EN"
  "http://www.w3.org/Graphics/SVG/1.1/DTD/svg11.dtd">
<svg xmlns:xlink="http://www.w3.org/1999/xlink" width="854.724687pt" height="568.8pt" viewBox="0 0 854.724687 568.8" xmlns="http://www.w3.org/2000/svg" version="1.1">
 <metadata>
  <rdf:RDF xmlns:dc="http://purl.org/dc/elements/1.1/" xmlns:cc="http://creativecommons.org/ns#" xmlns:rdf="http://www.w3.org/1999/02/22-rdf-syntax-ns#">
   <cc:Work>
    <dc:type rdf:resource="http://purl.org/dc/dcmitype/StillImage"/>
    <dc:date>2025-08-13T21:52:42.608614</dc:date>
    <dc:format>image/svg+xml</dc:format>
    <dc:creator>
     <cc:Agent>
      <dc:title>Matplotlib v3.9.4, https://matplotlib.org/</dc:title>
     </cc:Agent>
    </dc:creator>
   </cc:Work>
  </rdf:RDF>
 </metadata>
 <defs>
  <style type="text/css">*{stroke-linejoin: round; stroke-linecap: butt}</style>
 </defs>
 <g id="figure_1">
  <g id="patch_1">
   <path d="M 0 568.8 
L 854.724687 568.8 
L 854.724687 0 
L 0 0 
z
" style="fill: #ffffff"/>
  </g>
  <g id="axes_1">
   <g id="patch_2">
    <path d="M 74.01375 529.308125 
L 702.1075 529.308125 
L 702.1075 23.837812 
L 74.01375 23.837812 
z
" style="fill: #ffffff"/>
   </g>
   <g id="matplotlib.axis_1">
    <g id="xtick_1">
     <g id="line2d_1">
      <path d="M 140.629754 529.308125 
L 140.629754 23.837812 
" clip-path="url(#pae8edb1fa3)" style="fill: none; stroke: #b0b0b0; stroke-opacity: 0.3; stroke-width: 0.8; stroke-linecap: square"/>
     </g>
     <g id="line2d_2">
      <defs>
       <path id="m0ef45f5838" d="M 0 0 
L 0 3.5 
" style="stroke: #000000; stroke-width: 0.8"/>
      </defs>
      <g>
       <use xlink:href="#m0ef45f5838" x="140.629754" y="529.308125" style="stroke: #000000; stroke-width: 0.8"/>
      </g>
     </g>
     <g id="text_1">
      <text style="font: 10px 'DejaVu Sans', 'Bitstream Vera Sans', 'Computer Modern Sans Serif', 'Lucida Grande', 'Verdana', 'Geneva', 'Lucid', 'Arial', 'Helvetica', 'Avant Garde', sans-serif; text-anchor: middle" x="140.629754" y="543.906563" transform="rotate(-0 140.629754 543.906563)">72</text>
     </g>
    </g>
    <g id="xtick_2">
     <g id="line2d_3">
      <path d="M 216.76233 529.308125 
L 216.76233 23.837812 
" clip-path="url(#pae8edb1fa3)" style="fill: none; stroke: #b0b0b0; stroke-opacity: 0.3; stroke-width: 0.8; stroke-linecap: square"/>
     </g>
     <g id="line2d_4">
      <g>
       <use xlink:href="#m0ef45f5838" x="216.76233" y="529.308125" style="stroke: #000000; stroke-width: 0.8"/>
      </g>
     </g>
     <g id="text_2">
      <text style="font: 10px 'DejaVu Sans', 'Bitstream Vera Sans', 'Computer Modern Sans Serif', 'Lucida Grande', 'Verdana', 'Geneva', 'Lucid', 'Arial', 'Helvetica', 'Avant Garde', sans-serif; text-anchor: middle" x="216.76233" y="543.906563" transform="rotate(-0 216.76233 543.906563)">74</text>
     </g>
    </g>
    <g id="xtick_3">
     <g id="line2d_5">
      <path d="M 292.894905 529.308125 
L 292.894905 23.837812 
" clip-path="url(#pae8edb1fa3)" style="fill: none; stroke: #b0b0b0; stroke-opacity: 0.3; stroke-width: 0.8; stroke-linecap: square"/>
     </g>
     <g id="line2d_6">
      <g>
       <use xlink:href="#m0ef45f5838" x="292.894905" y="529.308125" style="stroke: #000000; stroke-width: 0.8"/>
      </g>
     </g>
     <g id="text_3">
      <text style="font: 10px 'DejaVu Sans', 'Bitstream Vera Sans', 'Computer Modern Sans Serif', 'Lucida Grande', 'Verdana', 'Geneva', 'Lucid', 'Arial', 'Helvetica', 'Avant Garde', sans-serif; text-anchor: middle" x="292.894905" y="543.906563" transform="rotate(-0 292.894905 543.906563)">76</text>
     </g>
    </g>
    <g id="xtick_4">
     <g id="line2d_7">
      <path d="M 369.027481 529.308125 
L 369.027481 23.837812 
" clip-path="url(#pae8edb1fa3)" style="fill: none; stroke: #b0b0b0; stroke-opacity: 0.3; stroke-width: 0.8; stroke-linecap: square"/>
     </g>
     <g id="line2d_8">
      <g>
       <use xlink:href="#m0ef45f5838" x="369.027481" y="529.308125" style="stroke: #000000; stroke-width: 0.8"/>
      </g>
     </g>
     <g id="text_4">
      <text style="font: 10px 'DejaVu Sans', 'Bitstream Vera Sans', 'Computer Modern Sans Serif', 'Lucida Grande', 'Verdana', 'Geneva', 'Lucid', 'Arial', 'Helvetica', 'Avant Garde', sans-serif; text-anchor: middle" x="369.027481" y="543.906563" transform="rotate(-0 369.027481 543.906563)">78</text>
     </g>
    </g>
    <g id="xtick_5">
     <g id="line2d_9">
      <path d="M 445.160057 529.308125 
L 445.160057 23.837812 
" clip-path="url(#pae8edb1fa3)" style="fill: none; stroke: #b0b0b0; stroke-opacity: 0.3; stroke-width: 0.8; stroke-linecap: square"/>
     </g>
     <g id="line2d_10">
      <g>
       <use xlink:href="#m0ef45f5838" x="445.160057" y="529.308125" style="stroke: #000000; stroke-width: 0.8"/>
      </g>
     </g>
     <g id="text_5">
      <text style="font: 10px 'DejaVu Sans', 'Bitstream Vera Sans', 'Computer Modern Sans Serif', 'Lucida Grande', 'Verdana', 'Geneva', 'Lucid', 'Arial', 'Helvetica', 'Avant Garde', sans-serif; text-anchor: middle" x="445.160057" y="543.906563" transform="rotate(-0 445.160057 543.906563)">80</text>
     </g>
    </g>
    <g id="xtick_6">
     <g id="line2d_11">
      <path d="M 521.292633 529.308125 
L 521.292633 23.837812 
" clip-path="url(#pae8edb1fa3)" style="fill: none; stroke: #b0b0b0; stroke-opacity: 0.3; stroke-width: 0.8; stroke-linecap: square"/>
     </g>
     <g id="line2d_12">
      <g>
       <use xlink:href="#m0ef45f5838" x="521.292633" y="529.308125" style="stroke: #000000; stroke-width: 0.8"/>
      </g>
     </g>
     <g id="text_6">
      <text style="font: 10px 'DejaVu Sans', 'Bitstream Vera Sans', 'Computer Modern Sans Serif', 'Lucida Grande', 'Verdana', 'Geneva', 'Lucid', 'Arial', 'Helvetica', 'Avant Garde', sans-serif; text-anchor: middle" x="521.292633" y="543.906563" transform="rotate(-0 521.292633 543.906563)">82</text>
     </g>
    </g>
    <g id="xtick_7">
     <g id="line2d_13">
      <path d="M 597.425208 529.308125 
L 597.425208 23.837812 
" clip-path="url(#pae8edb1fa3)" style="fill: none; stroke: #b0b0b0; stroke-opacity: 0.3; stroke-width: 0.8; stroke-linecap: square"/>
     </g>
     <g id="line2d_14">
      <g>
       <use xlink:href="#m0ef45f5838" x="597.425208" y="529.308125" style="stroke: #000000; stroke-width: 0.8"/>
      </g>
     </g>
     <g id="text_7">
      <text style="font: 10px 'DejaVu Sans', 'Bitstream Vera Sans', 'Computer Modern Sans Serif', 'Lucida Grande', 'Verdana', 'Geneva', 'Lucid', 'Arial', 'Helvetica', 'Avant Garde', sans-serif; text-anchor: middle" x="597.425208" y="543.906563" transform="rotate(-0 597.425208 543.906563)">84</text>
     </g>
    </g>
    <g id="xtick_8">
     <g id="line2d_15">
      <path d="M 673.557784 529.308125 
L 673.557784 23.837812 
" clip-path="url(#pae8edb1fa3)" style="fill: none; stroke: #b0b0b0; stroke-opacity: 0.3; stroke-width: 0.8; stroke-linecap: square"/>
     </g>
     <g id="line2d_16">
      <g>
       <use xlink:href="#m0ef45f5838" x="673.557784" y="529.308125" style="stroke: #000000; stroke-width: 0.8"/>
      </g>
     </g>
     <g id="text_8">
      <text style="font: 10px 'DejaVu Sans', 'Bitstream Vera Sans', 'Computer Modern Sans Serif', 'Lucida Grande', 'Verdana', 'Geneva', 'Lucid', 'Arial', 'Helvetica', 'Avant Garde', sans-serif; text-anchor: middle" x="673.557784" y="543.906563" transform="rotate(-0 673.557784 543.906563)">86</text>
     </g>
    </g>
    <g id="text_9">
     <text style="font: 12px 'DejaVu Sans', 'Bitstream Vera Sans', 'Computer Modern Sans Serif', 'Lucida Grande', 'Verdana', 'Geneva', 'Lucid', 'Arial', 'Helvetica', 'Avant Garde', sans-serif; text-anchor: middle" x="388.060625" y="559.104375" transform="rotate(-0 388.060625 559.104375)">Build Number</text>
    </g>
   </g>
   <g id="matplotlib.axis_2">
    <g id="ytick_1">
     <g id="line2d_17">
      <defs>
       <path id="mbab177ed6c" d="M 0 0 
L -2 0 
" style="stroke: #000000; stroke-width: 0.6"/>
      </defs>
      <g>
       <use xlink:href="#mbab177ed6c" x="74.01375" y="457.368677" style="stroke: #000000; stroke-width: 0.6"/>
      </g>
     </g>
     <g id="text_10">
      <!-- $\mathdefault{1.2\times10^{5}}$ -->
      <g transform="translate(23.41375 461.167896)">
       <text>
        <tspan style="font: 10px 'DejaVu Sans'" x="0 6.362305 9.041016 17.351562 27.678711 34.041016" y="-0.06406250000000036">1.2×10</tspan>
        <tspan style="font: 7px 'DejaVu Sans'" x="40.499023" y="-3.8921875000000004">5</tspan>
       </text>
      </g>
     </g>
    </g>
    <g id="ytick_2">
     <g id="line2d_18">
      <g>
       <use xlink:href="#mbab177ed6c" x="74.01375" y="374.657118" style="stroke: #000000; stroke-width: 0.6"/>
      </g>
     </g>
     <g id="text_11">
      <!-- $\mathdefault{1.4\times10^{5}}$ -->
      <g transform="translate(22.81375 378.456337)">
       <text>
        <tspan style="font: 10px 'DejaVu Sans'" x="0 6.362305 9.541016 17.851562 28.178711 34.541016" y="-0.06406250000000036">1.4×10</tspan>
        <tspan style="font: 7px 'DejaVu Sans'" x="40.999023" y="-3.8921875000000004">5</tspan>
       </text>
      </g>
     </g>
    </g>
    <g id="ytick_3">
     <g id="line2d_19">
      <g>
       <use xlink:href="#mbab177ed6c" x="74.01375" y="303.009107" style="stroke: #000000; stroke-width: 0.6"/>
      </g>
     </g>
     <g id="text_12">
      <!-- $\mathdefault{1.6\times10^{5}}$ -->
      <g transform="translate(22.81375 306.808326)">
       <text>
        <tspan style="font: 10px 'DejaVu Sans'" x="0 6.362305 9.541016 17.851562 28.178711 34.541016" y="-0.06406250000000036">1.6×10</tspan>
        <tspan style="font: 7px 'DejaVu Sans'" x="40.999023" y="-3.8921875000000004">5</tspan>
       </text>
      </g>
     </g>
    </g>
    <g id="ytick_4">
     <g id="line2d_20">
      <g>
       <use xlink:href="#mbab177ed6c" x="74.01375" y="239.811082" style="stroke: #000000; stroke-width: 0.6"/>
      </g>
     </g>
     <g id="text_13">
      <!-- $\mathdefault{1.8\times10^{5}}$ -->
      <g transform="translate(23.11375 243.610301)">
       <text>
        <tspan style="font: 10px 'DejaVu Sans'" x="0 6.362305 9.291016 17.601562 27.928711 34.291016" y="-0.06406250000000036">1.8×10</tspan>
        <tspan style="font: 7px 'DejaVu Sans'" x="40.749023" y="-3.8921875000000004">5</tspan>
       </text>
      </g>
     </g>
    </g>
    <g id="ytick_5">
     <g id="line2d_21">
      <g>
       <use xlink:href="#mbab177ed6c" x="74.01375" y="183.278523" style="stroke: #000000; stroke-width: 0.6"/>
      </g>
     </g>
     <g id="text_14">
      <!-- $\mathdefault{2\times10^{5}}$ -->
      <g transform="translate(32.41375 187.077742)">
       <text>
        <tspan style="font: 10px 'DejaVu Sans'" x="0 8.310547 18.637695 25" y="-0.06406250000000036">2×10</tspan>
        <tspan style="font: 7px 'DejaVu Sans'" x="31.458008" y="-3.8921875000000004">5</tspan>
       </text>
      </g>
     </g>
    </g>
    <g id="ytick_6">
     <g id="line2d_22">
      <g>
       <use xlink:href="#mbab177ed6c" x="74.01375" y="132.138602" style="stroke: #000000; stroke-width: 0.6"/>
      </g>
     </g>
     <g id="text_15">
      <!-- $\mathdefault{2.2\times10^{5}}$ -->
      <g transform="translate(23.41375 135.937821)">
       <text>
        <tspan style="font: 10px 'DejaVu Sans'" x="0 6.362305 9.041016 17.351562 27.678711 34.041016" y="-0.06406250000000036">2.2×10</tspan>
        <tspan style="font: 7px 'DejaVu Sans'" x="40.499023" y="-3.8921875000000004">5</tspan>
       </text>
      </g>
     </g>
    </g>
    <g id="ytick_7">
     <g id="line2d_23">
      <g>
       <use xlink:href="#mbab177ed6c" x="74.01375" y="85.451512" style="stroke: #000000; stroke-width: 0.6"/>
      </g>
     </g>
     <g id="text_16">
      <!-- $\mathdefault{2.4\times10^{5}}$ -->
      <g transform="translate(22.81375 89.250731)">
       <text>
        <tspan style="font: 10px 'DejaVu Sans'" x="0 6.362305 9.541016 17.851562 28.178711 34.541016" y="-0.06406250000000036">2.4×10</tspan>
        <tspan style="font: 7px 'DejaVu Sans'" x="40.999023" y="-3.8921875000000004">5</tspan>
       </text>
      </g>
     </g>
    </g>
    <g id="ytick_8">
     <g id="line2d_24">
      <g>
       <use xlink:href="#mbab177ed6c" x="74.01375" y="42.503553" style="stroke: #000000; stroke-width: 0.6"/>
      </g>
     </g>
     <g id="text_17">
      <!-- $\mathdefault{2.6\times10^{5}}$ -->
      <g transform="translate(22.81375 46.302772)">
       <text>
        <tspan style="font: 10px 'DejaVu Sans'" x="0 6.362305 9.541016 17.851562 28.178711 34.541016" y="-0.06406250000000036">2.6×10</tspan>
        <tspan style="font: 7px 'DejaVu Sans'" x="40.999023" y="-3.8921875000000004">5</tspan>
       </text>
      </g>
     </g>
    </g>
    <g id="text_18">
     <text style="font: 12px 'DejaVu Sans', 'Bitstream Vera Sans', 'Computer Modern Sans Serif', 'Lucida Grande', 'Verdana', 'Geneva', 'Lucid', 'Arial', 'Helvetica', 'Avant Garde', sans-serif; text-anchor: middle" x="16.318125" y="276.572969" transform="rotate(-90 16.318125 276.572969)">Median Elapsed Time (nanoseconds)</text>
    </g>
   </g>
   <g id="line2d_25">
    <path d="M 102.563466 430.299977 
L 140.629754 69.224218 
L 178.696042 249.456731 
L 216.76233 394.336416 
L 254.828617 259.793243 
L 292.894905 377.755886 
L 330.961193 315.699493 
L 369.027481 107.97538 
L 407.093769 353.990229 
L 445.160057 337.911094 
L 483.226345 372.505222 
L 521.292633 315.993162 
L 559.35892 425.694016 
L 597.425208 340.172713 
L 635.491496 386.138118 
L 673.557784 367.746801 
" clip-path="url(#pae8edb1fa3)" style="fill: none; stroke: #1f77b4; stroke-width: 2; stroke-linecap: square"/>
    <defs>
     <path id="mcc9c19897f" d="M 0 3 
C 0.795609 3 1.55874 2.683901 2.12132 2.12132 
C 2.683901 1.55874 3 0.795609 3 0 
C 3 -0.795609 2.683901 -1.55874 2.12132 -2.12132 
C 1.55874 -2.683901 0.795609 -3 0 -3 
C -0.795609 -3 -1.55874 -2.683901 -2.12132 -2.12132 
C -2.683901 -1.55874 -3 -0.795609 -3 0 
C -3 0.795609 -2.683901 1.55874 -2.12132 2.12132 
C -1.55874 2.683901 -0.795609 3 0 3 
z
" style="stroke: #1f77b4"/>
    </defs>
    <g clip-path="url(#pae8edb1fa3)">
     <use xlink:href="#mcc9c19897f" x="102.563466" y="430.299977" style="fill: #1f77b4; stroke: #1f77b4"/>
     <use xlink:href="#mcc9c19897f" x="140.629754" y="69.224218" style="fill: #1f77b4; stroke: #1f77b4"/>
     <use xlink:href="#mcc9c19897f" x="178.696042" y="249.456731" style="fill: #1f77b4; stroke: #1f77b4"/>
     <use xlink:href="#mcc9c19897f" x="216.76233" y="394.336416" style="fill: #1f77b4; stroke: #1f77b4"/>
     <use xlink:href="#mcc9c19897f" x="254.828617" y="259.793243" style="fill: #1f77b4; stroke: #1f77b4"/>
     <use xlink:href="#mcc9c19897f" x="292.894905" y="377.755886" style="fill: #1f77b4; stroke: #1f77b4"/>
     <use xlink:href="#mcc9c19897f" x="330.961193" y="315.699493" style="fill: #1f77b4; stroke: #1f77b4"/>
     <use xlink:href="#mcc9c19897f" x="369.027481" y="107.97538" style="fill: #1f77b4; stroke: #1f77b4"/>
     <use xlink:href="#mcc9c19897f" x="407.093769" y="353.990229" style="fill: #1f77b4; stroke: #1f77b4"/>
     <use xlink:href="#mcc9c19897f" x="445.160057" y="337.911094" style="fill: #1f77b4; stroke: #1f77b4"/>
     <use xlink:href="#mcc9c19897f" x="483.226345" y="372.505222" style="fill: #1f77b4; stroke: #1f77b4"/>
     <use xlink:href="#mcc9c19897f" x="521.292633" y="315.993162" style="fill: #1f77b4; stroke: #1f77b4"/>
     <use xlink:href="#mcc9c19897f" x="559.35892" y="425.694016" style="fill: #1f77b4; stroke: #1f77b4"/>
     <use xlink:href="#mcc9c19897f" x="597.425208" y="340.172713" style="fill: #1f77b4; stroke: #1f77b4"/>
     <use xlink:href="#mcc9c19897f" x="635.491496" y="386.138118" style="fill: #1f77b4; stroke: #1f77b4"/>
     <use xlink:href="#mcc9c19897f" x="673.557784" y="367.746801" style="fill: #1f77b4; stroke: #1f77b4"/>
    </g>
   </g>
   <g id="line2d_26">
    <path d="M 102.563466 475.021316 
L 140.629754 467.486016 
L 178.696042 482.327512 
L 216.76233 465.395939 
L 254.828617 405.338707 
L 292.894905 490.380397 
L 330.961193 460.587406 
L 369.027481 496.196859 
L 407.093769 480.254986 
L 445.160057 400.524063 
L 483.226345 451.67255 
L 521.292633 460.770067 
L 559.35892 448.457884 
L 597.425208 495.849671 
L 635.491496 473.939727 
L 673.557784 443.387603 
" clip-path="url(#pae8edb1fa3)" style="fill: none; stroke: #ff7f0e; stroke-width: 2; stroke-linecap: square"/>
    <defs>
     <path id="m2fcbb69ce9" d="M 0 3 
C 0.795609 3 1.55874 2.683901 2.12132 2.12132 
C 2.683901 1.55874 3 0.795609 3 0 
C 3 -0.795609 2.683901 -1.55874 2.12132 -2.12132 
C 1.55874 -2.683901 0.795609 -3 0 -3 
C -0.795609 -3 -1.55874 -2.683901 -2.12132 -2.12132 
C -2.683901 -1.55874 -3 -0.795609 -3 0 
C -3 0.795609 -2.683901 1.55874 -2.12132 2.12132 
C -1.55874 2.683901 -0.795609 3 0 3 
z
" style="stroke: #ff7f0e"/>
    </defs>
    <g clip-path="url(#pae8edb1fa3)">
     <use xlink:href="#m2fcbb69ce9" x="102.563466" y="475.021316" style="fill: #ff7f0e; stroke: #ff7f0e"/>
     <use xlink:href="#m2fcbb69ce9" x="140.629754" y="467.486016" style="fill: #ff7f0e; stroke: #ff7f0e"/>
     <use xlink:href="#m2fcbb69ce9" x="178.696042" y="482.327512" style="fill: #ff7f0e; stroke: #ff7f0e"/>
     <use xlink:href="#m2fcbb69ce9" x="216.76233" y="465.395939" style="fill: #ff7f0e; stroke: #ff7f0e"/>
     <use xlink:href="#m2fcbb69ce9" x="254.828617" y="405.338707" style="fill: #ff7f0e; stroke: #ff7f0e"/>
     <use xlink:href="#m2fcbb69ce9" x="292.894905" y="490.380397" style="fill: #ff7f0e; stroke: #ff7f0e"/>
     <use xlink:href="#m2fcbb69ce9" x="330.961193" y="460.587406" style="fill: #ff7f0e; stroke: #ff7f0e"/>
     <use xlink:href="#m2fcbb69ce9" x="369.027481" y="496.196859" style="fill: #ff7f0e; stroke: #ff7f0e"/>
     <use xlink:href="#m2fcbb69ce9" x="407.093769" y="480.254986" style="fill: #ff7f0e; stroke: #ff7f0e"/>
     <use xlink:href="#m2fcbb69ce9" x="445.160057" y="400.524063" style="fill: #ff7f0e; stroke: #ff7f0e"/>
     <use xlink:href="#m2fcbb69ce9" x="483.226345" y="451.67255" style="fill: #ff7f0e; stroke: #ff7f0e"/>
     <use xlink:href="#m2fcbb69ce9" x="521.292633" y="460.770067" style="fill: #ff7f0e; stroke: #ff7f0e"/>
     <use xlink:href="#m2fcbb69ce9" x="559.35892" y="448.457884" style="fill: #ff7f0e; stroke: #ff7f0e"/>
     <use xlink:href="#m2fcbb69ce9" x="597.425208" y="495.849671" style="fill: #ff7f0e; stroke: #ff7f0e"/>
     <use xlink:href="#m2fcbb69ce9" x="635.491496" y="473.939727" style="fill: #ff7f0e; stroke: #ff7f0e"/>
     <use xlink:href="#m2fcbb69ce9" x="673.557784" y="443.387603" style="fill: #ff7f0e; stroke: #ff7f0e"/>
    </g>
   </g>
   <g id="line2d_27">
    <path d="M 102.563466 292.728746 
L 140.629754 131.860149 
L 178.696042 86.397367 
L 216.76233 66.420863 
L 254.828617 274.898767 
L 292.894905 60.897436 
L 330.961193 133.918061 
L 369.027481 73.866766 
L 407.093769 239.114003 
L 445.160057 300.516534 
L 483.226345 58.888965 
L 521.292633 128.77516 
L 559.35892 218.801093 
L 597.425208 106.786454 
L 635.491496 324.565564 
L 673.557784 70.132094 
" clip-path="url(#pae8edb1fa3)" style="fill: none; stroke: #2ca02c; stroke-width: 2; stroke-linecap: square"/>
    <defs>
     <path id="m798caf6551" d="M 0 3 
C 0.795609 3 1.55874 2.683901 2.12132 2.12132 
C 2.683901 1.55874 3 0.795609 3 0 
C 3 -0.795609 2.683901 -1.55874 2.12132 -2.12132 
C 1.55874 -2.683901 0.795609 -3 0 -3 
C -0.795609 -3 -1.55874 -2.683901 -2.12132 -2.12132 
C -2.683901 -1.55874 -3 -0.795609 -3 0 
C -3 0.795609 -2.683901 1.55874 -2.12132 2.12132 
C -1.55874 2.683901 -0.795609 3 0 3 
z
" style="stroke: #2ca02c"/>
    </defs>
    <g clip-path="url(#pae8edb1fa3)">
     <use xlink:href="#m798caf6551" x="102.563466" y="292.728746" style="fill: #2ca02c; stroke: #2ca02c"/>
     <use xlink:href="#m798caf6551" x="140.629754" y="131.860149" style="fill: #2ca02c; stroke: #2ca02c"/>
     <use xlink:href="#m798caf6551" x="178.696042" y="86.397367" style="fill: #2ca02c; stroke: #2ca02c"/>
     <use xlink:href="#m798caf6551" x="216.76233" y="66.420863" style="fill: #2ca02c; stroke: #2ca02c"/>
     <use xlink:href="#m798caf6551" x="254.828617" y="274.898767" style="fill: #2ca02c; stroke: #2ca02c"/>
     <use xlink:href="#m798caf6551" x="292.894905" y="60.897436" style="fill: #2ca02c; stroke: #2ca02c"/>
     <use xlink:href="#m798caf6551" x="330.961193" y="133.918061" style="fill: #2ca02c; stroke: #2ca02c"/>
     <use xlink:href="#m798caf6551" x="369.027481" y="73.866766" style="fill: #2ca02c; stroke: #2ca02c"/>
     <use xlink:href="#m798caf6551" x="407.093769" y="239.114003" style="fill: #2ca02c; stroke: #2ca02c"/>
     <use xlink:href="#m798caf6551" x="445.160057" y="300.516534" style="fill: #2ca02c; stroke: #2ca02c"/>
     <use xlink:href="#m798caf6551" x="483.226345" y="58.888965" style="fill: #2ca02c; stroke: #2ca02c"/>
     <use xlink:href="#m798caf6551" x="521.292633" y="128.77516" style="fill: #2ca02c; stroke: #2ca02c"/>
     <use xlink:href="#m798caf6551" x="559.35892" y="218.801093" style="fill: #2ca02c; stroke: #2ca02c"/>
     <use xlink:href="#m798caf6551" x="597.425208" y="106.786454" style="fill: #2ca02c; stroke: #2ca02c"/>
     <use xlink:href="#m798caf6551" x="635.491496" y="324.565564" style="fill: #2ca02c; stroke: #2ca02c"/>
     <use xlink:href="#m798caf6551" x="673.557784" y="70.132094" style="fill: #2ca02c; stroke: #2ca02c"/>
    </g>
   </g>
   <g id="line2d_28">
    <path d="M 102.563466 365.834224 
L 140.629754 345.568143 
L 178.696042 119.399853 
L 216.76233 338.23186 
L 254.828617 363.389246 
L 292.894905 348.353665 
L 330.961193 396.179564 
L 369.027481 141.470112 
L 407.093769 46.813736 
L 445.160057 331.835001 
L 483.226345 329.359096 
L 521.292633 349.355953 
L 559.35892 370.747206 
L 635.491496 411.313128 
L 673.557784 351.209485 
" clip-path="url(#pae8edb1fa3)" style="fill: none; stroke: #d62728; stroke-width: 2; stroke-linecap: square"/>
    <defs>
     <path id="m3adeb16c78" d="M 0 3 
C 0.795609 3 1.55874 2.683901 2.12132 2.12132 
C 2.683901 1.55874 3 0.795609 3 0 
C 3 -0.795609 2.683901 -1.55874 2.12132 -2.12132 
C 1.55874 -2.683901 0.795609 -3 0 -3 
C -0.795609 -3 -1.55874 -2.683901 -2.12132 -2.12132 
C -2.683901 -1.55874 -3 -0.795609 -3 0 
C -3 0.795609 -2.683901 1.55874 -2.12132 2.12132 
C -1.55874 2.683901 -0.795609 3 0 3 
z
" style="stroke: #d62728"/>
    </defs>
    <g clip-path="url(#pae8edb1fa3)">
     <use xlink:href="#m3adeb16c78" x="102.563466" y="365.834224" style="fill: #d62728; stroke: #d62728"/>
     <use xlink:href="#m3adeb16c78" x="140.629754" y="345.568143" style="fill: #d62728; stroke: #d62728"/>
     <use xlink:href="#m3adeb16c78" x="178.696042" y="119.399853" style="fill: #d62728; stroke: #d62728"/>
     <use xlink:href="#m3adeb16c78" x="216.76233" y="338.23186" style="fill: #d62728; stroke: #d62728"/>
     <use xlink:href="#m3adeb16c78" x="254.828617" y="363.389246" style="fill: #d62728; stroke: #d62728"/>
     <use xlink:href="#m3adeb16c78" x="292.894905" y="348.353665" style="fill: #d62728; stroke: #d62728"/>
     <use xlink:href="#m3adeb16c78" x="330.961193" y="396.179564" style="fill: #d62728; stroke: #d62728"/>
     <use xlink:href="#m3adeb16c78" x="369.027481" y="141.470112" style="fill: #d62728; stroke: #d62728"/>
     <use xlink:href="#m3adeb16c78" x="407.093769" y="46.813736" style="fill: #d62728; stroke: #d62728"/>
     <use xlink:href="#m3adeb16c78" x="445.160057" y="331.835001" style="fill: #d62728; stroke: #d62728"/>
     <use xlink:href="#m3adeb16c78" x="483.226345" y="329.359096" style="fill: #d62728; stroke: #d62728"/>
     <use xlink:href="#m3adeb16c78" x="521.292633" y="349.355953" style="fill: #d62728; stroke: #d62728"/>
     <use xlink:href="#m3adeb16c78" x="559.35892" y="370.747206" style="fill: #d62728; stroke: #d62728"/>
     <use xlink:href="#m3adeb16c78" x="635.491496" y="411.313128" style="fill: #d62728; stroke: #d62728"/>
     <use xlink:href="#m3adeb16c78" x="673.557784" y="351.209485" style="fill: #d62728; stroke: #d62728"/>
    </g>
   </g>
   <g id="line2d_29">
    <path d="M 102.563466 455.101131 
L 140.629754 467.587179 
L 178.696042 440.19693 
L 216.76233 461.4369 
L 254.828617 422.978683 
L 292.894905 454.176253 
L 330.961193 475.475281 
L 369.027481 444.715755 
L 407.093769 440.698639 
L 445.160057 453.667117 
L 483.226345 421.811988 
L 521.292633 424.280748 
L 559.35892 448.082011 
L 635.491496 506.332202 
L 673.557784 439.03501 
" clip-path="url(#pae8edb1fa3)" style="fill: none; stroke: #9467bd; stroke-width: 2; stroke-linecap: square"/>
    <defs>
     <path id="mee1dbe9446" d="M 0 3 
C 0.795609 3 1.55874 2.683901 2.12132 2.12132 
C 2.683901 1.55874 3 0.795609 3 0 
C 3 -0.795609 2.683901 -1.55874 2.12132 -2.12132 
C 1.55874 -2.683901 0.795609 -3 0 -3 
C -0.795609 -3 -1.55874 -2.683901 -2.12132 -2.12132 
C -2.683901 -1.55874 -3 -0.795609 -3 0 
C -3 0.795609 -2.683901 1.55874 -2.12132 2.12132 
C -1.55874 2.683901 -0.795609 3 0 3 
z
" style="stroke: #9467bd"/>
    </defs>
    <g clip-path="url(#pae8edb1fa3)">
     <use xlink:href="#mee1dbe9446" x="102.563466" y="455.101131" style="fill: #9467bd; stroke: #9467bd"/>
     <use xlink:href="#mee1dbe9446" x="140.629754" y="467.587179" style="fill: #9467bd; stroke: #9467bd"/>
     <use xlink:href="#mee1dbe9446" x="178.696042" y="440.19693" style="fill: #9467bd; stroke: #9467bd"/>
     <use xlink:href="#mee1dbe9446" x="216.76233" y="461.4369" style="fill: #9467bd; stroke: #9467bd"/>
     <use xlink:href="#mee1dbe9446" x="254.828617" y="422.978683" style="fill: #9467bd; stroke: #9467bd"/>
     <use xlink:href="#mee1dbe9446" x="292.894905" y="454.176253" style="fill: #9467bd; stroke: #9467bd"/>
     <use xlink:href="#mee1dbe9446" x="330.961193" y="475.475281" style="fill: #9467bd; stroke: #9467bd"/>
     <use xlink:href="#mee1dbe9446" x="369.027481" y="444.715755" style="fill: #9467bd; stroke: #9467bd"/>
     <use xlink:href="#mee1dbe9446" x="407.093769" y="440.698639" style="fill: #9467bd; stroke: #9467bd"/>
     <use xlink:href="#mee1dbe9446" x="445.160057" y="453.667117" style="fill: #9467bd; stroke: #9467bd"/>
     <use xlink:href="#mee1dbe9446" x="483.226345" y="421.811988" style="fill: #9467bd; stroke: #9467bd"/>
     <use xlink:href="#mee1dbe9446" x="521.292633" y="424.280748" style="fill: #9467bd; stroke: #9467bd"/>
     <use xlink:href="#mee1dbe9446" x="559.35892" y="448.082011" style="fill: #9467bd; stroke: #9467bd"/>
     <use xlink:href="#mee1dbe9446" x="635.491496" y="506.332202" style="fill: #9467bd; stroke: #9467bd"/>
     <use xlink:href="#mee1dbe9446" x="673.557784" y="439.03501" style="fill: #9467bd; stroke: #9467bd"/>
    </g>
   </g>
   <g id="line2d_30">
    <path d="M 102.563466 320.162342 
L 140.629754 86.639525 
L 178.696042 323.060268 
L 216.76233 297.636593 
L 254.828617 242.507218 
L 292.894905 309.93028 
L 330.961193 288.59943 
L 369.027481 231.952815 
L 407.093769 278.408581 
L 445.160057 64.99044 
L 483.226345 324.536241 
L 521.292633 97.430434 
L 559.35892 122.769324 
L 635.491496 310.701286 
L 673.557784 288.150075 
" clip-path="url(#pae8edb1fa3)" style="fill: none; stroke: #8c564b; stroke-width: 2; stroke-linecap: square"/>
    <defs>
     <path id="mb7d73cbaef" d="M 0 3 
C 0.795609 3 1.55874 2.683901 2.12132 2.12132 
C 2.683901 1.55874 3 0.795609 3 0 
C 3 -0.795609 2.683901 -1.55874 2.12132 -2.12132 
C 1.55874 -2.683901 0.795609 -3 0 -3 
C -0.795609 -3 -1.55874 -2.683901 -2.12132 -2.12132 
C -2.683901 -1.55874 -3 -0.795609 -3 0 
C -3 0.795609 -2.683901 1.55874 -2.12132 2.12132 
C -1.55874 2.683901 -0.795609 3 0 3 
z
" style="stroke: #8c564b"/>
    </defs>
    <g clip-path="url(#pae8edb1fa3)">
     <use xlink:href="#mb7d73cbaef" x="102.563466" y="320.162342" style="fill: #8c564b; stroke: #8c564b"/>
     <use xlink:href="#mb7d73cbaef" x="140.629754" y="86.639525" style="fill: #8c564b; stroke: #8c564b"/>
     <use xlink:href="#mb7d73cbaef" x="178.696042" y="323.060268" style="fill: #8c564b; stroke: #8c564b"/>
     <use xlink:href="#mb7d73cbaef" x="216.76233" y="297.636593" style="fill: #8c564b; stroke: #8c564b"/>
     <use xlink:href="#mb7d73cbaef" x="254.828617" y="242.507218" style="fill: #8c564b; stroke: #8c564b"/>
     <use xlink:href="#mb7d73cbaef" x="292.894905" y="309.93028" style="fill: #8c564b; stroke: #8c564b"/>
     <use xlink:href="#mb7d73cbaef" x="330.961193" y="288.59943" style="fill: #8c564b; stroke: #8c564b"/>
     <use xlink:href="#mb7d73cbaef" x="369.027481" y="231.952815" style="fill: #8c564b; stroke: #8c564b"/>
     <use xlink:href="#mb7d73cbaef" x="407.093769" y="278.408581" style="fill: #8c564b; stroke: #8c564b"/>
     <use xlink:href="#mb7d73cbaef" x="445.160057" y="64.99044" style="fill: #8c564b; stroke: #8c564b"/>
     <use xlink:href="#mb7d73cbaef" x="483.226345" y="324.536241" style="fill: #8c564b; stroke: #8c564b"/>
     <use xlink:href="#mb7d73cbaef" x="521.292633" y="97.430434" style="fill: #8c564b; stroke: #8c564b"/>
     <use xlink:href="#mb7d73cbaef" x="559.35892" y="122.769324" style="fill: #8c564b; stroke: #8c564b"/>
     <use xlink:href="#mb7d73cbaef" x="635.491496" y="310.701286" style="fill: #8c564b; stroke: #8c564b"/>
     <use xlink:href="#mb7d73cbaef" x="673.557784" y="288.150075" style="fill: #8c564b; stroke: #8c564b"/>
    </g>
   </g>
   <g id="patch_3">
    <path d="M 74.01375 529.308125 
L 74.01375 23.837812 
" style="fill: none; stroke: #000000; stroke-width: 0.8; stroke-linejoin: miter; stroke-linecap: square"/>
   </g>
   <g id="patch_4">
    <path d="M 702.1075 529.308125 
L 702.1075 23.837812 
" style="fill: none; stroke: #000000; stroke-width: 0.8; stroke-linejoin: miter; stroke-linecap: square"/>
   </g>
   <g id="patch_5">
    <path d="M 74.01375 529.308125 
L 702.1075 529.308125 
" style="fill: none; stroke: #000000; stroke-width: 0.8; stroke-linejoin: miter; stroke-linecap: square"/>
   </g>
   <g id="patch_6">
    <path d="M 74.01375 23.837812 
L 702.1075 23.837812 
" style="fill: none; stroke: #000000; stroke-width: 0.8; stroke-linejoin: miter; stroke-linecap: square"/>
   </g>
   <g id="text_19">
    <text style="font: 700 14px 'DejaVu Sans', 'Bitstream Vera Sans', 'Computer Modern Sans Serif', 'Lucida Grande', 'Verdana', 'Geneva', 'Lucid', 'Arial', 'Helvetica', 'Avant Garde', sans-serif; text-anchor: middle" x="388.060625" y="17.837813" transform="rotate(-0 388.060625 17.837813)">Tasksubmission - Performance Trend</text>
   </g>
   <g id="legend_1">
    <g id="patch_7">
     <path d="M 740.512187 119.906563 
L 845.524688 119.906563 
Q 847.524688 119.906563 847.524688 117.906563 
L 847.524688 30.837813 
Q 847.524688 28.837813 845.524688 28.837813 
L 740.512187 28.837813 
Q 738.512187 28.837813 738.512187 30.837813 
L 738.512187 117.906563 
Q 738.512187 119.906563 740.512187 119.906563 
z
" style="fill: #ffffff; opacity: 0.8; stroke: #cccccc; stroke-linejoin: miter"/>
    </g>
    <g id="line2d_31">
     <path d="M 742.512187 36.93625 
L 752.512187 36.93625 
L 762.512187 36.93625 
" style="fill: none; stroke: #1f77b4; stroke-width: 2; stroke-linecap: square"/>
     <g>
      <use xlink:href="#mcc9c19897f" x="752.512187" y="36.93625" style="fill: #1f77b4; stroke: #1f77b4"/>
     </g>
    </g>
    <g id="text_20">
     <text style="font: 10px 'DejaVu Sans', 'Bitstream Vera Sans', 'Computer Modern Sans Serif', 'Lucida Grande', 'Verdana', 'Geneva', 'Lucid', 'Arial', 'Helvetica', 'Avant Garde', sans-serif; text-anchor: start" x="770.512187" y="40.43625" transform="rotate(-0 770.512187 40.43625)">gcc-14.2 - V1</text>
    </g>
    <g id="line2d_32">
     <path d="M 742.512187 51.614375 
L 752.512187 51.614375 
L 762.512187 51.614375 
" style="fill: none; stroke: #ff7f0e; stroke-width: 2; stroke-linecap: square"/>
     <g>
      <use xlink:href="#m2fcbb69ce9" x="752.512187" y="51.614375" style="fill: #ff7f0e; stroke: #ff7f0e"/>
     </g>
    </g>
    <g id="text_21">
     <text style="font: 10px 'DejaVu Sans', 'Bitstream Vera Sans', 'Computer Modern Sans Serif', 'Lucida Grande', 'Verdana', 'Geneva', 'Lucid', 'Arial', 'Helvetica', 'Avant Garde', sans-serif; text-anchor: start" x="770.512187" y="55.114375" transform="rotate(-0 770.512187 55.114375)">gcc-14.2 - V2</text>
    </g>
    <g id="line2d_33">
     <path d="M 742.512187 66.2925 
L 752.512187 66.2925 
L 762.512187 66.2925 
" style="fill: none; stroke: #2ca02c; stroke-width: 2; stroke-linecap: square"/>
     <g>
      <use xlink:href="#m798caf6551" x="752.512187" y="66.2925" style="fill: #2ca02c; stroke: #2ca02c"/>
     </g>
    </g>
    <g id="text_22">
     <text style="font: 10px 'DejaVu Sans', 'Bitstream Vera Sans', 'Computer Modern Sans Serif', 'Lucida Grande', 'Verdana', 'Geneva', 'Lucid', 'Arial', 'Helvetica', 'Avant Garde', sans-serif; text-anchor: start" x="770.512187" y="69.7925" transform="rotate(-0 770.512187 69.7925)">gcc-14.2 - TBB</text>
    </g>
    <g id="line2d_34">
     <path d="M 742.512187 80.970625 
L 752.512187 80.970625 
L 762.512187 80.970625 
" style="fill: none; stroke: #d62728; stroke-width: 2; stroke-linecap: square"/>
     <g>
      <use xlink:href="#m3adeb16c78" x="752.512187" y="80.970625" style="fill: #d62728; stroke: #d62728"/>
     </g>
    </g>
    <g id="text_23">
     <text style="font: 10px 'DejaVu Sans', 'Bitstream Vera Sans', 'Computer Modern Sans Serif', 'Lucida Grande', 'Verdana', 'Geneva', 'Lucid', 'Arial', 'Helvetica', 'Avant Garde', sans-serif; text-anchor: start" x="770.512187" y="84.470625" transform="rotate(-0 770.512187 84.470625)">gcc-4.2 - V1</text>
    </g>
    <g id="line2d_35">
     <path d="M 742.512187 95.64875 
L 752.512187 95.64875 
L 762.512187 95.64875 
" style="fill: none; stroke: #9467bd; stroke-width: 2; stroke-linecap: square"/>
     <g>
      <use xlink:href="#mee1dbe9446" x="752.512187" y="95.64875" style="fill: #9467bd; stroke: #9467bd"/>
     </g>
    </g>
    <g id="text_24">
     <text style="font: 10px 'DejaVu Sans', 'Bitstream Vera Sans', 'Computer Modern Sans Serif', 'Lucida Grande', 'Verdana', 'Geneva', 'Lucid', 'Arial', 'Helvetica', 'Avant Garde', sans-serif; text-anchor: start" x="770.512187" y="99.14875" transform="rotate(-0 770.512187 99.14875)">gcc-4.2 - V2</text>
    </g>
    <g id="line2d_36">
     <path d="M 742.512187 110.326875 
L 752.512187 110.326875 
L 762.512187 110.326875 
" style="fill: none; stroke: #8c564b; stroke-width: 2; stroke-linecap: square"/>
     <g>
      <use xlink:href="#mb7d73cbaef" x="752.512187" y="110.326875" style="fill: #8c564b; stroke: #8c564b"/>
     </g>
    </g>
    <g id="text_25">
     <text style="font: 10px 'DejaVu Sans', 'Bitstream Vera Sans', 'Computer Modern Sans Serif', 'Lucida Grande', 'Verdana', 'Geneva', 'Lucid', 'Arial', 'Helvetica', 'Avant Garde', sans-serif; text-anchor: start" x="770.512187" y="113.826875" transform="rotate(-0 770.512187 113.826875)">gcc-4.2 - TBB</text>
    </g>
   </g>
  </g>
 </g>
 <defs>
  <clipPath id="pae8edb1fa3">
   <rect x="74.01375" y="23.837813" width="628.09375" height="505.470313"/>
  </clipPath>
 </defs>
</svg>
