<?xml version="1.0" encoding="utf-8" standalone="no"?>
<!DOCTYPE svg PUBLIC "-//W3C//DTD SVG 1.1//EN"
  "http://www.w3.org/Graphics/SVG/1.1/DTD/svg11.dtd">
<svg xmlns:xlink="http://www.w3.org/1999/xlink" width="855.204687pt" height="568.8pt" viewBox="0 0 855.204687 568.8" xmlns="http://www.w3.org/2000/svg" version="1.1">
 <metadata>
  <rdf:RDF xmlns:dc="http://purl.org/dc/elements/1.1/" xmlns:cc="http://creativecommons.org/ns#" xmlns:rdf="http://www.w3.org/1999/02/22-rdf-syntax-ns#">
   <cc:Work>
    <dc:type rdf:resource="http://purl.org/dc/dcmitype/StillImage"/>
    <dc:date>2025-08-13T17:02:29.720062</dc:date>
    <dc:format>image/svg+xml</dc:format>
    <dc:creator>
     <cc:Agent>
      <dc:title>Matplotlib v3.9.4, https://matplotlib.org/</dc:title>
     </cc:Agent>
    </dc:creator>
   </cc:Work>
  </rdf:RDF>
 </metadata>
 <defs>
  <style type="text/css">*{stroke-linejoin: round; stroke-linecap: butt}</style>
 </defs>
 <g id="figure_1">
  <g id="patch_1">
   <path d="M 0 568.8 
L 855.204687 568.8 
L 855.204687 0 
L 0 0 
z
" style="fill: #ffffff"/>
  </g>
  <g id="axes_1">
   <g id="patch_2">
    <path d="M 64.41375 529.308125 
L 702.1075 529.308125 
L 702.1075 23.837812 
L 64.41375 23.837812 
z
" style="fill: #ffffff"/>
   </g>
   <g id="matplotlib.axis_1">
    <g id="xtick_1">
     <g id="line2d_1">
      <path d="M 137.993798 529.308125 
L 137.993798 23.837812 
" clip-path="url(#p06cf73476e)" style="fill: none; stroke: #b0b0b0; stroke-opacity: 0.3; stroke-width: 0.8; stroke-linecap: square"/>
     </g>
     <g id="line2d_2">
      <defs>
       <path id="mee1b79e49f" d="M 0 0 
L 0 3.5 
" style="stroke: #000000; stroke-width: 0.8"/>
      </defs>
      <g>
       <use xlink:href="#mee1b79e49f" x="137.993798" y="529.308125" style="stroke: #000000; stroke-width: 0.8"/>
      </g>
     </g>
     <g id="text_1">
      <text style="font: 10px 'DejaVu Sans', 'Bitstream Vera Sans', 'Computer Modern Sans Serif', 'Lucida Grande', 'Verdana', 'Geneva', 'Lucid', 'Arial', 'Helvetica', 'Avant Garde', sans-serif; text-anchor: middle" x="137.993798" y="543.906563" transform="rotate(-0 137.993798 543.906563)">72</text>
     </g>
    </g>
    <g id="xtick_2">
     <g id="line2d_3">
      <path d="M 227.181735 529.308125 
L 227.181735 23.837812 
" clip-path="url(#p06cf73476e)" style="fill: none; stroke: #b0b0b0; stroke-opacity: 0.3; stroke-width: 0.8; stroke-linecap: square"/>
     </g>
     <g id="line2d_4">
      <g>
       <use xlink:href="#mee1b79e49f" x="227.181735" y="529.308125" style="stroke: #000000; stroke-width: 0.8"/>
      </g>
     </g>
     <g id="text_2">
      <text style="font: 10px 'DejaVu Sans', 'Bitstream Vera Sans', 'Computer Modern Sans Serif', 'Lucida Grande', 'Verdana', 'Geneva', 'Lucid', 'Arial', 'Helvetica', 'Avant Garde', sans-serif; text-anchor: middle" x="227.181735" y="543.906563" transform="rotate(-0 227.181735 543.906563)">74</text>
     </g>
    </g>
    <g id="xtick_3">
     <g id="line2d_5">
      <path d="M 316.369672 529.308125 
L 316.369672 23.837812 
" clip-path="url(#p06cf73476e)" style="fill: none; stroke: #b0b0b0; stroke-opacity: 0.3; stroke-width: 0.8; stroke-linecap: square"/>
     </g>
     <g id="line2d_6">
      <g>
       <use xlink:href="#mee1b79e49f" x="316.369672" y="529.308125" style="stroke: #000000; stroke-width: 0.8"/>
      </g>
     </g>
     <g id="text_3">
      <text style="font: 10px 'DejaVu Sans', 'Bitstream Vera Sans', 'Computer Modern Sans Serif', 'Lucida Grande', 'Verdana', 'Geneva', 'Lucid', 'Arial', 'Helvetica', 'Avant Garde', sans-serif; text-anchor: middle" x="316.369672" y="543.906563" transform="rotate(-0 316.369672 543.906563)">76</text>
     </g>
    </g>
    <g id="xtick_4">
     <g id="line2d_7">
      <path d="M 405.557609 529.308125 
L 405.557609 23.837812 
" clip-path="url(#p06cf73476e)" style="fill: none; stroke: #b0b0b0; stroke-opacity: 0.3; stroke-width: 0.8; stroke-linecap: square"/>
     </g>
     <g id="line2d_8">
      <g>
       <use xlink:href="#mee1b79e49f" x="405.557609" y="529.308125" style="stroke: #000000; stroke-width: 0.8"/>
      </g>
     </g>
     <g id="text_4">
      <text style="font: 10px 'DejaVu Sans', 'Bitstream Vera Sans', 'Computer Modern Sans Serif', 'Lucida Grande', 'Verdana', 'Geneva', 'Lucid', 'Arial', 'Helvetica', 'Avant Garde', sans-serif; text-anchor: middle" x="405.557609" y="543.906563" transform="rotate(-0 405.557609 543.906563)">78</text>
     </g>
    </g>
    <g id="xtick_5">
     <g id="line2d_9">
      <path d="M 494.745546 529.308125 
L 494.745546 23.837812 
" clip-path="url(#p06cf73476e)" style="fill: none; stroke: #b0b0b0; stroke-opacity: 0.3; stroke-width: 0.8; stroke-linecap: square"/>
     </g>
     <g id="line2d_10">
      <g>
       <use xlink:href="#mee1b79e49f" x="494.745546" y="529.308125" style="stroke: #000000; stroke-width: 0.8"/>
      </g>
     </g>
     <g id="text_5">
      <text style="font: 10px 'DejaVu Sans', 'Bitstream Vera Sans', 'Computer Modern Sans Serif', 'Lucida Grande', 'Verdana', 'Geneva', 'Lucid', 'Arial', 'Helvetica', 'Avant Garde', sans-serif; text-anchor: middle" x="494.745546" y="543.906563" transform="rotate(-0 494.745546 543.906563)">80</text>
     </g>
    </g>
    <g id="xtick_6">
     <g id="line2d_11">
      <path d="M 583.933483 529.308125 
L 583.933483 23.837812 
" clip-path="url(#p06cf73476e)" style="fill: none; stroke: #b0b0b0; stroke-opacity: 0.3; stroke-width: 0.8; stroke-linecap: square"/>
     </g>
     <g id="line2d_12">
      <g>
       <use xlink:href="#mee1b79e49f" x="583.933483" y="529.308125" style="stroke: #000000; stroke-width: 0.8"/>
      </g>
     </g>
     <g id="text_6">
      <text style="font: 10px 'DejaVu Sans', 'Bitstream Vera Sans', 'Computer Modern Sans Serif', 'Lucida Grande', 'Verdana', 'Geneva', 'Lucid', 'Arial', 'Helvetica', 'Avant Garde', sans-serif; text-anchor: middle" x="583.933483" y="543.906563" transform="rotate(-0 583.933483 543.906563)">82</text>
     </g>
    </g>
    <g id="xtick_7">
     <g id="line2d_13">
      <path d="M 673.12142 529.308125 
L 673.12142 23.837812 
" clip-path="url(#p06cf73476e)" style="fill: none; stroke: #b0b0b0; stroke-opacity: 0.3; stroke-width: 0.8; stroke-linecap: square"/>
     </g>
     <g id="line2d_14">
      <g>
       <use xlink:href="#mee1b79e49f" x="673.12142" y="529.308125" style="stroke: #000000; stroke-width: 0.8"/>
      </g>
     </g>
     <g id="text_7">
      <text style="font: 10px 'DejaVu Sans', 'Bitstream Vera Sans', 'Computer Modern Sans Serif', 'Lucida Grande', 'Verdana', 'Geneva', 'Lucid', 'Arial', 'Helvetica', 'Avant Garde', sans-serif; text-anchor: middle" x="673.12142" y="543.906563" transform="rotate(-0 673.12142 543.906563)">84</text>
     </g>
    </g>
    <g id="text_8">
     <text style="font: 12px 'DejaVu Sans', 'Bitstream Vera Sans', 'Computer Modern Sans Serif', 'Lucida Grande', 'Verdana', 'Geneva', 'Lucid', 'Arial', 'Helvetica', 'Avant Garde', sans-serif; text-anchor: middle" x="383.260625" y="559.104375" transform="rotate(-0 383.260625 559.104375)">Build Number</text>
    </g>
   </g>
   <g id="matplotlib.axis_2">
    <g id="ytick_1">
     <g id="line2d_15">
      <path d="M 64.41375 348.967432 
L 702.1075 348.967432 
" clip-path="url(#p06cf73476e)" style="fill: none; stroke: #b0b0b0; stroke-opacity: 0.3; stroke-width: 0.8; stroke-linecap: square"/>
     </g>
     <g id="line2d_16">
      <defs>
       <path id="m6dff2084bb" d="M 0 0 
L -3.5 0 
" style="stroke: #000000; stroke-width: 0.8"/>
      </defs>
      <g>
       <use xlink:href="#m6dff2084bb" x="64.41375" y="348.967432" style="stroke: #000000; stroke-width: 0.8"/>
      </g>
     </g>
     <g id="text_9">
      <!-- $\mathdefault{10^{5}}$ -->
      <g transform="translate(39.81375 352.766651)">
       <text>
        <tspan style="font: 10px 'DejaVu Sans'" x="0 6.362305" y="-0.06406250000000036">10</tspan>
        <tspan style="font: 7px 'DejaVu Sans'" x="12.820312" y="-3.8921875000000004">5</tspan>
       </text>
      </g>
     </g>
    </g>
    <g id="ytick_2">
     <g id="line2d_17">
      <defs>
       <path id="m8ace92ffa1" d="M 0 0 
L -2 0 
" style="stroke: #000000; stroke-width: 0.6"/>
      </defs>
      <g>
       <use xlink:href="#m8ace92ffa1" x="64.41375" y="477.49826" style="stroke: #000000; stroke-width: 0.6"/>
      </g>
     </g>
    </g>
    <g id="ytick_3">
     <g id="line2d_18">
      <g>
       <use xlink:href="#m8ace92ffa1" x="64.41375" y="429.379095" style="stroke: #000000; stroke-width: 0.6"/>
      </g>
     </g>
    </g>
    <g id="ytick_4">
     <g id="line2d_19">
      <g>
       <use xlink:href="#m8ace92ffa1" x="64.41375" y="386.934984" style="stroke: #000000; stroke-width: 0.6"/>
      </g>
     </g>
    </g>
    <g id="ytick_5">
     <g id="line2d_20">
      <g>
       <use xlink:href="#m8ace92ffa1" x="64.41375" y="99.185992" style="stroke: #000000; stroke-width: 0.6"/>
      </g>
     </g>
     <g id="text_10">
      <!-- $\mathdefault{2\times10^{5}}$ -->
      <g transform="translate(22.81375 102.98521)">
       <text>
        <tspan style="font: 10px 'DejaVu Sans'" x="0 8.310547 18.637695 25" y="-0.06406250000000036">2×10</tspan>
        <tspan style="font: 7px 'DejaVu Sans'" x="31.458008" y="-3.8921875000000004">5</tspan>
       </text>
      </g>
     </g>
    </g>
    <g id="text_11">
     <text style="font: 12px 'DejaVu Sans', 'Bitstream Vera Sans', 'Computer Modern Sans Serif', 'Lucida Grande', 'Verdana', 'Geneva', 'Lucid', 'Arial', 'Helvetica', 'Avant Garde', sans-serif; text-anchor: middle" x="16.318125" y="276.572969" transform="rotate(-90 16.318125 276.572969)">Median Elapsed Time (nanoseconds)</text>
    </g>
   </g>
   <g id="line2d_21">
    <path d="M 93.39983 320.542513 
L 137.993798 149.991683 
L 182.587767 149.175423 
L 227.181735 281.755086 
L 271.775704 73.531646 
L 316.369672 262.443182 
L 360.963641 319.558767 
L 405.557609 320.622115 
L 450.151578 154.84749 
L 494.745546 314.51646 
L 539.339515 314.91853 
L 583.933483 320.186684 
L 628.527452 70.770064 
L 673.12142 318.079801 
" clip-path="url(#p06cf73476e)" style="fill: none; stroke: #1f77b4; stroke-width: 2; stroke-linecap: square"/>
    <defs>
     <path id="ma1986fd27d" d="M 0 3 
C 0.795609 3 1.55874 2.683901 2.12132 2.12132 
C 2.683901 1.55874 3 0.795609 3 0 
C 3 -0.795609 2.683901 -1.55874 2.12132 -2.12132 
C 1.55874 -2.683901 0.795609 -3 0 -3 
C -0.795609 -3 -1.55874 -2.683901 -2.12132 -2.12132 
C -2.683901 -1.55874 -3 -0.795609 -3 0 
C -3 0.795609 -2.683901 1.55874 -2.12132 2.12132 
C -1.55874 2.683901 -0.795609 3 0 3 
z
" style="stroke: #1f77b4"/>
    </defs>
    <g clip-path="url(#p06cf73476e)">
     <use xlink:href="#ma1986fd27d" x="93.39983" y="320.542513" style="fill: #1f77b4; stroke: #1f77b4"/>
     <use xlink:href="#ma1986fd27d" x="137.993798" y="149.991683" style="fill: #1f77b4; stroke: #1f77b4"/>
     <use xlink:href="#ma1986fd27d" x="182.587767" y="149.175423" style="fill: #1f77b4; stroke: #1f77b4"/>
     <use xlink:href="#ma1986fd27d" x="227.181735" y="281.755086" style="fill: #1f77b4; stroke: #1f77b4"/>
     <use xlink:href="#ma1986fd27d" x="271.775704" y="73.531646" style="fill: #1f77b4; stroke: #1f77b4"/>
     <use xlink:href="#ma1986fd27d" x="316.369672" y="262.443182" style="fill: #1f77b4; stroke: #1f77b4"/>
     <use xlink:href="#ma1986fd27d" x="360.963641" y="319.558767" style="fill: #1f77b4; stroke: #1f77b4"/>
     <use xlink:href="#ma1986fd27d" x="405.557609" y="320.622115" style="fill: #1f77b4; stroke: #1f77b4"/>
     <use xlink:href="#ma1986fd27d" x="450.151578" y="154.84749" style="fill: #1f77b4; stroke: #1f77b4"/>
     <use xlink:href="#ma1986fd27d" x="494.745546" y="314.51646" style="fill: #1f77b4; stroke: #1f77b4"/>
     <use xlink:href="#ma1986fd27d" x="539.339515" y="314.91853" style="fill: #1f77b4; stroke: #1f77b4"/>
     <use xlink:href="#ma1986fd27d" x="583.933483" y="320.186684" style="fill: #1f77b4; stroke: #1f77b4"/>
     <use xlink:href="#ma1986fd27d" x="628.527452" y="70.770064" style="fill: #1f77b4; stroke: #1f77b4"/>
     <use xlink:href="#ma1986fd27d" x="673.12142" y="318.079801" style="fill: #1f77b4; stroke: #1f77b4"/>
    </g>
   </g>
   <g id="line2d_22">
    <path d="M 93.39983 287.127451 
L 137.993798 167.004581 
L 182.587767 206.84542 
L 227.181735 267.297794 
L 271.775704 170.58815 
L 316.369672 276.899507 
L 360.963641 267.330617 
L 405.557609 274.179502 
L 450.151578 73.826756 
L 494.745546 274.01234 
L 539.339515 271.052311 
L 583.933483 268.716092 
L 628.527452 164.685576 
L 673.12142 276.09642 
" clip-path="url(#p06cf73476e)" style="fill: none; stroke: #ff7f0e; stroke-width: 2; stroke-linecap: square"/>
    <defs>
     <path id="m19498e640d" d="M 0 3 
C 0.795609 3 1.55874 2.683901 2.12132 2.12132 
C 2.683901 1.55874 3 0.795609 3 0 
C 3 -0.795609 2.683901 -1.55874 2.12132 -2.12132 
C 1.55874 -2.683901 0.795609 -3 0 -3 
C -0.795609 -3 -1.55874 -2.683901 -2.12132 -2.12132 
C -2.683901 -1.55874 -3 -0.795609 -3 0 
C -3 0.795609 -2.683901 1.55874 -2.12132 2.12132 
C -1.55874 2.683901 -0.795609 3 0 3 
z
" style="stroke: #ff7f0e"/>
    </defs>
    <g clip-path="url(#p06cf73476e)">
     <use xlink:href="#m19498e640d" x="93.39983" y="287.127451" style="fill: #ff7f0e; stroke: #ff7f0e"/>
     <use xlink:href="#m19498e640d" x="137.993798" y="167.004581" style="fill: #ff7f0e; stroke: #ff7f0e"/>
     <use xlink:href="#m19498e640d" x="182.587767" y="206.84542" style="fill: #ff7f0e; stroke: #ff7f0e"/>
     <use xlink:href="#m19498e640d" x="227.181735" y="267.297794" style="fill: #ff7f0e; stroke: #ff7f0e"/>
     <use xlink:href="#m19498e640d" x="271.775704" y="170.58815" style="fill: #ff7f0e; stroke: #ff7f0e"/>
     <use xlink:href="#m19498e640d" x="316.369672" y="276.899507" style="fill: #ff7f0e; stroke: #ff7f0e"/>
     <use xlink:href="#m19498e640d" x="360.963641" y="267.330617" style="fill: #ff7f0e; stroke: #ff7f0e"/>
     <use xlink:href="#m19498e640d" x="405.557609" y="274.179502" style="fill: #ff7f0e; stroke: #ff7f0e"/>
     <use xlink:href="#m19498e640d" x="450.151578" y="73.826756" style="fill: #ff7f0e; stroke: #ff7f0e"/>
     <use xlink:href="#m19498e640d" x="494.745546" y="274.01234" style="fill: #ff7f0e; stroke: #ff7f0e"/>
     <use xlink:href="#m19498e640d" x="539.339515" y="271.052311" style="fill: #ff7f0e; stroke: #ff7f0e"/>
     <use xlink:href="#m19498e640d" x="583.933483" y="268.716092" style="fill: #ff7f0e; stroke: #ff7f0e"/>
     <use xlink:href="#m19498e640d" x="628.527452" y="164.685576" style="fill: #ff7f0e; stroke: #ff7f0e"/>
     <use xlink:href="#m19498e640d" x="673.12142" y="276.09642" style="fill: #ff7f0e; stroke: #ff7f0e"/>
    </g>
   </g>
   <g id="line2d_23">
    <path d="M 93.39983 310.130808 
L 137.993798 46.813736 
L 182.587767 296.600318 
L 227.181735 303.451144 
L 271.775704 141.089858 
L 316.369672 305.269854 
L 360.963641 226.615037 
L 405.557609 232.302347 
L 450.151578 223.733532 
L 494.745546 303.389853 
L 539.339515 305.32125 
L 583.933483 305.135812 
L 628.527452 229.490612 
L 673.12142 302.600982 
" clip-path="url(#p06cf73476e)" style="fill: none; stroke: #2ca02c; stroke-width: 2; stroke-linecap: square"/>
    <defs>
     <path id="mf300c5fab6" d="M 0 3 
C 0.795609 3 1.55874 2.683901 2.12132 2.12132 
C 2.683901 1.55874 3 0.795609 3 0 
C 3 -0.795609 2.683901 -1.55874 2.12132 -2.12132 
C 1.55874 -2.683901 0.795609 -3 0 -3 
C -0.795609 -3 -1.55874 -2.683901 -2.12132 -2.12132 
C -2.683901 -1.55874 -3 -0.795609 -3 0 
C -3 0.795609 -2.683901 1.55874 -2.12132 2.12132 
C -1.55874 2.683901 -0.795609 3 0 3 
z
" style="stroke: #2ca02c"/>
    </defs>
    <g clip-path="url(#p06cf73476e)">
     <use xlink:href="#mf300c5fab6" x="93.39983" y="310.130808" style="fill: #2ca02c; stroke: #2ca02c"/>
     <use xlink:href="#mf300c5fab6" x="137.993798" y="46.813736" style="fill: #2ca02c; stroke: #2ca02c"/>
     <use xlink:href="#mf300c5fab6" x="182.587767" y="296.600318" style="fill: #2ca02c; stroke: #2ca02c"/>
     <use xlink:href="#mf300c5fab6" x="227.181735" y="303.451144" style="fill: #2ca02c; stroke: #2ca02c"/>
     <use xlink:href="#mf300c5fab6" x="271.775704" y="141.089858" style="fill: #2ca02c; stroke: #2ca02c"/>
     <use xlink:href="#mf300c5fab6" x="316.369672" y="305.269854" style="fill: #2ca02c; stroke: #2ca02c"/>
     <use xlink:href="#mf300c5fab6" x="360.963641" y="226.615037" style="fill: #2ca02c; stroke: #2ca02c"/>
     <use xlink:href="#mf300c5fab6" x="405.557609" y="232.302347" style="fill: #2ca02c; stroke: #2ca02c"/>
     <use xlink:href="#mf300c5fab6" x="450.151578" y="223.733532" style="fill: #2ca02c; stroke: #2ca02c"/>
     <use xlink:href="#mf300c5fab6" x="494.745546" y="303.389853" style="fill: #2ca02c; stroke: #2ca02c"/>
     <use xlink:href="#mf300c5fab6" x="539.339515" y="305.32125" style="fill: #2ca02c; stroke: #2ca02c"/>
     <use xlink:href="#mf300c5fab6" x="583.933483" y="305.135812" style="fill: #2ca02c; stroke: #2ca02c"/>
     <use xlink:href="#mf300c5fab6" x="628.527452" y="229.490612" style="fill: #2ca02c; stroke: #2ca02c"/>
     <use xlink:href="#mf300c5fab6" x="673.12142" y="302.600982" style="fill: #2ca02c; stroke: #2ca02c"/>
    </g>
   </g>
   <g id="line2d_24">
    <path d="M 93.39983 504.453814 
L 137.993798 504.003612 
L 182.587767 504.731867 
L 227.181735 252.315063 
L 271.775704 366.645861 
L 316.369672 245.482147 
L 360.963641 505.159633 
L 405.557609 313.104335 
L 450.151578 240.459629 
L 494.745546 500.375472 
L 539.339515 506.332202 
L 583.933483 504.472122 
L 628.527452 167.390179 
" clip-path="url(#p06cf73476e)" style="fill: none; stroke: #d62728; stroke-width: 2; stroke-linecap: square"/>
    <defs>
     <path id="mfa89c5906c" d="M 0 3 
C 0.795609 3 1.55874 2.683901 2.12132 2.12132 
C 2.683901 1.55874 3 0.795609 3 0 
C 3 -0.795609 2.683901 -1.55874 2.12132 -2.12132 
C 1.55874 -2.683901 0.795609 -3 0 -3 
C -0.795609 -3 -1.55874 -2.683901 -2.12132 -2.12132 
C -2.683901 -1.55874 -3 -0.795609 -3 0 
C -3 0.795609 -2.683901 1.55874 -2.12132 2.12132 
C -1.55874 2.683901 -0.795609 3 0 3 
z
" style="stroke: #d62728"/>
    </defs>
    <g clip-path="url(#p06cf73476e)">
     <use xlink:href="#mfa89c5906c" x="93.39983" y="504.453814" style="fill: #d62728; stroke: #d62728"/>
     <use xlink:href="#mfa89c5906c" x="137.993798" y="504.003612" style="fill: #d62728; stroke: #d62728"/>
     <use xlink:href="#mfa89c5906c" x="182.587767" y="504.731867" style="fill: #d62728; stroke: #d62728"/>
     <use xlink:href="#mfa89c5906c" x="227.181735" y="252.315063" style="fill: #d62728; stroke: #d62728"/>
     <use xlink:href="#mfa89c5906c" x="271.775704" y="366.645861" style="fill: #d62728; stroke: #d62728"/>
     <use xlink:href="#mfa89c5906c" x="316.369672" y="245.482147" style="fill: #d62728; stroke: #d62728"/>
     <use xlink:href="#mfa89c5906c" x="360.963641" y="505.159633" style="fill: #d62728; stroke: #d62728"/>
     <use xlink:href="#mfa89c5906c" x="405.557609" y="313.104335" style="fill: #d62728; stroke: #d62728"/>
     <use xlink:href="#mfa89c5906c" x="450.151578" y="240.459629" style="fill: #d62728; stroke: #d62728"/>
     <use xlink:href="#mfa89c5906c" x="494.745546" y="500.375472" style="fill: #d62728; stroke: #d62728"/>
     <use xlink:href="#mfa89c5906c" x="539.339515" y="506.332202" style="fill: #d62728; stroke: #d62728"/>
     <use xlink:href="#mfa89c5906c" x="583.933483" y="504.472122" style="fill: #d62728; stroke: #d62728"/>
     <use xlink:href="#mfa89c5906c" x="628.527452" y="167.390179" style="fill: #d62728; stroke: #d62728"/>
    </g>
   </g>
   <g id="line2d_25">
    <path d="M 93.39983 462.208308 
L 137.993798 407.853999 
L 182.587767 467.155507 
L 227.181735 461.515378 
L 271.775704 369.054577 
L 316.369672 373.185516 
L 360.963641 456.22676 
L 405.557609 284.809852 
L 450.151578 450.709255 
L 494.745546 465.985863 
L 539.339515 459.358312 
L 583.933483 464.262303 
L 628.527452 338.228213 
" clip-path="url(#p06cf73476e)" style="fill: none; stroke: #9467bd; stroke-width: 2; stroke-linecap: square"/>
    <defs>
     <path id="m662f90c1da" d="M 0 3 
C 0.795609 3 1.55874 2.683901 2.12132 2.12132 
C 2.683901 1.55874 3 0.795609 3 0 
C 3 -0.795609 2.683901 -1.55874 2.12132 -2.12132 
C 1.55874 -2.683901 0.795609 -3 0 -3 
C -0.795609 -3 -1.55874 -2.683901 -2.12132 -2.12132 
C -2.683901 -1.55874 -3 -0.795609 -3 0 
C -3 0.795609 -2.683901 1.55874 -2.12132 2.12132 
C -1.55874 2.683901 -0.795609 3 0 3 
z
" style="stroke: #9467bd"/>
    </defs>
    <g clip-path="url(#p06cf73476e)">
     <use xlink:href="#m662f90c1da" x="93.39983" y="462.208308" style="fill: #9467bd; stroke: #9467bd"/>
     <use xlink:href="#m662f90c1da" x="137.993798" y="407.853999" style="fill: #9467bd; stroke: #9467bd"/>
     <use xlink:href="#m662f90c1da" x="182.587767" y="467.155507" style="fill: #9467bd; stroke: #9467bd"/>
     <use xlink:href="#m662f90c1da" x="227.181735" y="461.515378" style="fill: #9467bd; stroke: #9467bd"/>
     <use xlink:href="#m662f90c1da" x="271.775704" y="369.054577" style="fill: #9467bd; stroke: #9467bd"/>
     <use xlink:href="#m662f90c1da" x="316.369672" y="373.185516" style="fill: #9467bd; stroke: #9467bd"/>
     <use xlink:href="#m662f90c1da" x="360.963641" y="456.22676" style="fill: #9467bd; stroke: #9467bd"/>
     <use xlink:href="#m662f90c1da" x="405.557609" y="284.809852" style="fill: #9467bd; stroke: #9467bd"/>
     <use xlink:href="#m662f90c1da" x="450.151578" y="450.709255" style="fill: #9467bd; stroke: #9467bd"/>
     <use xlink:href="#m662f90c1da" x="494.745546" y="465.985863" style="fill: #9467bd; stroke: #9467bd"/>
     <use xlink:href="#m662f90c1da" x="539.339515" y="459.358312" style="fill: #9467bd; stroke: #9467bd"/>
     <use xlink:href="#m662f90c1da" x="583.933483" y="464.262303" style="fill: #9467bd; stroke: #9467bd"/>
     <use xlink:href="#m662f90c1da" x="628.527452" y="338.228213" style="fill: #9467bd; stroke: #9467bd"/>
    </g>
   </g>
   <g id="line2d_26">
    <path d="M 93.39983 428.683824 
L 137.993798 428.315357 
L 182.587767 429.875831 
L 227.181735 431.97671 
L 271.775704 353.382452 
L 316.369672 353.185514 
L 360.963641 431.624352 
L 405.557609 351.856807 
L 450.151578 429.763983 
L 494.745546 429.948912 
L 539.339515 432.011647 
L 583.933483 432.931666 
L 628.527452 352.047932 
" clip-path="url(#p06cf73476e)" style="fill: none; stroke: #8c564b; stroke-width: 2; stroke-linecap: square"/>
    <defs>
     <path id="mf08f456ed5" d="M 0 3 
C 0.795609 3 1.55874 2.683901 2.12132 2.12132 
C 2.683901 1.55874 3 0.795609 3 0 
C 3 -0.795609 2.683901 -1.55874 2.12132 -2.12132 
C 1.55874 -2.683901 0.795609 -3 0 -3 
C -0.795609 -3 -1.55874 -2.683901 -2.12132 -2.12132 
C -2.683901 -1.55874 -3 -0.795609 -3 0 
C -3 0.795609 -2.683901 1.55874 -2.12132 2.12132 
C -1.55874 2.683901 -0.795609 3 0 3 
z
" style="stroke: #8c564b"/>
    </defs>
    <g clip-path="url(#p06cf73476e)">
     <use xlink:href="#mf08f456ed5" x="93.39983" y="428.683824" style="fill: #8c564b; stroke: #8c564b"/>
     <use xlink:href="#mf08f456ed5" x="137.993798" y="428.315357" style="fill: #8c564b; stroke: #8c564b"/>
     <use xlink:href="#mf08f456ed5" x="182.587767" y="429.875831" style="fill: #8c564b; stroke: #8c564b"/>
     <use xlink:href="#mf08f456ed5" x="227.181735" y="431.97671" style="fill: #8c564b; stroke: #8c564b"/>
     <use xlink:href="#mf08f456ed5" x="271.775704" y="353.382452" style="fill: #8c564b; stroke: #8c564b"/>
     <use xlink:href="#mf08f456ed5" x="316.369672" y="353.185514" style="fill: #8c564b; stroke: #8c564b"/>
     <use xlink:href="#mf08f456ed5" x="360.963641" y="431.624352" style="fill: #8c564b; stroke: #8c564b"/>
     <use xlink:href="#mf08f456ed5" x="405.557609" y="351.856807" style="fill: #8c564b; stroke: #8c564b"/>
     <use xlink:href="#mf08f456ed5" x="450.151578" y="429.763983" style="fill: #8c564b; stroke: #8c564b"/>
     <use xlink:href="#mf08f456ed5" x="494.745546" y="429.948912" style="fill: #8c564b; stroke: #8c564b"/>
     <use xlink:href="#mf08f456ed5" x="539.339515" y="432.011647" style="fill: #8c564b; stroke: #8c564b"/>
     <use xlink:href="#mf08f456ed5" x="583.933483" y="432.931666" style="fill: #8c564b; stroke: #8c564b"/>
     <use xlink:href="#mf08f456ed5" x="628.527452" y="352.047932" style="fill: #8c564b; stroke: #8c564b"/>
    </g>
   </g>
   <g id="patch_3">
    <path d="M 64.41375 529.308125 
L 64.41375 23.837812 
" style="fill: none; stroke: #000000; stroke-width: 0.8; stroke-linejoin: miter; stroke-linecap: square"/>
   </g>
   <g id="patch_4">
    <path d="M 702.1075 529.308125 
L 702.1075 23.837812 
" style="fill: none; stroke: #000000; stroke-width: 0.8; stroke-linejoin: miter; stroke-linecap: square"/>
   </g>
   <g id="patch_5">
    <path d="M 64.41375 529.308125 
L 702.1075 529.308125 
" style="fill: none; stroke: #000000; stroke-width: 0.8; stroke-linejoin: miter; stroke-linecap: square"/>
   </g>
   <g id="patch_6">
    <path d="M 64.41375 23.837812 
L 702.1075 23.837812 
" style="fill: none; stroke: #000000; stroke-width: 0.8; stroke-linejoin: miter; stroke-linecap: square"/>
   </g>
   <g id="text_12">
    <text style="font: 700 14px 'DejaVu Sans', 'Bitstream Vera Sans', 'Computer Modern Sans Serif', 'Lucida Grande', 'Verdana', 'Geneva', 'Lucid', 'Arial', 'Helvetica', 'Avant Garde', sans-serif; text-anchor: middle" x="383.260625" y="17.837813" transform="rotate(-0 383.260625 17.837813)">Matrixops - Performance Trend</text>
   </g>
   <g id="legend_1">
    <g id="patch_7">
     <path d="M 740.992188 119.906563 
L 846.004688 119.906563 
Q 848.004688 119.906563 848.004688 117.906563 
L 848.004688 30.837813 
Q 848.004688 28.837813 846.004688 28.837813 
L 740.992188 28.837813 
Q 738.992188 28.837813 738.992188 30.837813 
L 738.992188 117.906563 
Q 738.992188 119.906563 740.992188 119.906563 
z
" style="fill: #ffffff; opacity: 0.8; stroke: #cccccc; stroke-linejoin: miter"/>
    </g>
    <g id="line2d_27">
     <path d="M 742.992188 36.93625 
L 752.992188 36.93625 
L 762.992188 36.93625 
" style="fill: none; stroke: #1f77b4; stroke-width: 2; stroke-linecap: square"/>
     <g>
      <use xlink:href="#ma1986fd27d" x="752.992188" y="36.93625" style="fill: #1f77b4; stroke: #1f77b4"/>
     </g>
    </g>
    <g id="text_13">
     <text style="font: 10px 'DejaVu Sans', 'Bitstream Vera Sans', 'Computer Modern Sans Serif', 'Lucida Grande', 'Verdana', 'Geneva', 'Lucid', 'Arial', 'Helvetica', 'Avant Garde', sans-serif; text-anchor: start" x="770.992188" y="40.43625" transform="rotate(-0 770.992188 40.43625)">gcc-14.2 - V1</text>
    </g>
    <g id="line2d_28">
     <path d="M 742.992188 51.614375 
L 752.992188 51.614375 
L 762.992188 51.614375 
" style="fill: none; stroke: #ff7f0e; stroke-width: 2; stroke-linecap: square"/>
     <g>
      <use xlink:href="#m19498e640d" x="752.992188" y="51.614375" style="fill: #ff7f0e; stroke: #ff7f0e"/>
     </g>
    </g>
    <g id="text_14">
     <text style="font: 10px 'DejaVu Sans', 'Bitstream Vera Sans', 'Computer Modern Sans Serif', 'Lucida Grande', 'Verdana', 'Geneva', 'Lucid', 'Arial', 'Helvetica', 'Avant Garde', sans-serif; text-anchor: start" x="770.992188" y="55.114375" transform="rotate(-0 770.992188 55.114375)">gcc-14.2 - V2</text>
    </g>
    <g id="line2d_29">
     <path d="M 742.992188 66.2925 
L 752.992188 66.2925 
L 762.992188 66.2925 
" style="fill: none; stroke: #2ca02c; stroke-width: 2; stroke-linecap: square"/>
     <g>
      <use xlink:href="#mf300c5fab6" x="752.992188" y="66.2925" style="fill: #2ca02c; stroke: #2ca02c"/>
     </g>
    </g>
    <g id="text_15">
     <text style="font: 10px 'DejaVu Sans', 'Bitstream Vera Sans', 'Computer Modern Sans Serif', 'Lucida Grande', 'Verdana', 'Geneva', 'Lucid', 'Arial', 'Helvetica', 'Avant Garde', sans-serif; text-anchor: start" x="770.992188" y="69.7925" transform="rotate(-0 770.992188 69.7925)">gcc-14.2 - TBB</text>
    </g>
    <g id="line2d_30">
     <path d="M 742.992188 80.970625 
L 752.992188 80.970625 
L 762.992188 80.970625 
" style="fill: none; stroke: #d62728; stroke-width: 2; stroke-linecap: square"/>
     <g>
      <use xlink:href="#mfa89c5906c" x="752.992188" y="80.970625" style="fill: #d62728; stroke: #d62728"/>
     </g>
    </g>
    <g id="text_16">
     <text style="font: 10px 'DejaVu Sans', 'Bitstream Vera Sans', 'Computer Modern Sans Serif', 'Lucida Grande', 'Verdana', 'Geneva', 'Lucid', 'Arial', 'Helvetica', 'Avant Garde', sans-serif; text-anchor: start" x="770.992188" y="84.470625" transform="rotate(-0 770.992188 84.470625)">gcc-4.2 - V1</text>
    </g>
    <g id="line2d_31">
     <path d="M 742.992188 95.64875 
L 752.992188 95.64875 
L 762.992188 95.64875 
" style="fill: none; stroke: #9467bd; stroke-width: 2; stroke-linecap: square"/>
     <g>
      <use xlink:href="#m662f90c1da" x="752.992188" y="95.64875" style="fill: #9467bd; stroke: #9467bd"/>
     </g>
    </g>
    <g id="text_17">
     <text style="font: 10px 'DejaVu Sans', 'Bitstream Vera Sans', 'Computer Modern Sans Serif', 'Lucida Grande', 'Verdana', 'Geneva', 'Lucid', 'Arial', 'Helvetica', 'Avant Garde', sans-serif; text-anchor: start" x="770.992188" y="99.14875" transform="rotate(-0 770.992188 99.14875)">gcc-4.2 - V2</text>
    </g>
    <g id="line2d_32">
     <path d="M 742.992188 110.326875 
L 752.992188 110.326875 
L 762.992188 110.326875 
" style="fill: none; stroke: #8c564b; stroke-width: 2; stroke-linecap: square"/>
     <g>
      <use xlink:href="#mf08f456ed5" x="752.992188" y="110.326875" style="fill: #8c564b; stroke: #8c564b"/>
     </g>
    </g>
    <g id="text_18">
     <text style="font: 10px 'DejaVu Sans', 'Bitstream Vera Sans', 'Computer Modern Sans Serif', 'Lucida Grande', 'Verdana', 'Geneva', 'Lucid', 'Arial', 'Helvetica', 'Avant Garde', sans-serif; text-anchor: start" x="770.992188" y="113.826875" transform="rotate(-0 770.992188 113.826875)">gcc-4.2 - TBB</text>
    </g>
   </g>
  </g>
 </g>
 <defs>
  <clipPath id="p06cf73476e">
   <rect x="64.41375" y="23.837813" width="637.69375" height="505.470313"/>
  </clipPath>
 </defs>
</svg>
