<?xml version="1.0" encoding="utf-8" standalone="no"?>
<!DOCTYPE svg PUBLIC "-//W3C//DTD SVG 1.1//EN"
  "http://www.w3.org/Graphics/SVG/1.1/DTD/svg11.dtd">
<svg xmlns:xlink="http://www.w3.org/1999/xlink" width="850.820859pt" height="568.8pt" viewBox="0 0 850.820859 568.8" xmlns="http://www.w3.org/2000/svg" version="1.1">
 <metadata>
  <rdf:RDF xmlns:dc="http://purl.org/dc/elements/1.1/" xmlns:cc="http://creativecommons.org/ns#" xmlns:rdf="http://www.w3.org/1999/02/22-rdf-syntax-ns#">
   <cc:Work>
    <dc:type rdf:resource="http://purl.org/dc/dcmitype/StillImage"/>
    <dc:date>2025-08-28T15:03:33.539327</dc:date>
    <dc:format>image/svg+xml</dc:format>
    <dc:creator>
     <cc:Agent>
      <dc:title>Matplotlib v3.9.4, https://matplotlib.org/</dc:title>
     </cc:Agent>
    </dc:creator>
   </cc:Work>
  </rdf:RDF>
 </metadata>
 <defs>
  <style type="text/css">*{stroke-linejoin: round; stroke-linecap: butt}</style>
 </defs>
 <g id="figure_1">
  <g id="patch_1">
   <path d="M 0 568.8 
L 850.820859 568.8 
L 850.820859 0 
L 0 0 
z
" style="fill: #ffffff"/>
  </g>
  <g id="axes_1">
   <g id="patch_2">
    <path d="M 64.41375 529.308125 
L 614.430938 529.308125 
L 614.430938 23.837812 
L 64.41375 23.837812 
z
" style="fill: #ffffff"/>
   </g>
   <g id="matplotlib.axis_1">
    <g id="xtick_1">
     <g id="line2d_1">
      <path d="M 89.414531 529.308125 
L 89.414531 23.837812 
" clip-path="url(#p94ae9750cd)" style="fill: none; stroke: #b0b0b0; stroke-opacity: 0.3; stroke-width: 0.8; stroke-linecap: square"/>
     </g>
     <g id="line2d_2">
      <defs>
       <path id="m4870d4de83" d="M 0 0 
L 0 3.5 
" style="stroke: #000000; stroke-width: 0.8"/>
      </defs>
      <g>
       <use xlink:href="#m4870d4de83" x="89.414531" y="529.308125" style="stroke: #000000; stroke-width: 0.8"/>
      </g>
     </g>
     <g id="text_1">
      <text style="font: 10px 'DejaVu Sans', 'Bitstream Vera Sans', 'Computer Modern Sans Serif', 'Lucida Grande', 'Verdana', 'Geneva', 'Lucid', 'Arial', 'Helvetica', 'Avant Garde', sans-serif; text-anchor: middle" x="89.414531" y="543.906563" transform="rotate(-0 89.414531 543.906563)">96</text>
     </g>
    </g>
    <g id="xtick_2">
     <g id="line2d_3">
      <path d="M 172.750469 529.308125 
L 172.750469 23.837812 
" clip-path="url(#p94ae9750cd)" style="fill: none; stroke: #b0b0b0; stroke-opacity: 0.3; stroke-width: 0.8; stroke-linecap: square"/>
     </g>
     <g id="line2d_4">
      <g>
       <use xlink:href="#m4870d4de83" x="172.750469" y="529.308125" style="stroke: #000000; stroke-width: 0.8"/>
      </g>
     </g>
     <g id="text_2">
      <text style="font: 10px 'DejaVu Sans', 'Bitstream Vera Sans', 'Computer Modern Sans Serif', 'Lucida Grande', 'Verdana', 'Geneva', 'Lucid', 'Arial', 'Helvetica', 'Avant Garde', sans-serif; text-anchor: middle" x="172.750469" y="543.906563" transform="rotate(-0 172.750469 543.906563)">98</text>
     </g>
    </g>
    <g id="xtick_3">
     <g id="line2d_5">
      <path d="M 256.086406 529.308125 
L 256.086406 23.837812 
" clip-path="url(#p94ae9750cd)" style="fill: none; stroke: #b0b0b0; stroke-opacity: 0.3; stroke-width: 0.8; stroke-linecap: square"/>
     </g>
     <g id="line2d_6">
      <g>
       <use xlink:href="#m4870d4de83" x="256.086406" y="529.308125" style="stroke: #000000; stroke-width: 0.8"/>
      </g>
     </g>
     <g id="text_3">
      <text style="font: 10px 'DejaVu Sans', 'Bitstream Vera Sans', 'Computer Modern Sans Serif', 'Lucida Grande', 'Verdana', 'Geneva', 'Lucid', 'Arial', 'Helvetica', 'Avant Garde', sans-serif; text-anchor: middle" x="256.086406" y="543.906563" transform="rotate(-0 256.086406 543.906563)">100</text>
     </g>
    </g>
    <g id="xtick_4">
     <g id="line2d_7">
      <path d="M 339.422344 529.308125 
L 339.422344 23.837812 
" clip-path="url(#p94ae9750cd)" style="fill: none; stroke: #b0b0b0; stroke-opacity: 0.3; stroke-width: 0.8; stroke-linecap: square"/>
     </g>
     <g id="line2d_8">
      <g>
       <use xlink:href="#m4870d4de83" x="339.422344" y="529.308125" style="stroke: #000000; stroke-width: 0.8"/>
      </g>
     </g>
     <g id="text_4">
      <text style="font: 10px 'DejaVu Sans', 'Bitstream Vera Sans', 'Computer Modern Sans Serif', 'Lucida Grande', 'Verdana', 'Geneva', 'Lucid', 'Arial', 'Helvetica', 'Avant Garde', sans-serif; text-anchor: middle" x="339.422344" y="543.906563" transform="rotate(-0 339.422344 543.906563)">102</text>
     </g>
    </g>
    <g id="xtick_5">
     <g id="line2d_9">
      <path d="M 422.758281 529.308125 
L 422.758281 23.837812 
" clip-path="url(#p94ae9750cd)" style="fill: none; stroke: #b0b0b0; stroke-opacity: 0.3; stroke-width: 0.8; stroke-linecap: square"/>
     </g>
     <g id="line2d_10">
      <g>
       <use xlink:href="#m4870d4de83" x="422.758281" y="529.308125" style="stroke: #000000; stroke-width: 0.8"/>
      </g>
     </g>
     <g id="text_5">
      <text style="font: 10px 'DejaVu Sans', 'Bitstream Vera Sans', 'Computer Modern Sans Serif', 'Lucida Grande', 'Verdana', 'Geneva', 'Lucid', 'Arial', 'Helvetica', 'Avant Garde', sans-serif; text-anchor: middle" x="422.758281" y="543.906563" transform="rotate(-0 422.758281 543.906563)">104</text>
     </g>
    </g>
    <g id="xtick_6">
     <g id="line2d_11">
      <path d="M 506.094219 529.308125 
L 506.094219 23.837812 
" clip-path="url(#p94ae9750cd)" style="fill: none; stroke: #b0b0b0; stroke-opacity: 0.3; stroke-width: 0.8; stroke-linecap: square"/>
     </g>
     <g id="line2d_12">
      <g>
       <use xlink:href="#m4870d4de83" x="506.094219" y="529.308125" style="stroke: #000000; stroke-width: 0.8"/>
      </g>
     </g>
     <g id="text_6">
      <text style="font: 10px 'DejaVu Sans', 'Bitstream Vera Sans', 'Computer Modern Sans Serif', 'Lucida Grande', 'Verdana', 'Geneva', 'Lucid', 'Arial', 'Helvetica', 'Avant Garde', sans-serif; text-anchor: middle" x="506.094219" y="543.906563" transform="rotate(-0 506.094219 543.906563)">106</text>
     </g>
    </g>
    <g id="xtick_7">
     <g id="line2d_13">
      <path d="M 589.430156 529.308125 
L 589.430156 23.837812 
" clip-path="url(#p94ae9750cd)" style="fill: none; stroke: #b0b0b0; stroke-opacity: 0.3; stroke-width: 0.8; stroke-linecap: square"/>
     </g>
     <g id="line2d_14">
      <g>
       <use xlink:href="#m4870d4de83" x="589.430156" y="529.308125" style="stroke: #000000; stroke-width: 0.8"/>
      </g>
     </g>
     <g id="text_7">
      <text style="font: 10px 'DejaVu Sans', 'Bitstream Vera Sans', 'Computer Modern Sans Serif', 'Lucida Grande', 'Verdana', 'Geneva', 'Lucid', 'Arial', 'Helvetica', 'Avant Garde', sans-serif; text-anchor: middle" x="589.430156" y="543.906563" transform="rotate(-0 589.430156 543.906563)">108</text>
     </g>
    </g>
    <g id="text_8">
     <text style="font: 12px 'DejaVu Sans', 'Bitstream Vera Sans', 'Computer Modern Sans Serif', 'Lucida Grande', 'Verdana', 'Geneva', 'Lucid', 'Arial', 'Helvetica', 'Avant Garde', sans-serif; text-anchor: middle" x="339.422344" y="559.104375" transform="rotate(-0 339.422344 559.104375)">Build Number</text>
    </g>
   </g>
   <g id="matplotlib.axis_2">
    <g id="ytick_1">
     <g id="line2d_15">
      <defs>
       <path id="m33ccc2d2d2" d="M 0 0 
L -2 0 
" style="stroke: #000000; stroke-width: 0.6"/>
      </defs>
      <g>
       <use xlink:href="#m33ccc2d2d2" x="64.41375" y="314.5009" style="stroke: #000000; stroke-width: 0.6"/>
      </g>
     </g>
     <g id="text_9">
      <!-- $\mathdefault{8\times10^{6}}$ -->
      <g transform="translate(22.81375 318.300119)">
       <text>
        <tspan style="font: 10px 'DejaVu Sans'" x="0 8.310547 18.637695 25" y="-0.9765625">8×10</tspan>
        <tspan style="font: 7px 'DejaVu Sans'" x="31.458008" y="-4.8046875">6</tspan>
       </text>
      </g>
     </g>
    </g>
    <g id="ytick_2">
     <g id="line2d_16">
      <g>
       <use xlink:href="#m33ccc2d2d2" x="64.41375" y="95.945828" style="stroke: #000000; stroke-width: 0.6"/>
      </g>
     </g>
     <g id="text_10">
      <!-- $\mathdefault{9\times10^{6}}$ -->
      <g transform="translate(22.81375 99.745047)">
       <text>
        <tspan style="font: 10px 'DejaVu Sans'" x="0 8.310547 18.637695 25" y="-0.9765625">9×10</tspan>
        <tspan style="font: 7px 'DejaVu Sans'" x="31.458008" y="-4.8046875">6</tspan>
       </text>
      </g>
     </g>
    </g>
    <g id="text_11">
     <text style="font: 12px 'DejaVu Sans', 'Bitstream Vera Sans', 'Computer Modern Sans Serif', 'Lucida Grande', 'Verdana', 'Geneva', 'Lucid', 'Arial', 'Helvetica', 'Avant Garde', sans-serif; text-anchor: middle" x="16.318125" y="276.572969" transform="rotate(-90 16.318125 276.572969)">Median Elapsed Time (nanoseconds)</text>
    </g>
   </g>
   <g id="line2d_17">
    <path d="M 89.414531 473.324099 
L 131.0825 373.455033 
L 214.418437 495.918948 
L 256.086406 398.318901 
L 297.754375 506.332202 
L 339.422344 483.886668 
L 381.090312 432.310647 
L 422.758281 498.309938 
L 464.42625 427.776705 
L 506.094219 452.120479 
L 589.430156 329.339319 
" clip-path="url(#p94ae9750cd)" style="fill: none; stroke: #1f77b4; stroke-width: 2; stroke-linecap: square"/>
    <defs>
     <path id="m873588cfae" d="M 0 3 
C 0.795609 3 1.55874 2.683901 2.12132 2.12132 
C 2.683901 1.55874 3 0.795609 3 0 
C 3 -0.795609 2.683901 -1.55874 2.12132 -2.12132 
C 1.55874 -2.683901 0.795609 -3 0 -3 
C -0.795609 -3 -1.55874 -2.683901 -2.12132 -2.12132 
C -2.683901 -1.55874 -3 -0.795609 -3 0 
C -3 0.795609 -2.683901 1.55874 -2.12132 2.12132 
C -1.55874 2.683901 -0.795609 3 0 3 
z
" style="stroke: #1f77b4"/>
    </defs>
    <g clip-path="url(#p94ae9750cd)">
     <use xlink:href="#m873588cfae" x="89.414531" y="473.324099" style="fill: #1f77b4; stroke: #1f77b4"/>
     <use xlink:href="#m873588cfae" x="131.0825" y="373.455033" style="fill: #1f77b4; stroke: #1f77b4"/>
     <use xlink:href="#m873588cfae" x="214.418437" y="495.918948" style="fill: #1f77b4; stroke: #1f77b4"/>
     <use xlink:href="#m873588cfae" x="256.086406" y="398.318901" style="fill: #1f77b4; stroke: #1f77b4"/>
     <use xlink:href="#m873588cfae" x="297.754375" y="506.332202" style="fill: #1f77b4; stroke: #1f77b4"/>
     <use xlink:href="#m873588cfae" x="339.422344" y="483.886668" style="fill: #1f77b4; stroke: #1f77b4"/>
     <use xlink:href="#m873588cfae" x="381.090312" y="432.310647" style="fill: #1f77b4; stroke: #1f77b4"/>
     <use xlink:href="#m873588cfae" x="422.758281" y="498.309938" style="fill: #1f77b4; stroke: #1f77b4"/>
     <use xlink:href="#m873588cfae" x="464.42625" y="427.776705" style="fill: #1f77b4; stroke: #1f77b4"/>
     <use xlink:href="#m873588cfae" x="506.094219" y="452.120479" style="fill: #1f77b4; stroke: #1f77b4"/>
     <use xlink:href="#m873588cfae" x="589.430156" y="329.339319" style="fill: #1f77b4; stroke: #1f77b4"/>
    </g>
   </g>
   <g id="line2d_18">
    <path d="M 89.414531 468.731071 
L 131.0825 375.469217 
L 214.418437 493.103119 
L 256.086406 427.034623 
L 297.754375 502.308624 
L 339.422344 490.405747 
L 381.090312 433.393284 
L 422.758281 485.415884 
L 464.42625 409.277979 
L 506.094219 468.619366 
L 589.430156 321.046485 
" clip-path="url(#p94ae9750cd)" style="fill: none; stroke: #ff7f0e; stroke-width: 2; stroke-linecap: square"/>
    <defs>
     <path id="m5daf3a6f64" d="M 0 3 
C 0.795609 3 1.55874 2.683901 2.12132 2.12132 
C 2.683901 1.55874 3 0.795609 3 0 
C 3 -0.795609 2.683901 -1.55874 2.12132 -2.12132 
C 1.55874 -2.683901 0.795609 -3 0 -3 
C -0.795609 -3 -1.55874 -2.683901 -2.12132 -2.12132 
C -2.683901 -1.55874 -3 -0.795609 -3 0 
C -3 0.795609 -2.683901 1.55874 -2.12132 2.12132 
C -1.55874 2.683901 -0.795609 3 0 3 
z
" style="stroke: #ff7f0e"/>
    </defs>
    <g clip-path="url(#p94ae9750cd)">
     <use xlink:href="#m5daf3a6f64" x="89.414531" y="468.731071" style="fill: #ff7f0e; stroke: #ff7f0e"/>
     <use xlink:href="#m5daf3a6f64" x="131.0825" y="375.469217" style="fill: #ff7f0e; stroke: #ff7f0e"/>
     <use xlink:href="#m5daf3a6f64" x="214.418437" y="493.103119" style="fill: #ff7f0e; stroke: #ff7f0e"/>
     <use xlink:href="#m5daf3a6f64" x="256.086406" y="427.034623" style="fill: #ff7f0e; stroke: #ff7f0e"/>
     <use xlink:href="#m5daf3a6f64" x="297.754375" y="502.308624" style="fill: #ff7f0e; stroke: #ff7f0e"/>
     <use xlink:href="#m5daf3a6f64" x="339.422344" y="490.405747" style="fill: #ff7f0e; stroke: #ff7f0e"/>
     <use xlink:href="#m5daf3a6f64" x="381.090312" y="433.393284" style="fill: #ff7f0e; stroke: #ff7f0e"/>
     <use xlink:href="#m5daf3a6f64" x="422.758281" y="485.415884" style="fill: #ff7f0e; stroke: #ff7f0e"/>
     <use xlink:href="#m5daf3a6f64" x="464.42625" y="409.277979" style="fill: #ff7f0e; stroke: #ff7f0e"/>
     <use xlink:href="#m5daf3a6f64" x="506.094219" y="468.619366" style="fill: #ff7f0e; stroke: #ff7f0e"/>
     <use xlink:href="#m5daf3a6f64" x="589.430156" y="321.046485" style="fill: #ff7f0e; stroke: #ff7f0e"/>
    </g>
   </g>
   <g id="line2d_19">
    <path d="M 89.414531 89.173216 
L 131.0825 161.892239 
L 214.418437 128.43146 
L 256.086406 46.813736 
L 297.754375 179.893875 
L 339.422344 137.405096 
L 381.090312 180.227381 
L 422.758281 173.569457 
L 464.42625 163.296004 
L 506.094219 170.358504 
L 589.430156 175.253276 
" clip-path="url(#p94ae9750cd)" style="fill: none; stroke: #2ca02c; stroke-width: 2; stroke-linecap: square"/>
    <defs>
     <path id="m37f4529773" d="M 0 3 
C 0.795609 3 1.55874 2.683901 2.12132 2.12132 
C 2.683901 1.55874 3 0.795609 3 0 
C 3 -0.795609 2.683901 -1.55874 2.12132 -2.12132 
C 1.55874 -2.683901 0.795609 -3 0 -3 
C -0.795609 -3 -1.55874 -2.683901 -2.12132 -2.12132 
C -2.683901 -1.55874 -3 -0.795609 -3 0 
C -3 0.795609 -2.683901 1.55874 -2.12132 2.12132 
C -1.55874 2.683901 -0.795609 3 0 3 
z
" style="stroke: #2ca02c"/>
    </defs>
    <g clip-path="url(#p94ae9750cd)">
     <use xlink:href="#m37f4529773" x="89.414531" y="89.173216" style="fill: #2ca02c; stroke: #2ca02c"/>
     <use xlink:href="#m37f4529773" x="131.0825" y="161.892239" style="fill: #2ca02c; stroke: #2ca02c"/>
     <use xlink:href="#m37f4529773" x="214.418437" y="128.43146" style="fill: #2ca02c; stroke: #2ca02c"/>
     <use xlink:href="#m37f4529773" x="256.086406" y="46.813736" style="fill: #2ca02c; stroke: #2ca02c"/>
     <use xlink:href="#m37f4529773" x="297.754375" y="179.893875" style="fill: #2ca02c; stroke: #2ca02c"/>
     <use xlink:href="#m37f4529773" x="339.422344" y="137.405096" style="fill: #2ca02c; stroke: #2ca02c"/>
     <use xlink:href="#m37f4529773" x="381.090312" y="180.227381" style="fill: #2ca02c; stroke: #2ca02c"/>
     <use xlink:href="#m37f4529773" x="422.758281" y="173.569457" style="fill: #2ca02c; stroke: #2ca02c"/>
     <use xlink:href="#m37f4529773" x="464.42625" y="163.296004" style="fill: #2ca02c; stroke: #2ca02c"/>
     <use xlink:href="#m37f4529773" x="506.094219" y="170.358504" style="fill: #2ca02c; stroke: #2ca02c"/>
     <use xlink:href="#m37f4529773" x="589.430156" y="175.253276" style="fill: #2ca02c; stroke: #2ca02c"/>
    </g>
   </g>
   <g id="line2d_20">
    <path d="M 89.414531 97.951281 
L 131.0825 174.420983 
L 214.418437 180.369526 
L 256.086406 54.029165 
L 297.754375 198.408958 
L 339.422344 141.028216 
L 381.090312 175.879958 
L 422.758281 190.427519 
L 464.42625 187.15686 
L 506.094219 199.113062 
L 589.430156 204.450786 
" clip-path="url(#p94ae9750cd)" style="fill: none; stroke: #d62728; stroke-width: 2; stroke-linecap: square"/>
    <defs>
     <path id="m2468a6814d" d="M 0 3 
C 0.795609 3 1.55874 2.683901 2.12132 2.12132 
C 2.683901 1.55874 3 0.795609 3 0 
C 3 -0.795609 2.683901 -1.55874 2.12132 -2.12132 
C 1.55874 -2.683901 0.795609 -3 0 -3 
C -0.795609 -3 -1.55874 -2.683901 -2.12132 -2.12132 
C -2.683901 -1.55874 -3 -0.795609 -3 0 
C -3 0.795609 -2.683901 1.55874 -2.12132 2.12132 
C -1.55874 2.683901 -0.795609 3 0 3 
z
" style="stroke: #d62728"/>
    </defs>
    <g clip-path="url(#p94ae9750cd)">
     <use xlink:href="#m2468a6814d" x="89.414531" y="97.951281" style="fill: #d62728; stroke: #d62728"/>
     <use xlink:href="#m2468a6814d" x="131.0825" y="174.420983" style="fill: #d62728; stroke: #d62728"/>
     <use xlink:href="#m2468a6814d" x="214.418437" y="180.369526" style="fill: #d62728; stroke: #d62728"/>
     <use xlink:href="#m2468a6814d" x="256.086406" y="54.029165" style="fill: #d62728; stroke: #d62728"/>
     <use xlink:href="#m2468a6814d" x="297.754375" y="198.408958" style="fill: #d62728; stroke: #d62728"/>
     <use xlink:href="#m2468a6814d" x="339.422344" y="141.028216" style="fill: #d62728; stroke: #d62728"/>
     <use xlink:href="#m2468a6814d" x="381.090312" y="175.879958" style="fill: #d62728; stroke: #d62728"/>
     <use xlink:href="#m2468a6814d" x="422.758281" y="190.427519" style="fill: #d62728; stroke: #d62728"/>
     <use xlink:href="#m2468a6814d" x="464.42625" y="187.15686" style="fill: #d62728; stroke: #d62728"/>
     <use xlink:href="#m2468a6814d" x="506.094219" y="199.113062" style="fill: #d62728; stroke: #d62728"/>
     <use xlink:href="#m2468a6814d" x="589.430156" y="204.450786" style="fill: #d62728; stroke: #d62728"/>
    </g>
   </g>
   <g id="patch_3">
    <path d="M 64.41375 529.308125 
L 64.41375 23.837812 
" style="fill: none; stroke: #000000; stroke-width: 0.8; stroke-linejoin: miter; stroke-linecap: square"/>
   </g>
   <g id="patch_4">
    <path d="M 614.430938 529.308125 
L 614.430938 23.837812 
" style="fill: none; stroke: #000000; stroke-width: 0.8; stroke-linejoin: miter; stroke-linecap: square"/>
   </g>
   <g id="patch_5">
    <path d="M 64.41375 529.308125 
L 614.430937 529.308125 
" style="fill: none; stroke: #000000; stroke-width: 0.8; stroke-linejoin: miter; stroke-linecap: square"/>
   </g>
   <g id="patch_6">
    <path d="M 64.41375 23.837812 
L 614.430937 23.837812 
" style="fill: none; stroke: #000000; stroke-width: 0.8; stroke-linejoin: miter; stroke-linecap: square"/>
   </g>
   <g id="text_12">
    <text style="font: 700 14px 'DejaVu Sans', 'Bitstream Vera Sans', 'Computer Modern Sans Serif', 'Lucida Grande', 'Verdana', 'Geneva', 'Lucid', 'Arial', 'Helvetica', 'Avant Garde', sans-serif; text-anchor: middle" x="339.422344" y="17.837813" transform="rotate(-0 339.422344 17.837813)">Coroutine Memory - Performance Trend</text>
   </g>
   <g id="legend_1">
    <g id="patch_7">
     <path d="M 648.931797 91.662813 
L 841.620859 91.662813 
Q 843.620859 91.662813 843.620859 89.662813 
L 843.620859 30.837813 
Q 843.620859 28.837813 841.620859 28.837813 
L 648.931797 28.837813 
Q 646.931797 28.837813 646.931797 30.837813 
L 646.931797 89.662813 
Q 646.931797 91.662813 648.931797 91.662813 
z
" style="fill: #ffffff; opacity: 0.8; stroke: #cccccc; stroke-linejoin: miter"/>
    </g>
    <g id="line2d_21">
     <path d="M 650.931797 36.93625 
L 660.931797 36.93625 
L 670.931797 36.93625 
" style="fill: none; stroke: #1f77b4; stroke-width: 2; stroke-linecap: square"/>
     <g>
      <use xlink:href="#m873588cfae" x="660.931797" y="36.93625" style="fill: #1f77b4; stroke: #1f77b4"/>
     </g>
    </g>
    <g id="text_13">
     <text style="font: 10px 'DejaVu Sans', 'Bitstream Vera Sans', 'Computer Modern Sans Serif', 'Lucida Grande', 'Verdana', 'Geneva', 'Lucid', 'Arial', 'Helvetica', 'Avant Garde', sans-serif; text-anchor: start" x="678.931797" y="40.43625" transform="rotate(-0 678.931797 40.43625)">gcc-14.2 - CoroutineMemory_V1</text>
    </g>
    <g id="line2d_22">
     <path d="M 650.931797 51.8925 
L 660.931797 51.8925 
L 670.931797 51.8925 
" style="fill: none; stroke: #ff7f0e; stroke-width: 2; stroke-linecap: square"/>
     <g>
      <use xlink:href="#m5daf3a6f64" x="660.931797" y="51.8925" style="fill: #ff7f0e; stroke: #ff7f0e"/>
     </g>
    </g>
    <g id="text_14">
     <text style="font: 10px 'DejaVu Sans', 'Bitstream Vera Sans', 'Computer Modern Sans Serif', 'Lucida Grande', 'Verdana', 'Geneva', 'Lucid', 'Arial', 'Helvetica', 'Avant Garde', sans-serif; text-anchor: start" x="678.931797" y="55.3925" transform="rotate(-0 678.931797 55.3925)">gcc-14.2 - CoroutineMemory_V2</text>
    </g>
    <g id="line2d_23">
     <path d="M 650.931797 66.84875 
L 660.931797 66.84875 
L 670.931797 66.84875 
" style="fill: none; stroke: #2ca02c; stroke-width: 2; stroke-linecap: square"/>
     <g>
      <use xlink:href="#m37f4529773" x="660.931797" y="66.84875" style="fill: #2ca02c; stroke: #2ca02c"/>
     </g>
    </g>
    <g id="text_15">
     <text style="font: 10px 'DejaVu Sans', 'Bitstream Vera Sans', 'Computer Modern Sans Serif', 'Lucida Grande', 'Verdana', 'Geneva', 'Lucid', 'Arial', 'Helvetica', 'Avant Garde', sans-serif; text-anchor: start" x="678.931797" y="70.34875" transform="rotate(-0 678.931797 70.34875)">gcc-4.2 - CoroutineMemory_V1</text>
    </g>
    <g id="line2d_24">
     <path d="M 650.931797 81.805 
L 660.931797 81.805 
L 670.931797 81.805 
" style="fill: none; stroke: #d62728; stroke-width: 2; stroke-linecap: square"/>
     <g>
      <use xlink:href="#m2468a6814d" x="660.931797" y="81.805" style="fill: #d62728; stroke: #d62728"/>
     </g>
    </g>
    <g id="text_16">
     <text style="font: 10px 'DejaVu Sans', 'Bitstream Vera Sans', 'Computer Modern Sans Serif', 'Lucida Grande', 'Verdana', 'Geneva', 'Lucid', 'Arial', 'Helvetica', 'Avant Garde', sans-serif; text-anchor: start" x="678.931797" y="85.305" transform="rotate(-0 678.931797 85.305)">gcc-4.2 - CoroutineMemory_V2</text>
    </g>
   </g>
  </g>
 </g>
 <defs>
  <clipPath id="p94ae9750cd">
   <rect x="64.41375" y="23.837813" width="550.017187" height="505.470313"/>
  </clipPath>
 </defs>
</svg>
