<?xml version="1.0" encoding="utf-8" standalone="no"?>
<!DOCTYPE svg PUBLIC "-//W3C//DTD SVG 1.1//EN"
  "http://www.w3.org/Graphics/SVG/1.1/DTD/svg11.dtd">
<svg xmlns:xlink="http://www.w3.org/1999/xlink" width="856.684141pt" height="568.8pt" viewBox="0 0 856.684141 568.8" xmlns="http://www.w3.org/2000/svg" version="1.1">
 <metadata>
  <rdf:RDF xmlns:dc="http://purl.org/dc/elements/1.1/" xmlns:cc="http://creativecommons.org/ns#" xmlns:rdf="http://www.w3.org/1999/02/22-rdf-syntax-ns#">
   <cc:Work>
    <dc:type rdf:resource="http://purl.org/dc/dcmitype/StillImage"/>
    <dc:date>2025-08-30T11:10:47.902781</dc:date>
    <dc:format>image/svg+xml</dc:format>
    <dc:creator>
     <cc:Agent>
      <dc:title>Matplotlib v3.9.4, https://matplotlib.org/</dc:title>
     </cc:Agent>
    </dc:creator>
   </cc:Work>
  </rdf:RDF>
 </metadata>
 <defs>
  <style type="text/css">*{stroke-linejoin: round; stroke-linecap: butt}</style>
 </defs>
 <g id="figure_1">
  <g id="patch_1">
   <path d="M 0 568.8 
L 856.684141 568.8 
L 856.684141 0 
L 0 0 
z
" style="fill: #ffffff"/>
  </g>
  <g id="axes_1">
   <g id="patch_2">
    <path d="M 64.41375 529.308125 
L 731.696562 529.308125 
L 731.696562 23.837812 
L 64.41375 23.837812 
z
" style="fill: #ffffff"/>
   </g>
   <g id="matplotlib.axis_1">
    <g id="xtick_1">
     <g id="line2d_1">
      <path d="M 79.949159 529.308125 
L 79.949159 23.837812 
" clip-path="url(#p737db47896)" style="fill: none; stroke: #b0b0b0; stroke-opacity: 0.3; stroke-width: 0.8; stroke-linecap: square"/>
     </g>
     <g id="line2d_2">
      <defs>
       <path id="m65d5aaa228" d="M 0 0 
L 0 3.5 
" style="stroke: #000000; stroke-width: 0.8"/>
      </defs>
      <g>
       <use xlink:href="#m65d5aaa228" x="79.949159" y="529.308125" style="stroke: #000000; stroke-width: 0.8"/>
      </g>
     </g>
     <g id="text_1">
      <text style="font: 10px 'DejaVu Sans', 'Bitstream Vera Sans', 'Computer Modern Sans Serif', 'Lucida Grande', 'Verdana', 'Geneva', 'Lucid', 'Arial', 'Helvetica', 'Avant Garde', sans-serif; text-anchor: middle" x="79.949159" y="543.906563" transform="rotate(-0 79.949159 543.906563)">70</text>
     </g>
    </g>
    <g id="xtick_2">
     <g id="line2d_3">
      <path d="M 227.905437 529.308125 
L 227.905437 23.837812 
" clip-path="url(#p737db47896)" style="fill: none; stroke: #b0b0b0; stroke-opacity: 0.3; stroke-width: 0.8; stroke-linecap: square"/>
     </g>
     <g id="line2d_4">
      <g>
       <use xlink:href="#m65d5aaa228" x="227.905437" y="529.308125" style="stroke: #000000; stroke-width: 0.8"/>
      </g>
     </g>
     <g id="text_2">
      <text style="font: 10px 'DejaVu Sans', 'Bitstream Vera Sans', 'Computer Modern Sans Serif', 'Lucida Grande', 'Verdana', 'Geneva', 'Lucid', 'Arial', 'Helvetica', 'Avant Garde', sans-serif; text-anchor: middle" x="227.905437" y="543.906563" transform="rotate(-0 227.905437 543.906563)">80</text>
     </g>
    </g>
    <g id="xtick_3">
     <g id="line2d_5">
      <path d="M 375.861715 529.308125 
L 375.861715 23.837812 
" clip-path="url(#p737db47896)" style="fill: none; stroke: #b0b0b0; stroke-opacity: 0.3; stroke-width: 0.8; stroke-linecap: square"/>
     </g>
     <g id="line2d_6">
      <g>
       <use xlink:href="#m65d5aaa228" x="375.861715" y="529.308125" style="stroke: #000000; stroke-width: 0.8"/>
      </g>
     </g>
     <g id="text_3">
      <text style="font: 10px 'DejaVu Sans', 'Bitstream Vera Sans', 'Computer Modern Sans Serif', 'Lucida Grande', 'Verdana', 'Geneva', 'Lucid', 'Arial', 'Helvetica', 'Avant Garde', sans-serif; text-anchor: middle" x="375.861715" y="543.906563" transform="rotate(-0 375.861715 543.906563)">90</text>
     </g>
    </g>
    <g id="xtick_4">
     <g id="line2d_7">
      <path d="M 523.817992 529.308125 
L 523.817992 23.837812 
" clip-path="url(#p737db47896)" style="fill: none; stroke: #b0b0b0; stroke-opacity: 0.3; stroke-width: 0.8; stroke-linecap: square"/>
     </g>
     <g id="line2d_8">
      <g>
       <use xlink:href="#m65d5aaa228" x="523.817992" y="529.308125" style="stroke: #000000; stroke-width: 0.8"/>
      </g>
     </g>
     <g id="text_4">
      <text style="font: 10px 'DejaVu Sans', 'Bitstream Vera Sans', 'Computer Modern Sans Serif', 'Lucida Grande', 'Verdana', 'Geneva', 'Lucid', 'Arial', 'Helvetica', 'Avant Garde', sans-serif; text-anchor: middle" x="523.817992" y="543.906563" transform="rotate(-0 523.817992 543.906563)">100</text>
     </g>
    </g>
    <g id="xtick_5">
     <g id="line2d_9">
      <path d="M 671.77427 529.308125 
L 671.77427 23.837812 
" clip-path="url(#p737db47896)" style="fill: none; stroke: #b0b0b0; stroke-opacity: 0.3; stroke-width: 0.8; stroke-linecap: square"/>
     </g>
     <g id="line2d_10">
      <g>
       <use xlink:href="#m65d5aaa228" x="671.77427" y="529.308125" style="stroke: #000000; stroke-width: 0.8"/>
      </g>
     </g>
     <g id="text_5">
      <text style="font: 10px 'DejaVu Sans', 'Bitstream Vera Sans', 'Computer Modern Sans Serif', 'Lucida Grande', 'Verdana', 'Geneva', 'Lucid', 'Arial', 'Helvetica', 'Avant Garde', sans-serif; text-anchor: middle" x="671.77427" y="543.906563" transform="rotate(-0 671.77427 543.906563)">110</text>
     </g>
    </g>
    <g id="text_6">
     <text style="font: 12px 'DejaVu Sans', 'Bitstream Vera Sans', 'Computer Modern Sans Serif', 'Lucida Grande', 'Verdana', 'Geneva', 'Lucid', 'Arial', 'Helvetica', 'Avant Garde', sans-serif; text-anchor: middle" x="398.055156" y="559.104375" transform="rotate(-0 398.055156 559.104375)">Build Number</text>
    </g>
   </g>
   <g id="matplotlib.axis_2">
    <g id="ytick_1">
     <g id="line2d_11">
      <defs>
       <path id="mc49474ba81" d="M 0 0 
L -2 0 
" style="stroke: #000000; stroke-width: 0.6"/>
      </defs>
      <g>
       <use xlink:href="#mc49474ba81" x="64.41375" y="480.418415" style="stroke: #000000; stroke-width: 0.6"/>
      </g>
     </g>
     <g id="text_7">
      <!-- $\mathdefault{4\times10^{0}}$ -->
      <g transform="translate(22.81375 484.217634)">
       <text>
        <tspan style="font: 10px 'DejaVu Sans'" x="0 8.310547 18.637695 25" y="-0.9765625">4×10</tspan>
        <tspan style="font: 7px 'DejaVu Sans'" x="31.458008" y="-4.8046875">0</tspan>
       </text>
      </g>
     </g>
    </g>
    <g id="ytick_2">
     <g id="line2d_12">
      <g>
       <use xlink:href="#mc49474ba81" x="64.41375" y="252.022085" style="stroke: #000000; stroke-width: 0.6"/>
      </g>
     </g>
     <g id="text_8">
      <!-- $\mathdefault{5\times10^{0}}$ -->
      <g transform="translate(22.81375 255.821304)">
       <text>
        <tspan style="font: 10px 'DejaVu Sans'" x="0 8.310547 18.637695 25" y="-0.9765625">5×10</tspan>
        <tspan style="font: 7px 'DejaVu Sans'" x="31.458008" y="-4.8046875">0</tspan>
       </text>
      </g>
     </g>
    </g>
    <g id="ytick_3">
     <g id="line2d_13">
      <g>
       <use xlink:href="#mc49474ba81" x="64.41375" y="65.408696" style="stroke: #000000; stroke-width: 0.6"/>
      </g>
     </g>
     <g id="text_9">
      <!-- $\mathdefault{6\times10^{0}}$ -->
      <g transform="translate(22.81375 69.207915)">
       <text>
        <tspan style="font: 10px 'DejaVu Sans'" x="0 8.310547 18.637695 25" y="-0.9765625">6×10</tspan>
        <tspan style="font: 7px 'DejaVu Sans'" x="31.458008" y="-4.8046875">0</tspan>
       </text>
      </g>
     </g>
    </g>
    <g id="text_10">
     <text style="font: 12px 'DejaVu Sans', 'Bitstream Vera Sans', 'Computer Modern Sans Serif', 'Lucida Grande', 'Verdana', 'Geneva', 'Lucid', 'Arial', 'Helvetica', 'Avant Garde', sans-serif; text-anchor: middle" x="16.318125" y="276.572969" transform="rotate(-90 16.318125 276.572969)">Median Elapsed Time (nanoseconds)</text>
    </g>
   </g>
   <g id="line2d_14">
    <path d="M 94.744787 428.045632 
L 109.540415 428.045632 
L 124.336042 428.045632 
L 139.13167 428.045632 
L 153.927298 428.045632 
L 168.722926 428.045632 
L 183.518554 428.045632 
L 198.314181 428.045632 
L 213.109809 428.045632 
L 227.905437 428.045632 
L 242.701065 428.045632 
L 257.496692 430.479735 
L 272.29232 428.045632 
L 301.883576 430.479735 
L 316.679204 430.479735 
L 346.270459 428.045632 
L 361.066087 428.045632 
L 375.861715 428.045632 
L 390.657342 452.651141 
L 405.45297 428.045632 
L 435.044226 428.045632 
L 449.839853 428.045632 
L 464.635481 428.045632 
L 479.431109 428.045632 
L 509.022365 430.479735 
L 523.817992 430.479735 
L 538.61362 428.045632 
L 553.409248 430.479735 
L 568.204876 430.479735 
L 583.000503 428.045632 
L 597.796131 430.479735 
L 612.591759 430.479735 
L 642.183014 503.711099 
L 656.978642 503.711099 
L 671.77427 506.332202 
L 701.365526 503.711099 
" clip-path="url(#p737db47896)" style="fill: none; stroke: #1f77b4; stroke-width: 2; stroke-linecap: square"/>
    <defs>
     <path id="meb3f117f3e" d="M 0 3 
C 0.795609 3 1.55874 2.683901 2.12132 2.12132 
C 2.683901 1.55874 3 0.795609 3 0 
C 3 -0.795609 2.683901 -1.55874 2.12132 -2.12132 
C 1.55874 -2.683901 0.795609 -3 0 -3 
C -0.795609 -3 -1.55874 -2.683901 -2.12132 -2.12132 
C -2.683901 -1.55874 -3 -0.795609 -3 0 
C -3 0.795609 -2.683901 1.55874 -2.12132 2.12132 
C -1.55874 2.683901 -0.795609 3 0 3 
z
" style="stroke: #1f77b4"/>
    </defs>
    <g clip-path="url(#p737db47896)">
     <use xlink:href="#meb3f117f3e" x="94.744787" y="428.045632" style="fill: #1f77b4; stroke: #1f77b4"/>
     <use xlink:href="#meb3f117f3e" x="109.540415" y="428.045632" style="fill: #1f77b4; stroke: #1f77b4"/>
     <use xlink:href="#meb3f117f3e" x="124.336042" y="428.045632" style="fill: #1f77b4; stroke: #1f77b4"/>
     <use xlink:href="#meb3f117f3e" x="139.13167" y="428.045632" style="fill: #1f77b4; stroke: #1f77b4"/>
     <use xlink:href="#meb3f117f3e" x="153.927298" y="428.045632" style="fill: #1f77b4; stroke: #1f77b4"/>
     <use xlink:href="#meb3f117f3e" x="168.722926" y="428.045632" style="fill: #1f77b4; stroke: #1f77b4"/>
     <use xlink:href="#meb3f117f3e" x="183.518554" y="428.045632" style="fill: #1f77b4; stroke: #1f77b4"/>
     <use xlink:href="#meb3f117f3e" x="198.314181" y="428.045632" style="fill: #1f77b4; stroke: #1f77b4"/>
     <use xlink:href="#meb3f117f3e" x="213.109809" y="428.045632" style="fill: #1f77b4; stroke: #1f77b4"/>
     <use xlink:href="#meb3f117f3e" x="227.905437" y="428.045632" style="fill: #1f77b4; stroke: #1f77b4"/>
     <use xlink:href="#meb3f117f3e" x="242.701065" y="428.045632" style="fill: #1f77b4; stroke: #1f77b4"/>
     <use xlink:href="#meb3f117f3e" x="257.496692" y="430.479735" style="fill: #1f77b4; stroke: #1f77b4"/>
     <use xlink:href="#meb3f117f3e" x="272.29232" y="428.045632" style="fill: #1f77b4; stroke: #1f77b4"/>
     <use xlink:href="#meb3f117f3e" x="301.883576" y="430.479735" style="fill: #1f77b4; stroke: #1f77b4"/>
     <use xlink:href="#meb3f117f3e" x="316.679204" y="430.479735" style="fill: #1f77b4; stroke: #1f77b4"/>
     <use xlink:href="#meb3f117f3e" x="346.270459" y="428.045632" style="fill: #1f77b4; stroke: #1f77b4"/>
     <use xlink:href="#meb3f117f3e" x="361.066087" y="428.045632" style="fill: #1f77b4; stroke: #1f77b4"/>
     <use xlink:href="#meb3f117f3e" x="375.861715" y="428.045632" style="fill: #1f77b4; stroke: #1f77b4"/>
     <use xlink:href="#meb3f117f3e" x="390.657342" y="452.651141" style="fill: #1f77b4; stroke: #1f77b4"/>
     <use xlink:href="#meb3f117f3e" x="405.45297" y="428.045632" style="fill: #1f77b4; stroke: #1f77b4"/>
     <use xlink:href="#meb3f117f3e" x="435.044226" y="428.045632" style="fill: #1f77b4; stroke: #1f77b4"/>
     <use xlink:href="#meb3f117f3e" x="449.839853" y="428.045632" style="fill: #1f77b4; stroke: #1f77b4"/>
     <use xlink:href="#meb3f117f3e" x="464.635481" y="428.045632" style="fill: #1f77b4; stroke: #1f77b4"/>
     <use xlink:href="#meb3f117f3e" x="479.431109" y="428.045632" style="fill: #1f77b4; stroke: #1f77b4"/>
     <use xlink:href="#meb3f117f3e" x="509.022365" y="430.479735" style="fill: #1f77b4; stroke: #1f77b4"/>
     <use xlink:href="#meb3f117f3e" x="523.817992" y="430.479735" style="fill: #1f77b4; stroke: #1f77b4"/>
     <use xlink:href="#meb3f117f3e" x="538.61362" y="428.045632" style="fill: #1f77b4; stroke: #1f77b4"/>
     <use xlink:href="#meb3f117f3e" x="553.409248" y="430.479735" style="fill: #1f77b4; stroke: #1f77b4"/>
     <use xlink:href="#meb3f117f3e" x="568.204876" y="430.479735" style="fill: #1f77b4; stroke: #1f77b4"/>
     <use xlink:href="#meb3f117f3e" x="583.000503" y="428.045632" style="fill: #1f77b4; stroke: #1f77b4"/>
     <use xlink:href="#meb3f117f3e" x="597.796131" y="430.479735" style="fill: #1f77b4; stroke: #1f77b4"/>
     <use xlink:href="#meb3f117f3e" x="612.591759" y="430.479735" style="fill: #1f77b4; stroke: #1f77b4"/>
     <use xlink:href="#meb3f117f3e" x="642.183014" y="503.711099" style="fill: #1f77b4; stroke: #1f77b4"/>
     <use xlink:href="#meb3f117f3e" x="656.978642" y="503.711099" style="fill: #1f77b4; stroke: #1f77b4"/>
     <use xlink:href="#meb3f117f3e" x="671.77427" y="506.332202" style="fill: #1f77b4; stroke: #1f77b4"/>
     <use xlink:href="#meb3f117f3e" x="701.365526" y="503.711099" style="fill: #1f77b4; stroke: #1f77b4"/>
    </g>
   </g>
   <g id="line2d_15">
    <path d="M 94.744787 503.711099 
L 109.540415 404.01777 
L 124.336042 406.395332 
L 139.13167 428.045632 
L 153.927298 406.395332 
L 168.722926 428.045632 
L 183.518554 428.045632 
L 198.314181 406.395332 
L 213.109809 428.045632 
L 227.905437 404.01777 
L 242.701065 428.045632 
L 257.496692 406.395332 
L 272.29232 404.01777 
L 287.087948 404.01777 
L 301.883576 428.045632 
L 316.679204 406.395332 
L 346.270459 406.395332 
L 361.066087 406.395332 
L 375.861715 428.045632 
L 390.657342 404.01777 
L 405.45297 406.395332 
L 420.248598 406.395332 
L 435.044226 406.395332 
L 449.839853 404.01777 
L 464.635481 406.395332 
L 479.431109 46.813736 
L 509.022365 428.045632 
L 523.817992 428.045632 
L 538.61362 406.395332 
L 553.409248 404.01777 
L 568.204876 404.01777 
L 583.000503 404.01777 
L 597.796131 406.395332 
L 612.591759 404.01777 
L 642.183014 404.01777 
L 656.978642 428.045632 
L 671.77427 406.395332 
L 686.569898 406.395332 
L 701.365526 406.395332 
" clip-path="url(#p737db47896)" style="fill: none; stroke: #ff7f0e; stroke-width: 2; stroke-linecap: square"/>
    <defs>
     <path id="m60a2c27c5b" d="M 0 3 
C 0.795609 3 1.55874 2.683901 2.12132 2.12132 
C 2.683901 1.55874 3 0.795609 3 0 
C 3 -0.795609 2.683901 -1.55874 2.12132 -2.12132 
C 1.55874 -2.683901 0.795609 -3 0 -3 
C -0.795609 -3 -1.55874 -2.683901 -2.12132 -2.12132 
C -2.683901 -1.55874 -3 -0.795609 -3 0 
C -3 0.795609 -2.683901 1.55874 -2.12132 2.12132 
C -1.55874 2.683901 -0.795609 3 0 3 
z
" style="stroke: #ff7f0e"/>
    </defs>
    <g clip-path="url(#p737db47896)">
     <use xlink:href="#m60a2c27c5b" x="94.744787" y="503.711099" style="fill: #ff7f0e; stroke: #ff7f0e"/>
     <use xlink:href="#m60a2c27c5b" x="109.540415" y="404.01777" style="fill: #ff7f0e; stroke: #ff7f0e"/>
     <use xlink:href="#m60a2c27c5b" x="124.336042" y="406.395332" style="fill: #ff7f0e; stroke: #ff7f0e"/>
     <use xlink:href="#m60a2c27c5b" x="139.13167" y="428.045632" style="fill: #ff7f0e; stroke: #ff7f0e"/>
     <use xlink:href="#m60a2c27c5b" x="153.927298" y="406.395332" style="fill: #ff7f0e; stroke: #ff7f0e"/>
     <use xlink:href="#m60a2c27c5b" x="168.722926" y="428.045632" style="fill: #ff7f0e; stroke: #ff7f0e"/>
     <use xlink:href="#m60a2c27c5b" x="183.518554" y="428.045632" style="fill: #ff7f0e; stroke: #ff7f0e"/>
     <use xlink:href="#m60a2c27c5b" x="198.314181" y="406.395332" style="fill: #ff7f0e; stroke: #ff7f0e"/>
     <use xlink:href="#m60a2c27c5b" x="213.109809" y="428.045632" style="fill: #ff7f0e; stroke: #ff7f0e"/>
     <use xlink:href="#m60a2c27c5b" x="227.905437" y="404.01777" style="fill: #ff7f0e; stroke: #ff7f0e"/>
     <use xlink:href="#m60a2c27c5b" x="242.701065" y="428.045632" style="fill: #ff7f0e; stroke: #ff7f0e"/>
     <use xlink:href="#m60a2c27c5b" x="257.496692" y="406.395332" style="fill: #ff7f0e; stroke: #ff7f0e"/>
     <use xlink:href="#m60a2c27c5b" x="272.29232" y="404.01777" style="fill: #ff7f0e; stroke: #ff7f0e"/>
     <use xlink:href="#m60a2c27c5b" x="287.087948" y="404.01777" style="fill: #ff7f0e; stroke: #ff7f0e"/>
     <use xlink:href="#m60a2c27c5b" x="301.883576" y="428.045632" style="fill: #ff7f0e; stroke: #ff7f0e"/>
     <use xlink:href="#m60a2c27c5b" x="316.679204" y="406.395332" style="fill: #ff7f0e; stroke: #ff7f0e"/>
     <use xlink:href="#m60a2c27c5b" x="346.270459" y="406.395332" style="fill: #ff7f0e; stroke: #ff7f0e"/>
     <use xlink:href="#m60a2c27c5b" x="361.066087" y="406.395332" style="fill: #ff7f0e; stroke: #ff7f0e"/>
     <use xlink:href="#m60a2c27c5b" x="375.861715" y="428.045632" style="fill: #ff7f0e; stroke: #ff7f0e"/>
     <use xlink:href="#m60a2c27c5b" x="390.657342" y="404.01777" style="fill: #ff7f0e; stroke: #ff7f0e"/>
     <use xlink:href="#m60a2c27c5b" x="405.45297" y="406.395332" style="fill: #ff7f0e; stroke: #ff7f0e"/>
     <use xlink:href="#m60a2c27c5b" x="420.248598" y="406.395332" style="fill: #ff7f0e; stroke: #ff7f0e"/>
     <use xlink:href="#m60a2c27c5b" x="435.044226" y="406.395332" style="fill: #ff7f0e; stroke: #ff7f0e"/>
     <use xlink:href="#m60a2c27c5b" x="449.839853" y="404.01777" style="fill: #ff7f0e; stroke: #ff7f0e"/>
     <use xlink:href="#m60a2c27c5b" x="464.635481" y="406.395332" style="fill: #ff7f0e; stroke: #ff7f0e"/>
     <use xlink:href="#m60a2c27c5b" x="479.431109" y="46.813736" style="fill: #ff7f0e; stroke: #ff7f0e"/>
     <use xlink:href="#m60a2c27c5b" x="509.022365" y="428.045632" style="fill: #ff7f0e; stroke: #ff7f0e"/>
     <use xlink:href="#m60a2c27c5b" x="523.817992" y="428.045632" style="fill: #ff7f0e; stroke: #ff7f0e"/>
     <use xlink:href="#m60a2c27c5b" x="538.61362" y="406.395332" style="fill: #ff7f0e; stroke: #ff7f0e"/>
     <use xlink:href="#m60a2c27c5b" x="553.409248" y="404.01777" style="fill: #ff7f0e; stroke: #ff7f0e"/>
     <use xlink:href="#m60a2c27c5b" x="568.204876" y="404.01777" style="fill: #ff7f0e; stroke: #ff7f0e"/>
     <use xlink:href="#m60a2c27c5b" x="583.000503" y="404.01777" style="fill: #ff7f0e; stroke: #ff7f0e"/>
     <use xlink:href="#m60a2c27c5b" x="597.796131" y="406.395332" style="fill: #ff7f0e; stroke: #ff7f0e"/>
     <use xlink:href="#m60a2c27c5b" x="612.591759" y="404.01777" style="fill: #ff7f0e; stroke: #ff7f0e"/>
     <use xlink:href="#m60a2c27c5b" x="642.183014" y="404.01777" style="fill: #ff7f0e; stroke: #ff7f0e"/>
     <use xlink:href="#m60a2c27c5b" x="656.978642" y="428.045632" style="fill: #ff7f0e; stroke: #ff7f0e"/>
     <use xlink:href="#m60a2c27c5b" x="671.77427" y="406.395332" style="fill: #ff7f0e; stroke: #ff7f0e"/>
     <use xlink:href="#m60a2c27c5b" x="686.569898" y="406.395332" style="fill: #ff7f0e; stroke: #ff7f0e"/>
     <use xlink:href="#m60a2c27c5b" x="701.365526" y="406.395332" style="fill: #ff7f0e; stroke: #ff7f0e"/>
    </g>
   </g>
   <g id="patch_3">
    <path d="M 64.41375 529.308125 
L 64.41375 23.837812 
" style="fill: none; stroke: #000000; stroke-width: 0.8; stroke-linejoin: miter; stroke-linecap: square"/>
   </g>
   <g id="patch_4">
    <path d="M 731.696562 529.308125 
L 731.696562 23.837812 
" style="fill: none; stroke: #000000; stroke-width: 0.8; stroke-linejoin: miter; stroke-linecap: square"/>
   </g>
   <g id="patch_5">
    <path d="M 64.41375 529.308125 
L 731.696562 529.308125 
" style="fill: none; stroke: #000000; stroke-width: 0.8; stroke-linejoin: miter; stroke-linecap: square"/>
   </g>
   <g id="patch_6">
    <path d="M 64.41375 23.837812 
L 731.696562 23.837812 
" style="fill: none; stroke: #000000; stroke-width: 0.8; stroke-linejoin: miter; stroke-linecap: square"/>
   </g>
   <g id="text_11">
    <text style="font: 700 14px 'DejaVu Sans', 'Bitstream Vera Sans', 'Computer Modern Sans Serif', 'Lucida Grande', 'Verdana', 'Geneva', 'Lucid', 'Arial', 'Helvetica', 'Avant Garde', sans-serif; text-anchor: middle" x="398.055156" y="17.837813" transform="rotate(-0 398.055156 17.837813)">Ts Thread Local Single Thread - Performance Trend</text>
   </g>
   <g id="legend_1">
    <g id="patch_7">
     <path d="M 772.060703 61.194063 
L 847.484141 61.194063 
Q 849.484141 61.194063 849.484141 59.194063 
L 849.484141 30.837813 
Q 849.484141 28.837813 847.484141 28.837813 
L 772.060703 28.837813 
Q 770.060703 28.837813 770.060703 30.837813 
L 770.060703 59.194063 
Q 770.060703 61.194063 772.060703 61.194063 
z
" style="fill: #ffffff; opacity: 0.8; stroke: #cccccc; stroke-linejoin: miter"/>
    </g>
    <g id="line2d_16">
     <path d="M 774.060703 36.93625 
L 784.060703 36.93625 
L 794.060703 36.93625 
" style="fill: none; stroke: #1f77b4; stroke-width: 2; stroke-linecap: square"/>
     <g>
      <use xlink:href="#meb3f117f3e" x="784.060703" y="36.93625" style="fill: #1f77b4; stroke: #1f77b4"/>
     </g>
    </g>
    <g id="text_12">
     <text style="font: 10px 'DejaVu Sans', 'Bitstream Vera Sans', 'Computer Modern Sans Serif', 'Lucida Grande', 'Verdana', 'Geneva', 'Lucid', 'Arial', 'Helvetica', 'Avant Garde', sans-serif; text-anchor: start" x="802.060703" y="40.43625" transform="rotate(-0 802.060703 40.43625)">clang-18</text>
    </g>
    <g id="line2d_17">
     <path d="M 774.060703 51.614375 
L 784.060703 51.614375 
L 794.060703 51.614375 
" style="fill: none; stroke: #ff7f0e; stroke-width: 2; stroke-linecap: square"/>
     <g>
      <use xlink:href="#m60a2c27c5b" x="784.060703" y="51.614375" style="fill: #ff7f0e; stroke: #ff7f0e"/>
     </g>
    </g>
    <g id="text_13">
     <text style="font: 10px 'DejaVu Sans', 'Bitstream Vera Sans', 'Computer Modern Sans Serif', 'Lucida Grande', 'Verdana', 'Geneva', 'Lucid', 'Arial', 'Helvetica', 'Avant Garde', sans-serif; text-anchor: start" x="802.060703" y="55.114375" transform="rotate(-0 802.060703 55.114375)">gcc-14</text>
    </g>
   </g>
  </g>
 </g>
 <defs>
  <clipPath id="p737db47896">
   <rect x="64.41375" y="23.837813" width="667.282812" height="505.470313"/>
  </clipPath>
 </defs>
</svg>
