<?xml version="1.0" encoding="utf-8" standalone="no"?>
<!DOCTYPE svg PUBLIC "-//W3C//DTD SVG 1.1//EN"
  "http://www.w3.org/Graphics/SVG/1.1/DTD/svg11.dtd">
<svg xmlns:xlink="http://www.w3.org/1999/xlink" width="849.994062pt" height="568.8pt" viewBox="0 0 849.994062 568.8" xmlns="http://www.w3.org/2000/svg" version="1.1">
 <metadata>
  <rdf:RDF xmlns:dc="http://purl.org/dc/elements/1.1/" xmlns:cc="http://creativecommons.org/ns#" xmlns:rdf="http://www.w3.org/1999/02/22-rdf-syntax-ns#">
   <cc:Work>
    <dc:type rdf:resource="http://purl.org/dc/dcmitype/StillImage"/>
    <dc:date>2025-11-22T20:17:45.360474</dc:date>
    <dc:format>image/svg+xml</dc:format>
    <dc:creator>
     <cc:Agent>
      <dc:title>Matplotlib v3.9.4, https://matplotlib.org/</dc:title>
     </cc:Agent>
    </dc:creator>
   </cc:Work>
  </rdf:RDF>
 </metadata>
 <defs>
  <style type="text/css">*{stroke-linejoin: round; stroke-linecap: butt}</style>
 </defs>
 <g id="figure_1">
  <g id="patch_1">
   <path d="M 0 568.8 
L 849.994062 568.8 
L 849.994062 0 
L 0 0 
z
" style="fill: #ffffff"/>
  </g>
  <g id="axes_1">
   <g id="patch_2">
    <path d="M 64.41375 529.308125 
L 597.895 529.308125 
L 597.895 23.837812 
L 64.41375 23.837812 
z
" style="fill: #ffffff"/>
   </g>
   <g id="matplotlib.axis_1">
    <g id="xtick_1">
     <g id="line2d_1">
      <path d="M 70.009707 529.308125 
L 70.009707 23.837812 
" clip-path="url(#p402f163483)" style="fill: none; stroke: #b0b0b0; stroke-opacity: 0.3; stroke-width: 0.8; stroke-linecap: square"/>
     </g>
     <g id="line2d_2">
      <defs>
       <path id="m8e51d859b8" d="M 0 0 
L 0 3.5 
" style="stroke: #000000; stroke-width: 0.8"/>
      </defs>
      <g>
       <use xlink:href="#m8e51d859b8" x="70.009707" y="529.308125" style="stroke: #000000; stroke-width: 0.8"/>
      </g>
     </g>
     <g id="text_1">
      <text style="font: 10px 'DejaVu Sans', 'Bitstream Vera Sans', 'Computer Modern Sans Serif', 'Lucida Grande', 'Verdana', 'Geneva', 'Lucid', 'Arial', 'Helvetica', 'Avant Garde', sans-serif; text-anchor: middle" x="70.009707" y="543.906563" transform="rotate(-0 70.009707 543.906563)">95</text>
     </g>
    </g>
    <g id="xtick_2">
     <g id="line2d_3">
      <path d="M 163.27566 529.308125 
L 163.27566 23.837812 
" clip-path="url(#p402f163483)" style="fill: none; stroke: #b0b0b0; stroke-opacity: 0.3; stroke-width: 0.8; stroke-linecap: square"/>
     </g>
     <g id="line2d_4">
      <g>
       <use xlink:href="#m8e51d859b8" x="163.27566" y="529.308125" style="stroke: #000000; stroke-width: 0.8"/>
      </g>
     </g>
     <g id="text_2">
      <text style="font: 10px 'DejaVu Sans', 'Bitstream Vera Sans', 'Computer Modern Sans Serif', 'Lucida Grande', 'Verdana', 'Geneva', 'Lucid', 'Arial', 'Helvetica', 'Avant Garde', sans-serif; text-anchor: middle" x="163.27566" y="543.906563" transform="rotate(-0 163.27566 543.906563)">100</text>
     </g>
    </g>
    <g id="xtick_3">
     <g id="line2d_5">
      <path d="M 256.541613 529.308125 
L 256.541613 23.837812 
" clip-path="url(#p402f163483)" style="fill: none; stroke: #b0b0b0; stroke-opacity: 0.3; stroke-width: 0.8; stroke-linecap: square"/>
     </g>
     <g id="line2d_6">
      <g>
       <use xlink:href="#m8e51d859b8" x="256.541613" y="529.308125" style="stroke: #000000; stroke-width: 0.8"/>
      </g>
     </g>
     <g id="text_3">
      <text style="font: 10px 'DejaVu Sans', 'Bitstream Vera Sans', 'Computer Modern Sans Serif', 'Lucida Grande', 'Verdana', 'Geneva', 'Lucid', 'Arial', 'Helvetica', 'Avant Garde', sans-serif; text-anchor: middle" x="256.541613" y="543.906563" transform="rotate(-0 256.541613 543.906563)">105</text>
     </g>
    </g>
    <g id="xtick_4">
     <g id="line2d_7">
      <path d="M 349.807566 529.308125 
L 349.807566 23.837812 
" clip-path="url(#p402f163483)" style="fill: none; stroke: #b0b0b0; stroke-opacity: 0.3; stroke-width: 0.8; stroke-linecap: square"/>
     </g>
     <g id="line2d_8">
      <g>
       <use xlink:href="#m8e51d859b8" x="349.807566" y="529.308125" style="stroke: #000000; stroke-width: 0.8"/>
      </g>
     </g>
     <g id="text_4">
      <text style="font: 10px 'DejaVu Sans', 'Bitstream Vera Sans', 'Computer Modern Sans Serif', 'Lucida Grande', 'Verdana', 'Geneva', 'Lucid', 'Arial', 'Helvetica', 'Avant Garde', sans-serif; text-anchor: middle" x="349.807566" y="543.906563" transform="rotate(-0 349.807566 543.906563)">110</text>
     </g>
    </g>
    <g id="xtick_5">
     <g id="line2d_9">
      <path d="M 443.073518 529.308125 
L 443.073518 23.837812 
" clip-path="url(#p402f163483)" style="fill: none; stroke: #b0b0b0; stroke-opacity: 0.3; stroke-width: 0.8; stroke-linecap: square"/>
     </g>
     <g id="line2d_10">
      <g>
       <use xlink:href="#m8e51d859b8" x="443.073518" y="529.308125" style="stroke: #000000; stroke-width: 0.8"/>
      </g>
     </g>
     <g id="text_5">
      <text style="font: 10px 'DejaVu Sans', 'Bitstream Vera Sans', 'Computer Modern Sans Serif', 'Lucida Grande', 'Verdana', 'Geneva', 'Lucid', 'Arial', 'Helvetica', 'Avant Garde', sans-serif; text-anchor: middle" x="443.073518" y="543.906563" transform="rotate(-0 443.073518 543.906563)">115</text>
     </g>
    </g>
    <g id="xtick_6">
     <g id="line2d_11">
      <path d="M 536.339471 529.308125 
L 536.339471 23.837812 
" clip-path="url(#p402f163483)" style="fill: none; stroke: #b0b0b0; stroke-opacity: 0.3; stroke-width: 0.8; stroke-linecap: square"/>
     </g>
     <g id="line2d_12">
      <g>
       <use xlink:href="#m8e51d859b8" x="536.339471" y="529.308125" style="stroke: #000000; stroke-width: 0.8"/>
      </g>
     </g>
     <g id="text_6">
      <text style="font: 10px 'DejaVu Sans', 'Bitstream Vera Sans', 'Computer Modern Sans Serif', 'Lucida Grande', 'Verdana', 'Geneva', 'Lucid', 'Arial', 'Helvetica', 'Avant Garde', sans-serif; text-anchor: middle" x="536.339471" y="543.906563" transform="rotate(-0 536.339471 543.906563)">120</text>
     </g>
    </g>
    <g id="text_7">
     <text style="font: 12px 'DejaVu Sans', 'Bitstream Vera Sans', 'Computer Modern Sans Serif', 'Lucida Grande', 'Verdana', 'Geneva', 'Lucid', 'Arial', 'Helvetica', 'Avant Garde', sans-serif; text-anchor: middle" x="331.154375" y="559.104375" transform="rotate(-0 331.154375 559.104375)">Build Number</text>
    </g>
   </g>
   <g id="matplotlib.axis_2">
    <g id="ytick_1">
     <g id="line2d_13">
      <defs>
       <path id="md8d62102cb" d="M 0 0 
L -2 0 
" style="stroke: #000000; stroke-width: 0.6"/>
      </defs>
      <g>
       <use xlink:href="#md8d62102cb" x="64.41375" y="314.369656" style="stroke: #000000; stroke-width: 0.6"/>
      </g>
     </g>
     <g id="text_8">
      <!-- $\mathdefault{2\times10^{5}}$ -->
      <g transform="translate(22.81375 318.168874)">
       <text>
        <tspan style="font: 10px 'DejaVu Sans'" x="0 8.310547 18.637695 25" y="-0.06406250000000036">2×10</tspan>
        <tspan style="font: 7px 'DejaVu Sans'" x="31.458008" y="-3.8921875000000004">5</tspan>
       </text>
      </g>
     </g>
    </g>
    <g id="ytick_2">
     <g id="line2d_14">
      <g>
       <use xlink:href="#md8d62102cb" x="64.41375" y="185.624887" style="stroke: #000000; stroke-width: 0.6"/>
      </g>
     </g>
     <g id="text_9">
      <!-- $\mathdefault{3\times10^{5}}$ -->
      <g transform="translate(22.81375 189.424106)">
       <text>
        <tspan style="font: 10px 'DejaVu Sans'" x="0 8.310547 18.637695 25" y="-0.06406250000000036">3×10</tspan>
        <tspan style="font: 7px 'DejaVu Sans'" x="31.458008" y="-3.8921875000000004">5</tspan>
       </text>
      </g>
     </g>
    </g>
    <g id="ytick_3">
     <g id="line2d_15">
      <g>
       <use xlink:href="#md8d62102cb" x="64.41375" y="94.27902" style="stroke: #000000; stroke-width: 0.6"/>
      </g>
     </g>
     <g id="text_10">
      <!-- $\mathdefault{4\times10^{5}}$ -->
      <g transform="translate(22.81375 98.078239)">
       <text>
        <tspan style="font: 10px 'DejaVu Sans'" x="0 8.310547 18.637695 25" y="-0.06406250000000036">4×10</tspan>
        <tspan style="font: 7px 'DejaVu Sans'" x="31.458008" y="-3.8921875000000004">5</tspan>
       </text>
      </g>
     </g>
    </g>
    <g id="text_11">
     <text style="font: 12px 'DejaVu Sans', 'Bitstream Vera Sans', 'Computer Modern Sans Serif', 'Lucida Grande', 'Verdana', 'Geneva', 'Lucid', 'Arial', 'Helvetica', 'Avant Garde', sans-serif; text-anchor: middle" x="16.318125" y="276.572969" transform="rotate(-90 16.318125 276.572969)">Median Elapsed Time (nanoseconds)</text>
    </g>
   </g>
   <g id="line2d_16">
    <path d="M 88.662898 403.795663 
L 107.316088 400.789346 
L 144.622469 430.223753 
L 163.27566 390.224096 
L 181.928851 401.339227 
L 200.582041 396.160192 
L 219.235232 399.660241 
L 237.888422 392.462093 
L 256.541613 404.361318 
L 275.194803 391.302079 
L 312.501184 396.682561 
L 331.154375 387.820835 
L 349.807566 394.856482 
L 368.460756 386.530726 
L 387.113947 407.943233 
L 424.420328 393.236916 
L 443.073518 403.094942 
L 461.726709 389.561917 
L 480.379899 395.277758 
L 499.03309 394.464572 
L 517.686281 410.229408 
L 536.339471 388.223457 
L 554.992662 372.684225 
L 573.645852 204.55929 
" clip-path="url(#p402f163483)" style="fill: none; stroke: #1f77b4; stroke-width: 2; stroke-linecap: square"/>
    <defs>
     <path id="m1cc049a7aa" d="M 0 3 
C 0.795609 3 1.55874 2.683901 2.12132 2.12132 
C 2.683901 1.55874 3 0.795609 3 0 
C 3 -0.795609 2.683901 -1.55874 2.12132 -2.12132 
C 1.55874 -2.683901 0.795609 -3 0 -3 
C -0.795609 -3 -1.55874 -2.683901 -2.12132 -2.12132 
C -2.683901 -1.55874 -3 -0.795609 -3 0 
C -3 0.795609 -2.683901 1.55874 -2.12132 2.12132 
C -1.55874 2.683901 -0.795609 3 0 3 
z
" style="stroke: #1f77b4"/>
    </defs>
    <g clip-path="url(#p402f163483)">
     <use xlink:href="#m1cc049a7aa" x="88.662898" y="403.795663" style="fill: #1f77b4; stroke: #1f77b4"/>
     <use xlink:href="#m1cc049a7aa" x="107.316088" y="400.789346" style="fill: #1f77b4; stroke: #1f77b4"/>
     <use xlink:href="#m1cc049a7aa" x="144.622469" y="430.223753" style="fill: #1f77b4; stroke: #1f77b4"/>
     <use xlink:href="#m1cc049a7aa" x="163.27566" y="390.224096" style="fill: #1f77b4; stroke: #1f77b4"/>
     <use xlink:href="#m1cc049a7aa" x="181.928851" y="401.339227" style="fill: #1f77b4; stroke: #1f77b4"/>
     <use xlink:href="#m1cc049a7aa" x="200.582041" y="396.160192" style="fill: #1f77b4; stroke: #1f77b4"/>
     <use xlink:href="#m1cc049a7aa" x="219.235232" y="399.660241" style="fill: #1f77b4; stroke: #1f77b4"/>
     <use xlink:href="#m1cc049a7aa" x="237.888422" y="392.462093" style="fill: #1f77b4; stroke: #1f77b4"/>
     <use xlink:href="#m1cc049a7aa" x="256.541613" y="404.361318" style="fill: #1f77b4; stroke: #1f77b4"/>
     <use xlink:href="#m1cc049a7aa" x="275.194803" y="391.302079" style="fill: #1f77b4; stroke: #1f77b4"/>
     <use xlink:href="#m1cc049a7aa" x="312.501184" y="396.682561" style="fill: #1f77b4; stroke: #1f77b4"/>
     <use xlink:href="#m1cc049a7aa" x="331.154375" y="387.820835" style="fill: #1f77b4; stroke: #1f77b4"/>
     <use xlink:href="#m1cc049a7aa" x="349.807566" y="394.856482" style="fill: #1f77b4; stroke: #1f77b4"/>
     <use xlink:href="#m1cc049a7aa" x="368.460756" y="386.530726" style="fill: #1f77b4; stroke: #1f77b4"/>
     <use xlink:href="#m1cc049a7aa" x="387.113947" y="407.943233" style="fill: #1f77b4; stroke: #1f77b4"/>
     <use xlink:href="#m1cc049a7aa" x="424.420328" y="393.236916" style="fill: #1f77b4; stroke: #1f77b4"/>
     <use xlink:href="#m1cc049a7aa" x="443.073518" y="403.094942" style="fill: #1f77b4; stroke: #1f77b4"/>
     <use xlink:href="#m1cc049a7aa" x="461.726709" y="389.561917" style="fill: #1f77b4; stroke: #1f77b4"/>
     <use xlink:href="#m1cc049a7aa" x="480.379899" y="395.277758" style="fill: #1f77b4; stroke: #1f77b4"/>
     <use xlink:href="#m1cc049a7aa" x="499.03309" y="394.464572" style="fill: #1f77b4; stroke: #1f77b4"/>
     <use xlink:href="#m1cc049a7aa" x="517.686281" y="410.229408" style="fill: #1f77b4; stroke: #1f77b4"/>
     <use xlink:href="#m1cc049a7aa" x="536.339471" y="388.223457" style="fill: #1f77b4; stroke: #1f77b4"/>
     <use xlink:href="#m1cc049a7aa" x="554.992662" y="372.684225" style="fill: #1f77b4; stroke: #1f77b4"/>
     <use xlink:href="#m1cc049a7aa" x="573.645852" y="204.55929" style="fill: #1f77b4; stroke: #1f77b4"/>
    </g>
   </g>
   <g id="line2d_17">
    <path d="M 88.662898 462.521588 
L 107.316088 474.44824 
L 144.622469 488.172749 
L 163.27566 487.421305 
L 181.928851 462.36442 
L 200.582041 461.806985 
L 219.235232 468.375247 
L 237.888422 464.804346 
L 256.541613 465.156093 
L 275.194803 459.555379 
L 312.501184 463.282969 
L 331.154375 450.498051 
L 349.807566 457.706371 
L 368.460756 487.035204 
L 387.113947 469.277434 
L 424.420328 450.335515 
L 443.073518 506.332202 
L 461.726709 457.725321 
L 480.379899 473.10095 
L 499.03309 461.263387 
L 517.686281 472.628031 
L 536.339471 487.535136 
L 554.992662 459.695606 
L 573.645852 288.528712 
" clip-path="url(#p402f163483)" style="fill: none; stroke: #ff7f0e; stroke-width: 2; stroke-linecap: square"/>
    <defs>
     <path id="mc9c3089824" d="M 0 3 
C 0.795609 3 1.55874 2.683901 2.12132 2.12132 
C 2.683901 1.55874 3 0.795609 3 0 
C 3 -0.795609 2.683901 -1.55874 2.12132 -2.12132 
C 1.55874 -2.683901 0.795609 -3 0 -3 
C -0.795609 -3 -1.55874 -2.683901 -2.12132 -2.12132 
C -2.683901 -1.55874 -3 -0.795609 -3 0 
C -3 0.795609 -2.683901 1.55874 -2.12132 2.12132 
C -1.55874 2.683901 -0.795609 3 0 3 
z
" style="stroke: #ff7f0e"/>
    </defs>
    <g clip-path="url(#p402f163483)">
     <use xlink:href="#mc9c3089824" x="88.662898" y="462.521588" style="fill: #ff7f0e; stroke: #ff7f0e"/>
     <use xlink:href="#mc9c3089824" x="107.316088" y="474.44824" style="fill: #ff7f0e; stroke: #ff7f0e"/>
     <use xlink:href="#mc9c3089824" x="144.622469" y="488.172749" style="fill: #ff7f0e; stroke: #ff7f0e"/>
     <use xlink:href="#mc9c3089824" x="163.27566" y="487.421305" style="fill: #ff7f0e; stroke: #ff7f0e"/>
     <use xlink:href="#mc9c3089824" x="181.928851" y="462.36442" style="fill: #ff7f0e; stroke: #ff7f0e"/>
     <use xlink:href="#mc9c3089824" x="200.582041" y="461.806985" style="fill: #ff7f0e; stroke: #ff7f0e"/>
     <use xlink:href="#mc9c3089824" x="219.235232" y="468.375247" style="fill: #ff7f0e; stroke: #ff7f0e"/>
     <use xlink:href="#mc9c3089824" x="237.888422" y="464.804346" style="fill: #ff7f0e; stroke: #ff7f0e"/>
     <use xlink:href="#mc9c3089824" x="256.541613" y="465.156093" style="fill: #ff7f0e; stroke: #ff7f0e"/>
     <use xlink:href="#mc9c3089824" x="275.194803" y="459.555379" style="fill: #ff7f0e; stroke: #ff7f0e"/>
     <use xlink:href="#mc9c3089824" x="312.501184" y="463.282969" style="fill: #ff7f0e; stroke: #ff7f0e"/>
     <use xlink:href="#mc9c3089824" x="331.154375" y="450.498051" style="fill: #ff7f0e; stroke: #ff7f0e"/>
     <use xlink:href="#mc9c3089824" x="349.807566" y="457.706371" style="fill: #ff7f0e; stroke: #ff7f0e"/>
     <use xlink:href="#mc9c3089824" x="368.460756" y="487.035204" style="fill: #ff7f0e; stroke: #ff7f0e"/>
     <use xlink:href="#mc9c3089824" x="387.113947" y="469.277434" style="fill: #ff7f0e; stroke: #ff7f0e"/>
     <use xlink:href="#mc9c3089824" x="424.420328" y="450.335515" style="fill: #ff7f0e; stroke: #ff7f0e"/>
     <use xlink:href="#mc9c3089824" x="443.073518" y="506.332202" style="fill: #ff7f0e; stroke: #ff7f0e"/>
     <use xlink:href="#mc9c3089824" x="461.726709" y="457.725321" style="fill: #ff7f0e; stroke: #ff7f0e"/>
     <use xlink:href="#mc9c3089824" x="480.379899" y="473.10095" style="fill: #ff7f0e; stroke: #ff7f0e"/>
     <use xlink:href="#mc9c3089824" x="499.03309" y="461.263387" style="fill: #ff7f0e; stroke: #ff7f0e"/>
     <use xlink:href="#mc9c3089824" x="517.686281" y="472.628031" style="fill: #ff7f0e; stroke: #ff7f0e"/>
     <use xlink:href="#mc9c3089824" x="536.339471" y="487.535136" style="fill: #ff7f0e; stroke: #ff7f0e"/>
     <use xlink:href="#mc9c3089824" x="554.992662" y="459.695606" style="fill: #ff7f0e; stroke: #ff7f0e"/>
     <use xlink:href="#mc9c3089824" x="573.645852" y="288.528712" style="fill: #ff7f0e; stroke: #ff7f0e"/>
    </g>
   </g>
   <g id="line2d_18">
    <path d="M 88.662898 334.347938 
L 107.316088 306.154555 
L 144.622469 294.862701 
L 163.27566 272.259674 
L 181.928851 311.88982 
L 200.582041 296.47957 
L 219.235232 296.372143 
L 237.888422 306.228204 
L 256.541613 317.292857 
L 275.194803 287.146638 
L 312.501184 311.040313 
L 331.154375 279.292061 
L 349.807566 318.367736 
L 368.460756 270.730411 
L 387.113947 284.388417 
L 424.420328 284.402575 
L 443.073518 284.395351 
L 461.726709 308.502539 
L 480.379899 289.553372 
L 499.03309 298.266752 
L 517.686281 322.216412 
L 536.339471 270.914088 
L 554.992662 321.751821 
L 573.645852 99.178228 
" clip-path="url(#p402f163483)" style="fill: none; stroke: #2ca02c; stroke-width: 2; stroke-linecap: square"/>
    <defs>
     <path id="m0bf38c7bda" d="M 0 3 
C 0.795609 3 1.55874 2.683901 2.12132 2.12132 
C 2.683901 1.55874 3 0.795609 3 0 
C 3 -0.795609 2.683901 -1.55874 2.12132 -2.12132 
C 1.55874 -2.683901 0.795609 -3 0 -3 
C -0.795609 -3 -1.55874 -2.683901 -2.12132 -2.12132 
C -2.683901 -1.55874 -3 -0.795609 -3 0 
C -3 0.795609 -2.683901 1.55874 -2.12132 2.12132 
C -1.55874 2.683901 -0.795609 3 0 3 
z
" style="stroke: #2ca02c"/>
    </defs>
    <g clip-path="url(#p402f163483)">
     <use xlink:href="#m0bf38c7bda" x="88.662898" y="334.347938" style="fill: #2ca02c; stroke: #2ca02c"/>
     <use xlink:href="#m0bf38c7bda" x="107.316088" y="306.154555" style="fill: #2ca02c; stroke: #2ca02c"/>
     <use xlink:href="#m0bf38c7bda" x="144.622469" y="294.862701" style="fill: #2ca02c; stroke: #2ca02c"/>
     <use xlink:href="#m0bf38c7bda" x="163.27566" y="272.259674" style="fill: #2ca02c; stroke: #2ca02c"/>
     <use xlink:href="#m0bf38c7bda" x="181.928851" y="311.88982" style="fill: #2ca02c; stroke: #2ca02c"/>
     <use xlink:href="#m0bf38c7bda" x="200.582041" y="296.47957" style="fill: #2ca02c; stroke: #2ca02c"/>
     <use xlink:href="#m0bf38c7bda" x="219.235232" y="296.372143" style="fill: #2ca02c; stroke: #2ca02c"/>
     <use xlink:href="#m0bf38c7bda" x="237.888422" y="306.228204" style="fill: #2ca02c; stroke: #2ca02c"/>
     <use xlink:href="#m0bf38c7bda" x="256.541613" y="317.292857" style="fill: #2ca02c; stroke: #2ca02c"/>
     <use xlink:href="#m0bf38c7bda" x="275.194803" y="287.146638" style="fill: #2ca02c; stroke: #2ca02c"/>
     <use xlink:href="#m0bf38c7bda" x="312.501184" y="311.040313" style="fill: #2ca02c; stroke: #2ca02c"/>
     <use xlink:href="#m0bf38c7bda" x="331.154375" y="279.292061" style="fill: #2ca02c; stroke: #2ca02c"/>
     <use xlink:href="#m0bf38c7bda" x="349.807566" y="318.367736" style="fill: #2ca02c; stroke: #2ca02c"/>
     <use xlink:href="#m0bf38c7bda" x="368.460756" y="270.730411" style="fill: #2ca02c; stroke: #2ca02c"/>
     <use xlink:href="#m0bf38c7bda" x="387.113947" y="284.388417" style="fill: #2ca02c; stroke: #2ca02c"/>
     <use xlink:href="#m0bf38c7bda" x="424.420328" y="284.402575" style="fill: #2ca02c; stroke: #2ca02c"/>
     <use xlink:href="#m0bf38c7bda" x="443.073518" y="284.395351" style="fill: #2ca02c; stroke: #2ca02c"/>
     <use xlink:href="#m0bf38c7bda" x="461.726709" y="308.502539" style="fill: #2ca02c; stroke: #2ca02c"/>
     <use xlink:href="#m0bf38c7bda" x="480.379899" y="289.553372" style="fill: #2ca02c; stroke: #2ca02c"/>
     <use xlink:href="#m0bf38c7bda" x="499.03309" y="298.266752" style="fill: #2ca02c; stroke: #2ca02c"/>
     <use xlink:href="#m0bf38c7bda" x="517.686281" y="322.216412" style="fill: #2ca02c; stroke: #2ca02c"/>
     <use xlink:href="#m0bf38c7bda" x="536.339471" y="270.914088" style="fill: #2ca02c; stroke: #2ca02c"/>
     <use xlink:href="#m0bf38c7bda" x="554.992662" y="321.751821" style="fill: #2ca02c; stroke: #2ca02c"/>
     <use xlink:href="#m0bf38c7bda" x="573.645852" y="99.178228" style="fill: #2ca02c; stroke: #2ca02c"/>
    </g>
   </g>
   <g id="line2d_19">
    <path d="M 88.662898 396.04583 
L 107.316088 366.658358 
L 144.622469 400.143265 
L 163.27566 387.627214 
L 181.928851 382.388902 
L 200.582041 362.42402 
L 219.235232 365.625111 
L 237.888422 365.952531 
L 256.541613 385.315308 
L 275.194803 353.027331 
L 312.501184 385.401672 
L 331.154375 374.340335 
L 349.807566 379.769612 
L 368.460756 380.799315 
L 387.113947 361.420273 
L 424.420328 379.757128 
L 443.073518 394.877349 
L 461.726709 356.475535 
L 480.379899 377.305865 
L 499.03309 360.006441 
L 517.686281 388.519893 
L 536.339471 383.059138 
L 554.992662 389.6907 
L 573.645852 213.043216 
" clip-path="url(#p402f163483)" style="fill: none; stroke: #d62728; stroke-width: 2; stroke-linecap: square"/>
    <defs>
     <path id="m429fb88459" d="M 0 3 
C 0.795609 3 1.55874 2.683901 2.12132 2.12132 
C 2.683901 1.55874 3 0.795609 3 0 
C 3 -0.795609 2.683901 -1.55874 2.12132 -2.12132 
C 1.55874 -2.683901 0.795609 -3 0 -3 
C -0.795609 -3 -1.55874 -2.683901 -2.12132 -2.12132 
C -2.683901 -1.55874 -3 -0.795609 -3 0 
C -3 0.795609 -2.683901 1.55874 -2.12132 2.12132 
C -1.55874 2.683901 -0.795609 3 0 3 
z
" style="stroke: #d62728"/>
    </defs>
    <g clip-path="url(#p402f163483)">
     <use xlink:href="#m429fb88459" x="88.662898" y="396.04583" style="fill: #d62728; stroke: #d62728"/>
     <use xlink:href="#m429fb88459" x="107.316088" y="366.658358" style="fill: #d62728; stroke: #d62728"/>
     <use xlink:href="#m429fb88459" x="144.622469" y="400.143265" style="fill: #d62728; stroke: #d62728"/>
     <use xlink:href="#m429fb88459" x="163.27566" y="387.627214" style="fill: #d62728; stroke: #d62728"/>
     <use xlink:href="#m429fb88459" x="181.928851" y="382.388902" style="fill: #d62728; stroke: #d62728"/>
     <use xlink:href="#m429fb88459" x="200.582041" y="362.42402" style="fill: #d62728; stroke: #d62728"/>
     <use xlink:href="#m429fb88459" x="219.235232" y="365.625111" style="fill: #d62728; stroke: #d62728"/>
     <use xlink:href="#m429fb88459" x="237.888422" y="365.952531" style="fill: #d62728; stroke: #d62728"/>
     <use xlink:href="#m429fb88459" x="256.541613" y="385.315308" style="fill: #d62728; stroke: #d62728"/>
     <use xlink:href="#m429fb88459" x="275.194803" y="353.027331" style="fill: #d62728; stroke: #d62728"/>
     <use xlink:href="#m429fb88459" x="312.501184" y="385.401672" style="fill: #d62728; stroke: #d62728"/>
     <use xlink:href="#m429fb88459" x="331.154375" y="374.340335" style="fill: #d62728; stroke: #d62728"/>
     <use xlink:href="#m429fb88459" x="349.807566" y="379.769612" style="fill: #d62728; stroke: #d62728"/>
     <use xlink:href="#m429fb88459" x="368.460756" y="380.799315" style="fill: #d62728; stroke: #d62728"/>
     <use xlink:href="#m429fb88459" x="387.113947" y="361.420273" style="fill: #d62728; stroke: #d62728"/>
     <use xlink:href="#m429fb88459" x="424.420328" y="379.757128" style="fill: #d62728; stroke: #d62728"/>
     <use xlink:href="#m429fb88459" x="443.073518" y="394.877349" style="fill: #d62728; stroke: #d62728"/>
     <use xlink:href="#m429fb88459" x="461.726709" y="356.475535" style="fill: #d62728; stroke: #d62728"/>
     <use xlink:href="#m429fb88459" x="480.379899" y="377.305865" style="fill: #d62728; stroke: #d62728"/>
     <use xlink:href="#m429fb88459" x="499.03309" y="360.006441" style="fill: #d62728; stroke: #d62728"/>
     <use xlink:href="#m429fb88459" x="517.686281" y="388.519893" style="fill: #d62728; stroke: #d62728"/>
     <use xlink:href="#m429fb88459" x="536.339471" y="383.059138" style="fill: #d62728; stroke: #d62728"/>
     <use xlink:href="#m429fb88459" x="554.992662" y="389.6907" style="fill: #d62728; stroke: #d62728"/>
     <use xlink:href="#m429fb88459" x="573.645852" y="213.043216" style="fill: #d62728; stroke: #d62728"/>
    </g>
   </g>
   <g id="line2d_20">
    <path d="M 88.662898 429.00595 
L 107.316088 202.366497 
L 144.622469 411.123658 
L 163.27566 46.813736 
L 181.928851 405.772894 
L 200.582041 418.437656 
L 219.235232 395.31586 
L 237.888422 420.691997 
L 256.541613 385.516065 
L 275.194803 396.729886 
L 312.501184 412.200785 
L 331.154375 211.560501 
L 349.807566 394.026419 
L 387.113947 403.977927 
L 443.073518 213.113264 
L 461.726709 401.52301 
L 480.379899 390.959385 
L 499.03309 401.786759 
L 517.686281 402.702802 
L 536.339471 405.320134 
L 554.992662 213.209648 
L 573.645852 444.701637 
" clip-path="url(#p402f163483)" style="fill: none; stroke: #9467bd; stroke-width: 2; stroke-linecap: square"/>
    <defs>
     <path id="m52d940caa6" d="M 0 3 
C 0.795609 3 1.55874 2.683901 2.12132 2.12132 
C 2.683901 1.55874 3 0.795609 3 0 
C 3 -0.795609 2.683901 -1.55874 2.12132 -2.12132 
C 1.55874 -2.683901 0.795609 -3 0 -3 
C -0.795609 -3 -1.55874 -2.683901 -2.12132 -2.12132 
C -2.683901 -1.55874 -3 -0.795609 -3 0 
C -3 0.795609 -2.683901 1.55874 -2.12132 2.12132 
C -1.55874 2.683901 -0.795609 3 0 3 
z
" style="stroke: #9467bd"/>
    </defs>
    <g clip-path="url(#p402f163483)">
     <use xlink:href="#m52d940caa6" x="88.662898" y="429.00595" style="fill: #9467bd; stroke: #9467bd"/>
     <use xlink:href="#m52d940caa6" x="107.316088" y="202.366497" style="fill: #9467bd; stroke: #9467bd"/>
     <use xlink:href="#m52d940caa6" x="144.622469" y="411.123658" style="fill: #9467bd; stroke: #9467bd"/>
     <use xlink:href="#m52d940caa6" x="163.27566" y="46.813736" style="fill: #9467bd; stroke: #9467bd"/>
     <use xlink:href="#m52d940caa6" x="181.928851" y="405.772894" style="fill: #9467bd; stroke: #9467bd"/>
     <use xlink:href="#m52d940caa6" x="200.582041" y="418.437656" style="fill: #9467bd; stroke: #9467bd"/>
     <use xlink:href="#m52d940caa6" x="219.235232" y="395.31586" style="fill: #9467bd; stroke: #9467bd"/>
     <use xlink:href="#m52d940caa6" x="237.888422" y="420.691997" style="fill: #9467bd; stroke: #9467bd"/>
     <use xlink:href="#m52d940caa6" x="256.541613" y="385.516065" style="fill: #9467bd; stroke: #9467bd"/>
     <use xlink:href="#m52d940caa6" x="275.194803" y="396.729886" style="fill: #9467bd; stroke: #9467bd"/>
     <use xlink:href="#m52d940caa6" x="312.501184" y="412.200785" style="fill: #9467bd; stroke: #9467bd"/>
     <use xlink:href="#m52d940caa6" x="331.154375" y="211.560501" style="fill: #9467bd; stroke: #9467bd"/>
     <use xlink:href="#m52d940caa6" x="349.807566" y="394.026419" style="fill: #9467bd; stroke: #9467bd"/>
     <use xlink:href="#m52d940caa6" x="387.113947" y="403.977927" style="fill: #9467bd; stroke: #9467bd"/>
     <use xlink:href="#m52d940caa6" x="443.073518" y="213.113264" style="fill: #9467bd; stroke: #9467bd"/>
     <use xlink:href="#m52d940caa6" x="461.726709" y="401.52301" style="fill: #9467bd; stroke: #9467bd"/>
     <use xlink:href="#m52d940caa6" x="480.379899" y="390.959385" style="fill: #9467bd; stroke: #9467bd"/>
     <use xlink:href="#m52d940caa6" x="499.03309" y="401.786759" style="fill: #9467bd; stroke: #9467bd"/>
     <use xlink:href="#m52d940caa6" x="517.686281" y="402.702802" style="fill: #9467bd; stroke: #9467bd"/>
     <use xlink:href="#m52d940caa6" x="536.339471" y="405.320134" style="fill: #9467bd; stroke: #9467bd"/>
     <use xlink:href="#m52d940caa6" x="554.992662" y="213.209648" style="fill: #9467bd; stroke: #9467bd"/>
     <use xlink:href="#m52d940caa6" x="573.645852" y="444.701637" style="fill: #9467bd; stroke: #9467bd"/>
    </g>
   </g>
   <g id="line2d_21">
    <path d="M 88.662898 415.289072 
L 107.316088 425.800249 
L 144.622469 421.760241 
L 163.27566 144.806181 
L 181.928851 428.442889 
L 200.582041 431.49475 
L 219.235232 414.342353 
L 237.888422 465.900093 
L 256.541613 421.758682 
L 275.194803 419.22744 
L 312.501184 465.541324 
L 331.154375 407.577 
L 349.807566 451.356219 
L 387.113947 429.541943 
L 443.073518 464.88952 
L 461.726709 435.330785 
L 480.379899 419.982586 
L 499.03309 428.502308 
L 517.686281 424.435307 
L 536.339471 427.102986 
L 554.992662 412.297158 
L 573.645852 433.319448 
" clip-path="url(#p402f163483)" style="fill: none; stroke: #8c564b; stroke-width: 2; stroke-linecap: square"/>
    <defs>
     <path id="m1cd1bed072" d="M 0 3 
C 0.795609 3 1.55874 2.683901 2.12132 2.12132 
C 2.683901 1.55874 3 0.795609 3 0 
C 3 -0.795609 2.683901 -1.55874 2.12132 -2.12132 
C 1.55874 -2.683901 0.795609 -3 0 -3 
C -0.795609 -3 -1.55874 -2.683901 -2.12132 -2.12132 
C -2.683901 -1.55874 -3 -0.795609 -3 0 
C -3 0.795609 -2.683901 1.55874 -2.12132 2.12132 
C -1.55874 2.683901 -0.795609 3 0 3 
z
" style="stroke: #8c564b"/>
    </defs>
    <g clip-path="url(#p402f163483)">
     <use xlink:href="#m1cd1bed072" x="88.662898" y="415.289072" style="fill: #8c564b; stroke: #8c564b"/>
     <use xlink:href="#m1cd1bed072" x="107.316088" y="425.800249" style="fill: #8c564b; stroke: #8c564b"/>
     <use xlink:href="#m1cd1bed072" x="144.622469" y="421.760241" style="fill: #8c564b; stroke: #8c564b"/>
     <use xlink:href="#m1cd1bed072" x="163.27566" y="144.806181" style="fill: #8c564b; stroke: #8c564b"/>
     <use xlink:href="#m1cd1bed072" x="181.928851" y="428.442889" style="fill: #8c564b; stroke: #8c564b"/>
     <use xlink:href="#m1cd1bed072" x="200.582041" y="431.49475" style="fill: #8c564b; stroke: #8c564b"/>
     <use xlink:href="#m1cd1bed072" x="219.235232" y="414.342353" style="fill: #8c564b; stroke: #8c564b"/>
     <use xlink:href="#m1cd1bed072" x="237.888422" y="465.900093" style="fill: #8c564b; stroke: #8c564b"/>
     <use xlink:href="#m1cd1bed072" x="256.541613" y="421.758682" style="fill: #8c564b; stroke: #8c564b"/>
     <use xlink:href="#m1cd1bed072" x="275.194803" y="419.22744" style="fill: #8c564b; stroke: #8c564b"/>
     <use xlink:href="#m1cd1bed072" x="312.501184" y="465.541324" style="fill: #8c564b; stroke: #8c564b"/>
     <use xlink:href="#m1cd1bed072" x="331.154375" y="407.577" style="fill: #8c564b; stroke: #8c564b"/>
     <use xlink:href="#m1cd1bed072" x="349.807566" y="451.356219" style="fill: #8c564b; stroke: #8c564b"/>
     <use xlink:href="#m1cd1bed072" x="387.113947" y="429.541943" style="fill: #8c564b; stroke: #8c564b"/>
     <use xlink:href="#m1cd1bed072" x="443.073518" y="464.88952" style="fill: #8c564b; stroke: #8c564b"/>
     <use xlink:href="#m1cd1bed072" x="461.726709" y="435.330785" style="fill: #8c564b; stroke: #8c564b"/>
     <use xlink:href="#m1cd1bed072" x="480.379899" y="419.982586" style="fill: #8c564b; stroke: #8c564b"/>
     <use xlink:href="#m1cd1bed072" x="499.03309" y="428.502308" style="fill: #8c564b; stroke: #8c564b"/>
     <use xlink:href="#m1cd1bed072" x="517.686281" y="424.435307" style="fill: #8c564b; stroke: #8c564b"/>
     <use xlink:href="#m1cd1bed072" x="536.339471" y="427.102986" style="fill: #8c564b; stroke: #8c564b"/>
     <use xlink:href="#m1cd1bed072" x="554.992662" y="412.297158" style="fill: #8c564b; stroke: #8c564b"/>
     <use xlink:href="#m1cd1bed072" x="573.645852" y="433.319448" style="fill: #8c564b; stroke: #8c564b"/>
    </g>
   </g>
   <g id="line2d_22">
    <path d="M 88.662898 407.058308 
L 107.316088 368.403564 
L 144.622469 390.731734 
L 163.27566 359.700842 
L 181.928851 367.343809 
L 200.582041 413.133887 
L 219.235232 394.821504 
L 237.888422 367.480402 
L 256.541613 397.250514 
L 275.194803 388.379757 
L 312.501184 371.565815 
L 331.154375 419.15727 
L 349.807566 371.92968 
L 387.113947 372.123671 
L 443.073518 371.374635 
L 461.726709 384.923691 
L 480.379899 370.529765 
L 499.03309 373.076496 
L 517.686281 412.169891 
L 536.339471 373.045364 
L 554.992662 411.568603 
L 573.645852 399.69721 
" clip-path="url(#p402f163483)" style="fill: none; stroke: #e377c2; stroke-width: 2; stroke-linecap: square"/>
    <defs>
     <path id="mafb36183ca" d="M 0 3 
C 0.795609 3 1.55874 2.683901 2.12132 2.12132 
C 2.683901 1.55874 3 0.795609 3 0 
C 3 -0.795609 2.683901 -1.55874 2.12132 -2.12132 
C 1.55874 -2.683901 0.795609 -3 0 -3 
C -0.795609 -3 -1.55874 -2.683901 -2.12132 -2.12132 
C -2.683901 -1.55874 -3 -0.795609 -3 0 
C -3 0.795609 -2.683901 1.55874 -2.12132 2.12132 
C -1.55874 2.683901 -0.795609 3 0 3 
z
" style="stroke: #e377c2"/>
    </defs>
    <g clip-path="url(#p402f163483)">
     <use xlink:href="#mafb36183ca" x="88.662898" y="407.058308" style="fill: #e377c2; stroke: #e377c2"/>
     <use xlink:href="#mafb36183ca" x="107.316088" y="368.403564" style="fill: #e377c2; stroke: #e377c2"/>
     <use xlink:href="#mafb36183ca" x="144.622469" y="390.731734" style="fill: #e377c2; stroke: #e377c2"/>
     <use xlink:href="#mafb36183ca" x="163.27566" y="359.700842" style="fill: #e377c2; stroke: #e377c2"/>
     <use xlink:href="#mafb36183ca" x="181.928851" y="367.343809" style="fill: #e377c2; stroke: #e377c2"/>
     <use xlink:href="#mafb36183ca" x="200.582041" y="413.133887" style="fill: #e377c2; stroke: #e377c2"/>
     <use xlink:href="#mafb36183ca" x="219.235232" y="394.821504" style="fill: #e377c2; stroke: #e377c2"/>
     <use xlink:href="#mafb36183ca" x="237.888422" y="367.480402" style="fill: #e377c2; stroke: #e377c2"/>
     <use xlink:href="#mafb36183ca" x="256.541613" y="397.250514" style="fill: #e377c2; stroke: #e377c2"/>
     <use xlink:href="#mafb36183ca" x="275.194803" y="388.379757" style="fill: #e377c2; stroke: #e377c2"/>
     <use xlink:href="#mafb36183ca" x="312.501184" y="371.565815" style="fill: #e377c2; stroke: #e377c2"/>
     <use xlink:href="#mafb36183ca" x="331.154375" y="419.15727" style="fill: #e377c2; stroke: #e377c2"/>
     <use xlink:href="#mafb36183ca" x="349.807566" y="371.92968" style="fill: #e377c2; stroke: #e377c2"/>
     <use xlink:href="#mafb36183ca" x="387.113947" y="372.123671" style="fill: #e377c2; stroke: #e377c2"/>
     <use xlink:href="#mafb36183ca" x="443.073518" y="371.374635" style="fill: #e377c2; stroke: #e377c2"/>
     <use xlink:href="#mafb36183ca" x="461.726709" y="384.923691" style="fill: #e377c2; stroke: #e377c2"/>
     <use xlink:href="#mafb36183ca" x="480.379899" y="370.529765" style="fill: #e377c2; stroke: #e377c2"/>
     <use xlink:href="#mafb36183ca" x="499.03309" y="373.076496" style="fill: #e377c2; stroke: #e377c2"/>
     <use xlink:href="#mafb36183ca" x="517.686281" y="412.169891" style="fill: #e377c2; stroke: #e377c2"/>
     <use xlink:href="#mafb36183ca" x="536.339471" y="373.045364" style="fill: #e377c2; stroke: #e377c2"/>
     <use xlink:href="#mafb36183ca" x="554.992662" y="411.568603" style="fill: #e377c2; stroke: #e377c2"/>
     <use xlink:href="#mafb36183ca" x="573.645852" y="399.69721" style="fill: #e377c2; stroke: #e377c2"/>
    </g>
   </g>
   <g id="line2d_23">
    <path d="M 88.662898 417.819334 
L 107.316088 377.198261 
L 144.622469 398.387409 
L 163.27566 374.49193 
L 181.928851 375.163117 
L 200.582041 421.937968 
L 219.235232 411.33194 
L 237.888422 385.042144 
L 256.541613 407.021959 
L 275.194803 397.915514 
L 312.501184 386.145171 
L 331.154375 424.933947 
L 349.807566 396.120345 
L 387.113947 394.328937 
L 443.073518 391.227616 
L 461.726709 402.520848 
L 480.379899 377.200002 
L 499.03309 374.770438 
L 517.686281 420.216112 
L 536.339471 382.102849 
L 554.992662 413.090646 
L 573.645852 402.769068 
" clip-path="url(#p402f163483)" style="fill: none; stroke: #7f7f7f; stroke-width: 2; stroke-linecap: square"/>
    <defs>
     <path id="m3a82aea756" d="M 0 3 
C 0.795609 3 1.55874 2.683901 2.12132 2.12132 
C 2.683901 1.55874 3 0.795609 3 0 
C 3 -0.795609 2.683901 -1.55874 2.12132 -2.12132 
C 1.55874 -2.683901 0.795609 -3 0 -3 
C -0.795609 -3 -1.55874 -2.683901 -2.12132 -2.12132 
C -2.683901 -1.55874 -3 -0.795609 -3 0 
C -3 0.795609 -2.683901 1.55874 -2.12132 2.12132 
C -1.55874 2.683901 -0.795609 3 0 3 
z
" style="stroke: #7f7f7f"/>
    </defs>
    <g clip-path="url(#p402f163483)">
     <use xlink:href="#m3a82aea756" x="88.662898" y="417.819334" style="fill: #7f7f7f; stroke: #7f7f7f"/>
     <use xlink:href="#m3a82aea756" x="107.316088" y="377.198261" style="fill: #7f7f7f; stroke: #7f7f7f"/>
     <use xlink:href="#m3a82aea756" x="144.622469" y="398.387409" style="fill: #7f7f7f; stroke: #7f7f7f"/>
     <use xlink:href="#m3a82aea756" x="163.27566" y="374.49193" style="fill: #7f7f7f; stroke: #7f7f7f"/>
     <use xlink:href="#m3a82aea756" x="181.928851" y="375.163117" style="fill: #7f7f7f; stroke: #7f7f7f"/>
     <use xlink:href="#m3a82aea756" x="200.582041" y="421.937968" style="fill: #7f7f7f; stroke: #7f7f7f"/>
     <use xlink:href="#m3a82aea756" x="219.235232" y="411.33194" style="fill: #7f7f7f; stroke: #7f7f7f"/>
     <use xlink:href="#m3a82aea756" x="237.888422" y="385.042144" style="fill: #7f7f7f; stroke: #7f7f7f"/>
     <use xlink:href="#m3a82aea756" x="256.541613" y="407.021959" style="fill: #7f7f7f; stroke: #7f7f7f"/>
     <use xlink:href="#m3a82aea756" x="275.194803" y="397.915514" style="fill: #7f7f7f; stroke: #7f7f7f"/>
     <use xlink:href="#m3a82aea756" x="312.501184" y="386.145171" style="fill: #7f7f7f; stroke: #7f7f7f"/>
     <use xlink:href="#m3a82aea756" x="331.154375" y="424.933947" style="fill: #7f7f7f; stroke: #7f7f7f"/>
     <use xlink:href="#m3a82aea756" x="349.807566" y="396.120345" style="fill: #7f7f7f; stroke: #7f7f7f"/>
     <use xlink:href="#m3a82aea756" x="387.113947" y="394.328937" style="fill: #7f7f7f; stroke: #7f7f7f"/>
     <use xlink:href="#m3a82aea756" x="443.073518" y="391.227616" style="fill: #7f7f7f; stroke: #7f7f7f"/>
     <use xlink:href="#m3a82aea756" x="461.726709" y="402.520848" style="fill: #7f7f7f; stroke: #7f7f7f"/>
     <use xlink:href="#m3a82aea756" x="480.379899" y="377.200002" style="fill: #7f7f7f; stroke: #7f7f7f"/>
     <use xlink:href="#m3a82aea756" x="499.03309" y="374.770438" style="fill: #7f7f7f; stroke: #7f7f7f"/>
     <use xlink:href="#m3a82aea756" x="517.686281" y="420.216112" style="fill: #7f7f7f; stroke: #7f7f7f"/>
     <use xlink:href="#m3a82aea756" x="536.339471" y="382.102849" style="fill: #7f7f7f; stroke: #7f7f7f"/>
     <use xlink:href="#m3a82aea756" x="554.992662" y="413.090646" style="fill: #7f7f7f; stroke: #7f7f7f"/>
     <use xlink:href="#m3a82aea756" x="573.645852" y="402.769068" style="fill: #7f7f7f; stroke: #7f7f7f"/>
    </g>
   </g>
   <g id="patch_3">
    <path d="M 64.41375 529.308125 
L 64.41375 23.837812 
" style="fill: none; stroke: #000000; stroke-width: 0.8; stroke-linejoin: miter; stroke-linecap: square"/>
   </g>
   <g id="patch_4">
    <path d="M 597.895 529.308125 
L 597.895 23.837812 
" style="fill: none; stroke: #000000; stroke-width: 0.8; stroke-linejoin: miter; stroke-linecap: square"/>
   </g>
   <g id="patch_5">
    <path d="M 64.41375 529.308125 
L 597.895 529.308125 
" style="fill: none; stroke: #000000; stroke-width: 0.8; stroke-linejoin: miter; stroke-linecap: square"/>
   </g>
   <g id="patch_6">
    <path d="M 64.41375 23.837812 
L 597.895 23.837812 
" style="fill: none; stroke: #000000; stroke-width: 0.8; stroke-linejoin: miter; stroke-linecap: square"/>
   </g>
   <g id="text_12">
    <text style="font: 700 14px 'DejaVu Sans', 'Bitstream Vera Sans', 'Computer Modern Sans Serif', 'Lucida Grande', 'Verdana', 'Geneva', 'Lucid', 'Arial', 'Helvetica', 'Avant Garde', sans-serif; text-anchor: middle" x="331.154375" y="17.837813" transform="rotate(-0 331.154375 17.837813)">Coroutine Submission - Performance Trend</text>
   </g>
   <g id="legend_1">
    <g id="patch_7">
     <path d="M 631.569062 151.487813 
L 840.794062 151.487813 
Q 842.794062 151.487813 842.794062 149.487813 
L 842.794062 30.837813 
Q 842.794062 28.837813 840.794062 28.837813 
L 631.569062 28.837813 
Q 629.569062 28.837813 629.569062 30.837813 
L 629.569062 149.487813 
Q 629.569062 151.487813 631.569062 151.487813 
z
" style="fill: #ffffff; opacity: 0.8; stroke: #cccccc; stroke-linejoin: miter"/>
    </g>
    <g id="line2d_24">
     <path d="M 633.569062 36.93625 
L 643.569062 36.93625 
L 653.569062 36.93625 
" style="fill: none; stroke: #1f77b4; stroke-width: 2; stroke-linecap: square"/>
     <g>
      <use xlink:href="#m1cc049a7aa" x="643.569062" y="36.93625" style="fill: #1f77b4; stroke: #1f77b4"/>
     </g>
    </g>
    <g id="text_13">
     <text style="font: 10px 'DejaVu Sans', 'Bitstream Vera Sans', 'Computer Modern Sans Serif', 'Lucida Grande', 'Verdana', 'Geneva', 'Lucid', 'Arial', 'Helvetica', 'Avant Garde', sans-serif; text-anchor: start" x="661.569062" y="40.43625" transform="rotate(-0 661.569062 40.43625)">gcc-14.2 - CoroutineSubmission_V1</text>
    </g>
    <g id="line2d_25">
     <path d="M 633.569062 51.8925 
L 643.569062 51.8925 
L 653.569062 51.8925 
" style="fill: none; stroke: #ff7f0e; stroke-width: 2; stroke-linecap: square"/>
     <g>
      <use xlink:href="#mc9c3089824" x="643.569062" y="51.8925" style="fill: #ff7f0e; stroke: #ff7f0e"/>
     </g>
    </g>
    <g id="text_14">
     <text style="font: 10px 'DejaVu Sans', 'Bitstream Vera Sans', 'Computer Modern Sans Serif', 'Lucida Grande', 'Verdana', 'Geneva', 'Lucid', 'Arial', 'Helvetica', 'Avant Garde', sans-serif; text-anchor: start" x="661.569062" y="55.3925" transform="rotate(-0 661.569062 55.3925)">gcc-14.2 - LambdaSubmission_V1</text>
    </g>
    <g id="line2d_26">
     <path d="M 633.569062 66.84875 
L 643.569062 66.84875 
L 653.569062 66.84875 
" style="fill: none; stroke: #2ca02c; stroke-width: 2; stroke-linecap: square"/>
     <g>
      <use xlink:href="#m0bf38c7bda" x="643.569062" y="66.84875" style="fill: #2ca02c; stroke: #2ca02c"/>
     </g>
    </g>
    <g id="text_15">
     <text style="font: 10px 'DejaVu Sans', 'Bitstream Vera Sans', 'Computer Modern Sans Serif', 'Lucida Grande', 'Verdana', 'Geneva', 'Lucid', 'Arial', 'Helvetica', 'Avant Garde', sans-serif; text-anchor: start" x="661.569062" y="70.34875" transform="rotate(-0 661.569062 70.34875)">gcc-14.2 - CoroutineSubmission_V2</text>
    </g>
    <g id="line2d_27">
     <path d="M 633.569062 81.805 
L 643.569062 81.805 
L 653.569062 81.805 
" style="fill: none; stroke: #d62728; stroke-width: 2; stroke-linecap: square"/>
     <g>
      <use xlink:href="#m429fb88459" x="643.569062" y="81.805" style="fill: #d62728; stroke: #d62728"/>
     </g>
    </g>
    <g id="text_16">
     <text style="font: 10px 'DejaVu Sans', 'Bitstream Vera Sans', 'Computer Modern Sans Serif', 'Lucida Grande', 'Verdana', 'Geneva', 'Lucid', 'Arial', 'Helvetica', 'Avant Garde', sans-serif; text-anchor: start" x="661.569062" y="85.305" transform="rotate(-0 661.569062 85.305)">gcc-14.2 - LambdaSubmission_V2</text>
    </g>
    <g id="line2d_28">
     <path d="M 633.569062 96.76125 
L 643.569062 96.76125 
L 653.569062 96.76125 
" style="fill: none; stroke: #9467bd; stroke-width: 2; stroke-linecap: square"/>
     <g>
      <use xlink:href="#m52d940caa6" x="643.569062" y="96.76125" style="fill: #9467bd; stroke: #9467bd"/>
     </g>
    </g>
    <g id="text_17">
     <text style="font: 10px 'DejaVu Sans', 'Bitstream Vera Sans', 'Computer Modern Sans Serif', 'Lucida Grande', 'Verdana', 'Geneva', 'Lucid', 'Arial', 'Helvetica', 'Avant Garde', sans-serif; text-anchor: start" x="661.569062" y="100.26125" transform="rotate(-0 661.569062 100.26125)">gcc-4.2 - CoroutineSubmission_V1</text>
    </g>
    <g id="line2d_29">
     <path d="M 633.569062 111.7175 
L 643.569062 111.7175 
L 653.569062 111.7175 
" style="fill: none; stroke: #8c564b; stroke-width: 2; stroke-linecap: square"/>
     <g>
      <use xlink:href="#m1cd1bed072" x="643.569062" y="111.7175" style="fill: #8c564b; stroke: #8c564b"/>
     </g>
    </g>
    <g id="text_18">
     <text style="font: 10px 'DejaVu Sans', 'Bitstream Vera Sans', 'Computer Modern Sans Serif', 'Lucida Grande', 'Verdana', 'Geneva', 'Lucid', 'Arial', 'Helvetica', 'Avant Garde', sans-serif; text-anchor: start" x="661.569062" y="115.2175" transform="rotate(-0 661.569062 115.2175)">gcc-4.2 - LambdaSubmission_V1</text>
    </g>
    <g id="line2d_30">
     <path d="M 633.569062 126.67375 
L 643.569062 126.67375 
L 653.569062 126.67375 
" style="fill: none; stroke: #e377c2; stroke-width: 2; stroke-linecap: square"/>
     <g>
      <use xlink:href="#mafb36183ca" x="643.569062" y="126.67375" style="fill: #e377c2; stroke: #e377c2"/>
     </g>
    </g>
    <g id="text_19">
     <text style="font: 10px 'DejaVu Sans', 'Bitstream Vera Sans', 'Computer Modern Sans Serif', 'Lucida Grande', 'Verdana', 'Geneva', 'Lucid', 'Arial', 'Helvetica', 'Avant Garde', sans-serif; text-anchor: start" x="661.569062" y="130.17375" transform="rotate(-0 661.569062 130.17375)">gcc-4.2 - CoroutineSubmission_V2</text>
    </g>
    <g id="line2d_31">
     <path d="M 633.569062 141.63 
L 643.569062 141.63 
L 653.569062 141.63 
" style="fill: none; stroke: #7f7f7f; stroke-width: 2; stroke-linecap: square"/>
     <g>
      <use xlink:href="#m3a82aea756" x="643.569062" y="141.63" style="fill: #7f7f7f; stroke: #7f7f7f"/>
     </g>
    </g>
    <g id="text_20">
     <text style="font: 10px 'DejaVu Sans', 'Bitstream Vera Sans', 'Computer Modern Sans Serif', 'Lucida Grande', 'Verdana', 'Geneva', 'Lucid', 'Arial', 'Helvetica', 'Avant Garde', sans-serif; text-anchor: start" x="661.569062" y="145.13" transform="rotate(-0 661.569062 145.13)">gcc-4.2 - LambdaSubmission_V2</text>
    </g>
   </g>
  </g>
 </g>
 <defs>
  <clipPath id="p402f163483">
   <rect x="64.41375" y="23.837813" width="533.48125" height="505.470313"/>
  </clipPath>
 </defs>
</svg>
