<?xml version="1.0" encoding="utf-8" standalone="no"?>
<!DOCTYPE svg PUBLIC "-//W3C//DTD SVG 1.1//EN"
  "http://www.w3.org/Graphics/SVG/1.1/DTD/svg11.dtd">
<svg xmlns:xlink="http://www.w3.org/1999/xlink" width="855.204687pt" height="568.8pt" viewBox="0 0 855.204687 568.8" xmlns="http://www.w3.org/2000/svg" version="1.1">
 <metadata>
  <rdf:RDF xmlns:dc="http://purl.org/dc/elements/1.1/" xmlns:cc="http://creativecommons.org/ns#" xmlns:rdf="http://www.w3.org/1999/02/22-rdf-syntax-ns#">
   <cc:Work>
    <dc:type rdf:resource="http://purl.org/dc/dcmitype/StillImage"/>
    <dc:date>2025-08-14T01:18:30.775559</dc:date>
    <dc:format>image/svg+xml</dc:format>
    <dc:creator>
     <cc:Agent>
      <dc:title>Matplotlib v3.9.4, https://matplotlib.org/</dc:title>
     </cc:Agent>
    </dc:creator>
   </cc:Work>
  </rdf:RDF>
 </metadata>
 <defs>
  <style type="text/css">*{stroke-linejoin: round; stroke-linecap: butt}</style>
 </defs>
 <g id="figure_1">
  <g id="patch_1">
   <path d="M 0 568.8 
L 855.204687 568.8 
L 855.204687 0 
L 0 0 
z
" style="fill: #ffffff"/>
  </g>
  <g id="axes_1">
   <g id="patch_2">
    <path d="M 64.41375 529.308125 
L 702.1075 529.308125 
L 702.1075 23.837812 
L 64.41375 23.837812 
z
" style="fill: #ffffff"/>
   </g>
   <g id="matplotlib.axis_1">
    <g id="xtick_1">
     <g id="line2d_1">
      <path d="M 141.709962 529.308125 
L 141.709962 23.837812 
" clip-path="url(#pfece07ec00)" style="fill: none; stroke: #b0b0b0; stroke-opacity: 0.3; stroke-width: 0.8; stroke-linecap: square"/>
     </g>
     <g id="line2d_2">
      <defs>
       <path id="ma5d686c57b" d="M 0 0 
L 0 3.5 
" style="stroke: #000000; stroke-width: 0.8"/>
      </defs>
      <g>
       <use xlink:href="#ma5d686c57b" x="141.709962" y="529.308125" style="stroke: #000000; stroke-width: 0.8"/>
      </g>
     </g>
     <g id="text_1">
      <text style="font: 10px 'DejaVu Sans', 'Bitstream Vera Sans', 'Computer Modern Sans Serif', 'Lucida Grande', 'Verdana', 'Geneva', 'Lucid', 'Arial', 'Helvetica', 'Avant Garde', sans-serif; text-anchor: middle" x="141.709962" y="543.906563" transform="rotate(-0 141.709962 543.906563)">72.5</text>
     </g>
    </g>
    <g id="xtick_2">
     <g id="line2d_3">
      <path d="M 222.22685 529.308125 
L 222.22685 23.837812 
" clip-path="url(#pfece07ec00)" style="fill: none; stroke: #b0b0b0; stroke-opacity: 0.3; stroke-width: 0.8; stroke-linecap: square"/>
     </g>
     <g id="line2d_4">
      <g>
       <use xlink:href="#ma5d686c57b" x="222.22685" y="529.308125" style="stroke: #000000; stroke-width: 0.8"/>
      </g>
     </g>
     <g id="text_2">
      <text style="font: 10px 'DejaVu Sans', 'Bitstream Vera Sans', 'Computer Modern Sans Serif', 'Lucida Grande', 'Verdana', 'Geneva', 'Lucid', 'Arial', 'Helvetica', 'Avant Garde', sans-serif; text-anchor: middle" x="222.22685" y="543.906563" transform="rotate(-0 222.22685 543.906563)">75.0</text>
     </g>
    </g>
    <g id="xtick_3">
     <g id="line2d_5">
      <path d="M 302.743737 529.308125 
L 302.743737 23.837812 
" clip-path="url(#pfece07ec00)" style="fill: none; stroke: #b0b0b0; stroke-opacity: 0.3; stroke-width: 0.8; stroke-linecap: square"/>
     </g>
     <g id="line2d_6">
      <g>
       <use xlink:href="#ma5d686c57b" x="302.743737" y="529.308125" style="stroke: #000000; stroke-width: 0.8"/>
      </g>
     </g>
     <g id="text_3">
      <text style="font: 10px 'DejaVu Sans', 'Bitstream Vera Sans', 'Computer Modern Sans Serif', 'Lucida Grande', 'Verdana', 'Geneva', 'Lucid', 'Arial', 'Helvetica', 'Avant Garde', sans-serif; text-anchor: middle" x="302.743737" y="543.906563" transform="rotate(-0 302.743737 543.906563)">77.5</text>
     </g>
    </g>
    <g id="xtick_4">
     <g id="line2d_7">
      <path d="M 383.260625 529.308125 
L 383.260625 23.837812 
" clip-path="url(#pfece07ec00)" style="fill: none; stroke: #b0b0b0; stroke-opacity: 0.3; stroke-width: 0.8; stroke-linecap: square"/>
     </g>
     <g id="line2d_8">
      <g>
       <use xlink:href="#ma5d686c57b" x="383.260625" y="529.308125" style="stroke: #000000; stroke-width: 0.8"/>
      </g>
     </g>
     <g id="text_4">
      <text style="font: 10px 'DejaVu Sans', 'Bitstream Vera Sans', 'Computer Modern Sans Serif', 'Lucida Grande', 'Verdana', 'Geneva', 'Lucid', 'Arial', 'Helvetica', 'Avant Garde', sans-serif; text-anchor: middle" x="383.260625" y="543.906563" transform="rotate(-0 383.260625 543.906563)">80.0</text>
     </g>
    </g>
    <g id="xtick_5">
     <g id="line2d_9">
      <path d="M 463.777513 529.308125 
L 463.777513 23.837812 
" clip-path="url(#pfece07ec00)" style="fill: none; stroke: #b0b0b0; stroke-opacity: 0.3; stroke-width: 0.8; stroke-linecap: square"/>
     </g>
     <g id="line2d_10">
      <g>
       <use xlink:href="#ma5d686c57b" x="463.777513" y="529.308125" style="stroke: #000000; stroke-width: 0.8"/>
      </g>
     </g>
     <g id="text_5">
      <text style="font: 10px 'DejaVu Sans', 'Bitstream Vera Sans', 'Computer Modern Sans Serif', 'Lucida Grande', 'Verdana', 'Geneva', 'Lucid', 'Arial', 'Helvetica', 'Avant Garde', sans-serif; text-anchor: middle" x="463.777513" y="543.906563" transform="rotate(-0 463.777513 543.906563)">82.5</text>
     </g>
    </g>
    <g id="xtick_6">
     <g id="line2d_11">
      <path d="M 544.2944 529.308125 
L 544.2944 23.837812 
" clip-path="url(#pfece07ec00)" style="fill: none; stroke: #b0b0b0; stroke-opacity: 0.3; stroke-width: 0.8; stroke-linecap: square"/>
     </g>
     <g id="line2d_12">
      <g>
       <use xlink:href="#ma5d686c57b" x="544.2944" y="529.308125" style="stroke: #000000; stroke-width: 0.8"/>
      </g>
     </g>
     <g id="text_6">
      <text style="font: 10px 'DejaVu Sans', 'Bitstream Vera Sans', 'Computer Modern Sans Serif', 'Lucida Grande', 'Verdana', 'Geneva', 'Lucid', 'Arial', 'Helvetica', 'Avant Garde', sans-serif; text-anchor: middle" x="544.2944" y="543.906563" transform="rotate(-0 544.2944 543.906563)">85.0</text>
     </g>
    </g>
    <g id="xtick_7">
     <g id="line2d_13">
      <path d="M 624.811288 529.308125 
L 624.811288 23.837812 
" clip-path="url(#pfece07ec00)" style="fill: none; stroke: #b0b0b0; stroke-opacity: 0.3; stroke-width: 0.8; stroke-linecap: square"/>
     </g>
     <g id="line2d_14">
      <g>
       <use xlink:href="#ma5d686c57b" x="624.811288" y="529.308125" style="stroke: #000000; stroke-width: 0.8"/>
      </g>
     </g>
     <g id="text_7">
      <text style="font: 10px 'DejaVu Sans', 'Bitstream Vera Sans', 'Computer Modern Sans Serif', 'Lucida Grande', 'Verdana', 'Geneva', 'Lucid', 'Arial', 'Helvetica', 'Avant Garde', sans-serif; text-anchor: middle" x="624.811288" y="543.906563" transform="rotate(-0 624.811288 543.906563)">87.5</text>
     </g>
    </g>
    <g id="text_8">
     <text style="font: 12px 'DejaVu Sans', 'Bitstream Vera Sans', 'Computer Modern Sans Serif', 'Lucida Grande', 'Verdana', 'Geneva', 'Lucid', 'Arial', 'Helvetica', 'Avant Garde', sans-serif; text-anchor: middle" x="383.260625" y="559.104375" transform="rotate(-0 383.260625 559.104375)">Build Number</text>
    </g>
   </g>
   <g id="matplotlib.axis_2">
    <g id="ytick_1">
     <g id="line2d_15">
      <path d="M 64.41375 348.809781 
L 702.1075 348.809781 
" clip-path="url(#pfece07ec00)" style="fill: none; stroke: #b0b0b0; stroke-opacity: 0.3; stroke-width: 0.8; stroke-linecap: square"/>
     </g>
     <g id="line2d_16">
      <defs>
       <path id="mb50ea6a1a8" d="M 0 0 
L -3.5 0 
" style="stroke: #000000; stroke-width: 0.8"/>
      </defs>
      <g>
       <use xlink:href="#mb50ea6a1a8" x="64.41375" y="348.809781" style="stroke: #000000; stroke-width: 0.8"/>
      </g>
     </g>
     <g id="text_9">
      <!-- $\mathdefault{10^{5}}$ -->
      <g transform="translate(39.81375 352.608999)">
       <text>
        <tspan style="font: 10px 'DejaVu Sans'" x="0 6.362305" y="-0.06406250000000036">10</tspan>
        <tspan style="font: 7px 'DejaVu Sans'" x="12.820312" y="-3.8921875000000004">5</tspan>
       </text>
      </g>
     </g>
    </g>
    <g id="ytick_2">
     <g id="line2d_17">
      <defs>
       <path id="m2435750510" d="M 0 0 
L -2 0 
" style="stroke: #000000; stroke-width: 0.6"/>
      </defs>
      <g>
       <use xlink:href="#m2435750510" x="64.41375" y="477.273547" style="stroke: #000000; stroke-width: 0.6"/>
      </g>
     </g>
    </g>
    <g id="ytick_3">
     <g id="line2d_18">
      <g>
       <use xlink:href="#m2435750510" x="64.41375" y="429.179488" style="stroke: #000000; stroke-width: 0.6"/>
      </g>
     </g>
    </g>
    <g id="ytick_4">
     <g id="line2d_19">
      <g>
       <use xlink:href="#m2435750510" x="64.41375" y="386.757522" style="stroke: #000000; stroke-width: 0.6"/>
      </g>
     </g>
    </g>
    <g id="ytick_5">
     <g id="line2d_20">
      <g>
       <use xlink:href="#m2435750510" x="64.41375" y="99.158666" style="stroke: #000000; stroke-width: 0.6"/>
      </g>
     </g>
     <g id="text_10">
      <!-- $\mathdefault{2\times10^{5}}$ -->
      <g transform="translate(22.81375 102.957885)">
       <text>
        <tspan style="font: 10px 'DejaVu Sans'" x="0 8.310547 18.637695 25" y="-0.06406250000000036">2×10</tspan>
        <tspan style="font: 7px 'DejaVu Sans'" x="31.458008" y="-3.8921875000000004">5</tspan>
       </text>
      </g>
     </g>
    </g>
    <g id="text_11">
     <text style="font: 12px 'DejaVu Sans', 'Bitstream Vera Sans', 'Computer Modern Sans Serif', 'Lucida Grande', 'Verdana', 'Geneva', 'Lucid', 'Arial', 'Helvetica', 'Avant Garde', sans-serif; text-anchor: middle" x="16.318125" y="276.572969" transform="rotate(-90 16.318125 276.572969)">Median Elapsed Time (nanoseconds)</text>
    </g>
   </g>
   <g id="line2d_21">
    <path d="M 93.39983 320.399692 
L 125.606585 149.937849 
L 157.81334 149.122015 
L 190.020095 281.632503 
L 222.22685 73.517706 
L 254.433605 262.330675 
L 286.64036 319.41646 
L 318.847115 320.479253 
L 351.05387 154.791122 
L 383.260625 314.376784 
L 415.46738 314.778644 
L 447.674135 320.044049 
L 479.88089 70.757565 
L 512.087645 317.938266 
L 544.2944 319.597083 
L 576.501155 318.721044 
L 640.914665 319.842596 
L 673.12142 167.082323 
" clip-path="url(#pfece07ec00)" style="fill: none; stroke: #1f77b4; stroke-width: 2; stroke-linecap: square"/>
    <defs>
     <path id="m8a046cd97e" d="M 0 3 
C 0.795609 3 1.55874 2.683901 2.12132 2.12132 
C 2.683901 1.55874 3 0.795609 3 0 
C 3 -0.795609 2.683901 -1.55874 2.12132 -2.12132 
C 1.55874 -2.683901 0.795609 -3 0 -3 
C -0.795609 -3 -1.55874 -2.683901 -2.12132 -2.12132 
C -2.683901 -1.55874 -3 -0.795609 -3 0 
C -3 0.795609 -2.683901 1.55874 -2.12132 2.12132 
C -1.55874 2.683901 -0.795609 3 0 3 
z
" style="stroke: #1f77b4"/>
    </defs>
    <g clip-path="url(#pfece07ec00)">
     <use xlink:href="#m8a046cd97e" x="93.39983" y="320.399692" style="fill: #1f77b4; stroke: #1f77b4"/>
     <use xlink:href="#m8a046cd97e" x="125.606585" y="149.937849" style="fill: #1f77b4; stroke: #1f77b4"/>
     <use xlink:href="#m8a046cd97e" x="157.81334" y="149.122015" style="fill: #1f77b4; stroke: #1f77b4"/>
     <use xlink:href="#m8a046cd97e" x="190.020095" y="281.632503" style="fill: #1f77b4; stroke: #1f77b4"/>
     <use xlink:href="#m8a046cd97e" x="222.22685" y="73.517706" style="fill: #1f77b4; stroke: #1f77b4"/>
     <use xlink:href="#m8a046cd97e" x="254.433605" y="262.330675" style="fill: #1f77b4; stroke: #1f77b4"/>
     <use xlink:href="#m8a046cd97e" x="286.64036" y="319.41646" style="fill: #1f77b4; stroke: #1f77b4"/>
     <use xlink:href="#m8a046cd97e" x="318.847115" y="320.479253" style="fill: #1f77b4; stroke: #1f77b4"/>
     <use xlink:href="#m8a046cd97e" x="351.05387" y="154.791122" style="fill: #1f77b4; stroke: #1f77b4"/>
     <use xlink:href="#m8a046cd97e" x="383.260625" y="314.376784" style="fill: #1f77b4; stroke: #1f77b4"/>
     <use xlink:href="#m8a046cd97e" x="415.46738" y="314.778644" style="fill: #1f77b4; stroke: #1f77b4"/>
     <use xlink:href="#m8a046cd97e" x="447.674135" y="320.044049" style="fill: #1f77b4; stroke: #1f77b4"/>
     <use xlink:href="#m8a046cd97e" x="479.88089" y="70.757565" style="fill: #1f77b4; stroke: #1f77b4"/>
     <use xlink:href="#m8a046cd97e" x="512.087645" y="317.938266" style="fill: #1f77b4; stroke: #1f77b4"/>
     <use xlink:href="#m8a046cd97e" x="544.2944" y="319.597083" style="fill: #1f77b4; stroke: #1f77b4"/>
     <use xlink:href="#m8a046cd97e" x="576.501155" y="318.721044" style="fill: #1f77b4; stroke: #1f77b4"/>
     <use xlink:href="#m8a046cd97e" x="640.914665" y="319.842596" style="fill: #1f77b4; stroke: #1f77b4"/>
     <use xlink:href="#m8a046cd97e" x="673.12142" y="167.082323" style="fill: #1f77b4; stroke: #1f77b4"/>
    </g>
   </g>
   <g id="line2d_22">
    <path d="M 93.39983 287.002065 
L 125.606585 166.941871 
L 157.81334 206.761922 
L 190.020095 267.182754 
L 222.22685 170.52357 
L 254.433605 276.779458 
L 286.64036 267.21556 
L 318.847115 274.060871 
L 351.05387 73.812662 
L 383.260625 273.893797 
L 415.46738 270.935313 
L 447.674135 268.600312 
L 479.88089 164.624075 
L 512.087645 275.976789 
L 544.2944 280.273421 
L 576.501155 161.231057 
L 640.914665 161.617455 
L 673.12142 144.792844 
" clip-path="url(#pfece07ec00)" style="fill: none; stroke: #ff7f0e; stroke-width: 2; stroke-linecap: square"/>
    <defs>
     <path id="m197976d031" d="M 0 3 
C 0.795609 3 1.55874 2.683901 2.12132 2.12132 
C 2.683901 1.55874 3 0.795609 3 0 
C 3 -0.795609 2.683901 -1.55874 2.12132 -2.12132 
C 1.55874 -2.683901 0.795609 -3 0 -3 
C -0.795609 -3 -1.55874 -2.683901 -2.12132 -2.12132 
C -2.683901 -1.55874 -3 -0.795609 -3 0 
C -3 0.795609 -2.683901 1.55874 -2.12132 2.12132 
C -1.55874 2.683901 -0.795609 3 0 3 
z
" style="stroke: #ff7f0e"/>
    </defs>
    <g clip-path="url(#pfece07ec00)">
     <use xlink:href="#m197976d031" x="93.39983" y="287.002065" style="fill: #ff7f0e; stroke: #ff7f0e"/>
     <use xlink:href="#m197976d031" x="125.606585" y="166.941871" style="fill: #ff7f0e; stroke: #ff7f0e"/>
     <use xlink:href="#m197976d031" x="157.81334" y="206.761922" style="fill: #ff7f0e; stroke: #ff7f0e"/>
     <use xlink:href="#m197976d031" x="190.020095" y="267.182754" style="fill: #ff7f0e; stroke: #ff7f0e"/>
     <use xlink:href="#m197976d031" x="222.22685" y="170.52357" style="fill: #ff7f0e; stroke: #ff7f0e"/>
     <use xlink:href="#m197976d031" x="254.433605" y="276.779458" style="fill: #ff7f0e; stroke: #ff7f0e"/>
     <use xlink:href="#m197976d031" x="286.64036" y="267.21556" style="fill: #ff7f0e; stroke: #ff7f0e"/>
     <use xlink:href="#m197976d031" x="318.847115" y="274.060871" style="fill: #ff7f0e; stroke: #ff7f0e"/>
     <use xlink:href="#m197976d031" x="351.05387" y="73.812662" style="fill: #ff7f0e; stroke: #ff7f0e"/>
     <use xlink:href="#m197976d031" x="383.260625" y="273.893797" style="fill: #ff7f0e; stroke: #ff7f0e"/>
     <use xlink:href="#m197976d031" x="415.46738" y="270.935313" style="fill: #ff7f0e; stroke: #ff7f0e"/>
     <use xlink:href="#m197976d031" x="447.674135" y="268.600312" style="fill: #ff7f0e; stroke: #ff7f0e"/>
     <use xlink:href="#m197976d031" x="479.88089" y="164.624075" style="fill: #ff7f0e; stroke: #ff7f0e"/>
     <use xlink:href="#m197976d031" x="512.087645" y="275.976789" style="fill: #ff7f0e; stroke: #ff7f0e"/>
     <use xlink:href="#m197976d031" x="544.2944" y="280.273421" style="fill: #ff7f0e; stroke: #ff7f0e"/>
     <use xlink:href="#m197976d031" x="576.501155" y="161.231057" style="fill: #ff7f0e; stroke: #ff7f0e"/>
     <use xlink:href="#m197976d031" x="640.914665" y="161.617455" style="fill: #ff7f0e; stroke: #ff7f0e"/>
     <use xlink:href="#m197976d031" x="673.12142" y="144.792844" style="fill: #ff7f0e; stroke: #ff7f0e"/>
    </g>
   </g>
   <g id="line2d_23">
    <path d="M 93.39983 309.99342 
L 125.606585 46.813736 
L 157.81334 296.469989 
L 190.020095 303.317241 
L 222.22685 141.040669 
L 254.433605 305.135002 
L 286.64036 226.521224 
L 318.847115 232.205566 
L 351.05387 223.641223 
L 383.260625 303.255982 
L 415.46738 305.186371 
L 447.674135 305.00103 
L 479.88089 229.395298 
L 512.087645 302.467522 
L 544.2944 304.609325 
L 576.501155 227.085921 
L 640.914665 231.385219 
L 673.12142 303.313432 
" clip-path="url(#pfece07ec00)" style="fill: none; stroke: #2ca02c; stroke-width: 2; stroke-linecap: square"/>
    <defs>
     <path id="m147cac565e" d="M 0 3 
C 0.795609 3 1.55874 2.683901 2.12132 2.12132 
C 2.683901 1.55874 3 0.795609 3 0 
C 3 -0.795609 2.683901 -1.55874 2.12132 -2.12132 
C 1.55874 -2.683901 0.795609 -3 0 -3 
C -0.795609 -3 -1.55874 -2.683901 -2.12132 -2.12132 
C -2.683901 -1.55874 -3 -0.795609 -3 0 
C -3 0.795609 -2.683901 1.55874 -2.12132 2.12132 
C -1.55874 2.683901 -0.795609 3 0 3 
z
" style="stroke: #2ca02c"/>
    </defs>
    <g clip-path="url(#pfece07ec00)">
     <use xlink:href="#m147cac565e" x="93.39983" y="309.99342" style="fill: #2ca02c; stroke: #2ca02c"/>
     <use xlink:href="#m147cac565e" x="125.606585" y="46.813736" style="fill: #2ca02c; stroke: #2ca02c"/>
     <use xlink:href="#m147cac565e" x="157.81334" y="296.469989" style="fill: #2ca02c; stroke: #2ca02c"/>
     <use xlink:href="#m147cac565e" x="190.020095" y="303.317241" style="fill: #2ca02c; stroke: #2ca02c"/>
     <use xlink:href="#m147cac565e" x="222.22685" y="141.040669" style="fill: #2ca02c; stroke: #2ca02c"/>
     <use xlink:href="#m147cac565e" x="254.433605" y="305.135002" style="fill: #2ca02c; stroke: #2ca02c"/>
     <use xlink:href="#m147cac565e" x="286.64036" y="226.521224" style="fill: #2ca02c; stroke: #2ca02c"/>
     <use xlink:href="#m147cac565e" x="318.847115" y="232.205566" style="fill: #2ca02c; stroke: #2ca02c"/>
     <use xlink:href="#m147cac565e" x="351.05387" y="223.641223" style="fill: #2ca02c; stroke: #2ca02c"/>
     <use xlink:href="#m147cac565e" x="383.260625" y="303.255982" style="fill: #2ca02c; stroke: #2ca02c"/>
     <use xlink:href="#m147cac565e" x="415.46738" y="305.186371" style="fill: #2ca02c; stroke: #2ca02c"/>
     <use xlink:href="#m147cac565e" x="447.674135" y="305.00103" style="fill: #2ca02c; stroke: #2ca02c"/>
     <use xlink:href="#m147cac565e" x="479.88089" y="229.395298" style="fill: #2ca02c; stroke: #2ca02c"/>
     <use xlink:href="#m147cac565e" x="512.087645" y="302.467522" style="fill: #2ca02c; stroke: #2ca02c"/>
     <use xlink:href="#m147cac565e" x="544.2944" y="304.609325" style="fill: #2ca02c; stroke: #2ca02c"/>
     <use xlink:href="#m147cac565e" x="576.501155" y="227.085921" style="fill: #2ca02c; stroke: #2ca02c"/>
     <use xlink:href="#m147cac565e" x="640.914665" y="231.385219" style="fill: #2ca02c; stroke: #2ca02c"/>
     <use xlink:href="#m147cac565e" x="673.12142" y="303.313432" style="fill: #2ca02c; stroke: #2ca02c"/>
    </g>
   </g>
   <g id="line2d_24">
    <path d="M 93.39983 504.215036 
L 125.606585 503.765069 
L 157.81334 504.492944 
L 190.020095 252.207841 
L 222.22685 366.478985 
L 254.433605 245.37849 
L 286.64036 504.920487 
L 318.847115 312.965396 
L 351.05387 240.358593 
L 383.260625 500.138822 
L 415.46738 506.092444 
L 447.674135 504.233335 
L 479.88089 167.327267 
L 544.2944 455.785735 
L 576.501155 506.332202 
L 640.914665 504.986515 
L 673.12142 505.933065 
" clip-path="url(#pfece07ec00)" style="fill: none; stroke: #d62728; stroke-width: 2; stroke-linecap: square"/>
    <defs>
     <path id="m32e4bd8839" d="M 0 3 
C 0.795609 3 1.55874 2.683901 2.12132 2.12132 
C 2.683901 1.55874 3 0.795609 3 0 
C 3 -0.795609 2.683901 -1.55874 2.12132 -2.12132 
C 1.55874 -2.683901 0.795609 -3 0 -3 
C -0.795609 -3 -1.55874 -2.683901 -2.12132 -2.12132 
C -2.683901 -1.55874 -3 -0.795609 -3 0 
C -3 0.795609 -2.683901 1.55874 -2.12132 2.12132 
C -1.55874 2.683901 -0.795609 3 0 3 
z
" style="stroke: #d62728"/>
    </defs>
    <g clip-path="url(#pfece07ec00)">
     <use xlink:href="#m32e4bd8839" x="93.39983" y="504.215036" style="fill: #d62728; stroke: #d62728"/>
     <use xlink:href="#m32e4bd8839" x="125.606585" y="503.765069" style="fill: #d62728; stroke: #d62728"/>
     <use xlink:href="#m32e4bd8839" x="157.81334" y="504.492944" style="fill: #d62728; stroke: #d62728"/>
     <use xlink:href="#m32e4bd8839" x="190.020095" y="252.207841" style="fill: #d62728; stroke: #d62728"/>
     <use xlink:href="#m32e4bd8839" x="222.22685" y="366.478985" style="fill: #d62728; stroke: #d62728"/>
     <use xlink:href="#m32e4bd8839" x="254.433605" y="245.37849" style="fill: #d62728; stroke: #d62728"/>
     <use xlink:href="#m32e4bd8839" x="286.64036" y="504.920487" style="fill: #d62728; stroke: #d62728"/>
     <use xlink:href="#m32e4bd8839" x="318.847115" y="312.965396" style="fill: #d62728; stroke: #d62728"/>
     <use xlink:href="#m32e4bd8839" x="351.05387" y="240.358593" style="fill: #d62728; stroke: #d62728"/>
     <use xlink:href="#m32e4bd8839" x="383.260625" y="500.138822" style="fill: #d62728; stroke: #d62728"/>
     <use xlink:href="#m32e4bd8839" x="415.46738" y="506.092444" style="fill: #d62728; stroke: #d62728"/>
     <use xlink:href="#m32e4bd8839" x="447.674135" y="504.233335" style="fill: #d62728; stroke: #d62728"/>
     <use xlink:href="#m32e4bd8839" x="479.88089" y="167.327267" style="fill: #d62728; stroke: #d62728"/>
     <use xlink:href="#m32e4bd8839" x="544.2944" y="455.785735" style="fill: #d62728; stroke: #d62728"/>
     <use xlink:href="#m32e4bd8839" x="576.501155" y="506.332202" style="fill: #d62728; stroke: #d62728"/>
     <use xlink:href="#m32e4bd8839" x="640.914665" y="504.986515" style="fill: #d62728; stroke: #d62728"/>
     <use xlink:href="#m32e4bd8839" x="673.12142" y="505.933065" style="fill: #d62728; stroke: #d62728"/>
    </g>
   </g>
   <g id="line2d_25">
    <path d="M 93.39983 461.991572 
L 125.606585 407.665623 
L 157.81334 466.93619 
L 190.020095 461.299004 
L 222.22685 368.886445 
L 254.433605 373.015229 
L 286.64036 456.013145 
L 318.847115 284.685676 
L 351.05387 450.498519 
L 383.260625 465.767156 
L 415.46738 459.143063 
L 447.674135 464.044495 
L 479.88089 338.076165 
L 544.2944 450.521448 
L 576.501155 463.665276 
L 640.914665 461.00366 
L 673.12142 461.407165 
" clip-path="url(#pfece07ec00)" style="fill: none; stroke: #9467bd; stroke-width: 2; stroke-linecap: square"/>
    <defs>
     <path id="m977f41d5a1" d="M 0 3 
C 0.795609 3 1.55874 2.683901 2.12132 2.12132 
C 2.683901 1.55874 3 0.795609 3 0 
C 3 -0.795609 2.683901 -1.55874 2.12132 -2.12132 
C 1.55874 -2.683901 0.795609 -3 0 -3 
C -0.795609 -3 -1.55874 -2.683901 -2.12132 -2.12132 
C -2.683901 -1.55874 -3 -0.795609 -3 0 
C -3 0.795609 -2.683901 1.55874 -2.12132 2.12132 
C -1.55874 2.683901 -0.795609 3 0 3 
z
" style="stroke: #9467bd"/>
    </defs>
    <g clip-path="url(#pfece07ec00)">
     <use xlink:href="#m977f41d5a1" x="93.39983" y="461.991572" style="fill: #9467bd; stroke: #9467bd"/>
     <use xlink:href="#m977f41d5a1" x="125.606585" y="407.665623" style="fill: #9467bd; stroke: #9467bd"/>
     <use xlink:href="#m977f41d5a1" x="157.81334" y="466.93619" style="fill: #9467bd; stroke: #9467bd"/>
     <use xlink:href="#m977f41d5a1" x="190.020095" y="461.299004" style="fill: #9467bd; stroke: #9467bd"/>
     <use xlink:href="#m977f41d5a1" x="222.22685" y="368.886445" style="fill: #9467bd; stroke: #9467bd"/>
     <use xlink:href="#m977f41d5a1" x="254.433605" y="373.015229" style="fill: #9467bd; stroke: #9467bd"/>
     <use xlink:href="#m977f41d5a1" x="286.64036" y="456.013145" style="fill: #9467bd; stroke: #9467bd"/>
     <use xlink:href="#m977f41d5a1" x="318.847115" y="284.685676" style="fill: #9467bd; stroke: #9467bd"/>
     <use xlink:href="#m977f41d5a1" x="351.05387" y="450.498519" style="fill: #9467bd; stroke: #9467bd"/>
     <use xlink:href="#m977f41d5a1" x="383.260625" y="465.767156" style="fill: #9467bd; stroke: #9467bd"/>
     <use xlink:href="#m977f41d5a1" x="415.46738" y="459.143063" style="fill: #9467bd; stroke: #9467bd"/>
     <use xlink:href="#m977f41d5a1" x="447.674135" y="464.044495" style="fill: #9467bd; stroke: #9467bd"/>
     <use xlink:href="#m977f41d5a1" x="479.88089" y="338.076165" style="fill: #9467bd; stroke: #9467bd"/>
     <use xlink:href="#m977f41d5a1" x="544.2944" y="450.521448" style="fill: #9467bd; stroke: #9467bd"/>
     <use xlink:href="#m977f41d5a1" x="576.501155" y="463.665276" style="fill: #9467bd; stroke: #9467bd"/>
     <use xlink:href="#m977f41d5a1" x="640.914665" y="461.00366" style="fill: #9467bd; stroke: #9467bd"/>
     <use xlink:href="#m977f41d5a1" x="673.12142" y="461.407165" style="fill: #9467bd; stroke: #9467bd"/>
    </g>
   </g>
   <g id="line2d_26">
    <path d="M 93.39983 428.48458 
L 125.606585 428.116305 
L 157.81334 429.675965 
L 190.020095 431.775747 
L 222.22685 353.222497 
L 254.433605 353.025662 
L 286.64036 431.423573 
L 318.847115 351.697648 
L 351.05387 429.564176 
L 383.260625 429.749008 
L 415.46738 431.810666 
L 447.674135 432.730205 
L 479.88089 351.888674 
L 544.2944 429.943929 
L 576.501155 431.740832 
L 640.914665 430.935437 
L 673.12142 432.640191 
" clip-path="url(#pfece07ec00)" style="fill: none; stroke: #8c564b; stroke-width: 2; stroke-linecap: square"/>
    <defs>
     <path id="m2ae3409ad9" d="M 0 3 
C 0.795609 3 1.55874 2.683901 2.12132 2.12132 
C 2.683901 1.55874 3 0.795609 3 0 
C 3 -0.795609 2.683901 -1.55874 2.12132 -2.12132 
C 1.55874 -2.683901 0.795609 -3 0 -3 
C -0.795609 -3 -1.55874 -2.683901 -2.12132 -2.12132 
C -2.683901 -1.55874 -3 -0.795609 -3 0 
C -3 0.795609 -2.683901 1.55874 -2.12132 2.12132 
C -1.55874 2.683901 -0.795609 3 0 3 
z
" style="stroke: #8c564b"/>
    </defs>
    <g clip-path="url(#pfece07ec00)">
     <use xlink:href="#m2ae3409ad9" x="93.39983" y="428.48458" style="fill: #8c564b; stroke: #8c564b"/>
     <use xlink:href="#m2ae3409ad9" x="125.606585" y="428.116305" style="fill: #8c564b; stroke: #8c564b"/>
     <use xlink:href="#m2ae3409ad9" x="157.81334" y="429.675965" style="fill: #8c564b; stroke: #8c564b"/>
     <use xlink:href="#m2ae3409ad9" x="190.020095" y="431.775747" style="fill: #8c564b; stroke: #8c564b"/>
     <use xlink:href="#m2ae3409ad9" x="222.22685" y="353.222497" style="fill: #8c564b; stroke: #8c564b"/>
     <use xlink:href="#m2ae3409ad9" x="254.433605" y="353.025662" style="fill: #8c564b; stroke: #8c564b"/>
     <use xlink:href="#m2ae3409ad9" x="286.64036" y="431.423573" style="fill: #8c564b; stroke: #8c564b"/>
     <use xlink:href="#m2ae3409ad9" x="318.847115" y="351.697648" style="fill: #8c564b; stroke: #8c564b"/>
     <use xlink:href="#m2ae3409ad9" x="351.05387" y="429.564176" style="fill: #8c564b; stroke: #8c564b"/>
     <use xlink:href="#m2ae3409ad9" x="383.260625" y="429.749008" style="fill: #8c564b; stroke: #8c564b"/>
     <use xlink:href="#m2ae3409ad9" x="415.46738" y="431.810666" style="fill: #8c564b; stroke: #8c564b"/>
     <use xlink:href="#m2ae3409ad9" x="447.674135" y="432.730205" style="fill: #8c564b; stroke: #8c564b"/>
     <use xlink:href="#m2ae3409ad9" x="479.88089" y="351.888674" style="fill: #8c564b; stroke: #8c564b"/>
     <use xlink:href="#m2ae3409ad9" x="544.2944" y="429.943929" style="fill: #8c564b; stroke: #8c564b"/>
     <use xlink:href="#m2ae3409ad9" x="576.501155" y="431.740832" style="fill: #8c564b; stroke: #8c564b"/>
     <use xlink:href="#m2ae3409ad9" x="640.914665" y="430.935437" style="fill: #8c564b; stroke: #8c564b"/>
     <use xlink:href="#m2ae3409ad9" x="673.12142" y="432.640191" style="fill: #8c564b; stroke: #8c564b"/>
    </g>
   </g>
   <g id="patch_3">
    <path d="M 64.41375 529.308125 
L 64.41375 23.837812 
" style="fill: none; stroke: #000000; stroke-width: 0.8; stroke-linejoin: miter; stroke-linecap: square"/>
   </g>
   <g id="patch_4">
    <path d="M 702.1075 529.308125 
L 702.1075 23.837812 
" style="fill: none; stroke: #000000; stroke-width: 0.8; stroke-linejoin: miter; stroke-linecap: square"/>
   </g>
   <g id="patch_5">
    <path d="M 64.41375 529.308125 
L 702.1075 529.308125 
" style="fill: none; stroke: #000000; stroke-width: 0.8; stroke-linejoin: miter; stroke-linecap: square"/>
   </g>
   <g id="patch_6">
    <path d="M 64.41375 23.837812 
L 702.1075 23.837812 
" style="fill: none; stroke: #000000; stroke-width: 0.8; stroke-linejoin: miter; stroke-linecap: square"/>
   </g>
   <g id="text_12">
    <text style="font: 700 14px 'DejaVu Sans', 'Bitstream Vera Sans', 'Computer Modern Sans Serif', 'Lucida Grande', 'Verdana', 'Geneva', 'Lucid', 'Arial', 'Helvetica', 'Avant Garde', sans-serif; text-anchor: middle" x="383.260625" y="17.837813" transform="rotate(-0 383.260625 17.837813)">Matrixops - Performance Trend</text>
   </g>
   <g id="legend_1">
    <g id="patch_7">
     <path d="M 740.992188 119.906563 
L 846.004688 119.906563 
Q 848.004688 119.906563 848.004688 117.906563 
L 848.004688 30.837813 
Q 848.004688 28.837813 846.004688 28.837813 
L 740.992188 28.837813 
Q 738.992188 28.837813 738.992188 30.837813 
L 738.992188 117.906563 
Q 738.992188 119.906563 740.992188 119.906563 
z
" style="fill: #ffffff; opacity: 0.8; stroke: #cccccc; stroke-linejoin: miter"/>
    </g>
    <g id="line2d_27">
     <path d="M 742.992188 36.93625 
L 752.992188 36.93625 
L 762.992188 36.93625 
" style="fill: none; stroke: #1f77b4; stroke-width: 2; stroke-linecap: square"/>
     <g>
      <use xlink:href="#m8a046cd97e" x="752.992188" y="36.93625" style="fill: #1f77b4; stroke: #1f77b4"/>
     </g>
    </g>
    <g id="text_13">
     <text style="font: 10px 'DejaVu Sans', 'Bitstream Vera Sans', 'Computer Modern Sans Serif', 'Lucida Grande', 'Verdana', 'Geneva', 'Lucid', 'Arial', 'Helvetica', 'Avant Garde', sans-serif; text-anchor: start" x="770.992188" y="40.43625" transform="rotate(-0 770.992188 40.43625)">gcc-14.2 - V1</text>
    </g>
    <g id="line2d_28">
     <path d="M 742.992188 51.614375 
L 752.992188 51.614375 
L 762.992188 51.614375 
" style="fill: none; stroke: #ff7f0e; stroke-width: 2; stroke-linecap: square"/>
     <g>
      <use xlink:href="#m197976d031" x="752.992188" y="51.614375" style="fill: #ff7f0e; stroke: #ff7f0e"/>
     </g>
    </g>
    <g id="text_14">
     <text style="font: 10px 'DejaVu Sans', 'Bitstream Vera Sans', 'Computer Modern Sans Serif', 'Lucida Grande', 'Verdana', 'Geneva', 'Lucid', 'Arial', 'Helvetica', 'Avant Garde', sans-serif; text-anchor: start" x="770.992188" y="55.114375" transform="rotate(-0 770.992188 55.114375)">gcc-14.2 - V2</text>
    </g>
    <g id="line2d_29">
     <path d="M 742.992188 66.2925 
L 752.992188 66.2925 
L 762.992188 66.2925 
" style="fill: none; stroke: #2ca02c; stroke-width: 2; stroke-linecap: square"/>
     <g>
      <use xlink:href="#m147cac565e" x="752.992188" y="66.2925" style="fill: #2ca02c; stroke: #2ca02c"/>
     </g>
    </g>
    <g id="text_15">
     <text style="font: 10px 'DejaVu Sans', 'Bitstream Vera Sans', 'Computer Modern Sans Serif', 'Lucida Grande', 'Verdana', 'Geneva', 'Lucid', 'Arial', 'Helvetica', 'Avant Garde', sans-serif; text-anchor: start" x="770.992188" y="69.7925" transform="rotate(-0 770.992188 69.7925)">gcc-14.2 - TBB</text>
    </g>
    <g id="line2d_30">
     <path d="M 742.992188 80.970625 
L 752.992188 80.970625 
L 762.992188 80.970625 
" style="fill: none; stroke: #d62728; stroke-width: 2; stroke-linecap: square"/>
     <g>
      <use xlink:href="#m32e4bd8839" x="752.992188" y="80.970625" style="fill: #d62728; stroke: #d62728"/>
     </g>
    </g>
    <g id="text_16">
     <text style="font: 10px 'DejaVu Sans', 'Bitstream Vera Sans', 'Computer Modern Sans Serif', 'Lucida Grande', 'Verdana', 'Geneva', 'Lucid', 'Arial', 'Helvetica', 'Avant Garde', sans-serif; text-anchor: start" x="770.992188" y="84.470625" transform="rotate(-0 770.992188 84.470625)">gcc-4.2 - V1</text>
    </g>
    <g id="line2d_31">
     <path d="M 742.992188 95.64875 
L 752.992188 95.64875 
L 762.992188 95.64875 
" style="fill: none; stroke: #9467bd; stroke-width: 2; stroke-linecap: square"/>
     <g>
      <use xlink:href="#m977f41d5a1" x="752.992188" y="95.64875" style="fill: #9467bd; stroke: #9467bd"/>
     </g>
    </g>
    <g id="text_17">
     <text style="font: 10px 'DejaVu Sans', 'Bitstream Vera Sans', 'Computer Modern Sans Serif', 'Lucida Grande', 'Verdana', 'Geneva', 'Lucid', 'Arial', 'Helvetica', 'Avant Garde', sans-serif; text-anchor: start" x="770.992188" y="99.14875" transform="rotate(-0 770.992188 99.14875)">gcc-4.2 - V2</text>
    </g>
    <g id="line2d_32">
     <path d="M 742.992188 110.326875 
L 752.992188 110.326875 
L 762.992188 110.326875 
" style="fill: none; stroke: #8c564b; stroke-width: 2; stroke-linecap: square"/>
     <g>
      <use xlink:href="#m2ae3409ad9" x="752.992188" y="110.326875" style="fill: #8c564b; stroke: #8c564b"/>
     </g>
    </g>
    <g id="text_18">
     <text style="font: 10px 'DejaVu Sans', 'Bitstream Vera Sans', 'Computer Modern Sans Serif', 'Lucida Grande', 'Verdana', 'Geneva', 'Lucid', 'Arial', 'Helvetica', 'Avant Garde', sans-serif; text-anchor: start" x="770.992188" y="113.826875" transform="rotate(-0 770.992188 113.826875)">gcc-4.2 - TBB</text>
    </g>
   </g>
  </g>
 </g>
 <defs>
  <clipPath id="pfece07ec00">
   <rect x="64.41375" y="23.837813" width="637.69375" height="505.470313"/>
  </clipPath>
 </defs>
</svg>
