<?xml version="1.0" encoding="utf-8" standalone="no"?>
<!DOCTYPE svg PUBLIC "-//W3C//DTD SVG 1.1//EN"
  "http://www.w3.org/Graphics/SVG/1.1/DTD/svg11.dtd">
<svg xmlns:xlink="http://www.w3.org/1999/xlink" width="855.204687pt" height="568.8pt" viewBox="0 0 855.204687 568.8" xmlns="http://www.w3.org/2000/svg" version="1.1">
 <metadata>
  <rdf:RDF xmlns:dc="http://purl.org/dc/elements/1.1/" xmlns:cc="http://creativecommons.org/ns#" xmlns:rdf="http://www.w3.org/1999/02/22-rdf-syntax-ns#">
   <cc:Work>
    <dc:type rdf:resource="http://purl.org/dc/dcmitype/StillImage"/>
    <dc:date>2025-08-30T20:18:20.973513</dc:date>
    <dc:format>image/svg+xml</dc:format>
    <dc:creator>
     <cc:Agent>
      <dc:title>Matplotlib v3.9.4, https://matplotlib.org/</dc:title>
     </cc:Agent>
    </dc:creator>
   </cc:Work>
  </rdf:RDF>
 </metadata>
 <defs>
  <style type="text/css">*{stroke-linejoin: round; stroke-linecap: butt}</style>
 </defs>
 <g id="figure_1">
  <g id="patch_1">
   <path d="M 0 568.8 
L 855.204687 568.8 
L 855.204687 0 
L 0 0 
z
" style="fill: #ffffff"/>
  </g>
  <g id="axes_1">
   <g id="patch_2">
    <path d="M 64.41375 529.308125 
L 702.1075 529.308125 
L 702.1075 23.837812 
L 64.41375 23.837812 
z
" style="fill: #ffffff"/>
   </g>
   <g id="matplotlib.axis_1">
    <g id="xtick_1">
     <g id="line2d_1">
      <path d="M 79.260279 529.308125 
L 79.260279 23.837812 
" clip-path="url(#pe5e324307b)" style="fill: none; stroke: #b0b0b0; stroke-opacity: 0.3; stroke-width: 0.8; stroke-linecap: square"/>
     </g>
     <g id="line2d_2">
      <defs>
       <path id="m5b587f2d10" d="M 0 0 
L 0 3.5 
" style="stroke: #000000; stroke-width: 0.8"/>
      </defs>
      <g>
       <use xlink:href="#m5b587f2d10" x="79.260279" y="529.308125" style="stroke: #000000; stroke-width: 0.8"/>
      </g>
     </g>
     <g id="text_1">
      <text style="font: 10px 'DejaVu Sans', 'Bitstream Vera Sans', 'Computer Modern Sans Serif', 'Lucida Grande', 'Verdana', 'Geneva', 'Lucid', 'Arial', 'Helvetica', 'Avant Garde', sans-serif; text-anchor: middle" x="79.260279" y="543.906563" transform="rotate(-0 79.260279 543.906563)">70</text>
     </g>
    </g>
    <g id="xtick_2">
     <g id="line2d_3">
      <path d="M 220.655789 529.308125 
L 220.655789 23.837812 
" clip-path="url(#pe5e324307b)" style="fill: none; stroke: #b0b0b0; stroke-opacity: 0.3; stroke-width: 0.8; stroke-linecap: square"/>
     </g>
     <g id="line2d_4">
      <g>
       <use xlink:href="#m5b587f2d10" x="220.655789" y="529.308125" style="stroke: #000000; stroke-width: 0.8"/>
      </g>
     </g>
     <g id="text_2">
      <text style="font: 10px 'DejaVu Sans', 'Bitstream Vera Sans', 'Computer Modern Sans Serif', 'Lucida Grande', 'Verdana', 'Geneva', 'Lucid', 'Arial', 'Helvetica', 'Avant Garde', sans-serif; text-anchor: middle" x="220.655789" y="543.906563" transform="rotate(-0 220.655789 543.906563)">80</text>
     </g>
    </g>
    <g id="xtick_3">
     <g id="line2d_5">
      <path d="M 362.051299 529.308125 
L 362.051299 23.837812 
" clip-path="url(#pe5e324307b)" style="fill: none; stroke: #b0b0b0; stroke-opacity: 0.3; stroke-width: 0.8; stroke-linecap: square"/>
     </g>
     <g id="line2d_6">
      <g>
       <use xlink:href="#m5b587f2d10" x="362.051299" y="529.308125" style="stroke: #000000; stroke-width: 0.8"/>
      </g>
     </g>
     <g id="text_3">
      <text style="font: 10px 'DejaVu Sans', 'Bitstream Vera Sans', 'Computer Modern Sans Serif', 'Lucida Grande', 'Verdana', 'Geneva', 'Lucid', 'Arial', 'Helvetica', 'Avant Garde', sans-serif; text-anchor: middle" x="362.051299" y="543.906563" transform="rotate(-0 362.051299 543.906563)">90</text>
     </g>
    </g>
    <g id="xtick_4">
     <g id="line2d_7">
      <path d="M 503.446808 529.308125 
L 503.446808 23.837812 
" clip-path="url(#pe5e324307b)" style="fill: none; stroke: #b0b0b0; stroke-opacity: 0.3; stroke-width: 0.8; stroke-linecap: square"/>
     </g>
     <g id="line2d_8">
      <g>
       <use xlink:href="#m5b587f2d10" x="503.446808" y="529.308125" style="stroke: #000000; stroke-width: 0.8"/>
      </g>
     </g>
     <g id="text_4">
      <text style="font: 10px 'DejaVu Sans', 'Bitstream Vera Sans', 'Computer Modern Sans Serif', 'Lucida Grande', 'Verdana', 'Geneva', 'Lucid', 'Arial', 'Helvetica', 'Avant Garde', sans-serif; text-anchor: middle" x="503.446808" y="543.906563" transform="rotate(-0 503.446808 543.906563)">100</text>
     </g>
    </g>
    <g id="xtick_5">
     <g id="line2d_9">
      <path d="M 644.842318 529.308125 
L 644.842318 23.837812 
" clip-path="url(#pe5e324307b)" style="fill: none; stroke: #b0b0b0; stroke-opacity: 0.3; stroke-width: 0.8; stroke-linecap: square"/>
     </g>
     <g id="line2d_10">
      <g>
       <use xlink:href="#m5b587f2d10" x="644.842318" y="529.308125" style="stroke: #000000; stroke-width: 0.8"/>
      </g>
     </g>
     <g id="text_5">
      <text style="font: 10px 'DejaVu Sans', 'Bitstream Vera Sans', 'Computer Modern Sans Serif', 'Lucida Grande', 'Verdana', 'Geneva', 'Lucid', 'Arial', 'Helvetica', 'Avant Garde', sans-serif; text-anchor: middle" x="644.842318" y="543.906563" transform="rotate(-0 644.842318 543.906563)">110</text>
     </g>
    </g>
    <g id="text_6">
     <text style="font: 12px 'DejaVu Sans', 'Bitstream Vera Sans', 'Computer Modern Sans Serif', 'Lucida Grande', 'Verdana', 'Geneva', 'Lucid', 'Arial', 'Helvetica', 'Avant Garde', sans-serif; text-anchor: middle" x="383.260625" y="559.104375" transform="rotate(-0 383.260625 559.104375)">Build Number</text>
    </g>
   </g>
   <g id="matplotlib.axis_2">
    <g id="ytick_1">
     <g id="line2d_11">
      <path d="M 64.41375 472.948128 
L 702.1075 472.948128 
" clip-path="url(#pe5e324307b)" style="fill: none; stroke: #b0b0b0; stroke-opacity: 0.3; stroke-width: 0.8; stroke-linecap: square"/>
     </g>
     <g id="line2d_12">
      <defs>
       <path id="mebd5550b12" d="M 0 0 
L -3.5 0 
" style="stroke: #000000; stroke-width: 0.8"/>
      </defs>
      <g>
       <use xlink:href="#mebd5550b12" x="64.41375" y="472.948128" style="stroke: #000000; stroke-width: 0.8"/>
      </g>
     </g>
     <g id="text_7">
      <!-- $\mathdefault{10^{5}}$ -->
      <g transform="translate(39.81375 476.747347)">
       <text>
        <tspan style="font: 10px 'DejaVu Sans'" x="0 6.362305" y="-0.06406250000000036">10</tspan>
        <tspan style="font: 7px 'DejaVu Sans'" x="12.820312" y="-3.8921875000000004">5</tspan>
       </text>
      </g>
     </g>
    </g>
    <g id="ytick_2">
     <g id="line2d_13">
      <defs>
       <path id="md36aab67d2" d="M 0 0 
L -2 0 
" style="stroke: #000000; stroke-width: 0.6"/>
      </defs>
      <g>
       <use xlink:href="#md36aab67d2" x="64.41375" y="527.519431" style="stroke: #000000; stroke-width: 0.6"/>
      </g>
     </g>
    </g>
    <g id="ytick_3">
     <g id="line2d_14">
      <g>
       <use xlink:href="#md36aab67d2" x="64.41375" y="498.714773" style="stroke: #000000; stroke-width: 0.6"/>
      </g>
     </g>
    </g>
    <g id="ytick_4">
     <g id="line2d_15">
      <g>
       <use xlink:href="#md36aab67d2" x="64.41375" y="303.43418" style="stroke: #000000; stroke-width: 0.6"/>
      </g>
     </g>
     <g id="text_8">
      <!-- $\mathdefault{2\times10^{5}}$ -->
      <g transform="translate(22.81375 307.233399)">
       <text>
        <tspan style="font: 10px 'DejaVu Sans'" x="0 8.310547 18.637695 25" y="-0.06406250000000036">2×10</tspan>
        <tspan style="font: 7px 'DejaVu Sans'" x="31.458008" y="-3.8921875000000004">5</tspan>
       </text>
      </g>
     </g>
    </g>
    <g id="ytick_5">
     <g id="line2d_16">
      <g>
       <use xlink:href="#md36aab67d2" x="64.41375" y="204.274877" style="stroke: #000000; stroke-width: 0.6"/>
      </g>
     </g>
     <g id="text_9">
      <!-- $\mathdefault{3\times10^{5}}$ -->
      <g transform="translate(22.81375 208.074095)">
       <text>
        <tspan style="font: 10px 'DejaVu Sans'" x="0 8.310547 18.637695 25" y="-0.06406250000000036">3×10</tspan>
        <tspan style="font: 7px 'DejaVu Sans'" x="31.458008" y="-3.8921875000000004">5</tspan>
       </text>
      </g>
     </g>
    </g>
    <g id="ytick_6">
     <g id="line2d_17">
      <g>
       <use xlink:href="#md36aab67d2" x="64.41375" y="133.920231" style="stroke: #000000; stroke-width: 0.6"/>
      </g>
     </g>
     <g id="text_10">
      <!-- $\mathdefault{4\times10^{5}}$ -->
      <g transform="translate(22.81375 137.71945)">
       <text>
        <tspan style="font: 10px 'DejaVu Sans'" x="0 8.310547 18.637695 25" y="-0.06406250000000036">4×10</tspan>
        <tspan style="font: 7px 'DejaVu Sans'" x="31.458008" y="-3.8921875000000004">5</tspan>
       </text>
      </g>
     </g>
    </g>
    <g id="ytick_7">
     <g id="line2d_18">
      <g>
       <use xlink:href="#md36aab67d2" x="64.41375" y="79.348929" style="stroke: #000000; stroke-width: 0.6"/>
      </g>
     </g>
    </g>
    <g id="ytick_8">
     <g id="line2d_19">
      <g>
       <use xlink:href="#md36aab67d2" x="64.41375" y="34.760928" style="stroke: #000000; stroke-width: 0.6"/>
      </g>
     </g>
     <g id="text_11">
      <!-- $\mathdefault{6\times10^{5}}$ -->
      <g transform="translate(22.81375 38.560147)">
       <text>
        <tspan style="font: 10px 'DejaVu Sans'" x="0 8.310547 18.637695 25" y="-0.06406250000000036">6×10</tspan>
        <tspan style="font: 7px 'DejaVu Sans'" x="31.458008" y="-3.8921875000000004">5</tspan>
       </text>
      </g>
     </g>
    </g>
    <g id="text_12">
     <text style="font: 12px 'DejaVu Sans', 'Bitstream Vera Sans', 'Computer Modern Sans Serif', 'Lucida Grande', 'Verdana', 'Geneva', 'Lucid', 'Arial', 'Helvetica', 'Avant Garde', sans-serif; text-anchor: middle" x="16.318125" y="276.572969" transform="rotate(-90 16.318125 276.572969)">Median Elapsed Time (nanoseconds)</text>
    </g>
   </g>
   <g id="line2d_20">
    <path d="M 93.39983 275.826973 
L 107.539381 280.652892 
L 121.678932 279.043313 
L 135.818483 281.144 
L 149.958034 233.57992 
L 164.097585 147.528372 
L 178.237136 281.11431 
L 192.376687 280.289323 
L 206.516238 108.324965 
L 220.655789 280.961113 
L 234.79534 280.99112 
L 248.934891 281.336743 
L 263.074442 109.155084 
L 277.213993 280.143979 
L 291.353544 280.825404 
L 305.493095 281.066432 
L 333.772197 281.226283 
L 347.911748 109.237256 
L 362.051299 280.489185 
L 376.19085 157.947213 
L 390.3304 280.097959 
L 404.469951 276.834576 
L 418.609502 281.079601 
L 432.749053 281.009416 
L 446.888604 281.103818 
L 461.028155 102.906902 
L 489.307257 280.77123 
L 503.446808 280.65991 
L 517.586359 281.308258 
L 531.72591 280.979072 
L 545.865461 281.204509 
L 560.005012 281.069111 
L 574.144563 281.108617 
L 588.284114 260.363461 
L 616.563216 46.813736 
L 630.702767 280.322473 
L 644.842318 262.679124 
L 658.981869 233.230044 
L 673.12142 270.532862 
" clip-path="url(#pe5e324307b)" style="fill: none; stroke: #1f77b4; stroke-width: 2; stroke-linecap: square"/>
    <defs>
     <path id="mbafa297390" d="M 0 3 
C 0.795609 3 1.55874 2.683901 2.12132 2.12132 
C 2.683901 1.55874 3 0.795609 3 0 
C 3 -0.795609 2.683901 -1.55874 2.12132 -2.12132 
C 1.55874 -2.683901 0.795609 -3 0 -3 
C -0.795609 -3 -1.55874 -2.683901 -2.12132 -2.12132 
C -2.683901 -1.55874 -3 -0.795609 -3 0 
C -3 0.795609 -2.683901 1.55874 -2.12132 2.12132 
C -1.55874 2.683901 -0.795609 3 0 3 
z
" style="stroke: #1f77b4"/>
    </defs>
    <g clip-path="url(#pe5e324307b)">
     <use xlink:href="#mbafa297390" x="93.39983" y="275.826973" style="fill: #1f77b4; stroke: #1f77b4"/>
     <use xlink:href="#mbafa297390" x="107.539381" y="280.652892" style="fill: #1f77b4; stroke: #1f77b4"/>
     <use xlink:href="#mbafa297390" x="121.678932" y="279.043313" style="fill: #1f77b4; stroke: #1f77b4"/>
     <use xlink:href="#mbafa297390" x="135.818483" y="281.144" style="fill: #1f77b4; stroke: #1f77b4"/>
     <use xlink:href="#mbafa297390" x="149.958034" y="233.57992" style="fill: #1f77b4; stroke: #1f77b4"/>
     <use xlink:href="#mbafa297390" x="164.097585" y="147.528372" style="fill: #1f77b4; stroke: #1f77b4"/>
     <use xlink:href="#mbafa297390" x="178.237136" y="281.11431" style="fill: #1f77b4; stroke: #1f77b4"/>
     <use xlink:href="#mbafa297390" x="192.376687" y="280.289323" style="fill: #1f77b4; stroke: #1f77b4"/>
     <use xlink:href="#mbafa297390" x="206.516238" y="108.324965" style="fill: #1f77b4; stroke: #1f77b4"/>
     <use xlink:href="#mbafa297390" x="220.655789" y="280.961113" style="fill: #1f77b4; stroke: #1f77b4"/>
     <use xlink:href="#mbafa297390" x="234.79534" y="280.99112" style="fill: #1f77b4; stroke: #1f77b4"/>
     <use xlink:href="#mbafa297390" x="248.934891" y="281.336743" style="fill: #1f77b4; stroke: #1f77b4"/>
     <use xlink:href="#mbafa297390" x="263.074442" y="109.155084" style="fill: #1f77b4; stroke: #1f77b4"/>
     <use xlink:href="#mbafa297390" x="277.213993" y="280.143979" style="fill: #1f77b4; stroke: #1f77b4"/>
     <use xlink:href="#mbafa297390" x="291.353544" y="280.825404" style="fill: #1f77b4; stroke: #1f77b4"/>
     <use xlink:href="#mbafa297390" x="305.493095" y="281.066432" style="fill: #1f77b4; stroke: #1f77b4"/>
     <use xlink:href="#mbafa297390" x="333.772197" y="281.226283" style="fill: #1f77b4; stroke: #1f77b4"/>
     <use xlink:href="#mbafa297390" x="347.911748" y="109.237256" style="fill: #1f77b4; stroke: #1f77b4"/>
     <use xlink:href="#mbafa297390" x="362.051299" y="280.489185" style="fill: #1f77b4; stroke: #1f77b4"/>
     <use xlink:href="#mbafa297390" x="376.19085" y="157.947213" style="fill: #1f77b4; stroke: #1f77b4"/>
     <use xlink:href="#mbafa297390" x="390.3304" y="280.097959" style="fill: #1f77b4; stroke: #1f77b4"/>
     <use xlink:href="#mbafa297390" x="404.469951" y="276.834576" style="fill: #1f77b4; stroke: #1f77b4"/>
     <use xlink:href="#mbafa297390" x="418.609502" y="281.079601" style="fill: #1f77b4; stroke: #1f77b4"/>
     <use xlink:href="#mbafa297390" x="432.749053" y="281.009416" style="fill: #1f77b4; stroke: #1f77b4"/>
     <use xlink:href="#mbafa297390" x="446.888604" y="281.103818" style="fill: #1f77b4; stroke: #1f77b4"/>
     <use xlink:href="#mbafa297390" x="461.028155" y="102.906902" style="fill: #1f77b4; stroke: #1f77b4"/>
     <use xlink:href="#mbafa297390" x="489.307257" y="280.77123" style="fill: #1f77b4; stroke: #1f77b4"/>
     <use xlink:href="#mbafa297390" x="503.446808" y="280.65991" style="fill: #1f77b4; stroke: #1f77b4"/>
     <use xlink:href="#mbafa297390" x="517.586359" y="281.308258" style="fill: #1f77b4; stroke: #1f77b4"/>
     <use xlink:href="#mbafa297390" x="531.72591" y="280.979072" style="fill: #1f77b4; stroke: #1f77b4"/>
     <use xlink:href="#mbafa297390" x="545.865461" y="281.204509" style="fill: #1f77b4; stroke: #1f77b4"/>
     <use xlink:href="#mbafa297390" x="560.005012" y="281.069111" style="fill: #1f77b4; stroke: #1f77b4"/>
     <use xlink:href="#mbafa297390" x="574.144563" y="281.108617" style="fill: #1f77b4; stroke: #1f77b4"/>
     <use xlink:href="#mbafa297390" x="588.284114" y="260.363461" style="fill: #1f77b4; stroke: #1f77b4"/>
     <use xlink:href="#mbafa297390" x="616.563216" y="46.813736" style="fill: #1f77b4; stroke: #1f77b4"/>
     <use xlink:href="#mbafa297390" x="630.702767" y="280.322473" style="fill: #1f77b4; stroke: #1f77b4"/>
     <use xlink:href="#mbafa297390" x="644.842318" y="262.679124" style="fill: #1f77b4; stroke: #1f77b4"/>
     <use xlink:href="#mbafa297390" x="658.981869" y="233.230044" style="fill: #1f77b4; stroke: #1f77b4"/>
     <use xlink:href="#mbafa297390" x="673.12142" y="270.532862" style="fill: #1f77b4; stroke: #1f77b4"/>
    </g>
   </g>
   <g id="line2d_21">
    <path d="M 93.39983 275.667338 
L 107.539381 274.226607 
L 121.678932 272.248622 
L 135.818483 270.478249 
L 149.958034 242.282551 
L 164.097585 271.769237 
L 178.237136 272.310952 
L 192.376687 273.71312 
L 206.516238 179.269891 
L 220.655789 267.597492 
L 234.79534 270.456023 
L 248.934891 270.015545 
L 263.074442 227.663437 
L 277.213993 267.655268 
L 291.353544 271.59956 
L 305.493095 271.325211 
L 333.772197 270.938512 
L 347.911748 228.831247 
L 362.051299 272.713957 
L 376.19085 228.355376 
L 390.3304 273.654544 
L 404.469951 266.610438 
L 418.609502 271.885287 
L 432.749053 268.975154 
L 446.888604 264.188577 
L 461.028155 190.606055 
L 489.307257 264.411245 
L 503.446808 262.857327 
L 517.586359 265.049844 
L 531.72591 264.293582 
L 545.865461 263.236634 
L 560.005012 265.036152 
L 574.144563 264.370489 
L 588.284114 248.352872 
L 616.563216 174.731505 
L 630.702767 262.691442 
L 644.842318 253.938582 
L 658.981869 244.468966 
L 673.12142 265.541461 
" clip-path="url(#pe5e324307b)" style="fill: none; stroke: #ff7f0e; stroke-width: 2; stroke-linecap: square"/>
    <defs>
     <path id="m17d327f438" d="M 0 3 
C 0.795609 3 1.55874 2.683901 2.12132 2.12132 
C 2.683901 1.55874 3 0.795609 3 0 
C 3 -0.795609 2.683901 -1.55874 2.12132 -2.12132 
C 1.55874 -2.683901 0.795609 -3 0 -3 
C -0.795609 -3 -1.55874 -2.683901 -2.12132 -2.12132 
C -2.683901 -1.55874 -3 -0.795609 -3 0 
C -3 0.795609 -2.683901 1.55874 -2.12132 2.12132 
C -1.55874 2.683901 -0.795609 3 0 3 
z
" style="stroke: #ff7f0e"/>
    </defs>
    <g clip-path="url(#pe5e324307b)">
     <use xlink:href="#m17d327f438" x="93.39983" y="275.667338" style="fill: #ff7f0e; stroke: #ff7f0e"/>
     <use xlink:href="#m17d327f438" x="107.539381" y="274.226607" style="fill: #ff7f0e; stroke: #ff7f0e"/>
     <use xlink:href="#m17d327f438" x="121.678932" y="272.248622" style="fill: #ff7f0e; stroke: #ff7f0e"/>
     <use xlink:href="#m17d327f438" x="135.818483" y="270.478249" style="fill: #ff7f0e; stroke: #ff7f0e"/>
     <use xlink:href="#m17d327f438" x="149.958034" y="242.282551" style="fill: #ff7f0e; stroke: #ff7f0e"/>
     <use xlink:href="#m17d327f438" x="164.097585" y="271.769237" style="fill: #ff7f0e; stroke: #ff7f0e"/>
     <use xlink:href="#m17d327f438" x="178.237136" y="272.310952" style="fill: #ff7f0e; stroke: #ff7f0e"/>
     <use xlink:href="#m17d327f438" x="192.376687" y="273.71312" style="fill: #ff7f0e; stroke: #ff7f0e"/>
     <use xlink:href="#m17d327f438" x="206.516238" y="179.269891" style="fill: #ff7f0e; stroke: #ff7f0e"/>
     <use xlink:href="#m17d327f438" x="220.655789" y="267.597492" style="fill: #ff7f0e; stroke: #ff7f0e"/>
     <use xlink:href="#m17d327f438" x="234.79534" y="270.456023" style="fill: #ff7f0e; stroke: #ff7f0e"/>
     <use xlink:href="#m17d327f438" x="248.934891" y="270.015545" style="fill: #ff7f0e; stroke: #ff7f0e"/>
     <use xlink:href="#m17d327f438" x="263.074442" y="227.663437" style="fill: #ff7f0e; stroke: #ff7f0e"/>
     <use xlink:href="#m17d327f438" x="277.213993" y="267.655268" style="fill: #ff7f0e; stroke: #ff7f0e"/>
     <use xlink:href="#m17d327f438" x="291.353544" y="271.59956" style="fill: #ff7f0e; stroke: #ff7f0e"/>
     <use xlink:href="#m17d327f438" x="305.493095" y="271.325211" style="fill: #ff7f0e; stroke: #ff7f0e"/>
     <use xlink:href="#m17d327f438" x="333.772197" y="270.938512" style="fill: #ff7f0e; stroke: #ff7f0e"/>
     <use xlink:href="#m17d327f438" x="347.911748" y="228.831247" style="fill: #ff7f0e; stroke: #ff7f0e"/>
     <use xlink:href="#m17d327f438" x="362.051299" y="272.713957" style="fill: #ff7f0e; stroke: #ff7f0e"/>
     <use xlink:href="#m17d327f438" x="376.19085" y="228.355376" style="fill: #ff7f0e; stroke: #ff7f0e"/>
     <use xlink:href="#m17d327f438" x="390.3304" y="273.654544" style="fill: #ff7f0e; stroke: #ff7f0e"/>
     <use xlink:href="#m17d327f438" x="404.469951" y="266.610438" style="fill: #ff7f0e; stroke: #ff7f0e"/>
     <use xlink:href="#m17d327f438" x="418.609502" y="271.885287" style="fill: #ff7f0e; stroke: #ff7f0e"/>
     <use xlink:href="#m17d327f438" x="432.749053" y="268.975154" style="fill: #ff7f0e; stroke: #ff7f0e"/>
     <use xlink:href="#m17d327f438" x="446.888604" y="264.188577" style="fill: #ff7f0e; stroke: #ff7f0e"/>
     <use xlink:href="#m17d327f438" x="461.028155" y="190.606055" style="fill: #ff7f0e; stroke: #ff7f0e"/>
     <use xlink:href="#m17d327f438" x="489.307257" y="264.411245" style="fill: #ff7f0e; stroke: #ff7f0e"/>
     <use xlink:href="#m17d327f438" x="503.446808" y="262.857327" style="fill: #ff7f0e; stroke: #ff7f0e"/>
     <use xlink:href="#m17d327f438" x="517.586359" y="265.049844" style="fill: #ff7f0e; stroke: #ff7f0e"/>
     <use xlink:href="#m17d327f438" x="531.72591" y="264.293582" style="fill: #ff7f0e; stroke: #ff7f0e"/>
     <use xlink:href="#m17d327f438" x="545.865461" y="263.236634" style="fill: #ff7f0e; stroke: #ff7f0e"/>
     <use xlink:href="#m17d327f438" x="560.005012" y="265.036152" style="fill: #ff7f0e; stroke: #ff7f0e"/>
     <use xlink:href="#m17d327f438" x="574.144563" y="264.370489" style="fill: #ff7f0e; stroke: #ff7f0e"/>
     <use xlink:href="#m17d327f438" x="588.284114" y="248.352872" style="fill: #ff7f0e; stroke: #ff7f0e"/>
     <use xlink:href="#m17d327f438" x="616.563216" y="174.731505" style="fill: #ff7f0e; stroke: #ff7f0e"/>
     <use xlink:href="#m17d327f438" x="630.702767" y="262.691442" style="fill: #ff7f0e; stroke: #ff7f0e"/>
     <use xlink:href="#m17d327f438" x="644.842318" y="253.938582" style="fill: #ff7f0e; stroke: #ff7f0e"/>
     <use xlink:href="#m17d327f438" x="658.981869" y="244.468966" style="fill: #ff7f0e; stroke: #ff7f0e"/>
     <use xlink:href="#m17d327f438" x="673.12142" y="265.541461" style="fill: #ff7f0e; stroke: #ff7f0e"/>
    </g>
   </g>
   <g id="line2d_22">
    <path d="M 93.39983 275.451962 
L 107.539381 258.130167 
L 121.678932 238.385514 
L 135.818483 275.852534 
L 149.958034 223.96513 
L 164.097585 276.346236 
L 178.237136 275.843139 
L 192.376687 276.113749 
L 206.516238 234.99009 
L 220.655789 275.487736 
L 234.79534 276.144042 
L 248.934891 275.954801 
L 263.074442 241.130277 
L 277.213993 273.496645 
L 291.353544 275.274262 
L 305.493095 276.510916 
L 333.772197 276.389038 
L 347.911748 246.482343 
L 362.051299 276.212515 
L 376.19085 220.191991 
L 390.3304 276.153338 
L 404.469951 241.158996 
L 418.609502 275.75555 
L 432.749053 262.235579 
L 446.888604 275.005994 
L 461.028155 217.47246 
L 489.307257 276.067497 
L 503.446808 245.822545 
L 517.586359 275.072299 
L 531.72591 276.015132 
L 545.865461 259.864123 
L 560.005012 275.934693 
L 574.144563 276.236256 
L 588.284114 240.840901 
L 616.563216 240.338646 
L 630.702767 255.519397 
L 644.842318 262.338301 
L 658.981869 217.393919 
L 673.12142 273.751564 
" clip-path="url(#pe5e324307b)" style="fill: none; stroke: #2ca02c; stroke-width: 2; stroke-linecap: square"/>
    <defs>
     <path id="mc78465776b" d="M 0 3 
C 0.795609 3 1.55874 2.683901 2.12132 2.12132 
C 2.683901 1.55874 3 0.795609 3 0 
C 3 -0.795609 2.683901 -1.55874 2.12132 -2.12132 
C 1.55874 -2.683901 0.795609 -3 0 -3 
C -0.795609 -3 -1.55874 -2.683901 -2.12132 -2.12132 
C -2.683901 -1.55874 -3 -0.795609 -3 0 
C -3 0.795609 -2.683901 1.55874 -2.12132 2.12132 
C -1.55874 2.683901 -0.795609 3 0 3 
z
" style="stroke: #2ca02c"/>
    </defs>
    <g clip-path="url(#pe5e324307b)">
     <use xlink:href="#mc78465776b" x="93.39983" y="275.451962" style="fill: #2ca02c; stroke: #2ca02c"/>
     <use xlink:href="#mc78465776b" x="107.539381" y="258.130167" style="fill: #2ca02c; stroke: #2ca02c"/>
     <use xlink:href="#mc78465776b" x="121.678932" y="238.385514" style="fill: #2ca02c; stroke: #2ca02c"/>
     <use xlink:href="#mc78465776b" x="135.818483" y="275.852534" style="fill: #2ca02c; stroke: #2ca02c"/>
     <use xlink:href="#mc78465776b" x="149.958034" y="223.96513" style="fill: #2ca02c; stroke: #2ca02c"/>
     <use xlink:href="#mc78465776b" x="164.097585" y="276.346236" style="fill: #2ca02c; stroke: #2ca02c"/>
     <use xlink:href="#mc78465776b" x="178.237136" y="275.843139" style="fill: #2ca02c; stroke: #2ca02c"/>
     <use xlink:href="#mc78465776b" x="192.376687" y="276.113749" style="fill: #2ca02c; stroke: #2ca02c"/>
     <use xlink:href="#mc78465776b" x="206.516238" y="234.99009" style="fill: #2ca02c; stroke: #2ca02c"/>
     <use xlink:href="#mc78465776b" x="220.655789" y="275.487736" style="fill: #2ca02c; stroke: #2ca02c"/>
     <use xlink:href="#mc78465776b" x="234.79534" y="276.144042" style="fill: #2ca02c; stroke: #2ca02c"/>
     <use xlink:href="#mc78465776b" x="248.934891" y="275.954801" style="fill: #2ca02c; stroke: #2ca02c"/>
     <use xlink:href="#mc78465776b" x="263.074442" y="241.130277" style="fill: #2ca02c; stroke: #2ca02c"/>
     <use xlink:href="#mc78465776b" x="277.213993" y="273.496645" style="fill: #2ca02c; stroke: #2ca02c"/>
     <use xlink:href="#mc78465776b" x="291.353544" y="275.274262" style="fill: #2ca02c; stroke: #2ca02c"/>
     <use xlink:href="#mc78465776b" x="305.493095" y="276.510916" style="fill: #2ca02c; stroke: #2ca02c"/>
     <use xlink:href="#mc78465776b" x="333.772197" y="276.389038" style="fill: #2ca02c; stroke: #2ca02c"/>
     <use xlink:href="#mc78465776b" x="347.911748" y="246.482343" style="fill: #2ca02c; stroke: #2ca02c"/>
     <use xlink:href="#mc78465776b" x="362.051299" y="276.212515" style="fill: #2ca02c; stroke: #2ca02c"/>
     <use xlink:href="#mc78465776b" x="376.19085" y="220.191991" style="fill: #2ca02c; stroke: #2ca02c"/>
     <use xlink:href="#mc78465776b" x="390.3304" y="276.153338" style="fill: #2ca02c; stroke: #2ca02c"/>
     <use xlink:href="#mc78465776b" x="404.469951" y="241.158996" style="fill: #2ca02c; stroke: #2ca02c"/>
     <use xlink:href="#mc78465776b" x="418.609502" y="275.75555" style="fill: #2ca02c; stroke: #2ca02c"/>
     <use xlink:href="#mc78465776b" x="432.749053" y="262.235579" style="fill: #2ca02c; stroke: #2ca02c"/>
     <use xlink:href="#mc78465776b" x="446.888604" y="275.005994" style="fill: #2ca02c; stroke: #2ca02c"/>
     <use xlink:href="#mc78465776b" x="461.028155" y="217.47246" style="fill: #2ca02c; stroke: #2ca02c"/>
     <use xlink:href="#mc78465776b" x="489.307257" y="276.067497" style="fill: #2ca02c; stroke: #2ca02c"/>
     <use xlink:href="#mc78465776b" x="503.446808" y="245.822545" style="fill: #2ca02c; stroke: #2ca02c"/>
     <use xlink:href="#mc78465776b" x="517.586359" y="275.072299" style="fill: #2ca02c; stroke: #2ca02c"/>
     <use xlink:href="#mc78465776b" x="531.72591" y="276.015132" style="fill: #2ca02c; stroke: #2ca02c"/>
     <use xlink:href="#mc78465776b" x="545.865461" y="259.864123" style="fill: #2ca02c; stroke: #2ca02c"/>
     <use xlink:href="#mc78465776b" x="560.005012" y="275.934693" style="fill: #2ca02c; stroke: #2ca02c"/>
     <use xlink:href="#mc78465776b" x="574.144563" y="276.236256" style="fill: #2ca02c; stroke: #2ca02c"/>
     <use xlink:href="#mc78465776b" x="588.284114" y="240.840901" style="fill: #2ca02c; stroke: #2ca02c"/>
     <use xlink:href="#mc78465776b" x="616.563216" y="240.338646" style="fill: #2ca02c; stroke: #2ca02c"/>
     <use xlink:href="#mc78465776b" x="630.702767" y="255.519397" style="fill: #2ca02c; stroke: #2ca02c"/>
     <use xlink:href="#mc78465776b" x="644.842318" y="262.338301" style="fill: #2ca02c; stroke: #2ca02c"/>
     <use xlink:href="#mc78465776b" x="658.981869" y="217.393919" style="fill: #2ca02c; stroke: #2ca02c"/>
     <use xlink:href="#mc78465776b" x="673.12142" y="273.751564" style="fill: #2ca02c; stroke: #2ca02c"/>
    </g>
   </g>
   <g id="line2d_23">
    <path d="M 93.39983 503.126462 
L 107.539381 504.52824 
L 121.678932 503.595878 
L 135.818483 504.805829 
L 149.958034 333.232241 
L 164.097585 495.72534 
L 178.237136 503.757266 
L 192.376687 429.264007 
L 206.516238 504.610064 
L 220.655789 504.718648 
L 234.79534 503.956977 
L 248.934891 504.924767 
L 263.074442 502.537574 
L 291.353544 504.002047 
L 305.493095 503.359811 
L 333.772197 504.154535 
L 347.911748 505.124457 
L 362.051299 503.034622 
L 376.19085 504.40333 
L 390.3304 504.501249 
L 418.609502 503.987887 
L 432.749053 504.548832 
L 446.888604 503.550697 
L 461.028155 504.826167 
L 489.307257 504.481496 
L 503.446808 333.011895 
L 517.586359 504.668805 
L 531.72591 504.815301 
L 545.865461 505.299977 
L 560.005012 504.990042 
L 574.144563 504.60227 
L 588.284114 504.390815 
L 616.563216 333.523301 
L 630.702767 503.71788 
L 644.842318 504.169261 
L 673.12142 504.357166 
" clip-path="url(#pe5e324307b)" style="fill: none; stroke: #d62728; stroke-width: 2; stroke-linecap: square"/>
    <defs>
     <path id="m83b3e70092" d="M 0 3 
C 0.795609 3 1.55874 2.683901 2.12132 2.12132 
C 2.683901 1.55874 3 0.795609 3 0 
C 3 -0.795609 2.683901 -1.55874 2.12132 -2.12132 
C 1.55874 -2.683901 0.795609 -3 0 -3 
C -0.795609 -3 -1.55874 -2.683901 -2.12132 -2.12132 
C -2.683901 -1.55874 -3 -0.795609 -3 0 
C -3 0.795609 -2.683901 1.55874 -2.12132 2.12132 
C -1.55874 2.683901 -0.795609 3 0 3 
z
" style="stroke: #d62728"/>
    </defs>
    <g clip-path="url(#pe5e324307b)">
     <use xlink:href="#m83b3e70092" x="93.39983" y="503.126462" style="fill: #d62728; stroke: #d62728"/>
     <use xlink:href="#m83b3e70092" x="107.539381" y="504.52824" style="fill: #d62728; stroke: #d62728"/>
     <use xlink:href="#m83b3e70092" x="121.678932" y="503.595878" style="fill: #d62728; stroke: #d62728"/>
     <use xlink:href="#m83b3e70092" x="135.818483" y="504.805829" style="fill: #d62728; stroke: #d62728"/>
     <use xlink:href="#m83b3e70092" x="149.958034" y="333.232241" style="fill: #d62728; stroke: #d62728"/>
     <use xlink:href="#m83b3e70092" x="164.097585" y="495.72534" style="fill: #d62728; stroke: #d62728"/>
     <use xlink:href="#m83b3e70092" x="178.237136" y="503.757266" style="fill: #d62728; stroke: #d62728"/>
     <use xlink:href="#m83b3e70092" x="192.376687" y="429.264007" style="fill: #d62728; stroke: #d62728"/>
     <use xlink:href="#m83b3e70092" x="206.516238" y="504.610064" style="fill: #d62728; stroke: #d62728"/>
     <use xlink:href="#m83b3e70092" x="220.655789" y="504.718648" style="fill: #d62728; stroke: #d62728"/>
     <use xlink:href="#m83b3e70092" x="234.79534" y="503.956977" style="fill: #d62728; stroke: #d62728"/>
     <use xlink:href="#m83b3e70092" x="248.934891" y="504.924767" style="fill: #d62728; stroke: #d62728"/>
     <use xlink:href="#m83b3e70092" x="263.074442" y="502.537574" style="fill: #d62728; stroke: #d62728"/>
     <use xlink:href="#m83b3e70092" x="291.353544" y="504.002047" style="fill: #d62728; stroke: #d62728"/>
     <use xlink:href="#m83b3e70092" x="305.493095" y="503.359811" style="fill: #d62728; stroke: #d62728"/>
     <use xlink:href="#m83b3e70092" x="333.772197" y="504.154535" style="fill: #d62728; stroke: #d62728"/>
     <use xlink:href="#m83b3e70092" x="347.911748" y="505.124457" style="fill: #d62728; stroke: #d62728"/>
     <use xlink:href="#m83b3e70092" x="362.051299" y="503.034622" style="fill: #d62728; stroke: #d62728"/>
     <use xlink:href="#m83b3e70092" x="376.19085" y="504.40333" style="fill: #d62728; stroke: #d62728"/>
     <use xlink:href="#m83b3e70092" x="390.3304" y="504.501249" style="fill: #d62728; stroke: #d62728"/>
     <use xlink:href="#m83b3e70092" x="418.609502" y="503.987887" style="fill: #d62728; stroke: #d62728"/>
     <use xlink:href="#m83b3e70092" x="432.749053" y="504.548832" style="fill: #d62728; stroke: #d62728"/>
     <use xlink:href="#m83b3e70092" x="446.888604" y="503.550697" style="fill: #d62728; stroke: #d62728"/>
     <use xlink:href="#m83b3e70092" x="461.028155" y="504.826167" style="fill: #d62728; stroke: #d62728"/>
     <use xlink:href="#m83b3e70092" x="489.307257" y="504.481496" style="fill: #d62728; stroke: #d62728"/>
     <use xlink:href="#m83b3e70092" x="503.446808" y="333.011895" style="fill: #d62728; stroke: #d62728"/>
     <use xlink:href="#m83b3e70092" x="517.586359" y="504.668805" style="fill: #d62728; stroke: #d62728"/>
     <use xlink:href="#m83b3e70092" x="531.72591" y="504.815301" style="fill: #d62728; stroke: #d62728"/>
     <use xlink:href="#m83b3e70092" x="545.865461" y="505.299977" style="fill: #d62728; stroke: #d62728"/>
     <use xlink:href="#m83b3e70092" x="560.005012" y="504.990042" style="fill: #d62728; stroke: #d62728"/>
     <use xlink:href="#m83b3e70092" x="574.144563" y="504.60227" style="fill: #d62728; stroke: #d62728"/>
     <use xlink:href="#m83b3e70092" x="588.284114" y="504.390815" style="fill: #d62728; stroke: #d62728"/>
     <use xlink:href="#m83b3e70092" x="616.563216" y="333.523301" style="fill: #d62728; stroke: #d62728"/>
     <use xlink:href="#m83b3e70092" x="630.702767" y="503.71788" style="fill: #d62728; stroke: #d62728"/>
     <use xlink:href="#m83b3e70092" x="644.842318" y="504.169261" style="fill: #d62728; stroke: #d62728"/>
     <use xlink:href="#m83b3e70092" x="673.12142" y="504.357166" style="fill: #d62728; stroke: #d62728"/>
    </g>
   </g>
   <g id="line2d_24">
    <path d="M 93.39983 475.317341 
L 107.539381 472.037628 
L 121.678932 474.497648 
L 135.818483 474.49691 
L 149.958034 426.768565 
L 164.097585 429.408464 
L 178.237136 473.592651 
L 192.376687 410.911456 
L 206.516238 473.494835 
L 220.655789 474.696587 
L 234.79534 472.93101 
L 248.934891 476.260484 
L 263.074442 468.47285 
L 291.353544 472.557638 
L 305.493095 475.661567 
L 333.772197 471.710141 
L 347.911748 470.181029 
L 362.051299 474.896674 
L 376.19085 474.651718 
L 390.3304 475.987707 
L 418.609502 476.108573 
L 432.749053 471.107445 
L 446.888604 506.332202 
L 461.028155 505.877934 
L 489.307257 505.977285 
L 503.446808 428.683473 
L 517.586359 504.258748 
L 531.72591 505.309747 
L 545.865461 505.969168 
L 560.005012 505.977845 
L 574.144563 505.768274 
L 588.284114 504.563304 
L 616.563216 427.893622 
L 630.702767 506.077237 
L 644.842318 504.166483 
L 673.12142 504.134531 
" clip-path="url(#pe5e324307b)" style="fill: none; stroke: #9467bd; stroke-width: 2; stroke-linecap: square"/>
    <defs>
     <path id="m10c03095b7" d="M 0 3 
C 0.795609 3 1.55874 2.683901 2.12132 2.12132 
C 2.683901 1.55874 3 0.795609 3 0 
C 3 -0.795609 2.683901 -1.55874 2.12132 -2.12132 
C 1.55874 -2.683901 0.795609 -3 0 -3 
C -0.795609 -3 -1.55874 -2.683901 -2.12132 -2.12132 
C -2.683901 -1.55874 -3 -0.795609 -3 0 
C -3 0.795609 -2.683901 1.55874 -2.12132 2.12132 
C -1.55874 2.683901 -0.795609 3 0 3 
z
" style="stroke: #9467bd"/>
    </defs>
    <g clip-path="url(#pe5e324307b)">
     <use xlink:href="#m10c03095b7" x="93.39983" y="475.317341" style="fill: #9467bd; stroke: #9467bd"/>
     <use xlink:href="#m10c03095b7" x="107.539381" y="472.037628" style="fill: #9467bd; stroke: #9467bd"/>
     <use xlink:href="#m10c03095b7" x="121.678932" y="474.497648" style="fill: #9467bd; stroke: #9467bd"/>
     <use xlink:href="#m10c03095b7" x="135.818483" y="474.49691" style="fill: #9467bd; stroke: #9467bd"/>
     <use xlink:href="#m10c03095b7" x="149.958034" y="426.768565" style="fill: #9467bd; stroke: #9467bd"/>
     <use xlink:href="#m10c03095b7" x="164.097585" y="429.408464" style="fill: #9467bd; stroke: #9467bd"/>
     <use xlink:href="#m10c03095b7" x="178.237136" y="473.592651" style="fill: #9467bd; stroke: #9467bd"/>
     <use xlink:href="#m10c03095b7" x="192.376687" y="410.911456" style="fill: #9467bd; stroke: #9467bd"/>
     <use xlink:href="#m10c03095b7" x="206.516238" y="473.494835" style="fill: #9467bd; stroke: #9467bd"/>
     <use xlink:href="#m10c03095b7" x="220.655789" y="474.696587" style="fill: #9467bd; stroke: #9467bd"/>
     <use xlink:href="#m10c03095b7" x="234.79534" y="472.93101" style="fill: #9467bd; stroke: #9467bd"/>
     <use xlink:href="#m10c03095b7" x="248.934891" y="476.260484" style="fill: #9467bd; stroke: #9467bd"/>
     <use xlink:href="#m10c03095b7" x="263.074442" y="468.47285" style="fill: #9467bd; stroke: #9467bd"/>
     <use xlink:href="#m10c03095b7" x="291.353544" y="472.557638" style="fill: #9467bd; stroke: #9467bd"/>
     <use xlink:href="#m10c03095b7" x="305.493095" y="475.661567" style="fill: #9467bd; stroke: #9467bd"/>
     <use xlink:href="#m10c03095b7" x="333.772197" y="471.710141" style="fill: #9467bd; stroke: #9467bd"/>
     <use xlink:href="#m10c03095b7" x="347.911748" y="470.181029" style="fill: #9467bd; stroke: #9467bd"/>
     <use xlink:href="#m10c03095b7" x="362.051299" y="474.896674" style="fill: #9467bd; stroke: #9467bd"/>
     <use xlink:href="#m10c03095b7" x="376.19085" y="474.651718" style="fill: #9467bd; stroke: #9467bd"/>
     <use xlink:href="#m10c03095b7" x="390.3304" y="475.987707" style="fill: #9467bd; stroke: #9467bd"/>
     <use xlink:href="#m10c03095b7" x="418.609502" y="476.108573" style="fill: #9467bd; stroke: #9467bd"/>
     <use xlink:href="#m10c03095b7" x="432.749053" y="471.107445" style="fill: #9467bd; stroke: #9467bd"/>
     <use xlink:href="#m10c03095b7" x="446.888604" y="506.332202" style="fill: #9467bd; stroke: #9467bd"/>
     <use xlink:href="#m10c03095b7" x="461.028155" y="505.877934" style="fill: #9467bd; stroke: #9467bd"/>
     <use xlink:href="#m10c03095b7" x="489.307257" y="505.977285" style="fill: #9467bd; stroke: #9467bd"/>
     <use xlink:href="#m10c03095b7" x="503.446808" y="428.683473" style="fill: #9467bd; stroke: #9467bd"/>
     <use xlink:href="#m10c03095b7" x="517.586359" y="504.258748" style="fill: #9467bd; stroke: #9467bd"/>
     <use xlink:href="#m10c03095b7" x="531.72591" y="505.309747" style="fill: #9467bd; stroke: #9467bd"/>
     <use xlink:href="#m10c03095b7" x="545.865461" y="505.969168" style="fill: #9467bd; stroke: #9467bd"/>
     <use xlink:href="#m10c03095b7" x="560.005012" y="505.977845" style="fill: #9467bd; stroke: #9467bd"/>
     <use xlink:href="#m10c03095b7" x="574.144563" y="505.768274" style="fill: #9467bd; stroke: #9467bd"/>
     <use xlink:href="#m10c03095b7" x="588.284114" y="504.563304" style="fill: #9467bd; stroke: #9467bd"/>
     <use xlink:href="#m10c03095b7" x="616.563216" y="427.893622" style="fill: #9467bd; stroke: #9467bd"/>
     <use xlink:href="#m10c03095b7" x="630.702767" y="506.077237" style="fill: #9467bd; stroke: #9467bd"/>
     <use xlink:href="#m10c03095b7" x="644.842318" y="504.166483" style="fill: #9467bd; stroke: #9467bd"/>
     <use xlink:href="#m10c03095b7" x="673.12142" y="504.134531" style="fill: #9467bd; stroke: #9467bd"/>
    </g>
   </g>
   <g id="line2d_25">
    <path d="M 93.39983 268.939577 
L 107.539381 267.828467 
L 121.678932 268.527368 
L 135.818483 267.715805 
L 149.958034 221.366363 
L 164.097585 222.464459 
L 178.237136 268.210169 
L 192.376687 218.197725 
L 206.516238 269.463986 
L 220.655789 268.246805 
L 234.79534 268.398596 
L 248.934891 268.401033 
L 263.074442 267.548915 
L 291.353544 268.611663 
L 305.493095 267.917174 
L 333.772197 268.925136 
L 347.911748 269.466966 
L 362.051299 269.22487 
L 376.19085 270.06184 
L 390.3304 267.700484 
L 418.609502 268.59512 
L 432.749053 268.271903 
L 446.888604 270.834468 
L 461.028155 272.336148 
L 489.307257 271.908719 
L 503.446808 222.996044 
L 517.586359 272.337763 
L 531.72591 272.094961 
L 545.865461 271.527751 
L 560.005012 271.744101 
L 574.144563 271.174594 
L 588.284114 271.176309 
L 616.563216 224.299778 
L 630.702767 271.484397 
L 644.842318 240.428978 
L 673.12142 271.114481 
" clip-path="url(#pe5e324307b)" style="fill: none; stroke: #8c564b; stroke-width: 2; stroke-linecap: square"/>
    <defs>
     <path id="mda5fea35e0" d="M 0 3 
C 0.795609 3 1.55874 2.683901 2.12132 2.12132 
C 2.683901 1.55874 3 0.795609 3 0 
C 3 -0.795609 2.683901 -1.55874 2.12132 -2.12132 
C 1.55874 -2.683901 0.795609 -3 0 -3 
C -0.795609 -3 -1.55874 -2.683901 -2.12132 -2.12132 
C -2.683901 -1.55874 -3 -0.795609 -3 0 
C -3 0.795609 -2.683901 1.55874 -2.12132 2.12132 
C -1.55874 2.683901 -0.795609 3 0 3 
z
" style="stroke: #8c564b"/>
    </defs>
    <g clip-path="url(#pe5e324307b)">
     <use xlink:href="#mda5fea35e0" x="93.39983" y="268.939577" style="fill: #8c564b; stroke: #8c564b"/>
     <use xlink:href="#mda5fea35e0" x="107.539381" y="267.828467" style="fill: #8c564b; stroke: #8c564b"/>
     <use xlink:href="#mda5fea35e0" x="121.678932" y="268.527368" style="fill: #8c564b; stroke: #8c564b"/>
     <use xlink:href="#mda5fea35e0" x="135.818483" y="267.715805" style="fill: #8c564b; stroke: #8c564b"/>
     <use xlink:href="#mda5fea35e0" x="149.958034" y="221.366363" style="fill: #8c564b; stroke: #8c564b"/>
     <use xlink:href="#mda5fea35e0" x="164.097585" y="222.464459" style="fill: #8c564b; stroke: #8c564b"/>
     <use xlink:href="#mda5fea35e0" x="178.237136" y="268.210169" style="fill: #8c564b; stroke: #8c564b"/>
     <use xlink:href="#mda5fea35e0" x="192.376687" y="218.197725" style="fill: #8c564b; stroke: #8c564b"/>
     <use xlink:href="#mda5fea35e0" x="206.516238" y="269.463986" style="fill: #8c564b; stroke: #8c564b"/>
     <use xlink:href="#mda5fea35e0" x="220.655789" y="268.246805" style="fill: #8c564b; stroke: #8c564b"/>
     <use xlink:href="#mda5fea35e0" x="234.79534" y="268.398596" style="fill: #8c564b; stroke: #8c564b"/>
     <use xlink:href="#mda5fea35e0" x="248.934891" y="268.401033" style="fill: #8c564b; stroke: #8c564b"/>
     <use xlink:href="#mda5fea35e0" x="263.074442" y="267.548915" style="fill: #8c564b; stroke: #8c564b"/>
     <use xlink:href="#mda5fea35e0" x="291.353544" y="268.611663" style="fill: #8c564b; stroke: #8c564b"/>
     <use xlink:href="#mda5fea35e0" x="305.493095" y="267.917174" style="fill: #8c564b; stroke: #8c564b"/>
     <use xlink:href="#mda5fea35e0" x="333.772197" y="268.925136" style="fill: #8c564b; stroke: #8c564b"/>
     <use xlink:href="#mda5fea35e0" x="347.911748" y="269.466966" style="fill: #8c564b; stroke: #8c564b"/>
     <use xlink:href="#mda5fea35e0" x="362.051299" y="269.22487" style="fill: #8c564b; stroke: #8c564b"/>
     <use xlink:href="#mda5fea35e0" x="376.19085" y="270.06184" style="fill: #8c564b; stroke: #8c564b"/>
     <use xlink:href="#mda5fea35e0" x="390.3304" y="267.700484" style="fill: #8c564b; stroke: #8c564b"/>
     <use xlink:href="#mda5fea35e0" x="418.609502" y="268.59512" style="fill: #8c564b; stroke: #8c564b"/>
     <use xlink:href="#mda5fea35e0" x="432.749053" y="268.271903" style="fill: #8c564b; stroke: #8c564b"/>
     <use xlink:href="#mda5fea35e0" x="446.888604" y="270.834468" style="fill: #8c564b; stroke: #8c564b"/>
     <use xlink:href="#mda5fea35e0" x="461.028155" y="272.336148" style="fill: #8c564b; stroke: #8c564b"/>
     <use xlink:href="#mda5fea35e0" x="489.307257" y="271.908719" style="fill: #8c564b; stroke: #8c564b"/>
     <use xlink:href="#mda5fea35e0" x="503.446808" y="222.996044" style="fill: #8c564b; stroke: #8c564b"/>
     <use xlink:href="#mda5fea35e0" x="517.586359" y="272.337763" style="fill: #8c564b; stroke: #8c564b"/>
     <use xlink:href="#mda5fea35e0" x="531.72591" y="272.094961" style="fill: #8c564b; stroke: #8c564b"/>
     <use xlink:href="#mda5fea35e0" x="545.865461" y="271.527751" style="fill: #8c564b; stroke: #8c564b"/>
     <use xlink:href="#mda5fea35e0" x="560.005012" y="271.744101" style="fill: #8c564b; stroke: #8c564b"/>
     <use xlink:href="#mda5fea35e0" x="574.144563" y="271.174594" style="fill: #8c564b; stroke: #8c564b"/>
     <use xlink:href="#mda5fea35e0" x="588.284114" y="271.176309" style="fill: #8c564b; stroke: #8c564b"/>
     <use xlink:href="#mda5fea35e0" x="616.563216" y="224.299778" style="fill: #8c564b; stroke: #8c564b"/>
     <use xlink:href="#mda5fea35e0" x="630.702767" y="271.484397" style="fill: #8c564b; stroke: #8c564b"/>
     <use xlink:href="#mda5fea35e0" x="644.842318" y="240.428978" style="fill: #8c564b; stroke: #8c564b"/>
     <use xlink:href="#mda5fea35e0" x="673.12142" y="271.114481" style="fill: #8c564b; stroke: #8c564b"/>
    </g>
   </g>
   <g id="patch_3">
    <path d="M 64.41375 529.308125 
L 64.41375 23.837813 
" style="fill: none; stroke: #000000; stroke-width: 0.8; stroke-linejoin: miter; stroke-linecap: square"/>
   </g>
   <g id="patch_4">
    <path d="M 702.1075 529.308125 
L 702.1075 23.837813 
" style="fill: none; stroke: #000000; stroke-width: 0.8; stroke-linejoin: miter; stroke-linecap: square"/>
   </g>
   <g id="patch_5">
    <path d="M 64.41375 529.308125 
L 702.1075 529.308125 
" style="fill: none; stroke: #000000; stroke-width: 0.8; stroke-linejoin: miter; stroke-linecap: square"/>
   </g>
   <g id="patch_6">
    <path d="M 64.41375 23.837812 
L 702.1075 23.837812 
" style="fill: none; stroke: #000000; stroke-width: 0.8; stroke-linejoin: miter; stroke-linecap: square"/>
   </g>
   <g id="text_13">
    <text style="font: 700 14px 'DejaVu Sans', 'Bitstream Vera Sans', 'Computer Modern Sans Serif', 'Lucida Grande', 'Verdana', 'Geneva', 'Lucid', 'Arial', 'Helvetica', 'Avant Garde', sans-serif; text-anchor: middle" x="383.260625" y="17.837813" transform="rotate(-0 383.260625 17.837813)">Parallelfor Vectorops - Performance Trend</text>
   </g>
   <g id="legend_1">
    <g id="patch_7">
     <path d="M 740.992188 119.906563 
L 846.004688 119.906563 
Q 848.004688 119.906563 848.004688 117.906563 
L 848.004688 30.837813 
Q 848.004688 28.837813 846.004688 28.837813 
L 740.992188 28.837813 
Q 738.992188 28.837813 738.992188 30.837813 
L 738.992188 117.906563 
Q 738.992188 119.906563 740.992188 119.906563 
z
" style="fill: #ffffff; opacity: 0.8; stroke: #cccccc; stroke-linejoin: miter"/>
    </g>
    <g id="line2d_26">
     <path d="M 742.992188 36.93625 
L 752.992188 36.93625 
L 762.992188 36.93625 
" style="fill: none; stroke: #1f77b4; stroke-width: 2; stroke-linecap: square"/>
     <g>
      <use xlink:href="#mbafa297390" x="752.992188" y="36.93625" style="fill: #1f77b4; stroke: #1f77b4"/>
     </g>
    </g>
    <g id="text_14">
     <text style="font: 10px 'DejaVu Sans', 'Bitstream Vera Sans', 'Computer Modern Sans Serif', 'Lucida Grande', 'Verdana', 'Geneva', 'Lucid', 'Arial', 'Helvetica', 'Avant Garde', sans-serif; text-anchor: start" x="770.992188" y="40.43625" transform="rotate(-0 770.992188 40.43625)">gcc-14.2 - V1</text>
    </g>
    <g id="line2d_27">
     <path d="M 742.992188 51.614375 
L 752.992188 51.614375 
L 762.992188 51.614375 
" style="fill: none; stroke: #ff7f0e; stroke-width: 2; stroke-linecap: square"/>
     <g>
      <use xlink:href="#m17d327f438" x="752.992188" y="51.614375" style="fill: #ff7f0e; stroke: #ff7f0e"/>
     </g>
    </g>
    <g id="text_15">
     <text style="font: 10px 'DejaVu Sans', 'Bitstream Vera Sans', 'Computer Modern Sans Serif', 'Lucida Grande', 'Verdana', 'Geneva', 'Lucid', 'Arial', 'Helvetica', 'Avant Garde', sans-serif; text-anchor: start" x="770.992188" y="55.114375" transform="rotate(-0 770.992188 55.114375)">gcc-14.2 - V2</text>
    </g>
    <g id="line2d_28">
     <path d="M 742.992188 66.2925 
L 752.992188 66.2925 
L 762.992188 66.2925 
" style="fill: none; stroke: #2ca02c; stroke-width: 2; stroke-linecap: square"/>
     <g>
      <use xlink:href="#mc78465776b" x="752.992188" y="66.2925" style="fill: #2ca02c; stroke: #2ca02c"/>
     </g>
    </g>
    <g id="text_16">
     <text style="font: 10px 'DejaVu Sans', 'Bitstream Vera Sans', 'Computer Modern Sans Serif', 'Lucida Grande', 'Verdana', 'Geneva', 'Lucid', 'Arial', 'Helvetica', 'Avant Garde', sans-serif; text-anchor: start" x="770.992188" y="69.7925" transform="rotate(-0 770.992188 69.7925)">gcc-14.2 - TBB</text>
    </g>
    <g id="line2d_29">
     <path d="M 742.992188 80.970625 
L 752.992188 80.970625 
L 762.992188 80.970625 
" style="fill: none; stroke: #d62728; stroke-width: 2; stroke-linecap: square"/>
     <g>
      <use xlink:href="#m83b3e70092" x="752.992188" y="80.970625" style="fill: #d62728; stroke: #d62728"/>
     </g>
    </g>
    <g id="text_17">
     <text style="font: 10px 'DejaVu Sans', 'Bitstream Vera Sans', 'Computer Modern Sans Serif', 'Lucida Grande', 'Verdana', 'Geneva', 'Lucid', 'Arial', 'Helvetica', 'Avant Garde', sans-serif; text-anchor: start" x="770.992188" y="84.470625" transform="rotate(-0 770.992188 84.470625)">gcc-4.2 - V1</text>
    </g>
    <g id="line2d_30">
     <path d="M 742.992188 95.64875 
L 752.992188 95.64875 
L 762.992188 95.64875 
" style="fill: none; stroke: #9467bd; stroke-width: 2; stroke-linecap: square"/>
     <g>
      <use xlink:href="#m10c03095b7" x="752.992188" y="95.64875" style="fill: #9467bd; stroke: #9467bd"/>
     </g>
    </g>
    <g id="text_18">
     <text style="font: 10px 'DejaVu Sans', 'Bitstream Vera Sans', 'Computer Modern Sans Serif', 'Lucida Grande', 'Verdana', 'Geneva', 'Lucid', 'Arial', 'Helvetica', 'Avant Garde', sans-serif; text-anchor: start" x="770.992188" y="99.14875" transform="rotate(-0 770.992188 99.14875)">gcc-4.2 - V2</text>
    </g>
    <g id="line2d_31">
     <path d="M 742.992188 110.326875 
L 752.992188 110.326875 
L 762.992188 110.326875 
" style="fill: none; stroke: #8c564b; stroke-width: 2; stroke-linecap: square"/>
     <g>
      <use xlink:href="#mda5fea35e0" x="752.992188" y="110.326875" style="fill: #8c564b; stroke: #8c564b"/>
     </g>
    </g>
    <g id="text_19">
     <text style="font: 10px 'DejaVu Sans', 'Bitstream Vera Sans', 'Computer Modern Sans Serif', 'Lucida Grande', 'Verdana', 'Geneva', 'Lucid', 'Arial', 'Helvetica', 'Avant Garde', sans-serif; text-anchor: start" x="770.992188" y="113.826875" transform="rotate(-0 770.992188 113.826875)">gcc-4.2 - TBB</text>
    </g>
   </g>
  </g>
 </g>
 <defs>
  <clipPath id="pe5e324307b">
   <rect x="64.41375" y="23.837813" width="637.69375" height="505.470313"/>
  </clipPath>
 </defs>
</svg>
