<?xml version="1.0" encoding="utf-8" standalone="no"?>
<!DOCTYPE svg PUBLIC "-//W3C//DTD SVG 1.1//EN"
  "http://www.w3.org/Graphics/SVG/1.1/DTD/svg11.dtd">
<svg xmlns:xlink="http://www.w3.org/1999/xlink" width="855.889141pt" height="568.8pt" viewBox="0 0 855.889141 568.8" xmlns="http://www.w3.org/2000/svg" version="1.1">
 <metadata>
  <rdf:RDF xmlns:dc="http://purl.org/dc/elements/1.1/" xmlns:cc="http://creativecommons.org/ns#" xmlns:rdf="http://www.w3.org/1999/02/22-rdf-syntax-ns#">
   <cc:Work>
    <dc:type rdf:resource="http://purl.org/dc/dcmitype/StillImage"/>
    <dc:date>2025-08-13T20:43:06.376925</dc:date>
    <dc:format>image/svg+xml</dc:format>
    <dc:creator>
     <cc:Agent>
      <dc:title>Matplotlib v3.9.4, https://matplotlib.org/</dc:title>
     </cc:Agent>
    </dc:creator>
   </cc:Work>
  </rdf:RDF>
 </metadata>
 <defs>
  <style type="text/css">*{stroke-linejoin: round; stroke-linecap: butt}</style>
 </defs>
 <g id="figure_1">
  <g id="patch_1">
   <path d="M 0 568.8 
L 855.889141 568.8 
L 855.889141 0 
L 0 0 
z
" style="fill: #ffffff"/>
  </g>
  <g id="axes_1">
   <g id="patch_2">
    <path d="M 80.31375 529.308125 
L 731.696562 529.308125 
L 731.696562 23.837812 
L 80.31375 23.837812 
z
" style="fill: #ffffff"/>
   </g>
   <g id="matplotlib.axis_1">
    <g id="xtick_1">
     <g id="line2d_1">
      <path d="M 152.219645 529.308125 
L 152.219645 23.837812 
" clip-path="url(#p1df67ad792)" style="fill: none; stroke: #b0b0b0; stroke-opacity: 0.3; stroke-width: 0.8; stroke-linecap: square"/>
     </g>
     <g id="line2d_2">
      <defs>
       <path id="m1d49230fd8" d="M 0 0 
L 0 3.5 
" style="stroke: #000000; stroke-width: 0.8"/>
      </defs>
      <g>
       <use xlink:href="#m1d49230fd8" x="152.219645" y="529.308125" style="stroke: #000000; stroke-width: 0.8"/>
      </g>
     </g>
     <g id="text_1">
      <text style="font: 10px 'DejaVu Sans', 'Bitstream Vera Sans', 'Computer Modern Sans Serif', 'Lucida Grande', 'Verdana', 'Geneva', 'Lucid', 'Arial', 'Helvetica', 'Avant Garde', sans-serif; text-anchor: middle" x="152.219645" y="543.906563" transform="rotate(-0 152.219645 543.906563)">72</text>
     </g>
    </g>
    <g id="xtick_2">
     <g id="line2d_3">
      <path d="M 236.814815 529.308125 
L 236.814815 23.837812 
" clip-path="url(#p1df67ad792)" style="fill: none; stroke: #b0b0b0; stroke-opacity: 0.3; stroke-width: 0.8; stroke-linecap: square"/>
     </g>
     <g id="line2d_4">
      <g>
       <use xlink:href="#m1d49230fd8" x="236.814815" y="529.308125" style="stroke: #000000; stroke-width: 0.8"/>
      </g>
     </g>
     <g id="text_2">
      <text style="font: 10px 'DejaVu Sans', 'Bitstream Vera Sans', 'Computer Modern Sans Serif', 'Lucida Grande', 'Verdana', 'Geneva', 'Lucid', 'Arial', 'Helvetica', 'Avant Garde', sans-serif; text-anchor: middle" x="236.814815" y="543.906563" transform="rotate(-0 236.814815 543.906563)">74</text>
     </g>
    </g>
    <g id="xtick_3">
     <g id="line2d_5">
      <path d="M 321.409986 529.308125 
L 321.409986 23.837812 
" clip-path="url(#p1df67ad792)" style="fill: none; stroke: #b0b0b0; stroke-opacity: 0.3; stroke-width: 0.8; stroke-linecap: square"/>
     </g>
     <g id="line2d_6">
      <g>
       <use xlink:href="#m1d49230fd8" x="321.409986" y="529.308125" style="stroke: #000000; stroke-width: 0.8"/>
      </g>
     </g>
     <g id="text_3">
      <text style="font: 10px 'DejaVu Sans', 'Bitstream Vera Sans', 'Computer Modern Sans Serif', 'Lucida Grande', 'Verdana', 'Geneva', 'Lucid', 'Arial', 'Helvetica', 'Avant Garde', sans-serif; text-anchor: middle" x="321.409986" y="543.906563" transform="rotate(-0 321.409986 543.906563)">76</text>
     </g>
    </g>
    <g id="xtick_4">
     <g id="line2d_7">
      <path d="M 406.005156 529.308125 
L 406.005156 23.837812 
" clip-path="url(#p1df67ad792)" style="fill: none; stroke: #b0b0b0; stroke-opacity: 0.3; stroke-width: 0.8; stroke-linecap: square"/>
     </g>
     <g id="line2d_8">
      <g>
       <use xlink:href="#m1d49230fd8" x="406.005156" y="529.308125" style="stroke: #000000; stroke-width: 0.8"/>
      </g>
     </g>
     <g id="text_4">
      <text style="font: 10px 'DejaVu Sans', 'Bitstream Vera Sans', 'Computer Modern Sans Serif', 'Lucida Grande', 'Verdana', 'Geneva', 'Lucid', 'Arial', 'Helvetica', 'Avant Garde', sans-serif; text-anchor: middle" x="406.005156" y="543.906563" transform="rotate(-0 406.005156 543.906563)">78</text>
     </g>
    </g>
    <g id="xtick_5">
     <g id="line2d_9">
      <path d="M 490.600327 529.308125 
L 490.600327 23.837812 
" clip-path="url(#p1df67ad792)" style="fill: none; stroke: #b0b0b0; stroke-opacity: 0.3; stroke-width: 0.8; stroke-linecap: square"/>
     </g>
     <g id="line2d_10">
      <g>
       <use xlink:href="#m1d49230fd8" x="490.600327" y="529.308125" style="stroke: #000000; stroke-width: 0.8"/>
      </g>
     </g>
     <g id="text_5">
      <text style="font: 10px 'DejaVu Sans', 'Bitstream Vera Sans', 'Computer Modern Sans Serif', 'Lucida Grande', 'Verdana', 'Geneva', 'Lucid', 'Arial', 'Helvetica', 'Avant Garde', sans-serif; text-anchor: middle" x="490.600327" y="543.906563" transform="rotate(-0 490.600327 543.906563)">80</text>
     </g>
    </g>
    <g id="xtick_6">
     <g id="line2d_11">
      <path d="M 575.195497 529.308125 
L 575.195497 23.837812 
" clip-path="url(#p1df67ad792)" style="fill: none; stroke: #b0b0b0; stroke-opacity: 0.3; stroke-width: 0.8; stroke-linecap: square"/>
     </g>
     <g id="line2d_12">
      <g>
       <use xlink:href="#m1d49230fd8" x="575.195497" y="529.308125" style="stroke: #000000; stroke-width: 0.8"/>
      </g>
     </g>
     <g id="text_6">
      <text style="font: 10px 'DejaVu Sans', 'Bitstream Vera Sans', 'Computer Modern Sans Serif', 'Lucida Grande', 'Verdana', 'Geneva', 'Lucid', 'Arial', 'Helvetica', 'Avant Garde', sans-serif; text-anchor: middle" x="575.195497" y="543.906563" transform="rotate(-0 575.195497 543.906563)">82</text>
     </g>
    </g>
    <g id="xtick_7">
     <g id="line2d_13">
      <path d="M 659.790668 529.308125 
L 659.790668 23.837812 
" clip-path="url(#p1df67ad792)" style="fill: none; stroke: #b0b0b0; stroke-opacity: 0.3; stroke-width: 0.8; stroke-linecap: square"/>
     </g>
     <g id="line2d_14">
      <g>
       <use xlink:href="#m1d49230fd8" x="659.790668" y="529.308125" style="stroke: #000000; stroke-width: 0.8"/>
      </g>
     </g>
     <g id="text_7">
      <text style="font: 10px 'DejaVu Sans', 'Bitstream Vera Sans', 'Computer Modern Sans Serif', 'Lucida Grande', 'Verdana', 'Geneva', 'Lucid', 'Arial', 'Helvetica', 'Avant Garde', sans-serif; text-anchor: middle" x="659.790668" y="543.906563" transform="rotate(-0 659.790668 543.906563)">84</text>
     </g>
    </g>
    <g id="text_8">
     <text style="font: 12px 'DejaVu Sans', 'Bitstream Vera Sans', 'Computer Modern Sans Serif', 'Lucida Grande', 'Verdana', 'Geneva', 'Lucid', 'Arial', 'Helvetica', 'Avant Garde', sans-serif; text-anchor: middle" x="406.005156" y="559.104375" transform="rotate(-0 406.005156 559.104375)">Build Number</text>
    </g>
   </g>
   <g id="matplotlib.axis_2">
    <g id="ytick_1">
     <g id="line2d_15">
      <defs>
       <path id="me6bff0af90" d="M 0 0 
L -2 0 
" style="stroke: #000000; stroke-width: 0.6"/>
      </defs>
      <g>
       <use xlink:href="#me6bff0af90" x="80.31375" y="475.25484" style="stroke: #000000; stroke-width: 0.6"/>
      </g>
     </g>
     <g id="text_9">
      <!-- $\mathdefault{1.95\times10^{2}}$ -->
      <g transform="translate(22.81375 479.054059)">
       <text>
        <tspan style="font: 10px 'DejaVu Sans'" x="0 6.362305 9.541016 15.90332 24.213867 34.541016 40.90332" y="-0.9765625">1.95×10</tspan>
        <tspan style="font: 7px 'DejaVu Sans'" x="47.361328" y="-4.8046875">2</tspan>
       </text>
      </g>
     </g>
    </g>
    <g id="ytick_2">
     <g id="line2d_16">
      <g>
       <use xlink:href="#me6bff0af90" x="80.31375" y="396.562261" style="stroke: #000000; stroke-width: 0.6"/>
      </g>
     </g>
     <g id="text_10">
      <!-- $\mathdefault{2\times10^{2}}$ -->
      <g transform="translate(38.71375 400.36148)">
       <text>
        <tspan style="font: 10px 'DejaVu Sans'" x="0 8.310547 18.637695 25" y="-0.9765625">2×10</tspan>
        <tspan style="font: 7px 'DejaVu Sans'" x="31.458008" y="-4.8046875">2</tspan>
       </text>
      </g>
     </g>
    </g>
    <g id="ytick_3">
     <g id="line2d_17">
      <g>
       <use xlink:href="#me6bff0af90" x="80.31375" y="319.812908" style="stroke: #000000; stroke-width: 0.6"/>
      </g>
     </g>
     <g id="text_11">
      <!-- $\mathdefault{2.05\times10^{2}}$ -->
      <g transform="translate(22.81375 323.612127)">
       <text>
        <tspan style="font: 10px 'DejaVu Sans'" x="0 6.362305 9.541016 15.90332 24.213867 34.541016 40.90332" y="-0.9765625">2.05×10</tspan>
        <tspan style="font: 7px 'DejaVu Sans'" x="47.361328" y="-4.8046875">2</tspan>
       </text>
      </g>
     </g>
    </g>
    <g id="ytick_4">
     <g id="line2d_18">
      <g>
       <use xlink:href="#me6bff0af90" x="80.31375" y="244.913119" style="stroke: #000000; stroke-width: 0.6"/>
      </g>
     </g>
     <g id="text_12">
      <!-- $\mathdefault{2.1\times10^{2}}$ -->
      <g transform="translate(29.11375 248.712338)">
       <text>
        <tspan style="font: 10px 'DejaVu Sans'" x="0 6.362305 9.541016 17.851562 28.178711 34.541016" y="-0.9765625">2.1×10</tspan>
        <tspan style="font: 7px 'DejaVu Sans'" x="40.999023" y="-4.8046875">2</tspan>
       </text>
      </g>
     </g>
    </g>
    <g id="ytick_5">
     <g id="line2d_19">
      <g>
       <use xlink:href="#me6bff0af90" x="80.31375" y="171.775842" style="stroke: #000000; stroke-width: 0.6"/>
      </g>
     </g>
     <g id="text_13">
      <!-- $\mathdefault{2.15\times10^{2}}$ -->
      <g transform="translate(22.81375 175.575061)">
       <text>
        <tspan style="font: 10px 'DejaVu Sans'" x="0 6.362305 9.541016 15.90332 24.213867 34.541016 40.90332" y="-0.9765625">2.15×10</tspan>
        <tspan style="font: 7px 'DejaVu Sans'" x="47.361328" y="-4.8046875">2</tspan>
       </text>
      </g>
     </g>
    </g>
    <g id="ytick_6">
     <g id="line2d_20">
      <g>
       <use xlink:href="#me6bff0af90" x="80.31375" y="100.320032" style="stroke: #000000; stroke-width: 0.6"/>
      </g>
     </g>
     <g id="text_14">
      <!-- $\mathdefault{2.2\times10^{2}}$ -->
      <g transform="translate(29.71375 104.119251)">
       <text>
        <tspan style="font: 10px 'DejaVu Sans'" x="0 6.362305 9.041016 17.351562 27.678711 34.041016" y="-0.9765625">2.2×10</tspan>
        <tspan style="font: 7px 'DejaVu Sans'" x="40.499023" y="-4.8046875">2</tspan>
       </text>
      </g>
     </g>
    </g>
    <g id="ytick_7">
     <g id="line2d_21">
      <g>
       <use xlink:href="#me6bff0af90" x="80.31375" y="30.470107" style="stroke: #000000; stroke-width: 0.6"/>
      </g>
     </g>
     <g id="text_15">
      <!-- $\mathdefault{2.25\times10^{2}}$ -->
      <g transform="translate(23.31375 34.269326)">
       <text>
        <tspan style="font: 10px 'DejaVu Sans'" x="0 6.362305 9.041016 15.40332 23.713867 34.041016 40.40332" y="-0.9765625">2.25×10</tspan>
        <tspan style="font: 7px 'DejaVu Sans'" x="46.861328" y="-4.8046875">2</tspan>
       </text>
      </g>
     </g>
    </g>
    <g id="text_16">
     <text style="font: 12px 'DejaVu Sans', 'Bitstream Vera Sans', 'Computer Modern Sans Serif', 'Lucida Grande', 'Verdana', 'Geneva', 'Lucid', 'Arial', 'Helvetica', 'Avant Garde', sans-serif; text-anchor: middle" x="16.318125" y="276.572969" transform="rotate(-90 16.318125 276.572969)">Median Elapsed Time (nanoseconds)</text>
    </g>
   </g>
   <g id="line2d_22">
    <path d="M 109.92206 328.558362 
L 152.219645 297.303372 
L 194.51723 506.332202 
L 236.814815 305.039534 
L 279.112401 315.570471 
L 321.409986 125.85529 
L 363.707571 135.699698 
L 406.005156 503.113946 
L 448.302741 316.93348 
L 490.600327 482.276118 
L 532.897912 115.757981 
L 575.195497 319.964531 
L 617.493082 327.555115 
L 702.088253 313.905382 
" clip-path="url(#p1df67ad792)" style="fill: none; stroke: #1f77b4; stroke-width: 2; stroke-linecap: square"/>
    <defs>
     <path id="mf390b4edb3" d="M 0 3 
C 0.795609 3 1.55874 2.683901 2.12132 2.12132 
C 2.683901 1.55874 3 0.795609 3 0 
C 3 -0.795609 2.683901 -1.55874 2.12132 -2.12132 
C 1.55874 -2.683901 0.795609 -3 0 -3 
C -0.795609 -3 -1.55874 -2.683901 -2.12132 -2.12132 
C -2.683901 -1.55874 -3 -0.795609 -3 0 
C -3 0.795609 -2.683901 1.55874 -2.12132 2.12132 
C -1.55874 2.683901 -0.795609 3 0 3 
z
" style="stroke: #1f77b4"/>
    </defs>
    <g clip-path="url(#p1df67ad792)">
     <use xlink:href="#mf390b4edb3" x="109.92206" y="328.558362" style="fill: #1f77b4; stroke: #1f77b4"/>
     <use xlink:href="#mf390b4edb3" x="152.219645" y="297.303372" style="fill: #1f77b4; stroke: #1f77b4"/>
     <use xlink:href="#mf390b4edb3" x="194.51723" y="506.332202" style="fill: #1f77b4; stroke: #1f77b4"/>
     <use xlink:href="#mf390b4edb3" x="236.814815" y="305.039534" style="fill: #1f77b4; stroke: #1f77b4"/>
     <use xlink:href="#mf390b4edb3" x="279.112401" y="315.570471" style="fill: #1f77b4; stroke: #1f77b4"/>
     <use xlink:href="#mf390b4edb3" x="321.409986" y="125.85529" style="fill: #1f77b4; stroke: #1f77b4"/>
     <use xlink:href="#mf390b4edb3" x="363.707571" y="135.699698" style="fill: #1f77b4; stroke: #1f77b4"/>
     <use xlink:href="#mf390b4edb3" x="406.005156" y="503.113946" style="fill: #1f77b4; stroke: #1f77b4"/>
     <use xlink:href="#mf390b4edb3" x="448.302741" y="316.93348" style="fill: #1f77b4; stroke: #1f77b4"/>
     <use xlink:href="#mf390b4edb3" x="490.600327" y="482.276118" style="fill: #1f77b4; stroke: #1f77b4"/>
     <use xlink:href="#mf390b4edb3" x="532.897912" y="115.757981" style="fill: #1f77b4; stroke: #1f77b4"/>
     <use xlink:href="#mf390b4edb3" x="575.195497" y="319.964531" style="fill: #1f77b4; stroke: #1f77b4"/>
     <use xlink:href="#mf390b4edb3" x="617.493082" y="327.555115" style="fill: #1f77b4; stroke: #1f77b4"/>
     <use xlink:href="#mf390b4edb3" x="702.088253" y="313.905382" style="fill: #1f77b4; stroke: #1f77b4"/>
    </g>
   </g>
   <g id="line2d_23">
    <path d="M 109.92206 318.600193 
L 152.219645 297.032015 
L 194.51723 309.519874 
L 236.814815 118.598976 
L 279.112401 274.806235 
L 321.409986 455.077386 
L 363.707571 489.516655 
L 406.005156 274.806235 
L 448.302741 302.750115 
L 490.600327 69.252626 
L 532.897912 46.813736 
L 575.195497 464.59372 
L 617.493082 94.39187 
L 659.790668 335.316656 
L 702.088253 456.66142 
" clip-path="url(#p1df67ad792)" style="fill: none; stroke: #ff7f0e; stroke-width: 2; stroke-linecap: square"/>
    <defs>
     <path id="m52df975eef" d="M 0 3 
C 0.795609 3 1.55874 2.683901 2.12132 2.12132 
C 2.683901 1.55874 3 0.795609 3 0 
C 3 -0.795609 2.683901 -1.55874 2.12132 -2.12132 
C 1.55874 -2.683901 0.795609 -3 0 -3 
C -0.795609 -3 -1.55874 -2.683901 -2.12132 -2.12132 
C -2.683901 -1.55874 -3 -0.795609 -3 0 
C -3 0.795609 -2.683901 1.55874 -2.12132 2.12132 
C -1.55874 2.683901 -0.795609 3 0 3 
z
" style="stroke: #ff7f0e"/>
    </defs>
    <g clip-path="url(#p1df67ad792)">
     <use xlink:href="#m52df975eef" x="109.92206" y="318.600193" style="fill: #ff7f0e; stroke: #ff7f0e"/>
     <use xlink:href="#m52df975eef" x="152.219645" y="297.032015" style="fill: #ff7f0e; stroke: #ff7f0e"/>
     <use xlink:href="#m52df975eef" x="194.51723" y="309.519874" style="fill: #ff7f0e; stroke: #ff7f0e"/>
     <use xlink:href="#m52df975eef" x="236.814815" y="118.598976" style="fill: #ff7f0e; stroke: #ff7f0e"/>
     <use xlink:href="#m52df975eef" x="279.112401" y="274.806235" style="fill: #ff7f0e; stroke: #ff7f0e"/>
     <use xlink:href="#m52df975eef" x="321.409986" y="455.077386" style="fill: #ff7f0e; stroke: #ff7f0e"/>
     <use xlink:href="#m52df975eef" x="363.707571" y="489.516655" style="fill: #ff7f0e; stroke: #ff7f0e"/>
     <use xlink:href="#m52df975eef" x="406.005156" y="274.806235" style="fill: #ff7f0e; stroke: #ff7f0e"/>
     <use xlink:href="#m52df975eef" x="448.302741" y="302.750115" style="fill: #ff7f0e; stroke: #ff7f0e"/>
     <use xlink:href="#m52df975eef" x="490.600327" y="69.252626" style="fill: #ff7f0e; stroke: #ff7f0e"/>
     <use xlink:href="#m52df975eef" x="532.897912" y="46.813736" style="fill: #ff7f0e; stroke: #ff7f0e"/>
     <use xlink:href="#m52df975eef" x="575.195497" y="464.59372" style="fill: #ff7f0e; stroke: #ff7f0e"/>
     <use xlink:href="#m52df975eef" x="617.493082" y="94.39187" style="fill: #ff7f0e; stroke: #ff7f0e"/>
     <use xlink:href="#m52df975eef" x="659.790668" y="335.316656" style="fill: #ff7f0e; stroke: #ff7f0e"/>
     <use xlink:href="#m52df975eef" x="702.088253" y="456.66142" style="fill: #ff7f0e; stroke: #ff7f0e"/>
    </g>
   </g>
   <g id="patch_3">
    <path d="M 80.31375 529.308125 
L 80.31375 23.837812 
" style="fill: none; stroke: #000000; stroke-width: 0.8; stroke-linejoin: miter; stroke-linecap: square"/>
   </g>
   <g id="patch_4">
    <path d="M 731.696562 529.308125 
L 731.696562 23.837812 
" style="fill: none; stroke: #000000; stroke-width: 0.8; stroke-linejoin: miter; stroke-linecap: square"/>
   </g>
   <g id="patch_5">
    <path d="M 80.31375 529.308125 
L 731.696562 529.308125 
" style="fill: none; stroke: #000000; stroke-width: 0.8; stroke-linejoin: miter; stroke-linecap: square"/>
   </g>
   <g id="patch_6">
    <path d="M 80.31375 23.837812 
L 731.696562 23.837812 
" style="fill: none; stroke: #000000; stroke-width: 0.8; stroke-linejoin: miter; stroke-linecap: square"/>
   </g>
   <g id="text_17">
    <text style="font: 700 14px 'DejaVu Sans', 'Bitstream Vera Sans', 'Computer Modern Sans Serif', 'Lucida Grande', 'Verdana', 'Geneva', 'Lucid', 'Arial', 'Helvetica', 'Avant Garde', sans-serif; text-anchor: middle" x="406.005156" y="17.837813" transform="rotate(-0 406.005156 17.837813)">Coalescing Arena Alloc Dealloc - Performance Trend</text>
   </g>
   <g id="legend_1">
    <g id="patch_7">
     <path d="M 771.265703 61.194063 
L 846.689141 61.194063 
Q 848.689141 61.194063 848.689141 59.194063 
L 848.689141 30.837813 
Q 848.689141 28.837813 846.689141 28.837813 
L 771.265703 28.837813 
Q 769.265703 28.837813 769.265703 30.837813 
L 769.265703 59.194063 
Q 769.265703 61.194063 771.265703 61.194063 
z
" style="fill: #ffffff; opacity: 0.8; stroke: #cccccc; stroke-linejoin: miter"/>
    </g>
    <g id="line2d_24">
     <path d="M 773.265703 36.93625 
L 783.265703 36.93625 
L 793.265703 36.93625 
" style="fill: none; stroke: #1f77b4; stroke-width: 2; stroke-linecap: square"/>
     <g>
      <use xlink:href="#mf390b4edb3" x="783.265703" y="36.93625" style="fill: #1f77b4; stroke: #1f77b4"/>
     </g>
    </g>
    <g id="text_18">
     <text style="font: 10px 'DejaVu Sans', 'Bitstream Vera Sans', 'Computer Modern Sans Serif', 'Lucida Grande', 'Verdana', 'Geneva', 'Lucid', 'Arial', 'Helvetica', 'Avant Garde', sans-serif; text-anchor: start" x="801.265703" y="40.43625" transform="rotate(-0 801.265703 40.43625)">clang-18</text>
    </g>
    <g id="line2d_25">
     <path d="M 773.265703 51.614375 
L 783.265703 51.614375 
L 793.265703 51.614375 
" style="fill: none; stroke: #ff7f0e; stroke-width: 2; stroke-linecap: square"/>
     <g>
      <use xlink:href="#m52df975eef" x="783.265703" y="51.614375" style="fill: #ff7f0e; stroke: #ff7f0e"/>
     </g>
    </g>
    <g id="text_19">
     <text style="font: 10px 'DejaVu Sans', 'Bitstream Vera Sans', 'Computer Modern Sans Serif', 'Lucida Grande', 'Verdana', 'Geneva', 'Lucid', 'Arial', 'Helvetica', 'Avant Garde', sans-serif; text-anchor: start" x="801.265703" y="55.114375" transform="rotate(-0 801.265703 55.114375)">gcc-14</text>
    </g>
   </g>
  </g>
 </g>
 <defs>
  <clipPath id="p1df67ad792">
   <rect x="80.31375" y="23.837813" width="651.382812" height="505.470313"/>
  </clipPath>
 </defs>
</svg>
