<?xml version="1.0" encoding="utf-8" standalone="no"?>
<!DOCTYPE svg PUBLIC "-//W3C//DTD SVG 1.1//EN"
  "http://www.w3.org/Graphics/SVG/1.1/DTD/svg11.dtd">
<svg xmlns:xlink="http://www.w3.org/1999/xlink" width="855.204687pt" height="568.8pt" viewBox="0 0 855.204687 568.8" xmlns="http://www.w3.org/2000/svg" version="1.1">
 <metadata>
  <rdf:RDF xmlns:dc="http://purl.org/dc/elements/1.1/" xmlns:cc="http://creativecommons.org/ns#" xmlns:rdf="http://www.w3.org/1999/02/22-rdf-syntax-ns#">
   <cc:Work>
    <dc:type rdf:resource="http://purl.org/dc/dcmitype/StillImage"/>
    <dc:date>2025-08-16T05:13:19.695046</dc:date>
    <dc:format>image/svg+xml</dc:format>
    <dc:creator>
     <cc:Agent>
      <dc:title>Matplotlib v3.9.4, https://matplotlib.org/</dc:title>
     </cc:Agent>
    </dc:creator>
   </cc:Work>
  </rdf:RDF>
 </metadata>
 <defs>
  <style type="text/css">*{stroke-linejoin: round; stroke-linecap: butt}</style>
 </defs>
 <g id="figure_1">
  <g id="patch_1">
   <path d="M 0 568.8 
L 855.204687 568.8 
L 855.204687 0 
L 0 0 
z
" style="fill: #ffffff"/>
  </g>
  <g id="axes_1">
   <g id="patch_2">
    <path d="M 64.41375 529.308125 
L 702.1075 529.308125 
L 702.1075 23.837812 
L 64.41375 23.837812 
z
" style="fill: #ffffff"/>
   </g>
   <g id="matplotlib.axis_1">
    <g id="xtick_1">
     <g id="line2d_1">
      <path d="M 65.79404 529.308125 
L 65.79404 23.837812 
" clip-path="url(#p593e3bf0da)" style="fill: none; stroke: #b0b0b0; stroke-opacity: 0.3; stroke-width: 0.8; stroke-linecap: square"/>
     </g>
     <g id="line2d_2">
      <defs>
       <path id="m960e214e07" d="M 0 0 
L 0 3.5 
" style="stroke: #000000; stroke-width: 0.8"/>
      </defs>
      <g>
       <use xlink:href="#m960e214e07" x="65.79404" y="529.308125" style="stroke: #000000; stroke-width: 0.8"/>
      </g>
     </g>
     <g id="text_1">
      <text style="font: 10px 'DejaVu Sans', 'Bitstream Vera Sans', 'Computer Modern Sans Serif', 'Lucida Grande', 'Verdana', 'Geneva', 'Lucid', 'Arial', 'Helvetica', 'Avant Garde', sans-serif; text-anchor: middle" x="65.79404" y="543.906563" transform="rotate(-0 65.79404 543.906563)">70</text>
     </g>
    </g>
    <g id="xtick_2">
     <g id="line2d_3">
      <path d="M 203.82299 529.308125 
L 203.82299 23.837812 
" clip-path="url(#p593e3bf0da)" style="fill: none; stroke: #b0b0b0; stroke-opacity: 0.3; stroke-width: 0.8; stroke-linecap: square"/>
     </g>
     <g id="line2d_4">
      <g>
       <use xlink:href="#m960e214e07" x="203.82299" y="529.308125" style="stroke: #000000; stroke-width: 0.8"/>
      </g>
     </g>
     <g id="text_2">
      <text style="font: 10px 'DejaVu Sans', 'Bitstream Vera Sans', 'Computer Modern Sans Serif', 'Lucida Grande', 'Verdana', 'Geneva', 'Lucid', 'Arial', 'Helvetica', 'Avant Garde', sans-serif; text-anchor: middle" x="203.82299" y="543.906563" transform="rotate(-0 203.82299 543.906563)">75</text>
     </g>
    </g>
    <g id="xtick_3">
     <g id="line2d_5">
      <path d="M 341.85194 529.308125 
L 341.85194 23.837812 
" clip-path="url(#p593e3bf0da)" style="fill: none; stroke: #b0b0b0; stroke-opacity: 0.3; stroke-width: 0.8; stroke-linecap: square"/>
     </g>
     <g id="line2d_6">
      <g>
       <use xlink:href="#m960e214e07" x="341.85194" y="529.308125" style="stroke: #000000; stroke-width: 0.8"/>
      </g>
     </g>
     <g id="text_3">
      <text style="font: 10px 'DejaVu Sans', 'Bitstream Vera Sans', 'Computer Modern Sans Serif', 'Lucida Grande', 'Verdana', 'Geneva', 'Lucid', 'Arial', 'Helvetica', 'Avant Garde', sans-serif; text-anchor: middle" x="341.85194" y="543.906563" transform="rotate(-0 341.85194 543.906563)">80</text>
     </g>
    </g>
    <g id="xtick_4">
     <g id="line2d_7">
      <path d="M 479.88089 529.308125 
L 479.88089 23.837812 
" clip-path="url(#p593e3bf0da)" style="fill: none; stroke: #b0b0b0; stroke-opacity: 0.3; stroke-width: 0.8; stroke-linecap: square"/>
     </g>
     <g id="line2d_8">
      <g>
       <use xlink:href="#m960e214e07" x="479.88089" y="529.308125" style="stroke: #000000; stroke-width: 0.8"/>
      </g>
     </g>
     <g id="text_4">
      <text style="font: 10px 'DejaVu Sans', 'Bitstream Vera Sans', 'Computer Modern Sans Serif', 'Lucida Grande', 'Verdana', 'Geneva', 'Lucid', 'Arial', 'Helvetica', 'Avant Garde', sans-serif; text-anchor: middle" x="479.88089" y="543.906563" transform="rotate(-0 479.88089 543.906563)">85</text>
     </g>
    </g>
    <g id="xtick_5">
     <g id="line2d_9">
      <path d="M 617.90984 529.308125 
L 617.90984 23.837812 
" clip-path="url(#p593e3bf0da)" style="fill: none; stroke: #b0b0b0; stroke-opacity: 0.3; stroke-width: 0.8; stroke-linecap: square"/>
     </g>
     <g id="line2d_10">
      <g>
       <use xlink:href="#m960e214e07" x="617.90984" y="529.308125" style="stroke: #000000; stroke-width: 0.8"/>
      </g>
     </g>
     <g id="text_5">
      <text style="font: 10px 'DejaVu Sans', 'Bitstream Vera Sans', 'Computer Modern Sans Serif', 'Lucida Grande', 'Verdana', 'Geneva', 'Lucid', 'Arial', 'Helvetica', 'Avant Garde', sans-serif; text-anchor: middle" x="617.90984" y="543.906563" transform="rotate(-0 617.90984 543.906563)">90</text>
     </g>
    </g>
    <g id="text_6">
     <text style="font: 12px 'DejaVu Sans', 'Bitstream Vera Sans', 'Computer Modern Sans Serif', 'Lucida Grande', 'Verdana', 'Geneva', 'Lucid', 'Arial', 'Helvetica', 'Avant Garde', sans-serif; text-anchor: middle" x="383.260625" y="559.104375" transform="rotate(-0 383.260625 559.104375)">Build Number</text>
    </g>
   </g>
   <g id="matplotlib.axis_2">
    <g id="ytick_1">
     <g id="line2d_11">
      <path d="M 64.41375 348.809781 
L 702.1075 348.809781 
" clip-path="url(#p593e3bf0da)" style="fill: none; stroke: #b0b0b0; stroke-opacity: 0.3; stroke-width: 0.8; stroke-linecap: square"/>
     </g>
     <g id="line2d_12">
      <defs>
       <path id="md2b66086ce" d="M 0 0 
L -3.5 0 
" style="stroke: #000000; stroke-width: 0.8"/>
      </defs>
      <g>
       <use xlink:href="#md2b66086ce" x="64.41375" y="348.809781" style="stroke: #000000; stroke-width: 0.8"/>
      </g>
     </g>
     <g id="text_7">
      <!-- $\mathdefault{10^{5}}$ -->
      <g transform="translate(39.81375 352.608999)">
       <text>
        <tspan style="font: 10px 'DejaVu Sans'" x="0 6.362305" y="-0.06406250000000036">10</tspan>
        <tspan style="font: 7px 'DejaVu Sans'" x="12.820312" y="-3.8921875000000004">5</tspan>
       </text>
      </g>
     </g>
    </g>
    <g id="ytick_2">
     <g id="line2d_13">
      <defs>
       <path id="m57cbe56a8e" d="M 0 0 
L -2 0 
" style="stroke: #000000; stroke-width: 0.6"/>
      </defs>
      <g>
       <use xlink:href="#m57cbe56a8e" x="64.41375" y="477.273547" style="stroke: #000000; stroke-width: 0.6"/>
      </g>
     </g>
    </g>
    <g id="ytick_3">
     <g id="line2d_14">
      <g>
       <use xlink:href="#m57cbe56a8e" x="64.41375" y="429.179488" style="stroke: #000000; stroke-width: 0.6"/>
      </g>
     </g>
    </g>
    <g id="ytick_4">
     <g id="line2d_15">
      <g>
       <use xlink:href="#m57cbe56a8e" x="64.41375" y="386.757522" style="stroke: #000000; stroke-width: 0.6"/>
      </g>
     </g>
    </g>
    <g id="ytick_5">
     <g id="line2d_16">
      <g>
       <use xlink:href="#m57cbe56a8e" x="64.41375" y="99.158666" style="stroke: #000000; stroke-width: 0.6"/>
      </g>
     </g>
     <g id="text_8">
      <!-- $\mathdefault{2\times10^{5}}$ -->
      <g transform="translate(22.81375 102.957885)">
       <text>
        <tspan style="font: 10px 'DejaVu Sans'" x="0 8.310547 18.637695 25" y="-0.06406250000000036">2×10</tspan>
        <tspan style="font: 7px 'DejaVu Sans'" x="31.458008" y="-3.8921875000000004">5</tspan>
       </text>
      </g>
     </g>
    </g>
    <g id="text_9">
     <text style="font: 12px 'DejaVu Sans', 'Bitstream Vera Sans', 'Computer Modern Sans Serif', 'Lucida Grande', 'Verdana', 'Geneva', 'Lucid', 'Arial', 'Helvetica', 'Avant Garde', sans-serif; text-anchor: middle" x="16.318125" y="276.572969" transform="rotate(-90 16.318125 276.572969)">Median Elapsed Time (nanoseconds)</text>
    </g>
   </g>
   <g id="line2d_17">
    <path d="M 93.39983 320.399692 
L 121.00562 149.937849 
L 148.61141 149.122015 
L 176.2172 281.632503 
L 203.82299 73.517706 
L 231.42878 262.330675 
L 259.03457 319.41646 
L 286.64036 320.479253 
L 314.24615 154.791122 
L 341.85194 314.376784 
L 369.45773 314.778644 
L 397.06352 320.044049 
L 424.66931 70.757565 
L 452.2751 317.938266 
L 479.88089 319.597083 
L 507.48668 318.721044 
L 562.69826 319.842596 
L 590.30405 167.082323 
L 617.90984 319.906078 
L 645.51563 153.803023 
L 673.12142 319.841267 
" clip-path="url(#p593e3bf0da)" style="fill: none; stroke: #1f77b4; stroke-width: 2; stroke-linecap: square"/>
    <defs>
     <path id="m5e2212c849" d="M 0 3 
C 0.795609 3 1.55874 2.683901 2.12132 2.12132 
C 2.683901 1.55874 3 0.795609 3 0 
C 3 -0.795609 2.683901 -1.55874 2.12132 -2.12132 
C 1.55874 -2.683901 0.795609 -3 0 -3 
C -0.795609 -3 -1.55874 -2.683901 -2.12132 -2.12132 
C -2.683901 -1.55874 -3 -0.795609 -3 0 
C -3 0.795609 -2.683901 1.55874 -2.12132 2.12132 
C -1.55874 2.683901 -0.795609 3 0 3 
z
" style="stroke: #1f77b4"/>
    </defs>
    <g clip-path="url(#p593e3bf0da)">
     <use xlink:href="#m5e2212c849" x="93.39983" y="320.399692" style="fill: #1f77b4; stroke: #1f77b4"/>
     <use xlink:href="#m5e2212c849" x="121.00562" y="149.937849" style="fill: #1f77b4; stroke: #1f77b4"/>
     <use xlink:href="#m5e2212c849" x="148.61141" y="149.122015" style="fill: #1f77b4; stroke: #1f77b4"/>
     <use xlink:href="#m5e2212c849" x="176.2172" y="281.632503" style="fill: #1f77b4; stroke: #1f77b4"/>
     <use xlink:href="#m5e2212c849" x="203.82299" y="73.517706" style="fill: #1f77b4; stroke: #1f77b4"/>
     <use xlink:href="#m5e2212c849" x="231.42878" y="262.330675" style="fill: #1f77b4; stroke: #1f77b4"/>
     <use xlink:href="#m5e2212c849" x="259.03457" y="319.41646" style="fill: #1f77b4; stroke: #1f77b4"/>
     <use xlink:href="#m5e2212c849" x="286.64036" y="320.479253" style="fill: #1f77b4; stroke: #1f77b4"/>
     <use xlink:href="#m5e2212c849" x="314.24615" y="154.791122" style="fill: #1f77b4; stroke: #1f77b4"/>
     <use xlink:href="#m5e2212c849" x="341.85194" y="314.376784" style="fill: #1f77b4; stroke: #1f77b4"/>
     <use xlink:href="#m5e2212c849" x="369.45773" y="314.778644" style="fill: #1f77b4; stroke: #1f77b4"/>
     <use xlink:href="#m5e2212c849" x="397.06352" y="320.044049" style="fill: #1f77b4; stroke: #1f77b4"/>
     <use xlink:href="#m5e2212c849" x="424.66931" y="70.757565" style="fill: #1f77b4; stroke: #1f77b4"/>
     <use xlink:href="#m5e2212c849" x="452.2751" y="317.938266" style="fill: #1f77b4; stroke: #1f77b4"/>
     <use xlink:href="#m5e2212c849" x="479.88089" y="319.597083" style="fill: #1f77b4; stroke: #1f77b4"/>
     <use xlink:href="#m5e2212c849" x="507.48668" y="318.721044" style="fill: #1f77b4; stroke: #1f77b4"/>
     <use xlink:href="#m5e2212c849" x="562.69826" y="319.842596" style="fill: #1f77b4; stroke: #1f77b4"/>
     <use xlink:href="#m5e2212c849" x="590.30405" y="167.082323" style="fill: #1f77b4; stroke: #1f77b4"/>
     <use xlink:href="#m5e2212c849" x="617.90984" y="319.906078" style="fill: #1f77b4; stroke: #1f77b4"/>
     <use xlink:href="#m5e2212c849" x="645.51563" y="153.803023" style="fill: #1f77b4; stroke: #1f77b4"/>
     <use xlink:href="#m5e2212c849" x="673.12142" y="319.841267" style="fill: #1f77b4; stroke: #1f77b4"/>
    </g>
   </g>
   <g id="line2d_18">
    <path d="M 93.39983 287.002065 
L 121.00562 166.941871 
L 148.61141 206.761922 
L 176.2172 267.182754 
L 203.82299 170.52357 
L 231.42878 276.779458 
L 259.03457 267.21556 
L 286.64036 274.060871 
L 314.24615 73.812662 
L 341.85194 273.893797 
L 369.45773 270.935313 
L 397.06352 268.600312 
L 424.66931 164.624075 
L 452.2751 275.976789 
L 479.88089 280.273421 
L 507.48668 161.231057 
L 562.69826 161.617455 
L 590.30405 144.792844 
L 617.90984 251.284103 
L 645.51563 151.838117 
L 673.12142 270.392581 
" clip-path="url(#p593e3bf0da)" style="fill: none; stroke: #ff7f0e; stroke-width: 2; stroke-linecap: square"/>
    <defs>
     <path id="me6a6ca6a1b" d="M 0 3 
C 0.795609 3 1.55874 2.683901 2.12132 2.12132 
C 2.683901 1.55874 3 0.795609 3 0 
C 3 -0.795609 2.683901 -1.55874 2.12132 -2.12132 
C 1.55874 -2.683901 0.795609 -3 0 -3 
C -0.795609 -3 -1.55874 -2.683901 -2.12132 -2.12132 
C -2.683901 -1.55874 -3 -0.795609 -3 0 
C -3 0.795609 -2.683901 1.55874 -2.12132 2.12132 
C -1.55874 2.683901 -0.795609 3 0 3 
z
" style="stroke: #ff7f0e"/>
    </defs>
    <g clip-path="url(#p593e3bf0da)">
     <use xlink:href="#me6a6ca6a1b" x="93.39983" y="287.002065" style="fill: #ff7f0e; stroke: #ff7f0e"/>
     <use xlink:href="#me6a6ca6a1b" x="121.00562" y="166.941871" style="fill: #ff7f0e; stroke: #ff7f0e"/>
     <use xlink:href="#me6a6ca6a1b" x="148.61141" y="206.761922" style="fill: #ff7f0e; stroke: #ff7f0e"/>
     <use xlink:href="#me6a6ca6a1b" x="176.2172" y="267.182754" style="fill: #ff7f0e; stroke: #ff7f0e"/>
     <use xlink:href="#me6a6ca6a1b" x="203.82299" y="170.52357" style="fill: #ff7f0e; stroke: #ff7f0e"/>
     <use xlink:href="#me6a6ca6a1b" x="231.42878" y="276.779458" style="fill: #ff7f0e; stroke: #ff7f0e"/>
     <use xlink:href="#me6a6ca6a1b" x="259.03457" y="267.21556" style="fill: #ff7f0e; stroke: #ff7f0e"/>
     <use xlink:href="#me6a6ca6a1b" x="286.64036" y="274.060871" style="fill: #ff7f0e; stroke: #ff7f0e"/>
     <use xlink:href="#me6a6ca6a1b" x="314.24615" y="73.812662" style="fill: #ff7f0e; stroke: #ff7f0e"/>
     <use xlink:href="#me6a6ca6a1b" x="341.85194" y="273.893797" style="fill: #ff7f0e; stroke: #ff7f0e"/>
     <use xlink:href="#me6a6ca6a1b" x="369.45773" y="270.935313" style="fill: #ff7f0e; stroke: #ff7f0e"/>
     <use xlink:href="#me6a6ca6a1b" x="397.06352" y="268.600312" style="fill: #ff7f0e; stroke: #ff7f0e"/>
     <use xlink:href="#me6a6ca6a1b" x="424.66931" y="164.624075" style="fill: #ff7f0e; stroke: #ff7f0e"/>
     <use xlink:href="#me6a6ca6a1b" x="452.2751" y="275.976789" style="fill: #ff7f0e; stroke: #ff7f0e"/>
     <use xlink:href="#me6a6ca6a1b" x="479.88089" y="280.273421" style="fill: #ff7f0e; stroke: #ff7f0e"/>
     <use xlink:href="#me6a6ca6a1b" x="507.48668" y="161.231057" style="fill: #ff7f0e; stroke: #ff7f0e"/>
     <use xlink:href="#me6a6ca6a1b" x="562.69826" y="161.617455" style="fill: #ff7f0e; stroke: #ff7f0e"/>
     <use xlink:href="#me6a6ca6a1b" x="590.30405" y="144.792844" style="fill: #ff7f0e; stroke: #ff7f0e"/>
     <use xlink:href="#me6a6ca6a1b" x="617.90984" y="251.284103" style="fill: #ff7f0e; stroke: #ff7f0e"/>
     <use xlink:href="#me6a6ca6a1b" x="645.51563" y="151.838117" style="fill: #ff7f0e; stroke: #ff7f0e"/>
     <use xlink:href="#me6a6ca6a1b" x="673.12142" y="270.392581" style="fill: #ff7f0e; stroke: #ff7f0e"/>
    </g>
   </g>
   <g id="line2d_19">
    <path d="M 93.39983 309.99342 
L 121.00562 46.813736 
L 148.61141 296.469989 
L 176.2172 303.317241 
L 203.82299 141.040669 
L 231.42878 305.135002 
L 259.03457 226.521224 
L 286.64036 232.205566 
L 314.24615 223.641223 
L 341.85194 303.255982 
L 369.45773 305.186371 
L 397.06352 305.00103 
L 424.66931 229.395298 
L 452.2751 302.467522 
L 479.88089 304.609325 
L 507.48668 227.085921 
L 562.69826 231.385219 
L 590.30405 303.313432 
L 617.90984 222.542209 
L 645.51563 226.229042 
L 673.12142 303.757474 
" clip-path="url(#p593e3bf0da)" style="fill: none; stroke: #2ca02c; stroke-width: 2; stroke-linecap: square"/>
    <defs>
     <path id="m8f5cb33331" d="M 0 3 
C 0.795609 3 1.55874 2.683901 2.12132 2.12132 
C 2.683901 1.55874 3 0.795609 3 0 
C 3 -0.795609 2.683901 -1.55874 2.12132 -2.12132 
C 1.55874 -2.683901 0.795609 -3 0 -3 
C -0.795609 -3 -1.55874 -2.683901 -2.12132 -2.12132 
C -2.683901 -1.55874 -3 -0.795609 -3 0 
C -3 0.795609 -2.683901 1.55874 -2.12132 2.12132 
C -1.55874 2.683901 -0.795609 3 0 3 
z
" style="stroke: #2ca02c"/>
    </defs>
    <g clip-path="url(#p593e3bf0da)">
     <use xlink:href="#m8f5cb33331" x="93.39983" y="309.99342" style="fill: #2ca02c; stroke: #2ca02c"/>
     <use xlink:href="#m8f5cb33331" x="121.00562" y="46.813736" style="fill: #2ca02c; stroke: #2ca02c"/>
     <use xlink:href="#m8f5cb33331" x="148.61141" y="296.469989" style="fill: #2ca02c; stroke: #2ca02c"/>
     <use xlink:href="#m8f5cb33331" x="176.2172" y="303.317241" style="fill: #2ca02c; stroke: #2ca02c"/>
     <use xlink:href="#m8f5cb33331" x="203.82299" y="141.040669" style="fill: #2ca02c; stroke: #2ca02c"/>
     <use xlink:href="#m8f5cb33331" x="231.42878" y="305.135002" style="fill: #2ca02c; stroke: #2ca02c"/>
     <use xlink:href="#m8f5cb33331" x="259.03457" y="226.521224" style="fill: #2ca02c; stroke: #2ca02c"/>
     <use xlink:href="#m8f5cb33331" x="286.64036" y="232.205566" style="fill: #2ca02c; stroke: #2ca02c"/>
     <use xlink:href="#m8f5cb33331" x="314.24615" y="223.641223" style="fill: #2ca02c; stroke: #2ca02c"/>
     <use xlink:href="#m8f5cb33331" x="341.85194" y="303.255982" style="fill: #2ca02c; stroke: #2ca02c"/>
     <use xlink:href="#m8f5cb33331" x="369.45773" y="305.186371" style="fill: #2ca02c; stroke: #2ca02c"/>
     <use xlink:href="#m8f5cb33331" x="397.06352" y="305.00103" style="fill: #2ca02c; stroke: #2ca02c"/>
     <use xlink:href="#m8f5cb33331" x="424.66931" y="229.395298" style="fill: #2ca02c; stroke: #2ca02c"/>
     <use xlink:href="#m8f5cb33331" x="452.2751" y="302.467522" style="fill: #2ca02c; stroke: #2ca02c"/>
     <use xlink:href="#m8f5cb33331" x="479.88089" y="304.609325" style="fill: #2ca02c; stroke: #2ca02c"/>
     <use xlink:href="#m8f5cb33331" x="507.48668" y="227.085921" style="fill: #2ca02c; stroke: #2ca02c"/>
     <use xlink:href="#m8f5cb33331" x="562.69826" y="231.385219" style="fill: #2ca02c; stroke: #2ca02c"/>
     <use xlink:href="#m8f5cb33331" x="590.30405" y="303.313432" style="fill: #2ca02c; stroke: #2ca02c"/>
     <use xlink:href="#m8f5cb33331" x="617.90984" y="222.542209" style="fill: #2ca02c; stroke: #2ca02c"/>
     <use xlink:href="#m8f5cb33331" x="645.51563" y="226.229042" style="fill: #2ca02c; stroke: #2ca02c"/>
     <use xlink:href="#m8f5cb33331" x="673.12142" y="303.757474" style="fill: #2ca02c; stroke: #2ca02c"/>
    </g>
   </g>
   <g id="line2d_20">
    <path d="M 93.39983 504.215036 
L 121.00562 503.765069 
L 148.61141 504.492944 
L 176.2172 252.207841 
L 203.82299 366.478985 
L 231.42878 245.37849 
L 259.03457 504.920487 
L 286.64036 312.965396 
L 314.24615 240.358593 
L 341.85194 500.138822 
L 369.45773 506.092444 
L 397.06352 504.233335 
L 424.66931 167.327267 
L 479.88089 455.785735 
L 507.48668 506.332202 
L 562.69826 504.986515 
L 590.30405 505.933065 
L 617.90984 409.738681 
L 645.51563 504.225572 
L 673.12142 504.033763 
" clip-path="url(#p593e3bf0da)" style="fill: none; stroke: #d62728; stroke-width: 2; stroke-linecap: square"/>
    <defs>
     <path id="m44ccc8702c" d="M 0 3 
C 0.795609 3 1.55874 2.683901 2.12132 2.12132 
C 2.683901 1.55874 3 0.795609 3 0 
C 3 -0.795609 2.683901 -1.55874 2.12132 -2.12132 
C 1.55874 -2.683901 0.795609 -3 0 -3 
C -0.795609 -3 -1.55874 -2.683901 -2.12132 -2.12132 
C -2.683901 -1.55874 -3 -0.795609 -3 0 
C -3 0.795609 -2.683901 1.55874 -2.12132 2.12132 
C -1.55874 2.683901 -0.795609 3 0 3 
z
" style="stroke: #d62728"/>
    </defs>
    <g clip-path="url(#p593e3bf0da)">
     <use xlink:href="#m44ccc8702c" x="93.39983" y="504.215036" style="fill: #d62728; stroke: #d62728"/>
     <use xlink:href="#m44ccc8702c" x="121.00562" y="503.765069" style="fill: #d62728; stroke: #d62728"/>
     <use xlink:href="#m44ccc8702c" x="148.61141" y="504.492944" style="fill: #d62728; stroke: #d62728"/>
     <use xlink:href="#m44ccc8702c" x="176.2172" y="252.207841" style="fill: #d62728; stroke: #d62728"/>
     <use xlink:href="#m44ccc8702c" x="203.82299" y="366.478985" style="fill: #d62728; stroke: #d62728"/>
     <use xlink:href="#m44ccc8702c" x="231.42878" y="245.37849" style="fill: #d62728; stroke: #d62728"/>
     <use xlink:href="#m44ccc8702c" x="259.03457" y="504.920487" style="fill: #d62728; stroke: #d62728"/>
     <use xlink:href="#m44ccc8702c" x="286.64036" y="312.965396" style="fill: #d62728; stroke: #d62728"/>
     <use xlink:href="#m44ccc8702c" x="314.24615" y="240.358593" style="fill: #d62728; stroke: #d62728"/>
     <use xlink:href="#m44ccc8702c" x="341.85194" y="500.138822" style="fill: #d62728; stroke: #d62728"/>
     <use xlink:href="#m44ccc8702c" x="369.45773" y="506.092444" style="fill: #d62728; stroke: #d62728"/>
     <use xlink:href="#m44ccc8702c" x="397.06352" y="504.233335" style="fill: #d62728; stroke: #d62728"/>
     <use xlink:href="#m44ccc8702c" x="424.66931" y="167.327267" style="fill: #d62728; stroke: #d62728"/>
     <use xlink:href="#m44ccc8702c" x="479.88089" y="455.785735" style="fill: #d62728; stroke: #d62728"/>
     <use xlink:href="#m44ccc8702c" x="507.48668" y="506.332202" style="fill: #d62728; stroke: #d62728"/>
     <use xlink:href="#m44ccc8702c" x="562.69826" y="504.986515" style="fill: #d62728; stroke: #d62728"/>
     <use xlink:href="#m44ccc8702c" x="590.30405" y="505.933065" style="fill: #d62728; stroke: #d62728"/>
     <use xlink:href="#m44ccc8702c" x="617.90984" y="409.738681" style="fill: #d62728; stroke: #d62728"/>
     <use xlink:href="#m44ccc8702c" x="645.51563" y="504.225572" style="fill: #d62728; stroke: #d62728"/>
     <use xlink:href="#m44ccc8702c" x="673.12142" y="504.033763" style="fill: #d62728; stroke: #d62728"/>
    </g>
   </g>
   <g id="line2d_21">
    <path d="M 93.39983 461.991572 
L 121.00562 407.665623 
L 148.61141 466.93619 
L 176.2172 461.299004 
L 203.82299 368.886445 
L 231.42878 373.015229 
L 259.03457 456.013145 
L 286.64036 284.685676 
L 314.24615 450.498519 
L 341.85194 465.767156 
L 369.45773 459.143063 
L 397.06352 464.044495 
L 424.66931 338.076165 
L 479.88089 450.521448 
L 507.48668 463.665276 
L 562.69826 461.00366 
L 590.30405 461.407165 
L 617.90984 283.638824 
L 645.51563 459.289384 
L 673.12142 464.347663 
" clip-path="url(#p593e3bf0da)" style="fill: none; stroke: #9467bd; stroke-width: 2; stroke-linecap: square"/>
    <defs>
     <path id="m12973275ea" d="M 0 3 
C 0.795609 3 1.55874 2.683901 2.12132 2.12132 
C 2.683901 1.55874 3 0.795609 3 0 
C 3 -0.795609 2.683901 -1.55874 2.12132 -2.12132 
C 1.55874 -2.683901 0.795609 -3 0 -3 
C -0.795609 -3 -1.55874 -2.683901 -2.12132 -2.12132 
C -2.683901 -1.55874 -3 -0.795609 -3 0 
C -3 0.795609 -2.683901 1.55874 -2.12132 2.12132 
C -1.55874 2.683901 -0.795609 3 0 3 
z
" style="stroke: #9467bd"/>
    </defs>
    <g clip-path="url(#p593e3bf0da)">
     <use xlink:href="#m12973275ea" x="93.39983" y="461.991572" style="fill: #9467bd; stroke: #9467bd"/>
     <use xlink:href="#m12973275ea" x="121.00562" y="407.665623" style="fill: #9467bd; stroke: #9467bd"/>
     <use xlink:href="#m12973275ea" x="148.61141" y="466.93619" style="fill: #9467bd; stroke: #9467bd"/>
     <use xlink:href="#m12973275ea" x="176.2172" y="461.299004" style="fill: #9467bd; stroke: #9467bd"/>
     <use xlink:href="#m12973275ea" x="203.82299" y="368.886445" style="fill: #9467bd; stroke: #9467bd"/>
     <use xlink:href="#m12973275ea" x="231.42878" y="373.015229" style="fill: #9467bd; stroke: #9467bd"/>
     <use xlink:href="#m12973275ea" x="259.03457" y="456.013145" style="fill: #9467bd; stroke: #9467bd"/>
     <use xlink:href="#m12973275ea" x="286.64036" y="284.685676" style="fill: #9467bd; stroke: #9467bd"/>
     <use xlink:href="#m12973275ea" x="314.24615" y="450.498519" style="fill: #9467bd; stroke: #9467bd"/>
     <use xlink:href="#m12973275ea" x="341.85194" y="465.767156" style="fill: #9467bd; stroke: #9467bd"/>
     <use xlink:href="#m12973275ea" x="369.45773" y="459.143063" style="fill: #9467bd; stroke: #9467bd"/>
     <use xlink:href="#m12973275ea" x="397.06352" y="464.044495" style="fill: #9467bd; stroke: #9467bd"/>
     <use xlink:href="#m12973275ea" x="424.66931" y="338.076165" style="fill: #9467bd; stroke: #9467bd"/>
     <use xlink:href="#m12973275ea" x="479.88089" y="450.521448" style="fill: #9467bd; stroke: #9467bd"/>
     <use xlink:href="#m12973275ea" x="507.48668" y="463.665276" style="fill: #9467bd; stroke: #9467bd"/>
     <use xlink:href="#m12973275ea" x="562.69826" y="461.00366" style="fill: #9467bd; stroke: #9467bd"/>
     <use xlink:href="#m12973275ea" x="590.30405" y="461.407165" style="fill: #9467bd; stroke: #9467bd"/>
     <use xlink:href="#m12973275ea" x="617.90984" y="283.638824" style="fill: #9467bd; stroke: #9467bd"/>
     <use xlink:href="#m12973275ea" x="645.51563" y="459.289384" style="fill: #9467bd; stroke: #9467bd"/>
     <use xlink:href="#m12973275ea" x="673.12142" y="464.347663" style="fill: #9467bd; stroke: #9467bd"/>
    </g>
   </g>
   <g id="line2d_22">
    <path d="M 93.39983 428.48458 
L 121.00562 428.116305 
L 148.61141 429.675965 
L 176.2172 431.775747 
L 203.82299 353.222497 
L 231.42878 353.025662 
L 259.03457 431.423573 
L 286.64036 351.697648 
L 314.24615 429.564176 
L 341.85194 429.749008 
L 369.45773 431.810666 
L 397.06352 432.730205 
L 424.66931 351.888674 
L 479.88089 429.943929 
L 507.48668 431.740832 
L 562.69826 430.935437 
L 590.30405 432.640191 
L 617.90984 350.717243 
L 645.51563 430.037264 
L 673.12142 430.563849 
" clip-path="url(#p593e3bf0da)" style="fill: none; stroke: #8c564b; stroke-width: 2; stroke-linecap: square"/>
    <defs>
     <path id="md928788f56" d="M 0 3 
C 0.795609 3 1.55874 2.683901 2.12132 2.12132 
C 2.683901 1.55874 3 0.795609 3 0 
C 3 -0.795609 2.683901 -1.55874 2.12132 -2.12132 
C 1.55874 -2.683901 0.795609 -3 0 -3 
C -0.795609 -3 -1.55874 -2.683901 -2.12132 -2.12132 
C -2.683901 -1.55874 -3 -0.795609 -3 0 
C -3 0.795609 -2.683901 1.55874 -2.12132 2.12132 
C -1.55874 2.683901 -0.795609 3 0 3 
z
" style="stroke: #8c564b"/>
    </defs>
    <g clip-path="url(#p593e3bf0da)">
     <use xlink:href="#md928788f56" x="93.39983" y="428.48458" style="fill: #8c564b; stroke: #8c564b"/>
     <use xlink:href="#md928788f56" x="121.00562" y="428.116305" style="fill: #8c564b; stroke: #8c564b"/>
     <use xlink:href="#md928788f56" x="148.61141" y="429.675965" style="fill: #8c564b; stroke: #8c564b"/>
     <use xlink:href="#md928788f56" x="176.2172" y="431.775747" style="fill: #8c564b; stroke: #8c564b"/>
     <use xlink:href="#md928788f56" x="203.82299" y="353.222497" style="fill: #8c564b; stroke: #8c564b"/>
     <use xlink:href="#md928788f56" x="231.42878" y="353.025662" style="fill: #8c564b; stroke: #8c564b"/>
     <use xlink:href="#md928788f56" x="259.03457" y="431.423573" style="fill: #8c564b; stroke: #8c564b"/>
     <use xlink:href="#md928788f56" x="286.64036" y="351.697648" style="fill: #8c564b; stroke: #8c564b"/>
     <use xlink:href="#md928788f56" x="314.24615" y="429.564176" style="fill: #8c564b; stroke: #8c564b"/>
     <use xlink:href="#md928788f56" x="341.85194" y="429.749008" style="fill: #8c564b; stroke: #8c564b"/>
     <use xlink:href="#md928788f56" x="369.45773" y="431.810666" style="fill: #8c564b; stroke: #8c564b"/>
     <use xlink:href="#md928788f56" x="397.06352" y="432.730205" style="fill: #8c564b; stroke: #8c564b"/>
     <use xlink:href="#md928788f56" x="424.66931" y="351.888674" style="fill: #8c564b; stroke: #8c564b"/>
     <use xlink:href="#md928788f56" x="479.88089" y="429.943929" style="fill: #8c564b; stroke: #8c564b"/>
     <use xlink:href="#md928788f56" x="507.48668" y="431.740832" style="fill: #8c564b; stroke: #8c564b"/>
     <use xlink:href="#md928788f56" x="562.69826" y="430.935437" style="fill: #8c564b; stroke: #8c564b"/>
     <use xlink:href="#md928788f56" x="590.30405" y="432.640191" style="fill: #8c564b; stroke: #8c564b"/>
     <use xlink:href="#md928788f56" x="617.90984" y="350.717243" style="fill: #8c564b; stroke: #8c564b"/>
     <use xlink:href="#md928788f56" x="645.51563" y="430.037264" style="fill: #8c564b; stroke: #8c564b"/>
     <use xlink:href="#md928788f56" x="673.12142" y="430.563849" style="fill: #8c564b; stroke: #8c564b"/>
    </g>
   </g>
   <g id="patch_3">
    <path d="M 64.41375 529.308125 
L 64.41375 23.837812 
" style="fill: none; stroke: #000000; stroke-width: 0.8; stroke-linejoin: miter; stroke-linecap: square"/>
   </g>
   <g id="patch_4">
    <path d="M 702.1075 529.308125 
L 702.1075 23.837812 
" style="fill: none; stroke: #000000; stroke-width: 0.8; stroke-linejoin: miter; stroke-linecap: square"/>
   </g>
   <g id="patch_5">
    <path d="M 64.41375 529.308125 
L 702.1075 529.308125 
" style="fill: none; stroke: #000000; stroke-width: 0.8; stroke-linejoin: miter; stroke-linecap: square"/>
   </g>
   <g id="patch_6">
    <path d="M 64.41375 23.837812 
L 702.1075 23.837812 
" style="fill: none; stroke: #000000; stroke-width: 0.8; stroke-linejoin: miter; stroke-linecap: square"/>
   </g>
   <g id="text_10">
    <text style="font: 700 14px 'DejaVu Sans', 'Bitstream Vera Sans', 'Computer Modern Sans Serif', 'Lucida Grande', 'Verdana', 'Geneva', 'Lucid', 'Arial', 'Helvetica', 'Avant Garde', sans-serif; text-anchor: middle" x="383.260625" y="17.837813" transform="rotate(-0 383.260625 17.837813)">Matrixops - Performance Trend</text>
   </g>
   <g id="legend_1">
    <g id="patch_7">
     <path d="M 740.992188 119.906563 
L 846.004688 119.906563 
Q 848.004688 119.906563 848.004688 117.906563 
L 848.004688 30.837813 
Q 848.004688 28.837813 846.004688 28.837813 
L 740.992188 28.837813 
Q 738.992188 28.837813 738.992188 30.837813 
L 738.992188 117.906563 
Q 738.992188 119.906563 740.992188 119.906563 
z
" style="fill: #ffffff; opacity: 0.8; stroke: #cccccc; stroke-linejoin: miter"/>
    </g>
    <g id="line2d_23">
     <path d="M 742.992188 36.93625 
L 752.992188 36.93625 
L 762.992188 36.93625 
" style="fill: none; stroke: #1f77b4; stroke-width: 2; stroke-linecap: square"/>
     <g>
      <use xlink:href="#m5e2212c849" x="752.992188" y="36.93625" style="fill: #1f77b4; stroke: #1f77b4"/>
     </g>
    </g>
    <g id="text_11">
     <text style="font: 10px 'DejaVu Sans', 'Bitstream Vera Sans', 'Computer Modern Sans Serif', 'Lucida Grande', 'Verdana', 'Geneva', 'Lucid', 'Arial', 'Helvetica', 'Avant Garde', sans-serif; text-anchor: start" x="770.992188" y="40.43625" transform="rotate(-0 770.992188 40.43625)">gcc-14.2 - V1</text>
    </g>
    <g id="line2d_24">
     <path d="M 742.992188 51.614375 
L 752.992188 51.614375 
L 762.992188 51.614375 
" style="fill: none; stroke: #ff7f0e; stroke-width: 2; stroke-linecap: square"/>
     <g>
      <use xlink:href="#me6a6ca6a1b" x="752.992188" y="51.614375" style="fill: #ff7f0e; stroke: #ff7f0e"/>
     </g>
    </g>
    <g id="text_12">
     <text style="font: 10px 'DejaVu Sans', 'Bitstream Vera Sans', 'Computer Modern Sans Serif', 'Lucida Grande', 'Verdana', 'Geneva', 'Lucid', 'Arial', 'Helvetica', 'Avant Garde', sans-serif; text-anchor: start" x="770.992188" y="55.114375" transform="rotate(-0 770.992188 55.114375)">gcc-14.2 - V2</text>
    </g>
    <g id="line2d_25">
     <path d="M 742.992188 66.2925 
L 752.992188 66.2925 
L 762.992188 66.2925 
" style="fill: none; stroke: #2ca02c; stroke-width: 2; stroke-linecap: square"/>
     <g>
      <use xlink:href="#m8f5cb33331" x="752.992188" y="66.2925" style="fill: #2ca02c; stroke: #2ca02c"/>
     </g>
    </g>
    <g id="text_13">
     <text style="font: 10px 'DejaVu Sans', 'Bitstream Vera Sans', 'Computer Modern Sans Serif', 'Lucida Grande', 'Verdana', 'Geneva', 'Lucid', 'Arial', 'Helvetica', 'Avant Garde', sans-serif; text-anchor: start" x="770.992188" y="69.7925" transform="rotate(-0 770.992188 69.7925)">gcc-14.2 - TBB</text>
    </g>
    <g id="line2d_26">
     <path d="M 742.992188 80.970625 
L 752.992188 80.970625 
L 762.992188 80.970625 
" style="fill: none; stroke: #d62728; stroke-width: 2; stroke-linecap: square"/>
     <g>
      <use xlink:href="#m44ccc8702c" x="752.992188" y="80.970625" style="fill: #d62728; stroke: #d62728"/>
     </g>
    </g>
    <g id="text_14">
     <text style="font: 10px 'DejaVu Sans', 'Bitstream Vera Sans', 'Computer Modern Sans Serif', 'Lucida Grande', 'Verdana', 'Geneva', 'Lucid', 'Arial', 'Helvetica', 'Avant Garde', sans-serif; text-anchor: start" x="770.992188" y="84.470625" transform="rotate(-0 770.992188 84.470625)">gcc-4.2 - V1</text>
    </g>
    <g id="line2d_27">
     <path d="M 742.992188 95.64875 
L 752.992188 95.64875 
L 762.992188 95.64875 
" style="fill: none; stroke: #9467bd; stroke-width: 2; stroke-linecap: square"/>
     <g>
      <use xlink:href="#m12973275ea" x="752.992188" y="95.64875" style="fill: #9467bd; stroke: #9467bd"/>
     </g>
    </g>
    <g id="text_15">
     <text style="font: 10px 'DejaVu Sans', 'Bitstream Vera Sans', 'Computer Modern Sans Serif', 'Lucida Grande', 'Verdana', 'Geneva', 'Lucid', 'Arial', 'Helvetica', 'Avant Garde', sans-serif; text-anchor: start" x="770.992188" y="99.14875" transform="rotate(-0 770.992188 99.14875)">gcc-4.2 - V2</text>
    </g>
    <g id="line2d_28">
     <path d="M 742.992188 110.326875 
L 752.992188 110.326875 
L 762.992188 110.326875 
" style="fill: none; stroke: #8c564b; stroke-width: 2; stroke-linecap: square"/>
     <g>
      <use xlink:href="#md928788f56" x="752.992188" y="110.326875" style="fill: #8c564b; stroke: #8c564b"/>
     </g>
    </g>
    <g id="text_16">
     <text style="font: 10px 'DejaVu Sans', 'Bitstream Vera Sans', 'Computer Modern Sans Serif', 'Lucida Grande', 'Verdana', 'Geneva', 'Lucid', 'Arial', 'Helvetica', 'Avant Garde', sans-serif; text-anchor: start" x="770.992188" y="113.826875" transform="rotate(-0 770.992188 113.826875)">gcc-4.2 - TBB</text>
    </g>
   </g>
  </g>
 </g>
 <defs>
  <clipPath id="p593e3bf0da">
   <rect x="64.41375" y="23.837813" width="637.69375" height="505.470313"/>
  </clipPath>
 </defs>
</svg>
