<?xml version="1.0" encoding="utf-8" standalone="no"?>
<!DOCTYPE svg PUBLIC "-//W3C//DTD SVG 1.1//EN"
  "http://www.w3.org/Graphics/SVG/1.1/DTD/svg11.dtd">
<svg xmlns:xlink="http://www.w3.org/1999/xlink" width="850.820859pt" height="568.8pt" viewBox="0 0 850.820859 568.8" xmlns="http://www.w3.org/2000/svg" version="1.1">
 <metadata>
  <rdf:RDF xmlns:dc="http://purl.org/dc/elements/1.1/" xmlns:cc="http://creativecommons.org/ns#" xmlns:rdf="http://www.w3.org/1999/02/22-rdf-syntax-ns#">
   <cc:Work>
    <dc:type rdf:resource="http://purl.org/dc/dcmitype/StillImage"/>
    <dc:date>2025-08-22T21:57:32.675390</dc:date>
    <dc:format>image/svg+xml</dc:format>
    <dc:creator>
     <cc:Agent>
      <dc:title>Matplotlib v3.9.4, https://matplotlib.org/</dc:title>
     </cc:Agent>
    </dc:creator>
   </cc:Work>
  </rdf:RDF>
 </metadata>
 <defs>
  <style type="text/css">*{stroke-linejoin: round; stroke-linecap: butt}</style>
 </defs>
 <g id="figure_1">
  <g id="patch_1">
   <path d="M 0 568.8 
L 850.820859 568.8 
L 850.820859 0 
L 0 0 
z
" style="fill: #ffffff"/>
  </g>
  <g id="axes_1">
   <g id="patch_2">
    <path d="M 64.41375 529.308125 
L 614.430938 529.308125 
L 614.430938 23.837812 
L 64.41375 23.837812 
z
" style="fill: #ffffff"/>
   </g>
   <g id="matplotlib.axis_1">
    <g id="xtick_1">
     <g id="line2d_1">
      <path d="M 89.414531 529.308125 
L 89.414531 23.837812 
" clip-path="url(#p395a8ee117)" style="fill: none; stroke: #b0b0b0; stroke-opacity: 0.3; stroke-width: 0.8; stroke-linecap: square"/>
     </g>
     <g id="line2d_2">
      <defs>
       <path id="mbe5d5df088" d="M 0 0 
L 0 3.5 
" style="stroke: #000000; stroke-width: 0.8"/>
      </defs>
      <g>
       <use xlink:href="#mbe5d5df088" x="89.414531" y="529.308125" style="stroke: #000000; stroke-width: 0.8"/>
      </g>
     </g>
     <g id="text_1">
      <text style="font: 10px 'DejaVu Sans', 'Bitstream Vera Sans', 'Computer Modern Sans Serif', 'Lucida Grande', 'Verdana', 'Geneva', 'Lucid', 'Arial', 'Helvetica', 'Avant Garde', sans-serif; text-anchor: middle" x="89.414531" y="543.906563" transform="rotate(-0 89.414531 543.906563)">96</text>
     </g>
    </g>
    <g id="xtick_2">
     <g id="line2d_3">
      <path d="M 151.916484 529.308125 
L 151.916484 23.837812 
" clip-path="url(#p395a8ee117)" style="fill: none; stroke: #b0b0b0; stroke-opacity: 0.3; stroke-width: 0.8; stroke-linecap: square"/>
     </g>
     <g id="line2d_4">
      <g>
       <use xlink:href="#mbe5d5df088" x="151.916484" y="529.308125" style="stroke: #000000; stroke-width: 0.8"/>
      </g>
     </g>
     <g id="text_2">
      <text style="font: 10px 'DejaVu Sans', 'Bitstream Vera Sans', 'Computer Modern Sans Serif', 'Lucida Grande', 'Verdana', 'Geneva', 'Lucid', 'Arial', 'Helvetica', 'Avant Garde', sans-serif; text-anchor: middle" x="151.916484" y="543.906563" transform="rotate(-0 151.916484 543.906563)">97</text>
     </g>
    </g>
    <g id="xtick_3">
     <g id="line2d_5">
      <path d="M 214.418438 529.308125 
L 214.418438 23.837812 
" clip-path="url(#p395a8ee117)" style="fill: none; stroke: #b0b0b0; stroke-opacity: 0.3; stroke-width: 0.8; stroke-linecap: square"/>
     </g>
     <g id="line2d_6">
      <g>
       <use xlink:href="#mbe5d5df088" x="214.418438" y="529.308125" style="stroke: #000000; stroke-width: 0.8"/>
      </g>
     </g>
     <g id="text_3">
      <text style="font: 10px 'DejaVu Sans', 'Bitstream Vera Sans', 'Computer Modern Sans Serif', 'Lucida Grande', 'Verdana', 'Geneva', 'Lucid', 'Arial', 'Helvetica', 'Avant Garde', sans-serif; text-anchor: middle" x="214.418438" y="543.906563" transform="rotate(-0 214.418438 543.906563)">98</text>
     </g>
    </g>
    <g id="xtick_4">
     <g id="line2d_7">
      <path d="M 276.920391 529.308125 
L 276.920391 23.837812 
" clip-path="url(#p395a8ee117)" style="fill: none; stroke: #b0b0b0; stroke-opacity: 0.3; stroke-width: 0.8; stroke-linecap: square"/>
     </g>
     <g id="line2d_8">
      <g>
       <use xlink:href="#mbe5d5df088" x="276.920391" y="529.308125" style="stroke: #000000; stroke-width: 0.8"/>
      </g>
     </g>
     <g id="text_4">
      <text style="font: 10px 'DejaVu Sans', 'Bitstream Vera Sans', 'Computer Modern Sans Serif', 'Lucida Grande', 'Verdana', 'Geneva', 'Lucid', 'Arial', 'Helvetica', 'Avant Garde', sans-serif; text-anchor: middle" x="276.920391" y="543.906563" transform="rotate(-0 276.920391 543.906563)">99</text>
     </g>
    </g>
    <g id="xtick_5">
     <g id="line2d_9">
      <path d="M 339.422344 529.308125 
L 339.422344 23.837812 
" clip-path="url(#p395a8ee117)" style="fill: none; stroke: #b0b0b0; stroke-opacity: 0.3; stroke-width: 0.8; stroke-linecap: square"/>
     </g>
     <g id="line2d_10">
      <g>
       <use xlink:href="#mbe5d5df088" x="339.422344" y="529.308125" style="stroke: #000000; stroke-width: 0.8"/>
      </g>
     </g>
     <g id="text_5">
      <text style="font: 10px 'DejaVu Sans', 'Bitstream Vera Sans', 'Computer Modern Sans Serif', 'Lucida Grande', 'Verdana', 'Geneva', 'Lucid', 'Arial', 'Helvetica', 'Avant Garde', sans-serif; text-anchor: middle" x="339.422344" y="543.906563" transform="rotate(-0 339.422344 543.906563)">100</text>
     </g>
    </g>
    <g id="xtick_6">
     <g id="line2d_11">
      <path d="M 401.924297 529.308125 
L 401.924297 23.837812 
" clip-path="url(#p395a8ee117)" style="fill: none; stroke: #b0b0b0; stroke-opacity: 0.3; stroke-width: 0.8; stroke-linecap: square"/>
     </g>
     <g id="line2d_12">
      <g>
       <use xlink:href="#mbe5d5df088" x="401.924297" y="529.308125" style="stroke: #000000; stroke-width: 0.8"/>
      </g>
     </g>
     <g id="text_6">
      <text style="font: 10px 'DejaVu Sans', 'Bitstream Vera Sans', 'Computer Modern Sans Serif', 'Lucida Grande', 'Verdana', 'Geneva', 'Lucid', 'Arial', 'Helvetica', 'Avant Garde', sans-serif; text-anchor: middle" x="401.924297" y="543.906563" transform="rotate(-0 401.924297 543.906563)">101</text>
     </g>
    </g>
    <g id="xtick_7">
     <g id="line2d_13">
      <path d="M 464.42625 529.308125 
L 464.42625 23.837812 
" clip-path="url(#p395a8ee117)" style="fill: none; stroke: #b0b0b0; stroke-opacity: 0.3; stroke-width: 0.8; stroke-linecap: square"/>
     </g>
     <g id="line2d_14">
      <g>
       <use xlink:href="#mbe5d5df088" x="464.42625" y="529.308125" style="stroke: #000000; stroke-width: 0.8"/>
      </g>
     </g>
     <g id="text_7">
      <text style="font: 10px 'DejaVu Sans', 'Bitstream Vera Sans', 'Computer Modern Sans Serif', 'Lucida Grande', 'Verdana', 'Geneva', 'Lucid', 'Arial', 'Helvetica', 'Avant Garde', sans-serif; text-anchor: middle" x="464.42625" y="543.906563" transform="rotate(-0 464.42625 543.906563)">102</text>
     </g>
    </g>
    <g id="xtick_8">
     <g id="line2d_15">
      <path d="M 526.928203 529.308125 
L 526.928203 23.837812 
" clip-path="url(#p395a8ee117)" style="fill: none; stroke: #b0b0b0; stroke-opacity: 0.3; stroke-width: 0.8; stroke-linecap: square"/>
     </g>
     <g id="line2d_16">
      <g>
       <use xlink:href="#mbe5d5df088" x="526.928203" y="529.308125" style="stroke: #000000; stroke-width: 0.8"/>
      </g>
     </g>
     <g id="text_8">
      <text style="font: 10px 'DejaVu Sans', 'Bitstream Vera Sans', 'Computer Modern Sans Serif', 'Lucida Grande', 'Verdana', 'Geneva', 'Lucid', 'Arial', 'Helvetica', 'Avant Garde', sans-serif; text-anchor: middle" x="526.928203" y="543.906563" transform="rotate(-0 526.928203 543.906563)">103</text>
     </g>
    </g>
    <g id="xtick_9">
     <g id="line2d_17">
      <path d="M 589.430156 529.308125 
L 589.430156 23.837812 
" clip-path="url(#p395a8ee117)" style="fill: none; stroke: #b0b0b0; stroke-opacity: 0.3; stroke-width: 0.8; stroke-linecap: square"/>
     </g>
     <g id="line2d_18">
      <g>
       <use xlink:href="#mbe5d5df088" x="589.430156" y="529.308125" style="stroke: #000000; stroke-width: 0.8"/>
      </g>
     </g>
     <g id="text_9">
      <text style="font: 10px 'DejaVu Sans', 'Bitstream Vera Sans', 'Computer Modern Sans Serif', 'Lucida Grande', 'Verdana', 'Geneva', 'Lucid', 'Arial', 'Helvetica', 'Avant Garde', sans-serif; text-anchor: middle" x="589.430156" y="543.906563" transform="rotate(-0 589.430156 543.906563)">104</text>
     </g>
    </g>
    <g id="text_10">
     <text style="font: 12px 'DejaVu Sans', 'Bitstream Vera Sans', 'Computer Modern Sans Serif', 'Lucida Grande', 'Verdana', 'Geneva', 'Lucid', 'Arial', 'Helvetica', 'Avant Garde', sans-serif; text-anchor: middle" x="339.422344" y="559.104375" transform="rotate(-0 339.422344 559.104375)">Build Number</text>
    </g>
   </g>
   <g id="matplotlib.axis_2">
    <g id="ytick_1">
     <g id="line2d_19">
      <defs>
       <path id="m3341a5802c" d="M 0 0 
L -2 0 
" style="stroke: #000000; stroke-width: 0.6"/>
      </defs>
      <g>
       <use xlink:href="#m3341a5802c" x="64.41375" y="314.5009" style="stroke: #000000; stroke-width: 0.6"/>
      </g>
     </g>
     <g id="text_11">
      <!-- $\mathdefault{8\times10^{6}}$ -->
      <g transform="translate(22.81375 318.300119)">
       <text>
        <tspan style="font: 10px 'DejaVu Sans'" x="0 8.310547 18.637695 25" y="-0.9765625">8×10</tspan>
        <tspan style="font: 7px 'DejaVu Sans'" x="31.458008" y="-4.8046875">6</tspan>
       </text>
      </g>
     </g>
    </g>
    <g id="ytick_2">
     <g id="line2d_20">
      <g>
       <use xlink:href="#m3341a5802c" x="64.41375" y="95.945828" style="stroke: #000000; stroke-width: 0.6"/>
      </g>
     </g>
     <g id="text_12">
      <!-- $\mathdefault{9\times10^{6}}$ -->
      <g transform="translate(22.81375 99.745047)">
       <text>
        <tspan style="font: 10px 'DejaVu Sans'" x="0 8.310547 18.637695 25" y="-0.9765625">9×10</tspan>
        <tspan style="font: 7px 'DejaVu Sans'" x="31.458008" y="-4.8046875">6</tspan>
       </text>
      </g>
     </g>
    </g>
    <g id="text_13">
     <text style="font: 12px 'DejaVu Sans', 'Bitstream Vera Sans', 'Computer Modern Sans Serif', 'Lucida Grande', 'Verdana', 'Geneva', 'Lucid', 'Arial', 'Helvetica', 'Avant Garde', sans-serif; text-anchor: middle" x="16.318125" y="276.572969" transform="rotate(-90 16.318125 276.572969)">Median Elapsed Time (nanoseconds)</text>
    </g>
   </g>
   <g id="line2d_21">
    <path d="M 89.414531 473.324099 
L 151.916484 373.455033 
L 276.920391 495.918948 
L 339.422344 398.318901 
L 401.924297 506.332202 
L 464.42625 483.886668 
L 526.928203 432.310647 
L 589.430156 498.309938 
" clip-path="url(#p395a8ee117)" style="fill: none; stroke: #1f77b4; stroke-width: 2; stroke-linecap: square"/>
    <defs>
     <path id="ma10f1c3e2a" d="M 0 3 
C 0.795609 3 1.55874 2.683901 2.12132 2.12132 
C 2.683901 1.55874 3 0.795609 3 0 
C 3 -0.795609 2.683901 -1.55874 2.12132 -2.12132 
C 1.55874 -2.683901 0.795609 -3 0 -3 
C -0.795609 -3 -1.55874 -2.683901 -2.12132 -2.12132 
C -2.683901 -1.55874 -3 -0.795609 -3 0 
C -3 0.795609 -2.683901 1.55874 -2.12132 2.12132 
C -1.55874 2.683901 -0.795609 3 0 3 
z
" style="stroke: #1f77b4"/>
    </defs>
    <g clip-path="url(#p395a8ee117)">
     <use xlink:href="#ma10f1c3e2a" x="89.414531" y="473.324099" style="fill: #1f77b4; stroke: #1f77b4"/>
     <use xlink:href="#ma10f1c3e2a" x="151.916484" y="373.455033" style="fill: #1f77b4; stroke: #1f77b4"/>
     <use xlink:href="#ma10f1c3e2a" x="276.920391" y="495.918948" style="fill: #1f77b4; stroke: #1f77b4"/>
     <use xlink:href="#ma10f1c3e2a" x="339.422344" y="398.318901" style="fill: #1f77b4; stroke: #1f77b4"/>
     <use xlink:href="#ma10f1c3e2a" x="401.924297" y="506.332202" style="fill: #1f77b4; stroke: #1f77b4"/>
     <use xlink:href="#ma10f1c3e2a" x="464.42625" y="483.886668" style="fill: #1f77b4; stroke: #1f77b4"/>
     <use xlink:href="#ma10f1c3e2a" x="526.928203" y="432.310647" style="fill: #1f77b4; stroke: #1f77b4"/>
     <use xlink:href="#ma10f1c3e2a" x="589.430156" y="498.309938" style="fill: #1f77b4; stroke: #1f77b4"/>
    </g>
   </g>
   <g id="line2d_22">
    <path d="M 89.414531 468.731071 
L 151.916484 375.469217 
L 276.920391 493.103119 
L 339.422344 427.034623 
L 401.924297 502.308624 
L 464.42625 490.405747 
L 526.928203 433.393284 
L 589.430156 485.415884 
" clip-path="url(#p395a8ee117)" style="fill: none; stroke: #ff7f0e; stroke-width: 2; stroke-linecap: square"/>
    <defs>
     <path id="m0acfe664eb" d="M 0 3 
C 0.795609 3 1.55874 2.683901 2.12132 2.12132 
C 2.683901 1.55874 3 0.795609 3 0 
C 3 -0.795609 2.683901 -1.55874 2.12132 -2.12132 
C 1.55874 -2.683901 0.795609 -3 0 -3 
C -0.795609 -3 -1.55874 -2.683901 -2.12132 -2.12132 
C -2.683901 -1.55874 -3 -0.795609 -3 0 
C -3 0.795609 -2.683901 1.55874 -2.12132 2.12132 
C -1.55874 2.683901 -0.795609 3 0 3 
z
" style="stroke: #ff7f0e"/>
    </defs>
    <g clip-path="url(#p395a8ee117)">
     <use xlink:href="#m0acfe664eb" x="89.414531" y="468.731071" style="fill: #ff7f0e; stroke: #ff7f0e"/>
     <use xlink:href="#m0acfe664eb" x="151.916484" y="375.469217" style="fill: #ff7f0e; stroke: #ff7f0e"/>
     <use xlink:href="#m0acfe664eb" x="276.920391" y="493.103119" style="fill: #ff7f0e; stroke: #ff7f0e"/>
     <use xlink:href="#m0acfe664eb" x="339.422344" y="427.034623" style="fill: #ff7f0e; stroke: #ff7f0e"/>
     <use xlink:href="#m0acfe664eb" x="401.924297" y="502.308624" style="fill: #ff7f0e; stroke: #ff7f0e"/>
     <use xlink:href="#m0acfe664eb" x="464.42625" y="490.405747" style="fill: #ff7f0e; stroke: #ff7f0e"/>
     <use xlink:href="#m0acfe664eb" x="526.928203" y="433.393284" style="fill: #ff7f0e; stroke: #ff7f0e"/>
     <use xlink:href="#m0acfe664eb" x="589.430156" y="485.415884" style="fill: #ff7f0e; stroke: #ff7f0e"/>
    </g>
   </g>
   <g id="line2d_23">
    <path d="M 89.414531 89.173216 
L 151.916484 161.892239 
L 276.920391 128.43146 
L 339.422344 46.813736 
L 401.924297 179.893875 
L 464.42625 137.405096 
L 526.928203 180.227381 
L 589.430156 173.569457 
" clip-path="url(#p395a8ee117)" style="fill: none; stroke: #2ca02c; stroke-width: 2; stroke-linecap: square"/>
    <defs>
     <path id="mb6f07b7aad" d="M 0 3 
C 0.795609 3 1.55874 2.683901 2.12132 2.12132 
C 2.683901 1.55874 3 0.795609 3 0 
C 3 -0.795609 2.683901 -1.55874 2.12132 -2.12132 
C 1.55874 -2.683901 0.795609 -3 0 -3 
C -0.795609 -3 -1.55874 -2.683901 -2.12132 -2.12132 
C -2.683901 -1.55874 -3 -0.795609 -3 0 
C -3 0.795609 -2.683901 1.55874 -2.12132 2.12132 
C -1.55874 2.683901 -0.795609 3 0 3 
z
" style="stroke: #2ca02c"/>
    </defs>
    <g clip-path="url(#p395a8ee117)">
     <use xlink:href="#mb6f07b7aad" x="89.414531" y="89.173216" style="fill: #2ca02c; stroke: #2ca02c"/>
     <use xlink:href="#mb6f07b7aad" x="151.916484" y="161.892239" style="fill: #2ca02c; stroke: #2ca02c"/>
     <use xlink:href="#mb6f07b7aad" x="276.920391" y="128.43146" style="fill: #2ca02c; stroke: #2ca02c"/>
     <use xlink:href="#mb6f07b7aad" x="339.422344" y="46.813736" style="fill: #2ca02c; stroke: #2ca02c"/>
     <use xlink:href="#mb6f07b7aad" x="401.924297" y="179.893875" style="fill: #2ca02c; stroke: #2ca02c"/>
     <use xlink:href="#mb6f07b7aad" x="464.42625" y="137.405096" style="fill: #2ca02c; stroke: #2ca02c"/>
     <use xlink:href="#mb6f07b7aad" x="526.928203" y="180.227381" style="fill: #2ca02c; stroke: #2ca02c"/>
     <use xlink:href="#mb6f07b7aad" x="589.430156" y="173.569457" style="fill: #2ca02c; stroke: #2ca02c"/>
    </g>
   </g>
   <g id="line2d_24">
    <path d="M 89.414531 97.951281 
L 151.916484 174.420983 
L 276.920391 180.369526 
L 339.422344 54.029165 
L 401.924297 198.408958 
L 464.42625 141.028216 
L 526.928203 175.879958 
L 589.430156 190.427519 
" clip-path="url(#p395a8ee117)" style="fill: none; stroke: #d62728; stroke-width: 2; stroke-linecap: square"/>
    <defs>
     <path id="mab0175d1da" d="M 0 3 
C 0.795609 3 1.55874 2.683901 2.12132 2.12132 
C 2.683901 1.55874 3 0.795609 3 0 
C 3 -0.795609 2.683901 -1.55874 2.12132 -2.12132 
C 1.55874 -2.683901 0.795609 -3 0 -3 
C -0.795609 -3 -1.55874 -2.683901 -2.12132 -2.12132 
C -2.683901 -1.55874 -3 -0.795609 -3 0 
C -3 0.795609 -2.683901 1.55874 -2.12132 2.12132 
C -1.55874 2.683901 -0.795609 3 0 3 
z
" style="stroke: #d62728"/>
    </defs>
    <g clip-path="url(#p395a8ee117)">
     <use xlink:href="#mab0175d1da" x="89.414531" y="97.951281" style="fill: #d62728; stroke: #d62728"/>
     <use xlink:href="#mab0175d1da" x="151.916484" y="174.420983" style="fill: #d62728; stroke: #d62728"/>
     <use xlink:href="#mab0175d1da" x="276.920391" y="180.369526" style="fill: #d62728; stroke: #d62728"/>
     <use xlink:href="#mab0175d1da" x="339.422344" y="54.029165" style="fill: #d62728; stroke: #d62728"/>
     <use xlink:href="#mab0175d1da" x="401.924297" y="198.408958" style="fill: #d62728; stroke: #d62728"/>
     <use xlink:href="#mab0175d1da" x="464.42625" y="141.028216" style="fill: #d62728; stroke: #d62728"/>
     <use xlink:href="#mab0175d1da" x="526.928203" y="175.879958" style="fill: #d62728; stroke: #d62728"/>
     <use xlink:href="#mab0175d1da" x="589.430156" y="190.427519" style="fill: #d62728; stroke: #d62728"/>
    </g>
   </g>
   <g id="patch_3">
    <path d="M 64.41375 529.308125 
L 64.41375 23.837812 
" style="fill: none; stroke: #000000; stroke-width: 0.8; stroke-linejoin: miter; stroke-linecap: square"/>
   </g>
   <g id="patch_4">
    <path d="M 614.430938 529.308125 
L 614.430938 23.837812 
" style="fill: none; stroke: #000000; stroke-width: 0.8; stroke-linejoin: miter; stroke-linecap: square"/>
   </g>
   <g id="patch_5">
    <path d="M 64.41375 529.308125 
L 614.430938 529.308125 
" style="fill: none; stroke: #000000; stroke-width: 0.8; stroke-linejoin: miter; stroke-linecap: square"/>
   </g>
   <g id="patch_6">
    <path d="M 64.41375 23.837812 
L 614.430938 23.837812 
" style="fill: none; stroke: #000000; stroke-width: 0.8; stroke-linejoin: miter; stroke-linecap: square"/>
   </g>
   <g id="text_14">
    <text style="font: 700 14px 'DejaVu Sans', 'Bitstream Vera Sans', 'Computer Modern Sans Serif', 'Lucida Grande', 'Verdana', 'Geneva', 'Lucid', 'Arial', 'Helvetica', 'Avant Garde', sans-serif; text-anchor: middle" x="339.422344" y="17.837813" transform="rotate(-0 339.422344 17.837813)">Coroutine Memory - Performance Trend</text>
   </g>
   <g id="legend_1">
    <g id="patch_7">
     <path d="M 648.931797 91.662813 
L 841.620859 91.662813 
Q 843.620859 91.662813 843.620859 89.662813 
L 843.620859 30.837813 
Q 843.620859 28.837813 841.620859 28.837813 
L 648.931797 28.837813 
Q 646.931797 28.837813 646.931797 30.837813 
L 646.931797 89.662813 
Q 646.931797 91.662813 648.931797 91.662813 
z
" style="fill: #ffffff; opacity: 0.8; stroke: #cccccc; stroke-linejoin: miter"/>
    </g>
    <g id="line2d_25">
     <path d="M 650.931797 36.93625 
L 660.931797 36.93625 
L 670.931797 36.93625 
" style="fill: none; stroke: #1f77b4; stroke-width: 2; stroke-linecap: square"/>
     <g>
      <use xlink:href="#ma10f1c3e2a" x="660.931797" y="36.93625" style="fill: #1f77b4; stroke: #1f77b4"/>
     </g>
    </g>
    <g id="text_15">
     <text style="font: 10px 'DejaVu Sans', 'Bitstream Vera Sans', 'Computer Modern Sans Serif', 'Lucida Grande', 'Verdana', 'Geneva', 'Lucid', 'Arial', 'Helvetica', 'Avant Garde', sans-serif; text-anchor: start" x="678.931797" y="40.43625" transform="rotate(-0 678.931797 40.43625)">gcc-14.2 - CoroutineMemory_V1</text>
    </g>
    <g id="line2d_26">
     <path d="M 650.931797 51.8925 
L 660.931797 51.8925 
L 670.931797 51.8925 
" style="fill: none; stroke: #ff7f0e; stroke-width: 2; stroke-linecap: square"/>
     <g>
      <use xlink:href="#m0acfe664eb" x="660.931797" y="51.8925" style="fill: #ff7f0e; stroke: #ff7f0e"/>
     </g>
    </g>
    <g id="text_16">
     <text style="font: 10px 'DejaVu Sans', 'Bitstream Vera Sans', 'Computer Modern Sans Serif', 'Lucida Grande', 'Verdana', 'Geneva', 'Lucid', 'Arial', 'Helvetica', 'Avant Garde', sans-serif; text-anchor: start" x="678.931797" y="55.3925" transform="rotate(-0 678.931797 55.3925)">gcc-14.2 - CoroutineMemory_V2</text>
    </g>
    <g id="line2d_27">
     <path d="M 650.931797 66.84875 
L 660.931797 66.84875 
L 670.931797 66.84875 
" style="fill: none; stroke: #2ca02c; stroke-width: 2; stroke-linecap: square"/>
     <g>
      <use xlink:href="#mb6f07b7aad" x="660.931797" y="66.84875" style="fill: #2ca02c; stroke: #2ca02c"/>
     </g>
    </g>
    <g id="text_17">
     <text style="font: 10px 'DejaVu Sans', 'Bitstream Vera Sans', 'Computer Modern Sans Serif', 'Lucida Grande', 'Verdana', 'Geneva', 'Lucid', 'Arial', 'Helvetica', 'Avant Garde', sans-serif; text-anchor: start" x="678.931797" y="70.34875" transform="rotate(-0 678.931797 70.34875)">gcc-4.2 - CoroutineMemory_V1</text>
    </g>
    <g id="line2d_28">
     <path d="M 650.931797 81.805 
L 660.931797 81.805 
L 670.931797 81.805 
" style="fill: none; stroke: #d62728; stroke-width: 2; stroke-linecap: square"/>
     <g>
      <use xlink:href="#mab0175d1da" x="660.931797" y="81.805" style="fill: #d62728; stroke: #d62728"/>
     </g>
    </g>
    <g id="text_18">
     <text style="font: 10px 'DejaVu Sans', 'Bitstream Vera Sans', 'Computer Modern Sans Serif', 'Lucida Grande', 'Verdana', 'Geneva', 'Lucid', 'Arial', 'Helvetica', 'Avant Garde', sans-serif; text-anchor: start" x="678.931797" y="85.305" transform="rotate(-0 678.931797 85.305)">gcc-4.2 - CoroutineMemory_V2</text>
    </g>
   </g>
  </g>
 </g>
 <defs>
  <clipPath id="p395a8ee117">
   <rect x="64.41375" y="23.837813" width="550.017187" height="505.470313"/>
  </clipPath>
 </defs>
</svg>
