<?xml version="1.0" encoding="utf-8" standalone="no"?>
<!DOCTYPE svg PUBLIC "-//W3C//DTD SVG 1.1//EN"
  "http://www.w3.org/Graphics/SVG/1.1/DTD/svg11.dtd">
<svg xmlns:xlink="http://www.w3.org/1999/xlink" width="855.204687pt" height="568.8pt" viewBox="0 0 855.204687 568.8" xmlns="http://www.w3.org/2000/svg" version="1.1">
 <metadata>
  <rdf:RDF xmlns:dc="http://purl.org/dc/elements/1.1/" xmlns:cc="http://creativecommons.org/ns#" xmlns:rdf="http://www.w3.org/1999/02/22-rdf-syntax-ns#">
   <cc:Work>
    <dc:type rdf:resource="http://purl.org/dc/dcmitype/StillImage"/>
    <dc:date>2025-08-18T21:28:58.090134</dc:date>
    <dc:format>image/svg+xml</dc:format>
    <dc:creator>
     <cc:Agent>
      <dc:title>Matplotlib v3.9.4, https://matplotlib.org/</dc:title>
     </cc:Agent>
    </dc:creator>
   </cc:Work>
  </rdf:RDF>
 </metadata>
 <defs>
  <style type="text/css">*{stroke-linejoin: round; stroke-linecap: butt}</style>
 </defs>
 <g id="figure_1">
  <g id="patch_1">
   <path d="M 0 568.8 
L 855.204687 568.8 
L 855.204687 0 
L 0 0 
z
" style="fill: #ffffff"/>
  </g>
  <g id="axes_1">
   <g id="patch_2">
    <path d="M 64.41375 529.308125 
L 702.1075 529.308125 
L 702.1075 23.837812 
L 64.41375 23.837812 
z
" style="fill: #ffffff"/>
   </g>
   <g id="matplotlib.axis_1">
    <g id="xtick_1">
     <g id="line2d_1">
      <path d="M 72.695487 529.308125 
L 72.695487 23.837812 
" clip-path="url(#p64da050370)" style="fill: none; stroke: #b0b0b0; stroke-opacity: 0.3; stroke-width: 0.8; stroke-linecap: square"/>
     </g>
     <g id="line2d_2">
      <defs>
       <path id="m7d675f2fe3" d="M 0 0 
L 0 3.5 
" style="stroke: #000000; stroke-width: 0.8"/>
      </defs>
      <g>
       <use xlink:href="#m7d675f2fe3" x="72.695487" y="529.308125" style="stroke: #000000; stroke-width: 0.8"/>
      </g>
     </g>
     <g id="text_1">
      <text style="font: 10px 'DejaVu Sans', 'Bitstream Vera Sans', 'Computer Modern Sans Serif', 'Lucida Grande', 'Verdana', 'Geneva', 'Lucid', 'Arial', 'Helvetica', 'Avant Garde', sans-serif; text-anchor: middle" x="72.695487" y="543.906563" transform="rotate(-0 72.695487 543.906563)">70</text>
     </g>
    </g>
    <g id="xtick_2">
     <g id="line2d_3">
      <path d="M 176.2172 529.308125 
L 176.2172 23.837812 
" clip-path="url(#p64da050370)" style="fill: none; stroke: #b0b0b0; stroke-opacity: 0.3; stroke-width: 0.8; stroke-linecap: square"/>
     </g>
     <g id="line2d_4">
      <g>
       <use xlink:href="#m7d675f2fe3" x="176.2172" y="529.308125" style="stroke: #000000; stroke-width: 0.8"/>
      </g>
     </g>
     <g id="text_2">
      <text style="font: 10px 'DejaVu Sans', 'Bitstream Vera Sans', 'Computer Modern Sans Serif', 'Lucida Grande', 'Verdana', 'Geneva', 'Lucid', 'Arial', 'Helvetica', 'Avant Garde', sans-serif; text-anchor: middle" x="176.2172" y="543.906563" transform="rotate(-0 176.2172 543.906563)">75</text>
     </g>
    </g>
    <g id="xtick_3">
     <g id="line2d_5">
      <path d="M 279.738912 529.308125 
L 279.738912 23.837812 
" clip-path="url(#p64da050370)" style="fill: none; stroke: #b0b0b0; stroke-opacity: 0.3; stroke-width: 0.8; stroke-linecap: square"/>
     </g>
     <g id="line2d_6">
      <g>
       <use xlink:href="#m7d675f2fe3" x="279.738912" y="529.308125" style="stroke: #000000; stroke-width: 0.8"/>
      </g>
     </g>
     <g id="text_3">
      <text style="font: 10px 'DejaVu Sans', 'Bitstream Vera Sans', 'Computer Modern Sans Serif', 'Lucida Grande', 'Verdana', 'Geneva', 'Lucid', 'Arial', 'Helvetica', 'Avant Garde', sans-serif; text-anchor: middle" x="279.738912" y="543.906563" transform="rotate(-0 279.738912 543.906563)">80</text>
     </g>
    </g>
    <g id="xtick_4">
     <g id="line2d_7">
      <path d="M 383.260625 529.308125 
L 383.260625 23.837812 
" clip-path="url(#p64da050370)" style="fill: none; stroke: #b0b0b0; stroke-opacity: 0.3; stroke-width: 0.8; stroke-linecap: square"/>
     </g>
     <g id="line2d_8">
      <g>
       <use xlink:href="#m7d675f2fe3" x="383.260625" y="529.308125" style="stroke: #000000; stroke-width: 0.8"/>
      </g>
     </g>
     <g id="text_4">
      <text style="font: 10px 'DejaVu Sans', 'Bitstream Vera Sans', 'Computer Modern Sans Serif', 'Lucida Grande', 'Verdana', 'Geneva', 'Lucid', 'Arial', 'Helvetica', 'Avant Garde', sans-serif; text-anchor: middle" x="383.260625" y="543.906563" transform="rotate(-0 383.260625 543.906563)">85</text>
     </g>
    </g>
    <g id="xtick_5">
     <g id="line2d_9">
      <path d="M 486.782338 529.308125 
L 486.782338 23.837812 
" clip-path="url(#p64da050370)" style="fill: none; stroke: #b0b0b0; stroke-opacity: 0.3; stroke-width: 0.8; stroke-linecap: square"/>
     </g>
     <g id="line2d_10">
      <g>
       <use xlink:href="#m7d675f2fe3" x="486.782338" y="529.308125" style="stroke: #000000; stroke-width: 0.8"/>
      </g>
     </g>
     <g id="text_5">
      <text style="font: 10px 'DejaVu Sans', 'Bitstream Vera Sans', 'Computer Modern Sans Serif', 'Lucida Grande', 'Verdana', 'Geneva', 'Lucid', 'Arial', 'Helvetica', 'Avant Garde', sans-serif; text-anchor: middle" x="486.782338" y="543.906563" transform="rotate(-0 486.782338 543.906563)">90</text>
     </g>
    </g>
    <g id="xtick_6">
     <g id="line2d_11">
      <path d="M 590.30405 529.308125 
L 590.30405 23.837812 
" clip-path="url(#p64da050370)" style="fill: none; stroke: #b0b0b0; stroke-opacity: 0.3; stroke-width: 0.8; stroke-linecap: square"/>
     </g>
     <g id="line2d_12">
      <g>
       <use xlink:href="#m7d675f2fe3" x="590.30405" y="529.308125" style="stroke: #000000; stroke-width: 0.8"/>
      </g>
     </g>
     <g id="text_6">
      <text style="font: 10px 'DejaVu Sans', 'Bitstream Vera Sans', 'Computer Modern Sans Serif', 'Lucida Grande', 'Verdana', 'Geneva', 'Lucid', 'Arial', 'Helvetica', 'Avant Garde', sans-serif; text-anchor: middle" x="590.30405" y="543.906563" transform="rotate(-0 590.30405 543.906563)">95</text>
     </g>
    </g>
    <g id="xtick_7">
     <g id="line2d_13">
      <path d="M 693.825763 529.308125 
L 693.825763 23.837812 
" clip-path="url(#p64da050370)" style="fill: none; stroke: #b0b0b0; stroke-opacity: 0.3; stroke-width: 0.8; stroke-linecap: square"/>
     </g>
     <g id="line2d_14">
      <g>
       <use xlink:href="#m7d675f2fe3" x="693.825763" y="529.308125" style="stroke: #000000; stroke-width: 0.8"/>
      </g>
     </g>
     <g id="text_7">
      <text style="font: 10px 'DejaVu Sans', 'Bitstream Vera Sans', 'Computer Modern Sans Serif', 'Lucida Grande', 'Verdana', 'Geneva', 'Lucid', 'Arial', 'Helvetica', 'Avant Garde', sans-serif; text-anchor: middle" x="693.825763" y="543.906563" transform="rotate(-0 693.825763 543.906563)">100</text>
     </g>
    </g>
    <g id="text_8">
     <text style="font: 12px 'DejaVu Sans', 'Bitstream Vera Sans', 'Computer Modern Sans Serif', 'Lucida Grande', 'Verdana', 'Geneva', 'Lucid', 'Arial', 'Helvetica', 'Avant Garde', sans-serif; text-anchor: middle" x="383.260625" y="559.104375" transform="rotate(-0 383.260625 559.104375)">Build Number</text>
    </g>
   </g>
   <g id="matplotlib.axis_2">
    <g id="ytick_1">
     <g id="line2d_15">
      <defs>
       <path id="m618ae787b1" d="M 0 0 
L -2 0 
" style="stroke: #000000; stroke-width: 0.6"/>
      </defs>
      <g>
       <use xlink:href="#m618ae787b1" x="64.41375" y="417.011716" style="stroke: #000000; stroke-width: 0.6"/>
      </g>
     </g>
     <g id="text_9">
      <!-- $\mathdefault{3\times10^{5}}$ -->
      <g transform="translate(22.81375 420.810934)">
       <text>
        <tspan style="font: 10px 'DejaVu Sans'" x="0 8.310547 18.637695 25" y="-0.06406250000000036">3×10</tspan>
        <tspan style="font: 7px 'DejaVu Sans'" x="31.458008" y="-3.8921875000000004">5</tspan>
       </text>
      </g>
     </g>
    </g>
    <g id="ytick_2">
     <g id="line2d_16">
      <g>
       <use xlink:href="#m618ae787b1" x="64.41375" y="310.236742" style="stroke: #000000; stroke-width: 0.6"/>
      </g>
     </g>
     <g id="text_10">
      <!-- $\mathdefault{4\times10^{5}}$ -->
      <g transform="translate(22.81375 314.035961)">
       <text>
        <tspan style="font: 10px 'DejaVu Sans'" x="0 8.310547 18.637695 25" y="-0.06406250000000036">4×10</tspan>
        <tspan style="font: 7px 'DejaVu Sans'" x="31.458008" y="-3.8921875000000004">5</tspan>
       </text>
      </g>
     </g>
    </g>
    <g id="ytick_3">
     <g id="line2d_17">
      <g>
       <use xlink:href="#m618ae787b1" x="64.41375" y="227.415638" style="stroke: #000000; stroke-width: 0.6"/>
      </g>
     </g>
    </g>
    <g id="ytick_4">
     <g id="line2d_18">
      <g>
       <use xlink:href="#m618ae787b1" x="64.41375" y="159.745869" style="stroke: #000000; stroke-width: 0.6"/>
      </g>
     </g>
     <g id="text_11">
      <!-- $\mathdefault{6\times10^{5}}$ -->
      <g transform="translate(22.81375 163.545088)">
       <text>
        <tspan style="font: 10px 'DejaVu Sans'" x="0 8.310547 18.637695 25" y="-0.06406250000000036">6×10</tspan>
        <tspan style="font: 7px 'DejaVu Sans'" x="31.458008" y="-3.8921875000000004">5</tspan>
       </text>
      </g>
     </g>
    </g>
    <g id="ytick_5">
     <g id="line2d_19">
      <g>
       <use xlink:href="#m618ae787b1" x="64.41375" y="102.531895" style="stroke: #000000; stroke-width: 0.6"/>
      </g>
     </g>
    </g>
    <g id="ytick_6">
     <g id="line2d_20">
      <g>
       <use xlink:href="#m618ae787b1" x="64.41375" y="52.970896" style="stroke: #000000; stroke-width: 0.6"/>
      </g>
     </g>
    </g>
    <g id="text_12">
     <text style="font: 12px 'DejaVu Sans', 'Bitstream Vera Sans', 'Computer Modern Sans Serif', 'Lucida Grande', 'Verdana', 'Geneva', 'Lucid', 'Arial', 'Helvetica', 'Avant Garde', sans-serif; text-anchor: middle" x="16.318125" y="276.572969" transform="rotate(-90 16.318125 276.572969)">Median Elapsed Time (nanoseconds)</text>
    </g>
   </g>
   <g id="line2d_21">
    <path d="M 93.39983 482.470795 
L 114.104172 268.656836 
L 134.808515 287.704452 
L 155.512857 403.035091 
L 176.2172 270.696658 
L 196.921542 479.96875 
L 217.625885 401.751841 
L 238.330227 205.105915 
L 259.03457 262.707773 
L 279.738912 483.038381 
L 300.443255 433.234763 
L 321.147597 267.781034 
L 341.85194 458.113326 
L 362.556282 375.700544 
L 383.260625 344.2423 
L 403.964968 485.939607 
L 445.373653 427.534791 
L 466.077995 158.059153 
L 486.782338 400.69281 
L 507.48668 144.855386 
L 528.191023 348.746101 
L 548.895365 227.854382 
L 569.599708 487.752332 
L 590.30405 317.609384 
L 611.008393 486.08607 
L 631.712735 265.637883 
L 673.12142 454.638269 
" clip-path="url(#p64da050370)" style="fill: none; stroke: #1f77b4; stroke-width: 2; stroke-linecap: square"/>
    <defs>
     <path id="m10414ffc50" d="M 0 3 
C 0.795609 3 1.55874 2.683901 2.12132 2.12132 
C 2.683901 1.55874 3 0.795609 3 0 
C 3 -0.795609 2.683901 -1.55874 2.12132 -2.12132 
C 1.55874 -2.683901 0.795609 -3 0 -3 
C -0.795609 -3 -1.55874 -2.683901 -2.12132 -2.12132 
C -2.683901 -1.55874 -3 -0.795609 -3 0 
C -3 0.795609 -2.683901 1.55874 -2.12132 2.12132 
C -1.55874 2.683901 -0.795609 3 0 3 
z
" style="stroke: #1f77b4"/>
    </defs>
    <g clip-path="url(#p64da050370)">
     <use xlink:href="#m10414ffc50" x="93.39983" y="482.470795" style="fill: #1f77b4; stroke: #1f77b4"/>
     <use xlink:href="#m10414ffc50" x="114.104172" y="268.656836" style="fill: #1f77b4; stroke: #1f77b4"/>
     <use xlink:href="#m10414ffc50" x="134.808515" y="287.704452" style="fill: #1f77b4; stroke: #1f77b4"/>
     <use xlink:href="#m10414ffc50" x="155.512857" y="403.035091" style="fill: #1f77b4; stroke: #1f77b4"/>
     <use xlink:href="#m10414ffc50" x="176.2172" y="270.696658" style="fill: #1f77b4; stroke: #1f77b4"/>
     <use xlink:href="#m10414ffc50" x="196.921542" y="479.96875" style="fill: #1f77b4; stroke: #1f77b4"/>
     <use xlink:href="#m10414ffc50" x="217.625885" y="401.751841" style="fill: #1f77b4; stroke: #1f77b4"/>
     <use xlink:href="#m10414ffc50" x="238.330227" y="205.105915" style="fill: #1f77b4; stroke: #1f77b4"/>
     <use xlink:href="#m10414ffc50" x="259.03457" y="262.707773" style="fill: #1f77b4; stroke: #1f77b4"/>
     <use xlink:href="#m10414ffc50" x="279.738912" y="483.038381" style="fill: #1f77b4; stroke: #1f77b4"/>
     <use xlink:href="#m10414ffc50" x="300.443255" y="433.234763" style="fill: #1f77b4; stroke: #1f77b4"/>
     <use xlink:href="#m10414ffc50" x="321.147597" y="267.781034" style="fill: #1f77b4; stroke: #1f77b4"/>
     <use xlink:href="#m10414ffc50" x="341.85194" y="458.113326" style="fill: #1f77b4; stroke: #1f77b4"/>
     <use xlink:href="#m10414ffc50" x="362.556282" y="375.700544" style="fill: #1f77b4; stroke: #1f77b4"/>
     <use xlink:href="#m10414ffc50" x="383.260625" y="344.2423" style="fill: #1f77b4; stroke: #1f77b4"/>
     <use xlink:href="#m10414ffc50" x="403.964968" y="485.939607" style="fill: #1f77b4; stroke: #1f77b4"/>
     <use xlink:href="#m10414ffc50" x="445.373653" y="427.534791" style="fill: #1f77b4; stroke: #1f77b4"/>
     <use xlink:href="#m10414ffc50" x="466.077995" y="158.059153" style="fill: #1f77b4; stroke: #1f77b4"/>
     <use xlink:href="#m10414ffc50" x="486.782338" y="400.69281" style="fill: #1f77b4; stroke: #1f77b4"/>
     <use xlink:href="#m10414ffc50" x="507.48668" y="144.855386" style="fill: #1f77b4; stroke: #1f77b4"/>
     <use xlink:href="#m10414ffc50" x="528.191023" y="348.746101" style="fill: #1f77b4; stroke: #1f77b4"/>
     <use xlink:href="#m10414ffc50" x="548.895365" y="227.854382" style="fill: #1f77b4; stroke: #1f77b4"/>
     <use xlink:href="#m10414ffc50" x="569.599708" y="487.752332" style="fill: #1f77b4; stroke: #1f77b4"/>
     <use xlink:href="#m10414ffc50" x="590.30405" y="317.609384" style="fill: #1f77b4; stroke: #1f77b4"/>
     <use xlink:href="#m10414ffc50" x="611.008393" y="486.08607" style="fill: #1f77b4; stroke: #1f77b4"/>
     <use xlink:href="#m10414ffc50" x="631.712735" y="265.637883" style="fill: #1f77b4; stroke: #1f77b4"/>
     <use xlink:href="#m10414ffc50" x="673.12142" y="454.638269" style="fill: #1f77b4; stroke: #1f77b4"/>
    </g>
   </g>
   <g id="line2d_22">
    <path d="M 93.39983 484.075511 
L 114.104172 269.471603 
L 134.808515 276.018299 
L 155.512857 451.895133 
L 176.2172 328.286652 
L 196.921542 486.973683 
L 217.625885 484.10812 
L 238.330227 443.530755 
L 259.03457 366.312057 
L 279.738912 345.419011 
L 300.443255 320.386004 
L 321.147597 391.53552 
L 341.85194 480.795848 
L 362.556282 263.642786 
L 383.260625 308.945882 
L 403.964968 484.811412 
L 445.373653 485.982512 
L 466.077995 264.399614 
L 486.782338 493.892014 
L 507.48668 264.063365 
L 528.191023 336.950072 
L 548.895365 294.11428 
L 569.599708 483.8214 
L 590.30405 270.188108 
L 611.008393 487.550746 
L 631.712735 355.014587 
L 673.12142 499.822767 
" clip-path="url(#p64da050370)" style="fill: none; stroke: #ff7f0e; stroke-width: 2; stroke-linecap: square"/>
    <defs>
     <path id="m7f24087b1e" d="M 0 3 
C 0.795609 3 1.55874 2.683901 2.12132 2.12132 
C 2.683901 1.55874 3 0.795609 3 0 
C 3 -0.795609 2.683901 -1.55874 2.12132 -2.12132 
C 1.55874 -2.683901 0.795609 -3 0 -3 
C -0.795609 -3 -1.55874 -2.683901 -2.12132 -2.12132 
C -2.683901 -1.55874 -3 -0.795609 -3 0 
C -3 0.795609 -2.683901 1.55874 -2.12132 2.12132 
C -1.55874 2.683901 -0.795609 3 0 3 
z
" style="stroke: #ff7f0e"/>
    </defs>
    <g clip-path="url(#p64da050370)">
     <use xlink:href="#m7f24087b1e" x="93.39983" y="484.075511" style="fill: #ff7f0e; stroke: #ff7f0e"/>
     <use xlink:href="#m7f24087b1e" x="114.104172" y="269.471603" style="fill: #ff7f0e; stroke: #ff7f0e"/>
     <use xlink:href="#m7f24087b1e" x="134.808515" y="276.018299" style="fill: #ff7f0e; stroke: #ff7f0e"/>
     <use xlink:href="#m7f24087b1e" x="155.512857" y="451.895133" style="fill: #ff7f0e; stroke: #ff7f0e"/>
     <use xlink:href="#m7f24087b1e" x="176.2172" y="328.286652" style="fill: #ff7f0e; stroke: #ff7f0e"/>
     <use xlink:href="#m7f24087b1e" x="196.921542" y="486.973683" style="fill: #ff7f0e; stroke: #ff7f0e"/>
     <use xlink:href="#m7f24087b1e" x="217.625885" y="484.10812" style="fill: #ff7f0e; stroke: #ff7f0e"/>
     <use xlink:href="#m7f24087b1e" x="238.330227" y="443.530755" style="fill: #ff7f0e; stroke: #ff7f0e"/>
     <use xlink:href="#m7f24087b1e" x="259.03457" y="366.312057" style="fill: #ff7f0e; stroke: #ff7f0e"/>
     <use xlink:href="#m7f24087b1e" x="279.738912" y="345.419011" style="fill: #ff7f0e; stroke: #ff7f0e"/>
     <use xlink:href="#m7f24087b1e" x="300.443255" y="320.386004" style="fill: #ff7f0e; stroke: #ff7f0e"/>
     <use xlink:href="#m7f24087b1e" x="321.147597" y="391.53552" style="fill: #ff7f0e; stroke: #ff7f0e"/>
     <use xlink:href="#m7f24087b1e" x="341.85194" y="480.795848" style="fill: #ff7f0e; stroke: #ff7f0e"/>
     <use xlink:href="#m7f24087b1e" x="362.556282" y="263.642786" style="fill: #ff7f0e; stroke: #ff7f0e"/>
     <use xlink:href="#m7f24087b1e" x="383.260625" y="308.945882" style="fill: #ff7f0e; stroke: #ff7f0e"/>
     <use xlink:href="#m7f24087b1e" x="403.964968" y="484.811412" style="fill: #ff7f0e; stroke: #ff7f0e"/>
     <use xlink:href="#m7f24087b1e" x="445.373653" y="485.982512" style="fill: #ff7f0e; stroke: #ff7f0e"/>
     <use xlink:href="#m7f24087b1e" x="466.077995" y="264.399614" style="fill: #ff7f0e; stroke: #ff7f0e"/>
     <use xlink:href="#m7f24087b1e" x="486.782338" y="493.892014" style="fill: #ff7f0e; stroke: #ff7f0e"/>
     <use xlink:href="#m7f24087b1e" x="507.48668" y="264.063365" style="fill: #ff7f0e; stroke: #ff7f0e"/>
     <use xlink:href="#m7f24087b1e" x="528.191023" y="336.950072" style="fill: #ff7f0e; stroke: #ff7f0e"/>
     <use xlink:href="#m7f24087b1e" x="548.895365" y="294.11428" style="fill: #ff7f0e; stroke: #ff7f0e"/>
     <use xlink:href="#m7f24087b1e" x="569.599708" y="483.8214" style="fill: #ff7f0e; stroke: #ff7f0e"/>
     <use xlink:href="#m7f24087b1e" x="590.30405" y="270.188108" style="fill: #ff7f0e; stroke: #ff7f0e"/>
     <use xlink:href="#m7f24087b1e" x="611.008393" y="487.550746" style="fill: #ff7f0e; stroke: #ff7f0e"/>
     <use xlink:href="#m7f24087b1e" x="631.712735" y="355.014587" style="fill: #ff7f0e; stroke: #ff7f0e"/>
     <use xlink:href="#m7f24087b1e" x="673.12142" y="499.822767" style="fill: #ff7f0e; stroke: #ff7f0e"/>
    </g>
   </g>
   <g id="line2d_23">
    <path d="M 93.39983 499.924073 
L 114.104172 383.960818 
L 134.808515 252.268338 
L 155.512857 498.027829 
L 176.2172 472.15367 
L 196.921542 495.953396 
L 217.625885 494.571263 
L 238.330227 498.27538 
L 259.03457 498.206086 
L 279.738912 491.001289 
L 300.443255 496.881521 
L 321.147597 496.824912 
L 341.85194 497.056772 
L 362.556282 398.060965 
L 383.260625 489.150427 
L 403.964968 498.06923 
L 445.373653 494.371122 
L 466.077995 458.61674 
L 486.782338 496.90653 
L 507.48668 390.557618 
L 528.191023 448.291351 
L 548.895365 356.421834 
L 569.599708 476.599779 
L 590.30405 253.331061 
L 611.008393 493.920171 
L 631.712735 351.486402 
L 673.12142 499.155614 
" clip-path="url(#p64da050370)" style="fill: none; stroke: #2ca02c; stroke-width: 2; stroke-linecap: square"/>
    <defs>
     <path id="m7b3e34ef13" d="M 0 3 
C 0.795609 3 1.55874 2.683901 2.12132 2.12132 
C 2.683901 1.55874 3 0.795609 3 0 
C 3 -0.795609 2.683901 -1.55874 2.12132 -2.12132 
C 1.55874 -2.683901 0.795609 -3 0 -3 
C -0.795609 -3 -1.55874 -2.683901 -2.12132 -2.12132 
C -2.683901 -1.55874 -3 -0.795609 -3 0 
C -3 0.795609 -2.683901 1.55874 -2.12132 2.12132 
C -1.55874 2.683901 -0.795609 3 0 3 
z
" style="stroke: #2ca02c"/>
    </defs>
    <g clip-path="url(#p64da050370)">
     <use xlink:href="#m7b3e34ef13" x="93.39983" y="499.924073" style="fill: #2ca02c; stroke: #2ca02c"/>
     <use xlink:href="#m7b3e34ef13" x="114.104172" y="383.960818" style="fill: #2ca02c; stroke: #2ca02c"/>
     <use xlink:href="#m7b3e34ef13" x="134.808515" y="252.268338" style="fill: #2ca02c; stroke: #2ca02c"/>
     <use xlink:href="#m7b3e34ef13" x="155.512857" y="498.027829" style="fill: #2ca02c; stroke: #2ca02c"/>
     <use xlink:href="#m7b3e34ef13" x="176.2172" y="472.15367" style="fill: #2ca02c; stroke: #2ca02c"/>
     <use xlink:href="#m7b3e34ef13" x="196.921542" y="495.953396" style="fill: #2ca02c; stroke: #2ca02c"/>
     <use xlink:href="#m7b3e34ef13" x="217.625885" y="494.571263" style="fill: #2ca02c; stroke: #2ca02c"/>
     <use xlink:href="#m7b3e34ef13" x="238.330227" y="498.27538" style="fill: #2ca02c; stroke: #2ca02c"/>
     <use xlink:href="#m7b3e34ef13" x="259.03457" y="498.206086" style="fill: #2ca02c; stroke: #2ca02c"/>
     <use xlink:href="#m7b3e34ef13" x="279.738912" y="491.001289" style="fill: #2ca02c; stroke: #2ca02c"/>
     <use xlink:href="#m7b3e34ef13" x="300.443255" y="496.881521" style="fill: #2ca02c; stroke: #2ca02c"/>
     <use xlink:href="#m7b3e34ef13" x="321.147597" y="496.824912" style="fill: #2ca02c; stroke: #2ca02c"/>
     <use xlink:href="#m7b3e34ef13" x="341.85194" y="497.056772" style="fill: #2ca02c; stroke: #2ca02c"/>
     <use xlink:href="#m7b3e34ef13" x="362.556282" y="398.060965" style="fill: #2ca02c; stroke: #2ca02c"/>
     <use xlink:href="#m7b3e34ef13" x="383.260625" y="489.150427" style="fill: #2ca02c; stroke: #2ca02c"/>
     <use xlink:href="#m7b3e34ef13" x="403.964968" y="498.06923" style="fill: #2ca02c; stroke: #2ca02c"/>
     <use xlink:href="#m7b3e34ef13" x="445.373653" y="494.371122" style="fill: #2ca02c; stroke: #2ca02c"/>
     <use xlink:href="#m7b3e34ef13" x="466.077995" y="458.61674" style="fill: #2ca02c; stroke: #2ca02c"/>
     <use xlink:href="#m7b3e34ef13" x="486.782338" y="496.90653" style="fill: #2ca02c; stroke: #2ca02c"/>
     <use xlink:href="#m7b3e34ef13" x="507.48668" y="390.557618" style="fill: #2ca02c; stroke: #2ca02c"/>
     <use xlink:href="#m7b3e34ef13" x="528.191023" y="448.291351" style="fill: #2ca02c; stroke: #2ca02c"/>
     <use xlink:href="#m7b3e34ef13" x="548.895365" y="356.421834" style="fill: #2ca02c; stroke: #2ca02c"/>
     <use xlink:href="#m7b3e34ef13" x="569.599708" y="476.599779" style="fill: #2ca02c; stroke: #2ca02c"/>
     <use xlink:href="#m7b3e34ef13" x="590.30405" y="253.331061" style="fill: #2ca02c; stroke: #2ca02c"/>
     <use xlink:href="#m7b3e34ef13" x="611.008393" y="493.920171" style="fill: #2ca02c; stroke: #2ca02c"/>
     <use xlink:href="#m7b3e34ef13" x="631.712735" y="351.486402" style="fill: #2ca02c; stroke: #2ca02c"/>
     <use xlink:href="#m7b3e34ef13" x="673.12142" y="499.155614" style="fill: #2ca02c; stroke: #2ca02c"/>
    </g>
   </g>
   <g id="line2d_24">
    <path d="M 93.39983 501.264994 
L 114.104172 499.088007 
L 134.808515 504.433081 
L 155.512857 503.860295 
L 176.2172 283.513617 
L 196.921542 285.581239 
L 217.625885 505.193258 
L 238.330227 401.723702 
L 259.03457 498.142809 
L 279.738912 501.227582 
L 300.443255 503.932685 
L 321.147597 501.702581 
L 341.85194 46.813736 
L 383.260625 459.212035 
L 403.964968 500.829629 
L 445.373653 501.410333 
L 466.077995 505.705727 
L 486.782338 83.698286 
L 507.48668 505.155605 
L 528.191023 504.901072 
L 569.599708 504.966453 
L 590.30405 504.739473 
L 611.008393 503.369413 
L 631.712735 506.121372 
L 673.12142 506.332202 
" clip-path="url(#p64da050370)" style="fill: none; stroke: #d62728; stroke-width: 2; stroke-linecap: square"/>
    <defs>
     <path id="m975c2293ec" d="M 0 3 
C 0.795609 3 1.55874 2.683901 2.12132 2.12132 
C 2.683901 1.55874 3 0.795609 3 0 
C 3 -0.795609 2.683901 -1.55874 2.12132 -2.12132 
C 1.55874 -2.683901 0.795609 -3 0 -3 
C -0.795609 -3 -1.55874 -2.683901 -2.12132 -2.12132 
C -2.683901 -1.55874 -3 -0.795609 -3 0 
C -3 0.795609 -2.683901 1.55874 -2.12132 2.12132 
C -1.55874 2.683901 -0.795609 3 0 3 
z
" style="stroke: #d62728"/>
    </defs>
    <g clip-path="url(#p64da050370)">
     <use xlink:href="#m975c2293ec" x="93.39983" y="501.264994" style="fill: #d62728; stroke: #d62728"/>
     <use xlink:href="#m975c2293ec" x="114.104172" y="499.088007" style="fill: #d62728; stroke: #d62728"/>
     <use xlink:href="#m975c2293ec" x="134.808515" y="504.433081" style="fill: #d62728; stroke: #d62728"/>
     <use xlink:href="#m975c2293ec" x="155.512857" y="503.860295" style="fill: #d62728; stroke: #d62728"/>
     <use xlink:href="#m975c2293ec" x="176.2172" y="283.513617" style="fill: #d62728; stroke: #d62728"/>
     <use xlink:href="#m975c2293ec" x="196.921542" y="285.581239" style="fill: #d62728; stroke: #d62728"/>
     <use xlink:href="#m975c2293ec" x="217.625885" y="505.193258" style="fill: #d62728; stroke: #d62728"/>
     <use xlink:href="#m975c2293ec" x="238.330227" y="401.723702" style="fill: #d62728; stroke: #d62728"/>
     <use xlink:href="#m975c2293ec" x="259.03457" y="498.142809" style="fill: #d62728; stroke: #d62728"/>
     <use xlink:href="#m975c2293ec" x="279.738912" y="501.227582" style="fill: #d62728; stroke: #d62728"/>
     <use xlink:href="#m975c2293ec" x="300.443255" y="503.932685" style="fill: #d62728; stroke: #d62728"/>
     <use xlink:href="#m975c2293ec" x="321.147597" y="501.702581" style="fill: #d62728; stroke: #d62728"/>
     <use xlink:href="#m975c2293ec" x="341.85194" y="46.813736" style="fill: #d62728; stroke: #d62728"/>
     <use xlink:href="#m975c2293ec" x="383.260625" y="459.212035" style="fill: #d62728; stroke: #d62728"/>
     <use xlink:href="#m975c2293ec" x="403.964968" y="500.829629" style="fill: #d62728; stroke: #d62728"/>
     <use xlink:href="#m975c2293ec" x="445.373653" y="501.410333" style="fill: #d62728; stroke: #d62728"/>
     <use xlink:href="#m975c2293ec" x="466.077995" y="505.705727" style="fill: #d62728; stroke: #d62728"/>
     <use xlink:href="#m975c2293ec" x="486.782338" y="83.698286" style="fill: #d62728; stroke: #d62728"/>
     <use xlink:href="#m975c2293ec" x="507.48668" y="505.155605" style="fill: #d62728; stroke: #d62728"/>
     <use xlink:href="#m975c2293ec" x="528.191023" y="504.901072" style="fill: #d62728; stroke: #d62728"/>
     <use xlink:href="#m975c2293ec" x="569.599708" y="504.966453" style="fill: #d62728; stroke: #d62728"/>
     <use xlink:href="#m975c2293ec" x="590.30405" y="504.739473" style="fill: #d62728; stroke: #d62728"/>
     <use xlink:href="#m975c2293ec" x="611.008393" y="503.369413" style="fill: #d62728; stroke: #d62728"/>
     <use xlink:href="#m975c2293ec" x="631.712735" y="506.121372" style="fill: #d62728; stroke: #d62728"/>
     <use xlink:href="#m975c2293ec" x="673.12142" y="506.332202" style="fill: #d62728; stroke: #d62728"/>
    </g>
   </g>
   <g id="line2d_25">
    <path d="M 93.39983 494.092811 
L 114.104172 459.59967 
L 134.808515 497.000136 
L 155.512857 489.622245 
L 176.2172 355.029139 
L 196.921542 170.006402 
L 217.625885 500.720014 
L 238.330227 469.245449 
L 259.03457 355.534197 
L 279.738912 496.647931 
L 300.443255 502.990837 
L 321.147597 501.061522 
L 341.85194 184.984809 
L 383.260625 167.258747 
L 403.964968 501.920246 
L 445.373653 497.642361 
L 466.077995 500.030513 
L 486.782338 273.526422 
L 507.48668 489.001098 
L 528.191023 495.194938 
L 569.599708 500.426061 
L 590.30405 495.596371 
L 611.008393 504.189997 
L 631.712735 502.767244 
L 673.12142 504.724273 
" clip-path="url(#p64da050370)" style="fill: none; stroke: #9467bd; stroke-width: 2; stroke-linecap: square"/>
    <defs>
     <path id="m7f95bc790b" d="M 0 3 
C 0.795609 3 1.55874 2.683901 2.12132 2.12132 
C 2.683901 1.55874 3 0.795609 3 0 
C 3 -0.795609 2.683901 -1.55874 2.12132 -2.12132 
C 1.55874 -2.683901 0.795609 -3 0 -3 
C -0.795609 -3 -1.55874 -2.683901 -2.12132 -2.12132 
C -2.683901 -1.55874 -3 -0.795609 -3 0 
C -3 0.795609 -2.683901 1.55874 -2.12132 2.12132 
C -1.55874 2.683901 -0.795609 3 0 3 
z
" style="stroke: #9467bd"/>
    </defs>
    <g clip-path="url(#p64da050370)">
     <use xlink:href="#m7f95bc790b" x="93.39983" y="494.092811" style="fill: #9467bd; stroke: #9467bd"/>
     <use xlink:href="#m7f95bc790b" x="114.104172" y="459.59967" style="fill: #9467bd; stroke: #9467bd"/>
     <use xlink:href="#m7f95bc790b" x="134.808515" y="497.000136" style="fill: #9467bd; stroke: #9467bd"/>
     <use xlink:href="#m7f95bc790b" x="155.512857" y="489.622245" style="fill: #9467bd; stroke: #9467bd"/>
     <use xlink:href="#m7f95bc790b" x="176.2172" y="355.029139" style="fill: #9467bd; stroke: #9467bd"/>
     <use xlink:href="#m7f95bc790b" x="196.921542" y="170.006402" style="fill: #9467bd; stroke: #9467bd"/>
     <use xlink:href="#m7f95bc790b" x="217.625885" y="500.720014" style="fill: #9467bd; stroke: #9467bd"/>
     <use xlink:href="#m7f95bc790b" x="238.330227" y="469.245449" style="fill: #9467bd; stroke: #9467bd"/>
     <use xlink:href="#m7f95bc790b" x="259.03457" y="355.534197" style="fill: #9467bd; stroke: #9467bd"/>
     <use xlink:href="#m7f95bc790b" x="279.738912" y="496.647931" style="fill: #9467bd; stroke: #9467bd"/>
     <use xlink:href="#m7f95bc790b" x="300.443255" y="502.990837" style="fill: #9467bd; stroke: #9467bd"/>
     <use xlink:href="#m7f95bc790b" x="321.147597" y="501.061522" style="fill: #9467bd; stroke: #9467bd"/>
     <use xlink:href="#m7f95bc790b" x="341.85194" y="184.984809" style="fill: #9467bd; stroke: #9467bd"/>
     <use xlink:href="#m7f95bc790b" x="383.260625" y="167.258747" style="fill: #9467bd; stroke: #9467bd"/>
     <use xlink:href="#m7f95bc790b" x="403.964968" y="501.920246" style="fill: #9467bd; stroke: #9467bd"/>
     <use xlink:href="#m7f95bc790b" x="445.373653" y="497.642361" style="fill: #9467bd; stroke: #9467bd"/>
     <use xlink:href="#m7f95bc790b" x="466.077995" y="500.030513" style="fill: #9467bd; stroke: #9467bd"/>
     <use xlink:href="#m7f95bc790b" x="486.782338" y="273.526422" style="fill: #9467bd; stroke: #9467bd"/>
     <use xlink:href="#m7f95bc790b" x="507.48668" y="489.001098" style="fill: #9467bd; stroke: #9467bd"/>
     <use xlink:href="#m7f95bc790b" x="528.191023" y="495.194938" style="fill: #9467bd; stroke: #9467bd"/>
     <use xlink:href="#m7f95bc790b" x="569.599708" y="500.426061" style="fill: #9467bd; stroke: #9467bd"/>
     <use xlink:href="#m7f95bc790b" x="590.30405" y="495.596371" style="fill: #9467bd; stroke: #9467bd"/>
     <use xlink:href="#m7f95bc790b" x="611.008393" y="504.189997" style="fill: #9467bd; stroke: #9467bd"/>
     <use xlink:href="#m7f95bc790b" x="631.712735" y="502.767244" style="fill: #9467bd; stroke: #9467bd"/>
     <use xlink:href="#m7f95bc790b" x="673.12142" y="504.724273" style="fill: #9467bd; stroke: #9467bd"/>
    </g>
   </g>
   <g id="line2d_26">
    <path d="M 93.39983 362.628233 
L 114.104172 355.967202 
L 134.808515 361.607663 
L 155.512857 364.090019 
L 176.2172 355.347012 
L 196.921542 357.929808 
L 217.625885 465.644642 
L 238.330227 460.700986 
L 259.03457 357.33667 
L 279.738912 361.489716 
L 300.443255 363.88185 
L 321.147597 362.416184 
L 341.85194 401.938302 
L 383.260625 301.428046 
L 403.964968 360.765811 
L 445.373653 362.337911 
L 466.077995 360.6915 
L 486.782338 437.187148 
L 507.48668 391.660178 
L 528.191023 360.755179 
L 569.599708 464.848059 
L 590.30405 293.401896 
L 611.008393 361.353597 
L 631.712735 359.948037 
L 673.12142 465.957177 
" clip-path="url(#p64da050370)" style="fill: none; stroke: #8c564b; stroke-width: 2; stroke-linecap: square"/>
    <defs>
     <path id="mcb0b6ee169" d="M 0 3 
C 0.795609 3 1.55874 2.683901 2.12132 2.12132 
C 2.683901 1.55874 3 0.795609 3 0 
C 3 -0.795609 2.683901 -1.55874 2.12132 -2.12132 
C 1.55874 -2.683901 0.795609 -3 0 -3 
C -0.795609 -3 -1.55874 -2.683901 -2.12132 -2.12132 
C -2.683901 -1.55874 -3 -0.795609 -3 0 
C -3 0.795609 -2.683901 1.55874 -2.12132 2.12132 
C -1.55874 2.683901 -0.795609 3 0 3 
z
" style="stroke: #8c564b"/>
    </defs>
    <g clip-path="url(#p64da050370)">
     <use xlink:href="#mcb0b6ee169" x="93.39983" y="362.628233" style="fill: #8c564b; stroke: #8c564b"/>
     <use xlink:href="#mcb0b6ee169" x="114.104172" y="355.967202" style="fill: #8c564b; stroke: #8c564b"/>
     <use xlink:href="#mcb0b6ee169" x="134.808515" y="361.607663" style="fill: #8c564b; stroke: #8c564b"/>
     <use xlink:href="#mcb0b6ee169" x="155.512857" y="364.090019" style="fill: #8c564b; stroke: #8c564b"/>
     <use xlink:href="#mcb0b6ee169" x="176.2172" y="355.347012" style="fill: #8c564b; stroke: #8c564b"/>
     <use xlink:href="#mcb0b6ee169" x="196.921542" y="357.929808" style="fill: #8c564b; stroke: #8c564b"/>
     <use xlink:href="#mcb0b6ee169" x="217.625885" y="465.644642" style="fill: #8c564b; stroke: #8c564b"/>
     <use xlink:href="#mcb0b6ee169" x="238.330227" y="460.700986" style="fill: #8c564b; stroke: #8c564b"/>
     <use xlink:href="#mcb0b6ee169" x="259.03457" y="357.33667" style="fill: #8c564b; stroke: #8c564b"/>
     <use xlink:href="#mcb0b6ee169" x="279.738912" y="361.489716" style="fill: #8c564b; stroke: #8c564b"/>
     <use xlink:href="#mcb0b6ee169" x="300.443255" y="363.88185" style="fill: #8c564b; stroke: #8c564b"/>
     <use xlink:href="#mcb0b6ee169" x="321.147597" y="362.416184" style="fill: #8c564b; stroke: #8c564b"/>
     <use xlink:href="#mcb0b6ee169" x="341.85194" y="401.938302" style="fill: #8c564b; stroke: #8c564b"/>
     <use xlink:href="#mcb0b6ee169" x="383.260625" y="301.428046" style="fill: #8c564b; stroke: #8c564b"/>
     <use xlink:href="#mcb0b6ee169" x="403.964968" y="360.765811" style="fill: #8c564b; stroke: #8c564b"/>
     <use xlink:href="#mcb0b6ee169" x="445.373653" y="362.337911" style="fill: #8c564b; stroke: #8c564b"/>
     <use xlink:href="#mcb0b6ee169" x="466.077995" y="360.6915" style="fill: #8c564b; stroke: #8c564b"/>
     <use xlink:href="#mcb0b6ee169" x="486.782338" y="437.187148" style="fill: #8c564b; stroke: #8c564b"/>
     <use xlink:href="#mcb0b6ee169" x="507.48668" y="391.660178" style="fill: #8c564b; stroke: #8c564b"/>
     <use xlink:href="#mcb0b6ee169" x="528.191023" y="360.755179" style="fill: #8c564b; stroke: #8c564b"/>
     <use xlink:href="#mcb0b6ee169" x="569.599708" y="464.848059" style="fill: #8c564b; stroke: #8c564b"/>
     <use xlink:href="#mcb0b6ee169" x="590.30405" y="293.401896" style="fill: #8c564b; stroke: #8c564b"/>
     <use xlink:href="#mcb0b6ee169" x="611.008393" y="361.353597" style="fill: #8c564b; stroke: #8c564b"/>
     <use xlink:href="#mcb0b6ee169" x="631.712735" y="359.948037" style="fill: #8c564b; stroke: #8c564b"/>
     <use xlink:href="#mcb0b6ee169" x="673.12142" y="465.957177" style="fill: #8c564b; stroke: #8c564b"/>
    </g>
   </g>
   <g id="patch_3">
    <path d="M 64.41375 529.308125 
L 64.41375 23.837813 
" style="fill: none; stroke: #000000; stroke-width: 0.8; stroke-linejoin: miter; stroke-linecap: square"/>
   </g>
   <g id="patch_4">
    <path d="M 702.1075 529.308125 
L 702.1075 23.837813 
" style="fill: none; stroke: #000000; stroke-width: 0.8; stroke-linejoin: miter; stroke-linecap: square"/>
   </g>
   <g id="patch_5">
    <path d="M 64.41375 529.308125 
L 702.1075 529.308125 
" style="fill: none; stroke: #000000; stroke-width: 0.8; stroke-linejoin: miter; stroke-linecap: square"/>
   </g>
   <g id="patch_6">
    <path d="M 64.41375 23.837812 
L 702.1075 23.837812 
" style="fill: none; stroke: #000000; stroke-width: 0.8; stroke-linejoin: miter; stroke-linecap: square"/>
   </g>
   <g id="text_13">
    <text style="font: 700 14px 'DejaVu Sans', 'Bitstream Vera Sans', 'Computer Modern Sans Serif', 'Lucida Grande', 'Verdana', 'Geneva', 'Lucid', 'Arial', 'Helvetica', 'Avant Garde', sans-serif; text-anchor: middle" x="383.260625" y="17.837813" transform="rotate(-0 383.260625 17.837813)">Mixedworkload - Performance Trend</text>
   </g>
   <g id="legend_1">
    <g id="patch_7">
     <path d="M 740.992188 119.906563 
L 846.004688 119.906563 
Q 848.004688 119.906563 848.004688 117.906563 
L 848.004688 30.837813 
Q 848.004688 28.837813 846.004688 28.837813 
L 740.992188 28.837813 
Q 738.992188 28.837813 738.992188 30.837813 
L 738.992188 117.906563 
Q 738.992188 119.906563 740.992188 119.906563 
z
" style="fill: #ffffff; opacity: 0.8; stroke: #cccccc; stroke-linejoin: miter"/>
    </g>
    <g id="line2d_27">
     <path d="M 742.992188 36.93625 
L 752.992188 36.93625 
L 762.992188 36.93625 
" style="fill: none; stroke: #1f77b4; stroke-width: 2; stroke-linecap: square"/>
     <g>
      <use xlink:href="#m10414ffc50" x="752.992188" y="36.93625" style="fill: #1f77b4; stroke: #1f77b4"/>
     </g>
    </g>
    <g id="text_14">
     <text style="font: 10px 'DejaVu Sans', 'Bitstream Vera Sans', 'Computer Modern Sans Serif', 'Lucida Grande', 'Verdana', 'Geneva', 'Lucid', 'Arial', 'Helvetica', 'Avant Garde', sans-serif; text-anchor: start" x="770.992188" y="40.43625" transform="rotate(-0 770.992188 40.43625)">gcc-14.2 - V1</text>
    </g>
    <g id="line2d_28">
     <path d="M 742.992188 51.614375 
L 752.992188 51.614375 
L 762.992188 51.614375 
" style="fill: none; stroke: #ff7f0e; stroke-width: 2; stroke-linecap: square"/>
     <g>
      <use xlink:href="#m7f24087b1e" x="752.992188" y="51.614375" style="fill: #ff7f0e; stroke: #ff7f0e"/>
     </g>
    </g>
    <g id="text_15">
     <text style="font: 10px 'DejaVu Sans', 'Bitstream Vera Sans', 'Computer Modern Sans Serif', 'Lucida Grande', 'Verdana', 'Geneva', 'Lucid', 'Arial', 'Helvetica', 'Avant Garde', sans-serif; text-anchor: start" x="770.992188" y="55.114375" transform="rotate(-0 770.992188 55.114375)">gcc-14.2 - V2</text>
    </g>
    <g id="line2d_29">
     <path d="M 742.992188 66.2925 
L 752.992188 66.2925 
L 762.992188 66.2925 
" style="fill: none; stroke: #2ca02c; stroke-width: 2; stroke-linecap: square"/>
     <g>
      <use xlink:href="#m7b3e34ef13" x="752.992188" y="66.2925" style="fill: #2ca02c; stroke: #2ca02c"/>
     </g>
    </g>
    <g id="text_16">
     <text style="font: 10px 'DejaVu Sans', 'Bitstream Vera Sans', 'Computer Modern Sans Serif', 'Lucida Grande', 'Verdana', 'Geneva', 'Lucid', 'Arial', 'Helvetica', 'Avant Garde', sans-serif; text-anchor: start" x="770.992188" y="69.7925" transform="rotate(-0 770.992188 69.7925)">gcc-14.2 - TBB</text>
    </g>
    <g id="line2d_30">
     <path d="M 742.992188 80.970625 
L 752.992188 80.970625 
L 762.992188 80.970625 
" style="fill: none; stroke: #d62728; stroke-width: 2; stroke-linecap: square"/>
     <g>
      <use xlink:href="#m975c2293ec" x="752.992188" y="80.970625" style="fill: #d62728; stroke: #d62728"/>
     </g>
    </g>
    <g id="text_17">
     <text style="font: 10px 'DejaVu Sans', 'Bitstream Vera Sans', 'Computer Modern Sans Serif', 'Lucida Grande', 'Verdana', 'Geneva', 'Lucid', 'Arial', 'Helvetica', 'Avant Garde', sans-serif; text-anchor: start" x="770.992188" y="84.470625" transform="rotate(-0 770.992188 84.470625)">gcc-4.2 - V1</text>
    </g>
    <g id="line2d_31">
     <path d="M 742.992188 95.64875 
L 752.992188 95.64875 
L 762.992188 95.64875 
" style="fill: none; stroke: #9467bd; stroke-width: 2; stroke-linecap: square"/>
     <g>
      <use xlink:href="#m7f95bc790b" x="752.992188" y="95.64875" style="fill: #9467bd; stroke: #9467bd"/>
     </g>
    </g>
    <g id="text_18">
     <text style="font: 10px 'DejaVu Sans', 'Bitstream Vera Sans', 'Computer Modern Sans Serif', 'Lucida Grande', 'Verdana', 'Geneva', 'Lucid', 'Arial', 'Helvetica', 'Avant Garde', sans-serif; text-anchor: start" x="770.992188" y="99.14875" transform="rotate(-0 770.992188 99.14875)">gcc-4.2 - V2</text>
    </g>
    <g id="line2d_32">
     <path d="M 742.992188 110.326875 
L 752.992188 110.326875 
L 762.992188 110.326875 
" style="fill: none; stroke: #8c564b; stroke-width: 2; stroke-linecap: square"/>
     <g>
      <use xlink:href="#mcb0b6ee169" x="752.992188" y="110.326875" style="fill: #8c564b; stroke: #8c564b"/>
     </g>
    </g>
    <g id="text_19">
     <text style="font: 10px 'DejaVu Sans', 'Bitstream Vera Sans', 'Computer Modern Sans Serif', 'Lucida Grande', 'Verdana', 'Geneva', 'Lucid', 'Arial', 'Helvetica', 'Avant Garde', sans-serif; text-anchor: start" x="770.992188" y="113.826875" transform="rotate(-0 770.992188 113.826875)">gcc-4.2 - TBB</text>
    </g>
   </g>
  </g>
 </g>
 <defs>
  <clipPath id="p64da050370">
   <rect x="64.41375" y="23.837813" width="637.69375" height="505.470313"/>
  </clipPath>
 </defs>
</svg>
