<?xml version="1.0" encoding="utf-8" standalone="no"?>
<!DOCTYPE svg PUBLIC "-//W3C//DTD SVG 1.1//EN"
  "http://www.w3.org/Graphics/SVG/1.1/DTD/svg11.dtd">
<svg xmlns:xlink="http://www.w3.org/1999/xlink" width="856.684141pt" height="568.8pt" viewBox="0 0 856.684141 568.8" xmlns="http://www.w3.org/2000/svg" version="1.1">
 <metadata>
  <rdf:RDF xmlns:dc="http://purl.org/dc/elements/1.1/" xmlns:cc="http://creativecommons.org/ns#" xmlns:rdf="http://www.w3.org/1999/02/22-rdf-syntax-ns#">
   <cc:Work>
    <dc:type rdf:resource="http://purl.org/dc/dcmitype/StillImage"/>
    <dc:date>2026-06-12T00:15:42.009086</dc:date>
    <dc:format>image/svg+xml</dc:format>
    <dc:creator>
     <cc:Agent>
      <dc:title>Matplotlib v3.9.4, https://matplotlib.org/</dc:title>
     </cc:Agent>
    </dc:creator>
   </cc:Work>
  </rdf:RDF>
 </metadata>
 <defs>
  <style type="text/css">*{stroke-linejoin: round; stroke-linecap: butt}</style>
 </defs>
 <g id="figure_1">
  <g id="patch_1">
   <path d="M 0 568.8 
L 856.684141 568.8 
L 856.684141 0 
L 0 0 
z
" style="fill: #ffffff"/>
  </g>
  <g id="axes_1">
   <g id="patch_2">
    <path d="M 64.41375 529.308125 
L 731.696562 529.308125 
L 731.696562 23.837812 
L 64.41375 23.837812 
z
" style="fill: #ffffff"/>
   </g>
   <g id="matplotlib.axis_1">
    <g id="xtick_1">
     <g id="line2d_1">
      <path d="M 84.285809 529.308125 
L 84.285809 23.837812 
" clip-path="url(#p033910801c)" style="fill: none; stroke: #b0b0b0; stroke-opacity: 0.3; stroke-width: 0.8; stroke-linecap: square"/>
     </g>
     <g id="line2d_2">
      <defs>
       <path id="mcd54b3f7d8" d="M 0 0 
L 0 3.5 
" style="stroke: #000000; stroke-width: 0.8"/>
      </defs>
      <g>
       <use xlink:href="#mcd54b3f7d8" x="84.285809" y="529.308125" style="stroke: #000000; stroke-width: 0.8"/>
      </g>
     </g>
     <g id="text_1">
      <text style="font: 10px 'DejaVu Sans', 'Bitstream Vera Sans', 'Computer Modern Sans Serif', 'Lucida Grande', 'Verdana', 'Geneva', 'Lucid', 'Arial', 'Helvetica', 'Avant Garde', sans-serif; text-anchor: middle" x="84.285809" y="543.906563" transform="rotate(-0 84.285809 543.906563)">70</text>
     </g>
    </g>
    <g id="xtick_2">
     <g id="line2d_3">
      <path d="M 188.875591 529.308125 
L 188.875591 23.837812 
" clip-path="url(#p033910801c)" style="fill: none; stroke: #b0b0b0; stroke-opacity: 0.3; stroke-width: 0.8; stroke-linecap: square"/>
     </g>
     <g id="line2d_4">
      <g>
       <use xlink:href="#mcd54b3f7d8" x="188.875591" y="529.308125" style="stroke: #000000; stroke-width: 0.8"/>
      </g>
     </g>
     <g id="text_2">
      <text style="font: 10px 'DejaVu Sans', 'Bitstream Vera Sans', 'Computer Modern Sans Serif', 'Lucida Grande', 'Verdana', 'Geneva', 'Lucid', 'Arial', 'Helvetica', 'Avant Garde', sans-serif; text-anchor: middle" x="188.875591" y="543.906563" transform="rotate(-0 188.875591 543.906563)">80</text>
     </g>
    </g>
    <g id="xtick_3">
     <g id="line2d_5">
      <path d="M 293.465374 529.308125 
L 293.465374 23.837812 
" clip-path="url(#p033910801c)" style="fill: none; stroke: #b0b0b0; stroke-opacity: 0.3; stroke-width: 0.8; stroke-linecap: square"/>
     </g>
     <g id="line2d_6">
      <g>
       <use xlink:href="#mcd54b3f7d8" x="293.465374" y="529.308125" style="stroke: #000000; stroke-width: 0.8"/>
      </g>
     </g>
     <g id="text_3">
      <text style="font: 10px 'DejaVu Sans', 'Bitstream Vera Sans', 'Computer Modern Sans Serif', 'Lucida Grande', 'Verdana', 'Geneva', 'Lucid', 'Arial', 'Helvetica', 'Avant Garde', sans-serif; text-anchor: middle" x="293.465374" y="543.906563" transform="rotate(-0 293.465374 543.906563)">90</text>
     </g>
    </g>
    <g id="xtick_4">
     <g id="line2d_7">
      <path d="M 398.055156 529.308125 
L 398.055156 23.837812 
" clip-path="url(#p033910801c)" style="fill: none; stroke: #b0b0b0; stroke-opacity: 0.3; stroke-width: 0.8; stroke-linecap: square"/>
     </g>
     <g id="line2d_8">
      <g>
       <use xlink:href="#mcd54b3f7d8" x="398.055156" y="529.308125" style="stroke: #000000; stroke-width: 0.8"/>
      </g>
     </g>
     <g id="text_4">
      <text style="font: 10px 'DejaVu Sans', 'Bitstream Vera Sans', 'Computer Modern Sans Serif', 'Lucida Grande', 'Verdana', 'Geneva', 'Lucid', 'Arial', 'Helvetica', 'Avant Garde', sans-serif; text-anchor: middle" x="398.055156" y="543.906563" transform="rotate(-0 398.055156 543.906563)">100</text>
     </g>
    </g>
    <g id="xtick_5">
     <g id="line2d_9">
      <path d="M 502.644939 529.308125 
L 502.644939 23.837812 
" clip-path="url(#p033910801c)" style="fill: none; stroke: #b0b0b0; stroke-opacity: 0.3; stroke-width: 0.8; stroke-linecap: square"/>
     </g>
     <g id="line2d_10">
      <g>
       <use xlink:href="#mcd54b3f7d8" x="502.644939" y="529.308125" style="stroke: #000000; stroke-width: 0.8"/>
      </g>
     </g>
     <g id="text_5">
      <text style="font: 10px 'DejaVu Sans', 'Bitstream Vera Sans', 'Computer Modern Sans Serif', 'Lucida Grande', 'Verdana', 'Geneva', 'Lucid', 'Arial', 'Helvetica', 'Avant Garde', sans-serif; text-anchor: middle" x="502.644939" y="543.906563" transform="rotate(-0 502.644939 543.906563)">110</text>
     </g>
    </g>
    <g id="xtick_6">
     <g id="line2d_11">
      <path d="M 607.234721 529.308125 
L 607.234721 23.837812 
" clip-path="url(#p033910801c)" style="fill: none; stroke: #b0b0b0; stroke-opacity: 0.3; stroke-width: 0.8; stroke-linecap: square"/>
     </g>
     <g id="line2d_12">
      <g>
       <use xlink:href="#mcd54b3f7d8" x="607.234721" y="529.308125" style="stroke: #000000; stroke-width: 0.8"/>
      </g>
     </g>
     <g id="text_6">
      <text style="font: 10px 'DejaVu Sans', 'Bitstream Vera Sans', 'Computer Modern Sans Serif', 'Lucida Grande', 'Verdana', 'Geneva', 'Lucid', 'Arial', 'Helvetica', 'Avant Garde', sans-serif; text-anchor: middle" x="607.234721" y="543.906563" transform="rotate(-0 607.234721 543.906563)">120</text>
     </g>
    </g>
    <g id="xtick_7">
     <g id="line2d_13">
      <path d="M 711.824504 529.308125 
L 711.824504 23.837812 
" clip-path="url(#p033910801c)" style="fill: none; stroke: #b0b0b0; stroke-opacity: 0.3; stroke-width: 0.8; stroke-linecap: square"/>
     </g>
     <g id="line2d_14">
      <g>
       <use xlink:href="#mcd54b3f7d8" x="711.824504" y="529.308125" style="stroke: #000000; stroke-width: 0.8"/>
      </g>
     </g>
     <g id="text_7">
      <text style="font: 10px 'DejaVu Sans', 'Bitstream Vera Sans', 'Computer Modern Sans Serif', 'Lucida Grande', 'Verdana', 'Geneva', 'Lucid', 'Arial', 'Helvetica', 'Avant Garde', sans-serif; text-anchor: middle" x="711.824504" y="543.906563" transform="rotate(-0 711.824504 543.906563)">130</text>
     </g>
    </g>
    <g id="text_8">
     <text style="font: 12px 'DejaVu Sans', 'Bitstream Vera Sans', 'Computer Modern Sans Serif', 'Lucida Grande', 'Verdana', 'Geneva', 'Lucid', 'Arial', 'Helvetica', 'Avant Garde', sans-serif; text-anchor: middle" x="398.055156" y="559.104375" transform="rotate(-0 398.055156 559.104375)">Build Number</text>
    </g>
   </g>
   <g id="matplotlib.axis_2">
    <g id="ytick_1">
     <g id="line2d_15">
      <path d="M 64.41375 312.403913 
L 731.696562 312.403913 
" clip-path="url(#p033910801c)" style="fill: none; stroke: #b0b0b0; stroke-opacity: 0.3; stroke-width: 0.8; stroke-linecap: square"/>
     </g>
     <g id="line2d_16">
      <defs>
       <path id="ma0cc014dde" d="M 0 0 
L -3.5 0 
" style="stroke: #000000; stroke-width: 0.8"/>
      </defs>
      <g>
       <use xlink:href="#ma0cc014dde" x="64.41375" y="312.403913" style="stroke: #000000; stroke-width: 0.8"/>
      </g>
     </g>
     <g id="text_9">
      <!-- $\mathdefault{10^{1}}$ -->
      <g transform="translate(39.81375 316.203132)">
       <text>
        <tspan style="font: 10px 'DejaVu Sans'" x="0 6.362305" y="-0.06406250000000036">10</tspan>
        <tspan style="font: 7px 'DejaVu Sans'" x="12.820312" y="-3.8921875000000004">1</tspan>
       </text>
      </g>
     </g>
    </g>
    <g id="ytick_2">
     <g id="line2d_17">
      <defs>
       <path id="m6350dae45f" d="M 0 0 
L -2 0 
" style="stroke: #000000; stroke-width: 0.6"/>
      </defs>
      <g>
       <use xlink:href="#m6350dae45f" x="64.41375" y="483.783927" style="stroke: #000000; stroke-width: 0.6"/>
      </g>
     </g>
     <g id="text_10">
      <!-- $\mathdefault{6\times10^{0}}$ -->
      <g transform="translate(22.81375 487.583146)">
       <text>
        <tspan style="font: 10px 'DejaVu Sans'" x="0 8.310547 18.637695 25" y="-0.9765625">6×10</tspan>
        <tspan style="font: 7px 'DejaVu Sans'" x="31.458008" y="-4.8046875">0</tspan>
       </text>
      </g>
     </g>
    </g>
    <g id="ytick_3">
     <g id="line2d_18">
      <g>
       <use xlink:href="#m6350dae45f" x="64.41375" y="432.066972" style="stroke: #000000; stroke-width: 0.6"/>
      </g>
     </g>
    </g>
    <g id="ytick_4">
     <g id="line2d_19">
      <g>
       <use xlink:href="#m6350dae45f" x="64.41375" y="387.267708" style="stroke: #000000; stroke-width: 0.6"/>
      </g>
     </g>
    </g>
    <g id="ytick_5">
     <g id="line2d_20">
      <g>
       <use xlink:href="#m6350dae45f" x="64.41375" y="347.751957" style="stroke: #000000; stroke-width: 0.6"/>
      </g>
     </g>
    </g>
    <g id="ytick_6">
     <g id="line2d_21">
      <g>
       <use xlink:href="#m6350dae45f" x="64.41375" y="79.855724" style="stroke: #000000; stroke-width: 0.6"/>
      </g>
     </g>
     <g id="text_11">
      <!-- $\mathdefault{2\times10^{1}}$ -->
      <g transform="translate(22.81375 83.654943)">
       <text>
        <tspan style="font: 10px 'DejaVu Sans'" x="0 8.310547 18.637695 25" y="-0.06406250000000036">2×10</tspan>
        <tspan style="font: 7px 'DejaVu Sans'" x="31.458008" y="-3.8921875000000004">1</tspan>
       </text>
      </g>
     </g>
    </g>
    <g id="text_12">
     <text style="font: 12px 'DejaVu Sans', 'Bitstream Vera Sans', 'Computer Modern Sans Serif', 'Lucida Grande', 'Verdana', 'Geneva', 'Lucid', 'Arial', 'Helvetica', 'Avant Garde', sans-serif; text-anchor: middle" x="16.318125" y="276.572969" transform="rotate(-90 16.318125 276.572969)">Median Elapsed Time (nanoseconds)</text>
    </g>
   </g>
   <g id="line2d_22">
    <path d="M 94.744787 466.351636 
L 105.203765 466.882905 
L 115.662743 461.6077 
L 126.121722 466.882905 
L 136.5807 472.242382 
L 147.039678 466.882905 
L 157.498656 466.882905 
L 167.957635 466.882905 
L 178.416613 466.882905 
L 188.875591 466.882905 
L 199.334569 461.6077 
L 209.793548 466.882905 
L 220.252526 466.882905 
L 241.170482 466.882905 
L 251.629461 466.882905 
L 272.547417 466.882905 
L 283.006395 466.882905 
L 293.465374 466.882905 
L 303.924352 466.882905 
L 314.38333 466.882905 
L 335.301287 466.882905 
L 345.760265 466.882905 
L 356.219243 466.351636 
L 366.678221 472.242382 
L 387.596178 466.882905 
L 398.055156 466.882905 
L 408.514135 461.6077 
L 418.973113 466.882905 
L 429.432091 466.882905 
L 439.891069 466.882905 
L 450.350048 461.6077 
L 460.809026 466.351636 
L 481.726982 461.084713 
L 492.185961 456.414158 
L 502.644939 456.414158 
L 523.562895 456.414158 
L 554.93983 456.414158 
L 565.398808 456.414158 
L 575.857787 456.414158 
L 586.316765 456.414158 
L 596.775743 456.414158 
L 607.234721 456.414158 
L 617.6937 456.414158 
L 628.152678 456.414158 
L 638.611656 456.414158 
L 649.070634 370.100947 
L 669.988591 456.414158 
L 680.447569 408.473101 
L 690.906547 461.084713 
L 701.365526 408.473101 
" clip-path="url(#p033910801c)" style="fill: none; stroke: #1f77b4; stroke-width: 2; stroke-linecap: square"/>
    <defs>
     <path id="m46275cfd8f" d="M 0 3 
C 0.795609 3 1.55874 2.683901 2.12132 2.12132 
C 2.683901 1.55874 3 0.795609 3 0 
C 3 -0.795609 2.683901 -1.55874 2.12132 -2.12132 
C 1.55874 -2.683901 0.795609 -3 0 -3 
C -0.795609 -3 -1.55874 -2.683901 -2.12132 -2.12132 
C -2.683901 -1.55874 -3 -0.795609 -3 0 
C -3 0.795609 -2.683901 1.55874 -2.12132 2.12132 
C -1.55874 2.683901 -0.795609 3 0 3 
z
" style="stroke: #1f77b4"/>
    </defs>
    <g clip-path="url(#p033910801c)">
     <use xlink:href="#m46275cfd8f" x="94.744787" y="466.351636" style="fill: #1f77b4; stroke: #1f77b4"/>
     <use xlink:href="#m46275cfd8f" x="105.203765" y="466.882905" style="fill: #1f77b4; stroke: #1f77b4"/>
     <use xlink:href="#m46275cfd8f" x="115.662743" y="461.6077" style="fill: #1f77b4; stroke: #1f77b4"/>
     <use xlink:href="#m46275cfd8f" x="126.121722" y="466.882905" style="fill: #1f77b4; stroke: #1f77b4"/>
     <use xlink:href="#m46275cfd8f" x="136.5807" y="472.242382" style="fill: #1f77b4; stroke: #1f77b4"/>
     <use xlink:href="#m46275cfd8f" x="147.039678" y="466.882905" style="fill: #1f77b4; stroke: #1f77b4"/>
     <use xlink:href="#m46275cfd8f" x="157.498656" y="466.882905" style="fill: #1f77b4; stroke: #1f77b4"/>
     <use xlink:href="#m46275cfd8f" x="167.957635" y="466.882905" style="fill: #1f77b4; stroke: #1f77b4"/>
     <use xlink:href="#m46275cfd8f" x="178.416613" y="466.882905" style="fill: #1f77b4; stroke: #1f77b4"/>
     <use xlink:href="#m46275cfd8f" x="188.875591" y="466.882905" style="fill: #1f77b4; stroke: #1f77b4"/>
     <use xlink:href="#m46275cfd8f" x="199.334569" y="461.6077" style="fill: #1f77b4; stroke: #1f77b4"/>
     <use xlink:href="#m46275cfd8f" x="209.793548" y="466.882905" style="fill: #1f77b4; stroke: #1f77b4"/>
     <use xlink:href="#m46275cfd8f" x="220.252526" y="466.882905" style="fill: #1f77b4; stroke: #1f77b4"/>
     <use xlink:href="#m46275cfd8f" x="241.170482" y="466.882905" style="fill: #1f77b4; stroke: #1f77b4"/>
     <use xlink:href="#m46275cfd8f" x="251.629461" y="466.882905" style="fill: #1f77b4; stroke: #1f77b4"/>
     <use xlink:href="#m46275cfd8f" x="272.547417" y="466.882905" style="fill: #1f77b4; stroke: #1f77b4"/>
     <use xlink:href="#m46275cfd8f" x="283.006395" y="466.882905" style="fill: #1f77b4; stroke: #1f77b4"/>
     <use xlink:href="#m46275cfd8f" x="293.465374" y="466.882905" style="fill: #1f77b4; stroke: #1f77b4"/>
     <use xlink:href="#m46275cfd8f" x="303.924352" y="466.882905" style="fill: #1f77b4; stroke: #1f77b4"/>
     <use xlink:href="#m46275cfd8f" x="314.38333" y="466.882905" style="fill: #1f77b4; stroke: #1f77b4"/>
     <use xlink:href="#m46275cfd8f" x="335.301287" y="466.882905" style="fill: #1f77b4; stroke: #1f77b4"/>
     <use xlink:href="#m46275cfd8f" x="345.760265" y="466.882905" style="fill: #1f77b4; stroke: #1f77b4"/>
     <use xlink:href="#m46275cfd8f" x="356.219243" y="466.351636" style="fill: #1f77b4; stroke: #1f77b4"/>
     <use xlink:href="#m46275cfd8f" x="366.678221" y="472.242382" style="fill: #1f77b4; stroke: #1f77b4"/>
     <use xlink:href="#m46275cfd8f" x="387.596178" y="466.882905" style="fill: #1f77b4; stroke: #1f77b4"/>
     <use xlink:href="#m46275cfd8f" x="398.055156" y="466.882905" style="fill: #1f77b4; stroke: #1f77b4"/>
     <use xlink:href="#m46275cfd8f" x="408.514135" y="461.6077" style="fill: #1f77b4; stroke: #1f77b4"/>
     <use xlink:href="#m46275cfd8f" x="418.973113" y="466.882905" style="fill: #1f77b4; stroke: #1f77b4"/>
     <use xlink:href="#m46275cfd8f" x="429.432091" y="466.882905" style="fill: #1f77b4; stroke: #1f77b4"/>
     <use xlink:href="#m46275cfd8f" x="439.891069" y="466.882905" style="fill: #1f77b4; stroke: #1f77b4"/>
     <use xlink:href="#m46275cfd8f" x="450.350048" y="461.6077" style="fill: #1f77b4; stroke: #1f77b4"/>
     <use xlink:href="#m46275cfd8f" x="460.809026" y="466.351636" style="fill: #1f77b4; stroke: #1f77b4"/>
     <use xlink:href="#m46275cfd8f" x="481.726982" y="461.084713" style="fill: #1f77b4; stroke: #1f77b4"/>
     <use xlink:href="#m46275cfd8f" x="492.185961" y="456.414158" style="fill: #1f77b4; stroke: #1f77b4"/>
     <use xlink:href="#m46275cfd8f" x="502.644939" y="456.414158" style="fill: #1f77b4; stroke: #1f77b4"/>
     <use xlink:href="#m46275cfd8f" x="523.562895" y="456.414158" style="fill: #1f77b4; stroke: #1f77b4"/>
     <use xlink:href="#m46275cfd8f" x="554.93983" y="456.414158" style="fill: #1f77b4; stroke: #1f77b4"/>
     <use xlink:href="#m46275cfd8f" x="565.398808" y="456.414158" style="fill: #1f77b4; stroke: #1f77b4"/>
     <use xlink:href="#m46275cfd8f" x="575.857787" y="456.414158" style="fill: #1f77b4; stroke: #1f77b4"/>
     <use xlink:href="#m46275cfd8f" x="586.316765" y="456.414158" style="fill: #1f77b4; stroke: #1f77b4"/>
     <use xlink:href="#m46275cfd8f" x="596.775743" y="456.414158" style="fill: #1f77b4; stroke: #1f77b4"/>
     <use xlink:href="#m46275cfd8f" x="607.234721" y="456.414158" style="fill: #1f77b4; stroke: #1f77b4"/>
     <use xlink:href="#m46275cfd8f" x="617.6937" y="456.414158" style="fill: #1f77b4; stroke: #1f77b4"/>
     <use xlink:href="#m46275cfd8f" x="628.152678" y="456.414158" style="fill: #1f77b4; stroke: #1f77b4"/>
     <use xlink:href="#m46275cfd8f" x="638.611656" y="456.414158" style="fill: #1f77b4; stroke: #1f77b4"/>
     <use xlink:href="#m46275cfd8f" x="649.070634" y="370.100947" style="fill: #1f77b4; stroke: #1f77b4"/>
     <use xlink:href="#m46275cfd8f" x="669.988591" y="456.414158" style="fill: #1f77b4; stroke: #1f77b4"/>
     <use xlink:href="#m46275cfd8f" x="680.447569" y="408.473101" style="fill: #1f77b4; stroke: #1f77b4"/>
     <use xlink:href="#m46275cfd8f" x="690.906547" y="461.084713" style="fill: #1f77b4; stroke: #1f77b4"/>
     <use xlink:href="#m46275cfd8f" x="701.365526" y="408.473101" style="fill: #1f77b4; stroke: #1f77b4"/>
    </g>
   </g>
   <g id="line2d_23">
    <path d="M 94.744787 506.332202 
L 105.203765 483.225232 
L 115.662743 483.225232 
L 126.121722 483.225232 
L 136.5807 483.225232 
L 147.039678 477.688867 
L 157.498656 482.667466 
L 167.957635 482.667466 
L 178.416613 483.225232 
L 188.875591 483.225232 
L 199.334569 483.225232 
L 209.793548 403.594685 
L 220.252526 477.688867 
L 230.711504 483.225232 
L 241.170482 483.225232 
L 251.629461 477.688867 
L 272.547417 472.242382 
L 283.006395 482.667466 
L 293.465374 478.23841 
L 303.924352 483.225232 
L 314.38333 482.667466 
L 324.842308 483.225232 
L 335.301287 477.688867 
L 345.760265 483.225232 
L 356.219243 483.225232 
L 366.678221 336.030376 
L 387.596178 483.225232 
L 398.055156 483.225232 
L 408.514135 483.225232 
L 418.973113 482.667466 
L 429.432091 477.688867 
L 439.891069 483.225232 
L 450.350048 483.225232 
L 460.809026 477.688867 
L 481.726982 477.688867 
L 492.185961 478.23841 
L 502.644939 482.667466 
L 513.103917 483.225232 
L 523.562895 478.23841 
L 544.480852 477.688867 
L 554.93983 477.688867 
L 565.398808 483.225232 
L 575.857787 483.225232 
L 586.316765 482.667466 
L 596.775743 483.225232 
L 607.234721 483.225232 
L 617.6937 483.225232 
L 628.152678 47.117903 
L 638.611656 483.225232 
L 649.070634 477.688867 
L 669.988591 483.225232 
L 680.447569 472.242382 
L 690.906547 477.140222 
L 701.365526 46.813736 
" clip-path="url(#p033910801c)" style="fill: none; stroke: #ff7f0e; stroke-width: 2; stroke-linecap: square"/>
    <defs>
     <path id="m1d04d59d1e" d="M 0 3 
C 0.795609 3 1.55874 2.683901 2.12132 2.12132 
C 2.683901 1.55874 3 0.795609 3 0 
C 3 -0.795609 2.683901 -1.55874 2.12132 -2.12132 
C 1.55874 -2.683901 0.795609 -3 0 -3 
C -0.795609 -3 -1.55874 -2.683901 -2.12132 -2.12132 
C -2.683901 -1.55874 -3 -0.795609 -3 0 
C -3 0.795609 -2.683901 1.55874 -2.12132 2.12132 
C -1.55874 2.683901 -0.795609 3 0 3 
z
" style="stroke: #ff7f0e"/>
    </defs>
    <g clip-path="url(#p033910801c)">
     <use xlink:href="#m1d04d59d1e" x="94.744787" y="506.332202" style="fill: #ff7f0e; stroke: #ff7f0e"/>
     <use xlink:href="#m1d04d59d1e" x="105.203765" y="483.225232" style="fill: #ff7f0e; stroke: #ff7f0e"/>
     <use xlink:href="#m1d04d59d1e" x="115.662743" y="483.225232" style="fill: #ff7f0e; stroke: #ff7f0e"/>
     <use xlink:href="#m1d04d59d1e" x="126.121722" y="483.225232" style="fill: #ff7f0e; stroke: #ff7f0e"/>
     <use xlink:href="#m1d04d59d1e" x="136.5807" y="483.225232" style="fill: #ff7f0e; stroke: #ff7f0e"/>
     <use xlink:href="#m1d04d59d1e" x="147.039678" y="477.688867" style="fill: #ff7f0e; stroke: #ff7f0e"/>
     <use xlink:href="#m1d04d59d1e" x="157.498656" y="482.667466" style="fill: #ff7f0e; stroke: #ff7f0e"/>
     <use xlink:href="#m1d04d59d1e" x="167.957635" y="482.667466" style="fill: #ff7f0e; stroke: #ff7f0e"/>
     <use xlink:href="#m1d04d59d1e" x="178.416613" y="483.225232" style="fill: #ff7f0e; stroke: #ff7f0e"/>
     <use xlink:href="#m1d04d59d1e" x="188.875591" y="483.225232" style="fill: #ff7f0e; stroke: #ff7f0e"/>
     <use xlink:href="#m1d04d59d1e" x="199.334569" y="483.225232" style="fill: #ff7f0e; stroke: #ff7f0e"/>
     <use xlink:href="#m1d04d59d1e" x="209.793548" y="403.594685" style="fill: #ff7f0e; stroke: #ff7f0e"/>
     <use xlink:href="#m1d04d59d1e" x="220.252526" y="477.688867" style="fill: #ff7f0e; stroke: #ff7f0e"/>
     <use xlink:href="#m1d04d59d1e" x="230.711504" y="483.225232" style="fill: #ff7f0e; stroke: #ff7f0e"/>
     <use xlink:href="#m1d04d59d1e" x="241.170482" y="483.225232" style="fill: #ff7f0e; stroke: #ff7f0e"/>
     <use xlink:href="#m1d04d59d1e" x="251.629461" y="477.688867" style="fill: #ff7f0e; stroke: #ff7f0e"/>
     <use xlink:href="#m1d04d59d1e" x="272.547417" y="472.242382" style="fill: #ff7f0e; stroke: #ff7f0e"/>
     <use xlink:href="#m1d04d59d1e" x="283.006395" y="482.667466" style="fill: #ff7f0e; stroke: #ff7f0e"/>
     <use xlink:href="#m1d04d59d1e" x="293.465374" y="478.23841" style="fill: #ff7f0e; stroke: #ff7f0e"/>
     <use xlink:href="#m1d04d59d1e" x="303.924352" y="483.225232" style="fill: #ff7f0e; stroke: #ff7f0e"/>
     <use xlink:href="#m1d04d59d1e" x="314.38333" y="482.667466" style="fill: #ff7f0e; stroke: #ff7f0e"/>
     <use xlink:href="#m1d04d59d1e" x="324.842308" y="483.225232" style="fill: #ff7f0e; stroke: #ff7f0e"/>
     <use xlink:href="#m1d04d59d1e" x="335.301287" y="477.688867" style="fill: #ff7f0e; stroke: #ff7f0e"/>
     <use xlink:href="#m1d04d59d1e" x="345.760265" y="483.225232" style="fill: #ff7f0e; stroke: #ff7f0e"/>
     <use xlink:href="#m1d04d59d1e" x="356.219243" y="483.225232" style="fill: #ff7f0e; stroke: #ff7f0e"/>
     <use xlink:href="#m1d04d59d1e" x="366.678221" y="336.030376" style="fill: #ff7f0e; stroke: #ff7f0e"/>
     <use xlink:href="#m1d04d59d1e" x="387.596178" y="483.225232" style="fill: #ff7f0e; stroke: #ff7f0e"/>
     <use xlink:href="#m1d04d59d1e" x="398.055156" y="483.225232" style="fill: #ff7f0e; stroke: #ff7f0e"/>
     <use xlink:href="#m1d04d59d1e" x="408.514135" y="483.225232" style="fill: #ff7f0e; stroke: #ff7f0e"/>
     <use xlink:href="#m1d04d59d1e" x="418.973113" y="482.667466" style="fill: #ff7f0e; stroke: #ff7f0e"/>
     <use xlink:href="#m1d04d59d1e" x="429.432091" y="477.688867" style="fill: #ff7f0e; stroke: #ff7f0e"/>
     <use xlink:href="#m1d04d59d1e" x="439.891069" y="483.225232" style="fill: #ff7f0e; stroke: #ff7f0e"/>
     <use xlink:href="#m1d04d59d1e" x="450.350048" y="483.225232" style="fill: #ff7f0e; stroke: #ff7f0e"/>
     <use xlink:href="#m1d04d59d1e" x="460.809026" y="477.688867" style="fill: #ff7f0e; stroke: #ff7f0e"/>
     <use xlink:href="#m1d04d59d1e" x="481.726982" y="477.688867" style="fill: #ff7f0e; stroke: #ff7f0e"/>
     <use xlink:href="#m1d04d59d1e" x="492.185961" y="478.23841" style="fill: #ff7f0e; stroke: #ff7f0e"/>
     <use xlink:href="#m1d04d59d1e" x="502.644939" y="482.667466" style="fill: #ff7f0e; stroke: #ff7f0e"/>
     <use xlink:href="#m1d04d59d1e" x="513.103917" y="483.225232" style="fill: #ff7f0e; stroke: #ff7f0e"/>
     <use xlink:href="#m1d04d59d1e" x="523.562895" y="478.23841" style="fill: #ff7f0e; stroke: #ff7f0e"/>
     <use xlink:href="#m1d04d59d1e" x="544.480852" y="477.688867" style="fill: #ff7f0e; stroke: #ff7f0e"/>
     <use xlink:href="#m1d04d59d1e" x="554.93983" y="477.688867" style="fill: #ff7f0e; stroke: #ff7f0e"/>
     <use xlink:href="#m1d04d59d1e" x="565.398808" y="483.225232" style="fill: #ff7f0e; stroke: #ff7f0e"/>
     <use xlink:href="#m1d04d59d1e" x="575.857787" y="483.225232" style="fill: #ff7f0e; stroke: #ff7f0e"/>
     <use xlink:href="#m1d04d59d1e" x="586.316765" y="482.667466" style="fill: #ff7f0e; stroke: #ff7f0e"/>
     <use xlink:href="#m1d04d59d1e" x="596.775743" y="483.225232" style="fill: #ff7f0e; stroke: #ff7f0e"/>
     <use xlink:href="#m1d04d59d1e" x="607.234721" y="483.225232" style="fill: #ff7f0e; stroke: #ff7f0e"/>
     <use xlink:href="#m1d04d59d1e" x="617.6937" y="483.225232" style="fill: #ff7f0e; stroke: #ff7f0e"/>
     <use xlink:href="#m1d04d59d1e" x="628.152678" y="47.117903" style="fill: #ff7f0e; stroke: #ff7f0e"/>
     <use xlink:href="#m1d04d59d1e" x="638.611656" y="483.225232" style="fill: #ff7f0e; stroke: #ff7f0e"/>
     <use xlink:href="#m1d04d59d1e" x="649.070634" y="477.688867" style="fill: #ff7f0e; stroke: #ff7f0e"/>
     <use xlink:href="#m1d04d59d1e" x="669.988591" y="483.225232" style="fill: #ff7f0e; stroke: #ff7f0e"/>
     <use xlink:href="#m1d04d59d1e" x="680.447569" y="472.242382" style="fill: #ff7f0e; stroke: #ff7f0e"/>
     <use xlink:href="#m1d04d59d1e" x="690.906547" y="477.140222" style="fill: #ff7f0e; stroke: #ff7f0e"/>
     <use xlink:href="#m1d04d59d1e" x="701.365526" y="46.813736" style="fill: #ff7f0e; stroke: #ff7f0e"/>
    </g>
   </g>
   <g id="patch_3">
    <path d="M 64.41375 529.308125 
L 64.41375 23.837812 
" style="fill: none; stroke: #000000; stroke-width: 0.8; stroke-linejoin: miter; stroke-linecap: square"/>
   </g>
   <g id="patch_4">
    <path d="M 731.696562 529.308125 
L 731.696562 23.837812 
" style="fill: none; stroke: #000000; stroke-width: 0.8; stroke-linejoin: miter; stroke-linecap: square"/>
   </g>
   <g id="patch_5">
    <path d="M 64.41375 529.308125 
L 731.696563 529.308125 
" style="fill: none; stroke: #000000; stroke-width: 0.8; stroke-linejoin: miter; stroke-linecap: square"/>
   </g>
   <g id="patch_6">
    <path d="M 64.41375 23.837812 
L 731.696563 23.837812 
" style="fill: none; stroke: #000000; stroke-width: 0.8; stroke-linejoin: miter; stroke-linecap: square"/>
   </g>
   <g id="text_13">
    <text style="font: 700 14px 'DejaVu Sans', 'Bitstream Vera Sans', 'Computer Modern Sans Serif', 'Lucida Grande', 'Verdana', 'Geneva', 'Lucid', 'Arial', 'Helvetica', 'Avant Garde', sans-serif; text-anchor: middle" x="398.055156" y="17.837813" transform="rotate(-0 398.055156 17.837813)">Ts Shared Linear Single Thread - Performance Trend</text>
   </g>
   <g id="legend_1">
    <g id="patch_7">
     <path d="M 772.060703 61.194063 
L 847.484141 61.194063 
Q 849.484141 61.194063 849.484141 59.194063 
L 849.484141 30.837813 
Q 849.484141 28.837813 847.484141 28.837813 
L 772.060703 28.837813 
Q 770.060703 28.837813 770.060703 30.837813 
L 770.060703 59.194063 
Q 770.060703 61.194063 772.060703 61.194063 
z
" style="fill: #ffffff; opacity: 0.8; stroke: #cccccc; stroke-linejoin: miter"/>
    </g>
    <g id="line2d_24">
     <path d="M 774.060703 36.93625 
L 784.060703 36.93625 
L 794.060703 36.93625 
" style="fill: none; stroke: #1f77b4; stroke-width: 2; stroke-linecap: square"/>
     <g>
      <use xlink:href="#m46275cfd8f" x="784.060703" y="36.93625" style="fill: #1f77b4; stroke: #1f77b4"/>
     </g>
    </g>
    <g id="text_14">
     <text style="font: 10px 'DejaVu Sans', 'Bitstream Vera Sans', 'Computer Modern Sans Serif', 'Lucida Grande', 'Verdana', 'Geneva', 'Lucid', 'Arial', 'Helvetica', 'Avant Garde', sans-serif; text-anchor: start" x="802.060703" y="40.43625" transform="rotate(-0 802.060703 40.43625)">clang-18</text>
    </g>
    <g id="line2d_25">
     <path d="M 774.060703 51.614375 
L 784.060703 51.614375 
L 794.060703 51.614375 
" style="fill: none; stroke: #ff7f0e; stroke-width: 2; stroke-linecap: square"/>
     <g>
      <use xlink:href="#m1d04d59d1e" x="784.060703" y="51.614375" style="fill: #ff7f0e; stroke: #ff7f0e"/>
     </g>
    </g>
    <g id="text_15">
     <text style="font: 10px 'DejaVu Sans', 'Bitstream Vera Sans', 'Computer Modern Sans Serif', 'Lucida Grande', 'Verdana', 'Geneva', 'Lucid', 'Arial', 'Helvetica', 'Avant Garde', sans-serif; text-anchor: start" x="802.060703" y="55.114375" transform="rotate(-0 802.060703 55.114375)">gcc-14</text>
    </g>
   </g>
  </g>
 </g>
 <defs>
  <clipPath id="p033910801c">
   <rect x="64.41375" y="23.837813" width="667.282812" height="505.470313"/>
  </clipPath>
 </defs>
</svg>
