<?xml version="1.0" encoding="utf-8" standalone="no"?>
<!DOCTYPE svg PUBLIC "-//W3C//DTD SVG 1.1//EN"
  "http://www.w3.org/Graphics/SVG/1.1/DTD/svg11.dtd">
<svg xmlns:xlink="http://www.w3.org/1999/xlink" width="848.869766pt" height="568.8pt" viewBox="0 0 848.869766 568.8" xmlns="http://www.w3.org/2000/svg" version="1.1">
 <metadata>
  <rdf:RDF xmlns:dc="http://purl.org/dc/elements/1.1/" xmlns:cc="http://creativecommons.org/ns#" xmlns:rdf="http://www.w3.org/1999/02/22-rdf-syntax-ns#">
   <cc:Work>
    <dc:type rdf:resource="http://purl.org/dc/dcmitype/StillImage"/>
    <dc:date>2026-06-12T00:15:49.021104</dc:date>
    <dc:format>image/svg+xml</dc:format>
    <dc:creator>
     <cc:Agent>
      <dc:title>Matplotlib v3.9.4, https://matplotlib.org/</dc:title>
     </cc:Agent>
    </dc:creator>
   </cc:Work>
  </rdf:RDF>
 </metadata>
 <defs>
  <style type="text/css">*{stroke-linejoin: round; stroke-linecap: butt}</style>
 </defs>
 <g id="figure_1">
  <g id="patch_1">
   <path d="M 0 568.8 
L 848.869766 568.8 
L 848.869766 0 
L 0 0 
z
" style="fill: #ffffff"/>
  </g>
  <g id="axes_1">
   <g id="patch_2">
    <path d="M 86.71375 529.308125 
L 597.709062 529.308125 
L 597.709062 23.837812 
L 86.71375 23.837812 
z
" style="fill: #ffffff"/>
   </g>
   <g id="matplotlib.axis_1">
    <g id="xtick_1">
     <g id="line2d_1">
      <path d="M 95.863804 529.308125 
L 95.863804 23.837812 
" clip-path="url(#p3c9086aa05)" style="fill: none; stroke: #b0b0b0; stroke-opacity: 0.3; stroke-width: 0.8; stroke-linecap: square"/>
     </g>
     <g id="line2d_2">
      <defs>
       <path id="m5f82d977af" d="M 0 0 
L 0 3.5 
" style="stroke: #000000; stroke-width: 0.8"/>
      </defs>
      <g>
       <use xlink:href="#m5f82d977af" x="95.863804" y="529.308125" style="stroke: #000000; stroke-width: 0.8"/>
      </g>
     </g>
     <g id="text_1">
      <text style="font: 10px 'DejaVu Sans', 'Bitstream Vera Sans', 'Computer Modern Sans Serif', 'Lucida Grande', 'Verdana', 'Geneva', 'Lucid', 'Arial', 'Helvetica', 'Avant Garde', sans-serif; text-anchor: middle" x="95.863804" y="543.906563" transform="rotate(-0 95.863804 543.906563)">95</text>
     </g>
    </g>
    <g id="xtick_2">
     <g id="line2d_3">
      <path d="M 166.248833 529.308125 
L 166.248833 23.837812 
" clip-path="url(#p3c9086aa05)" style="fill: none; stroke: #b0b0b0; stroke-opacity: 0.3; stroke-width: 0.8; stroke-linecap: square"/>
     </g>
     <g id="line2d_4">
      <g>
       <use xlink:href="#m5f82d977af" x="166.248833" y="529.308125" style="stroke: #000000; stroke-width: 0.8"/>
      </g>
     </g>
     <g id="text_2">
      <text style="font: 10px 'DejaVu Sans', 'Bitstream Vera Sans', 'Computer Modern Sans Serif', 'Lucida Grande', 'Verdana', 'Geneva', 'Lucid', 'Arial', 'Helvetica', 'Avant Garde', sans-serif; text-anchor: middle" x="166.248833" y="543.906563" transform="rotate(-0 166.248833 543.906563)">100</text>
     </g>
    </g>
    <g id="xtick_3">
     <g id="line2d_5">
      <path d="M 236.633862 529.308125 
L 236.633862 23.837812 
" clip-path="url(#p3c9086aa05)" style="fill: none; stroke: #b0b0b0; stroke-opacity: 0.3; stroke-width: 0.8; stroke-linecap: square"/>
     </g>
     <g id="line2d_6">
      <g>
       <use xlink:href="#m5f82d977af" x="236.633862" y="529.308125" style="stroke: #000000; stroke-width: 0.8"/>
      </g>
     </g>
     <g id="text_3">
      <text style="font: 10px 'DejaVu Sans', 'Bitstream Vera Sans', 'Computer Modern Sans Serif', 'Lucida Grande', 'Verdana', 'Geneva', 'Lucid', 'Arial', 'Helvetica', 'Avant Garde', sans-serif; text-anchor: middle" x="236.633862" y="543.906563" transform="rotate(-0 236.633862 543.906563)">105</text>
     </g>
    </g>
    <g id="xtick_4">
     <g id="line2d_7">
      <path d="M 307.018892 529.308125 
L 307.018892 23.837812 
" clip-path="url(#p3c9086aa05)" style="fill: none; stroke: #b0b0b0; stroke-opacity: 0.3; stroke-width: 0.8; stroke-linecap: square"/>
     </g>
     <g id="line2d_8">
      <g>
       <use xlink:href="#m5f82d977af" x="307.018892" y="529.308125" style="stroke: #000000; stroke-width: 0.8"/>
      </g>
     </g>
     <g id="text_4">
      <text style="font: 10px 'DejaVu Sans', 'Bitstream Vera Sans', 'Computer Modern Sans Serif', 'Lucida Grande', 'Verdana', 'Geneva', 'Lucid', 'Arial', 'Helvetica', 'Avant Garde', sans-serif; text-anchor: middle" x="307.018892" y="543.906563" transform="rotate(-0 307.018892 543.906563)">110</text>
     </g>
    </g>
    <g id="xtick_5">
     <g id="line2d_9">
      <path d="M 377.403921 529.308125 
L 377.403921 23.837812 
" clip-path="url(#p3c9086aa05)" style="fill: none; stroke: #b0b0b0; stroke-opacity: 0.3; stroke-width: 0.8; stroke-linecap: square"/>
     </g>
     <g id="line2d_10">
      <g>
       <use xlink:href="#m5f82d977af" x="377.403921" y="529.308125" style="stroke: #000000; stroke-width: 0.8"/>
      </g>
     </g>
     <g id="text_5">
      <text style="font: 10px 'DejaVu Sans', 'Bitstream Vera Sans', 'Computer Modern Sans Serif', 'Lucida Grande', 'Verdana', 'Geneva', 'Lucid', 'Arial', 'Helvetica', 'Avant Garde', sans-serif; text-anchor: middle" x="377.403921" y="543.906563" transform="rotate(-0 377.403921 543.906563)">115</text>
     </g>
    </g>
    <g id="xtick_6">
     <g id="line2d_11">
      <path d="M 447.78895 529.308125 
L 447.78895 23.837812 
" clip-path="url(#p3c9086aa05)" style="fill: none; stroke: #b0b0b0; stroke-opacity: 0.3; stroke-width: 0.8; stroke-linecap: square"/>
     </g>
     <g id="line2d_12">
      <g>
       <use xlink:href="#m5f82d977af" x="447.78895" y="529.308125" style="stroke: #000000; stroke-width: 0.8"/>
      </g>
     </g>
     <g id="text_6">
      <text style="font: 10px 'DejaVu Sans', 'Bitstream Vera Sans', 'Computer Modern Sans Serif', 'Lucida Grande', 'Verdana', 'Geneva', 'Lucid', 'Arial', 'Helvetica', 'Avant Garde', sans-serif; text-anchor: middle" x="447.78895" y="543.906563" transform="rotate(-0 447.78895 543.906563)">120</text>
     </g>
    </g>
    <g id="xtick_7">
     <g id="line2d_13">
      <path d="M 518.173979 529.308125 
L 518.173979 23.837812 
" clip-path="url(#p3c9086aa05)" style="fill: none; stroke: #b0b0b0; stroke-opacity: 0.3; stroke-width: 0.8; stroke-linecap: square"/>
     </g>
     <g id="line2d_14">
      <g>
       <use xlink:href="#m5f82d977af" x="518.173979" y="529.308125" style="stroke: #000000; stroke-width: 0.8"/>
      </g>
     </g>
     <g id="text_7">
      <text style="font: 10px 'DejaVu Sans', 'Bitstream Vera Sans', 'Computer Modern Sans Serif', 'Lucida Grande', 'Verdana', 'Geneva', 'Lucid', 'Arial', 'Helvetica', 'Avant Garde', sans-serif; text-anchor: middle" x="518.173979" y="543.906563" transform="rotate(-0 518.173979 543.906563)">125</text>
     </g>
    </g>
    <g id="xtick_8">
     <g id="line2d_15">
      <path d="M 588.559009 529.308125 
L 588.559009 23.837812 
" clip-path="url(#p3c9086aa05)" style="fill: none; stroke: #b0b0b0; stroke-opacity: 0.3; stroke-width: 0.8; stroke-linecap: square"/>
     </g>
     <g id="line2d_16">
      <g>
       <use xlink:href="#m5f82d977af" x="588.559009" y="529.308125" style="stroke: #000000; stroke-width: 0.8"/>
      </g>
     </g>
     <g id="text_8">
      <text style="font: 10px 'DejaVu Sans', 'Bitstream Vera Sans', 'Computer Modern Sans Serif', 'Lucida Grande', 'Verdana', 'Geneva', 'Lucid', 'Arial', 'Helvetica', 'Avant Garde', sans-serif; text-anchor: middle" x="588.559009" y="543.906563" transform="rotate(-0 588.559009 543.906563)">130</text>
     </g>
    </g>
    <g id="text_9">
     <text style="font: 12px 'DejaVu Sans', 'Bitstream Vera Sans', 'Computer Modern Sans Serif', 'Lucida Grande', 'Verdana', 'Geneva', 'Lucid', 'Arial', 'Helvetica', 'Avant Garde', sans-serif; text-anchor: middle" x="342.211406" y="559.104375" transform="rotate(-0 342.211406 559.104375)">Build Number</text>
    </g>
   </g>
   <g id="matplotlib.axis_2">
    <g id="ytick_1">
     <g id="line2d_17">
      <defs>
       <path id="m807906f057" d="M 0 0 
L -2 0 
" style="stroke: #000000; stroke-width: 0.6"/>
      </defs>
      <g>
       <use xlink:href="#m807906f057" x="86.71375" y="501.548143" style="stroke: #000000; stroke-width: 0.6"/>
      </g>
     </g>
     <g id="text_10">
      <!-- $\mathdefault{5.006\times10^{7}}$ -->
      <g transform="translate(22.81375 505.347362)">
       <text>
        <tspan style="font: 10px 'DejaVu Sans'" x="0 6.362305 9.541016 15.90332 22.265625 30.576172 40.90332 47.265625" y="-0.06406250000000036">5.006×10</tspan>
        <tspan style="font: 7px 'DejaVu Sans'" x="53.723633" y="-3.8921875000000004">7</tspan>
       </text>
      </g>
     </g>
    </g>
    <g id="ytick_2">
     <g id="line2d_18">
      <g>
       <use xlink:href="#m807906f057" x="86.71375" y="441.440988" style="stroke: #000000; stroke-width: 0.6"/>
      </g>
     </g>
     <g id="text_11">
      <!-- $\mathdefault{5.008\times10^{7}}$ -->
      <g transform="translate(22.81375 445.240207)">
       <text>
        <tspan style="font: 10px 'DejaVu Sans'" x="0 6.362305 9.541016 15.90332 22.265625 30.576172 40.90332 47.265625" y="-0.06406250000000036">5.008×10</tspan>
        <tspan style="font: 7px 'DejaVu Sans'" x="53.723633" y="-3.8921875000000004">7</tspan>
       </text>
      </g>
     </g>
    </g>
    <g id="ytick_3">
     <g id="line2d_19">
      <g>
       <use xlink:href="#m807906f057" x="86.71375" y="381.357832" style="stroke: #000000; stroke-width: 0.6"/>
      </g>
     </g>
     <g id="text_12">
      <!-- $\mathdefault{5.01\times10^{7}}$ -->
      <g transform="translate(29.21375 385.157051)">
       <text>
        <tspan style="font: 10px 'DejaVu Sans'" x="0 6.362305 9.541016 15.90332 24.213867 34.541016 40.90332" y="-0.06406250000000036">5.01×10</tspan>
        <tspan style="font: 7px 'DejaVu Sans'" x="47.361328" y="-3.8921875000000004">7</tspan>
       </text>
      </g>
     </g>
    </g>
    <g id="ytick_4">
     <g id="line2d_20">
      <g>
       <use xlink:href="#m807906f057" x="86.71375" y="321.298657" style="stroke: #000000; stroke-width: 0.6"/>
      </g>
     </g>
     <g id="text_13">
      <!-- $\mathdefault{5.012\times10^{7}}$ -->
      <g transform="translate(22.81375 325.097876)">
       <text>
        <tspan style="font: 10px 'DejaVu Sans'" x="0 6.362305 9.541016 15.90332 22.265625 30.576172 40.90332 47.265625" y="-0.06406250000000036">5.012×10</tspan>
        <tspan style="font: 7px 'DejaVu Sans'" x="53.723633" y="-3.8921875000000004">7</tspan>
       </text>
      </g>
     </g>
    </g>
    <g id="ytick_5">
     <g id="line2d_21">
      <g>
       <use xlink:href="#m807906f057" x="86.71375" y="261.263443" style="stroke: #000000; stroke-width: 0.6"/>
      </g>
     </g>
     <g id="text_14">
      <!-- $\mathdefault{5.014\times10^{7}}$ -->
      <g transform="translate(22.81375 265.062662)">
       <text>
        <tspan style="font: 10px 'DejaVu Sans'" x="0 6.362305 9.541016 15.90332 22.265625 30.576172 40.90332 47.265625" y="-0.06406250000000036">5.014×10</tspan>
        <tspan style="font: 7px 'DejaVu Sans'" x="53.723633" y="-3.8921875000000004">7</tspan>
       </text>
      </g>
     </g>
    </g>
    <g id="ytick_6">
     <g id="line2d_22">
      <g>
       <use xlink:href="#m807906f057" x="86.71375" y="201.252172" style="stroke: #000000; stroke-width: 0.6"/>
      </g>
     </g>
     <g id="text_15">
      <!-- $\mathdefault{5.016\times10^{7}}$ -->
      <g transform="translate(22.81375 205.051391)">
       <text>
        <tspan style="font: 10px 'DejaVu Sans'" x="0 6.362305 9.541016 15.90332 22.265625 30.576172 40.90332 47.265625" y="-0.06406250000000036">5.016×10</tspan>
        <tspan style="font: 7px 'DejaVu Sans'" x="53.723633" y="-3.8921875000000004">7</tspan>
       </text>
      </g>
     </g>
    </g>
    <g id="ytick_7">
     <g id="line2d_23">
      <g>
       <use xlink:href="#m807906f057" x="86.71375" y="141.264824" style="stroke: #000000; stroke-width: 0.6"/>
      </g>
     </g>
     <g id="text_16">
      <!-- $\mathdefault{5.018\times10^{7}}$ -->
      <g transform="translate(22.81375 145.064042)">
       <text>
        <tspan style="font: 10px 'DejaVu Sans'" x="0 6.362305 9.541016 15.90332 22.265625 30.576172 40.90332 47.265625" y="-0.06406250000000036">5.018×10</tspan>
        <tspan style="font: 7px 'DejaVu Sans'" x="53.723633" y="-3.8921875000000004">7</tspan>
       </text>
      </g>
     </g>
    </g>
    <g id="ytick_8">
     <g id="line2d_24">
      <g>
       <use xlink:href="#m807906f057" x="86.71375" y="81.301379" style="stroke: #000000; stroke-width: 0.6"/>
      </g>
     </g>
     <g id="text_17">
      <!-- $\mathdefault{5.02\times10^{7}}$ -->
      <g transform="translate(29.21375 85.100598)">
       <text>
        <tspan style="font: 10px 'DejaVu Sans'" x="0 6.362305 9.541016 15.90332 24.213867 34.541016 40.90332" y="-0.06406250000000036">5.02×10</tspan>
        <tspan style="font: 7px 'DejaVu Sans'" x="47.361328" y="-3.8921875000000004">7</tspan>
       </text>
      </g>
     </g>
    </g>
    <g id="text_18">
     <text style="font: 12px 'DejaVu Sans', 'Bitstream Vera Sans', 'Computer Modern Sans Serif', 'Lucida Grande', 'Verdana', 'Geneva', 'Lucid', 'Arial', 'Helvetica', 'Avant Garde', sans-serif; text-anchor: middle" x="16.318125" y="276.572969" transform="rotate(-90 16.318125 276.572969)">Median Elapsed Time (nanoseconds)</text>
    </g>
   </g>
   <g id="line2d_25">
    <path d="M 109.94081 476.425241 
L 124.017816 476.238602 
L 152.171827 487.835888 
L 166.248833 493.473455 
L 180.325839 489.743908 
L 194.402845 488.122029 
L 208.479851 492.280158 
L 222.556856 486.479128 
L 236.633862 474.236383 
L 250.710868 474.521597 
L 278.86488 466.870297 
L 292.941886 472.873434 
L 307.018892 486.864454 
L 321.095897 481.56015 
L 335.172903 485.648968 
L 363.326915 488.379016 
L 377.403921 506.332202 
L 391.480927 487.726782 
L 405.557933 488.94529 
L 419.634938 501.342837 
L 433.711944 489.068524 
L 447.78895 483.750918 
L 461.865956 481.204593 
L 475.942962 481.254185 
L 490.019968 482.404414 
L 504.096974 490.475804 
L 532.250985 461.950157 
L 546.327991 464.552053 
L 560.404997 443.607133 
L 574.482003 46.813736 
" clip-path="url(#p3c9086aa05)" style="fill: none; stroke: #1f77b4; stroke-width: 2; stroke-linecap: square"/>
    <defs>
     <path id="me163ae4a84" d="M 0 3 
C 0.795609 3 1.55874 2.683901 2.12132 2.12132 
C 2.683901 1.55874 3 0.795609 3 0 
C 3 -0.795609 2.683901 -1.55874 2.12132 -2.12132 
C 1.55874 -2.683901 0.795609 -3 0 -3 
C -0.795609 -3 -1.55874 -2.683901 -2.12132 -2.12132 
C -2.683901 -1.55874 -3 -0.795609 -3 0 
C -3 0.795609 -2.683901 1.55874 -2.12132 2.12132 
C -1.55874 2.683901 -0.795609 3 0 3 
z
" style="stroke: #1f77b4"/>
    </defs>
    <g clip-path="url(#p3c9086aa05)">
     <use xlink:href="#me163ae4a84" x="109.94081" y="476.425241" style="fill: #1f77b4; stroke: #1f77b4"/>
     <use xlink:href="#me163ae4a84" x="124.017816" y="476.238602" style="fill: #1f77b4; stroke: #1f77b4"/>
     <use xlink:href="#me163ae4a84" x="152.171827" y="487.835888" style="fill: #1f77b4; stroke: #1f77b4"/>
     <use xlink:href="#me163ae4a84" x="166.248833" y="493.473455" style="fill: #1f77b4; stroke: #1f77b4"/>
     <use xlink:href="#me163ae4a84" x="180.325839" y="489.743908" style="fill: #1f77b4; stroke: #1f77b4"/>
     <use xlink:href="#me163ae4a84" x="194.402845" y="488.122029" style="fill: #1f77b4; stroke: #1f77b4"/>
     <use xlink:href="#me163ae4a84" x="208.479851" y="492.280158" style="fill: #1f77b4; stroke: #1f77b4"/>
     <use xlink:href="#me163ae4a84" x="222.556856" y="486.479128" style="fill: #1f77b4; stroke: #1f77b4"/>
     <use xlink:href="#me163ae4a84" x="236.633862" y="474.236383" style="fill: #1f77b4; stroke: #1f77b4"/>
     <use xlink:href="#me163ae4a84" x="250.710868" y="474.521597" style="fill: #1f77b4; stroke: #1f77b4"/>
     <use xlink:href="#me163ae4a84" x="278.86488" y="466.870297" style="fill: #1f77b4; stroke: #1f77b4"/>
     <use xlink:href="#me163ae4a84" x="292.941886" y="472.873434" style="fill: #1f77b4; stroke: #1f77b4"/>
     <use xlink:href="#me163ae4a84" x="307.018892" y="486.864454" style="fill: #1f77b4; stroke: #1f77b4"/>
     <use xlink:href="#me163ae4a84" x="321.095897" y="481.56015" style="fill: #1f77b4; stroke: #1f77b4"/>
     <use xlink:href="#me163ae4a84" x="335.172903" y="485.648968" style="fill: #1f77b4; stroke: #1f77b4"/>
     <use xlink:href="#me163ae4a84" x="363.326915" y="488.379016" style="fill: #1f77b4; stroke: #1f77b4"/>
     <use xlink:href="#me163ae4a84" x="377.403921" y="506.332202" style="fill: #1f77b4; stroke: #1f77b4"/>
     <use xlink:href="#me163ae4a84" x="391.480927" y="487.726782" style="fill: #1f77b4; stroke: #1f77b4"/>
     <use xlink:href="#me163ae4a84" x="405.557933" y="488.94529" style="fill: #1f77b4; stroke: #1f77b4"/>
     <use xlink:href="#me163ae4a84" x="419.634938" y="501.342837" style="fill: #1f77b4; stroke: #1f77b4"/>
     <use xlink:href="#me163ae4a84" x="433.711944" y="489.068524" style="fill: #1f77b4; stroke: #1f77b4"/>
     <use xlink:href="#me163ae4a84" x="447.78895" y="483.750918" style="fill: #1f77b4; stroke: #1f77b4"/>
     <use xlink:href="#me163ae4a84" x="461.865956" y="481.204593" style="fill: #1f77b4; stroke: #1f77b4"/>
     <use xlink:href="#me163ae4a84" x="475.942962" y="481.254185" style="fill: #1f77b4; stroke: #1f77b4"/>
     <use xlink:href="#me163ae4a84" x="490.019968" y="482.404414" style="fill: #1f77b4; stroke: #1f77b4"/>
     <use xlink:href="#me163ae4a84" x="504.096974" y="490.475804" style="fill: #1f77b4; stroke: #1f77b4"/>
     <use xlink:href="#me163ae4a84" x="532.250985" y="461.950157" style="fill: #1f77b4; stroke: #1f77b4"/>
     <use xlink:href="#me163ae4a84" x="546.327991" y="464.552053" style="fill: #1f77b4; stroke: #1f77b4"/>
     <use xlink:href="#me163ae4a84" x="560.404997" y="443.607133" style="fill: #1f77b4; stroke: #1f77b4"/>
     <use xlink:href="#me163ae4a84" x="574.482003" y="46.813736" style="fill: #1f77b4; stroke: #1f77b4"/>
    </g>
   </g>
   <g id="line2d_26">
    <path d="M 109.94081 280.650098 
L 124.017816 272.395165 
L 152.171827 342.205539 
L 166.248833 246.83905 
L 180.325839 348.758942 
L 194.402845 347.332568 
L 208.479851 335.180106 
L 222.556856 354.057966 
L 236.633862 257.194223 
L 250.710868 285.806246 
L 278.86488 239.730747 
L 292.941886 244.528694 
L 307.018892 349.311778 
L 321.095897 317.543653 
L 335.172903 349.556516 
L 363.326915 341.710682 
L 377.403921 340.132436 
L 391.480927 344.317407 
L 405.557933 343.62706 
L 419.634938 339.370945 
L 433.711944 338.549703 
L 447.78895 345.884586 
L 461.865956 317.3419 
L 475.942962 274.828106 
L 490.019968 320.790659 
L 504.096974 350.376917 
L 532.250985 251.465269 
L 546.327991 298.34887 
L 560.404997 212.13584 
L 574.482003 70.789551 
" clip-path="url(#p3c9086aa05)" style="fill: none; stroke: #ff7f0e; stroke-width: 2; stroke-linecap: square"/>
    <defs>
     <path id="m55c54f8ed5" d="M 0 3 
C 0.795609 3 1.55874 2.683901 2.12132 2.12132 
C 2.683901 1.55874 3 0.795609 3 0 
C 3 -0.795609 2.683901 -1.55874 2.12132 -2.12132 
C 1.55874 -2.683901 0.795609 -3 0 -3 
C -0.795609 -3 -1.55874 -2.683901 -2.12132 -2.12132 
C -2.683901 -1.55874 -3 -0.795609 -3 0 
C -3 0.795609 -2.683901 1.55874 -2.12132 2.12132 
C -1.55874 2.683901 -0.795609 3 0 3 
z
" style="stroke: #ff7f0e"/>
    </defs>
    <g clip-path="url(#p3c9086aa05)">
     <use xlink:href="#m55c54f8ed5" x="109.94081" y="280.650098" style="fill: #ff7f0e; stroke: #ff7f0e"/>
     <use xlink:href="#m55c54f8ed5" x="124.017816" y="272.395165" style="fill: #ff7f0e; stroke: #ff7f0e"/>
     <use xlink:href="#m55c54f8ed5" x="152.171827" y="342.205539" style="fill: #ff7f0e; stroke: #ff7f0e"/>
     <use xlink:href="#m55c54f8ed5" x="166.248833" y="246.83905" style="fill: #ff7f0e; stroke: #ff7f0e"/>
     <use xlink:href="#m55c54f8ed5" x="180.325839" y="348.758942" style="fill: #ff7f0e; stroke: #ff7f0e"/>
     <use xlink:href="#m55c54f8ed5" x="194.402845" y="347.332568" style="fill: #ff7f0e; stroke: #ff7f0e"/>
     <use xlink:href="#m55c54f8ed5" x="208.479851" y="335.180106" style="fill: #ff7f0e; stroke: #ff7f0e"/>
     <use xlink:href="#m55c54f8ed5" x="222.556856" y="354.057966" style="fill: #ff7f0e; stroke: #ff7f0e"/>
     <use xlink:href="#m55c54f8ed5" x="236.633862" y="257.194223" style="fill: #ff7f0e; stroke: #ff7f0e"/>
     <use xlink:href="#m55c54f8ed5" x="250.710868" y="285.806246" style="fill: #ff7f0e; stroke: #ff7f0e"/>
     <use xlink:href="#m55c54f8ed5" x="278.86488" y="239.730747" style="fill: #ff7f0e; stroke: #ff7f0e"/>
     <use xlink:href="#m55c54f8ed5" x="292.941886" y="244.528694" style="fill: #ff7f0e; stroke: #ff7f0e"/>
     <use xlink:href="#m55c54f8ed5" x="307.018892" y="349.311778" style="fill: #ff7f0e; stroke: #ff7f0e"/>
     <use xlink:href="#m55c54f8ed5" x="321.095897" y="317.543653" style="fill: #ff7f0e; stroke: #ff7f0e"/>
     <use xlink:href="#m55c54f8ed5" x="335.172903" y="349.556516" style="fill: #ff7f0e; stroke: #ff7f0e"/>
     <use xlink:href="#m55c54f8ed5" x="363.326915" y="341.710682" style="fill: #ff7f0e; stroke: #ff7f0e"/>
     <use xlink:href="#m55c54f8ed5" x="377.403921" y="340.132436" style="fill: #ff7f0e; stroke: #ff7f0e"/>
     <use xlink:href="#m55c54f8ed5" x="391.480927" y="344.317407" style="fill: #ff7f0e; stroke: #ff7f0e"/>
     <use xlink:href="#m55c54f8ed5" x="405.557933" y="343.62706" style="fill: #ff7f0e; stroke: #ff7f0e"/>
     <use xlink:href="#m55c54f8ed5" x="419.634938" y="339.370945" style="fill: #ff7f0e; stroke: #ff7f0e"/>
     <use xlink:href="#m55c54f8ed5" x="433.711944" y="338.549703" style="fill: #ff7f0e; stroke: #ff7f0e"/>
     <use xlink:href="#m55c54f8ed5" x="447.78895" y="345.884586" style="fill: #ff7f0e; stroke: #ff7f0e"/>
     <use xlink:href="#m55c54f8ed5" x="461.865956" y="317.3419" style="fill: #ff7f0e; stroke: #ff7f0e"/>
     <use xlink:href="#m55c54f8ed5" x="475.942962" y="274.828106" style="fill: #ff7f0e; stroke: #ff7f0e"/>
     <use xlink:href="#m55c54f8ed5" x="490.019968" y="320.790659" style="fill: #ff7f0e; stroke: #ff7f0e"/>
     <use xlink:href="#m55c54f8ed5" x="504.096974" y="350.376917" style="fill: #ff7f0e; stroke: #ff7f0e"/>
     <use xlink:href="#m55c54f8ed5" x="532.250985" y="251.465269" style="fill: #ff7f0e; stroke: #ff7f0e"/>
     <use xlink:href="#m55c54f8ed5" x="546.327991" y="298.34887" style="fill: #ff7f0e; stroke: #ff7f0e"/>
     <use xlink:href="#m55c54f8ed5" x="560.404997" y="212.13584" style="fill: #ff7f0e; stroke: #ff7f0e"/>
     <use xlink:href="#m55c54f8ed5" x="574.482003" y="70.789551" style="fill: #ff7f0e; stroke: #ff7f0e"/>
    </g>
   </g>
   <g id="line2d_27">
    <path d="M 109.94081 480.636244 
L 124.017816 488.975948 
L 152.171827 499.751192 
L 166.248833 474.847084 
L 180.325839 499.080272 
L 194.402845 500.974908 
L 208.479851 487.957318 
L 222.556856 483.928249 
L 236.633862 487.152698 
L 250.710868 486.37363 
L 278.86488 501.557762 
L 292.941886 489.183042 
L 307.018892 483.741901 
L 335.172903 483.649028 
L 377.403921 488.809733 
L 391.480927 488.694614 
L 405.557933 467.984353 
L 419.634938 484.675745 
L 433.711944 493.461432 
L 447.78895 493.727144 
L 461.865956 488.174629 
L 475.942962 486.999709 
L 490.019968 476.668683 
L 504.096974 501.953046 
L 532.250985 489.458064 
L 546.327991 459.395486 
L 560.404997 462.986943 
L 574.482003 326.293766 
" clip-path="url(#p3c9086aa05)" style="fill: none; stroke: #2ca02c; stroke-width: 2; stroke-linecap: square"/>
    <defs>
     <path id="me09e79f6b0" d="M 0 3 
C 0.795609 3 1.55874 2.683901 2.12132 2.12132 
C 2.683901 1.55874 3 0.795609 3 0 
C 3 -0.795609 2.683901 -1.55874 2.12132 -2.12132 
C 1.55874 -2.683901 0.795609 -3 0 -3 
C -0.795609 -3 -1.55874 -2.683901 -2.12132 -2.12132 
C -2.683901 -1.55874 -3 -0.795609 -3 0 
C -3 0.795609 -2.683901 1.55874 -2.12132 2.12132 
C -1.55874 2.683901 -0.795609 3 0 3 
z
" style="stroke: #2ca02c"/>
    </defs>
    <g clip-path="url(#p3c9086aa05)">
     <use xlink:href="#me09e79f6b0" x="109.94081" y="480.636244" style="fill: #2ca02c; stroke: #2ca02c"/>
     <use xlink:href="#me09e79f6b0" x="124.017816" y="488.975948" style="fill: #2ca02c; stroke: #2ca02c"/>
     <use xlink:href="#me09e79f6b0" x="152.171827" y="499.751192" style="fill: #2ca02c; stroke: #2ca02c"/>
     <use xlink:href="#me09e79f6b0" x="166.248833" y="474.847084" style="fill: #2ca02c; stroke: #2ca02c"/>
     <use xlink:href="#me09e79f6b0" x="180.325839" y="499.080272" style="fill: #2ca02c; stroke: #2ca02c"/>
     <use xlink:href="#me09e79f6b0" x="194.402845" y="500.974908" style="fill: #2ca02c; stroke: #2ca02c"/>
     <use xlink:href="#me09e79f6b0" x="208.479851" y="487.957318" style="fill: #2ca02c; stroke: #2ca02c"/>
     <use xlink:href="#me09e79f6b0" x="222.556856" y="483.928249" style="fill: #2ca02c; stroke: #2ca02c"/>
     <use xlink:href="#me09e79f6b0" x="236.633862" y="487.152698" style="fill: #2ca02c; stroke: #2ca02c"/>
     <use xlink:href="#me09e79f6b0" x="250.710868" y="486.37363" style="fill: #2ca02c; stroke: #2ca02c"/>
     <use xlink:href="#me09e79f6b0" x="278.86488" y="501.557762" style="fill: #2ca02c; stroke: #2ca02c"/>
     <use xlink:href="#me09e79f6b0" x="292.941886" y="489.183042" style="fill: #2ca02c; stroke: #2ca02c"/>
     <use xlink:href="#me09e79f6b0" x="307.018892" y="483.741901" style="fill: #2ca02c; stroke: #2ca02c"/>
     <use xlink:href="#me09e79f6b0" x="335.172903" y="483.649028" style="fill: #2ca02c; stroke: #2ca02c"/>
     <use xlink:href="#me09e79f6b0" x="377.403921" y="488.809733" style="fill: #2ca02c; stroke: #2ca02c"/>
     <use xlink:href="#me09e79f6b0" x="391.480927" y="488.694614" style="fill: #2ca02c; stroke: #2ca02c"/>
     <use xlink:href="#me09e79f6b0" x="405.557933" y="467.984353" style="fill: #2ca02c; stroke: #2ca02c"/>
     <use xlink:href="#me09e79f6b0" x="419.634938" y="484.675745" style="fill: #2ca02c; stroke: #2ca02c"/>
     <use xlink:href="#me09e79f6b0" x="433.711944" y="493.461432" style="fill: #2ca02c; stroke: #2ca02c"/>
     <use xlink:href="#me09e79f6b0" x="447.78895" y="493.727144" style="fill: #2ca02c; stroke: #2ca02c"/>
     <use xlink:href="#me09e79f6b0" x="461.865956" y="488.174629" style="fill: #2ca02c; stroke: #2ca02c"/>
     <use xlink:href="#me09e79f6b0" x="475.942962" y="486.999709" style="fill: #2ca02c; stroke: #2ca02c"/>
     <use xlink:href="#me09e79f6b0" x="490.019968" y="476.668683" style="fill: #2ca02c; stroke: #2ca02c"/>
     <use xlink:href="#me09e79f6b0" x="504.096974" y="501.953046" style="fill: #2ca02c; stroke: #2ca02c"/>
     <use xlink:href="#me09e79f6b0" x="532.250985" y="489.458064" style="fill: #2ca02c; stroke: #2ca02c"/>
     <use xlink:href="#me09e79f6b0" x="546.327991" y="459.395486" style="fill: #2ca02c; stroke: #2ca02c"/>
     <use xlink:href="#me09e79f6b0" x="560.404997" y="462.986943" style="fill: #2ca02c; stroke: #2ca02c"/>
     <use xlink:href="#me09e79f6b0" x="574.482003" y="326.293766" style="fill: #2ca02c; stroke: #2ca02c"/>
    </g>
   </g>
   <g id="line2d_28">
    <path d="M 109.94081 297.54046 
L 124.017816 351.278102 
L 152.171827 349.424087 
L 166.248833 330.926932 
L 180.325839 346.448523 
L 194.402845 345.291524 
L 208.479851 333.704618 
L 222.556856 341.354855 
L 236.633862 351.490111 
L 250.710868 343.454099 
L 278.86488 332.74739 
L 292.941886 342.680579 
L 307.018892 340.504776 
L 335.172903 347.120564 
L 377.403921 345.544063 
L 391.480927 348.720204 
L 405.557933 231.130593 
L 419.634938 345.257292 
L 433.711944 352.570581 
L 447.78895 345.020368 
L 461.865956 327.940624 
L 475.942962 340.272964 
L 490.019968 298.242302 
L 504.096974 331.213676 
L 532.250985 304.682115 
L 546.327991 250.626201 
L 560.404997 299.536727 
L 574.482003 295.574538 
" clip-path="url(#p3c9086aa05)" style="fill: none; stroke: #d62728; stroke-width: 2; stroke-linecap: square"/>
    <defs>
     <path id="md9bf8dfa36" d="M 0 3 
C 0.795609 3 1.55874 2.683901 2.12132 2.12132 
C 2.683901 1.55874 3 0.795609 3 0 
C 3 -0.795609 2.683901 -1.55874 2.12132 -2.12132 
C 1.55874 -2.683901 0.795609 -3 0 -3 
C -0.795609 -3 -1.55874 -2.683901 -2.12132 -2.12132 
C -2.683901 -1.55874 -3 -0.795609 -3 0 
C -3 0.795609 -2.683901 1.55874 -2.12132 2.12132 
C -1.55874 2.683901 -0.795609 3 0 3 
z
" style="stroke: #d62728"/>
    </defs>
    <g clip-path="url(#p3c9086aa05)">
     <use xlink:href="#md9bf8dfa36" x="109.94081" y="297.54046" style="fill: #d62728; stroke: #d62728"/>
     <use xlink:href="#md9bf8dfa36" x="124.017816" y="351.278102" style="fill: #d62728; stroke: #d62728"/>
     <use xlink:href="#md9bf8dfa36" x="152.171827" y="349.424087" style="fill: #d62728; stroke: #d62728"/>
     <use xlink:href="#md9bf8dfa36" x="166.248833" y="330.926932" style="fill: #d62728; stroke: #d62728"/>
     <use xlink:href="#md9bf8dfa36" x="180.325839" y="346.448523" style="fill: #d62728; stroke: #d62728"/>
     <use xlink:href="#md9bf8dfa36" x="194.402845" y="345.291524" style="fill: #d62728; stroke: #d62728"/>
     <use xlink:href="#md9bf8dfa36" x="208.479851" y="333.704618" style="fill: #d62728; stroke: #d62728"/>
     <use xlink:href="#md9bf8dfa36" x="222.556856" y="341.354855" style="fill: #d62728; stroke: #d62728"/>
     <use xlink:href="#md9bf8dfa36" x="236.633862" y="351.490111" style="fill: #d62728; stroke: #d62728"/>
     <use xlink:href="#md9bf8dfa36" x="250.710868" y="343.454099" style="fill: #d62728; stroke: #d62728"/>
     <use xlink:href="#md9bf8dfa36" x="278.86488" y="332.74739" style="fill: #d62728; stroke: #d62728"/>
     <use xlink:href="#md9bf8dfa36" x="292.941886" y="342.680579" style="fill: #d62728; stroke: #d62728"/>
     <use xlink:href="#md9bf8dfa36" x="307.018892" y="340.504776" style="fill: #d62728; stroke: #d62728"/>
     <use xlink:href="#md9bf8dfa36" x="335.172903" y="347.120564" style="fill: #d62728; stroke: #d62728"/>
     <use xlink:href="#md9bf8dfa36" x="377.403921" y="345.544063" style="fill: #d62728; stroke: #d62728"/>
     <use xlink:href="#md9bf8dfa36" x="391.480927" y="348.720204" style="fill: #d62728; stroke: #d62728"/>
     <use xlink:href="#md9bf8dfa36" x="405.557933" y="231.130593" style="fill: #d62728; stroke: #d62728"/>
     <use xlink:href="#md9bf8dfa36" x="419.634938" y="345.257292" style="fill: #d62728; stroke: #d62728"/>
     <use xlink:href="#md9bf8dfa36" x="433.711944" y="352.570581" style="fill: #d62728; stroke: #d62728"/>
     <use xlink:href="#md9bf8dfa36" x="447.78895" y="345.020368" style="fill: #d62728; stroke: #d62728"/>
     <use xlink:href="#md9bf8dfa36" x="461.865956" y="327.940624" style="fill: #d62728; stroke: #d62728"/>
     <use xlink:href="#md9bf8dfa36" x="475.942962" y="340.272964" style="fill: #d62728; stroke: #d62728"/>
     <use xlink:href="#md9bf8dfa36" x="490.019968" y="298.242302" style="fill: #d62728; stroke: #d62728"/>
     <use xlink:href="#md9bf8dfa36" x="504.096974" y="331.213676" style="fill: #d62728; stroke: #d62728"/>
     <use xlink:href="#md9bf8dfa36" x="532.250985" y="304.682115" style="fill: #d62728; stroke: #d62728"/>
     <use xlink:href="#md9bf8dfa36" x="546.327991" y="250.626201" style="fill: #d62728; stroke: #d62728"/>
     <use xlink:href="#md9bf8dfa36" x="560.404997" y="299.536727" style="fill: #d62728; stroke: #d62728"/>
     <use xlink:href="#md9bf8dfa36" x="574.482003" y="295.574538" style="fill: #d62728; stroke: #d62728"/>
    </g>
   </g>
   <g id="patch_3">
    <path d="M 86.71375 529.308125 
L 86.71375 23.837813 
" style="fill: none; stroke: #000000; stroke-width: 0.8; stroke-linejoin: miter; stroke-linecap: square"/>
   </g>
   <g id="patch_4">
    <path d="M 597.709062 529.308125 
L 597.709062 23.837813 
" style="fill: none; stroke: #000000; stroke-width: 0.8; stroke-linejoin: miter; stroke-linecap: square"/>
   </g>
   <g id="patch_5">
    <path d="M 86.71375 529.308125 
L 597.709063 529.308125 
" style="fill: none; stroke: #000000; stroke-width: 0.8; stroke-linejoin: miter; stroke-linecap: square"/>
   </g>
   <g id="patch_6">
    <path d="M 86.71375 23.837812 
L 597.709063 23.837812 
" style="fill: none; stroke: #000000; stroke-width: 0.8; stroke-linejoin: miter; stroke-linecap: square"/>
   </g>
   <g id="text_19">
    <text style="font: 700 14px 'DejaVu Sans', 'Bitstream Vera Sans', 'Computer Modern Sans Serif', 'Lucida Grande', 'Verdana', 'Geneva', 'Lucid', 'Arial', 'Helvetica', 'Avant Garde', sans-serif; text-anchor: middle" x="342.211406" y="17.837813" transform="rotate(-0 342.211406 17.837813)">Coroutine Suspension - Performance Trend</text>
   </g>
   <g id="legend_1">
    <g id="patch_7">
     <path d="M 630.258828 91.662813 
L 839.669766 91.662813 
Q 841.669766 91.662813 841.669766 89.662813 
L 841.669766 30.837813 
Q 841.669766 28.837813 839.669766 28.837813 
L 630.258828 28.837813 
Q 628.258828 28.837813 628.258828 30.837813 
L 628.258828 89.662813 
Q 628.258828 91.662813 630.258828 91.662813 
z
" style="fill: #ffffff; opacity: 0.8; stroke: #cccccc; stroke-linejoin: miter"/>
    </g>
    <g id="line2d_29">
     <path d="M 632.258828 36.93625 
L 642.258828 36.93625 
L 652.258828 36.93625 
" style="fill: none; stroke: #1f77b4; stroke-width: 2; stroke-linecap: square"/>
     <g>
      <use xlink:href="#me163ae4a84" x="642.258828" y="36.93625" style="fill: #1f77b4; stroke: #1f77b4"/>
     </g>
    </g>
    <g id="text_20">
     <text style="font: 10px 'DejaVu Sans', 'Bitstream Vera Sans', 'Computer Modern Sans Serif', 'Lucida Grande', 'Verdana', 'Geneva', 'Lucid', 'Arial', 'Helvetica', 'Avant Garde', sans-serif; text-anchor: start" x="660.258828" y="40.43625" transform="rotate(-0 660.258828 40.43625)">gcc-14.2 - SuspensionOverhead_V1</text>
    </g>
    <g id="line2d_30">
     <path d="M 632.258828 51.8925 
L 642.258828 51.8925 
L 652.258828 51.8925 
" style="fill: none; stroke: #ff7f0e; stroke-width: 2; stroke-linecap: square"/>
     <g>
      <use xlink:href="#m55c54f8ed5" x="642.258828" y="51.8925" style="fill: #ff7f0e; stroke: #ff7f0e"/>
     </g>
    </g>
    <g id="text_21">
     <text style="font: 10px 'DejaVu Sans', 'Bitstream Vera Sans', 'Computer Modern Sans Serif', 'Lucida Grande', 'Verdana', 'Geneva', 'Lucid', 'Arial', 'Helvetica', 'Avant Garde', sans-serif; text-anchor: start" x="660.258828" y="55.3925" transform="rotate(-0 660.258828 55.3925)">gcc-14.2 - SuspensionOverhead_V2</text>
    </g>
    <g id="line2d_31">
     <path d="M 632.258828 66.84875 
L 642.258828 66.84875 
L 652.258828 66.84875 
" style="fill: none; stroke: #2ca02c; stroke-width: 2; stroke-linecap: square"/>
     <g>
      <use xlink:href="#me09e79f6b0" x="642.258828" y="66.84875" style="fill: #2ca02c; stroke: #2ca02c"/>
     </g>
    </g>
    <g id="text_22">
     <text style="font: 10px 'DejaVu Sans', 'Bitstream Vera Sans', 'Computer Modern Sans Serif', 'Lucida Grande', 'Verdana', 'Geneva', 'Lucid', 'Arial', 'Helvetica', 'Avant Garde', sans-serif; text-anchor: start" x="660.258828" y="70.34875" transform="rotate(-0 660.258828 70.34875)">gcc-4.2 - SuspensionOverhead_V1</text>
    </g>
    <g id="line2d_32">
     <path d="M 632.258828 81.805 
L 642.258828 81.805 
L 652.258828 81.805 
" style="fill: none; stroke: #d62728; stroke-width: 2; stroke-linecap: square"/>
     <g>
      <use xlink:href="#md9bf8dfa36" x="642.258828" y="81.805" style="fill: #d62728; stroke: #d62728"/>
     </g>
    </g>
    <g id="text_23">
     <text style="font: 10px 'DejaVu Sans', 'Bitstream Vera Sans', 'Computer Modern Sans Serif', 'Lucida Grande', 'Verdana', 'Geneva', 'Lucid', 'Arial', 'Helvetica', 'Avant Garde', sans-serif; text-anchor: start" x="660.258828" y="85.305" transform="rotate(-0 660.258828 85.305)">gcc-4.2 - SuspensionOverhead_V2</text>
    </g>
   </g>
  </g>
 </g>
 <defs>
  <clipPath id="p3c9086aa05">
   <rect x="86.71375" y="23.837813" width="510.995312" height="505.470313"/>
  </clipPath>
 </defs>
</svg>
