<?xml version="1.0" encoding="utf-8" standalone="no"?>
<!DOCTYPE svg PUBLIC "-//W3C//DTD SVG 1.1//EN"
  "http://www.w3.org/Graphics/SVG/1.1/DTD/svg11.dtd">
<svg xmlns:xlink="http://www.w3.org/1999/xlink" width="855.536016pt" height="568.8pt" viewBox="0 0 855.536016 568.8" xmlns="http://www.w3.org/2000/svg" version="1.1">
 <metadata>
  <rdf:RDF xmlns:dc="http://purl.org/dc/elements/1.1/" xmlns:cc="http://creativecommons.org/ns#" xmlns:rdf="http://www.w3.org/1999/02/22-rdf-syntax-ns#">
   <cc:Work>
    <dc:type rdf:resource="http://purl.org/dc/dcmitype/StillImage"/>
    <dc:date>2025-08-13T22:07:41.509497</dc:date>
    <dc:format>image/svg+xml</dc:format>
    <dc:creator>
     <cc:Agent>
      <dc:title>Matplotlib v3.9.4, https://matplotlib.org/</dc:title>
     </cc:Agent>
    </dc:creator>
   </cc:Work>
  </rdf:RDF>
 </metadata>
 <defs>
  <style type="text/css">*{stroke-linejoin: round; stroke-linecap: butt}</style>
 </defs>
 <g id="figure_1">
  <g id="patch_1">
   <path d="M 0 568.8 
L 855.536016 568.8 
L 855.536016 0 
L 0 0 
z
" style="fill: #ffffff"/>
  </g>
  <g id="axes_1">
   <g id="patch_2">
    <path d="M 64.41375 529.308125 
L 708.734063 529.308125 
L 708.734063 23.837812 
L 64.41375 23.837812 
z
" style="fill: #ffffff"/>
   </g>
   <g id="matplotlib.axis_1">
    <g id="xtick_1">
     <g id="line2d_1">
      <path d="M 132.750753 529.308125 
L 132.750753 23.837812 
" clip-path="url(#p2c5efcbd7d)" style="fill: none; stroke: #b0b0b0; stroke-opacity: 0.3; stroke-width: 0.8; stroke-linecap: square"/>
     </g>
     <g id="line2d_2">
      <defs>
       <path id="mb238c15085" d="M 0 0 
L 0 3.5 
" style="stroke: #000000; stroke-width: 0.8"/>
      </defs>
      <g>
       <use xlink:href="#mb238c15085" x="132.750753" y="529.308125" style="stroke: #000000; stroke-width: 0.8"/>
      </g>
     </g>
     <g id="text_1">
      <text style="font: 10px 'DejaVu Sans', 'Bitstream Vera Sans', 'Computer Modern Sans Serif', 'Lucida Grande', 'Verdana', 'Geneva', 'Lucid', 'Arial', 'Helvetica', 'Avant Garde', sans-serif; text-anchor: middle" x="132.750753" y="543.906563" transform="rotate(-0 132.750753 543.906563)">72</text>
     </g>
    </g>
    <g id="xtick_2">
     <g id="line2d_3">
      <path d="M 210.850185 529.308125 
L 210.850185 23.837812 
" clip-path="url(#p2c5efcbd7d)" style="fill: none; stroke: #b0b0b0; stroke-opacity: 0.3; stroke-width: 0.8; stroke-linecap: square"/>
     </g>
     <g id="line2d_4">
      <g>
       <use xlink:href="#mb238c15085" x="210.850185" y="529.308125" style="stroke: #000000; stroke-width: 0.8"/>
      </g>
     </g>
     <g id="text_2">
      <text style="font: 10px 'DejaVu Sans', 'Bitstream Vera Sans', 'Computer Modern Sans Serif', 'Lucida Grande', 'Verdana', 'Geneva', 'Lucid', 'Arial', 'Helvetica', 'Avant Garde', sans-serif; text-anchor: middle" x="210.850185" y="543.906563" transform="rotate(-0 210.850185 543.906563)">74</text>
     </g>
    </g>
    <g id="xtick_3">
     <g id="line2d_5">
      <path d="M 288.949616 529.308125 
L 288.949616 23.837812 
" clip-path="url(#p2c5efcbd7d)" style="fill: none; stroke: #b0b0b0; stroke-opacity: 0.3; stroke-width: 0.8; stroke-linecap: square"/>
     </g>
     <g id="line2d_6">
      <g>
       <use xlink:href="#mb238c15085" x="288.949616" y="529.308125" style="stroke: #000000; stroke-width: 0.8"/>
      </g>
     </g>
     <g id="text_3">
      <text style="font: 10px 'DejaVu Sans', 'Bitstream Vera Sans', 'Computer Modern Sans Serif', 'Lucida Grande', 'Verdana', 'Geneva', 'Lucid', 'Arial', 'Helvetica', 'Avant Garde', sans-serif; text-anchor: middle" x="288.949616" y="543.906563" transform="rotate(-0 288.949616 543.906563)">76</text>
     </g>
    </g>
    <g id="xtick_4">
     <g id="line2d_7">
      <path d="M 367.049048 529.308125 
L 367.049048 23.837812 
" clip-path="url(#p2c5efcbd7d)" style="fill: none; stroke: #b0b0b0; stroke-opacity: 0.3; stroke-width: 0.8; stroke-linecap: square"/>
     </g>
     <g id="line2d_8">
      <g>
       <use xlink:href="#mb238c15085" x="367.049048" y="529.308125" style="stroke: #000000; stroke-width: 0.8"/>
      </g>
     </g>
     <g id="text_4">
      <text style="font: 10px 'DejaVu Sans', 'Bitstream Vera Sans', 'Computer Modern Sans Serif', 'Lucida Grande', 'Verdana', 'Geneva', 'Lucid', 'Arial', 'Helvetica', 'Avant Garde', sans-serif; text-anchor: middle" x="367.049048" y="543.906563" transform="rotate(-0 367.049048 543.906563)">78</text>
     </g>
    </g>
    <g id="xtick_5">
     <g id="line2d_9">
      <path d="M 445.14848 529.308125 
L 445.14848 23.837812 
" clip-path="url(#p2c5efcbd7d)" style="fill: none; stroke: #b0b0b0; stroke-opacity: 0.3; stroke-width: 0.8; stroke-linecap: square"/>
     </g>
     <g id="line2d_10">
      <g>
       <use xlink:href="#mb238c15085" x="445.14848" y="529.308125" style="stroke: #000000; stroke-width: 0.8"/>
      </g>
     </g>
     <g id="text_5">
      <text style="font: 10px 'DejaVu Sans', 'Bitstream Vera Sans', 'Computer Modern Sans Serif', 'Lucida Grande', 'Verdana', 'Geneva', 'Lucid', 'Arial', 'Helvetica', 'Avant Garde', sans-serif; text-anchor: middle" x="445.14848" y="543.906563" transform="rotate(-0 445.14848 543.906563)">80</text>
     </g>
    </g>
    <g id="xtick_6">
     <g id="line2d_11">
      <path d="M 523.247912 529.308125 
L 523.247912 23.837812 
" clip-path="url(#p2c5efcbd7d)" style="fill: none; stroke: #b0b0b0; stroke-opacity: 0.3; stroke-width: 0.8; stroke-linecap: square"/>
     </g>
     <g id="line2d_12">
      <g>
       <use xlink:href="#mb238c15085" x="523.247912" y="529.308125" style="stroke: #000000; stroke-width: 0.8"/>
      </g>
     </g>
     <g id="text_6">
      <text style="font: 10px 'DejaVu Sans', 'Bitstream Vera Sans', 'Computer Modern Sans Serif', 'Lucida Grande', 'Verdana', 'Geneva', 'Lucid', 'Arial', 'Helvetica', 'Avant Garde', sans-serif; text-anchor: middle" x="523.247912" y="543.906563" transform="rotate(-0 523.247912 543.906563)">82</text>
     </g>
    </g>
    <g id="xtick_7">
     <g id="line2d_13">
      <path d="M 601.347344 529.308125 
L 601.347344 23.837812 
" clip-path="url(#p2c5efcbd7d)" style="fill: none; stroke: #b0b0b0; stroke-opacity: 0.3; stroke-width: 0.8; stroke-linecap: square"/>
     </g>
     <g id="line2d_14">
      <g>
       <use xlink:href="#mb238c15085" x="601.347344" y="529.308125" style="stroke: #000000; stroke-width: 0.8"/>
      </g>
     </g>
     <g id="text_7">
      <text style="font: 10px 'DejaVu Sans', 'Bitstream Vera Sans', 'Computer Modern Sans Serif', 'Lucida Grande', 'Verdana', 'Geneva', 'Lucid', 'Arial', 'Helvetica', 'Avant Garde', sans-serif; text-anchor: middle" x="601.347344" y="543.906563" transform="rotate(-0 601.347344 543.906563)">84</text>
     </g>
    </g>
    <g id="xtick_8">
     <g id="line2d_15">
      <path d="M 679.446776 529.308125 
L 679.446776 23.837812 
" clip-path="url(#p2c5efcbd7d)" style="fill: none; stroke: #b0b0b0; stroke-opacity: 0.3; stroke-width: 0.8; stroke-linecap: square"/>
     </g>
     <g id="line2d_16">
      <g>
       <use xlink:href="#mb238c15085" x="679.446776" y="529.308125" style="stroke: #000000; stroke-width: 0.8"/>
      </g>
     </g>
     <g id="text_8">
      <text style="font: 10px 'DejaVu Sans', 'Bitstream Vera Sans', 'Computer Modern Sans Serif', 'Lucida Grande', 'Verdana', 'Geneva', 'Lucid', 'Arial', 'Helvetica', 'Avant Garde', sans-serif; text-anchor: middle" x="679.446776" y="543.906563" transform="rotate(-0 679.446776 543.906563)">86</text>
     </g>
    </g>
    <g id="text_9">
     <text style="font: 12px 'DejaVu Sans', 'Bitstream Vera Sans', 'Computer Modern Sans Serif', 'Lucida Grande', 'Verdana', 'Geneva', 'Lucid', 'Arial', 'Helvetica', 'Avant Garde', sans-serif; text-anchor: middle" x="386.573906" y="559.104375" transform="rotate(-0 386.573906 559.104375)">Build Number</text>
    </g>
   </g>
   <g id="matplotlib.axis_2">
    <g id="ytick_1">
     <g id="line2d_17">
      <path d="M 64.41375 335.653778 
L 708.734063 335.653778 
" clip-path="url(#p2c5efcbd7d)" style="fill: none; stroke: #b0b0b0; stroke-opacity: 0.3; stroke-width: 0.8; stroke-linecap: square"/>
     </g>
     <g id="line2d_18">
      <defs>
       <path id="m95eeca31ea" d="M 0 0 
L -3.5 0 
" style="stroke: #000000; stroke-width: 0.8"/>
      </defs>
      <g>
       <use xlink:href="#m95eeca31ea" x="64.41375" y="335.653778" style="stroke: #000000; stroke-width: 0.8"/>
      </g>
     </g>
     <g id="text_10">
      <!-- $\mathdefault{10^{5}}$ -->
      <g transform="translate(39.81375 339.452997)">
       <text>
        <tspan style="font: 10px 'DejaVu Sans'" x="0 6.362305" y="-0.06406250000000036">10</tspan>
        <tspan style="font: 7px 'DejaVu Sans'" x="12.820312" y="-3.8921875000000004">5</tspan>
       </text>
      </g>
     </g>
    </g>
    <g id="ytick_2">
     <g id="line2d_19">
      <defs>
       <path id="m1c2af5b49c" d="M 0 0 
L -2 0 
" style="stroke: #000000; stroke-width: 0.6"/>
      </defs>
      <g>
       <use xlink:href="#m1c2af5b49c" x="64.41375" y="507.884059" style="stroke: #000000; stroke-width: 0.6"/>
      </g>
     </g>
     <g id="text_11">
      <!-- $\mathdefault{6\times10^{4}}$ -->
      <g transform="translate(22.81375 511.683278)">
       <text>
        <tspan style="font: 10px 'DejaVu Sans'" x="0 8.310547 18.637695 25" y="-0.06406250000000036">6×10</tspan>
        <tspan style="font: 7px 'DejaVu Sans'" x="31.458008" y="-3.8921875000000004">4</tspan>
       </text>
      </g>
     </g>
    </g>
    <g id="ytick_3">
     <g id="line2d_20">
      <g>
       <use xlink:href="#m1c2af5b49c" x="64.41375" y="455.910521" style="stroke: #000000; stroke-width: 0.6"/>
      </g>
     </g>
    </g>
    <g id="ytick_4">
     <g id="line2d_21">
      <g>
       <use xlink:href="#m1c2af5b49c" x="64.41375" y="410.888995" style="stroke: #000000; stroke-width: 0.6"/>
      </g>
     </g>
    </g>
    <g id="ytick_5">
     <g id="line2d_22">
      <g>
       <use xlink:href="#m1c2af5b49c" x="64.41375" y="371.177194" style="stroke: #000000; stroke-width: 0.6"/>
      </g>
     </g>
    </g>
    <g id="ytick_6">
     <g id="line2d_23">
      <g>
       <use xlink:href="#m1c2af5b49c" x="64.41375" y="101.951849" style="stroke: #000000; stroke-width: 0.6"/>
      </g>
     </g>
     <g id="text_12">
      <!-- $\mathdefault{2\times10^{5}}$ -->
      <g transform="translate(22.81375 105.751067)">
       <text>
        <tspan style="font: 10px 'DejaVu Sans'" x="0 8.310547 18.637695 25" y="-0.06406250000000036">2×10</tspan>
        <tspan style="font: 7px 'DejaVu Sans'" x="31.458008" y="-3.8921875000000004">5</tspan>
       </text>
      </g>
     </g>
    </g>
    <g id="text_13">
     <text style="font: 12px 'DejaVu Sans', 'Bitstream Vera Sans', 'Computer Modern Sans Serif', 'Lucida Grande', 'Verdana', 'Geneva', 'Lucid', 'Arial', 'Helvetica', 'Avant Garde', sans-serif; text-anchor: middle" x="16.318125" y="276.572969" transform="rotate(-90 16.318125 276.572969)">Median Elapsed Time (nanoseconds)</text>
    </g>
   </g>
   <g id="line2d_24">
    <path d="M 93.701037 46.813736 
L 132.750753 192.681702 
L 171.800469 204.3261 
L 210.850185 227.792684 
L 249.899901 250.252748 
L 288.949616 198.278873 
L 327.999332 218.322896 
L 367.049048 217.253044 
L 406.098764 214.203847 
L 445.14848 198.341916 
L 484.198196 256.048009 
L 523.247912 182.462542 
L 562.297628 48.554602 
L 601.347344 155.694946 
L 640.39706 256.04295 
L 679.446776 281.302032 
" clip-path="url(#p2c5efcbd7d)" style="fill: none; stroke: #1f77b4; stroke-width: 2; stroke-linecap: square"/>
    <defs>
     <path id="m20765fa1a9" d="M 0 3 
C 0.795609 3 1.55874 2.683901 2.12132 2.12132 
C 2.683901 1.55874 3 0.795609 3 0 
C 3 -0.795609 2.683901 -1.55874 2.12132 -2.12132 
C 1.55874 -2.683901 0.795609 -3 0 -3 
C -0.795609 -3 -1.55874 -2.683901 -2.12132 -2.12132 
C -2.683901 -1.55874 -3 -0.795609 -3 0 
C -3 0.795609 -2.683901 1.55874 -2.12132 2.12132 
C -1.55874 2.683901 -0.795609 3 0 3 
z
" style="stroke: #1f77b4"/>
    </defs>
    <g clip-path="url(#p2c5efcbd7d)">
     <use xlink:href="#m20765fa1a9" x="93.701037" y="46.813736" style="fill: #1f77b4; stroke: #1f77b4"/>
     <use xlink:href="#m20765fa1a9" x="132.750753" y="192.681702" style="fill: #1f77b4; stroke: #1f77b4"/>
     <use xlink:href="#m20765fa1a9" x="171.800469" y="204.3261" style="fill: #1f77b4; stroke: #1f77b4"/>
     <use xlink:href="#m20765fa1a9" x="210.850185" y="227.792684" style="fill: #1f77b4; stroke: #1f77b4"/>
     <use xlink:href="#m20765fa1a9" x="249.899901" y="250.252748" style="fill: #1f77b4; stroke: #1f77b4"/>
     <use xlink:href="#m20765fa1a9" x="288.949616" y="198.278873" style="fill: #1f77b4; stroke: #1f77b4"/>
     <use xlink:href="#m20765fa1a9" x="327.999332" y="218.322896" style="fill: #1f77b4; stroke: #1f77b4"/>
     <use xlink:href="#m20765fa1a9" x="367.049048" y="217.253044" style="fill: #1f77b4; stroke: #1f77b4"/>
     <use xlink:href="#m20765fa1a9" x="406.098764" y="214.203847" style="fill: #1f77b4; stroke: #1f77b4"/>
     <use xlink:href="#m20765fa1a9" x="445.14848" y="198.341916" style="fill: #1f77b4; stroke: #1f77b4"/>
     <use xlink:href="#m20765fa1a9" x="484.198196" y="256.048009" style="fill: #1f77b4; stroke: #1f77b4"/>
     <use xlink:href="#m20765fa1a9" x="523.247912" y="182.462542" style="fill: #1f77b4; stroke: #1f77b4"/>
     <use xlink:href="#m20765fa1a9" x="562.297628" y="48.554602" style="fill: #1f77b4; stroke: #1f77b4"/>
     <use xlink:href="#m20765fa1a9" x="601.347344" y="155.694946" style="fill: #1f77b4; stroke: #1f77b4"/>
     <use xlink:href="#m20765fa1a9" x="640.39706" y="256.04295" style="fill: #1f77b4; stroke: #1f77b4"/>
     <use xlink:href="#m20765fa1a9" x="679.446776" y="281.302032" style="fill: #1f77b4; stroke: #1f77b4"/>
    </g>
   </g>
   <g id="line2d_25">
    <path d="M 93.701037 241.883604 
L 132.750753 244.797267 
L 171.800469 245.024859 
L 210.850185 247.046823 
L 249.899901 240.173349 
L 288.949616 245.505795 
L 327.999332 240.421353 
L 367.049048 248.699115 
L 406.098764 242.013768 
L 445.14848 248.490508 
L 484.198196 243.072847 
L 523.247912 246.22241 
L 562.297628 249.871903 
L 601.347344 245.665829 
L 640.39706 250.411124 
L 679.446776 240.076839 
" clip-path="url(#p2c5efcbd7d)" style="fill: none; stroke: #ff7f0e; stroke-width: 2; stroke-linecap: square"/>
    <defs>
     <path id="mc37bcdc2cc" d="M 0 3 
C 0.795609 3 1.55874 2.683901 2.12132 2.12132 
C 2.683901 1.55874 3 0.795609 3 0 
C 3 -0.795609 2.683901 -1.55874 2.12132 -2.12132 
C 1.55874 -2.683901 0.795609 -3 0 -3 
C -0.795609 -3 -1.55874 -2.683901 -2.12132 -2.12132 
C -2.683901 -1.55874 -3 -0.795609 -3 0 
C -3 0.795609 -2.683901 1.55874 -2.12132 2.12132 
C -1.55874 2.683901 -0.795609 3 0 3 
z
" style="stroke: #ff7f0e"/>
    </defs>
    <g clip-path="url(#p2c5efcbd7d)">
     <use xlink:href="#mc37bcdc2cc" x="93.701037" y="241.883604" style="fill: #ff7f0e; stroke: #ff7f0e"/>
     <use xlink:href="#mc37bcdc2cc" x="132.750753" y="244.797267" style="fill: #ff7f0e; stroke: #ff7f0e"/>
     <use xlink:href="#mc37bcdc2cc" x="171.800469" y="245.024859" style="fill: #ff7f0e; stroke: #ff7f0e"/>
     <use xlink:href="#mc37bcdc2cc" x="210.850185" y="247.046823" style="fill: #ff7f0e; stroke: #ff7f0e"/>
     <use xlink:href="#mc37bcdc2cc" x="249.899901" y="240.173349" style="fill: #ff7f0e; stroke: #ff7f0e"/>
     <use xlink:href="#mc37bcdc2cc" x="288.949616" y="245.505795" style="fill: #ff7f0e; stroke: #ff7f0e"/>
     <use xlink:href="#mc37bcdc2cc" x="327.999332" y="240.421353" style="fill: #ff7f0e; stroke: #ff7f0e"/>
     <use xlink:href="#mc37bcdc2cc" x="367.049048" y="248.699115" style="fill: #ff7f0e; stroke: #ff7f0e"/>
     <use xlink:href="#mc37bcdc2cc" x="406.098764" y="242.013768" style="fill: #ff7f0e; stroke: #ff7f0e"/>
     <use xlink:href="#mc37bcdc2cc" x="445.14848" y="248.490508" style="fill: #ff7f0e; stroke: #ff7f0e"/>
     <use xlink:href="#mc37bcdc2cc" x="484.198196" y="243.072847" style="fill: #ff7f0e; stroke: #ff7f0e"/>
     <use xlink:href="#mc37bcdc2cc" x="523.247912" y="246.22241" style="fill: #ff7f0e; stroke: #ff7f0e"/>
     <use xlink:href="#mc37bcdc2cc" x="562.297628" y="249.871903" style="fill: #ff7f0e; stroke: #ff7f0e"/>
     <use xlink:href="#mc37bcdc2cc" x="601.347344" y="245.665829" style="fill: #ff7f0e; stroke: #ff7f0e"/>
     <use xlink:href="#mc37bcdc2cc" x="640.39706" y="250.411124" style="fill: #ff7f0e; stroke: #ff7f0e"/>
     <use xlink:href="#mc37bcdc2cc" x="679.446776" y="240.076839" style="fill: #ff7f0e; stroke: #ff7f0e"/>
    </g>
   </g>
   <g id="line2d_26">
    <path d="M 93.701037 416.294209 
L 132.750753 499.599254 
L 171.800469 416.717598 
L 210.850185 488.674124 
L 249.899901 490.678047 
L 288.949616 497.091928 
L 327.999332 432.997422 
L 367.049048 260.850673 
L 406.098764 506.332202 
L 445.14848 504.569817 
L 484.198196 450.225071 
L 523.247912 417.710717 
L 562.297628 474.823811 
L 640.39706 492.524246 
L 679.446776 434.370502 
" clip-path="url(#p2c5efcbd7d)" style="fill: none; stroke: #2ca02c; stroke-width: 2; stroke-linecap: square"/>
    <defs>
     <path id="m60e6872997" d="M 0 3 
C 0.795609 3 1.55874 2.683901 2.12132 2.12132 
C 2.683901 1.55874 3 0.795609 3 0 
C 3 -0.795609 2.683901 -1.55874 2.12132 -2.12132 
C 1.55874 -2.683901 0.795609 -3 0 -3 
C -0.795609 -3 -1.55874 -2.683901 -2.12132 -2.12132 
C -2.683901 -1.55874 -3 -0.795609 -3 0 
C -3 0.795609 -2.683901 1.55874 -2.12132 2.12132 
C -1.55874 2.683901 -0.795609 3 0 3 
z
" style="stroke: #2ca02c"/>
    </defs>
    <g clip-path="url(#p2c5efcbd7d)">
     <use xlink:href="#m60e6872997" x="93.701037" y="416.294209" style="fill: #2ca02c; stroke: #2ca02c"/>
     <use xlink:href="#m60e6872997" x="132.750753" y="499.599254" style="fill: #2ca02c; stroke: #2ca02c"/>
     <use xlink:href="#m60e6872997" x="171.800469" y="416.717598" style="fill: #2ca02c; stroke: #2ca02c"/>
     <use xlink:href="#m60e6872997" x="210.850185" y="488.674124" style="fill: #2ca02c; stroke: #2ca02c"/>
     <use xlink:href="#m60e6872997" x="249.899901" y="490.678047" style="fill: #2ca02c; stroke: #2ca02c"/>
     <use xlink:href="#m60e6872997" x="288.949616" y="497.091928" style="fill: #2ca02c; stroke: #2ca02c"/>
     <use xlink:href="#m60e6872997" x="327.999332" y="432.997422" style="fill: #2ca02c; stroke: #2ca02c"/>
     <use xlink:href="#m60e6872997" x="367.049048" y="260.850673" style="fill: #2ca02c; stroke: #2ca02c"/>
     <use xlink:href="#m60e6872997" x="406.098764" y="506.332202" style="fill: #2ca02c; stroke: #2ca02c"/>
     <use xlink:href="#m60e6872997" x="445.14848" y="504.569817" style="fill: #2ca02c; stroke: #2ca02c"/>
     <use xlink:href="#m60e6872997" x="484.198196" y="450.225071" style="fill: #2ca02c; stroke: #2ca02c"/>
     <use xlink:href="#m60e6872997" x="523.247912" y="417.710717" style="fill: #2ca02c; stroke: #2ca02c"/>
     <use xlink:href="#m60e6872997" x="562.297628" y="474.823811" style="fill: #2ca02c; stroke: #2ca02c"/>
     <use xlink:href="#m60e6872997" x="640.39706" y="492.524246" style="fill: #2ca02c; stroke: #2ca02c"/>
     <use xlink:href="#m60e6872997" x="679.446776" y="434.370502" style="fill: #2ca02c; stroke: #2ca02c"/>
    </g>
   </g>
   <g id="line2d_27">
    <path d="M 93.701037 461.823363 
L 132.750753 457.078636 
L 171.800469 461.375637 
L 210.850185 459.22321 
L 249.899901 462.535716 
L 288.949616 468.984419 
L 327.999332 460.76428 
L 367.049048 459.124968 
L 406.098764 461.959497 
L 445.14848 459.689516 
L 484.198196 463.856249 
L 523.247912 467.697072 
L 562.297628 423.646098 
L 640.39706 459.357973 
L 679.446776 456.034743 
" clip-path="url(#p2c5efcbd7d)" style="fill: none; stroke: #d62728; stroke-width: 2; stroke-linecap: square"/>
    <defs>
     <path id="m07d46af729" d="M 0 3 
C 0.795609 3 1.55874 2.683901 2.12132 2.12132 
C 2.683901 1.55874 3 0.795609 3 0 
C 3 -0.795609 2.683901 -1.55874 2.12132 -2.12132 
C 1.55874 -2.683901 0.795609 -3 0 -3 
C -0.795609 -3 -1.55874 -2.683901 -2.12132 -2.12132 
C -2.683901 -1.55874 -3 -0.795609 -3 0 
C -3 0.795609 -2.683901 1.55874 -2.12132 2.12132 
C -1.55874 2.683901 -0.795609 3 0 3 
z
" style="stroke: #d62728"/>
    </defs>
    <g clip-path="url(#p2c5efcbd7d)">
     <use xlink:href="#m07d46af729" x="93.701037" y="461.823363" style="fill: #d62728; stroke: #d62728"/>
     <use xlink:href="#m07d46af729" x="132.750753" y="457.078636" style="fill: #d62728; stroke: #d62728"/>
     <use xlink:href="#m07d46af729" x="171.800469" y="461.375637" style="fill: #d62728; stroke: #d62728"/>
     <use xlink:href="#m07d46af729" x="210.850185" y="459.22321" style="fill: #d62728; stroke: #d62728"/>
     <use xlink:href="#m07d46af729" x="249.899901" y="462.535716" style="fill: #d62728; stroke: #d62728"/>
     <use xlink:href="#m07d46af729" x="288.949616" y="468.984419" style="fill: #d62728; stroke: #d62728"/>
     <use xlink:href="#m07d46af729" x="327.999332" y="460.76428" style="fill: #d62728; stroke: #d62728"/>
     <use xlink:href="#m07d46af729" x="367.049048" y="459.124968" style="fill: #d62728; stroke: #d62728"/>
     <use xlink:href="#m07d46af729" x="406.098764" y="461.959497" style="fill: #d62728; stroke: #d62728"/>
     <use xlink:href="#m07d46af729" x="445.14848" y="459.689516" style="fill: #d62728; stroke: #d62728"/>
     <use xlink:href="#m07d46af729" x="484.198196" y="463.856249" style="fill: #d62728; stroke: #d62728"/>
     <use xlink:href="#m07d46af729" x="523.247912" y="467.697072" style="fill: #d62728; stroke: #d62728"/>
     <use xlink:href="#m07d46af729" x="562.297628" y="423.646098" style="fill: #d62728; stroke: #d62728"/>
     <use xlink:href="#m07d46af729" x="640.39706" y="459.357973" style="fill: #d62728; stroke: #d62728"/>
     <use xlink:href="#m07d46af729" x="679.446776" y="456.034743" style="fill: #d62728; stroke: #d62728"/>
    </g>
   </g>
   <g id="patch_3">
    <path d="M 64.41375 529.308125 
L 64.41375 23.837812 
" style="fill: none; stroke: #000000; stroke-width: 0.8; stroke-linejoin: miter; stroke-linecap: square"/>
   </g>
   <g id="patch_4">
    <path d="M 708.734063 529.308125 
L 708.734063 23.837812 
" style="fill: none; stroke: #000000; stroke-width: 0.8; stroke-linejoin: miter; stroke-linecap: square"/>
   </g>
   <g id="patch_5">
    <path d="M 64.41375 529.308125 
L 708.734063 529.308125 
" style="fill: none; stroke: #000000; stroke-width: 0.8; stroke-linejoin: miter; stroke-linecap: square"/>
   </g>
   <g id="patch_6">
    <path d="M 64.41375 23.837812 
L 708.734063 23.837812 
" style="fill: none; stroke: #000000; stroke-width: 0.8; stroke-linejoin: miter; stroke-linecap: square"/>
   </g>
   <g id="text_14">
    <text style="font: 700 14px 'DejaVu Sans', 'Bitstream Vera Sans', 'Computer Modern Sans Serif', 'Lucida Grande', 'Verdana', 'Geneva', 'Lucid', 'Arial', 'Helvetica', 'Avant Garde', sans-serif; text-anchor: middle" x="386.573906" y="17.837813" transform="rotate(-0 386.573906 17.837813)">Nestedparallel - Performance Trend</text>
   </g>
   <g id="legend_1">
    <g id="patch_7">
     <path d="M 747.950078 90.550312 
L 846.336016 90.550312 
Q 848.336016 90.550312 848.336016 88.550312 
L 848.336016 30.837812 
Q 848.336016 28.837812 846.336016 28.837812 
L 747.950078 28.837812 
Q 745.950078 28.837812 745.950078 30.837812 
L 745.950078 88.550312 
Q 745.950078 90.550312 747.950078 90.550312 
z
" style="fill: #ffffff; opacity: 0.8; stroke: #cccccc; stroke-linejoin: miter"/>
    </g>
    <g id="line2d_28">
     <path d="M 749.950078 36.93625 
L 759.950078 36.93625 
L 769.950078 36.93625 
" style="fill: none; stroke: #1f77b4; stroke-width: 2; stroke-linecap: square"/>
     <g>
      <use xlink:href="#m20765fa1a9" x="759.950078" y="36.93625" style="fill: #1f77b4; stroke: #1f77b4"/>
     </g>
    </g>
    <g id="text_15">
     <text style="font: 10px 'DejaVu Sans', 'Bitstream Vera Sans', 'Computer Modern Sans Serif', 'Lucida Grande', 'Verdana', 'Geneva', 'Lucid', 'Arial', 'Helvetica', 'Avant Garde', sans-serif; text-anchor: start" x="777.950078" y="40.43625" transform="rotate(-0 777.950078 40.43625)">gcc-14.2 - V1</text>
    </g>
    <g id="line2d_29">
     <path d="M 749.950078 51.614375 
L 759.950078 51.614375 
L 769.950078 51.614375 
" style="fill: none; stroke: #ff7f0e; stroke-width: 2; stroke-linecap: square"/>
     <g>
      <use xlink:href="#mc37bcdc2cc" x="759.950078" y="51.614375" style="fill: #ff7f0e; stroke: #ff7f0e"/>
     </g>
    </g>
    <g id="text_16">
     <text style="font: 10px 'DejaVu Sans', 'Bitstream Vera Sans', 'Computer Modern Sans Serif', 'Lucida Grande', 'Verdana', 'Geneva', 'Lucid', 'Arial', 'Helvetica', 'Avant Garde', sans-serif; text-anchor: start" x="777.950078" y="55.114375" transform="rotate(-0 777.950078 55.114375)">gcc-14.2 - V2</text>
    </g>
    <g id="line2d_30">
     <path d="M 749.950078 66.2925 
L 759.950078 66.2925 
L 769.950078 66.2925 
" style="fill: none; stroke: #2ca02c; stroke-width: 2; stroke-linecap: square"/>
     <g>
      <use xlink:href="#m60e6872997" x="759.950078" y="66.2925" style="fill: #2ca02c; stroke: #2ca02c"/>
     </g>
    </g>
    <g id="text_17">
     <text style="font: 10px 'DejaVu Sans', 'Bitstream Vera Sans', 'Computer Modern Sans Serif', 'Lucida Grande', 'Verdana', 'Geneva', 'Lucid', 'Arial', 'Helvetica', 'Avant Garde', sans-serif; text-anchor: start" x="777.950078" y="69.7925" transform="rotate(-0 777.950078 69.7925)">gcc-4.2 - V1</text>
    </g>
    <g id="line2d_31">
     <path d="M 749.950078 80.970625 
L 759.950078 80.970625 
L 769.950078 80.970625 
" style="fill: none; stroke: #d62728; stroke-width: 2; stroke-linecap: square"/>
     <g>
      <use xlink:href="#m07d46af729" x="759.950078" y="80.970625" style="fill: #d62728; stroke: #d62728"/>
     </g>
    </g>
    <g id="text_18">
     <text style="font: 10px 'DejaVu Sans', 'Bitstream Vera Sans', 'Computer Modern Sans Serif', 'Lucida Grande', 'Verdana', 'Geneva', 'Lucid', 'Arial', 'Helvetica', 'Avant Garde', sans-serif; text-anchor: start" x="777.950078" y="84.470625" transform="rotate(-0 777.950078 84.470625)">gcc-4.2 - V2</text>
    </g>
   </g>
  </g>
 </g>
 <defs>
  <clipPath id="p2c5efcbd7d">
   <rect x="64.41375" y="23.837813" width="644.320312" height="505.470313"/>
  </clipPath>
 </defs>
</svg>
