<?xml version="1.0" encoding="utf-8" standalone="no"?>
<!DOCTYPE svg PUBLIC "-//W3C//DTD SVG 1.1//EN"
  "http://www.w3.org/Graphics/SVG/1.1/DTD/svg11.dtd">
<svg xmlns:xlink="http://www.w3.org/1999/xlink" width="855.204687pt" height="568.8pt" viewBox="0 0 855.204687 568.8" xmlns="http://www.w3.org/2000/svg" version="1.1">
 <metadata>
  <rdf:RDF xmlns:dc="http://purl.org/dc/elements/1.1/" xmlns:cc="http://creativecommons.org/ns#" xmlns:rdf="http://www.w3.org/1999/02/22-rdf-syntax-ns#">
   <cc:Work>
    <dc:type rdf:resource="http://purl.org/dc/dcmitype/StillImage"/>
    <dc:date>2025-08-31T21:46:00.480666</dc:date>
    <dc:format>image/svg+xml</dc:format>
    <dc:creator>
     <cc:Agent>
      <dc:title>Matplotlib v3.9.4, https://matplotlib.org/</dc:title>
     </cc:Agent>
    </dc:creator>
   </cc:Work>
  </rdf:RDF>
 </metadata>
 <defs>
  <style type="text/css">*{stroke-linejoin: round; stroke-linecap: butt}</style>
 </defs>
 <g id="figure_1">
  <g id="patch_1">
   <path d="M 0 568.8 
L 855.204687 568.8 
L 855.204687 0 
L 0 0 
z
" style="fill: #ffffff"/>
  </g>
  <g id="axes_1">
   <g id="patch_2">
    <path d="M 64.41375 529.308125 
L 702.1075 529.308125 
L 702.1075 23.837812 
L 64.41375 23.837812 
z
" style="fill: #ffffff"/>
   </g>
   <g id="matplotlib.axis_1">
    <g id="xtick_1">
     <g id="line2d_1">
      <path d="M 80.517128 529.308125 
L 80.517128 23.837812 
" clip-path="url(#p52dbf9906e)" style="fill: none; stroke: #b0b0b0; stroke-opacity: 0.3; stroke-width: 0.8; stroke-linecap: square"/>
     </g>
     <g id="line2d_2">
      <defs>
       <path id="md847d1903c" d="M 0 0 
L 0 3.5 
" style="stroke: #000000; stroke-width: 0.8"/>
      </defs>
      <g>
       <use xlink:href="#md847d1903c" x="80.517128" y="529.308125" style="stroke: #000000; stroke-width: 0.8"/>
      </g>
     </g>
     <g id="text_1">
      <text style="font: 10px 'DejaVu Sans', 'Bitstream Vera Sans', 'Computer Modern Sans Serif', 'Lucida Grande', 'Verdana', 'Geneva', 'Lucid', 'Arial', 'Helvetica', 'Avant Garde', sans-serif; text-anchor: middle" x="80.517128" y="543.906563" transform="rotate(-0 80.517128 543.906563)">70</text>
     </g>
    </g>
    <g id="xtick_2">
     <g id="line2d_3">
      <path d="M 209.344148 529.308125 
L 209.344148 23.837812 
" clip-path="url(#p52dbf9906e)" style="fill: none; stroke: #b0b0b0; stroke-opacity: 0.3; stroke-width: 0.8; stroke-linecap: square"/>
     </g>
     <g id="line2d_4">
      <g>
       <use xlink:href="#md847d1903c" x="209.344148" y="529.308125" style="stroke: #000000; stroke-width: 0.8"/>
      </g>
     </g>
     <g id="text_2">
      <text style="font: 10px 'DejaVu Sans', 'Bitstream Vera Sans', 'Computer Modern Sans Serif', 'Lucida Grande', 'Verdana', 'Geneva', 'Lucid', 'Arial', 'Helvetica', 'Avant Garde', sans-serif; text-anchor: middle" x="209.344148" y="543.906563" transform="rotate(-0 209.344148 543.906563)">80</text>
     </g>
    </g>
    <g id="xtick_3">
     <g id="line2d_5">
      <path d="M 338.171168 529.308125 
L 338.171168 23.837812 
" clip-path="url(#p52dbf9906e)" style="fill: none; stroke: #b0b0b0; stroke-opacity: 0.3; stroke-width: 0.8; stroke-linecap: square"/>
     </g>
     <g id="line2d_6">
      <g>
       <use xlink:href="#md847d1903c" x="338.171168" y="529.308125" style="stroke: #000000; stroke-width: 0.8"/>
      </g>
     </g>
     <g id="text_3">
      <text style="font: 10px 'DejaVu Sans', 'Bitstream Vera Sans', 'Computer Modern Sans Serif', 'Lucida Grande', 'Verdana', 'Geneva', 'Lucid', 'Arial', 'Helvetica', 'Avant Garde', sans-serif; text-anchor: middle" x="338.171168" y="543.906563" transform="rotate(-0 338.171168 543.906563)">90</text>
     </g>
    </g>
    <g id="xtick_4">
     <g id="line2d_7">
      <path d="M 466.998188 529.308125 
L 466.998188 23.837812 
" clip-path="url(#p52dbf9906e)" style="fill: none; stroke: #b0b0b0; stroke-opacity: 0.3; stroke-width: 0.8; stroke-linecap: square"/>
     </g>
     <g id="line2d_8">
      <g>
       <use xlink:href="#md847d1903c" x="466.998188" y="529.308125" style="stroke: #000000; stroke-width: 0.8"/>
      </g>
     </g>
     <g id="text_4">
      <text style="font: 10px 'DejaVu Sans', 'Bitstream Vera Sans', 'Computer Modern Sans Serif', 'Lucida Grande', 'Verdana', 'Geneva', 'Lucid', 'Arial', 'Helvetica', 'Avant Garde', sans-serif; text-anchor: middle" x="466.998188" y="543.906563" transform="rotate(-0 466.998188 543.906563)">100</text>
     </g>
    </g>
    <g id="xtick_5">
     <g id="line2d_9">
      <path d="M 595.825208 529.308125 
L 595.825208 23.837812 
" clip-path="url(#p52dbf9906e)" style="fill: none; stroke: #b0b0b0; stroke-opacity: 0.3; stroke-width: 0.8; stroke-linecap: square"/>
     </g>
     <g id="line2d_10">
      <g>
       <use xlink:href="#md847d1903c" x="595.825208" y="529.308125" style="stroke: #000000; stroke-width: 0.8"/>
      </g>
     </g>
     <g id="text_5">
      <text style="font: 10px 'DejaVu Sans', 'Bitstream Vera Sans', 'Computer Modern Sans Serif', 'Lucida Grande', 'Verdana', 'Geneva', 'Lucid', 'Arial', 'Helvetica', 'Avant Garde', sans-serif; text-anchor: middle" x="595.825208" y="543.906563" transform="rotate(-0 595.825208 543.906563)">110</text>
     </g>
    </g>
    <g id="text_6">
     <text style="font: 12px 'DejaVu Sans', 'Bitstream Vera Sans', 'Computer Modern Sans Serif', 'Lucida Grande', 'Verdana', 'Geneva', 'Lucid', 'Arial', 'Helvetica', 'Avant Garde', sans-serif; text-anchor: middle" x="383.260625" y="559.104375" transform="rotate(-0 383.260625 559.104375)">Build Number</text>
    </g>
   </g>
   <g id="matplotlib.axis_2">
    <g id="ytick_1">
     <g id="line2d_11">
      <path d="M 64.41375 348.809781 
L 702.1075 348.809781 
" clip-path="url(#p52dbf9906e)" style="fill: none; stroke: #b0b0b0; stroke-opacity: 0.3; stroke-width: 0.8; stroke-linecap: square"/>
     </g>
     <g id="line2d_12">
      <defs>
       <path id="m46677e3006" d="M 0 0 
L -3.5 0 
" style="stroke: #000000; stroke-width: 0.8"/>
      </defs>
      <g>
       <use xlink:href="#m46677e3006" x="64.41375" y="348.809781" style="stroke: #000000; stroke-width: 0.8"/>
      </g>
     </g>
     <g id="text_7">
      <!-- $\mathdefault{10^{5}}$ -->
      <g transform="translate(39.81375 352.608999)">
       <text>
        <tspan style="font: 10px 'DejaVu Sans'" x="0 6.362305" y="-0.06406250000000036">10</tspan>
        <tspan style="font: 7px 'DejaVu Sans'" x="12.820312" y="-3.8921875000000004">5</tspan>
       </text>
      </g>
     </g>
    </g>
    <g id="ytick_2">
     <g id="line2d_13">
      <defs>
       <path id="m3b4737ef6a" d="M 0 0 
L -2 0 
" style="stroke: #000000; stroke-width: 0.6"/>
      </defs>
      <g>
       <use xlink:href="#m3b4737ef6a" x="64.41375" y="477.273547" style="stroke: #000000; stroke-width: 0.6"/>
      </g>
     </g>
    </g>
    <g id="ytick_3">
     <g id="line2d_14">
      <g>
       <use xlink:href="#m3b4737ef6a" x="64.41375" y="429.179488" style="stroke: #000000; stroke-width: 0.6"/>
      </g>
     </g>
    </g>
    <g id="ytick_4">
     <g id="line2d_15">
      <g>
       <use xlink:href="#m3b4737ef6a" x="64.41375" y="386.757522" style="stroke: #000000; stroke-width: 0.6"/>
      </g>
     </g>
    </g>
    <g id="ytick_5">
     <g id="line2d_16">
      <g>
       <use xlink:href="#m3b4737ef6a" x="64.41375" y="99.158666" style="stroke: #000000; stroke-width: 0.6"/>
      </g>
     </g>
     <g id="text_8">
      <!-- $\mathdefault{2\times10^{5}}$ -->
      <g transform="translate(22.81375 102.957885)">
       <text>
        <tspan style="font: 10px 'DejaVu Sans'" x="0 8.310547 18.637695 25" y="-0.06406250000000036">2×10</tspan>
        <tspan style="font: 7px 'DejaVu Sans'" x="31.458008" y="-3.8921875000000004">5</tspan>
       </text>
      </g>
     </g>
    </g>
    <g id="text_9">
     <text style="font: 12px 'DejaVu Sans', 'Bitstream Vera Sans', 'Computer Modern Sans Serif', 'Lucida Grande', 'Verdana', 'Geneva', 'Lucid', 'Arial', 'Helvetica', 'Avant Garde', sans-serif; text-anchor: middle" x="16.318125" y="276.572969" transform="rotate(-90 16.318125 276.572969)">Median Elapsed Time (nanoseconds)</text>
    </g>
   </g>
   <g id="line2d_17">
    <path d="M 93.39983 320.399692 
L 106.282532 149.937849 
L 119.165234 149.122015 
L 132.047936 281.632503 
L 144.930638 73.517706 
L 157.81334 262.330675 
L 170.696042 319.41646 
L 183.578744 320.479253 
L 196.461446 154.791122 
L 209.344148 314.376784 
L 222.22685 314.778644 
L 235.109552 320.044049 
L 247.992254 70.757565 
L 260.874956 317.938266 
L 273.757658 319.597083 
L 286.64036 318.721044 
L 312.405764 319.842596 
L 325.288466 167.082323 
L 338.171168 319.906078 
L 351.05387 153.803023 
L 363.936572 319.841267 
L 376.819274 67.555908 
L 389.701976 318.710773 
L 402.584678 147.600096 
L 415.46738 255.817313 
L 428.350082 170.559724 
L 454.115486 226.811932 
L 466.998188 263.587557 
L 479.88089 157.035303 
L 492.763592 223.21326 
L 505.646294 279.579341 
L 518.528996 278.500091 
L 531.411698 318.151651 
L 544.2944 154.443467 
L 570.059804 239.450357 
L 582.942506 230.756909 
L 595.825208 155.677847 
L 608.70791 155.272932 
L 621.590612 69.000527 
L 647.356016 212.484487 
L 660.238718 190.466391 
L 673.12142 295.152452 
" clip-path="url(#p52dbf9906e)" style="fill: none; stroke: #1f77b4; stroke-width: 2; stroke-linecap: square"/>
    <defs>
     <path id="m115f951501" d="M 0 3 
C 0.795609 3 1.55874 2.683901 2.12132 2.12132 
C 2.683901 1.55874 3 0.795609 3 0 
C 3 -0.795609 2.683901 -1.55874 2.12132 -2.12132 
C 1.55874 -2.683901 0.795609 -3 0 -3 
C -0.795609 -3 -1.55874 -2.683901 -2.12132 -2.12132 
C -2.683901 -1.55874 -3 -0.795609 -3 0 
C -3 0.795609 -2.683901 1.55874 -2.12132 2.12132 
C -1.55874 2.683901 -0.795609 3 0 3 
z
" style="stroke: #1f77b4"/>
    </defs>
    <g clip-path="url(#p52dbf9906e)">
     <use xlink:href="#m115f951501" x="93.39983" y="320.399692" style="fill: #1f77b4; stroke: #1f77b4"/>
     <use xlink:href="#m115f951501" x="106.282532" y="149.937849" style="fill: #1f77b4; stroke: #1f77b4"/>
     <use xlink:href="#m115f951501" x="119.165234" y="149.122015" style="fill: #1f77b4; stroke: #1f77b4"/>
     <use xlink:href="#m115f951501" x="132.047936" y="281.632503" style="fill: #1f77b4; stroke: #1f77b4"/>
     <use xlink:href="#m115f951501" x="144.930638" y="73.517706" style="fill: #1f77b4; stroke: #1f77b4"/>
     <use xlink:href="#m115f951501" x="157.81334" y="262.330675" style="fill: #1f77b4; stroke: #1f77b4"/>
     <use xlink:href="#m115f951501" x="170.696042" y="319.41646" style="fill: #1f77b4; stroke: #1f77b4"/>
     <use xlink:href="#m115f951501" x="183.578744" y="320.479253" style="fill: #1f77b4; stroke: #1f77b4"/>
     <use xlink:href="#m115f951501" x="196.461446" y="154.791122" style="fill: #1f77b4; stroke: #1f77b4"/>
     <use xlink:href="#m115f951501" x="209.344148" y="314.376784" style="fill: #1f77b4; stroke: #1f77b4"/>
     <use xlink:href="#m115f951501" x="222.22685" y="314.778644" style="fill: #1f77b4; stroke: #1f77b4"/>
     <use xlink:href="#m115f951501" x="235.109552" y="320.044049" style="fill: #1f77b4; stroke: #1f77b4"/>
     <use xlink:href="#m115f951501" x="247.992254" y="70.757565" style="fill: #1f77b4; stroke: #1f77b4"/>
     <use xlink:href="#m115f951501" x="260.874956" y="317.938266" style="fill: #1f77b4; stroke: #1f77b4"/>
     <use xlink:href="#m115f951501" x="273.757658" y="319.597083" style="fill: #1f77b4; stroke: #1f77b4"/>
     <use xlink:href="#m115f951501" x="286.64036" y="318.721044" style="fill: #1f77b4; stroke: #1f77b4"/>
     <use xlink:href="#m115f951501" x="312.405764" y="319.842596" style="fill: #1f77b4; stroke: #1f77b4"/>
     <use xlink:href="#m115f951501" x="325.288466" y="167.082323" style="fill: #1f77b4; stroke: #1f77b4"/>
     <use xlink:href="#m115f951501" x="338.171168" y="319.906078" style="fill: #1f77b4; stroke: #1f77b4"/>
     <use xlink:href="#m115f951501" x="351.05387" y="153.803023" style="fill: #1f77b4; stroke: #1f77b4"/>
     <use xlink:href="#m115f951501" x="363.936572" y="319.841267" style="fill: #1f77b4; stroke: #1f77b4"/>
     <use xlink:href="#m115f951501" x="376.819274" y="67.555908" style="fill: #1f77b4; stroke: #1f77b4"/>
     <use xlink:href="#m115f951501" x="389.701976" y="318.710773" style="fill: #1f77b4; stroke: #1f77b4"/>
     <use xlink:href="#m115f951501" x="402.584678" y="147.600096" style="fill: #1f77b4; stroke: #1f77b4"/>
     <use xlink:href="#m115f951501" x="415.46738" y="255.817313" style="fill: #1f77b4; stroke: #1f77b4"/>
     <use xlink:href="#m115f951501" x="428.350082" y="170.559724" style="fill: #1f77b4; stroke: #1f77b4"/>
     <use xlink:href="#m115f951501" x="454.115486" y="226.811932" style="fill: #1f77b4; stroke: #1f77b4"/>
     <use xlink:href="#m115f951501" x="466.998188" y="263.587557" style="fill: #1f77b4; stroke: #1f77b4"/>
     <use xlink:href="#m115f951501" x="479.88089" y="157.035303" style="fill: #1f77b4; stroke: #1f77b4"/>
     <use xlink:href="#m115f951501" x="492.763592" y="223.21326" style="fill: #1f77b4; stroke: #1f77b4"/>
     <use xlink:href="#m115f951501" x="505.646294" y="279.579341" style="fill: #1f77b4; stroke: #1f77b4"/>
     <use xlink:href="#m115f951501" x="518.528996" y="278.500091" style="fill: #1f77b4; stroke: #1f77b4"/>
     <use xlink:href="#m115f951501" x="531.411698" y="318.151651" style="fill: #1f77b4; stroke: #1f77b4"/>
     <use xlink:href="#m115f951501" x="544.2944" y="154.443467" style="fill: #1f77b4; stroke: #1f77b4"/>
     <use xlink:href="#m115f951501" x="570.059804" y="239.450357" style="fill: #1f77b4; stroke: #1f77b4"/>
     <use xlink:href="#m115f951501" x="582.942506" y="230.756909" style="fill: #1f77b4; stroke: #1f77b4"/>
     <use xlink:href="#m115f951501" x="595.825208" y="155.677847" style="fill: #1f77b4; stroke: #1f77b4"/>
     <use xlink:href="#m115f951501" x="608.70791" y="155.272932" style="fill: #1f77b4; stroke: #1f77b4"/>
     <use xlink:href="#m115f951501" x="621.590612" y="69.000527" style="fill: #1f77b4; stroke: #1f77b4"/>
     <use xlink:href="#m115f951501" x="647.356016" y="212.484487" style="fill: #1f77b4; stroke: #1f77b4"/>
     <use xlink:href="#m115f951501" x="660.238718" y="190.466391" style="fill: #1f77b4; stroke: #1f77b4"/>
     <use xlink:href="#m115f951501" x="673.12142" y="295.152452" style="fill: #1f77b4; stroke: #1f77b4"/>
    </g>
   </g>
   <g id="line2d_18">
    <path d="M 93.39983 287.002065 
L 106.282532 166.941871 
L 119.165234 206.761922 
L 132.047936 267.182754 
L 144.930638 170.52357 
L 157.81334 276.779458 
L 170.696042 267.21556 
L 183.578744 274.060871 
L 196.461446 73.812662 
L 209.344148 273.893797 
L 222.22685 270.935313 
L 235.109552 268.600312 
L 247.992254 164.624075 
L 260.874956 275.976789 
L 273.757658 280.273421 
L 286.64036 161.231057 
L 312.405764 161.617455 
L 325.288466 144.792844 
L 338.171168 251.284103 
L 351.05387 151.838117 
L 363.936572 270.392581 
L 376.819274 169.497912 
L 389.701976 257.445194 
L 402.584678 173.681673 
L 415.46738 322.455249 
L 428.350082 321.781345 
L 454.115486 208.787844 
L 466.998188 158.587297 
L 479.88089 279.041241 
L 492.763592 199.57643 
L 505.646294 162.77635 
L 518.528996 239.735731 
L 531.411698 152.466443 
L 544.2944 167.740743 
L 570.059804 250.586132 
L 582.942506 155.406309 
L 595.825208 155.899553 
L 608.70791 304.189228 
L 621.590612 320.388043 
L 647.356016 153.71347 
L 660.238718 243.924249 
L 673.12142 294.062712 
" clip-path="url(#p52dbf9906e)" style="fill: none; stroke: #ff7f0e; stroke-width: 2; stroke-linecap: square"/>
    <defs>
     <path id="m097cd96dfc" d="M 0 3 
C 0.795609 3 1.55874 2.683901 2.12132 2.12132 
C 2.683901 1.55874 3 0.795609 3 0 
C 3 -0.795609 2.683901 -1.55874 2.12132 -2.12132 
C 1.55874 -2.683901 0.795609 -3 0 -3 
C -0.795609 -3 -1.55874 -2.683901 -2.12132 -2.12132 
C -2.683901 -1.55874 -3 -0.795609 -3 0 
C -3 0.795609 -2.683901 1.55874 -2.12132 2.12132 
C -1.55874 2.683901 -0.795609 3 0 3 
z
" style="stroke: #ff7f0e"/>
    </defs>
    <g clip-path="url(#p52dbf9906e)">
     <use xlink:href="#m097cd96dfc" x="93.39983" y="287.002065" style="fill: #ff7f0e; stroke: #ff7f0e"/>
     <use xlink:href="#m097cd96dfc" x="106.282532" y="166.941871" style="fill: #ff7f0e; stroke: #ff7f0e"/>
     <use xlink:href="#m097cd96dfc" x="119.165234" y="206.761922" style="fill: #ff7f0e; stroke: #ff7f0e"/>
     <use xlink:href="#m097cd96dfc" x="132.047936" y="267.182754" style="fill: #ff7f0e; stroke: #ff7f0e"/>
     <use xlink:href="#m097cd96dfc" x="144.930638" y="170.52357" style="fill: #ff7f0e; stroke: #ff7f0e"/>
     <use xlink:href="#m097cd96dfc" x="157.81334" y="276.779458" style="fill: #ff7f0e; stroke: #ff7f0e"/>
     <use xlink:href="#m097cd96dfc" x="170.696042" y="267.21556" style="fill: #ff7f0e; stroke: #ff7f0e"/>
     <use xlink:href="#m097cd96dfc" x="183.578744" y="274.060871" style="fill: #ff7f0e; stroke: #ff7f0e"/>
     <use xlink:href="#m097cd96dfc" x="196.461446" y="73.812662" style="fill: #ff7f0e; stroke: #ff7f0e"/>
     <use xlink:href="#m097cd96dfc" x="209.344148" y="273.893797" style="fill: #ff7f0e; stroke: #ff7f0e"/>
     <use xlink:href="#m097cd96dfc" x="222.22685" y="270.935313" style="fill: #ff7f0e; stroke: #ff7f0e"/>
     <use xlink:href="#m097cd96dfc" x="235.109552" y="268.600312" style="fill: #ff7f0e; stroke: #ff7f0e"/>
     <use xlink:href="#m097cd96dfc" x="247.992254" y="164.624075" style="fill: #ff7f0e; stroke: #ff7f0e"/>
     <use xlink:href="#m097cd96dfc" x="260.874956" y="275.976789" style="fill: #ff7f0e; stroke: #ff7f0e"/>
     <use xlink:href="#m097cd96dfc" x="273.757658" y="280.273421" style="fill: #ff7f0e; stroke: #ff7f0e"/>
     <use xlink:href="#m097cd96dfc" x="286.64036" y="161.231057" style="fill: #ff7f0e; stroke: #ff7f0e"/>
     <use xlink:href="#m097cd96dfc" x="312.405764" y="161.617455" style="fill: #ff7f0e; stroke: #ff7f0e"/>
     <use xlink:href="#m097cd96dfc" x="325.288466" y="144.792844" style="fill: #ff7f0e; stroke: #ff7f0e"/>
     <use xlink:href="#m097cd96dfc" x="338.171168" y="251.284103" style="fill: #ff7f0e; stroke: #ff7f0e"/>
     <use xlink:href="#m097cd96dfc" x="351.05387" y="151.838117" style="fill: #ff7f0e; stroke: #ff7f0e"/>
     <use xlink:href="#m097cd96dfc" x="363.936572" y="270.392581" style="fill: #ff7f0e; stroke: #ff7f0e"/>
     <use xlink:href="#m097cd96dfc" x="376.819274" y="169.497912" style="fill: #ff7f0e; stroke: #ff7f0e"/>
     <use xlink:href="#m097cd96dfc" x="389.701976" y="257.445194" style="fill: #ff7f0e; stroke: #ff7f0e"/>
     <use xlink:href="#m097cd96dfc" x="402.584678" y="173.681673" style="fill: #ff7f0e; stroke: #ff7f0e"/>
     <use xlink:href="#m097cd96dfc" x="415.46738" y="322.455249" style="fill: #ff7f0e; stroke: #ff7f0e"/>
     <use xlink:href="#m097cd96dfc" x="428.350082" y="321.781345" style="fill: #ff7f0e; stroke: #ff7f0e"/>
     <use xlink:href="#m097cd96dfc" x="454.115486" y="208.787844" style="fill: #ff7f0e; stroke: #ff7f0e"/>
     <use xlink:href="#m097cd96dfc" x="466.998188" y="158.587297" style="fill: #ff7f0e; stroke: #ff7f0e"/>
     <use xlink:href="#m097cd96dfc" x="479.88089" y="279.041241" style="fill: #ff7f0e; stroke: #ff7f0e"/>
     <use xlink:href="#m097cd96dfc" x="492.763592" y="199.57643" style="fill: #ff7f0e; stroke: #ff7f0e"/>
     <use xlink:href="#m097cd96dfc" x="505.646294" y="162.77635" style="fill: #ff7f0e; stroke: #ff7f0e"/>
     <use xlink:href="#m097cd96dfc" x="518.528996" y="239.735731" style="fill: #ff7f0e; stroke: #ff7f0e"/>
     <use xlink:href="#m097cd96dfc" x="531.411698" y="152.466443" style="fill: #ff7f0e; stroke: #ff7f0e"/>
     <use xlink:href="#m097cd96dfc" x="544.2944" y="167.740743" style="fill: #ff7f0e; stroke: #ff7f0e"/>
     <use xlink:href="#m097cd96dfc" x="570.059804" y="250.586132" style="fill: #ff7f0e; stroke: #ff7f0e"/>
     <use xlink:href="#m097cd96dfc" x="582.942506" y="155.406309" style="fill: #ff7f0e; stroke: #ff7f0e"/>
     <use xlink:href="#m097cd96dfc" x="595.825208" y="155.899553" style="fill: #ff7f0e; stroke: #ff7f0e"/>
     <use xlink:href="#m097cd96dfc" x="608.70791" y="304.189228" style="fill: #ff7f0e; stroke: #ff7f0e"/>
     <use xlink:href="#m097cd96dfc" x="621.590612" y="320.388043" style="fill: #ff7f0e; stroke: #ff7f0e"/>
     <use xlink:href="#m097cd96dfc" x="647.356016" y="153.71347" style="fill: #ff7f0e; stroke: #ff7f0e"/>
     <use xlink:href="#m097cd96dfc" x="660.238718" y="243.924249" style="fill: #ff7f0e; stroke: #ff7f0e"/>
     <use xlink:href="#m097cd96dfc" x="673.12142" y="294.062712" style="fill: #ff7f0e; stroke: #ff7f0e"/>
    </g>
   </g>
   <g id="line2d_19">
    <path d="M 93.39983 309.99342 
L 106.282532 46.813736 
L 119.165234 296.469989 
L 132.047936 303.317241 
L 144.930638 141.040669 
L 157.81334 305.135002 
L 170.696042 226.521224 
L 183.578744 232.205566 
L 196.461446 223.641223 
L 209.344148 303.255982 
L 222.22685 305.186371 
L 235.109552 305.00103 
L 247.992254 229.395298 
L 260.874956 302.467522 
L 273.757658 304.609325 
L 286.64036 227.085921 
L 312.405764 231.385219 
L 325.288466 303.313432 
L 338.171168 222.542209 
L 351.05387 226.229042 
L 363.936572 303.757474 
L 376.819274 300.074694 
L 389.701976 303.929633 
L 402.584678 176.224602 
L 415.46738 304.23484 
L 428.350082 224.920509 
L 454.115486 227.836393 
L 466.998188 226.304308 
L 479.88089 306.221374 
L 492.763592 303.332558 
L 505.646294 197.821714 
L 518.528996 228.456935 
L 531.411698 268.843978 
L 544.2944 228.045366 
L 570.059804 137.099204 
L 582.942506 230.341019 
L 595.825208 303.42709 
L 608.70791 238.544443 
L 621.590612 303.643394 
L 647.356016 228.793602 
L 660.238718 297.816123 
L 673.12142 284.529267 
" clip-path="url(#p52dbf9906e)" style="fill: none; stroke: #2ca02c; stroke-width: 2; stroke-linecap: square"/>
    <defs>
     <path id="mb929ada028" d="M 0 3 
C 0.795609 3 1.55874 2.683901 2.12132 2.12132 
C 2.683901 1.55874 3 0.795609 3 0 
C 3 -0.795609 2.683901 -1.55874 2.12132 -2.12132 
C 1.55874 -2.683901 0.795609 -3 0 -3 
C -0.795609 -3 -1.55874 -2.683901 -2.12132 -2.12132 
C -2.683901 -1.55874 -3 -0.795609 -3 0 
C -3 0.795609 -2.683901 1.55874 -2.12132 2.12132 
C -1.55874 2.683901 -0.795609 3 0 3 
z
" style="stroke: #2ca02c"/>
    </defs>
    <g clip-path="url(#p52dbf9906e)">
     <use xlink:href="#mb929ada028" x="93.39983" y="309.99342" style="fill: #2ca02c; stroke: #2ca02c"/>
     <use xlink:href="#mb929ada028" x="106.282532" y="46.813736" style="fill: #2ca02c; stroke: #2ca02c"/>
     <use xlink:href="#mb929ada028" x="119.165234" y="296.469989" style="fill: #2ca02c; stroke: #2ca02c"/>
     <use xlink:href="#mb929ada028" x="132.047936" y="303.317241" style="fill: #2ca02c; stroke: #2ca02c"/>
     <use xlink:href="#mb929ada028" x="144.930638" y="141.040669" style="fill: #2ca02c; stroke: #2ca02c"/>
     <use xlink:href="#mb929ada028" x="157.81334" y="305.135002" style="fill: #2ca02c; stroke: #2ca02c"/>
     <use xlink:href="#mb929ada028" x="170.696042" y="226.521224" style="fill: #2ca02c; stroke: #2ca02c"/>
     <use xlink:href="#mb929ada028" x="183.578744" y="232.205566" style="fill: #2ca02c; stroke: #2ca02c"/>
     <use xlink:href="#mb929ada028" x="196.461446" y="223.641223" style="fill: #2ca02c; stroke: #2ca02c"/>
     <use xlink:href="#mb929ada028" x="209.344148" y="303.255982" style="fill: #2ca02c; stroke: #2ca02c"/>
     <use xlink:href="#mb929ada028" x="222.22685" y="305.186371" style="fill: #2ca02c; stroke: #2ca02c"/>
     <use xlink:href="#mb929ada028" x="235.109552" y="305.00103" style="fill: #2ca02c; stroke: #2ca02c"/>
     <use xlink:href="#mb929ada028" x="247.992254" y="229.395298" style="fill: #2ca02c; stroke: #2ca02c"/>
     <use xlink:href="#mb929ada028" x="260.874956" y="302.467522" style="fill: #2ca02c; stroke: #2ca02c"/>
     <use xlink:href="#mb929ada028" x="273.757658" y="304.609325" style="fill: #2ca02c; stroke: #2ca02c"/>
     <use xlink:href="#mb929ada028" x="286.64036" y="227.085921" style="fill: #2ca02c; stroke: #2ca02c"/>
     <use xlink:href="#mb929ada028" x="312.405764" y="231.385219" style="fill: #2ca02c; stroke: #2ca02c"/>
     <use xlink:href="#mb929ada028" x="325.288466" y="303.313432" style="fill: #2ca02c; stroke: #2ca02c"/>
     <use xlink:href="#mb929ada028" x="338.171168" y="222.542209" style="fill: #2ca02c; stroke: #2ca02c"/>
     <use xlink:href="#mb929ada028" x="351.05387" y="226.229042" style="fill: #2ca02c; stroke: #2ca02c"/>
     <use xlink:href="#mb929ada028" x="363.936572" y="303.757474" style="fill: #2ca02c; stroke: #2ca02c"/>
     <use xlink:href="#mb929ada028" x="376.819274" y="300.074694" style="fill: #2ca02c; stroke: #2ca02c"/>
     <use xlink:href="#mb929ada028" x="389.701976" y="303.929633" style="fill: #2ca02c; stroke: #2ca02c"/>
     <use xlink:href="#mb929ada028" x="402.584678" y="176.224602" style="fill: #2ca02c; stroke: #2ca02c"/>
     <use xlink:href="#mb929ada028" x="415.46738" y="304.23484" style="fill: #2ca02c; stroke: #2ca02c"/>
     <use xlink:href="#mb929ada028" x="428.350082" y="224.920509" style="fill: #2ca02c; stroke: #2ca02c"/>
     <use xlink:href="#mb929ada028" x="454.115486" y="227.836393" style="fill: #2ca02c; stroke: #2ca02c"/>
     <use xlink:href="#mb929ada028" x="466.998188" y="226.304308" style="fill: #2ca02c; stroke: #2ca02c"/>
     <use xlink:href="#mb929ada028" x="479.88089" y="306.221374" style="fill: #2ca02c; stroke: #2ca02c"/>
     <use xlink:href="#mb929ada028" x="492.763592" y="303.332558" style="fill: #2ca02c; stroke: #2ca02c"/>
     <use xlink:href="#mb929ada028" x="505.646294" y="197.821714" style="fill: #2ca02c; stroke: #2ca02c"/>
     <use xlink:href="#mb929ada028" x="518.528996" y="228.456935" style="fill: #2ca02c; stroke: #2ca02c"/>
     <use xlink:href="#mb929ada028" x="531.411698" y="268.843978" style="fill: #2ca02c; stroke: #2ca02c"/>
     <use xlink:href="#mb929ada028" x="544.2944" y="228.045366" style="fill: #2ca02c; stroke: #2ca02c"/>
     <use xlink:href="#mb929ada028" x="570.059804" y="137.099204" style="fill: #2ca02c; stroke: #2ca02c"/>
     <use xlink:href="#mb929ada028" x="582.942506" y="230.341019" style="fill: #2ca02c; stroke: #2ca02c"/>
     <use xlink:href="#mb929ada028" x="595.825208" y="303.42709" style="fill: #2ca02c; stroke: #2ca02c"/>
     <use xlink:href="#mb929ada028" x="608.70791" y="238.544443" style="fill: #2ca02c; stroke: #2ca02c"/>
     <use xlink:href="#mb929ada028" x="621.590612" y="303.643394" style="fill: #2ca02c; stroke: #2ca02c"/>
     <use xlink:href="#mb929ada028" x="647.356016" y="228.793602" style="fill: #2ca02c; stroke: #2ca02c"/>
     <use xlink:href="#mb929ada028" x="660.238718" y="297.816123" style="fill: #2ca02c; stroke: #2ca02c"/>
     <use xlink:href="#mb929ada028" x="673.12142" y="284.529267" style="fill: #2ca02c; stroke: #2ca02c"/>
    </g>
   </g>
   <g id="line2d_20">
    <path d="M 93.39983 504.215036 
L 106.282532 503.765069 
L 119.165234 504.492944 
L 132.047936 252.207841 
L 144.930638 366.478985 
L 157.81334 245.37849 
L 170.696042 504.920487 
L 183.578744 312.965396 
L 196.461446 240.358593 
L 209.344148 500.138822 
L 222.22685 506.092444 
L 235.109552 504.233335 
L 247.992254 167.327267 
L 273.757658 455.785735 
L 286.64036 506.332202 
L 312.405764 504.986515 
L 325.288466 505.933065 
L 338.171168 409.738681 
L 351.05387 504.225572 
L 363.936572 504.033763 
L 389.701976 504.859379 
L 402.584678 504.7011 
L 415.46738 506.201151 
L 428.350082 503.941775 
L 454.115486 504.616713 
L 466.998188 241.70091 
L 479.88089 503.96006 
L 492.763592 501.387882 
L 505.646294 267.78976 
L 518.528996 505.900195 
L 531.411698 504.140742 
L 544.2944 504.183431 
L 570.059804 363.91169 
L 582.942506 505.978754 
L 595.825208 359.25749 
L 621.590612 504.785507 
L 660.238718 504.764403 
L 673.12142 246.044227 
" clip-path="url(#p52dbf9906e)" style="fill: none; stroke: #d62728; stroke-width: 2; stroke-linecap: square"/>
    <defs>
     <path id="me51baffcd3" d="M 0 3 
C 0.795609 3 1.55874 2.683901 2.12132 2.12132 
C 2.683901 1.55874 3 0.795609 3 0 
C 3 -0.795609 2.683901 -1.55874 2.12132 -2.12132 
C 1.55874 -2.683901 0.795609 -3 0 -3 
C -0.795609 -3 -1.55874 -2.683901 -2.12132 -2.12132 
C -2.683901 -1.55874 -3 -0.795609 -3 0 
C -3 0.795609 -2.683901 1.55874 -2.12132 2.12132 
C -1.55874 2.683901 -0.795609 3 0 3 
z
" style="stroke: #d62728"/>
    </defs>
    <g clip-path="url(#p52dbf9906e)">
     <use xlink:href="#me51baffcd3" x="93.39983" y="504.215036" style="fill: #d62728; stroke: #d62728"/>
     <use xlink:href="#me51baffcd3" x="106.282532" y="503.765069" style="fill: #d62728; stroke: #d62728"/>
     <use xlink:href="#me51baffcd3" x="119.165234" y="504.492944" style="fill: #d62728; stroke: #d62728"/>
     <use xlink:href="#me51baffcd3" x="132.047936" y="252.207841" style="fill: #d62728; stroke: #d62728"/>
     <use xlink:href="#me51baffcd3" x="144.930638" y="366.478985" style="fill: #d62728; stroke: #d62728"/>
     <use xlink:href="#me51baffcd3" x="157.81334" y="245.37849" style="fill: #d62728; stroke: #d62728"/>
     <use xlink:href="#me51baffcd3" x="170.696042" y="504.920487" style="fill: #d62728; stroke: #d62728"/>
     <use xlink:href="#me51baffcd3" x="183.578744" y="312.965396" style="fill: #d62728; stroke: #d62728"/>
     <use xlink:href="#me51baffcd3" x="196.461446" y="240.358593" style="fill: #d62728; stroke: #d62728"/>
     <use xlink:href="#me51baffcd3" x="209.344148" y="500.138822" style="fill: #d62728; stroke: #d62728"/>
     <use xlink:href="#me51baffcd3" x="222.22685" y="506.092444" style="fill: #d62728; stroke: #d62728"/>
     <use xlink:href="#me51baffcd3" x="235.109552" y="504.233335" style="fill: #d62728; stroke: #d62728"/>
     <use xlink:href="#me51baffcd3" x="247.992254" y="167.327267" style="fill: #d62728; stroke: #d62728"/>
     <use xlink:href="#me51baffcd3" x="273.757658" y="455.785735" style="fill: #d62728; stroke: #d62728"/>
     <use xlink:href="#me51baffcd3" x="286.64036" y="506.332202" style="fill: #d62728; stroke: #d62728"/>
     <use xlink:href="#me51baffcd3" x="312.405764" y="504.986515" style="fill: #d62728; stroke: #d62728"/>
     <use xlink:href="#me51baffcd3" x="325.288466" y="505.933065" style="fill: #d62728; stroke: #d62728"/>
     <use xlink:href="#me51baffcd3" x="338.171168" y="409.738681" style="fill: #d62728; stroke: #d62728"/>
     <use xlink:href="#me51baffcd3" x="351.05387" y="504.225572" style="fill: #d62728; stroke: #d62728"/>
     <use xlink:href="#me51baffcd3" x="363.936572" y="504.033763" style="fill: #d62728; stroke: #d62728"/>
     <use xlink:href="#me51baffcd3" x="389.701976" y="504.859379" style="fill: #d62728; stroke: #d62728"/>
     <use xlink:href="#me51baffcd3" x="402.584678" y="504.7011" style="fill: #d62728; stroke: #d62728"/>
     <use xlink:href="#me51baffcd3" x="415.46738" y="506.201151" style="fill: #d62728; stroke: #d62728"/>
     <use xlink:href="#me51baffcd3" x="428.350082" y="503.941775" style="fill: #d62728; stroke: #d62728"/>
     <use xlink:href="#me51baffcd3" x="454.115486" y="504.616713" style="fill: #d62728; stroke: #d62728"/>
     <use xlink:href="#me51baffcd3" x="466.998188" y="241.70091" style="fill: #d62728; stroke: #d62728"/>
     <use xlink:href="#me51baffcd3" x="479.88089" y="503.96006" style="fill: #d62728; stroke: #d62728"/>
     <use xlink:href="#me51baffcd3" x="492.763592" y="501.387882" style="fill: #d62728; stroke: #d62728"/>
     <use xlink:href="#me51baffcd3" x="505.646294" y="267.78976" style="fill: #d62728; stroke: #d62728"/>
     <use xlink:href="#me51baffcd3" x="518.528996" y="505.900195" style="fill: #d62728; stroke: #d62728"/>
     <use xlink:href="#me51baffcd3" x="531.411698" y="504.140742" style="fill: #d62728; stroke: #d62728"/>
     <use xlink:href="#me51baffcd3" x="544.2944" y="504.183431" style="fill: #d62728; stroke: #d62728"/>
     <use xlink:href="#me51baffcd3" x="570.059804" y="363.91169" style="fill: #d62728; stroke: #d62728"/>
     <use xlink:href="#me51baffcd3" x="582.942506" y="505.978754" style="fill: #d62728; stroke: #d62728"/>
     <use xlink:href="#me51baffcd3" x="595.825208" y="359.25749" style="fill: #d62728; stroke: #d62728"/>
     <use xlink:href="#me51baffcd3" x="621.590612" y="504.785507" style="fill: #d62728; stroke: #d62728"/>
     <use xlink:href="#me51baffcd3" x="660.238718" y="504.764403" style="fill: #d62728; stroke: #d62728"/>
     <use xlink:href="#me51baffcd3" x="673.12142" y="246.044227" style="fill: #d62728; stroke: #d62728"/>
    </g>
   </g>
   <g id="line2d_21">
    <path d="M 93.39983 461.991572 
L 106.282532 407.665623 
L 119.165234 466.93619 
L 132.047936 461.299004 
L 144.930638 368.886445 
L 157.81334 373.015229 
L 170.696042 456.013145 
L 183.578744 284.685676 
L 196.461446 450.498519 
L 209.344148 465.767156 
L 222.22685 459.143063 
L 235.109552 464.044495 
L 247.992254 338.076165 
L 273.757658 450.521448 
L 286.64036 463.665276 
L 312.405764 461.00366 
L 325.288466 461.407165 
L 338.171168 283.638824 
L 351.05387 459.289384 
L 363.936572 464.347663 
L 389.701976 455.468861 
L 402.584678 460.052294 
L 415.46738 478.539969 
L 428.350082 481.961441 
L 454.115486 482.146018 
L 466.998188 368.161718 
L 479.88089 482.726435 
L 492.763592 468.808441 
L 505.646294 479.226324 
L 518.528996 481.495727 
L 531.411698 485.413097 
L 544.2944 481.207952 
L 570.059804 335.347102 
L 582.942506 482.520154 
L 595.825208 366.623896 
L 621.590612 482.63973 
L 660.238718 485.382047 
L 673.12142 473.419469 
" clip-path="url(#p52dbf9906e)" style="fill: none; stroke: #9467bd; stroke-width: 2; stroke-linecap: square"/>
    <defs>
     <path id="m05e076d36c" d="M 0 3 
C 0.795609 3 1.55874 2.683901 2.12132 2.12132 
C 2.683901 1.55874 3 0.795609 3 0 
C 3 -0.795609 2.683901 -1.55874 2.12132 -2.12132 
C 1.55874 -2.683901 0.795609 -3 0 -3 
C -0.795609 -3 -1.55874 -2.683901 -2.12132 -2.12132 
C -2.683901 -1.55874 -3 -0.795609 -3 0 
C -3 0.795609 -2.683901 1.55874 -2.12132 2.12132 
C -1.55874 2.683901 -0.795609 3 0 3 
z
" style="stroke: #9467bd"/>
    </defs>
    <g clip-path="url(#p52dbf9906e)">
     <use xlink:href="#m05e076d36c" x="93.39983" y="461.991572" style="fill: #9467bd; stroke: #9467bd"/>
     <use xlink:href="#m05e076d36c" x="106.282532" y="407.665623" style="fill: #9467bd; stroke: #9467bd"/>
     <use xlink:href="#m05e076d36c" x="119.165234" y="466.93619" style="fill: #9467bd; stroke: #9467bd"/>
     <use xlink:href="#m05e076d36c" x="132.047936" y="461.299004" style="fill: #9467bd; stroke: #9467bd"/>
     <use xlink:href="#m05e076d36c" x="144.930638" y="368.886445" style="fill: #9467bd; stroke: #9467bd"/>
     <use xlink:href="#m05e076d36c" x="157.81334" y="373.015229" style="fill: #9467bd; stroke: #9467bd"/>
     <use xlink:href="#m05e076d36c" x="170.696042" y="456.013145" style="fill: #9467bd; stroke: #9467bd"/>
     <use xlink:href="#m05e076d36c" x="183.578744" y="284.685676" style="fill: #9467bd; stroke: #9467bd"/>
     <use xlink:href="#m05e076d36c" x="196.461446" y="450.498519" style="fill: #9467bd; stroke: #9467bd"/>
     <use xlink:href="#m05e076d36c" x="209.344148" y="465.767156" style="fill: #9467bd; stroke: #9467bd"/>
     <use xlink:href="#m05e076d36c" x="222.22685" y="459.143063" style="fill: #9467bd; stroke: #9467bd"/>
     <use xlink:href="#m05e076d36c" x="235.109552" y="464.044495" style="fill: #9467bd; stroke: #9467bd"/>
     <use xlink:href="#m05e076d36c" x="247.992254" y="338.076165" style="fill: #9467bd; stroke: #9467bd"/>
     <use xlink:href="#m05e076d36c" x="273.757658" y="450.521448" style="fill: #9467bd; stroke: #9467bd"/>
     <use xlink:href="#m05e076d36c" x="286.64036" y="463.665276" style="fill: #9467bd; stroke: #9467bd"/>
     <use xlink:href="#m05e076d36c" x="312.405764" y="461.00366" style="fill: #9467bd; stroke: #9467bd"/>
     <use xlink:href="#m05e076d36c" x="325.288466" y="461.407165" style="fill: #9467bd; stroke: #9467bd"/>
     <use xlink:href="#m05e076d36c" x="338.171168" y="283.638824" style="fill: #9467bd; stroke: #9467bd"/>
     <use xlink:href="#m05e076d36c" x="351.05387" y="459.289384" style="fill: #9467bd; stroke: #9467bd"/>
     <use xlink:href="#m05e076d36c" x="363.936572" y="464.347663" style="fill: #9467bd; stroke: #9467bd"/>
     <use xlink:href="#m05e076d36c" x="389.701976" y="455.468861" style="fill: #9467bd; stroke: #9467bd"/>
     <use xlink:href="#m05e076d36c" x="402.584678" y="460.052294" style="fill: #9467bd; stroke: #9467bd"/>
     <use xlink:href="#m05e076d36c" x="415.46738" y="478.539969" style="fill: #9467bd; stroke: #9467bd"/>
     <use xlink:href="#m05e076d36c" x="428.350082" y="481.961441" style="fill: #9467bd; stroke: #9467bd"/>
     <use xlink:href="#m05e076d36c" x="454.115486" y="482.146018" style="fill: #9467bd; stroke: #9467bd"/>
     <use xlink:href="#m05e076d36c" x="466.998188" y="368.161718" style="fill: #9467bd; stroke: #9467bd"/>
     <use xlink:href="#m05e076d36c" x="479.88089" y="482.726435" style="fill: #9467bd; stroke: #9467bd"/>
     <use xlink:href="#m05e076d36c" x="492.763592" y="468.808441" style="fill: #9467bd; stroke: #9467bd"/>
     <use xlink:href="#m05e076d36c" x="505.646294" y="479.226324" style="fill: #9467bd; stroke: #9467bd"/>
     <use xlink:href="#m05e076d36c" x="518.528996" y="481.495727" style="fill: #9467bd; stroke: #9467bd"/>
     <use xlink:href="#m05e076d36c" x="531.411698" y="485.413097" style="fill: #9467bd; stroke: #9467bd"/>
     <use xlink:href="#m05e076d36c" x="544.2944" y="481.207952" style="fill: #9467bd; stroke: #9467bd"/>
     <use xlink:href="#m05e076d36c" x="570.059804" y="335.347102" style="fill: #9467bd; stroke: #9467bd"/>
     <use xlink:href="#m05e076d36c" x="582.942506" y="482.520154" style="fill: #9467bd; stroke: #9467bd"/>
     <use xlink:href="#m05e076d36c" x="595.825208" y="366.623896" style="fill: #9467bd; stroke: #9467bd"/>
     <use xlink:href="#m05e076d36c" x="621.590612" y="482.63973" style="fill: #9467bd; stroke: #9467bd"/>
     <use xlink:href="#m05e076d36c" x="660.238718" y="485.382047" style="fill: #9467bd; stroke: #9467bd"/>
     <use xlink:href="#m05e076d36c" x="673.12142" y="473.419469" style="fill: #9467bd; stroke: #9467bd"/>
    </g>
   </g>
   <g id="line2d_22">
    <path d="M 93.39983 428.48458 
L 106.282532 428.116305 
L 119.165234 429.675965 
L 132.047936 431.775747 
L 144.930638 353.222497 
L 157.81334 353.025662 
L 170.696042 431.423573 
L 183.578744 351.697648 
L 196.461446 429.564176 
L 209.344148 429.749008 
L 222.22685 431.810666 
L 235.109552 432.730205 
L 247.992254 351.888674 
L 273.757658 429.943929 
L 286.64036 431.740832 
L 312.405764 430.935437 
L 325.288466 432.640191 
L 338.171168 350.717243 
L 351.05387 430.037264 
L 363.936572 430.563849 
L 389.701976 432.946695 
L 402.584678 430.600459 
L 415.46738 432.090942 
L 428.350082 432.441149 
L 454.115486 431.029655 
L 466.998188 353.069029 
L 479.88089 430.34156 
L 492.763592 430.765022 
L 505.646294 431.597124 
L 518.528996 432.161403 
L 531.411698 429.132219 
L 544.2944 430.818385 
L 570.059804 349.357295 
L 582.942506 433.332136 
L 595.825208 423.09256 
L 621.590612 432.485219 
L 660.238718 431.241503 
L 673.12142 351.39171 
" clip-path="url(#p52dbf9906e)" style="fill: none; stroke: #8c564b; stroke-width: 2; stroke-linecap: square"/>
    <defs>
     <path id="m65b062e7dd" d="M 0 3 
C 0.795609 3 1.55874 2.683901 2.12132 2.12132 
C 2.683901 1.55874 3 0.795609 3 0 
C 3 -0.795609 2.683901 -1.55874 2.12132 -2.12132 
C 1.55874 -2.683901 0.795609 -3 0 -3 
C -0.795609 -3 -1.55874 -2.683901 -2.12132 -2.12132 
C -2.683901 -1.55874 -3 -0.795609 -3 0 
C -3 0.795609 -2.683901 1.55874 -2.12132 2.12132 
C -1.55874 2.683901 -0.795609 3 0 3 
z
" style="stroke: #8c564b"/>
    </defs>
    <g clip-path="url(#p52dbf9906e)">
     <use xlink:href="#m65b062e7dd" x="93.39983" y="428.48458" style="fill: #8c564b; stroke: #8c564b"/>
     <use xlink:href="#m65b062e7dd" x="106.282532" y="428.116305" style="fill: #8c564b; stroke: #8c564b"/>
     <use xlink:href="#m65b062e7dd" x="119.165234" y="429.675965" style="fill: #8c564b; stroke: #8c564b"/>
     <use xlink:href="#m65b062e7dd" x="132.047936" y="431.775747" style="fill: #8c564b; stroke: #8c564b"/>
     <use xlink:href="#m65b062e7dd" x="144.930638" y="353.222497" style="fill: #8c564b; stroke: #8c564b"/>
     <use xlink:href="#m65b062e7dd" x="157.81334" y="353.025662" style="fill: #8c564b; stroke: #8c564b"/>
     <use xlink:href="#m65b062e7dd" x="170.696042" y="431.423573" style="fill: #8c564b; stroke: #8c564b"/>
     <use xlink:href="#m65b062e7dd" x="183.578744" y="351.697648" style="fill: #8c564b; stroke: #8c564b"/>
     <use xlink:href="#m65b062e7dd" x="196.461446" y="429.564176" style="fill: #8c564b; stroke: #8c564b"/>
     <use xlink:href="#m65b062e7dd" x="209.344148" y="429.749008" style="fill: #8c564b; stroke: #8c564b"/>
     <use xlink:href="#m65b062e7dd" x="222.22685" y="431.810666" style="fill: #8c564b; stroke: #8c564b"/>
     <use xlink:href="#m65b062e7dd" x="235.109552" y="432.730205" style="fill: #8c564b; stroke: #8c564b"/>
     <use xlink:href="#m65b062e7dd" x="247.992254" y="351.888674" style="fill: #8c564b; stroke: #8c564b"/>
     <use xlink:href="#m65b062e7dd" x="273.757658" y="429.943929" style="fill: #8c564b; stroke: #8c564b"/>
     <use xlink:href="#m65b062e7dd" x="286.64036" y="431.740832" style="fill: #8c564b; stroke: #8c564b"/>
     <use xlink:href="#m65b062e7dd" x="312.405764" y="430.935437" style="fill: #8c564b; stroke: #8c564b"/>
     <use xlink:href="#m65b062e7dd" x="325.288466" y="432.640191" style="fill: #8c564b; stroke: #8c564b"/>
     <use xlink:href="#m65b062e7dd" x="338.171168" y="350.717243" style="fill: #8c564b; stroke: #8c564b"/>
     <use xlink:href="#m65b062e7dd" x="351.05387" y="430.037264" style="fill: #8c564b; stroke: #8c564b"/>
     <use xlink:href="#m65b062e7dd" x="363.936572" y="430.563849" style="fill: #8c564b; stroke: #8c564b"/>
     <use xlink:href="#m65b062e7dd" x="389.701976" y="432.946695" style="fill: #8c564b; stroke: #8c564b"/>
     <use xlink:href="#m65b062e7dd" x="402.584678" y="430.600459" style="fill: #8c564b; stroke: #8c564b"/>
     <use xlink:href="#m65b062e7dd" x="415.46738" y="432.090942" style="fill: #8c564b; stroke: #8c564b"/>
     <use xlink:href="#m65b062e7dd" x="428.350082" y="432.441149" style="fill: #8c564b; stroke: #8c564b"/>
     <use xlink:href="#m65b062e7dd" x="454.115486" y="431.029655" style="fill: #8c564b; stroke: #8c564b"/>
     <use xlink:href="#m65b062e7dd" x="466.998188" y="353.069029" style="fill: #8c564b; stroke: #8c564b"/>
     <use xlink:href="#m65b062e7dd" x="479.88089" y="430.34156" style="fill: #8c564b; stroke: #8c564b"/>
     <use xlink:href="#m65b062e7dd" x="492.763592" y="430.765022" style="fill: #8c564b; stroke: #8c564b"/>
     <use xlink:href="#m65b062e7dd" x="505.646294" y="431.597124" style="fill: #8c564b; stroke: #8c564b"/>
     <use xlink:href="#m65b062e7dd" x="518.528996" y="432.161403" style="fill: #8c564b; stroke: #8c564b"/>
     <use xlink:href="#m65b062e7dd" x="531.411698" y="429.132219" style="fill: #8c564b; stroke: #8c564b"/>
     <use xlink:href="#m65b062e7dd" x="544.2944" y="430.818385" style="fill: #8c564b; stroke: #8c564b"/>
     <use xlink:href="#m65b062e7dd" x="570.059804" y="349.357295" style="fill: #8c564b; stroke: #8c564b"/>
     <use xlink:href="#m65b062e7dd" x="582.942506" y="433.332136" style="fill: #8c564b; stroke: #8c564b"/>
     <use xlink:href="#m65b062e7dd" x="595.825208" y="423.09256" style="fill: #8c564b; stroke: #8c564b"/>
     <use xlink:href="#m65b062e7dd" x="621.590612" y="432.485219" style="fill: #8c564b; stroke: #8c564b"/>
     <use xlink:href="#m65b062e7dd" x="660.238718" y="431.241503" style="fill: #8c564b; stroke: #8c564b"/>
     <use xlink:href="#m65b062e7dd" x="673.12142" y="351.39171" style="fill: #8c564b; stroke: #8c564b"/>
    </g>
   </g>
   <g id="patch_3">
    <path d="M 64.41375 529.308125 
L 64.41375 23.837812 
" style="fill: none; stroke: #000000; stroke-width: 0.8; stroke-linejoin: miter; stroke-linecap: square"/>
   </g>
   <g id="patch_4">
    <path d="M 702.1075 529.308125 
L 702.1075 23.837812 
" style="fill: none; stroke: #000000; stroke-width: 0.8; stroke-linejoin: miter; stroke-linecap: square"/>
   </g>
   <g id="patch_5">
    <path d="M 64.41375 529.308125 
L 702.1075 529.308125 
" style="fill: none; stroke: #000000; stroke-width: 0.8; stroke-linejoin: miter; stroke-linecap: square"/>
   </g>
   <g id="patch_6">
    <path d="M 64.41375 23.837812 
L 702.1075 23.837812 
" style="fill: none; stroke: #000000; stroke-width: 0.8; stroke-linejoin: miter; stroke-linecap: square"/>
   </g>
   <g id="text_10">
    <text style="font: 700 14px 'DejaVu Sans', 'Bitstream Vera Sans', 'Computer Modern Sans Serif', 'Lucida Grande', 'Verdana', 'Geneva', 'Lucid', 'Arial', 'Helvetica', 'Avant Garde', sans-serif; text-anchor: middle" x="383.260625" y="17.837813" transform="rotate(-0 383.260625 17.837813)">Matrixops - Performance Trend</text>
   </g>
   <g id="legend_1">
    <g id="patch_7">
     <path d="M 740.992188 119.906563 
L 846.004688 119.906563 
Q 848.004688 119.906563 848.004688 117.906563 
L 848.004688 30.837813 
Q 848.004688 28.837813 846.004688 28.837813 
L 740.992188 28.837813 
Q 738.992188 28.837813 738.992188 30.837813 
L 738.992188 117.906563 
Q 738.992188 119.906563 740.992188 119.906563 
z
" style="fill: #ffffff; opacity: 0.8; stroke: #cccccc; stroke-linejoin: miter"/>
    </g>
    <g id="line2d_23">
     <path d="M 742.992188 36.93625 
L 752.992188 36.93625 
L 762.992188 36.93625 
" style="fill: none; stroke: #1f77b4; stroke-width: 2; stroke-linecap: square"/>
     <g>
      <use xlink:href="#m115f951501" x="752.992188" y="36.93625" style="fill: #1f77b4; stroke: #1f77b4"/>
     </g>
    </g>
    <g id="text_11">
     <text style="font: 10px 'DejaVu Sans', 'Bitstream Vera Sans', 'Computer Modern Sans Serif', 'Lucida Grande', 'Verdana', 'Geneva', 'Lucid', 'Arial', 'Helvetica', 'Avant Garde', sans-serif; text-anchor: start" x="770.992188" y="40.43625" transform="rotate(-0 770.992188 40.43625)">gcc-14.2 - V1</text>
    </g>
    <g id="line2d_24">
     <path d="M 742.992188 51.614375 
L 752.992188 51.614375 
L 762.992188 51.614375 
" style="fill: none; stroke: #ff7f0e; stroke-width: 2; stroke-linecap: square"/>
     <g>
      <use xlink:href="#m097cd96dfc" x="752.992188" y="51.614375" style="fill: #ff7f0e; stroke: #ff7f0e"/>
     </g>
    </g>
    <g id="text_12">
     <text style="font: 10px 'DejaVu Sans', 'Bitstream Vera Sans', 'Computer Modern Sans Serif', 'Lucida Grande', 'Verdana', 'Geneva', 'Lucid', 'Arial', 'Helvetica', 'Avant Garde', sans-serif; text-anchor: start" x="770.992188" y="55.114375" transform="rotate(-0 770.992188 55.114375)">gcc-14.2 - V2</text>
    </g>
    <g id="line2d_25">
     <path d="M 742.992188 66.2925 
L 752.992188 66.2925 
L 762.992188 66.2925 
" style="fill: none; stroke: #2ca02c; stroke-width: 2; stroke-linecap: square"/>
     <g>
      <use xlink:href="#mb929ada028" x="752.992188" y="66.2925" style="fill: #2ca02c; stroke: #2ca02c"/>
     </g>
    </g>
    <g id="text_13">
     <text style="font: 10px 'DejaVu Sans', 'Bitstream Vera Sans', 'Computer Modern Sans Serif', 'Lucida Grande', 'Verdana', 'Geneva', 'Lucid', 'Arial', 'Helvetica', 'Avant Garde', sans-serif; text-anchor: start" x="770.992188" y="69.7925" transform="rotate(-0 770.992188 69.7925)">gcc-14.2 - TBB</text>
    </g>
    <g id="line2d_26">
     <path d="M 742.992188 80.970625 
L 752.992188 80.970625 
L 762.992188 80.970625 
" style="fill: none; stroke: #d62728; stroke-width: 2; stroke-linecap: square"/>
     <g>
      <use xlink:href="#me51baffcd3" x="752.992188" y="80.970625" style="fill: #d62728; stroke: #d62728"/>
     </g>
    </g>
    <g id="text_14">
     <text style="font: 10px 'DejaVu Sans', 'Bitstream Vera Sans', 'Computer Modern Sans Serif', 'Lucida Grande', 'Verdana', 'Geneva', 'Lucid', 'Arial', 'Helvetica', 'Avant Garde', sans-serif; text-anchor: start" x="770.992188" y="84.470625" transform="rotate(-0 770.992188 84.470625)">gcc-4.2 - V1</text>
    </g>
    <g id="line2d_27">
     <path d="M 742.992188 95.64875 
L 752.992188 95.64875 
L 762.992188 95.64875 
" style="fill: none; stroke: #9467bd; stroke-width: 2; stroke-linecap: square"/>
     <g>
      <use xlink:href="#m05e076d36c" x="752.992188" y="95.64875" style="fill: #9467bd; stroke: #9467bd"/>
     </g>
    </g>
    <g id="text_15">
     <text style="font: 10px 'DejaVu Sans', 'Bitstream Vera Sans', 'Computer Modern Sans Serif', 'Lucida Grande', 'Verdana', 'Geneva', 'Lucid', 'Arial', 'Helvetica', 'Avant Garde', sans-serif; text-anchor: start" x="770.992188" y="99.14875" transform="rotate(-0 770.992188 99.14875)">gcc-4.2 - V2</text>
    </g>
    <g id="line2d_28">
     <path d="M 742.992188 110.326875 
L 752.992188 110.326875 
L 762.992188 110.326875 
" style="fill: none; stroke: #8c564b; stroke-width: 2; stroke-linecap: square"/>
     <g>
      <use xlink:href="#m65b062e7dd" x="752.992188" y="110.326875" style="fill: #8c564b; stroke: #8c564b"/>
     </g>
    </g>
    <g id="text_16">
     <text style="font: 10px 'DejaVu Sans', 'Bitstream Vera Sans', 'Computer Modern Sans Serif', 'Lucida Grande', 'Verdana', 'Geneva', 'Lucid', 'Arial', 'Helvetica', 'Avant Garde', sans-serif; text-anchor: start" x="770.992188" y="113.826875" transform="rotate(-0 770.992188 113.826875)">gcc-4.2 - TBB</text>
    </g>
   </g>
  </g>
 </g>
 <defs>
  <clipPath id="p52dbf9906e">
   <rect x="64.41375" y="23.837813" width="637.69375" height="505.470313"/>
  </clipPath>
 </defs>
</svg>
