<?xml version="1.0" encoding="utf-8" standalone="no"?>
<!DOCTYPE svg PUBLIC "-//W3C//DTD SVG 1.1//EN"
  "http://www.w3.org/Graphics/SVG/1.1/DTD/svg11.dtd">
<svg xmlns:xlink="http://www.w3.org/1999/xlink" width="848.869766pt" height="568.8pt" viewBox="0 0 848.869766 568.8" xmlns="http://www.w3.org/2000/svg" version="1.1">
 <metadata>
  <rdf:RDF xmlns:dc="http://purl.org/dc/elements/1.1/" xmlns:cc="http://creativecommons.org/ns#" xmlns:rdf="http://www.w3.org/1999/02/22-rdf-syntax-ns#">
   <cc:Work>
    <dc:type rdf:resource="http://purl.org/dc/dcmitype/StillImage"/>
    <dc:date>2026-06-06T05:47:06.254211</dc:date>
    <dc:format>image/svg+xml</dc:format>
    <dc:creator>
     <cc:Agent>
      <dc:title>Matplotlib v3.9.4, https://matplotlib.org/</dc:title>
     </cc:Agent>
    </dc:creator>
   </cc:Work>
  </rdf:RDF>
 </metadata>
 <defs>
  <style type="text/css">*{stroke-linejoin: round; stroke-linecap: butt}</style>
 </defs>
 <g id="figure_1">
  <g id="patch_1">
   <path d="M 0 568.8 
L 848.869766 568.8 
L 848.869766 0 
L 0 0 
z
" style="fill: #ffffff"/>
  </g>
  <g id="axes_1">
   <g id="patch_2">
    <path d="M 86.71375 529.308125 
L 597.709062 529.308125 
L 597.709062 23.837812 
L 86.71375 23.837812 
z
" style="fill: #ffffff"/>
   </g>
   <g id="matplotlib.axis_1">
    <g id="xtick_1">
     <g id="line2d_1">
      <path d="M 95.423897 529.308125 
L 95.423897 23.837812 
" clip-path="url(#p2fd395d7ac)" style="fill: none; stroke: #b0b0b0; stroke-opacity: 0.3; stroke-width: 0.8; stroke-linecap: square"/>
     </g>
     <g id="line2d_2">
      <defs>
       <path id="m1a33520c58" d="M 0 0 
L 0 3.5 
" style="stroke: #000000; stroke-width: 0.8"/>
      </defs>
      <g>
       <use xlink:href="#m1a33520c58" x="95.423897" y="529.308125" style="stroke: #000000; stroke-width: 0.8"/>
      </g>
     </g>
     <g id="text_1">
      <text style="font: 10px 'DejaVu Sans', 'Bitstream Vera Sans', 'Computer Modern Sans Serif', 'Lucida Grande', 'Verdana', 'Geneva', 'Lucid', 'Arial', 'Helvetica', 'Avant Garde', sans-serif; text-anchor: middle" x="95.423897" y="543.906563" transform="rotate(-0 95.423897 543.906563)">95</text>
     </g>
    </g>
    <g id="xtick_2">
     <g id="line2d_3">
      <path d="M 168.008459 529.308125 
L 168.008459 23.837812 
" clip-path="url(#p2fd395d7ac)" style="fill: none; stroke: #b0b0b0; stroke-opacity: 0.3; stroke-width: 0.8; stroke-linecap: square"/>
     </g>
     <g id="line2d_4">
      <g>
       <use xlink:href="#m1a33520c58" x="168.008459" y="529.308125" style="stroke: #000000; stroke-width: 0.8"/>
      </g>
     </g>
     <g id="text_2">
      <text style="font: 10px 'DejaVu Sans', 'Bitstream Vera Sans', 'Computer Modern Sans Serif', 'Lucida Grande', 'Verdana', 'Geneva', 'Lucid', 'Arial', 'Helvetica', 'Avant Garde', sans-serif; text-anchor: middle" x="168.008459" y="543.906563" transform="rotate(-0 168.008459 543.906563)">100</text>
     </g>
    </g>
    <g id="xtick_3">
     <g id="line2d_5">
      <path d="M 240.59302 529.308125 
L 240.59302 23.837812 
" clip-path="url(#p2fd395d7ac)" style="fill: none; stroke: #b0b0b0; stroke-opacity: 0.3; stroke-width: 0.8; stroke-linecap: square"/>
     </g>
     <g id="line2d_6">
      <g>
       <use xlink:href="#m1a33520c58" x="240.59302" y="529.308125" style="stroke: #000000; stroke-width: 0.8"/>
      </g>
     </g>
     <g id="text_3">
      <text style="font: 10px 'DejaVu Sans', 'Bitstream Vera Sans', 'Computer Modern Sans Serif', 'Lucida Grande', 'Verdana', 'Geneva', 'Lucid', 'Arial', 'Helvetica', 'Avant Garde', sans-serif; text-anchor: middle" x="240.59302" y="543.906563" transform="rotate(-0 240.59302 543.906563)">105</text>
     </g>
    </g>
    <g id="xtick_4">
     <g id="line2d_7">
      <path d="M 313.177582 529.308125 
L 313.177582 23.837812 
" clip-path="url(#p2fd395d7ac)" style="fill: none; stroke: #b0b0b0; stroke-opacity: 0.3; stroke-width: 0.8; stroke-linecap: square"/>
     </g>
     <g id="line2d_8">
      <g>
       <use xlink:href="#m1a33520c58" x="313.177582" y="529.308125" style="stroke: #000000; stroke-width: 0.8"/>
      </g>
     </g>
     <g id="text_4">
      <text style="font: 10px 'DejaVu Sans', 'Bitstream Vera Sans', 'Computer Modern Sans Serif', 'Lucida Grande', 'Verdana', 'Geneva', 'Lucid', 'Arial', 'Helvetica', 'Avant Garde', sans-serif; text-anchor: middle" x="313.177582" y="543.906563" transform="rotate(-0 313.177582 543.906563)">110</text>
     </g>
    </g>
    <g id="xtick_5">
     <g id="line2d_9">
      <path d="M 385.762143 529.308125 
L 385.762143 23.837812 
" clip-path="url(#p2fd395d7ac)" style="fill: none; stroke: #b0b0b0; stroke-opacity: 0.3; stroke-width: 0.8; stroke-linecap: square"/>
     </g>
     <g id="line2d_10">
      <g>
       <use xlink:href="#m1a33520c58" x="385.762143" y="529.308125" style="stroke: #000000; stroke-width: 0.8"/>
      </g>
     </g>
     <g id="text_5">
      <text style="font: 10px 'DejaVu Sans', 'Bitstream Vera Sans', 'Computer Modern Sans Serif', 'Lucida Grande', 'Verdana', 'Geneva', 'Lucid', 'Arial', 'Helvetica', 'Avant Garde', sans-serif; text-anchor: middle" x="385.762143" y="543.906563" transform="rotate(-0 385.762143 543.906563)">115</text>
     </g>
    </g>
    <g id="xtick_6">
     <g id="line2d_11">
      <path d="M 458.346705 529.308125 
L 458.346705 23.837812 
" clip-path="url(#p2fd395d7ac)" style="fill: none; stroke: #b0b0b0; stroke-opacity: 0.3; stroke-width: 0.8; stroke-linecap: square"/>
     </g>
     <g id="line2d_12">
      <g>
       <use xlink:href="#m1a33520c58" x="458.346705" y="529.308125" style="stroke: #000000; stroke-width: 0.8"/>
      </g>
     </g>
     <g id="text_6">
      <text style="font: 10px 'DejaVu Sans', 'Bitstream Vera Sans', 'Computer Modern Sans Serif', 'Lucida Grande', 'Verdana', 'Geneva', 'Lucid', 'Arial', 'Helvetica', 'Avant Garde', sans-serif; text-anchor: middle" x="458.346705" y="543.906563" transform="rotate(-0 458.346705 543.906563)">120</text>
     </g>
    </g>
    <g id="xtick_7">
     <g id="line2d_13">
      <path d="M 530.931266 529.308125 
L 530.931266 23.837812 
" clip-path="url(#p2fd395d7ac)" style="fill: none; stroke: #b0b0b0; stroke-opacity: 0.3; stroke-width: 0.8; stroke-linecap: square"/>
     </g>
     <g id="line2d_14">
      <g>
       <use xlink:href="#m1a33520c58" x="530.931266" y="529.308125" style="stroke: #000000; stroke-width: 0.8"/>
      </g>
     </g>
     <g id="text_7">
      <text style="font: 10px 'DejaVu Sans', 'Bitstream Vera Sans', 'Computer Modern Sans Serif', 'Lucida Grande', 'Verdana', 'Geneva', 'Lucid', 'Arial', 'Helvetica', 'Avant Garde', sans-serif; text-anchor: middle" x="530.931266" y="543.906563" transform="rotate(-0 530.931266 543.906563)">125</text>
     </g>
    </g>
    <g id="text_8">
     <text style="font: 12px 'DejaVu Sans', 'Bitstream Vera Sans', 'Computer Modern Sans Serif', 'Lucida Grande', 'Verdana', 'Geneva', 'Lucid', 'Arial', 'Helvetica', 'Avant Garde', sans-serif; text-anchor: middle" x="342.211406" y="559.104375" transform="rotate(-0 342.211406 559.104375)">Build Number</text>
    </g>
   </g>
   <g id="matplotlib.axis_2">
    <g id="ytick_1">
     <g id="line2d_15">
      <defs>
       <path id="mc26b2c66af" d="M 0 0 
L -2 0 
" style="stroke: #000000; stroke-width: 0.6"/>
      </defs>
      <g>
       <use xlink:href="#mc26b2c66af" x="86.71375" y="498.859767" style="stroke: #000000; stroke-width: 0.6"/>
      </g>
     </g>
     <g id="text_9">
      <!-- $\mathdefault{5.006\times10^{7}}$ -->
      <g transform="translate(22.81375 502.658986)">
       <text>
        <tspan style="font: 10px 'DejaVu Sans'" x="0 6.362305 9.541016 15.90332 22.265625 30.576172 40.90332 47.265625" y="-0.06406250000000036">5.006×10</tspan>
        <tspan style="font: 7px 'DejaVu Sans'" x="53.723633" y="-3.8921875000000004">7</tspan>
       </text>
      </g>
     </g>
    </g>
    <g id="ytick_2">
     <g id="line2d_16">
      <g>
       <use xlink:href="#mc26b2c66af" x="86.71375" y="404.975711" style="stroke: #000000; stroke-width: 0.6"/>
      </g>
     </g>
     <g id="text_10">
      <!-- $\mathdefault{5.008\times10^{7}}$ -->
      <g transform="translate(22.81375 408.774929)">
       <text>
        <tspan style="font: 10px 'DejaVu Sans'" x="0 6.362305 9.541016 15.90332 22.265625 30.576172 40.90332 47.265625" y="-0.06406250000000036">5.008×10</tspan>
        <tspan style="font: 7px 'DejaVu Sans'" x="53.723633" y="-3.8921875000000004">7</tspan>
       </text>
      </g>
     </g>
    </g>
    <g id="ytick_3">
     <g id="line2d_17">
      <g>
       <use xlink:href="#mc26b2c66af" x="86.71375" y="311.12914" style="stroke: #000000; stroke-width: 0.6"/>
      </g>
     </g>
     <g id="text_11">
      <!-- $\mathdefault{5.01\times10^{7}}$ -->
      <g transform="translate(29.21375 314.928359)">
       <text>
        <tspan style="font: 10px 'DejaVu Sans'" x="0 6.362305 9.541016 15.90332 24.213867 34.541016 40.90332" y="-0.06406250000000036">5.01×10</tspan>
        <tspan style="font: 7px 'DejaVu Sans'" x="47.361328" y="-3.8921875000000004">7</tspan>
       </text>
      </g>
     </g>
    </g>
    <g id="ytick_4">
     <g id="line2d_18">
      <g>
       <use xlink:href="#mc26b2c66af" x="86.71375" y="217.320027" style="stroke: #000000; stroke-width: 0.6"/>
      </g>
     </g>
     <g id="text_12">
      <!-- $\mathdefault{5.012\times10^{7}}$ -->
      <g transform="translate(22.81375 221.119245)">
       <text>
        <tspan style="font: 10px 'DejaVu Sans'" x="0 6.362305 9.541016 15.90332 22.265625 30.576172 40.90332 47.265625" y="-0.06406250000000036">5.012×10</tspan>
        <tspan style="font: 7px 'DejaVu Sans'" x="53.723633" y="-3.8921875000000004">7</tspan>
       </text>
      </g>
     </g>
    </g>
    <g id="ytick_5">
     <g id="line2d_19">
      <g>
       <use xlink:href="#mc26b2c66af" x="86.71375" y="123.548339" style="stroke: #000000; stroke-width: 0.6"/>
      </g>
     </g>
     <g id="text_13">
      <!-- $\mathdefault{5.014\times10^{7}}$ -->
      <g transform="translate(22.81375 127.347558)">
       <text>
        <tspan style="font: 10px 'DejaVu Sans'" x="0 6.362305 9.541016 15.90332 22.265625 30.576172 40.90332 47.265625" y="-0.06406250000000036">5.014×10</tspan>
        <tspan style="font: 7px 'DejaVu Sans'" x="53.723633" y="-3.8921875000000004">7</tspan>
       </text>
      </g>
     </g>
    </g>
    <g id="ytick_6">
     <g id="line2d_20">
      <g>
       <use xlink:href="#mc26b2c66af" x="86.71375" y="29.814048" style="stroke: #000000; stroke-width: 0.6"/>
      </g>
     </g>
     <g id="text_14">
      <!-- $\mathdefault{5.016\times10^{7}}$ -->
      <g transform="translate(22.81375 33.613267)">
       <text>
        <tspan style="font: 10px 'DejaVu Sans'" x="0 6.362305 9.541016 15.90332 22.265625 30.576172 40.90332 47.265625" y="-0.06406250000000036">5.016×10</tspan>
        <tspan style="font: 7px 'DejaVu Sans'" x="53.723633" y="-3.8921875000000004">7</tspan>
       </text>
      </g>
     </g>
    </g>
    <g id="text_15">
     <text style="font: 12px 'DejaVu Sans', 'Bitstream Vera Sans', 'Computer Modern Sans Serif', 'Lucida Grande', 'Verdana', 'Geneva', 'Lucid', 'Arial', 'Helvetica', 'Avant Garde', sans-serif; text-anchor: middle" x="16.318125" y="276.572969" transform="rotate(-90 16.318125 276.572969)">Median Elapsed Time (nanoseconds)</text>
    </g>
   </g>
   <g id="line2d_21">
    <path d="M 109.94081 459.619181 
L 124.457722 459.327661 
L 153.491547 477.441981 
L 168.008459 486.247549 
L 182.525371 480.422204 
L 197.042283 477.888919 
L 211.559196 484.383686 
L 226.076108 475.322798 
L 240.59302 456.200306 
L 255.109933 456.645794 
L 284.143757 444.694886 
L 298.660669 454.071455 
L 313.177582 475.924655 
L 327.694494 467.639626 
L 342.211406 474.026133 
L 371.245231 478.290318 
L 385.762143 506.332202 
L 400.279055 477.271563 
L 414.795968 479.174806 
L 429.31288 498.539089 
L 443.829792 479.367291 
L 458.346705 471.061484 
L 472.863617 467.084265 
L 487.380529 467.161725 
L 501.897441 468.958319 
L 516.414354 481.565384 
L 545.448178 437.009899 
L 559.965091 441.073917 
L 574.482003 408.35911 
" clip-path="url(#p2fd395d7ac)" style="fill: none; stroke: #1f77b4; stroke-width: 2; stroke-linecap: square"/>
    <defs>
     <path id="m1c49674c0e" d="M 0 3 
C 0.795609 3 1.55874 2.683901 2.12132 2.12132 
C 2.683901 1.55874 3 0.795609 3 0 
C 3 -0.795609 2.683901 -1.55874 2.12132 -2.12132 
C 1.55874 -2.683901 0.795609 -3 0 -3 
C -0.795609 -3 -1.55874 -2.683901 -2.12132 -2.12132 
C -2.683901 -1.55874 -3 -0.795609 -3 0 
C -3 0.795609 -2.683901 1.55874 -2.12132 2.12132 
C -1.55874 2.683901 -0.795609 3 0 3 
z
" style="stroke: #1f77b4"/>
    </defs>
    <g clip-path="url(#p2fd395d7ac)">
     <use xlink:href="#m1c49674c0e" x="109.94081" y="459.619181" style="fill: #1f77b4; stroke: #1f77b4"/>
     <use xlink:href="#m1c49674c0e" x="124.457722" y="459.327661" style="fill: #1f77b4; stroke: #1f77b4"/>
     <use xlink:href="#m1c49674c0e" x="153.491547" y="477.441981" style="fill: #1f77b4; stroke: #1f77b4"/>
     <use xlink:href="#m1c49674c0e" x="168.008459" y="486.247549" style="fill: #1f77b4; stroke: #1f77b4"/>
     <use xlink:href="#m1c49674c0e" x="182.525371" y="480.422204" style="fill: #1f77b4; stroke: #1f77b4"/>
     <use xlink:href="#m1c49674c0e" x="197.042283" y="477.888919" style="fill: #1f77b4; stroke: #1f77b4"/>
     <use xlink:href="#m1c49674c0e" x="211.559196" y="484.383686" style="fill: #1f77b4; stroke: #1f77b4"/>
     <use xlink:href="#m1c49674c0e" x="226.076108" y="475.322798" style="fill: #1f77b4; stroke: #1f77b4"/>
     <use xlink:href="#m1c49674c0e" x="240.59302" y="456.200306" style="fill: #1f77b4; stroke: #1f77b4"/>
     <use xlink:href="#m1c49674c0e" x="255.109933" y="456.645794" style="fill: #1f77b4; stroke: #1f77b4"/>
     <use xlink:href="#m1c49674c0e" x="284.143757" y="444.694886" style="fill: #1f77b4; stroke: #1f77b4"/>
     <use xlink:href="#m1c49674c0e" x="298.660669" y="454.071455" style="fill: #1f77b4; stroke: #1f77b4"/>
     <use xlink:href="#m1c49674c0e" x="313.177582" y="475.924655" style="fill: #1f77b4; stroke: #1f77b4"/>
     <use xlink:href="#m1c49674c0e" x="327.694494" y="467.639626" style="fill: #1f77b4; stroke: #1f77b4"/>
     <use xlink:href="#m1c49674c0e" x="342.211406" y="474.026133" style="fill: #1f77b4; stroke: #1f77b4"/>
     <use xlink:href="#m1c49674c0e" x="371.245231" y="478.290318" style="fill: #1f77b4; stroke: #1f77b4"/>
     <use xlink:href="#m1c49674c0e" x="385.762143" y="506.332202" style="fill: #1f77b4; stroke: #1f77b4"/>
     <use xlink:href="#m1c49674c0e" x="400.279055" y="477.271563" style="fill: #1f77b4; stroke: #1f77b4"/>
     <use xlink:href="#m1c49674c0e" x="414.795968" y="479.174806" style="fill: #1f77b4; stroke: #1f77b4"/>
     <use xlink:href="#m1c49674c0e" x="429.31288" y="498.539089" style="fill: #1f77b4; stroke: #1f77b4"/>
     <use xlink:href="#m1c49674c0e" x="443.829792" y="479.367291" style="fill: #1f77b4; stroke: #1f77b4"/>
     <use xlink:href="#m1c49674c0e" x="458.346705" y="471.061484" style="fill: #1f77b4; stroke: #1f77b4"/>
     <use xlink:href="#m1c49674c0e" x="472.863617" y="467.084265" style="fill: #1f77b4; stroke: #1f77b4"/>
     <use xlink:href="#m1c49674c0e" x="487.380529" y="467.161725" style="fill: #1f77b4; stroke: #1f77b4"/>
     <use xlink:href="#m1c49674c0e" x="501.897441" y="468.958319" style="fill: #1f77b4; stroke: #1f77b4"/>
     <use xlink:href="#m1c49674c0e" x="516.414354" y="481.565384" style="fill: #1f77b4; stroke: #1f77b4"/>
     <use xlink:href="#m1c49674c0e" x="545.448178" y="437.009899" style="fill: #1f77b4; stroke: #1f77b4"/>
     <use xlink:href="#m1c49674c0e" x="559.965091" y="441.073917" style="fill: #1f77b4; stroke: #1f77b4"/>
     <use xlink:href="#m1c49674c0e" x="574.482003" y="408.35911" style="fill: #1f77b4; stroke: #1f77b4"/>
    </g>
   </g>
   <g id="line2d_22">
    <path d="M 109.94081 153.829222 
L 124.457722 140.935473 
L 153.491547 249.975421 
L 168.008459 101.018233 
L 182.525371 260.211474 
L 197.042283 257.983556 
L 211.559196 239.002083 
L 226.076108 268.488257 
L 240.59302 117.192441 
L 255.109933 161.882841 
L 284.143757 89.915456 
L 298.660669 97.409585 
L 313.177582 261.074974 
L 327.694494 211.454917 
L 342.211406 261.457241 
L 371.245231 249.202482 
L 385.762143 246.737349 
L 400.279055 253.274042 
L 414.795968 252.195759 
L 429.31288 245.547941 
L 443.829792 244.265207 
L 458.346705 255.721889 
L 472.863617 211.13979 
L 487.380529 144.735593 
L 501.897441 216.526561 
L 516.414354 262.738662 
L 545.448178 108.244131 
L 559.965091 181.473726 
L 574.482003 46.813736 
" clip-path="url(#p2fd395d7ac)" style="fill: none; stroke: #ff7f0e; stroke-width: 2; stroke-linecap: square"/>
    <defs>
     <path id="m322183fb5c" d="M 0 3 
C 0.795609 3 1.55874 2.683901 2.12132 2.12132 
C 2.683901 1.55874 3 0.795609 3 0 
C 3 -0.795609 2.683901 -1.55874 2.12132 -2.12132 
C 1.55874 -2.683901 0.795609 -3 0 -3 
C -0.795609 -3 -1.55874 -2.683901 -2.12132 -2.12132 
C -2.683901 -1.55874 -3 -0.795609 -3 0 
C -3 0.795609 -2.683901 1.55874 -2.12132 2.12132 
C -1.55874 2.683901 -0.795609 3 0 3 
z
" style="stroke: #ff7f0e"/>
    </defs>
    <g clip-path="url(#p2fd395d7ac)">
     <use xlink:href="#m322183fb5c" x="109.94081" y="153.829222" style="fill: #ff7f0e; stroke: #ff7f0e"/>
     <use xlink:href="#m322183fb5c" x="124.457722" y="140.935473" style="fill: #ff7f0e; stroke: #ff7f0e"/>
     <use xlink:href="#m322183fb5c" x="153.491547" y="249.975421" style="fill: #ff7f0e; stroke: #ff7f0e"/>
     <use xlink:href="#m322183fb5c" x="168.008459" y="101.018233" style="fill: #ff7f0e; stroke: #ff7f0e"/>
     <use xlink:href="#m322183fb5c" x="182.525371" y="260.211474" style="fill: #ff7f0e; stroke: #ff7f0e"/>
     <use xlink:href="#m322183fb5c" x="197.042283" y="257.983556" style="fill: #ff7f0e; stroke: #ff7f0e"/>
     <use xlink:href="#m322183fb5c" x="211.559196" y="239.002083" style="fill: #ff7f0e; stroke: #ff7f0e"/>
     <use xlink:href="#m322183fb5c" x="226.076108" y="268.488257" style="fill: #ff7f0e; stroke: #ff7f0e"/>
     <use xlink:href="#m322183fb5c" x="240.59302" y="117.192441" style="fill: #ff7f0e; stroke: #ff7f0e"/>
     <use xlink:href="#m322183fb5c" x="255.109933" y="161.882841" style="fill: #ff7f0e; stroke: #ff7f0e"/>
     <use xlink:href="#m322183fb5c" x="284.143757" y="89.915456" style="fill: #ff7f0e; stroke: #ff7f0e"/>
     <use xlink:href="#m322183fb5c" x="298.660669" y="97.409585" style="fill: #ff7f0e; stroke: #ff7f0e"/>
     <use xlink:href="#m322183fb5c" x="313.177582" y="261.074974" style="fill: #ff7f0e; stroke: #ff7f0e"/>
     <use xlink:href="#m322183fb5c" x="327.694494" y="211.454917" style="fill: #ff7f0e; stroke: #ff7f0e"/>
     <use xlink:href="#m322183fb5c" x="342.211406" y="261.457241" style="fill: #ff7f0e; stroke: #ff7f0e"/>
     <use xlink:href="#m322183fb5c" x="371.245231" y="249.202482" style="fill: #ff7f0e; stroke: #ff7f0e"/>
     <use xlink:href="#m322183fb5c" x="385.762143" y="246.737349" style="fill: #ff7f0e; stroke: #ff7f0e"/>
     <use xlink:href="#m322183fb5c" x="400.279055" y="253.274042" style="fill: #ff7f0e; stroke: #ff7f0e"/>
     <use xlink:href="#m322183fb5c" x="414.795968" y="252.195759" style="fill: #ff7f0e; stroke: #ff7f0e"/>
     <use xlink:href="#m322183fb5c" x="429.31288" y="245.547941" style="fill: #ff7f0e; stroke: #ff7f0e"/>
     <use xlink:href="#m322183fb5c" x="443.829792" y="244.265207" style="fill: #ff7f0e; stroke: #ff7f0e"/>
     <use xlink:href="#m322183fb5c" x="458.346705" y="255.721889" style="fill: #ff7f0e; stroke: #ff7f0e"/>
     <use xlink:href="#m322183fb5c" x="472.863617" y="211.13979" style="fill: #ff7f0e; stroke: #ff7f0e"/>
     <use xlink:href="#m322183fb5c" x="487.380529" y="144.735593" style="fill: #ff7f0e; stroke: #ff7f0e"/>
     <use xlink:href="#m322183fb5c" x="501.897441" y="216.526561" style="fill: #ff7f0e; stroke: #ff7f0e"/>
     <use xlink:href="#m322183fb5c" x="516.414354" y="262.738662" style="fill: #ff7f0e; stroke: #ff7f0e"/>
     <use xlink:href="#m322183fb5c" x="545.448178" y="108.244131" style="fill: #ff7f0e; stroke: #ff7f0e"/>
     <use xlink:href="#m322183fb5c" x="559.965091" y="181.473726" style="fill: #ff7f0e; stroke: #ff7f0e"/>
     <use xlink:href="#m322183fb5c" x="574.482003" y="46.813736" style="fill: #ff7f0e; stroke: #ff7f0e"/>
    </g>
   </g>
   <g id="line2d_23">
    <path d="M 109.94081 466.196536 
L 124.457722 479.222693 
L 153.491547 496.053029 
L 168.008459 457.154187 
L 182.525371 495.005088 
L 197.042283 497.964405 
L 211.559196 477.631648 
L 226.076108 471.338465 
L 240.59302 476.374876 
L 255.109933 475.158015 
L 284.143757 498.874791 
L 298.660669 479.546161 
L 313.177582 471.0474 
L 342.211406 470.902338 
L 385.762143 478.963073 
L 400.279055 478.783265 
L 414.795968 446.43498 
L 429.31288 472.506012 
L 443.829792 486.22877 
L 458.346705 486.643798 
L 472.863617 477.971076 
L 487.380529 476.135916 
L 501.897441 459.999424 
L 516.414354 499.492203 
L 545.448178 479.975732 
L 559.965091 433.019644 
L 574.482003 438.629302 
" clip-path="url(#p2fd395d7ac)" style="fill: none; stroke: #2ca02c; stroke-width: 2; stroke-linecap: square"/>
    <defs>
     <path id="m77b17cfb32" d="M 0 3 
C 0.795609 3 1.55874 2.683901 2.12132 2.12132 
C 2.683901 1.55874 3 0.795609 3 0 
C 3 -0.795609 2.683901 -1.55874 2.12132 -2.12132 
C 1.55874 -2.683901 0.795609 -3 0 -3 
C -0.795609 -3 -1.55874 -2.683901 -2.12132 -2.12132 
C -2.683901 -1.55874 -3 -0.795609 -3 0 
C -3 0.795609 -2.683901 1.55874 -2.12132 2.12132 
C -1.55874 2.683901 -0.795609 3 0 3 
z
" style="stroke: #2ca02c"/>
    </defs>
    <g clip-path="url(#p2fd395d7ac)">
     <use xlink:href="#m77b17cfb32" x="109.94081" y="466.196536" style="fill: #2ca02c; stroke: #2ca02c"/>
     <use xlink:href="#m77b17cfb32" x="124.457722" y="479.222693" style="fill: #2ca02c; stroke: #2ca02c"/>
     <use xlink:href="#m77b17cfb32" x="153.491547" y="496.053029" style="fill: #2ca02c; stroke: #2ca02c"/>
     <use xlink:href="#m77b17cfb32" x="168.008459" y="457.154187" style="fill: #2ca02c; stroke: #2ca02c"/>
     <use xlink:href="#m77b17cfb32" x="182.525371" y="495.005088" style="fill: #2ca02c; stroke: #2ca02c"/>
     <use xlink:href="#m77b17cfb32" x="197.042283" y="497.964405" style="fill: #2ca02c; stroke: #2ca02c"/>
     <use xlink:href="#m77b17cfb32" x="211.559196" y="477.631648" style="fill: #2ca02c; stroke: #2ca02c"/>
     <use xlink:href="#m77b17cfb32" x="226.076108" y="471.338465" style="fill: #2ca02c; stroke: #2ca02c"/>
     <use xlink:href="#m77b17cfb32" x="240.59302" y="476.374876" style="fill: #2ca02c; stroke: #2ca02c"/>
     <use xlink:href="#m77b17cfb32" x="255.109933" y="475.158015" style="fill: #2ca02c; stroke: #2ca02c"/>
     <use xlink:href="#m77b17cfb32" x="284.143757" y="498.874791" style="fill: #2ca02c; stroke: #2ca02c"/>
     <use xlink:href="#m77b17cfb32" x="298.660669" y="479.546161" style="fill: #2ca02c; stroke: #2ca02c"/>
     <use xlink:href="#m77b17cfb32" x="313.177582" y="471.0474" style="fill: #2ca02c; stroke: #2ca02c"/>
     <use xlink:href="#m77b17cfb32" x="342.211406" y="470.902338" style="fill: #2ca02c; stroke: #2ca02c"/>
     <use xlink:href="#m77b17cfb32" x="385.762143" y="478.963073" style="fill: #2ca02c; stroke: #2ca02c"/>
     <use xlink:href="#m77b17cfb32" x="400.279055" y="478.783265" style="fill: #2ca02c; stroke: #2ca02c"/>
     <use xlink:href="#m77b17cfb32" x="414.795968" y="446.43498" style="fill: #2ca02c; stroke: #2ca02c"/>
     <use xlink:href="#m77b17cfb32" x="429.31288" y="472.506012" style="fill: #2ca02c; stroke: #2ca02c"/>
     <use xlink:href="#m77b17cfb32" x="443.829792" y="486.22877" style="fill: #2ca02c; stroke: #2ca02c"/>
     <use xlink:href="#m77b17cfb32" x="458.346705" y="486.643798" style="fill: #2ca02c; stroke: #2ca02c"/>
     <use xlink:href="#m77b17cfb32" x="472.863617" y="477.971076" style="fill: #2ca02c; stroke: #2ca02c"/>
     <use xlink:href="#m77b17cfb32" x="487.380529" y="476.135916" style="fill: #2ca02c; stroke: #2ca02c"/>
     <use xlink:href="#m77b17cfb32" x="501.897441" y="459.999424" style="fill: #2ca02c; stroke: #2ca02c"/>
     <use xlink:href="#m77b17cfb32" x="516.414354" y="499.492203" style="fill: #2ca02c; stroke: #2ca02c"/>
     <use xlink:href="#m77b17cfb32" x="545.448178" y="479.975732" style="fill: #2ca02c; stroke: #2ca02c"/>
     <use xlink:href="#m77b17cfb32" x="559.965091" y="433.019644" style="fill: #2ca02c; stroke: #2ca02c"/>
     <use xlink:href="#m77b17cfb32" x="574.482003" y="438.629302" style="fill: #2ca02c; stroke: #2ca02c"/>
    </g>
   </g>
   <g id="line2d_24">
    <path d="M 109.94081 180.211034 
L 124.457722 264.146263 
L 153.491547 261.250395 
L 168.008459 232.35886 
L 182.525371 256.602727 
L 197.042283 254.79556 
L 211.559196 236.697452 
L 226.076108 248.646699 
L 240.59302 264.477409 
L 255.109933 251.925603 
L 284.143757 235.202315 
L 298.660669 250.717407 
L 313.177582 247.318923 
L 342.211406 257.652419 
L 385.762143 255.190012 
L 400.279055 260.150968 
L 414.795968 76.482491 
L 429.31288 254.742091 
L 443.829792 266.165043 
L 458.346705 254.372029 
L 472.863617 227.694411 
L 487.380529 246.956846 
L 501.897441 181.307274 
L 516.414354 232.806738 
L 545.448178 191.365905 
L 559.965091 106.933554 
L 574.482003 183.329093 
" clip-path="url(#p2fd395d7ac)" style="fill: none; stroke: #d62728; stroke-width: 2; stroke-linecap: square"/>
    <defs>
     <path id="mabd5ccb85c" d="M 0 3 
C 0.795609 3 1.55874 2.683901 2.12132 2.12132 
C 2.683901 1.55874 3 0.795609 3 0 
C 3 -0.795609 2.683901 -1.55874 2.12132 -2.12132 
C 1.55874 -2.683901 0.795609 -3 0 -3 
C -0.795609 -3 -1.55874 -2.683901 -2.12132 -2.12132 
C -2.683901 -1.55874 -3 -0.795609 -3 0 
C -3 0.795609 -2.683901 1.55874 -2.12132 2.12132 
C -1.55874 2.683901 -0.795609 3 0 3 
z
" style="stroke: #d62728"/>
    </defs>
    <g clip-path="url(#p2fd395d7ac)">
     <use xlink:href="#mabd5ccb85c" x="109.94081" y="180.211034" style="fill: #d62728; stroke: #d62728"/>
     <use xlink:href="#mabd5ccb85c" x="124.457722" y="264.146263" style="fill: #d62728; stroke: #d62728"/>
     <use xlink:href="#mabd5ccb85c" x="153.491547" y="261.250395" style="fill: #d62728; stroke: #d62728"/>
     <use xlink:href="#mabd5ccb85c" x="168.008459" y="232.35886" style="fill: #d62728; stroke: #d62728"/>
     <use xlink:href="#mabd5ccb85c" x="182.525371" y="256.602727" style="fill: #d62728; stroke: #d62728"/>
     <use xlink:href="#mabd5ccb85c" x="197.042283" y="254.79556" style="fill: #d62728; stroke: #d62728"/>
     <use xlink:href="#mabd5ccb85c" x="211.559196" y="236.697452" style="fill: #d62728; stroke: #d62728"/>
     <use xlink:href="#mabd5ccb85c" x="226.076108" y="248.646699" style="fill: #d62728; stroke: #d62728"/>
     <use xlink:href="#mabd5ccb85c" x="240.59302" y="264.477409" style="fill: #d62728; stroke: #d62728"/>
     <use xlink:href="#mabd5ccb85c" x="255.109933" y="251.925603" style="fill: #d62728; stroke: #d62728"/>
     <use xlink:href="#mabd5ccb85c" x="284.143757" y="235.202315" style="fill: #d62728; stroke: #d62728"/>
     <use xlink:href="#mabd5ccb85c" x="298.660669" y="250.717407" style="fill: #d62728; stroke: #d62728"/>
     <use xlink:href="#mabd5ccb85c" x="313.177582" y="247.318923" style="fill: #d62728; stroke: #d62728"/>
     <use xlink:href="#mabd5ccb85c" x="342.211406" y="257.652419" style="fill: #d62728; stroke: #d62728"/>
     <use xlink:href="#mabd5ccb85c" x="385.762143" y="255.190012" style="fill: #d62728; stroke: #d62728"/>
     <use xlink:href="#mabd5ccb85c" x="400.279055" y="260.150968" style="fill: #d62728; stroke: #d62728"/>
     <use xlink:href="#mabd5ccb85c" x="414.795968" y="76.482491" style="fill: #d62728; stroke: #d62728"/>
     <use xlink:href="#mabd5ccb85c" x="429.31288" y="254.742091" style="fill: #d62728; stroke: #d62728"/>
     <use xlink:href="#mabd5ccb85c" x="443.829792" y="266.165043" style="fill: #d62728; stroke: #d62728"/>
     <use xlink:href="#mabd5ccb85c" x="458.346705" y="254.372029" style="fill: #d62728; stroke: #d62728"/>
     <use xlink:href="#mabd5ccb85c" x="472.863617" y="227.694411" style="fill: #d62728; stroke: #d62728"/>
     <use xlink:href="#mabd5ccb85c" x="487.380529" y="246.956846" style="fill: #d62728; stroke: #d62728"/>
     <use xlink:href="#mabd5ccb85c" x="501.897441" y="181.307274" style="fill: #d62728; stroke: #d62728"/>
     <use xlink:href="#mabd5ccb85c" x="516.414354" y="232.806738" style="fill: #d62728; stroke: #d62728"/>
     <use xlink:href="#mabd5ccb85c" x="545.448178" y="191.365905" style="fill: #d62728; stroke: #d62728"/>
     <use xlink:href="#mabd5ccb85c" x="559.965091" y="106.933554" style="fill: #d62728; stroke: #d62728"/>
     <use xlink:href="#mabd5ccb85c" x="574.482003" y="183.329093" style="fill: #d62728; stroke: #d62728"/>
    </g>
   </g>
   <g id="patch_3">
    <path d="M 86.71375 529.308125 
L 86.71375 23.837813 
" style="fill: none; stroke: #000000; stroke-width: 0.8; stroke-linejoin: miter; stroke-linecap: square"/>
   </g>
   <g id="patch_4">
    <path d="M 597.709062 529.308125 
L 597.709062 23.837813 
" style="fill: none; stroke: #000000; stroke-width: 0.8; stroke-linejoin: miter; stroke-linecap: square"/>
   </g>
   <g id="patch_5">
    <path d="M 86.71375 529.308125 
L 597.709063 529.308125 
" style="fill: none; stroke: #000000; stroke-width: 0.8; stroke-linejoin: miter; stroke-linecap: square"/>
   </g>
   <g id="patch_6">
    <path d="M 86.71375 23.837812 
L 597.709063 23.837812 
" style="fill: none; stroke: #000000; stroke-width: 0.8; stroke-linejoin: miter; stroke-linecap: square"/>
   </g>
   <g id="text_16">
    <text style="font: 700 14px 'DejaVu Sans', 'Bitstream Vera Sans', 'Computer Modern Sans Serif', 'Lucida Grande', 'Verdana', 'Geneva', 'Lucid', 'Arial', 'Helvetica', 'Avant Garde', sans-serif; text-anchor: middle" x="342.211406" y="17.837813" transform="rotate(-0 342.211406 17.837813)">Coroutine Suspension - Performance Trend</text>
   </g>
   <g id="legend_1">
    <g id="patch_7">
     <path d="M 630.258828 91.662813 
L 839.669766 91.662813 
Q 841.669766 91.662813 841.669766 89.662813 
L 841.669766 30.837813 
Q 841.669766 28.837813 839.669766 28.837813 
L 630.258828 28.837813 
Q 628.258828 28.837813 628.258828 30.837813 
L 628.258828 89.662813 
Q 628.258828 91.662813 630.258828 91.662813 
z
" style="fill: #ffffff; opacity: 0.8; stroke: #cccccc; stroke-linejoin: miter"/>
    </g>
    <g id="line2d_25">
     <path d="M 632.258828 36.93625 
L 642.258828 36.93625 
L 652.258828 36.93625 
" style="fill: none; stroke: #1f77b4; stroke-width: 2; stroke-linecap: square"/>
     <g>
      <use xlink:href="#m1c49674c0e" x="642.258828" y="36.93625" style="fill: #1f77b4; stroke: #1f77b4"/>
     </g>
    </g>
    <g id="text_17">
     <text style="font: 10px 'DejaVu Sans', 'Bitstream Vera Sans', 'Computer Modern Sans Serif', 'Lucida Grande', 'Verdana', 'Geneva', 'Lucid', 'Arial', 'Helvetica', 'Avant Garde', sans-serif; text-anchor: start" x="660.258828" y="40.43625" transform="rotate(-0 660.258828 40.43625)">gcc-14.2 - SuspensionOverhead_V1</text>
    </g>
    <g id="line2d_26">
     <path d="M 632.258828 51.8925 
L 642.258828 51.8925 
L 652.258828 51.8925 
" style="fill: none; stroke: #ff7f0e; stroke-width: 2; stroke-linecap: square"/>
     <g>
      <use xlink:href="#m322183fb5c" x="642.258828" y="51.8925" style="fill: #ff7f0e; stroke: #ff7f0e"/>
     </g>
    </g>
    <g id="text_18">
     <text style="font: 10px 'DejaVu Sans', 'Bitstream Vera Sans', 'Computer Modern Sans Serif', 'Lucida Grande', 'Verdana', 'Geneva', 'Lucid', 'Arial', 'Helvetica', 'Avant Garde', sans-serif; text-anchor: start" x="660.258828" y="55.3925" transform="rotate(-0 660.258828 55.3925)">gcc-14.2 - SuspensionOverhead_V2</text>
    </g>
    <g id="line2d_27">
     <path d="M 632.258828 66.84875 
L 642.258828 66.84875 
L 652.258828 66.84875 
" style="fill: none; stroke: #2ca02c; stroke-width: 2; stroke-linecap: square"/>
     <g>
      <use xlink:href="#m77b17cfb32" x="642.258828" y="66.84875" style="fill: #2ca02c; stroke: #2ca02c"/>
     </g>
    </g>
    <g id="text_19">
     <text style="font: 10px 'DejaVu Sans', 'Bitstream Vera Sans', 'Computer Modern Sans Serif', 'Lucida Grande', 'Verdana', 'Geneva', 'Lucid', 'Arial', 'Helvetica', 'Avant Garde', sans-serif; text-anchor: start" x="660.258828" y="70.34875" transform="rotate(-0 660.258828 70.34875)">gcc-4.2 - SuspensionOverhead_V1</text>
    </g>
    <g id="line2d_28">
     <path d="M 632.258828 81.805 
L 642.258828 81.805 
L 652.258828 81.805 
" style="fill: none; stroke: #d62728; stroke-width: 2; stroke-linecap: square"/>
     <g>
      <use xlink:href="#mabd5ccb85c" x="642.258828" y="81.805" style="fill: #d62728; stroke: #d62728"/>
     </g>
    </g>
    <g id="text_20">
     <text style="font: 10px 'DejaVu Sans', 'Bitstream Vera Sans', 'Computer Modern Sans Serif', 'Lucida Grande', 'Verdana', 'Geneva', 'Lucid', 'Arial', 'Helvetica', 'Avant Garde', sans-serif; text-anchor: start" x="660.258828" y="85.305" transform="rotate(-0 660.258828 85.305)">gcc-4.2 - SuspensionOverhead_V2</text>
    </g>
   </g>
  </g>
 </g>
 <defs>
  <clipPath id="p2fd395d7ac">
   <rect x="86.71375" y="23.837813" width="510.995312" height="505.470313"/>
  </clipPath>
 </defs>
</svg>
