<?xml version="1.0" encoding="utf-8" standalone="no"?>
<!DOCTYPE svg PUBLIC "-//W3C//DTD SVG 1.1//EN"
  "http://www.w3.org/Graphics/SVG/1.1/DTD/svg11.dtd">
<svg xmlns:xlink="http://www.w3.org/1999/xlink" width="855.204687pt" height="568.8pt" viewBox="0 0 855.204687 568.8" xmlns="http://www.w3.org/2000/svg" version="1.1">
 <metadata>
  <rdf:RDF xmlns:dc="http://purl.org/dc/elements/1.1/" xmlns:cc="http://creativecommons.org/ns#" xmlns:rdf="http://www.w3.org/1999/02/22-rdf-syntax-ns#">
   <cc:Work>
    <dc:type rdf:resource="http://purl.org/dc/dcmitype/StillImage"/>
    <dc:date>2025-08-27T17:03:09.610111</dc:date>
    <dc:format>image/svg+xml</dc:format>
    <dc:creator>
     <cc:Agent>
      <dc:title>Matplotlib v3.9.4, https://matplotlib.org/</dc:title>
     </cc:Agent>
    </dc:creator>
   </cc:Work>
  </rdf:RDF>
 </metadata>
 <defs>
  <style type="text/css">*{stroke-linejoin: round; stroke-linecap: butt}</style>
 </defs>
 <g id="figure_1">
  <g id="patch_1">
   <path d="M 0 568.8 
L 855.204687 568.8 
L 855.204687 0 
L 0 0 
z
" style="fill: #ffffff"/>
  </g>
  <g id="axes_1">
   <g id="patch_2">
    <path d="M 64.41375 529.308125 
L 702.1075 529.308125 
L 702.1075 23.837812 
L 64.41375 23.837812 
z
" style="fill: #ffffff"/>
   </g>
   <g id="matplotlib.axis_1">
    <g id="xtick_1">
     <g id="line2d_1">
      <path d="M 76.836356 529.308125 
L 76.836356 23.837812 
" clip-path="url(#p0b194d6d27)" style="fill: none; stroke: #b0b0b0; stroke-opacity: 0.3; stroke-width: 0.8; stroke-linecap: square"/>
     </g>
     <g id="line2d_2">
      <defs>
       <path id="mdab082aa4d" d="M 0 0 
L 0 3.5 
" style="stroke: #000000; stroke-width: 0.8"/>
      </defs>
      <g>
       <use xlink:href="#mdab082aa4d" x="76.836356" y="529.308125" style="stroke: #000000; stroke-width: 0.8"/>
      </g>
     </g>
     <g id="text_1">
      <text style="font: 10px 'DejaVu Sans', 'Bitstream Vera Sans', 'Computer Modern Sans Serif', 'Lucida Grande', 'Verdana', 'Geneva', 'Lucid', 'Arial', 'Helvetica', 'Avant Garde', sans-serif; text-anchor: middle" x="76.836356" y="543.906563" transform="rotate(-0 76.836356 543.906563)">70</text>
     </g>
    </g>
    <g id="xtick_2">
     <g id="line2d_3">
      <path d="M 159.653726 529.308125 
L 159.653726 23.837812 
" clip-path="url(#p0b194d6d27)" style="fill: none; stroke: #b0b0b0; stroke-opacity: 0.3; stroke-width: 0.8; stroke-linecap: square"/>
     </g>
     <g id="line2d_4">
      <g>
       <use xlink:href="#mdab082aa4d" x="159.653726" y="529.308125" style="stroke: #000000; stroke-width: 0.8"/>
      </g>
     </g>
     <g id="text_2">
      <text style="font: 10px 'DejaVu Sans', 'Bitstream Vera Sans', 'Computer Modern Sans Serif', 'Lucida Grande', 'Verdana', 'Geneva', 'Lucid', 'Arial', 'Helvetica', 'Avant Garde', sans-serif; text-anchor: middle" x="159.653726" y="543.906563" transform="rotate(-0 159.653726 543.906563)">75</text>
     </g>
    </g>
    <g id="xtick_3">
     <g id="line2d_5">
      <path d="M 242.471096 529.308125 
L 242.471096 23.837812 
" clip-path="url(#p0b194d6d27)" style="fill: none; stroke: #b0b0b0; stroke-opacity: 0.3; stroke-width: 0.8; stroke-linecap: square"/>
     </g>
     <g id="line2d_6">
      <g>
       <use xlink:href="#mdab082aa4d" x="242.471096" y="529.308125" style="stroke: #000000; stroke-width: 0.8"/>
      </g>
     </g>
     <g id="text_3">
      <text style="font: 10px 'DejaVu Sans', 'Bitstream Vera Sans', 'Computer Modern Sans Serif', 'Lucida Grande', 'Verdana', 'Geneva', 'Lucid', 'Arial', 'Helvetica', 'Avant Garde', sans-serif; text-anchor: middle" x="242.471096" y="543.906563" transform="rotate(-0 242.471096 543.906563)">80</text>
     </g>
    </g>
    <g id="xtick_4">
     <g id="line2d_7">
      <path d="M 325.288466 529.308125 
L 325.288466 23.837812 
" clip-path="url(#p0b194d6d27)" style="fill: none; stroke: #b0b0b0; stroke-opacity: 0.3; stroke-width: 0.8; stroke-linecap: square"/>
     </g>
     <g id="line2d_8">
      <g>
       <use xlink:href="#mdab082aa4d" x="325.288466" y="529.308125" style="stroke: #000000; stroke-width: 0.8"/>
      </g>
     </g>
     <g id="text_4">
      <text style="font: 10px 'DejaVu Sans', 'Bitstream Vera Sans', 'Computer Modern Sans Serif', 'Lucida Grande', 'Verdana', 'Geneva', 'Lucid', 'Arial', 'Helvetica', 'Avant Garde', sans-serif; text-anchor: middle" x="325.288466" y="543.906563" transform="rotate(-0 325.288466 543.906563)">85</text>
     </g>
    </g>
    <g id="xtick_5">
     <g id="line2d_9">
      <path d="M 408.105836 529.308125 
L 408.105836 23.837812 
" clip-path="url(#p0b194d6d27)" style="fill: none; stroke: #b0b0b0; stroke-opacity: 0.3; stroke-width: 0.8; stroke-linecap: square"/>
     </g>
     <g id="line2d_10">
      <g>
       <use xlink:href="#mdab082aa4d" x="408.105836" y="529.308125" style="stroke: #000000; stroke-width: 0.8"/>
      </g>
     </g>
     <g id="text_5">
      <text style="font: 10px 'DejaVu Sans', 'Bitstream Vera Sans', 'Computer Modern Sans Serif', 'Lucida Grande', 'Verdana', 'Geneva', 'Lucid', 'Arial', 'Helvetica', 'Avant Garde', sans-serif; text-anchor: middle" x="408.105836" y="543.906563" transform="rotate(-0 408.105836 543.906563)">90</text>
     </g>
    </g>
    <g id="xtick_6">
     <g id="line2d_11">
      <path d="M 490.923206 529.308125 
L 490.923206 23.837812 
" clip-path="url(#p0b194d6d27)" style="fill: none; stroke: #b0b0b0; stroke-opacity: 0.3; stroke-width: 0.8; stroke-linecap: square"/>
     </g>
     <g id="line2d_12">
      <g>
       <use xlink:href="#mdab082aa4d" x="490.923206" y="529.308125" style="stroke: #000000; stroke-width: 0.8"/>
      </g>
     </g>
     <g id="text_6">
      <text style="font: 10px 'DejaVu Sans', 'Bitstream Vera Sans', 'Computer Modern Sans Serif', 'Lucida Grande', 'Verdana', 'Geneva', 'Lucid', 'Arial', 'Helvetica', 'Avant Garde', sans-serif; text-anchor: middle" x="490.923206" y="543.906563" transform="rotate(-0 490.923206 543.906563)">95</text>
     </g>
    </g>
    <g id="xtick_7">
     <g id="line2d_13">
      <path d="M 573.740576 529.308125 
L 573.740576 23.837812 
" clip-path="url(#p0b194d6d27)" style="fill: none; stroke: #b0b0b0; stroke-opacity: 0.3; stroke-width: 0.8; stroke-linecap: square"/>
     </g>
     <g id="line2d_14">
      <g>
       <use xlink:href="#mdab082aa4d" x="573.740576" y="529.308125" style="stroke: #000000; stroke-width: 0.8"/>
      </g>
     </g>
     <g id="text_7">
      <text style="font: 10px 'DejaVu Sans', 'Bitstream Vera Sans', 'Computer Modern Sans Serif', 'Lucida Grande', 'Verdana', 'Geneva', 'Lucid', 'Arial', 'Helvetica', 'Avant Garde', sans-serif; text-anchor: middle" x="573.740576" y="543.906563" transform="rotate(-0 573.740576 543.906563)">100</text>
     </g>
    </g>
    <g id="xtick_8">
     <g id="line2d_15">
      <path d="M 656.557946 529.308125 
L 656.557946 23.837812 
" clip-path="url(#p0b194d6d27)" style="fill: none; stroke: #b0b0b0; stroke-opacity: 0.3; stroke-width: 0.8; stroke-linecap: square"/>
     </g>
     <g id="line2d_16">
      <g>
       <use xlink:href="#mdab082aa4d" x="656.557946" y="529.308125" style="stroke: #000000; stroke-width: 0.8"/>
      </g>
     </g>
     <g id="text_8">
      <text style="font: 10px 'DejaVu Sans', 'Bitstream Vera Sans', 'Computer Modern Sans Serif', 'Lucida Grande', 'Verdana', 'Geneva', 'Lucid', 'Arial', 'Helvetica', 'Avant Garde', sans-serif; text-anchor: middle" x="656.557946" y="543.906563" transform="rotate(-0 656.557946 543.906563)">105</text>
     </g>
    </g>
    <g id="text_9">
     <text style="font: 12px 'DejaVu Sans', 'Bitstream Vera Sans', 'Computer Modern Sans Serif', 'Lucida Grande', 'Verdana', 'Geneva', 'Lucid', 'Arial', 'Helvetica', 'Avant Garde', sans-serif; text-anchor: middle" x="383.260625" y="559.104375" transform="rotate(-0 383.260625 559.104375)">Build Number</text>
    </g>
   </g>
   <g id="matplotlib.axis_2">
    <g id="ytick_1">
     <g id="line2d_17">
      <path d="M 64.41375 468.306331 
L 702.1075 468.306331 
" clip-path="url(#p0b194d6d27)" style="fill: none; stroke: #b0b0b0; stroke-opacity: 0.3; stroke-width: 0.8; stroke-linecap: square"/>
     </g>
     <g id="line2d_18">
      <defs>
       <path id="mcb979b5c8b" d="M 0 0 
L -3.5 0 
" style="stroke: #000000; stroke-width: 0.8"/>
      </defs>
      <g>
       <use xlink:href="#mcb979b5c8b" x="64.41375" y="468.306331" style="stroke: #000000; stroke-width: 0.8"/>
      </g>
     </g>
     <g id="text_10">
      <!-- $\mathdefault{10^{5}}$ -->
      <g transform="translate(39.81375 472.10555)">
       <text>
        <tspan style="font: 10px 'DejaVu Sans'" x="0 6.362305" y="-0.06406250000000036">10</tspan>
        <tspan style="font: 7px 'DejaVu Sans'" x="12.820312" y="-3.8921875000000004">5</tspan>
       </text>
      </g>
     </g>
    </g>
    <g id="ytick_2">
     <g id="line2d_19">
      <defs>
       <path id="mb2f5c87291" d="M 0 0 
L -2 0 
" style="stroke: #000000; stroke-width: 0.6"/>
      </defs>
      <g>
       <use xlink:href="#mb2f5c87291" x="64.41375" y="497.655628" style="stroke: #000000; stroke-width: 0.6"/>
      </g>
     </g>
    </g>
    <g id="ytick_3">
     <g id="line2d_20">
      <g>
       <use xlink:href="#mb2f5c87291" x="64.41375" y="275.22278" style="stroke: #000000; stroke-width: 0.6"/>
      </g>
     </g>
     <g id="text_11">
      <!-- $\mathdefault{2\times10^{5}}$ -->
      <g transform="translate(22.81375 279.021999)">
       <text>
        <tspan style="font: 10px 'DejaVu Sans'" x="0 8.310547 18.637695 25" y="-0.06406250000000036">2×10</tspan>
        <tspan style="font: 7px 'DejaVu Sans'" x="31.458008" y="-3.8921875000000004">5</tspan>
       </text>
      </g>
     </g>
    </g>
    <g id="ytick_4">
     <g id="line2d_21">
      <g>
       <use xlink:href="#mb2f5c87291" x="64.41375" y="162.276143" style="stroke: #000000; stroke-width: 0.6"/>
      </g>
     </g>
     <g id="text_12">
      <!-- $\mathdefault{3\times10^{5}}$ -->
      <g transform="translate(22.81375 166.075361)">
       <text>
        <tspan style="font: 10px 'DejaVu Sans'" x="0 8.310547 18.637695 25" y="-0.06406250000000036">3×10</tspan>
        <tspan style="font: 7px 'DejaVu Sans'" x="31.458008" y="-3.8921875000000004">5</tspan>
       </text>
      </g>
     </g>
    </g>
    <g id="ytick_5">
     <g id="line2d_22">
      <g>
       <use xlink:href="#mb2f5c87291" x="64.41375" y="82.139228" style="stroke: #000000; stroke-width: 0.6"/>
      </g>
     </g>
     <g id="text_13">
      <!-- $\mathdefault{4\times10^{5}}$ -->
      <g transform="translate(22.81375 85.938447)">
       <text>
        <tspan style="font: 10px 'DejaVu Sans'" x="0 8.310547 18.637695 25" y="-0.06406250000000036">4×10</tspan>
        <tspan style="font: 7px 'DejaVu Sans'" x="31.458008" y="-3.8921875000000004">5</tspan>
       </text>
      </g>
     </g>
    </g>
    <g id="text_14">
     <text style="font: 12px 'DejaVu Sans', 'Bitstream Vera Sans', 'Computer Modern Sans Serif', 'Lucida Grande', 'Verdana', 'Geneva', 'Lucid', 'Arial', 'Helvetica', 'Avant Garde', sans-serif; text-anchor: middle" x="16.318125" y="276.572969" transform="rotate(-90 16.318125 276.572969)">Median Elapsed Time (nanoseconds)</text>
    </g>
   </g>
   <g id="line2d_23">
    <path d="M 93.39983 243.777005 
L 109.963304 249.27393 
L 126.526778 247.440552 
L 143.090252 249.833323 
L 159.653726 195.655826 
L 176.2172 97.639476 
L 192.780674 249.799504 
L 209.344148 248.859809 
L 225.907622 52.985138 
L 242.471096 249.625007 
L 259.03457 249.659186 
L 275.598044 250.052866 
L 292.161518 53.930679 
L 308.724992 248.694257 
L 325.288466 249.470428 
L 341.85194 249.74497 
L 374.978888 249.927046 
L 391.542362 54.024276 
L 408.105836 249.087462 
L 424.66931 109.506976 
L 441.232784 248.641838 
L 457.796258 244.924707 
L 474.359732 249.759969 
L 490.923206 249.680026 
L 507.48668 249.787554 
L 524.050154 46.813736 
L 557.177102 249.408722 
L 573.740576 249.281925 
L 590.30405 250.020419 
L 606.867524 249.645464 
L 623.430998 249.902246 
L 639.994472 249.748021 
L 656.557946 249.793021 
L 673.12142 226.16341 
" clip-path="url(#p0b194d6d27)" style="fill: none; stroke: #1f77b4; stroke-width: 2; stroke-linecap: square"/>
    <defs>
     <path id="m174f60f851" d="M 0 3 
C 0.795609 3 1.55874 2.683901 2.12132 2.12132 
C 2.683901 1.55874 3 0.795609 3 0 
C 3 -0.795609 2.683901 -1.55874 2.12132 -2.12132 
C 1.55874 -2.683901 0.795609 -3 0 -3 
C -0.795609 -3 -1.55874 -2.683901 -2.12132 -2.12132 
C -2.683901 -1.55874 -3 -0.795609 -3 0 
C -3 0.795609 -2.683901 1.55874 -2.12132 2.12132 
C -1.55874 2.683901 -0.795609 3 0 3 
z
" style="stroke: #1f77b4"/>
    </defs>
    <g clip-path="url(#p0b194d6d27)">
     <use xlink:href="#m174f60f851" x="93.39983" y="243.777005" style="fill: #1f77b4; stroke: #1f77b4"/>
     <use xlink:href="#m174f60f851" x="109.963304" y="249.27393" style="fill: #1f77b4; stroke: #1f77b4"/>
     <use xlink:href="#m174f60f851" x="126.526778" y="247.440552" style="fill: #1f77b4; stroke: #1f77b4"/>
     <use xlink:href="#m174f60f851" x="143.090252" y="249.833323" style="fill: #1f77b4; stroke: #1f77b4"/>
     <use xlink:href="#m174f60f851" x="159.653726" y="195.655826" style="fill: #1f77b4; stroke: #1f77b4"/>
     <use xlink:href="#m174f60f851" x="176.2172" y="97.639476" style="fill: #1f77b4; stroke: #1f77b4"/>
     <use xlink:href="#m174f60f851" x="192.780674" y="249.799504" style="fill: #1f77b4; stroke: #1f77b4"/>
     <use xlink:href="#m174f60f851" x="209.344148" y="248.859809" style="fill: #1f77b4; stroke: #1f77b4"/>
     <use xlink:href="#m174f60f851" x="225.907622" y="52.985138" style="fill: #1f77b4; stroke: #1f77b4"/>
     <use xlink:href="#m174f60f851" x="242.471096" y="249.625007" style="fill: #1f77b4; stroke: #1f77b4"/>
     <use xlink:href="#m174f60f851" x="259.03457" y="249.659186" style="fill: #1f77b4; stroke: #1f77b4"/>
     <use xlink:href="#m174f60f851" x="275.598044" y="250.052866" style="fill: #1f77b4; stroke: #1f77b4"/>
     <use xlink:href="#m174f60f851" x="292.161518" y="53.930679" style="fill: #1f77b4; stroke: #1f77b4"/>
     <use xlink:href="#m174f60f851" x="308.724992" y="248.694257" style="fill: #1f77b4; stroke: #1f77b4"/>
     <use xlink:href="#m174f60f851" x="325.288466" y="249.470428" style="fill: #1f77b4; stroke: #1f77b4"/>
     <use xlink:href="#m174f60f851" x="341.85194" y="249.74497" style="fill: #1f77b4; stroke: #1f77b4"/>
     <use xlink:href="#m174f60f851" x="374.978888" y="249.927046" style="fill: #1f77b4; stroke: #1f77b4"/>
     <use xlink:href="#m174f60f851" x="391.542362" y="54.024276" style="fill: #1f77b4; stroke: #1f77b4"/>
     <use xlink:href="#m174f60f851" x="408.105836" y="249.087462" style="fill: #1f77b4; stroke: #1f77b4"/>
     <use xlink:href="#m174f60f851" x="424.66931" y="109.506976" style="fill: #1f77b4; stroke: #1f77b4"/>
     <use xlink:href="#m174f60f851" x="441.232784" y="248.641838" style="fill: #1f77b4; stroke: #1f77b4"/>
     <use xlink:href="#m174f60f851" x="457.796258" y="244.924707" style="fill: #1f77b4; stroke: #1f77b4"/>
     <use xlink:href="#m174f60f851" x="474.359732" y="249.759969" style="fill: #1f77b4; stroke: #1f77b4"/>
     <use xlink:href="#m174f60f851" x="490.923206" y="249.680026" style="fill: #1f77b4; stroke: #1f77b4"/>
     <use xlink:href="#m174f60f851" x="507.48668" y="249.787554" style="fill: #1f77b4; stroke: #1f77b4"/>
     <use xlink:href="#m174f60f851" x="524.050154" y="46.813736" style="fill: #1f77b4; stroke: #1f77b4"/>
     <use xlink:href="#m174f60f851" x="557.177102" y="249.408722" style="fill: #1f77b4; stroke: #1f77b4"/>
     <use xlink:href="#m174f60f851" x="573.740576" y="249.281925" style="fill: #1f77b4; stroke: #1f77b4"/>
     <use xlink:href="#m174f60f851" x="590.30405" y="250.020419" style="fill: #1f77b4; stroke: #1f77b4"/>
     <use xlink:href="#m174f60f851" x="606.867524" y="249.645464" style="fill: #1f77b4; stroke: #1f77b4"/>
     <use xlink:href="#m174f60f851" x="623.430998" y="249.902246" style="fill: #1f77b4; stroke: #1f77b4"/>
     <use xlink:href="#m174f60f851" x="639.994472" y="249.748021" style="fill: #1f77b4; stroke: #1f77b4"/>
     <use xlink:href="#m174f60f851" x="656.557946" y="249.793021" style="fill: #1f77b4; stroke: #1f77b4"/>
     <use xlink:href="#m174f60f851" x="673.12142" y="226.16341" style="fill: #1f77b4; stroke: #1f77b4"/>
    </g>
   </g>
   <g id="line2d_24">
    <path d="M 93.39983 243.595173 
L 109.963304 241.95412 
L 126.526778 239.701111 
L 143.090252 237.684582 
L 159.653726 205.56849 
L 176.2172 239.155072 
L 192.780674 239.772109 
L 209.344148 241.369236 
L 225.907622 133.794407 
L 242.471096 234.403278 
L 259.03457 237.659265 
L 275.598044 237.157542 
L 292.161518 188.916702 
L 308.724992 234.469087 
L 325.288466 238.961802 
L 341.85194 238.649307 
L 374.978888 238.20884 
L 391.542362 190.246886 
L 408.105836 240.231147 
L 424.66931 189.704849 
L 441.232784 241.302517 
L 457.796258 233.278982 
L 474.359732 239.287258 
L 490.923206 235.972494 
L 507.48668 230.52038 
L 524.050154 146.706777 
L 557.177102 230.774008 
L 573.740576 229.004029 
L 590.30405 231.501399 
L 606.867524 230.639985 
L 623.430998 229.436076 
L 639.994472 231.485804 
L 656.557946 230.727585 
L 673.12142 212.482843 
" clip-path="url(#p0b194d6d27)" style="fill: none; stroke: #ff7f0e; stroke-width: 2; stroke-linecap: square"/>
    <defs>
     <path id="m72c21ec4cd" d="M 0 3 
C 0.795609 3 1.55874 2.683901 2.12132 2.12132 
C 2.683901 1.55874 3 0.795609 3 0 
C 3 -0.795609 2.683901 -1.55874 2.12132 -2.12132 
C 1.55874 -2.683901 0.795609 -3 0 -3 
C -0.795609 -3 -1.55874 -2.683901 -2.12132 -2.12132 
C -2.683901 -1.55874 -3 -0.795609 -3 0 
C -3 0.795609 -2.683901 1.55874 -2.12132 2.12132 
C -1.55874 2.683901 -0.795609 3 0 3 
z
" style="stroke: #ff7f0e"/>
    </defs>
    <g clip-path="url(#p0b194d6d27)">
     <use xlink:href="#m72c21ec4cd" x="93.39983" y="243.595173" style="fill: #ff7f0e; stroke: #ff7f0e"/>
     <use xlink:href="#m72c21ec4cd" x="109.963304" y="241.95412" style="fill: #ff7f0e; stroke: #ff7f0e"/>
     <use xlink:href="#m72c21ec4cd" x="126.526778" y="239.701111" style="fill: #ff7f0e; stroke: #ff7f0e"/>
     <use xlink:href="#m72c21ec4cd" x="143.090252" y="237.684582" style="fill: #ff7f0e; stroke: #ff7f0e"/>
     <use xlink:href="#m72c21ec4cd" x="159.653726" y="205.56849" style="fill: #ff7f0e; stroke: #ff7f0e"/>
     <use xlink:href="#m72c21ec4cd" x="176.2172" y="239.155072" style="fill: #ff7f0e; stroke: #ff7f0e"/>
     <use xlink:href="#m72c21ec4cd" x="192.780674" y="239.772109" style="fill: #ff7f0e; stroke: #ff7f0e"/>
     <use xlink:href="#m72c21ec4cd" x="209.344148" y="241.369236" style="fill: #ff7f0e; stroke: #ff7f0e"/>
     <use xlink:href="#m72c21ec4cd" x="225.907622" y="133.794407" style="fill: #ff7f0e; stroke: #ff7f0e"/>
     <use xlink:href="#m72c21ec4cd" x="242.471096" y="234.403278" style="fill: #ff7f0e; stroke: #ff7f0e"/>
     <use xlink:href="#m72c21ec4cd" x="259.03457" y="237.659265" style="fill: #ff7f0e; stroke: #ff7f0e"/>
     <use xlink:href="#m72c21ec4cd" x="275.598044" y="237.157542" style="fill: #ff7f0e; stroke: #ff7f0e"/>
     <use xlink:href="#m72c21ec4cd" x="292.161518" y="188.916702" style="fill: #ff7f0e; stroke: #ff7f0e"/>
     <use xlink:href="#m72c21ec4cd" x="308.724992" y="234.469087" style="fill: #ff7f0e; stroke: #ff7f0e"/>
     <use xlink:href="#m72c21ec4cd" x="325.288466" y="238.961802" style="fill: #ff7f0e; stroke: #ff7f0e"/>
     <use xlink:href="#m72c21ec4cd" x="341.85194" y="238.649307" style="fill: #ff7f0e; stroke: #ff7f0e"/>
     <use xlink:href="#m72c21ec4cd" x="374.978888" y="238.20884" style="fill: #ff7f0e; stroke: #ff7f0e"/>
     <use xlink:href="#m72c21ec4cd" x="391.542362" y="190.246886" style="fill: #ff7f0e; stroke: #ff7f0e"/>
     <use xlink:href="#m72c21ec4cd" x="408.105836" y="240.231147" style="fill: #ff7f0e; stroke: #ff7f0e"/>
     <use xlink:href="#m72c21ec4cd" x="424.66931" y="189.704849" style="fill: #ff7f0e; stroke: #ff7f0e"/>
     <use xlink:href="#m72c21ec4cd" x="441.232784" y="241.302517" style="fill: #ff7f0e; stroke: #ff7f0e"/>
     <use xlink:href="#m72c21ec4cd" x="457.796258" y="233.278982" style="fill: #ff7f0e; stroke: #ff7f0e"/>
     <use xlink:href="#m72c21ec4cd" x="474.359732" y="239.287258" style="fill: #ff7f0e; stroke: #ff7f0e"/>
     <use xlink:href="#m72c21ec4cd" x="490.923206" y="235.972494" style="fill: #ff7f0e; stroke: #ff7f0e"/>
     <use xlink:href="#m72c21ec4cd" x="507.48668" y="230.52038" style="fill: #ff7f0e; stroke: #ff7f0e"/>
     <use xlink:href="#m72c21ec4cd" x="524.050154" y="146.706777" style="fill: #ff7f0e; stroke: #ff7f0e"/>
     <use xlink:href="#m72c21ec4cd" x="557.177102" y="230.774008" style="fill: #ff7f0e; stroke: #ff7f0e"/>
     <use xlink:href="#m72c21ec4cd" x="573.740576" y="229.004029" style="fill: #ff7f0e; stroke: #ff7f0e"/>
     <use xlink:href="#m72c21ec4cd" x="590.30405" y="231.501399" style="fill: #ff7f0e; stroke: #ff7f0e"/>
     <use xlink:href="#m72c21ec4cd" x="606.867524" y="230.639985" style="fill: #ff7f0e; stroke: #ff7f0e"/>
     <use xlink:href="#m72c21ec4cd" x="623.430998" y="229.436076" style="fill: #ff7f0e; stroke: #ff7f0e"/>
     <use xlink:href="#m72c21ec4cd" x="639.994472" y="231.485804" style="fill: #ff7f0e; stroke: #ff7f0e"/>
     <use xlink:href="#m72c21ec4cd" x="656.557946" y="230.727585" style="fill: #ff7f0e; stroke: #ff7f0e"/>
     <use xlink:href="#m72c21ec4cd" x="673.12142" y="212.482843" style="fill: #ff7f0e; stroke: #ff7f0e"/>
    </g>
   </g>
   <g id="line2d_25">
    <path d="M 93.39983 243.349852 
L 109.963304 223.619594 
L 126.526778 201.129601 
L 143.090252 243.806119 
L 159.653726 184.704173 
L 176.2172 244.368467 
L 192.780674 243.795419 
L 209.344148 244.103655 
L 225.907622 197.262068 
L 242.471096 243.390599 
L 259.03457 244.138159 
L 275.598044 243.922606 
L 292.161518 204.256001 
L 308.724992 241.122662 
L 325.288466 243.147444 
L 341.85194 244.556044 
L 374.978888 244.41722 
L 391.542362 210.352231 
L 408.105836 244.216154 
L 424.66931 180.406408 
L 441.232784 244.148748 
L 457.796258 204.288714 
L 474.359732 243.695651 
L 490.923206 228.295832 
L 507.48668 242.841875 
L 524.050154 177.308748 
L 557.177102 244.050971 
L 573.740576 209.600693 
L 590.30405 242.917399 
L 606.867524 243.991326 
L 623.430998 225.594644 
L 639.994472 243.899703 
L 656.557946 244.243195 
L 673.12142 203.92639 
" clip-path="url(#p0b194d6d27)" style="fill: none; stroke: #2ca02c; stroke-width: 2; stroke-linecap: square"/>
    <defs>
     <path id="me5f5966edf" d="M 0 3 
C 0.795609 3 1.55874 2.683901 2.12132 2.12132 
C 2.683901 1.55874 3 0.795609 3 0 
C 3 -0.795609 2.683901 -1.55874 2.12132 -2.12132 
C 1.55874 -2.683901 0.795609 -3 0 -3 
C -0.795609 -3 -1.55874 -2.683901 -2.12132 -2.12132 
C -2.683901 -1.55874 -3 -0.795609 -3 0 
C -3 0.795609 -2.683901 1.55874 -2.12132 2.12132 
C -1.55874 2.683901 -0.795609 3 0 3 
z
" style="stroke: #2ca02c"/>
    </defs>
    <g clip-path="url(#p0b194d6d27)">
     <use xlink:href="#me5f5966edf" x="93.39983" y="243.349852" style="fill: #2ca02c; stroke: #2ca02c"/>
     <use xlink:href="#me5f5966edf" x="109.963304" y="223.619594" style="fill: #2ca02c; stroke: #2ca02c"/>
     <use xlink:href="#me5f5966edf" x="126.526778" y="201.129601" style="fill: #2ca02c; stroke: #2ca02c"/>
     <use xlink:href="#me5f5966edf" x="143.090252" y="243.806119" style="fill: #2ca02c; stroke: #2ca02c"/>
     <use xlink:href="#me5f5966edf" x="159.653726" y="184.704173" style="fill: #2ca02c; stroke: #2ca02c"/>
     <use xlink:href="#me5f5966edf" x="176.2172" y="244.368467" style="fill: #2ca02c; stroke: #2ca02c"/>
     <use xlink:href="#me5f5966edf" x="192.780674" y="243.795419" style="fill: #2ca02c; stroke: #2ca02c"/>
     <use xlink:href="#me5f5966edf" x="209.344148" y="244.103655" style="fill: #2ca02c; stroke: #2ca02c"/>
     <use xlink:href="#me5f5966edf" x="225.907622" y="197.262068" style="fill: #2ca02c; stroke: #2ca02c"/>
     <use xlink:href="#me5f5966edf" x="242.471096" y="243.390599" style="fill: #2ca02c; stroke: #2ca02c"/>
     <use xlink:href="#me5f5966edf" x="259.03457" y="244.138159" style="fill: #2ca02c; stroke: #2ca02c"/>
     <use xlink:href="#me5f5966edf" x="275.598044" y="243.922606" style="fill: #2ca02c; stroke: #2ca02c"/>
     <use xlink:href="#me5f5966edf" x="292.161518" y="204.256001" style="fill: #2ca02c; stroke: #2ca02c"/>
     <use xlink:href="#me5f5966edf" x="308.724992" y="241.122662" style="fill: #2ca02c; stroke: #2ca02c"/>
     <use xlink:href="#me5f5966edf" x="325.288466" y="243.147444" style="fill: #2ca02c; stroke: #2ca02c"/>
     <use xlink:href="#me5f5966edf" x="341.85194" y="244.556044" style="fill: #2ca02c; stroke: #2ca02c"/>
     <use xlink:href="#me5f5966edf" x="374.978888" y="244.41722" style="fill: #2ca02c; stroke: #2ca02c"/>
     <use xlink:href="#me5f5966edf" x="391.542362" y="210.352231" style="fill: #2ca02c; stroke: #2ca02c"/>
     <use xlink:href="#me5f5966edf" x="408.105836" y="244.216154" style="fill: #2ca02c; stroke: #2ca02c"/>
     <use xlink:href="#me5f5966edf" x="424.66931" y="180.406408" style="fill: #2ca02c; stroke: #2ca02c"/>
     <use xlink:href="#me5f5966edf" x="441.232784" y="244.148748" style="fill: #2ca02c; stroke: #2ca02c"/>
     <use xlink:href="#me5f5966edf" x="457.796258" y="204.288714" style="fill: #2ca02c; stroke: #2ca02c"/>
     <use xlink:href="#me5f5966edf" x="474.359732" y="243.695651" style="fill: #2ca02c; stroke: #2ca02c"/>
     <use xlink:href="#me5f5966edf" x="490.923206" y="228.295832" style="fill: #2ca02c; stroke: #2ca02c"/>
     <use xlink:href="#me5f5966edf" x="507.48668" y="242.841875" style="fill: #2ca02c; stroke: #2ca02c"/>
     <use xlink:href="#me5f5966edf" x="524.050154" y="177.308748" style="fill: #2ca02c; stroke: #2ca02c"/>
     <use xlink:href="#me5f5966edf" x="557.177102" y="244.050971" style="fill: #2ca02c; stroke: #2ca02c"/>
     <use xlink:href="#me5f5966edf" x="573.740576" y="209.600693" style="fill: #2ca02c; stroke: #2ca02c"/>
     <use xlink:href="#me5f5966edf" x="590.30405" y="242.917399" style="fill: #2ca02c; stroke: #2ca02c"/>
     <use xlink:href="#me5f5966edf" x="606.867524" y="243.991326" style="fill: #2ca02c; stroke: #2ca02c"/>
     <use xlink:href="#me5f5966edf" x="623.430998" y="225.594644" style="fill: #2ca02c; stroke: #2ca02c"/>
     <use xlink:href="#me5f5966edf" x="639.994472" y="243.899703" style="fill: #2ca02c; stroke: #2ca02c"/>
     <use xlink:href="#me5f5966edf" x="656.557946" y="244.243195" style="fill: #2ca02c; stroke: #2ca02c"/>
     <use xlink:href="#me5f5966edf" x="673.12142" y="203.92639" style="fill: #2ca02c; stroke: #2ca02c"/>
    </g>
   </g>
   <g id="line2d_26">
    <path d="M 93.39983 502.680728 
L 109.963304 504.277413 
L 126.526778 503.215413 
L 143.090252 504.593599 
L 159.653726 309.16403 
L 176.2172 494.250538 
L 192.780674 503.399241 
L 209.344148 418.548271 
L 225.907622 504.370614 
L 242.471096 504.494296 
L 259.03457 503.62672 
L 275.598044 504.729074 
L 292.161518 502.00996 
L 325.288466 503.678058 
L 341.85194 502.946523 
L 374.978888 503.851747 
L 391.542362 504.956529 
L 408.105836 502.576119 
L 424.66931 504.135135 
L 441.232784 504.24667 
L 474.359732 503.661928 
L 490.923206 504.300869 
L 507.48668 503.163951 
L 524.050154 504.616764 
L 557.177102 504.224169 
L 573.740576 308.913048 
L 590.30405 504.437523 
L 606.867524 504.604388 
L 623.430998 505.156454 
L 639.994472 504.803425 
L 656.557946 504.361736 
L 673.12142 504.12088 
" clip-path="url(#p0b194d6d27)" style="fill: none; stroke: #d62728; stroke-width: 2; stroke-linecap: square"/>
    <defs>
     <path id="m97b56b00f8" d="M 0 3 
C 0.795609 3 1.55874 2.683901 2.12132 2.12132 
C 2.683901 1.55874 3 0.795609 3 0 
C 3 -0.795609 2.683901 -1.55874 2.12132 -2.12132 
C 1.55874 -2.683901 0.795609 -3 0 -3 
C -0.795609 -3 -1.55874 -2.683901 -2.12132 -2.12132 
C -2.683901 -1.55874 -3 -0.795609 -3 0 
C -3 0.795609 -2.683901 1.55874 -2.12132 2.12132 
C -1.55874 2.683901 -0.795609 3 0 3 
z
" style="stroke: #d62728"/>
    </defs>
    <g clip-path="url(#p0b194d6d27)">
     <use xlink:href="#m97b56b00f8" x="93.39983" y="502.680728" style="fill: #d62728; stroke: #d62728"/>
     <use xlink:href="#m97b56b00f8" x="109.963304" y="504.277413" style="fill: #d62728; stroke: #d62728"/>
     <use xlink:href="#m97b56b00f8" x="126.526778" y="503.215413" style="fill: #d62728; stroke: #d62728"/>
     <use xlink:href="#m97b56b00f8" x="143.090252" y="504.593599" style="fill: #d62728; stroke: #d62728"/>
     <use xlink:href="#m97b56b00f8" x="159.653726" y="309.16403" style="fill: #d62728; stroke: #d62728"/>
     <use xlink:href="#m97b56b00f8" x="176.2172" y="494.250538" style="fill: #d62728; stroke: #d62728"/>
     <use xlink:href="#m97b56b00f8" x="192.780674" y="503.399241" style="fill: #d62728; stroke: #d62728"/>
     <use xlink:href="#m97b56b00f8" x="209.344148" y="418.548271" style="fill: #d62728; stroke: #d62728"/>
     <use xlink:href="#m97b56b00f8" x="225.907622" y="504.370614" style="fill: #d62728; stroke: #d62728"/>
     <use xlink:href="#m97b56b00f8" x="242.471096" y="504.494296" style="fill: #d62728; stroke: #d62728"/>
     <use xlink:href="#m97b56b00f8" x="259.03457" y="503.62672" style="fill: #d62728; stroke: #d62728"/>
     <use xlink:href="#m97b56b00f8" x="275.598044" y="504.729074" style="fill: #d62728; stroke: #d62728"/>
     <use xlink:href="#m97b56b00f8" x="292.161518" y="502.00996" style="fill: #d62728; stroke: #d62728"/>
     <use xlink:href="#m97b56b00f8" x="325.288466" y="503.678058" style="fill: #d62728; stroke: #d62728"/>
     <use xlink:href="#m97b56b00f8" x="341.85194" y="502.946523" style="fill: #d62728; stroke: #d62728"/>
     <use xlink:href="#m97b56b00f8" x="374.978888" y="503.851747" style="fill: #d62728; stroke: #d62728"/>
     <use xlink:href="#m97b56b00f8" x="391.542362" y="504.956529" style="fill: #d62728; stroke: #d62728"/>
     <use xlink:href="#m97b56b00f8" x="408.105836" y="502.576119" style="fill: #d62728; stroke: #d62728"/>
     <use xlink:href="#m97b56b00f8" x="424.66931" y="504.135135" style="fill: #d62728; stroke: #d62728"/>
     <use xlink:href="#m97b56b00f8" x="441.232784" y="504.24667" style="fill: #d62728; stroke: #d62728"/>
     <use xlink:href="#m97b56b00f8" x="474.359732" y="503.661928" style="fill: #d62728; stroke: #d62728"/>
     <use xlink:href="#m97b56b00f8" x="490.923206" y="504.300869" style="fill: #d62728; stroke: #d62728"/>
     <use xlink:href="#m97b56b00f8" x="507.48668" y="503.163951" style="fill: #d62728; stroke: #d62728"/>
     <use xlink:href="#m97b56b00f8" x="524.050154" y="504.616764" style="fill: #d62728; stroke: #d62728"/>
     <use xlink:href="#m97b56b00f8" x="557.177102" y="504.224169" style="fill: #d62728; stroke: #d62728"/>
     <use xlink:href="#m97b56b00f8" x="573.740576" y="308.913048" style="fill: #d62728; stroke: #d62728"/>
     <use xlink:href="#m97b56b00f8" x="590.30405" y="504.437523" style="fill: #d62728; stroke: #d62728"/>
     <use xlink:href="#m97b56b00f8" x="606.867524" y="504.604388" style="fill: #d62728; stroke: #d62728"/>
     <use xlink:href="#m97b56b00f8" x="623.430998" y="505.156454" style="fill: #d62728; stroke: #d62728"/>
     <use xlink:href="#m97b56b00f8" x="639.994472" y="504.803425" style="fill: #d62728; stroke: #d62728"/>
     <use xlink:href="#m97b56b00f8" x="656.557946" y="504.361736" style="fill: #d62728; stroke: #d62728"/>
     <use xlink:href="#m97b56b00f8" x="673.12142" y="504.12088" style="fill: #d62728; stroke: #d62728"/>
    </g>
   </g>
   <g id="line2d_27">
    <path d="M 93.39983 471.004965 
L 109.963304 467.269233 
L 126.526778 470.0713 
L 143.090252 470.070459 
L 159.653726 415.705857 
L 176.2172 418.712813 
L 192.780674 469.040469 
L 209.344148 397.64394 
L 225.907622 468.929053 
L 242.471096 470.2979 
L 259.03457 468.286833 
L 275.598044 472.079244 
L 292.161518 463.2088 
L 325.288466 467.861547 
L 341.85194 471.397053 
L 374.978888 466.896211 
L 391.542362 465.154488 
L 408.105836 470.525807 
L 424.66931 470.246792 
L 441.232784 471.76854 
L 474.359732 471.906211 
L 490.923206 466.209715 
L 507.48668 506.332202 
L 524.050154 505.814771 
L 557.177102 505.927937 
L 573.740576 417.887019 
L 590.30405 503.97045 
L 606.867524 505.167583 
L 623.430998 505.918691 
L 639.994472 505.928574 
L 656.557946 505.689864 
L 673.12142 504.317352 
" clip-path="url(#p0b194d6d27)" style="fill: none; stroke: #9467bd; stroke-width: 2; stroke-linecap: square"/>
    <defs>
     <path id="m1b8c35b57f" d="M 0 3 
C 0.795609 3 1.55874 2.683901 2.12132 2.12132 
C 2.683901 1.55874 3 0.795609 3 0 
C 3 -0.795609 2.683901 -1.55874 2.12132 -2.12132 
C 1.55874 -2.683901 0.795609 -3 0 -3 
C -0.795609 -3 -1.55874 -2.683901 -2.12132 -2.12132 
C -2.683901 -1.55874 -3 -0.795609 -3 0 
C -3 0.795609 -2.683901 1.55874 -2.12132 2.12132 
C -1.55874 2.683901 -0.795609 3 0 3 
z
" style="stroke: #9467bd"/>
    </defs>
    <g clip-path="url(#p0b194d6d27)">
     <use xlink:href="#m1b8c35b57f" x="93.39983" y="471.004965" style="fill: #9467bd; stroke: #9467bd"/>
     <use xlink:href="#m1b8c35b57f" x="109.963304" y="467.269233" style="fill: #9467bd; stroke: #9467bd"/>
     <use xlink:href="#m1b8c35b57f" x="126.526778" y="470.0713" style="fill: #9467bd; stroke: #9467bd"/>
     <use xlink:href="#m1b8c35b57f" x="143.090252" y="470.070459" style="fill: #9467bd; stroke: #9467bd"/>
     <use xlink:href="#m1b8c35b57f" x="159.653726" y="415.705857" style="fill: #9467bd; stroke: #9467bd"/>
     <use xlink:href="#m1b8c35b57f" x="176.2172" y="418.712813" style="fill: #9467bd; stroke: #9467bd"/>
     <use xlink:href="#m1b8c35b57f" x="192.780674" y="469.040469" style="fill: #9467bd; stroke: #9467bd"/>
     <use xlink:href="#m1b8c35b57f" x="209.344148" y="397.64394" style="fill: #9467bd; stroke: #9467bd"/>
     <use xlink:href="#m1b8c35b57f" x="225.907622" y="468.929053" style="fill: #9467bd; stroke: #9467bd"/>
     <use xlink:href="#m1b8c35b57f" x="242.471096" y="470.2979" style="fill: #9467bd; stroke: #9467bd"/>
     <use xlink:href="#m1b8c35b57f" x="259.03457" y="468.286833" style="fill: #9467bd; stroke: #9467bd"/>
     <use xlink:href="#m1b8c35b57f" x="275.598044" y="472.079244" style="fill: #9467bd; stroke: #9467bd"/>
     <use xlink:href="#m1b8c35b57f" x="292.161518" y="463.2088" style="fill: #9467bd; stroke: #9467bd"/>
     <use xlink:href="#m1b8c35b57f" x="325.288466" y="467.861547" style="fill: #9467bd; stroke: #9467bd"/>
     <use xlink:href="#m1b8c35b57f" x="341.85194" y="471.397053" style="fill: #9467bd; stroke: #9467bd"/>
     <use xlink:href="#m1b8c35b57f" x="374.978888" y="466.896211" style="fill: #9467bd; stroke: #9467bd"/>
     <use xlink:href="#m1b8c35b57f" x="391.542362" y="465.154488" style="fill: #9467bd; stroke: #9467bd"/>
     <use xlink:href="#m1b8c35b57f" x="408.105836" y="470.525807" style="fill: #9467bd; stroke: #9467bd"/>
     <use xlink:href="#m1b8c35b57f" x="424.66931" y="470.246792" style="fill: #9467bd; stroke: #9467bd"/>
     <use xlink:href="#m1b8c35b57f" x="441.232784" y="471.76854" style="fill: #9467bd; stroke: #9467bd"/>
     <use xlink:href="#m1b8c35b57f" x="474.359732" y="471.906211" style="fill: #9467bd; stroke: #9467bd"/>
     <use xlink:href="#m1b8c35b57f" x="490.923206" y="466.209715" style="fill: #9467bd; stroke: #9467bd"/>
     <use xlink:href="#m1b8c35b57f" x="507.48668" y="506.332202" style="fill: #9467bd; stroke: #9467bd"/>
     <use xlink:href="#m1b8c35b57f" x="524.050154" y="505.814771" style="fill: #9467bd; stroke: #9467bd"/>
     <use xlink:href="#m1b8c35b57f" x="557.177102" y="505.927937" style="fill: #9467bd; stroke: #9467bd"/>
     <use xlink:href="#m1b8c35b57f" x="573.740576" y="417.887019" style="fill: #9467bd; stroke: #9467bd"/>
     <use xlink:href="#m1b8c35b57f" x="590.30405" y="503.97045" style="fill: #9467bd; stroke: #9467bd"/>
     <use xlink:href="#m1b8c35b57f" x="606.867524" y="505.167583" style="fill: #9467bd; stroke: #9467bd"/>
     <use xlink:href="#m1b8c35b57f" x="623.430998" y="505.918691" style="fill: #9467bd; stroke: #9467bd"/>
     <use xlink:href="#m1b8c35b57f" x="639.994472" y="505.928574" style="fill: #9467bd; stroke: #9467bd"/>
     <use xlink:href="#m1b8c35b57f" x="656.557946" y="505.689864" style="fill: #9467bd; stroke: #9467bd"/>
     <use xlink:href="#m1b8c35b57f" x="673.12142" y="504.317352" style="fill: #9467bd; stroke: #9467bd"/>
    </g>
   </g>
   <g id="line2d_28">
    <path d="M 93.39983 235.93197 
L 109.963304 234.666368 
L 126.526778 235.462446 
L 143.090252 234.538041 
L 159.653726 181.744068 
L 176.2172 182.994846 
L 192.780674 235.101143 
L 209.344148 178.134856 
L 225.907622 236.529293 
L 242.471096 235.142873 
L 259.03457 235.315769 
L 275.598044 235.318545 
L 292.161518 234.347947 
L 325.288466 235.558462 
L 341.85194 234.767409 
L 374.978888 235.91552 
L 391.542362 236.532687 
L 408.105836 236.25693 
L 424.66931 237.210274 
L 441.232784 234.52059 
L 474.359732 235.539618 
L 490.923206 235.17146 
L 507.48668 238.09033 
L 524.050154 239.800807 
L 557.177102 239.313947 
L 573.740576 183.600343 
L 590.30405 239.802647 
L 606.867524 239.526086 
L 623.430998 238.880009 
L 639.994472 239.12644 
L 656.557946 238.477748 
L 673.12142 238.479702 
" clip-path="url(#p0b194d6d27)" style="fill: none; stroke: #8c564b; stroke-width: 2; stroke-linecap: square"/>
    <defs>
     <path id="m56e548d97e" d="M 0 3 
C 0.795609 3 1.55874 2.683901 2.12132 2.12132 
C 2.683901 1.55874 3 0.795609 3 0 
C 3 -0.795609 2.683901 -1.55874 2.12132 -2.12132 
C 1.55874 -2.683901 0.795609 -3 0 -3 
C -0.795609 -3 -1.55874 -2.683901 -2.12132 -2.12132 
C -2.683901 -1.55874 -3 -0.795609 -3 0 
C -3 0.795609 -2.683901 1.55874 -2.12132 2.12132 
C -1.55874 2.683901 -0.795609 3 0 3 
z
" style="stroke: #8c564b"/>
    </defs>
    <g clip-path="url(#p0b194d6d27)">
     <use xlink:href="#m56e548d97e" x="93.39983" y="235.93197" style="fill: #8c564b; stroke: #8c564b"/>
     <use xlink:href="#m56e548d97e" x="109.963304" y="234.666368" style="fill: #8c564b; stroke: #8c564b"/>
     <use xlink:href="#m56e548d97e" x="126.526778" y="235.462446" style="fill: #8c564b; stroke: #8c564b"/>
     <use xlink:href="#m56e548d97e" x="143.090252" y="234.538041" style="fill: #8c564b; stroke: #8c564b"/>
     <use xlink:href="#m56e548d97e" x="159.653726" y="181.744068" style="fill: #8c564b; stroke: #8c564b"/>
     <use xlink:href="#m56e548d97e" x="176.2172" y="182.994846" style="fill: #8c564b; stroke: #8c564b"/>
     <use xlink:href="#m56e548d97e" x="192.780674" y="235.101143" style="fill: #8c564b; stroke: #8c564b"/>
     <use xlink:href="#m56e548d97e" x="209.344148" y="178.134856" style="fill: #8c564b; stroke: #8c564b"/>
     <use xlink:href="#m56e548d97e" x="225.907622" y="236.529293" style="fill: #8c564b; stroke: #8c564b"/>
     <use xlink:href="#m56e548d97e" x="242.471096" y="235.142873" style="fill: #8c564b; stroke: #8c564b"/>
     <use xlink:href="#m56e548d97e" x="259.03457" y="235.315769" style="fill: #8c564b; stroke: #8c564b"/>
     <use xlink:href="#m56e548d97e" x="275.598044" y="235.318545" style="fill: #8c564b; stroke: #8c564b"/>
     <use xlink:href="#m56e548d97e" x="292.161518" y="234.347947" style="fill: #8c564b; stroke: #8c564b"/>
     <use xlink:href="#m56e548d97e" x="325.288466" y="235.558462" style="fill: #8c564b; stroke: #8c564b"/>
     <use xlink:href="#m56e548d97e" x="341.85194" y="234.767409" style="fill: #8c564b; stroke: #8c564b"/>
     <use xlink:href="#m56e548d97e" x="374.978888" y="235.91552" style="fill: #8c564b; stroke: #8c564b"/>
     <use xlink:href="#m56e548d97e" x="391.542362" y="236.532687" style="fill: #8c564b; stroke: #8c564b"/>
     <use xlink:href="#m56e548d97e" x="408.105836" y="236.25693" style="fill: #8c564b; stroke: #8c564b"/>
     <use xlink:href="#m56e548d97e" x="424.66931" y="237.210274" style="fill: #8c564b; stroke: #8c564b"/>
     <use xlink:href="#m56e548d97e" x="441.232784" y="234.52059" style="fill: #8c564b; stroke: #8c564b"/>
     <use xlink:href="#m56e548d97e" x="474.359732" y="235.539618" style="fill: #8c564b; stroke: #8c564b"/>
     <use xlink:href="#m56e548d97e" x="490.923206" y="235.17146" style="fill: #8c564b; stroke: #8c564b"/>
     <use xlink:href="#m56e548d97e" x="507.48668" y="238.09033" style="fill: #8c564b; stroke: #8c564b"/>
     <use xlink:href="#m56e548d97e" x="524.050154" y="239.800807" style="fill: #8c564b; stroke: #8c564b"/>
     <use xlink:href="#m56e548d97e" x="557.177102" y="239.313947" style="fill: #8c564b; stroke: #8c564b"/>
     <use xlink:href="#m56e548d97e" x="573.740576" y="183.600343" style="fill: #8c564b; stroke: #8c564b"/>
     <use xlink:href="#m56e548d97e" x="590.30405" y="239.802647" style="fill: #8c564b; stroke: #8c564b"/>
     <use xlink:href="#m56e548d97e" x="606.867524" y="239.526086" style="fill: #8c564b; stroke: #8c564b"/>
     <use xlink:href="#m56e548d97e" x="623.430998" y="238.880009" style="fill: #8c564b; stroke: #8c564b"/>
     <use xlink:href="#m56e548d97e" x="639.994472" y="239.12644" style="fill: #8c564b; stroke: #8c564b"/>
     <use xlink:href="#m56e548d97e" x="656.557946" y="238.477748" style="fill: #8c564b; stroke: #8c564b"/>
     <use xlink:href="#m56e548d97e" x="673.12142" y="238.479702" style="fill: #8c564b; stroke: #8c564b"/>
    </g>
   </g>
   <g id="patch_3">
    <path d="M 64.41375 529.308125 
L 64.41375 23.837812 
" style="fill: none; stroke: #000000; stroke-width: 0.8; stroke-linejoin: miter; stroke-linecap: square"/>
   </g>
   <g id="patch_4">
    <path d="M 702.1075 529.308125 
L 702.1075 23.837812 
" style="fill: none; stroke: #000000; stroke-width: 0.8; stroke-linejoin: miter; stroke-linecap: square"/>
   </g>
   <g id="patch_5">
    <path d="M 64.41375 529.308125 
L 702.1075 529.308125 
" style="fill: none; stroke: #000000; stroke-width: 0.8; stroke-linejoin: miter; stroke-linecap: square"/>
   </g>
   <g id="patch_6">
    <path d="M 64.41375 23.837812 
L 702.1075 23.837812 
" style="fill: none; stroke: #000000; stroke-width: 0.8; stroke-linejoin: miter; stroke-linecap: square"/>
   </g>
   <g id="text_15">
    <text style="font: 700 14px 'DejaVu Sans', 'Bitstream Vera Sans', 'Computer Modern Sans Serif', 'Lucida Grande', 'Verdana', 'Geneva', 'Lucid', 'Arial', 'Helvetica', 'Avant Garde', sans-serif; text-anchor: middle" x="383.260625" y="17.837813" transform="rotate(-0 383.260625 17.837813)">Parallelfor Vectorops - Performance Trend</text>
   </g>
   <g id="legend_1">
    <g id="patch_7">
     <path d="M 740.992188 119.906563 
L 846.004688 119.906563 
Q 848.004688 119.906563 848.004688 117.906563 
L 848.004688 30.837813 
Q 848.004688 28.837813 846.004688 28.837813 
L 740.992188 28.837813 
Q 738.992188 28.837813 738.992188 30.837813 
L 738.992188 117.906563 
Q 738.992188 119.906563 740.992188 119.906563 
z
" style="fill: #ffffff; opacity: 0.8; stroke: #cccccc; stroke-linejoin: miter"/>
    </g>
    <g id="line2d_29">
     <path d="M 742.992188 36.93625 
L 752.992188 36.93625 
L 762.992188 36.93625 
" style="fill: none; stroke: #1f77b4; stroke-width: 2; stroke-linecap: square"/>
     <g>
      <use xlink:href="#m174f60f851" x="752.992188" y="36.93625" style="fill: #1f77b4; stroke: #1f77b4"/>
     </g>
    </g>
    <g id="text_16">
     <text style="font: 10px 'DejaVu Sans', 'Bitstream Vera Sans', 'Computer Modern Sans Serif', 'Lucida Grande', 'Verdana', 'Geneva', 'Lucid', 'Arial', 'Helvetica', 'Avant Garde', sans-serif; text-anchor: start" x="770.992188" y="40.43625" transform="rotate(-0 770.992188 40.43625)">gcc-14.2 - V1</text>
    </g>
    <g id="line2d_30">
     <path d="M 742.992188 51.614375 
L 752.992188 51.614375 
L 762.992188 51.614375 
" style="fill: none; stroke: #ff7f0e; stroke-width: 2; stroke-linecap: square"/>
     <g>
      <use xlink:href="#m72c21ec4cd" x="752.992188" y="51.614375" style="fill: #ff7f0e; stroke: #ff7f0e"/>
     </g>
    </g>
    <g id="text_17">
     <text style="font: 10px 'DejaVu Sans', 'Bitstream Vera Sans', 'Computer Modern Sans Serif', 'Lucida Grande', 'Verdana', 'Geneva', 'Lucid', 'Arial', 'Helvetica', 'Avant Garde', sans-serif; text-anchor: start" x="770.992188" y="55.114375" transform="rotate(-0 770.992188 55.114375)">gcc-14.2 - V2</text>
    </g>
    <g id="line2d_31">
     <path d="M 742.992188 66.2925 
L 752.992188 66.2925 
L 762.992188 66.2925 
" style="fill: none; stroke: #2ca02c; stroke-width: 2; stroke-linecap: square"/>
     <g>
      <use xlink:href="#me5f5966edf" x="752.992188" y="66.2925" style="fill: #2ca02c; stroke: #2ca02c"/>
     </g>
    </g>
    <g id="text_18">
     <text style="font: 10px 'DejaVu Sans', 'Bitstream Vera Sans', 'Computer Modern Sans Serif', 'Lucida Grande', 'Verdana', 'Geneva', 'Lucid', 'Arial', 'Helvetica', 'Avant Garde', sans-serif; text-anchor: start" x="770.992188" y="69.7925" transform="rotate(-0 770.992188 69.7925)">gcc-14.2 - TBB</text>
    </g>
    <g id="line2d_32">
     <path d="M 742.992188 80.970625 
L 752.992188 80.970625 
L 762.992188 80.970625 
" style="fill: none; stroke: #d62728; stroke-width: 2; stroke-linecap: square"/>
     <g>
      <use xlink:href="#m97b56b00f8" x="752.992188" y="80.970625" style="fill: #d62728; stroke: #d62728"/>
     </g>
    </g>
    <g id="text_19">
     <text style="font: 10px 'DejaVu Sans', 'Bitstream Vera Sans', 'Computer Modern Sans Serif', 'Lucida Grande', 'Verdana', 'Geneva', 'Lucid', 'Arial', 'Helvetica', 'Avant Garde', sans-serif; text-anchor: start" x="770.992188" y="84.470625" transform="rotate(-0 770.992188 84.470625)">gcc-4.2 - V1</text>
    </g>
    <g id="line2d_33">
     <path d="M 742.992188 95.64875 
L 752.992188 95.64875 
L 762.992188 95.64875 
" style="fill: none; stroke: #9467bd; stroke-width: 2; stroke-linecap: square"/>
     <g>
      <use xlink:href="#m1b8c35b57f" x="752.992188" y="95.64875" style="fill: #9467bd; stroke: #9467bd"/>
     </g>
    </g>
    <g id="text_20">
     <text style="font: 10px 'DejaVu Sans', 'Bitstream Vera Sans', 'Computer Modern Sans Serif', 'Lucida Grande', 'Verdana', 'Geneva', 'Lucid', 'Arial', 'Helvetica', 'Avant Garde', sans-serif; text-anchor: start" x="770.992188" y="99.14875" transform="rotate(-0 770.992188 99.14875)">gcc-4.2 - V2</text>
    </g>
    <g id="line2d_34">
     <path d="M 742.992188 110.326875 
L 752.992188 110.326875 
L 762.992188 110.326875 
" style="fill: none; stroke: #8c564b; stroke-width: 2; stroke-linecap: square"/>
     <g>
      <use xlink:href="#m56e548d97e" x="752.992188" y="110.326875" style="fill: #8c564b; stroke: #8c564b"/>
     </g>
    </g>
    <g id="text_21">
     <text style="font: 10px 'DejaVu Sans', 'Bitstream Vera Sans', 'Computer Modern Sans Serif', 'Lucida Grande', 'Verdana', 'Geneva', 'Lucid', 'Arial', 'Helvetica', 'Avant Garde', sans-serif; text-anchor: start" x="770.992188" y="113.826875" transform="rotate(-0 770.992188 113.826875)">gcc-4.2 - TBB</text>
    </g>
   </g>
  </g>
 </g>
 <defs>
  <clipPath id="p0b194d6d27">
   <rect x="64.41375" y="23.837813" width="637.69375" height="505.470313"/>
  </clipPath>
 </defs>
</svg>
