<?xml version="1.0" encoding="utf-8" standalone="no"?>
<!DOCTYPE svg PUBLIC "-//W3C//DTD SVG 1.1//EN"
  "http://www.w3.org/Graphics/SVG/1.1/DTD/svg11.dtd">
<svg xmlns:xlink="http://www.w3.org/1999/xlink" width="847.676719pt" height="568.8pt" viewBox="0 0 847.676719 568.8" xmlns="http://www.w3.org/2000/svg" version="1.1">
 <metadata>
  <rdf:RDF xmlns:dc="http://purl.org/dc/elements/1.1/" xmlns:cc="http://creativecommons.org/ns#" xmlns:rdf="http://www.w3.org/1999/02/22-rdf-syntax-ns#">
   <cc:Work>
    <dc:type rdf:resource="http://purl.org/dc/dcmitype/StillImage"/>
    <dc:date>2026-03-15T20:01:12.965770</dc:date>
    <dc:format>image/svg+xml</dc:format>
    <dc:creator>
     <cc:Agent>
      <dc:title>Matplotlib v3.9.4, https://matplotlib.org/</dc:title>
     </cc:Agent>
    </dc:creator>
   </cc:Work>
  </rdf:RDF>
 </metadata>
 <defs>
  <style type="text/css">*{stroke-linejoin: round; stroke-linecap: butt}</style>
 </defs>
 <g id="figure_1">
  <g id="patch_1">
   <path d="M 0 568.8 
L 847.676719 568.8 
L 847.676719 0 
L 0 0 
z
" style="fill: #ffffff"/>
  </g>
  <g id="axes_1">
   <g id="patch_2">
    <path d="M 64.41375 529.308125 
L 551.548125 529.308125 
L 551.548125 23.837812 
L 64.41375 23.837812 
z
" style="fill: #ffffff"/>
   </g>
   <g id="matplotlib.axis_1">
    <g id="xtick_1">
     <g id="line2d_1">
      <path d="M 71.794574 529.308125 
L 71.794574 23.837812 
" clip-path="url(#p1882627e28)" style="fill: none; stroke: #b0b0b0; stroke-opacity: 0.3; stroke-width: 0.8; stroke-linecap: square"/>
     </g>
     <g id="line2d_2">
      <defs>
       <path id="m9677d4c760" d="M 0 0 
L 0 3.5 
" style="stroke: #000000; stroke-width: 0.8"/>
      </defs>
      <g>
       <use xlink:href="#m9677d4c760" x="71.794574" y="529.308125" style="stroke: #000000; stroke-width: 0.8"/>
      </g>
     </g>
     <g id="text_1">
      <text style="font: 10px 'DejaVu Sans', 'Bitstream Vera Sans', 'Computer Modern Sans Serif', 'Lucida Grande', 'Verdana', 'Geneva', 'Lucid', 'Arial', 'Helvetica', 'Avant Garde', sans-serif; text-anchor: middle" x="71.794574" y="543.906563" transform="rotate(-0 71.794574 543.906563)">95</text>
     </g>
    </g>
    <g id="xtick_2">
     <g id="line2d_3">
      <path d="M 145.602813 529.308125 
L 145.602813 23.837812 
" clip-path="url(#p1882627e28)" style="fill: none; stroke: #b0b0b0; stroke-opacity: 0.3; stroke-width: 0.8; stroke-linecap: square"/>
     </g>
     <g id="line2d_4">
      <g>
       <use xlink:href="#m9677d4c760" x="145.602813" y="529.308125" style="stroke: #000000; stroke-width: 0.8"/>
      </g>
     </g>
     <g id="text_2">
      <text style="font: 10px 'DejaVu Sans', 'Bitstream Vera Sans', 'Computer Modern Sans Serif', 'Lucida Grande', 'Verdana', 'Geneva', 'Lucid', 'Arial', 'Helvetica', 'Avant Garde', sans-serif; text-anchor: middle" x="145.602813" y="543.906563" transform="rotate(-0 145.602813 543.906563)">100</text>
     </g>
    </g>
    <g id="xtick_3">
     <g id="line2d_5">
      <path d="M 219.411051 529.308125 
L 219.411051 23.837812 
" clip-path="url(#p1882627e28)" style="fill: none; stroke: #b0b0b0; stroke-opacity: 0.3; stroke-width: 0.8; stroke-linecap: square"/>
     </g>
     <g id="line2d_6">
      <g>
       <use xlink:href="#m9677d4c760" x="219.411051" y="529.308125" style="stroke: #000000; stroke-width: 0.8"/>
      </g>
     </g>
     <g id="text_3">
      <text style="font: 10px 'DejaVu Sans', 'Bitstream Vera Sans', 'Computer Modern Sans Serif', 'Lucida Grande', 'Verdana', 'Geneva', 'Lucid', 'Arial', 'Helvetica', 'Avant Garde', sans-serif; text-anchor: middle" x="219.411051" y="543.906563" transform="rotate(-0 219.411051 543.906563)">105</text>
     </g>
    </g>
    <g id="xtick_4">
     <g id="line2d_7">
      <path d="M 293.21929 529.308125 
L 293.21929 23.837812 
" clip-path="url(#p1882627e28)" style="fill: none; stroke: #b0b0b0; stroke-opacity: 0.3; stroke-width: 0.8; stroke-linecap: square"/>
     </g>
     <g id="line2d_8">
      <g>
       <use xlink:href="#m9677d4c760" x="293.21929" y="529.308125" style="stroke: #000000; stroke-width: 0.8"/>
      </g>
     </g>
     <g id="text_4">
      <text style="font: 10px 'DejaVu Sans', 'Bitstream Vera Sans', 'Computer Modern Sans Serif', 'Lucida Grande', 'Verdana', 'Geneva', 'Lucid', 'Arial', 'Helvetica', 'Avant Garde', sans-serif; text-anchor: middle" x="293.21929" y="543.906563" transform="rotate(-0 293.21929 543.906563)">110</text>
     </g>
    </g>
    <g id="xtick_5">
     <g id="line2d_9">
      <path d="M 367.027528 529.308125 
L 367.027528 23.837812 
" clip-path="url(#p1882627e28)" style="fill: none; stroke: #b0b0b0; stroke-opacity: 0.3; stroke-width: 0.8; stroke-linecap: square"/>
     </g>
     <g id="line2d_10">
      <g>
       <use xlink:href="#m9677d4c760" x="367.027528" y="529.308125" style="stroke: #000000; stroke-width: 0.8"/>
      </g>
     </g>
     <g id="text_5">
      <text style="font: 10px 'DejaVu Sans', 'Bitstream Vera Sans', 'Computer Modern Sans Serif', 'Lucida Grande', 'Verdana', 'Geneva', 'Lucid', 'Arial', 'Helvetica', 'Avant Garde', sans-serif; text-anchor: middle" x="367.027528" y="543.906563" transform="rotate(-0 367.027528 543.906563)">115</text>
     </g>
    </g>
    <g id="xtick_6">
     <g id="line2d_11">
      <path d="M 440.835767 529.308125 
L 440.835767 23.837812 
" clip-path="url(#p1882627e28)" style="fill: none; stroke: #b0b0b0; stroke-opacity: 0.3; stroke-width: 0.8; stroke-linecap: square"/>
     </g>
     <g id="line2d_12">
      <g>
       <use xlink:href="#m9677d4c760" x="440.835767" y="529.308125" style="stroke: #000000; stroke-width: 0.8"/>
      </g>
     </g>
     <g id="text_6">
      <text style="font: 10px 'DejaVu Sans', 'Bitstream Vera Sans', 'Computer Modern Sans Serif', 'Lucida Grande', 'Verdana', 'Geneva', 'Lucid', 'Arial', 'Helvetica', 'Avant Garde', sans-serif; text-anchor: middle" x="440.835767" y="543.906563" transform="rotate(-0 440.835767 543.906563)">120</text>
     </g>
    </g>
    <g id="xtick_7">
     <g id="line2d_13">
      <path d="M 514.644006 529.308125 
L 514.644006 23.837812 
" clip-path="url(#p1882627e28)" style="fill: none; stroke: #b0b0b0; stroke-opacity: 0.3; stroke-width: 0.8; stroke-linecap: square"/>
     </g>
     <g id="line2d_14">
      <g>
       <use xlink:href="#m9677d4c760" x="514.644006" y="529.308125" style="stroke: #000000; stroke-width: 0.8"/>
      </g>
     </g>
     <g id="text_7">
      <text style="font: 10px 'DejaVu Sans', 'Bitstream Vera Sans', 'Computer Modern Sans Serif', 'Lucida Grande', 'Verdana', 'Geneva', 'Lucid', 'Arial', 'Helvetica', 'Avant Garde', sans-serif; text-anchor: middle" x="514.644006" y="543.906563" transform="rotate(-0 514.644006 543.906563)">125</text>
     </g>
    </g>
    <g id="text_8">
     <text style="font: 12px 'DejaVu Sans', 'Bitstream Vera Sans', 'Computer Modern Sans Serif', 'Lucida Grande', 'Verdana', 'Geneva', 'Lucid', 'Arial', 'Helvetica', 'Avant Garde', sans-serif; text-anchor: middle" x="307.980938" y="559.104375" transform="rotate(-0 307.980938 559.104375)">Build Number</text>
    </g>
   </g>
   <g id="matplotlib.axis_2">
    <g id="ytick_1">
     <g id="line2d_15">
      <path d="M 64.41375 47.46532 
L 551.548125 47.46532 
" clip-path="url(#p1882627e28)" style="fill: none; stroke: #b0b0b0; stroke-opacity: 0.3; stroke-width: 0.8; stroke-linecap: square"/>
     </g>
     <g id="line2d_16">
      <defs>
       <path id="m27e44e8fde" d="M 0 0 
L -3.5 0 
" style="stroke: #000000; stroke-width: 0.8"/>
      </defs>
      <g>
       <use xlink:href="#m27e44e8fde" x="64.41375" y="47.46532" style="stroke: #000000; stroke-width: 0.8"/>
      </g>
     </g>
     <g id="text_9">
      <!-- $\mathdefault{10^{8}}$ -->
      <g transform="translate(39.81375 51.264539)">
       <text>
        <tspan style="font: 10px 'DejaVu Sans'" x="0 6.362305" y="-0.9765625">10</tspan>
        <tspan style="font: 7px 'DejaVu Sans'" x="12.820312" y="-4.8046875">8</tspan>
       </text>
      </g>
     </g>
    </g>
    <g id="ytick_2">
     <g id="line2d_17">
      <defs>
       <path id="mf4b7f64768" d="M 0 0 
L -2 0 
" style="stroke: #000000; stroke-width: 0.6"/>
      </defs>
      <g>
       <use xlink:href="#mf4b7f64768" x="64.41375" y="518.447842" style="stroke: #000000; stroke-width: 0.6"/>
      </g>
     </g>
     <g id="text_10">
      <!-- $\mathdefault{4\times10^{7}}$ -->
      <g transform="translate(22.81375 522.247061)">
       <text>
        <tspan style="font: 10px 'DejaVu Sans'" x="0 8.310547 18.637695 25" y="-0.06406250000000036">4×10</tspan>
        <tspan style="font: 7px 'DejaVu Sans'" x="31.458008" y="-3.8921875000000004">7</tspan>
       </text>
      </g>
     </g>
    </g>
    <g id="ytick_3">
     <g id="line2d_18">
      <g>
       <use xlink:href="#mf4b7f64768" x="64.41375" y="403.749844" style="stroke: #000000; stroke-width: 0.6"/>
      </g>
     </g>
    </g>
    <g id="ytick_4">
     <g id="line2d_19">
      <g>
       <use xlink:href="#mf4b7f64768" x="64.41375" y="310.034756" style="stroke: #000000; stroke-width: 0.6"/>
      </g>
     </g>
     <g id="text_11">
      <!-- $\mathdefault{6\times10^{7}}$ -->
      <g transform="translate(22.81375 313.833975)">
       <text>
        <tspan style="font: 10px 'DejaVu Sans'" x="0 8.310547 18.637695 25" y="-0.06406250000000036">6×10</tspan>
        <tspan style="font: 7px 'DejaVu Sans'" x="31.458008" y="-3.8921875000000004">7</tspan>
       </text>
      </g>
     </g>
    </g>
    <g id="ytick_5">
     <g id="line2d_20">
      <g>
       <use xlink:href="#mf4b7f64768" x="64.41375" y="230.799778" style="stroke: #000000; stroke-width: 0.6"/>
      </g>
     </g>
    </g>
    <g id="ytick_6">
     <g id="line2d_21">
      <g>
       <use xlink:href="#mf4b7f64768" x="64.41375" y="162.163318" style="stroke: #000000; stroke-width: 0.6"/>
      </g>
     </g>
    </g>
    <g id="ytick_7">
     <g id="line2d_22">
      <g>
       <use xlink:href="#mf4b7f64768" x="64.41375" y="101.62167" style="stroke: #000000; stroke-width: 0.6"/>
      </g>
     </g>
    </g>
    <g id="text_12">
     <text style="font: 12px 'DejaVu Sans', 'Bitstream Vera Sans', 'Computer Modern Sans Serif', 'Lucida Grande', 'Verdana', 'Geneva', 'Lucid', 'Arial', 'Helvetica', 'Avant Garde', sans-serif; text-anchor: middle" x="16.318125" y="276.572969" transform="rotate(-90 16.318125 276.572969)">Median Elapsed Time (nanoseconds)</text>
    </g>
   </g>
   <g id="line2d_23">
    <path d="M 86.556222 47.045419 
L 101.317869 47.041076 
L 130.841165 47.080004 
L 145.602813 47.027793 
L 160.36446 47.091446 
L 175.126108 47.086463 
L 189.887756 47.051649 
L 204.649403 47.081082 
L 219.411051 47.027741 
L 234.172699 47.032901 
L 263.695994 47.010588 
L 278.457642 47.015253 
L 293.21929 47.077231 
L 307.980937 47.017702 
L 322.742585 47.079463 
L 352.265881 47.089386 
L 367.027528 47.067503 
L 381.789176 47.091274 
L 396.550824 47.06302 
L 411.312472 47.083898 
L 426.074119 47.076146 
L 440.835767 47.078336 
L 455.597415 47.060434 
L 470.359062 47.037971 
L 485.12071 47.05098 
L 499.882358 47.063445 
L 529.405653 47.010816 
" clip-path="url(#p1882627e28)" style="fill: none; stroke: #1f77b4; stroke-width: 2; stroke-linecap: square"/>
    <defs>
     <path id="m4fb44b39ee" d="M 0 3 
C 0.795609 3 1.55874 2.683901 2.12132 2.12132 
C 2.683901 1.55874 3 0.795609 3 0 
C 3 -0.795609 2.683901 -1.55874 2.12132 -2.12132 
C 1.55874 -2.683901 0.795609 -3 0 -3 
C -0.795609 -3 -1.55874 -2.683901 -2.12132 -2.12132 
C -2.683901 -1.55874 -3 -0.795609 -3 0 
C -3 0.795609 -2.683901 1.55874 -2.12132 2.12132 
C -1.55874 2.683901 -0.795609 3 0 3 
z
" style="stroke: #1f77b4"/>
    </defs>
    <g clip-path="url(#p1882627e28)">
     <use xlink:href="#m4fb44b39ee" x="86.556222" y="47.045419" style="fill: #1f77b4; stroke: #1f77b4"/>
     <use xlink:href="#m4fb44b39ee" x="101.317869" y="47.041076" style="fill: #1f77b4; stroke: #1f77b4"/>
     <use xlink:href="#m4fb44b39ee" x="130.841165" y="47.080004" style="fill: #1f77b4; stroke: #1f77b4"/>
     <use xlink:href="#m4fb44b39ee" x="145.602813" y="47.027793" style="fill: #1f77b4; stroke: #1f77b4"/>
     <use xlink:href="#m4fb44b39ee" x="160.36446" y="47.091446" style="fill: #1f77b4; stroke: #1f77b4"/>
     <use xlink:href="#m4fb44b39ee" x="175.126108" y="47.086463" style="fill: #1f77b4; stroke: #1f77b4"/>
     <use xlink:href="#m4fb44b39ee" x="189.887756" y="47.051649" style="fill: #1f77b4; stroke: #1f77b4"/>
     <use xlink:href="#m4fb44b39ee" x="204.649403" y="47.081082" style="fill: #1f77b4; stroke: #1f77b4"/>
     <use xlink:href="#m4fb44b39ee" x="219.411051" y="47.027741" style="fill: #1f77b4; stroke: #1f77b4"/>
     <use xlink:href="#m4fb44b39ee" x="234.172699" y="47.032901" style="fill: #1f77b4; stroke: #1f77b4"/>
     <use xlink:href="#m4fb44b39ee" x="263.695994" y="47.010588" style="fill: #1f77b4; stroke: #1f77b4"/>
     <use xlink:href="#m4fb44b39ee" x="278.457642" y="47.015253" style="fill: #1f77b4; stroke: #1f77b4"/>
     <use xlink:href="#m4fb44b39ee" x="293.21929" y="47.077231" style="fill: #1f77b4; stroke: #1f77b4"/>
     <use xlink:href="#m4fb44b39ee" x="307.980937" y="47.017702" style="fill: #1f77b4; stroke: #1f77b4"/>
     <use xlink:href="#m4fb44b39ee" x="322.742585" y="47.079463" style="fill: #1f77b4; stroke: #1f77b4"/>
     <use xlink:href="#m4fb44b39ee" x="352.265881" y="47.089386" style="fill: #1f77b4; stroke: #1f77b4"/>
     <use xlink:href="#m4fb44b39ee" x="367.027528" y="47.067503" style="fill: #1f77b4; stroke: #1f77b4"/>
     <use xlink:href="#m4fb44b39ee" x="381.789176" y="47.091274" style="fill: #1f77b4; stroke: #1f77b4"/>
     <use xlink:href="#m4fb44b39ee" x="396.550824" y="47.06302" style="fill: #1f77b4; stroke: #1f77b4"/>
     <use xlink:href="#m4fb44b39ee" x="411.312472" y="47.083898" style="fill: #1f77b4; stroke: #1f77b4"/>
     <use xlink:href="#m4fb44b39ee" x="426.074119" y="47.076146" style="fill: #1f77b4; stroke: #1f77b4"/>
     <use xlink:href="#m4fb44b39ee" x="440.835767" y="47.078336" style="fill: #1f77b4; stroke: #1f77b4"/>
     <use xlink:href="#m4fb44b39ee" x="455.597415" y="47.060434" style="fill: #1f77b4; stroke: #1f77b4"/>
     <use xlink:href="#m4fb44b39ee" x="470.359062" y="47.037971" style="fill: #1f77b4; stroke: #1f77b4"/>
     <use xlink:href="#m4fb44b39ee" x="485.12071" y="47.05098" style="fill: #1f77b4; stroke: #1f77b4"/>
     <use xlink:href="#m4fb44b39ee" x="499.882358" y="47.063445" style="fill: #1f77b4; stroke: #1f77b4"/>
     <use xlink:href="#m4fb44b39ee" x="529.405653" y="47.010816" style="fill: #1f77b4; stroke: #1f77b4"/>
    </g>
   </g>
   <g id="line2d_24">
    <path d="M 86.556222 504.89379 
L 101.317869 503.607486 
L 130.841165 506.332202 
L 145.602813 505.084141 
L 160.36446 505.472802 
L 175.126108 504.794673 
L 189.887756 504.16112 
L 204.649403 504.919896 
L 219.411051 504.286779 
L 234.172699 504.692142 
L 263.695994 504.698374 
L 278.457642 504.825382 
L 293.21929 504.994401 
L 307.980937 504.634255 
L 322.742585 506.282471 
L 352.265881 504.80694 
L 367.027528 505.762397 
L 381.789176 505.349154 
L 396.550824 505.01537 
L 411.312472 505.34605 
L 426.074119 505.411476 
L 440.835767 504.610885 
L 455.597415 504.946875 
L 470.359062 470.65417 
L 485.12071 503.664366 
L 499.882358 505.335311 
L 529.405653 503.657137 
" clip-path="url(#p1882627e28)" style="fill: none; stroke: #ff7f0e; stroke-width: 2; stroke-linecap: square"/>
    <defs>
     <path id="mb3d2254b12" d="M 0 3 
C 0.795609 3 1.55874 2.683901 2.12132 2.12132 
C 2.683901 1.55874 3 0.795609 3 0 
C 3 -0.795609 2.683901 -1.55874 2.12132 -2.12132 
C 1.55874 -2.683901 0.795609 -3 0 -3 
C -0.795609 -3 -1.55874 -2.683901 -2.12132 -2.12132 
C -2.683901 -1.55874 -3 -0.795609 -3 0 
C -3 0.795609 -2.683901 1.55874 -2.12132 2.12132 
C -1.55874 2.683901 -0.795609 3 0 3 
z
" style="stroke: #ff7f0e"/>
    </defs>
    <g clip-path="url(#p1882627e28)">
     <use xlink:href="#mb3d2254b12" x="86.556222" y="504.89379" style="fill: #ff7f0e; stroke: #ff7f0e"/>
     <use xlink:href="#mb3d2254b12" x="101.317869" y="503.607486" style="fill: #ff7f0e; stroke: #ff7f0e"/>
     <use xlink:href="#mb3d2254b12" x="130.841165" y="506.332202" style="fill: #ff7f0e; stroke: #ff7f0e"/>
     <use xlink:href="#mb3d2254b12" x="145.602813" y="505.084141" style="fill: #ff7f0e; stroke: #ff7f0e"/>
     <use xlink:href="#mb3d2254b12" x="160.36446" y="505.472802" style="fill: #ff7f0e; stroke: #ff7f0e"/>
     <use xlink:href="#mb3d2254b12" x="175.126108" y="504.794673" style="fill: #ff7f0e; stroke: #ff7f0e"/>
     <use xlink:href="#mb3d2254b12" x="189.887756" y="504.16112" style="fill: #ff7f0e; stroke: #ff7f0e"/>
     <use xlink:href="#mb3d2254b12" x="204.649403" y="504.919896" style="fill: #ff7f0e; stroke: #ff7f0e"/>
     <use xlink:href="#mb3d2254b12" x="219.411051" y="504.286779" style="fill: #ff7f0e; stroke: #ff7f0e"/>
     <use xlink:href="#mb3d2254b12" x="234.172699" y="504.692142" style="fill: #ff7f0e; stroke: #ff7f0e"/>
     <use xlink:href="#mb3d2254b12" x="263.695994" y="504.698374" style="fill: #ff7f0e; stroke: #ff7f0e"/>
     <use xlink:href="#mb3d2254b12" x="278.457642" y="504.825382" style="fill: #ff7f0e; stroke: #ff7f0e"/>
     <use xlink:href="#mb3d2254b12" x="293.21929" y="504.994401" style="fill: #ff7f0e; stroke: #ff7f0e"/>
     <use xlink:href="#mb3d2254b12" x="307.980937" y="504.634255" style="fill: #ff7f0e; stroke: #ff7f0e"/>
     <use xlink:href="#mb3d2254b12" x="322.742585" y="506.282471" style="fill: #ff7f0e; stroke: #ff7f0e"/>
     <use xlink:href="#mb3d2254b12" x="352.265881" y="504.80694" style="fill: #ff7f0e; stroke: #ff7f0e"/>
     <use xlink:href="#mb3d2254b12" x="367.027528" y="505.762397" style="fill: #ff7f0e; stroke: #ff7f0e"/>
     <use xlink:href="#mb3d2254b12" x="381.789176" y="505.349154" style="fill: #ff7f0e; stroke: #ff7f0e"/>
     <use xlink:href="#mb3d2254b12" x="396.550824" y="505.01537" style="fill: #ff7f0e; stroke: #ff7f0e"/>
     <use xlink:href="#mb3d2254b12" x="411.312472" y="505.34605" style="fill: #ff7f0e; stroke: #ff7f0e"/>
     <use xlink:href="#mb3d2254b12" x="426.074119" y="505.411476" style="fill: #ff7f0e; stroke: #ff7f0e"/>
     <use xlink:href="#mb3d2254b12" x="440.835767" y="504.610885" style="fill: #ff7f0e; stroke: #ff7f0e"/>
     <use xlink:href="#mb3d2254b12" x="455.597415" y="504.946875" style="fill: #ff7f0e; stroke: #ff7f0e"/>
     <use xlink:href="#mb3d2254b12" x="470.359062" y="470.65417" style="fill: #ff7f0e; stroke: #ff7f0e"/>
     <use xlink:href="#mb3d2254b12" x="485.12071" y="503.664366" style="fill: #ff7f0e; stroke: #ff7f0e"/>
     <use xlink:href="#mb3d2254b12" x="499.882358" y="505.335311" style="fill: #ff7f0e; stroke: #ff7f0e"/>
     <use xlink:href="#mb3d2254b12" x="529.405653" y="503.657137" style="fill: #ff7f0e; stroke: #ff7f0e"/>
    </g>
   </g>
   <g id="line2d_25">
    <path d="M 86.556222 46.933395 
L 101.317869 46.935546 
L 130.841165 47.002323 
L 145.602813 46.938538 
L 160.36446 47.007851 
L 175.126108 47.000212 
L 189.887756 46.973753 
L 204.649403 47.002711 
L 219.411051 46.947428 
L 234.172699 46.959179 
L 263.695994 46.89879 
L 278.457642 46.920361 
L 293.21929 47.00537 
L 307.980937 46.977418 
L 322.742585 47.000407 
L 352.265881 47.000408 
L 367.027528 46.998299 
L 381.789176 46.998078 
L 396.550824 46.991324 
L 411.312472 46.985633 
L 426.074119 46.996512 
L 440.835767 46.9851 
L 455.597415 46.984818 
L 470.359062 46.860773 
L 485.12071 46.972349 
L 499.882358 46.943332 
L 529.405653 46.946692 
" clip-path="url(#p1882627e28)" style="fill: none; stroke: #2ca02c; stroke-width: 2; stroke-linecap: square"/>
    <defs>
     <path id="md1a2c1f7e3" d="M 0 3 
C 0.795609 3 1.55874 2.683901 2.12132 2.12132 
C 2.683901 1.55874 3 0.795609 3 0 
C 3 -0.795609 2.683901 -1.55874 2.12132 -2.12132 
C 1.55874 -2.683901 0.795609 -3 0 -3 
C -0.795609 -3 -1.55874 -2.683901 -2.12132 -2.12132 
C -2.683901 -1.55874 -3 -0.795609 -3 0 
C -3 0.795609 -2.683901 1.55874 -2.12132 2.12132 
C -1.55874 2.683901 -0.795609 3 0 3 
z
" style="stroke: #2ca02c"/>
    </defs>
    <g clip-path="url(#p1882627e28)">
     <use xlink:href="#md1a2c1f7e3" x="86.556222" y="46.933395" style="fill: #2ca02c; stroke: #2ca02c"/>
     <use xlink:href="#md1a2c1f7e3" x="101.317869" y="46.935546" style="fill: #2ca02c; stroke: #2ca02c"/>
     <use xlink:href="#md1a2c1f7e3" x="130.841165" y="47.002323" style="fill: #2ca02c; stroke: #2ca02c"/>
     <use xlink:href="#md1a2c1f7e3" x="145.602813" y="46.938538" style="fill: #2ca02c; stroke: #2ca02c"/>
     <use xlink:href="#md1a2c1f7e3" x="160.36446" y="47.007851" style="fill: #2ca02c; stroke: #2ca02c"/>
     <use xlink:href="#md1a2c1f7e3" x="175.126108" y="47.000212" style="fill: #2ca02c; stroke: #2ca02c"/>
     <use xlink:href="#md1a2c1f7e3" x="189.887756" y="46.973753" style="fill: #2ca02c; stroke: #2ca02c"/>
     <use xlink:href="#md1a2c1f7e3" x="204.649403" y="47.002711" style="fill: #2ca02c; stroke: #2ca02c"/>
     <use xlink:href="#md1a2c1f7e3" x="219.411051" y="46.947428" style="fill: #2ca02c; stroke: #2ca02c"/>
     <use xlink:href="#md1a2c1f7e3" x="234.172699" y="46.959179" style="fill: #2ca02c; stroke: #2ca02c"/>
     <use xlink:href="#md1a2c1f7e3" x="263.695994" y="46.89879" style="fill: #2ca02c; stroke: #2ca02c"/>
     <use xlink:href="#md1a2c1f7e3" x="278.457642" y="46.920361" style="fill: #2ca02c; stroke: #2ca02c"/>
     <use xlink:href="#md1a2c1f7e3" x="293.21929" y="47.00537" style="fill: #2ca02c; stroke: #2ca02c"/>
     <use xlink:href="#md1a2c1f7e3" x="307.980937" y="46.977418" style="fill: #2ca02c; stroke: #2ca02c"/>
     <use xlink:href="#md1a2c1f7e3" x="322.742585" y="47.000407" style="fill: #2ca02c; stroke: #2ca02c"/>
     <use xlink:href="#md1a2c1f7e3" x="352.265881" y="47.000408" style="fill: #2ca02c; stroke: #2ca02c"/>
     <use xlink:href="#md1a2c1f7e3" x="367.027528" y="46.998299" style="fill: #2ca02c; stroke: #2ca02c"/>
     <use xlink:href="#md1a2c1f7e3" x="381.789176" y="46.998078" style="fill: #2ca02c; stroke: #2ca02c"/>
     <use xlink:href="#md1a2c1f7e3" x="396.550824" y="46.991324" style="fill: #2ca02c; stroke: #2ca02c"/>
     <use xlink:href="#md1a2c1f7e3" x="411.312472" y="46.985633" style="fill: #2ca02c; stroke: #2ca02c"/>
     <use xlink:href="#md1a2c1f7e3" x="426.074119" y="46.996512" style="fill: #2ca02c; stroke: #2ca02c"/>
     <use xlink:href="#md1a2c1f7e3" x="440.835767" y="46.9851" style="fill: #2ca02c; stroke: #2ca02c"/>
     <use xlink:href="#md1a2c1f7e3" x="455.597415" y="46.984818" style="fill: #2ca02c; stroke: #2ca02c"/>
     <use xlink:href="#md1a2c1f7e3" x="470.359062" y="46.860773" style="fill: #2ca02c; stroke: #2ca02c"/>
     <use xlink:href="#md1a2c1f7e3" x="485.12071" y="46.972349" style="fill: #2ca02c; stroke: #2ca02c"/>
     <use xlink:href="#md1a2c1f7e3" x="499.882358" y="46.943332" style="fill: #2ca02c; stroke: #2ca02c"/>
     <use xlink:href="#md1a2c1f7e3" x="529.405653" y="46.946692" style="fill: #2ca02c; stroke: #2ca02c"/>
    </g>
   </g>
   <g id="line2d_26">
    <path d="M 86.556222 504.124409 
L 101.317869 504.547281 
L 130.841165 504.931253 
L 145.602813 503.829879 
L 160.36446 505.502805 
L 175.126108 505.584703 
L 189.887756 504.605412 
L 204.649403 505.668892 
L 219.411051 504.652608 
L 234.172699 505.788421 
L 263.695994 505.104428 
L 278.457642 504.650308 
L 293.21929 504.814801 
L 307.980937 505.235861 
L 322.742585 504.561416 
L 352.265881 504.432643 
L 367.027528 505.641227 
L 381.789176 505.638573 
L 396.550824 503.646187 
L 411.312472 505.241071 
L 426.074119 504.813254 
L 440.835767 504.754476 
L 455.597415 505.386232 
L 470.359062 469.567779 
L 485.12071 505.671013 
L 499.882358 505.382362 
L 529.405653 504.146544 
" clip-path="url(#p1882627e28)" style="fill: none; stroke: #d62728; stroke-width: 2; stroke-linecap: square"/>
    <defs>
     <path id="mf5514243b6" d="M 0 3 
C 0.795609 3 1.55874 2.683901 2.12132 2.12132 
C 2.683901 1.55874 3 0.795609 3 0 
C 3 -0.795609 2.683901 -1.55874 2.12132 -2.12132 
C 1.55874 -2.683901 0.795609 -3 0 -3 
C -0.795609 -3 -1.55874 -2.683901 -2.12132 -2.12132 
C -2.683901 -1.55874 -3 -0.795609 -3 0 
C -3 0.795609 -2.683901 1.55874 -2.12132 2.12132 
C -1.55874 2.683901 -0.795609 3 0 3 
z
" style="stroke: #d62728"/>
    </defs>
    <g clip-path="url(#p1882627e28)">
     <use xlink:href="#mf5514243b6" x="86.556222" y="504.124409" style="fill: #d62728; stroke: #d62728"/>
     <use xlink:href="#mf5514243b6" x="101.317869" y="504.547281" style="fill: #d62728; stroke: #d62728"/>
     <use xlink:href="#mf5514243b6" x="130.841165" y="504.931253" style="fill: #d62728; stroke: #d62728"/>
     <use xlink:href="#mf5514243b6" x="145.602813" y="503.829879" style="fill: #d62728; stroke: #d62728"/>
     <use xlink:href="#mf5514243b6" x="160.36446" y="505.502805" style="fill: #d62728; stroke: #d62728"/>
     <use xlink:href="#mf5514243b6" x="175.126108" y="505.584703" style="fill: #d62728; stroke: #d62728"/>
     <use xlink:href="#mf5514243b6" x="189.887756" y="504.605412" style="fill: #d62728; stroke: #d62728"/>
     <use xlink:href="#mf5514243b6" x="204.649403" y="505.668892" style="fill: #d62728; stroke: #d62728"/>
     <use xlink:href="#mf5514243b6" x="219.411051" y="504.652608" style="fill: #d62728; stroke: #d62728"/>
     <use xlink:href="#mf5514243b6" x="234.172699" y="505.788421" style="fill: #d62728; stroke: #d62728"/>
     <use xlink:href="#mf5514243b6" x="263.695994" y="505.104428" style="fill: #d62728; stroke: #d62728"/>
     <use xlink:href="#mf5514243b6" x="278.457642" y="504.650308" style="fill: #d62728; stroke: #d62728"/>
     <use xlink:href="#mf5514243b6" x="293.21929" y="504.814801" style="fill: #d62728; stroke: #d62728"/>
     <use xlink:href="#mf5514243b6" x="307.980937" y="505.235861" style="fill: #d62728; stroke: #d62728"/>
     <use xlink:href="#mf5514243b6" x="322.742585" y="504.561416" style="fill: #d62728; stroke: #d62728"/>
     <use xlink:href="#mf5514243b6" x="352.265881" y="504.432643" style="fill: #d62728; stroke: #d62728"/>
     <use xlink:href="#mf5514243b6" x="367.027528" y="505.641227" style="fill: #d62728; stroke: #d62728"/>
     <use xlink:href="#mf5514243b6" x="381.789176" y="505.638573" style="fill: #d62728; stroke: #d62728"/>
     <use xlink:href="#mf5514243b6" x="396.550824" y="503.646187" style="fill: #d62728; stroke: #d62728"/>
     <use xlink:href="#mf5514243b6" x="411.312472" y="505.241071" style="fill: #d62728; stroke: #d62728"/>
     <use xlink:href="#mf5514243b6" x="426.074119" y="504.813254" style="fill: #d62728; stroke: #d62728"/>
     <use xlink:href="#mf5514243b6" x="440.835767" y="504.754476" style="fill: #d62728; stroke: #d62728"/>
     <use xlink:href="#mf5514243b6" x="455.597415" y="505.386232" style="fill: #d62728; stroke: #d62728"/>
     <use xlink:href="#mf5514243b6" x="470.359062" y="469.567779" style="fill: #d62728; stroke: #d62728"/>
     <use xlink:href="#mf5514243b6" x="485.12071" y="505.671013" style="fill: #d62728; stroke: #d62728"/>
     <use xlink:href="#mf5514243b6" x="499.882358" y="505.382362" style="fill: #d62728; stroke: #d62728"/>
     <use xlink:href="#mf5514243b6" x="529.405653" y="504.146544" style="fill: #d62728; stroke: #d62728"/>
    </g>
   </g>
   <g id="line2d_27">
    <path d="M 86.556222 47.058206 
L 101.317869 47.073436 
L 130.841165 47.077584 
L 145.602813 47.050986 
L 160.36446 47.093062 
L 175.126108 47.102646 
L 189.887756 47.095319 
L 204.649403 47.083179 
L 219.411051 47.085848 
L 234.172699 47.082449 
L 263.695994 47.076505 
L 278.457642 47.104627 
L 293.21929 47.080111 
L 322.742585 47.090759 
L 367.027528 47.09084 
L 381.789176 47.08782 
L 396.550824 47.038597 
L 411.312472 47.093572 
L 426.074119 47.068999 
L 440.835767 47.076934 
L 455.597415 47.087147 
L 470.359062 47.090768 
L 485.12071 47.060911 
L 499.882358 47.068925 
L 529.405653 47.052394 
" clip-path="url(#p1882627e28)" style="fill: none; stroke: #9467bd; stroke-width: 2; stroke-linecap: square"/>
    <defs>
     <path id="m2b0f5e6f06" d="M 0 3 
C 0.795609 3 1.55874 2.683901 2.12132 2.12132 
C 2.683901 1.55874 3 0.795609 3 0 
C 3 -0.795609 2.683901 -1.55874 2.12132 -2.12132 
C 1.55874 -2.683901 0.795609 -3 0 -3 
C -0.795609 -3 -1.55874 -2.683901 -2.12132 -2.12132 
C -2.683901 -1.55874 -3 -0.795609 -3 0 
C -3 0.795609 -2.683901 1.55874 -2.12132 2.12132 
C -1.55874 2.683901 -0.795609 3 0 3 
z
" style="stroke: #9467bd"/>
    </defs>
    <g clip-path="url(#p1882627e28)">
     <use xlink:href="#m2b0f5e6f06" x="86.556222" y="47.058206" style="fill: #9467bd; stroke: #9467bd"/>
     <use xlink:href="#m2b0f5e6f06" x="101.317869" y="47.073436" style="fill: #9467bd; stroke: #9467bd"/>
     <use xlink:href="#m2b0f5e6f06" x="130.841165" y="47.077584" style="fill: #9467bd; stroke: #9467bd"/>
     <use xlink:href="#m2b0f5e6f06" x="145.602813" y="47.050986" style="fill: #9467bd; stroke: #9467bd"/>
     <use xlink:href="#m2b0f5e6f06" x="160.36446" y="47.093062" style="fill: #9467bd; stroke: #9467bd"/>
     <use xlink:href="#m2b0f5e6f06" x="175.126108" y="47.102646" style="fill: #9467bd; stroke: #9467bd"/>
     <use xlink:href="#m2b0f5e6f06" x="189.887756" y="47.095319" style="fill: #9467bd; stroke: #9467bd"/>
     <use xlink:href="#m2b0f5e6f06" x="204.649403" y="47.083179" style="fill: #9467bd; stroke: #9467bd"/>
     <use xlink:href="#m2b0f5e6f06" x="219.411051" y="47.085848" style="fill: #9467bd; stroke: #9467bd"/>
     <use xlink:href="#m2b0f5e6f06" x="234.172699" y="47.082449" style="fill: #9467bd; stroke: #9467bd"/>
     <use xlink:href="#m2b0f5e6f06" x="263.695994" y="47.076505" style="fill: #9467bd; stroke: #9467bd"/>
     <use xlink:href="#m2b0f5e6f06" x="278.457642" y="47.104627" style="fill: #9467bd; stroke: #9467bd"/>
     <use xlink:href="#m2b0f5e6f06" x="293.21929" y="47.080111" style="fill: #9467bd; stroke: #9467bd"/>
     <use xlink:href="#m2b0f5e6f06" x="322.742585" y="47.090759" style="fill: #9467bd; stroke: #9467bd"/>
     <use xlink:href="#m2b0f5e6f06" x="367.027528" y="47.09084" style="fill: #9467bd; stroke: #9467bd"/>
     <use xlink:href="#m2b0f5e6f06" x="381.789176" y="47.08782" style="fill: #9467bd; stroke: #9467bd"/>
     <use xlink:href="#m2b0f5e6f06" x="396.550824" y="47.038597" style="fill: #9467bd; stroke: #9467bd"/>
     <use xlink:href="#m2b0f5e6f06" x="411.312472" y="47.093572" style="fill: #9467bd; stroke: #9467bd"/>
     <use xlink:href="#m2b0f5e6f06" x="426.074119" y="47.068999" style="fill: #9467bd; stroke: #9467bd"/>
     <use xlink:href="#m2b0f5e6f06" x="440.835767" y="47.076934" style="fill: #9467bd; stroke: #9467bd"/>
     <use xlink:href="#m2b0f5e6f06" x="455.597415" y="47.087147" style="fill: #9467bd; stroke: #9467bd"/>
     <use xlink:href="#m2b0f5e6f06" x="470.359062" y="47.090768" style="fill: #9467bd; stroke: #9467bd"/>
     <use xlink:href="#m2b0f5e6f06" x="485.12071" y="47.060911" style="fill: #9467bd; stroke: #9467bd"/>
     <use xlink:href="#m2b0f5e6f06" x="499.882358" y="47.068925" style="fill: #9467bd; stroke: #9467bd"/>
     <use xlink:href="#m2b0f5e6f06" x="529.405653" y="47.052394" style="fill: #9467bd; stroke: #9467bd"/>
    </g>
   </g>
   <g id="line2d_28">
    <path d="M 86.556222 423.351373 
L 101.317869 423.188249 
L 130.841165 423.776519 
L 145.602813 424.294215 
L 160.36446 423.685715 
L 175.126108 423.832076 
L 189.887756 423.624349 
L 204.649403 423.64012 
L 219.411051 423.84617 
L 234.172699 422.149169 
L 263.695994 423.487148 
L 278.457642 424.331331 
L 293.21929 423.325687 
L 322.742585 423.944683 
L 367.027528 423.250346 
L 381.789176 423.610916 
L 396.550824 423.165109 
L 411.312472 423.535746 
L 426.074119 423.164319 
L 440.835767 423.864948 
L 455.597415 423.66175 
L 470.359062 423.979087 
L 485.12071 423.21565 
L 499.882358 423.464468 
L 529.405653 421.765976 
" clip-path="url(#p1882627e28)" style="fill: none; stroke: #8c564b; stroke-width: 2; stroke-linecap: square"/>
    <defs>
     <path id="m0042ec96df" d="M 0 3 
C 0.795609 3 1.55874 2.683901 2.12132 2.12132 
C 2.683901 1.55874 3 0.795609 3 0 
C 3 -0.795609 2.683901 -1.55874 2.12132 -2.12132 
C 1.55874 -2.683901 0.795609 -3 0 -3 
C -0.795609 -3 -1.55874 -2.683901 -2.12132 -2.12132 
C -2.683901 -1.55874 -3 -0.795609 -3 0 
C -3 0.795609 -2.683901 1.55874 -2.12132 2.12132 
C -1.55874 2.683901 -0.795609 3 0 3 
z
" style="stroke: #8c564b"/>
    </defs>
    <g clip-path="url(#p1882627e28)">
     <use xlink:href="#m0042ec96df" x="86.556222" y="423.351373" style="fill: #8c564b; stroke: #8c564b"/>
     <use xlink:href="#m0042ec96df" x="101.317869" y="423.188249" style="fill: #8c564b; stroke: #8c564b"/>
     <use xlink:href="#m0042ec96df" x="130.841165" y="423.776519" style="fill: #8c564b; stroke: #8c564b"/>
     <use xlink:href="#m0042ec96df" x="145.602813" y="424.294215" style="fill: #8c564b; stroke: #8c564b"/>
     <use xlink:href="#m0042ec96df" x="160.36446" y="423.685715" style="fill: #8c564b; stroke: #8c564b"/>
     <use xlink:href="#m0042ec96df" x="175.126108" y="423.832076" style="fill: #8c564b; stroke: #8c564b"/>
     <use xlink:href="#m0042ec96df" x="189.887756" y="423.624349" style="fill: #8c564b; stroke: #8c564b"/>
     <use xlink:href="#m0042ec96df" x="204.649403" y="423.64012" style="fill: #8c564b; stroke: #8c564b"/>
     <use xlink:href="#m0042ec96df" x="219.411051" y="423.84617" style="fill: #8c564b; stroke: #8c564b"/>
     <use xlink:href="#m0042ec96df" x="234.172699" y="422.149169" style="fill: #8c564b; stroke: #8c564b"/>
     <use xlink:href="#m0042ec96df" x="263.695994" y="423.487148" style="fill: #8c564b; stroke: #8c564b"/>
     <use xlink:href="#m0042ec96df" x="278.457642" y="424.331331" style="fill: #8c564b; stroke: #8c564b"/>
     <use xlink:href="#m0042ec96df" x="293.21929" y="423.325687" style="fill: #8c564b; stroke: #8c564b"/>
     <use xlink:href="#m0042ec96df" x="322.742585" y="423.944683" style="fill: #8c564b; stroke: #8c564b"/>
     <use xlink:href="#m0042ec96df" x="367.027528" y="423.250346" style="fill: #8c564b; stroke: #8c564b"/>
     <use xlink:href="#m0042ec96df" x="381.789176" y="423.610916" style="fill: #8c564b; stroke: #8c564b"/>
     <use xlink:href="#m0042ec96df" x="396.550824" y="423.165109" style="fill: #8c564b; stroke: #8c564b"/>
     <use xlink:href="#m0042ec96df" x="411.312472" y="423.535746" style="fill: #8c564b; stroke: #8c564b"/>
     <use xlink:href="#m0042ec96df" x="426.074119" y="423.164319" style="fill: #8c564b; stroke: #8c564b"/>
     <use xlink:href="#m0042ec96df" x="440.835767" y="423.864948" style="fill: #8c564b; stroke: #8c564b"/>
     <use xlink:href="#m0042ec96df" x="455.597415" y="423.66175" style="fill: #8c564b; stroke: #8c564b"/>
     <use xlink:href="#m0042ec96df" x="470.359062" y="423.979087" style="fill: #8c564b; stroke: #8c564b"/>
     <use xlink:href="#m0042ec96df" x="485.12071" y="423.21565" style="fill: #8c564b; stroke: #8c564b"/>
     <use xlink:href="#m0042ec96df" x="499.882358" y="423.464468" style="fill: #8c564b; stroke: #8c564b"/>
     <use xlink:href="#m0042ec96df" x="529.405653" y="421.765976" style="fill: #8c564b; stroke: #8c564b"/>
    </g>
   </g>
   <g id="line2d_29">
    <path d="M 86.556222 46.96239 
L 101.317869 46.992283 
L 130.841165 46.999001 
L 145.602813 46.813736 
L 160.36446 47.000552 
L 175.126108 47.007251 
L 189.887756 46.996215 
L 204.649403 46.999432 
L 219.411051 46.98848 
L 234.172699 46.998826 
L 263.695994 46.99576 
L 278.457642 47.011218 
L 293.21929 47.005003 
L 322.742585 47.000971 
L 367.027528 47.0026 
L 381.789176 47.014298 
L 396.550824 46.93852 
L 411.312472 47.006187 
L 426.074119 46.995645 
L 440.835767 47.001161 
L 455.597415 46.999019 
L 470.359062 46.998581 
L 485.12071 46.987629 
L 499.882358 46.984536 
L 529.405653 46.952692 
" clip-path="url(#p1882627e28)" style="fill: none; stroke: #e377c2; stroke-width: 2; stroke-linecap: square"/>
    <defs>
     <path id="m1a2b69c8ba" d="M 0 3 
C 0.795609 3 1.55874 2.683901 2.12132 2.12132 
C 2.683901 1.55874 3 0.795609 3 0 
C 3 -0.795609 2.683901 -1.55874 2.12132 -2.12132 
C 1.55874 -2.683901 0.795609 -3 0 -3 
C -0.795609 -3 -1.55874 -2.683901 -2.12132 -2.12132 
C -2.683901 -1.55874 -3 -0.795609 -3 0 
C -3 0.795609 -2.683901 1.55874 -2.12132 2.12132 
C -1.55874 2.683901 -0.795609 3 0 3 
z
" style="stroke: #e377c2"/>
    </defs>
    <g clip-path="url(#p1882627e28)">
     <use xlink:href="#m1a2b69c8ba" x="86.556222" y="46.96239" style="fill: #e377c2; stroke: #e377c2"/>
     <use xlink:href="#m1a2b69c8ba" x="101.317869" y="46.992283" style="fill: #e377c2; stroke: #e377c2"/>
     <use xlink:href="#m1a2b69c8ba" x="130.841165" y="46.999001" style="fill: #e377c2; stroke: #e377c2"/>
     <use xlink:href="#m1a2b69c8ba" x="145.602813" y="46.813736" style="fill: #e377c2; stroke: #e377c2"/>
     <use xlink:href="#m1a2b69c8ba" x="160.36446" y="47.000552" style="fill: #e377c2; stroke: #e377c2"/>
     <use xlink:href="#m1a2b69c8ba" x="175.126108" y="47.007251" style="fill: #e377c2; stroke: #e377c2"/>
     <use xlink:href="#m1a2b69c8ba" x="189.887756" y="46.996215" style="fill: #e377c2; stroke: #e377c2"/>
     <use xlink:href="#m1a2b69c8ba" x="204.649403" y="46.999432" style="fill: #e377c2; stroke: #e377c2"/>
     <use xlink:href="#m1a2b69c8ba" x="219.411051" y="46.98848" style="fill: #e377c2; stroke: #e377c2"/>
     <use xlink:href="#m1a2b69c8ba" x="234.172699" y="46.998826" style="fill: #e377c2; stroke: #e377c2"/>
     <use xlink:href="#m1a2b69c8ba" x="263.695994" y="46.99576" style="fill: #e377c2; stroke: #e377c2"/>
     <use xlink:href="#m1a2b69c8ba" x="278.457642" y="47.011218" style="fill: #e377c2; stroke: #e377c2"/>
     <use xlink:href="#m1a2b69c8ba" x="293.21929" y="47.005003" style="fill: #e377c2; stroke: #e377c2"/>
     <use xlink:href="#m1a2b69c8ba" x="322.742585" y="47.000971" style="fill: #e377c2; stroke: #e377c2"/>
     <use xlink:href="#m1a2b69c8ba" x="367.027528" y="47.0026" style="fill: #e377c2; stroke: #e377c2"/>
     <use xlink:href="#m1a2b69c8ba" x="381.789176" y="47.014298" style="fill: #e377c2; stroke: #e377c2"/>
     <use xlink:href="#m1a2b69c8ba" x="396.550824" y="46.93852" style="fill: #e377c2; stroke: #e377c2"/>
     <use xlink:href="#m1a2b69c8ba" x="411.312472" y="47.006187" style="fill: #e377c2; stroke: #e377c2"/>
     <use xlink:href="#m1a2b69c8ba" x="426.074119" y="46.995645" style="fill: #e377c2; stroke: #e377c2"/>
     <use xlink:href="#m1a2b69c8ba" x="440.835767" y="47.001161" style="fill: #e377c2; stroke: #e377c2"/>
     <use xlink:href="#m1a2b69c8ba" x="455.597415" y="46.999019" style="fill: #e377c2; stroke: #e377c2"/>
     <use xlink:href="#m1a2b69c8ba" x="470.359062" y="46.998581" style="fill: #e377c2; stroke: #e377c2"/>
     <use xlink:href="#m1a2b69c8ba" x="485.12071" y="46.987629" style="fill: #e377c2; stroke: #e377c2"/>
     <use xlink:href="#m1a2b69c8ba" x="499.882358" y="46.984536" style="fill: #e377c2; stroke: #e377c2"/>
     <use xlink:href="#m1a2b69c8ba" x="529.405653" y="46.952692" style="fill: #e377c2; stroke: #e377c2"/>
    </g>
   </g>
   <g id="line2d_30">
    <path d="M 86.556222 423.584551 
L 101.317869 424.032078 
L 130.841165 423.288595 
L 145.602813 423.495664 
L 160.36446 423.826623 
L 175.126108 423.778058 
L 189.887756 422.614645 
L 204.649403 423.163554 
L 219.411051 423.569898 
L 234.172699 423.321611 
L 263.695994 423.151116 
L 278.457642 423.675467 
L 293.21929 422.802532 
L 322.742585 423.524592 
L 367.027528 423.555987 
L 381.789176 423.665664 
L 396.550824 423.435292 
L 411.312472 423.632861 
L 426.074119 423.269922 
L 440.835767 423.416489 
L 455.597415 423.91771 
L 470.359062 422.778917 
L 485.12071 423.622252 
L 499.882358 423.206929 
L 529.405653 423.164141 
" clip-path="url(#p1882627e28)" style="fill: none; stroke: #7f7f7f; stroke-width: 2; stroke-linecap: square"/>
    <defs>
     <path id="m421a271175" d="M 0 3 
C 0.795609 3 1.55874 2.683901 2.12132 2.12132 
C 2.683901 1.55874 3 0.795609 3 0 
C 3 -0.795609 2.683901 -1.55874 2.12132 -2.12132 
C 1.55874 -2.683901 0.795609 -3 0 -3 
C -0.795609 -3 -1.55874 -2.683901 -2.12132 -2.12132 
C -2.683901 -1.55874 -3 -0.795609 -3 0 
C -3 0.795609 -2.683901 1.55874 -2.12132 2.12132 
C -1.55874 2.683901 -0.795609 3 0 3 
z
" style="stroke: #7f7f7f"/>
    </defs>
    <g clip-path="url(#p1882627e28)">
     <use xlink:href="#m421a271175" x="86.556222" y="423.584551" style="fill: #7f7f7f; stroke: #7f7f7f"/>
     <use xlink:href="#m421a271175" x="101.317869" y="424.032078" style="fill: #7f7f7f; stroke: #7f7f7f"/>
     <use xlink:href="#m421a271175" x="130.841165" y="423.288595" style="fill: #7f7f7f; stroke: #7f7f7f"/>
     <use xlink:href="#m421a271175" x="145.602813" y="423.495664" style="fill: #7f7f7f; stroke: #7f7f7f"/>
     <use xlink:href="#m421a271175" x="160.36446" y="423.826623" style="fill: #7f7f7f; stroke: #7f7f7f"/>
     <use xlink:href="#m421a271175" x="175.126108" y="423.778058" style="fill: #7f7f7f; stroke: #7f7f7f"/>
     <use xlink:href="#m421a271175" x="189.887756" y="422.614645" style="fill: #7f7f7f; stroke: #7f7f7f"/>
     <use xlink:href="#m421a271175" x="204.649403" y="423.163554" style="fill: #7f7f7f; stroke: #7f7f7f"/>
     <use xlink:href="#m421a271175" x="219.411051" y="423.569898" style="fill: #7f7f7f; stroke: #7f7f7f"/>
     <use xlink:href="#m421a271175" x="234.172699" y="423.321611" style="fill: #7f7f7f; stroke: #7f7f7f"/>
     <use xlink:href="#m421a271175" x="263.695994" y="423.151116" style="fill: #7f7f7f; stroke: #7f7f7f"/>
     <use xlink:href="#m421a271175" x="278.457642" y="423.675467" style="fill: #7f7f7f; stroke: #7f7f7f"/>
     <use xlink:href="#m421a271175" x="293.21929" y="422.802532" style="fill: #7f7f7f; stroke: #7f7f7f"/>
     <use xlink:href="#m421a271175" x="322.742585" y="423.524592" style="fill: #7f7f7f; stroke: #7f7f7f"/>
     <use xlink:href="#m421a271175" x="367.027528" y="423.555987" style="fill: #7f7f7f; stroke: #7f7f7f"/>
     <use xlink:href="#m421a271175" x="381.789176" y="423.665664" style="fill: #7f7f7f; stroke: #7f7f7f"/>
     <use xlink:href="#m421a271175" x="396.550824" y="423.435292" style="fill: #7f7f7f; stroke: #7f7f7f"/>
     <use xlink:href="#m421a271175" x="411.312472" y="423.632861" style="fill: #7f7f7f; stroke: #7f7f7f"/>
     <use xlink:href="#m421a271175" x="426.074119" y="423.269922" style="fill: #7f7f7f; stroke: #7f7f7f"/>
     <use xlink:href="#m421a271175" x="440.835767" y="423.416489" style="fill: #7f7f7f; stroke: #7f7f7f"/>
     <use xlink:href="#m421a271175" x="455.597415" y="423.91771" style="fill: #7f7f7f; stroke: #7f7f7f"/>
     <use xlink:href="#m421a271175" x="470.359062" y="422.778917" style="fill: #7f7f7f; stroke: #7f7f7f"/>
     <use xlink:href="#m421a271175" x="485.12071" y="423.622252" style="fill: #7f7f7f; stroke: #7f7f7f"/>
     <use xlink:href="#m421a271175" x="499.882358" y="423.206929" style="fill: #7f7f7f; stroke: #7f7f7f"/>
     <use xlink:href="#m421a271175" x="529.405653" y="423.164141" style="fill: #7f7f7f; stroke: #7f7f7f"/>
    </g>
   </g>
   <g id="patch_3">
    <path d="M 64.41375 529.308125 
L 64.41375 23.837812 
" style="fill: none; stroke: #000000; stroke-width: 0.8; stroke-linejoin: miter; stroke-linecap: square"/>
   </g>
   <g id="patch_4">
    <path d="M 551.548125 529.308125 
L 551.548125 23.837812 
" style="fill: none; stroke: #000000; stroke-width: 0.8; stroke-linejoin: miter; stroke-linecap: square"/>
   </g>
   <g id="patch_5">
    <path d="M 64.41375 529.308125 
L 551.548125 529.308125 
" style="fill: none; stroke: #000000; stroke-width: 0.8; stroke-linejoin: miter; stroke-linecap: square"/>
   </g>
   <g id="patch_6">
    <path d="M 64.41375 23.837812 
L 551.548125 23.837812 
" style="fill: none; stroke: #000000; stroke-width: 0.8; stroke-linejoin: miter; stroke-linecap: square"/>
   </g>
   <g id="text_13">
    <text style="font: 700 14px 'DejaVu Sans', 'Bitstream Vera Sans', 'Computer Modern Sans Serif', 'Lucida Grande', 'Verdana', 'Geneva', 'Lucid', 'Arial', 'Helvetica', 'Avant Garde', sans-serif; text-anchor: middle" x="307.980938" y="17.837813" transform="rotate(-0 307.980938 17.837813)">Coroutine Parallel Compute - Performance Trend</text>
   </g>
   <g id="legend_1">
    <g id="patch_7">
     <path d="M 582.904844 151.487813 
L 838.476719 151.487813 
Q 840.476719 151.487813 840.476719 149.487813 
L 840.476719 30.837813 
Q 840.476719 28.837813 838.476719 28.837813 
L 582.904844 28.837813 
Q 580.904844 28.837813 580.904844 30.837813 
L 580.904844 149.487813 
Q 580.904844 151.487813 582.904844 151.487813 
z
" style="fill: #ffffff; opacity: 0.8; stroke: #cccccc; stroke-linejoin: miter"/>
    </g>
    <g id="line2d_31">
     <path d="M 584.904844 36.93625 
L 594.904844 36.93625 
L 604.904844 36.93625 
" style="fill: none; stroke: #1f77b4; stroke-width: 2; stroke-linecap: square"/>
     <g>
      <use xlink:href="#m4fb44b39ee" x="594.904844" y="36.93625" style="fill: #1f77b4; stroke: #1f77b4"/>
     </g>
    </g>
    <g id="text_14">
     <text style="font: 10px 'DejaVu Sans', 'Bitstream Vera Sans', 'Computer Modern Sans Serif', 'Lucida Grande', 'Verdana', 'Geneva', 'Lucid', 'Arial', 'Helvetica', 'Avant Garde', sans-serif; text-anchor: start" x="612.904844" y="40.43625" transform="rotate(-0 612.904844 40.43625)">gcc-14.2 - ParallelCompute_Coroutines_V1</text>
    </g>
    <g id="line2d_32">
     <path d="M 584.904844 51.8925 
L 594.904844 51.8925 
L 604.904844 51.8925 
" style="fill: none; stroke: #ff7f0e; stroke-width: 2; stroke-linecap: square"/>
     <g>
      <use xlink:href="#mb3d2254b12" x="594.904844" y="51.8925" style="fill: #ff7f0e; stroke: #ff7f0e"/>
     </g>
    </g>
    <g id="text_15">
     <text style="font: 10px 'DejaVu Sans', 'Bitstream Vera Sans', 'Computer Modern Sans Serif', 'Lucida Grande', 'Verdana', 'Geneva', 'Lucid', 'Arial', 'Helvetica', 'Avant Garde', sans-serif; text-anchor: start" x="612.904844" y="55.3925" transform="rotate(-0 612.904844 55.3925)">gcc-14.2 - ParallelCompute_RegularTasks_V1</text>
    </g>
    <g id="line2d_33">
     <path d="M 584.904844 66.84875 
L 594.904844 66.84875 
L 604.904844 66.84875 
" style="fill: none; stroke: #2ca02c; stroke-width: 2; stroke-linecap: square"/>
     <g>
      <use xlink:href="#md1a2c1f7e3" x="594.904844" y="66.84875" style="fill: #2ca02c; stroke: #2ca02c"/>
     </g>
    </g>
    <g id="text_16">
     <text style="font: 10px 'DejaVu Sans', 'Bitstream Vera Sans', 'Computer Modern Sans Serif', 'Lucida Grande', 'Verdana', 'Geneva', 'Lucid', 'Arial', 'Helvetica', 'Avant Garde', sans-serif; text-anchor: start" x="612.904844" y="70.34875" transform="rotate(-0 612.904844 70.34875)">gcc-14.2 - ParallelCompute_Coroutines_V2</text>
    </g>
    <g id="line2d_34">
     <path d="M 584.904844 81.805 
L 594.904844 81.805 
L 604.904844 81.805 
" style="fill: none; stroke: #d62728; stroke-width: 2; stroke-linecap: square"/>
     <g>
      <use xlink:href="#mf5514243b6" x="594.904844" y="81.805" style="fill: #d62728; stroke: #d62728"/>
     </g>
    </g>
    <g id="text_17">
     <text style="font: 10px 'DejaVu Sans', 'Bitstream Vera Sans', 'Computer Modern Sans Serif', 'Lucida Grande', 'Verdana', 'Geneva', 'Lucid', 'Arial', 'Helvetica', 'Avant Garde', sans-serif; text-anchor: start" x="612.904844" y="85.305" transform="rotate(-0 612.904844 85.305)">gcc-14.2 - ParallelCompute_RegularTasks_V2</text>
    </g>
    <g id="line2d_35">
     <path d="M 584.904844 96.76125 
L 594.904844 96.76125 
L 604.904844 96.76125 
" style="fill: none; stroke: #9467bd; stroke-width: 2; stroke-linecap: square"/>
     <g>
      <use xlink:href="#m2b0f5e6f06" x="594.904844" y="96.76125" style="fill: #9467bd; stroke: #9467bd"/>
     </g>
    </g>
    <g id="text_18">
     <text style="font: 10px 'DejaVu Sans', 'Bitstream Vera Sans', 'Computer Modern Sans Serif', 'Lucida Grande', 'Verdana', 'Geneva', 'Lucid', 'Arial', 'Helvetica', 'Avant Garde', sans-serif; text-anchor: start" x="612.904844" y="100.26125" transform="rotate(-0 612.904844 100.26125)">gcc-4.2 - ParallelCompute_Coroutines_V1</text>
    </g>
    <g id="line2d_36">
     <path d="M 584.904844 111.7175 
L 594.904844 111.7175 
L 604.904844 111.7175 
" style="fill: none; stroke: #8c564b; stroke-width: 2; stroke-linecap: square"/>
     <g>
      <use xlink:href="#m0042ec96df" x="594.904844" y="111.7175" style="fill: #8c564b; stroke: #8c564b"/>
     </g>
    </g>
    <g id="text_19">
     <text style="font: 10px 'DejaVu Sans', 'Bitstream Vera Sans', 'Computer Modern Sans Serif', 'Lucida Grande', 'Verdana', 'Geneva', 'Lucid', 'Arial', 'Helvetica', 'Avant Garde', sans-serif; text-anchor: start" x="612.904844" y="115.2175" transform="rotate(-0 612.904844 115.2175)">gcc-4.2 - ParallelCompute_RegularTasks_V1</text>
    </g>
    <g id="line2d_37">
     <path d="M 584.904844 126.67375 
L 594.904844 126.67375 
L 604.904844 126.67375 
" style="fill: none; stroke: #e377c2; stroke-width: 2; stroke-linecap: square"/>
     <g>
      <use xlink:href="#m1a2b69c8ba" x="594.904844" y="126.67375" style="fill: #e377c2; stroke: #e377c2"/>
     </g>
    </g>
    <g id="text_20">
     <text style="font: 10px 'DejaVu Sans', 'Bitstream Vera Sans', 'Computer Modern Sans Serif', 'Lucida Grande', 'Verdana', 'Geneva', 'Lucid', 'Arial', 'Helvetica', 'Avant Garde', sans-serif; text-anchor: start" x="612.904844" y="130.17375" transform="rotate(-0 612.904844 130.17375)">gcc-4.2 - ParallelCompute_Coroutines_V2</text>
    </g>
    <g id="line2d_38">
     <path d="M 584.904844 141.63 
L 594.904844 141.63 
L 604.904844 141.63 
" style="fill: none; stroke: #7f7f7f; stroke-width: 2; stroke-linecap: square"/>
     <g>
      <use xlink:href="#m421a271175" x="594.904844" y="141.63" style="fill: #7f7f7f; stroke: #7f7f7f"/>
     </g>
    </g>
    <g id="text_21">
     <text style="font: 10px 'DejaVu Sans', 'Bitstream Vera Sans', 'Computer Modern Sans Serif', 'Lucida Grande', 'Verdana', 'Geneva', 'Lucid', 'Arial', 'Helvetica', 'Avant Garde', sans-serif; text-anchor: start" x="612.904844" y="145.13" transform="rotate(-0 612.904844 145.13)">gcc-4.2 - ParallelCompute_RegularTasks_V2</text>
    </g>
   </g>
  </g>
 </g>
 <defs>
  <clipPath id="p1882627e28">
   <rect x="64.41375" y="23.837813" width="487.134375" height="505.470313"/>
  </clipPath>
 </defs>
</svg>
