<?xml version="1.0" encoding="utf-8" standalone="no"?>
<!DOCTYPE svg PUBLIC "-//W3C//DTD SVG 1.1//EN"
  "http://www.w3.org/Graphics/SVG/1.1/DTD/svg11.dtd">
<svg xmlns:xlink="http://www.w3.org/1999/xlink" width="848.869766pt" height="568.8pt" viewBox="0 0 848.869766 568.8" xmlns="http://www.w3.org/2000/svg" version="1.1">
 <metadata>
  <rdf:RDF xmlns:dc="http://purl.org/dc/elements/1.1/" xmlns:cc="http://creativecommons.org/ns#" xmlns:rdf="http://www.w3.org/1999/02/22-rdf-syntax-ns#">
   <cc:Work>
    <dc:type rdf:resource="http://purl.org/dc/dcmitype/StillImage"/>
    <dc:date>2026-03-15T20:01:11.493057</dc:date>
    <dc:format>image/svg+xml</dc:format>
    <dc:creator>
     <cc:Agent>
      <dc:title>Matplotlib v3.9.4, https://matplotlib.org/</dc:title>
     </cc:Agent>
    </dc:creator>
   </cc:Work>
  </rdf:RDF>
 </metadata>
 <defs>
  <style type="text/css">*{stroke-linejoin: round; stroke-linecap: butt}</style>
 </defs>
 <g id="figure_1">
  <g id="patch_1">
   <path d="M 0 568.8 
L 848.869766 568.8 
L 848.869766 0 
L 0 0 
z
" style="fill: #ffffff"/>
  </g>
  <g id="axes_1">
   <g id="patch_2">
    <path d="M 86.71375 529.308125 
L 597.709062 529.308125 
L 597.709062 23.837812 
L 86.71375 23.837812 
z
" style="fill: #ffffff"/>
   </g>
   <g id="matplotlib.axis_1">
    <g id="xtick_1">
     <g id="line2d_1">
      <path d="M 94.456103 529.308125 
L 94.456103 23.837812 
" clip-path="url(#pd474da23f1)" style="fill: none; stroke: #b0b0b0; stroke-opacity: 0.3; stroke-width: 0.8; stroke-linecap: square"/>
     </g>
     <g id="line2d_2">
      <defs>
       <path id="m329cf97133" d="M 0 0 
L 0 3.5 
" style="stroke: #000000; stroke-width: 0.8"/>
      </defs>
      <g>
       <use xlink:href="#m329cf97133" x="94.456103" y="529.308125" style="stroke: #000000; stroke-width: 0.8"/>
      </g>
     </g>
     <g id="text_1">
      <text style="font: 10px 'DejaVu Sans', 'Bitstream Vera Sans', 'Computer Modern Sans Serif', 'Lucida Grande', 'Verdana', 'Geneva', 'Lucid', 'Arial', 'Helvetica', 'Avant Garde', sans-serif; text-anchor: middle" x="94.456103" y="543.906563" transform="rotate(-0 94.456103 543.906563)">95</text>
     </g>
    </g>
    <g id="xtick_2">
     <g id="line2d_3">
      <path d="M 171.879635 529.308125 
L 171.879635 23.837812 
" clip-path="url(#pd474da23f1)" style="fill: none; stroke: #b0b0b0; stroke-opacity: 0.3; stroke-width: 0.8; stroke-linecap: square"/>
     </g>
     <g id="line2d_4">
      <g>
       <use xlink:href="#m329cf97133" x="171.879635" y="529.308125" style="stroke: #000000; stroke-width: 0.8"/>
      </g>
     </g>
     <g id="text_2">
      <text style="font: 10px 'DejaVu Sans', 'Bitstream Vera Sans', 'Computer Modern Sans Serif', 'Lucida Grande', 'Verdana', 'Geneva', 'Lucid', 'Arial', 'Helvetica', 'Avant Garde', sans-serif; text-anchor: middle" x="171.879635" y="543.906563" transform="rotate(-0 171.879635 543.906563)">100</text>
     </g>
    </g>
    <g id="xtick_3">
     <g id="line2d_5">
      <path d="M 249.303168 529.308125 
L 249.303168 23.837812 
" clip-path="url(#pd474da23f1)" style="fill: none; stroke: #b0b0b0; stroke-opacity: 0.3; stroke-width: 0.8; stroke-linecap: square"/>
     </g>
     <g id="line2d_6">
      <g>
       <use xlink:href="#m329cf97133" x="249.303168" y="529.308125" style="stroke: #000000; stroke-width: 0.8"/>
      </g>
     </g>
     <g id="text_3">
      <text style="font: 10px 'DejaVu Sans', 'Bitstream Vera Sans', 'Computer Modern Sans Serif', 'Lucida Grande', 'Verdana', 'Geneva', 'Lucid', 'Arial', 'Helvetica', 'Avant Garde', sans-serif; text-anchor: middle" x="249.303168" y="543.906563" transform="rotate(-0 249.303168 543.906563)">105</text>
     </g>
    </g>
    <g id="xtick_4">
     <g id="line2d_7">
      <path d="M 326.7267 529.308125 
L 326.7267 23.837812 
" clip-path="url(#pd474da23f1)" style="fill: none; stroke: #b0b0b0; stroke-opacity: 0.3; stroke-width: 0.8; stroke-linecap: square"/>
     </g>
     <g id="line2d_8">
      <g>
       <use xlink:href="#m329cf97133" x="326.7267" y="529.308125" style="stroke: #000000; stroke-width: 0.8"/>
      </g>
     </g>
     <g id="text_4">
      <text style="font: 10px 'DejaVu Sans', 'Bitstream Vera Sans', 'Computer Modern Sans Serif', 'Lucida Grande', 'Verdana', 'Geneva', 'Lucid', 'Arial', 'Helvetica', 'Avant Garde', sans-serif; text-anchor: middle" x="326.7267" y="543.906563" transform="rotate(-0 326.7267 543.906563)">110</text>
     </g>
    </g>
    <g id="xtick_5">
     <g id="line2d_9">
      <path d="M 404.150232 529.308125 
L 404.150232 23.837812 
" clip-path="url(#pd474da23f1)" style="fill: none; stroke: #b0b0b0; stroke-opacity: 0.3; stroke-width: 0.8; stroke-linecap: square"/>
     </g>
     <g id="line2d_10">
      <g>
       <use xlink:href="#m329cf97133" x="404.150232" y="529.308125" style="stroke: #000000; stroke-width: 0.8"/>
      </g>
     </g>
     <g id="text_5">
      <text style="font: 10px 'DejaVu Sans', 'Bitstream Vera Sans', 'Computer Modern Sans Serif', 'Lucida Grande', 'Verdana', 'Geneva', 'Lucid', 'Arial', 'Helvetica', 'Avant Garde', sans-serif; text-anchor: middle" x="404.150232" y="543.906563" transform="rotate(-0 404.150232 543.906563)">115</text>
     </g>
    </g>
    <g id="xtick_6">
     <g id="line2d_11">
      <path d="M 481.573764 529.308125 
L 481.573764 23.837812 
" clip-path="url(#pd474da23f1)" style="fill: none; stroke: #b0b0b0; stroke-opacity: 0.3; stroke-width: 0.8; stroke-linecap: square"/>
     </g>
     <g id="line2d_12">
      <g>
       <use xlink:href="#m329cf97133" x="481.573764" y="529.308125" style="stroke: #000000; stroke-width: 0.8"/>
      </g>
     </g>
     <g id="text_6">
      <text style="font: 10px 'DejaVu Sans', 'Bitstream Vera Sans', 'Computer Modern Sans Serif', 'Lucida Grande', 'Verdana', 'Geneva', 'Lucid', 'Arial', 'Helvetica', 'Avant Garde', sans-serif; text-anchor: middle" x="481.573764" y="543.906563" transform="rotate(-0 481.573764 543.906563)">120</text>
     </g>
    </g>
    <g id="xtick_7">
     <g id="line2d_13">
      <path d="M 558.997296 529.308125 
L 558.997296 23.837812 
" clip-path="url(#pd474da23f1)" style="fill: none; stroke: #b0b0b0; stroke-opacity: 0.3; stroke-width: 0.8; stroke-linecap: square"/>
     </g>
     <g id="line2d_14">
      <g>
       <use xlink:href="#m329cf97133" x="558.997296" y="529.308125" style="stroke: #000000; stroke-width: 0.8"/>
      </g>
     </g>
     <g id="text_7">
      <text style="font: 10px 'DejaVu Sans', 'Bitstream Vera Sans', 'Computer Modern Sans Serif', 'Lucida Grande', 'Verdana', 'Geneva', 'Lucid', 'Arial', 'Helvetica', 'Avant Garde', sans-serif; text-anchor: middle" x="558.997296" y="543.906563" transform="rotate(-0 558.997296 543.906563)">125</text>
     </g>
    </g>
    <g id="text_8">
     <text style="font: 12px 'DejaVu Sans', 'Bitstream Vera Sans', 'Computer Modern Sans Serif', 'Lucida Grande', 'Verdana', 'Geneva', 'Lucid', 'Arial', 'Helvetica', 'Avant Garde', sans-serif; text-anchor: middle" x="342.211406" y="559.104375" transform="rotate(-0 342.211406 559.104375)">Build Number</text>
    </g>
   </g>
   <g id="matplotlib.axis_2">
    <g id="ytick_1">
     <g id="line2d_15">
      <defs>
       <path id="m4b4a3e5108" d="M 0 0 
L -2 0 
" style="stroke: #000000; stroke-width: 0.6"/>
      </defs>
      <g>
       <use xlink:href="#m4b4a3e5108" x="86.71375" y="498.34401" style="stroke: #000000; stroke-width: 0.6"/>
      </g>
     </g>
     <g id="text_9">
      <!-- $\mathdefault{5.006\times10^{7}}$ -->
      <g transform="translate(22.81375 502.143229)">
       <text>
        <tspan style="font: 10px 'DejaVu Sans'" x="0 6.362305 9.541016 15.90332 22.265625 30.576172 40.90332 47.265625" y="-0.06406250000000036">5.006×10</tspan>
        <tspan style="font: 7px 'DejaVu Sans'" x="53.723633" y="-3.8921875000000004">7</tspan>
       </text>
      </g>
     </g>
    </g>
    <g id="ytick_2">
     <g id="line2d_16">
      <g>
       <use xlink:href="#m4b4a3e5108" x="86.71375" y="397.979961" style="stroke: #000000; stroke-width: 0.6"/>
      </g>
     </g>
     <g id="text_10">
      <!-- $\mathdefault{5.008\times10^{7}}$ -->
      <g transform="translate(22.81375 401.77918)">
       <text>
        <tspan style="font: 10px 'DejaVu Sans'" x="0 6.362305 9.541016 15.90332 22.265625 30.576172 40.90332 47.265625" y="-0.06406250000000036">5.008×10</tspan>
        <tspan style="font: 7px 'DejaVu Sans'" x="53.723633" y="-3.8921875000000004">7</tspan>
       </text>
      </g>
     </g>
    </g>
    <g id="ytick_3">
     <g id="line2d_17">
      <g>
       <use xlink:href="#m4b4a3e5108" x="86.71375" y="297.655985" style="stroke: #000000; stroke-width: 0.6"/>
      </g>
     </g>
     <g id="text_11">
      <!-- $\mathdefault{5.01\times10^{7}}$ -->
      <g transform="translate(29.21375 301.455204)">
       <text>
        <tspan style="font: 10px 'DejaVu Sans'" x="0 6.362305 9.541016 15.90332 24.213867 34.541016 40.90332" y="-0.06406250000000036">5.01×10</tspan>
        <tspan style="font: 7px 'DejaVu Sans'" x="47.361328" y="-3.8921875000000004">7</tspan>
       </text>
      </g>
     </g>
    </g>
    <g id="ytick_4">
     <g id="line2d_18">
      <g>
       <use xlink:href="#m4b4a3e5108" x="86.71375" y="197.372051" style="stroke: #000000; stroke-width: 0.6"/>
      </g>
     </g>
     <g id="text_12">
      <!-- $\mathdefault{5.012\times10^{7}}$ -->
      <g transform="translate(22.81375 201.17127)">
       <text>
        <tspan style="font: 10px 'DejaVu Sans'" x="0 6.362305 9.541016 15.90332 22.265625 30.576172 40.90332 47.265625" y="-0.06406250000000036">5.012×10</tspan>
        <tspan style="font: 7px 'DejaVu Sans'" x="53.723633" y="-3.8921875000000004">7</tspan>
       </text>
      </g>
     </g>
    </g>
    <g id="ytick_5">
     <g id="line2d_19">
      <g>
       <use xlink:href="#m4b4a3e5108" x="86.71375" y="97.128127" style="stroke: #000000; stroke-width: 0.6"/>
      </g>
     </g>
     <g id="text_13">
      <!-- $\mathdefault{5.014\times10^{7}}$ -->
      <g transform="translate(22.81375 100.927345)">
       <text>
        <tspan style="font: 10px 'DejaVu Sans'" x="0 6.362305 9.541016 15.90332 22.265625 30.576172 40.90332 47.265625" y="-0.06406250000000036">5.014×10</tspan>
        <tspan style="font: 7px 'DejaVu Sans'" x="53.723633" y="-3.8921875000000004">7</tspan>
       </text>
      </g>
     </g>
    </g>
    <g id="text_14">
     <text style="font: 12px 'DejaVu Sans', 'Bitstream Vera Sans', 'Computer Modern Sans Serif', 'Lucida Grande', 'Verdana', 'Geneva', 'Lucid', 'Arial', 'Helvetica', 'Avant Garde', sans-serif; text-anchor: middle" x="16.318125" y="276.572969" transform="rotate(-90 16.318125 276.572969)">Median Elapsed Time (nanoseconds)</text>
    </g>
   </g>
   <g id="line2d_20">
    <path d="M 109.94081 456.394991 
L 125.425516 456.08335 
L 156.394929 475.447943 
L 171.879635 484.861282 
L 187.364342 478.633864 
L 202.849048 475.925728 
L 218.333755 482.868773 
L 233.818461 473.182491 
L 249.303168 452.740141 
L 264.787874 453.216377 
L 295.757287 440.440603 
L 311.241993 450.464355 
L 326.7267 473.825889 
L 342.211406 464.969017 
L 357.696113 471.796329 
L 388.665526 476.354832 
L 404.150232 506.332202 
L 419.634938 475.265762 
L 435.119645 477.300369 
L 450.604351 498.001199 
L 466.089058 477.50614 
L 481.573764 468.627056 
L 497.058471 464.375324 
L 512.543177 464.45813 
L 528.027884 466.378728 
L 543.51259 479.855948 
L 574.482003 432.225189 
" clip-path="url(#pd474da23f1)" style="fill: none; stroke: #1f77b4; stroke-width: 2; stroke-linecap: square"/>
    <defs>
     <path id="mdc404adfb3" d="M 0 3 
C 0.795609 3 1.55874 2.683901 2.12132 2.12132 
C 2.683901 1.55874 3 0.795609 3 0 
C 3 -0.795609 2.683901 -1.55874 2.12132 -2.12132 
C 1.55874 -2.683901 0.795609 -3 0 -3 
C -0.795609 -3 -1.55874 -2.683901 -2.12132 -2.12132 
C -2.683901 -1.55874 -3 -0.795609 -3 0 
C -3 0.795609 -2.683901 1.55874 -2.12132 2.12132 
C -1.55874 2.683901 -0.795609 3 0 3 
z
" style="stroke: #1f77b4"/>
    </defs>
    <g clip-path="url(#pd474da23f1)">
     <use xlink:href="#mdc404adfb3" x="109.94081" y="456.394991" style="fill: #1f77b4; stroke: #1f77b4"/>
     <use xlink:href="#mdc404adfb3" x="125.425516" y="456.08335" style="fill: #1f77b4; stroke: #1f77b4"/>
     <use xlink:href="#mdc404adfb3" x="156.394929" y="475.447943" style="fill: #1f77b4; stroke: #1f77b4"/>
     <use xlink:href="#mdc404adfb3" x="171.879635" y="484.861282" style="fill: #1f77b4; stroke: #1f77b4"/>
     <use xlink:href="#mdc404adfb3" x="187.364342" y="478.633864" style="fill: #1f77b4; stroke: #1f77b4"/>
     <use xlink:href="#mdc404adfb3" x="202.849048" y="475.925728" style="fill: #1f77b4; stroke: #1f77b4"/>
     <use xlink:href="#mdc404adfb3" x="218.333755" y="482.868773" style="fill: #1f77b4; stroke: #1f77b4"/>
     <use xlink:href="#mdc404adfb3" x="233.818461" y="473.182491" style="fill: #1f77b4; stroke: #1f77b4"/>
     <use xlink:href="#mdc404adfb3" x="249.303168" y="452.740141" style="fill: #1f77b4; stroke: #1f77b4"/>
     <use xlink:href="#mdc404adfb3" x="264.787874" y="453.216377" style="fill: #1f77b4; stroke: #1f77b4"/>
     <use xlink:href="#mdc404adfb3" x="295.757287" y="440.440603" style="fill: #1f77b4; stroke: #1f77b4"/>
     <use xlink:href="#mdc404adfb3" x="311.241993" y="450.464355" style="fill: #1f77b4; stroke: #1f77b4"/>
     <use xlink:href="#mdc404adfb3" x="326.7267" y="473.825889" style="fill: #1f77b4; stroke: #1f77b4"/>
     <use xlink:href="#mdc404adfb3" x="342.211406" y="464.969017" style="fill: #1f77b4; stroke: #1f77b4"/>
     <use xlink:href="#mdc404adfb3" x="357.696113" y="471.796329" style="fill: #1f77b4; stroke: #1f77b4"/>
     <use xlink:href="#mdc404adfb3" x="388.665526" y="476.354832" style="fill: #1f77b4; stroke: #1f77b4"/>
     <use xlink:href="#mdc404adfb3" x="404.150232" y="506.332202" style="fill: #1f77b4; stroke: #1f77b4"/>
     <use xlink:href="#mdc404adfb3" x="419.634938" y="475.265762" style="fill: #1f77b4; stroke: #1f77b4"/>
     <use xlink:href="#mdc404adfb3" x="435.119645" y="477.300369" style="fill: #1f77b4; stroke: #1f77b4"/>
     <use xlink:href="#mdc404adfb3" x="450.604351" y="498.001199" style="fill: #1f77b4; stroke: #1f77b4"/>
     <use xlink:href="#mdc404adfb3" x="466.089058" y="477.50614" style="fill: #1f77b4; stroke: #1f77b4"/>
     <use xlink:href="#mdc404adfb3" x="481.573764" y="468.627056" style="fill: #1f77b4; stroke: #1f77b4"/>
     <use xlink:href="#mdc404adfb3" x="497.058471" y="464.375324" style="fill: #1f77b4; stroke: #1f77b4"/>
     <use xlink:href="#mdc404adfb3" x="512.543177" y="464.45813" style="fill: #1f77b4; stroke: #1f77b4"/>
     <use xlink:href="#mdc404adfb3" x="528.027884" y="466.378728" style="fill: #1f77b4; stroke: #1f77b4"/>
     <use xlink:href="#mdc404adfb3" x="543.51259" y="479.855948" style="fill: #1f77b4; stroke: #1f77b4"/>
     <use xlink:href="#mdc404adfb3" x="574.482003" y="432.225189" style="fill: #1f77b4; stroke: #1f77b4"/>
    </g>
   </g>
   <g id="line2d_21">
    <path d="M 109.94081 129.499033 
L 125.425516 115.715342 
L 156.394929 232.281361 
L 171.879635 73.042965 
L 187.364342 243.223919 
L 202.849048 240.842228 
L 218.333755 220.55063 
L 233.818461 252.071975 
L 249.303168 90.333537 
L 264.787874 138.108523 
L 295.757287 61.173861 
L 311.241993 69.185244 
L 326.7267 244.147019 
L 342.211406 191.102125 
L 357.696113 244.555671 
L 388.665526 231.455073 
L 404.150232 228.819794 
L 419.634938 235.807657 
L 435.119645 234.654949 
L 450.604351 227.548291 
L 466.089058 226.177021 
L 481.573764 238.424458 
L 497.058471 190.765247 
L 512.543177 119.777751 
L 528.027884 196.52382 
L 543.51259 245.925537 
L 574.482003 80.767604 
" clip-path="url(#pd474da23f1)" style="fill: none; stroke: #ff7f0e; stroke-width: 2; stroke-linecap: square"/>
    <defs>
     <path id="m0dc8a542ea" d="M 0 3 
C 0.795609 3 1.55874 2.683901 2.12132 2.12132 
C 2.683901 1.55874 3 0.795609 3 0 
C 3 -0.795609 2.683901 -1.55874 2.12132 -2.12132 
C 1.55874 -2.683901 0.795609 -3 0 -3 
C -0.795609 -3 -1.55874 -2.683901 -2.12132 -2.12132 
C -2.683901 -1.55874 -3 -0.795609 -3 0 
C -3 0.795609 -2.683901 1.55874 -2.12132 2.12132 
C -1.55874 2.683901 -0.795609 3 0 3 
z
" style="stroke: #ff7f0e"/>
    </defs>
    <g clip-path="url(#pd474da23f1)">
     <use xlink:href="#m0dc8a542ea" x="109.94081" y="129.499033" style="fill: #ff7f0e; stroke: #ff7f0e"/>
     <use xlink:href="#m0dc8a542ea" x="125.425516" y="115.715342" style="fill: #ff7f0e; stroke: #ff7f0e"/>
     <use xlink:href="#m0dc8a542ea" x="156.394929" y="232.281361" style="fill: #ff7f0e; stroke: #ff7f0e"/>
     <use xlink:href="#m0dc8a542ea" x="171.879635" y="73.042965" style="fill: #ff7f0e; stroke: #ff7f0e"/>
     <use xlink:href="#m0dc8a542ea" x="187.364342" y="243.223919" style="fill: #ff7f0e; stroke: #ff7f0e"/>
     <use xlink:href="#m0dc8a542ea" x="202.849048" y="240.842228" style="fill: #ff7f0e; stroke: #ff7f0e"/>
     <use xlink:href="#m0dc8a542ea" x="218.333755" y="220.55063" style="fill: #ff7f0e; stroke: #ff7f0e"/>
     <use xlink:href="#m0dc8a542ea" x="233.818461" y="252.071975" style="fill: #ff7f0e; stroke: #ff7f0e"/>
     <use xlink:href="#m0dc8a542ea" x="249.303168" y="90.333537" style="fill: #ff7f0e; stroke: #ff7f0e"/>
     <use xlink:href="#m0dc8a542ea" x="264.787874" y="138.108523" style="fill: #ff7f0e; stroke: #ff7f0e"/>
     <use xlink:href="#m0dc8a542ea" x="295.757287" y="61.173861" style="fill: #ff7f0e; stroke: #ff7f0e"/>
     <use xlink:href="#m0dc8a542ea" x="311.241993" y="69.185244" style="fill: #ff7f0e; stroke: #ff7f0e"/>
     <use xlink:href="#m0dc8a542ea" x="326.7267" y="244.147019" style="fill: #ff7f0e; stroke: #ff7f0e"/>
     <use xlink:href="#m0dc8a542ea" x="342.211406" y="191.102125" style="fill: #ff7f0e; stroke: #ff7f0e"/>
     <use xlink:href="#m0dc8a542ea" x="357.696113" y="244.555671" style="fill: #ff7f0e; stroke: #ff7f0e"/>
     <use xlink:href="#m0dc8a542ea" x="388.665526" y="231.455073" style="fill: #ff7f0e; stroke: #ff7f0e"/>
     <use xlink:href="#m0dc8a542ea" x="404.150232" y="228.819794" style="fill: #ff7f0e; stroke: #ff7f0e"/>
     <use xlink:href="#m0dc8a542ea" x="419.634938" y="235.807657" style="fill: #ff7f0e; stroke: #ff7f0e"/>
     <use xlink:href="#m0dc8a542ea" x="435.119645" y="234.654949" style="fill: #ff7f0e; stroke: #ff7f0e"/>
     <use xlink:href="#m0dc8a542ea" x="450.604351" y="227.548291" style="fill: #ff7f0e; stroke: #ff7f0e"/>
     <use xlink:href="#m0dc8a542ea" x="466.089058" y="226.177021" style="fill: #ff7f0e; stroke: #ff7f0e"/>
     <use xlink:href="#m0dc8a542ea" x="481.573764" y="238.424458" style="fill: #ff7f0e; stroke: #ff7f0e"/>
     <use xlink:href="#m0dc8a542ea" x="497.058471" y="190.765247" style="fill: #ff7f0e; stroke: #ff7f0e"/>
     <use xlink:href="#m0dc8a542ea" x="512.543177" y="119.777751" style="fill: #ff7f0e; stroke: #ff7f0e"/>
     <use xlink:href="#m0dc8a542ea" x="528.027884" y="196.52382" style="fill: #ff7f0e; stroke: #ff7f0e"/>
     <use xlink:href="#m0dc8a542ea" x="543.51259" y="245.925537" style="fill: #ff7f0e; stroke: #ff7f0e"/>
     <use xlink:href="#m0dc8a542ea" x="574.482003" y="80.767604" style="fill: #ff7f0e; stroke: #ff7f0e"/>
    </g>
   </g>
   <g id="line2d_22">
    <path d="M 109.94081 463.426323 
L 125.425516 477.351561 
L 156.394929 495.343548 
L 171.879635 453.75986 
L 187.364342 494.223277 
L 202.849048 497.38685 
L 218.333755 475.6507 
L 233.818461 468.923154 
L 249.303168 474.307184 
L 264.787874 473.006334 
L 295.757287 498.360072 
L 311.241993 477.697356 
L 326.7267 468.612 
L 357.696113 468.456925 
L 404.150232 477.074022 
L 419.634938 476.881803 
L 435.119645 442.300801 
L 450.604351 470.171287 
L 466.089058 484.841206 
L 481.573764 485.284881 
L 497.058471 476.013556 
L 512.543177 474.051731 
L 528.027884 456.801479 
L 543.51259 499.020098 
L 574.482003 478.156576 
" clip-path="url(#pd474da23f1)" style="fill: none; stroke: #2ca02c; stroke-width: 2; stroke-linecap: square"/>
    <defs>
     <path id="m4fa580fbc6" d="M 0 3 
C 0.795609 3 1.55874 2.683901 2.12132 2.12132 
C 2.683901 1.55874 3 0.795609 3 0 
C 3 -0.795609 2.683901 -1.55874 2.12132 -2.12132 
C 1.55874 -2.683901 0.795609 -3 0 -3 
C -0.795609 -3 -1.55874 -2.683901 -2.12132 -2.12132 
C -2.683901 -1.55874 -3 -0.795609 -3 0 
C -3 0.795609 -2.683901 1.55874 -2.12132 2.12132 
C -1.55874 2.683901 -0.795609 3 0 3 
z
" style="stroke: #2ca02c"/>
    </defs>
    <g clip-path="url(#pd474da23f1)">
     <use xlink:href="#m4fa580fbc6" x="109.94081" y="463.426323" style="fill: #2ca02c; stroke: #2ca02c"/>
     <use xlink:href="#m4fa580fbc6" x="125.425516" y="477.351561" style="fill: #2ca02c; stroke: #2ca02c"/>
     <use xlink:href="#m4fa580fbc6" x="156.394929" y="495.343548" style="fill: #2ca02c; stroke: #2ca02c"/>
     <use xlink:href="#m4fa580fbc6" x="171.879635" y="453.75986" style="fill: #2ca02c; stroke: #2ca02c"/>
     <use xlink:href="#m4fa580fbc6" x="187.364342" y="494.223277" style="fill: #2ca02c; stroke: #2ca02c"/>
     <use xlink:href="#m4fa580fbc6" x="202.849048" y="497.38685" style="fill: #2ca02c; stroke: #2ca02c"/>
     <use xlink:href="#m4fa580fbc6" x="218.333755" y="475.6507" style="fill: #2ca02c; stroke: #2ca02c"/>
     <use xlink:href="#m4fa580fbc6" x="233.818461" y="468.923154" style="fill: #2ca02c; stroke: #2ca02c"/>
     <use xlink:href="#m4fa580fbc6" x="249.303168" y="474.307184" style="fill: #2ca02c; stroke: #2ca02c"/>
     <use xlink:href="#m4fa580fbc6" x="264.787874" y="473.006334" style="fill: #2ca02c; stroke: #2ca02c"/>
     <use xlink:href="#m4fa580fbc6" x="295.757287" y="498.360072" style="fill: #2ca02c; stroke: #2ca02c"/>
     <use xlink:href="#m4fa580fbc6" x="311.241993" y="477.697356" style="fill: #2ca02c; stroke: #2ca02c"/>
     <use xlink:href="#m4fa580fbc6" x="326.7267" y="468.612" style="fill: #2ca02c; stroke: #2ca02c"/>
     <use xlink:href="#m4fa580fbc6" x="357.696113" y="468.456925" style="fill: #2ca02c; stroke: #2ca02c"/>
     <use xlink:href="#m4fa580fbc6" x="404.150232" y="477.074022" style="fill: #2ca02c; stroke: #2ca02c"/>
     <use xlink:href="#m4fa580fbc6" x="419.634938" y="476.881803" style="fill: #2ca02c; stroke: #2ca02c"/>
     <use xlink:href="#m4fa580fbc6" x="435.119645" y="442.300801" style="fill: #2ca02c; stroke: #2ca02c"/>
     <use xlink:href="#m4fa580fbc6" x="450.604351" y="470.171287" style="fill: #2ca02c; stroke: #2ca02c"/>
     <use xlink:href="#m4fa580fbc6" x="466.089058" y="484.841206" style="fill: #2ca02c; stroke: #2ca02c"/>
     <use xlink:href="#m4fa580fbc6" x="481.573764" y="485.284881" style="fill: #2ca02c; stroke: #2ca02c"/>
     <use xlink:href="#m4fa580fbc6" x="497.058471" y="476.013556" style="fill: #2ca02c; stroke: #2ca02c"/>
     <use xlink:href="#m4fa580fbc6" x="512.543177" y="474.051731" style="fill: #2ca02c; stroke: #2ca02c"/>
     <use xlink:href="#m4fa580fbc6" x="528.027884" y="456.801479" style="fill: #2ca02c; stroke: #2ca02c"/>
     <use xlink:href="#m4fa580fbc6" x="543.51259" y="499.020098" style="fill: #2ca02c; stroke: #2ca02c"/>
     <use xlink:href="#m4fa580fbc6" x="574.482003" y="478.156576" style="fill: #2ca02c; stroke: #2ca02c"/>
    </g>
   </g>
   <g id="line2d_23">
    <path d="M 109.94081 157.701751 
L 125.425516 247.430292 
L 156.394929 244.334547 
L 171.879635 213.448883 
L 187.364342 239.366092 
L 202.849048 237.434192 
L 218.333755 218.08693 
L 233.818461 230.86093 
L 249.303168 247.784295 
L 264.787874 234.366147 
L 295.757287 216.488597 
L 311.241993 233.07456 
L 326.7267 229.441509 
L 357.696113 240.488235 
L 404.150232 237.855869 
L 419.634938 243.159237 
L 435.119645 46.813736 
L 450.604351 237.377032 
L 466.089058 249.588411 
L 481.573764 236.981428 
L 497.058471 208.462489 
L 512.543177 229.054441 
L 528.027884 158.873654 
L 543.51259 213.927674 
L 574.482003 169.626545 
" clip-path="url(#pd474da23f1)" style="fill: none; stroke: #d62728; stroke-width: 2; stroke-linecap: square"/>
    <defs>
     <path id="m3da06bad5f" d="M 0 3 
C 0.795609 3 1.55874 2.683901 2.12132 2.12132 
C 2.683901 1.55874 3 0.795609 3 0 
C 3 -0.795609 2.683901 -1.55874 2.12132 -2.12132 
C 1.55874 -2.683901 0.795609 -3 0 -3 
C -0.795609 -3 -1.55874 -2.683901 -2.12132 -2.12132 
C -2.683901 -1.55874 -3 -0.795609 -3 0 
C -3 0.795609 -2.683901 1.55874 -2.12132 2.12132 
C -1.55874 2.683901 -0.795609 3 0 3 
z
" style="stroke: #d62728"/>
    </defs>
    <g clip-path="url(#pd474da23f1)">
     <use xlink:href="#m3da06bad5f" x="109.94081" y="157.701751" style="fill: #d62728; stroke: #d62728"/>
     <use xlink:href="#m3da06bad5f" x="125.425516" y="247.430292" style="fill: #d62728; stroke: #d62728"/>
     <use xlink:href="#m3da06bad5f" x="156.394929" y="244.334547" style="fill: #d62728; stroke: #d62728"/>
     <use xlink:href="#m3da06bad5f" x="171.879635" y="213.448883" style="fill: #d62728; stroke: #d62728"/>
     <use xlink:href="#m3da06bad5f" x="187.364342" y="239.366092" style="fill: #d62728; stroke: #d62728"/>
     <use xlink:href="#m3da06bad5f" x="202.849048" y="237.434192" style="fill: #d62728; stroke: #d62728"/>
     <use xlink:href="#m3da06bad5f" x="218.333755" y="218.08693" style="fill: #d62728; stroke: #d62728"/>
     <use xlink:href="#m3da06bad5f" x="233.818461" y="230.86093" style="fill: #d62728; stroke: #d62728"/>
     <use xlink:href="#m3da06bad5f" x="249.303168" y="247.784295" style="fill: #d62728; stroke: #d62728"/>
     <use xlink:href="#m3da06bad5f" x="264.787874" y="234.366147" style="fill: #d62728; stroke: #d62728"/>
     <use xlink:href="#m3da06bad5f" x="295.757287" y="216.488597" style="fill: #d62728; stroke: #d62728"/>
     <use xlink:href="#m3da06bad5f" x="311.241993" y="233.07456" style="fill: #d62728; stroke: #d62728"/>
     <use xlink:href="#m3da06bad5f" x="326.7267" y="229.441509" style="fill: #d62728; stroke: #d62728"/>
     <use xlink:href="#m3da06bad5f" x="357.696113" y="240.488235" style="fill: #d62728; stroke: #d62728"/>
     <use xlink:href="#m3da06bad5f" x="404.150232" y="237.855869" style="fill: #d62728; stroke: #d62728"/>
     <use xlink:href="#m3da06bad5f" x="419.634938" y="243.159237" style="fill: #d62728; stroke: #d62728"/>
     <use xlink:href="#m3da06bad5f" x="435.119645" y="46.813736" style="fill: #d62728; stroke: #d62728"/>
     <use xlink:href="#m3da06bad5f" x="450.604351" y="237.377032" style="fill: #d62728; stroke: #d62728"/>
     <use xlink:href="#m3da06bad5f" x="466.089058" y="249.588411" style="fill: #d62728; stroke: #d62728"/>
     <use xlink:href="#m3da06bad5f" x="481.573764" y="236.981428" style="fill: #d62728; stroke: #d62728"/>
     <use xlink:href="#m3da06bad5f" x="497.058471" y="208.462489" style="fill: #d62728; stroke: #d62728"/>
     <use xlink:href="#m3da06bad5f" x="512.543177" y="229.054441" style="fill: #d62728; stroke: #d62728"/>
     <use xlink:href="#m3da06bad5f" x="528.027884" y="158.873654" style="fill: #d62728; stroke: #d62728"/>
     <use xlink:href="#m3da06bad5f" x="543.51259" y="213.927674" style="fill: #d62728; stroke: #d62728"/>
     <use xlink:href="#m3da06bad5f" x="574.482003" y="169.626545" style="fill: #d62728; stroke: #d62728"/>
    </g>
   </g>
   <g id="patch_3">
    <path d="M 86.71375 529.308125 
L 86.71375 23.837812 
" style="fill: none; stroke: #000000; stroke-width: 0.8; stroke-linejoin: miter; stroke-linecap: square"/>
   </g>
   <g id="patch_4">
    <path d="M 597.709062 529.308125 
L 597.709062 23.837812 
" style="fill: none; stroke: #000000; stroke-width: 0.8; stroke-linejoin: miter; stroke-linecap: square"/>
   </g>
   <g id="patch_5">
    <path d="M 86.71375 529.308125 
L 597.709063 529.308125 
" style="fill: none; stroke: #000000; stroke-width: 0.8; stroke-linejoin: miter; stroke-linecap: square"/>
   </g>
   <g id="patch_6">
    <path d="M 86.71375 23.837812 
L 597.709063 23.837812 
" style="fill: none; stroke: #000000; stroke-width: 0.8; stroke-linejoin: miter; stroke-linecap: square"/>
   </g>
   <g id="text_15">
    <text style="font: 700 14px 'DejaVu Sans', 'Bitstream Vera Sans', 'Computer Modern Sans Serif', 'Lucida Grande', 'Verdana', 'Geneva', 'Lucid', 'Arial', 'Helvetica', 'Avant Garde', sans-serif; text-anchor: middle" x="342.211406" y="17.837813" transform="rotate(-0 342.211406 17.837813)">Coroutine Suspension - Performance Trend</text>
   </g>
   <g id="legend_1">
    <g id="patch_7">
     <path d="M 630.258828 91.662813 
L 839.669766 91.662813 
Q 841.669766 91.662813 841.669766 89.662813 
L 841.669766 30.837813 
Q 841.669766 28.837813 839.669766 28.837813 
L 630.258828 28.837813 
Q 628.258828 28.837813 628.258828 30.837813 
L 628.258828 89.662813 
Q 628.258828 91.662813 630.258828 91.662813 
z
" style="fill: #ffffff; opacity: 0.8; stroke: #cccccc; stroke-linejoin: miter"/>
    </g>
    <g id="line2d_24">
     <path d="M 632.258828 36.93625 
L 642.258828 36.93625 
L 652.258828 36.93625 
" style="fill: none; stroke: #1f77b4; stroke-width: 2; stroke-linecap: square"/>
     <g>
      <use xlink:href="#mdc404adfb3" x="642.258828" y="36.93625" style="fill: #1f77b4; stroke: #1f77b4"/>
     </g>
    </g>
    <g id="text_16">
     <text style="font: 10px 'DejaVu Sans', 'Bitstream Vera Sans', 'Computer Modern Sans Serif', 'Lucida Grande', 'Verdana', 'Geneva', 'Lucid', 'Arial', 'Helvetica', 'Avant Garde', sans-serif; text-anchor: start" x="660.258828" y="40.43625" transform="rotate(-0 660.258828 40.43625)">gcc-14.2 - SuspensionOverhead_V1</text>
    </g>
    <g id="line2d_25">
     <path d="M 632.258828 51.8925 
L 642.258828 51.8925 
L 652.258828 51.8925 
" style="fill: none; stroke: #ff7f0e; stroke-width: 2; stroke-linecap: square"/>
     <g>
      <use xlink:href="#m0dc8a542ea" x="642.258828" y="51.8925" style="fill: #ff7f0e; stroke: #ff7f0e"/>
     </g>
    </g>
    <g id="text_17">
     <text style="font: 10px 'DejaVu Sans', 'Bitstream Vera Sans', 'Computer Modern Sans Serif', 'Lucida Grande', 'Verdana', 'Geneva', 'Lucid', 'Arial', 'Helvetica', 'Avant Garde', sans-serif; text-anchor: start" x="660.258828" y="55.3925" transform="rotate(-0 660.258828 55.3925)">gcc-14.2 - SuspensionOverhead_V2</text>
    </g>
    <g id="line2d_26">
     <path d="M 632.258828 66.84875 
L 642.258828 66.84875 
L 652.258828 66.84875 
" style="fill: none; stroke: #2ca02c; stroke-width: 2; stroke-linecap: square"/>
     <g>
      <use xlink:href="#m4fa580fbc6" x="642.258828" y="66.84875" style="fill: #2ca02c; stroke: #2ca02c"/>
     </g>
    </g>
    <g id="text_18">
     <text style="font: 10px 'DejaVu Sans', 'Bitstream Vera Sans', 'Computer Modern Sans Serif', 'Lucida Grande', 'Verdana', 'Geneva', 'Lucid', 'Arial', 'Helvetica', 'Avant Garde', sans-serif; text-anchor: start" x="660.258828" y="70.34875" transform="rotate(-0 660.258828 70.34875)">gcc-4.2 - SuspensionOverhead_V1</text>
    </g>
    <g id="line2d_27">
     <path d="M 632.258828 81.805 
L 642.258828 81.805 
L 652.258828 81.805 
" style="fill: none; stroke: #d62728; stroke-width: 2; stroke-linecap: square"/>
     <g>
      <use xlink:href="#m3da06bad5f" x="642.258828" y="81.805" style="fill: #d62728; stroke: #d62728"/>
     </g>
    </g>
    <g id="text_19">
     <text style="font: 10px 'DejaVu Sans', 'Bitstream Vera Sans', 'Computer Modern Sans Serif', 'Lucida Grande', 'Verdana', 'Geneva', 'Lucid', 'Arial', 'Helvetica', 'Avant Garde', sans-serif; text-anchor: start" x="660.258828" y="85.305" transform="rotate(-0 660.258828 85.305)">gcc-4.2 - SuspensionOverhead_V2</text>
    </g>
   </g>
  </g>
 </g>
 <defs>
  <clipPath id="pd474da23f1">
   <rect x="86.71375" y="23.837813" width="510.995312" height="505.470313"/>
  </clipPath>
 </defs>
</svg>
