<?xml version="1.0" encoding="utf-8" standalone="no"?>
<!DOCTYPE svg PUBLIC "-//W3C//DTD SVG 1.1//EN"
  "http://www.w3.org/Graphics/SVG/1.1/DTD/svg11.dtd">
<svg xmlns:xlink="http://www.w3.org/1999/xlink" width="856.684141pt" height="568.8pt" viewBox="0 0 856.684141 568.8" xmlns="http://www.w3.org/2000/svg" version="1.1">
 <metadata>
  <rdf:RDF xmlns:dc="http://purl.org/dc/elements/1.1/" xmlns:cc="http://creativecommons.org/ns#" xmlns:rdf="http://www.w3.org/1999/02/22-rdf-syntax-ns#">
   <cc:Work>
    <dc:type rdf:resource="http://purl.org/dc/dcmitype/StillImage"/>
    <dc:date>2026-03-15T13:27:21.574734</dc:date>
    <dc:format>image/svg+xml</dc:format>
    <dc:creator>
     <cc:Agent>
      <dc:title>Matplotlib v3.9.4, https://matplotlib.org/</dc:title>
     </cc:Agent>
    </dc:creator>
   </cc:Work>
  </rdf:RDF>
 </metadata>
 <defs>
  <style type="text/css">*{stroke-linejoin: round; stroke-linecap: butt}</style>
 </defs>
 <g id="figure_1">
  <g id="patch_1">
   <path d="M 0 568.8 
L 856.684141 568.8 
L 856.684141 0 
L 0 0 
z
" style="fill: #ffffff"/>
  </g>
  <g id="axes_1">
   <g id="patch_2">
    <path d="M 64.41375 529.308125 
L 731.696562 529.308125 
L 731.696562 23.837812 
L 64.41375 23.837812 
z
" style="fill: #ffffff"/>
   </g>
   <g id="matplotlib.axis_1">
    <g id="xtick_1">
     <g id="line2d_1">
      <path d="M 83.715319 529.308125 
L 83.715319 23.837812 
" clip-path="url(#p0a87dcf9ad)" style="fill: none; stroke: #b0b0b0; stroke-opacity: 0.3; stroke-width: 0.8; stroke-linecap: square"/>
     </g>
     <g id="line2d_2">
      <defs>
       <path id="mbf31c42b1f" d="M 0 0 
L 0 3.5 
" style="stroke: #000000; stroke-width: 0.8"/>
      </defs>
      <g>
       <use xlink:href="#mbf31c42b1f" x="83.715319" y="529.308125" style="stroke: #000000; stroke-width: 0.8"/>
      </g>
     </g>
     <g id="text_1">
      <text style="font: 10px 'DejaVu Sans', 'Bitstream Vera Sans', 'Computer Modern Sans Serif', 'Lucida Grande', 'Verdana', 'Geneva', 'Lucid', 'Arial', 'Helvetica', 'Avant Garde', sans-serif; text-anchor: middle" x="83.715319" y="543.906563" transform="rotate(-0 83.715319 543.906563)">70</text>
     </g>
    </g>
    <g id="xtick_2">
     <g id="line2d_3">
      <path d="M 194.009999 529.308125 
L 194.009999 23.837812 
" clip-path="url(#p0a87dcf9ad)" style="fill: none; stroke: #b0b0b0; stroke-opacity: 0.3; stroke-width: 0.8; stroke-linecap: square"/>
     </g>
     <g id="line2d_4">
      <g>
       <use xlink:href="#mbf31c42b1f" x="194.009999" y="529.308125" style="stroke: #000000; stroke-width: 0.8"/>
      </g>
     </g>
     <g id="text_2">
      <text style="font: 10px 'DejaVu Sans', 'Bitstream Vera Sans', 'Computer Modern Sans Serif', 'Lucida Grande', 'Verdana', 'Geneva', 'Lucid', 'Arial', 'Helvetica', 'Avant Garde', sans-serif; text-anchor: middle" x="194.009999" y="543.906563" transform="rotate(-0 194.009999 543.906563)">80</text>
     </g>
    </g>
    <g id="xtick_3">
     <g id="line2d_5">
      <path d="M 304.304678 529.308125 
L 304.304678 23.837812 
" clip-path="url(#p0a87dcf9ad)" style="fill: none; stroke: #b0b0b0; stroke-opacity: 0.3; stroke-width: 0.8; stroke-linecap: square"/>
     </g>
     <g id="line2d_6">
      <g>
       <use xlink:href="#mbf31c42b1f" x="304.304678" y="529.308125" style="stroke: #000000; stroke-width: 0.8"/>
      </g>
     </g>
     <g id="text_3">
      <text style="font: 10px 'DejaVu Sans', 'Bitstream Vera Sans', 'Computer Modern Sans Serif', 'Lucida Grande', 'Verdana', 'Geneva', 'Lucid', 'Arial', 'Helvetica', 'Avant Garde', sans-serif; text-anchor: middle" x="304.304678" y="543.906563" transform="rotate(-0 304.304678 543.906563)">90</text>
     </g>
    </g>
    <g id="xtick_4">
     <g id="line2d_7">
      <path d="M 414.599358 529.308125 
L 414.599358 23.837812 
" clip-path="url(#p0a87dcf9ad)" style="fill: none; stroke: #b0b0b0; stroke-opacity: 0.3; stroke-width: 0.8; stroke-linecap: square"/>
     </g>
     <g id="line2d_8">
      <g>
       <use xlink:href="#mbf31c42b1f" x="414.599358" y="529.308125" style="stroke: #000000; stroke-width: 0.8"/>
      </g>
     </g>
     <g id="text_4">
      <text style="font: 10px 'DejaVu Sans', 'Bitstream Vera Sans', 'Computer Modern Sans Serif', 'Lucida Grande', 'Verdana', 'Geneva', 'Lucid', 'Arial', 'Helvetica', 'Avant Garde', sans-serif; text-anchor: middle" x="414.599358" y="543.906563" transform="rotate(-0 414.599358 543.906563)">100</text>
     </g>
    </g>
    <g id="xtick_5">
     <g id="line2d_9">
      <path d="M 524.894038 529.308125 
L 524.894038 23.837812 
" clip-path="url(#p0a87dcf9ad)" style="fill: none; stroke: #b0b0b0; stroke-opacity: 0.3; stroke-width: 0.8; stroke-linecap: square"/>
     </g>
     <g id="line2d_10">
      <g>
       <use xlink:href="#mbf31c42b1f" x="524.894038" y="529.308125" style="stroke: #000000; stroke-width: 0.8"/>
      </g>
     </g>
     <g id="text_5">
      <text style="font: 10px 'DejaVu Sans', 'Bitstream Vera Sans', 'Computer Modern Sans Serif', 'Lucida Grande', 'Verdana', 'Geneva', 'Lucid', 'Arial', 'Helvetica', 'Avant Garde', sans-serif; text-anchor: middle" x="524.894038" y="543.906563" transform="rotate(-0 524.894038 543.906563)">110</text>
     </g>
    </g>
    <g id="xtick_6">
     <g id="line2d_11">
      <path d="M 635.188718 529.308125 
L 635.188718 23.837812 
" clip-path="url(#p0a87dcf9ad)" style="fill: none; stroke: #b0b0b0; stroke-opacity: 0.3; stroke-width: 0.8; stroke-linecap: square"/>
     </g>
     <g id="line2d_12">
      <g>
       <use xlink:href="#mbf31c42b1f" x="635.188718" y="529.308125" style="stroke: #000000; stroke-width: 0.8"/>
      </g>
     </g>
     <g id="text_6">
      <text style="font: 10px 'DejaVu Sans', 'Bitstream Vera Sans', 'Computer Modern Sans Serif', 'Lucida Grande', 'Verdana', 'Geneva', 'Lucid', 'Arial', 'Helvetica', 'Avant Garde', sans-serif; text-anchor: middle" x="635.188718" y="543.906563" transform="rotate(-0 635.188718 543.906563)">120</text>
     </g>
    </g>
    <g id="text_7">
     <text style="font: 12px 'DejaVu Sans', 'Bitstream Vera Sans', 'Computer Modern Sans Serif', 'Lucida Grande', 'Verdana', 'Geneva', 'Lucid', 'Arial', 'Helvetica', 'Avant Garde', sans-serif; text-anchor: middle" x="398.055156" y="559.104375" transform="rotate(-0 398.055156 559.104375)">Build Number</text>
    </g>
   </g>
   <g id="matplotlib.axis_2">
    <g id="ytick_1">
     <g id="line2d_13">
      <defs>
       <path id="m82a6d0698b" d="M 0 0 
L -2 0 
" style="stroke: #000000; stroke-width: 0.6"/>
      </defs>
      <g>
       <use xlink:href="#m82a6d0698b" x="64.41375" y="422.659884" style="stroke: #000000; stroke-width: 0.6"/>
      </g>
     </g>
     <g id="text_8">
      <!-- $\mathdefault{4\times10^{0}}$ -->
      <g transform="translate(22.81375 426.459103)">
       <text>
        <tspan style="font: 10px 'DejaVu Sans'" x="0 8.310547 18.637695 25" y="-0.9765625">4×10</tspan>
        <tspan style="font: 7px 'DejaVu Sans'" x="31.458008" y="-4.8046875">0</tspan>
       </text>
      </g>
     </g>
    </g>
    <g id="ytick_2">
     <g id="line2d_14">
      <g>
       <use xlink:href="#m82a6d0698b" x="64.41375" y="224.687203" style="stroke: #000000; stroke-width: 0.6"/>
      </g>
     </g>
     <g id="text_9">
      <!-- $\mathdefault{5\times10^{0}}$ -->
      <g transform="translate(22.81375 228.486422)">
       <text>
        <tspan style="font: 10px 'DejaVu Sans'" x="0 8.310547 18.637695 25" y="-0.9765625">5×10</tspan>
        <tspan style="font: 7px 'DejaVu Sans'" x="31.458008" y="-4.8046875">0</tspan>
       </text>
      </g>
     </g>
    </g>
    <g id="ytick_3">
     <g id="line2d_15">
      <g>
       <use xlink:href="#m82a6d0698b" x="64.41375" y="62.931745" style="stroke: #000000; stroke-width: 0.6"/>
      </g>
     </g>
     <g id="text_10">
      <!-- $\mathdefault{6\times10^{0}}$ -->
      <g transform="translate(22.81375 66.730964)">
       <text>
        <tspan style="font: 10px 'DejaVu Sans'" x="0 8.310547 18.637695 25" y="-0.9765625">6×10</tspan>
        <tspan style="font: 7px 'DejaVu Sans'" x="31.458008" y="-4.8046875">0</tspan>
       </text>
      </g>
     </g>
    </g>
    <g id="text_11">
     <text style="font: 12px 'DejaVu Sans', 'Bitstream Vera Sans', 'Computer Modern Sans Serif', 'Lucida Grande', 'Verdana', 'Geneva', 'Lucid', 'Arial', 'Helvetica', 'Avant Garde', sans-serif; text-anchor: middle" x="16.318125" y="276.572969" transform="rotate(-90 16.318125 276.572969)">Median Elapsed Time (nanoseconds)</text>
    </g>
   </g>
   <g id="line2d_16">
    <path d="M 94.744787 377.263444 
L 105.774255 377.263444 
L 116.803723 377.263444 
L 127.833191 377.263444 
L 138.862659 377.263444 
L 149.892127 377.263444 
L 160.921595 377.263444 
L 171.951063 377.263444 
L 182.980531 377.263444 
L 194.009999 377.263444 
L 205.039467 377.263444 
L 216.068935 379.373311 
L 227.098403 377.263444 
L 249.157339 379.373311 
L 260.186807 379.373311 
L 282.245743 377.263444 
L 293.27521 377.263444 
L 304.304678 377.263444 
L 315.334146 398.591364 
L 326.363614 377.263444 
L 348.42255 377.263444 
L 359.452018 377.263444 
L 370.481486 377.263444 
L 381.510954 377.263444 
L 403.56989 379.373311 
L 414.599358 379.373311 
L 425.628826 377.263444 
L 436.658294 379.373311 
L 447.687762 379.373311 
L 458.71723 377.263444 
L 469.746698 379.373311 
L 480.776166 379.373311 
L 502.835102 442.849855 
L 513.86457 442.849855 
L 524.894038 445.121812 
L 546.952974 442.849855 
L 580.041378 442.849855 
L 591.070846 445.121812 
L 602.100314 445.121812 
L 613.129782 442.849855 
L 624.15925 442.849855 
L 635.188718 442.849855 
L 646.218186 442.849855 
L 657.247654 465.835564 
L 668.277122 445.121812 
L 679.30659 445.121812 
L 701.365526 445.121812 
" clip-path="url(#p0a87dcf9ad)" style="fill: none; stroke: #1f77b4; stroke-width: 2; stroke-linecap: square"/>
    <defs>
     <path id="mec9f7777d2" d="M 0 3 
C 0.795609 3 1.55874 2.683901 2.12132 2.12132 
C 2.683901 1.55874 3 0.795609 3 0 
C 3 -0.795609 2.683901 -1.55874 2.12132 -2.12132 
C 1.55874 -2.683901 0.795609 -3 0 -3 
C -0.795609 -3 -1.55874 -2.683901 -2.12132 -2.12132 
C -2.683901 -1.55874 -3 -0.795609 -3 0 
C -3 0.795609 -2.683901 1.55874 -2.12132 2.12132 
C -1.55874 2.683901 -0.795609 3 0 3 
z
" style="stroke: #1f77b4"/>
    </defs>
    <g clip-path="url(#p0a87dcf9ad)">
     <use xlink:href="#mec9f7777d2" x="94.744787" y="377.263444" style="fill: #1f77b4; stroke: #1f77b4"/>
     <use xlink:href="#mec9f7777d2" x="105.774255" y="377.263444" style="fill: #1f77b4; stroke: #1f77b4"/>
     <use xlink:href="#mec9f7777d2" x="116.803723" y="377.263444" style="fill: #1f77b4; stroke: #1f77b4"/>
     <use xlink:href="#mec9f7777d2" x="127.833191" y="377.263444" style="fill: #1f77b4; stroke: #1f77b4"/>
     <use xlink:href="#mec9f7777d2" x="138.862659" y="377.263444" style="fill: #1f77b4; stroke: #1f77b4"/>
     <use xlink:href="#mec9f7777d2" x="149.892127" y="377.263444" style="fill: #1f77b4; stroke: #1f77b4"/>
     <use xlink:href="#mec9f7777d2" x="160.921595" y="377.263444" style="fill: #1f77b4; stroke: #1f77b4"/>
     <use xlink:href="#mec9f7777d2" x="171.951063" y="377.263444" style="fill: #1f77b4; stroke: #1f77b4"/>
     <use xlink:href="#mec9f7777d2" x="182.980531" y="377.263444" style="fill: #1f77b4; stroke: #1f77b4"/>
     <use xlink:href="#mec9f7777d2" x="194.009999" y="377.263444" style="fill: #1f77b4; stroke: #1f77b4"/>
     <use xlink:href="#mec9f7777d2" x="205.039467" y="377.263444" style="fill: #1f77b4; stroke: #1f77b4"/>
     <use xlink:href="#mec9f7777d2" x="216.068935" y="379.373311" style="fill: #1f77b4; stroke: #1f77b4"/>
     <use xlink:href="#mec9f7777d2" x="227.098403" y="377.263444" style="fill: #1f77b4; stroke: #1f77b4"/>
     <use xlink:href="#mec9f7777d2" x="249.157339" y="379.373311" style="fill: #1f77b4; stroke: #1f77b4"/>
     <use xlink:href="#mec9f7777d2" x="260.186807" y="379.373311" style="fill: #1f77b4; stroke: #1f77b4"/>
     <use xlink:href="#mec9f7777d2" x="282.245743" y="377.263444" style="fill: #1f77b4; stroke: #1f77b4"/>
     <use xlink:href="#mec9f7777d2" x="293.27521" y="377.263444" style="fill: #1f77b4; stroke: #1f77b4"/>
     <use xlink:href="#mec9f7777d2" x="304.304678" y="377.263444" style="fill: #1f77b4; stroke: #1f77b4"/>
     <use xlink:href="#mec9f7777d2" x="315.334146" y="398.591364" style="fill: #1f77b4; stroke: #1f77b4"/>
     <use xlink:href="#mec9f7777d2" x="326.363614" y="377.263444" style="fill: #1f77b4; stroke: #1f77b4"/>
     <use xlink:href="#mec9f7777d2" x="348.42255" y="377.263444" style="fill: #1f77b4; stroke: #1f77b4"/>
     <use xlink:href="#mec9f7777d2" x="359.452018" y="377.263444" style="fill: #1f77b4; stroke: #1f77b4"/>
     <use xlink:href="#mec9f7777d2" x="370.481486" y="377.263444" style="fill: #1f77b4; stroke: #1f77b4"/>
     <use xlink:href="#mec9f7777d2" x="381.510954" y="377.263444" style="fill: #1f77b4; stroke: #1f77b4"/>
     <use xlink:href="#mec9f7777d2" x="403.56989" y="379.373311" style="fill: #1f77b4; stroke: #1f77b4"/>
     <use xlink:href="#mec9f7777d2" x="414.599358" y="379.373311" style="fill: #1f77b4; stroke: #1f77b4"/>
     <use xlink:href="#mec9f7777d2" x="425.628826" y="377.263444" style="fill: #1f77b4; stroke: #1f77b4"/>
     <use xlink:href="#mec9f7777d2" x="436.658294" y="379.373311" style="fill: #1f77b4; stroke: #1f77b4"/>
     <use xlink:href="#mec9f7777d2" x="447.687762" y="379.373311" style="fill: #1f77b4; stroke: #1f77b4"/>
     <use xlink:href="#mec9f7777d2" x="458.71723" y="377.263444" style="fill: #1f77b4; stroke: #1f77b4"/>
     <use xlink:href="#mec9f7777d2" x="469.746698" y="379.373311" style="fill: #1f77b4; stroke: #1f77b4"/>
     <use xlink:href="#mec9f7777d2" x="480.776166" y="379.373311" style="fill: #1f77b4; stroke: #1f77b4"/>
     <use xlink:href="#mec9f7777d2" x="502.835102" y="442.849855" style="fill: #1f77b4; stroke: #1f77b4"/>
     <use xlink:href="#mec9f7777d2" x="513.86457" y="442.849855" style="fill: #1f77b4; stroke: #1f77b4"/>
     <use xlink:href="#mec9f7777d2" x="524.894038" y="445.121812" style="fill: #1f77b4; stroke: #1f77b4"/>
     <use xlink:href="#mec9f7777d2" x="546.952974" y="442.849855" style="fill: #1f77b4; stroke: #1f77b4"/>
     <use xlink:href="#mec9f7777d2" x="580.041378" y="442.849855" style="fill: #1f77b4; stroke: #1f77b4"/>
     <use xlink:href="#mec9f7777d2" x="591.070846" y="445.121812" style="fill: #1f77b4; stroke: #1f77b4"/>
     <use xlink:href="#mec9f7777d2" x="602.100314" y="445.121812" style="fill: #1f77b4; stroke: #1f77b4"/>
     <use xlink:href="#mec9f7777d2" x="613.129782" y="442.849855" style="fill: #1f77b4; stroke: #1f77b4"/>
     <use xlink:href="#mec9f7777d2" x="624.15925" y="442.849855" style="fill: #1f77b4; stroke: #1f77b4"/>
     <use xlink:href="#mec9f7777d2" x="635.188718" y="442.849855" style="fill: #1f77b4; stroke: #1f77b4"/>
     <use xlink:href="#mec9f7777d2" x="646.218186" y="442.849855" style="fill: #1f77b4; stroke: #1f77b4"/>
     <use xlink:href="#mec9f7777d2" x="657.247654" y="465.835564" style="fill: #1f77b4; stroke: #1f77b4"/>
     <use xlink:href="#mec9f7777d2" x="668.277122" y="445.121812" style="fill: #1f77b4; stroke: #1f77b4"/>
     <use xlink:href="#mec9f7777d2" x="679.30659" y="445.121812" style="fill: #1f77b4; stroke: #1f77b4"/>
     <use xlink:href="#mec9f7777d2" x="701.365526" y="445.121812" style="fill: #1f77b4; stroke: #1f77b4"/>
    </g>
   </g>
   <g id="line2d_17">
    <path d="M 94.744787 442.849855 
L 105.774255 356.436226 
L 116.803723 358.497083 
L 127.833191 377.263444 
L 138.862659 358.497083 
L 149.892127 377.263444 
L 160.921595 377.263444 
L 171.951063 358.497083 
L 182.980531 377.263444 
L 194.009999 356.436226 
L 205.039467 377.263444 
L 216.068935 358.497083 
L 227.098403 356.436226 
L 238.127871 356.436226 
L 249.157339 377.263444 
L 260.186807 358.497083 
L 282.245743 358.497083 
L 293.27521 358.497083 
L 304.304678 377.263444 
L 315.334146 356.436226 
L 326.363614 358.497083 
L 337.393082 358.497083 
L 348.42255 358.497083 
L 359.452018 356.436226 
L 370.481486 358.497083 
L 381.510954 46.813736 
L 403.56989 377.263444 
L 414.599358 377.263444 
L 425.628826 358.497083 
L 436.658294 356.436226 
L 447.687762 356.436226 
L 458.71723 356.436226 
L 469.746698 358.497083 
L 480.776166 356.436226 
L 502.835102 356.436226 
L 513.86457 377.263444 
L 524.894038 358.497083 
L 535.923506 358.497083 
L 546.952974 358.497083 
L 569.01191 377.263444 
L 580.041378 356.436226 
L 591.070846 356.436226 
L 602.100314 356.436226 
L 613.129782 356.436226 
L 624.15925 356.436226 
L 635.188718 358.497083 
L 646.218186 358.497083 
L 657.247654 506.332202 
L 668.277122 356.436226 
L 679.30659 377.263444 
" clip-path="url(#p0a87dcf9ad)" style="fill: none; stroke: #ff7f0e; stroke-width: 2; stroke-linecap: square"/>
    <defs>
     <path id="m20dc6240a5" d="M 0 3 
C 0.795609 3 1.55874 2.683901 2.12132 2.12132 
C 2.683901 1.55874 3 0.795609 3 0 
C 3 -0.795609 2.683901 -1.55874 2.12132 -2.12132 
C 1.55874 -2.683901 0.795609 -3 0 -3 
C -0.795609 -3 -1.55874 -2.683901 -2.12132 -2.12132 
C -2.683901 -1.55874 -3 -0.795609 -3 0 
C -3 0.795609 -2.683901 1.55874 -2.12132 2.12132 
C -1.55874 2.683901 -0.795609 3 0 3 
z
" style="stroke: #ff7f0e"/>
    </defs>
    <g clip-path="url(#p0a87dcf9ad)">
     <use xlink:href="#m20dc6240a5" x="94.744787" y="442.849855" style="fill: #ff7f0e; stroke: #ff7f0e"/>
     <use xlink:href="#m20dc6240a5" x="105.774255" y="356.436226" style="fill: #ff7f0e; stroke: #ff7f0e"/>
     <use xlink:href="#m20dc6240a5" x="116.803723" y="358.497083" style="fill: #ff7f0e; stroke: #ff7f0e"/>
     <use xlink:href="#m20dc6240a5" x="127.833191" y="377.263444" style="fill: #ff7f0e; stroke: #ff7f0e"/>
     <use xlink:href="#m20dc6240a5" x="138.862659" y="358.497083" style="fill: #ff7f0e; stroke: #ff7f0e"/>
     <use xlink:href="#m20dc6240a5" x="149.892127" y="377.263444" style="fill: #ff7f0e; stroke: #ff7f0e"/>
     <use xlink:href="#m20dc6240a5" x="160.921595" y="377.263444" style="fill: #ff7f0e; stroke: #ff7f0e"/>
     <use xlink:href="#m20dc6240a5" x="171.951063" y="358.497083" style="fill: #ff7f0e; stroke: #ff7f0e"/>
     <use xlink:href="#m20dc6240a5" x="182.980531" y="377.263444" style="fill: #ff7f0e; stroke: #ff7f0e"/>
     <use xlink:href="#m20dc6240a5" x="194.009999" y="356.436226" style="fill: #ff7f0e; stroke: #ff7f0e"/>
     <use xlink:href="#m20dc6240a5" x="205.039467" y="377.263444" style="fill: #ff7f0e; stroke: #ff7f0e"/>
     <use xlink:href="#m20dc6240a5" x="216.068935" y="358.497083" style="fill: #ff7f0e; stroke: #ff7f0e"/>
     <use xlink:href="#m20dc6240a5" x="227.098403" y="356.436226" style="fill: #ff7f0e; stroke: #ff7f0e"/>
     <use xlink:href="#m20dc6240a5" x="238.127871" y="356.436226" style="fill: #ff7f0e; stroke: #ff7f0e"/>
     <use xlink:href="#m20dc6240a5" x="249.157339" y="377.263444" style="fill: #ff7f0e; stroke: #ff7f0e"/>
     <use xlink:href="#m20dc6240a5" x="260.186807" y="358.497083" style="fill: #ff7f0e; stroke: #ff7f0e"/>
     <use xlink:href="#m20dc6240a5" x="282.245743" y="358.497083" style="fill: #ff7f0e; stroke: #ff7f0e"/>
     <use xlink:href="#m20dc6240a5" x="293.27521" y="358.497083" style="fill: #ff7f0e; stroke: #ff7f0e"/>
     <use xlink:href="#m20dc6240a5" x="304.304678" y="377.263444" style="fill: #ff7f0e; stroke: #ff7f0e"/>
     <use xlink:href="#m20dc6240a5" x="315.334146" y="356.436226" style="fill: #ff7f0e; stroke: #ff7f0e"/>
     <use xlink:href="#m20dc6240a5" x="326.363614" y="358.497083" style="fill: #ff7f0e; stroke: #ff7f0e"/>
     <use xlink:href="#m20dc6240a5" x="337.393082" y="358.497083" style="fill: #ff7f0e; stroke: #ff7f0e"/>
     <use xlink:href="#m20dc6240a5" x="348.42255" y="358.497083" style="fill: #ff7f0e; stroke: #ff7f0e"/>
     <use xlink:href="#m20dc6240a5" x="359.452018" y="356.436226" style="fill: #ff7f0e; stroke: #ff7f0e"/>
     <use xlink:href="#m20dc6240a5" x="370.481486" y="358.497083" style="fill: #ff7f0e; stroke: #ff7f0e"/>
     <use xlink:href="#m20dc6240a5" x="381.510954" y="46.813736" style="fill: #ff7f0e; stroke: #ff7f0e"/>
     <use xlink:href="#m20dc6240a5" x="403.56989" y="377.263444" style="fill: #ff7f0e; stroke: #ff7f0e"/>
     <use xlink:href="#m20dc6240a5" x="414.599358" y="377.263444" style="fill: #ff7f0e; stroke: #ff7f0e"/>
     <use xlink:href="#m20dc6240a5" x="425.628826" y="358.497083" style="fill: #ff7f0e; stroke: #ff7f0e"/>
     <use xlink:href="#m20dc6240a5" x="436.658294" y="356.436226" style="fill: #ff7f0e; stroke: #ff7f0e"/>
     <use xlink:href="#m20dc6240a5" x="447.687762" y="356.436226" style="fill: #ff7f0e; stroke: #ff7f0e"/>
     <use xlink:href="#m20dc6240a5" x="458.71723" y="356.436226" style="fill: #ff7f0e; stroke: #ff7f0e"/>
     <use xlink:href="#m20dc6240a5" x="469.746698" y="358.497083" style="fill: #ff7f0e; stroke: #ff7f0e"/>
     <use xlink:href="#m20dc6240a5" x="480.776166" y="356.436226" style="fill: #ff7f0e; stroke: #ff7f0e"/>
     <use xlink:href="#m20dc6240a5" x="502.835102" y="356.436226" style="fill: #ff7f0e; stroke: #ff7f0e"/>
     <use xlink:href="#m20dc6240a5" x="513.86457" y="377.263444" style="fill: #ff7f0e; stroke: #ff7f0e"/>
     <use xlink:href="#m20dc6240a5" x="524.894038" y="358.497083" style="fill: #ff7f0e; stroke: #ff7f0e"/>
     <use xlink:href="#m20dc6240a5" x="535.923506" y="358.497083" style="fill: #ff7f0e; stroke: #ff7f0e"/>
     <use xlink:href="#m20dc6240a5" x="546.952974" y="358.497083" style="fill: #ff7f0e; stroke: #ff7f0e"/>
     <use xlink:href="#m20dc6240a5" x="569.01191" y="377.263444" style="fill: #ff7f0e; stroke: #ff7f0e"/>
     <use xlink:href="#m20dc6240a5" x="580.041378" y="356.436226" style="fill: #ff7f0e; stroke: #ff7f0e"/>
     <use xlink:href="#m20dc6240a5" x="591.070846" y="356.436226" style="fill: #ff7f0e; stroke: #ff7f0e"/>
     <use xlink:href="#m20dc6240a5" x="602.100314" y="356.436226" style="fill: #ff7f0e; stroke: #ff7f0e"/>
     <use xlink:href="#m20dc6240a5" x="613.129782" y="356.436226" style="fill: #ff7f0e; stroke: #ff7f0e"/>
     <use xlink:href="#m20dc6240a5" x="624.15925" y="356.436226" style="fill: #ff7f0e; stroke: #ff7f0e"/>
     <use xlink:href="#m20dc6240a5" x="635.188718" y="358.497083" style="fill: #ff7f0e; stroke: #ff7f0e"/>
     <use xlink:href="#m20dc6240a5" x="646.218186" y="358.497083" style="fill: #ff7f0e; stroke: #ff7f0e"/>
     <use xlink:href="#m20dc6240a5" x="657.247654" y="506.332202" style="fill: #ff7f0e; stroke: #ff7f0e"/>
     <use xlink:href="#m20dc6240a5" x="668.277122" y="356.436226" style="fill: #ff7f0e; stroke: #ff7f0e"/>
     <use xlink:href="#m20dc6240a5" x="679.30659" y="377.263444" style="fill: #ff7f0e; stroke: #ff7f0e"/>
    </g>
   </g>
   <g id="patch_3">
    <path d="M 64.41375 529.308125 
L 64.41375 23.837812 
" style="fill: none; stroke: #000000; stroke-width: 0.8; stroke-linejoin: miter; stroke-linecap: square"/>
   </g>
   <g id="patch_4">
    <path d="M 731.696562 529.308125 
L 731.696562 23.837812 
" style="fill: none; stroke: #000000; stroke-width: 0.8; stroke-linejoin: miter; stroke-linecap: square"/>
   </g>
   <g id="patch_5">
    <path d="M 64.41375 529.308125 
L 731.696562 529.308125 
" style="fill: none; stroke: #000000; stroke-width: 0.8; stroke-linejoin: miter; stroke-linecap: square"/>
   </g>
   <g id="patch_6">
    <path d="M 64.41375 23.837812 
L 731.696562 23.837812 
" style="fill: none; stroke: #000000; stroke-width: 0.8; stroke-linejoin: miter; stroke-linecap: square"/>
   </g>
   <g id="text_12">
    <text style="font: 700 14px 'DejaVu Sans', 'Bitstream Vera Sans', 'Computer Modern Sans Serif', 'Lucida Grande', 'Verdana', 'Geneva', 'Lucid', 'Arial', 'Helvetica', 'Avant Garde', sans-serif; text-anchor: middle" x="398.055156" y="17.837813" transform="rotate(-0 398.055156 17.837813)">Ts Thread Local Single Thread - Performance Trend</text>
   </g>
   <g id="legend_1">
    <g id="patch_7">
     <path d="M 772.060703 61.194063 
L 847.484141 61.194063 
Q 849.484141 61.194063 849.484141 59.194063 
L 849.484141 30.837813 
Q 849.484141 28.837813 847.484141 28.837813 
L 772.060703 28.837813 
Q 770.060703 28.837813 770.060703 30.837813 
L 770.060703 59.194063 
Q 770.060703 61.194063 772.060703 61.194063 
z
" style="fill: #ffffff; opacity: 0.8; stroke: #cccccc; stroke-linejoin: miter"/>
    </g>
    <g id="line2d_18">
     <path d="M 774.060703 36.93625 
L 784.060703 36.93625 
L 794.060703 36.93625 
" style="fill: none; stroke: #1f77b4; stroke-width: 2; stroke-linecap: square"/>
     <g>
      <use xlink:href="#mec9f7777d2" x="784.060703" y="36.93625" style="fill: #1f77b4; stroke: #1f77b4"/>
     </g>
    </g>
    <g id="text_13">
     <text style="font: 10px 'DejaVu Sans', 'Bitstream Vera Sans', 'Computer Modern Sans Serif', 'Lucida Grande', 'Verdana', 'Geneva', 'Lucid', 'Arial', 'Helvetica', 'Avant Garde', sans-serif; text-anchor: start" x="802.060703" y="40.43625" transform="rotate(-0 802.060703 40.43625)">clang-18</text>
    </g>
    <g id="line2d_19">
     <path d="M 774.060703 51.614375 
L 784.060703 51.614375 
L 794.060703 51.614375 
" style="fill: none; stroke: #ff7f0e; stroke-width: 2; stroke-linecap: square"/>
     <g>
      <use xlink:href="#m20dc6240a5" x="784.060703" y="51.614375" style="fill: #ff7f0e; stroke: #ff7f0e"/>
     </g>
    </g>
    <g id="text_14">
     <text style="font: 10px 'DejaVu Sans', 'Bitstream Vera Sans', 'Computer Modern Sans Serif', 'Lucida Grande', 'Verdana', 'Geneva', 'Lucid', 'Arial', 'Helvetica', 'Avant Garde', sans-serif; text-anchor: start" x="802.060703" y="55.114375" transform="rotate(-0 802.060703 55.114375)">gcc-14</text>
    </g>
   </g>
  </g>
 </g>
 <defs>
  <clipPath id="p0a87dcf9ad">
   <rect x="64.41375" y="23.837813" width="667.282812" height="505.470313"/>
  </clipPath>
 </defs>
</svg>
