<?xml version="1.0" encoding="utf-8" standalone="no"?>
<!DOCTYPE svg PUBLIC "-//W3C//DTD SVG 1.1//EN"
  "http://www.w3.org/Graphics/SVG/1.1/DTD/svg11.dtd">
<svg xmlns:xlink="http://www.w3.org/1999/xlink" width="855.204687pt" height="568.8pt" viewBox="0 0 855.204687 568.8" xmlns="http://www.w3.org/2000/svg" version="1.1">
 <metadata>
  <rdf:RDF xmlns:dc="http://purl.org/dc/elements/1.1/" xmlns:cc="http://creativecommons.org/ns#" xmlns:rdf="http://www.w3.org/1999/02/22-rdf-syntax-ns#">
   <cc:Work>
    <dc:type rdf:resource="http://purl.org/dc/dcmitype/StillImage"/>
    <dc:date>2025-08-28T15:03:30.278852</dc:date>
    <dc:format>image/svg+xml</dc:format>
    <dc:creator>
     <cc:Agent>
      <dc:title>Matplotlib v3.9.4, https://matplotlib.org/</dc:title>
     </cc:Agent>
    </dc:creator>
   </cc:Work>
  </rdf:RDF>
 </metadata>
 <defs>
  <style type="text/css">*{stroke-linejoin: round; stroke-linecap: butt}</style>
 </defs>
 <g id="figure_1">
  <g id="patch_1">
   <path d="M 0 568.8 
L 855.204687 568.8 
L 855.204687 0 
L 0 0 
z
" style="fill: #ffffff"/>
  </g>
  <g id="axes_1">
   <g id="patch_2">
    <path d="M 64.41375 529.308125 
L 702.1075 529.308125 
L 702.1075 23.837812 
L 64.41375 23.837812 
z
" style="fill: #ffffff"/>
   </g>
   <g id="matplotlib.axis_1">
    <g id="xtick_1">
     <g id="line2d_1">
      <path d="M 77.731678 529.308125 
L 77.731678 23.837812 
" clip-path="url(#pd0d8c6d055)" style="fill: none; stroke: #b0b0b0; stroke-opacity: 0.3; stroke-width: 0.8; stroke-linecap: square"/>
     </g>
     <g id="line2d_2">
      <defs>
       <path id="m43f9534194" d="M 0 0 
L 0 3.5 
" style="stroke: #000000; stroke-width: 0.8"/>
      </defs>
      <g>
       <use xlink:href="#m43f9534194" x="77.731678" y="529.308125" style="stroke: #000000; stroke-width: 0.8"/>
      </g>
     </g>
     <g id="text_1">
      <text style="font: 10px 'DejaVu Sans', 'Bitstream Vera Sans', 'Computer Modern Sans Serif', 'Lucida Grande', 'Verdana', 'Geneva', 'Lucid', 'Arial', 'Helvetica', 'Avant Garde', sans-serif; text-anchor: middle" x="77.731678" y="543.906563" transform="rotate(-0 77.731678 543.906563)">70</text>
     </g>
    </g>
    <g id="xtick_2">
     <g id="line2d_3">
      <path d="M 156.072434 529.308125 
L 156.072434 23.837812 
" clip-path="url(#pd0d8c6d055)" style="fill: none; stroke: #b0b0b0; stroke-opacity: 0.3; stroke-width: 0.8; stroke-linecap: square"/>
     </g>
     <g id="line2d_4">
      <g>
       <use xlink:href="#m43f9534194" x="156.072434" y="529.308125" style="stroke: #000000; stroke-width: 0.8"/>
      </g>
     </g>
     <g id="text_2">
      <text style="font: 10px 'DejaVu Sans', 'Bitstream Vera Sans', 'Computer Modern Sans Serif', 'Lucida Grande', 'Verdana', 'Geneva', 'Lucid', 'Arial', 'Helvetica', 'Avant Garde', sans-serif; text-anchor: middle" x="156.072434" y="543.906563" transform="rotate(-0 156.072434 543.906563)">75</text>
     </g>
    </g>
    <g id="xtick_3">
     <g id="line2d_5">
      <path d="M 234.413189 529.308125 
L 234.413189 23.837812 
" clip-path="url(#pd0d8c6d055)" style="fill: none; stroke: #b0b0b0; stroke-opacity: 0.3; stroke-width: 0.8; stroke-linecap: square"/>
     </g>
     <g id="line2d_6">
      <g>
       <use xlink:href="#m43f9534194" x="234.413189" y="529.308125" style="stroke: #000000; stroke-width: 0.8"/>
      </g>
     </g>
     <g id="text_3">
      <text style="font: 10px 'DejaVu Sans', 'Bitstream Vera Sans', 'Computer Modern Sans Serif', 'Lucida Grande', 'Verdana', 'Geneva', 'Lucid', 'Arial', 'Helvetica', 'Avant Garde', sans-serif; text-anchor: middle" x="234.413189" y="543.906563" transform="rotate(-0 234.413189 543.906563)">80</text>
     </g>
    </g>
    <g id="xtick_4">
     <g id="line2d_7">
      <path d="M 312.753945 529.308125 
L 312.753945 23.837812 
" clip-path="url(#pd0d8c6d055)" style="fill: none; stroke: #b0b0b0; stroke-opacity: 0.3; stroke-width: 0.8; stroke-linecap: square"/>
     </g>
     <g id="line2d_8">
      <g>
       <use xlink:href="#m43f9534194" x="312.753945" y="529.308125" style="stroke: #000000; stroke-width: 0.8"/>
      </g>
     </g>
     <g id="text_4">
      <text style="font: 10px 'DejaVu Sans', 'Bitstream Vera Sans', 'Computer Modern Sans Serif', 'Lucida Grande', 'Verdana', 'Geneva', 'Lucid', 'Arial', 'Helvetica', 'Avant Garde', sans-serif; text-anchor: middle" x="312.753945" y="543.906563" transform="rotate(-0 312.753945 543.906563)">85</text>
     </g>
    </g>
    <g id="xtick_5">
     <g id="line2d_9">
      <path d="M 391.094701 529.308125 
L 391.094701 23.837812 
" clip-path="url(#pd0d8c6d055)" style="fill: none; stroke: #b0b0b0; stroke-opacity: 0.3; stroke-width: 0.8; stroke-linecap: square"/>
     </g>
     <g id="line2d_10">
      <g>
       <use xlink:href="#m43f9534194" x="391.094701" y="529.308125" style="stroke: #000000; stroke-width: 0.8"/>
      </g>
     </g>
     <g id="text_5">
      <text style="font: 10px 'DejaVu Sans', 'Bitstream Vera Sans', 'Computer Modern Sans Serif', 'Lucida Grande', 'Verdana', 'Geneva', 'Lucid', 'Arial', 'Helvetica', 'Avant Garde', sans-serif; text-anchor: middle" x="391.094701" y="543.906563" transform="rotate(-0 391.094701 543.906563)">90</text>
     </g>
    </g>
    <g id="xtick_6">
     <g id="line2d_11">
      <path d="M 469.435456 529.308125 
L 469.435456 23.837812 
" clip-path="url(#pd0d8c6d055)" style="fill: none; stroke: #b0b0b0; stroke-opacity: 0.3; stroke-width: 0.8; stroke-linecap: square"/>
     </g>
     <g id="line2d_12">
      <g>
       <use xlink:href="#m43f9534194" x="469.435456" y="529.308125" style="stroke: #000000; stroke-width: 0.8"/>
      </g>
     </g>
     <g id="text_6">
      <text style="font: 10px 'DejaVu Sans', 'Bitstream Vera Sans', 'Computer Modern Sans Serif', 'Lucida Grande', 'Verdana', 'Geneva', 'Lucid', 'Arial', 'Helvetica', 'Avant Garde', sans-serif; text-anchor: middle" x="469.435456" y="543.906563" transform="rotate(-0 469.435456 543.906563)">95</text>
     </g>
    </g>
    <g id="xtick_7">
     <g id="line2d_13">
      <path d="M 547.776212 529.308125 
L 547.776212 23.837812 
" clip-path="url(#pd0d8c6d055)" style="fill: none; stroke: #b0b0b0; stroke-opacity: 0.3; stroke-width: 0.8; stroke-linecap: square"/>
     </g>
     <g id="line2d_14">
      <g>
       <use xlink:href="#m43f9534194" x="547.776212" y="529.308125" style="stroke: #000000; stroke-width: 0.8"/>
      </g>
     </g>
     <g id="text_7">
      <text style="font: 10px 'DejaVu Sans', 'Bitstream Vera Sans', 'Computer Modern Sans Serif', 'Lucida Grande', 'Verdana', 'Geneva', 'Lucid', 'Arial', 'Helvetica', 'Avant Garde', sans-serif; text-anchor: middle" x="547.776212" y="543.906563" transform="rotate(-0 547.776212 543.906563)">100</text>
     </g>
    </g>
    <g id="xtick_8">
     <g id="line2d_15">
      <path d="M 626.116967 529.308125 
L 626.116967 23.837812 
" clip-path="url(#pd0d8c6d055)" style="fill: none; stroke: #b0b0b0; stroke-opacity: 0.3; stroke-width: 0.8; stroke-linecap: square"/>
     </g>
     <g id="line2d_16">
      <g>
       <use xlink:href="#m43f9534194" x="626.116967" y="529.308125" style="stroke: #000000; stroke-width: 0.8"/>
      </g>
     </g>
     <g id="text_8">
      <text style="font: 10px 'DejaVu Sans', 'Bitstream Vera Sans', 'Computer Modern Sans Serif', 'Lucida Grande', 'Verdana', 'Geneva', 'Lucid', 'Arial', 'Helvetica', 'Avant Garde', sans-serif; text-anchor: middle" x="626.116967" y="543.906563" transform="rotate(-0 626.116967 543.906563)">105</text>
     </g>
    </g>
    <g id="text_9">
     <text style="font: 12px 'DejaVu Sans', 'Bitstream Vera Sans', 'Computer Modern Sans Serif', 'Lucida Grande', 'Verdana', 'Geneva', 'Lucid', 'Arial', 'Helvetica', 'Avant Garde', sans-serif; text-anchor: middle" x="383.260625" y="559.104375" transform="rotate(-0 383.260625 559.104375)">Build Number</text>
    </g>
   </g>
   <g id="matplotlib.axis_2">
    <g id="ytick_1">
     <g id="line2d_17">
      <defs>
       <path id="m41dcf3db4e" d="M 0 0 
L -2 0 
" style="stroke: #000000; stroke-width: 0.6"/>
      </defs>
      <g>
       <use xlink:href="#m41dcf3db4e" x="64.41375" y="514.915957" style="stroke: #000000; stroke-width: 0.6"/>
      </g>
     </g>
     <g id="text_10">
      <!-- $\mathdefault{5\times10^{7}}$ -->
      <g transform="translate(22.81375 518.715175)">
       <text>
        <tspan style="font: 10px 'DejaVu Sans'" x="0 8.310547 18.637695 25" y="-0.06406250000000036">5×10</tspan>
        <tspan style="font: 7px 'DejaVu Sans'" x="31.458008" y="-3.8921875000000004">7</tspan>
       </text>
      </g>
     </g>
    </g>
    <g id="ytick_2">
     <g id="line2d_18">
      <g>
       <use xlink:href="#m41dcf3db4e" x="64.41375" y="288.174215" style="stroke: #000000; stroke-width: 0.6"/>
      </g>
     </g>
     <g id="text_11">
      <!-- $\mathdefault{6\times10^{7}}$ -->
      <g transform="translate(22.81375 291.973434)">
       <text>
        <tspan style="font: 10px 'DejaVu Sans'" x="0 8.310547 18.637695 25" y="-0.06406250000000036">6×10</tspan>
        <tspan style="font: 7px 'DejaVu Sans'" x="31.458008" y="-3.8921875000000004">7</tspan>
       </text>
      </g>
     </g>
    </g>
    <g id="ytick_3">
     <g id="line2d_19">
      <g>
       <use xlink:href="#m41dcf3db4e" x="64.41375" y="96.466805" style="stroke: #000000; stroke-width: 0.6"/>
      </g>
     </g>
     <g id="text_12">
      <!-- $\mathdefault{7\times10^{7}}$ -->
      <g transform="translate(22.81375 100.266023)">
       <text>
        <tspan style="font: 10px 'DejaVu Sans'" x="0 8.310547 18.637695 25" y="-0.06406250000000036">7×10</tspan>
        <tspan style="font: 7px 'DejaVu Sans'" x="31.458008" y="-3.8921875000000004">7</tspan>
       </text>
      </g>
     </g>
    </g>
    <g id="text_13">
     <text style="font: 12px 'DejaVu Sans', 'Bitstream Vera Sans', 'Computer Modern Sans Serif', 'Lucida Grande', 'Verdana', 'Geneva', 'Lucid', 'Arial', 'Helvetica', 'Avant Garde', sans-serif; text-anchor: middle" x="16.318125" y="276.572969" transform="rotate(-90 16.318125 276.572969)">Median Elapsed Time (nanoseconds)</text>
    </g>
   </g>
   <g id="line2d_20">
    <path d="M 93.39983 493.691829 
L 109.067981 490.814075 
L 124.736132 487.494679 
L 140.404283 487.145326 
L 156.072434 488.410505 
L 171.740585 475.327557 
L 187.408736 487.596827 
L 203.076887 488.415686 
L 218.745038 489.713847 
L 234.413189 457.081027 
L 250.081341 483.450798 
L 265.749492 486.101722 
L 281.417643 488.754486 
L 297.085794 490.455908 
L 312.753945 482.796643 
L 328.422096 488.14356 
L 359.758398 488.224408 
L 375.426549 490.992343 
L 391.094701 489.612786 
L 406.762852 487.665045 
L 422.431003 485.091497 
L 438.099154 485.139142 
L 453.767305 487.108851 
L 469.435456 489.465187 
L 485.103607 488.642446 
L 500.771758 475.771404 
L 532.108061 470.614423 
L 547.776212 487.595644 
L 563.444363 490.252334 
L 579.112514 488.974158 
L 594.780665 487.566519 
L 610.448816 486.91951 
L 626.116967 488.851067 
L 641.785118 482.397861 
L 673.12142 483.640904 
" clip-path="url(#pd0d8c6d055)" style="fill: none; stroke: #1f77b4; stroke-width: 2; stroke-linecap: square"/>
    <defs>
     <path id="m5d7f7542c4" d="M 0 3 
C 0.795609 3 1.55874 2.683901 2.12132 2.12132 
C 2.683901 1.55874 3 0.795609 3 0 
C 3 -0.795609 2.683901 -1.55874 2.12132 -2.12132 
C 1.55874 -2.683901 0.795609 -3 0 -3 
C -0.795609 -3 -1.55874 -2.683901 -2.12132 -2.12132 
C -2.683901 -1.55874 -3 -0.795609 -3 0 
C -3 0.795609 -2.683901 1.55874 -2.12132 2.12132 
C -1.55874 2.683901 -0.795609 3 0 3 
z
" style="stroke: #1f77b4"/>
    </defs>
    <g clip-path="url(#pd0d8c6d055)">
     <use xlink:href="#m5d7f7542c4" x="93.39983" y="493.691829" style="fill: #1f77b4; stroke: #1f77b4"/>
     <use xlink:href="#m5d7f7542c4" x="109.067981" y="490.814075" style="fill: #1f77b4; stroke: #1f77b4"/>
     <use xlink:href="#m5d7f7542c4" x="124.736132" y="487.494679" style="fill: #1f77b4; stroke: #1f77b4"/>
     <use xlink:href="#m5d7f7542c4" x="140.404283" y="487.145326" style="fill: #1f77b4; stroke: #1f77b4"/>
     <use xlink:href="#m5d7f7542c4" x="156.072434" y="488.410505" style="fill: #1f77b4; stroke: #1f77b4"/>
     <use xlink:href="#m5d7f7542c4" x="171.740585" y="475.327557" style="fill: #1f77b4; stroke: #1f77b4"/>
     <use xlink:href="#m5d7f7542c4" x="187.408736" y="487.596827" style="fill: #1f77b4; stroke: #1f77b4"/>
     <use xlink:href="#m5d7f7542c4" x="203.076887" y="488.415686" style="fill: #1f77b4; stroke: #1f77b4"/>
     <use xlink:href="#m5d7f7542c4" x="218.745038" y="489.713847" style="fill: #1f77b4; stroke: #1f77b4"/>
     <use xlink:href="#m5d7f7542c4" x="234.413189" y="457.081027" style="fill: #1f77b4; stroke: #1f77b4"/>
     <use xlink:href="#m5d7f7542c4" x="250.081341" y="483.450798" style="fill: #1f77b4; stroke: #1f77b4"/>
     <use xlink:href="#m5d7f7542c4" x="265.749492" y="486.101722" style="fill: #1f77b4; stroke: #1f77b4"/>
     <use xlink:href="#m5d7f7542c4" x="281.417643" y="488.754486" style="fill: #1f77b4; stroke: #1f77b4"/>
     <use xlink:href="#m5d7f7542c4" x="297.085794" y="490.455908" style="fill: #1f77b4; stroke: #1f77b4"/>
     <use xlink:href="#m5d7f7542c4" x="312.753945" y="482.796643" style="fill: #1f77b4; stroke: #1f77b4"/>
     <use xlink:href="#m5d7f7542c4" x="328.422096" y="488.14356" style="fill: #1f77b4; stroke: #1f77b4"/>
     <use xlink:href="#m5d7f7542c4" x="359.758398" y="488.224408" style="fill: #1f77b4; stroke: #1f77b4"/>
     <use xlink:href="#m5d7f7542c4" x="375.426549" y="490.992343" style="fill: #1f77b4; stroke: #1f77b4"/>
     <use xlink:href="#m5d7f7542c4" x="391.094701" y="489.612786" style="fill: #1f77b4; stroke: #1f77b4"/>
     <use xlink:href="#m5d7f7542c4" x="406.762852" y="487.665045" style="fill: #1f77b4; stroke: #1f77b4"/>
     <use xlink:href="#m5d7f7542c4" x="422.431003" y="485.091497" style="fill: #1f77b4; stroke: #1f77b4"/>
     <use xlink:href="#m5d7f7542c4" x="438.099154" y="485.139142" style="fill: #1f77b4; stroke: #1f77b4"/>
     <use xlink:href="#m5d7f7542c4" x="453.767305" y="487.108851" style="fill: #1f77b4; stroke: #1f77b4"/>
     <use xlink:href="#m5d7f7542c4" x="469.435456" y="489.465187" style="fill: #1f77b4; stroke: #1f77b4"/>
     <use xlink:href="#m5d7f7542c4" x="485.103607" y="488.642446" style="fill: #1f77b4; stroke: #1f77b4"/>
     <use xlink:href="#m5d7f7542c4" x="500.771758" y="475.771404" style="fill: #1f77b4; stroke: #1f77b4"/>
     <use xlink:href="#m5d7f7542c4" x="532.108061" y="470.614423" style="fill: #1f77b4; stroke: #1f77b4"/>
     <use xlink:href="#m5d7f7542c4" x="547.776212" y="487.595644" style="fill: #1f77b4; stroke: #1f77b4"/>
     <use xlink:href="#m5d7f7542c4" x="563.444363" y="490.252334" style="fill: #1f77b4; stroke: #1f77b4"/>
     <use xlink:href="#m5d7f7542c4" x="579.112514" y="488.974158" style="fill: #1f77b4; stroke: #1f77b4"/>
     <use xlink:href="#m5d7f7542c4" x="594.780665" y="487.566519" style="fill: #1f77b4; stroke: #1f77b4"/>
     <use xlink:href="#m5d7f7542c4" x="610.448816" y="486.91951" style="fill: #1f77b4; stroke: #1f77b4"/>
     <use xlink:href="#m5d7f7542c4" x="626.116967" y="488.851067" style="fill: #1f77b4; stroke: #1f77b4"/>
     <use xlink:href="#m5d7f7542c4" x="641.785118" y="482.397861" style="fill: #1f77b4; stroke: #1f77b4"/>
     <use xlink:href="#m5d7f7542c4" x="673.12142" y="483.640904" style="fill: #1f77b4; stroke: #1f77b4"/>
    </g>
   </g>
   <g id="line2d_21">
    <path d="M 93.39983 214.978781 
L 109.067981 182.906967 
L 124.736132 272.956006 
L 140.404283 182.029092 
L 156.072434 268.872976 
L 171.740585 274.785303 
L 187.408736 171.913022 
L 203.076887 270.679187 
L 218.745038 182.508331 
L 234.413189 270.8712 
L 250.081341 182.657976 
L 265.749492 183.510793 
L 281.417643 272.463822 
L 297.085794 182.405436 
L 312.753945 272.552038 
L 328.422096 181.404628 
L 359.758398 275.226397 
L 375.426549 183.724883 
L 391.094701 182.093211 
L 406.762852 183.676891 
L 422.431003 275.146352 
L 438.099154 181.106543 
L 453.767305 272.254953 
L 469.435456 272.203128 
L 485.103607 489.711083 
L 500.771758 487.792477 
L 532.108061 488.905576 
L 547.776212 487.110074 
L 563.444363 490.669798 
L 579.112514 488.46594 
L 594.780665 489.881935 
L 610.448816 490.438612 
L 626.116967 489.117759 
L 641.785118 490.470534 
L 673.12142 488.81708 
" clip-path="url(#pd0d8c6d055)" style="fill: none; stroke: #ff7f0e; stroke-width: 2; stroke-linecap: square"/>
    <defs>
     <path id="m880d1f5880" d="M 0 3 
C 0.795609 3 1.55874 2.683901 2.12132 2.12132 
C 2.683901 1.55874 3 0.795609 3 0 
C 3 -0.795609 2.683901 -1.55874 2.12132 -2.12132 
C 1.55874 -2.683901 0.795609 -3 0 -3 
C -0.795609 -3 -1.55874 -2.683901 -2.12132 -2.12132 
C -2.683901 -1.55874 -3 -0.795609 -3 0 
C -3 0.795609 -2.683901 1.55874 -2.12132 2.12132 
C -1.55874 2.683901 -0.795609 3 0 3 
z
" style="stroke: #ff7f0e"/>
    </defs>
    <g clip-path="url(#pd0d8c6d055)">
     <use xlink:href="#m880d1f5880" x="93.39983" y="214.978781" style="fill: #ff7f0e; stroke: #ff7f0e"/>
     <use xlink:href="#m880d1f5880" x="109.067981" y="182.906967" style="fill: #ff7f0e; stroke: #ff7f0e"/>
     <use xlink:href="#m880d1f5880" x="124.736132" y="272.956006" style="fill: #ff7f0e; stroke: #ff7f0e"/>
     <use xlink:href="#m880d1f5880" x="140.404283" y="182.029092" style="fill: #ff7f0e; stroke: #ff7f0e"/>
     <use xlink:href="#m880d1f5880" x="156.072434" y="268.872976" style="fill: #ff7f0e; stroke: #ff7f0e"/>
     <use xlink:href="#m880d1f5880" x="171.740585" y="274.785303" style="fill: #ff7f0e; stroke: #ff7f0e"/>
     <use xlink:href="#m880d1f5880" x="187.408736" y="171.913022" style="fill: #ff7f0e; stroke: #ff7f0e"/>
     <use xlink:href="#m880d1f5880" x="203.076887" y="270.679187" style="fill: #ff7f0e; stroke: #ff7f0e"/>
     <use xlink:href="#m880d1f5880" x="218.745038" y="182.508331" style="fill: #ff7f0e; stroke: #ff7f0e"/>
     <use xlink:href="#m880d1f5880" x="234.413189" y="270.8712" style="fill: #ff7f0e; stroke: #ff7f0e"/>
     <use xlink:href="#m880d1f5880" x="250.081341" y="182.657976" style="fill: #ff7f0e; stroke: #ff7f0e"/>
     <use xlink:href="#m880d1f5880" x="265.749492" y="183.510793" style="fill: #ff7f0e; stroke: #ff7f0e"/>
     <use xlink:href="#m880d1f5880" x="281.417643" y="272.463822" style="fill: #ff7f0e; stroke: #ff7f0e"/>
     <use xlink:href="#m880d1f5880" x="297.085794" y="182.405436" style="fill: #ff7f0e; stroke: #ff7f0e"/>
     <use xlink:href="#m880d1f5880" x="312.753945" y="272.552038" style="fill: #ff7f0e; stroke: #ff7f0e"/>
     <use xlink:href="#m880d1f5880" x="328.422096" y="181.404628" style="fill: #ff7f0e; stroke: #ff7f0e"/>
     <use xlink:href="#m880d1f5880" x="359.758398" y="275.226397" style="fill: #ff7f0e; stroke: #ff7f0e"/>
     <use xlink:href="#m880d1f5880" x="375.426549" y="183.724883" style="fill: #ff7f0e; stroke: #ff7f0e"/>
     <use xlink:href="#m880d1f5880" x="391.094701" y="182.093211" style="fill: #ff7f0e; stroke: #ff7f0e"/>
     <use xlink:href="#m880d1f5880" x="406.762852" y="183.676891" style="fill: #ff7f0e; stroke: #ff7f0e"/>
     <use xlink:href="#m880d1f5880" x="422.431003" y="275.146352" style="fill: #ff7f0e; stroke: #ff7f0e"/>
     <use xlink:href="#m880d1f5880" x="438.099154" y="181.106543" style="fill: #ff7f0e; stroke: #ff7f0e"/>
     <use xlink:href="#m880d1f5880" x="453.767305" y="272.254953" style="fill: #ff7f0e; stroke: #ff7f0e"/>
     <use xlink:href="#m880d1f5880" x="469.435456" y="272.203128" style="fill: #ff7f0e; stroke: #ff7f0e"/>
     <use xlink:href="#m880d1f5880" x="485.103607" y="489.711083" style="fill: #ff7f0e; stroke: #ff7f0e"/>
     <use xlink:href="#m880d1f5880" x="500.771758" y="487.792477" style="fill: #ff7f0e; stroke: #ff7f0e"/>
     <use xlink:href="#m880d1f5880" x="532.108061" y="488.905576" style="fill: #ff7f0e; stroke: #ff7f0e"/>
     <use xlink:href="#m880d1f5880" x="547.776212" y="487.110074" style="fill: #ff7f0e; stroke: #ff7f0e"/>
     <use xlink:href="#m880d1f5880" x="563.444363" y="490.669798" style="fill: #ff7f0e; stroke: #ff7f0e"/>
     <use xlink:href="#m880d1f5880" x="579.112514" y="488.46594" style="fill: #ff7f0e; stroke: #ff7f0e"/>
     <use xlink:href="#m880d1f5880" x="594.780665" y="489.881935" style="fill: #ff7f0e; stroke: #ff7f0e"/>
     <use xlink:href="#m880d1f5880" x="610.448816" y="490.438612" style="fill: #ff7f0e; stroke: #ff7f0e"/>
     <use xlink:href="#m880d1f5880" x="626.116967" y="489.117759" style="fill: #ff7f0e; stroke: #ff7f0e"/>
     <use xlink:href="#m880d1f5880" x="641.785118" y="490.470534" style="fill: #ff7f0e; stroke: #ff7f0e"/>
     <use xlink:href="#m880d1f5880" x="673.12142" y="488.81708" style="fill: #ff7f0e; stroke: #ff7f0e"/>
    </g>
   </g>
   <g id="line2d_22">
    <path d="M 93.39983 506.332202 
L 109.067981 488.22548 
L 124.736132 487.132838 
L 140.404283 488.186015 
L 156.072434 486.766103 
L 171.740585 489.39061 
L 187.408736 488.226181 
L 203.076887 487.796971 
L 218.745038 488.498719 
L 234.413189 489.635154 
L 250.081341 487.489777 
L 265.749492 488.674621 
L 281.417643 488.025081 
L 297.085794 486.62109 
L 312.753945 488.454844 
L 328.422096 487.47967 
L 359.758398 488.84933 
L 375.426549 488.865783 
L 391.094701 488.877107 
L 406.762852 487.310761 
L 422.431003 485.899652 
L 438.099154 488.616735 
L 453.767305 489.033189 
L 469.435456 489.763866 
L 485.103607 488.529815 
L 500.771758 486.353552 
L 532.108061 488.038332 
L 547.776212 488.389339 
L 563.444363 488.955913 
L 579.112514 489.2194 
L 594.780665 488.100693 
L 610.448816 489.304055 
L 626.116967 488.114028 
L 641.785118 488.279243 
L 673.12142 487.252874 
" clip-path="url(#pd0d8c6d055)" style="fill: none; stroke: #2ca02c; stroke-width: 2; stroke-linecap: square"/>
    <defs>
     <path id="m3c9f87180b" d="M 0 3 
C 0.795609 3 1.55874 2.683901 2.12132 2.12132 
C 2.683901 1.55874 3 0.795609 3 0 
C 3 -0.795609 2.683901 -1.55874 2.12132 -2.12132 
C 1.55874 -2.683901 0.795609 -3 0 -3 
C -0.795609 -3 -1.55874 -2.683901 -2.12132 -2.12132 
C -2.683901 -1.55874 -3 -0.795609 -3 0 
C -3 0.795609 -2.683901 1.55874 -2.12132 2.12132 
C -1.55874 2.683901 -0.795609 3 0 3 
z
" style="stroke: #2ca02c"/>
    </defs>
    <g clip-path="url(#pd0d8c6d055)">
     <use xlink:href="#m3c9f87180b" x="93.39983" y="506.332202" style="fill: #2ca02c; stroke: #2ca02c"/>
     <use xlink:href="#m3c9f87180b" x="109.067981" y="488.22548" style="fill: #2ca02c; stroke: #2ca02c"/>
     <use xlink:href="#m3c9f87180b" x="124.736132" y="487.132838" style="fill: #2ca02c; stroke: #2ca02c"/>
     <use xlink:href="#m3c9f87180b" x="140.404283" y="488.186015" style="fill: #2ca02c; stroke: #2ca02c"/>
     <use xlink:href="#m3c9f87180b" x="156.072434" y="486.766103" style="fill: #2ca02c; stroke: #2ca02c"/>
     <use xlink:href="#m3c9f87180b" x="171.740585" y="489.39061" style="fill: #2ca02c; stroke: #2ca02c"/>
     <use xlink:href="#m3c9f87180b" x="187.408736" y="488.226181" style="fill: #2ca02c; stroke: #2ca02c"/>
     <use xlink:href="#m3c9f87180b" x="203.076887" y="487.796971" style="fill: #2ca02c; stroke: #2ca02c"/>
     <use xlink:href="#m3c9f87180b" x="218.745038" y="488.498719" style="fill: #2ca02c; stroke: #2ca02c"/>
     <use xlink:href="#m3c9f87180b" x="234.413189" y="489.635154" style="fill: #2ca02c; stroke: #2ca02c"/>
     <use xlink:href="#m3c9f87180b" x="250.081341" y="487.489777" style="fill: #2ca02c; stroke: #2ca02c"/>
     <use xlink:href="#m3c9f87180b" x="265.749492" y="488.674621" style="fill: #2ca02c; stroke: #2ca02c"/>
     <use xlink:href="#m3c9f87180b" x="281.417643" y="488.025081" style="fill: #2ca02c; stroke: #2ca02c"/>
     <use xlink:href="#m3c9f87180b" x="297.085794" y="486.62109" style="fill: #2ca02c; stroke: #2ca02c"/>
     <use xlink:href="#m3c9f87180b" x="312.753945" y="488.454844" style="fill: #2ca02c; stroke: #2ca02c"/>
     <use xlink:href="#m3c9f87180b" x="328.422096" y="487.47967" style="fill: #2ca02c; stroke: #2ca02c"/>
     <use xlink:href="#m3c9f87180b" x="359.758398" y="488.84933" style="fill: #2ca02c; stroke: #2ca02c"/>
     <use xlink:href="#m3c9f87180b" x="375.426549" y="488.865783" style="fill: #2ca02c; stroke: #2ca02c"/>
     <use xlink:href="#m3c9f87180b" x="391.094701" y="488.877107" style="fill: #2ca02c; stroke: #2ca02c"/>
     <use xlink:href="#m3c9f87180b" x="406.762852" y="487.310761" style="fill: #2ca02c; stroke: #2ca02c"/>
     <use xlink:href="#m3c9f87180b" x="422.431003" y="485.899652" style="fill: #2ca02c; stroke: #2ca02c"/>
     <use xlink:href="#m3c9f87180b" x="438.099154" y="488.616735" style="fill: #2ca02c; stroke: #2ca02c"/>
     <use xlink:href="#m3c9f87180b" x="453.767305" y="489.033189" style="fill: #2ca02c; stroke: #2ca02c"/>
     <use xlink:href="#m3c9f87180b" x="469.435456" y="489.763866" style="fill: #2ca02c; stroke: #2ca02c"/>
     <use xlink:href="#m3c9f87180b" x="485.103607" y="488.529815" style="fill: #2ca02c; stroke: #2ca02c"/>
     <use xlink:href="#m3c9f87180b" x="500.771758" y="486.353552" style="fill: #2ca02c; stroke: #2ca02c"/>
     <use xlink:href="#m3c9f87180b" x="532.108061" y="488.038332" style="fill: #2ca02c; stroke: #2ca02c"/>
     <use xlink:href="#m3c9f87180b" x="547.776212" y="488.389339" style="fill: #2ca02c; stroke: #2ca02c"/>
     <use xlink:href="#m3c9f87180b" x="563.444363" y="488.955913" style="fill: #2ca02c; stroke: #2ca02c"/>
     <use xlink:href="#m3c9f87180b" x="579.112514" y="489.2194" style="fill: #2ca02c; stroke: #2ca02c"/>
     <use xlink:href="#m3c9f87180b" x="594.780665" y="488.100693" style="fill: #2ca02c; stroke: #2ca02c"/>
     <use xlink:href="#m3c9f87180b" x="610.448816" y="489.304055" style="fill: #2ca02c; stroke: #2ca02c"/>
     <use xlink:href="#m3c9f87180b" x="626.116967" y="488.114028" style="fill: #2ca02c; stroke: #2ca02c"/>
     <use xlink:href="#m3c9f87180b" x="641.785118" y="488.279243" style="fill: #2ca02c; stroke: #2ca02c"/>
     <use xlink:href="#m3c9f87180b" x="673.12142" y="487.252874" style="fill: #2ca02c; stroke: #2ca02c"/>
    </g>
   </g>
   <g id="line2d_23">
    <path d="M 93.39983 284.582811 
L 109.067981 287.362379 
L 124.736132 286.431637 
L 140.404283 285.037666 
L 156.072434 287.11432 
L 171.740585 282.282277 
L 187.408736 283.577155 
L 203.076887 286.238334 
L 218.745038 283.759492 
L 234.413189 286.297496 
L 250.081341 287.752534 
L 265.749492 281.162939 
L 281.417643 284.020288 
L 312.753945 284.844574 
L 328.422096 286.186715 
L 359.758398 289.351632 
L 375.426549 287.698079 
L 391.094701 284.38334 
L 406.762852 285.367533 
L 422.431003 285.749032 
L 453.767305 286.351667 
L 469.435456 288.068451 
L 485.103607 286.273402 
L 500.771758 282.389277 
L 532.108061 285.068925 
L 547.776212 282.095847 
L 563.444363 285.504043 
L 579.112514 284.925507 
L 594.780665 285.20077 
L 610.448816 287.441334 
L 626.116967 282.722539 
L 641.785118 276.577594 
L 673.12142 286.441383 
" clip-path="url(#pd0d8c6d055)" style="fill: none; stroke: #d62728; stroke-width: 2; stroke-linecap: square"/>
    <defs>
     <path id="m8d3c9071ca" d="M 0 3 
C 0.795609 3 1.55874 2.683901 2.12132 2.12132 
C 2.683901 1.55874 3 0.795609 3 0 
C 3 -0.795609 2.683901 -1.55874 2.12132 -2.12132 
C 1.55874 -2.683901 0.795609 -3 0 -3 
C -0.795609 -3 -1.55874 -2.683901 -2.12132 -2.12132 
C -2.683901 -1.55874 -3 -0.795609 -3 0 
C -3 0.795609 -2.683901 1.55874 -2.12132 2.12132 
C -1.55874 2.683901 -0.795609 3 0 3 
z
" style="stroke: #d62728"/>
    </defs>
    <g clip-path="url(#pd0d8c6d055)">
     <use xlink:href="#m8d3c9071ca" x="93.39983" y="284.582811" style="fill: #d62728; stroke: #d62728"/>
     <use xlink:href="#m8d3c9071ca" x="109.067981" y="287.362379" style="fill: #d62728; stroke: #d62728"/>
     <use xlink:href="#m8d3c9071ca" x="124.736132" y="286.431637" style="fill: #d62728; stroke: #d62728"/>
     <use xlink:href="#m8d3c9071ca" x="140.404283" y="285.037666" style="fill: #d62728; stroke: #d62728"/>
     <use xlink:href="#m8d3c9071ca" x="156.072434" y="287.11432" style="fill: #d62728; stroke: #d62728"/>
     <use xlink:href="#m8d3c9071ca" x="171.740585" y="282.282277" style="fill: #d62728; stroke: #d62728"/>
     <use xlink:href="#m8d3c9071ca" x="187.408736" y="283.577155" style="fill: #d62728; stroke: #d62728"/>
     <use xlink:href="#m8d3c9071ca" x="203.076887" y="286.238334" style="fill: #d62728; stroke: #d62728"/>
     <use xlink:href="#m8d3c9071ca" x="218.745038" y="283.759492" style="fill: #d62728; stroke: #d62728"/>
     <use xlink:href="#m8d3c9071ca" x="234.413189" y="286.297496" style="fill: #d62728; stroke: #d62728"/>
     <use xlink:href="#m8d3c9071ca" x="250.081341" y="287.752534" style="fill: #d62728; stroke: #d62728"/>
     <use xlink:href="#m8d3c9071ca" x="265.749492" y="281.162939" style="fill: #d62728; stroke: #d62728"/>
     <use xlink:href="#m8d3c9071ca" x="281.417643" y="284.020288" style="fill: #d62728; stroke: #d62728"/>
     <use xlink:href="#m8d3c9071ca" x="312.753945" y="284.844574" style="fill: #d62728; stroke: #d62728"/>
     <use xlink:href="#m8d3c9071ca" x="328.422096" y="286.186715" style="fill: #d62728; stroke: #d62728"/>
     <use xlink:href="#m8d3c9071ca" x="359.758398" y="289.351632" style="fill: #d62728; stroke: #d62728"/>
     <use xlink:href="#m8d3c9071ca" x="375.426549" y="287.698079" style="fill: #d62728; stroke: #d62728"/>
     <use xlink:href="#m8d3c9071ca" x="391.094701" y="284.38334" style="fill: #d62728; stroke: #d62728"/>
     <use xlink:href="#m8d3c9071ca" x="406.762852" y="285.367533" style="fill: #d62728; stroke: #d62728"/>
     <use xlink:href="#m8d3c9071ca" x="422.431003" y="285.749032" style="fill: #d62728; stroke: #d62728"/>
     <use xlink:href="#m8d3c9071ca" x="453.767305" y="286.351667" style="fill: #d62728; stroke: #d62728"/>
     <use xlink:href="#m8d3c9071ca" x="469.435456" y="288.068451" style="fill: #d62728; stroke: #d62728"/>
     <use xlink:href="#m8d3c9071ca" x="485.103607" y="286.273402" style="fill: #d62728; stroke: #d62728"/>
     <use xlink:href="#m8d3c9071ca" x="500.771758" y="282.389277" style="fill: #d62728; stroke: #d62728"/>
     <use xlink:href="#m8d3c9071ca" x="532.108061" y="285.068925" style="fill: #d62728; stroke: #d62728"/>
     <use xlink:href="#m8d3c9071ca" x="547.776212" y="282.095847" style="fill: #d62728; stroke: #d62728"/>
     <use xlink:href="#m8d3c9071ca" x="563.444363" y="285.504043" style="fill: #d62728; stroke: #d62728"/>
     <use xlink:href="#m8d3c9071ca" x="579.112514" y="284.925507" style="fill: #d62728; stroke: #d62728"/>
     <use xlink:href="#m8d3c9071ca" x="594.780665" y="285.20077" style="fill: #d62728; stroke: #d62728"/>
     <use xlink:href="#m8d3c9071ca" x="610.448816" y="287.441334" style="fill: #d62728; stroke: #d62728"/>
     <use xlink:href="#m8d3c9071ca" x="626.116967" y="282.722539" style="fill: #d62728; stroke: #d62728"/>
     <use xlink:href="#m8d3c9071ca" x="641.785118" y="276.577594" style="fill: #d62728; stroke: #d62728"/>
     <use xlink:href="#m8d3c9071ca" x="673.12142" y="286.441383" style="fill: #d62728; stroke: #d62728"/>
    </g>
   </g>
   <g id="line2d_24">
    <path d="M 93.39983 72.672576 
L 109.067981 71.170534 
L 124.736132 171.757446 
L 140.404283 76.360371 
L 156.072434 175.593608 
L 171.740585 76.238119 
L 187.408736 75.280247 
L 203.076887 75.944887 
L 218.745038 77.695079 
L 234.413189 79.242966 
L 250.081341 75.394225 
L 265.749492 76.179059 
L 281.417643 75.413168 
L 312.753945 46.813736 
L 328.422096 74.863866 
L 359.758398 74.899226 
L 375.426549 77.920815 
L 391.094701 75.090369 
L 406.762852 177.096391 
L 422.431003 134.163695 
L 453.767305 76.118159 
L 469.435456 76.587946 
L 485.103607 285.646284 
L 500.771758 287.55 
L 532.108061 287.78835 
L 547.776212 287.574042 
L 563.444363 288.297225 
L 579.112514 285.365389 
L 594.780665 288.270447 
L 610.448816 287.688993 
L 626.116967 285.846028 
L 641.785118 286.964209 
L 673.12142 289.402479 
" clip-path="url(#pd0d8c6d055)" style="fill: none; stroke: #9467bd; stroke-width: 2; stroke-linecap: square"/>
    <defs>
     <path id="m836ce47528" d="M 0 3 
C 0.795609 3 1.55874 2.683901 2.12132 2.12132 
C 2.683901 1.55874 3 0.795609 3 0 
C 3 -0.795609 2.683901 -1.55874 2.12132 -2.12132 
C 1.55874 -2.683901 0.795609 -3 0 -3 
C -0.795609 -3 -1.55874 -2.683901 -2.12132 -2.12132 
C -2.683901 -1.55874 -3 -0.795609 -3 0 
C -3 0.795609 -2.683901 1.55874 -2.12132 2.12132 
C -1.55874 2.683901 -0.795609 3 0 3 
z
" style="stroke: #9467bd"/>
    </defs>
    <g clip-path="url(#pd0d8c6d055)">
     <use xlink:href="#m836ce47528" x="93.39983" y="72.672576" style="fill: #9467bd; stroke: #9467bd"/>
     <use xlink:href="#m836ce47528" x="109.067981" y="71.170534" style="fill: #9467bd; stroke: #9467bd"/>
     <use xlink:href="#m836ce47528" x="124.736132" y="171.757446" style="fill: #9467bd; stroke: #9467bd"/>
     <use xlink:href="#m836ce47528" x="140.404283" y="76.360371" style="fill: #9467bd; stroke: #9467bd"/>
     <use xlink:href="#m836ce47528" x="156.072434" y="175.593608" style="fill: #9467bd; stroke: #9467bd"/>
     <use xlink:href="#m836ce47528" x="171.740585" y="76.238119" style="fill: #9467bd; stroke: #9467bd"/>
     <use xlink:href="#m836ce47528" x="187.408736" y="75.280247" style="fill: #9467bd; stroke: #9467bd"/>
     <use xlink:href="#m836ce47528" x="203.076887" y="75.944887" style="fill: #9467bd; stroke: #9467bd"/>
     <use xlink:href="#m836ce47528" x="218.745038" y="77.695079" style="fill: #9467bd; stroke: #9467bd"/>
     <use xlink:href="#m836ce47528" x="234.413189" y="79.242966" style="fill: #9467bd; stroke: #9467bd"/>
     <use xlink:href="#m836ce47528" x="250.081341" y="75.394225" style="fill: #9467bd; stroke: #9467bd"/>
     <use xlink:href="#m836ce47528" x="265.749492" y="76.179059" style="fill: #9467bd; stroke: #9467bd"/>
     <use xlink:href="#m836ce47528" x="281.417643" y="75.413168" style="fill: #9467bd; stroke: #9467bd"/>
     <use xlink:href="#m836ce47528" x="312.753945" y="46.813736" style="fill: #9467bd; stroke: #9467bd"/>
     <use xlink:href="#m836ce47528" x="328.422096" y="74.863866" style="fill: #9467bd; stroke: #9467bd"/>
     <use xlink:href="#m836ce47528" x="359.758398" y="74.899226" style="fill: #9467bd; stroke: #9467bd"/>
     <use xlink:href="#m836ce47528" x="375.426549" y="77.920815" style="fill: #9467bd; stroke: #9467bd"/>
     <use xlink:href="#m836ce47528" x="391.094701" y="75.090369" style="fill: #9467bd; stroke: #9467bd"/>
     <use xlink:href="#m836ce47528" x="406.762852" y="177.096391" style="fill: #9467bd; stroke: #9467bd"/>
     <use xlink:href="#m836ce47528" x="422.431003" y="134.163695" style="fill: #9467bd; stroke: #9467bd"/>
     <use xlink:href="#m836ce47528" x="453.767305" y="76.118159" style="fill: #9467bd; stroke: #9467bd"/>
     <use xlink:href="#m836ce47528" x="469.435456" y="76.587946" style="fill: #9467bd; stroke: #9467bd"/>
     <use xlink:href="#m836ce47528" x="485.103607" y="285.646284" style="fill: #9467bd; stroke: #9467bd"/>
     <use xlink:href="#m836ce47528" x="500.771758" y="287.55" style="fill: #9467bd; stroke: #9467bd"/>
     <use xlink:href="#m836ce47528" x="532.108061" y="287.78835" style="fill: #9467bd; stroke: #9467bd"/>
     <use xlink:href="#m836ce47528" x="547.776212" y="287.574042" style="fill: #9467bd; stroke: #9467bd"/>
     <use xlink:href="#m836ce47528" x="563.444363" y="288.297225" style="fill: #9467bd; stroke: #9467bd"/>
     <use xlink:href="#m836ce47528" x="579.112514" y="285.365389" style="fill: #9467bd; stroke: #9467bd"/>
     <use xlink:href="#m836ce47528" x="594.780665" y="288.270447" style="fill: #9467bd; stroke: #9467bd"/>
     <use xlink:href="#m836ce47528" x="610.448816" y="287.688993" style="fill: #9467bd; stroke: #9467bd"/>
     <use xlink:href="#m836ce47528" x="626.116967" y="285.846028" style="fill: #9467bd; stroke: #9467bd"/>
     <use xlink:href="#m836ce47528" x="641.785118" y="286.964209" style="fill: #9467bd; stroke: #9467bd"/>
     <use xlink:href="#m836ce47528" x="673.12142" y="289.402479" style="fill: #9467bd; stroke: #9467bd"/>
    </g>
   </g>
   <g id="line2d_25">
    <path d="M 93.39983 288.410145 
L 109.067981 287.725399 
L 124.736132 287.42418 
L 140.404283 287.301725 
L 156.072434 289.195523 
L 171.740585 288.223477 
L 187.408736 287.868621 
L 203.076887 288.889558 
L 218.745038 288.158774 
L 234.413189 288.526643 
L 250.081341 287.650844 
L 265.749492 289.356014 
L 281.417643 285.698464 
L 312.753945 285.728186 
L 328.422096 288.513851 
L 359.758398 294.187616 
L 375.426549 288.180987 
L 391.094701 288.032356 
L 406.762852 287.944953 
L 422.431003 287.058117 
L 453.767305 288.654389 
L 469.435456 288.311479 
L 485.103607 286.780635 
L 500.771758 288.80425 
L 532.108061 288.417364 
L 547.776212 286.563061 
L 563.444363 287.377873 
L 579.112514 287.334677 
L 594.780665 287.646364 
L 610.448816 289.139347 
L 626.116967 288.249288 
L 641.785118 287.634331 
L 673.12142 288.885621 
" clip-path="url(#pd0d8c6d055)" style="fill: none; stroke: #8c564b; stroke-width: 2; stroke-linecap: square"/>
    <defs>
     <path id="m89fc477e07" d="M 0 3 
C 0.795609 3 1.55874 2.683901 2.12132 2.12132 
C 2.683901 1.55874 3 0.795609 3 0 
C 3 -0.795609 2.683901 -1.55874 2.12132 -2.12132 
C 1.55874 -2.683901 0.795609 -3 0 -3 
C -0.795609 -3 -1.55874 -2.683901 -2.12132 -2.12132 
C -2.683901 -1.55874 -3 -0.795609 -3 0 
C -3 0.795609 -2.683901 1.55874 -2.12132 2.12132 
C -1.55874 2.683901 -0.795609 3 0 3 
z
" style="stroke: #8c564b"/>
    </defs>
    <g clip-path="url(#pd0d8c6d055)">
     <use xlink:href="#m89fc477e07" x="93.39983" y="288.410145" style="fill: #8c564b; stroke: #8c564b"/>
     <use xlink:href="#m89fc477e07" x="109.067981" y="287.725399" style="fill: #8c564b; stroke: #8c564b"/>
     <use xlink:href="#m89fc477e07" x="124.736132" y="287.42418" style="fill: #8c564b; stroke: #8c564b"/>
     <use xlink:href="#m89fc477e07" x="140.404283" y="287.301725" style="fill: #8c564b; stroke: #8c564b"/>
     <use xlink:href="#m89fc477e07" x="156.072434" y="289.195523" style="fill: #8c564b; stroke: #8c564b"/>
     <use xlink:href="#m89fc477e07" x="171.740585" y="288.223477" style="fill: #8c564b; stroke: #8c564b"/>
     <use xlink:href="#m89fc477e07" x="187.408736" y="287.868621" style="fill: #8c564b; stroke: #8c564b"/>
     <use xlink:href="#m89fc477e07" x="203.076887" y="288.889558" style="fill: #8c564b; stroke: #8c564b"/>
     <use xlink:href="#m89fc477e07" x="218.745038" y="288.158774" style="fill: #8c564b; stroke: #8c564b"/>
     <use xlink:href="#m89fc477e07" x="234.413189" y="288.526643" style="fill: #8c564b; stroke: #8c564b"/>
     <use xlink:href="#m89fc477e07" x="250.081341" y="287.650844" style="fill: #8c564b; stroke: #8c564b"/>
     <use xlink:href="#m89fc477e07" x="265.749492" y="289.356014" style="fill: #8c564b; stroke: #8c564b"/>
     <use xlink:href="#m89fc477e07" x="281.417643" y="285.698464" style="fill: #8c564b; stroke: #8c564b"/>
     <use xlink:href="#m89fc477e07" x="312.753945" y="285.728186" style="fill: #8c564b; stroke: #8c564b"/>
     <use xlink:href="#m89fc477e07" x="328.422096" y="288.513851" style="fill: #8c564b; stroke: #8c564b"/>
     <use xlink:href="#m89fc477e07" x="359.758398" y="294.187616" style="fill: #8c564b; stroke: #8c564b"/>
     <use xlink:href="#m89fc477e07" x="375.426549" y="288.180987" style="fill: #8c564b; stroke: #8c564b"/>
     <use xlink:href="#m89fc477e07" x="391.094701" y="288.032356" style="fill: #8c564b; stroke: #8c564b"/>
     <use xlink:href="#m89fc477e07" x="406.762852" y="287.944953" style="fill: #8c564b; stroke: #8c564b"/>
     <use xlink:href="#m89fc477e07" x="422.431003" y="287.058117" style="fill: #8c564b; stroke: #8c564b"/>
     <use xlink:href="#m89fc477e07" x="453.767305" y="288.654389" style="fill: #8c564b; stroke: #8c564b"/>
     <use xlink:href="#m89fc477e07" x="469.435456" y="288.311479" style="fill: #8c564b; stroke: #8c564b"/>
     <use xlink:href="#m89fc477e07" x="485.103607" y="286.780635" style="fill: #8c564b; stroke: #8c564b"/>
     <use xlink:href="#m89fc477e07" x="500.771758" y="288.80425" style="fill: #8c564b; stroke: #8c564b"/>
     <use xlink:href="#m89fc477e07" x="532.108061" y="288.417364" style="fill: #8c564b; stroke: #8c564b"/>
     <use xlink:href="#m89fc477e07" x="547.776212" y="286.563061" style="fill: #8c564b; stroke: #8c564b"/>
     <use xlink:href="#m89fc477e07" x="563.444363" y="287.377873" style="fill: #8c564b; stroke: #8c564b"/>
     <use xlink:href="#m89fc477e07" x="579.112514" y="287.334677" style="fill: #8c564b; stroke: #8c564b"/>
     <use xlink:href="#m89fc477e07" x="594.780665" y="287.646364" style="fill: #8c564b; stroke: #8c564b"/>
     <use xlink:href="#m89fc477e07" x="610.448816" y="289.139347" style="fill: #8c564b; stroke: #8c564b"/>
     <use xlink:href="#m89fc477e07" x="626.116967" y="288.249288" style="fill: #8c564b; stroke: #8c564b"/>
     <use xlink:href="#m89fc477e07" x="641.785118" y="287.634331" style="fill: #8c564b; stroke: #8c564b"/>
     <use xlink:href="#m89fc477e07" x="673.12142" y="288.885621" style="fill: #8c564b; stroke: #8c564b"/>
    </g>
   </g>
   <g id="patch_3">
    <path d="M 64.41375 529.308125 
L 64.41375 23.837812 
" style="fill: none; stroke: #000000; stroke-width: 0.8; stroke-linejoin: miter; stroke-linecap: square"/>
   </g>
   <g id="patch_4">
    <path d="M 702.1075 529.308125 
L 702.1075 23.837812 
" style="fill: none; stroke: #000000; stroke-width: 0.8; stroke-linejoin: miter; stroke-linecap: square"/>
   </g>
   <g id="patch_5">
    <path d="M 64.41375 529.308125 
L 702.1075 529.308125 
" style="fill: none; stroke: #000000; stroke-width: 0.8; stroke-linejoin: miter; stroke-linecap: square"/>
   </g>
   <g id="patch_6">
    <path d="M 64.41375 23.837812 
L 702.1075 23.837812 
" style="fill: none; stroke: #000000; stroke-width: 0.8; stroke-linejoin: miter; stroke-linecap: square"/>
   </g>
   <g id="text_14">
    <text style="font: 700 14px 'DejaVu Sans', 'Bitstream Vera Sans', 'Computer Modern Sans Serif', 'Lucida Grande', 'Verdana', 'Geneva', 'Lucid', 'Arial', 'Helvetica', 'Avant Garde', sans-serif; text-anchor: middle" x="383.260625" y="17.837813" transform="rotate(-0 383.260625 17.837813)">Taskthroughput - Performance Trend</text>
   </g>
   <g id="legend_1">
    <g id="patch_7">
     <path d="M 740.992188 119.906563 
L 846.004688 119.906563 
Q 848.004688 119.906563 848.004688 117.906563 
L 848.004688 30.837813 
Q 848.004688 28.837813 846.004688 28.837813 
L 740.992188 28.837813 
Q 738.992188 28.837813 738.992188 30.837813 
L 738.992188 117.906563 
Q 738.992188 119.906563 740.992188 119.906563 
z
" style="fill: #ffffff; opacity: 0.8; stroke: #cccccc; stroke-linejoin: miter"/>
    </g>
    <g id="line2d_26">
     <path d="M 742.992188 36.93625 
L 752.992188 36.93625 
L 762.992188 36.93625 
" style="fill: none; stroke: #1f77b4; stroke-width: 2; stroke-linecap: square"/>
     <g>
      <use xlink:href="#m5d7f7542c4" x="752.992188" y="36.93625" style="fill: #1f77b4; stroke: #1f77b4"/>
     </g>
    </g>
    <g id="text_15">
     <text style="font: 10px 'DejaVu Sans', 'Bitstream Vera Sans', 'Computer Modern Sans Serif', 'Lucida Grande', 'Verdana', 'Geneva', 'Lucid', 'Arial', 'Helvetica', 'Avant Garde', sans-serif; text-anchor: start" x="770.992188" y="40.43625" transform="rotate(-0 770.992188 40.43625)">gcc-14.2 - V1</text>
    </g>
    <g id="line2d_27">
     <path d="M 742.992188 51.614375 
L 752.992188 51.614375 
L 762.992188 51.614375 
" style="fill: none; stroke: #ff7f0e; stroke-width: 2; stroke-linecap: square"/>
     <g>
      <use xlink:href="#m880d1f5880" x="752.992188" y="51.614375" style="fill: #ff7f0e; stroke: #ff7f0e"/>
     </g>
    </g>
    <g id="text_16">
     <text style="font: 10px 'DejaVu Sans', 'Bitstream Vera Sans', 'Computer Modern Sans Serif', 'Lucida Grande', 'Verdana', 'Geneva', 'Lucid', 'Arial', 'Helvetica', 'Avant Garde', sans-serif; text-anchor: start" x="770.992188" y="55.114375" transform="rotate(-0 770.992188 55.114375)">gcc-14.2 - V2</text>
    </g>
    <g id="line2d_28">
     <path d="M 742.992188 66.2925 
L 752.992188 66.2925 
L 762.992188 66.2925 
" style="fill: none; stroke: #2ca02c; stroke-width: 2; stroke-linecap: square"/>
     <g>
      <use xlink:href="#m3c9f87180b" x="752.992188" y="66.2925" style="fill: #2ca02c; stroke: #2ca02c"/>
     </g>
    </g>
    <g id="text_17">
     <text style="font: 10px 'DejaVu Sans', 'Bitstream Vera Sans', 'Computer Modern Sans Serif', 'Lucida Grande', 'Verdana', 'Geneva', 'Lucid', 'Arial', 'Helvetica', 'Avant Garde', sans-serif; text-anchor: start" x="770.992188" y="69.7925" transform="rotate(-0 770.992188 69.7925)">gcc-14.2 - TBB</text>
    </g>
    <g id="line2d_29">
     <path d="M 742.992188 80.970625 
L 752.992188 80.970625 
L 762.992188 80.970625 
" style="fill: none; stroke: #d62728; stroke-width: 2; stroke-linecap: square"/>
     <g>
      <use xlink:href="#m8d3c9071ca" x="752.992188" y="80.970625" style="fill: #d62728; stroke: #d62728"/>
     </g>
    </g>
    <g id="text_18">
     <text style="font: 10px 'DejaVu Sans', 'Bitstream Vera Sans', 'Computer Modern Sans Serif', 'Lucida Grande', 'Verdana', 'Geneva', 'Lucid', 'Arial', 'Helvetica', 'Avant Garde', sans-serif; text-anchor: start" x="770.992188" y="84.470625" transform="rotate(-0 770.992188 84.470625)">gcc-4.2 - V1</text>
    </g>
    <g id="line2d_30">
     <path d="M 742.992188 95.64875 
L 752.992188 95.64875 
L 762.992188 95.64875 
" style="fill: none; stroke: #9467bd; stroke-width: 2; stroke-linecap: square"/>
     <g>
      <use xlink:href="#m836ce47528" x="752.992188" y="95.64875" style="fill: #9467bd; stroke: #9467bd"/>
     </g>
    </g>
    <g id="text_19">
     <text style="font: 10px 'DejaVu Sans', 'Bitstream Vera Sans', 'Computer Modern Sans Serif', 'Lucida Grande', 'Verdana', 'Geneva', 'Lucid', 'Arial', 'Helvetica', 'Avant Garde', sans-serif; text-anchor: start" x="770.992188" y="99.14875" transform="rotate(-0 770.992188 99.14875)">gcc-4.2 - V2</text>
    </g>
    <g id="line2d_31">
     <path d="M 742.992188 110.326875 
L 752.992188 110.326875 
L 762.992188 110.326875 
" style="fill: none; stroke: #8c564b; stroke-width: 2; stroke-linecap: square"/>
     <g>
      <use xlink:href="#m89fc477e07" x="752.992188" y="110.326875" style="fill: #8c564b; stroke: #8c564b"/>
     </g>
    </g>
    <g id="text_20">
     <text style="font: 10px 'DejaVu Sans', 'Bitstream Vera Sans', 'Computer Modern Sans Serif', 'Lucida Grande', 'Verdana', 'Geneva', 'Lucid', 'Arial', 'Helvetica', 'Avant Garde', sans-serif; text-anchor: start" x="770.992188" y="113.826875" transform="rotate(-0 770.992188 113.826875)">gcc-4.2 - TBB</text>
    </g>
   </g>
  </g>
 </g>
 <defs>
  <clipPath id="pd0d8c6d055">
   <rect x="64.41375" y="23.837813" width="637.69375" height="505.470313"/>
  </clipPath>
 </defs>
</svg>
