<?xml version="1.0" encoding="utf-8" standalone="no"?>
<!DOCTYPE svg PUBLIC "-//W3C//DTD SVG 1.1//EN"
  "http://www.w3.org/Graphics/SVG/1.1/DTD/svg11.dtd">
<svg xmlns:xlink="http://www.w3.org/1999/xlink" width="847.981719pt" height="568.8pt" viewBox="0 0 847.981719 568.8" xmlns="http://www.w3.org/2000/svg" version="1.1">
 <metadata>
  <rdf:RDF xmlns:dc="http://purl.org/dc/elements/1.1/" xmlns:cc="http://creativecommons.org/ns#" xmlns:rdf="http://www.w3.org/1999/02/22-rdf-syntax-ns#">
   <cc:Work>
    <dc:type rdf:resource="http://purl.org/dc/dcmitype/StillImage"/>
    <dc:date>2025-08-27T17:03:16.216156</dc:date>
    <dc:format>image/svg+xml</dc:format>
    <dc:creator>
     <cc:Agent>
      <dc:title>Matplotlib v3.9.4, https://matplotlib.org/</dc:title>
     </cc:Agent>
    </dc:creator>
   </cc:Work>
  </rdf:RDF>
 </metadata>
 <defs>
  <style type="text/css">*{stroke-linejoin: round; stroke-linecap: butt}</style>
 </defs>
 <g id="figure_1">
  <g id="patch_1">
   <path d="M 0 568.8 
L 847.981719 568.8 
L 847.981719 0 
L 0 0 
z
" style="fill: #ffffff"/>
  </g>
  <g id="axes_1">
   <g id="patch_2">
    <path d="M 47.41375 529.308125 
L 540.648125 529.308125 
L 540.648125 23.837812 
L 47.41375 23.837812 
z
" style="fill: #ffffff"/>
   </g>
   <g id="matplotlib.axis_1">
    <g id="xtick_1">
     <g id="line2d_1">
      <path d="M 69.833494 529.308125 
L 69.833494 23.837812 
" clip-path="url(#pa00fb52560)" style="fill: none; stroke: #b0b0b0; stroke-opacity: 0.3; stroke-width: 0.8; stroke-linecap: square"/>
     </g>
     <g id="line2d_2">
      <defs>
       <path id="m6d89ff19c9" d="M 0 0 
L 0 3.5 
" style="stroke: #000000; stroke-width: 0.8"/>
      </defs>
      <g>
       <use xlink:href="#m6d89ff19c9" x="69.833494" y="529.308125" style="stroke: #000000; stroke-width: 0.8"/>
      </g>
     </g>
     <g id="text_1">
      <text style="font: 10px 'DejaVu Sans', 'Bitstream Vera Sans', 'Computer Modern Sans Serif', 'Lucida Grande', 'Verdana', 'Geneva', 'Lucid', 'Arial', 'Helvetica', 'Avant Garde', sans-serif; text-anchor: middle" x="69.833494" y="543.906563" transform="rotate(-0 69.833494 543.906563)">96</text>
     </g>
    </g>
    <g id="xtick_2">
     <g id="line2d_3">
      <path d="M 159.512472 529.308125 
L 159.512472 23.837812 
" clip-path="url(#pa00fb52560)" style="fill: none; stroke: #b0b0b0; stroke-opacity: 0.3; stroke-width: 0.8; stroke-linecap: square"/>
     </g>
     <g id="line2d_4">
      <g>
       <use xlink:href="#m6d89ff19c9" x="159.512472" y="529.308125" style="stroke: #000000; stroke-width: 0.8"/>
      </g>
     </g>
     <g id="text_2">
      <text style="font: 10px 'DejaVu Sans', 'Bitstream Vera Sans', 'Computer Modern Sans Serif', 'Lucida Grande', 'Verdana', 'Geneva', 'Lucid', 'Arial', 'Helvetica', 'Avant Garde', sans-serif; text-anchor: middle" x="159.512472" y="543.906563" transform="rotate(-0 159.512472 543.906563)">98</text>
     </g>
    </g>
    <g id="xtick_3">
     <g id="line2d_5">
      <path d="M 249.191449 529.308125 
L 249.191449 23.837812 
" clip-path="url(#pa00fb52560)" style="fill: none; stroke: #b0b0b0; stroke-opacity: 0.3; stroke-width: 0.8; stroke-linecap: square"/>
     </g>
     <g id="line2d_6">
      <g>
       <use xlink:href="#m6d89ff19c9" x="249.191449" y="529.308125" style="stroke: #000000; stroke-width: 0.8"/>
      </g>
     </g>
     <g id="text_3">
      <text style="font: 10px 'DejaVu Sans', 'Bitstream Vera Sans', 'Computer Modern Sans Serif', 'Lucida Grande', 'Verdana', 'Geneva', 'Lucid', 'Arial', 'Helvetica', 'Avant Garde', sans-serif; text-anchor: middle" x="249.191449" y="543.906563" transform="rotate(-0 249.191449 543.906563)">100</text>
     </g>
    </g>
    <g id="xtick_4">
     <g id="line2d_7">
      <path d="M 338.870426 529.308125 
L 338.870426 23.837812 
" clip-path="url(#pa00fb52560)" style="fill: none; stroke: #b0b0b0; stroke-opacity: 0.3; stroke-width: 0.8; stroke-linecap: square"/>
     </g>
     <g id="line2d_8">
      <g>
       <use xlink:href="#m6d89ff19c9" x="338.870426" y="529.308125" style="stroke: #000000; stroke-width: 0.8"/>
      </g>
     </g>
     <g id="text_4">
      <text style="font: 10px 'DejaVu Sans', 'Bitstream Vera Sans', 'Computer Modern Sans Serif', 'Lucida Grande', 'Verdana', 'Geneva', 'Lucid', 'Arial', 'Helvetica', 'Avant Garde', sans-serif; text-anchor: middle" x="338.870426" y="543.906563" transform="rotate(-0 338.870426 543.906563)">102</text>
     </g>
    </g>
    <g id="xtick_5">
     <g id="line2d_9">
      <path d="M 428.549403 529.308125 
L 428.549403 23.837812 
" clip-path="url(#pa00fb52560)" style="fill: none; stroke: #b0b0b0; stroke-opacity: 0.3; stroke-width: 0.8; stroke-linecap: square"/>
     </g>
     <g id="line2d_10">
      <g>
       <use xlink:href="#m6d89ff19c9" x="428.549403" y="529.308125" style="stroke: #000000; stroke-width: 0.8"/>
      </g>
     </g>
     <g id="text_5">
      <text style="font: 10px 'DejaVu Sans', 'Bitstream Vera Sans', 'Computer Modern Sans Serif', 'Lucida Grande', 'Verdana', 'Geneva', 'Lucid', 'Arial', 'Helvetica', 'Avant Garde', sans-serif; text-anchor: middle" x="428.549403" y="543.906563" transform="rotate(-0 428.549403 543.906563)">104</text>
     </g>
    </g>
    <g id="xtick_6">
     <g id="line2d_11">
      <path d="M 518.228381 529.308125 
L 518.228381 23.837812 
" clip-path="url(#pa00fb52560)" style="fill: none; stroke: #b0b0b0; stroke-opacity: 0.3; stroke-width: 0.8; stroke-linecap: square"/>
     </g>
     <g id="line2d_12">
      <g>
       <use xlink:href="#m6d89ff19c9" x="518.228381" y="529.308125" style="stroke: #000000; stroke-width: 0.8"/>
      </g>
     </g>
     <g id="text_6">
      <text style="font: 10px 'DejaVu Sans', 'Bitstream Vera Sans', 'Computer Modern Sans Serif', 'Lucida Grande', 'Verdana', 'Geneva', 'Lucid', 'Arial', 'Helvetica', 'Avant Garde', sans-serif; text-anchor: middle" x="518.228381" y="543.906563" transform="rotate(-0 518.228381 543.906563)">106</text>
     </g>
    </g>
    <g id="text_7">
     <text style="font: 12px 'DejaVu Sans', 'Bitstream Vera Sans', 'Computer Modern Sans Serif', 'Lucida Grande', 'Verdana', 'Geneva', 'Lucid', 'Arial', 'Helvetica', 'Avant Garde', sans-serif; text-anchor: middle" x="294.030937" y="559.104375" transform="rotate(-0 294.030937 559.104375)">Build Number</text>
    </g>
   </g>
   <g id="matplotlib.axis_2">
    <g id="ytick_1">
     <g id="line2d_13">
      <path d="M 47.41375 518.657845 
L 540.648125 518.657845 
" clip-path="url(#pa00fb52560)" style="fill: none; stroke: #b0b0b0; stroke-opacity: 0.3; stroke-width: 0.8; stroke-linecap: square"/>
     </g>
     <g id="line2d_14">
      <defs>
       <path id="md2c0954647" d="M 0 0 
L -3.5 0 
" style="stroke: #000000; stroke-width: 0.8"/>
      </defs>
      <g>
       <use xlink:href="#md2c0954647" x="47.41375" y="518.657845" style="stroke: #000000; stroke-width: 0.8"/>
      </g>
     </g>
     <g id="text_8">
      <!-- $\mathdefault{10^{5}}$ -->
      <g transform="translate(22.81375 522.457063)">
       <text>
        <tspan style="font: 10px 'DejaVu Sans'" x="0 6.362305" y="-0.06406250000000036">10</tspan>
        <tspan style="font: 7px 'DejaVu Sans'" x="12.820312" y="-3.8921875000000004">5</tspan>
       </text>
      </g>
     </g>
    </g>
    <g id="ytick_2">
     <g id="line2d_15">
      <path d="M 47.41375 361.451534 
L 540.648125 361.451534 
" clip-path="url(#pa00fb52560)" style="fill: none; stroke: #b0b0b0; stroke-opacity: 0.3; stroke-width: 0.8; stroke-linecap: square"/>
     </g>
     <g id="line2d_16">
      <g>
       <use xlink:href="#md2c0954647" x="47.41375" y="361.451534" style="stroke: #000000; stroke-width: 0.8"/>
      </g>
     </g>
     <g id="text_9">
      <!-- $\mathdefault{10^{6}}$ -->
      <g transform="translate(22.81375 365.250753)">
       <text>
        <tspan style="font: 10px 'DejaVu Sans'" x="0 6.362305" y="-0.9765625">10</tspan>
        <tspan style="font: 7px 'DejaVu Sans'" x="12.820312" y="-4.8046875">6</tspan>
       </text>
      </g>
     </g>
    </g>
    <g id="ytick_3">
     <g id="line2d_17">
      <path d="M 47.41375 204.245224 
L 540.648125 204.245224 
" clip-path="url(#pa00fb52560)" style="fill: none; stroke: #b0b0b0; stroke-opacity: 0.3; stroke-width: 0.8; stroke-linecap: square"/>
     </g>
     <g id="line2d_18">
      <g>
       <use xlink:href="#md2c0954647" x="47.41375" y="204.245224" style="stroke: #000000; stroke-width: 0.8"/>
      </g>
     </g>
     <g id="text_10">
      <!-- $\mathdefault{10^{7}}$ -->
      <g transform="translate(22.81375 208.044443)">
       <text>
        <tspan style="font: 10px 'DejaVu Sans'" x="0 6.362305" y="-0.06406250000000036">10</tspan>
        <tspan style="font: 7px 'DejaVu Sans'" x="12.820312" y="-3.8921875000000004">7</tspan>
       </text>
      </g>
     </g>
    </g>
    <g id="ytick_4">
     <g id="line2d_19">
      <path d="M 47.41375 47.038914 
L 540.648125 47.038914 
" clip-path="url(#pa00fb52560)" style="fill: none; stroke: #b0b0b0; stroke-opacity: 0.3; stroke-width: 0.8; stroke-linecap: square"/>
     </g>
     <g id="line2d_20">
      <g>
       <use xlink:href="#md2c0954647" x="47.41375" y="47.038914" style="stroke: #000000; stroke-width: 0.8"/>
      </g>
     </g>
     <g id="text_11">
      <!-- $\mathdefault{10^{8}}$ -->
      <g transform="translate(22.81375 50.838133)">
       <text>
        <tspan style="font: 10px 'DejaVu Sans'" x="0 6.362305" y="-0.9765625">10</tspan>
        <tspan style="font: 7px 'DejaVu Sans'" x="12.820312" y="-4.8046875">8</tspan>
       </text>
      </g>
     </g>
    </g>
    <g id="ytick_5">
     <g id="line2d_21">
      <defs>
       <path id="m77792abbc2" d="M 0 0 
L -2 0 
" style="stroke: #000000; stroke-width: 0.6"/>
      </defs>
      <g>
       <use xlink:href="#m77792abbc2" x="47.41375" y="525.851211" style="stroke: #000000; stroke-width: 0.6"/>
      </g>
     </g>
    </g>
    <g id="ytick_6">
     <g id="line2d_22">
      <g>
       <use xlink:href="#m77792abbc2" x="47.41375" y="471.33403" style="stroke: #000000; stroke-width: 0.6"/>
      </g>
     </g>
    </g>
    <g id="ytick_7">
     <g id="line2d_23">
      <g>
       <use xlink:href="#m77792abbc2" x="47.41375" y="443.651373" style="stroke: #000000; stroke-width: 0.6"/>
      </g>
     </g>
    </g>
    <g id="ytick_8">
     <g id="line2d_24">
      <g>
       <use xlink:href="#m77792abbc2" x="47.41375" y="424.010215" style="stroke: #000000; stroke-width: 0.6"/>
      </g>
     </g>
    </g>
    <g id="ytick_9">
     <g id="line2d_25">
      <g>
       <use xlink:href="#m77792abbc2" x="47.41375" y="408.775349" style="stroke: #000000; stroke-width: 0.6"/>
      </g>
     </g>
    </g>
    <g id="ytick_10">
     <g id="line2d_26">
      <g>
       <use xlink:href="#m77792abbc2" x="47.41375" y="396.327558" style="stroke: #000000; stroke-width: 0.6"/>
      </g>
     </g>
    </g>
    <g id="ytick_11">
     <g id="line2d_27">
      <g>
       <use xlink:href="#m77792abbc2" x="47.41375" y="385.8031" style="stroke: #000000; stroke-width: 0.6"/>
      </g>
     </g>
    </g>
    <g id="ytick_12">
     <g id="line2d_28">
      <g>
       <use xlink:href="#m77792abbc2" x="47.41375" y="376.6864" style="stroke: #000000; stroke-width: 0.6"/>
      </g>
     </g>
    </g>
    <g id="ytick_13">
     <g id="line2d_29">
      <g>
       <use xlink:href="#m77792abbc2" x="47.41375" y="368.644901" style="stroke: #000000; stroke-width: 0.6"/>
      </g>
     </g>
    </g>
    <g id="ytick_14">
     <g id="line2d_30">
      <g>
       <use xlink:href="#m77792abbc2" x="47.41375" y="314.12772" style="stroke: #000000; stroke-width: 0.6"/>
      </g>
     </g>
    </g>
    <g id="ytick_15">
     <g id="line2d_31">
      <g>
       <use xlink:href="#m77792abbc2" x="47.41375" y="286.445062" style="stroke: #000000; stroke-width: 0.6"/>
      </g>
     </g>
    </g>
    <g id="ytick_16">
     <g id="line2d_32">
      <g>
       <use xlink:href="#m77792abbc2" x="47.41375" y="266.803905" style="stroke: #000000; stroke-width: 0.6"/>
      </g>
     </g>
    </g>
    <g id="ytick_17">
     <g id="line2d_33">
      <g>
       <use xlink:href="#m77792abbc2" x="47.41375" y="251.569039" style="stroke: #000000; stroke-width: 0.6"/>
      </g>
     </g>
    </g>
    <g id="ytick_18">
     <g id="line2d_34">
      <g>
       <use xlink:href="#m77792abbc2" x="47.41375" y="239.121248" style="stroke: #000000; stroke-width: 0.6"/>
      </g>
     </g>
    </g>
    <g id="ytick_19">
     <g id="line2d_35">
      <g>
       <use xlink:href="#m77792abbc2" x="47.41375" y="228.59679" style="stroke: #000000; stroke-width: 0.6"/>
      </g>
     </g>
    </g>
    <g id="ytick_20">
     <g id="line2d_36">
      <g>
       <use xlink:href="#m77792abbc2" x="47.41375" y="219.48009" style="stroke: #000000; stroke-width: 0.6"/>
      </g>
     </g>
    </g>
    <g id="ytick_21">
     <g id="line2d_37">
      <g>
       <use xlink:href="#m77792abbc2" x="47.41375" y="211.438591" style="stroke: #000000; stroke-width: 0.6"/>
      </g>
     </g>
    </g>
    <g id="ytick_22">
     <g id="line2d_38">
      <g>
       <use xlink:href="#m77792abbc2" x="47.41375" y="156.921409" style="stroke: #000000; stroke-width: 0.6"/>
      </g>
     </g>
    </g>
    <g id="ytick_23">
     <g id="line2d_39">
      <g>
       <use xlink:href="#m77792abbc2" x="47.41375" y="129.238752" style="stroke: #000000; stroke-width: 0.6"/>
      </g>
     </g>
    </g>
    <g id="ytick_24">
     <g id="line2d_40">
      <g>
       <use xlink:href="#m77792abbc2" x="47.41375" y="109.597595" style="stroke: #000000; stroke-width: 0.6"/>
      </g>
     </g>
    </g>
    <g id="ytick_25">
     <g id="line2d_41">
      <g>
       <use xlink:href="#m77792abbc2" x="47.41375" y="94.362729" style="stroke: #000000; stroke-width: 0.6"/>
      </g>
     </g>
    </g>
    <g id="ytick_26">
     <g id="line2d_42">
      <g>
       <use xlink:href="#m77792abbc2" x="47.41375" y="81.914937" style="stroke: #000000; stroke-width: 0.6"/>
      </g>
     </g>
    </g>
    <g id="ytick_27">
     <g id="line2d_43">
      <g>
       <use xlink:href="#m77792abbc2" x="47.41375" y="71.39048" style="stroke: #000000; stroke-width: 0.6"/>
      </g>
     </g>
    </g>
    <g id="ytick_28">
     <g id="line2d_44">
      <g>
       <use xlink:href="#m77792abbc2" x="47.41375" y="62.27378" style="stroke: #000000; stroke-width: 0.6"/>
      </g>
     </g>
    </g>
    <g id="ytick_29">
     <g id="line2d_45">
      <g>
       <use xlink:href="#m77792abbc2" x="47.41375" y="54.23228" style="stroke: #000000; stroke-width: 0.6"/>
      </g>
     </g>
    </g>
    <g id="text_12">
     <text style="font: 12px 'DejaVu Sans', 'Bitstream Vera Sans', 'Computer Modern Sans Serif', 'Lucida Grande', 'Verdana', 'Geneva', 'Lucid', 'Arial', 'Helvetica', 'Avant Garde', sans-serif; text-anchor: middle" x="16.318125" y="276.572969" transform="rotate(-90 16.318125 276.572969)">Median Elapsed Time (nanoseconds)</text>
    </g>
   </g>
   <g id="line2d_46">
    <path d="M 69.833494 46.813736 
L 114.672983 46.886938 
L 204.35196 46.884901 
L 249.191449 46.87655 
L 294.030937 46.885565 
L 338.870426 46.88452 
L 383.709915 46.882538 
L 428.549403 46.885315 
L 473.388892 46.874772 
L 518.228381 46.879675 
" clip-path="url(#pa00fb52560)" style="fill: none; stroke: #1f77b4; stroke-width: 2; stroke-linecap: square"/>
    <defs>
     <path id="mffdc4566de" d="M 0 3 
C 0.795609 3 1.55874 2.683901 2.12132 2.12132 
C 2.683901 1.55874 3 0.795609 3 0 
C 3 -0.795609 2.683901 -1.55874 2.12132 -2.12132 
C 1.55874 -2.683901 0.795609 -3 0 -3 
C -0.795609 -3 -1.55874 -2.683901 -2.12132 -2.12132 
C -2.683901 -1.55874 -3 -0.795609 -3 0 
C -3 0.795609 -2.683901 1.55874 -2.12132 2.12132 
C -1.55874 2.683901 -0.795609 3 0 3 
z
" style="stroke: #1f77b4"/>
    </defs>
    <g clip-path="url(#pa00fb52560)">
     <use xlink:href="#mffdc4566de" x="69.833494" y="46.813736" style="fill: #1f77b4; stroke: #1f77b4"/>
     <use xlink:href="#mffdc4566de" x="114.672983" y="46.886938" style="fill: #1f77b4; stroke: #1f77b4"/>
     <use xlink:href="#mffdc4566de" x="204.35196" y="46.884901" style="fill: #1f77b4; stroke: #1f77b4"/>
     <use xlink:href="#mffdc4566de" x="249.191449" y="46.87655" style="fill: #1f77b4; stroke: #1f77b4"/>
     <use xlink:href="#mffdc4566de" x="294.030937" y="46.885565" style="fill: #1f77b4; stroke: #1f77b4"/>
     <use xlink:href="#mffdc4566de" x="338.870426" y="46.88452" style="fill: #1f77b4; stroke: #1f77b4"/>
     <use xlink:href="#mffdc4566de" x="383.709915" y="46.882538" style="fill: #1f77b4; stroke: #1f77b4"/>
     <use xlink:href="#mffdc4566de" x="428.549403" y="46.885315" style="fill: #1f77b4; stroke: #1f77b4"/>
     <use xlink:href="#mffdc4566de" x="473.388892" y="46.874772" style="fill: #1f77b4; stroke: #1f77b4"/>
     <use xlink:href="#mffdc4566de" x="518.228381" y="46.879675" style="fill: #1f77b4; stroke: #1f77b4"/>
    </g>
   </g>
   <g id="line2d_47">
    <path d="M 69.833494 319.004611 
L 114.672983 320.360843 
L 204.35196 319.636825 
L 249.191449 319.999629 
L 294.030937 320.356737 
L 338.870426 319.999201 
L 383.709915 320.259041 
L 428.549403 320.206522 
L 473.388892 319.662467 
L 518.228381 320.38829 
" clip-path="url(#pa00fb52560)" style="fill: none; stroke: #ff7f0e; stroke-width: 2; stroke-linecap: square"/>
    <defs>
     <path id="ma5c992d3e5" d="M 0 3 
C 0.795609 3 1.55874 2.683901 2.12132 2.12132 
C 2.683901 1.55874 3 0.795609 3 0 
C 3 -0.795609 2.683901 -1.55874 2.12132 -2.12132 
C 1.55874 -2.683901 0.795609 -3 0 -3 
C -0.795609 -3 -1.55874 -2.683901 -2.12132 -2.12132 
C -2.683901 -1.55874 -3 -0.795609 -3 0 
C -3 0.795609 -2.683901 1.55874 -2.12132 2.12132 
C -1.55874 2.683901 -0.795609 3 0 3 
z
" style="stroke: #ff7f0e"/>
    </defs>
    <g clip-path="url(#pa00fb52560)">
     <use xlink:href="#ma5c992d3e5" x="69.833494" y="319.004611" style="fill: #ff7f0e; stroke: #ff7f0e"/>
     <use xlink:href="#ma5c992d3e5" x="114.672983" y="320.360843" style="fill: #ff7f0e; stroke: #ff7f0e"/>
     <use xlink:href="#ma5c992d3e5" x="204.35196" y="319.636825" style="fill: #ff7f0e; stroke: #ff7f0e"/>
     <use xlink:href="#ma5c992d3e5" x="249.191449" y="319.999629" style="fill: #ff7f0e; stroke: #ff7f0e"/>
     <use xlink:href="#ma5c992d3e5" x="294.030937" y="320.356737" style="fill: #ff7f0e; stroke: #ff7f0e"/>
     <use xlink:href="#ma5c992d3e5" x="338.870426" y="319.999201" style="fill: #ff7f0e; stroke: #ff7f0e"/>
     <use xlink:href="#ma5c992d3e5" x="383.709915" y="320.259041" style="fill: #ff7f0e; stroke: #ff7f0e"/>
     <use xlink:href="#ma5c992d3e5" x="428.549403" y="320.206522" style="fill: #ff7f0e; stroke: #ff7f0e"/>
     <use xlink:href="#ma5c992d3e5" x="473.388892" y="319.662467" style="fill: #ff7f0e; stroke: #ff7f0e"/>
     <use xlink:href="#ma5c992d3e5" x="518.228381" y="320.38829" style="fill: #ff7f0e; stroke: #ff7f0e"/>
    </g>
   </g>
   <g id="line2d_48">
    <path d="M 69.833494 46.854989 
L 114.672983 46.849498 
L 204.35196 46.832617 
L 249.191449 46.841864 
L 294.030937 46.854505 
L 338.870426 46.847579 
L 383.709915 46.844188 
L 428.549403 46.84886 
L 473.388892 46.858535 
L 518.228381 46.850154 
" clip-path="url(#pa00fb52560)" style="fill: none; stroke: #2ca02c; stroke-width: 2; stroke-linecap: square"/>
    <defs>
     <path id="m6d9a211968" d="M 0 3 
C 0.795609 3 1.55874 2.683901 2.12132 2.12132 
C 2.683901 1.55874 3 0.795609 3 0 
C 3 -0.795609 2.683901 -1.55874 2.12132 -2.12132 
C 1.55874 -2.683901 0.795609 -3 0 -3 
C -0.795609 -3 -1.55874 -2.683901 -2.12132 -2.12132 
C -2.683901 -1.55874 -3 -0.795609 -3 0 
C -3 0.795609 -2.683901 1.55874 -2.12132 2.12132 
C -1.55874 2.683901 -0.795609 3 0 3 
z
" style="stroke: #2ca02c"/>
    </defs>
    <g clip-path="url(#pa00fb52560)">
     <use xlink:href="#m6d9a211968" x="69.833494" y="46.854989" style="fill: #2ca02c; stroke: #2ca02c"/>
     <use xlink:href="#m6d9a211968" x="114.672983" y="46.849498" style="fill: #2ca02c; stroke: #2ca02c"/>
     <use xlink:href="#m6d9a211968" x="204.35196" y="46.832617" style="fill: #2ca02c; stroke: #2ca02c"/>
     <use xlink:href="#m6d9a211968" x="249.191449" y="46.841864" style="fill: #2ca02c; stroke: #2ca02c"/>
     <use xlink:href="#m6d9a211968" x="294.030937" y="46.854505" style="fill: #2ca02c; stroke: #2ca02c"/>
     <use xlink:href="#m6d9a211968" x="338.870426" y="46.847579" style="fill: #2ca02c; stroke: #2ca02c"/>
     <use xlink:href="#m6d9a211968" x="383.709915" y="46.844188" style="fill: #2ca02c; stroke: #2ca02c"/>
     <use xlink:href="#m6d9a211968" x="428.549403" y="46.84886" style="fill: #2ca02c; stroke: #2ca02c"/>
     <use xlink:href="#m6d9a211968" x="473.388892" y="46.858535" style="fill: #2ca02c; stroke: #2ca02c"/>
     <use xlink:href="#m6d9a211968" x="518.228381" y="46.850154" style="fill: #2ca02c; stroke: #2ca02c"/>
    </g>
   </g>
   <g id="line2d_49">
    <path d="M 69.833494 351.243795 
L 114.672983 351.161212 
L 204.35196 350.873877 
L 249.191449 350.964597 
L 294.030937 351.219741 
L 338.870426 350.991437 
L 383.709915 351.135309 
L 428.549403 350.926308 
L 473.388892 351.774231 
L 518.228381 350.966131 
" clip-path="url(#pa00fb52560)" style="fill: none; stroke: #d62728; stroke-width: 2; stroke-linecap: square"/>
    <defs>
     <path id="m6bf9e51656" d="M 0 3 
C 0.795609 3 1.55874 2.683901 2.12132 2.12132 
C 2.683901 1.55874 3 0.795609 3 0 
C 3 -0.795609 2.683901 -1.55874 2.12132 -2.12132 
C 1.55874 -2.683901 0.795609 -3 0 -3 
C -0.795609 -3 -1.55874 -2.683901 -2.12132 -2.12132 
C -2.683901 -1.55874 -3 -0.795609 -3 0 
C -3 0.795609 -2.683901 1.55874 -2.12132 2.12132 
C -1.55874 2.683901 -0.795609 3 0 3 
z
" style="stroke: #d62728"/>
    </defs>
    <g clip-path="url(#pa00fb52560)">
     <use xlink:href="#m6bf9e51656" x="69.833494" y="351.243795" style="fill: #d62728; stroke: #d62728"/>
     <use xlink:href="#m6bf9e51656" x="114.672983" y="351.161212" style="fill: #d62728; stroke: #d62728"/>
     <use xlink:href="#m6bf9e51656" x="204.35196" y="350.873877" style="fill: #d62728; stroke: #d62728"/>
     <use xlink:href="#m6bf9e51656" x="249.191449" y="350.964597" style="fill: #d62728; stroke: #d62728"/>
     <use xlink:href="#m6bf9e51656" x="294.030937" y="351.219741" style="fill: #d62728; stroke: #d62728"/>
     <use xlink:href="#m6bf9e51656" x="338.870426" y="350.991437" style="fill: #d62728; stroke: #d62728"/>
     <use xlink:href="#m6bf9e51656" x="383.709915" y="351.135309" style="fill: #d62728; stroke: #d62728"/>
     <use xlink:href="#m6bf9e51656" x="428.549403" y="350.926308" style="fill: #d62728; stroke: #d62728"/>
     <use xlink:href="#m6bf9e51656" x="473.388892" y="351.774231" style="fill: #d62728; stroke: #d62728"/>
     <use xlink:href="#m6bf9e51656" x="518.228381" y="350.966131" style="fill: #d62728; stroke: #d62728"/>
    </g>
   </g>
   <g id="line2d_50">
    <path d="M 69.833494 505.68314 
L 114.672983 506.059164 
L 204.35196 505.255406 
L 249.191449 504.972495 
L 294.030937 505.602397 
L 338.870426 504.65248 
L 383.709915 505.739734 
L 428.549403 506.332202 
L 473.388892 504.492895 
L 518.228381 504.27542 
" clip-path="url(#pa00fb52560)" style="fill: none; stroke: #9467bd; stroke-width: 2; stroke-linecap: square"/>
    <defs>
     <path id="m87c4b44aef" d="M 0 3 
C 0.795609 3 1.55874 2.683901 2.12132 2.12132 
C 2.683901 1.55874 3 0.795609 3 0 
C 3 -0.795609 2.683901 -1.55874 2.12132 -2.12132 
C 1.55874 -2.683901 0.795609 -3 0 -3 
C -0.795609 -3 -1.55874 -2.683901 -2.12132 -2.12132 
C -2.683901 -1.55874 -3 -0.795609 -3 0 
C -3 0.795609 -2.683901 1.55874 -2.12132 2.12132 
C -1.55874 2.683901 -0.795609 3 0 3 
z
" style="stroke: #9467bd"/>
    </defs>
    <g clip-path="url(#pa00fb52560)">
     <use xlink:href="#m87c4b44aef" x="69.833494" y="505.68314" style="fill: #9467bd; stroke: #9467bd"/>
     <use xlink:href="#m87c4b44aef" x="114.672983" y="506.059164" style="fill: #9467bd; stroke: #9467bd"/>
     <use xlink:href="#m87c4b44aef" x="204.35196" y="505.255406" style="fill: #9467bd; stroke: #9467bd"/>
     <use xlink:href="#m87c4b44aef" x="249.191449" y="504.972495" style="fill: #9467bd; stroke: #9467bd"/>
     <use xlink:href="#m87c4b44aef" x="294.030937" y="505.602397" style="fill: #9467bd; stroke: #9467bd"/>
     <use xlink:href="#m87c4b44aef" x="338.870426" y="504.65248" style="fill: #9467bd; stroke: #9467bd"/>
     <use xlink:href="#m87c4b44aef" x="383.709915" y="505.739734" style="fill: #9467bd; stroke: #9467bd"/>
     <use xlink:href="#m87c4b44aef" x="428.549403" y="506.332202" style="fill: #9467bd; stroke: #9467bd"/>
     <use xlink:href="#m87c4b44aef" x="473.388892" y="504.492895" style="fill: #9467bd; stroke: #9467bd"/>
     <use xlink:href="#m87c4b44aef" x="518.228381" y="504.27542" style="fill: #9467bd; stroke: #9467bd"/>
    </g>
   </g>
   <g id="line2d_51">
    <path d="M 69.833494 46.878744 
L 114.672983 46.868711 
L 204.35196 46.881747 
L 249.191449 46.877248 
L 294.030937 46.883477 
L 338.870426 46.884832 
L 383.709915 46.884005 
L 428.549403 46.881528 
L 473.388892 46.872552 
L 518.228381 46.878803 
" clip-path="url(#pa00fb52560)" style="fill: none; stroke: #8c564b; stroke-width: 2; stroke-linecap: square"/>
    <defs>
     <path id="mb4925be095" d="M 0 3 
C 0.795609 3 1.55874 2.683901 2.12132 2.12132 
C 2.683901 1.55874 3 0.795609 3 0 
C 3 -0.795609 2.683901 -1.55874 2.12132 -2.12132 
C 1.55874 -2.683901 0.795609 -3 0 -3 
C -0.795609 -3 -1.55874 -2.683901 -2.12132 -2.12132 
C -2.683901 -1.55874 -3 -0.795609 -3 0 
C -3 0.795609 -2.683901 1.55874 -2.12132 2.12132 
C -1.55874 2.683901 -0.795609 3 0 3 
z
" style="stroke: #8c564b"/>
    </defs>
    <g clip-path="url(#pa00fb52560)">
     <use xlink:href="#mb4925be095" x="69.833494" y="46.878744" style="fill: #8c564b; stroke: #8c564b"/>
     <use xlink:href="#mb4925be095" x="114.672983" y="46.868711" style="fill: #8c564b; stroke: #8c564b"/>
     <use xlink:href="#mb4925be095" x="204.35196" y="46.881747" style="fill: #8c564b; stroke: #8c564b"/>
     <use xlink:href="#mb4925be095" x="249.191449" y="46.877248" style="fill: #8c564b; stroke: #8c564b"/>
     <use xlink:href="#mb4925be095" x="294.030937" y="46.883477" style="fill: #8c564b; stroke: #8c564b"/>
     <use xlink:href="#mb4925be095" x="338.870426" y="46.884832" style="fill: #8c564b; stroke: #8c564b"/>
     <use xlink:href="#mb4925be095" x="383.709915" y="46.884005" style="fill: #8c564b; stroke: #8c564b"/>
     <use xlink:href="#mb4925be095" x="428.549403" y="46.881528" style="fill: #8c564b; stroke: #8c564b"/>
     <use xlink:href="#mb4925be095" x="473.388892" y="46.872552" style="fill: #8c564b; stroke: #8c564b"/>
     <use xlink:href="#mb4925be095" x="518.228381" y="46.878803" style="fill: #8c564b; stroke: #8c564b"/>
    </g>
   </g>
   <g id="line2d_52">
    <path d="M 69.833494 321.188032 
L 114.672983 321.781194 
L 204.35196 321.847877 
L 249.191449 322.143296 
L 294.030937 322.270945 
L 338.870426 321.850339 
L 383.709915 321.083558 
L 428.549403 321.601218 
L 473.388892 322.39117 
L 518.228381 321.582254 
" clip-path="url(#pa00fb52560)" style="fill: none; stroke: #e377c2; stroke-width: 2; stroke-linecap: square"/>
    <defs>
     <path id="m4c2129f4c1" d="M 0 3 
C 0.795609 3 1.55874 2.683901 2.12132 2.12132 
C 2.683901 1.55874 3 0.795609 3 0 
C 3 -0.795609 2.683901 -1.55874 2.12132 -2.12132 
C 1.55874 -2.683901 0.795609 -3 0 -3 
C -0.795609 -3 -1.55874 -2.683901 -2.12132 -2.12132 
C -2.683901 -1.55874 -3 -0.795609 -3 0 
C -3 0.795609 -2.683901 1.55874 -2.12132 2.12132 
C -1.55874 2.683901 -0.795609 3 0 3 
z
" style="stroke: #e377c2"/>
    </defs>
    <g clip-path="url(#pa00fb52560)">
     <use xlink:href="#m4c2129f4c1" x="69.833494" y="321.188032" style="fill: #e377c2; stroke: #e377c2"/>
     <use xlink:href="#m4c2129f4c1" x="114.672983" y="321.781194" style="fill: #e377c2; stroke: #e377c2"/>
     <use xlink:href="#m4c2129f4c1" x="204.35196" y="321.847877" style="fill: #e377c2; stroke: #e377c2"/>
     <use xlink:href="#m4c2129f4c1" x="249.191449" y="322.143296" style="fill: #e377c2; stroke: #e377c2"/>
     <use xlink:href="#m4c2129f4c1" x="294.030937" y="322.270945" style="fill: #e377c2; stroke: #e377c2"/>
     <use xlink:href="#m4c2129f4c1" x="338.870426" y="321.850339" style="fill: #e377c2; stroke: #e377c2"/>
     <use xlink:href="#m4c2129f4c1" x="383.709915" y="321.083558" style="fill: #e377c2; stroke: #e377c2"/>
     <use xlink:href="#m4c2129f4c1" x="428.549403" y="321.601218" style="fill: #e377c2; stroke: #e377c2"/>
     <use xlink:href="#m4c2129f4c1" x="473.388892" y="322.39117" style="fill: #e377c2; stroke: #e377c2"/>
     <use xlink:href="#m4c2129f4c1" x="518.228381" y="321.582254" style="fill: #e377c2; stroke: #e377c2"/>
    </g>
   </g>
   <g id="line2d_53">
    <path d="M 69.833494 46.879735 
L 114.672983 46.865409 
L 204.35196 46.862453 
L 249.191449 46.861322 
L 294.030937 46.845508 
L 338.870426 46.856362 
L 383.709915 46.864053 
L 428.549403 46.846091 
L 473.388892 46.862107 
L 518.228381 46.856967 
" clip-path="url(#pa00fb52560)" style="fill: none; stroke: #7f7f7f; stroke-width: 2; stroke-linecap: square"/>
    <defs>
     <path id="mc2593afe65" d="M 0 3 
C 0.795609 3 1.55874 2.683901 2.12132 2.12132 
C 2.683901 1.55874 3 0.795609 3 0 
C 3 -0.795609 2.683901 -1.55874 2.12132 -2.12132 
C 1.55874 -2.683901 0.795609 -3 0 -3 
C -0.795609 -3 -1.55874 -2.683901 -2.12132 -2.12132 
C -2.683901 -1.55874 -3 -0.795609 -3 0 
C -3 0.795609 -2.683901 1.55874 -2.12132 2.12132 
C -1.55874 2.683901 -0.795609 3 0 3 
z
" style="stroke: #7f7f7f"/>
    </defs>
    <g clip-path="url(#pa00fb52560)">
     <use xlink:href="#mc2593afe65" x="69.833494" y="46.879735" style="fill: #7f7f7f; stroke: #7f7f7f"/>
     <use xlink:href="#mc2593afe65" x="114.672983" y="46.865409" style="fill: #7f7f7f; stroke: #7f7f7f"/>
     <use xlink:href="#mc2593afe65" x="204.35196" y="46.862453" style="fill: #7f7f7f; stroke: #7f7f7f"/>
     <use xlink:href="#mc2593afe65" x="249.191449" y="46.861322" style="fill: #7f7f7f; stroke: #7f7f7f"/>
     <use xlink:href="#mc2593afe65" x="294.030937" y="46.845508" style="fill: #7f7f7f; stroke: #7f7f7f"/>
     <use xlink:href="#mc2593afe65" x="338.870426" y="46.856362" style="fill: #7f7f7f; stroke: #7f7f7f"/>
     <use xlink:href="#mc2593afe65" x="383.709915" y="46.864053" style="fill: #7f7f7f; stroke: #7f7f7f"/>
     <use xlink:href="#mc2593afe65" x="428.549403" y="46.846091" style="fill: #7f7f7f; stroke: #7f7f7f"/>
     <use xlink:href="#mc2593afe65" x="473.388892" y="46.862107" style="fill: #7f7f7f; stroke: #7f7f7f"/>
     <use xlink:href="#mc2593afe65" x="518.228381" y="46.856967" style="fill: #7f7f7f; stroke: #7f7f7f"/>
    </g>
   </g>
   <g id="line2d_54">
    <path d="M 69.833494 351.519907 
L 114.672983 351.435799 
L 204.35196 351.266846 
L 249.191449 350.702072 
L 294.030937 350.947548 
L 338.870426 351.937698 
L 383.709915 351.43485 
L 428.549403 350.988648 
L 473.388892 351.35422 
L 518.228381 350.918168 
" clip-path="url(#pa00fb52560)" style="fill: none; stroke: #bcbd22; stroke-width: 2; stroke-linecap: square"/>
    <defs>
     <path id="m58bb4057d8" d="M 0 3 
C 0.795609 3 1.55874 2.683901 2.12132 2.12132 
C 2.683901 1.55874 3 0.795609 3 0 
C 3 -0.795609 2.683901 -1.55874 2.12132 -2.12132 
C 1.55874 -2.683901 0.795609 -3 0 -3 
C -0.795609 -3 -1.55874 -2.683901 -2.12132 -2.12132 
C -2.683901 -1.55874 -3 -0.795609 -3 0 
C -3 0.795609 -2.683901 1.55874 -2.12132 2.12132 
C -1.55874 2.683901 -0.795609 3 0 3 
z
" style="stroke: #bcbd22"/>
    </defs>
    <g clip-path="url(#pa00fb52560)">
     <use xlink:href="#m58bb4057d8" x="69.833494" y="351.519907" style="fill: #bcbd22; stroke: #bcbd22"/>
     <use xlink:href="#m58bb4057d8" x="114.672983" y="351.435799" style="fill: #bcbd22; stroke: #bcbd22"/>
     <use xlink:href="#m58bb4057d8" x="204.35196" y="351.266846" style="fill: #bcbd22; stroke: #bcbd22"/>
     <use xlink:href="#m58bb4057d8" x="249.191449" y="350.702072" style="fill: #bcbd22; stroke: #bcbd22"/>
     <use xlink:href="#m58bb4057d8" x="294.030937" y="350.947548" style="fill: #bcbd22; stroke: #bcbd22"/>
     <use xlink:href="#m58bb4057d8" x="338.870426" y="351.937698" style="fill: #bcbd22; stroke: #bcbd22"/>
     <use xlink:href="#m58bb4057d8" x="383.709915" y="351.43485" style="fill: #bcbd22; stroke: #bcbd22"/>
     <use xlink:href="#m58bb4057d8" x="428.549403" y="350.988648" style="fill: #bcbd22; stroke: #bcbd22"/>
     <use xlink:href="#m58bb4057d8" x="473.388892" y="351.35422" style="fill: #bcbd22; stroke: #bcbd22"/>
     <use xlink:href="#m58bb4057d8" x="518.228381" y="350.918168" style="fill: #bcbd22; stroke: #bcbd22"/>
    </g>
   </g>
   <g id="line2d_55">
    <path d="M 69.833494 453.898051 
L 114.672983 454.541527 
L 204.35196 454.112975 
L 249.191449 454.232502 
L 294.030937 454.497844 
L 338.870426 454.508995 
L 383.709915 454.188697 
L 428.549403 454.301521 
L 473.388892 454.439367 
L 518.228381 454.227586 
" clip-path="url(#pa00fb52560)" style="fill: none; stroke: #17becf; stroke-width: 2; stroke-linecap: square"/>
    <defs>
     <path id="mc55b99cbd9" d="M 0 3 
C 0.795609 3 1.55874 2.683901 2.12132 2.12132 
C 2.683901 1.55874 3 0.795609 3 0 
C 3 -0.795609 2.683901 -1.55874 2.12132 -2.12132 
C 1.55874 -2.683901 0.795609 -3 0 -3 
C -0.795609 -3 -1.55874 -2.683901 -2.12132 -2.12132 
C -2.683901 -1.55874 -3 -0.795609 -3 0 
C -3 0.795609 -2.683901 1.55874 -2.12132 2.12132 
C -1.55874 2.683901 -0.795609 3 0 3 
z
" style="stroke: #17becf"/>
    </defs>
    <g clip-path="url(#pa00fb52560)">
     <use xlink:href="#mc55b99cbd9" x="69.833494" y="453.898051" style="fill: #17becf; stroke: #17becf"/>
     <use xlink:href="#mc55b99cbd9" x="114.672983" y="454.541527" style="fill: #17becf; stroke: #17becf"/>
     <use xlink:href="#mc55b99cbd9" x="204.35196" y="454.112975" style="fill: #17becf; stroke: #17becf"/>
     <use xlink:href="#mc55b99cbd9" x="249.191449" y="454.232502" style="fill: #17becf; stroke: #17becf"/>
     <use xlink:href="#mc55b99cbd9" x="294.030937" y="454.497844" style="fill: #17becf; stroke: #17becf"/>
     <use xlink:href="#mc55b99cbd9" x="338.870426" y="454.508995" style="fill: #17becf; stroke: #17becf"/>
     <use xlink:href="#mc55b99cbd9" x="383.709915" y="454.188697" style="fill: #17becf; stroke: #17becf"/>
     <use xlink:href="#mc55b99cbd9" x="428.549403" y="454.301521" style="fill: #17becf; stroke: #17becf"/>
     <use xlink:href="#mc55b99cbd9" x="473.388892" y="454.439367" style="fill: #17becf; stroke: #17becf"/>
     <use xlink:href="#mc55b99cbd9" x="518.228381" y="454.227586" style="fill: #17becf; stroke: #17becf"/>
    </g>
   </g>
   <g id="patch_3">
    <path d="M 47.41375 529.308125 
L 47.41375 23.837812 
" style="fill: none; stroke: #000000; stroke-width: 0.8; stroke-linejoin: miter; stroke-linecap: square"/>
   </g>
   <g id="patch_4">
    <path d="M 540.648125 529.308125 
L 540.648125 23.837812 
" style="fill: none; stroke: #000000; stroke-width: 0.8; stroke-linejoin: miter; stroke-linecap: square"/>
   </g>
   <g id="patch_5">
    <path d="M 47.41375 529.308125 
L 540.648125 529.308125 
" style="fill: none; stroke: #000000; stroke-width: 0.8; stroke-linejoin: miter; stroke-linecap: square"/>
   </g>
   <g id="patch_6">
    <path d="M 47.41375 23.837812 
L 540.648125 23.837812 
" style="fill: none; stroke: #000000; stroke-width: 0.8; stroke-linejoin: miter; stroke-linecap: square"/>
   </g>
   <g id="text_13">
    <text style="font: 700 14px 'DejaVu Sans', 'Bitstream Vera Sans', 'Computer Modern Sans Serif', 'Lucida Grande', 'Verdana', 'Geneva', 'Lucid', 'Arial', 'Helvetica', 'Avant Garde', sans-serif; text-anchor: middle" x="294.030937" y="17.837813" transform="rotate(-0 294.030937 17.837813)">Coroutine Task Chaining - Performance Trend</text>
   </g>
   <g id="legend_1">
    <g id="patch_7">
     <path d="M 572.309844 181.400313 
L 838.781719 181.400313 
Q 840.781719 181.400313 840.781719 179.400313 
L 840.781719 30.837813 
Q 840.781719 28.837813 838.781719 28.837813 
L 572.309844 28.837813 
Q 570.309844 28.837813 570.309844 30.837813 
L 570.309844 179.400313 
Q 570.309844 181.400313 572.309844 181.400313 
z
" style="fill: #ffffff; opacity: 0.8; stroke: #cccccc; stroke-linejoin: miter"/>
    </g>
    <g id="line2d_56">
     <path d="M 574.309844 36.93625 
L 584.309844 36.93625 
L 594.309844 36.93625 
" style="fill: none; stroke: #1f77b4; stroke-width: 2; stroke-linecap: square"/>
     <g>
      <use xlink:href="#mffdc4566de" x="584.309844" y="36.93625" style="fill: #1f77b4; stroke: #1f77b4"/>
     </g>
    </g>
    <g id="text_14">
     <text style="font: 10px 'DejaVu Sans', 'Bitstream Vera Sans', 'Computer Modern Sans Serif', 'Lucida Grande', 'Verdana', 'Geneva', 'Lucid', 'Arial', 'Helvetica', 'Avant Garde', sans-serif; text-anchor: start" x="602.309844" y="40.43625" transform="rotate(-0 602.309844 40.43625)">gcc-14.2 - TaskChaining_Coroutines_V1</text>
    </g>
    <g id="line2d_57">
     <path d="M 574.309844 51.8925 
L 584.309844 51.8925 
L 594.309844 51.8925 
" style="fill: none; stroke: #ff7f0e; stroke-width: 2; stroke-linecap: square"/>
     <g>
      <use xlink:href="#ma5c992d3e5" x="584.309844" y="51.8925" style="fill: #ff7f0e; stroke: #ff7f0e"/>
     </g>
    </g>
    <g id="text_15">
     <text style="font: 10px 'DejaVu Sans', 'Bitstream Vera Sans', 'Computer Modern Sans Serif', 'Lucida Grande', 'Verdana', 'Geneva', 'Lucid', 'Arial', 'Helvetica', 'Avant Garde', sans-serif; text-anchor: start" x="602.309844" y="55.3925" transform="rotate(-0 602.309844 55.3925)">gcc-14.2 - TaskChaining_NestedSubmission_V1</text>
    </g>
    <g id="line2d_58">
     <path d="M 574.309844 66.84875 
L 584.309844 66.84875 
L 594.309844 66.84875 
" style="fill: none; stroke: #2ca02c; stroke-width: 2; stroke-linecap: square"/>
     <g>
      <use xlink:href="#m6d9a211968" x="584.309844" y="66.84875" style="fill: #2ca02c; stroke: #2ca02c"/>
     </g>
    </g>
    <g id="text_16">
     <text style="font: 10px 'DejaVu Sans', 'Bitstream Vera Sans', 'Computer Modern Sans Serif', 'Lucida Grande', 'Verdana', 'Geneva', 'Lucid', 'Arial', 'Helvetica', 'Avant Garde', sans-serif; text-anchor: start" x="602.309844" y="70.34875" transform="rotate(-0 602.309844 70.34875)">gcc-14.2 - TaskChaining_Coroutines_V2</text>
    </g>
    <g id="line2d_59">
     <path d="M 574.309844 81.805 
L 584.309844 81.805 
L 594.309844 81.805 
" style="fill: none; stroke: #d62728; stroke-width: 2; stroke-linecap: square"/>
     <g>
      <use xlink:href="#m6bf9e51656" x="584.309844" y="81.805" style="fill: #d62728; stroke: #d62728"/>
     </g>
    </g>
    <g id="text_17">
     <text style="font: 10px 'DejaVu Sans', 'Bitstream Vera Sans', 'Computer Modern Sans Serif', 'Lucida Grande', 'Verdana', 'Geneva', 'Lucid', 'Arial', 'Helvetica', 'Avant Garde', sans-serif; text-anchor: start" x="602.309844" y="85.305" transform="rotate(-0 602.309844 85.305)">gcc-14.2 - TaskChaining_NestedSubmission_V2</text>
    </g>
    <g id="line2d_60">
     <path d="M 574.309844 96.76125 
L 584.309844 96.76125 
L 594.309844 96.76125 
" style="fill: none; stroke: #9467bd; stroke-width: 2; stroke-linecap: square"/>
     <g>
      <use xlink:href="#m87c4b44aef" x="584.309844" y="96.76125" style="fill: #9467bd; stroke: #9467bd"/>
     </g>
    </g>
    <g id="text_18">
     <text style="font: 10px 'DejaVu Sans', 'Bitstream Vera Sans', 'Computer Modern Sans Serif', 'Lucida Grande', 'Verdana', 'Geneva', 'Lucid', 'Arial', 'Helvetica', 'Avant Garde', sans-serif; text-anchor: start" x="602.309844" y="100.26125" transform="rotate(-0 602.309844 100.26125)">gcc-14.2 - TaskChaining_TBB_Equivalent</text>
    </g>
    <g id="line2d_61">
     <path d="M 574.309844 111.7175 
L 584.309844 111.7175 
L 594.309844 111.7175 
" style="fill: none; stroke: #8c564b; stroke-width: 2; stroke-linecap: square"/>
     <g>
      <use xlink:href="#mb4925be095" x="584.309844" y="111.7175" style="fill: #8c564b; stroke: #8c564b"/>
     </g>
    </g>
    <g id="text_19">
     <text style="font: 10px 'DejaVu Sans', 'Bitstream Vera Sans', 'Computer Modern Sans Serif', 'Lucida Grande', 'Verdana', 'Geneva', 'Lucid', 'Arial', 'Helvetica', 'Avant Garde', sans-serif; text-anchor: start" x="602.309844" y="115.2175" transform="rotate(-0 602.309844 115.2175)">gcc-4.2 - TaskChaining_Coroutines_V1</text>
    </g>
    <g id="line2d_62">
     <path d="M 574.309844 126.67375 
L 584.309844 126.67375 
L 594.309844 126.67375 
" style="fill: none; stroke: #e377c2; stroke-width: 2; stroke-linecap: square"/>
     <g>
      <use xlink:href="#m4c2129f4c1" x="584.309844" y="126.67375" style="fill: #e377c2; stroke: #e377c2"/>
     </g>
    </g>
    <g id="text_20">
     <text style="font: 10px 'DejaVu Sans', 'Bitstream Vera Sans', 'Computer Modern Sans Serif', 'Lucida Grande', 'Verdana', 'Geneva', 'Lucid', 'Arial', 'Helvetica', 'Avant Garde', sans-serif; text-anchor: start" x="602.309844" y="130.17375" transform="rotate(-0 602.309844 130.17375)">gcc-4.2 - TaskChaining_NestedSubmission_V1</text>
    </g>
    <g id="line2d_63">
     <path d="M 574.309844 141.63 
L 584.309844 141.63 
L 594.309844 141.63 
" style="fill: none; stroke: #7f7f7f; stroke-width: 2; stroke-linecap: square"/>
     <g>
      <use xlink:href="#mc2593afe65" x="584.309844" y="141.63" style="fill: #7f7f7f; stroke: #7f7f7f"/>
     </g>
    </g>
    <g id="text_21">
     <text style="font: 10px 'DejaVu Sans', 'Bitstream Vera Sans', 'Computer Modern Sans Serif', 'Lucida Grande', 'Verdana', 'Geneva', 'Lucid', 'Arial', 'Helvetica', 'Avant Garde', sans-serif; text-anchor: start" x="602.309844" y="145.13" transform="rotate(-0 602.309844 145.13)">gcc-4.2 - TaskChaining_Coroutines_V2</text>
    </g>
    <g id="line2d_64">
     <path d="M 574.309844 156.58625 
L 584.309844 156.58625 
L 594.309844 156.58625 
" style="fill: none; stroke: #bcbd22; stroke-width: 2; stroke-linecap: square"/>
     <g>
      <use xlink:href="#m58bb4057d8" x="584.309844" y="156.58625" style="fill: #bcbd22; stroke: #bcbd22"/>
     </g>
    </g>
    <g id="text_22">
     <text style="font: 10px 'DejaVu Sans', 'Bitstream Vera Sans', 'Computer Modern Sans Serif', 'Lucida Grande', 'Verdana', 'Geneva', 'Lucid', 'Arial', 'Helvetica', 'Avant Garde', sans-serif; text-anchor: start" x="602.309844" y="160.08625" transform="rotate(-0 602.309844 160.08625)">gcc-4.2 - TaskChaining_NestedSubmission_V2</text>
    </g>
    <g id="line2d_65">
     <path d="M 574.309844 171.5425 
L 584.309844 171.5425 
L 594.309844 171.5425 
" style="fill: none; stroke: #17becf; stroke-width: 2; stroke-linecap: square"/>
     <g>
      <use xlink:href="#mc55b99cbd9" x="584.309844" y="171.5425" style="fill: #17becf; stroke: #17becf"/>
     </g>
    </g>
    <g id="text_23">
     <text style="font: 10px 'DejaVu Sans', 'Bitstream Vera Sans', 'Computer Modern Sans Serif', 'Lucida Grande', 'Verdana', 'Geneva', 'Lucid', 'Arial', 'Helvetica', 'Avant Garde', sans-serif; text-anchor: start" x="602.309844" y="175.0425" transform="rotate(-0 602.309844 175.0425)">gcc-4.2 - TaskChaining_TBB_Equivalent</text>
    </g>
   </g>
  </g>
 </g>
 <defs>
  <clipPath id="pa00fb52560">
   <rect x="47.41375" y="23.837813" width="493.234375" height="505.470313"/>
  </clipPath>
 </defs>
</svg>
