<?xml version="1.0" encoding="utf-8" standalone="no"?>
<!DOCTYPE svg PUBLIC "-//W3C//DTD SVG 1.1//EN"
  "http://www.w3.org/Graphics/SVG/1.1/DTD/svg11.dtd">
<svg xmlns:xlink="http://www.w3.org/1999/xlink" width="855.889141pt" height="568.8pt" viewBox="0 0 855.889141 568.8" xmlns="http://www.w3.org/2000/svg" version="1.1">
 <metadata>
  <rdf:RDF xmlns:dc="http://purl.org/dc/elements/1.1/" xmlns:cc="http://creativecommons.org/ns#" xmlns:rdf="http://www.w3.org/1999/02/22-rdf-syntax-ns#">
   <cc:Work>
    <dc:type rdf:resource="http://purl.org/dc/dcmitype/StillImage"/>
    <dc:date>2025-09-02T22:19:08.829574</dc:date>
    <dc:format>image/svg+xml</dc:format>
    <dc:creator>
     <cc:Agent>
      <dc:title>Matplotlib v3.9.4, https://matplotlib.org/</dc:title>
     </cc:Agent>
    </dc:creator>
   </cc:Work>
  </rdf:RDF>
 </metadata>
 <defs>
  <style type="text/css">*{stroke-linejoin: round; stroke-linecap: butt}</style>
 </defs>
 <g id="figure_1">
  <g id="patch_1">
   <path d="M 0 568.8 
L 855.889141 568.8 
L 855.889141 0 
L 0 0 
z
" style="fill: #ffffff"/>
  </g>
  <g id="axes_1">
   <g id="patch_2">
    <path d="M 80.31375 529.308125 
L 731.696562 529.308125 
L 731.696562 23.837812 
L 80.31375 23.837812 
z
" style="fill: #ffffff"/>
   </g>
   <g id="matplotlib.axis_1">
    <g id="xtick_1">
     <g id="line2d_1">
      <path d="M 97.322779 529.308125 
L 97.322779 23.837812 
" clip-path="url(#p7c564f069b)" style="fill: none; stroke: #b0b0b0; stroke-opacity: 0.3; stroke-width: 0.8; stroke-linecap: square"/>
     </g>
     <g id="line2d_2">
      <defs>
       <path id="m56acd3eded" d="M 0 0 
L 0 3.5 
" style="stroke: #000000; stroke-width: 0.8"/>
      </defs>
      <g>
       <use xlink:href="#m56acd3eded" x="97.322779" y="529.308125" style="stroke: #000000; stroke-width: 0.8"/>
      </g>
     </g>
     <g id="text_1">
      <text style="font: 10px 'DejaVu Sans', 'Bitstream Vera Sans', 'Computer Modern Sans Serif', 'Lucida Grande', 'Verdana', 'Geneva', 'Lucid', 'Arial', 'Helvetica', 'Avant Garde', sans-serif; text-anchor: middle" x="97.322779" y="543.906563" transform="rotate(-0 97.322779 543.906563)">70</text>
     </g>
    </g>
    <g id="xtick_2">
     <g id="line2d_3">
      <path d="M 223.315586 529.308125 
L 223.315586 23.837812 
" clip-path="url(#p7c564f069b)" style="fill: none; stroke: #b0b0b0; stroke-opacity: 0.3; stroke-width: 0.8; stroke-linecap: square"/>
     </g>
     <g id="line2d_4">
      <g>
       <use xlink:href="#m56acd3eded" x="223.315586" y="529.308125" style="stroke: #000000; stroke-width: 0.8"/>
      </g>
     </g>
     <g id="text_2">
      <text style="font: 10px 'DejaVu Sans', 'Bitstream Vera Sans', 'Computer Modern Sans Serif', 'Lucida Grande', 'Verdana', 'Geneva', 'Lucid', 'Arial', 'Helvetica', 'Avant Garde', sans-serif; text-anchor: middle" x="223.315586" y="543.906563" transform="rotate(-0 223.315586 543.906563)">80</text>
     </g>
    </g>
    <g id="xtick_3">
     <g id="line2d_5">
      <path d="M 349.308393 529.308125 
L 349.308393 23.837812 
" clip-path="url(#p7c564f069b)" style="fill: none; stroke: #b0b0b0; stroke-opacity: 0.3; stroke-width: 0.8; stroke-linecap: square"/>
     </g>
     <g id="line2d_6">
      <g>
       <use xlink:href="#m56acd3eded" x="349.308393" y="529.308125" style="stroke: #000000; stroke-width: 0.8"/>
      </g>
     </g>
     <g id="text_3">
      <text style="font: 10px 'DejaVu Sans', 'Bitstream Vera Sans', 'Computer Modern Sans Serif', 'Lucida Grande', 'Verdana', 'Geneva', 'Lucid', 'Arial', 'Helvetica', 'Avant Garde', sans-serif; text-anchor: middle" x="349.308393" y="543.906563" transform="rotate(-0 349.308393 543.906563)">90</text>
     </g>
    </g>
    <g id="xtick_4">
     <g id="line2d_7">
      <path d="M 475.3012 529.308125 
L 475.3012 23.837812 
" clip-path="url(#p7c564f069b)" style="fill: none; stroke: #b0b0b0; stroke-opacity: 0.3; stroke-width: 0.8; stroke-linecap: square"/>
     </g>
     <g id="line2d_8">
      <g>
       <use xlink:href="#m56acd3eded" x="475.3012" y="529.308125" style="stroke: #000000; stroke-width: 0.8"/>
      </g>
     </g>
     <g id="text_4">
      <text style="font: 10px 'DejaVu Sans', 'Bitstream Vera Sans', 'Computer Modern Sans Serif', 'Lucida Grande', 'Verdana', 'Geneva', 'Lucid', 'Arial', 'Helvetica', 'Avant Garde', sans-serif; text-anchor: middle" x="475.3012" y="543.906563" transform="rotate(-0 475.3012 543.906563)">100</text>
     </g>
    </g>
    <g id="xtick_5">
     <g id="line2d_9">
      <path d="M 601.294007 529.308125 
L 601.294007 23.837812 
" clip-path="url(#p7c564f069b)" style="fill: none; stroke: #b0b0b0; stroke-opacity: 0.3; stroke-width: 0.8; stroke-linecap: square"/>
     </g>
     <g id="line2d_10">
      <g>
       <use xlink:href="#m56acd3eded" x="601.294007" y="529.308125" style="stroke: #000000; stroke-width: 0.8"/>
      </g>
     </g>
     <g id="text_5">
      <text style="font: 10px 'DejaVu Sans', 'Bitstream Vera Sans', 'Computer Modern Sans Serif', 'Lucida Grande', 'Verdana', 'Geneva', 'Lucid', 'Arial', 'Helvetica', 'Avant Garde', sans-serif; text-anchor: middle" x="601.294007" y="543.906563" transform="rotate(-0 601.294007 543.906563)">110</text>
     </g>
    </g>
    <g id="xtick_6">
     <g id="line2d_11">
      <path d="M 727.286814 529.308125 
L 727.286814 23.837812 
" clip-path="url(#p7c564f069b)" style="fill: none; stroke: #b0b0b0; stroke-opacity: 0.3; stroke-width: 0.8; stroke-linecap: square"/>
     </g>
     <g id="line2d_12">
      <g>
       <use xlink:href="#m56acd3eded" x="727.286814" y="529.308125" style="stroke: #000000; stroke-width: 0.8"/>
      </g>
     </g>
     <g id="text_6">
      <text style="font: 10px 'DejaVu Sans', 'Bitstream Vera Sans', 'Computer Modern Sans Serif', 'Lucida Grande', 'Verdana', 'Geneva', 'Lucid', 'Arial', 'Helvetica', 'Avant Garde', sans-serif; text-anchor: middle" x="727.286814" y="543.906563" transform="rotate(-0 727.286814 543.906563)">120</text>
     </g>
    </g>
    <g id="text_7">
     <text style="font: 12px 'DejaVu Sans', 'Bitstream Vera Sans', 'Computer Modern Sans Serif', 'Lucida Grande', 'Verdana', 'Geneva', 'Lucid', 'Arial', 'Helvetica', 'Avant Garde', sans-serif; text-anchor: middle" x="406.005156" y="559.104375" transform="rotate(-0 406.005156 559.104375)">Build Number</text>
    </g>
   </g>
   <g id="matplotlib.axis_2">
    <g id="ytick_1">
     <g id="line2d_13">
      <defs>
       <path id="mbb8ac300f2" d="M 0 0 
L -2 0 
" style="stroke: #000000; stroke-width: 0.6"/>
      </defs>
      <g>
       <use xlink:href="#mbb8ac300f2" x="80.31375" y="498.484932" style="stroke: #000000; stroke-width: 0.6"/>
      </g>
     </g>
     <g id="text_8">
      <!-- $\mathdefault{1.9\times10^{2}}$ -->
      <g transform="translate(29.11375 502.28415)">
       <text>
        <tspan style="font: 10px 'DejaVu Sans'" x="0 6.362305 9.541016 17.851562 28.178711 34.541016" y="-0.9765625">1.9×10</tspan>
        <tspan style="font: 7px 'DejaVu Sans'" x="40.999023" y="-4.8046875">2</tspan>
       </text>
      </g>
     </g>
    </g>
    <g id="ytick_2">
     <g id="line2d_14">
      <g>
       <use xlink:href="#mbb8ac300f2" x="80.31375" y="426.866594" style="stroke: #000000; stroke-width: 0.6"/>
      </g>
     </g>
     <g id="text_9">
      <!-- $\mathdefault{1.95\times10^{2}}$ -->
      <g transform="translate(22.81375 430.665812)">
       <text>
        <tspan style="font: 10px 'DejaVu Sans'" x="0 6.362305 9.541016 15.90332 24.213867 34.541016 40.90332" y="-0.9765625">1.95×10</tspan>
        <tspan style="font: 7px 'DejaVu Sans'" x="47.361328" y="-4.8046875">2</tspan>
       </text>
      </g>
     </g>
    </g>
    <g id="ytick_3">
     <g id="line2d_15">
      <g>
       <use xlink:href="#mbb8ac300f2" x="80.31375" y="357.061574" style="stroke: #000000; stroke-width: 0.6"/>
      </g>
     </g>
     <g id="text_10">
      <!-- $\mathdefault{2\times10^{2}}$ -->
      <g transform="translate(38.71375 360.860793)">
       <text>
        <tspan style="font: 10px 'DejaVu Sans'" x="0 8.310547 18.637695 25" y="-0.9765625">2×10</tspan>
        <tspan style="font: 7px 'DejaVu Sans'" x="31.458008" y="-4.8046875">2</tspan>
       </text>
      </g>
     </g>
    </g>
    <g id="ytick_4">
     <g id="line2d_16">
      <g>
       <use xlink:href="#mbb8ac300f2" x="80.31375" y="288.980313" style="stroke: #000000; stroke-width: 0.6"/>
      </g>
     </g>
     <g id="text_11">
      <!-- $\mathdefault{2.05\times10^{2}}$ -->
      <g transform="translate(22.81375 292.779532)">
       <text>
        <tspan style="font: 10px 'DejaVu Sans'" x="0 6.362305 9.541016 15.90332 24.213867 34.541016 40.90332" y="-0.9765625">2.05×10</tspan>
        <tspan style="font: 7px 'DejaVu Sans'" x="47.361328" y="-4.8046875">2</tspan>
       </text>
      </g>
     </g>
    </g>
    <g id="ytick_5">
     <g id="line2d_17">
      <g>
       <use xlink:href="#mbb8ac300f2" x="80.31375" y="222.539725" style="stroke: #000000; stroke-width: 0.6"/>
      </g>
     </g>
     <g id="text_12">
      <!-- $\mathdefault{2.1\times10^{2}}$ -->
      <g transform="translate(29.11375 226.338944)">
       <text>
        <tspan style="font: 10px 'DejaVu Sans'" x="0 6.362305 9.541016 17.851562 28.178711 34.541016" y="-0.9765625">2.1×10</tspan>
        <tspan style="font: 7px 'DejaVu Sans'" x="40.999023" y="-4.8046875">2</tspan>
       </text>
      </g>
     </g>
    </g>
    <g id="ytick_6">
     <g id="line2d_18">
      <g>
       <use xlink:href="#mbb8ac300f2" x="80.31375" y="157.662591" style="stroke: #000000; stroke-width: 0.6"/>
      </g>
     </g>
     <g id="text_13">
      <!-- $\mathdefault{2.15\times10^{2}}$ -->
      <g transform="translate(22.81375 161.461809)">
       <text>
        <tspan style="font: 10px 'DejaVu Sans'" x="0 6.362305 9.541016 15.90332 24.213867 34.541016 40.90332" y="-0.9765625">2.15×10</tspan>
        <tspan style="font: 7px 'DejaVu Sans'" x="47.361328" y="-4.8046875">2</tspan>
       </text>
      </g>
     </g>
    </g>
    <g id="ytick_7">
     <g id="line2d_19">
      <g>
       <use xlink:href="#mbb8ac300f2" x="80.31375" y="94.277018" style="stroke: #000000; stroke-width: 0.6"/>
      </g>
     </g>
     <g id="text_14">
      <!-- $\mathdefault{2.2\times10^{2}}$ -->
      <g transform="translate(29.71375 98.076236)">
       <text>
        <tspan style="font: 10px 'DejaVu Sans'" x="0 6.362305 9.041016 17.351562 27.678711 34.041016" y="-0.9765625">2.2×10</tspan>
        <tspan style="font: 7px 'DejaVu Sans'" x="40.499023" y="-4.8046875">2</tspan>
       </text>
      </g>
     </g>
    </g>
    <g id="ytick_8">
     <g id="line2d_20">
      <g>
       <use xlink:href="#mbb8ac300f2" x="80.31375" y="32.315961" style="stroke: #000000; stroke-width: 0.6"/>
      </g>
     </g>
     <g id="text_15">
      <!-- $\mathdefault{2.25\times10^{2}}$ -->
      <g transform="translate(23.31375 36.11518)">
       <text>
        <tspan style="font: 10px 'DejaVu Sans'" x="0 6.362305 9.041016 15.40332 23.713867 34.041016 40.40332" y="-0.9765625">2.25×10</tspan>
        <tspan style="font: 7px 'DejaVu Sans'" x="46.861328" y="-4.8046875">2</tspan>
       </text>
      </g>
     </g>
    </g>
    <g id="text_16">
     <text style="font: 12px 'DejaVu Sans', 'Bitstream Vera Sans', 'Computer Modern Sans Serif', 'Lucida Grande', 'Verdana', 'Geneva', 'Lucid', 'Arial', 'Helvetica', 'Avant Garde', sans-serif; text-anchor: middle" x="16.318125" y="276.572969" transform="rotate(-90 16.318125 276.572969)">Median Elapsed Time (nanoseconds)</text>
    </g>
   </g>
   <g id="line2d_21">
    <path d="M 109.92206 296.738053 
L 122.52134 269.013009 
L 135.120621 454.43407 
L 147.719902 275.875447 
L 160.319182 285.217018 
L 172.918463 116.928317 
L 185.517744 125.660895 
L 198.117025 451.579285 
L 210.716305 286.426088 
L 223.315586 433.094887 
L 235.914867 107.9714 
L 248.514147 289.114811 
L 261.113428 295.848113 
L 286.31199 283.739985 
L 298.91127 294.500137 
L 324.109832 506.332202 
L 336.709112 82.89596 
L 349.308393 62.874615 
L 361.907674 290.594728 
L 374.506954 438.769207 
L 399.705516 113.013971 
L 412.304797 297.331649 
L 424.904077 279.715729 
L 437.503358 120.595162 
L 462.701919 300.031033 
L 475.3012 474.64462 
L 487.900481 443.174851 
L 500.499762 289.114811 
L 513.099042 291.940796 
L 525.698323 116.801961 
L 538.297604 235.550109 
L 550.896884 290.594728 
L 576.095446 301.246619 
L 588.694726 100.424794 
L 601.294007 100.424794 
L 626.492569 91.646447 
L 664.290411 274.359176 
L 676.889691 285.217018 
L 689.488972 450.153001 
L 702.088253 450.153001 
" clip-path="url(#p7c564f069b)" style="fill: none; stroke: #1f77b4; stroke-width: 2; stroke-linecap: square"/>
    <defs>
     <path id="mc6917f0f2c" d="M 0 3 
C 0.795609 3 1.55874 2.683901 2.12132 2.12132 
C 2.683901 1.55874 3 0.795609 3 0 
C 3 -0.795609 2.683901 -1.55874 2.12132 -2.12132 
C 1.55874 -2.683901 0.795609 -3 0 -3 
C -0.795609 -3 -1.55874 -2.683901 -2.12132 -2.12132 
C -2.683901 -1.55874 -3 -0.795609 -3 0 
C -3 0.795609 -2.683901 1.55874 -2.12132 2.12132 
C -1.55874 2.683901 -0.795609 3 0 3 
z
" style="stroke: #1f77b4"/>
    </defs>
    <g clip-path="url(#p7c564f069b)">
     <use xlink:href="#mc6917f0f2c" x="109.92206" y="296.738053" style="fill: #1f77b4; stroke: #1f77b4"/>
     <use xlink:href="#mc6917f0f2c" x="122.52134" y="269.013009" style="fill: #1f77b4; stroke: #1f77b4"/>
     <use xlink:href="#mc6917f0f2c" x="135.120621" y="454.43407" style="fill: #1f77b4; stroke: #1f77b4"/>
     <use xlink:href="#mc6917f0f2c" x="147.719902" y="275.875447" style="fill: #1f77b4; stroke: #1f77b4"/>
     <use xlink:href="#mc6917f0f2c" x="160.319182" y="285.217018" style="fill: #1f77b4; stroke: #1f77b4"/>
     <use xlink:href="#mc6917f0f2c" x="172.918463" y="116.928317" style="fill: #1f77b4; stroke: #1f77b4"/>
     <use xlink:href="#mc6917f0f2c" x="185.517744" y="125.660895" style="fill: #1f77b4; stroke: #1f77b4"/>
     <use xlink:href="#mc6917f0f2c" x="198.117025" y="451.579285" style="fill: #1f77b4; stroke: #1f77b4"/>
     <use xlink:href="#mc6917f0f2c" x="210.716305" y="286.426088" style="fill: #1f77b4; stroke: #1f77b4"/>
     <use xlink:href="#mc6917f0f2c" x="223.315586" y="433.094887" style="fill: #1f77b4; stroke: #1f77b4"/>
     <use xlink:href="#mc6917f0f2c" x="235.914867" y="107.9714" style="fill: #1f77b4; stroke: #1f77b4"/>
     <use xlink:href="#mc6917f0f2c" x="248.514147" y="289.114811" style="fill: #1f77b4; stroke: #1f77b4"/>
     <use xlink:href="#mc6917f0f2c" x="261.113428" y="295.848113" style="fill: #1f77b4; stroke: #1f77b4"/>
     <use xlink:href="#mc6917f0f2c" x="286.31199" y="283.739985" style="fill: #1f77b4; stroke: #1f77b4"/>
     <use xlink:href="#mc6917f0f2c" x="298.91127" y="294.500137" style="fill: #1f77b4; stroke: #1f77b4"/>
     <use xlink:href="#mc6917f0f2c" x="324.109832" y="506.332202" style="fill: #1f77b4; stroke: #1f77b4"/>
     <use xlink:href="#mc6917f0f2c" x="336.709112" y="82.89596" style="fill: #1f77b4; stroke: #1f77b4"/>
     <use xlink:href="#mc6917f0f2c" x="349.308393" y="62.874615" style="fill: #1f77b4; stroke: #1f77b4"/>
     <use xlink:href="#mc6917f0f2c" x="361.907674" y="290.594728" style="fill: #1f77b4; stroke: #1f77b4"/>
     <use xlink:href="#mc6917f0f2c" x="374.506954" y="438.769207" style="fill: #1f77b4; stroke: #1f77b4"/>
     <use xlink:href="#mc6917f0f2c" x="399.705516" y="113.013971" style="fill: #1f77b4; stroke: #1f77b4"/>
     <use xlink:href="#mc6917f0f2c" x="412.304797" y="297.331649" style="fill: #1f77b4; stroke: #1f77b4"/>
     <use xlink:href="#mc6917f0f2c" x="424.904077" y="279.715729" style="fill: #1f77b4; stroke: #1f77b4"/>
     <use xlink:href="#mc6917f0f2c" x="437.503358" y="120.595162" style="fill: #1f77b4; stroke: #1f77b4"/>
     <use xlink:href="#mc6917f0f2c" x="462.701919" y="300.031033" style="fill: #1f77b4; stroke: #1f77b4"/>
     <use xlink:href="#mc6917f0f2c" x="475.3012" y="474.64462" style="fill: #1f77b4; stroke: #1f77b4"/>
     <use xlink:href="#mc6917f0f2c" x="487.900481" y="443.174851" style="fill: #1f77b4; stroke: #1f77b4"/>
     <use xlink:href="#mc6917f0f2c" x="500.499762" y="289.114811" style="fill: #1f77b4; stroke: #1f77b4"/>
     <use xlink:href="#mc6917f0f2c" x="513.099042" y="291.940796" style="fill: #1f77b4; stroke: #1f77b4"/>
     <use xlink:href="#mc6917f0f2c" x="525.698323" y="116.801961" style="fill: #1f77b4; stroke: #1f77b4"/>
     <use xlink:href="#mc6917f0f2c" x="538.297604" y="235.550109" style="fill: #1f77b4; stroke: #1f77b4"/>
     <use xlink:href="#mc6917f0f2c" x="550.896884" y="290.594728" style="fill: #1f77b4; stroke: #1f77b4"/>
     <use xlink:href="#mc6917f0f2c" x="576.095446" y="301.246619" style="fill: #1f77b4; stroke: #1f77b4"/>
     <use xlink:href="#mc6917f0f2c" x="588.694726" y="100.424794" style="fill: #1f77b4; stroke: #1f77b4"/>
     <use xlink:href="#mc6917f0f2c" x="601.294007" y="100.424794" style="fill: #1f77b4; stroke: #1f77b4"/>
     <use xlink:href="#mc6917f0f2c" x="626.492569" y="91.646447" style="fill: #1f77b4; stroke: #1f77b4"/>
     <use xlink:href="#mc6917f0f2c" x="664.290411" y="274.359176" style="fill: #1f77b4; stroke: #1f77b4"/>
     <use xlink:href="#mc6917f0f2c" x="676.889691" y="285.217018" style="fill: #1f77b4; stroke: #1f77b4"/>
     <use xlink:href="#mc6917f0f2c" x="689.488972" y="450.153001" style="fill: #1f77b4; stroke: #1f77b4"/>
     <use xlink:href="#mc6917f0f2c" x="702.088253" y="450.153001" style="fill: #1f77b4; stroke: #1f77b4"/>
    </g>
   </g>
   <g id="line2d_22">
    <path d="M 109.92206 287.904562 
L 122.52134 268.772299 
L 135.120621 279.849776 
L 147.719902 110.491533 
L 160.319182 249.056705 
L 172.918463 408.967986 
L 185.517744 439.517676 
L 198.117025 249.056705 
L 210.716305 273.844596 
L 223.315586 66.718372 
L 235.914867 46.813736 
L 248.514147 417.409543 
L 261.113428 89.018384 
L 273.712709 302.733063 
L 286.31199 410.373119 
L 298.91127 430.628028 
L 324.109832 92.773527 
L 336.709112 443.032623 
L 349.308393 95.405174 
L 361.907674 259.815166 
L 374.506954 428.705307 
L 387.106235 294.634905 
L 399.705516 416.000821 
L 412.304797 453.006308 
L 424.904077 254.364278 
L 437.503358 281.190608 
L 462.701919 250.543933 
L 475.3012 447.302643 
L 487.900481 97.913841 
L 500.499762 79.154237 
L 513.099042 265.010176 
L 525.698323 427.290803 
L 538.297604 71.685989 
L 550.896884 390.766131 
L 576.095446 300.031033 
L 588.694726 392.162016 
L 601.294007 289.249316 
L 613.893288 255.226785 
L 626.492569 430.120537 
L 651.69113 70.443245 
L 664.290411 410.373119 
L 676.889691 287.904562 
L 689.488972 414.733586 
L 702.088253 86.517793 
" clip-path="url(#p7c564f069b)" style="fill: none; stroke: #ff7f0e; stroke-width: 2; stroke-linecap: square"/>
    <defs>
     <path id="mc8d7bd569e" d="M 0 3 
C 0.795609 3 1.55874 2.683901 2.12132 2.12132 
C 2.683901 1.55874 3 0.795609 3 0 
C 3 -0.795609 2.683901 -1.55874 2.12132 -2.12132 
C 1.55874 -2.683901 0.795609 -3 0 -3 
C -0.795609 -3 -1.55874 -2.683901 -2.12132 -2.12132 
C -2.683901 -1.55874 -3 -0.795609 -3 0 
C -3 0.795609 -2.683901 1.55874 -2.12132 2.12132 
C -1.55874 2.683901 -0.795609 3 0 3 
z
" style="stroke: #ff7f0e"/>
    </defs>
    <g clip-path="url(#p7c564f069b)">
     <use xlink:href="#mc8d7bd569e" x="109.92206" y="287.904562" style="fill: #ff7f0e; stroke: #ff7f0e"/>
     <use xlink:href="#mc8d7bd569e" x="122.52134" y="268.772299" style="fill: #ff7f0e; stroke: #ff7f0e"/>
     <use xlink:href="#mc8d7bd569e" x="135.120621" y="279.849776" style="fill: #ff7f0e; stroke: #ff7f0e"/>
     <use xlink:href="#mc8d7bd569e" x="147.719902" y="110.491533" style="fill: #ff7f0e; stroke: #ff7f0e"/>
     <use xlink:href="#mc8d7bd569e" x="160.319182" y="249.056705" style="fill: #ff7f0e; stroke: #ff7f0e"/>
     <use xlink:href="#mc8d7bd569e" x="172.918463" y="408.967986" style="fill: #ff7f0e; stroke: #ff7f0e"/>
     <use xlink:href="#mc8d7bd569e" x="185.517744" y="439.517676" style="fill: #ff7f0e; stroke: #ff7f0e"/>
     <use xlink:href="#mc8d7bd569e" x="198.117025" y="249.056705" style="fill: #ff7f0e; stroke: #ff7f0e"/>
     <use xlink:href="#mc8d7bd569e" x="210.716305" y="273.844596" style="fill: #ff7f0e; stroke: #ff7f0e"/>
     <use xlink:href="#mc8d7bd569e" x="223.315586" y="66.718372" style="fill: #ff7f0e; stroke: #ff7f0e"/>
     <use xlink:href="#mc8d7bd569e" x="235.914867" y="46.813736" style="fill: #ff7f0e; stroke: #ff7f0e"/>
     <use xlink:href="#mc8d7bd569e" x="248.514147" y="417.409543" style="fill: #ff7f0e; stroke: #ff7f0e"/>
     <use xlink:href="#mc8d7bd569e" x="261.113428" y="89.018384" style="fill: #ff7f0e; stroke: #ff7f0e"/>
     <use xlink:href="#mc8d7bd569e" x="273.712709" y="302.733063" style="fill: #ff7f0e; stroke: #ff7f0e"/>
     <use xlink:href="#mc8d7bd569e" x="286.31199" y="410.373119" style="fill: #ff7f0e; stroke: #ff7f0e"/>
     <use xlink:href="#mc8d7bd569e" x="298.91127" y="430.628028" style="fill: #ff7f0e; stroke: #ff7f0e"/>
     <use xlink:href="#mc8d7bd569e" x="324.109832" y="92.773527" style="fill: #ff7f0e; stroke: #ff7f0e"/>
     <use xlink:href="#mc8d7bd569e" x="336.709112" y="443.032623" style="fill: #ff7f0e; stroke: #ff7f0e"/>
     <use xlink:href="#mc8d7bd569e" x="349.308393" y="95.405174" style="fill: #ff7f0e; stroke: #ff7f0e"/>
     <use xlink:href="#mc8d7bd569e" x="361.907674" y="259.815166" style="fill: #ff7f0e; stroke: #ff7f0e"/>
     <use xlink:href="#mc8d7bd569e" x="374.506954" y="428.705307" style="fill: #ff7f0e; stroke: #ff7f0e"/>
     <use xlink:href="#mc8d7bd569e" x="387.106235" y="294.634905" style="fill: #ff7f0e; stroke: #ff7f0e"/>
     <use xlink:href="#mc8d7bd569e" x="399.705516" y="416.000821" style="fill: #ff7f0e; stroke: #ff7f0e"/>
     <use xlink:href="#mc8d7bd569e" x="412.304797" y="453.006308" style="fill: #ff7f0e; stroke: #ff7f0e"/>
     <use xlink:href="#mc8d7bd569e" x="424.904077" y="254.364278" style="fill: #ff7f0e; stroke: #ff7f0e"/>
     <use xlink:href="#mc8d7bd569e" x="437.503358" y="281.190608" style="fill: #ff7f0e; stroke: #ff7f0e"/>
     <use xlink:href="#mc8d7bd569e" x="462.701919" y="250.543933" style="fill: #ff7f0e; stroke: #ff7f0e"/>
     <use xlink:href="#mc8d7bd569e" x="475.3012" y="447.302643" style="fill: #ff7f0e; stroke: #ff7f0e"/>
     <use xlink:href="#mc8d7bd569e" x="487.900481" y="97.913841" style="fill: #ff7f0e; stroke: #ff7f0e"/>
     <use xlink:href="#mc8d7bd569e" x="500.499762" y="79.154237" style="fill: #ff7f0e; stroke: #ff7f0e"/>
     <use xlink:href="#mc8d7bd569e" x="513.099042" y="265.010176" style="fill: #ff7f0e; stroke: #ff7f0e"/>
     <use xlink:href="#mc8d7bd569e" x="525.698323" y="427.290803" style="fill: #ff7f0e; stroke: #ff7f0e"/>
     <use xlink:href="#mc8d7bd569e" x="538.297604" y="71.685989" style="fill: #ff7f0e; stroke: #ff7f0e"/>
     <use xlink:href="#mc8d7bd569e" x="550.896884" y="390.766131" style="fill: #ff7f0e; stroke: #ff7f0e"/>
     <use xlink:href="#mc8d7bd569e" x="576.095446" y="300.031033" style="fill: #ff7f0e; stroke: #ff7f0e"/>
     <use xlink:href="#mc8d7bd569e" x="588.694726" y="392.162016" style="fill: #ff7f0e; stroke: #ff7f0e"/>
     <use xlink:href="#mc8d7bd569e" x="601.294007" y="289.249316" style="fill: #ff7f0e; stroke: #ff7f0e"/>
     <use xlink:href="#mc8d7bd569e" x="613.893288" y="255.226785" style="fill: #ff7f0e; stroke: #ff7f0e"/>
     <use xlink:href="#mc8d7bd569e" x="626.492569" y="430.120537" style="fill: #ff7f0e; stroke: #ff7f0e"/>
     <use xlink:href="#mc8d7bd569e" x="651.69113" y="70.443245" style="fill: #ff7f0e; stroke: #ff7f0e"/>
     <use xlink:href="#mc8d7bd569e" x="664.290411" y="410.373119" style="fill: #ff7f0e; stroke: #ff7f0e"/>
     <use xlink:href="#mc8d7bd569e" x="676.889691" y="287.904562" style="fill: #ff7f0e; stroke: #ff7f0e"/>
     <use xlink:href="#mc8d7bd569e" x="689.488972" y="414.733586" style="fill: #ff7f0e; stroke: #ff7f0e"/>
     <use xlink:href="#mc8d7bd569e" x="702.088253" y="86.517793" style="fill: #ff7f0e; stroke: #ff7f0e"/>
    </g>
   </g>
   <g id="patch_3">
    <path d="M 80.31375 529.308125 
L 80.31375 23.837812 
" style="fill: none; stroke: #000000; stroke-width: 0.8; stroke-linejoin: miter; stroke-linecap: square"/>
   </g>
   <g id="patch_4">
    <path d="M 731.696562 529.308125 
L 731.696562 23.837812 
" style="fill: none; stroke: #000000; stroke-width: 0.8; stroke-linejoin: miter; stroke-linecap: square"/>
   </g>
   <g id="patch_5">
    <path d="M 80.31375 529.308125 
L 731.696562 529.308125 
" style="fill: none; stroke: #000000; stroke-width: 0.8; stroke-linejoin: miter; stroke-linecap: square"/>
   </g>
   <g id="patch_6">
    <path d="M 80.31375 23.837812 
L 731.696562 23.837812 
" style="fill: none; stroke: #000000; stroke-width: 0.8; stroke-linejoin: miter; stroke-linecap: square"/>
   </g>
   <g id="text_17">
    <text style="font: 700 14px 'DejaVu Sans', 'Bitstream Vera Sans', 'Computer Modern Sans Serif', 'Lucida Grande', 'Verdana', 'Geneva', 'Lucid', 'Arial', 'Helvetica', 'Avant Garde', sans-serif; text-anchor: middle" x="406.005156" y="17.837813" transform="rotate(-0 406.005156 17.837813)">Coalescing Arena Alloc Dealloc - Performance Trend</text>
   </g>
   <g id="legend_1">
    <g id="patch_7">
     <path d="M 771.265703 61.194063 
L 846.689141 61.194063 
Q 848.689141 61.194063 848.689141 59.194063 
L 848.689141 30.837813 
Q 848.689141 28.837813 846.689141 28.837813 
L 771.265703 28.837813 
Q 769.265703 28.837813 769.265703 30.837813 
L 769.265703 59.194063 
Q 769.265703 61.194063 771.265703 61.194063 
z
" style="fill: #ffffff; opacity: 0.8; stroke: #cccccc; stroke-linejoin: miter"/>
    </g>
    <g id="line2d_23">
     <path d="M 773.265703 36.93625 
L 783.265703 36.93625 
L 793.265703 36.93625 
" style="fill: none; stroke: #1f77b4; stroke-width: 2; stroke-linecap: square"/>
     <g>
      <use xlink:href="#mc6917f0f2c" x="783.265703" y="36.93625" style="fill: #1f77b4; stroke: #1f77b4"/>
     </g>
    </g>
    <g id="text_18">
     <text style="font: 10px 'DejaVu Sans', 'Bitstream Vera Sans', 'Computer Modern Sans Serif', 'Lucida Grande', 'Verdana', 'Geneva', 'Lucid', 'Arial', 'Helvetica', 'Avant Garde', sans-serif; text-anchor: start" x="801.265703" y="40.43625" transform="rotate(-0 801.265703 40.43625)">clang-18</text>
    </g>
    <g id="line2d_24">
     <path d="M 773.265703 51.614375 
L 783.265703 51.614375 
L 793.265703 51.614375 
" style="fill: none; stroke: #ff7f0e; stroke-width: 2; stroke-linecap: square"/>
     <g>
      <use xlink:href="#mc8d7bd569e" x="783.265703" y="51.614375" style="fill: #ff7f0e; stroke: #ff7f0e"/>
     </g>
    </g>
    <g id="text_19">
     <text style="font: 10px 'DejaVu Sans', 'Bitstream Vera Sans', 'Computer Modern Sans Serif', 'Lucida Grande', 'Verdana', 'Geneva', 'Lucid', 'Arial', 'Helvetica', 'Avant Garde', sans-serif; text-anchor: start" x="801.265703" y="55.114375" transform="rotate(-0 801.265703 55.114375)">gcc-14</text>
    </g>
   </g>
  </g>
 </g>
 <defs>
  <clipPath id="p7c564f069b">
   <rect x="80.31375" y="23.837813" width="651.382812" height="505.470313"/>
  </clipPath>
 </defs>
</svg>
