<?xml version="1.0" encoding="utf-8" standalone="no"?>
<!DOCTYPE svg PUBLIC "-//W3C//DTD SVG 1.1//EN"
  "http://www.w3.org/Graphics/SVG/1.1/DTD/svg11.dtd">
<svg xmlns:xlink="http://www.w3.org/1999/xlink" width="850.667656pt" height="568.8pt" viewBox="0 0 850.667656 568.8" xmlns="http://www.w3.org/2000/svg" version="1.1">
 <metadata>
  <rdf:RDF xmlns:dc="http://purl.org/dc/elements/1.1/" xmlns:cc="http://creativecommons.org/ns#" xmlns:rdf="http://www.w3.org/1999/02/22-rdf-syntax-ns#">
   <cc:Work>
    <dc:type rdf:resource="http://purl.org/dc/dcmitype/StillImage"/>
    <dc:date>2025-08-28T15:03:35.932299</dc:date>
    <dc:format>image/svg+xml</dc:format>
    <dc:creator>
     <cc:Agent>
      <dc:title>Matplotlib v3.9.4, https://matplotlib.org/</dc:title>
     </cc:Agent>
    </dc:creator>
   </cc:Work>
  </rdf:RDF>
 </metadata>
 <defs>
  <style type="text/css">*{stroke-linejoin: round; stroke-linecap: butt}</style>
 </defs>
 <g id="figure_1">
  <g id="patch_1">
   <path d="M 0 568.8 
L 850.667656 568.8 
L 850.667656 0 
L 0 0 
z
" style="fill: #ffffff"/>
  </g>
  <g id="axes_1">
   <g id="patch_2">
    <path d="M 47.41375 529.308125 
L 594.366875 529.308125 
L 594.366875 23.837812 
L 47.41375 23.837812 
z
" style="fill: #ffffff"/>
   </g>
   <g id="matplotlib.axis_1">
    <g id="xtick_1">
     <g id="line2d_1">
      <path d="M 72.275256 529.308125 
L 72.275256 23.837812 
" clip-path="url(#pc8dce93f72)" style="fill: none; stroke: #b0b0b0; stroke-opacity: 0.3; stroke-width: 0.8; stroke-linecap: square"/>
     </g>
     <g id="line2d_2">
      <defs>
       <path id="mbeb0dce2b9" d="M 0 0 
L 0 3.5 
" style="stroke: #000000; stroke-width: 0.8"/>
      </defs>
      <g>
       <use xlink:href="#mbeb0dce2b9" x="72.275256" y="529.308125" style="stroke: #000000; stroke-width: 0.8"/>
      </g>
     </g>
     <g id="text_1">
      <text style="font: 10px 'DejaVu Sans', 'Bitstream Vera Sans', 'Computer Modern Sans Serif', 'Lucida Grande', 'Verdana', 'Geneva', 'Lucid', 'Arial', 'Helvetica', 'Avant Garde', sans-serif; text-anchor: middle" x="72.275256" y="543.906563" transform="rotate(-0 72.275256 543.906563)">96</text>
     </g>
    </g>
    <g id="xtick_2">
     <g id="line2d_3">
      <path d="M 155.146941 529.308125 
L 155.146941 23.837812 
" clip-path="url(#pc8dce93f72)" style="fill: none; stroke: #b0b0b0; stroke-opacity: 0.3; stroke-width: 0.8; stroke-linecap: square"/>
     </g>
     <g id="line2d_4">
      <g>
       <use xlink:href="#mbeb0dce2b9" x="155.146941" y="529.308125" style="stroke: #000000; stroke-width: 0.8"/>
      </g>
     </g>
     <g id="text_2">
      <text style="font: 10px 'DejaVu Sans', 'Bitstream Vera Sans', 'Computer Modern Sans Serif', 'Lucida Grande', 'Verdana', 'Geneva', 'Lucid', 'Arial', 'Helvetica', 'Avant Garde', sans-serif; text-anchor: middle" x="155.146941" y="543.906563" transform="rotate(-0 155.146941 543.906563)">98</text>
     </g>
    </g>
    <g id="xtick_3">
     <g id="line2d_5">
      <path d="M 238.018627 529.308125 
L 238.018627 23.837812 
" clip-path="url(#pc8dce93f72)" style="fill: none; stroke: #b0b0b0; stroke-opacity: 0.3; stroke-width: 0.8; stroke-linecap: square"/>
     </g>
     <g id="line2d_6">
      <g>
       <use xlink:href="#mbeb0dce2b9" x="238.018627" y="529.308125" style="stroke: #000000; stroke-width: 0.8"/>
      </g>
     </g>
     <g id="text_3">
      <text style="font: 10px 'DejaVu Sans', 'Bitstream Vera Sans', 'Computer Modern Sans Serif', 'Lucida Grande', 'Verdana', 'Geneva', 'Lucid', 'Arial', 'Helvetica', 'Avant Garde', sans-serif; text-anchor: middle" x="238.018627" y="543.906563" transform="rotate(-0 238.018627 543.906563)">100</text>
     </g>
    </g>
    <g id="xtick_4">
     <g id="line2d_7">
      <path d="M 320.890312 529.308125 
L 320.890312 23.837812 
" clip-path="url(#pc8dce93f72)" style="fill: none; stroke: #b0b0b0; stroke-opacity: 0.3; stroke-width: 0.8; stroke-linecap: square"/>
     </g>
     <g id="line2d_8">
      <g>
       <use xlink:href="#mbeb0dce2b9" x="320.890312" y="529.308125" style="stroke: #000000; stroke-width: 0.8"/>
      </g>
     </g>
     <g id="text_4">
      <text style="font: 10px 'DejaVu Sans', 'Bitstream Vera Sans', 'Computer Modern Sans Serif', 'Lucida Grande', 'Verdana', 'Geneva', 'Lucid', 'Arial', 'Helvetica', 'Avant Garde', sans-serif; text-anchor: middle" x="320.890312" y="543.906563" transform="rotate(-0 320.890312 543.906563)">102</text>
     </g>
    </g>
    <g id="xtick_5">
     <g id="line2d_9">
      <path d="M 403.761998 529.308125 
L 403.761998 23.837812 
" clip-path="url(#pc8dce93f72)" style="fill: none; stroke: #b0b0b0; stroke-opacity: 0.3; stroke-width: 0.8; stroke-linecap: square"/>
     </g>
     <g id="line2d_10">
      <g>
       <use xlink:href="#mbeb0dce2b9" x="403.761998" y="529.308125" style="stroke: #000000; stroke-width: 0.8"/>
      </g>
     </g>
     <g id="text_5">
      <text style="font: 10px 'DejaVu Sans', 'Bitstream Vera Sans', 'Computer Modern Sans Serif', 'Lucida Grande', 'Verdana', 'Geneva', 'Lucid', 'Arial', 'Helvetica', 'Avant Garde', sans-serif; text-anchor: middle" x="403.761998" y="543.906563" transform="rotate(-0 403.761998 543.906563)">104</text>
     </g>
    </g>
    <g id="xtick_6">
     <g id="line2d_11">
      <path d="M 486.633684 529.308125 
L 486.633684 23.837812 
" clip-path="url(#pc8dce93f72)" style="fill: none; stroke: #b0b0b0; stroke-opacity: 0.3; stroke-width: 0.8; stroke-linecap: square"/>
     </g>
     <g id="line2d_12">
      <g>
       <use xlink:href="#mbeb0dce2b9" x="486.633684" y="529.308125" style="stroke: #000000; stroke-width: 0.8"/>
      </g>
     </g>
     <g id="text_6">
      <text style="font: 10px 'DejaVu Sans', 'Bitstream Vera Sans', 'Computer Modern Sans Serif', 'Lucida Grande', 'Verdana', 'Geneva', 'Lucid', 'Arial', 'Helvetica', 'Avant Garde', sans-serif; text-anchor: middle" x="486.633684" y="543.906563" transform="rotate(-0 486.633684 543.906563)">106</text>
     </g>
    </g>
    <g id="xtick_7">
     <g id="line2d_13">
      <path d="M 569.505369 529.308125 
L 569.505369 23.837812 
" clip-path="url(#pc8dce93f72)" style="fill: none; stroke: #b0b0b0; stroke-opacity: 0.3; stroke-width: 0.8; stroke-linecap: square"/>
     </g>
     <g id="line2d_14">
      <g>
       <use xlink:href="#mbeb0dce2b9" x="569.505369" y="529.308125" style="stroke: #000000; stroke-width: 0.8"/>
      </g>
     </g>
     <g id="text_7">
      <text style="font: 10px 'DejaVu Sans', 'Bitstream Vera Sans', 'Computer Modern Sans Serif', 'Lucida Grande', 'Verdana', 'Geneva', 'Lucid', 'Arial', 'Helvetica', 'Avant Garde', sans-serif; text-anchor: middle" x="569.505369" y="543.906563" transform="rotate(-0 569.505369 543.906563)">108</text>
     </g>
    </g>
    <g id="text_8">
     <text style="font: 12px 'DejaVu Sans', 'Bitstream Vera Sans', 'Computer Modern Sans Serif', 'Lucida Grande', 'Verdana', 'Geneva', 'Lucid', 'Arial', 'Helvetica', 'Avant Garde', sans-serif; text-anchor: middle" x="320.890312" y="559.104375" transform="rotate(-0 320.890312 559.104375)">Build Number</text>
    </g>
   </g>
   <g id="matplotlib.axis_2">
    <g id="ytick_1">
     <g id="line2d_15">
      <path d="M 47.41375 519.437282 
L 594.366875 519.437282 
" clip-path="url(#pc8dce93f72)" style="fill: none; stroke: #b0b0b0; stroke-opacity: 0.3; stroke-width: 0.8; stroke-linecap: square"/>
     </g>
     <g id="line2d_16">
      <defs>
       <path id="m752c905642" d="M 0 0 
L -3.5 0 
" style="stroke: #000000; stroke-width: 0.8"/>
      </defs>
      <g>
       <use xlink:href="#m752c905642" x="47.41375" y="519.437282" style="stroke: #000000; stroke-width: 0.8"/>
      </g>
     </g>
     <g id="text_9">
      <!-- $\mathdefault{10^{4}}$ -->
      <g transform="translate(22.81375 523.236501)">
       <text>
        <tspan style="font: 10px 'DejaVu Sans'" x="0 6.362305" y="-0.06406250000000036">10</tspan>
        <tspan style="font: 7px 'DejaVu Sans'" x="12.820312" y="-3.8921875000000004">4</tspan>
       </text>
      </g>
     </g>
    </g>
    <g id="ytick_2">
     <g id="line2d_17">
      <path d="M 47.41375 391.70965 
L 594.366875 391.70965 
" clip-path="url(#pc8dce93f72)" style="fill: none; stroke: #b0b0b0; stroke-opacity: 0.3; stroke-width: 0.8; stroke-linecap: square"/>
     </g>
     <g id="line2d_18">
      <g>
       <use xlink:href="#m752c905642" x="47.41375" y="391.70965" style="stroke: #000000; stroke-width: 0.8"/>
      </g>
     </g>
     <g id="text_10">
      <!-- $\mathdefault{10^{5}}$ -->
      <g transform="translate(22.81375 395.508869)">
       <text>
        <tspan style="font: 10px 'DejaVu Sans'" x="0 6.362305" y="-0.06406250000000036">10</tspan>
        <tspan style="font: 7px 'DejaVu Sans'" x="12.820312" y="-3.8921875000000004">5</tspan>
       </text>
      </g>
     </g>
    </g>
    <g id="ytick_3">
     <g id="line2d_19">
      <path d="M 47.41375 263.982018 
L 594.366875 263.982018 
" clip-path="url(#pc8dce93f72)" style="fill: none; stroke: #b0b0b0; stroke-opacity: 0.3; stroke-width: 0.8; stroke-linecap: square"/>
     </g>
     <g id="line2d_20">
      <g>
       <use xlink:href="#m752c905642" x="47.41375" y="263.982018" style="stroke: #000000; stroke-width: 0.8"/>
      </g>
     </g>
     <g id="text_11">
      <!-- $\mathdefault{10^{6}}$ -->
      <g transform="translate(22.81375 267.781237)">
       <text>
        <tspan style="font: 10px 'DejaVu Sans'" x="0 6.362305" y="-0.9765625">10</tspan>
        <tspan style="font: 7px 'DejaVu Sans'" x="12.820312" y="-4.8046875">6</tspan>
       </text>
      </g>
     </g>
    </g>
    <g id="ytick_4">
     <g id="line2d_21">
      <path d="M 47.41375 136.254386 
L 594.366875 136.254386 
" clip-path="url(#pc8dce93f72)" style="fill: none; stroke: #b0b0b0; stroke-opacity: 0.3; stroke-width: 0.8; stroke-linecap: square"/>
     </g>
     <g id="line2d_22">
      <g>
       <use xlink:href="#m752c905642" x="47.41375" y="136.254386" style="stroke: #000000; stroke-width: 0.8"/>
      </g>
     </g>
     <g id="text_12">
      <!-- $\mathdefault{10^{7}}$ -->
      <g transform="translate(22.81375 140.053605)">
       <text>
        <tspan style="font: 10px 'DejaVu Sans'" x="0 6.362305" y="-0.06406250000000036">10</tspan>
        <tspan style="font: 7px 'DejaVu Sans'" x="12.820312" y="-3.8921875000000004">7</tspan>
       </text>
      </g>
     </g>
    </g>
    <g id="ytick_5">
     <g id="line2d_23">
      <defs>
       <path id="m89b9c50efd" d="M 0 0 
L -2 0 
" style="stroke: #000000; stroke-width: 0.6"/>
      </defs>
      <g>
       <use xlink:href="#m89b9c50efd" x="47.41375" y="525.281778" style="stroke: #000000; stroke-width: 0.6"/>
      </g>
     </g>
    </g>
    <g id="ytick_6">
     <g id="line2d_24">
      <g>
       <use xlink:href="#m89b9c50efd" x="47.41375" y="480.987434" style="stroke: #000000; stroke-width: 0.6"/>
      </g>
     </g>
    </g>
    <g id="ytick_7">
     <g id="line2d_25">
      <g>
       <use xlink:href="#m89b9c50efd" x="47.41375" y="458.495714" style="stroke: #000000; stroke-width: 0.6"/>
      </g>
     </g>
    </g>
    <g id="ytick_8">
     <g id="line2d_26">
      <g>
       <use xlink:href="#m89b9c50efd" x="47.41375" y="442.537585" style="stroke: #000000; stroke-width: 0.6"/>
      </g>
     </g>
    </g>
    <g id="ytick_9">
     <g id="line2d_27">
      <g>
       <use xlink:href="#m89b9c50efd" x="47.41375" y="430.159499" style="stroke: #000000; stroke-width: 0.6"/>
      </g>
     </g>
    </g>
    <g id="ytick_10">
     <g id="line2d_28">
      <g>
       <use xlink:href="#m89b9c50efd" x="47.41375" y="420.045866" style="stroke: #000000; stroke-width: 0.6"/>
      </g>
     </g>
    </g>
    <g id="ytick_11">
     <g id="line2d_29">
      <g>
       <use xlink:href="#m89b9c50efd" x="47.41375" y="411.494911" style="stroke: #000000; stroke-width: 0.6"/>
      </g>
     </g>
    </g>
    <g id="ytick_12">
     <g id="line2d_30">
      <g>
       <use xlink:href="#m89b9c50efd" x="47.41375" y="404.087737" style="stroke: #000000; stroke-width: 0.6"/>
      </g>
     </g>
    </g>
    <g id="ytick_13">
     <g id="line2d_31">
      <g>
       <use xlink:href="#m89b9c50efd" x="47.41375" y="397.554146" style="stroke: #000000; stroke-width: 0.6"/>
      </g>
     </g>
    </g>
    <g id="ytick_14">
     <g id="line2d_32">
      <g>
       <use xlink:href="#m89b9c50efd" x="47.41375" y="353.259802" style="stroke: #000000; stroke-width: 0.6"/>
      </g>
     </g>
    </g>
    <g id="ytick_15">
     <g id="line2d_33">
      <g>
       <use xlink:href="#m89b9c50efd" x="47.41375" y="330.768082" style="stroke: #000000; stroke-width: 0.6"/>
      </g>
     </g>
    </g>
    <g id="ytick_16">
     <g id="line2d_34">
      <g>
       <use xlink:href="#m89b9c50efd" x="47.41375" y="314.809953" style="stroke: #000000; stroke-width: 0.6"/>
      </g>
     </g>
    </g>
    <g id="ytick_17">
     <g id="line2d_35">
      <g>
       <use xlink:href="#m89b9c50efd" x="47.41375" y="302.431867" style="stroke: #000000; stroke-width: 0.6"/>
      </g>
     </g>
    </g>
    <g id="ytick_18">
     <g id="line2d_36">
      <g>
       <use xlink:href="#m89b9c50efd" x="47.41375" y="292.318234" style="stroke: #000000; stroke-width: 0.6"/>
      </g>
     </g>
    </g>
    <g id="ytick_19">
     <g id="line2d_37">
      <g>
       <use xlink:href="#m89b9c50efd" x="47.41375" y="283.767279" style="stroke: #000000; stroke-width: 0.6"/>
      </g>
     </g>
    </g>
    <g id="ytick_20">
     <g id="line2d_38">
      <g>
       <use xlink:href="#m89b9c50efd" x="47.41375" y="276.360105" style="stroke: #000000; stroke-width: 0.6"/>
      </g>
     </g>
    </g>
    <g id="ytick_21">
     <g id="line2d_39">
      <g>
       <use xlink:href="#m89b9c50efd" x="47.41375" y="269.826514" style="stroke: #000000; stroke-width: 0.6"/>
      </g>
     </g>
    </g>
    <g id="ytick_22">
     <g id="line2d_40">
      <g>
       <use xlink:href="#m89b9c50efd" x="47.41375" y="225.53217" style="stroke: #000000; stroke-width: 0.6"/>
      </g>
     </g>
    </g>
    <g id="ytick_23">
     <g id="line2d_41">
      <g>
       <use xlink:href="#m89b9c50efd" x="47.41375" y="203.04045" style="stroke: #000000; stroke-width: 0.6"/>
      </g>
     </g>
    </g>
    <g id="ytick_24">
     <g id="line2d_42">
      <g>
       <use xlink:href="#m89b9c50efd" x="47.41375" y="187.082321" style="stroke: #000000; stroke-width: 0.6"/>
      </g>
     </g>
    </g>
    <g id="ytick_25">
     <g id="line2d_43">
      <g>
       <use xlink:href="#m89b9c50efd" x="47.41375" y="174.704235" style="stroke: #000000; stroke-width: 0.6"/>
      </g>
     </g>
    </g>
    <g id="ytick_26">
     <g id="line2d_44">
      <g>
       <use xlink:href="#m89b9c50efd" x="47.41375" y="164.590601" style="stroke: #000000; stroke-width: 0.6"/>
      </g>
     </g>
    </g>
    <g id="ytick_27">
     <g id="line2d_45">
      <g>
       <use xlink:href="#m89b9c50efd" x="47.41375" y="156.039647" style="stroke: #000000; stroke-width: 0.6"/>
      </g>
     </g>
    </g>
    <g id="ytick_28">
     <g id="line2d_46">
      <g>
       <use xlink:href="#m89b9c50efd" x="47.41375" y="148.632473" style="stroke: #000000; stroke-width: 0.6"/>
      </g>
     </g>
    </g>
    <g id="ytick_29">
     <g id="line2d_47">
      <g>
       <use xlink:href="#m89b9c50efd" x="47.41375" y="142.098882" style="stroke: #000000; stroke-width: 0.6"/>
      </g>
     </g>
    </g>
    <g id="ytick_30">
     <g id="line2d_48">
      <g>
       <use xlink:href="#m89b9c50efd" x="47.41375" y="97.804537" style="stroke: #000000; stroke-width: 0.6"/>
      </g>
     </g>
    </g>
    <g id="ytick_31">
     <g id="line2d_49">
      <g>
       <use xlink:href="#m89b9c50efd" x="47.41375" y="75.312818" style="stroke: #000000; stroke-width: 0.6"/>
      </g>
     </g>
    </g>
    <g id="ytick_32">
     <g id="line2d_50">
      <g>
       <use xlink:href="#m89b9c50efd" x="47.41375" y="59.354689" style="stroke: #000000; stroke-width: 0.6"/>
      </g>
     </g>
    </g>
    <g id="ytick_33">
     <g id="line2d_51">
      <g>
       <use xlink:href="#m89b9c50efd" x="47.41375" y="46.976602" style="stroke: #000000; stroke-width: 0.6"/>
      </g>
     </g>
    </g>
    <g id="ytick_34">
     <g id="line2d_52">
      <g>
       <use xlink:href="#m89b9c50efd" x="47.41375" y="36.862969" style="stroke: #000000; stroke-width: 0.6"/>
      </g>
     </g>
    </g>
    <g id="ytick_35">
     <g id="line2d_53">
      <g>
       <use xlink:href="#m89b9c50efd" x="47.41375" y="28.312015" style="stroke: #000000; stroke-width: 0.6"/>
      </g>
     </g>
    </g>
    <g id="text_13">
     <text style="font: 12px 'DejaVu Sans', 'Bitstream Vera Sans', 'Computer Modern Sans Serif', 'Lucida Grande', 'Verdana', 'Geneva', 'Lucid', 'Arial', 'Helvetica', 'Avant Garde', sans-serif; text-anchor: middle" x="16.318125" y="276.572969" transform="rotate(-90 16.318125 276.572969)">Median Elapsed Time (nanoseconds)</text>
    </g>
   </g>
   <g id="line2d_54">
    <path d="M 72.275256 46.899403 
L 113.711098 46.899879 
L 196.582784 46.904907 
L 238.018627 46.899867 
L 279.45447 46.91023 
L 320.890312 46.905034 
L 362.326155 46.909854 
L 403.761998 46.910245 
L 445.197841 46.900054 
L 486.633684 46.902194 
L 569.505369 46.905205 
" clip-path="url(#pc8dce93f72)" style="fill: none; stroke: #1f77b4; stroke-width: 2; stroke-linecap: square"/>
    <defs>
     <path id="m487509a1c9" d="M 0 3 
C 0.795609 3 1.55874 2.683901 2.12132 2.12132 
C 2.683901 1.55874 3 0.795609 3 0 
C 3 -0.795609 2.683901 -1.55874 2.12132 -2.12132 
C 1.55874 -2.683901 0.795609 -3 0 -3 
C -0.795609 -3 -1.55874 -2.683901 -2.12132 -2.12132 
C -2.683901 -1.55874 -3 -0.795609 -3 0 
C -3 0.795609 -2.683901 1.55874 -2.12132 2.12132 
C -1.55874 2.683901 -0.795609 3 0 3 
z
" style="stroke: #1f77b4"/>
    </defs>
    <g clip-path="url(#pc8dce93f72)">
     <use xlink:href="#m487509a1c9" x="72.275256" y="46.899403" style="fill: #1f77b4; stroke: #1f77b4"/>
     <use xlink:href="#m487509a1c9" x="113.711098" y="46.899879" style="fill: #1f77b4; stroke: #1f77b4"/>
     <use xlink:href="#m487509a1c9" x="196.582784" y="46.904907" style="fill: #1f77b4; stroke: #1f77b4"/>
     <use xlink:href="#m487509a1c9" x="238.018627" y="46.899867" style="fill: #1f77b4; stroke: #1f77b4"/>
     <use xlink:href="#m487509a1c9" x="279.45447" y="46.91023" style="fill: #1f77b4; stroke: #1f77b4"/>
     <use xlink:href="#m487509a1c9" x="320.890312" y="46.905034" style="fill: #1f77b4; stroke: #1f77b4"/>
     <use xlink:href="#m487509a1c9" x="362.326155" y="46.909854" style="fill: #1f77b4; stroke: #1f77b4"/>
     <use xlink:href="#m487509a1c9" x="403.761998" y="46.910245" style="fill: #1f77b4; stroke: #1f77b4"/>
     <use xlink:href="#m487509a1c9" x="445.197841" y="46.900054" style="fill: #1f77b4; stroke: #1f77b4"/>
     <use xlink:href="#m487509a1c9" x="486.633684" y="46.902194" style="fill: #1f77b4; stroke: #1f77b4"/>
     <use xlink:href="#m487509a1c9" x="569.505369" y="46.905205" style="fill: #1f77b4; stroke: #1f77b4"/>
    </g>
   </g>
   <g id="line2d_55">
    <path d="M 72.275256 506.210136 
L 113.711098 506.228057 
L 196.582784 506.214069 
L 238.018627 506.223686 
L 279.45447 506.214944 
L 320.890312 506.223686 
L 362.326155 506.214069 
L 403.761998 506.22762 
L 445.197841 506.232429 
L 486.633684 506.228057 
L 569.505369 506.218877 
" clip-path="url(#pc8dce93f72)" style="fill: none; stroke: #ff7f0e; stroke-width: 2; stroke-linecap: square"/>
    <defs>
     <path id="m7d1c9d6e6e" d="M 0 3 
C 0.795609 3 1.55874 2.683901 2.12132 2.12132 
C 2.683901 1.55874 3 0.795609 3 0 
C 3 -0.795609 2.683901 -1.55874 2.12132 -2.12132 
C 1.55874 -2.683901 0.795609 -3 0 -3 
C -0.795609 -3 -1.55874 -2.683901 -2.12132 -2.12132 
C -2.683901 -1.55874 -3 -0.795609 -3 0 
C -3 0.795609 -2.683901 1.55874 -2.12132 2.12132 
C -1.55874 2.683901 -0.795609 3 0 3 
z
" style="stroke: #ff7f0e"/>
    </defs>
    <g clip-path="url(#pc8dce93f72)">
     <use xlink:href="#m7d1c9d6e6e" x="72.275256" y="506.210136" style="fill: #ff7f0e; stroke: #ff7f0e"/>
     <use xlink:href="#m7d1c9d6e6e" x="113.711098" y="506.228057" style="fill: #ff7f0e; stroke: #ff7f0e"/>
     <use xlink:href="#m7d1c9d6e6e" x="196.582784" y="506.214069" style="fill: #ff7f0e; stroke: #ff7f0e"/>
     <use xlink:href="#m7d1c9d6e6e" x="238.018627" y="506.223686" style="fill: #ff7f0e; stroke: #ff7f0e"/>
     <use xlink:href="#m7d1c9d6e6e" x="279.45447" y="506.214944" style="fill: #ff7f0e; stroke: #ff7f0e"/>
     <use xlink:href="#m7d1c9d6e6e" x="320.890312" y="506.223686" style="fill: #ff7f0e; stroke: #ff7f0e"/>
     <use xlink:href="#m7d1c9d6e6e" x="362.326155" y="506.214069" style="fill: #ff7f0e; stroke: #ff7f0e"/>
     <use xlink:href="#m7d1c9d6e6e" x="403.761998" y="506.22762" style="fill: #ff7f0e; stroke: #ff7f0e"/>
     <use xlink:href="#m7d1c9d6e6e" x="445.197841" y="506.232429" style="fill: #ff7f0e; stroke: #ff7f0e"/>
     <use xlink:href="#m7d1c9d6e6e" x="486.633684" y="506.228057" style="fill: #ff7f0e; stroke: #ff7f0e"/>
     <use xlink:href="#m7d1c9d6e6e" x="569.505369" y="506.218877" style="fill: #ff7f0e; stroke: #ff7f0e"/>
    </g>
   </g>
   <g id="line2d_56">
    <path d="M 72.275256 46.837557 
L 113.711098 46.834661 
L 196.582784 46.84917 
L 238.018627 46.813736 
L 279.45447 46.854612 
L 320.890312 46.852667 
L 362.326155 46.844215 
L 403.761998 46.853317 
L 445.197841 46.838112 
L 486.633684 46.840931 
L 569.505369 46.813884 
" clip-path="url(#pc8dce93f72)" style="fill: none; stroke: #2ca02c; stroke-width: 2; stroke-linecap: square"/>
    <defs>
     <path id="mb115e2aee0" d="M 0 3 
C 0.795609 3 1.55874 2.683901 2.12132 2.12132 
C 2.683901 1.55874 3 0.795609 3 0 
C 3 -0.795609 2.683901 -1.55874 2.12132 -2.12132 
C 1.55874 -2.683901 0.795609 -3 0 -3 
C -0.795609 -3 -1.55874 -2.683901 -2.12132 -2.12132 
C -2.683901 -1.55874 -3 -0.795609 -3 0 
C -3 0.795609 -2.683901 1.55874 -2.12132 2.12132 
C -1.55874 2.683901 -0.795609 3 0 3 
z
" style="stroke: #2ca02c"/>
    </defs>
    <g clip-path="url(#pc8dce93f72)">
     <use xlink:href="#mb115e2aee0" x="72.275256" y="46.837557" style="fill: #2ca02c; stroke: #2ca02c"/>
     <use xlink:href="#mb115e2aee0" x="113.711098" y="46.834661" style="fill: #2ca02c; stroke: #2ca02c"/>
     <use xlink:href="#mb115e2aee0" x="196.582784" y="46.84917" style="fill: #2ca02c; stroke: #2ca02c"/>
     <use xlink:href="#mb115e2aee0" x="238.018627" y="46.813736" style="fill: #2ca02c; stroke: #2ca02c"/>
     <use xlink:href="#mb115e2aee0" x="279.45447" y="46.854612" style="fill: #2ca02c; stroke: #2ca02c"/>
     <use xlink:href="#mb115e2aee0" x="320.890312" y="46.852667" style="fill: #2ca02c; stroke: #2ca02c"/>
     <use xlink:href="#mb115e2aee0" x="362.326155" y="46.844215" style="fill: #2ca02c; stroke: #2ca02c"/>
     <use xlink:href="#mb115e2aee0" x="403.761998" y="46.853317" style="fill: #2ca02c; stroke: #2ca02c"/>
     <use xlink:href="#mb115e2aee0" x="445.197841" y="46.838112" style="fill: #2ca02c; stroke: #2ca02c"/>
     <use xlink:href="#mb115e2aee0" x="486.633684" y="46.840931" style="fill: #2ca02c; stroke: #2ca02c"/>
     <use xlink:href="#mb115e2aee0" x="569.505369" y="46.813884" style="fill: #2ca02c; stroke: #2ca02c"/>
    </g>
   </g>
   <g id="line2d_57">
    <path d="M 72.275256 506.319501 
L 113.711098 506.307242 
L 196.582784 506.310744 
L 238.018627 506.311182 
L 279.45447 506.31556 
L 320.890312 506.311182 
L 362.326155 506.310306 
L 403.761998 506.332202 
L 445.197841 505.731075 
L 486.633684 506.31162 
L 569.505369 506.310744 
" clip-path="url(#pc8dce93f72)" style="fill: none; stroke: #d62728; stroke-width: 2; stroke-linecap: square"/>
    <defs>
     <path id="ma3a71f70b5" d="M 0 3 
C 0.795609 3 1.55874 2.683901 2.12132 2.12132 
C 2.683901 1.55874 3 0.795609 3 0 
C 3 -0.795609 2.683901 -1.55874 2.12132 -2.12132 
C 1.55874 -2.683901 0.795609 -3 0 -3 
C -0.795609 -3 -1.55874 -2.683901 -2.12132 -2.12132 
C -2.683901 -1.55874 -3 -0.795609 -3 0 
C -3 0.795609 -2.683901 1.55874 -2.12132 2.12132 
C -1.55874 2.683901 -0.795609 3 0 3 
z
" style="stroke: #d62728"/>
    </defs>
    <g clip-path="url(#pc8dce93f72)">
     <use xlink:href="#ma3a71f70b5" x="72.275256" y="506.319501" style="fill: #d62728; stroke: #d62728"/>
     <use xlink:href="#ma3a71f70b5" x="113.711098" y="506.307242" style="fill: #d62728; stroke: #d62728"/>
     <use xlink:href="#ma3a71f70b5" x="196.582784" y="506.310744" style="fill: #d62728; stroke: #d62728"/>
     <use xlink:href="#ma3a71f70b5" x="238.018627" y="506.311182" style="fill: #d62728; stroke: #d62728"/>
     <use xlink:href="#ma3a71f70b5" x="279.45447" y="506.31556" style="fill: #d62728; stroke: #d62728"/>
     <use xlink:href="#ma3a71f70b5" x="320.890312" y="506.311182" style="fill: #d62728; stroke: #d62728"/>
     <use xlink:href="#ma3a71f70b5" x="362.326155" y="506.310306" style="fill: #d62728; stroke: #d62728"/>
     <use xlink:href="#ma3a71f70b5" x="403.761998" y="506.332202" style="fill: #d62728; stroke: #d62728"/>
     <use xlink:href="#ma3a71f70b5" x="445.197841" y="505.731075" style="fill: #d62728; stroke: #d62728"/>
     <use xlink:href="#ma3a71f70b5" x="486.633684" y="506.31162" style="fill: #d62728; stroke: #d62728"/>
     <use xlink:href="#ma3a71f70b5" x="569.505369" y="506.310744" style="fill: #d62728; stroke: #d62728"/>
    </g>
   </g>
   <g id="line2d_58">
    <path d="M 72.275256 485.870496 
L 113.711098 487.015597 
L 196.582784 483.141632 
L 238.018627 483.531101 
L 279.45447 485.753999 
L 320.890312 486.023954 
L 362.326155 485.647108 
L 403.761998 485.342663 
L 445.197841 486.145574 
L 486.633684 486.454164 
L 569.505369 486.429683 
" clip-path="url(#pc8dce93f72)" style="fill: none; stroke: #9467bd; stroke-width: 2; stroke-linecap: square"/>
    <defs>
     <path id="m15b26b6b7e" d="M 0 3 
C 0.795609 3 1.55874 2.683901 2.12132 2.12132 
C 2.683901 1.55874 3 0.795609 3 0 
C 3 -0.795609 2.683901 -1.55874 2.12132 -2.12132 
C 1.55874 -2.683901 0.795609 -3 0 -3 
C -0.795609 -3 -1.55874 -2.683901 -2.12132 -2.12132 
C -2.683901 -1.55874 -3 -0.795609 -3 0 
C -3 0.795609 -2.683901 1.55874 -2.12132 2.12132 
C -1.55874 2.683901 -0.795609 3 0 3 
z
" style="stroke: #9467bd"/>
    </defs>
    <g clip-path="url(#pc8dce93f72)">
     <use xlink:href="#m15b26b6b7e" x="72.275256" y="485.870496" style="fill: #9467bd; stroke: #9467bd"/>
     <use xlink:href="#m15b26b6b7e" x="113.711098" y="487.015597" style="fill: #9467bd; stroke: #9467bd"/>
     <use xlink:href="#m15b26b6b7e" x="196.582784" y="483.141632" style="fill: #9467bd; stroke: #9467bd"/>
     <use xlink:href="#m15b26b6b7e" x="238.018627" y="483.531101" style="fill: #9467bd; stroke: #9467bd"/>
     <use xlink:href="#m15b26b6b7e" x="279.45447" y="485.753999" style="fill: #9467bd; stroke: #9467bd"/>
     <use xlink:href="#m15b26b6b7e" x="320.890312" y="486.023954" style="fill: #9467bd; stroke: #9467bd"/>
     <use xlink:href="#m15b26b6b7e" x="362.326155" y="485.647108" style="fill: #9467bd; stroke: #9467bd"/>
     <use xlink:href="#m15b26b6b7e" x="403.761998" y="485.342663" style="fill: #9467bd; stroke: #9467bd"/>
     <use xlink:href="#m15b26b6b7e" x="445.197841" y="486.145574" style="fill: #9467bd; stroke: #9467bd"/>
     <use xlink:href="#m15b26b6b7e" x="486.633684" y="486.454164" style="fill: #9467bd; stroke: #9467bd"/>
     <use xlink:href="#m15b26b6b7e" x="569.505369" y="486.429683" style="fill: #9467bd; stroke: #9467bd"/>
    </g>
   </g>
   <g id="line2d_59">
    <path d="M 72.275256 46.903447 
L 113.711098 46.905077 
L 196.582784 46.909439 
L 238.018627 46.899965 
L 279.45447 46.905446 
L 320.890312 46.905075 
L 362.326155 46.90257 
L 403.761998 46.904976 
L 445.197841 46.904427 
L 486.633684 46.905243 
L 569.505369 46.904983 
" clip-path="url(#pc8dce93f72)" style="fill: none; stroke: #8c564b; stroke-width: 2; stroke-linecap: square"/>
    <defs>
     <path id="m1caca2b84c" d="M 0 3 
C 0.795609 3 1.55874 2.683901 2.12132 2.12132 
C 2.683901 1.55874 3 0.795609 3 0 
C 3 -0.795609 2.683901 -1.55874 2.12132 -2.12132 
C 1.55874 -2.683901 0.795609 -3 0 -3 
C -0.795609 -3 -1.55874 -2.683901 -2.12132 -2.12132 
C -2.683901 -1.55874 -3 -0.795609 -3 0 
C -3 0.795609 -2.683901 1.55874 -2.12132 2.12132 
C -1.55874 2.683901 -0.795609 3 0 3 
z
" style="stroke: #8c564b"/>
    </defs>
    <g clip-path="url(#pc8dce93f72)">
     <use xlink:href="#m1caca2b84c" x="72.275256" y="46.903447" style="fill: #8c564b; stroke: #8c564b"/>
     <use xlink:href="#m1caca2b84c" x="113.711098" y="46.905077" style="fill: #8c564b; stroke: #8c564b"/>
     <use xlink:href="#m1caca2b84c" x="196.582784" y="46.909439" style="fill: #8c564b; stroke: #8c564b"/>
     <use xlink:href="#m1caca2b84c" x="238.018627" y="46.899965" style="fill: #8c564b; stroke: #8c564b"/>
     <use xlink:href="#m1caca2b84c" x="279.45447" y="46.905446" style="fill: #8c564b; stroke: #8c564b"/>
     <use xlink:href="#m1caca2b84c" x="320.890312" y="46.905075" style="fill: #8c564b; stroke: #8c564b"/>
     <use xlink:href="#m1caca2b84c" x="362.326155" y="46.90257" style="fill: #8c564b; stroke: #8c564b"/>
     <use xlink:href="#m1caca2b84c" x="403.761998" y="46.904976" style="fill: #8c564b; stroke: #8c564b"/>
     <use xlink:href="#m1caca2b84c" x="445.197841" y="46.904427" style="fill: #8c564b; stroke: #8c564b"/>
     <use xlink:href="#m1caca2b84c" x="486.633684" y="46.905243" style="fill: #8c564b; stroke: #8c564b"/>
     <use xlink:href="#m1caca2b84c" x="569.505369" y="46.904983" style="fill: #8c564b; stroke: #8c564b"/>
    </g>
   </g>
   <g id="line2d_60">
    <path d="M 72.275256 495.914197 
L 113.711098 495.921457 
L 196.582784 495.921094 
L 238.018627 495.935981 
L 279.45447 495.943607 
L 320.890312 495.939613 
L 362.326155 495.92182 
L 403.761998 495.927993 
L 445.197841 495.924725 
L 486.633684 495.936707 
L 569.505369 495.931987 
" clip-path="url(#pc8dce93f72)" style="fill: none; stroke: #e377c2; stroke-width: 2; stroke-linecap: square"/>
    <defs>
     <path id="m7039d344e4" d="M 0 3 
C 0.795609 3 1.55874 2.683901 2.12132 2.12132 
C 2.683901 1.55874 3 0.795609 3 0 
C 3 -0.795609 2.683901 -1.55874 2.12132 -2.12132 
C 1.55874 -2.683901 0.795609 -3 0 -3 
C -0.795609 -3 -1.55874 -2.683901 -2.12132 -2.12132 
C -2.683901 -1.55874 -3 -0.795609 -3 0 
C -3 0.795609 -2.683901 1.55874 -2.12132 2.12132 
C -1.55874 2.683901 -0.795609 3 0 3 
z
" style="stroke: #e377c2"/>
    </defs>
    <g clip-path="url(#pc8dce93f72)">
     <use xlink:href="#m7039d344e4" x="72.275256" y="495.914197" style="fill: #e377c2; stroke: #e377c2"/>
     <use xlink:href="#m7039d344e4" x="113.711098" y="495.921457" style="fill: #e377c2; stroke: #e377c2"/>
     <use xlink:href="#m7039d344e4" x="196.582784" y="495.921094" style="fill: #e377c2; stroke: #e377c2"/>
     <use xlink:href="#m7039d344e4" x="238.018627" y="495.935981" style="fill: #e377c2; stroke: #e377c2"/>
     <use xlink:href="#m7039d344e4" x="279.45447" y="495.943607" style="fill: #e377c2; stroke: #e377c2"/>
     <use xlink:href="#m7039d344e4" x="320.890312" y="495.939613" style="fill: #e377c2; stroke: #e377c2"/>
     <use xlink:href="#m7039d344e4" x="362.326155" y="495.92182" style="fill: #e377c2; stroke: #e377c2"/>
     <use xlink:href="#m7039d344e4" x="403.761998" y="495.927993" style="fill: #e377c2; stroke: #e377c2"/>
     <use xlink:href="#m7039d344e4" x="445.197841" y="495.924725" style="fill: #e377c2; stroke: #e377c2"/>
     <use xlink:href="#m7039d344e4" x="486.633684" y="495.936707" style="fill: #e377c2; stroke: #e377c2"/>
     <use xlink:href="#m7039d344e4" x="569.505369" y="495.931987" style="fill: #e377c2; stroke: #e377c2"/>
    </g>
   </g>
   <g id="line2d_61">
    <path d="M 72.275256 46.85786 
L 113.711098 46.853848 
L 196.582784 46.85152 
L 238.018627 46.849491 
L 279.45447 46.851946 
L 320.890312 46.851195 
L 362.326155 46.835977 
L 403.761998 46.850435 
L 445.197841 46.852021 
L 486.633684 46.851389 
L 569.505369 46.850648 
" clip-path="url(#pc8dce93f72)" style="fill: none; stroke: #7f7f7f; stroke-width: 2; stroke-linecap: square"/>
    <defs>
     <path id="m5e2ac80f88" d="M 0 3 
C 0.795609 3 1.55874 2.683901 2.12132 2.12132 
C 2.683901 1.55874 3 0.795609 3 0 
C 3 -0.795609 2.683901 -1.55874 2.12132 -2.12132 
C 1.55874 -2.683901 0.795609 -3 0 -3 
C -0.795609 -3 -1.55874 -2.683901 -2.12132 -2.12132 
C -2.683901 -1.55874 -3 -0.795609 -3 0 
C -3 0.795609 -2.683901 1.55874 -2.12132 2.12132 
C -1.55874 2.683901 -0.795609 3 0 3 
z
" style="stroke: #7f7f7f"/>
    </defs>
    <g clip-path="url(#pc8dce93f72)">
     <use xlink:href="#m5e2ac80f88" x="72.275256" y="46.85786" style="fill: #7f7f7f; stroke: #7f7f7f"/>
     <use xlink:href="#m5e2ac80f88" x="113.711098" y="46.853848" style="fill: #7f7f7f; stroke: #7f7f7f"/>
     <use xlink:href="#m5e2ac80f88" x="196.582784" y="46.85152" style="fill: #7f7f7f; stroke: #7f7f7f"/>
     <use xlink:href="#m5e2ac80f88" x="238.018627" y="46.849491" style="fill: #7f7f7f; stroke: #7f7f7f"/>
     <use xlink:href="#m5e2ac80f88" x="279.45447" y="46.851946" style="fill: #7f7f7f; stroke: #7f7f7f"/>
     <use xlink:href="#m5e2ac80f88" x="320.890312" y="46.851195" style="fill: #7f7f7f; stroke: #7f7f7f"/>
     <use xlink:href="#m5e2ac80f88" x="362.326155" y="46.835977" style="fill: #7f7f7f; stroke: #7f7f7f"/>
     <use xlink:href="#m5e2ac80f88" x="403.761998" y="46.850435" style="fill: #7f7f7f; stroke: #7f7f7f"/>
     <use xlink:href="#m5e2ac80f88" x="445.197841" y="46.852021" style="fill: #7f7f7f; stroke: #7f7f7f"/>
     <use xlink:href="#m5e2ac80f88" x="486.633684" y="46.851389" style="fill: #7f7f7f; stroke: #7f7f7f"/>
     <use xlink:href="#m5e2ac80f88" x="569.505369" y="46.850648" style="fill: #7f7f7f; stroke: #7f7f7f"/>
    </g>
   </g>
   <g id="line2d_62">
    <path d="M 72.275256 497.015871 
L 113.711098 497.019574 
L 196.582784 497.012168 
L 238.018627 497.038463 
L 279.45447 497.038463 
L 320.890312 497.038463 
L 362.326155 497.031425 
L 403.761998 497.030314 
L 445.197841 497.038092 
L 486.633684 497.031425 
L 569.505369 497.041426 
" clip-path="url(#pc8dce93f72)" style="fill: none; stroke: #bcbd22; stroke-width: 2; stroke-linecap: square"/>
    <defs>
     <path id="mab51a3cad6" d="M 0 3 
C 0.795609 3 1.55874 2.683901 2.12132 2.12132 
C 2.683901 1.55874 3 0.795609 3 0 
C 3 -0.795609 2.683901 -1.55874 2.12132 -2.12132 
C 1.55874 -2.683901 0.795609 -3 0 -3 
C -0.795609 -3 -1.55874 -2.683901 -2.12132 -2.12132 
C -2.683901 -1.55874 -3 -0.795609 -3 0 
C -3 0.795609 -2.683901 1.55874 -2.12132 2.12132 
C -1.55874 2.683901 -0.795609 3 0 3 
z
" style="stroke: #bcbd22"/>
    </defs>
    <g clip-path="url(#pc8dce93f72)">
     <use xlink:href="#mab51a3cad6" x="72.275256" y="497.015871" style="fill: #bcbd22; stroke: #bcbd22"/>
     <use xlink:href="#mab51a3cad6" x="113.711098" y="497.019574" style="fill: #bcbd22; stroke: #bcbd22"/>
     <use xlink:href="#mab51a3cad6" x="196.582784" y="497.012168" style="fill: #bcbd22; stroke: #bcbd22"/>
     <use xlink:href="#mab51a3cad6" x="238.018627" y="497.038463" style="fill: #bcbd22; stroke: #bcbd22"/>
     <use xlink:href="#mab51a3cad6" x="279.45447" y="497.038463" style="fill: #bcbd22; stroke: #bcbd22"/>
     <use xlink:href="#mab51a3cad6" x="320.890312" y="497.038463" style="fill: #bcbd22; stroke: #bcbd22"/>
     <use xlink:href="#mab51a3cad6" x="362.326155" y="497.031425" style="fill: #bcbd22; stroke: #bcbd22"/>
     <use xlink:href="#mab51a3cad6" x="403.761998" y="497.030314" style="fill: #bcbd22; stroke: #bcbd22"/>
     <use xlink:href="#mab51a3cad6" x="445.197841" y="497.038092" style="fill: #bcbd22; stroke: #bcbd22"/>
     <use xlink:href="#mab51a3cad6" x="486.633684" y="497.031425" style="fill: #bcbd22; stroke: #bcbd22"/>
     <use xlink:href="#mab51a3cad6" x="569.505369" y="497.041426" style="fill: #bcbd22; stroke: #bcbd22"/>
    </g>
   </g>
   <g id="line2d_63">
    <path d="M 72.275256 485.370543 
L 113.711098 486.133705 
L 196.582784 484.8109 
L 238.018627 484.745566 
L 279.45447 485.031464 
L 320.890312 485.271606 
L 362.326155 485.271606 
L 403.761998 485.078981 
L 445.197841 485.41497 
L 486.633684 484.612759 
L 569.505369 484.873039 
" clip-path="url(#pc8dce93f72)" style="fill: none; stroke: #17becf; stroke-width: 2; stroke-linecap: square"/>
    <defs>
     <path id="m09f22f5dd2" d="M 0 3 
C 0.795609 3 1.55874 2.683901 2.12132 2.12132 
C 2.683901 1.55874 3 0.795609 3 0 
C 3 -0.795609 2.683901 -1.55874 2.12132 -2.12132 
C 1.55874 -2.683901 0.795609 -3 0 -3 
C -0.795609 -3 -1.55874 -2.683901 -2.12132 -2.12132 
C -2.683901 -1.55874 -3 -0.795609 -3 0 
C -3 0.795609 -2.683901 1.55874 -2.12132 2.12132 
C -1.55874 2.683901 -0.795609 3 0 3 
z
" style="stroke: #17becf"/>
    </defs>
    <g clip-path="url(#pc8dce93f72)">
     <use xlink:href="#m09f22f5dd2" x="72.275256" y="485.370543" style="fill: #17becf; stroke: #17becf"/>
     <use xlink:href="#m09f22f5dd2" x="113.711098" y="486.133705" style="fill: #17becf; stroke: #17becf"/>
     <use xlink:href="#m09f22f5dd2" x="196.582784" y="484.8109" style="fill: #17becf; stroke: #17becf"/>
     <use xlink:href="#m09f22f5dd2" x="238.018627" y="484.745566" style="fill: #17becf; stroke: #17becf"/>
     <use xlink:href="#m09f22f5dd2" x="279.45447" y="485.031464" style="fill: #17becf; stroke: #17becf"/>
     <use xlink:href="#m09f22f5dd2" x="320.890312" y="485.271606" style="fill: #17becf; stroke: #17becf"/>
     <use xlink:href="#m09f22f5dd2" x="362.326155" y="485.271606" style="fill: #17becf; stroke: #17becf"/>
     <use xlink:href="#m09f22f5dd2" x="403.761998" y="485.078981" style="fill: #17becf; stroke: #17becf"/>
     <use xlink:href="#m09f22f5dd2" x="445.197841" y="485.41497" style="fill: #17becf; stroke: #17becf"/>
     <use xlink:href="#m09f22f5dd2" x="486.633684" y="484.612759" style="fill: #17becf; stroke: #17becf"/>
     <use xlink:href="#m09f22f5dd2" x="569.505369" y="484.873039" style="fill: #17becf; stroke: #17becf"/>
    </g>
   </g>
   <g id="patch_3">
    <path d="M 47.41375 529.308125 
L 47.41375 23.837812 
" style="fill: none; stroke: #000000; stroke-width: 0.8; stroke-linejoin: miter; stroke-linecap: square"/>
   </g>
   <g id="patch_4">
    <path d="M 594.366875 529.308125 
L 594.366875 23.837812 
" style="fill: none; stroke: #000000; stroke-width: 0.8; stroke-linejoin: miter; stroke-linecap: square"/>
   </g>
   <g id="patch_5">
    <path d="M 47.41375 529.308125 
L 594.366875 529.308125 
" style="fill: none; stroke: #000000; stroke-width: 0.8; stroke-linejoin: miter; stroke-linecap: square"/>
   </g>
   <g id="patch_6">
    <path d="M 47.41375 23.837812 
L 594.366875 23.837812 
" style="fill: none; stroke: #000000; stroke-width: 0.8; stroke-linejoin: miter; stroke-linecap: square"/>
   </g>
   <g id="text_14">
    <text style="font: 700 14px 'DejaVu Sans', 'Bitstream Vera Sans', 'Computer Modern Sans Serif', 'Lucida Grande', 'Verdana', 'Geneva', 'Lucid', 'Arial', 'Helvetica', 'Avant Garde', sans-serif; text-anchor: middle" x="320.890312" y="17.837813" transform="rotate(-0 320.890312 17.837813)">Coroutine Fan Out In - Performance Trend</text>
   </g>
   <g id="legend_1">
    <g id="patch_7">
     <path d="M 628.714531 181.400313 
L 841.467656 181.400313 
Q 843.467656 181.400313 843.467656 179.400313 
L 843.467656 30.837813 
Q 843.467656 28.837813 841.467656 28.837813 
L 628.714531 28.837813 
Q 626.714531 28.837813 626.714531 30.837813 
L 626.714531 179.400313 
Q 626.714531 181.400313 628.714531 181.400313 
z
" style="fill: #ffffff; opacity: 0.8; stroke: #cccccc; stroke-linejoin: miter"/>
    </g>
    <g id="line2d_64">
     <path d="M 630.714531 36.93625 
L 640.714531 36.93625 
L 650.714531 36.93625 
" style="fill: none; stroke: #1f77b4; stroke-width: 2; stroke-linecap: square"/>
     <g>
      <use xlink:href="#m487509a1c9" x="640.714531" y="36.93625" style="fill: #1f77b4; stroke: #1f77b4"/>
     </g>
    </g>
    <g id="text_15">
     <text style="font: 10px 'DejaVu Sans', 'Bitstream Vera Sans', 'Computer Modern Sans Serif', 'Lucida Grande', 'Verdana', 'Geneva', 'Lucid', 'Arial', 'Helvetica', 'Avant Garde', sans-serif; text-anchor: start" x="658.714531" y="40.43625" transform="rotate(-0 658.714531 40.43625)">gcc-14.2 - FanOutIn_Coroutines_V1</text>
    </g>
    <g id="line2d_65">
     <path d="M 630.714531 51.8925 
L 640.714531 51.8925 
L 650.714531 51.8925 
" style="fill: none; stroke: #ff7f0e; stroke-width: 2; stroke-linecap: square"/>
     <g>
      <use xlink:href="#m7d1c9d6e6e" x="640.714531" y="51.8925" style="fill: #ff7f0e; stroke: #ff7f0e"/>
     </g>
    </g>
    <g id="text_16">
     <text style="font: 10px 'DejaVu Sans', 'Bitstream Vera Sans', 'Computer Modern Sans Serif', 'Lucida Grande', 'Verdana', 'Geneva', 'Lucid', 'Arial', 'Helvetica', 'Avant Garde', sans-serif; text-anchor: start" x="658.714531" y="55.3925" transform="rotate(-0 658.714531 55.3925)">gcc-14.2 - FanOutIn_ParallelFor_V1</text>
    </g>
    <g id="line2d_66">
     <path d="M 630.714531 66.84875 
L 640.714531 66.84875 
L 650.714531 66.84875 
" style="fill: none; stroke: #2ca02c; stroke-width: 2; stroke-linecap: square"/>
     <g>
      <use xlink:href="#mb115e2aee0" x="640.714531" y="66.84875" style="fill: #2ca02c; stroke: #2ca02c"/>
     </g>
    </g>
    <g id="text_17">
     <text style="font: 10px 'DejaVu Sans', 'Bitstream Vera Sans', 'Computer Modern Sans Serif', 'Lucida Grande', 'Verdana', 'Geneva', 'Lucid', 'Arial', 'Helvetica', 'Avant Garde', sans-serif; text-anchor: start" x="658.714531" y="70.34875" transform="rotate(-0 658.714531 70.34875)">gcc-14.2 - FanOutIn_Coroutines_V2</text>
    </g>
    <g id="line2d_67">
     <path d="M 630.714531 81.805 
L 640.714531 81.805 
L 650.714531 81.805 
" style="fill: none; stroke: #d62728; stroke-width: 2; stroke-linecap: square"/>
     <g>
      <use xlink:href="#ma3a71f70b5" x="640.714531" y="81.805" style="fill: #d62728; stroke: #d62728"/>
     </g>
    </g>
    <g id="text_18">
     <text style="font: 10px 'DejaVu Sans', 'Bitstream Vera Sans', 'Computer Modern Sans Serif', 'Lucida Grande', 'Verdana', 'Geneva', 'Lucid', 'Arial', 'Helvetica', 'Avant Garde', sans-serif; text-anchor: start" x="658.714531" y="85.305" transform="rotate(-0 658.714531 85.305)">gcc-14.2 - FanOutIn_ParallelFor_V2</text>
    </g>
    <g id="line2d_68">
     <path d="M 630.714531 96.76125 
L 640.714531 96.76125 
L 650.714531 96.76125 
" style="fill: none; stroke: #9467bd; stroke-width: 2; stroke-linecap: square"/>
     <g>
      <use xlink:href="#m15b26b6b7e" x="640.714531" y="96.76125" style="fill: #9467bd; stroke: #9467bd"/>
     </g>
    </g>
    <g id="text_19">
     <text style="font: 10px 'DejaVu Sans', 'Bitstream Vera Sans', 'Computer Modern Sans Serif', 'Lucida Grande', 'Verdana', 'Geneva', 'Lucid', 'Arial', 'Helvetica', 'Avant Garde', sans-serif; text-anchor: start" x="658.714531" y="100.26125" transform="rotate(-0 658.714531 100.26125)">gcc-14.2 - FanOutIn_TBB_Equivalent</text>
    </g>
    <g id="line2d_69">
     <path d="M 630.714531 111.7175 
L 640.714531 111.7175 
L 650.714531 111.7175 
" style="fill: none; stroke: #8c564b; stroke-width: 2; stroke-linecap: square"/>
     <g>
      <use xlink:href="#m1caca2b84c" x="640.714531" y="111.7175" style="fill: #8c564b; stroke: #8c564b"/>
     </g>
    </g>
    <g id="text_20">
     <text style="font: 10px 'DejaVu Sans', 'Bitstream Vera Sans', 'Computer Modern Sans Serif', 'Lucida Grande', 'Verdana', 'Geneva', 'Lucid', 'Arial', 'Helvetica', 'Avant Garde', sans-serif; text-anchor: start" x="658.714531" y="115.2175" transform="rotate(-0 658.714531 115.2175)">gcc-4.2 - FanOutIn_Coroutines_V1</text>
    </g>
    <g id="line2d_70">
     <path d="M 630.714531 126.67375 
L 640.714531 126.67375 
L 650.714531 126.67375 
" style="fill: none; stroke: #e377c2; stroke-width: 2; stroke-linecap: square"/>
     <g>
      <use xlink:href="#m7039d344e4" x="640.714531" y="126.67375" style="fill: #e377c2; stroke: #e377c2"/>
     </g>
    </g>
    <g id="text_21">
     <text style="font: 10px 'DejaVu Sans', 'Bitstream Vera Sans', 'Computer Modern Sans Serif', 'Lucida Grande', 'Verdana', 'Geneva', 'Lucid', 'Arial', 'Helvetica', 'Avant Garde', sans-serif; text-anchor: start" x="658.714531" y="130.17375" transform="rotate(-0 658.714531 130.17375)">gcc-4.2 - FanOutIn_ParallelFor_V1</text>
    </g>
    <g id="line2d_71">
     <path d="M 630.714531 141.63 
L 640.714531 141.63 
L 650.714531 141.63 
" style="fill: none; stroke: #7f7f7f; stroke-width: 2; stroke-linecap: square"/>
     <g>
      <use xlink:href="#m5e2ac80f88" x="640.714531" y="141.63" style="fill: #7f7f7f; stroke: #7f7f7f"/>
     </g>
    </g>
    <g id="text_22">
     <text style="font: 10px 'DejaVu Sans', 'Bitstream Vera Sans', 'Computer Modern Sans Serif', 'Lucida Grande', 'Verdana', 'Geneva', 'Lucid', 'Arial', 'Helvetica', 'Avant Garde', sans-serif; text-anchor: start" x="658.714531" y="145.13" transform="rotate(-0 658.714531 145.13)">gcc-4.2 - FanOutIn_Coroutines_V2</text>
    </g>
    <g id="line2d_72">
     <path d="M 630.714531 156.58625 
L 640.714531 156.58625 
L 650.714531 156.58625 
" style="fill: none; stroke: #bcbd22; stroke-width: 2; stroke-linecap: square"/>
     <g>
      <use xlink:href="#mab51a3cad6" x="640.714531" y="156.58625" style="fill: #bcbd22; stroke: #bcbd22"/>
     </g>
    </g>
    <g id="text_23">
     <text style="font: 10px 'DejaVu Sans', 'Bitstream Vera Sans', 'Computer Modern Sans Serif', 'Lucida Grande', 'Verdana', 'Geneva', 'Lucid', 'Arial', 'Helvetica', 'Avant Garde', sans-serif; text-anchor: start" x="658.714531" y="160.08625" transform="rotate(-0 658.714531 160.08625)">gcc-4.2 - FanOutIn_ParallelFor_V2</text>
    </g>
    <g id="line2d_73">
     <path d="M 630.714531 171.5425 
L 640.714531 171.5425 
L 650.714531 171.5425 
" style="fill: none; stroke: #17becf; stroke-width: 2; stroke-linecap: square"/>
     <g>
      <use xlink:href="#m09f22f5dd2" x="640.714531" y="171.5425" style="fill: #17becf; stroke: #17becf"/>
     </g>
    </g>
    <g id="text_24">
     <text style="font: 10px 'DejaVu Sans', 'Bitstream Vera Sans', 'Computer Modern Sans Serif', 'Lucida Grande', 'Verdana', 'Geneva', 'Lucid', 'Arial', 'Helvetica', 'Avant Garde', sans-serif; text-anchor: start" x="658.714531" y="175.0425" transform="rotate(-0 658.714531 175.0425)">gcc-4.2 - FanOutIn_TBB_Equivalent</text>
    </g>
   </g>
  </g>
 </g>
 <defs>
  <clipPath id="pc8dce93f72">
   <rect x="47.41375" y="23.837813" width="546.953125" height="505.470313"/>
  </clipPath>
 </defs>
</svg>
