<?xml version="1.0" encoding="utf-8" standalone="no"?>
<!DOCTYPE svg PUBLIC "-//W3C//DTD SVG 1.1//EN"
  "http://www.w3.org/Graphics/SVG/1.1/DTD/svg11.dtd">
<svg xmlns:xlink="http://www.w3.org/1999/xlink" width="855.204687pt" height="568.8pt" viewBox="0 0 855.204687 568.8" xmlns="http://www.w3.org/2000/svg" version="1.1">
 <metadata>
  <rdf:RDF xmlns:dc="http://purl.org/dc/elements/1.1/" xmlns:cc="http://creativecommons.org/ns#" xmlns:rdf="http://www.w3.org/1999/02/22-rdf-syntax-ns#">
   <cc:Work>
    <dc:type rdf:resource="http://purl.org/dc/dcmitype/StillImage"/>
    <dc:date>2025-08-22T17:17:17.711964</dc:date>
    <dc:format>image/svg+xml</dc:format>
    <dc:creator>
     <cc:Agent>
      <dc:title>Matplotlib v3.9.4, https://matplotlib.org/</dc:title>
     </cc:Agent>
    </dc:creator>
   </cc:Work>
  </rdf:RDF>
 </metadata>
 <defs>
  <style type="text/css">*{stroke-linejoin: round; stroke-linecap: butt}</style>
 </defs>
 <g id="figure_1">
  <g id="patch_1">
   <path d="M 0 568.8 
L 855.204687 568.8 
L 855.204687 0 
L 0 0 
z
" style="fill: #ffffff"/>
  </g>
  <g id="axes_1">
   <g id="patch_2">
    <path d="M 64.41375 529.308125 
L 702.1075 529.308125 
L 702.1075 23.837812 
L 64.41375 23.837812 
z
" style="fill: #ffffff"/>
   </g>
   <g id="matplotlib.axis_1">
    <g id="xtick_1">
     <g id="line2d_1">
      <path d="M 74.699133 529.308125 
L 74.699133 23.837812 
" clip-path="url(#p430b0376f7)" style="fill: none; stroke: #b0b0b0; stroke-opacity: 0.3; stroke-width: 0.8; stroke-linecap: square"/>
     </g>
     <g id="line2d_2">
      <defs>
       <path id="m2f9c8d2b67" d="M 0 0 
L 0 3.5 
" style="stroke: #000000; stroke-width: 0.8"/>
      </defs>
      <g>
       <use xlink:href="#m2f9c8d2b67" x="74.699133" y="529.308125" style="stroke: #000000; stroke-width: 0.8"/>
      </g>
     </g>
     <g id="text_1">
      <text style="font: 10px 'DejaVu Sans', 'Bitstream Vera Sans', 'Computer Modern Sans Serif', 'Lucida Grande', 'Verdana', 'Geneva', 'Lucid', 'Arial', 'Helvetica', 'Avant Garde', sans-serif; text-anchor: middle" x="74.699133" y="543.906563" transform="rotate(-0 74.699133 543.906563)">70</text>
     </g>
    </g>
    <g id="xtick_2">
     <g id="line2d_3">
      <path d="M 168.202615 529.308125 
L 168.202615 23.837812 
" clip-path="url(#p430b0376f7)" style="fill: none; stroke: #b0b0b0; stroke-opacity: 0.3; stroke-width: 0.8; stroke-linecap: square"/>
     </g>
     <g id="line2d_4">
      <g>
       <use xlink:href="#m2f9c8d2b67" x="168.202615" y="529.308125" style="stroke: #000000; stroke-width: 0.8"/>
      </g>
     </g>
     <g id="text_2">
      <text style="font: 10px 'DejaVu Sans', 'Bitstream Vera Sans', 'Computer Modern Sans Serif', 'Lucida Grande', 'Verdana', 'Geneva', 'Lucid', 'Arial', 'Helvetica', 'Avant Garde', sans-serif; text-anchor: middle" x="168.202615" y="543.906563" transform="rotate(-0 168.202615 543.906563)">75</text>
     </g>
    </g>
    <g id="xtick_3">
     <g id="line2d_5">
      <path d="M 261.706098 529.308125 
L 261.706098 23.837812 
" clip-path="url(#p430b0376f7)" style="fill: none; stroke: #b0b0b0; stroke-opacity: 0.3; stroke-width: 0.8; stroke-linecap: square"/>
     </g>
     <g id="line2d_6">
      <g>
       <use xlink:href="#m2f9c8d2b67" x="261.706098" y="529.308125" style="stroke: #000000; stroke-width: 0.8"/>
      </g>
     </g>
     <g id="text_3">
      <text style="font: 10px 'DejaVu Sans', 'Bitstream Vera Sans', 'Computer Modern Sans Serif', 'Lucida Grande', 'Verdana', 'Geneva', 'Lucid', 'Arial', 'Helvetica', 'Avant Garde', sans-serif; text-anchor: middle" x="261.706098" y="543.906563" transform="rotate(-0 261.706098 543.906563)">80</text>
     </g>
    </g>
    <g id="xtick_4">
     <g id="line2d_7">
      <path d="M 355.20958 529.308125 
L 355.20958 23.837812 
" clip-path="url(#p430b0376f7)" style="fill: none; stroke: #b0b0b0; stroke-opacity: 0.3; stroke-width: 0.8; stroke-linecap: square"/>
     </g>
     <g id="line2d_8">
      <g>
       <use xlink:href="#m2f9c8d2b67" x="355.20958" y="529.308125" style="stroke: #000000; stroke-width: 0.8"/>
      </g>
     </g>
     <g id="text_4">
      <text style="font: 10px 'DejaVu Sans', 'Bitstream Vera Sans', 'Computer Modern Sans Serif', 'Lucida Grande', 'Verdana', 'Geneva', 'Lucid', 'Arial', 'Helvetica', 'Avant Garde', sans-serif; text-anchor: middle" x="355.20958" y="543.906563" transform="rotate(-0 355.20958 543.906563)">85</text>
     </g>
    </g>
    <g id="xtick_5">
     <g id="line2d_9">
      <path d="M 448.713063 529.308125 
L 448.713063 23.837812 
" clip-path="url(#p430b0376f7)" style="fill: none; stroke: #b0b0b0; stroke-opacity: 0.3; stroke-width: 0.8; stroke-linecap: square"/>
     </g>
     <g id="line2d_10">
      <g>
       <use xlink:href="#m2f9c8d2b67" x="448.713063" y="529.308125" style="stroke: #000000; stroke-width: 0.8"/>
      </g>
     </g>
     <g id="text_5">
      <text style="font: 10px 'DejaVu Sans', 'Bitstream Vera Sans', 'Computer Modern Sans Serif', 'Lucida Grande', 'Verdana', 'Geneva', 'Lucid', 'Arial', 'Helvetica', 'Avant Garde', sans-serif; text-anchor: middle" x="448.713063" y="543.906563" transform="rotate(-0 448.713063 543.906563)">90</text>
     </g>
    </g>
    <g id="xtick_6">
     <g id="line2d_11">
      <path d="M 542.216545 529.308125 
L 542.216545 23.837812 
" clip-path="url(#p430b0376f7)" style="fill: none; stroke: #b0b0b0; stroke-opacity: 0.3; stroke-width: 0.8; stroke-linecap: square"/>
     </g>
     <g id="line2d_12">
      <g>
       <use xlink:href="#m2f9c8d2b67" x="542.216545" y="529.308125" style="stroke: #000000; stroke-width: 0.8"/>
      </g>
     </g>
     <g id="text_6">
      <text style="font: 10px 'DejaVu Sans', 'Bitstream Vera Sans', 'Computer Modern Sans Serif', 'Lucida Grande', 'Verdana', 'Geneva', 'Lucid', 'Arial', 'Helvetica', 'Avant Garde', sans-serif; text-anchor: middle" x="542.216545" y="543.906563" transform="rotate(-0 542.216545 543.906563)">95</text>
     </g>
    </g>
    <g id="xtick_7">
     <g id="line2d_13">
      <path d="M 635.720027 529.308125 
L 635.720027 23.837812 
" clip-path="url(#p430b0376f7)" style="fill: none; stroke: #b0b0b0; stroke-opacity: 0.3; stroke-width: 0.8; stroke-linecap: square"/>
     </g>
     <g id="line2d_14">
      <g>
       <use xlink:href="#m2f9c8d2b67" x="635.720027" y="529.308125" style="stroke: #000000; stroke-width: 0.8"/>
      </g>
     </g>
     <g id="text_7">
      <text style="font: 10px 'DejaVu Sans', 'Bitstream Vera Sans', 'Computer Modern Sans Serif', 'Lucida Grande', 'Verdana', 'Geneva', 'Lucid', 'Arial', 'Helvetica', 'Avant Garde', sans-serif; text-anchor: middle" x="635.720027" y="543.906563" transform="rotate(-0 635.720027 543.906563)">100</text>
     </g>
    </g>
    <g id="text_8">
     <text style="font: 12px 'DejaVu Sans', 'Bitstream Vera Sans', 'Computer Modern Sans Serif', 'Lucida Grande', 'Verdana', 'Geneva', 'Lucid', 'Arial', 'Helvetica', 'Avant Garde', sans-serif; text-anchor: middle" x="383.260625" y="559.104375" transform="rotate(-0 383.260625 559.104375)">Build Number</text>
    </g>
   </g>
   <g id="matplotlib.axis_2">
    <g id="ytick_1">
     <g id="line2d_15">
      <defs>
       <path id="m2f8dd08cd3" d="M 0 0 
L -2 0 
" style="stroke: #000000; stroke-width: 0.6"/>
      </defs>
      <g>
       <use xlink:href="#m2f8dd08cd3" x="64.41375" y="514.915957" style="stroke: #000000; stroke-width: 0.6"/>
      </g>
     </g>
     <g id="text_9">
      <!-- $\mathdefault{5\times10^{7}}$ -->
      <g transform="translate(22.81375 518.715175)">
       <text>
        <tspan style="font: 10px 'DejaVu Sans'" x="0 8.310547 18.637695 25" y="-0.06406250000000036">5×10</tspan>
        <tspan style="font: 7px 'DejaVu Sans'" x="31.458008" y="-3.8921875000000004">7</tspan>
       </text>
      </g>
     </g>
    </g>
    <g id="ytick_2">
     <g id="line2d_16">
      <g>
       <use xlink:href="#m2f8dd08cd3" x="64.41375" y="288.174215" style="stroke: #000000; stroke-width: 0.6"/>
      </g>
     </g>
     <g id="text_10">
      <!-- $\mathdefault{6\times10^{7}}$ -->
      <g transform="translate(22.81375 291.973434)">
       <text>
        <tspan style="font: 10px 'DejaVu Sans'" x="0 8.310547 18.637695 25" y="-0.06406250000000036">6×10</tspan>
        <tspan style="font: 7px 'DejaVu Sans'" x="31.458008" y="-3.8921875000000004">7</tspan>
       </text>
      </g>
     </g>
    </g>
    <g id="ytick_3">
     <g id="line2d_17">
      <g>
       <use xlink:href="#m2f8dd08cd3" x="64.41375" y="96.466805" style="stroke: #000000; stroke-width: 0.6"/>
      </g>
     </g>
     <g id="text_11">
      <!-- $\mathdefault{7\times10^{7}}$ -->
      <g transform="translate(22.81375 100.266023)">
       <text>
        <tspan style="font: 10px 'DejaVu Sans'" x="0 8.310547 18.637695 25" y="-0.06406250000000036">7×10</tspan>
        <tspan style="font: 7px 'DejaVu Sans'" x="31.458008" y="-3.8921875000000004">7</tspan>
       </text>
      </g>
     </g>
    </g>
    <g id="text_12">
     <text style="font: 12px 'DejaVu Sans', 'Bitstream Vera Sans', 'Computer Modern Sans Serif', 'Lucida Grande', 'Verdana', 'Geneva', 'Lucid', 'Arial', 'Helvetica', 'Avant Garde', sans-serif; text-anchor: middle" x="16.318125" y="276.572969" transform="rotate(-90 16.318125 276.572969)">Median Elapsed Time (nanoseconds)</text>
    </g>
   </g>
   <g id="line2d_18">
    <path d="M 93.39983 493.691829 
L 112.100526 490.814075 
L 130.801223 487.494679 
L 149.501919 487.145326 
L 168.202615 488.410505 
L 186.903312 475.327557 
L 205.604008 487.596827 
L 224.304705 488.415686 
L 243.005401 489.713847 
L 261.706098 457.081027 
L 280.406794 483.450798 
L 299.107491 486.101722 
L 317.808187 488.754486 
L 336.508884 490.455908 
L 355.20958 482.796643 
L 373.910277 488.14356 
L 411.31167 488.224408 
L 430.012366 490.992343 
L 448.713063 489.612786 
L 467.413759 487.665045 
L 486.114456 485.091497 
L 504.815152 485.139142 
L 523.515849 487.108851 
L 542.216545 489.465187 
L 560.917242 488.642446 
L 579.617938 475.771404 
L 617.019331 470.614423 
L 635.720027 487.595644 
L 654.420724 490.252334 
L 673.12142 488.974158 
" clip-path="url(#p430b0376f7)" style="fill: none; stroke: #1f77b4; stroke-width: 2; stroke-linecap: square"/>
    <defs>
     <path id="m4c44a42e05" d="M 0 3 
C 0.795609 3 1.55874 2.683901 2.12132 2.12132 
C 2.683901 1.55874 3 0.795609 3 0 
C 3 -0.795609 2.683901 -1.55874 2.12132 -2.12132 
C 1.55874 -2.683901 0.795609 -3 0 -3 
C -0.795609 -3 -1.55874 -2.683901 -2.12132 -2.12132 
C -2.683901 -1.55874 -3 -0.795609 -3 0 
C -3 0.795609 -2.683901 1.55874 -2.12132 2.12132 
C -1.55874 2.683901 -0.795609 3 0 3 
z
" style="stroke: #1f77b4"/>
    </defs>
    <g clip-path="url(#p430b0376f7)">
     <use xlink:href="#m4c44a42e05" x="93.39983" y="493.691829" style="fill: #1f77b4; stroke: #1f77b4"/>
     <use xlink:href="#m4c44a42e05" x="112.100526" y="490.814075" style="fill: #1f77b4; stroke: #1f77b4"/>
     <use xlink:href="#m4c44a42e05" x="130.801223" y="487.494679" style="fill: #1f77b4; stroke: #1f77b4"/>
     <use xlink:href="#m4c44a42e05" x="149.501919" y="487.145326" style="fill: #1f77b4; stroke: #1f77b4"/>
     <use xlink:href="#m4c44a42e05" x="168.202615" y="488.410505" style="fill: #1f77b4; stroke: #1f77b4"/>
     <use xlink:href="#m4c44a42e05" x="186.903312" y="475.327557" style="fill: #1f77b4; stroke: #1f77b4"/>
     <use xlink:href="#m4c44a42e05" x="205.604008" y="487.596827" style="fill: #1f77b4; stroke: #1f77b4"/>
     <use xlink:href="#m4c44a42e05" x="224.304705" y="488.415686" style="fill: #1f77b4; stroke: #1f77b4"/>
     <use xlink:href="#m4c44a42e05" x="243.005401" y="489.713847" style="fill: #1f77b4; stroke: #1f77b4"/>
     <use xlink:href="#m4c44a42e05" x="261.706098" y="457.081027" style="fill: #1f77b4; stroke: #1f77b4"/>
     <use xlink:href="#m4c44a42e05" x="280.406794" y="483.450798" style="fill: #1f77b4; stroke: #1f77b4"/>
     <use xlink:href="#m4c44a42e05" x="299.107491" y="486.101722" style="fill: #1f77b4; stroke: #1f77b4"/>
     <use xlink:href="#m4c44a42e05" x="317.808187" y="488.754486" style="fill: #1f77b4; stroke: #1f77b4"/>
     <use xlink:href="#m4c44a42e05" x="336.508884" y="490.455908" style="fill: #1f77b4; stroke: #1f77b4"/>
     <use xlink:href="#m4c44a42e05" x="355.20958" y="482.796643" style="fill: #1f77b4; stroke: #1f77b4"/>
     <use xlink:href="#m4c44a42e05" x="373.910277" y="488.14356" style="fill: #1f77b4; stroke: #1f77b4"/>
     <use xlink:href="#m4c44a42e05" x="411.31167" y="488.224408" style="fill: #1f77b4; stroke: #1f77b4"/>
     <use xlink:href="#m4c44a42e05" x="430.012366" y="490.992343" style="fill: #1f77b4; stroke: #1f77b4"/>
     <use xlink:href="#m4c44a42e05" x="448.713063" y="489.612786" style="fill: #1f77b4; stroke: #1f77b4"/>
     <use xlink:href="#m4c44a42e05" x="467.413759" y="487.665045" style="fill: #1f77b4; stroke: #1f77b4"/>
     <use xlink:href="#m4c44a42e05" x="486.114456" y="485.091497" style="fill: #1f77b4; stroke: #1f77b4"/>
     <use xlink:href="#m4c44a42e05" x="504.815152" y="485.139142" style="fill: #1f77b4; stroke: #1f77b4"/>
     <use xlink:href="#m4c44a42e05" x="523.515849" y="487.108851" style="fill: #1f77b4; stroke: #1f77b4"/>
     <use xlink:href="#m4c44a42e05" x="542.216545" y="489.465187" style="fill: #1f77b4; stroke: #1f77b4"/>
     <use xlink:href="#m4c44a42e05" x="560.917242" y="488.642446" style="fill: #1f77b4; stroke: #1f77b4"/>
     <use xlink:href="#m4c44a42e05" x="579.617938" y="475.771404" style="fill: #1f77b4; stroke: #1f77b4"/>
     <use xlink:href="#m4c44a42e05" x="617.019331" y="470.614423" style="fill: #1f77b4; stroke: #1f77b4"/>
     <use xlink:href="#m4c44a42e05" x="635.720027" y="487.595644" style="fill: #1f77b4; stroke: #1f77b4"/>
     <use xlink:href="#m4c44a42e05" x="654.420724" y="490.252334" style="fill: #1f77b4; stroke: #1f77b4"/>
     <use xlink:href="#m4c44a42e05" x="673.12142" y="488.974158" style="fill: #1f77b4; stroke: #1f77b4"/>
    </g>
   </g>
   <g id="line2d_19">
    <path d="M 93.39983 214.978781 
L 112.100526 182.906967 
L 130.801223 272.956006 
L 149.501919 182.029092 
L 168.202615 268.872976 
L 186.903312 274.785303 
L 205.604008 171.913022 
L 224.304705 270.679187 
L 243.005401 182.508331 
L 261.706098 270.8712 
L 280.406794 182.657976 
L 299.107491 183.510793 
L 317.808187 272.463822 
L 336.508884 182.405436 
L 355.20958 272.552038 
L 373.910277 181.404628 
L 411.31167 275.226397 
L 430.012366 183.724883 
L 448.713063 182.093211 
L 467.413759 183.676891 
L 486.114456 275.146352 
L 504.815152 181.106543 
L 523.515849 272.254953 
L 542.216545 272.203128 
L 560.917242 489.711083 
L 579.617938 487.792477 
L 617.019331 488.905576 
L 635.720027 487.110074 
L 654.420724 490.669798 
L 673.12142 488.46594 
" clip-path="url(#p430b0376f7)" style="fill: none; stroke: #ff7f0e; stroke-width: 2; stroke-linecap: square"/>
    <defs>
     <path id="m7c09c9b7a3" d="M 0 3 
C 0.795609 3 1.55874 2.683901 2.12132 2.12132 
C 2.683901 1.55874 3 0.795609 3 0 
C 3 -0.795609 2.683901 -1.55874 2.12132 -2.12132 
C 1.55874 -2.683901 0.795609 -3 0 -3 
C -0.795609 -3 -1.55874 -2.683901 -2.12132 -2.12132 
C -2.683901 -1.55874 -3 -0.795609 -3 0 
C -3 0.795609 -2.683901 1.55874 -2.12132 2.12132 
C -1.55874 2.683901 -0.795609 3 0 3 
z
" style="stroke: #ff7f0e"/>
    </defs>
    <g clip-path="url(#p430b0376f7)">
     <use xlink:href="#m7c09c9b7a3" x="93.39983" y="214.978781" style="fill: #ff7f0e; stroke: #ff7f0e"/>
     <use xlink:href="#m7c09c9b7a3" x="112.100526" y="182.906967" style="fill: #ff7f0e; stroke: #ff7f0e"/>
     <use xlink:href="#m7c09c9b7a3" x="130.801223" y="272.956006" style="fill: #ff7f0e; stroke: #ff7f0e"/>
     <use xlink:href="#m7c09c9b7a3" x="149.501919" y="182.029092" style="fill: #ff7f0e; stroke: #ff7f0e"/>
     <use xlink:href="#m7c09c9b7a3" x="168.202615" y="268.872976" style="fill: #ff7f0e; stroke: #ff7f0e"/>
     <use xlink:href="#m7c09c9b7a3" x="186.903312" y="274.785303" style="fill: #ff7f0e; stroke: #ff7f0e"/>
     <use xlink:href="#m7c09c9b7a3" x="205.604008" y="171.913022" style="fill: #ff7f0e; stroke: #ff7f0e"/>
     <use xlink:href="#m7c09c9b7a3" x="224.304705" y="270.679187" style="fill: #ff7f0e; stroke: #ff7f0e"/>
     <use xlink:href="#m7c09c9b7a3" x="243.005401" y="182.508331" style="fill: #ff7f0e; stroke: #ff7f0e"/>
     <use xlink:href="#m7c09c9b7a3" x="261.706098" y="270.8712" style="fill: #ff7f0e; stroke: #ff7f0e"/>
     <use xlink:href="#m7c09c9b7a3" x="280.406794" y="182.657976" style="fill: #ff7f0e; stroke: #ff7f0e"/>
     <use xlink:href="#m7c09c9b7a3" x="299.107491" y="183.510793" style="fill: #ff7f0e; stroke: #ff7f0e"/>
     <use xlink:href="#m7c09c9b7a3" x="317.808187" y="272.463822" style="fill: #ff7f0e; stroke: #ff7f0e"/>
     <use xlink:href="#m7c09c9b7a3" x="336.508884" y="182.405436" style="fill: #ff7f0e; stroke: #ff7f0e"/>
     <use xlink:href="#m7c09c9b7a3" x="355.20958" y="272.552038" style="fill: #ff7f0e; stroke: #ff7f0e"/>
     <use xlink:href="#m7c09c9b7a3" x="373.910277" y="181.404628" style="fill: #ff7f0e; stroke: #ff7f0e"/>
     <use xlink:href="#m7c09c9b7a3" x="411.31167" y="275.226397" style="fill: #ff7f0e; stroke: #ff7f0e"/>
     <use xlink:href="#m7c09c9b7a3" x="430.012366" y="183.724883" style="fill: #ff7f0e; stroke: #ff7f0e"/>
     <use xlink:href="#m7c09c9b7a3" x="448.713063" y="182.093211" style="fill: #ff7f0e; stroke: #ff7f0e"/>
     <use xlink:href="#m7c09c9b7a3" x="467.413759" y="183.676891" style="fill: #ff7f0e; stroke: #ff7f0e"/>
     <use xlink:href="#m7c09c9b7a3" x="486.114456" y="275.146352" style="fill: #ff7f0e; stroke: #ff7f0e"/>
     <use xlink:href="#m7c09c9b7a3" x="504.815152" y="181.106543" style="fill: #ff7f0e; stroke: #ff7f0e"/>
     <use xlink:href="#m7c09c9b7a3" x="523.515849" y="272.254953" style="fill: #ff7f0e; stroke: #ff7f0e"/>
     <use xlink:href="#m7c09c9b7a3" x="542.216545" y="272.203128" style="fill: #ff7f0e; stroke: #ff7f0e"/>
     <use xlink:href="#m7c09c9b7a3" x="560.917242" y="489.711083" style="fill: #ff7f0e; stroke: #ff7f0e"/>
     <use xlink:href="#m7c09c9b7a3" x="579.617938" y="487.792477" style="fill: #ff7f0e; stroke: #ff7f0e"/>
     <use xlink:href="#m7c09c9b7a3" x="617.019331" y="488.905576" style="fill: #ff7f0e; stroke: #ff7f0e"/>
     <use xlink:href="#m7c09c9b7a3" x="635.720027" y="487.110074" style="fill: #ff7f0e; stroke: #ff7f0e"/>
     <use xlink:href="#m7c09c9b7a3" x="654.420724" y="490.669798" style="fill: #ff7f0e; stroke: #ff7f0e"/>
     <use xlink:href="#m7c09c9b7a3" x="673.12142" y="488.46594" style="fill: #ff7f0e; stroke: #ff7f0e"/>
    </g>
   </g>
   <g id="line2d_20">
    <path d="M 93.39983 506.332202 
L 112.100526 488.22548 
L 130.801223 487.132838 
L 149.501919 488.186015 
L 168.202615 486.766103 
L 186.903312 489.39061 
L 205.604008 488.226181 
L 224.304705 487.796971 
L 243.005401 488.498719 
L 261.706098 489.635154 
L 280.406794 487.489777 
L 299.107491 488.674621 
L 317.808187 488.025081 
L 336.508884 486.62109 
L 355.20958 488.454844 
L 373.910277 487.47967 
L 411.31167 488.84933 
L 430.012366 488.865783 
L 448.713063 488.877107 
L 467.413759 487.310761 
L 486.114456 485.899652 
L 504.815152 488.616735 
L 523.515849 489.033189 
L 542.216545 489.763866 
L 560.917242 488.529815 
L 579.617938 486.353552 
L 617.019331 488.038332 
L 635.720027 488.389339 
L 654.420724 488.955913 
L 673.12142 489.2194 
" clip-path="url(#p430b0376f7)" style="fill: none; stroke: #2ca02c; stroke-width: 2; stroke-linecap: square"/>
    <defs>
     <path id="m7e7becd5a4" d="M 0 3 
C 0.795609 3 1.55874 2.683901 2.12132 2.12132 
C 2.683901 1.55874 3 0.795609 3 0 
C 3 -0.795609 2.683901 -1.55874 2.12132 -2.12132 
C 1.55874 -2.683901 0.795609 -3 0 -3 
C -0.795609 -3 -1.55874 -2.683901 -2.12132 -2.12132 
C -2.683901 -1.55874 -3 -0.795609 -3 0 
C -3 0.795609 -2.683901 1.55874 -2.12132 2.12132 
C -1.55874 2.683901 -0.795609 3 0 3 
z
" style="stroke: #2ca02c"/>
    </defs>
    <g clip-path="url(#p430b0376f7)">
     <use xlink:href="#m7e7becd5a4" x="93.39983" y="506.332202" style="fill: #2ca02c; stroke: #2ca02c"/>
     <use xlink:href="#m7e7becd5a4" x="112.100526" y="488.22548" style="fill: #2ca02c; stroke: #2ca02c"/>
     <use xlink:href="#m7e7becd5a4" x="130.801223" y="487.132838" style="fill: #2ca02c; stroke: #2ca02c"/>
     <use xlink:href="#m7e7becd5a4" x="149.501919" y="488.186015" style="fill: #2ca02c; stroke: #2ca02c"/>
     <use xlink:href="#m7e7becd5a4" x="168.202615" y="486.766103" style="fill: #2ca02c; stroke: #2ca02c"/>
     <use xlink:href="#m7e7becd5a4" x="186.903312" y="489.39061" style="fill: #2ca02c; stroke: #2ca02c"/>
     <use xlink:href="#m7e7becd5a4" x="205.604008" y="488.226181" style="fill: #2ca02c; stroke: #2ca02c"/>
     <use xlink:href="#m7e7becd5a4" x="224.304705" y="487.796971" style="fill: #2ca02c; stroke: #2ca02c"/>
     <use xlink:href="#m7e7becd5a4" x="243.005401" y="488.498719" style="fill: #2ca02c; stroke: #2ca02c"/>
     <use xlink:href="#m7e7becd5a4" x="261.706098" y="489.635154" style="fill: #2ca02c; stroke: #2ca02c"/>
     <use xlink:href="#m7e7becd5a4" x="280.406794" y="487.489777" style="fill: #2ca02c; stroke: #2ca02c"/>
     <use xlink:href="#m7e7becd5a4" x="299.107491" y="488.674621" style="fill: #2ca02c; stroke: #2ca02c"/>
     <use xlink:href="#m7e7becd5a4" x="317.808187" y="488.025081" style="fill: #2ca02c; stroke: #2ca02c"/>
     <use xlink:href="#m7e7becd5a4" x="336.508884" y="486.62109" style="fill: #2ca02c; stroke: #2ca02c"/>
     <use xlink:href="#m7e7becd5a4" x="355.20958" y="488.454844" style="fill: #2ca02c; stroke: #2ca02c"/>
     <use xlink:href="#m7e7becd5a4" x="373.910277" y="487.47967" style="fill: #2ca02c; stroke: #2ca02c"/>
     <use xlink:href="#m7e7becd5a4" x="411.31167" y="488.84933" style="fill: #2ca02c; stroke: #2ca02c"/>
     <use xlink:href="#m7e7becd5a4" x="430.012366" y="488.865783" style="fill: #2ca02c; stroke: #2ca02c"/>
     <use xlink:href="#m7e7becd5a4" x="448.713063" y="488.877107" style="fill: #2ca02c; stroke: #2ca02c"/>
     <use xlink:href="#m7e7becd5a4" x="467.413759" y="487.310761" style="fill: #2ca02c; stroke: #2ca02c"/>
     <use xlink:href="#m7e7becd5a4" x="486.114456" y="485.899652" style="fill: #2ca02c; stroke: #2ca02c"/>
     <use xlink:href="#m7e7becd5a4" x="504.815152" y="488.616735" style="fill: #2ca02c; stroke: #2ca02c"/>
     <use xlink:href="#m7e7becd5a4" x="523.515849" y="489.033189" style="fill: #2ca02c; stroke: #2ca02c"/>
     <use xlink:href="#m7e7becd5a4" x="542.216545" y="489.763866" style="fill: #2ca02c; stroke: #2ca02c"/>
     <use xlink:href="#m7e7becd5a4" x="560.917242" y="488.529815" style="fill: #2ca02c; stroke: #2ca02c"/>
     <use xlink:href="#m7e7becd5a4" x="579.617938" y="486.353552" style="fill: #2ca02c; stroke: #2ca02c"/>
     <use xlink:href="#m7e7becd5a4" x="617.019331" y="488.038332" style="fill: #2ca02c; stroke: #2ca02c"/>
     <use xlink:href="#m7e7becd5a4" x="635.720027" y="488.389339" style="fill: #2ca02c; stroke: #2ca02c"/>
     <use xlink:href="#m7e7becd5a4" x="654.420724" y="488.955913" style="fill: #2ca02c; stroke: #2ca02c"/>
     <use xlink:href="#m7e7becd5a4" x="673.12142" y="489.2194" style="fill: #2ca02c; stroke: #2ca02c"/>
    </g>
   </g>
   <g id="line2d_21">
    <path d="M 93.39983 284.582811 
L 112.100526 287.362379 
L 130.801223 286.431637 
L 149.501919 285.037666 
L 168.202615 287.11432 
L 186.903312 282.282277 
L 205.604008 283.577155 
L 224.304705 286.238334 
L 243.005401 283.759492 
L 261.706098 286.297496 
L 280.406794 287.752534 
L 299.107491 281.162939 
L 317.808187 284.020288 
L 355.20958 284.844574 
L 373.910277 286.186715 
L 411.31167 289.351632 
L 430.012366 287.698079 
L 448.713063 284.38334 
L 467.413759 285.367533 
L 486.114456 285.749032 
L 523.515849 286.351667 
L 542.216545 288.068451 
L 560.917242 286.273402 
L 579.617938 282.389277 
L 617.019331 285.068925 
L 635.720027 282.095847 
L 654.420724 285.504043 
L 673.12142 284.925507 
" clip-path="url(#p430b0376f7)" style="fill: none; stroke: #d62728; stroke-width: 2; stroke-linecap: square"/>
    <defs>
     <path id="m3751b5ef64" d="M 0 3 
C 0.795609 3 1.55874 2.683901 2.12132 2.12132 
C 2.683901 1.55874 3 0.795609 3 0 
C 3 -0.795609 2.683901 -1.55874 2.12132 -2.12132 
C 1.55874 -2.683901 0.795609 -3 0 -3 
C -0.795609 -3 -1.55874 -2.683901 -2.12132 -2.12132 
C -2.683901 -1.55874 -3 -0.795609 -3 0 
C -3 0.795609 -2.683901 1.55874 -2.12132 2.12132 
C -1.55874 2.683901 -0.795609 3 0 3 
z
" style="stroke: #d62728"/>
    </defs>
    <g clip-path="url(#p430b0376f7)">
     <use xlink:href="#m3751b5ef64" x="93.39983" y="284.582811" style="fill: #d62728; stroke: #d62728"/>
     <use xlink:href="#m3751b5ef64" x="112.100526" y="287.362379" style="fill: #d62728; stroke: #d62728"/>
     <use xlink:href="#m3751b5ef64" x="130.801223" y="286.431637" style="fill: #d62728; stroke: #d62728"/>
     <use xlink:href="#m3751b5ef64" x="149.501919" y="285.037666" style="fill: #d62728; stroke: #d62728"/>
     <use xlink:href="#m3751b5ef64" x="168.202615" y="287.11432" style="fill: #d62728; stroke: #d62728"/>
     <use xlink:href="#m3751b5ef64" x="186.903312" y="282.282277" style="fill: #d62728; stroke: #d62728"/>
     <use xlink:href="#m3751b5ef64" x="205.604008" y="283.577155" style="fill: #d62728; stroke: #d62728"/>
     <use xlink:href="#m3751b5ef64" x="224.304705" y="286.238334" style="fill: #d62728; stroke: #d62728"/>
     <use xlink:href="#m3751b5ef64" x="243.005401" y="283.759492" style="fill: #d62728; stroke: #d62728"/>
     <use xlink:href="#m3751b5ef64" x="261.706098" y="286.297496" style="fill: #d62728; stroke: #d62728"/>
     <use xlink:href="#m3751b5ef64" x="280.406794" y="287.752534" style="fill: #d62728; stroke: #d62728"/>
     <use xlink:href="#m3751b5ef64" x="299.107491" y="281.162939" style="fill: #d62728; stroke: #d62728"/>
     <use xlink:href="#m3751b5ef64" x="317.808187" y="284.020288" style="fill: #d62728; stroke: #d62728"/>
     <use xlink:href="#m3751b5ef64" x="355.20958" y="284.844574" style="fill: #d62728; stroke: #d62728"/>
     <use xlink:href="#m3751b5ef64" x="373.910277" y="286.186715" style="fill: #d62728; stroke: #d62728"/>
     <use xlink:href="#m3751b5ef64" x="411.31167" y="289.351632" style="fill: #d62728; stroke: #d62728"/>
     <use xlink:href="#m3751b5ef64" x="430.012366" y="287.698079" style="fill: #d62728; stroke: #d62728"/>
     <use xlink:href="#m3751b5ef64" x="448.713063" y="284.38334" style="fill: #d62728; stroke: #d62728"/>
     <use xlink:href="#m3751b5ef64" x="467.413759" y="285.367533" style="fill: #d62728; stroke: #d62728"/>
     <use xlink:href="#m3751b5ef64" x="486.114456" y="285.749032" style="fill: #d62728; stroke: #d62728"/>
     <use xlink:href="#m3751b5ef64" x="523.515849" y="286.351667" style="fill: #d62728; stroke: #d62728"/>
     <use xlink:href="#m3751b5ef64" x="542.216545" y="288.068451" style="fill: #d62728; stroke: #d62728"/>
     <use xlink:href="#m3751b5ef64" x="560.917242" y="286.273402" style="fill: #d62728; stroke: #d62728"/>
     <use xlink:href="#m3751b5ef64" x="579.617938" y="282.389277" style="fill: #d62728; stroke: #d62728"/>
     <use xlink:href="#m3751b5ef64" x="617.019331" y="285.068925" style="fill: #d62728; stroke: #d62728"/>
     <use xlink:href="#m3751b5ef64" x="635.720027" y="282.095847" style="fill: #d62728; stroke: #d62728"/>
     <use xlink:href="#m3751b5ef64" x="654.420724" y="285.504043" style="fill: #d62728; stroke: #d62728"/>
     <use xlink:href="#m3751b5ef64" x="673.12142" y="284.925507" style="fill: #d62728; stroke: #d62728"/>
    </g>
   </g>
   <g id="line2d_22">
    <path d="M 93.39983 72.672576 
L 112.100526 71.170534 
L 130.801223 171.757446 
L 149.501919 76.360371 
L 168.202615 175.593608 
L 186.903312 76.238119 
L 205.604008 75.280247 
L 224.304705 75.944887 
L 243.005401 77.695079 
L 261.706098 79.242966 
L 280.406794 75.394225 
L 299.107491 76.179059 
L 317.808187 75.413168 
L 355.20958 46.813736 
L 373.910277 74.863866 
L 411.31167 74.899226 
L 430.012366 77.920815 
L 448.713063 75.090369 
L 467.413759 177.096391 
L 486.114456 134.163695 
L 523.515849 76.118159 
L 542.216545 76.587946 
L 560.917242 285.646284 
L 579.617938 287.55 
L 617.019331 287.78835 
L 635.720027 287.574042 
L 654.420724 288.297225 
L 673.12142 285.365389 
" clip-path="url(#p430b0376f7)" style="fill: none; stroke: #9467bd; stroke-width: 2; stroke-linecap: square"/>
    <defs>
     <path id="m40caa68c6f" d="M 0 3 
C 0.795609 3 1.55874 2.683901 2.12132 2.12132 
C 2.683901 1.55874 3 0.795609 3 0 
C 3 -0.795609 2.683901 -1.55874 2.12132 -2.12132 
C 1.55874 -2.683901 0.795609 -3 0 -3 
C -0.795609 -3 -1.55874 -2.683901 -2.12132 -2.12132 
C -2.683901 -1.55874 -3 -0.795609 -3 0 
C -3 0.795609 -2.683901 1.55874 -2.12132 2.12132 
C -1.55874 2.683901 -0.795609 3 0 3 
z
" style="stroke: #9467bd"/>
    </defs>
    <g clip-path="url(#p430b0376f7)">
     <use xlink:href="#m40caa68c6f" x="93.39983" y="72.672576" style="fill: #9467bd; stroke: #9467bd"/>
     <use xlink:href="#m40caa68c6f" x="112.100526" y="71.170534" style="fill: #9467bd; stroke: #9467bd"/>
     <use xlink:href="#m40caa68c6f" x="130.801223" y="171.757446" style="fill: #9467bd; stroke: #9467bd"/>
     <use xlink:href="#m40caa68c6f" x="149.501919" y="76.360371" style="fill: #9467bd; stroke: #9467bd"/>
     <use xlink:href="#m40caa68c6f" x="168.202615" y="175.593608" style="fill: #9467bd; stroke: #9467bd"/>
     <use xlink:href="#m40caa68c6f" x="186.903312" y="76.238119" style="fill: #9467bd; stroke: #9467bd"/>
     <use xlink:href="#m40caa68c6f" x="205.604008" y="75.280247" style="fill: #9467bd; stroke: #9467bd"/>
     <use xlink:href="#m40caa68c6f" x="224.304705" y="75.944887" style="fill: #9467bd; stroke: #9467bd"/>
     <use xlink:href="#m40caa68c6f" x="243.005401" y="77.695079" style="fill: #9467bd; stroke: #9467bd"/>
     <use xlink:href="#m40caa68c6f" x="261.706098" y="79.242966" style="fill: #9467bd; stroke: #9467bd"/>
     <use xlink:href="#m40caa68c6f" x="280.406794" y="75.394225" style="fill: #9467bd; stroke: #9467bd"/>
     <use xlink:href="#m40caa68c6f" x="299.107491" y="76.179059" style="fill: #9467bd; stroke: #9467bd"/>
     <use xlink:href="#m40caa68c6f" x="317.808187" y="75.413168" style="fill: #9467bd; stroke: #9467bd"/>
     <use xlink:href="#m40caa68c6f" x="355.20958" y="46.813736" style="fill: #9467bd; stroke: #9467bd"/>
     <use xlink:href="#m40caa68c6f" x="373.910277" y="74.863866" style="fill: #9467bd; stroke: #9467bd"/>
     <use xlink:href="#m40caa68c6f" x="411.31167" y="74.899226" style="fill: #9467bd; stroke: #9467bd"/>
     <use xlink:href="#m40caa68c6f" x="430.012366" y="77.920815" style="fill: #9467bd; stroke: #9467bd"/>
     <use xlink:href="#m40caa68c6f" x="448.713063" y="75.090369" style="fill: #9467bd; stroke: #9467bd"/>
     <use xlink:href="#m40caa68c6f" x="467.413759" y="177.096391" style="fill: #9467bd; stroke: #9467bd"/>
     <use xlink:href="#m40caa68c6f" x="486.114456" y="134.163695" style="fill: #9467bd; stroke: #9467bd"/>
     <use xlink:href="#m40caa68c6f" x="523.515849" y="76.118159" style="fill: #9467bd; stroke: #9467bd"/>
     <use xlink:href="#m40caa68c6f" x="542.216545" y="76.587946" style="fill: #9467bd; stroke: #9467bd"/>
     <use xlink:href="#m40caa68c6f" x="560.917242" y="285.646284" style="fill: #9467bd; stroke: #9467bd"/>
     <use xlink:href="#m40caa68c6f" x="579.617938" y="287.55" style="fill: #9467bd; stroke: #9467bd"/>
     <use xlink:href="#m40caa68c6f" x="617.019331" y="287.78835" style="fill: #9467bd; stroke: #9467bd"/>
     <use xlink:href="#m40caa68c6f" x="635.720027" y="287.574042" style="fill: #9467bd; stroke: #9467bd"/>
     <use xlink:href="#m40caa68c6f" x="654.420724" y="288.297225" style="fill: #9467bd; stroke: #9467bd"/>
     <use xlink:href="#m40caa68c6f" x="673.12142" y="285.365389" style="fill: #9467bd; stroke: #9467bd"/>
    </g>
   </g>
   <g id="line2d_23">
    <path d="M 93.39983 288.410145 
L 112.100526 287.725399 
L 130.801223 287.42418 
L 149.501919 287.301725 
L 168.202615 289.195523 
L 186.903312 288.223477 
L 205.604008 287.868621 
L 224.304705 288.889558 
L 243.005401 288.158774 
L 261.706098 288.526643 
L 280.406794 287.650844 
L 299.107491 289.356014 
L 317.808187 285.698464 
L 355.20958 285.728186 
L 373.910277 288.513851 
L 411.31167 294.187616 
L 430.012366 288.180987 
L 448.713063 288.032356 
L 467.413759 287.944953 
L 486.114456 287.058117 
L 523.515849 288.654389 
L 542.216545 288.311479 
L 560.917242 286.780635 
L 579.617938 288.80425 
L 617.019331 288.417364 
L 635.720027 286.563061 
L 654.420724 287.377873 
L 673.12142 287.334677 
" clip-path="url(#p430b0376f7)" style="fill: none; stroke: #8c564b; stroke-width: 2; stroke-linecap: square"/>
    <defs>
     <path id="mf4d6fa2000" d="M 0 3 
C 0.795609 3 1.55874 2.683901 2.12132 2.12132 
C 2.683901 1.55874 3 0.795609 3 0 
C 3 -0.795609 2.683901 -1.55874 2.12132 -2.12132 
C 1.55874 -2.683901 0.795609 -3 0 -3 
C -0.795609 -3 -1.55874 -2.683901 -2.12132 -2.12132 
C -2.683901 -1.55874 -3 -0.795609 -3 0 
C -3 0.795609 -2.683901 1.55874 -2.12132 2.12132 
C -1.55874 2.683901 -0.795609 3 0 3 
z
" style="stroke: #8c564b"/>
    </defs>
    <g clip-path="url(#p430b0376f7)">
     <use xlink:href="#mf4d6fa2000" x="93.39983" y="288.410145" style="fill: #8c564b; stroke: #8c564b"/>
     <use xlink:href="#mf4d6fa2000" x="112.100526" y="287.725399" style="fill: #8c564b; stroke: #8c564b"/>
     <use xlink:href="#mf4d6fa2000" x="130.801223" y="287.42418" style="fill: #8c564b; stroke: #8c564b"/>
     <use xlink:href="#mf4d6fa2000" x="149.501919" y="287.301725" style="fill: #8c564b; stroke: #8c564b"/>
     <use xlink:href="#mf4d6fa2000" x="168.202615" y="289.195523" style="fill: #8c564b; stroke: #8c564b"/>
     <use xlink:href="#mf4d6fa2000" x="186.903312" y="288.223477" style="fill: #8c564b; stroke: #8c564b"/>
     <use xlink:href="#mf4d6fa2000" x="205.604008" y="287.868621" style="fill: #8c564b; stroke: #8c564b"/>
     <use xlink:href="#mf4d6fa2000" x="224.304705" y="288.889558" style="fill: #8c564b; stroke: #8c564b"/>
     <use xlink:href="#mf4d6fa2000" x="243.005401" y="288.158774" style="fill: #8c564b; stroke: #8c564b"/>
     <use xlink:href="#mf4d6fa2000" x="261.706098" y="288.526643" style="fill: #8c564b; stroke: #8c564b"/>
     <use xlink:href="#mf4d6fa2000" x="280.406794" y="287.650844" style="fill: #8c564b; stroke: #8c564b"/>
     <use xlink:href="#mf4d6fa2000" x="299.107491" y="289.356014" style="fill: #8c564b; stroke: #8c564b"/>
     <use xlink:href="#mf4d6fa2000" x="317.808187" y="285.698464" style="fill: #8c564b; stroke: #8c564b"/>
     <use xlink:href="#mf4d6fa2000" x="355.20958" y="285.728186" style="fill: #8c564b; stroke: #8c564b"/>
     <use xlink:href="#mf4d6fa2000" x="373.910277" y="288.513851" style="fill: #8c564b; stroke: #8c564b"/>
     <use xlink:href="#mf4d6fa2000" x="411.31167" y="294.187616" style="fill: #8c564b; stroke: #8c564b"/>
     <use xlink:href="#mf4d6fa2000" x="430.012366" y="288.180987" style="fill: #8c564b; stroke: #8c564b"/>
     <use xlink:href="#mf4d6fa2000" x="448.713063" y="288.032356" style="fill: #8c564b; stroke: #8c564b"/>
     <use xlink:href="#mf4d6fa2000" x="467.413759" y="287.944953" style="fill: #8c564b; stroke: #8c564b"/>
     <use xlink:href="#mf4d6fa2000" x="486.114456" y="287.058117" style="fill: #8c564b; stroke: #8c564b"/>
     <use xlink:href="#mf4d6fa2000" x="523.515849" y="288.654389" style="fill: #8c564b; stroke: #8c564b"/>
     <use xlink:href="#mf4d6fa2000" x="542.216545" y="288.311479" style="fill: #8c564b; stroke: #8c564b"/>
     <use xlink:href="#mf4d6fa2000" x="560.917242" y="286.780635" style="fill: #8c564b; stroke: #8c564b"/>
     <use xlink:href="#mf4d6fa2000" x="579.617938" y="288.80425" style="fill: #8c564b; stroke: #8c564b"/>
     <use xlink:href="#mf4d6fa2000" x="617.019331" y="288.417364" style="fill: #8c564b; stroke: #8c564b"/>
     <use xlink:href="#mf4d6fa2000" x="635.720027" y="286.563061" style="fill: #8c564b; stroke: #8c564b"/>
     <use xlink:href="#mf4d6fa2000" x="654.420724" y="287.377873" style="fill: #8c564b; stroke: #8c564b"/>
     <use xlink:href="#mf4d6fa2000" x="673.12142" y="287.334677" style="fill: #8c564b; stroke: #8c564b"/>
    </g>
   </g>
   <g id="patch_3">
    <path d="M 64.41375 529.308125 
L 64.41375 23.837812 
" style="fill: none; stroke: #000000; stroke-width: 0.8; stroke-linejoin: miter; stroke-linecap: square"/>
   </g>
   <g id="patch_4">
    <path d="M 702.1075 529.308125 
L 702.1075 23.837812 
" style="fill: none; stroke: #000000; stroke-width: 0.8; stroke-linejoin: miter; stroke-linecap: square"/>
   </g>
   <g id="patch_5">
    <path d="M 64.41375 529.308125 
L 702.1075 529.308125 
" style="fill: none; stroke: #000000; stroke-width: 0.8; stroke-linejoin: miter; stroke-linecap: square"/>
   </g>
   <g id="patch_6">
    <path d="M 64.41375 23.837812 
L 702.1075 23.837812 
" style="fill: none; stroke: #000000; stroke-width: 0.8; stroke-linejoin: miter; stroke-linecap: square"/>
   </g>
   <g id="text_13">
    <text style="font: 700 14px 'DejaVu Sans', 'Bitstream Vera Sans', 'Computer Modern Sans Serif', 'Lucida Grande', 'Verdana', 'Geneva', 'Lucid', 'Arial', 'Helvetica', 'Avant Garde', sans-serif; text-anchor: middle" x="383.260625" y="17.837813" transform="rotate(-0 383.260625 17.837813)">Taskthroughput - Performance Trend</text>
   </g>
   <g id="legend_1">
    <g id="patch_7">
     <path d="M 740.992188 119.906563 
L 846.004688 119.906563 
Q 848.004688 119.906563 848.004688 117.906563 
L 848.004688 30.837813 
Q 848.004688 28.837813 846.004688 28.837813 
L 740.992188 28.837813 
Q 738.992188 28.837813 738.992188 30.837813 
L 738.992188 117.906563 
Q 738.992188 119.906563 740.992188 119.906563 
z
" style="fill: #ffffff; opacity: 0.8; stroke: #cccccc; stroke-linejoin: miter"/>
    </g>
    <g id="line2d_24">
     <path d="M 742.992188 36.93625 
L 752.992188 36.93625 
L 762.992188 36.93625 
" style="fill: none; stroke: #1f77b4; stroke-width: 2; stroke-linecap: square"/>
     <g>
      <use xlink:href="#m4c44a42e05" x="752.992188" y="36.93625" style="fill: #1f77b4; stroke: #1f77b4"/>
     </g>
    </g>
    <g id="text_14">
     <text style="font: 10px 'DejaVu Sans', 'Bitstream Vera Sans', 'Computer Modern Sans Serif', 'Lucida Grande', 'Verdana', 'Geneva', 'Lucid', 'Arial', 'Helvetica', 'Avant Garde', sans-serif; text-anchor: start" x="770.992188" y="40.43625" transform="rotate(-0 770.992188 40.43625)">gcc-14.2 - V1</text>
    </g>
    <g id="line2d_25">
     <path d="M 742.992188 51.614375 
L 752.992188 51.614375 
L 762.992188 51.614375 
" style="fill: none; stroke: #ff7f0e; stroke-width: 2; stroke-linecap: square"/>
     <g>
      <use xlink:href="#m7c09c9b7a3" x="752.992188" y="51.614375" style="fill: #ff7f0e; stroke: #ff7f0e"/>
     </g>
    </g>
    <g id="text_15">
     <text style="font: 10px 'DejaVu Sans', 'Bitstream Vera Sans', 'Computer Modern Sans Serif', 'Lucida Grande', 'Verdana', 'Geneva', 'Lucid', 'Arial', 'Helvetica', 'Avant Garde', sans-serif; text-anchor: start" x="770.992188" y="55.114375" transform="rotate(-0 770.992188 55.114375)">gcc-14.2 - V2</text>
    </g>
    <g id="line2d_26">
     <path d="M 742.992188 66.2925 
L 752.992188 66.2925 
L 762.992188 66.2925 
" style="fill: none; stroke: #2ca02c; stroke-width: 2; stroke-linecap: square"/>
     <g>
      <use xlink:href="#m7e7becd5a4" x="752.992188" y="66.2925" style="fill: #2ca02c; stroke: #2ca02c"/>
     </g>
    </g>
    <g id="text_16">
     <text style="font: 10px 'DejaVu Sans', 'Bitstream Vera Sans', 'Computer Modern Sans Serif', 'Lucida Grande', 'Verdana', 'Geneva', 'Lucid', 'Arial', 'Helvetica', 'Avant Garde', sans-serif; text-anchor: start" x="770.992188" y="69.7925" transform="rotate(-0 770.992188 69.7925)">gcc-14.2 - TBB</text>
    </g>
    <g id="line2d_27">
     <path d="M 742.992188 80.970625 
L 752.992188 80.970625 
L 762.992188 80.970625 
" style="fill: none; stroke: #d62728; stroke-width: 2; stroke-linecap: square"/>
     <g>
      <use xlink:href="#m3751b5ef64" x="752.992188" y="80.970625" style="fill: #d62728; stroke: #d62728"/>
     </g>
    </g>
    <g id="text_17">
     <text style="font: 10px 'DejaVu Sans', 'Bitstream Vera Sans', 'Computer Modern Sans Serif', 'Lucida Grande', 'Verdana', 'Geneva', 'Lucid', 'Arial', 'Helvetica', 'Avant Garde', sans-serif; text-anchor: start" x="770.992188" y="84.470625" transform="rotate(-0 770.992188 84.470625)">gcc-4.2 - V1</text>
    </g>
    <g id="line2d_28">
     <path d="M 742.992188 95.64875 
L 752.992188 95.64875 
L 762.992188 95.64875 
" style="fill: none; stroke: #9467bd; stroke-width: 2; stroke-linecap: square"/>
     <g>
      <use xlink:href="#m40caa68c6f" x="752.992188" y="95.64875" style="fill: #9467bd; stroke: #9467bd"/>
     </g>
    </g>
    <g id="text_18">
     <text style="font: 10px 'DejaVu Sans', 'Bitstream Vera Sans', 'Computer Modern Sans Serif', 'Lucida Grande', 'Verdana', 'Geneva', 'Lucid', 'Arial', 'Helvetica', 'Avant Garde', sans-serif; text-anchor: start" x="770.992188" y="99.14875" transform="rotate(-0 770.992188 99.14875)">gcc-4.2 - V2</text>
    </g>
    <g id="line2d_29">
     <path d="M 742.992188 110.326875 
L 752.992188 110.326875 
L 762.992188 110.326875 
" style="fill: none; stroke: #8c564b; stroke-width: 2; stroke-linecap: square"/>
     <g>
      <use xlink:href="#mf4d6fa2000" x="752.992188" y="110.326875" style="fill: #8c564b; stroke: #8c564b"/>
     </g>
    </g>
    <g id="text_19">
     <text style="font: 10px 'DejaVu Sans', 'Bitstream Vera Sans', 'Computer Modern Sans Serif', 'Lucida Grande', 'Verdana', 'Geneva', 'Lucid', 'Arial', 'Helvetica', 'Avant Garde', sans-serif; text-anchor: start" x="770.992188" y="113.826875" transform="rotate(-0 770.992188 113.826875)">gcc-4.2 - TBB</text>
    </g>
   </g>
  </g>
 </g>
 <defs>
  <clipPath id="p430b0376f7">
   <rect x="64.41375" y="23.837813" width="637.69375" height="505.470313"/>
  </clipPath>
 </defs>
</svg>
