<?xml version="1.0" encoding="utf-8" standalone="no"?>
<!DOCTYPE svg PUBLIC "-//W3C//DTD SVG 1.1//EN"
  "http://www.w3.org/Graphics/SVG/1.1/DTD/svg11.dtd">
<svg xmlns:xlink="http://www.w3.org/1999/xlink" width="855.204687pt" height="568.8pt" viewBox="0 0 855.204687 568.8" xmlns="http://www.w3.org/2000/svg" version="1.1">
 <metadata>
  <rdf:RDF xmlns:dc="http://purl.org/dc/elements/1.1/" xmlns:cc="http://creativecommons.org/ns#" xmlns:rdf="http://www.w3.org/1999/02/22-rdf-syntax-ns#">
   <cc:Work>
    <dc:type rdf:resource="http://purl.org/dc/dcmitype/StillImage"/>
    <dc:date>2025-08-22T16:20:12.276612</dc:date>
    <dc:format>image/svg+xml</dc:format>
    <dc:creator>
     <cc:Agent>
      <dc:title>Matplotlib v3.9.4, https://matplotlib.org/</dc:title>
     </cc:Agent>
    </dc:creator>
   </cc:Work>
  </rdf:RDF>
 </metadata>
 <defs>
  <style type="text/css">*{stroke-linejoin: round; stroke-linecap: butt}</style>
 </defs>
 <g id="figure_1">
  <g id="patch_1">
   <path d="M 0 568.8 
L 855.204687 568.8 
L 855.204687 0 
L 0 0 
z
" style="fill: #ffffff"/>
  </g>
  <g id="axes_1">
   <g id="patch_2">
    <path d="M 64.41375 529.308125 
L 702.1075 529.308125 
L 702.1075 23.837812 
L 64.41375 23.837812 
z
" style="fill: #ffffff"/>
   </g>
   <g id="matplotlib.axis_1">
    <g id="xtick_1">
     <g id="line2d_1">
      <path d="M 73.40943 529.308125 
L 73.40943 23.837812 
" clip-path="url(#p46bfc3101e)" style="fill: none; stroke: #b0b0b0; stroke-opacity: 0.3; stroke-width: 0.8; stroke-linecap: square"/>
     </g>
     <g id="line2d_2">
      <defs>
       <path id="ma2e8db7f6c" d="M 0 0 
L 0 3.5 
" style="stroke: #000000; stroke-width: 0.8"/>
      </defs>
      <g>
       <use xlink:href="#ma2e8db7f6c" x="73.40943" y="529.308125" style="stroke: #000000; stroke-width: 0.8"/>
      </g>
     </g>
     <g id="text_1">
      <text style="font: 10px 'DejaVu Sans', 'Bitstream Vera Sans', 'Computer Modern Sans Serif', 'Lucida Grande', 'Verdana', 'Geneva', 'Lucid', 'Arial', 'Helvetica', 'Avant Garde', sans-serif; text-anchor: middle" x="73.40943" y="543.906563" transform="rotate(-0 73.40943 543.906563)">70</text>
     </g>
    </g>
    <g id="xtick_2">
     <g id="line2d_3">
      <path d="M 173.361428 529.308125 
L 173.361428 23.837812 
" clip-path="url(#p46bfc3101e)" style="fill: none; stroke: #b0b0b0; stroke-opacity: 0.3; stroke-width: 0.8; stroke-linecap: square"/>
     </g>
     <g id="line2d_4">
      <g>
       <use xlink:href="#ma2e8db7f6c" x="173.361428" y="529.308125" style="stroke: #000000; stroke-width: 0.8"/>
      </g>
     </g>
     <g id="text_2">
      <text style="font: 10px 'DejaVu Sans', 'Bitstream Vera Sans', 'Computer Modern Sans Serif', 'Lucida Grande', 'Verdana', 'Geneva', 'Lucid', 'Arial', 'Helvetica', 'Avant Garde', sans-serif; text-anchor: middle" x="173.361428" y="543.906563" transform="rotate(-0 173.361428 543.906563)">75</text>
     </g>
    </g>
    <g id="xtick_3">
     <g id="line2d_5">
      <path d="M 273.313427 529.308125 
L 273.313427 23.837812 
" clip-path="url(#p46bfc3101e)" style="fill: none; stroke: #b0b0b0; stroke-opacity: 0.3; stroke-width: 0.8; stroke-linecap: square"/>
     </g>
     <g id="line2d_6">
      <g>
       <use xlink:href="#ma2e8db7f6c" x="273.313427" y="529.308125" style="stroke: #000000; stroke-width: 0.8"/>
      </g>
     </g>
     <g id="text_3">
      <text style="font: 10px 'DejaVu Sans', 'Bitstream Vera Sans', 'Computer Modern Sans Serif', 'Lucida Grande', 'Verdana', 'Geneva', 'Lucid', 'Arial', 'Helvetica', 'Avant Garde', sans-serif; text-anchor: middle" x="273.313427" y="543.906563" transform="rotate(-0 273.313427 543.906563)">80</text>
     </g>
    </g>
    <g id="xtick_4">
     <g id="line2d_7">
      <path d="M 373.265425 529.308125 
L 373.265425 23.837812 
" clip-path="url(#p46bfc3101e)" style="fill: none; stroke: #b0b0b0; stroke-opacity: 0.3; stroke-width: 0.8; stroke-linecap: square"/>
     </g>
     <g id="line2d_8">
      <g>
       <use xlink:href="#ma2e8db7f6c" x="373.265425" y="529.308125" style="stroke: #000000; stroke-width: 0.8"/>
      </g>
     </g>
     <g id="text_4">
      <text style="font: 10px 'DejaVu Sans', 'Bitstream Vera Sans', 'Computer Modern Sans Serif', 'Lucida Grande', 'Verdana', 'Geneva', 'Lucid', 'Arial', 'Helvetica', 'Avant Garde', sans-serif; text-anchor: middle" x="373.265425" y="543.906563" transform="rotate(-0 373.265425 543.906563)">85</text>
     </g>
    </g>
    <g id="xtick_5">
     <g id="line2d_9">
      <path d="M 473.217424 529.308125 
L 473.217424 23.837812 
" clip-path="url(#p46bfc3101e)" style="fill: none; stroke: #b0b0b0; stroke-opacity: 0.3; stroke-width: 0.8; stroke-linecap: square"/>
     </g>
     <g id="line2d_10">
      <g>
       <use xlink:href="#ma2e8db7f6c" x="473.217424" y="529.308125" style="stroke: #000000; stroke-width: 0.8"/>
      </g>
     </g>
     <g id="text_5">
      <text style="font: 10px 'DejaVu Sans', 'Bitstream Vera Sans', 'Computer Modern Sans Serif', 'Lucida Grande', 'Verdana', 'Geneva', 'Lucid', 'Arial', 'Helvetica', 'Avant Garde', sans-serif; text-anchor: middle" x="473.217424" y="543.906563" transform="rotate(-0 473.217424 543.906563)">90</text>
     </g>
    </g>
    <g id="xtick_6">
     <g id="line2d_11">
      <path d="M 573.169422 529.308125 
L 573.169422 23.837812 
" clip-path="url(#p46bfc3101e)" style="fill: none; stroke: #b0b0b0; stroke-opacity: 0.3; stroke-width: 0.8; stroke-linecap: square"/>
     </g>
     <g id="line2d_12">
      <g>
       <use xlink:href="#ma2e8db7f6c" x="573.169422" y="529.308125" style="stroke: #000000; stroke-width: 0.8"/>
      </g>
     </g>
     <g id="text_6">
      <text style="font: 10px 'DejaVu Sans', 'Bitstream Vera Sans', 'Computer Modern Sans Serif', 'Lucida Grande', 'Verdana', 'Geneva', 'Lucid', 'Arial', 'Helvetica', 'Avant Garde', sans-serif; text-anchor: middle" x="573.169422" y="543.906563" transform="rotate(-0 573.169422 543.906563)">95</text>
     </g>
    </g>
    <g id="xtick_7">
     <g id="line2d_13">
      <path d="M 673.12142 529.308125 
L 673.12142 23.837812 
" clip-path="url(#p46bfc3101e)" style="fill: none; stroke: #b0b0b0; stroke-opacity: 0.3; stroke-width: 0.8; stroke-linecap: square"/>
     </g>
     <g id="line2d_14">
      <g>
       <use xlink:href="#ma2e8db7f6c" x="673.12142" y="529.308125" style="stroke: #000000; stroke-width: 0.8"/>
      </g>
     </g>
     <g id="text_7">
      <text style="font: 10px 'DejaVu Sans', 'Bitstream Vera Sans', 'Computer Modern Sans Serif', 'Lucida Grande', 'Verdana', 'Geneva', 'Lucid', 'Arial', 'Helvetica', 'Avant Garde', sans-serif; text-anchor: middle" x="673.12142" y="543.906563" transform="rotate(-0 673.12142 543.906563)">100</text>
     </g>
    </g>
    <g id="text_8">
     <text style="font: 12px 'DejaVu Sans', 'Bitstream Vera Sans', 'Computer Modern Sans Serif', 'Lucida Grande', 'Verdana', 'Geneva', 'Lucid', 'Arial', 'Helvetica', 'Avant Garde', sans-serif; text-anchor: middle" x="383.260625" y="559.104375" transform="rotate(-0 383.260625 559.104375)">Build Number</text>
    </g>
   </g>
   <g id="matplotlib.axis_2">
    <g id="ytick_1">
     <g id="line2d_15">
      <path d="M 64.41375 468.306331 
L 702.1075 468.306331 
" clip-path="url(#p46bfc3101e)" style="fill: none; stroke: #b0b0b0; stroke-opacity: 0.3; stroke-width: 0.8; stroke-linecap: square"/>
     </g>
     <g id="line2d_16">
      <defs>
       <path id="m67e2270d38" d="M 0 0 
L -3.5 0 
" style="stroke: #000000; stroke-width: 0.8"/>
      </defs>
      <g>
       <use xlink:href="#m67e2270d38" x="64.41375" y="468.306331" style="stroke: #000000; stroke-width: 0.8"/>
      </g>
     </g>
     <g id="text_9">
      <!-- $\mathdefault{10^{5}}$ -->
      <g transform="translate(39.81375 472.10555)">
       <text>
        <tspan style="font: 10px 'DejaVu Sans'" x="0 6.362305" y="-0.06406250000000036">10</tspan>
        <tspan style="font: 7px 'DejaVu Sans'" x="12.820312" y="-3.8921875000000004">5</tspan>
       </text>
      </g>
     </g>
    </g>
    <g id="ytick_2">
     <g id="line2d_17">
      <defs>
       <path id="m2b52b619c3" d="M 0 0 
L -2 0 
" style="stroke: #000000; stroke-width: 0.6"/>
      </defs>
      <g>
       <use xlink:href="#m2b52b619c3" x="64.41375" y="497.655628" style="stroke: #000000; stroke-width: 0.6"/>
      </g>
     </g>
    </g>
    <g id="ytick_3">
     <g id="line2d_18">
      <g>
       <use xlink:href="#m2b52b619c3" x="64.41375" y="275.22278" style="stroke: #000000; stroke-width: 0.6"/>
      </g>
     </g>
     <g id="text_10">
      <!-- $\mathdefault{2\times10^{5}}$ -->
      <g transform="translate(22.81375 279.021999)">
       <text>
        <tspan style="font: 10px 'DejaVu Sans'" x="0 8.310547 18.637695 25" y="-0.06406250000000036">2×10</tspan>
        <tspan style="font: 7px 'DejaVu Sans'" x="31.458008" y="-3.8921875000000004">5</tspan>
       </text>
      </g>
     </g>
    </g>
    <g id="ytick_4">
     <g id="line2d_19">
      <g>
       <use xlink:href="#m2b52b619c3" x="64.41375" y="162.276143" style="stroke: #000000; stroke-width: 0.6"/>
      </g>
     </g>
     <g id="text_11">
      <!-- $\mathdefault{3\times10^{5}}$ -->
      <g transform="translate(22.81375 166.075361)">
       <text>
        <tspan style="font: 10px 'DejaVu Sans'" x="0 8.310547 18.637695 25" y="-0.06406250000000036">3×10</tspan>
        <tspan style="font: 7px 'DejaVu Sans'" x="31.458008" y="-3.8921875000000004">5</tspan>
       </text>
      </g>
     </g>
    </g>
    <g id="ytick_5">
     <g id="line2d_20">
      <g>
       <use xlink:href="#m2b52b619c3" x="64.41375" y="82.139228" style="stroke: #000000; stroke-width: 0.6"/>
      </g>
     </g>
     <g id="text_12">
      <!-- $\mathdefault{4\times10^{5}}$ -->
      <g transform="translate(22.81375 85.938447)">
       <text>
        <tspan style="font: 10px 'DejaVu Sans'" x="0 8.310547 18.637695 25" y="-0.06406250000000036">4×10</tspan>
        <tspan style="font: 7px 'DejaVu Sans'" x="31.458008" y="-3.8921875000000004">5</tspan>
       </text>
      </g>
     </g>
    </g>
    <g id="text_13">
     <text style="font: 12px 'DejaVu Sans', 'Bitstream Vera Sans', 'Computer Modern Sans Serif', 'Lucida Grande', 'Verdana', 'Geneva', 'Lucid', 'Arial', 'Helvetica', 'Avant Garde', sans-serif; text-anchor: middle" x="16.318125" y="276.572969" transform="rotate(-90 16.318125 276.572969)">Median Elapsed Time (nanoseconds)</text>
    </g>
   </g>
   <g id="line2d_21">
    <path d="M 93.39983 243.777005 
L 113.390229 249.27393 
L 133.380629 247.440552 
L 153.371029 249.833323 
L 173.361428 195.655826 
L 193.351828 97.639476 
L 213.342228 249.799504 
L 233.332627 248.859809 
L 253.323027 52.985138 
L 273.313427 249.625007 
L 293.303826 249.659186 
L 313.294226 250.052866 
L 333.284626 53.930679 
L 353.275025 248.694257 
L 373.265425 249.470428 
L 393.255825 249.74497 
L 433.236624 249.927046 
L 453.227024 54.024276 
L 473.217424 249.087462 
L 493.207823 109.506976 
L 513.198223 248.641838 
L 533.188623 244.924707 
L 553.179022 249.759969 
L 573.169422 249.680026 
L 593.159822 249.787554 
L 613.150221 46.813736 
L 653.131021 249.408722 
L 673.12142 249.281925 
" clip-path="url(#p46bfc3101e)" style="fill: none; stroke: #1f77b4; stroke-width: 2; stroke-linecap: square"/>
    <defs>
     <path id="mee37ceb761" d="M 0 3 
C 0.795609 3 1.55874 2.683901 2.12132 2.12132 
C 2.683901 1.55874 3 0.795609 3 0 
C 3 -0.795609 2.683901 -1.55874 2.12132 -2.12132 
C 1.55874 -2.683901 0.795609 -3 0 -3 
C -0.795609 -3 -1.55874 -2.683901 -2.12132 -2.12132 
C -2.683901 -1.55874 -3 -0.795609 -3 0 
C -3 0.795609 -2.683901 1.55874 -2.12132 2.12132 
C -1.55874 2.683901 -0.795609 3 0 3 
z
" style="stroke: #1f77b4"/>
    </defs>
    <g clip-path="url(#p46bfc3101e)">
     <use xlink:href="#mee37ceb761" x="93.39983" y="243.777005" style="fill: #1f77b4; stroke: #1f77b4"/>
     <use xlink:href="#mee37ceb761" x="113.390229" y="249.27393" style="fill: #1f77b4; stroke: #1f77b4"/>
     <use xlink:href="#mee37ceb761" x="133.380629" y="247.440552" style="fill: #1f77b4; stroke: #1f77b4"/>
     <use xlink:href="#mee37ceb761" x="153.371029" y="249.833323" style="fill: #1f77b4; stroke: #1f77b4"/>
     <use xlink:href="#mee37ceb761" x="173.361428" y="195.655826" style="fill: #1f77b4; stroke: #1f77b4"/>
     <use xlink:href="#mee37ceb761" x="193.351828" y="97.639476" style="fill: #1f77b4; stroke: #1f77b4"/>
     <use xlink:href="#mee37ceb761" x="213.342228" y="249.799504" style="fill: #1f77b4; stroke: #1f77b4"/>
     <use xlink:href="#mee37ceb761" x="233.332627" y="248.859809" style="fill: #1f77b4; stroke: #1f77b4"/>
     <use xlink:href="#mee37ceb761" x="253.323027" y="52.985138" style="fill: #1f77b4; stroke: #1f77b4"/>
     <use xlink:href="#mee37ceb761" x="273.313427" y="249.625007" style="fill: #1f77b4; stroke: #1f77b4"/>
     <use xlink:href="#mee37ceb761" x="293.303826" y="249.659186" style="fill: #1f77b4; stroke: #1f77b4"/>
     <use xlink:href="#mee37ceb761" x="313.294226" y="250.052866" style="fill: #1f77b4; stroke: #1f77b4"/>
     <use xlink:href="#mee37ceb761" x="333.284626" y="53.930679" style="fill: #1f77b4; stroke: #1f77b4"/>
     <use xlink:href="#mee37ceb761" x="353.275025" y="248.694257" style="fill: #1f77b4; stroke: #1f77b4"/>
     <use xlink:href="#mee37ceb761" x="373.265425" y="249.470428" style="fill: #1f77b4; stroke: #1f77b4"/>
     <use xlink:href="#mee37ceb761" x="393.255825" y="249.74497" style="fill: #1f77b4; stroke: #1f77b4"/>
     <use xlink:href="#mee37ceb761" x="433.236624" y="249.927046" style="fill: #1f77b4; stroke: #1f77b4"/>
     <use xlink:href="#mee37ceb761" x="453.227024" y="54.024276" style="fill: #1f77b4; stroke: #1f77b4"/>
     <use xlink:href="#mee37ceb761" x="473.217424" y="249.087462" style="fill: #1f77b4; stroke: #1f77b4"/>
     <use xlink:href="#mee37ceb761" x="493.207823" y="109.506976" style="fill: #1f77b4; stroke: #1f77b4"/>
     <use xlink:href="#mee37ceb761" x="513.198223" y="248.641838" style="fill: #1f77b4; stroke: #1f77b4"/>
     <use xlink:href="#mee37ceb761" x="533.188623" y="244.924707" style="fill: #1f77b4; stroke: #1f77b4"/>
     <use xlink:href="#mee37ceb761" x="553.179022" y="249.759969" style="fill: #1f77b4; stroke: #1f77b4"/>
     <use xlink:href="#mee37ceb761" x="573.169422" y="249.680026" style="fill: #1f77b4; stroke: #1f77b4"/>
     <use xlink:href="#mee37ceb761" x="593.159822" y="249.787554" style="fill: #1f77b4; stroke: #1f77b4"/>
     <use xlink:href="#mee37ceb761" x="613.150221" y="46.813736" style="fill: #1f77b4; stroke: #1f77b4"/>
     <use xlink:href="#mee37ceb761" x="653.131021" y="249.408722" style="fill: #1f77b4; stroke: #1f77b4"/>
     <use xlink:href="#mee37ceb761" x="673.12142" y="249.281925" style="fill: #1f77b4; stroke: #1f77b4"/>
    </g>
   </g>
   <g id="line2d_22">
    <path d="M 93.39983 243.595173 
L 113.390229 241.95412 
L 133.380629 239.701111 
L 153.371029 237.684582 
L 173.361428 205.56849 
L 193.351828 239.155072 
L 213.342228 239.772109 
L 233.332627 241.369236 
L 253.323027 133.794407 
L 273.313427 234.403278 
L 293.303826 237.659265 
L 313.294226 237.157542 
L 333.284626 188.916702 
L 353.275025 234.469087 
L 373.265425 238.961802 
L 393.255825 238.649307 
L 433.236624 238.20884 
L 453.227024 190.246886 
L 473.217424 240.231147 
L 493.207823 189.704849 
L 513.198223 241.302517 
L 533.188623 233.278982 
L 553.179022 239.287258 
L 573.169422 235.972494 
L 593.159822 230.52038 
L 613.150221 146.706777 
L 653.131021 230.774008 
L 673.12142 229.004029 
" clip-path="url(#p46bfc3101e)" style="fill: none; stroke: #ff7f0e; stroke-width: 2; stroke-linecap: square"/>
    <defs>
     <path id="m7f633e728f" d="M 0 3 
C 0.795609 3 1.55874 2.683901 2.12132 2.12132 
C 2.683901 1.55874 3 0.795609 3 0 
C 3 -0.795609 2.683901 -1.55874 2.12132 -2.12132 
C 1.55874 -2.683901 0.795609 -3 0 -3 
C -0.795609 -3 -1.55874 -2.683901 -2.12132 -2.12132 
C -2.683901 -1.55874 -3 -0.795609 -3 0 
C -3 0.795609 -2.683901 1.55874 -2.12132 2.12132 
C -1.55874 2.683901 -0.795609 3 0 3 
z
" style="stroke: #ff7f0e"/>
    </defs>
    <g clip-path="url(#p46bfc3101e)">
     <use xlink:href="#m7f633e728f" x="93.39983" y="243.595173" style="fill: #ff7f0e; stroke: #ff7f0e"/>
     <use xlink:href="#m7f633e728f" x="113.390229" y="241.95412" style="fill: #ff7f0e; stroke: #ff7f0e"/>
     <use xlink:href="#m7f633e728f" x="133.380629" y="239.701111" style="fill: #ff7f0e; stroke: #ff7f0e"/>
     <use xlink:href="#m7f633e728f" x="153.371029" y="237.684582" style="fill: #ff7f0e; stroke: #ff7f0e"/>
     <use xlink:href="#m7f633e728f" x="173.361428" y="205.56849" style="fill: #ff7f0e; stroke: #ff7f0e"/>
     <use xlink:href="#m7f633e728f" x="193.351828" y="239.155072" style="fill: #ff7f0e; stroke: #ff7f0e"/>
     <use xlink:href="#m7f633e728f" x="213.342228" y="239.772109" style="fill: #ff7f0e; stroke: #ff7f0e"/>
     <use xlink:href="#m7f633e728f" x="233.332627" y="241.369236" style="fill: #ff7f0e; stroke: #ff7f0e"/>
     <use xlink:href="#m7f633e728f" x="253.323027" y="133.794407" style="fill: #ff7f0e; stroke: #ff7f0e"/>
     <use xlink:href="#m7f633e728f" x="273.313427" y="234.403278" style="fill: #ff7f0e; stroke: #ff7f0e"/>
     <use xlink:href="#m7f633e728f" x="293.303826" y="237.659265" style="fill: #ff7f0e; stroke: #ff7f0e"/>
     <use xlink:href="#m7f633e728f" x="313.294226" y="237.157542" style="fill: #ff7f0e; stroke: #ff7f0e"/>
     <use xlink:href="#m7f633e728f" x="333.284626" y="188.916702" style="fill: #ff7f0e; stroke: #ff7f0e"/>
     <use xlink:href="#m7f633e728f" x="353.275025" y="234.469087" style="fill: #ff7f0e; stroke: #ff7f0e"/>
     <use xlink:href="#m7f633e728f" x="373.265425" y="238.961802" style="fill: #ff7f0e; stroke: #ff7f0e"/>
     <use xlink:href="#m7f633e728f" x="393.255825" y="238.649307" style="fill: #ff7f0e; stroke: #ff7f0e"/>
     <use xlink:href="#m7f633e728f" x="433.236624" y="238.20884" style="fill: #ff7f0e; stroke: #ff7f0e"/>
     <use xlink:href="#m7f633e728f" x="453.227024" y="190.246886" style="fill: #ff7f0e; stroke: #ff7f0e"/>
     <use xlink:href="#m7f633e728f" x="473.217424" y="240.231147" style="fill: #ff7f0e; stroke: #ff7f0e"/>
     <use xlink:href="#m7f633e728f" x="493.207823" y="189.704849" style="fill: #ff7f0e; stroke: #ff7f0e"/>
     <use xlink:href="#m7f633e728f" x="513.198223" y="241.302517" style="fill: #ff7f0e; stroke: #ff7f0e"/>
     <use xlink:href="#m7f633e728f" x="533.188623" y="233.278982" style="fill: #ff7f0e; stroke: #ff7f0e"/>
     <use xlink:href="#m7f633e728f" x="553.179022" y="239.287258" style="fill: #ff7f0e; stroke: #ff7f0e"/>
     <use xlink:href="#m7f633e728f" x="573.169422" y="235.972494" style="fill: #ff7f0e; stroke: #ff7f0e"/>
     <use xlink:href="#m7f633e728f" x="593.159822" y="230.52038" style="fill: #ff7f0e; stroke: #ff7f0e"/>
     <use xlink:href="#m7f633e728f" x="613.150221" y="146.706777" style="fill: #ff7f0e; stroke: #ff7f0e"/>
     <use xlink:href="#m7f633e728f" x="653.131021" y="230.774008" style="fill: #ff7f0e; stroke: #ff7f0e"/>
     <use xlink:href="#m7f633e728f" x="673.12142" y="229.004029" style="fill: #ff7f0e; stroke: #ff7f0e"/>
    </g>
   </g>
   <g id="line2d_23">
    <path d="M 93.39983 243.349852 
L 113.390229 223.619594 
L 133.380629 201.129601 
L 153.371029 243.806119 
L 173.361428 184.704173 
L 193.351828 244.368467 
L 213.342228 243.795419 
L 233.332627 244.103655 
L 253.323027 197.262068 
L 273.313427 243.390599 
L 293.303826 244.138159 
L 313.294226 243.922606 
L 333.284626 204.256001 
L 353.275025 241.122662 
L 373.265425 243.147444 
L 393.255825 244.556044 
L 433.236624 244.41722 
L 453.227024 210.352231 
L 473.217424 244.216154 
L 493.207823 180.406408 
L 513.198223 244.148748 
L 533.188623 204.288714 
L 553.179022 243.695651 
L 573.169422 228.295832 
L 593.159822 242.841875 
L 613.150221 177.308748 
L 653.131021 244.050971 
L 673.12142 209.600693 
" clip-path="url(#p46bfc3101e)" style="fill: none; stroke: #2ca02c; stroke-width: 2; stroke-linecap: square"/>
    <defs>
     <path id="m140f5c1412" d="M 0 3 
C 0.795609 3 1.55874 2.683901 2.12132 2.12132 
C 2.683901 1.55874 3 0.795609 3 0 
C 3 -0.795609 2.683901 -1.55874 2.12132 -2.12132 
C 1.55874 -2.683901 0.795609 -3 0 -3 
C -0.795609 -3 -1.55874 -2.683901 -2.12132 -2.12132 
C -2.683901 -1.55874 -3 -0.795609 -3 0 
C -3 0.795609 -2.683901 1.55874 -2.12132 2.12132 
C -1.55874 2.683901 -0.795609 3 0 3 
z
" style="stroke: #2ca02c"/>
    </defs>
    <g clip-path="url(#p46bfc3101e)">
     <use xlink:href="#m140f5c1412" x="93.39983" y="243.349852" style="fill: #2ca02c; stroke: #2ca02c"/>
     <use xlink:href="#m140f5c1412" x="113.390229" y="223.619594" style="fill: #2ca02c; stroke: #2ca02c"/>
     <use xlink:href="#m140f5c1412" x="133.380629" y="201.129601" style="fill: #2ca02c; stroke: #2ca02c"/>
     <use xlink:href="#m140f5c1412" x="153.371029" y="243.806119" style="fill: #2ca02c; stroke: #2ca02c"/>
     <use xlink:href="#m140f5c1412" x="173.361428" y="184.704173" style="fill: #2ca02c; stroke: #2ca02c"/>
     <use xlink:href="#m140f5c1412" x="193.351828" y="244.368467" style="fill: #2ca02c; stroke: #2ca02c"/>
     <use xlink:href="#m140f5c1412" x="213.342228" y="243.795419" style="fill: #2ca02c; stroke: #2ca02c"/>
     <use xlink:href="#m140f5c1412" x="233.332627" y="244.103655" style="fill: #2ca02c; stroke: #2ca02c"/>
     <use xlink:href="#m140f5c1412" x="253.323027" y="197.262068" style="fill: #2ca02c; stroke: #2ca02c"/>
     <use xlink:href="#m140f5c1412" x="273.313427" y="243.390599" style="fill: #2ca02c; stroke: #2ca02c"/>
     <use xlink:href="#m140f5c1412" x="293.303826" y="244.138159" style="fill: #2ca02c; stroke: #2ca02c"/>
     <use xlink:href="#m140f5c1412" x="313.294226" y="243.922606" style="fill: #2ca02c; stroke: #2ca02c"/>
     <use xlink:href="#m140f5c1412" x="333.284626" y="204.256001" style="fill: #2ca02c; stroke: #2ca02c"/>
     <use xlink:href="#m140f5c1412" x="353.275025" y="241.122662" style="fill: #2ca02c; stroke: #2ca02c"/>
     <use xlink:href="#m140f5c1412" x="373.265425" y="243.147444" style="fill: #2ca02c; stroke: #2ca02c"/>
     <use xlink:href="#m140f5c1412" x="393.255825" y="244.556044" style="fill: #2ca02c; stroke: #2ca02c"/>
     <use xlink:href="#m140f5c1412" x="433.236624" y="244.41722" style="fill: #2ca02c; stroke: #2ca02c"/>
     <use xlink:href="#m140f5c1412" x="453.227024" y="210.352231" style="fill: #2ca02c; stroke: #2ca02c"/>
     <use xlink:href="#m140f5c1412" x="473.217424" y="244.216154" style="fill: #2ca02c; stroke: #2ca02c"/>
     <use xlink:href="#m140f5c1412" x="493.207823" y="180.406408" style="fill: #2ca02c; stroke: #2ca02c"/>
     <use xlink:href="#m140f5c1412" x="513.198223" y="244.148748" style="fill: #2ca02c; stroke: #2ca02c"/>
     <use xlink:href="#m140f5c1412" x="533.188623" y="204.288714" style="fill: #2ca02c; stroke: #2ca02c"/>
     <use xlink:href="#m140f5c1412" x="553.179022" y="243.695651" style="fill: #2ca02c; stroke: #2ca02c"/>
     <use xlink:href="#m140f5c1412" x="573.169422" y="228.295832" style="fill: #2ca02c; stroke: #2ca02c"/>
     <use xlink:href="#m140f5c1412" x="593.159822" y="242.841875" style="fill: #2ca02c; stroke: #2ca02c"/>
     <use xlink:href="#m140f5c1412" x="613.150221" y="177.308748" style="fill: #2ca02c; stroke: #2ca02c"/>
     <use xlink:href="#m140f5c1412" x="653.131021" y="244.050971" style="fill: #2ca02c; stroke: #2ca02c"/>
     <use xlink:href="#m140f5c1412" x="673.12142" y="209.600693" style="fill: #2ca02c; stroke: #2ca02c"/>
    </g>
   </g>
   <g id="line2d_24">
    <path d="M 93.39983 502.680728 
L 113.390229 504.277413 
L 133.380629 503.215413 
L 153.371029 504.593599 
L 173.361428 309.16403 
L 193.351828 494.250538 
L 213.342228 503.399241 
L 233.332627 418.548271 
L 253.323027 504.370614 
L 273.313427 504.494296 
L 293.303826 503.62672 
L 313.294226 504.729074 
L 333.284626 502.00996 
L 373.265425 503.678058 
L 393.255825 502.946523 
L 433.236624 503.851747 
L 453.227024 504.956529 
L 473.217424 502.576119 
L 493.207823 504.135135 
L 513.198223 504.24667 
L 553.179022 503.661928 
L 573.169422 504.300869 
L 593.159822 503.163951 
L 613.150221 504.616764 
L 653.131021 504.224169 
L 673.12142 308.913048 
" clip-path="url(#p46bfc3101e)" style="fill: none; stroke: #d62728; stroke-width: 2; stroke-linecap: square"/>
    <defs>
     <path id="m66a044fbf5" d="M 0 3 
C 0.795609 3 1.55874 2.683901 2.12132 2.12132 
C 2.683901 1.55874 3 0.795609 3 0 
C 3 -0.795609 2.683901 -1.55874 2.12132 -2.12132 
C 1.55874 -2.683901 0.795609 -3 0 -3 
C -0.795609 -3 -1.55874 -2.683901 -2.12132 -2.12132 
C -2.683901 -1.55874 -3 -0.795609 -3 0 
C -3 0.795609 -2.683901 1.55874 -2.12132 2.12132 
C -1.55874 2.683901 -0.795609 3 0 3 
z
" style="stroke: #d62728"/>
    </defs>
    <g clip-path="url(#p46bfc3101e)">
     <use xlink:href="#m66a044fbf5" x="93.39983" y="502.680728" style="fill: #d62728; stroke: #d62728"/>
     <use xlink:href="#m66a044fbf5" x="113.390229" y="504.277413" style="fill: #d62728; stroke: #d62728"/>
     <use xlink:href="#m66a044fbf5" x="133.380629" y="503.215413" style="fill: #d62728; stroke: #d62728"/>
     <use xlink:href="#m66a044fbf5" x="153.371029" y="504.593599" style="fill: #d62728; stroke: #d62728"/>
     <use xlink:href="#m66a044fbf5" x="173.361428" y="309.16403" style="fill: #d62728; stroke: #d62728"/>
     <use xlink:href="#m66a044fbf5" x="193.351828" y="494.250538" style="fill: #d62728; stroke: #d62728"/>
     <use xlink:href="#m66a044fbf5" x="213.342228" y="503.399241" style="fill: #d62728; stroke: #d62728"/>
     <use xlink:href="#m66a044fbf5" x="233.332627" y="418.548271" style="fill: #d62728; stroke: #d62728"/>
     <use xlink:href="#m66a044fbf5" x="253.323027" y="504.370614" style="fill: #d62728; stroke: #d62728"/>
     <use xlink:href="#m66a044fbf5" x="273.313427" y="504.494296" style="fill: #d62728; stroke: #d62728"/>
     <use xlink:href="#m66a044fbf5" x="293.303826" y="503.62672" style="fill: #d62728; stroke: #d62728"/>
     <use xlink:href="#m66a044fbf5" x="313.294226" y="504.729074" style="fill: #d62728; stroke: #d62728"/>
     <use xlink:href="#m66a044fbf5" x="333.284626" y="502.00996" style="fill: #d62728; stroke: #d62728"/>
     <use xlink:href="#m66a044fbf5" x="373.265425" y="503.678058" style="fill: #d62728; stroke: #d62728"/>
     <use xlink:href="#m66a044fbf5" x="393.255825" y="502.946523" style="fill: #d62728; stroke: #d62728"/>
     <use xlink:href="#m66a044fbf5" x="433.236624" y="503.851747" style="fill: #d62728; stroke: #d62728"/>
     <use xlink:href="#m66a044fbf5" x="453.227024" y="504.956529" style="fill: #d62728; stroke: #d62728"/>
     <use xlink:href="#m66a044fbf5" x="473.217424" y="502.576119" style="fill: #d62728; stroke: #d62728"/>
     <use xlink:href="#m66a044fbf5" x="493.207823" y="504.135135" style="fill: #d62728; stroke: #d62728"/>
     <use xlink:href="#m66a044fbf5" x="513.198223" y="504.24667" style="fill: #d62728; stroke: #d62728"/>
     <use xlink:href="#m66a044fbf5" x="553.179022" y="503.661928" style="fill: #d62728; stroke: #d62728"/>
     <use xlink:href="#m66a044fbf5" x="573.169422" y="504.300869" style="fill: #d62728; stroke: #d62728"/>
     <use xlink:href="#m66a044fbf5" x="593.159822" y="503.163951" style="fill: #d62728; stroke: #d62728"/>
     <use xlink:href="#m66a044fbf5" x="613.150221" y="504.616764" style="fill: #d62728; stroke: #d62728"/>
     <use xlink:href="#m66a044fbf5" x="653.131021" y="504.224169" style="fill: #d62728; stroke: #d62728"/>
     <use xlink:href="#m66a044fbf5" x="673.12142" y="308.913048" style="fill: #d62728; stroke: #d62728"/>
    </g>
   </g>
   <g id="line2d_25">
    <path d="M 93.39983 471.004965 
L 113.390229 467.269233 
L 133.380629 470.0713 
L 153.371029 470.070459 
L 173.361428 415.705857 
L 193.351828 418.712813 
L 213.342228 469.040469 
L 233.332627 397.64394 
L 253.323027 468.929053 
L 273.313427 470.2979 
L 293.303826 468.286833 
L 313.294226 472.079244 
L 333.284626 463.2088 
L 373.265425 467.861547 
L 393.255825 471.397053 
L 433.236624 466.896211 
L 453.227024 465.154488 
L 473.217424 470.525807 
L 493.207823 470.246792 
L 513.198223 471.76854 
L 553.179022 471.906211 
L 573.169422 466.209715 
L 593.159822 506.332202 
L 613.150221 505.814771 
L 653.131021 505.927937 
L 673.12142 417.887019 
" clip-path="url(#p46bfc3101e)" style="fill: none; stroke: #9467bd; stroke-width: 2; stroke-linecap: square"/>
    <defs>
     <path id="md32357ea17" d="M 0 3 
C 0.795609 3 1.55874 2.683901 2.12132 2.12132 
C 2.683901 1.55874 3 0.795609 3 0 
C 3 -0.795609 2.683901 -1.55874 2.12132 -2.12132 
C 1.55874 -2.683901 0.795609 -3 0 -3 
C -0.795609 -3 -1.55874 -2.683901 -2.12132 -2.12132 
C -2.683901 -1.55874 -3 -0.795609 -3 0 
C -3 0.795609 -2.683901 1.55874 -2.12132 2.12132 
C -1.55874 2.683901 -0.795609 3 0 3 
z
" style="stroke: #9467bd"/>
    </defs>
    <g clip-path="url(#p46bfc3101e)">
     <use xlink:href="#md32357ea17" x="93.39983" y="471.004965" style="fill: #9467bd; stroke: #9467bd"/>
     <use xlink:href="#md32357ea17" x="113.390229" y="467.269233" style="fill: #9467bd; stroke: #9467bd"/>
     <use xlink:href="#md32357ea17" x="133.380629" y="470.0713" style="fill: #9467bd; stroke: #9467bd"/>
     <use xlink:href="#md32357ea17" x="153.371029" y="470.070459" style="fill: #9467bd; stroke: #9467bd"/>
     <use xlink:href="#md32357ea17" x="173.361428" y="415.705857" style="fill: #9467bd; stroke: #9467bd"/>
     <use xlink:href="#md32357ea17" x="193.351828" y="418.712813" style="fill: #9467bd; stroke: #9467bd"/>
     <use xlink:href="#md32357ea17" x="213.342228" y="469.040469" style="fill: #9467bd; stroke: #9467bd"/>
     <use xlink:href="#md32357ea17" x="233.332627" y="397.64394" style="fill: #9467bd; stroke: #9467bd"/>
     <use xlink:href="#md32357ea17" x="253.323027" y="468.929053" style="fill: #9467bd; stroke: #9467bd"/>
     <use xlink:href="#md32357ea17" x="273.313427" y="470.2979" style="fill: #9467bd; stroke: #9467bd"/>
     <use xlink:href="#md32357ea17" x="293.303826" y="468.286833" style="fill: #9467bd; stroke: #9467bd"/>
     <use xlink:href="#md32357ea17" x="313.294226" y="472.079244" style="fill: #9467bd; stroke: #9467bd"/>
     <use xlink:href="#md32357ea17" x="333.284626" y="463.2088" style="fill: #9467bd; stroke: #9467bd"/>
     <use xlink:href="#md32357ea17" x="373.265425" y="467.861547" style="fill: #9467bd; stroke: #9467bd"/>
     <use xlink:href="#md32357ea17" x="393.255825" y="471.397053" style="fill: #9467bd; stroke: #9467bd"/>
     <use xlink:href="#md32357ea17" x="433.236624" y="466.896211" style="fill: #9467bd; stroke: #9467bd"/>
     <use xlink:href="#md32357ea17" x="453.227024" y="465.154488" style="fill: #9467bd; stroke: #9467bd"/>
     <use xlink:href="#md32357ea17" x="473.217424" y="470.525807" style="fill: #9467bd; stroke: #9467bd"/>
     <use xlink:href="#md32357ea17" x="493.207823" y="470.246792" style="fill: #9467bd; stroke: #9467bd"/>
     <use xlink:href="#md32357ea17" x="513.198223" y="471.76854" style="fill: #9467bd; stroke: #9467bd"/>
     <use xlink:href="#md32357ea17" x="553.179022" y="471.906211" style="fill: #9467bd; stroke: #9467bd"/>
     <use xlink:href="#md32357ea17" x="573.169422" y="466.209715" style="fill: #9467bd; stroke: #9467bd"/>
     <use xlink:href="#md32357ea17" x="593.159822" y="506.332202" style="fill: #9467bd; stroke: #9467bd"/>
     <use xlink:href="#md32357ea17" x="613.150221" y="505.814771" style="fill: #9467bd; stroke: #9467bd"/>
     <use xlink:href="#md32357ea17" x="653.131021" y="505.927937" style="fill: #9467bd; stroke: #9467bd"/>
     <use xlink:href="#md32357ea17" x="673.12142" y="417.887019" style="fill: #9467bd; stroke: #9467bd"/>
    </g>
   </g>
   <g id="line2d_26">
    <path d="M 93.39983 235.93197 
L 113.390229 234.666368 
L 133.380629 235.462446 
L 153.371029 234.538041 
L 173.361428 181.744068 
L 193.351828 182.994846 
L 213.342228 235.101143 
L 233.332627 178.134856 
L 253.323027 236.529293 
L 273.313427 235.142873 
L 293.303826 235.315769 
L 313.294226 235.318545 
L 333.284626 234.347947 
L 373.265425 235.558462 
L 393.255825 234.767409 
L 433.236624 235.91552 
L 453.227024 236.532687 
L 473.217424 236.25693 
L 493.207823 237.210274 
L 513.198223 234.52059 
L 553.179022 235.539618 
L 573.169422 235.17146 
L 593.159822 238.09033 
L 613.150221 239.800807 
L 653.131021 239.313947 
L 673.12142 183.600343 
" clip-path="url(#p46bfc3101e)" style="fill: none; stroke: #8c564b; stroke-width: 2; stroke-linecap: square"/>
    <defs>
     <path id="mcc0c5e7c03" d="M 0 3 
C 0.795609 3 1.55874 2.683901 2.12132 2.12132 
C 2.683901 1.55874 3 0.795609 3 0 
C 3 -0.795609 2.683901 -1.55874 2.12132 -2.12132 
C 1.55874 -2.683901 0.795609 -3 0 -3 
C -0.795609 -3 -1.55874 -2.683901 -2.12132 -2.12132 
C -2.683901 -1.55874 -3 -0.795609 -3 0 
C -3 0.795609 -2.683901 1.55874 -2.12132 2.12132 
C -1.55874 2.683901 -0.795609 3 0 3 
z
" style="stroke: #8c564b"/>
    </defs>
    <g clip-path="url(#p46bfc3101e)">
     <use xlink:href="#mcc0c5e7c03" x="93.39983" y="235.93197" style="fill: #8c564b; stroke: #8c564b"/>
     <use xlink:href="#mcc0c5e7c03" x="113.390229" y="234.666368" style="fill: #8c564b; stroke: #8c564b"/>
     <use xlink:href="#mcc0c5e7c03" x="133.380629" y="235.462446" style="fill: #8c564b; stroke: #8c564b"/>
     <use xlink:href="#mcc0c5e7c03" x="153.371029" y="234.538041" style="fill: #8c564b; stroke: #8c564b"/>
     <use xlink:href="#mcc0c5e7c03" x="173.361428" y="181.744068" style="fill: #8c564b; stroke: #8c564b"/>
     <use xlink:href="#mcc0c5e7c03" x="193.351828" y="182.994846" style="fill: #8c564b; stroke: #8c564b"/>
     <use xlink:href="#mcc0c5e7c03" x="213.342228" y="235.101143" style="fill: #8c564b; stroke: #8c564b"/>
     <use xlink:href="#mcc0c5e7c03" x="233.332627" y="178.134856" style="fill: #8c564b; stroke: #8c564b"/>
     <use xlink:href="#mcc0c5e7c03" x="253.323027" y="236.529293" style="fill: #8c564b; stroke: #8c564b"/>
     <use xlink:href="#mcc0c5e7c03" x="273.313427" y="235.142873" style="fill: #8c564b; stroke: #8c564b"/>
     <use xlink:href="#mcc0c5e7c03" x="293.303826" y="235.315769" style="fill: #8c564b; stroke: #8c564b"/>
     <use xlink:href="#mcc0c5e7c03" x="313.294226" y="235.318545" style="fill: #8c564b; stroke: #8c564b"/>
     <use xlink:href="#mcc0c5e7c03" x="333.284626" y="234.347947" style="fill: #8c564b; stroke: #8c564b"/>
     <use xlink:href="#mcc0c5e7c03" x="373.265425" y="235.558462" style="fill: #8c564b; stroke: #8c564b"/>
     <use xlink:href="#mcc0c5e7c03" x="393.255825" y="234.767409" style="fill: #8c564b; stroke: #8c564b"/>
     <use xlink:href="#mcc0c5e7c03" x="433.236624" y="235.91552" style="fill: #8c564b; stroke: #8c564b"/>
     <use xlink:href="#mcc0c5e7c03" x="453.227024" y="236.532687" style="fill: #8c564b; stroke: #8c564b"/>
     <use xlink:href="#mcc0c5e7c03" x="473.217424" y="236.25693" style="fill: #8c564b; stroke: #8c564b"/>
     <use xlink:href="#mcc0c5e7c03" x="493.207823" y="237.210274" style="fill: #8c564b; stroke: #8c564b"/>
     <use xlink:href="#mcc0c5e7c03" x="513.198223" y="234.52059" style="fill: #8c564b; stroke: #8c564b"/>
     <use xlink:href="#mcc0c5e7c03" x="553.179022" y="235.539618" style="fill: #8c564b; stroke: #8c564b"/>
     <use xlink:href="#mcc0c5e7c03" x="573.169422" y="235.17146" style="fill: #8c564b; stroke: #8c564b"/>
     <use xlink:href="#mcc0c5e7c03" x="593.159822" y="238.09033" style="fill: #8c564b; stroke: #8c564b"/>
     <use xlink:href="#mcc0c5e7c03" x="613.150221" y="239.800807" style="fill: #8c564b; stroke: #8c564b"/>
     <use xlink:href="#mcc0c5e7c03" x="653.131021" y="239.313947" style="fill: #8c564b; stroke: #8c564b"/>
     <use xlink:href="#mcc0c5e7c03" x="673.12142" y="183.600343" style="fill: #8c564b; stroke: #8c564b"/>
    </g>
   </g>
   <g id="patch_3">
    <path d="M 64.41375 529.308125 
L 64.41375 23.837812 
" style="fill: none; stroke: #000000; stroke-width: 0.8; stroke-linejoin: miter; stroke-linecap: square"/>
   </g>
   <g id="patch_4">
    <path d="M 702.1075 529.308125 
L 702.1075 23.837812 
" style="fill: none; stroke: #000000; stroke-width: 0.8; stroke-linejoin: miter; stroke-linecap: square"/>
   </g>
   <g id="patch_5">
    <path d="M 64.41375 529.308125 
L 702.1075 529.308125 
" style="fill: none; stroke: #000000; stroke-width: 0.8; stroke-linejoin: miter; stroke-linecap: square"/>
   </g>
   <g id="patch_6">
    <path d="M 64.41375 23.837812 
L 702.1075 23.837812 
" style="fill: none; stroke: #000000; stroke-width: 0.8; stroke-linejoin: miter; stroke-linecap: square"/>
   </g>
   <g id="text_14">
    <text style="font: 700 14px 'DejaVu Sans', 'Bitstream Vera Sans', 'Computer Modern Sans Serif', 'Lucida Grande', 'Verdana', 'Geneva', 'Lucid', 'Arial', 'Helvetica', 'Avant Garde', sans-serif; text-anchor: middle" x="383.260625" y="17.837813" transform="rotate(-0 383.260625 17.837813)">Parallelfor Vectorops - Performance Trend</text>
   </g>
   <g id="legend_1">
    <g id="patch_7">
     <path d="M 740.992188 119.906563 
L 846.004688 119.906563 
Q 848.004688 119.906563 848.004688 117.906563 
L 848.004688 30.837813 
Q 848.004688 28.837813 846.004688 28.837813 
L 740.992188 28.837813 
Q 738.992188 28.837813 738.992188 30.837813 
L 738.992188 117.906563 
Q 738.992188 119.906563 740.992188 119.906563 
z
" style="fill: #ffffff; opacity: 0.8; stroke: #cccccc; stroke-linejoin: miter"/>
    </g>
    <g id="line2d_27">
     <path d="M 742.992188 36.93625 
L 752.992188 36.93625 
L 762.992188 36.93625 
" style="fill: none; stroke: #1f77b4; stroke-width: 2; stroke-linecap: square"/>
     <g>
      <use xlink:href="#mee37ceb761" x="752.992188" y="36.93625" style="fill: #1f77b4; stroke: #1f77b4"/>
     </g>
    </g>
    <g id="text_15">
     <text style="font: 10px 'DejaVu Sans', 'Bitstream Vera Sans', 'Computer Modern Sans Serif', 'Lucida Grande', 'Verdana', 'Geneva', 'Lucid', 'Arial', 'Helvetica', 'Avant Garde', sans-serif; text-anchor: start" x="770.992188" y="40.43625" transform="rotate(-0 770.992188 40.43625)">gcc-14.2 - V1</text>
    </g>
    <g id="line2d_28">
     <path d="M 742.992188 51.614375 
L 752.992188 51.614375 
L 762.992188 51.614375 
" style="fill: none; stroke: #ff7f0e; stroke-width: 2; stroke-linecap: square"/>
     <g>
      <use xlink:href="#m7f633e728f" x="752.992188" y="51.614375" style="fill: #ff7f0e; stroke: #ff7f0e"/>
     </g>
    </g>
    <g id="text_16">
     <text style="font: 10px 'DejaVu Sans', 'Bitstream Vera Sans', 'Computer Modern Sans Serif', 'Lucida Grande', 'Verdana', 'Geneva', 'Lucid', 'Arial', 'Helvetica', 'Avant Garde', sans-serif; text-anchor: start" x="770.992188" y="55.114375" transform="rotate(-0 770.992188 55.114375)">gcc-14.2 - V2</text>
    </g>
    <g id="line2d_29">
     <path d="M 742.992188 66.2925 
L 752.992188 66.2925 
L 762.992188 66.2925 
" style="fill: none; stroke: #2ca02c; stroke-width: 2; stroke-linecap: square"/>
     <g>
      <use xlink:href="#m140f5c1412" x="752.992188" y="66.2925" style="fill: #2ca02c; stroke: #2ca02c"/>
     </g>
    </g>
    <g id="text_17">
     <text style="font: 10px 'DejaVu Sans', 'Bitstream Vera Sans', 'Computer Modern Sans Serif', 'Lucida Grande', 'Verdana', 'Geneva', 'Lucid', 'Arial', 'Helvetica', 'Avant Garde', sans-serif; text-anchor: start" x="770.992188" y="69.7925" transform="rotate(-0 770.992188 69.7925)">gcc-14.2 - TBB</text>
    </g>
    <g id="line2d_30">
     <path d="M 742.992188 80.970625 
L 752.992188 80.970625 
L 762.992188 80.970625 
" style="fill: none; stroke: #d62728; stroke-width: 2; stroke-linecap: square"/>
     <g>
      <use xlink:href="#m66a044fbf5" x="752.992188" y="80.970625" style="fill: #d62728; stroke: #d62728"/>
     </g>
    </g>
    <g id="text_18">
     <text style="font: 10px 'DejaVu Sans', 'Bitstream Vera Sans', 'Computer Modern Sans Serif', 'Lucida Grande', 'Verdana', 'Geneva', 'Lucid', 'Arial', 'Helvetica', 'Avant Garde', sans-serif; text-anchor: start" x="770.992188" y="84.470625" transform="rotate(-0 770.992188 84.470625)">gcc-4.2 - V1</text>
    </g>
    <g id="line2d_31">
     <path d="M 742.992188 95.64875 
L 752.992188 95.64875 
L 762.992188 95.64875 
" style="fill: none; stroke: #9467bd; stroke-width: 2; stroke-linecap: square"/>
     <g>
      <use xlink:href="#md32357ea17" x="752.992188" y="95.64875" style="fill: #9467bd; stroke: #9467bd"/>
     </g>
    </g>
    <g id="text_19">
     <text style="font: 10px 'DejaVu Sans', 'Bitstream Vera Sans', 'Computer Modern Sans Serif', 'Lucida Grande', 'Verdana', 'Geneva', 'Lucid', 'Arial', 'Helvetica', 'Avant Garde', sans-serif; text-anchor: start" x="770.992188" y="99.14875" transform="rotate(-0 770.992188 99.14875)">gcc-4.2 - V2</text>
    </g>
    <g id="line2d_32">
     <path d="M 742.992188 110.326875 
L 752.992188 110.326875 
L 762.992188 110.326875 
" style="fill: none; stroke: #8c564b; stroke-width: 2; stroke-linecap: square"/>
     <g>
      <use xlink:href="#mcc0c5e7c03" x="752.992188" y="110.326875" style="fill: #8c564b; stroke: #8c564b"/>
     </g>
    </g>
    <g id="text_20">
     <text style="font: 10px 'DejaVu Sans', 'Bitstream Vera Sans', 'Computer Modern Sans Serif', 'Lucida Grande', 'Verdana', 'Geneva', 'Lucid', 'Arial', 'Helvetica', 'Avant Garde', sans-serif; text-anchor: start" x="770.992188" y="113.826875" transform="rotate(-0 770.992188 113.826875)">gcc-4.2 - TBB</text>
    </g>
   </g>
  </g>
 </g>
 <defs>
  <clipPath id="p46bfc3101e">
   <rect x="64.41375" y="23.837813" width="637.69375" height="505.470313"/>
  </clipPath>
 </defs>
</svg>
