<?xml version="1.0" encoding="utf-8" standalone="no"?>
<!DOCTYPE svg PUBLIC "-//W3C//DTD SVG 1.1//EN"
  "http://www.w3.org/Graphics/SVG/1.1/DTD/svg11.dtd">
<svg xmlns:xlink="http://www.w3.org/1999/xlink" width="855.204687pt" height="568.8pt" viewBox="0 0 855.204687 568.8" xmlns="http://www.w3.org/2000/svg" version="1.1">
 <metadata>
  <rdf:RDF xmlns:dc="http://purl.org/dc/elements/1.1/" xmlns:cc="http://creativecommons.org/ns#" xmlns:rdf="http://www.w3.org/1999/02/22-rdf-syntax-ns#">
   <cc:Work>
    <dc:type rdf:resource="http://purl.org/dc/dcmitype/StillImage"/>
    <dc:date>2025-08-02T20:06:40.262371</dc:date>
    <dc:format>image/svg+xml</dc:format>
    <dc:creator>
     <cc:Agent>
      <dc:title>Matplotlib v3.10.3, https://matplotlib.org/</dc:title>
     </cc:Agent>
    </dc:creator>
   </cc:Work>
  </rdf:RDF>
 </metadata>
 <defs>
  <style type="text/css">*{stroke-linejoin: round; stroke-linecap: butt}</style>
 </defs>
 <g id="figure_1">
  <g id="patch_1">
   <path d="M 0 568.8 
L 855.204687 568.8 
L 855.204687 0 
L 0 0 
z
" style="fill: #ffffff"/>
  </g>
  <g id="axes_1">
   <g id="patch_2">
    <path d="M 64.41375 529.308125 
L 702.1075 529.308125 
L 702.1075 23.837812 
L 64.41375 23.837812 
z
" style="fill: #ffffff"/>
   </g>
   <g id="matplotlib.axis_1">
    <g id="xtick_1">
     <g id="line2d_1">
      <path d="M 93.39983 529.308125 
L 93.39983 23.837812 
" clip-path="url(#p8acc0e02e6)" style="fill: none; stroke: #b0b0b0; stroke-opacity: 0.3; stroke-width: 0.8; stroke-linecap: square"/>
     </g>
     <g id="line2d_2">
      <defs>
       <path id="m1da02354b0" d="M 0 0 
L 0 3.5 
" style="stroke: #000000; stroke-width: 0.8"/>
      </defs>
      <g>
       <use xlink:href="#m1da02354b0" x="93.39983" y="529.308125" style="stroke: #000000; stroke-width: 0.8"/>
      </g>
     </g>
     <g id="text_1">
      <text style="font-size: 10px; font-family: 'DejaVu Sans', 'Bitstream Vera Sans', 'Computer Modern Sans Serif', 'Lucida Grande', 'Verdana', 'Geneva', 'Lucid', 'Arial', 'Helvetica', 'Avant Garde', sans-serif; text-anchor: middle" x="93.39983" y="543.906563" transform="rotate(-0 93.39983 543.906563)">71.0</text>
     </g>
    </g>
    <g id="xtick_2">
     <g id="line2d_3">
      <path d="M 190.020095 529.308125 
L 190.020095 23.837812 
" clip-path="url(#p8acc0e02e6)" style="fill: none; stroke: #b0b0b0; stroke-opacity: 0.3; stroke-width: 0.8; stroke-linecap: square"/>
     </g>
     <g id="line2d_4">
      <g>
       <use xlink:href="#m1da02354b0" x="190.020095" y="529.308125" style="stroke: #000000; stroke-width: 0.8"/>
      </g>
     </g>
     <g id="text_2">
      <text style="font-size: 10px; font-family: 'DejaVu Sans', 'Bitstream Vera Sans', 'Computer Modern Sans Serif', 'Lucida Grande', 'Verdana', 'Geneva', 'Lucid', 'Arial', 'Helvetica', 'Avant Garde', sans-serif; text-anchor: middle" x="190.020095" y="543.906563" transform="rotate(-0 190.020095 543.906563)">71.5</text>
     </g>
    </g>
    <g id="xtick_3">
     <g id="line2d_5">
      <path d="M 286.64036 529.308125 
L 286.64036 23.837812 
" clip-path="url(#p8acc0e02e6)" style="fill: none; stroke: #b0b0b0; stroke-opacity: 0.3; stroke-width: 0.8; stroke-linecap: square"/>
     </g>
     <g id="line2d_6">
      <g>
       <use xlink:href="#m1da02354b0" x="286.64036" y="529.308125" style="stroke: #000000; stroke-width: 0.8"/>
      </g>
     </g>
     <g id="text_3">
      <text style="font-size: 10px; font-family: 'DejaVu Sans', 'Bitstream Vera Sans', 'Computer Modern Sans Serif', 'Lucida Grande', 'Verdana', 'Geneva', 'Lucid', 'Arial', 'Helvetica', 'Avant Garde', sans-serif; text-anchor: middle" x="286.64036" y="543.906563" transform="rotate(-0 286.64036 543.906563)">72.0</text>
     </g>
    </g>
    <g id="xtick_4">
     <g id="line2d_7">
      <path d="M 383.260625 529.308125 
L 383.260625 23.837812 
" clip-path="url(#p8acc0e02e6)" style="fill: none; stroke: #b0b0b0; stroke-opacity: 0.3; stroke-width: 0.8; stroke-linecap: square"/>
     </g>
     <g id="line2d_8">
      <g>
       <use xlink:href="#m1da02354b0" x="383.260625" y="529.308125" style="stroke: #000000; stroke-width: 0.8"/>
      </g>
     </g>
     <g id="text_4">
      <text style="font-size: 10px; font-family: 'DejaVu Sans', 'Bitstream Vera Sans', 'Computer Modern Sans Serif', 'Lucida Grande', 'Verdana', 'Geneva', 'Lucid', 'Arial', 'Helvetica', 'Avant Garde', sans-serif; text-anchor: middle" x="383.260625" y="543.906563" transform="rotate(-0 383.260625 543.906563)">72.5</text>
     </g>
    </g>
    <g id="xtick_5">
     <g id="line2d_9">
      <path d="M 479.88089 529.308125 
L 479.88089 23.837812 
" clip-path="url(#p8acc0e02e6)" style="fill: none; stroke: #b0b0b0; stroke-opacity: 0.3; stroke-width: 0.8; stroke-linecap: square"/>
     </g>
     <g id="line2d_10">
      <g>
       <use xlink:href="#m1da02354b0" x="479.88089" y="529.308125" style="stroke: #000000; stroke-width: 0.8"/>
      </g>
     </g>
     <g id="text_5">
      <text style="font-size: 10px; font-family: 'DejaVu Sans', 'Bitstream Vera Sans', 'Computer Modern Sans Serif', 'Lucida Grande', 'Verdana', 'Geneva', 'Lucid', 'Arial', 'Helvetica', 'Avant Garde', sans-serif; text-anchor: middle" x="479.88089" y="543.906563" transform="rotate(-0 479.88089 543.906563)">73.0</text>
     </g>
    </g>
    <g id="xtick_6">
     <g id="line2d_11">
      <path d="M 576.501155 529.308125 
L 576.501155 23.837812 
" clip-path="url(#p8acc0e02e6)" style="fill: none; stroke: #b0b0b0; stroke-opacity: 0.3; stroke-width: 0.8; stroke-linecap: square"/>
     </g>
     <g id="line2d_12">
      <g>
       <use xlink:href="#m1da02354b0" x="576.501155" y="529.308125" style="stroke: #000000; stroke-width: 0.8"/>
      </g>
     </g>
     <g id="text_6">
      <text style="font-size: 10px; font-family: 'DejaVu Sans', 'Bitstream Vera Sans', 'Computer Modern Sans Serif', 'Lucida Grande', 'Verdana', 'Geneva', 'Lucid', 'Arial', 'Helvetica', 'Avant Garde', sans-serif; text-anchor: middle" x="576.501155" y="543.906563" transform="rotate(-0 576.501155 543.906563)">73.5</text>
     </g>
    </g>
    <g id="xtick_7">
     <g id="line2d_13">
      <path d="M 673.12142 529.308125 
L 673.12142 23.837812 
" clip-path="url(#p8acc0e02e6)" style="fill: none; stroke: #b0b0b0; stroke-opacity: 0.3; stroke-width: 0.8; stroke-linecap: square"/>
     </g>
     <g id="line2d_14">
      <g>
       <use xlink:href="#m1da02354b0" x="673.12142" y="529.308125" style="stroke: #000000; stroke-width: 0.8"/>
      </g>
     </g>
     <g id="text_7">
      <text style="font-size: 10px; font-family: 'DejaVu Sans', 'Bitstream Vera Sans', 'Computer Modern Sans Serif', 'Lucida Grande', 'Verdana', 'Geneva', 'Lucid', 'Arial', 'Helvetica', 'Avant Garde', sans-serif; text-anchor: middle" x="673.12142" y="543.906563" transform="rotate(-0 673.12142 543.906563)">74.0</text>
     </g>
    </g>
    <g id="text_8">
     <text style="font-size: 12px; font-family: 'DejaVu Sans', 'Bitstream Vera Sans', 'Computer Modern Sans Serif', 'Lucida Grande', 'Verdana', 'Geneva', 'Lucid', 'Arial', 'Helvetica', 'Avant Garde', sans-serif; text-anchor: middle" x="383.260625" y="559.104375" transform="rotate(-0 383.260625 559.104375)">Build Number</text>
    </g>
   </g>
   <g id="matplotlib.axis_2">
    <g id="ytick_1">
     <g id="line2d_15">
      <path d="M 64.41375 350.0234 
L 702.1075 350.0234 
" clip-path="url(#p8acc0e02e6)" style="fill: none; stroke: #b0b0b0; stroke-opacity: 0.3; stroke-width: 0.8; stroke-linecap: square"/>
     </g>
     <g id="line2d_16">
      <defs>
       <path id="m56549a787b" d="M 0 0 
L -3.5 0 
" style="stroke: #000000; stroke-width: 0.8"/>
      </defs>
      <g>
       <use xlink:href="#m56549a787b" x="64.41375" y="350.0234" style="stroke: #000000; stroke-width: 0.8"/>
      </g>
     </g>
     <g id="text_9">
      <!-- $\mathdefault{10^{5}}$ -->
      <g transform="translate(39.81375 353.822619)">
       <text>
        <tspan x="0" y="-0.064063" style="font-size: 10px; font-family: 'DejaVu Sans'">1</tspan>
        <tspan x="6.362305" y="-0.064063" style="font-size: 10px; font-family: 'DejaVu Sans'">0</tspan>
        <tspan x="12.820312" y="-3.892188" style="font-size: 7px; font-family: 'DejaVu Sans'">5</tspan>
       </text>
      </g>
     </g>
    </g>
    <g id="ytick_2">
     <g id="line2d_17">
      <defs>
       <path id="ma45a06931e" d="M 0 0 
L -2 0 
" style="stroke: #000000; stroke-width: 0.6"/>
      </defs>
      <g>
       <use xlink:href="#ma45a06931e" x="64.41375" y="479.003419" style="stroke: #000000; stroke-width: 0.6"/>
      </g>
     </g>
    </g>
    <g id="ytick_3">
     <g id="line2d_18">
      <g>
       <use xlink:href="#ma45a06931e" x="64.41375" y="430.716086" style="stroke: #000000; stroke-width: 0.6"/>
      </g>
     </g>
    </g>
    <g id="ytick_4">
     <g id="line2d_19">
      <g>
       <use xlink:href="#ma45a06931e" x="64.41375" y="388.123641" style="stroke: #000000; stroke-width: 0.6"/>
      </g>
     </g>
    </g>
    <g id="ytick_5">
     <g id="line2d_20">
      <g>
       <use xlink:href="#ma45a06931e" x="64.41375" y="99.369022" style="stroke: #000000; stroke-width: 0.6"/>
      </g>
     </g>
     <g id="text_10">
      <!-- $\mathdefault{2\times10^{5}}$ -->
      <g transform="translate(22.81375 103.168241)">
       <text>
        <tspan x="0" y="-0.064063" style="font-size: 10px; font-family: 'DejaVu Sans'">2</tspan>
        <tspan x="8.310547" y="-0.064063" style="font-size: 10px; font-family: 'DejaVu Sans'">×</tspan>
        <tspan x="18.637695" y="-0.064063" style="font-size: 10px; font-family: 'DejaVu Sans'">1</tspan>
        <tspan x="25" y="-0.064063" style="font-size: 10px; font-family: 'DejaVu Sans'">0</tspan>
        <tspan x="31.458008" y="-3.892188" style="font-size: 7px; font-family: 'DejaVu Sans'">5</tspan>
       </text>
      </g>
     </g>
    </g>
    <g id="text_11">
     <text style="font-size: 12px; font-family: 'DejaVu Sans', 'Bitstream Vera Sans', 'Computer Modern Sans Serif', 'Lucida Grande', 'Verdana', 'Geneva', 'Lucid', 'Arial', 'Helvetica', 'Avant Garde', sans-serif; text-anchor: middle" x="16.318125" y="276.572969" transform="rotate(-90 16.318125 276.572969)">Median Elapsed Time (nanoseconds)</text>
    </g>
   </g>
   <g id="line2d_21">
    <path d="M 93.39983 321.499141 
L 286.64036 150.352269 
L 479.88089 149.533157 
L 673.12142 282.57616 
" clip-path="url(#p8acc0e02e6)" style="fill: none; stroke: #1f77b4; stroke-width: 2; stroke-linecap: square"/>
    <defs>
     <path id="mc8a7aa814a" d="M 0 3 
C 0.795609 3 1.55874 2.683901 2.12132 2.12132 
C 2.683901 1.55874 3 0.795609 3 0 
C 3 -0.795609 2.683901 -1.55874 2.12132 -2.12132 
C 1.55874 -2.683901 0.795609 -3 0 -3 
C -0.795609 -3 -1.55874 -2.683901 -2.12132 -2.12132 
C -2.683901 -1.55874 -3 -0.795609 -3 0 
C -3 0.795609 -2.683901 1.55874 -2.12132 2.12132 
C -1.55874 2.683901 -0.795609 3 0 3 
z
" style="stroke: #1f77b4"/>
    </defs>
    <g clip-path="url(#p8acc0e02e6)">
     <use xlink:href="#mc8a7aa814a" x="93.39983" y="321.499141" style="fill: #1f77b4; stroke: #1f77b4"/>
     <use xlink:href="#mc8a7aa814a" x="286.64036" y="150.352269" style="fill: #1f77b4; stroke: #1f77b4"/>
     <use xlink:href="#mc8a7aa814a" x="479.88089" y="149.533157" style="fill: #1f77b4; stroke: #1f77b4"/>
     <use xlink:href="#mc8a7aa814a" x="673.12142" y="282.57616" style="fill: #1f77b4; stroke: #1f77b4"/>
    </g>
   </g>
   <g id="line2d_22">
    <path d="M 93.39983 287.967301 
L 286.64036 167.424625 
L 479.88089 207.404699 
L 673.12142 268.068342 
" clip-path="url(#p8acc0e02e6)" style="fill: none; stroke: #ff7f0e; stroke-width: 2; stroke-linecap: square"/>
    <defs>
     <path id="m1720037c19" d="M 0 3 
C 0.795609 3 1.55874 2.683901 2.12132 2.12132 
C 2.683901 1.55874 3 0.795609 3 0 
C 3 -0.795609 2.683901 -1.55874 2.12132 -2.12132 
C 1.55874 -2.683901 0.795609 -3 0 -3 
C -0.795609 -3 -1.55874 -2.683901 -2.12132 -2.12132 
C -2.683901 -1.55874 -3 -0.795609 -3 0 
C -3 0.795609 -2.683901 1.55874 -2.12132 2.12132 
C -1.55874 2.683901 -0.795609 3 0 3 
z
" style="stroke: #ff7f0e"/>
    </defs>
    <g clip-path="url(#p8acc0e02e6)">
     <use xlink:href="#m1720037c19" x="93.39983" y="287.967301" style="fill: #ff7f0e; stroke: #ff7f0e"/>
     <use xlink:href="#m1720037c19" x="286.64036" y="167.424625" style="fill: #ff7f0e; stroke: #ff7f0e"/>
     <use xlink:href="#m1720037c19" x="479.88089" y="207.404699" style="fill: #ff7f0e; stroke: #ff7f0e"/>
     <use xlink:href="#m1720037c19" x="673.12142" y="268.068342" style="fill: #ff7f0e; stroke: #ff7f0e"/>
    </g>
   </g>
   <g id="line2d_23">
    <path d="M 93.39983 311.051049 
L 286.64036 46.813736 
L 479.88089 297.473273 
L 673.12142 304.348042 
" clip-path="url(#p8acc0e02e6)" style="fill: none; stroke: #2ca02c; stroke-width: 2; stroke-linecap: square"/>
    <defs>
     <path id="m37a90d2f03" d="M 0 3 
C 0.795609 3 1.55874 2.683901 2.12132 2.12132 
C 2.683901 1.55874 3 0.795609 3 0 
C 3 -0.795609 2.683901 -1.55874 2.12132 -2.12132 
C 1.55874 -2.683901 0.795609 -3 0 -3 
C -0.795609 -3 -1.55874 -2.683901 -2.12132 -2.12132 
C -2.683901 -1.55874 -3 -0.795609 -3 0 
C -3 0.795609 -2.683901 1.55874 -2.12132 2.12132 
C -1.55874 2.683901 -0.795609 3 0 3 
z
" style="stroke: #2ca02c"/>
    </defs>
    <g clip-path="url(#p8acc0e02e6)">
     <use xlink:href="#m37a90d2f03" x="93.39983" y="311.051049" style="fill: #2ca02c; stroke: #2ca02c"/>
     <use xlink:href="#m37a90d2f03" x="286.64036" y="46.813736" style="fill: #2ca02c; stroke: #2ca02c"/>
     <use xlink:href="#m37a90d2f03" x="479.88089" y="297.473273" style="fill: #2ca02c; stroke: #2ca02c"/>
     <use xlink:href="#m37a90d2f03" x="673.12142" y="304.348042" style="fill: #2ca02c; stroke: #2ca02c"/>
    </g>
   </g>
   <g id="line2d_24">
    <path d="M 93.39983 506.053177 
L 286.64036 505.601401 
L 479.88089 506.332202 
L 673.12142 253.03325 
" clip-path="url(#p8acc0e02e6)" style="fill: none; stroke: #d62728; stroke-width: 2; stroke-linecap: square"/>
    <defs>
     <path id="m528bac575b" d="M 0 3 
C 0.795609 3 1.55874 2.683901 2.12132 2.12132 
C 2.683901 1.55874 3 0.795609 3 0 
C 3 -0.795609 2.683901 -1.55874 2.12132 -2.12132 
C 1.55874 -2.683901 0.795609 -3 0 -3 
C -0.795609 -3 -1.55874 -2.683901 -2.12132 -2.12132 
C -2.683901 -1.55874 -3 -0.795609 -3 0 
C -3 0.795609 -2.683901 1.55874 -2.12132 2.12132 
C -1.55874 2.683901 -0.795609 3 0 3 
z
" style="stroke: #d62728"/>
    </defs>
    <g clip-path="url(#p8acc0e02e6)">
     <use xlink:href="#m528bac575b" x="93.39983" y="506.053177" style="fill: #d62728; stroke: #d62728"/>
     <use xlink:href="#m528bac575b" x="286.64036" y="505.601401" style="fill: #d62728; stroke: #d62728"/>
     <use xlink:href="#m528bac575b" x="479.88089" y="506.332202" style="fill: #d62728; stroke: #d62728"/>
     <use xlink:href="#m528bac575b" x="673.12142" y="253.03325" style="fill: #d62728; stroke: #d62728"/>
    </g>
   </g>
   <g id="line2d_25">
    <path d="M 93.39983 463.66003 
L 286.64036 409.115764 
L 479.88089 468.62452 
L 673.12142 462.964679 
" clip-path="url(#p8acc0e02e6)" style="fill: none; stroke: #9467bd; stroke-width: 2; stroke-linecap: square"/>
    <defs>
     <path id="m662def0555" d="M 0 3 
C 0.795609 3 1.55874 2.683901 2.12132 2.12132 
C 2.683901 1.55874 3 0.795609 3 0 
C 3 -0.795609 2.683901 -1.55874 2.12132 -2.12132 
C 1.55874 -2.683901 0.795609 -3 0 -3 
C -0.795609 -3 -1.55874 -2.683901 -2.12132 -2.12132 
C -2.683901 -1.55874 -3 -0.795609 -3 0 
C -3 0.795609 -2.683901 1.55874 -2.12132 2.12132 
C -1.55874 2.683901 -0.795609 3 0 3 
z
" style="stroke: #9467bd"/>
    </defs>
    <g clip-path="url(#p8acc0e02e6)">
     <use xlink:href="#m662def0555" x="93.39983" y="463.66003" style="fill: #9467bd; stroke: #9467bd"/>
     <use xlink:href="#m662def0555" x="286.64036" y="409.115764" style="fill: #9467bd; stroke: #9467bd"/>
     <use xlink:href="#m662def0555" x="479.88089" y="468.62452" style="fill: #9467bd; stroke: #9467bd"/>
     <use xlink:href="#m662def0555" x="673.12142" y="462.964679" style="fill: #9467bd; stroke: #9467bd"/>
    </g>
   </g>
   <g id="line2d_26">
    <path d="M 93.39983 430.018385 
L 286.64036 429.648631 
L 479.88089 431.214558 
L 673.12142 433.322779 
" clip-path="url(#p8acc0e02e6)" style="fill: none; stroke: #8c564b; stroke-width: 2; stroke-linecap: square"/>
    <defs>
     <path id="mde94cfb323" d="M 0 3 
C 0.795609 3 1.55874 2.683901 2.12132 2.12132 
C 2.683901 1.55874 3 0.795609 3 0 
C 3 -0.795609 2.683901 -1.55874 2.12132 -2.12132 
C 1.55874 -2.683901 0.795609 -3 0 -3 
C -0.795609 -3 -1.55874 -2.683901 -2.12132 -2.12132 
C -2.683901 -1.55874 -3 -0.795609 -3 0 
C -3 0.795609 -2.683901 1.55874 -2.12132 2.12132 
C -1.55874 2.683901 -0.795609 3 0 3 
z
" style="stroke: #8c564b"/>
    </defs>
    <g clip-path="url(#p8acc0e02e6)">
     <use xlink:href="#mde94cfb323" x="93.39983" y="430.018385" style="fill: #8c564b; stroke: #8c564b"/>
     <use xlink:href="#mde94cfb323" x="286.64036" y="429.648631" style="fill: #8c564b; stroke: #8c564b"/>
     <use xlink:href="#mde94cfb323" x="479.88089" y="431.214558" style="fill: #8c564b; stroke: #8c564b"/>
     <use xlink:href="#mde94cfb323" x="673.12142" y="433.322779" style="fill: #8c564b; stroke: #8c564b"/>
    </g>
   </g>
   <g id="patch_3">
    <path d="M 64.41375 529.308125 
L 64.41375 23.837812 
" style="fill: none; stroke: #000000; stroke-width: 0.8; stroke-linejoin: miter; stroke-linecap: square"/>
   </g>
   <g id="patch_4">
    <path d="M 702.1075 529.308125 
L 702.1075 23.837812 
" style="fill: none; stroke: #000000; stroke-width: 0.8; stroke-linejoin: miter; stroke-linecap: square"/>
   </g>
   <g id="patch_5">
    <path d="M 64.41375 529.308125 
L 702.1075 529.308125 
" style="fill: none; stroke: #000000; stroke-width: 0.8; stroke-linejoin: miter; stroke-linecap: square"/>
   </g>
   <g id="patch_6">
    <path d="M 64.41375 23.837812 
L 702.1075 23.837812 
" style="fill: none; stroke: #000000; stroke-width: 0.8; stroke-linejoin: miter; stroke-linecap: square"/>
   </g>
   <g id="text_12">
    <text style="font-weight: 700; font-size: 14px; font-family: 'DejaVu Sans', 'Bitstream Vera Sans', 'Computer Modern Sans Serif', 'Lucida Grande', 'Verdana', 'Geneva', 'Lucid', 'Arial', 'Helvetica', 'Avant Garde', sans-serif; text-anchor: middle" x="383.260625" y="17.837813" transform="rotate(-0 383.260625 17.837813)">Matrixops - Performance Trend</text>
   </g>
   <g id="legend_1">
    <g id="patch_7">
     <path d="M 740.992188 119.906563 
L 846.004688 119.906563 
Q 848.004688 119.906563 848.004688 117.906563 
L 848.004688 30.837813 
Q 848.004688 28.837813 846.004688 28.837813 
L 740.992188 28.837813 
Q 738.992188 28.837813 738.992188 30.837813 
L 738.992188 117.906563 
Q 738.992188 119.906563 740.992188 119.906563 
z
" style="fill: #ffffff; opacity: 0.8; stroke: #cccccc; stroke-linejoin: miter"/>
    </g>
    <g id="line2d_27">
     <path d="M 742.992188 36.93625 
L 752.992188 36.93625 
L 762.992188 36.93625 
" style="fill: none; stroke: #1f77b4; stroke-width: 2; stroke-linecap: square"/>
     <g>
      <use xlink:href="#mc8a7aa814a" x="752.992188" y="36.93625" style="fill: #1f77b4; stroke: #1f77b4"/>
     </g>
    </g>
    <g id="text_13">
     <text style="font-size: 10px; font-family: 'DejaVu Sans', 'Bitstream Vera Sans', 'Computer Modern Sans Serif', 'Lucida Grande', 'Verdana', 'Geneva', 'Lucid', 'Arial', 'Helvetica', 'Avant Garde', sans-serif; text-anchor: start" x="770.992188" y="40.43625" transform="rotate(-0 770.992188 40.43625)">gcc-14.2 - V1</text>
    </g>
    <g id="line2d_28">
     <path d="M 742.992188 51.614375 
L 752.992188 51.614375 
L 762.992188 51.614375 
" style="fill: none; stroke: #ff7f0e; stroke-width: 2; stroke-linecap: square"/>
     <g>
      <use xlink:href="#m1720037c19" x="752.992188" y="51.614375" style="fill: #ff7f0e; stroke: #ff7f0e"/>
     </g>
    </g>
    <g id="text_14">
     <text style="font-size: 10px; font-family: 'DejaVu Sans', 'Bitstream Vera Sans', 'Computer Modern Sans Serif', 'Lucida Grande', 'Verdana', 'Geneva', 'Lucid', 'Arial', 'Helvetica', 'Avant Garde', sans-serif; text-anchor: start" x="770.992188" y="55.114375" transform="rotate(-0 770.992188 55.114375)">gcc-14.2 - V2</text>
    </g>
    <g id="line2d_29">
     <path d="M 742.992188 66.2925 
L 752.992188 66.2925 
L 762.992188 66.2925 
" style="fill: none; stroke: #2ca02c; stroke-width: 2; stroke-linecap: square"/>
     <g>
      <use xlink:href="#m37a90d2f03" x="752.992188" y="66.2925" style="fill: #2ca02c; stroke: #2ca02c"/>
     </g>
    </g>
    <g id="text_15">
     <text style="font-size: 10px; font-family: 'DejaVu Sans', 'Bitstream Vera Sans', 'Computer Modern Sans Serif', 'Lucida Grande', 'Verdana', 'Geneva', 'Lucid', 'Arial', 'Helvetica', 'Avant Garde', sans-serif; text-anchor: start" x="770.992188" y="69.7925" transform="rotate(-0 770.992188 69.7925)">gcc-14.2 - TBB</text>
    </g>
    <g id="line2d_30">
     <path d="M 742.992188 80.970625 
L 752.992188 80.970625 
L 762.992188 80.970625 
" style="fill: none; stroke: #d62728; stroke-width: 2; stroke-linecap: square"/>
     <g>
      <use xlink:href="#m528bac575b" x="752.992188" y="80.970625" style="fill: #d62728; stroke: #d62728"/>
     </g>
    </g>
    <g id="text_16">
     <text style="font-size: 10px; font-family: 'DejaVu Sans', 'Bitstream Vera Sans', 'Computer Modern Sans Serif', 'Lucida Grande', 'Verdana', 'Geneva', 'Lucid', 'Arial', 'Helvetica', 'Avant Garde', sans-serif; text-anchor: start" x="770.992188" y="84.470625" transform="rotate(-0 770.992188 84.470625)">gcc-4.2 - V1</text>
    </g>
    <g id="line2d_31">
     <path d="M 742.992188 95.64875 
L 752.992188 95.64875 
L 762.992188 95.64875 
" style="fill: none; stroke: #9467bd; stroke-width: 2; stroke-linecap: square"/>
     <g>
      <use xlink:href="#m662def0555" x="752.992188" y="95.64875" style="fill: #9467bd; stroke: #9467bd"/>
     </g>
    </g>
    <g id="text_17">
     <text style="font-size: 10px; font-family: 'DejaVu Sans', 'Bitstream Vera Sans', 'Computer Modern Sans Serif', 'Lucida Grande', 'Verdana', 'Geneva', 'Lucid', 'Arial', 'Helvetica', 'Avant Garde', sans-serif; text-anchor: start" x="770.992188" y="99.14875" transform="rotate(-0 770.992188 99.14875)">gcc-4.2 - V2</text>
    </g>
    <g id="line2d_32">
     <path d="M 742.992188 110.326875 
L 752.992188 110.326875 
L 762.992188 110.326875 
" style="fill: none; stroke: #8c564b; stroke-width: 2; stroke-linecap: square"/>
     <g>
      <use xlink:href="#mde94cfb323" x="752.992188" y="110.326875" style="fill: #8c564b; stroke: #8c564b"/>
     </g>
    </g>
    <g id="text_18">
     <text style="font-size: 10px; font-family: 'DejaVu Sans', 'Bitstream Vera Sans', 'Computer Modern Sans Serif', 'Lucida Grande', 'Verdana', 'Geneva', 'Lucid', 'Arial', 'Helvetica', 'Avant Garde', sans-serif; text-anchor: start" x="770.992188" y="113.826875" transform="rotate(-0 770.992188 113.826875)">gcc-4.2 - TBB</text>
    </g>
   </g>
  </g>
 </g>
 <defs>
  <clipPath id="p8acc0e02e6">
   <rect x="64.41375" y="23.837813" width="637.69375" height="505.470313"/>
  </clipPath>
 </defs>
</svg>
