<?xml version="1.0" encoding="utf-8" standalone="no"?>
<!DOCTYPE svg PUBLIC "-//W3C//DTD SVG 1.1//EN"
  "http://www.w3.org/Graphics/SVG/1.1/DTD/svg11.dtd">
<svg xmlns:xlink="http://www.w3.org/1999/xlink" width="855.536016pt" height="568.8pt" viewBox="0 0 855.536016 568.8" xmlns="http://www.w3.org/2000/svg" version="1.1">
 <metadata>
  <rdf:RDF xmlns:dc="http://purl.org/dc/elements/1.1/" xmlns:cc="http://creativecommons.org/ns#" xmlns:rdf="http://www.w3.org/1999/02/22-rdf-syntax-ns#">
   <cc:Work>
    <dc:type rdf:resource="http://purl.org/dc/dcmitype/StillImage"/>
    <dc:date>2025-08-30T02:09:48.774858</dc:date>
    <dc:format>image/svg+xml</dc:format>
    <dc:creator>
     <cc:Agent>
      <dc:title>Matplotlib v3.9.4, https://matplotlib.org/</dc:title>
     </cc:Agent>
    </dc:creator>
   </cc:Work>
  </rdf:RDF>
 </metadata>
 <defs>
  <style type="text/css">*{stroke-linejoin: round; stroke-linecap: butt}</style>
 </defs>
 <g id="figure_1">
  <g id="patch_1">
   <path d="M 0 568.8 
L 855.536016 568.8 
L 855.536016 0 
L 0 0 
z
" style="fill: #ffffff"/>
  </g>
  <g id="axes_1">
   <g id="patch_2">
    <path d="M 64.41375 529.308125 
L 708.734063 529.308125 
L 708.734063 23.837812 
L 64.41375 23.837812 
z
" style="fill: #ffffff"/>
   </g>
   <g id="matplotlib.axis_1">
    <g id="xtick_1">
     <g id="line2d_1">
      <path d="M 78.681915 529.308125 
L 78.681915 23.837812 
" clip-path="url(#p6449875cfd)" style="fill: none; stroke: #b0b0b0; stroke-opacity: 0.3; stroke-width: 0.8; stroke-linecap: square"/>
     </g>
     <g id="line2d_2">
      <defs>
       <path id="m9026a0d7a4" d="M 0 0 
L 0 3.5 
" style="stroke: #000000; stroke-width: 0.8"/>
      </defs>
      <g>
       <use xlink:href="#m9026a0d7a4" x="78.681915" y="529.308125" style="stroke: #000000; stroke-width: 0.8"/>
      </g>
     </g>
     <g id="text_1">
      <text style="font: 10px 'DejaVu Sans', 'Bitstream Vera Sans', 'Computer Modern Sans Serif', 'Lucida Grande', 'Verdana', 'Geneva', 'Lucid', 'Arial', 'Helvetica', 'Avant Garde', sans-serif; text-anchor: middle" x="78.681915" y="543.906563" transform="rotate(-0 78.681915 543.906563)">70</text>
     </g>
    </g>
    <g id="xtick_2">
     <g id="line2d_3">
      <path d="M 153.777523 529.308125 
L 153.777523 23.837812 
" clip-path="url(#p6449875cfd)" style="fill: none; stroke: #b0b0b0; stroke-opacity: 0.3; stroke-width: 0.8; stroke-linecap: square"/>
     </g>
     <g id="line2d_4">
      <g>
       <use xlink:href="#m9026a0d7a4" x="153.777523" y="529.308125" style="stroke: #000000; stroke-width: 0.8"/>
      </g>
     </g>
     <g id="text_2">
      <text style="font: 10px 'DejaVu Sans', 'Bitstream Vera Sans', 'Computer Modern Sans Serif', 'Lucida Grande', 'Verdana', 'Geneva', 'Lucid', 'Arial', 'Helvetica', 'Avant Garde', sans-serif; text-anchor: middle" x="153.777523" y="543.906563" transform="rotate(-0 153.777523 543.906563)">75</text>
     </g>
    </g>
    <g id="xtick_3">
     <g id="line2d_5">
      <path d="M 228.87313 529.308125 
L 228.87313 23.837812 
" clip-path="url(#p6449875cfd)" style="fill: none; stroke: #b0b0b0; stroke-opacity: 0.3; stroke-width: 0.8; stroke-linecap: square"/>
     </g>
     <g id="line2d_6">
      <g>
       <use xlink:href="#m9026a0d7a4" x="228.87313" y="529.308125" style="stroke: #000000; stroke-width: 0.8"/>
      </g>
     </g>
     <g id="text_3">
      <text style="font: 10px 'DejaVu Sans', 'Bitstream Vera Sans', 'Computer Modern Sans Serif', 'Lucida Grande', 'Verdana', 'Geneva', 'Lucid', 'Arial', 'Helvetica', 'Avant Garde', sans-serif; text-anchor: middle" x="228.87313" y="543.906563" transform="rotate(-0 228.87313 543.906563)">80</text>
     </g>
    </g>
    <g id="xtick_4">
     <g id="line2d_7">
      <path d="M 303.968738 529.308125 
L 303.968738 23.837812 
" clip-path="url(#p6449875cfd)" style="fill: none; stroke: #b0b0b0; stroke-opacity: 0.3; stroke-width: 0.8; stroke-linecap: square"/>
     </g>
     <g id="line2d_8">
      <g>
       <use xlink:href="#m9026a0d7a4" x="303.968738" y="529.308125" style="stroke: #000000; stroke-width: 0.8"/>
      </g>
     </g>
     <g id="text_4">
      <text style="font: 10px 'DejaVu Sans', 'Bitstream Vera Sans', 'Computer Modern Sans Serif', 'Lucida Grande', 'Verdana', 'Geneva', 'Lucid', 'Arial', 'Helvetica', 'Avant Garde', sans-serif; text-anchor: middle" x="303.968738" y="543.906563" transform="rotate(-0 303.968738 543.906563)">85</text>
     </g>
    </g>
    <g id="xtick_5">
     <g id="line2d_9">
      <path d="M 379.064345 529.308125 
L 379.064345 23.837812 
" clip-path="url(#p6449875cfd)" style="fill: none; stroke: #b0b0b0; stroke-opacity: 0.3; stroke-width: 0.8; stroke-linecap: square"/>
     </g>
     <g id="line2d_10">
      <g>
       <use xlink:href="#m9026a0d7a4" x="379.064345" y="529.308125" style="stroke: #000000; stroke-width: 0.8"/>
      </g>
     </g>
     <g id="text_5">
      <text style="font: 10px 'DejaVu Sans', 'Bitstream Vera Sans', 'Computer Modern Sans Serif', 'Lucida Grande', 'Verdana', 'Geneva', 'Lucid', 'Arial', 'Helvetica', 'Avant Garde', sans-serif; text-anchor: middle" x="379.064345" y="543.906563" transform="rotate(-0 379.064345 543.906563)">90</text>
     </g>
    </g>
    <g id="xtick_6">
     <g id="line2d_11">
      <path d="M 454.159953 529.308125 
L 454.159953 23.837812 
" clip-path="url(#p6449875cfd)" style="fill: none; stroke: #b0b0b0; stroke-opacity: 0.3; stroke-width: 0.8; stroke-linecap: square"/>
     </g>
     <g id="line2d_12">
      <g>
       <use xlink:href="#m9026a0d7a4" x="454.159953" y="529.308125" style="stroke: #000000; stroke-width: 0.8"/>
      </g>
     </g>
     <g id="text_6">
      <text style="font: 10px 'DejaVu Sans', 'Bitstream Vera Sans', 'Computer Modern Sans Serif', 'Lucida Grande', 'Verdana', 'Geneva', 'Lucid', 'Arial', 'Helvetica', 'Avant Garde', sans-serif; text-anchor: middle" x="454.159953" y="543.906563" transform="rotate(-0 454.159953 543.906563)">95</text>
     </g>
    </g>
    <g id="xtick_7">
     <g id="line2d_13">
      <path d="M 529.255561 529.308125 
L 529.255561 23.837812 
" clip-path="url(#p6449875cfd)" style="fill: none; stroke: #b0b0b0; stroke-opacity: 0.3; stroke-width: 0.8; stroke-linecap: square"/>
     </g>
     <g id="line2d_14">
      <g>
       <use xlink:href="#m9026a0d7a4" x="529.255561" y="529.308125" style="stroke: #000000; stroke-width: 0.8"/>
      </g>
     </g>
     <g id="text_7">
      <text style="font: 10px 'DejaVu Sans', 'Bitstream Vera Sans', 'Computer Modern Sans Serif', 'Lucida Grande', 'Verdana', 'Geneva', 'Lucid', 'Arial', 'Helvetica', 'Avant Garde', sans-serif; text-anchor: middle" x="529.255561" y="543.906563" transform="rotate(-0 529.255561 543.906563)">100</text>
     </g>
    </g>
    <g id="xtick_8">
     <g id="line2d_15">
      <path d="M 604.351168 529.308125 
L 604.351168 23.837812 
" clip-path="url(#p6449875cfd)" style="fill: none; stroke: #b0b0b0; stroke-opacity: 0.3; stroke-width: 0.8; stroke-linecap: square"/>
     </g>
     <g id="line2d_16">
      <g>
       <use xlink:href="#m9026a0d7a4" x="604.351168" y="529.308125" style="stroke: #000000; stroke-width: 0.8"/>
      </g>
     </g>
     <g id="text_8">
      <text style="font: 10px 'DejaVu Sans', 'Bitstream Vera Sans', 'Computer Modern Sans Serif', 'Lucida Grande', 'Verdana', 'Geneva', 'Lucid', 'Arial', 'Helvetica', 'Avant Garde', sans-serif; text-anchor: middle" x="604.351168" y="543.906563" transform="rotate(-0 604.351168 543.906563)">105</text>
     </g>
    </g>
    <g id="xtick_9">
     <g id="line2d_17">
      <path d="M 679.446776 529.308125 
L 679.446776 23.837812 
" clip-path="url(#p6449875cfd)" style="fill: none; stroke: #b0b0b0; stroke-opacity: 0.3; stroke-width: 0.8; stroke-linecap: square"/>
     </g>
     <g id="line2d_18">
      <g>
       <use xlink:href="#m9026a0d7a4" x="679.446776" y="529.308125" style="stroke: #000000; stroke-width: 0.8"/>
      </g>
     </g>
     <g id="text_9">
      <text style="font: 10px 'DejaVu Sans', 'Bitstream Vera Sans', 'Computer Modern Sans Serif', 'Lucida Grande', 'Verdana', 'Geneva', 'Lucid', 'Arial', 'Helvetica', 'Avant Garde', sans-serif; text-anchor: middle" x="679.446776" y="543.906563" transform="rotate(-0 679.446776 543.906563)">110</text>
     </g>
    </g>
    <g id="text_10">
     <text style="font: 12px 'DejaVu Sans', 'Bitstream Vera Sans', 'Computer Modern Sans Serif', 'Lucida Grande', 'Verdana', 'Geneva', 'Lucid', 'Arial', 'Helvetica', 'Avant Garde', sans-serif; text-anchor: middle" x="386.573906" y="559.104375" transform="rotate(-0 386.573906 559.104375)">Build Number</text>
    </g>
   </g>
   <g id="matplotlib.axis_2">
    <g id="ytick_1">
     <g id="line2d_19">
      <path d="M 64.41375 334.291639 
L 708.734063 334.291639 
" clip-path="url(#p6449875cfd)" style="fill: none; stroke: #b0b0b0; stroke-opacity: 0.3; stroke-width: 0.8; stroke-linecap: square"/>
     </g>
     <g id="line2d_20">
      <defs>
       <path id="mb6c0eb5cbd" d="M 0 0 
L -3.5 0 
" style="stroke: #000000; stroke-width: 0.8"/>
      </defs>
      <g>
       <use xlink:href="#mb6c0eb5cbd" x="64.41375" y="334.291639" style="stroke: #000000; stroke-width: 0.8"/>
      </g>
     </g>
     <g id="text_11">
      <!-- $\mathdefault{10^{5}}$ -->
      <g transform="translate(39.81375 338.090858)">
       <text>
        <tspan style="font: 10px 'DejaVu Sans'" x="0 6.362305" y="-0.06406250000000036">10</tspan>
        <tspan style="font: 7px 'DejaVu Sans'" x="12.820312" y="-3.8921875000000004">5</tspan>
       </text>
      </g>
     </g>
    </g>
    <g id="ytick_2">
     <g id="line2d_21">
      <defs>
       <path id="medcfc2d342" d="M 0 0 
L -2 0 
" style="stroke: #000000; stroke-width: 0.6"/>
      </defs>
      <g>
       <use xlink:href="#medcfc2d342" x="64.41375" y="505.7097" style="stroke: #000000; stroke-width: 0.6"/>
      </g>
     </g>
     <g id="text_12">
      <!-- $\mathdefault{6\times10^{4}}$ -->
      <g transform="translate(22.81375 509.508919)">
       <text>
        <tspan style="font: 10px 'DejaVu Sans'" x="0 8.310547 18.637695 25" y="-0.06406250000000036">6×10</tspan>
        <tspan style="font: 7px 'DejaVu Sans'" x="31.458008" y="-3.8921875000000004">4</tspan>
       </text>
      </g>
     </g>
    </g>
    <g id="ytick_3">
     <g id="line2d_22">
      <g>
       <use xlink:href="#medcfc2d342" x="64.41375" y="453.981264" style="stroke: #000000; stroke-width: 0.6"/>
      </g>
     </g>
    </g>
    <g id="ytick_4">
     <g id="line2d_23">
      <g>
       <use xlink:href="#medcfc2d342" x="64.41375" y="409.172055" style="stroke: #000000; stroke-width: 0.6"/>
      </g>
     </g>
    </g>
    <g id="ytick_5">
     <g id="line2d_24">
      <g>
       <use xlink:href="#medcfc2d342" x="64.41375" y="369.647531" style="stroke: #000000; stroke-width: 0.6"/>
      </g>
     </g>
    </g>
    <g id="ytick_6">
     <g id="line2d_25">
      <g>
       <use xlink:href="#medcfc2d342" x="64.41375" y="101.691823" style="stroke: #000000; stroke-width: 0.6"/>
      </g>
     </g>
     <g id="text_13">
      <!-- $\mathdefault{2\times10^{5}}$ -->
      <g transform="translate(22.81375 105.491042)">
       <text>
        <tspan style="font: 10px 'DejaVu Sans'" x="0 8.310547 18.637695 25" y="-0.06406250000000036">2×10</tspan>
        <tspan style="font: 7px 'DejaVu Sans'" x="31.458008" y="-3.8921875000000004">5</tspan>
       </text>
      </g>
     </g>
    </g>
    <g id="text_14">
     <text style="font: 12px 'DejaVu Sans', 'Bitstream Vera Sans', 'Computer Modern Sans Serif', 'Lucida Grande', 'Verdana', 'Geneva', 'Lucid', 'Arial', 'Helvetica', 'Avant Garde', sans-serif; text-anchor: middle" x="16.318125" y="276.572969" transform="rotate(-90 16.318125 276.572969)">Median Elapsed Time (nanoseconds)</text>
    </g>
   </g>
   <g id="line2d_26">
    <path d="M 93.701037 46.813736 
L 108.720158 191.993804 
L 123.73928 203.583288 
L 138.758401 226.939206 
L 153.777523 249.293351 
L 168.796644 197.56458 
L 183.815766 217.514077 
L 198.834887 216.449271 
L 213.854009 213.414453 
L 228.87313 197.627325 
L 243.892252 255.061283 
L 258.911373 181.822836 
L 273.930495 48.546392 
L 288.949616 155.181473 
L 303.968738 255.056248 
L 318.987859 280.19621 
L 349.026102 250.483261 
L 364.045224 243.683337 
L 379.064345 243.288052 
L 394.083467 283.580852 
L 409.102589 283.575659 
L 424.12171 244.097042 
L 439.140832 245.4831 
L 454.159953 283.596143 
L 469.179075 244.026517 
L 484.198196 252.14706 
L 514.236439 107.746626 
L 529.255561 249.935013 
L 544.274682 47.122473 
L 559.293804 283.266816 
L 574.312925 237.087039 
L 589.332047 284.46166 
L 604.351168 243.282935 
L 619.37029 241.955645 
L 649.408533 283.561234 
L 664.427654 282.732565 
L 679.446776 243.462084 
" clip-path="url(#p6449875cfd)" style="fill: none; stroke: #1f77b4; stroke-width: 2; stroke-linecap: square"/>
    <defs>
     <path id="m7a0f686050" d="M 0 3 
C 0.795609 3 1.55874 2.683901 2.12132 2.12132 
C 2.683901 1.55874 3 0.795609 3 0 
C 3 -0.795609 2.683901 -1.55874 2.12132 -2.12132 
C 1.55874 -2.683901 0.795609 -3 0 -3 
C -0.795609 -3 -1.55874 -2.683901 -2.12132 -2.12132 
C -2.683901 -1.55874 -3 -0.795609 -3 0 
C -3 0.795609 -2.683901 1.55874 -2.12132 2.12132 
C -1.55874 2.683901 -0.795609 3 0 3 
z
" style="stroke: #1f77b4"/>
    </defs>
    <g clip-path="url(#p6449875cfd)">
     <use xlink:href="#m7a0f686050" x="93.701037" y="46.813736" style="fill: #1f77b4; stroke: #1f77b4"/>
     <use xlink:href="#m7a0f686050" x="108.720158" y="191.993804" style="fill: #1f77b4; stroke: #1f77b4"/>
     <use xlink:href="#m7a0f686050" x="123.73928" y="203.583288" style="fill: #1f77b4; stroke: #1f77b4"/>
     <use xlink:href="#m7a0f686050" x="138.758401" y="226.939206" style="fill: #1f77b4; stroke: #1f77b4"/>
     <use xlink:href="#m7a0f686050" x="153.777523" y="249.293351" style="fill: #1f77b4; stroke: #1f77b4"/>
     <use xlink:href="#m7a0f686050" x="168.796644" y="197.56458" style="fill: #1f77b4; stroke: #1f77b4"/>
     <use xlink:href="#m7a0f686050" x="183.815766" y="217.514077" style="fill: #1f77b4; stroke: #1f77b4"/>
     <use xlink:href="#m7a0f686050" x="198.834887" y="216.449271" style="fill: #1f77b4; stroke: #1f77b4"/>
     <use xlink:href="#m7a0f686050" x="213.854009" y="213.414453" style="fill: #1f77b4; stroke: #1f77b4"/>
     <use xlink:href="#m7a0f686050" x="228.87313" y="197.627325" style="fill: #1f77b4; stroke: #1f77b4"/>
     <use xlink:href="#m7a0f686050" x="243.892252" y="255.061283" style="fill: #1f77b4; stroke: #1f77b4"/>
     <use xlink:href="#m7a0f686050" x="258.911373" y="181.822836" style="fill: #1f77b4; stroke: #1f77b4"/>
     <use xlink:href="#m7a0f686050" x="273.930495" y="48.546392" style="fill: #1f77b4; stroke: #1f77b4"/>
     <use xlink:href="#m7a0f686050" x="288.949616" y="155.181473" style="fill: #1f77b4; stroke: #1f77b4"/>
     <use xlink:href="#m7a0f686050" x="303.968738" y="255.056248" style="fill: #1f77b4; stroke: #1f77b4"/>
     <use xlink:href="#m7a0f686050" x="318.987859" y="280.19621" style="fill: #1f77b4; stroke: #1f77b4"/>
     <use xlink:href="#m7a0f686050" x="349.026102" y="250.483261" style="fill: #1f77b4; stroke: #1f77b4"/>
     <use xlink:href="#m7a0f686050" x="364.045224" y="243.683337" style="fill: #1f77b4; stroke: #1f77b4"/>
     <use xlink:href="#m7a0f686050" x="379.064345" y="243.288052" style="fill: #1f77b4; stroke: #1f77b4"/>
     <use xlink:href="#m7a0f686050" x="394.083467" y="283.580852" style="fill: #1f77b4; stroke: #1f77b4"/>
     <use xlink:href="#m7a0f686050" x="409.102589" y="283.575659" style="fill: #1f77b4; stroke: #1f77b4"/>
     <use xlink:href="#m7a0f686050" x="424.12171" y="244.097042" style="fill: #1f77b4; stroke: #1f77b4"/>
     <use xlink:href="#m7a0f686050" x="439.140832" y="245.4831" style="fill: #1f77b4; stroke: #1f77b4"/>
     <use xlink:href="#m7a0f686050" x="454.159953" y="283.596143" style="fill: #1f77b4; stroke: #1f77b4"/>
     <use xlink:href="#m7a0f686050" x="469.179075" y="244.026517" style="fill: #1f77b4; stroke: #1f77b4"/>
     <use xlink:href="#m7a0f686050" x="484.198196" y="252.14706" style="fill: #1f77b4; stroke: #1f77b4"/>
     <use xlink:href="#m7a0f686050" x="514.236439" y="107.746626" style="fill: #1f77b4; stroke: #1f77b4"/>
     <use xlink:href="#m7a0f686050" x="529.255561" y="249.935013" style="fill: #1f77b4; stroke: #1f77b4"/>
     <use xlink:href="#m7a0f686050" x="544.274682" y="47.122473" style="fill: #1f77b4; stroke: #1f77b4"/>
     <use xlink:href="#m7a0f686050" x="559.293804" y="283.266816" style="fill: #1f77b4; stroke: #1f77b4"/>
     <use xlink:href="#m7a0f686050" x="574.312925" y="237.087039" style="fill: #1f77b4; stroke: #1f77b4"/>
     <use xlink:href="#m7a0f686050" x="589.332047" y="284.46166" style="fill: #1f77b4; stroke: #1f77b4"/>
     <use xlink:href="#m7a0f686050" x="604.351168" y="243.282935" style="fill: #1f77b4; stroke: #1f77b4"/>
     <use xlink:href="#m7a0f686050" x="619.37029" y="241.955645" style="fill: #1f77b4; stroke: #1f77b4"/>
     <use xlink:href="#m7a0f686050" x="649.408533" y="283.561234" style="fill: #1f77b4; stroke: #1f77b4"/>
     <use xlink:href="#m7a0f686050" x="664.427654" y="282.732565" style="fill: #1f77b4; stroke: #1f77b4"/>
     <use xlink:href="#m7a0f686050" x="679.446776" y="243.462084" style="fill: #1f77b4; stroke: #1f77b4"/>
    </g>
   </g>
   <g id="line2d_27">
    <path d="M 93.701037 240.963675 
L 108.720158 243.863598 
L 123.73928 244.090117 
L 138.758401 246.102545 
L 153.777523 239.261485 
L 168.796644 244.568784 
L 183.815766 239.50832 
L 198.834887 247.747045 
L 213.854009 241.093226 
L 228.87313 247.539422 
L 243.892252 242.14731 
L 258.911373 245.28202 
L 273.930495 248.914302 
L 288.949616 244.728064 
L 303.968738 249.45098 
L 318.987859 239.165431 
L 349.026102 244.109353 
L 364.045224 241.526717 
L 379.064345 244.443983 
L 394.083467 247.414482 
L 409.102589 239.866502 
L 424.12171 237.098844 
L 439.140832 237.606123 
L 454.159953 235.646113 
L 469.179075 280.614175 
L 484.198196 247.512733 
L 514.236439 279.756862 
L 529.255561 281.661443 
L 544.274682 280.709844 
L 559.293804 280.122753 
L 574.312925 279.068518 
L 589.332047 280.640628 
L 604.351168 279.542799 
L 619.37029 279.805152 
L 649.408533 278.523852 
L 664.427654 281.342606 
L 679.446776 277.611705 
" clip-path="url(#p6449875cfd)" style="fill: none; stroke: #ff7f0e; stroke-width: 2; stroke-linecap: square"/>
    <defs>
     <path id="mb0d0224b28" d="M 0 3 
C 0.795609 3 1.55874 2.683901 2.12132 2.12132 
C 2.683901 1.55874 3 0.795609 3 0 
C 3 -0.795609 2.683901 -1.55874 2.12132 -2.12132 
C 1.55874 -2.683901 0.795609 -3 0 -3 
C -0.795609 -3 -1.55874 -2.683901 -2.12132 -2.12132 
C -2.683901 -1.55874 -3 -0.795609 -3 0 
C -3 0.795609 -2.683901 1.55874 -2.12132 2.12132 
C -1.55874 2.683901 -0.795609 3 0 3 
z
" style="stroke: #ff7f0e"/>
    </defs>
    <g clip-path="url(#p6449875cfd)">
     <use xlink:href="#mb0d0224b28" x="93.701037" y="240.963675" style="fill: #ff7f0e; stroke: #ff7f0e"/>
     <use xlink:href="#mb0d0224b28" x="108.720158" y="243.863598" style="fill: #ff7f0e; stroke: #ff7f0e"/>
     <use xlink:href="#mb0d0224b28" x="123.73928" y="244.090117" style="fill: #ff7f0e; stroke: #ff7f0e"/>
     <use xlink:href="#mb0d0224b28" x="138.758401" y="246.102545" style="fill: #ff7f0e; stroke: #ff7f0e"/>
     <use xlink:href="#mb0d0224b28" x="153.777523" y="239.261485" style="fill: #ff7f0e; stroke: #ff7f0e"/>
     <use xlink:href="#mb0d0224b28" x="168.796644" y="244.568784" style="fill: #ff7f0e; stroke: #ff7f0e"/>
     <use xlink:href="#mb0d0224b28" x="183.815766" y="239.50832" style="fill: #ff7f0e; stroke: #ff7f0e"/>
     <use xlink:href="#mb0d0224b28" x="198.834887" y="247.747045" style="fill: #ff7f0e; stroke: #ff7f0e"/>
     <use xlink:href="#mb0d0224b28" x="213.854009" y="241.093226" style="fill: #ff7f0e; stroke: #ff7f0e"/>
     <use xlink:href="#mb0d0224b28" x="228.87313" y="247.539422" style="fill: #ff7f0e; stroke: #ff7f0e"/>
     <use xlink:href="#mb0d0224b28" x="243.892252" y="242.14731" style="fill: #ff7f0e; stroke: #ff7f0e"/>
     <use xlink:href="#mb0d0224b28" x="258.911373" y="245.28202" style="fill: #ff7f0e; stroke: #ff7f0e"/>
     <use xlink:href="#mb0d0224b28" x="273.930495" y="248.914302" style="fill: #ff7f0e; stroke: #ff7f0e"/>
     <use xlink:href="#mb0d0224b28" x="288.949616" y="244.728064" style="fill: #ff7f0e; stroke: #ff7f0e"/>
     <use xlink:href="#mb0d0224b28" x="303.968738" y="249.45098" style="fill: #ff7f0e; stroke: #ff7f0e"/>
     <use xlink:href="#mb0d0224b28" x="318.987859" y="239.165431" style="fill: #ff7f0e; stroke: #ff7f0e"/>
     <use xlink:href="#mb0d0224b28" x="349.026102" y="244.109353" style="fill: #ff7f0e; stroke: #ff7f0e"/>
     <use xlink:href="#mb0d0224b28" x="364.045224" y="241.526717" style="fill: #ff7f0e; stroke: #ff7f0e"/>
     <use xlink:href="#mb0d0224b28" x="379.064345" y="244.443983" style="fill: #ff7f0e; stroke: #ff7f0e"/>
     <use xlink:href="#mb0d0224b28" x="394.083467" y="247.414482" style="fill: #ff7f0e; stroke: #ff7f0e"/>
     <use xlink:href="#mb0d0224b28" x="409.102589" y="239.866502" style="fill: #ff7f0e; stroke: #ff7f0e"/>
     <use xlink:href="#mb0d0224b28" x="424.12171" y="237.098844" style="fill: #ff7f0e; stroke: #ff7f0e"/>
     <use xlink:href="#mb0d0224b28" x="439.140832" y="237.606123" style="fill: #ff7f0e; stroke: #ff7f0e"/>
     <use xlink:href="#mb0d0224b28" x="454.159953" y="235.646113" style="fill: #ff7f0e; stroke: #ff7f0e"/>
     <use xlink:href="#mb0d0224b28" x="469.179075" y="280.614175" style="fill: #ff7f0e; stroke: #ff7f0e"/>
     <use xlink:href="#mb0d0224b28" x="484.198196" y="247.512733" style="fill: #ff7f0e; stroke: #ff7f0e"/>
     <use xlink:href="#mb0d0224b28" x="514.236439" y="279.756862" style="fill: #ff7f0e; stroke: #ff7f0e"/>
     <use xlink:href="#mb0d0224b28" x="529.255561" y="281.661443" style="fill: #ff7f0e; stroke: #ff7f0e"/>
     <use xlink:href="#mb0d0224b28" x="544.274682" y="280.709844" style="fill: #ff7f0e; stroke: #ff7f0e"/>
     <use xlink:href="#mb0d0224b28" x="559.293804" y="280.122753" style="fill: #ff7f0e; stroke: #ff7f0e"/>
     <use xlink:href="#mb0d0224b28" x="574.312925" y="279.068518" style="fill: #ff7f0e; stroke: #ff7f0e"/>
     <use xlink:href="#mb0d0224b28" x="589.332047" y="280.640628" style="fill: #ff7f0e; stroke: #ff7f0e"/>
     <use xlink:href="#mb0d0224b28" x="604.351168" y="279.542799" style="fill: #ff7f0e; stroke: #ff7f0e"/>
     <use xlink:href="#mb0d0224b28" x="619.37029" y="279.805152" style="fill: #ff7f0e; stroke: #ff7f0e"/>
     <use xlink:href="#mb0d0224b28" x="649.408533" y="278.523852" style="fill: #ff7f0e; stroke: #ff7f0e"/>
     <use xlink:href="#mb0d0224b28" x="664.427654" y="281.342606" style="fill: #ff7f0e; stroke: #ff7f0e"/>
     <use xlink:href="#mb0d0224b28" x="679.446776" y="277.611705" style="fill: #ff7f0e; stroke: #ff7f0e"/>
    </g>
   </g>
   <g id="line2d_28">
    <path d="M 93.701037 414.551779 
L 108.720158 497.463966 
L 123.73928 414.97317 
L 138.758401 486.590358 
L 153.777523 488.58483 
L 168.796644 494.968464 
L 183.815766 431.17622 
L 198.834887 259.841298 
L 213.854009 504.165161 
L 228.87313 502.411088 
L 243.892252 448.322626 
L 258.911373 415.961606 
L 273.930495 472.805361 
L 303.968738 490.422322 
L 318.987859 432.542825 
L 349.026102 506.332202 
L 364.045224 259.267362 
L 379.064345 486.236577 
L 394.083467 481.772945 
L 409.102589 501.586919 
L 439.140832 503.321129 
L 454.159953 460.778799 
L 469.179075 459.561443 
L 484.198196 479.86882 
L 514.236439 480.855226 
L 529.255561 500.319467 
L 544.274682 505.890118 
L 559.293804 501.949525 
L 574.312925 487.90366 
L 589.332047 260.377715 
L 604.351168 480.387571 
L 619.37029 503.662823 
L 649.408533 478.550422 
L 664.427654 502.536827 
L 679.446776 478.931817 
" clip-path="url(#p6449875cfd)" style="fill: none; stroke: #2ca02c; stroke-width: 2; stroke-linecap: square"/>
    <defs>
     <path id="m86379390fb" d="M 0 3 
C 0.795609 3 1.55874 2.683901 2.12132 2.12132 
C 2.683901 1.55874 3 0.795609 3 0 
C 3 -0.795609 2.683901 -1.55874 2.12132 -2.12132 
C 1.55874 -2.683901 0.795609 -3 0 -3 
C -0.795609 -3 -1.55874 -2.683901 -2.12132 -2.12132 
C -2.683901 -1.55874 -3 -0.795609 -3 0 
C -3 0.795609 -2.683901 1.55874 -2.12132 2.12132 
C -1.55874 2.683901 -0.795609 3 0 3 
z
" style="stroke: #2ca02c"/>
    </defs>
    <g clip-path="url(#p6449875cfd)">
     <use xlink:href="#m86379390fb" x="93.701037" y="414.551779" style="fill: #2ca02c; stroke: #2ca02c"/>
     <use xlink:href="#m86379390fb" x="108.720158" y="497.463966" style="fill: #2ca02c; stroke: #2ca02c"/>
     <use xlink:href="#m86379390fb" x="123.73928" y="414.97317" style="fill: #2ca02c; stroke: #2ca02c"/>
     <use xlink:href="#m86379390fb" x="138.758401" y="486.590358" style="fill: #2ca02c; stroke: #2ca02c"/>
     <use xlink:href="#m86379390fb" x="153.777523" y="488.58483" style="fill: #2ca02c; stroke: #2ca02c"/>
     <use xlink:href="#m86379390fb" x="168.796644" y="494.968464" style="fill: #2ca02c; stroke: #2ca02c"/>
     <use xlink:href="#m86379390fb" x="183.815766" y="431.17622" style="fill: #2ca02c; stroke: #2ca02c"/>
     <use xlink:href="#m86379390fb" x="198.834887" y="259.841298" style="fill: #2ca02c; stroke: #2ca02c"/>
     <use xlink:href="#m86379390fb" x="213.854009" y="504.165161" style="fill: #2ca02c; stroke: #2ca02c"/>
     <use xlink:href="#m86379390fb" x="228.87313" y="502.411088" style="fill: #2ca02c; stroke: #2ca02c"/>
     <use xlink:href="#m86379390fb" x="243.892252" y="448.322626" style="fill: #2ca02c; stroke: #2ca02c"/>
     <use xlink:href="#m86379390fb" x="258.911373" y="415.961606" style="fill: #2ca02c; stroke: #2ca02c"/>
     <use xlink:href="#m86379390fb" x="273.930495" y="472.805361" style="fill: #2ca02c; stroke: #2ca02c"/>
     <use xlink:href="#m86379390fb" x="303.968738" y="490.422322" style="fill: #2ca02c; stroke: #2ca02c"/>
     <use xlink:href="#m86379390fb" x="318.987859" y="432.542825" style="fill: #2ca02c; stroke: #2ca02c"/>
     <use xlink:href="#m86379390fb" x="349.026102" y="506.332202" style="fill: #2ca02c; stroke: #2ca02c"/>
     <use xlink:href="#m86379390fb" x="364.045224" y="259.267362" style="fill: #2ca02c; stroke: #2ca02c"/>
     <use xlink:href="#m86379390fb" x="379.064345" y="486.236577" style="fill: #2ca02c; stroke: #2ca02c"/>
     <use xlink:href="#m86379390fb" x="394.083467" y="481.772945" style="fill: #2ca02c; stroke: #2ca02c"/>
     <use xlink:href="#m86379390fb" x="409.102589" y="501.586919" style="fill: #2ca02c; stroke: #2ca02c"/>
     <use xlink:href="#m86379390fb" x="439.140832" y="503.321129" style="fill: #2ca02c; stroke: #2ca02c"/>
     <use xlink:href="#m86379390fb" x="454.159953" y="460.778799" style="fill: #2ca02c; stroke: #2ca02c"/>
     <use xlink:href="#m86379390fb" x="469.179075" y="459.561443" style="fill: #2ca02c; stroke: #2ca02c"/>
     <use xlink:href="#m86379390fb" x="484.198196" y="479.86882" style="fill: #2ca02c; stroke: #2ca02c"/>
     <use xlink:href="#m86379390fb" x="514.236439" y="480.855226" style="fill: #2ca02c; stroke: #2ca02c"/>
     <use xlink:href="#m86379390fb" x="529.255561" y="500.319467" style="fill: #2ca02c; stroke: #2ca02c"/>
     <use xlink:href="#m86379390fb" x="544.274682" y="505.890118" style="fill: #2ca02c; stroke: #2ca02c"/>
     <use xlink:href="#m86379390fb" x="559.293804" y="501.949525" style="fill: #2ca02c; stroke: #2ca02c"/>
     <use xlink:href="#m86379390fb" x="574.312925" y="487.90366" style="fill: #2ca02c; stroke: #2ca02c"/>
     <use xlink:href="#m86379390fb" x="589.332047" y="260.377715" style="fill: #2ca02c; stroke: #2ca02c"/>
     <use xlink:href="#m86379390fb" x="604.351168" y="480.387571" style="fill: #2ca02c; stroke: #2ca02c"/>
     <use xlink:href="#m86379390fb" x="619.37029" y="503.662823" style="fill: #2ca02c; stroke: #2ca02c"/>
     <use xlink:href="#m86379390fb" x="649.408533" y="478.550422" style="fill: #2ca02c; stroke: #2ca02c"/>
     <use xlink:href="#m86379390fb" x="664.427654" y="502.536827" style="fill: #2ca02c; stroke: #2ca02c"/>
     <use xlink:href="#m86379390fb" x="679.446776" y="478.931817" style="fill: #2ca02c; stroke: #2ca02c"/>
    </g>
   </g>
   <g id="line2d_29">
    <path d="M 93.701037 459.866222 
L 108.720158 455.143871 
L 123.73928 459.420607 
L 138.758401 457.27833 
L 153.777523 460.575215 
L 168.796644 466.993507 
L 183.815766 458.812133 
L 198.834887 457.180552 
L 213.854009 460.001714 
L 228.87313 457.742438 
L 243.892252 461.889521 
L 258.911373 465.712231 
L 273.930495 421.868996 
L 303.968738 457.412458 
L 318.987859 454.1049 
L 349.026102 488.92886 
L 364.045224 458.206217 
L 379.064345 456.170075 
L 394.083467 461.129246 
L 409.102589 463.233246 
L 439.140832 459.084593 
L 454.159953 457.457502 
L 469.179075 478.796034 
L 484.198196 480.720181 
L 514.236439 466.047993 
L 529.255561 478.470998 
L 544.274682 479.912321 
L 559.293804 480.445663 
L 574.312925 480.535415 
L 589.332047 481.301371 
L 604.351168 479.19993 
L 619.37029 481.650745 
L 649.408533 479.964115 
L 664.427654 477.156529 
L 679.446776 479.532915 
" clip-path="url(#p6449875cfd)" style="fill: none; stroke: #d62728; stroke-width: 2; stroke-linecap: square"/>
    <defs>
     <path id="m9cd24aa55d" d="M 0 3 
C 0.795609 3 1.55874 2.683901 2.12132 2.12132 
C 2.683901 1.55874 3 0.795609 3 0 
C 3 -0.795609 2.683901 -1.55874 2.12132 -2.12132 
C 1.55874 -2.683901 0.795609 -3 0 -3 
C -0.795609 -3 -1.55874 -2.683901 -2.12132 -2.12132 
C -2.683901 -1.55874 -3 -0.795609 -3 0 
C -3 0.795609 -2.683901 1.55874 -2.12132 2.12132 
C -1.55874 2.683901 -0.795609 3 0 3 
z
" style="stroke: #d62728"/>
    </defs>
    <g clip-path="url(#p6449875cfd)">
     <use xlink:href="#m9cd24aa55d" x="93.701037" y="459.866222" style="fill: #d62728; stroke: #d62728"/>
     <use xlink:href="#m9cd24aa55d" x="108.720158" y="455.143871" style="fill: #d62728; stroke: #d62728"/>
     <use xlink:href="#m9cd24aa55d" x="123.73928" y="459.420607" style="fill: #d62728; stroke: #d62728"/>
     <use xlink:href="#m9cd24aa55d" x="138.758401" y="457.27833" style="fill: #d62728; stroke: #d62728"/>
     <use xlink:href="#m9cd24aa55d" x="153.777523" y="460.575215" style="fill: #d62728; stroke: #d62728"/>
     <use xlink:href="#m9cd24aa55d" x="168.796644" y="466.993507" style="fill: #d62728; stroke: #d62728"/>
     <use xlink:href="#m9cd24aa55d" x="183.815766" y="458.812133" style="fill: #d62728; stroke: #d62728"/>
     <use xlink:href="#m9cd24aa55d" x="198.834887" y="457.180552" style="fill: #d62728; stroke: #d62728"/>
     <use xlink:href="#m9cd24aa55d" x="213.854009" y="460.001714" style="fill: #d62728; stroke: #d62728"/>
     <use xlink:href="#m9cd24aa55d" x="228.87313" y="457.742438" style="fill: #d62728; stroke: #d62728"/>
     <use xlink:href="#m9cd24aa55d" x="243.892252" y="461.889521" style="fill: #d62728; stroke: #d62728"/>
     <use xlink:href="#m9cd24aa55d" x="258.911373" y="465.712231" style="fill: #d62728; stroke: #d62728"/>
     <use xlink:href="#m9cd24aa55d" x="273.930495" y="421.868996" style="fill: #d62728; stroke: #d62728"/>
     <use xlink:href="#m9cd24aa55d" x="303.968738" y="457.412458" style="fill: #d62728; stroke: #d62728"/>
     <use xlink:href="#m9cd24aa55d" x="318.987859" y="454.1049" style="fill: #d62728; stroke: #d62728"/>
     <use xlink:href="#m9cd24aa55d" x="349.026102" y="488.92886" style="fill: #d62728; stroke: #d62728"/>
     <use xlink:href="#m9cd24aa55d" x="364.045224" y="458.206217" style="fill: #d62728; stroke: #d62728"/>
     <use xlink:href="#m9cd24aa55d" x="379.064345" y="456.170075" style="fill: #d62728; stroke: #d62728"/>
     <use xlink:href="#m9cd24aa55d" x="394.083467" y="461.129246" style="fill: #d62728; stroke: #d62728"/>
     <use xlink:href="#m9cd24aa55d" x="409.102589" y="463.233246" style="fill: #d62728; stroke: #d62728"/>
     <use xlink:href="#m9cd24aa55d" x="439.140832" y="459.084593" style="fill: #d62728; stroke: #d62728"/>
     <use xlink:href="#m9cd24aa55d" x="454.159953" y="457.457502" style="fill: #d62728; stroke: #d62728"/>
     <use xlink:href="#m9cd24aa55d" x="469.179075" y="478.796034" style="fill: #d62728; stroke: #d62728"/>
     <use xlink:href="#m9cd24aa55d" x="484.198196" y="480.720181" style="fill: #d62728; stroke: #d62728"/>
     <use xlink:href="#m9cd24aa55d" x="514.236439" y="466.047993" style="fill: #d62728; stroke: #d62728"/>
     <use xlink:href="#m9cd24aa55d" x="529.255561" y="478.470998" style="fill: #d62728; stroke: #d62728"/>
     <use xlink:href="#m9cd24aa55d" x="544.274682" y="479.912321" style="fill: #d62728; stroke: #d62728"/>
     <use xlink:href="#m9cd24aa55d" x="559.293804" y="480.445663" style="fill: #d62728; stroke: #d62728"/>
     <use xlink:href="#m9cd24aa55d" x="574.312925" y="480.535415" style="fill: #d62728; stroke: #d62728"/>
     <use xlink:href="#m9cd24aa55d" x="589.332047" y="481.301371" style="fill: #d62728; stroke: #d62728"/>
     <use xlink:href="#m9cd24aa55d" x="604.351168" y="479.19993" style="fill: #d62728; stroke: #d62728"/>
     <use xlink:href="#m9cd24aa55d" x="619.37029" y="481.650745" style="fill: #d62728; stroke: #d62728"/>
     <use xlink:href="#m9cd24aa55d" x="649.408533" y="479.964115" style="fill: #d62728; stroke: #d62728"/>
     <use xlink:href="#m9cd24aa55d" x="664.427654" y="477.156529" style="fill: #d62728; stroke: #d62728"/>
     <use xlink:href="#m9cd24aa55d" x="679.446776" y="479.532915" style="fill: #d62728; stroke: #d62728"/>
    </g>
   </g>
   <g id="patch_3">
    <path d="M 64.41375 529.308125 
L 64.41375 23.837813 
" style="fill: none; stroke: #000000; stroke-width: 0.8; stroke-linejoin: miter; stroke-linecap: square"/>
   </g>
   <g id="patch_4">
    <path d="M 708.734063 529.308125 
L 708.734063 23.837813 
" style="fill: none; stroke: #000000; stroke-width: 0.8; stroke-linejoin: miter; stroke-linecap: square"/>
   </g>
   <g id="patch_5">
    <path d="M 64.41375 529.308125 
L 708.734063 529.308125 
" style="fill: none; stroke: #000000; stroke-width: 0.8; stroke-linejoin: miter; stroke-linecap: square"/>
   </g>
   <g id="patch_6">
    <path d="M 64.41375 23.837812 
L 708.734063 23.837812 
" style="fill: none; stroke: #000000; stroke-width: 0.8; stroke-linejoin: miter; stroke-linecap: square"/>
   </g>
   <g id="text_15">
    <text style="font: 700 14px 'DejaVu Sans', 'Bitstream Vera Sans', 'Computer Modern Sans Serif', 'Lucida Grande', 'Verdana', 'Geneva', 'Lucid', 'Arial', 'Helvetica', 'Avant Garde', sans-serif; text-anchor: middle" x="386.573906" y="17.837813" transform="rotate(-0 386.573906 17.837813)">Nestedparallel - Performance Trend</text>
   </g>
   <g id="legend_1">
    <g id="patch_7">
     <path d="M 747.950078 90.550312 
L 846.336016 90.550312 
Q 848.336016 90.550312 848.336016 88.550312 
L 848.336016 30.837812 
Q 848.336016 28.837812 846.336016 28.837812 
L 747.950078 28.837812 
Q 745.950078 28.837812 745.950078 30.837812 
L 745.950078 88.550312 
Q 745.950078 90.550312 747.950078 90.550312 
z
" style="fill: #ffffff; opacity: 0.8; stroke: #cccccc; stroke-linejoin: miter"/>
    </g>
    <g id="line2d_30">
     <path d="M 749.950078 36.93625 
L 759.950078 36.93625 
L 769.950078 36.93625 
" style="fill: none; stroke: #1f77b4; stroke-width: 2; stroke-linecap: square"/>
     <g>
      <use xlink:href="#m7a0f686050" x="759.950078" y="36.93625" style="fill: #1f77b4; stroke: #1f77b4"/>
     </g>
    </g>
    <g id="text_16">
     <text style="font: 10px 'DejaVu Sans', 'Bitstream Vera Sans', 'Computer Modern Sans Serif', 'Lucida Grande', 'Verdana', 'Geneva', 'Lucid', 'Arial', 'Helvetica', 'Avant Garde', sans-serif; text-anchor: start" x="777.950078" y="40.43625" transform="rotate(-0 777.950078 40.43625)">gcc-14.2 - V1</text>
    </g>
    <g id="line2d_31">
     <path d="M 749.950078 51.614375 
L 759.950078 51.614375 
L 769.950078 51.614375 
" style="fill: none; stroke: #ff7f0e; stroke-width: 2; stroke-linecap: square"/>
     <g>
      <use xlink:href="#mb0d0224b28" x="759.950078" y="51.614375" style="fill: #ff7f0e; stroke: #ff7f0e"/>
     </g>
    </g>
    <g id="text_17">
     <text style="font: 10px 'DejaVu Sans', 'Bitstream Vera Sans', 'Computer Modern Sans Serif', 'Lucida Grande', 'Verdana', 'Geneva', 'Lucid', 'Arial', 'Helvetica', 'Avant Garde', sans-serif; text-anchor: start" x="777.950078" y="55.114375" transform="rotate(-0 777.950078 55.114375)">gcc-14.2 - V2</text>
    </g>
    <g id="line2d_32">
     <path d="M 749.950078 66.2925 
L 759.950078 66.2925 
L 769.950078 66.2925 
" style="fill: none; stroke: #2ca02c; stroke-width: 2; stroke-linecap: square"/>
     <g>
      <use xlink:href="#m86379390fb" x="759.950078" y="66.2925" style="fill: #2ca02c; stroke: #2ca02c"/>
     </g>
    </g>
    <g id="text_18">
     <text style="font: 10px 'DejaVu Sans', 'Bitstream Vera Sans', 'Computer Modern Sans Serif', 'Lucida Grande', 'Verdana', 'Geneva', 'Lucid', 'Arial', 'Helvetica', 'Avant Garde', sans-serif; text-anchor: start" x="777.950078" y="69.7925" transform="rotate(-0 777.950078 69.7925)">gcc-4.2 - V1</text>
    </g>
    <g id="line2d_33">
     <path d="M 749.950078 80.970625 
L 759.950078 80.970625 
L 769.950078 80.970625 
" style="fill: none; stroke: #d62728; stroke-width: 2; stroke-linecap: square"/>
     <g>
      <use xlink:href="#m9cd24aa55d" x="759.950078" y="80.970625" style="fill: #d62728; stroke: #d62728"/>
     </g>
    </g>
    <g id="text_19">
     <text style="font: 10px 'DejaVu Sans', 'Bitstream Vera Sans', 'Computer Modern Sans Serif', 'Lucida Grande', 'Verdana', 'Geneva', 'Lucid', 'Arial', 'Helvetica', 'Avant Garde', sans-serif; text-anchor: start" x="777.950078" y="84.470625" transform="rotate(-0 777.950078 84.470625)">gcc-4.2 - V2</text>
    </g>
   </g>
  </g>
 </g>
 <defs>
  <clipPath id="p6449875cfd">
   <rect x="64.41375" y="23.837813" width="644.320312" height="505.470313"/>
  </clipPath>
 </defs>
</svg>
