<?xml version="1.0" encoding="utf-8" standalone="no"?>
<!DOCTYPE svg PUBLIC "-//W3C//DTD SVG 1.1//EN"
  "http://www.w3.org/Graphics/SVG/1.1/DTD/svg11.dtd">
<svg xmlns:xlink="http://www.w3.org/1999/xlink" width="855.536016pt" height="568.8pt" viewBox="0 0 855.536016 568.8" xmlns="http://www.w3.org/2000/svg" version="1.1">
 <metadata>
  <rdf:RDF xmlns:dc="http://purl.org/dc/elements/1.1/" xmlns:cc="http://creativecommons.org/ns#" xmlns:rdf="http://www.w3.org/1999/02/22-rdf-syntax-ns#">
   <cc:Work>
    <dc:type rdf:resource="http://purl.org/dc/dcmitype/StillImage"/>
    <dc:date>2025-08-22T23:02:32.131721</dc:date>
    <dc:format>image/svg+xml</dc:format>
    <dc:creator>
     <cc:Agent>
      <dc:title>Matplotlib v3.9.4, https://matplotlib.org/</dc:title>
     </cc:Agent>
    </dc:creator>
   </cc:Work>
  </rdf:RDF>
 </metadata>
 <defs>
  <style type="text/css">*{stroke-linejoin: round; stroke-linecap: butt}</style>
 </defs>
 <g id="figure_1">
  <g id="patch_1">
   <path d="M 0 568.8 
L 855.536016 568.8 
L 855.536016 0 
L 0 0 
z
" style="fill: #ffffff"/>
  </g>
  <g id="axes_1">
   <g id="patch_2">
    <path d="M 64.41375 529.308125 
L 708.734063 529.308125 
L 708.734063 23.837812 
L 64.41375 23.837812 
z
" style="fill: #ffffff"/>
   </g>
   <g id="matplotlib.axis_1">
    <g id="xtick_1">
     <g id="line2d_1">
      <path d="M 76.473221 529.308125 
L 76.473221 23.837812 
" clip-path="url(#p185a77956c)" style="fill: none; stroke: #b0b0b0; stroke-opacity: 0.3; stroke-width: 0.8; stroke-linecap: square"/>
     </g>
     <g id="line2d_2">
      <defs>
       <path id="mbfb02b6547" d="M 0 0 
L 0 3.5 
" style="stroke: #000000; stroke-width: 0.8"/>
      </defs>
      <g>
       <use xlink:href="#mbfb02b6547" x="76.473221" y="529.308125" style="stroke: #000000; stroke-width: 0.8"/>
      </g>
     </g>
     <g id="text_1">
      <text style="font: 10px 'DejaVu Sans', 'Bitstream Vera Sans', 'Computer Modern Sans Serif', 'Lucida Grande', 'Verdana', 'Geneva', 'Lucid', 'Arial', 'Helvetica', 'Avant Garde', sans-serif; text-anchor: middle" x="76.473221" y="543.906563" transform="rotate(-0 76.473221 543.906563)">70</text>
     </g>
    </g>
    <g id="xtick_2">
     <g id="line2d_3">
      <path d="M 162.6123 529.308125 
L 162.6123 23.837812 
" clip-path="url(#p185a77956c)" style="fill: none; stroke: #b0b0b0; stroke-opacity: 0.3; stroke-width: 0.8; stroke-linecap: square"/>
     </g>
     <g id="line2d_4">
      <g>
       <use xlink:href="#mbfb02b6547" x="162.6123" y="529.308125" style="stroke: #000000; stroke-width: 0.8"/>
      </g>
     </g>
     <g id="text_2">
      <text style="font: 10px 'DejaVu Sans', 'Bitstream Vera Sans', 'Computer Modern Sans Serif', 'Lucida Grande', 'Verdana', 'Geneva', 'Lucid', 'Arial', 'Helvetica', 'Avant Garde', sans-serif; text-anchor: middle" x="162.6123" y="543.906563" transform="rotate(-0 162.6123 543.906563)">75</text>
     </g>
    </g>
    <g id="xtick_3">
     <g id="line2d_5">
      <path d="M 248.75138 529.308125 
L 248.75138 23.837812 
" clip-path="url(#p185a77956c)" style="fill: none; stroke: #b0b0b0; stroke-opacity: 0.3; stroke-width: 0.8; stroke-linecap: square"/>
     </g>
     <g id="line2d_6">
      <g>
       <use xlink:href="#mbfb02b6547" x="248.75138" y="529.308125" style="stroke: #000000; stroke-width: 0.8"/>
      </g>
     </g>
     <g id="text_3">
      <text style="font: 10px 'DejaVu Sans', 'Bitstream Vera Sans', 'Computer Modern Sans Serif', 'Lucida Grande', 'Verdana', 'Geneva', 'Lucid', 'Arial', 'Helvetica', 'Avant Garde', sans-serif; text-anchor: middle" x="248.75138" y="543.906563" transform="rotate(-0 248.75138 543.906563)">80</text>
     </g>
    </g>
    <g id="xtick_4">
     <g id="line2d_7">
      <path d="M 334.890459 529.308125 
L 334.890459 23.837812 
" clip-path="url(#p185a77956c)" style="fill: none; stroke: #b0b0b0; stroke-opacity: 0.3; stroke-width: 0.8; stroke-linecap: square"/>
     </g>
     <g id="line2d_8">
      <g>
       <use xlink:href="#mbfb02b6547" x="334.890459" y="529.308125" style="stroke: #000000; stroke-width: 0.8"/>
      </g>
     </g>
     <g id="text_4">
      <text style="font: 10px 'DejaVu Sans', 'Bitstream Vera Sans', 'Computer Modern Sans Serif', 'Lucida Grande', 'Verdana', 'Geneva', 'Lucid', 'Arial', 'Helvetica', 'Avant Garde', sans-serif; text-anchor: middle" x="334.890459" y="543.906563" transform="rotate(-0 334.890459 543.906563)">85</text>
     </g>
    </g>
    <g id="xtick_5">
     <g id="line2d_9">
      <path d="M 421.029538 529.308125 
L 421.029538 23.837812 
" clip-path="url(#p185a77956c)" style="fill: none; stroke: #b0b0b0; stroke-opacity: 0.3; stroke-width: 0.8; stroke-linecap: square"/>
     </g>
     <g id="line2d_10">
      <g>
       <use xlink:href="#mbfb02b6547" x="421.029538" y="529.308125" style="stroke: #000000; stroke-width: 0.8"/>
      </g>
     </g>
     <g id="text_5">
      <text style="font: 10px 'DejaVu Sans', 'Bitstream Vera Sans', 'Computer Modern Sans Serif', 'Lucida Grande', 'Verdana', 'Geneva', 'Lucid', 'Arial', 'Helvetica', 'Avant Garde', sans-serif; text-anchor: middle" x="421.029538" y="543.906563" transform="rotate(-0 421.029538 543.906563)">90</text>
     </g>
    </g>
    <g id="xtick_6">
     <g id="line2d_11">
      <path d="M 507.168617 529.308125 
L 507.168617 23.837812 
" clip-path="url(#p185a77956c)" style="fill: none; stroke: #b0b0b0; stroke-opacity: 0.3; stroke-width: 0.8; stroke-linecap: square"/>
     </g>
     <g id="line2d_12">
      <g>
       <use xlink:href="#mbfb02b6547" x="507.168617" y="529.308125" style="stroke: #000000; stroke-width: 0.8"/>
      </g>
     </g>
     <g id="text_6">
      <text style="font: 10px 'DejaVu Sans', 'Bitstream Vera Sans', 'Computer Modern Sans Serif', 'Lucida Grande', 'Verdana', 'Geneva', 'Lucid', 'Arial', 'Helvetica', 'Avant Garde', sans-serif; text-anchor: middle" x="507.168617" y="543.906563" transform="rotate(-0 507.168617 543.906563)">95</text>
     </g>
    </g>
    <g id="xtick_7">
     <g id="line2d_13">
      <path d="M 593.307696 529.308125 
L 593.307696 23.837812 
" clip-path="url(#p185a77956c)" style="fill: none; stroke: #b0b0b0; stroke-opacity: 0.3; stroke-width: 0.8; stroke-linecap: square"/>
     </g>
     <g id="line2d_14">
      <g>
       <use xlink:href="#mbfb02b6547" x="593.307696" y="529.308125" style="stroke: #000000; stroke-width: 0.8"/>
      </g>
     </g>
     <g id="text_7">
      <text style="font: 10px 'DejaVu Sans', 'Bitstream Vera Sans', 'Computer Modern Sans Serif', 'Lucida Grande', 'Verdana', 'Geneva', 'Lucid', 'Arial', 'Helvetica', 'Avant Garde', sans-serif; text-anchor: middle" x="593.307696" y="543.906563" transform="rotate(-0 593.307696 543.906563)">100</text>
     </g>
    </g>
    <g id="xtick_8">
     <g id="line2d_15">
      <path d="M 679.446776 529.308125 
L 679.446776 23.837812 
" clip-path="url(#p185a77956c)" style="fill: none; stroke: #b0b0b0; stroke-opacity: 0.3; stroke-width: 0.8; stroke-linecap: square"/>
     </g>
     <g id="line2d_16">
      <g>
       <use xlink:href="#mbfb02b6547" x="679.446776" y="529.308125" style="stroke: #000000; stroke-width: 0.8"/>
      </g>
     </g>
     <g id="text_8">
      <text style="font: 10px 'DejaVu Sans', 'Bitstream Vera Sans', 'Computer Modern Sans Serif', 'Lucida Grande', 'Verdana', 'Geneva', 'Lucid', 'Arial', 'Helvetica', 'Avant Garde', sans-serif; text-anchor: middle" x="679.446776" y="543.906563" transform="rotate(-0 679.446776 543.906563)">105</text>
     </g>
    </g>
    <g id="text_9">
     <text style="font: 12px 'DejaVu Sans', 'Bitstream Vera Sans', 'Computer Modern Sans Serif', 'Lucida Grande', 'Verdana', 'Geneva', 'Lucid', 'Arial', 'Helvetica', 'Avant Garde', sans-serif; text-anchor: middle" x="386.573906" y="559.104375" transform="rotate(-0 386.573906 559.104375)">Build Number</text>
    </g>
   </g>
   <g id="matplotlib.axis_2">
    <g id="ytick_1">
     <g id="line2d_17">
      <path d="M 64.41375 334.291639 
L 708.734063 334.291639 
" clip-path="url(#p185a77956c)" style="fill: none; stroke: #b0b0b0; stroke-opacity: 0.3; stroke-width: 0.8; stroke-linecap: square"/>
     </g>
     <g id="line2d_18">
      <defs>
       <path id="mbfeb6db790" d="M 0 0 
L -3.5 0 
" style="stroke: #000000; stroke-width: 0.8"/>
      </defs>
      <g>
       <use xlink:href="#mbfeb6db790" x="64.41375" y="334.291639" style="stroke: #000000; stroke-width: 0.8"/>
      </g>
     </g>
     <g id="text_10">
      <!-- $\mathdefault{10^{5}}$ -->
      <g transform="translate(39.81375 338.090858)">
       <text>
        <tspan style="font: 10px 'DejaVu Sans'" x="0 6.362305" y="-0.06406250000000036">10</tspan>
        <tspan style="font: 7px 'DejaVu Sans'" x="12.820312" y="-3.8921875000000004">5</tspan>
       </text>
      </g>
     </g>
    </g>
    <g id="ytick_2">
     <g id="line2d_19">
      <defs>
       <path id="m1cd4138df0" d="M 0 0 
L -2 0 
" style="stroke: #000000; stroke-width: 0.6"/>
      </defs>
      <g>
       <use xlink:href="#m1cd4138df0" x="64.41375" y="505.7097" style="stroke: #000000; stroke-width: 0.6"/>
      </g>
     </g>
     <g id="text_11">
      <!-- $\mathdefault{6\times10^{4}}$ -->
      <g transform="translate(22.81375 509.508919)">
       <text>
        <tspan style="font: 10px 'DejaVu Sans'" x="0 8.310547 18.637695 25" y="-0.06406250000000036">6×10</tspan>
        <tspan style="font: 7px 'DejaVu Sans'" x="31.458008" y="-3.8921875000000004">4</tspan>
       </text>
      </g>
     </g>
    </g>
    <g id="ytick_3">
     <g id="line2d_20">
      <g>
       <use xlink:href="#m1cd4138df0" x="64.41375" y="453.981264" style="stroke: #000000; stroke-width: 0.6"/>
      </g>
     </g>
    </g>
    <g id="ytick_4">
     <g id="line2d_21">
      <g>
       <use xlink:href="#m1cd4138df0" x="64.41375" y="409.172055" style="stroke: #000000; stroke-width: 0.6"/>
      </g>
     </g>
    </g>
    <g id="ytick_5">
     <g id="line2d_22">
      <g>
       <use xlink:href="#m1cd4138df0" x="64.41375" y="369.647531" style="stroke: #000000; stroke-width: 0.6"/>
      </g>
     </g>
    </g>
    <g id="ytick_6">
     <g id="line2d_23">
      <g>
       <use xlink:href="#m1cd4138df0" x="64.41375" y="101.691823" style="stroke: #000000; stroke-width: 0.6"/>
      </g>
     </g>
     <g id="text_12">
      <!-- $\mathdefault{2\times10^{5}}$ -->
      <g transform="translate(22.81375 105.491042)">
       <text>
        <tspan style="font: 10px 'DejaVu Sans'" x="0 8.310547 18.637695 25" y="-0.06406250000000036">2×10</tspan>
        <tspan style="font: 7px 'DejaVu Sans'" x="31.458008" y="-3.8921875000000004">5</tspan>
       </text>
      </g>
     </g>
    </g>
    <g id="text_13">
     <text style="font: 12px 'DejaVu Sans', 'Bitstream Vera Sans', 'Computer Modern Sans Serif', 'Lucida Grande', 'Verdana', 'Geneva', 'Lucid', 'Arial', 'Helvetica', 'Avant Garde', sans-serif; text-anchor: middle" x="16.318125" y="276.572969" transform="rotate(-90 16.318125 276.572969)">Median Elapsed Time (nanoseconds)</text>
    </g>
   </g>
   <g id="line2d_24">
    <path d="M 93.701037 46.813736 
L 110.928853 191.993804 
L 128.156669 203.583288 
L 145.384484 226.939206 
L 162.6123 249.293351 
L 179.840116 197.56458 
L 197.067932 217.514077 
L 214.295748 216.449271 
L 231.523564 213.414453 
L 248.75138 197.627325 
L 265.979195 255.061283 
L 283.207011 181.822836 
L 300.434827 48.546392 
L 317.662643 155.181473 
L 334.890459 255.056248 
L 352.118275 280.19621 
L 386.573906 250.483261 
L 403.801722 243.683337 
L 421.029538 243.288052 
L 438.257354 283.580852 
L 455.48517 283.575659 
L 472.712985 244.097042 
L 489.940801 245.4831 
L 507.168617 283.596143 
L 524.396433 244.026517 
L 541.624249 252.14706 
L 576.079881 107.746626 
L 593.307696 249.935013 
L 610.535512 47.122473 
L 627.763328 283.266816 
L 644.991144 237.087039 
L 662.21896 284.46166 
L 679.446776 243.282935 
" clip-path="url(#p185a77956c)" style="fill: none; stroke: #1f77b4; stroke-width: 2; stroke-linecap: square"/>
    <defs>
     <path id="m8d91f33ec8" d="M 0 3 
C 0.795609 3 1.55874 2.683901 2.12132 2.12132 
C 2.683901 1.55874 3 0.795609 3 0 
C 3 -0.795609 2.683901 -1.55874 2.12132 -2.12132 
C 1.55874 -2.683901 0.795609 -3 0 -3 
C -0.795609 -3 -1.55874 -2.683901 -2.12132 -2.12132 
C -2.683901 -1.55874 -3 -0.795609 -3 0 
C -3 0.795609 -2.683901 1.55874 -2.12132 2.12132 
C -1.55874 2.683901 -0.795609 3 0 3 
z
" style="stroke: #1f77b4"/>
    </defs>
    <g clip-path="url(#p185a77956c)">
     <use xlink:href="#m8d91f33ec8" x="93.701037" y="46.813736" style="fill: #1f77b4; stroke: #1f77b4"/>
     <use xlink:href="#m8d91f33ec8" x="110.928853" y="191.993804" style="fill: #1f77b4; stroke: #1f77b4"/>
     <use xlink:href="#m8d91f33ec8" x="128.156669" y="203.583288" style="fill: #1f77b4; stroke: #1f77b4"/>
     <use xlink:href="#m8d91f33ec8" x="145.384484" y="226.939206" style="fill: #1f77b4; stroke: #1f77b4"/>
     <use xlink:href="#m8d91f33ec8" x="162.6123" y="249.293351" style="fill: #1f77b4; stroke: #1f77b4"/>
     <use xlink:href="#m8d91f33ec8" x="179.840116" y="197.56458" style="fill: #1f77b4; stroke: #1f77b4"/>
     <use xlink:href="#m8d91f33ec8" x="197.067932" y="217.514077" style="fill: #1f77b4; stroke: #1f77b4"/>
     <use xlink:href="#m8d91f33ec8" x="214.295748" y="216.449271" style="fill: #1f77b4; stroke: #1f77b4"/>
     <use xlink:href="#m8d91f33ec8" x="231.523564" y="213.414453" style="fill: #1f77b4; stroke: #1f77b4"/>
     <use xlink:href="#m8d91f33ec8" x="248.75138" y="197.627325" style="fill: #1f77b4; stroke: #1f77b4"/>
     <use xlink:href="#m8d91f33ec8" x="265.979195" y="255.061283" style="fill: #1f77b4; stroke: #1f77b4"/>
     <use xlink:href="#m8d91f33ec8" x="283.207011" y="181.822836" style="fill: #1f77b4; stroke: #1f77b4"/>
     <use xlink:href="#m8d91f33ec8" x="300.434827" y="48.546392" style="fill: #1f77b4; stroke: #1f77b4"/>
     <use xlink:href="#m8d91f33ec8" x="317.662643" y="155.181473" style="fill: #1f77b4; stroke: #1f77b4"/>
     <use xlink:href="#m8d91f33ec8" x="334.890459" y="255.056248" style="fill: #1f77b4; stroke: #1f77b4"/>
     <use xlink:href="#m8d91f33ec8" x="352.118275" y="280.19621" style="fill: #1f77b4; stroke: #1f77b4"/>
     <use xlink:href="#m8d91f33ec8" x="386.573906" y="250.483261" style="fill: #1f77b4; stroke: #1f77b4"/>
     <use xlink:href="#m8d91f33ec8" x="403.801722" y="243.683337" style="fill: #1f77b4; stroke: #1f77b4"/>
     <use xlink:href="#m8d91f33ec8" x="421.029538" y="243.288052" style="fill: #1f77b4; stroke: #1f77b4"/>
     <use xlink:href="#m8d91f33ec8" x="438.257354" y="283.580852" style="fill: #1f77b4; stroke: #1f77b4"/>
     <use xlink:href="#m8d91f33ec8" x="455.48517" y="283.575659" style="fill: #1f77b4; stroke: #1f77b4"/>
     <use xlink:href="#m8d91f33ec8" x="472.712985" y="244.097042" style="fill: #1f77b4; stroke: #1f77b4"/>
     <use xlink:href="#m8d91f33ec8" x="489.940801" y="245.4831" style="fill: #1f77b4; stroke: #1f77b4"/>
     <use xlink:href="#m8d91f33ec8" x="507.168617" y="283.596143" style="fill: #1f77b4; stroke: #1f77b4"/>
     <use xlink:href="#m8d91f33ec8" x="524.396433" y="244.026517" style="fill: #1f77b4; stroke: #1f77b4"/>
     <use xlink:href="#m8d91f33ec8" x="541.624249" y="252.14706" style="fill: #1f77b4; stroke: #1f77b4"/>
     <use xlink:href="#m8d91f33ec8" x="576.079881" y="107.746626" style="fill: #1f77b4; stroke: #1f77b4"/>
     <use xlink:href="#m8d91f33ec8" x="593.307696" y="249.935013" style="fill: #1f77b4; stroke: #1f77b4"/>
     <use xlink:href="#m8d91f33ec8" x="610.535512" y="47.122473" style="fill: #1f77b4; stroke: #1f77b4"/>
     <use xlink:href="#m8d91f33ec8" x="627.763328" y="283.266816" style="fill: #1f77b4; stroke: #1f77b4"/>
     <use xlink:href="#m8d91f33ec8" x="644.991144" y="237.087039" style="fill: #1f77b4; stroke: #1f77b4"/>
     <use xlink:href="#m8d91f33ec8" x="662.21896" y="284.46166" style="fill: #1f77b4; stroke: #1f77b4"/>
     <use xlink:href="#m8d91f33ec8" x="679.446776" y="243.282935" style="fill: #1f77b4; stroke: #1f77b4"/>
    </g>
   </g>
   <g id="line2d_25">
    <path d="M 93.701037 240.963675 
L 110.928853 243.863598 
L 128.156669 244.090117 
L 145.384484 246.102545 
L 162.6123 239.261485 
L 179.840116 244.568784 
L 197.067932 239.50832 
L 214.295748 247.747045 
L 231.523564 241.093226 
L 248.75138 247.539422 
L 265.979195 242.14731 
L 283.207011 245.28202 
L 300.434827 248.914302 
L 317.662643 244.728064 
L 334.890459 249.45098 
L 352.118275 239.165431 
L 386.573906 244.109353 
L 403.801722 241.526717 
L 421.029538 244.443983 
L 438.257354 247.414482 
L 455.48517 239.866502 
L 472.712985 237.098844 
L 489.940801 237.606123 
L 507.168617 235.646113 
L 524.396433 280.614175 
L 541.624249 247.512733 
L 576.079881 279.756862 
L 593.307696 281.661443 
L 610.535512 280.709844 
L 627.763328 280.122753 
L 644.991144 279.068518 
L 662.21896 280.640628 
L 679.446776 279.542799 
" clip-path="url(#p185a77956c)" style="fill: none; stroke: #ff7f0e; stroke-width: 2; stroke-linecap: square"/>
    <defs>
     <path id="me3207c8aa8" d="M 0 3 
C 0.795609 3 1.55874 2.683901 2.12132 2.12132 
C 2.683901 1.55874 3 0.795609 3 0 
C 3 -0.795609 2.683901 -1.55874 2.12132 -2.12132 
C 1.55874 -2.683901 0.795609 -3 0 -3 
C -0.795609 -3 -1.55874 -2.683901 -2.12132 -2.12132 
C -2.683901 -1.55874 -3 -0.795609 -3 0 
C -3 0.795609 -2.683901 1.55874 -2.12132 2.12132 
C -1.55874 2.683901 -0.795609 3 0 3 
z
" style="stroke: #ff7f0e"/>
    </defs>
    <g clip-path="url(#p185a77956c)">
     <use xlink:href="#me3207c8aa8" x="93.701037" y="240.963675" style="fill: #ff7f0e; stroke: #ff7f0e"/>
     <use xlink:href="#me3207c8aa8" x="110.928853" y="243.863598" style="fill: #ff7f0e; stroke: #ff7f0e"/>
     <use xlink:href="#me3207c8aa8" x="128.156669" y="244.090117" style="fill: #ff7f0e; stroke: #ff7f0e"/>
     <use xlink:href="#me3207c8aa8" x="145.384484" y="246.102545" style="fill: #ff7f0e; stroke: #ff7f0e"/>
     <use xlink:href="#me3207c8aa8" x="162.6123" y="239.261485" style="fill: #ff7f0e; stroke: #ff7f0e"/>
     <use xlink:href="#me3207c8aa8" x="179.840116" y="244.568784" style="fill: #ff7f0e; stroke: #ff7f0e"/>
     <use xlink:href="#me3207c8aa8" x="197.067932" y="239.50832" style="fill: #ff7f0e; stroke: #ff7f0e"/>
     <use xlink:href="#me3207c8aa8" x="214.295748" y="247.747045" style="fill: #ff7f0e; stroke: #ff7f0e"/>
     <use xlink:href="#me3207c8aa8" x="231.523564" y="241.093226" style="fill: #ff7f0e; stroke: #ff7f0e"/>
     <use xlink:href="#me3207c8aa8" x="248.75138" y="247.539422" style="fill: #ff7f0e; stroke: #ff7f0e"/>
     <use xlink:href="#me3207c8aa8" x="265.979195" y="242.14731" style="fill: #ff7f0e; stroke: #ff7f0e"/>
     <use xlink:href="#me3207c8aa8" x="283.207011" y="245.28202" style="fill: #ff7f0e; stroke: #ff7f0e"/>
     <use xlink:href="#me3207c8aa8" x="300.434827" y="248.914302" style="fill: #ff7f0e; stroke: #ff7f0e"/>
     <use xlink:href="#me3207c8aa8" x="317.662643" y="244.728064" style="fill: #ff7f0e; stroke: #ff7f0e"/>
     <use xlink:href="#me3207c8aa8" x="334.890459" y="249.45098" style="fill: #ff7f0e; stroke: #ff7f0e"/>
     <use xlink:href="#me3207c8aa8" x="352.118275" y="239.165431" style="fill: #ff7f0e; stroke: #ff7f0e"/>
     <use xlink:href="#me3207c8aa8" x="386.573906" y="244.109353" style="fill: #ff7f0e; stroke: #ff7f0e"/>
     <use xlink:href="#me3207c8aa8" x="403.801722" y="241.526717" style="fill: #ff7f0e; stroke: #ff7f0e"/>
     <use xlink:href="#me3207c8aa8" x="421.029538" y="244.443983" style="fill: #ff7f0e; stroke: #ff7f0e"/>
     <use xlink:href="#me3207c8aa8" x="438.257354" y="247.414482" style="fill: #ff7f0e; stroke: #ff7f0e"/>
     <use xlink:href="#me3207c8aa8" x="455.48517" y="239.866502" style="fill: #ff7f0e; stroke: #ff7f0e"/>
     <use xlink:href="#me3207c8aa8" x="472.712985" y="237.098844" style="fill: #ff7f0e; stroke: #ff7f0e"/>
     <use xlink:href="#me3207c8aa8" x="489.940801" y="237.606123" style="fill: #ff7f0e; stroke: #ff7f0e"/>
     <use xlink:href="#me3207c8aa8" x="507.168617" y="235.646113" style="fill: #ff7f0e; stroke: #ff7f0e"/>
     <use xlink:href="#me3207c8aa8" x="524.396433" y="280.614175" style="fill: #ff7f0e; stroke: #ff7f0e"/>
     <use xlink:href="#me3207c8aa8" x="541.624249" y="247.512733" style="fill: #ff7f0e; stroke: #ff7f0e"/>
     <use xlink:href="#me3207c8aa8" x="576.079881" y="279.756862" style="fill: #ff7f0e; stroke: #ff7f0e"/>
     <use xlink:href="#me3207c8aa8" x="593.307696" y="281.661443" style="fill: #ff7f0e; stroke: #ff7f0e"/>
     <use xlink:href="#me3207c8aa8" x="610.535512" y="280.709844" style="fill: #ff7f0e; stroke: #ff7f0e"/>
     <use xlink:href="#me3207c8aa8" x="627.763328" y="280.122753" style="fill: #ff7f0e; stroke: #ff7f0e"/>
     <use xlink:href="#me3207c8aa8" x="644.991144" y="279.068518" style="fill: #ff7f0e; stroke: #ff7f0e"/>
     <use xlink:href="#me3207c8aa8" x="662.21896" y="280.640628" style="fill: #ff7f0e; stroke: #ff7f0e"/>
     <use xlink:href="#me3207c8aa8" x="679.446776" y="279.542799" style="fill: #ff7f0e; stroke: #ff7f0e"/>
    </g>
   </g>
   <g id="line2d_26">
    <path d="M 93.701037 414.551779 
L 110.928853 497.463966 
L 128.156669 414.97317 
L 145.384484 486.590358 
L 162.6123 488.58483 
L 179.840116 494.968464 
L 197.067932 431.17622 
L 214.295748 259.841298 
L 231.523564 504.165161 
L 248.75138 502.411088 
L 265.979195 448.322626 
L 283.207011 415.961606 
L 300.434827 472.805361 
L 334.890459 490.422322 
L 352.118275 432.542825 
L 386.573906 506.332202 
L 403.801722 259.267362 
L 421.029538 486.236577 
L 438.257354 481.772945 
L 455.48517 501.586919 
L 489.940801 503.321129 
L 507.168617 460.778799 
L 524.396433 459.561443 
L 541.624249 479.86882 
L 576.079881 480.855226 
L 593.307696 500.319467 
L 610.535512 505.890118 
L 627.763328 501.949525 
L 644.991144 487.90366 
L 662.21896 260.377715 
L 679.446776 480.387571 
" clip-path="url(#p185a77956c)" style="fill: none; stroke: #2ca02c; stroke-width: 2; stroke-linecap: square"/>
    <defs>
     <path id="mde530ab398" d="M 0 3 
C 0.795609 3 1.55874 2.683901 2.12132 2.12132 
C 2.683901 1.55874 3 0.795609 3 0 
C 3 -0.795609 2.683901 -1.55874 2.12132 -2.12132 
C 1.55874 -2.683901 0.795609 -3 0 -3 
C -0.795609 -3 -1.55874 -2.683901 -2.12132 -2.12132 
C -2.683901 -1.55874 -3 -0.795609 -3 0 
C -3 0.795609 -2.683901 1.55874 -2.12132 2.12132 
C -1.55874 2.683901 -0.795609 3 0 3 
z
" style="stroke: #2ca02c"/>
    </defs>
    <g clip-path="url(#p185a77956c)">
     <use xlink:href="#mde530ab398" x="93.701037" y="414.551779" style="fill: #2ca02c; stroke: #2ca02c"/>
     <use xlink:href="#mde530ab398" x="110.928853" y="497.463966" style="fill: #2ca02c; stroke: #2ca02c"/>
     <use xlink:href="#mde530ab398" x="128.156669" y="414.97317" style="fill: #2ca02c; stroke: #2ca02c"/>
     <use xlink:href="#mde530ab398" x="145.384484" y="486.590358" style="fill: #2ca02c; stroke: #2ca02c"/>
     <use xlink:href="#mde530ab398" x="162.6123" y="488.58483" style="fill: #2ca02c; stroke: #2ca02c"/>
     <use xlink:href="#mde530ab398" x="179.840116" y="494.968464" style="fill: #2ca02c; stroke: #2ca02c"/>
     <use xlink:href="#mde530ab398" x="197.067932" y="431.17622" style="fill: #2ca02c; stroke: #2ca02c"/>
     <use xlink:href="#mde530ab398" x="214.295748" y="259.841298" style="fill: #2ca02c; stroke: #2ca02c"/>
     <use xlink:href="#mde530ab398" x="231.523564" y="504.165161" style="fill: #2ca02c; stroke: #2ca02c"/>
     <use xlink:href="#mde530ab398" x="248.75138" y="502.411088" style="fill: #2ca02c; stroke: #2ca02c"/>
     <use xlink:href="#mde530ab398" x="265.979195" y="448.322626" style="fill: #2ca02c; stroke: #2ca02c"/>
     <use xlink:href="#mde530ab398" x="283.207011" y="415.961606" style="fill: #2ca02c; stroke: #2ca02c"/>
     <use xlink:href="#mde530ab398" x="300.434827" y="472.805361" style="fill: #2ca02c; stroke: #2ca02c"/>
     <use xlink:href="#mde530ab398" x="334.890459" y="490.422322" style="fill: #2ca02c; stroke: #2ca02c"/>
     <use xlink:href="#mde530ab398" x="352.118275" y="432.542825" style="fill: #2ca02c; stroke: #2ca02c"/>
     <use xlink:href="#mde530ab398" x="386.573906" y="506.332202" style="fill: #2ca02c; stroke: #2ca02c"/>
     <use xlink:href="#mde530ab398" x="403.801722" y="259.267362" style="fill: #2ca02c; stroke: #2ca02c"/>
     <use xlink:href="#mde530ab398" x="421.029538" y="486.236577" style="fill: #2ca02c; stroke: #2ca02c"/>
     <use xlink:href="#mde530ab398" x="438.257354" y="481.772945" style="fill: #2ca02c; stroke: #2ca02c"/>
     <use xlink:href="#mde530ab398" x="455.48517" y="501.586919" style="fill: #2ca02c; stroke: #2ca02c"/>
     <use xlink:href="#mde530ab398" x="489.940801" y="503.321129" style="fill: #2ca02c; stroke: #2ca02c"/>
     <use xlink:href="#mde530ab398" x="507.168617" y="460.778799" style="fill: #2ca02c; stroke: #2ca02c"/>
     <use xlink:href="#mde530ab398" x="524.396433" y="459.561443" style="fill: #2ca02c; stroke: #2ca02c"/>
     <use xlink:href="#mde530ab398" x="541.624249" y="479.86882" style="fill: #2ca02c; stroke: #2ca02c"/>
     <use xlink:href="#mde530ab398" x="576.079881" y="480.855226" style="fill: #2ca02c; stroke: #2ca02c"/>
     <use xlink:href="#mde530ab398" x="593.307696" y="500.319467" style="fill: #2ca02c; stroke: #2ca02c"/>
     <use xlink:href="#mde530ab398" x="610.535512" y="505.890118" style="fill: #2ca02c; stroke: #2ca02c"/>
     <use xlink:href="#mde530ab398" x="627.763328" y="501.949525" style="fill: #2ca02c; stroke: #2ca02c"/>
     <use xlink:href="#mde530ab398" x="644.991144" y="487.90366" style="fill: #2ca02c; stroke: #2ca02c"/>
     <use xlink:href="#mde530ab398" x="662.21896" y="260.377715" style="fill: #2ca02c; stroke: #2ca02c"/>
     <use xlink:href="#mde530ab398" x="679.446776" y="480.387571" style="fill: #2ca02c; stroke: #2ca02c"/>
    </g>
   </g>
   <g id="line2d_27">
    <path d="M 93.701037 459.866222 
L 110.928853 455.143871 
L 128.156669 459.420607 
L 145.384484 457.27833 
L 162.6123 460.575215 
L 179.840116 466.993507 
L 197.067932 458.812133 
L 214.295748 457.180552 
L 231.523564 460.001714 
L 248.75138 457.742438 
L 265.979195 461.889521 
L 283.207011 465.712231 
L 300.434827 421.868996 
L 334.890459 457.412458 
L 352.118275 454.1049 
L 386.573906 488.92886 
L 403.801722 458.206217 
L 421.029538 456.170075 
L 438.257354 461.129246 
L 455.48517 463.233246 
L 489.940801 459.084593 
L 507.168617 457.457502 
L 524.396433 478.796034 
L 541.624249 480.720181 
L 576.079881 466.047993 
L 593.307696 478.470998 
L 610.535512 479.912321 
L 627.763328 480.445663 
L 644.991144 480.535415 
L 662.21896 481.301371 
L 679.446776 479.19993 
" clip-path="url(#p185a77956c)" style="fill: none; stroke: #d62728; stroke-width: 2; stroke-linecap: square"/>
    <defs>
     <path id="m67643e5e90" d="M 0 3 
C 0.795609 3 1.55874 2.683901 2.12132 2.12132 
C 2.683901 1.55874 3 0.795609 3 0 
C 3 -0.795609 2.683901 -1.55874 2.12132 -2.12132 
C 1.55874 -2.683901 0.795609 -3 0 -3 
C -0.795609 -3 -1.55874 -2.683901 -2.12132 -2.12132 
C -2.683901 -1.55874 -3 -0.795609 -3 0 
C -3 0.795609 -2.683901 1.55874 -2.12132 2.12132 
C -1.55874 2.683901 -0.795609 3 0 3 
z
" style="stroke: #d62728"/>
    </defs>
    <g clip-path="url(#p185a77956c)">
     <use xlink:href="#m67643e5e90" x="93.701037" y="459.866222" style="fill: #d62728; stroke: #d62728"/>
     <use xlink:href="#m67643e5e90" x="110.928853" y="455.143871" style="fill: #d62728; stroke: #d62728"/>
     <use xlink:href="#m67643e5e90" x="128.156669" y="459.420607" style="fill: #d62728; stroke: #d62728"/>
     <use xlink:href="#m67643e5e90" x="145.384484" y="457.27833" style="fill: #d62728; stroke: #d62728"/>
     <use xlink:href="#m67643e5e90" x="162.6123" y="460.575215" style="fill: #d62728; stroke: #d62728"/>
     <use xlink:href="#m67643e5e90" x="179.840116" y="466.993507" style="fill: #d62728; stroke: #d62728"/>
     <use xlink:href="#m67643e5e90" x="197.067932" y="458.812133" style="fill: #d62728; stroke: #d62728"/>
     <use xlink:href="#m67643e5e90" x="214.295748" y="457.180552" style="fill: #d62728; stroke: #d62728"/>
     <use xlink:href="#m67643e5e90" x="231.523564" y="460.001714" style="fill: #d62728; stroke: #d62728"/>
     <use xlink:href="#m67643e5e90" x="248.75138" y="457.742438" style="fill: #d62728; stroke: #d62728"/>
     <use xlink:href="#m67643e5e90" x="265.979195" y="461.889521" style="fill: #d62728; stroke: #d62728"/>
     <use xlink:href="#m67643e5e90" x="283.207011" y="465.712231" style="fill: #d62728; stroke: #d62728"/>
     <use xlink:href="#m67643e5e90" x="300.434827" y="421.868996" style="fill: #d62728; stroke: #d62728"/>
     <use xlink:href="#m67643e5e90" x="334.890459" y="457.412458" style="fill: #d62728; stroke: #d62728"/>
     <use xlink:href="#m67643e5e90" x="352.118275" y="454.1049" style="fill: #d62728; stroke: #d62728"/>
     <use xlink:href="#m67643e5e90" x="386.573906" y="488.92886" style="fill: #d62728; stroke: #d62728"/>
     <use xlink:href="#m67643e5e90" x="403.801722" y="458.206217" style="fill: #d62728; stroke: #d62728"/>
     <use xlink:href="#m67643e5e90" x="421.029538" y="456.170075" style="fill: #d62728; stroke: #d62728"/>
     <use xlink:href="#m67643e5e90" x="438.257354" y="461.129246" style="fill: #d62728; stroke: #d62728"/>
     <use xlink:href="#m67643e5e90" x="455.48517" y="463.233246" style="fill: #d62728; stroke: #d62728"/>
     <use xlink:href="#m67643e5e90" x="489.940801" y="459.084593" style="fill: #d62728; stroke: #d62728"/>
     <use xlink:href="#m67643e5e90" x="507.168617" y="457.457502" style="fill: #d62728; stroke: #d62728"/>
     <use xlink:href="#m67643e5e90" x="524.396433" y="478.796034" style="fill: #d62728; stroke: #d62728"/>
     <use xlink:href="#m67643e5e90" x="541.624249" y="480.720181" style="fill: #d62728; stroke: #d62728"/>
     <use xlink:href="#m67643e5e90" x="576.079881" y="466.047993" style="fill: #d62728; stroke: #d62728"/>
     <use xlink:href="#m67643e5e90" x="593.307696" y="478.470998" style="fill: #d62728; stroke: #d62728"/>
     <use xlink:href="#m67643e5e90" x="610.535512" y="479.912321" style="fill: #d62728; stroke: #d62728"/>
     <use xlink:href="#m67643e5e90" x="627.763328" y="480.445663" style="fill: #d62728; stroke: #d62728"/>
     <use xlink:href="#m67643e5e90" x="644.991144" y="480.535415" style="fill: #d62728; stroke: #d62728"/>
     <use xlink:href="#m67643e5e90" x="662.21896" y="481.301371" style="fill: #d62728; stroke: #d62728"/>
     <use xlink:href="#m67643e5e90" x="679.446776" y="479.19993" style="fill: #d62728; stroke: #d62728"/>
    </g>
   </g>
   <g id="patch_3">
    <path d="M 64.41375 529.308125 
L 64.41375 23.837813 
" style="fill: none; stroke: #000000; stroke-width: 0.8; stroke-linejoin: miter; stroke-linecap: square"/>
   </g>
   <g id="patch_4">
    <path d="M 708.734063 529.308125 
L 708.734063 23.837813 
" style="fill: none; stroke: #000000; stroke-width: 0.8; stroke-linejoin: miter; stroke-linecap: square"/>
   </g>
   <g id="patch_5">
    <path d="M 64.41375 529.308125 
L 708.734063 529.308125 
" style="fill: none; stroke: #000000; stroke-width: 0.8; stroke-linejoin: miter; stroke-linecap: square"/>
   </g>
   <g id="patch_6">
    <path d="M 64.41375 23.837812 
L 708.734063 23.837812 
" style="fill: none; stroke: #000000; stroke-width: 0.8; stroke-linejoin: miter; stroke-linecap: square"/>
   </g>
   <g id="text_14">
    <text style="font: 700 14px 'DejaVu Sans', 'Bitstream Vera Sans', 'Computer Modern Sans Serif', 'Lucida Grande', 'Verdana', 'Geneva', 'Lucid', 'Arial', 'Helvetica', 'Avant Garde', sans-serif; text-anchor: middle" x="386.573906" y="17.837813" transform="rotate(-0 386.573906 17.837813)">Nestedparallel - Performance Trend</text>
   </g>
   <g id="legend_1">
    <g id="patch_7">
     <path d="M 747.950078 90.550312 
L 846.336016 90.550312 
Q 848.336016 90.550312 848.336016 88.550312 
L 848.336016 30.837812 
Q 848.336016 28.837812 846.336016 28.837812 
L 747.950078 28.837812 
Q 745.950078 28.837812 745.950078 30.837812 
L 745.950078 88.550312 
Q 745.950078 90.550312 747.950078 90.550312 
z
" style="fill: #ffffff; opacity: 0.8; stroke: #cccccc; stroke-linejoin: miter"/>
    </g>
    <g id="line2d_28">
     <path d="M 749.950078 36.93625 
L 759.950078 36.93625 
L 769.950078 36.93625 
" style="fill: none; stroke: #1f77b4; stroke-width: 2; stroke-linecap: square"/>
     <g>
      <use xlink:href="#m8d91f33ec8" x="759.950078" y="36.93625" style="fill: #1f77b4; stroke: #1f77b4"/>
     </g>
    </g>
    <g id="text_15">
     <text style="font: 10px 'DejaVu Sans', 'Bitstream Vera Sans', 'Computer Modern Sans Serif', 'Lucida Grande', 'Verdana', 'Geneva', 'Lucid', 'Arial', 'Helvetica', 'Avant Garde', sans-serif; text-anchor: start" x="777.950078" y="40.43625" transform="rotate(-0 777.950078 40.43625)">gcc-14.2 - V1</text>
    </g>
    <g id="line2d_29">
     <path d="M 749.950078 51.614375 
L 759.950078 51.614375 
L 769.950078 51.614375 
" style="fill: none; stroke: #ff7f0e; stroke-width: 2; stroke-linecap: square"/>
     <g>
      <use xlink:href="#me3207c8aa8" x="759.950078" y="51.614375" style="fill: #ff7f0e; stroke: #ff7f0e"/>
     </g>
    </g>
    <g id="text_16">
     <text style="font: 10px 'DejaVu Sans', 'Bitstream Vera Sans', 'Computer Modern Sans Serif', 'Lucida Grande', 'Verdana', 'Geneva', 'Lucid', 'Arial', 'Helvetica', 'Avant Garde', sans-serif; text-anchor: start" x="777.950078" y="55.114375" transform="rotate(-0 777.950078 55.114375)">gcc-14.2 - V2</text>
    </g>
    <g id="line2d_30">
     <path d="M 749.950078 66.2925 
L 759.950078 66.2925 
L 769.950078 66.2925 
" style="fill: none; stroke: #2ca02c; stroke-width: 2; stroke-linecap: square"/>
     <g>
      <use xlink:href="#mde530ab398" x="759.950078" y="66.2925" style="fill: #2ca02c; stroke: #2ca02c"/>
     </g>
    </g>
    <g id="text_17">
     <text style="font: 10px 'DejaVu Sans', 'Bitstream Vera Sans', 'Computer Modern Sans Serif', 'Lucida Grande', 'Verdana', 'Geneva', 'Lucid', 'Arial', 'Helvetica', 'Avant Garde', sans-serif; text-anchor: start" x="777.950078" y="69.7925" transform="rotate(-0 777.950078 69.7925)">gcc-4.2 - V1</text>
    </g>
    <g id="line2d_31">
     <path d="M 749.950078 80.970625 
L 759.950078 80.970625 
L 769.950078 80.970625 
" style="fill: none; stroke: #d62728; stroke-width: 2; stroke-linecap: square"/>
     <g>
      <use xlink:href="#m67643e5e90" x="759.950078" y="80.970625" style="fill: #d62728; stroke: #d62728"/>
     </g>
    </g>
    <g id="text_18">
     <text style="font: 10px 'DejaVu Sans', 'Bitstream Vera Sans', 'Computer Modern Sans Serif', 'Lucida Grande', 'Verdana', 'Geneva', 'Lucid', 'Arial', 'Helvetica', 'Avant Garde', sans-serif; text-anchor: start" x="777.950078" y="84.470625" transform="rotate(-0 777.950078 84.470625)">gcc-4.2 - V2</text>
    </g>
   </g>
  </g>
 </g>
 <defs>
  <clipPath id="p185a77956c">
   <rect x="64.41375" y="23.837813" width="644.320312" height="505.470313"/>
  </clipPath>
 </defs>
</svg>
