<?xml version="1.0" encoding="utf-8" standalone="no"?>
<!DOCTYPE svg PUBLIC "-//W3C//DTD SVG 1.1//EN"
  "http://www.w3.org/Graphics/SVG/1.1/DTD/svg11.dtd">
<svg xmlns:xlink="http://www.w3.org/1999/xlink" width="855.204687pt" height="568.8pt" viewBox="0 0 855.204687 568.8" xmlns="http://www.w3.org/2000/svg" version="1.1">
 <metadata>
  <rdf:RDF xmlns:dc="http://purl.org/dc/elements/1.1/" xmlns:cc="http://creativecommons.org/ns#" xmlns:rdf="http://www.w3.org/1999/02/22-rdf-syntax-ns#">
   <cc:Work>
    <dc:type rdf:resource="http://purl.org/dc/dcmitype/StillImage"/>
    <dc:date>2025-08-13T20:43:07.849305</dc:date>
    <dc:format>image/svg+xml</dc:format>
    <dc:creator>
     <cc:Agent>
      <dc:title>Matplotlib v3.9.4, https://matplotlib.org/</dc:title>
     </cc:Agent>
    </dc:creator>
   </cc:Work>
  </rdf:RDF>
 </metadata>
 <defs>
  <style type="text/css">*{stroke-linejoin: round; stroke-linecap: butt}</style>
 </defs>
 <g id="figure_1">
  <g id="patch_1">
   <path d="M 0 568.8 
L 855.204687 568.8 
L 855.204687 0 
L 0 0 
z
" style="fill: #ffffff"/>
  </g>
  <g id="axes_1">
   <g id="patch_2">
    <path d="M 64.41375 529.308125 
L 702.1075 529.308125 
L 702.1075 23.837812 
L 64.41375 23.837812 
z
" style="fill: #ffffff"/>
   </g>
   <g id="matplotlib.axis_1">
    <g id="xtick_1">
     <g id="line2d_1">
      <path d="M 134.808515 529.308125 
L 134.808515 23.837812 
" clip-path="url(#pb09148c52f)" style="fill: none; stroke: #b0b0b0; stroke-opacity: 0.3; stroke-width: 0.8; stroke-linecap: square"/>
     </g>
     <g id="line2d_2">
      <defs>
       <path id="m8e9c54a193" d="M 0 0 
L 0 3.5 
" style="stroke: #000000; stroke-width: 0.8"/>
      </defs>
      <g>
       <use xlink:href="#m8e9c54a193" x="134.808515" y="529.308125" style="stroke: #000000; stroke-width: 0.8"/>
      </g>
     </g>
     <g id="text_1">
      <text style="font: 10px 'DejaVu Sans', 'Bitstream Vera Sans', 'Computer Modern Sans Serif', 'Lucida Grande', 'Verdana', 'Geneva', 'Lucid', 'Arial', 'Helvetica', 'Avant Garde', sans-serif; text-anchor: middle" x="134.808515" y="543.906563" transform="rotate(-0 134.808515 543.906563)">72</text>
     </g>
    </g>
    <g id="xtick_2">
     <g id="line2d_3">
      <path d="M 217.625885 529.308125 
L 217.625885 23.837812 
" clip-path="url(#pb09148c52f)" style="fill: none; stroke: #b0b0b0; stroke-opacity: 0.3; stroke-width: 0.8; stroke-linecap: square"/>
     </g>
     <g id="line2d_4">
      <g>
       <use xlink:href="#m8e9c54a193" x="217.625885" y="529.308125" style="stroke: #000000; stroke-width: 0.8"/>
      </g>
     </g>
     <g id="text_2">
      <text style="font: 10px 'DejaVu Sans', 'Bitstream Vera Sans', 'Computer Modern Sans Serif', 'Lucida Grande', 'Verdana', 'Geneva', 'Lucid', 'Arial', 'Helvetica', 'Avant Garde', sans-serif; text-anchor: middle" x="217.625885" y="543.906563" transform="rotate(-0 217.625885 543.906563)">74</text>
     </g>
    </g>
    <g id="xtick_3">
     <g id="line2d_5">
      <path d="M 300.443255 529.308125 
L 300.443255 23.837812 
" clip-path="url(#pb09148c52f)" style="fill: none; stroke: #b0b0b0; stroke-opacity: 0.3; stroke-width: 0.8; stroke-linecap: square"/>
     </g>
     <g id="line2d_6">
      <g>
       <use xlink:href="#m8e9c54a193" x="300.443255" y="529.308125" style="stroke: #000000; stroke-width: 0.8"/>
      </g>
     </g>
     <g id="text_3">
      <text style="font: 10px 'DejaVu Sans', 'Bitstream Vera Sans', 'Computer Modern Sans Serif', 'Lucida Grande', 'Verdana', 'Geneva', 'Lucid', 'Arial', 'Helvetica', 'Avant Garde', sans-serif; text-anchor: middle" x="300.443255" y="543.906563" transform="rotate(-0 300.443255 543.906563)">76</text>
     </g>
    </g>
    <g id="xtick_4">
     <g id="line2d_7">
      <path d="M 383.260625 529.308125 
L 383.260625 23.837812 
" clip-path="url(#pb09148c52f)" style="fill: none; stroke: #b0b0b0; stroke-opacity: 0.3; stroke-width: 0.8; stroke-linecap: square"/>
     </g>
     <g id="line2d_8">
      <g>
       <use xlink:href="#m8e9c54a193" x="383.260625" y="529.308125" style="stroke: #000000; stroke-width: 0.8"/>
      </g>
     </g>
     <g id="text_4">
      <text style="font: 10px 'DejaVu Sans', 'Bitstream Vera Sans', 'Computer Modern Sans Serif', 'Lucida Grande', 'Verdana', 'Geneva', 'Lucid', 'Arial', 'Helvetica', 'Avant Garde', sans-serif; text-anchor: middle" x="383.260625" y="543.906563" transform="rotate(-0 383.260625 543.906563)">78</text>
     </g>
    </g>
    <g id="xtick_5">
     <g id="line2d_9">
      <path d="M 466.077995 529.308125 
L 466.077995 23.837812 
" clip-path="url(#pb09148c52f)" style="fill: none; stroke: #b0b0b0; stroke-opacity: 0.3; stroke-width: 0.8; stroke-linecap: square"/>
     </g>
     <g id="line2d_10">
      <g>
       <use xlink:href="#m8e9c54a193" x="466.077995" y="529.308125" style="stroke: #000000; stroke-width: 0.8"/>
      </g>
     </g>
     <g id="text_5">
      <text style="font: 10px 'DejaVu Sans', 'Bitstream Vera Sans', 'Computer Modern Sans Serif', 'Lucida Grande', 'Verdana', 'Geneva', 'Lucid', 'Arial', 'Helvetica', 'Avant Garde', sans-serif; text-anchor: middle" x="466.077995" y="543.906563" transform="rotate(-0 466.077995 543.906563)">80</text>
     </g>
    </g>
    <g id="xtick_6">
     <g id="line2d_11">
      <path d="M 548.895365 529.308125 
L 548.895365 23.837812 
" clip-path="url(#pb09148c52f)" style="fill: none; stroke: #b0b0b0; stroke-opacity: 0.3; stroke-width: 0.8; stroke-linecap: square"/>
     </g>
     <g id="line2d_12">
      <g>
       <use xlink:href="#m8e9c54a193" x="548.895365" y="529.308125" style="stroke: #000000; stroke-width: 0.8"/>
      </g>
     </g>
     <g id="text_6">
      <text style="font: 10px 'DejaVu Sans', 'Bitstream Vera Sans', 'Computer Modern Sans Serif', 'Lucida Grande', 'Verdana', 'Geneva', 'Lucid', 'Arial', 'Helvetica', 'Avant Garde', sans-serif; text-anchor: middle" x="548.895365" y="543.906563" transform="rotate(-0 548.895365 543.906563)">82</text>
     </g>
    </g>
    <g id="xtick_7">
     <g id="line2d_13">
      <path d="M 631.712735 529.308125 
L 631.712735 23.837812 
" clip-path="url(#pb09148c52f)" style="fill: none; stroke: #b0b0b0; stroke-opacity: 0.3; stroke-width: 0.8; stroke-linecap: square"/>
     </g>
     <g id="line2d_14">
      <g>
       <use xlink:href="#m8e9c54a193" x="631.712735" y="529.308125" style="stroke: #000000; stroke-width: 0.8"/>
      </g>
     </g>
     <g id="text_7">
      <text style="font: 10px 'DejaVu Sans', 'Bitstream Vera Sans', 'Computer Modern Sans Serif', 'Lucida Grande', 'Verdana', 'Geneva', 'Lucid', 'Arial', 'Helvetica', 'Avant Garde', sans-serif; text-anchor: middle" x="631.712735" y="543.906563" transform="rotate(-0 631.712735 543.906563)">84</text>
     </g>
    </g>
    <g id="text_8">
     <text style="font: 12px 'DejaVu Sans', 'Bitstream Vera Sans', 'Computer Modern Sans Serif', 'Lucida Grande', 'Verdana', 'Geneva', 'Lucid', 'Arial', 'Helvetica', 'Avant Garde', sans-serif; text-anchor: middle" x="383.260625" y="559.104375" transform="rotate(-0 383.260625 559.104375)">Build Number</text>
    </g>
   </g>
   <g id="matplotlib.axis_2">
    <g id="ytick_1">
     <g id="line2d_15">
      <path d="M 64.41375 469.282622 
L 702.1075 469.282622 
" clip-path="url(#pb09148c52f)" style="fill: none; stroke: #b0b0b0; stroke-opacity: 0.3; stroke-width: 0.8; stroke-linecap: square"/>
     </g>
     <g id="line2d_16">
      <defs>
       <path id="m1fbc1db38f" d="M 0 0 
L -3.5 0 
" style="stroke: #000000; stroke-width: 0.8"/>
      </defs>
      <g>
       <use xlink:href="#m1fbc1db38f" x="64.41375" y="469.282622" style="stroke: #000000; stroke-width: 0.8"/>
      </g>
     </g>
     <g id="text_9">
      <!-- $\mathdefault{10^{5}}$ -->
      <g transform="translate(39.81375 473.081841)">
       <text>
        <tspan style="font: 10px 'DejaVu Sans'" x="0 6.362305" y="-0.06406250000000036">10</tspan>
        <tspan style="font: 7px 'DejaVu Sans'" x="12.820312" y="-3.8921875000000004">5</tspan>
       </text>
      </g>
     </g>
    </g>
    <g id="ytick_2">
     <g id="line2d_17">
      <defs>
       <path id="m50e2287748" d="M 0 0 
L -2 0 
" style="stroke: #000000; stroke-width: 0.6"/>
      </defs>
      <g>
       <use xlink:href="#m50e2287748" x="64.41375" y="499.137022" style="stroke: #000000; stroke-width: 0.6"/>
      </g>
     </g>
    </g>
    <g id="ytick_3">
     <g id="line2d_18">
      <g>
       <use xlink:href="#m50e2287748" x="64.41375" y="272.876096" style="stroke: #000000; stroke-width: 0.6"/>
      </g>
     </g>
     <g id="text_10">
      <!-- $\mathdefault{2\times10^{5}}$ -->
      <g transform="translate(22.81375 276.675314)">
       <text>
        <tspan style="font: 10px 'DejaVu Sans'" x="0 8.310547 18.637695 25" y="-0.06406250000000036">2×10</tspan>
        <tspan style="font: 7px 'DejaVu Sans'" x="31.458008" y="-3.8921875000000004">5</tspan>
       </text>
      </g>
     </g>
    </g>
    <g id="ytick_4">
     <g id="line2d_19">
      <g>
       <use xlink:href="#m50e2287748" x="64.41375" y="157.985643" style="stroke: #000000; stroke-width: 0.6"/>
      </g>
     </g>
     <g id="text_11">
      <!-- $\mathdefault{3\times10^{5}}$ -->
      <g transform="translate(22.81375 161.784861)">
       <text>
        <tspan style="font: 10px 'DejaVu Sans'" x="0 8.310547 18.637695 25" y="-0.06406250000000036">3×10</tspan>
        <tspan style="font: 7px 'DejaVu Sans'" x="31.458008" y="-3.8921875000000004">5</tspan>
       </text>
      </g>
     </g>
    </g>
    <g id="ytick_5">
     <g id="line2d_20">
      <g>
       <use xlink:href="#m50e2287748" x="64.41375" y="76.469569" style="stroke: #000000; stroke-width: 0.6"/>
      </g>
     </g>
     <g id="text_12">
      <!-- $\mathdefault{4\times10^{5}}$ -->
      <g transform="translate(22.81375 80.268788)">
       <text>
        <tspan style="font: 10px 'DejaVu Sans'" x="0 8.310547 18.637695 25" y="-0.06406250000000036">4×10</tspan>
        <tspan style="font: 7px 'DejaVu Sans'" x="31.458008" y="-3.8921875000000004">5</tspan>
       </text>
      </g>
     </g>
    </g>
    <g id="text_13">
     <text style="font: 12px 'DejaVu Sans', 'Bitstream Vera Sans', 'Computer Modern Sans Serif', 'Lucida Grande', 'Verdana', 'Geneva', 'Lucid', 'Arial', 'Helvetica', 'Avant Garde', sans-serif; text-anchor: middle" x="16.318125" y="276.572969" transform="rotate(-90 16.318125 276.572969)">Median Elapsed Time (nanoseconds)</text>
    </g>
   </g>
   <g id="line2d_21">
    <path d="M 93.39983 240.889138 
L 134.808515 246.480665 
L 176.2172 244.615735 
L 217.625885 247.049686 
L 259.03457 191.939792 
L 300.443255 92.236576 
L 341.85194 247.015285 
L 383.260625 246.059417 
L 424.66931 46.813736 
L 466.077995 246.837785 
L 507.48668 246.872552 
L 548.895365 247.273006 
L 590.30405 47.775549 
L 631.712735 245.891016 
L 673.12142 246.680545 
" clip-path="url(#pb09148c52f)" style="fill: none; stroke: #1f77b4; stroke-width: 2; stroke-linecap: square"/>
    <defs>
     <path id="m31a4513e55" d="M 0 3 
C 0.795609 3 1.55874 2.683901 2.12132 2.12132 
C 2.683901 1.55874 3 0.795609 3 0 
C 3 -0.795609 2.683901 -1.55874 2.12132 -2.12132 
C 1.55874 -2.683901 0.795609 -3 0 -3 
C -0.795609 -3 -1.55874 -2.683901 -2.12132 -2.12132 
C -2.683901 -1.55874 -3 -0.795609 -3 0 
C -3 0.795609 -2.683901 1.55874 -2.12132 2.12132 
C -1.55874 2.683901 -0.795609 3 0 3 
z
" style="stroke: #1f77b4"/>
    </defs>
    <g clip-path="url(#pb09148c52f)">
     <use xlink:href="#m31a4513e55" x="93.39983" y="240.889138" style="fill: #1f77b4; stroke: #1f77b4"/>
     <use xlink:href="#m31a4513e55" x="134.808515" y="246.480665" style="fill: #1f77b4; stroke: #1f77b4"/>
     <use xlink:href="#m31a4513e55" x="176.2172" y="244.615735" style="fill: #1f77b4; stroke: #1f77b4"/>
     <use xlink:href="#m31a4513e55" x="217.625885" y="247.049686" style="fill: #1f77b4; stroke: #1f77b4"/>
     <use xlink:href="#m31a4513e55" x="259.03457" y="191.939792" style="fill: #1f77b4; stroke: #1f77b4"/>
     <use xlink:href="#m31a4513e55" x="300.443255" y="92.236576" style="fill: #1f77b4; stroke: #1f77b4"/>
     <use xlink:href="#m31a4513e55" x="341.85194" y="247.015285" style="fill: #1f77b4; stroke: #1f77b4"/>
     <use xlink:href="#m31a4513e55" x="383.260625" y="246.059417" style="fill: #1f77b4; stroke: #1f77b4"/>
     <use xlink:href="#m31a4513e55" x="424.66931" y="46.813736" style="fill: #1f77b4; stroke: #1f77b4"/>
     <use xlink:href="#m31a4513e55" x="466.077995" y="246.837785" style="fill: #1f77b4; stroke: #1f77b4"/>
     <use xlink:href="#m31a4513e55" x="507.48668" y="246.872552" style="fill: #1f77b4; stroke: #1f77b4"/>
     <use xlink:href="#m31a4513e55" x="548.895365" y="247.273006" style="fill: #1f77b4; stroke: #1f77b4"/>
     <use xlink:href="#m31a4513e55" x="590.30405" y="47.775549" style="fill: #1f77b4; stroke: #1f77b4"/>
     <use xlink:href="#m31a4513e55" x="631.712735" y="245.891016" style="fill: #1f77b4; stroke: #1f77b4"/>
     <use xlink:href="#m31a4513e55" x="673.12142" y="246.680545" style="fill: #1f77b4; stroke: #1f77b4"/>
    </g>
   </g>
   <g id="line2d_22">
    <path d="M 93.39983 240.704177 
L 134.808515 239.034881 
L 176.2172 236.743098 
L 217.625885 234.691864 
L 259.03457 202.023053 
L 300.443255 236.187661 
L 341.85194 236.815317 
L 383.260625 238.439932 
L 424.66931 129.013736 
L 466.077995 231.354088 
L 507.48668 234.666112 
L 548.895365 234.155754 
L 590.30405 185.084687 
L 631.712735 231.42103 
L 673.12142 235.991065 
" clip-path="url(#pb09148c52f)" style="fill: none; stroke: #ff7f0e; stroke-width: 2; stroke-linecap: square"/>
    <defs>
     <path id="m32f5d08d05" d="M 0 3 
C 0.795609 3 1.55874 2.683901 2.12132 2.12132 
C 2.683901 1.55874 3 0.795609 3 0 
C 3 -0.795609 2.683901 -1.55874 2.12132 -2.12132 
C 1.55874 -2.683901 0.795609 -3 0 -3 
C -0.795609 -3 -1.55874 -2.683901 -2.12132 -2.12132 
C -2.683901 -1.55874 -3 -0.795609 -3 0 
C -3 0.795609 -2.683901 1.55874 -2.12132 2.12132 
C -1.55874 2.683901 -0.795609 3 0 3 
z
" style="stroke: #ff7f0e"/>
    </defs>
    <g clip-path="url(#pb09148c52f)">
     <use xlink:href="#m32f5d08d05" x="93.39983" y="240.704177" style="fill: #ff7f0e; stroke: #ff7f0e"/>
     <use xlink:href="#m32f5d08d05" x="134.808515" y="239.034881" style="fill: #ff7f0e; stroke: #ff7f0e"/>
     <use xlink:href="#m32f5d08d05" x="176.2172" y="236.743098" style="fill: #ff7f0e; stroke: #ff7f0e"/>
     <use xlink:href="#m32f5d08d05" x="217.625885" y="234.691864" style="fill: #ff7f0e; stroke: #ff7f0e"/>
     <use xlink:href="#m32f5d08d05" x="259.03457" y="202.023053" style="fill: #ff7f0e; stroke: #ff7f0e"/>
     <use xlink:href="#m32f5d08d05" x="300.443255" y="236.187661" style="fill: #ff7f0e; stroke: #ff7f0e"/>
     <use xlink:href="#m32f5d08d05" x="341.85194" y="236.815317" style="fill: #ff7f0e; stroke: #ff7f0e"/>
     <use xlink:href="#m32f5d08d05" x="383.260625" y="238.439932" style="fill: #ff7f0e; stroke: #ff7f0e"/>
     <use xlink:href="#m32f5d08d05" x="424.66931" y="129.013736" style="fill: #ff7f0e; stroke: #ff7f0e"/>
     <use xlink:href="#m32f5d08d05" x="466.077995" y="231.354088" style="fill: #ff7f0e; stroke: #ff7f0e"/>
     <use xlink:href="#m32f5d08d05" x="507.48668" y="234.666112" style="fill: #ff7f0e; stroke: #ff7f0e"/>
     <use xlink:href="#m32f5d08d05" x="548.895365" y="234.155754" style="fill: #ff7f0e; stroke: #ff7f0e"/>
     <use xlink:href="#m32f5d08d05" x="590.30405" y="185.084687" style="fill: #ff7f0e; stroke: #ff7f0e"/>
     <use xlink:href="#m32f5d08d05" x="631.712735" y="231.42103" style="fill: #ff7f0e; stroke: #ff7f0e"/>
     <use xlink:href="#m32f5d08d05" x="673.12142" y="235.991065" style="fill: #ff7f0e; stroke: #ff7f0e"/>
    </g>
   </g>
   <g id="line2d_23">
    <path d="M 93.39983 240.454633 
L 134.808515 220.384818 
L 176.2172 197.50777 
L 217.625885 240.918753 
L 259.03457 180.799661 
L 300.443255 241.490779 
L 341.85194 240.907868 
L 383.260625 241.221409 
L 424.66931 193.573677 
L 466.077995 240.496082 
L 507.48668 241.256508 
L 548.895365 241.037244 
L 590.30405 200.687976 
L 631.712735 238.189114 
L 673.12142 240.248742 
" clip-path="url(#pb09148c52f)" style="fill: none; stroke: #2ca02c; stroke-width: 2; stroke-linecap: square"/>
    <defs>
     <path id="mf74d3c29ed" d="M 0 3 
C 0.795609 3 1.55874 2.683901 2.12132 2.12132 
C 2.683901 1.55874 3 0.795609 3 0 
C 3 -0.795609 2.683901 -1.55874 2.12132 -2.12132 
C 1.55874 -2.683901 0.795609 -3 0 -3 
C -0.795609 -3 -1.55874 -2.683901 -2.12132 -2.12132 
C -2.683901 -1.55874 -3 -0.795609 -3 0 
C -3 0.795609 -2.683901 1.55874 -2.12132 2.12132 
C -1.55874 2.683901 -0.795609 3 0 3 
z
" style="stroke: #2ca02c"/>
    </defs>
    <g clip-path="url(#pb09148c52f)">
     <use xlink:href="#mf74d3c29ed" x="93.39983" y="240.454633" style="fill: #2ca02c; stroke: #2ca02c"/>
     <use xlink:href="#mf74d3c29ed" x="134.808515" y="220.384818" style="fill: #2ca02c; stroke: #2ca02c"/>
     <use xlink:href="#mf74d3c29ed" x="176.2172" y="197.50777" style="fill: #2ca02c; stroke: #2ca02c"/>
     <use xlink:href="#mf74d3c29ed" x="217.625885" y="240.918753" style="fill: #2ca02c; stroke: #2ca02c"/>
     <use xlink:href="#mf74d3c29ed" x="259.03457" y="180.799661" style="fill: #2ca02c; stroke: #2ca02c"/>
     <use xlink:href="#mf74d3c29ed" x="300.443255" y="241.490779" style="fill: #2ca02c; stroke: #2ca02c"/>
     <use xlink:href="#mf74d3c29ed" x="341.85194" y="240.907868" style="fill: #2ca02c; stroke: #2ca02c"/>
     <use xlink:href="#mf74d3c29ed" x="383.260625" y="241.221409" style="fill: #2ca02c; stroke: #2ca02c"/>
     <use xlink:href="#mf74d3c29ed" x="424.66931" y="193.573677" style="fill: #2ca02c; stroke: #2ca02c"/>
     <use xlink:href="#mf74d3c29ed" x="466.077995" y="240.496082" style="fill: #2ca02c; stroke: #2ca02c"/>
     <use xlink:href="#mf74d3c29ed" x="507.48668" y="241.256508" style="fill: #2ca02c; stroke: #2ca02c"/>
     <use xlink:href="#mf74d3c29ed" x="548.895365" y="241.037244" style="fill: #2ca02c; stroke: #2ca02c"/>
     <use xlink:href="#mf74d3c29ed" x="590.30405" y="200.687976" style="fill: #2ca02c; stroke: #2ca02c"/>
     <use xlink:href="#mf74d3c29ed" x="631.712735" y="238.189114" style="fill: #2ca02c; stroke: #2ca02c"/>
     <use xlink:href="#mf74d3c29ed" x="673.12142" y="240.248742" style="fill: #2ca02c; stroke: #2ca02c"/>
    </g>
   </g>
   <g id="line2d_24">
    <path d="M 93.39983 504.248604 
L 134.808515 505.872768 
L 176.2172 504.792491 
L 217.625885 506.194396 
L 259.03457 307.401476 
L 300.443255 495.67333 
L 341.85194 504.979483 
L 383.260625 418.668224 
L 424.66931 505.967573 
L 466.077995 506.093384 
L 507.48668 505.210877 
L 548.895365 506.332202 
L 590.30405 503.566292 
L 673.12142 505.263098 
" clip-path="url(#pb09148c52f)" style="fill: none; stroke: #d62728; stroke-width: 2; stroke-linecap: square"/>
    <defs>
     <path id="m6c242d52b8" d="M 0 3 
C 0.795609 3 1.55874 2.683901 2.12132 2.12132 
C 2.683901 1.55874 3 0.795609 3 0 
C 3 -0.795609 2.683901 -1.55874 2.12132 -2.12132 
C 1.55874 -2.683901 0.795609 -3 0 -3 
C -0.795609 -3 -1.55874 -2.683901 -2.12132 -2.12132 
C -2.683901 -1.55874 -3 -0.795609 -3 0 
C -3 0.795609 -2.683901 1.55874 -2.12132 2.12132 
C -1.55874 2.683901 -0.795609 3 0 3 
z
" style="stroke: #d62728"/>
    </defs>
    <g clip-path="url(#pb09148c52f)">
     <use xlink:href="#m6c242d52b8" x="93.39983" y="504.248604" style="fill: #d62728; stroke: #d62728"/>
     <use xlink:href="#m6c242d52b8" x="134.808515" y="505.872768" style="fill: #d62728; stroke: #d62728"/>
     <use xlink:href="#m6c242d52b8" x="176.2172" y="504.792491" style="fill: #d62728; stroke: #d62728"/>
     <use xlink:href="#m6c242d52b8" x="217.625885" y="506.194396" style="fill: #d62728; stroke: #d62728"/>
     <use xlink:href="#m6c242d52b8" x="259.03457" y="307.401476" style="fill: #d62728; stroke: #d62728"/>
     <use xlink:href="#m6c242d52b8" x="300.443255" y="495.67333" style="fill: #d62728; stroke: #d62728"/>
     <use xlink:href="#m6c242d52b8" x="341.85194" y="504.979483" style="fill: #d62728; stroke: #d62728"/>
     <use xlink:href="#m6c242d52b8" x="383.260625" y="418.668224" style="fill: #d62728; stroke: #d62728"/>
     <use xlink:href="#m6c242d52b8" x="424.66931" y="505.967573" style="fill: #d62728; stroke: #d62728"/>
     <use xlink:href="#m6c242d52b8" x="466.077995" y="506.093384" style="fill: #d62728; stroke: #d62728"/>
     <use xlink:href="#m6c242d52b8" x="507.48668" y="505.210877" style="fill: #d62728; stroke: #d62728"/>
     <use xlink:href="#m6c242d52b8" x="548.895365" y="506.332202" style="fill: #d62728; stroke: #d62728"/>
     <use xlink:href="#m6c242d52b8" x="590.30405" y="503.566292" style="fill: #d62728; stroke: #d62728"/>
     <use xlink:href="#m6c242d52b8" x="673.12142" y="505.263098" style="fill: #d62728; stroke: #d62728"/>
    </g>
   </g>
   <g id="line2d_25">
    <path d="M 93.39983 472.027699 
L 134.808515 468.227676 
L 176.2172 471.077967 
L 217.625885 471.077111 
L 259.03457 415.776892 
L 300.443255 418.835598 
L 341.85194 470.029395 
L 383.260625 397.404129 
L 424.66931 469.916061 
L 466.077995 471.308466 
L 507.48668 469.262788 
L 548.895365 473.120467 
L 590.30405 464.097362 
L 673.12142 468.830183 
" clip-path="url(#pb09148c52f)" style="fill: none; stroke: #9467bd; stroke-width: 2; stroke-linecap: square"/>
    <defs>
     <path id="mb4bbd120c9" d="M 0 3 
C 0.795609 3 1.55874 2.683901 2.12132 2.12132 
C 2.683901 1.55874 3 0.795609 3 0 
C 3 -0.795609 2.683901 -1.55874 2.12132 -2.12132 
C 1.55874 -2.683901 0.795609 -3 0 -3 
C -0.795609 -3 -1.55874 -2.683901 -2.12132 -2.12132 
C -2.683901 -1.55874 -3 -0.795609 -3 0 
C -3 0.795609 -2.683901 1.55874 -2.12132 2.12132 
C -1.55874 2.683901 -0.795609 3 0 3 
z
" style="stroke: #9467bd"/>
    </defs>
    <g clip-path="url(#pb09148c52f)">
     <use xlink:href="#mb4bbd120c9" x="93.39983" y="472.027699" style="fill: #9467bd; stroke: #9467bd"/>
     <use xlink:href="#mb4bbd120c9" x="134.808515" y="468.227676" style="fill: #9467bd; stroke: #9467bd"/>
     <use xlink:href="#mb4bbd120c9" x="176.2172" y="471.077967" style="fill: #9467bd; stroke: #9467bd"/>
     <use xlink:href="#mb4bbd120c9" x="217.625885" y="471.077111" style="fill: #9467bd; stroke: #9467bd"/>
     <use xlink:href="#mb4bbd120c9" x="259.03457" y="415.776892" style="fill: #9467bd; stroke: #9467bd"/>
     <use xlink:href="#mb4bbd120c9" x="300.443255" y="418.835598" style="fill: #9467bd; stroke: #9467bd"/>
     <use xlink:href="#mb4bbd120c9" x="341.85194" y="470.029395" style="fill: #9467bd; stroke: #9467bd"/>
     <use xlink:href="#mb4bbd120c9" x="383.260625" y="397.404129" style="fill: #9467bd; stroke: #9467bd"/>
     <use xlink:href="#mb4bbd120c9" x="424.66931" y="469.916061" style="fill: #9467bd; stroke: #9467bd"/>
     <use xlink:href="#mb4bbd120c9" x="466.077995" y="471.308466" style="fill: #9467bd; stroke: #9467bd"/>
     <use xlink:href="#mb4bbd120c9" x="507.48668" y="469.262788" style="fill: #9467bd; stroke: #9467bd"/>
     <use xlink:href="#mb4bbd120c9" x="548.895365" y="473.120467" style="fill: #9467bd; stroke: #9467bd"/>
     <use xlink:href="#mb4bbd120c9" x="590.30405" y="464.097362" style="fill: #9467bd; stroke: #9467bd"/>
     <use xlink:href="#mb4bbd120c9" x="673.12142" y="468.830183" style="fill: #9467bd; stroke: #9467bd"/>
    </g>
   </g>
   <g id="line2d_26">
    <path d="M 93.39983 232.909089 
L 134.808515 231.621706 
L 176.2172 232.431485 
L 217.625885 231.491171 
L 259.03457 177.788612 
L 300.443255 179.060915 
L 341.85194 232.063964 
L 383.260625 174.117285 
L 424.66931 233.516693 
L 466.077995 232.106412 
L 507.48668 232.282283 
L 548.895365 232.285107 
L 590.30405 231.297806 
L 673.12142 232.529153 
" clip-path="url(#pb09148c52f)" style="fill: none; stroke: #8c564b; stroke-width: 2; stroke-linecap: square"/>
    <defs>
     <path id="m7c1cb076ef" d="M 0 3 
C 0.795609 3 1.55874 2.683901 2.12132 2.12132 
C 2.683901 1.55874 3 0.795609 3 0 
C 3 -0.795609 2.683901 -1.55874 2.12132 -2.12132 
C 1.55874 -2.683901 0.795609 -3 0 -3 
C -0.795609 -3 -1.55874 -2.683901 -2.12132 -2.12132 
C -2.683901 -1.55874 -3 -0.795609 -3 0 
C -3 0.795609 -2.683901 1.55874 -2.12132 2.12132 
C -1.55874 2.683901 -0.795609 3 0 3 
z
" style="stroke: #8c564b"/>
    </defs>
    <g clip-path="url(#pb09148c52f)">
     <use xlink:href="#m7c1cb076ef" x="93.39983" y="232.909089" style="fill: #8c564b; stroke: #8c564b"/>
     <use xlink:href="#m7c1cb076ef" x="134.808515" y="231.621706" style="fill: #8c564b; stroke: #8c564b"/>
     <use xlink:href="#m7c1cb076ef" x="176.2172" y="232.431485" style="fill: #8c564b; stroke: #8c564b"/>
     <use xlink:href="#m7c1cb076ef" x="217.625885" y="231.491171" style="fill: #8c564b; stroke: #8c564b"/>
     <use xlink:href="#m7c1cb076ef" x="259.03457" y="177.788612" style="fill: #8c564b; stroke: #8c564b"/>
     <use xlink:href="#m7c1cb076ef" x="300.443255" y="179.060915" style="fill: #8c564b; stroke: #8c564b"/>
     <use xlink:href="#m7c1cb076ef" x="341.85194" y="232.063964" style="fill: #8c564b; stroke: #8c564b"/>
     <use xlink:href="#m7c1cb076ef" x="383.260625" y="174.117285" style="fill: #8c564b; stroke: #8c564b"/>
     <use xlink:href="#m7c1cb076ef" x="424.66931" y="233.516693" style="fill: #8c564b; stroke: #8c564b"/>
     <use xlink:href="#m7c1cb076ef" x="466.077995" y="232.106412" style="fill: #8c564b; stroke: #8c564b"/>
     <use xlink:href="#m7c1cb076ef" x="507.48668" y="232.282283" style="fill: #8c564b; stroke: #8c564b"/>
     <use xlink:href="#m7c1cb076ef" x="548.895365" y="232.285107" style="fill: #8c564b; stroke: #8c564b"/>
     <use xlink:href="#m7c1cb076ef" x="590.30405" y="231.297806" style="fill: #8c564b; stroke: #8c564b"/>
     <use xlink:href="#m7c1cb076ef" x="673.12142" y="232.529153" style="fill: #8c564b; stroke: #8c564b"/>
    </g>
   </g>
   <g id="patch_3">
    <path d="M 64.41375 529.308125 
L 64.41375 23.837812 
" style="fill: none; stroke: #000000; stroke-width: 0.8; stroke-linejoin: miter; stroke-linecap: square"/>
   </g>
   <g id="patch_4">
    <path d="M 702.1075 529.308125 
L 702.1075 23.837812 
" style="fill: none; stroke: #000000; stroke-width: 0.8; stroke-linejoin: miter; stroke-linecap: square"/>
   </g>
   <g id="patch_5">
    <path d="M 64.41375 529.308125 
L 702.1075 529.308125 
" style="fill: none; stroke: #000000; stroke-width: 0.8; stroke-linejoin: miter; stroke-linecap: square"/>
   </g>
   <g id="patch_6">
    <path d="M 64.41375 23.837812 
L 702.1075 23.837812 
" style="fill: none; stroke: #000000; stroke-width: 0.8; stroke-linejoin: miter; stroke-linecap: square"/>
   </g>
   <g id="text_14">
    <text style="font: 700 14px 'DejaVu Sans', 'Bitstream Vera Sans', 'Computer Modern Sans Serif', 'Lucida Grande', 'Verdana', 'Geneva', 'Lucid', 'Arial', 'Helvetica', 'Avant Garde', sans-serif; text-anchor: middle" x="383.260625" y="17.837813" transform="rotate(-0 383.260625 17.837813)">Parallelfor Vectorops - Performance Trend</text>
   </g>
   <g id="legend_1">
    <g id="patch_7">
     <path d="M 740.992188 119.906563 
L 846.004688 119.906563 
Q 848.004688 119.906563 848.004688 117.906563 
L 848.004688 30.837813 
Q 848.004688 28.837813 846.004688 28.837813 
L 740.992188 28.837813 
Q 738.992188 28.837813 738.992188 30.837813 
L 738.992188 117.906563 
Q 738.992188 119.906563 740.992188 119.906563 
z
" style="fill: #ffffff; opacity: 0.8; stroke: #cccccc; stroke-linejoin: miter"/>
    </g>
    <g id="line2d_27">
     <path d="M 742.992188 36.93625 
L 752.992188 36.93625 
L 762.992188 36.93625 
" style="fill: none; stroke: #1f77b4; stroke-width: 2; stroke-linecap: square"/>
     <g>
      <use xlink:href="#m31a4513e55" x="752.992188" y="36.93625" style="fill: #1f77b4; stroke: #1f77b4"/>
     </g>
    </g>
    <g id="text_15">
     <text style="font: 10px 'DejaVu Sans', 'Bitstream Vera Sans', 'Computer Modern Sans Serif', 'Lucida Grande', 'Verdana', 'Geneva', 'Lucid', 'Arial', 'Helvetica', 'Avant Garde', sans-serif; text-anchor: start" x="770.992188" y="40.43625" transform="rotate(-0 770.992188 40.43625)">gcc-14.2 - V1</text>
    </g>
    <g id="line2d_28">
     <path d="M 742.992188 51.614375 
L 752.992188 51.614375 
L 762.992188 51.614375 
" style="fill: none; stroke: #ff7f0e; stroke-width: 2; stroke-linecap: square"/>
     <g>
      <use xlink:href="#m32f5d08d05" x="752.992188" y="51.614375" style="fill: #ff7f0e; stroke: #ff7f0e"/>
     </g>
    </g>
    <g id="text_16">
     <text style="font: 10px 'DejaVu Sans', 'Bitstream Vera Sans', 'Computer Modern Sans Serif', 'Lucida Grande', 'Verdana', 'Geneva', 'Lucid', 'Arial', 'Helvetica', 'Avant Garde', sans-serif; text-anchor: start" x="770.992188" y="55.114375" transform="rotate(-0 770.992188 55.114375)">gcc-14.2 - V2</text>
    </g>
    <g id="line2d_29">
     <path d="M 742.992188 66.2925 
L 752.992188 66.2925 
L 762.992188 66.2925 
" style="fill: none; stroke: #2ca02c; stroke-width: 2; stroke-linecap: square"/>
     <g>
      <use xlink:href="#mf74d3c29ed" x="752.992188" y="66.2925" style="fill: #2ca02c; stroke: #2ca02c"/>
     </g>
    </g>
    <g id="text_17">
     <text style="font: 10px 'DejaVu Sans', 'Bitstream Vera Sans', 'Computer Modern Sans Serif', 'Lucida Grande', 'Verdana', 'Geneva', 'Lucid', 'Arial', 'Helvetica', 'Avant Garde', sans-serif; text-anchor: start" x="770.992188" y="69.7925" transform="rotate(-0 770.992188 69.7925)">gcc-14.2 - TBB</text>
    </g>
    <g id="line2d_30">
     <path d="M 742.992188 80.970625 
L 752.992188 80.970625 
L 762.992188 80.970625 
" style="fill: none; stroke: #d62728; stroke-width: 2; stroke-linecap: square"/>
     <g>
      <use xlink:href="#m6c242d52b8" x="752.992188" y="80.970625" style="fill: #d62728; stroke: #d62728"/>
     </g>
    </g>
    <g id="text_18">
     <text style="font: 10px 'DejaVu Sans', 'Bitstream Vera Sans', 'Computer Modern Sans Serif', 'Lucida Grande', 'Verdana', 'Geneva', 'Lucid', 'Arial', 'Helvetica', 'Avant Garde', sans-serif; text-anchor: start" x="770.992188" y="84.470625" transform="rotate(-0 770.992188 84.470625)">gcc-4.2 - V1</text>
    </g>
    <g id="line2d_31">
     <path d="M 742.992188 95.64875 
L 752.992188 95.64875 
L 762.992188 95.64875 
" style="fill: none; stroke: #9467bd; stroke-width: 2; stroke-linecap: square"/>
     <g>
      <use xlink:href="#mb4bbd120c9" x="752.992188" y="95.64875" style="fill: #9467bd; stroke: #9467bd"/>
     </g>
    </g>
    <g id="text_19">
     <text style="font: 10px 'DejaVu Sans', 'Bitstream Vera Sans', 'Computer Modern Sans Serif', 'Lucida Grande', 'Verdana', 'Geneva', 'Lucid', 'Arial', 'Helvetica', 'Avant Garde', sans-serif; text-anchor: start" x="770.992188" y="99.14875" transform="rotate(-0 770.992188 99.14875)">gcc-4.2 - V2</text>
    </g>
    <g id="line2d_32">
     <path d="M 742.992188 110.326875 
L 752.992188 110.326875 
L 762.992188 110.326875 
" style="fill: none; stroke: #8c564b; stroke-width: 2; stroke-linecap: square"/>
     <g>
      <use xlink:href="#m7c1cb076ef" x="752.992188" y="110.326875" style="fill: #8c564b; stroke: #8c564b"/>
     </g>
    </g>
    <g id="text_20">
     <text style="font: 10px 'DejaVu Sans', 'Bitstream Vera Sans', 'Computer Modern Sans Serif', 'Lucida Grande', 'Verdana', 'Geneva', 'Lucid', 'Arial', 'Helvetica', 'Avant Garde', sans-serif; text-anchor: start" x="770.992188" y="113.826875" transform="rotate(-0 770.992188 113.826875)">gcc-4.2 - TBB</text>
    </g>
   </g>
  </g>
 </g>
 <defs>
  <clipPath id="pb09148c52f">
   <rect x="64.41375" y="23.837813" width="637.69375" height="505.470313"/>
  </clipPath>
 </defs>
</svg>
