<?xml version="1.0" encoding="utf-8" standalone="no"?>
<!DOCTYPE svg PUBLIC "-//W3C//DTD SVG 1.1//EN"
  "http://www.w3.org/Graphics/SVG/1.1/DTD/svg11.dtd">
<svg xmlns:xlink="http://www.w3.org/1999/xlink" width="855.204687pt" height="568.8pt" viewBox="0 0 855.204687 568.8" xmlns="http://www.w3.org/2000/svg" version="1.1">
 <metadata>
  <rdf:RDF xmlns:dc="http://purl.org/dc/elements/1.1/" xmlns:cc="http://creativecommons.org/ns#" xmlns:rdf="http://www.w3.org/1999/02/22-rdf-syntax-ns#">
   <cc:Work>
    <dc:type rdf:resource="http://purl.org/dc/dcmitype/StillImage"/>
    <dc:date>2025-08-22T16:20:11.630047</dc:date>
    <dc:format>image/svg+xml</dc:format>
    <dc:creator>
     <cc:Agent>
      <dc:title>Matplotlib v3.9.4, https://matplotlib.org/</dc:title>
     </cc:Agent>
    </dc:creator>
   </cc:Work>
  </rdf:RDF>
 </metadata>
 <defs>
  <style type="text/css">*{stroke-linejoin: round; stroke-linecap: butt}</style>
 </defs>
 <g id="figure_1">
  <g id="patch_1">
   <path d="M 0 568.8 
L 855.204687 568.8 
L 855.204687 0 
L 0 0 
z
" style="fill: #ffffff"/>
  </g>
  <g id="axes_1">
   <g id="patch_2">
    <path d="M 64.41375 529.308125 
L 702.1075 529.308125 
L 702.1075 23.837812 
L 64.41375 23.837812 
z
" style="fill: #ffffff"/>
   </g>
   <g id="matplotlib.axis_1">
    <g id="xtick_1">
     <g id="line2d_1">
      <path d="M 73.40943 529.308125 
L 73.40943 23.837812 
" clip-path="url(#pdd7ab80b19)" style="fill: none; stroke: #b0b0b0; stroke-opacity: 0.3; stroke-width: 0.8; stroke-linecap: square"/>
     </g>
     <g id="line2d_2">
      <defs>
       <path id="mfc2c1662e8" d="M 0 0 
L 0 3.5 
" style="stroke: #000000; stroke-width: 0.8"/>
      </defs>
      <g>
       <use xlink:href="#mfc2c1662e8" x="73.40943" y="529.308125" style="stroke: #000000; stroke-width: 0.8"/>
      </g>
     </g>
     <g id="text_1">
      <text style="font: 10px 'DejaVu Sans', 'Bitstream Vera Sans', 'Computer Modern Sans Serif', 'Lucida Grande', 'Verdana', 'Geneva', 'Lucid', 'Arial', 'Helvetica', 'Avant Garde', sans-serif; text-anchor: middle" x="73.40943" y="543.906563" transform="rotate(-0 73.40943 543.906563)">70</text>
     </g>
    </g>
    <g id="xtick_2">
     <g id="line2d_3">
      <path d="M 173.361428 529.308125 
L 173.361428 23.837812 
" clip-path="url(#pdd7ab80b19)" style="fill: none; stroke: #b0b0b0; stroke-opacity: 0.3; stroke-width: 0.8; stroke-linecap: square"/>
     </g>
     <g id="line2d_4">
      <g>
       <use xlink:href="#mfc2c1662e8" x="173.361428" y="529.308125" style="stroke: #000000; stroke-width: 0.8"/>
      </g>
     </g>
     <g id="text_2">
      <text style="font: 10px 'DejaVu Sans', 'Bitstream Vera Sans', 'Computer Modern Sans Serif', 'Lucida Grande', 'Verdana', 'Geneva', 'Lucid', 'Arial', 'Helvetica', 'Avant Garde', sans-serif; text-anchor: middle" x="173.361428" y="543.906563" transform="rotate(-0 173.361428 543.906563)">75</text>
     </g>
    </g>
    <g id="xtick_3">
     <g id="line2d_5">
      <path d="M 273.313427 529.308125 
L 273.313427 23.837812 
" clip-path="url(#pdd7ab80b19)" style="fill: none; stroke: #b0b0b0; stroke-opacity: 0.3; stroke-width: 0.8; stroke-linecap: square"/>
     </g>
     <g id="line2d_6">
      <g>
       <use xlink:href="#mfc2c1662e8" x="273.313427" y="529.308125" style="stroke: #000000; stroke-width: 0.8"/>
      </g>
     </g>
     <g id="text_3">
      <text style="font: 10px 'DejaVu Sans', 'Bitstream Vera Sans', 'Computer Modern Sans Serif', 'Lucida Grande', 'Verdana', 'Geneva', 'Lucid', 'Arial', 'Helvetica', 'Avant Garde', sans-serif; text-anchor: middle" x="273.313427" y="543.906563" transform="rotate(-0 273.313427 543.906563)">80</text>
     </g>
    </g>
    <g id="xtick_4">
     <g id="line2d_7">
      <path d="M 373.265425 529.308125 
L 373.265425 23.837812 
" clip-path="url(#pdd7ab80b19)" style="fill: none; stroke: #b0b0b0; stroke-opacity: 0.3; stroke-width: 0.8; stroke-linecap: square"/>
     </g>
     <g id="line2d_8">
      <g>
       <use xlink:href="#mfc2c1662e8" x="373.265425" y="529.308125" style="stroke: #000000; stroke-width: 0.8"/>
      </g>
     </g>
     <g id="text_4">
      <text style="font: 10px 'DejaVu Sans', 'Bitstream Vera Sans', 'Computer Modern Sans Serif', 'Lucida Grande', 'Verdana', 'Geneva', 'Lucid', 'Arial', 'Helvetica', 'Avant Garde', sans-serif; text-anchor: middle" x="373.265425" y="543.906563" transform="rotate(-0 373.265425 543.906563)">85</text>
     </g>
    </g>
    <g id="xtick_5">
     <g id="line2d_9">
      <path d="M 473.217424 529.308125 
L 473.217424 23.837812 
" clip-path="url(#pdd7ab80b19)" style="fill: none; stroke: #b0b0b0; stroke-opacity: 0.3; stroke-width: 0.8; stroke-linecap: square"/>
     </g>
     <g id="line2d_10">
      <g>
       <use xlink:href="#mfc2c1662e8" x="473.217424" y="529.308125" style="stroke: #000000; stroke-width: 0.8"/>
      </g>
     </g>
     <g id="text_5">
      <text style="font: 10px 'DejaVu Sans', 'Bitstream Vera Sans', 'Computer Modern Sans Serif', 'Lucida Grande', 'Verdana', 'Geneva', 'Lucid', 'Arial', 'Helvetica', 'Avant Garde', sans-serif; text-anchor: middle" x="473.217424" y="543.906563" transform="rotate(-0 473.217424 543.906563)">90</text>
     </g>
    </g>
    <g id="xtick_6">
     <g id="line2d_11">
      <path d="M 573.169422 529.308125 
L 573.169422 23.837812 
" clip-path="url(#pdd7ab80b19)" style="fill: none; stroke: #b0b0b0; stroke-opacity: 0.3; stroke-width: 0.8; stroke-linecap: square"/>
     </g>
     <g id="line2d_12">
      <g>
       <use xlink:href="#mfc2c1662e8" x="573.169422" y="529.308125" style="stroke: #000000; stroke-width: 0.8"/>
      </g>
     </g>
     <g id="text_6">
      <text style="font: 10px 'DejaVu Sans', 'Bitstream Vera Sans', 'Computer Modern Sans Serif', 'Lucida Grande', 'Verdana', 'Geneva', 'Lucid', 'Arial', 'Helvetica', 'Avant Garde', sans-serif; text-anchor: middle" x="573.169422" y="543.906563" transform="rotate(-0 573.169422 543.906563)">95</text>
     </g>
    </g>
    <g id="xtick_7">
     <g id="line2d_13">
      <path d="M 673.12142 529.308125 
L 673.12142 23.837812 
" clip-path="url(#pdd7ab80b19)" style="fill: none; stroke: #b0b0b0; stroke-opacity: 0.3; stroke-width: 0.8; stroke-linecap: square"/>
     </g>
     <g id="line2d_14">
      <g>
       <use xlink:href="#mfc2c1662e8" x="673.12142" y="529.308125" style="stroke: #000000; stroke-width: 0.8"/>
      </g>
     </g>
     <g id="text_7">
      <text style="font: 10px 'DejaVu Sans', 'Bitstream Vera Sans', 'Computer Modern Sans Serif', 'Lucida Grande', 'Verdana', 'Geneva', 'Lucid', 'Arial', 'Helvetica', 'Avant Garde', sans-serif; text-anchor: middle" x="673.12142" y="543.906563" transform="rotate(-0 673.12142 543.906563)">100</text>
     </g>
    </g>
    <g id="text_8">
     <text style="font: 12px 'DejaVu Sans', 'Bitstream Vera Sans', 'Computer Modern Sans Serif', 'Lucida Grande', 'Verdana', 'Geneva', 'Lucid', 'Arial', 'Helvetica', 'Avant Garde', sans-serif; text-anchor: middle" x="383.260625" y="559.104375" transform="rotate(-0 383.260625 559.104375)">Build Number</text>
    </g>
   </g>
   <g id="matplotlib.axis_2">
    <g id="ytick_1">
     <g id="line2d_15">
      <path d="M 64.41375 453.786204 
L 702.1075 453.786204 
" clip-path="url(#pdd7ab80b19)" style="fill: none; stroke: #b0b0b0; stroke-opacity: 0.3; stroke-width: 0.8; stroke-linecap: square"/>
     </g>
     <g id="line2d_16">
      <defs>
       <path id="m159361b486" d="M 0 0 
L -3.5 0 
" style="stroke: #000000; stroke-width: 0.8"/>
      </defs>
      <g>
       <use xlink:href="#m159361b486" x="64.41375" y="453.786204" style="stroke: #000000; stroke-width: 0.8"/>
      </g>
     </g>
     <g id="text_9">
      <!-- $\mathdefault{10^{5}}$ -->
      <g transform="translate(39.81375 457.585423)">
       <text>
        <tspan style="font: 10px 'DejaVu Sans'" x="0 6.362305" y="-0.06406250000000036">10</tspan>
        <tspan style="font: 7px 'DejaVu Sans'" x="12.820312" y="-3.8921875000000004">5</tspan>
       </text>
      </g>
     </g>
    </g>
    <g id="ytick_2">
     <g id="line2d_17">
      <defs>
       <path id="m7affdcd13a" d="M 0 0 
L -2 0 
" style="stroke: #000000; stroke-width: 0.6"/>
      </defs>
      <g>
       <use xlink:href="#m7affdcd13a" x="64.41375" y="496.873642" style="stroke: #000000; stroke-width: 0.6"/>
      </g>
     </g>
    </g>
    <g id="ytick_3">
     <g id="line2d_18">
      <g>
       <use xlink:href="#m7affdcd13a" x="64.41375" y="170.321985" style="stroke: #000000; stroke-width: 0.6"/>
      </g>
     </g>
     <g id="text_10">
      <!-- $\mathdefault{2\times10^{5}}$ -->
      <g transform="translate(22.81375 174.121204)">
       <text>
        <tspan style="font: 10px 'DejaVu Sans'" x="0 8.310547 18.637695 25" y="-0.06406250000000036">2×10</tspan>
        <tspan style="font: 7px 'DejaVu Sans'" x="31.458008" y="-3.8921875000000004">5</tspan>
       </text>
      </g>
     </g>
    </g>
    <g id="text_11">
     <text style="font: 12px 'DejaVu Sans', 'Bitstream Vera Sans', 'Computer Modern Sans Serif', 'Lucida Grande', 'Verdana', 'Geneva', 'Lucid', 'Arial', 'Helvetica', 'Avant Garde', sans-serif; text-anchor: middle" x="16.318125" y="276.572969" transform="rotate(-90 16.318125 276.572969)">Median Elapsed Time (nanoseconds)</text>
    </g>
   </g>
   <g id="line2d_19">
    <path d="M 93.39983 358.594402 
L 113.390229 83.393181 
L 133.380629 220.76105 
L 153.371029 331.184044 
L 173.361428 228.639233 
L 193.351828 318.546856 
L 213.342228 271.249317 
L 233.332627 112.928166 
L 253.323027 300.433378 
L 273.313427 288.178339 
L 293.303826 314.544957 
L 313.294226 271.473142 
L 333.284626 355.083876 
L 353.275025 289.902078 
L 373.265425 324.935545 
L 393.255825 310.91823 
L 433.236624 46.813736 
L 453.227024 298.535776 
L 473.217424 272.004793 
L 493.207823 264.733822 
L 513.198223 300.821441 
L 533.188623 315.773402 
L 553.179022 320.378392 
L 573.169422 300.841979 
L 593.159822 296.635402 
L 613.150221 282.449221 
L 653.131021 284.389929 
L 673.12142 256.561491 
" clip-path="url(#pdd7ab80b19)" style="fill: none; stroke: #1f77b4; stroke-width: 2; stroke-linecap: square"/>
    <defs>
     <path id="mb3629c0ca1" d="M 0 3 
C 0.795609 3 1.55874 2.683901 2.12132 2.12132 
C 2.683901 1.55874 3 0.795609 3 0 
C 3 -0.795609 2.683901 -1.55874 2.12132 -2.12132 
C 1.55874 -2.683901 0.795609 -3 0 -3 
C -0.795609 -3 -1.55874 -2.683901 -2.12132 -2.12132 
C -2.683901 -1.55874 -3 -0.795609 -3 0 
C -3 0.795609 -2.683901 1.55874 -2.12132 2.12132 
C -1.55874 2.683901 -0.795609 3 0 3 
z
" style="stroke: #1f77b4"/>
    </defs>
    <g clip-path="url(#pdd7ab80b19)">
     <use xlink:href="#mb3629c0ca1" x="93.39983" y="358.594402" style="fill: #1f77b4; stroke: #1f77b4"/>
     <use xlink:href="#mb3629c0ca1" x="113.390229" y="83.393181" style="fill: #1f77b4; stroke: #1f77b4"/>
     <use xlink:href="#mb3629c0ca1" x="133.380629" y="220.76105" style="fill: #1f77b4; stroke: #1f77b4"/>
     <use xlink:href="#mb3629c0ca1" x="153.371029" y="331.184044" style="fill: #1f77b4; stroke: #1f77b4"/>
     <use xlink:href="#mb3629c0ca1" x="173.361428" y="228.639233" style="fill: #1f77b4; stroke: #1f77b4"/>
     <use xlink:href="#mb3629c0ca1" x="193.351828" y="318.546856" style="fill: #1f77b4; stroke: #1f77b4"/>
     <use xlink:href="#mb3629c0ca1" x="213.342228" y="271.249317" style="fill: #1f77b4; stroke: #1f77b4"/>
     <use xlink:href="#mb3629c0ca1" x="233.332627" y="112.928166" style="fill: #1f77b4; stroke: #1f77b4"/>
     <use xlink:href="#mb3629c0ca1" x="253.323027" y="300.433378" style="fill: #1f77b4; stroke: #1f77b4"/>
     <use xlink:href="#mb3629c0ca1" x="273.313427" y="288.178339" style="fill: #1f77b4; stroke: #1f77b4"/>
     <use xlink:href="#mb3629c0ca1" x="293.303826" y="314.544957" style="fill: #1f77b4; stroke: #1f77b4"/>
     <use xlink:href="#mb3629c0ca1" x="313.294226" y="271.473142" style="fill: #1f77b4; stroke: #1f77b4"/>
     <use xlink:href="#mb3629c0ca1" x="333.284626" y="355.083876" style="fill: #1f77b4; stroke: #1f77b4"/>
     <use xlink:href="#mb3629c0ca1" x="353.275025" y="289.902078" style="fill: #1f77b4; stroke: #1f77b4"/>
     <use xlink:href="#mb3629c0ca1" x="373.265425" y="324.935545" style="fill: #1f77b4; stroke: #1f77b4"/>
     <use xlink:href="#mb3629c0ca1" x="393.255825" y="310.91823" style="fill: #1f77b4; stroke: #1f77b4"/>
     <use xlink:href="#mb3629c0ca1" x="433.236624" y="46.813736" style="fill: #1f77b4; stroke: #1f77b4"/>
     <use xlink:href="#mb3629c0ca1" x="453.227024" y="298.535776" style="fill: #1f77b4; stroke: #1f77b4"/>
     <use xlink:href="#mb3629c0ca1" x="473.217424" y="272.004793" style="fill: #1f77b4; stroke: #1f77b4"/>
     <use xlink:href="#mb3629c0ca1" x="493.207823" y="264.733822" style="fill: #1f77b4; stroke: #1f77b4"/>
     <use xlink:href="#mb3629c0ca1" x="513.198223" y="300.821441" style="fill: #1f77b4; stroke: #1f77b4"/>
     <use xlink:href="#mb3629c0ca1" x="533.188623" y="315.773402" style="fill: #1f77b4; stroke: #1f77b4"/>
     <use xlink:href="#mb3629c0ca1" x="553.179022" y="320.378392" style="fill: #1f77b4; stroke: #1f77b4"/>
     <use xlink:href="#mb3629c0ca1" x="573.169422" y="300.841979" style="fill: #1f77b4; stroke: #1f77b4"/>
     <use xlink:href="#mb3629c0ca1" x="593.159822" y="296.635402" style="fill: #1f77b4; stroke: #1f77b4"/>
     <use xlink:href="#mb3629c0ca1" x="613.150221" y="282.449221" style="fill: #1f77b4; stroke: #1f77b4"/>
     <use xlink:href="#mb3629c0ca1" x="653.131021" y="284.389929" style="fill: #1f77b4; stroke: #1f77b4"/>
     <use xlink:href="#mb3629c0ca1" x="673.12142" y="256.561491" style="fill: #1f77b4; stroke: #1f77b4"/>
    </g>
   </g>
   <g id="line2d_20">
    <path d="M 93.39983 392.679679 
L 113.390229 386.936497 
L 133.380629 398.248244 
L 153.371029 385.343502 
L 173.361428 339.569664 
L 193.351828 404.385915 
L 213.342228 381.678582 
L 233.332627 408.819049 
L 253.323027 396.668627 
L 273.313427 335.900085 
L 293.303826 374.883943 
L 313.294226 381.8178 
L 333.284626 372.43382 
L 353.275025 408.554433 
L 373.265425 391.855324 
L 393.255825 368.569402 
L 433.236624 391.970803 
L 453.227024 383.410177 
L 473.217424 355.940819 
L 493.207823 365.503518 
L 513.198223 346.510892 
L 533.188623 416.125962 
L 553.179022 357.092056 
L 573.169422 354.857344 
L 593.159822 282.149957 
L 613.150221 279.938227 
L 653.131021 284.948124 
L 673.12142 314.650581 
" clip-path="url(#pdd7ab80b19)" style="fill: none; stroke: #ff7f0e; stroke-width: 2; stroke-linecap: square"/>
    <defs>
     <path id="mbb323c1d4c" d="M 0 3 
C 0.795609 3 1.55874 2.683901 2.12132 2.12132 
C 2.683901 1.55874 3 0.795609 3 0 
C 3 -0.795609 2.683901 -1.55874 2.12132 -2.12132 
C 1.55874 -2.683901 0.795609 -3 0 -3 
C -0.795609 -3 -1.55874 -2.683901 -2.12132 -2.12132 
C -2.683901 -1.55874 -3 -0.795609 -3 0 
C -3 0.795609 -2.683901 1.55874 -2.12132 2.12132 
C -1.55874 2.683901 -0.795609 3 0 3 
z
" style="stroke: #ff7f0e"/>
    </defs>
    <g clip-path="url(#pdd7ab80b19)">
     <use xlink:href="#mbb323c1d4c" x="93.39983" y="392.679679" style="fill: #ff7f0e; stroke: #ff7f0e"/>
     <use xlink:href="#mbb323c1d4c" x="113.390229" y="386.936497" style="fill: #ff7f0e; stroke: #ff7f0e"/>
     <use xlink:href="#mbb323c1d4c" x="133.380629" y="398.248244" style="fill: #ff7f0e; stroke: #ff7f0e"/>
     <use xlink:href="#mbb323c1d4c" x="153.371029" y="385.343502" style="fill: #ff7f0e; stroke: #ff7f0e"/>
     <use xlink:href="#mbb323c1d4c" x="173.361428" y="339.569664" style="fill: #ff7f0e; stroke: #ff7f0e"/>
     <use xlink:href="#mbb323c1d4c" x="193.351828" y="404.385915" style="fill: #ff7f0e; stroke: #ff7f0e"/>
     <use xlink:href="#mbb323c1d4c" x="213.342228" y="381.678582" style="fill: #ff7f0e; stroke: #ff7f0e"/>
     <use xlink:href="#mbb323c1d4c" x="233.332627" y="408.819049" style="fill: #ff7f0e; stroke: #ff7f0e"/>
     <use xlink:href="#mbb323c1d4c" x="253.323027" y="396.668627" style="fill: #ff7f0e; stroke: #ff7f0e"/>
     <use xlink:href="#mbb323c1d4c" x="273.313427" y="335.900085" style="fill: #ff7f0e; stroke: #ff7f0e"/>
     <use xlink:href="#mbb323c1d4c" x="293.303826" y="374.883943" style="fill: #ff7f0e; stroke: #ff7f0e"/>
     <use xlink:href="#mbb323c1d4c" x="313.294226" y="381.8178" style="fill: #ff7f0e; stroke: #ff7f0e"/>
     <use xlink:href="#mbb323c1d4c" x="333.284626" y="372.43382" style="fill: #ff7f0e; stroke: #ff7f0e"/>
     <use xlink:href="#mbb323c1d4c" x="353.275025" y="408.554433" style="fill: #ff7f0e; stroke: #ff7f0e"/>
     <use xlink:href="#mbb323c1d4c" x="373.265425" y="391.855324" style="fill: #ff7f0e; stroke: #ff7f0e"/>
     <use xlink:href="#mbb323c1d4c" x="393.255825" y="368.569402" style="fill: #ff7f0e; stroke: #ff7f0e"/>
     <use xlink:href="#mbb323c1d4c" x="433.236624" y="391.970803" style="fill: #ff7f0e; stroke: #ff7f0e"/>
     <use xlink:href="#mbb323c1d4c" x="453.227024" y="383.410177" style="fill: #ff7f0e; stroke: #ff7f0e"/>
     <use xlink:href="#mbb323c1d4c" x="473.217424" y="355.940819" style="fill: #ff7f0e; stroke: #ff7f0e"/>
     <use xlink:href="#mbb323c1d4c" x="493.207823" y="365.503518" style="fill: #ff7f0e; stroke: #ff7f0e"/>
     <use xlink:href="#mbb323c1d4c" x="513.198223" y="346.510892" style="fill: #ff7f0e; stroke: #ff7f0e"/>
     <use xlink:href="#mbb323c1d4c" x="533.188623" y="416.125962" style="fill: #ff7f0e; stroke: #ff7f0e"/>
     <use xlink:href="#mbb323c1d4c" x="553.179022" y="357.092056" style="fill: #ff7f0e; stroke: #ff7f0e"/>
     <use xlink:href="#mbb323c1d4c" x="573.169422" y="354.857344" style="fill: #ff7f0e; stroke: #ff7f0e"/>
     <use xlink:href="#mbb323c1d4c" x="593.159822" y="282.149957" style="fill: #ff7f0e; stroke: #ff7f0e"/>
     <use xlink:href="#mbb323c1d4c" x="613.150221" y="279.938227" style="fill: #ff7f0e; stroke: #ff7f0e"/>
     <use xlink:href="#mbb323c1d4c" x="653.131021" y="284.948124" style="fill: #ff7f0e; stroke: #ff7f0e"/>
     <use xlink:href="#mbb323c1d4c" x="673.12142" y="314.650581" style="fill: #ff7f0e; stroke: #ff7f0e"/>
    </g>
   </g>
   <g id="line2d_21">
    <path d="M 93.39983 253.741696 
L 113.390229 131.132428 
L 133.380629 96.482045 
L 153.371029 81.256547 
L 173.361428 240.152215 
L 193.351828 77.046755 
L 213.342228 132.700907 
L 233.332627 86.931594 
L 253.323027 212.878131 
L 273.313427 259.677316 
L 293.303826 75.515958 
L 313.294226 128.781141 
L 333.284626 197.396234 
L 353.275025 112.022002 
L 373.265425 278.006773 
L 393.255825 84.085137 
L 433.236624 101.398895 
L 453.227024 202.032381 
L 473.217424 119.799375 
L 493.207823 215.475984 
L 513.198223 242.654232 
L 533.188623 83.347224 
L 553.179022 247.574723 
L 573.169422 84.118424 
L 593.159822 125.304641 
L 613.150221 130.136687 
L 653.131021 129.336619 
L 673.12142 263.001692 
" clip-path="url(#pdd7ab80b19)" style="fill: none; stroke: #2ca02c; stroke-width: 2; stroke-linecap: square"/>
    <defs>
     <path id="m81b2df6855" d="M 0 3 
C 0.795609 3 1.55874 2.683901 2.12132 2.12132 
C 2.683901 1.55874 3 0.795609 3 0 
C 3 -0.795609 2.683901 -1.55874 2.12132 -2.12132 
C 1.55874 -2.683901 0.795609 -3 0 -3 
C -0.795609 -3 -1.55874 -2.683901 -2.12132 -2.12132 
C -2.683901 -1.55874 -3 -0.795609 -3 0 
C -3 0.795609 -2.683901 1.55874 -2.12132 2.12132 
C -1.55874 2.683901 -0.795609 3 0 3 
z
" style="stroke: #2ca02c"/>
    </defs>
    <g clip-path="url(#pdd7ab80b19)">
     <use xlink:href="#m81b2df6855" x="93.39983" y="253.741696" style="fill: #2ca02c; stroke: #2ca02c"/>
     <use xlink:href="#m81b2df6855" x="113.390229" y="131.132428" style="fill: #2ca02c; stroke: #2ca02c"/>
     <use xlink:href="#m81b2df6855" x="133.380629" y="96.482045" style="fill: #2ca02c; stroke: #2ca02c"/>
     <use xlink:href="#m81b2df6855" x="153.371029" y="81.256547" style="fill: #2ca02c; stroke: #2ca02c"/>
     <use xlink:href="#m81b2df6855" x="173.361428" y="240.152215" style="fill: #2ca02c; stroke: #2ca02c"/>
     <use xlink:href="#m81b2df6855" x="193.351828" y="77.046755" style="fill: #2ca02c; stroke: #2ca02c"/>
     <use xlink:href="#m81b2df6855" x="213.342228" y="132.700907" style="fill: #2ca02c; stroke: #2ca02c"/>
     <use xlink:href="#m81b2df6855" x="233.332627" y="86.931594" style="fill: #2ca02c; stroke: #2ca02c"/>
     <use xlink:href="#m81b2df6855" x="253.323027" y="212.878131" style="fill: #2ca02c; stroke: #2ca02c"/>
     <use xlink:href="#m81b2df6855" x="273.313427" y="259.677316" style="fill: #2ca02c; stroke: #2ca02c"/>
     <use xlink:href="#m81b2df6855" x="293.303826" y="75.515958" style="fill: #2ca02c; stroke: #2ca02c"/>
     <use xlink:href="#m81b2df6855" x="313.294226" y="128.781141" style="fill: #2ca02c; stroke: #2ca02c"/>
     <use xlink:href="#m81b2df6855" x="333.284626" y="197.396234" style="fill: #2ca02c; stroke: #2ca02c"/>
     <use xlink:href="#m81b2df6855" x="353.275025" y="112.022002" style="fill: #2ca02c; stroke: #2ca02c"/>
     <use xlink:href="#m81b2df6855" x="373.265425" y="278.006773" style="fill: #2ca02c; stroke: #2ca02c"/>
     <use xlink:href="#m81b2df6855" x="393.255825" y="84.085137" style="fill: #2ca02c; stroke: #2ca02c"/>
     <use xlink:href="#m81b2df6855" x="433.236624" y="101.398895" style="fill: #2ca02c; stroke: #2ca02c"/>
     <use xlink:href="#m81b2df6855" x="453.227024" y="202.032381" style="fill: #2ca02c; stroke: #2ca02c"/>
     <use xlink:href="#m81b2df6855" x="473.217424" y="119.799375" style="fill: #2ca02c; stroke: #2ca02c"/>
     <use xlink:href="#m81b2df6855" x="493.207823" y="215.475984" style="fill: #2ca02c; stroke: #2ca02c"/>
     <use xlink:href="#m81b2df6855" x="513.198223" y="242.654232" style="fill: #2ca02c; stroke: #2ca02c"/>
     <use xlink:href="#m81b2df6855" x="533.188623" y="83.347224" style="fill: #2ca02c; stroke: #2ca02c"/>
     <use xlink:href="#m81b2df6855" x="553.179022" y="247.574723" style="fill: #2ca02c; stroke: #2ca02c"/>
     <use xlink:href="#m81b2df6855" x="573.169422" y="84.118424" style="fill: #2ca02c; stroke: #2ca02c"/>
     <use xlink:href="#m81b2df6855" x="593.159822" y="125.304641" style="fill: #2ca02c; stroke: #2ca02c"/>
     <use xlink:href="#m81b2df6855" x="613.150221" y="130.136687" style="fill: #2ca02c; stroke: #2ca02c"/>
     <use xlink:href="#m81b2df6855" x="653.131021" y="129.336619" style="fill: #2ca02c; stroke: #2ca02c"/>
     <use xlink:href="#m81b2df6855" x="673.12142" y="263.001692" style="fill: #2ca02c; stroke: #2ca02c"/>
    </g>
   </g>
   <g id="line2d_22">
    <path d="M 93.39983 309.46052 
L 113.390229 294.014315 
L 133.380629 121.63556 
L 153.371029 288.422818 
L 173.361428 307.59703 
L 193.351828 296.137357 
L 213.342228 332.588837 
L 233.332627 138.456856 
L 253.323027 66.312577 
L 273.313427 283.547321 
L 293.303826 281.66026 
L 313.294226 296.901271 
L 333.284626 313.205049 
L 373.265425 344.12319 
L 393.255825 298.313978 
L 433.236624 314.901513 
L 453.227024 208.372962 
L 473.217424 117.617315 
L 493.207823 207.136064 
L 513.198223 313.390974 
L 553.179022 286.409414 
L 573.169422 279.949187 
L 593.159822 292.178976 
L 613.150221 93.79761 
L 653.131021 274.424933 
L 673.12142 298.329917 
" clip-path="url(#pdd7ab80b19)" style="fill: none; stroke: #d62728; stroke-width: 2; stroke-linecap: square"/>
    <defs>
     <path id="m5e510cfe4d" d="M 0 3 
C 0.795609 3 1.55874 2.683901 2.12132 2.12132 
C 2.683901 1.55874 3 0.795609 3 0 
C 3 -0.795609 2.683901 -1.55874 2.12132 -2.12132 
C 1.55874 -2.683901 0.795609 -3 0 -3 
C -0.795609 -3 -1.55874 -2.683901 -2.12132 -2.12132 
C -2.683901 -1.55874 -3 -0.795609 -3 0 
C -3 0.795609 -2.683901 1.55874 -2.12132 2.12132 
C -1.55874 2.683901 -0.795609 3 0 3 
z
" style="stroke: #d62728"/>
    </defs>
    <g clip-path="url(#pdd7ab80b19)">
     <use xlink:href="#m5e510cfe4d" x="93.39983" y="309.46052" style="fill: #d62728; stroke: #d62728"/>
     <use xlink:href="#m5e510cfe4d" x="113.390229" y="294.014315" style="fill: #d62728; stroke: #d62728"/>
     <use xlink:href="#m5e510cfe4d" x="133.380629" y="121.63556" style="fill: #d62728; stroke: #d62728"/>
     <use xlink:href="#m5e510cfe4d" x="153.371029" y="288.422818" style="fill: #d62728; stroke: #d62728"/>
     <use xlink:href="#m5e510cfe4d" x="173.361428" y="307.59703" style="fill: #d62728; stroke: #d62728"/>
     <use xlink:href="#m5e510cfe4d" x="193.351828" y="296.137357" style="fill: #d62728; stroke: #d62728"/>
     <use xlink:href="#m5e510cfe4d" x="213.342228" y="332.588837" style="fill: #d62728; stroke: #d62728"/>
     <use xlink:href="#m5e510cfe4d" x="233.332627" y="138.456856" style="fill: #d62728; stroke: #d62728"/>
     <use xlink:href="#m5e510cfe4d" x="253.323027" y="66.312577" style="fill: #d62728; stroke: #d62728"/>
     <use xlink:href="#m5e510cfe4d" x="273.313427" y="283.547321" style="fill: #d62728; stroke: #d62728"/>
     <use xlink:href="#m5e510cfe4d" x="293.303826" y="281.66026" style="fill: #d62728; stroke: #d62728"/>
     <use xlink:href="#m5e510cfe4d" x="313.294226" y="296.901271" style="fill: #d62728; stroke: #d62728"/>
     <use xlink:href="#m5e510cfe4d" x="333.284626" y="313.205049" style="fill: #d62728; stroke: #d62728"/>
     <use xlink:href="#m5e510cfe4d" x="373.265425" y="344.12319" style="fill: #d62728; stroke: #d62728"/>
     <use xlink:href="#m5e510cfe4d" x="393.255825" y="298.313978" style="fill: #d62728; stroke: #d62728"/>
     <use xlink:href="#m5e510cfe4d" x="433.236624" y="314.901513" style="fill: #d62728; stroke: #d62728"/>
     <use xlink:href="#m5e510cfe4d" x="453.227024" y="208.372962" style="fill: #d62728; stroke: #d62728"/>
     <use xlink:href="#m5e510cfe4d" x="473.217424" y="117.617315" style="fill: #d62728; stroke: #d62728"/>
     <use xlink:href="#m5e510cfe4d" x="493.207823" y="207.136064" style="fill: #d62728; stroke: #d62728"/>
     <use xlink:href="#m5e510cfe4d" x="513.198223" y="313.390974" style="fill: #d62728; stroke: #d62728"/>
     <use xlink:href="#m5e510cfe4d" x="553.179022" y="286.409414" style="fill: #d62728; stroke: #d62728"/>
     <use xlink:href="#m5e510cfe4d" x="573.169422" y="279.949187" style="fill: #d62728; stroke: #d62728"/>
     <use xlink:href="#m5e510cfe4d" x="593.159822" y="292.178976" style="fill: #d62728; stroke: #d62728"/>
     <use xlink:href="#m5e510cfe4d" x="613.150221" y="93.79761" style="fill: #d62728; stroke: #d62728"/>
     <use xlink:href="#m5e510cfe4d" x="653.131021" y="274.424933" style="fill: #d62728; stroke: #d62728"/>
     <use xlink:href="#m5e510cfe4d" x="673.12142" y="298.329917" style="fill: #d62728; stroke: #d62728"/>
    </g>
   </g>
   <g id="line2d_23">
    <path d="M 93.39983 377.497105 
L 113.390229 387.013601 
L 133.380629 366.137566 
L 153.371029 382.326041 
L 173.361428 353.014329 
L 193.351828 376.792191 
L 213.342228 393.025678 
L 233.332627 369.58168 
L 253.323027 366.519954 
L 273.313427 376.404142 
L 293.303826 352.125109 
L 313.294226 354.006725 
L 333.284626 372.147341 
L 373.265425 416.543906 
L 393.255825 365.251985 
L 433.236624 390.812516 
L 453.227024 506.332202 
L 473.217424 317.490832 
L 493.207823 355.132603 
L 513.198223 396.66187 
L 553.179022 322.484467 
L 573.169422 364.753659 
L 593.159822 299.948817 
L 613.150221 301.488194 
L 653.131021 270.681795 
L 673.12142 298.498009 
" clip-path="url(#pdd7ab80b19)" style="fill: none; stroke: #9467bd; stroke-width: 2; stroke-linecap: square"/>
    <defs>
     <path id="m1c898b8393" d="M 0 3 
C 0.795609 3 1.55874 2.683901 2.12132 2.12132 
C 2.683901 1.55874 3 0.795609 3 0 
C 3 -0.795609 2.683901 -1.55874 2.12132 -2.12132 
C 1.55874 -2.683901 0.795609 -3 0 -3 
C -0.795609 -3 -1.55874 -2.683901 -2.12132 -2.12132 
C -2.683901 -1.55874 -3 -0.795609 -3 0 
C -3 0.795609 -2.683901 1.55874 -2.12132 2.12132 
C -1.55874 2.683901 -0.795609 3 0 3 
z
" style="stroke: #9467bd"/>
    </defs>
    <g clip-path="url(#pdd7ab80b19)">
     <use xlink:href="#m1c898b8393" x="93.39983" y="377.497105" style="fill: #9467bd; stroke: #9467bd"/>
     <use xlink:href="#m1c898b8393" x="113.390229" y="387.013601" style="fill: #9467bd; stroke: #9467bd"/>
     <use xlink:href="#m1c898b8393" x="133.380629" y="366.137566" style="fill: #9467bd; stroke: #9467bd"/>
     <use xlink:href="#m1c898b8393" x="153.371029" y="382.326041" style="fill: #9467bd; stroke: #9467bd"/>
     <use xlink:href="#m1c898b8393" x="173.361428" y="353.014329" style="fill: #9467bd; stroke: #9467bd"/>
     <use xlink:href="#m1c898b8393" x="193.351828" y="376.792191" style="fill: #9467bd; stroke: #9467bd"/>
     <use xlink:href="#m1c898b8393" x="213.342228" y="393.025678" style="fill: #9467bd; stroke: #9467bd"/>
     <use xlink:href="#m1c898b8393" x="233.332627" y="369.58168" style="fill: #9467bd; stroke: #9467bd"/>
     <use xlink:href="#m1c898b8393" x="253.323027" y="366.519954" style="fill: #9467bd; stroke: #9467bd"/>
     <use xlink:href="#m1c898b8393" x="273.313427" y="376.404142" style="fill: #9467bd; stroke: #9467bd"/>
     <use xlink:href="#m1c898b8393" x="293.303826" y="352.125109" style="fill: #9467bd; stroke: #9467bd"/>
     <use xlink:href="#m1c898b8393" x="313.294226" y="354.006725" style="fill: #9467bd; stroke: #9467bd"/>
     <use xlink:href="#m1c898b8393" x="333.284626" y="372.147341" style="fill: #9467bd; stroke: #9467bd"/>
     <use xlink:href="#m1c898b8393" x="373.265425" y="416.543906" style="fill: #9467bd; stroke: #9467bd"/>
     <use xlink:href="#m1c898b8393" x="393.255825" y="365.251985" style="fill: #9467bd; stroke: #9467bd"/>
     <use xlink:href="#m1c898b8393" x="433.236624" y="390.812516" style="fill: #9467bd; stroke: #9467bd"/>
     <use xlink:href="#m1c898b8393" x="453.227024" y="506.332202" style="fill: #9467bd; stroke: #9467bd"/>
     <use xlink:href="#m1c898b8393" x="473.217424" y="317.490832" style="fill: #9467bd; stroke: #9467bd"/>
     <use xlink:href="#m1c898b8393" x="493.207823" y="355.132603" style="fill: #9467bd; stroke: #9467bd"/>
     <use xlink:href="#m1c898b8393" x="513.198223" y="396.66187" style="fill: #9467bd; stroke: #9467bd"/>
     <use xlink:href="#m1c898b8393" x="553.179022" y="322.484467" style="fill: #9467bd; stroke: #9467bd"/>
     <use xlink:href="#m1c898b8393" x="573.169422" y="364.753659" style="fill: #9467bd; stroke: #9467bd"/>
     <use xlink:href="#m1c898b8393" x="593.159822" y="299.948817" style="fill: #9467bd; stroke: #9467bd"/>
     <use xlink:href="#m1c898b8393" x="613.150221" y="301.488194" style="fill: #9467bd; stroke: #9467bd"/>
     <use xlink:href="#m1c898b8393" x="653.131021" y="270.681795" style="fill: #9467bd; stroke: #9467bd"/>
     <use xlink:href="#m1c898b8393" x="673.12142" y="298.498009" style="fill: #9467bd; stroke: #9467bd"/>
    </g>
   </g>
   <g id="line2d_24">
    <path d="M 93.39983 274.650768 
L 113.390229 96.666611 
L 133.380629 276.859481 
L 153.371029 257.482311 
L 173.361428 215.464338 
L 193.351828 266.852194 
L 213.342228 250.594453 
L 233.332627 207.420086 
L 253.323027 242.827291 
L 273.313427 80.166321 
L 293.303826 277.984423 
L 313.294226 104.891121 
L 333.284626 124.203671 
L 373.265425 267.439832 
L 393.255825 250.251968 
L 433.236624 230.273162 
L 453.227024 275.952272 
L 473.217424 73.774918 
L 493.207823 87.604345 
L 513.198223 121.351933 
L 553.179022 91.384657 
L 573.169422 89.741917 
L 593.159822 260.968451 
L 613.150221 108.857789 
L 653.131021 92.233004 
L 673.12142 220.457906 
" clip-path="url(#pdd7ab80b19)" style="fill: none; stroke: #8c564b; stroke-width: 2; stroke-linecap: square"/>
    <defs>
     <path id="m2e17b3b960" d="M 0 3 
C 0.795609 3 1.55874 2.683901 2.12132 2.12132 
C 2.683901 1.55874 3 0.795609 3 0 
C 3 -0.795609 2.683901 -1.55874 2.12132 -2.12132 
C 1.55874 -2.683901 0.795609 -3 0 -3 
C -0.795609 -3 -1.55874 -2.683901 -2.12132 -2.12132 
C -2.683901 -1.55874 -3 -0.795609 -3 0 
C -3 0.795609 -2.683901 1.55874 -2.12132 2.12132 
C -1.55874 2.683901 -0.795609 3 0 3 
z
" style="stroke: #8c564b"/>
    </defs>
    <g clip-path="url(#pdd7ab80b19)">
     <use xlink:href="#m2e17b3b960" x="93.39983" y="274.650768" style="fill: #8c564b; stroke: #8c564b"/>
     <use xlink:href="#m2e17b3b960" x="113.390229" y="96.666611" style="fill: #8c564b; stroke: #8c564b"/>
     <use xlink:href="#m2e17b3b960" x="133.380629" y="276.859481" style="fill: #8c564b; stroke: #8c564b"/>
     <use xlink:href="#m2e17b3b960" x="153.371029" y="257.482311" style="fill: #8c564b; stroke: #8c564b"/>
     <use xlink:href="#m2e17b3b960" x="173.361428" y="215.464338" style="fill: #8c564b; stroke: #8c564b"/>
     <use xlink:href="#m2e17b3b960" x="193.351828" y="266.852194" style="fill: #8c564b; stroke: #8c564b"/>
     <use xlink:href="#m2e17b3b960" x="213.342228" y="250.594453" style="fill: #8c564b; stroke: #8c564b"/>
     <use xlink:href="#m2e17b3b960" x="233.332627" y="207.420086" style="fill: #8c564b; stroke: #8c564b"/>
     <use xlink:href="#m2e17b3b960" x="253.323027" y="242.827291" style="fill: #8c564b; stroke: #8c564b"/>
     <use xlink:href="#m2e17b3b960" x="273.313427" y="80.166321" style="fill: #8c564b; stroke: #8c564b"/>
     <use xlink:href="#m2e17b3b960" x="293.303826" y="277.984423" style="fill: #8c564b; stroke: #8c564b"/>
     <use xlink:href="#m2e17b3b960" x="313.294226" y="104.891121" style="fill: #8c564b; stroke: #8c564b"/>
     <use xlink:href="#m2e17b3b960" x="333.284626" y="124.203671" style="fill: #8c564b; stroke: #8c564b"/>
     <use xlink:href="#m2e17b3b960" x="373.265425" y="267.439832" style="fill: #8c564b; stroke: #8c564b"/>
     <use xlink:href="#m2e17b3b960" x="393.255825" y="250.251968" style="fill: #8c564b; stroke: #8c564b"/>
     <use xlink:href="#m2e17b3b960" x="433.236624" y="230.273162" style="fill: #8c564b; stroke: #8c564b"/>
     <use xlink:href="#m2e17b3b960" x="453.227024" y="275.952272" style="fill: #8c564b; stroke: #8c564b"/>
     <use xlink:href="#m2e17b3b960" x="473.217424" y="73.774918" style="fill: #8c564b; stroke: #8c564b"/>
     <use xlink:href="#m2e17b3b960" x="493.207823" y="87.604345" style="fill: #8c564b; stroke: #8c564b"/>
     <use xlink:href="#m2e17b3b960" x="513.198223" y="121.351933" style="fill: #8c564b; stroke: #8c564b"/>
     <use xlink:href="#m2e17b3b960" x="553.179022" y="91.384657" style="fill: #8c564b; stroke: #8c564b"/>
     <use xlink:href="#m2e17b3b960" x="573.169422" y="89.741917" style="fill: #8c564b; stroke: #8c564b"/>
     <use xlink:href="#m2e17b3b960" x="593.159822" y="260.968451" style="fill: #8c564b; stroke: #8c564b"/>
     <use xlink:href="#m2e17b3b960" x="613.150221" y="108.857789" style="fill: #8c564b; stroke: #8c564b"/>
     <use xlink:href="#m2e17b3b960" x="653.131021" y="92.233004" style="fill: #8c564b; stroke: #8c564b"/>
     <use xlink:href="#m2e17b3b960" x="673.12142" y="220.457906" style="fill: #8c564b; stroke: #8c564b"/>
    </g>
   </g>
   <g id="patch_3">
    <path d="M 64.41375 529.308125 
L 64.41375 23.837812 
" style="fill: none; stroke: #000000; stroke-width: 0.8; stroke-linejoin: miter; stroke-linecap: square"/>
   </g>
   <g id="patch_4">
    <path d="M 702.1075 529.308125 
L 702.1075 23.837812 
" style="fill: none; stroke: #000000; stroke-width: 0.8; stroke-linejoin: miter; stroke-linecap: square"/>
   </g>
   <g id="patch_5">
    <path d="M 64.41375 529.308125 
L 702.1075 529.308125 
" style="fill: none; stroke: #000000; stroke-width: 0.8; stroke-linejoin: miter; stroke-linecap: square"/>
   </g>
   <g id="patch_6">
    <path d="M 64.41375 23.837812 
L 702.1075 23.837812 
" style="fill: none; stroke: #000000; stroke-width: 0.8; stroke-linejoin: miter; stroke-linecap: square"/>
   </g>
   <g id="text_12">
    <text style="font: 700 14px 'DejaVu Sans', 'Bitstream Vera Sans', 'Computer Modern Sans Serif', 'Lucida Grande', 'Verdana', 'Geneva', 'Lucid', 'Arial', 'Helvetica', 'Avant Garde', sans-serif; text-anchor: middle" x="383.260625" y="17.837813" transform="rotate(-0 383.260625 17.837813)">Tasksubmission - Performance Trend</text>
   </g>
   <g id="legend_1">
    <g id="patch_7">
     <path d="M 740.992188 119.906563 
L 846.004688 119.906563 
Q 848.004688 119.906563 848.004688 117.906563 
L 848.004688 30.837813 
Q 848.004688 28.837813 846.004688 28.837813 
L 740.992188 28.837813 
Q 738.992188 28.837813 738.992188 30.837813 
L 738.992188 117.906563 
Q 738.992188 119.906563 740.992188 119.906563 
z
" style="fill: #ffffff; opacity: 0.8; stroke: #cccccc; stroke-linejoin: miter"/>
    </g>
    <g id="line2d_25">
     <path d="M 742.992188 36.93625 
L 752.992188 36.93625 
L 762.992188 36.93625 
" style="fill: none; stroke: #1f77b4; stroke-width: 2; stroke-linecap: square"/>
     <g>
      <use xlink:href="#mb3629c0ca1" x="752.992188" y="36.93625" style="fill: #1f77b4; stroke: #1f77b4"/>
     </g>
    </g>
    <g id="text_13">
     <text style="font: 10px 'DejaVu Sans', 'Bitstream Vera Sans', 'Computer Modern Sans Serif', 'Lucida Grande', 'Verdana', 'Geneva', 'Lucid', 'Arial', 'Helvetica', 'Avant Garde', sans-serif; text-anchor: start" x="770.992188" y="40.43625" transform="rotate(-0 770.992188 40.43625)">gcc-14.2 - V1</text>
    </g>
    <g id="line2d_26">
     <path d="M 742.992188 51.614375 
L 752.992188 51.614375 
L 762.992188 51.614375 
" style="fill: none; stroke: #ff7f0e; stroke-width: 2; stroke-linecap: square"/>
     <g>
      <use xlink:href="#mbb323c1d4c" x="752.992188" y="51.614375" style="fill: #ff7f0e; stroke: #ff7f0e"/>
     </g>
    </g>
    <g id="text_14">
     <text style="font: 10px 'DejaVu Sans', 'Bitstream Vera Sans', 'Computer Modern Sans Serif', 'Lucida Grande', 'Verdana', 'Geneva', 'Lucid', 'Arial', 'Helvetica', 'Avant Garde', sans-serif; text-anchor: start" x="770.992188" y="55.114375" transform="rotate(-0 770.992188 55.114375)">gcc-14.2 - V2</text>
    </g>
    <g id="line2d_27">
     <path d="M 742.992188 66.2925 
L 752.992188 66.2925 
L 762.992188 66.2925 
" style="fill: none; stroke: #2ca02c; stroke-width: 2; stroke-linecap: square"/>
     <g>
      <use xlink:href="#m81b2df6855" x="752.992188" y="66.2925" style="fill: #2ca02c; stroke: #2ca02c"/>
     </g>
    </g>
    <g id="text_15">
     <text style="font: 10px 'DejaVu Sans', 'Bitstream Vera Sans', 'Computer Modern Sans Serif', 'Lucida Grande', 'Verdana', 'Geneva', 'Lucid', 'Arial', 'Helvetica', 'Avant Garde', sans-serif; text-anchor: start" x="770.992188" y="69.7925" transform="rotate(-0 770.992188 69.7925)">gcc-14.2 - TBB</text>
    </g>
    <g id="line2d_28">
     <path d="M 742.992188 80.970625 
L 752.992188 80.970625 
L 762.992188 80.970625 
" style="fill: none; stroke: #d62728; stroke-width: 2; stroke-linecap: square"/>
     <g>
      <use xlink:href="#m5e510cfe4d" x="752.992188" y="80.970625" style="fill: #d62728; stroke: #d62728"/>
     </g>
    </g>
    <g id="text_16">
     <text style="font: 10px 'DejaVu Sans', 'Bitstream Vera Sans', 'Computer Modern Sans Serif', 'Lucida Grande', 'Verdana', 'Geneva', 'Lucid', 'Arial', 'Helvetica', 'Avant Garde', sans-serif; text-anchor: start" x="770.992188" y="84.470625" transform="rotate(-0 770.992188 84.470625)">gcc-4.2 - V1</text>
    </g>
    <g id="line2d_29">
     <path d="M 742.992188 95.64875 
L 752.992188 95.64875 
L 762.992188 95.64875 
" style="fill: none; stroke: #9467bd; stroke-width: 2; stroke-linecap: square"/>
     <g>
      <use xlink:href="#m1c898b8393" x="752.992188" y="95.64875" style="fill: #9467bd; stroke: #9467bd"/>
     </g>
    </g>
    <g id="text_17">
     <text style="font: 10px 'DejaVu Sans', 'Bitstream Vera Sans', 'Computer Modern Sans Serif', 'Lucida Grande', 'Verdana', 'Geneva', 'Lucid', 'Arial', 'Helvetica', 'Avant Garde', sans-serif; text-anchor: start" x="770.992188" y="99.14875" transform="rotate(-0 770.992188 99.14875)">gcc-4.2 - V2</text>
    </g>
    <g id="line2d_30">
     <path d="M 742.992188 110.326875 
L 752.992188 110.326875 
L 762.992188 110.326875 
" style="fill: none; stroke: #8c564b; stroke-width: 2; stroke-linecap: square"/>
     <g>
      <use xlink:href="#m2e17b3b960" x="752.992188" y="110.326875" style="fill: #8c564b; stroke: #8c564b"/>
     </g>
    </g>
    <g id="text_18">
     <text style="font: 10px 'DejaVu Sans', 'Bitstream Vera Sans', 'Computer Modern Sans Serif', 'Lucida Grande', 'Verdana', 'Geneva', 'Lucid', 'Arial', 'Helvetica', 'Avant Garde', sans-serif; text-anchor: start" x="770.992188" y="113.826875" transform="rotate(-0 770.992188 113.826875)">gcc-4.2 - TBB</text>
    </g>
   </g>
  </g>
 </g>
 <defs>
  <clipPath id="pdd7ab80b19">
   <rect x="64.41375" y="23.837813" width="637.69375" height="505.470313"/>
  </clipPath>
 </defs>
</svg>
