<?xml version="1.0" encoding="utf-8" standalone="no"?>
<!DOCTYPE svg PUBLIC "-//W3C//DTD SVG 1.1//EN"
  "http://www.w3.org/Graphics/SVG/1.1/DTD/svg11.dtd">
<svg xmlns:xlink="http://www.w3.org/1999/xlink" width="856.684141pt" height="568.8pt" viewBox="0 0 856.684141 568.8" xmlns="http://www.w3.org/2000/svg" version="1.1">
 <metadata>
  <rdf:RDF xmlns:dc="http://purl.org/dc/elements/1.1/" xmlns:cc="http://creativecommons.org/ns#" xmlns:rdf="http://www.w3.org/1999/02/22-rdf-syntax-ns#">
   <cc:Work>
    <dc:type rdf:resource="http://purl.org/dc/dcmitype/StillImage"/>
    <dc:date>2026-06-12T08:28:52.756361</dc:date>
    <dc:format>image/svg+xml</dc:format>
    <dc:creator>
     <cc:Agent>
      <dc:title>Matplotlib v3.9.4, https://matplotlib.org/</dc:title>
     </cc:Agent>
    </dc:creator>
   </cc:Work>
  </rdf:RDF>
 </metadata>
 <defs>
  <style type="text/css">*{stroke-linejoin: round; stroke-linecap: butt}</style>
 </defs>
 <g id="figure_1">
  <g id="patch_1">
   <path d="M 0 568.8 
L 856.684141 568.8 
L 856.684141 0 
L 0 0 
z
" style="fill: #ffffff"/>
  </g>
  <g id="axes_1">
   <g id="patch_2">
    <path d="M 64.41375 529.308125 
L 731.696562 529.308125 
L 731.696562 23.837812 
L 64.41375 23.837812 
z
" style="fill: #ffffff"/>
   </g>
   <g id="matplotlib.axis_1">
    <g id="xtick_1">
     <g id="line2d_1">
      <path d="M 84.463079 529.308125 
L 84.463079 23.837812 
" clip-path="url(#p62c457445e)" style="fill: none; stroke: #b0b0b0; stroke-opacity: 0.3; stroke-width: 0.8; stroke-linecap: square"/>
     </g>
     <g id="line2d_2">
      <defs>
       <path id="m8d314fc64f" d="M 0 0 
L 0 3.5 
" style="stroke: #000000; stroke-width: 0.8"/>
      </defs>
      <g>
       <use xlink:href="#m8d314fc64f" x="84.463079" y="529.308125" style="stroke: #000000; stroke-width: 0.8"/>
      </g>
     </g>
     <g id="text_1">
      <text style="font: 10px 'DejaVu Sans', 'Bitstream Vera Sans', 'Computer Modern Sans Serif', 'Lucida Grande', 'Verdana', 'Geneva', 'Lucid', 'Arial', 'Helvetica', 'Avant Garde', sans-serif; text-anchor: middle" x="84.463079" y="543.906563" transform="rotate(-0 84.463079 543.906563)">70</text>
     </g>
    </g>
    <g id="xtick_2">
     <g id="line2d_3">
      <path d="M 187.280154 529.308125 
L 187.280154 23.837812 
" clip-path="url(#p62c457445e)" style="fill: none; stroke: #b0b0b0; stroke-opacity: 0.3; stroke-width: 0.8; stroke-linecap: square"/>
     </g>
     <g id="line2d_4">
      <g>
       <use xlink:href="#m8d314fc64f" x="187.280154" y="529.308125" style="stroke: #000000; stroke-width: 0.8"/>
      </g>
     </g>
     <g id="text_2">
      <text style="font: 10px 'DejaVu Sans', 'Bitstream Vera Sans', 'Computer Modern Sans Serif', 'Lucida Grande', 'Verdana', 'Geneva', 'Lucid', 'Arial', 'Helvetica', 'Avant Garde', sans-serif; text-anchor: middle" x="187.280154" y="543.906563" transform="rotate(-0 187.280154 543.906563)">80</text>
     </g>
    </g>
    <g id="xtick_3">
     <g id="line2d_5">
      <path d="M 290.097228 529.308125 
L 290.097228 23.837812 
" clip-path="url(#p62c457445e)" style="fill: none; stroke: #b0b0b0; stroke-opacity: 0.3; stroke-width: 0.8; stroke-linecap: square"/>
     </g>
     <g id="line2d_6">
      <g>
       <use xlink:href="#m8d314fc64f" x="290.097228" y="529.308125" style="stroke: #000000; stroke-width: 0.8"/>
      </g>
     </g>
     <g id="text_3">
      <text style="font: 10px 'DejaVu Sans', 'Bitstream Vera Sans', 'Computer Modern Sans Serif', 'Lucida Grande', 'Verdana', 'Geneva', 'Lucid', 'Arial', 'Helvetica', 'Avant Garde', sans-serif; text-anchor: middle" x="290.097228" y="543.906563" transform="rotate(-0 290.097228 543.906563)">90</text>
     </g>
    </g>
    <g id="xtick_4">
     <g id="line2d_7">
      <path d="M 392.914303 529.308125 
L 392.914303 23.837812 
" clip-path="url(#p62c457445e)" style="fill: none; stroke: #b0b0b0; stroke-opacity: 0.3; stroke-width: 0.8; stroke-linecap: square"/>
     </g>
     <g id="line2d_8">
      <g>
       <use xlink:href="#m8d314fc64f" x="392.914303" y="529.308125" style="stroke: #000000; stroke-width: 0.8"/>
      </g>
     </g>
     <g id="text_4">
      <text style="font: 10px 'DejaVu Sans', 'Bitstream Vera Sans', 'Computer Modern Sans Serif', 'Lucida Grande', 'Verdana', 'Geneva', 'Lucid', 'Arial', 'Helvetica', 'Avant Garde', sans-serif; text-anchor: middle" x="392.914303" y="543.906563" transform="rotate(-0 392.914303 543.906563)">100</text>
     </g>
    </g>
    <g id="xtick_5">
     <g id="line2d_9">
      <path d="M 495.731377 529.308125 
L 495.731377 23.837812 
" clip-path="url(#p62c457445e)" style="fill: none; stroke: #b0b0b0; stroke-opacity: 0.3; stroke-width: 0.8; stroke-linecap: square"/>
     </g>
     <g id="line2d_10">
      <g>
       <use xlink:href="#m8d314fc64f" x="495.731377" y="529.308125" style="stroke: #000000; stroke-width: 0.8"/>
      </g>
     </g>
     <g id="text_5">
      <text style="font: 10px 'DejaVu Sans', 'Bitstream Vera Sans', 'Computer Modern Sans Serif', 'Lucida Grande', 'Verdana', 'Geneva', 'Lucid', 'Arial', 'Helvetica', 'Avant Garde', sans-serif; text-anchor: middle" x="495.731377" y="543.906563" transform="rotate(-0 495.731377 543.906563)">110</text>
     </g>
    </g>
    <g id="xtick_6">
     <g id="line2d_11">
      <path d="M 598.548451 529.308125 
L 598.548451 23.837812 
" clip-path="url(#p62c457445e)" style="fill: none; stroke: #b0b0b0; stroke-opacity: 0.3; stroke-width: 0.8; stroke-linecap: square"/>
     </g>
     <g id="line2d_12">
      <g>
       <use xlink:href="#m8d314fc64f" x="598.548451" y="529.308125" style="stroke: #000000; stroke-width: 0.8"/>
      </g>
     </g>
     <g id="text_6">
      <text style="font: 10px 'DejaVu Sans', 'Bitstream Vera Sans', 'Computer Modern Sans Serif', 'Lucida Grande', 'Verdana', 'Geneva', 'Lucid', 'Arial', 'Helvetica', 'Avant Garde', sans-serif; text-anchor: middle" x="598.548451" y="543.906563" transform="rotate(-0 598.548451 543.906563)">120</text>
     </g>
    </g>
    <g id="xtick_7">
     <g id="line2d_13">
      <path d="M 701.365526 529.308125 
L 701.365526 23.837812 
" clip-path="url(#p62c457445e)" style="fill: none; stroke: #b0b0b0; stroke-opacity: 0.3; stroke-width: 0.8; stroke-linecap: square"/>
     </g>
     <g id="line2d_14">
      <g>
       <use xlink:href="#m8d314fc64f" x="701.365526" y="529.308125" style="stroke: #000000; stroke-width: 0.8"/>
      </g>
     </g>
     <g id="text_7">
      <text style="font: 10px 'DejaVu Sans', 'Bitstream Vera Sans', 'Computer Modern Sans Serif', 'Lucida Grande', 'Verdana', 'Geneva', 'Lucid', 'Arial', 'Helvetica', 'Avant Garde', sans-serif; text-anchor: middle" x="701.365526" y="543.906563" transform="rotate(-0 701.365526 543.906563)">130</text>
     </g>
    </g>
    <g id="text_8">
     <text style="font: 12px 'DejaVu Sans', 'Bitstream Vera Sans', 'Computer Modern Sans Serif', 'Lucida Grande', 'Verdana', 'Geneva', 'Lucid', 'Arial', 'Helvetica', 'Avant Garde', sans-serif; text-anchor: middle" x="398.055156" y="559.104375" transform="rotate(-0 398.055156 559.104375)">Build Number</text>
    </g>
   </g>
   <g id="matplotlib.axis_2">
    <g id="ytick_1">
     <g id="line2d_15">
      <defs>
       <path id="mdf847527a5" d="M 0 0 
L -2 0 
" style="stroke: #000000; stroke-width: 0.6"/>
      </defs>
      <g>
       <use xlink:href="#mdf847527a5" x="64.41375" y="422.659884" style="stroke: #000000; stroke-width: 0.6"/>
      </g>
     </g>
     <g id="text_9">
      <!-- $\mathdefault{4\times10^{0}}$ -->
      <g transform="translate(22.81375 426.459103)">
       <text>
        <tspan style="font: 10px 'DejaVu Sans'" x="0 8.310547 18.637695 25" y="-0.9765625">4×10</tspan>
        <tspan style="font: 7px 'DejaVu Sans'" x="31.458008" y="-4.8046875">0</tspan>
       </text>
      </g>
     </g>
    </g>
    <g id="ytick_2">
     <g id="line2d_16">
      <g>
       <use xlink:href="#mdf847527a5" x="64.41375" y="224.687203" style="stroke: #000000; stroke-width: 0.6"/>
      </g>
     </g>
     <g id="text_10">
      <!-- $\mathdefault{5\times10^{0}}$ -->
      <g transform="translate(22.81375 228.486422)">
       <text>
        <tspan style="font: 10px 'DejaVu Sans'" x="0 8.310547 18.637695 25" y="-0.9765625">5×10</tspan>
        <tspan style="font: 7px 'DejaVu Sans'" x="31.458008" y="-4.8046875">0</tspan>
       </text>
      </g>
     </g>
    </g>
    <g id="ytick_3">
     <g id="line2d_17">
      <g>
       <use xlink:href="#mdf847527a5" x="64.41375" y="62.931745" style="stroke: #000000; stroke-width: 0.6"/>
      </g>
     </g>
     <g id="text_11">
      <!-- $\mathdefault{6\times10^{0}}$ -->
      <g transform="translate(22.81375 66.730964)">
       <text>
        <tspan style="font: 10px 'DejaVu Sans'" x="0 8.310547 18.637695 25" y="-0.9765625">6×10</tspan>
        <tspan style="font: 7px 'DejaVu Sans'" x="31.458008" y="-4.8046875">0</tspan>
       </text>
      </g>
     </g>
    </g>
    <g id="text_12">
     <text style="font: 12px 'DejaVu Sans', 'Bitstream Vera Sans', 'Computer Modern Sans Serif', 'Lucida Grande', 'Verdana', 'Geneva', 'Lucid', 'Arial', 'Helvetica', 'Avant Garde', sans-serif; text-anchor: middle" x="16.318125" y="276.572969" transform="rotate(-90 16.318125 276.572969)">Median Elapsed Time (nanoseconds)</text>
    </g>
   </g>
   <g id="line2d_18">
    <path d="M 94.744787 377.263444 
L 105.026494 377.263444 
L 115.308202 377.263444 
L 125.589909 377.263444 
L 135.871617 377.263444 
L 146.153324 377.263444 
L 156.435032 377.263444 
L 166.716739 377.263444 
L 176.998446 377.263444 
L 187.280154 377.263444 
L 197.561861 377.263444 
L 207.843569 379.373311 
L 218.125276 377.263444 
L 238.688691 379.373311 
L 248.970398 379.373311 
L 269.533813 377.263444 
L 279.815521 377.263444 
L 290.097228 377.263444 
L 300.378936 398.591364 
L 310.660643 377.263444 
L 331.224058 377.263444 
L 341.505765 377.263444 
L 351.787473 377.263444 
L 362.06918 377.263444 
L 382.632595 379.373311 
L 392.914303 379.373311 
L 403.19601 377.263444 
L 413.477717 379.373311 
L 423.759425 379.373311 
L 434.041132 377.263444 
L 444.32284 379.373311 
L 454.604547 379.373311 
L 475.167962 442.849855 
L 485.449669 442.849855 
L 495.731377 445.121812 
L 516.294792 442.849855 
L 547.139914 442.849855 
L 557.421621 445.121812 
L 567.703329 445.121812 
L 577.985036 442.849855 
L 588.266744 442.849855 
L 598.548451 442.849855 
L 608.830159 442.849855 
L 619.111866 465.835564 
L 629.393574 445.121812 
L 639.675281 445.121812 
L 660.238696 445.121812 
L 670.520403 374.167627 
L 680.802111 442.849855 
L 691.083818 358.497083 
L 701.365526 356.436226 
" clip-path="url(#p62c457445e)" style="fill: none; stroke: #1f77b4; stroke-width: 2; stroke-linecap: square"/>
    <defs>
     <path id="m6825052477" d="M 0 3 
C 0.795609 3 1.55874 2.683901 2.12132 2.12132 
C 2.683901 1.55874 3 0.795609 3 0 
C 3 -0.795609 2.683901 -1.55874 2.12132 -2.12132 
C 1.55874 -2.683901 0.795609 -3 0 -3 
C -0.795609 -3 -1.55874 -2.683901 -2.12132 -2.12132 
C -2.683901 -1.55874 -3 -0.795609 -3 0 
C -3 0.795609 -2.683901 1.55874 -2.12132 2.12132 
C -1.55874 2.683901 -0.795609 3 0 3 
z
" style="stroke: #1f77b4"/>
    </defs>
    <g clip-path="url(#p62c457445e)">
     <use xlink:href="#m6825052477" x="94.744787" y="377.263444" style="fill: #1f77b4; stroke: #1f77b4"/>
     <use xlink:href="#m6825052477" x="105.026494" y="377.263444" style="fill: #1f77b4; stroke: #1f77b4"/>
     <use xlink:href="#m6825052477" x="115.308202" y="377.263444" style="fill: #1f77b4; stroke: #1f77b4"/>
     <use xlink:href="#m6825052477" x="125.589909" y="377.263444" style="fill: #1f77b4; stroke: #1f77b4"/>
     <use xlink:href="#m6825052477" x="135.871617" y="377.263444" style="fill: #1f77b4; stroke: #1f77b4"/>
     <use xlink:href="#m6825052477" x="146.153324" y="377.263444" style="fill: #1f77b4; stroke: #1f77b4"/>
     <use xlink:href="#m6825052477" x="156.435032" y="377.263444" style="fill: #1f77b4; stroke: #1f77b4"/>
     <use xlink:href="#m6825052477" x="166.716739" y="377.263444" style="fill: #1f77b4; stroke: #1f77b4"/>
     <use xlink:href="#m6825052477" x="176.998446" y="377.263444" style="fill: #1f77b4; stroke: #1f77b4"/>
     <use xlink:href="#m6825052477" x="187.280154" y="377.263444" style="fill: #1f77b4; stroke: #1f77b4"/>
     <use xlink:href="#m6825052477" x="197.561861" y="377.263444" style="fill: #1f77b4; stroke: #1f77b4"/>
     <use xlink:href="#m6825052477" x="207.843569" y="379.373311" style="fill: #1f77b4; stroke: #1f77b4"/>
     <use xlink:href="#m6825052477" x="218.125276" y="377.263444" style="fill: #1f77b4; stroke: #1f77b4"/>
     <use xlink:href="#m6825052477" x="238.688691" y="379.373311" style="fill: #1f77b4; stroke: #1f77b4"/>
     <use xlink:href="#m6825052477" x="248.970398" y="379.373311" style="fill: #1f77b4; stroke: #1f77b4"/>
     <use xlink:href="#m6825052477" x="269.533813" y="377.263444" style="fill: #1f77b4; stroke: #1f77b4"/>
     <use xlink:href="#m6825052477" x="279.815521" y="377.263444" style="fill: #1f77b4; stroke: #1f77b4"/>
     <use xlink:href="#m6825052477" x="290.097228" y="377.263444" style="fill: #1f77b4; stroke: #1f77b4"/>
     <use xlink:href="#m6825052477" x="300.378936" y="398.591364" style="fill: #1f77b4; stroke: #1f77b4"/>
     <use xlink:href="#m6825052477" x="310.660643" y="377.263444" style="fill: #1f77b4; stroke: #1f77b4"/>
     <use xlink:href="#m6825052477" x="331.224058" y="377.263444" style="fill: #1f77b4; stroke: #1f77b4"/>
     <use xlink:href="#m6825052477" x="341.505765" y="377.263444" style="fill: #1f77b4; stroke: #1f77b4"/>
     <use xlink:href="#m6825052477" x="351.787473" y="377.263444" style="fill: #1f77b4; stroke: #1f77b4"/>
     <use xlink:href="#m6825052477" x="362.06918" y="377.263444" style="fill: #1f77b4; stroke: #1f77b4"/>
     <use xlink:href="#m6825052477" x="382.632595" y="379.373311" style="fill: #1f77b4; stroke: #1f77b4"/>
     <use xlink:href="#m6825052477" x="392.914303" y="379.373311" style="fill: #1f77b4; stroke: #1f77b4"/>
     <use xlink:href="#m6825052477" x="403.19601" y="377.263444" style="fill: #1f77b4; stroke: #1f77b4"/>
     <use xlink:href="#m6825052477" x="413.477717" y="379.373311" style="fill: #1f77b4; stroke: #1f77b4"/>
     <use xlink:href="#m6825052477" x="423.759425" y="379.373311" style="fill: #1f77b4; stroke: #1f77b4"/>
     <use xlink:href="#m6825052477" x="434.041132" y="377.263444" style="fill: #1f77b4; stroke: #1f77b4"/>
     <use xlink:href="#m6825052477" x="444.32284" y="379.373311" style="fill: #1f77b4; stroke: #1f77b4"/>
     <use xlink:href="#m6825052477" x="454.604547" y="379.373311" style="fill: #1f77b4; stroke: #1f77b4"/>
     <use xlink:href="#m6825052477" x="475.167962" y="442.849855" style="fill: #1f77b4; stroke: #1f77b4"/>
     <use xlink:href="#m6825052477" x="485.449669" y="442.849855" style="fill: #1f77b4; stroke: #1f77b4"/>
     <use xlink:href="#m6825052477" x="495.731377" y="445.121812" style="fill: #1f77b4; stroke: #1f77b4"/>
     <use xlink:href="#m6825052477" x="516.294792" y="442.849855" style="fill: #1f77b4; stroke: #1f77b4"/>
     <use xlink:href="#m6825052477" x="547.139914" y="442.849855" style="fill: #1f77b4; stroke: #1f77b4"/>
     <use xlink:href="#m6825052477" x="557.421621" y="445.121812" style="fill: #1f77b4; stroke: #1f77b4"/>
     <use xlink:href="#m6825052477" x="567.703329" y="445.121812" style="fill: #1f77b4; stroke: #1f77b4"/>
     <use xlink:href="#m6825052477" x="577.985036" y="442.849855" style="fill: #1f77b4; stroke: #1f77b4"/>
     <use xlink:href="#m6825052477" x="588.266744" y="442.849855" style="fill: #1f77b4; stroke: #1f77b4"/>
     <use xlink:href="#m6825052477" x="598.548451" y="442.849855" style="fill: #1f77b4; stroke: #1f77b4"/>
     <use xlink:href="#m6825052477" x="608.830159" y="442.849855" style="fill: #1f77b4; stroke: #1f77b4"/>
     <use xlink:href="#m6825052477" x="619.111866" y="465.835564" style="fill: #1f77b4; stroke: #1f77b4"/>
     <use xlink:href="#m6825052477" x="629.393574" y="445.121812" style="fill: #1f77b4; stroke: #1f77b4"/>
     <use xlink:href="#m6825052477" x="639.675281" y="445.121812" style="fill: #1f77b4; stroke: #1f77b4"/>
     <use xlink:href="#m6825052477" x="660.238696" y="445.121812" style="fill: #1f77b4; stroke: #1f77b4"/>
     <use xlink:href="#m6825052477" x="670.520403" y="374.167627" style="fill: #1f77b4; stroke: #1f77b4"/>
     <use xlink:href="#m6825052477" x="680.802111" y="442.849855" style="fill: #1f77b4; stroke: #1f77b4"/>
     <use xlink:href="#m6825052477" x="691.083818" y="358.497083" style="fill: #1f77b4; stroke: #1f77b4"/>
     <use xlink:href="#m6825052477" x="701.365526" y="356.436226" style="fill: #1f77b4; stroke: #1f77b4"/>
    </g>
   </g>
   <g id="line2d_19">
    <path d="M 94.744787 442.849855 
L 105.026494 356.436226 
L 115.308202 358.497083 
L 125.589909 377.263444 
L 135.871617 358.497083 
L 146.153324 377.263444 
L 156.435032 377.263444 
L 166.716739 358.497083 
L 176.998446 377.263444 
L 187.280154 356.436226 
L 197.561861 377.263444 
L 207.843569 358.497083 
L 218.125276 356.436226 
L 228.406984 356.436226 
L 238.688691 377.263444 
L 248.970398 358.497083 
L 269.533813 358.497083 
L 279.815521 358.497083 
L 290.097228 377.263444 
L 300.378936 356.436226 
L 310.660643 358.497083 
L 320.94235 358.497083 
L 331.224058 358.497083 
L 341.505765 356.436226 
L 351.787473 358.497083 
L 362.06918 46.813736 
L 382.632595 377.263444 
L 392.914303 377.263444 
L 403.19601 358.497083 
L 413.477717 356.436226 
L 423.759425 356.436226 
L 434.041132 356.436226 
L 444.32284 358.497083 
L 454.604547 356.436226 
L 475.167962 356.436226 
L 485.449669 377.263444 
L 495.731377 358.497083 
L 506.013084 358.497083 
L 516.294792 358.497083 
L 536.858207 377.263444 
L 547.139914 356.436226 
L 557.421621 356.436226 
L 567.703329 356.436226 
L 577.985036 356.436226 
L 588.266744 356.436226 
L 598.548451 358.497083 
L 608.830159 358.497083 
L 619.111866 506.332202 
L 629.393574 356.436226 
L 639.675281 377.263444 
L 660.238696 316.193556 
L 670.520403 316.193556 
L 680.802111 318.162922 
L 691.083818 496.635944 
" clip-path="url(#p62c457445e)" style="fill: none; stroke: #ff7f0e; stroke-width: 2; stroke-linecap: square"/>
    <defs>
     <path id="m5e6bf53a26" d="M 0 3 
C 0.795609 3 1.55874 2.683901 2.12132 2.12132 
C 2.683901 1.55874 3 0.795609 3 0 
C 3 -0.795609 2.683901 -1.55874 2.12132 -2.12132 
C 1.55874 -2.683901 0.795609 -3 0 -3 
C -0.795609 -3 -1.55874 -2.683901 -2.12132 -2.12132 
C -2.683901 -1.55874 -3 -0.795609 -3 0 
C -3 0.795609 -2.683901 1.55874 -2.12132 2.12132 
C -1.55874 2.683901 -0.795609 3 0 3 
z
" style="stroke: #ff7f0e"/>
    </defs>
    <g clip-path="url(#p62c457445e)">
     <use xlink:href="#m5e6bf53a26" x="94.744787" y="442.849855" style="fill: #ff7f0e; stroke: #ff7f0e"/>
     <use xlink:href="#m5e6bf53a26" x="105.026494" y="356.436226" style="fill: #ff7f0e; stroke: #ff7f0e"/>
     <use xlink:href="#m5e6bf53a26" x="115.308202" y="358.497083" style="fill: #ff7f0e; stroke: #ff7f0e"/>
     <use xlink:href="#m5e6bf53a26" x="125.589909" y="377.263444" style="fill: #ff7f0e; stroke: #ff7f0e"/>
     <use xlink:href="#m5e6bf53a26" x="135.871617" y="358.497083" style="fill: #ff7f0e; stroke: #ff7f0e"/>
     <use xlink:href="#m5e6bf53a26" x="146.153324" y="377.263444" style="fill: #ff7f0e; stroke: #ff7f0e"/>
     <use xlink:href="#m5e6bf53a26" x="156.435032" y="377.263444" style="fill: #ff7f0e; stroke: #ff7f0e"/>
     <use xlink:href="#m5e6bf53a26" x="166.716739" y="358.497083" style="fill: #ff7f0e; stroke: #ff7f0e"/>
     <use xlink:href="#m5e6bf53a26" x="176.998446" y="377.263444" style="fill: #ff7f0e; stroke: #ff7f0e"/>
     <use xlink:href="#m5e6bf53a26" x="187.280154" y="356.436226" style="fill: #ff7f0e; stroke: #ff7f0e"/>
     <use xlink:href="#m5e6bf53a26" x="197.561861" y="377.263444" style="fill: #ff7f0e; stroke: #ff7f0e"/>
     <use xlink:href="#m5e6bf53a26" x="207.843569" y="358.497083" style="fill: #ff7f0e; stroke: #ff7f0e"/>
     <use xlink:href="#m5e6bf53a26" x="218.125276" y="356.436226" style="fill: #ff7f0e; stroke: #ff7f0e"/>
     <use xlink:href="#m5e6bf53a26" x="228.406984" y="356.436226" style="fill: #ff7f0e; stroke: #ff7f0e"/>
     <use xlink:href="#m5e6bf53a26" x="238.688691" y="377.263444" style="fill: #ff7f0e; stroke: #ff7f0e"/>
     <use xlink:href="#m5e6bf53a26" x="248.970398" y="358.497083" style="fill: #ff7f0e; stroke: #ff7f0e"/>
     <use xlink:href="#m5e6bf53a26" x="269.533813" y="358.497083" style="fill: #ff7f0e; stroke: #ff7f0e"/>
     <use xlink:href="#m5e6bf53a26" x="279.815521" y="358.497083" style="fill: #ff7f0e; stroke: #ff7f0e"/>
     <use xlink:href="#m5e6bf53a26" x="290.097228" y="377.263444" style="fill: #ff7f0e; stroke: #ff7f0e"/>
     <use xlink:href="#m5e6bf53a26" x="300.378936" y="356.436226" style="fill: #ff7f0e; stroke: #ff7f0e"/>
     <use xlink:href="#m5e6bf53a26" x="310.660643" y="358.497083" style="fill: #ff7f0e; stroke: #ff7f0e"/>
     <use xlink:href="#m5e6bf53a26" x="320.94235" y="358.497083" style="fill: #ff7f0e; stroke: #ff7f0e"/>
     <use xlink:href="#m5e6bf53a26" x="331.224058" y="358.497083" style="fill: #ff7f0e; stroke: #ff7f0e"/>
     <use xlink:href="#m5e6bf53a26" x="341.505765" y="356.436226" style="fill: #ff7f0e; stroke: #ff7f0e"/>
     <use xlink:href="#m5e6bf53a26" x="351.787473" y="358.497083" style="fill: #ff7f0e; stroke: #ff7f0e"/>
     <use xlink:href="#m5e6bf53a26" x="362.06918" y="46.813736" style="fill: #ff7f0e; stroke: #ff7f0e"/>
     <use xlink:href="#m5e6bf53a26" x="382.632595" y="377.263444" style="fill: #ff7f0e; stroke: #ff7f0e"/>
     <use xlink:href="#m5e6bf53a26" x="392.914303" y="377.263444" style="fill: #ff7f0e; stroke: #ff7f0e"/>
     <use xlink:href="#m5e6bf53a26" x="403.19601" y="358.497083" style="fill: #ff7f0e; stroke: #ff7f0e"/>
     <use xlink:href="#m5e6bf53a26" x="413.477717" y="356.436226" style="fill: #ff7f0e; stroke: #ff7f0e"/>
     <use xlink:href="#m5e6bf53a26" x="423.759425" y="356.436226" style="fill: #ff7f0e; stroke: #ff7f0e"/>
     <use xlink:href="#m5e6bf53a26" x="434.041132" y="356.436226" style="fill: #ff7f0e; stroke: #ff7f0e"/>
     <use xlink:href="#m5e6bf53a26" x="444.32284" y="358.497083" style="fill: #ff7f0e; stroke: #ff7f0e"/>
     <use xlink:href="#m5e6bf53a26" x="454.604547" y="356.436226" style="fill: #ff7f0e; stroke: #ff7f0e"/>
     <use xlink:href="#m5e6bf53a26" x="475.167962" y="356.436226" style="fill: #ff7f0e; stroke: #ff7f0e"/>
     <use xlink:href="#m5e6bf53a26" x="485.449669" y="377.263444" style="fill: #ff7f0e; stroke: #ff7f0e"/>
     <use xlink:href="#m5e6bf53a26" x="495.731377" y="358.497083" style="fill: #ff7f0e; stroke: #ff7f0e"/>
     <use xlink:href="#m5e6bf53a26" x="506.013084" y="358.497083" style="fill: #ff7f0e; stroke: #ff7f0e"/>
     <use xlink:href="#m5e6bf53a26" x="516.294792" y="358.497083" style="fill: #ff7f0e; stroke: #ff7f0e"/>
     <use xlink:href="#m5e6bf53a26" x="536.858207" y="377.263444" style="fill: #ff7f0e; stroke: #ff7f0e"/>
     <use xlink:href="#m5e6bf53a26" x="547.139914" y="356.436226" style="fill: #ff7f0e; stroke: #ff7f0e"/>
     <use xlink:href="#m5e6bf53a26" x="557.421621" y="356.436226" style="fill: #ff7f0e; stroke: #ff7f0e"/>
     <use xlink:href="#m5e6bf53a26" x="567.703329" y="356.436226" style="fill: #ff7f0e; stroke: #ff7f0e"/>
     <use xlink:href="#m5e6bf53a26" x="577.985036" y="356.436226" style="fill: #ff7f0e; stroke: #ff7f0e"/>
     <use xlink:href="#m5e6bf53a26" x="588.266744" y="356.436226" style="fill: #ff7f0e; stroke: #ff7f0e"/>
     <use xlink:href="#m5e6bf53a26" x="598.548451" y="358.497083" style="fill: #ff7f0e; stroke: #ff7f0e"/>
     <use xlink:href="#m5e6bf53a26" x="608.830159" y="358.497083" style="fill: #ff7f0e; stroke: #ff7f0e"/>
     <use xlink:href="#m5e6bf53a26" x="619.111866" y="506.332202" style="fill: #ff7f0e; stroke: #ff7f0e"/>
     <use xlink:href="#m5e6bf53a26" x="629.393574" y="356.436226" style="fill: #ff7f0e; stroke: #ff7f0e"/>
     <use xlink:href="#m5e6bf53a26" x="639.675281" y="377.263444" style="fill: #ff7f0e; stroke: #ff7f0e"/>
     <use xlink:href="#m5e6bf53a26" x="660.238696" y="316.193556" style="fill: #ff7f0e; stroke: #ff7f0e"/>
     <use xlink:href="#m5e6bf53a26" x="670.520403" y="316.193556" style="fill: #ff7f0e; stroke: #ff7f0e"/>
     <use xlink:href="#m5e6bf53a26" x="680.802111" y="318.162922" style="fill: #ff7f0e; stroke: #ff7f0e"/>
     <use xlink:href="#m5e6bf53a26" x="691.083818" y="496.635944" style="fill: #ff7f0e; stroke: #ff7f0e"/>
    </g>
   </g>
   <g id="patch_3">
    <path d="M 64.41375 529.308125 
L 64.41375 23.837812 
" style="fill: none; stroke: #000000; stroke-width: 0.8; stroke-linejoin: miter; stroke-linecap: square"/>
   </g>
   <g id="patch_4">
    <path d="M 731.696562 529.308125 
L 731.696562 23.837812 
" style="fill: none; stroke: #000000; stroke-width: 0.8; stroke-linejoin: miter; stroke-linecap: square"/>
   </g>
   <g id="patch_5">
    <path d="M 64.41375 529.308125 
L 731.696562 529.308125 
" style="fill: none; stroke: #000000; stroke-width: 0.8; stroke-linejoin: miter; stroke-linecap: square"/>
   </g>
   <g id="patch_6">
    <path d="M 64.41375 23.837812 
L 731.696562 23.837812 
" style="fill: none; stroke: #000000; stroke-width: 0.8; stroke-linejoin: miter; stroke-linecap: square"/>
   </g>
   <g id="text_13">
    <text style="font: 700 14px 'DejaVu Sans', 'Bitstream Vera Sans', 'Computer Modern Sans Serif', 'Lucida Grande', 'Verdana', 'Geneva', 'Lucid', 'Arial', 'Helvetica', 'Avant Garde', sans-serif; text-anchor: middle" x="398.055156" y="17.837813" transform="rotate(-0 398.055156 17.837813)">Ts Thread Local Single Thread - Performance Trend</text>
   </g>
   <g id="legend_1">
    <g id="patch_7">
     <path d="M 772.060703 61.194063 
L 847.484141 61.194063 
Q 849.484141 61.194063 849.484141 59.194063 
L 849.484141 30.837813 
Q 849.484141 28.837813 847.484141 28.837813 
L 772.060703 28.837813 
Q 770.060703 28.837813 770.060703 30.837813 
L 770.060703 59.194063 
Q 770.060703 61.194063 772.060703 61.194063 
z
" style="fill: #ffffff; opacity: 0.8; stroke: #cccccc; stroke-linejoin: miter"/>
    </g>
    <g id="line2d_20">
     <path d="M 774.060703 36.93625 
L 784.060703 36.93625 
L 794.060703 36.93625 
" style="fill: none; stroke: #1f77b4; stroke-width: 2; stroke-linecap: square"/>
     <g>
      <use xlink:href="#m6825052477" x="784.060703" y="36.93625" style="fill: #1f77b4; stroke: #1f77b4"/>
     </g>
    </g>
    <g id="text_14">
     <text style="font: 10px 'DejaVu Sans', 'Bitstream Vera Sans', 'Computer Modern Sans Serif', 'Lucida Grande', 'Verdana', 'Geneva', 'Lucid', 'Arial', 'Helvetica', 'Avant Garde', sans-serif; text-anchor: start" x="802.060703" y="40.43625" transform="rotate(-0 802.060703 40.43625)">clang-18</text>
    </g>
    <g id="line2d_21">
     <path d="M 774.060703 51.614375 
L 784.060703 51.614375 
L 794.060703 51.614375 
" style="fill: none; stroke: #ff7f0e; stroke-width: 2; stroke-linecap: square"/>
     <g>
      <use xlink:href="#m5e6bf53a26" x="784.060703" y="51.614375" style="fill: #ff7f0e; stroke: #ff7f0e"/>
     </g>
    </g>
    <g id="text_15">
     <text style="font: 10px 'DejaVu Sans', 'Bitstream Vera Sans', 'Computer Modern Sans Serif', 'Lucida Grande', 'Verdana', 'Geneva', 'Lucid', 'Arial', 'Helvetica', 'Avant Garde', sans-serif; text-anchor: start" x="802.060703" y="55.114375" transform="rotate(-0 802.060703 55.114375)">gcc-14</text>
    </g>
   </g>
  </g>
 </g>
 <defs>
  <clipPath id="p62c457445e">
   <rect x="64.41375" y="23.837813" width="667.282812" height="505.470313"/>
  </clipPath>
 </defs>
</svg>
