<?xml version="1.0" encoding="utf-8" standalone="no"?>
<!DOCTYPE svg PUBLIC "-//W3C//DTD SVG 1.1//EN"
  "http://www.w3.org/Graphics/SVG/1.1/DTD/svg11.dtd">
<svg xmlns:xlink="http://www.w3.org/1999/xlink" width="856.684141pt" height="568.8pt" viewBox="0 0 856.684141 568.8" xmlns="http://www.w3.org/2000/svg" version="1.1">
 <metadata>
  <rdf:RDF xmlns:dc="http://purl.org/dc/elements/1.1/" xmlns:cc="http://creativecommons.org/ns#" xmlns:rdf="http://www.w3.org/1999/02/22-rdf-syntax-ns#">
   <cc:Work>
    <dc:type rdf:resource="http://purl.org/dc/dcmitype/StillImage"/>
    <dc:date>2025-08-18T19:39:06.174495</dc:date>
    <dc:format>image/svg+xml</dc:format>
    <dc:creator>
     <cc:Agent>
      <dc:title>Matplotlib v3.9.4, https://matplotlib.org/</dc:title>
     </cc:Agent>
    </dc:creator>
   </cc:Work>
  </rdf:RDF>
 </metadata>
 <defs>
  <style type="text/css">*{stroke-linejoin: round; stroke-linecap: butt}</style>
 </defs>
 <g id="figure_1">
  <g id="patch_1">
   <path d="M 0 568.8 
L 856.684141 568.8 
L 856.684141 0 
L 0 0 
z
" style="fill: #ffffff"/>
  </g>
  <g id="axes_1">
   <g id="patch_2">
    <path d="M 64.41375 529.308125 
L 731.696562 529.308125 
L 731.696562 23.837812 
L 64.41375 23.837812 
z
" style="fill: #ffffff"/>
   </g>
   <g id="matplotlib.axis_1">
    <g id="xtick_1">
     <g id="line2d_1">
      <path d="M 71.41322 529.308125 
L 71.41322 23.837812 
" clip-path="url(#p5c8325b686)" style="fill: none; stroke: #b0b0b0; stroke-opacity: 0.3; stroke-width: 0.8; stroke-linecap: square"/>
     </g>
     <g id="line2d_2">
      <defs>
       <path id="m77f4660161" d="M 0 0 
L 0 3.5 
" style="stroke: #000000; stroke-width: 0.8"/>
      </defs>
      <g>
       <use xlink:href="#m77f4660161" x="71.41322" y="529.308125" style="stroke: #000000; stroke-width: 0.8"/>
      </g>
     </g>
     <g id="text_1">
      <text style="font: 10px 'DejaVu Sans', 'Bitstream Vera Sans', 'Computer Modern Sans Serif', 'Lucida Grande', 'Verdana', 'Geneva', 'Lucid', 'Arial', 'Helvetica', 'Avant Garde', sans-serif; text-anchor: middle" x="71.41322" y="543.906563" transform="rotate(-0 71.41322 543.906563)">70</text>
     </g>
    </g>
    <g id="xtick_2">
     <g id="line2d_3">
      <path d="M 188.071054 529.308125 
L 188.071054 23.837812 
" clip-path="url(#p5c8325b686)" style="fill: none; stroke: #b0b0b0; stroke-opacity: 0.3; stroke-width: 0.8; stroke-linecap: square"/>
     </g>
     <g id="line2d_4">
      <g>
       <use xlink:href="#m77f4660161" x="188.071054" y="529.308125" style="stroke: #000000; stroke-width: 0.8"/>
      </g>
     </g>
     <g id="text_2">
      <text style="font: 10px 'DejaVu Sans', 'Bitstream Vera Sans', 'Computer Modern Sans Serif', 'Lucida Grande', 'Verdana', 'Geneva', 'Lucid', 'Arial', 'Helvetica', 'Avant Garde', sans-serif; text-anchor: middle" x="188.071054" y="543.906563" transform="rotate(-0 188.071054 543.906563)">75</text>
     </g>
    </g>
    <g id="xtick_3">
     <g id="line2d_5">
      <path d="M 304.728889 529.308125 
L 304.728889 23.837812 
" clip-path="url(#p5c8325b686)" style="fill: none; stroke: #b0b0b0; stroke-opacity: 0.3; stroke-width: 0.8; stroke-linecap: square"/>
     </g>
     <g id="line2d_6">
      <g>
       <use xlink:href="#m77f4660161" x="304.728889" y="529.308125" style="stroke: #000000; stroke-width: 0.8"/>
      </g>
     </g>
     <g id="text_3">
      <text style="font: 10px 'DejaVu Sans', 'Bitstream Vera Sans', 'Computer Modern Sans Serif', 'Lucida Grande', 'Verdana', 'Geneva', 'Lucid', 'Arial', 'Helvetica', 'Avant Garde', sans-serif; text-anchor: middle" x="304.728889" y="543.906563" transform="rotate(-0 304.728889 543.906563)">80</text>
     </g>
    </g>
    <g id="xtick_4">
     <g id="line2d_7">
      <path d="M 421.386723 529.308125 
L 421.386723 23.837812 
" clip-path="url(#p5c8325b686)" style="fill: none; stroke: #b0b0b0; stroke-opacity: 0.3; stroke-width: 0.8; stroke-linecap: square"/>
     </g>
     <g id="line2d_8">
      <g>
       <use xlink:href="#m77f4660161" x="421.386723" y="529.308125" style="stroke: #000000; stroke-width: 0.8"/>
      </g>
     </g>
     <g id="text_4">
      <text style="font: 10px 'DejaVu Sans', 'Bitstream Vera Sans', 'Computer Modern Sans Serif', 'Lucida Grande', 'Verdana', 'Geneva', 'Lucid', 'Arial', 'Helvetica', 'Avant Garde', sans-serif; text-anchor: middle" x="421.386723" y="543.906563" transform="rotate(-0 421.386723 543.906563)">85</text>
     </g>
    </g>
    <g id="xtick_5">
     <g id="line2d_9">
      <path d="M 538.044557 529.308125 
L 538.044557 23.837812 
" clip-path="url(#p5c8325b686)" style="fill: none; stroke: #b0b0b0; stroke-opacity: 0.3; stroke-width: 0.8; stroke-linecap: square"/>
     </g>
     <g id="line2d_10">
      <g>
       <use xlink:href="#m77f4660161" x="538.044557" y="529.308125" style="stroke: #000000; stroke-width: 0.8"/>
      </g>
     </g>
     <g id="text_5">
      <text style="font: 10px 'DejaVu Sans', 'Bitstream Vera Sans', 'Computer Modern Sans Serif', 'Lucida Grande', 'Verdana', 'Geneva', 'Lucid', 'Arial', 'Helvetica', 'Avant Garde', sans-serif; text-anchor: middle" x="538.044557" y="543.906563" transform="rotate(-0 538.044557 543.906563)">90</text>
     </g>
    </g>
    <g id="xtick_6">
     <g id="line2d_11">
      <path d="M 654.702392 529.308125 
L 654.702392 23.837812 
" clip-path="url(#p5c8325b686)" style="fill: none; stroke: #b0b0b0; stroke-opacity: 0.3; stroke-width: 0.8; stroke-linecap: square"/>
     </g>
     <g id="line2d_12">
      <g>
       <use xlink:href="#m77f4660161" x="654.702392" y="529.308125" style="stroke: #000000; stroke-width: 0.8"/>
      </g>
     </g>
     <g id="text_6">
      <text style="font: 10px 'DejaVu Sans', 'Bitstream Vera Sans', 'Computer Modern Sans Serif', 'Lucida Grande', 'Verdana', 'Geneva', 'Lucid', 'Arial', 'Helvetica', 'Avant Garde', sans-serif; text-anchor: middle" x="654.702392" y="543.906563" transform="rotate(-0 654.702392 543.906563)">95</text>
     </g>
    </g>
    <g id="text_7">
     <text style="font: 12px 'DejaVu Sans', 'Bitstream Vera Sans', 'Computer Modern Sans Serif', 'Lucida Grande', 'Verdana', 'Geneva', 'Lucid', 'Arial', 'Helvetica', 'Avant Garde', sans-serif; text-anchor: middle" x="398.055156" y="559.104375" transform="rotate(-0 398.055156 559.104375)">Build Number</text>
    </g>
   </g>
   <g id="matplotlib.axis_2">
    <g id="ytick_1">
     <g id="line2d_13">
      <defs>
       <path id="m16a90a2d36" d="M 0 0 
L -2 0 
" style="stroke: #000000; stroke-width: 0.6"/>
      </defs>
      <g>
       <use xlink:href="#m16a90a2d36" x="64.41375" y="482.905893" style="stroke: #000000; stroke-width: 0.6"/>
      </g>
     </g>
     <g id="text_8">
      <!-- $\mathdefault{4\times10^{0}}$ -->
      <g transform="translate(22.81375 486.705112)">
       <text>
        <tspan style="font: 10px 'DejaVu Sans'" x="0 8.310547 18.637695 25" y="-0.9765625">4×10</tspan>
        <tspan style="font: 7px 'DejaVu Sans'" x="31.458008" y="-4.8046875">0</tspan>
       </text>
      </g>
     </g>
    </g>
    <g id="ytick_2">
     <g id="line2d_14">
      <g>
       <use xlink:href="#m16a90a2d36" x="64.41375" y="253.199313" style="stroke: #000000; stroke-width: 0.6"/>
      </g>
     </g>
     <g id="text_9">
      <!-- $\mathdefault{5\times10^{0}}$ -->
      <g transform="translate(22.81375 256.998532)">
       <text>
        <tspan style="font: 10px 'DejaVu Sans'" x="0 8.310547 18.637695 25" y="-0.9765625">5×10</tspan>
        <tspan style="font: 7px 'DejaVu Sans'" x="31.458008" y="-4.8046875">0</tspan>
       </text>
      </g>
     </g>
    </g>
    <g id="ytick_3">
     <g id="line2d_15">
      <g>
       <use xlink:href="#m16a90a2d36" x="64.41375" y="65.515371" style="stroke: #000000; stroke-width: 0.6"/>
      </g>
     </g>
     <g id="text_10">
      <!-- $\mathdefault{6\times10^{0}}$ -->
      <g transform="translate(22.81375 69.31459)">
       <text>
        <tspan style="font: 10px 'DejaVu Sans'" x="0 8.310547 18.637695 25" y="-0.9765625">6×10</tspan>
        <tspan style="font: 7px 'DejaVu Sans'" x="31.458008" y="-4.8046875">0</tspan>
       </text>
      </g>
     </g>
    </g>
    <g id="text_11">
     <text style="font: 12px 'DejaVu Sans', 'Bitstream Vera Sans', 'Computer Modern Sans Serif', 'Lucida Grande', 'Verdana', 'Geneva', 'Lucid', 'Arial', 'Helvetica', 'Avant Garde', sans-serif; text-anchor: middle" x="16.318125" y="276.572969" transform="rotate(-90 16.318125 276.572969)">Median Elapsed Time (nanoseconds)</text>
    </g>
   </g>
   <g id="line2d_16">
    <path d="M 94.744787 430.232661 
L 118.076354 430.232661 
L 141.407921 430.232661 
L 164.739488 430.232661 
L 188.071054 430.232661 
L 211.402621 430.232661 
L 234.734188 430.232661 
L 258.065755 430.232661 
L 281.397322 430.232661 
L 304.728889 430.232661 
L 328.060456 430.232661 
L 351.392023 432.680728 
L 374.723589 430.232661 
L 421.386723 432.680728 
L 444.71829 432.680728 
L 491.381424 430.232661 
L 514.712991 430.232661 
L 538.044557 430.232661 
L 561.376124 454.979326 
L 584.707691 430.232661 
L 631.370825 430.232661 
L 654.702392 430.232661 
L 678.033959 430.232661 
L 701.365526 430.232661 
" clip-path="url(#p5c8325b686)" style="fill: none; stroke: #1f77b4; stroke-width: 2; stroke-linecap: square"/>
    <defs>
     <path id="mb83bd6c8ed" d="M 0 3 
C 0.795609 3 1.55874 2.683901 2.12132 2.12132 
C 2.683901 1.55874 3 0.795609 3 0 
C 3 -0.795609 2.683901 -1.55874 2.12132 -2.12132 
C 1.55874 -2.683901 0.795609 -3 0 -3 
C -0.795609 -3 -1.55874 -2.683901 -2.12132 -2.12132 
C -2.683901 -1.55874 -3 -0.795609 -3 0 
C -3 0.795609 -2.683901 1.55874 -2.12132 2.12132 
C -1.55874 2.683901 -0.795609 3 0 3 
z
" style="stroke: #1f77b4"/>
    </defs>
    <g clip-path="url(#p5c8325b686)">
     <use xlink:href="#mb83bd6c8ed" x="94.744787" y="430.232661" style="fill: #1f77b4; stroke: #1f77b4"/>
     <use xlink:href="#mb83bd6c8ed" x="118.076354" y="430.232661" style="fill: #1f77b4; stroke: #1f77b4"/>
     <use xlink:href="#mb83bd6c8ed" x="141.407921" y="430.232661" style="fill: #1f77b4; stroke: #1f77b4"/>
     <use xlink:href="#mb83bd6c8ed" x="164.739488" y="430.232661" style="fill: #1f77b4; stroke: #1f77b4"/>
     <use xlink:href="#mb83bd6c8ed" x="188.071054" y="430.232661" style="fill: #1f77b4; stroke: #1f77b4"/>
     <use xlink:href="#mb83bd6c8ed" x="211.402621" y="430.232661" style="fill: #1f77b4; stroke: #1f77b4"/>
     <use xlink:href="#mb83bd6c8ed" x="234.734188" y="430.232661" style="fill: #1f77b4; stroke: #1f77b4"/>
     <use xlink:href="#mb83bd6c8ed" x="258.065755" y="430.232661" style="fill: #1f77b4; stroke: #1f77b4"/>
     <use xlink:href="#mb83bd6c8ed" x="281.397322" y="430.232661" style="fill: #1f77b4; stroke: #1f77b4"/>
     <use xlink:href="#mb83bd6c8ed" x="304.728889" y="430.232661" style="fill: #1f77b4; stroke: #1f77b4"/>
     <use xlink:href="#mb83bd6c8ed" x="328.060456" y="430.232661" style="fill: #1f77b4; stroke: #1f77b4"/>
     <use xlink:href="#mb83bd6c8ed" x="351.392023" y="432.680728" style="fill: #1f77b4; stroke: #1f77b4"/>
     <use xlink:href="#mb83bd6c8ed" x="374.723589" y="430.232661" style="fill: #1f77b4; stroke: #1f77b4"/>
     <use xlink:href="#mb83bd6c8ed" x="421.386723" y="432.680728" style="fill: #1f77b4; stroke: #1f77b4"/>
     <use xlink:href="#mb83bd6c8ed" x="444.71829" y="432.680728" style="fill: #1f77b4; stroke: #1f77b4"/>
     <use xlink:href="#mb83bd6c8ed" x="491.381424" y="430.232661" style="fill: #1f77b4; stroke: #1f77b4"/>
     <use xlink:href="#mb83bd6c8ed" x="514.712991" y="430.232661" style="fill: #1f77b4; stroke: #1f77b4"/>
     <use xlink:href="#mb83bd6c8ed" x="538.044557" y="430.232661" style="fill: #1f77b4; stroke: #1f77b4"/>
     <use xlink:href="#mb83bd6c8ed" x="561.376124" y="454.979326" style="fill: #1f77b4; stroke: #1f77b4"/>
     <use xlink:href="#mb83bd6c8ed" x="584.707691" y="430.232661" style="fill: #1f77b4; stroke: #1f77b4"/>
     <use xlink:href="#mb83bd6c8ed" x="631.370825" y="430.232661" style="fill: #1f77b4; stroke: #1f77b4"/>
     <use xlink:href="#mb83bd6c8ed" x="654.702392" y="430.232661" style="fill: #1f77b4; stroke: #1f77b4"/>
     <use xlink:href="#mb83bd6c8ed" x="678.033959" y="430.232661" style="fill: #1f77b4; stroke: #1f77b4"/>
     <use xlink:href="#mb83bd6c8ed" x="701.365526" y="430.232661" style="fill: #1f77b4; stroke: #1f77b4"/>
    </g>
   </g>
   <g id="line2d_17">
    <path d="M 94.744787 506.332202 
L 118.076354 406.066957 
L 141.407921 408.458159 
L 164.739488 430.232661 
L 188.071054 408.458159 
L 211.402621 430.232661 
L 234.734188 430.232661 
L 258.065755 408.458159 
L 281.397322 430.232661 
L 304.728889 406.066957 
L 328.060456 430.232661 
L 351.392023 408.458159 
L 374.723589 406.066957 
L 398.055156 406.066957 
L 421.386723 430.232661 
L 444.71829 408.458159 
L 491.381424 408.458159 
L 514.712991 408.458159 
L 538.044557 430.232661 
L 561.376124 406.066957 
L 584.707691 408.458159 
L 608.039258 408.458159 
L 631.370825 408.458159 
L 654.702392 406.066957 
L 678.033959 408.458159 
L 701.365526 46.813736 
" clip-path="url(#p5c8325b686)" style="fill: none; stroke: #ff7f0e; stroke-width: 2; stroke-linecap: square"/>
    <defs>
     <path id="m2a90b67115" d="M 0 3 
C 0.795609 3 1.55874 2.683901 2.12132 2.12132 
C 2.683901 1.55874 3 0.795609 3 0 
C 3 -0.795609 2.683901 -1.55874 2.12132 -2.12132 
C 1.55874 -2.683901 0.795609 -3 0 -3 
C -0.795609 -3 -1.55874 -2.683901 -2.12132 -2.12132 
C -2.683901 -1.55874 -3 -0.795609 -3 0 
C -3 0.795609 -2.683901 1.55874 -2.12132 2.12132 
C -1.55874 2.683901 -0.795609 3 0 3 
z
" style="stroke: #ff7f0e"/>
    </defs>
    <g clip-path="url(#p5c8325b686)">
     <use xlink:href="#m2a90b67115" x="94.744787" y="506.332202" style="fill: #ff7f0e; stroke: #ff7f0e"/>
     <use xlink:href="#m2a90b67115" x="118.076354" y="406.066957" style="fill: #ff7f0e; stroke: #ff7f0e"/>
     <use xlink:href="#m2a90b67115" x="141.407921" y="408.458159" style="fill: #ff7f0e; stroke: #ff7f0e"/>
     <use xlink:href="#m2a90b67115" x="164.739488" y="430.232661" style="fill: #ff7f0e; stroke: #ff7f0e"/>
     <use xlink:href="#m2a90b67115" x="188.071054" y="408.458159" style="fill: #ff7f0e; stroke: #ff7f0e"/>
     <use xlink:href="#m2a90b67115" x="211.402621" y="430.232661" style="fill: #ff7f0e; stroke: #ff7f0e"/>
     <use xlink:href="#m2a90b67115" x="234.734188" y="430.232661" style="fill: #ff7f0e; stroke: #ff7f0e"/>
     <use xlink:href="#m2a90b67115" x="258.065755" y="408.458159" style="fill: #ff7f0e; stroke: #ff7f0e"/>
     <use xlink:href="#m2a90b67115" x="281.397322" y="430.232661" style="fill: #ff7f0e; stroke: #ff7f0e"/>
     <use xlink:href="#m2a90b67115" x="304.728889" y="406.066957" style="fill: #ff7f0e; stroke: #ff7f0e"/>
     <use xlink:href="#m2a90b67115" x="328.060456" y="430.232661" style="fill: #ff7f0e; stroke: #ff7f0e"/>
     <use xlink:href="#m2a90b67115" x="351.392023" y="408.458159" style="fill: #ff7f0e; stroke: #ff7f0e"/>
     <use xlink:href="#m2a90b67115" x="374.723589" y="406.066957" style="fill: #ff7f0e; stroke: #ff7f0e"/>
     <use xlink:href="#m2a90b67115" x="398.055156" y="406.066957" style="fill: #ff7f0e; stroke: #ff7f0e"/>
     <use xlink:href="#m2a90b67115" x="421.386723" y="430.232661" style="fill: #ff7f0e; stroke: #ff7f0e"/>
     <use xlink:href="#m2a90b67115" x="444.71829" y="408.458159" style="fill: #ff7f0e; stroke: #ff7f0e"/>
     <use xlink:href="#m2a90b67115" x="491.381424" y="408.458159" style="fill: #ff7f0e; stroke: #ff7f0e"/>
     <use xlink:href="#m2a90b67115" x="514.712991" y="408.458159" style="fill: #ff7f0e; stroke: #ff7f0e"/>
     <use xlink:href="#m2a90b67115" x="538.044557" y="430.232661" style="fill: #ff7f0e; stroke: #ff7f0e"/>
     <use xlink:href="#m2a90b67115" x="561.376124" y="406.066957" style="fill: #ff7f0e; stroke: #ff7f0e"/>
     <use xlink:href="#m2a90b67115" x="584.707691" y="408.458159" style="fill: #ff7f0e; stroke: #ff7f0e"/>
     <use xlink:href="#m2a90b67115" x="608.039258" y="408.458159" style="fill: #ff7f0e; stroke: #ff7f0e"/>
     <use xlink:href="#m2a90b67115" x="631.370825" y="408.458159" style="fill: #ff7f0e; stroke: #ff7f0e"/>
     <use xlink:href="#m2a90b67115" x="654.702392" y="406.066957" style="fill: #ff7f0e; stroke: #ff7f0e"/>
     <use xlink:href="#m2a90b67115" x="678.033959" y="408.458159" style="fill: #ff7f0e; stroke: #ff7f0e"/>
     <use xlink:href="#m2a90b67115" x="701.365526" y="46.813736" style="fill: #ff7f0e; stroke: #ff7f0e"/>
    </g>
   </g>
   <g id="patch_3">
    <path d="M 64.41375 529.308125 
L 64.41375 23.837812 
" style="fill: none; stroke: #000000; stroke-width: 0.8; stroke-linejoin: miter; stroke-linecap: square"/>
   </g>
   <g id="patch_4">
    <path d="M 731.696562 529.308125 
L 731.696562 23.837812 
" style="fill: none; stroke: #000000; stroke-width: 0.8; stroke-linejoin: miter; stroke-linecap: square"/>
   </g>
   <g id="patch_5">
    <path d="M 64.41375 529.308125 
L 731.696562 529.308125 
" style="fill: none; stroke: #000000; stroke-width: 0.8; stroke-linejoin: miter; stroke-linecap: square"/>
   </g>
   <g id="patch_6">
    <path d="M 64.41375 23.837812 
L 731.696562 23.837812 
" style="fill: none; stroke: #000000; stroke-width: 0.8; stroke-linejoin: miter; stroke-linecap: square"/>
   </g>
   <g id="text_12">
    <text style="font: 700 14px 'DejaVu Sans', 'Bitstream Vera Sans', 'Computer Modern Sans Serif', 'Lucida Grande', 'Verdana', 'Geneva', 'Lucid', 'Arial', 'Helvetica', 'Avant Garde', sans-serif; text-anchor: middle" x="398.055156" y="17.837813" transform="rotate(-0 398.055156 17.837813)">Ts Thread Local Single Thread - Performance Trend</text>
   </g>
   <g id="legend_1">
    <g id="patch_7">
     <path d="M 772.060703 61.194063 
L 847.484141 61.194063 
Q 849.484141 61.194063 849.484141 59.194063 
L 849.484141 30.837813 
Q 849.484141 28.837813 847.484141 28.837813 
L 772.060703 28.837813 
Q 770.060703 28.837813 770.060703 30.837813 
L 770.060703 59.194063 
Q 770.060703 61.194063 772.060703 61.194063 
z
" style="fill: #ffffff; opacity: 0.8; stroke: #cccccc; stroke-linejoin: miter"/>
    </g>
    <g id="line2d_18">
     <path d="M 774.060703 36.93625 
L 784.060703 36.93625 
L 794.060703 36.93625 
" style="fill: none; stroke: #1f77b4; stroke-width: 2; stroke-linecap: square"/>
     <g>
      <use xlink:href="#mb83bd6c8ed" x="784.060703" y="36.93625" style="fill: #1f77b4; stroke: #1f77b4"/>
     </g>
    </g>
    <g id="text_13">
     <text style="font: 10px 'DejaVu Sans', 'Bitstream Vera Sans', 'Computer Modern Sans Serif', 'Lucida Grande', 'Verdana', 'Geneva', 'Lucid', 'Arial', 'Helvetica', 'Avant Garde', sans-serif; text-anchor: start" x="802.060703" y="40.43625" transform="rotate(-0 802.060703 40.43625)">clang-18</text>
    </g>
    <g id="line2d_19">
     <path d="M 774.060703 51.614375 
L 784.060703 51.614375 
L 794.060703 51.614375 
" style="fill: none; stroke: #ff7f0e; stroke-width: 2; stroke-linecap: square"/>
     <g>
      <use xlink:href="#m2a90b67115" x="784.060703" y="51.614375" style="fill: #ff7f0e; stroke: #ff7f0e"/>
     </g>
    </g>
    <g id="text_14">
     <text style="font: 10px 'DejaVu Sans', 'Bitstream Vera Sans', 'Computer Modern Sans Serif', 'Lucida Grande', 'Verdana', 'Geneva', 'Lucid', 'Arial', 'Helvetica', 'Avant Garde', sans-serif; text-anchor: start" x="802.060703" y="55.114375" transform="rotate(-0 802.060703 55.114375)">gcc-14</text>
    </g>
   </g>
  </g>
 </g>
 <defs>
  <clipPath id="p5c8325b686">
   <rect x="64.41375" y="23.837813" width="667.282812" height="505.470313"/>
  </clipPath>
 </defs>
</svg>
