<?xml version="1.0" encoding="utf-8" standalone="no"?>
<!DOCTYPE svg PUBLIC "-//W3C//DTD SVG 1.1//EN"
  "http://www.w3.org/Graphics/SVG/1.1/DTD/svg11.dtd">
<svg xmlns:xlink="http://www.w3.org/1999/xlink" width="855.889141pt" height="568.8pt" viewBox="0 0 855.889141 568.8" xmlns="http://www.w3.org/2000/svg" version="1.1">
 <metadata>
  <rdf:RDF xmlns:dc="http://purl.org/dc/elements/1.1/" xmlns:cc="http://creativecommons.org/ns#" xmlns:rdf="http://www.w3.org/1999/02/22-rdf-syntax-ns#">
   <cc:Work>
    <dc:type rdf:resource="http://purl.org/dc/dcmitype/StillImage"/>
    <dc:date>2025-08-13T17:02:27.682731</dc:date>
    <dc:format>image/svg+xml</dc:format>
    <dc:creator>
     <cc:Agent>
      <dc:title>Matplotlib v3.9.4, https://matplotlib.org/</dc:title>
     </cc:Agent>
    </dc:creator>
   </cc:Work>
  </rdf:RDF>
 </metadata>
 <defs>
  <style type="text/css">*{stroke-linejoin: round; stroke-linecap: butt}</style>
 </defs>
 <g id="figure_1">
  <g id="patch_1">
   <path d="M 0 568.8 
L 855.889141 568.8 
L 855.889141 0 
L 0 0 
z
" style="fill: #ffffff"/>
  </g>
  <g id="axes_1">
   <g id="patch_2">
    <path d="M 80.31375 529.308125 
L 731.696562 529.308125 
L 731.696562 23.837812 
L 80.31375 23.837812 
z
" style="fill: #ffffff"/>
   </g>
   <g id="matplotlib.axis_1">
    <g id="xtick_1">
     <g id="line2d_1">
      <path d="M 155.473305 529.308125 
L 155.473305 23.837812 
" clip-path="url(#p04cf403d48)" style="fill: none; stroke: #b0b0b0; stroke-opacity: 0.3; stroke-width: 0.8; stroke-linecap: square"/>
     </g>
     <g id="line2d_2">
      <defs>
       <path id="m18b5417981" d="M 0 0 
L 0 3.5 
" style="stroke: #000000; stroke-width: 0.8"/>
      </defs>
      <g>
       <use xlink:href="#m18b5417981" x="155.473305" y="529.308125" style="stroke: #000000; stroke-width: 0.8"/>
      </g>
     </g>
     <g id="text_1">
      <text style="font: 10px 'DejaVu Sans', 'Bitstream Vera Sans', 'Computer Modern Sans Serif', 'Lucida Grande', 'Verdana', 'Geneva', 'Lucid', 'Arial', 'Helvetica', 'Avant Garde', sans-serif; text-anchor: middle" x="155.473305" y="543.906563" transform="rotate(-0 155.473305 543.906563)">72</text>
     </g>
    </g>
    <g id="xtick_2">
     <g id="line2d_3">
      <path d="M 246.575797 529.308125 
L 246.575797 23.837812 
" clip-path="url(#p04cf403d48)" style="fill: none; stroke: #b0b0b0; stroke-opacity: 0.3; stroke-width: 0.8; stroke-linecap: square"/>
     </g>
     <g id="line2d_4">
      <g>
       <use xlink:href="#m18b5417981" x="246.575797" y="529.308125" style="stroke: #000000; stroke-width: 0.8"/>
      </g>
     </g>
     <g id="text_2">
      <text style="font: 10px 'DejaVu Sans', 'Bitstream Vera Sans', 'Computer Modern Sans Serif', 'Lucida Grande', 'Verdana', 'Geneva', 'Lucid', 'Arial', 'Helvetica', 'Avant Garde', sans-serif; text-anchor: middle" x="246.575797" y="543.906563" transform="rotate(-0 246.575797 543.906563)">74</text>
     </g>
    </g>
    <g id="xtick_3">
     <g id="line2d_5">
      <path d="M 337.678288 529.308125 
L 337.678288 23.837812 
" clip-path="url(#p04cf403d48)" style="fill: none; stroke: #b0b0b0; stroke-opacity: 0.3; stroke-width: 0.8; stroke-linecap: square"/>
     </g>
     <g id="line2d_6">
      <g>
       <use xlink:href="#m18b5417981" x="337.678288" y="529.308125" style="stroke: #000000; stroke-width: 0.8"/>
      </g>
     </g>
     <g id="text_3">
      <text style="font: 10px 'DejaVu Sans', 'Bitstream Vera Sans', 'Computer Modern Sans Serif', 'Lucida Grande', 'Verdana', 'Geneva', 'Lucid', 'Arial', 'Helvetica', 'Avant Garde', sans-serif; text-anchor: middle" x="337.678288" y="543.906563" transform="rotate(-0 337.678288 543.906563)">76</text>
     </g>
    </g>
    <g id="xtick_4">
     <g id="line2d_7">
      <path d="M 428.780779 529.308125 
L 428.780779 23.837812 
" clip-path="url(#p04cf403d48)" style="fill: none; stroke: #b0b0b0; stroke-opacity: 0.3; stroke-width: 0.8; stroke-linecap: square"/>
     </g>
     <g id="line2d_8">
      <g>
       <use xlink:href="#m18b5417981" x="428.780779" y="529.308125" style="stroke: #000000; stroke-width: 0.8"/>
      </g>
     </g>
     <g id="text_4">
      <text style="font: 10px 'DejaVu Sans', 'Bitstream Vera Sans', 'Computer Modern Sans Serif', 'Lucida Grande', 'Verdana', 'Geneva', 'Lucid', 'Arial', 'Helvetica', 'Avant Garde', sans-serif; text-anchor: middle" x="428.780779" y="543.906563" transform="rotate(-0 428.780779 543.906563)">78</text>
     </g>
    </g>
    <g id="xtick_5">
     <g id="line2d_9">
      <path d="M 519.88327 529.308125 
L 519.88327 23.837812 
" clip-path="url(#p04cf403d48)" style="fill: none; stroke: #b0b0b0; stroke-opacity: 0.3; stroke-width: 0.8; stroke-linecap: square"/>
     </g>
     <g id="line2d_10">
      <g>
       <use xlink:href="#m18b5417981" x="519.88327" y="529.308125" style="stroke: #000000; stroke-width: 0.8"/>
      </g>
     </g>
     <g id="text_5">
      <text style="font: 10px 'DejaVu Sans', 'Bitstream Vera Sans', 'Computer Modern Sans Serif', 'Lucida Grande', 'Verdana', 'Geneva', 'Lucid', 'Arial', 'Helvetica', 'Avant Garde', sans-serif; text-anchor: middle" x="519.88327" y="543.906563" transform="rotate(-0 519.88327 543.906563)">80</text>
     </g>
    </g>
    <g id="xtick_6">
     <g id="line2d_11">
      <path d="M 610.985762 529.308125 
L 610.985762 23.837812 
" clip-path="url(#p04cf403d48)" style="fill: none; stroke: #b0b0b0; stroke-opacity: 0.3; stroke-width: 0.8; stroke-linecap: square"/>
     </g>
     <g id="line2d_12">
      <g>
       <use xlink:href="#m18b5417981" x="610.985762" y="529.308125" style="stroke: #000000; stroke-width: 0.8"/>
      </g>
     </g>
     <g id="text_6">
      <text style="font: 10px 'DejaVu Sans', 'Bitstream Vera Sans', 'Computer Modern Sans Serif', 'Lucida Grande', 'Verdana', 'Geneva', 'Lucid', 'Arial', 'Helvetica', 'Avant Garde', sans-serif; text-anchor: middle" x="610.985762" y="543.906563" transform="rotate(-0 610.985762 543.906563)">82</text>
     </g>
    </g>
    <g id="xtick_7">
     <g id="line2d_13">
      <path d="M 702.088253 529.308125 
L 702.088253 23.837812 
" clip-path="url(#p04cf403d48)" style="fill: none; stroke: #b0b0b0; stroke-opacity: 0.3; stroke-width: 0.8; stroke-linecap: square"/>
     </g>
     <g id="line2d_14">
      <g>
       <use xlink:href="#m18b5417981" x="702.088253" y="529.308125" style="stroke: #000000; stroke-width: 0.8"/>
      </g>
     </g>
     <g id="text_7">
      <text style="font: 10px 'DejaVu Sans', 'Bitstream Vera Sans', 'Computer Modern Sans Serif', 'Lucida Grande', 'Verdana', 'Geneva', 'Lucid', 'Arial', 'Helvetica', 'Avant Garde', sans-serif; text-anchor: middle" x="702.088253" y="543.906563" transform="rotate(-0 702.088253 543.906563)">84</text>
     </g>
    </g>
    <g id="text_8">
     <text style="font: 12px 'DejaVu Sans', 'Bitstream Vera Sans', 'Computer Modern Sans Serif', 'Lucida Grande', 'Verdana', 'Geneva', 'Lucid', 'Arial', 'Helvetica', 'Avant Garde', sans-serif; text-anchor: middle" x="406.005156" y="559.104375" transform="rotate(-0 406.005156 559.104375)">Build Number</text>
    </g>
   </g>
   <g id="matplotlib.axis_2">
    <g id="ytick_1">
     <g id="line2d_15">
      <defs>
       <path id="m04789c3092" d="M 0 0 
L -2 0 
" style="stroke: #000000; stroke-width: 0.6"/>
      </defs>
      <g>
       <use xlink:href="#m04789c3092" x="80.31375" y="475.25484" style="stroke: #000000; stroke-width: 0.6"/>
      </g>
     </g>
     <g id="text_9">
      <!-- $\mathdefault{1.95\times10^{2}}$ -->
      <g transform="translate(22.81375 479.054059)">
       <text>
        <tspan style="font: 10px 'DejaVu Sans'" x="0 6.362305 9.541016 15.90332 24.213867 34.541016 40.90332" y="-0.9765625">1.95×10</tspan>
        <tspan style="font: 7px 'DejaVu Sans'" x="47.361328" y="-4.8046875">2</tspan>
       </text>
      </g>
     </g>
    </g>
    <g id="ytick_2">
     <g id="line2d_16">
      <g>
       <use xlink:href="#m04789c3092" x="80.31375" y="396.562261" style="stroke: #000000; stroke-width: 0.6"/>
      </g>
     </g>
     <g id="text_10">
      <!-- $\mathdefault{2\times10^{2}}$ -->
      <g transform="translate(38.71375 400.36148)">
       <text>
        <tspan style="font: 10px 'DejaVu Sans'" x="0 8.310547 18.637695 25" y="-0.9765625">2×10</tspan>
        <tspan style="font: 7px 'DejaVu Sans'" x="31.458008" y="-4.8046875">2</tspan>
       </text>
      </g>
     </g>
    </g>
    <g id="ytick_3">
     <g id="line2d_17">
      <g>
       <use xlink:href="#m04789c3092" x="80.31375" y="319.812908" style="stroke: #000000; stroke-width: 0.6"/>
      </g>
     </g>
     <g id="text_11">
      <!-- $\mathdefault{2.05\times10^{2}}$ -->
      <g transform="translate(22.81375 323.612127)">
       <text>
        <tspan style="font: 10px 'DejaVu Sans'" x="0 6.362305 9.541016 15.90332 24.213867 34.541016 40.90332" y="-0.9765625">2.05×10</tspan>
        <tspan style="font: 7px 'DejaVu Sans'" x="47.361328" y="-4.8046875">2</tspan>
       </text>
      </g>
     </g>
    </g>
    <g id="ytick_4">
     <g id="line2d_18">
      <g>
       <use xlink:href="#m04789c3092" x="80.31375" y="244.913119" style="stroke: #000000; stroke-width: 0.6"/>
      </g>
     </g>
     <g id="text_12">
      <!-- $\mathdefault{2.1\times10^{2}}$ -->
      <g transform="translate(29.11375 248.712338)">
       <text>
        <tspan style="font: 10px 'DejaVu Sans'" x="0 6.362305 9.541016 17.851562 28.178711 34.541016" y="-0.9765625">2.1×10</tspan>
        <tspan style="font: 7px 'DejaVu Sans'" x="40.999023" y="-4.8046875">2</tspan>
       </text>
      </g>
     </g>
    </g>
    <g id="ytick_5">
     <g id="line2d_19">
      <g>
       <use xlink:href="#m04789c3092" x="80.31375" y="171.775842" style="stroke: #000000; stroke-width: 0.6"/>
      </g>
     </g>
     <g id="text_13">
      <!-- $\mathdefault{2.15\times10^{2}}$ -->
      <g transform="translate(22.81375 175.575061)">
       <text>
        <tspan style="font: 10px 'DejaVu Sans'" x="0 6.362305 9.541016 15.90332 24.213867 34.541016 40.90332" y="-0.9765625">2.15×10</tspan>
        <tspan style="font: 7px 'DejaVu Sans'" x="47.361328" y="-4.8046875">2</tspan>
       </text>
      </g>
     </g>
    </g>
    <g id="ytick_6">
     <g id="line2d_20">
      <g>
       <use xlink:href="#m04789c3092" x="80.31375" y="100.320032" style="stroke: #000000; stroke-width: 0.6"/>
      </g>
     </g>
     <g id="text_14">
      <!-- $\mathdefault{2.2\times10^{2}}$ -->
      <g transform="translate(29.71375 104.119251)">
       <text>
        <tspan style="font: 10px 'DejaVu Sans'" x="0 6.362305 9.041016 17.351562 27.678711 34.041016" y="-0.9765625">2.2×10</tspan>
        <tspan style="font: 7px 'DejaVu Sans'" x="40.499023" y="-4.8046875">2</tspan>
       </text>
      </g>
     </g>
    </g>
    <g id="ytick_7">
     <g id="line2d_21">
      <g>
       <use xlink:href="#m04789c3092" x="80.31375" y="30.470107" style="stroke: #000000; stroke-width: 0.6"/>
      </g>
     </g>
     <g id="text_15">
      <!-- $\mathdefault{2.25\times10^{2}}$ -->
      <g transform="translate(23.31375 34.269326)">
       <text>
        <tspan style="font: 10px 'DejaVu Sans'" x="0 6.362305 9.041016 15.40332 23.713867 34.041016 40.40332" y="-0.9765625">2.25×10</tspan>
        <tspan style="font: 7px 'DejaVu Sans'" x="46.861328" y="-4.8046875">2</tspan>
       </text>
      </g>
     </g>
    </g>
    <g id="text_16">
     <text style="font: 12px 'DejaVu Sans', 'Bitstream Vera Sans', 'Computer Modern Sans Serif', 'Lucida Grande', 'Verdana', 'Geneva', 'Lucid', 'Arial', 'Helvetica', 'Avant Garde', sans-serif; text-anchor: middle" x="16.318125" y="276.572969" transform="rotate(-90 16.318125 276.572969)">Median Elapsed Time (nanoseconds)</text>
    </g>
   </g>
   <g id="line2d_22">
    <path d="M 109.92206 328.558362 
L 155.473305 297.303372 
L 201.024551 506.332202 
L 246.575797 305.039534 
L 292.127042 315.570471 
L 337.678288 125.85529 
L 383.229533 135.699698 
L 428.780779 503.113946 
L 474.332025 316.93348 
L 519.88327 482.276118 
L 565.434516 115.757981 
L 610.985762 319.964531 
L 656.537007 327.555115 
" clip-path="url(#p04cf403d48)" style="fill: none; stroke: #1f77b4; stroke-width: 2; stroke-linecap: square"/>
    <defs>
     <path id="mdd4633981a" d="M 0 3 
C 0.795609 3 1.55874 2.683901 2.12132 2.12132 
C 2.683901 1.55874 3 0.795609 3 0 
C 3 -0.795609 2.683901 -1.55874 2.12132 -2.12132 
C 1.55874 -2.683901 0.795609 -3 0 -3 
C -0.795609 -3 -1.55874 -2.683901 -2.12132 -2.12132 
C -2.683901 -1.55874 -3 -0.795609 -3 0 
C -3 0.795609 -2.683901 1.55874 -2.12132 2.12132 
C -1.55874 2.683901 -0.795609 3 0 3 
z
" style="stroke: #1f77b4"/>
    </defs>
    <g clip-path="url(#p04cf403d48)">
     <use xlink:href="#mdd4633981a" x="109.92206" y="328.558362" style="fill: #1f77b4; stroke: #1f77b4"/>
     <use xlink:href="#mdd4633981a" x="155.473305" y="297.303372" style="fill: #1f77b4; stroke: #1f77b4"/>
     <use xlink:href="#mdd4633981a" x="201.024551" y="506.332202" style="fill: #1f77b4; stroke: #1f77b4"/>
     <use xlink:href="#mdd4633981a" x="246.575797" y="305.039534" style="fill: #1f77b4; stroke: #1f77b4"/>
     <use xlink:href="#mdd4633981a" x="292.127042" y="315.570471" style="fill: #1f77b4; stroke: #1f77b4"/>
     <use xlink:href="#mdd4633981a" x="337.678288" y="125.85529" style="fill: #1f77b4; stroke: #1f77b4"/>
     <use xlink:href="#mdd4633981a" x="383.229533" y="135.699698" style="fill: #1f77b4; stroke: #1f77b4"/>
     <use xlink:href="#mdd4633981a" x="428.780779" y="503.113946" style="fill: #1f77b4; stroke: #1f77b4"/>
     <use xlink:href="#mdd4633981a" x="474.332025" y="316.93348" style="fill: #1f77b4; stroke: #1f77b4"/>
     <use xlink:href="#mdd4633981a" x="519.88327" y="482.276118" style="fill: #1f77b4; stroke: #1f77b4"/>
     <use xlink:href="#mdd4633981a" x="565.434516" y="115.757981" style="fill: #1f77b4; stroke: #1f77b4"/>
     <use xlink:href="#mdd4633981a" x="610.985762" y="319.964531" style="fill: #1f77b4; stroke: #1f77b4"/>
     <use xlink:href="#mdd4633981a" x="656.537007" y="327.555115" style="fill: #1f77b4; stroke: #1f77b4"/>
    </g>
   </g>
   <g id="line2d_23">
    <path d="M 109.92206 318.600193 
L 155.473305 297.032015 
L 201.024551 309.519874 
L 246.575797 118.598976 
L 292.127042 274.806235 
L 337.678288 455.077386 
L 383.229533 489.516655 
L 428.780779 274.806235 
L 474.332025 302.750115 
L 519.88327 69.252626 
L 565.434516 46.813736 
L 610.985762 464.59372 
L 656.537007 94.39187 
L 702.088253 335.316656 
" clip-path="url(#p04cf403d48)" style="fill: none; stroke: #ff7f0e; stroke-width: 2; stroke-linecap: square"/>
    <defs>
     <path id="m7669177bae" d="M 0 3 
C 0.795609 3 1.55874 2.683901 2.12132 2.12132 
C 2.683901 1.55874 3 0.795609 3 0 
C 3 -0.795609 2.683901 -1.55874 2.12132 -2.12132 
C 1.55874 -2.683901 0.795609 -3 0 -3 
C -0.795609 -3 -1.55874 -2.683901 -2.12132 -2.12132 
C -2.683901 -1.55874 -3 -0.795609 -3 0 
C -3 0.795609 -2.683901 1.55874 -2.12132 2.12132 
C -1.55874 2.683901 -0.795609 3 0 3 
z
" style="stroke: #ff7f0e"/>
    </defs>
    <g clip-path="url(#p04cf403d48)">
     <use xlink:href="#m7669177bae" x="109.92206" y="318.600193" style="fill: #ff7f0e; stroke: #ff7f0e"/>
     <use xlink:href="#m7669177bae" x="155.473305" y="297.032015" style="fill: #ff7f0e; stroke: #ff7f0e"/>
     <use xlink:href="#m7669177bae" x="201.024551" y="309.519874" style="fill: #ff7f0e; stroke: #ff7f0e"/>
     <use xlink:href="#m7669177bae" x="246.575797" y="118.598976" style="fill: #ff7f0e; stroke: #ff7f0e"/>
     <use xlink:href="#m7669177bae" x="292.127042" y="274.806235" style="fill: #ff7f0e; stroke: #ff7f0e"/>
     <use xlink:href="#m7669177bae" x="337.678288" y="455.077386" style="fill: #ff7f0e; stroke: #ff7f0e"/>
     <use xlink:href="#m7669177bae" x="383.229533" y="489.516655" style="fill: #ff7f0e; stroke: #ff7f0e"/>
     <use xlink:href="#m7669177bae" x="428.780779" y="274.806235" style="fill: #ff7f0e; stroke: #ff7f0e"/>
     <use xlink:href="#m7669177bae" x="474.332025" y="302.750115" style="fill: #ff7f0e; stroke: #ff7f0e"/>
     <use xlink:href="#m7669177bae" x="519.88327" y="69.252626" style="fill: #ff7f0e; stroke: #ff7f0e"/>
     <use xlink:href="#m7669177bae" x="565.434516" y="46.813736" style="fill: #ff7f0e; stroke: #ff7f0e"/>
     <use xlink:href="#m7669177bae" x="610.985762" y="464.59372" style="fill: #ff7f0e; stroke: #ff7f0e"/>
     <use xlink:href="#m7669177bae" x="656.537007" y="94.39187" style="fill: #ff7f0e; stroke: #ff7f0e"/>
     <use xlink:href="#m7669177bae" x="702.088253" y="335.316656" style="fill: #ff7f0e; stroke: #ff7f0e"/>
    </g>
   </g>
   <g id="patch_3">
    <path d="M 80.31375 529.308125 
L 80.31375 23.837812 
" style="fill: none; stroke: #000000; stroke-width: 0.8; stroke-linejoin: miter; stroke-linecap: square"/>
   </g>
   <g id="patch_4">
    <path d="M 731.696562 529.308125 
L 731.696562 23.837812 
" style="fill: none; stroke: #000000; stroke-width: 0.8; stroke-linejoin: miter; stroke-linecap: square"/>
   </g>
   <g id="patch_5">
    <path d="M 80.31375 529.308125 
L 731.696562 529.308125 
" style="fill: none; stroke: #000000; stroke-width: 0.8; stroke-linejoin: miter; stroke-linecap: square"/>
   </g>
   <g id="patch_6">
    <path d="M 80.31375 23.837812 
L 731.696562 23.837812 
" style="fill: none; stroke: #000000; stroke-width: 0.8; stroke-linejoin: miter; stroke-linecap: square"/>
   </g>
   <g id="text_17">
    <text style="font: 700 14px 'DejaVu Sans', 'Bitstream Vera Sans', 'Computer Modern Sans Serif', 'Lucida Grande', 'Verdana', 'Geneva', 'Lucid', 'Arial', 'Helvetica', 'Avant Garde', sans-serif; text-anchor: middle" x="406.005156" y="17.837813" transform="rotate(-0 406.005156 17.837813)">Coalescing Arena Alloc Dealloc - Performance Trend</text>
   </g>
   <g id="legend_1">
    <g id="patch_7">
     <path d="M 771.265703 61.194063 
L 846.689141 61.194063 
Q 848.689141 61.194063 848.689141 59.194063 
L 848.689141 30.837813 
Q 848.689141 28.837813 846.689141 28.837813 
L 771.265703 28.837813 
Q 769.265703 28.837813 769.265703 30.837813 
L 769.265703 59.194063 
Q 769.265703 61.194063 771.265703 61.194063 
z
" style="fill: #ffffff; opacity: 0.8; stroke: #cccccc; stroke-linejoin: miter"/>
    </g>
    <g id="line2d_24">
     <path d="M 773.265703 36.93625 
L 783.265703 36.93625 
L 793.265703 36.93625 
" style="fill: none; stroke: #1f77b4; stroke-width: 2; stroke-linecap: square"/>
     <g>
      <use xlink:href="#mdd4633981a" x="783.265703" y="36.93625" style="fill: #1f77b4; stroke: #1f77b4"/>
     </g>
    </g>
    <g id="text_18">
     <text style="font: 10px 'DejaVu Sans', 'Bitstream Vera Sans', 'Computer Modern Sans Serif', 'Lucida Grande', 'Verdana', 'Geneva', 'Lucid', 'Arial', 'Helvetica', 'Avant Garde', sans-serif; text-anchor: start" x="801.265703" y="40.43625" transform="rotate(-0 801.265703 40.43625)">clang-18</text>
    </g>
    <g id="line2d_25">
     <path d="M 773.265703 51.614375 
L 783.265703 51.614375 
L 793.265703 51.614375 
" style="fill: none; stroke: #ff7f0e; stroke-width: 2; stroke-linecap: square"/>
     <g>
      <use xlink:href="#m7669177bae" x="783.265703" y="51.614375" style="fill: #ff7f0e; stroke: #ff7f0e"/>
     </g>
    </g>
    <g id="text_19">
     <text style="font: 10px 'DejaVu Sans', 'Bitstream Vera Sans', 'Computer Modern Sans Serif', 'Lucida Grande', 'Verdana', 'Geneva', 'Lucid', 'Arial', 'Helvetica', 'Avant Garde', sans-serif; text-anchor: start" x="801.265703" y="55.114375" transform="rotate(-0 801.265703 55.114375)">gcc-14</text>
    </g>
   </g>
  </g>
 </g>
 <defs>
  <clipPath id="p04cf403d48">
   <rect x="80.31375" y="23.837813" width="651.382812" height="505.470313"/>
  </clipPath>
 </defs>
</svg>
