<?xml version="1.0" encoding="utf-8" standalone="no"?>
<!DOCTYPE svg PUBLIC "-//W3C//DTD SVG 1.1//EN"
  "http://www.w3.org/Graphics/SVG/1.1/DTD/svg11.dtd">
<svg xmlns:xlink="http://www.w3.org/1999/xlink" width="848.869766pt" height="568.8pt" viewBox="0 0 848.869766 568.8" xmlns="http://www.w3.org/2000/svg" version="1.1">
 <metadata>
  <rdf:RDF xmlns:dc="http://purl.org/dc/elements/1.1/" xmlns:cc="http://creativecommons.org/ns#" xmlns:rdf="http://www.w3.org/1999/02/22-rdf-syntax-ns#">
   <cc:Work>
    <dc:type rdf:resource="http://purl.org/dc/dcmitype/StillImage"/>
    <dc:date>2025-08-30T20:18:25.318090</dc:date>
    <dc:format>image/svg+xml</dc:format>
    <dc:creator>
     <cc:Agent>
      <dc:title>Matplotlib v3.9.4, https://matplotlib.org/</dc:title>
     </cc:Agent>
    </dc:creator>
   </cc:Work>
  </rdf:RDF>
 </metadata>
 <defs>
  <style type="text/css">*{stroke-linejoin: round; stroke-linecap: butt}</style>
 </defs>
 <g id="figure_1">
  <g id="patch_1">
   <path d="M 0 568.8 
L 848.869766 568.8 
L 848.869766 0 
L 0 0 
z
" style="fill: #ffffff"/>
  </g>
  <g id="axes_1">
   <g id="patch_2">
    <path d="M 86.71375 529.308125 
L 597.709062 529.308125 
L 597.709062 23.837812 
L 86.71375 23.837812 
z
" style="fill: #ffffff"/>
   </g>
   <g id="matplotlib.axis_1">
    <g id="xtick_1">
     <g id="line2d_1">
      <path d="M 109.94081 529.308125 
L 109.94081 23.837812 
" clip-path="url(#p7048c6dc7d)" style="fill: none; stroke: #b0b0b0; stroke-opacity: 0.3; stroke-width: 0.8; stroke-linecap: square"/>
     </g>
     <g id="line2d_2">
      <defs>
       <path id="mcd91cf0ae4" d="M 0 0 
L 0 3.5 
" style="stroke: #000000; stroke-width: 0.8"/>
      </defs>
      <g>
       <use xlink:href="#mcd91cf0ae4" x="109.94081" y="529.308125" style="stroke: #000000; stroke-width: 0.8"/>
      </g>
     </g>
     <g id="text_1">
      <text style="font: 10px 'DejaVu Sans', 'Bitstream Vera Sans', 'Computer Modern Sans Serif', 'Lucida Grande', 'Verdana', 'Geneva', 'Lucid', 'Arial', 'Helvetica', 'Avant Garde', sans-serif; text-anchor: middle" x="109.94081" y="543.906563" transform="rotate(-0 109.94081 543.906563)">96</text>
     </g>
    </g>
    <g id="xtick_2">
     <g id="line2d_3">
      <path d="M 168.008459 529.308125 
L 168.008459 23.837812 
" clip-path="url(#p7048c6dc7d)" style="fill: none; stroke: #b0b0b0; stroke-opacity: 0.3; stroke-width: 0.8; stroke-linecap: square"/>
     </g>
     <g id="line2d_4">
      <g>
       <use xlink:href="#mcd91cf0ae4" x="168.008459" y="529.308125" style="stroke: #000000; stroke-width: 0.8"/>
      </g>
     </g>
     <g id="text_2">
      <text style="font: 10px 'DejaVu Sans', 'Bitstream Vera Sans', 'Computer Modern Sans Serif', 'Lucida Grande', 'Verdana', 'Geneva', 'Lucid', 'Arial', 'Helvetica', 'Avant Garde', sans-serif; text-anchor: middle" x="168.008459" y="543.906563" transform="rotate(-0 168.008459 543.906563)">98</text>
     </g>
    </g>
    <g id="xtick_3">
     <g id="line2d_5">
      <path d="M 226.076108 529.308125 
L 226.076108 23.837812 
" clip-path="url(#p7048c6dc7d)" style="fill: none; stroke: #b0b0b0; stroke-opacity: 0.3; stroke-width: 0.8; stroke-linecap: square"/>
     </g>
     <g id="line2d_6">
      <g>
       <use xlink:href="#mcd91cf0ae4" x="226.076108" y="529.308125" style="stroke: #000000; stroke-width: 0.8"/>
      </g>
     </g>
     <g id="text_3">
      <text style="font: 10px 'DejaVu Sans', 'Bitstream Vera Sans', 'Computer Modern Sans Serif', 'Lucida Grande', 'Verdana', 'Geneva', 'Lucid', 'Arial', 'Helvetica', 'Avant Garde', sans-serif; text-anchor: middle" x="226.076108" y="543.906563" transform="rotate(-0 226.076108 543.906563)">100</text>
     </g>
    </g>
    <g id="xtick_4">
     <g id="line2d_7">
      <path d="M 284.143757 529.308125 
L 284.143757 23.837812 
" clip-path="url(#p7048c6dc7d)" style="fill: none; stroke: #b0b0b0; stroke-opacity: 0.3; stroke-width: 0.8; stroke-linecap: square"/>
     </g>
     <g id="line2d_8">
      <g>
       <use xlink:href="#mcd91cf0ae4" x="284.143757" y="529.308125" style="stroke: #000000; stroke-width: 0.8"/>
      </g>
     </g>
     <g id="text_4">
      <text style="font: 10px 'DejaVu Sans', 'Bitstream Vera Sans', 'Computer Modern Sans Serif', 'Lucida Grande', 'Verdana', 'Geneva', 'Lucid', 'Arial', 'Helvetica', 'Avant Garde', sans-serif; text-anchor: middle" x="284.143757" y="543.906563" transform="rotate(-0 284.143757 543.906563)">102</text>
     </g>
    </g>
    <g id="xtick_5">
     <g id="line2d_9">
      <path d="M 342.211406 529.308125 
L 342.211406 23.837812 
" clip-path="url(#p7048c6dc7d)" style="fill: none; stroke: #b0b0b0; stroke-opacity: 0.3; stroke-width: 0.8; stroke-linecap: square"/>
     </g>
     <g id="line2d_10">
      <g>
       <use xlink:href="#mcd91cf0ae4" x="342.211406" y="529.308125" style="stroke: #000000; stroke-width: 0.8"/>
      </g>
     </g>
     <g id="text_5">
      <text style="font: 10px 'DejaVu Sans', 'Bitstream Vera Sans', 'Computer Modern Sans Serif', 'Lucida Grande', 'Verdana', 'Geneva', 'Lucid', 'Arial', 'Helvetica', 'Avant Garde', sans-serif; text-anchor: middle" x="342.211406" y="543.906563" transform="rotate(-0 342.211406 543.906563)">104</text>
     </g>
    </g>
    <g id="xtick_6">
     <g id="line2d_11">
      <path d="M 400.279055 529.308125 
L 400.279055 23.837812 
" clip-path="url(#p7048c6dc7d)" style="fill: none; stroke: #b0b0b0; stroke-opacity: 0.3; stroke-width: 0.8; stroke-linecap: square"/>
     </g>
     <g id="line2d_12">
      <g>
       <use xlink:href="#mcd91cf0ae4" x="400.279055" y="529.308125" style="stroke: #000000; stroke-width: 0.8"/>
      </g>
     </g>
     <g id="text_6">
      <text style="font: 10px 'DejaVu Sans', 'Bitstream Vera Sans', 'Computer Modern Sans Serif', 'Lucida Grande', 'Verdana', 'Geneva', 'Lucid', 'Arial', 'Helvetica', 'Avant Garde', sans-serif; text-anchor: middle" x="400.279055" y="543.906563" transform="rotate(-0 400.279055 543.906563)">106</text>
     </g>
    </g>
    <g id="xtick_7">
     <g id="line2d_13">
      <path d="M 458.346705 529.308125 
L 458.346705 23.837812 
" clip-path="url(#p7048c6dc7d)" style="fill: none; stroke: #b0b0b0; stroke-opacity: 0.3; stroke-width: 0.8; stroke-linecap: square"/>
     </g>
     <g id="line2d_14">
      <g>
       <use xlink:href="#mcd91cf0ae4" x="458.346705" y="529.308125" style="stroke: #000000; stroke-width: 0.8"/>
      </g>
     </g>
     <g id="text_7">
      <text style="font: 10px 'DejaVu Sans', 'Bitstream Vera Sans', 'Computer Modern Sans Serif', 'Lucida Grande', 'Verdana', 'Geneva', 'Lucid', 'Arial', 'Helvetica', 'Avant Garde', sans-serif; text-anchor: middle" x="458.346705" y="543.906563" transform="rotate(-0 458.346705 543.906563)">108</text>
     </g>
    </g>
    <g id="xtick_8">
     <g id="line2d_15">
      <path d="M 516.414354 529.308125 
L 516.414354 23.837812 
" clip-path="url(#p7048c6dc7d)" style="fill: none; stroke: #b0b0b0; stroke-opacity: 0.3; stroke-width: 0.8; stroke-linecap: square"/>
     </g>
     <g id="line2d_16">
      <g>
       <use xlink:href="#mcd91cf0ae4" x="516.414354" y="529.308125" style="stroke: #000000; stroke-width: 0.8"/>
      </g>
     </g>
     <g id="text_8">
      <text style="font: 10px 'DejaVu Sans', 'Bitstream Vera Sans', 'Computer Modern Sans Serif', 'Lucida Grande', 'Verdana', 'Geneva', 'Lucid', 'Arial', 'Helvetica', 'Avant Garde', sans-serif; text-anchor: middle" x="516.414354" y="543.906563" transform="rotate(-0 516.414354 543.906563)">110</text>
     </g>
    </g>
    <g id="xtick_9">
     <g id="line2d_17">
      <path d="M 574.482003 529.308125 
L 574.482003 23.837812 
" clip-path="url(#p7048c6dc7d)" style="fill: none; stroke: #b0b0b0; stroke-opacity: 0.3; stroke-width: 0.8; stroke-linecap: square"/>
     </g>
     <g id="line2d_18">
      <g>
       <use xlink:href="#mcd91cf0ae4" x="574.482003" y="529.308125" style="stroke: #000000; stroke-width: 0.8"/>
      </g>
     </g>
     <g id="text_9">
      <text style="font: 10px 'DejaVu Sans', 'Bitstream Vera Sans', 'Computer Modern Sans Serif', 'Lucida Grande', 'Verdana', 'Geneva', 'Lucid', 'Arial', 'Helvetica', 'Avant Garde', sans-serif; text-anchor: middle" x="574.482003" y="543.906563" transform="rotate(-0 574.482003 543.906563)">112</text>
     </g>
    </g>
    <g id="text_10">
     <text style="font: 12px 'DejaVu Sans', 'Bitstream Vera Sans', 'Computer Modern Sans Serif', 'Lucida Grande', 'Verdana', 'Geneva', 'Lucid', 'Arial', 'Helvetica', 'Avant Garde', sans-serif; text-anchor: middle" x="342.211406" y="559.104375" transform="rotate(-0 342.211406 559.104375)">Build Number</text>
    </g>
   </g>
   <g id="matplotlib.axis_2">
    <g id="ytick_1">
     <g id="line2d_19">
      <defs>
       <path id="m656555d9e8" d="M 0 0 
L -2 0 
" style="stroke: #000000; stroke-width: 0.6"/>
      </defs>
      <g>
       <use xlink:href="#m656555d9e8" x="86.71375" y="506.31532" style="stroke: #000000; stroke-width: 0.6"/>
      </g>
     </g>
     <g id="text_11">
      <!-- $\mathdefault{5.006\times10^{7}}$ -->
      <g transform="translate(22.81375 510.114539)">
       <text>
        <tspan style="font: 10px 'DejaVu Sans'" x="0 6.362305 9.541016 15.90332 22.265625 30.576172 40.90332 47.265625" y="-0.06406250000000036">5.006×10</tspan>
        <tspan style="font: 7px 'DejaVu Sans'" x="53.723633" y="-3.8921875000000004">7</tspan>
       </text>
      </g>
     </g>
    </g>
    <g id="ytick_2">
     <g id="line2d_20">
      <g>
       <use xlink:href="#m656555d9e8" x="86.71375" y="400.824495" style="stroke: #000000; stroke-width: 0.6"/>
      </g>
     </g>
     <g id="text_12">
      <!-- $\mathdefault{5.008\times10^{7}}$ -->
      <g transform="translate(22.81375 404.623714)">
       <text>
        <tspan style="font: 10px 'DejaVu Sans'" x="0 6.362305 9.541016 15.90332 22.265625 30.576172 40.90332 47.265625" y="-0.06406250000000036">5.008×10</tspan>
        <tspan style="font: 7px 'DejaVu Sans'" x="53.723633" y="-3.8921875000000004">7</tspan>
       </text>
      </g>
     </g>
    </g>
    <g id="ytick_3">
     <g id="line2d_21">
      <g>
       <use xlink:href="#m656555d9e8" x="86.71375" y="295.375791" style="stroke: #000000; stroke-width: 0.6"/>
      </g>
     </g>
     <g id="text_13">
      <!-- $\mathdefault{5.01\times10^{7}}$ -->
      <g transform="translate(29.21375 299.17501)">
       <text>
        <tspan style="font: 10px 'DejaVu Sans'" x="0 6.362305 9.541016 15.90332 24.213867 34.541016 40.90332" y="-0.06406250000000036">5.01×10</tspan>
        <tspan style="font: 7px 'DejaVu Sans'" x="47.361328" y="-3.8921875000000004">7</tspan>
       </text>
      </g>
     </g>
    </g>
    <g id="ytick_4">
     <g id="line2d_22">
      <g>
       <use xlink:href="#m656555d9e8" x="86.71375" y="189.969174" style="stroke: #000000; stroke-width: 0.6"/>
      </g>
     </g>
     <g id="text_14">
      <!-- $\mathdefault{5.012\times10^{7}}$ -->
      <g transform="translate(22.81375 193.768393)">
       <text>
        <tspan style="font: 10px 'DejaVu Sans'" x="0 6.362305 9.541016 15.90332 22.265625 30.576172 40.90332 47.265625" y="-0.06406250000000036">5.012×10</tspan>
        <tspan style="font: 7px 'DejaVu Sans'" x="53.723633" y="-3.8921875000000004">7</tspan>
       </text>
      </g>
     </g>
    </g>
    <g id="ytick_5">
     <g id="line2d_23">
      <g>
       <use xlink:href="#m656555d9e8" x="86.71375" y="84.60461" style="stroke: #000000; stroke-width: 0.6"/>
      </g>
     </g>
     <g id="text_15">
      <!-- $\mathdefault{5.014\times10^{7}}$ -->
      <g transform="translate(22.81375 88.403829)">
       <text>
        <tspan style="font: 10px 'DejaVu Sans'" x="0 6.362305 9.541016 15.90332 22.265625 30.576172 40.90332 47.265625" y="-0.06406250000000036">5.014×10</tspan>
        <tspan style="font: 7px 'DejaVu Sans'" x="53.723633" y="-3.8921875000000004">7</tspan>
       </text>
      </g>
     </g>
    </g>
    <g id="text_16">
     <text style="font: 12px 'DejaVu Sans', 'Bitstream Vera Sans', 'Computer Modern Sans Serif', 'Lucida Grande', 'Verdana', 'Geneva', 'Lucid', 'Arial', 'Helvetica', 'Avant Garde', sans-serif; text-anchor: middle" x="16.318125" y="276.572969" transform="rotate(-90 16.318125 276.572969)">Median Elapsed Time (nanoseconds)</text>
    </g>
   </g>
   <g id="line2d_24">
    <path d="M 109.94081 462.223469 
L 138.974634 461.895909 
L 197.042283 482.24968 
L 226.076108 492.14387 
L 255.109933 485.598344 
L 284.143757 482.751872 
L 313.177582 490.049579 
L 342.211406 479.868505 
L 371.245231 458.381923 
L 400.279055 458.882486 
L 458.346705 445.454103 
L 487.380529 455.989885 
L 516.414354 480.544769 
L 545.448178 471.235472 
L 574.482003 478.411535 
" clip-path="url(#p7048c6dc7d)" style="fill: none; stroke: #1f77b4; stroke-width: 2; stroke-linecap: square"/>
    <defs>
     <path id="m6090fbeeef" d="M 0 3 
C 0.795609 3 1.55874 2.683901 2.12132 2.12132 
C 2.683901 1.55874 3 0.795609 3 0 
C 3 -0.795609 2.683901 -1.55874 2.12132 -2.12132 
C 1.55874 -2.683901 0.795609 -3 0 -3 
C -0.795609 -3 -1.55874 -2.683901 -2.12132 -2.12132 
C -2.683901 -1.55874 -3 -0.795609 -3 0 
C -3 0.795609 -2.683901 1.55874 -2.12132 2.12132 
C -1.55874 2.683901 -0.795609 3 0 3 
z
" style="stroke: #1f77b4"/>
    </defs>
    <g clip-path="url(#p7048c6dc7d)">
     <use xlink:href="#m6090fbeeef" x="109.94081" y="462.223469" style="fill: #1f77b4; stroke: #1f77b4"/>
     <use xlink:href="#m6090fbeeef" x="138.974634" y="461.895909" style="fill: #1f77b4; stroke: #1f77b4"/>
     <use xlink:href="#m6090fbeeef" x="197.042283" y="482.24968" style="fill: #1f77b4; stroke: #1f77b4"/>
     <use xlink:href="#m6090fbeeef" x="226.076108" y="492.14387" style="fill: #1f77b4; stroke: #1f77b4"/>
     <use xlink:href="#m6090fbeeef" x="255.109933" y="485.598344" style="fill: #1f77b4; stroke: #1f77b4"/>
     <use xlink:href="#m6090fbeeef" x="284.143757" y="482.751872" style="fill: #1f77b4; stroke: #1f77b4"/>
     <use xlink:href="#m6090fbeeef" x="313.177582" y="490.049579" style="fill: #1f77b4; stroke: #1f77b4"/>
     <use xlink:href="#m6090fbeeef" x="342.211406" y="479.868505" style="fill: #1f77b4; stroke: #1f77b4"/>
     <use xlink:href="#m6090fbeeef" x="371.245231" y="458.381923" style="fill: #1f77b4; stroke: #1f77b4"/>
     <use xlink:href="#m6090fbeeef" x="400.279055" y="458.882486" style="fill: #1f77b4; stroke: #1f77b4"/>
     <use xlink:href="#m6090fbeeef" x="458.346705" y="445.454103" style="fill: #1f77b4; stroke: #1f77b4"/>
     <use xlink:href="#m6090fbeeef" x="487.380529" y="455.989885" style="fill: #1f77b4; stroke: #1f77b4"/>
     <use xlink:href="#m6090fbeeef" x="516.414354" y="480.544769" style="fill: #1f77b4; stroke: #1f77b4"/>
     <use xlink:href="#m6090fbeeef" x="545.448178" y="471.235472" style="fill: #1f77b4; stroke: #1f77b4"/>
     <use xlink:href="#m6090fbeeef" x="574.482003" y="478.411535" style="fill: #1f77b4; stroke: #1f77b4"/>
    </g>
   </g>
   <g id="line2d_25">
    <path d="M 109.94081 118.629081 
L 138.974634 104.141294 
L 197.042283 226.661714 
L 226.076108 59.289135 
L 255.109933 238.163237 
L 284.143757 235.659885 
L 313.177582 214.331756 
L 342.211406 247.463268 
L 371.245231 77.462941 
L 400.279055 127.678359 
L 458.346705 46.813736 
L 487.380529 55.234355 
L 516.414354 239.133491 
L 545.448178 183.378969 
L 574.482003 239.563017 
" clip-path="url(#p7048c6dc7d)" style="fill: none; stroke: #ff7f0e; stroke-width: 2; stroke-linecap: square"/>
    <defs>
     <path id="m5c083882d0" d="M 0 3 
C 0.795609 3 1.55874 2.683901 2.12132 2.12132 
C 2.683901 1.55874 3 0.795609 3 0 
C 3 -0.795609 2.683901 -1.55874 2.12132 -2.12132 
C 1.55874 -2.683901 0.795609 -3 0 -3 
C -0.795609 -3 -1.55874 -2.683901 -2.12132 -2.12132 
C -2.683901 -1.55874 -3 -0.795609 -3 0 
C -3 0.795609 -2.683901 1.55874 -2.12132 2.12132 
C -1.55874 2.683901 -0.795609 3 0 3 
z
" style="stroke: #ff7f0e"/>
    </defs>
    <g clip-path="url(#p7048c6dc7d)">
     <use xlink:href="#m5c083882d0" x="109.94081" y="118.629081" style="fill: #ff7f0e; stroke: #ff7f0e"/>
     <use xlink:href="#m5c083882d0" x="138.974634" y="104.141294" style="fill: #ff7f0e; stroke: #ff7f0e"/>
     <use xlink:href="#m5c083882d0" x="197.042283" y="226.661714" style="fill: #ff7f0e; stroke: #ff7f0e"/>
     <use xlink:href="#m5c083882d0" x="226.076108" y="59.289135" style="fill: #ff7f0e; stroke: #ff7f0e"/>
     <use xlink:href="#m5c083882d0" x="255.109933" y="238.163237" style="fill: #ff7f0e; stroke: #ff7f0e"/>
     <use xlink:href="#m5c083882d0" x="284.143757" y="235.659885" style="fill: #ff7f0e; stroke: #ff7f0e"/>
     <use xlink:href="#m5c083882d0" x="313.177582" y="214.331756" style="fill: #ff7f0e; stroke: #ff7f0e"/>
     <use xlink:href="#m5c083882d0" x="342.211406" y="247.463268" style="fill: #ff7f0e; stroke: #ff7f0e"/>
     <use xlink:href="#m5c083882d0" x="371.245231" y="77.462941" style="fill: #ff7f0e; stroke: #ff7f0e"/>
     <use xlink:href="#m5c083882d0" x="400.279055" y="127.678359" style="fill: #ff7f0e; stroke: #ff7f0e"/>
     <use xlink:href="#m5c083882d0" x="458.346705" y="46.813736" style="fill: #ff7f0e; stroke: #ff7f0e"/>
     <use xlink:href="#m5c083882d0" x="487.380529" y="55.234355" style="fill: #ff7f0e; stroke: #ff7f0e"/>
     <use xlink:href="#m5c083882d0" x="516.414354" y="239.133491" style="fill: #ff7f0e; stroke: #ff7f0e"/>
     <use xlink:href="#m5c083882d0" x="545.448178" y="183.378969" style="fill: #ff7f0e; stroke: #ff7f0e"/>
     <use xlink:href="#m5c083882d0" x="574.482003" y="239.563017" style="fill: #ff7f0e; stroke: #ff7f0e"/>
    </g>
   </g>
   <g id="line2d_26">
    <path d="M 109.94081 469.613974 
L 138.974634 484.250539 
L 197.042283 503.161588 
L 226.076108 459.453731 
L 255.109933 501.984092 
L 284.143757 505.309266 
L 313.177582 482.462795 
L 342.211406 475.391594 
L 371.245231 481.05065 
L 400.279055 479.68335 
L 458.346705 506.332202 
L 487.380529 484.613997 
L 516.414354 475.064545 
L 574.482003 474.901549 
" clip-path="url(#p7048c6dc7d)" style="fill: none; stroke: #2ca02c; stroke-width: 2; stroke-linecap: square"/>
    <defs>
     <path id="mb6f8907987" d="M 0 3 
C 0.795609 3 1.55874 2.683901 2.12132 2.12132 
C 2.683901 1.55874 3 0.795609 3 0 
C 3 -0.795609 2.683901 -1.55874 2.12132 -2.12132 
C 1.55874 -2.683901 0.795609 -3 0 -3 
C -0.795609 -3 -1.55874 -2.683901 -2.12132 -2.12132 
C -2.683901 -1.55874 -3 -0.795609 -3 0 
C -3 0.795609 -2.683901 1.55874 -2.12132 2.12132 
C -1.55874 2.683901 -0.795609 3 0 3 
z
" style="stroke: #2ca02c"/>
    </defs>
    <g clip-path="url(#p7048c6dc7d)">
     <use xlink:href="#mb6f8907987" x="109.94081" y="469.613974" style="fill: #2ca02c; stroke: #2ca02c"/>
     <use xlink:href="#mb6f8907987" x="138.974634" y="484.250539" style="fill: #2ca02c; stroke: #2ca02c"/>
     <use xlink:href="#mb6f8907987" x="197.042283" y="503.161588" style="fill: #2ca02c; stroke: #2ca02c"/>
     <use xlink:href="#mb6f8907987" x="226.076108" y="459.453731" style="fill: #2ca02c; stroke: #2ca02c"/>
     <use xlink:href="#mb6f8907987" x="255.109933" y="501.984092" style="fill: #2ca02c; stroke: #2ca02c"/>
     <use xlink:href="#mb6f8907987" x="284.143757" y="505.309266" style="fill: #2ca02c; stroke: #2ca02c"/>
     <use xlink:href="#mb6f8907987" x="313.177582" y="482.462795" style="fill: #2ca02c; stroke: #2ca02c"/>
     <use xlink:href="#mb6f8907987" x="342.211406" y="475.391594" style="fill: #2ca02c; stroke: #2ca02c"/>
     <use xlink:href="#mb6f8907987" x="371.245231" y="481.05065" style="fill: #2ca02c; stroke: #2ca02c"/>
     <use xlink:href="#mb6f8907987" x="400.279055" y="479.68335" style="fill: #2ca02c; stroke: #2ca02c"/>
     <use xlink:href="#mb6f8907987" x="458.346705" y="506.332202" style="fill: #2ca02c; stroke: #2ca02c"/>
     <use xlink:href="#mb6f8907987" x="487.380529" y="484.613997" style="fill: #2ca02c; stroke: #2ca02c"/>
     <use xlink:href="#mb6f8907987" x="516.414354" y="475.064545" style="fill: #2ca02c; stroke: #2ca02c"/>
     <use xlink:href="#mb6f8907987" x="574.482003" y="474.901549" style="fill: #2ca02c; stroke: #2ca02c"/>
    </g>
   </g>
   <g id="line2d_27">
    <path d="M 109.94081 148.272444 
L 138.974634 242.58448 
L 197.042283 239.330598 
L 226.076108 206.867239 
L 255.109933 234.108345 
L 284.143757 232.07776 
L 313.177582 211.742206 
L 342.211406 225.168724 
L 371.245231 242.956565 
L 400.279055 228.852994 
L 458.346705 210.062227 
L 487.380529 227.495431 
L 516.414354 223.676797 
L 574.482003 235.28781 
" clip-path="url(#p7048c6dc7d)" style="fill: none; stroke: #d62728; stroke-width: 2; stroke-linecap: square"/>
    <defs>
     <path id="m5f40938023" d="M 0 3 
C 0.795609 3 1.55874 2.683901 2.12132 2.12132 
C 2.683901 1.55874 3 0.795609 3 0 
C 3 -0.795609 2.683901 -1.55874 2.12132 -2.12132 
C 1.55874 -2.683901 0.795609 -3 0 -3 
C -0.795609 -3 -1.55874 -2.683901 -2.12132 -2.12132 
C -2.683901 -1.55874 -3 -0.795609 -3 0 
C -3 0.795609 -2.683901 1.55874 -2.12132 2.12132 
C -1.55874 2.683901 -0.795609 3 0 3 
z
" style="stroke: #d62728"/>
    </defs>
    <g clip-path="url(#p7048c6dc7d)">
     <use xlink:href="#m5f40938023" x="109.94081" y="148.272444" style="fill: #d62728; stroke: #d62728"/>
     <use xlink:href="#m5f40938023" x="138.974634" y="242.58448" style="fill: #d62728; stroke: #d62728"/>
     <use xlink:href="#m5f40938023" x="197.042283" y="239.330598" style="fill: #d62728; stroke: #d62728"/>
     <use xlink:href="#m5f40938023" x="226.076108" y="206.867239" style="fill: #d62728; stroke: #d62728"/>
     <use xlink:href="#m5f40938023" x="255.109933" y="234.108345" style="fill: #d62728; stroke: #d62728"/>
     <use xlink:href="#m5f40938023" x="284.143757" y="232.07776" style="fill: #d62728; stroke: #d62728"/>
     <use xlink:href="#m5f40938023" x="313.177582" y="211.742206" style="fill: #d62728; stroke: #d62728"/>
     <use xlink:href="#m5f40938023" x="342.211406" y="225.168724" style="fill: #d62728; stroke: #d62728"/>
     <use xlink:href="#m5f40938023" x="371.245231" y="242.956565" style="fill: #d62728; stroke: #d62728"/>
     <use xlink:href="#m5f40938023" x="400.279055" y="228.852994" style="fill: #d62728; stroke: #d62728"/>
     <use xlink:href="#m5f40938023" x="458.346705" y="210.062227" style="fill: #d62728; stroke: #d62728"/>
     <use xlink:href="#m5f40938023" x="487.380529" y="227.495431" style="fill: #d62728; stroke: #d62728"/>
     <use xlink:href="#m5f40938023" x="516.414354" y="223.676797" style="fill: #d62728; stroke: #d62728"/>
     <use xlink:href="#m5f40938023" x="574.482003" y="235.28781" style="fill: #d62728; stroke: #d62728"/>
    </g>
   </g>
   <g id="patch_3">
    <path d="M 86.71375 529.308125 
L 86.71375 23.837813 
" style="fill: none; stroke: #000000; stroke-width: 0.8; stroke-linejoin: miter; stroke-linecap: square"/>
   </g>
   <g id="patch_4">
    <path d="M 597.709062 529.308125 
L 597.709062 23.837813 
" style="fill: none; stroke: #000000; stroke-width: 0.8; stroke-linejoin: miter; stroke-linecap: square"/>
   </g>
   <g id="patch_5">
    <path d="M 86.71375 529.308125 
L 597.709063 529.308125 
" style="fill: none; stroke: #000000; stroke-width: 0.8; stroke-linejoin: miter; stroke-linecap: square"/>
   </g>
   <g id="patch_6">
    <path d="M 86.71375 23.837812 
L 597.709063 23.837812 
" style="fill: none; stroke: #000000; stroke-width: 0.8; stroke-linejoin: miter; stroke-linecap: square"/>
   </g>
   <g id="text_17">
    <text style="font: 700 14px 'DejaVu Sans', 'Bitstream Vera Sans', 'Computer Modern Sans Serif', 'Lucida Grande', 'Verdana', 'Geneva', 'Lucid', 'Arial', 'Helvetica', 'Avant Garde', sans-serif; text-anchor: middle" x="342.211406" y="17.837813" transform="rotate(-0 342.211406 17.837813)">Coroutine Suspension - Performance Trend</text>
   </g>
   <g id="legend_1">
    <g id="patch_7">
     <path d="M 630.258828 91.662813 
L 839.669766 91.662813 
Q 841.669766 91.662813 841.669766 89.662813 
L 841.669766 30.837813 
Q 841.669766 28.837813 839.669766 28.837813 
L 630.258828 28.837813 
Q 628.258828 28.837813 628.258828 30.837813 
L 628.258828 89.662813 
Q 628.258828 91.662813 630.258828 91.662813 
z
" style="fill: #ffffff; opacity: 0.8; stroke: #cccccc; stroke-linejoin: miter"/>
    </g>
    <g id="line2d_28">
     <path d="M 632.258828 36.93625 
L 642.258828 36.93625 
L 652.258828 36.93625 
" style="fill: none; stroke: #1f77b4; stroke-width: 2; stroke-linecap: square"/>
     <g>
      <use xlink:href="#m6090fbeeef" x="642.258828" y="36.93625" style="fill: #1f77b4; stroke: #1f77b4"/>
     </g>
    </g>
    <g id="text_18">
     <text style="font: 10px 'DejaVu Sans', 'Bitstream Vera Sans', 'Computer Modern Sans Serif', 'Lucida Grande', 'Verdana', 'Geneva', 'Lucid', 'Arial', 'Helvetica', 'Avant Garde', sans-serif; text-anchor: start" x="660.258828" y="40.43625" transform="rotate(-0 660.258828 40.43625)">gcc-14.2 - SuspensionOverhead_V1</text>
    </g>
    <g id="line2d_29">
     <path d="M 632.258828 51.8925 
L 642.258828 51.8925 
L 652.258828 51.8925 
" style="fill: none; stroke: #ff7f0e; stroke-width: 2; stroke-linecap: square"/>
     <g>
      <use xlink:href="#m5c083882d0" x="642.258828" y="51.8925" style="fill: #ff7f0e; stroke: #ff7f0e"/>
     </g>
    </g>
    <g id="text_19">
     <text style="font: 10px 'DejaVu Sans', 'Bitstream Vera Sans', 'Computer Modern Sans Serif', 'Lucida Grande', 'Verdana', 'Geneva', 'Lucid', 'Arial', 'Helvetica', 'Avant Garde', sans-serif; text-anchor: start" x="660.258828" y="55.3925" transform="rotate(-0 660.258828 55.3925)">gcc-14.2 - SuspensionOverhead_V2</text>
    </g>
    <g id="line2d_30">
     <path d="M 632.258828 66.84875 
L 642.258828 66.84875 
L 652.258828 66.84875 
" style="fill: none; stroke: #2ca02c; stroke-width: 2; stroke-linecap: square"/>
     <g>
      <use xlink:href="#mb6f8907987" x="642.258828" y="66.84875" style="fill: #2ca02c; stroke: #2ca02c"/>
     </g>
    </g>
    <g id="text_20">
     <text style="font: 10px 'DejaVu Sans', 'Bitstream Vera Sans', 'Computer Modern Sans Serif', 'Lucida Grande', 'Verdana', 'Geneva', 'Lucid', 'Arial', 'Helvetica', 'Avant Garde', sans-serif; text-anchor: start" x="660.258828" y="70.34875" transform="rotate(-0 660.258828 70.34875)">gcc-4.2 - SuspensionOverhead_V1</text>
    </g>
    <g id="line2d_31">
     <path d="M 632.258828 81.805 
L 642.258828 81.805 
L 652.258828 81.805 
" style="fill: none; stroke: #d62728; stroke-width: 2; stroke-linecap: square"/>
     <g>
      <use xlink:href="#m5f40938023" x="642.258828" y="81.805" style="fill: #d62728; stroke: #d62728"/>
     </g>
    </g>
    <g id="text_21">
     <text style="font: 10px 'DejaVu Sans', 'Bitstream Vera Sans', 'Computer Modern Sans Serif', 'Lucida Grande', 'Verdana', 'Geneva', 'Lucid', 'Arial', 'Helvetica', 'Avant Garde', sans-serif; text-anchor: start" x="660.258828" y="85.305" transform="rotate(-0 660.258828 85.305)">gcc-4.2 - SuspensionOverhead_V2</text>
    </g>
   </g>
  </g>
 </g>
 <defs>
  <clipPath id="p7048c6dc7d">
   <rect x="86.71375" y="23.837813" width="510.995312" height="505.470313"/>
  </clipPath>
 </defs>
</svg>
