<?xml version="1.0" encoding="utf-8" standalone="no"?>
<!DOCTYPE svg PUBLIC "-//W3C//DTD SVG 1.1//EN"
  "http://www.w3.org/Graphics/SVG/1.1/DTD/svg11.dtd">
<svg xmlns:xlink="http://www.w3.org/1999/xlink" width="855.204687pt" height="568.8pt" viewBox="0 0 855.204687 568.8" xmlns="http://www.w3.org/2000/svg" version="1.1">
 <metadata>
  <rdf:RDF xmlns:dc="http://purl.org/dc/elements/1.1/" xmlns:cc="http://creativecommons.org/ns#" xmlns:rdf="http://www.w3.org/1999/02/22-rdf-syntax-ns#">
   <cc:Work>
    <dc:type rdf:resource="http://purl.org/dc/dcmitype/StillImage"/>
    <dc:date>2025-08-30T22:53:02.393921</dc:date>
    <dc:format>image/svg+xml</dc:format>
    <dc:creator>
     <cc:Agent>
      <dc:title>Matplotlib v3.9.4, https://matplotlib.org/</dc:title>
     </cc:Agent>
    </dc:creator>
   </cc:Work>
  </rdf:RDF>
 </metadata>
 <defs>
  <style type="text/css">*{stroke-linejoin: round; stroke-linecap: butt}</style>
 </defs>
 <g id="figure_1">
  <g id="patch_1">
   <path d="M 0 568.8 
L 855.204687 568.8 
L 855.204687 0 
L 0 0 
z
" style="fill: #ffffff"/>
  </g>
  <g id="axes_1">
   <g id="patch_2">
    <path d="M 64.41375 529.308125 
L 702.1075 529.308125 
L 702.1075 23.837812 
L 64.41375 23.837812 
z
" style="fill: #ffffff"/>
   </g>
   <g id="matplotlib.axis_1">
    <g id="xtick_1">
     <g id="line2d_1">
      <path d="M 79.917932 529.308125 
L 79.917932 23.837812 
" clip-path="url(#p10beaca2f3)" style="fill: none; stroke: #b0b0b0; stroke-opacity: 0.3; stroke-width: 0.8; stroke-linecap: square"/>
     </g>
     <g id="line2d_2">
      <defs>
       <path id="m2136946dce" d="M 0 0 
L 0 3.5 
" style="stroke: #000000; stroke-width: 0.8"/>
      </defs>
      <g>
       <use xlink:href="#m2136946dce" x="79.917932" y="529.308125" style="stroke: #000000; stroke-width: 0.8"/>
      </g>
     </g>
     <g id="text_1">
      <text style="font: 10px 'DejaVu Sans', 'Bitstream Vera Sans', 'Computer Modern Sans Serif', 'Lucida Grande', 'Verdana', 'Geneva', 'Lucid', 'Arial', 'Helvetica', 'Avant Garde', sans-serif; text-anchor: middle" x="79.917932" y="543.906563" transform="rotate(-0 79.917932 543.906563)">70</text>
     </g>
    </g>
    <g id="xtick_2">
     <g id="line2d_3">
      <path d="M 214.736907 529.308125 
L 214.736907 23.837812 
" clip-path="url(#p10beaca2f3)" style="fill: none; stroke: #b0b0b0; stroke-opacity: 0.3; stroke-width: 0.8; stroke-linecap: square"/>
     </g>
     <g id="line2d_4">
      <g>
       <use xlink:href="#m2136946dce" x="214.736907" y="529.308125" style="stroke: #000000; stroke-width: 0.8"/>
      </g>
     </g>
     <g id="text_2">
      <text style="font: 10px 'DejaVu Sans', 'Bitstream Vera Sans', 'Computer Modern Sans Serif', 'Lucida Grande', 'Verdana', 'Geneva', 'Lucid', 'Arial', 'Helvetica', 'Avant Garde', sans-serif; text-anchor: middle" x="214.736907" y="543.906563" transform="rotate(-0 214.736907 543.906563)">80</text>
     </g>
    </g>
    <g id="xtick_3">
     <g id="line2d_5">
      <path d="M 349.555881 529.308125 
L 349.555881 23.837812 
" clip-path="url(#p10beaca2f3)" style="fill: none; stroke: #b0b0b0; stroke-opacity: 0.3; stroke-width: 0.8; stroke-linecap: square"/>
     </g>
     <g id="line2d_6">
      <g>
       <use xlink:href="#m2136946dce" x="349.555881" y="529.308125" style="stroke: #000000; stroke-width: 0.8"/>
      </g>
     </g>
     <g id="text_3">
      <text style="font: 10px 'DejaVu Sans', 'Bitstream Vera Sans', 'Computer Modern Sans Serif', 'Lucida Grande', 'Verdana', 'Geneva', 'Lucid', 'Arial', 'Helvetica', 'Avant Garde', sans-serif; text-anchor: middle" x="349.555881" y="543.906563" transform="rotate(-0 349.555881 543.906563)">90</text>
     </g>
    </g>
    <g id="xtick_4">
     <g id="line2d_7">
      <path d="M 484.374856 529.308125 
L 484.374856 23.837812 
" clip-path="url(#p10beaca2f3)" style="fill: none; stroke: #b0b0b0; stroke-opacity: 0.3; stroke-width: 0.8; stroke-linecap: square"/>
     </g>
     <g id="line2d_8">
      <g>
       <use xlink:href="#m2136946dce" x="484.374856" y="529.308125" style="stroke: #000000; stroke-width: 0.8"/>
      </g>
     </g>
     <g id="text_4">
      <text style="font: 10px 'DejaVu Sans', 'Bitstream Vera Sans', 'Computer Modern Sans Serif', 'Lucida Grande', 'Verdana', 'Geneva', 'Lucid', 'Arial', 'Helvetica', 'Avant Garde', sans-serif; text-anchor: middle" x="484.374856" y="543.906563" transform="rotate(-0 484.374856 543.906563)">100</text>
     </g>
    </g>
    <g id="xtick_5">
     <g id="line2d_9">
      <path d="M 619.193831 529.308125 
L 619.193831 23.837812 
" clip-path="url(#p10beaca2f3)" style="fill: none; stroke: #b0b0b0; stroke-opacity: 0.3; stroke-width: 0.8; stroke-linecap: square"/>
     </g>
     <g id="line2d_10">
      <g>
       <use xlink:href="#m2136946dce" x="619.193831" y="529.308125" style="stroke: #000000; stroke-width: 0.8"/>
      </g>
     </g>
     <g id="text_5">
      <text style="font: 10px 'DejaVu Sans', 'Bitstream Vera Sans', 'Computer Modern Sans Serif', 'Lucida Grande', 'Verdana', 'Geneva', 'Lucid', 'Arial', 'Helvetica', 'Avant Garde', sans-serif; text-anchor: middle" x="619.193831" y="543.906563" transform="rotate(-0 619.193831 543.906563)">110</text>
     </g>
    </g>
    <g id="text_6">
     <text style="font: 12px 'DejaVu Sans', 'Bitstream Vera Sans', 'Computer Modern Sans Serif', 'Lucida Grande', 'Verdana', 'Geneva', 'Lucid', 'Arial', 'Helvetica', 'Avant Garde', sans-serif; text-anchor: middle" x="383.260625" y="559.104375" transform="rotate(-0 383.260625 559.104375)">Build Number</text>
    </g>
   </g>
   <g id="matplotlib.axis_2">
    <g id="ytick_1">
     <g id="line2d_11">
      <path d="M 64.41375 472.948128 
L 702.1075 472.948128 
" clip-path="url(#p10beaca2f3)" style="fill: none; stroke: #b0b0b0; stroke-opacity: 0.3; stroke-width: 0.8; stroke-linecap: square"/>
     </g>
     <g id="line2d_12">
      <defs>
       <path id="me7e2aa6bd0" d="M 0 0 
L -3.5 0 
" style="stroke: #000000; stroke-width: 0.8"/>
      </defs>
      <g>
       <use xlink:href="#me7e2aa6bd0" x="64.41375" y="472.948128" style="stroke: #000000; stroke-width: 0.8"/>
      </g>
     </g>
     <g id="text_7">
      <!-- $\mathdefault{10^{5}}$ -->
      <g transform="translate(39.81375 476.747347)">
       <text>
        <tspan style="font: 10px 'DejaVu Sans'" x="0 6.362305" y="-0.06406250000000036">10</tspan>
        <tspan style="font: 7px 'DejaVu Sans'" x="12.820312" y="-3.8921875000000004">5</tspan>
       </text>
      </g>
     </g>
    </g>
    <g id="ytick_2">
     <g id="line2d_13">
      <defs>
       <path id="m3dc7d62162" d="M 0 0 
L -2 0 
" style="stroke: #000000; stroke-width: 0.6"/>
      </defs>
      <g>
       <use xlink:href="#m3dc7d62162" x="64.41375" y="527.519431" style="stroke: #000000; stroke-width: 0.6"/>
      </g>
     </g>
    </g>
    <g id="ytick_3">
     <g id="line2d_14">
      <g>
       <use xlink:href="#m3dc7d62162" x="64.41375" y="498.714773" style="stroke: #000000; stroke-width: 0.6"/>
      </g>
     </g>
    </g>
    <g id="ytick_4">
     <g id="line2d_15">
      <g>
       <use xlink:href="#m3dc7d62162" x="64.41375" y="303.43418" style="stroke: #000000; stroke-width: 0.6"/>
      </g>
     </g>
     <g id="text_8">
      <!-- $\mathdefault{2\times10^{5}}$ -->
      <g transform="translate(22.81375 307.233399)">
       <text>
        <tspan style="font: 10px 'DejaVu Sans'" x="0 8.310547 18.637695 25" y="-0.06406250000000036">2×10</tspan>
        <tspan style="font: 7px 'DejaVu Sans'" x="31.458008" y="-3.8921875000000004">5</tspan>
       </text>
      </g>
     </g>
    </g>
    <g id="ytick_5">
     <g id="line2d_16">
      <g>
       <use xlink:href="#m3dc7d62162" x="64.41375" y="204.274877" style="stroke: #000000; stroke-width: 0.6"/>
      </g>
     </g>
     <g id="text_9">
      <!-- $\mathdefault{3\times10^{5}}$ -->
      <g transform="translate(22.81375 208.074095)">
       <text>
        <tspan style="font: 10px 'DejaVu Sans'" x="0 8.310547 18.637695 25" y="-0.06406250000000036">3×10</tspan>
        <tspan style="font: 7px 'DejaVu Sans'" x="31.458008" y="-3.8921875000000004">5</tspan>
       </text>
      </g>
     </g>
    </g>
    <g id="ytick_6">
     <g id="line2d_17">
      <g>
       <use xlink:href="#m3dc7d62162" x="64.41375" y="133.920231" style="stroke: #000000; stroke-width: 0.6"/>
      </g>
     </g>
     <g id="text_10">
      <!-- $\mathdefault{4\times10^{5}}$ -->
      <g transform="translate(22.81375 137.71945)">
       <text>
        <tspan style="font: 10px 'DejaVu Sans'" x="0 8.310547 18.637695 25" y="-0.06406250000000036">4×10</tspan>
        <tspan style="font: 7px 'DejaVu Sans'" x="31.458008" y="-3.8921875000000004">5</tspan>
       </text>
      </g>
     </g>
    </g>
    <g id="ytick_7">
     <g id="line2d_18">
      <g>
       <use xlink:href="#m3dc7d62162" x="64.41375" y="79.348929" style="stroke: #000000; stroke-width: 0.6"/>
      </g>
     </g>
    </g>
    <g id="ytick_8">
     <g id="line2d_19">
      <g>
       <use xlink:href="#m3dc7d62162" x="64.41375" y="34.760928" style="stroke: #000000; stroke-width: 0.6"/>
      </g>
     </g>
     <g id="text_11">
      <!-- $\mathdefault{6\times10^{5}}$ -->
      <g transform="translate(22.81375 38.560147)">
       <text>
        <tspan style="font: 10px 'DejaVu Sans'" x="0 8.310547 18.637695 25" y="-0.06406250000000036">6×10</tspan>
        <tspan style="font: 7px 'DejaVu Sans'" x="31.458008" y="-3.8921875000000004">5</tspan>
       </text>
      </g>
     </g>
    </g>
    <g id="text_12">
     <text style="font: 12px 'DejaVu Sans', 'Bitstream Vera Sans', 'Computer Modern Sans Serif', 'Lucida Grande', 'Verdana', 'Geneva', 'Lucid', 'Arial', 'Helvetica', 'Avant Garde', sans-serif; text-anchor: middle" x="16.318125" y="276.572969" transform="rotate(-90 16.318125 276.572969)">Median Elapsed Time (nanoseconds)</text>
    </g>
   </g>
   <g id="line2d_20">
    <path d="M 93.39983 275.826973 
L 106.881727 280.652892 
L 120.363624 279.043313 
L 133.845522 281.144 
L 147.327419 233.57992 
L 160.809317 147.528372 
L 174.291214 281.11431 
L 187.773112 280.289323 
L 201.255009 108.324965 
L 214.736907 280.961113 
L 228.218804 280.99112 
L 241.700702 281.336743 
L 255.182599 109.155084 
L 268.664497 280.143979 
L 282.146394 280.825404 
L 295.628291 281.066432 
L 322.592086 281.226283 
L 336.073984 109.237256 
L 349.555881 280.489185 
L 363.037779 157.947213 
L 376.519676 280.097959 
L 390.001574 276.834576 
L 403.483471 281.079601 
L 416.965369 281.009416 
L 430.447266 281.103818 
L 443.929164 102.906902 
L 470.892959 280.77123 
L 484.374856 280.65991 
L 497.856753 281.308258 
L 511.338651 280.979072 
L 524.820548 281.204509 
L 538.302446 281.069111 
L 551.784343 281.108617 
L 565.266241 260.363461 
L 592.230036 46.813736 
L 605.711933 280.322473 
L 619.193831 262.679124 
L 632.675728 233.230044 
L 646.157626 270.532862 
L 673.12142 109.631979 
" clip-path="url(#p10beaca2f3)" style="fill: none; stroke: #1f77b4; stroke-width: 2; stroke-linecap: square"/>
    <defs>
     <path id="m9a299a62a0" d="M 0 3 
C 0.795609 3 1.55874 2.683901 2.12132 2.12132 
C 2.683901 1.55874 3 0.795609 3 0 
C 3 -0.795609 2.683901 -1.55874 2.12132 -2.12132 
C 1.55874 -2.683901 0.795609 -3 0 -3 
C -0.795609 -3 -1.55874 -2.683901 -2.12132 -2.12132 
C -2.683901 -1.55874 -3 -0.795609 -3 0 
C -3 0.795609 -2.683901 1.55874 -2.12132 2.12132 
C -1.55874 2.683901 -0.795609 3 0 3 
z
" style="stroke: #1f77b4"/>
    </defs>
    <g clip-path="url(#p10beaca2f3)">
     <use xlink:href="#m9a299a62a0" x="93.39983" y="275.826973" style="fill: #1f77b4; stroke: #1f77b4"/>
     <use xlink:href="#m9a299a62a0" x="106.881727" y="280.652892" style="fill: #1f77b4; stroke: #1f77b4"/>
     <use xlink:href="#m9a299a62a0" x="120.363624" y="279.043313" style="fill: #1f77b4; stroke: #1f77b4"/>
     <use xlink:href="#m9a299a62a0" x="133.845522" y="281.144" style="fill: #1f77b4; stroke: #1f77b4"/>
     <use xlink:href="#m9a299a62a0" x="147.327419" y="233.57992" style="fill: #1f77b4; stroke: #1f77b4"/>
     <use xlink:href="#m9a299a62a0" x="160.809317" y="147.528372" style="fill: #1f77b4; stroke: #1f77b4"/>
     <use xlink:href="#m9a299a62a0" x="174.291214" y="281.11431" style="fill: #1f77b4; stroke: #1f77b4"/>
     <use xlink:href="#m9a299a62a0" x="187.773112" y="280.289323" style="fill: #1f77b4; stroke: #1f77b4"/>
     <use xlink:href="#m9a299a62a0" x="201.255009" y="108.324965" style="fill: #1f77b4; stroke: #1f77b4"/>
     <use xlink:href="#m9a299a62a0" x="214.736907" y="280.961113" style="fill: #1f77b4; stroke: #1f77b4"/>
     <use xlink:href="#m9a299a62a0" x="228.218804" y="280.99112" style="fill: #1f77b4; stroke: #1f77b4"/>
     <use xlink:href="#m9a299a62a0" x="241.700702" y="281.336743" style="fill: #1f77b4; stroke: #1f77b4"/>
     <use xlink:href="#m9a299a62a0" x="255.182599" y="109.155084" style="fill: #1f77b4; stroke: #1f77b4"/>
     <use xlink:href="#m9a299a62a0" x="268.664497" y="280.143979" style="fill: #1f77b4; stroke: #1f77b4"/>
     <use xlink:href="#m9a299a62a0" x="282.146394" y="280.825404" style="fill: #1f77b4; stroke: #1f77b4"/>
     <use xlink:href="#m9a299a62a0" x="295.628291" y="281.066432" style="fill: #1f77b4; stroke: #1f77b4"/>
     <use xlink:href="#m9a299a62a0" x="322.592086" y="281.226283" style="fill: #1f77b4; stroke: #1f77b4"/>
     <use xlink:href="#m9a299a62a0" x="336.073984" y="109.237256" style="fill: #1f77b4; stroke: #1f77b4"/>
     <use xlink:href="#m9a299a62a0" x="349.555881" y="280.489185" style="fill: #1f77b4; stroke: #1f77b4"/>
     <use xlink:href="#m9a299a62a0" x="363.037779" y="157.947213" style="fill: #1f77b4; stroke: #1f77b4"/>
     <use xlink:href="#m9a299a62a0" x="376.519676" y="280.097959" style="fill: #1f77b4; stroke: #1f77b4"/>
     <use xlink:href="#m9a299a62a0" x="390.001574" y="276.834576" style="fill: #1f77b4; stroke: #1f77b4"/>
     <use xlink:href="#m9a299a62a0" x="403.483471" y="281.079601" style="fill: #1f77b4; stroke: #1f77b4"/>
     <use xlink:href="#m9a299a62a0" x="416.965369" y="281.009416" style="fill: #1f77b4; stroke: #1f77b4"/>
     <use xlink:href="#m9a299a62a0" x="430.447266" y="281.103818" style="fill: #1f77b4; stroke: #1f77b4"/>
     <use xlink:href="#m9a299a62a0" x="443.929164" y="102.906902" style="fill: #1f77b4; stroke: #1f77b4"/>
     <use xlink:href="#m9a299a62a0" x="470.892959" y="280.77123" style="fill: #1f77b4; stroke: #1f77b4"/>
     <use xlink:href="#m9a299a62a0" x="484.374856" y="280.65991" style="fill: #1f77b4; stroke: #1f77b4"/>
     <use xlink:href="#m9a299a62a0" x="497.856753" y="281.308258" style="fill: #1f77b4; stroke: #1f77b4"/>
     <use xlink:href="#m9a299a62a0" x="511.338651" y="280.979072" style="fill: #1f77b4; stroke: #1f77b4"/>
     <use xlink:href="#m9a299a62a0" x="524.820548" y="281.204509" style="fill: #1f77b4; stroke: #1f77b4"/>
     <use xlink:href="#m9a299a62a0" x="538.302446" y="281.069111" style="fill: #1f77b4; stroke: #1f77b4"/>
     <use xlink:href="#m9a299a62a0" x="551.784343" y="281.108617" style="fill: #1f77b4; stroke: #1f77b4"/>
     <use xlink:href="#m9a299a62a0" x="565.266241" y="260.363461" style="fill: #1f77b4; stroke: #1f77b4"/>
     <use xlink:href="#m9a299a62a0" x="592.230036" y="46.813736" style="fill: #1f77b4; stroke: #1f77b4"/>
     <use xlink:href="#m9a299a62a0" x="605.711933" y="280.322473" style="fill: #1f77b4; stroke: #1f77b4"/>
     <use xlink:href="#m9a299a62a0" x="619.193831" y="262.679124" style="fill: #1f77b4; stroke: #1f77b4"/>
     <use xlink:href="#m9a299a62a0" x="632.675728" y="233.230044" style="fill: #1f77b4; stroke: #1f77b4"/>
     <use xlink:href="#m9a299a62a0" x="646.157626" y="270.532862" style="fill: #1f77b4; stroke: #1f77b4"/>
     <use xlink:href="#m9a299a62a0" x="673.12142" y="109.631979" style="fill: #1f77b4; stroke: #1f77b4"/>
    </g>
   </g>
   <g id="line2d_21">
    <path d="M 93.39983 275.667338 
L 106.881727 274.226607 
L 120.363624 272.248622 
L 133.845522 270.478249 
L 147.327419 242.282551 
L 160.809317 271.769237 
L 174.291214 272.310952 
L 187.773112 273.71312 
L 201.255009 179.269891 
L 214.736907 267.597492 
L 228.218804 270.456023 
L 241.700702 270.015545 
L 255.182599 227.663437 
L 268.664497 267.655268 
L 282.146394 271.59956 
L 295.628291 271.325211 
L 322.592086 270.938512 
L 336.073984 228.831247 
L 349.555881 272.713957 
L 363.037779 228.355376 
L 376.519676 273.654544 
L 390.001574 266.610438 
L 403.483471 271.885287 
L 416.965369 268.975154 
L 430.447266 264.188577 
L 443.929164 190.606055 
L 470.892959 264.411245 
L 484.374856 262.857327 
L 497.856753 265.049844 
L 511.338651 264.293582 
L 524.820548 263.236634 
L 538.302446 265.036152 
L 551.784343 264.370489 
L 565.266241 248.352872 
L 592.230036 174.731505 
L 605.711933 262.691442 
L 619.193831 253.938582 
L 632.675728 244.468966 
L 646.157626 265.541461 
L 673.12142 240.773981 
" clip-path="url(#p10beaca2f3)" style="fill: none; stroke: #ff7f0e; stroke-width: 2; stroke-linecap: square"/>
    <defs>
     <path id="mcc2c14e453" d="M 0 3 
C 0.795609 3 1.55874 2.683901 2.12132 2.12132 
C 2.683901 1.55874 3 0.795609 3 0 
C 3 -0.795609 2.683901 -1.55874 2.12132 -2.12132 
C 1.55874 -2.683901 0.795609 -3 0 -3 
C -0.795609 -3 -1.55874 -2.683901 -2.12132 -2.12132 
C -2.683901 -1.55874 -3 -0.795609 -3 0 
C -3 0.795609 -2.683901 1.55874 -2.12132 2.12132 
C -1.55874 2.683901 -0.795609 3 0 3 
z
" style="stroke: #ff7f0e"/>
    </defs>
    <g clip-path="url(#p10beaca2f3)">
     <use xlink:href="#mcc2c14e453" x="93.39983" y="275.667338" style="fill: #ff7f0e; stroke: #ff7f0e"/>
     <use xlink:href="#mcc2c14e453" x="106.881727" y="274.226607" style="fill: #ff7f0e; stroke: #ff7f0e"/>
     <use xlink:href="#mcc2c14e453" x="120.363624" y="272.248622" style="fill: #ff7f0e; stroke: #ff7f0e"/>
     <use xlink:href="#mcc2c14e453" x="133.845522" y="270.478249" style="fill: #ff7f0e; stroke: #ff7f0e"/>
     <use xlink:href="#mcc2c14e453" x="147.327419" y="242.282551" style="fill: #ff7f0e; stroke: #ff7f0e"/>
     <use xlink:href="#mcc2c14e453" x="160.809317" y="271.769237" style="fill: #ff7f0e; stroke: #ff7f0e"/>
     <use xlink:href="#mcc2c14e453" x="174.291214" y="272.310952" style="fill: #ff7f0e; stroke: #ff7f0e"/>
     <use xlink:href="#mcc2c14e453" x="187.773112" y="273.71312" style="fill: #ff7f0e; stroke: #ff7f0e"/>
     <use xlink:href="#mcc2c14e453" x="201.255009" y="179.269891" style="fill: #ff7f0e; stroke: #ff7f0e"/>
     <use xlink:href="#mcc2c14e453" x="214.736907" y="267.597492" style="fill: #ff7f0e; stroke: #ff7f0e"/>
     <use xlink:href="#mcc2c14e453" x="228.218804" y="270.456023" style="fill: #ff7f0e; stroke: #ff7f0e"/>
     <use xlink:href="#mcc2c14e453" x="241.700702" y="270.015545" style="fill: #ff7f0e; stroke: #ff7f0e"/>
     <use xlink:href="#mcc2c14e453" x="255.182599" y="227.663437" style="fill: #ff7f0e; stroke: #ff7f0e"/>
     <use xlink:href="#mcc2c14e453" x="268.664497" y="267.655268" style="fill: #ff7f0e; stroke: #ff7f0e"/>
     <use xlink:href="#mcc2c14e453" x="282.146394" y="271.59956" style="fill: #ff7f0e; stroke: #ff7f0e"/>
     <use xlink:href="#mcc2c14e453" x="295.628291" y="271.325211" style="fill: #ff7f0e; stroke: #ff7f0e"/>
     <use xlink:href="#mcc2c14e453" x="322.592086" y="270.938512" style="fill: #ff7f0e; stroke: #ff7f0e"/>
     <use xlink:href="#mcc2c14e453" x="336.073984" y="228.831247" style="fill: #ff7f0e; stroke: #ff7f0e"/>
     <use xlink:href="#mcc2c14e453" x="349.555881" y="272.713957" style="fill: #ff7f0e; stroke: #ff7f0e"/>
     <use xlink:href="#mcc2c14e453" x="363.037779" y="228.355376" style="fill: #ff7f0e; stroke: #ff7f0e"/>
     <use xlink:href="#mcc2c14e453" x="376.519676" y="273.654544" style="fill: #ff7f0e; stroke: #ff7f0e"/>
     <use xlink:href="#mcc2c14e453" x="390.001574" y="266.610438" style="fill: #ff7f0e; stroke: #ff7f0e"/>
     <use xlink:href="#mcc2c14e453" x="403.483471" y="271.885287" style="fill: #ff7f0e; stroke: #ff7f0e"/>
     <use xlink:href="#mcc2c14e453" x="416.965369" y="268.975154" style="fill: #ff7f0e; stroke: #ff7f0e"/>
     <use xlink:href="#mcc2c14e453" x="430.447266" y="264.188577" style="fill: #ff7f0e; stroke: #ff7f0e"/>
     <use xlink:href="#mcc2c14e453" x="443.929164" y="190.606055" style="fill: #ff7f0e; stroke: #ff7f0e"/>
     <use xlink:href="#mcc2c14e453" x="470.892959" y="264.411245" style="fill: #ff7f0e; stroke: #ff7f0e"/>
     <use xlink:href="#mcc2c14e453" x="484.374856" y="262.857327" style="fill: #ff7f0e; stroke: #ff7f0e"/>
     <use xlink:href="#mcc2c14e453" x="497.856753" y="265.049844" style="fill: #ff7f0e; stroke: #ff7f0e"/>
     <use xlink:href="#mcc2c14e453" x="511.338651" y="264.293582" style="fill: #ff7f0e; stroke: #ff7f0e"/>
     <use xlink:href="#mcc2c14e453" x="524.820548" y="263.236634" style="fill: #ff7f0e; stroke: #ff7f0e"/>
     <use xlink:href="#mcc2c14e453" x="538.302446" y="265.036152" style="fill: #ff7f0e; stroke: #ff7f0e"/>
     <use xlink:href="#mcc2c14e453" x="551.784343" y="264.370489" style="fill: #ff7f0e; stroke: #ff7f0e"/>
     <use xlink:href="#mcc2c14e453" x="565.266241" y="248.352872" style="fill: #ff7f0e; stroke: #ff7f0e"/>
     <use xlink:href="#mcc2c14e453" x="592.230036" y="174.731505" style="fill: #ff7f0e; stroke: #ff7f0e"/>
     <use xlink:href="#mcc2c14e453" x="605.711933" y="262.691442" style="fill: #ff7f0e; stroke: #ff7f0e"/>
     <use xlink:href="#mcc2c14e453" x="619.193831" y="253.938582" style="fill: #ff7f0e; stroke: #ff7f0e"/>
     <use xlink:href="#mcc2c14e453" x="632.675728" y="244.468966" style="fill: #ff7f0e; stroke: #ff7f0e"/>
     <use xlink:href="#mcc2c14e453" x="646.157626" y="265.541461" style="fill: #ff7f0e; stroke: #ff7f0e"/>
     <use xlink:href="#mcc2c14e453" x="673.12142" y="240.773981" style="fill: #ff7f0e; stroke: #ff7f0e"/>
    </g>
   </g>
   <g id="line2d_22">
    <path d="M 93.39983 275.451962 
L 106.881727 258.130167 
L 120.363624 238.385514 
L 133.845522 275.852534 
L 147.327419 223.96513 
L 160.809317 276.346236 
L 174.291214 275.843139 
L 187.773112 276.113749 
L 201.255009 234.99009 
L 214.736907 275.487736 
L 228.218804 276.144042 
L 241.700702 275.954801 
L 255.182599 241.130277 
L 268.664497 273.496645 
L 282.146394 275.274262 
L 295.628291 276.510916 
L 322.592086 276.389038 
L 336.073984 246.482343 
L 349.555881 276.212515 
L 363.037779 220.191991 
L 376.519676 276.153338 
L 390.001574 241.158996 
L 403.483471 275.75555 
L 416.965369 262.235579 
L 430.447266 275.005994 
L 443.929164 217.47246 
L 470.892959 276.067497 
L 484.374856 245.822545 
L 497.856753 275.072299 
L 511.338651 276.015132 
L 524.820548 259.864123 
L 538.302446 275.934693 
L 551.784343 276.236256 
L 565.266241 240.840901 
L 592.230036 240.338646 
L 605.711933 255.519397 
L 619.193831 262.338301 
L 632.675728 217.393919 
L 646.157626 273.751564 
L 673.12142 237.227161 
" clip-path="url(#p10beaca2f3)" style="fill: none; stroke: #2ca02c; stroke-width: 2; stroke-linecap: square"/>
    <defs>
     <path id="mf741d50115" d="M 0 3 
C 0.795609 3 1.55874 2.683901 2.12132 2.12132 
C 2.683901 1.55874 3 0.795609 3 0 
C 3 -0.795609 2.683901 -1.55874 2.12132 -2.12132 
C 1.55874 -2.683901 0.795609 -3 0 -3 
C -0.795609 -3 -1.55874 -2.683901 -2.12132 -2.12132 
C -2.683901 -1.55874 -3 -0.795609 -3 0 
C -3 0.795609 -2.683901 1.55874 -2.12132 2.12132 
C -1.55874 2.683901 -0.795609 3 0 3 
z
" style="stroke: #2ca02c"/>
    </defs>
    <g clip-path="url(#p10beaca2f3)">
     <use xlink:href="#mf741d50115" x="93.39983" y="275.451962" style="fill: #2ca02c; stroke: #2ca02c"/>
     <use xlink:href="#mf741d50115" x="106.881727" y="258.130167" style="fill: #2ca02c; stroke: #2ca02c"/>
     <use xlink:href="#mf741d50115" x="120.363624" y="238.385514" style="fill: #2ca02c; stroke: #2ca02c"/>
     <use xlink:href="#mf741d50115" x="133.845522" y="275.852534" style="fill: #2ca02c; stroke: #2ca02c"/>
     <use xlink:href="#mf741d50115" x="147.327419" y="223.96513" style="fill: #2ca02c; stroke: #2ca02c"/>
     <use xlink:href="#mf741d50115" x="160.809317" y="276.346236" style="fill: #2ca02c; stroke: #2ca02c"/>
     <use xlink:href="#mf741d50115" x="174.291214" y="275.843139" style="fill: #2ca02c; stroke: #2ca02c"/>
     <use xlink:href="#mf741d50115" x="187.773112" y="276.113749" style="fill: #2ca02c; stroke: #2ca02c"/>
     <use xlink:href="#mf741d50115" x="201.255009" y="234.99009" style="fill: #2ca02c; stroke: #2ca02c"/>
     <use xlink:href="#mf741d50115" x="214.736907" y="275.487736" style="fill: #2ca02c; stroke: #2ca02c"/>
     <use xlink:href="#mf741d50115" x="228.218804" y="276.144042" style="fill: #2ca02c; stroke: #2ca02c"/>
     <use xlink:href="#mf741d50115" x="241.700702" y="275.954801" style="fill: #2ca02c; stroke: #2ca02c"/>
     <use xlink:href="#mf741d50115" x="255.182599" y="241.130277" style="fill: #2ca02c; stroke: #2ca02c"/>
     <use xlink:href="#mf741d50115" x="268.664497" y="273.496645" style="fill: #2ca02c; stroke: #2ca02c"/>
     <use xlink:href="#mf741d50115" x="282.146394" y="275.274262" style="fill: #2ca02c; stroke: #2ca02c"/>
     <use xlink:href="#mf741d50115" x="295.628291" y="276.510916" style="fill: #2ca02c; stroke: #2ca02c"/>
     <use xlink:href="#mf741d50115" x="322.592086" y="276.389038" style="fill: #2ca02c; stroke: #2ca02c"/>
     <use xlink:href="#mf741d50115" x="336.073984" y="246.482343" style="fill: #2ca02c; stroke: #2ca02c"/>
     <use xlink:href="#mf741d50115" x="349.555881" y="276.212515" style="fill: #2ca02c; stroke: #2ca02c"/>
     <use xlink:href="#mf741d50115" x="363.037779" y="220.191991" style="fill: #2ca02c; stroke: #2ca02c"/>
     <use xlink:href="#mf741d50115" x="376.519676" y="276.153338" style="fill: #2ca02c; stroke: #2ca02c"/>
     <use xlink:href="#mf741d50115" x="390.001574" y="241.158996" style="fill: #2ca02c; stroke: #2ca02c"/>
     <use xlink:href="#mf741d50115" x="403.483471" y="275.75555" style="fill: #2ca02c; stroke: #2ca02c"/>
     <use xlink:href="#mf741d50115" x="416.965369" y="262.235579" style="fill: #2ca02c; stroke: #2ca02c"/>
     <use xlink:href="#mf741d50115" x="430.447266" y="275.005994" style="fill: #2ca02c; stroke: #2ca02c"/>
     <use xlink:href="#mf741d50115" x="443.929164" y="217.47246" style="fill: #2ca02c; stroke: #2ca02c"/>
     <use xlink:href="#mf741d50115" x="470.892959" y="276.067497" style="fill: #2ca02c; stroke: #2ca02c"/>
     <use xlink:href="#mf741d50115" x="484.374856" y="245.822545" style="fill: #2ca02c; stroke: #2ca02c"/>
     <use xlink:href="#mf741d50115" x="497.856753" y="275.072299" style="fill: #2ca02c; stroke: #2ca02c"/>
     <use xlink:href="#mf741d50115" x="511.338651" y="276.015132" style="fill: #2ca02c; stroke: #2ca02c"/>
     <use xlink:href="#mf741d50115" x="524.820548" y="259.864123" style="fill: #2ca02c; stroke: #2ca02c"/>
     <use xlink:href="#mf741d50115" x="538.302446" y="275.934693" style="fill: #2ca02c; stroke: #2ca02c"/>
     <use xlink:href="#mf741d50115" x="551.784343" y="276.236256" style="fill: #2ca02c; stroke: #2ca02c"/>
     <use xlink:href="#mf741d50115" x="565.266241" y="240.840901" style="fill: #2ca02c; stroke: #2ca02c"/>
     <use xlink:href="#mf741d50115" x="592.230036" y="240.338646" style="fill: #2ca02c; stroke: #2ca02c"/>
     <use xlink:href="#mf741d50115" x="605.711933" y="255.519397" style="fill: #2ca02c; stroke: #2ca02c"/>
     <use xlink:href="#mf741d50115" x="619.193831" y="262.338301" style="fill: #2ca02c; stroke: #2ca02c"/>
     <use xlink:href="#mf741d50115" x="632.675728" y="217.393919" style="fill: #2ca02c; stroke: #2ca02c"/>
     <use xlink:href="#mf741d50115" x="646.157626" y="273.751564" style="fill: #2ca02c; stroke: #2ca02c"/>
     <use xlink:href="#mf741d50115" x="673.12142" y="237.227161" style="fill: #2ca02c; stroke: #2ca02c"/>
    </g>
   </g>
   <g id="line2d_23">
    <path d="M 93.39983 503.126462 
L 106.881727 504.52824 
L 120.363624 503.595878 
L 133.845522 504.805829 
L 147.327419 333.232241 
L 160.809317 495.72534 
L 174.291214 503.757266 
L 187.773112 429.264007 
L 201.255009 504.610064 
L 214.736907 504.718648 
L 228.218804 503.956977 
L 241.700702 504.924767 
L 255.182599 502.537574 
L 282.146394 504.002047 
L 295.628291 503.359811 
L 322.592086 504.154535 
L 336.073984 505.124457 
L 349.555881 503.034622 
L 363.037779 504.40333 
L 376.519676 504.501249 
L 403.483471 503.987887 
L 416.965369 504.548832 
L 430.447266 503.550697 
L 443.929164 504.826167 
L 470.892959 504.481496 
L 484.374856 333.011895 
L 497.856753 504.668805 
L 511.338651 504.815301 
L 524.820548 505.299977 
L 538.302446 504.990042 
L 551.784343 504.60227 
L 565.266241 504.390815 
L 592.230036 333.523301 
L 605.711933 503.71788 
L 619.193831 504.169261 
L 646.157626 504.357166 
" clip-path="url(#p10beaca2f3)" style="fill: none; stroke: #d62728; stroke-width: 2; stroke-linecap: square"/>
    <defs>
     <path id="m5fdecfebcd" d="M 0 3 
C 0.795609 3 1.55874 2.683901 2.12132 2.12132 
C 2.683901 1.55874 3 0.795609 3 0 
C 3 -0.795609 2.683901 -1.55874 2.12132 -2.12132 
C 1.55874 -2.683901 0.795609 -3 0 -3 
C -0.795609 -3 -1.55874 -2.683901 -2.12132 -2.12132 
C -2.683901 -1.55874 -3 -0.795609 -3 0 
C -3 0.795609 -2.683901 1.55874 -2.12132 2.12132 
C -1.55874 2.683901 -0.795609 3 0 3 
z
" style="stroke: #d62728"/>
    </defs>
    <g clip-path="url(#p10beaca2f3)">
     <use xlink:href="#m5fdecfebcd" x="93.39983" y="503.126462" style="fill: #d62728; stroke: #d62728"/>
     <use xlink:href="#m5fdecfebcd" x="106.881727" y="504.52824" style="fill: #d62728; stroke: #d62728"/>
     <use xlink:href="#m5fdecfebcd" x="120.363624" y="503.595878" style="fill: #d62728; stroke: #d62728"/>
     <use xlink:href="#m5fdecfebcd" x="133.845522" y="504.805829" style="fill: #d62728; stroke: #d62728"/>
     <use xlink:href="#m5fdecfebcd" x="147.327419" y="333.232241" style="fill: #d62728; stroke: #d62728"/>
     <use xlink:href="#m5fdecfebcd" x="160.809317" y="495.72534" style="fill: #d62728; stroke: #d62728"/>
     <use xlink:href="#m5fdecfebcd" x="174.291214" y="503.757266" style="fill: #d62728; stroke: #d62728"/>
     <use xlink:href="#m5fdecfebcd" x="187.773112" y="429.264007" style="fill: #d62728; stroke: #d62728"/>
     <use xlink:href="#m5fdecfebcd" x="201.255009" y="504.610064" style="fill: #d62728; stroke: #d62728"/>
     <use xlink:href="#m5fdecfebcd" x="214.736907" y="504.718648" style="fill: #d62728; stroke: #d62728"/>
     <use xlink:href="#m5fdecfebcd" x="228.218804" y="503.956977" style="fill: #d62728; stroke: #d62728"/>
     <use xlink:href="#m5fdecfebcd" x="241.700702" y="504.924767" style="fill: #d62728; stroke: #d62728"/>
     <use xlink:href="#m5fdecfebcd" x="255.182599" y="502.537574" style="fill: #d62728; stroke: #d62728"/>
     <use xlink:href="#m5fdecfebcd" x="282.146394" y="504.002047" style="fill: #d62728; stroke: #d62728"/>
     <use xlink:href="#m5fdecfebcd" x="295.628291" y="503.359811" style="fill: #d62728; stroke: #d62728"/>
     <use xlink:href="#m5fdecfebcd" x="322.592086" y="504.154535" style="fill: #d62728; stroke: #d62728"/>
     <use xlink:href="#m5fdecfebcd" x="336.073984" y="505.124457" style="fill: #d62728; stroke: #d62728"/>
     <use xlink:href="#m5fdecfebcd" x="349.555881" y="503.034622" style="fill: #d62728; stroke: #d62728"/>
     <use xlink:href="#m5fdecfebcd" x="363.037779" y="504.40333" style="fill: #d62728; stroke: #d62728"/>
     <use xlink:href="#m5fdecfebcd" x="376.519676" y="504.501249" style="fill: #d62728; stroke: #d62728"/>
     <use xlink:href="#m5fdecfebcd" x="403.483471" y="503.987887" style="fill: #d62728; stroke: #d62728"/>
     <use xlink:href="#m5fdecfebcd" x="416.965369" y="504.548832" style="fill: #d62728; stroke: #d62728"/>
     <use xlink:href="#m5fdecfebcd" x="430.447266" y="503.550697" style="fill: #d62728; stroke: #d62728"/>
     <use xlink:href="#m5fdecfebcd" x="443.929164" y="504.826167" style="fill: #d62728; stroke: #d62728"/>
     <use xlink:href="#m5fdecfebcd" x="470.892959" y="504.481496" style="fill: #d62728; stroke: #d62728"/>
     <use xlink:href="#m5fdecfebcd" x="484.374856" y="333.011895" style="fill: #d62728; stroke: #d62728"/>
     <use xlink:href="#m5fdecfebcd" x="497.856753" y="504.668805" style="fill: #d62728; stroke: #d62728"/>
     <use xlink:href="#m5fdecfebcd" x="511.338651" y="504.815301" style="fill: #d62728; stroke: #d62728"/>
     <use xlink:href="#m5fdecfebcd" x="524.820548" y="505.299977" style="fill: #d62728; stroke: #d62728"/>
     <use xlink:href="#m5fdecfebcd" x="538.302446" y="504.990042" style="fill: #d62728; stroke: #d62728"/>
     <use xlink:href="#m5fdecfebcd" x="551.784343" y="504.60227" style="fill: #d62728; stroke: #d62728"/>
     <use xlink:href="#m5fdecfebcd" x="565.266241" y="504.390815" style="fill: #d62728; stroke: #d62728"/>
     <use xlink:href="#m5fdecfebcd" x="592.230036" y="333.523301" style="fill: #d62728; stroke: #d62728"/>
     <use xlink:href="#m5fdecfebcd" x="605.711933" y="503.71788" style="fill: #d62728; stroke: #d62728"/>
     <use xlink:href="#m5fdecfebcd" x="619.193831" y="504.169261" style="fill: #d62728; stroke: #d62728"/>
     <use xlink:href="#m5fdecfebcd" x="646.157626" y="504.357166" style="fill: #d62728; stroke: #d62728"/>
    </g>
   </g>
   <g id="line2d_24">
    <path d="M 93.39983 475.317341 
L 106.881727 472.037628 
L 120.363624 474.497648 
L 133.845522 474.49691 
L 147.327419 426.768565 
L 160.809317 429.408464 
L 174.291214 473.592651 
L 187.773112 410.911456 
L 201.255009 473.494835 
L 214.736907 474.696587 
L 228.218804 472.93101 
L 241.700702 476.260484 
L 255.182599 468.47285 
L 282.146394 472.557638 
L 295.628291 475.661567 
L 322.592086 471.710141 
L 336.073984 470.181029 
L 349.555881 474.896674 
L 363.037779 474.651718 
L 376.519676 475.987707 
L 403.483471 476.108573 
L 416.965369 471.107445 
L 430.447266 506.332202 
L 443.929164 505.877934 
L 470.892959 505.977285 
L 484.374856 428.683473 
L 497.856753 504.258748 
L 511.338651 505.309747 
L 524.820548 505.969168 
L 538.302446 505.977845 
L 551.784343 505.768274 
L 565.266241 504.563304 
L 592.230036 427.893622 
L 605.711933 506.077237 
L 619.193831 504.166483 
L 646.157626 504.134531 
" clip-path="url(#p10beaca2f3)" style="fill: none; stroke: #9467bd; stroke-width: 2; stroke-linecap: square"/>
    <defs>
     <path id="md838ae5294" d="M 0 3 
C 0.795609 3 1.55874 2.683901 2.12132 2.12132 
C 2.683901 1.55874 3 0.795609 3 0 
C 3 -0.795609 2.683901 -1.55874 2.12132 -2.12132 
C 1.55874 -2.683901 0.795609 -3 0 -3 
C -0.795609 -3 -1.55874 -2.683901 -2.12132 -2.12132 
C -2.683901 -1.55874 -3 -0.795609 -3 0 
C -3 0.795609 -2.683901 1.55874 -2.12132 2.12132 
C -1.55874 2.683901 -0.795609 3 0 3 
z
" style="stroke: #9467bd"/>
    </defs>
    <g clip-path="url(#p10beaca2f3)">
     <use xlink:href="#md838ae5294" x="93.39983" y="475.317341" style="fill: #9467bd; stroke: #9467bd"/>
     <use xlink:href="#md838ae5294" x="106.881727" y="472.037628" style="fill: #9467bd; stroke: #9467bd"/>
     <use xlink:href="#md838ae5294" x="120.363624" y="474.497648" style="fill: #9467bd; stroke: #9467bd"/>
     <use xlink:href="#md838ae5294" x="133.845522" y="474.49691" style="fill: #9467bd; stroke: #9467bd"/>
     <use xlink:href="#md838ae5294" x="147.327419" y="426.768565" style="fill: #9467bd; stroke: #9467bd"/>
     <use xlink:href="#md838ae5294" x="160.809317" y="429.408464" style="fill: #9467bd; stroke: #9467bd"/>
     <use xlink:href="#md838ae5294" x="174.291214" y="473.592651" style="fill: #9467bd; stroke: #9467bd"/>
     <use xlink:href="#md838ae5294" x="187.773112" y="410.911456" style="fill: #9467bd; stroke: #9467bd"/>
     <use xlink:href="#md838ae5294" x="201.255009" y="473.494835" style="fill: #9467bd; stroke: #9467bd"/>
     <use xlink:href="#md838ae5294" x="214.736907" y="474.696587" style="fill: #9467bd; stroke: #9467bd"/>
     <use xlink:href="#md838ae5294" x="228.218804" y="472.93101" style="fill: #9467bd; stroke: #9467bd"/>
     <use xlink:href="#md838ae5294" x="241.700702" y="476.260484" style="fill: #9467bd; stroke: #9467bd"/>
     <use xlink:href="#md838ae5294" x="255.182599" y="468.47285" style="fill: #9467bd; stroke: #9467bd"/>
     <use xlink:href="#md838ae5294" x="282.146394" y="472.557638" style="fill: #9467bd; stroke: #9467bd"/>
     <use xlink:href="#md838ae5294" x="295.628291" y="475.661567" style="fill: #9467bd; stroke: #9467bd"/>
     <use xlink:href="#md838ae5294" x="322.592086" y="471.710141" style="fill: #9467bd; stroke: #9467bd"/>
     <use xlink:href="#md838ae5294" x="336.073984" y="470.181029" style="fill: #9467bd; stroke: #9467bd"/>
     <use xlink:href="#md838ae5294" x="349.555881" y="474.896674" style="fill: #9467bd; stroke: #9467bd"/>
     <use xlink:href="#md838ae5294" x="363.037779" y="474.651718" style="fill: #9467bd; stroke: #9467bd"/>
     <use xlink:href="#md838ae5294" x="376.519676" y="475.987707" style="fill: #9467bd; stroke: #9467bd"/>
     <use xlink:href="#md838ae5294" x="403.483471" y="476.108573" style="fill: #9467bd; stroke: #9467bd"/>
     <use xlink:href="#md838ae5294" x="416.965369" y="471.107445" style="fill: #9467bd; stroke: #9467bd"/>
     <use xlink:href="#md838ae5294" x="430.447266" y="506.332202" style="fill: #9467bd; stroke: #9467bd"/>
     <use xlink:href="#md838ae5294" x="443.929164" y="505.877934" style="fill: #9467bd; stroke: #9467bd"/>
     <use xlink:href="#md838ae5294" x="470.892959" y="505.977285" style="fill: #9467bd; stroke: #9467bd"/>
     <use xlink:href="#md838ae5294" x="484.374856" y="428.683473" style="fill: #9467bd; stroke: #9467bd"/>
     <use xlink:href="#md838ae5294" x="497.856753" y="504.258748" style="fill: #9467bd; stroke: #9467bd"/>
     <use xlink:href="#md838ae5294" x="511.338651" y="505.309747" style="fill: #9467bd; stroke: #9467bd"/>
     <use xlink:href="#md838ae5294" x="524.820548" y="505.969168" style="fill: #9467bd; stroke: #9467bd"/>
     <use xlink:href="#md838ae5294" x="538.302446" y="505.977845" style="fill: #9467bd; stroke: #9467bd"/>
     <use xlink:href="#md838ae5294" x="551.784343" y="505.768274" style="fill: #9467bd; stroke: #9467bd"/>
     <use xlink:href="#md838ae5294" x="565.266241" y="504.563304" style="fill: #9467bd; stroke: #9467bd"/>
     <use xlink:href="#md838ae5294" x="592.230036" y="427.893622" style="fill: #9467bd; stroke: #9467bd"/>
     <use xlink:href="#md838ae5294" x="605.711933" y="506.077237" style="fill: #9467bd; stroke: #9467bd"/>
     <use xlink:href="#md838ae5294" x="619.193831" y="504.166483" style="fill: #9467bd; stroke: #9467bd"/>
     <use xlink:href="#md838ae5294" x="646.157626" y="504.134531" style="fill: #9467bd; stroke: #9467bd"/>
    </g>
   </g>
   <g id="line2d_25">
    <path d="M 93.39983 268.939577 
L 106.881727 267.828467 
L 120.363624 268.527368 
L 133.845522 267.715805 
L 147.327419 221.366363 
L 160.809317 222.464459 
L 174.291214 268.210169 
L 187.773112 218.197725 
L 201.255009 269.463986 
L 214.736907 268.246805 
L 228.218804 268.398596 
L 241.700702 268.401033 
L 255.182599 267.548915 
L 282.146394 268.611663 
L 295.628291 267.917174 
L 322.592086 268.925136 
L 336.073984 269.466966 
L 349.555881 269.22487 
L 363.037779 270.06184 
L 376.519676 267.700484 
L 403.483471 268.59512 
L 416.965369 268.271903 
L 430.447266 270.834468 
L 443.929164 272.336148 
L 470.892959 271.908719 
L 484.374856 222.996044 
L 497.856753 272.337763 
L 511.338651 272.094961 
L 524.820548 271.527751 
L 538.302446 271.744101 
L 551.784343 271.174594 
L 565.266241 271.176309 
L 592.230036 224.299778 
L 605.711933 271.484397 
L 619.193831 240.428978 
L 646.157626 271.114481 
" clip-path="url(#p10beaca2f3)" style="fill: none; stroke: #8c564b; stroke-width: 2; stroke-linecap: square"/>
    <defs>
     <path id="m8ec792fc77" d="M 0 3 
C 0.795609 3 1.55874 2.683901 2.12132 2.12132 
C 2.683901 1.55874 3 0.795609 3 0 
C 3 -0.795609 2.683901 -1.55874 2.12132 -2.12132 
C 1.55874 -2.683901 0.795609 -3 0 -3 
C -0.795609 -3 -1.55874 -2.683901 -2.12132 -2.12132 
C -2.683901 -1.55874 -3 -0.795609 -3 0 
C -3 0.795609 -2.683901 1.55874 -2.12132 2.12132 
C -1.55874 2.683901 -0.795609 3 0 3 
z
" style="stroke: #8c564b"/>
    </defs>
    <g clip-path="url(#p10beaca2f3)">
     <use xlink:href="#m8ec792fc77" x="93.39983" y="268.939577" style="fill: #8c564b; stroke: #8c564b"/>
     <use xlink:href="#m8ec792fc77" x="106.881727" y="267.828467" style="fill: #8c564b; stroke: #8c564b"/>
     <use xlink:href="#m8ec792fc77" x="120.363624" y="268.527368" style="fill: #8c564b; stroke: #8c564b"/>
     <use xlink:href="#m8ec792fc77" x="133.845522" y="267.715805" style="fill: #8c564b; stroke: #8c564b"/>
     <use xlink:href="#m8ec792fc77" x="147.327419" y="221.366363" style="fill: #8c564b; stroke: #8c564b"/>
     <use xlink:href="#m8ec792fc77" x="160.809317" y="222.464459" style="fill: #8c564b; stroke: #8c564b"/>
     <use xlink:href="#m8ec792fc77" x="174.291214" y="268.210169" style="fill: #8c564b; stroke: #8c564b"/>
     <use xlink:href="#m8ec792fc77" x="187.773112" y="218.197725" style="fill: #8c564b; stroke: #8c564b"/>
     <use xlink:href="#m8ec792fc77" x="201.255009" y="269.463986" style="fill: #8c564b; stroke: #8c564b"/>
     <use xlink:href="#m8ec792fc77" x="214.736907" y="268.246805" style="fill: #8c564b; stroke: #8c564b"/>
     <use xlink:href="#m8ec792fc77" x="228.218804" y="268.398596" style="fill: #8c564b; stroke: #8c564b"/>
     <use xlink:href="#m8ec792fc77" x="241.700702" y="268.401033" style="fill: #8c564b; stroke: #8c564b"/>
     <use xlink:href="#m8ec792fc77" x="255.182599" y="267.548915" style="fill: #8c564b; stroke: #8c564b"/>
     <use xlink:href="#m8ec792fc77" x="282.146394" y="268.611663" style="fill: #8c564b; stroke: #8c564b"/>
     <use xlink:href="#m8ec792fc77" x="295.628291" y="267.917174" style="fill: #8c564b; stroke: #8c564b"/>
     <use xlink:href="#m8ec792fc77" x="322.592086" y="268.925136" style="fill: #8c564b; stroke: #8c564b"/>
     <use xlink:href="#m8ec792fc77" x="336.073984" y="269.466966" style="fill: #8c564b; stroke: #8c564b"/>
     <use xlink:href="#m8ec792fc77" x="349.555881" y="269.22487" style="fill: #8c564b; stroke: #8c564b"/>
     <use xlink:href="#m8ec792fc77" x="363.037779" y="270.06184" style="fill: #8c564b; stroke: #8c564b"/>
     <use xlink:href="#m8ec792fc77" x="376.519676" y="267.700484" style="fill: #8c564b; stroke: #8c564b"/>
     <use xlink:href="#m8ec792fc77" x="403.483471" y="268.59512" style="fill: #8c564b; stroke: #8c564b"/>
     <use xlink:href="#m8ec792fc77" x="416.965369" y="268.271903" style="fill: #8c564b; stroke: #8c564b"/>
     <use xlink:href="#m8ec792fc77" x="430.447266" y="270.834468" style="fill: #8c564b; stroke: #8c564b"/>
     <use xlink:href="#m8ec792fc77" x="443.929164" y="272.336148" style="fill: #8c564b; stroke: #8c564b"/>
     <use xlink:href="#m8ec792fc77" x="470.892959" y="271.908719" style="fill: #8c564b; stroke: #8c564b"/>
     <use xlink:href="#m8ec792fc77" x="484.374856" y="222.996044" style="fill: #8c564b; stroke: #8c564b"/>
     <use xlink:href="#m8ec792fc77" x="497.856753" y="272.337763" style="fill: #8c564b; stroke: #8c564b"/>
     <use xlink:href="#m8ec792fc77" x="511.338651" y="272.094961" style="fill: #8c564b; stroke: #8c564b"/>
     <use xlink:href="#m8ec792fc77" x="524.820548" y="271.527751" style="fill: #8c564b; stroke: #8c564b"/>
     <use xlink:href="#m8ec792fc77" x="538.302446" y="271.744101" style="fill: #8c564b; stroke: #8c564b"/>
     <use xlink:href="#m8ec792fc77" x="551.784343" y="271.174594" style="fill: #8c564b; stroke: #8c564b"/>
     <use xlink:href="#m8ec792fc77" x="565.266241" y="271.176309" style="fill: #8c564b; stroke: #8c564b"/>
     <use xlink:href="#m8ec792fc77" x="592.230036" y="224.299778" style="fill: #8c564b; stroke: #8c564b"/>
     <use xlink:href="#m8ec792fc77" x="605.711933" y="271.484397" style="fill: #8c564b; stroke: #8c564b"/>
     <use xlink:href="#m8ec792fc77" x="619.193831" y="240.428978" style="fill: #8c564b; stroke: #8c564b"/>
     <use xlink:href="#m8ec792fc77" x="646.157626" y="271.114481" style="fill: #8c564b; stroke: #8c564b"/>
    </g>
   </g>
   <g id="patch_3">
    <path d="M 64.41375 529.308125 
L 64.41375 23.837813 
" style="fill: none; stroke: #000000; stroke-width: 0.8; stroke-linejoin: miter; stroke-linecap: square"/>
   </g>
   <g id="patch_4">
    <path d="M 702.1075 529.308125 
L 702.1075 23.837813 
" style="fill: none; stroke: #000000; stroke-width: 0.8; stroke-linejoin: miter; stroke-linecap: square"/>
   </g>
   <g id="patch_5">
    <path d="M 64.41375 529.308125 
L 702.1075 529.308125 
" style="fill: none; stroke: #000000; stroke-width: 0.8; stroke-linejoin: miter; stroke-linecap: square"/>
   </g>
   <g id="patch_6">
    <path d="M 64.41375 23.837812 
L 702.1075 23.837812 
" style="fill: none; stroke: #000000; stroke-width: 0.8; stroke-linejoin: miter; stroke-linecap: square"/>
   </g>
   <g id="text_13">
    <text style="font: 700 14px 'DejaVu Sans', 'Bitstream Vera Sans', 'Computer Modern Sans Serif', 'Lucida Grande', 'Verdana', 'Geneva', 'Lucid', 'Arial', 'Helvetica', 'Avant Garde', sans-serif; text-anchor: middle" x="383.260625" y="17.837813" transform="rotate(-0 383.260625 17.837813)">Parallelfor Vectorops - Performance Trend</text>
   </g>
   <g id="legend_1">
    <g id="patch_7">
     <path d="M 740.992188 119.906563 
L 846.004688 119.906563 
Q 848.004688 119.906563 848.004688 117.906563 
L 848.004688 30.837813 
Q 848.004688 28.837813 846.004688 28.837813 
L 740.992188 28.837813 
Q 738.992188 28.837813 738.992188 30.837813 
L 738.992188 117.906563 
Q 738.992188 119.906563 740.992188 119.906563 
z
" style="fill: #ffffff; opacity: 0.8; stroke: #cccccc; stroke-linejoin: miter"/>
    </g>
    <g id="line2d_26">
     <path d="M 742.992188 36.93625 
L 752.992188 36.93625 
L 762.992188 36.93625 
" style="fill: none; stroke: #1f77b4; stroke-width: 2; stroke-linecap: square"/>
     <g>
      <use xlink:href="#m9a299a62a0" x="752.992188" y="36.93625" style="fill: #1f77b4; stroke: #1f77b4"/>
     </g>
    </g>
    <g id="text_14">
     <text style="font: 10px 'DejaVu Sans', 'Bitstream Vera Sans', 'Computer Modern Sans Serif', 'Lucida Grande', 'Verdana', 'Geneva', 'Lucid', 'Arial', 'Helvetica', 'Avant Garde', sans-serif; text-anchor: start" x="770.992188" y="40.43625" transform="rotate(-0 770.992188 40.43625)">gcc-14.2 - V1</text>
    </g>
    <g id="line2d_27">
     <path d="M 742.992188 51.614375 
L 752.992188 51.614375 
L 762.992188 51.614375 
" style="fill: none; stroke: #ff7f0e; stroke-width: 2; stroke-linecap: square"/>
     <g>
      <use xlink:href="#mcc2c14e453" x="752.992188" y="51.614375" style="fill: #ff7f0e; stroke: #ff7f0e"/>
     </g>
    </g>
    <g id="text_15">
     <text style="font: 10px 'DejaVu Sans', 'Bitstream Vera Sans', 'Computer Modern Sans Serif', 'Lucida Grande', 'Verdana', 'Geneva', 'Lucid', 'Arial', 'Helvetica', 'Avant Garde', sans-serif; text-anchor: start" x="770.992188" y="55.114375" transform="rotate(-0 770.992188 55.114375)">gcc-14.2 - V2</text>
    </g>
    <g id="line2d_28">
     <path d="M 742.992188 66.2925 
L 752.992188 66.2925 
L 762.992188 66.2925 
" style="fill: none; stroke: #2ca02c; stroke-width: 2; stroke-linecap: square"/>
     <g>
      <use xlink:href="#mf741d50115" x="752.992188" y="66.2925" style="fill: #2ca02c; stroke: #2ca02c"/>
     </g>
    </g>
    <g id="text_16">
     <text style="font: 10px 'DejaVu Sans', 'Bitstream Vera Sans', 'Computer Modern Sans Serif', 'Lucida Grande', 'Verdana', 'Geneva', 'Lucid', 'Arial', 'Helvetica', 'Avant Garde', sans-serif; text-anchor: start" x="770.992188" y="69.7925" transform="rotate(-0 770.992188 69.7925)">gcc-14.2 - TBB</text>
    </g>
    <g id="line2d_29">
     <path d="M 742.992188 80.970625 
L 752.992188 80.970625 
L 762.992188 80.970625 
" style="fill: none; stroke: #d62728; stroke-width: 2; stroke-linecap: square"/>
     <g>
      <use xlink:href="#m5fdecfebcd" x="752.992188" y="80.970625" style="fill: #d62728; stroke: #d62728"/>
     </g>
    </g>
    <g id="text_17">
     <text style="font: 10px 'DejaVu Sans', 'Bitstream Vera Sans', 'Computer Modern Sans Serif', 'Lucida Grande', 'Verdana', 'Geneva', 'Lucid', 'Arial', 'Helvetica', 'Avant Garde', sans-serif; text-anchor: start" x="770.992188" y="84.470625" transform="rotate(-0 770.992188 84.470625)">gcc-4.2 - V1</text>
    </g>
    <g id="line2d_30">
     <path d="M 742.992188 95.64875 
L 752.992188 95.64875 
L 762.992188 95.64875 
" style="fill: none; stroke: #9467bd; stroke-width: 2; stroke-linecap: square"/>
     <g>
      <use xlink:href="#md838ae5294" x="752.992188" y="95.64875" style="fill: #9467bd; stroke: #9467bd"/>
     </g>
    </g>
    <g id="text_18">
     <text style="font: 10px 'DejaVu Sans', 'Bitstream Vera Sans', 'Computer Modern Sans Serif', 'Lucida Grande', 'Verdana', 'Geneva', 'Lucid', 'Arial', 'Helvetica', 'Avant Garde', sans-serif; text-anchor: start" x="770.992188" y="99.14875" transform="rotate(-0 770.992188 99.14875)">gcc-4.2 - V2</text>
    </g>
    <g id="line2d_31">
     <path d="M 742.992188 110.326875 
L 752.992188 110.326875 
L 762.992188 110.326875 
" style="fill: none; stroke: #8c564b; stroke-width: 2; stroke-linecap: square"/>
     <g>
      <use xlink:href="#m8ec792fc77" x="752.992188" y="110.326875" style="fill: #8c564b; stroke: #8c564b"/>
     </g>
    </g>
    <g id="text_19">
     <text style="font: 10px 'DejaVu Sans', 'Bitstream Vera Sans', 'Computer Modern Sans Serif', 'Lucida Grande', 'Verdana', 'Geneva', 'Lucid', 'Arial', 'Helvetica', 'Avant Garde', sans-serif; text-anchor: start" x="770.992188" y="113.826875" transform="rotate(-0 770.992188 113.826875)">gcc-4.2 - TBB</text>
    </g>
   </g>
  </g>
 </g>
 <defs>
  <clipPath id="p10beaca2f3">
   <rect x="64.41375" y="23.837813" width="637.69375" height="505.470313"/>
  </clipPath>
 </defs>
</svg>
