<?xml version="1.0" encoding="utf-8" standalone="no"?>
<!DOCTYPE svg PUBLIC "-//W3C//DTD SVG 1.1//EN"
  "http://www.w3.org/Graphics/SVG/1.1/DTD/svg11.dtd">
<svg xmlns:xlink="http://www.w3.org/1999/xlink" width="855.889141pt" height="568.8pt" viewBox="0 0 855.889141 568.8" xmlns="http://www.w3.org/2000/svg" version="1.1">
 <metadata>
  <rdf:RDF xmlns:dc="http://purl.org/dc/elements/1.1/" xmlns:cc="http://creativecommons.org/ns#" xmlns:rdf="http://www.w3.org/1999/02/22-rdf-syntax-ns#">
   <cc:Work>
    <dc:type rdf:resource="http://purl.org/dc/dcmitype/StillImage"/>
    <dc:date>2025-08-30T10:56:08.281528</dc:date>
    <dc:format>image/svg+xml</dc:format>
    <dc:creator>
     <cc:Agent>
      <dc:title>Matplotlib v3.9.4, https://matplotlib.org/</dc:title>
     </cc:Agent>
    </dc:creator>
   </cc:Work>
  </rdf:RDF>
 </metadata>
 <defs>
  <style type="text/css">*{stroke-linejoin: round; stroke-linecap: butt}</style>
 </defs>
 <g id="figure_1">
  <g id="patch_1">
   <path d="M 0 568.8 
L 855.889141 568.8 
L 855.889141 0 
L 0 0 
z
" style="fill: #ffffff"/>
  </g>
  <g id="axes_1">
   <g id="patch_2">
    <path d="M 80.31375 529.308125 
L 731.696562 529.308125 
L 731.696562 23.837812 
L 80.31375 23.837812 
z
" style="fill: #ffffff"/>
   </g>
   <g id="matplotlib.axis_1">
    <g id="xtick_1">
     <g id="line2d_1">
      <path d="M 95.117905 529.308125 
L 95.117905 23.837812 
" clip-path="url(#p153161c02e)" style="fill: none; stroke: #b0b0b0; stroke-opacity: 0.3; stroke-width: 0.8; stroke-linecap: square"/>
     </g>
     <g id="line2d_2">
      <defs>
       <path id="m98738b2b1d" d="M 0 0 
L 0 3.5 
" style="stroke: #000000; stroke-width: 0.8"/>
      </defs>
      <g>
       <use xlink:href="#m98738b2b1d" x="95.117905" y="529.308125" style="stroke: #000000; stroke-width: 0.8"/>
      </g>
     </g>
     <g id="text_1">
      <text style="font: 10px 'DejaVu Sans', 'Bitstream Vera Sans', 'Computer Modern Sans Serif', 'Lucida Grande', 'Verdana', 'Geneva', 'Lucid', 'Arial', 'Helvetica', 'Avant Garde', sans-serif; text-anchor: middle" x="95.117905" y="543.906563" transform="rotate(-0 95.117905 543.906563)">70</text>
     </g>
    </g>
    <g id="xtick_2">
     <g id="line2d_3">
      <path d="M 169.138679 529.308125 
L 169.138679 23.837812 
" clip-path="url(#p153161c02e)" style="fill: none; stroke: #b0b0b0; stroke-opacity: 0.3; stroke-width: 0.8; stroke-linecap: square"/>
     </g>
     <g id="line2d_4">
      <g>
       <use xlink:href="#m98738b2b1d" x="169.138679" y="529.308125" style="stroke: #000000; stroke-width: 0.8"/>
      </g>
     </g>
     <g id="text_2">
      <text style="font: 10px 'DejaVu Sans', 'Bitstream Vera Sans', 'Computer Modern Sans Serif', 'Lucida Grande', 'Verdana', 'Geneva', 'Lucid', 'Arial', 'Helvetica', 'Avant Garde', sans-serif; text-anchor: middle" x="169.138679" y="543.906563" transform="rotate(-0 169.138679 543.906563)">75</text>
     </g>
    </g>
    <g id="xtick_3">
     <g id="line2d_5">
      <path d="M 243.159453 529.308125 
L 243.159453 23.837812 
" clip-path="url(#p153161c02e)" style="fill: none; stroke: #b0b0b0; stroke-opacity: 0.3; stroke-width: 0.8; stroke-linecap: square"/>
     </g>
     <g id="line2d_6">
      <g>
       <use xlink:href="#m98738b2b1d" x="243.159453" y="529.308125" style="stroke: #000000; stroke-width: 0.8"/>
      </g>
     </g>
     <g id="text_3">
      <text style="font: 10px 'DejaVu Sans', 'Bitstream Vera Sans', 'Computer Modern Sans Serif', 'Lucida Grande', 'Verdana', 'Geneva', 'Lucid', 'Arial', 'Helvetica', 'Avant Garde', sans-serif; text-anchor: middle" x="243.159453" y="543.906563" transform="rotate(-0 243.159453 543.906563)">80</text>
     </g>
    </g>
    <g id="xtick_4">
     <g id="line2d_7">
      <path d="M 317.180227 529.308125 
L 317.180227 23.837812 
" clip-path="url(#p153161c02e)" style="fill: none; stroke: #b0b0b0; stroke-opacity: 0.3; stroke-width: 0.8; stroke-linecap: square"/>
     </g>
     <g id="line2d_8">
      <g>
       <use xlink:href="#m98738b2b1d" x="317.180227" y="529.308125" style="stroke: #000000; stroke-width: 0.8"/>
      </g>
     </g>
     <g id="text_4">
      <text style="font: 10px 'DejaVu Sans', 'Bitstream Vera Sans', 'Computer Modern Sans Serif', 'Lucida Grande', 'Verdana', 'Geneva', 'Lucid', 'Arial', 'Helvetica', 'Avant Garde', sans-serif; text-anchor: middle" x="317.180227" y="543.906563" transform="rotate(-0 317.180227 543.906563)">85</text>
     </g>
    </g>
    <g id="xtick_5">
     <g id="line2d_9">
      <path d="M 391.201001 529.308125 
L 391.201001 23.837812 
" clip-path="url(#p153161c02e)" style="fill: none; stroke: #b0b0b0; stroke-opacity: 0.3; stroke-width: 0.8; stroke-linecap: square"/>
     </g>
     <g id="line2d_10">
      <g>
       <use xlink:href="#m98738b2b1d" x="391.201001" y="529.308125" style="stroke: #000000; stroke-width: 0.8"/>
      </g>
     </g>
     <g id="text_5">
      <text style="font: 10px 'DejaVu Sans', 'Bitstream Vera Sans', 'Computer Modern Sans Serif', 'Lucida Grande', 'Verdana', 'Geneva', 'Lucid', 'Arial', 'Helvetica', 'Avant Garde', sans-serif; text-anchor: middle" x="391.201001" y="543.906563" transform="rotate(-0 391.201001 543.906563)">90</text>
     </g>
    </g>
    <g id="xtick_6">
     <g id="line2d_11">
      <path d="M 465.221776 529.308125 
L 465.221776 23.837812 
" clip-path="url(#p153161c02e)" style="fill: none; stroke: #b0b0b0; stroke-opacity: 0.3; stroke-width: 0.8; stroke-linecap: square"/>
     </g>
     <g id="line2d_12">
      <g>
       <use xlink:href="#m98738b2b1d" x="465.221776" y="529.308125" style="stroke: #000000; stroke-width: 0.8"/>
      </g>
     </g>
     <g id="text_6">
      <text style="font: 10px 'DejaVu Sans', 'Bitstream Vera Sans', 'Computer Modern Sans Serif', 'Lucida Grande', 'Verdana', 'Geneva', 'Lucid', 'Arial', 'Helvetica', 'Avant Garde', sans-serif; text-anchor: middle" x="465.221776" y="543.906563" transform="rotate(-0 465.221776 543.906563)">95</text>
     </g>
    </g>
    <g id="xtick_7">
     <g id="line2d_13">
      <path d="M 539.24255 529.308125 
L 539.24255 23.837812 
" clip-path="url(#p153161c02e)" style="fill: none; stroke: #b0b0b0; stroke-opacity: 0.3; stroke-width: 0.8; stroke-linecap: square"/>
     </g>
     <g id="line2d_14">
      <g>
       <use xlink:href="#m98738b2b1d" x="539.24255" y="529.308125" style="stroke: #000000; stroke-width: 0.8"/>
      </g>
     </g>
     <g id="text_7">
      <text style="font: 10px 'DejaVu Sans', 'Bitstream Vera Sans', 'Computer Modern Sans Serif', 'Lucida Grande', 'Verdana', 'Geneva', 'Lucid', 'Arial', 'Helvetica', 'Avant Garde', sans-serif; text-anchor: middle" x="539.24255" y="543.906563" transform="rotate(-0 539.24255 543.906563)">100</text>
     </g>
    </g>
    <g id="xtick_8">
     <g id="line2d_15">
      <path d="M 613.263324 529.308125 
L 613.263324 23.837812 
" clip-path="url(#p153161c02e)" style="fill: none; stroke: #b0b0b0; stroke-opacity: 0.3; stroke-width: 0.8; stroke-linecap: square"/>
     </g>
     <g id="line2d_16">
      <g>
       <use xlink:href="#m98738b2b1d" x="613.263324" y="529.308125" style="stroke: #000000; stroke-width: 0.8"/>
      </g>
     </g>
     <g id="text_8">
      <text style="font: 10px 'DejaVu Sans', 'Bitstream Vera Sans', 'Computer Modern Sans Serif', 'Lucida Grande', 'Verdana', 'Geneva', 'Lucid', 'Arial', 'Helvetica', 'Avant Garde', sans-serif; text-anchor: middle" x="613.263324" y="543.906563" transform="rotate(-0 613.263324 543.906563)">105</text>
     </g>
    </g>
    <g id="xtick_9">
     <g id="line2d_17">
      <path d="M 687.284098 529.308125 
L 687.284098 23.837812 
" clip-path="url(#p153161c02e)" style="fill: none; stroke: #b0b0b0; stroke-opacity: 0.3; stroke-width: 0.8; stroke-linecap: square"/>
     </g>
     <g id="line2d_18">
      <g>
       <use xlink:href="#m98738b2b1d" x="687.284098" y="529.308125" style="stroke: #000000; stroke-width: 0.8"/>
      </g>
     </g>
     <g id="text_9">
      <text style="font: 10px 'DejaVu Sans', 'Bitstream Vera Sans', 'Computer Modern Sans Serif', 'Lucida Grande', 'Verdana', 'Geneva', 'Lucid', 'Arial', 'Helvetica', 'Avant Garde', sans-serif; text-anchor: middle" x="687.284098" y="543.906563" transform="rotate(-0 687.284098 543.906563)">110</text>
     </g>
    </g>
    <g id="text_10">
     <text style="font: 12px 'DejaVu Sans', 'Bitstream Vera Sans', 'Computer Modern Sans Serif', 'Lucida Grande', 'Verdana', 'Geneva', 'Lucid', 'Arial', 'Helvetica', 'Avant Garde', sans-serif; text-anchor: middle" x="406.005156" y="559.104375" transform="rotate(-0 406.005156 559.104375)">Build Number</text>
    </g>
   </g>
   <g id="matplotlib.axis_2">
    <g id="ytick_1">
     <g id="line2d_19">
      <defs>
       <path id="meab29ee358" d="M 0 0 
L -2 0 
" style="stroke: #000000; stroke-width: 0.6"/>
      </defs>
      <g>
       <use xlink:href="#meab29ee358" x="80.31375" y="498.484932" style="stroke: #000000; stroke-width: 0.6"/>
      </g>
     </g>
     <g id="text_11">
      <!-- $\mathdefault{1.9\times10^{2}}$ -->
      <g transform="translate(29.11375 502.28415)">
       <text>
        <tspan style="font: 10px 'DejaVu Sans'" x="0 6.362305 9.541016 17.851562 28.178711 34.541016" y="-0.9765625">1.9×10</tspan>
        <tspan style="font: 7px 'DejaVu Sans'" x="40.999023" y="-4.8046875">2</tspan>
       </text>
      </g>
     </g>
    </g>
    <g id="ytick_2">
     <g id="line2d_20">
      <g>
       <use xlink:href="#meab29ee358" x="80.31375" y="426.866594" style="stroke: #000000; stroke-width: 0.6"/>
      </g>
     </g>
     <g id="text_12">
      <!-- $\mathdefault{1.95\times10^{2}}$ -->
      <g transform="translate(22.81375 430.665812)">
       <text>
        <tspan style="font: 10px 'DejaVu Sans'" x="0 6.362305 9.541016 15.90332 24.213867 34.541016 40.90332" y="-0.9765625">1.95×10</tspan>
        <tspan style="font: 7px 'DejaVu Sans'" x="47.361328" y="-4.8046875">2</tspan>
       </text>
      </g>
     </g>
    </g>
    <g id="ytick_3">
     <g id="line2d_21">
      <g>
       <use xlink:href="#meab29ee358" x="80.31375" y="357.061574" style="stroke: #000000; stroke-width: 0.6"/>
      </g>
     </g>
     <g id="text_13">
      <!-- $\mathdefault{2\times10^{2}}$ -->
      <g transform="translate(38.71375 360.860793)">
       <text>
        <tspan style="font: 10px 'DejaVu Sans'" x="0 8.310547 18.637695 25" y="-0.9765625">2×10</tspan>
        <tspan style="font: 7px 'DejaVu Sans'" x="31.458008" y="-4.8046875">2</tspan>
       </text>
      </g>
     </g>
    </g>
    <g id="ytick_4">
     <g id="line2d_22">
      <g>
       <use xlink:href="#meab29ee358" x="80.31375" y="288.980313" style="stroke: #000000; stroke-width: 0.6"/>
      </g>
     </g>
     <g id="text_14">
      <!-- $\mathdefault{2.05\times10^{2}}$ -->
      <g transform="translate(22.81375 292.779532)">
       <text>
        <tspan style="font: 10px 'DejaVu Sans'" x="0 6.362305 9.541016 15.90332 24.213867 34.541016 40.90332" y="-0.9765625">2.05×10</tspan>
        <tspan style="font: 7px 'DejaVu Sans'" x="47.361328" y="-4.8046875">2</tspan>
       </text>
      </g>
     </g>
    </g>
    <g id="ytick_5">
     <g id="line2d_23">
      <g>
       <use xlink:href="#meab29ee358" x="80.31375" y="222.539725" style="stroke: #000000; stroke-width: 0.6"/>
      </g>
     </g>
     <g id="text_15">
      <!-- $\mathdefault{2.1\times10^{2}}$ -->
      <g transform="translate(29.11375 226.338944)">
       <text>
        <tspan style="font: 10px 'DejaVu Sans'" x="0 6.362305 9.541016 17.851562 28.178711 34.541016" y="-0.9765625">2.1×10</tspan>
        <tspan style="font: 7px 'DejaVu Sans'" x="40.999023" y="-4.8046875">2</tspan>
       </text>
      </g>
     </g>
    </g>
    <g id="ytick_6">
     <g id="line2d_24">
      <g>
       <use xlink:href="#meab29ee358" x="80.31375" y="157.662591" style="stroke: #000000; stroke-width: 0.6"/>
      </g>
     </g>
     <g id="text_16">
      <!-- $\mathdefault{2.15\times10^{2}}$ -->
      <g transform="translate(22.81375 161.461809)">
       <text>
        <tspan style="font: 10px 'DejaVu Sans'" x="0 6.362305 9.541016 15.90332 24.213867 34.541016 40.90332" y="-0.9765625">2.15×10</tspan>
        <tspan style="font: 7px 'DejaVu Sans'" x="47.361328" y="-4.8046875">2</tspan>
       </text>
      </g>
     </g>
    </g>
    <g id="ytick_7">
     <g id="line2d_25">
      <g>
       <use xlink:href="#meab29ee358" x="80.31375" y="94.277018" style="stroke: #000000; stroke-width: 0.6"/>
      </g>
     </g>
     <g id="text_17">
      <!-- $\mathdefault{2.2\times10^{2}}$ -->
      <g transform="translate(29.71375 98.076236)">
       <text>
        <tspan style="font: 10px 'DejaVu Sans'" x="0 6.362305 9.041016 17.351562 27.678711 34.041016" y="-0.9765625">2.2×10</tspan>
        <tspan style="font: 7px 'DejaVu Sans'" x="40.499023" y="-4.8046875">2</tspan>
       </text>
      </g>
     </g>
    </g>
    <g id="ytick_8">
     <g id="line2d_26">
      <g>
       <use xlink:href="#meab29ee358" x="80.31375" y="32.315961" style="stroke: #000000; stroke-width: 0.6"/>
      </g>
     </g>
     <g id="text_18">
      <!-- $\mathdefault{2.25\times10^{2}}$ -->
      <g transform="translate(23.31375 36.11518)">
       <text>
        <tspan style="font: 10px 'DejaVu Sans'" x="0 6.362305 9.041016 15.40332 23.713867 34.041016 40.40332" y="-0.9765625">2.25×10</tspan>
        <tspan style="font: 7px 'DejaVu Sans'" x="46.861328" y="-4.8046875">2</tspan>
       </text>
      </g>
     </g>
    </g>
    <g id="text_19">
     <text style="font: 12px 'DejaVu Sans', 'Bitstream Vera Sans', 'Computer Modern Sans Serif', 'Lucida Grande', 'Verdana', 'Geneva', 'Lucid', 'Arial', 'Helvetica', 'Avant Garde', sans-serif; text-anchor: middle" x="16.318125" y="276.572969" transform="rotate(-90 16.318125 276.572969)">Median Elapsed Time (nanoseconds)</text>
    </g>
   </g>
   <g id="line2d_27">
    <path d="M 109.92206 296.738053 
L 124.726214 269.013009 
L 139.530369 454.43407 
L 154.334524 275.875447 
L 169.138679 285.217018 
L 183.942834 116.928317 
L 198.746989 125.660895 
L 213.551143 451.579285 
L 228.355298 286.426088 
L 243.159453 433.094887 
L 257.963608 107.9714 
L 272.767763 289.114811 
L 287.571918 295.848113 
L 317.180227 283.739985 
L 331.984382 294.500137 
L 361.592692 506.332202 
L 376.396847 82.89596 
L 391.201001 62.874615 
L 406.005156 290.594728 
L 420.809311 438.769207 
L 450.417621 113.013971 
L 465.221776 297.331649 
L 480.02593 279.715729 
L 494.830085 120.595162 
L 524.438395 300.031033 
L 539.24255 474.64462 
L 554.046705 443.174851 
L 568.850859 289.114811 
L 583.655014 291.940796 
L 598.459169 116.801961 
L 613.263324 235.550109 
L 628.067479 290.594728 
L 657.675788 301.246619 
L 672.479943 100.424794 
L 687.284098 100.424794 
" clip-path="url(#p153161c02e)" style="fill: none; stroke: #1f77b4; stroke-width: 2; stroke-linecap: square"/>
    <defs>
     <path id="m3b41090693" d="M 0 3 
C 0.795609 3 1.55874 2.683901 2.12132 2.12132 
C 2.683901 1.55874 3 0.795609 3 0 
C 3 -0.795609 2.683901 -1.55874 2.12132 -2.12132 
C 1.55874 -2.683901 0.795609 -3 0 -3 
C -0.795609 -3 -1.55874 -2.683901 -2.12132 -2.12132 
C -2.683901 -1.55874 -3 -0.795609 -3 0 
C -3 0.795609 -2.683901 1.55874 -2.12132 2.12132 
C -1.55874 2.683901 -0.795609 3 0 3 
z
" style="stroke: #1f77b4"/>
    </defs>
    <g clip-path="url(#p153161c02e)">
     <use xlink:href="#m3b41090693" x="109.92206" y="296.738053" style="fill: #1f77b4; stroke: #1f77b4"/>
     <use xlink:href="#m3b41090693" x="124.726214" y="269.013009" style="fill: #1f77b4; stroke: #1f77b4"/>
     <use xlink:href="#m3b41090693" x="139.530369" y="454.43407" style="fill: #1f77b4; stroke: #1f77b4"/>
     <use xlink:href="#m3b41090693" x="154.334524" y="275.875447" style="fill: #1f77b4; stroke: #1f77b4"/>
     <use xlink:href="#m3b41090693" x="169.138679" y="285.217018" style="fill: #1f77b4; stroke: #1f77b4"/>
     <use xlink:href="#m3b41090693" x="183.942834" y="116.928317" style="fill: #1f77b4; stroke: #1f77b4"/>
     <use xlink:href="#m3b41090693" x="198.746989" y="125.660895" style="fill: #1f77b4; stroke: #1f77b4"/>
     <use xlink:href="#m3b41090693" x="213.551143" y="451.579285" style="fill: #1f77b4; stroke: #1f77b4"/>
     <use xlink:href="#m3b41090693" x="228.355298" y="286.426088" style="fill: #1f77b4; stroke: #1f77b4"/>
     <use xlink:href="#m3b41090693" x="243.159453" y="433.094887" style="fill: #1f77b4; stroke: #1f77b4"/>
     <use xlink:href="#m3b41090693" x="257.963608" y="107.9714" style="fill: #1f77b4; stroke: #1f77b4"/>
     <use xlink:href="#m3b41090693" x="272.767763" y="289.114811" style="fill: #1f77b4; stroke: #1f77b4"/>
     <use xlink:href="#m3b41090693" x="287.571918" y="295.848113" style="fill: #1f77b4; stroke: #1f77b4"/>
     <use xlink:href="#m3b41090693" x="317.180227" y="283.739985" style="fill: #1f77b4; stroke: #1f77b4"/>
     <use xlink:href="#m3b41090693" x="331.984382" y="294.500137" style="fill: #1f77b4; stroke: #1f77b4"/>
     <use xlink:href="#m3b41090693" x="361.592692" y="506.332202" style="fill: #1f77b4; stroke: #1f77b4"/>
     <use xlink:href="#m3b41090693" x="376.396847" y="82.89596" style="fill: #1f77b4; stroke: #1f77b4"/>
     <use xlink:href="#m3b41090693" x="391.201001" y="62.874615" style="fill: #1f77b4; stroke: #1f77b4"/>
     <use xlink:href="#m3b41090693" x="406.005156" y="290.594728" style="fill: #1f77b4; stroke: #1f77b4"/>
     <use xlink:href="#m3b41090693" x="420.809311" y="438.769207" style="fill: #1f77b4; stroke: #1f77b4"/>
     <use xlink:href="#m3b41090693" x="450.417621" y="113.013971" style="fill: #1f77b4; stroke: #1f77b4"/>
     <use xlink:href="#m3b41090693" x="465.221776" y="297.331649" style="fill: #1f77b4; stroke: #1f77b4"/>
     <use xlink:href="#m3b41090693" x="480.02593" y="279.715729" style="fill: #1f77b4; stroke: #1f77b4"/>
     <use xlink:href="#m3b41090693" x="494.830085" y="120.595162" style="fill: #1f77b4; stroke: #1f77b4"/>
     <use xlink:href="#m3b41090693" x="524.438395" y="300.031033" style="fill: #1f77b4; stroke: #1f77b4"/>
     <use xlink:href="#m3b41090693" x="539.24255" y="474.64462" style="fill: #1f77b4; stroke: #1f77b4"/>
     <use xlink:href="#m3b41090693" x="554.046705" y="443.174851" style="fill: #1f77b4; stroke: #1f77b4"/>
     <use xlink:href="#m3b41090693" x="568.850859" y="289.114811" style="fill: #1f77b4; stroke: #1f77b4"/>
     <use xlink:href="#m3b41090693" x="583.655014" y="291.940796" style="fill: #1f77b4; stroke: #1f77b4"/>
     <use xlink:href="#m3b41090693" x="598.459169" y="116.801961" style="fill: #1f77b4; stroke: #1f77b4"/>
     <use xlink:href="#m3b41090693" x="613.263324" y="235.550109" style="fill: #1f77b4; stroke: #1f77b4"/>
     <use xlink:href="#m3b41090693" x="628.067479" y="290.594728" style="fill: #1f77b4; stroke: #1f77b4"/>
     <use xlink:href="#m3b41090693" x="657.675788" y="301.246619" style="fill: #1f77b4; stroke: #1f77b4"/>
     <use xlink:href="#m3b41090693" x="672.479943" y="100.424794" style="fill: #1f77b4; stroke: #1f77b4"/>
     <use xlink:href="#m3b41090693" x="687.284098" y="100.424794" style="fill: #1f77b4; stroke: #1f77b4"/>
    </g>
   </g>
   <g id="line2d_28">
    <path d="M 109.92206 287.904562 
L 124.726214 268.772299 
L 139.530369 279.849776 
L 154.334524 110.491533 
L 169.138679 249.056705 
L 183.942834 408.967986 
L 198.746989 439.517676 
L 213.551143 249.056705 
L 228.355298 273.844596 
L 243.159453 66.718372 
L 257.963608 46.813736 
L 272.767763 417.409543 
L 287.571918 89.018384 
L 302.376072 302.733063 
L 317.180227 410.373119 
L 331.984382 430.628028 
L 361.592692 92.773527 
L 376.396847 443.032623 
L 391.201001 95.405174 
L 406.005156 259.815166 
L 420.809311 428.705307 
L 435.613466 294.634905 
L 450.417621 416.000821 
L 465.221776 453.006308 
L 480.02593 254.364278 
L 494.830085 281.190608 
L 524.438395 250.543933 
L 539.24255 447.302643 
L 554.046705 97.913841 
L 568.850859 79.154237 
L 583.655014 265.010176 
L 598.459169 427.290803 
L 613.263324 71.685989 
L 628.067479 390.766131 
L 657.675788 300.031033 
L 672.479943 392.162016 
L 687.284098 289.249316 
L 702.088253 255.226785 
" clip-path="url(#p153161c02e)" style="fill: none; stroke: #ff7f0e; stroke-width: 2; stroke-linecap: square"/>
    <defs>
     <path id="m2e7fff0e26" d="M 0 3 
C 0.795609 3 1.55874 2.683901 2.12132 2.12132 
C 2.683901 1.55874 3 0.795609 3 0 
C 3 -0.795609 2.683901 -1.55874 2.12132 -2.12132 
C 1.55874 -2.683901 0.795609 -3 0 -3 
C -0.795609 -3 -1.55874 -2.683901 -2.12132 -2.12132 
C -2.683901 -1.55874 -3 -0.795609 -3 0 
C -3 0.795609 -2.683901 1.55874 -2.12132 2.12132 
C -1.55874 2.683901 -0.795609 3 0 3 
z
" style="stroke: #ff7f0e"/>
    </defs>
    <g clip-path="url(#p153161c02e)">
     <use xlink:href="#m2e7fff0e26" x="109.92206" y="287.904562" style="fill: #ff7f0e; stroke: #ff7f0e"/>
     <use xlink:href="#m2e7fff0e26" x="124.726214" y="268.772299" style="fill: #ff7f0e; stroke: #ff7f0e"/>
     <use xlink:href="#m2e7fff0e26" x="139.530369" y="279.849776" style="fill: #ff7f0e; stroke: #ff7f0e"/>
     <use xlink:href="#m2e7fff0e26" x="154.334524" y="110.491533" style="fill: #ff7f0e; stroke: #ff7f0e"/>
     <use xlink:href="#m2e7fff0e26" x="169.138679" y="249.056705" style="fill: #ff7f0e; stroke: #ff7f0e"/>
     <use xlink:href="#m2e7fff0e26" x="183.942834" y="408.967986" style="fill: #ff7f0e; stroke: #ff7f0e"/>
     <use xlink:href="#m2e7fff0e26" x="198.746989" y="439.517676" style="fill: #ff7f0e; stroke: #ff7f0e"/>
     <use xlink:href="#m2e7fff0e26" x="213.551143" y="249.056705" style="fill: #ff7f0e; stroke: #ff7f0e"/>
     <use xlink:href="#m2e7fff0e26" x="228.355298" y="273.844596" style="fill: #ff7f0e; stroke: #ff7f0e"/>
     <use xlink:href="#m2e7fff0e26" x="243.159453" y="66.718372" style="fill: #ff7f0e; stroke: #ff7f0e"/>
     <use xlink:href="#m2e7fff0e26" x="257.963608" y="46.813736" style="fill: #ff7f0e; stroke: #ff7f0e"/>
     <use xlink:href="#m2e7fff0e26" x="272.767763" y="417.409543" style="fill: #ff7f0e; stroke: #ff7f0e"/>
     <use xlink:href="#m2e7fff0e26" x="287.571918" y="89.018384" style="fill: #ff7f0e; stroke: #ff7f0e"/>
     <use xlink:href="#m2e7fff0e26" x="302.376072" y="302.733063" style="fill: #ff7f0e; stroke: #ff7f0e"/>
     <use xlink:href="#m2e7fff0e26" x="317.180227" y="410.373119" style="fill: #ff7f0e; stroke: #ff7f0e"/>
     <use xlink:href="#m2e7fff0e26" x="331.984382" y="430.628028" style="fill: #ff7f0e; stroke: #ff7f0e"/>
     <use xlink:href="#m2e7fff0e26" x="361.592692" y="92.773527" style="fill: #ff7f0e; stroke: #ff7f0e"/>
     <use xlink:href="#m2e7fff0e26" x="376.396847" y="443.032623" style="fill: #ff7f0e; stroke: #ff7f0e"/>
     <use xlink:href="#m2e7fff0e26" x="391.201001" y="95.405174" style="fill: #ff7f0e; stroke: #ff7f0e"/>
     <use xlink:href="#m2e7fff0e26" x="406.005156" y="259.815166" style="fill: #ff7f0e; stroke: #ff7f0e"/>
     <use xlink:href="#m2e7fff0e26" x="420.809311" y="428.705307" style="fill: #ff7f0e; stroke: #ff7f0e"/>
     <use xlink:href="#m2e7fff0e26" x="435.613466" y="294.634905" style="fill: #ff7f0e; stroke: #ff7f0e"/>
     <use xlink:href="#m2e7fff0e26" x="450.417621" y="416.000821" style="fill: #ff7f0e; stroke: #ff7f0e"/>
     <use xlink:href="#m2e7fff0e26" x="465.221776" y="453.006308" style="fill: #ff7f0e; stroke: #ff7f0e"/>
     <use xlink:href="#m2e7fff0e26" x="480.02593" y="254.364278" style="fill: #ff7f0e; stroke: #ff7f0e"/>
     <use xlink:href="#m2e7fff0e26" x="494.830085" y="281.190608" style="fill: #ff7f0e; stroke: #ff7f0e"/>
     <use xlink:href="#m2e7fff0e26" x="524.438395" y="250.543933" style="fill: #ff7f0e; stroke: #ff7f0e"/>
     <use xlink:href="#m2e7fff0e26" x="539.24255" y="447.302643" style="fill: #ff7f0e; stroke: #ff7f0e"/>
     <use xlink:href="#m2e7fff0e26" x="554.046705" y="97.913841" style="fill: #ff7f0e; stroke: #ff7f0e"/>
     <use xlink:href="#m2e7fff0e26" x="568.850859" y="79.154237" style="fill: #ff7f0e; stroke: #ff7f0e"/>
     <use xlink:href="#m2e7fff0e26" x="583.655014" y="265.010176" style="fill: #ff7f0e; stroke: #ff7f0e"/>
     <use xlink:href="#m2e7fff0e26" x="598.459169" y="427.290803" style="fill: #ff7f0e; stroke: #ff7f0e"/>
     <use xlink:href="#m2e7fff0e26" x="613.263324" y="71.685989" style="fill: #ff7f0e; stroke: #ff7f0e"/>
     <use xlink:href="#m2e7fff0e26" x="628.067479" y="390.766131" style="fill: #ff7f0e; stroke: #ff7f0e"/>
     <use xlink:href="#m2e7fff0e26" x="657.675788" y="300.031033" style="fill: #ff7f0e; stroke: #ff7f0e"/>
     <use xlink:href="#m2e7fff0e26" x="672.479943" y="392.162016" style="fill: #ff7f0e; stroke: #ff7f0e"/>
     <use xlink:href="#m2e7fff0e26" x="687.284098" y="289.249316" style="fill: #ff7f0e; stroke: #ff7f0e"/>
     <use xlink:href="#m2e7fff0e26" x="702.088253" y="255.226785" style="fill: #ff7f0e; stroke: #ff7f0e"/>
    </g>
   </g>
   <g id="patch_3">
    <path d="M 80.31375 529.308125 
L 80.31375 23.837812 
" style="fill: none; stroke: #000000; stroke-width: 0.8; stroke-linejoin: miter; stroke-linecap: square"/>
   </g>
   <g id="patch_4">
    <path d="M 731.696562 529.308125 
L 731.696562 23.837812 
" style="fill: none; stroke: #000000; stroke-width: 0.8; stroke-linejoin: miter; stroke-linecap: square"/>
   </g>
   <g id="patch_5">
    <path d="M 80.31375 529.308125 
L 731.696563 529.308125 
" style="fill: none; stroke: #000000; stroke-width: 0.8; stroke-linejoin: miter; stroke-linecap: square"/>
   </g>
   <g id="patch_6">
    <path d="M 80.31375 23.837812 
L 731.696563 23.837812 
" style="fill: none; stroke: #000000; stroke-width: 0.8; stroke-linejoin: miter; stroke-linecap: square"/>
   </g>
   <g id="text_20">
    <text style="font: 700 14px 'DejaVu Sans', 'Bitstream Vera Sans', 'Computer Modern Sans Serif', 'Lucida Grande', 'Verdana', 'Geneva', 'Lucid', 'Arial', 'Helvetica', 'Avant Garde', sans-serif; text-anchor: middle" x="406.005156" y="17.837813" transform="rotate(-0 406.005156 17.837813)">Coalescing Arena Alloc Dealloc - Performance Trend</text>
   </g>
   <g id="legend_1">
    <g id="patch_7">
     <path d="M 771.265703 61.194063 
L 846.689141 61.194063 
Q 848.689141 61.194063 848.689141 59.194063 
L 848.689141 30.837813 
Q 848.689141 28.837813 846.689141 28.837813 
L 771.265703 28.837813 
Q 769.265703 28.837813 769.265703 30.837813 
L 769.265703 59.194063 
Q 769.265703 61.194063 771.265703 61.194063 
z
" style="fill: #ffffff; opacity: 0.8; stroke: #cccccc; stroke-linejoin: miter"/>
    </g>
    <g id="line2d_29">
     <path d="M 773.265703 36.93625 
L 783.265703 36.93625 
L 793.265703 36.93625 
" style="fill: none; stroke: #1f77b4; stroke-width: 2; stroke-linecap: square"/>
     <g>
      <use xlink:href="#m3b41090693" x="783.265703" y="36.93625" style="fill: #1f77b4; stroke: #1f77b4"/>
     </g>
    </g>
    <g id="text_21">
     <text style="font: 10px 'DejaVu Sans', 'Bitstream Vera Sans', 'Computer Modern Sans Serif', 'Lucida Grande', 'Verdana', 'Geneva', 'Lucid', 'Arial', 'Helvetica', 'Avant Garde', sans-serif; text-anchor: start" x="801.265703" y="40.43625" transform="rotate(-0 801.265703 40.43625)">clang-18</text>
    </g>
    <g id="line2d_30">
     <path d="M 773.265703 51.614375 
L 783.265703 51.614375 
L 793.265703 51.614375 
" style="fill: none; stroke: #ff7f0e; stroke-width: 2; stroke-linecap: square"/>
     <g>
      <use xlink:href="#m2e7fff0e26" x="783.265703" y="51.614375" style="fill: #ff7f0e; stroke: #ff7f0e"/>
     </g>
    </g>
    <g id="text_22">
     <text style="font: 10px 'DejaVu Sans', 'Bitstream Vera Sans', 'Computer Modern Sans Serif', 'Lucida Grande', 'Verdana', 'Geneva', 'Lucid', 'Arial', 'Helvetica', 'Avant Garde', sans-serif; text-anchor: start" x="801.265703" y="55.114375" transform="rotate(-0 801.265703 55.114375)">gcc-14</text>
    </g>
   </g>
  </g>
 </g>
 <defs>
  <clipPath id="p153161c02e">
   <rect x="80.31375" y="23.837813" width="651.382812" height="505.470313"/>
  </clipPath>
 </defs>
</svg>
