<?xml version="1.0" encoding="utf-8" standalone="no"?>
<!DOCTYPE svg PUBLIC "-//W3C//DTD SVG 1.1//EN"
  "http://www.w3.org/Graphics/SVG/1.1/DTD/svg11.dtd">
<svg xmlns:xlink="http://www.w3.org/1999/xlink" width="855.204687pt" height="568.8pt" viewBox="0 0 855.204687 568.8" xmlns="http://www.w3.org/2000/svg" version="1.1">
 <metadata>
  <rdf:RDF xmlns:dc="http://purl.org/dc/elements/1.1/" xmlns:cc="http://creativecommons.org/ns#" xmlns:rdf="http://www.w3.org/1999/02/22-rdf-syntax-ns#">
   <cc:Work>
    <dc:type rdf:resource="http://purl.org/dc/dcmitype/StillImage"/>
    <dc:date>2025-08-22T21:57:29.414740</dc:date>
    <dc:format>image/svg+xml</dc:format>
    <dc:creator>
     <cc:Agent>
      <dc:title>Matplotlib v3.9.4, https://matplotlib.org/</dc:title>
     </cc:Agent>
    </dc:creator>
   </cc:Work>
  </rdf:RDF>
 </metadata>
 <defs>
  <style type="text/css">*{stroke-linejoin: round; stroke-linecap: butt}</style>
 </defs>
 <g id="figure_1">
  <g id="patch_1">
   <path d="M 0 568.8 
L 855.204687 568.8 
L 855.204687 0 
L 0 0 
z
" style="fill: #ffffff"/>
  </g>
  <g id="axes_1">
   <g id="patch_2">
    <path d="M 64.41375 529.308125 
L 702.1075 529.308125 
L 702.1075 23.837812 
L 64.41375 23.837812 
z
" style="fill: #ffffff"/>
   </g>
   <g id="matplotlib.axis_1">
    <g id="xtick_1">
     <g id="line2d_1">
      <path d="M 75.832509 529.308125 
L 75.832509 23.837812 
" clip-path="url(#p7ad747b393)" style="fill: none; stroke: #b0b0b0; stroke-opacity: 0.3; stroke-width: 0.8; stroke-linecap: square"/>
     </g>
     <g id="line2d_2">
      <defs>
       <path id="m1257ec805d" d="M 0 0 
L 0 3.5 
" style="stroke: #000000; stroke-width: 0.8"/>
      </defs>
      <g>
       <use xlink:href="#m1257ec805d" x="75.832509" y="529.308125" style="stroke: #000000; stroke-width: 0.8"/>
      </g>
     </g>
     <g id="text_1">
      <text style="font: 10px 'DejaVu Sans', 'Bitstream Vera Sans', 'Computer Modern Sans Serif', 'Lucida Grande', 'Verdana', 'Geneva', 'Lucid', 'Arial', 'Helvetica', 'Avant Garde', sans-serif; text-anchor: middle" x="75.832509" y="543.906563" transform="rotate(-0 75.832509 543.906563)">70</text>
     </g>
    </g>
    <g id="xtick_2">
     <g id="line2d_3">
      <path d="M 163.669113 529.308125 
L 163.669113 23.837812 
" clip-path="url(#p7ad747b393)" style="fill: none; stroke: #b0b0b0; stroke-opacity: 0.3; stroke-width: 0.8; stroke-linecap: square"/>
     </g>
     <g id="line2d_4">
      <g>
       <use xlink:href="#m1257ec805d" x="163.669113" y="529.308125" style="stroke: #000000; stroke-width: 0.8"/>
      </g>
     </g>
     <g id="text_2">
      <text style="font: 10px 'DejaVu Sans', 'Bitstream Vera Sans', 'Computer Modern Sans Serif', 'Lucida Grande', 'Verdana', 'Geneva', 'Lucid', 'Arial', 'Helvetica', 'Avant Garde', sans-serif; text-anchor: middle" x="163.669113" y="543.906563" transform="rotate(-0 163.669113 543.906563)">75</text>
     </g>
    </g>
    <g id="xtick_3">
     <g id="line2d_5">
      <path d="M 251.505718 529.308125 
L 251.505718 23.837812 
" clip-path="url(#p7ad747b393)" style="fill: none; stroke: #b0b0b0; stroke-opacity: 0.3; stroke-width: 0.8; stroke-linecap: square"/>
     </g>
     <g id="line2d_6">
      <g>
       <use xlink:href="#m1257ec805d" x="251.505718" y="529.308125" style="stroke: #000000; stroke-width: 0.8"/>
      </g>
     </g>
     <g id="text_3">
      <text style="font: 10px 'DejaVu Sans', 'Bitstream Vera Sans', 'Computer Modern Sans Serif', 'Lucida Grande', 'Verdana', 'Geneva', 'Lucid', 'Arial', 'Helvetica', 'Avant Garde', sans-serif; text-anchor: middle" x="251.505718" y="543.906563" transform="rotate(-0 251.505718 543.906563)">80</text>
     </g>
    </g>
    <g id="xtick_4">
     <g id="line2d_7">
      <path d="M 339.342323 529.308125 
L 339.342323 23.837812 
" clip-path="url(#p7ad747b393)" style="fill: none; stroke: #b0b0b0; stroke-opacity: 0.3; stroke-width: 0.8; stroke-linecap: square"/>
     </g>
     <g id="line2d_8">
      <g>
       <use xlink:href="#m1257ec805d" x="339.342323" y="529.308125" style="stroke: #000000; stroke-width: 0.8"/>
      </g>
     </g>
     <g id="text_4">
      <text style="font: 10px 'DejaVu Sans', 'Bitstream Vera Sans', 'Computer Modern Sans Serif', 'Lucida Grande', 'Verdana', 'Geneva', 'Lucid', 'Arial', 'Helvetica', 'Avant Garde', sans-serif; text-anchor: middle" x="339.342323" y="543.906563" transform="rotate(-0 339.342323 543.906563)">85</text>
     </g>
    </g>
    <g id="xtick_5">
     <g id="line2d_9">
      <path d="M 427.178927 529.308125 
L 427.178927 23.837812 
" clip-path="url(#p7ad747b393)" style="fill: none; stroke: #b0b0b0; stroke-opacity: 0.3; stroke-width: 0.8; stroke-linecap: square"/>
     </g>
     <g id="line2d_10">
      <g>
       <use xlink:href="#m1257ec805d" x="427.178927" y="529.308125" style="stroke: #000000; stroke-width: 0.8"/>
      </g>
     </g>
     <g id="text_5">
      <text style="font: 10px 'DejaVu Sans', 'Bitstream Vera Sans', 'Computer Modern Sans Serif', 'Lucida Grande', 'Verdana', 'Geneva', 'Lucid', 'Arial', 'Helvetica', 'Avant Garde', sans-serif; text-anchor: middle" x="427.178927" y="543.906563" transform="rotate(-0 427.178927 543.906563)">90</text>
     </g>
    </g>
    <g id="xtick_6">
     <g id="line2d_11">
      <path d="M 515.015532 529.308125 
L 515.015532 23.837812 
" clip-path="url(#p7ad747b393)" style="fill: none; stroke: #b0b0b0; stroke-opacity: 0.3; stroke-width: 0.8; stroke-linecap: square"/>
     </g>
     <g id="line2d_12">
      <g>
       <use xlink:href="#m1257ec805d" x="515.015532" y="529.308125" style="stroke: #000000; stroke-width: 0.8"/>
      </g>
     </g>
     <g id="text_6">
      <text style="font: 10px 'DejaVu Sans', 'Bitstream Vera Sans', 'Computer Modern Sans Serif', 'Lucida Grande', 'Verdana', 'Geneva', 'Lucid', 'Arial', 'Helvetica', 'Avant Garde', sans-serif; text-anchor: middle" x="515.015532" y="543.906563" transform="rotate(-0 515.015532 543.906563)">95</text>
     </g>
    </g>
    <g id="xtick_7">
     <g id="line2d_13">
      <path d="M 602.852137 529.308125 
L 602.852137 23.837812 
" clip-path="url(#p7ad747b393)" style="fill: none; stroke: #b0b0b0; stroke-opacity: 0.3; stroke-width: 0.8; stroke-linecap: square"/>
     </g>
     <g id="line2d_14">
      <g>
       <use xlink:href="#m1257ec805d" x="602.852137" y="529.308125" style="stroke: #000000; stroke-width: 0.8"/>
      </g>
     </g>
     <g id="text_7">
      <text style="font: 10px 'DejaVu Sans', 'Bitstream Vera Sans', 'Computer Modern Sans Serif', 'Lucida Grande', 'Verdana', 'Geneva', 'Lucid', 'Arial', 'Helvetica', 'Avant Garde', sans-serif; text-anchor: middle" x="602.852137" y="543.906563" transform="rotate(-0 602.852137 543.906563)">100</text>
     </g>
    </g>
    <g id="xtick_8">
     <g id="line2d_15">
      <path d="M 690.688741 529.308125 
L 690.688741 23.837812 
" clip-path="url(#p7ad747b393)" style="fill: none; stroke: #b0b0b0; stroke-opacity: 0.3; stroke-width: 0.8; stroke-linecap: square"/>
     </g>
     <g id="line2d_16">
      <g>
       <use xlink:href="#m1257ec805d" x="690.688741" y="529.308125" style="stroke: #000000; stroke-width: 0.8"/>
      </g>
     </g>
     <g id="text_8">
      <text style="font: 10px 'DejaVu Sans', 'Bitstream Vera Sans', 'Computer Modern Sans Serif', 'Lucida Grande', 'Verdana', 'Geneva', 'Lucid', 'Arial', 'Helvetica', 'Avant Garde', sans-serif; text-anchor: middle" x="690.688741" y="543.906563" transform="rotate(-0 690.688741 543.906563)">105</text>
     </g>
    </g>
    <g id="text_9">
     <text style="font: 12px 'DejaVu Sans', 'Bitstream Vera Sans', 'Computer Modern Sans Serif', 'Lucida Grande', 'Verdana', 'Geneva', 'Lucid', 'Arial', 'Helvetica', 'Avant Garde', sans-serif; text-anchor: middle" x="383.260625" y="559.104375" transform="rotate(-0 383.260625 559.104375)">Build Number</text>
    </g>
   </g>
   <g id="matplotlib.axis_2">
    <g id="ytick_1">
     <g id="line2d_17">
      <defs>
       <path id="mc67f273c0a" d="M 0 0 
L -2 0 
" style="stroke: #000000; stroke-width: 0.6"/>
      </defs>
      <g>
       <use xlink:href="#mc67f273c0a" x="64.41375" y="514.915957" style="stroke: #000000; stroke-width: 0.6"/>
      </g>
     </g>
     <g id="text_10">
      <!-- $\mathdefault{5\times10^{7}}$ -->
      <g transform="translate(22.81375 518.715175)">
       <text>
        <tspan style="font: 10px 'DejaVu Sans'" x="0 8.310547 18.637695 25" y="-0.06406250000000036">5×10</tspan>
        <tspan style="font: 7px 'DejaVu Sans'" x="31.458008" y="-3.8921875000000004">7</tspan>
       </text>
      </g>
     </g>
    </g>
    <g id="ytick_2">
     <g id="line2d_18">
      <g>
       <use xlink:href="#mc67f273c0a" x="64.41375" y="288.174215" style="stroke: #000000; stroke-width: 0.6"/>
      </g>
     </g>
     <g id="text_11">
      <!-- $\mathdefault{6\times10^{7}}$ -->
      <g transform="translate(22.81375 291.973434)">
       <text>
        <tspan style="font: 10px 'DejaVu Sans'" x="0 8.310547 18.637695 25" y="-0.06406250000000036">6×10</tspan>
        <tspan style="font: 7px 'DejaVu Sans'" x="31.458008" y="-3.8921875000000004">7</tspan>
       </text>
      </g>
     </g>
    </g>
    <g id="ytick_3">
     <g id="line2d_19">
      <g>
       <use xlink:href="#mc67f273c0a" x="64.41375" y="96.466805" style="stroke: #000000; stroke-width: 0.6"/>
      </g>
     </g>
     <g id="text_12">
      <!-- $\mathdefault{7\times10^{7}}$ -->
      <g transform="translate(22.81375 100.266023)">
       <text>
        <tspan style="font: 10px 'DejaVu Sans'" x="0 8.310547 18.637695 25" y="-0.06406250000000036">7×10</tspan>
        <tspan style="font: 7px 'DejaVu Sans'" x="31.458008" y="-3.8921875000000004">7</tspan>
       </text>
      </g>
     </g>
    </g>
    <g id="text_13">
     <text style="font: 12px 'DejaVu Sans', 'Bitstream Vera Sans', 'Computer Modern Sans Serif', 'Lucida Grande', 'Verdana', 'Geneva', 'Lucid', 'Arial', 'Helvetica', 'Avant Garde', sans-serif; text-anchor: middle" x="16.318125" y="276.572969" transform="rotate(-90 16.318125 276.572969)">Median Elapsed Time (nanoseconds)</text>
    </g>
   </g>
   <g id="line2d_20">
    <path d="M 93.39983 493.691829 
L 110.96715 490.814075 
L 128.534471 487.494679 
L 146.101792 487.145326 
L 163.669113 488.410505 
L 181.236434 475.327557 
L 198.803755 487.596827 
L 216.371076 488.415686 
L 233.938397 489.713847 
L 251.505718 457.081027 
L 269.073039 483.450798 
L 286.64036 486.101722 
L 304.207681 488.754486 
L 321.775002 490.455908 
L 339.342323 482.796643 
L 356.909644 488.14356 
L 392.044285 488.224408 
L 409.611606 490.992343 
L 427.178927 489.612786 
L 444.746248 487.665045 
L 462.313569 485.091497 
L 479.88089 485.139142 
L 497.448211 487.108851 
L 515.015532 489.465187 
L 532.582853 488.642446 
L 550.150174 475.771404 
L 585.284816 470.614423 
L 602.852137 487.595644 
L 620.419458 490.252334 
L 637.986779 488.974158 
L 655.5541 487.566519 
L 673.12142 486.91951 
" clip-path="url(#p7ad747b393)" style="fill: none; stroke: #1f77b4; stroke-width: 2; stroke-linecap: square"/>
    <defs>
     <path id="m434735ce39" d="M 0 3 
C 0.795609 3 1.55874 2.683901 2.12132 2.12132 
C 2.683901 1.55874 3 0.795609 3 0 
C 3 -0.795609 2.683901 -1.55874 2.12132 -2.12132 
C 1.55874 -2.683901 0.795609 -3 0 -3 
C -0.795609 -3 -1.55874 -2.683901 -2.12132 -2.12132 
C -2.683901 -1.55874 -3 -0.795609 -3 0 
C -3 0.795609 -2.683901 1.55874 -2.12132 2.12132 
C -1.55874 2.683901 -0.795609 3 0 3 
z
" style="stroke: #1f77b4"/>
    </defs>
    <g clip-path="url(#p7ad747b393)">
     <use xlink:href="#m434735ce39" x="93.39983" y="493.691829" style="fill: #1f77b4; stroke: #1f77b4"/>
     <use xlink:href="#m434735ce39" x="110.96715" y="490.814075" style="fill: #1f77b4; stroke: #1f77b4"/>
     <use xlink:href="#m434735ce39" x="128.534471" y="487.494679" style="fill: #1f77b4; stroke: #1f77b4"/>
     <use xlink:href="#m434735ce39" x="146.101792" y="487.145326" style="fill: #1f77b4; stroke: #1f77b4"/>
     <use xlink:href="#m434735ce39" x="163.669113" y="488.410505" style="fill: #1f77b4; stroke: #1f77b4"/>
     <use xlink:href="#m434735ce39" x="181.236434" y="475.327557" style="fill: #1f77b4; stroke: #1f77b4"/>
     <use xlink:href="#m434735ce39" x="198.803755" y="487.596827" style="fill: #1f77b4; stroke: #1f77b4"/>
     <use xlink:href="#m434735ce39" x="216.371076" y="488.415686" style="fill: #1f77b4; stroke: #1f77b4"/>
     <use xlink:href="#m434735ce39" x="233.938397" y="489.713847" style="fill: #1f77b4; stroke: #1f77b4"/>
     <use xlink:href="#m434735ce39" x="251.505718" y="457.081027" style="fill: #1f77b4; stroke: #1f77b4"/>
     <use xlink:href="#m434735ce39" x="269.073039" y="483.450798" style="fill: #1f77b4; stroke: #1f77b4"/>
     <use xlink:href="#m434735ce39" x="286.64036" y="486.101722" style="fill: #1f77b4; stroke: #1f77b4"/>
     <use xlink:href="#m434735ce39" x="304.207681" y="488.754486" style="fill: #1f77b4; stroke: #1f77b4"/>
     <use xlink:href="#m434735ce39" x="321.775002" y="490.455908" style="fill: #1f77b4; stroke: #1f77b4"/>
     <use xlink:href="#m434735ce39" x="339.342323" y="482.796643" style="fill: #1f77b4; stroke: #1f77b4"/>
     <use xlink:href="#m434735ce39" x="356.909644" y="488.14356" style="fill: #1f77b4; stroke: #1f77b4"/>
     <use xlink:href="#m434735ce39" x="392.044285" y="488.224408" style="fill: #1f77b4; stroke: #1f77b4"/>
     <use xlink:href="#m434735ce39" x="409.611606" y="490.992343" style="fill: #1f77b4; stroke: #1f77b4"/>
     <use xlink:href="#m434735ce39" x="427.178927" y="489.612786" style="fill: #1f77b4; stroke: #1f77b4"/>
     <use xlink:href="#m434735ce39" x="444.746248" y="487.665045" style="fill: #1f77b4; stroke: #1f77b4"/>
     <use xlink:href="#m434735ce39" x="462.313569" y="485.091497" style="fill: #1f77b4; stroke: #1f77b4"/>
     <use xlink:href="#m434735ce39" x="479.88089" y="485.139142" style="fill: #1f77b4; stroke: #1f77b4"/>
     <use xlink:href="#m434735ce39" x="497.448211" y="487.108851" style="fill: #1f77b4; stroke: #1f77b4"/>
     <use xlink:href="#m434735ce39" x="515.015532" y="489.465187" style="fill: #1f77b4; stroke: #1f77b4"/>
     <use xlink:href="#m434735ce39" x="532.582853" y="488.642446" style="fill: #1f77b4; stroke: #1f77b4"/>
     <use xlink:href="#m434735ce39" x="550.150174" y="475.771404" style="fill: #1f77b4; stroke: #1f77b4"/>
     <use xlink:href="#m434735ce39" x="585.284816" y="470.614423" style="fill: #1f77b4; stroke: #1f77b4"/>
     <use xlink:href="#m434735ce39" x="602.852137" y="487.595644" style="fill: #1f77b4; stroke: #1f77b4"/>
     <use xlink:href="#m434735ce39" x="620.419458" y="490.252334" style="fill: #1f77b4; stroke: #1f77b4"/>
     <use xlink:href="#m434735ce39" x="637.986779" y="488.974158" style="fill: #1f77b4; stroke: #1f77b4"/>
     <use xlink:href="#m434735ce39" x="655.5541" y="487.566519" style="fill: #1f77b4; stroke: #1f77b4"/>
     <use xlink:href="#m434735ce39" x="673.12142" y="486.91951" style="fill: #1f77b4; stroke: #1f77b4"/>
    </g>
   </g>
   <g id="line2d_21">
    <path d="M 93.39983 214.978781 
L 110.96715 182.906967 
L 128.534471 272.956006 
L 146.101792 182.029092 
L 163.669113 268.872976 
L 181.236434 274.785303 
L 198.803755 171.913022 
L 216.371076 270.679187 
L 233.938397 182.508331 
L 251.505718 270.8712 
L 269.073039 182.657976 
L 286.64036 183.510793 
L 304.207681 272.463822 
L 321.775002 182.405436 
L 339.342323 272.552038 
L 356.909644 181.404628 
L 392.044285 275.226397 
L 409.611606 183.724883 
L 427.178927 182.093211 
L 444.746248 183.676891 
L 462.313569 275.146352 
L 479.88089 181.106543 
L 497.448211 272.254953 
L 515.015532 272.203128 
L 532.582853 489.711083 
L 550.150174 487.792477 
L 585.284816 488.905576 
L 602.852137 487.110074 
L 620.419458 490.669798 
L 637.986779 488.46594 
L 655.5541 489.881935 
L 673.12142 490.438612 
" clip-path="url(#p7ad747b393)" style="fill: none; stroke: #ff7f0e; stroke-width: 2; stroke-linecap: square"/>
    <defs>
     <path id="mdf2a03c672" d="M 0 3 
C 0.795609 3 1.55874 2.683901 2.12132 2.12132 
C 2.683901 1.55874 3 0.795609 3 0 
C 3 -0.795609 2.683901 -1.55874 2.12132 -2.12132 
C 1.55874 -2.683901 0.795609 -3 0 -3 
C -0.795609 -3 -1.55874 -2.683901 -2.12132 -2.12132 
C -2.683901 -1.55874 -3 -0.795609 -3 0 
C -3 0.795609 -2.683901 1.55874 -2.12132 2.12132 
C -1.55874 2.683901 -0.795609 3 0 3 
z
" style="stroke: #ff7f0e"/>
    </defs>
    <g clip-path="url(#p7ad747b393)">
     <use xlink:href="#mdf2a03c672" x="93.39983" y="214.978781" style="fill: #ff7f0e; stroke: #ff7f0e"/>
     <use xlink:href="#mdf2a03c672" x="110.96715" y="182.906967" style="fill: #ff7f0e; stroke: #ff7f0e"/>
     <use xlink:href="#mdf2a03c672" x="128.534471" y="272.956006" style="fill: #ff7f0e; stroke: #ff7f0e"/>
     <use xlink:href="#mdf2a03c672" x="146.101792" y="182.029092" style="fill: #ff7f0e; stroke: #ff7f0e"/>
     <use xlink:href="#mdf2a03c672" x="163.669113" y="268.872976" style="fill: #ff7f0e; stroke: #ff7f0e"/>
     <use xlink:href="#mdf2a03c672" x="181.236434" y="274.785303" style="fill: #ff7f0e; stroke: #ff7f0e"/>
     <use xlink:href="#mdf2a03c672" x="198.803755" y="171.913022" style="fill: #ff7f0e; stroke: #ff7f0e"/>
     <use xlink:href="#mdf2a03c672" x="216.371076" y="270.679187" style="fill: #ff7f0e; stroke: #ff7f0e"/>
     <use xlink:href="#mdf2a03c672" x="233.938397" y="182.508331" style="fill: #ff7f0e; stroke: #ff7f0e"/>
     <use xlink:href="#mdf2a03c672" x="251.505718" y="270.8712" style="fill: #ff7f0e; stroke: #ff7f0e"/>
     <use xlink:href="#mdf2a03c672" x="269.073039" y="182.657976" style="fill: #ff7f0e; stroke: #ff7f0e"/>
     <use xlink:href="#mdf2a03c672" x="286.64036" y="183.510793" style="fill: #ff7f0e; stroke: #ff7f0e"/>
     <use xlink:href="#mdf2a03c672" x="304.207681" y="272.463822" style="fill: #ff7f0e; stroke: #ff7f0e"/>
     <use xlink:href="#mdf2a03c672" x="321.775002" y="182.405436" style="fill: #ff7f0e; stroke: #ff7f0e"/>
     <use xlink:href="#mdf2a03c672" x="339.342323" y="272.552038" style="fill: #ff7f0e; stroke: #ff7f0e"/>
     <use xlink:href="#mdf2a03c672" x="356.909644" y="181.404628" style="fill: #ff7f0e; stroke: #ff7f0e"/>
     <use xlink:href="#mdf2a03c672" x="392.044285" y="275.226397" style="fill: #ff7f0e; stroke: #ff7f0e"/>
     <use xlink:href="#mdf2a03c672" x="409.611606" y="183.724883" style="fill: #ff7f0e; stroke: #ff7f0e"/>
     <use xlink:href="#mdf2a03c672" x="427.178927" y="182.093211" style="fill: #ff7f0e; stroke: #ff7f0e"/>
     <use xlink:href="#mdf2a03c672" x="444.746248" y="183.676891" style="fill: #ff7f0e; stroke: #ff7f0e"/>
     <use xlink:href="#mdf2a03c672" x="462.313569" y="275.146352" style="fill: #ff7f0e; stroke: #ff7f0e"/>
     <use xlink:href="#mdf2a03c672" x="479.88089" y="181.106543" style="fill: #ff7f0e; stroke: #ff7f0e"/>
     <use xlink:href="#mdf2a03c672" x="497.448211" y="272.254953" style="fill: #ff7f0e; stroke: #ff7f0e"/>
     <use xlink:href="#mdf2a03c672" x="515.015532" y="272.203128" style="fill: #ff7f0e; stroke: #ff7f0e"/>
     <use xlink:href="#mdf2a03c672" x="532.582853" y="489.711083" style="fill: #ff7f0e; stroke: #ff7f0e"/>
     <use xlink:href="#mdf2a03c672" x="550.150174" y="487.792477" style="fill: #ff7f0e; stroke: #ff7f0e"/>
     <use xlink:href="#mdf2a03c672" x="585.284816" y="488.905576" style="fill: #ff7f0e; stroke: #ff7f0e"/>
     <use xlink:href="#mdf2a03c672" x="602.852137" y="487.110074" style="fill: #ff7f0e; stroke: #ff7f0e"/>
     <use xlink:href="#mdf2a03c672" x="620.419458" y="490.669798" style="fill: #ff7f0e; stroke: #ff7f0e"/>
     <use xlink:href="#mdf2a03c672" x="637.986779" y="488.46594" style="fill: #ff7f0e; stroke: #ff7f0e"/>
     <use xlink:href="#mdf2a03c672" x="655.5541" y="489.881935" style="fill: #ff7f0e; stroke: #ff7f0e"/>
     <use xlink:href="#mdf2a03c672" x="673.12142" y="490.438612" style="fill: #ff7f0e; stroke: #ff7f0e"/>
    </g>
   </g>
   <g id="line2d_22">
    <path d="M 93.39983 506.332202 
L 110.96715 488.22548 
L 128.534471 487.132838 
L 146.101792 488.186015 
L 163.669113 486.766103 
L 181.236434 489.39061 
L 198.803755 488.226181 
L 216.371076 487.796971 
L 233.938397 488.498719 
L 251.505718 489.635154 
L 269.073039 487.489777 
L 286.64036 488.674621 
L 304.207681 488.025081 
L 321.775002 486.62109 
L 339.342323 488.454844 
L 356.909644 487.47967 
L 392.044285 488.84933 
L 409.611606 488.865783 
L 427.178927 488.877107 
L 444.746248 487.310761 
L 462.313569 485.899652 
L 479.88089 488.616735 
L 497.448211 489.033189 
L 515.015532 489.763866 
L 532.582853 488.529815 
L 550.150174 486.353552 
L 585.284816 488.038332 
L 602.852137 488.389339 
L 620.419458 488.955913 
L 637.986779 489.2194 
L 655.5541 488.100693 
L 673.12142 489.304055 
" clip-path="url(#p7ad747b393)" style="fill: none; stroke: #2ca02c; stroke-width: 2; stroke-linecap: square"/>
    <defs>
     <path id="m2c4aa64415" d="M 0 3 
C 0.795609 3 1.55874 2.683901 2.12132 2.12132 
C 2.683901 1.55874 3 0.795609 3 0 
C 3 -0.795609 2.683901 -1.55874 2.12132 -2.12132 
C 1.55874 -2.683901 0.795609 -3 0 -3 
C -0.795609 -3 -1.55874 -2.683901 -2.12132 -2.12132 
C -2.683901 -1.55874 -3 -0.795609 -3 0 
C -3 0.795609 -2.683901 1.55874 -2.12132 2.12132 
C -1.55874 2.683901 -0.795609 3 0 3 
z
" style="stroke: #2ca02c"/>
    </defs>
    <g clip-path="url(#p7ad747b393)">
     <use xlink:href="#m2c4aa64415" x="93.39983" y="506.332202" style="fill: #2ca02c; stroke: #2ca02c"/>
     <use xlink:href="#m2c4aa64415" x="110.96715" y="488.22548" style="fill: #2ca02c; stroke: #2ca02c"/>
     <use xlink:href="#m2c4aa64415" x="128.534471" y="487.132838" style="fill: #2ca02c; stroke: #2ca02c"/>
     <use xlink:href="#m2c4aa64415" x="146.101792" y="488.186015" style="fill: #2ca02c; stroke: #2ca02c"/>
     <use xlink:href="#m2c4aa64415" x="163.669113" y="486.766103" style="fill: #2ca02c; stroke: #2ca02c"/>
     <use xlink:href="#m2c4aa64415" x="181.236434" y="489.39061" style="fill: #2ca02c; stroke: #2ca02c"/>
     <use xlink:href="#m2c4aa64415" x="198.803755" y="488.226181" style="fill: #2ca02c; stroke: #2ca02c"/>
     <use xlink:href="#m2c4aa64415" x="216.371076" y="487.796971" style="fill: #2ca02c; stroke: #2ca02c"/>
     <use xlink:href="#m2c4aa64415" x="233.938397" y="488.498719" style="fill: #2ca02c; stroke: #2ca02c"/>
     <use xlink:href="#m2c4aa64415" x="251.505718" y="489.635154" style="fill: #2ca02c; stroke: #2ca02c"/>
     <use xlink:href="#m2c4aa64415" x="269.073039" y="487.489777" style="fill: #2ca02c; stroke: #2ca02c"/>
     <use xlink:href="#m2c4aa64415" x="286.64036" y="488.674621" style="fill: #2ca02c; stroke: #2ca02c"/>
     <use xlink:href="#m2c4aa64415" x="304.207681" y="488.025081" style="fill: #2ca02c; stroke: #2ca02c"/>
     <use xlink:href="#m2c4aa64415" x="321.775002" y="486.62109" style="fill: #2ca02c; stroke: #2ca02c"/>
     <use xlink:href="#m2c4aa64415" x="339.342323" y="488.454844" style="fill: #2ca02c; stroke: #2ca02c"/>
     <use xlink:href="#m2c4aa64415" x="356.909644" y="487.47967" style="fill: #2ca02c; stroke: #2ca02c"/>
     <use xlink:href="#m2c4aa64415" x="392.044285" y="488.84933" style="fill: #2ca02c; stroke: #2ca02c"/>
     <use xlink:href="#m2c4aa64415" x="409.611606" y="488.865783" style="fill: #2ca02c; stroke: #2ca02c"/>
     <use xlink:href="#m2c4aa64415" x="427.178927" y="488.877107" style="fill: #2ca02c; stroke: #2ca02c"/>
     <use xlink:href="#m2c4aa64415" x="444.746248" y="487.310761" style="fill: #2ca02c; stroke: #2ca02c"/>
     <use xlink:href="#m2c4aa64415" x="462.313569" y="485.899652" style="fill: #2ca02c; stroke: #2ca02c"/>
     <use xlink:href="#m2c4aa64415" x="479.88089" y="488.616735" style="fill: #2ca02c; stroke: #2ca02c"/>
     <use xlink:href="#m2c4aa64415" x="497.448211" y="489.033189" style="fill: #2ca02c; stroke: #2ca02c"/>
     <use xlink:href="#m2c4aa64415" x="515.015532" y="489.763866" style="fill: #2ca02c; stroke: #2ca02c"/>
     <use xlink:href="#m2c4aa64415" x="532.582853" y="488.529815" style="fill: #2ca02c; stroke: #2ca02c"/>
     <use xlink:href="#m2c4aa64415" x="550.150174" y="486.353552" style="fill: #2ca02c; stroke: #2ca02c"/>
     <use xlink:href="#m2c4aa64415" x="585.284816" y="488.038332" style="fill: #2ca02c; stroke: #2ca02c"/>
     <use xlink:href="#m2c4aa64415" x="602.852137" y="488.389339" style="fill: #2ca02c; stroke: #2ca02c"/>
     <use xlink:href="#m2c4aa64415" x="620.419458" y="488.955913" style="fill: #2ca02c; stroke: #2ca02c"/>
     <use xlink:href="#m2c4aa64415" x="637.986779" y="489.2194" style="fill: #2ca02c; stroke: #2ca02c"/>
     <use xlink:href="#m2c4aa64415" x="655.5541" y="488.100693" style="fill: #2ca02c; stroke: #2ca02c"/>
     <use xlink:href="#m2c4aa64415" x="673.12142" y="489.304055" style="fill: #2ca02c; stroke: #2ca02c"/>
    </g>
   </g>
   <g id="line2d_23">
    <path d="M 93.39983 284.582811 
L 110.96715 287.362379 
L 128.534471 286.431637 
L 146.101792 285.037666 
L 163.669113 287.11432 
L 181.236434 282.282277 
L 198.803755 283.577155 
L 216.371076 286.238334 
L 233.938397 283.759492 
L 251.505718 286.297496 
L 269.073039 287.752534 
L 286.64036 281.162939 
L 304.207681 284.020288 
L 339.342323 284.844574 
L 356.909644 286.186715 
L 392.044285 289.351632 
L 409.611606 287.698079 
L 427.178927 284.38334 
L 444.746248 285.367533 
L 462.313569 285.749032 
L 497.448211 286.351667 
L 515.015532 288.068451 
L 532.582853 286.273402 
L 550.150174 282.389277 
L 585.284816 285.068925 
L 602.852137 282.095847 
L 620.419458 285.504043 
L 637.986779 284.925507 
L 655.5541 285.20077 
L 673.12142 287.441334 
" clip-path="url(#p7ad747b393)" style="fill: none; stroke: #d62728; stroke-width: 2; stroke-linecap: square"/>
    <defs>
     <path id="m8e98530566" d="M 0 3 
C 0.795609 3 1.55874 2.683901 2.12132 2.12132 
C 2.683901 1.55874 3 0.795609 3 0 
C 3 -0.795609 2.683901 -1.55874 2.12132 -2.12132 
C 1.55874 -2.683901 0.795609 -3 0 -3 
C -0.795609 -3 -1.55874 -2.683901 -2.12132 -2.12132 
C -2.683901 -1.55874 -3 -0.795609 -3 0 
C -3 0.795609 -2.683901 1.55874 -2.12132 2.12132 
C -1.55874 2.683901 -0.795609 3 0 3 
z
" style="stroke: #d62728"/>
    </defs>
    <g clip-path="url(#p7ad747b393)">
     <use xlink:href="#m8e98530566" x="93.39983" y="284.582811" style="fill: #d62728; stroke: #d62728"/>
     <use xlink:href="#m8e98530566" x="110.96715" y="287.362379" style="fill: #d62728; stroke: #d62728"/>
     <use xlink:href="#m8e98530566" x="128.534471" y="286.431637" style="fill: #d62728; stroke: #d62728"/>
     <use xlink:href="#m8e98530566" x="146.101792" y="285.037666" style="fill: #d62728; stroke: #d62728"/>
     <use xlink:href="#m8e98530566" x="163.669113" y="287.11432" style="fill: #d62728; stroke: #d62728"/>
     <use xlink:href="#m8e98530566" x="181.236434" y="282.282277" style="fill: #d62728; stroke: #d62728"/>
     <use xlink:href="#m8e98530566" x="198.803755" y="283.577155" style="fill: #d62728; stroke: #d62728"/>
     <use xlink:href="#m8e98530566" x="216.371076" y="286.238334" style="fill: #d62728; stroke: #d62728"/>
     <use xlink:href="#m8e98530566" x="233.938397" y="283.759492" style="fill: #d62728; stroke: #d62728"/>
     <use xlink:href="#m8e98530566" x="251.505718" y="286.297496" style="fill: #d62728; stroke: #d62728"/>
     <use xlink:href="#m8e98530566" x="269.073039" y="287.752534" style="fill: #d62728; stroke: #d62728"/>
     <use xlink:href="#m8e98530566" x="286.64036" y="281.162939" style="fill: #d62728; stroke: #d62728"/>
     <use xlink:href="#m8e98530566" x="304.207681" y="284.020288" style="fill: #d62728; stroke: #d62728"/>
     <use xlink:href="#m8e98530566" x="339.342323" y="284.844574" style="fill: #d62728; stroke: #d62728"/>
     <use xlink:href="#m8e98530566" x="356.909644" y="286.186715" style="fill: #d62728; stroke: #d62728"/>
     <use xlink:href="#m8e98530566" x="392.044285" y="289.351632" style="fill: #d62728; stroke: #d62728"/>
     <use xlink:href="#m8e98530566" x="409.611606" y="287.698079" style="fill: #d62728; stroke: #d62728"/>
     <use xlink:href="#m8e98530566" x="427.178927" y="284.38334" style="fill: #d62728; stroke: #d62728"/>
     <use xlink:href="#m8e98530566" x="444.746248" y="285.367533" style="fill: #d62728; stroke: #d62728"/>
     <use xlink:href="#m8e98530566" x="462.313569" y="285.749032" style="fill: #d62728; stroke: #d62728"/>
     <use xlink:href="#m8e98530566" x="497.448211" y="286.351667" style="fill: #d62728; stroke: #d62728"/>
     <use xlink:href="#m8e98530566" x="515.015532" y="288.068451" style="fill: #d62728; stroke: #d62728"/>
     <use xlink:href="#m8e98530566" x="532.582853" y="286.273402" style="fill: #d62728; stroke: #d62728"/>
     <use xlink:href="#m8e98530566" x="550.150174" y="282.389277" style="fill: #d62728; stroke: #d62728"/>
     <use xlink:href="#m8e98530566" x="585.284816" y="285.068925" style="fill: #d62728; stroke: #d62728"/>
     <use xlink:href="#m8e98530566" x="602.852137" y="282.095847" style="fill: #d62728; stroke: #d62728"/>
     <use xlink:href="#m8e98530566" x="620.419458" y="285.504043" style="fill: #d62728; stroke: #d62728"/>
     <use xlink:href="#m8e98530566" x="637.986779" y="284.925507" style="fill: #d62728; stroke: #d62728"/>
     <use xlink:href="#m8e98530566" x="655.5541" y="285.20077" style="fill: #d62728; stroke: #d62728"/>
     <use xlink:href="#m8e98530566" x="673.12142" y="287.441334" style="fill: #d62728; stroke: #d62728"/>
    </g>
   </g>
   <g id="line2d_24">
    <path d="M 93.39983 72.672576 
L 110.96715 71.170534 
L 128.534471 171.757446 
L 146.101792 76.360371 
L 163.669113 175.593608 
L 181.236434 76.238119 
L 198.803755 75.280247 
L 216.371076 75.944887 
L 233.938397 77.695079 
L 251.505718 79.242966 
L 269.073039 75.394225 
L 286.64036 76.179059 
L 304.207681 75.413168 
L 339.342323 46.813736 
L 356.909644 74.863866 
L 392.044285 74.899226 
L 409.611606 77.920815 
L 427.178927 75.090369 
L 444.746248 177.096391 
L 462.313569 134.163695 
L 497.448211 76.118159 
L 515.015532 76.587946 
L 532.582853 285.646284 
L 550.150174 287.55 
L 585.284816 287.78835 
L 602.852137 287.574042 
L 620.419458 288.297225 
L 637.986779 285.365389 
L 655.5541 288.270447 
L 673.12142 287.688993 
" clip-path="url(#p7ad747b393)" style="fill: none; stroke: #9467bd; stroke-width: 2; stroke-linecap: square"/>
    <defs>
     <path id="m61f1c96595" d="M 0 3 
C 0.795609 3 1.55874 2.683901 2.12132 2.12132 
C 2.683901 1.55874 3 0.795609 3 0 
C 3 -0.795609 2.683901 -1.55874 2.12132 -2.12132 
C 1.55874 -2.683901 0.795609 -3 0 -3 
C -0.795609 -3 -1.55874 -2.683901 -2.12132 -2.12132 
C -2.683901 -1.55874 -3 -0.795609 -3 0 
C -3 0.795609 -2.683901 1.55874 -2.12132 2.12132 
C -1.55874 2.683901 -0.795609 3 0 3 
z
" style="stroke: #9467bd"/>
    </defs>
    <g clip-path="url(#p7ad747b393)">
     <use xlink:href="#m61f1c96595" x="93.39983" y="72.672576" style="fill: #9467bd; stroke: #9467bd"/>
     <use xlink:href="#m61f1c96595" x="110.96715" y="71.170534" style="fill: #9467bd; stroke: #9467bd"/>
     <use xlink:href="#m61f1c96595" x="128.534471" y="171.757446" style="fill: #9467bd; stroke: #9467bd"/>
     <use xlink:href="#m61f1c96595" x="146.101792" y="76.360371" style="fill: #9467bd; stroke: #9467bd"/>
     <use xlink:href="#m61f1c96595" x="163.669113" y="175.593608" style="fill: #9467bd; stroke: #9467bd"/>
     <use xlink:href="#m61f1c96595" x="181.236434" y="76.238119" style="fill: #9467bd; stroke: #9467bd"/>
     <use xlink:href="#m61f1c96595" x="198.803755" y="75.280247" style="fill: #9467bd; stroke: #9467bd"/>
     <use xlink:href="#m61f1c96595" x="216.371076" y="75.944887" style="fill: #9467bd; stroke: #9467bd"/>
     <use xlink:href="#m61f1c96595" x="233.938397" y="77.695079" style="fill: #9467bd; stroke: #9467bd"/>
     <use xlink:href="#m61f1c96595" x="251.505718" y="79.242966" style="fill: #9467bd; stroke: #9467bd"/>
     <use xlink:href="#m61f1c96595" x="269.073039" y="75.394225" style="fill: #9467bd; stroke: #9467bd"/>
     <use xlink:href="#m61f1c96595" x="286.64036" y="76.179059" style="fill: #9467bd; stroke: #9467bd"/>
     <use xlink:href="#m61f1c96595" x="304.207681" y="75.413168" style="fill: #9467bd; stroke: #9467bd"/>
     <use xlink:href="#m61f1c96595" x="339.342323" y="46.813736" style="fill: #9467bd; stroke: #9467bd"/>
     <use xlink:href="#m61f1c96595" x="356.909644" y="74.863866" style="fill: #9467bd; stroke: #9467bd"/>
     <use xlink:href="#m61f1c96595" x="392.044285" y="74.899226" style="fill: #9467bd; stroke: #9467bd"/>
     <use xlink:href="#m61f1c96595" x="409.611606" y="77.920815" style="fill: #9467bd; stroke: #9467bd"/>
     <use xlink:href="#m61f1c96595" x="427.178927" y="75.090369" style="fill: #9467bd; stroke: #9467bd"/>
     <use xlink:href="#m61f1c96595" x="444.746248" y="177.096391" style="fill: #9467bd; stroke: #9467bd"/>
     <use xlink:href="#m61f1c96595" x="462.313569" y="134.163695" style="fill: #9467bd; stroke: #9467bd"/>
     <use xlink:href="#m61f1c96595" x="497.448211" y="76.118159" style="fill: #9467bd; stroke: #9467bd"/>
     <use xlink:href="#m61f1c96595" x="515.015532" y="76.587946" style="fill: #9467bd; stroke: #9467bd"/>
     <use xlink:href="#m61f1c96595" x="532.582853" y="285.646284" style="fill: #9467bd; stroke: #9467bd"/>
     <use xlink:href="#m61f1c96595" x="550.150174" y="287.55" style="fill: #9467bd; stroke: #9467bd"/>
     <use xlink:href="#m61f1c96595" x="585.284816" y="287.78835" style="fill: #9467bd; stroke: #9467bd"/>
     <use xlink:href="#m61f1c96595" x="602.852137" y="287.574042" style="fill: #9467bd; stroke: #9467bd"/>
     <use xlink:href="#m61f1c96595" x="620.419458" y="288.297225" style="fill: #9467bd; stroke: #9467bd"/>
     <use xlink:href="#m61f1c96595" x="637.986779" y="285.365389" style="fill: #9467bd; stroke: #9467bd"/>
     <use xlink:href="#m61f1c96595" x="655.5541" y="288.270447" style="fill: #9467bd; stroke: #9467bd"/>
     <use xlink:href="#m61f1c96595" x="673.12142" y="287.688993" style="fill: #9467bd; stroke: #9467bd"/>
    </g>
   </g>
   <g id="line2d_25">
    <path d="M 93.39983 288.410145 
L 110.96715 287.725399 
L 128.534471 287.42418 
L 146.101792 287.301725 
L 163.669113 289.195523 
L 181.236434 288.223477 
L 198.803755 287.868621 
L 216.371076 288.889558 
L 233.938397 288.158774 
L 251.505718 288.526643 
L 269.073039 287.650844 
L 286.64036 289.356014 
L 304.207681 285.698464 
L 339.342323 285.728186 
L 356.909644 288.513851 
L 392.044285 294.187616 
L 409.611606 288.180987 
L 427.178927 288.032356 
L 444.746248 287.944953 
L 462.313569 287.058117 
L 497.448211 288.654389 
L 515.015532 288.311479 
L 532.582853 286.780635 
L 550.150174 288.80425 
L 585.284816 288.417364 
L 602.852137 286.563061 
L 620.419458 287.377873 
L 637.986779 287.334677 
L 655.5541 287.646364 
L 673.12142 289.139347 
" clip-path="url(#p7ad747b393)" style="fill: none; stroke: #8c564b; stroke-width: 2; stroke-linecap: square"/>
    <defs>
     <path id="mbd452fb752" d="M 0 3 
C 0.795609 3 1.55874 2.683901 2.12132 2.12132 
C 2.683901 1.55874 3 0.795609 3 0 
C 3 -0.795609 2.683901 -1.55874 2.12132 -2.12132 
C 1.55874 -2.683901 0.795609 -3 0 -3 
C -0.795609 -3 -1.55874 -2.683901 -2.12132 -2.12132 
C -2.683901 -1.55874 -3 -0.795609 -3 0 
C -3 0.795609 -2.683901 1.55874 -2.12132 2.12132 
C -1.55874 2.683901 -0.795609 3 0 3 
z
" style="stroke: #8c564b"/>
    </defs>
    <g clip-path="url(#p7ad747b393)">
     <use xlink:href="#mbd452fb752" x="93.39983" y="288.410145" style="fill: #8c564b; stroke: #8c564b"/>
     <use xlink:href="#mbd452fb752" x="110.96715" y="287.725399" style="fill: #8c564b; stroke: #8c564b"/>
     <use xlink:href="#mbd452fb752" x="128.534471" y="287.42418" style="fill: #8c564b; stroke: #8c564b"/>
     <use xlink:href="#mbd452fb752" x="146.101792" y="287.301725" style="fill: #8c564b; stroke: #8c564b"/>
     <use xlink:href="#mbd452fb752" x="163.669113" y="289.195523" style="fill: #8c564b; stroke: #8c564b"/>
     <use xlink:href="#mbd452fb752" x="181.236434" y="288.223477" style="fill: #8c564b; stroke: #8c564b"/>
     <use xlink:href="#mbd452fb752" x="198.803755" y="287.868621" style="fill: #8c564b; stroke: #8c564b"/>
     <use xlink:href="#mbd452fb752" x="216.371076" y="288.889558" style="fill: #8c564b; stroke: #8c564b"/>
     <use xlink:href="#mbd452fb752" x="233.938397" y="288.158774" style="fill: #8c564b; stroke: #8c564b"/>
     <use xlink:href="#mbd452fb752" x="251.505718" y="288.526643" style="fill: #8c564b; stroke: #8c564b"/>
     <use xlink:href="#mbd452fb752" x="269.073039" y="287.650844" style="fill: #8c564b; stroke: #8c564b"/>
     <use xlink:href="#mbd452fb752" x="286.64036" y="289.356014" style="fill: #8c564b; stroke: #8c564b"/>
     <use xlink:href="#mbd452fb752" x="304.207681" y="285.698464" style="fill: #8c564b; stroke: #8c564b"/>
     <use xlink:href="#mbd452fb752" x="339.342323" y="285.728186" style="fill: #8c564b; stroke: #8c564b"/>
     <use xlink:href="#mbd452fb752" x="356.909644" y="288.513851" style="fill: #8c564b; stroke: #8c564b"/>
     <use xlink:href="#mbd452fb752" x="392.044285" y="294.187616" style="fill: #8c564b; stroke: #8c564b"/>
     <use xlink:href="#mbd452fb752" x="409.611606" y="288.180987" style="fill: #8c564b; stroke: #8c564b"/>
     <use xlink:href="#mbd452fb752" x="427.178927" y="288.032356" style="fill: #8c564b; stroke: #8c564b"/>
     <use xlink:href="#mbd452fb752" x="444.746248" y="287.944953" style="fill: #8c564b; stroke: #8c564b"/>
     <use xlink:href="#mbd452fb752" x="462.313569" y="287.058117" style="fill: #8c564b; stroke: #8c564b"/>
     <use xlink:href="#mbd452fb752" x="497.448211" y="288.654389" style="fill: #8c564b; stroke: #8c564b"/>
     <use xlink:href="#mbd452fb752" x="515.015532" y="288.311479" style="fill: #8c564b; stroke: #8c564b"/>
     <use xlink:href="#mbd452fb752" x="532.582853" y="286.780635" style="fill: #8c564b; stroke: #8c564b"/>
     <use xlink:href="#mbd452fb752" x="550.150174" y="288.80425" style="fill: #8c564b; stroke: #8c564b"/>
     <use xlink:href="#mbd452fb752" x="585.284816" y="288.417364" style="fill: #8c564b; stroke: #8c564b"/>
     <use xlink:href="#mbd452fb752" x="602.852137" y="286.563061" style="fill: #8c564b; stroke: #8c564b"/>
     <use xlink:href="#mbd452fb752" x="620.419458" y="287.377873" style="fill: #8c564b; stroke: #8c564b"/>
     <use xlink:href="#mbd452fb752" x="637.986779" y="287.334677" style="fill: #8c564b; stroke: #8c564b"/>
     <use xlink:href="#mbd452fb752" x="655.5541" y="287.646364" style="fill: #8c564b; stroke: #8c564b"/>
     <use xlink:href="#mbd452fb752" x="673.12142" y="289.139347" style="fill: #8c564b; stroke: #8c564b"/>
    </g>
   </g>
   <g id="patch_3">
    <path d="M 64.41375 529.308125 
L 64.41375 23.837812 
" style="fill: none; stroke: #000000; stroke-width: 0.8; stroke-linejoin: miter; stroke-linecap: square"/>
   </g>
   <g id="patch_4">
    <path d="M 702.1075 529.308125 
L 702.1075 23.837812 
" style="fill: none; stroke: #000000; stroke-width: 0.8; stroke-linejoin: miter; stroke-linecap: square"/>
   </g>
   <g id="patch_5">
    <path d="M 64.41375 529.308125 
L 702.1075 529.308125 
" style="fill: none; stroke: #000000; stroke-width: 0.8; stroke-linejoin: miter; stroke-linecap: square"/>
   </g>
   <g id="patch_6">
    <path d="M 64.41375 23.837812 
L 702.1075 23.837812 
" style="fill: none; stroke: #000000; stroke-width: 0.8; stroke-linejoin: miter; stroke-linecap: square"/>
   </g>
   <g id="text_14">
    <text style="font: 700 14px 'DejaVu Sans', 'Bitstream Vera Sans', 'Computer Modern Sans Serif', 'Lucida Grande', 'Verdana', 'Geneva', 'Lucid', 'Arial', 'Helvetica', 'Avant Garde', sans-serif; text-anchor: middle" x="383.260625" y="17.837813" transform="rotate(-0 383.260625 17.837813)">Taskthroughput - Performance Trend</text>
   </g>
   <g id="legend_1">
    <g id="patch_7">
     <path d="M 740.992188 119.906563 
L 846.004688 119.906563 
Q 848.004688 119.906563 848.004688 117.906563 
L 848.004688 30.837813 
Q 848.004688 28.837813 846.004688 28.837813 
L 740.992188 28.837813 
Q 738.992188 28.837813 738.992188 30.837813 
L 738.992188 117.906563 
Q 738.992188 119.906563 740.992188 119.906563 
z
" style="fill: #ffffff; opacity: 0.8; stroke: #cccccc; stroke-linejoin: miter"/>
    </g>
    <g id="line2d_26">
     <path d="M 742.992188 36.93625 
L 752.992188 36.93625 
L 762.992188 36.93625 
" style="fill: none; stroke: #1f77b4; stroke-width: 2; stroke-linecap: square"/>
     <g>
      <use xlink:href="#m434735ce39" x="752.992188" y="36.93625" style="fill: #1f77b4; stroke: #1f77b4"/>
     </g>
    </g>
    <g id="text_15">
     <text style="font: 10px 'DejaVu Sans', 'Bitstream Vera Sans', 'Computer Modern Sans Serif', 'Lucida Grande', 'Verdana', 'Geneva', 'Lucid', 'Arial', 'Helvetica', 'Avant Garde', sans-serif; text-anchor: start" x="770.992188" y="40.43625" transform="rotate(-0 770.992188 40.43625)">gcc-14.2 - V1</text>
    </g>
    <g id="line2d_27">
     <path d="M 742.992188 51.614375 
L 752.992188 51.614375 
L 762.992188 51.614375 
" style="fill: none; stroke: #ff7f0e; stroke-width: 2; stroke-linecap: square"/>
     <g>
      <use xlink:href="#mdf2a03c672" x="752.992188" y="51.614375" style="fill: #ff7f0e; stroke: #ff7f0e"/>
     </g>
    </g>
    <g id="text_16">
     <text style="font: 10px 'DejaVu Sans', 'Bitstream Vera Sans', 'Computer Modern Sans Serif', 'Lucida Grande', 'Verdana', 'Geneva', 'Lucid', 'Arial', 'Helvetica', 'Avant Garde', sans-serif; text-anchor: start" x="770.992188" y="55.114375" transform="rotate(-0 770.992188 55.114375)">gcc-14.2 - V2</text>
    </g>
    <g id="line2d_28">
     <path d="M 742.992188 66.2925 
L 752.992188 66.2925 
L 762.992188 66.2925 
" style="fill: none; stroke: #2ca02c; stroke-width: 2; stroke-linecap: square"/>
     <g>
      <use xlink:href="#m2c4aa64415" x="752.992188" y="66.2925" style="fill: #2ca02c; stroke: #2ca02c"/>
     </g>
    </g>
    <g id="text_17">
     <text style="font: 10px 'DejaVu Sans', 'Bitstream Vera Sans', 'Computer Modern Sans Serif', 'Lucida Grande', 'Verdana', 'Geneva', 'Lucid', 'Arial', 'Helvetica', 'Avant Garde', sans-serif; text-anchor: start" x="770.992188" y="69.7925" transform="rotate(-0 770.992188 69.7925)">gcc-14.2 - TBB</text>
    </g>
    <g id="line2d_29">
     <path d="M 742.992188 80.970625 
L 752.992188 80.970625 
L 762.992188 80.970625 
" style="fill: none; stroke: #d62728; stroke-width: 2; stroke-linecap: square"/>
     <g>
      <use xlink:href="#m8e98530566" x="752.992188" y="80.970625" style="fill: #d62728; stroke: #d62728"/>
     </g>
    </g>
    <g id="text_18">
     <text style="font: 10px 'DejaVu Sans', 'Bitstream Vera Sans', 'Computer Modern Sans Serif', 'Lucida Grande', 'Verdana', 'Geneva', 'Lucid', 'Arial', 'Helvetica', 'Avant Garde', sans-serif; text-anchor: start" x="770.992188" y="84.470625" transform="rotate(-0 770.992188 84.470625)">gcc-4.2 - V1</text>
    </g>
    <g id="line2d_30">
     <path d="M 742.992188 95.64875 
L 752.992188 95.64875 
L 762.992188 95.64875 
" style="fill: none; stroke: #9467bd; stroke-width: 2; stroke-linecap: square"/>
     <g>
      <use xlink:href="#m61f1c96595" x="752.992188" y="95.64875" style="fill: #9467bd; stroke: #9467bd"/>
     </g>
    </g>
    <g id="text_19">
     <text style="font: 10px 'DejaVu Sans', 'Bitstream Vera Sans', 'Computer Modern Sans Serif', 'Lucida Grande', 'Verdana', 'Geneva', 'Lucid', 'Arial', 'Helvetica', 'Avant Garde', sans-serif; text-anchor: start" x="770.992188" y="99.14875" transform="rotate(-0 770.992188 99.14875)">gcc-4.2 - V2</text>
    </g>
    <g id="line2d_31">
     <path d="M 742.992188 110.326875 
L 752.992188 110.326875 
L 762.992188 110.326875 
" style="fill: none; stroke: #8c564b; stroke-width: 2; stroke-linecap: square"/>
     <g>
      <use xlink:href="#mbd452fb752" x="752.992188" y="110.326875" style="fill: #8c564b; stroke: #8c564b"/>
     </g>
    </g>
    <g id="text_20">
     <text style="font: 10px 'DejaVu Sans', 'Bitstream Vera Sans', 'Computer Modern Sans Serif', 'Lucida Grande', 'Verdana', 'Geneva', 'Lucid', 'Arial', 'Helvetica', 'Avant Garde', sans-serif; text-anchor: start" x="770.992188" y="113.826875" transform="rotate(-0 770.992188 113.826875)">gcc-4.2 - TBB</text>
    </g>
   </g>
  </g>
 </g>
 <defs>
  <clipPath id="p7ad747b393">
   <rect x="64.41375" y="23.837813" width="637.69375" height="505.470313"/>
  </clipPath>
 </defs>
</svg>
