<?xml version="1.0" encoding="utf-8" standalone="no"?>
<!DOCTYPE svg PUBLIC "-//W3C//DTD SVG 1.1//EN"
  "http://www.w3.org/Graphics/SVG/1.1/DTD/svg11.dtd">
<svg xmlns:xlink="http://www.w3.org/1999/xlink" width="848.869766pt" height="568.8pt" viewBox="0 0 848.869766 568.8" xmlns="http://www.w3.org/2000/svg" version="1.1">
 <metadata>
  <rdf:RDF xmlns:dc="http://purl.org/dc/elements/1.1/" xmlns:cc="http://creativecommons.org/ns#" xmlns:rdf="http://www.w3.org/1999/02/22-rdf-syntax-ns#">
   <cc:Work>
    <dc:type rdf:resource="http://purl.org/dc/dcmitype/StillImage"/>
    <dc:date>2025-08-28T15:03:32.828446</dc:date>
    <dc:format>image/svg+xml</dc:format>
    <dc:creator>
     <cc:Agent>
      <dc:title>Matplotlib v3.9.4, https://matplotlib.org/</dc:title>
     </cc:Agent>
    </dc:creator>
   </cc:Work>
  </rdf:RDF>
 </metadata>
 <defs>
  <style type="text/css">*{stroke-linejoin: round; stroke-linecap: butt}</style>
 </defs>
 <g id="figure_1">
  <g id="patch_1">
   <path d="M 0 568.8 
L 848.869766 568.8 
L 848.869766 0 
L 0 0 
z
" style="fill: #ffffff"/>
  </g>
  <g id="axes_1">
   <g id="patch_2">
    <path d="M 86.71375 529.308125 
L 597.709062 529.308125 
L 597.709062 23.837812 
L 86.71375 23.837812 
z
" style="fill: #ffffff"/>
   </g>
   <g id="matplotlib.axis_1">
    <g id="xtick_1">
     <g id="line2d_1">
      <path d="M 109.94081 529.308125 
L 109.94081 23.837812 
" clip-path="url(#p92c88223f7)" style="fill: none; stroke: #b0b0b0; stroke-opacity: 0.3; stroke-width: 0.8; stroke-linecap: square"/>
     </g>
     <g id="line2d_2">
      <defs>
       <path id="me8a84d75d5" d="M 0 0 
L 0 3.5 
" style="stroke: #000000; stroke-width: 0.8"/>
      </defs>
      <g>
       <use xlink:href="#me8a84d75d5" x="109.94081" y="529.308125" style="stroke: #000000; stroke-width: 0.8"/>
      </g>
     </g>
     <g id="text_1">
      <text style="font: 10px 'DejaVu Sans', 'Bitstream Vera Sans', 'Computer Modern Sans Serif', 'Lucida Grande', 'Verdana', 'Geneva', 'Lucid', 'Arial', 'Helvetica', 'Avant Garde', sans-serif; text-anchor: middle" x="109.94081" y="543.906563" transform="rotate(-0 109.94081 543.906563)">96</text>
     </g>
    </g>
    <g id="xtick_2">
     <g id="line2d_3">
      <path d="M 187.364342 529.308125 
L 187.364342 23.837812 
" clip-path="url(#p92c88223f7)" style="fill: none; stroke: #b0b0b0; stroke-opacity: 0.3; stroke-width: 0.8; stroke-linecap: square"/>
     </g>
     <g id="line2d_4">
      <g>
       <use xlink:href="#me8a84d75d5" x="187.364342" y="529.308125" style="stroke: #000000; stroke-width: 0.8"/>
      </g>
     </g>
     <g id="text_2">
      <text style="font: 10px 'DejaVu Sans', 'Bitstream Vera Sans', 'Computer Modern Sans Serif', 'Lucida Grande', 'Verdana', 'Geneva', 'Lucid', 'Arial', 'Helvetica', 'Avant Garde', sans-serif; text-anchor: middle" x="187.364342" y="543.906563" transform="rotate(-0 187.364342 543.906563)">98</text>
     </g>
    </g>
    <g id="xtick_3">
     <g id="line2d_5">
      <path d="M 264.787874 529.308125 
L 264.787874 23.837812 
" clip-path="url(#p92c88223f7)" style="fill: none; stroke: #b0b0b0; stroke-opacity: 0.3; stroke-width: 0.8; stroke-linecap: square"/>
     </g>
     <g id="line2d_6">
      <g>
       <use xlink:href="#me8a84d75d5" x="264.787874" y="529.308125" style="stroke: #000000; stroke-width: 0.8"/>
      </g>
     </g>
     <g id="text_3">
      <text style="font: 10px 'DejaVu Sans', 'Bitstream Vera Sans', 'Computer Modern Sans Serif', 'Lucida Grande', 'Verdana', 'Geneva', 'Lucid', 'Arial', 'Helvetica', 'Avant Garde', sans-serif; text-anchor: middle" x="264.787874" y="543.906563" transform="rotate(-0 264.787874 543.906563)">100</text>
     </g>
    </g>
    <g id="xtick_4">
     <g id="line2d_7">
      <path d="M 342.211406 529.308125 
L 342.211406 23.837812 
" clip-path="url(#p92c88223f7)" style="fill: none; stroke: #b0b0b0; stroke-opacity: 0.3; stroke-width: 0.8; stroke-linecap: square"/>
     </g>
     <g id="line2d_8">
      <g>
       <use xlink:href="#me8a84d75d5" x="342.211406" y="529.308125" style="stroke: #000000; stroke-width: 0.8"/>
      </g>
     </g>
     <g id="text_4">
      <text style="font: 10px 'DejaVu Sans', 'Bitstream Vera Sans', 'Computer Modern Sans Serif', 'Lucida Grande', 'Verdana', 'Geneva', 'Lucid', 'Arial', 'Helvetica', 'Avant Garde', sans-serif; text-anchor: middle" x="342.211406" y="543.906563" transform="rotate(-0 342.211406 543.906563)">102</text>
     </g>
    </g>
    <g id="xtick_5">
     <g id="line2d_9">
      <path d="M 419.634938 529.308125 
L 419.634938 23.837812 
" clip-path="url(#p92c88223f7)" style="fill: none; stroke: #b0b0b0; stroke-opacity: 0.3; stroke-width: 0.8; stroke-linecap: square"/>
     </g>
     <g id="line2d_10">
      <g>
       <use xlink:href="#me8a84d75d5" x="419.634938" y="529.308125" style="stroke: #000000; stroke-width: 0.8"/>
      </g>
     </g>
     <g id="text_5">
      <text style="font: 10px 'DejaVu Sans', 'Bitstream Vera Sans', 'Computer Modern Sans Serif', 'Lucida Grande', 'Verdana', 'Geneva', 'Lucid', 'Arial', 'Helvetica', 'Avant Garde', sans-serif; text-anchor: middle" x="419.634938" y="543.906563" transform="rotate(-0 419.634938 543.906563)">104</text>
     </g>
    </g>
    <g id="xtick_6">
     <g id="line2d_11">
      <path d="M 497.058471 529.308125 
L 497.058471 23.837812 
" clip-path="url(#p92c88223f7)" style="fill: none; stroke: #b0b0b0; stroke-opacity: 0.3; stroke-width: 0.8; stroke-linecap: square"/>
     </g>
     <g id="line2d_12">
      <g>
       <use xlink:href="#me8a84d75d5" x="497.058471" y="529.308125" style="stroke: #000000; stroke-width: 0.8"/>
      </g>
     </g>
     <g id="text_6">
      <text style="font: 10px 'DejaVu Sans', 'Bitstream Vera Sans', 'Computer Modern Sans Serif', 'Lucida Grande', 'Verdana', 'Geneva', 'Lucid', 'Arial', 'Helvetica', 'Avant Garde', sans-serif; text-anchor: middle" x="497.058471" y="543.906563" transform="rotate(-0 497.058471 543.906563)">106</text>
     </g>
    </g>
    <g id="xtick_7">
     <g id="line2d_13">
      <path d="M 574.482003 529.308125 
L 574.482003 23.837812 
" clip-path="url(#p92c88223f7)" style="fill: none; stroke: #b0b0b0; stroke-opacity: 0.3; stroke-width: 0.8; stroke-linecap: square"/>
     </g>
     <g id="line2d_14">
      <g>
       <use xlink:href="#me8a84d75d5" x="574.482003" y="529.308125" style="stroke: #000000; stroke-width: 0.8"/>
      </g>
     </g>
     <g id="text_7">
      <text style="font: 10px 'DejaVu Sans', 'Bitstream Vera Sans', 'Computer Modern Sans Serif', 'Lucida Grande', 'Verdana', 'Geneva', 'Lucid', 'Arial', 'Helvetica', 'Avant Garde', sans-serif; text-anchor: middle" x="574.482003" y="543.906563" transform="rotate(-0 574.482003 543.906563)">108</text>
     </g>
    </g>
    <g id="text_8">
     <text style="font: 12px 'DejaVu Sans', 'Bitstream Vera Sans', 'Computer Modern Sans Serif', 'Lucida Grande', 'Verdana', 'Geneva', 'Lucid', 'Arial', 'Helvetica', 'Avant Garde', sans-serif; text-anchor: middle" x="342.211406" y="559.104375" transform="rotate(-0 342.211406 559.104375)">Build Number</text>
    </g>
   </g>
   <g id="matplotlib.axis_2">
    <g id="ytick_1">
     <g id="line2d_15">
      <defs>
       <path id="m00e9e81bd3" d="M 0 0 
L -2 0 
" style="stroke: #000000; stroke-width: 0.6"/>
      </defs>
      <g>
       <use xlink:href="#m00e9e81bd3" x="86.71375" y="506.31532" style="stroke: #000000; stroke-width: 0.6"/>
      </g>
     </g>
     <g id="text_9">
      <!-- $\mathdefault{5.006\times10^{7}}$ -->
      <g transform="translate(22.81375 510.114539)">
       <text>
        <tspan style="font: 10px 'DejaVu Sans'" x="0 6.362305 9.541016 15.90332 22.265625 30.576172 40.90332 47.265625" y="-0.06406250000000036">5.006×10</tspan>
        <tspan style="font: 7px 'DejaVu Sans'" x="53.723633" y="-3.8921875000000004">7</tspan>
       </text>
      </g>
     </g>
    </g>
    <g id="ytick_2">
     <g id="line2d_16">
      <g>
       <use xlink:href="#m00e9e81bd3" x="86.71375" y="400.824495" style="stroke: #000000; stroke-width: 0.6"/>
      </g>
     </g>
     <g id="text_10">
      <!-- $\mathdefault{5.008\times10^{7}}$ -->
      <g transform="translate(22.81375 404.623714)">
       <text>
        <tspan style="font: 10px 'DejaVu Sans'" x="0 6.362305 9.541016 15.90332 22.265625 30.576172 40.90332 47.265625" y="-0.06406250000000036">5.008×10</tspan>
        <tspan style="font: 7px 'DejaVu Sans'" x="53.723633" y="-3.8921875000000004">7</tspan>
       </text>
      </g>
     </g>
    </g>
    <g id="ytick_3">
     <g id="line2d_17">
      <g>
       <use xlink:href="#m00e9e81bd3" x="86.71375" y="295.375791" style="stroke: #000000; stroke-width: 0.6"/>
      </g>
     </g>
     <g id="text_11">
      <!-- $\mathdefault{5.01\times10^{7}}$ -->
      <g transform="translate(29.21375 299.17501)">
       <text>
        <tspan style="font: 10px 'DejaVu Sans'" x="0 6.362305 9.541016 15.90332 24.213867 34.541016 40.90332" y="-0.06406250000000036">5.01×10</tspan>
        <tspan style="font: 7px 'DejaVu Sans'" x="47.361328" y="-3.8921875000000004">7</tspan>
       </text>
      </g>
     </g>
    </g>
    <g id="ytick_4">
     <g id="line2d_18">
      <g>
       <use xlink:href="#m00e9e81bd3" x="86.71375" y="189.969174" style="stroke: #000000; stroke-width: 0.6"/>
      </g>
     </g>
     <g id="text_12">
      <!-- $\mathdefault{5.012\times10^{7}}$ -->
      <g transform="translate(22.81375 193.768393)">
       <text>
        <tspan style="font: 10px 'DejaVu Sans'" x="0 6.362305 9.541016 15.90332 22.265625 30.576172 40.90332 47.265625" y="-0.06406250000000036">5.012×10</tspan>
        <tspan style="font: 7px 'DejaVu Sans'" x="53.723633" y="-3.8921875000000004">7</tspan>
       </text>
      </g>
     </g>
    </g>
    <g id="ytick_5">
     <g id="line2d_19">
      <g>
       <use xlink:href="#m00e9e81bd3" x="86.71375" y="84.60461" style="stroke: #000000; stroke-width: 0.6"/>
      </g>
     </g>
     <g id="text_13">
      <!-- $\mathdefault{5.014\times10^{7}}$ -->
      <g transform="translate(22.81375 88.403829)">
       <text>
        <tspan style="font: 10px 'DejaVu Sans'" x="0 6.362305 9.541016 15.90332 22.265625 30.576172 40.90332 47.265625" y="-0.06406250000000036">5.014×10</tspan>
        <tspan style="font: 7px 'DejaVu Sans'" x="53.723633" y="-3.8921875000000004">7</tspan>
       </text>
      </g>
     </g>
    </g>
    <g id="text_14">
     <text style="font: 12px 'DejaVu Sans', 'Bitstream Vera Sans', 'Computer Modern Sans Serif', 'Lucida Grande', 'Verdana', 'Geneva', 'Lucid', 'Arial', 'Helvetica', 'Avant Garde', sans-serif; text-anchor: middle" x="16.318125" y="276.572969" transform="rotate(-90 16.318125 276.572969)">Median Elapsed Time (nanoseconds)</text>
    </g>
   </g>
   <g id="line2d_20">
    <path d="M 109.94081 462.223469 
L 148.652576 461.895909 
L 226.076108 482.24968 
L 264.787874 492.14387 
L 303.49964 485.598344 
L 342.211406 482.751872 
L 380.923172 490.049579 
L 419.634938 479.868505 
L 458.346705 458.381923 
L 497.058471 458.882486 
L 574.482003 445.454103 
" clip-path="url(#p92c88223f7)" style="fill: none; stroke: #1f77b4; stroke-width: 2; stroke-linecap: square"/>
    <defs>
     <path id="m30c2f054cd" d="M 0 3 
C 0.795609 3 1.55874 2.683901 2.12132 2.12132 
C 2.683901 1.55874 3 0.795609 3 0 
C 3 -0.795609 2.683901 -1.55874 2.12132 -2.12132 
C 1.55874 -2.683901 0.795609 -3 0 -3 
C -0.795609 -3 -1.55874 -2.683901 -2.12132 -2.12132 
C -2.683901 -1.55874 -3 -0.795609 -3 0 
C -3 0.795609 -2.683901 1.55874 -2.12132 2.12132 
C -1.55874 2.683901 -0.795609 3 0 3 
z
" style="stroke: #1f77b4"/>
    </defs>
    <g clip-path="url(#p92c88223f7)">
     <use xlink:href="#m30c2f054cd" x="109.94081" y="462.223469" style="fill: #1f77b4; stroke: #1f77b4"/>
     <use xlink:href="#m30c2f054cd" x="148.652576" y="461.895909" style="fill: #1f77b4; stroke: #1f77b4"/>
     <use xlink:href="#m30c2f054cd" x="226.076108" y="482.24968" style="fill: #1f77b4; stroke: #1f77b4"/>
     <use xlink:href="#m30c2f054cd" x="264.787874" y="492.14387" style="fill: #1f77b4; stroke: #1f77b4"/>
     <use xlink:href="#m30c2f054cd" x="303.49964" y="485.598344" style="fill: #1f77b4; stroke: #1f77b4"/>
     <use xlink:href="#m30c2f054cd" x="342.211406" y="482.751872" style="fill: #1f77b4; stroke: #1f77b4"/>
     <use xlink:href="#m30c2f054cd" x="380.923172" y="490.049579" style="fill: #1f77b4; stroke: #1f77b4"/>
     <use xlink:href="#m30c2f054cd" x="419.634938" y="479.868505" style="fill: #1f77b4; stroke: #1f77b4"/>
     <use xlink:href="#m30c2f054cd" x="458.346705" y="458.381923" style="fill: #1f77b4; stroke: #1f77b4"/>
     <use xlink:href="#m30c2f054cd" x="497.058471" y="458.882486" style="fill: #1f77b4; stroke: #1f77b4"/>
     <use xlink:href="#m30c2f054cd" x="574.482003" y="445.454103" style="fill: #1f77b4; stroke: #1f77b4"/>
    </g>
   </g>
   <g id="line2d_21">
    <path d="M 109.94081 118.629081 
L 148.652576 104.141294 
L 226.076108 226.661714 
L 264.787874 59.289135 
L 303.49964 238.163237 
L 342.211406 235.659885 
L 380.923172 214.331756 
L 419.634938 247.463268 
L 458.346705 77.462941 
L 497.058471 127.678359 
L 574.482003 46.813736 
" clip-path="url(#p92c88223f7)" style="fill: none; stroke: #ff7f0e; stroke-width: 2; stroke-linecap: square"/>
    <defs>
     <path id="mcbb3eb3132" d="M 0 3 
C 0.795609 3 1.55874 2.683901 2.12132 2.12132 
C 2.683901 1.55874 3 0.795609 3 0 
C 3 -0.795609 2.683901 -1.55874 2.12132 -2.12132 
C 1.55874 -2.683901 0.795609 -3 0 -3 
C -0.795609 -3 -1.55874 -2.683901 -2.12132 -2.12132 
C -2.683901 -1.55874 -3 -0.795609 -3 0 
C -3 0.795609 -2.683901 1.55874 -2.12132 2.12132 
C -1.55874 2.683901 -0.795609 3 0 3 
z
" style="stroke: #ff7f0e"/>
    </defs>
    <g clip-path="url(#p92c88223f7)">
     <use xlink:href="#mcbb3eb3132" x="109.94081" y="118.629081" style="fill: #ff7f0e; stroke: #ff7f0e"/>
     <use xlink:href="#mcbb3eb3132" x="148.652576" y="104.141294" style="fill: #ff7f0e; stroke: #ff7f0e"/>
     <use xlink:href="#mcbb3eb3132" x="226.076108" y="226.661714" style="fill: #ff7f0e; stroke: #ff7f0e"/>
     <use xlink:href="#mcbb3eb3132" x="264.787874" y="59.289135" style="fill: #ff7f0e; stroke: #ff7f0e"/>
     <use xlink:href="#mcbb3eb3132" x="303.49964" y="238.163237" style="fill: #ff7f0e; stroke: #ff7f0e"/>
     <use xlink:href="#mcbb3eb3132" x="342.211406" y="235.659885" style="fill: #ff7f0e; stroke: #ff7f0e"/>
     <use xlink:href="#mcbb3eb3132" x="380.923172" y="214.331756" style="fill: #ff7f0e; stroke: #ff7f0e"/>
     <use xlink:href="#mcbb3eb3132" x="419.634938" y="247.463268" style="fill: #ff7f0e; stroke: #ff7f0e"/>
     <use xlink:href="#mcbb3eb3132" x="458.346705" y="77.462941" style="fill: #ff7f0e; stroke: #ff7f0e"/>
     <use xlink:href="#mcbb3eb3132" x="497.058471" y="127.678359" style="fill: #ff7f0e; stroke: #ff7f0e"/>
     <use xlink:href="#mcbb3eb3132" x="574.482003" y="46.813736" style="fill: #ff7f0e; stroke: #ff7f0e"/>
    </g>
   </g>
   <g id="line2d_22">
    <path d="M 109.94081 469.613974 
L 148.652576 484.250539 
L 226.076108 503.161588 
L 264.787874 459.453731 
L 303.49964 501.984092 
L 342.211406 505.309266 
L 380.923172 482.462795 
L 419.634938 475.391594 
L 458.346705 481.05065 
L 497.058471 479.68335 
L 574.482003 506.332202 
" clip-path="url(#p92c88223f7)" style="fill: none; stroke: #2ca02c; stroke-width: 2; stroke-linecap: square"/>
    <defs>
     <path id="mb072bfb3e4" d="M 0 3 
C 0.795609 3 1.55874 2.683901 2.12132 2.12132 
C 2.683901 1.55874 3 0.795609 3 0 
C 3 -0.795609 2.683901 -1.55874 2.12132 -2.12132 
C 1.55874 -2.683901 0.795609 -3 0 -3 
C -0.795609 -3 -1.55874 -2.683901 -2.12132 -2.12132 
C -2.683901 -1.55874 -3 -0.795609 -3 0 
C -3 0.795609 -2.683901 1.55874 -2.12132 2.12132 
C -1.55874 2.683901 -0.795609 3 0 3 
z
" style="stroke: #2ca02c"/>
    </defs>
    <g clip-path="url(#p92c88223f7)">
     <use xlink:href="#mb072bfb3e4" x="109.94081" y="469.613974" style="fill: #2ca02c; stroke: #2ca02c"/>
     <use xlink:href="#mb072bfb3e4" x="148.652576" y="484.250539" style="fill: #2ca02c; stroke: #2ca02c"/>
     <use xlink:href="#mb072bfb3e4" x="226.076108" y="503.161588" style="fill: #2ca02c; stroke: #2ca02c"/>
     <use xlink:href="#mb072bfb3e4" x="264.787874" y="459.453731" style="fill: #2ca02c; stroke: #2ca02c"/>
     <use xlink:href="#mb072bfb3e4" x="303.49964" y="501.984092" style="fill: #2ca02c; stroke: #2ca02c"/>
     <use xlink:href="#mb072bfb3e4" x="342.211406" y="505.309266" style="fill: #2ca02c; stroke: #2ca02c"/>
     <use xlink:href="#mb072bfb3e4" x="380.923172" y="482.462795" style="fill: #2ca02c; stroke: #2ca02c"/>
     <use xlink:href="#mb072bfb3e4" x="419.634938" y="475.391594" style="fill: #2ca02c; stroke: #2ca02c"/>
     <use xlink:href="#mb072bfb3e4" x="458.346705" y="481.05065" style="fill: #2ca02c; stroke: #2ca02c"/>
     <use xlink:href="#mb072bfb3e4" x="497.058471" y="479.68335" style="fill: #2ca02c; stroke: #2ca02c"/>
     <use xlink:href="#mb072bfb3e4" x="574.482003" y="506.332202" style="fill: #2ca02c; stroke: #2ca02c"/>
    </g>
   </g>
   <g id="line2d_23">
    <path d="M 109.94081 148.272444 
L 148.652576 242.58448 
L 226.076108 239.330598 
L 264.787874 206.867239 
L 303.49964 234.108345 
L 342.211406 232.07776 
L 380.923172 211.742206 
L 419.634938 225.168724 
L 458.346705 242.956565 
L 497.058471 228.852994 
L 574.482003 210.062227 
" clip-path="url(#p92c88223f7)" style="fill: none; stroke: #d62728; stroke-width: 2; stroke-linecap: square"/>
    <defs>
     <path id="m947f72f268" d="M 0 3 
C 0.795609 3 1.55874 2.683901 2.12132 2.12132 
C 2.683901 1.55874 3 0.795609 3 0 
C 3 -0.795609 2.683901 -1.55874 2.12132 -2.12132 
C 1.55874 -2.683901 0.795609 -3 0 -3 
C -0.795609 -3 -1.55874 -2.683901 -2.12132 -2.12132 
C -2.683901 -1.55874 -3 -0.795609 -3 0 
C -3 0.795609 -2.683901 1.55874 -2.12132 2.12132 
C -1.55874 2.683901 -0.795609 3 0 3 
z
" style="stroke: #d62728"/>
    </defs>
    <g clip-path="url(#p92c88223f7)">
     <use xlink:href="#m947f72f268" x="109.94081" y="148.272444" style="fill: #d62728; stroke: #d62728"/>
     <use xlink:href="#m947f72f268" x="148.652576" y="242.58448" style="fill: #d62728; stroke: #d62728"/>
     <use xlink:href="#m947f72f268" x="226.076108" y="239.330598" style="fill: #d62728; stroke: #d62728"/>
     <use xlink:href="#m947f72f268" x="264.787874" y="206.867239" style="fill: #d62728; stroke: #d62728"/>
     <use xlink:href="#m947f72f268" x="303.49964" y="234.108345" style="fill: #d62728; stroke: #d62728"/>
     <use xlink:href="#m947f72f268" x="342.211406" y="232.07776" style="fill: #d62728; stroke: #d62728"/>
     <use xlink:href="#m947f72f268" x="380.923172" y="211.742206" style="fill: #d62728; stroke: #d62728"/>
     <use xlink:href="#m947f72f268" x="419.634938" y="225.168724" style="fill: #d62728; stroke: #d62728"/>
     <use xlink:href="#m947f72f268" x="458.346705" y="242.956565" style="fill: #d62728; stroke: #d62728"/>
     <use xlink:href="#m947f72f268" x="497.058471" y="228.852994" style="fill: #d62728; stroke: #d62728"/>
     <use xlink:href="#m947f72f268" x="574.482003" y="210.062227" style="fill: #d62728; stroke: #d62728"/>
    </g>
   </g>
   <g id="patch_3">
    <path d="M 86.71375 529.308125 
L 86.71375 23.837813 
" style="fill: none; stroke: #000000; stroke-width: 0.8; stroke-linejoin: miter; stroke-linecap: square"/>
   </g>
   <g id="patch_4">
    <path d="M 597.709062 529.308125 
L 597.709062 23.837813 
" style="fill: none; stroke: #000000; stroke-width: 0.8; stroke-linejoin: miter; stroke-linecap: square"/>
   </g>
   <g id="patch_5">
    <path d="M 86.71375 529.308125 
L 597.709062 529.308125 
" style="fill: none; stroke: #000000; stroke-width: 0.8; stroke-linejoin: miter; stroke-linecap: square"/>
   </g>
   <g id="patch_6">
    <path d="M 86.71375 23.837812 
L 597.709062 23.837812 
" style="fill: none; stroke: #000000; stroke-width: 0.8; stroke-linejoin: miter; stroke-linecap: square"/>
   </g>
   <g id="text_15">
    <text style="font: 700 14px 'DejaVu Sans', 'Bitstream Vera Sans', 'Computer Modern Sans Serif', 'Lucida Grande', 'Verdana', 'Geneva', 'Lucid', 'Arial', 'Helvetica', 'Avant Garde', sans-serif; text-anchor: middle" x="342.211406" y="17.837813" transform="rotate(-0 342.211406 17.837813)">Coroutine Suspension - Performance Trend</text>
   </g>
   <g id="legend_1">
    <g id="patch_7">
     <path d="M 630.258828 91.662813 
L 839.669766 91.662813 
Q 841.669766 91.662813 841.669766 89.662813 
L 841.669766 30.837813 
Q 841.669766 28.837813 839.669766 28.837813 
L 630.258828 28.837813 
Q 628.258828 28.837813 628.258828 30.837813 
L 628.258828 89.662813 
Q 628.258828 91.662813 630.258828 91.662813 
z
" style="fill: #ffffff; opacity: 0.8; stroke: #cccccc; stroke-linejoin: miter"/>
    </g>
    <g id="line2d_24">
     <path d="M 632.258828 36.93625 
L 642.258828 36.93625 
L 652.258828 36.93625 
" style="fill: none; stroke: #1f77b4; stroke-width: 2; stroke-linecap: square"/>
     <g>
      <use xlink:href="#m30c2f054cd" x="642.258828" y="36.93625" style="fill: #1f77b4; stroke: #1f77b4"/>
     </g>
    </g>
    <g id="text_16">
     <text style="font: 10px 'DejaVu Sans', 'Bitstream Vera Sans', 'Computer Modern Sans Serif', 'Lucida Grande', 'Verdana', 'Geneva', 'Lucid', 'Arial', 'Helvetica', 'Avant Garde', sans-serif; text-anchor: start" x="660.258828" y="40.43625" transform="rotate(-0 660.258828 40.43625)">gcc-14.2 - SuspensionOverhead_V1</text>
    </g>
    <g id="line2d_25">
     <path d="M 632.258828 51.8925 
L 642.258828 51.8925 
L 652.258828 51.8925 
" style="fill: none; stroke: #ff7f0e; stroke-width: 2; stroke-linecap: square"/>
     <g>
      <use xlink:href="#mcbb3eb3132" x="642.258828" y="51.8925" style="fill: #ff7f0e; stroke: #ff7f0e"/>
     </g>
    </g>
    <g id="text_17">
     <text style="font: 10px 'DejaVu Sans', 'Bitstream Vera Sans', 'Computer Modern Sans Serif', 'Lucida Grande', 'Verdana', 'Geneva', 'Lucid', 'Arial', 'Helvetica', 'Avant Garde', sans-serif; text-anchor: start" x="660.258828" y="55.3925" transform="rotate(-0 660.258828 55.3925)">gcc-14.2 - SuspensionOverhead_V2</text>
    </g>
    <g id="line2d_26">
     <path d="M 632.258828 66.84875 
L 642.258828 66.84875 
L 652.258828 66.84875 
" style="fill: none; stroke: #2ca02c; stroke-width: 2; stroke-linecap: square"/>
     <g>
      <use xlink:href="#mb072bfb3e4" x="642.258828" y="66.84875" style="fill: #2ca02c; stroke: #2ca02c"/>
     </g>
    </g>
    <g id="text_18">
     <text style="font: 10px 'DejaVu Sans', 'Bitstream Vera Sans', 'Computer Modern Sans Serif', 'Lucida Grande', 'Verdana', 'Geneva', 'Lucid', 'Arial', 'Helvetica', 'Avant Garde', sans-serif; text-anchor: start" x="660.258828" y="70.34875" transform="rotate(-0 660.258828 70.34875)">gcc-4.2 - SuspensionOverhead_V1</text>
    </g>
    <g id="line2d_27">
     <path d="M 632.258828 81.805 
L 642.258828 81.805 
L 652.258828 81.805 
" style="fill: none; stroke: #d62728; stroke-width: 2; stroke-linecap: square"/>
     <g>
      <use xlink:href="#m947f72f268" x="642.258828" y="81.805" style="fill: #d62728; stroke: #d62728"/>
     </g>
    </g>
    <g id="text_19">
     <text style="font: 10px 'DejaVu Sans', 'Bitstream Vera Sans', 'Computer Modern Sans Serif', 'Lucida Grande', 'Verdana', 'Geneva', 'Lucid', 'Arial', 'Helvetica', 'Avant Garde', sans-serif; text-anchor: start" x="660.258828" y="85.305" transform="rotate(-0 660.258828 85.305)">gcc-4.2 - SuspensionOverhead_V2</text>
    </g>
   </g>
  </g>
 </g>
 <defs>
  <clipPath id="p92c88223f7">
   <rect x="86.71375" y="23.837813" width="510.995312" height="505.470313"/>
  </clipPath>
 </defs>
</svg>
