<?xml version="1.0" encoding="utf-8" standalone="no"?>
<!DOCTYPE svg PUBLIC "-//W3C//DTD SVG 1.1//EN"
  "http://www.w3.org/Graphics/SVG/1.1/DTD/svg11.dtd">
<svg xmlns:xlink="http://www.w3.org/1999/xlink" width="855.204687pt" height="568.8pt" viewBox="0 0 855.204687 568.8" xmlns="http://www.w3.org/2000/svg" version="1.1">
 <metadata>
  <rdf:RDF xmlns:dc="http://purl.org/dc/elements/1.1/" xmlns:cc="http://creativecommons.org/ns#" xmlns:rdf="http://www.w3.org/1999/02/22-rdf-syntax-ns#">
   <cc:Work>
    <dc:type rdf:resource="http://purl.org/dc/dcmitype/StillImage"/>
    <dc:date>2025-08-31T21:45:59.194906</dc:date>
    <dc:format>image/svg+xml</dc:format>
    <dc:creator>
     <cc:Agent>
      <dc:title>Matplotlib v3.9.4, https://matplotlib.org/</dc:title>
     </cc:Agent>
    </dc:creator>
   </cc:Work>
  </rdf:RDF>
 </metadata>
 <defs>
  <style type="text/css">*{stroke-linejoin: round; stroke-linecap: butt}</style>
 </defs>
 <g id="figure_1">
  <g id="patch_1">
   <path d="M 0 568.8 
L 855.204687 568.8 
L 855.204687 0 
L 0 0 
z
" style="fill: #ffffff"/>
  </g>
  <g id="axes_1">
   <g id="patch_2">
    <path d="M 64.41375 529.308125 
L 702.1075 529.308125 
L 702.1075 23.837812 
L 64.41375 23.837812 
z
" style="fill: #ffffff"/>
   </g>
   <g id="matplotlib.axis_1">
    <g id="xtick_1">
     <g id="line2d_1">
      <path d="M 80.517128 529.308125 
L 80.517128 23.837812 
" clip-path="url(#pc72d3246c1)" style="fill: none; stroke: #b0b0b0; stroke-opacity: 0.3; stroke-width: 0.8; stroke-linecap: square"/>
     </g>
     <g id="line2d_2">
      <defs>
       <path id="m7273fd55db" d="M 0 0 
L 0 3.5 
" style="stroke: #000000; stroke-width: 0.8"/>
      </defs>
      <g>
       <use xlink:href="#m7273fd55db" x="80.517128" y="529.308125" style="stroke: #000000; stroke-width: 0.8"/>
      </g>
     </g>
     <g id="text_1">
      <text style="font: 10px 'DejaVu Sans', 'Bitstream Vera Sans', 'Computer Modern Sans Serif', 'Lucida Grande', 'Verdana', 'Geneva', 'Lucid', 'Arial', 'Helvetica', 'Avant Garde', sans-serif; text-anchor: middle" x="80.517128" y="543.906563" transform="rotate(-0 80.517128 543.906563)">70</text>
     </g>
    </g>
    <g id="xtick_2">
     <g id="line2d_3">
      <path d="M 209.344148 529.308125 
L 209.344148 23.837812 
" clip-path="url(#pc72d3246c1)" style="fill: none; stroke: #b0b0b0; stroke-opacity: 0.3; stroke-width: 0.8; stroke-linecap: square"/>
     </g>
     <g id="line2d_4">
      <g>
       <use xlink:href="#m7273fd55db" x="209.344148" y="529.308125" style="stroke: #000000; stroke-width: 0.8"/>
      </g>
     </g>
     <g id="text_2">
      <text style="font: 10px 'DejaVu Sans', 'Bitstream Vera Sans', 'Computer Modern Sans Serif', 'Lucida Grande', 'Verdana', 'Geneva', 'Lucid', 'Arial', 'Helvetica', 'Avant Garde', sans-serif; text-anchor: middle" x="209.344148" y="543.906563" transform="rotate(-0 209.344148 543.906563)">80</text>
     </g>
    </g>
    <g id="xtick_3">
     <g id="line2d_5">
      <path d="M 338.171168 529.308125 
L 338.171168 23.837812 
" clip-path="url(#pc72d3246c1)" style="fill: none; stroke: #b0b0b0; stroke-opacity: 0.3; stroke-width: 0.8; stroke-linecap: square"/>
     </g>
     <g id="line2d_6">
      <g>
       <use xlink:href="#m7273fd55db" x="338.171168" y="529.308125" style="stroke: #000000; stroke-width: 0.8"/>
      </g>
     </g>
     <g id="text_3">
      <text style="font: 10px 'DejaVu Sans', 'Bitstream Vera Sans', 'Computer Modern Sans Serif', 'Lucida Grande', 'Verdana', 'Geneva', 'Lucid', 'Arial', 'Helvetica', 'Avant Garde', sans-serif; text-anchor: middle" x="338.171168" y="543.906563" transform="rotate(-0 338.171168 543.906563)">90</text>
     </g>
    </g>
    <g id="xtick_4">
     <g id="line2d_7">
      <path d="M 466.998188 529.308125 
L 466.998188 23.837812 
" clip-path="url(#pc72d3246c1)" style="fill: none; stroke: #b0b0b0; stroke-opacity: 0.3; stroke-width: 0.8; stroke-linecap: square"/>
     </g>
     <g id="line2d_8">
      <g>
       <use xlink:href="#m7273fd55db" x="466.998188" y="529.308125" style="stroke: #000000; stroke-width: 0.8"/>
      </g>
     </g>
     <g id="text_4">
      <text style="font: 10px 'DejaVu Sans', 'Bitstream Vera Sans', 'Computer Modern Sans Serif', 'Lucida Grande', 'Verdana', 'Geneva', 'Lucid', 'Arial', 'Helvetica', 'Avant Garde', sans-serif; text-anchor: middle" x="466.998188" y="543.906563" transform="rotate(-0 466.998188 543.906563)">100</text>
     </g>
    </g>
    <g id="xtick_5">
     <g id="line2d_9">
      <path d="M 595.825208 529.308125 
L 595.825208 23.837812 
" clip-path="url(#pc72d3246c1)" style="fill: none; stroke: #b0b0b0; stroke-opacity: 0.3; stroke-width: 0.8; stroke-linecap: square"/>
     </g>
     <g id="line2d_10">
      <g>
       <use xlink:href="#m7273fd55db" x="595.825208" y="529.308125" style="stroke: #000000; stroke-width: 0.8"/>
      </g>
     </g>
     <g id="text_5">
      <text style="font: 10px 'DejaVu Sans', 'Bitstream Vera Sans', 'Computer Modern Sans Serif', 'Lucida Grande', 'Verdana', 'Geneva', 'Lucid', 'Arial', 'Helvetica', 'Avant Garde', sans-serif; text-anchor: middle" x="595.825208" y="543.906563" transform="rotate(-0 595.825208 543.906563)">110</text>
     </g>
    </g>
    <g id="text_6">
     <text style="font: 12px 'DejaVu Sans', 'Bitstream Vera Sans', 'Computer Modern Sans Serif', 'Lucida Grande', 'Verdana', 'Geneva', 'Lucid', 'Arial', 'Helvetica', 'Avant Garde', sans-serif; text-anchor: middle" x="383.260625" y="559.104375" transform="rotate(-0 383.260625 559.104375)">Build Number</text>
    </g>
   </g>
   <g id="matplotlib.axis_2">
    <g id="ytick_1">
     <g id="line2d_11">
      <path d="M 64.41375 453.999649 
L 702.1075 453.999649 
" clip-path="url(#pc72d3246c1)" style="fill: none; stroke: #b0b0b0; stroke-opacity: 0.3; stroke-width: 0.8; stroke-linecap: square"/>
     </g>
     <g id="line2d_12">
      <defs>
       <path id="m3dc4024f47" d="M 0 0 
L -3.5 0 
" style="stroke: #000000; stroke-width: 0.8"/>
      </defs>
      <g>
       <use xlink:href="#m3dc4024f47" x="64.41375" y="453.999649" style="stroke: #000000; stroke-width: 0.8"/>
      </g>
     </g>
     <g id="text_7">
      <!-- $\mathdefault{10^{5}}$ -->
      <g transform="translate(39.81375 457.798868)">
       <text>
        <tspan style="font: 10px 'DejaVu Sans'" x="0 6.362305" y="-0.06406250000000036">10</tspan>
        <tspan style="font: 7px 'DejaVu Sans'" x="12.820312" y="-3.8921875000000004">5</tspan>
       </text>
      </g>
     </g>
    </g>
    <g id="ytick_2">
     <g id="line2d_13">
      <defs>
       <path id="m537e6f1301" d="M 0 0 
L -2 0 
" style="stroke: #000000; stroke-width: 0.6"/>
      </defs>
      <g>
       <use xlink:href="#m537e6f1301" x="64.41375" y="496.912063" style="stroke: #000000; stroke-width: 0.6"/>
      </g>
     </g>
    </g>
    <g id="ytick_3">
     <g id="line2d_14">
      <g>
       <use xlink:href="#m537e6f1301" x="64.41375" y="171.686878" style="stroke: #000000; stroke-width: 0.6"/>
      </g>
     </g>
     <g id="text_8">
      <!-- $\mathdefault{2\times10^{5}}$ -->
      <g transform="translate(22.81375 175.486097)">
       <text>
        <tspan style="font: 10px 'DejaVu Sans'" x="0 8.310547 18.637695 25" y="-0.06406250000000036">2×10</tspan>
        <tspan style="font: 7px 'DejaVu Sans'" x="31.458008" y="-3.8921875000000004">5</tspan>
       </text>
      </g>
     </g>
    </g>
    <g id="text_9">
     <text style="font: 12px 'DejaVu Sans', 'Bitstream Vera Sans', 'Computer Modern Sans Serif', 'Lucida Grande', 'Verdana', 'Geneva', 'Lucid', 'Arial', 'Helvetica', 'Avant Garde', sans-serif; text-anchor: middle" x="16.318125" y="276.572969" transform="rotate(-90 16.318125 276.572969)">Median Elapsed Time (nanoseconds)</text>
    </g>
   </g>
   <g id="line2d_15">
    <path d="M 93.39983 359.194522 
L 106.282532 85.111184 
L 119.165234 221.921057 
L 132.047936 331.895506 
L 144.930638 229.767238 
L 157.81334 319.309651 
L 170.696042 272.204237 
L 183.578744 114.526196 
L 196.461446 301.269751 
L 209.344148 289.064493 
L 222.22685 315.324007 
L 235.109552 272.427153 
L 247.992254 355.698255 
L 260.874956 290.781229 
L 273.757658 325.672388 
L 286.64036 311.712012 
L 312.405764 48.680326 
L 325.288466 299.379857 
L 338.171168 272.956644 
L 351.05387 265.715209 
L 363.936572 301.656238 
L 376.819274 316.547462 
L 389.701976 321.133747 
L 402.584678 301.676692 
L 415.46738 297.487202 
L 428.350082 283.358647 
L 454.115486 285.291472 
L 466.998188 257.576074 
L 479.88089 312.300745 
L 492.763592 292.280913 
L 505.646294 291.281603 
L 518.528996 329.030749 
L 531.411698 141.426234 
L 544.2944 289.198446 
L 570.059804 221.633647 
L 582.942506 293.692706 
L 595.825208 297.754767 
L 608.70791 98.258928 
L 621.590612 284.867495 
L 647.356016 110.177727 
L 660.238718 46.813736 
L 673.12142 236.072658 
" clip-path="url(#pc72d3246c1)" style="fill: none; stroke: #1f77b4; stroke-width: 2; stroke-linecap: square"/>
    <defs>
     <path id="m71600e14e9" d="M 0 3 
C 0.795609 3 1.55874 2.683901 2.12132 2.12132 
C 2.683901 1.55874 3 0.795609 3 0 
C 3 -0.795609 2.683901 -1.55874 2.12132 -2.12132 
C 1.55874 -2.683901 0.795609 -3 0 -3 
C -0.795609 -3 -1.55874 -2.683901 -2.12132 -2.12132 
C -2.683901 -1.55874 -3 -0.795609 -3 0 
C -3 0.795609 -2.683901 1.55874 -2.12132 2.12132 
C -1.55874 2.683901 -0.795609 3 0 3 
z
" style="stroke: #1f77b4"/>
    </defs>
    <g clip-path="url(#pc72d3246c1)">
     <use xlink:href="#m71600e14e9" x="93.39983" y="359.194522" style="fill: #1f77b4; stroke: #1f77b4"/>
     <use xlink:href="#m71600e14e9" x="106.282532" y="85.111184" style="fill: #1f77b4; stroke: #1f77b4"/>
     <use xlink:href="#m71600e14e9" x="119.165234" y="221.921057" style="fill: #1f77b4; stroke: #1f77b4"/>
     <use xlink:href="#m71600e14e9" x="132.047936" y="331.895506" style="fill: #1f77b4; stroke: #1f77b4"/>
     <use xlink:href="#m71600e14e9" x="144.930638" y="229.767238" style="fill: #1f77b4; stroke: #1f77b4"/>
     <use xlink:href="#m71600e14e9" x="157.81334" y="319.309651" style="fill: #1f77b4; stroke: #1f77b4"/>
     <use xlink:href="#m71600e14e9" x="170.696042" y="272.204237" style="fill: #1f77b4; stroke: #1f77b4"/>
     <use xlink:href="#m71600e14e9" x="183.578744" y="114.526196" style="fill: #1f77b4; stroke: #1f77b4"/>
     <use xlink:href="#m71600e14e9" x="196.461446" y="301.269751" style="fill: #1f77b4; stroke: #1f77b4"/>
     <use xlink:href="#m71600e14e9" x="209.344148" y="289.064493" style="fill: #1f77b4; stroke: #1f77b4"/>
     <use xlink:href="#m71600e14e9" x="222.22685" y="315.324007" style="fill: #1f77b4; stroke: #1f77b4"/>
     <use xlink:href="#m71600e14e9" x="235.109552" y="272.427153" style="fill: #1f77b4; stroke: #1f77b4"/>
     <use xlink:href="#m71600e14e9" x="247.992254" y="355.698255" style="fill: #1f77b4; stroke: #1f77b4"/>
     <use xlink:href="#m71600e14e9" x="260.874956" y="290.781229" style="fill: #1f77b4; stroke: #1f77b4"/>
     <use xlink:href="#m71600e14e9" x="273.757658" y="325.672388" style="fill: #1f77b4; stroke: #1f77b4"/>
     <use xlink:href="#m71600e14e9" x="286.64036" y="311.712012" style="fill: #1f77b4; stroke: #1f77b4"/>
     <use xlink:href="#m71600e14e9" x="312.405764" y="48.680326" style="fill: #1f77b4; stroke: #1f77b4"/>
     <use xlink:href="#m71600e14e9" x="325.288466" y="299.379857" style="fill: #1f77b4; stroke: #1f77b4"/>
     <use xlink:href="#m71600e14e9" x="338.171168" y="272.956644" style="fill: #1f77b4; stroke: #1f77b4"/>
     <use xlink:href="#m71600e14e9" x="351.05387" y="265.715209" style="fill: #1f77b4; stroke: #1f77b4"/>
     <use xlink:href="#m71600e14e9" x="363.936572" y="301.656238" style="fill: #1f77b4; stroke: #1f77b4"/>
     <use xlink:href="#m71600e14e9" x="376.819274" y="316.547462" style="fill: #1f77b4; stroke: #1f77b4"/>
     <use xlink:href="#m71600e14e9" x="389.701976" y="321.133747" style="fill: #1f77b4; stroke: #1f77b4"/>
     <use xlink:href="#m71600e14e9" x="402.584678" y="301.676692" style="fill: #1f77b4; stroke: #1f77b4"/>
     <use xlink:href="#m71600e14e9" x="415.46738" y="297.487202" style="fill: #1f77b4; stroke: #1f77b4"/>
     <use xlink:href="#m71600e14e9" x="428.350082" y="283.358647" style="fill: #1f77b4; stroke: #1f77b4"/>
     <use xlink:href="#m71600e14e9" x="454.115486" y="285.291472" style="fill: #1f77b4; stroke: #1f77b4"/>
     <use xlink:href="#m71600e14e9" x="466.998188" y="257.576074" style="fill: #1f77b4; stroke: #1f77b4"/>
     <use xlink:href="#m71600e14e9" x="479.88089" y="312.300745" style="fill: #1f77b4; stroke: #1f77b4"/>
     <use xlink:href="#m71600e14e9" x="492.763592" y="292.280913" style="fill: #1f77b4; stroke: #1f77b4"/>
     <use xlink:href="#m71600e14e9" x="505.646294" y="291.281603" style="fill: #1f77b4; stroke: #1f77b4"/>
     <use xlink:href="#m71600e14e9" x="518.528996" y="329.030749" style="fill: #1f77b4; stroke: #1f77b4"/>
     <use xlink:href="#m71600e14e9" x="531.411698" y="141.426234" style="fill: #1f77b4; stroke: #1f77b4"/>
     <use xlink:href="#m71600e14e9" x="544.2944" y="289.198446" style="fill: #1f77b4; stroke: #1f77b4"/>
     <use xlink:href="#m71600e14e9" x="570.059804" y="221.633647" style="fill: #1f77b4; stroke: #1f77b4"/>
     <use xlink:href="#m71600e14e9" x="582.942506" y="293.692706" style="fill: #1f77b4; stroke: #1f77b4"/>
     <use xlink:href="#m71600e14e9" x="595.825208" y="297.754767" style="fill: #1f77b4; stroke: #1f77b4"/>
     <use xlink:href="#m71600e14e9" x="608.70791" y="98.258928" style="fill: #1f77b4; stroke: #1f77b4"/>
     <use xlink:href="#m71600e14e9" x="621.590612" y="284.867495" style="fill: #1f77b4; stroke: #1f77b4"/>
     <use xlink:href="#m71600e14e9" x="647.356016" y="110.177727" style="fill: #1f77b4; stroke: #1f77b4"/>
     <use xlink:href="#m71600e14e9" x="660.238718" y="46.813736" style="fill: #1f77b4; stroke: #1f77b4"/>
     <use xlink:href="#m71600e14e9" x="673.12142" y="236.072658" style="fill: #1f77b4; stroke: #1f77b4"/>
    </g>
   </g>
   <g id="line2d_16">
    <path d="M 93.39983 393.141342 
L 106.282532 387.42149 
L 119.165234 398.687288 
L 132.047936 385.834965 
L 144.930638 340.247063 
L 157.81334 404.800026 
L 170.696042 382.184932 
L 183.578744 409.215153 
L 196.461446 397.114087 
L 209.344148 336.59239 
L 222.22685 375.417893 
L 235.109552 382.323585 
L 247.992254 372.977723 
L 260.874956 408.951611 
L 273.757658 392.320336 
L 286.64036 369.129002 
L 312.405764 392.435345 
L 325.288466 383.909493 
L 338.171168 356.551717 
L 351.05387 366.075572 
L 363.936572 347.160096 
L 376.819274 416.492385 
L 389.701976 357.698279 
L 402.584678 355.472644 
L 415.46738 283.060598 
L 428.350082 280.857852 
L 454.115486 285.847399 
L 466.998188 315.429203 
L 479.88089 311.438977 
L 492.763592 292.456195 
L 505.646294 300.523582 
L 518.528996 329.56272 
L 531.411698 286.473185 
L 544.2944 290.665846 
L 570.059804 311.788702 
L 582.942506 290.184206 
L 595.825208 297.542278 
L 608.70791 355.164497 
L 621.590612 284.183768 
L 647.356016 285.052796 
L 660.238718 368.614459 
L 673.12142 272.433412 
" clip-path="url(#pc72d3246c1)" style="fill: none; stroke: #ff7f0e; stroke-width: 2; stroke-linecap: square"/>
    <defs>
     <path id="mdb705b9c91" d="M 0 3 
C 0.795609 3 1.55874 2.683901 2.12132 2.12132 
C 2.683901 1.55874 3 0.795609 3 0 
C 3 -0.795609 2.683901 -1.55874 2.12132 -2.12132 
C 1.55874 -2.683901 0.795609 -3 0 -3 
C -0.795609 -3 -1.55874 -2.683901 -2.12132 -2.12132 
C -2.683901 -1.55874 -3 -0.795609 -3 0 
C -3 0.795609 -2.683901 1.55874 -2.12132 2.12132 
C -1.55874 2.683901 -0.795609 3 0 3 
z
" style="stroke: #ff7f0e"/>
    </defs>
    <g clip-path="url(#pc72d3246c1)">
     <use xlink:href="#mdb705b9c91" x="93.39983" y="393.141342" style="fill: #ff7f0e; stroke: #ff7f0e"/>
     <use xlink:href="#mdb705b9c91" x="106.282532" y="387.42149" style="fill: #ff7f0e; stroke: #ff7f0e"/>
     <use xlink:href="#mdb705b9c91" x="119.165234" y="398.687288" style="fill: #ff7f0e; stroke: #ff7f0e"/>
     <use xlink:href="#mdb705b9c91" x="132.047936" y="385.834965" style="fill: #ff7f0e; stroke: #ff7f0e"/>
     <use xlink:href="#mdb705b9c91" x="144.930638" y="340.247063" style="fill: #ff7f0e; stroke: #ff7f0e"/>
     <use xlink:href="#mdb705b9c91" x="157.81334" y="404.800026" style="fill: #ff7f0e; stroke: #ff7f0e"/>
     <use xlink:href="#mdb705b9c91" x="170.696042" y="382.184932" style="fill: #ff7f0e; stroke: #ff7f0e"/>
     <use xlink:href="#mdb705b9c91" x="183.578744" y="409.215153" style="fill: #ff7f0e; stroke: #ff7f0e"/>
     <use xlink:href="#mdb705b9c91" x="196.461446" y="397.114087" style="fill: #ff7f0e; stroke: #ff7f0e"/>
     <use xlink:href="#mdb705b9c91" x="209.344148" y="336.59239" style="fill: #ff7f0e; stroke: #ff7f0e"/>
     <use xlink:href="#mdb705b9c91" x="222.22685" y="375.417893" style="fill: #ff7f0e; stroke: #ff7f0e"/>
     <use xlink:href="#mdb705b9c91" x="235.109552" y="382.323585" style="fill: #ff7f0e; stroke: #ff7f0e"/>
     <use xlink:href="#mdb705b9c91" x="247.992254" y="372.977723" style="fill: #ff7f0e; stroke: #ff7f0e"/>
     <use xlink:href="#mdb705b9c91" x="260.874956" y="408.951611" style="fill: #ff7f0e; stroke: #ff7f0e"/>
     <use xlink:href="#mdb705b9c91" x="273.757658" y="392.320336" style="fill: #ff7f0e; stroke: #ff7f0e"/>
     <use xlink:href="#mdb705b9c91" x="286.64036" y="369.129002" style="fill: #ff7f0e; stroke: #ff7f0e"/>
     <use xlink:href="#mdb705b9c91" x="312.405764" y="392.435345" style="fill: #ff7f0e; stroke: #ff7f0e"/>
     <use xlink:href="#mdb705b9c91" x="325.288466" y="383.909493" style="fill: #ff7f0e; stroke: #ff7f0e"/>
     <use xlink:href="#mdb705b9c91" x="338.171168" y="356.551717" style="fill: #ff7f0e; stroke: #ff7f0e"/>
     <use xlink:href="#mdb705b9c91" x="351.05387" y="366.075572" style="fill: #ff7f0e; stroke: #ff7f0e"/>
     <use xlink:href="#mdb705b9c91" x="363.936572" y="347.160096" style="fill: #ff7f0e; stroke: #ff7f0e"/>
     <use xlink:href="#mdb705b9c91" x="376.819274" y="416.492385" style="fill: #ff7f0e; stroke: #ff7f0e"/>
     <use xlink:href="#mdb705b9c91" x="389.701976" y="357.698279" style="fill: #ff7f0e; stroke: #ff7f0e"/>
     <use xlink:href="#mdb705b9c91" x="402.584678" y="355.472644" style="fill: #ff7f0e; stroke: #ff7f0e"/>
     <use xlink:href="#mdb705b9c91" x="415.46738" y="283.060598" style="fill: #ff7f0e; stroke: #ff7f0e"/>
     <use xlink:href="#mdb705b9c91" x="428.350082" y="280.857852" style="fill: #ff7f0e; stroke: #ff7f0e"/>
     <use xlink:href="#mdb705b9c91" x="454.115486" y="285.847399" style="fill: #ff7f0e; stroke: #ff7f0e"/>
     <use xlink:href="#mdb705b9c91" x="466.998188" y="315.429203" style="fill: #ff7f0e; stroke: #ff7f0e"/>
     <use xlink:href="#mdb705b9c91" x="479.88089" y="311.438977" style="fill: #ff7f0e; stroke: #ff7f0e"/>
     <use xlink:href="#mdb705b9c91" x="492.763592" y="292.456195" style="fill: #ff7f0e; stroke: #ff7f0e"/>
     <use xlink:href="#mdb705b9c91" x="505.646294" y="300.523582" style="fill: #ff7f0e; stroke: #ff7f0e"/>
     <use xlink:href="#mdb705b9c91" x="518.528996" y="329.56272" style="fill: #ff7f0e; stroke: #ff7f0e"/>
     <use xlink:href="#mdb705b9c91" x="531.411698" y="286.473185" style="fill: #ff7f0e; stroke: #ff7f0e"/>
     <use xlink:href="#mdb705b9c91" x="544.2944" y="290.665846" style="fill: #ff7f0e; stroke: #ff7f0e"/>
     <use xlink:href="#mdb705b9c91" x="570.059804" y="311.788702" style="fill: #ff7f0e; stroke: #ff7f0e"/>
     <use xlink:href="#mdb705b9c91" x="582.942506" y="290.184206" style="fill: #ff7f0e; stroke: #ff7f0e"/>
     <use xlink:href="#mdb705b9c91" x="595.825208" y="297.542278" style="fill: #ff7f0e; stroke: #ff7f0e"/>
     <use xlink:href="#mdb705b9c91" x="608.70791" y="355.164497" style="fill: #ff7f0e; stroke: #ff7f0e"/>
     <use xlink:href="#mdb705b9c91" x="621.590612" y="284.183768" style="fill: #ff7f0e; stroke: #ff7f0e"/>
     <use xlink:href="#mdb705b9c91" x="647.356016" y="285.052796" style="fill: #ff7f0e; stroke: #ff7f0e"/>
     <use xlink:href="#mdb705b9c91" x="660.238718" y="368.614459" style="fill: #ff7f0e; stroke: #ff7f0e"/>
     <use xlink:href="#mdb705b9c91" x="673.12142" y="272.433412" style="fill: #ff7f0e; stroke: #ff7f0e"/>
    </g>
   </g>
   <g id="line2d_17">
    <path d="M 93.39983 254.767733 
L 106.282532 132.656511 
L 119.165234 98.14688 
L 132.047936 82.983229 
L 144.930638 241.233453 
L 157.81334 78.790537 
L 170.696042 134.218619 
L 183.578744 88.635223 
L 196.461446 214.070158 
L 209.344148 260.679242 
L 222.22685 77.265959 
L 235.109552 130.314775 
L 247.992254 198.651149 
L 260.874956 113.623712 
L 273.757658 278.934244 
L 286.64036 85.800329 
L 312.405764 103.043758 
L 325.288466 203.268464 
L 338.171168 121.369494 
L 351.05387 216.657458 
L 363.936572 243.725307 
L 376.819274 85.065414 
L 389.701976 248.625811 
L 402.584678 85.833481 
L 415.46738 126.852396 
L 428.350082 131.664814 
L 454.115486 130.867997 
L 466.998188 263.990114 
L 479.88089 242.773676 
L 492.763592 102.811199 
L 505.646294 260.972252 
L 518.528996 65.683482 
L 531.411698 271.047815 
L 544.2944 266.450316 
L 570.059804 90.07552 
L 582.942506 82.474484 
L 595.825208 99.143302 
L 608.70791 90.120523 
L 621.590612 243.493749 
L 647.356016 269.589214 
L 660.238718 299.550417 
L 673.12142 253.992322 
" clip-path="url(#pc72d3246c1)" style="fill: none; stroke: #2ca02c; stroke-width: 2; stroke-linecap: square"/>
    <defs>
     <path id="mb10805288a" d="M 0 3 
C 0.795609 3 1.55874 2.683901 2.12132 2.12132 
C 2.683901 1.55874 3 0.795609 3 0 
C 3 -0.795609 2.683901 -1.55874 2.12132 -2.12132 
C 1.55874 -2.683901 0.795609 -3 0 -3 
C -0.795609 -3 -1.55874 -2.683901 -2.12132 -2.12132 
C -2.683901 -1.55874 -3 -0.795609 -3 0 
C -3 0.795609 -2.683901 1.55874 -2.12132 2.12132 
C -1.55874 2.683901 -0.795609 3 0 3 
z
" style="stroke: #2ca02c"/>
    </defs>
    <g clip-path="url(#pc72d3246c1)">
     <use xlink:href="#mb10805288a" x="93.39983" y="254.767733" style="fill: #2ca02c; stroke: #2ca02c"/>
     <use xlink:href="#mb10805288a" x="106.282532" y="132.656511" style="fill: #2ca02c; stroke: #2ca02c"/>
     <use xlink:href="#mb10805288a" x="119.165234" y="98.14688" style="fill: #2ca02c; stroke: #2ca02c"/>
     <use xlink:href="#mb10805288a" x="132.047936" y="82.983229" style="fill: #2ca02c; stroke: #2ca02c"/>
     <use xlink:href="#mb10805288a" x="144.930638" y="241.233453" style="fill: #2ca02c; stroke: #2ca02c"/>
     <use xlink:href="#mb10805288a" x="157.81334" y="78.790537" style="fill: #2ca02c; stroke: #2ca02c"/>
     <use xlink:href="#mb10805288a" x="170.696042" y="134.218619" style="fill: #2ca02c; stroke: #2ca02c"/>
     <use xlink:href="#mb10805288a" x="183.578744" y="88.635223" style="fill: #2ca02c; stroke: #2ca02c"/>
     <use xlink:href="#mb10805288a" x="196.461446" y="214.070158" style="fill: #2ca02c; stroke: #2ca02c"/>
     <use xlink:href="#mb10805288a" x="209.344148" y="260.679242" style="fill: #2ca02c; stroke: #2ca02c"/>
     <use xlink:href="#mb10805288a" x="222.22685" y="77.265959" style="fill: #2ca02c; stroke: #2ca02c"/>
     <use xlink:href="#mb10805288a" x="235.109552" y="130.314775" style="fill: #2ca02c; stroke: #2ca02c"/>
     <use xlink:href="#mb10805288a" x="247.992254" y="198.651149" style="fill: #2ca02c; stroke: #2ca02c"/>
     <use xlink:href="#mb10805288a" x="260.874956" y="113.623712" style="fill: #2ca02c; stroke: #2ca02c"/>
     <use xlink:href="#mb10805288a" x="273.757658" y="278.934244" style="fill: #2ca02c; stroke: #2ca02c"/>
     <use xlink:href="#mb10805288a" x="286.64036" y="85.800329" style="fill: #2ca02c; stroke: #2ca02c"/>
     <use xlink:href="#mb10805288a" x="312.405764" y="103.043758" style="fill: #2ca02c; stroke: #2ca02c"/>
     <use xlink:href="#mb10805288a" x="325.288466" y="203.268464" style="fill: #2ca02c; stroke: #2ca02c"/>
     <use xlink:href="#mb10805288a" x="338.171168" y="121.369494" style="fill: #2ca02c; stroke: #2ca02c"/>
     <use xlink:href="#mb10805288a" x="351.05387" y="216.657458" style="fill: #2ca02c; stroke: #2ca02c"/>
     <use xlink:href="#mb10805288a" x="363.936572" y="243.725307" style="fill: #2ca02c; stroke: #2ca02c"/>
     <use xlink:href="#mb10805288a" x="376.819274" y="85.065414" style="fill: #2ca02c; stroke: #2ca02c"/>
     <use xlink:href="#mb10805288a" x="389.701976" y="248.625811" style="fill: #2ca02c; stroke: #2ca02c"/>
     <use xlink:href="#mb10805288a" x="402.584678" y="85.833481" style="fill: #2ca02c; stroke: #2ca02c"/>
     <use xlink:href="#mb10805288a" x="415.46738" y="126.852396" style="fill: #2ca02c; stroke: #2ca02c"/>
     <use xlink:href="#mb10805288a" x="428.350082" y="131.664814" style="fill: #2ca02c; stroke: #2ca02c"/>
     <use xlink:href="#mb10805288a" x="454.115486" y="130.867997" style="fill: #2ca02c; stroke: #2ca02c"/>
     <use xlink:href="#mb10805288a" x="466.998188" y="263.990114" style="fill: #2ca02c; stroke: #2ca02c"/>
     <use xlink:href="#mb10805288a" x="479.88089" y="242.773676" style="fill: #2ca02c; stroke: #2ca02c"/>
     <use xlink:href="#mb10805288a" x="492.763592" y="102.811199" style="fill: #2ca02c; stroke: #2ca02c"/>
     <use xlink:href="#mb10805288a" x="505.646294" y="260.972252" style="fill: #2ca02c; stroke: #2ca02c"/>
     <use xlink:href="#mb10805288a" x="518.528996" y="65.683482" style="fill: #2ca02c; stroke: #2ca02c"/>
     <use xlink:href="#mb10805288a" x="531.411698" y="271.047815" style="fill: #2ca02c; stroke: #2ca02c"/>
     <use xlink:href="#mb10805288a" x="544.2944" y="266.450316" style="fill: #2ca02c; stroke: #2ca02c"/>
     <use xlink:href="#mb10805288a" x="570.059804" y="90.07552" style="fill: #2ca02c; stroke: #2ca02c"/>
     <use xlink:href="#mb10805288a" x="582.942506" y="82.474484" style="fill: #2ca02c; stroke: #2ca02c"/>
     <use xlink:href="#mb10805288a" x="595.825208" y="99.143302" style="fill: #2ca02c; stroke: #2ca02c"/>
     <use xlink:href="#mb10805288a" x="608.70791" y="90.120523" style="fill: #2ca02c; stroke: #2ca02c"/>
     <use xlink:href="#mb10805288a" x="621.590612" y="243.493749" style="fill: #2ca02c; stroke: #2ca02c"/>
     <use xlink:href="#mb10805288a" x="647.356016" y="269.589214" style="fill: #2ca02c; stroke: #2ca02c"/>
     <use xlink:href="#mb10805288a" x="660.238718" y="299.550417" style="fill: #2ca02c; stroke: #2ca02c"/>
     <use xlink:href="#mb10805288a" x="673.12142" y="253.992322" style="fill: #2ca02c; stroke: #2ca02c"/>
    </g>
   </g>
   <g id="line2d_18">
    <path d="M 93.39983 310.260224 
L 106.282532 294.876762 
L 119.165234 123.19822 
L 132.047936 289.307978 
L 144.930638 308.404304 
L 157.81334 296.991181 
L 170.696042 333.294593 
L 183.578744 139.951187 
L 196.461446 68.099962 
L 209.344148 284.452286 
L 222.22685 282.572891 
L 235.109552 297.751991 
L 247.992254 313.989543 
L 273.757658 344.782093 
L 286.64036 299.15896 
L 312.405764 315.679116 
L 325.288466 209.58329 
L 338.171168 119.196297 
L 351.05387 208.351416 
L 363.936572 314.174712 
L 389.701976 287.302753 
L 402.584678 280.868768 
L 415.46738 293.048879 
L 428.350082 95.47335 
L 454.115486 275.366954 
L 466.998188 299.174834 
L 479.88089 283.608125 
L 492.763592 253.957429 
L 505.646294 365.414929 
L 518.528996 290.336242 
L 531.411698 308.219176 
L 544.2944 295.601053 
L 570.059804 340.961556 
L 582.942506 297.726738 
L 595.825208 314.357653 
L 621.590612 298.354939 
L 660.238718 299.320512 
L 673.12142 283.203034 
" clip-path="url(#pc72d3246c1)" style="fill: none; stroke: #d62728; stroke-width: 2; stroke-linecap: square"/>
    <defs>
     <path id="m4040d2e7fa" d="M 0 3 
C 0.795609 3 1.55874 2.683901 2.12132 2.12132 
C 2.683901 1.55874 3 0.795609 3 0 
C 3 -0.795609 2.683901 -1.55874 2.12132 -2.12132 
C 1.55874 -2.683901 0.795609 -3 0 -3 
C -0.795609 -3 -1.55874 -2.683901 -2.12132 -2.12132 
C -2.683901 -1.55874 -3 -0.795609 -3 0 
C -3 0.795609 -2.683901 1.55874 -2.12132 2.12132 
C -1.55874 2.683901 -0.795609 3 0 3 
z
" style="stroke: #d62728"/>
    </defs>
    <g clip-path="url(#pc72d3246c1)">
     <use xlink:href="#m4040d2e7fa" x="93.39983" y="310.260224" style="fill: #d62728; stroke: #d62728"/>
     <use xlink:href="#m4040d2e7fa" x="106.282532" y="294.876762" style="fill: #d62728; stroke: #d62728"/>
     <use xlink:href="#m4040d2e7fa" x="119.165234" y="123.19822" style="fill: #d62728; stroke: #d62728"/>
     <use xlink:href="#m4040d2e7fa" x="132.047936" y="289.307978" style="fill: #d62728; stroke: #d62728"/>
     <use xlink:href="#m4040d2e7fa" x="144.930638" y="308.404304" style="fill: #d62728; stroke: #d62728"/>
     <use xlink:href="#m4040d2e7fa" x="157.81334" y="296.991181" style="fill: #d62728; stroke: #d62728"/>
     <use xlink:href="#m4040d2e7fa" x="170.696042" y="333.294593" style="fill: #d62728; stroke: #d62728"/>
     <use xlink:href="#m4040d2e7fa" x="183.578744" y="139.951187" style="fill: #d62728; stroke: #d62728"/>
     <use xlink:href="#m4040d2e7fa" x="196.461446" y="68.099962" style="fill: #d62728; stroke: #d62728"/>
     <use xlink:href="#m4040d2e7fa" x="209.344148" y="284.452286" style="fill: #d62728; stroke: #d62728"/>
     <use xlink:href="#m4040d2e7fa" x="222.22685" y="282.572891" style="fill: #d62728; stroke: #d62728"/>
     <use xlink:href="#m4040d2e7fa" x="235.109552" y="297.751991" style="fill: #d62728; stroke: #d62728"/>
     <use xlink:href="#m4040d2e7fa" x="247.992254" y="313.989543" style="fill: #d62728; stroke: #d62728"/>
     <use xlink:href="#m4040d2e7fa" x="273.757658" y="344.782093" style="fill: #d62728; stroke: #d62728"/>
     <use xlink:href="#m4040d2e7fa" x="286.64036" y="299.15896" style="fill: #d62728; stroke: #d62728"/>
     <use xlink:href="#m4040d2e7fa" x="312.405764" y="315.679116" style="fill: #d62728; stroke: #d62728"/>
     <use xlink:href="#m4040d2e7fa" x="325.288466" y="209.58329" style="fill: #d62728; stroke: #d62728"/>
     <use xlink:href="#m4040d2e7fa" x="338.171168" y="119.196297" style="fill: #d62728; stroke: #d62728"/>
     <use xlink:href="#m4040d2e7fa" x="351.05387" y="208.351416" style="fill: #d62728; stroke: #d62728"/>
     <use xlink:href="#m4040d2e7fa" x="363.936572" y="314.174712" style="fill: #d62728; stroke: #d62728"/>
     <use xlink:href="#m4040d2e7fa" x="389.701976" y="287.302753" style="fill: #d62728; stroke: #d62728"/>
     <use xlink:href="#m4040d2e7fa" x="402.584678" y="280.868768" style="fill: #d62728; stroke: #d62728"/>
     <use xlink:href="#m4040d2e7fa" x="415.46738" y="293.048879" style="fill: #d62728; stroke: #d62728"/>
     <use xlink:href="#m4040d2e7fa" x="428.350082" y="95.47335" style="fill: #d62728; stroke: #d62728"/>
     <use xlink:href="#m4040d2e7fa" x="454.115486" y="275.366954" style="fill: #d62728; stroke: #d62728"/>
     <use xlink:href="#m4040d2e7fa" x="466.998188" y="299.174834" style="fill: #d62728; stroke: #d62728"/>
     <use xlink:href="#m4040d2e7fa" x="479.88089" y="283.608125" style="fill: #d62728; stroke: #d62728"/>
     <use xlink:href="#m4040d2e7fa" x="492.763592" y="253.957429" style="fill: #d62728; stroke: #d62728"/>
     <use xlink:href="#m4040d2e7fa" x="505.646294" y="365.414929" style="fill: #d62728; stroke: #d62728"/>
     <use xlink:href="#m4040d2e7fa" x="518.528996" y="290.336242" style="fill: #d62728; stroke: #d62728"/>
     <use xlink:href="#m4040d2e7fa" x="531.411698" y="308.219176" style="fill: #d62728; stroke: #d62728"/>
     <use xlink:href="#m4040d2e7fa" x="544.2944" y="295.601053" style="fill: #d62728; stroke: #d62728"/>
     <use xlink:href="#m4040d2e7fa" x="570.059804" y="340.961556" style="fill: #d62728; stroke: #d62728"/>
     <use xlink:href="#m4040d2e7fa" x="582.942506" y="297.726738" style="fill: #d62728; stroke: #d62728"/>
     <use xlink:href="#m4040d2e7fa" x="595.825208" y="314.357653" style="fill: #d62728; stroke: #d62728"/>
     <use xlink:href="#m4040d2e7fa" x="621.590612" y="298.354939" style="fill: #d62728; stroke: #d62728"/>
     <use xlink:href="#m4040d2e7fa" x="660.238718" y="299.320512" style="fill: #d62728; stroke: #d62728"/>
     <use xlink:href="#m4040d2e7fa" x="673.12142" y="283.203034" style="fill: #d62728; stroke: #d62728"/>
    </g>
   </g>
   <g id="line2d_19">
    <path d="M 93.39983 378.020441 
L 106.282532 387.49828 
L 119.165234 366.707045 
L 132.047936 382.829761 
L 144.930638 353.637115 
L 157.81334 377.31839 
L 170.696042 393.485935 
L 183.578744 370.137169 
L 196.461446 367.08788 
L 209.344148 376.931918 
L 222.22685 352.751507 
L 235.109552 354.62548 
L 247.992254 372.692408 
L 273.757658 416.908632 
L 286.64036 365.825061 
L 312.405764 391.281764 
L 325.288466 506.332202 
L 338.171168 318.257917 
L 351.05387 355.746784 
L 363.936572 397.107357 
L 389.701976 323.231267 
L 402.584678 365.328759 
L 415.46738 300.787158 
L 428.350082 302.320282 
L 454.115486 271.63902 
L 466.998188 299.342243 
L 479.88089 284.721519 
L 492.763592 252.16617 
L 505.646294 307.532376 
L 518.528996 293.369979 
L 531.411698 312.97571 
L 544.2944 297.027747 
L 570.059804 342.485411 
L 582.942506 302.627151 
L 595.825208 317.404267 
L 621.590612 296.643135 
L 660.238718 301.781224 
L 673.12142 284.050227 
" clip-path="url(#pc72d3246c1)" style="fill: none; stroke: #9467bd; stroke-width: 2; stroke-linecap: square"/>
    <defs>
     <path id="m4b39ef8f5a" d="M 0 3 
C 0.795609 3 1.55874 2.683901 2.12132 2.12132 
C 2.683901 1.55874 3 0.795609 3 0 
C 3 -0.795609 2.683901 -1.55874 2.12132 -2.12132 
C 1.55874 -2.683901 0.795609 -3 0 -3 
C -0.795609 -3 -1.55874 -2.683901 -2.12132 -2.12132 
C -2.683901 -1.55874 -3 -0.795609 -3 0 
C -3 0.795609 -2.683901 1.55874 -2.12132 2.12132 
C -1.55874 2.683901 -0.795609 3 0 3 
z
" style="stroke: #9467bd"/>
    </defs>
    <g clip-path="url(#pc72d3246c1)">
     <use xlink:href="#m4b39ef8f5a" x="93.39983" y="378.020441" style="fill: #9467bd; stroke: #9467bd"/>
     <use xlink:href="#m4b39ef8f5a" x="106.282532" y="387.49828" style="fill: #9467bd; stroke: #9467bd"/>
     <use xlink:href="#m4b39ef8f5a" x="119.165234" y="366.707045" style="fill: #9467bd; stroke: #9467bd"/>
     <use xlink:href="#m4b39ef8f5a" x="132.047936" y="382.829761" style="fill: #9467bd; stroke: #9467bd"/>
     <use xlink:href="#m4b39ef8f5a" x="144.930638" y="353.637115" style="fill: #9467bd; stroke: #9467bd"/>
     <use xlink:href="#m4b39ef8f5a" x="157.81334" y="377.31839" style="fill: #9467bd; stroke: #9467bd"/>
     <use xlink:href="#m4b39ef8f5a" x="170.696042" y="393.485935" style="fill: #9467bd; stroke: #9467bd"/>
     <use xlink:href="#m4b39ef8f5a" x="183.578744" y="370.137169" style="fill: #9467bd; stroke: #9467bd"/>
     <use xlink:href="#m4b39ef8f5a" x="196.461446" y="367.08788" style="fill: #9467bd; stroke: #9467bd"/>
     <use xlink:href="#m4b39ef8f5a" x="209.344148" y="376.931918" style="fill: #9467bd; stroke: #9467bd"/>
     <use xlink:href="#m4b39ef8f5a" x="222.22685" y="352.751507" style="fill: #9467bd; stroke: #9467bd"/>
     <use xlink:href="#m4b39ef8f5a" x="235.109552" y="354.62548" style="fill: #9467bd; stroke: #9467bd"/>
     <use xlink:href="#m4b39ef8f5a" x="247.992254" y="372.692408" style="fill: #9467bd; stroke: #9467bd"/>
     <use xlink:href="#m4b39ef8f5a" x="273.757658" y="416.908632" style="fill: #9467bd; stroke: #9467bd"/>
     <use xlink:href="#m4b39ef8f5a" x="286.64036" y="365.825061" style="fill: #9467bd; stroke: #9467bd"/>
     <use xlink:href="#m4b39ef8f5a" x="312.405764" y="391.281764" style="fill: #9467bd; stroke: #9467bd"/>
     <use xlink:href="#m4b39ef8f5a" x="325.288466" y="506.332202" style="fill: #9467bd; stroke: #9467bd"/>
     <use xlink:href="#m4b39ef8f5a" x="338.171168" y="318.257917" style="fill: #9467bd; stroke: #9467bd"/>
     <use xlink:href="#m4b39ef8f5a" x="351.05387" y="355.746784" style="fill: #9467bd; stroke: #9467bd"/>
     <use xlink:href="#m4b39ef8f5a" x="363.936572" y="397.107357" style="fill: #9467bd; stroke: #9467bd"/>
     <use xlink:href="#m4b39ef8f5a" x="389.701976" y="323.231267" style="fill: #9467bd; stroke: #9467bd"/>
     <use xlink:href="#m4b39ef8f5a" x="402.584678" y="365.328759" style="fill: #9467bd; stroke: #9467bd"/>
     <use xlink:href="#m4b39ef8f5a" x="415.46738" y="300.787158" style="fill: #9467bd; stroke: #9467bd"/>
     <use xlink:href="#m4b39ef8f5a" x="428.350082" y="302.320282" style="fill: #9467bd; stroke: #9467bd"/>
     <use xlink:href="#m4b39ef8f5a" x="454.115486" y="271.63902" style="fill: #9467bd; stroke: #9467bd"/>
     <use xlink:href="#m4b39ef8f5a" x="466.998188" y="299.342243" style="fill: #9467bd; stroke: #9467bd"/>
     <use xlink:href="#m4b39ef8f5a" x="479.88089" y="284.721519" style="fill: #9467bd; stroke: #9467bd"/>
     <use xlink:href="#m4b39ef8f5a" x="492.763592" y="252.16617" style="fill: #9467bd; stroke: #9467bd"/>
     <use xlink:href="#m4b39ef8f5a" x="505.646294" y="307.532376" style="fill: #9467bd; stroke: #9467bd"/>
     <use xlink:href="#m4b39ef8f5a" x="518.528996" y="293.369979" style="fill: #9467bd; stroke: #9467bd"/>
     <use xlink:href="#m4b39ef8f5a" x="531.411698" y="312.97571" style="fill: #9467bd; stroke: #9467bd"/>
     <use xlink:href="#m4b39ef8f5a" x="544.2944" y="297.027747" style="fill: #9467bd; stroke: #9467bd"/>
     <use xlink:href="#m4b39ef8f5a" x="570.059804" y="342.485411" style="fill: #9467bd; stroke: #9467bd"/>
     <use xlink:href="#m4b39ef8f5a" x="582.942506" y="302.627151" style="fill: #9467bd; stroke: #9467bd"/>
     <use xlink:href="#m4b39ef8f5a" x="595.825208" y="317.404267" style="fill: #9467bd; stroke: #9467bd"/>
     <use xlink:href="#m4b39ef8f5a" x="621.590612" y="296.643135" style="fill: #9467bd; stroke: #9467bd"/>
     <use xlink:href="#m4b39ef8f5a" x="660.238718" y="301.781224" style="fill: #9467bd; stroke: #9467bd"/>
     <use xlink:href="#m4b39ef8f5a" x="673.12142" y="284.050227" style="fill: #9467bd; stroke: #9467bd"/>
    </g>
   </g>
   <g id="line2d_20">
    <path d="M 93.39983 275.591871 
L 106.282532 98.330696 
L 119.165234 277.791612 
L 132.047936 258.493153 
L 144.930638 216.64586 
L 157.81334 267.824976 
L 170.696042 251.633274 
L 183.578744 208.634284 
L 196.461446 243.897663 
L 209.344148 81.897432 
L 222.22685 278.911985 
L 235.109552 106.521798 
L 247.992254 125.755899 
L 273.757658 268.410226 
L 286.64036 251.292181 
L 312.405764 231.39453 
L 325.288466 276.888089 
L 338.171168 75.53199 
L 351.05387 89.305242 
L 363.936572 122.915745 
L 389.701976 93.070198 
L 402.584678 91.43413 
L 415.46738 261.965133 
L 428.350082 110.472353 
L 454.115486 93.915098 
L 466.998188 221.619144 
L 479.88089 248.557432 
L 492.763592 112.83213 
L 505.646294 288.28366 
L 518.528996 270.4611 
L 531.411698 117.798217 
L 544.2944 265.540293 
L 570.059804 367.030962 
L 582.942506 268.656913 
L 595.825208 279.367471 
L 621.590612 105.674263 
L 660.238718 264.308012 
L 673.12142 253.677639 
" clip-path="url(#pc72d3246c1)" style="fill: none; stroke: #8c564b; stroke-width: 2; stroke-linecap: square"/>
    <defs>
     <path id="m636223f743" d="M 0 3 
C 0.795609 3 1.55874 2.683901 2.12132 2.12132 
C 2.683901 1.55874 3 0.795609 3 0 
C 3 -0.795609 2.683901 -1.55874 2.12132 -2.12132 
C 1.55874 -2.683901 0.795609 -3 0 -3 
C -0.795609 -3 -1.55874 -2.683901 -2.12132 -2.12132 
C -2.683901 -1.55874 -3 -0.795609 -3 0 
C -3 0.795609 -2.683901 1.55874 -2.12132 2.12132 
C -1.55874 2.683901 -0.795609 3 0 3 
z
" style="stroke: #8c564b"/>
    </defs>
    <g clip-path="url(#pc72d3246c1)">
     <use xlink:href="#m636223f743" x="93.39983" y="275.591871" style="fill: #8c564b; stroke: #8c564b"/>
     <use xlink:href="#m636223f743" x="106.282532" y="98.330696" style="fill: #8c564b; stroke: #8c564b"/>
     <use xlink:href="#m636223f743" x="119.165234" y="277.791612" style="fill: #8c564b; stroke: #8c564b"/>
     <use xlink:href="#m636223f743" x="132.047936" y="258.493153" style="fill: #8c564b; stroke: #8c564b"/>
     <use xlink:href="#m636223f743" x="144.930638" y="216.64586" style="fill: #8c564b; stroke: #8c564b"/>
     <use xlink:href="#m636223f743" x="157.81334" y="267.824976" style="fill: #8c564b; stroke: #8c564b"/>
     <use xlink:href="#m636223f743" x="170.696042" y="251.633274" style="fill: #8c564b; stroke: #8c564b"/>
     <use xlink:href="#m636223f743" x="183.578744" y="208.634284" style="fill: #8c564b; stroke: #8c564b"/>
     <use xlink:href="#m636223f743" x="196.461446" y="243.897663" style="fill: #8c564b; stroke: #8c564b"/>
     <use xlink:href="#m636223f743" x="209.344148" y="81.897432" style="fill: #8c564b; stroke: #8c564b"/>
     <use xlink:href="#m636223f743" x="222.22685" y="278.911985" style="fill: #8c564b; stroke: #8c564b"/>
     <use xlink:href="#m636223f743" x="235.109552" y="106.521798" style="fill: #8c564b; stroke: #8c564b"/>
     <use xlink:href="#m636223f743" x="247.992254" y="125.755899" style="fill: #8c564b; stroke: #8c564b"/>
     <use xlink:href="#m636223f743" x="273.757658" y="268.410226" style="fill: #8c564b; stroke: #8c564b"/>
     <use xlink:href="#m636223f743" x="286.64036" y="251.292181" style="fill: #8c564b; stroke: #8c564b"/>
     <use xlink:href="#m636223f743" x="312.405764" y="231.39453" style="fill: #8c564b; stroke: #8c564b"/>
     <use xlink:href="#m636223f743" x="325.288466" y="276.888089" style="fill: #8c564b; stroke: #8c564b"/>
     <use xlink:href="#m636223f743" x="338.171168" y="75.53199" style="fill: #8c564b; stroke: #8c564b"/>
     <use xlink:href="#m636223f743" x="351.05387" y="89.305242" style="fill: #8c564b; stroke: #8c564b"/>
     <use xlink:href="#m636223f743" x="363.936572" y="122.915745" style="fill: #8c564b; stroke: #8c564b"/>
     <use xlink:href="#m636223f743" x="389.701976" y="93.070198" style="fill: #8c564b; stroke: #8c564b"/>
     <use xlink:href="#m636223f743" x="402.584678" y="91.43413" style="fill: #8c564b; stroke: #8c564b"/>
     <use xlink:href="#m636223f743" x="415.46738" y="261.965133" style="fill: #8c564b; stroke: #8c564b"/>
     <use xlink:href="#m636223f743" x="428.350082" y="110.472353" style="fill: #8c564b; stroke: #8c564b"/>
     <use xlink:href="#m636223f743" x="454.115486" y="93.915098" style="fill: #8c564b; stroke: #8c564b"/>
     <use xlink:href="#m636223f743" x="466.998188" y="221.619144" style="fill: #8c564b; stroke: #8c564b"/>
     <use xlink:href="#m636223f743" x="479.88089" y="248.557432" style="fill: #8c564b; stroke: #8c564b"/>
     <use xlink:href="#m636223f743" x="492.763592" y="112.83213" style="fill: #8c564b; stroke: #8c564b"/>
     <use xlink:href="#m636223f743" x="505.646294" y="288.28366" style="fill: #8c564b; stroke: #8c564b"/>
     <use xlink:href="#m636223f743" x="518.528996" y="270.4611" style="fill: #8c564b; stroke: #8c564b"/>
     <use xlink:href="#m636223f743" x="531.411698" y="117.798217" style="fill: #8c564b; stroke: #8c564b"/>
     <use xlink:href="#m636223f743" x="544.2944" y="265.540293" style="fill: #8c564b; stroke: #8c564b"/>
     <use xlink:href="#m636223f743" x="570.059804" y="367.030962" style="fill: #8c564b; stroke: #8c564b"/>
     <use xlink:href="#m636223f743" x="582.942506" y="268.656913" style="fill: #8c564b; stroke: #8c564b"/>
     <use xlink:href="#m636223f743" x="595.825208" y="279.367471" style="fill: #8c564b; stroke: #8c564b"/>
     <use xlink:href="#m636223f743" x="621.590612" y="105.674263" style="fill: #8c564b; stroke: #8c564b"/>
     <use xlink:href="#m636223f743" x="660.238718" y="264.308012" style="fill: #8c564b; stroke: #8c564b"/>
     <use xlink:href="#m636223f743" x="673.12142" y="253.677639" style="fill: #8c564b; stroke: #8c564b"/>
    </g>
   </g>
   <g id="patch_3">
    <path d="M 64.41375 529.308125 
L 64.41375 23.837813 
" style="fill: none; stroke: #000000; stroke-width: 0.8; stroke-linejoin: miter; stroke-linecap: square"/>
   </g>
   <g id="patch_4">
    <path d="M 702.1075 529.308125 
L 702.1075 23.837813 
" style="fill: none; stroke: #000000; stroke-width: 0.8; stroke-linejoin: miter; stroke-linecap: square"/>
   </g>
   <g id="patch_5">
    <path d="M 64.41375 529.308125 
L 702.1075 529.308125 
" style="fill: none; stroke: #000000; stroke-width: 0.8; stroke-linejoin: miter; stroke-linecap: square"/>
   </g>
   <g id="patch_6">
    <path d="M 64.41375 23.837812 
L 702.1075 23.837812 
" style="fill: none; stroke: #000000; stroke-width: 0.8; stroke-linejoin: miter; stroke-linecap: square"/>
   </g>
   <g id="text_10">
    <text style="font: 700 14px 'DejaVu Sans', 'Bitstream Vera Sans', 'Computer Modern Sans Serif', 'Lucida Grande', 'Verdana', 'Geneva', 'Lucid', 'Arial', 'Helvetica', 'Avant Garde', sans-serif; text-anchor: middle" x="383.260625" y="17.837813" transform="rotate(-0 383.260625 17.837813)">Tasksubmission - Performance Trend</text>
   </g>
   <g id="legend_1">
    <g id="patch_7">
     <path d="M 740.992188 119.906563 
L 846.004688 119.906563 
Q 848.004688 119.906563 848.004688 117.906563 
L 848.004688 30.837813 
Q 848.004688 28.837813 846.004688 28.837813 
L 740.992188 28.837813 
Q 738.992188 28.837813 738.992188 30.837813 
L 738.992188 117.906563 
Q 738.992188 119.906563 740.992188 119.906563 
z
" style="fill: #ffffff; opacity: 0.8; stroke: #cccccc; stroke-linejoin: miter"/>
    </g>
    <g id="line2d_21">
     <path d="M 742.992188 36.93625 
L 752.992188 36.93625 
L 762.992188 36.93625 
" style="fill: none; stroke: #1f77b4; stroke-width: 2; stroke-linecap: square"/>
     <g>
      <use xlink:href="#m71600e14e9" x="752.992188" y="36.93625" style="fill: #1f77b4; stroke: #1f77b4"/>
     </g>
    </g>
    <g id="text_11">
     <text style="font: 10px 'DejaVu Sans', 'Bitstream Vera Sans', 'Computer Modern Sans Serif', 'Lucida Grande', 'Verdana', 'Geneva', 'Lucid', 'Arial', 'Helvetica', 'Avant Garde', sans-serif; text-anchor: start" x="770.992188" y="40.43625" transform="rotate(-0 770.992188 40.43625)">gcc-14.2 - V1</text>
    </g>
    <g id="line2d_22">
     <path d="M 742.992188 51.614375 
L 752.992188 51.614375 
L 762.992188 51.614375 
" style="fill: none; stroke: #ff7f0e; stroke-width: 2; stroke-linecap: square"/>
     <g>
      <use xlink:href="#mdb705b9c91" x="752.992188" y="51.614375" style="fill: #ff7f0e; stroke: #ff7f0e"/>
     </g>
    </g>
    <g id="text_12">
     <text style="font: 10px 'DejaVu Sans', 'Bitstream Vera Sans', 'Computer Modern Sans Serif', 'Lucida Grande', 'Verdana', 'Geneva', 'Lucid', 'Arial', 'Helvetica', 'Avant Garde', sans-serif; text-anchor: start" x="770.992188" y="55.114375" transform="rotate(-0 770.992188 55.114375)">gcc-14.2 - V2</text>
    </g>
    <g id="line2d_23">
     <path d="M 742.992188 66.2925 
L 752.992188 66.2925 
L 762.992188 66.2925 
" style="fill: none; stroke: #2ca02c; stroke-width: 2; stroke-linecap: square"/>
     <g>
      <use xlink:href="#mb10805288a" x="752.992188" y="66.2925" style="fill: #2ca02c; stroke: #2ca02c"/>
     </g>
    </g>
    <g id="text_13">
     <text style="font: 10px 'DejaVu Sans', 'Bitstream Vera Sans', 'Computer Modern Sans Serif', 'Lucida Grande', 'Verdana', 'Geneva', 'Lucid', 'Arial', 'Helvetica', 'Avant Garde', sans-serif; text-anchor: start" x="770.992188" y="69.7925" transform="rotate(-0 770.992188 69.7925)">gcc-14.2 - TBB</text>
    </g>
    <g id="line2d_24">
     <path d="M 742.992188 80.970625 
L 752.992188 80.970625 
L 762.992188 80.970625 
" style="fill: none; stroke: #d62728; stroke-width: 2; stroke-linecap: square"/>
     <g>
      <use xlink:href="#m4040d2e7fa" x="752.992188" y="80.970625" style="fill: #d62728; stroke: #d62728"/>
     </g>
    </g>
    <g id="text_14">
     <text style="font: 10px 'DejaVu Sans', 'Bitstream Vera Sans', 'Computer Modern Sans Serif', 'Lucida Grande', 'Verdana', 'Geneva', 'Lucid', 'Arial', 'Helvetica', 'Avant Garde', sans-serif; text-anchor: start" x="770.992188" y="84.470625" transform="rotate(-0 770.992188 84.470625)">gcc-4.2 - V1</text>
    </g>
    <g id="line2d_25">
     <path d="M 742.992188 95.64875 
L 752.992188 95.64875 
L 762.992188 95.64875 
" style="fill: none; stroke: #9467bd; stroke-width: 2; stroke-linecap: square"/>
     <g>
      <use xlink:href="#m4b39ef8f5a" x="752.992188" y="95.64875" style="fill: #9467bd; stroke: #9467bd"/>
     </g>
    </g>
    <g id="text_15">
     <text style="font: 10px 'DejaVu Sans', 'Bitstream Vera Sans', 'Computer Modern Sans Serif', 'Lucida Grande', 'Verdana', 'Geneva', 'Lucid', 'Arial', 'Helvetica', 'Avant Garde', sans-serif; text-anchor: start" x="770.992188" y="99.14875" transform="rotate(-0 770.992188 99.14875)">gcc-4.2 - V2</text>
    </g>
    <g id="line2d_26">
     <path d="M 742.992188 110.326875 
L 752.992188 110.326875 
L 762.992188 110.326875 
" style="fill: none; stroke: #8c564b; stroke-width: 2; stroke-linecap: square"/>
     <g>
      <use xlink:href="#m636223f743" x="752.992188" y="110.326875" style="fill: #8c564b; stroke: #8c564b"/>
     </g>
    </g>
    <g id="text_16">
     <text style="font: 10px 'DejaVu Sans', 'Bitstream Vera Sans', 'Computer Modern Sans Serif', 'Lucida Grande', 'Verdana', 'Geneva', 'Lucid', 'Arial', 'Helvetica', 'Avant Garde', sans-serif; text-anchor: start" x="770.992188" y="113.826875" transform="rotate(-0 770.992188 113.826875)">gcc-4.2 - TBB</text>
    </g>
   </g>
  </g>
 </g>
 <defs>
  <clipPath id="pc72d3246c1">
   <rect x="64.41375" y="23.837813" width="637.69375" height="505.470313"/>
  </clipPath>
 </defs>
</svg>
