<?xml version="1.0" encoding="utf-8" standalone="no"?>
<!DOCTYPE svg PUBLIC "-//W3C//DTD SVG 1.1//EN"
  "http://www.w3.org/Graphics/SVG/1.1/DTD/svg11.dtd">
<svg xmlns:xlink="http://www.w3.org/1999/xlink" width="850.820859pt" height="568.8pt" viewBox="0 0 850.820859 568.8" xmlns="http://www.w3.org/2000/svg" version="1.1">
 <metadata>
  <rdf:RDF xmlns:dc="http://purl.org/dc/elements/1.1/" xmlns:cc="http://creativecommons.org/ns#" xmlns:rdf="http://www.w3.org/1999/02/22-rdf-syntax-ns#">
   <cc:Work>
    <dc:type rdf:resource="http://purl.org/dc/dcmitype/StillImage"/>
    <dc:date>2026-06-12T00:15:49.738558</dc:date>
    <dc:format>image/svg+xml</dc:format>
    <dc:creator>
     <cc:Agent>
      <dc:title>Matplotlib v3.9.4, https://matplotlib.org/</dc:title>
     </cc:Agent>
    </dc:creator>
   </cc:Work>
  </rdf:RDF>
 </metadata>
 <defs>
  <style type="text/css">*{stroke-linejoin: round; stroke-linecap: butt}</style>
 </defs>
 <g id="figure_1">
  <g id="patch_1">
   <path d="M 0 568.8 
L 850.820859 568.8 
L 850.820859 0 
L 0 0 
z
" style="fill: #ffffff"/>
  </g>
  <g id="axes_1">
   <g id="patch_2">
    <path d="M 64.41375 529.308125 
L 614.430938 529.308125 
L 614.430938 23.837812 
L 64.41375 23.837812 
z
" style="fill: #ffffff"/>
   </g>
   <g id="matplotlib.axis_1">
    <g id="xtick_1">
     <g id="line2d_1">
      <path d="M 74.262543 529.308125 
L 74.262543 23.837812 
" clip-path="url(#pd70ec76141)" style="fill: none; stroke: #b0b0b0; stroke-opacity: 0.3; stroke-width: 0.8; stroke-linecap: square"/>
     </g>
     <g id="line2d_2">
      <defs>
       <path id="m8882e3c606" d="M 0 0 
L 0 3.5 
" style="stroke: #000000; stroke-width: 0.8"/>
      </defs>
      <g>
       <use xlink:href="#m8882e3c606" x="74.262543" y="529.308125" style="stroke: #000000; stroke-width: 0.8"/>
      </g>
     </g>
     <g id="text_1">
      <text style="font: 10px 'DejaVu Sans', 'Bitstream Vera Sans', 'Computer Modern Sans Serif', 'Lucida Grande', 'Verdana', 'Geneva', 'Lucid', 'Arial', 'Helvetica', 'Avant Garde', sans-serif; text-anchor: middle" x="74.262543" y="543.906563" transform="rotate(-0 74.262543 543.906563)">95</text>
     </g>
    </g>
    <g id="xtick_2">
     <g id="line2d_3">
      <path d="M 150.022486 529.308125 
L 150.022486 23.837812 
" clip-path="url(#pd70ec76141)" style="fill: none; stroke: #b0b0b0; stroke-opacity: 0.3; stroke-width: 0.8; stroke-linecap: square"/>
     </g>
     <g id="line2d_4">
      <g>
       <use xlink:href="#m8882e3c606" x="150.022486" y="529.308125" style="stroke: #000000; stroke-width: 0.8"/>
      </g>
     </g>
     <g id="text_2">
      <text style="font: 10px 'DejaVu Sans', 'Bitstream Vera Sans', 'Computer Modern Sans Serif', 'Lucida Grande', 'Verdana', 'Geneva', 'Lucid', 'Arial', 'Helvetica', 'Avant Garde', sans-serif; text-anchor: middle" x="150.022486" y="543.906563" transform="rotate(-0 150.022486 543.906563)">100</text>
     </g>
    </g>
    <g id="xtick_3">
     <g id="line2d_5">
      <path d="M 225.782429 529.308125 
L 225.782429 23.837812 
" clip-path="url(#pd70ec76141)" style="fill: none; stroke: #b0b0b0; stroke-opacity: 0.3; stroke-width: 0.8; stroke-linecap: square"/>
     </g>
     <g id="line2d_6">
      <g>
       <use xlink:href="#m8882e3c606" x="225.782429" y="529.308125" style="stroke: #000000; stroke-width: 0.8"/>
      </g>
     </g>
     <g id="text_3">
      <text style="font: 10px 'DejaVu Sans', 'Bitstream Vera Sans', 'Computer Modern Sans Serif', 'Lucida Grande', 'Verdana', 'Geneva', 'Lucid', 'Arial', 'Helvetica', 'Avant Garde', sans-serif; text-anchor: middle" x="225.782429" y="543.906563" transform="rotate(-0 225.782429 543.906563)">105</text>
     </g>
    </g>
    <g id="xtick_4">
     <g id="line2d_7">
      <path d="M 301.542372 529.308125 
L 301.542372 23.837812 
" clip-path="url(#pd70ec76141)" style="fill: none; stroke: #b0b0b0; stroke-opacity: 0.3; stroke-width: 0.8; stroke-linecap: square"/>
     </g>
     <g id="line2d_8">
      <g>
       <use xlink:href="#m8882e3c606" x="301.542372" y="529.308125" style="stroke: #000000; stroke-width: 0.8"/>
      </g>
     </g>
     <g id="text_4">
      <text style="font: 10px 'DejaVu Sans', 'Bitstream Vera Sans', 'Computer Modern Sans Serif', 'Lucida Grande', 'Verdana', 'Geneva', 'Lucid', 'Arial', 'Helvetica', 'Avant Garde', sans-serif; text-anchor: middle" x="301.542372" y="543.906563" transform="rotate(-0 301.542372 543.906563)">110</text>
     </g>
    </g>
    <g id="xtick_5">
     <g id="line2d_9">
      <path d="M 377.302315 529.308125 
L 377.302315 23.837812 
" clip-path="url(#pd70ec76141)" style="fill: none; stroke: #b0b0b0; stroke-opacity: 0.3; stroke-width: 0.8; stroke-linecap: square"/>
     </g>
     <g id="line2d_10">
      <g>
       <use xlink:href="#m8882e3c606" x="377.302315" y="529.308125" style="stroke: #000000; stroke-width: 0.8"/>
      </g>
     </g>
     <g id="text_5">
      <text style="font: 10px 'DejaVu Sans', 'Bitstream Vera Sans', 'Computer Modern Sans Serif', 'Lucida Grande', 'Verdana', 'Geneva', 'Lucid', 'Arial', 'Helvetica', 'Avant Garde', sans-serif; text-anchor: middle" x="377.302315" y="543.906563" transform="rotate(-0 377.302315 543.906563)">115</text>
     </g>
    </g>
    <g id="xtick_6">
     <g id="line2d_11">
      <path d="M 453.062259 529.308125 
L 453.062259 23.837812 
" clip-path="url(#pd70ec76141)" style="fill: none; stroke: #b0b0b0; stroke-opacity: 0.3; stroke-width: 0.8; stroke-linecap: square"/>
     </g>
     <g id="line2d_12">
      <g>
       <use xlink:href="#m8882e3c606" x="453.062259" y="529.308125" style="stroke: #000000; stroke-width: 0.8"/>
      </g>
     </g>
     <g id="text_6">
      <text style="font: 10px 'DejaVu Sans', 'Bitstream Vera Sans', 'Computer Modern Sans Serif', 'Lucida Grande', 'Verdana', 'Geneva', 'Lucid', 'Arial', 'Helvetica', 'Avant Garde', sans-serif; text-anchor: middle" x="453.062259" y="543.906563" transform="rotate(-0 453.062259 543.906563)">120</text>
     </g>
    </g>
    <g id="xtick_7">
     <g id="line2d_13">
      <path d="M 528.822202 529.308125 
L 528.822202 23.837812 
" clip-path="url(#pd70ec76141)" style="fill: none; stroke: #b0b0b0; stroke-opacity: 0.3; stroke-width: 0.8; stroke-linecap: square"/>
     </g>
     <g id="line2d_14">
      <g>
       <use xlink:href="#m8882e3c606" x="528.822202" y="529.308125" style="stroke: #000000; stroke-width: 0.8"/>
      </g>
     </g>
     <g id="text_7">
      <text style="font: 10px 'DejaVu Sans', 'Bitstream Vera Sans', 'Computer Modern Sans Serif', 'Lucida Grande', 'Verdana', 'Geneva', 'Lucid', 'Arial', 'Helvetica', 'Avant Garde', sans-serif; text-anchor: middle" x="528.822202" y="543.906563" transform="rotate(-0 528.822202 543.906563)">125</text>
     </g>
    </g>
    <g id="xtick_8">
     <g id="line2d_15">
      <path d="M 604.582145 529.308125 
L 604.582145 23.837812 
" clip-path="url(#pd70ec76141)" style="fill: none; stroke: #b0b0b0; stroke-opacity: 0.3; stroke-width: 0.8; stroke-linecap: square"/>
     </g>
     <g id="line2d_16">
      <g>
       <use xlink:href="#m8882e3c606" x="604.582145" y="529.308125" style="stroke: #000000; stroke-width: 0.8"/>
      </g>
     </g>
     <g id="text_8">
      <text style="font: 10px 'DejaVu Sans', 'Bitstream Vera Sans', 'Computer Modern Sans Serif', 'Lucida Grande', 'Verdana', 'Geneva', 'Lucid', 'Arial', 'Helvetica', 'Avant Garde', sans-serif; text-anchor: middle" x="604.582145" y="543.906563" transform="rotate(-0 604.582145 543.906563)">130</text>
     </g>
    </g>
    <g id="text_9">
     <text style="font: 12px 'DejaVu Sans', 'Bitstream Vera Sans', 'Computer Modern Sans Serif', 'Lucida Grande', 'Verdana', 'Geneva', 'Lucid', 'Arial', 'Helvetica', 'Avant Garde', sans-serif; text-anchor: middle" x="339.422344" y="559.104375" transform="rotate(-0 339.422344 559.104375)">Build Number</text>
    </g>
   </g>
   <g id="matplotlib.axis_2">
    <g id="ytick_1">
     <g id="line2d_17">
      <path d="M 64.41375 120.482891 
L 614.430938 120.482891 
" clip-path="url(#pd70ec76141)" style="fill: none; stroke: #b0b0b0; stroke-opacity: 0.3; stroke-width: 0.8; stroke-linecap: square"/>
     </g>
     <g id="line2d_18">
      <defs>
       <path id="m1049eed2df" d="M 0 0 
L -3.5 0 
" style="stroke: #000000; stroke-width: 0.8"/>
      </defs>
      <g>
       <use xlink:href="#m1049eed2df" x="64.41375" y="120.482891" style="stroke: #000000; stroke-width: 0.8"/>
      </g>
     </g>
     <g id="text_10">
      <!-- $\mathdefault{10^{7}}$ -->
      <g transform="translate(39.81375 124.282109)">
       <text>
        <tspan style="font: 10px 'DejaVu Sans'" x="0 6.362305" y="-0.06406250000000036">10</tspan>
        <tspan style="font: 7px 'DejaVu Sans'" x="12.820312" y="-3.8921875000000004">7</tspan>
       </text>
      </g>
     </g>
    </g>
    <g id="ytick_2">
     <g id="line2d_19">
      <defs>
       <path id="m9093f54f63" d="M 0 0 
L -2 0 
" style="stroke: #000000; stroke-width: 0.6"/>
      </defs>
      <g>
       <use xlink:href="#m9093f54f63" x="64.41375" y="384.168263" style="stroke: #000000; stroke-width: 0.6"/>
      </g>
     </g>
     <g id="text_11">
      <!-- $\mathdefault{8\times10^{6}}$ -->
      <g transform="translate(22.81375 387.967482)">
       <text>
        <tspan style="font: 10px 'DejaVu Sans'" x="0 8.310547 18.637695 25" y="-0.9765625">8×10</tspan>
        <tspan style="font: 7px 'DejaVu Sans'" x="31.458008" y="-4.8046875">6</tspan>
       </text>
      </g>
     </g>
    </g>
    <g id="ytick_3">
     <g id="line2d_20">
      <g>
       <use xlink:href="#m9093f54f63" x="64.41375" y="244.985825" style="stroke: #000000; stroke-width: 0.6"/>
      </g>
     </g>
     <g id="text_12">
      <!-- $\mathdefault{9\times10^{6}}$ -->
      <g transform="translate(22.81375 248.785043)">
       <text>
        <tspan style="font: 10px 'DejaVu Sans'" x="0 8.310547 18.637695 25" y="-0.9765625">9×10</tspan>
        <tspan style="font: 7px 'DejaVu Sans'" x="31.458008" y="-4.8046875">6</tspan>
       </text>
      </g>
     </g>
    </g>
    <g id="text_13">
     <text style="font: 12px 'DejaVu Sans', 'Bitstream Vera Sans', 'Computer Modern Sans Serif', 'Lucida Grande', 'Verdana', 'Geneva', 'Lucid', 'Arial', 'Helvetica', 'Avant Garde', sans-serif; text-anchor: middle" x="16.318125" y="276.572969" transform="rotate(-90 16.318125 276.572969)">Median Elapsed Time (nanoseconds)</text>
    </g>
   </g>
   <g id="line2d_21">
    <path d="M 89.414531 485.31165 
L 104.56652 421.712027 
L 134.870497 499.700729 
L 150.022486 437.546086 
L 165.174474 506.332202 
L 180.326463 492.038211 
L 195.478452 459.193051 
L 210.63044 501.223383 
L 225.782429 456.3057 
L 240.934418 471.808547 
L 271.238395 393.617815 
L 286.390384 388.758841 
L 301.542372 502.87919 
L 316.694361 475.312047 
L 331.846349 489.292835 
L 362.150327 497.229906 
L 377.302315 497.40904 
L 392.454304 501.654333 
L 407.606293 496.160769 
L 422.758281 494.19793 
L 437.91027 488.798681 
L 453.062259 481.891963 
L 468.214247 491.063513 
L 483.366236 455.014648 
L 498.518224 479.086058 
L 513.670213 503.551461 
L 543.97419 335.83908 
L 559.126179 491.885843 
L 574.278168 433.669476 
L 589.430156 330.349397 
" clip-path="url(#pd70ec76141)" style="fill: none; stroke: #1f77b4; stroke-width: 2; stroke-linecap: square"/>
    <defs>
     <path id="m58d7d55721" d="M 0 3 
C 0.795609 3 1.55874 2.683901 2.12132 2.12132 
C 2.683901 1.55874 3 0.795609 3 0 
C 3 -0.795609 2.683901 -1.55874 2.12132 -2.12132 
C 1.55874 -2.683901 0.795609 -3 0 -3 
C -0.795609 -3 -1.55874 -2.683901 -2.12132 -2.12132 
C -2.683901 -1.55874 -3 -0.795609 -3 0 
C -3 0.795609 -2.683901 1.55874 -2.12132 2.12132 
C -1.55874 2.683901 -0.795609 3 0 3 
z
" style="stroke: #1f77b4"/>
    </defs>
    <g clip-path="url(#pd70ec76141)">
     <use xlink:href="#m58d7d55721" x="89.414531" y="485.31165" style="fill: #1f77b4; stroke: #1f77b4"/>
     <use xlink:href="#m58d7d55721" x="104.56652" y="421.712027" style="fill: #1f77b4; stroke: #1f77b4"/>
     <use xlink:href="#m58d7d55721" x="134.870497" y="499.700729" style="fill: #1f77b4; stroke: #1f77b4"/>
     <use xlink:href="#m58d7d55721" x="150.022486" y="437.546086" style="fill: #1f77b4; stroke: #1f77b4"/>
     <use xlink:href="#m58d7d55721" x="165.174474" y="506.332202" style="fill: #1f77b4; stroke: #1f77b4"/>
     <use xlink:href="#m58d7d55721" x="180.326463" y="492.038211" style="fill: #1f77b4; stroke: #1f77b4"/>
     <use xlink:href="#m58d7d55721" x="195.478452" y="459.193051" style="fill: #1f77b4; stroke: #1f77b4"/>
     <use xlink:href="#m58d7d55721" x="210.63044" y="501.223383" style="fill: #1f77b4; stroke: #1f77b4"/>
     <use xlink:href="#m58d7d55721" x="225.782429" y="456.3057" style="fill: #1f77b4; stroke: #1f77b4"/>
     <use xlink:href="#m58d7d55721" x="240.934418" y="471.808547" style="fill: #1f77b4; stroke: #1f77b4"/>
     <use xlink:href="#m58d7d55721" x="271.238395" y="393.617815" style="fill: #1f77b4; stroke: #1f77b4"/>
     <use xlink:href="#m58d7d55721" x="286.390384" y="388.758841" style="fill: #1f77b4; stroke: #1f77b4"/>
     <use xlink:href="#m58d7d55721" x="301.542372" y="502.87919" style="fill: #1f77b4; stroke: #1f77b4"/>
     <use xlink:href="#m58d7d55721" x="316.694361" y="475.312047" style="fill: #1f77b4; stroke: #1f77b4"/>
     <use xlink:href="#m58d7d55721" x="331.846349" y="489.292835" style="fill: #1f77b4; stroke: #1f77b4"/>
     <use xlink:href="#m58d7d55721" x="362.150327" y="497.229906" style="fill: #1f77b4; stroke: #1f77b4"/>
     <use xlink:href="#m58d7d55721" x="377.302315" y="497.40904" style="fill: #1f77b4; stroke: #1f77b4"/>
     <use xlink:href="#m58d7d55721" x="392.454304" y="501.654333" style="fill: #1f77b4; stroke: #1f77b4"/>
     <use xlink:href="#m58d7d55721" x="407.606293" y="496.160769" style="fill: #1f77b4; stroke: #1f77b4"/>
     <use xlink:href="#m58d7d55721" x="422.758281" y="494.19793" style="fill: #1f77b4; stroke: #1f77b4"/>
     <use xlink:href="#m58d7d55721" x="437.91027" y="488.798681" style="fill: #1f77b4; stroke: #1f77b4"/>
     <use xlink:href="#m58d7d55721" x="453.062259" y="481.891963" style="fill: #1f77b4; stroke: #1f77b4"/>
     <use xlink:href="#m58d7d55721" x="468.214247" y="491.063513" style="fill: #1f77b4; stroke: #1f77b4"/>
     <use xlink:href="#m58d7d55721" x="483.366236" y="455.014648" style="fill: #1f77b4; stroke: #1f77b4"/>
     <use xlink:href="#m58d7d55721" x="498.518224" y="479.086058" style="fill: #1f77b4; stroke: #1f77b4"/>
     <use xlink:href="#m58d7d55721" x="513.670213" y="503.551461" style="fill: #1f77b4; stroke: #1f77b4"/>
     <use xlink:href="#m58d7d55721" x="543.97419" y="335.83908" style="fill: #1f77b4; stroke: #1f77b4"/>
     <use xlink:href="#m58d7d55721" x="559.126179" y="491.885843" style="fill: #1f77b4; stroke: #1f77b4"/>
     <use xlink:href="#m58d7d55721" x="574.278168" y="433.669476" style="fill: #1f77b4; stroke: #1f77b4"/>
     <use xlink:href="#m58d7d55721" x="589.430156" y="330.349397" style="fill: #1f77b4; stroke: #1f77b4"/>
    </g>
   </g>
   <g id="line2d_22">
    <path d="M 89.414531 482.386671 
L 104.56652 422.99472 
L 134.870497 497.907524 
L 150.022486 455.83312 
L 165.174474 503.769867 
L 180.326463 496.189757 
L 195.478452 459.882507 
L 210.63044 493.012062 
L 225.782429 444.525156 
L 240.934418 482.315534 
L 271.238395 388.336689 
L 286.390384 401.252288 
L 301.542372 494.398382 
L 316.694361 447.037787 
L 331.846349 483.224025 
L 362.150327 502.354509 
L 377.302315 496.703551 
L 392.454304 502.741012 
L 407.606293 492.137076 
L 422.758281 494.361039 
L 437.91027 480.928095 
L 453.062259 475.265985 
L 468.214247 490.648546 
L 483.366236 477.366421 
L 498.518224 482.702362 
L 513.670213 497.225094 
L 543.97419 343.732692 
L 559.126179 497.445846 
L 574.278168 447.812372 
L 589.430156 370.752816 
" clip-path="url(#pd70ec76141)" style="fill: none; stroke: #ff7f0e; stroke-width: 2; stroke-linecap: square"/>
    <defs>
     <path id="m4180fefb7f" d="M 0 3 
C 0.795609 3 1.55874 2.683901 2.12132 2.12132 
C 2.683901 1.55874 3 0.795609 3 0 
C 3 -0.795609 2.683901 -1.55874 2.12132 -2.12132 
C 1.55874 -2.683901 0.795609 -3 0 -3 
C -0.795609 -3 -1.55874 -2.683901 -2.12132 -2.12132 
C -2.683901 -1.55874 -3 -0.795609 -3 0 
C -3 0.795609 -2.683901 1.55874 -2.12132 2.12132 
C -1.55874 2.683901 -0.795609 3 0 3 
z
" style="stroke: #ff7f0e"/>
    </defs>
    <g clip-path="url(#pd70ec76141)">
     <use xlink:href="#m4180fefb7f" x="89.414531" y="482.386671" style="fill: #ff7f0e; stroke: #ff7f0e"/>
     <use xlink:href="#m4180fefb7f" x="104.56652" y="422.99472" style="fill: #ff7f0e; stroke: #ff7f0e"/>
     <use xlink:href="#m4180fefb7f" x="134.870497" y="497.907524" style="fill: #ff7f0e; stroke: #ff7f0e"/>
     <use xlink:href="#m4180fefb7f" x="150.022486" y="455.83312" style="fill: #ff7f0e; stroke: #ff7f0e"/>
     <use xlink:href="#m4180fefb7f" x="165.174474" y="503.769867" style="fill: #ff7f0e; stroke: #ff7f0e"/>
     <use xlink:href="#m4180fefb7f" x="180.326463" y="496.189757" style="fill: #ff7f0e; stroke: #ff7f0e"/>
     <use xlink:href="#m4180fefb7f" x="195.478452" y="459.882507" style="fill: #ff7f0e; stroke: #ff7f0e"/>
     <use xlink:href="#m4180fefb7f" x="210.63044" y="493.012062" style="fill: #ff7f0e; stroke: #ff7f0e"/>
     <use xlink:href="#m4180fefb7f" x="225.782429" y="444.525156" style="fill: #ff7f0e; stroke: #ff7f0e"/>
     <use xlink:href="#m4180fefb7f" x="240.934418" y="482.315534" style="fill: #ff7f0e; stroke: #ff7f0e"/>
     <use xlink:href="#m4180fefb7f" x="271.238395" y="388.336689" style="fill: #ff7f0e; stroke: #ff7f0e"/>
     <use xlink:href="#m4180fefb7f" x="286.390384" y="401.252288" style="fill: #ff7f0e; stroke: #ff7f0e"/>
     <use xlink:href="#m4180fefb7f" x="301.542372" y="494.398382" style="fill: #ff7f0e; stroke: #ff7f0e"/>
     <use xlink:href="#m4180fefb7f" x="316.694361" y="447.037787" style="fill: #ff7f0e; stroke: #ff7f0e"/>
     <use xlink:href="#m4180fefb7f" x="331.846349" y="483.224025" style="fill: #ff7f0e; stroke: #ff7f0e"/>
     <use xlink:href="#m4180fefb7f" x="362.150327" y="502.354509" style="fill: #ff7f0e; stroke: #ff7f0e"/>
     <use xlink:href="#m4180fefb7f" x="377.302315" y="496.703551" style="fill: #ff7f0e; stroke: #ff7f0e"/>
     <use xlink:href="#m4180fefb7f" x="392.454304" y="502.741012" style="fill: #ff7f0e; stroke: #ff7f0e"/>
     <use xlink:href="#m4180fefb7f" x="407.606293" y="492.137076" style="fill: #ff7f0e; stroke: #ff7f0e"/>
     <use xlink:href="#m4180fefb7f" x="422.758281" y="494.361039" style="fill: #ff7f0e; stroke: #ff7f0e"/>
     <use xlink:href="#m4180fefb7f" x="437.91027" y="480.928095" style="fill: #ff7f0e; stroke: #ff7f0e"/>
     <use xlink:href="#m4180fefb7f" x="453.062259" y="475.265985" style="fill: #ff7f0e; stroke: #ff7f0e"/>
     <use xlink:href="#m4180fefb7f" x="468.214247" y="490.648546" style="fill: #ff7f0e; stroke: #ff7f0e"/>
     <use xlink:href="#m4180fefb7f" x="483.366236" y="477.366421" style="fill: #ff7f0e; stroke: #ff7f0e"/>
     <use xlink:href="#m4180fefb7f" x="498.518224" y="482.702362" style="fill: #ff7f0e; stroke: #ff7f0e"/>
     <use xlink:href="#m4180fefb7f" x="513.670213" y="497.225094" style="fill: #ff7f0e; stroke: #ff7f0e"/>
     <use xlink:href="#m4180fefb7f" x="543.97419" y="343.732692" style="fill: #ff7f0e; stroke: #ff7f0e"/>
     <use xlink:href="#m4180fefb7f" x="559.126179" y="497.445846" style="fill: #ff7f0e; stroke: #ff7f0e"/>
     <use xlink:href="#m4180fefb7f" x="574.278168" y="447.812372" style="fill: #ff7f0e; stroke: #ff7f0e"/>
     <use xlink:href="#m4180fefb7f" x="589.430156" y="370.752816" style="fill: #ff7f0e; stroke: #ff7f0e"/>
    </g>
   </g>
   <g id="line2d_23">
    <path d="M 89.414531 240.672822 
L 104.56652 286.982481 
L 134.870497 265.673651 
L 150.022486 213.697032 
L 165.174474 298.446464 
L 180.326463 271.388333 
L 195.478452 298.658851 
L 210.63044 294.418884 
L 225.782429 287.876441 
L 240.934418 292.374053 
L 271.238395 295.491191 
L 286.390384 300.72134 
L 301.542372 282.719765 
L 331.846349 291.79116 
L 377.302315 294.658456 
L 392.454304 271.425082 
L 407.606293 193.977468 
L 422.758281 296.512546 
L 437.91027 301.32021 
L 453.062259 278.015159 
L 468.214247 304.863296 
L 483.366236 273.62206 
L 498.518224 231.111008 
L 513.670213 281.435991 
L 543.97419 153.858185 
L 559.126179 75.019197 
L 574.278168 279.691933 
L 589.430156 132.970251 
" clip-path="url(#pd70ec76141)" style="fill: none; stroke: #2ca02c; stroke-width: 2; stroke-linecap: square"/>
    <defs>
     <path id="m8c985fa104" d="M 0 3 
C 0.795609 3 1.55874 2.683901 2.12132 2.12132 
C 2.683901 1.55874 3 0.795609 3 0 
C 3 -0.795609 2.683901 -1.55874 2.12132 -2.12132 
C 1.55874 -2.683901 0.795609 -3 0 -3 
C -0.795609 -3 -1.55874 -2.683901 -2.12132 -2.12132 
C -2.683901 -1.55874 -3 -0.795609 -3 0 
C -3 0.795609 -2.683901 1.55874 -2.12132 2.12132 
C -1.55874 2.683901 -0.795609 3 0 3 
z
" style="stroke: #2ca02c"/>
    </defs>
    <g clip-path="url(#pd70ec76141)">
     <use xlink:href="#m8c985fa104" x="89.414531" y="240.672822" style="fill: #2ca02c; stroke: #2ca02c"/>
     <use xlink:href="#m8c985fa104" x="104.56652" y="286.982481" style="fill: #2ca02c; stroke: #2ca02c"/>
     <use xlink:href="#m8c985fa104" x="134.870497" y="265.673651" style="fill: #2ca02c; stroke: #2ca02c"/>
     <use xlink:href="#m8c985fa104" x="150.022486" y="213.697032" style="fill: #2ca02c; stroke: #2ca02c"/>
     <use xlink:href="#m8c985fa104" x="165.174474" y="298.446464" style="fill: #2ca02c; stroke: #2ca02c"/>
     <use xlink:href="#m8c985fa104" x="180.326463" y="271.388333" style="fill: #2ca02c; stroke: #2ca02c"/>
     <use xlink:href="#m8c985fa104" x="195.478452" y="298.658851" style="fill: #2ca02c; stroke: #2ca02c"/>
     <use xlink:href="#m8c985fa104" x="210.63044" y="294.418884" style="fill: #2ca02c; stroke: #2ca02c"/>
     <use xlink:href="#m8c985fa104" x="225.782429" y="287.876441" style="fill: #2ca02c; stroke: #2ca02c"/>
     <use xlink:href="#m8c985fa104" x="240.934418" y="292.374053" style="fill: #2ca02c; stroke: #2ca02c"/>
     <use xlink:href="#m8c985fa104" x="271.238395" y="295.491191" style="fill: #2ca02c; stroke: #2ca02c"/>
     <use xlink:href="#m8c985fa104" x="286.390384" y="300.72134" style="fill: #2ca02c; stroke: #2ca02c"/>
     <use xlink:href="#m8c985fa104" x="301.542372" y="282.719765" style="fill: #2ca02c; stroke: #2ca02c"/>
     <use xlink:href="#m8c985fa104" x="331.846349" y="291.79116" style="fill: #2ca02c; stroke: #2ca02c"/>
     <use xlink:href="#m8c985fa104" x="377.302315" y="294.658456" style="fill: #2ca02c; stroke: #2ca02c"/>
     <use xlink:href="#m8c985fa104" x="392.454304" y="271.425082" style="fill: #2ca02c; stroke: #2ca02c"/>
     <use xlink:href="#m8c985fa104" x="407.606293" y="193.977468" style="fill: #2ca02c; stroke: #2ca02c"/>
     <use xlink:href="#m8c985fa104" x="422.758281" y="296.512546" style="fill: #2ca02c; stroke: #2ca02c"/>
     <use xlink:href="#m8c985fa104" x="437.91027" y="301.32021" style="fill: #2ca02c; stroke: #2ca02c"/>
     <use xlink:href="#m8c985fa104" x="453.062259" y="278.015159" style="fill: #2ca02c; stroke: #2ca02c"/>
     <use xlink:href="#m8c985fa104" x="468.214247" y="304.863296" style="fill: #2ca02c; stroke: #2ca02c"/>
     <use xlink:href="#m8c985fa104" x="483.366236" y="273.62206" style="fill: #2ca02c; stroke: #2ca02c"/>
     <use xlink:href="#m8c985fa104" x="498.518224" y="231.111008" style="fill: #2ca02c; stroke: #2ca02c"/>
     <use xlink:href="#m8c985fa104" x="513.670213" y="281.435991" style="fill: #2ca02c; stroke: #2ca02c"/>
     <use xlink:href="#m8c985fa104" x="543.97419" y="153.858185" style="fill: #2ca02c; stroke: #2ca02c"/>
     <use xlink:href="#m8c985fa104" x="559.126179" y="75.019197" style="fill: #2ca02c; stroke: #2ca02c"/>
     <use xlink:href="#m8c985fa104" x="574.278168" y="279.691933" style="fill: #2ca02c; stroke: #2ca02c"/>
     <use xlink:href="#m8c985fa104" x="589.430156" y="132.970251" style="fill: #2ca02c; stroke: #2ca02c"/>
    </g>
   </g>
   <g id="line2d_24">
    <path d="M 89.414531 246.262957 
L 104.56652 294.961162 
L 134.870497 298.749373 
L 150.022486 218.292034 
L 165.174474 310.237426 
L 180.326463 273.695645 
L 195.478452 295.890281 
L 210.63044 305.154605 
L 225.782429 303.071751 
L 240.934418 310.68582 
L 271.238395 314.085043 
L 286.390384 306.655098 
L 301.542372 295.895641 
L 331.846349 304.391521 
L 377.302315 307.570231 
L 392.454304 289.738349 
L 407.606293 181.081448 
L 422.758281 305.49709 
L 437.91027 278.296034 
L 453.062259 293.139097 
L 468.214247 316.548628 
L 483.366236 304.594553 
L 498.518224 257.697083 
L 513.670213 283.433304 
L 543.97419 193.003447 
L 559.126179 46.813736 
L 574.278168 281.596735 
L 589.430156 159.424768 
" clip-path="url(#pd70ec76141)" style="fill: none; stroke: #d62728; stroke-width: 2; stroke-linecap: square"/>
    <defs>
     <path id="m672e644d8b" d="M 0 3 
C 0.795609 3 1.55874 2.683901 2.12132 2.12132 
C 2.683901 1.55874 3 0.795609 3 0 
C 3 -0.795609 2.683901 -1.55874 2.12132 -2.12132 
C 1.55874 -2.683901 0.795609 -3 0 -3 
C -0.795609 -3 -1.55874 -2.683901 -2.12132 -2.12132 
C -2.683901 -1.55874 -3 -0.795609 -3 0 
C -3 0.795609 -2.683901 1.55874 -2.12132 2.12132 
C -1.55874 2.683901 -0.795609 3 0 3 
z
" style="stroke: #d62728"/>
    </defs>
    <g clip-path="url(#pd70ec76141)">
     <use xlink:href="#m672e644d8b" x="89.414531" y="246.262957" style="fill: #d62728; stroke: #d62728"/>
     <use xlink:href="#m672e644d8b" x="104.56652" y="294.961162" style="fill: #d62728; stroke: #d62728"/>
     <use xlink:href="#m672e644d8b" x="134.870497" y="298.749373" style="fill: #d62728; stroke: #d62728"/>
     <use xlink:href="#m672e644d8b" x="150.022486" y="218.292034" style="fill: #d62728; stroke: #d62728"/>
     <use xlink:href="#m672e644d8b" x="165.174474" y="310.237426" style="fill: #d62728; stroke: #d62728"/>
     <use xlink:href="#m672e644d8b" x="180.326463" y="273.695645" style="fill: #d62728; stroke: #d62728"/>
     <use xlink:href="#m672e644d8b" x="195.478452" y="295.890281" style="fill: #d62728; stroke: #d62728"/>
     <use xlink:href="#m672e644d8b" x="210.63044" y="305.154605" style="fill: #d62728; stroke: #d62728"/>
     <use xlink:href="#m672e644d8b" x="225.782429" y="303.071751" style="fill: #d62728; stroke: #d62728"/>
     <use xlink:href="#m672e644d8b" x="240.934418" y="310.68582" style="fill: #d62728; stroke: #d62728"/>
     <use xlink:href="#m672e644d8b" x="271.238395" y="314.085043" style="fill: #d62728; stroke: #d62728"/>
     <use xlink:href="#m672e644d8b" x="286.390384" y="306.655098" style="fill: #d62728; stroke: #d62728"/>
     <use xlink:href="#m672e644d8b" x="301.542372" y="295.895641" style="fill: #d62728; stroke: #d62728"/>
     <use xlink:href="#m672e644d8b" x="331.846349" y="304.391521" style="fill: #d62728; stroke: #d62728"/>
     <use xlink:href="#m672e644d8b" x="377.302315" y="307.570231" style="fill: #d62728; stroke: #d62728"/>
     <use xlink:href="#m672e644d8b" x="392.454304" y="289.738349" style="fill: #d62728; stroke: #d62728"/>
     <use xlink:href="#m672e644d8b" x="407.606293" y="181.081448" style="fill: #d62728; stroke: #d62728"/>
     <use xlink:href="#m672e644d8b" x="422.758281" y="305.49709" style="fill: #d62728; stroke: #d62728"/>
     <use xlink:href="#m672e644d8b" x="437.91027" y="278.296034" style="fill: #d62728; stroke: #d62728"/>
     <use xlink:href="#m672e644d8b" x="453.062259" y="293.139097" style="fill: #d62728; stroke: #d62728"/>
     <use xlink:href="#m672e644d8b" x="468.214247" y="316.548628" style="fill: #d62728; stroke: #d62728"/>
     <use xlink:href="#m672e644d8b" x="483.366236" y="304.594553" style="fill: #d62728; stroke: #d62728"/>
     <use xlink:href="#m672e644d8b" x="498.518224" y="257.697083" style="fill: #d62728; stroke: #d62728"/>
     <use xlink:href="#m672e644d8b" x="513.670213" y="283.433304" style="fill: #d62728; stroke: #d62728"/>
     <use xlink:href="#m672e644d8b" x="543.97419" y="193.003447" style="fill: #d62728; stroke: #d62728"/>
     <use xlink:href="#m672e644d8b" x="559.126179" y="46.813736" style="fill: #d62728; stroke: #d62728"/>
     <use xlink:href="#m672e644d8b" x="574.278168" y="281.596735" style="fill: #d62728; stroke: #d62728"/>
     <use xlink:href="#m672e644d8b" x="589.430156" y="159.424768" style="fill: #d62728; stroke: #d62728"/>
    </g>
   </g>
   <g id="patch_3">
    <path d="M 64.41375 529.308125 
L 64.41375 23.837813 
" style="fill: none; stroke: #000000; stroke-width: 0.8; stroke-linejoin: miter; stroke-linecap: square"/>
   </g>
   <g id="patch_4">
    <path d="M 614.430938 529.308125 
L 614.430938 23.837813 
" style="fill: none; stroke: #000000; stroke-width: 0.8; stroke-linejoin: miter; stroke-linecap: square"/>
   </g>
   <g id="patch_5">
    <path d="M 64.41375 529.308125 
L 614.430938 529.308125 
" style="fill: none; stroke: #000000; stroke-width: 0.8; stroke-linejoin: miter; stroke-linecap: square"/>
   </g>
   <g id="patch_6">
    <path d="M 64.41375 23.837812 
L 614.430938 23.837812 
" style="fill: none; stroke: #000000; stroke-width: 0.8; stroke-linejoin: miter; stroke-linecap: square"/>
   </g>
   <g id="text_14">
    <text style="font: 700 14px 'DejaVu Sans', 'Bitstream Vera Sans', 'Computer Modern Sans Serif', 'Lucida Grande', 'Verdana', 'Geneva', 'Lucid', 'Arial', 'Helvetica', 'Avant Garde', sans-serif; text-anchor: middle" x="339.422344" y="17.837813" transform="rotate(-0 339.422344 17.837813)">Coroutine Memory - Performance Trend</text>
   </g>
   <g id="legend_1">
    <g id="patch_7">
     <path d="M 648.931797 91.662813 
L 841.620859 91.662813 
Q 843.620859 91.662813 843.620859 89.662813 
L 843.620859 30.837813 
Q 843.620859 28.837813 841.620859 28.837813 
L 648.931797 28.837813 
Q 646.931797 28.837813 646.931797 30.837813 
L 646.931797 89.662813 
Q 646.931797 91.662813 648.931797 91.662813 
z
" style="fill: #ffffff; opacity: 0.8; stroke: #cccccc; stroke-linejoin: miter"/>
    </g>
    <g id="line2d_25">
     <path d="M 650.931797 36.93625 
L 660.931797 36.93625 
L 670.931797 36.93625 
" style="fill: none; stroke: #1f77b4; stroke-width: 2; stroke-linecap: square"/>
     <g>
      <use xlink:href="#m58d7d55721" x="660.931797" y="36.93625" style="fill: #1f77b4; stroke: #1f77b4"/>
     </g>
    </g>
    <g id="text_15">
     <text style="font: 10px 'DejaVu Sans', 'Bitstream Vera Sans', 'Computer Modern Sans Serif', 'Lucida Grande', 'Verdana', 'Geneva', 'Lucid', 'Arial', 'Helvetica', 'Avant Garde', sans-serif; text-anchor: start" x="678.931797" y="40.43625" transform="rotate(-0 678.931797 40.43625)">gcc-14.2 - CoroutineMemory_V1</text>
    </g>
    <g id="line2d_26">
     <path d="M 650.931797 51.8925 
L 660.931797 51.8925 
L 670.931797 51.8925 
" style="fill: none; stroke: #ff7f0e; stroke-width: 2; stroke-linecap: square"/>
     <g>
      <use xlink:href="#m4180fefb7f" x="660.931797" y="51.8925" style="fill: #ff7f0e; stroke: #ff7f0e"/>
     </g>
    </g>
    <g id="text_16">
     <text style="font: 10px 'DejaVu Sans', 'Bitstream Vera Sans', 'Computer Modern Sans Serif', 'Lucida Grande', 'Verdana', 'Geneva', 'Lucid', 'Arial', 'Helvetica', 'Avant Garde', sans-serif; text-anchor: start" x="678.931797" y="55.3925" transform="rotate(-0 678.931797 55.3925)">gcc-14.2 - CoroutineMemory_V2</text>
    </g>
    <g id="line2d_27">
     <path d="M 650.931797 66.84875 
L 660.931797 66.84875 
L 670.931797 66.84875 
" style="fill: none; stroke: #2ca02c; stroke-width: 2; stroke-linecap: square"/>
     <g>
      <use xlink:href="#m8c985fa104" x="660.931797" y="66.84875" style="fill: #2ca02c; stroke: #2ca02c"/>
     </g>
    </g>
    <g id="text_17">
     <text style="font: 10px 'DejaVu Sans', 'Bitstream Vera Sans', 'Computer Modern Sans Serif', 'Lucida Grande', 'Verdana', 'Geneva', 'Lucid', 'Arial', 'Helvetica', 'Avant Garde', sans-serif; text-anchor: start" x="678.931797" y="70.34875" transform="rotate(-0 678.931797 70.34875)">gcc-4.2 - CoroutineMemory_V1</text>
    </g>
    <g id="line2d_28">
     <path d="M 650.931797 81.805 
L 660.931797 81.805 
L 670.931797 81.805 
" style="fill: none; stroke: #d62728; stroke-width: 2; stroke-linecap: square"/>
     <g>
      <use xlink:href="#m672e644d8b" x="660.931797" y="81.805" style="fill: #d62728; stroke: #d62728"/>
     </g>
    </g>
    <g id="text_18">
     <text style="font: 10px 'DejaVu Sans', 'Bitstream Vera Sans', 'Computer Modern Sans Serif', 'Lucida Grande', 'Verdana', 'Geneva', 'Lucid', 'Arial', 'Helvetica', 'Avant Garde', sans-serif; text-anchor: start" x="678.931797" y="85.305" transform="rotate(-0 678.931797 85.305)">gcc-4.2 - CoroutineMemory_V2</text>
    </g>
   </g>
  </g>
 </g>
 <defs>
  <clipPath id="pd70ec76141">
   <rect x="64.41375" y="23.837813" width="550.017187" height="505.470313"/>
  </clipPath>
 </defs>
</svg>
