<?xml version="1.0" encoding="utf-8" standalone="no"?>
<!DOCTYPE svg PUBLIC "-//W3C//DTD SVG 1.1//EN"
  "http://www.w3.org/Graphics/SVG/1.1/DTD/svg11.dtd">
<svg xmlns:xlink="http://www.w3.org/1999/xlink" width="855.204687pt" height="568.8pt" viewBox="0 0 855.204687 568.8" xmlns="http://www.w3.org/2000/svg" version="1.1">
 <metadata>
  <rdf:RDF xmlns:dc="http://purl.org/dc/elements/1.1/" xmlns:cc="http://creativecommons.org/ns#" xmlns:rdf="http://www.w3.org/1999/02/22-rdf-syntax-ns#">
   <cc:Work>
    <dc:type rdf:resource="http://purl.org/dc/dcmitype/StillImage"/>
    <dc:date>2025-08-17T13:04:19.435088</dc:date>
    <dc:format>image/svg+xml</dc:format>
    <dc:creator>
     <cc:Agent>
      <dc:title>Matplotlib v3.9.4, https://matplotlib.org/</dc:title>
     </cc:Agent>
    </dc:creator>
   </cc:Work>
  </rdf:RDF>
 </metadata>
 <defs>
  <style type="text/css">*{stroke-linejoin: round; stroke-linecap: butt}</style>
 </defs>
 <g id="figure_1">
  <g id="patch_1">
   <path d="M 0 568.8 
L 855.204687 568.8 
L 855.204687 0 
L 0 0 
z
" style="fill: #ffffff"/>
  </g>
  <g id="axes_1">
   <g id="patch_2">
    <path d="M 64.41375 529.308125 
L 702.1075 529.308125 
L 702.1075 23.837812 
L 64.41375 23.837812 
z
" style="fill: #ffffff"/>
   </g>
   <g id="matplotlib.axis_1">
    <g id="xtick_1">
     <g id="line2d_1">
      <path d="M 69.244763 529.308125 
L 69.244763 23.837812 
" clip-path="url(#pd4faaad7f7)" style="fill: none; stroke: #b0b0b0; stroke-opacity: 0.3; stroke-width: 0.8; stroke-linecap: square"/>
     </g>
     <g id="line2d_2">
      <defs>
       <path id="m6685b8357a" d="M 0 0 
L 0 3.5 
" style="stroke: #000000; stroke-width: 0.8"/>
      </defs>
      <g>
       <use xlink:href="#m6685b8357a" x="69.244763" y="529.308125" style="stroke: #000000; stroke-width: 0.8"/>
      </g>
     </g>
     <g id="text_1">
      <text style="font: 10px 'DejaVu Sans', 'Bitstream Vera Sans', 'Computer Modern Sans Serif', 'Lucida Grande', 'Verdana', 'Geneva', 'Lucid', 'Arial', 'Helvetica', 'Avant Garde', sans-serif; text-anchor: middle" x="69.244763" y="543.906563" transform="rotate(-0 69.244763 543.906563)">70</text>
     </g>
    </g>
    <g id="xtick_2">
     <g id="line2d_3">
      <path d="M 190.020095 529.308125 
L 190.020095 23.837812 
" clip-path="url(#pd4faaad7f7)" style="fill: none; stroke: #b0b0b0; stroke-opacity: 0.3; stroke-width: 0.8; stroke-linecap: square"/>
     </g>
     <g id="line2d_4">
      <g>
       <use xlink:href="#m6685b8357a" x="190.020095" y="529.308125" style="stroke: #000000; stroke-width: 0.8"/>
      </g>
     </g>
     <g id="text_2">
      <text style="font: 10px 'DejaVu Sans', 'Bitstream Vera Sans', 'Computer Modern Sans Serif', 'Lucida Grande', 'Verdana', 'Geneva', 'Lucid', 'Arial', 'Helvetica', 'Avant Garde', sans-serif; text-anchor: middle" x="190.020095" y="543.906563" transform="rotate(-0 190.020095 543.906563)">75</text>
     </g>
    </g>
    <g id="xtick_3">
     <g id="line2d_5">
      <path d="M 310.795426 529.308125 
L 310.795426 23.837812 
" clip-path="url(#pd4faaad7f7)" style="fill: none; stroke: #b0b0b0; stroke-opacity: 0.3; stroke-width: 0.8; stroke-linecap: square"/>
     </g>
     <g id="line2d_6">
      <g>
       <use xlink:href="#m6685b8357a" x="310.795426" y="529.308125" style="stroke: #000000; stroke-width: 0.8"/>
      </g>
     </g>
     <g id="text_3">
      <text style="font: 10px 'DejaVu Sans', 'Bitstream Vera Sans', 'Computer Modern Sans Serif', 'Lucida Grande', 'Verdana', 'Geneva', 'Lucid', 'Arial', 'Helvetica', 'Avant Garde', sans-serif; text-anchor: middle" x="310.795426" y="543.906563" transform="rotate(-0 310.795426 543.906563)">80</text>
     </g>
    </g>
    <g id="xtick_4">
     <g id="line2d_7">
      <path d="M 431.570758 529.308125 
L 431.570758 23.837812 
" clip-path="url(#pd4faaad7f7)" style="fill: none; stroke: #b0b0b0; stroke-opacity: 0.3; stroke-width: 0.8; stroke-linecap: square"/>
     </g>
     <g id="line2d_8">
      <g>
       <use xlink:href="#m6685b8357a" x="431.570758" y="529.308125" style="stroke: #000000; stroke-width: 0.8"/>
      </g>
     </g>
     <g id="text_4">
      <text style="font: 10px 'DejaVu Sans', 'Bitstream Vera Sans', 'Computer Modern Sans Serif', 'Lucida Grande', 'Verdana', 'Geneva', 'Lucid', 'Arial', 'Helvetica', 'Avant Garde', sans-serif; text-anchor: middle" x="431.570758" y="543.906563" transform="rotate(-0 431.570758 543.906563)">85</text>
     </g>
    </g>
    <g id="xtick_5">
     <g id="line2d_9">
      <path d="M 552.346089 529.308125 
L 552.346089 23.837812 
" clip-path="url(#pd4faaad7f7)" style="fill: none; stroke: #b0b0b0; stroke-opacity: 0.3; stroke-width: 0.8; stroke-linecap: square"/>
     </g>
     <g id="line2d_10">
      <g>
       <use xlink:href="#m6685b8357a" x="552.346089" y="529.308125" style="stroke: #000000; stroke-width: 0.8"/>
      </g>
     </g>
     <g id="text_5">
      <text style="font: 10px 'DejaVu Sans', 'Bitstream Vera Sans', 'Computer Modern Sans Serif', 'Lucida Grande', 'Verdana', 'Geneva', 'Lucid', 'Arial', 'Helvetica', 'Avant Garde', sans-serif; text-anchor: middle" x="552.346089" y="543.906563" transform="rotate(-0 552.346089 543.906563)">90</text>
     </g>
    </g>
    <g id="xtick_6">
     <g id="line2d_11">
      <path d="M 673.12142 529.308125 
L 673.12142 23.837812 
" clip-path="url(#pd4faaad7f7)" style="fill: none; stroke: #b0b0b0; stroke-opacity: 0.3; stroke-width: 0.8; stroke-linecap: square"/>
     </g>
     <g id="line2d_12">
      <g>
       <use xlink:href="#m6685b8357a" x="673.12142" y="529.308125" style="stroke: #000000; stroke-width: 0.8"/>
      </g>
     </g>
     <g id="text_6">
      <text style="font: 10px 'DejaVu Sans', 'Bitstream Vera Sans', 'Computer Modern Sans Serif', 'Lucida Grande', 'Verdana', 'Geneva', 'Lucid', 'Arial', 'Helvetica', 'Avant Garde', sans-serif; text-anchor: middle" x="673.12142" y="543.906563" transform="rotate(-0 673.12142 543.906563)">95</text>
     </g>
    </g>
    <g id="text_7">
     <text style="font: 12px 'DejaVu Sans', 'Bitstream Vera Sans', 'Computer Modern Sans Serif', 'Lucida Grande', 'Verdana', 'Geneva', 'Lucid', 'Arial', 'Helvetica', 'Avant Garde', sans-serif; text-anchor: middle" x="383.260625" y="559.104375" transform="rotate(-0 383.260625 559.104375)">Build Number</text>
    </g>
   </g>
   <g id="matplotlib.axis_2">
    <g id="ytick_1">
     <g id="line2d_13">
      <path d="M 64.41375 348.809781 
L 702.1075 348.809781 
" clip-path="url(#pd4faaad7f7)" style="fill: none; stroke: #b0b0b0; stroke-opacity: 0.3; stroke-width: 0.8; stroke-linecap: square"/>
     </g>
     <g id="line2d_14">
      <defs>
       <path id="m39c436db4f" d="M 0 0 
L -3.5 0 
" style="stroke: #000000; stroke-width: 0.8"/>
      </defs>
      <g>
       <use xlink:href="#m39c436db4f" x="64.41375" y="348.809781" style="stroke: #000000; stroke-width: 0.8"/>
      </g>
     </g>
     <g id="text_8">
      <!-- $\mathdefault{10^{5}}$ -->
      <g transform="translate(39.81375 352.608999)">
       <text>
        <tspan style="font: 10px 'DejaVu Sans'" x="0 6.362305" y="-0.06406250000000036">10</tspan>
        <tspan style="font: 7px 'DejaVu Sans'" x="12.820312" y="-3.8921875000000004">5</tspan>
       </text>
      </g>
     </g>
    </g>
    <g id="ytick_2">
     <g id="line2d_15">
      <defs>
       <path id="mce98933b63" d="M 0 0 
L -2 0 
" style="stroke: #000000; stroke-width: 0.6"/>
      </defs>
      <g>
       <use xlink:href="#mce98933b63" x="64.41375" y="477.273547" style="stroke: #000000; stroke-width: 0.6"/>
      </g>
     </g>
    </g>
    <g id="ytick_3">
     <g id="line2d_16">
      <g>
       <use xlink:href="#mce98933b63" x="64.41375" y="429.179488" style="stroke: #000000; stroke-width: 0.6"/>
      </g>
     </g>
    </g>
    <g id="ytick_4">
     <g id="line2d_17">
      <g>
       <use xlink:href="#mce98933b63" x="64.41375" y="386.757522" style="stroke: #000000; stroke-width: 0.6"/>
      </g>
     </g>
    </g>
    <g id="ytick_5">
     <g id="line2d_18">
      <g>
       <use xlink:href="#mce98933b63" x="64.41375" y="99.158666" style="stroke: #000000; stroke-width: 0.6"/>
      </g>
     </g>
     <g id="text_9">
      <!-- $\mathdefault{2\times10^{5}}$ -->
      <g transform="translate(22.81375 102.957885)">
       <text>
        <tspan style="font: 10px 'DejaVu Sans'" x="0 8.310547 18.637695 25" y="-0.06406250000000036">2×10</tspan>
        <tspan style="font: 7px 'DejaVu Sans'" x="31.458008" y="-3.8921875000000004">5</tspan>
       </text>
      </g>
     </g>
    </g>
    <g id="text_10">
     <text style="font: 12px 'DejaVu Sans', 'Bitstream Vera Sans', 'Computer Modern Sans Serif', 'Lucida Grande', 'Verdana', 'Geneva', 'Lucid', 'Arial', 'Helvetica', 'Avant Garde', sans-serif; text-anchor: middle" x="16.318125" y="276.572969" transform="rotate(-90 16.318125 276.572969)">Median Elapsed Time (nanoseconds)</text>
    </g>
   </g>
   <g id="line2d_19">
    <path d="M 93.39983 320.399692 
L 117.554896 149.937849 
L 141.709962 149.122015 
L 165.865028 281.632503 
L 190.020095 73.517706 
L 214.175161 262.330675 
L 238.330227 319.41646 
L 262.485294 320.479253 
L 286.64036 154.791122 
L 310.795426 314.376784 
L 334.950492 314.778644 
L 359.105559 320.044049 
L 383.260625 70.757565 
L 407.415691 317.938266 
L 431.570758 319.597083 
L 455.725824 318.721044 
L 504.035956 319.842596 
L 528.191023 167.082323 
L 552.346089 319.906078 
L 576.501155 153.803023 
L 600.656222 319.841267 
L 624.811288 67.555908 
L 648.966354 318.710773 
L 673.12142 147.600096 
" clip-path="url(#pd4faaad7f7)" style="fill: none; stroke: #1f77b4; stroke-width: 2; stroke-linecap: square"/>
    <defs>
     <path id="m849b4e002d" d="M 0 3 
C 0.795609 3 1.55874 2.683901 2.12132 2.12132 
C 2.683901 1.55874 3 0.795609 3 0 
C 3 -0.795609 2.683901 -1.55874 2.12132 -2.12132 
C 1.55874 -2.683901 0.795609 -3 0 -3 
C -0.795609 -3 -1.55874 -2.683901 -2.12132 -2.12132 
C -2.683901 -1.55874 -3 -0.795609 -3 0 
C -3 0.795609 -2.683901 1.55874 -2.12132 2.12132 
C -1.55874 2.683901 -0.795609 3 0 3 
z
" style="stroke: #1f77b4"/>
    </defs>
    <g clip-path="url(#pd4faaad7f7)">
     <use xlink:href="#m849b4e002d" x="93.39983" y="320.399692" style="fill: #1f77b4; stroke: #1f77b4"/>
     <use xlink:href="#m849b4e002d" x="117.554896" y="149.937849" style="fill: #1f77b4; stroke: #1f77b4"/>
     <use xlink:href="#m849b4e002d" x="141.709962" y="149.122015" style="fill: #1f77b4; stroke: #1f77b4"/>
     <use xlink:href="#m849b4e002d" x="165.865028" y="281.632503" style="fill: #1f77b4; stroke: #1f77b4"/>
     <use xlink:href="#m849b4e002d" x="190.020095" y="73.517706" style="fill: #1f77b4; stroke: #1f77b4"/>
     <use xlink:href="#m849b4e002d" x="214.175161" y="262.330675" style="fill: #1f77b4; stroke: #1f77b4"/>
     <use xlink:href="#m849b4e002d" x="238.330227" y="319.41646" style="fill: #1f77b4; stroke: #1f77b4"/>
     <use xlink:href="#m849b4e002d" x="262.485294" y="320.479253" style="fill: #1f77b4; stroke: #1f77b4"/>
     <use xlink:href="#m849b4e002d" x="286.64036" y="154.791122" style="fill: #1f77b4; stroke: #1f77b4"/>
     <use xlink:href="#m849b4e002d" x="310.795426" y="314.376784" style="fill: #1f77b4; stroke: #1f77b4"/>
     <use xlink:href="#m849b4e002d" x="334.950492" y="314.778644" style="fill: #1f77b4; stroke: #1f77b4"/>
     <use xlink:href="#m849b4e002d" x="359.105559" y="320.044049" style="fill: #1f77b4; stroke: #1f77b4"/>
     <use xlink:href="#m849b4e002d" x="383.260625" y="70.757565" style="fill: #1f77b4; stroke: #1f77b4"/>
     <use xlink:href="#m849b4e002d" x="407.415691" y="317.938266" style="fill: #1f77b4; stroke: #1f77b4"/>
     <use xlink:href="#m849b4e002d" x="431.570758" y="319.597083" style="fill: #1f77b4; stroke: #1f77b4"/>
     <use xlink:href="#m849b4e002d" x="455.725824" y="318.721044" style="fill: #1f77b4; stroke: #1f77b4"/>
     <use xlink:href="#m849b4e002d" x="504.035956" y="319.842596" style="fill: #1f77b4; stroke: #1f77b4"/>
     <use xlink:href="#m849b4e002d" x="528.191023" y="167.082323" style="fill: #1f77b4; stroke: #1f77b4"/>
     <use xlink:href="#m849b4e002d" x="552.346089" y="319.906078" style="fill: #1f77b4; stroke: #1f77b4"/>
     <use xlink:href="#m849b4e002d" x="576.501155" y="153.803023" style="fill: #1f77b4; stroke: #1f77b4"/>
     <use xlink:href="#m849b4e002d" x="600.656222" y="319.841267" style="fill: #1f77b4; stroke: #1f77b4"/>
     <use xlink:href="#m849b4e002d" x="624.811288" y="67.555908" style="fill: #1f77b4; stroke: #1f77b4"/>
     <use xlink:href="#m849b4e002d" x="648.966354" y="318.710773" style="fill: #1f77b4; stroke: #1f77b4"/>
     <use xlink:href="#m849b4e002d" x="673.12142" y="147.600096" style="fill: #1f77b4; stroke: #1f77b4"/>
    </g>
   </g>
   <g id="line2d_20">
    <path d="M 93.39983 287.002065 
L 117.554896 166.941871 
L 141.709962 206.761922 
L 165.865028 267.182754 
L 190.020095 170.52357 
L 214.175161 276.779458 
L 238.330227 267.21556 
L 262.485294 274.060871 
L 286.64036 73.812662 
L 310.795426 273.893797 
L 334.950492 270.935313 
L 359.105559 268.600312 
L 383.260625 164.624075 
L 407.415691 275.976789 
L 431.570758 280.273421 
L 455.725824 161.231057 
L 504.035956 161.617455 
L 528.191023 144.792844 
L 552.346089 251.284103 
L 576.501155 151.838117 
L 600.656222 270.392581 
L 624.811288 169.497912 
L 648.966354 257.445194 
L 673.12142 173.681673 
" clip-path="url(#pd4faaad7f7)" style="fill: none; stroke: #ff7f0e; stroke-width: 2; stroke-linecap: square"/>
    <defs>
     <path id="me69b04e273" d="M 0 3 
C 0.795609 3 1.55874 2.683901 2.12132 2.12132 
C 2.683901 1.55874 3 0.795609 3 0 
C 3 -0.795609 2.683901 -1.55874 2.12132 -2.12132 
C 1.55874 -2.683901 0.795609 -3 0 -3 
C -0.795609 -3 -1.55874 -2.683901 -2.12132 -2.12132 
C -2.683901 -1.55874 -3 -0.795609 -3 0 
C -3 0.795609 -2.683901 1.55874 -2.12132 2.12132 
C -1.55874 2.683901 -0.795609 3 0 3 
z
" style="stroke: #ff7f0e"/>
    </defs>
    <g clip-path="url(#pd4faaad7f7)">
     <use xlink:href="#me69b04e273" x="93.39983" y="287.002065" style="fill: #ff7f0e; stroke: #ff7f0e"/>
     <use xlink:href="#me69b04e273" x="117.554896" y="166.941871" style="fill: #ff7f0e; stroke: #ff7f0e"/>
     <use xlink:href="#me69b04e273" x="141.709962" y="206.761922" style="fill: #ff7f0e; stroke: #ff7f0e"/>
     <use xlink:href="#me69b04e273" x="165.865028" y="267.182754" style="fill: #ff7f0e; stroke: #ff7f0e"/>
     <use xlink:href="#me69b04e273" x="190.020095" y="170.52357" style="fill: #ff7f0e; stroke: #ff7f0e"/>
     <use xlink:href="#me69b04e273" x="214.175161" y="276.779458" style="fill: #ff7f0e; stroke: #ff7f0e"/>
     <use xlink:href="#me69b04e273" x="238.330227" y="267.21556" style="fill: #ff7f0e; stroke: #ff7f0e"/>
     <use xlink:href="#me69b04e273" x="262.485294" y="274.060871" style="fill: #ff7f0e; stroke: #ff7f0e"/>
     <use xlink:href="#me69b04e273" x="286.64036" y="73.812662" style="fill: #ff7f0e; stroke: #ff7f0e"/>
     <use xlink:href="#me69b04e273" x="310.795426" y="273.893797" style="fill: #ff7f0e; stroke: #ff7f0e"/>
     <use xlink:href="#me69b04e273" x="334.950492" y="270.935313" style="fill: #ff7f0e; stroke: #ff7f0e"/>
     <use xlink:href="#me69b04e273" x="359.105559" y="268.600312" style="fill: #ff7f0e; stroke: #ff7f0e"/>
     <use xlink:href="#me69b04e273" x="383.260625" y="164.624075" style="fill: #ff7f0e; stroke: #ff7f0e"/>
     <use xlink:href="#me69b04e273" x="407.415691" y="275.976789" style="fill: #ff7f0e; stroke: #ff7f0e"/>
     <use xlink:href="#me69b04e273" x="431.570758" y="280.273421" style="fill: #ff7f0e; stroke: #ff7f0e"/>
     <use xlink:href="#me69b04e273" x="455.725824" y="161.231057" style="fill: #ff7f0e; stroke: #ff7f0e"/>
     <use xlink:href="#me69b04e273" x="504.035956" y="161.617455" style="fill: #ff7f0e; stroke: #ff7f0e"/>
     <use xlink:href="#me69b04e273" x="528.191023" y="144.792844" style="fill: #ff7f0e; stroke: #ff7f0e"/>
     <use xlink:href="#me69b04e273" x="552.346089" y="251.284103" style="fill: #ff7f0e; stroke: #ff7f0e"/>
     <use xlink:href="#me69b04e273" x="576.501155" y="151.838117" style="fill: #ff7f0e; stroke: #ff7f0e"/>
     <use xlink:href="#me69b04e273" x="600.656222" y="270.392581" style="fill: #ff7f0e; stroke: #ff7f0e"/>
     <use xlink:href="#me69b04e273" x="624.811288" y="169.497912" style="fill: #ff7f0e; stroke: #ff7f0e"/>
     <use xlink:href="#me69b04e273" x="648.966354" y="257.445194" style="fill: #ff7f0e; stroke: #ff7f0e"/>
     <use xlink:href="#me69b04e273" x="673.12142" y="173.681673" style="fill: #ff7f0e; stroke: #ff7f0e"/>
    </g>
   </g>
   <g id="line2d_21">
    <path d="M 93.39983 309.99342 
L 117.554896 46.813736 
L 141.709962 296.469989 
L 165.865028 303.317241 
L 190.020095 141.040669 
L 214.175161 305.135002 
L 238.330227 226.521224 
L 262.485294 232.205566 
L 286.64036 223.641223 
L 310.795426 303.255982 
L 334.950492 305.186371 
L 359.105559 305.00103 
L 383.260625 229.395298 
L 407.415691 302.467522 
L 431.570758 304.609325 
L 455.725824 227.085921 
L 504.035956 231.385219 
L 528.191023 303.313432 
L 552.346089 222.542209 
L 576.501155 226.229042 
L 600.656222 303.757474 
L 624.811288 300.074694 
L 648.966354 303.929633 
L 673.12142 176.224602 
" clip-path="url(#pd4faaad7f7)" style="fill: none; stroke: #2ca02c; stroke-width: 2; stroke-linecap: square"/>
    <defs>
     <path id="m41055f7f5c" d="M 0 3 
C 0.795609 3 1.55874 2.683901 2.12132 2.12132 
C 2.683901 1.55874 3 0.795609 3 0 
C 3 -0.795609 2.683901 -1.55874 2.12132 -2.12132 
C 1.55874 -2.683901 0.795609 -3 0 -3 
C -0.795609 -3 -1.55874 -2.683901 -2.12132 -2.12132 
C -2.683901 -1.55874 -3 -0.795609 -3 0 
C -3 0.795609 -2.683901 1.55874 -2.12132 2.12132 
C -1.55874 2.683901 -0.795609 3 0 3 
z
" style="stroke: #2ca02c"/>
    </defs>
    <g clip-path="url(#pd4faaad7f7)">
     <use xlink:href="#m41055f7f5c" x="93.39983" y="309.99342" style="fill: #2ca02c; stroke: #2ca02c"/>
     <use xlink:href="#m41055f7f5c" x="117.554896" y="46.813736" style="fill: #2ca02c; stroke: #2ca02c"/>
     <use xlink:href="#m41055f7f5c" x="141.709962" y="296.469989" style="fill: #2ca02c; stroke: #2ca02c"/>
     <use xlink:href="#m41055f7f5c" x="165.865028" y="303.317241" style="fill: #2ca02c; stroke: #2ca02c"/>
     <use xlink:href="#m41055f7f5c" x="190.020095" y="141.040669" style="fill: #2ca02c; stroke: #2ca02c"/>
     <use xlink:href="#m41055f7f5c" x="214.175161" y="305.135002" style="fill: #2ca02c; stroke: #2ca02c"/>
     <use xlink:href="#m41055f7f5c" x="238.330227" y="226.521224" style="fill: #2ca02c; stroke: #2ca02c"/>
     <use xlink:href="#m41055f7f5c" x="262.485294" y="232.205566" style="fill: #2ca02c; stroke: #2ca02c"/>
     <use xlink:href="#m41055f7f5c" x="286.64036" y="223.641223" style="fill: #2ca02c; stroke: #2ca02c"/>
     <use xlink:href="#m41055f7f5c" x="310.795426" y="303.255982" style="fill: #2ca02c; stroke: #2ca02c"/>
     <use xlink:href="#m41055f7f5c" x="334.950492" y="305.186371" style="fill: #2ca02c; stroke: #2ca02c"/>
     <use xlink:href="#m41055f7f5c" x="359.105559" y="305.00103" style="fill: #2ca02c; stroke: #2ca02c"/>
     <use xlink:href="#m41055f7f5c" x="383.260625" y="229.395298" style="fill: #2ca02c; stroke: #2ca02c"/>
     <use xlink:href="#m41055f7f5c" x="407.415691" y="302.467522" style="fill: #2ca02c; stroke: #2ca02c"/>
     <use xlink:href="#m41055f7f5c" x="431.570758" y="304.609325" style="fill: #2ca02c; stroke: #2ca02c"/>
     <use xlink:href="#m41055f7f5c" x="455.725824" y="227.085921" style="fill: #2ca02c; stroke: #2ca02c"/>
     <use xlink:href="#m41055f7f5c" x="504.035956" y="231.385219" style="fill: #2ca02c; stroke: #2ca02c"/>
     <use xlink:href="#m41055f7f5c" x="528.191023" y="303.313432" style="fill: #2ca02c; stroke: #2ca02c"/>
     <use xlink:href="#m41055f7f5c" x="552.346089" y="222.542209" style="fill: #2ca02c; stroke: #2ca02c"/>
     <use xlink:href="#m41055f7f5c" x="576.501155" y="226.229042" style="fill: #2ca02c; stroke: #2ca02c"/>
     <use xlink:href="#m41055f7f5c" x="600.656222" y="303.757474" style="fill: #2ca02c; stroke: #2ca02c"/>
     <use xlink:href="#m41055f7f5c" x="624.811288" y="300.074694" style="fill: #2ca02c; stroke: #2ca02c"/>
     <use xlink:href="#m41055f7f5c" x="648.966354" y="303.929633" style="fill: #2ca02c; stroke: #2ca02c"/>
     <use xlink:href="#m41055f7f5c" x="673.12142" y="176.224602" style="fill: #2ca02c; stroke: #2ca02c"/>
    </g>
   </g>
   <g id="line2d_22">
    <path d="M 93.39983 504.215036 
L 117.554896 503.765069 
L 141.709962 504.492944 
L 165.865028 252.207841 
L 190.020095 366.478985 
L 214.175161 245.37849 
L 238.330227 504.920487 
L 262.485294 312.965396 
L 286.64036 240.358593 
L 310.795426 500.138822 
L 334.950492 506.092444 
L 359.105559 504.233335 
L 383.260625 167.327267 
L 431.570758 455.785735 
L 455.725824 506.332202 
L 504.035956 504.986515 
L 528.191023 505.933065 
L 552.346089 409.738681 
L 576.501155 504.225572 
L 600.656222 504.033763 
L 648.966354 504.859379 
L 673.12142 504.7011 
" clip-path="url(#pd4faaad7f7)" style="fill: none; stroke: #d62728; stroke-width: 2; stroke-linecap: square"/>
    <defs>
     <path id="m3e9b3368b5" d="M 0 3 
C 0.795609 3 1.55874 2.683901 2.12132 2.12132 
C 2.683901 1.55874 3 0.795609 3 0 
C 3 -0.795609 2.683901 -1.55874 2.12132 -2.12132 
C 1.55874 -2.683901 0.795609 -3 0 -3 
C -0.795609 -3 -1.55874 -2.683901 -2.12132 -2.12132 
C -2.683901 -1.55874 -3 -0.795609 -3 0 
C -3 0.795609 -2.683901 1.55874 -2.12132 2.12132 
C -1.55874 2.683901 -0.795609 3 0 3 
z
" style="stroke: #d62728"/>
    </defs>
    <g clip-path="url(#pd4faaad7f7)">
     <use xlink:href="#m3e9b3368b5" x="93.39983" y="504.215036" style="fill: #d62728; stroke: #d62728"/>
     <use xlink:href="#m3e9b3368b5" x="117.554896" y="503.765069" style="fill: #d62728; stroke: #d62728"/>
     <use xlink:href="#m3e9b3368b5" x="141.709962" y="504.492944" style="fill: #d62728; stroke: #d62728"/>
     <use xlink:href="#m3e9b3368b5" x="165.865028" y="252.207841" style="fill: #d62728; stroke: #d62728"/>
     <use xlink:href="#m3e9b3368b5" x="190.020095" y="366.478985" style="fill: #d62728; stroke: #d62728"/>
     <use xlink:href="#m3e9b3368b5" x="214.175161" y="245.37849" style="fill: #d62728; stroke: #d62728"/>
     <use xlink:href="#m3e9b3368b5" x="238.330227" y="504.920487" style="fill: #d62728; stroke: #d62728"/>
     <use xlink:href="#m3e9b3368b5" x="262.485294" y="312.965396" style="fill: #d62728; stroke: #d62728"/>
     <use xlink:href="#m3e9b3368b5" x="286.64036" y="240.358593" style="fill: #d62728; stroke: #d62728"/>
     <use xlink:href="#m3e9b3368b5" x="310.795426" y="500.138822" style="fill: #d62728; stroke: #d62728"/>
     <use xlink:href="#m3e9b3368b5" x="334.950492" y="506.092444" style="fill: #d62728; stroke: #d62728"/>
     <use xlink:href="#m3e9b3368b5" x="359.105559" y="504.233335" style="fill: #d62728; stroke: #d62728"/>
     <use xlink:href="#m3e9b3368b5" x="383.260625" y="167.327267" style="fill: #d62728; stroke: #d62728"/>
     <use xlink:href="#m3e9b3368b5" x="431.570758" y="455.785735" style="fill: #d62728; stroke: #d62728"/>
     <use xlink:href="#m3e9b3368b5" x="455.725824" y="506.332202" style="fill: #d62728; stroke: #d62728"/>
     <use xlink:href="#m3e9b3368b5" x="504.035956" y="504.986515" style="fill: #d62728; stroke: #d62728"/>
     <use xlink:href="#m3e9b3368b5" x="528.191023" y="505.933065" style="fill: #d62728; stroke: #d62728"/>
     <use xlink:href="#m3e9b3368b5" x="552.346089" y="409.738681" style="fill: #d62728; stroke: #d62728"/>
     <use xlink:href="#m3e9b3368b5" x="576.501155" y="504.225572" style="fill: #d62728; stroke: #d62728"/>
     <use xlink:href="#m3e9b3368b5" x="600.656222" y="504.033763" style="fill: #d62728; stroke: #d62728"/>
     <use xlink:href="#m3e9b3368b5" x="648.966354" y="504.859379" style="fill: #d62728; stroke: #d62728"/>
     <use xlink:href="#m3e9b3368b5" x="673.12142" y="504.7011" style="fill: #d62728; stroke: #d62728"/>
    </g>
   </g>
   <g id="line2d_23">
    <path d="M 93.39983 461.991572 
L 117.554896 407.665623 
L 141.709962 466.93619 
L 165.865028 461.299004 
L 190.020095 368.886445 
L 214.175161 373.015229 
L 238.330227 456.013145 
L 262.485294 284.685676 
L 286.64036 450.498519 
L 310.795426 465.767156 
L 334.950492 459.143063 
L 359.105559 464.044495 
L 383.260625 338.076165 
L 431.570758 450.521448 
L 455.725824 463.665276 
L 504.035956 461.00366 
L 528.191023 461.407165 
L 552.346089 283.638824 
L 576.501155 459.289384 
L 600.656222 464.347663 
L 648.966354 455.468861 
L 673.12142 460.052294 
" clip-path="url(#pd4faaad7f7)" style="fill: none; stroke: #9467bd; stroke-width: 2; stroke-linecap: square"/>
    <defs>
     <path id="m3095403192" d="M 0 3 
C 0.795609 3 1.55874 2.683901 2.12132 2.12132 
C 2.683901 1.55874 3 0.795609 3 0 
C 3 -0.795609 2.683901 -1.55874 2.12132 -2.12132 
C 1.55874 -2.683901 0.795609 -3 0 -3 
C -0.795609 -3 -1.55874 -2.683901 -2.12132 -2.12132 
C -2.683901 -1.55874 -3 -0.795609 -3 0 
C -3 0.795609 -2.683901 1.55874 -2.12132 2.12132 
C -1.55874 2.683901 -0.795609 3 0 3 
z
" style="stroke: #9467bd"/>
    </defs>
    <g clip-path="url(#pd4faaad7f7)">
     <use xlink:href="#m3095403192" x="93.39983" y="461.991572" style="fill: #9467bd; stroke: #9467bd"/>
     <use xlink:href="#m3095403192" x="117.554896" y="407.665623" style="fill: #9467bd; stroke: #9467bd"/>
     <use xlink:href="#m3095403192" x="141.709962" y="466.93619" style="fill: #9467bd; stroke: #9467bd"/>
     <use xlink:href="#m3095403192" x="165.865028" y="461.299004" style="fill: #9467bd; stroke: #9467bd"/>
     <use xlink:href="#m3095403192" x="190.020095" y="368.886445" style="fill: #9467bd; stroke: #9467bd"/>
     <use xlink:href="#m3095403192" x="214.175161" y="373.015229" style="fill: #9467bd; stroke: #9467bd"/>
     <use xlink:href="#m3095403192" x="238.330227" y="456.013145" style="fill: #9467bd; stroke: #9467bd"/>
     <use xlink:href="#m3095403192" x="262.485294" y="284.685676" style="fill: #9467bd; stroke: #9467bd"/>
     <use xlink:href="#m3095403192" x="286.64036" y="450.498519" style="fill: #9467bd; stroke: #9467bd"/>
     <use xlink:href="#m3095403192" x="310.795426" y="465.767156" style="fill: #9467bd; stroke: #9467bd"/>
     <use xlink:href="#m3095403192" x="334.950492" y="459.143063" style="fill: #9467bd; stroke: #9467bd"/>
     <use xlink:href="#m3095403192" x="359.105559" y="464.044495" style="fill: #9467bd; stroke: #9467bd"/>
     <use xlink:href="#m3095403192" x="383.260625" y="338.076165" style="fill: #9467bd; stroke: #9467bd"/>
     <use xlink:href="#m3095403192" x="431.570758" y="450.521448" style="fill: #9467bd; stroke: #9467bd"/>
     <use xlink:href="#m3095403192" x="455.725824" y="463.665276" style="fill: #9467bd; stroke: #9467bd"/>
     <use xlink:href="#m3095403192" x="504.035956" y="461.00366" style="fill: #9467bd; stroke: #9467bd"/>
     <use xlink:href="#m3095403192" x="528.191023" y="461.407165" style="fill: #9467bd; stroke: #9467bd"/>
     <use xlink:href="#m3095403192" x="552.346089" y="283.638824" style="fill: #9467bd; stroke: #9467bd"/>
     <use xlink:href="#m3095403192" x="576.501155" y="459.289384" style="fill: #9467bd; stroke: #9467bd"/>
     <use xlink:href="#m3095403192" x="600.656222" y="464.347663" style="fill: #9467bd; stroke: #9467bd"/>
     <use xlink:href="#m3095403192" x="648.966354" y="455.468861" style="fill: #9467bd; stroke: #9467bd"/>
     <use xlink:href="#m3095403192" x="673.12142" y="460.052294" style="fill: #9467bd; stroke: #9467bd"/>
    </g>
   </g>
   <g id="line2d_24">
    <path d="M 93.39983 428.48458 
L 117.554896 428.116305 
L 141.709962 429.675965 
L 165.865028 431.775747 
L 190.020095 353.222497 
L 214.175161 353.025662 
L 238.330227 431.423573 
L 262.485294 351.697648 
L 286.64036 429.564176 
L 310.795426 429.749008 
L 334.950492 431.810666 
L 359.105559 432.730205 
L 383.260625 351.888674 
L 431.570758 429.943929 
L 455.725824 431.740832 
L 504.035956 430.935437 
L 528.191023 432.640191 
L 552.346089 350.717243 
L 576.501155 430.037264 
L 600.656222 430.563849 
L 648.966354 432.946695 
L 673.12142 430.600459 
" clip-path="url(#pd4faaad7f7)" style="fill: none; stroke: #8c564b; stroke-width: 2; stroke-linecap: square"/>
    <defs>
     <path id="mc6528663e7" d="M 0 3 
C 0.795609 3 1.55874 2.683901 2.12132 2.12132 
C 2.683901 1.55874 3 0.795609 3 0 
C 3 -0.795609 2.683901 -1.55874 2.12132 -2.12132 
C 1.55874 -2.683901 0.795609 -3 0 -3 
C -0.795609 -3 -1.55874 -2.683901 -2.12132 -2.12132 
C -2.683901 -1.55874 -3 -0.795609 -3 0 
C -3 0.795609 -2.683901 1.55874 -2.12132 2.12132 
C -1.55874 2.683901 -0.795609 3 0 3 
z
" style="stroke: #8c564b"/>
    </defs>
    <g clip-path="url(#pd4faaad7f7)">
     <use xlink:href="#mc6528663e7" x="93.39983" y="428.48458" style="fill: #8c564b; stroke: #8c564b"/>
     <use xlink:href="#mc6528663e7" x="117.554896" y="428.116305" style="fill: #8c564b; stroke: #8c564b"/>
     <use xlink:href="#mc6528663e7" x="141.709962" y="429.675965" style="fill: #8c564b; stroke: #8c564b"/>
     <use xlink:href="#mc6528663e7" x="165.865028" y="431.775747" style="fill: #8c564b; stroke: #8c564b"/>
     <use xlink:href="#mc6528663e7" x="190.020095" y="353.222497" style="fill: #8c564b; stroke: #8c564b"/>
     <use xlink:href="#mc6528663e7" x="214.175161" y="353.025662" style="fill: #8c564b; stroke: #8c564b"/>
     <use xlink:href="#mc6528663e7" x="238.330227" y="431.423573" style="fill: #8c564b; stroke: #8c564b"/>
     <use xlink:href="#mc6528663e7" x="262.485294" y="351.697648" style="fill: #8c564b; stroke: #8c564b"/>
     <use xlink:href="#mc6528663e7" x="286.64036" y="429.564176" style="fill: #8c564b; stroke: #8c564b"/>
     <use xlink:href="#mc6528663e7" x="310.795426" y="429.749008" style="fill: #8c564b; stroke: #8c564b"/>
     <use xlink:href="#mc6528663e7" x="334.950492" y="431.810666" style="fill: #8c564b; stroke: #8c564b"/>
     <use xlink:href="#mc6528663e7" x="359.105559" y="432.730205" style="fill: #8c564b; stroke: #8c564b"/>
     <use xlink:href="#mc6528663e7" x="383.260625" y="351.888674" style="fill: #8c564b; stroke: #8c564b"/>
     <use xlink:href="#mc6528663e7" x="431.570758" y="429.943929" style="fill: #8c564b; stroke: #8c564b"/>
     <use xlink:href="#mc6528663e7" x="455.725824" y="431.740832" style="fill: #8c564b; stroke: #8c564b"/>
     <use xlink:href="#mc6528663e7" x="504.035956" y="430.935437" style="fill: #8c564b; stroke: #8c564b"/>
     <use xlink:href="#mc6528663e7" x="528.191023" y="432.640191" style="fill: #8c564b; stroke: #8c564b"/>
     <use xlink:href="#mc6528663e7" x="552.346089" y="350.717243" style="fill: #8c564b; stroke: #8c564b"/>
     <use xlink:href="#mc6528663e7" x="576.501155" y="430.037264" style="fill: #8c564b; stroke: #8c564b"/>
     <use xlink:href="#mc6528663e7" x="600.656222" y="430.563849" style="fill: #8c564b; stroke: #8c564b"/>
     <use xlink:href="#mc6528663e7" x="648.966354" y="432.946695" style="fill: #8c564b; stroke: #8c564b"/>
     <use xlink:href="#mc6528663e7" x="673.12142" y="430.600459" style="fill: #8c564b; stroke: #8c564b"/>
    </g>
   </g>
   <g id="patch_3">
    <path d="M 64.41375 529.308125 
L 64.41375 23.837812 
" style="fill: none; stroke: #000000; stroke-width: 0.8; stroke-linejoin: miter; stroke-linecap: square"/>
   </g>
   <g id="patch_4">
    <path d="M 702.1075 529.308125 
L 702.1075 23.837812 
" style="fill: none; stroke: #000000; stroke-width: 0.8; stroke-linejoin: miter; stroke-linecap: square"/>
   </g>
   <g id="patch_5">
    <path d="M 64.41375 529.308125 
L 702.1075 529.308125 
" style="fill: none; stroke: #000000; stroke-width: 0.8; stroke-linejoin: miter; stroke-linecap: square"/>
   </g>
   <g id="patch_6">
    <path d="M 64.41375 23.837812 
L 702.1075 23.837812 
" style="fill: none; stroke: #000000; stroke-width: 0.8; stroke-linejoin: miter; stroke-linecap: square"/>
   </g>
   <g id="text_11">
    <text style="font: 700 14px 'DejaVu Sans', 'Bitstream Vera Sans', 'Computer Modern Sans Serif', 'Lucida Grande', 'Verdana', 'Geneva', 'Lucid', 'Arial', 'Helvetica', 'Avant Garde', sans-serif; text-anchor: middle" x="383.260625" y="17.837813" transform="rotate(-0 383.260625 17.837813)">Matrixops - Performance Trend</text>
   </g>
   <g id="legend_1">
    <g id="patch_7">
     <path d="M 740.992188 119.906563 
L 846.004688 119.906563 
Q 848.004688 119.906563 848.004688 117.906563 
L 848.004688 30.837813 
Q 848.004688 28.837813 846.004688 28.837813 
L 740.992188 28.837813 
Q 738.992188 28.837813 738.992188 30.837813 
L 738.992188 117.906563 
Q 738.992188 119.906563 740.992188 119.906563 
z
" style="fill: #ffffff; opacity: 0.8; stroke: #cccccc; stroke-linejoin: miter"/>
    </g>
    <g id="line2d_25">
     <path d="M 742.992188 36.93625 
L 752.992188 36.93625 
L 762.992188 36.93625 
" style="fill: none; stroke: #1f77b4; stroke-width: 2; stroke-linecap: square"/>
     <g>
      <use xlink:href="#m849b4e002d" x="752.992188" y="36.93625" style="fill: #1f77b4; stroke: #1f77b4"/>
     </g>
    </g>
    <g id="text_12">
     <text style="font: 10px 'DejaVu Sans', 'Bitstream Vera Sans', 'Computer Modern Sans Serif', 'Lucida Grande', 'Verdana', 'Geneva', 'Lucid', 'Arial', 'Helvetica', 'Avant Garde', sans-serif; text-anchor: start" x="770.992188" y="40.43625" transform="rotate(-0 770.992188 40.43625)">gcc-14.2 - V1</text>
    </g>
    <g id="line2d_26">
     <path d="M 742.992188 51.614375 
L 752.992188 51.614375 
L 762.992188 51.614375 
" style="fill: none; stroke: #ff7f0e; stroke-width: 2; stroke-linecap: square"/>
     <g>
      <use xlink:href="#me69b04e273" x="752.992188" y="51.614375" style="fill: #ff7f0e; stroke: #ff7f0e"/>
     </g>
    </g>
    <g id="text_13">
     <text style="font: 10px 'DejaVu Sans', 'Bitstream Vera Sans', 'Computer Modern Sans Serif', 'Lucida Grande', 'Verdana', 'Geneva', 'Lucid', 'Arial', 'Helvetica', 'Avant Garde', sans-serif; text-anchor: start" x="770.992188" y="55.114375" transform="rotate(-0 770.992188 55.114375)">gcc-14.2 - V2</text>
    </g>
    <g id="line2d_27">
     <path d="M 742.992188 66.2925 
L 752.992188 66.2925 
L 762.992188 66.2925 
" style="fill: none; stroke: #2ca02c; stroke-width: 2; stroke-linecap: square"/>
     <g>
      <use xlink:href="#m41055f7f5c" x="752.992188" y="66.2925" style="fill: #2ca02c; stroke: #2ca02c"/>
     </g>
    </g>
    <g id="text_14">
     <text style="font: 10px 'DejaVu Sans', 'Bitstream Vera Sans', 'Computer Modern Sans Serif', 'Lucida Grande', 'Verdana', 'Geneva', 'Lucid', 'Arial', 'Helvetica', 'Avant Garde', sans-serif; text-anchor: start" x="770.992188" y="69.7925" transform="rotate(-0 770.992188 69.7925)">gcc-14.2 - TBB</text>
    </g>
    <g id="line2d_28">
     <path d="M 742.992188 80.970625 
L 752.992188 80.970625 
L 762.992188 80.970625 
" style="fill: none; stroke: #d62728; stroke-width: 2; stroke-linecap: square"/>
     <g>
      <use xlink:href="#m3e9b3368b5" x="752.992188" y="80.970625" style="fill: #d62728; stroke: #d62728"/>
     </g>
    </g>
    <g id="text_15">
     <text style="font: 10px 'DejaVu Sans', 'Bitstream Vera Sans', 'Computer Modern Sans Serif', 'Lucida Grande', 'Verdana', 'Geneva', 'Lucid', 'Arial', 'Helvetica', 'Avant Garde', sans-serif; text-anchor: start" x="770.992188" y="84.470625" transform="rotate(-0 770.992188 84.470625)">gcc-4.2 - V1</text>
    </g>
    <g id="line2d_29">
     <path d="M 742.992188 95.64875 
L 752.992188 95.64875 
L 762.992188 95.64875 
" style="fill: none; stroke: #9467bd; stroke-width: 2; stroke-linecap: square"/>
     <g>
      <use xlink:href="#m3095403192" x="752.992188" y="95.64875" style="fill: #9467bd; stroke: #9467bd"/>
     </g>
    </g>
    <g id="text_16">
     <text style="font: 10px 'DejaVu Sans', 'Bitstream Vera Sans', 'Computer Modern Sans Serif', 'Lucida Grande', 'Verdana', 'Geneva', 'Lucid', 'Arial', 'Helvetica', 'Avant Garde', sans-serif; text-anchor: start" x="770.992188" y="99.14875" transform="rotate(-0 770.992188 99.14875)">gcc-4.2 - V2</text>
    </g>
    <g id="line2d_30">
     <path d="M 742.992188 110.326875 
L 752.992188 110.326875 
L 762.992188 110.326875 
" style="fill: none; stroke: #8c564b; stroke-width: 2; stroke-linecap: square"/>
     <g>
      <use xlink:href="#mc6528663e7" x="752.992188" y="110.326875" style="fill: #8c564b; stroke: #8c564b"/>
     </g>
    </g>
    <g id="text_17">
     <text style="font: 10px 'DejaVu Sans', 'Bitstream Vera Sans', 'Computer Modern Sans Serif', 'Lucida Grande', 'Verdana', 'Geneva', 'Lucid', 'Arial', 'Helvetica', 'Avant Garde', sans-serif; text-anchor: start" x="770.992188" y="113.826875" transform="rotate(-0 770.992188 113.826875)">gcc-4.2 - TBB</text>
    </g>
   </g>
  </g>
 </g>
 <defs>
  <clipPath id="pd4faaad7f7">
   <rect x="64.41375" y="23.837813" width="637.69375" height="505.470313"/>
  </clipPath>
 </defs>
</svg>
