<?xml version="1.0" encoding="utf-8" standalone="no"?>
<!DOCTYPE svg PUBLIC "-//W3C//DTD SVG 1.1//EN"
  "http://www.w3.org/Graphics/SVG/1.1/DTD/svg11.dtd">
<svg xmlns:xlink="http://www.w3.org/1999/xlink" width="855.536016pt" height="568.8pt" viewBox="0 0 855.536016 568.8" xmlns="http://www.w3.org/2000/svg" version="1.1">
 <metadata>
  <rdf:RDF xmlns:dc="http://purl.org/dc/elements/1.1/" xmlns:cc="http://creativecommons.org/ns#" xmlns:rdf="http://www.w3.org/1999/02/22-rdf-syntax-ns#">
   <cc:Work>
    <dc:type rdf:resource="http://purl.org/dc/dcmitype/StillImage"/>
    <dc:date>2025-11-22T20:17:44.123358</dc:date>
    <dc:format>image/svg+xml</dc:format>
    <dc:creator>
     <cc:Agent>
      <dc:title>Matplotlib v3.9.4, https://matplotlib.org/</dc:title>
     </cc:Agent>
    </dc:creator>
   </cc:Work>
  </rdf:RDF>
 </metadata>
 <defs>
  <style type="text/css">*{stroke-linejoin: round; stroke-linecap: butt}</style>
 </defs>
 <g id="figure_1">
  <g id="patch_1">
   <path d="M 0 568.8 
L 855.536016 568.8 
L 855.536016 0 
L 0 0 
z
" style="fill: #ffffff"/>
  </g>
  <g id="axes_1">
   <g id="patch_2">
    <path d="M 64.41375 529.308125 
L 708.734063 529.308125 
L 708.734063 23.837812 
L 64.41375 23.837812 
z
" style="fill: #ffffff"/>
   </g>
   <g id="matplotlib.axis_1">
    <g id="xtick_1">
     <g id="line2d_1">
      <path d="M 82.215826 529.308125 
L 82.215826 23.837812 
" clip-path="url(#pa2122c035a)" style="fill: none; stroke: #b0b0b0; stroke-opacity: 0.3; stroke-width: 0.8; stroke-linecap: square"/>
     </g>
     <g id="line2d_2">
      <defs>
       <path id="m75363ede44" d="M 0 0 
L 0 3.5 
" style="stroke: #000000; stroke-width: 0.8"/>
      </defs>
      <g>
       <use xlink:href="#m75363ede44" x="82.215826" y="529.308125" style="stroke: #000000; stroke-width: 0.8"/>
      </g>
     </g>
     <g id="text_1">
      <text style="font: 10px 'DejaVu Sans', 'Bitstream Vera Sans', 'Computer Modern Sans Serif', 'Lucida Grande', 'Verdana', 'Geneva', 'Lucid', 'Arial', 'Helvetica', 'Avant Garde', sans-serif; text-anchor: middle" x="82.215826" y="543.906563" transform="rotate(-0 82.215826 543.906563)">70</text>
     </g>
    </g>
    <g id="xtick_2">
     <g id="line2d_3">
      <path d="M 197.067932 529.308125 
L 197.067932 23.837812 
" clip-path="url(#pa2122c035a)" style="fill: none; stroke: #b0b0b0; stroke-opacity: 0.3; stroke-width: 0.8; stroke-linecap: square"/>
     </g>
     <g id="line2d_4">
      <g>
       <use xlink:href="#m75363ede44" x="197.067932" y="529.308125" style="stroke: #000000; stroke-width: 0.8"/>
      </g>
     </g>
     <g id="text_2">
      <text style="font: 10px 'DejaVu Sans', 'Bitstream Vera Sans', 'Computer Modern Sans Serif', 'Lucida Grande', 'Verdana', 'Geneva', 'Lucid', 'Arial', 'Helvetica', 'Avant Garde', sans-serif; text-anchor: middle" x="197.067932" y="543.906563" transform="rotate(-0 197.067932 543.906563)">80</text>
     </g>
    </g>
    <g id="xtick_3">
     <g id="line2d_5">
      <path d="M 311.920038 529.308125 
L 311.920038 23.837812 
" clip-path="url(#pa2122c035a)" style="fill: none; stroke: #b0b0b0; stroke-opacity: 0.3; stroke-width: 0.8; stroke-linecap: square"/>
     </g>
     <g id="line2d_6">
      <g>
       <use xlink:href="#m75363ede44" x="311.920038" y="529.308125" style="stroke: #000000; stroke-width: 0.8"/>
      </g>
     </g>
     <g id="text_3">
      <text style="font: 10px 'DejaVu Sans', 'Bitstream Vera Sans', 'Computer Modern Sans Serif', 'Lucida Grande', 'Verdana', 'Geneva', 'Lucid', 'Arial', 'Helvetica', 'Avant Garde', sans-serif; text-anchor: middle" x="311.920038" y="543.906563" transform="rotate(-0 311.920038 543.906563)">90</text>
     </g>
    </g>
    <g id="xtick_4">
     <g id="line2d_7">
      <path d="M 426.772143 529.308125 
L 426.772143 23.837812 
" clip-path="url(#pa2122c035a)" style="fill: none; stroke: #b0b0b0; stroke-opacity: 0.3; stroke-width: 0.8; stroke-linecap: square"/>
     </g>
     <g id="line2d_8">
      <g>
       <use xlink:href="#m75363ede44" x="426.772143" y="529.308125" style="stroke: #000000; stroke-width: 0.8"/>
      </g>
     </g>
     <g id="text_4">
      <text style="font: 10px 'DejaVu Sans', 'Bitstream Vera Sans', 'Computer Modern Sans Serif', 'Lucida Grande', 'Verdana', 'Geneva', 'Lucid', 'Arial', 'Helvetica', 'Avant Garde', sans-serif; text-anchor: middle" x="426.772143" y="543.906563" transform="rotate(-0 426.772143 543.906563)">100</text>
     </g>
    </g>
    <g id="xtick_5">
     <g id="line2d_9">
      <path d="M 541.624249 529.308125 
L 541.624249 23.837812 
" clip-path="url(#pa2122c035a)" style="fill: none; stroke: #b0b0b0; stroke-opacity: 0.3; stroke-width: 0.8; stroke-linecap: square"/>
     </g>
     <g id="line2d_10">
      <g>
       <use xlink:href="#m75363ede44" x="541.624249" y="529.308125" style="stroke: #000000; stroke-width: 0.8"/>
      </g>
     </g>
     <g id="text_5">
      <text style="font: 10px 'DejaVu Sans', 'Bitstream Vera Sans', 'Computer Modern Sans Serif', 'Lucida Grande', 'Verdana', 'Geneva', 'Lucid', 'Arial', 'Helvetica', 'Avant Garde', sans-serif; text-anchor: middle" x="541.624249" y="543.906563" transform="rotate(-0 541.624249 543.906563)">110</text>
     </g>
    </g>
    <g id="xtick_6">
     <g id="line2d_11">
      <path d="M 656.476354 529.308125 
L 656.476354 23.837812 
" clip-path="url(#pa2122c035a)" style="fill: none; stroke: #b0b0b0; stroke-opacity: 0.3; stroke-width: 0.8; stroke-linecap: square"/>
     </g>
     <g id="line2d_12">
      <g>
       <use xlink:href="#m75363ede44" x="656.476354" y="529.308125" style="stroke: #000000; stroke-width: 0.8"/>
      </g>
     </g>
     <g id="text_6">
      <text style="font: 10px 'DejaVu Sans', 'Bitstream Vera Sans', 'Computer Modern Sans Serif', 'Lucida Grande', 'Verdana', 'Geneva', 'Lucid', 'Arial', 'Helvetica', 'Avant Garde', sans-serif; text-anchor: middle" x="656.476354" y="543.906563" transform="rotate(-0 656.476354 543.906563)">120</text>
     </g>
    </g>
    <g id="text_7">
     <text style="font: 12px 'DejaVu Sans', 'Bitstream Vera Sans', 'Computer Modern Sans Serif', 'Lucida Grande', 'Verdana', 'Geneva', 'Lucid', 'Arial', 'Helvetica', 'Avant Garde', sans-serif; text-anchor: middle" x="386.573906" y="559.104375" transform="rotate(-0 386.573906 559.104375)">Build Number</text>
    </g>
   </g>
   <g id="matplotlib.axis_2">
    <g id="ytick_1">
     <g id="line2d_13">
      <path d="M 64.41375 334.291639 
L 708.734063 334.291639 
" clip-path="url(#pa2122c035a)" style="fill: none; stroke: #b0b0b0; stroke-opacity: 0.3; stroke-width: 0.8; stroke-linecap: square"/>
     </g>
     <g id="line2d_14">
      <defs>
       <path id="m432753528d" d="M 0 0 
L -3.5 0 
" style="stroke: #000000; stroke-width: 0.8"/>
      </defs>
      <g>
       <use xlink:href="#m432753528d" x="64.41375" y="334.291639" style="stroke: #000000; stroke-width: 0.8"/>
      </g>
     </g>
     <g id="text_8">
      <!-- $\mathdefault{10^{5}}$ -->
      <g transform="translate(39.81375 338.090858)">
       <text>
        <tspan style="font: 10px 'DejaVu Sans'" x="0 6.362305" y="-0.06406250000000036">10</tspan>
        <tspan style="font: 7px 'DejaVu Sans'" x="12.820312" y="-3.8921875000000004">5</tspan>
       </text>
      </g>
     </g>
    </g>
    <g id="ytick_2">
     <g id="line2d_15">
      <defs>
       <path id="m390ff96b7d" d="M 0 0 
L -2 0 
" style="stroke: #000000; stroke-width: 0.6"/>
      </defs>
      <g>
       <use xlink:href="#m390ff96b7d" x="64.41375" y="505.7097" style="stroke: #000000; stroke-width: 0.6"/>
      </g>
     </g>
     <g id="text_9">
      <!-- $\mathdefault{6\times10^{4}}$ -->
      <g transform="translate(22.81375 509.508919)">
       <text>
        <tspan style="font: 10px 'DejaVu Sans'" x="0 8.310547 18.637695 25" y="-0.06406250000000036">6×10</tspan>
        <tspan style="font: 7px 'DejaVu Sans'" x="31.458008" y="-3.8921875000000004">4</tspan>
       </text>
      </g>
     </g>
    </g>
    <g id="ytick_3">
     <g id="line2d_16">
      <g>
       <use xlink:href="#m390ff96b7d" x="64.41375" y="453.981264" style="stroke: #000000; stroke-width: 0.6"/>
      </g>
     </g>
    </g>
    <g id="ytick_4">
     <g id="line2d_17">
      <g>
       <use xlink:href="#m390ff96b7d" x="64.41375" y="409.172055" style="stroke: #000000; stroke-width: 0.6"/>
      </g>
     </g>
    </g>
    <g id="ytick_5">
     <g id="line2d_18">
      <g>
       <use xlink:href="#m390ff96b7d" x="64.41375" y="369.647531" style="stroke: #000000; stroke-width: 0.6"/>
      </g>
     </g>
    </g>
    <g id="ytick_6">
     <g id="line2d_19">
      <g>
       <use xlink:href="#m390ff96b7d" x="64.41375" y="101.691823" style="stroke: #000000; stroke-width: 0.6"/>
      </g>
     </g>
     <g id="text_10">
      <!-- $\mathdefault{2\times10^{5}}$ -->
      <g transform="translate(22.81375 105.491042)">
       <text>
        <tspan style="font: 10px 'DejaVu Sans'" x="0 8.310547 18.637695 25" y="-0.06406250000000036">2×10</tspan>
        <tspan style="font: 7px 'DejaVu Sans'" x="31.458008" y="-3.8921875000000004">5</tspan>
       </text>
      </g>
     </g>
    </g>
    <g id="text_11">
     <text style="font: 12px 'DejaVu Sans', 'Bitstream Vera Sans', 'Computer Modern Sans Serif', 'Lucida Grande', 'Verdana', 'Geneva', 'Lucid', 'Arial', 'Helvetica', 'Avant Garde', sans-serif; text-anchor: middle" x="16.318125" y="276.572969" transform="rotate(-90 16.318125 276.572969)">Median Elapsed Time (nanoseconds)</text>
    </g>
   </g>
   <g id="line2d_20">
    <path d="M 93.701037 46.813736 
L 105.186247 191.993804 
L 116.671458 203.583288 
L 128.156669 226.939206 
L 139.641879 249.293351 
L 151.12709 197.56458 
L 162.6123 217.514077 
L 174.097511 216.449271 
L 185.582721 213.414453 
L 197.067932 197.627325 
L 208.553143 255.061283 
L 220.038353 181.822836 
L 231.523564 48.546392 
L 243.008774 155.181473 
L 254.493985 255.056248 
L 265.979195 280.19621 
L 288.949616 250.483261 
L 300.434827 243.683337 
L 311.920038 243.288052 
L 323.405248 283.580852 
L 334.890459 283.575659 
L 346.375669 244.097042 
L 357.86088 245.4831 
L 369.34609 283.596143 
L 380.831301 244.026517 
L 392.316512 252.14706 
L 415.286933 107.746626 
L 426.772143 249.935013 
L 438.257354 47.122473 
L 449.742564 283.266816 
L 461.227775 237.087039 
L 472.712985 284.46166 
L 484.198196 243.282935 
L 495.683407 241.955645 
L 518.653828 283.561234 
L 530.139038 282.732565 
L 541.624249 243.462084 
L 553.109459 282.945875 
L 564.59467 244.993097 
L 587.565091 279.539663 
L 599.050302 243.134058 
L 610.535512 282.378211 
L 622.020723 266.883058 
L 633.505933 242.227643 
L 644.991144 283.083261 
L 656.476354 283.101986 
L 667.961565 284.490588 
L 679.446776 230.77908 
" clip-path="url(#pa2122c035a)" style="fill: none; stroke: #1f77b4; stroke-width: 2; stroke-linecap: square"/>
    <defs>
     <path id="m31e6c6f58e" d="M 0 3 
C 0.795609 3 1.55874 2.683901 2.12132 2.12132 
C 2.683901 1.55874 3 0.795609 3 0 
C 3 -0.795609 2.683901 -1.55874 2.12132 -2.12132 
C 1.55874 -2.683901 0.795609 -3 0 -3 
C -0.795609 -3 -1.55874 -2.683901 -2.12132 -2.12132 
C -2.683901 -1.55874 -3 -0.795609 -3 0 
C -3 0.795609 -2.683901 1.55874 -2.12132 2.12132 
C -1.55874 2.683901 -0.795609 3 0 3 
z
" style="stroke: #1f77b4"/>
    </defs>
    <g clip-path="url(#pa2122c035a)">
     <use xlink:href="#m31e6c6f58e" x="93.701037" y="46.813736" style="fill: #1f77b4; stroke: #1f77b4"/>
     <use xlink:href="#m31e6c6f58e" x="105.186247" y="191.993804" style="fill: #1f77b4; stroke: #1f77b4"/>
     <use xlink:href="#m31e6c6f58e" x="116.671458" y="203.583288" style="fill: #1f77b4; stroke: #1f77b4"/>
     <use xlink:href="#m31e6c6f58e" x="128.156669" y="226.939206" style="fill: #1f77b4; stroke: #1f77b4"/>
     <use xlink:href="#m31e6c6f58e" x="139.641879" y="249.293351" style="fill: #1f77b4; stroke: #1f77b4"/>
     <use xlink:href="#m31e6c6f58e" x="151.12709" y="197.56458" style="fill: #1f77b4; stroke: #1f77b4"/>
     <use xlink:href="#m31e6c6f58e" x="162.6123" y="217.514077" style="fill: #1f77b4; stroke: #1f77b4"/>
     <use xlink:href="#m31e6c6f58e" x="174.097511" y="216.449271" style="fill: #1f77b4; stroke: #1f77b4"/>
     <use xlink:href="#m31e6c6f58e" x="185.582721" y="213.414453" style="fill: #1f77b4; stroke: #1f77b4"/>
     <use xlink:href="#m31e6c6f58e" x="197.067932" y="197.627325" style="fill: #1f77b4; stroke: #1f77b4"/>
     <use xlink:href="#m31e6c6f58e" x="208.553143" y="255.061283" style="fill: #1f77b4; stroke: #1f77b4"/>
     <use xlink:href="#m31e6c6f58e" x="220.038353" y="181.822836" style="fill: #1f77b4; stroke: #1f77b4"/>
     <use xlink:href="#m31e6c6f58e" x="231.523564" y="48.546392" style="fill: #1f77b4; stroke: #1f77b4"/>
     <use xlink:href="#m31e6c6f58e" x="243.008774" y="155.181473" style="fill: #1f77b4; stroke: #1f77b4"/>
     <use xlink:href="#m31e6c6f58e" x="254.493985" y="255.056248" style="fill: #1f77b4; stroke: #1f77b4"/>
     <use xlink:href="#m31e6c6f58e" x="265.979195" y="280.19621" style="fill: #1f77b4; stroke: #1f77b4"/>
     <use xlink:href="#m31e6c6f58e" x="288.949616" y="250.483261" style="fill: #1f77b4; stroke: #1f77b4"/>
     <use xlink:href="#m31e6c6f58e" x="300.434827" y="243.683337" style="fill: #1f77b4; stroke: #1f77b4"/>
     <use xlink:href="#m31e6c6f58e" x="311.920038" y="243.288052" style="fill: #1f77b4; stroke: #1f77b4"/>
     <use xlink:href="#m31e6c6f58e" x="323.405248" y="283.580852" style="fill: #1f77b4; stroke: #1f77b4"/>
     <use xlink:href="#m31e6c6f58e" x="334.890459" y="283.575659" style="fill: #1f77b4; stroke: #1f77b4"/>
     <use xlink:href="#m31e6c6f58e" x="346.375669" y="244.097042" style="fill: #1f77b4; stroke: #1f77b4"/>
     <use xlink:href="#m31e6c6f58e" x="357.86088" y="245.4831" style="fill: #1f77b4; stroke: #1f77b4"/>
     <use xlink:href="#m31e6c6f58e" x="369.34609" y="283.596143" style="fill: #1f77b4; stroke: #1f77b4"/>
     <use xlink:href="#m31e6c6f58e" x="380.831301" y="244.026517" style="fill: #1f77b4; stroke: #1f77b4"/>
     <use xlink:href="#m31e6c6f58e" x="392.316512" y="252.14706" style="fill: #1f77b4; stroke: #1f77b4"/>
     <use xlink:href="#m31e6c6f58e" x="415.286933" y="107.746626" style="fill: #1f77b4; stroke: #1f77b4"/>
     <use xlink:href="#m31e6c6f58e" x="426.772143" y="249.935013" style="fill: #1f77b4; stroke: #1f77b4"/>
     <use xlink:href="#m31e6c6f58e" x="438.257354" y="47.122473" style="fill: #1f77b4; stroke: #1f77b4"/>
     <use xlink:href="#m31e6c6f58e" x="449.742564" y="283.266816" style="fill: #1f77b4; stroke: #1f77b4"/>
     <use xlink:href="#m31e6c6f58e" x="461.227775" y="237.087039" style="fill: #1f77b4; stroke: #1f77b4"/>
     <use xlink:href="#m31e6c6f58e" x="472.712985" y="284.46166" style="fill: #1f77b4; stroke: #1f77b4"/>
     <use xlink:href="#m31e6c6f58e" x="484.198196" y="243.282935" style="fill: #1f77b4; stroke: #1f77b4"/>
     <use xlink:href="#m31e6c6f58e" x="495.683407" y="241.955645" style="fill: #1f77b4; stroke: #1f77b4"/>
     <use xlink:href="#m31e6c6f58e" x="518.653828" y="283.561234" style="fill: #1f77b4; stroke: #1f77b4"/>
     <use xlink:href="#m31e6c6f58e" x="530.139038" y="282.732565" style="fill: #1f77b4; stroke: #1f77b4"/>
     <use xlink:href="#m31e6c6f58e" x="541.624249" y="243.462084" style="fill: #1f77b4; stroke: #1f77b4"/>
     <use xlink:href="#m31e6c6f58e" x="553.109459" y="282.945875" style="fill: #1f77b4; stroke: #1f77b4"/>
     <use xlink:href="#m31e6c6f58e" x="564.59467" y="244.993097" style="fill: #1f77b4; stroke: #1f77b4"/>
     <use xlink:href="#m31e6c6f58e" x="587.565091" y="279.539663" style="fill: #1f77b4; stroke: #1f77b4"/>
     <use xlink:href="#m31e6c6f58e" x="599.050302" y="243.134058" style="fill: #1f77b4; stroke: #1f77b4"/>
     <use xlink:href="#m31e6c6f58e" x="610.535512" y="282.378211" style="fill: #1f77b4; stroke: #1f77b4"/>
     <use xlink:href="#m31e6c6f58e" x="622.020723" y="266.883058" style="fill: #1f77b4; stroke: #1f77b4"/>
     <use xlink:href="#m31e6c6f58e" x="633.505933" y="242.227643" style="fill: #1f77b4; stroke: #1f77b4"/>
     <use xlink:href="#m31e6c6f58e" x="644.991144" y="283.083261" style="fill: #1f77b4; stroke: #1f77b4"/>
     <use xlink:href="#m31e6c6f58e" x="656.476354" y="283.101986" style="fill: #1f77b4; stroke: #1f77b4"/>
     <use xlink:href="#m31e6c6f58e" x="667.961565" y="284.490588" style="fill: #1f77b4; stroke: #1f77b4"/>
     <use xlink:href="#m31e6c6f58e" x="679.446776" y="230.77908" style="fill: #1f77b4; stroke: #1f77b4"/>
    </g>
   </g>
   <g id="line2d_21">
    <path d="M 93.701037 240.963675 
L 105.186247 243.863598 
L 116.671458 244.090117 
L 128.156669 246.102545 
L 139.641879 239.261485 
L 151.12709 244.568784 
L 162.6123 239.50832 
L 174.097511 247.747045 
L 185.582721 241.093226 
L 197.067932 247.539422 
L 208.553143 242.14731 
L 220.038353 245.28202 
L 231.523564 248.914302 
L 243.008774 244.728064 
L 254.493985 249.45098 
L 265.979195 239.165431 
L 288.949616 244.109353 
L 300.434827 241.526717 
L 311.920038 244.443983 
L 323.405248 247.414482 
L 334.890459 239.866502 
L 346.375669 237.098844 
L 357.86088 237.606123 
L 369.34609 235.646113 
L 380.831301 280.614175 
L 392.316512 247.512733 
L 415.286933 279.756862 
L 426.772143 281.661443 
L 438.257354 280.709844 
L 449.742564 280.122753 
L 461.227775 279.068518 
L 472.712985 280.640628 
L 484.198196 279.542799 
L 495.683407 279.805152 
L 518.653828 278.523852 
L 530.139038 281.342606 
L 541.624249 277.611705 
L 553.109459 277.650819 
L 564.59467 277.88645 
L 587.565091 277.597534 
L 599.050302 275.094208 
L 610.535512 279.209807 
L 622.020723 278.976304 
L 633.505933 280.133953 
L 644.991144 278.249436 
L 656.476354 279.950675 
L 667.961565 280.301902 
L 679.446776 229.273386 
" clip-path="url(#pa2122c035a)" style="fill: none; stroke: #ff7f0e; stroke-width: 2; stroke-linecap: square"/>
    <defs>
     <path id="mf00a869ded" d="M 0 3 
C 0.795609 3 1.55874 2.683901 2.12132 2.12132 
C 2.683901 1.55874 3 0.795609 3 0 
C 3 -0.795609 2.683901 -1.55874 2.12132 -2.12132 
C 1.55874 -2.683901 0.795609 -3 0 -3 
C -0.795609 -3 -1.55874 -2.683901 -2.12132 -2.12132 
C -2.683901 -1.55874 -3 -0.795609 -3 0 
C -3 0.795609 -2.683901 1.55874 -2.12132 2.12132 
C -1.55874 2.683901 -0.795609 3 0 3 
z
" style="stroke: #ff7f0e"/>
    </defs>
    <g clip-path="url(#pa2122c035a)">
     <use xlink:href="#mf00a869ded" x="93.701037" y="240.963675" style="fill: #ff7f0e; stroke: #ff7f0e"/>
     <use xlink:href="#mf00a869ded" x="105.186247" y="243.863598" style="fill: #ff7f0e; stroke: #ff7f0e"/>
     <use xlink:href="#mf00a869ded" x="116.671458" y="244.090117" style="fill: #ff7f0e; stroke: #ff7f0e"/>
     <use xlink:href="#mf00a869ded" x="128.156669" y="246.102545" style="fill: #ff7f0e; stroke: #ff7f0e"/>
     <use xlink:href="#mf00a869ded" x="139.641879" y="239.261485" style="fill: #ff7f0e; stroke: #ff7f0e"/>
     <use xlink:href="#mf00a869ded" x="151.12709" y="244.568784" style="fill: #ff7f0e; stroke: #ff7f0e"/>
     <use xlink:href="#mf00a869ded" x="162.6123" y="239.50832" style="fill: #ff7f0e; stroke: #ff7f0e"/>
     <use xlink:href="#mf00a869ded" x="174.097511" y="247.747045" style="fill: #ff7f0e; stroke: #ff7f0e"/>
     <use xlink:href="#mf00a869ded" x="185.582721" y="241.093226" style="fill: #ff7f0e; stroke: #ff7f0e"/>
     <use xlink:href="#mf00a869ded" x="197.067932" y="247.539422" style="fill: #ff7f0e; stroke: #ff7f0e"/>
     <use xlink:href="#mf00a869ded" x="208.553143" y="242.14731" style="fill: #ff7f0e; stroke: #ff7f0e"/>
     <use xlink:href="#mf00a869ded" x="220.038353" y="245.28202" style="fill: #ff7f0e; stroke: #ff7f0e"/>
     <use xlink:href="#mf00a869ded" x="231.523564" y="248.914302" style="fill: #ff7f0e; stroke: #ff7f0e"/>
     <use xlink:href="#mf00a869ded" x="243.008774" y="244.728064" style="fill: #ff7f0e; stroke: #ff7f0e"/>
     <use xlink:href="#mf00a869ded" x="254.493985" y="249.45098" style="fill: #ff7f0e; stroke: #ff7f0e"/>
     <use xlink:href="#mf00a869ded" x="265.979195" y="239.165431" style="fill: #ff7f0e; stroke: #ff7f0e"/>
     <use xlink:href="#mf00a869ded" x="288.949616" y="244.109353" style="fill: #ff7f0e; stroke: #ff7f0e"/>
     <use xlink:href="#mf00a869ded" x="300.434827" y="241.526717" style="fill: #ff7f0e; stroke: #ff7f0e"/>
     <use xlink:href="#mf00a869ded" x="311.920038" y="244.443983" style="fill: #ff7f0e; stroke: #ff7f0e"/>
     <use xlink:href="#mf00a869ded" x="323.405248" y="247.414482" style="fill: #ff7f0e; stroke: #ff7f0e"/>
     <use xlink:href="#mf00a869ded" x="334.890459" y="239.866502" style="fill: #ff7f0e; stroke: #ff7f0e"/>
     <use xlink:href="#mf00a869ded" x="346.375669" y="237.098844" style="fill: #ff7f0e; stroke: #ff7f0e"/>
     <use xlink:href="#mf00a869ded" x="357.86088" y="237.606123" style="fill: #ff7f0e; stroke: #ff7f0e"/>
     <use xlink:href="#mf00a869ded" x="369.34609" y="235.646113" style="fill: #ff7f0e; stroke: #ff7f0e"/>
     <use xlink:href="#mf00a869ded" x="380.831301" y="280.614175" style="fill: #ff7f0e; stroke: #ff7f0e"/>
     <use xlink:href="#mf00a869ded" x="392.316512" y="247.512733" style="fill: #ff7f0e; stroke: #ff7f0e"/>
     <use xlink:href="#mf00a869ded" x="415.286933" y="279.756862" style="fill: #ff7f0e; stroke: #ff7f0e"/>
     <use xlink:href="#mf00a869ded" x="426.772143" y="281.661443" style="fill: #ff7f0e; stroke: #ff7f0e"/>
     <use xlink:href="#mf00a869ded" x="438.257354" y="280.709844" style="fill: #ff7f0e; stroke: #ff7f0e"/>
     <use xlink:href="#mf00a869ded" x="449.742564" y="280.122753" style="fill: #ff7f0e; stroke: #ff7f0e"/>
     <use xlink:href="#mf00a869ded" x="461.227775" y="279.068518" style="fill: #ff7f0e; stroke: #ff7f0e"/>
     <use xlink:href="#mf00a869ded" x="472.712985" y="280.640628" style="fill: #ff7f0e; stroke: #ff7f0e"/>
     <use xlink:href="#mf00a869ded" x="484.198196" y="279.542799" style="fill: #ff7f0e; stroke: #ff7f0e"/>
     <use xlink:href="#mf00a869ded" x="495.683407" y="279.805152" style="fill: #ff7f0e; stroke: #ff7f0e"/>
     <use xlink:href="#mf00a869ded" x="518.653828" y="278.523852" style="fill: #ff7f0e; stroke: #ff7f0e"/>
     <use xlink:href="#mf00a869ded" x="530.139038" y="281.342606" style="fill: #ff7f0e; stroke: #ff7f0e"/>
     <use xlink:href="#mf00a869ded" x="541.624249" y="277.611705" style="fill: #ff7f0e; stroke: #ff7f0e"/>
     <use xlink:href="#mf00a869ded" x="553.109459" y="277.650819" style="fill: #ff7f0e; stroke: #ff7f0e"/>
     <use xlink:href="#mf00a869ded" x="564.59467" y="277.88645" style="fill: #ff7f0e; stroke: #ff7f0e"/>
     <use xlink:href="#mf00a869ded" x="587.565091" y="277.597534" style="fill: #ff7f0e; stroke: #ff7f0e"/>
     <use xlink:href="#mf00a869ded" x="599.050302" y="275.094208" style="fill: #ff7f0e; stroke: #ff7f0e"/>
     <use xlink:href="#mf00a869ded" x="610.535512" y="279.209807" style="fill: #ff7f0e; stroke: #ff7f0e"/>
     <use xlink:href="#mf00a869ded" x="622.020723" y="278.976304" style="fill: #ff7f0e; stroke: #ff7f0e"/>
     <use xlink:href="#mf00a869ded" x="633.505933" y="280.133953" style="fill: #ff7f0e; stroke: #ff7f0e"/>
     <use xlink:href="#mf00a869ded" x="644.991144" y="278.249436" style="fill: #ff7f0e; stroke: #ff7f0e"/>
     <use xlink:href="#mf00a869ded" x="656.476354" y="279.950675" style="fill: #ff7f0e; stroke: #ff7f0e"/>
     <use xlink:href="#mf00a869ded" x="667.961565" y="280.301902" style="fill: #ff7f0e; stroke: #ff7f0e"/>
     <use xlink:href="#mf00a869ded" x="679.446776" y="229.273386" style="fill: #ff7f0e; stroke: #ff7f0e"/>
    </g>
   </g>
   <g id="line2d_22">
    <path d="M 93.701037 414.551779 
L 105.186247 497.463966 
L 116.671458 414.97317 
L 128.156669 486.590358 
L 139.641879 488.58483 
L 151.12709 494.968464 
L 162.6123 431.17622 
L 174.097511 259.841298 
L 185.582721 504.165161 
L 197.067932 502.411088 
L 208.553143 448.322626 
L 220.038353 415.961606 
L 231.523564 472.805361 
L 254.493985 490.422322 
L 265.979195 432.542825 
L 288.949616 506.332202 
L 300.434827 259.267362 
L 311.920038 486.236577 
L 323.405248 481.772945 
L 334.890459 501.586919 
L 357.86088 503.321129 
L 369.34609 460.778799 
L 380.831301 459.561443 
L 392.316512 479.86882 
L 415.286933 480.855226 
L 426.772143 500.319467 
L 438.257354 505.890118 
L 449.742564 501.949525 
L 461.227775 487.90366 
L 472.712985 260.377715 
L 484.198196 480.387571 
L 495.683407 503.662823 
L 518.653828 478.550422 
L 530.139038 502.536827 
L 541.624249 478.931817 
L 564.59467 479.468257 
L 599.050302 480.315489 
L 610.535512 264.460841 
L 622.020723 266.315517 
L 633.505933 479.595516 
L 644.991144 480.747697 
L 656.476354 486.979948 
L 667.961565 482.643414 
L 679.446776 501.323501 
" clip-path="url(#pa2122c035a)" style="fill: none; stroke: #2ca02c; stroke-width: 2; stroke-linecap: square"/>
    <defs>
     <path id="m4dadee7be7" d="M 0 3 
C 0.795609 3 1.55874 2.683901 2.12132 2.12132 
C 2.683901 1.55874 3 0.795609 3 0 
C 3 -0.795609 2.683901 -1.55874 2.12132 -2.12132 
C 1.55874 -2.683901 0.795609 -3 0 -3 
C -0.795609 -3 -1.55874 -2.683901 -2.12132 -2.12132 
C -2.683901 -1.55874 -3 -0.795609 -3 0 
C -3 0.795609 -2.683901 1.55874 -2.12132 2.12132 
C -1.55874 2.683901 -0.795609 3 0 3 
z
" style="stroke: #2ca02c"/>
    </defs>
    <g clip-path="url(#pa2122c035a)">
     <use xlink:href="#m4dadee7be7" x="93.701037" y="414.551779" style="fill: #2ca02c; stroke: #2ca02c"/>
     <use xlink:href="#m4dadee7be7" x="105.186247" y="497.463966" style="fill: #2ca02c; stroke: #2ca02c"/>
     <use xlink:href="#m4dadee7be7" x="116.671458" y="414.97317" style="fill: #2ca02c; stroke: #2ca02c"/>
     <use xlink:href="#m4dadee7be7" x="128.156669" y="486.590358" style="fill: #2ca02c; stroke: #2ca02c"/>
     <use xlink:href="#m4dadee7be7" x="139.641879" y="488.58483" style="fill: #2ca02c; stroke: #2ca02c"/>
     <use xlink:href="#m4dadee7be7" x="151.12709" y="494.968464" style="fill: #2ca02c; stroke: #2ca02c"/>
     <use xlink:href="#m4dadee7be7" x="162.6123" y="431.17622" style="fill: #2ca02c; stroke: #2ca02c"/>
     <use xlink:href="#m4dadee7be7" x="174.097511" y="259.841298" style="fill: #2ca02c; stroke: #2ca02c"/>
     <use xlink:href="#m4dadee7be7" x="185.582721" y="504.165161" style="fill: #2ca02c; stroke: #2ca02c"/>
     <use xlink:href="#m4dadee7be7" x="197.067932" y="502.411088" style="fill: #2ca02c; stroke: #2ca02c"/>
     <use xlink:href="#m4dadee7be7" x="208.553143" y="448.322626" style="fill: #2ca02c; stroke: #2ca02c"/>
     <use xlink:href="#m4dadee7be7" x="220.038353" y="415.961606" style="fill: #2ca02c; stroke: #2ca02c"/>
     <use xlink:href="#m4dadee7be7" x="231.523564" y="472.805361" style="fill: #2ca02c; stroke: #2ca02c"/>
     <use xlink:href="#m4dadee7be7" x="254.493985" y="490.422322" style="fill: #2ca02c; stroke: #2ca02c"/>
     <use xlink:href="#m4dadee7be7" x="265.979195" y="432.542825" style="fill: #2ca02c; stroke: #2ca02c"/>
     <use xlink:href="#m4dadee7be7" x="288.949616" y="506.332202" style="fill: #2ca02c; stroke: #2ca02c"/>
     <use xlink:href="#m4dadee7be7" x="300.434827" y="259.267362" style="fill: #2ca02c; stroke: #2ca02c"/>
     <use xlink:href="#m4dadee7be7" x="311.920038" y="486.236577" style="fill: #2ca02c; stroke: #2ca02c"/>
     <use xlink:href="#m4dadee7be7" x="323.405248" y="481.772945" style="fill: #2ca02c; stroke: #2ca02c"/>
     <use xlink:href="#m4dadee7be7" x="334.890459" y="501.586919" style="fill: #2ca02c; stroke: #2ca02c"/>
     <use xlink:href="#m4dadee7be7" x="357.86088" y="503.321129" style="fill: #2ca02c; stroke: #2ca02c"/>
     <use xlink:href="#m4dadee7be7" x="369.34609" y="460.778799" style="fill: #2ca02c; stroke: #2ca02c"/>
     <use xlink:href="#m4dadee7be7" x="380.831301" y="459.561443" style="fill: #2ca02c; stroke: #2ca02c"/>
     <use xlink:href="#m4dadee7be7" x="392.316512" y="479.86882" style="fill: #2ca02c; stroke: #2ca02c"/>
     <use xlink:href="#m4dadee7be7" x="415.286933" y="480.855226" style="fill: #2ca02c; stroke: #2ca02c"/>
     <use xlink:href="#m4dadee7be7" x="426.772143" y="500.319467" style="fill: #2ca02c; stroke: #2ca02c"/>
     <use xlink:href="#m4dadee7be7" x="438.257354" y="505.890118" style="fill: #2ca02c; stroke: #2ca02c"/>
     <use xlink:href="#m4dadee7be7" x="449.742564" y="501.949525" style="fill: #2ca02c; stroke: #2ca02c"/>
     <use xlink:href="#m4dadee7be7" x="461.227775" y="487.90366" style="fill: #2ca02c; stroke: #2ca02c"/>
     <use xlink:href="#m4dadee7be7" x="472.712985" y="260.377715" style="fill: #2ca02c; stroke: #2ca02c"/>
     <use xlink:href="#m4dadee7be7" x="484.198196" y="480.387571" style="fill: #2ca02c; stroke: #2ca02c"/>
     <use xlink:href="#m4dadee7be7" x="495.683407" y="503.662823" style="fill: #2ca02c; stroke: #2ca02c"/>
     <use xlink:href="#m4dadee7be7" x="518.653828" y="478.550422" style="fill: #2ca02c; stroke: #2ca02c"/>
     <use xlink:href="#m4dadee7be7" x="530.139038" y="502.536827" style="fill: #2ca02c; stroke: #2ca02c"/>
     <use xlink:href="#m4dadee7be7" x="541.624249" y="478.931817" style="fill: #2ca02c; stroke: #2ca02c"/>
     <use xlink:href="#m4dadee7be7" x="564.59467" y="479.468257" style="fill: #2ca02c; stroke: #2ca02c"/>
     <use xlink:href="#m4dadee7be7" x="599.050302" y="480.315489" style="fill: #2ca02c; stroke: #2ca02c"/>
     <use xlink:href="#m4dadee7be7" x="610.535512" y="264.460841" style="fill: #2ca02c; stroke: #2ca02c"/>
     <use xlink:href="#m4dadee7be7" x="622.020723" y="266.315517" style="fill: #2ca02c; stroke: #2ca02c"/>
     <use xlink:href="#m4dadee7be7" x="633.505933" y="479.595516" style="fill: #2ca02c; stroke: #2ca02c"/>
     <use xlink:href="#m4dadee7be7" x="644.991144" y="480.747697" style="fill: #2ca02c; stroke: #2ca02c"/>
     <use xlink:href="#m4dadee7be7" x="656.476354" y="486.979948" style="fill: #2ca02c; stroke: #2ca02c"/>
     <use xlink:href="#m4dadee7be7" x="667.961565" y="482.643414" style="fill: #2ca02c; stroke: #2ca02c"/>
     <use xlink:href="#m4dadee7be7" x="679.446776" y="501.323501" style="fill: #2ca02c; stroke: #2ca02c"/>
    </g>
   </g>
   <g id="line2d_23">
    <path d="M 93.701037 459.866222 
L 105.186247 455.143871 
L 116.671458 459.420607 
L 128.156669 457.27833 
L 139.641879 460.575215 
L 151.12709 466.993507 
L 162.6123 458.812133 
L 174.097511 457.180552 
L 185.582721 460.001714 
L 197.067932 457.742438 
L 208.553143 461.889521 
L 220.038353 465.712231 
L 231.523564 421.868996 
L 254.493985 457.412458 
L 265.979195 454.1049 
L 288.949616 488.92886 
L 300.434827 458.206217 
L 311.920038 456.170075 
L 323.405248 461.129246 
L 334.890459 463.233246 
L 357.86088 459.084593 
L 369.34609 457.457502 
L 380.831301 478.796034 
L 392.316512 480.720181 
L 415.286933 466.047993 
L 426.772143 478.470998 
L 438.257354 479.912321 
L 449.742564 480.445663 
L 461.227775 480.535415 
L 472.712985 481.301371 
L 484.198196 479.19993 
L 495.683407 481.650745 
L 518.653828 479.964115 
L 530.139038 477.156529 
L 541.624249 479.532915 
L 564.59467 478.356021 
L 599.050302 479.652501 
L 610.535512 473.040713 
L 622.020723 478.914776 
L 633.505933 482.302114 
L 644.991144 477.868194 
L 656.476354 480.654774 
L 667.961565 478.980361 
L 679.446776 483.405024 
" clip-path="url(#pa2122c035a)" style="fill: none; stroke: #d62728; stroke-width: 2; stroke-linecap: square"/>
    <defs>
     <path id="m7073b049ec" d="M 0 3 
C 0.795609 3 1.55874 2.683901 2.12132 2.12132 
C 2.683901 1.55874 3 0.795609 3 0 
C 3 -0.795609 2.683901 -1.55874 2.12132 -2.12132 
C 1.55874 -2.683901 0.795609 -3 0 -3 
C -0.795609 -3 -1.55874 -2.683901 -2.12132 -2.12132 
C -2.683901 -1.55874 -3 -0.795609 -3 0 
C -3 0.795609 -2.683901 1.55874 -2.12132 2.12132 
C -1.55874 2.683901 -0.795609 3 0 3 
z
" style="stroke: #d62728"/>
    </defs>
    <g clip-path="url(#pa2122c035a)">
     <use xlink:href="#m7073b049ec" x="93.701037" y="459.866222" style="fill: #d62728; stroke: #d62728"/>
     <use xlink:href="#m7073b049ec" x="105.186247" y="455.143871" style="fill: #d62728; stroke: #d62728"/>
     <use xlink:href="#m7073b049ec" x="116.671458" y="459.420607" style="fill: #d62728; stroke: #d62728"/>
     <use xlink:href="#m7073b049ec" x="128.156669" y="457.27833" style="fill: #d62728; stroke: #d62728"/>
     <use xlink:href="#m7073b049ec" x="139.641879" y="460.575215" style="fill: #d62728; stroke: #d62728"/>
     <use xlink:href="#m7073b049ec" x="151.12709" y="466.993507" style="fill: #d62728; stroke: #d62728"/>
     <use xlink:href="#m7073b049ec" x="162.6123" y="458.812133" style="fill: #d62728; stroke: #d62728"/>
     <use xlink:href="#m7073b049ec" x="174.097511" y="457.180552" style="fill: #d62728; stroke: #d62728"/>
     <use xlink:href="#m7073b049ec" x="185.582721" y="460.001714" style="fill: #d62728; stroke: #d62728"/>
     <use xlink:href="#m7073b049ec" x="197.067932" y="457.742438" style="fill: #d62728; stroke: #d62728"/>
     <use xlink:href="#m7073b049ec" x="208.553143" y="461.889521" style="fill: #d62728; stroke: #d62728"/>
     <use xlink:href="#m7073b049ec" x="220.038353" y="465.712231" style="fill: #d62728; stroke: #d62728"/>
     <use xlink:href="#m7073b049ec" x="231.523564" y="421.868996" style="fill: #d62728; stroke: #d62728"/>
     <use xlink:href="#m7073b049ec" x="254.493985" y="457.412458" style="fill: #d62728; stroke: #d62728"/>
     <use xlink:href="#m7073b049ec" x="265.979195" y="454.1049" style="fill: #d62728; stroke: #d62728"/>
     <use xlink:href="#m7073b049ec" x="288.949616" y="488.92886" style="fill: #d62728; stroke: #d62728"/>
     <use xlink:href="#m7073b049ec" x="300.434827" y="458.206217" style="fill: #d62728; stroke: #d62728"/>
     <use xlink:href="#m7073b049ec" x="311.920038" y="456.170075" style="fill: #d62728; stroke: #d62728"/>
     <use xlink:href="#m7073b049ec" x="323.405248" y="461.129246" style="fill: #d62728; stroke: #d62728"/>
     <use xlink:href="#m7073b049ec" x="334.890459" y="463.233246" style="fill: #d62728; stroke: #d62728"/>
     <use xlink:href="#m7073b049ec" x="357.86088" y="459.084593" style="fill: #d62728; stroke: #d62728"/>
     <use xlink:href="#m7073b049ec" x="369.34609" y="457.457502" style="fill: #d62728; stroke: #d62728"/>
     <use xlink:href="#m7073b049ec" x="380.831301" y="478.796034" style="fill: #d62728; stroke: #d62728"/>
     <use xlink:href="#m7073b049ec" x="392.316512" y="480.720181" style="fill: #d62728; stroke: #d62728"/>
     <use xlink:href="#m7073b049ec" x="415.286933" y="466.047993" style="fill: #d62728; stroke: #d62728"/>
     <use xlink:href="#m7073b049ec" x="426.772143" y="478.470998" style="fill: #d62728; stroke: #d62728"/>
     <use xlink:href="#m7073b049ec" x="438.257354" y="479.912321" style="fill: #d62728; stroke: #d62728"/>
     <use xlink:href="#m7073b049ec" x="449.742564" y="480.445663" style="fill: #d62728; stroke: #d62728"/>
     <use xlink:href="#m7073b049ec" x="461.227775" y="480.535415" style="fill: #d62728; stroke: #d62728"/>
     <use xlink:href="#m7073b049ec" x="472.712985" y="481.301371" style="fill: #d62728; stroke: #d62728"/>
     <use xlink:href="#m7073b049ec" x="484.198196" y="479.19993" style="fill: #d62728; stroke: #d62728"/>
     <use xlink:href="#m7073b049ec" x="495.683407" y="481.650745" style="fill: #d62728; stroke: #d62728"/>
     <use xlink:href="#m7073b049ec" x="518.653828" y="479.964115" style="fill: #d62728; stroke: #d62728"/>
     <use xlink:href="#m7073b049ec" x="530.139038" y="477.156529" style="fill: #d62728; stroke: #d62728"/>
     <use xlink:href="#m7073b049ec" x="541.624249" y="479.532915" style="fill: #d62728; stroke: #d62728"/>
     <use xlink:href="#m7073b049ec" x="564.59467" y="478.356021" style="fill: #d62728; stroke: #d62728"/>
     <use xlink:href="#m7073b049ec" x="599.050302" y="479.652501" style="fill: #d62728; stroke: #d62728"/>
     <use xlink:href="#m7073b049ec" x="610.535512" y="473.040713" style="fill: #d62728; stroke: #d62728"/>
     <use xlink:href="#m7073b049ec" x="622.020723" y="478.914776" style="fill: #d62728; stroke: #d62728"/>
     <use xlink:href="#m7073b049ec" x="633.505933" y="482.302114" style="fill: #d62728; stroke: #d62728"/>
     <use xlink:href="#m7073b049ec" x="644.991144" y="477.868194" style="fill: #d62728; stroke: #d62728"/>
     <use xlink:href="#m7073b049ec" x="656.476354" y="480.654774" style="fill: #d62728; stroke: #d62728"/>
     <use xlink:href="#m7073b049ec" x="667.961565" y="478.980361" style="fill: #d62728; stroke: #d62728"/>
     <use xlink:href="#m7073b049ec" x="679.446776" y="483.405024" style="fill: #d62728; stroke: #d62728"/>
    </g>
   </g>
   <g id="patch_3">
    <path d="M 64.41375 529.308125 
L 64.41375 23.837813 
" style="fill: none; stroke: #000000; stroke-width: 0.8; stroke-linejoin: miter; stroke-linecap: square"/>
   </g>
   <g id="patch_4">
    <path d="M 708.734063 529.308125 
L 708.734063 23.837813 
" style="fill: none; stroke: #000000; stroke-width: 0.8; stroke-linejoin: miter; stroke-linecap: square"/>
   </g>
   <g id="patch_5">
    <path d="M 64.41375 529.308125 
L 708.734063 529.308125 
" style="fill: none; stroke: #000000; stroke-width: 0.8; stroke-linejoin: miter; stroke-linecap: square"/>
   </g>
   <g id="patch_6">
    <path d="M 64.41375 23.837812 
L 708.734063 23.837812 
" style="fill: none; stroke: #000000; stroke-width: 0.8; stroke-linejoin: miter; stroke-linecap: square"/>
   </g>
   <g id="text_12">
    <text style="font: 700 14px 'DejaVu Sans', 'Bitstream Vera Sans', 'Computer Modern Sans Serif', 'Lucida Grande', 'Verdana', 'Geneva', 'Lucid', 'Arial', 'Helvetica', 'Avant Garde', sans-serif; text-anchor: middle" x="386.573906" y="17.837813" transform="rotate(-0 386.573906 17.837813)">Nestedparallel - Performance Trend</text>
   </g>
   <g id="legend_1">
    <g id="patch_7">
     <path d="M 747.950078 90.550312 
L 846.336016 90.550312 
Q 848.336016 90.550312 848.336016 88.550312 
L 848.336016 30.837812 
Q 848.336016 28.837812 846.336016 28.837812 
L 747.950078 28.837812 
Q 745.950078 28.837812 745.950078 30.837812 
L 745.950078 88.550312 
Q 745.950078 90.550312 747.950078 90.550312 
z
" style="fill: #ffffff; opacity: 0.8; stroke: #cccccc; stroke-linejoin: miter"/>
    </g>
    <g id="line2d_24">
     <path d="M 749.950078 36.93625 
L 759.950078 36.93625 
L 769.950078 36.93625 
" style="fill: none; stroke: #1f77b4; stroke-width: 2; stroke-linecap: square"/>
     <g>
      <use xlink:href="#m31e6c6f58e" x="759.950078" y="36.93625" style="fill: #1f77b4; stroke: #1f77b4"/>
     </g>
    </g>
    <g id="text_13">
     <text style="font: 10px 'DejaVu Sans', 'Bitstream Vera Sans', 'Computer Modern Sans Serif', 'Lucida Grande', 'Verdana', 'Geneva', 'Lucid', 'Arial', 'Helvetica', 'Avant Garde', sans-serif; text-anchor: start" x="777.950078" y="40.43625" transform="rotate(-0 777.950078 40.43625)">gcc-14.2 - V1</text>
    </g>
    <g id="line2d_25">
     <path d="M 749.950078 51.614375 
L 759.950078 51.614375 
L 769.950078 51.614375 
" style="fill: none; stroke: #ff7f0e; stroke-width: 2; stroke-linecap: square"/>
     <g>
      <use xlink:href="#mf00a869ded" x="759.950078" y="51.614375" style="fill: #ff7f0e; stroke: #ff7f0e"/>
     </g>
    </g>
    <g id="text_14">
     <text style="font: 10px 'DejaVu Sans', 'Bitstream Vera Sans', 'Computer Modern Sans Serif', 'Lucida Grande', 'Verdana', 'Geneva', 'Lucid', 'Arial', 'Helvetica', 'Avant Garde', sans-serif; text-anchor: start" x="777.950078" y="55.114375" transform="rotate(-0 777.950078 55.114375)">gcc-14.2 - V2</text>
    </g>
    <g id="line2d_26">
     <path d="M 749.950078 66.2925 
L 759.950078 66.2925 
L 769.950078 66.2925 
" style="fill: none; stroke: #2ca02c; stroke-width: 2; stroke-linecap: square"/>
     <g>
      <use xlink:href="#m4dadee7be7" x="759.950078" y="66.2925" style="fill: #2ca02c; stroke: #2ca02c"/>
     </g>
    </g>
    <g id="text_15">
     <text style="font: 10px 'DejaVu Sans', 'Bitstream Vera Sans', 'Computer Modern Sans Serif', 'Lucida Grande', 'Verdana', 'Geneva', 'Lucid', 'Arial', 'Helvetica', 'Avant Garde', sans-serif; text-anchor: start" x="777.950078" y="69.7925" transform="rotate(-0 777.950078 69.7925)">gcc-4.2 - V1</text>
    </g>
    <g id="line2d_27">
     <path d="M 749.950078 80.970625 
L 759.950078 80.970625 
L 769.950078 80.970625 
" style="fill: none; stroke: #d62728; stroke-width: 2; stroke-linecap: square"/>
     <g>
      <use xlink:href="#m7073b049ec" x="759.950078" y="80.970625" style="fill: #d62728; stroke: #d62728"/>
     </g>
    </g>
    <g id="text_16">
     <text style="font: 10px 'DejaVu Sans', 'Bitstream Vera Sans', 'Computer Modern Sans Serif', 'Lucida Grande', 'Verdana', 'Geneva', 'Lucid', 'Arial', 'Helvetica', 'Avant Garde', sans-serif; text-anchor: start" x="777.950078" y="84.470625" transform="rotate(-0 777.950078 84.470625)">gcc-4.2 - V2</text>
    </g>
   </g>
  </g>
 </g>
 <defs>
  <clipPath id="pa2122c035a">
   <rect x="64.41375" y="23.837813" width="644.320312" height="505.470313"/>
  </clipPath>
 </defs>
</svg>
