<?xml version="1.0" encoding="utf-8" standalone="no"?>
<!DOCTYPE svg PUBLIC "-//W3C//DTD SVG 1.1//EN"
  "http://www.w3.org/Graphics/SVG/1.1/DTD/svg11.dtd">
<svg xmlns:xlink="http://www.w3.org/1999/xlink" width="855.536016pt" height="568.8pt" viewBox="0 0 855.536016 568.8" xmlns="http://www.w3.org/2000/svg" version="1.1">
 <metadata>
  <rdf:RDF xmlns:dc="http://purl.org/dc/elements/1.1/" xmlns:cc="http://creativecommons.org/ns#" xmlns:rdf="http://www.w3.org/1999/02/22-rdf-syntax-ns#">
   <cc:Work>
    <dc:type rdf:resource="http://purl.org/dc/dcmitype/StillImage"/>
    <dc:date>2026-03-15T13:27:26.171262</dc:date>
    <dc:format>image/svg+xml</dc:format>
    <dc:creator>
     <cc:Agent>
      <dc:title>Matplotlib v3.9.4, https://matplotlib.org/</dc:title>
     </cc:Agent>
    </dc:creator>
   </cc:Work>
  </rdf:RDF>
 </metadata>
 <defs>
  <style type="text/css">*{stroke-linejoin: round; stroke-linecap: butt}</style>
 </defs>
 <g id="figure_1">
  <g id="patch_1">
   <path d="M 0 568.8 
L 855.536016 568.8 
L 855.536016 0 
L 0 0 
z
" style="fill: #ffffff"/>
  </g>
  <g id="axes_1">
   <g id="patch_2">
    <path d="M 64.41375 529.308125 
L 708.734063 529.308125 
L 708.734063 23.837812 
L 64.41375 23.837812 
z
" style="fill: #ffffff"/>
   </g>
   <g id="matplotlib.axis_1">
    <g id="xtick_1">
     <g id="line2d_1">
      <path d="M 83.051114 529.308125 
L 83.051114 23.837812 
" clip-path="url(#p61ed64340a)" style="fill: none; stroke: #b0b0b0; stroke-opacity: 0.3; stroke-width: 0.8; stroke-linecap: square"/>
     </g>
     <g id="line2d_2">
      <defs>
       <path id="mc0eaddb243" d="M 0 0 
L 0 3.5 
" style="stroke: #000000; stroke-width: 0.8"/>
      </defs>
      <g>
       <use xlink:href="#mc0eaddb243" x="83.051114" y="529.308125" style="stroke: #000000; stroke-width: 0.8"/>
      </g>
     </g>
     <g id="text_1">
      <text style="font: 10px 'DejaVu Sans', 'Bitstream Vera Sans', 'Computer Modern Sans Serif', 'Lucida Grande', 'Verdana', 'Geneva', 'Lucid', 'Arial', 'Helvetica', 'Avant Garde', sans-serif; text-anchor: middle" x="83.051114" y="543.906563" transform="rotate(-0 83.051114 543.906563)">70</text>
     </g>
    </g>
    <g id="xtick_2">
     <g id="line2d_3">
      <path d="M 189.55034 529.308125 
L 189.55034 23.837812 
" clip-path="url(#p61ed64340a)" style="fill: none; stroke: #b0b0b0; stroke-opacity: 0.3; stroke-width: 0.8; stroke-linecap: square"/>
     </g>
     <g id="line2d_4">
      <g>
       <use xlink:href="#mc0eaddb243" x="189.55034" y="529.308125" style="stroke: #000000; stroke-width: 0.8"/>
      </g>
     </g>
     <g id="text_2">
      <text style="font: 10px 'DejaVu Sans', 'Bitstream Vera Sans', 'Computer Modern Sans Serif', 'Lucida Grande', 'Verdana', 'Geneva', 'Lucid', 'Arial', 'Helvetica', 'Avant Garde', sans-serif; text-anchor: middle" x="189.55034" y="543.906563" transform="rotate(-0 189.55034 543.906563)">80</text>
     </g>
    </g>
    <g id="xtick_3">
     <g id="line2d_5">
      <path d="M 296.049565 529.308125 
L 296.049565 23.837812 
" clip-path="url(#p61ed64340a)" style="fill: none; stroke: #b0b0b0; stroke-opacity: 0.3; stroke-width: 0.8; stroke-linecap: square"/>
     </g>
     <g id="line2d_6">
      <g>
       <use xlink:href="#mc0eaddb243" x="296.049565" y="529.308125" style="stroke: #000000; stroke-width: 0.8"/>
      </g>
     </g>
     <g id="text_3">
      <text style="font: 10px 'DejaVu Sans', 'Bitstream Vera Sans', 'Computer Modern Sans Serif', 'Lucida Grande', 'Verdana', 'Geneva', 'Lucid', 'Arial', 'Helvetica', 'Avant Garde', sans-serif; text-anchor: middle" x="296.049565" y="543.906563" transform="rotate(-0 296.049565 543.906563)">90</text>
     </g>
    </g>
    <g id="xtick_4">
     <g id="line2d_7">
      <path d="M 402.54879 529.308125 
L 402.54879 23.837812 
" clip-path="url(#p61ed64340a)" style="fill: none; stroke: #b0b0b0; stroke-opacity: 0.3; stroke-width: 0.8; stroke-linecap: square"/>
     </g>
     <g id="line2d_8">
      <g>
       <use xlink:href="#mc0eaddb243" x="402.54879" y="529.308125" style="stroke: #000000; stroke-width: 0.8"/>
      </g>
     </g>
     <g id="text_4">
      <text style="font: 10px 'DejaVu Sans', 'Bitstream Vera Sans', 'Computer Modern Sans Serif', 'Lucida Grande', 'Verdana', 'Geneva', 'Lucid', 'Arial', 'Helvetica', 'Avant Garde', sans-serif; text-anchor: middle" x="402.54879" y="543.906563" transform="rotate(-0 402.54879 543.906563)">100</text>
     </g>
    </g>
    <g id="xtick_5">
     <g id="line2d_9">
      <path d="M 509.048015 529.308125 
L 509.048015 23.837812 
" clip-path="url(#p61ed64340a)" style="fill: none; stroke: #b0b0b0; stroke-opacity: 0.3; stroke-width: 0.8; stroke-linecap: square"/>
     </g>
     <g id="line2d_10">
      <g>
       <use xlink:href="#mc0eaddb243" x="509.048015" y="529.308125" style="stroke: #000000; stroke-width: 0.8"/>
      </g>
     </g>
     <g id="text_5">
      <text style="font: 10px 'DejaVu Sans', 'Bitstream Vera Sans', 'Computer Modern Sans Serif', 'Lucida Grande', 'Verdana', 'Geneva', 'Lucid', 'Arial', 'Helvetica', 'Avant Garde', sans-serif; text-anchor: middle" x="509.048015" y="543.906563" transform="rotate(-0 509.048015 543.906563)">110</text>
     </g>
    </g>
    <g id="xtick_6">
     <g id="line2d_11">
      <path d="M 615.54724 529.308125 
L 615.54724 23.837812 
" clip-path="url(#p61ed64340a)" style="fill: none; stroke: #b0b0b0; stroke-opacity: 0.3; stroke-width: 0.8; stroke-linecap: square"/>
     </g>
     <g id="line2d_12">
      <g>
       <use xlink:href="#mc0eaddb243" x="615.54724" y="529.308125" style="stroke: #000000; stroke-width: 0.8"/>
      </g>
     </g>
     <g id="text_6">
      <text style="font: 10px 'DejaVu Sans', 'Bitstream Vera Sans', 'Computer Modern Sans Serif', 'Lucida Grande', 'Verdana', 'Geneva', 'Lucid', 'Arial', 'Helvetica', 'Avant Garde', sans-serif; text-anchor: middle" x="615.54724" y="543.906563" transform="rotate(-0 615.54724 543.906563)">120</text>
     </g>
    </g>
    <g id="text_7">
     <text style="font: 12px 'DejaVu Sans', 'Bitstream Vera Sans', 'Computer Modern Sans Serif', 'Lucida Grande', 'Verdana', 'Geneva', 'Lucid', 'Arial', 'Helvetica', 'Avant Garde', sans-serif; text-anchor: middle" x="386.573906" y="559.104375" transform="rotate(-0 386.573906 559.104375)">Build Number</text>
    </g>
   </g>
   <g id="matplotlib.axis_2">
    <g id="ytick_1">
     <g id="line2d_13">
      <path d="M 64.41375 334.291639 
L 708.734063 334.291639 
" clip-path="url(#p61ed64340a)" style="fill: none; stroke: #b0b0b0; stroke-opacity: 0.3; stroke-width: 0.8; stroke-linecap: square"/>
     </g>
     <g id="line2d_14">
      <defs>
       <path id="me687543dff" d="M 0 0 
L -3.5 0 
" style="stroke: #000000; stroke-width: 0.8"/>
      </defs>
      <g>
       <use xlink:href="#me687543dff" x="64.41375" y="334.291639" style="stroke: #000000; stroke-width: 0.8"/>
      </g>
     </g>
     <g id="text_8">
      <!-- $\mathdefault{10^{5}}$ -->
      <g transform="translate(39.81375 338.090858)">
       <text>
        <tspan style="font: 10px 'DejaVu Sans'" x="0 6.362305" y="-0.06406250000000036">10</tspan>
        <tspan style="font: 7px 'DejaVu Sans'" x="12.820312" y="-3.8921875000000004">5</tspan>
       </text>
      </g>
     </g>
    </g>
    <g id="ytick_2">
     <g id="line2d_15">
      <defs>
       <path id="mc03cb59a6e" d="M 0 0 
L -2 0 
" style="stroke: #000000; stroke-width: 0.6"/>
      </defs>
      <g>
       <use xlink:href="#mc03cb59a6e" x="64.41375" y="505.7097" style="stroke: #000000; stroke-width: 0.6"/>
      </g>
     </g>
     <g id="text_9">
      <!-- $\mathdefault{6\times10^{4}}$ -->
      <g transform="translate(22.81375 509.508919)">
       <text>
        <tspan style="font: 10px 'DejaVu Sans'" x="0 8.310547 18.637695 25" y="-0.06406250000000036">6×10</tspan>
        <tspan style="font: 7px 'DejaVu Sans'" x="31.458008" y="-3.8921875000000004">4</tspan>
       </text>
      </g>
     </g>
    </g>
    <g id="ytick_3">
     <g id="line2d_16">
      <g>
       <use xlink:href="#mc03cb59a6e" x="64.41375" y="453.981264" style="stroke: #000000; stroke-width: 0.6"/>
      </g>
     </g>
    </g>
    <g id="ytick_4">
     <g id="line2d_17">
      <g>
       <use xlink:href="#mc03cb59a6e" x="64.41375" y="409.172055" style="stroke: #000000; stroke-width: 0.6"/>
      </g>
     </g>
    </g>
    <g id="ytick_5">
     <g id="line2d_18">
      <g>
       <use xlink:href="#mc03cb59a6e" x="64.41375" y="369.647531" style="stroke: #000000; stroke-width: 0.6"/>
      </g>
     </g>
    </g>
    <g id="ytick_6">
     <g id="line2d_19">
      <g>
       <use xlink:href="#mc03cb59a6e" x="64.41375" y="101.691823" style="stroke: #000000; stroke-width: 0.6"/>
      </g>
     </g>
     <g id="text_10">
      <!-- $\mathdefault{2\times10^{5}}$ -->
      <g transform="translate(22.81375 105.491042)">
       <text>
        <tspan style="font: 10px 'DejaVu Sans'" x="0 8.310547 18.637695 25" y="-0.06406250000000036">2×10</tspan>
        <tspan style="font: 7px 'DejaVu Sans'" x="31.458008" y="-3.8921875000000004">5</tspan>
       </text>
      </g>
     </g>
    </g>
    <g id="text_11">
     <text style="font: 12px 'DejaVu Sans', 'Bitstream Vera Sans', 'Computer Modern Sans Serif', 'Lucida Grande', 'Verdana', 'Geneva', 'Lucid', 'Arial', 'Helvetica', 'Avant Garde', sans-serif; text-anchor: middle" x="16.318125" y="276.572969" transform="rotate(-90 16.318125 276.572969)">Median Elapsed Time (nanoseconds)</text>
    </g>
   </g>
   <g id="line2d_20">
    <path d="M 93.701037 46.813736 
L 104.350959 191.993804 
L 115.000882 203.583288 
L 125.650804 226.939206 
L 136.300727 249.293351 
L 146.95065 197.56458 
L 157.600572 217.514077 
L 168.250495 216.449271 
L 178.900417 213.414453 
L 189.55034 197.627325 
L 200.200262 255.061283 
L 210.850185 181.822836 
L 221.500107 48.546392 
L 232.15003 155.181473 
L 242.799952 255.056248 
L 253.449875 280.19621 
L 274.74972 250.483261 
L 285.399642 243.683337 
L 296.049565 243.288052 
L 306.699487 283.580852 
L 317.34941 283.575659 
L 327.999332 244.097042 
L 338.649255 245.4831 
L 349.299177 283.596143 
L 359.9491 244.026517 
L 370.599022 252.14706 
L 391.898868 107.746626 
L 402.54879 249.935013 
L 413.198713 47.122473 
L 423.848635 283.266816 
L 434.498558 237.087039 
L 445.14848 284.46166 
L 455.798403 243.282935 
L 466.448325 241.955645 
L 487.74817 283.561234 
L 498.398093 282.732565 
L 509.048015 243.462084 
L 519.697938 282.945875 
L 530.34786 244.993097 
L 551.647705 279.539663 
L 562.297628 243.134058 
L 572.94755 282.378211 
L 583.597473 266.883058 
L 594.247395 242.227643 
L 604.897318 283.083261 
L 615.54724 283.101986 
L 626.197163 284.490588 
L 636.847085 230.77908 
L 647.497008 274.330784 
L 658.146931 197.785691 
" clip-path="url(#p61ed64340a)" style="fill: none; stroke: #1f77b4; stroke-width: 2; stroke-linecap: square"/>
    <defs>
     <path id="m198a0513e1" d="M 0 3 
C 0.795609 3 1.55874 2.683901 2.12132 2.12132 
C 2.683901 1.55874 3 0.795609 3 0 
C 3 -0.795609 2.683901 -1.55874 2.12132 -2.12132 
C 1.55874 -2.683901 0.795609 -3 0 -3 
C -0.795609 -3 -1.55874 -2.683901 -2.12132 -2.12132 
C -2.683901 -1.55874 -3 -0.795609 -3 0 
C -3 0.795609 -2.683901 1.55874 -2.12132 2.12132 
C -1.55874 2.683901 -0.795609 3 0 3 
z
" style="stroke: #1f77b4"/>
    </defs>
    <g clip-path="url(#p61ed64340a)">
     <use xlink:href="#m198a0513e1" x="93.701037" y="46.813736" style="fill: #1f77b4; stroke: #1f77b4"/>
     <use xlink:href="#m198a0513e1" x="104.350959" y="191.993804" style="fill: #1f77b4; stroke: #1f77b4"/>
     <use xlink:href="#m198a0513e1" x="115.000882" y="203.583288" style="fill: #1f77b4; stroke: #1f77b4"/>
     <use xlink:href="#m198a0513e1" x="125.650804" y="226.939206" style="fill: #1f77b4; stroke: #1f77b4"/>
     <use xlink:href="#m198a0513e1" x="136.300727" y="249.293351" style="fill: #1f77b4; stroke: #1f77b4"/>
     <use xlink:href="#m198a0513e1" x="146.95065" y="197.56458" style="fill: #1f77b4; stroke: #1f77b4"/>
     <use xlink:href="#m198a0513e1" x="157.600572" y="217.514077" style="fill: #1f77b4; stroke: #1f77b4"/>
     <use xlink:href="#m198a0513e1" x="168.250495" y="216.449271" style="fill: #1f77b4; stroke: #1f77b4"/>
     <use xlink:href="#m198a0513e1" x="178.900417" y="213.414453" style="fill: #1f77b4; stroke: #1f77b4"/>
     <use xlink:href="#m198a0513e1" x="189.55034" y="197.627325" style="fill: #1f77b4; stroke: #1f77b4"/>
     <use xlink:href="#m198a0513e1" x="200.200262" y="255.061283" style="fill: #1f77b4; stroke: #1f77b4"/>
     <use xlink:href="#m198a0513e1" x="210.850185" y="181.822836" style="fill: #1f77b4; stroke: #1f77b4"/>
     <use xlink:href="#m198a0513e1" x="221.500107" y="48.546392" style="fill: #1f77b4; stroke: #1f77b4"/>
     <use xlink:href="#m198a0513e1" x="232.15003" y="155.181473" style="fill: #1f77b4; stroke: #1f77b4"/>
     <use xlink:href="#m198a0513e1" x="242.799952" y="255.056248" style="fill: #1f77b4; stroke: #1f77b4"/>
     <use xlink:href="#m198a0513e1" x="253.449875" y="280.19621" style="fill: #1f77b4; stroke: #1f77b4"/>
     <use xlink:href="#m198a0513e1" x="274.74972" y="250.483261" style="fill: #1f77b4; stroke: #1f77b4"/>
     <use xlink:href="#m198a0513e1" x="285.399642" y="243.683337" style="fill: #1f77b4; stroke: #1f77b4"/>
     <use xlink:href="#m198a0513e1" x="296.049565" y="243.288052" style="fill: #1f77b4; stroke: #1f77b4"/>
     <use xlink:href="#m198a0513e1" x="306.699487" y="283.580852" style="fill: #1f77b4; stroke: #1f77b4"/>
     <use xlink:href="#m198a0513e1" x="317.34941" y="283.575659" style="fill: #1f77b4; stroke: #1f77b4"/>
     <use xlink:href="#m198a0513e1" x="327.999332" y="244.097042" style="fill: #1f77b4; stroke: #1f77b4"/>
     <use xlink:href="#m198a0513e1" x="338.649255" y="245.4831" style="fill: #1f77b4; stroke: #1f77b4"/>
     <use xlink:href="#m198a0513e1" x="349.299177" y="283.596143" style="fill: #1f77b4; stroke: #1f77b4"/>
     <use xlink:href="#m198a0513e1" x="359.9491" y="244.026517" style="fill: #1f77b4; stroke: #1f77b4"/>
     <use xlink:href="#m198a0513e1" x="370.599022" y="252.14706" style="fill: #1f77b4; stroke: #1f77b4"/>
     <use xlink:href="#m198a0513e1" x="391.898868" y="107.746626" style="fill: #1f77b4; stroke: #1f77b4"/>
     <use xlink:href="#m198a0513e1" x="402.54879" y="249.935013" style="fill: #1f77b4; stroke: #1f77b4"/>
     <use xlink:href="#m198a0513e1" x="413.198713" y="47.122473" style="fill: #1f77b4; stroke: #1f77b4"/>
     <use xlink:href="#m198a0513e1" x="423.848635" y="283.266816" style="fill: #1f77b4; stroke: #1f77b4"/>
     <use xlink:href="#m198a0513e1" x="434.498558" y="237.087039" style="fill: #1f77b4; stroke: #1f77b4"/>
     <use xlink:href="#m198a0513e1" x="445.14848" y="284.46166" style="fill: #1f77b4; stroke: #1f77b4"/>
     <use xlink:href="#m198a0513e1" x="455.798403" y="243.282935" style="fill: #1f77b4; stroke: #1f77b4"/>
     <use xlink:href="#m198a0513e1" x="466.448325" y="241.955645" style="fill: #1f77b4; stroke: #1f77b4"/>
     <use xlink:href="#m198a0513e1" x="487.74817" y="283.561234" style="fill: #1f77b4; stroke: #1f77b4"/>
     <use xlink:href="#m198a0513e1" x="498.398093" y="282.732565" style="fill: #1f77b4; stroke: #1f77b4"/>
     <use xlink:href="#m198a0513e1" x="509.048015" y="243.462084" style="fill: #1f77b4; stroke: #1f77b4"/>
     <use xlink:href="#m198a0513e1" x="519.697938" y="282.945875" style="fill: #1f77b4; stroke: #1f77b4"/>
     <use xlink:href="#m198a0513e1" x="530.34786" y="244.993097" style="fill: #1f77b4; stroke: #1f77b4"/>
     <use xlink:href="#m198a0513e1" x="551.647705" y="279.539663" style="fill: #1f77b4; stroke: #1f77b4"/>
     <use xlink:href="#m198a0513e1" x="562.297628" y="243.134058" style="fill: #1f77b4; stroke: #1f77b4"/>
     <use xlink:href="#m198a0513e1" x="572.94755" y="282.378211" style="fill: #1f77b4; stroke: #1f77b4"/>
     <use xlink:href="#m198a0513e1" x="583.597473" y="266.883058" style="fill: #1f77b4; stroke: #1f77b4"/>
     <use xlink:href="#m198a0513e1" x="594.247395" y="242.227643" style="fill: #1f77b4; stroke: #1f77b4"/>
     <use xlink:href="#m198a0513e1" x="604.897318" y="283.083261" style="fill: #1f77b4; stroke: #1f77b4"/>
     <use xlink:href="#m198a0513e1" x="615.54724" y="283.101986" style="fill: #1f77b4; stroke: #1f77b4"/>
     <use xlink:href="#m198a0513e1" x="626.197163" y="284.490588" style="fill: #1f77b4; stroke: #1f77b4"/>
     <use xlink:href="#m198a0513e1" x="636.847085" y="230.77908" style="fill: #1f77b4; stroke: #1f77b4"/>
     <use xlink:href="#m198a0513e1" x="647.497008" y="274.330784" style="fill: #1f77b4; stroke: #1f77b4"/>
     <use xlink:href="#m198a0513e1" x="658.146931" y="197.785691" style="fill: #1f77b4; stroke: #1f77b4"/>
    </g>
   </g>
   <g id="line2d_21">
    <path d="M 93.701037 240.963675 
L 104.350959 243.863598 
L 115.000882 244.090117 
L 125.650804 246.102545 
L 136.300727 239.261485 
L 146.95065 244.568784 
L 157.600572 239.50832 
L 168.250495 247.747045 
L 178.900417 241.093226 
L 189.55034 247.539422 
L 200.200262 242.14731 
L 210.850185 245.28202 
L 221.500107 248.914302 
L 232.15003 244.728064 
L 242.799952 249.45098 
L 253.449875 239.165431 
L 274.74972 244.109353 
L 285.399642 241.526717 
L 296.049565 244.443983 
L 306.699487 247.414482 
L 317.34941 239.866502 
L 327.999332 237.098844 
L 338.649255 237.606123 
L 349.299177 235.646113 
L 359.9491 280.614175 
L 370.599022 247.512733 
L 391.898868 279.756862 
L 402.54879 281.661443 
L 413.198713 280.709844 
L 423.848635 280.122753 
L 434.498558 279.068518 
L 445.14848 280.640628 
L 455.798403 279.542799 
L 466.448325 279.805152 
L 487.74817 278.523852 
L 498.398093 281.342606 
L 509.048015 277.611705 
L 519.697938 277.650819 
L 530.34786 277.88645 
L 551.647705 277.597534 
L 562.297628 275.094208 
L 572.94755 279.209807 
L 583.597473 278.976304 
L 594.247395 280.133953 
L 604.897318 278.249436 
L 615.54724 279.950675 
L 626.197163 280.301902 
L 636.847085 229.273386 
L 647.497008 273.52457 
L 658.146931 278.942075 
" clip-path="url(#p61ed64340a)" style="fill: none; stroke: #ff7f0e; stroke-width: 2; stroke-linecap: square"/>
    <defs>
     <path id="m90addaf46d" d="M 0 3 
C 0.795609 3 1.55874 2.683901 2.12132 2.12132 
C 2.683901 1.55874 3 0.795609 3 0 
C 3 -0.795609 2.683901 -1.55874 2.12132 -2.12132 
C 1.55874 -2.683901 0.795609 -3 0 -3 
C -0.795609 -3 -1.55874 -2.683901 -2.12132 -2.12132 
C -2.683901 -1.55874 -3 -0.795609 -3 0 
C -3 0.795609 -2.683901 1.55874 -2.12132 2.12132 
C -1.55874 2.683901 -0.795609 3 0 3 
z
" style="stroke: #ff7f0e"/>
    </defs>
    <g clip-path="url(#p61ed64340a)">
     <use xlink:href="#m90addaf46d" x="93.701037" y="240.963675" style="fill: #ff7f0e; stroke: #ff7f0e"/>
     <use xlink:href="#m90addaf46d" x="104.350959" y="243.863598" style="fill: #ff7f0e; stroke: #ff7f0e"/>
     <use xlink:href="#m90addaf46d" x="115.000882" y="244.090117" style="fill: #ff7f0e; stroke: #ff7f0e"/>
     <use xlink:href="#m90addaf46d" x="125.650804" y="246.102545" style="fill: #ff7f0e; stroke: #ff7f0e"/>
     <use xlink:href="#m90addaf46d" x="136.300727" y="239.261485" style="fill: #ff7f0e; stroke: #ff7f0e"/>
     <use xlink:href="#m90addaf46d" x="146.95065" y="244.568784" style="fill: #ff7f0e; stroke: #ff7f0e"/>
     <use xlink:href="#m90addaf46d" x="157.600572" y="239.50832" style="fill: #ff7f0e; stroke: #ff7f0e"/>
     <use xlink:href="#m90addaf46d" x="168.250495" y="247.747045" style="fill: #ff7f0e; stroke: #ff7f0e"/>
     <use xlink:href="#m90addaf46d" x="178.900417" y="241.093226" style="fill: #ff7f0e; stroke: #ff7f0e"/>
     <use xlink:href="#m90addaf46d" x="189.55034" y="247.539422" style="fill: #ff7f0e; stroke: #ff7f0e"/>
     <use xlink:href="#m90addaf46d" x="200.200262" y="242.14731" style="fill: #ff7f0e; stroke: #ff7f0e"/>
     <use xlink:href="#m90addaf46d" x="210.850185" y="245.28202" style="fill: #ff7f0e; stroke: #ff7f0e"/>
     <use xlink:href="#m90addaf46d" x="221.500107" y="248.914302" style="fill: #ff7f0e; stroke: #ff7f0e"/>
     <use xlink:href="#m90addaf46d" x="232.15003" y="244.728064" style="fill: #ff7f0e; stroke: #ff7f0e"/>
     <use xlink:href="#m90addaf46d" x="242.799952" y="249.45098" style="fill: #ff7f0e; stroke: #ff7f0e"/>
     <use xlink:href="#m90addaf46d" x="253.449875" y="239.165431" style="fill: #ff7f0e; stroke: #ff7f0e"/>
     <use xlink:href="#m90addaf46d" x="274.74972" y="244.109353" style="fill: #ff7f0e; stroke: #ff7f0e"/>
     <use xlink:href="#m90addaf46d" x="285.399642" y="241.526717" style="fill: #ff7f0e; stroke: #ff7f0e"/>
     <use xlink:href="#m90addaf46d" x="296.049565" y="244.443983" style="fill: #ff7f0e; stroke: #ff7f0e"/>
     <use xlink:href="#m90addaf46d" x="306.699487" y="247.414482" style="fill: #ff7f0e; stroke: #ff7f0e"/>
     <use xlink:href="#m90addaf46d" x="317.34941" y="239.866502" style="fill: #ff7f0e; stroke: #ff7f0e"/>
     <use xlink:href="#m90addaf46d" x="327.999332" y="237.098844" style="fill: #ff7f0e; stroke: #ff7f0e"/>
     <use xlink:href="#m90addaf46d" x="338.649255" y="237.606123" style="fill: #ff7f0e; stroke: #ff7f0e"/>
     <use xlink:href="#m90addaf46d" x="349.299177" y="235.646113" style="fill: #ff7f0e; stroke: #ff7f0e"/>
     <use xlink:href="#m90addaf46d" x="359.9491" y="280.614175" style="fill: #ff7f0e; stroke: #ff7f0e"/>
     <use xlink:href="#m90addaf46d" x="370.599022" y="247.512733" style="fill: #ff7f0e; stroke: #ff7f0e"/>
     <use xlink:href="#m90addaf46d" x="391.898868" y="279.756862" style="fill: #ff7f0e; stroke: #ff7f0e"/>
     <use xlink:href="#m90addaf46d" x="402.54879" y="281.661443" style="fill: #ff7f0e; stroke: #ff7f0e"/>
     <use xlink:href="#m90addaf46d" x="413.198713" y="280.709844" style="fill: #ff7f0e; stroke: #ff7f0e"/>
     <use xlink:href="#m90addaf46d" x="423.848635" y="280.122753" style="fill: #ff7f0e; stroke: #ff7f0e"/>
     <use xlink:href="#m90addaf46d" x="434.498558" y="279.068518" style="fill: #ff7f0e; stroke: #ff7f0e"/>
     <use xlink:href="#m90addaf46d" x="445.14848" y="280.640628" style="fill: #ff7f0e; stroke: #ff7f0e"/>
     <use xlink:href="#m90addaf46d" x="455.798403" y="279.542799" style="fill: #ff7f0e; stroke: #ff7f0e"/>
     <use xlink:href="#m90addaf46d" x="466.448325" y="279.805152" style="fill: #ff7f0e; stroke: #ff7f0e"/>
     <use xlink:href="#m90addaf46d" x="487.74817" y="278.523852" style="fill: #ff7f0e; stroke: #ff7f0e"/>
     <use xlink:href="#m90addaf46d" x="498.398093" y="281.342606" style="fill: #ff7f0e; stroke: #ff7f0e"/>
     <use xlink:href="#m90addaf46d" x="509.048015" y="277.611705" style="fill: #ff7f0e; stroke: #ff7f0e"/>
     <use xlink:href="#m90addaf46d" x="519.697938" y="277.650819" style="fill: #ff7f0e; stroke: #ff7f0e"/>
     <use xlink:href="#m90addaf46d" x="530.34786" y="277.88645" style="fill: #ff7f0e; stroke: #ff7f0e"/>
     <use xlink:href="#m90addaf46d" x="551.647705" y="277.597534" style="fill: #ff7f0e; stroke: #ff7f0e"/>
     <use xlink:href="#m90addaf46d" x="562.297628" y="275.094208" style="fill: #ff7f0e; stroke: #ff7f0e"/>
     <use xlink:href="#m90addaf46d" x="572.94755" y="279.209807" style="fill: #ff7f0e; stroke: #ff7f0e"/>
     <use xlink:href="#m90addaf46d" x="583.597473" y="278.976304" style="fill: #ff7f0e; stroke: #ff7f0e"/>
     <use xlink:href="#m90addaf46d" x="594.247395" y="280.133953" style="fill: #ff7f0e; stroke: #ff7f0e"/>
     <use xlink:href="#m90addaf46d" x="604.897318" y="278.249436" style="fill: #ff7f0e; stroke: #ff7f0e"/>
     <use xlink:href="#m90addaf46d" x="615.54724" y="279.950675" style="fill: #ff7f0e; stroke: #ff7f0e"/>
     <use xlink:href="#m90addaf46d" x="626.197163" y="280.301902" style="fill: #ff7f0e; stroke: #ff7f0e"/>
     <use xlink:href="#m90addaf46d" x="636.847085" y="229.273386" style="fill: #ff7f0e; stroke: #ff7f0e"/>
     <use xlink:href="#m90addaf46d" x="647.497008" y="273.52457" style="fill: #ff7f0e; stroke: #ff7f0e"/>
     <use xlink:href="#m90addaf46d" x="658.146931" y="278.942075" style="fill: #ff7f0e; stroke: #ff7f0e"/>
    </g>
   </g>
   <g id="line2d_22">
    <path d="M 93.701037 414.551779 
L 104.350959 497.463966 
L 115.000882 414.97317 
L 125.650804 486.590358 
L 136.300727 488.58483 
L 146.95065 494.968464 
L 157.600572 431.17622 
L 168.250495 259.841298 
L 178.900417 504.165161 
L 189.55034 502.411088 
L 200.200262 448.322626 
L 210.850185 415.961606 
L 221.500107 472.805361 
L 242.799952 490.422322 
L 253.449875 432.542825 
L 274.74972 506.332202 
L 285.399642 259.267362 
L 296.049565 486.236577 
L 306.699487 481.772945 
L 317.34941 501.586919 
L 338.649255 503.321129 
L 349.299177 460.778799 
L 359.9491 459.561443 
L 370.599022 479.86882 
L 391.898868 480.855226 
L 402.54879 500.319467 
L 413.198713 505.890118 
L 423.848635 501.949525 
L 434.498558 487.90366 
L 445.14848 260.377715 
L 455.798403 480.387571 
L 466.448325 503.662823 
L 487.74817 478.550422 
L 498.398093 502.536827 
L 509.048015 478.931817 
L 530.34786 479.468257 
L 562.297628 480.315489 
L 572.94755 264.460841 
L 583.597473 266.315517 
L 594.247395 479.595516 
L 604.897318 480.747697 
L 615.54724 486.979948 
L 626.197163 482.643414 
L 636.847085 501.323501 
L 647.497008 479.474981 
L 658.146931 488.057572 
L 679.446776 477.833193 
" clip-path="url(#p61ed64340a)" style="fill: none; stroke: #2ca02c; stroke-width: 2; stroke-linecap: square"/>
    <defs>
     <path id="ma986383346" d="M 0 3 
C 0.795609 3 1.55874 2.683901 2.12132 2.12132 
C 2.683901 1.55874 3 0.795609 3 0 
C 3 -0.795609 2.683901 -1.55874 2.12132 -2.12132 
C 1.55874 -2.683901 0.795609 -3 0 -3 
C -0.795609 -3 -1.55874 -2.683901 -2.12132 -2.12132 
C -2.683901 -1.55874 -3 -0.795609 -3 0 
C -3 0.795609 -2.683901 1.55874 -2.12132 2.12132 
C -1.55874 2.683901 -0.795609 3 0 3 
z
" style="stroke: #2ca02c"/>
    </defs>
    <g clip-path="url(#p61ed64340a)">
     <use xlink:href="#ma986383346" x="93.701037" y="414.551779" style="fill: #2ca02c; stroke: #2ca02c"/>
     <use xlink:href="#ma986383346" x="104.350959" y="497.463966" style="fill: #2ca02c; stroke: #2ca02c"/>
     <use xlink:href="#ma986383346" x="115.000882" y="414.97317" style="fill: #2ca02c; stroke: #2ca02c"/>
     <use xlink:href="#ma986383346" x="125.650804" y="486.590358" style="fill: #2ca02c; stroke: #2ca02c"/>
     <use xlink:href="#ma986383346" x="136.300727" y="488.58483" style="fill: #2ca02c; stroke: #2ca02c"/>
     <use xlink:href="#ma986383346" x="146.95065" y="494.968464" style="fill: #2ca02c; stroke: #2ca02c"/>
     <use xlink:href="#ma986383346" x="157.600572" y="431.17622" style="fill: #2ca02c; stroke: #2ca02c"/>
     <use xlink:href="#ma986383346" x="168.250495" y="259.841298" style="fill: #2ca02c; stroke: #2ca02c"/>
     <use xlink:href="#ma986383346" x="178.900417" y="504.165161" style="fill: #2ca02c; stroke: #2ca02c"/>
     <use xlink:href="#ma986383346" x="189.55034" y="502.411088" style="fill: #2ca02c; stroke: #2ca02c"/>
     <use xlink:href="#ma986383346" x="200.200262" y="448.322626" style="fill: #2ca02c; stroke: #2ca02c"/>
     <use xlink:href="#ma986383346" x="210.850185" y="415.961606" style="fill: #2ca02c; stroke: #2ca02c"/>
     <use xlink:href="#ma986383346" x="221.500107" y="472.805361" style="fill: #2ca02c; stroke: #2ca02c"/>
     <use xlink:href="#ma986383346" x="242.799952" y="490.422322" style="fill: #2ca02c; stroke: #2ca02c"/>
     <use xlink:href="#ma986383346" x="253.449875" y="432.542825" style="fill: #2ca02c; stroke: #2ca02c"/>
     <use xlink:href="#ma986383346" x="274.74972" y="506.332202" style="fill: #2ca02c; stroke: #2ca02c"/>
     <use xlink:href="#ma986383346" x="285.399642" y="259.267362" style="fill: #2ca02c; stroke: #2ca02c"/>
     <use xlink:href="#ma986383346" x="296.049565" y="486.236577" style="fill: #2ca02c; stroke: #2ca02c"/>
     <use xlink:href="#ma986383346" x="306.699487" y="481.772945" style="fill: #2ca02c; stroke: #2ca02c"/>
     <use xlink:href="#ma986383346" x="317.34941" y="501.586919" style="fill: #2ca02c; stroke: #2ca02c"/>
     <use xlink:href="#ma986383346" x="338.649255" y="503.321129" style="fill: #2ca02c; stroke: #2ca02c"/>
     <use xlink:href="#ma986383346" x="349.299177" y="460.778799" style="fill: #2ca02c; stroke: #2ca02c"/>
     <use xlink:href="#ma986383346" x="359.9491" y="459.561443" style="fill: #2ca02c; stroke: #2ca02c"/>
     <use xlink:href="#ma986383346" x="370.599022" y="479.86882" style="fill: #2ca02c; stroke: #2ca02c"/>
     <use xlink:href="#ma986383346" x="391.898868" y="480.855226" style="fill: #2ca02c; stroke: #2ca02c"/>
     <use xlink:href="#ma986383346" x="402.54879" y="500.319467" style="fill: #2ca02c; stroke: #2ca02c"/>
     <use xlink:href="#ma986383346" x="413.198713" y="505.890118" style="fill: #2ca02c; stroke: #2ca02c"/>
     <use xlink:href="#ma986383346" x="423.848635" y="501.949525" style="fill: #2ca02c; stroke: #2ca02c"/>
     <use xlink:href="#ma986383346" x="434.498558" y="487.90366" style="fill: #2ca02c; stroke: #2ca02c"/>
     <use xlink:href="#ma986383346" x="445.14848" y="260.377715" style="fill: #2ca02c; stroke: #2ca02c"/>
     <use xlink:href="#ma986383346" x="455.798403" y="480.387571" style="fill: #2ca02c; stroke: #2ca02c"/>
     <use xlink:href="#ma986383346" x="466.448325" y="503.662823" style="fill: #2ca02c; stroke: #2ca02c"/>
     <use xlink:href="#ma986383346" x="487.74817" y="478.550422" style="fill: #2ca02c; stroke: #2ca02c"/>
     <use xlink:href="#ma986383346" x="498.398093" y="502.536827" style="fill: #2ca02c; stroke: #2ca02c"/>
     <use xlink:href="#ma986383346" x="509.048015" y="478.931817" style="fill: #2ca02c; stroke: #2ca02c"/>
     <use xlink:href="#ma986383346" x="530.34786" y="479.468257" style="fill: #2ca02c; stroke: #2ca02c"/>
     <use xlink:href="#ma986383346" x="562.297628" y="480.315489" style="fill: #2ca02c; stroke: #2ca02c"/>
     <use xlink:href="#ma986383346" x="572.94755" y="264.460841" style="fill: #2ca02c; stroke: #2ca02c"/>
     <use xlink:href="#ma986383346" x="583.597473" y="266.315517" style="fill: #2ca02c; stroke: #2ca02c"/>
     <use xlink:href="#ma986383346" x="594.247395" y="479.595516" style="fill: #2ca02c; stroke: #2ca02c"/>
     <use xlink:href="#ma986383346" x="604.897318" y="480.747697" style="fill: #2ca02c; stroke: #2ca02c"/>
     <use xlink:href="#ma986383346" x="615.54724" y="486.979948" style="fill: #2ca02c; stroke: #2ca02c"/>
     <use xlink:href="#ma986383346" x="626.197163" y="482.643414" style="fill: #2ca02c; stroke: #2ca02c"/>
     <use xlink:href="#ma986383346" x="636.847085" y="501.323501" style="fill: #2ca02c; stroke: #2ca02c"/>
     <use xlink:href="#ma986383346" x="647.497008" y="479.474981" style="fill: #2ca02c; stroke: #2ca02c"/>
     <use xlink:href="#ma986383346" x="658.146931" y="488.057572" style="fill: #2ca02c; stroke: #2ca02c"/>
     <use xlink:href="#ma986383346" x="679.446776" y="477.833193" style="fill: #2ca02c; stroke: #2ca02c"/>
    </g>
   </g>
   <g id="line2d_23">
    <path d="M 93.701037 459.866222 
L 104.350959 455.143871 
L 115.000882 459.420607 
L 125.650804 457.27833 
L 136.300727 460.575215 
L 146.95065 466.993507 
L 157.600572 458.812133 
L 168.250495 457.180552 
L 178.900417 460.001714 
L 189.55034 457.742438 
L 200.200262 461.889521 
L 210.850185 465.712231 
L 221.500107 421.868996 
L 242.799952 457.412458 
L 253.449875 454.1049 
L 274.74972 488.92886 
L 285.399642 458.206217 
L 296.049565 456.170075 
L 306.699487 461.129246 
L 317.34941 463.233246 
L 338.649255 459.084593 
L 349.299177 457.457502 
L 359.9491 478.796034 
L 370.599022 480.720181 
L 391.898868 466.047993 
L 402.54879 478.470998 
L 413.198713 479.912321 
L 423.848635 480.445663 
L 434.498558 480.535415 
L 445.14848 481.301371 
L 455.798403 479.19993 
L 466.448325 481.650745 
L 487.74817 479.964115 
L 498.398093 477.156529 
L 509.048015 479.532915 
L 530.34786 478.356021 
L 562.297628 479.652501 
L 572.94755 473.040713 
L 583.597473 478.914776 
L 594.247395 482.302114 
L 604.897318 477.868194 
L 615.54724 480.654774 
L 626.197163 478.980361 
L 636.847085 483.405024 
L 647.497008 480.41921 
L 658.146931 476.831024 
L 679.446776 483.721782 
" clip-path="url(#p61ed64340a)" style="fill: none; stroke: #d62728; stroke-width: 2; stroke-linecap: square"/>
    <defs>
     <path id="m40cdd657f5" d="M 0 3 
C 0.795609 3 1.55874 2.683901 2.12132 2.12132 
C 2.683901 1.55874 3 0.795609 3 0 
C 3 -0.795609 2.683901 -1.55874 2.12132 -2.12132 
C 1.55874 -2.683901 0.795609 -3 0 -3 
C -0.795609 -3 -1.55874 -2.683901 -2.12132 -2.12132 
C -2.683901 -1.55874 -3 -0.795609 -3 0 
C -3 0.795609 -2.683901 1.55874 -2.12132 2.12132 
C -1.55874 2.683901 -0.795609 3 0 3 
z
" style="stroke: #d62728"/>
    </defs>
    <g clip-path="url(#p61ed64340a)">
     <use xlink:href="#m40cdd657f5" x="93.701037" y="459.866222" style="fill: #d62728; stroke: #d62728"/>
     <use xlink:href="#m40cdd657f5" x="104.350959" y="455.143871" style="fill: #d62728; stroke: #d62728"/>
     <use xlink:href="#m40cdd657f5" x="115.000882" y="459.420607" style="fill: #d62728; stroke: #d62728"/>
     <use xlink:href="#m40cdd657f5" x="125.650804" y="457.27833" style="fill: #d62728; stroke: #d62728"/>
     <use xlink:href="#m40cdd657f5" x="136.300727" y="460.575215" style="fill: #d62728; stroke: #d62728"/>
     <use xlink:href="#m40cdd657f5" x="146.95065" y="466.993507" style="fill: #d62728; stroke: #d62728"/>
     <use xlink:href="#m40cdd657f5" x="157.600572" y="458.812133" style="fill: #d62728; stroke: #d62728"/>
     <use xlink:href="#m40cdd657f5" x="168.250495" y="457.180552" style="fill: #d62728; stroke: #d62728"/>
     <use xlink:href="#m40cdd657f5" x="178.900417" y="460.001714" style="fill: #d62728; stroke: #d62728"/>
     <use xlink:href="#m40cdd657f5" x="189.55034" y="457.742438" style="fill: #d62728; stroke: #d62728"/>
     <use xlink:href="#m40cdd657f5" x="200.200262" y="461.889521" style="fill: #d62728; stroke: #d62728"/>
     <use xlink:href="#m40cdd657f5" x="210.850185" y="465.712231" style="fill: #d62728; stroke: #d62728"/>
     <use xlink:href="#m40cdd657f5" x="221.500107" y="421.868996" style="fill: #d62728; stroke: #d62728"/>
     <use xlink:href="#m40cdd657f5" x="242.799952" y="457.412458" style="fill: #d62728; stroke: #d62728"/>
     <use xlink:href="#m40cdd657f5" x="253.449875" y="454.1049" style="fill: #d62728; stroke: #d62728"/>
     <use xlink:href="#m40cdd657f5" x="274.74972" y="488.92886" style="fill: #d62728; stroke: #d62728"/>
     <use xlink:href="#m40cdd657f5" x="285.399642" y="458.206217" style="fill: #d62728; stroke: #d62728"/>
     <use xlink:href="#m40cdd657f5" x="296.049565" y="456.170075" style="fill: #d62728; stroke: #d62728"/>
     <use xlink:href="#m40cdd657f5" x="306.699487" y="461.129246" style="fill: #d62728; stroke: #d62728"/>
     <use xlink:href="#m40cdd657f5" x="317.34941" y="463.233246" style="fill: #d62728; stroke: #d62728"/>
     <use xlink:href="#m40cdd657f5" x="338.649255" y="459.084593" style="fill: #d62728; stroke: #d62728"/>
     <use xlink:href="#m40cdd657f5" x="349.299177" y="457.457502" style="fill: #d62728; stroke: #d62728"/>
     <use xlink:href="#m40cdd657f5" x="359.9491" y="478.796034" style="fill: #d62728; stroke: #d62728"/>
     <use xlink:href="#m40cdd657f5" x="370.599022" y="480.720181" style="fill: #d62728; stroke: #d62728"/>
     <use xlink:href="#m40cdd657f5" x="391.898868" y="466.047993" style="fill: #d62728; stroke: #d62728"/>
     <use xlink:href="#m40cdd657f5" x="402.54879" y="478.470998" style="fill: #d62728; stroke: #d62728"/>
     <use xlink:href="#m40cdd657f5" x="413.198713" y="479.912321" style="fill: #d62728; stroke: #d62728"/>
     <use xlink:href="#m40cdd657f5" x="423.848635" y="480.445663" style="fill: #d62728; stroke: #d62728"/>
     <use xlink:href="#m40cdd657f5" x="434.498558" y="480.535415" style="fill: #d62728; stroke: #d62728"/>
     <use xlink:href="#m40cdd657f5" x="445.14848" y="481.301371" style="fill: #d62728; stroke: #d62728"/>
     <use xlink:href="#m40cdd657f5" x="455.798403" y="479.19993" style="fill: #d62728; stroke: #d62728"/>
     <use xlink:href="#m40cdd657f5" x="466.448325" y="481.650745" style="fill: #d62728; stroke: #d62728"/>
     <use xlink:href="#m40cdd657f5" x="487.74817" y="479.964115" style="fill: #d62728; stroke: #d62728"/>
     <use xlink:href="#m40cdd657f5" x="498.398093" y="477.156529" style="fill: #d62728; stroke: #d62728"/>
     <use xlink:href="#m40cdd657f5" x="509.048015" y="479.532915" style="fill: #d62728; stroke: #d62728"/>
     <use xlink:href="#m40cdd657f5" x="530.34786" y="478.356021" style="fill: #d62728; stroke: #d62728"/>
     <use xlink:href="#m40cdd657f5" x="562.297628" y="479.652501" style="fill: #d62728; stroke: #d62728"/>
     <use xlink:href="#m40cdd657f5" x="572.94755" y="473.040713" style="fill: #d62728; stroke: #d62728"/>
     <use xlink:href="#m40cdd657f5" x="583.597473" y="478.914776" style="fill: #d62728; stroke: #d62728"/>
     <use xlink:href="#m40cdd657f5" x="594.247395" y="482.302114" style="fill: #d62728; stroke: #d62728"/>
     <use xlink:href="#m40cdd657f5" x="604.897318" y="477.868194" style="fill: #d62728; stroke: #d62728"/>
     <use xlink:href="#m40cdd657f5" x="615.54724" y="480.654774" style="fill: #d62728; stroke: #d62728"/>
     <use xlink:href="#m40cdd657f5" x="626.197163" y="478.980361" style="fill: #d62728; stroke: #d62728"/>
     <use xlink:href="#m40cdd657f5" x="636.847085" y="483.405024" style="fill: #d62728; stroke: #d62728"/>
     <use xlink:href="#m40cdd657f5" x="647.497008" y="480.41921" style="fill: #d62728; stroke: #d62728"/>
     <use xlink:href="#m40cdd657f5" x="658.146931" y="476.831024" style="fill: #d62728; stroke: #d62728"/>
     <use xlink:href="#m40cdd657f5" x="679.446776" y="483.721782" style="fill: #d62728; stroke: #d62728"/>
    </g>
   </g>
   <g id="patch_3">
    <path d="M 64.41375 529.308125 
L 64.41375 23.837813 
" style="fill: none; stroke: #000000; stroke-width: 0.8; stroke-linejoin: miter; stroke-linecap: square"/>
   </g>
   <g id="patch_4">
    <path d="M 708.734063 529.308125 
L 708.734063 23.837813 
" style="fill: none; stroke: #000000; stroke-width: 0.8; stroke-linejoin: miter; stroke-linecap: square"/>
   </g>
   <g id="patch_5">
    <path d="M 64.41375 529.308125 
L 708.734062 529.308125 
" style="fill: none; stroke: #000000; stroke-width: 0.8; stroke-linejoin: miter; stroke-linecap: square"/>
   </g>
   <g id="patch_6">
    <path d="M 64.41375 23.837812 
L 708.734062 23.837812 
" style="fill: none; stroke: #000000; stroke-width: 0.8; stroke-linejoin: miter; stroke-linecap: square"/>
   </g>
   <g id="text_12">
    <text style="font: 700 14px 'DejaVu Sans', 'Bitstream Vera Sans', 'Computer Modern Sans Serif', 'Lucida Grande', 'Verdana', 'Geneva', 'Lucid', 'Arial', 'Helvetica', 'Avant Garde', sans-serif; text-anchor: middle" x="386.573906" y="17.837813" transform="rotate(-0 386.573906 17.837813)">Nestedparallel - Performance Trend</text>
   </g>
   <g id="legend_1">
    <g id="patch_7">
     <path d="M 747.950078 90.550312 
L 846.336016 90.550312 
Q 848.336016 90.550312 848.336016 88.550312 
L 848.336016 30.837812 
Q 848.336016 28.837812 846.336016 28.837812 
L 747.950078 28.837812 
Q 745.950078 28.837812 745.950078 30.837812 
L 745.950078 88.550312 
Q 745.950078 90.550312 747.950078 90.550312 
z
" style="fill: #ffffff; opacity: 0.8; stroke: #cccccc; stroke-linejoin: miter"/>
    </g>
    <g id="line2d_24">
     <path d="M 749.950078 36.93625 
L 759.950078 36.93625 
L 769.950078 36.93625 
" style="fill: none; stroke: #1f77b4; stroke-width: 2; stroke-linecap: square"/>
     <g>
      <use xlink:href="#m198a0513e1" x="759.950078" y="36.93625" style="fill: #1f77b4; stroke: #1f77b4"/>
     </g>
    </g>
    <g id="text_13">
     <text style="font: 10px 'DejaVu Sans', 'Bitstream Vera Sans', 'Computer Modern Sans Serif', 'Lucida Grande', 'Verdana', 'Geneva', 'Lucid', 'Arial', 'Helvetica', 'Avant Garde', sans-serif; text-anchor: start" x="777.950078" y="40.43625" transform="rotate(-0 777.950078 40.43625)">gcc-14.2 - V1</text>
    </g>
    <g id="line2d_25">
     <path d="M 749.950078 51.614375 
L 759.950078 51.614375 
L 769.950078 51.614375 
" style="fill: none; stroke: #ff7f0e; stroke-width: 2; stroke-linecap: square"/>
     <g>
      <use xlink:href="#m90addaf46d" x="759.950078" y="51.614375" style="fill: #ff7f0e; stroke: #ff7f0e"/>
     </g>
    </g>
    <g id="text_14">
     <text style="font: 10px 'DejaVu Sans', 'Bitstream Vera Sans', 'Computer Modern Sans Serif', 'Lucida Grande', 'Verdana', 'Geneva', 'Lucid', 'Arial', 'Helvetica', 'Avant Garde', sans-serif; text-anchor: start" x="777.950078" y="55.114375" transform="rotate(-0 777.950078 55.114375)">gcc-14.2 - V2</text>
    </g>
    <g id="line2d_26">
     <path d="M 749.950078 66.2925 
L 759.950078 66.2925 
L 769.950078 66.2925 
" style="fill: none; stroke: #2ca02c; stroke-width: 2; stroke-linecap: square"/>
     <g>
      <use xlink:href="#ma986383346" x="759.950078" y="66.2925" style="fill: #2ca02c; stroke: #2ca02c"/>
     </g>
    </g>
    <g id="text_15">
     <text style="font: 10px 'DejaVu Sans', 'Bitstream Vera Sans', 'Computer Modern Sans Serif', 'Lucida Grande', 'Verdana', 'Geneva', 'Lucid', 'Arial', 'Helvetica', 'Avant Garde', sans-serif; text-anchor: start" x="777.950078" y="69.7925" transform="rotate(-0 777.950078 69.7925)">gcc-4.2 - V1</text>
    </g>
    <g id="line2d_27">
     <path d="M 749.950078 80.970625 
L 759.950078 80.970625 
L 769.950078 80.970625 
" style="fill: none; stroke: #d62728; stroke-width: 2; stroke-linecap: square"/>
     <g>
      <use xlink:href="#m40cdd657f5" x="759.950078" y="80.970625" style="fill: #d62728; stroke: #d62728"/>
     </g>
    </g>
    <g id="text_16">
     <text style="font: 10px 'DejaVu Sans', 'Bitstream Vera Sans', 'Computer Modern Sans Serif', 'Lucida Grande', 'Verdana', 'Geneva', 'Lucid', 'Arial', 'Helvetica', 'Avant Garde', sans-serif; text-anchor: start" x="777.950078" y="84.470625" transform="rotate(-0 777.950078 84.470625)">gcc-4.2 - V2</text>
    </g>
   </g>
  </g>
 </g>
 <defs>
  <clipPath id="p61ed64340a">
   <rect x="64.41375" y="23.837813" width="644.320312" height="505.470313"/>
  </clipPath>
 </defs>
</svg>
