<?xml version="1.0" encoding="utf-8" standalone="no"?>
<!DOCTYPE svg PUBLIC "-//W3C//DTD SVG 1.1//EN"
  "http://www.w3.org/Graphics/SVG/1.1/DTD/svg11.dtd">
<svg xmlns:xlink="http://www.w3.org/1999/xlink" width="850.820859pt" height="568.8pt" viewBox="0 0 850.820859 568.8" xmlns="http://www.w3.org/2000/svg" version="1.1">
 <metadata>
  <rdf:RDF xmlns:dc="http://purl.org/dc/elements/1.1/" xmlns:cc="http://creativecommons.org/ns#" xmlns:rdf="http://www.w3.org/1999/02/22-rdf-syntax-ns#">
   <cc:Work>
    <dc:type rdf:resource="http://purl.org/dc/dcmitype/StillImage"/>
    <dc:date>2025-12-23T10:59:13.165820</dc:date>
    <dc:format>image/svg+xml</dc:format>
    <dc:creator>
     <cc:Agent>
      <dc:title>Matplotlib v3.9.4, https://matplotlib.org/</dc:title>
     </cc:Agent>
    </dc:creator>
   </cc:Work>
  </rdf:RDF>
 </metadata>
 <defs>
  <style type="text/css">*{stroke-linejoin: round; stroke-linecap: butt}</style>
 </defs>
 <g id="figure_1">
  <g id="patch_1">
   <path d="M 0 568.8 
L 850.820859 568.8 
L 850.820859 0 
L 0 0 
z
" style="fill: #ffffff"/>
  </g>
  <g id="axes_1">
   <g id="patch_2">
    <path d="M 64.41375 529.308125 
L 614.430938 529.308125 
L 614.430938 23.837812 
L 64.41375 23.837812 
z
" style="fill: #ffffff"/>
   </g>
   <g id="matplotlib.axis_1">
    <g id="xtick_1">
     <g id="line2d_1">
      <path d="M 70.895434 529.308125 
L 70.895434 23.837812 
" clip-path="url(#p0e68eb0822)" style="fill: none; stroke: #b0b0b0; stroke-opacity: 0.3; stroke-width: 0.8; stroke-linecap: square"/>
     </g>
     <g id="line2d_2">
      <defs>
       <path id="mff0b99601e" d="M 0 0 
L 0 3.5 
" style="stroke: #000000; stroke-width: 0.8"/>
      </defs>
      <g>
       <use xlink:href="#mff0b99601e" x="70.895434" y="529.308125" style="stroke: #000000; stroke-width: 0.8"/>
      </g>
     </g>
     <g id="text_1">
      <text style="font: 10px 'DejaVu Sans', 'Bitstream Vera Sans', 'Computer Modern Sans Serif', 'Lucida Grande', 'Verdana', 'Geneva', 'Lucid', 'Arial', 'Helvetica', 'Avant Garde', sans-serif; text-anchor: middle" x="70.895434" y="543.906563" transform="rotate(-0 70.895434 543.906563)">95</text>
     </g>
    </g>
    <g id="xtick_2">
     <g id="line2d_3">
      <path d="M 163.49092 529.308125 
L 163.49092 23.837812 
" clip-path="url(#p0e68eb0822)" style="fill: none; stroke: #b0b0b0; stroke-opacity: 0.3; stroke-width: 0.8; stroke-linecap: square"/>
     </g>
     <g id="line2d_4">
      <g>
       <use xlink:href="#mff0b99601e" x="163.49092" y="529.308125" style="stroke: #000000; stroke-width: 0.8"/>
      </g>
     </g>
     <g id="text_2">
      <text style="font: 10px 'DejaVu Sans', 'Bitstream Vera Sans', 'Computer Modern Sans Serif', 'Lucida Grande', 'Verdana', 'Geneva', 'Lucid', 'Arial', 'Helvetica', 'Avant Garde', sans-serif; text-anchor: middle" x="163.49092" y="543.906563" transform="rotate(-0 163.49092 543.906563)">100</text>
     </g>
    </g>
    <g id="xtick_3">
     <g id="line2d_5">
      <path d="M 256.086406 529.308125 
L 256.086406 23.837812 
" clip-path="url(#p0e68eb0822)" style="fill: none; stroke: #b0b0b0; stroke-opacity: 0.3; stroke-width: 0.8; stroke-linecap: square"/>
     </g>
     <g id="line2d_6">
      <g>
       <use xlink:href="#mff0b99601e" x="256.086406" y="529.308125" style="stroke: #000000; stroke-width: 0.8"/>
      </g>
     </g>
     <g id="text_3">
      <text style="font: 10px 'DejaVu Sans', 'Bitstream Vera Sans', 'Computer Modern Sans Serif', 'Lucida Grande', 'Verdana', 'Geneva', 'Lucid', 'Arial', 'Helvetica', 'Avant Garde', sans-serif; text-anchor: middle" x="256.086406" y="543.906563" transform="rotate(-0 256.086406 543.906563)">105</text>
     </g>
    </g>
    <g id="xtick_4">
     <g id="line2d_7">
      <path d="M 348.681892 529.308125 
L 348.681892 23.837812 
" clip-path="url(#p0e68eb0822)" style="fill: none; stroke: #b0b0b0; stroke-opacity: 0.3; stroke-width: 0.8; stroke-linecap: square"/>
     </g>
     <g id="line2d_8">
      <g>
       <use xlink:href="#mff0b99601e" x="348.681892" y="529.308125" style="stroke: #000000; stroke-width: 0.8"/>
      </g>
     </g>
     <g id="text_4">
      <text style="font: 10px 'DejaVu Sans', 'Bitstream Vera Sans', 'Computer Modern Sans Serif', 'Lucida Grande', 'Verdana', 'Geneva', 'Lucid', 'Arial', 'Helvetica', 'Avant Garde', sans-serif; text-anchor: middle" x="348.681892" y="543.906563" transform="rotate(-0 348.681892 543.906563)">110</text>
     </g>
    </g>
    <g id="xtick_5">
     <g id="line2d_9">
      <path d="M 441.277378 529.308125 
L 441.277378 23.837812 
" clip-path="url(#p0e68eb0822)" style="fill: none; stroke: #b0b0b0; stroke-opacity: 0.3; stroke-width: 0.8; stroke-linecap: square"/>
     </g>
     <g id="line2d_10">
      <g>
       <use xlink:href="#mff0b99601e" x="441.277378" y="529.308125" style="stroke: #000000; stroke-width: 0.8"/>
      </g>
     </g>
     <g id="text_5">
      <text style="font: 10px 'DejaVu Sans', 'Bitstream Vera Sans', 'Computer Modern Sans Serif', 'Lucida Grande', 'Verdana', 'Geneva', 'Lucid', 'Arial', 'Helvetica', 'Avant Garde', sans-serif; text-anchor: middle" x="441.277378" y="543.906563" transform="rotate(-0 441.277378 543.906563)">115</text>
     </g>
    </g>
    <g id="xtick_6">
     <g id="line2d_11">
      <path d="M 533.872865 529.308125 
L 533.872865 23.837812 
" clip-path="url(#p0e68eb0822)" style="fill: none; stroke: #b0b0b0; stroke-opacity: 0.3; stroke-width: 0.8; stroke-linecap: square"/>
     </g>
     <g id="line2d_12">
      <g>
       <use xlink:href="#mff0b99601e" x="533.872865" y="529.308125" style="stroke: #000000; stroke-width: 0.8"/>
      </g>
     </g>
     <g id="text_6">
      <text style="font: 10px 'DejaVu Sans', 'Bitstream Vera Sans', 'Computer Modern Sans Serif', 'Lucida Grande', 'Verdana', 'Geneva', 'Lucid', 'Arial', 'Helvetica', 'Avant Garde', sans-serif; text-anchor: middle" x="533.872865" y="543.906563" transform="rotate(-0 533.872865 543.906563)">120</text>
     </g>
    </g>
    <g id="text_7">
     <text style="font: 12px 'DejaVu Sans', 'Bitstream Vera Sans', 'Computer Modern Sans Serif', 'Lucida Grande', 'Verdana', 'Geneva', 'Lucid', 'Arial', 'Helvetica', 'Avant Garde', sans-serif; text-anchor: middle" x="339.422344" y="559.104375" transform="rotate(-0 339.422344 559.104375)">Build Number</text>
    </g>
   </g>
   <g id="matplotlib.axis_2">
    <g id="ytick_1">
     <g id="line2d_13">
      <defs>
       <path id="mc75890bbdc" d="M 0 0 
L -2 0 
" style="stroke: #000000; stroke-width: 0.6"/>
      </defs>
      <g>
       <use xlink:href="#mc75890bbdc" x="64.41375" y="333.737412" style="stroke: #000000; stroke-width: 0.6"/>
      </g>
     </g>
     <g id="text_8">
      <!-- $\mathdefault{8\times10^{6}}$ -->
      <g transform="translate(22.81375 337.53663)">
       <text>
        <tspan style="font: 10px 'DejaVu Sans'" x="0 8.310547 18.637695 25" y="-0.9765625">8×10</tspan>
        <tspan style="font: 7px 'DejaVu Sans'" x="31.458008" y="-4.8046875">6</tspan>
       </text>
      </g>
     </g>
    </g>
    <g id="ytick_2">
     <g id="line2d_14">
      <g>
       <use xlink:href="#mc75890bbdc" x="64.41375" y="137.098665" style="stroke: #000000; stroke-width: 0.6"/>
      </g>
     </g>
     <g id="text_9">
      <!-- $\mathdefault{9\times10^{6}}$ -->
      <g transform="translate(22.81375 140.897884)">
       <text>
        <tspan style="font: 10px 'DejaVu Sans'" x="0 8.310547 18.637695 25" y="-0.9765625">9×10</tspan>
        <tspan style="font: 7px 'DejaVu Sans'" x="31.458008" y="-4.8046875">6</tspan>
       </text>
      </g>
     </g>
    </g>
    <g id="text_10">
     <text style="font: 12px 'DejaVu Sans', 'Bitstream Vera Sans', 'Computer Modern Sans Serif', 'Lucida Grande', 'Verdana', 'Geneva', 'Lucid', 'Arial', 'Helvetica', 'Avant Garde', sans-serif; text-anchor: middle" x="16.318125" y="276.572969" transform="rotate(-90 16.318125 276.572969)">Median Elapsed Time (nanoseconds)</text>
    </g>
   </g>
   <g id="line2d_15">
    <path d="M 89.414531 476.634094 
L 107.933628 386.779726 
L 144.971823 496.963171 
L 163.49092 409.150288 
L 182.010017 506.332202 
L 200.529115 486.137467 
L 219.048212 439.733401 
L 237.567309 499.114396 
L 256.086406 435.654115 
L 274.605503 457.556737 
L 311.643698 347.08786 
L 330.162795 340.22304 
L 348.681892 501.453742 
L 367.20099 462.506527 
L 385.720087 482.258764 
L 422.758281 493.47236 
L 441.277378 493.725444 
L 459.796476 499.723249 
L 478.315573 491.96187 
L 496.83467 489.188746 
L 515.353767 481.560617 
L 533.872865 471.802717 
L 552.391962 484.760401 
L 570.911059 433.830099 
L 589.430156 467.838499 
" clip-path="url(#p0e68eb0822)" style="fill: none; stroke: #1f77b4; stroke-width: 2; stroke-linecap: square"/>
    <defs>
     <path id="mddc160ca68" d="M 0 3 
C 0.795609 3 1.55874 2.683901 2.12132 2.12132 
C 2.683901 1.55874 3 0.795609 3 0 
C 3 -0.795609 2.683901 -1.55874 2.12132 -2.12132 
C 1.55874 -2.683901 0.795609 -3 0 -3 
C -0.795609 -3 -1.55874 -2.683901 -2.12132 -2.12132 
C -2.683901 -1.55874 -3 -0.795609 -3 0 
C -3 0.795609 -2.683901 1.55874 -2.12132 2.12132 
C -1.55874 2.683901 -0.795609 3 0 3 
z
" style="stroke: #1f77b4"/>
    </defs>
    <g clip-path="url(#p0e68eb0822)">
     <use xlink:href="#mddc160ca68" x="89.414531" y="476.634094" style="fill: #1f77b4; stroke: #1f77b4"/>
     <use xlink:href="#mddc160ca68" x="107.933628" y="386.779726" style="fill: #1f77b4; stroke: #1f77b4"/>
     <use xlink:href="#mddc160ca68" x="144.971823" y="496.963171" style="fill: #1f77b4; stroke: #1f77b4"/>
     <use xlink:href="#mddc160ca68" x="163.49092" y="409.150288" style="fill: #1f77b4; stroke: #1f77b4"/>
     <use xlink:href="#mddc160ca68" x="182.010017" y="506.332202" style="fill: #1f77b4; stroke: #1f77b4"/>
     <use xlink:href="#mddc160ca68" x="200.529115" y="486.137467" style="fill: #1f77b4; stroke: #1f77b4"/>
     <use xlink:href="#mddc160ca68" x="219.048212" y="439.733401" style="fill: #1f77b4; stroke: #1f77b4"/>
     <use xlink:href="#mddc160ca68" x="237.567309" y="499.114396" style="fill: #1f77b4; stroke: #1f77b4"/>
     <use xlink:href="#mddc160ca68" x="256.086406" y="435.654115" style="fill: #1f77b4; stroke: #1f77b4"/>
     <use xlink:href="#mddc160ca68" x="274.605503" y="457.556737" style="fill: #1f77b4; stroke: #1f77b4"/>
     <use xlink:href="#mddc160ca68" x="311.643698" y="347.08786" style="fill: #1f77b4; stroke: #1f77b4"/>
     <use xlink:href="#mddc160ca68" x="330.162795" y="340.22304" style="fill: #1f77b4; stroke: #1f77b4"/>
     <use xlink:href="#mddc160ca68" x="348.681892" y="501.453742" style="fill: #1f77b4; stroke: #1f77b4"/>
     <use xlink:href="#mddc160ca68" x="367.20099" y="462.506527" style="fill: #1f77b4; stroke: #1f77b4"/>
     <use xlink:href="#mddc160ca68" x="385.720087" y="482.258764" style="fill: #1f77b4; stroke: #1f77b4"/>
     <use xlink:href="#mddc160ca68" x="422.758281" y="493.47236" style="fill: #1f77b4; stroke: #1f77b4"/>
     <use xlink:href="#mddc160ca68" x="441.277378" y="493.725444" style="fill: #1f77b4; stroke: #1f77b4"/>
     <use xlink:href="#mddc160ca68" x="459.796476" y="499.723249" style="fill: #1f77b4; stroke: #1f77b4"/>
     <use xlink:href="#mddc160ca68" x="478.315573" y="491.96187" style="fill: #1f77b4; stroke: #1f77b4"/>
     <use xlink:href="#mddc160ca68" x="496.83467" y="489.188746" style="fill: #1f77b4; stroke: #1f77b4"/>
     <use xlink:href="#mddc160ca68" x="515.353767" y="481.560617" style="fill: #1f77b4; stroke: #1f77b4"/>
     <use xlink:href="#mddc160ca68" x="533.872865" y="471.802717" style="fill: #1f77b4; stroke: #1f77b4"/>
     <use xlink:href="#mddc160ca68" x="552.391962" y="484.760401" style="fill: #1f77b4; stroke: #1f77b4"/>
     <use xlink:href="#mddc160ca68" x="570.911059" y="433.830099" style="fill: #1f77b4; stroke: #1f77b4"/>
     <use xlink:href="#mddc160ca68" x="589.430156" y="467.838499" style="fill: #1f77b4; stroke: #1f77b4"/>
    </g>
   </g>
   <g id="line2d_16">
    <path d="M 89.414531 472.501647 
L 107.933628 388.591931 
L 144.971823 494.429708 
L 163.49092 434.986447 
L 182.010017 502.712102 
L 200.529115 492.002824 
L 219.048212 440.707473 
L 237.567309 487.513336 
L 256.086406 419.010409 
L 274.605503 472.401144 
L 311.643698 339.626617 
L 330.162795 357.873942 
L 348.681892 489.471947 
L 367.20099 422.560287 
L 385.720087 473.684671 
L 422.758281 500.712466 
L 441.277378 492.72872 
L 459.796476 501.258523 
L 478.315573 486.277145 
L 496.83467 489.419188 
L 515.353767 470.440952 
L 533.872865 462.441449 
L 552.391962 484.17413 
L 570.911059 465.408972 
L 589.430156 472.947658 
" clip-path="url(#p0e68eb0822)" style="fill: none; stroke: #ff7f0e; stroke-width: 2; stroke-linecap: square"/>
    <defs>
     <path id="mbeeb41341c" d="M 0 3 
C 0.795609 3 1.55874 2.683901 2.12132 2.12132 
C 2.683901 1.55874 3 0.795609 3 0 
C 3 -0.795609 2.683901 -1.55874 2.12132 -2.12132 
C 1.55874 -2.683901 0.795609 -3 0 -3 
C -0.795609 -3 -1.55874 -2.683901 -2.12132 -2.12132 
C -2.683901 -1.55874 -3 -0.795609 -3 0 
C -3 0.795609 -2.683901 1.55874 -2.12132 2.12132 
C -1.55874 2.683901 -0.795609 3 0 3 
z
" style="stroke: #ff7f0e"/>
    </defs>
    <g clip-path="url(#p0e68eb0822)">
     <use xlink:href="#mbeeb41341c" x="89.414531" y="472.501647" style="fill: #ff7f0e; stroke: #ff7f0e"/>
     <use xlink:href="#mbeeb41341c" x="107.933628" y="388.591931" style="fill: #ff7f0e; stroke: #ff7f0e"/>
     <use xlink:href="#mbeeb41341c" x="144.971823" y="494.429708" style="fill: #ff7f0e; stroke: #ff7f0e"/>
     <use xlink:href="#mbeeb41341c" x="163.49092" y="434.986447" style="fill: #ff7f0e; stroke: #ff7f0e"/>
     <use xlink:href="#mbeeb41341c" x="182.010017" y="502.712102" style="fill: #ff7f0e; stroke: #ff7f0e"/>
     <use xlink:href="#mbeeb41341c" x="200.529115" y="492.002824" style="fill: #ff7f0e; stroke: #ff7f0e"/>
     <use xlink:href="#mbeeb41341c" x="219.048212" y="440.707473" style="fill: #ff7f0e; stroke: #ff7f0e"/>
     <use xlink:href="#mbeeb41341c" x="237.567309" y="487.513336" style="fill: #ff7f0e; stroke: #ff7f0e"/>
     <use xlink:href="#mbeeb41341c" x="256.086406" y="419.010409" style="fill: #ff7f0e; stroke: #ff7f0e"/>
     <use xlink:href="#mbeeb41341c" x="274.605503" y="472.401144" style="fill: #ff7f0e; stroke: #ff7f0e"/>
     <use xlink:href="#mbeeb41341c" x="311.643698" y="339.626617" style="fill: #ff7f0e; stroke: #ff7f0e"/>
     <use xlink:href="#mbeeb41341c" x="330.162795" y="357.873942" style="fill: #ff7f0e; stroke: #ff7f0e"/>
     <use xlink:href="#mbeeb41341c" x="348.681892" y="489.471947" style="fill: #ff7f0e; stroke: #ff7f0e"/>
     <use xlink:href="#mbeeb41341c" x="367.20099" y="422.560287" style="fill: #ff7f0e; stroke: #ff7f0e"/>
     <use xlink:href="#mbeeb41341c" x="385.720087" y="473.684671" style="fill: #ff7f0e; stroke: #ff7f0e"/>
     <use xlink:href="#mbeeb41341c" x="422.758281" y="500.712466" style="fill: #ff7f0e; stroke: #ff7f0e"/>
     <use xlink:href="#mbeeb41341c" x="441.277378" y="492.72872" style="fill: #ff7f0e; stroke: #ff7f0e"/>
     <use xlink:href="#mbeeb41341c" x="459.796476" y="501.258523" style="fill: #ff7f0e; stroke: #ff7f0e"/>
     <use xlink:href="#mbeeb41341c" x="478.315573" y="486.277145" style="fill: #ff7f0e; stroke: #ff7f0e"/>
     <use xlink:href="#mbeeb41341c" x="496.83467" y="489.419188" style="fill: #ff7f0e; stroke: #ff7f0e"/>
     <use xlink:href="#mbeeb41341c" x="515.353767" y="470.440952" style="fill: #ff7f0e; stroke: #ff7f0e"/>
     <use xlink:href="#mbeeb41341c" x="533.872865" y="462.441449" style="fill: #ff7f0e; stroke: #ff7f0e"/>
     <use xlink:href="#mbeeb41341c" x="552.391962" y="484.17413" style="fill: #ff7f0e; stroke: #ff7f0e"/>
     <use xlink:href="#mbeeb41341c" x="570.911059" y="465.408972" style="fill: #ff7f0e; stroke: #ff7f0e"/>
     <use xlink:href="#mbeeb41341c" x="589.430156" y="472.947658" style="fill: #ff7f0e; stroke: #ff7f0e"/>
    </g>
   </g>
   <g id="line2d_17">
    <path d="M 89.414531 131.005199 
L 107.933628 196.432084 
L 144.971823 166.326694 
L 163.49092 92.893454 
L 182.010017 212.628547 
L 200.529115 174.400469 
L 219.048212 212.928609 
L 237.567309 206.93833 
L 256.086406 197.695081 
L 274.605503 204.049367 
L 311.643698 208.453299 
L 330.162795 215.842521 
L 348.681892 190.409664 
L 385.720087 203.225847 
L 441.277378 207.276799 
L 459.796476 174.452389 
L 478.315573 65.033399 
L 496.83467 209.896282 
L 515.353767 216.688612 
L 533.872865 183.762935 
L 552.391962 221.694329 
L 570.911059 177.556309 
L 589.430156 117.496145 
" clip-path="url(#p0e68eb0822)" style="fill: none; stroke: #2ca02c; stroke-width: 2; stroke-linecap: square"/>
    <defs>
     <path id="m7b7ef51f86" d="M 0 3 
C 0.795609 3 1.55874 2.683901 2.12132 2.12132 
C 2.683901 1.55874 3 0.795609 3 0 
C 3 -0.795609 2.683901 -1.55874 2.12132 -2.12132 
C 1.55874 -2.683901 0.795609 -3 0 -3 
C -0.795609 -3 -1.55874 -2.683901 -2.12132 -2.12132 
C -2.683901 -1.55874 -3 -0.795609 -3 0 
C -3 0.795609 -2.683901 1.55874 -2.12132 2.12132 
C -1.55874 2.683901 -0.795609 3 0 3 
z
" style="stroke: #2ca02c"/>
    </defs>
    <g clip-path="url(#p0e68eb0822)">
     <use xlink:href="#m7b7ef51f86" x="89.414531" y="131.005199" style="fill: #2ca02c; stroke: #2ca02c"/>
     <use xlink:href="#m7b7ef51f86" x="107.933628" y="196.432084" style="fill: #2ca02c; stroke: #2ca02c"/>
     <use xlink:href="#m7b7ef51f86" x="144.971823" y="166.326694" style="fill: #2ca02c; stroke: #2ca02c"/>
     <use xlink:href="#m7b7ef51f86" x="163.49092" y="92.893454" style="fill: #2ca02c; stroke: #2ca02c"/>
     <use xlink:href="#m7b7ef51f86" x="182.010017" y="212.628547" style="fill: #2ca02c; stroke: #2ca02c"/>
     <use xlink:href="#m7b7ef51f86" x="200.529115" y="174.400469" style="fill: #2ca02c; stroke: #2ca02c"/>
     <use xlink:href="#m7b7ef51f86" x="219.048212" y="212.928609" style="fill: #2ca02c; stroke: #2ca02c"/>
     <use xlink:href="#m7b7ef51f86" x="237.567309" y="206.93833" style="fill: #2ca02c; stroke: #2ca02c"/>
     <use xlink:href="#m7b7ef51f86" x="256.086406" y="197.695081" style="fill: #2ca02c; stroke: #2ca02c"/>
     <use xlink:href="#m7b7ef51f86" x="274.605503" y="204.049367" style="fill: #2ca02c; stroke: #2ca02c"/>
     <use xlink:href="#m7b7ef51f86" x="311.643698" y="208.453299" style="fill: #2ca02c; stroke: #2ca02c"/>
     <use xlink:href="#m7b7ef51f86" x="330.162795" y="215.842521" style="fill: #2ca02c; stroke: #2ca02c"/>
     <use xlink:href="#m7b7ef51f86" x="348.681892" y="190.409664" style="fill: #2ca02c; stroke: #2ca02c"/>
     <use xlink:href="#m7b7ef51f86" x="385.720087" y="203.225847" style="fill: #2ca02c; stroke: #2ca02c"/>
     <use xlink:href="#m7b7ef51f86" x="441.277378" y="207.276799" style="fill: #2ca02c; stroke: #2ca02c"/>
     <use xlink:href="#m7b7ef51f86" x="459.796476" y="174.452389" style="fill: #2ca02c; stroke: #2ca02c"/>
     <use xlink:href="#m7b7ef51f86" x="478.315573" y="65.033399" style="fill: #2ca02c; stroke: #2ca02c"/>
     <use xlink:href="#m7b7ef51f86" x="496.83467" y="209.896282" style="fill: #2ca02c; stroke: #2ca02c"/>
     <use xlink:href="#m7b7ef51f86" x="515.353767" y="216.688612" style="fill: #2ca02c; stroke: #2ca02c"/>
     <use xlink:href="#m7b7ef51f86" x="533.872865" y="183.762935" style="fill: #2ca02c; stroke: #2ca02c"/>
     <use xlink:href="#m7b7ef51f86" x="552.391962" y="221.694329" style="fill: #2ca02c; stroke: #2ca02c"/>
     <use xlink:href="#m7b7ef51f86" x="570.911059" y="177.556309" style="fill: #2ca02c; stroke: #2ca02c"/>
     <use xlink:href="#m7b7ef51f86" x="589.430156" y="117.496145" style="fill: #2ca02c; stroke: #2ca02c"/>
    </g>
   </g>
   <g id="line2d_18">
    <path d="M 89.414531 138.903015 
L 107.933628 207.704467 
L 144.971823 213.0565 
L 163.49092 99.385333 
L 182.010017 229.286969 
L 200.529115 177.660269 
L 219.048212 209.017139 
L 237.567309 222.105895 
L 256.086406 219.163212 
L 274.605503 229.920466 
L 311.643698 234.722934 
L 330.162795 224.225811 
L 348.681892 209.024711 
L 385.720087 221.0278 
L 441.277378 225.518722 
L 459.796476 200.325609 
L 478.315573 46.813736 
L 496.83467 222.589763 
L 515.353767 184.159759 
L 533.872865 205.130229 
L 552.391962 238.203517 
L 570.911059 221.314646 
L 589.430156 155.057295 
" clip-path="url(#p0e68eb0822)" style="fill: none; stroke: #d62728; stroke-width: 2; stroke-linecap: square"/>
    <defs>
     <path id="m7070af31a6" d="M 0 3 
C 0.795609 3 1.55874 2.683901 2.12132 2.12132 
C 2.683901 1.55874 3 0.795609 3 0 
C 3 -0.795609 2.683901 -1.55874 2.12132 -2.12132 
C 1.55874 -2.683901 0.795609 -3 0 -3 
C -0.795609 -3 -1.55874 -2.683901 -2.12132 -2.12132 
C -2.683901 -1.55874 -3 -0.795609 -3 0 
C -3 0.795609 -2.683901 1.55874 -2.12132 2.12132 
C -1.55874 2.683901 -0.795609 3 0 3 
z
" style="stroke: #d62728"/>
    </defs>
    <g clip-path="url(#p0e68eb0822)">
     <use xlink:href="#m7070af31a6" x="89.414531" y="138.903015" style="fill: #d62728; stroke: #d62728"/>
     <use xlink:href="#m7070af31a6" x="107.933628" y="207.704467" style="fill: #d62728; stroke: #d62728"/>
     <use xlink:href="#m7070af31a6" x="144.971823" y="213.0565" style="fill: #d62728; stroke: #d62728"/>
     <use xlink:href="#m7070af31a6" x="163.49092" y="99.385333" style="fill: #d62728; stroke: #d62728"/>
     <use xlink:href="#m7070af31a6" x="182.010017" y="229.286969" style="fill: #d62728; stroke: #d62728"/>
     <use xlink:href="#m7070af31a6" x="200.529115" y="177.660269" style="fill: #d62728; stroke: #d62728"/>
     <use xlink:href="#m7070af31a6" x="219.048212" y="209.017139" style="fill: #d62728; stroke: #d62728"/>
     <use xlink:href="#m7070af31a6" x="237.567309" y="222.105895" style="fill: #d62728; stroke: #d62728"/>
     <use xlink:href="#m7070af31a6" x="256.086406" y="219.163212" style="fill: #d62728; stroke: #d62728"/>
     <use xlink:href="#m7070af31a6" x="274.605503" y="229.920466" style="fill: #d62728; stroke: #d62728"/>
     <use xlink:href="#m7070af31a6" x="311.643698" y="234.722934" style="fill: #d62728; stroke: #d62728"/>
     <use xlink:href="#m7070af31a6" x="330.162795" y="224.225811" style="fill: #d62728; stroke: #d62728"/>
     <use xlink:href="#m7070af31a6" x="348.681892" y="209.024711" style="fill: #d62728; stroke: #d62728"/>
     <use xlink:href="#m7070af31a6" x="385.720087" y="221.0278" style="fill: #d62728; stroke: #d62728"/>
     <use xlink:href="#m7070af31a6" x="441.277378" y="225.518722" style="fill: #d62728; stroke: #d62728"/>
     <use xlink:href="#m7070af31a6" x="459.796476" y="200.325609" style="fill: #d62728; stroke: #d62728"/>
     <use xlink:href="#m7070af31a6" x="478.315573" y="46.813736" style="fill: #d62728; stroke: #d62728"/>
     <use xlink:href="#m7070af31a6" x="496.83467" y="222.589763" style="fill: #d62728; stroke: #d62728"/>
     <use xlink:href="#m7070af31a6" x="515.353767" y="184.159759" style="fill: #d62728; stroke: #d62728"/>
     <use xlink:href="#m7070af31a6" x="533.872865" y="205.130229" style="fill: #d62728; stroke: #d62728"/>
     <use xlink:href="#m7070af31a6" x="552.391962" y="238.203517" style="fill: #d62728; stroke: #d62728"/>
     <use xlink:href="#m7070af31a6" x="570.911059" y="221.314646" style="fill: #d62728; stroke: #d62728"/>
     <use xlink:href="#m7070af31a6" x="589.430156" y="155.057295" style="fill: #d62728; stroke: #d62728"/>
    </g>
   </g>
   <g id="patch_3">
    <path d="M 64.41375 529.308125 
L 64.41375 23.837813 
" style="fill: none; stroke: #000000; stroke-width: 0.8; stroke-linejoin: miter; stroke-linecap: square"/>
   </g>
   <g id="patch_4">
    <path d="M 614.430938 529.308125 
L 614.430938 23.837813 
" style="fill: none; stroke: #000000; stroke-width: 0.8; stroke-linejoin: miter; stroke-linecap: square"/>
   </g>
   <g id="patch_5">
    <path d="M 64.41375 529.308125 
L 614.430938 529.308125 
" style="fill: none; stroke: #000000; stroke-width: 0.8; stroke-linejoin: miter; stroke-linecap: square"/>
   </g>
   <g id="patch_6">
    <path d="M 64.41375 23.837812 
L 614.430938 23.837812 
" style="fill: none; stroke: #000000; stroke-width: 0.8; stroke-linejoin: miter; stroke-linecap: square"/>
   </g>
   <g id="text_11">
    <text style="font: 700 14px 'DejaVu Sans', 'Bitstream Vera Sans', 'Computer Modern Sans Serif', 'Lucida Grande', 'Verdana', 'Geneva', 'Lucid', 'Arial', 'Helvetica', 'Avant Garde', sans-serif; text-anchor: middle" x="339.422344" y="17.837813" transform="rotate(-0 339.422344 17.837813)">Coroutine Memory - Performance Trend</text>
   </g>
   <g id="legend_1">
    <g id="patch_7">
     <path d="M 648.931797 91.662813 
L 841.620859 91.662813 
Q 843.620859 91.662813 843.620859 89.662813 
L 843.620859 30.837813 
Q 843.620859 28.837813 841.620859 28.837813 
L 648.931797 28.837813 
Q 646.931797 28.837813 646.931797 30.837813 
L 646.931797 89.662813 
Q 646.931797 91.662813 648.931797 91.662813 
z
" style="fill: #ffffff; opacity: 0.8; stroke: #cccccc; stroke-linejoin: miter"/>
    </g>
    <g id="line2d_19">
     <path d="M 650.931797 36.93625 
L 660.931797 36.93625 
L 670.931797 36.93625 
" style="fill: none; stroke: #1f77b4; stroke-width: 2; stroke-linecap: square"/>
     <g>
      <use xlink:href="#mddc160ca68" x="660.931797" y="36.93625" style="fill: #1f77b4; stroke: #1f77b4"/>
     </g>
    </g>
    <g id="text_12">
     <text style="font: 10px 'DejaVu Sans', 'Bitstream Vera Sans', 'Computer Modern Sans Serif', 'Lucida Grande', 'Verdana', 'Geneva', 'Lucid', 'Arial', 'Helvetica', 'Avant Garde', sans-serif; text-anchor: start" x="678.931797" y="40.43625" transform="rotate(-0 678.931797 40.43625)">gcc-14.2 - CoroutineMemory_V1</text>
    </g>
    <g id="line2d_20">
     <path d="M 650.931797 51.8925 
L 660.931797 51.8925 
L 670.931797 51.8925 
" style="fill: none; stroke: #ff7f0e; stroke-width: 2; stroke-linecap: square"/>
     <g>
      <use xlink:href="#mbeeb41341c" x="660.931797" y="51.8925" style="fill: #ff7f0e; stroke: #ff7f0e"/>
     </g>
    </g>
    <g id="text_13">
     <text style="font: 10px 'DejaVu Sans', 'Bitstream Vera Sans', 'Computer Modern Sans Serif', 'Lucida Grande', 'Verdana', 'Geneva', 'Lucid', 'Arial', 'Helvetica', 'Avant Garde', sans-serif; text-anchor: start" x="678.931797" y="55.3925" transform="rotate(-0 678.931797 55.3925)">gcc-14.2 - CoroutineMemory_V2</text>
    </g>
    <g id="line2d_21">
     <path d="M 650.931797 66.84875 
L 660.931797 66.84875 
L 670.931797 66.84875 
" style="fill: none; stroke: #2ca02c; stroke-width: 2; stroke-linecap: square"/>
     <g>
      <use xlink:href="#m7b7ef51f86" x="660.931797" y="66.84875" style="fill: #2ca02c; stroke: #2ca02c"/>
     </g>
    </g>
    <g id="text_14">
     <text style="font: 10px 'DejaVu Sans', 'Bitstream Vera Sans', 'Computer Modern Sans Serif', 'Lucida Grande', 'Verdana', 'Geneva', 'Lucid', 'Arial', 'Helvetica', 'Avant Garde', sans-serif; text-anchor: start" x="678.931797" y="70.34875" transform="rotate(-0 678.931797 70.34875)">gcc-4.2 - CoroutineMemory_V1</text>
    </g>
    <g id="line2d_22">
     <path d="M 650.931797 81.805 
L 660.931797 81.805 
L 670.931797 81.805 
" style="fill: none; stroke: #d62728; stroke-width: 2; stroke-linecap: square"/>
     <g>
      <use xlink:href="#m7070af31a6" x="660.931797" y="81.805" style="fill: #d62728; stroke: #d62728"/>
     </g>
    </g>
    <g id="text_15">
     <text style="font: 10px 'DejaVu Sans', 'Bitstream Vera Sans', 'Computer Modern Sans Serif', 'Lucida Grande', 'Verdana', 'Geneva', 'Lucid', 'Arial', 'Helvetica', 'Avant Garde', sans-serif; text-anchor: start" x="678.931797" y="85.305" transform="rotate(-0 678.931797 85.305)">gcc-4.2 - CoroutineMemory_V2</text>
    </g>
   </g>
  </g>
 </g>
 <defs>
  <clipPath id="p0e68eb0822">
   <rect x="64.41375" y="23.837813" width="550.017187" height="505.470313"/>
  </clipPath>
 </defs>
</svg>
