<?xml version="1.0" encoding="utf-8" standalone="no"?>
<!DOCTYPE svg PUBLIC "-//W3C//DTD SVG 1.1//EN"
  "http://www.w3.org/Graphics/SVG/1.1/DTD/svg11.dtd">
<svg xmlns:xlink="http://www.w3.org/1999/xlink" width="850.739141pt" height="568.8pt" viewBox="0 0 850.739141 568.8" xmlns="http://www.w3.org/2000/svg" version="1.1">
 <metadata>
  <rdf:RDF xmlns:dc="http://purl.org/dc/elements/1.1/" xmlns:cc="http://creativecommons.org/ns#" xmlns:rdf="http://www.w3.org/1999/02/22-rdf-syntax-ns#">
   <cc:Work>
    <dc:type rdf:resource="http://purl.org/dc/dcmitype/StillImage"/>
    <dc:date>2026-03-15T13:27:26.737565</dc:date>
    <dc:format>image/svg+xml</dc:format>
    <dc:creator>
     <cc:Agent>
      <dc:title>Matplotlib v3.9.4, https://matplotlib.org/</dc:title>
     </cc:Agent>
    </dc:creator>
   </cc:Work>
  </rdf:RDF>
 </metadata>
 <defs>
  <style type="text/css">*{stroke-linejoin: round; stroke-linecap: butt}</style>
 </defs>
 <g id="figure_1">
  <g id="patch_1">
   <path d="M 0 568.8 
L 850.739141 568.8 
L 850.739141 0 
L 0 0 
z
" style="fill: #ffffff"/>
  </g>
  <g id="axes_1">
   <g id="patch_2">
    <path d="M 64.41375 529.308125 
L 612.796562 529.308125 
L 612.796562 23.837812 
L 64.41375 23.837812 
z
" style="fill: #ffffff"/>
   </g>
   <g id="matplotlib.axis_1">
    <g id="xtick_1">
     <g id="line2d_1">
      <path d="M 72.72258 529.308125 
L 72.72258 23.837812 
" clip-path="url(#pcf0b5ebbf6)" style="fill: none; stroke: #b0b0b0; stroke-opacity: 0.3; stroke-width: 0.8; stroke-linecap: square"/>
     </g>
     <g id="line2d_2">
      <defs>
       <path id="ma08a0933a4" d="M 0 0 
L 0 3.5 
" style="stroke: #000000; stroke-width: 0.8"/>
      </defs>
      <g>
       <use xlink:href="#ma08a0933a4" x="72.72258" y="529.308125" style="stroke: #000000; stroke-width: 0.8"/>
      </g>
     </g>
     <g id="text_1">
      <text style="font: 10px 'DejaVu Sans', 'Bitstream Vera Sans', 'Computer Modern Sans Serif', 'Lucida Grande', 'Verdana', 'Geneva', 'Lucid', 'Arial', 'Helvetica', 'Avant Garde', sans-serif; text-anchor: middle" x="72.72258" y="543.906563" transform="rotate(-0 72.72258 543.906563)">95</text>
     </g>
    </g>
    <g id="xtick_2">
     <g id="line2d_3">
      <path d="M 155.810885 529.308125 
L 155.810885 23.837812 
" clip-path="url(#pcf0b5ebbf6)" style="fill: none; stroke: #b0b0b0; stroke-opacity: 0.3; stroke-width: 0.8; stroke-linecap: square"/>
     </g>
     <g id="line2d_4">
      <g>
       <use xlink:href="#ma08a0933a4" x="155.810885" y="529.308125" style="stroke: #000000; stroke-width: 0.8"/>
      </g>
     </g>
     <g id="text_2">
      <text style="font: 10px 'DejaVu Sans', 'Bitstream Vera Sans', 'Computer Modern Sans Serif', 'Lucida Grande', 'Verdana', 'Geneva', 'Lucid', 'Arial', 'Helvetica', 'Avant Garde', sans-serif; text-anchor: middle" x="155.810885" y="543.906563" transform="rotate(-0 155.810885 543.906563)">100</text>
     </g>
    </g>
    <g id="xtick_3">
     <g id="line2d_5">
      <path d="M 238.89919 529.308125 
L 238.89919 23.837812 
" clip-path="url(#pcf0b5ebbf6)" style="fill: none; stroke: #b0b0b0; stroke-opacity: 0.3; stroke-width: 0.8; stroke-linecap: square"/>
     </g>
     <g id="line2d_6">
      <g>
       <use xlink:href="#ma08a0933a4" x="238.89919" y="529.308125" style="stroke: #000000; stroke-width: 0.8"/>
      </g>
     </g>
     <g id="text_3">
      <text style="font: 10px 'DejaVu Sans', 'Bitstream Vera Sans', 'Computer Modern Sans Serif', 'Lucida Grande', 'Verdana', 'Geneva', 'Lucid', 'Arial', 'Helvetica', 'Avant Garde', sans-serif; text-anchor: middle" x="238.89919" y="543.906563" transform="rotate(-0 238.89919 543.906563)">105</text>
     </g>
    </g>
    <g id="xtick_4">
     <g id="line2d_7">
      <path d="M 321.987495 529.308125 
L 321.987495 23.837812 
" clip-path="url(#pcf0b5ebbf6)" style="fill: none; stroke: #b0b0b0; stroke-opacity: 0.3; stroke-width: 0.8; stroke-linecap: square"/>
     </g>
     <g id="line2d_8">
      <g>
       <use xlink:href="#ma08a0933a4" x="321.987495" y="529.308125" style="stroke: #000000; stroke-width: 0.8"/>
      </g>
     </g>
     <g id="text_4">
      <text style="font: 10px 'DejaVu Sans', 'Bitstream Vera Sans', 'Computer Modern Sans Serif', 'Lucida Grande', 'Verdana', 'Geneva', 'Lucid', 'Arial', 'Helvetica', 'Avant Garde', sans-serif; text-anchor: middle" x="321.987495" y="543.906563" transform="rotate(-0 321.987495 543.906563)">110</text>
     </g>
    </g>
    <g id="xtick_5">
     <g id="line2d_9">
      <path d="M 405.0758 529.308125 
L 405.0758 23.837812 
" clip-path="url(#pcf0b5ebbf6)" style="fill: none; stroke: #b0b0b0; stroke-opacity: 0.3; stroke-width: 0.8; stroke-linecap: square"/>
     </g>
     <g id="line2d_10">
      <g>
       <use xlink:href="#ma08a0933a4" x="405.0758" y="529.308125" style="stroke: #000000; stroke-width: 0.8"/>
      </g>
     </g>
     <g id="text_5">
      <text style="font: 10px 'DejaVu Sans', 'Bitstream Vera Sans', 'Computer Modern Sans Serif', 'Lucida Grande', 'Verdana', 'Geneva', 'Lucid', 'Arial', 'Helvetica', 'Avant Garde', sans-serif; text-anchor: middle" x="405.0758" y="543.906563" transform="rotate(-0 405.0758 543.906563)">115</text>
     </g>
    </g>
    <g id="xtick_6">
     <g id="line2d_11">
      <path d="M 488.164105 529.308125 
L 488.164105 23.837812 
" clip-path="url(#pcf0b5ebbf6)" style="fill: none; stroke: #b0b0b0; stroke-opacity: 0.3; stroke-width: 0.8; stroke-linecap: square"/>
     </g>
     <g id="line2d_12">
      <g>
       <use xlink:href="#ma08a0933a4" x="488.164105" y="529.308125" style="stroke: #000000; stroke-width: 0.8"/>
      </g>
     </g>
     <g id="text_6">
      <text style="font: 10px 'DejaVu Sans', 'Bitstream Vera Sans', 'Computer Modern Sans Serif', 'Lucida Grande', 'Verdana', 'Geneva', 'Lucid', 'Arial', 'Helvetica', 'Avant Garde', sans-serif; text-anchor: middle" x="488.164105" y="543.906563" transform="rotate(-0 488.164105 543.906563)">120</text>
     </g>
    </g>
    <g id="xtick_7">
     <g id="line2d_13">
      <path d="M 571.25241 529.308125 
L 571.25241 23.837812 
" clip-path="url(#pcf0b5ebbf6)" style="fill: none; stroke: #b0b0b0; stroke-opacity: 0.3; stroke-width: 0.8; stroke-linecap: square"/>
     </g>
     <g id="line2d_14">
      <g>
       <use xlink:href="#ma08a0933a4" x="571.25241" y="529.308125" style="stroke: #000000; stroke-width: 0.8"/>
      </g>
     </g>
     <g id="text_7">
      <text style="font: 10px 'DejaVu Sans', 'Bitstream Vera Sans', 'Computer Modern Sans Serif', 'Lucida Grande', 'Verdana', 'Geneva', 'Lucid', 'Arial', 'Helvetica', 'Avant Garde', sans-serif; text-anchor: middle" x="571.25241" y="543.906563" transform="rotate(-0 571.25241 543.906563)">125</text>
     </g>
    </g>
    <g id="text_8">
     <text style="font: 12px 'DejaVu Sans', 'Bitstream Vera Sans', 'Computer Modern Sans Serif', 'Lucida Grande', 'Verdana', 'Geneva', 'Lucid', 'Arial', 'Helvetica', 'Avant Garde', sans-serif; text-anchor: middle" x="338.605156" y="559.104375" transform="rotate(-0 338.605156 559.104375)">Build Number</text>
    </g>
   </g>
   <g id="matplotlib.axis_2">
    <g id="ytick_1">
     <g id="line2d_15">
      <defs>
       <path id="me44b29bcf4" d="M 0 0 
L -2 0 
" style="stroke: #000000; stroke-width: 0.6"/>
      </defs>
      <g>
       <use xlink:href="#me44b29bcf4" x="64.41375" y="283.865341" style="stroke: #000000; stroke-width: 0.6"/>
      </g>
     </g>
     <g id="text_9">
      <!-- $\mathdefault{5\times10^{5}}$ -->
      <g transform="translate(22.81375 287.66456)">
       <text>
        <tspan style="font: 10px 'DejaVu Sans'" x="0 8.310547 18.637695 25" y="-0.06406250000000036">5×10</tspan>
        <tspan style="font: 7px 'DejaVu Sans'" x="31.458008" y="-3.8921875000000004">5</tspan>
       </text>
      </g>
     </g>
    </g>
    <g id="ytick_2">
     <g id="line2d_16">
      <g>
       <use xlink:href="#me44b29bcf4" x="64.41375" y="31.842362" style="stroke: #000000; stroke-width: 0.6"/>
      </g>
     </g>
     <g id="text_10">
      <!-- $\mathdefault{6\times10^{5}}$ -->
      <g transform="translate(22.81375 35.641581)">
       <text>
        <tspan style="font: 10px 'DejaVu Sans'" x="0 8.310547 18.637695 25" y="-0.06406250000000036">6×10</tspan>
        <tspan style="font: 7px 'DejaVu Sans'" x="31.458008" y="-3.8921875000000004">5</tspan>
       </text>
      </g>
     </g>
    </g>
    <g id="text_11">
     <text style="font: 12px 'DejaVu Sans', 'Bitstream Vera Sans', 'Computer Modern Sans Serif', 'Lucida Grande', 'Verdana', 'Geneva', 'Lucid', 'Arial', 'Helvetica', 'Avant Garde', sans-serif; text-anchor: middle" x="16.318125" y="276.572969" transform="rotate(-90 16.318125 276.572969)">Median Elapsed Time (nanoseconds)</text>
    </g>
   </g>
   <g id="line2d_17">
    <path d="M 89.340241 70.703172 
L 105.957902 62.757595 
L 139.193224 67.374218 
L 155.810885 82.830815 
L 172.428546 81.172872 
L 189.046207 85.440486 
L 205.663868 46.813736 
L 222.281529 74.96777 
L 238.89919 79.635677 
L 255.516851 70.95152 
L 288.752173 67.134311 
L 305.369834 88.720141 
L 321.987495 74.602736 
L 338.605156 75.523825 
L 355.222817 55.7617 
L 388.458139 84.396457 
L 405.0758 72.028606 
L 421.693461 74.332112 
L 438.311122 61.627914 
L 454.928783 71.575668 
L 471.546444 95.451962 
L 488.164105 74.418591 
L 504.781766 70.833739 
L 521.399427 456.19375 
L 538.017088 70.254695 
L 554.634749 76.440294 
" clip-path="url(#pcf0b5ebbf6)" style="fill: none; stroke: #1f77b4; stroke-width: 2; stroke-linecap: square"/>
    <defs>
     <path id="m64194c6740" d="M 0 3 
C 0.795609 3 1.55874 2.683901 2.12132 2.12132 
C 2.683901 1.55874 3 0.795609 3 0 
C 3 -0.795609 2.683901 -1.55874 2.12132 -2.12132 
C 1.55874 -2.683901 0.795609 -3 0 -3 
C -0.795609 -3 -1.55874 -2.683901 -2.12132 -2.12132 
C -2.683901 -1.55874 -3 -0.795609 -3 0 
C -3 0.795609 -2.683901 1.55874 -2.12132 2.12132 
C -1.55874 2.683901 -0.795609 3 0 3 
z
" style="stroke: #1f77b4"/>
    </defs>
    <g clip-path="url(#pcf0b5ebbf6)">
     <use xlink:href="#m64194c6740" x="89.340241" y="70.703172" style="fill: #1f77b4; stroke: #1f77b4"/>
     <use xlink:href="#m64194c6740" x="105.957902" y="62.757595" style="fill: #1f77b4; stroke: #1f77b4"/>
     <use xlink:href="#m64194c6740" x="139.193224" y="67.374218" style="fill: #1f77b4; stroke: #1f77b4"/>
     <use xlink:href="#m64194c6740" x="155.810885" y="82.830815" style="fill: #1f77b4; stroke: #1f77b4"/>
     <use xlink:href="#m64194c6740" x="172.428546" y="81.172872" style="fill: #1f77b4; stroke: #1f77b4"/>
     <use xlink:href="#m64194c6740" x="189.046207" y="85.440486" style="fill: #1f77b4; stroke: #1f77b4"/>
     <use xlink:href="#m64194c6740" x="205.663868" y="46.813736" style="fill: #1f77b4; stroke: #1f77b4"/>
     <use xlink:href="#m64194c6740" x="222.281529" y="74.96777" style="fill: #1f77b4; stroke: #1f77b4"/>
     <use xlink:href="#m64194c6740" x="238.89919" y="79.635677" style="fill: #1f77b4; stroke: #1f77b4"/>
     <use xlink:href="#m64194c6740" x="255.516851" y="70.95152" style="fill: #1f77b4; stroke: #1f77b4"/>
     <use xlink:href="#m64194c6740" x="288.752173" y="67.134311" style="fill: #1f77b4; stroke: #1f77b4"/>
     <use xlink:href="#m64194c6740" x="305.369834" y="88.720141" style="fill: #1f77b4; stroke: #1f77b4"/>
     <use xlink:href="#m64194c6740" x="321.987495" y="74.602736" style="fill: #1f77b4; stroke: #1f77b4"/>
     <use xlink:href="#m64194c6740" x="338.605156" y="75.523825" style="fill: #1f77b4; stroke: #1f77b4"/>
     <use xlink:href="#m64194c6740" x="355.222817" y="55.7617" style="fill: #1f77b4; stroke: #1f77b4"/>
     <use xlink:href="#m64194c6740" x="388.458139" y="84.396457" style="fill: #1f77b4; stroke: #1f77b4"/>
     <use xlink:href="#m64194c6740" x="405.0758" y="72.028606" style="fill: #1f77b4; stroke: #1f77b4"/>
     <use xlink:href="#m64194c6740" x="421.693461" y="74.332112" style="fill: #1f77b4; stroke: #1f77b4"/>
     <use xlink:href="#m64194c6740" x="438.311122" y="61.627914" style="fill: #1f77b4; stroke: #1f77b4"/>
     <use xlink:href="#m64194c6740" x="454.928783" y="71.575668" style="fill: #1f77b4; stroke: #1f77b4"/>
     <use xlink:href="#m64194c6740" x="471.546444" y="95.451962" style="fill: #1f77b4; stroke: #1f77b4"/>
     <use xlink:href="#m64194c6740" x="488.164105" y="74.418591" style="fill: #1f77b4; stroke: #1f77b4"/>
     <use xlink:href="#m64194c6740" x="504.781766" y="70.833739" style="fill: #1f77b4; stroke: #1f77b4"/>
     <use xlink:href="#m64194c6740" x="521.399427" y="456.19375" style="fill: #1f77b4; stroke: #1f77b4"/>
     <use xlink:href="#m64194c6740" x="538.017088" y="70.254695" style="fill: #1f77b4; stroke: #1f77b4"/>
     <use xlink:href="#m64194c6740" x="554.634749" y="76.440294" style="fill: #1f77b4; stroke: #1f77b4"/>
    </g>
   </g>
   <g id="line2d_18">
    <path d="M 89.340241 110.451595 
L 105.957902 95.181325 
L 139.193224 99.813565 
L 155.810885 140.955645 
L 172.428546 115.205607 
L 189.046207 126.083079 
L 205.663868 97.786893 
L 222.281529 105.7846 
L 238.89919 121.865846 
L 255.516851 103.355824 
L 288.752173 88.149395 
L 305.369834 89.559888 
L 321.987495 114.266749 
L 338.605156 114.412257 
L 355.222817 117.449165 
L 388.458139 124.317047 
L 405.0758 78.829584 
L 421.693461 113.878232 
L 438.311122 109.06592 
L 454.928783 127.065786 
L 471.546444 138.713961 
L 488.164105 114.77059 
L 504.781766 115.493409 
L 521.399427 506.332202 
L 538.017088 97.211908 
L 554.634749 122.812341 
" clip-path="url(#pcf0b5ebbf6)" style="fill: none; stroke: #ff7f0e; stroke-width: 2; stroke-linecap: square"/>
    <defs>
     <path id="m97353eb1d1" d="M 0 3 
C 0.795609 3 1.55874 2.683901 2.12132 2.12132 
C 2.683901 1.55874 3 0.795609 3 0 
C 3 -0.795609 2.683901 -1.55874 2.12132 -2.12132 
C 1.55874 -2.683901 0.795609 -3 0 -3 
C -0.795609 -3 -1.55874 -2.683901 -2.12132 -2.12132 
C -2.683901 -1.55874 -3 -0.795609 -3 0 
C -3 0.795609 -2.683901 1.55874 -2.12132 2.12132 
C -1.55874 2.683901 -0.795609 3 0 3 
z
" style="stroke: #ff7f0e"/>
    </defs>
    <g clip-path="url(#pcf0b5ebbf6)">
     <use xlink:href="#m97353eb1d1" x="89.340241" y="110.451595" style="fill: #ff7f0e; stroke: #ff7f0e"/>
     <use xlink:href="#m97353eb1d1" x="105.957902" y="95.181325" style="fill: #ff7f0e; stroke: #ff7f0e"/>
     <use xlink:href="#m97353eb1d1" x="139.193224" y="99.813565" style="fill: #ff7f0e; stroke: #ff7f0e"/>
     <use xlink:href="#m97353eb1d1" x="155.810885" y="140.955645" style="fill: #ff7f0e; stroke: #ff7f0e"/>
     <use xlink:href="#m97353eb1d1" x="172.428546" y="115.205607" style="fill: #ff7f0e; stroke: #ff7f0e"/>
     <use xlink:href="#m97353eb1d1" x="189.046207" y="126.083079" style="fill: #ff7f0e; stroke: #ff7f0e"/>
     <use xlink:href="#m97353eb1d1" x="205.663868" y="97.786893" style="fill: #ff7f0e; stroke: #ff7f0e"/>
     <use xlink:href="#m97353eb1d1" x="222.281529" y="105.7846" style="fill: #ff7f0e; stroke: #ff7f0e"/>
     <use xlink:href="#m97353eb1d1" x="238.89919" y="121.865846" style="fill: #ff7f0e; stroke: #ff7f0e"/>
     <use xlink:href="#m97353eb1d1" x="255.516851" y="103.355824" style="fill: #ff7f0e; stroke: #ff7f0e"/>
     <use xlink:href="#m97353eb1d1" x="288.752173" y="88.149395" style="fill: #ff7f0e; stroke: #ff7f0e"/>
     <use xlink:href="#m97353eb1d1" x="305.369834" y="89.559888" style="fill: #ff7f0e; stroke: #ff7f0e"/>
     <use xlink:href="#m97353eb1d1" x="321.987495" y="114.266749" style="fill: #ff7f0e; stroke: #ff7f0e"/>
     <use xlink:href="#m97353eb1d1" x="338.605156" y="114.412257" style="fill: #ff7f0e; stroke: #ff7f0e"/>
     <use xlink:href="#m97353eb1d1" x="355.222817" y="117.449165" style="fill: #ff7f0e; stroke: #ff7f0e"/>
     <use xlink:href="#m97353eb1d1" x="388.458139" y="124.317047" style="fill: #ff7f0e; stroke: #ff7f0e"/>
     <use xlink:href="#m97353eb1d1" x="405.0758" y="78.829584" style="fill: #ff7f0e; stroke: #ff7f0e"/>
     <use xlink:href="#m97353eb1d1" x="421.693461" y="113.878232" style="fill: #ff7f0e; stroke: #ff7f0e"/>
     <use xlink:href="#m97353eb1d1" x="438.311122" y="109.06592" style="fill: #ff7f0e; stroke: #ff7f0e"/>
     <use xlink:href="#m97353eb1d1" x="454.928783" y="127.065786" style="fill: #ff7f0e; stroke: #ff7f0e"/>
     <use xlink:href="#m97353eb1d1" x="471.546444" y="138.713961" style="fill: #ff7f0e; stroke: #ff7f0e"/>
     <use xlink:href="#m97353eb1d1" x="488.164105" y="114.77059" style="fill: #ff7f0e; stroke: #ff7f0e"/>
     <use xlink:href="#m97353eb1d1" x="504.781766" y="115.493409" style="fill: #ff7f0e; stroke: #ff7f0e"/>
     <use xlink:href="#m97353eb1d1" x="521.399427" y="506.332202" style="fill: #ff7f0e; stroke: #ff7f0e"/>
     <use xlink:href="#m97353eb1d1" x="538.017088" y="97.211908" style="fill: #ff7f0e; stroke: #ff7f0e"/>
     <use xlink:href="#m97353eb1d1" x="554.634749" y="122.812341" style="fill: #ff7f0e; stroke: #ff7f0e"/>
    </g>
   </g>
   <g id="line2d_19">
    <path d="M 89.340241 243.789125 
L 105.957902 228.845352 
L 139.193224 234.087157 
L 155.810885 239.726689 
L 172.428546 243.738637 
L 189.046207 216.733186 
L 205.663868 251.056893 
L 222.281529 234.310121 
L 238.89919 241.042073 
L 255.516851 236.060941 
L 288.752173 235.309632 
L 305.369834 237.32312 
L 321.987495 239.519985 
L 355.222817 239.847459 
L 405.0758 232.77624 
L 421.693461 229.338262 
L 438.311122 216.881199 
L 454.928783 228.808159 
L 471.546444 236.005393 
L 488.164105 229.448028 
L 504.781766 228.470009 
L 521.399427 228.133003 
L 538.017088 231.371543 
L 554.634749 227.560097 
L 587.870071 123.830153 
" clip-path="url(#pcf0b5ebbf6)" style="fill: none; stroke: #2ca02c; stroke-width: 2; stroke-linecap: square"/>
    <defs>
     <path id="mec9d804523" d="M 0 3 
C 0.795609 3 1.55874 2.683901 2.12132 2.12132 
C 2.683901 1.55874 3 0.795609 3 0 
C 3 -0.795609 2.683901 -1.55874 2.12132 -2.12132 
C 1.55874 -2.683901 0.795609 -3 0 -3 
C -0.795609 -3 -1.55874 -2.683901 -2.12132 -2.12132 
C -2.683901 -1.55874 -3 -0.795609 -3 0 
C -3 0.795609 -2.683901 1.55874 -2.12132 2.12132 
C -1.55874 2.683901 -0.795609 3 0 3 
z
" style="stroke: #2ca02c"/>
    </defs>
    <g clip-path="url(#pcf0b5ebbf6)">
     <use xlink:href="#mec9d804523" x="89.340241" y="243.789125" style="fill: #2ca02c; stroke: #2ca02c"/>
     <use xlink:href="#mec9d804523" x="105.957902" y="228.845352" style="fill: #2ca02c; stroke: #2ca02c"/>
     <use xlink:href="#mec9d804523" x="139.193224" y="234.087157" style="fill: #2ca02c; stroke: #2ca02c"/>
     <use xlink:href="#mec9d804523" x="155.810885" y="239.726689" style="fill: #2ca02c; stroke: #2ca02c"/>
     <use xlink:href="#mec9d804523" x="172.428546" y="243.738637" style="fill: #2ca02c; stroke: #2ca02c"/>
     <use xlink:href="#mec9d804523" x="189.046207" y="216.733186" style="fill: #2ca02c; stroke: #2ca02c"/>
     <use xlink:href="#mec9d804523" x="205.663868" y="251.056893" style="fill: #2ca02c; stroke: #2ca02c"/>
     <use xlink:href="#mec9d804523" x="222.281529" y="234.310121" style="fill: #2ca02c; stroke: #2ca02c"/>
     <use xlink:href="#mec9d804523" x="238.89919" y="241.042073" style="fill: #2ca02c; stroke: #2ca02c"/>
     <use xlink:href="#mec9d804523" x="255.516851" y="236.060941" style="fill: #2ca02c; stroke: #2ca02c"/>
     <use xlink:href="#mec9d804523" x="288.752173" y="235.309632" style="fill: #2ca02c; stroke: #2ca02c"/>
     <use xlink:href="#mec9d804523" x="305.369834" y="237.32312" style="fill: #2ca02c; stroke: #2ca02c"/>
     <use xlink:href="#mec9d804523" x="321.987495" y="239.519985" style="fill: #2ca02c; stroke: #2ca02c"/>
     <use xlink:href="#mec9d804523" x="355.222817" y="239.847459" style="fill: #2ca02c; stroke: #2ca02c"/>
     <use xlink:href="#mec9d804523" x="405.0758" y="232.77624" style="fill: #2ca02c; stroke: #2ca02c"/>
     <use xlink:href="#mec9d804523" x="421.693461" y="229.338262" style="fill: #2ca02c; stroke: #2ca02c"/>
     <use xlink:href="#mec9d804523" x="438.311122" y="216.881199" style="fill: #2ca02c; stroke: #2ca02c"/>
     <use xlink:href="#mec9d804523" x="454.928783" y="228.808159" style="fill: #2ca02c; stroke: #2ca02c"/>
     <use xlink:href="#mec9d804523" x="471.546444" y="236.005393" style="fill: #2ca02c; stroke: #2ca02c"/>
     <use xlink:href="#mec9d804523" x="488.164105" y="229.448028" style="fill: #2ca02c; stroke: #2ca02c"/>
     <use xlink:href="#mec9d804523" x="504.781766" y="228.470009" style="fill: #2ca02c; stroke: #2ca02c"/>
     <use xlink:href="#mec9d804523" x="521.399427" y="228.133003" style="fill: #2ca02c; stroke: #2ca02c"/>
     <use xlink:href="#mec9d804523" x="538.017088" y="231.371543" style="fill: #2ca02c; stroke: #2ca02c"/>
     <use xlink:href="#mec9d804523" x="554.634749" y="227.560097" style="fill: #2ca02c; stroke: #2ca02c"/>
     <use xlink:href="#mec9d804523" x="587.870071" y="123.830153" style="fill: #2ca02c; stroke: #2ca02c"/>
    </g>
   </g>
   <g id="line2d_20">
    <path d="M 89.340241 246.204781 
L 105.957902 240.11287 
L 139.193224 245.282586 
L 155.810885 230.299608 
L 172.428546 248.487227 
L 189.046207 198.367995 
L 205.663868 258.439342 
L 222.281529 222.38181 
L 238.89919 252.713104 
L 255.516851 243.260969 
L 288.752173 246.630182 
L 305.369834 251.744421 
L 321.987495 240.002521 
L 355.222817 243.676066 
L 405.0758 245.293071 
L 421.693461 246.902819 
L 438.311122 233.953556 
L 454.928783 241.855505 
L 471.546444 250.399389 
L 488.164105 229.06508 
L 504.781766 240.947731 
L 521.399427 220.876157 
L 538.017088 237.692319 
L 554.634749 223.195444 
L 587.870071 136.041101 
" clip-path="url(#pcf0b5ebbf6)" style="fill: none; stroke: #d62728; stroke-width: 2; stroke-linecap: square"/>
    <defs>
     <path id="m5e5d6c183a" d="M 0 3 
C 0.795609 3 1.55874 2.683901 2.12132 2.12132 
C 2.683901 1.55874 3 0.795609 3 0 
C 3 -0.795609 2.683901 -1.55874 2.12132 -2.12132 
C 1.55874 -2.683901 0.795609 -3 0 -3 
C -0.795609 -3 -1.55874 -2.683901 -2.12132 -2.12132 
C -2.683901 -1.55874 -3 -0.795609 -3 0 
C -3 0.795609 -2.683901 1.55874 -2.12132 2.12132 
C -1.55874 2.683901 -0.795609 3 0 3 
z
" style="stroke: #d62728"/>
    </defs>
    <g clip-path="url(#pcf0b5ebbf6)">
     <use xlink:href="#m5e5d6c183a" x="89.340241" y="246.204781" style="fill: #d62728; stroke: #d62728"/>
     <use xlink:href="#m5e5d6c183a" x="105.957902" y="240.11287" style="fill: #d62728; stroke: #d62728"/>
     <use xlink:href="#m5e5d6c183a" x="139.193224" y="245.282586" style="fill: #d62728; stroke: #d62728"/>
     <use xlink:href="#m5e5d6c183a" x="155.810885" y="230.299608" style="fill: #d62728; stroke: #d62728"/>
     <use xlink:href="#m5e5d6c183a" x="172.428546" y="248.487227" style="fill: #d62728; stroke: #d62728"/>
     <use xlink:href="#m5e5d6c183a" x="189.046207" y="198.367995" style="fill: #d62728; stroke: #d62728"/>
     <use xlink:href="#m5e5d6c183a" x="205.663868" y="258.439342" style="fill: #d62728; stroke: #d62728"/>
     <use xlink:href="#m5e5d6c183a" x="222.281529" y="222.38181" style="fill: #d62728; stroke: #d62728"/>
     <use xlink:href="#m5e5d6c183a" x="238.89919" y="252.713104" style="fill: #d62728; stroke: #d62728"/>
     <use xlink:href="#m5e5d6c183a" x="255.516851" y="243.260969" style="fill: #d62728; stroke: #d62728"/>
     <use xlink:href="#m5e5d6c183a" x="288.752173" y="246.630182" style="fill: #d62728; stroke: #d62728"/>
     <use xlink:href="#m5e5d6c183a" x="305.369834" y="251.744421" style="fill: #d62728; stroke: #d62728"/>
     <use xlink:href="#m5e5d6c183a" x="321.987495" y="240.002521" style="fill: #d62728; stroke: #d62728"/>
     <use xlink:href="#m5e5d6c183a" x="355.222817" y="243.676066" style="fill: #d62728; stroke: #d62728"/>
     <use xlink:href="#m5e5d6c183a" x="405.0758" y="245.293071" style="fill: #d62728; stroke: #d62728"/>
     <use xlink:href="#m5e5d6c183a" x="421.693461" y="246.902819" style="fill: #d62728; stroke: #d62728"/>
     <use xlink:href="#m5e5d6c183a" x="438.311122" y="233.953556" style="fill: #d62728; stroke: #d62728"/>
     <use xlink:href="#m5e5d6c183a" x="454.928783" y="241.855505" style="fill: #d62728; stroke: #d62728"/>
     <use xlink:href="#m5e5d6c183a" x="471.546444" y="250.399389" style="fill: #d62728; stroke: #d62728"/>
     <use xlink:href="#m5e5d6c183a" x="488.164105" y="229.06508" style="fill: #d62728; stroke: #d62728"/>
     <use xlink:href="#m5e5d6c183a" x="504.781766" y="240.947731" style="fill: #d62728; stroke: #d62728"/>
     <use xlink:href="#m5e5d6c183a" x="521.399427" y="220.876157" style="fill: #d62728; stroke: #d62728"/>
     <use xlink:href="#m5e5d6c183a" x="538.017088" y="237.692319" style="fill: #d62728; stroke: #d62728"/>
     <use xlink:href="#m5e5d6c183a" x="554.634749" y="223.195444" style="fill: #d62728; stroke: #d62728"/>
     <use xlink:href="#m5e5d6c183a" x="587.870071" y="136.041101" style="fill: #d62728; stroke: #d62728"/>
    </g>
   </g>
   <g id="patch_3">
    <path d="M 64.41375 529.308125 
L 64.41375 23.837813 
" style="fill: none; stroke: #000000; stroke-width: 0.8; stroke-linejoin: miter; stroke-linecap: square"/>
   </g>
   <g id="patch_4">
    <path d="M 612.796562 529.308125 
L 612.796562 23.837813 
" style="fill: none; stroke: #000000; stroke-width: 0.8; stroke-linejoin: miter; stroke-linecap: square"/>
   </g>
   <g id="patch_5">
    <path d="M 64.41375 529.308125 
L 612.796562 529.308125 
" style="fill: none; stroke: #000000; stroke-width: 0.8; stroke-linejoin: miter; stroke-linecap: square"/>
   </g>
   <g id="patch_6">
    <path d="M 64.41375 23.837812 
L 612.796562 23.837812 
" style="fill: none; stroke: #000000; stroke-width: 0.8; stroke-linejoin: miter; stroke-linecap: square"/>
   </g>
   <g id="text_12">
    <text style="font: 700 14px 'DejaVu Sans', 'Bitstream Vera Sans', 'Computer Modern Sans Serif', 'Lucida Grande', 'Verdana', 'Geneva', 'Lucid', 'Arial', 'Helvetica', 'Avant Garde', sans-serif; text-anchor: middle" x="338.605156" y="17.837813" transform="rotate(-0 338.605156 17.837813)">Coroutine Creation - Performance Trend</text>
   </g>
   <g id="legend_1">
    <g id="patch_7">
     <path d="M 647.215703 91.662813 
L 841.539141 91.662813 
Q 843.539141 91.662813 843.539141 89.662813 
L 843.539141 30.837813 
Q 843.539141 28.837813 841.539141 28.837813 
L 647.215703 28.837813 
Q 645.215703 28.837813 645.215703 30.837813 
L 645.215703 89.662813 
Q 645.215703 91.662813 647.215703 91.662813 
z
" style="fill: #ffffff; opacity: 0.8; stroke: #cccccc; stroke-linejoin: miter"/>
    </g>
    <g id="line2d_21">
     <path d="M 649.215703 36.93625 
L 659.215703 36.93625 
L 669.215703 36.93625 
" style="fill: none; stroke: #1f77b4; stroke-width: 2; stroke-linecap: square"/>
     <g>
      <use xlink:href="#m64194c6740" x="659.215703" y="36.93625" style="fill: #1f77b4; stroke: #1f77b4"/>
     </g>
    </g>
    <g id="text_13">
     <text style="font: 10px 'DejaVu Sans', 'Bitstream Vera Sans', 'Computer Modern Sans Serif', 'Lucida Grande', 'Verdana', 'Geneva', 'Lucid', 'Arial', 'Helvetica', 'Avant Garde', sans-serif; text-anchor: start" x="677.215703" y="40.43625" transform="rotate(-0 677.215703 40.43625)">gcc-14.2 - CoroutineCreation_V1</text>
    </g>
    <g id="line2d_22">
     <path d="M 649.215703 51.8925 
L 659.215703 51.8925 
L 669.215703 51.8925 
" style="fill: none; stroke: #ff7f0e; stroke-width: 2; stroke-linecap: square"/>
     <g>
      <use xlink:href="#m97353eb1d1" x="659.215703" y="51.8925" style="fill: #ff7f0e; stroke: #ff7f0e"/>
     </g>
    </g>
    <g id="text_14">
     <text style="font: 10px 'DejaVu Sans', 'Bitstream Vera Sans', 'Computer Modern Sans Serif', 'Lucida Grande', 'Verdana', 'Geneva', 'Lucid', 'Arial', 'Helvetica', 'Avant Garde', sans-serif; text-anchor: start" x="677.215703" y="55.3925" transform="rotate(-0 677.215703 55.3925)">gcc-14.2 - CoroutineCreation_V2</text>
    </g>
    <g id="line2d_23">
     <path d="M 649.215703 66.84875 
L 659.215703 66.84875 
L 669.215703 66.84875 
" style="fill: none; stroke: #2ca02c; stroke-width: 2; stroke-linecap: square"/>
     <g>
      <use xlink:href="#mec9d804523" x="659.215703" y="66.84875" style="fill: #2ca02c; stroke: #2ca02c"/>
     </g>
    </g>
    <g id="text_15">
     <text style="font: 10px 'DejaVu Sans', 'Bitstream Vera Sans', 'Computer Modern Sans Serif', 'Lucida Grande', 'Verdana', 'Geneva', 'Lucid', 'Arial', 'Helvetica', 'Avant Garde', sans-serif; text-anchor: start" x="677.215703" y="70.34875" transform="rotate(-0 677.215703 70.34875)">gcc-4.2 - CoroutineCreation_V1</text>
    </g>
    <g id="line2d_24">
     <path d="M 649.215703 81.805 
L 659.215703 81.805 
L 669.215703 81.805 
" style="fill: none; stroke: #d62728; stroke-width: 2; stroke-linecap: square"/>
     <g>
      <use xlink:href="#m5e5d6c183a" x="659.215703" y="81.805" style="fill: #d62728; stroke: #d62728"/>
     </g>
    </g>
    <g id="text_16">
     <text style="font: 10px 'DejaVu Sans', 'Bitstream Vera Sans', 'Computer Modern Sans Serif', 'Lucida Grande', 'Verdana', 'Geneva', 'Lucid', 'Arial', 'Helvetica', 'Avant Garde', sans-serif; text-anchor: start" x="677.215703" y="85.305" transform="rotate(-0 677.215703 85.305)">gcc-4.2 - CoroutineCreation_V2</text>
    </g>
   </g>
  </g>
 </g>
 <defs>
  <clipPath id="pcf0b5ebbf6">
   <rect x="64.41375" y="23.837813" width="548.382812" height="505.470313"/>
  </clipPath>
 </defs>
</svg>
