<?xml version="1.0" encoding="utf-8" standalone="no"?>
<!DOCTYPE svg PUBLIC "-//W3C//DTD SVG 1.1//EN"
  "http://www.w3.org/Graphics/SVG/1.1/DTD/svg11.dtd">
<svg xmlns:xlink="http://www.w3.org/1999/xlink" width="850.820859pt" height="568.8pt" viewBox="0 0 850.820859 568.8" xmlns="http://www.w3.org/2000/svg" version="1.1">
 <metadata>
  <rdf:RDF xmlns:dc="http://purl.org/dc/elements/1.1/" xmlns:cc="http://creativecommons.org/ns#" xmlns:rdf="http://www.w3.org/1999/02/22-rdf-syntax-ns#">
   <cc:Work>
    <dc:type rdf:resource="http://purl.org/dc/dcmitype/StillImage"/>
    <dc:date>2026-06-06T05:47:06.651648</dc:date>
    <dc:format>image/svg+xml</dc:format>
    <dc:creator>
     <cc:Agent>
      <dc:title>Matplotlib v3.9.4, https://matplotlib.org/</dc:title>
     </cc:Agent>
    </dc:creator>
   </cc:Work>
  </rdf:RDF>
 </metadata>
 <defs>
  <style type="text/css">*{stroke-linejoin: round; stroke-linecap: butt}</style>
 </defs>
 <g id="figure_1">
  <g id="patch_1">
   <path d="M 0 568.8 
L 850.820859 568.8 
L 850.820859 0 
L 0 0 
z
" style="fill: #ffffff"/>
  </g>
  <g id="axes_1">
   <g id="patch_2">
    <path d="M 64.41375 529.308125 
L 614.430938 529.308125 
L 614.430938 23.837812 
L 64.41375 23.837812 
z
" style="fill: #ffffff"/>
   </g>
   <g id="matplotlib.axis_1">
    <g id="xtick_1">
     <g id="line2d_1">
      <path d="M 73.789043 529.308125 
L 73.789043 23.837812 
" clip-path="url(#pb626d1499e)" style="fill: none; stroke: #b0b0b0; stroke-opacity: 0.3; stroke-width: 0.8; stroke-linecap: square"/>
     </g>
     <g id="line2d_2">
      <defs>
       <path id="m76c7e4c9ea" d="M 0 0 
L 0 3.5 
" style="stroke: #000000; stroke-width: 0.8"/>
      </defs>
      <g>
       <use xlink:href="#m76c7e4c9ea" x="73.789043" y="529.308125" style="stroke: #000000; stroke-width: 0.8"/>
      </g>
     </g>
     <g id="text_1">
      <text style="font: 10px 'DejaVu Sans', 'Bitstream Vera Sans', 'Computer Modern Sans Serif', 'Lucida Grande', 'Verdana', 'Geneva', 'Lucid', 'Arial', 'Helvetica', 'Avant Garde', sans-serif; text-anchor: middle" x="73.789043" y="543.906563" transform="rotate(-0 73.789043 543.906563)">95</text>
     </g>
    </g>
    <g id="xtick_2">
     <g id="line2d_3">
      <path d="M 151.916484 529.308125 
L 151.916484 23.837812 
" clip-path="url(#pb626d1499e)" style="fill: none; stroke: #b0b0b0; stroke-opacity: 0.3; stroke-width: 0.8; stroke-linecap: square"/>
     </g>
     <g id="line2d_4">
      <g>
       <use xlink:href="#m76c7e4c9ea" x="151.916484" y="529.308125" style="stroke: #000000; stroke-width: 0.8"/>
      </g>
     </g>
     <g id="text_2">
      <text style="font: 10px 'DejaVu Sans', 'Bitstream Vera Sans', 'Computer Modern Sans Serif', 'Lucida Grande', 'Verdana', 'Geneva', 'Lucid', 'Arial', 'Helvetica', 'Avant Garde', sans-serif; text-anchor: middle" x="151.916484" y="543.906563" transform="rotate(-0 151.916484 543.906563)">100</text>
     </g>
    </g>
    <g id="xtick_3">
     <g id="line2d_5">
      <path d="M 230.043926 529.308125 
L 230.043926 23.837812 
" clip-path="url(#pb626d1499e)" style="fill: none; stroke: #b0b0b0; stroke-opacity: 0.3; stroke-width: 0.8; stroke-linecap: square"/>
     </g>
     <g id="line2d_6">
      <g>
       <use xlink:href="#m76c7e4c9ea" x="230.043926" y="529.308125" style="stroke: #000000; stroke-width: 0.8"/>
      </g>
     </g>
     <g id="text_3">
      <text style="font: 10px 'DejaVu Sans', 'Bitstream Vera Sans', 'Computer Modern Sans Serif', 'Lucida Grande', 'Verdana', 'Geneva', 'Lucid', 'Arial', 'Helvetica', 'Avant Garde', sans-serif; text-anchor: middle" x="230.043926" y="543.906563" transform="rotate(-0 230.043926 543.906563)">105</text>
     </g>
    </g>
    <g id="xtick_4">
     <g id="line2d_7">
      <path d="M 308.171367 529.308125 
L 308.171367 23.837812 
" clip-path="url(#pb626d1499e)" style="fill: none; stroke: #b0b0b0; stroke-opacity: 0.3; stroke-width: 0.8; stroke-linecap: square"/>
     </g>
     <g id="line2d_8">
      <g>
       <use xlink:href="#m76c7e4c9ea" x="308.171367" y="529.308125" style="stroke: #000000; stroke-width: 0.8"/>
      </g>
     </g>
     <g id="text_4">
      <text style="font: 10px 'DejaVu Sans', 'Bitstream Vera Sans', 'Computer Modern Sans Serif', 'Lucida Grande', 'Verdana', 'Geneva', 'Lucid', 'Arial', 'Helvetica', 'Avant Garde', sans-serif; text-anchor: middle" x="308.171367" y="543.906563" transform="rotate(-0 308.171367 543.906563)">110</text>
     </g>
    </g>
    <g id="xtick_5">
     <g id="line2d_9">
      <path d="M 386.298809 529.308125 
L 386.298809 23.837812 
" clip-path="url(#pb626d1499e)" style="fill: none; stroke: #b0b0b0; stroke-opacity: 0.3; stroke-width: 0.8; stroke-linecap: square"/>
     </g>
     <g id="line2d_10">
      <g>
       <use xlink:href="#m76c7e4c9ea" x="386.298809" y="529.308125" style="stroke: #000000; stroke-width: 0.8"/>
      </g>
     </g>
     <g id="text_5">
      <text style="font: 10px 'DejaVu Sans', 'Bitstream Vera Sans', 'Computer Modern Sans Serif', 'Lucida Grande', 'Verdana', 'Geneva', 'Lucid', 'Arial', 'Helvetica', 'Avant Garde', sans-serif; text-anchor: middle" x="386.298809" y="543.906563" transform="rotate(-0 386.298809 543.906563)">115</text>
     </g>
    </g>
    <g id="xtick_6">
     <g id="line2d_11">
      <path d="M 464.42625 529.308125 
L 464.42625 23.837812 
" clip-path="url(#pb626d1499e)" style="fill: none; stroke: #b0b0b0; stroke-opacity: 0.3; stroke-width: 0.8; stroke-linecap: square"/>
     </g>
     <g id="line2d_12">
      <g>
       <use xlink:href="#m76c7e4c9ea" x="464.42625" y="529.308125" style="stroke: #000000; stroke-width: 0.8"/>
      </g>
     </g>
     <g id="text_6">
      <text style="font: 10px 'DejaVu Sans', 'Bitstream Vera Sans', 'Computer Modern Sans Serif', 'Lucida Grande', 'Verdana', 'Geneva', 'Lucid', 'Arial', 'Helvetica', 'Avant Garde', sans-serif; text-anchor: middle" x="464.42625" y="543.906563" transform="rotate(-0 464.42625 543.906563)">120</text>
     </g>
    </g>
    <g id="xtick_7">
     <g id="line2d_13">
      <path d="M 542.553691 529.308125 
L 542.553691 23.837812 
" clip-path="url(#pb626d1499e)" style="fill: none; stroke: #b0b0b0; stroke-opacity: 0.3; stroke-width: 0.8; stroke-linecap: square"/>
     </g>
     <g id="line2d_14">
      <g>
       <use xlink:href="#m76c7e4c9ea" x="542.553691" y="529.308125" style="stroke: #000000; stroke-width: 0.8"/>
      </g>
     </g>
     <g id="text_7">
      <text style="font: 10px 'DejaVu Sans', 'Bitstream Vera Sans', 'Computer Modern Sans Serif', 'Lucida Grande', 'Verdana', 'Geneva', 'Lucid', 'Arial', 'Helvetica', 'Avant Garde', sans-serif; text-anchor: middle" x="542.553691" y="543.906563" transform="rotate(-0 542.553691 543.906563)">125</text>
     </g>
    </g>
    <g id="text_8">
     <text style="font: 12px 'DejaVu Sans', 'Bitstream Vera Sans', 'Computer Modern Sans Serif', 'Lucida Grande', 'Verdana', 'Geneva', 'Lucid', 'Arial', 'Helvetica', 'Avant Garde', sans-serif; text-anchor: middle" x="339.422344" y="559.104375" transform="rotate(-0 339.422344 559.104375)">Build Number</text>
    </g>
   </g>
   <g id="matplotlib.axis_2">
    <g id="ytick_1">
     <g id="line2d_15">
      <path d="M 64.41375 120.482891 
L 614.430938 120.482891 
" clip-path="url(#pb626d1499e)" style="fill: none; stroke: #b0b0b0; stroke-opacity: 0.3; stroke-width: 0.8; stroke-linecap: square"/>
     </g>
     <g id="line2d_16">
      <defs>
       <path id="m463f856bcb" d="M 0 0 
L -3.5 0 
" style="stroke: #000000; stroke-width: 0.8"/>
      </defs>
      <g>
       <use xlink:href="#m463f856bcb" x="64.41375" y="120.482891" style="stroke: #000000; stroke-width: 0.8"/>
      </g>
     </g>
     <g id="text_9">
      <!-- $\mathdefault{10^{7}}$ -->
      <g transform="translate(39.81375 124.282109)">
       <text>
        <tspan style="font: 10px 'DejaVu Sans'" x="0 6.362305" y="-0.06406250000000036">10</tspan>
        <tspan style="font: 7px 'DejaVu Sans'" x="12.820312" y="-3.8921875000000004">7</tspan>
       </text>
      </g>
     </g>
    </g>
    <g id="ytick_2">
     <g id="line2d_17">
      <defs>
       <path id="me7d79f4e84" d="M 0 0 
L -2 0 
" style="stroke: #000000; stroke-width: 0.6"/>
      </defs>
      <g>
       <use xlink:href="#me7d79f4e84" x="64.41375" y="384.168263" style="stroke: #000000; stroke-width: 0.6"/>
      </g>
     </g>
     <g id="text_10">
      <!-- $\mathdefault{8\times10^{6}}$ -->
      <g transform="translate(22.81375 387.967482)">
       <text>
        <tspan style="font: 10px 'DejaVu Sans'" x="0 8.310547 18.637695 25" y="-0.9765625">8×10</tspan>
        <tspan style="font: 7px 'DejaVu Sans'" x="31.458008" y="-4.8046875">6</tspan>
       </text>
      </g>
     </g>
    </g>
    <g id="ytick_3">
     <g id="line2d_18">
      <g>
       <use xlink:href="#me7d79f4e84" x="64.41375" y="244.985825" style="stroke: #000000; stroke-width: 0.6"/>
      </g>
     </g>
     <g id="text_11">
      <!-- $\mathdefault{9\times10^{6}}$ -->
      <g transform="translate(22.81375 248.785043)">
       <text>
        <tspan style="font: 10px 'DejaVu Sans'" x="0 8.310547 18.637695 25" y="-0.9765625">9×10</tspan>
        <tspan style="font: 7px 'DejaVu Sans'" x="31.458008" y="-4.8046875">6</tspan>
       </text>
      </g>
     </g>
    </g>
    <g id="text_12">
     <text style="font: 12px 'DejaVu Sans', 'Bitstream Vera Sans', 'Computer Modern Sans Serif', 'Lucida Grande', 'Verdana', 'Geneva', 'Lucid', 'Arial', 'Helvetica', 'Avant Garde', sans-serif; text-anchor: middle" x="16.318125" y="276.572969" transform="rotate(-90 16.318125 276.572969)">Median Elapsed Time (nanoseconds)</text>
    </g>
   </g>
   <g id="line2d_19">
    <path d="M 89.414531 485.31165 
L 105.04002 421.712027 
L 136.290996 499.700729 
L 151.916484 437.546086 
L 167.541973 506.332202 
L 183.167461 492.038211 
L 198.792949 459.193051 
L 214.418437 501.223383 
L 230.043926 456.3057 
L 245.669414 471.808547 
L 276.920391 393.617815 
L 292.545879 388.758841 
L 308.171367 502.87919 
L 323.796855 475.312047 
L 339.422344 489.292835 
L 370.67332 497.229906 
L 386.298809 497.40904 
L 401.924297 501.654333 
L 417.549785 496.160769 
L 433.175273 494.19793 
L 448.800762 488.798681 
L 464.42625 481.891963 
L 480.051738 491.063513 
L 495.677227 455.014648 
L 511.302715 479.086058 
L 526.928203 503.551461 
L 558.17918 335.83908 
L 573.804668 491.885843 
L 589.430156 433.669476 
" clip-path="url(#pb626d1499e)" style="fill: none; stroke: #1f77b4; stroke-width: 2; stroke-linecap: square"/>
    <defs>
     <path id="m0bd183c682" d="M 0 3 
C 0.795609 3 1.55874 2.683901 2.12132 2.12132 
C 2.683901 1.55874 3 0.795609 3 0 
C 3 -0.795609 2.683901 -1.55874 2.12132 -2.12132 
C 1.55874 -2.683901 0.795609 -3 0 -3 
C -0.795609 -3 -1.55874 -2.683901 -2.12132 -2.12132 
C -2.683901 -1.55874 -3 -0.795609 -3 0 
C -3 0.795609 -2.683901 1.55874 -2.12132 2.12132 
C -1.55874 2.683901 -0.795609 3 0 3 
z
" style="stroke: #1f77b4"/>
    </defs>
    <g clip-path="url(#pb626d1499e)">
     <use xlink:href="#m0bd183c682" x="89.414531" y="485.31165" style="fill: #1f77b4; stroke: #1f77b4"/>
     <use xlink:href="#m0bd183c682" x="105.04002" y="421.712027" style="fill: #1f77b4; stroke: #1f77b4"/>
     <use xlink:href="#m0bd183c682" x="136.290996" y="499.700729" style="fill: #1f77b4; stroke: #1f77b4"/>
     <use xlink:href="#m0bd183c682" x="151.916484" y="437.546086" style="fill: #1f77b4; stroke: #1f77b4"/>
     <use xlink:href="#m0bd183c682" x="167.541973" y="506.332202" style="fill: #1f77b4; stroke: #1f77b4"/>
     <use xlink:href="#m0bd183c682" x="183.167461" y="492.038211" style="fill: #1f77b4; stroke: #1f77b4"/>
     <use xlink:href="#m0bd183c682" x="198.792949" y="459.193051" style="fill: #1f77b4; stroke: #1f77b4"/>
     <use xlink:href="#m0bd183c682" x="214.418437" y="501.223383" style="fill: #1f77b4; stroke: #1f77b4"/>
     <use xlink:href="#m0bd183c682" x="230.043926" y="456.3057" style="fill: #1f77b4; stroke: #1f77b4"/>
     <use xlink:href="#m0bd183c682" x="245.669414" y="471.808547" style="fill: #1f77b4; stroke: #1f77b4"/>
     <use xlink:href="#m0bd183c682" x="276.920391" y="393.617815" style="fill: #1f77b4; stroke: #1f77b4"/>
     <use xlink:href="#m0bd183c682" x="292.545879" y="388.758841" style="fill: #1f77b4; stroke: #1f77b4"/>
     <use xlink:href="#m0bd183c682" x="308.171367" y="502.87919" style="fill: #1f77b4; stroke: #1f77b4"/>
     <use xlink:href="#m0bd183c682" x="323.796855" y="475.312047" style="fill: #1f77b4; stroke: #1f77b4"/>
     <use xlink:href="#m0bd183c682" x="339.422344" y="489.292835" style="fill: #1f77b4; stroke: #1f77b4"/>
     <use xlink:href="#m0bd183c682" x="370.67332" y="497.229906" style="fill: #1f77b4; stroke: #1f77b4"/>
     <use xlink:href="#m0bd183c682" x="386.298809" y="497.40904" style="fill: #1f77b4; stroke: #1f77b4"/>
     <use xlink:href="#m0bd183c682" x="401.924297" y="501.654333" style="fill: #1f77b4; stroke: #1f77b4"/>
     <use xlink:href="#m0bd183c682" x="417.549785" y="496.160769" style="fill: #1f77b4; stroke: #1f77b4"/>
     <use xlink:href="#m0bd183c682" x="433.175273" y="494.19793" style="fill: #1f77b4; stroke: #1f77b4"/>
     <use xlink:href="#m0bd183c682" x="448.800762" y="488.798681" style="fill: #1f77b4; stroke: #1f77b4"/>
     <use xlink:href="#m0bd183c682" x="464.42625" y="481.891963" style="fill: #1f77b4; stroke: #1f77b4"/>
     <use xlink:href="#m0bd183c682" x="480.051738" y="491.063513" style="fill: #1f77b4; stroke: #1f77b4"/>
     <use xlink:href="#m0bd183c682" x="495.677227" y="455.014648" style="fill: #1f77b4; stroke: #1f77b4"/>
     <use xlink:href="#m0bd183c682" x="511.302715" y="479.086058" style="fill: #1f77b4; stroke: #1f77b4"/>
     <use xlink:href="#m0bd183c682" x="526.928203" y="503.551461" style="fill: #1f77b4; stroke: #1f77b4"/>
     <use xlink:href="#m0bd183c682" x="558.17918" y="335.83908" style="fill: #1f77b4; stroke: #1f77b4"/>
     <use xlink:href="#m0bd183c682" x="573.804668" y="491.885843" style="fill: #1f77b4; stroke: #1f77b4"/>
     <use xlink:href="#m0bd183c682" x="589.430156" y="433.669476" style="fill: #1f77b4; stroke: #1f77b4"/>
    </g>
   </g>
   <g id="line2d_20">
    <path d="M 89.414531 482.386671 
L 105.04002 422.99472 
L 136.290996 497.907524 
L 151.916484 455.83312 
L 167.541973 503.769867 
L 183.167461 496.189757 
L 198.792949 459.882507 
L 214.418437 493.012062 
L 230.043926 444.525156 
L 245.669414 482.315534 
L 276.920391 388.336689 
L 292.545879 401.252288 
L 308.171367 494.398382 
L 323.796855 447.037787 
L 339.422344 483.224025 
L 370.67332 502.354509 
L 386.298809 496.703551 
L 401.924297 502.741012 
L 417.549785 492.137076 
L 433.175273 494.361039 
L 448.800762 480.928095 
L 464.42625 475.265985 
L 480.051738 490.648546 
L 495.677227 477.366421 
L 511.302715 482.702362 
L 526.928203 497.225094 
L 558.17918 343.732692 
L 573.804668 497.445846 
L 589.430156 447.812372 
" clip-path="url(#pb626d1499e)" style="fill: none; stroke: #ff7f0e; stroke-width: 2; stroke-linecap: square"/>
    <defs>
     <path id="ma60f9ecc4c" d="M 0 3 
C 0.795609 3 1.55874 2.683901 2.12132 2.12132 
C 2.683901 1.55874 3 0.795609 3 0 
C 3 -0.795609 2.683901 -1.55874 2.12132 -2.12132 
C 1.55874 -2.683901 0.795609 -3 0 -3 
C -0.795609 -3 -1.55874 -2.683901 -2.12132 -2.12132 
C -2.683901 -1.55874 -3 -0.795609 -3 0 
C -3 0.795609 -2.683901 1.55874 -2.12132 2.12132 
C -1.55874 2.683901 -0.795609 3 0 3 
z
" style="stroke: #ff7f0e"/>
    </defs>
    <g clip-path="url(#pb626d1499e)">
     <use xlink:href="#ma60f9ecc4c" x="89.414531" y="482.386671" style="fill: #ff7f0e; stroke: #ff7f0e"/>
     <use xlink:href="#ma60f9ecc4c" x="105.04002" y="422.99472" style="fill: #ff7f0e; stroke: #ff7f0e"/>
     <use xlink:href="#ma60f9ecc4c" x="136.290996" y="497.907524" style="fill: #ff7f0e; stroke: #ff7f0e"/>
     <use xlink:href="#ma60f9ecc4c" x="151.916484" y="455.83312" style="fill: #ff7f0e; stroke: #ff7f0e"/>
     <use xlink:href="#ma60f9ecc4c" x="167.541973" y="503.769867" style="fill: #ff7f0e; stroke: #ff7f0e"/>
     <use xlink:href="#ma60f9ecc4c" x="183.167461" y="496.189757" style="fill: #ff7f0e; stroke: #ff7f0e"/>
     <use xlink:href="#ma60f9ecc4c" x="198.792949" y="459.882507" style="fill: #ff7f0e; stroke: #ff7f0e"/>
     <use xlink:href="#ma60f9ecc4c" x="214.418437" y="493.012062" style="fill: #ff7f0e; stroke: #ff7f0e"/>
     <use xlink:href="#ma60f9ecc4c" x="230.043926" y="444.525156" style="fill: #ff7f0e; stroke: #ff7f0e"/>
     <use xlink:href="#ma60f9ecc4c" x="245.669414" y="482.315534" style="fill: #ff7f0e; stroke: #ff7f0e"/>
     <use xlink:href="#ma60f9ecc4c" x="276.920391" y="388.336689" style="fill: #ff7f0e; stroke: #ff7f0e"/>
     <use xlink:href="#ma60f9ecc4c" x="292.545879" y="401.252288" style="fill: #ff7f0e; stroke: #ff7f0e"/>
     <use xlink:href="#ma60f9ecc4c" x="308.171367" y="494.398382" style="fill: #ff7f0e; stroke: #ff7f0e"/>
     <use xlink:href="#ma60f9ecc4c" x="323.796855" y="447.037787" style="fill: #ff7f0e; stroke: #ff7f0e"/>
     <use xlink:href="#ma60f9ecc4c" x="339.422344" y="483.224025" style="fill: #ff7f0e; stroke: #ff7f0e"/>
     <use xlink:href="#ma60f9ecc4c" x="370.67332" y="502.354509" style="fill: #ff7f0e; stroke: #ff7f0e"/>
     <use xlink:href="#ma60f9ecc4c" x="386.298809" y="496.703551" style="fill: #ff7f0e; stroke: #ff7f0e"/>
     <use xlink:href="#ma60f9ecc4c" x="401.924297" y="502.741012" style="fill: #ff7f0e; stroke: #ff7f0e"/>
     <use xlink:href="#ma60f9ecc4c" x="417.549785" y="492.137076" style="fill: #ff7f0e; stroke: #ff7f0e"/>
     <use xlink:href="#ma60f9ecc4c" x="433.175273" y="494.361039" style="fill: #ff7f0e; stroke: #ff7f0e"/>
     <use xlink:href="#ma60f9ecc4c" x="448.800762" y="480.928095" style="fill: #ff7f0e; stroke: #ff7f0e"/>
     <use xlink:href="#ma60f9ecc4c" x="464.42625" y="475.265985" style="fill: #ff7f0e; stroke: #ff7f0e"/>
     <use xlink:href="#ma60f9ecc4c" x="480.051738" y="490.648546" style="fill: #ff7f0e; stroke: #ff7f0e"/>
     <use xlink:href="#ma60f9ecc4c" x="495.677227" y="477.366421" style="fill: #ff7f0e; stroke: #ff7f0e"/>
     <use xlink:href="#ma60f9ecc4c" x="511.302715" y="482.702362" style="fill: #ff7f0e; stroke: #ff7f0e"/>
     <use xlink:href="#ma60f9ecc4c" x="526.928203" y="497.225094" style="fill: #ff7f0e; stroke: #ff7f0e"/>
     <use xlink:href="#ma60f9ecc4c" x="558.17918" y="343.732692" style="fill: #ff7f0e; stroke: #ff7f0e"/>
     <use xlink:href="#ma60f9ecc4c" x="573.804668" y="497.445846" style="fill: #ff7f0e; stroke: #ff7f0e"/>
     <use xlink:href="#ma60f9ecc4c" x="589.430156" y="447.812372" style="fill: #ff7f0e; stroke: #ff7f0e"/>
    </g>
   </g>
   <g id="line2d_21">
    <path d="M 89.414531 240.672822 
L 105.04002 286.982481 
L 136.290996 265.673651 
L 151.916484 213.697032 
L 167.541973 298.446464 
L 183.167461 271.388333 
L 198.792949 298.658851 
L 214.418437 294.418884 
L 230.043926 287.876441 
L 245.669414 292.374053 
L 276.920391 295.491191 
L 292.545879 300.72134 
L 308.171367 282.719765 
L 339.422344 291.79116 
L 386.298809 294.658456 
L 401.924297 271.425082 
L 417.549785 193.977468 
L 433.175273 296.512546 
L 448.800762 301.32021 
L 464.42625 278.015159 
L 480.051738 304.863296 
L 495.677227 273.62206 
L 511.302715 231.111008 
L 526.928203 281.435991 
L 558.17918 153.858185 
L 573.804668 75.019197 
L 589.430156 279.691933 
" clip-path="url(#pb626d1499e)" style="fill: none; stroke: #2ca02c; stroke-width: 2; stroke-linecap: square"/>
    <defs>
     <path id="mebd562ff06" d="M 0 3 
C 0.795609 3 1.55874 2.683901 2.12132 2.12132 
C 2.683901 1.55874 3 0.795609 3 0 
C 3 -0.795609 2.683901 -1.55874 2.12132 -2.12132 
C 1.55874 -2.683901 0.795609 -3 0 -3 
C -0.795609 -3 -1.55874 -2.683901 -2.12132 -2.12132 
C -2.683901 -1.55874 -3 -0.795609 -3 0 
C -3 0.795609 -2.683901 1.55874 -2.12132 2.12132 
C -1.55874 2.683901 -0.795609 3 0 3 
z
" style="stroke: #2ca02c"/>
    </defs>
    <g clip-path="url(#pb626d1499e)">
     <use xlink:href="#mebd562ff06" x="89.414531" y="240.672822" style="fill: #2ca02c; stroke: #2ca02c"/>
     <use xlink:href="#mebd562ff06" x="105.04002" y="286.982481" style="fill: #2ca02c; stroke: #2ca02c"/>
     <use xlink:href="#mebd562ff06" x="136.290996" y="265.673651" style="fill: #2ca02c; stroke: #2ca02c"/>
     <use xlink:href="#mebd562ff06" x="151.916484" y="213.697032" style="fill: #2ca02c; stroke: #2ca02c"/>
     <use xlink:href="#mebd562ff06" x="167.541973" y="298.446464" style="fill: #2ca02c; stroke: #2ca02c"/>
     <use xlink:href="#mebd562ff06" x="183.167461" y="271.388333" style="fill: #2ca02c; stroke: #2ca02c"/>
     <use xlink:href="#mebd562ff06" x="198.792949" y="298.658851" style="fill: #2ca02c; stroke: #2ca02c"/>
     <use xlink:href="#mebd562ff06" x="214.418437" y="294.418884" style="fill: #2ca02c; stroke: #2ca02c"/>
     <use xlink:href="#mebd562ff06" x="230.043926" y="287.876441" style="fill: #2ca02c; stroke: #2ca02c"/>
     <use xlink:href="#mebd562ff06" x="245.669414" y="292.374053" style="fill: #2ca02c; stroke: #2ca02c"/>
     <use xlink:href="#mebd562ff06" x="276.920391" y="295.491191" style="fill: #2ca02c; stroke: #2ca02c"/>
     <use xlink:href="#mebd562ff06" x="292.545879" y="300.72134" style="fill: #2ca02c; stroke: #2ca02c"/>
     <use xlink:href="#mebd562ff06" x="308.171367" y="282.719765" style="fill: #2ca02c; stroke: #2ca02c"/>
     <use xlink:href="#mebd562ff06" x="339.422344" y="291.79116" style="fill: #2ca02c; stroke: #2ca02c"/>
     <use xlink:href="#mebd562ff06" x="386.298809" y="294.658456" style="fill: #2ca02c; stroke: #2ca02c"/>
     <use xlink:href="#mebd562ff06" x="401.924297" y="271.425082" style="fill: #2ca02c; stroke: #2ca02c"/>
     <use xlink:href="#mebd562ff06" x="417.549785" y="193.977468" style="fill: #2ca02c; stroke: #2ca02c"/>
     <use xlink:href="#mebd562ff06" x="433.175273" y="296.512546" style="fill: #2ca02c; stroke: #2ca02c"/>
     <use xlink:href="#mebd562ff06" x="448.800762" y="301.32021" style="fill: #2ca02c; stroke: #2ca02c"/>
     <use xlink:href="#mebd562ff06" x="464.42625" y="278.015159" style="fill: #2ca02c; stroke: #2ca02c"/>
     <use xlink:href="#mebd562ff06" x="480.051738" y="304.863296" style="fill: #2ca02c; stroke: #2ca02c"/>
     <use xlink:href="#mebd562ff06" x="495.677227" y="273.62206" style="fill: #2ca02c; stroke: #2ca02c"/>
     <use xlink:href="#mebd562ff06" x="511.302715" y="231.111008" style="fill: #2ca02c; stroke: #2ca02c"/>
     <use xlink:href="#mebd562ff06" x="526.928203" y="281.435991" style="fill: #2ca02c; stroke: #2ca02c"/>
     <use xlink:href="#mebd562ff06" x="558.17918" y="153.858185" style="fill: #2ca02c; stroke: #2ca02c"/>
     <use xlink:href="#mebd562ff06" x="573.804668" y="75.019197" style="fill: #2ca02c; stroke: #2ca02c"/>
     <use xlink:href="#mebd562ff06" x="589.430156" y="279.691933" style="fill: #2ca02c; stroke: #2ca02c"/>
    </g>
   </g>
   <g id="line2d_22">
    <path d="M 89.414531 246.262957 
L 105.04002 294.961162 
L 136.290996 298.749373 
L 151.916484 218.292034 
L 167.541973 310.237426 
L 183.167461 273.695645 
L 198.792949 295.890281 
L 214.418437 305.154605 
L 230.043926 303.071751 
L 245.669414 310.68582 
L 276.920391 314.085043 
L 292.545879 306.655098 
L 308.171367 295.895641 
L 339.422344 304.391521 
L 386.298809 307.570231 
L 401.924297 289.738349 
L 417.549785 181.081448 
L 433.175273 305.49709 
L 448.800762 278.296034 
L 464.42625 293.139097 
L 480.051738 316.548628 
L 495.677227 304.594553 
L 511.302715 257.697083 
L 526.928203 283.433304 
L 558.17918 193.003447 
L 573.804668 46.813736 
L 589.430156 281.596735 
" clip-path="url(#pb626d1499e)" style="fill: none; stroke: #d62728; stroke-width: 2; stroke-linecap: square"/>
    <defs>
     <path id="m19ad66d82c" d="M 0 3 
C 0.795609 3 1.55874 2.683901 2.12132 2.12132 
C 2.683901 1.55874 3 0.795609 3 0 
C 3 -0.795609 2.683901 -1.55874 2.12132 -2.12132 
C 1.55874 -2.683901 0.795609 -3 0 -3 
C -0.795609 -3 -1.55874 -2.683901 -2.12132 -2.12132 
C -2.683901 -1.55874 -3 -0.795609 -3 0 
C -3 0.795609 -2.683901 1.55874 -2.12132 2.12132 
C -1.55874 2.683901 -0.795609 3 0 3 
z
" style="stroke: #d62728"/>
    </defs>
    <g clip-path="url(#pb626d1499e)">
     <use xlink:href="#m19ad66d82c" x="89.414531" y="246.262957" style="fill: #d62728; stroke: #d62728"/>
     <use xlink:href="#m19ad66d82c" x="105.04002" y="294.961162" style="fill: #d62728; stroke: #d62728"/>
     <use xlink:href="#m19ad66d82c" x="136.290996" y="298.749373" style="fill: #d62728; stroke: #d62728"/>
     <use xlink:href="#m19ad66d82c" x="151.916484" y="218.292034" style="fill: #d62728; stroke: #d62728"/>
     <use xlink:href="#m19ad66d82c" x="167.541973" y="310.237426" style="fill: #d62728; stroke: #d62728"/>
     <use xlink:href="#m19ad66d82c" x="183.167461" y="273.695645" style="fill: #d62728; stroke: #d62728"/>
     <use xlink:href="#m19ad66d82c" x="198.792949" y="295.890281" style="fill: #d62728; stroke: #d62728"/>
     <use xlink:href="#m19ad66d82c" x="214.418437" y="305.154605" style="fill: #d62728; stroke: #d62728"/>
     <use xlink:href="#m19ad66d82c" x="230.043926" y="303.071751" style="fill: #d62728; stroke: #d62728"/>
     <use xlink:href="#m19ad66d82c" x="245.669414" y="310.68582" style="fill: #d62728; stroke: #d62728"/>
     <use xlink:href="#m19ad66d82c" x="276.920391" y="314.085043" style="fill: #d62728; stroke: #d62728"/>
     <use xlink:href="#m19ad66d82c" x="292.545879" y="306.655098" style="fill: #d62728; stroke: #d62728"/>
     <use xlink:href="#m19ad66d82c" x="308.171367" y="295.895641" style="fill: #d62728; stroke: #d62728"/>
     <use xlink:href="#m19ad66d82c" x="339.422344" y="304.391521" style="fill: #d62728; stroke: #d62728"/>
     <use xlink:href="#m19ad66d82c" x="386.298809" y="307.570231" style="fill: #d62728; stroke: #d62728"/>
     <use xlink:href="#m19ad66d82c" x="401.924297" y="289.738349" style="fill: #d62728; stroke: #d62728"/>
     <use xlink:href="#m19ad66d82c" x="417.549785" y="181.081448" style="fill: #d62728; stroke: #d62728"/>
     <use xlink:href="#m19ad66d82c" x="433.175273" y="305.49709" style="fill: #d62728; stroke: #d62728"/>
     <use xlink:href="#m19ad66d82c" x="448.800762" y="278.296034" style="fill: #d62728; stroke: #d62728"/>
     <use xlink:href="#m19ad66d82c" x="464.42625" y="293.139097" style="fill: #d62728; stroke: #d62728"/>
     <use xlink:href="#m19ad66d82c" x="480.051738" y="316.548628" style="fill: #d62728; stroke: #d62728"/>
     <use xlink:href="#m19ad66d82c" x="495.677227" y="304.594553" style="fill: #d62728; stroke: #d62728"/>
     <use xlink:href="#m19ad66d82c" x="511.302715" y="257.697083" style="fill: #d62728; stroke: #d62728"/>
     <use xlink:href="#m19ad66d82c" x="526.928203" y="283.433304" style="fill: #d62728; stroke: #d62728"/>
     <use xlink:href="#m19ad66d82c" x="558.17918" y="193.003447" style="fill: #d62728; stroke: #d62728"/>
     <use xlink:href="#m19ad66d82c" x="573.804668" y="46.813736" style="fill: #d62728; stroke: #d62728"/>
     <use xlink:href="#m19ad66d82c" x="589.430156" y="281.596735" style="fill: #d62728; stroke: #d62728"/>
    </g>
   </g>
   <g id="patch_3">
    <path d="M 64.41375 529.308125 
L 64.41375 23.837813 
" style="fill: none; stroke: #000000; stroke-width: 0.8; stroke-linejoin: miter; stroke-linecap: square"/>
   </g>
   <g id="patch_4">
    <path d="M 614.430938 529.308125 
L 614.430938 23.837813 
" style="fill: none; stroke: #000000; stroke-width: 0.8; stroke-linejoin: miter; stroke-linecap: square"/>
   </g>
   <g id="patch_5">
    <path d="M 64.41375 529.308125 
L 614.430937 529.308125 
" style="fill: none; stroke: #000000; stroke-width: 0.8; stroke-linejoin: miter; stroke-linecap: square"/>
   </g>
   <g id="patch_6">
    <path d="M 64.41375 23.837812 
L 614.430937 23.837812 
" style="fill: none; stroke: #000000; stroke-width: 0.8; stroke-linejoin: miter; stroke-linecap: square"/>
   </g>
   <g id="text_13">
    <text style="font: 700 14px 'DejaVu Sans', 'Bitstream Vera Sans', 'Computer Modern Sans Serif', 'Lucida Grande', 'Verdana', 'Geneva', 'Lucid', 'Arial', 'Helvetica', 'Avant Garde', sans-serif; text-anchor: middle" x="339.422344" y="17.837813" transform="rotate(-0 339.422344 17.837813)">Coroutine Memory - Performance Trend</text>
   </g>
   <g id="legend_1">
    <g id="patch_7">
     <path d="M 648.931797 91.662813 
L 841.620859 91.662813 
Q 843.620859 91.662813 843.620859 89.662813 
L 843.620859 30.837813 
Q 843.620859 28.837813 841.620859 28.837813 
L 648.931797 28.837813 
Q 646.931797 28.837813 646.931797 30.837813 
L 646.931797 89.662813 
Q 646.931797 91.662813 648.931797 91.662813 
z
" style="fill: #ffffff; opacity: 0.8; stroke: #cccccc; stroke-linejoin: miter"/>
    </g>
    <g id="line2d_23">
     <path d="M 650.931797 36.93625 
L 660.931797 36.93625 
L 670.931797 36.93625 
" style="fill: none; stroke: #1f77b4; stroke-width: 2; stroke-linecap: square"/>
     <g>
      <use xlink:href="#m0bd183c682" x="660.931797" y="36.93625" style="fill: #1f77b4; stroke: #1f77b4"/>
     </g>
    </g>
    <g id="text_14">
     <text style="font: 10px 'DejaVu Sans', 'Bitstream Vera Sans', 'Computer Modern Sans Serif', 'Lucida Grande', 'Verdana', 'Geneva', 'Lucid', 'Arial', 'Helvetica', 'Avant Garde', sans-serif; text-anchor: start" x="678.931797" y="40.43625" transform="rotate(-0 678.931797 40.43625)">gcc-14.2 - CoroutineMemory_V1</text>
    </g>
    <g id="line2d_24">
     <path d="M 650.931797 51.8925 
L 660.931797 51.8925 
L 670.931797 51.8925 
" style="fill: none; stroke: #ff7f0e; stroke-width: 2; stroke-linecap: square"/>
     <g>
      <use xlink:href="#ma60f9ecc4c" x="660.931797" y="51.8925" style="fill: #ff7f0e; stroke: #ff7f0e"/>
     </g>
    </g>
    <g id="text_15">
     <text style="font: 10px 'DejaVu Sans', 'Bitstream Vera Sans', 'Computer Modern Sans Serif', 'Lucida Grande', 'Verdana', 'Geneva', 'Lucid', 'Arial', 'Helvetica', 'Avant Garde', sans-serif; text-anchor: start" x="678.931797" y="55.3925" transform="rotate(-0 678.931797 55.3925)">gcc-14.2 - CoroutineMemory_V2</text>
    </g>
    <g id="line2d_25">
     <path d="M 650.931797 66.84875 
L 660.931797 66.84875 
L 670.931797 66.84875 
" style="fill: none; stroke: #2ca02c; stroke-width: 2; stroke-linecap: square"/>
     <g>
      <use xlink:href="#mebd562ff06" x="660.931797" y="66.84875" style="fill: #2ca02c; stroke: #2ca02c"/>
     </g>
    </g>
    <g id="text_16">
     <text style="font: 10px 'DejaVu Sans', 'Bitstream Vera Sans', 'Computer Modern Sans Serif', 'Lucida Grande', 'Verdana', 'Geneva', 'Lucid', 'Arial', 'Helvetica', 'Avant Garde', sans-serif; text-anchor: start" x="678.931797" y="70.34875" transform="rotate(-0 678.931797 70.34875)">gcc-4.2 - CoroutineMemory_V1</text>
    </g>
    <g id="line2d_26">
     <path d="M 650.931797 81.805 
L 660.931797 81.805 
L 670.931797 81.805 
" style="fill: none; stroke: #d62728; stroke-width: 2; stroke-linecap: square"/>
     <g>
      <use xlink:href="#m19ad66d82c" x="660.931797" y="81.805" style="fill: #d62728; stroke: #d62728"/>
     </g>
    </g>
    <g id="text_17">
     <text style="font: 10px 'DejaVu Sans', 'Bitstream Vera Sans', 'Computer Modern Sans Serif', 'Lucida Grande', 'Verdana', 'Geneva', 'Lucid', 'Arial', 'Helvetica', 'Avant Garde', sans-serif; text-anchor: start" x="678.931797" y="85.305" transform="rotate(-0 678.931797 85.305)">gcc-4.2 - CoroutineMemory_V2</text>
    </g>
   </g>
  </g>
 </g>
 <defs>
  <clipPath id="pb626d1499e">
   <rect x="64.41375" y="23.837813" width="550.017187" height="505.470313"/>
  </clipPath>
 </defs>
</svg>
